<svg width="79" height="16" viewBox="0 0 79 16" fill="none" xmlns="http://www.w3.org/2000/svg">
<g clip-path="url(#clip0_801_8659)">
<path d="M26.2237 3.66427H25.8009C25.3882 3.66427 25.207 3.78507 24.9352 4.23807L22.6803 7.89228L21.7441 4.27834C21.6333 3.84547 21.5125 3.67434 21.0394 3.67434H20.6871C20.224 3.67434 19.9321 3.94614 19.8414 4.42934L18.7945 10.3083C18.714 10.7512 18.9153 10.9828 19.2978 10.9828H19.4589C19.8616 10.9828 20.0428 10.7814 20.1132 10.3485L20.9589 5.59708L21.7743 8.77815C21.8447 9.10028 21.9051 9.31168 22.5192 9.31168C23.0326 9.31168 23.1534 9.13048 23.3346 8.83855L25.3278 5.56688L24.4822 10.3184C24.4017 10.7714 24.603 10.9928 24.9755 10.9928H25.1466C25.5493 10.9928 25.7305 10.7814 25.8009 10.3586L26.8378 4.43941C26.9284 3.96627 26.6969 3.66427 26.2237 3.66427Z" fill="black"/>
<path d="M32.5154 7.87212C32.4651 6.44265 31.4987 5.39572 29.8679 5.39572C28.0055 5.39572 26.868 6.91579 26.9183 8.57679C26.9787 10.0969 28.0257 11.0733 29.5659 11.0733C31.4785 11.0633 32.5657 9.53312 32.5154 7.87212ZM29.5759 10.0264C28.7001 10.0264 28.1465 9.39219 28.1163 8.52646C28.076 7.40905 28.8109 6.42252 29.8578 6.42252C30.6631 6.42252 31.2973 7.05672 31.3275 7.93252C31.3577 9.11032 30.6229 10.0264 29.5759 10.0264Z" fill="black"/>
<path d="M36.673 5.39572C35.8978 5.39572 35.2838 5.77825 34.871 6.42252C34.9113 5.68765 34.5086 5.47625 34.0959 5.47625C33.9046 5.47625 33.7536 5.52659 33.7436 5.54672L32.898 10.3284C32.8174 10.8217 33.0892 10.9626 33.4516 10.9626H33.6026C33.9952 10.9626 34.1563 10.8015 34.2368 10.3284L34.7402 7.45939C35.1026 6.82519 35.5052 6.52319 36.1294 6.52319C36.7535 6.52319 37.126 6.89565 37.136 7.50972C37.1461 7.67079 37.1058 7.87212 37.0756 8.11372L36.683 10.3284C36.6025 10.8217 36.8844 10.9626 37.2367 10.9626H37.3877C37.7803 10.9626 37.9414 10.8015 38.0219 10.3284L38.4548 7.88219C38.5051 7.61039 38.5353 7.36879 38.5252 7.14732C38.495 6.12052 37.8105 5.39572 36.673 5.39572Z" fill="black"/>
<path d="M60.4907 5.39572C59.8565 5.39572 59.3834 5.75812 59.0613 6.42252C59.1116 5.68765 58.7089 5.47625 58.2962 5.47625C58.0949 5.47625 57.9539 5.52659 57.9439 5.54672L57.0882 10.3284C57.0077 10.8217 57.3298 10.9626 57.6922 10.9626H57.8432C58.1855 10.9626 58.3465 10.8015 58.4371 10.3284L58.719 8.72779C58.9304 7.47952 59.3935 6.61379 60.1384 6.61379C60.5008 6.61379 60.7324 6.76479 60.8834 6.93592C60.9035 6.95605 61.4672 6.73459 61.4471 6.07019C61.4169 5.65745 61.0042 5.39572 60.4907 5.39572Z" fill="black"/>
<path d="M66.9938 5.47628C66.4704 5.47628 66.1784 5.72794 66.0073 6.39234C65.6751 5.76821 64.9906 5.38568 64.1953 5.38568C62.5041 5.38568 61.3263 6.89568 61.3263 8.60702C61.3263 10.0164 62.192 11.0633 63.5611 11.0633C64.3966 11.0633 65.0409 10.721 65.4536 10.0264C65.3932 10.7512 65.5342 10.9727 66.0576 10.9727C66.5207 10.9727 66.6717 10.8016 66.722 10.2882C66.7824 9.34188 67.1046 7.80168 67.477 5.63734C67.477 5.59708 67.2656 5.47628 66.9938 5.47628ZM63.853 10.0264C63.0276 10.0264 62.5544 9.50295 62.5544 8.57681C62.5544 7.48961 63.1886 6.40241 64.3664 6.40241C65.3228 6.40241 65.7254 7.10708 65.7254 7.88221C65.7254 8.85868 65.061 10.0264 63.853 10.0264Z" fill="black"/>
<path d="M75.027 5.39572C74.1009 5.39572 73.4868 5.86885 73.054 6.56345C72.8426 5.82859 72.2084 5.39572 71.403 5.39572C70.6983 5.39572 70.0843 5.72792 69.6615 6.36212C69.6816 5.68765 69.289 5.48632 68.8863 5.48632C68.685 5.48632 68.5441 5.53665 68.534 5.55679L67.6884 10.3385C67.6079 10.8317 67.8797 10.9727 68.2421 10.9727H68.3931C68.7353 10.9727 68.9467 10.8317 69.0273 10.3385L69.5507 7.36879C69.9333 6.77485 70.2957 6.52319 70.8594 6.52319C71.4131 6.52319 71.7554 6.93592 71.7554 7.56006C71.7554 7.66072 71.7453 7.77146 71.7251 7.89226L71.3024 10.3385C71.2218 10.8317 71.5037 10.9727 71.856 10.9727H71.9969C72.3392 10.9727 72.5607 10.8217 72.6412 10.3385L73.1647 7.36879C73.5472 6.77485 73.9096 6.52319 74.4734 6.52319C75.0069 6.52319 75.3995 6.84532 75.3995 7.50972C75.3995 7.67079 75.3693 7.87212 75.329 8.11372L74.9364 10.3284C74.8559 10.8217 75.1277 10.9626 75.4901 10.9626H75.6411C76.0337 10.9626 76.1948 10.8015 76.2753 10.3284L76.7082 7.88219C76.7585 7.61039 76.7786 7.36879 76.7786 7.14732C76.7887 6.07019 76.0639 5.39572 75.027 5.39572Z" fill="black"/>
<path d="M44.6357 7.79161C44.6357 7.04668 44.4847 6.55341 44.1525 6.12054C43.7901 5.65748 43.1156 5.37561 42.3304 5.37561C39.9547 5.37561 39.099 7.12721 39.099 8.64728C39.099 10.0969 40.146 11.0633 41.7566 11.0633C43.3673 11.0633 44.2733 10.3486 44.2733 9.77475C44.2733 9.39222 44.0015 9.26135 43.6894 9.23115C43.2666 9.77475 42.6828 10.0365 41.8875 10.0365C41.1828 10.0365 40.3473 9.76468 40.2869 8.50635H43.9411C44.3337 8.51642 44.6357 8.29495 44.6357 7.79161ZM43.4579 7.62048H40.4077C40.6996 6.84535 41.3741 6.36214 42.2298 6.36214C42.6626 6.36214 42.9948 6.48294 43.2163 6.72454C43.4076 6.94601 43.478 7.24801 43.4579 7.62048Z" fill="black"/>
<path d="M55.9808 7.05673H53.8064C53.5447 7.05673 53.4239 7.11713 53.3434 7.19766C53.2125 7.33859 53.142 7.66073 53.142 7.80166C53.1521 8.02313 53.3434 8.15399 53.6957 8.15399H55.2359C55.0245 9.23113 54.34 9.97606 53.1622 9.97606C51.924 9.97606 51.0985 9.19086 51.0482 7.85199C50.9878 6.17086 52.1052 4.78166 53.6856 4.78166C54.6118 4.78166 55.3366 5.27492 55.6285 5.92926C55.6688 5.97959 56.5244 5.97959 56.4942 5.24472C56.4842 4.98299 56.3332 4.67092 56.0513 4.40919C55.5983 3.95619 54.7426 3.56359 53.6051 3.56359C52.0146 3.56359 50.7562 4.43939 50.1019 5.70779C50.1019 5.69772 50.0918 5.69772 50.0918 5.69772C49.961 5.52659 49.7496 5.44606 49.5382 5.44606C49.1858 5.44606 48.9543 5.55679 48.612 6.16079L46.9208 9.13046L46.2866 6.17086C46.1658 5.61719 45.9645 5.44606 45.6122 5.44606C45.1994 5.44606 44.8672 5.74806 44.8773 5.81852L46.0853 10.6002L44.837 12.6538C44.7062 12.8753 44.6961 13.1672 45.1692 13.1672H45.431C45.9242 13.1672 46.0853 12.8652 46.3269 12.4525L49.7294 6.69433C49.6288 7.09699 49.5784 7.52986 49.5986 7.97279C49.659 9.9056 50.9676 11.0733 52.8803 11.0733C53.7863 11.0733 54.5111 10.7311 54.9138 10.2076C54.8836 10.7713 55.1856 10.9928 55.5882 10.9928C55.8097 10.9928 55.9708 10.9223 55.9708 10.8821L56.5244 7.78153C56.615 7.29833 56.4338 7.05673 55.9808 7.05673Z" fill="black"/>
<path d="M78.2182 10.3787C78.2584 10.4492 78.2886 10.4794 78.339 10.4794C78.339 10.4794 78.349 10.5599 78.2484 10.5599C78.188 10.5599 78.1477 10.5297 78.0873 10.419L77.9766 10.2177H77.8759L77.8256 10.4995C77.8155 10.5398 77.7954 10.5599 77.7551 10.5599H77.735C77.6947 10.5599 77.6746 10.5398 77.6846 10.4895L77.8256 9.76465C77.8356 9.71432 77.8658 9.69419 77.9162 9.69419H78.1276C78.3188 9.69419 78.4296 9.77472 78.4296 9.91566C78.4296 10.0868 78.3188 10.1975 78.1276 10.2076L78.2182 10.3787ZM78.0873 10.1069C78.2182 10.1069 78.2886 10.0365 78.2786 9.92572C78.2786 9.84519 78.2182 9.79485 78.1074 9.79485H77.9564L77.896 10.0969H78.0873V10.1069Z" fill="black"/>
<path d="M78.0571 9.46265C78.4497 9.46265 78.7618 9.78479 78.7618 10.1673C78.7618 10.5599 78.4397 10.872 78.0571 10.872C77.6645 10.872 77.3524 10.5499 77.3524 10.1673C77.3424 9.78479 77.6645 9.46265 78.0571 9.46265ZM78.0571 9.34185C77.6041 9.34185 77.2316 9.71432 77.2316 10.1673C77.2316 10.6203 77.6041 10.9928 78.0571 10.9928C78.5101 10.9928 78.8826 10.6203 78.8826 10.1673C78.8826 9.71432 78.5101 9.34185 78.0571 9.34185Z" fill="black"/>
<path d="M7.98289 15.9658C12.3917 15.9658 15.9658 12.3917 15.9658 7.98288C15.9658 3.57406 12.3917 0 7.98289 0C3.57406 0 0 3.57406 0 7.98288C0 12.3917 3.57406 15.9658 7.98289 15.9658Z" fill="white"/>
<path d="M15.9658 7.98288C15.9658 12.3917 12.3917 15.9658 7.98289 15.9658C3.57406 15.9658 0 12.3917 0 7.98288C0 6.76481 0.271801 5.61721 0.755002 4.59041C0.432868 5.40581 0.281867 6.22121 0.281867 6.97621C0.281867 10.5902 3.20121 11.1136 4.43941 11.1036C6.33195 11.0834 8.53656 10.1573 10.3989 8.44595C10.3989 8.44595 10.1573 9.79488 10.0868 10.2076C10.0164 10.6103 10.2781 10.9626 10.6808 10.9626H10.8418C11.2546 10.9626 11.5566 10.6204 11.627 10.2076L12.3015 6.44268C12.382 6.01988 12.1102 5.68768 11.6874 5.68768H7.92249C7.49969 5.68768 7.11715 5.90914 7.04668 6.33194C7.04668 6.35208 7.01648 6.47288 7.01648 6.50308C6.95608 6.90574 7.23795 7.20775 7.64062 7.20775H9.60362C9.57342 7.23795 9.54322 7.26815 9.51302 7.29835C8.15402 8.57681 6.47288 9.28148 5.08368 9.28148C3.70454 9.28148 2.15427 8.40568 2.15427 6.44268C2.15427 2.36567 5.97962 0 7.98289 0C12.382 0 15.9658 3.57367 15.9658 7.98288Z" fill="#DF2127"/>
</g>
<defs>
<clipPath id="clip0_801_8659">
<rect width="78.8826" height="15.9658" fill="white"/>
</clipPath>
</defs>
</svg>
