<svg width="80" height="22" viewBox="0 0 80 22" fill="none" xmlns="http://www.w3.org/2000/svg">
<g clip-path="url(#clip0_801_8665)">
<path d="M25.5815 4.24111C25.4168 4.24111 25.277 4.36064 25.2513 4.52339L23.3454 16.6096C23.3385 16.6538 23.3412 16.6989 23.3534 16.7419C23.3656 16.7849 23.3869 16.8247 23.416 16.8587C23.445 16.8926 23.4811 16.9199 23.5217 16.9386C23.5622 16.9573 23.6064 16.967 23.6511 16.967H25.9113C26.0757 16.967 26.2157 16.8472 26.2415 16.6847L26.8013 13.1355C26.8268 12.973 26.9669 12.8532 27.1316 12.8532H29.1864C31.5874 12.8532 33.6255 11.1014 33.9978 8.72764C34.3731 6.33379 32.503 4.24631 29.8524 4.24111H25.5815ZM27.7786 6.93922H29.4227C30.7762 6.93922 31.217 7.73788 31.0776 8.62111C30.9383 9.50622 30.2537 10.1582 28.9443 10.1582H27.2709L27.7786 6.93922ZM38.5946 7.76079C38.0239 7.76292 37.3672 7.87985 36.63 8.18693C34.9389 8.89182 34.1268 10.3486 33.7819 11.4106C33.7819 11.4106 32.6842 14.6509 35.1642 16.431C35.1642 16.431 37.4643 18.1448 40.0535 16.3254L40.0089 16.6096C40.002 16.6537 40.0047 16.6988 40.0168 16.7418C40.029 16.7847 40.0503 16.8246 40.0793 16.8585C40.1083 16.8925 40.1442 16.9197 40.1848 16.9385C40.2253 16.9572 40.2694 16.9669 40.3141 16.967H42.4597C42.6243 16.967 42.7641 16.8472 42.7899 16.6847L44.095 8.40804C44.102 8.36389 44.0994 8.31875 44.0872 8.27573C44.0751 8.23271 44.0538 8.19282 44.0248 8.15881C43.9958 8.12481 43.9598 8.09748 43.9192 8.07873C43.8787 8.05997 43.8345 8.05023 43.7898 8.05016H41.6442C41.4796 8.05016 41.3395 8.16993 41.314 8.33245L41.2438 8.77796C41.2438 8.77796 40.307 7.75441 38.5946 7.76079ZM38.6648 10.375C38.9112 10.375 39.1365 10.4091 39.3387 10.474C40.2645 10.7712 40.7893 11.6606 40.6375 12.6246C40.4501 13.8116 39.4767 14.6856 38.2283 14.6856C37.9821 14.6856 37.7568 14.6518 37.5543 14.5868C36.6288 14.2897 36.1006 13.4003 36.2525 12.4363C36.4398 11.2493 37.4164 10.375 38.6648 10.375Z" fill="#003087"/>
<path d="M56.4791 4.24111C56.3144 4.24111 56.1746 4.36064 56.1488 4.52339L54.243 16.6096C54.2361 16.6538 54.2388 16.6989 54.251 16.7419C54.2632 16.7849 54.2845 16.8247 54.3136 16.8587C54.3426 16.8926 54.3787 16.9199 54.4193 16.9386C54.4599 16.9573 54.504 16.967 54.5487 16.967H56.8088C56.9733 16.967 57.1133 16.8472 57.1391 16.6847L57.6989 13.1355C57.7244 12.973 57.8645 12.8532 58.0292 12.8532H60.084C62.485 12.8532 64.5229 11.1014 64.8949 8.72764C65.2705 6.33379 63.4006 4.24631 60.75 4.24111H56.4791ZM58.6762 6.93922H60.3203C61.6738 6.93922 62.1146 7.73788 61.9752 8.62111C61.8359 9.50622 61.1515 10.1582 59.8419 10.1582H58.1685L58.6762 6.93922ZM69.492 7.76079C68.9213 7.76292 68.2646 7.87985 67.5273 8.18693C65.8362 8.89182 65.0241 10.3486 64.6792 11.4106C64.6792 11.4106 63.582 14.6509 66.0621 16.431C66.0621 16.431 68.3617 18.1448 70.9511 16.3254L70.9065 16.6096C70.8995 16.6538 70.9023 16.6989 70.9144 16.7419C70.9266 16.7849 70.948 16.8247 70.977 16.8587C71.0061 16.8926 71.0421 16.9199 71.0827 16.9386C71.1233 16.9573 71.1674 16.967 71.2121 16.967H73.3575C73.5221 16.967 73.662 16.8472 73.6877 16.6847L74.9933 8.40804C75.0003 8.36385 74.9977 8.31867 74.9855 8.27562C74.9734 8.23256 74.952 8.19265 74.923 8.15863C74.8939 8.12462 74.8578 8.09731 74.8172 8.07858C74.7766 8.05985 74.7324 8.05016 74.6877 8.05016H72.5421C72.3774 8.05016 72.2373 8.16993 72.2118 8.33245L72.1417 8.77796C72.1417 8.77796 71.2043 7.75441 69.492 7.76079ZM69.5621 10.375C69.8085 10.375 70.0339 10.4091 70.2361 10.474C71.1618 10.7712 71.6867 11.6606 71.5348 12.6246C71.3475 13.8116 70.374 14.6856 69.1256 14.6856C68.8795 14.6856 68.6541 14.6518 68.4517 14.5868C67.5262 14.2897 66.998 13.4003 67.1499 12.4363C67.3372 11.2493 68.3137 10.375 69.5621 10.375Z" fill="#0070E0"/>
<path d="M45.1131 8.05016C44.943 8.05016 44.8221 8.21623 44.8741 8.37804L47.2263 15.6775L45.0994 19.1173C44.9962 19.2843 45.1162 19.5 45.3125 19.5H47.8263C47.8982 19.4999 47.9689 19.4813 48.0315 19.446C48.0941 19.4107 48.1465 19.3598 48.1837 19.2983L54.7533 8.43048C54.8541 8.26347 54.7337 8.04993 54.5385 8.04993H52.0249C51.9523 8.04999 51.881 8.06895 51.818 8.10494C51.7549 8.14093 51.7024 8.19272 51.6654 8.2552L49.0795 12.621L47.7668 8.28756C47.7241 8.14654 47.5939 8.04993 47.4467 8.04993L45.1131 8.05016Z" fill="#003087"/>
<path d="M77.4311 4.24111C77.2667 4.24111 77.1266 4.36088 77.1009 4.52339L75.1946 16.6091C75.1876 16.6533 75.1902 16.6985 75.2024 16.7415C75.2145 16.7846 75.2359 16.8245 75.2649 16.8585C75.294 16.8925 75.33 16.9199 75.3707 16.9386C75.4113 16.9573 75.4555 16.967 75.5002 16.967H77.7604C77.9248 16.967 78.0649 16.8472 78.0906 16.6847L79.9965 4.59851C80.0034 4.5544 80.0007 4.50932 79.9885 4.46635C79.9764 4.42339 79.9551 4.38356 79.9261 4.34961C79.8971 4.31565 79.8611 4.28838 79.8205 4.26965C79.78 4.25092 79.7359 4.24119 79.6913 4.24111H77.4311Z" fill="#0070E0"/>
<path d="M6.73914 4.24111C6.59355 4.24123 6.45278 4.29327 6.34211 4.38787C6.23144 4.48248 6.15812 4.61345 6.13536 4.75725L5.13214 11.1201C5.17891 10.8229 5.43497 10.6039 5.73591 10.6039H8.67568C11.6343 10.6039 14.1449 8.44559 14.6036 5.52072C14.6378 5.30235 14.6571 5.08193 14.6615 4.86095C13.9096 4.4667 13.0264 4.24111 12.0586 4.24111H6.73914Z" fill="#001C64"/>
<path d="M14.6615 4.86095C14.6571 5.08193 14.6378 5.30235 14.6036 5.52072C14.1449 8.44559 11.6343 10.6039 8.67568 10.6039H5.73591C5.43497 10.6039 5.17891 10.8229 5.13214 11.1201L4.20969 16.9672L3.6319 20.6353C3.62062 20.7061 3.62485 20.7786 3.6443 20.8477C3.66375 20.9168 3.69796 20.9808 3.74456 21.0354C3.79116 21.0899 3.84904 21.1337 3.91421 21.1638C3.97938 21.1938 4.0503 21.2093 4.12206 21.2093H7.31292C7.45851 21.2092 7.59929 21.1571 7.70996 21.0625C7.82062 20.9679 7.89392 20.8369 7.91669 20.6931L8.75716 15.3624C8.77994 15.2185 8.85332 15.0874 8.96408 14.9928C9.07485 14.8982 9.21575 14.8462 9.36142 14.8462H11.2401C14.1987 14.8462 16.7093 12.6879 17.168 9.763C17.4938 7.68709 16.4483 5.7978 14.6615 4.86095Z" fill="#0070E0"/>
<path d="M3.11388 0C2.81317 0 2.55688 0.21874 2.51011 0.515669L0.00616257 16.3934C-0.0413177 16.6949 0.191602 16.9675 0.496798 16.9675L4.20969 16.9672L5.13214 11.1201L6.13536 4.75725C6.15812 4.61345 6.23144 4.48248 6.34211 4.38787C6.45278 4.29327 6.59355 4.24123 6.73914 4.24111H12.0586C13.0264 4.24111 13.9096 4.4667 14.6615 4.86095C14.713 2.19804 12.5154 0 9.49442 0H3.11388Z" fill="#003087"/>
</g>
<defs>
<clipPath id="clip0_801_8665">
<rect width="80.0002" height="21.2093" fill="white"/>
</clipPath>
</defs>
</svg>
