<svg width="80" height="28" viewBox="0 0 80 28" fill="none" xmlns="http://www.w3.org/2000/svg">
<g clip-path="url(#clip0_801_8662)">
<path d="M63.6212 2.68135L70.2777 1.49068V27.0432H63.6212V2.68135ZM73.3435 2.68135V27.0432H80.0047V1.49068L73.3435 2.68135ZM54.1427 27.0479H60.8039V8.35345H54.1427V27.0479ZM10.1254 10.9973C9.28161 10.941 7.33622 10.8145 7.33622 9.06129C7.33622 6.94246 10.1441 6.94246 11.1942 6.94246C13.0458 6.94246 15.4412 7.49092 17.1522 8.00187C17.1522 8.00187 18.1085 8.33939 18.9195 8.68159L18.9945 8.70034V2.90636L18.8914 2.87355C16.871 2.16571 14.5224 1.486 10.1676 1.486C2.65792 1.49068 0 5.86429 0 9.60975C0 11.7708 0.923473 16.8522 9.52537 17.4382C10.252 17.4804 12.188 17.5929 12.188 19.407C12.188 20.9024 10.6035 21.7883 7.94094 21.7883C5.02051 21.7883 2.18915 21.043 0.468768 20.3399V26.312C3.04231 26.987 5.94398 27.3245 9.34724 27.3245C16.6882 27.3245 19.9742 23.1853 19.9742 19.0836C19.9742 14.4334 16.2944 11.4098 10.1254 10.9973ZM50.3832 8.08156C44.2283 8.27845 41.1016 11.0395 41.1016 16.5288V27.0479H47.8191V18.4695C47.8191 15.1834 48.2503 13.7724 52.1505 13.6412V8.18C51.4942 8.03937 50.3832 8.08156 50.3832 8.08156ZM32.3169 8.3347C32.1669 8.70503 31.1028 11.7192 28.5245 14.8412V1.49068L21.6524 2.85011V27.0432H28.5245V19.5617C30.5168 22.5478 31.4965 27.0432 31.4965 27.0432H39.7281C38.9125 23.6587 35.3498 17.4147 35.3498 17.4147C38.5468 13.3599 39.9484 9.04254 40.1734 8.33001H32.3169V8.3347ZM57.4663 6.56275C59.2804 6.56275 60.7477 5.09551 60.7477 3.28138C60.7477 1.46724 59.2804 0 57.4663 0C55.6522 0 54.1849 1.47193 54.1849 3.28138C54.1849 5.09082 55.6522 6.56275 57.4663 6.56275Z" fill="#862165"/>
</g>
<defs>
<clipPath id="clip0_801_8662">
<rect width="80.0047" height="27.3245" fill="white"/>
</clipPath>
</defs>
</svg>
