<svg width="80" height="15" viewBox="0 0 80 15" fill="none" xmlns="http://www.w3.org/2000/svg">
<g clip-path="url(#clip0_801_8656)">
<path d="M80.0002 0.372221C80.0002 0.44591 79.9788 0.518248 79.9389 0.58006C79.3899 1.42923 78.8414 2.27867 78.2913 3.12703C77.5468 4.27528 76.8016 5.42325 76.0553 6.57015C75.8825 6.83548 75.6857 7.08354 75.4792 7.32296C75.4191 7.39287 75.3419 7.44982 75.2665 7.50515C75.2242 7.53619 75.1675 7.56346 75.1151 7.53512C75.0628 7.50677 75.059 7.4482 75.0628 7.39314C75.0781 7.18017 75.1297 6.97422 75.1934 6.77151C75.5108 5.75984 75.8309 4.74872 76.1462 3.73652C76.2596 3.37239 76.0086 3.01745 75.6253 2.99045C75.5627 2.98614 75.4995 2.98803 75.4366 2.98803C73.4357 2.98803 71.4348 2.98803 69.4338 2.98803C69.4023 2.98803 69.3707 2.98641 69.3394 2.9883C69.2605 2.99315 69.1931 2.97102 69.1623 2.89463C69.1296 2.81312 69.145 2.73835 69.2128 2.67438C69.7809 2.13831 70.3262 1.57499 70.9349 1.08481C71.5748 0.569263 72.3263 0.275859 73.1285 0.106349C73.3317 0.0634314 73.5431 0.0701795 73.741 0H79.6004C79.6417 0 79.6825 0.00701795 79.7224 0.0164652C79.7302 0.0183546 79.7381 0.0199742 79.7462 0.0210538C79.8922 0.0434573 80.0004 0.168161 80.0004 0.315808L80.0002 0.372221Z" fill="#EA5CA1"/>
<path d="M22.0486 12.4801C22.0036 12.5392 21.9542 12.5959 21.914 12.6582C21.4729 13.3408 20.8351 13.7419 20.0653 13.9617C19.0026 14.2648 17.9332 14.336 16.8635 14.024C16.1163 13.8062 15.4942 13.3983 15.1079 12.696C14.6679 11.8957 14.6933 10.3534 15.9285 9.62376C16.5787 9.23966 17.2813 9.00807 18.0149 8.86123C18.9578 8.67229 19.9117 8.5511 20.8623 8.41101C21.5061 8.31599 21.4732 7.83553 21.2286 7.47924C21.0127 7.16478 20.6777 7.01012 20.3106 6.94075C19.7551 6.83575 19.2099 6.85707 18.7 7.13644C18.4714 7.26168 18.2841 7.4347 18.1523 7.66144C18.0595 7.8215 17.924 7.88925 17.7407 7.88844C17.0527 7.88547 16.3647 7.8879 15.6766 7.88709C15.3441 7.88682 15.1719 7.65901 15.2639 7.34239C15.4688 6.63655 15.9295 6.12424 16.5136 5.70775C17.1704 5.2397 17.9097 4.97842 18.7016 4.86289C19.7943 4.70364 20.8799 4.73657 21.9474 5.03753C22.5947 5.22 23.1829 5.51448 23.669 5.99386C24.1826 6.50023 24.4358 7.11673 24.4385 7.82852C24.4458 9.74954 24.4412 11.6706 24.4407 13.5919C24.4407 13.8386 24.3052 13.9733 24.0558 13.9735C23.4037 13.9746 22.7518 13.9749 22.0997 13.9735C21.8519 13.973 21.722 13.8272 21.7372 13.5786C21.7563 13.2593 21.8694 12.9681 22.0009 12.682C22.0281 12.6223 22.0546 12.5624 22.0816 12.5027C22.0705 12.4952 22.0597 12.4876 22.0486 12.4801ZM21.3776 10.5285C21.3776 10.3596 21.3703 10.22 21.3798 10.0815C21.3882 9.95846 21.3614 9.9231 21.227 9.94848C20.6847 10.0516 20.1395 10.139 19.5964 10.2368C19.1864 10.3104 18.7702 10.3604 18.385 10.5345C18.023 10.698 17.8071 10.9596 17.7987 11.3734C17.7906 11.7721 18.0236 11.9966 18.3456 12.1626C18.3972 12.1891 18.4517 12.212 18.5076 12.2274C19.2968 12.4471 20.0445 12.3556 20.742 11.9189C21.0537 11.7237 21.2823 11.4603 21.3577 11.0897C21.3973 10.8948 21.3714 10.6959 21.3776 10.5285ZM22.0943 12.4601C22.091 12.4544 22.0878 12.4485 22.0845 12.4428C22.0816 12.4458 22.0756 12.4496 22.0762 12.4517C22.0775 12.4579 22.0816 12.4639 22.0845 12.4698C22.0875 12.4668 22.0905 12.4639 22.0943 12.4601Z" fill="#132F59"/>
<path d="M60.0273 10.0416C58.8942 10.0416 57.7614 10.0438 56.6285 10.0384C56.5057 10.0378 56.4833 10.0732 56.4838 10.1874C56.4881 10.9601 56.7645 11.5972 57.4183 12.0371C57.8548 12.3308 58.3509 12.395 58.8637 12.35C59.68 12.2782 60.236 11.8474 60.5513 11.1008C60.6142 10.9518 60.7081 10.8908 60.8698 10.8916C61.6431 10.8964 62.4164 10.8986 63.1897 10.8908C63.43 10.8883 63.5579 11.0152 63.4732 11.2757C63.1296 12.3322 62.4407 13.0863 61.4671 13.5921C60.446 14.1228 59.3455 14.2594 58.2127 14.2078C57.4717 14.1741 56.7489 14.0448 56.07 13.7357C54.8214 13.1676 53.9736 12.2536 53.6526 10.8964C53.5938 10.6473 53.5536 10.3941 53.5463 10.1385C53.5239 9.37193 53.4839 8.60319 53.7242 7.85713C54.0473 6.8541 54.7013 6.11749 55.588 5.57414C56.561 4.97788 57.635 4.77436 58.7598 4.79461C59.7949 4.81323 60.7823 5.02836 61.6749 5.57711C62.7098 6.21331 63.403 7.09811 63.637 8.30979C63.7347 8.81643 63.7126 9.3282 63.7072 9.83916C63.7058 9.96117 63.6205 10.0205 63.5074 10.0392C63.468 10.0457 63.4267 10.0413 63.3862 10.0413C62.2666 10.0413 61.147 10.0416 60.0273 10.0416ZM58.6113 8.46499C59.2589 8.46499 59.9062 8.46553 60.5537 8.46472C60.6973 8.46472 60.7246 8.43476 60.6973 8.31141C60.4859 7.35562 59.8322 6.7294 58.9056 6.63952C57.7554 6.52804 56.7964 7.16424 56.5435 8.27632C56.506 8.44178 56.5224 8.46445 56.696 8.46472C57.3343 8.46499 57.973 8.46499 58.6113 8.46499Z" fill="#132F59"/>
<path d="M25.9695 10.1323C25.9695 9.03264 25.9695 7.93298 25.9695 6.83332C25.9695 5.80006 26.7402 5.0289 27.7721 5.02863C28.1003 5.02863 28.4285 5.03214 28.7567 5.02647C28.8534 5.02485 28.8866 5.04482 28.8879 5.15009C28.8922 5.51449 28.7613 5.83245 28.577 6.13557C28.5608 6.1623 28.5394 6.18659 28.5257 6.21466C28.5122 6.24246 28.4639 6.26784 28.5071 6.30509C28.5513 6.34314 28.5708 6.29483 28.5921 6.27188C28.7087 6.14745 28.8231 6.02113 28.9384 5.89534C29.5638 5.21298 30.3498 4.8683 31.2638 4.79245C31.8821 4.74116 32.4951 4.77463 33.0941 4.94279C34.3363 5.29099 35.0618 6.13099 35.3717 7.35751C35.4864 7.81205 35.5339 8.27551 35.5345 8.74328C35.5361 10.3366 35.535 11.93 35.535 13.5233C35.535 13.8167 35.4014 13.9511 35.1091 13.9511C34.4299 13.9511 33.7511 13.9511 33.072 13.9511C32.7483 13.9511 32.6209 13.8259 32.6209 13.5063C32.6209 11.8949 32.6209 10.2837 32.6209 8.67229C32.6209 8.31573 32.5815 7.9651 32.4579 7.62824C32.2552 7.0749 31.8614 6.74668 31.2789 6.65166C30.8462 6.58094 30.4159 6.59255 30.0097 6.77313C29.3711 7.05682 29.0504 7.58181 28.9268 8.24663C28.8922 8.4326 28.8844 8.62074 28.8844 8.80941C28.8844 10.3579 28.8844 11.9065 28.8844 13.4548C28.8844 13.5131 28.8836 13.5716 28.8771 13.6294C28.8553 13.821 28.7198 13.9511 28.5265 13.9517C27.7937 13.9544 27.0605 13.9544 26.3277 13.9517C26.115 13.9509 25.9738 13.8016 25.9706 13.5792C25.9666 13.3144 25.9695 13.0496 25.9695 12.7848C25.9695 11.9005 25.9695 11.0163 25.9695 10.1323Z" fill="#132F59"/>
<path d="M38.3783 11.4862C38.8053 11.4862 39.2326 11.4892 39.6597 11.4843C39.7798 11.483 39.8475 11.5189 39.8899 11.6382C39.9865 11.9108 40.1822 12.1078 40.4478 12.2069C41.2454 12.5038 42.0447 12.5203 42.8277 12.1524C43.0485 12.0487 43.2267 11.8868 43.2785 11.6325C43.3435 11.314 43.2051 11.0514 42.9001 10.9086C42.6342 10.7842 42.3491 10.7172 42.0619 10.6673C41.3148 10.5372 40.5655 10.4211 39.8192 10.2864C39.2648 10.1863 38.7371 10.006 38.2415 9.73038C36.68 8.86205 36.6757 6.66111 38.0604 5.68993C38.6618 5.26805 39.3309 5.02647 40.0467 4.91256C41.2379 4.72281 42.4282 4.73198 43.607 5.01081C44.275 5.16899 44.8918 5.43837 45.3879 5.93097C45.7769 6.31696 45.9763 6.79148 46.0241 7.33294C46.0357 7.46521 45.9906 7.51784 45.8584 7.51811C45.0133 7.51946 44.1679 7.51811 43.3228 7.51973C43.2461 7.51973 43.1905 7.49706 43.1692 7.42013C43.045 6.97206 42.7135 6.7599 42.2889 6.66867C41.7677 6.55665 41.2457 6.55422 40.7299 6.707C40.5655 6.75558 40.4127 6.83008 40.2783 6.93886C39.8613 7.27572 39.9182 7.86577 40.3955 8.10438C40.741 8.27713 41.1197 8.33462 41.4946 8.40345C42.3813 8.56621 43.2817 8.65664 44.1546 8.89093C44.6513 9.02427 45.1218 9.22185 45.5294 9.54576C46.185 10.0664 46.409 10.7585 46.3129 11.5656C46.1988 12.5249 45.606 13.1333 44.7927 13.566C44.0505 13.9611 43.2442 14.1244 42.415 14.1889C41.5742 14.2543 40.7353 14.2308 39.9031 14.0847C39.126 13.9482 38.3886 13.7082 37.7591 13.2105C37.2663 12.8207 36.965 12.3178 36.8757 11.6932C36.8541 11.5429 36.8994 11.4878 37.0571 11.4873C37.4976 11.4857 37.9378 11.4862 38.3783 11.4862Z" fill="#132F59"/>
<path d="M68.7809 13.9703C67.3916 13.9703 66.0023 13.9703 64.6133 13.9703C64.3528 13.9703 64.2899 13.9101 64.3015 13.6537C64.3523 12.5381 64.8106 11.6231 65.6452 10.8805C66.9703 9.7015 68.2845 8.51088 69.6033 7.32485C69.6268 7.30379 69.6579 7.28652 69.6711 7.26033C69.6951 7.21256 69.7051 7.16154 69.6211 7.16451C69.5898 7.16559 69.5583 7.16451 69.5267 7.16451C68.2993 7.16451 67.072 7.16451 65.8447 7.16451C64.9952 7.16451 64.3536 6.52345 64.3531 5.67482C64.3531 5.53581 64.3504 5.39653 64.3539 5.25752C64.3574 5.11797 64.4322 5.0459 64.5728 5.03916C64.6041 5.03754 64.6357 5.03916 64.6673 5.03916C67.4143 5.03916 70.1613 5.03916 72.9082 5.03916C73.1776 5.03916 73.2357 5.09449 73.2262 5.36117C73.1879 6.436 72.7738 7.34185 71.9805 8.06902C70.9249 9.03669 69.863 9.99787 68.8041 10.9618C68.5385 11.2036 68.2734 11.4457 68.0084 11.6881C67.9698 11.7235 67.9115 11.7567 67.9417 11.8193C67.969 11.8754 68.0305 11.8447 68.075 11.8449C69.307 11.8468 70.5389 11.8463 71.7705 11.8466C72.6246 11.8466 73.2591 12.4803 73.2597 13.3325C73.2597 13.4715 73.2616 13.6108 73.2591 13.7498C73.2567 13.8869 73.1917 13.9565 73.057 13.9692C73.0168 13.973 72.976 13.9706 72.9358 13.9706C71.5511 13.9706 70.1656 13.9703 68.7809 13.9703Z" fill="#132F59"/>
<path d="M48.4588 10.4886C48.4588 9.46991 48.4588 8.45123 48.4588 7.43255C48.4588 7.23064 48.4342 7.20554 48.2359 7.20527C48.0334 7.205 47.8312 7.20662 47.6288 7.20473C47.344 7.2023 47.1958 7.05412 47.1953 6.77259C47.1945 6.35988 47.1948 5.9469 47.1953 5.53392C47.1956 5.24187 47.343 5.09314 47.632 5.09206C47.8434 5.09152 48.0547 5.09287 48.2658 5.09152C48.4191 5.09071 48.4558 5.05292 48.4588 4.90096C48.4674 4.46611 48.4361 4.03046 48.4855 3.59643C48.5708 2.84605 48.8424 2.19959 49.5172 1.7858C49.9671 1.50994 50.4692 1.39333 50.9877 1.34691C51.7875 1.27511 52.5862 1.31964 53.3832 1.39873C53.5306 1.41331 53.5557 1.46108 53.4826 1.58983C53.2221 2.04951 52.9603 2.50838 52.6987 2.96724C52.6191 3.10706 52.5047 3.18615 52.337 3.17805C52.279 3.17535 52.2199 3.17886 52.1621 3.18696C51.5977 3.26577 51.3548 3.54622 51.354 4.11765C51.3537 4.37785 51.3529 4.63832 51.3543 4.89853C51.3551 5.04833 51.3974 5.09125 51.5467 5.09152C52.1041 5.09233 52.6617 5.09152 53.2191 5.09206C53.4529 5.09206 53.4963 5.14146 53.4461 5.36009C53.3139 5.93286 53.0734 6.44463 52.5945 6.8147C52.2949 7.04602 51.9489 7.15965 51.5742 7.19016C51.3869 7.20527 51.3543 7.23712 51.354 7.43147C51.354 9.45992 51.354 11.4881 51.354 13.5166C51.354 13.6251 51.3532 13.732 51.2838 13.8245C51.2093 13.9244 51.1116 13.9808 50.9858 13.9811C50.2665 13.9819 49.5471 13.9843 48.8278 13.9803C48.6029 13.9789 48.4588 13.8124 48.4585 13.5714C48.4577 12.5438 48.4588 11.5162 48.4588 10.4886Z" fill="#132F59"/>
<path d="M3.95639 4.87963C4.45385 4.87963 4.95105 4.8772 5.44851 4.88017C6.11711 4.88449 6.6394 5.30692 6.7579 5.9523C6.8073 6.22195 6.78192 6.49862 6.77086 6.77151C6.76546 6.90242 6.65425 6.9807 6.50309 6.98286C6.26475 6.98609 6.02641 6.98394 5.78807 6.98394C5.43286 6.98394 5.07764 6.98313 4.72243 6.98448C4.56695 6.98502 4.5073 7.04143 4.50703 7.19312C4.50649 8.39589 4.50109 9.59866 4.51108 10.8014C4.51594 11.3955 4.798 11.7251 5.36295 11.8422C5.53894 11.8787 5.71789 11.9011 5.89793 11.903C6.1001 11.9051 6.30254 11.903 6.50471 11.8987C6.7085 11.8943 6.82025 11.9912 6.8216 12.1929C6.82457 12.6418 6.8243 13.0904 6.8216 13.5392C6.82079 13.6904 6.74683 13.7976 6.61646 13.817C5.56701 13.9741 4.51567 14.061 3.47323 13.7795C2.8095 13.6002 2.25859 13.2496 1.90904 12.6353C1.69121 12.2523 1.59512 11.8336 1.59296 11.3982C1.58621 10.0249 1.58891 8.65151 1.5881 7.27842C1.5881 7.0166 1.55409 6.98205 1.29686 6.98097C0.568072 6.97692 0.00177728 6.40873 0.000427679 5.67968C0.000157758 5.51799 -0.000382084 5.35658 0.000427679 5.1949C0.00177728 4.98814 0.0957098 4.89151 0.305168 4.88854C0.520835 4.88557 0.736772 4.888 0.952709 4.88773C0.997516 4.88773 1.04259 4.88746 1.0874 4.88395C1.44963 4.85669 1.64101 4.68016 1.63372 4.31874C1.62049 3.66445 2.0745 2.94214 2.91935 2.78315C3.33827 2.70434 3.75314 2.60528 4.17017 2.51728C4.36856 2.47545 4.5046 2.58638 4.50568 2.79233C4.50757 3.17832 4.49731 3.56458 4.50865 3.95002C4.52106 4.37758 4.36397 4.69015 3.95639 4.87963Z" fill="#132F59"/>
<path d="M8.27918 10.179C8.27918 9.11091 8.27891 8.04284 8.27918 6.97476C8.27972 5.88212 9.11836 5.04212 10.2142 5.037C10.5066 5.03565 10.7989 5.03996 11.0909 5.03484C11.1754 5.03322 11.1935 5.05886 11.1954 5.14065C11.2059 5.58413 11.1115 6.00331 10.9222 6.4028C10.8993 6.45138 10.8772 6.50024 10.8542 6.54882C10.844 6.57069 10.8386 6.59201 10.8604 6.60875C10.8942 6.63466 10.9082 6.60281 10.9228 6.58337C11.0218 6.4503 11.1209 6.31723 11.2186 6.18308C11.9234 5.21703 12.8975 4.80594 14.0698 4.80891C14.3081 4.80945 14.4631 4.97437 14.4639 5.21109C14.4652 5.6867 14.4652 6.16257 14.4639 6.63817C14.4633 6.88892 14.306 7.04521 14.0498 7.04845C13.713 7.05277 13.3764 7.01552 13.0395 7.04953C12.1768 7.13644 11.5547 7.64902 11.3101 8.48011C11.2337 8.7395 11.1949 9.00457 11.1951 9.27584C11.1965 10.6759 11.1957 12.0763 11.1957 13.4763C11.1957 13.8289 11.0588 13.9652 10.7066 13.9652C10.0501 13.9652 9.39368 13.9657 8.73723 13.9652C8.41899 13.9652 8.27918 13.824 8.27918 13.5044C8.27918 12.3959 8.27918 11.2876 8.27918 10.179Z" fill="#132F59"/>
<path d="M22.0943 12.4601C22.0905 12.4639 22.0875 12.4668 22.0845 12.4698C22.0816 12.4639 22.0775 12.4579 22.0762 12.4517C22.0756 12.4496 22.0816 12.4458 22.0845 12.4428C22.0878 12.4485 22.091 12.4544 22.0943 12.4601Z" fill="#FEFEFE"/>
</g>
<defs>
<clipPath id="clip0_801_8656">
<rect width="80.0004" height="14.2262" fill="white"/>
</clipPath>
</defs>
</svg>
