<svg width="80" height="19" viewBox="0 0 80 19" fill="none" xmlns="http://www.w3.org/2000/svg">
<g clip-path="url(#clip0_801_8674)">
<path d="M0 0.018684C2.70901 0.018684 5.41803 0.018684 8.12704 0.018684C10.9855 4.95096 13.8253 9.90191 16.6838 14.8342C16.3475 15.4134 16.0112 15.9925 15.6749 16.5717C15.3199 17.1509 14.8902 17.6927 14.3484 18.085C13.9 18.4026 13.3769 18.6455 12.8164 18.6829C12.2373 18.7389 11.6768 18.5708 11.1723 18.2718C10.5558 17.8982 10.0701 17.3564 9.67772 16.7585C9.37879 16.2914 9.11723 15.8057 8.83699 15.3199C5.90378 10.2382 2.95189 5.13778 0 0.018684Z" fill="#FFDD00"/>
<path d="M10.8174 0.018684C13.5264 0.018684 16.2354 0.018684 18.9444 0.018684C20.8874 3.40028 22.8491 6.78188 24.8108 10.1448C25.0724 10.6305 25.6142 10.9482 26.156 10.9482C26.7165 10.9482 27.2396 10.6305 27.5198 10.1448C25.5768 6.76319 23.6151 3.3816 21.6721 0C24.3811 0 27.0901 0 29.7992 0C30.8454 1.81224 31.8916 3.62447 32.9379 5.43671C31.0509 8.70621 29.1639 11.957 27.277 15.2265C26.9967 15.6936 26.7352 16.1607 26.4549 16.6277C26.1 17.2069 25.6516 17.73 25.1098 18.1224C24.6427 18.44 24.1009 18.6642 23.5217 18.6642C22.9425 18.6828 22.3821 18.496 21.915 18.1784C21.3171 17.7861 20.8501 17.2443 20.4764 16.6464C20.1962 16.198 19.9346 15.731 19.673 15.2639C16.7025 10.2008 13.7693 5.1191 10.8174 0.018684Z" fill="#FFDD00"/>
<path d="M36.0579 0.018684C36.5997 0.018684 37.1228 0.018684 37.6646 0.018684C37.9636 1.21439 38.2812 2.39141 38.5801 3.58711C38.8417 4.63335 39.1032 5.67959 39.3087 6.74451C39.4956 5.6609 39.7758 4.5773 40.0374 3.4937C40.3176 2.33536 40.6165 1.17702 40.9155 0.018684C41.4573 0.018684 41.9991 0.018684 42.5409 0.018684C42.9893 1.70014 43.419 3.3816 43.83 5.08174C43.9608 5.60486 44.0729 6.10929 44.1663 6.63241C44.2971 5.90378 44.4652 5.17515 44.652 4.44652C45.007 2.97057 45.3993 1.47595 45.7917 0C46.3148 0 46.8192 0 47.3424 0C46.5577 2.89584 45.7543 5.81037 44.9696 8.70621C44.4092 8.70621 43.83 8.70621 43.2695 8.70621C42.8585 7.13685 42.4475 5.54881 42.0738 3.96077C41.943 3.3816 41.8122 2.80243 41.7001 2.20458C41.5507 3.08267 41.3265 3.94208 41.1023 4.82018C40.766 6.10929 40.411 7.39841 40.0747 8.70621C39.5142 8.70621 38.9724 8.70621 38.412 8.70621C37.6273 5.82905 36.8426 2.91453 36.0579 0.018684Z" fill="black"/>
<path d="M59.9907 0.859412C60.4577 0.747315 60.9435 0.616536 61.4106 0.504439C61.4106 1.12097 61.4106 1.71882 61.4106 2.33536C61.7282 2.33536 62.0645 2.33536 62.3821 2.33536C62.3821 2.74638 62.4007 3.1574 62.4007 3.56843C62.0645 3.56843 61.7468 3.56843 61.4106 3.56843C61.4106 4.80149 61.4106 6.01588 61.4106 7.24895C61.4106 7.41709 61.56 7.56655 61.7282 7.56655C61.9524 7.58524 62.1766 7.54787 62.4007 7.52919C62.4007 7.94021 62.4007 8.33255 62.4007 8.74357C62.0084 8.85567 61.6161 8.85567 61.2237 8.85567C60.9248 8.85567 60.6072 8.76226 60.383 8.53806C60.1028 8.27651 59.9907 7.90285 59.9907 7.52919C59.9907 6.20271 59.9907 4.87622 59.9907 3.54974C59.7478 3.54974 59.4862 3.54974 59.2433 3.54974C59.2433 3.13872 59.2433 2.7277 59.2433 2.31667C59.4862 2.31667 59.7478 2.31667 59.9907 2.31667C59.9907 1.83092 59.9907 1.34517 59.9907 0.859412Z" fill="black"/>
<path d="M48.2391 2.6156C48.7809 2.29799 49.4348 2.16721 50.0514 2.20458C50.6679 2.22326 51.2844 2.41009 51.7702 2.78374C52.2186 3.10135 52.5549 3.56842 52.7604 4.09154C53.0219 4.70808 53.0967 5.39934 53.078 6.07193C51.4339 6.07193 49.7711 6.07193 48.127 6.07193C48.2018 6.66978 48.5941 7.1929 49.1359 7.41709C49.8459 7.71602 50.7613 7.60392 51.3218 7.06212C51.4713 6.93134 51.5834 6.74451 51.6768 6.57636C52.0691 6.78188 52.4615 6.9687 52.8351 7.17421C52.5362 7.80943 51.9757 8.29519 51.3218 8.57543C50.6866 8.85567 49.958 8.9304 49.2667 8.81831C48.6128 8.72489 47.9776 8.42596 47.5105 7.95889C47.0434 7.49182 46.7258 6.87529 46.6137 6.22139C46.483 5.45539 46.5764 4.63335 46.9313 3.94208C47.2676 3.3816 47.716 2.91452 48.2391 2.6156ZM48.6875 3.86735C48.3886 4.11023 48.2018 4.48388 48.1457 4.85754C49.2854 4.85754 50.4063 4.85754 51.546 4.85754C51.5086 4.40915 51.2658 3.99813 50.8734 3.75525C50.2382 3.32555 49.2854 3.36291 48.6875 3.86735Z" fill="black"/>
<path d="M55.5441 2.24194C56.2728 2.12984 57.0761 2.22326 57.6927 2.65297C58.2158 3.00794 58.5521 3.60579 58.5521 4.24101C58.1037 4.31574 57.674 4.40915 57.2256 4.48388C57.1882 4.25969 57.1695 4.0355 57.0574 3.84867C56.8893 3.56842 56.553 3.41896 56.2354 3.3816C55.9365 3.36291 55.6375 3.40028 55.376 3.54974C55.2078 3.66184 55.0957 3.84867 55.1144 4.05418C55.1331 4.24101 55.2826 4.39047 55.4507 4.48388C55.731 4.63335 56.0299 4.70808 56.3475 4.78281C56.908 4.93227 57.4872 5.06305 57.9916 5.36198C58.3279 5.56749 58.6081 5.86642 58.7389 6.24007C58.9444 6.87529 58.8323 7.6226 58.3652 8.10836C57.8982 8.59411 57.2069 8.78094 56.553 8.81831C55.731 8.87436 54.8716 8.68753 54.199 8.16441C53.7693 7.8468 53.489 7.32368 53.489 6.78187C53.9374 6.68846 54.4045 6.61373 54.8529 6.52032C54.8716 6.76319 54.9463 7.00607 55.1144 7.17422C55.3947 7.47314 55.8244 7.56655 56.2167 7.56655C56.5156 7.56655 56.8519 7.52919 57.0948 7.32368C57.3003 7.15553 57.3751 6.83792 57.2256 6.61373C57.0948 6.4269 56.8519 6.33349 56.6464 6.24007C56.0486 6.03456 55.432 5.94115 54.8529 5.67959C54.4792 5.53012 54.1429 5.30593 53.9187 4.96964C53.5264 4.37179 53.5824 3.51238 54.0495 2.95189C54.4419 2.57823 54.9837 2.33536 55.5441 2.24194Z" fill="black"/>
<path d="M64.3624 2.63428C64.9042 2.31667 65.5582 2.16721 66.1934 2.20458C66.7912 2.22326 67.4077 2.41009 67.9122 2.76506C68.3793 3.10135 68.7342 3.56842 68.9584 4.11023C69.22 4.72676 69.2947 5.39934 69.2574 6.07192C67.6133 6.07192 65.9505 6.07192 64.3064 6.07192C64.3811 6.65109 64.7548 7.17421 65.2779 7.39841C65.9505 7.69733 66.7725 7.6226 67.3704 7.1929C67.5946 7.02475 67.7627 6.81924 67.8748 6.57636C68.2672 6.76319 68.6595 6.9687 69.0518 7.17421C68.7716 7.79075 68.2298 8.25782 67.6319 8.53806C66.4736 9.07987 65.0163 8.96777 63.9888 8.18309C63.4283 7.75338 63.0546 7.11817 62.8865 6.4269C62.6997 5.62354 62.7744 4.74544 63.1294 3.99813C63.4096 3.41896 63.8393 2.95189 64.3624 2.63428ZM65.39 3.56842C64.8295 3.75525 64.3998 4.27837 64.3251 4.85754C65.4647 4.85754 66.5857 4.85754 67.7254 4.85754C67.688 4.55861 67.5759 4.27837 67.3891 4.05418C66.9033 3.47501 66.0626 3.32555 65.39 3.56842Z" fill="black"/>
<path d="M76.7305 2.26063C77.4591 2.09248 78.2438 2.16721 78.879 2.57823C79.3274 2.85848 79.6637 3.32555 79.8319 3.82999C79.9626 4.20364 80 4.61467 80 5.00701C80 6.24007 80 7.49183 80 8.72489C79.4956 8.72489 78.9911 8.72489 78.4867 8.72489C78.4867 7.56656 78.4867 6.38954 78.4867 5.2312C78.4867 4.85754 78.4493 4.4652 78.2438 4.1476C78.0944 3.88604 77.8515 3.69921 77.5525 3.60579C76.9547 3.43765 76.2074 3.54974 75.8337 4.07286C75.5722 4.40915 75.4787 4.85754 75.4787 5.26857C75.4787 6.4269 75.4787 7.56656 75.4787 8.72489C74.9743 8.72489 74.4699 8.72489 73.9654 8.72489C73.9654 6.59505 73.9654 4.44652 73.9654 2.31668C74.3951 2.31668 74.8435 2.31668 75.2732 2.31668C75.2732 2.6156 75.2732 2.91453 75.2732 3.23213C75.5908 2.7277 76.1513 2.39141 76.7305 2.26063Z" fill="black"/>
<path d="M69.9113 2.31668C70.3223 2.31668 70.752 2.31668 71.163 2.31668C71.163 2.57824 71.163 2.85848 71.163 3.12004C71.3311 2.85848 71.574 2.63428 71.8543 2.5035C72.3213 2.27931 72.8445 2.24194 73.3489 2.31668C73.3489 2.76506 73.3489 3.21345 73.3302 3.66184C72.9192 3.60579 72.4708 3.58711 72.0598 3.75525C71.7982 3.86735 71.574 4.09155 71.4806 4.35311C71.3498 4.67071 71.4059 5.02569 71.3872 5.3433C71.3872 6.46427 71.3872 7.60392 71.4059 8.72489C70.9014 8.72489 70.397 8.72489 69.8926 8.72489C69.9113 6.59505 69.9113 4.4652 69.9113 2.31668Z" fill="black"/>
<path d="M52.0691 9.86454C52.312 9.78981 52.6109 9.8085 52.8164 9.95796C53.078 10.1261 53.2461 10.425 53.2275 10.724C53.2088 11.1163 52.9099 11.4526 52.5175 11.5273C52.1999 11.5834 51.8449 11.4526 51.6581 11.2097C51.49 10.9855 51.4339 10.6866 51.5273 10.425C51.6021 10.1635 51.8076 9.93928 52.0691 9.86454Z" fill="black"/>
<path d="M36.7305 15.1144C36.7305 13.3582 36.7305 11.6207 36.7305 9.86454C37.2349 9.86454 37.7581 9.86454 38.2625 9.86454C38.2625 11.602 38.2625 13.3396 38.2625 15.0584C38.2812 15.6749 38.4306 16.3475 38.8977 16.7959C39.3087 17.1882 39.9253 17.3003 40.4858 17.2443C40.9528 17.2069 41.4199 17.0014 41.7188 16.6277C42.0925 16.1793 42.2046 15.5815 42.2046 15.021C42.2046 13.3022 42.2046 11.5834 42.2046 9.86454C42.709 9.86454 43.2135 9.86454 43.7179 9.86454C43.7179 11.3405 43.7179 12.8164 43.7179 14.2924C43.7179 14.7781 43.7366 15.2639 43.6618 15.7496C43.5497 16.4783 43.2695 17.2069 42.7464 17.73C42.2793 18.2158 41.6628 18.496 41.0089 18.6081C40.2242 18.7389 39.3835 18.6829 38.6548 18.3652C38.113 18.1224 37.6273 17.73 37.3284 17.2069C36.9173 16.6091 36.7679 15.8617 36.7305 15.1144Z" fill="black"/>
<path d="M47.3984 12.1252C48.1084 11.9757 48.9117 12.0504 49.5283 12.4428C49.9766 12.723 50.2943 13.1714 50.4624 13.6572C50.5932 14.0495 50.6492 14.4792 50.6492 14.8902C50.6492 16.1233 50.6492 17.3564 50.6492 18.5894C50.1448 18.5894 49.6404 18.5894 49.1359 18.5894C49.1359 17.4685 49.1359 16.3475 49.1359 15.2265C49.1359 14.8529 49.1172 14.4418 48.9491 14.0869C48.837 13.8253 48.6128 13.6198 48.3512 13.5077C48.0523 13.3769 47.6973 13.3582 47.3797 13.4143C47.0434 13.4703 46.7258 13.6385 46.5016 13.9187C46.2401 14.255 46.1467 14.7034 46.1467 15.1144C46.1467 16.2728 46.1467 17.4311 46.1467 18.5894C45.6422 18.5894 45.1378 18.5894 44.6333 18.5894C44.6333 16.4596 44.6333 14.3111 44.6333 12.1812C45.0631 12.1812 45.5114 12.1812 45.9411 12.1812C45.9411 12.4801 45.9411 12.7791 45.9411 13.0967C46.2588 12.5736 46.8192 12.2373 47.3984 12.1252Z" fill="black"/>
<path d="M56.7959 12.0691C57.5806 11.9944 58.3839 12.1439 59.0565 12.5736C59.617 12.9099 60.0467 13.433 60.2896 14.0308C60.7753 15.1892 60.6072 16.6277 59.7851 17.5806C59.2994 18.141 58.6268 18.5147 57.8982 18.6455C57.0948 18.795 56.2167 18.7015 55.4881 18.3092C54.9089 18.0103 54.4418 17.5245 54.1616 16.964C53.5824 15.787 53.6945 14.2737 54.5353 13.2648C55.0957 12.5549 55.9365 12.1439 56.7959 12.0691ZM56.9267 13.4517C56.4409 13.5077 55.9925 13.7693 55.6936 14.1429C55.1331 14.8529 55.1518 15.9365 55.7123 16.6464C56.0673 17.0948 56.6651 17.3564 57.2443 17.319C57.8234 17.319 58.4026 17.0201 58.7576 16.5343C59.2807 15.8057 59.2434 14.7034 58.6268 14.0495C58.1971 13.5824 57.5432 13.3582 56.9267 13.4517Z" fill="black"/>
<path d="M64.0448 12.1252C64.7548 11.9757 65.5395 12.0318 66.156 12.4241C66.6044 12.6857 66.922 13.1154 67.1088 13.6011C67.2583 13.9935 67.3143 14.4232 67.3143 14.8529C67.3143 16.1046 67.3143 17.3564 67.3143 18.5894C66.8099 18.5894 66.3055 18.5894 65.801 18.5894C65.801 17.4124 65.801 16.2167 65.801 15.0397C65.801 14.6474 65.745 14.255 65.5208 13.9187C65.3526 13.6572 65.0724 13.489 64.7735 13.433C64.4559 13.3582 64.1196 13.3769 63.8206 13.4703C63.5217 13.5637 63.2602 13.7506 63.092 14.0121C62.8678 14.3297 62.7931 14.7408 62.7931 15.1144C62.7931 16.2728 62.7931 17.4311 62.7931 18.5894C62.2887 18.5894 61.7842 18.5894 61.2798 18.5894C61.2798 16.4596 61.2798 14.3111 61.2798 12.1812C61.7095 12.1812 62.1579 12.1812 62.5876 12.1812C62.5876 12.4801 62.5876 12.7791 62.5876 13.0967C62.9052 12.5736 63.4657 12.2559 64.0448 12.1252Z" fill="black"/>
<path d="M51.6021 12.1812C52.1065 12.1812 52.6109 12.1812 53.1154 12.1812C53.1154 14.3111 53.1154 16.4596 53.1154 18.5894C52.6109 18.5894 52.1065 18.5894 51.6021 18.5894C51.6021 16.4409 51.6021 14.3111 51.6021 12.1812Z" fill="black"/>
</g>
<defs>
<clipPath id="clip0_801_8674">
<rect width="80" height="18.7129" fill="white"/>
</clipPath>
</defs>
</svg>
