<svg width="80" height="19" viewBox="0 0 80 19" fill="none" xmlns="http://www.w3.org/2000/svg">
<g clip-path="url(#clip0_801_8671)">
<path d="M44.5566 0.272169H49.4862L47.0062 17.9636H42.0769L44.5566 0.272169ZM38.3421 0.272169L35.0155 10.4636L33.5638 0.272169H30.1162L25.7614 10.4334L25.2171 0.272169H20.4388L22.1022 17.9636H26.0639L30.963 6.77418L32.6869 17.9636H36.588L43.0295 0.272169H38.3421ZM79.7279 10.5543H68.0242C68.0847 12.8529 69.4608 14.3649 71.4869 14.3649C73.0142 14.3649 74.2239 13.5483 75.1614 11.9909L79.1124 13.7873C77.7546 16.4622 74.8936 18.2055 71.3659 18.2055C66.5576 18.2055 63.367 14.9696 63.367 9.76817C63.367 4.0524 67.1169 0 72.4093 0C77.0665 0 80 3.14515 80 8.0443C80 8.86088 79.9093 9.67746 79.7279 10.5543ZM75.3428 7.16732C75.3428 5.11088 74.1936 3.81047 72.3488 3.81047C70.5042 3.81047 68.871 5.17135 68.4477 7.16732H75.3428ZM5.03222 5.60381L0 11.4844H8.98483L9.9949 8.71115H6.14512L8.49792 5.99092L8.5055 5.91833L6.97526 3.28579H13.8568L8.52213 17.9636H12.1723L18.6138 0.272169H1.97177L5.03071 5.60381H5.03222ZM57.5002 3.81047C59.239 3.81047 60.7632 4.74496 62.0938 6.34777L62.7925 1.36088C61.5525 0.521678 59.8741 0 57.6514 0C53.2361 0 50.7563 2.58568 50.7563 5.86693C50.7563 8.14266 52.0264 9.53374 54.1131 10.4334L55.1111 10.8871C56.9709 11.6809 57.4699 12.074 57.4699 12.9134C57.4699 13.7525 56.6308 14.3347 55.353 14.3347C53.2435 14.3421 51.535 13.2611 50.2497 11.4163L49.5375 16.4984C51.0013 17.6145 52.8778 18.2055 55.353 18.2055C59.549 18.2055 62.1271 15.7862 62.1271 12.4294C62.1271 10.1461 61.114 8.67945 58.5586 7.53023L57.4699 7.01611C55.9577 6.34323 55.4437 5.97278 55.4437 5.23184C55.4437 4.43044 56.1468 3.81047 57.5002 3.81047Z" fill="#163300"/>
</g>
<defs>
<clipPath id="clip0_801_8671">
<rect width="80" height="18.2055" fill="white"/>
</clipPath>
</defs>
</svg>
