<svg width="108" height="108" viewBox="0 0 108 108" fill="none" xmlns="http://www.w3.org/2000/svg">
<path d="M77.6212 42.6862L84.2777 41.4956V67.0481H77.6212V42.6862ZM87.3435 42.6862V67.0481H94.0047V41.4956L87.3435 42.6862ZM68.1427 67.0528H74.8039V48.3583H68.1427V67.0528ZM24.1254 51.0022C23.2816 50.9459 21.3362 50.8194 21.3362 49.0662C21.3362 46.9473 24.1441 46.9473 25.1942 46.9473C27.0458 46.9473 29.4412 47.4958 31.1522 48.0068C31.1522 48.0068 32.1085 48.3443 32.9195 48.6865L32.9945 48.7052V42.9112L32.8914 42.8784C30.871 42.1706 28.5224 41.4909 24.1676 41.4909C16.6579 41.4956 14 45.8692 14 49.6146C14 51.7757 14.9235 56.8571 23.5254 57.4431C24.252 57.4852 26.188 57.5978 26.188 59.4119C26.188 60.9073 24.6035 61.7932 21.9409 61.7932C19.0205 61.7932 16.1891 61.0479 14.4688 60.3447V66.3168C17.0423 66.9919 19.944 67.3294 23.3472 67.3294C30.6882 67.3294 33.9742 63.1902 33.9742 59.0884C33.9742 54.4383 30.2944 51.4147 24.1254 51.0022ZM64.3832 48.0864C58.2283 48.2833 55.1016 51.0444 55.1016 56.5336V67.0528H61.8191V58.4743C61.8191 55.1883 62.2503 53.7773 66.1505 53.646V48.1849C65.4942 48.0443 64.3832 48.0864 64.3832 48.0864ZM46.3169 48.3396C46.1669 48.7099 45.1028 51.7241 42.5245 54.8461V41.4956L35.6524 42.855V67.0481H42.5245V59.5666C44.5168 62.5526 45.4965 67.0481 45.4965 67.0481H53.7281C52.9125 63.6636 49.3498 57.4196 49.3498 57.4196C52.5468 53.3648 53.9484 49.0474 54.1734 48.3349H46.3169V48.3396ZM71.4663 46.5676C73.2804 46.5676 74.7477 45.1004 74.7477 43.2863C74.7477 41.4721 73.2804 40.0049 71.4663 40.0049C69.6522 40.0049 68.1849 41.4768 68.1849 43.2863C68.1849 45.0957 69.6522 46.5676 71.4663 46.5676Z" fill="#862165"/>
</svg>
