<svg width="108" height="108" viewBox="0 0 108 108" fill="none" xmlns="http://www.w3.org/2000/svg">
<path d="M58.5566 45.2722H63.4862L61.0062 62.9636H56.0769L58.5566 45.2722ZM52.3421 45.2722L49.0155 55.4636L47.5638 45.2722H44.1162L39.7614 55.4334L39.2171 45.2722H34.4388L36.1022 62.9636H40.0639L44.963 51.7742L46.6869 62.9636H50.588L57.0295 45.2722H52.3421ZM93.7279 55.5543H82.0242C82.0847 57.8529 83.4608 59.3649 85.4869 59.3649C87.0142 59.3649 88.2239 58.5483 89.1614 56.9909L93.1124 58.7873C91.7546 61.4622 88.8936 63.2055 85.3659 63.2055C80.5576 63.2055 77.367 59.9696 77.367 54.7682C77.367 49.0524 81.1169 45 86.4093 45C91.0665 45 94 48.1452 94 53.0443C94 53.8609 93.9093 54.6775 93.7279 55.5543ZM89.3428 52.1673C89.3428 50.1109 88.1936 48.8105 86.3488 48.8105C84.5042 48.8105 82.871 50.1714 82.4477 52.1673H89.3428ZM19.0322 50.6038L14 56.4844H22.9848L23.9949 53.7111H20.1451L22.4979 50.9909L22.5055 50.9183L20.9753 48.2858H27.8568L22.5221 62.9636H26.1723L32.6138 45.2722H15.9718L19.0307 50.6038H19.0322ZM71.5002 48.8105C73.239 48.8105 74.7632 49.745 76.0938 51.3478L76.7925 46.3609C75.5525 45.5217 73.8741 45 71.6514 45C67.2361 45 64.7563 47.5857 64.7563 50.8669C64.7563 53.1427 66.0264 54.5337 68.1131 55.4334L69.1111 55.8871C70.9709 56.6809 71.4699 57.074 71.4699 57.9134C71.4699 58.7525 70.6308 59.3347 69.353 59.3347C67.2435 59.3421 65.535 58.2611 64.2497 56.4163L63.5375 61.4984C65.0013 62.6145 66.8778 63.2055 69.353 63.2055C73.549 63.2055 76.1271 60.7862 76.1271 57.4294C76.1271 55.1461 75.114 53.6795 72.5586 52.5302L71.4699 52.0161C69.9577 51.3432 69.4437 50.9728 69.4437 50.2318C69.4437 49.4304 70.1468 48.8105 71.5002 48.8105Z" fill="#163300"/>
</svg>
