<svg width="108" height="108" viewBox="0 0 108 108" fill="none" xmlns="http://www.w3.org/2000/svg">
<path d="M30.954 54.5945C30.413 54.7175 29.8567 54.9471 29.3081 55.275C27.9747 56.0702 27.3499 57.8739 27.8756 59.4397L28.5309 61.4237H33.8038L30.954 54.5945ZM52.7541 46.0273C52.4493 46.4455 52.0074 46.7652 51.5197 46.8635C50.9711 46.9865 50.3844 46.8143 49.8434 46.7078C49.2795 46.593 48.7004 46.5356 48.1289 46.5356C46.6507 46.5438 45.1039 47.0275 43.9381 48.0195C42.2084 49.4952 41.5226 51.7087 41.5226 54.2338C41.5226 59.2347 44.8753 60.2513 46.4983 60.2513C49.7139 60.2513 50.7806 57.8657 50.7806 57.8657V59.3577C52.0303 59.1528 53.2875 58.9314 54.56 58.7183L55.0782 58.6281V49.1509L55.0858 48.9459V45.6338C55.0782 45.6912 52.9751 45.9945 52.7541 46.0273ZM50.7121 54.7175C50.7121 54.7175 49.3633 56.1686 47.7403 56.0784C45.6525 55.9637 44.9134 53.25 45.9192 51.5284C46.3611 50.7741 47.2298 50.1511 48.0909 50.0527C49.2871 49.9215 50.4987 50.3314 50.7121 50.4626C50.7197 50.7249 50.7121 54.7175 50.7121 54.7175ZM26.2678 43.3465L21.4369 42.5923L14 61.932C14.8306 61.8992 15.6763 61.8664 16.484 61.6942C17.0708 61.5713 17.6422 61.3909 18.1985 61.1531C22.0541 59.5709 24.8429 55.9719 28.7138 54.4223C29.3386 54.1764 29.9787 53.9879 30.6187 53.8567L26.2678 43.3465ZM24.4695 52.0203C23.4333 52.463 21.5817 53.6517 20.7511 54.6765L23.6543 47.2653L25.9707 52.5613L24.4695 52.0203ZM78.2575 38.28C78.2042 36.8945 77.2593 35.9681 75.8497 36.0008C74.3409 36.0336 73.358 37.0584 73.358 38.5095C73.358 39.9442 74.3409 40.887 75.8421 40.846C77.2974 40.8132 78.2575 39.8294 78.2575 38.4029C78.2651 38.3537 78.2575 38.3128 78.2575 38.28ZM77.4651 42.9038C76.2459 42.9038 74.9658 42.9366 73.6628 43.0022V56.0046C74.9658 55.9391 76.2383 55.9063 77.4575 55.9063C77.6327 55.9063 77.8079 55.9063 77.9832 55.9063V42.9038C77.8079 42.9038 77.6403 42.9038 77.4651 42.9038ZM70.7063 37.1404C69.3348 37.2634 67.9175 37.4191 66.4011 37.6159V44.3221C64.8696 43.6498 62.3017 43.5843 60.5035 44.6828C58.2709 46.0437 57.1507 48.618 57.1507 51.4546C57.1507 53.291 57.6308 55.2832 58.9261 56.4145C60.5873 57.8657 62.4922 57.7673 64.1152 57.2753C65.4791 56.8655 67.0565 55.193 68.3213 56.4883C69.1291 56.3981 69.9367 56.3161 70.7139 56.2424V53.0615C70.7063 53.0615 70.7063 37.1404 70.7063 37.1404ZM66.3631 52.2662C66.3631 52.2662 65.0372 53.4877 63.6885 53.4877C62.3398 53.4877 61.2578 52.4958 61.1359 50.9627C60.9759 48.8885 62.3169 47.626 63.8105 47.462C65.4868 47.2735 66.3631 48.2901 66.3631 48.2901V52.2662ZM89.8547 44.0187C89.0093 43.7318 88.11 43.658 87.2333 43.7564C86.548 43.8302 85.87 44.0843 85.184 44.0843C84.6427 44.0843 84.2007 43.9204 83.8353 43.5761C83.736 43.4859 83.652 43.3957 83.576 43.2973C82.7 43.1989 81.808 43.1169 80.9013 43.0513V56.0538C82.372 56.1522 83.82 56.2998 85.222 56.5047C85.222 56.5047 85.222 48.1835 85.222 47.7244C85.908 47.5604 87.1193 47.5112 87.7367 47.6916C88.4147 47.8883 89.6793 48.495 89.6793 50.561V57.3491C91.1347 57.6935 92.59 58.1034 94 58.5707V50.1839C94.0073 47.3801 92.3387 44.9042 89.8547 44.0187ZM34.9772 42.3135V61.4237C36.364 61.3499 37.7737 61.2433 39.2671 61.0957V41.9938C37.7661 42.1414 36.364 42.2479 34.9772 42.3135Z" fill="#1B21CC"/>
<path d="M69.5863 68.63C69.5863 69.2777 68.3062 69.1465 66.2337 69.3761C64.1611 69.5482 61.296 70.0975 58.1414 70.778C54.9792 71.4584 52.1142 71.524 50.0492 70.9173C47.9767 70.3681 46.6965 69.1629 46.6965 68.6218C46.6965 67.9741 47.9767 68.1053 50.0492 67.8758C52.1218 67.7036 54.9869 67.1543 58.1414 66.4739C61.3037 65.7934 64.1687 65.7278 66.2337 66.3345C68.2986 66.8838 69.5863 68.0971 69.5863 68.63Z" fill="#D9D9D9"/>
</svg>
