<svg width="108" height="108" viewBox="0 0 108 108" fill="none" xmlns="http://www.w3.org/2000/svg">
<path d="M75.68 57.5726C69.0844 57.6037 64.2504 52.6955 64.2 45.9148C64.1511 39.2481 69.0474 34.1933 75.5585 34.1904C82.1911 34.1904 87.0415 39.0452 87.0756 45.7296C87.1111 52.6081 82.3704 57.5415 75.68 57.5726ZM69.5082 46.017C69.4267 46.9504 69.6341 48.0081 70.0474 49.017C70.8845 51.0555 72.3408 52.4022 74.5541 52.7681C76.8059 53.14 78.8282 52.58 80.2237 50.7207C82.2045 48.0807 82.3259 45.1178 80.9511 42.217C79.1022 38.3207 73.7452 37.7726 70.9985 41.0985C69.8682 42.4659 69.4637 44.0941 69.5082 46.0155V46.017Z" fill="#FFBC25"/>
<path d="M35.0637 54.2615C34.0548 55.6867 32.8282 56.6318 31.2859 57.1133C28.8252 57.8748 26.397 57.8274 24.1333 56.4822C21.7496 55.0615 20.6726 52.9059 20.9526 50.1341C21.2326 47.3622 22.9274 45.7059 25.4444 44.8007C27.2844 44.1385 29.2459 44.0733 31.1526 43.737C31.8682 43.6096 32.5926 43.537 33.3096 43.417C35.0711 43.1207 35.0756 41.6659 34.4519 40.2733C34.1927 39.7014 33.7255 39.2495 33.1452 39.0096C31.4578 38.2926 29.7778 38.2244 28.1274 39.1563C27.1496 39.7148 26.5882 40.5785 26.3096 41.6467C26.1037 42.4333 26.0504 42.463 25.2607 42.2807C24.1867 42.0348 23.1111 41.78 22.0385 41.5578C21.4785 41.4407 21.3363 41.1681 21.4681 40.6141C22.1126 37.9148 23.7911 36.0733 26.2948 35.0452C29.3704 33.7815 32.517 33.8407 35.5704 35.1326C38.3289 36.3 39.7393 38.54 39.923 41.4807C40.1289 44.7844 39.96 48.097 40.0015 51.4067C40.0133 52.3548 39.9348 53.303 40.0741 54.2481C40.1911 55.0452 40.5185 55.7178 41.1585 56.2215C41.317 56.3459 41.4993 56.457 41.4059 56.7C41.3126 56.943 41.0948 56.9148 40.8993 56.9163C39.9067 56.9163 38.9126 56.9474 37.9215 56.9163C36.6074 56.8748 35.6193 56.0837 35.2444 54.8422C35.2015 54.6911 35.1541 54.5489 35.0637 54.2615ZM34.8148 48.1963C34.8148 47.8763 34.797 47.6763 34.8148 47.4793C34.8756 46.937 34.7467 46.7296 34.1259 46.8778C33.3585 47.0615 32.5511 47.0659 31.7748 47.2215C30.483 47.4807 29.1333 47.46 27.8948 47.9815C26.7363 48.4704 26.0459 49.5548 26.117 50.7444C26.1483 51.3343 26.366 51.8989 26.7387 52.3571C27.1115 52.8153 27.62 53.1434 28.1911 53.2941C28.958 53.5124 29.7636 53.5592 30.5507 53.4312C31.3378 53.3032 32.087 53.0035 32.7452 52.5533C34.3378 51.5104 34.7541 49.8659 34.8148 48.1963Z" fill="#FFBC25"/>
<path d="M55.0178 38.7607C55.0178 34.1504 55.0178 29.5395 55.0178 24.9281C55.0178 24.06 55.0622 24.017 55.9067 24.0155C57.3635 24.0155 58.8198 24.0155 60.2756 24.0155C61.1156 24.0155 61.1733 24.0837 61.1733 25.0022V49.7548C61.1733 50.5933 61.16 51.4318 61.1733 52.2733C61.2059 54.0141 62.0237 55.2911 63.5215 56.1459C63.7319 56.2659 64.0178 56.3237 63.9659 56.6393C63.8948 57.0126 63.5645 56.9178 63.3171 56.9193C62.0815 56.9281 60.8459 56.9356 59.6133 56.9193C56.9067 56.8881 55.0415 55.0333 55.0326 52.3267C55.0074 47.8067 55.0178 43.2837 55.0178 38.7607Z" fill="#FFBC25"/>
<path d="M43.3096 38.7163V25.02C43.3096 24.0615 43.3541 24.017 44.3215 24.017C46.3274 24.017 48.3348 24.017 50.3422 24.017C50.6533 24.017 51.0444 23.8955 51.2133 24.3015C51.3822 24.7074 51.0415 24.9133 50.8459 25.1578C49.443 26.9118 48.0237 28.6555 46.6133 30.4037C46.477 30.5741 46.3022 30.7444 46.2444 30.943C46.1215 31.3607 46.3644 31.5696 46.763 31.5844C47.2474 31.6037 47.7333 31.5844 48.2193 31.5963C49.1763 31.6096 49.4785 31.8926 49.4874 32.8718C49.5022 34.2393 49.4874 35.6067 49.4874 36.9741C49.4874 41.936 49.4874 46.898 49.4874 51.86C49.4874 53.7578 50.2015 55.2348 51.9111 56.1563C52.1081 56.2644 52.3378 56.3578 52.2919 56.6304C52.2341 56.9622 51.9452 56.9148 51.7081 56.9148C50.363 56.9148 49.0178 56.9489 47.6726 56.9148C45.2059 56.8393 43.3319 54.9044 43.323 52.4126C43.3067 47.8467 43.323 43.2822 43.323 38.7178L43.3096 38.7163Z" fill="#FFBC25"/>
<path d="M20 83.6378V59.4896H23.197V69.8778H23.3896C23.6244 69.4618 23.8924 69.0654 24.1911 68.6926C24.5896 68.2019 25.0848 67.7985 25.6459 67.5074C26.2652 67.1696 27.0849 67.0007 28.1052 67.0007C29.3632 66.98 30.5995 67.3293 31.6607 68.0052C32.7007 68.6748 33.5185 69.6407 34.1141 70.903C34.7096 72.1652 35.0059 73.6832 35.003 75.457C35.003 77.2348 34.7067 78.7548 34.1141 80.017C33.5215 81.2793 32.7086 82.2531 31.6756 82.9385C30.624 83.624 29.3914 83.9795 28.1363 83.9592C27.1388 83.9592 26.3244 83.7918 25.6933 83.457C25.1234 83.1717 24.6189 82.7712 24.2119 82.2807C23.9052 81.9048 23.6297 81.5044 23.3881 81.0837H23.1215V83.6378H20ZM23.1333 75.4274C23.1129 76.4615 23.2831 77.4905 23.6356 78.463C23.9207 79.2641 24.4241 79.9697 25.0889 80.5C25.7608 81.0013 26.5829 81.2598 27.4207 81.2333C28.3748 81.2333 29.1728 80.978 29.8148 80.4674C30.4825 79.9232 30.9874 79.2056 31.2741 78.3933C31.9337 76.489 31.9379 74.4188 31.2859 72.5118C31.0027 71.708 30.4985 71.0004 29.8311 70.4704C29.1862 69.9706 28.3827 69.7212 27.4207 69.7222C26.4933 69.7222 25.7106 69.9607 25.0726 70.4378C24.4088 70.9524 23.9065 71.6464 23.6252 72.4378C23.2796 73.3958 23.1129 74.4091 23.1333 75.4274Z" fill="#282828"/>
<path d="M42.6667 84.0022C41.697 84.0155 40.7362 83.8163 39.8519 83.4185C39.0401 83.0545 38.3485 82.4673 37.8578 81.7252C37.3699 80.9834 37.1259 80.0743 37.1259 78.9978C37.1259 78.0723 37.3042 77.3099 37.6607 76.7104C38.0096 76.1187 38.507 75.6284 39.1037 75.2881C39.7387 74.9271 40.4229 74.6606 41.1348 74.497C41.8893 74.3178 42.6536 74.1822 43.4237 74.0911C44.4114 73.9765 45.2094 73.8817 45.8178 73.8067C46.4262 73.7316 46.8706 73.6086 47.1511 73.4378C47.2896 73.3496 47.4015 73.2254 47.4749 73.0784C47.5482 72.9315 47.5802 72.7674 47.5674 72.6037V72.5296C47.5674 71.5963 47.3057 70.8728 46.7822 70.3592C46.2588 69.8457 45.4795 69.5889 44.4444 69.5889C43.3669 69.5889 42.5205 69.8259 41.9052 70.3C41.3455 70.7021 40.904 71.2469 40.6267 71.8778L37.6296 71.1933C37.9394 70.267 38.478 69.4338 39.1956 68.7711C39.8823 68.1559 40.6939 67.6965 41.5748 67.4244C42.4925 67.1401 43.4482 66.9977 44.4089 67.0022C45.1117 67.0068 45.8122 67.0838 46.4993 67.2318C47.2354 67.3842 47.9381 67.6683 48.5733 68.0704C49.2423 68.5046 49.789 69.1029 50.1615 69.8081C50.5753 70.5607 50.7817 71.5355 50.7807 72.7326V83.6378H47.6518V81.3933H47.523C47.284 81.8495 46.9695 82.2617 46.5926 82.6126C46.1301 83.0426 45.5895 83.38 45 83.6067C44.255 83.8876 43.4627 84.0219 42.6667 84.0022ZM43.3615 81.4363C44.1499 81.4581 44.9308 81.2776 45.6296 80.9118C46.2272 80.5942 46.7267 80.1193 47.0741 79.5385C47.4006 78.9863 47.5721 78.3563 47.5704 77.7148V75.5978C47.3779 75.7516 47.153 75.8595 46.9126 75.9133C46.5491 76.0181 46.1795 76.1002 45.8059 76.1592C45.3926 76.2274 44.9911 76.2881 44.5985 76.3415L43.6148 76.4748C43.0389 76.5437 42.4725 76.6764 41.9259 76.8704C41.4582 77.0278 41.0385 77.3021 40.7067 77.6674C40.3904 78.0531 40.2289 78.5426 40.2533 79.0407C40.2533 79.8309 40.5452 80.4279 41.1289 80.8318C41.7126 81.2358 42.4578 81.4373 43.3644 81.4363H43.3615Z" fill="#282828"/>
<path d="M57.5333 73.8866V83.6378H54.3363V67.2155H57.4044V69.8822H57.6074C57.9772 69.0219 58.5965 68.2922 59.3852 67.7874C60.1941 67.26 61.2153 66.9963 62.4489 66.9963C63.4748 66.9757 64.4887 67.2201 65.3926 67.7059C66.2409 68.1814 66.9233 68.9052 67.3482 69.78C67.8114 70.7005 68.043 71.8363 68.043 73.1874V83.6333H64.8459V73.577C64.8459 72.3918 64.5363 71.46 63.917 70.7815C63.2978 70.1029 62.4459 69.7662 61.3615 69.7711C60.6731 69.7576 59.993 69.9235 59.3882 70.2526C58.8083 70.5787 58.3365 71.0674 58.0311 71.6585C57.6823 72.3482 57.5112 73.1141 57.5333 73.8866Z" fill="#282828"/>
<path d="M81.9985 83.6378H85.923L78.8252 74.2644L85.4726 67.2155H81.6459L75.1022 74.1652H74.8237V59.2244H71.6282V83.6378H74.8237V77.8111L76.4119 76.2229L81.9985 83.6378Z" fill="#282828"/>
</svg>
