<svg width="108" height="108" viewBox="0 0 108 108" fill="none" xmlns="http://www.w3.org/2000/svg">
<path d="M82.9508 51.0876C82.9508 49.6325 81.7938 48.4529 80.3256 48.4529C78.8573 48.4529 77.7008 49.6325 77.7008 51.0876C77.7008 51.6437 77.8753 52.1589 78.1721 52.584C78.2905 52.7935 78.4201 52.9771 78.5403 53.1475C78.7206 53.403 78.8798 53.6285 78.9482 53.8662C79.1216 54.4668 78.9381 54.8696 78.6431 54.9898C78.2615 55.1455 77.6624 54.88 77.6624 54.88C74.9616 53.8346 73.0481 51.2315 73.0481 48.1845C73.0481 44.2166 76.3216 41 80.3256 41C84.3296 41 87.6031 44.2166 87.6031 48.1845C87.6031 51.2315 85.6899 53.8346 82.9888 54.88C82.9888 54.88 82.3897 55.1455 82.0085 54.9898C81.7131 54.8696 81.5299 54.4668 81.7033 53.8662C81.7715 53.6286 81.9306 53.4032 82.1108 53.1478C82.231 52.9774 82.3607 52.7936 82.4791 52.584C82.7759 52.1589 82.9508 51.6437 82.9508 51.0876Z" fill="#169CD4"/>
<path d="M75.3945 65.7809C76.7571 64.9439 77.1527 63.059 77.1527 61.3448C77.1527 57.7457 74.2083 54.8276 70.5764 54.8276C69.1962 54.8276 67.9462 55.0403 67.0778 55.8048C66.3929 56.4076 66.6412 57.0465 67.0658 57.5247L73.7967 65.5627C73.7967 65.5627 74.4197 66.38 75.3945 65.7809Z" fill="#169CD4"/>
<path d="M85.2566 65.7809C83.8941 64.9439 83.4984 63.059 83.4984 61.3448C83.4984 57.7457 86.4429 54.8276 90.0751 54.8276C91.455 54.8276 92.705 55.0403 93.5737 55.8048C94.2583 56.4076 94.0099 57.0465 93.5853 57.5247L86.8545 65.5627C86.8545 65.5627 86.2318 66.38 85.2566 65.7809Z" fill="#169CD4"/>
<path d="M31.0698 57.3243L29.7374 50.2158C29.5126 49.2583 28.5258 49.3139 28.5258 49.3139L26.3426 49.3893C24.0385 49.4664 22.5656 51.7851 22.5656 51.7851L19.0101 57.3243H31.0698Z" fill="#169CD4"/>
<path d="M57.3115 54.0713H51.5686C51.1765 54.0713 50.854 53.7793 50.8095 53.4026H50.8037V50.0607C50.8037 49.6421 51.1461 49.3138 51.5686 49.3138H64.5177C64.9398 49.3138 65.2822 49.6421 65.2822 50.0607V52.1057C65.2822 52.1057 65.3438 52.985 64.5181 53.8037L61.8538 57.3242H54.842C55.8067 56.052 56.7243 54.8443 57.2033 54.2137L57.3115 54.0713Z" fill="#169CD4"/>
<path d="M58.5152 61.7359H64.5177C64.9249 61.7359 65.2565 62.0516 65.2797 62.4495L65.2822 62.4492V65.6575C65.2822 66.0759 64.9398 66.3514 64.5177 66.3514H51.5686C51.1461 66.3514 50.8037 66.0759 50.8037 65.6575V63.2958C50.8037 63.2958 50.8934 62.5826 51.4781 61.7808C51.7253 61.4414 52.8504 59.9533 54.0652 58.3493H61.0781L58.5152 61.7359Z" fill="#169CD4"/>
<path d="M26.6124 65.2567L25.4475 58.3487H31.2633L32.6316 65.558C32.6316 65.558 32.9248 66.3512 32.1154 66.3512H28.0513C28.0513 66.3512 26.843 66.4029 26.6124 65.2567Z" fill="#169CD4"/>
<path d="M18.3609 58.3487L14.3819 64.6324C13.3477 66.2364 14.7417 66.3512 14.7417 66.3512H19.1482C19.7777 66.4402 20.4974 65.3453 20.4974 65.3453L24.8015 58.3487H18.3609Z" fill="#169CD4"/>
<path d="M44.0587 57.3243L44.6882 58.3492H49.1848V65.5682C49.1848 65.9865 48.8428 66.3514 48.42 66.3514H44.4641C43.7597 66.3804 43.2254 65.8581 42.8 65.212L39.158 58.9738V65.5686C39.158 65.9872 38.8152 66.3514 38.3932 66.3514H34.5716C34.1492 66.3514 33.8067 65.9865 33.8067 65.5682V58.3489H38.8431L38.2136 57.3243H33.8067V50.0605C33.8067 49.6422 34.1492 49.3139 34.5716 49.3139H38.3932C39.1153 49.3139 39.8545 49.7706 40.2817 50.595C40.5173 51.0499 43.6996 56.6085 43.6996 56.6085V50.1053C43.6996 49.6866 44.0417 49.3139 44.4641 49.3139H48.42C48.8428 49.3139 49.1848 49.6422 49.1848 50.0605V57.3243H44.0587Z" fill="#169CD4"/>
</svg>
