<svg width="108" height="108" viewBox="0 0 108 108" fill="none" xmlns="http://www.w3.org/2000/svg">
<path d="M32.7598 50.9045H35.5259C36.783 50.9045 37.5978 51.6407 37.5978 52.6427C37.6069 52.9595 37.5177 53.2715 37.3423 53.5355C37.1669 53.7996 36.914 54.0028 36.6184 54.1172C37.4041 54.3432 37.9637 54.9782 37.9637 55.8156C37.9637 56.964 37.149 57.7788 35.7347 57.7788H32.7598V50.9045ZM35.3107 53.7523C35.8994 53.7523 36.3321 53.4381 36.3321 52.8095C36.3321 52.181 35.8703 51.8957 35.301 51.8957H34.046V53.7523H35.3107ZM35.5259 56.7853C36.1448 56.7853 36.6657 56.4711 36.6657 55.7446C36.6657 55.0181 36.1448 54.6941 35.4818 54.6941H34.046V56.7853H35.5259Z" fill="#1F4396"/>
<path d="M38.3512 55.2936C38.3512 53.7717 39.1659 52.6717 40.5501 52.6717C40.8677 52.6615 41.1821 52.7385 41.4591 52.8942C41.7361 53.05 41.9652 53.2787 42.1215 53.5554V52.8095H43.3291V57.7766H42.1215V57.0297C41.9636 57.305 41.7342 57.5326 41.4576 57.6881C41.1809 57.8437 40.8673 57.9215 40.5501 57.9133C39.1659 57.9133 38.3512 56.8144 38.3512 55.2925V55.2936ZM40.845 56.908C41.6597 56.908 42.1021 56.2504 42.1021 55.2936C42.1021 54.3368 41.6608 53.6867 40.845 53.6867C40.0291 53.6867 39.5879 54.3443 39.5879 55.3011C39.5879 56.258 40.0399 56.9037 40.845 56.9037V56.908Z" fill="#1F4396"/>
<path d="M44.2116 52.8095H45.4192V53.5941C45.5624 53.313 45.7821 53.078 46.0532 52.9165C46.3242 52.755 46.6354 52.6735 46.9508 52.6814C48.1186 52.6814 48.7278 53.3886 48.7278 54.5962V57.7766H47.49V54.8125C47.49 54.1054 47.1962 53.6931 46.5483 53.6931C45.8508 53.6931 45.4483 54.2227 45.4483 55.1268V57.7766H44.2116V52.8095Z" fill="#1F4396"/>
<path d="M49.4101 58.092H50.6672C50.7846 58.4741 51.1387 58.7302 51.7435 58.7302C52.5787 58.7302 52.9124 58.2093 52.9124 57.4387V56.879C52.7447 57.101 52.526 57.2794 52.2748 57.3989C52.0235 57.5185 51.7471 57.5757 51.4691 57.5657C50.114 57.5657 49.309 56.5443 49.309 55.1214C49.309 53.6985 50.114 52.6664 51.4691 52.6664C51.7641 52.657 52.0566 52.724 52.3182 52.8609C52.5797 52.9978 52.8015 53.1999 52.9619 53.4478V52.8095H54.1566V57.4376C54.1566 58.8712 53.2041 59.686 51.7317 59.686C50.4165 59.686 49.5619 59.0682 49.4144 58.0963L49.4101 58.092ZM51.7575 56.5701C52.5325 56.5701 52.9748 55.9803 52.9748 55.1268C52.9748 54.2733 52.5368 53.6867 51.7618 53.6867C50.9869 53.6867 50.5542 54.2754 50.5542 55.13C50.5542 55.9846 50.9955 56.5701 51.7618 56.5701H51.7575Z" fill="#1F4396"/>
<path d="M56.2801 55.3625V57.7766H55.0435V50.9045H56.2801V54.8512L58.0582 52.8063H59.5402L57.5179 55.0547L59.805 57.7766H58.2831L56.2812 55.3614L56.2801 55.3625Z" fill="#1F4396"/>
<path d="M59.4832 55.2936C59.4832 53.7717 60.4163 52.6621 62.006 52.6621C63.5957 52.6621 64.5106 53.7717 64.5106 55.2936C64.5106 56.8155 63.5871 57.9251 62.006 57.9251C60.4249 57.9251 59.4832 56.8155 59.4832 55.2936ZM62.0028 56.9231C62.8283 56.9231 63.2696 56.2461 63.2696 55.2936C63.2696 54.3411 62.8315 53.6641 62.0028 53.6641C61.174 53.6641 60.7166 54.3508 60.7166 55.2936C60.7166 56.2364 61.1719 56.9231 62.0028 56.9231Z" fill="#1F4396"/>
<path d="M66.3672 57.7766H65.1305V50.9045H66.3672V54.8512L68.1441 52.8063H69.6273L67.6049 55.0547L69.892 57.7766H68.3702L66.3672 55.3614V57.7766Z" fill="#1F4396"/>
<path d="M72.4052 50.9045H75.1745C76.4305 50.9045 77.2453 51.6407 77.2453 52.6427C77.2543 52.9598 77.1647 53.2719 76.9889 53.536C76.8131 53.8001 76.5597 54.0031 76.2637 54.1172C77.0494 54.3432 77.6091 54.9782 77.6091 55.8156C77.6091 56.964 76.7943 57.7788 75.3801 57.7788H72.4052V50.9045ZM74.9582 53.7523C75.5469 53.7523 75.9796 53.4381 75.9796 52.8095C75.9796 52.181 75.5179 51.8957 74.9485 51.8957H73.6914V53.7523H74.9582ZM75.1734 56.7853C75.7923 56.7853 76.3122 56.4711 76.3122 55.7446C76.3122 55.0181 75.7923 54.6941 75.1282 54.6941H73.6914V56.7853H75.1734Z" fill="#1F4396"/>
<path d="M77.9966 55.2936C77.9966 53.7717 78.8113 52.6717 80.1965 52.6717C80.514 52.6616 80.8282 52.7386 81.105 52.8944C81.3818 53.0501 81.6107 53.2787 81.7668 53.5554V52.8095H82.9744V57.7766H81.7668V57.0297C81.6089 57.3057 81.379 57.5338 81.1018 57.6896C80.8245 57.8454 80.5101 57.9231 80.1922 57.9144C78.807 57.9144 77.9922 56.8155 77.9922 55.2936H77.9966ZM80.4903 56.908C81.3051 56.908 81.7474 56.2504 81.7474 55.2936C81.7474 54.3368 81.3051 53.6792 80.4903 53.6792C79.6756 53.6792 79.2343 54.3368 79.2343 55.2936C79.2343 56.2504 79.6853 56.9037 80.4903 56.9037V56.908Z" fill="#1F4396"/>
<path d="M83.857 52.8095H85.0646V53.5941C85.2077 53.313 85.4275 53.078 85.6985 52.9165C85.9696 52.755 86.2808 52.6735 86.5962 52.6814C87.765 52.6814 88.3731 53.3886 88.3731 54.5962V57.7766H87.1365V54.8125C87.1365 54.1054 86.8416 53.6931 86.1936 53.6931C85.4962 53.6931 85.0937 54.2227 85.0937 55.1268V57.7766H83.857V52.8095Z" fill="#1F4396"/>
<path d="M90.4751 57.7766H89.2385V50.9045H90.4751V54.8512L92.2521 52.8063H93.7352L91.7086 55.0579L94 57.7766H92.4781L90.4751 55.3614V57.7766Z" fill="#1F4396"/>
<path d="M27.5204 51.9431L21.4695 44.0001L15.4196 51.9431C14.3982 53.2874 14 54.4574 14 55.7317C14 57.669 14.9687 59.4169 16.7144 60.6364L21.4695 63.9191L26.2256 60.6321C27.9682 59.4126 28.939 57.669 28.939 55.7317C28.939 54.4574 28.5408 53.2874 27.5204 51.9431ZM20.4987 60.3092V61.4791L17.5851 59.4869C16.2161 58.5656 15.4444 57.1965 15.4444 55.8016C15.4522 55.078 15.6405 54.3677 15.9922 53.7352C16.1418 54.1592 16.3905 54.5822 16.9383 55.2043L20.0273 58.6377C20.5234 59.2135 20.4987 59.5622 20.4987 60.3092ZM18.2083 54.4574C17.4355 53.6114 17.287 53.1378 17.287 52.6395C17.287 52.1412 17.386 51.7494 17.9823 50.9712L21.4695 46.44L24.9556 50.9712C25.5282 51.744 25.6531 52.167 25.6531 52.6395C25.6531 53.1378 25.5035 53.6082 24.7317 54.4574L21.4695 58.0931L18.2083 54.4574ZM25.3538 59.4869L22.4403 61.4791V60.3092C22.4403 59.5622 22.4156 59.2135 22.9139 58.6409L26.0018 55.2043C26.5485 54.5822 26.7982 54.1592 26.9478 53.7352C27.2991 54.3678 27.4874 55.078 27.4957 55.8016C27.4957 57.1965 26.7229 58.5656 25.3538 59.4869Z" fill="#1F4396"/>
</svg>
