<svg width="108" height="108" viewBox="0 0 108 108" fill="none" xmlns="http://www.w3.org/2000/svg">
<path fill-rule="evenodd" clip-rule="evenodd" d="M14 54.4021H59.838L76.646 57.089L93.7192 54.4021V74.7862H14V54.4021Z" fill="#007CC5"/>
<path fill-rule="evenodd" clip-rule="evenodd" d="M28.2498 59.5225C28.1952 59.5225 26.5144 59.5225 26.5144 59.5225V63.6095H27.9495V60.7002C28.0236 60.669 28.1562 60.6456 28.2693 60.6456C28.5345 60.6456 28.6905 60.7977 28.6905 61.0551V63.6095H30.1295V60.8874C30.1295 60.0061 29.5796 59.5264 28.2537 59.5264L28.2498 59.5225ZM33.1362 59.6161L32.2588 61.2813H32.2432V58.1693H30.8236V63.6095H32.2432V61.6401H32.2588L33.2649 63.6095H34.8482L33.7017 61.4607L34.7468 59.6161H33.1362ZM20.9728 60.7275V60.708C21.4018 60.5715 21.7372 60.2089 21.7372 59.6824C21.7372 58.801 21.1093 58.1498 19.5923 58.1498H17.8218V63.5978H19.5923C21.1093 63.5978 21.8347 63.005 21.8347 62.0028C21.8347 61.3437 21.3784 60.8874 20.9767 60.7236L20.9728 60.7275ZM19.2179 59.2846C19.3076 59.2573 19.448 59.2495 19.5806 59.2495C20.1577 59.2495 20.3293 59.4796 20.3293 59.8462C20.3293 60.0412 20.2708 60.1894 20.1811 60.2752C20.1148 60.3415 19.9433 60.4077 19.7444 60.4077H19.2179V59.2846ZM19.5806 62.5019C19.448 62.5019 19.2998 62.4785 19.2179 62.4629V61.3242H19.7444C19.9745 61.3242 20.1148 61.3827 20.2123 61.4724C20.3098 61.5621 20.3683 61.722 20.3683 61.8975C20.3683 62.3342 20.146 62.498 19.5806 62.498V62.5019ZM54.39 59.5381C54.2847 59.5069 54.1092 59.4796 53.9688 59.4796C52.717 59.4796 52.0813 60.2713 52.0813 61.5075C52.0813 62.8685 52.8067 63.5978 54.1482 63.6095H55.829V58.1693H54.39V59.542V59.5381ZM54.39 62.4629C54.3393 62.4863 54.2418 62.4941 54.1482 62.4941C53.7387 62.4941 53.5203 62.1743 53.5203 61.4958C53.5203 60.9186 53.7348 60.5364 54.1326 60.5364C54.234 60.5364 54.3471 60.5598 54.39 60.5832V62.4629ZM49.6985 59.5186H47.9592V63.6056H49.3983V60.6963C49.4685 60.6651 49.605 60.6417 49.7141 60.6417C49.9793 60.6417 50.1353 60.7938 50.1353 61.0512V63.6056H51.5704V60.8835C51.5704 60.0022 51.0206 59.5186 49.6985 59.5186ZM56.5232 63.6056H57.9583V59.5147H56.5232V63.6056ZM56.5232 58.996H57.9583V58.1459H56.5232V58.996ZM38.6466 59.5186C37.426 59.5186 36.7162 60.4077 36.7162 61.6089C36.7162 62.81 37.426 63.7031 38.6466 63.7031C39.8672 63.7031 40.577 62.8061 40.577 61.6089C40.577 60.4116 39.8672 59.5186 38.6466 59.5186ZM38.6466 62.5565C38.3307 62.5565 38.1513 62.2601 38.1513 61.5933C38.1513 60.9264 38.3307 60.63 38.6466 60.63C38.9625 60.63 39.1419 60.9264 39.1419 61.5933C39.1419 62.2601 38.9625 62.5565 38.6466 62.5565ZM41.3491 59.9866H40.9241V61.0512H41.3491V63.6056H42.7569V61.0512H43.4082V59.9866H42.7569V59.6395C42.7569 59.3509 42.9792 59.2456 43.2756 59.2456C43.3419 59.2456 43.4082 59.2534 43.4823 59.2612V58.1654C43.3575 58.142 43.1508 58.1264 42.9948 58.1264C42.016 58.1264 41.3491 58.5866 41.3491 59.6356V59.9866ZM45.9314 63.6056H47.4133V58.181H45.9314V63.6056ZM23.9288 59.5186H22.6848V60.5325H24.077C24.2993 60.5442 24.4319 60.669 24.4553 60.8757V60.8835C23.2581 60.9576 22.2207 61.2228 22.2207 62.2523C22.2207 63.1337 22.8642 63.6056 24.1784 63.6056H25.8007V60.8835C25.8007 60.0022 25.2548 59.5186 23.9288 59.5186ZM24.4553 62.5916C24.3968 62.615 24.2603 62.6228 24.1355 62.6228C23.7962 62.6228 23.5506 62.4863 23.5506 62.2133C23.5506 61.8624 23.8742 61.7844 24.4553 61.761V62.5916ZM58.9488 59.5186V60.5325H60.3449C60.5633 60.5442 60.6998 60.669 60.7232 60.8757V60.8835C59.5221 60.9576 58.4886 61.2228 58.4886 62.2523C58.4886 63.1337 59.1321 63.6056 60.4502 63.6056H62.0725V60.8835C62.0725 60.0022 61.5266 59.5186 60.2006 59.5186H58.9488ZM60.7193 62.5916C60.6569 62.615 60.5243 62.6228 60.3995 62.6228C60.0564 62.6228 59.8146 62.4863 59.8146 62.2133C59.8146 61.8624 60.1421 61.7844 60.7193 61.761V62.5916ZM26.452 69.3304C25.7578 69.4279 25.6213 69.0107 25.633 68.3828C25.6447 67.8173 25.8358 67.4312 26.4403 67.5287L26.4637 67.8095V68.4452L26.452 69.3304ZM26.4676 66.4836C25.6057 66.4017 25.0247 66.5499 24.6191 67.0491C24.2603 67.4936 24.1043 68.3594 24.2837 69.112C24.662 70.6876 26.1985 70.516 27.852 70.477L27.8754 65.1577H26.4754L26.4676 66.4875V66.4836ZM33.0387 70.4497L34.4465 70.4887L34.4543 68.3204C34.4543 68.18 34.4153 67.6964 34.5401 67.6067C34.7702 67.5326 34.9613 67.5404 35.1212 67.7471C35.324 68.2307 35.0627 69.8413 35.2148 70.4926L36.5758 70.5004C36.646 70.0324 36.5953 69.1432 36.5953 68.6363C36.5953 68.0357 36.6733 67.4195 36.3535 67.0062C35.7802 66.2652 33.3936 66.4095 33.0426 66.507V70.4497H33.0387ZM19.9823 70.4731H21.3667L21.3745 67.9304C21.3862 67.5053 21.5071 67.5443 21.9516 67.6379C22.1661 67.7237 22.1115 68.0045 22.1349 68.2658L22.1427 70.4809H23.4843C23.5467 69.9466 23.5077 69.1978 23.5077 68.6441C23.5077 66.5889 23.3595 66.4407 20.0057 66.5031L19.9862 70.477L19.9823 70.4731ZM30.3479 67.6106C31.0693 67.3337 31.1317 69.1822 30.6247 69.385C29.8175 69.7126 29.7902 67.8212 30.3479 67.6106ZM30.0632 66.507C32.8593 66.0234 33.0777 70.1299 30.9016 70.5394C28.1055 71.0697 27.7818 66.9009 30.0632 66.507ZM49.176 68.7182V69.4396C48.045 69.7672 48.0528 68.453 49.176 68.7182ZM47.4523 67.4507C48.3999 67.4702 49.02 67.2947 49.1565 67.751C48.7431 67.9733 48.0567 67.8407 47.4991 68.2073C47.0779 68.4842 46.8283 69.0496 47.0896 69.6697C47.2924 70.1494 47.7877 70.3717 48.3999 70.4497C48.7938 70.5004 50.1353 70.5199 50.5019 70.4497C50.7437 66.4095 50.4785 66.4212 47.464 66.4641L47.4523 67.4468V67.4507ZM38.5881 68.2619C38.5881 68.0123 38.5179 67.6379 38.7285 67.4975C39.329 67.0881 40.2065 68.2775 38.5881 68.2619ZM40.7798 70.4458L40.7876 69.502C39.8672 69.463 38.904 69.6307 38.6427 69.2134C38.8182 69.1003 39.1458 69.1198 39.446 69.0535C40.2494 68.8781 41.0332 68.4491 40.7369 67.3922C40.4717 66.4485 38.787 66.2223 37.8744 66.7098C37.3675 66.9828 37.2817 67.3727 37.2817 68.0708C37.2817 68.6558 37.1842 69.4123 37.4533 69.8569C37.6833 70.2352 38.1747 70.4263 38.7909 70.4614C39.1575 70.4848 40.4912 70.516 40.7837 70.4497L40.7798 70.4458ZM42.8739 69.3577C42.9441 69.0457 42.7101 69.0223 42.3514 68.8898C40.9241 68.3711 40.577 66.0429 44.3091 66.4875L44.2974 67.478C43.845 67.5287 42.9168 67.3415 42.7725 67.6223C42.6595 67.9382 42.9714 67.907 43.3224 68.0435C44.0127 68.3126 44.5781 68.8664 44.2311 69.7087C43.8489 70.6408 42.5815 70.5121 41.3842 70.4653L41.4037 69.4201C41.8795 69.3967 42.4645 69.4747 42.8739 69.3577ZM17.8218 70.4692H19.2647L19.2725 65.1772L17.8296 65.1538L17.8218 70.4692ZM44.9018 70.4614L46.3096 70.4731V66.468L44.933 66.4563L44.9018 70.4614ZM44.9018 65.9376L46.2979 65.9454L46.3096 65.1343L44.9174 65.1148L44.9018 65.9376Z" fill="white"/>
<path fill-rule="evenodd" clip-rule="evenodd" d="M76.646 65.0719L65.672 74.7745L71.8142 61.5075L59.2998 54.2773L73.6003 55.8138L76.6499 33.0001L79.6956 55.8099L94 54.2734L81.4817 61.5036L87.6239 74.7706L76.6499 65.068L76.646 65.0719Z" fill="#191917"/>
<path fill-rule="evenodd" clip-rule="evenodd" d="M76.646 64.7911L66.2843 73.9556L72.0833 61.4217L60.2591 54.5932L73.7797 56.04L76.646 34.5834L79.5123 56.04L93.0368 54.5893L81.2126 61.4217L87.0116 73.9556L76.646 64.7911Z" fill="#E3300C"/>
<path fill-rule="evenodd" clip-rule="evenodd" d="M79.5162 56.04H73.7836L72.095 61.4295L76.6499 64.795L81.2165 61.4256L79.5201 56.0439L79.5162 56.04Z" fill="#0073BD"/>
<path d="M76.646 63.6446C78.6878 63.6446 80.343 61.9894 80.343 59.9476C80.343 57.9058 78.6878 56.2506 76.646 56.2506C74.6042 56.2506 72.949 57.9058 72.949 59.9476C72.949 61.9894 74.6042 63.6446 76.646 63.6446Z" fill="#191917"/>
<path fill-rule="evenodd" clip-rule="evenodd" d="M76.646 63.4301C74.7234 63.4301 73.1596 61.8663 73.1596 59.9437C73.1596 58.0211 74.7234 56.4573 76.646 56.4573C78.5686 56.4573 80.1324 58.025 80.1324 59.9437C80.1324 61.8624 78.5686 63.4301 76.646 63.4301Z" fill="white"/>
<path fill-rule="evenodd" clip-rule="evenodd" d="M76.5173 57.5492C76.5173 57.5492 76.5095 57.557 76.5095 57.5648C76.5095 57.5765 76.5134 57.5843 76.5251 57.5882C76.49 57.5882 76.4744 57.5687 76.4744 57.5687C76.4744 57.5687 76.4861 57.5531 76.5212 57.5492H76.5173ZM76.5524 57.5492C76.5524 57.5492 76.5719 57.5531 76.5836 57.5609C76.5836 57.5609 76.5719 57.5804 76.5446 57.5843C76.5485 57.5804 76.5602 57.5726 76.5602 57.5609C76.5602 57.557 76.5563 57.5492 76.5524 57.5453V57.5492ZM76.4744 57.596C76.4744 57.596 76.5095 57.6077 76.5329 57.6077C76.5992 57.6077 76.6187 57.5609 76.6265 57.557C76.6265 57.5102 76.5953 57.4673 76.5524 57.4634C76.5329 57.4595 76.5056 57.4673 76.4939 57.4751C76.4744 57.4829 76.4627 57.5024 76.4549 57.518C76.4783 57.5141 76.5017 57.4829 76.5563 57.4946C76.5836 57.4985 76.6148 57.5375 76.5953 57.5414C76.5797 57.5297 76.5758 57.5258 76.5641 57.5219C76.5173 57.5024 76.4744 57.5375 76.451 57.557C76.4471 57.557 76.4393 57.5531 76.4354 57.5531C76.4432 57.5726 76.451 57.5804 76.4705 57.596H76.4744ZM76.7591 57.5492C76.7591 57.5492 76.7552 57.557 76.7552 57.5648C76.7552 57.5765 76.7591 57.5843 76.7708 57.5882C76.7396 57.5843 76.7201 57.5687 76.7201 57.5687C76.7201 57.5687 76.7357 57.5531 76.763 57.5492H76.7591ZM76.7981 57.5492H76.802C76.802 57.5492 76.8215 57.5531 76.8215 57.557C76.8254 57.5609 76.8254 57.5609 76.8293 57.5609C76.8293 57.5609 76.8176 57.5804 76.7903 57.5882C76.7942 57.5843 76.802 57.5765 76.802 57.5648C76.802 57.5609 76.802 57.5531 76.7981 57.5492ZM76.6226 57.7325C76.6109 57.6935 76.6538 57.7169 76.6694 57.713C76.6811 57.713 76.6928 57.6974 76.6928 57.6818C76.6928 57.6623 76.6772 57.6545 76.6772 57.6389C76.6772 57.6038 76.6772 57.518 76.6928 57.4985C76.7162 57.4712 76.7942 57.4478 76.8293 57.479C76.8371 57.4868 76.8449 57.4985 76.8527 57.5141C76.8215 57.4751 76.7045 57.4829 76.7162 57.5453C76.7162 57.5453 76.7435 57.5258 76.7747 57.5258C76.8098 57.5219 76.8293 57.5258 76.8566 57.5492C76.8644 57.557 76.8683 57.5453 76.8761 57.5453C76.8761 57.5453 76.8761 57.557 76.8722 57.5609L76.8683 57.5648C76.8605 57.5726 76.8488 57.5726 76.8449 57.5804C76.7981 57.6272 76.724 57.5882 76.724 57.5843C76.7162 57.5999 76.7123 57.6116 76.7123 57.6311C76.7123 57.6662 76.7591 57.7208 76.7162 57.7403C76.6928 57.752 76.6694 57.7364 76.6421 57.7364C76.6343 57.7364 76.6265 57.7403 76.6226 57.7364V57.7325ZM78.2488 62.186C78.2059 62.1665 78.202 62.1275 78.1747 62.1041C78.1708 62.1041 78.1552 62.0885 78.1474 62.0847C78.1396 62.0808 78.1279 62.0729 78.1201 62.069C78.085 62.0535 78.046 62.0457 78.0109 62.0379C77.9953 62.034 77.9836 62.034 77.9719 62.034C77.9563 62.0301 77.9407 62.0184 77.9251 62.0106C77.8705 61.9989 77.8081 62.0067 77.7535 61.9989C77.6638 61.995 77.5858 61.9794 77.5039 61.9716C77.465 61.9677 77.422 61.9599 77.387 61.9482C77.3753 61.9443 77.3636 61.9365 77.3519 61.9326C77.3168 61.9248 77.2934 61.9287 77.27 61.9365C77.2583 61.9404 77.2466 61.9521 77.2388 61.9521C77.2232 61.9521 77.2115 61.9248 77.1881 61.9326C77.1764 61.9443 77.1686 61.9638 77.1764 61.9755C77.1803 61.9794 77.2037 62.0028 77.2076 62.0028C77.2349 62.0145 77.2505 61.9989 77.27 61.995C77.3363 61.9755 77.4104 62.0106 77.4688 62.0184C77.6209 62.0418 77.8198 62.034 77.9524 62.0768C77.9797 62.0807 78.0031 62.0886 78.0265 62.0963C78.0889 62.1197 78.1318 62.1587 78.1825 62.186C78.2137 62.225 78.241 62.2523 78.2956 62.264C78.3229 62.2718 78.3619 62.2718 78.3619 62.2367C78.3619 62.1938 78.2878 62.2016 78.2527 62.186H78.2488ZM79.177 61.9989C79.177 61.9989 79.2082 62.034 79.2082 62.0535C79.2082 62.0574 79.1965 62.069 79.1887 62.069C79.1614 62.069 79.1653 62.0067 79.1263 62.0106C79.1224 62.0106 79.1146 62.0106 79.1107 62.0223C79.099 62.0574 79.1731 62.0691 79.1536 62.1236C79.1458 62.147 79.1185 62.1509 79.0873 62.1509C79.0873 62.1392 79.099 62.1353 79.099 62.1236C79.099 62.0885 79.0483 62.0535 79.021 62.0847C79.021 62.1119 79.0561 62.1275 79.0444 62.1587C79.0288 62.1782 78.9859 62.1782 78.9703 62.1587C78.9742 62.1587 78.9898 62.1626 78.9976 62.1587C79.0054 62.1587 79.0093 62.1509 79.0093 62.1431C79.0132 62.1275 78.9976 62.1236 78.982 62.1158C78.9703 62.1041 78.9586 62.0963 78.9508 62.0885C78.9547 62.0262 78.9001 62.0145 78.8377 62.0106C78.7363 62.0028 78.6193 61.9911 78.5257 61.9833C78.5296 61.9365 78.4867 61.9287 78.4477 61.9209C78.3931 61.9092 78.3424 61.9053 78.2878 61.8936C78.2644 61.8897 78.2254 61.878 78.2254 61.8585C78.2254 61.8351 78.2566 61.8234 78.2722 61.8117C78.3268 61.7727 78.3775 61.7337 78.4243 61.6947C78.5335 61.7142 78.6037 61.7571 78.6895 61.8078C78.7129 61.8195 78.7363 61.8273 78.7558 61.839C78.7792 61.8546 78.8026 61.8624 78.826 61.8702C78.9352 61.9014 79.0912 61.8702 79.1692 61.9248C79.1964 61.9443 79.2237 61.9677 79.2237 62.0067C79.2042 62.0067 79.2043 61.9599 79.1809 61.956C79.1692 61.956 79.1575 61.9677 79.1575 61.9755C79.1575 61.9872 79.1731 61.995 79.1848 62.0028L79.177 61.9989ZM78.8884 62.108C78.8884 62.108 78.904 62.1158 78.9079 62.1158C78.9079 62.108 78.9079 62.0924 78.904 62.0885C78.8767 62.0456 78.7558 62.0418 78.6856 62.0457C78.6466 62.0457 78.6037 62.0418 78.5764 62.0574C78.6115 62.0652 78.6544 62.069 78.6934 62.0768C78.7363 62.0807 78.7753 62.0924 78.8143 62.0963C78.8416 62.0963 78.865 62.0963 78.8884 62.108ZM78.5452 62.1158C78.5569 62.1509 78.5881 62.1587 78.5803 62.2094C78.5686 62.225 78.5569 62.2406 78.5413 62.2523C78.5452 62.2328 78.5413 62.2094 78.5257 62.1977C78.5179 62.1977 78.5218 62.2133 78.514 62.2133C78.4984 62.2094 78.5023 62.1899 78.4789 62.1899C78.475 62.2133 78.4945 62.2211 78.4984 62.2406C78.5023 62.2913 78.4672 62.3147 78.4243 62.3108C78.4282 62.2874 78.4594 62.2952 78.4672 62.2796C78.4711 62.2562 78.4477 62.2406 78.436 62.2289C78.4243 62.2289 78.436 62.2406 78.4204 62.2445C78.4048 62.2406 78.3931 62.2094 78.3697 62.2211C78.3814 62.2367 78.397 62.2601 78.3814 62.2796C78.3619 62.2913 78.3385 62.2952 78.3112 62.2952C78.2722 62.2952 78.2332 62.2835 78.2137 62.2601C78.202 62.2445 78.1942 62.225 78.1825 62.2133C78.1669 62.1977 78.1435 62.1977 78.1279 62.1821C78.1162 62.1782 78.1123 62.1626 78.1045 62.1548C78.0889 62.1431 78.0655 62.1353 78.0421 62.1236C77.9875 62.0963 77.9017 62.0768 77.8354 62.069C77.7145 62.0574 77.5819 62.0612 77.465 62.0379C77.4221 62.0301 77.3792 62.0184 77.3402 62.0145C77.2973 62.0106 77.2544 62.0262 77.2154 62.0184C77.1803 62.0145 77.1608 61.9872 77.1491 61.956C77.1374 61.8702 77.1218 61.7844 77.0828 61.722C77.0711 61.6947 77.0672 61.6596 77.075 61.6089C77.075 61.5816 77.0906 61.5465 77.0945 61.5114C77.0984 61.4763 77.0984 61.4373 77.1062 61.4022C77.114 61.3398 77.1374 61.2852 77.1647 61.254C77.1803 61.2579 77.192 61.2813 77.2037 61.293C77.2349 61.3125 77.27 61.3203 77.2973 61.3476C77.309 61.3554 77.3207 61.371 77.3285 61.3827C77.3636 61.4451 77.3519 61.5387 77.3792 61.6128C77.3831 61.6245 77.3948 61.6323 77.3909 61.644C77.3519 61.6479 77.3012 61.6479 77.2778 61.6752C77.2973 61.7064 77.3402 61.6791 77.3792 61.6791C77.4182 61.6791 77.4611 61.6908 77.4883 61.7103C77.5078 61.7259 77.5273 61.7571 77.5546 61.7649C77.5936 61.7805 77.656 61.7844 77.7067 61.7883C77.7652 61.7922 77.8237 61.8 77.8705 61.8078C77.9485 61.8234 78.0187 61.8546 78.0889 61.8819C78.1006 61.8858 78.1123 61.8936 78.124 61.8975C78.1357 61.9014 78.1435 61.9131 78.1513 61.917C78.1747 61.9326 78.2059 61.9326 78.2371 61.9365C78.2683 61.9404 78.2917 61.9521 78.319 61.9599C78.3424 61.9716 78.3736 61.9794 78.4009 61.995C78.4126 61.9989 78.4204 62.0106 78.4321 62.0145C78.4516 62.0184 78.4711 62.0145 78.4867 62.0184C78.5023 62.0223 78.5257 62.034 78.5413 62.0457C78.5764 62.0652 78.6037 62.0924 78.6037 62.1392C78.5881 62.1275 78.5842 62.0885 78.553 62.108L78.5452 62.1158ZM77.3246 62.2406C77.2856 62.2172 77.2466 62.186 77.1998 62.1743C77.1842 62.1704 77.1686 62.1665 77.153 62.1704C77.1491 62.1899 77.1764 62.186 77.1959 62.1899C77.2349 62.1938 77.2622 62.2133 77.2895 62.2289C77.3012 62.2406 77.3246 62.2523 77.3168 62.2679C77.3012 62.2952 77.2505 62.2484 77.2505 62.2367C77.2349 62.2328 77.231 62.2172 77.2154 62.2133C77.2037 62.2094 77.1881 62.2133 77.1764 62.2094C77.1608 62.2094 77.1491 62.2016 77.1374 62.1977C77.1335 62.2406 77.1998 62.2211 77.2193 62.2406C77.2232 62.2445 77.2154 62.2523 77.2154 62.2601C77.2232 62.2679 77.231 62.2718 77.2349 62.2757C77.2349 62.2757 77.231 62.2679 77.2349 62.2601C77.2817 62.2484 77.2856 62.303 77.2466 62.3147C77.2076 62.3264 77.1803 62.2952 77.153 62.2874C77.1062 62.2796 77.0672 62.2913 77.0321 62.2835C76.997 62.2757 76.9853 62.2523 76.9619 62.2328C76.9346 62.2055 76.9034 62.2055 76.8683 62.1938C76.8878 62.1587 76.8956 62.1197 76.9268 62.0924C76.9424 62.0768 77.0165 62.0418 77.0516 62.0651C77.0711 62.0729 77.1023 62.0807 77.1179 62.0885C77.1296 62.0924 77.1413 62.1041 77.1491 62.1119C77.1608 62.1236 77.1686 62.1392 77.1803 62.1431C77.2076 62.1509 77.2505 62.1587 77.2817 62.1704C77.2895 62.1704 77.3051 62.1743 77.3051 62.186C77.3051 62.1899 77.3051 62.2016 77.2934 62.2016C77.2856 62.2016 77.2817 62.1899 77.2739 62.186C77.2505 62.1704 77.2037 62.1704 77.1764 62.1587C77.1803 62.1626 77.192 62.1665 77.1959 62.1704C77.2427 62.1821 77.2817 62.2016 77.3168 62.2211C77.3285 62.225 77.348 62.2406 77.3324 62.2484L77.3246 62.2406ZM76.8098 61.9092C76.8137 61.6947 76.8215 61.4724 76.8293 61.254C76.8293 61.254 76.8293 61.254 76.8332 61.2501V61.254C76.841 61.2618 76.841 61.2774 76.841 61.2891C76.8527 61.3749 76.8644 61.4724 76.8761 61.5621C76.8917 61.6635 76.919 61.761 76.9229 61.8663C76.8995 61.878 76.8722 61.8858 76.8488 61.8936C76.8332 61.8975 76.8254 61.9131 76.8059 61.9131L76.8098 61.9092ZM77.0087 61.8C76.997 61.7181 76.9658 61.6401 76.9541 61.5504C76.9385 61.4685 76.9268 61.3749 76.919 61.2774C76.9112 61.1448 76.8995 60.9927 76.8956 60.8484C76.8956 60.8094 76.9034 60.7236 76.8761 60.7119C76.8566 60.708 76.8449 60.7119 76.8332 60.7158C76.8254 60.8991 76.841 61.098 76.8605 61.2852C76.88 61.4685 76.9151 61.6518 76.9502 61.8117C76.9697 61.8117 76.9892 61.8117 77.0048 61.8H77.0087ZM76.958 61.2228C76.9736 61.3359 76.9775 61.449 77.0087 61.5426C77.0165 61.4568 77.0243 61.3749 77.0321 61.2969C77.0633 60.9966 77.1101 60.7665 77.0984 60.4389C77.0984 60.4584 77.0789 60.4857 77.075 60.5091C77.0633 60.5247 77.0516 60.5325 77.036 60.5481C77.0204 60.5598 77.0048 60.5676 76.9931 60.5793C76.9697 60.6066 76.9658 60.6417 76.9619 60.6807C76.9619 60.7002 76.9619 60.7236 76.958 60.7431C76.9502 60.8991 76.9463 61.0746 76.9619 61.2267L76.958 61.2228ZM76.7279 60.669C76.7045 60.6963 76.6772 60.7275 76.6538 60.7548C76.6421 60.7704 76.6304 60.786 76.6148 60.7977C76.6967 60.5676 76.7981 60.3492 76.8683 60.1075C76.9034 59.9866 76.9385 59.8657 76.9697 59.737C77.0048 59.6044 77.0204 59.4679 77.0243 59.3119C77.0243 59.3119 77.0243 59.308 77.0282 59.308C77.0555 59.3236 77.0633 59.3509 77.0672 59.3782C77.0984 59.4601 77.114 59.5537 77.1335 59.6473C77.1452 59.7097 77.153 59.776 77.1569 59.8423C77.1569 59.8735 77.1647 59.9086 77.1647 59.9437C77.1647 59.9788 77.1686 60.0217 77.1647 60.049C77.1608 60.088 77.1296 60.127 77.1101 60.1621C77.0906 60.2011 77.0672 60.2323 77.0477 60.2635C77.0087 60.3298 76.958 60.3921 76.9112 60.4506C76.8488 60.5247 76.7903 60.6027 76.7279 60.6729V60.669ZM76.7786 60.8796C76.7825 61.059 76.7669 61.2306 76.763 61.4061C76.7591 61.6128 76.7396 61.8156 76.7318 62.0067C76.6928 62.0028 76.6538 61.9833 76.6109 61.9755C76.5641 61.9677 76.5173 61.9677 76.4744 61.9638C76.5407 61.7376 76.6226 61.5075 76.6694 61.2579C76.7006 61.1097 76.7318 60.9615 76.763 60.8094C76.763 60.8094 76.763 60.8055 76.7669 60.8055C76.7786 60.8016 76.7747 60.8601 76.7747 60.8757L76.7786 60.8796ZM76.4549 62.1236C76.4705 62.0846 76.4861 62.0535 76.5017 62.0106H76.5056C76.4939 62.0496 76.4783 62.0925 76.4627 62.1275C76.4588 62.1275 76.4588 62.1236 76.451 62.1275L76.4549 62.1236ZM76.6499 62.225C76.6343 62.264 76.6382 62.303 76.5992 62.3264C76.5914 62.3303 76.5797 62.3264 76.5758 62.3303C76.5407 62.3537 76.5446 62.4434 76.4822 62.4044C76.4666 62.3693 76.5095 62.3615 76.5251 62.381C76.5251 62.3615 76.5017 62.3576 76.4822 62.3576C76.4861 62.3186 76.5134 62.303 76.5368 62.2835C76.5368 62.2718 76.5368 62.2679 76.5368 62.264C76.5173 62.2484 76.5017 62.2679 76.5056 62.2913C76.5017 62.303 76.4783 62.3186 76.4666 62.3342C76.4549 62.3537 76.4549 62.3771 76.4315 62.3537C76.4276 62.2991 76.4744 62.2991 76.4822 62.2601C76.4822 62.2562 76.4783 62.2562 76.4783 62.2484C76.4432 62.2445 76.4549 62.2913 76.4276 62.2952C76.4159 62.3186 76.412 62.3459 76.3964 62.3654C76.3925 62.3693 76.3847 62.3654 76.3769 62.3615C76.3808 62.3576 76.373 62.3498 76.3769 62.3459C76.3769 62.342 76.3847 62.342 76.3886 62.3342C76.3691 62.2991 76.4003 62.264 76.4198 62.2484C76.4003 62.2133 76.373 62.2796 76.3652 62.2952C76.3613 62.3108 76.3652 62.3264 76.3535 62.3264C76.3379 62.3264 76.3535 62.2718 76.3574 62.2601C76.3652 62.2406 76.3808 62.2367 76.3847 62.2211C76.373 62.2211 76.3574 62.2328 76.3496 62.2445C76.3457 62.2484 76.3418 62.264 76.334 62.264C76.3145 62.264 76.334 62.2367 76.334 62.2328C76.3496 62.2133 76.3574 62.2055 76.3847 62.2016C76.3964 62.1938 76.4003 62.1782 76.412 62.1704C76.4354 62.1548 76.5017 62.1626 76.5329 62.1665C76.5563 62.1665 76.5797 62.1704 76.5992 62.1782C76.6226 62.1782 76.646 62.1782 76.6577 62.1938C76.6577 62.2094 76.646 62.2133 76.6421 62.2211L76.6499 62.225ZM76.4159 62.3849C76.4003 62.42 76.4627 62.4161 76.451 62.381C76.4471 62.3732 76.4237 62.3732 76.4276 62.3888C76.4237 62.3888 76.4198 62.3849 76.4159 62.3849ZM76.2365 62.225C76.2716 62.225 76.3106 62.2289 76.3301 62.2211C76.3418 62.2055 76.3574 62.2016 76.373 62.186C76.3574 62.1743 76.3418 62.1665 76.3301 62.1548C76.3223 62.1509 76.3145 62.1431 76.3067 62.1392C76.2911 62.1236 76.2833 62.1119 76.2716 62.1003C76.2521 62.0847 76.2287 62.073 76.2131 62.0574C76.2053 62.0418 76.2014 62.0301 76.1897 62.0184C76.1117 62.0106 76.022 61.9911 75.9362 61.995C75.9557 62.0768 75.9752 62.1509 75.9947 62.2289C76.0688 62.2211 76.1468 62.2172 76.2287 62.2172L76.2365 62.225ZM76.022 62.3186C76.022 62.3186 76.0181 62.3069 76.0181 62.303C76.0259 62.2991 76.0376 62.2952 76.0454 62.2913C76.1156 62.2757 76.2053 62.2679 76.2872 62.264C76.2911 62.264 76.3106 62.2601 76.3106 62.2679C76.2209 62.2913 76.1156 62.2991 76.022 62.3147V62.3186ZM75.9011 62.3537C75.8543 62.3693 75.788 62.381 75.7295 62.3849C75.6984 62.3849 75.675 62.3849 75.6438 62.3849C75.597 62.381 75.5619 62.3771 75.5307 62.3615C75.5112 62.3498 75.4995 62.342 75.4839 62.3303C75.4644 62.3108 75.4488 62.2874 75.4566 62.2445L75.4605 62.2406C75.4605 62.2328 75.4605 62.225 75.4605 62.2211C75.4644 62.2133 75.4761 62.2016 75.4761 62.1899C75.4722 62.1743 75.4644 62.1587 75.4527 62.147C75.4254 62.147 75.4098 62.1548 75.3942 62.1743C75.3903 62.1782 75.3903 62.1782 75.3903 62.186C75.3903 62.186 75.3747 62.2016 75.3708 62.2016C75.3669 62.2055 75.3474 62.2094 75.3396 62.2094C75.3201 62.2094 75.2967 62.2055 75.285 62.1977C75.2421 62.1782 75.2187 62.1431 75.1953 62.108C75.1914 62.0807 75.1797 62.0651 75.1836 62.034C75.1836 62.0145 75.1875 61.9872 75.1992 61.9716C75.2031 61.9599 75.2304 61.9326 75.2187 61.9053C75.2148 61.8936 75.1992 61.8936 75.1914 61.8858C75.1836 61.878 75.1875 61.8663 75.1758 61.8585C75.1602 61.8546 75.1485 61.8585 75.1407 61.8702C75.1251 61.8936 75.1173 61.9404 75.1095 61.9599C75.1095 62.0028 75.1095 62.0534 75.1173 62.0924C75.1212 62.1197 75.1407 62.1314 75.1446 62.1587C75.1641 62.1821 75.1836 62.2094 75.207 62.2289C75.207 62.2289 75.2109 62.2289 75.2109 62.2328C75.2265 62.2562 75.2772 62.2757 75.2889 62.2991C75.3123 62.3108 75.3318 62.3186 75.3552 62.3303C75.3747 62.3576 75.4215 62.3537 75.4449 62.3771C75.4683 62.381 75.4956 62.3966 75.5151 62.4083C75.6048 62.4395 75.6789 62.4824 75.7607 62.5097C75.7958 62.5292 75.827 62.5487 75.8582 62.5643C75.8738 62.5838 75.8933 62.5994 75.905 62.615C75.8855 62.6111 75.8738 62.5838 75.8504 62.5955C75.8543 62.615 75.8699 62.6306 75.8855 62.6384C75.8855 62.6423 75.8855 62.6423 75.8855 62.6501C75.8933 62.6462 75.8972 62.6618 75.905 62.6657C75.8894 62.6696 75.8777 62.6423 75.8621 62.6384C75.8582 62.6267 75.8465 62.615 75.8348 62.615C75.8309 62.6228 75.8426 62.6267 75.8387 62.6384C75.8348 62.6345 75.827 62.6267 75.8231 62.6189C75.8075 62.6345 75.8348 62.6462 75.8387 62.6579C75.827 62.654 75.8192 62.6384 75.8036 62.6306C75.7958 62.6345 75.8036 62.6462 75.8036 62.654C75.7958 62.654 75.7958 62.6384 75.788 62.6423C75.7802 62.654 75.788 62.6657 75.7919 62.6774C75.7958 62.6891 75.8036 62.7008 75.8075 62.7125C75.8153 62.7593 75.7919 62.8178 75.8153 62.8607C75.7841 62.8295 75.8036 62.7632 75.7997 62.7242C75.7958 62.7008 75.7802 62.6657 75.7685 62.6462C75.7023 62.5526 75.5853 62.4941 75.4605 62.459C75.4332 62.4434 75.3903 62.4356 75.3552 62.4239C75.2772 62.4005 75.1992 62.3654 75.1212 62.3342C75.0822 62.3069 75.0549 62.2757 75.0237 62.2445C75.0081 62.225 74.9847 62.1977 74.973 62.1704C74.9613 62.1509 74.9535 62.1275 74.9457 62.1003C74.9418 62.0769 74.9379 62.0573 74.9379 62.034C74.934 62.0067 74.9301 61.9794 74.934 61.9482C74.9379 61.8858 74.9691 61.8117 74.9964 61.7649C75.0237 61.722 75.0549 61.6869 75.0822 61.6518C75.1173 61.6167 75.1524 61.5816 75.1836 61.5387C75.2187 61.4841 75.2421 61.4334 75.2889 61.3944C75.3123 61.3749 75.3396 61.3632 75.3708 61.3437C75.4527 61.3008 75.5541 61.2657 75.6594 61.254C75.714 61.449 75.7608 61.6479 75.8114 61.8429C75.8192 61.8702 75.827 61.9014 75.827 61.9287C75.7958 61.917 75.7101 61.8936 75.6789 61.9092C75.6438 61.9287 75.6828 61.9716 75.7178 61.9716C75.7139 61.9755 75.7023 61.9755 75.6984 61.9755C75.6867 61.9833 75.6711 61.995 75.6516 61.9989C75.6477 62.0028 75.6399 62.0028 75.6321 62.0028C75.6126 62.0106 75.6009 62.0262 75.5931 62.0457C75.5814 62.0691 75.6009 62.0963 75.6321 62.0807C75.6516 62.0691 75.675 62.0418 75.6906 62.034C75.7374 62.0145 75.7958 61.9989 75.8504 62.0067C75.8738 62.0846 75.8933 62.1704 75.9128 62.2562C75.866 62.264 75.7997 62.2679 75.7452 62.2562C75.7062 62.2445 75.6867 62.2406 75.6594 62.264C75.6633 62.2718 75.6711 62.2757 75.6711 62.2874C75.6711 62.3225 75.6204 62.3108 75.6126 62.2835C75.6009 62.3264 75.6555 62.3615 75.6945 62.3654C75.6984 62.3654 75.7101 62.3654 75.7178 62.3654C75.788 62.3654 75.8699 62.342 75.9284 62.3264C75.9323 62.3498 75.9011 62.3459 75.8855 62.3537H75.9011ZM75.8504 62.6267C75.866 62.6501 75.8738 62.6774 75.8894 62.6969C75.8777 62.6735 75.8699 62.6423 75.8504 62.6267ZM75.5931 60.591C75.5502 60.4155 75.5112 60.2362 75.4644 60.0568C75.4527 60.0139 75.4449 59.9671 75.4332 59.9242C75.4176 59.8774 75.4059 59.8345 75.3981 59.7916C75.3396 59.5225 75.2694 59.2573 75.207 58.9921V58.9882C75.246 59.0038 75.3006 58.9999 75.3357 59.0116C75.3318 59.0467 75.3396 59.0818 75.3864 59.0779C75.3942 59.0935 75.3981 59.113 75.4059 59.1247C75.4371 59.1325 75.4644 59.1208 75.48 59.1091C75.636 59.1754 75.7802 59.2534 75.9674 59.2846C75.9752 59.4718 75.9518 59.6707 75.9479 59.8735C75.9479 59.9437 75.9362 60.0061 75.9323 60.0763C75.9284 60.205 75.9206 60.3336 75.905 60.4623C75.8894 60.5559 75.8816 60.6495 75.8738 60.7392C75.8699 60.7743 75.8699 60.8055 75.8699 60.8445C75.8699 60.8757 75.8582 60.9147 75.8699 60.9381C75.8738 60.9459 75.8855 60.9537 75.8933 60.9576C75.9362 60.9888 76.0025 61.0083 76.0454 61.0395C76.0454 61.0512 76.0454 61.0629 76.0454 61.0746C75.9362 61.0863 75.8348 61.1058 75.7295 61.1214C75.6867 60.9459 75.636 60.7704 75.597 60.591H75.5931ZM75.1758 58.8868C75.1758 58.8868 75.2031 58.8712 75.207 58.8517C75.207 58.8361 75.1953 58.8283 75.1914 58.8127C75.207 58.8166 75.2148 58.8361 75.2304 58.8517C75.2382 58.8595 75.2655 58.8868 75.2772 58.8868C75.2928 58.8907 75.324 58.879 75.3123 58.8595C75.2967 58.8517 75.2772 58.8556 75.2616 58.8439C75.2382 58.8283 75.2265 58.7971 75.2148 58.7698C75.2226 58.7503 75.2148 58.7308 75.1992 58.723C75.2031 58.6918 75.1953 58.6723 75.1797 58.6606L75.1836 58.6567C75.2109 58.6723 75.2421 58.684 75.2655 58.6996C75.3162 58.7308 75.3513 58.7698 75.363 58.8439C75.3825 58.8556 75.4059 58.8634 75.4215 58.8829C75.4137 58.9297 75.3981 58.9648 75.363 58.9882C75.3396 58.9765 75.3201 58.957 75.3006 58.9453C75.2772 58.9687 75.2031 58.957 75.1836 58.9375C75.1797 58.9336 75.168 58.9024 75.1719 58.8868H75.1758ZM75.1134 58.8556C75.1368 58.8556 75.1914 58.8751 75.1914 58.8439C75.1914 58.8244 75.1095 58.8088 75.0822 58.8166C75.051 58.8322 75.0666 58.879 75.09 58.8829C75.0939 58.8673 75.1017 58.8556 75.1173 58.8517L75.1134 58.8556ZM75.0393 58.7776C75.0393 58.7776 75.0393 58.8166 75.0549 58.8244C75.0861 58.7932 75.1368 58.8127 75.1719 58.8088C75.1836 58.7893 75.1563 58.7815 75.1407 58.7776C75.1134 58.7659 75.0588 58.7503 75.0354 58.7776H75.0393ZM75.0315 58.7074C75.0315 58.7074 75.0198 58.7542 75.0393 58.762C75.051 58.762 75.0627 58.7503 75.0783 58.7503C75.1095 58.7425 75.1407 58.762 75.168 58.7698C75.1875 58.7698 75.1992 58.7698 75.1992 58.7581C75.1992 58.7425 75.1758 58.7386 75.1602 58.7269C75.1329 58.7113 75.1173 58.6918 75.0744 58.6957C75.0627 58.6957 75.0393 58.6957 75.0315 58.7074ZM75.1797 58.7113C75.1992 58.6411 75.0081 58.5982 75.0276 58.6957C75.0588 58.6879 75.1017 58.6762 75.1368 58.6918C75.1524 58.6996 75.1641 58.7191 75.1797 58.7152V58.7113ZM75.051 58.5671C75.051 58.5671 75.0705 58.5788 75.0744 58.5865C75.09 58.6021 75.1134 58.6177 75.129 58.6333C75.1056 58.6216 75.0744 58.6333 75.0588 58.6216C75.0432 58.6177 75.0276 58.5671 75.051 58.5671ZM75.4566 58.8712C75.441 58.9219 75.4176 58.9687 75.3864 59.0038C75.3786 59.0155 75.3552 59.0272 75.3552 59.0389C75.3552 59.0584 75.3786 59.0584 75.3942 59.0506C75.4176 59.0389 75.441 58.996 75.4527 58.9726C75.4644 58.9414 75.4839 58.9024 75.4722 58.8673C75.4683 58.8673 75.4566 58.8634 75.4566 58.8712ZM75.5112 58.8985C75.4878 58.9609 75.4644 59.0233 75.4176 59.0623C75.4176 59.0662 75.4176 59.0818 75.4254 59.0818C75.4449 59.0779 75.4449 59.0545 75.4683 59.0467C75.4683 59.0428 75.4683 59.0428 75.4683 59.035C75.4761 59.0272 75.48 59.0233 75.4878 59.0116C75.4839 58.9999 75.4956 58.9843 75.5073 58.9804C75.5034 58.957 75.5151 58.9531 75.5268 58.9414C75.5073 58.9297 75.5268 58.8985 75.5424 58.8946C75.5385 58.8868 75.5268 58.8907 75.5229 58.8946L75.5112 58.8985ZM75.5385 59.0233C75.5307 59.0428 75.5073 59.0545 75.5073 59.0818C75.5814 59.113 75.6633 59.152 75.7413 59.1793C75.7686 59.1832 75.7919 59.1988 75.8192 59.2066C75.8426 59.2105 75.8738 59.2183 75.905 59.2261C75.9245 59.23 75.9713 59.2417 75.9947 59.2417C76.0337 59.2339 76.0376 59.191 76.061 59.1676C76.0805 59.1052 76.1195 59.0662 76.1312 58.9999C76.0961 58.9765 76.0337 58.9531 75.9791 58.9414C75.9674 58.9414 75.944 58.9375 75.9362 58.9414C75.9323 58.9531 75.9284 58.9648 75.9284 58.9804C75.9674 58.9804 76.0103 59.0272 75.9791 59.0545C75.9713 59.0662 75.9635 59.0545 75.9479 59.0545C75.9323 59.0467 75.9206 59.0272 75.905 59.0194C75.8894 59.0116 75.8699 59.0038 75.8504 58.9999C75.7646 58.9726 75.6672 58.957 75.5775 58.9375C75.5619 58.9453 75.5658 58.9609 75.5619 58.9726C75.5619 58.9843 75.5502 58.9921 75.5463 58.9999C75.5424 59.0077 75.5424 59.0155 75.5424 59.0272L75.5385 59.0233ZM75.9518 58.8751C76.0337 58.879 76.1039 58.9024 76.1546 58.9375C76.1546 58.9414 76.1546 58.9492 76.1507 58.9531C76.0883 58.9258 76.022 58.9063 75.9479 58.8907C75.9479 58.879 75.9479 58.8751 75.9518 58.8751ZM75.9947 58.6801C76.0103 58.5944 76.022 58.5125 76.0454 58.4228C76.0649 58.3448 76.0766 58.2785 76.1078 58.22C76.1195 58.2005 76.1312 58.1888 76.1468 58.1732C76.1507 58.1693 76.1507 58.1576 76.1585 58.1537C76.178 58.1381 76.2014 58.1264 76.2209 58.103C76.2248 58.103 76.2326 58.0991 76.2326 58.103C76.256 58.0835 76.2911 58.0796 76.3145 58.0679H76.3184C76.3223 58.1342 76.3262 58.1927 76.3418 58.2512C76.3496 58.2863 76.3613 58.3136 76.3652 58.3448C76.3184 58.376 76.2755 58.4111 76.2326 58.4423C76.2209 58.4267 76.2287 58.4072 76.2092 58.3994C76.2014 58.415 76.1897 58.4267 76.1897 58.4423C76.1897 58.454 76.2053 58.4774 76.2014 58.4891C76.2014 58.5047 76.2053 58.5788 76.2014 58.6099C76.2014 58.6255 76.1858 58.7035 76.1819 58.7386C76.1819 58.7581 76.178 58.7737 76.1819 58.7893C76.1234 58.7698 76.0454 58.7503 75.9869 58.7425C75.9908 58.7191 75.9908 58.6957 76.0025 58.6801H75.9947ZM76.3652 58.3877C76.3652 58.3877 76.3418 58.3955 76.334 58.4072C76.3418 58.4189 76.3457 58.4462 76.334 58.4618C76.3262 58.4774 76.3106 58.4852 76.3106 58.5047C76.3145 58.5047 76.3223 58.5047 76.3301 58.5047C76.3496 58.5008 76.3964 58.454 76.4042 58.4423C76.4198 58.4072 76.3769 58.4072 76.3613 58.3877H76.3652ZM76.4354 58.0133C76.4471 58.0796 76.451 58.142 76.4627 58.2005C76.4666 58.22 76.4783 58.2395 76.4783 58.259C76.4588 58.2746 76.4393 58.2902 76.4159 58.298C76.3847 58.2278 76.373 58.1381 76.373 58.0367C76.3925 58.0328 76.4159 58.0211 76.4354 58.0133ZM76.4198 57.4829C76.4081 57.5336 76.3808 57.5609 76.3769 57.6116C76.373 57.6779 76.3925 57.7364 76.4237 57.7871C76.4432 57.8261 76.4705 57.8612 76.4939 57.8846C76.5251 57.9119 76.5719 57.9392 76.6148 57.9509C76.6733 57.9587 76.724 57.9314 76.7513 57.9041C76.8254 57.8456 76.8878 57.7208 76.8878 57.6077C76.8878 57.5765 76.8722 57.557 76.8605 57.5375C76.8527 57.5141 76.8566 57.4946 76.8488 57.4673C76.8371 57.4127 76.802 57.3698 76.763 57.3425C76.724 57.3113 76.6928 57.284 76.6382 57.2723C76.6343 57.2606 76.6382 57.245 76.6304 57.2294C76.6265 57.245 76.6265 57.2567 76.6265 57.2723C76.5641 57.2996 76.4978 57.323 76.4549 57.3737C76.4471 57.3854 76.4393 57.3971 76.4315 57.4088C76.4237 57.4322 76.4159 57.4556 76.412 57.4829H76.4198ZM76.8371 58.0601C76.841 58.0328 76.8449 58.025 76.8527 58.0055C76.8722 58.0094 76.8878 58.0211 76.9073 58.0289C76.8878 58.0484 76.8566 58.0484 76.8371 58.0601ZM76.7942 57.9431C76.7942 57.9431 76.7981 57.9548 76.7981 57.9626C76.7981 57.9821 76.7825 58.0055 76.7708 58.0094C76.7513 58.025 76.7279 58.0133 76.7084 58.0133C76.6889 58.0172 76.6733 58.025 76.6538 58.025C76.5992 58.025 76.5602 57.9899 76.5329 57.9665C76.5173 57.9509 76.5056 57.9353 76.49 57.9236C76.49 57.9431 76.4783 57.9587 76.4783 57.9782C76.4744 58.0016 76.4783 58.0289 76.4822 58.0523C76.4939 58.1186 76.5095 58.181 76.5329 58.2239C76.6109 58.1732 76.6889 58.1264 76.7786 58.0874C76.7942 58.0562 76.8137 58.025 76.8137 57.986C76.8137 57.947 76.7942 57.908 76.7942 57.8651C76.7903 57.8768 76.7942 57.8846 76.7942 57.9002C76.7942 57.9197 76.7903 57.9314 76.7903 57.9431H76.7942ZM76.9619 58.1459C76.9385 58.1576 76.9151 58.1693 76.8917 58.181H76.8956C76.8605 58.2005 76.8215 58.2161 76.7864 58.2356C76.7045 58.2707 76.6265 58.3175 76.5485 58.3682C76.5173 58.3916 76.4822 58.4111 76.4549 58.4306C76.4393 58.4423 76.4276 58.4579 76.412 58.4696C76.3613 58.5047 76.3262 58.5359 76.2755 58.571C76.2482 58.5944 76.2209 58.6177 76.2092 58.6489C76.2014 58.6723 76.2053 58.7542 76.2053 58.7737C76.2053 58.8517 76.2404 58.8907 76.3067 58.8907C76.3418 58.8907 76.3574 58.8751 76.3808 58.8634C76.3964 58.8478 76.4081 58.8205 76.4315 58.8205C76.4432 58.84 76.4198 58.8634 76.4042 58.879C76.3808 58.9063 76.3574 58.9375 76.3262 58.9531C76.3145 58.9609 76.295 58.9609 76.2794 58.9609C76.2911 59.0233 76.3652 58.9882 76.3925 58.9648C76.4861 58.8712 76.5602 58.7581 76.6343 58.645C76.6733 58.5905 76.7084 58.5359 76.7513 58.4813C76.7708 58.454 76.7903 58.4306 76.8137 58.4033C76.8527 58.3565 76.8917 58.3136 76.9385 58.2746C76.9502 58.2629 76.9619 58.2551 76.9736 58.2434C77.0087 58.2161 77.0399 58.1966 77.0789 58.1693C77.1023 58.1537 77.1335 58.1459 77.153 58.1264C77.1335 58.0991 77.0945 58.1264 77.0711 58.1303C77.0555 58.1303 77.0438 58.1381 77.0321 58.142C77.0126 58.1537 76.9892 58.1654 76.9697 58.181H76.9736C76.9736 58.181 76.9658 58.1888 76.9619 58.1888C76.9346 58.2044 76.9151 58.22 76.8956 58.2395C76.8566 58.2707 76.8176 58.298 76.7825 58.3292C76.7825 58.3292 76.7747 58.3292 76.7669 58.337C76.7045 58.3916 76.6499 58.4462 76.5875 58.5008C76.568 58.5164 76.5524 58.5437 76.5251 58.5437C76.5134 58.5008 76.5485 58.4813 76.5719 58.4579C76.5875 58.4384 76.6031 58.4267 76.6226 58.4111C76.6967 58.3487 76.7747 58.2941 76.8488 58.2395C76.8878 58.2083 76.9268 58.1849 76.9541 58.1498L76.9619 58.1459ZM76.9502 59.1247V59.0935C76.9502 59.0935 76.9502 59.074 76.9502 59.0623C76.9502 59.0584 76.9502 59.0506 76.9502 59.0428C76.9502 59.0389 76.9502 59.0428 76.9502 59.0389C76.9541 59.0389 76.9541 59.0389 76.9541 59.0389C76.9541 59.0584 76.958 59.0818 76.958 59.1013C76.958 59.1169 76.958 59.1286 76.9541 59.1403C76.9502 59.1403 76.9463 59.1286 76.9463 59.1208L76.9502 59.1247ZM76.5407 60.786C76.5602 60.747 76.5797 60.7119 76.5992 60.6768C76.6226 60.6378 76.6382 60.5988 76.6538 60.5637C76.7279 60.4116 76.7864 60.2479 76.8371 60.0763C76.8605 59.9905 76.8839 59.9008 76.9073 59.8072C76.919 59.7643 76.9307 59.7175 76.9385 59.6707C76.9424 59.62 76.9541 59.5732 76.9541 59.5225C76.9385 59.5264 76.9424 59.5498 76.9385 59.5615C76.9268 59.6044 76.9151 59.6473 76.9034 59.6863C76.8566 59.8501 76.8098 60.01 76.7513 60.166C76.6928 60.3142 76.6343 60.4779 76.5641 60.6105C76.5524 60.63 76.5407 60.6534 76.5251 60.6768C76.5134 60.6924 76.49 60.7314 76.4705 60.7236C76.4549 60.7158 76.4627 60.6807 76.4705 60.6612C76.4822 60.6144 76.5056 60.5793 76.529 60.5442C76.5407 60.5247 76.5524 60.5091 76.568 60.4896C76.5797 60.4584 76.5992 60.4272 76.6148 60.396C76.6187 60.3804 76.6304 60.3648 76.6421 60.3492C76.6499 60.3336 76.6616 60.3219 76.6694 60.3064C76.685 60.2713 76.6967 60.2284 76.7084 60.1933C76.7201 60.1582 76.7396 60.1192 76.7513 60.0802C76.8176 59.8891 76.88 59.698 76.9307 59.4952C76.9307 59.4835 76.9424 59.4484 76.9463 59.4328C76.9463 59.4211 76.958 59.3704 76.9424 59.3704C76.9385 59.3704 76.9346 59.3704 76.9307 59.3743C76.8956 59.4055 76.8644 59.4523 76.8371 59.503C76.8059 59.5654 76.7708 59.6278 76.7435 59.6902C76.6928 59.7877 76.6538 59.8813 76.6031 59.9749C76.5368 60.0997 76.4627 60.2128 76.3886 60.3298C76.3535 60.3882 76.3106 60.4428 76.2794 60.5091C76.2365 60.5793 76.2014 60.669 76.1663 60.7509C76.1585 60.7665 76.1507 60.786 76.1429 60.8016C76.1156 60.8562 76.0922 60.8991 76.0922 60.9693C76.0922 61.0668 76.0922 61.1721 76.1039 61.2657C76.1039 61.2969 76.1039 61.3281 76.1156 61.3554C76.1273 61.3554 76.1312 61.3398 76.139 61.3359C76.178 61.2774 76.2248 61.2228 76.2677 61.1721C76.3184 61.1097 76.3691 61.0473 76.4198 60.9888C76.4471 60.9615 76.4744 60.9303 76.49 60.8913C76.5095 60.8562 76.5329 60.8211 76.5524 60.7821L76.5407 60.786ZM76.1546 61.6167C76.1351 61.6596 76.1468 61.7142 76.1507 61.7688C76.1546 61.8078 76.1585 61.8468 76.1663 61.878C76.2092 61.9092 76.2638 61.9404 76.3223 61.9482C76.3418 61.9482 76.3652 61.9599 76.3769 61.9521C76.4003 61.9482 76.4042 61.917 76.4159 61.8936C76.4237 61.8741 76.4315 61.8585 76.4354 61.8429C76.4744 61.7376 76.5134 61.6323 76.5485 61.5348C76.5602 61.4997 76.568 61.4646 76.5797 61.4295C76.5992 61.3554 76.6187 61.2852 76.6382 61.2072C76.6499 61.1409 76.6655 61.0785 76.6772 61.0122C76.685 60.9615 76.6928 60.9147 76.6928 60.8835C76.6928 60.8835 76.6733 60.903 76.6616 60.9147C76.6499 60.9342 76.6421 60.9576 76.6304 60.981C76.6031 61.0473 76.5797 61.1175 76.5602 61.1877C76.5368 61.2618 76.5134 61.3242 76.4861 61.3905C76.4822 61.4022 76.4627 61.449 76.4471 61.4451C76.4198 61.4295 76.4666 61.3593 76.4666 61.3554C76.5017 61.2735 76.5173 61.1955 76.5368 61.1058C76.5368 61.0902 76.5524 61.0707 76.5407 61.0551C76.529 61.0629 76.5212 61.0785 76.5134 61.0902C76.4861 61.1253 76.4588 61.1565 76.4354 61.1916C76.4198 61.215 76.4042 61.2345 76.3847 61.2579C76.3301 61.3281 76.2833 61.3983 76.2404 61.4685C76.2248 61.4919 76.2092 61.5153 76.1936 61.5426C76.178 61.5699 76.1624 61.5933 76.1546 61.6206V61.6167ZM76.0415 61.1838C76.0415 61.1838 76.0103 61.1799 75.9986 61.1838C75.944 61.1916 75.8855 61.1994 75.8309 61.2072C75.7958 61.2072 75.7607 61.2189 75.7374 61.2345C75.7958 61.4685 75.8543 61.7103 75.9128 61.9443C75.9479 61.9443 75.9791 61.9443 76.0064 61.9482C76.0415 61.956 76.0805 61.9521 76.1156 61.956C76.1273 61.956 76.139 61.956 76.1507 61.9599C76.1351 61.9131 76.1234 61.8624 76.1156 61.8078C76.1078 61.7454 76.1 61.6635 76.0844 61.6128C76.0649 61.5972 76.0532 61.566 76.0298 61.5504C76.022 61.5465 76.0064 61.5426 75.9908 61.5348C75.983 61.5348 75.9713 61.5192 75.9596 61.5153C75.9284 61.5075 75.905 61.5153 75.8816 61.5192C75.8699 61.5153 75.8582 61.5114 75.8465 61.5075C75.8348 61.4958 75.8192 61.4724 75.8192 61.4451C75.827 61.4412 75.8309 61.4334 75.8426 61.4295C75.9089 61.41 75.9869 61.4178 76.0532 61.4295C76.0532 61.3437 76.0493 61.2618 76.0415 61.176V61.1838ZM76.4393 59.1871C76.4159 59.1988 76.4198 59.1676 76.412 59.1403C76.4081 59.113 76.3925 59.0779 76.4237 59.0779C76.4354 59.1091 76.4393 59.152 76.4393 59.1871ZM76.4432 59.035C76.4432 59.035 76.4081 59.0623 76.3808 59.0467C76.3847 59.0272 76.4081 59.0233 76.4198 59.0155C76.4354 59.0038 76.4471 58.9921 76.4588 58.9843C76.4939 58.9804 76.5134 58.9648 76.5368 58.9492C76.5407 58.9492 76.5407 58.9492 76.5446 58.9492C76.5212 58.9804 76.4783 59.0077 76.4432 59.0311V59.035ZM76.5251 59.1715C76.5134 59.1442 76.5134 59.1091 76.529 59.0818C76.5446 59.0584 76.5836 59.0311 76.6226 59.0311C76.6811 59.0272 76.7396 59.0467 76.7591 59.0818C76.7786 59.1364 76.7591 59.1988 76.7123 59.2222C76.6499 59.2573 76.5485 59.2261 76.5251 59.1715ZM76.3574 60.088C76.3223 60.0958 76.3145 60.1348 76.2989 60.1621C76.2716 60.2206 76.2482 60.2713 76.2248 60.3375C76.1702 60.4662 76.1195 60.6105 76.0688 60.747C76.0649 60.7587 76.0649 60.7782 76.0493 60.786C76.0415 60.7704 76.0454 60.747 76.0454 60.7275C76.0454 60.6222 76.0454 60.513 76.0493 60.4116C76.0532 60.3726 76.061 60.3375 76.061 60.2986C76.061 60.2674 76.061 60.2362 76.061 60.2128C76.061 60.1894 76.0727 60.166 76.0766 60.1387C76.0805 60.1153 76.0883 60.0919 76.0961 60.0724C76.0961 60.0607 76.1039 60.049 76.1117 60.0373C76.1429 59.9398 76.1975 59.854 76.2482 59.776C76.2989 59.7058 76.3496 59.6395 76.4042 59.581C76.4744 59.4991 76.5485 59.4328 76.6343 59.3704C76.685 59.3353 76.7357 59.2963 76.7747 59.2534C76.7903 59.2378 76.7981 59.2183 76.8176 59.2066C76.8176 59.2261 76.8059 59.2456 76.802 59.2573C76.7747 59.3002 76.7396 59.3392 76.7123 59.3782C76.6538 59.4562 76.5914 59.5342 76.5368 59.6239C76.5095 59.6707 76.4861 59.7136 76.4588 59.7604C76.3808 59.893 76.3106 60.0334 76.2326 60.1699C76.2053 60.2167 76.1819 60.2635 76.1663 60.3142C76.1819 60.3142 76.1858 60.2947 76.1936 60.283C76.3028 60.1036 76.4042 59.9164 76.5173 59.7409C76.5758 59.6473 76.6382 59.5576 76.7084 59.4679C76.763 59.4055 76.8059 59.3392 76.8488 59.2612C76.8644 59.2378 76.88 59.2105 76.8956 59.191C76.9112 59.1754 76.9229 59.2222 76.919 59.2456C76.919 59.2573 76.9034 59.2768 76.8995 59.2924C76.8761 59.3392 76.8605 59.3899 76.8371 59.4328C76.8059 59.4952 76.7708 59.5537 76.7474 59.6083C76.6889 59.7331 76.6187 59.8423 76.5563 59.9554C76.5212 60.0139 76.49 60.0685 76.4588 60.127C76.3691 60.2869 76.2833 60.4428 76.1975 60.6027C76.1897 60.6144 76.1819 60.6378 76.1663 60.6378C76.1702 60.6183 76.178 60.5988 76.1858 60.5832C76.2209 60.5013 76.2599 60.4116 76.3028 60.3298C76.3301 60.2713 76.3496 60.2245 76.3652 60.1582C76.3691 60.1309 76.3847 60.0997 76.3652 60.0841L76.3574 60.088ZM76.8098 58.9531C76.8371 58.9375 76.8605 58.9375 76.8761 58.9258H76.88C76.88 58.9258 76.8722 58.9414 76.8683 58.9453C76.8488 58.9765 76.8449 59.0233 76.8176 59.035C76.7981 59.0467 76.7786 59.0389 76.7513 59.0428C76.7045 58.996 76.6031 58.996 76.5485 59.0272C76.529 59.035 76.5134 59.0545 76.4822 59.0467C76.4861 59.0233 76.5095 59.0155 76.529 59.0038C76.5641 58.9843 76.5953 58.9609 76.6343 58.9414C76.6538 58.9336 76.6772 58.9219 76.6967 58.9258C76.6967 58.957 76.7123 58.9765 76.7552 58.9687C76.7591 58.9687 76.7708 58.9648 76.7825 58.957C76.7825 58.957 76.7981 58.9492 76.8059 58.9453L76.8098 58.9531ZM76.3028 59.1988C76.3106 59.1637 76.3028 59.113 76.3028 59.0779C76.3028 59.1169 76.3028 59.1559 76.3028 59.2027V59.1988ZM76.1195 59.1754C76.1195 59.1754 76.1195 59.1442 76.1234 59.1325C76.1273 59.1052 76.1429 59.0779 76.1546 59.0584C76.1663 59.0779 76.1624 59.1052 76.1663 59.1325C76.1702 59.1715 76.178 59.2144 76.1819 59.2534C76.1819 59.2846 76.1819 59.3119 76.1702 59.3314C76.1546 59.3548 76.1429 59.3782 76.1312 59.4016C76.1195 59.3314 76.1117 59.2534 76.1195 59.1793V59.1754ZM76.1546 59.4367C76.139 59.4757 76.1312 59.5264 76.1156 59.5693C76.1039 59.6161 76.0844 59.6629 76.0805 59.7058C76.0649 59.8072 76.0493 59.9086 76.0532 60.0178C76.0688 60.0061 76.0766 59.9827 76.0844 59.9671C76.1195 59.9125 76.1468 59.8579 76.1819 59.8111C76.2287 59.7448 76.2755 59.6824 76.3262 59.62C76.3769 59.5537 76.4315 59.4991 76.4822 59.4406C76.5095 59.4094 76.5368 59.3821 76.5641 59.3587C76.5953 59.3314 76.6304 59.308 76.6499 59.2729C76.6226 59.269 76.5914 59.2729 76.568 59.2651C76.5485 59.2612 76.529 59.2417 76.5134 59.2378C76.4978 59.2339 76.4744 59.2378 76.4588 59.2339C76.4003 59.2339 76.3418 59.2261 76.295 59.2144C76.2755 59.2339 76.2638 59.2534 76.2482 59.2729C76.2209 59.308 76.2014 59.3392 76.178 59.386C76.1663 59.4055 76.1585 59.425 76.1507 59.4445L76.1546 59.4367ZM75.9791 60.4974C75.9791 60.4974 75.983 60.4584 75.9791 60.4428C75.9791 60.4428 75.9791 60.4428 75.9752 60.4428C75.9557 60.6105 75.9362 60.7743 75.9167 60.9381C75.9401 60.9342 75.9479 60.942 75.9596 60.9498C75.9674 60.9186 75.9635 60.8874 75.9674 60.8562C75.9674 60.8211 75.9713 60.7899 75.9713 60.7548C75.9713 60.669 75.9791 60.5832 75.983 60.5013L75.9791 60.4974ZM76.0142 60.4038C76.0181 60.1738 76.0025 59.9437 76.0298 59.7643C76.0298 59.7643 76.0337 59.7565 76.0337 59.7526C76.0337 59.7487 76.0337 59.7409 76.0337 59.7331C76.0415 59.7058 76.0493 59.6785 76.0493 59.6551C76.061 59.6434 76.061 59.6239 76.0649 59.6044C76.0688 59.5888 76.0766 59.5693 76.0805 59.5498C76.0883 59.503 76.0805 59.4484 76.0727 59.3938C76.0727 59.3431 76.0805 59.2885 76.0649 59.2417C76.0415 59.2573 76.0259 59.2768 75.9986 59.2885C75.9947 59.3977 75.9947 59.4952 75.9869 59.5966C75.9869 59.6395 75.983 59.6785 75.983 59.7214C75.983 59.7682 75.983 59.8111 75.9791 59.8579C75.9674 60.0217 75.9713 60.205 75.9674 60.3999C75.9869 60.4038 76.0025 60.4077 76.0181 60.4116L76.0142 60.4038ZM77.1998 58.2278C77.1998 58.2278 77.2115 58.2551 77.2154 58.2668C77.2349 58.3292 77.2427 58.3955 77.2544 58.4657C77.2622 58.4969 77.27 58.532 77.2739 58.5632C77.2817 58.5983 77.2895 58.6294 77.2973 58.6606C77.2817 58.6606 77.27 58.6645 77.2583 58.6684C77.192 58.6801 77.0984 58.6801 77.0243 58.7035V58.6879C77.0243 58.6879 77.0243 58.684 77.0243 58.6723C77.0204 58.645 77.0204 58.6489 77.0204 58.6294C77.0204 58.6099 77.0204 58.5826 77.0087 58.5865C77.0087 58.5632 76.9775 58.5164 76.9736 58.5515C76.9736 58.5632 76.9736 58.5748 76.9736 58.5826C76.9775 58.6372 76.9775 58.6372 76.9775 58.6957C76.9775 58.7191 76.9814 58.8244 76.9775 58.8439C76.9658 58.8439 76.9541 58.8478 76.9424 58.8439C76.9268 58.8517 76.9073 58.8595 76.8917 58.8634C76.8683 58.8673 76.8449 58.8751 76.8176 58.8751C76.7903 58.8712 76.7669 58.8634 76.7435 58.8556C76.724 58.8439 76.7045 58.8283 76.685 58.8244C76.6265 58.8049 76.6226 58.8634 76.5602 58.8517C76.5836 58.7932 76.6187 58.7503 76.6499 58.6996C76.6928 58.6294 76.7396 58.5671 76.7903 58.5086C76.8137 58.4852 76.8332 58.4579 76.8527 58.4345C76.88 58.4033 76.9073 58.3721 76.9385 58.3448C76.9502 58.337 76.958 58.3214 76.9775 58.3214C76.9658 58.376 76.9424 58.4111 76.9073 58.4423C76.8956 58.454 76.8839 58.4696 76.8761 58.4735C76.8644 58.4813 76.8488 58.4852 76.8449 58.5008V58.5086C76.8449 58.5359 76.88 58.5437 76.8995 58.532C76.9229 58.5164 76.9424 58.4735 76.9619 58.4423C77.0165 58.3487 77.0828 58.2434 77.1647 58.1927C77.1842 58.1771 77.1998 58.2122 77.2076 58.2278H77.1998ZM77.3207 58.7464C77.3207 58.7464 77.3012 58.7191 77.3012 58.6996C77.2856 58.6957 77.2661 58.7035 77.2544 58.7113C77.2583 58.7269 77.2583 58.7425 77.2661 58.7581C77.2856 58.7542 77.3051 58.7542 77.3207 58.7503V58.7464ZM77.3324 58.7737C77.3324 58.7737 77.348 58.7737 77.348 58.7854C77.348 58.7971 77.2973 58.8049 77.2856 58.8088C77.2154 58.8283 77.1374 58.8634 77.0867 58.8946C77.0672 58.9063 77.0594 58.9219 77.0399 58.9141C77.0438 58.9024 77.0555 58.8907 77.0633 58.8868C77.075 58.879 77.0906 58.8712 77.0984 58.8673C77.1452 58.8439 77.192 58.8205 77.2466 58.801C77.2739 58.7932 77.3051 58.7854 77.3285 58.7737H77.3324ZM77.3519 59.2612C77.3441 59.2339 77.3324 59.2144 77.3285 59.1949C77.3246 59.1793 77.3207 59.1676 77.3207 59.152V59.0935C77.3129 59.0662 77.309 59.0662 77.309 59.0389C77.3012 58.9999 77.2973 58.996 77.2895 58.957C77.2232 58.957 77.1647 58.9726 77.114 58.9921C77.114 59.0701 77.114 59.0935 77.114 59.1169C77.1218 59.1559 77.1179 59.1871 77.1335 59.23C77.1725 59.3314 77.27 59.62 77.3129 59.7136C77.3207 59.7331 77.3324 59.7643 77.3402 59.7721C77.348 59.776 77.3714 59.776 77.387 59.776C77.4142 59.776 77.4728 59.7565 77.4767 59.7331C77.4806 59.7136 77.4688 59.6824 77.461 59.6629C77.4221 59.5186 77.3909 59.386 77.3441 59.2573L77.3519 59.2612ZM77.5234 59.7409C77.5234 59.7409 77.5156 59.7799 77.5039 59.7877C77.4689 59.8111 77.4026 59.8306 77.348 59.8306C77.3246 59.8306 77.2895 59.8306 77.3012 59.7994C77.3831 59.8189 77.4883 59.8033 77.5156 59.7409H77.5234ZM77.5351 59.7955C77.5351 59.7955 77.4923 59.8189 77.4572 59.8306C77.4338 59.8384 77.4026 59.8462 77.387 59.8462C77.3675 59.8462 77.3285 59.8462 77.3207 59.8618C77.3051 59.8813 77.3324 59.9008 77.3519 59.8969C77.3675 59.893 77.3753 59.8774 77.3948 59.8852C77.4065 59.8813 77.4104 59.8696 77.4221 59.8696C77.4299 59.8657 77.4377 59.8696 77.4455 59.8696C77.4572 59.8696 77.4649 59.8579 77.4727 59.8579C77.4766 59.8579 77.4883 59.8579 77.4922 59.8579C77.5078 59.854 77.5117 59.8384 77.5234 59.8384C77.5468 59.8306 77.5663 59.8384 77.5702 59.8189C77.5702 59.8072 77.5546 59.7877 77.539 59.7916L77.5351 59.7955ZM77.5741 59.8618C77.6521 59.8813 77.7262 59.9203 77.8042 59.9437C77.8549 59.9593 77.9017 59.971 77.9368 59.9944C77.9485 59.9983 77.9524 60.0061 77.9602 60.01C77.9758 60.0178 77.9875 60.0256 78.0031 60.0334C78.007 60.0373 78.0187 60.0334 78.0148 60.0451C77.9992 60.0529 77.9914 60.0373 77.9797 60.0334C77.9134 59.9983 77.8432 59.9554 77.7535 59.9437C77.7652 59.9593 77.7808 59.9593 77.7964 59.9593C77.8783 59.9788 77.9485 60.0334 78.0148 60.0724C78.0265 60.0763 78.0421 60.0841 78.0421 60.0997C78.0304 60.1075 78.0148 60.0997 78.007 60.0919C77.9329 60.0412 77.8588 59.9827 77.7457 59.9632C77.7379 59.9827 77.7691 59.9866 77.7769 59.9866C77.8354 60.0022 77.8783 60.0217 77.9251 60.049C77.9368 60.0568 77.9524 60.0685 77.968 60.0802C77.9836 60.088 78.0031 60.0958 78.0109 60.1114C77.9875 60.1309 77.9524 60.1114 77.929 60.0958C77.9056 60.0841 77.89 60.0724 77.8666 60.0646C77.8276 60.049 77.7769 60.0373 77.7262 60.0256C77.6989 60.0217 77.6716 60.0217 77.6482 60.0139C77.6248 60.01 77.6053 59.9905 77.5819 59.9905C77.5624 60.0139 77.5975 60.0139 77.6209 60.0217C77.6209 60.0217 77.6287 60.0334 77.6326 60.0334C77.6638 60.0412 77.7067 60.0373 77.7418 60.0451C77.7652 60.049 77.8081 60.0646 77.8081 60.0763C77.8081 60.1036 77.7184 60.0802 77.695 60.0802C77.6365 60.0763 77.6014 60.0841 77.5468 60.0763C77.5078 60.0724 77.465 60.0607 77.4455 60.0334C77.4377 60.0217 77.4299 60.0061 77.4299 60.0022C77.4299 59.9905 77.4338 59.9749 77.4299 59.9593C77.426 59.9437 77.4143 59.9437 77.4221 59.9281C77.4221 59.9164 77.4299 59.9281 77.4455 59.9203C77.4494 59.9203 77.4571 59.9164 77.461 59.9125C77.4688 59.9125 77.4806 59.9125 77.4883 59.9125C77.5039 59.9125 77.5039 59.8891 77.5273 59.8969C77.5429 59.8813 77.5585 59.8735 77.578 59.8618H77.5741ZM77.929 59.9593C77.929 59.971 77.9446 59.9749 77.9524 59.9827C77.9602 59.9905 77.968 59.9944 77.9797 60.0022C77.9992 60.0139 78.0226 60.0217 78.0343 60.0373C78.0382 60.0412 78.0382 60.0529 78.046 60.0607C78.0538 60.0763 78.0694 60.0841 78.0694 60.0997C78.0655 60.1309 77.9992 60.1387 77.968 60.1504C77.9602 60.1582 77.9563 60.1699 77.9446 60.1777C77.9407 60.1894 77.929 60.1972 77.929 60.2128C77.9446 60.2128 77.9524 60.1933 77.968 60.1855C77.9758 60.1816 77.9836 60.1816 77.9953 60.1738C78.0226 60.1582 78.0499 60.1465 78.0733 60.1309C78.0889 60.1075 78.0928 60.0841 78.085 60.0607C78.0772 60.0451 78.0421 60.0061 78.0304 59.9944C78.0187 59.9905 77.9992 59.9827 77.9836 59.9788C77.9641 59.971 77.9446 59.9554 77.9329 59.9632L77.929 59.9593ZM78.0811 59.9905C78.085 60.0256 78.1123 60.0529 78.1201 60.0802C78.124 60.1387 78.0616 60.1621 78.0304 60.1777C78.0109 60.1894 77.9875 60.1894 77.9758 60.205C77.9914 60.2167 78.0109 60.205 78.0304 60.205C78.0499 60.205 78.0733 60.2089 78.0889 60.2089C78.124 60.205 78.1552 60.1816 78.1747 60.166C78.1981 60.1465 78.2215 60.1231 78.2449 60.1114C78.2527 60.1114 78.2683 60.1114 78.2722 60.0997C78.2761 60.0919 78.2605 60.0802 78.2566 60.0763C78.2449 60.0568 78.2371 60.0412 78.2137 60.0334C78.1903 60.0295 78.1669 60.0334 78.1474 60.0295C78.1201 60.0217 78.1123 59.9827 78.0811 59.9866V59.9905ZM78.2995 60.1426C78.2449 60.1426 78.2137 60.1777 78.1786 60.2089C78.1903 60.2011 78.2059 60.2011 78.2137 60.1894C78.2176 60.1855 78.2254 60.1738 78.2293 60.1699C78.2527 60.1543 78.3034 60.1348 78.3385 60.1582C78.3502 60.1699 78.3619 60.1933 78.3658 60.2089C78.3775 60.2401 78.3775 60.283 78.3658 60.3142C78.3541 60.3492 78.3268 60.3648 78.3112 60.3882C78.3541 60.4428 78.3853 60.5091 78.3892 60.5988C78.3892 60.63 78.3853 60.6573 78.3853 60.6885C78.3853 60.7704 78.4438 60.8289 78.4282 60.9069C78.4282 60.9186 78.4165 60.9303 78.4165 60.942C78.4165 60.9537 78.436 60.9732 78.4438 60.9849C78.4711 61.0434 78.475 61.1097 78.475 61.1838C78.475 61.2072 78.4711 61.2345 78.4711 61.2579C78.475 61.293 78.4906 61.3242 78.4984 61.3515C78.4984 61.3593 78.4984 61.3749 78.5101 61.3788C78.5218 61.3632 78.514 61.3437 78.514 61.3281C78.514 61.1955 78.4906 61.0824 78.4867 60.9576C78.4867 60.8796 78.4906 60.8016 78.4906 60.7275C78.4906 60.6534 78.4906 60.5793 78.475 60.5169C78.4711 60.4974 78.4594 60.4779 78.4555 60.4584C78.4204 60.3648 78.4126 60.2518 78.3658 60.1816C78.3502 60.1582 78.3307 60.1387 78.2956 60.1387L78.2995 60.1426ZM78.0655 61.7337C78.046 61.7688 78.0109 61.8 77.9797 61.8156C78.0343 61.8351 78.1006 61.8156 78.1201 61.7766C78.1357 61.7415 78.1279 61.7025 78.1396 61.6713C78.1396 61.6635 78.1435 61.6557 78.1513 61.6518C78.1591 61.6362 78.1747 61.6245 78.1864 61.6089C78.202 61.5816 78.202 61.5387 78.202 61.5036C78.2566 61.566 78.1864 61.6362 78.1669 61.6908C78.163 61.7025 78.1552 61.7181 78.1669 61.7298C78.1825 61.7298 78.1864 61.7142 78.1981 61.7103C78.2098 61.7025 78.2176 61.7025 78.2293 61.6908C78.2605 61.6674 78.2644 61.6206 78.2722 61.5738C78.2761 61.5543 78.2839 61.5348 78.2839 61.5192C78.2839 61.4919 78.2761 61.4568 78.2839 61.4295C78.2917 61.4022 78.3073 61.3905 78.3151 61.3671C78.3268 61.3398 78.3112 61.3164 78.3112 61.2852C78.3151 61.2657 78.3229 61.254 78.3268 61.2423C78.3307 61.2228 78.3307 61.2033 78.3268 61.1799C78.319 61.1448 78.2956 61.1292 78.28 61.1019C78.2722 61.0902 78.2722 61.0863 78.2644 61.0746C78.2644 61.0668 78.2527 61.059 78.2527 61.0473C78.2371 60.9966 78.2644 60.9342 78.2566 60.8874C78.2527 60.8874 78.2527 60.8835 78.2527 60.8835C78.2527 60.8835 78.2527 60.8874 78.2488 60.8874C78.2449 60.9147 78.2332 60.9342 78.2254 60.9537C78.2215 60.9615 78.2215 60.9693 78.2137 60.9771C78.2059 60.9927 78.1903 61.0005 78.1786 61.0161C78.1669 61.0317 78.1552 61.0512 78.1552 61.0746C78.1591 61.098 78.1747 61.1175 78.1864 61.1409C78.1903 61.1604 78.1942 61.1838 78.1903 61.2072C78.1864 61.2462 78.1669 61.2852 78.1513 61.3086C78.1279 61.3515 78.0967 61.4022 78.0889 61.4451C78.0811 61.4919 78.0967 61.5348 78.1006 61.5816C78.1006 61.6362 78.0889 61.6869 78.0694 61.7181L78.0655 61.7337ZM77.7886 61.3515C77.7886 61.3515 77.7847 61.3203 77.7847 61.3086C77.7847 61.2852 77.8042 61.2657 77.8042 61.2462C77.8003 61.2384 77.7886 61.2267 77.7847 61.2111C77.7808 61.1994 77.7808 61.1916 77.7808 61.1838C77.7808 61.1799 77.773 61.1721 77.7691 61.1643C77.7652 61.1409 77.7574 61.1292 77.7418 61.1175C77.7145 61.1721 77.7652 61.2111 77.773 61.2579C77.773 61.3164 77.7496 61.3593 77.7769 61.3983C77.7691 61.3749 77.7886 61.3632 77.7925 61.3476L77.7886 61.3515ZM77.6482 61.5621C77.6482 61.6089 77.6755 61.6362 77.695 61.6674C77.6989 61.6791 77.7106 61.6947 77.7106 61.7064C77.7145 61.7259 77.7067 61.7571 77.7145 61.7649C77.7262 61.7571 77.7262 61.7376 77.7379 61.7259C77.7496 61.7103 77.7691 61.7064 77.7847 61.6947C77.8237 61.6635 77.8393 61.5894 77.8159 61.5231C77.812 61.5153 77.8042 61.5036 77.8003 61.4958C77.7808 61.4685 77.7574 61.449 77.7457 61.4178C77.7223 61.3593 77.734 61.2891 77.7262 61.2228C77.7067 61.1877 77.6794 61.1643 77.6794 61.1214C77.6794 61.1019 77.6911 61.0902 77.6911 61.0707C77.6911 61.0473 77.6755 61.0239 77.6716 61.0044C77.6521 60.9966 77.6443 60.981 77.6287 60.9693C77.6014 61.0473 77.6755 61.098 77.6521 61.1721C77.6443 61.1721 77.6443 61.1838 77.6287 61.1838C77.617 61.1838 77.6287 61.1565 77.617 61.1604C77.5975 61.2501 77.6638 61.3125 77.6716 61.3866C77.6716 61.4139 77.6716 61.4373 77.6716 61.4646C77.6716 61.4997 77.6521 61.5309 77.6482 61.566V61.5621ZM77.6248 61.6479C77.6287 61.6791 77.6209 61.722 77.6131 61.7532C77.6287 61.7532 77.6482 61.7571 77.6677 61.7571C77.6677 61.7103 77.656 61.6713 77.6326 61.6401C77.6326 61.6401 77.6248 61.6401 77.6248 61.644V61.6479ZM77.5741 61.4997C77.5741 61.4997 77.5936 61.5387 77.6053 61.5621C77.6053 61.5192 77.6287 61.4802 77.6326 61.4373C77.6365 61.3827 77.6209 61.3476 77.6092 61.3086C77.6014 61.2852 77.5936 61.2618 77.5897 61.2423C77.5858 61.2033 77.5897 61.1604 77.6014 61.1253C77.6014 61.1058 77.6053 61.0902 77.6053 61.0746C77.6053 61.0551 77.5936 61.0239 77.5975 60.9966C77.5975 60.9771 77.6092 60.9537 77.6092 60.9342C77.6092 60.9303 77.6053 60.9186 77.5975 60.9108C77.5936 60.8913 77.5858 60.8796 77.5819 60.8601C77.5819 60.8445 77.5819 60.8328 77.5702 60.8328C77.5663 60.8679 77.5663 60.8913 77.5546 60.9147C77.539 60.9771 77.4884 61.0161 77.4962 61.0863C77.5001 61.1409 77.5351 61.1799 77.5546 61.2267C77.5663 61.2579 77.5819 61.293 77.5819 61.3281C77.5858 61.3866 77.5546 61.449 77.5702 61.4958L77.5741 61.4997ZM77.4143 61.4334C77.4143 61.4646 77.3948 61.488 77.387 61.5153C77.387 61.5387 77.3948 61.566 77.4065 61.5894C77.426 61.6245 77.4416 61.6518 77.4688 61.6713C77.4805 61.6518 77.5079 61.644 77.5079 61.6206C77.5079 61.5972 77.4766 61.5816 77.461 61.566C77.4337 61.527 77.4182 61.4373 77.4416 61.3749C77.4494 61.3515 77.4728 61.3242 77.465 61.293C77.465 61.2735 77.4416 61.254 77.4299 61.2345C77.4182 61.215 77.4065 61.1994 77.3948 61.1799C77.3714 61.137 77.3714 61.0785 77.3753 61.0239C77.3441 61.0005 77.3285 60.9615 77.3012 60.9303L77.2973 60.9342C77.2817 61.0473 77.309 61.1136 77.3558 61.176C77.3831 61.2111 77.4338 61.254 77.4143 61.3125C77.4143 61.3242 77.4026 61.3281 77.4026 61.3398C77.3987 61.3476 77.4065 61.3593 77.4065 61.3671C77.4065 61.3866 77.4065 61.41 77.4065 61.4295L77.4143 61.4334ZM77.4688 60.1309C77.4688 60.1309 77.4844 60.1192 77.4767 60.1153C77.4611 60.1153 77.4572 60.1231 77.4416 60.127C77.3753 60.1777 77.3363 60.2479 77.2934 60.3219C77.2778 60.3687 77.2505 60.4038 77.2388 60.4545C77.2154 60.5247 77.1998 60.6105 77.1881 60.6846C77.1842 60.7158 77.1764 60.7392 77.1803 60.7665C77.1803 60.7938 77.1842 60.8172 77.192 60.8484C77.2037 60.8991 77.2232 60.942 77.231 60.9966C77.231 61.0551 77.231 61.1019 77.2505 61.1409C77.27 61.176 77.3051 61.1994 77.3363 61.215C77.3324 61.1994 77.3207 61.1916 77.3168 61.1799C77.2895 61.1253 77.27 61.0707 77.2622 61.0005C77.2622 60.981 77.2622 60.9576 77.2622 60.9381C77.2622 60.9069 77.2817 60.8757 77.2817 60.8406C77.2817 60.8328 77.2817 60.8211 77.2778 60.8055V60.7704C77.2778 60.7704 77.2583 60.7509 77.2505 60.7392C77.2388 60.7119 77.2232 60.6573 77.2388 60.6144C77.2427 60.6066 77.2505 60.5949 77.2583 60.5832C77.2778 60.5559 77.3051 60.5325 77.3168 60.5052C77.3285 60.4818 77.3402 60.435 77.3402 60.4116C77.3402 60.3999 77.3363 60.3882 77.3363 60.3765C77.3363 60.3531 77.3324 60.3298 77.3402 60.3103C77.3558 60.2674 77.387 60.244 77.4338 60.2362C77.4416 60.2128 77.4533 60.1933 77.4688 60.1738C77.4688 60.1582 77.4688 60.1387 77.4805 60.127L77.4688 60.1309ZM77.5156 60.3375C77.5156 60.3375 77.5157 60.3259 77.5196 60.3181C77.5235 60.3181 77.5235 60.3181 77.5196 60.3181C77.504 60.3609 77.4883 60.4038 77.4767 60.4506C77.4728 60.4428 77.4728 60.4311 77.4767 60.4233C77.4806 60.3921 77.4923 60.3453 77.5117 60.3336L77.5156 60.3375ZM77.3324 60.669C77.3402 60.6456 77.3597 60.6261 77.3675 60.6066C77.3831 60.5676 77.3948 60.5247 77.3987 60.4779V60.4701C77.3987 60.4701 77.3987 60.4701 77.4026 60.474C77.4377 60.5871 77.3675 60.6924 77.3675 60.7977C77.3675 60.8328 77.3792 60.8679 77.3948 60.8952C77.4026 60.9186 77.4182 60.942 77.4065 60.9771C77.3792 60.9576 77.3675 60.9303 77.348 60.8991C77.3402 60.8874 77.3324 60.8718 77.3285 60.864C77.3129 60.8016 77.3168 60.7236 77.3324 60.6729V60.669ZM77.3792 60.3298C77.3792 60.3298 77.4065 60.3064 77.4299 60.3103C77.4104 60.3492 77.4026 60.396 77.4026 60.4428C77.3987 60.4389 77.387 60.435 77.3792 60.4272C77.3558 60.3999 77.3636 60.3492 77.3792 60.3298ZM77.2778 60.6105H77.2817C77.309 60.5598 77.3441 60.5169 77.3558 60.4584C77.3597 60.4584 77.3636 60.4623 77.3675 60.4623C77.3675 60.5754 77.2778 60.6222 77.2661 60.7197C77.2466 60.6963 77.2505 60.6456 77.2661 60.63C77.2661 60.63 77.2661 60.6066 77.27 60.6222C77.2739 60.6183 77.2661 60.6144 77.27 60.6066L77.2778 60.6105ZM77.465 60.5715C77.465 60.6027 77.4649 60.6378 77.461 60.669C77.4493 60.7002 77.426 60.7236 77.4221 60.7587C77.4221 60.7626 77.4221 60.7743 77.4221 60.7782C77.4221 60.786 77.4143 60.7938 77.4104 60.7977C77.4065 60.8289 77.4143 60.8562 77.4143 60.8913C77.387 60.8445 77.3831 60.7782 77.3948 60.7236C77.4065 60.6807 77.426 60.6456 77.426 60.6066C77.4338 60.5325 77.426 60.4428 77.4377 60.3726C77.4494 60.3298 77.4767 60.3064 77.4962 60.2752C77.5079 60.2713 77.5157 60.2518 77.5312 60.2557C77.5312 60.2518 77.5234 60.2557 77.5273 60.2518C77.578 60.2167 77.6482 60.1777 77.7301 60.2011C77.7067 60.205 77.6716 60.2089 77.6443 60.2089C77.5741 60.2362 77.5117 60.2752 77.4767 60.3454C77.4767 60.3454 77.4753 60.3479 77.4727 60.3531C77.4727 60.3531 77.4572 60.4077 77.4533 60.4389C77.4455 60.4896 77.465 60.5286 77.465 60.5754V60.5715ZM78.163 60.4623C78.1747 60.5442 78.163 60.6222 78.1318 60.6807C78.1123 60.7197 78.085 60.7548 78.0616 60.7899C78.0655 60.8055 78.0772 60.8328 78.0616 60.8484C78.0304 60.8445 78.007 60.8328 77.9797 60.8211C77.9836 60.864 78.0265 60.8679 78.0538 60.8835C78.0538 60.8952 78.0421 60.9108 78.0343 60.9108C78.0226 60.9108 77.9875 60.8835 77.9758 60.8796C77.9719 60.8757 77.9641 60.864 77.9602 60.864C77.9602 60.903 77.9914 60.9147 78.0109 60.9342C78.007 60.9459 77.9914 60.9654 77.9797 60.9654C77.9485 60.9693 77.9329 60.9108 77.9212 60.8835C77.9017 60.8913 77.9056 60.9225 77.8978 60.942C77.8471 60.9225 77.8315 60.8718 77.8354 60.8172C77.8471 60.7704 77.929 60.7821 77.9446 60.7353C77.9446 60.7197 77.9446 60.7041 77.9368 60.6924C77.9329 60.6768 77.929 60.6651 77.9173 60.6612C77.9056 60.6768 77.9329 60.7002 77.9173 60.7158C77.9056 60.7197 77.8978 60.7158 77.89 60.7158C77.8549 60.7119 77.8276 60.7275 77.7964 60.7236C77.7808 60.7236 77.7652 60.7158 77.7496 60.7158C77.7379 60.7158 77.7262 60.7158 77.7145 60.7119C77.7106 60.6924 77.7262 60.6768 77.7067 60.669C77.6989 60.6846 77.6911 60.7002 77.695 60.7275C77.695 60.747 77.7145 60.7665 77.7262 60.7743C77.7535 60.7899 77.7964 60.7899 77.8081 60.8133C77.812 60.8289 77.812 60.8484 77.8081 60.8601C77.8042 60.9069 77.7652 60.9381 77.7262 60.9498C77.7301 60.9342 77.7379 60.8913 77.7184 60.8952C77.7067 60.8952 77.7028 60.9264 77.6911 60.942C77.6755 60.9654 77.6404 60.9849 77.6209 60.9459C77.6482 60.9264 77.6755 60.9147 77.6872 60.8796C77.6755 60.8796 77.6482 60.8874 77.6287 60.8991C77.6053 60.9108 77.5897 60.9225 77.5897 60.8796C77.6287 60.8757 77.656 60.8523 77.6716 60.825C77.6482 60.8328 77.617 60.8484 77.5858 60.8406C77.5819 60.8367 77.5858 60.825 77.5858 60.8211C77.5312 60.7548 77.4922 60.669 77.4883 60.5637C77.4883 60.4974 77.5039 60.4233 77.5273 60.3687C77.539 60.3453 77.5468 60.3298 77.5585 60.3142C77.5702 60.2908 77.5819 60.2752 77.6053 60.2635C77.6365 60.2518 77.6755 60.244 77.7145 60.244C77.7574 60.2479 77.7847 60.2674 77.8159 60.2752C77.8588 60.2869 77.89 60.2557 77.9251 60.2518C77.9758 60.2479 78.0187 60.2635 78.0499 60.2869C78.0616 60.2908 78.0733 60.3102 78.085 60.3219C78.1162 60.3531 78.1396 60.4077 78.1474 60.4662L78.163 60.4623ZM78.1357 61.1253C78.1357 61.1253 78.1513 61.1409 78.1591 61.1526C78.1708 61.176 78.1708 61.254 78.1474 61.2618C78.1513 61.1643 78.0616 61.1253 78.085 61.0278C78.0889 61.0044 78.0967 60.9849 78.1084 60.9615C78.124 60.9147 78.1474 60.8601 78.1318 60.8016C78.1318 60.7977 78.124 60.786 78.124 60.7782C78.124 60.7665 78.1513 60.7158 78.163 60.708C78.1786 60.7119 78.1786 60.7353 78.1786 60.747C78.1903 60.7821 78.2137 60.825 78.2137 60.8679C78.2137 60.9069 78.1942 60.9537 78.1786 60.9849C78.1552 61.0161 78.124 61.0395 78.1279 61.0902C78.1318 61.1058 78.1357 61.1175 78.1396 61.1292L78.1357 61.1253ZM78.1708 60.3765C78.1708 60.3765 78.1708 60.3726 78.1708 60.3687C78.1708 60.3726 78.1747 60.3726 78.1747 60.3726C78.2137 60.3921 78.2293 60.4428 78.2332 60.4974C78.2332 60.5364 78.2176 60.5754 78.2137 60.6105C78.2098 60.6495 78.2176 60.6846 78.2371 60.708C78.2488 60.7197 78.2722 60.7314 78.2722 60.7548C78.2722 60.7782 78.2527 60.7938 78.2488 60.8133C78.2332 60.7938 78.2293 60.7704 78.2254 60.747C78.2215 60.7236 78.2098 60.7002 78.2098 60.6768C78.2098 60.6534 78.2137 60.6378 78.2137 60.6144C78.2215 60.5325 78.1942 60.4467 78.1708 60.3804V60.3765ZM78.3892 60.8718C78.3892 60.8952 78.3775 60.9225 78.3697 60.942C78.3502 60.9693 78.3268 60.9771 78.3151 61.0083C78.3034 61.0512 78.3346 61.0902 78.3268 61.1253C78.3151 61.1253 78.3073 61.1097 78.3034 61.098C78.2956 61.0902 78.2878 61.0785 78.2839 61.0668C78.2683 61.0122 78.3073 60.9342 78.2878 60.8718C78.2878 60.8601 78.2722 60.8445 78.2722 60.8367C78.2722 60.8055 78.2995 60.7821 78.2956 60.747C78.2956 60.7236 78.28 60.7119 78.2683 60.6963C78.2566 60.6807 78.2449 60.6729 78.2449 60.6534C78.2449 60.6222 78.2683 60.5949 78.2722 60.5637C78.2839 60.5052 78.2722 60.4623 78.2488 60.4194H78.2527C78.2761 60.4428 78.2956 60.4701 78.3151 60.5052C78.3307 60.5325 78.3424 60.5754 78.3424 60.6144C78.3424 60.6651 78.3268 60.7158 78.3307 60.7626C78.3346 60.8016 78.3736 60.825 78.3775 60.8679L78.3892 60.8718ZM78.2605 60.2089C78.2605 60.2089 78.2722 60.1972 78.2722 60.1933C78.2956 60.1738 78.3268 60.1972 78.3307 60.2167C78.3541 60.283 78.2995 60.3648 78.2488 60.3726C78.2254 60.3765 78.1903 60.3687 78.1903 60.3531C78.1942 60.3453 78.202 60.3492 78.2098 60.3492C78.2527 60.3453 78.2839 60.322 78.3073 60.2986C78.3229 60.2557 78.3034 60.2128 78.2644 60.2128L78.2605 60.2089ZM78.2449 60.2128C78.2449 60.2128 78.2332 60.2323 78.241 60.244C78.241 60.2518 78.2527 60.2596 78.2527 60.2635C78.2527 60.2713 78.2176 60.2908 78.2059 60.2947C78.1708 60.3064 78.1201 60.2947 78.1084 60.2752C78.1708 60.2674 78.2098 60.2401 78.2488 60.2089L78.2449 60.2128ZM77.8159 60.1114C77.8159 60.1114 77.8822 60.0958 77.8432 60.088C77.8393 60.0997 77.8159 60.0919 77.8159 60.1114ZM77.8549 60.1387C77.812 60.1465 77.7574 60.1192 77.7067 60.1153C77.6794 60.1114 77.6482 60.1075 77.6209 60.1114C77.5429 60.1231 77.4961 60.1699 77.4688 60.2479C77.5 60.2206 77.5312 60.1894 77.5741 60.1738C77.6209 60.1543 77.6911 60.1387 77.7457 60.1621C77.7691 60.1738 77.7925 60.1855 77.8159 60.1894C77.8549 60.1894 77.8705 60.1777 77.89 60.166C77.9017 60.1465 77.9368 60.1348 77.9212 60.1075C77.8939 60.1075 77.8861 60.1309 77.8588 60.1387H77.8549ZM77.1101 58.9375C77.1101 58.9375 77.1296 58.9219 77.1452 58.918C77.1881 58.9063 77.2349 58.8907 77.2817 58.8907C77.2856 58.8946 77.2895 58.9024 77.2895 58.9102C77.2622 58.9258 77.2271 58.9258 77.1959 58.9297C77.1647 58.9336 77.1374 58.9453 77.1101 58.9414V58.9375ZM76.9931 59.0389C76.9931 59.0389 76.997 59.0779 76.997 59.0935V59.1481C76.997 59.1481 76.997 59.1715 76.997 59.1832C77.1803 59.4718 77.2154 59.9086 77.2076 60.3687C77.2193 60.357 77.2232 60.3414 77.231 60.3258C77.2583 60.2557 77.2973 60.1972 77.3402 60.1387C77.3597 60.1114 77.3753 60.088 77.3948 60.0724C77.4026 60.0607 77.4299 60.0529 77.4299 60.0412C77.4299 60.0256 77.4143 59.9944 77.4104 59.9827C77.4026 59.9632 77.3987 59.9437 77.387 59.9281C77.3558 59.9281 77.3051 59.9125 77.3012 59.8813C77.2973 59.8657 77.3051 59.8579 77.3129 59.8384C77.309 59.8267 77.2934 59.8267 77.2934 59.8111C77.2934 59.7916 77.3051 59.776 77.309 59.7604C77.2544 59.6512 77.1998 59.5342 77.1569 59.4094C77.1413 59.3704 77.114 59.2651 77.1062 59.2222C77.1023 59.1949 77.0906 59.1286 77.0867 59.1013C77.0828 59.0818 77.0789 59.0584 77.075 59.0389C77.075 59.0389 77.0711 59.0233 77.0633 58.957H77.0594C77.0321 58.9687 77.0126 58.9999 76.9892 59.0155C76.9892 59.0233 77.0009 59.0272 77.0009 59.035L76.9931 59.0389ZM77.114 61.0083C77.114 61.0083 77.114 60.9927 77.114 60.9849C77.1179 60.9615 77.1257 60.9303 77.1335 60.903C77.1335 60.8835 77.1335 60.8679 77.1452 60.8562C77.1452 60.8562 77.1452 60.8562 77.1491 60.8562C77.1374 60.8874 77.1374 60.9264 77.1335 60.9537C77.1296 60.9732 77.1257 60.9927 77.114 61.0044V61.0083ZM77.1608 60.9186C77.1608 60.981 77.1296 61.0239 77.1296 61.0824C77.1335 61.1526 77.1608 61.2189 77.1959 61.2579C77.231 61.2969 77.2895 61.3047 77.3246 61.3437C77.3402 61.3593 77.3519 61.3827 77.3636 61.4022C77.3714 61.4178 77.3714 61.4373 77.3831 61.449C77.387 61.4256 77.3948 61.4061 77.3948 61.3866C77.3948 61.3632 77.3753 61.3476 77.3753 61.332C77.3753 61.3047 77.3909 61.2774 77.3636 61.2579C77.3051 61.2384 77.2544 61.2228 77.2271 61.176C77.1803 61.1058 77.2037 61.0005 77.1725 60.9186H77.1686C77.1686 60.9186 77.1686 60.9186 77.1686 60.9225L77.1608 60.9186ZM77.5117 61.5387C77.539 61.5777 77.5585 61.6557 77.5234 61.6986C77.539 61.7181 77.5468 61.7376 77.5702 61.7454C77.6014 61.683 77.5975 61.6128 77.5702 61.5543C77.5585 61.5309 77.539 61.5075 77.5312 61.4841C77.5196 61.4334 77.5429 61.4022 77.5468 61.3554C77.5468 61.3359 77.5507 61.3086 77.5468 61.2891C77.5429 61.2423 77.5039 61.2033 77.4883 61.1604C77.4806 61.1409 77.4728 61.1175 77.465 61.098C77.4572 61.0473 77.465 60.9927 77.4767 60.9498C77.4883 60.9225 77.5 60.8991 77.5117 60.8679C77.5234 60.8211 77.5117 60.7665 77.5 60.7314C77.5 60.7197 77.4922 60.6963 77.4805 60.7002C77.4688 60.7197 77.4533 60.7509 77.4494 60.7704C77.4338 60.8133 77.4377 60.864 77.4338 60.9147C77.4338 60.9654 77.4143 61.0122 77.4104 61.0512C77.4026 61.1136 77.426 61.1448 77.4455 61.1799C77.4611 61.2072 77.4806 61.2306 77.4883 61.254C77.5078 61.3125 77.4883 61.3632 77.4688 61.4139C77.4571 61.4607 77.4688 61.5036 77.4805 61.5348C77.4844 61.5465 77.4883 61.5621 77.5039 61.5699C77.5156 61.5699 77.504 61.5504 77.5079 61.5426L77.5117 61.5387ZM77.9407 61.41C77.9407 61.4529 77.9602 61.488 77.968 61.527C77.9758 61.5933 77.9485 61.6479 77.9173 61.683C77.8861 61.722 77.8354 61.7259 77.8276 61.7883C77.851 61.7883 77.8666 61.8039 77.8861 61.8C77.8978 61.8 77.9056 61.7883 77.9173 61.7883C77.9407 61.7805 77.9602 61.7766 77.9797 61.7649C78.007 61.7493 78.0109 61.7454 78.0265 61.722C78.0421 61.7025 78.0538 61.6869 78.0616 61.6596C78.0616 61.6401 78.0694 61.6011 78.0655 61.5855C78.0655 61.566 78.0538 61.5387 78.0499 61.5192C78.046 61.4919 78.0382 61.4685 78.0304 61.4529C78.0226 61.4412 78.0109 61.4295 78.0031 61.4139C77.9953 61.3983 77.9875 61.3632 77.9875 61.3476C77.9875 61.3125 78.0265 61.2891 78.0343 61.2579C78.0343 61.2267 78.0304 61.2072 78.0187 61.1877C78.0109 61.1682 78.0109 61.1526 78.0031 61.1409C77.9914 61.1097 77.9485 61.0746 77.9485 61.0395C77.9485 61.0278 77.9485 61.0161 77.968 61.0122C77.9836 61.02 77.9797 61.0395 77.9914 61.0512C77.9914 61.059 78.0031 61.0668 78.0109 61.0746C78.0148 61.0902 78.0226 61.1097 78.0265 61.1292C78.0382 61.1682 78.0655 61.215 78.0577 61.2657C78.0499 61.3008 78.0187 61.3281 78.0187 61.3593C78.0187 61.3827 78.0382 61.4061 78.0538 61.4178C78.0811 61.3593 78.1162 61.3203 78.1123 61.2384C78.1123 61.2189 78.1084 61.2033 78.1084 61.1916C78.0967 61.1448 78.0577 61.1136 78.0499 61.059C78.0421 60.9966 78.0772 60.9615 78.085 60.903C78.0655 60.942 78.046 60.981 77.9992 60.9966C77.9836 60.9849 77.9719 60.9732 77.9485 60.9654C77.9446 60.9654 77.9407 60.9654 77.9329 60.9654C77.9173 60.9654 77.8978 60.9459 77.8822 60.9459C77.8705 60.9459 77.8588 60.9537 77.8432 60.9576C77.8276 60.9576 77.8081 60.9459 77.7925 60.9459C77.7808 60.9459 77.7652 60.9615 77.7496 60.9654C77.7301 60.9654 77.7145 60.9654 77.6989 60.9771C77.7145 60.9966 77.7106 61.0434 77.7301 61.059C77.7496 61.0746 77.7769 61.0629 77.7964 61.0746C77.7964 61.0824 77.8042 61.0863 77.8042 61.0902C77.8042 61.137 77.8237 61.1565 77.8237 61.1955C77.8276 61.2072 77.8432 61.2189 77.8432 61.2345C77.8432 61.2501 77.8237 61.2696 77.8198 61.293C77.8198 61.3125 77.8198 61.3242 77.8198 61.3398C77.8198 61.3593 77.8003 61.371 77.8003 61.3905C77.8003 61.4022 77.8003 61.4139 77.8042 61.4217C77.8042 61.4295 77.8081 61.4412 77.8198 61.449C77.8198 61.3788 77.8588 61.3281 77.8588 61.2696C77.8588 61.2462 77.8471 61.2267 77.8432 61.2072C77.8393 61.1838 77.8354 61.1643 77.8276 61.1448C77.8276 61.1331 77.812 61.1253 77.8081 61.1136C77.8081 61.098 77.8081 61.0902 77.812 61.0785C77.8315 61.0746 77.8627 61.0785 77.8822 61.0746C77.8861 61.0863 77.8978 61.0941 77.8978 61.1136C77.8978 61.1331 77.8744 61.1487 77.8666 61.1682C77.8627 61.2111 77.8939 61.2618 77.89 61.3164C77.8861 61.3398 77.8822 61.371 77.8705 61.3944C77.8627 61.4217 77.851 61.4412 77.851 61.4724C77.851 61.5348 77.8666 61.5972 77.8549 61.644C77.8432 61.6791 77.8159 61.6986 77.7925 61.7181C77.7847 61.7376 77.7613 61.7376 77.7535 61.7571C77.8042 61.7844 77.8081 61.7337 77.8237 61.7103C77.8432 61.6869 77.8666 61.683 77.8822 61.6674C77.9095 61.6167 77.9602 61.5582 77.9407 61.4802C77.9329 61.4568 77.9173 61.4412 77.9095 61.4178C77.9095 61.3905 77.929 61.3671 77.9251 61.3398C77.9251 61.3281 77.9173 61.3125 77.9173 61.2969C77.9173 61.2696 77.9407 61.2345 77.9329 61.1994C77.9251 61.1799 77.9134 61.1682 77.9095 61.1487C77.9095 61.137 77.9095 61.1136 77.9095 61.1097C77.9095 61.0902 77.9173 61.0512 77.9329 61.0512C77.9446 61.0512 77.9563 61.1136 77.9563 61.1253C77.9563 61.1409 77.9446 61.1643 77.9524 61.176C77.9524 61.2033 77.968 61.2189 77.968 61.2423C77.9641 61.2657 77.9485 61.2852 77.9446 61.3047C77.9407 61.3281 77.9563 61.3476 77.9563 61.3671C77.9563 61.3788 77.9524 61.3905 77.9524 61.3983L77.9407 61.41ZM78.4672 61.527C78.475 61.4997 78.4711 61.4646 78.4672 61.4334C78.4672 61.3788 78.436 61.3398 78.4321 61.2813C78.4321 61.254 78.4321 61.2189 78.4321 61.1916C78.4321 61.1604 78.4399 61.1058 78.4321 61.0629C78.4321 61.0356 78.4126 60.9654 78.3931 60.9576C78.3853 60.9576 78.3775 60.9732 78.3736 60.9771C78.3658 60.981 78.3619 60.981 78.3541 60.9849C78.3424 61.0005 78.3346 61.0317 78.3346 61.0512C78.3346 61.0668 78.3463 61.0824 78.3463 61.098C78.3463 61.1253 78.3346 61.1409 78.3346 61.1565C78.3346 61.1721 78.3424 61.1838 78.3463 61.1955C78.3502 61.215 78.3502 61.2345 78.3463 61.254C78.3463 61.2735 78.3346 61.2891 78.3268 61.3086C78.3229 61.3515 78.3346 61.3944 78.3151 61.4295C78.3034 61.449 78.2839 61.4646 78.28 61.488C78.28 61.5075 78.2917 61.527 78.2878 61.5465C78.3229 61.5153 78.3541 61.4763 78.3541 61.4178C78.3541 61.3749 78.3424 61.3125 78.3697 61.2852C78.358 61.3671 78.3853 61.4178 78.3736 61.4802C78.3736 61.4958 78.358 61.5309 78.3502 61.5426C78.3424 61.5543 78.3268 61.5738 78.319 61.5816C78.3034 61.5972 78.2839 61.6011 78.2722 61.6206C78.2683 61.6284 78.2722 61.6401 78.2644 61.6479C78.2644 61.6635 78.2566 61.683 78.2449 61.6986C78.2215 61.7298 78.1825 61.7493 78.1669 61.7805C78.163 61.7883 78.1669 61.8 78.163 61.8039C78.1591 61.8156 78.1435 61.8195 78.1357 61.8312C78.1279 61.8312 78.1084 61.8312 78.1162 61.8507C78.1279 61.8546 78.1357 61.8507 78.1435 61.8468C78.1591 61.839 78.1786 61.8195 78.1942 61.8039C78.2098 61.7883 78.2254 61.7727 78.241 61.761C78.2956 61.7181 78.358 61.6908 78.3931 61.644C78.4126 61.6167 78.4282 61.5933 78.4399 61.5621C78.4438 61.5543 78.4555 61.5426 78.4555 61.5309L78.4672 61.527ZM74.9379 57.8378C74.9379 57.8378 74.9769 57.8183 74.9925 57.8027C74.9886 57.8222 74.9613 57.8378 74.9379 57.8417C74.9379 57.8417 74.9379 57.8417 74.9379 57.8378ZM74.895 58.0952C74.8833 58.0523 74.8794 57.9977 74.8716 57.9587C74.8833 57.9821 74.8911 58.0133 74.8989 58.0445C74.9028 58.0757 74.9145 58.1108 74.9106 58.1381C74.8989 58.1303 74.8989 58.1108 74.895 58.0991V58.0952ZM74.8326 57.8534C74.8326 57.8534 74.8521 57.8378 74.8599 57.8339C74.8638 57.8378 74.8521 57.8417 74.8482 57.8495C74.856 57.8807 74.856 57.9158 74.8794 57.9353C74.8677 57.9353 74.8638 57.9431 74.8521 57.9431C74.8521 57.9275 74.8248 57.8729 74.8287 57.8534H74.8326ZM74.8209 57.7637C74.7975 57.7208 74.7702 57.6779 74.7468 57.6389C74.7585 57.5999 74.7663 57.5492 74.7702 57.4985C74.778 57.4985 74.7741 57.5102 74.7741 57.518C74.7858 57.5531 74.817 57.596 74.778 57.6116C74.7897 57.6701 74.817 57.7208 74.8287 57.7832C74.8209 57.7793 74.8248 57.7715 74.817 57.7637H74.8209ZM74.7858 57.9353C74.7858 57.9353 74.8131 57.9353 74.8131 57.9236C74.8092 57.9119 74.7936 57.9236 74.7858 57.9236C74.7702 57.9275 74.7546 57.9314 74.739 57.9275C74.7078 57.9197 74.6727 57.9041 74.661 57.8768C74.6493 57.8573 74.6454 57.8261 74.6454 57.7988C74.6454 57.752 74.6454 57.6935 74.6376 57.6623C74.6337 57.7403 74.622 57.8417 74.6532 57.9002C74.6688 57.9119 74.6844 57.9236 74.7 57.9314C74.7234 57.9392 74.7585 57.9431 74.7897 57.9353H74.7858ZM79.0951 61.8819C79.0951 61.8819 79.0639 61.8741 79.0522 61.8663C79.021 61.8624 78.982 61.8624 78.9508 61.8624C78.9196 61.8585 78.8923 61.8585 78.8572 61.8507C78.826 61.8468 78.7948 61.8429 78.7636 61.8351C78.7402 61.8273 78.7129 61.8078 78.6895 61.7922C78.6037 61.7493 78.5179 61.7064 78.4243 61.6713C78.4438 61.6401 78.4672 61.6167 78.4828 61.5855C78.5023 61.5465 78.5062 61.4958 78.514 61.4451C78.5179 61.4139 78.5296 61.3788 78.5335 61.3515C78.5374 61.2852 78.5335 61.2267 78.5296 61.1682C78.5101 60.9849 78.5296 60.8055 78.5218 60.6339C78.5179 60.5637 78.5023 60.4896 78.4789 60.4233C78.4555 60.357 78.4399 60.283 78.4165 60.2284C78.4087 60.2089 78.3931 60.1777 78.3814 60.166C78.3697 60.1504 78.3463 60.1387 78.3385 60.1231C78.3385 60.1153 78.3385 60.1075 78.3385 60.0958C78.3307 60.0724 78.2995 60.0646 78.2839 60.049C78.2683 60.0373 78.2605 60.0256 78.2488 60.0178C78.2371 60.0061 78.2215 60.0022 78.2059 59.9944C78.1942 59.9905 78.1786 59.9905 78.1669 59.9827C78.1552 59.9788 78.1513 59.9671 78.1435 59.9632C78.1045 59.9398 78.0694 59.9515 78.0187 59.9398C78.0109 59.9398 78.0031 59.932 77.9953 59.932C77.9329 59.9125 77.8432 59.9281 77.7769 59.9047C77.7028 59.8852 77.6404 59.8462 77.578 59.8267C77.5819 59.7916 77.5546 59.7838 77.5351 59.7721C77.5351 59.7526 77.5507 59.7175 77.5273 59.7058H77.5C77.465 59.5849 77.4455 59.4679 77.4143 59.3548C77.3987 59.2963 77.3714 59.2417 77.3636 59.1871C77.3597 59.1559 77.3558 59.1286 77.348 59.0896C77.348 59.0584 77.3363 59.0272 77.3324 58.996C77.3207 58.9453 77.3246 58.9024 77.3207 58.8556C77.3363 58.8322 77.3753 58.8088 77.3714 58.7737C77.3714 58.7698 77.3714 58.762 77.3714 58.7542C77.3675 58.7308 77.3519 58.7113 77.3402 58.6918C77.309 58.6216 77.2973 58.5398 77.2817 58.4618C77.2661 58.376 77.2544 58.298 77.2271 58.2278C77.2193 58.2044 77.2076 58.181 77.1998 58.1576C77.1998 58.1576 77.1959 58.1576 77.1959 58.1537C77.1881 58.103 77.1686 58.0796 77.1218 58.0718C77.1179 58.0562 77.1023 58.0445 77.0945 58.025C77.0906 58.0133 77.0672 57.9899 77.0672 57.9782C77.0633 57.9509 77.0711 57.9314 77.0633 57.9119C77.0633 57.9002 77.0477 57.8963 77.0438 57.8846C77.0438 57.8729 77.0477 57.8651 77.0438 57.8534C77.0438 57.8378 77.0282 57.8378 77.0243 57.8222C77.0438 57.791 77.0243 57.7598 77.0087 57.7403C77.0243 57.7169 77.0087 57.6935 76.9931 57.6779C77.0126 57.6545 76.9892 57.6272 76.9775 57.6077C76.9892 57.5804 76.9775 57.5531 76.9619 57.5375C76.9775 57.4985 76.958 57.4751 76.9502 57.4556C76.9502 57.4517 76.9502 57.44 76.9502 57.4322C76.9502 57.4205 76.9385 57.4127 76.9346 57.4049C76.9346 57.3932 76.9346 57.3815 76.9307 57.3737C76.9307 57.362 76.9268 57.3464 76.919 57.3347C76.9073 57.2645 76.8995 57.2216 76.8566 57.1709C76.7903 57.0968 76.6967 57.0773 76.6226 57.0773C76.5407 57.0695 76.4588 57.1046 76.3925 57.1475C76.3457 57.1787 76.3184 57.2216 76.3028 57.2723C76.3028 57.2762 76.2989 57.284 76.2911 57.2879C76.2716 57.323 76.256 57.362 76.256 57.4049C76.2443 57.4322 76.2365 57.4595 76.2287 57.4829C76.2248 57.4985 76.2287 57.5102 76.2248 57.5258C76.2248 57.5297 76.2209 57.5414 76.217 57.5492C76.217 57.557 76.2209 57.5648 76.2209 57.5765C76.1975 57.5921 76.2014 57.6233 76.2053 57.6506C76.1858 57.6623 76.1858 57.7013 76.2014 57.713C76.178 57.7325 76.178 57.7793 76.1975 57.8027C76.1936 57.8183 76.1819 57.8222 76.1819 57.8378C76.1819 57.8534 76.1936 57.8612 76.1936 57.8729C76.1936 57.8846 76.178 57.8924 76.1741 57.9041C76.1702 57.9275 76.1741 57.9392 76.1819 57.9548C76.1663 57.9743 76.1507 58.0016 76.1624 58.0328C76.1585 58.0445 76.1468 58.0484 76.1429 58.0601C76.139 58.064 76.1429 58.0757 76.139 58.0835C76.1351 58.103 76.1156 58.1147 76.1039 58.1264C76.0922 58.1381 76.0844 58.1537 76.0766 58.1693C76.0493 58.2122 76.0298 58.259 76.0142 58.3097C75.9713 58.4891 75.9362 58.6918 75.8855 58.8634C75.8738 58.8985 75.8699 58.9336 75.8504 58.9648C75.7569 58.9297 75.6477 58.918 75.5463 58.8946C75.5424 58.8751 75.5463 58.8556 75.5307 58.8478C75.5112 58.8361 75.4878 58.8517 75.4683 58.8595C75.4605 58.8361 75.4176 58.8244 75.3942 58.84C75.3825 58.8322 75.3669 58.8283 75.3591 58.8166C75.3474 58.7659 75.3201 58.7269 75.285 58.6996C75.2694 58.6879 75.246 58.6801 75.2265 58.6645C75.1953 58.645 75.168 58.6294 75.1329 58.6178C75.1095 58.61 75.0666 58.5827 75.0549 58.5632C75.0549 58.5593 75.0549 58.5437 75.051 58.5359C75.0198 58.4189 74.9886 58.3058 74.9613 58.1888C74.9574 58.1693 74.9496 58.1459 74.9496 58.1342C74.9496 58.1225 74.9574 58.1225 74.9613 58.1108C74.9613 58.0991 74.9574 58.0796 74.9535 58.064C74.9379 58.0133 74.9223 57.9704 74.9184 57.9236C74.973 57.9158 75.012 57.8924 75.0471 57.8612C75.0666 57.83 75.0861 57.8066 75.0822 57.7559C75.0705 57.6272 74.9691 57.5336 74.9613 57.3932C74.9613 57.362 74.9691 57.3347 74.9574 57.3113C74.9418 57.3113 74.934 57.3347 74.9301 57.3503C74.8911 57.4595 74.9574 57.5531 74.973 57.6506C74.9808 57.6935 74.973 57.7403 74.9418 57.7676C74.9262 57.7793 74.8989 57.8066 74.8833 57.7949C74.8677 57.7559 74.8599 57.6935 74.8677 57.6467C74.8521 57.6233 74.8833 57.5999 74.8755 57.5726C74.8755 57.5609 74.856 57.5453 74.8443 57.5375C74.8365 57.5219 74.8248 57.5102 74.817 57.5024C74.7819 57.4478 74.7468 57.3815 74.7234 57.323C74.7117 57.3035 74.7078 57.2762 74.6844 57.2684C74.6688 57.2801 74.6805 57.2957 74.6805 57.3074C74.6883 57.3542 74.6922 57.3971 74.6961 57.4478C74.6961 57.4829 74.6961 57.5453 74.6883 57.5843C74.6844 57.596 74.6727 57.6116 74.6766 57.6233C74.6805 57.6311 74.6922 57.6389 74.6961 57.6467C74.7039 57.6584 74.7078 57.6701 74.7156 57.6818C74.7468 57.7208 74.7663 57.7676 74.7858 57.8144C74.7741 57.8183 74.7663 57.8339 74.7702 57.8495C74.7 57.8768 74.6571 57.8261 74.6532 57.7676C74.6493 57.713 74.6532 57.6506 74.6415 57.596C74.6337 57.5336 74.6103 57.4751 74.5752 57.4361C74.5635 57.4244 74.5479 57.4049 74.5284 57.4127C74.5284 57.4322 74.544 57.4439 74.5518 57.4595C74.5869 57.5609 74.5713 57.7325 74.5752 57.8534C74.5752 57.908 74.6064 57.9509 74.6415 57.9704C74.6883 57.9977 74.7507 57.9821 74.8053 57.9704C74.8209 58.0133 74.8365 58.0757 74.8482 58.1225C74.8521 58.1342 74.8521 58.1459 74.856 58.1537C74.8599 58.1576 74.8716 58.1615 74.8755 58.1693C74.8833 58.1771 74.8872 58.2083 74.8911 58.2278C74.9262 58.3643 74.9613 58.5086 74.9925 58.6372C74.9925 58.6489 74.9808 58.6528 74.9769 58.6606C74.9691 58.6801 74.973 58.6996 74.973 58.723C74.973 58.7347 74.973 58.7464 74.973 58.7542C74.973 58.7659 74.9847 58.7776 74.9886 58.7893C74.9925 58.8166 74.9886 58.84 75.0081 58.8517C75.0081 58.879 75.0237 58.9063 75.0393 58.9219C75.051 58.9336 75.0666 58.9375 75.0744 58.9492C75.0822 58.9609 75.09 58.996 75.0939 59.0155C75.0978 59.0428 75.1056 59.0662 75.1095 59.0857C75.1446 59.2261 75.1758 59.3587 75.2109 59.4991C75.3279 59.9593 75.4371 60.4155 75.5502 60.8757C75.5736 60.9693 75.6009 61.059 75.6126 61.1565C75.5931 61.1604 75.5697 61.1682 75.5502 61.176C75.519 61.1916 75.4878 61.2033 75.4527 61.215C75.402 61.2384 75.3474 61.2657 75.3084 61.293C75.3006 61.2969 75.2889 61.3047 75.2811 61.3086C75.1602 61.3905 75.0744 61.527 74.9964 61.6557C74.9847 61.6752 74.973 61.6947 74.9613 61.7142C74.9574 61.7259 74.9535 61.7415 74.9457 61.7532C74.9418 61.7649 74.9301 61.7766 74.9262 61.7883C74.9028 61.8429 74.8833 61.8975 74.8755 61.9638C74.8638 62.0456 74.8755 62.1236 74.8989 62.186C74.8638 62.186 74.7858 62.1977 74.7858 62.2328C74.7858 62.2523 74.8092 62.2718 74.8131 62.2835C74.7936 62.2913 74.7819 62.2952 74.7546 62.2874C74.7117 62.2835 74.6493 62.2757 74.6142 62.2913C74.6025 62.2991 74.583 62.3147 74.5869 62.3303C74.5869 62.3615 74.6571 62.3693 74.6883 62.3693C74.7039 62.3693 74.7156 62.3654 74.7234 62.3654C74.7507 62.3654 74.7819 62.3654 74.8053 62.3732C74.817 62.3771 74.817 62.3849 74.8209 62.3849C74.8248 62.3849 74.8365 62.3849 74.8482 62.3849C74.856 62.3849 74.8638 62.3888 74.8755 62.3888C74.9067 62.3888 74.9379 62.3888 74.9613 62.3888C74.9574 62.3966 74.9457 62.4044 74.9379 62.4122C74.9418 62.4239 74.9379 62.4317 74.9379 62.4473C74.9535 62.4746 74.973 62.4824 75.0042 62.4902C75.0666 62.5058 75.1173 62.4746 75.1758 62.4824C75.2187 62.4863 75.2616 62.5097 75.3123 62.5019C75.2928 62.5253 75.2772 62.5682 75.2967 62.5955C75.3084 62.6111 75.324 62.6111 75.3357 62.6189C75.3825 62.6228 75.4293 62.6228 75.4722 62.6189C75.5034 62.6189 75.5619 62.5994 75.5892 62.6189C75.6009 62.6228 75.6048 62.6423 75.6165 62.6579C75.6165 62.6618 75.6282 62.6696 75.636 62.6735C75.6399 62.6774 75.6477 62.6891 75.6516 62.693C75.6711 62.7047 75.7296 62.7164 75.7413 62.7359C75.7413 62.7359 75.7374 62.7398 75.7413 62.7437C75.7413 62.7944 75.7412 62.849 75.7685 62.888C75.7802 62.9036 75.7997 62.9114 75.8075 62.9309C75.8348 62.9465 75.8621 62.9699 75.8933 62.9894C75.9128 63.0011 75.9362 63.0089 75.9557 63.0167C75.9752 63.0284 75.9908 63.0479 76.0064 63.0635C76.0064 63.0635 76.0077 63.0635 76.0103 63.0635H76.0142C76.0025 63.0674 76.0025 63.0479 76.0025 63.0362C76.0025 63.0089 76.0142 62.9816 76.022 62.9543C76.0571 62.7866 75.9596 62.6657 75.8855 62.5877C75.8738 62.576 75.8621 62.5682 75.8582 62.5565C75.8972 62.5487 75.9206 62.5292 75.9557 62.5097C75.9713 62.5682 75.983 62.6306 75.9947 62.693C75.9986 62.7125 76.0064 62.7398 76.0181 62.7476C76.0337 62.7554 76.0688 62.7437 76.0727 62.732C76.0883 62.7086 76.0688 62.6696 76.061 62.6423C76.0493 62.5955 76.0415 62.5643 76.0298 62.5175C76.0259 62.498 76.0103 62.4629 76.0181 62.4512C76.022 62.4317 76.0844 62.4278 76.1234 62.4317C76.1429 62.4317 76.1741 62.4395 76.1975 62.4395C76.2287 62.4356 76.2521 62.4122 76.2872 62.4239C76.3028 62.4356 76.3106 62.4512 76.3262 62.4551C76.3769 62.4707 76.4354 62.4668 76.4861 62.4551C76.5095 62.4473 76.5329 62.4395 76.5563 62.4317C76.5914 62.42 76.6265 62.42 76.6499 62.4044C76.6733 62.4005 76.724 62.3888 76.724 62.3693C76.724 62.3576 76.7084 62.3576 76.7123 62.342C76.7318 62.3381 76.7513 62.3264 76.7747 62.3264C76.8059 62.3264 76.8371 62.3342 76.8644 62.3342C76.88 62.3342 76.8995 62.3264 76.9151 62.3303C76.9502 62.3342 76.9853 62.3498 77.0243 62.3459C77.0438 62.342 77.0594 62.3342 77.0867 62.3303C77.1101 62.3264 77.1374 62.3342 77.1608 62.3381C77.192 62.3381 77.231 62.3381 77.2661 62.3342C77.3129 62.3303 77.3636 62.3186 77.3948 62.303C77.4026 62.2991 77.4182 62.2835 77.4299 62.2835C77.4416 62.2835 77.4649 62.2874 77.4805 62.2952C77.5 62.2952 77.5234 62.2991 77.539 62.2991C77.5585 62.2991 77.5936 62.2952 77.5936 62.2835C77.5975 62.2718 77.5741 62.2523 77.5663 62.2445C77.5195 62.2172 77.4299 62.2172 77.3714 62.225C77.3558 62.2289 77.3363 62.2406 77.3285 62.225C77.3285 62.2094 77.3519 62.2133 77.3636 62.2055C77.3753 62.2016 77.3792 62.1899 77.387 62.1821C77.4376 62.1938 77.4961 62.1938 77.5468 62.1821C77.5741 62.2016 77.6092 62.2055 77.6521 62.2094C77.656 62.2172 77.6521 62.2289 77.656 62.2367C77.6794 62.2562 77.7184 62.2601 77.7574 62.2601C77.8588 62.264 77.9719 62.2874 78.0733 62.2913C78.1162 62.3264 78.1981 62.3186 78.2527 62.3342C78.2371 62.3381 78.2254 62.3537 78.2137 62.3615C78.1396 62.342 78.0538 62.3498 77.9914 62.3693C77.9641 62.381 77.9524 62.4122 77.9758 62.4317C77.9992 62.4551 78.0499 62.459 78.0928 62.459C78.1357 62.459 78.1825 62.4707 78.2254 62.459C78.241 62.459 78.2683 62.4434 78.2761 62.4356C78.2878 62.4317 78.2917 62.4161 78.2917 62.4044C78.3346 62.4044 78.4516 62.4083 78.4594 62.3654C78.4594 62.3498 78.4477 62.3459 78.4438 62.3381C78.4672 62.342 78.4711 62.3108 78.4906 62.3069H78.5218C78.5218 62.3069 78.553 62.2991 78.5608 62.2952C78.5803 62.2835 78.5842 62.2679 78.5998 62.2562C78.6271 62.2562 78.6505 62.264 78.6739 62.2523C78.7012 62.2406 78.7207 62.2133 78.748 62.2094C78.7792 62.2016 78.8026 62.2094 78.8338 62.2172C78.8611 62.2211 78.8923 62.2328 78.9235 62.2328C78.9508 62.2367 78.9898 62.2328 79.0132 62.2172C79.0288 62.2133 79.0405 62.1938 79.0561 62.1899C79.0834 62.1821 79.1185 62.186 79.138 62.1587C79.138 62.1548 79.138 62.1392 79.138 62.1353C79.1926 62.1119 79.216 62.0729 79.2082 61.9989C79.2043 61.9287 79.1497 61.8819 79.0834 61.8702L79.0951 61.8819ZM77.5196 62.3654C77.5702 62.3537 77.6599 62.3498 77.6794 62.3966C77.7379 62.3966 77.7925 62.4083 77.8237 62.4317C77.8315 62.4551 77.8159 62.4629 77.7964 62.4785C77.773 62.4902 77.7379 62.5097 77.695 62.5019C77.6794 62.5019 77.656 62.4902 77.6404 62.4824C77.6014 62.4785 77.5546 62.4824 77.5273 62.4824C77.4844 62.4785 77.4026 62.4785 77.3753 62.4551C77.3636 62.4473 77.3597 62.4317 77.3714 62.42C77.348 62.4161 77.309 62.4083 77.2973 62.3927C77.2544 62.3576 77.3441 62.3459 77.3714 62.3459C77.3987 62.3459 77.4221 62.3498 77.4416 62.3576C77.4572 62.3615 77.465 62.3732 77.4767 62.3732C77.4883 62.3732 77.504 62.3654 77.5196 62.3615V62.3654ZM77.3168 61.8C77.3168 61.8 77.3636 61.7805 77.3792 61.7688C77.348 61.7337 77.2505 61.7376 77.2544 61.8078C77.2583 61.8351 77.3207 61.8429 77.3168 61.8039V61.8ZM77.7847 60.9927C77.7847 60.9927 77.8393 60.9849 77.8549 60.9927C77.8588 61.0161 77.8354 61.0356 77.8159 61.0317C77.8003 61.0317 77.7808 61.0122 77.7808 60.9927H77.7847ZM77.6482 60.4896C77.6365 60.5325 77.695 60.5442 77.7262 60.5325C77.7262 60.5247 77.7262 60.5247 77.7184 60.5208C77.6989 60.5325 77.6638 60.5364 77.6599 60.5091C77.6599 60.5091 77.6716 60.513 77.6794 60.513C77.7028 60.4974 77.6716 60.4779 77.6482 60.4857V60.4896ZM77.7067 60.4545C77.6638 60.4311 77.6209 60.4623 77.5858 60.4545C77.578 60.4545 77.5702 60.4428 77.5624 60.4428C77.5624 60.4779 77.578 60.4935 77.6092 60.4974C77.6248 60.5442 77.6755 60.5598 77.7418 60.5598C77.7496 60.5637 77.7457 60.5754 77.7574 60.5754C77.7652 60.5754 77.7769 60.5598 77.7769 60.552C77.7769 60.5403 77.7652 60.513 77.7613 60.5091C77.7574 60.4896 77.7223 60.4662 77.7067 60.4545ZM77.9758 60.5208C78.0109 60.5364 78.0538 60.5208 78.0616 60.4857C78.0577 60.4818 78.0538 60.474 78.0421 60.474C78.0421 60.4974 78.0265 60.5208 77.9992 60.513C78.0148 60.5052 78.0148 60.4857 77.9992 60.474C77.9797 60.474 77.9719 60.4857 77.9719 60.5052C77.968 60.5091 77.9602 60.5052 77.9602 60.5208C77.9641 60.5247 77.968 60.5169 77.9758 60.5169V60.5208ZM78.0811 60.4467C78.0538 60.4467 78.0265 60.4272 77.9992 60.4311C77.9797 60.4311 77.9563 60.4506 77.9407 60.4662C77.929 60.4857 77.9134 60.5247 77.9134 60.5481C77.9134 60.552 77.9134 60.5598 77.9251 60.5637C77.9368 60.5676 77.9329 60.5481 77.9407 60.5481C77.9953 60.552 78.0304 60.552 78.0577 60.5325C78.0733 60.5208 78.0811 60.4974 78.0889 60.474C78.0967 60.4584 78.1162 60.4428 78.1084 60.4233C78.1084 60.4233 78.1084 60.4233 78.1045 60.4233C78.0967 60.4272 78.0889 60.4428 78.0772 60.4467H78.0811ZM77.8666 60.4428C77.8666 60.4428 77.8432 60.4155 77.8432 60.4116C77.8354 60.4428 77.8159 60.4467 77.8003 60.4506C77.7847 60.4545 77.7769 60.4428 77.7691 60.4428C77.7652 60.4857 77.8315 60.474 77.8432 60.4506C77.8549 60.4662 77.9017 60.4857 77.9056 60.4467C77.89 60.4545 77.8744 60.4506 77.8588 60.4428H77.8666ZM76.6538 59.1949C76.6928 59.1559 76.6889 59.0896 76.646 59.0623C76.646 59.0623 76.646 59.0623 76.6421 59.0623C76.6226 59.074 76.6031 59.0974 76.5992 59.1247C76.5992 59.1559 76.6109 59.1754 76.6226 59.191C76.6343 59.2105 76.6421 59.2105 76.6577 59.1949H76.6538ZM76.6343 59.0506C76.5953 59.0545 76.5641 59.074 76.5524 59.0974C76.5407 59.1169 76.5368 59.1481 76.5485 59.1715C76.5602 59.1949 76.6031 59.2261 76.6343 59.2261C76.6694 59.2261 76.7123 59.1988 76.724 59.1754C76.7552 59.1091 76.7006 59.0467 76.6304 59.0506H76.6343ZM76.6304 57.8378C76.6304 57.8378 76.646 57.8339 76.6538 57.8339C76.6538 57.8417 76.6343 57.8378 76.6304 57.8378ZM76.724 57.7832C76.724 57.7832 76.7435 57.791 76.7435 57.8105C76.724 57.8105 76.7162 57.8144 76.7084 57.8144C76.7084 57.8339 76.6967 57.8495 76.6811 57.8573C76.6655 57.8612 76.6343 57.8612 76.6226 57.8573C76.6031 57.8495 76.6031 57.8261 76.5953 57.8144C76.5875 57.8144 76.5758 57.8144 76.5641 57.8144C76.5602 57.8066 76.5563 57.791 76.5641 57.7871C76.5719 57.7871 76.5719 57.7988 76.5875 57.7988C76.607 57.8027 76.6265 57.7754 76.6538 57.7949C76.6616 57.7949 76.6733 57.7871 76.685 57.791C76.6928 57.791 76.7045 57.7949 76.7123 57.7949C76.7162 57.7949 76.724 57.7871 76.7279 57.7871L76.724 57.7832Z" fill="#191917"/>
<path fill-rule="evenodd" clip-rule="evenodd" d="M76.646 36.1628L74.0721 55.4901L76.6499 54.1174V36.1628H76.646Z" fill="#EE7A00"/>
<path fill-rule="evenodd" clip-rule="evenodd" d="M71.1473 58.1459L61.2146 54.9091L71.7206 60.9537L71.1473 58.1459Z" fill="#EE7A00"/>
<path fill-rule="evenodd" clip-rule="evenodd" d="M92.0774 54.9013L80.1207 56.1882L82.1759 58.1342L92.0774 54.9013Z" fill="#EE7A00"/>
<path fill-rule="evenodd" clip-rule="evenodd" d="M80.0973 64.5805L86.4071 73.1366L81.2516 62.0496L80.0973 64.5805Z" fill="#EE7A00"/>
<path fill-rule="evenodd" clip-rule="evenodd" d="M66.881 73.1483L76.0805 64.9978L73.2064 64.5766L66.8849 73.1483H66.881Z" fill="#EE7A00"/>
<path fill-rule="evenodd" clip-rule="evenodd" d="M77.0048 64.7872L79.9374 64.366L81.1151 61.7532L77.0048 64.7872Z" fill="#EE7A00"/>
<path fill-rule="evenodd" clip-rule="evenodd" d="M72.1886 61.7571L73.3663 64.3621L76.2911 64.7872L72.1847 61.7571H72.1886Z" fill="#EE7A00"/>
<path fill-rule="evenodd" clip-rule="evenodd" d="M73.4911 56.2701L71.4047 58.2278L71.9897 61.0629L73.4911 56.2701Z" fill="#EE7A00"/>
<path fill-rule="evenodd" clip-rule="evenodd" d="M79.8048 56.2701L81.8912 58.2278L81.3062 61.0668L79.8048 56.274V56.2701Z" fill="#EE7A00"/>
<path fill-rule="evenodd" clip-rule="evenodd" d="M79.255 55.8294L76.6538 54.4216L74.0448 55.8294H79.255Z" fill="#EE7A00"/>
</svg>
