<svg width="108" height="108" viewBox="0 0 108 108" fill="none" xmlns="http://www.w3.org/2000/svg">
<path d="M94 44H14V64.2891H94V44Z" fill="#282D68"/>
<path d="M34.5621 56.2459C35.2984 56.2459 35.6634 55.9974 35.6634 55.4974C35.6634 54.9974 35.2892 54.7244 34.5376 54.7244H34.013V56.2459H34.5621ZM34.0161 53.6476H34.3689C34.7002 53.6476 34.9425 53.5986 35.0928 53.5035C35.2431 53.4053 35.3198 53.2519 35.3198 53.0372C35.3198 52.6353 35.0345 52.4329 34.467 52.4329H34.0161V53.6476ZM32.9148 57.3012V51.3531H34.1388C34.9487 51.3531 35.5315 51.4788 35.8904 51.7273C36.2462 51.9758 36.4242 52.3807 36.4242 52.939C36.4242 53.2243 36.3751 53.4482 36.28 53.6139C36.1818 53.7795 36.01 53.9268 35.7646 54.0556C36.1174 54.1998 36.3751 54.39 36.5377 54.6231C36.7003 54.8563 36.78 55.1569 36.78 55.5281C36.78 56.0956 36.5837 56.5343 36.1941 56.841C35.8014 57.1478 35.2401 57.2981 34.5038 57.2981H32.9179L32.9148 57.3012Z" fill="white"/>
<path d="M39.3691 54.709H40.6391L40.0041 52.9053L39.3691 54.709ZM37.0929 57.3012L39.5715 51.3531H40.4397L42.9336 57.3012H41.7188L41.0839 55.7643H38.9672L38.3077 57.3012H37.0929Z" fill="white"/>
<path d="M43.86 57.2981V51.3531H45.1147L47.578 55.6845V51.3531H48.6792V57.2981H47.4491L44.9613 52.9789V57.2981H43.86Z" fill="white"/>
<path d="M49.6547 57.2981V51.3531H50.756V53.9207L52.5996 51.3531H53.9279L51.6886 54.2734L53.9279 57.2981H52.5996L50.756 54.6845V57.2981H49.6547Z" fill="white"/>
<path d="M57.0569 57.2981V51.3531H58.5692L60.1705 55.8594L61.7564 51.3531H63.2688V57.2981H62.1675L62.1706 52.8439L60.6183 57.3012H59.7103L58.1581 52.8409V57.2981H57.0569Z" fill="white"/>
<path d="M64.14 57.2981V51.3531H67.3333V52.4053H65.2412V53.8072H67.2444V54.8593H65.2412V56.2459H67.3333V57.2981H64.14Z" fill="white"/>
<path d="M68.2107 55.6017H69.361C69.4101 56.0956 69.677 56.341 70.1647 56.341C70.4009 56.341 70.5942 56.2735 70.7445 56.1385C70.8948 56.0036 70.9684 55.8287 70.9684 55.617C70.9684 55.4054 70.9071 55.2367 70.7844 55.1017C70.6617 54.9667 70.4531 54.8471 70.1586 54.7397L69.6678 54.5556C68.8426 54.2489 68.4285 53.709 68.4285 52.939C68.4285 52.4666 68.5941 52.0678 68.9285 51.7396C69.2598 51.4114 69.6708 51.2488 70.1617 51.2488C70.6525 51.2488 71.0911 51.4052 71.4255 51.715C71.7568 52.0249 71.9255 52.4329 71.9255 52.939H70.7813C70.7813 52.7366 70.7261 52.5801 70.6126 52.4727C70.4991 52.3654 70.3457 52.3132 70.1525 52.3132C69.9745 52.3132 69.8304 52.3684 69.7138 52.4789C69.5972 52.5893 69.542 52.7335 69.542 52.9175C69.542 53.0832 69.5942 53.2182 69.6954 53.3163C69.7966 53.4145 69.9837 53.5188 70.2568 53.6262L70.5298 53.7213C71.0942 53.936 71.4899 54.1753 71.72 54.4421C71.9501 54.709 72.0666 55.0618 72.0666 55.5097C72.0666 56.0465 71.8856 56.4974 71.5206 56.8625C71.1556 57.2275 70.7046 57.4085 70.1678 57.4085C69.6034 57.4085 69.1371 57.2429 68.7659 56.9085C68.3947 56.5772 68.2107 56.1416 68.2107 55.6048" fill="white"/>
<path d="M73.7569 57.2981V52.4053H72.6618V51.3531H75.9686V52.4053H74.8582V57.2981H73.7569Z" fill="white"/>
<path d="M77.9564 51.3531H76.8521V57.3012H77.9564V51.3531Z" fill="white"/>
<path d="M78.9473 57.2981V51.3531H80.0485V53.9207L81.8922 51.3531H83.2204L80.9811 54.2734L83.2204 57.2981H81.8922L80.0485 54.6845V57.2981H78.9473Z" fill="white"/>
<path d="M86.2052 54.709H87.4752L86.8402 52.9053L86.2052 54.709ZM83.9291 57.3012L86.4077 51.3531H87.2758L89.7698 57.3012H88.555L87.92 55.7643H85.8034L85.1438 57.3012H83.9291Z" fill="white"/>
<path d="M27.2796 56.1416L26.7551 56.6662H26.2428L25.7182 56.1416V54.3747L24.3593 55.7336H23.7274L22.3684 54.3747V56.1416L21.8439 56.6662H21.3316L20.807 56.1416V52.2181L21.3132 51.712H21.9021L24.0433 53.8532L26.1845 51.712H26.7735L27.2796 52.2181V56.1416ZM24.0433 48.6229C20.9941 48.6229 18.5186 51.0954 18.5186 54.1477C18.5186 57.1999 20.9911 59.6724 24.0433 59.6724C27.0956 59.6724 29.5681 57.1999 29.5681 54.1477C29.5681 51.0954 27.0956 48.6229 24.0433 48.6229Z" fill="white"/>
</svg>
