<svg width="109" height="108" viewBox="0 0 109 108" fill="none" xmlns="http://www.w3.org/2000/svg">
<g clip-path="url(#clip0_801_8449)">
<path fill-rule="evenodd" clip-rule="evenodd" d="M58.2214 55.9347C57.6737 55.9347 57.8647 55.9322 57.5681 55.7336C57.5681 55.2075 57.8065 54.5953 57.8192 54.0249C58.1467 54.0249 58.1929 53.9724 58.4547 53.9066C58.5774 53.8756 58.671 53.8744 58.7931 53.8415C59.034 53.777 59.139 53.6176 59.5671 54.0356C59.846 54.3082 59.829 54.3436 59.829 54.7787C59.829 55.5623 58.9701 55.9347 58.2214 55.9347ZM57.9697 53.3716C57.9697 52.9624 58.0835 52.5482 58.1493 52.1441C58.3093 51.1645 58.4269 51.2612 59.2762 51.2612C60.0756 51.2612 60.2754 51.9866 59.4919 52.7328C59.3907 52.8302 59.3426 52.8473 59.2206 52.9137C58.9075 53.0832 58.3396 53.3412 57.9697 53.3716ZM56.412 51.0102C56.5689 51.2442 56.7637 51.2011 56.7637 51.4623C56.7637 51.9487 56.6296 52.3155 56.555 52.7613C56.5208 52.9668 56.5056 53.197 56.4531 53.4127L56.1085 55.3795C55.9852 56.3262 55.5077 55.8981 55.5077 56.3363C55.5077 56.5336 55.7562 56.588 55.9599 56.588C56.9831 56.588 58.8538 56.6633 59.7663 56.4748C59.9086 56.4457 60.0282 56.3857 60.1761 56.3319C61.3891 55.8892 61.8337 54.4505 61.0748 53.734C60.9654 53.6309 60.8155 53.5291 60.6783 53.4772L60.1306 53.3216C60.4715 53.2419 60.8301 53.0073 61.0716 52.8049C61.6667 52.306 61.8369 51.3555 61.0337 50.9115C60.3222 50.5181 57.7939 50.6579 56.8142 50.6579C56.5581 50.6579 56.4607 50.8002 56.412 51.0102Z" fill="#34368F"/>
<path fill-rule="evenodd" clip-rule="evenodd" d="M16.7137 55.9347C16.0585 55.9347 16.0035 55.8614 16.1394 55.1594L16.3115 54.0249L17.3252 53.8301C17.4441 53.794 17.5181 53.7466 17.6085 53.7561C18.2125 53.8168 18.7469 54.9671 17.8552 55.6192C17.5428 55.8481 17.114 55.9347 16.7137 55.9347ZM16.412 53.3716C16.5309 53.1243 16.5891 52.0454 16.7744 51.573C16.9281 51.1815 17.2285 51.2612 17.7685 51.2612C18.6122 51.2612 18.8424 52.1757 17.7097 52.9105C17.4365 53.0876 16.7529 53.364 16.412 53.3716ZM14.9043 51.0102C15.3072 51.6109 15.3862 50.749 15.0549 52.7177L14.5995 55.3782C14.5053 56.2984 14 55.905 14 56.3363C14 56.5336 14.2485 56.588 14.4522 56.588C15.4754 56.588 17.3461 56.6633 18.2587 56.4748C18.4009 56.4457 18.5205 56.3856 18.6685 56.3319C20.0408 55.831 20.5904 53.8604 18.8904 53.4057C18.8797 53.4032 18.7766 53.3766 18.7709 53.3747L18.6229 53.3216C18.9828 53.2375 19.4065 52.958 19.6367 52.7271C19.6443 52.7196 19.6538 52.7088 19.6607 52.7012C19.8688 52.4792 20.0484 52.1694 20.0667 51.8544C20.1173 50.9817 19.1883 50.6579 18.3219 50.6579H15.3066C15.0504 50.6579 14.9537 50.8002 14.9043 51.0102Z" fill="#34368F"/>
<path fill-rule="evenodd" clip-rule="evenodd" d="M80.1811 55.9347C79.223 55.9347 79.1471 56.268 79.7663 53.259C79.8181 53.0092 80.03 51.604 80.1008 51.4826C80.3101 51.1234 81.6148 51.1588 82.0929 51.7615C83.1256 53.0636 82.1239 55.9347 80.1811 55.9347ZM78.1707 50.9596C78.1707 51.2334 78.5223 51.2568 78.5223 51.4117L77.8412 55.4541C77.6698 56.3477 77.2664 55.8171 77.2664 56.4875C77.4415 56.5279 77.4358 56.588 77.618 56.588C79.4602 56.588 80.8351 56.779 82.3484 56.0922C83.2104 55.7007 83.6948 54.8046 83.9769 53.9515C84.1856 53.3222 84.128 52.5817 83.8795 51.9847L83.569 51.4914C83.0934 50.9564 82.3206 50.6579 81.4371 50.6579H78.6229C78.38 50.6579 78.1707 50.7199 78.1707 50.9596Z" fill="#34368F"/>
<path fill-rule="evenodd" clip-rule="evenodd" d="M70.4319 55.9347C69.3087 55.9347 69.6584 55.9423 70.0948 53.2856C70.1599 52.8903 70.2466 52.5368 70.3098 52.0935C70.4306 51.2479 70.4913 51.2612 71.3868 51.2612C71.5867 51.2612 71.8194 51.3554 71.9743 51.4269C72.2052 51.5338 72.2703 51.6027 72.4303 51.7754C73.3726 52.7891 72.7124 55.9347 70.4319 55.9347ZM68.472 50.9596C68.5549 51.1164 68.4954 51.0702 68.6434 51.191C68.9052 51.4041 68.9527 51.2619 68.7636 52.0549C68.615 52.6797 68.2646 55.5882 68.023 55.8873C67.8441 56.1093 67.6183 56.0182 67.6183 56.3869C67.6183 56.5634 67.8409 56.588 68.0199 56.588C69.6009 56.588 71.7435 56.7765 72.909 55.9493C73.6376 55.432 73.9639 54.9665 74.2719 54.0957C74.6728 52.9605 74.3813 51.3978 73.0602 50.8944C72.1255 50.539 70.091 50.6579 68.9748 50.6579C68.651 50.6579 68.5846 50.7477 68.472 50.9596Z" fill="#34368F"/>
<path fill-rule="evenodd" clip-rule="evenodd" d="M33.749 50.9596C33.749 51.1569 33.9672 51.241 34.1006 51.3112L33.5858 54.6661C33.546 54.8571 33.4935 55.148 33.4619 55.346C33.4163 55.6305 33.4227 55.7912 33.2494 55.9373C33.1387 56.0302 32.844 56.1637 32.844 56.3363C32.844 56.4988 33.0268 56.588 33.1962 56.588H34.8544C35.0676 56.588 35.206 56.4925 35.206 56.2863C35.206 55.8158 34.6419 56.4451 34.9651 55.0905C34.9809 55.0228 35.0182 54.8653 35.0347 54.7578L35.0676 54.489C35.1245 54.2297 35.151 54.2784 35.4413 54.1096C35.5899 54.0236 35.6823 53.9591 35.8094 53.8743L36.3286 54.8122C36.4506 55.0563 36.7637 55.6495 36.7637 55.8841C36.7637 56.0214 36.4879 56.0119 36.4121 56.3363C36.517 56.5349 36.5632 56.588 36.8642 56.588C38.4851 56.588 38.7235 56.7581 38.7235 56.0852C38.4054 56.0005 38.3725 55.6976 38.2574 55.3959C38.1354 55.0746 38.0336 54.8552 37.8862 54.5611L37.2323 53.4063C37.1172 53.2084 37.0717 53.2628 37.0154 53.0199C37.2171 52.9662 37.7774 52.428 37.988 52.2339L38.2283 52.022C38.6982 51.6305 38.4598 51.6514 39.1308 51.2663C39.5849 51.0051 39.3635 50.6579 39.0252 50.6579C38.5894 50.6579 37.3512 50.4998 37.417 51.0101C37.5668 51.2928 37.5719 51.1429 37.7186 51.3618C37.6396 51.6571 37.4113 51.7697 37.2045 51.9531C37.1494 52.0011 37.1311 52.0264 37.0767 52.0764L35.256 53.4721L35.4774 51.9847C35.6215 51.0424 36.1578 51.2739 36.1104 50.9096C36.0282 50.7534 36.001 50.6579 35.7588 50.6579C35.158 50.6579 33.749 50.5055 33.749 50.9596Z" fill="#34368F"/>
<path fill-rule="evenodd" clip-rule="evenodd" d="M27.2661 51.0102C27.7031 51.6622 27.7208 50.8926 27.576 52.1239C27.5406 52.4274 27.5153 52.5046 27.4628 52.7639L26.9935 55.4105C26.9442 55.6957 26.9929 55.8165 26.8026 55.9734C26.5863 56.1517 26.4939 56.0366 26.4124 56.387C26.6255 56.7057 26.8272 56.5881 27.7689 56.5881C28.025 56.5881 28.1218 56.4464 28.1711 56.2364C28.1028 56.158 28.0503 56.115 27.9618 56.0436C27.6095 55.7615 27.7954 55.4428 27.9061 54.8154L28.3216 52.0651L30.0734 55.2885C30.3592 55.8304 30.5705 56.5881 31.0353 56.5881C32.0844 56.5881 31.7126 56.2238 32.0788 54.6168L32.6682 51.4364C32.801 51.0557 33.1956 51.3523 33.0451 50.7085C32.7953 50.6504 31.4375 50.496 31.4375 50.9596C31.4375 51.2429 31.7891 51.1013 31.7891 51.6129L31.3369 54.4771C31.1852 54.3664 31.2712 54.4056 31.0726 53.9876C30.8247 53.4671 30.5629 52.8581 30.272 52.3762L29.3765 50.9096C29.1355 50.5378 28.3197 50.6579 27.6683 50.6579C27.4122 50.6579 27.3154 50.8002 27.2661 51.0102Z" fill="#34368F"/>
<path fill-rule="evenodd" clip-rule="evenodd" d="M64.1509 53.6732C64.2027 53.4519 64.223 53.2299 64.259 52.9776C64.2894 52.7657 64.3387 52.5456 64.3804 52.2952C64.5594 51.2239 64.5069 51.2612 65.4574 51.2612C65.6098 51.2612 65.9305 51.4288 66.0152 51.5072C66.5464 51.998 66.0835 52.9283 65.5751 53.2381C65.3284 53.388 65.2804 53.443 64.9749 53.543C64.6442 53.6505 64.5727 53.6732 64.1509 53.6732ZM62.6938 50.9096C62.6938 51.2871 62.9929 51.1449 63.0353 51.4718C63.0498 51.5863 63.041 51.5426 63.0283 51.6388L62.4016 55.3915C62.3011 56.1675 61.8995 55.9132 61.7888 56.3869C61.797 56.3958 61.8072 56.3996 61.811 56.4154C61.8141 56.4312 61.828 56.4375 61.8331 56.4432C61.9298 56.5425 61.9703 56.588 62.1411 56.588H63.8492C64.1528 56.588 64.2008 56.4274 64.2008 56.2364C64.2008 56.0656 63.8492 55.9695 63.8492 55.8342C63.8492 55.4174 64.0503 54.8476 64.0503 54.2766C65.0084 54.2766 65.971 54.2076 66.795 53.6536C67.1264 53.431 67.2674 53.3222 67.5046 53.0067C68.3608 51.8683 67.7006 50.6579 65.8091 50.6579H63.0954C62.9303 50.6579 62.6938 50.8109 62.6938 50.9096Z" fill="#34368F"/>
<path fill-rule="evenodd" clip-rule="evenodd" d="M23.4975 51.8639C23.5114 52.0303 23.5633 52.1947 23.6196 52.3452C23.7467 52.6823 23.9497 53.6024 23.9497 53.9749H22.141C22.3408 53.5961 22.5179 53.2249 22.7462 52.872C22.812 52.7702 22.8329 52.7563 22.91 52.6336C23.0232 52.4546 23.3761 51.9455 23.4975 51.8639ZM19.8795 56.2864C19.8795 56.7019 19.7745 56.588 21.4371 56.588C21.6458 56.588 21.6382 56.4015 21.6382 56.2864C21.6382 56.0239 21.2866 56.1371 21.2866 55.7836C21.2866 55.5363 21.6597 55.0184 21.7388 54.6782H24.1002C24.1413 55.1683 24.2008 55.2429 24.2008 55.8842C24.2008 56.2092 23.7992 55.888 23.7992 56.3869C23.7992 56.5412 23.9459 56.588 24.1002 56.588H25.8589C26.0721 56.588 26.2112 56.4926 26.2112 56.2864C26.2112 56.1163 25.9336 56.0391 25.8393 55.7033C25.759 55.42 25.7609 55.1354 25.6964 54.8407L25.0052 52.1156C24.861 51.728 24.8521 51.5699 24.6207 51.0424C24.4335 50.6168 24.4329 50.5574 23.9497 50.5574C23.5083 50.5574 23.3091 50.9476 22.9663 51.3833C22.8613 51.5174 22.7955 51.5869 22.7032 51.7229L22.2055 52.4312C22.0284 52.6816 21.883 52.9365 21.723 53.2053C21.1753 54.1267 20.9375 54.6339 20.474 55.6249C20.2197 56.1688 19.8795 56.0138 19.8795 56.2864Z" fill="#34368F"/>
<path fill-rule="evenodd" clip-rule="evenodd" d="M87.8188 50.9595C87.8188 51.2302 88.1363 51.1025 88.3412 51.6938C88.4582 52.0309 88.5891 52.299 88.7403 52.6013C88.8933 52.9067 89.0261 53.1445 89.176 53.4222C89.7964 54.57 89.723 53.8288 89.5801 54.8818C89.5453 55.1373 89.4985 55.5578 89.3872 55.7937C89.3069 55.9632 89.3335 55.9018 89.1646 55.9733C88.3292 56.3275 88.9085 56.588 89.1254 56.588H91.1358C91.4109 56.588 91.7088 56.2566 91.2585 56.0625C90.9689 55.9379 90.9847 56.0062 90.9847 55.6331L91.1687 54.41C91.2212 54.0716 91.2459 54.1513 91.6595 53.6947L93.5333 51.4478C93.7711 51.2075 94 51.265 94 50.859C94 50.546 93.1621 50.6579 92.6435 50.6579C92.4203 50.6579 92.3305 50.7761 92.2413 50.9096C92.3178 51.2372 92.4171 51.0993 92.5929 51.3618L92.2811 51.9543C92.1268 52.1472 92.0168 52.2914 91.8549 52.483C91.7758 52.576 91.736 52.6361 91.6544 52.7347C91.6057 52.7942 91.5823 52.8245 91.5406 52.872L91.4679 52.9497C91.4609 52.9573 91.4501 52.9681 91.4432 52.9757C91.2712 53.1622 91.0441 53.3001 90.9847 53.5227C90.7602 53.4626 90.7627 53.3109 90.6426 53.111C89.2304 50.7559 90.382 51.4901 90.382 50.9096C90.382 50.7471 90.1992 50.6579 90.0304 50.6579H88.2717C88.0282 50.6579 87.8188 50.7199 87.8188 50.9595Z" fill="#34368F"/>
<path fill-rule="evenodd" clip-rule="evenodd" d="M85.1057 50.9096C85.1057 51.5875 85.6452 50.742 85.3454 52.0536C85.3049 52.2301 85.2853 52.4988 85.2493 52.7113C85.2145 52.9175 85.174 53.1218 85.1329 53.3494C85.0279 53.9313 84.9154 55.6514 84.6042 55.936C84.455 56.0726 84.2513 56.1219 84.2513 56.3869C84.2513 56.5412 84.3987 56.588 84.553 56.588H86.1606C86.4041 56.588 86.6128 56.526 86.6128 56.2864C86.6128 56.0606 86.2611 56.0182 86.2611 55.8841C86.2611 55.2321 86.8328 52.7493 86.9176 51.9177C87.0061 51.0513 87.5177 51.3181 87.5177 50.9096C87.5177 50.7471 87.335 50.6579 87.1655 50.6579H85.5579C85.3543 50.6579 85.1057 50.7123 85.1057 50.9096Z" fill="#34368F"/>
<path fill-rule="evenodd" clip-rule="evenodd" d="M52.0174 53.7048C52.0174 54.472 52.0269 54.8482 51.896 55.628C51.6696 56.9757 51.2263 58.1652 50.4149 59.2498C49.656 60.2642 48.4778 61.075 47.1377 61.075C46.7823 61.075 46.4585 61.0079 46.1815 60.9377C45.059 60.6519 44.0503 59.6489 43.4565 58.6617C42.4395 56.9725 42.0671 54.8059 42.3244 52.7385C42.4825 51.4667 42.8923 50.298 43.4362 49.3956C44.7219 47.2599 46.9986 46.1463 49.2032 47.6097C49.8489 48.0391 50.4048 48.681 50.8063 49.3475C51.0163 49.6954 51.0327 49.7554 51.194 50.0735C51.6816 51.0354 52.0174 52.6177 52.0174 53.7048ZM44.0598 46.7901C43.8467 47.0715 43.6474 47.3618 43.4609 47.6792C43.4122 47.7621 43.3705 47.8335 43.3306 47.9139C42.9581 48.6715 42.8272 48.8467 42.5237 49.7586C41.5573 52.6588 41.453 56.1301 42.7229 59.0304C42.764 59.1246 42.8057 59.2056 42.8449 59.2935C42.9651 59.5648 43.0833 59.7741 43.2225 60.029L43.8252 60.9447C43.8859 61.0218 43.9453 61.0857 43.9984 61.1565C44.0939 61.2837 44.3323 61.3033 44.5499 61.3545C46.0588 61.7086 48.6808 61.6416 50.0696 61.2735C50.2163 61.2343 50.2068 61.2426 50.2935 61.1331C51.2086 59.9727 51.767 58.7762 52.135 57.3045C52.2337 56.9086 52.3317 56.4641 52.3804 56.0315C52.4892 55.0614 52.4797 54.8052 52.4829 53.8667C52.4841 53.5986 52.4171 52.7727 52.3735 52.4577C52.2577 51.6185 52.0927 50.7806 51.8277 49.9869C51.5545 49.1692 51.2345 48.3736 50.7912 47.6413L50.3396 46.9589C50.3105 46.9203 50.2935 46.8938 50.2625 46.8539C50.2131 46.7913 50.2283 46.8002 50.1429 46.7705C49.7565 46.6383 48.9477 46.5282 48.5157 46.4947C48.0554 46.4587 47.5741 46.4207 47.0568 46.4372C46.5218 46.4384 45.9886 46.4656 45.4612 46.5232C45.2184 46.5497 44.9749 46.589 44.7403 46.6313C44.4923 46.6762 44.2906 46.7414 44.0598 46.7901Z" fill="#34368F"/>
<path fill-rule="evenodd" clip-rule="evenodd" d="M46.8303 57.1503L46.8651 57.1174C46.9866 56.977 47.2085 56.4609 47.2648 56.3022C47.49 55.6616 47.5165 55.0222 47.3603 54.3525C47.7802 54.3177 48.4569 53.9382 48.7111 53.6378C48.868 53.4525 48.9888 53.2129 49.0786 52.9732C49.279 52.4382 49.2993 51.6508 49.1399 51.0949C49.0982 50.9488 48.9768 50.5257 48.8383 50.5257C48.739 50.5257 48.5783 50.5555 48.5145 50.5865C48.7453 51.0235 48.6738 51.2846 48.7288 51.6476L48.7162 52.2661C48.6808 52.705 48.5328 53.1016 48.2716 53.4418C47.9832 53.8187 47.7568 53.9825 47.2996 54.0894C47.2231 53.7618 47.0043 53.2869 46.8133 53.0162C46.702 52.8581 46.616 52.8005 46.5704 52.7329C46.6039 52.6829 46.7077 52.6235 46.7962 52.5134C47.1725 52.048 47.2395 51.2726 47.0074 50.7161L46.8164 50.3816C46.7747 50.3265 46.7715 50.343 46.7526 50.2627C47.027 50.1988 47.4413 49.8446 47.9674 50.0799C48.0471 50.1159 48.2052 50.2001 48.2514 50.2627C48.068 50.305 47.8612 50.324 47.6721 50.2747C47.5817 50.2506 47.5614 50.2203 47.4817 50.202C47.5469 50.2993 47.8112 50.465 47.9674 50.465C48.5979 50.465 48.7541 50.2045 49.0925 50.312C49.219 50.3518 49.336 50.4872 49.3922 50.5991C49.6939 51.1955 49.6686 53.2805 49.6686 54.1299C49.6686 54.9918 49.3897 56.2592 48.9768 56.9409C48.911 57.0491 48.8199 57.2021 48.7333 57.2843C48.4645 57.5398 47.9624 57.3969 47.6784 57.2742C47.5178 57.2053 47.0979 56.9555 46.8544 57.1673L46.8303 57.1503ZM47.4381 57.1503C47.5703 57.1167 47.796 56.9251 48.1641 57.0921C48.4152 57.2065 48.3146 57.2223 48.4133 57.1673C48.3854 57.063 48.271 56.9985 48.1907 56.9441V54.312L47.9137 54.4606C47.8131 54.5112 47.7164 54.5466 47.6234 54.5953V56.8429C47.5013 56.9074 47.3894 56.9618 47.3603 57.0864L47.4381 57.1503ZM47.4817 50.1817L47.4754 50.1874C47.476 50.1868 47.4836 50.1836 47.4817 50.1817ZM47.4615 50.1615L47.4552 50.1672C47.4558 50.1665 47.4634 50.1634 47.4615 50.1615ZM47.4413 50.1412L47.4349 50.1469C47.4356 50.1463 47.4432 50.1431 47.4413 50.1412ZM47.421 50.1204L47.4147 50.1267C47.4153 50.1261 47.4229 50.1229 47.421 50.1204ZM47.4008 50.1001L47.3945 50.1065C47.3951 50.1058 47.4027 50.1027 47.4008 50.1001ZM47.3805 50.0799L47.3742 50.0862C47.3749 50.0856 47.3824 50.0824 47.3805 50.0799ZM46.3276 57.0864C46.282 57.0554 46.1657 56.9744 46.1657 56.9238V54.2918L46.8544 54.312C46.9031 54.522 46.8949 54.9918 46.8949 55.2435C46.8949 55.6641 46.8702 55.9841 46.7583 56.3022C46.6242 56.6861 46.5255 56.7904 46.3276 57.0864ZM45.5782 49.9989C45.7122 49.9882 45.6572 49.9585 45.9228 49.9585C46.1081 49.9585 46.3706 50.0597 46.4085 50.202C46.227 50.202 46.0822 50.2639 45.8128 50.1697L45.618 50.0609C45.5598 50.0065 45.6104 50.0609 45.5782 49.9989ZM44.2621 49.8168C44.2621 49.9901 44.2963 50.0654 44.4392 50.207C44.7775 50.5435 45.0786 50.2627 45.5377 50.0192C45.5763 50.1001 45.556 50.1071 45.6231 50.1773C45.8368 50.4031 46.2428 50.4106 46.53 50.3436C46.5622 50.4815 46.6071 50.5808 46.6349 50.7452C46.6931 51.0899 46.7273 52.0454 46.5502 52.3275C46.4269 52.5235 46.2492 52.5305 46.1657 52.571V50.8091C46.2998 50.7193 46.3377 50.7028 46.4288 50.5662L46.3649 50.4884C46.1714 50.6162 46.1707 50.6674 45.9026 50.6674C45.8292 50.6674 45.7293 50.6314 45.68 50.6061C45.6111 50.5706 45.5756 50.5238 45.5175 50.4853C45.4871 50.5061 45.396 50.5789 45.3758 50.6067C45.4232 50.6769 45.4827 50.7465 45.5782 50.7686V52.49C45.4877 52.4464 45.4036 52.4154 45.3151 52.368C45.3847 52.6652 45.7717 52.8543 46.0645 52.8543C46.1796 52.8543 46.2043 52.834 46.3276 52.834C46.4281 52.9839 46.559 53.2312 46.6286 53.4032C46.7608 53.7289 46.7545 53.7295 46.8341 54.0691H46.1657V53.0971C46.012 53.1332 45.9077 53.1281 45.7546 53.063C45.6857 53.0339 45.6395 52.9921 45.5782 52.9757V54.1906C45.4637 54.2513 45.3277 54.3335 45.2949 54.4739L45.5782 54.3525V56.8429C45.4726 56.8992 45.3802 56.9694 45.3151 57.0661L45.3916 57.1515C45.5567 57.106 45.6851 56.9567 46.0468 57.063C46.1353 57.0889 46.1903 57.1287 46.2669 57.1471C46.1518 57.3185 45.8109 57.5923 45.5175 57.5923C45.1013 57.5923 44.8591 57.0035 44.3804 57.4064C44.3266 57.4519 44.2191 57.5974 44.2014 57.6733C44.3096 57.6163 44.4044 57.5531 44.5277 57.5133C44.9616 57.3729 44.9072 57.7776 45.6035 57.8712C46.0487 57.9306 46.3453 57.7782 46.6286 57.4272C46.769 57.2533 46.7842 57.1876 46.9151 57.1876C47.0707 57.1876 47.2168 57.2685 47.316 57.333C47.4349 57.4095 47.5368 57.4791 47.6525 57.5632C48.2501 57.9996 48.9407 58.0717 49.4201 57.4247C49.7907 56.9245 50.0076 56.1194 50.1056 55.4782C50.1619 55.1082 50.2156 54.6788 50.215 54.2715C50.215 54.1722 50.2087 54.0445 50.2169 53.9484C50.222 53.8851 50.2334 53.8782 50.227 53.8143C50.2024 53.5626 50.2144 53.2729 50.2156 53.0162L50.1284 51.7868C50.0721 51.3371 49.9216 49.9585 49.3246 49.9585C49.1627 49.9585 48.9761 49.9958 48.8585 50.0394C48.6005 50.1349 48.6093 50.2007 48.4765 50.0982C48.2615 49.9313 47.9466 49.7561 47.6234 49.7561C47.3552 49.7561 46.8904 50.071 46.5907 50.1412C46.4958 49.9983 46.1587 49.7966 46.024 49.7966C45.5946 49.7966 44.9451 50.2791 44.615 50.0723C44.5663 50.0413 44.5157 49.9996 44.4841 49.9597C44.4462 49.9117 44.419 49.8623 44.3848 49.8143C44.357 49.7757 44.2621 49.696 44.2621 49.8168Z" fill="#34368F"/>
<path fill-rule="evenodd" clip-rule="evenodd" d="M44.1812 50.5662C44.1958 50.7383 44.4038 50.7844 44.4038 50.8698V56.7822C44.4038 56.8562 44.2565 56.8929 44.1407 57.0662L44.2173 57.1515C44.5126 57.075 44.5385 56.872 45.1735 57.2078L45.2544 57.1471C45.231 57.0453 45.1558 56.9745 45.0875 56.9093C44.9629 56.7898 44.9901 56.8258 44.9913 56.6001V50.8496C45.0982 50.8211 45.2386 50.6706 45.2949 50.5865L45.1893 50.4897C44.8174 50.7332 44.6928 50.7326 44.3229 50.4853C44.2729 50.5289 44.2571 50.5485 44.1812 50.5662Z" fill="#34368F"/>
<path fill-rule="evenodd" clip-rule="evenodd" d="M47.421 50.5865C47.4463 50.6826 47.5254 50.7458 47.6234 50.7686V53.7251C47.6993 53.7074 47.7183 53.6771 47.7777 53.636C47.8732 53.5689 48.1331 53.3596 48.1736 53.2831C48.2659 53.1098 48.1205 50.9419 48.2147 50.8135C48.2324 50.7895 48.3102 50.7402 48.3475 50.7035C48.3962 50.656 48.4379 50.6194 48.474 50.5662L48.4095 50.4885C48.216 50.6162 48.1774 50.6674 47.9269 50.6674C47.7967 50.6674 47.6164 50.558 47.5627 50.4853C47.5159 50.5169 47.471 50.553 47.421 50.5865Z" fill="#34368F"/>
<path fill-rule="evenodd" clip-rule="evenodd" d="M45.9431 59.678H45.8014V58.706H46.0038C46.2422 58.706 46.3478 58.9109 46.3478 59.1512C46.3478 59.4535 46.2485 59.678 45.9431 59.678ZM45.5175 59.7387C45.5175 59.8335 45.642 59.7994 45.8824 59.7994C46.0778 59.7994 46.2289 59.7437 46.3333 59.6432C46.7039 59.2852 46.5394 58.5845 46.0443 58.5845H45.5175V59.7387Z" fill="#34368F"/>
<path fill-rule="evenodd" clip-rule="evenodd" d="M48.049 59.334V59.7994H48.3121V59.334C48.6207 59.2619 48.8332 58.7996 48.8383 58.5643H48.6157C48.6131 58.6839 48.5505 58.8919 48.5081 58.983C48.3589 59.3061 48.0319 59.3258 47.8726 59.0039C47.7916 58.8394 47.7885 58.7515 47.7448 58.5643H47.5222C47.5431 58.8148 47.741 59.2619 48.049 59.334Z" fill="#34368F"/>
<path fill-rule="evenodd" clip-rule="evenodd" d="M46.9353 59.7994H47.1984V58.5845H46.9353V59.7994Z" fill="#34368F"/>
<path fill-rule="evenodd" clip-rule="evenodd" d="M44.0598 46.7901C44.2906 46.7414 44.4924 46.6763 44.7403 46.6314C44.9749 46.589 45.2184 46.5498 45.4612 46.5232C45.9887 46.4657 46.5218 46.4385 47.0568 46.4372C47.0018 46.3993 46.7627 46.4151 46.6717 46.4151L45.4758 46.4948C45.2209 46.5226 44.4057 46.6446 44.1427 46.7401L44.0598 46.7901Z" fill="#34368F"/>
<path fill-rule="evenodd" clip-rule="evenodd" d="M47.3666 50.1558L47.3818 50.1406C47.3805 50.1419 47.3615 50.1507 47.3666 50.1558Z" fill="#34368F"/>
</g>
<defs>
<clipPath id="clip0_801_8449">
<rect width="80" height="15.1779" fill="white" transform="translate(14 46.411)"/>
</clipPath>
</defs>
</svg>
