<svg width="108" height="108" viewBox="0 0 108 108" fill="none" xmlns="http://www.w3.org/2000/svg">
<path d="M20.406 55.8005C23.9367 55.8005 26.8005 52.9368 26.8005 49.406C26.8005 45.8752 23.9367 43 20.406 43C16.8752 43 14 45.8637 14 49.406C14 52.9483 16.8637 55.8005 20.3945 55.8005" fill="#292567"/>
<path d="M26.697 48.2214C26.3749 48.4169 21.9471 55.3979 21.9471 55.3979C20.7165 55.766 19.4054 55.5129 19.4054 55.5129L24.2703 48.6469C25.4089 47.0368 26.1679 46.7493 26.2254 46.7378C26.1449 46.5653 26.0644 46.3928 25.9609 46.2317C24.6843 46.5538 22.9132 48.0604 22.9132 48.0604L16.9097 52.7872V50.4871L22.4186 46.6458C23.9827 45.5992 25.3974 45.4957 25.4664 45.4842C25.3168 45.2887 25.1558 45.0932 24.9833 44.9206C24.9143 44.9206 22.6256 45.1162 16.9212 47.5888V46.3123C16.9212 46.3123 21.7171 44.4031 24.6038 44.5641C23.4767 43.5865 22.0161 43 20.4175 43C16.8637 43 14 45.8637 14 49.406C14 52.9483 16.8637 55.812 20.406 55.812C23.9482 55.812 26.8005 52.9483 26.8005 49.406C26.8005 49.0035 26.766 48.6124 26.6855 48.2329" fill="#C9252C"/>
<path d="M34.3566 51.0161C34.3566 51.8787 33.2065 51.8787 33.2065 51.8787H32.2519V50.1421H33.1145C34.4371 50.1421 34.3566 51.0161 34.3566 51.0161ZM32.2519 46.9448C32.8844 46.9448 33.31 47.0713 33.31 47.0713C33.816 47.2208 33.77 47.7384 33.77 47.7384C33.77 48.693 32.2519 48.5319 32.2519 48.5319V46.9448ZM36.6682 51.1886C36.6682 49.2795 34.8971 49.1185 34.8971 49.1185C36.0702 48.5894 35.8287 47.2208 35.8287 47.2208C35.8287 45.1392 33.2985 45.2542 33.2985 45.2542H30.0092V53.5693H33.7125C36.8522 53.5693 36.6797 51.1886 36.6797 51.1886" fill="#292567"/>
<path d="M40.9235 50.4411L41.8436 47.8419L42.7637 50.4411H40.9235ZM40.6015 45.2312L37.2318 53.5463H39.67L40.268 52.1202H43.3847L43.9368 53.5463H46.421L43.1317 45.2312H40.6015Z" fill="#292567"/>
<path d="M62.2806 49.222L65.7309 45.2427H62.9132L60.1645 48.6239V45.2427H57.9103V53.5578H60.1645V50.0041L63.0742 53.5578H66.0874L62.2806 49.222Z" fill="#292567"/>
<path d="M53.7815 45.2427V50.2916L49.6297 45.2427H47.364V53.5578H49.6297V48.5204L53.7815 53.5578H56.0472V45.2427H53.7815Z" fill="#292567"/>
<path d="M88.5141 50.4411L89.4227 47.8419L90.3428 50.4411H88.5141ZM88.1921 45.2312L84.8223 53.5463H87.2605L87.8586 52.1202H90.9753L91.5273 53.5463H94.0115L90.7223 45.2312H88.1921Z" fill="#292567"/>
<path d="M73.3215 45.2427H71.0558V53.5578H73.3215V45.2427Z" fill="#292567"/>
<path d="M81.5906 45.2427V50.2916L77.4388 45.2427H75.1731V53.5578H77.4388V48.5204L81.5906 53.5578H83.8563V45.2427H81.5906Z" fill="#292567"/>
<path d="M17.4733 63.1035L16.9672 61.0104L15.6331 63.1035H17.4733ZM17.5998 63.5866H15.3226L14.6556 64.6447H14L16.7717 60.4123H17.3698L18.4394 64.6447H17.8413L17.5883 63.5866H17.5998Z" fill="#292567"/>
<path d="M26.0529 60.4123L25.2134 64.6447H24.6268L25.2479 61.5854L23.2467 64.1386H22.9592L21.9011 61.5279L21.2801 64.6447H20.705L21.5446 60.4123H22.0391L23.2122 63.3911L25.5354 60.4123H26.0529Z" fill="#292567"/>
<path d="M27.019 62.8045H29.0892C29.1237 62.218 28.7441 61.896 28.1806 61.896C27.617 61.896 27.1685 62.2525 27.019 62.8045ZM26.9615 63.2301V63.2646C26.9615 63.8511 27.2835 64.1731 27.9736 64.1731C28.3761 64.1731 28.7326 64.0236 28.9626 63.8051L29.2157 64.2191C28.9051 64.5181 28.4106 64.6792 27.9276 64.6792C26.973 64.6792 26.3865 64.1386 26.3865 63.2876C26.3865 62.195 27.1455 61.4014 28.1921 61.4014C29.0547 61.4014 29.6297 61.919 29.6297 62.7815C29.6297 62.931 29.6067 63.0805 29.5837 63.207H26.95L26.9615 63.2301Z" fill="#292567"/>
<path d="M35.8172 62.471C35.8172 62.586 35.7942 62.7125 35.7712 62.8505L35.4146 64.6447H34.8281L35.1846 62.8505C35.2076 62.747 35.2191 62.655 35.2191 62.5745C35.2191 62.1605 34.9891 61.9305 34.5061 61.9305C33.9195 61.9305 33.517 62.2525 33.379 62.931L33.034 64.6447H32.4474L32.8154 62.8505C32.8384 62.7585 32.8499 62.6665 32.8499 62.5745C32.8499 62.1605 32.6199 61.9305 32.1369 61.9305C31.5388 61.9305 31.1478 62.264 31.0098 62.954L30.6763 64.6447H30.0897L30.7223 61.4359H31.2743L31.1938 61.8384C31.4813 61.5394 31.8724 61.4129 32.3094 61.4129C32.8154 61.4129 33.172 61.6084 33.333 61.9765C33.655 61.5969 34.1035 61.4129 34.6441 61.4129C35.3686 61.4129 35.8057 61.7924 35.8057 62.471" fill="#292567"/>
<path d="M39.5664 62.816C39.5664 62.2525 39.2214 61.919 38.6119 61.919C37.8873 61.919 37.3583 62.4825 37.3583 63.2761C37.3583 63.8396 37.7033 64.1731 38.3129 64.1731C39.0374 64.1731 39.5664 63.6096 39.5664 62.816ZM40.153 62.7815C40.153 63.8856 39.3824 64.6792 38.3359 64.6792C37.7723 64.6792 37.3583 64.4606 37.1628 64.0581L37.0363 64.6447H36.4842L37.3813 60.1593H37.9678L37.6343 61.8154C37.9218 61.5624 38.2898 61.4129 38.7384 61.4129C39.5549 61.4129 40.153 61.9305 40.153 62.793" fill="#292567"/>
<path d="M41.2456 62.8045H43.3157C43.3502 62.218 42.9707 61.896 42.4072 61.896C41.8436 61.896 41.3951 62.2525 41.2456 62.8045ZM41.1881 63.2301V63.2646C41.1881 63.8511 41.5101 64.1731 42.2001 64.1731C42.6027 64.1731 42.9592 64.0236 43.1892 63.8051L43.4422 64.2191C43.1317 64.5181 42.6372 64.6792 42.1541 64.6792C41.1996 64.6792 40.613 64.1386 40.613 63.2876C40.613 62.195 41.3721 61.4014 42.4187 61.4014C43.2812 61.4014 43.8563 61.919 43.8563 62.7815C43.8563 62.931 43.8333 63.0805 43.8103 63.207H41.1766L41.1881 63.2301Z" fill="#292567"/>
<path d="M46.6855 61.4129L46.5705 61.9765C46.5705 61.9765 46.4785 61.9765 46.421 61.9765C45.7769 61.9765 45.3514 62.31 45.2134 63.0575L44.8913 64.6562H44.3048L44.9373 61.4474H45.4894L45.3974 61.9305C45.6849 61.5624 46.0989 61.4244 46.674 61.4244" fill="#292567"/>
<path d="M51.2168 62.816C51.2168 62.2525 50.8718 61.919 50.2622 61.919C49.5377 61.919 49.0087 62.4825 49.0087 63.2761C49.0087 63.8396 49.3537 64.1731 49.9632 64.1731C50.6878 64.1731 51.2168 63.6096 51.2168 62.816ZM48.4221 63.2991C48.4221 62.218 49.2042 61.4129 50.3083 61.4129C51.2283 61.4129 51.8149 61.9535 51.8149 62.793C51.8149 63.8856 51.0328 64.6907 49.9402 64.6907C49.0317 64.6907 48.4336 64.1386 48.4336 63.2991" fill="#292567"/>
<path d="M53.609 61.1829L53.5515 61.4359H54.4831L54.3911 61.919H53.4825L52.9304 64.6447H52.3439L52.8959 61.919H52.3439L52.4359 61.4359H52.988L53.0455 61.1369C53.172 60.4928 53.5745 60.1248 54.23 60.1248C54.4946 60.1248 54.7476 60.1938 54.8971 60.3203L54.6556 60.7459C54.5406 60.6539 54.4026 60.5964 54.23 60.5964C53.885 60.5964 53.6895 60.7804 53.5975 61.1829" fill="#292567"/>
<path d="M55.8287 64.1846L56.0932 63.7016C56.4152 64.0006 56.9442 64.1846 57.4618 64.1846C58.1518 64.1846 58.6004 63.9201 58.6004 63.4601C58.6004 62.5745 56.4267 63.0345 56.4267 61.6774C56.4267 60.8724 57.1513 60.3663 58.1863 60.3663C58.7039 60.3663 59.1984 60.4928 59.5434 60.7229L59.3019 61.2174C58.9914 60.9874 58.5774 60.8839 58.1518 60.8839C57.4503 60.8839 57.0133 61.1829 57.0133 61.6314C57.0133 62.517 59.1869 62.103 59.1869 63.3911C59.1869 64.2191 58.4509 64.7137 57.3928 64.7137C56.7487 64.7137 56.1162 64.4951 55.8057 64.1961" fill="#292567"/>
<path d="M62.5797 62.816C62.5797 62.2525 62.2346 61.919 61.6251 61.919C60.9005 61.919 60.3715 62.4825 60.3715 63.2761C60.3715 63.8396 60.7165 64.1846 61.3261 64.1846C62.0506 64.1846 62.5797 63.6211 62.5797 62.8275M63.4422 61.4474L62.8097 64.6562H62.2576L62.3382 64.2651C62.0506 64.5412 61.6711 64.6907 61.2111 64.6907C60.3945 64.6907 59.7965 64.1731 59.7965 63.3106C59.7965 62.2065 60.567 61.4244 61.6136 61.4244C62.1656 61.4244 62.5682 61.6199 62.7752 61.9995L62.8902 61.4589H63.4767L63.4422 61.4474Z" fill="#292567"/>
<path d="M64.8108 60.1593H65.3974L64.5003 64.6447H63.9138L64.8108 60.1593Z" fill="#292567"/>
<path d="M66.3405 60.4698C66.3405 60.2513 66.513 60.0673 66.7545 60.0673C66.9615 60.0673 67.1225 60.2283 67.1225 60.4008C67.1225 60.6424 66.95 60.8149 66.697 60.8149C66.49 60.8149 66.329 60.6539 66.329 60.4698M66.2369 61.4359H66.8235L66.1909 64.6447H65.6044L66.2369 61.4359Z" fill="#292567"/>
<path d="M73.011 62.471C73.011 62.586 72.988 62.7125 72.965 62.8505L72.6084 64.6447H72.0219L72.3784 62.8505C72.4014 62.747 72.4129 62.655 72.4129 62.5745C72.4129 62.1605 72.1829 61.9305 71.7114 61.9305C71.1248 61.9305 70.7223 62.2525 70.5843 62.931L70.2393 64.6447H69.6527L70.0207 62.8505C70.0437 62.7585 70.0552 62.6665 70.0552 62.5745C70.0552 62.1605 69.8252 61.9305 69.3422 61.9305C68.7441 61.9305 68.3531 62.264 68.2151 62.954L67.8701 64.6447H67.2835L67.9161 61.4359H68.4681L68.3876 61.8384C68.6751 61.5394 69.0662 61.4129 69.5032 61.4129C70.0092 61.4129 70.3658 61.6084 70.5268 61.9765C70.8488 61.5969 71.2973 61.4129 71.8379 61.4129C72.5624 61.4129 72.9995 61.7924 72.9995 62.471" fill="#292567"/>
<path d="M78.7614 62.5055H79.3479L79.0144 64.1731C78.6119 64.5066 78.0483 64.7022 77.4733 64.7022C76.2082 64.7022 75.4491 63.9776 75.4491 62.9195C75.4491 61.5049 76.4612 60.3663 78.0598 60.3663C78.7959 60.3663 79.3594 60.5964 79.693 61.0219L79.2559 61.3899C78.9684 61.0564 78.5774 60.9069 78.0368 60.9069C76.8292 60.9069 76.0587 61.7809 76.0587 62.885C76.0587 63.6441 76.5647 64.1731 77.5423 64.1731C77.8988 64.1731 78.2094 64.0811 78.4969 63.9086L78.7729 62.517L78.7614 62.5055Z" fill="#292567"/>
<path d="M82.3612 61.4129L82.2576 61.9765C82.2576 61.9765 82.1656 61.9765 82.1081 61.9765C81.4641 61.9765 81.0386 62.31 80.9005 63.0575L80.5785 64.6562H79.992L80.6245 61.4474H81.1766L81.0846 61.9305C81.3721 61.5624 81.7746 61.4244 82.3497 61.4244" fill="#292567"/>
<path d="M85.1904 62.816C85.1904 62.2525 84.8453 61.919 84.2358 61.919C83.5112 61.919 82.9822 62.4825 82.9822 63.2761C82.9822 63.8396 83.3272 64.1731 83.9368 64.1731C84.6613 64.1731 85.1904 63.6096 85.1904 62.816ZM82.3957 63.2991C82.3957 62.218 83.1777 61.4129 84.2818 61.4129C85.2019 61.4129 85.7884 61.9535 85.7884 62.793C85.7884 63.8856 85.0064 64.6907 83.9138 64.6907C83.0052 64.6907 82.4072 64.1386 82.4072 63.2991" fill="#292567"/>
<path d="M89.8712 61.4359L89.2387 64.6447H88.6866L88.7671 64.2306C88.4681 64.5296 88.0656 64.6792 87.6171 64.6792C86.9155 64.6792 86.467 64.2881 86.467 63.5981C86.467 63.4831 86.4785 63.3681 86.5015 63.2301L86.858 61.4359H87.4445L87.088 63.2416C87.065 63.3451 87.0535 63.4256 87.0535 63.5176C87.0535 63.9316 87.295 64.1616 87.7896 64.1616C88.3991 64.1616 88.8246 63.8281 88.9627 63.138L89.2962 61.4359H89.8827H89.8712Z" fill="#292567"/>
<path d="M93.4135 62.816C93.4135 62.2525 93.0685 61.919 92.4589 61.919C91.7344 61.919 91.2053 62.4825 91.2053 63.2761C91.2053 63.8396 91.5503 64.1731 92.1599 64.1731C92.8844 64.1731 93.4135 63.6096 93.4135 62.816ZM94 62.7815C94 63.8856 93.2295 64.6792 92.1829 64.6792C91.6309 64.6792 91.2283 64.4721 91.0213 64.1041L90.6878 65.8177H90.1012L90.9753 61.4359H91.5274L91.4468 61.8384C91.7344 61.5624 92.1139 61.4129 92.5739 61.4129C93.3905 61.4129 93.9885 61.9305 93.9885 62.793" fill="#292567"/>
</svg>
