<svg width="108" height="108" viewBox="0 0 108 108" fill="none" xmlns="http://www.w3.org/2000/svg">
<path d="M51.0083 51.3044C50.371 51.3044 49.8621 51.2521 49.3722 51.0808C49.2105 51.0238 49.1058 51.0618 49.006 51.1855C48.4495 51.8942 47.9976 52.6599 47.6267 53.478C47.5363 53.6778 47.5601 53.7824 47.7598 53.9108C48.1546 54.1629 48.2973 54.6433 48.1451 55.0523C48.0024 55.4423 47.5601 55.7324 47.151 55.7087C46.7372 55.6849 46.3615 55.3567 46.2569 54.9286C46.1617 54.5481 46.3282 54.1153 46.6944 53.887C46.8704 53.7824 46.8704 53.6873 46.7991 53.5303C46.4138 52.6837 45.9049 51.9132 45.3484 51.1712C45.2533 51.0428 45.1582 51.038 45.0107 51.0808C43.8312 51.4233 42.6659 51.39 41.5244 50.9144C41.1344 50.7527 40.8014 50.5196 40.5494 50.1819C40.1165 49.6064 40.2925 48.8882 40.9536 48.6171C41.7242 48.2984 42.5137 48.4173 43.2985 48.5933C44.283 48.8074 45.0393 49.3971 45.7432 50.0773C46.0476 50.3722 46.0428 50.3817 46.3758 50.1296C46.5613 49.9917 46.8086 49.8728 46.8799 49.6635C46.9655 49.4162 46.6564 49.3115 46.5375 49.1308C45.5577 47.6659 45.1915 46.1011 45.7384 44.3793C45.8573 44.0083 46.0523 43.6849 46.333 43.4138C46.9608 42.805 47.7789 42.8858 48.264 43.6088C48.868 44.5077 49.0012 45.5065 48.8538 46.5529C48.7016 47.6421 48.2925 48.6219 47.5553 49.4542C47.4792 49.5398 47.4602 49.5969 47.541 49.6825C47.5886 49.7348 47.6267 49.7967 47.6695 49.849C48.1023 50.3627 48.2164 50.3627 48.7063 49.9203C49.6385 49.0785 50.6849 48.4649 51.9786 48.4174C52.4828 48.3983 52.9822 48.4506 53.4435 48.7027C54.0143 49.0119 54.1712 49.7301 53.786 50.2533C53.4673 50.6908 53.006 50.9049 52.5113 51.0666C51.9786 51.2378 51.4364 51.3187 50.9988 51.3139M46.1427 46.3389C46.1617 47.3615 46.5613 48.2509 47.0892 49.0975C47.2033 49.2782 47.2557 49.1355 47.3175 49.0499C47.7693 48.4078 48.069 47.6992 48.2022 46.9239C48.3211 46.2437 48.264 45.5779 47.8692 44.9786C47.4602 44.3603 46.9132 44.365 46.5042 44.9881C46.2378 45.3971 46.1284 45.849 46.1427 46.3389ZM50.9227 51.038C51.1463 51.0238 51.3556 51.0143 51.5648 50.9952C52.0595 50.9572 52.5113 50.8193 52.8633 50.4483C53.044 50.2533 53.1867 50.044 53.0963 49.7776C53.006 49.516 52.7682 49.4304 52.5161 49.4162C51.2985 49.3353 50.3139 49.8252 49.4863 50.6861C49.3389 50.8383 49.4863 50.8668 49.5862 50.8906C50.0286 51.0047 50.4804 51.0095 50.918 51.0428M43.6409 51.0238C44.0119 51.0238 44.3829 51.0095 44.7491 50.9286C44.9251 50.8906 44.9679 50.8288 44.8252 50.6813C44.3496 50.1867 43.8026 49.8062 43.151 49.6017C42.6469 49.4399 42.1284 49.3829 41.6053 49.4923C41.1867 49.5826 41.0678 49.9203 41.3294 50.258C41.434 50.3912 41.572 50.4958 41.7099 50.6005C42.2902 51.0333 42.9798 50.981 43.6457 51.0238M47.1796 52.2128C47.4269 51.7372 47.6267 51.2949 47.912 50.8954C48.1403 50.5814 48.1356 50.5862 47.8312 50.3674C47.6504 50.239 47.4745 50.1058 47.308 49.9631C47.2176 49.8823 47.151 49.8537 47.0559 49.9536C46.8609 50.1581 46.6183 50.3056 46.3853 50.4578C46.2711 50.5339 46.2473 50.6005 46.3377 50.7194C46.6706 51.1665 46.9703 51.6373 47.1796 52.2081" fill="#DD4140"/>
<path d="M15.0797 53.1926C15.0797 53.2307 15.0797 53.2735 15.0797 53.3115C15.0607 53.5256 15.1796 53.8585 15.0274 53.9346C14.761 54.0725 14.4186 53.9822 14.1094 53.9726C13.9477 53.9679 14.0095 53.8204 14.0095 53.7348C14.0095 52.95 14.0095 52.1653 14.0095 51.3757C14.0095 49.2069 14.0143 47.0333 14 44.8549C14 44.6266 14.0571 44.5505 14.2854 44.5791C14.5422 44.6124 14.8847 44.4697 15.0369 44.6361C15.1653 44.7788 15.0797 45.1118 15.0797 45.3638C15.0797 46.3627 15.0797 47.3567 15.0797 48.3555V48.717C15.2842 48.4506 15.4269 48.2271 15.6314 48.0464C16.811 47.0285 19.2699 47.2235 19.7646 49.4875C20.0072 50.5862 19.9786 51.6849 19.4412 52.7075C18.8419 53.8585 17.5767 54.3959 16.3211 54.0583C15.8074 53.9203 15.4126 53.6159 15.0797 53.1926ZM15.0797 50.8906C15.0797 51.0808 15.0797 51.2711 15.0797 51.4661C15.1035 52.3317 15.6837 53.0499 16.5018 53.2259C17.3532 53.4066 18.157 53.0024 18.528 52.189C18.8704 51.4423 18.918 50.6528 18.761 49.8585C18.6754 49.4209 18.4899 49.0166 18.1237 48.7265C17.1724 47.9845 15.7456 48.3793 15.2795 49.5018C15.094 49.9489 15.0559 50.415 15.0797 50.8906Z" fill="#171717"/>
<path d="M36.0167 50.9762C36.0167 51.9037 36.0119 52.8074 36.0167 53.7158C36.0167 53.9156 35.9786 54.0107 35.7551 53.9869C35.5078 53.9584 35.1748 54.0915 35.0321 53.9298C34.9085 53.7967 34.9893 53.4732 34.9893 53.2307C34.9893 50.4483 34.9893 47.6659 34.9846 44.8882C34.9846 44.6361 35.0464 44.5696 35.2985 44.5743C36.0167 44.5886 36.0167 44.5743 36.0167 45.283V50.5719C36.5494 49.9917 37.025 49.4732 37.5054 48.95C37.8859 48.5363 38.2711 48.1272 38.6469 47.7087C38.6992 47.6516 38.742 47.6135 38.8229 47.6135C39.2129 47.6135 39.5981 47.6135 40.0642 47.6135C39.6504 48.0416 39.2937 48.4126 38.937 48.7883C38.3663 49.3829 37.7955 49.9774 37.22 50.5624C37.1058 50.6766 37.1344 50.7479 37.2343 50.8525C38.2283 51.8656 39.2129 52.8835 40.2022 53.8965C40.2117 53.9061 40.2069 53.9298 40.2164 53.9726C39.7931 53.9726 39.3746 53.9726 38.9513 53.9726C38.8324 53.9726 38.78 53.8965 38.7087 53.8204C37.8811 52.9168 37.0488 52.0178 36.2164 51.1189C36.1641 51.0618 36.1356 50.981 36.0072 50.9619" fill="#161717"/>
<path d="M24.7919 53.1403C24.4542 53.6492 23.9929 53.9726 23.3936 54.1058C22.5375 54.2913 21.5767 53.9822 21.1677 53.3781C20.4067 52.2509 21.0155 50.7051 22.3758 50.3341C23.0559 50.1486 23.7646 50.1201 24.459 50.0154C24.8823 49.9489 24.8871 49.9536 24.8347 49.5256C24.7444 48.755 24.3068 48.3603 23.5315 48.3555C23.3223 48.3555 23.113 48.3793 22.9037 48.4269C22.3995 48.5505 21.9429 48.7646 21.4959 49.1403C21.4959 48.7788 21.4959 48.4649 21.4959 48.151C21.4959 48.0416 21.5672 48.0178 21.6338 47.9798C22.585 47.4566 23.5886 47.3044 24.6302 47.6135C25.3532 47.8276 25.7194 48.3936 25.8526 49.1213C25.9001 49.3876 25.9144 49.6587 25.9097 49.9298C25.9097 51.1998 25.9049 52.4697 25.9097 53.7348C25.9097 53.9346 25.8573 54.0059 25.6623 53.9822C25.396 53.9489 25.044 54.1058 24.8918 53.9108C24.7682 53.7491 24.868 53.4162 24.868 53.1546C24.8443 53.1498 24.8157 53.1403 24.7919 53.1355M24.8585 51.3091C24.8585 50.9762 24.7032 50.8272 24.3924 50.8621C24.3544 50.8668 24.3116 50.8668 24.2735 50.8716C23.6695 50.9524 23.0512 50.9715 22.4852 51.233C22.1094 51.4043 21.9667 51.7229 21.9382 52.1034C21.9097 52.4839 22.0381 52.8216 22.3663 53.0404C22.8752 53.3829 23.7598 53.2925 24.2212 52.8835C24.7063 52.4506 24.9013 51.9084 24.8633 51.3091" fill="#161717"/>
<path d="M89.5767 49.1022C89.5767 48.8692 89.6053 48.6932 89.572 48.5315C89.4911 48.132 89.7051 47.9703 90.0333 47.8276C90.8229 47.4851 91.6409 47.39 92.478 47.5517C93.258 47.7039 93.8193 48.346 93.9382 49.1974C93.9715 49.4542 93.9905 49.7206 93.9905 49.9822C93.9953 51.233 93.9905 52.4792 93.9953 53.7301C93.9953 53.9251 93.9525 54.0012 93.7479 53.9869C93.4959 53.9679 93.1772 54.0678 93.0107 53.9489C92.83 53.8204 92.9727 53.4827 92.9441 53.2354C92.9394 53.1926 92.9632 53.1355 92.8871 53.088C92.6635 53.4019 92.4114 53.692 92.0642 53.8823C91.2604 54.3294 89.9525 54.1629 89.396 53.5446C88.6635 52.7313 88.7158 50.8858 90.333 50.3722C90.9037 50.1914 91.503 50.1819 92.0833 50.0773C92.3211 50.0345 92.5589 49.9964 92.8014 49.9726C92.9441 49.9584 92.9679 49.8823 92.9584 49.7729C92.8775 48.8502 92.5256 48.2081 91.2794 48.365C90.9655 48.4031 90.6754 48.4982 90.3853 48.6124C90.1047 48.7265 89.8668 48.9025 89.572 49.0927M92.9441 51.2711C92.9441 50.9508 92.7824 50.8097 92.459 50.8478C92.4114 50.8525 92.3591 50.8573 92.3068 50.8621C91.717 50.9524 91.1082 50.9524 90.547 51.2188C90.1475 51.409 90.0095 51.7325 90.0048 52.1462C89.9953 52.5553 90.1284 52.893 90.5185 53.0927C90.9703 53.321 91.4316 53.302 91.8882 53.126C92.5922 52.8549 92.9489 52.2176 92.9441 51.2759" fill="#161717"/>
<path d="M76.9727 47.4851C78.4519 47.4709 79.3888 47.8942 79.9311 48.95C80.3544 49.7681 80.4352 50.6671 80.2545 51.566C79.8169 53.7634 77.6148 54.8145 75.6124 53.7919C74.956 53.459 74.5232 52.9215 74.2806 52.2271C73.9525 51.2711 73.981 50.3103 74.3139 49.3638C74.7277 48.1795 75.855 47.4804 76.9727 47.4851ZM75.113 50.5862C75.1035 51.2711 75.1701 51.6706 75.327 52.0511C75.66 52.8835 76.4019 53.3115 77.4388 53.264C78.2474 53.2307 78.8752 52.736 79.1225 51.9084C79.3365 51.2093 79.3318 50.5006 79.1415 49.8014C78.9132 48.9453 78.352 48.4649 77.4673 48.3555C76.6635 48.2556 75.874 48.6266 75.4554 49.3401C75.1891 49.7967 75.1082 50.2961 75.113 50.5862Z" fill="#161717"/>
<path d="M28.8157 48.6219C29.2533 48.0369 29.7765 47.6183 30.4994 47.5137C31.9453 47.2996 32.9156 48.0559 33.0345 49.4875C33.1534 50.9144 33.063 52.346 33.0821 53.7776C33.0821 53.9298 33.0488 53.9822 32.8823 53.9917C32.0405 54.025 32.0405 54.0345 32.0405 53.1831C32.0405 52.0749 32.0547 50.9715 32.0167 49.8632C31.9976 49.3258 31.8359 48.8121 31.3032 48.5172C30.4281 48.0321 29.258 48.5695 28.9299 49.6112C28.8443 49.8918 28.811 50.1819 28.811 50.4768C28.811 51.5565 28.8014 52.6314 28.8157 53.711C28.8157 53.9441 28.7491 53.9917 28.5303 53.9917C27.7931 53.9822 27.7931 53.9917 27.7931 53.264C27.7931 51.4804 27.7979 49.6968 27.7884 47.9132C27.7884 47.6659 27.8597 47.6135 28.0928 47.6135C28.811 47.6278 28.811 47.6135 28.811 48.327V48.6219H28.8157Z" fill="#171717"/>
<path d="M54.3139 47.6373C54.371 47.6278 54.39 47.6183 54.4091 47.6183C54.742 47.6183 55.132 47.5184 55.3841 47.6611C55.6219 47.799 55.6362 48.2223 55.7408 48.522C56.1926 49.8014 56.6492 51.0808 57.0963 52.365C57.1677 52.5743 57.2057 52.7931 57.2771 53.0975C57.3817 52.4649 57.61 51.9512 57.7955 51.4233C58.2331 50.1962 58.6754 48.9786 59.1177 47.7515C59.1558 47.6421 59.2271 47.604 59.346 47.6088C59.6362 47.6183 59.9311 47.6088 60.2402 47.6088C60.1974 47.8704 60.069 48.0844 59.9834 48.3127C59.2557 50.1439 58.5232 51.9703 57.7955 53.8014C57.767 53.8775 57.7622 53.9726 57.6576 53.9726C57.3674 53.9774 57.0726 53.9869 56.7824 53.9726C56.6492 53.9631 56.654 53.8062 56.6207 53.711C55.9168 51.8609 55.2176 50.0107 54.5185 48.1605C54.4566 47.994 54.39 47.8276 54.3187 47.6326" fill="#161717"/>
<path d="M73.2485 53.069C73.2485 53.264 73.2295 53.4162 73.2485 53.5636C73.3056 53.887 73.1391 54.0202 72.8538 54.0725C72.5161 54.1344 72.1736 54.1581 71.8359 54.0868C71.1653 53.9441 70.7372 53.4637 70.6516 52.7788C70.566 52.0939 70.6136 51.409 70.6041 50.7241C70.5946 50.0583 70.5993 49.3924 70.6041 48.7265C70.6041 48.5648 70.5755 48.4792 70.3948 48.5077C70.3234 48.5172 70.2521 48.5077 70.1808 48.5077C69.4483 48.5077 69.4483 48.5077 69.5054 47.78C69.5149 47.6468 69.5624 47.5993 69.6861 47.6135C69.7242 47.6135 69.767 47.6135 69.805 47.6135C70.0619 47.5945 70.4043 47.7277 70.5565 47.5612C70.6849 47.4185 70.5946 47.0856 70.5993 46.8335C70.5993 46.7717 70.5946 46.7099 70.5993 46.6528C70.6231 46.4578 70.4994 46.1819 70.6611 46.082C70.918 45.9251 71.2414 45.868 71.541 45.7919C71.679 45.7539 71.6314 45.8918 71.6314 45.9584C71.6314 46.434 71.6409 46.9049 71.6314 47.3805C71.6267 47.566 71.6695 47.6278 71.8645 47.6183C72.245 47.604 72.6302 47.6231 73.0107 47.6088C73.201 47.604 73.2485 47.6659 73.2485 47.8514C73.2485 48.5077 73.258 48.5077 72.616 48.5077C72.3639 48.5077 72.1118 48.522 71.8597 48.5077C71.6647 48.4934 71.6267 48.5695 71.6314 48.7503C71.6409 49.868 71.6314 50.9857 71.6314 52.1082C71.6314 52.1795 71.6314 52.2509 71.6314 52.3175C71.7028 53.1308 72.302 53.4827 73.0535 53.1498C73.0963 53.1308 73.1439 53.1118 73.2343 53.0737" fill="#161717"/>
<path d="M68.7444 48.8216C68.3829 48.6266 68.0452 48.4459 67.6647 48.3888C66.2711 48.1748 65.1344 49.0832 65.0393 50.4958C64.9917 51.2235 65.0583 51.9179 65.5196 52.5267C66.195 53.4114 67.5886 53.4542 68.5018 52.8835C68.5731 52.8407 68.6207 52.7455 68.7539 52.7646C68.7539 53.0309 68.7539 53.2973 68.7539 53.5636C68.7539 53.673 68.7016 53.7253 68.616 53.7681C67.3127 54.4197 65.0821 54.3769 64.2402 52.3841C63.698 51.1046 63.893 49.264 65.0535 48.2414C65.8383 47.547 66.7848 47.3757 67.7884 47.5042C68.7682 47.6278 68.8014 47.6992 68.7396 48.8169" fill="#171717"/>
<path d="M86.9655 61.4923C86.6707 61.7015 86.3853 61.9251 86.0761 62.1106C85.5957 62.4007 85.1867 62.3912 84.9013 62.1248C84.6302 61.868 84.5827 61.3638 84.8205 60.912C85.3722 59.8656 86.3187 59.4471 87.4364 59.3377C87.7265 59.3091 88.0167 59.3662 88.3116 59.3852C88.5113 59.3995 88.5256 59.4518 88.4257 59.6183C88.107 60.1558 87.8407 60.717 87.6457 61.3115C87.6029 61.4495 87.4887 61.6207 87.6219 61.7348C87.7456 61.8395 87.8978 61.6873 88.0405 61.6587C88.1641 61.6349 88.283 61.4066 88.3972 61.5731C88.497 61.7206 88.1926 61.6825 88.2117 61.8823C88.4019 61.9536 88.5351 61.8252 88.6397 61.6778C88.9774 61.2021 89.2485 60.6837 89.5387 60.1795C90.157 59.1094 90.6421 57.9631 91.4364 56.9976C91.8597 56.4839 92.3258 56.0416 92.9917 55.8609C93.6433 55.6849 93.8526 56.0511 93.9715 56.5695C93.981 56.6219 93.981 56.6742 93.9239 56.698C93.8573 56.7217 93.8145 56.6885 93.7765 56.6314C93.415 56.0416 93.1629 55.9988 92.6112 56.4126C91.7979 57.0214 91.2604 57.8442 90.8038 58.7241C90.5803 59.1617 90.3282 59.585 90.1712 60.0559C90.1617 60.0701 90.1427 60.0939 90.1475 60.1034C90.1665 60.1367 90.195 60.1272 90.2188 60.1082C90.6183 59.8799 90.9655 59.566 91.3936 59.3757C91.7218 59.2283 92.0452 59.1569 92.3639 59.39C92.6588 59.604 92.7206 59.8609 92.5684 60.2414C92.4162 60.6171 92.1689 60.9358 91.9501 61.2735C91.8835 61.3734 91.8121 61.4732 91.7551 61.5779C91.7075 61.6682 91.5981 61.7634 91.6837 61.8775C91.7646 61.9869 91.8835 61.9346 91.9881 61.9108C92.05 61.8965 92.1403 61.8395 92.1689 61.9346C92.1974 62.025 92.107 62.0868 92.0309 62.1011C91.874 62.1344 91.7123 62.1629 91.5553 62.1581C91.2747 62.1486 90.9988 62.082 90.7135 62.1248C90.6041 62.1391 90.5232 62.0773 90.4376 61.9298C90.9085 62.0583 91.0274 61.6873 91.2271 61.4399C91.5696 61.0071 91.9358 60.5886 92.1166 60.0511C92.264 59.604 92.0785 59.3948 91.6076 59.4804C91.3651 59.5232 91.1463 59.6135 90.9465 59.761C90.3092 60.2366 89.7955 60.8216 89.434 61.5351C89.3817 61.6349 89.2818 61.7681 89.415 61.8632C89.5434 61.9536 89.6813 61.8775 89.8003 61.7871C89.8716 61.7348 89.9049 61.5303 90.0381 61.6873C90.138 61.8062 89.9953 61.887 89.9192 61.9489C89.767 62.0725 89.591 62.1676 89.4007 62.1724C89.0821 62.1724 88.7729 62.1819 88.4542 62.277C88.1974 62.3579 88.2069 62.0583 88.1261 61.8632C87.8645 61.9869 87.6124 62.1248 87.3508 62.2342C87.1986 62.2961 87.0179 62.4055 86.8704 62.2628C86.7277 62.1248 86.8704 61.9631 86.9085 61.8157C86.9322 61.7206 86.9655 61.6254 86.9988 61.5303L87.0226 61.4685C87.0226 61.4685 86.9846 61.4875 86.9655 61.497M85.3627 61.3924C85.3437 61.868 85.6195 62.0392 86.0571 61.8395C86.937 61.4399 87.346 60.6742 87.6504 59.8228C87.7028 59.6801 87.6314 59.6611 87.5125 59.6326C86.547 59.3852 85.4007 60.3175 85.3627 61.3924Z" fill="#9DBF58"/>
<path d="M83.0083 48.8311C83.1415 48.5981 83.2176 48.3317 83.3984 48.1225C83.8407 47.6183 84.3972 47.4328 85.0535 47.5422C85.1582 47.5612 85.2438 47.585 85.2438 47.7229C85.239 48.0226 85.2438 48.3222 85.2438 48.6314C83.9596 48.0987 83.094 48.9691 82.9941 50.2723C82.9085 51.3662 82.9751 52.4649 82.9608 53.5636C82.9608 53.9774 82.9608 53.9774 82.547 53.9774C82.1284 53.9774 81.9192 53.7697 81.9192 53.3543C81.9192 51.5422 81.9192 49.7253 81.9192 47.9132C81.9192 47.6896 81.9572 47.5755 82.2141 47.6088C82.4519 47.6373 82.7658 47.5374 82.9132 47.6611C83.0702 47.7895 82.937 48.1177 82.9703 48.3555C82.9893 48.5172 82.899 48.6885 83.0179 48.8407C83.0036 48.8311 82.9941 48.8216 82.9798 48.8121C82.9798 48.8264 82.9703 48.8407 82.9655 48.8502C82.9798 48.8454 82.9988 48.8359 83.0131 48.8311" fill="#171717"/>
<path d="M67.7789 62.1914C66.9893 62.1676 66.2711 61.9489 65.7004 61.3686C65.3484 61.0119 65.1819 60.5791 65.2866 60.0701C65.4626 59.195 66.2711 58.7764 67.0797 59.1379C67.1796 59.1855 67.3223 59.233 67.2937 59.3567C67.2604 59.5089 67.1177 59.428 67.0131 59.4138C66.1142 59.2806 65.629 59.9227 65.9144 60.8502C66.0809 61.3971 66.4471 61.7539 66.9798 61.9108C67.7123 62.1248 68.44 62.0725 69.1106 61.6825C69.8336 61.2687 70.0523 60.3555 69.6576 59.5327C69.377 58.9524 68.9013 58.5481 68.459 58.1106C68.2592 57.9108 68.088 57.6873 67.9596 57.4352C67.5363 56.5886 67.9739 55.8181 69.0012 55.7229C69.4102 55.6849 69.8003 55.8038 70.157 56.0083C70.5185 56.2128 70.6707 56.5791 70.547 56.893C70.4947 57.0261 70.4233 57.126 70.2569 57.0785C70.1047 57.0309 69.981 56.95 69.9525 56.7788C69.9334 56.6599 70.0381 56.6599 70.1094 56.6409C70.2664 56.6028 70.2854 56.5077 70.1998 56.3983C69.9144 56.0368 69.1391 55.742 68.6825 56.1225C68.3544 56.3983 68.2783 56.6647 68.4638 57.0499C68.6683 57.478 69.006 57.7967 69.3484 58.1106C69.8003 58.5196 70.1522 58.9905 70.2902 59.5898C70.5185 60.5791 70.0143 61.516 69.044 61.9393C68.6397 62.1153 68.2212 62.2009 67.7789 62.1914Z" fill="#9DBF58"/>
<path d="M61.3437 50.8145C61.3437 49.8395 61.3484 48.8597 61.3437 47.8847C61.3437 47.6754 61.3912 47.6135 61.61 47.6135C62.3663 47.6183 62.3663 47.6135 62.3663 48.3603C62.3663 50.1439 62.3615 51.9227 62.371 53.7063C62.371 53.9441 62.3044 54.0059 62.0856 53.9822C61.8478 53.9584 61.5292 54.082 61.3912 53.9298C61.2723 53.8062 61.3532 53.4923 61.3532 53.2592C61.3532 52.4411 61.3532 51.6278 61.3532 50.8097" fill="#171717"/>
<path d="M87.3936 50.8193C87.3936 51.7848 87.3888 52.7503 87.3936 53.7158C87.3936 53.9203 87.3508 54.0154 87.132 53.9869C86.8847 53.9584 86.5565 54.0963 86.4138 53.9298C86.2901 53.7919 86.371 53.4685 86.371 53.2307C86.371 51.4709 86.371 49.711 86.3662 47.9465C86.3662 47.6992 86.3995 47.5993 86.6849 47.6088C87.3936 47.6326 87.3936 47.6183 87.3936 48.3127V50.8193Z" fill="#171717"/>
<path d="M72.811 61.6207C72.5446 61.8109 72.3544 61.9774 72.1356 62.0963C71.7693 62.3008 71.4269 62.2628 71.1558 62.025C70.8799 61.7776 70.8181 61.497 70.9846 61.1593C71.1082 60.9072 71.289 60.6885 71.4554 60.4602C71.6203 60.2382 71.5743 60.0939 71.3175 60.0273C71.3841 59.8561 71.5601 59.8276 71.6837 59.7372C71.8978 59.585 72.1498 59.4994 72.3877 59.3948C72.4685 59.3615 72.5589 59.2949 72.635 59.3852C72.7063 59.4709 72.6873 59.5755 72.6255 59.6659C72.4923 59.8561 72.3639 60.0464 72.2259 60.2319C71.9786 60.5648 71.7503 60.9072 71.5981 61.2925C71.5363 61.4495 71.484 61.6207 71.6362 61.7681C71.7979 61.9251 71.9739 61.8728 72.1403 61.7919C72.7729 61.4827 73.201 60.9358 73.6528 60.4221C73.9192 60.1225 74.1808 59.8133 74.4376 59.5042C74.5089 59.4185 74.585 59.3424 74.742 59.3472C74.6469 59.6326 74.4519 59.8466 74.3044 60.0844C73.824 60.8644 73.4816 61.7158 73.0155 62.5053C72.5161 63.3567 71.9691 64.1748 71.1653 64.7883C70.8799 65.0071 70.5755 65.1736 70.2283 65.2544C69.805 65.3543 69.4626 65.1736 69.1677 64.8882C69.0821 64.8074 69.025 64.698 69.0726 64.5648C69.8526 65.1165 70.4614 65.0309 71.1273 64.308C71.8407 63.5374 72.3116 62.6195 72.8157 61.6159" fill="#9DBF58"/>
<path d="M77.1629 61.4352C76.8062 61.6825 76.5161 61.9013 76.2117 62.0963C75.7646 62.3864 75.308 62.4007 75.0321 62.1581C74.7658 61.9203 74.7039 61.4399 74.9037 60.9738C75.2224 60.2414 75.8264 59.8228 76.5446 59.5517C77.1629 59.3187 77.8003 59.3044 78.4519 59.39C78.6421 59.4138 78.6421 59.4661 78.547 59.6088C78.176 60.189 77.9239 60.8216 77.7099 61.4732C77.6814 61.5588 77.6338 61.654 77.7099 61.7301C77.7955 61.8204 77.9001 61.7634 77.9905 61.7253C78.1284 61.6635 78.2616 61.5921 78.3995 61.5303C78.4661 61.497 78.5232 61.5303 78.5518 61.5826C78.585 61.6492 78.5185 61.6682 78.4804 61.6873C78.1047 61.9203 77.7242 62.1534 77.3009 62.2913C77.1962 62.3246 77.0726 62.3579 76.9822 62.277C76.8871 62.1867 76.9299 62.0678 76.9632 61.9631C77.0155 61.8014 77.0821 61.6492 77.1677 61.4352M75.4935 61.4162C75.4887 61.8965 75.7408 62.0583 76.1689 61.8442C76.5161 61.673 76.811 61.4399 77.0726 61.1546C77.434 60.7646 77.5529 60.2556 77.7765 59.799C77.8431 59.6611 77.7337 59.6611 77.6433 59.6373C76.6302 59.39 75.5077 60.3175 75.4935 61.4162Z" fill="#9DBF58"/>
<path d="M78.2711 62.0915C78.8799 61.9156 79.151 61.4542 79.3888 60.9548C79.5838 60.5505 79.7884 60.151 79.9881 59.7515C79.9596 59.7277 79.9453 59.7087 79.9311 59.7039C79.8502 59.6754 79.7265 59.78 79.6885 59.6659C79.6504 59.5517 79.7741 59.4946 79.8645 59.4566C80.0975 59.3567 80.3401 59.3044 80.5922 59.2711C80.6397 59.2663 80.7206 59.2568 80.7349 59.2854C80.9299 59.5755 81.1344 59.39 81.3389 59.2996C81.4673 59.2426 81.6053 59.1998 81.7479 59.2093C81.9953 59.2283 82.2426 59.2568 82.3234 59.547C82.39 59.7753 82.1903 60.1367 81.9572 60.2556C81.8526 60.308 81.7432 60.3412 81.6481 60.2604C81.5387 60.17 81.5957 60.0606 81.6338 59.956C81.6671 59.8656 81.7622 59.7848 81.6671 59.6849C81.5767 59.5898 81.4626 59.585 81.3342 59.6088C80.8633 59.6944 80.5494 60.0036 80.2783 60.3603C79.9881 60.7455 79.7646 61.1783 79.5791 61.6207C79.4792 61.8585 79.5268 61.9061 79.7836 61.8728C79.855 61.8632 79.9453 61.7681 79.9929 61.8775C80.0405 61.9821 79.9643 62.0678 79.893 62.1439C79.874 62.1629 79.8454 62.1819 79.8169 62.1867C79.2985 62.239 78.7848 62.2247 78.2711 62.0868" fill="#9DBF58"/>
<path d="M81.9192 62.1153C82.8133 61.6397 83.0084 60.7598 83.3841 59.9893C83.289 59.9322 83.2509 59.9703 83.2081 59.9893C83.1415 60.0226 83.0702 60.0606 83.0226 59.9798C82.9751 59.9037 83.0036 59.8228 83.0702 59.7657C83.1938 59.6563 83.3413 59.5898 83.4887 59.5327C83.6932 59.4518 83.8978 59.3615 84.1023 59.2854C84.1784 59.2568 84.2687 59.1807 84.3448 59.2854C84.4114 59.3757 84.3639 59.4661 84.3211 59.5422C84.05 60.0273 83.7789 60.503 83.503 60.9833C83.3984 61.1688 83.2747 61.3401 83.1796 61.5303C83.0559 61.7871 83.1272 61.8965 83.4079 61.9013C83.4745 61.9013 83.5268 61.8918 83.5411 61.9726C83.5553 62.0773 83.5173 62.1581 83.4126 62.1772C83.2747 62.2057 83.1273 62.2057 82.9988 62.1439C82.7753 62.0392 82.5565 62.0392 82.333 62.1486C82.2283 62.2009 82.1047 62.2105 81.9239 62.1153" fill="#9DBF58"/>
<path d="M84.9917 57.9203C84.9917 58.2009 84.7919 58.4388 84.5589 58.4435C84.3163 58.4435 84.0928 58.1867 84.1023 57.9061C84.1118 57.6397 84.3258 57.3829 84.5399 57.3734C84.7777 57.3686 84.9917 57.6302 84.9917 57.9203Z" fill="#9DBF58"/>
<path d="M90.2236 60.0987C90.1998 60.1129 90.1712 60.1272 90.1522 60.0892C90.1522 60.0797 90.1665 60.0606 90.176 60.0464C90.1903 60.0654 90.2045 60.0797 90.2236 60.0987Z" fill="white"/>
<path d="M86.9655 61.4923C86.9655 61.4923 87.0036 61.4732 87.0226 61.4637L86.9988 61.5256C86.9988 61.5256 86.9751 61.5018 86.9655 61.4923Z" fill="white"/>
<path d="M83.0083 48.8311C83.0083 48.8311 82.9751 48.8454 82.9608 48.8502C82.9655 48.8359 82.9703 48.8264 82.9751 48.8121C82.9893 48.8216 82.9988 48.8311 83.0131 48.8407V48.8311" fill="white"/>
</svg>
