<svg width="109" height="108" viewBox="0 0 109 108" fill="none" xmlns="http://www.w3.org/2000/svg">
<g clip-path="url(#clip0_801_8517)">
<path d="M39.0808 44.1935C44.1296 44.0897 60.6117 38.1719 61.3705 34.5827L61.621 33.3605C55.9501 37.3081 44.168 41.6353 39.6055 41.6125H39.5979L39.0798 44.1652L39.0808 44.1935Z" fill="url(#paint0_linear_801_8517)"/>
<path d="M63.5265 25.3286L63.6176 24.8579C56.5347 29.6254 45.8381 32.8215 41.6552 32.8291L41.1314 35.4102C46.324 35.3874 62.6687 29.3825 63.4278 25.7993C63.4278 25.7993 63.4734 25.5639 63.5265 25.3286Z" fill="url(#paint1_linear_801_8517)"/>
<path d="M62.6838 29.0181C55.358 34.0893 45.1094 37.1563 40.6683 37.2777L40.1748 39.6539C45.1853 39.6387 61.7121 33.6262 62.4713 30.043L62.6838 29.0181Z" fill="url(#paint2_linear_801_8517)"/>
<path fill-rule="evenodd" clip-rule="evenodd" d="M88.6318 62.9221C87.0908 62.9221 85.8457 61.2671 85.8457 59.225C85.8457 57.1828 87.0908 55.5203 88.6318 55.5203C90.1729 55.5203 91.4179 57.1752 91.4179 59.225C91.4179 61.2747 90.1729 62.9221 88.6318 62.9221ZM92.9666 54.8674C92.8983 54.7839 92.8224 54.6928 92.7465 54.6169C92.625 54.4878 92.4808 54.3664 92.3365 54.2525C91.547 53.6072 90.5829 53.22 89.5504 53.22C88.4345 53.22 87.4096 53.6679 86.5821 54.4119C86.5593 54.4271 86.5366 54.4423 86.5138 54.4575C86.4834 54.4726 86.4455 54.4954 86.3923 54.4802C86.2557 54.4423 86.1114 54.298 86.1114 54.0931V49.781C86.1114 49.5077 85.8913 49.2876 85.618 49.2876H83.5151C83.2418 49.2876 83.0217 49.5077 83.0217 49.781V49.9329C83.0217 49.9329 83.0217 49.9405 83.0217 49.9481V64.3569C83.0217 64.6302 83.2494 64.8579 83.5227 64.8579H85.4206C85.5421 64.8579 85.6559 64.8124 85.7394 64.7364C85.7394 64.7364 85.7394 64.7364 85.747 64.7364C85.747 64.7364 85.747 64.7365 85.747 64.7289C85.785 64.6909 85.823 64.6529 85.8457 64.6074C85.8761 64.5467 85.8989 64.4783 85.9065 64.41C85.9444 64.1063 86.1494 63.9317 86.286 63.9773C86.3316 63.9925 86.3771 64.0152 86.4151 64.0456C86.4607 64.076 86.4986 64.1063 86.5442 64.1291C86.6732 64.2202 87.2426 64.615 87.6753 64.8048C87.8955 64.9035 88.6015 65.1388 89.4214 65.1388C90.2413 65.1388 90.8182 64.9566 90.9549 64.9186C91.0915 64.8807 91.2282 64.8351 91.3572 64.7744C91.9949 64.5011 92.5111 64.1215 92.9059 63.6433C93.2931 63.1726 93.6119 62.6108 93.8776 61.9731C94.2648 61.1305 94.4849 60.1663 94.4849 59.1339C94.4849 57.4561 93.8928 55.9378 92.9514 54.8598L92.9666 54.8674Z" fill="#2B5E87"/>
<path fill-rule="evenodd" clip-rule="evenodd" d="M16.4815 60.8192C16.4815 61.0621 16.5271 61.2975 16.5726 61.5176C16.9446 62.8461 18.053 63.7647 19.4498 63.7647C21.454 63.7647 22.6535 62.1325 22.6535 59.7108C22.6535 57.5928 21.5603 55.786 19.5106 55.786C18.2048 55.786 16.9826 56.6818 16.5878 58.1394C16.5423 58.3595 16.4815 58.6176 16.4815 58.9289V60.8268V60.8192ZM14.5836 49.5685H16.4815V56.1959H16.5271C17.2027 55.0192 18.425 54.2601 20.1255 54.2601C22.7446 54.2601 24.5969 56.4389 24.5741 59.6425C24.5741 63.4155 22.198 65.2906 19.8446 65.2906C18.3187 65.2906 17.0964 64.6985 16.3145 63.3092H16.2462L16.1627 65.0553H14.5001C14.5457 64.3341 14.5836 63.2637 14.5836 62.3299V49.5685Z" fill="#2B5E87"/>
<path fill-rule="evenodd" clip-rule="evenodd" d="M32.2948 59.6653C30.1995 59.6197 27.8233 59.9917 27.8233 62.0414C27.8233 63.2865 28.6508 63.871 29.6301 63.871C31.0042 63.871 31.8772 62.998 32.1809 62.1022C32.2492 61.9048 32.2948 61.6846 32.2948 61.4948V59.6653ZM34.1471 62.5197C34.1471 63.4383 34.1927 64.3265 34.3217 65.0477H32.5757L32.4238 63.7192H32.3555C31.7634 64.5467 30.6322 65.2906 29.1291 65.2906C26.9883 65.2906 25.9027 63.7875 25.9027 62.2616C25.9027 59.7108 28.165 58.314 32.2492 58.3368V58.1166C32.2492 57.2436 32.0063 55.6721 29.8503 55.6721C28.871 55.6721 27.8461 55.9758 27.1021 56.4616L26.6618 55.1938C27.5349 54.6245 28.8026 54.2601 30.1312 54.2601C33.3576 54.2601 34.1395 56.4616 34.1395 58.5797V62.5273L34.1471 62.5197Z" fill="#2B5E87"/>
<path fill-rule="evenodd" clip-rule="evenodd" d="M37.0926 57.3498C37.0926 56.2643 37.0699 55.3684 37.0091 54.4954H38.7096L38.8235 56.2415H38.8691C39.3929 55.2394 40.6151 54.2601 42.3612 54.2601C43.8188 54.2601 46.0887 55.1331 46.0887 58.7467V65.0477H44.168V58.9669C44.168 57.2663 43.5379 55.8467 41.7235 55.8467C40.4557 55.8467 39.4764 56.7425 39.15 57.8129C39.0665 58.0483 39.0209 58.3823 39.0209 58.7087V65.0553H37.1002V57.3574L37.0926 57.3498Z" fill="#2B5E87"/>
<path fill-rule="evenodd" clip-rule="evenodd" d="M50.7803 59.3388H50.8258C51.0915 58.9669 51.4559 58.5114 51.7672 58.1394L54.8645 54.4954H57.1724L53.0957 58.8378L57.7417 65.0477H55.4111L51.7672 59.9917L50.7878 61.0849V65.0553H48.8899V49.5761H50.7878V59.3388H50.7803Z" fill="#2B5E87"/>
<path fill-rule="evenodd" clip-rule="evenodd" d="M69.205 62.9221C67.6639 62.9221 66.4189 61.2671 66.4189 59.225C66.4189 57.1828 67.6639 55.5203 69.205 55.5203C70.7461 55.5203 71.9911 57.1752 71.9911 59.225C71.9911 61.2747 70.7461 62.9221 69.205 62.9221ZM73.5398 54.8674C73.4715 54.7839 73.3956 54.6928 73.3196 54.6169C73.1982 54.4878 73.0539 54.3664 72.9097 54.2525C72.1126 53.6072 71.156 53.22 70.1236 53.22C69.0076 53.22 67.9828 53.6679 67.1553 54.4119C67.1325 54.4271 67.1097 54.4423 67.087 54.4575C67.0566 54.4726 67.0186 54.4954 66.9655 54.4802C66.8288 54.4423 66.6846 54.298 66.6846 54.0931V49.781C66.6846 49.5077 66.4644 49.2876 66.1911 49.2876H64.0883C63.815 49.2876 63.5948 49.5077 63.5948 49.781V49.9329C63.5948 49.9329 63.5948 49.9405 63.5948 49.9481V64.3569C63.5948 64.6302 63.8226 64.8579 64.0959 64.8579H65.9938C66.1152 64.8579 66.2215 64.8124 66.3126 64.7364C66.3126 64.7364 66.3126 64.7364 66.3202 64.7364C66.3202 64.7364 66.3202 64.7365 66.3202 64.7289C66.3582 64.6909 66.3961 64.6529 66.4189 64.6074C66.4493 64.5467 66.472 64.4783 66.4796 64.41C66.5176 64.1063 66.7302 63.9317 66.8592 63.9773C66.9048 63.9925 66.9503 64.0152 66.9883 64.0456C67.0338 64.076 67.0718 64.1063 67.1173 64.1291C67.2464 64.2202 67.8157 64.615 68.2485 64.8048C68.4686 64.9035 69.1746 65.1388 69.9945 65.1388C70.8144 65.1388 71.3914 64.9566 71.528 64.9186C71.6647 64.8807 71.8013 64.8351 71.9304 64.7744C72.5681 64.5011 73.0843 64.1215 73.4791 63.6433C73.8662 63.1726 74.1851 62.6108 74.4508 61.9731C74.8379 61.1305 75.0581 60.1663 75.0581 59.1339C75.0581 57.4561 74.466 55.9378 73.5246 54.8598L73.5398 54.8674Z" fill="#2B5E87"/>
<path fill-rule="evenodd" clip-rule="evenodd" d="M80.5392 54.465C80.5392 54.465 80.5392 54.4119 80.5316 54.3815V54.0171C80.5316 53.7438 80.3115 53.5161 80.0306 53.5161H77.9125C77.6316 53.5161 77.4115 53.7438 77.4115 54.0171V65.4197C77.4039 65.7082 77.0471 66.1105 76.6371 66.2092C76.4474 66.2699 76.2576 66.2927 76.0678 66.2851C75.878 66.2851 75.7489 66.3535 75.673 66.5129C75.6427 66.5812 75.6199 66.6799 75.6047 66.8014C75.5895 66.9152 75.6047 68.1375 75.6199 68.2438C75.6199 68.3424 75.6427 68.4335 75.673 68.5019C75.7565 68.6309 75.9159 68.722 76.1285 68.76C76.2044 68.7903 77.6089 68.7903 78.5502 68.5626C78.9222 68.4715 79.2183 68.2969 79.4688 68.1071C79.7117 67.9173 79.9319 67.6744 80.1217 67.3859C80.3418 67.0367 80.4557 66.5964 80.4785 66.065C80.4785 65.9056 80.5164 65.488 80.5164 65.4349V55.08C80.5164 55.0192 80.5164 54.9661 80.524 54.9054C80.524 54.7611 80.524 54.6169 80.524 54.465" fill="#2B5E87"/>
<path fill-rule="evenodd" clip-rule="evenodd" d="M68.1194 79.5248H69.5466V74.7953C69.5466 74.5372 69.5618 74.3246 69.6453 74.112C69.9186 73.3529 70.6322 72.7076 71.5584 72.7076C72.9021 72.7076 73.3728 73.7628 73.3728 75.023V79.5248H74.8V74.8636C74.8 72.1762 73.1147 71.5309 72.067 71.5309C71.5356 71.5309 71.0346 71.6751 70.6094 71.9181C70.1691 72.161 69.8199 72.533 69.5922 72.9353H69.5618V68.0312H68.1346V79.5248H68.1194ZM64.4451 76.883C64.4451 77.012 64.4299 77.1715 64.3768 77.3385C64.149 77.9989 63.4885 78.6518 62.4485 78.6518C61.7349 78.6518 61.12 78.2343 61.12 77.2929C61.12 75.7746 62.8888 75.4937 64.4375 75.5317V76.8906L64.4451 76.883ZM65.8192 74.7118C65.8192 73.1555 65.2346 71.5233 62.8433 71.5233C61.8564 71.5233 60.8998 71.7966 60.2545 72.2066L60.581 73.1631C61.1276 72.7911 61.8943 72.5785 62.6383 72.5785C64.2401 72.5634 64.4223 73.7476 64.4223 74.3777V74.5372C61.3933 74.522 59.7079 75.5544 59.7079 77.4523C59.7079 78.5835 60.5202 79.6994 62.1069 79.6994C63.2228 79.6994 64.0655 79.1528 64.4982 78.5379H64.5514L64.6652 79.5248H65.9406C65.8571 78.9934 65.8268 78.3254 65.8268 77.6497V74.7194L65.8192 74.7118ZM57.2407 68.6082C56.7093 68.6082 56.3525 69.0105 56.3525 69.4964C56.3525 69.9822 56.6941 70.3694 57.2103 70.3694C57.7797 70.3694 58.1213 69.9822 58.1213 69.4964C58.1213 69.0105 57.7645 68.6082 57.2483 68.6082H57.2407ZM57.9543 79.5172V71.6827H56.5271V79.5172H57.9543ZM51.175 79.5172H52.6022V75.3419C52.6022 75.1141 52.6174 74.8712 52.6478 74.6814C52.8452 73.611 53.5512 72.867 54.5609 72.867C54.7582 72.867 54.9025 72.867 55.0467 72.8974V71.5537C54.9177 71.5385 54.8038 71.5233 54.6595 71.5233C53.703 71.5233 52.83 72.1838 52.4732 73.239H52.4276L52.3669 71.6827H51.1219C51.1674 72.4115 51.1902 73.2086 51.1902 74.1272V79.5172H51.175ZM47.5007 76.8754C47.5007 77.0044 47.4855 77.1639 47.44 77.3309C47.2122 77.9913 46.5517 78.6442 45.5117 78.6442C44.7981 78.6442 44.1832 78.2267 44.1832 77.2853C44.1832 75.767 45.9444 75.4861 47.5007 75.5241V76.883V76.8754ZM48.8748 74.7042C48.8748 73.1479 48.2902 71.5157 45.8989 71.5157C44.912 71.5157 43.9554 71.789 43.3101 72.199L43.6366 73.1555C44.1908 72.7835 44.9499 72.571 45.6939 72.571C47.2957 72.5558 47.4779 73.7401 47.4779 74.3702V74.5296C44.4489 74.5144 42.7711 75.5469 42.7711 77.4447C42.7711 78.5759 43.5834 79.6919 45.1701 79.6919C46.286 79.6919 47.1287 79.1453 47.569 78.5303H47.6146L47.7284 79.5172H49.0038C48.9203 78.9858 48.8899 78.3178 48.8899 77.6421V74.7118L48.8748 74.7042ZM34.7772 71.6751L37.662 78.8947C37.7455 79.0693 37.7759 79.1832 37.7759 79.2667C37.7759 79.3502 37.7303 79.4641 37.662 79.6083C37.3204 80.3371 36.8497 80.8837 36.4625 81.195C36.045 81.5518 35.5743 81.7795 35.2175 81.8934L35.5743 83.0777C35.9311 83.017 36.6068 82.7664 37.3204 82.1743C38.2921 81.3164 38.9905 79.9576 40.0078 77.2701L42.1486 71.6827H40.6455L39.0892 76.2832C38.8918 76.8526 38.7324 77.4523 38.5882 77.9154H38.5578C38.4288 77.4447 38.2314 76.8298 38.0416 76.3136L36.3411 71.6827H34.7848L34.7772 71.6751ZM28.871 79.1377C29.4176 79.4641 30.2147 79.6843 31.0725 79.6843C32.9021 79.6843 33.9877 78.7125 33.9877 77.3233C33.9877 76.1542 33.2741 75.4785 31.9304 74.9775C30.9131 74.5751 30.4576 74.2791 30.4576 73.6338C30.4576 73.0492 30.9131 72.5634 31.7558 72.5634C32.4846 72.5634 33.0539 72.8367 33.3576 73.034L33.6992 72.0016C33.2817 71.7283 32.5832 71.5157 31.7861 71.5157C30.116 71.5157 29.0835 72.5482 29.0835 73.816C29.0835 74.7573 29.7516 75.5165 31.1712 76.0327C32.2037 76.4199 32.6136 76.7767 32.6136 77.4599C32.6136 78.1432 32.1278 78.6214 31.1105 78.6214C30.3969 78.6214 29.6529 78.333 29.2202 78.0748L28.8786 79.1453L28.871 79.1377Z" fill="#B53838"/>
<path fill-rule="evenodd" clip-rule="evenodd" d="M78.9905 52.3014C79.8484 52.3014 80.5468 51.603 80.5468 50.7452C80.5468 49.8873 79.8484 49.1889 78.9905 49.1889C78.1327 49.1889 77.4343 49.8873 77.4343 50.7452C77.4343 51.603 78.1327 52.3014 78.9905 52.3014Z" fill="#2B5E87"/>
</g>
<defs>
<linearGradient id="paint0_linear_801_8517" x1="40.8932" y1="31.9597" x2="63.6134" y2="31.1663" gradientUnits="userSpaceOnUse">
<stop stop-color="#3CAAE0"/>
<stop offset="0.12" stop-color="#3780AC"/>
<stop offset="0.42" stop-color="#306086"/>
<stop offset="0.56" stop-color="#898870"/>
<stop offset="1" stop-color="#ECC931"/>
</linearGradient>
<linearGradient id="paint1_linear_801_8517" x1="40.8932" y1="31.9597" x2="63.6134" y2="31.1663" gradientUnits="userSpaceOnUse">
<stop stop-color="#3CAAE0"/>
<stop offset="0.12" stop-color="#3780AC"/>
<stop offset="0.42" stop-color="#306086"/>
<stop offset="0.56" stop-color="#898870"/>
<stop offset="1" stop-color="#ECC931"/>
</linearGradient>
<linearGradient id="paint2_linear_801_8517" x1="40.8932" y1="31.9597" x2="63.6134" y2="31.1663" gradientUnits="userSpaceOnUse">
<stop stop-color="#3CAAE0"/>
<stop offset="0.12" stop-color="#3780AC"/>
<stop offset="0.42" stop-color="#306086"/>
<stop offset="0.56" stop-color="#898870"/>
<stop offset="1" stop-color="#ECC931"/>
</linearGradient>
<clipPath id="clip0_801_8517">
<rect width="80" height="59.0852" fill="white" transform="translate(14.5 24)"/>
</clipPath>
</defs>
</svg>
