<svg width="108" height="108" viewBox="0 0 108 108" fill="none" xmlns="http://www.w3.org/2000/svg">
<path fill-rule="evenodd" clip-rule="evenodd" d="M14 38H94V70.1608H14V38Z" fill="#224192"/>
<path fill-rule="evenodd" clip-rule="evenodd" d="M17.3769 62.0469V61.7695C17.6007 61.6355 17.7695 61.5149 17.8861 61.4037C17.933 60.8596 17.9571 59.6603 17.9571 57.8017C17.9571 56.4549 17.937 55.5035 17.8982 54.9447C17.8781 54.6419 17.8379 54.465 17.7762 54.4127C17.6891 54.335 17.3916 54.2841 16.8824 54.2599V53.7775L18.8764 53.8137C19.1404 53.8137 19.5263 53.807 20.0409 53.795C20.538 53.7829 20.8972 53.7775 21.1116 53.7775C21.9812 53.7775 22.6057 53.9223 22.9809 54.2117C23.3575 54.5038 23.5464 54.8991 23.5464 55.403C23.5464 55.9202 23.3615 56.345 22.9889 56.6707C22.6178 56.999 22.0925 57.2321 21.4144 57.3728V57.4211C22.1126 57.4921 22.6017 57.598 22.8844 57.7414C23.1672 57.8821 23.3936 58.1032 23.5652 58.4033C23.738 58.7035 23.8251 59.0425 23.8251 59.4271C23.8251 59.8961 23.6817 60.3397 23.3977 60.7578C23.1149 61.1759 22.7384 61.4961 22.2693 61.7159C21.8003 61.937 21.1397 62.0469 20.2888 62.0469C20.1199 62.0469 19.868 62.0415 19.5303 62.0295C19.2168 62.0174 18.9595 62.0107 18.7598 62.0107C18.536 62.0107 18.075 62.0228 17.3769 62.0469ZM19.6348 57.1692H19.943C20.6064 57.1692 21.074 57.0486 21.3434 56.81C21.6127 56.5675 21.7481 56.1923 21.7481 55.6804C21.7481 55.2315 21.6395 54.8991 21.4198 54.6888C21.2 54.4757 20.8409 54.3685 20.3397 54.3685C20.1548 54.3685 19.927 54.3846 19.659 54.4167C19.6389 55.6268 19.6295 56.3665 19.6295 56.6385L19.6348 57.1692ZM19.6469 61.3836C19.8747 61.4398 20.0891 61.468 20.2915 61.468C20.8489 61.468 21.2791 61.3072 21.5766 60.9869C21.8767 60.6653 22.0255 60.1936 22.0255 59.5705C22.0255 59.1658 21.9571 58.8335 21.8218 58.5749C21.6851 58.3162 21.4988 58.1259 21.2603 57.9986C21.0231 57.8713 20.6827 57.8097 20.2432 57.8097L19.6469 57.8151V57.9678L19.6348 59.5022L19.6469 61.0512V61.3836ZM30.2841 61.5645V62.0469L29.8271 62.0295C29.5859 62.0174 29.3461 62.0107 29.1049 62.0107C28.7323 62.0107 28.3799 62.0228 28.0489 62.0469L27.99 61.9826L28.0503 61.1705L26.8228 62.0924C26.603 62.142 26.4087 62.1688 26.2399 62.1688C25.8245 62.1688 25.5028 62.0429 25.275 61.7963C25.0486 61.5484 24.936 61.1879 24.936 60.7109C24.936 60.1253 25.0901 59.7125 25.3997 59.474C25.799 59.1604 26.6821 58.8777 28.0503 58.6311C28.0422 58.1675 27.9618 57.8311 27.8104 57.6248C27.596 57.3367 27.2637 57.1933 26.8147 57.1933C26.7089 57.1933 26.6017 57.2053 26.4891 57.2321C26.3779 57.2576 26.2653 57.2965 26.1528 57.3527L25.8888 57.9785L25.4787 57.878L25.4908 57.6141L25.4854 57.3554L25.4787 57.1196C26.0804 56.747 26.5132 56.5112 26.7772 56.4187C26.9675 56.3491 27.2355 56.3129 27.5772 56.3129C28.0422 56.3129 28.4188 56.3826 28.7109 56.5219C29.0003 56.6626 29.2134 56.8516 29.3461 57.0928C29.4814 57.3326 29.5471 57.6824 29.5471 58.1434C29.5471 58.3363 29.539 58.6807 29.5229 59.1779C29.5069 59.6884 29.4988 60.1012 29.4988 60.412C29.4988 60.9038 29.5136 61.204 29.5417 61.3112C29.5551 61.3728 29.594 61.4211 29.657 61.4573C29.7173 61.4934 29.9263 61.5283 30.2841 61.5645ZM28.0503 59.1377C27.3588 59.2864 26.9059 59.4499 26.6982 59.6241C26.4891 59.7996 26.3846 60.0355 26.3846 60.3316C26.3846 60.5728 26.4503 60.7618 26.5856 60.8985C26.7183 61.0378 26.8898 61.1062 27.0921 61.1062C27.4044 61.1062 27.7246 60.9306 28.0503 60.5809V59.1377ZM30.9005 62.0469V61.5645C31.3199 61.5404 31.5558 61.5068 31.6107 61.4613C31.6643 61.4157 31.6965 61.3152 31.7085 61.1584C31.7327 60.7618 31.7447 60.061 31.7447 59.0586C31.7447 58.5641 31.7367 58.138 31.7206 57.7789C31.7126 57.5605 31.6992 57.4291 31.675 57.3916C31.6563 57.3594 31.6241 57.334 31.5839 57.3206C31.5424 57.3045 31.3119 57.2911 30.9005 57.2777V56.8194C31.1109 56.8194 31.4432 56.7739 31.8921 56.6827C32.341 56.5903 32.7189 56.4857 33.0245 56.3665L33.1839 56.3129C33.2389 56.3129 33.267 56.3571 33.267 56.4469L33.2603 56.5018C33.2482 56.6117 33.2415 56.8945 33.2415 57.3514L34.1541 56.5836C34.268 56.4857 34.3846 56.4187 34.5079 56.3826C34.6794 56.337 34.8898 56.3129 35.1364 56.3129C35.5518 56.3129 35.8921 56.3852 36.1575 56.5273C36.4214 56.672 36.6171 56.8703 36.739 57.1249C36.8623 57.3795 36.9253 57.7735 36.9253 58.3082C36.9253 58.5454 36.9186 58.8201 36.9065 59.1296C36.8864 59.7675 36.8771 60.3182 36.8771 60.7832C36.8771 61.0499 36.8985 61.2321 36.9414 61.3353C36.9735 61.405 37.0178 61.4519 37.074 61.476C37.1317 61.5001 37.3474 61.5283 37.7213 61.5645V62.0469L36.995 62.0228L36.5286 62.0107L35.3106 62.0469L35.2462 61.9705C35.3508 61.2241 35.403 60.4563 35.403 59.6683C35.403 58.6713 35.3427 58.0549 35.2208 57.8231C35.0627 57.5243 34.7772 57.3755 34.3605 57.3755C34.0938 57.3755 33.862 57.4439 33.6663 57.5779C33.4693 57.7146 33.3434 57.8593 33.2844 58.0134C33.2563 58.075 33.2415 58.2747 33.2415 58.611C33.2415 60.0355 33.2482 60.8516 33.2603 61.0593C33.2724 61.267 33.3072 61.3929 33.3608 61.4398C33.4332 61.5001 33.6985 61.5404 34.1595 61.5645V62.0469C33.4761 62.0228 32.8985 62.0107 32.4268 62.0107C32.1481 62.0107 31.6389 62.0228 30.9005 62.0469ZM38.2144 62.0469V61.5645C38.6365 61.5484 38.8831 61.5202 38.9554 61.4814C38.9889 61.4573 39.0171 61.4238 39.0372 61.3755C39.0693 61.2884 39.0895 60.8945 39.1015 60.1923C39.1136 59.4874 39.1203 58.7571 39.1203 57.9973C39.1203 57.3822 39.1096 56.5943 39.0895 55.6308C39.0734 54.9273 39.056 54.54 39.0332 54.4636C39.0131 54.3873 38.9715 54.3283 38.9072 54.2921C38.8442 54.2532 38.6124 54.2318 38.2144 54.2238V53.8017C38.7424 53.7507 39.1685 53.6878 39.4968 53.6181C39.8238 53.5457 40.1226 53.4492 40.3933 53.3286C40.4683 53.2978 40.5233 53.2817 40.5528 53.2817C40.6117 53.2817 40.6412 53.334 40.6412 53.4412L40.6318 53.6945C40.6171 53.9866 40.6037 55.0934 40.593 57.0151L40.5809 58.6646L40.593 58.9889C41.4224 58.2867 42.2801 57.4398 43.1632 56.4455C43.4432 56.4697 43.6925 56.4817 43.9109 56.4817C44.1735 56.4817 44.4523 56.4697 44.7471 56.4455V56.928C44.3102 56.9521 44.0489 56.9789 43.9578 57.007C43.8667 57.0365 43.7327 57.1196 43.5558 57.2563C43.3802 57.3929 42.8871 57.8218 42.0804 58.5427L42.9313 59.5035C43.9096 60.6144 44.4844 61.2429 44.66 61.3876C44.7725 61.4867 44.9293 61.5444 45.133 61.5645V62.0469C44.6921 62.0228 44.2874 62.0107 43.9176 62.0107C43.6322 62.0107 43.3481 62.0228 43.0707 62.0469C42.6794 61.5323 42.2908 61.0553 41.9008 60.6144C41.3715 60.0154 40.9347 59.5504 40.593 59.2248V60.1762C40.593 60.727 40.6171 61.1022 40.6653 61.2991C40.6841 61.3849 40.7243 61.4452 40.7846 61.4774C40.8422 61.5122 41.0861 61.5404 41.5109 61.5645V62.0469C40.7498 62.0228 40.2405 62.0107 39.9833 62.0107C39.7353 62.0107 39.1457 62.0228 38.2144 62.0469Z" fill="#F08519"/>
<path fill-rule="evenodd" clip-rule="evenodd" d="M46.0389 59.5678H46.5441C46.5481 60.1481 46.5668 60.4884 46.6003 60.5889C46.6352 60.6881 46.7464 60.8194 46.9394 60.9816C47.1323 61.1437 47.3802 61.2764 47.6871 61.3782C47.9926 61.48 48.3062 61.531 48.6291 61.531C49.1826 61.531 49.6234 61.3849 49.9571 61.0901C50.2881 60.7966 50.4543 60.4295 50.4543 59.9926C50.4543 59.5879 50.3444 59.2797 50.1246 59.0653C49.9022 58.8482 49.4801 58.6955 48.8556 58.6057C47.9323 58.473 47.3079 58.3296 46.9863 58.1702C46.6633 58.0147 46.4087 57.7802 46.2224 57.4666C46.0348 57.1517 45.9437 56.7779 45.9437 56.3383C45.9437 55.6027 46.2023 54.9769 46.7196 54.4663C47.2382 53.9544 48.0637 53.6998 49.2027 53.6998C49.6476 53.6998 50.0429 53.7333 50.3899 53.8003C50.7343 53.866 51.0814 53.9759 51.4298 54.1286L51.4888 54.2693C51.4245 54.5172 51.3802 54.741 51.3548 54.9407C51.328 55.139 51.3039 55.4847 51.2838 55.9752H50.7786C50.7585 55.3722 50.7303 55.0331 50.6901 54.9594C50.6164 54.8308 50.4275 54.6941 50.1246 54.5521C49.8231 54.41 49.476 54.3377 49.0861 54.3377C48.5514 54.3377 48.136 54.4677 47.8412 54.729C47.5464 54.9889 47.399 55.3239 47.399 55.7353C47.399 55.9859 47.4593 56.2043 47.5812 56.3906C47.7018 56.5742 47.872 56.7135 48.0878 56.802C48.3062 56.8891 48.7739 56.9896 49.4894 57.1035C50.1407 57.2 50.5802 57.2965 50.8134 57.3903C51.1913 57.543 51.4807 57.7762 51.675 58.0884C51.872 58.4033 51.9698 58.7986 51.9698 59.2757C51.9698 60.1038 51.6523 60.7926 51.0198 61.3447C50.3833 61.8941 49.5176 62.1688 48.4188 62.1688C47.9297 62.1688 47.4848 62.1219 47.0854 62.0281C46.6874 61.9343 46.2734 61.7789 45.8472 61.5631C45.9169 61.2898 45.9638 61.0419 45.9879 60.8194C46.0174 60.5099 46.0348 60.0931 46.0389 59.5678ZM52.8824 54.2894V53.8084C53.6797 53.8325 54.3819 53.8445 54.9849 53.8445C55.3682 53.8445 55.9095 53.8325 56.6104 53.8084V54.2894C56.2499 54.2894 55.9953 54.3216 55.8466 54.3832C55.7943 54.4033 55.7541 54.4355 55.7233 54.4837C55.6804 54.5373 55.6509 54.6298 55.6348 54.7611C55.6121 54.9795 55.592 55.612 55.5759 56.6546C55.5678 57.3809 55.5638 58.1179 55.5638 58.8683C55.5638 59.4834 55.6348 59.9363 55.7742 60.2258C55.9149 60.5139 56.1199 60.7283 56.3906 60.869C56.7792 61.07 57.2067 61.1705 57.665 61.1705C58.2948 61.1705 58.7745 61.066 59.1042 60.8569C59.4379 60.6506 59.6603 60.3638 59.7729 59.9993C59.8868 59.6335 59.9431 58.8348 59.9431 57.6033L59.9363 55.4258C59.9323 54.9353 59.9082 54.6405 59.8667 54.5414C59.8425 54.4878 59.8023 54.4462 59.742 54.4194C59.6482 54.3631 59.3628 54.3216 58.8844 54.2894V53.8084C59.391 53.8325 59.8613 53.8445 60.2874 53.8445C60.6586 53.8445 61.1116 53.8325 61.6503 53.8084V54.2894C61.2616 54.2894 61.0191 54.3336 60.9226 54.4194C60.8275 54.5052 60.7685 54.729 60.7484 55.0894C60.7042 55.9671 60.6801 56.9615 60.676 58.0723C60.676 58.7826 60.668 59.2476 60.6519 59.4673C60.6104 60.0087 60.4777 60.4697 60.2593 60.8529C60.0395 61.2362 59.6764 61.5511 59.1672 61.7976C58.658 62.0442 58.0241 62.1688 57.2683 62.1688C56.4831 62.1688 55.8291 62.0496 55.3079 61.8151C54.7866 61.5792 54.4154 61.2817 54.197 60.9239C53.9786 60.5648 53.8687 60.0395 53.8687 59.344L53.8928 56.6948C53.8928 56.4844 53.8848 55.9457 53.8687 55.0774C53.8606 54.8067 53.8298 54.6218 53.7802 54.5239C53.7481 54.4703 53.7012 54.4261 53.6355 54.3953C53.5712 54.3631 53.3206 54.3296 52.8824 54.2894ZM62.2868 62.0482V61.5672L62.6379 61.543C62.9219 61.5269 63.0988 61.476 63.1712 61.3929C63.2422 61.3099 63.2851 61.0271 63.2972 60.5447C63.3213 59.5785 63.3333 58.5293 63.3333 57.4023C63.3333 56.8033 63.3307 56.1213 63.3266 55.3574C63.3226 54.8965 63.2972 54.6137 63.2503 54.5119C63.2261 54.4623 63.1846 54.4194 63.1203 54.3899C63.0586 54.3578 62.7799 54.3256 62.2868 54.2894V53.8084C62.7598 53.8164 63.2221 53.8204 63.6764 53.8204C64.203 53.8204 64.7109 53.8164 65.2 53.8084C65.4104 54.3055 65.6288 54.7986 65.8553 55.2878C66.0161 55.6348 66.725 57.1115 67.9819 59.7179C69.3193 57.0419 70.256 55.0707 70.7893 53.8084C71.2596 53.8325 71.7072 53.8445 72.1307 53.8445C72.6278 53.8445 73.1062 53.8325 73.5699 53.8084V54.2894C73.0499 54.3216 72.7578 54.3671 72.6894 54.4261C72.6238 54.4851 72.5796 54.6687 72.5595 54.9755C72.5353 55.4687 72.5233 56.4067 72.5233 57.7883C72.5233 58.4837 72.5286 59.2208 72.5407 59.9953C72.5528 60.7712 72.5796 61.2094 72.6198 61.3139C72.6479 61.3742 72.6854 61.4211 72.7377 61.4519C72.7899 61.4841 73.066 61.5229 73.5699 61.5672V62.0482C72.936 62.0241 72.3692 62.012 71.872 62.012C71.3709 62.012 70.6901 62.0241 69.8285 62.0482V61.5672L70.1715 61.5551C70.4422 61.543 70.6124 61.5042 70.6781 61.4412C70.7464 61.3742 70.7906 61.204 70.8107 60.9253C70.8295 60.6465 70.8389 59.9953 70.8389 58.9688V55.4218C70.2332 56.6345 69.4613 58.2251 68.5219 60.1896C68.136 60.999 67.8358 61.6569 67.6188 62.1688H67.2382C66.9434 61.4921 66.5508 60.6412 66.059 59.608L64.0302 55.4218V56.2204C64.0302 58.4288 64.0382 59.9511 64.0543 60.7846C64.0663 61.1236 64.1106 61.334 64.1896 61.413C64.2673 61.4921 64.5595 61.543 65.0647 61.5672V62.0482C64.668 62.0241 64.2687 62.012 63.872 62.012C63.2784 62.012 62.7518 62.0241 62.2868 62.0482ZM74.2667 54.2894V53.8084C75.0653 53.8325 75.7675 53.8445 76.3705 53.8445C76.7538 53.8445 77.2951 53.8325 77.996 53.8084V54.2894C77.6355 54.2894 77.3809 54.3216 77.2322 54.3832C77.1799 54.4033 77.1397 54.4355 77.1075 54.4837C77.066 54.5373 77.0365 54.6298 77.0204 54.7611C76.9977 54.9795 76.9776 55.612 76.9615 56.6546C76.9534 57.3809 76.9494 58.1179 76.9494 58.8683C76.9494 59.4834 77.0204 59.9363 77.1598 60.2258C77.3005 60.5139 77.5055 60.7283 77.7762 60.869C78.1648 61.07 78.5923 61.1705 79.0506 61.1705C79.6804 61.1705 80.1601 61.066 80.4898 60.8569C80.8235 60.6506 81.0459 60.3638 81.1585 59.9993C81.2724 59.6335 81.3286 58.8348 81.3286 57.6033L81.3219 55.4258C81.3179 54.9353 81.2938 54.6405 81.2523 54.5414C81.2281 54.4878 81.1879 54.4462 81.1276 54.4194C81.0338 54.3631 80.7484 54.3216 80.27 54.2894V53.8084C80.7766 53.8325 81.2456 53.8445 81.673 53.8445C82.0442 53.8445 82.4972 53.8325 83.0358 53.8084V54.2894C82.6472 54.2894 82.4047 54.3336 82.3082 54.4194C82.2131 54.5052 82.1541 54.729 82.134 55.0894C82.0898 55.9671 82.0657 56.9615 82.0616 58.0723C82.0616 58.7826 82.0536 59.2476 82.0375 59.4673C81.996 60.0087 81.8633 60.4697 81.6449 60.8529C81.4251 61.2362 81.062 61.5511 80.5528 61.7976C80.0436 62.0442 79.4097 62.1688 78.6539 62.1688C77.8687 62.1688 77.2147 62.0496 76.6935 61.8151C76.1722 61.5792 75.801 61.2817 75.5826 60.9239C75.3642 60.5648 75.2543 60.0395 75.2543 59.344L75.2784 56.6948C75.2784 56.4844 75.269 55.9457 75.2543 55.0774C75.2462 54.8067 75.2154 54.6218 75.1658 54.5239C75.1337 54.4703 75.0868 54.4261 75.0211 54.3953C74.9568 54.3631 74.7062 54.3296 74.2667 54.2894ZM85.3193 62.0482V61.5672C85.5404 61.5672 85.7709 61.547 86.0094 61.5082C86.1219 61.4881 86.1997 61.4559 86.2479 61.4104C86.2948 61.3661 86.3283 61.2844 86.3524 61.1625C86.3779 60.9936 86.402 60.3759 86.4208 59.3079C86.4328 58.5481 86.4382 57.7735 86.4382 56.9842C86.4382 55.4298 86.4342 54.6405 86.4248 54.6097C86.4141 54.5802 86.276 54.5655 86.008 54.5655C85.4626 54.5655 84.9936 54.5816 84.5983 54.6137C84.3719 54.6325 84.2432 54.6526 84.2137 54.6727C84.1829 54.6928 84.1615 54.7263 84.1454 54.7759C84.1293 54.8268 84.0972 55.1739 84.0449 55.8171H83.5397C83.5477 55.0573 83.5276 54.4033 83.4794 53.8566L83.5437 53.8084C84.7779 53.8646 85.9799 53.8928 87.1457 53.8928C88.3089 53.8928 89.6127 53.8646 91.0533 53.8084L91.1176 53.9048C91.0439 54.4476 90.9916 55.0854 90.9621 55.8171H90.4677C90.4328 55.1511 90.398 54.7879 90.3618 54.7343C90.3363 54.6901 90.2734 54.6606 90.1756 54.6445C89.8633 54.5923 89.2415 54.5655 88.3089 54.5655C88.2312 54.5655 88.1843 54.5775 88.1682 54.6017C88.1534 54.6285 88.1467 54.733 88.1467 54.9125L88.1105 58.8616C88.1105 60.0074 88.1213 60.7082 88.1414 60.9695C88.1588 61.2295 88.207 61.3889 88.2807 61.4425C88.333 61.4787 88.6399 61.5202 89.2054 61.5672V62.0482C88.6318 62.0241 88.0221 62.012 87.3789 62.012C86.5333 62.012 85.8472 62.0241 85.3193 62.0482Z" fill="#FEFEFE"/>
<path fill-rule="evenodd" clip-rule="evenodd" d="M40.4683 66.4181V66.2854L40.5662 66.2787C40.6452 66.2733 40.6935 66.2599 40.7136 66.2372C40.7337 66.213 40.7457 66.1353 40.7484 66.0013C40.7551 65.7333 40.7591 65.4425 40.7591 65.1303C40.7591 64.9641 40.7578 64.7752 40.7564 64.5635C40.7564 64.4348 40.7484 64.3571 40.7363 64.3276C40.7296 64.3142 40.7176 64.3022 40.7002 64.2941C40.6827 64.2861 40.605 64.2767 40.4683 64.266V64.1333C40.5997 64.136 40.7283 64.136 40.8543 64.136C41.0003 64.136 41.141 64.136 41.2764 64.1333C41.3353 64.2713 41.3956 64.408 41.4586 64.5434C41.5028 64.6398 41.6998 65.0499 42.0482 65.7722C42.4194 65.0298 42.6781 64.4831 42.8268 64.1333C42.9568 64.14 43.0814 64.1427 43.198 64.1427C43.336 64.1427 43.4687 64.14 43.5973 64.1333V64.266C43.4539 64.2754 43.3722 64.2888 43.3534 64.3048C43.3347 64.3209 43.3226 64.3718 43.3173 64.4563C43.3106 64.5929 43.3079 64.8543 43.3079 65.2362C43.3079 65.4291 43.3092 65.6342 43.3119 65.8486C43.3159 66.0643 43.3226 66.1862 43.3333 66.2144C43.3414 66.2318 43.3521 66.2439 43.3668 66.2532C43.3816 66.2626 43.458 66.272 43.5973 66.2854V66.4181C43.4218 66.4114 43.265 66.4087 43.127 66.4087C42.9876 66.4087 42.7987 66.4114 42.5601 66.4181V66.2854L42.6553 66.2814C42.7303 66.2787 42.7772 66.268 42.796 66.2492C42.8147 66.2318 42.8268 66.1836 42.8322 66.1072C42.8375 66.0295 42.8402 65.8486 42.8402 65.5645V64.5809C42.6727 64.9172 42.4583 65.3581 42.197 65.9035C42.0911 66.1273 42.0067 66.3095 41.9477 66.4516H41.8419C41.7601 66.264 41.6516 66.0281 41.5149 65.7414L40.9521 64.5809V64.802C40.9521 65.4144 40.9548 65.8365 40.9588 66.0683C40.9615 66.1621 40.9749 66.2197 40.9963 66.2425C41.0178 66.264 41.0995 66.2787 41.2389 66.2854V66.4181C41.129 66.4114 41.0178 66.4087 40.9079 66.4087C40.743 66.4087 40.597 66.4114 40.4683 66.4181ZM45.1518 66.1018L45.1987 66.1501L45.1263 66.3055C45.0472 66.3538 44.9642 66.3899 44.8744 66.4154C44.7846 66.4395 44.6894 66.4516 44.5889 66.4516C44.3518 66.4516 44.1655 66.3832 44.0288 66.2452C43.8921 66.1085 43.8238 65.9156 43.8238 65.6663C43.8238 65.5082 43.8439 65.3782 43.8841 65.275C43.9176 65.1919 43.9712 65.1223 44.0449 65.0673C44.1199 65.011 44.2057 64.9588 44.3022 64.9092C44.4 64.8583 44.5072 64.8342 44.6224 64.8342C44.8007 64.8342 44.9481 64.8837 45.0647 64.9829C45.1799 65.0821 45.2389 65.2429 45.2389 65.464C45.2389 65.4908 45.2362 65.5323 45.2322 65.5872L44.9655 65.6355C44.8824 65.6422 44.7645 65.6449 44.6077 65.6449H44.2553C44.2714 65.8311 44.3276 65.9718 44.4228 66.067C44.5179 66.1608 44.6399 66.2077 44.7873 66.2077C44.8489 66.2077 44.9106 66.1996 44.9709 66.1809C45.0325 66.1635 45.0915 66.1367 45.1518 66.1018ZM44.2446 65.4707C44.3424 65.48 44.4402 65.4841 44.538 65.4841C44.6238 65.4841 44.7136 65.48 44.8087 65.4707L44.81 65.3943C44.81 65.2616 44.7859 65.1638 44.7363 65.1022C44.6881 65.0405 44.6211 65.011 44.538 65.011C44.4791 65.011 44.4281 65.0244 44.3866 65.0539C44.3437 65.0821 44.3129 65.1223 44.2915 65.1745C44.2714 65.2268 44.2553 65.3259 44.2446 65.4707ZM45.4693 66.4181V66.2854C45.5806 66.28 45.6435 66.2733 45.6596 66.2626C45.6757 66.2519 45.6851 66.2331 45.6891 66.2063C45.6985 66.1541 45.7025 66.0268 45.7025 65.8285C45.7025 65.4104 45.6972 65.1839 45.6864 65.1491C45.6784 65.1196 45.6395 65.1048 45.5739 65.1035L45.4693 65.1008V64.9735C45.602 64.9588 45.7146 64.9414 45.8084 64.9199C45.9022 64.8985 45.9866 64.873 46.063 64.8422C46.0777 64.8368 46.0898 64.8342 46.0965 64.8342C46.1112 64.8342 46.1193 64.8476 46.1193 64.8744C46.1193 64.8958 46.1179 64.9226 46.1152 64.9588C46.1139 64.9735 46.1126 65.0017 46.1126 65.0405V65.0995L46.3792 64.8971C46.4355 64.8543 46.5213 64.8342 46.6365 64.8342C46.7518 64.8342 46.8442 64.8569 46.9126 64.9012C46.9809 64.9467 47.0332 65.0191 47.068 65.1196L47.3454 64.8971C47.3977 64.8543 47.4727 64.8342 47.5678 64.8342C47.738 64.8342 47.864 64.8757 47.9444 64.9588C48.0248 65.0432 48.0637 65.1785 48.0637 65.3675L48.061 65.5028C48.057 65.6529 48.0543 65.7869 48.0543 65.9048C48.0543 66.0603 48.0596 66.1608 48.069 66.2063C48.0757 66.2318 48.0864 66.2492 48.1025 66.2599C48.1173 66.2693 48.1789 66.2787 48.2848 66.2854V66.4181C48.1494 66.4114 48.0315 66.4087 47.931 66.4087C47.8332 66.4087 47.7313 66.4114 47.6268 66.4181L47.6067 66.3873C47.6362 66.1541 47.6509 65.9263 47.6509 65.7038C47.6509 65.4398 47.6295 65.275 47.5893 65.2094C47.5491 65.1437 47.4767 65.1102 47.3749 65.1102C47.3065 65.1102 47.2476 65.1276 47.1966 65.1611C47.1471 65.1946 47.1122 65.2335 47.0961 65.2764C47.0854 65.3072 47.0801 65.4023 47.0801 65.5631C47.0801 65.8499 47.0841 66.0482 47.0921 66.1581C47.0948 66.2063 47.1055 66.2372 47.1216 66.2519C47.139 66.2653 47.2087 66.276 47.3307 66.2854V66.4181C47.1886 66.4114 47.0492 66.4087 46.9126 66.4087C46.741 66.4087 46.5883 66.4114 46.4529 66.4181V66.2854C46.5588 66.2854 46.6204 66.2693 46.6392 66.2385C46.658 66.2077 46.666 66.071 46.666 65.8298C46.666 65.5551 46.6606 65.3836 46.6499 65.3166C46.6392 65.2482 46.6137 65.1973 46.5709 65.1625C46.5293 65.1276 46.473 65.1102 46.398 65.1102C46.3444 65.1102 46.2948 65.1223 46.2519 65.1477C46.2064 65.1732 46.1702 65.208 46.1394 65.2536C46.1219 65.279 46.1126 65.3179 46.1126 65.3702L46.1139 65.4318C46.1179 65.4626 46.1193 65.5471 46.1193 65.6878L46.1179 65.8807C46.1179 66.0656 46.1206 66.1742 46.1273 66.2077C46.1313 66.2291 46.1394 66.2452 46.1541 66.2559C46.1688 66.2653 46.2291 66.2747 46.3323 66.2854V66.4181C46.2037 66.4114 46.0616 66.4087 45.9062 66.4087C45.8526 66.4087 45.7065 66.4114 45.4693 66.4181ZM48.7229 66.4516L48.6452 66.4208C48.6653 66.1581 48.676 65.795 48.676 65.3313C48.676 65.1209 48.6734 64.9588 48.6707 64.8449L48.6613 64.4268C48.6613 64.3625 48.6559 64.3196 48.6439 64.2981C48.6372 64.2847 48.6238 64.2754 48.6037 64.27C48.5903 64.266 48.526 64.2606 48.4121 64.2566V64.14C48.471 64.14 48.5662 64.1266 48.6961 64.1025C48.8275 64.077 48.924 64.0516 48.9896 64.0234L49.0606 63.9966C49.0821 63.9966 49.0928 64.0087 49.0928 64.0355L49.0874 64.2057C49.0848 64.2646 49.0807 64.5728 49.0754 65.1276L49.2724 64.9641C49.3353 64.9119 49.3903 64.877 49.4399 64.8596C49.4894 64.8422 49.5484 64.8342 49.6181 64.8342C49.8017 64.8342 49.9477 64.8918 50.0576 65.0084C50.1688 65.1249 50.2238 65.2764 50.2238 65.464C50.2238 65.5564 50.2077 65.6516 50.1782 65.7494C50.1474 65.8486 50.1099 65.929 50.0643 65.9906C50.0188 66.0536 49.9611 66.1085 49.8888 66.1568C49.799 66.2144 49.7226 66.2666 49.6596 66.3149C49.5846 66.3712 49.5216 66.4087 49.4707 66.4261C49.4198 66.4422 49.3568 66.4516 49.2831 66.4516C49.2107 66.4516 49.1424 66.4422 49.0794 66.4234C49.0164 66.406 48.9454 66.3725 48.865 66.3243C48.8395 66.343 48.7926 66.3859 48.7229 66.4516ZM49.0754 65.2991V66.0469C49.1156 66.1072 49.1638 66.1514 49.2214 66.1822C49.2777 66.213 49.342 66.2278 49.4131 66.2278C49.5296 66.2278 49.6235 66.1822 49.6945 66.0898C49.7668 65.996 49.803 65.8553 49.803 65.6663C49.803 65.4881 49.7668 65.3541 49.6931 65.263C49.6194 65.1732 49.5243 65.1276 49.405 65.1276C49.342 65.1276 49.2831 65.1424 49.2281 65.1705C49.1732 65.1986 49.1223 65.2429 49.0754 65.2991ZM51.8238 66.1018L51.8707 66.1501L51.7983 66.3055C51.7193 66.3538 51.6348 66.3899 51.5464 66.4154C51.4566 66.4395 51.3615 66.4516 51.2596 66.4516C51.0238 66.4516 50.8375 66.3832 50.7008 66.2452C50.5642 66.1085 50.4958 65.9156 50.4958 65.6663C50.4958 65.5082 50.5159 65.3782 50.5561 65.275C50.5896 65.1919 50.6419 65.1223 50.7169 65.0673C50.792 65.011 50.8777 64.9588 50.9742 64.9092C51.072 64.8583 51.1779 64.8342 51.2945 64.8342C51.4727 64.8342 51.6201 64.8837 51.7367 64.9829C51.8519 65.0821 51.9109 65.2429 51.9109 65.464C51.9109 65.4908 51.9082 65.5323 51.9042 65.5872L51.6375 65.6355C51.5544 65.6422 51.4352 65.6449 51.2797 65.6449H50.926C50.942 65.8311 50.9983 65.9718 51.0948 66.067C51.19 66.1608 51.3119 66.2077 51.4593 66.2077C51.5209 66.2077 51.5826 66.1996 51.6429 66.1809C51.7032 66.1635 51.7635 66.1367 51.8238 66.1018ZM50.9166 65.4707C51.0144 65.48 51.1122 65.4841 51.21 65.4841C51.2958 65.4841 51.3856 65.48 51.4807 65.4707L51.4821 65.3943C51.4821 65.2616 51.458 65.1638 51.4084 65.1022C51.3601 65.0405 51.2931 65.011 51.21 65.011C51.1511 65.011 51.1002 65.0244 51.0586 65.0539C51.0157 65.0821 50.9849 65.1223 50.9635 65.1745C50.9434 65.2268 50.9273 65.3259 50.9166 65.4707ZM52.0704 66.4181V66.2854C52.1802 66.2787 52.2432 66.2733 52.2593 66.2653C52.2714 66.2586 52.2821 66.2492 52.2901 66.2345C52.3022 66.2077 52.3089 66.1514 52.3116 66.0616C52.3156 65.9035 52.3183 65.7588 52.3183 65.6288C52.3183 65.3769 52.3142 65.2281 52.3075 65.1826C52.3049 65.1544 52.2941 65.1357 52.2794 65.1236C52.262 65.1129 52.1936 65.1048 52.0704 65.1008V64.9735C52.2901 64.9521 52.4469 64.9266 52.5407 64.8971L52.7082 64.8342C52.7229 64.8342 52.731 64.8435 52.731 64.865L52.7296 64.8878C52.7256 64.9561 52.7243 65.0539 52.7243 65.1826C52.7792 65.129 52.8409 65.062 52.9065 64.9802C52.9561 64.9199 53.0003 64.8797 53.0365 64.861C53.0727 64.8435 53.1223 64.8342 53.1839 64.8342C53.2174 64.8342 53.2523 64.8395 53.2884 64.8516C53.2791 64.9601 53.271 65.1089 53.2683 65.2951L53.196 65.3206C53.1705 65.279 53.1437 65.2496 53.1142 65.2335C53.0848 65.2161 53.0459 65.2067 52.999 65.2067C52.9347 65.2067 52.8797 65.2241 52.8328 65.2576C52.7873 65.2911 52.7564 65.33 52.7444 65.3742C52.7363 65.4063 52.731 65.5176 52.731 65.7065C52.731 65.9826 52.735 66.1434 52.7417 66.1889C52.7471 66.2197 52.7564 66.2398 52.7725 66.2506C52.798 66.2666 52.8784 66.2787 53.0151 66.2854V66.4181L52.8328 66.4127C52.7176 66.41 52.6171 66.4087 52.5327 66.4087C52.4536 66.4087 52.3598 66.41 52.2539 66.4127L52.0704 66.4181ZM53.8901 64.0529C53.9598 64.0529 54.0201 64.077 54.0683 64.1266C54.1179 64.1762 54.1434 64.2365 54.1434 64.3075C54.1434 64.3772 54.1179 64.4362 54.0683 64.4857C54.0201 64.5353 53.9598 64.5594 53.8888 64.5594C53.8191 64.5594 53.7588 64.5353 53.7106 64.4857C53.661 64.4362 53.6355 64.3772 53.6355 64.3075C53.6355 64.2365 53.661 64.1762 53.7106 64.1266C53.7588 64.077 53.8191 64.0529 53.8901 64.0529ZM53.4358 66.4181V66.2854C53.5591 66.28 53.6301 66.2733 53.6489 66.2626C53.669 66.2506 53.6811 66.2211 53.6864 66.1702C53.6945 66.1018 53.6998 65.9517 53.6998 65.7172C53.6998 65.6167 53.6972 65.5243 53.6945 65.4372L53.6891 65.2469C53.6891 65.1839 53.6824 65.145 53.669 65.1303C53.6556 65.1156 53.6181 65.1075 53.5591 65.1062L53.4358 65.1008V64.9735C53.6972 64.9534 53.9129 64.9065 54.0817 64.8342L54.1233 64.8663C54.1072 65.074 54.0992 65.3769 54.0992 65.7735C54.0992 66.004 54.1032 66.142 54.1112 66.1903C54.1166 66.2238 54.126 66.2452 54.1407 66.2559C54.1554 66.2653 54.2265 66.2747 54.3538 66.2854V66.4181C54.1581 66.4114 54.0054 66.4087 53.8982 66.4087C53.8405 66.4087 53.6864 66.4114 53.4358 66.4181ZM54.5266 66.4181V66.2854C54.6432 66.28 54.7116 66.272 54.7317 66.2626C54.741 66.2559 54.7491 66.2452 54.7544 66.2331C54.7625 66.209 54.7678 66.0991 54.7719 65.9062C54.7745 65.7105 54.7772 65.5095 54.7772 65.2991C54.7772 65.129 54.7745 64.9119 54.7678 64.6452C54.7638 64.4509 54.7585 64.3437 54.7531 64.3223C54.7477 64.3022 54.7357 64.2861 54.7183 64.2754C54.7008 64.2646 54.6365 64.2593 54.5266 64.2566V64.14C54.6727 64.1253 54.7906 64.1092 54.8804 64.0891C54.9715 64.069 55.0533 64.0422 55.1283 64.0087C55.1498 64.0007 55.1645 63.9966 55.1725 63.9966C55.1886 63.9966 55.1966 64.0114 55.1966 64.0409L55.194 64.1105C55.1899 64.1909 55.1859 64.4965 55.1832 65.0271L55.1806 65.4841L55.1832 65.5739C55.4124 65.3795 55.6496 65.145 55.8935 64.8703C55.9712 64.877 56.0395 64.8811 56.1012 64.8811C56.1722 64.8811 56.2499 64.877 56.3317 64.8703V65.0043C56.2111 65.011 56.1387 65.0177 56.1132 65.0258C56.0878 65.0338 56.0516 65.0566 56.002 65.0941C55.9538 65.1316 55.8171 65.2509 55.5946 65.4492L55.8291 65.7159C56.0998 66.0228 56.2593 66.1956 56.3075 66.2358C56.3384 66.2626 56.3812 66.2787 56.4375 66.2854V66.4181C56.3169 66.4114 56.2044 66.4087 56.1025 66.4087C56.0234 66.4087 55.9444 66.4114 55.868 66.4181C55.7608 66.276 55.6536 66.1447 55.5451 66.0228C55.399 65.8566 55.2784 65.728 55.1832 65.6382V65.9008C55.1832 66.0536 55.19 66.1568 55.2034 66.2117C55.2087 66.2358 55.2194 66.2519 55.2369 66.2613C55.2529 66.2707 55.3199 66.2787 55.4379 66.2854V66.4181C55.2275 66.4114 55.0868 66.4087 55.0157 66.4087C54.9474 66.4087 54.7839 66.4114 54.5266 66.4181ZM58.0791 66.2854V66.4181L57.9531 66.4127C57.8861 66.41 57.8191 66.4087 57.7534 66.4087C57.6503 66.4087 57.5524 66.4114 57.4613 66.4181L57.4452 66.4007L57.4613 66.1755L57.1223 66.4301C57.062 66.4449 57.0084 66.4516 56.9615 66.4516C56.8462 66.4516 56.7578 66.4167 56.6948 66.3484C56.6318 66.28 56.601 66.1809 56.601 66.0496C56.601 65.8874 56.6439 65.7735 56.7296 65.7065C56.8395 65.6208 57.0834 65.543 57.4613 65.4747C57.46 65.346 57.4372 65.2536 57.3956 65.196C57.3353 65.1169 57.2442 65.0767 57.1196 65.0767C57.0901 65.0767 57.062 65.0807 57.0298 65.0874C56.999 65.0955 56.9682 65.1062 56.9374 65.1209L56.865 65.2938L56.7511 65.2656L56.7538 65.1933L56.7524 65.1223L56.7511 65.0566C56.9173 64.9534 57.0365 64.8891 57.1102 64.8636C57.1625 64.8435 57.2362 64.8342 57.3313 64.8342C57.46 64.8342 57.5632 64.8529 57.6436 64.8918C57.724 64.9306 57.7829 64.9829 57.8191 65.0499C57.8566 65.1156 57.8754 65.212 57.8754 65.3393C57.8754 65.3929 57.8727 65.4881 57.8687 65.6248C57.8647 65.7668 57.862 65.8807 57.862 65.9665C57.862 66.1018 57.866 66.1849 57.874 66.2144C57.8781 66.2318 57.8888 66.2452 57.9049 66.2559C57.9223 66.2653 57.9799 66.2747 58.0791 66.2854ZM57.4613 65.6141C57.271 65.6556 57.1451 65.6998 57.0874 65.7494C57.0298 65.7976 57.0017 65.862 57.0017 65.9437C57.0017 66.0107 57.0191 66.063 57.0566 66.1005C57.0941 66.1393 57.141 66.1581 57.1973 66.1581C57.2831 66.1581 57.3715 66.1099 57.4613 66.0134V65.6141ZM58.2492 66.4181V66.2854C58.3658 66.2787 58.4302 66.268 58.4449 66.2559C58.4596 66.2439 58.469 66.2157 58.473 66.1728C58.4797 66.063 58.4824 65.87 58.4824 65.5926C58.4824 65.4559 58.4797 65.338 58.4757 65.2388C58.473 65.1785 58.469 65.1424 58.4623 65.1316C58.4583 65.1223 58.4489 65.1156 58.4382 65.1129C58.4261 65.1075 58.3631 65.1035 58.2492 65.1008V64.9735C58.3069 64.9735 58.3993 64.9615 58.5226 64.936C58.6472 64.9105 58.7518 64.8811 58.8362 64.8489L58.8804 64.8342C58.8951 64.8342 58.9032 64.8462 58.9032 64.8703L58.9005 64.8864C58.8978 64.9159 58.8965 64.995 58.8965 65.1209L59.1484 64.9092C59.1792 64.8811 59.2114 64.8636 59.2462 64.8529C59.2931 64.8409 59.3508 64.8342 59.4191 64.8342C59.5343 64.8342 59.6281 64.8543 59.7018 64.8931C59.7742 64.9333 59.8278 64.9883 59.8626 65.0579C59.8962 65.1276 59.9136 65.2375 59.9136 65.3849C59.9136 65.4506 59.9122 65.5269 59.9082 65.6127C59.9028 65.7883 59.9002 65.941 59.9002 66.0697C59.9002 66.142 59.9069 66.1929 59.9176 66.2211C59.927 66.2412 59.939 66.2532 59.9551 66.2599C59.9712 66.2666 60.0301 66.2747 60.1333 66.2854V66.4181L59.9337 66.4114L59.8037 66.4087L59.4673 66.4181L59.4499 66.3966C59.4794 66.1903 59.4928 65.9785 59.4928 65.7615C59.4928 65.4854 59.4767 65.3152 59.4419 65.2509C59.399 65.1678 59.3199 65.1276 59.2047 65.1276C59.131 65.1276 59.0667 65.1464 59.0131 65.1839C58.9595 65.2214 58.9233 65.2616 58.9072 65.3032C58.9005 65.3206 58.8965 65.3755 58.8965 65.468C58.8965 65.862 58.8978 66.0884 58.9005 66.1447C58.9045 66.2023 58.9139 66.2372 58.9286 66.2506C58.9487 66.2666 59.0224 66.2787 59.1497 66.2854V66.4181C58.9608 66.4114 58.8013 66.4087 58.6714 66.4087C58.5936 66.4087 58.4529 66.4114 58.2492 66.4181ZM61.1504 66.4181V66.2854C61.2791 66.2747 61.3528 66.2653 61.3702 66.2532C61.3836 66.2465 61.393 66.2358 61.3997 66.2197C61.4104 66.1916 61.4184 66.079 61.4238 65.8807C61.4291 65.6824 61.4305 65.4908 61.4305 65.3045C61.4305 64.9561 61.4278 64.7082 61.4198 64.5594C61.4131 64.4107 61.4023 64.3263 61.3863 64.3089C61.3702 64.2914 61.3233 64.2807 61.2456 64.2754L61.1504 64.266V64.1333L61.334 64.1387C61.4492 64.1414 61.539 64.1427 61.606 64.1427C61.6985 64.1427 61.8472 64.1414 62.0523 64.1373C62.1635 64.1347 62.2452 64.1333 62.2975 64.1333C62.4918 64.1333 62.6352 64.1521 62.7276 64.1883C62.8201 64.2244 62.8911 64.2807 62.9394 64.3558C62.9876 64.4295 63.0117 64.5233 63.0117 64.6345C63.0117 64.8355 62.9407 65.0043 62.7973 65.141C62.6553 65.2764 62.4744 65.3447 62.2533 65.3447C62.2251 65.3447 62.1956 65.342 62.1648 65.338C62.1327 65.334 62.0992 65.3273 62.063 65.3206C62.0442 65.2817 62.0255 65.2442 62.004 65.2067L62.0415 65.1678C62.0657 65.1718 62.0884 65.1759 62.1085 65.1799C62.1273 65.1826 62.1461 65.1839 62.1621 65.1839C62.272 65.1839 62.3618 65.1464 62.4315 65.07C62.5012 64.9936 62.5347 64.8864 62.5347 64.7497C62.5347 64.5983 62.4985 64.4844 62.4275 64.4094C62.3551 64.3343 62.2492 64.2968 62.1099 64.2968C62.0536 64.2968 61.9879 64.3048 61.9116 64.3196C61.8995 64.6559 61.8941 64.94 61.8941 65.1745C61.8941 65.2522 61.8995 65.5028 61.9075 65.9249C61.9102 66.0924 61.9156 66.1876 61.9236 66.213C61.929 66.2318 61.9397 66.2439 61.9544 66.2519C61.9786 66.264 62.071 66.2747 62.2318 66.2854V66.4181C62.0402 66.4114 61.8781 66.4087 61.7467 66.4087C61.6878 66.4087 61.4894 66.4114 61.1504 66.4181ZM64.5166 66.1018L64.5621 66.1501L64.4898 66.3055C64.4107 66.3538 64.3276 66.3899 64.2379 66.4154C64.1481 66.4395 64.0529 66.4516 63.9524 66.4516C63.7152 66.4516 63.529 66.3832 63.3923 66.2452C63.257 66.1085 63.1886 65.9156 63.1886 65.6663C63.1886 65.5082 63.2087 65.3782 63.2489 65.275C63.2811 65.1919 63.3347 65.1223 63.4084 65.0673C63.4834 65.011 63.5692 64.9588 63.667 64.9092C63.7635 64.8583 63.8707 64.8342 63.9873 64.8342C64.1655 64.8342 64.3116 64.8837 64.4281 64.9829C64.5447 65.0821 64.6023 65.2429 64.6023 65.464C64.6023 65.4908 64.601 65.5323 64.5956 65.5872L64.329 65.6355C64.2472 65.6422 64.128 65.6449 63.9712 65.6449H63.6188C63.6348 65.8311 63.6911 65.9718 63.7863 66.067C63.8814 66.1608 64.0034 66.2077 64.1508 66.2077C64.2124 66.2077 64.274 66.1996 64.3357 66.1809C64.396 66.1635 64.4563 66.1367 64.5166 66.1018ZM63.608 65.4707C63.7059 65.48 63.8037 65.4841 63.9028 65.4841C63.9873 65.4841 64.0784 65.48 64.1722 65.4707L64.1735 65.3943C64.1735 65.2616 64.1494 65.1638 64.1012 65.1022C64.0516 65.0405 63.9859 65.011 63.9028 65.011C63.8425 65.011 63.793 65.0244 63.7501 65.0539C63.7085 65.0821 63.6764 65.1223 63.6563 65.1745C63.6348 65.2268 63.6201 65.3259 63.608 65.4707ZM64.8194 64.2338V64.14C64.9749 64.1199 65.0968 64.0985 65.1866 64.0757C65.2764 64.0543 65.3729 64.0234 65.4774 63.9832L65.5203 64.0194C65.5042 64.4067 65.4961 64.9494 65.4961 65.6449C65.4961 65.7856 65.4988 65.9276 65.5028 66.071C65.5055 66.1621 65.5109 66.2157 65.5189 66.2305C65.527 66.2452 65.539 66.2559 65.5578 66.2653C65.5752 66.2733 65.6395 66.28 65.7508 66.2854V66.4181L65.5779 66.4127C65.472 66.41 65.3809 66.4087 65.3085 66.4087L64.8194 66.4181V66.2854L64.9414 66.2787C64.995 66.276 65.0298 66.2653 65.0459 66.2479C65.062 66.2305 65.0714 66.1621 65.074 66.0442C65.0807 65.8794 65.0834 65.6449 65.0834 65.3434L65.0807 64.6465C65.0807 64.4335 65.074 64.3142 65.0633 64.2874C65.0593 64.274 65.0513 64.2646 65.0392 64.2579C65.0191 64.2459 64.9467 64.2378 64.8194 64.2338ZM67.4352 66.2854V66.4181L67.3092 66.4127C67.2422 66.41 67.1752 66.4087 67.1095 66.4087C67.0064 66.4087 66.9085 66.4114 66.8174 66.4181L66.8013 66.4007L66.8174 66.1755L66.4784 66.4301C66.4181 66.4449 66.3645 66.4516 66.3176 66.4516C66.2023 66.4516 66.1139 66.4167 66.0509 66.3484C65.9879 66.28 65.9571 66.1809 65.9571 66.0496C65.9571 65.8874 66 65.7735 66.0858 65.7065C66.1956 65.6208 66.4395 65.543 66.8174 65.4747C66.8161 65.346 66.7933 65.2536 66.7518 65.196C66.6915 65.1169 66.6003 65.0767 66.4757 65.0767C66.4462 65.0767 66.4181 65.0807 66.3859 65.0874C66.3551 65.0955 66.3243 65.1062 66.2935 65.1209L66.2211 65.2938L66.1072 65.2656L66.1112 65.1933L66.1085 65.1223L66.1072 65.0566C66.2734 64.9534 66.3926 64.8891 66.4663 64.8636C66.5186 64.8435 66.5923 64.8342 66.6874 64.8342C66.8161 64.8342 66.9193 64.8529 66.9997 64.8918C67.0801 64.9306 67.139 64.9829 67.1752 65.0499C67.2127 65.1156 67.2315 65.212 67.2315 65.3393C67.2315 65.3929 67.2288 65.4881 67.2248 65.6248C67.2208 65.7668 67.2181 65.8807 67.2181 65.9665C67.2181 66.1018 67.2221 66.1849 67.2302 66.2144C67.2342 66.2318 67.2436 66.2452 67.261 66.2559C67.2784 66.2653 67.336 66.2747 67.4352 66.2854ZM66.8174 65.6141C66.6271 65.6556 66.5012 65.6998 66.4436 65.7494C66.3859 65.7976 66.3578 65.862 66.3578 65.9437C66.3578 66.0107 66.3752 66.063 66.4127 66.1005C66.4503 66.1393 66.4972 66.1581 66.5534 66.1581C66.6392 66.1581 66.7276 66.1099 66.8174 66.0134V65.6141ZM67.5156 65.0043V64.8703C67.7648 64.877 67.9243 64.8811 67.994 64.8811C68.0905 64.8811 68.2271 64.877 68.4027 64.8703V65.0043C68.3022 65.0084 68.2419 65.0151 68.2231 65.0258C68.2044 65.0365 68.1936 65.0539 68.1936 65.0767C68.1936 65.1089 68.2472 65.2603 68.3544 65.5283L68.5313 65.9772L68.6827 65.6221C68.8181 65.3045 68.8864 65.1209 68.8864 65.0727C68.8864 65.0499 68.8771 65.0338 68.8569 65.0244C68.8382 65.0151 68.7806 65.0084 68.6827 65.0043V64.8703L68.7859 64.8744C68.8945 64.8784 68.9682 64.8811 69.003 64.8811C69.0432 64.8811 69.1451 64.877 69.3099 64.8703V65.0043C69.2563 65.0043 69.2134 65.0124 69.1799 65.0285C69.1652 65.0365 69.1531 65.0472 69.1424 65.0633C69.125 65.0874 69.0566 65.2375 68.936 65.5135L68.6332 66.2063L68.3518 66.8469C68.2888 66.9782 68.2312 67.0707 68.1802 67.1229C68.1307 67.1765 68.0757 67.2154 68.0154 67.2409C67.9564 67.2663 67.8894 67.2784 67.8157 67.2784C67.742 67.2784 67.6643 67.261 67.5812 67.2234C67.608 67.1162 67.6268 67.0117 67.6389 66.9099L67.6817 66.8951C67.7461 66.9661 67.8198 67.0023 67.9042 67.0023C67.9766 67.0023 68.0355 66.9782 68.0824 66.9313C68.1293 66.8857 68.2017 66.7504 68.2995 66.5266L67.9363 65.606L67.7367 65.1115C67.7193 65.0713 67.7005 65.0445 67.6804 65.0325C67.6603 65.0204 67.6054 65.011 67.5156 65.0043ZM70.9581 66.2854V66.4181L70.8322 66.4127C70.7652 66.41 70.6995 66.4087 70.6325 66.4087C70.5293 66.4087 70.4328 66.4114 70.3404 66.4181L70.3243 66.4007L70.3417 66.1755L70.0013 66.4301C69.941 66.4449 69.8874 66.4516 69.8405 66.4516C69.7266 66.4516 69.6369 66.4167 69.5739 66.3484C69.5109 66.28 69.4801 66.1809 69.4801 66.0496C69.4801 65.8874 69.5229 65.7735 69.6087 65.7065C69.7186 65.6208 69.9625 65.543 70.3417 65.4747C70.339 65.346 70.3163 65.2536 70.2747 65.196C70.2157 65.1169 70.1233 65.0767 70 65.0767C69.9705 65.0767 69.941 65.0807 69.9102 65.0874C69.8794 65.0955 69.8472 65.1062 69.8164 65.1209L69.7441 65.2938L69.6302 65.2656L69.6342 65.1933L69.6315 65.1223L69.6302 65.0566C69.7963 64.9534 69.9156 64.8891 69.9893 64.8636C70.0415 64.8435 70.1152 64.8342 70.2104 64.8342C70.339 64.8342 70.4422 64.8529 70.524 64.8918C70.603 64.9306 70.662 64.9829 70.6995 65.0499C70.7357 65.1156 70.7544 65.212 70.7544 65.3393C70.7544 65.3929 70.7518 65.4881 70.7477 65.6248C70.7437 65.7668 70.741 65.8807 70.741 65.9665C70.741 66.1018 70.7451 66.1849 70.7531 66.2144C70.7571 66.2318 70.7678 66.2452 70.7853 66.2559C70.8013 66.2653 70.859 66.2747 70.9581 66.2854ZM70.3417 65.6141C70.1501 65.6556 70.0241 65.6998 69.9678 65.7494C69.9102 65.7976 69.8807 65.862 69.8807 65.9437C69.8807 66.0107 69.8995 66.063 69.9357 66.1005C69.9732 66.1393 70.0201 66.1581 70.0764 66.1581C70.1621 66.1581 70.2506 66.1099 70.3417 66.0134V65.6141ZM71.1283 66.4181V66.2854C71.2449 66.2787 71.3092 66.268 71.324 66.2559C71.34 66.2439 71.3481 66.2157 71.3521 66.1728C71.3588 66.063 71.3615 65.87 71.3615 65.5926C71.3615 65.4559 71.3601 65.338 71.3548 65.2388C71.3534 65.1785 71.3494 65.1424 71.3427 65.1316C71.3374 65.1223 71.328 65.1156 71.3173 65.1129C71.3052 65.1075 71.2422 65.1035 71.1283 65.1008V64.9735C71.1873 64.9735 71.2784 64.9615 71.403 64.936C71.5263 64.9105 71.6308 64.8811 71.7152 64.8489L71.7595 64.8342C71.7742 64.8342 71.7822 64.8462 71.7822 64.8703L71.7809 64.8864C71.7769 64.9159 71.7755 64.995 71.7755 65.1209L72.0275 64.9092C72.0583 64.8811 72.0918 64.8636 72.1253 64.8529C72.1722 64.8409 72.2312 64.8342 72.2982 64.8342C72.4134 64.8342 72.5072 64.8543 72.5809 64.8931C72.6533 64.9333 72.7082 64.9883 72.7417 65.0579C72.7752 65.1276 72.7926 65.2375 72.7926 65.3849C72.7926 65.4506 72.7913 65.5269 72.7886 65.6127C72.7819 65.7883 72.7792 65.941 72.7792 66.0697C72.7792 66.142 72.7859 66.1929 72.7966 66.2211C72.806 66.2412 72.8181 66.2532 72.8342 66.2599C72.8503 66.2666 72.9092 66.2747 73.0124 66.2854V66.4181L72.8127 66.4114L72.6828 66.4087L72.3464 66.4181L72.329 66.3966C72.3585 66.1903 72.3732 65.9785 72.3732 65.7615C72.3732 65.4854 72.3558 65.3152 72.3223 65.2509C72.2781 65.1678 72.199 65.1276 72.0851 65.1276C72.01 65.1276 71.9471 65.1464 71.8921 65.1839C71.8385 65.2214 71.8037 65.2616 71.7876 65.3032C71.7796 65.3206 71.7755 65.3755 71.7755 65.468C71.7755 65.862 71.7769 66.0884 71.7809 66.1447C71.7836 66.2023 71.793 66.2372 71.8077 66.2506C71.8278 66.2666 71.9015 66.2787 72.0288 66.2854V66.4181C71.8399 66.4114 71.6804 66.4087 71.5504 66.4087C71.4727 66.4087 71.332 66.4114 71.1283 66.4181ZM74.6633 66.2854V66.4181L74.5374 66.4127C74.4704 66.41 74.4047 66.4087 74.3377 66.4087C74.2345 66.4087 74.138 66.4114 74.0456 66.4181L74.0295 66.4007L74.0469 66.1755L73.7079 66.4301C73.6462 66.4449 73.5926 66.4516 73.5457 66.4516C73.4318 66.4516 73.342 66.4167 73.2804 66.3484C73.2174 66.28 73.1866 66.1809 73.1866 66.0496C73.1866 65.8874 73.2281 65.7735 73.3139 65.7065C73.4251 65.6208 73.669 65.543 74.0469 65.4747C74.0442 65.346 74.0228 65.2536 73.9799 65.196C73.9209 65.1169 73.8298 65.0767 73.7052 65.0767C73.6757 65.0767 73.6462 65.0807 73.6154 65.0874C73.5846 65.0955 73.5538 65.1062 73.5229 65.1209L73.4492 65.2938L73.3367 65.2656L73.3394 65.1933L73.338 65.1223L73.3367 65.0566C73.5028 64.9534 73.6221 64.8891 73.6945 64.8636C73.7481 64.8435 73.8218 64.8342 73.9156 64.8342C74.0442 64.8342 74.1487 64.8529 74.2291 64.8918C74.3095 64.9306 74.3685 64.9829 74.4047 65.0499C74.4422 65.1156 74.4596 65.212 74.4596 65.3393C74.4596 65.3929 74.4583 65.4881 74.4543 65.6248C74.4489 65.7668 74.4476 65.8807 74.4476 65.9665C74.4476 66.1018 74.4503 66.1849 74.4583 66.2144C74.4623 66.2318 74.473 66.2452 74.4905 66.2559C74.5065 66.2653 74.5655 66.2747 74.6633 66.2854ZM74.0469 65.6141C73.8553 65.6556 73.7307 65.6998 73.673 65.7494C73.6154 65.7976 73.5859 65.862 73.5859 65.9437C73.5859 66.0107 73.6047 66.063 73.6422 66.1005C73.6784 66.1393 73.7253 66.1581 73.7816 66.1581C73.8687 66.1581 73.9571 66.1099 74.0469 66.0134V65.6141Z" fill="#FEFEFE"/>
<path fill-rule="evenodd" clip-rule="evenodd" d="M74.8335 66.4181V66.2854C74.9501 66.2787 75.0157 66.268 75.0305 66.2559C75.0452 66.2439 75.0546 66.2157 75.0573 66.1728C75.064 66.063 75.068 65.87 75.068 65.5926C75.068 65.4559 75.0653 65.338 75.0613 65.2388C75.0586 65.1785 75.0546 65.1424 75.0479 65.1316C75.0425 65.1223 75.0345 65.1156 75.0224 65.1129C75.0117 65.1075 74.9474 65.1035 74.8335 65.1008V64.9735C74.8925 64.9735 74.9836 64.9615 75.1082 64.936C75.2315 64.9105 75.336 64.8811 75.4204 64.8489L75.4647 64.8342C75.4794 64.8342 75.4874 64.8462 75.4874 64.8703L75.4861 64.8864C75.4821 64.9159 75.4807 64.995 75.4807 65.1209L75.7327 64.9092C75.7648 64.8811 75.797 64.8636 75.8305 64.8529C75.8787 64.8409 75.9363 64.8342 76.0047 64.8342C76.1199 64.8342 76.2137 64.8543 76.2861 64.8931C76.3598 64.9333 76.4134 64.9883 76.4469 65.0579C76.4817 65.1276 76.4992 65.2375 76.4992 65.3849C76.4992 65.4506 76.4965 65.5269 76.4938 65.6127C76.4884 65.7883 76.4858 65.941 76.4858 66.0697C76.4858 66.142 76.4911 66.1929 76.5032 66.2211C76.5126 66.2412 76.5246 66.2532 76.5394 66.2599C76.5554 66.2666 76.6157 66.2747 76.7189 66.2854V66.4181L76.5179 66.4114L76.3893 66.4087L76.0529 66.4181L76.0355 66.3966C76.0637 66.1903 76.0784 65.9785 76.0784 65.7615C76.0784 65.4854 76.061 65.3152 76.0275 65.2509C75.9846 65.1678 75.9055 65.1276 75.7903 65.1276C75.7166 65.1276 75.6523 65.1464 75.5987 65.1839C75.5437 65.2214 75.5089 65.2616 75.4928 65.3032C75.4848 65.3206 75.4807 65.3755 75.4807 65.468C75.4807 65.862 75.4821 66.0884 75.4861 66.1447C75.4901 66.2023 75.4995 66.2372 75.5142 66.2506C75.5343 66.2666 75.6067 66.2787 75.734 66.2854V66.4181C75.5451 66.4114 75.3856 66.4087 75.2556 66.4087C75.1792 66.4087 75.0385 66.4114 74.8335 66.4181ZM78.1729 66.4181V66.2854C78.2332 66.2854 78.2975 66.2787 78.3645 66.268C78.3953 66.2626 78.4168 66.2546 78.4302 66.2412C78.4422 66.2291 78.4516 66.2063 78.4583 66.1728C78.4663 66.1259 78.473 65.9544 78.4784 65.6583C78.4811 65.4479 78.4824 65.2335 78.4824 65.0137C78.4824 64.5822 78.4824 64.3638 78.4784 64.3558C78.4757 64.3477 78.4382 64.3437 78.3631 64.3437C78.2117 64.3437 78.0817 64.3477 77.9719 64.3571C77.9102 64.3611 77.874 64.3665 77.866 64.3732C77.858 64.3785 77.8513 64.3879 77.8472 64.4013C77.8419 64.4161 77.8338 64.5112 77.8191 64.6908H77.6784C77.6811 64.479 77.6757 64.2981 77.6623 64.1467L77.6797 64.1333C78.0228 64.1494 78.3551 64.1561 78.6794 64.1561C79.001 64.1561 79.3628 64.1494 79.7621 64.1333L79.7809 64.1601C79.7595 64.3102 79.7461 64.4871 79.7367 64.6908H79.6C79.5906 64.5058 79.5812 64.4053 79.5705 64.3906C79.5638 64.3772 79.5464 64.3692 79.5196 64.3651C79.4325 64.3504 79.2596 64.3437 79.001 64.3437C78.9796 64.3437 78.9675 64.3464 78.9621 64.3531C78.9581 64.3611 78.9568 64.3893 78.9568 64.4388L78.9461 65.535C78.9461 65.8526 78.9487 66.0469 78.9554 66.1192C78.9595 66.1916 78.9729 66.2358 78.9943 66.2506C79.0077 66.2599 79.0935 66.272 79.2503 66.2854V66.4181C79.0908 66.4114 78.9219 66.4087 78.7437 66.4087C78.5092 66.4087 78.3189 66.4114 78.1729 66.4181ZM81.2884 66.1018L81.3353 66.1501L81.2616 66.3055C81.1839 66.3538 81.0995 66.3899 81.0097 66.4154C80.9213 66.4395 80.8261 66.4516 80.7243 66.4516C80.4871 66.4516 80.3008 66.3832 80.1655 66.2452C80.0288 66.1085 79.9605 65.9156 79.9605 65.6663C79.9605 65.5082 79.9806 65.3782 80.0208 65.275C80.0529 65.1919 80.1065 65.1223 80.1816 65.0673C80.2553 65.011 80.341 64.9588 80.4389 64.9092C80.5367 64.8583 80.6425 64.8342 80.7591 64.8342C80.9373 64.8342 81.0848 64.8837 81.2 64.9829C81.3166 65.0821 81.3755 65.2429 81.3755 65.464C81.3755 65.4908 81.3729 65.5323 81.3688 65.5873L81.1022 65.6355C81.0191 65.6422 80.8998 65.6449 80.7444 65.6449H80.3906C80.4067 65.8311 80.463 65.9718 80.5595 66.067C80.6546 66.1608 80.7752 66.2077 80.924 66.2077C80.9856 66.2077 81.0459 66.1996 81.1075 66.1809C81.1678 66.1635 81.2281 66.1367 81.2884 66.1018ZM80.3812 65.4707C80.4791 65.48 80.5769 65.4841 80.6747 65.4841C80.7605 65.4841 80.8503 65.48 80.9441 65.4707L80.9467 65.3943C80.9467 65.2616 80.9213 65.1638 80.873 65.1022C80.8235 65.0405 80.7578 65.011 80.6747 65.011C80.6157 65.011 80.5648 65.0244 80.5233 65.0539C80.4804 65.0821 80.4482 65.1223 80.4281 65.1745C80.408 65.2268 80.392 65.3259 80.3812 65.4707ZM81.535 66.4181V66.2854C81.6449 66.2787 81.7079 66.2733 81.724 66.2653C81.736 66.2586 81.7467 66.2492 81.7548 66.2345C81.7668 66.2077 81.7735 66.1514 81.7749 66.0616C81.7802 65.9035 81.7816 65.7588 81.7816 65.6288C81.7816 65.3769 81.7789 65.2281 81.7722 65.1826C81.7695 65.1544 81.7588 65.1357 81.7427 65.1236C81.7266 65.1129 81.657 65.1048 81.535 65.1008V64.9735C81.7548 64.9521 81.9116 64.9266 82.0054 64.8971L82.1729 64.8342C82.1876 64.8342 82.1956 64.8435 82.1956 64.865L82.1943 64.8878C82.1903 64.9561 82.1889 65.0539 82.1889 65.1826C82.2439 65.129 82.3042 65.062 82.3712 64.9802C82.4208 64.9199 82.4637 64.8797 82.5012 64.861C82.5374 64.8435 82.5869 64.8342 82.6472 64.8342C82.6821 64.8342 82.7169 64.8395 82.7531 64.8516C82.7424 64.9601 82.7357 65.1089 82.733 65.2951L82.6606 65.3206C82.6352 65.279 82.6084 65.2496 82.5789 65.2335C82.5494 65.2161 82.5106 65.2067 82.4637 65.2067C82.3993 65.2067 82.343 65.2241 82.2975 65.2576C82.2519 65.2911 82.2211 65.33 82.209 65.3742C82.1997 65.4063 82.1956 65.5176 82.1956 65.7065C82.1956 65.9826 82.1997 66.1434 82.2064 66.1889C82.2117 66.2197 82.2211 66.2398 82.2372 66.2506C82.2613 66.2666 82.343 66.2787 82.4797 66.2854V66.4181L82.2975 66.4127C82.1822 66.41 82.0817 66.4087 81.9973 66.4087C81.9183 66.4087 81.8245 66.41 81.7186 66.4127L81.535 66.4181ZM83.1913 66.4516L83.1136 66.4208C83.1337 66.1581 83.1444 65.795 83.1444 65.3313C83.1444 65.1209 83.1417 64.9588 83.139 64.8449L83.1296 64.4268C83.1296 64.3625 83.1243 64.3196 83.1122 64.2981C83.1055 64.2847 83.0921 64.2754 83.072 64.27C83.0586 64.266 82.9943 64.2606 82.8804 64.2566V64.14C82.9394 64.14 83.0345 64.1266 83.1645 64.1025C83.2958 64.077 83.3923 64.0516 83.458 64.0234L83.529 63.9966C83.5504 63.9966 83.5611 64.0087 83.5611 64.0355L83.5558 64.2057C83.5531 64.2646 83.5491 64.5728 83.5437 65.1276L83.742 64.9641C83.8037 64.9119 83.8586 64.877 83.9082 64.8596C83.9578 64.8422 84.0168 64.8342 84.0864 64.8342C84.27 64.8342 84.4161 64.8918 84.526 65.0084C84.6372 65.1249 84.6921 65.2764 84.6921 65.464C84.6921 65.5564 84.676 65.6516 84.6466 65.7494C84.6157 65.8486 84.5769 65.929 84.5327 65.9906C84.4871 66.0536 84.4295 66.1085 84.3571 66.1568C84.2673 66.2144 84.191 66.2666 84.128 66.3149C84.0529 66.3712 83.9899 66.4087 83.939 66.4261C83.8881 66.4422 83.8251 66.4516 83.7514 66.4516C83.6791 66.4516 83.6107 66.4422 83.5477 66.4234C83.4848 66.406 83.4137 66.3725 83.3333 66.3243C83.3079 66.343 83.261 66.3859 83.1913 66.4516ZM83.5437 65.2991V66.0469C83.5839 66.1072 83.6322 66.1514 83.6898 66.1822C83.7461 66.213 83.8104 66.2278 83.8814 66.2278C83.998 66.2278 84.0918 66.1822 84.1628 66.0898C84.2352 65.996 84.2714 65.8553 84.2714 65.6663C84.2714 65.4881 84.2352 65.3541 84.1615 65.263C84.0878 65.1732 83.9926 65.1276 83.8734 65.1276C83.8104 65.1276 83.7514 65.1424 83.6965 65.1705C83.6415 65.1986 83.5906 65.2429 83.5437 65.2991ZM86.4328 66.2854V66.4181L86.3055 66.4127C86.2399 66.41 86.1729 66.4087 86.1059 66.4087C86.004 66.4087 85.9062 66.4114 85.8151 66.4181L85.799 66.4007L85.8151 66.1755L85.4761 66.4301C85.4157 66.4449 85.3608 66.4516 85.3152 66.4516C85.2 66.4516 85.1116 66.4167 85.0486 66.3484C84.9856 66.28 84.9548 66.1809 84.9548 66.0496C84.9548 65.8874 84.9977 65.7735 85.0834 65.7065C85.1933 65.6208 85.4372 65.543 85.8151 65.4747C85.8124 65.346 85.791 65.2536 85.7494 65.196C85.6891 65.1169 85.598 65.0767 85.4734 65.0767C85.4439 65.0767 85.4144 65.0807 85.3836 65.0874C85.3528 65.0955 85.3219 65.1062 85.2911 65.1209L85.2174 65.2938L85.1049 65.2656L85.1075 65.1933L85.1062 65.1223L85.1049 65.0566C85.271 64.9534 85.3903 64.8891 85.4626 64.8636C85.5162 64.8435 85.5899 64.8342 85.6851 64.8342C85.8124 64.8342 85.9169 64.8529 85.9973 64.8918C86.0777 64.9306 86.1367 64.9829 86.1729 65.0499C86.2104 65.1156 86.2291 65.212 86.2291 65.3393C86.2291 65.3929 86.2265 65.4881 86.2225 65.6248C86.2171 65.7668 86.2157 65.8807 86.2157 65.9665C86.2157 66.1018 86.2198 66.1849 86.2278 66.2144C86.2305 66.2318 86.2412 66.2452 86.2586 66.2559C86.276 66.2653 86.3337 66.2747 86.4328 66.2854ZM85.8151 65.6141C85.6234 65.6556 85.4988 65.6998 85.4412 65.7494C85.3836 65.7976 85.3554 65.862 85.3554 65.9437C85.3554 66.0107 85.3729 66.063 85.4104 66.1005C85.4466 66.1393 85.4948 66.1581 85.5511 66.1581C85.6368 66.1581 85.7253 66.1099 85.8151 66.0134V65.6141ZM87.06 64.0529C87.1296 64.0529 87.19 64.077 87.2395 64.1266C87.2891 64.1762 87.3132 64.2365 87.3132 64.3075C87.3132 64.3772 87.2891 64.4362 87.2395 64.4857C87.19 64.5353 87.1296 64.5594 87.0586 64.5594C86.9889 64.5594 86.93 64.5353 86.8804 64.4857C86.8308 64.4362 86.8054 64.3772 86.8054 64.3075C86.8054 64.2365 86.8308 64.1762 86.8804 64.1266C86.93 64.077 86.9889 64.0529 87.06 64.0529ZM86.6057 66.4181V66.2854C86.729 66.28 86.8 66.2733 86.8188 66.2626C86.8389 66.2506 86.8509 66.2211 86.8563 66.1702C86.8643 66.1018 86.8697 65.9517 86.8697 65.7172C86.8697 65.6167 86.8683 65.5243 86.8643 65.4372L86.859 65.2469C86.859 65.1839 86.8523 65.145 86.8389 65.1303C86.8255 65.1156 86.7893 65.1075 86.729 65.1062L86.6057 65.1008V64.9735C86.8683 64.9534 87.0828 64.9065 87.2529 64.8342L87.2931 64.8663C87.2771 65.074 87.269 65.3769 87.269 65.7735C87.269 66.004 87.273 66.142 87.2811 66.1903C87.2864 66.2238 87.2958 66.2452 87.3106 66.2559C87.3253 66.2653 87.3963 66.2747 87.5236 66.2854V66.4181C87.328 66.4114 87.1752 66.4087 87.068 66.4087C87.0117 66.4087 86.8576 66.4114 86.6057 66.4181ZM87.6965 66.4181V66.2854C87.8131 66.28 87.8814 66.272 87.9015 66.2626C87.9109 66.2559 87.9189 66.2452 87.9243 66.2331C87.9323 66.209 87.939 66.0991 87.9417 65.9062C87.9457 65.7105 87.9471 65.5095 87.9471 65.2991C87.9471 65.129 87.9444 64.9119 87.939 64.6452C87.9337 64.4509 87.9283 64.3437 87.923 64.3223C87.9176 64.3022 87.9055 64.2861 87.8881 64.2754C87.8707 64.2646 87.8064 64.2593 87.6965 64.2566V64.14C87.8426 64.1253 87.9605 64.1092 88.0502 64.0891C88.1414 64.069 88.2231 64.0422 88.2995 64.0087C88.3196 64.0007 88.3343 63.9966 88.3424 63.9966C88.3585 63.9966 88.3678 64.0114 88.3678 64.0409L88.3638 64.1105C88.3611 64.1909 88.3571 64.4965 88.3544 65.0271L88.3504 65.4841L88.3544 65.5739C88.5836 65.3795 88.8194 65.145 89.0633 64.8703C89.141 64.877 89.2094 64.8811 89.271 64.8811C89.3434 64.8811 89.4198 64.877 89.5015 64.8703V65.0043C89.3809 65.011 89.3085 65.0177 89.2831 65.0258C89.259 65.0338 89.2214 65.0566 89.1719 65.0941C89.1236 65.1316 88.9883 65.2509 88.7645 65.4492L89.0003 65.7159C89.2697 66.0228 89.4291 66.1956 89.4774 66.2358C89.5082 66.2626 89.5524 66.2787 89.6087 66.2854V66.4181C89.4868 66.4114 89.3742 66.4087 89.2724 66.4087C89.1933 66.4087 89.1156 66.4114 89.0378 66.4181C88.9306 66.276 88.8234 66.1447 88.7149 66.0228C88.5688 65.8566 88.4482 65.728 88.3544 65.6382V65.9008C88.3544 66.0536 88.3611 66.1568 88.3745 66.2117C88.3786 66.2358 88.3906 66.2519 88.4067 66.2613C88.4228 66.2707 88.4898 66.2787 88.6077 66.2854V66.4181C88.3973 66.4114 88.2566 66.4087 88.1856 66.4087C88.1173 66.4087 87.9538 66.4114 87.6965 66.4181Z" fill="#FEFEFE"/>
<path fill-rule="evenodd" clip-rule="evenodd" d="M35.8519 43.1256C33.9987 43.1484 32.6908 43.7541 31.8908 44.3665C35.1551 43.1618 37.2992 43.3923 38.142 45.1772C39.0613 47.1229 37.9652 49.9772 34.6593 52.1923C30.3404 55.0854 26.9514 55.2141 24.8288 53.0995C25.8486 55.3427 28.4 55.9269 31.6054 54.9125C35.9551 53.535 38.741 51.1846 39.86 48.1842C41.0499 44.9936 39.2543 43.0841 35.8519 43.1256Z" fill="#FEFEFE"/>
<path fill-rule="evenodd" clip-rule="evenodd" d="M27.6911 53.1504C29.5457 53.1276 30.8536 52.5206 31.6523 51.9095C28.3893 53.1129 26.2452 52.8837 25.401 51.0975C24.4817 49.1531 25.5779 46.2975 28.8851 44.0837C33.204 41.1893 36.593 41.062 38.7156 43.1765C37.6958 40.9333 35.143 40.3491 31.939 41.3635C27.5879 42.741 24.802 45.0914 23.6831 48.0918C22.4931 51.2824 24.2901 53.1919 27.6911 53.1504Z" fill="#F08519"/>
</svg>
