<svg width="109" height="108" viewBox="0 0 109 108" fill="none" xmlns="http://www.w3.org/2000/svg">
<path d="M22.7022 53.5874H25.7652C25.7652 53.5874 25.7848 53.5874 25.7927 53.5953H26.3707C26.469 53.5874 27.3694 53.4656 27.5188 52.5769C27.57 52.227 27.6368 51.7001 27.0391 50.9923C27.0195 50.9727 26.9998 50.9491 26.9841 50.9294L21.3574 45C22.1989 47.194 22.7061 50.2531 22.7061 53.5678V53.5835" fill="#FAA61A"/>
<path d="M28.0143 52.2742C28.0418 52.4118 27.971 53.0055 27.7941 53.3083C27.452 53.8981 26.7875 54.1183 26.3982 54.1419H15.0505C14.559 54.1419 14.3113 54.767 14.6613 55.1327L15.4123 55.923L15.2471 55.577C15.2511 55.3529 15.4123 55.1366 15.6561 55.1327H26.701C27.2121 55.0973 28.2069 54.7356 28.2974 53.615C28.2974 53.5835 28.3013 53.5481 28.3052 53.5127C28.2974 53.0802 28.1991 52.6595 28.0143 52.2624V52.2742Z" fill="#2A9C46"/>
<path d="M28.3092 53.5678C28.3092 53.3908 28.2934 53.2139 28.262 53.037C28.2895 53.1982 28.3052 53.3594 28.3092 53.5206C28.3092 53.556 28.3052 53.5914 28.3013 53.6228C28.2069 54.7395 27.2161 55.1013 26.701 55.1366H15.6561C15.4241 55.1366 15.2471 55.3332 15.2471 55.5967C15.2471 55.8208 15.4123 55.927 15.4123 55.927L19.5448 60.2679C20.5357 61.3099 22.1478 61.3099 23.1386 60.2679L25.95 57.315L27.4795 55.7618C27.7154 55.522 28.0103 55.0423 28.1637 54.5351C28.321 54.016 28.3052 53.5678 28.3052 53.5599" fill="#B72126"/>
<path d="M33.8651 52.4039C34.3408 51.5939 35.0446 51.1929 35.9687 51.1929C37.9464 51.2676 38.9294 52.6241 38.9294 55.2782C38.9294 57.9323 37.7774 59.1866 35.4772 59.2298C33.1612 59.2456 31.9974 58.0778 31.9974 55.7343V49.0853H32.9371C33.5544 49.0853 33.8651 49.4235 33.8651 50.0723V52.4039ZM33.8651 55.1917C33.8493 56.7684 34.3565 57.5666 35.4221 57.5666C36.4877 57.5666 37.0224 56.7723 37.0224 55.1917C36.9792 53.6857 36.4602 52.9505 35.4496 52.9505C34.4391 52.9505 33.9201 53.6897 33.8651 55.1917Z" fill="#B52326"/>
<path d="M39.7748 55.0895C39.8299 52.5691 41.1078 51.3148 43.5928 51.3148H43.8601V53.3515H43.2271C42.189 53.3515 41.67 53.9256 41.67 55.0619V59.1158H39.7748V55.0895Z" fill="#B52326"/>
<path d="M46.5968 50.0447V54.366L48.9009 51.5939H51.1461L48.5785 54.4839L51.1775 59.1158H48.9324L47.6112 56.5482C47.3714 56.1078 47.1355 55.8837 46.8956 55.8837C46.699 55.927 46.6007 56.0607 46.6007 56.2691V59.1158H44.733V49.0853H45.7003C46.1918 49.0853 46.5968 49.5257 46.5968 50.0447Z" fill="#B52326"/>
<path d="M54.85 57.7003C55.6364 57.7003 56.0296 57.4644 56.0296 56.9611C56.0296 56.564 55.3848 56.2376 54.1069 56.0017C52.4633 55.6911 51.6219 54.9243 51.6101 53.7015C51.6101 52.0225 52.8722 51.2243 54.5708 51.1929C55.5263 51.1929 56.2852 51.4131 56.8435 51.8574C57.3901 52.3135 57.685 52.9505 57.7282 53.7605H56.5486C56.1122 53.7447 55.833 53.5835 55.719 53.2729C55.5932 52.9347 55.2118 52.7421 54.5944 52.7421C53.8631 52.7421 53.4974 52.9505 53.4974 53.3476C53.4974 53.7447 53.9771 54.0553 54.9444 54.248C56.2065 54.5115 57.0362 54.8535 57.4412 55.2507C57.7911 55.636 57.9602 56.1078 57.9602 56.6387C57.9602 58.5575 56.529 59.2652 54.563 59.2652C53.5249 59.2652 52.7385 59.0293 52.2313 58.5732C51.669 58.1328 51.3899 57.4526 51.3899 56.5522H53.3008C53.3441 57.4054 53.9339 57.7003 54.8461 57.7003" fill="#2A9C46"/>
<path d="M59.7217 60.4999C60.748 60.4999 61.1097 59.969 60.8148 58.9349L58.2866 51.3108H60.4059L61.8804 56.7212L63.1701 52.0029C63.2841 51.5467 63.579 51.3108 64.0548 51.3108H65.3602L62.4269 60.4409C61.9787 61.7227 61.5304 62.167 59.9852 62.167C59.5094 62.167 59.2538 62.1513 59.1988 62.108V60.4999H59.7217Z" fill="#2A9C46"/>
<path d="M67.4009 53.3476H65.5332C65.7573 51.9006 66.7246 51.1929 68.4389 51.1929C70.4875 51.1929 71.5255 51.9006 71.5688 53.3476V56.0017C71.5688 58.1564 70.3341 59.1119 68.3249 59.2613C66.5437 59.4068 65.3091 58.5378 65.3091 56.8117C65.3523 54.94 66.642 54.4368 68.5215 54.248C69.3236 54.1458 69.7286 53.8941 69.7286 53.4656C69.6854 53.0252 69.2922 52.801 68.5215 52.801C67.8609 52.801 67.4953 52.978 67.4009 53.3476ZM69.7601 55.9152V55.1917C69.3236 55.3844 68.8203 55.5456 68.2738 55.6635C67.5306 55.8129 67.1492 56.1786 67.1492 56.7566C67.1925 57.3779 67.4992 57.6728 68.089 57.6728C69.127 57.6728 69.7601 57.024 69.7601 55.9191" fill="#2A9C46"/>
<path d="M72.4653 55.0895C72.5203 52.5691 73.7982 51.3148 76.2832 51.3148H76.5506V53.3515H75.9175C74.8795 53.3515 74.3605 53.9256 74.3605 55.0619V59.1158H72.4653V55.0895Z" fill="#2A9C46"/>
<path d="M78.6699 49.0853C79.2872 49.0853 79.5821 49.4077 79.5664 50.0447V50.6188H77.6987V49.0853H78.6699ZM78.6699 51.3108C79.2715 51.3108 79.5664 51.6215 79.5664 52.2545V59.1119H77.6987V51.3148H78.666L78.6699 51.3108Z" fill="#2A9C46"/>
<path d="M82.5469 53.3476H80.6792C80.9033 51.9006 81.8706 51.1929 83.5849 51.1929C85.6335 51.1929 86.6715 51.9006 86.7148 53.3476V56.0017C86.7148 58.1564 85.4801 59.1119 83.4709 59.2613C81.6897 59.4068 80.4511 58.5378 80.4511 56.8117C80.4944 54.94 81.7841 54.4368 83.6635 54.248C84.4657 54.1458 84.8707 53.8941 84.8707 53.4656C84.8274 53.0252 84.4342 52.801 83.6635 52.801C83.003 52.801 82.6412 52.978 82.5429 53.3476M84.9021 55.9152V55.1917C84.4657 55.3844 83.9624 55.5456 83.4119 55.6635C82.6687 55.8129 82.2873 56.1786 82.2873 56.7566C82.3306 57.3779 82.6373 57.6728 83.2271 57.6728C84.2651 57.6728 84.8982 57.024 84.8982 55.9191" fill="#2A9C46"/>
<path d="M91.0674 52.9505C89.9586 52.9505 89.4829 53.9217 89.4829 55.117V59.1119H87.6152V49.0853H88.5549C89.1722 49.0853 89.4829 49.4235 89.4829 50.0723V52.4039C90.4383 51.2518 91.6022 50.9294 92.9941 51.4445C94.0322 51.8416 94.5237 52.8876 94.4686 54.5862V59.1119H92.6166V55.117C92.6166 53.8037 92.1409 52.9505 91.0714 52.9505" fill="#2A9C46"/>
<path d="M65.604 62.3204C65.6118 62.2181 65.6158 62.0491 65.6158 61.88V60.0359H66.005V60.9953H66.0129C66.1073 60.838 66.2921 60.7279 66.5398 60.7279C66.933 60.7279 67.2279 61.0425 67.2239 61.5222C67.2239 62.0805 66.8465 62.3597 66.4847 62.3597C66.2763 62.3597 66.0797 62.281 65.9618 62.0727H65.9539L65.9382 62.3204H65.604ZM66.009 61.648C66.009 61.6795 66.009 61.7109 66.0168 61.7384C66.0561 61.8957 66.2016 62.0373 66.3982 62.0373C66.6577 62.0373 66.8268 61.8485 66.8268 61.534C66.8268 61.2666 66.6813 61.0385 66.4061 61.0385C66.2331 61.0385 66.0679 61.1565 66.0208 61.3531C66.0129 61.3846 66.009 61.416 66.009 61.4553V61.648Z" fill="#231F20"/>
<path d="M67.8295 61.6598C67.8413 61.9193 68.0654 62.053 68.3288 62.053C68.5215 62.053 68.6552 62.0255 68.7849 61.9744L68.8439 62.2535C68.7063 62.3125 68.5215 62.3597 68.2777 62.3597C67.7666 62.3597 67.4599 62.0412 67.4599 61.5654C67.4599 61.1644 67.7115 60.7279 68.2384 60.7279C68.7653 60.7279 68.9304 61.184 68.9304 61.4986C68.9304 61.5654 68.9226 61.6283 68.9147 61.6559H67.8295V61.6598ZM68.5608 61.3767C68.5608 61.2666 68.5097 61.0032 68.2148 61.0032C67.9553 61.0032 67.8491 61.2233 67.8295 61.3767H68.5647H68.5608Z" fill="#231F20"/>
<path d="M69.2607 61.2863C69.2607 61.0582 69.2607 60.9088 69.2489 60.7672H69.5871L69.5989 61.0818H69.6107C69.6893 60.8419 69.878 60.7279 70.051 60.7279C70.0904 60.7279 70.11 60.7279 70.1454 60.7358V61.1172C70.11 61.1093 70.0746 61.1015 70.0235 61.1015C69.823 61.1015 69.6972 61.2273 69.6618 61.4082C69.6539 61.4435 69.6539 61.4789 69.6539 61.5182V62.3204H69.2646V61.2863H69.2607Z" fill="#231F20"/>
<path d="M70.8296 61.4435H70.8374C70.8728 61.3885 70.9239 61.3216 70.9672 61.2666L71.3682 60.7672H71.8519L71.2464 61.3964L71.9463 62.3204H71.4548L70.9751 61.6323L70.8335 61.7974V62.3243H70.4442V60.0398H70.8335V61.4475L70.8296 61.4435Z" fill="#231F20"/>
<path d="M73.0158 62.3204L72.9882 62.1434H72.9764C72.8821 62.2653 72.713 62.3597 72.5007 62.3597C72.1704 62.3597 72.0052 62.1238 72.0052 61.8957C72.0052 61.5065 72.3394 61.2981 72.9568 61.302V61.2823C72.9568 61.1998 72.9253 61.011 72.6304 61.015C72.4731 61.015 72.3001 61.07 72.194 61.1408L72.1153 60.8773C72.2411 60.7987 72.4417 60.7318 72.6933 60.7318C73.1966 60.7318 73.346 61.0582 73.346 61.4042V61.9429C73.346 62.0923 73.3539 62.2299 73.3696 62.3243H73.0158V62.3204ZM72.9646 61.5654C72.654 61.5615 72.3945 61.6244 72.3945 61.8485C72.3945 61.994 72.4928 62.0687 72.6265 62.0687C72.7995 62.0687 72.9135 61.9547 72.9528 61.8407C72.9607 61.8131 72.9646 61.7817 72.9646 61.7542V61.5654Z" fill="#231F20"/>
<path d="M73.7825 60.0359H74.1717V60.9953H74.1796C74.2307 60.9167 74.2976 60.8498 74.3841 60.8026C74.4627 60.7554 74.561 60.7279 74.6593 60.7279C74.9149 60.7279 75.2255 60.8931 75.2255 61.4278V62.3204H74.8362V61.4829C74.8362 61.2391 74.7458 61.0621 74.5138 61.0621C74.3487 61.0621 74.2347 61.1801 74.1914 61.2902C74.1757 61.3256 74.1757 61.3649 74.1757 61.4082V62.3204H73.7864V60.0359H73.7825Z" fill="#231F20"/>
<path d="M77.7852 61.8525C77.7852 62.0412 77.7892 62.1985 77.797 62.3243H77.4549L77.4353 62.0648H77.4274C77.3645 62.1788 77.2072 62.3636 76.9045 62.3636C76.6371 62.3636 76.3461 62.2103 76.3461 61.6677V60.7751H76.7354V61.5969C76.7354 61.8682 76.8258 62.0373 77.046 62.0373C77.2112 62.0373 77.3252 61.9232 77.3724 61.8092C77.3842 61.7778 77.392 61.7345 77.392 61.6913V60.779H77.7813V61.8603L77.7852 61.8525Z" fill="#231F20"/>
<path d="M78.2295 61.2391C78.2295 61.0582 78.2256 60.9009 78.2178 60.7672H78.5598L78.5795 61.0189H78.5874C78.6503 60.9009 78.8233 60.7318 79.0985 60.7318C79.358 60.7318 79.6726 60.897 79.6726 61.4317V62.3243H79.2833V61.4829C79.2833 61.2391 79.189 61.0621 78.9648 61.0621C78.7958 61.0621 78.6817 61.188 78.6385 61.3059C78.6267 61.3374 78.6227 61.3846 78.6227 61.4239V62.3204H78.2335V61.2391H78.2295Z" fill="#231F20"/>
<path d="M80.5573 60.3151V60.7712H80.9348V61.0779H80.5573V61.7227C80.5573 61.9114 80.5966 62.0255 80.7617 62.0255C80.8325 62.0255 80.8876 62.0176 80.923 62.0058L80.9308 62.3164C80.8718 62.34 80.7657 62.3597 80.6399 62.3597C80.4904 62.3597 80.3685 62.3046 80.2978 62.2221C80.2152 62.1277 80.1759 61.9744 80.1759 61.7817V61.0779H79.9518V60.7712H80.1759V60.4134L80.5573 60.319V60.3151Z" fill="#231F20"/>
<path d="M82.6884 61.8525C82.6884 62.0412 82.6923 62.1985 82.7002 62.3243H82.3581L82.3424 62.0648H82.3345C82.2716 62.1788 82.1143 62.3636 81.8116 62.3636C81.5442 62.3636 81.2532 62.2103 81.2532 61.6677V60.7751H81.6425V61.5969C81.6425 61.8682 81.7329 62.0373 81.9531 62.0373C82.1183 62.0373 82.2323 61.9232 82.2795 61.8092C82.2913 61.7778 82.2991 61.7345 82.2991 61.6913V60.779H82.6884V61.8603V61.8525Z" fill="#231F20"/>
<path d="M83.5259 61.4435H83.5338C83.5731 61.3885 83.6203 61.3216 83.6635 61.2666L84.0646 60.7672H84.5482L83.9427 61.3964L84.6426 62.3204H84.1511L83.6714 61.6323L83.5298 61.7974V62.3243H83.1406V60.0398H83.5298V61.4475L83.5259 61.4435Z" fill="#231F20"/>
<path d="M85.484 61.9468C85.5745 62.0058 85.7553 62.0727 85.9008 62.0727C86.0817 62.0727 86.1564 61.9979 86.1564 61.8996C86.1564 61.7935 86.0896 61.7424 85.893 61.6834C85.5823 61.589 85.4447 61.4199 85.4487 61.2273C85.4487 60.952 85.6767 60.7318 86.0463 60.7318C86.2233 60.7318 86.3805 60.7751 86.4749 60.8301L86.4002 61.1133C86.3373 61.0779 86.1997 61.015 86.0502 61.015C85.9087 61.015 85.8301 61.0818 85.8301 61.1801C85.8301 61.2784 85.9126 61.3295 86.1132 61.3924C86.4081 61.4868 86.5378 61.6244 86.5378 61.8682C86.5378 62.1395 86.3294 62.3597 85.9008 62.3597C85.7003 62.3597 85.5273 62.3125 85.4054 62.2457L85.484 61.9468Z" fill="#231F20"/>
<path d="M87.1512 61.6598C87.163 61.9193 87.3871 62.053 87.6506 62.053C87.8432 62.053 87.9769 62.0255 88.1067 61.9744L88.1657 62.2535C88.028 62.3125 87.8432 62.3597 87.5994 62.3597C87.0883 62.3597 86.7816 62.0412 86.7816 61.5654C86.7816 61.1644 87.0332 60.7279 87.5641 60.7279C88.0949 60.7279 88.2561 61.184 88.2561 61.4986C88.2561 61.5654 88.2482 61.6283 88.2404 61.6559H87.1512V61.6598ZM87.8826 61.3767C87.8826 61.2666 87.8314 61.0032 87.5365 61.0032C87.277 61.0032 87.1709 61.2233 87.1512 61.3767H87.8865H87.8826Z" fill="#231F20"/>
<path d="M88.5864 61.2391C88.5864 61.0582 88.5824 60.9009 88.5746 60.7672H88.9049L88.9206 61.011H88.9324C89.0032 60.8891 89.1447 60.7318 89.4239 60.7318C89.6323 60.7318 89.7974 60.8577 89.8643 61.0385H89.8721C89.9272 60.9481 89.994 60.8813 90.0648 60.8341C90.1552 60.7672 90.2575 60.7318 90.3951 60.7318C90.6428 60.7318 90.9298 60.9009 90.9298 61.4396V62.3243H90.5524V61.4947C90.5524 61.2116 90.4462 61.0661 90.2575 61.0661C90.1159 61.0661 90.0137 61.1722 89.9704 61.2823C89.9547 61.3216 89.9508 61.3728 89.9508 61.416V62.3282H89.5733V61.4632C89.5733 61.2194 89.4671 61.07 89.2902 61.07C89.129 61.07 89.0307 61.2037 88.9914 61.302C88.9756 61.3452 88.9717 61.3924 88.9717 61.4357V62.3322H88.5942V61.2509L88.5864 61.2391Z" fill="#231F20"/>
<path d="M92.8015 61.8525C92.8015 62.0412 92.8054 62.1985 92.8132 62.3243H92.4712L92.4515 62.0648H92.4436C92.3807 62.1788 92.2235 62.3636 91.9207 62.3636C91.6533 62.3636 91.3624 62.2103 91.3624 61.6677V60.7751H91.7516V61.5969C91.7516 61.8682 91.842 62.0373 92.0622 62.0373C92.2274 62.0373 92.3414 61.9232 92.3886 61.8092C92.4004 61.7778 92.4083 61.7345 92.4083 61.6913V60.779H92.7975V61.8603L92.8015 61.8525Z" fill="#231F20"/>
<path d="M94.1462 62.3204L94.1187 62.1434H94.1069C94.0125 62.2653 93.8434 62.3597 93.6311 62.3597C93.3008 62.3597 93.1357 62.1238 93.1357 61.8957C93.1357 61.5065 93.4699 61.2981 94.0872 61.302V61.2823C94.0872 61.1998 94.0558 61.011 93.7609 61.015C93.6036 61.015 93.4306 61.07 93.3205 61.1408L93.2418 60.8773C93.3677 60.7987 93.5682 60.7318 93.8198 60.7318C94.3231 60.7318 94.4725 61.0582 94.4725 61.4042V61.9429C94.4725 62.0923 94.4804 62.2299 94.4961 62.3243H94.1423L94.1462 62.3204ZM94.0951 61.5654C93.7844 61.5615 93.5249 61.6244 93.5249 61.8485C93.5249 61.994 93.6232 62.0687 93.7569 62.0687C93.9299 62.0687 94.044 61.9547 94.0833 61.8407C94.0911 61.8131 94.0951 61.7817 94.0951 61.7542V61.5654Z" fill="#231F20"/>
</svg>
