<svg width="108" height="108" viewBox="0 0 108 108" fill="none" xmlns="http://www.w3.org/2000/svg">
<g clip-path="url(#clip0_801_8206)">
<path d="M18.2242 57.088L16.2502 55.2061C16.2502 55.2061 23.5871 49.1341 26.0963 51.807C26.0963 51.807 21.9199 52.6525 18.2208 57.088" fill="#003058"/>
<path d="M15.8479 54.8276L14 53.065C14 53.065 19.3629 48.5851 24.2041 50.6648C24.2041 50.6648 19.2299 51.4455 15.8513 54.8276" fill="#003058"/>
<path d="M29.0079 50.1125L30.9819 51.9944C30.9819 51.9944 23.645 58.0699 21.1323 55.3935C21.1323 55.3935 25.3088 54.548 29.0079 50.1125Z" fill="#C72127"/>
<path d="M31.3808 52.3763L33.2287 54.1389C33.2287 54.1389 27.8658 58.6222 23.0245 56.5391C23.0245 56.5391 27.9988 55.7583 31.3774 52.3763" fill="#C72127"/>
<path d="M40.0643 53.3173C40.886 53.0445 40.9099 51.8547 40.9099 51.8547C40.9099 50.2318 38.9461 50.2557 38.9461 50.2557H34.8378V56.5186C34.9742 56.8493 35.4208 56.9448 35.4208 56.9448H38.7415C41.1485 56.9448 41.1383 55.0663 41.1383 55.0663C41.1383 53.59 40.0643 53.3173 40.0643 53.3173ZM36.9823 51.9092H38.2847C38.2847 51.9092 38.7415 51.9092 38.7415 52.3422C38.7415 52.3422 38.7858 52.8502 38.2335 52.8502H36.9857V51.9058L36.9823 51.9092ZM38.4654 55.339H36.9823V54.2753H38.5131C38.5131 54.2753 39.0381 54.3776 39.0381 54.7662C39.0381 54.7662 39.0586 55.3356 38.4654 55.3356" fill="#003058"/>
<path d="M46.9137 56.4709V53.3616C46.9137 51.7149 44.4726 51.9433 44.4726 51.9433C41.7554 51.9433 41.6872 53.6139 41.6872 53.6139H43.2384C43.3646 53.0548 44.3328 53.0855 44.3328 53.0855C45.1545 53.0855 45.042 53.5082 45.042 53.5082C45.042 54.0673 43.4328 54.0673 43.4328 54.0673C41.3088 54.2276 41.469 55.7243 41.469 55.7243C41.469 56.8425 42.3691 57.0607 42.3691 57.0607C44.2306 57.4835 45.1068 56.4675 45.1068 56.4675C45.2568 56.8562 46.0546 56.9414 46.0546 56.9414H47.299C46.9444 56.7982 46.9103 56.4675 46.9103 56.4675M44.1044 55.9868C44.1044 55.9868 43.5692 56.0311 43.5692 55.472C43.5692 55.472 43.518 54.8651 44.892 54.6606L44.9499 54.6708C44.9499 54.6708 45.0181 55.9868 44.1044 55.9868Z" fill="#003058"/>
<path d="M47.8035 56.9448V52.0593C47.8035 52.0593 49.5593 51.9229 49.5593 52.7684C49.5593 52.7684 50.0162 51.9911 51.1788 51.9911C51.1788 51.9911 53.1187 51.7626 53.1187 53.6139V56.9448H51.8879C51.8879 56.9448 51.2129 56.9278 51.2129 56.4471V53.9446C51.2129 53.9446 51.2469 53.1912 50.5617 53.1912C50.5617 53.1912 49.6991 53.2934 49.6991 54.0537V56.9448H47.8001H47.8035Z" fill="#003058"/>
<path d="M53.8074 56.9448V51.166C53.8074 51.166 53.9437 50.1602 54.7654 50.1602H55.7916V53.4298L57.0633 52.0354H59.385L57.5576 54.0128L59.6339 56.9448H57.8304C57.8304 56.9448 57.469 57.0198 57.0803 56.5118L56.2212 55.431C56.2212 55.431 55.7882 55.489 55.7882 55.9118V56.9448H53.804H53.8074Z" fill="#003058"/>
<path d="M66.439 52.8809H64.5229C64.5229 52.8809 64.1104 51.7252 63.1081 51.7252C63.1081 51.7252 61.7852 51.6467 61.7852 53.6003C61.7852 53.6003 61.7273 55.5879 63.166 55.5879C63.166 55.5879 64.3422 55.4925 64.3422 54.3333H66.3947C66.3947 54.3333 66.6231 57.2687 63.2342 57.2687C63.2342 57.2687 59.6067 57.5653 59.6067 53.5901C59.6067 53.5901 59.5146 50.0444 62.9615 50.0444C62.9615 50.0444 66.4424 49.7921 66.4424 52.8775" fill="#003058"/>
<path d="M72.0507 56.4709V53.3616C72.0507 51.7149 69.6096 51.9433 69.6096 51.9433C66.8924 51.9433 66.8242 53.6139 66.8242 53.6139H68.3755C68.5016 53.0548 69.4699 53.0855 69.4699 53.0855C70.2915 53.0855 70.179 53.5082 70.179 53.5082C70.179 54.0673 68.5698 54.0673 68.5698 54.0673C66.4458 54.2276 66.606 55.7243 66.606 55.7243C66.606 56.8425 67.5061 57.0607 67.5061 57.0607C69.3676 57.4835 70.2438 56.4675 70.2438 56.4675C70.3938 56.8562 71.1916 56.9414 71.1916 56.9414H72.436C72.0814 56.7982 72.0473 56.4675 72.0473 56.4675M69.2414 55.9868C69.2414 55.9868 68.7062 56.0311 68.7062 55.472C68.7062 55.472 68.655 54.8651 70.029 54.6606L70.087 54.6708C70.087 54.6708 70.1551 55.9868 69.2414 55.9868Z" fill="#003058"/>
<path d="M91.0305 56.4709V53.3616C91.0305 51.7149 88.5894 51.9433 88.5894 51.9433C85.8721 51.9433 85.804 53.6139 85.804 53.6139H87.3552C87.4814 53.0548 88.4496 53.0855 88.4496 53.0855C89.2712 53.0855 89.1587 53.5082 89.1587 53.5082C89.1587 54.0673 87.5495 54.0673 87.5495 54.0673C85.4255 54.2276 85.5858 55.7243 85.5858 55.7243C85.5858 56.8425 86.4858 57.0607 86.4858 57.0607C88.3473 57.4835 89.2235 56.4675 89.2235 56.4675C89.3701 56.8562 90.1713 56.9414 90.1713 56.9414H91.4157C91.0612 56.7982 91.0271 56.4675 91.0271 56.4675M88.2212 55.9868C88.2212 55.9868 87.6859 56.0311 87.6859 55.472C87.6859 55.472 87.6348 54.8651 89.0087 54.6606L89.0667 54.6708C89.0667 54.6708 89.1349 55.9868 88.2212 55.9868Z" fill="#003058"/>
<path d="M78.5012 54.5038C78.5012 51.7252 76.3329 51.9434 76.3329 51.9434C74.9862 51.9434 74.7578 52.6968 74.7578 52.6968C74.6452 51.8956 72.9747 51.9434 72.9747 51.9434V58.0324C72.9747 58.5711 73.7384 58.6666 73.7384 58.6666H74.935V56.621C75.2589 57.2278 76.2783 57.1801 76.2783 57.1801C78.6512 57.1801 78.5046 54.5038 78.5046 54.5038M75.7158 55.6459C75.2589 55.6459 74.8873 55.1379 74.8873 54.514C74.8873 53.8901 75.2589 53.3821 75.7158 53.3821C76.1726 53.3821 76.5442 53.8901 76.5442 54.514C76.5442 55.1379 76.1726 55.6459 75.7158 55.6459Z" fill="#003058"/>
<path d="M79.2546 50H81.1264V51.3262H79.8035C79.8035 51.3262 79.2546 51.258 79.2546 50.8557V50Z" fill="#003058"/>
<path d="M79.2546 56.3448V52.0354H81.1264V56.9448H79.9161C79.9161 56.9448 79.2546 56.8937 79.2546 56.3448Z" fill="#003058"/>
<path d="M84.3004 50.4739V52.0354H85.1664V53.1332H84.3004V55.1549C84.3004 55.1549 84.2766 55.7277 85.1664 55.7277V56.9448H83.1447C82.5378 56.7948 82.4764 56.2766 82.473 56.1163V56.0754V53.1332H81.6616V52.0354H82.473V51.1898C82.473 51.1898 82.4833 50.4739 83.3902 50.4739H84.297H84.3004Z" fill="#003058"/>
<path d="M92.9022 50.1398H93.9966V56.2459C93.9966 56.2459 94.0409 56.9482 93.2772 56.9482H92.0567V50.9819C92.0567 50.9819 92.0499 50.2079 92.9022 50.1364" fill="#003058"/>
</g>
<defs>
<clipPath id="clip0_801_8206">
<rect width="80" height="8.66652" fill="white" transform="translate(14 50)"/>
</clipPath>
</defs>
</svg>
