<svg width="109" height="108" viewBox="0 0 109 108" fill="none" xmlns="http://www.w3.org/2000/svg">
<path fill-rule="evenodd" clip-rule="evenodd" d="M44.72 43.06C44.34 44.65 43.96 46.41 43.57 48C39.36 48.75 34.93 50.84 30.4 53.41C33.96 48.91 39.39 45.94 44.72 43.06ZM28.61 54.59C23.98 59.66 21.04 66.19 19.03 73.52C16.85 72.1 14.68 70.68 12.5 69.25C16.37 63.43 21.45 58.36 28.61 54.58V54.59Z" fill="#ED1C24"/>
<path fill-rule="evenodd" clip-rule="evenodd" d="M43.65 35C44.56 35.51 45.48 36.02 46.39 36.53C42.73 38.58 39.1 40.96 35.68 44.87C37.12 41.62 39.89 38.33 43.66 35H43.65ZM31.35 36.38C32.03 36.47 32.71 36.55 33.39 36.63C32.18 38.72 31.16 40.94 30.56 43.44C30.14 41.3 30.68 38.86 31.35 36.38ZM32.12 41.5C32.56 41.52 33 41.55 33.43 41.57C32.43 43.23 31.61 44.98 30.93 46.79C31.08 45.13 31.46 43.38 32.12 41.5ZM33 44.37C33.68 44.78 34.36 45.18 35.04 45.59C33.23 47.71 31.54 49.92 30.14 52.29C30.73 49.72 31.85 47.04 33 44.37ZM28.24 45.06C28.9 44.93 29.56 44.81 30.21 44.68C29.66 47.13 29.46 49.58 29.55 52.03C28.63 49.96 28.37 47.54 28.23 45.06H28.24ZM27.5 47.17C27.7 48.89 27.99 50.61 28.51 52.33C27.67 51.17 26.94 49.71 26.26 48.11C26.67 47.8 27.09 47.49 27.5 47.17ZM23.61 49.84C24.14 49.66 24.66 49.48 25.19 49.3C26.01 50.43 26.81 51.59 27.59 52.79C26.36 51.72 25.01 50.76 23.61 49.83V49.84ZM20.81 45.95C21.22 45.73 21.63 45.51 22.04 45.29C23.02 46.22 23.93 47.36 24.76 48.73C23.51 47.69 22.2 46.76 20.81 45.95ZM14.21 50.31C14.68 49.79 15.14 49.26 15.61 48.74C17.4 49.33 19.14 49.99 20.84 50.7C18.65 50.48 16.43 50.35 14.2 50.31H14.21ZM20.41 52.88C20.93 52.3 21.45 51.72 21.98 51.13C23.87 51.82 25.7 52.63 27.48 53.59C25.12 53.22 22.77 53.02 20.41 52.88ZM17.06 54.85C17.3 54.31 17.54 53.77 17.77 53.23C19.62 53.21 21.38 53.48 23.02 54.11C21.03 54.17 19.05 54.45 17.06 54.86V54.85ZM13.38 57.29C13.49 56.76 13.65 56.24 13.87 55.72C15.29 55.53 16.71 55.45 18.13 55.61C16.38 56.03 14.84 56.63 13.39 57.28L13.38 57.29ZM16.78 59.89C17.29 58.62 17.82 57.34 18.33 56.07C21.62 54.79 24.81 54.33 27.95 54.33C23.95 55.66 20.29 57.63 16.78 59.89ZM15.37 63.62V61.69C16.89 60.66 18.38 60.01 19.85 59.56C18.07 60.68 16.6 62.06 15.37 63.62Z" fill="#FED860"/>
<path fill-rule="evenodd" clip-rule="evenodd" d="M68.04 63.41V61.29L67.12 61.66C66.65 61.85 66.32 62.04 66.13 62.24C65.93 62.44 65.84 62.68 65.84 62.97C65.84 63.26 65.93 63.51 66.12 63.69C66.3 63.88 66.54 63.97 66.84 63.97C67.28 63.97 67.68 63.79 68.05 63.42L68.04 63.41ZM69.39 60.52V63.56C69.39 63.81 69.47 63.93 69.63 63.93C69.73 63.93 69.87 63.88 70.05 63.78C70.67 63.46 70.19 64.56 69.66 64.83C69.48 64.92 69.27 64.94 69.07 64.94C68.48 64.94 68.13 64.7 68.03 64.22C67.44 64.69 66.82 64.92 66.16 64.92C65.68 64.92 65.28 64.76 64.95 64.43C64.63 64.1 64.46 63.68 64.46 63.19C64.46 62.74 64.62 62.33 64.93 61.98C65.25 61.62 65.69 61.34 66.27 61.14L68.03 60.52V60.14C68.03 59.28 67.61 58.85 66.78 58.85C66.03 58.85 65.3 59.25 64.59 60.04V58.49C65.13 57.84 65.89 57.52 66.89 57.52C67.64 57.52 68.24 57.72 68.7 58.13C68.85 58.26 68.99 58.43 69.11 58.65C69.23 58.86 69.31 59.08 69.34 59.29C69.38 59.51 69.39 59.91 69.39 60.52ZM84.32 57.66V58.57C84.93 57.87 85.62 57.52 86.4 57.52C86.83 57.52 87.23 57.63 87.6 57.86C87.97 58.09 88.25 58.41 88.44 58.81C88.64 59.21 88.73 59.85 88.73 60.72V64.81C87.75 64.95 87.58 64.42 87.37 63.92V60.73C87.37 60 87.26 59.48 87.05 59.16C86.84 58.84 86.47 58.69 85.97 58.69C85.33 58.69 84.78 59.02 84.33 59.69V64.8H82.94V57.64H84.33L84.32 57.66ZM92.09 65.34C91.62 65.34 91.24 65.44 90.94 65.64C90.64 65.84 90.49 66.1 90.49 66.41C90.49 67.14 91.15 67.51 92.45 67.51C93.07 67.51 93.54 67.42 93.88 67.23C94.22 67.05 94.39 66.79 94.39 66.46C94.39 66.13 94.18 65.86 93.75 65.65C93.32 65.44 92.77 65.34 92.09 65.34ZM92.42 59.11C92.04 59.11 91.72 59.24 91.46 59.5C91.19 59.76 91.06 60.07 91.06 60.43C91.06 60.79 91.19 61.1 91.45 61.34C91.71 61.58 92.04 61.7 92.44 61.7C92.84 61.7 93.16 61.58 93.43 61.33C93.69 61.08 93.82 60.78 93.82 60.42C93.82 60.06 93.69 59.74 93.42 59.49C93.15 59.24 92.82 59.12 92.42 59.12V59.11ZM89.8 60.35C89.8 59.59 90.07 58.99 90.62 58.55C91.17 58.11 91.92 57.89 92.87 57.89H96.41C96.23 58.33 96.02 58.76 95.43 58.99H94.35C94.63 59.27 94.82 59.53 94.92 59.76C95.03 59.99 95.08 60.26 95.08 60.55C95.08 60.92 94.98 61.28 94.77 61.64C94.56 62 94.29 62.27 93.96 62.47C93.63 62.66 93.09 62.81 92.34 62.93C91.81 63.01 91.55 63.19 91.55 63.48C91.55 63.64 91.65 63.78 91.84 63.89C92.04 64 92.39 64.1 92.91 64.21C93.77 64.4 94.32 64.55 94.57 64.66C94.82 64.77 95.04 64.93 95.24 65.12C95.58 65.46 95.75 65.89 95.75 66.4C95.75 67.08 95.45 67.61 94.86 68.02C94.27 68.42 93.47 68.62 92.48 68.62C91.49 68.62 90.67 68.42 90.07 68.01C89.47 67.61 89.17 67.06 89.17 66.38C89.17 65.42 89.76 64.8 90.94 64.52C90.47 64.22 90.23 63.92 90.23 63.62C90.23 63.39 90.33 63.19 90.53 63C90.73 62.81 91 62.68 91.35 62.59C90.31 62.12 89.8 61.37 89.8 60.34V60.35ZM76.92 60.66H80.44C80.41 60.1 80.24 59.66 79.95 59.36C79.66 59.05 79.26 58.9 78.76 58.9C78.26 58.9 77.85 59.05 77.54 59.36C77.22 59.66 77.01 60.1 76.92 60.66ZM81.82 61.5H76.89C76.93 62.18 77.15 62.72 77.57 63.12C77.98 63.53 78.52 63.73 79.17 63.73C80.08 63.73 80.93 63.44 81.7 62.86V64.24C81.27 64.53 80.85 64.74 80.43 64.86C80.01 64.98 79.52 65.04 78.95 65.04C78.18 65.04 77.55 64.88 77.08 64.55C76.6 64.22 76.22 63.79 75.93 63.24C75.64 62.69 75.5 62.05 75.5 61.33C75.5 60.24 75.8 59.36 76.41 58.68C77.02 58 77.8 57.66 78.77 57.66C79.74 57.66 80.44 57.99 80.99 58.65C81.55 59.31 81.82 60.2 81.82 61.31V61.5ZM70.25 58.9L72.73 56.31V57.78H74.94C74.84 58.19 74.66 58.6 73.94 59.05H72.73V62.53C72.73 63.35 73.05 63.75 73.68 63.75C74.15 63.75 74.65 63.58 75.18 63.24V64.55C74.67 64.85 74.12 65.01 73.52 65.01C72.92 65.01 72.42 64.82 72.02 64.44C71.9 64.33 71.79 64.2 71.71 64.06C71.63 63.92 71.56 63.73 71.5 63.5C71.45 63.27 71.42 62.84 71.42 62.19V59.04H70.26V58.9H70.25ZM63.55 54.05V64.78C63.55 65.78 63.45 66.52 63.25 67C63.05 67.48 62.72 67.86 62.27 68.15C61.82 68.44 61.28 68.58 60.65 68.58C60.55 68.58 60.39 68.56 60.15 68.53L59.87 67.08H60.26C60.7 67.08 61.04 67.03 61.27 66.92C61.5 66.81 61.69 66.62 61.82 66.35C61.96 66.08 62.02 65.49 62.02 64.6V55.77C62.06 54.75 62.68 54.27 63.56 54.04L63.55 54.05ZM52.49 53.94V64.81H51.1V55.27C51.19 54.76 51.66 54.32 52.49 53.95V53.94ZM55.63 57.65H57.2L54.3 61.11C55.44 62.33 56.61 63.59 57.75 64.81C56.95 64.96 56.02 64.75 55.09 63.94L52.55 61.16L55.63 57.65ZM45.47 57.65V58.56C46.08 57.86 46.77 57.51 47.55 57.51C47.98 57.51 48.38 57.62 48.75 57.85C49.12 58.08 49.4 58.4 49.59 58.8C49.78 59.2 49.88 59.84 49.88 60.71V64.8C48.9 64.94 48.73 64.41 48.52 63.91V60.72C48.52 59.99 48.41 59.47 48.2 59.15C47.99 58.83 47.63 58.68 47.12 58.68C46.48 58.68 45.93 59.01 45.48 59.68V64.79H44.09V57.63H45.48L45.47 57.65ZM40.97 61.27L40.05 61.64C39.59 61.83 39.25 62.02 39.06 62.22C38.86 62.42 38.77 62.66 38.77 62.95C38.77 63.24 38.86 63.49 39.05 63.67C39.24 63.86 39.47 63.95 39.76 63.95C40.2 63.95 40.6 63.77 40.97 63.4V61.27ZM42.32 60.5V63.54C42.32 63.79 42.4 63.91 42.56 63.91C42.67 63.91 42.8 63.86 42.98 63.76C43.6 63.44 43.12 64.54 42.59 64.81C42.41 64.9 42.2 64.92 42 64.92C41.41 64.92 41.06 64.68 40.96 64.2C40.38 64.67 39.76 64.9 39.1 64.9C38.62 64.9 38.21 64.74 37.89 64.41C37.57 64.08 37.41 63.66 37.41 63.17C37.41 62.72 37.57 62.31 37.88 61.96C38.2 61.6 38.64 61.32 39.22 61.12L40.98 60.5V60.12C40.98 59.26 40.56 58.83 39.73 58.83C38.98 58.83 38.25 59.23 37.54 60.02V58.47C38.07 57.82 38.84 57.5 39.84 57.5C40.59 57.5 41.19 57.7 41.64 58.11C41.79 58.24 41.93 58.41 42.05 58.63C42.17 58.84 42.25 59.06 42.28 59.27C42.31 59.49 42.33 59.89 42.33 60.5H42.32ZM32.46 60H31.08V63.42H32.54C33.35 63.42 33.9 63.36 34.18 63.22C34.47 63.09 34.7 62.88 34.88 62.6C35.05 62.32 35.14 62.03 35.14 61.71C35.14 61.39 35.05 61.08 34.86 60.8C34.67 60.53 34.41 60.33 34.07 60.19C33.73 60.06 33.19 59.99 32.46 59.99V60ZM32.35 55.38H31.08V58.63H32.06C32.85 58.63 33.41 58.47 33.74 58.16C34.08 57.84 34.24 57.44 34.24 56.94C34.24 55.9 33.61 55.39 32.35 55.39V55.38ZM29.6 64.8V54.01H32.31C33.16 54.01 33.83 54.13 34.31 54.36C34.79 54.6 35.15 54.93 35.41 55.35C35.66 55.77 35.79 56.26 35.79 56.81C35.79 57.87 35.27 58.63 34.22 59.09C34.97 59.24 35.57 59.57 36.02 60.07C36.47 60.57 36.69 61.16 36.69 61.86C36.69 62.41 36.55 62.9 36.28 63.33C36.01 63.76 35.61 64.11 35.09 64.39C34.56 64.66 33.91 64.8 33.12 64.8H29.6Z" fill="#2E3092"/>
</svg>
