<svg width="109" height="108" viewBox="0 0 109 108" fill="none" xmlns="http://www.w3.org/2000/svg">
<g clip-path="url(#clip0_801_8338)">
<path fill-rule="evenodd" clip-rule="evenodd" d="M48.7475 55.5254L48.7045 55.5582L47.7746 56.3954C46.8808 57.0915 46.3057 57.6621 45.2706 58.3853C44.1644 59.1593 43.2955 59.8327 42.056 60.5231L40.239 61.4316C38.8582 62.0757 36.2819 63.0169 34.4311 62.157C32.8865 61.4406 32.7565 59.9084 32.7475 58.4361C32.7441 57.8011 32.9057 57.3536 32.9509 56.8203C32.5599 57.0858 31.8853 60.3954 31.848 60.7672C31.6141 63.0904 32.0718 64.9717 33.8017 66.1695C35.2616 67.1819 37.2469 67.2113 38.9599 67.0203C39.3407 66.9785 39.6763 66.9231 40.0492 66.8486C41.961 66.4655 43.8085 65.7163 45.474 64.8497C45.6232 64.7717 45.6932 64.7141 45.8593 64.6293C46.4153 64.348 46.5543 64.2327 47.0729 63.9243C47.5588 63.635 48.7859 62.7943 49.2492 62.4135L51.5565 60.3785C51.8175 60.0621 52.2096 59.7288 52.5271 59.3774L52.8853 58.9762L53.9859 57.6067C54.1803 57.3582 54.3384 57.1186 54.5125 56.8712C55.2639 55.8056 55.4062 55.6045 56.048 54.5186L56.9599 52.8565C57.1136 52.5514 57.2096 52.296 57.3565 51.9898C57.4932 51.7039 57.6334 51.3841 57.7362 51.1073C58.8887 48.0034 59.6989 43.7593 56.9995 41.1536C56.3972 40.5717 55.1927 40.0745 54.3079 40.0079L54.2808 40.0056H52.8322C51.4469 40.1062 50.1396 40.487 48.8706 41.0293C48.2718 41.2847 47.6944 41.548 47.1373 41.8723C46.7848 42.0768 45.6966 42.5977 45.5238 42.8339C45.7045 42.7785 45.7045 42.7864 45.8627 42.7186C47.7757 41.8926 51.1938 40.8994 53.0322 41.9909C53.4435 42.235 53.7396 42.4949 53.9735 42.9175C54.8944 44.5796 54.2639 47.2079 53.4684 48.9096C53.3644 49.1333 53.2932 49.3367 53.1983 49.5491C52.8006 50.4508 51.7147 52.1536 51.0492 53.0045C50.9712 53.1039 50.9339 53.1649 50.856 53.2655L49.7531 54.5356C49.4786 54.8079 49.0932 55.2474 48.8141 55.4576L48.7475 55.5254Z" fill="#6579B3"/>
<path d="M14.5 47.3988H17.7949C18.4492 47.3988 18.935 47.4248 19.2548 47.479C19.5768 47.5344 19.8627 47.6474 20.1158 47.818C20.3689 47.9909 20.5802 48.2191 20.7497 48.505C20.9181 48.7909 21.0028 49.1129 21.0028 49.4677C21.0028 49.8519 20.8989 50.2067 20.6921 50.5265C20.4842 50.8485 20.2028 51.0892 19.848 51.2497C20.3486 51.3977 20.7316 51.6474 21.0028 51.9999C21.2706 52.3525 21.4051 52.7672 21.4051 53.2451C21.4051 53.6203 21.3192 53.9852 21.1441 54.34C20.9701 54.6948 20.7316 54.9785 20.4288 55.192C20.1282 55.4022 19.7554 55.5333 19.3124 55.583C19.0367 55.6112 18.3667 55.6304 17.3056 55.6384H14.5V47.3988ZM16.1689 48.7683V50.6666H17.2582C17.9045 50.6666 18.3079 50.6576 18.465 50.6384C18.7486 50.6056 18.9734 50.5073 19.1362 50.3446C19.2989 50.1819 19.3791 49.9683 19.3791 49.7039C19.3791 49.4485 19.309 49.244 19.1689 49.0847C19.0288 48.9254 18.8198 48.8293 18.5429 48.7965C18.378 48.7773 17.9045 48.7683 17.1237 48.7683H16.1689ZM16.1689 52.0361V54.2463H17.7113C18.309 54.2463 18.691 54.2293 18.8525 54.1965C19.1 54.1502 19.3011 54.0406 19.4559 53.8666C19.6119 53.6892 19.691 53.4576 19.691 53.1638C19.691 52.9152 19.6311 52.7061 19.5102 52.5333C19.3915 52.3604 19.2164 52.2338 18.9904 52.1547C18.7644 52.0768 18.2706 52.0361 17.5136 52.0361H16.1689Z" fill="#332C2B"/>
<path d="M23.9734 51.5073L22.5463 51.2542C22.7079 50.6711 22.9859 50.2395 23.3791 49.9593C23.7723 49.6791 24.3576 49.5389 25.1316 49.5389C25.8356 49.5389 26.3621 49.6214 26.7068 49.7887C27.0503 49.9548 27.2943 50.1661 27.4333 50.4237C27.5734 50.6802 27.6446 51.1502 27.6446 51.8372L27.622 53.6779C27.622 54.2022 27.6469 54.5898 27.6966 54.8384C27.7463 55.0881 27.8401 55.3548 27.9791 55.6384H26.413C26.3734 55.5356 26.3215 55.3819 26.2616 55.1785C26.2367 55.0847 26.2175 55.0226 26.2062 54.9943C25.9373 55.2587 25.6503 55.4565 25.3429 55.5887C25.0367 55.7209 24.7102 55.7887 24.3633 55.7887C23.7508 55.7887 23.2672 55.6214 22.9147 55.2881C22.5621 54.9559 22.3859 54.5333 22.3859 54.0237C22.3859 53.6881 22.4661 53.3864 22.6265 53.122C22.7881 52.8587 23.013 52.6565 23.3045 52.5163C23.5938 52.3762 24.0119 52.2531 24.5587 52.148C25.2955 52.0101 25.8073 51.8791 26.0909 51.7604V51.6011C26.0909 51.2937 26.0164 51.0757 25.8672 50.9435C25.7147 50.8124 25.4311 50.7468 25.0152 50.7468C24.7328 50.7468 24.5147 50.8033 24.3576 50.9163C24.1983 51.0271 24.0717 51.2248 23.9734 51.5073ZM26.0909 52.7841C25.8898 52.8519 25.5689 52.9322 25.1305 53.0259C24.6932 53.1197 24.4051 53.2124 24.2706 53.3005C24.0661 53.4485 23.9621 53.6327 23.9621 53.8565C23.9621 54.0791 24.0446 54.2689 24.2096 54.4305C24.3746 54.5909 24.5836 54.6723 24.839 54.6723C25.1226 54.6723 25.3949 54.5774 25.6537 54.392C25.8435 54.2474 25.97 54.0757 26.0299 53.8678C26.0695 53.7344 26.0909 53.4768 26.0909 53.0994V52.7841Z" fill="#332C2B"/>
<path d="M34.6322 55.6384H33.0559V52.5943C33.0559 51.9502 33.0209 51.5344 32.9543 51.3457C32.8853 51.1559 32.7757 51.0101 32.622 50.905C32.4684 50.7988 32.2842 50.7468 32.0695 50.7468C31.7938 50.7468 31.5463 50.8226 31.3283 50.9717C31.1068 51.1209 30.9576 51.3209 30.8774 51.5661C30.7949 51.8135 30.7543 52.27 30.7543 52.9378V55.6384H29.178V49.6655H30.639V50.5423C31.1622 49.8723 31.8209 49.5389 32.6164 49.5389C32.9656 49.5389 33.2865 49.6022 33.5757 49.7265C33.8672 49.8531 34.0853 50.0124 34.2333 50.2067C34.3836 50.4022 34.4865 50.6226 34.5441 50.87C34.604 51.1175 34.6322 51.47 34.6322 51.931V55.6384Z" fill="#332C2B"/>
<path d="M36.1724 55.6384V47.3988H37.7498V51.7694L39.5961 49.6655H41.5419L39.5046 51.8485L41.691 55.6384H39.9882L38.4808 52.9434L37.7498 53.7265V55.6384H36.1724Z" fill="#332C2B"/>
<path d="M60.3124 55.6384V47.3988H61.9282L65.3192 52.9208V47.3988H66.8615V55.6384H65.1949L61.8548 50.2214V55.6384H60.3124Z" fill="#332C2B"/>
<path d="M69.7859 51.5073L68.3599 51.2542C68.5204 50.6711 68.7984 50.2395 69.1916 49.9593C69.5848 49.6791 70.1701 49.5389 70.9453 49.5389C71.6492 49.5389 72.1746 49.6214 72.5193 49.7887C72.8628 49.9548 73.1068 50.1661 73.2469 50.4237C73.3871 50.6802 73.4583 51.1502 73.4583 51.8372L73.4345 53.6779C73.4345 54.2022 73.4594 54.5898 73.5091 54.8384C73.5599 55.0881 73.6537 55.3548 73.7916 55.6384H72.2266C72.1859 55.5356 72.134 55.3819 72.0752 55.1785C72.0503 55.0847 72.0311 55.0226 72.0187 54.9943C71.7509 55.2587 71.4628 55.4565 71.1566 55.5887C70.8492 55.7209 70.5227 55.7887 70.1758 55.7887C69.5645 55.7887 69.0808 55.6214 68.7272 55.2881C68.3746 54.9559 68.1984 54.5333 68.1984 54.0237C68.1984 53.6881 68.2786 53.3864 68.4402 53.122C68.6006 52.8587 68.8255 52.6565 69.117 52.5163C69.4063 52.3762 69.8244 52.2531 70.3712 52.148C71.108 52.0101 71.6198 51.8791 71.9046 51.7604V51.6011C71.9046 51.2937 71.8289 51.0757 71.6797 50.9435C71.5283 50.8124 71.2447 50.7468 70.8277 50.7468C70.5464 50.7468 70.3272 50.8033 70.1701 50.9163C70.0108 51.0271 69.8842 51.2248 69.7859 51.5073ZM71.9046 52.7841C71.7023 52.8519 71.3825 52.9322 70.943 53.0259C70.5057 53.1197 70.2176 53.2124 70.0842 53.3005C69.8786 53.4485 69.7746 53.6327 69.7746 53.8565C69.7746 54.0791 69.8571 54.2689 70.0221 54.4305C70.1871 54.5909 70.3961 54.6723 70.6515 54.6723C70.9351 54.6723 71.2074 54.5774 71.4673 54.392C71.6571 54.2474 71.7837 54.0757 71.8424 53.8678C71.8831 53.7344 71.9046 53.4768 71.9046 53.0994V52.7841Z" fill="#332C2B"/>
<path d="M74.8639 56.018L76.6707 56.2372C76.7012 56.4497 76.7701 56.5954 76.8774 56.6768C77.0289 56.7898 77.265 56.8474 77.587 56.8474C77.9995 56.8474 78.3091 56.7853 78.5159 56.661C78.6537 56.5785 78.7599 56.4463 78.83 56.2621C78.8786 56.131 78.9034 55.8881 78.9034 55.5367L78.9113 54.6644C78.4356 55.3141 77.8368 55.6384 77.1159 55.6384C76.3136 55.6384 75.6774 55.2994 75.2085 54.6214C74.8413 54.087 74.6571 53.4192 74.6571 52.6237C74.6571 51.6226 74.8978 50.8587 75.3803 50.331C75.8616 49.8033 76.4616 49.5389 77.1791 49.5389C77.917 49.5389 78.5272 49.8632 79.0074 50.5118V49.6655H80.4797V55.0214C80.4797 55.7254 80.4221 56.2519 80.3057 56.6C80.1904 56.9491 80.0277 57.2214 79.8164 57.4203C79.6074 57.618 79.3272 57.7751 78.9757 57.887C78.6255 58 78.1825 58.0553 77.6469 58.0553C76.6345 58.0553 75.917 57.8813 75.4933 57.5333C75.0695 57.1841 74.8582 56.7457 74.8582 56.2101C74.8582 56.1581 74.8594 56.0937 74.8639 56.018ZM76.2797 52.531C76.2797 53.1638 76.4017 53.6259 76.6458 53.9197C76.891 54.2135 77.1938 54.3615 77.5532 54.3615C77.9362 54.3615 78.2628 54.2101 78.5272 53.9084C78.7938 53.6067 78.926 53.1627 78.926 52.5717C78.926 51.9536 78.7995 51.496 78.5441 51.1966C78.291 50.8971 77.969 50.7468 77.5803 50.7468C77.2017 50.7468 76.891 50.8949 76.6458 51.1887C76.4017 51.4824 76.2797 51.9288 76.2797 52.531Z" fill="#332C2B"/>
<path d="M83.2175 51.5073L81.7904 51.2542C81.9508 50.6711 82.2288 50.2395 82.622 49.9593C83.0152 49.6791 83.6005 49.5389 84.3757 49.5389C85.0796 49.5389 85.6051 49.6214 85.9508 49.7887C86.2943 49.9548 86.5373 50.1661 86.6774 50.4237C86.8175 50.6802 86.8887 51.1502 86.8887 51.8372L86.8649 53.6779C86.8649 54.2022 86.8898 54.5898 86.9395 54.8384C86.9904 55.0881 87.0842 55.3548 87.222 55.6384H85.657C85.6164 55.5356 85.5644 55.3819 85.5056 55.1785C85.4808 55.0847 85.4615 55.0226 85.4502 54.9943C85.1813 55.2587 84.8932 55.4565 84.587 55.5887C84.2796 55.7209 83.9542 55.7887 83.6062 55.7887C82.9949 55.7887 82.5113 55.6214 82.1587 55.2881C81.8051 54.9559 81.6288 54.5333 81.6288 54.0237C81.6288 53.6881 81.709 53.3864 81.8706 53.122C82.0322 52.8587 82.2559 52.6565 82.5474 52.5163C82.8367 52.3762 83.2559 52.2531 83.8017 52.148C84.5384 52.0101 85.0503 51.8791 85.335 51.7604V51.6011C85.335 51.2937 85.2604 51.0757 85.1101 50.9435C84.9587 50.8124 84.6751 50.7468 84.2582 50.7468C83.9768 50.7468 83.7576 50.8033 83.6005 50.9163C83.4412 51.0271 83.3147 51.2248 83.2175 51.5073ZM85.335 52.7841C85.1339 52.8519 84.813 52.9322 84.3734 53.0259C83.9361 53.1197 83.6491 53.2124 83.5147 53.3005C83.309 53.4485 83.205 53.6327 83.205 53.8565C83.205 54.0791 83.2875 54.2689 83.4525 54.4305C83.6175 54.5909 83.8265 54.6723 84.0819 54.6723C84.3655 54.6723 84.639 54.5774 84.8977 54.392C85.0875 54.2474 85.2141 54.0757 85.2729 53.8678C85.3135 53.7344 85.335 53.4768 85.335 53.0994V52.7841Z" fill="#332C2B"/>
<path d="M89.9519 55.6384H88.3745V49.6655H89.8367V50.513C90.0875 50.113 90.3146 49.8497 90.5158 49.7254C90.7169 49.6 90.9451 49.5389 91.2005 49.5389C91.561 49.5389 91.9078 49.6384 92.2423 49.8361L91.753 51.2135C91.4864 51.0406 91.2389 50.9548 91.0107 50.9548C90.7881 50.9548 90.5994 51.0158 90.4468 51.1367C90.2932 51.2598 90.1723 51.4779 90.0841 51.7966C89.996 52.1152 89.9519 52.783 89.9519 53.7966V55.6384Z" fill="#332C2B"/>
<path d="M92.9226 48.8598V47.3988H94.5V48.8598H92.9226ZM92.9226 55.6384V49.6655H94.5V55.6384H92.9226Z" fill="#332C2B"/>
<path fill-rule="evenodd" clip-rule="evenodd" d="M48.6672 51.4813L48.7621 55.4745L44.5181 55.3717L48.6672 51.4813Z" fill="#E62129"/>
<path fill-rule="evenodd" clip-rule="evenodd" d="M48.7622 55.4745H52.8051V59.34H48.7622V55.4745Z" fill="#FFF000"/>
<path fill-rule="evenodd" clip-rule="evenodd" d="M56.987 59.5299L52.8164 59.3582L52.8503 63.6022L56.987 59.5299Z" fill="#332C2B"/>
</g>
<defs>
<clipPath id="clip0_801_8338">
<rect width="80" height="27.1186" fill="white" transform="translate(14.5 40)"/>
</clipPath>
</defs>
</svg>
