<svg width="108" height="108" viewBox="0 0 108 108" fill="none" xmlns="http://www.w3.org/2000/svg">
<path d="M94 34H14V74.0019H94V34Z" fill="#0077B3"/>
<path fill-rule="evenodd" clip-rule="evenodd" d="M23.648 47.7424C20.8542 48.0063 20.5149 49.8499 20.0248 50.7473C19.7156 50.4984 19.5573 50.4381 19.2444 50.193C19.4404 49.5408 20.0323 48.5756 20.5036 48.0252C21.6121 46.8262 22.8374 47.2108 24.1419 46.5623C24.9411 46.0458 25.1447 45.3219 25.4124 44.5905C25.8309 44.6659 25.9365 44.7564 26.2645 44.9185C26.0119 46.1891 25.1938 47.437 23.648 47.7424ZM24.7036 49.1751C26.2494 48.8697 27.0675 47.618 27.3201 46.3512C26.9921 46.1891 26.8866 46.0986 26.4681 46.0232C26.2004 46.7546 25.9968 47.4823 25.1975 47.995C23.893 48.6435 22.6677 48.2589 21.5593 49.4578C21.0842 50.0083 20.4923 50.9735 20.3 51.6257C20.6092 51.8745 20.7675 51.9349 21.0805 52.1799C21.5706 51.2789 21.9099 49.4352 24.7036 49.1751ZM25.7291 50.5814C27.2749 50.276 28.093 49.0243 28.3456 47.7575C28.0176 47.5954 27.9121 47.5049 27.4936 47.4295C27.2259 48.1609 27.0223 48.8885 26.223 49.4013C24.9185 50.0498 23.6932 49.6652 22.5848 50.8641C22.1097 51.4146 21.5178 52.3798 21.3255 53.032C21.6347 53.2808 21.793 53.3412 22.106 53.5862C22.5961 52.6851 22.9354 50.8415 25.7291 50.5814ZM26.8338 51.8745C28.3796 51.5692 29.1977 50.3174 29.4503 49.0507C29.1223 48.8885 29.0167 48.7981 28.5982 48.7227C28.3306 49.4541 28.127 50.1817 27.3277 50.6945C26.0232 51.3429 24.7979 50.9584 23.6894 52.1573C23.2144 52.7078 22.6225 53.6729 22.4302 54.3252C22.7393 54.574 22.8977 54.6343 23.2106 54.8794C23.7008 53.9783 24.0401 52.1347 26.8338 51.8745ZM23.4481 56.2744C20.6507 56.493 20.2812 58.3291 19.776 59.2227C19.4706 58.9701 19.3122 58.906 19.0068 58.6534C19.2104 58.0049 19.8174 57.0473 20.3 56.5044C21.4273 55.3243 22.6489 55.7277 23.9609 55.0981C24.7677 54.5966 24.9826 53.8728 25.2616 53.1451C25.6801 53.228 25.7819 53.3185 26.1061 53.4844C25.8347 54.7512 24.9977 55.9878 23.4481 56.2668V56.2744ZM24.4812 57.7221C21.6837 57.9408 21.3142 59.7769 20.809 60.6704C20.5036 60.4178 20.3453 60.3537 20.0399 60.1011C20.2435 59.4527 20.8505 58.495 21.3331 57.9521C22.4604 56.772 23.6819 57.1755 24.9939 56.5458C25.8008 56.0444 26.0157 55.3205 26.2947 54.5929C26.7131 54.6758 26.8149 54.7663 27.1392 54.9322C26.8677 56.199 26.0307 57.4356 24.4812 57.7184V57.7221ZM25.4878 59.1473C27.0374 58.8645 27.8744 57.6279 28.1458 56.3649C27.8216 56.199 27.716 56.1085 27.3013 56.0255C27.0223 56.7532 26.8074 57.4771 26.0006 57.9785C24.6885 58.6044 23.467 58.201 22.3397 59.3848C21.8571 59.9277 21.2501 60.8853 21.0465 61.5338C21.3519 61.7864 21.5103 61.8505 21.8194 62.1031C22.3246 61.2096 22.6903 59.3735 25.4916 59.1548L25.4878 59.1473ZM26.5699 60.4593C28.1194 60.1765 28.9564 58.9399 29.2316 57.6769C28.9074 57.511 28.8056 57.4205 28.3871 57.3376C28.1081 58.0652 27.8932 58.7891 27.0864 59.2905C25.7744 59.9164 24.5528 59.513 23.4255 60.6968C22.9429 61.2397 22.3359 62.1974 22.1323 62.8458C22.4377 63.0984 22.5961 63.1625 22.9015 63.4151C23.4067 62.5216 23.7724 60.6855 26.5736 60.4668L26.5699 60.4593ZM37.2584 48.0553C37.2584 48.2325 37.2358 48.3984 37.1868 48.5568C37.1415 48.7151 37.0737 48.8584 36.9907 48.9903C36.904 49.1223 36.8022 49.2392 36.6778 49.341C36.5572 49.4428 36.4177 49.5257 36.2631 49.5936C36.38 49.6162 36.4893 49.6577 36.5949 49.718C36.6967 49.7783 36.7871 49.8537 36.8588 49.9442C36.9304 50.0347 36.9907 50.144 37.0284 50.2647C37.0699 50.3891 37.0888 50.5248 37.0888 50.6756C37.0888 50.8264 37.0699 50.9848 37.0284 51.1356C36.9907 51.2902 36.9266 51.4372 36.8475 51.5767C36.7645 51.7162 36.6665 51.8482 36.5458 51.9688C36.4252 52.0894 36.2857 52.195 36.1236 52.2817C35.9615 52.3722 35.7805 52.4401 35.5807 52.4891C35.3809 52.5381 35.1509 52.5645 34.887 52.5645H33.4241C33.3299 52.5645 33.2582 52.5419 33.213 52.4929C33.1677 52.4438 33.1564 52.3684 33.1828 52.2591L34.1593 47.256C34.1782 47.1429 34.2234 47.0638 34.295 47.0185C34.3667 46.9733 34.4421 46.9507 34.5175 46.9507H35.7051C35.9841 46.9507 36.2178 46.9733 36.4063 47.0223C36.5949 47.0713 36.7532 47.1392 36.8776 47.2334C37.0058 47.3277 37.0963 47.4408 37.1604 47.5765C37.2245 47.7122 37.2546 47.8668 37.2546 48.044L37.2584 48.0553ZM36.4818 48.1911C36.4818 48.0968 36.4667 48.0101 36.4365 47.9347C36.4063 47.8593 36.3536 47.7952 36.2857 47.7386C36.2178 47.6858 36.1273 47.6444 36.0218 47.6142C35.9162 47.5841 35.7767 47.569 35.6033 47.569H34.8304L34.4835 49.3862H35.3092C35.5317 49.3862 35.7164 49.3485 35.8597 49.2731C36.0029 49.1977 36.1198 49.1034 36.2141 48.9866C36.3045 48.8697 36.3724 48.7415 36.4177 48.5982C36.4629 48.455 36.4818 48.3192 36.4818 48.1911ZM36.3159 50.7359C36.3159 50.4946 36.2329 50.3099 36.067 50.178C35.9011 50.046 35.6448 49.9819 35.2941 49.9819H34.3591L33.9746 51.9613H35.0001C35.2338 51.9613 35.4299 51.9273 35.5882 51.8595C35.7466 51.7916 35.8823 51.7011 35.9916 51.5918C36.101 51.4824 36.1801 51.3505 36.2367 51.2034C36.2932 51.0564 36.3234 50.9018 36.3234 50.7397L36.3159 50.7359ZM41.9523 52.3081L41.1266 47.0977C41.1191 47.0675 41.1116 47.0411 41.0965 47.0185C41.0814 46.9997 41.0588 46.9808 41.0211 46.9695C40.9871 46.9582 40.9381 46.9507 40.8816 46.9431C40.825 46.9393 40.7496 46.9356 40.6554 46.9356C40.5724 46.9356 40.5046 46.9356 40.448 46.9431C40.3915 46.9469 40.3424 46.9582 40.3085 46.9695C40.2708 46.9808 40.2406 46.9959 40.218 47.0185C40.1954 47.0374 40.1728 47.0638 40.1539 47.0977L37.2886 52.3081C37.2584 52.3722 37.2396 52.4212 37.2283 52.4627C37.2207 52.5004 37.2283 52.5306 37.2471 52.5532C37.266 52.572 37.3037 52.5871 37.3527 52.5947C37.4017 52.6022 37.4695 52.606 37.5563 52.606C37.6317 52.606 37.6995 52.606 37.7523 52.5984C37.8051 52.5947 37.8466 52.5833 37.8805 52.572C37.9144 52.5607 37.9408 52.5456 37.9559 52.5268C37.9748 52.5079 37.9898 52.4853 38.0049 52.4552L38.7213 51.1017H41.0173L41.2171 52.4665C41.2171 52.4929 41.2284 52.5155 41.2397 52.5306C41.2511 52.5494 41.2699 52.5607 41.2925 52.572C41.3152 52.5833 41.3491 52.5909 41.3943 52.5947C41.4396 52.5984 41.4961 52.6022 41.5564 52.6022C41.6507 52.6022 41.7299 52.6022 41.7864 52.5947C41.843 52.5871 41.8845 52.5758 41.9108 52.557C41.9372 52.5381 41.9561 52.5079 41.9599 52.4665C41.9636 52.425 41.9599 52.376 41.9523 52.3119V52.3081ZM40.5196 47.7085L40.9306 50.5022H39.038L40.5196 47.7085ZM47.0308 52.2629C47.0232 52.3194 47.0044 52.3684 46.9818 52.4099C46.9554 52.4514 46.9252 52.4815 46.8951 52.5079C46.8611 52.5343 46.8272 52.5532 46.7895 52.5645C46.7518 52.5758 46.7141 52.5796 46.6802 52.5796H46.4049C46.3295 52.5796 46.2692 52.572 46.2164 52.5532C46.1674 52.5343 46.1222 52.5042 46.0807 52.4627C46.043 52.4212 46.0091 52.3647 45.9789 52.3006C45.9487 52.2327 45.9148 52.1498 45.8846 52.048L44.8516 49.0582C44.78 48.8433 44.7121 48.6322 44.6405 48.4173C44.5688 48.2061 44.5047 47.9912 44.4369 47.7801H44.4256C44.3879 48.0176 44.3502 48.2514 44.3049 48.4851C44.2635 48.7189 44.2182 48.9526 44.173 49.1864L43.5358 52.4552C43.532 52.4778 43.5207 52.5004 43.5056 52.5155C43.4906 52.5343 43.4679 52.5456 43.4378 52.557C43.4076 52.5683 43.3699 52.5758 43.3247 52.5833C43.2757 52.5909 43.2229 52.5947 43.155 52.5947C43.0872 52.5947 43.0344 52.5947 42.9891 52.5833C42.9439 52.5758 42.9137 52.5683 42.8873 52.557C42.8647 52.5456 42.8496 52.5343 42.8421 52.5155C42.8345 52.5004 42.8345 52.4778 42.8421 52.4552L43.8525 47.2824C43.8751 47.1656 43.9241 47.0826 43.9958 47.0336C44.0674 46.9846 44.1428 46.9582 44.2182 46.9582H44.5538C44.6216 46.9582 44.6819 46.9657 44.731 46.9808C44.78 46.9959 44.8252 47.0223 44.8629 47.0562C44.9006 47.0939 44.9308 47.1429 44.9609 47.2033C44.9911 47.2636 45.0213 47.339 45.0552 47.4295L46.0995 50.4607C46.1636 50.6492 46.2315 50.8377 46.2956 51.0225C46.3597 51.211 46.4238 51.3995 46.4841 51.5918H46.4916C46.5293 51.3543 46.5746 51.1092 46.6198 50.8566C46.6688 50.604 46.7141 50.3552 46.7593 50.1214L47.3626 47.0826C47.3701 47.06 47.3776 47.0411 47.3927 47.0261C47.4078 47.011 47.4267 46.9959 47.4568 46.9846C47.487 46.9733 47.5209 46.9657 47.5662 46.9582C47.6114 46.9507 47.668 46.9507 47.732 46.9507C47.7961 46.9507 47.8527 46.9507 47.8979 46.9582C47.9432 46.962 47.9771 46.9733 47.9997 46.9846C48.0261 46.9959 48.0412 47.0072 48.0487 47.0261C48.0563 47.0411 48.0601 47.06 48.0563 47.0826L47.0308 52.2629ZM52.999 47.0788C52.999 47.1165 52.9839 47.1542 52.9538 47.1995C52.9236 47.241 52.8784 47.2937 52.8143 47.3541L50.5258 49.6237L51.9735 52.2365C51.9999 52.2855 52.0188 52.3232 52.0263 52.3534C52.0376 52.3835 52.0414 52.4099 52.0414 52.4325C52.0414 52.4589 52.0338 52.4815 52.0225 52.5004C52.0112 52.5192 51.9924 52.5381 51.966 52.5494C51.9396 52.5607 51.9019 52.5683 51.8491 52.5758C51.8001 52.5833 51.736 52.5871 51.6568 52.5871C51.5777 52.5871 51.5136 52.5871 51.4683 52.5796C51.4193 52.572 51.3816 52.5645 51.3514 52.557C51.3213 52.5456 51.2987 52.5306 51.2836 52.5155C51.2685 52.4966 51.2572 52.474 51.2459 52.4476L49.734 49.6464L49.1911 52.4514C49.1911 52.474 49.1798 52.4966 49.1647 52.5117C49.1496 52.5306 49.127 52.5419 49.0931 52.5532C49.0629 52.5645 49.0215 52.572 48.9724 52.5796C48.9234 52.5871 48.8669 52.5909 48.799 52.5909C48.7311 52.5909 48.6708 52.5909 48.6218 52.5796C48.5728 52.5683 48.5389 52.5645 48.5125 52.5532C48.4861 52.5419 48.471 52.5306 48.4635 52.5117C48.4559 52.4966 48.4522 52.474 48.4597 52.4514L49.5154 47.0638C49.5154 47.0449 49.5267 47.0223 49.5455 47.0072C49.5606 46.9884 49.587 46.977 49.6171 46.9657C49.6473 46.9544 49.6888 46.9469 49.7378 46.9393C49.7868 46.9318 49.8434 46.928 49.9112 46.928C49.9791 46.928 50.0356 46.928 50.0847 46.9393C50.1299 46.9469 50.1676 46.9544 50.194 46.9657C50.2204 46.977 50.2355 46.9884 50.243 47.0072C50.2505 47.0223 50.2543 47.0411 50.2505 47.0638L49.7604 49.5596L52.1696 47.0713C52.1922 47.0449 52.2186 47.0223 52.245 47.0034C52.2714 46.9846 52.3015 46.9695 52.3392 46.962C52.3769 46.9507 52.4184 46.9431 52.4674 46.9393C52.5202 46.9318 52.5768 46.9318 52.6446 46.9318C52.72 46.9318 52.7804 46.9318 52.8256 46.9431C52.8708 46.9507 52.9085 46.962 52.9312 46.9695C52.9576 46.9808 52.9764 46.9959 52.9839 47.0147C52.9953 47.0298 52.999 47.0525 52.999 47.0751V47.0788ZM37.5261 55.3507C37.5261 55.3771 37.5261 55.411 37.5186 55.4562C37.5148 55.5015 37.5072 55.5505 37.4997 55.607C37.4922 55.6636 37.4771 55.7164 37.462 55.7729C37.4469 55.8295 37.4318 55.8823 37.4092 55.9275C37.3904 55.9728 37.364 56.0142 37.3414 56.0444C37.315 56.0746 37.2886 56.0896 37.2622 56.0896C37.2207 56.0896 37.1679 56.0708 37.1038 56.0331C37.0397 55.9954 36.9606 55.9539 36.8663 55.9087C36.7721 55.8634 36.6627 55.822 36.5383 55.7842C36.4139 55.7465 36.2744 55.7277 36.1123 55.7277C35.9502 55.7277 35.8107 55.7503 35.6938 55.7956C35.5807 55.8408 35.4864 55.9011 35.411 55.9765C35.3394 56.0519 35.2828 56.1349 35.2489 56.2291C35.2112 56.3196 35.1961 56.4176 35.1961 56.5119C35.1961 56.6212 35.2225 56.7193 35.2791 56.8022C35.3356 56.8851 35.4072 56.9643 35.4977 57.036C35.5882 57.1076 35.6938 57.1792 35.8107 57.2471C35.9275 57.315 36.0482 57.3828 36.1688 57.4582C36.2895 57.5299 36.4101 57.6128 36.527 57.6995C36.6439 57.7862 36.7494 57.888 36.8399 58.0011C36.9304 58.118 37.0058 58.2462 37.0586 58.3932C37.1151 58.5403 37.1415 58.7137 37.1415 58.906C37.1415 59.1925 37.085 59.4602 36.9681 59.7053C36.8512 59.9503 36.6891 60.1615 36.4742 60.3462C36.2593 60.5272 36.0029 60.6704 35.7013 60.7722C35.3997 60.8778 35.0642 60.9268 34.6984 60.9268C34.4986 60.9268 34.3177 60.9117 34.1518 60.8778C33.9859 60.8476 33.8351 60.8062 33.7069 60.7609C33.5787 60.7157 33.4694 60.6667 33.3826 60.6139C33.2922 60.5649 33.2281 60.5159 33.1866 60.4706C33.1451 60.4254 33.1225 60.3537 33.1225 60.2633C33.1225 60.2406 33.1225 60.2029 33.13 60.1539C33.1376 60.1049 33.1451 60.0521 33.1564 59.9956C33.1677 59.939 33.179 59.8825 33.1941 59.8221C33.2092 59.7618 33.2281 59.709 33.2507 59.66C33.2733 59.611 33.2959 59.5695 33.3223 59.5394C33.3487 59.5092 33.3751 59.4941 33.4053 59.4941C33.458 59.4941 33.5184 59.5168 33.59 59.5658C33.6616 59.611 33.7521 59.6638 33.8577 59.7203C33.9633 59.7769 34.0914 59.8297 34.2385 59.8787C34.3855 59.9277 34.5589 59.9503 34.7663 59.9503C34.9473 59.9503 35.1056 59.9277 35.2414 59.8825C35.3771 59.8372 35.4902 59.7731 35.5844 59.6977C35.6749 59.6186 35.7466 59.5281 35.7918 59.4225C35.8408 59.3169 35.8634 59.2038 35.8634 59.0794C35.8634 58.9663 35.837 58.8683 35.7805 58.7816C35.7239 58.6948 35.6523 58.6157 35.5618 58.544C35.4713 58.4724 35.3695 58.4045 35.2564 58.3404C35.1433 58.2764 35.0265 58.2085 34.9058 58.1369C34.7889 58.0652 34.6683 57.9823 34.5552 57.8993C34.4421 57.8164 34.3365 57.7146 34.2498 57.6015C34.1593 57.4846 34.0877 57.3527 34.0311 57.2056C33.9746 57.0586 33.9482 56.8814 33.9482 56.6853C33.9482 56.4101 34.0047 56.1575 34.1141 55.9275C34.2234 55.6975 34.378 55.4977 34.5703 55.3318C34.7663 55.1659 35.0001 55.0377 35.2715 54.9435C35.543 54.853 35.8408 54.804 36.1651 54.804C36.3196 54.804 36.4667 54.8153 36.6024 54.8379C36.7381 54.8605 36.8663 54.8907 36.9794 54.9246C37.0925 54.9586 37.1905 54.9963 37.2697 55.0415C37.3489 55.083 37.4054 55.1207 37.4356 55.1509C37.4658 55.1772 37.4884 55.2112 37.5035 55.2413C37.5186 55.2753 37.5223 55.313 37.5223 55.362L37.5261 55.3507ZM42.9778 58.6345C42.9024 59.0115 42.7818 59.3471 42.6196 59.6299C42.4575 59.9164 42.2577 60.1539 42.0164 60.3462C41.7751 60.5385 41.4999 60.6817 41.187 60.7798C40.874 60.874 40.5272 60.923 40.1502 60.923C39.7467 60.923 39.3999 60.874 39.1134 60.776C38.823 60.6742 38.5968 60.5272 38.4272 60.3349C38.2575 60.1388 38.152 59.8938 38.1029 59.5997C38.0539 59.3056 38.069 58.9625 38.1482 58.5742L38.8532 55.0566C38.8607 55.0264 38.8721 55 38.8985 54.9737C38.9211 54.951 38.9588 54.9284 39.0078 54.9133C39.0568 54.8983 39.1247 54.8869 39.2001 54.8756C39.2792 54.8681 39.3773 54.8605 39.4979 54.8605C39.611 54.8605 39.709 54.8643 39.7807 54.8756C39.8561 54.8832 39.9164 54.8945 39.9579 54.9133C39.9994 54.9284 40.0295 54.951 40.0408 54.9737C40.0521 55 40.0597 55.0264 40.0521 55.0566L39.3471 58.5742C39.2981 58.8117 39.283 59.0115 39.3056 59.185C39.3283 59.3584 39.381 59.4979 39.4602 59.611C39.5432 59.7203 39.6525 59.8033 39.7882 59.8598C39.9239 59.9126 40.0898 59.939 40.2821 59.939C40.4744 59.939 40.6554 59.9089 40.8213 59.8485C40.9871 59.7882 41.1342 59.7015 41.2624 59.5846C41.3906 59.4715 41.4999 59.3282 41.5904 59.1624C41.6809 58.9965 41.745 58.808 41.7902 58.5968L42.5028 55.0528C42.5103 55.0227 42.5216 54.9963 42.548 54.9699C42.5706 54.9473 42.6046 54.9246 42.6536 54.9096C42.6988 54.8945 42.7629 54.8832 42.8459 54.8719C42.925 54.8643 43.0231 54.8568 43.1399 54.8568C43.2568 54.8568 43.3511 54.8605 43.4227 54.8719C43.4943 54.8794 43.5509 54.8907 43.5961 54.9096C43.6376 54.9246 43.6678 54.9473 43.6791 54.9699C43.6942 54.9963 43.6979 55.0227 43.6904 55.0528L42.974 58.627L42.9778 58.6345ZM50.7708 60.6629C50.7633 60.6931 50.7482 60.7195 50.7294 60.7458C50.7105 60.7685 50.6803 60.7911 50.6351 60.8062C50.5899 60.8212 50.5295 60.8326 50.4541 60.8401C50.3787 60.8476 50.2845 60.8514 50.1714 60.8514C50.0583 60.8514 49.9565 60.8514 49.8848 60.8401C49.8132 60.8326 49.7566 60.8212 49.7152 60.8062C49.6775 60.7911 49.6511 60.7685 49.6398 60.7458C49.6285 60.7195 49.6285 60.6931 49.6322 60.6629L50.5936 55.8408H50.5861L47.8979 60.6591C47.8602 60.7345 47.7886 60.7873 47.6868 60.8137C47.5812 60.8401 47.4304 60.8514 47.2381 60.8514C47.0459 60.8514 46.8988 60.8326 46.8083 60.7986C46.7216 60.7647 46.6764 60.7194 46.6726 60.6704L45.9789 55.837H45.9714L45.0062 60.6629C44.9986 60.6931 44.9873 60.7195 44.9685 60.7458C44.9496 60.7685 44.9157 60.7911 44.8705 60.8062C44.8252 60.8212 44.7687 60.8326 44.6933 60.8401C44.6179 60.8476 44.5236 60.8514 44.4067 60.8514C44.2898 60.8514 44.1956 60.8514 44.124 60.8401C44.0523 60.8326 43.9958 60.8212 43.9543 60.8062C43.9128 60.7911 43.8902 60.7685 43.8751 60.7458C43.8638 60.7195 43.86 60.6931 43.8714 60.6629L44.9232 55.3808C44.9383 55.3054 44.9609 55.2338 44.9949 55.1735C45.0288 55.1132 45.0665 55.0604 45.1155 55.0189C45.1608 54.9774 45.2173 54.9473 45.2776 54.9246C45.338 54.902 45.4058 54.8907 45.4737 54.8907H46.224C46.3597 54.8907 46.4728 54.902 46.567 54.9246C46.6613 54.9473 46.7405 54.9887 46.8008 55.0415C46.8611 55.0981 46.9101 55.1697 46.9403 55.2564C46.9705 55.3469 46.9931 55.4525 47.0044 55.5769L47.5775 59.102H47.6001L49.6322 55.5769C49.6926 55.4562 49.7529 55.3544 49.8132 55.2677C49.8735 55.181 49.9414 55.1094 50.0168 55.0528C50.0922 54.9963 50.1751 54.9548 50.2656 54.9284C50.3561 54.902 50.4654 54.8907 50.5899 54.8907H51.4419C51.5173 54.8907 51.5852 54.902 51.638 54.9246C51.6908 54.9435 51.736 54.9774 51.7662 55.0189C51.8001 55.0604 51.8189 55.1094 51.8265 55.1697C51.834 55.23 51.834 55.2979 51.8189 55.3733L50.7671 60.6591L50.7708 60.6629ZM56.2075 55.3507C56.2075 55.3017 56.1999 55.2602 56.1886 55.23C56.1735 55.1999 56.1509 55.1659 56.1208 55.1395C56.0906 55.1094 56.034 55.0754 55.9549 55.0302C55.8757 54.985 55.7777 54.9473 55.6646 54.9133C55.5515 54.8756 55.4233 54.8492 55.2875 54.8266C55.1518 54.804 55.0048 54.7927 54.8502 54.7927C54.526 54.7927 54.2281 54.8379 53.9567 54.9322C53.6852 55.0264 53.4514 55.1546 53.2554 55.3205C53.0631 55.4864 52.9085 55.6862 52.7992 55.9162C52.6899 56.15 52.6333 56.4026 52.6333 56.674C52.6333 56.8738 52.6597 57.0473 52.7163 57.1943C52.7728 57.3451 52.8444 57.4771 52.9349 57.5902C53.0254 57.7033 53.1272 57.8051 53.2403 57.888C53.3534 57.9747 53.4703 58.0539 53.5909 58.1255C53.7116 58.1972 53.8285 58.265 53.9416 58.3291C54.0547 58.3932 54.1602 58.4611 54.247 58.5327C54.3374 58.6044 54.4091 58.6835 54.4656 58.7703C54.5184 58.8532 54.5486 58.955 54.5486 59.0681C54.5486 59.1925 54.526 59.3056 54.4769 59.4112C54.4317 59.5168 54.3601 59.6072 54.2696 59.6864C54.1791 59.7656 54.0622 59.8259 53.9265 59.8712C53.7908 59.9164 53.6324 59.939 53.4514 59.939C53.2479 59.939 53.0707 59.9126 52.9236 59.8674C52.7766 59.8184 52.6484 59.7656 52.5428 59.709C52.4335 59.6525 52.3468 59.5997 52.2751 59.5545C52.2035 59.5054 52.1432 59.4828 52.0904 59.4828C52.0602 59.4828 52.0338 59.4979 52.0075 59.5281C51.9811 59.5582 51.9584 59.5997 51.9358 59.6487C51.917 59.6977 51.8981 59.7505 51.8793 59.8108C51.8642 59.8712 51.8529 59.9277 51.8416 59.9843C51.8303 60.0408 51.8227 60.0936 51.8152 60.1426C51.8076 60.1916 51.8076 60.2293 51.8076 60.2519C51.8076 60.3424 51.8303 60.4141 51.8717 60.4593C51.9132 60.5045 51.9811 60.5536 52.0678 60.6026C52.1545 60.6554 52.2638 60.7044 52.392 60.7496C52.5202 60.7949 52.671 60.8363 52.8369 60.8665C53.0066 60.9004 53.1875 60.9155 53.3836 60.9155C53.7493 60.9155 54.0848 60.8627 54.3865 60.7609C54.6881 60.6591 54.9444 60.5159 55.1593 60.3349C55.3705 60.1539 55.5364 59.939 55.6532 59.694C55.7701 59.4489 55.8267 59.1812 55.8267 58.8947C55.8267 58.7024 55.8003 58.5327 55.7437 58.3819C55.6909 58.2349 55.6155 58.1029 55.5251 57.9898C55.4346 57.8767 55.329 57.7749 55.2121 57.6882C55.0953 57.6015 54.9746 57.5223 54.854 57.4469C54.7333 57.3753 54.6127 57.3036 54.4958 57.2358C54.3789 57.1679 54.2734 57.1001 54.1829 57.0246C54.0924 56.953 54.017 56.8776 53.9642 56.7909C53.9076 56.7079 53.8812 56.6099 53.8812 56.5006C53.8812 56.4063 53.9001 56.3121 53.934 56.2178C53.968 56.1236 54.0245 56.0406 54.0962 55.9652C54.1678 55.8898 54.262 55.8295 54.3789 55.7842C54.492 55.739 54.6315 55.7164 54.7974 55.7164C54.9633 55.7164 55.099 55.7352 55.2234 55.7729C55.3479 55.8106 55.4572 55.8521 55.5515 55.8974C55.6419 55.9426 55.7249 55.9841 55.789 56.0218C55.8531 56.0595 55.9059 56.0783 55.9473 56.0783C55.9737 56.0783 56.0039 56.0632 56.0265 56.0331C56.0529 56.0029 56.0755 55.9614 56.0944 55.9162C56.1132 55.8672 56.1321 55.8144 56.1471 55.7616C56.1622 55.7051 56.1735 55.6485 56.1848 55.5957C56.1924 55.5392 56.1999 55.4902 56.2037 55.4449C56.2075 55.3997 56.2112 55.362 56.2112 55.3394L56.2075 55.3507ZM61.0032 55.0679C61.0032 55.0679 61.0032 55.1169 60.9956 55.1659C60.9919 55.2112 60.9843 55.264 60.973 55.3205C60.9655 55.3771 60.9542 55.4374 60.9353 55.4977C60.9202 55.5618 60.9014 55.6146 60.8788 55.6674C60.8561 55.7164 60.8297 55.7579 60.7958 55.7956C60.7619 55.8295 60.7279 55.8446 60.694 55.8446H58.5789L58.2886 57.2886H60.0832C60.1247 57.2886 60.1549 57.3036 60.1737 57.3338C60.1926 57.364 60.2001 57.4054 60.2001 57.462C60.2001 57.4846 60.2001 57.5185 60.1926 57.56C60.1888 57.6053 60.1813 57.6543 60.17 57.7108C60.1624 57.7674 60.1511 57.8239 60.1323 57.8805C60.1172 57.937 60.0983 57.9898 60.0757 58.0426C60.0531 58.0916 60.0267 58.1293 59.9965 58.1595C59.9664 58.1896 59.9324 58.2047 59.8947 58.2047H58.1001L57.7646 59.8749H59.9098C59.9475 59.8749 59.9739 59.89 59.9928 59.9239C60.0116 59.9541 60.0191 60.0031 60.0191 60.0634C60.0191 60.0823 60.0191 60.12 60.0154 60.1652C60.0154 60.2105 60.0078 60.2633 59.9965 60.3198C59.9852 60.3764 59.9739 60.4329 59.9588 60.4932C59.9437 60.5498 59.9249 60.6063 59.9023 60.6591C59.8796 60.7081 59.8533 60.7496 59.8231 60.7798C59.7929 60.8099 59.759 60.825 59.7175 60.825H56.7391C56.6901 60.825 56.6448 60.8175 56.6071 60.8062C56.5656 60.7911 56.5355 60.7685 56.5091 60.7383C56.4827 60.7044 56.4638 60.6667 56.4563 60.6214C56.4488 60.5724 56.4488 60.5159 56.4601 60.448L57.4931 55.2828C57.5195 55.1471 57.5761 55.0528 57.659 54.9925C57.7419 54.9322 57.8362 54.902 57.938 54.902H60.8825C60.9617 54.902 60.9994 54.9586 60.9994 55.0755L61.0032 55.0679ZM64.3587 60.0069C64.3587 60.0295 64.3587 60.0634 64.3511 60.1087C64.3473 60.1539 64.3398 60.2105 64.3285 60.2708C64.3172 60.3311 64.3021 60.3952 64.287 60.4593C64.2682 60.5234 64.2493 60.5837 64.2267 60.6365C64.2041 60.6893 64.1777 60.7345 64.1475 60.7685C64.1174 60.8024 64.0834 60.8175 64.042 60.8175H61.3236C61.2746 60.8175 61.2294 60.8099 61.1879 60.7986C61.1464 60.7835 61.1125 60.7609 61.0861 60.7308C61.0597 60.6968 61.0409 60.6591 61.0333 60.6139C61.0258 60.5649 61.0258 60.5083 61.0371 60.4405L62.1154 55.0528C62.1154 55.0227 62.1342 54.9963 62.1569 54.9699C62.1795 54.9473 62.2172 54.9246 62.27 54.9096C62.319 54.8945 62.3868 54.8832 62.4622 54.8756C62.5414 54.8681 62.6394 54.8643 62.7601 54.8643C62.8807 54.8643 62.9712 54.8643 63.0466 54.8756C63.122 54.8832 63.1823 54.8945 63.2238 54.9096C63.2653 54.9246 63.2955 54.9473 63.3068 54.9699C63.3181 54.9963 63.3256 55.0227 63.3181 55.0528L62.368 59.8259H64.2418C64.2832 59.8259 64.3134 59.8448 64.3323 59.8749C64.3511 59.9089 64.3587 59.9541 64.3587 60.0069ZM69.7764 56.1009C69.7764 56.2819 69.7501 56.4516 69.701 56.6099C69.652 56.772 69.5766 56.9191 69.4824 57.051C69.3881 57.183 69.2712 57.2999 69.1355 57.4017C68.9998 57.5035 68.849 57.5864 68.6831 57.6467C68.815 57.6694 68.9395 57.7146 69.0488 57.7749C69.1619 57.8352 69.2561 57.9144 69.3353 58.0087C69.4145 58.1029 69.4786 58.216 69.5201 58.348C69.5653 58.4762 69.5842 58.6232 69.5842 58.7853C69.5842 58.9324 69.5653 59.0832 69.5238 59.2415C69.4861 59.3961 69.422 59.5507 69.3353 59.7015C69.2524 59.8523 69.1393 59.9956 69.0035 60.1313C68.8678 60.267 68.7019 60.3877 68.5097 60.4895C68.3174 60.5913 68.0949 60.6742 67.8423 60.7345C67.5897 60.7949 67.2956 60.825 66.9601 60.825H65.3163C65.1919 60.825 65.1014 60.7949 65.0448 60.7345C64.9883 60.6742 64.9732 60.5799 64.9996 60.448L66.0326 55.2828C66.059 55.1471 66.1118 55.0528 66.1947 54.9925C66.2777 54.9322 66.3757 54.902 66.4851 54.902H67.914C68.2269 54.902 68.4983 54.9284 68.7283 54.9737C68.9583 55.0227 69.1468 55.0943 69.3052 55.1961C69.4597 55.2941 69.5766 55.4185 69.6558 55.5693C69.735 55.7202 69.7727 55.8974 69.7727 56.1085L69.7764 56.1009ZM68.5398 56.3272C68.5398 56.2404 68.5247 56.165 68.4946 56.1009C68.4644 56.0369 68.4192 55.9803 68.3588 55.9351C68.2947 55.8898 68.2193 55.8521 68.1251 55.8295C68.0346 55.8031 67.914 55.7918 67.7707 55.7918H67.1147L66.8093 57.33H67.4842C67.684 57.33 67.8461 57.2999 67.978 57.2358C68.11 57.1717 68.2156 57.0925 68.2985 56.9945C68.3815 56.8965 68.4456 56.7871 68.4795 56.6665C68.5172 56.5458 68.536 56.4327 68.536 56.3234L68.5398 56.3272ZM68.3325 58.8457C68.3325 58.6496 68.2608 58.495 68.1138 58.3819C67.9705 58.2688 67.7405 58.2123 67.4238 58.2123H66.6283L66.289 59.9013H67.1411C67.356 59.9013 67.5407 59.8712 67.6877 59.8108C67.8348 59.7505 67.9592 59.6713 68.0535 59.5733C68.1515 59.4753 68.2193 59.3622 68.2646 59.234C68.3098 59.1058 68.3325 58.9776 68.3325 58.8457ZM75.0208 60.3726L74.2479 55.1169C74.2404 55.0604 74.2291 55.0151 74.2102 54.9812C74.1913 54.9473 74.1536 54.9246 74.0971 54.9058C74.0405 54.8869 73.9576 54.8794 73.8558 54.8719C73.7502 54.8681 73.6107 54.8643 73.4335 54.8643C73.2752 54.8643 73.1508 54.8643 73.0527 54.8719C72.9547 54.8756 72.8793 54.8869 72.8228 54.9058C72.7662 54.9246 72.721 54.9473 72.6908 54.9774C72.6606 55.0076 72.6305 55.0491 72.6003 55.1018L69.7312 60.3613C69.6746 60.4706 69.6332 60.5536 69.6143 60.6177C69.5955 60.6817 69.5992 60.7308 69.6219 60.7647C69.6483 60.7986 69.701 60.8212 69.7764 60.8288C69.8556 60.8363 69.9649 60.8439 70.1044 60.8439C70.2364 60.8439 70.3457 60.8439 70.4325 60.8363C70.5192 60.8288 70.587 60.8175 70.6398 60.8062C70.6926 60.7911 70.7303 60.7685 70.7567 60.7383C70.7831 60.7119 70.8095 60.6742 70.8283 60.629L71.4391 59.4677H73.6598L73.8219 60.6591C73.8219 60.7006 73.8332 60.7345 73.8483 60.7609C73.8633 60.7873 73.8935 60.8062 73.9312 60.8175C73.9727 60.8288 74.0292 60.8401 74.1046 60.8439C74.18 60.8476 74.2743 60.8514 74.3949 60.8514C74.5571 60.8514 74.6852 60.8514 74.7795 60.8401C74.8738 60.8326 74.9379 60.8137 74.9793 60.7798C75.0208 60.7458 75.0396 60.6968 75.0434 60.6327C75.0434 60.5686 75.0396 60.4819 75.0246 60.3726H75.0208ZM73.2186 56.0255L73.558 58.5403H71.8953L73.2149 56.0255H73.2186ZM80.6158 56.1009C80.6158 56.2819 80.5894 56.4516 80.5404 56.6099C80.4914 56.772 80.416 56.9191 80.3217 57.051C80.2275 57.183 80.1106 57.2999 79.9748 57.4017C79.8391 57.5035 79.6883 57.5864 79.5224 57.6467C79.6544 57.6694 79.7788 57.7146 79.8881 57.7749C80.0012 57.8352 80.0955 57.9144 80.1747 58.0087C80.2538 58.1029 80.3179 58.216 80.3594 58.348C80.4046 58.4762 80.4235 58.6232 80.4235 58.7853C80.4235 58.9324 80.4047 59.0832 80.3632 59.2415C80.3255 59.3961 80.2614 59.5507 80.1747 59.7015C80.0917 59.8523 79.9786 59.9956 79.8429 60.1313C79.7072 60.267 79.5413 60.3877 79.349 60.4895C79.1567 60.5913 78.9343 60.6742 78.6817 60.7345C78.4291 60.7949 78.135 60.825 77.7994 60.825H76.1556C76.0312 60.825 75.9407 60.7949 75.8842 60.7345C75.8276 60.6742 75.8125 60.5799 75.8389 60.448L76.872 55.2828C76.8984 55.1471 76.9511 55.0528 77.0341 54.9925C77.117 54.9322 77.2151 54.902 77.3282 54.902H78.7571C79.07 54.902 79.3415 54.9284 79.5714 54.9737C79.8014 55.0227 79.9899 55.0943 80.1483 55.1961C80.3029 55.2941 80.4197 55.4185 80.4989 55.5693C80.5781 55.7202 80.6158 55.8974 80.6158 56.1085V56.1009ZM79.3792 56.3272C79.3792 56.2404 79.3641 56.165 79.3339 56.1009C79.3037 56.0369 79.2585 55.9803 79.1982 55.9351C79.1341 55.8898 79.0587 55.8521 78.9644 55.8295C78.8739 55.8031 78.7533 55.7918 78.61 55.7918H77.954L77.6486 57.33H78.3235C78.5233 57.33 78.6854 57.2999 78.8174 57.2358C78.9494 57.1717 79.0549 57.0925 79.1379 56.9945C79.2208 56.8965 79.2849 56.7871 79.3188 56.6665C79.3565 56.5458 79.3754 56.4327 79.3754 56.3234L79.3792 56.3272ZM79.1718 58.8457C79.1718 58.6496 79.1002 58.495 78.9531 58.3819C78.8098 58.2688 78.5799 58.2123 78.2632 58.2123H77.4677L77.1283 59.9013H77.9766C78.1915 59.9013 78.3763 59.8712 78.5233 59.8108C78.6704 59.7505 78.7948 59.6713 78.889 59.5733C78.9871 59.4753 79.0549 59.3622 79.1002 59.234C79.1454 59.1058 79.168 58.9776 79.168 58.8457H79.1718ZM85.6377 55.0679C85.6377 55.0679 85.6377 55.1169 85.6302 55.1659C85.6264 55.2112 85.6188 55.264 85.6075 55.3205C85.6 55.3771 85.5887 55.4374 85.5698 55.4977C85.5548 55.5618 85.5359 55.6146 85.5133 55.6674C85.4907 55.7164 85.4643 55.7579 85.4303 55.7956C85.3964 55.8295 85.3625 55.8446 85.3285 55.8446H83.2135L82.9231 57.2886H84.7178C84.7592 57.2886 84.7894 57.3036 84.8082 57.3338C84.8271 57.364 84.8346 57.4054 84.8346 57.462C84.8346 57.4846 84.8346 57.5185 84.8271 57.56C84.8233 57.6053 84.8158 57.6543 84.8045 57.7108C84.7969 57.7674 84.7856 57.8239 84.7668 57.8805C84.7517 57.937 84.7328 57.9898 84.7102 58.0426C84.6876 58.0916 84.6612 58.1293 84.631 58.1595C84.6009 58.1896 84.567 58.2047 84.5293 58.2047H82.7346L82.3991 59.8749H84.5443C84.582 59.8749 84.6084 59.89 84.6273 59.9239C84.6461 59.9541 84.6537 60.0031 84.6537 60.0634C84.6537 60.0823 84.6537 60.12 84.6499 60.1652C84.6499 60.2105 84.6424 60.2633 84.631 60.3198C84.6197 60.3764 84.6084 60.4329 84.5934 60.4932C84.5783 60.5498 84.5594 60.6063 84.5368 60.6591C84.5142 60.7081 84.4878 60.7496 84.4576 60.7798C84.4275 60.8099 84.3935 60.825 84.3521 60.825H81.3736C81.3246 60.825 81.2793 60.8175 81.2416 60.8062C81.2002 60.7911 81.17 60.7685 81.1436 60.7383C81.1172 60.7044 81.0984 60.6667 81.0908 60.6214C81.0833 60.5724 81.0833 60.5159 81.0946 60.448L82.1276 55.2828C82.154 55.1471 82.2106 55.0528 82.2935 54.9925C82.3765 54.9322 82.4707 54.902 82.5725 54.902H85.517C85.5962 54.902 85.6339 54.9586 85.6339 55.0755L85.6377 55.0679ZM88.9932 60.0069C88.9932 60.0295 88.9932 60.0634 88.9856 60.1087C88.9819 60.1539 88.9743 60.2105 88.963 60.2708C88.9517 60.3311 88.9366 60.3952 88.9215 60.4593C88.9027 60.5234 88.8838 60.5837 88.8612 60.6365C88.8386 60.6893 88.8122 60.7345 88.782 60.7685C88.7519 60.8024 88.718 60.8175 88.6765 60.8175H85.9582C85.9091 60.8175 85.8639 60.8099 85.8224 60.7986C85.781 60.7835 85.747 60.7609 85.7206 60.7308C85.6942 60.6968 85.6754 60.6591 85.6679 60.6139C85.6603 60.5649 85.6603 60.5083 85.6716 60.4405L86.7499 55.0528C86.7499 55.0227 86.7688 54.9963 86.7914 54.9699C86.814 54.9473 86.8517 54.9246 86.9045 54.9096C86.9535 54.8945 87.0214 54.8832 87.0968 54.8756C87.1759 54.8681 87.274 54.8643 87.3946 54.8643C87.5153 54.8643 87.6057 54.8643 87.6811 54.8756C87.7565 54.8832 87.8169 54.8945 87.8583 54.9096C87.8998 54.9246 87.93 54.9473 87.9413 54.9699C87.9526 54.9963 87.9601 55.0227 87.9526 55.0528L87.0025 59.8259H88.8763C88.9178 59.8259 88.9479 59.8448 88.9668 59.8749C88.9856 59.9089 88.9932 59.9541 88.9932 60.0069Z" fill="white"/>
</svg>
