<svg width="109" height="108" viewBox="0 0 109 108" fill="none" xmlns="http://www.w3.org/2000/svg">
<path fill-rule="evenodd" clip-rule="evenodd" d="M14.5 61.0636C14.9189 61.1416 15.574 61.1943 16.3331 61.1943C17.5252 61.1943 18.4937 60.9849 19.1882 60.4613C19.7638 60.029 20.2488 59.3219 20.2488 58.418C20.2614 57.3573 19.5937 56.6896 18.7953 56.4542V56.4282C19.8031 56.166 20.7071 55.3408 20.7071 54.2282C20.7071 53.6518 20.4709 53.1802 20.0654 52.8534C19.5937 52.4337 18.9394 52.2376 18.0354 52.2376C17.315 52.2376 16.674 52.3164 16.137 52.4211L14.5 61.0636ZM17.0795 53.1935C17.2496 53.1408 17.5772 53.1022 17.9835 53.1022C18.9394 53.1022 19.5811 53.4684 19.5811 54.3195C19.5811 55.3935 18.5984 56.0479 17.3417 56.0479H16.5299L17.0795 53.1935ZM16.3598 56.8731H17.237C18.2323 56.8731 19.1094 57.3313 19.1094 58.366C19.1094 59.7802 17.9047 60.3172 16.6213 60.3038C16.3205 60.3038 15.9929 60.2904 15.7181 60.2518L16.3598 56.8731ZM26.4551 61.129C26.4291 60.4219 26.5205 59.2959 26.7307 58.1959L27.3717 54.8959C26.9402 54.7518 26.2724 54.6471 25.6693 54.6471C22.9063 54.6471 21.2827 56.9778 21.2827 59.1778C21.2827 60.3825 21.9898 61.2731 23.1031 61.2731C24.0063 61.2731 24.8709 60.8014 25.5646 59.492H25.5913C25.5126 60.1471 25.4472 60.7495 25.4472 61.129H26.4551ZM25.7874 57.5148C25.4732 59.2038 24.3992 60.3825 23.4961 60.3825C22.6583 60.3825 22.4094 59.6888 22.4094 58.981C22.422 57.2266 23.7583 55.5109 25.3945 55.5109C25.7614 55.5109 25.9969 55.5636 26.1543 55.603L25.7874 57.5148ZM29.1661 61.129L29.7417 58.0518C30.0299 56.4802 31.1299 55.5502 31.9024 55.5502C32.6488 55.5502 32.8976 56.0219 32.8976 56.6636C32.8976 56.9258 32.8583 57.2266 32.8063 57.4754L32.1126 61.129H33.1992L33.9063 57.4361C33.9717 57.0959 34.0236 56.6896 34.0236 56.4148C34.0236 55.0794 33.1732 54.6471 32.4134 54.6471C31.4835 54.6471 30.6323 55.1447 30.0693 56.0353H30.0433L30.2008 54.7912H29.2315C29.1528 55.3148 29.074 55.9306 28.9299 56.6376L28.0787 61.129H29.1661ZM36.1583 61.129L36.6165 58.7085L37.4157 57.9865L38.9346 61.129H40.1394L38.2402 57.3841L41.0031 54.7912H39.6677L37.4283 57.0061C37.2717 57.1896 37.0354 57.4235 36.8394 57.6455H36.8134L37.926 51.8313H36.8394L35.0843 61.129H36.1583Z" fill="#095491"/>
<path fill-rule="evenodd" clip-rule="evenodd" d="M53.6724 60.6558C54.0709 60.9676 54.9047 61.2668 56.0756 61.2928C57.9433 61.2928 59.4866 60.2794 59.4866 58.3298C59.4866 57.2904 58.8394 56.5762 57.8189 56.0172C57.1087 55.6014 56.5984 55.2896 56.5984 54.7825C56.5984 54.3022 57.0339 53.8605 57.8685 53.8605C58.5654 53.8471 59.163 54.0943 59.437 54.2502L59.9976 52.7038C59.6362 52.4825 59.0386 52.2487 58.0181 52.2487C56.1874 52.2487 54.7055 53.3274 54.7055 55.0943C54.7055 56.2384 55.5528 56.914 56.4488 57.4203C57.2205 57.8361 57.5819 58.1613 57.5819 58.655C57.5819 59.3439 56.9472 59.6817 56.2496 59.6817C55.4779 59.6817 54.7677 59.4345 54.2701 59.1227L53.6724 60.6558ZM65.0008 54.7959L64.463 57.7321C64.2268 59.0061 63.6039 59.7723 62.9961 59.7723C62.5354 59.7723 62.3882 59.4479 62.3882 59.0321C62.3882 58.7975 62.4252 58.4865 62.4756 58.1998L63.0835 54.7959H61.2921L60.6575 58.3432C60.5701 58.7849 60.5331 59.1621 60.5331 59.5124C60.5331 60.7211 61.1181 61.2928 62.089 61.2928C62.822 61.2928 63.5693 60.9424 64.1898 60.1101H64.2142L64.1024 61.1495H65.6858C65.7732 60.5778 65.8598 59.8896 66.0094 59.0841L66.7937 54.7959H65.0008ZM68.9496 61.1495L70.6433 51.9243H68.8504L67.1567 61.1495H68.9496ZM72.0504 53.5998L71.826 54.7959H71.0417L70.7929 56.2117H71.5646L71.0913 58.7329C71.0047 59.2266 70.9669 59.5644 70.9669 59.9156C70.9669 60.7077 71.478 61.2928 72.548 61.2928C72.9346 61.2928 73.3827 61.2408 73.6071 61.1495L73.8181 59.6817C73.6567 59.7077 73.4819 59.7077 73.3205 59.7077C72.9346 59.7077 72.8102 59.4865 72.8102 59.1747C72.8102 58.9542 72.8598 58.6156 72.9094 58.3691L73.3205 56.2117H74.615L74.8772 54.7959H73.5819L73.8929 53.0676L72.0504 53.5998ZM79.6953 59.4345C79.2102 59.6817 78.6496 59.8376 77.9898 59.8376C77.4669 59.8376 77.0559 59.6684 76.8189 59.3439C76.6945 59.1621 76.6323 58.8762 76.6323 58.6935C79.0724 58.7589 80.5795 58.1739 80.5795 56.5502C80.5795 55.3676 79.6953 54.6526 78.463 54.6526C76.2591 54.6526 74.9142 56.6668 74.9142 58.603C74.9142 60.2534 75.811 61.2928 77.5535 61.2928C78.226 61.2928 79.1102 61.1628 79.8197 60.7857L79.6953 59.4345ZM78.8984 56.5628C78.8984 57.1345 78.2016 57.3424 76.8063 57.3298C76.9315 56.7321 77.4039 56.0172 78.2386 56.0172C78.6496 56.0172 78.8984 56.2384 78.8984 56.5502V56.5628ZM82.7583 61.1495L83.2685 58.3298C83.5181 56.9266 84.2024 56.1597 84.7882 56.1597C85.2362 56.1597 85.3858 56.4723 85.3858 56.914C85.3858 57.1479 85.3606 57.4077 85.3236 57.6282L84.6882 61.1495H86.4811L87.1535 57.4597C87.2032 57.1479 87.2535 56.6668 87.2535 56.3809C87.2535 55.2896 86.6929 54.6526 85.6969 54.6526C84.8874 54.6526 84.1283 55.0164 83.5551 55.8479H83.5307L83.6551 54.7959H82.0614C81.9866 55.3542 81.8866 56.0558 81.737 56.8621L80.9654 61.1495H82.7583ZM87.963 63.4628C88.374 63.7101 89.1331 63.866 89.9425 63.866C90.752 63.866 91.6362 63.6967 92.2961 63.151C93.0307 62.54 93.3669 61.5006 93.5787 60.3313L94.5 55.0943C93.8646 54.8085 93.1055 54.6526 92.2465 54.6526C89.5945 54.6526 88.1622 56.7321 88.1622 58.8369C88.1748 60.0715 88.9095 61.0975 90.1173 61.0975C90.8394 61.0975 91.3874 60.7991 91.8598 60.1621H91.885L91.7858 60.6951C91.5362 61.9684 90.8646 62.3841 89.9677 62.3841C89.4575 62.3841 88.7102 62.2416 88.374 62.0337L87.963 63.4628ZM92.2465 57.9014C92.0591 58.9794 91.4622 59.6558 90.8764 59.6558C90.3291 59.6558 90.0551 59.188 90.0551 58.551C90.0551 57.3424 90.8268 56.0817 91.9102 56.0817C92.1591 56.0817 92.4205 56.1345 92.5575 56.1991L92.2465 57.9014Z" fill="#095491"/>
<path fill-rule="evenodd" clip-rule="evenodd" d="M49.9031 62.3124C49.9031 62.3187 49.9024 62.325 49.9008 62.3337C49.8992 62.3416 49.8961 62.3518 49.8921 62.3644L49.5669 63.4124C49.5646 63.4219 49.5606 63.4298 49.5551 63.4353C49.5504 63.4408 49.5425 63.4455 49.5339 63.4487C49.5236 63.4518 49.511 63.4542 49.4945 63.4558C49.478 63.4565 49.4575 63.4573 49.4339 63.4573C49.4079 63.4573 49.3866 63.4565 49.3693 63.455C49.3528 63.4526 49.3386 63.4502 49.3283 63.4479C49.3181 63.4439 49.311 63.44 49.3063 63.4337C49.3008 63.4282 49.2976 63.4211 49.2953 63.4124L49.063 62.6117L49.0606 62.6006L49.0583 62.6117L48.8433 63.4124C48.8409 63.4219 48.837 63.4298 48.8323 63.4353C48.8268 63.4408 48.8189 63.4455 48.8087 63.4487C48.7976 63.4518 48.7835 63.4542 48.7669 63.4558C48.7504 63.4565 48.7299 63.4573 48.7047 63.4573C48.6795 63.4573 48.6591 63.4565 48.6433 63.455C48.6276 63.4526 48.6142 63.4502 48.6039 63.4479C48.5937 63.4439 48.5858 63.44 48.5819 63.4337C48.5764 63.4282 48.5724 63.4211 48.5701 63.4124L48.248 62.3644C48.2441 62.3518 48.2409 62.3416 48.2394 62.3337C48.2378 62.325 48.237 62.3187 48.237 62.3124C48.237 62.3054 48.2386 62.2991 48.2417 62.2943C48.2449 62.2904 48.2504 62.2865 48.2583 62.2833C48.2661 62.281 48.2764 62.2794 48.2898 62.2786C48.3032 62.2778 48.3189 62.277 48.3378 62.277C48.3598 62.277 48.3787 62.2778 48.3921 62.2786C48.4063 62.2802 48.4173 62.2817 48.4244 62.2849C48.4315 62.288 48.437 62.292 48.4402 62.2975C48.4433 62.3022 48.4465 62.3085 48.4488 62.3164L48.715 63.2282L48.7173 63.2384L48.7197 63.2282L48.9638 62.3164C48.9654 62.3085 48.9685 62.3022 48.9717 62.2975C48.9756 62.292 48.9811 62.288 48.9882 62.2849C48.9961 62.2817 49.0055 62.2802 49.0181 62.2786C49.0307 62.2778 49.048 62.277 49.0685 62.277C49.0882 62.277 49.1039 62.2778 49.1165 62.2786C49.1291 62.2802 49.1394 62.2817 49.1465 62.2849C49.1543 62.288 49.1591 62.292 49.1622 62.2967C49.1654 62.3014 49.1685 62.3069 49.1701 62.314L49.4339 63.2282L49.4362 63.2384L49.437 63.2282L49.7 62.3164C49.7008 62.3085 49.7039 62.3022 49.7079 62.2975C49.711 62.292 49.7173 62.288 49.7252 62.2849C49.7323 62.2817 49.7425 62.2802 49.7567 62.2786C49.7701 62.2778 49.7874 62.277 49.8087 62.277C49.8283 62.277 49.8441 62.2778 49.8559 62.2786C49.8677 62.2794 49.8772 62.281 49.8843 62.2849C49.8905 62.2872 49.8961 62.2912 49.8992 62.2951C49.9016 62.2998 49.9031 62.3054 49.9031 62.3124ZM51.0992 63.4187C51.0992 63.4258 51.0976 63.4313 51.0953 63.4361C51.0921 63.44 51.0866 63.4439 51.0795 63.4479C51.0724 63.4502 51.063 63.4526 51.0504 63.455C51.0386 63.4565 51.0244 63.4573 51.0071 63.4573C50.989 63.4573 50.9732 63.4565 50.9614 63.455C50.9496 63.4526 50.9402 63.4502 50.9331 63.4479C50.926 63.4439 50.9213 63.44 50.9189 63.4361C50.9165 63.4313 50.9157 63.4258 50.9157 63.4187V63.2731C50.852 63.3424 50.7906 63.3928 50.7291 63.4243C50.6677 63.4565 50.6055 63.4723 50.5425 63.4723C50.4693 63.4723 50.4071 63.4605 50.3567 63.4353C50.3063 63.4109 50.2654 63.3778 50.2346 63.3353C50.2039 63.2935 50.1811 63.2447 50.1677 63.1888C50.1543 63.1321 50.1472 63.0644 50.1472 62.9841V62.3148C50.1472 62.3085 50.1488 62.303 50.152 62.2983C50.1543 62.2943 50.1598 62.2904 50.1685 62.2865C50.1764 62.2825 50.1874 62.2802 50.2 62.2786C50.2134 62.2778 50.2291 62.277 50.2496 62.277C50.2693 62.277 50.285 62.2778 50.2984 62.2786C50.311 62.2802 50.3213 62.2825 50.3299 62.2865C50.337 62.2904 50.3425 62.2943 50.3457 62.2983C50.3496 62.303 50.3512 62.3085 50.3512 62.3148V62.9581C50.3512 63.0227 50.3559 63.0747 50.3654 63.1132C50.374 63.1518 50.3882 63.1849 50.4079 63.2124C50.4268 63.24 50.452 63.2613 50.4811 63.2762C50.5102 63.2912 50.5449 63.2991 50.5843 63.2991C50.6346 63.2991 50.685 63.281 50.7354 63.2447C50.7858 63.2093 50.8394 63.1565 50.8961 63.0872V62.3148C50.8961 62.3085 50.8969 62.303 50.9 62.2983C50.9032 62.2943 50.9087 62.2904 50.9165 62.2865C50.9244 62.2825 50.9354 62.2802 50.948 62.2786C50.9606 62.2778 50.9772 62.277 50.9976 62.277C51.0173 62.277 51.0331 62.2778 51.0465 62.2786C51.0591 62.2802 51.0701 62.2825 51.0772 62.2865C51.0843 62.2904 51.0898 62.2943 51.0937 62.2983C51.0976 62.303 51.0992 62.3085 51.0992 62.3148V63.4187ZM51.7 63.4684C51.7 63.5495 51.6937 63.6156 51.6819 63.666C51.6693 63.7156 51.6504 63.7581 51.6244 63.7928C51.5984 63.8266 51.5654 63.8526 51.5236 63.8699C51.4835 63.888 51.4339 63.8967 51.3764 63.8967C51.3504 63.8967 51.3283 63.8951 51.3094 63.892C51.2913 63.888 51.2772 63.8849 51.2677 63.881C51.2575 63.8762 51.2512 63.8723 51.2472 63.8668C51.2433 63.8613 51.2409 63.855 51.2394 63.8479C51.2378 63.8408 51.2362 63.8337 51.2362 63.8266C51.2354 63.8195 51.2354 63.8101 51.2354 63.7998C51.2354 63.7849 51.2362 63.7723 51.237 63.7613C51.2386 63.751 51.2409 63.7424 51.2433 63.7353C51.2465 63.729 51.2496 63.7243 51.2535 63.7219C51.2567 63.7187 51.2614 63.7172 51.2677 63.7172C51.2724 63.7172 51.2819 63.7187 51.2961 63.7203C51.3102 63.7227 51.3268 63.7235 51.3457 63.7235C51.3724 63.7235 51.3953 63.7195 51.4142 63.7109C51.4339 63.703 51.4488 63.6896 51.4614 63.6715C51.474 63.6534 51.4827 63.629 51.4882 63.5998C51.4937 63.5707 51.4968 63.5266 51.4968 63.4668V62.3148C51.4968 62.3093 51.4984 62.3038 51.5016 62.2991C51.5047 62.2943 51.5102 62.2904 51.5181 62.2865C51.526 62.2833 51.5362 62.2809 51.5496 62.2794C51.5622 62.2778 51.5787 62.277 51.5984 62.277C51.6181 62.277 51.6346 62.2778 51.6472 62.2794C51.6606 62.2809 51.6709 62.2833 51.6787 62.2865C51.6866 62.2904 51.6921 62.2943 51.6953 62.2991C51.6984 62.3038 51.7 62.3093 51.7 62.3148V63.4684ZM51.7228 61.9432C51.7228 61.9904 51.7142 62.0227 51.6961 62.04C51.678 62.0573 51.6449 62.066 51.5969 62.066C51.5488 62.066 51.5165 62.0573 51.5 62.0408C51.4827 62.0243 51.474 61.9928 51.474 61.9455C51.474 61.8983 51.4827 61.8652 51.5008 61.8487C51.5181 61.8313 51.5504 61.8227 51.5992 61.8227C51.6472 61.8227 51.6803 61.8306 51.6968 61.8479C51.7142 61.8644 51.7228 61.8959 51.7228 61.9432ZM53.0189 63.4187C53.0189 63.4258 53.0181 63.4313 53.015 63.4361C53.0126 63.44 53.0071 63.4439 52.9992 63.4479C52.9921 63.4502 52.9827 63.4526 52.9709 63.455C52.9591 63.4565 52.9441 63.4573 52.9276 63.4573C52.9087 63.4573 52.8929 63.4565 52.8819 63.455C52.8693 63.4526 52.8606 63.4502 52.8528 63.4479C52.8465 63.4439 52.8417 63.44 52.8394 63.4361C52.837 63.4313 52.8354 63.4258 52.8354 63.4187V63.2731C52.7724 63.3424 52.7102 63.3928 52.6488 63.4243C52.5882 63.4565 52.5252 63.4723 52.463 63.4723C52.389 63.4723 52.3268 63.4605 52.2772 63.4353C52.2268 63.4109 52.1858 63.3778 52.1543 63.3353C52.1236 63.2935 52.1016 63.2447 52.0874 63.1888C52.074 63.1321 52.0677 63.0644 52.0677 62.9841V62.3148C52.0677 62.3085 52.0693 62.303 52.0717 62.2983C52.0748 62.2943 52.0803 62.2904 52.0882 62.2865C52.0968 62.2825 52.1071 62.2802 52.1205 62.2786C52.1331 62.2778 52.1496 62.277 52.1693 62.277C52.189 62.277 52.2055 62.2778 52.2181 62.2786C52.2315 62.2802 52.2417 62.2825 52.2496 62.2865C52.2575 62.2904 52.263 62.2943 52.2661 62.2983C52.2693 62.303 52.2709 62.3085 52.2709 62.3148V62.9581C52.2709 63.0227 52.2756 63.0747 52.285 63.1132C52.2945 63.1518 52.3087 63.1849 52.3276 63.2124C52.3472 63.24 52.3717 63.2613 52.4008 63.2762C52.4307 63.2912 52.4646 63.2991 52.5039 63.2991C52.5543 63.2991 52.6055 63.281 52.6559 63.2447C52.7063 63.2093 52.7591 63.1565 52.8157 63.0872V62.3148C52.8157 62.3085 52.8173 62.303 52.8205 62.2983C52.8228 62.2943 52.8283 62.2904 52.837 62.2865C52.8449 62.2825 52.8551 62.2802 52.8677 62.2786C52.8811 62.2778 52.8968 62.277 52.9173 62.277C52.937 62.277 52.9535 62.2778 52.9669 62.2786C52.9795 62.2802 52.9898 62.2825 52.9968 62.2865C53.0047 62.2904 53.0102 62.2943 53.0142 62.2983C53.0173 62.303 53.0189 62.3085 53.0189 62.3148V63.4187ZM54.3386 63.4187C54.3386 63.4258 54.337 63.4313 54.3339 63.4361C54.3315 63.4416 54.326 63.4447 54.3197 63.4479C54.3126 63.451 54.3031 63.4526 54.2921 63.455C54.2803 63.4565 54.2661 63.4573 54.2504 63.4573C54.2331 63.4573 54.2189 63.4565 54.2071 63.455C54.1953 63.4526 54.1866 63.451 54.1787 63.4479C54.1717 63.4447 54.1661 63.4416 54.163 63.4361C54.1598 63.4313 54.1583 63.425 54.1583 63.4187V63.2723C54.1 63.3353 54.0402 63.3841 53.978 63.4195C53.915 63.455 53.8465 63.4723 53.7724 63.4723C53.6913 63.4723 53.622 63.4565 53.5654 63.425C53.5079 63.3935 53.4614 63.351 53.426 63.2975C53.3913 63.2439 53.3654 63.181 53.3488 63.1085C53.3323 63.0361 53.3236 62.9597 53.3236 62.8802C53.3236 62.7849 53.3339 62.6991 53.3543 62.6235C53.3748 62.5463 53.4047 62.481 53.4457 62.4274C53.485 62.3731 53.5346 62.3321 53.5945 62.303C53.6535 62.2739 53.7213 62.2597 53.7992 62.2597C53.8638 62.2597 53.9228 62.2739 53.9764 62.3014C54.0299 62.3306 54.0827 62.3715 54.1346 62.4266V61.7865C54.1346 61.7809 54.1362 61.7754 54.1394 61.7699C54.1425 61.7644 54.1472 61.7605 54.1559 61.7573C54.1638 61.755 54.174 61.7526 54.1866 61.7502C54.2 61.7479 54.2158 61.7471 54.2354 61.7471C54.2559 61.7471 54.2724 61.7479 54.2858 61.7502C54.2984 61.7526 54.3094 61.755 54.3165 61.7573C54.3236 61.7605 54.3291 61.7644 54.3331 61.7699C54.337 61.7754 54.3386 61.7809 54.3386 61.7865V63.4187ZM54.1346 62.6424C54.0803 62.5739 54.0276 62.5219 53.9772 62.4865C53.926 62.451 53.8724 62.4329 53.8173 62.4329C53.7661 62.4329 53.722 62.4447 53.6866 62.4699C53.6504 62.4943 53.6213 62.5266 53.5992 62.5668C53.5764 62.6061 53.5606 62.6518 53.5504 62.703C53.5402 62.7534 53.5346 62.8046 53.5346 62.8573C53.5346 62.9124 53.5394 62.9676 53.548 63.0203C53.5559 63.0731 53.5717 63.1203 53.5921 63.1621C53.6134 63.2038 53.6417 63.2369 53.6764 63.2621C53.7118 63.2865 53.7559 63.2991 53.8087 63.2991C53.8354 63.2991 53.8614 63.2951 53.8866 63.288C53.911 63.2809 53.937 63.2684 53.963 63.251C53.9882 63.2345 54.0165 63.2117 54.0449 63.1841C54.0732 63.1573 54.1031 63.1235 54.1346 63.0833V62.6424ZM55.6197 63.418C55.6197 63.4243 55.6181 63.4306 55.615 63.4353C55.6118 63.44 55.6063 63.4439 55.5984 63.4479C55.5906 63.4502 55.5795 63.4526 55.5661 63.455C55.552 63.4565 55.5346 63.4573 55.5134 63.4573C55.4913 63.4573 55.4732 63.4565 55.4591 63.4558C55.4449 63.4542 55.4323 63.4518 55.4228 63.4495C55.4126 63.4463 55.4047 63.4424 55.3992 63.4369C55.3929 63.4313 55.3874 63.425 55.3819 63.418L54.9165 62.8069V63.4187C54.9165 63.4258 54.915 63.4313 54.9118 63.4361C54.9087 63.44 54.9032 63.4439 54.8961 63.4479C54.8882 63.4502 54.878 63.4526 54.8646 63.455C54.852 63.4565 54.8354 63.4573 54.815 63.4573C54.7945 63.4573 54.778 63.4565 54.7654 63.455C54.752 63.4526 54.7417 63.4502 54.7339 63.4479C54.726 63.4439 54.7205 63.44 54.7173 63.4361C54.715 63.4313 54.7134 63.4258 54.7134 63.4187V61.7817C54.7134 61.7747 54.715 61.7691 54.7173 61.7644C54.7205 61.7597 54.726 61.755 54.7339 61.7518C54.7417 61.7487 54.752 61.7463 54.7654 61.7447C54.778 61.7432 54.7945 61.7424 54.815 61.7424C54.8354 61.7424 54.852 61.7432 54.8646 61.7447C54.878 61.7463 54.8882 61.7487 54.8961 61.7518C54.9032 61.755 54.9087 61.7597 54.9118 61.7644C54.915 61.7691 54.9165 61.7747 54.9165 61.7817V62.7786L55.3323 62.3203C55.3394 62.3117 55.3465 62.3054 55.3535 62.2998C55.3606 62.2943 55.3693 62.2904 55.3795 62.2865C55.3898 62.2825 55.4016 62.2802 55.4157 62.2786C55.4291 62.2778 55.4465 62.277 55.4661 62.277C55.4866 62.277 55.5031 62.2778 55.5173 62.2786C55.5307 62.2802 55.5425 62.2817 55.5504 62.2849C55.5591 62.288 55.5654 62.292 55.5693 62.2959C55.5732 62.3006 55.5748 62.3061 55.5748 62.314C55.5748 62.3235 55.5724 62.3337 55.5669 62.3432C55.5614 62.3534 55.5528 62.3644 55.5402 62.3778L55.1425 62.7778L55.5905 63.3597C55.6008 63.3747 55.6087 63.3849 55.6134 63.3943C55.6181 63.403 55.6197 63.4109 55.6197 63.418ZM56.6433 63.4203C56.6433 63.4298 56.6394 63.4376 56.6339 63.4424C56.6268 63.4479 56.6181 63.451 56.6063 63.4534C56.5953 63.4558 56.578 63.4573 56.5559 63.4573C56.5354 63.4573 56.5181 63.4558 56.5055 63.4534C56.4929 63.451 56.4835 63.4479 56.478 63.4424C56.4717 63.4376 56.4693 63.4306 56.4693 63.4203V63.3101C56.4205 63.3613 56.3669 63.4014 56.3079 63.4298C56.2488 63.4581 56.1858 63.4723 56.1197 63.4723C56.0614 63.4723 56.0087 63.4644 55.9622 63.4495C55.915 63.4345 55.8748 63.4124 55.8417 63.3841C55.8087 63.3558 55.7827 63.3203 55.7646 63.2786C55.7457 63.2369 55.737 63.1896 55.737 63.1361C55.737 63.0739 55.7488 63.0195 55.7748 62.9739C55.8 62.9282 55.8362 62.8904 55.8843 62.8597C55.9315 62.8298 55.9898 62.8069 56.0583 62.792C56.1268 62.777 56.2039 62.7691 56.2898 62.7691H56.4425V62.6833C56.4425 62.6408 56.4378 62.603 56.4291 62.5699C56.4197 62.5376 56.4055 62.5101 56.385 62.488C56.3654 62.4668 56.3394 62.4502 56.3079 62.4392C56.2756 62.4282 56.2362 62.4227 56.1898 62.4227C56.1402 62.4227 56.0953 62.4282 56.0559 62.4408C56.0165 62.4526 55.9811 62.466 55.952 62.4802C55.922 62.4951 55.8968 62.5077 55.8772 62.5203C55.8575 62.5321 55.8417 62.5384 55.8323 62.5384C55.826 62.5384 55.8197 62.5369 55.815 62.5329C55.8102 62.5306 55.8063 62.525 55.8024 62.5187C55.7984 62.5124 55.7961 62.5038 55.7945 62.4935C55.7929 62.4833 55.7921 62.4723 55.7921 62.4597C55.7921 62.44 55.7929 62.4235 55.7961 62.4117C55.7992 62.3998 55.8063 62.3888 55.8173 62.3786C55.8276 62.3676 55.8472 62.355 55.874 62.3408C55.9008 62.3266 55.9323 62.3132 55.9669 62.3006C56.0016 62.2888 56.0402 62.2794 56.0819 62.2715C56.1236 62.2628 56.1661 62.2597 56.2079 62.2597C56.2874 62.2597 56.3551 62.2684 56.4102 62.2865C56.4661 62.3046 56.511 62.3313 56.5449 62.366C56.5795 62.4006 56.6039 62.4439 56.6197 62.4951C56.6354 62.5463 56.6433 62.6069 56.6433 62.6754V63.4203ZM56.4425 62.9148H56.2693C56.2142 62.9148 56.1661 62.9195 56.1252 62.929C56.0843 62.9384 56.0504 62.9526 56.0236 62.9707C55.9968 62.9896 55.9772 63.0109 55.9638 63.0369C55.9512 63.0628 55.9449 63.0928 55.9449 63.1258C55.9449 63.1833 55.963 63.229 55.9992 63.2628C56.0362 63.2967 56.0866 63.314 56.152 63.314C56.2047 63.314 56.2543 63.3006 56.2992 63.2739C56.3449 63.2471 56.3921 63.2054 56.4425 63.1495V62.9148ZM57.9638 63.4187C57.9638 63.4258 57.9622 63.4313 57.9591 63.4361C57.9551 63.44 57.9504 63.4439 57.9433 63.4479C57.9354 63.4502 57.9252 63.4526 57.9118 63.455C57.8992 63.4565 57.8827 63.4573 57.863 63.4573C57.8417 63.4573 57.8252 63.4565 57.8126 63.455C57.7992 63.4526 57.789 63.4502 57.7811 63.4479C57.774 63.4439 57.7685 63.44 57.7654 63.4361C57.7622 63.4313 57.7606 63.4258 57.7606 63.4187V62.7723C57.7606 62.7101 57.7551 62.6589 57.7457 62.6203C57.7362 62.5817 57.722 62.5495 57.7031 62.5211C57.6842 62.4935 57.6606 62.4723 57.6307 62.4573C57.6008 62.4432 57.5669 62.4353 57.5276 62.4353C57.4772 62.4353 57.4268 62.4534 57.3764 62.4888C57.326 62.525 57.2732 62.5778 57.2181 62.6471V63.4187C57.2181 63.4258 57.2165 63.4313 57.2134 63.4361C57.2094 63.44 57.2047 63.4439 57.1968 63.4479C57.1898 63.4502 57.1795 63.4526 57.1661 63.455C57.1535 63.4565 57.1362 63.4573 57.1157 63.4573C57.0961 63.4573 57.0795 63.4565 57.0669 63.455C57.0535 63.4526 57.0425 63.4502 57.0354 63.4479C57.0276 63.4439 57.022 63.44 57.0189 63.4361C57.0157 63.4313 57.015 63.4258 57.015 63.4187V62.3148C57.015 62.3085 57.0157 62.303 57.0189 62.2983C57.0213 62.2943 57.0252 62.2904 57.0331 62.2865C57.0409 62.2825 57.0496 62.2802 57.0614 62.2786C57.0732 62.2778 57.0882 62.277 57.1071 62.277C57.1252 62.277 57.1402 62.2778 57.152 62.2786C57.1638 62.2802 57.1732 62.2825 57.1803 62.2865C57.1866 62.2904 57.1913 62.2943 57.1945 62.2983C57.1968 62.303 57.1984 62.3085 57.1984 62.3148V62.4613C57.2606 62.3912 57.322 62.34 57.3843 62.3077C57.4457 62.2754 57.5071 62.2597 57.5701 62.2597C57.6433 62.2597 57.7055 62.2723 57.7551 62.2967C57.8055 62.3219 57.8465 62.355 57.8772 62.3967C57.9079 62.4384 57.9307 62.4873 57.9441 62.5439C57.9575 62.5998 57.9638 62.6668 57.9638 62.7455V63.4187ZM59.8079 63.418C59.8079 63.4243 59.8063 63.4306 59.8031 63.4353C59.7992 63.44 59.7937 63.4439 59.7866 63.4479C59.7787 63.4502 59.7677 63.4526 59.7535 63.455C59.7402 63.4565 59.722 63.4573 59.7008 63.4573C59.6795 63.4573 59.6606 63.4565 59.6465 63.4558C59.6323 63.4542 59.6205 63.4518 59.611 63.4495C59.6008 63.4463 59.5929 63.4424 59.5866 63.4369C59.5803 63.4313 59.5748 63.425 59.5701 63.418L59.1047 62.8069V63.4187C59.1047 63.4258 59.1031 63.4313 59.1 63.4361C59.0961 63.44 59.0913 63.4439 59.0835 63.4479C59.0764 63.4502 59.0661 63.4526 59.0528 63.455C59.0402 63.4565 59.0228 63.4573 59.0024 63.4573C58.9827 63.4573 58.9661 63.4565 58.9535 63.455C58.9402 63.4526 58.9291 63.4502 58.922 63.4479C58.9142 63.4439 58.9087 63.44 58.9055 63.4361C58.9024 63.4313 58.9016 63.4258 58.9016 63.4187V61.7817C58.9016 61.7747 58.9024 61.7691 58.9055 61.7644C58.9087 61.7597 58.9142 61.755 58.922 61.7518C58.9291 61.7487 58.9402 61.7463 58.9535 61.7447C58.9661 61.7432 58.9827 61.7424 59.0024 61.7424C59.0228 61.7424 59.0402 61.7432 59.0528 61.7447C59.0661 61.7463 59.0764 61.7487 59.0835 61.7518C59.0913 61.755 59.0961 61.7597 59.1 61.7644C59.1031 61.7691 59.1047 61.7747 59.1047 61.7817V62.7786L59.5205 62.3203C59.5268 62.3117 59.5339 62.3054 59.5409 62.2998C59.5488 62.2943 59.5575 62.2904 59.5677 62.2865C59.578 62.2825 59.5898 62.2802 59.6039 62.2786C59.6173 62.2778 59.6339 62.277 59.6535 62.277C59.674 62.277 59.6913 62.2778 59.7055 62.2786C59.7189 62.2802 59.7307 62.2817 59.7386 62.2849C59.7472 62.288 59.7535 62.292 59.7575 62.2959C59.7606 62.3006 59.763 62.3061 59.763 62.314C59.763 62.3235 59.7598 62.3337 59.7543 62.3432C59.7496 62.3534 59.7409 62.3644 59.7283 62.3778L59.3307 62.7778L59.7787 63.3597C59.789 63.3747 59.7969 63.3849 59.8008 63.3943C59.8055 63.403 59.8079 63.4109 59.8079 63.418ZM60.9008 62.8187C60.9008 62.851 60.8929 62.8731 60.8772 62.8872C60.8614 62.9006 60.8425 62.9069 60.822 62.9069H60.0976C60.0976 62.9691 60.1039 63.0243 60.1157 63.0731C60.1283 63.1227 60.1488 63.1644 60.1772 63.1998C60.2055 63.2353 60.2433 63.2621 60.289 63.281C60.3346 63.2991 60.3906 63.3093 60.4567 63.3093C60.5095 63.3093 60.5559 63.3046 60.5968 63.2959C60.6378 63.288 60.6732 63.2778 60.7032 63.2676C60.7331 63.2573 60.7575 63.2479 60.7764 63.2392C60.7961 63.2306 60.8102 63.2258 60.8205 63.2258C60.826 63.2258 60.8307 63.2274 60.8354 63.2306C60.8394 63.2329 60.8433 63.2376 60.8457 63.2432C60.848 63.2487 60.8504 63.2565 60.8512 63.2668C60.8528 63.277 60.8535 63.2896 60.8535 63.3038C60.8535 63.3148 60.8528 63.3235 60.852 63.3313C60.8512 63.3392 60.8504 63.3463 60.8488 63.3518C60.848 63.3581 60.8457 63.3636 60.8425 63.3691C60.8394 63.3739 60.8362 63.3778 60.8315 63.3825C60.8276 63.3872 60.8142 63.3943 60.7921 63.4046C60.7701 63.4148 60.7417 63.4243 60.7063 63.4345C60.6709 63.4439 60.6307 63.4526 60.5843 63.4605C60.5386 63.4684 60.4898 63.4723 60.437 63.4723C60.3465 63.4723 60.2669 63.4597 60.1992 63.4345C60.1307 63.4093 60.0732 63.3715 60.0268 63.3219C59.9803 63.2715 59.9457 63.2093 59.922 63.1337C59.8984 63.0589 59.8866 62.9715 59.8866 62.8715C59.8866 62.777 59.8984 62.6912 59.9236 62.6156C59.9472 62.54 59.9835 62.4754 60.0291 62.4235C60.0756 62.3707 60.1315 62.3306 60.1968 62.3014C60.2622 62.2739 60.3354 62.2597 60.4157 62.2597C60.5024 62.2597 60.5764 62.2731 60.637 62.3014C60.6976 62.329 60.748 62.3668 60.7874 62.4132C60.826 62.4605 60.8551 62.5156 60.8732 62.5794C60.8913 62.6424 60.9008 62.7101 60.9008 62.7817V62.8187ZM60.6976 62.7589C60.7 62.6526 60.6764 62.5691 60.6268 62.5085C60.5772 62.4479 60.5039 62.418 60.4063 62.418C60.3559 62.418 60.3118 62.4266 60.2748 62.4455C60.237 62.4644 60.2055 62.4896 60.1795 62.5211C60.1543 62.5518 60.1346 62.588 60.1205 62.6298C60.1071 62.6707 60.0992 62.714 60.0976 62.7589H60.6976ZM62.2252 62.8518C62.2252 62.9471 62.215 63.0329 62.1937 63.1101C62.1732 63.1865 62.1433 63.2518 62.1024 63.3054C62.0622 63.3589 62.0126 63.4006 61.9535 63.429C61.8953 63.4581 61.8276 63.4723 61.752 63.4723C61.7173 63.4723 61.6842 63.4691 61.6543 63.4621C61.6252 63.455 61.5953 63.4439 61.5669 63.4282C61.5386 63.4124 61.5102 63.3935 61.4811 63.3691C61.4528 63.3455 61.4228 63.3172 61.3906 63.2833V63.4187C61.3906 63.425 61.389 63.4313 61.3858 63.4361C61.3827 63.4416 61.3772 63.4447 61.3701 63.4479C61.3622 63.451 61.3535 63.4526 61.3425 63.455C61.3315 63.4565 61.3165 63.4573 61.3 63.4573C61.2835 63.4573 61.2693 63.4565 61.2575 63.455C61.2465 63.4526 61.237 63.451 61.2291 63.4479C61.222 63.4447 61.2173 63.4416 61.215 63.4361C61.2126 63.4313 61.211 63.4258 61.211 63.4187V61.7817C61.211 61.7747 61.2126 61.7691 61.215 61.7644C61.2181 61.7597 61.2236 61.755 61.2315 61.7518C61.2394 61.7487 61.2496 61.7463 61.263 61.7447C61.2756 61.7432 61.2921 61.7424 61.3126 61.7424C61.3331 61.7424 61.3496 61.7432 61.3622 61.7447C61.3756 61.7463 61.3858 61.7487 61.3937 61.7518C61.4008 61.755 61.4063 61.7597 61.4094 61.7644C61.4126 61.7691 61.4142 61.7747 61.4142 61.7817V62.4408C61.4472 62.4077 61.4787 62.3794 61.5094 62.3558C61.5402 62.3337 61.5693 62.3148 61.5992 62.3006C61.6283 62.2865 61.6583 62.2754 61.6874 62.2691C61.7165 62.2628 61.7472 62.2597 61.7803 62.2597C61.8598 62.2597 61.9283 62.2754 61.985 62.3069C62.0417 62.3392 62.0874 62.3817 62.1236 62.4353C62.1591 62.4888 62.185 62.5518 62.2008 62.6235C62.2173 62.6959 62.2252 62.7715 62.2252 62.8518ZM62.0142 62.8754C62.0142 62.8187 62.0102 62.7636 62.0016 62.7109C61.9929 62.6573 61.978 62.6101 61.9567 62.5691C61.9354 62.5282 61.9071 62.4951 61.8724 62.4707C61.837 62.4455 61.7929 62.4329 61.7409 62.4329C61.715 62.4329 61.689 62.4369 61.663 62.4439C61.6386 62.451 61.6126 62.4636 61.5866 62.4809C61.5598 62.4983 61.5331 62.5203 61.5047 62.5471C61.4764 62.5739 61.4465 62.6085 61.4142 62.6495V63.0896C61.4701 63.1581 61.5236 63.2101 61.574 63.2455C61.6244 63.281 61.6779 63.2991 61.7323 63.2991C61.7827 63.2991 61.826 63.2872 61.8622 63.2621C61.8984 63.2376 61.9276 63.2046 61.9504 63.1644C61.9724 63.1243 61.989 63.0786 61.9992 63.0282C62.0094 62.9778 62.0142 62.9266 62.0142 62.8754ZM63.4693 62.8187C63.4693 62.851 63.4614 62.8731 63.4457 62.8872C63.4291 62.9006 63.411 62.9069 63.3905 62.9069H62.6654C62.6654 62.9691 62.6717 63.0243 62.6842 63.0731C62.6961 63.1227 62.7165 63.1644 62.7457 63.1998C62.774 63.2353 62.811 63.2621 62.8567 63.281C62.9031 63.2991 62.9591 63.3093 63.0252 63.3093C63.0772 63.3093 63.1244 63.3046 63.1654 63.2959C63.2063 63.288 63.2417 63.2778 63.2717 63.2676C63.3008 63.2573 63.326 63.2479 63.3449 63.2392C63.3646 63.2306 63.3787 63.2258 63.3882 63.2258C63.3945 63.2258 63.3992 63.2274 63.4039 63.2306C63.4079 63.2329 63.4118 63.2376 63.4142 63.2432C63.4165 63.2487 63.4189 63.2565 63.4197 63.2668C63.4213 63.277 63.4213 63.2896 63.4213 63.3038C63.4213 63.3148 63.4213 63.3235 63.4205 63.3313C63.4197 63.3392 63.4189 63.3463 63.4173 63.3518C63.4157 63.3581 63.4142 63.3636 63.411 63.3691C63.4079 63.3739 63.4047 63.3778 63.4 63.3825C63.3953 63.3872 63.3819 63.3943 63.3606 63.4046C63.3378 63.4148 63.3094 63.4243 63.2748 63.4345C63.2394 63.4439 63.1992 63.4526 63.1528 63.4605C63.1071 63.4684 63.0575 63.4723 63.0055 63.4723C62.915 63.4723 62.8354 63.4597 62.7677 63.4345C62.6992 63.4093 62.6417 63.3715 62.5953 63.3219C62.5488 63.2715 62.5142 63.2093 62.4905 63.1337C62.4669 63.0589 62.4551 62.9715 62.4551 62.8715C62.4551 62.777 62.4669 62.6912 62.4913 62.6156C62.5157 62.54 62.5512 62.4754 62.5976 62.4235C62.6433 62.3707 62.6992 62.3306 62.7646 62.3014C62.8299 62.2739 62.9032 62.2597 62.9843 62.2597C63.0709 62.2597 63.1441 62.2731 63.2047 62.3014C63.2661 62.329 63.3157 62.3668 63.3551 62.4132C63.3945 62.4605 63.4228 62.5156 63.4417 62.5794C63.4598 62.6424 63.4693 62.7101 63.4693 62.7817V62.8187ZM63.2661 62.7589C63.2685 62.6526 63.2449 62.5691 63.1953 62.5085C63.1457 62.4479 63.0724 62.418 62.9748 62.418C62.9244 62.418 62.8803 62.4266 62.8425 62.4455C62.8047 62.4644 62.774 62.4896 62.748 62.5211C62.7228 62.5518 62.7031 62.588 62.689 62.6298C62.6756 62.6707 62.6669 62.714 62.6654 62.7589H63.2661Z" fill="#0383B0"/>
<path fill-rule="evenodd" clip-rule="evenodd" d="M64.4244 62.3865C64.4244 62.4046 64.4244 62.4195 64.4236 62.4321C64.4228 62.4439 64.4205 62.4534 64.4181 62.4605C64.4165 62.4676 64.4126 62.4731 64.4087 62.477C64.4055 62.4802 64.4008 62.4817 64.3937 62.4817C64.3874 62.4817 64.3795 62.4802 64.3701 62.477C64.3606 62.4731 64.3504 62.4691 64.3386 62.466C64.3268 62.4621 64.3134 62.4589 64.2984 62.455C64.2843 62.4518 64.2677 62.4502 64.2512 62.4502C64.2307 62.4502 64.2102 62.4542 64.1906 62.4621C64.1717 62.4707 64.1504 62.4841 64.1291 62.5038C64.1071 62.5227 64.085 62.5471 64.0606 62.5786C64.0378 62.6101 64.011 62.6479 63.9827 62.6928V63.4187C63.9827 63.4258 63.9811 63.4313 63.978 63.4361C63.974 63.44 63.9693 63.4439 63.9614 63.4479C63.9543 63.4502 63.9441 63.4526 63.9307 63.455C63.9181 63.4565 63.9008 63.4573 63.8803 63.4573C63.8606 63.4573 63.8441 63.4565 63.8315 63.455C63.8181 63.4526 63.8071 63.4502 63.8 63.4479C63.7921 63.4439 63.7866 63.44 63.7835 63.4361C63.7803 63.4313 63.7795 63.4258 63.7795 63.4187V62.3148C63.7795 62.3085 63.7803 62.303 63.7827 62.2983C63.7858 62.2943 63.7906 62.2904 63.7976 62.2865C63.8055 62.2825 63.8142 62.2802 63.826 62.2786C63.8378 62.2778 63.8528 62.277 63.8717 62.277C63.8898 62.277 63.9047 62.2778 63.9165 62.2786C63.9283 62.2802 63.9378 62.2825 63.9449 62.2865C63.9512 62.2904 63.9559 62.2943 63.9591 62.2983C63.9614 62.303 63.963 62.3085 63.963 62.3148V62.4754C63.9929 62.4313 64.0213 62.3951 64.048 62.3676C64.0748 62.34 64.1 62.318 64.1236 62.3014C64.1472 62.2857 64.1709 62.2747 64.1937 62.2684C64.2173 62.2621 64.2402 62.2597 64.2646 62.2597C64.2748 62.2597 64.2866 62.2597 64.3 62.2613C64.3134 62.2621 64.3276 62.2652 64.3425 62.2676C64.3575 62.2715 64.3709 62.2747 64.3819 62.2794C64.3937 62.2833 64.4024 62.2872 64.4071 62.2912C64.4126 62.2951 64.4157 62.2991 64.4173 62.303C64.4189 62.3069 64.4205 62.3117 64.422 62.3172C64.4228 62.3227 64.4236 62.3313 64.4244 62.3416C64.4244 62.3534 64.4244 62.3676 64.4244 62.3865ZM65.3047 63.118C65.3047 63.1747 65.2945 63.2243 65.2732 63.2691C65.2528 63.3124 65.2228 63.3502 65.1843 63.3802C65.1465 63.4101 65.1008 63.4337 65.0472 63.4487C64.9945 63.4644 64.9354 63.4723 64.8717 63.4723C64.8323 63.4723 64.7953 63.4691 64.7598 63.4628C64.7244 63.4573 64.6921 63.4495 64.6638 63.44C64.6362 63.4306 64.6118 63.4211 64.5921 63.4109C64.5724 63.4014 64.5583 63.392 64.5496 63.3841C64.5402 63.3762 64.5339 63.3644 64.5299 63.3495C64.526 63.3353 64.5236 63.3148 64.5236 63.2896C64.5236 63.2739 64.5244 63.2613 64.526 63.2502C64.5283 63.24 64.5299 63.2313 64.5323 63.2243C64.5346 63.218 64.5386 63.2132 64.5425 63.2101C64.5472 63.2077 64.552 63.2061 64.5583 63.2061C64.5669 63.2061 64.5803 63.2117 64.5976 63.2227C64.6157 63.2337 64.637 63.2455 64.663 63.2589C64.6882 63.2715 64.7189 63.2841 64.7543 63.2951C64.789 63.3061 64.8291 63.3117 64.8748 63.3117C64.9095 63.3117 64.9402 63.3077 64.9677 63.3006C64.9961 63.2935 65.0197 63.2825 65.0402 63.2676C65.0606 63.2534 65.0764 63.2353 65.0874 63.2124C65.0984 63.1904 65.1039 63.1644 65.1039 63.1337C65.1039 63.103 65.0961 63.0762 65.0795 63.0558C65.0638 63.0337 65.0433 63.0156 65.0173 62.9991C64.9906 62.9825 64.9614 62.9684 64.9291 62.9558C64.8961 62.9432 64.863 62.9298 64.8283 62.9156C64.7937 62.9014 64.7598 62.8857 64.7268 62.8684C64.6937 62.851 64.6646 62.8298 64.6378 62.8038C64.6118 62.7786 64.5913 62.7487 64.5756 62.7132C64.5591 62.6778 64.5512 62.6361 64.5512 62.5865C64.5512 62.5439 64.5598 62.5022 64.5764 62.4621C64.5929 62.4227 64.6181 62.388 64.652 62.3581C64.6858 62.3282 64.7276 62.3046 64.778 62.2865C64.8283 62.2684 64.8866 62.2597 64.9543 62.2597C64.9835 62.2597 65.0126 62.2621 65.0425 62.2668C65.0717 62.2723 65.0976 62.2786 65.122 62.2865C65.1457 62.2935 65.1654 62.3022 65.1827 62.3109C65.1992 62.3203 65.2126 62.3274 65.2205 62.3345C65.2291 62.3416 65.2346 62.3471 65.2378 62.3518C65.2409 62.3573 65.2425 62.3621 65.2441 62.3684C65.2449 62.3747 65.2465 62.3817 65.248 62.3912C65.2488 62.3998 65.2496 62.4109 65.2496 62.4243C65.2496 62.4376 65.2488 62.4502 65.248 62.4597C65.2465 62.4699 65.2441 62.4786 65.2417 62.4849C65.2386 62.4912 65.2354 62.4959 65.2315 62.4991C65.2268 62.5014 65.222 62.503 65.2173 62.503C65.2102 62.503 65.2 62.4983 65.1858 62.4888C65.1717 62.4802 65.1535 62.4707 65.1315 62.4605C65.1094 62.4502 65.0835 62.44 65.0535 62.4313C65.0236 62.4219 64.9898 62.418 64.9512 62.418C64.9165 62.418 64.8858 62.4211 64.8606 62.4298C64.8339 62.4369 64.8126 62.4479 64.7961 62.4621C64.7787 62.4762 64.7661 62.4928 64.7575 62.5124C64.7488 62.5321 64.7449 62.5534 64.7449 62.5762C64.7449 62.6077 64.7528 62.6345 64.7693 62.6565C64.7858 62.6778 64.8063 62.6967 64.8331 62.7132C64.8591 62.7298 64.889 62.7439 64.9228 62.7573C64.9559 62.7707 64.9898 62.7841 65.0244 62.7975C65.0591 62.8117 65.0937 62.8274 65.1276 62.8447C65.1614 62.8613 65.1913 62.8825 65.2173 62.9069C65.2441 62.9313 65.2646 62.9605 65.2811 62.9951C65.2968 63.0298 65.3047 63.0707 65.3047 63.118ZM66.4252 63.4203C66.4252 63.4298 66.422 63.4376 66.4157 63.4424C66.4087 63.4479 66.4 63.451 66.3882 63.4534C66.3772 63.4558 66.3598 63.4573 66.3378 63.4573C66.3173 63.4573 66.3 63.4558 66.2874 63.4534C66.2748 63.451 66.2654 63.4479 66.2598 63.4424C66.2535 63.4376 66.2512 63.4306 66.2512 63.4203V63.3101C66.2031 63.3613 66.1496 63.4014 66.0898 63.4298C66.0307 63.4581 65.9677 63.4723 65.9016 63.4723C65.8433 63.4723 65.7906 63.4644 65.7441 63.4495C65.6969 63.4345 65.6567 63.4124 65.6236 63.3841C65.5906 63.3558 65.5646 63.3203 65.5465 63.2786C65.5276 63.2369 65.5189 63.1896 65.5189 63.1361C65.5189 63.0739 65.5307 63.0195 65.5567 62.9739C65.5819 62.9282 65.6181 62.8904 65.6661 62.8597C65.7134 62.8298 65.7717 62.8069 65.8402 62.792C65.9087 62.777 65.9858 62.7691 66.0717 62.7691H66.2244V62.6833C66.2244 62.6408 66.2197 62.603 66.211 62.5699C66.2016 62.5376 66.1874 62.5101 66.1669 62.488C66.1472 62.4668 66.1213 62.4502 66.0898 62.4392C66.0575 62.4282 66.0181 62.4227 65.9717 62.4227C65.922 62.4227 65.8772 62.4282 65.8378 62.4408C65.7984 62.4526 65.7638 62.466 65.7339 62.4802C65.7039 62.4951 65.6787 62.5077 65.6591 62.5203C65.6394 62.5321 65.6236 62.5384 65.6142 62.5384C65.6079 62.5384 65.6016 62.5369 65.5969 62.5329C65.5921 62.5306 65.5882 62.525 65.5843 62.5187C65.5803 62.5124 65.578 62.5038 65.5764 62.4935C65.5748 62.4833 65.574 62.4723 65.574 62.4597C65.574 62.44 65.5748 62.4235 65.578 62.4117C65.5811 62.3998 65.5882 62.3888 65.5992 62.3786C65.6102 62.3676 65.6291 62.355 65.6559 62.3408C65.6827 62.3266 65.7142 62.3132 65.7488 62.3006C65.7835 62.2888 65.822 62.2794 65.8646 62.2715C65.9055 62.2628 65.948 62.2597 65.9906 62.2597C66.0693 62.2597 66.137 62.2684 66.1921 62.2865C66.248 62.3046 66.2929 62.3313 66.3268 62.366C66.3614 62.4006 66.3858 62.4439 66.4016 62.4951C66.4173 62.5463 66.4252 62.6069 66.4252 62.6754V63.4203ZM66.2244 62.9148H66.0512C65.9961 62.9148 65.948 62.9195 65.9071 62.929C65.8661 62.9384 65.8323 62.9526 65.8055 62.9707C65.7787 62.9896 65.7591 63.0109 65.7457 63.0369C65.7331 63.0628 65.7268 63.0928 65.7268 63.1258C65.7268 63.1833 65.7449 63.229 65.7811 63.2628C65.8181 63.2967 65.8685 63.314 65.9339 63.314C65.9866 63.314 66.0362 63.3006 66.0819 63.2739C66.1268 63.2471 66.174 63.2054 66.2244 63.1495V62.9148ZM68.4339 63.4187C68.4339 63.4258 68.4323 63.4313 68.4291 63.4361C68.4252 63.44 68.4205 63.4439 68.4126 63.4479C68.4055 63.4502 68.3953 63.4526 68.3827 63.455C68.3693 63.4565 68.3528 63.4573 68.3331 63.4573C68.3126 63.4573 68.2961 63.4565 68.2835 63.455C68.2701 63.4526 68.2598 63.4502 68.252 63.4479C68.2441 63.4439 68.2386 63.44 68.2354 63.4361C68.2323 63.4313 68.2307 63.4258 68.2307 63.4187V62.7487C68.2307 62.7014 68.226 62.6589 68.2181 62.6203C68.2102 62.5817 68.1968 62.5495 68.1787 62.5211C68.1606 62.4935 68.1386 62.4723 68.111 62.4573C68.0835 62.4432 68.0504 62.4353 68.0126 62.4353C67.9661 62.4353 67.9197 62.4534 67.8732 62.4888C67.826 62.525 67.774 62.5778 67.7181 62.6471V63.4187C67.7181 63.4258 67.7165 63.4313 67.7134 63.4361C67.7094 63.44 67.7039 63.4439 67.6961 63.4479C67.689 63.4502 67.6787 63.4526 67.6654 63.455C67.652 63.4565 67.6354 63.4573 67.6157 63.4573C67.5969 63.4573 67.5811 63.4565 67.5669 63.455C67.5535 63.4526 67.5425 63.4502 67.5354 63.4479C67.5276 63.4439 67.522 63.44 67.5189 63.4361C67.5157 63.4313 67.515 63.4258 67.515 63.4187V62.7487C67.515 62.7014 67.5102 62.6589 67.5016 62.6203C67.4921 62.5817 67.4787 62.5495 67.4606 62.5211C67.4425 62.4935 67.4205 62.4723 67.3929 62.4573C67.3654 62.4432 67.3331 62.4353 67.2953 62.4353C67.2488 62.4353 67.2016 62.4534 67.1543 62.4888C67.1071 62.525 67.0559 62.5778 67 62.6471V63.4187C67 63.4258 66.9984 63.4313 66.9953 63.4361C66.9913 63.44 66.9866 63.4439 66.9795 63.4479C66.9717 63.4502 66.9614 63.4526 66.948 63.455C66.9354 63.4565 66.9181 63.4573 66.8976 63.4573C66.878 63.4573 66.8614 63.4565 66.8488 63.455C66.8354 63.4526 66.8244 63.4502 66.8173 63.4479C66.8094 63.4439 66.8039 63.44 66.8008 63.4361C66.7976 63.4313 66.7968 63.4258 66.7968 63.4187V62.3148C66.7968 62.3085 66.7976 62.303 66.8008 62.2983C66.8031 62.2943 66.8079 62.2904 66.815 62.2865C66.8228 62.2825 66.8315 62.2802 66.8433 62.2786C66.8551 62.2778 66.8701 62.277 66.889 62.277C66.9071 62.277 66.922 62.2778 66.9339 62.2786C66.9465 62.2802 66.9551 62.2825 66.9622 62.2865C66.9685 62.2904 66.9732 62.2943 66.9764 62.2983C66.9787 62.303 66.9803 62.3085 66.9803 62.3148V62.4613C67.0425 62.3912 67.1031 62.34 67.1614 62.3077C67.2197 62.2754 67.2795 62.2597 67.3386 62.2597C67.385 62.2597 67.426 62.2652 67.4622 62.2754C67.4984 62.2865 67.5307 62.3006 67.5583 62.3203C67.5866 62.3392 67.6102 62.3621 67.6291 62.3896C67.6488 62.4156 67.6654 62.4455 67.6787 62.4786C67.7157 62.4384 67.7504 62.4046 67.7835 62.3762C67.8165 62.3479 67.848 62.3258 67.8787 62.3085C67.9094 62.2912 67.9394 62.2786 67.9677 62.2715C67.9976 62.2628 68.026 62.2597 68.0559 62.2597C68.1268 62.2597 68.1858 62.2723 68.2339 62.2967C68.2827 62.3219 68.3213 62.355 68.3512 62.3967C68.3811 62.4384 68.4024 62.4873 68.415 62.5439C68.4276 62.5998 68.4339 62.6589 68.4339 62.7211V63.4187ZM69.6339 63.4203C69.6339 63.4298 69.6299 63.4376 69.6244 63.4424C69.6173 63.4479 69.6087 63.451 69.5968 63.4534C69.5858 63.4558 69.5685 63.4573 69.5465 63.4573C69.526 63.4573 69.5087 63.4558 69.4961 63.4534C69.4835 63.451 69.474 63.4479 69.4685 63.4424C69.4622 63.4376 69.4598 63.4306 69.4598 63.4203V63.3101C69.411 63.3613 69.3575 63.4014 69.2984 63.4298C69.2386 63.4581 69.1764 63.4723 69.1102 63.4723C69.052 63.4723 68.9992 63.4644 68.9528 63.4495C68.9055 63.4345 68.8654 63.4124 68.8323 63.3841C68.7992 63.3558 68.7732 63.3203 68.7551 63.2786C68.7362 63.2369 68.7276 63.1896 68.7276 63.1361C68.7276 63.0739 68.7394 63.0195 68.7654 62.9739C68.7906 62.9282 68.8268 62.8904 68.8748 62.8597C68.922 62.8298 68.9803 62.8069 69.0488 62.792C69.1173 62.777 69.1945 62.7691 69.2803 62.7691H69.4331V62.6833C69.4331 62.6408 69.4283 62.603 69.4189 62.5699C69.4102 62.5376 69.3961 62.5101 69.3756 62.488C69.3559 62.4668 69.3299 62.4502 69.2976 62.4392C69.2661 62.4282 69.2268 62.4227 69.1803 62.4227C69.1307 62.4227 69.0858 62.4282 69.0465 62.4408C69.0071 62.4526 68.9717 62.466 68.9425 62.4802C68.9126 62.4951 68.8874 62.5077 68.8677 62.5203C68.848 62.5321 68.8323 62.5384 68.8228 62.5384C68.8165 62.5384 68.8102 62.5369 68.8055 62.5329C68.8008 62.5306 68.7969 62.525 68.7929 62.5187C68.789 62.5124 68.7866 62.5038 68.785 62.4935C68.7835 62.4833 68.7827 62.4723 68.7827 62.4597C68.7827 62.44 68.7835 62.4235 68.7866 62.4117C68.7898 62.3998 68.7969 62.3888 68.8079 62.3786C68.8181 62.3676 68.8378 62.355 68.8646 62.3408C68.8913 62.3266 68.9228 62.3132 68.9575 62.3006C68.9921 62.2888 69.0307 62.2794 69.0724 62.2715C69.1142 62.2628 69.1567 62.2597 69.1984 62.2597C69.278 62.2597 69.3449 62.2684 69.4008 62.2865C69.4567 62.3046 69.5016 62.3313 69.5354 62.366C69.5701 62.4006 69.5945 62.4439 69.6102 62.4951C69.626 62.5463 69.6339 62.6069 69.6339 62.6754V63.4203ZM69.4331 62.9148H69.2598C69.2047 62.9148 69.1567 62.9195 69.1157 62.929C69.0748 62.9384 69.0409 62.9526 69.0142 62.9707C68.9874 62.9896 68.9677 63.0109 68.9543 63.0369C68.9417 63.0628 68.9354 63.0928 68.9354 63.1258C68.9354 63.1833 68.9535 63.229 68.9898 63.2628C69.0268 63.2967 69.0772 63.314 69.1425 63.314C69.1953 63.314 69.2449 63.3006 69.2898 63.2739C69.3354 63.2471 69.3827 63.2054 69.4331 63.1495V62.9148ZM70.8362 63.4203C70.8362 63.4298 70.8331 63.4376 70.8268 63.4424C70.8205 63.4479 70.811 63.451 70.7992 63.4534C70.7882 63.4558 70.7717 63.4573 70.7496 63.4573C70.7283 63.4573 70.711 63.4558 70.6984 63.4534C70.6858 63.451 70.6772 63.4479 70.6709 63.4424C70.6654 63.4376 70.6622 63.4306 70.6622 63.4203V63.3101C70.6142 63.3613 70.5606 63.4014 70.5016 63.4298C70.4417 63.4581 70.3787 63.4723 70.3126 63.4723C70.2543 63.4723 70.2024 63.4644 70.1551 63.4495C70.1079 63.4345 70.0677 63.4124 70.0346 63.3841C70.0024 63.3558 69.9764 63.3203 69.9575 63.2786C69.9394 63.2369 69.9299 63.1896 69.9299 63.1361C69.9299 63.0739 69.9425 63.0195 69.9677 62.9739C69.9929 62.9282 70.0299 62.8904 70.0772 62.8597C70.1244 62.8298 70.1827 62.8069 70.2512 62.792C70.3197 62.777 70.3976 62.7691 70.4835 62.7691H70.6354V62.6833C70.6354 62.6408 70.6307 62.603 70.622 62.5699C70.6126 62.5376 70.5984 62.5101 70.5787 62.488C70.5583 62.4668 70.5323 62.4502 70.5008 62.4392C70.4685 62.4282 70.4299 62.4227 70.3835 62.4227C70.3331 62.4227 70.2882 62.4282 70.2496 62.4408C70.2094 62.4526 70.1748 62.466 70.1449 62.4802C70.115 62.4951 70.0905 62.5077 70.0701 62.5203C70.0504 62.5321 70.0354 62.5384 70.026 62.5384C70.0189 62.5384 70.0134 62.5369 70.0087 62.5329C70.0039 62.5306 69.9992 62.525 69.9953 62.5187C69.9921 62.5124 69.989 62.5038 69.9874 62.4935C69.9858 62.4833 69.985 62.4723 69.985 62.4597C69.985 62.44 69.9866 62.4235 69.989 62.4117C69.9921 62.3998 69.9992 62.3888 70.0102 62.3786C70.0213 62.3676 70.0402 62.355 70.0669 62.3408C70.0937 62.3266 70.1252 62.3132 70.1606 62.3006C70.1953 62.2888 70.2339 62.2794 70.2756 62.2715C70.3173 62.2628 70.3591 62.2597 70.4016 62.2597C70.4803 62.2597 70.548 62.2684 70.6039 62.2865C70.6591 62.3046 70.7039 62.3313 70.7386 62.366C70.7724 62.4006 70.7976 62.4439 70.8126 62.4951C70.8283 62.5463 70.8362 62.6069 70.8362 62.6754V63.4203ZM70.6354 62.9148H70.463C70.4071 62.9148 70.3591 62.9195 70.3181 62.929C70.278 62.9384 70.2441 62.9526 70.2165 62.9707C70.1898 62.9896 70.1701 63.0109 70.1575 63.0369C70.1449 63.0628 70.1386 63.0928 70.1386 63.1258C70.1386 63.1833 70.1567 63.229 70.1929 63.2628C70.2291 63.2967 70.2795 63.314 70.3457 63.314C70.3984 63.314 70.448 63.3006 70.4929 63.2739C70.5378 63.2471 70.5858 63.2054 70.6354 63.1495V62.9148ZM72.1575 63.4187C72.1575 63.4258 72.1551 63.4313 72.152 63.4361C72.1488 63.44 72.1441 63.4439 72.1362 63.4479C72.1283 63.4502 72.1189 63.4526 72.1055 63.455C72.0921 63.4565 72.0756 63.4573 72.0567 63.4573C72.0354 63.4573 72.0189 63.4565 72.0055 63.455C71.9921 63.4526 71.9819 63.4502 71.9748 63.4479C71.9669 63.4439 71.9622 63.44 71.9591 63.4361C71.9551 63.4313 71.9535 63.4258 71.9535 63.4187V62.7723C71.9535 62.7101 71.9488 62.6589 71.9394 62.6203C71.9291 62.5817 71.915 62.5495 71.8969 62.5211C71.878 62.4935 71.8535 62.4723 71.8244 62.4573C71.7945 62.4432 71.7598 62.4353 71.7213 62.4353C71.6709 62.4353 71.6205 62.4534 71.5701 62.4888C71.5197 62.525 71.4669 62.5778 71.4118 62.6471V63.4187C71.4118 63.4258 71.4094 63.4313 71.4063 63.4361C71.4032 63.44 71.3984 63.4439 71.3906 63.4479C71.3827 63.4502 71.3732 63.4526 71.3598 63.455C71.3465 63.4565 71.3299 63.4573 71.3094 63.4573C71.289 63.4573 71.2732 63.4565 71.2598 63.455C71.2465 63.4526 71.2362 63.4502 71.2283 63.4479C71.2205 63.4439 71.215 63.44 71.2118 63.4361C71.2094 63.4313 71.2079 63.4258 71.2079 63.4187V62.3148C71.2079 62.3085 71.2094 62.303 71.2118 62.2983C71.2142 62.2943 71.2189 62.2904 71.2268 62.2865C71.2339 62.2825 71.2433 62.2802 71.2551 62.2786C71.2661 62.2778 71.2819 62.277 71.3008 62.277C71.3189 62.277 71.3339 62.2778 71.3457 62.2786C71.3575 62.2802 71.3669 62.2825 71.3732 62.2865C71.3795 62.2904 71.385 62.2943 71.3874 62.2983C71.3898 62.303 71.3921 62.3085 71.3921 62.3148V62.4613C71.4535 62.3912 71.515 62.34 71.5772 62.3077C71.6386 62.2754 71.7008 62.2597 71.763 62.2597C71.8362 62.2597 71.8984 62.2723 71.9488 62.2967C71.9992 62.3219 72.0394 62.355 72.0709 62.3967C72.1016 62.4384 72.1236 62.4873 72.137 62.5439C72.1504 62.5998 72.1575 62.6668 72.1575 62.7455V63.4187ZM74.0386 63.4187C74.0386 63.4258 74.0378 63.4313 74.0346 63.4361C74.0315 63.4416 74.0268 63.4447 74.0197 63.4479C74.0126 63.451 74.0039 63.4526 73.9921 63.455C73.9803 63.4565 73.9669 63.4573 73.9504 63.4573C73.9331 63.4573 73.9189 63.4565 73.9079 63.455C73.8961 63.4526 73.8866 63.451 73.8795 63.4479C73.8724 63.4447 73.8669 63.4416 73.863 63.4361C73.8606 63.4313 73.8591 63.425 73.8591 63.4187V63.2723C73.8008 63.3353 73.7402 63.3841 73.678 63.4195C73.615 63.455 73.5472 63.4723 73.4724 63.4723C73.3913 63.4723 73.3228 63.4565 73.2661 63.425C73.2087 63.3935 73.1622 63.351 73.1268 63.2975C73.0913 63.2439 73.0654 63.181 73.0488 63.1085C73.0331 63.0361 73.0244 62.9597 73.0244 62.8802C73.0244 62.7849 73.0346 62.6991 73.0551 62.6235C73.0756 62.5463 73.1055 62.481 73.1457 62.4274C73.1858 62.3731 73.2354 62.3321 73.2945 62.303C73.3535 62.2739 73.422 62.2597 73.5 62.2597C73.5646 62.2597 73.6228 62.2739 73.6764 62.3014C73.7299 62.3306 73.7827 62.3715 73.8354 62.4266V61.7865C73.8354 61.7809 73.8362 61.7754 73.8394 61.7699C73.8425 61.7644 73.848 61.7605 73.8567 61.7573C73.8646 61.755 73.8748 61.7526 73.8874 61.7502C73.9 61.7479 73.9165 61.7471 73.9354 61.7471C73.9559 61.7471 73.9732 61.7479 73.9858 61.7502C73.9992 61.7526 74.0094 61.755 74.0165 61.7573C74.0244 61.7605 74.0299 61.7644 74.0331 61.7699C74.037 61.7754 74.0386 61.7809 74.0386 61.7865V63.4187ZM73.8354 62.6424C73.7811 62.5739 73.7283 62.5219 73.6772 62.4865C73.626 62.451 73.5732 62.4329 73.5181 62.4329C73.4661 62.4329 73.4228 62.4447 73.3866 62.4699C73.3504 62.4943 73.322 62.5266 73.2992 62.5668C73.2772 62.6061 73.2606 62.6518 73.2504 62.703C73.2402 62.7534 73.2354 62.8046 73.2354 62.8573C73.2354 62.9124 73.2394 62.9676 73.248 63.0203C73.2567 63.0731 73.2717 63.1203 73.2929 63.1621C73.3142 63.2038 73.3417 63.2369 73.3772 63.2621C73.4118 63.2865 73.4559 63.2991 73.5087 63.2991C73.5354 63.2991 73.5614 63.2951 73.5866 63.288C73.6118 63.2809 73.637 63.2684 73.663 63.251C73.689 63.2345 73.7165 63.2117 73.7449 63.1841C73.7732 63.1573 73.8039 63.1235 73.8354 63.0833V62.6424ZM75.2449 63.4203C75.2449 63.4298 75.2417 63.4376 75.2354 63.4424C75.2283 63.4479 75.2197 63.451 75.2079 63.4534C75.1969 63.4558 75.1803 63.4573 75.1575 63.4573C75.137 63.4573 75.1197 63.4558 75.1071 63.4534C75.0945 63.451 75.085 63.4479 75.0795 63.4424C75.074 63.4376 75.0709 63.4306 75.0709 63.4203V63.3101C75.0228 63.3613 74.9693 63.4014 74.9095 63.4298C74.8504 63.4581 74.7874 63.4723 74.7213 63.4723C74.663 63.4723 74.6102 63.4644 74.5638 63.4495C74.5165 63.4345 74.4764 63.4124 74.4433 63.3841C74.4102 63.3558 74.3843 63.3203 74.3661 63.2786C74.348 63.2369 74.3386 63.1896 74.3386 63.1361C74.3386 63.0739 74.3512 63.0195 74.3764 62.9739C74.4016 62.9282 74.4378 62.8904 74.4858 62.8597C74.5331 62.8298 74.5913 62.8069 74.6598 62.792C74.7283 62.777 74.8055 62.7691 74.8913 62.7691H75.0441V62.6833C75.0441 62.6408 75.0394 62.603 75.0307 62.5699C75.0213 62.5376 75.0071 62.5101 74.9874 62.488C74.9669 62.4668 74.9409 62.4502 74.9095 62.4392C74.8772 62.4282 74.8378 62.4227 74.7913 62.4227C74.7417 62.4227 74.6968 62.4282 74.6575 62.4408C74.6181 62.4526 74.5835 62.466 74.5535 62.4802C74.5236 62.4951 74.4984 62.5077 74.4787 62.5203C74.4591 62.5321 74.4441 62.5384 74.4346 62.5384C74.4276 62.5384 74.422 62.5369 74.4173 62.5329C74.4118 62.5306 74.4079 62.525 74.4039 62.5187C74.4 62.5124 74.3976 62.5038 74.3961 62.4935C74.3945 62.4833 74.3937 62.4723 74.3937 62.4597C74.3937 62.44 74.3953 62.4235 74.3976 62.4117C74.4008 62.3998 74.4079 62.3888 74.4189 62.3786C74.4299 62.3676 74.4488 62.355 74.4756 62.3408C74.5024 62.3266 74.5339 62.3132 74.5693 62.3006C74.6039 62.2888 74.6425 62.2794 74.6843 62.2715C74.7252 62.2628 74.7677 62.2597 74.8102 62.2597C74.889 62.2597 74.9567 62.2684 75.0118 62.2865C75.0677 62.3046 75.1126 62.3313 75.1472 62.366C75.1811 62.4006 75.2055 62.4439 75.2213 62.4951C75.237 62.5463 75.2449 62.6069 75.2449 62.6754V63.4203ZM75.0441 62.9148H74.8709C74.8158 62.9148 74.7677 62.9195 74.7268 62.929C74.6858 62.9384 74.652 62.9526 74.6252 62.9707C74.5984 62.9896 74.5787 63.0109 74.5654 63.0369C74.5528 63.0628 74.5472 63.0928 74.5472 63.1258C74.5472 63.1833 74.5646 63.229 74.6016 63.2628C74.6378 63.2967 74.6882 63.314 74.7543 63.314C74.8063 63.314 74.8559 63.3006 74.9016 63.2739C74.9465 63.2471 74.9945 63.2054 75.0441 63.1495V62.9148ZM76.5654 63.4187C76.5654 63.4258 76.5638 63.4313 76.5606 63.4361C76.5575 63.44 76.552 63.4439 76.5449 63.4479C76.537 63.4502 76.5268 63.4526 76.5142 63.455C76.5008 63.4565 76.4843 63.4573 76.4646 63.4573C76.4441 63.4573 76.4268 63.4565 76.4142 63.455C76.4008 63.4526 76.3905 63.4502 76.3835 63.4479C76.3756 63.4439 76.3709 63.44 76.3669 63.4361C76.3638 63.4313 76.3622 63.4258 76.3622 63.4187V62.7723C76.3622 62.7101 76.3575 62.6589 76.348 62.6203C76.3378 62.5817 76.3236 62.5495 76.3047 62.5211C76.2858 62.4935 76.2622 62.4723 76.2323 62.4573C76.2032 62.4432 76.1685 62.4353 76.1299 62.4353C76.0787 62.4353 76.0284 62.4534 75.9787 62.4888C75.9276 62.525 75.8748 62.5778 75.8197 62.6471V63.4187C75.8197 63.4258 75.8181 63.4313 75.815 63.4361C75.8118 63.44 75.8063 63.4439 75.7992 63.4479C75.7913 63.4502 75.7811 63.4526 75.7677 63.455C75.7551 63.4565 75.7386 63.4573 75.7181 63.4573C75.6976 63.4573 75.6811 63.4565 75.6685 63.455C75.6551 63.4526 75.6449 63.4502 75.637 63.4479C75.6291 63.4439 75.6236 63.44 75.6205 63.4361C75.6181 63.4313 75.6165 63.4258 75.6165 63.4187V62.3148C75.6165 62.3085 75.6181 62.303 75.6205 62.2983C75.6228 62.2943 75.6276 62.2904 75.6346 62.2865C75.6425 62.2825 75.652 62.2802 75.6638 62.2786C75.6748 62.2778 75.6905 62.277 75.7087 62.277C75.7268 62.277 75.7417 62.2778 75.7535 62.2786C75.7661 62.2802 75.7748 62.2825 75.7819 62.2865C75.7882 62.2904 75.7929 62.2943 75.7961 62.2983C75.7984 62.303 75.8 62.3085 75.8 62.3148V62.4613C75.8622 62.3912 75.9236 62.34 75.9858 62.3077C76.0472 62.2754 76.1087 62.2597 76.1717 62.2597C76.2449 62.2597 76.3071 62.2723 76.3575 62.2967C76.4071 62.3219 76.448 62.355 76.4787 62.3967C76.5102 62.4384 76.5323 62.4873 76.5457 62.5439C76.5591 62.5998 76.5654 62.6668 76.5654 62.7455V63.4187ZM78.4095 63.418C78.4095 63.4243 78.4079 63.4306 78.4047 63.4353C78.4016 63.44 78.3961 63.4439 78.3882 63.4479C78.3803 63.4502 78.3693 63.4526 78.3559 63.455C78.3417 63.4565 78.3244 63.4573 78.3031 63.4573C78.2811 63.4573 78.263 63.4565 78.248 63.4558C78.2346 63.4542 78.222 63.4518 78.2126 63.4495C78.2024 63.4463 78.1945 63.4424 78.189 63.4369C78.1827 63.4313 78.1772 63.425 78.1717 63.418L77.7063 62.8069V63.4187C77.7063 63.4258 77.7047 63.4313 77.7016 63.4361C77.6984 63.44 77.6929 63.4439 77.6858 63.4479C77.678 63.4502 77.6677 63.4526 77.6543 63.455C77.6417 63.4565 77.6252 63.4573 77.6047 63.4573C77.5843 63.4573 77.5677 63.4565 77.5551 63.455C77.5417 63.4526 77.5315 63.4502 77.5236 63.4479C77.5157 63.4439 77.5102 63.44 77.5071 63.4361C77.5047 63.4313 77.5032 63.4258 77.5032 63.4187V61.7817C77.5032 61.7747 77.5047 61.7691 77.5071 61.7644C77.5102 61.7597 77.5157 61.755 77.5236 61.7518C77.5315 61.7487 77.5417 61.7463 77.5551 61.7447C77.5677 61.7432 77.5843 61.7424 77.6047 61.7424C77.6252 61.7424 77.6417 61.7432 77.6543 61.7447C77.6677 61.7463 77.678 61.7487 77.6858 61.7518C77.6929 61.755 77.6984 61.7597 77.7016 61.7644C77.7047 61.7691 77.7063 61.7747 77.7063 61.7817V62.7786L78.122 62.3203C78.1283 62.3117 78.1362 62.3054 78.1433 62.2998C78.1504 62.2943 78.1591 62.2904 78.1693 62.2865C78.1795 62.2825 78.1913 62.2802 78.2055 62.2786C78.2189 62.2778 78.2362 62.277 78.2559 62.277C78.2764 62.277 78.2929 62.2778 78.3071 62.2786C78.3205 62.2802 78.3323 62.2817 78.3402 62.2849C78.3488 62.288 78.3551 62.292 78.3591 62.2959C78.363 62.3006 78.3646 62.3061 78.3646 62.314C78.3646 62.3235 78.3622 62.3337 78.3567 62.3432C78.3512 62.3534 78.3425 62.3644 78.3299 62.3778L77.9323 62.7778L78.3803 63.3597C78.3906 63.3747 78.3984 63.3849 78.4032 63.3943C78.4079 63.403 78.4095 63.4109 78.4095 63.418Z" fill="#0383B0"/>
<path fill-rule="evenodd" clip-rule="evenodd" d="M79.5024 62.8187C79.5024 62.851 79.4945 62.8731 79.4787 62.8872C79.463 62.9006 79.4441 62.9069 79.4244 62.9069H78.6992C78.6992 62.9691 78.7055 63.0243 78.7173 63.0731C78.7299 63.1227 78.7504 63.1644 78.7787 63.1998C78.8079 63.2353 78.8449 63.2621 78.8905 63.281C78.9362 63.2991 78.9929 63.3093 79.0583 63.3093C79.111 63.3093 79.1583 63.3046 79.1984 63.2959C79.2394 63.288 79.2748 63.2778 79.3047 63.2676C79.3346 63.2573 79.3591 63.2479 79.3787 63.2392C79.3976 63.2306 79.4118 63.2258 79.4221 63.2258C79.4276 63.2258 79.4331 63.2274 79.4378 63.2306C79.4417 63.2329 79.4457 63.2376 79.4472 63.2432C79.4496 63.2487 79.452 63.2565 79.4535 63.2668C79.4543 63.277 79.4551 63.2896 79.4551 63.3038C79.4551 63.3148 79.4543 63.3235 79.4535 63.3313C79.4527 63.3392 79.452 63.3463 79.4512 63.3518C79.4496 63.3581 79.4472 63.3636 79.4441 63.3691C79.4417 63.3739 79.4386 63.3778 79.4339 63.3825C79.4291 63.3872 79.4157 63.3943 79.3937 63.4046C79.3717 63.4148 79.3433 63.4243 79.3079 63.4345C79.2732 63.4439 79.2323 63.4526 79.1866 63.4605C79.1402 63.4684 79.0913 63.4723 79.0394 63.4723C78.948 63.4723 78.8693 63.4597 78.8008 63.4345C78.7331 63.4093 78.6756 63.3715 78.6291 63.3219C78.5827 63.2715 78.5472 63.2093 78.5236 63.1337C78.5 63.0589 78.4882 62.9715 78.4882 62.8715C78.4882 62.777 78.5 62.6912 78.5252 62.6156C78.5496 62.54 78.585 62.4754 78.6307 62.4235C78.6772 62.3707 78.7331 62.3306 78.7984 62.3014C78.8638 62.2739 78.937 62.2597 79.0173 62.2597C79.1039 62.2597 79.1779 62.2731 79.2386 62.3014C79.3 62.329 79.3496 62.3668 79.389 62.4132C79.4276 62.4605 79.4567 62.5156 79.4748 62.5794C79.4937 62.6424 79.5024 62.7101 79.5024 62.7817V62.8187ZM79.2992 62.7589C79.3016 62.6526 79.2787 62.5691 79.2283 62.5085C79.1787 62.4479 79.1055 62.418 79.0079 62.418C78.9575 62.418 78.9142 62.4266 78.8764 62.4455C78.8386 62.4644 78.8071 62.4896 78.7819 62.5211C78.7559 62.5518 78.7362 62.588 78.7228 62.6298C78.7087 62.6707 78.7008 62.714 78.6992 62.7589H79.2992ZM81.4496 63.4187C81.4496 63.4258 81.448 63.4313 81.4449 63.4361C81.4417 63.44 81.4362 63.4439 81.4291 63.4479C81.422 63.4502 81.4118 63.4526 81.3984 63.455C81.3858 63.4565 81.3693 63.4573 81.3496 63.4573C81.3291 63.4573 81.3126 63.4565 81.2992 63.455C81.2866 63.4526 81.2756 63.4502 81.2677 63.4479C81.2606 63.4439 81.2551 63.44 81.252 63.4361C81.248 63.4313 81.2465 63.4258 81.2465 63.4187V62.7487C81.2465 62.7014 81.2425 62.6589 81.2346 62.6203C81.226 62.5817 81.2134 62.5495 81.1953 62.5211C81.1772 62.4935 81.1543 62.4723 81.1268 62.4573C81.0992 62.4432 81.0669 62.4353 81.0291 62.4353C80.9827 62.4353 80.9354 62.4534 80.889 62.4888C80.8425 62.525 80.7905 62.5778 80.7346 62.6471V63.4187C80.7346 63.4258 80.7323 63.4313 80.7291 63.4361C80.726 63.44 80.7205 63.4439 80.7126 63.4479C80.7047 63.4502 80.6945 63.4526 80.6811 63.455C80.6685 63.4565 80.652 63.4573 80.6323 63.4573C80.6126 63.4573 80.5969 63.4565 80.5835 63.455C80.5701 63.4526 80.5591 63.4502 80.5512 63.4479C80.5433 63.4439 80.5378 63.44 80.5354 63.4361C80.5323 63.4313 80.5307 63.4258 80.5307 63.4187V62.7487C80.5307 62.7014 80.526 62.6589 80.5173 62.6203C80.5087 62.5817 80.4953 62.5495 80.4772 62.5211C80.4591 62.4935 80.4362 62.4723 80.4094 62.4573C80.3819 62.4432 80.3496 62.4353 80.3118 62.4353C80.2654 62.4353 80.2181 62.4534 80.1709 62.4888C80.1236 62.525 80.0717 62.5778 80.0165 62.6471V63.4187C80.0165 63.4258 80.0142 63.4313 80.011 63.4361C80.0079 63.44 80.0031 63.4439 79.9953 63.4479C79.9874 63.4502 79.978 63.4526 79.9646 63.455C79.9512 63.4565 79.9346 63.4573 79.9142 63.4573C79.8937 63.4573 79.8779 63.4565 79.8646 63.455C79.8512 63.4526 79.8409 63.4502 79.8331 63.4479C79.8252 63.4439 79.8197 63.44 79.8165 63.4361C79.8142 63.4313 79.8126 63.4258 79.8126 63.4187V62.3148C79.8126 62.3085 79.8142 62.303 79.8165 62.2983C79.8189 62.2943 79.8236 62.2904 79.8315 62.2865C79.8386 62.2825 79.848 62.2802 79.8598 62.2786C79.8709 62.2778 79.8866 62.277 79.9055 62.277C79.9228 62.277 79.9386 62.2778 79.9496 62.2786C79.9622 62.2802 79.9717 62.2825 79.978 62.2865C79.9843 62.2904 79.9898 62.2943 79.9921 62.2983C79.9945 62.303 79.9968 62.3085 79.9968 62.3148V62.4613C80.0583 62.3912 80.1189 62.34 80.1779 62.3077C80.2362 62.2754 80.2953 62.2597 80.3551 62.2597C80.4008 62.2597 80.4417 62.2652 80.478 62.2754C80.5142 62.2865 80.5465 62.3006 80.5748 62.3203C80.6024 62.3392 80.626 62.3621 80.6457 62.3896C80.6654 62.4156 80.6819 62.4455 80.6953 62.4786C80.7315 62.4384 80.7661 62.4046 80.8 62.3762C80.8323 62.3479 80.8646 62.3258 80.8953 62.3085C80.9252 62.2912 80.9551 62.2786 80.9842 62.2715C81.0134 62.2628 81.0425 62.2597 81.0717 62.2597C81.1425 62.2597 81.2024 62.2723 81.2504 62.2967C81.2984 62.3219 81.337 62.355 81.3677 62.3967C81.3968 62.4384 81.4181 62.4872 81.4307 62.5439C81.4433 62.5998 81.4496 62.6589 81.4496 62.7211V63.4187ZM82.022 63.4187C82.022 63.4258 82.0205 63.4313 82.0165 63.4361C82.0134 63.44 82.0087 63.4439 82.0008 63.4479C81.9937 63.4502 81.9835 63.4526 81.9701 63.455C81.9575 63.4565 81.9402 63.4573 81.9197 63.4573C81.9 63.4573 81.8835 63.4565 81.8701 63.455C81.8567 63.4526 81.8465 63.4502 81.8394 63.4479C81.8315 63.4439 81.826 63.44 81.8228 63.4361C81.8197 63.4313 81.8189 63.4258 81.8189 63.4187V62.3148C81.8189 62.3093 81.8197 62.3038 81.8228 62.2991C81.826 62.2943 81.8315 62.2904 81.8394 62.2865C81.8465 62.2833 81.8567 62.2809 81.8701 62.2794C81.8835 62.2778 81.9 62.277 81.9197 62.277C81.9402 62.277 81.9575 62.2778 81.9701 62.2794C81.9835 62.2809 81.9937 62.2833 82.0008 62.2865C82.0087 62.2904 82.0134 62.2943 82.0165 62.2991C82.0205 62.3038 82.022 62.3093 82.022 62.3148V63.4187ZM82.0449 61.9432C82.0449 61.9904 82.0354 62.0227 82.0173 62.04C81.9992 62.0573 81.9661 62.066 81.9173 62.066C81.8701 62.066 81.8378 62.0573 81.8197 62.0408C81.8024 62.0243 81.7937 61.9928 81.7937 61.9455C81.7937 61.8983 81.8024 61.8652 81.8205 61.8487C81.8386 61.8313 81.8717 61.8227 81.9205 61.8227C81.9677 61.8227 82.0008 61.8306 82.0181 61.8479C82.0354 61.8644 82.0449 61.8959 82.0449 61.9432ZM82.9677 63.3369C82.9677 63.3613 82.9654 63.3802 82.9622 63.3935C82.9591 63.4077 82.9543 63.418 82.948 63.4243C82.9417 63.4306 82.9315 63.4369 82.9181 63.4424C82.9055 63.4487 82.8906 63.4526 82.874 63.4565C82.8567 63.4605 82.8394 63.4636 82.8205 63.466C82.8016 63.4684 82.7835 63.4699 82.7646 63.4699C82.7071 63.4699 82.6583 63.4621 82.6173 63.4471C82.5772 63.4321 82.5433 63.4093 82.5173 63.3786C82.4913 63.3479 82.4724 63.3093 82.4598 63.2621C82.4488 63.2156 82.4425 63.1597 82.4425 63.0967V62.4526H82.2874C82.2756 62.4526 82.2654 62.4463 82.2575 62.4329C82.2504 62.4203 82.2465 62.3991 82.2465 62.3691C82.2465 62.3534 82.248 62.3408 82.2496 62.3306C82.252 62.3195 82.2543 62.3101 82.2575 62.3038C82.2606 62.2967 82.2654 62.292 82.2709 62.2888C82.2764 62.2857 82.2819 62.2849 82.2882 62.2849H82.4425V62.0227C82.4425 62.0164 82.4441 62.0117 82.4465 62.0069C82.4496 62.0014 82.4551 61.9975 82.463 61.9935C82.4709 61.9896 82.4811 61.9872 82.4945 61.9857C82.5071 61.9841 82.5236 61.9833 82.5441 61.9833C82.5646 61.9833 82.5811 61.9841 82.5945 61.9857C82.6079 61.9872 82.6173 61.9896 82.6252 61.9935C82.6323 61.9975 82.6378 62.0014 82.6409 62.0069C82.6441 62.0117 82.6457 62.0164 82.6457 62.0227V62.2849H82.9276C82.9339 62.2849 82.9394 62.2857 82.9441 62.2888C82.9488 62.292 82.9535 62.2967 82.9567 62.3038C82.9606 62.3101 82.963 62.3195 82.9646 62.3306C82.9669 62.3408 82.9677 62.3534 82.9677 62.3691C82.9677 62.3991 82.9638 62.4203 82.9567 62.4329C82.9488 62.4463 82.9394 62.4526 82.9276 62.4526H82.6457V63.0668C82.6457 63.1424 82.6575 63.1998 82.6795 63.2384C82.7016 63.277 82.7417 63.2967 82.7992 63.2967C82.8181 63.2967 82.8346 63.2951 82.8496 63.2912C82.8638 63.2872 82.8772 63.2833 82.8882 63.2794C82.8992 63.2754 82.9094 63.2715 82.9173 63.2676C82.9252 63.2636 82.9331 63.2621 82.9394 63.2621C82.9433 63.2621 82.9472 63.2628 82.9512 63.2652C82.9543 63.2668 82.9575 63.2707 82.9591 63.277C82.9614 63.2825 82.963 63.2904 82.9646 63.3006C82.9669 63.3101 82.9677 63.3227 82.9677 63.3369ZM83.8811 62.3865C83.8811 62.4046 83.8811 62.4195 83.8803 62.4321C83.8795 62.4439 83.878 62.4534 83.8748 62.4605C83.8732 62.4676 83.8693 62.4731 83.8661 62.477C83.8622 62.4802 83.8575 62.4817 83.8512 62.4817C83.8441 62.4817 83.8362 62.4802 83.8268 62.477C83.8173 62.4731 83.8071 62.4691 83.7953 62.466C83.7835 62.4621 83.7701 62.4589 83.7551 62.455C83.7409 62.4518 83.7252 62.4502 83.7079 62.4502C83.6874 62.4502 83.6669 62.4542 83.6472 62.4621C83.6283 62.4707 83.6071 62.4841 83.5858 62.5038C83.5638 62.5227 83.5417 62.5471 83.5181 62.5786C83.4945 62.6101 83.4677 62.6479 83.4394 62.6928V63.4187C83.4394 63.4258 83.4378 63.4313 83.4346 63.4361C83.4307 63.44 83.426 63.4439 83.4181 63.4479C83.411 63.4502 83.4008 63.4526 83.3874 63.455C83.3748 63.4565 83.3575 63.4573 83.337 63.4573C83.3173 63.4573 83.3008 63.4565 83.2882 63.455C83.2748 63.4526 83.2638 63.4502 83.2567 63.4479C83.2488 63.4439 83.2433 63.44 83.2402 63.4361C83.237 63.4313 83.2362 63.4258 83.2362 63.4187V62.3148C83.2362 62.3085 83.237 62.303 83.2402 62.2983C83.2425 62.2943 83.2472 62.2904 83.2543 62.2865C83.2622 62.2825 83.2709 62.2802 83.2827 62.2786C83.2945 62.2778 83.3094 62.277 83.3283 62.277C83.3465 62.277 83.3614 62.2778 83.3732 62.2786C83.385 62.2802 83.3945 62.2825 83.4016 62.2865C83.4079 62.2904 83.4126 62.2943 83.4157 62.2983C83.4181 62.303 83.4197 62.3085 83.4197 62.3148V62.4754C83.4496 62.4313 83.478 62.3951 83.5047 62.3676C83.5315 62.34 83.5567 62.318 83.5803 62.3014C83.6039 62.2857 83.6276 62.2746 83.6504 62.2684C83.674 62.2621 83.6969 62.2597 83.7213 62.2597C83.7315 62.2597 83.7433 62.2597 83.7567 62.2613C83.7709 62.2621 83.7842 62.2652 83.7992 62.2676C83.8142 62.2715 83.8276 62.2747 83.8394 62.2794C83.8512 62.2833 83.8591 62.2872 83.8646 62.2912C83.8693 62.2951 83.8724 62.2991 83.874 62.303C83.8756 62.3069 83.8772 62.3117 83.8787 62.3172C83.8795 62.3227 83.8803 62.3313 83.8811 62.3416C83.8811 62.3534 83.8811 62.3676 83.8811 62.3865ZM84.8913 63.4203C84.8913 63.4298 84.8882 63.4376 84.8819 63.4424C84.8748 63.4479 84.8661 63.451 84.8543 63.4534C84.8433 63.4558 84.826 63.4573 84.8039 63.4573C84.7835 63.4573 84.7661 63.4558 84.7535 63.4534C84.7409 63.451 84.7315 63.4479 84.726 63.4424C84.7197 63.4376 84.7173 63.4306 84.7173 63.4203V63.3101C84.6693 63.3613 84.6158 63.4014 84.5559 63.4298C84.4969 63.4581 84.4339 63.4723 84.3677 63.4723C84.3094 63.4723 84.2567 63.4644 84.2102 63.4495C84.163 63.4345 84.1228 63.4124 84.0898 63.3841C84.0567 63.3558 84.0307 63.3203 84.0126 63.2786C83.9937 63.2369 83.985 63.1896 83.985 63.1361C83.985 63.0739 83.9976 63.0195 84.0228 62.9739C84.048 62.9282 84.0843 62.8904 84.1323 62.8597C84.1795 62.8298 84.2378 62.8069 84.3063 62.792C84.3748 62.777 84.452 62.7691 84.5378 62.7691H84.6906V62.6833C84.6906 62.6408 84.6858 62.603 84.6772 62.5699C84.6677 62.5376 84.6535 62.5101 84.6331 62.488C84.6134 62.4668 84.5874 62.4502 84.5559 62.4392C84.5236 62.4282 84.4843 62.4227 84.4378 62.4227C84.3882 62.4227 84.3433 62.4282 84.3039 62.4408C84.2646 62.4526 84.2291 62.466 84.2 62.4802C84.1701 62.4951 84.1449 62.5077 84.1252 62.5203C84.1055 62.5321 84.0906 62.5384 84.0803 62.5384C84.074 62.5384 84.0677 62.5369 84.0638 62.5329C84.0583 62.5306 84.0543 62.525 84.0504 62.5187C84.0465 62.5124 84.0441 62.5038 84.0425 62.4935C84.0409 62.4833 84.0402 62.4723 84.0402 62.4597C84.0402 62.44 84.0409 62.4235 84.0441 62.4117C84.0472 62.3998 84.0543 62.3888 84.0654 62.3786C84.0756 62.3676 84.0953 62.355 84.122 62.3408C84.1488 62.3266 84.1803 62.3132 84.215 62.3006C84.2504 62.2888 84.2882 62.2794 84.3307 62.2715C84.3716 62.2628 84.4142 62.2597 84.4559 62.2597C84.5354 62.2597 84.6031 62.2684 84.6583 62.2865C84.7142 62.3046 84.759 62.3313 84.7929 62.366C84.8276 62.4006 84.852 62.4439 84.8677 62.4951C84.8835 62.5463 84.8913 62.6069 84.8913 62.6754V63.4203ZM84.6906 62.9148H84.5173C84.4622 62.9148 84.4142 62.9195 84.3732 62.929C84.3323 62.9384 84.2984 62.9526 84.2717 62.9707C84.2449 62.9896 84.2252 63.0109 84.2118 63.0369C84.1992 63.0628 84.1929 63.0928 84.1929 63.1258C84.1929 63.1833 84.211 63.229 84.2472 63.2628C84.2842 63.2967 84.3346 63.314 84.4 63.314C84.4527 63.314 84.5024 63.3006 84.5472 63.2739C84.5929 63.2471 84.6402 63.2054 84.6906 63.1495V62.9148ZM86.0937 63.4203C86.0937 63.4298 86.0906 63.4376 86.0843 63.4424C86.078 63.4479 86.0685 63.451 86.0567 63.4534C86.0457 63.4558 86.0291 63.4573 86.0071 63.4573C85.9858 63.4573 85.9685 63.4558 85.9559 63.4534C85.9441 63.451 85.9346 63.4479 85.9283 63.4424C85.9228 63.4376 85.9197 63.4306 85.9197 63.4203V63.3101C85.8717 63.3613 85.8181 63.4014 85.7591 63.4298C85.6992 63.4581 85.6362 63.4723 85.5701 63.4723C85.5126 63.4723 85.4598 63.4644 85.4126 63.4495C85.3661 63.4345 85.3252 63.4124 85.2929 63.3841C85.2598 63.3558 85.2339 63.3203 85.215 63.2786C85.1968 63.2369 85.1874 63.1896 85.1874 63.1361C85.1874 63.0739 85.2 63.0195 85.2252 62.9739C85.2504 62.9282 85.2874 62.8904 85.3346 62.8597C85.3819 62.8298 85.4402 62.8069 85.5087 62.792C85.5772 62.777 85.6551 62.7691 85.7409 62.7691H85.8929V62.6833C85.8929 62.6408 85.8882 62.603 85.8795 62.5699C85.8701 62.5376 85.8559 62.5101 85.8362 62.488C85.8157 62.4668 85.7905 62.4502 85.7583 62.4392C85.7268 62.4282 85.6874 62.4227 85.6409 62.4227C85.5906 62.4227 85.5465 62.4282 85.5071 62.4408C85.4669 62.4526 85.4323 62.466 85.4024 62.4802C85.3732 62.4951 85.348 62.5077 85.3276 62.5203C85.3079 62.5321 85.2929 62.5384 85.2835 62.5384C85.2764 62.5384 85.2709 62.5369 85.2661 62.5329C85.2614 62.5306 85.2567 62.525 85.2528 62.5187C85.2496 62.5124 85.2472 62.5038 85.2449 62.4935C85.2433 62.4833 85.2425 62.4723 85.2425 62.4597C85.2425 62.44 85.2441 62.4235 85.2472 62.4117C85.2496 62.3998 85.2567 62.3888 85.2677 62.3786C85.2787 62.3676 85.2976 62.355 85.3244 62.3408C85.3512 62.3266 85.3827 62.3132 85.4181 62.3006C85.4528 62.2888 85.4913 62.2794 85.5331 62.2715C85.5748 62.2628 85.6165 62.2597 85.659 62.2597C85.7386 62.2597 85.8055 62.2684 85.8614 62.2865C85.9165 62.3046 85.9614 62.3313 85.9961 62.366C86.0299 62.4006 86.0551 62.4439 86.0709 62.4951C86.0858 62.5463 86.0937 62.6069 86.0937 62.6754V63.4203ZM85.8929 62.9148H85.7205C85.6654 62.9148 85.6165 62.9195 85.5756 62.929C85.5354 62.9384 85.5016 62.9526 85.474 62.9707C85.4472 62.9896 85.4276 63.0109 85.415 63.0369C85.4024 63.0628 85.3961 63.0928 85.3961 63.1258C85.3961 63.1833 85.4142 63.229 85.4504 63.2628C85.4866 63.2967 85.537 63.314 85.6031 63.314C85.6559 63.314 85.7055 63.3006 85.7504 63.2739C85.7953 63.2471 85.8433 63.2054 85.8929 63.1495V62.9148ZM87.415 63.4187C87.415 63.4258 87.4134 63.4313 87.4094 63.4361C87.4063 63.44 87.4016 63.4439 87.3937 63.4479C87.3866 63.4502 87.3764 63.4526 87.363 63.455C87.3496 63.4565 87.3339 63.4573 87.3142 63.4573C87.2929 63.4573 87.2764 63.4565 87.263 63.455C87.2496 63.4526 87.2402 63.4502 87.2323 63.4479C87.2244 63.4439 87.2197 63.44 87.2165 63.4361C87.2134 63.4313 87.211 63.4258 87.211 63.4187V62.7723C87.211 62.7101 87.2063 62.6589 87.1968 62.6203C87.1874 62.5817 87.1732 62.5495 87.1543 62.5211C87.1354 62.4935 87.111 62.4723 87.0819 62.4573C87.052 62.4432 87.0173 62.4353 86.9787 62.4353C86.9283 62.4353 86.878 62.4534 86.8276 62.4888C86.7772 62.525 86.7244 62.5778 86.6693 62.6471V63.4187C86.6693 63.4258 86.6669 63.4313 86.6638 63.4361C86.6606 63.44 86.6559 63.4439 86.648 63.4479C86.6402 63.4502 86.6307 63.4526 86.6173 63.455C86.6039 63.4565 86.5874 63.4573 86.5669 63.4573C86.5465 63.4573 86.5307 63.4565 86.5173 63.455C86.5039 63.4526 86.4937 63.4502 86.4858 63.4479C86.478 63.4439 86.4724 63.44 86.4701 63.4361C86.4669 63.4313 86.4654 63.4258 86.4654 63.4187V62.3148C86.4654 62.3085 86.4669 62.303 86.4693 62.2983C86.4717 62.2943 86.4764 62.2904 86.4843 62.2865C86.4913 62.2825 86.5008 62.2802 86.5126 62.2786C86.5236 62.2778 86.5394 62.277 86.5583 62.277C86.5764 62.277 86.5913 62.2778 86.6031 62.2786C86.615 62.2802 86.6244 62.2825 86.6307 62.2865C86.637 62.2904 86.6425 62.2943 86.6449 62.2983C86.648 62.303 86.6496 62.3085 86.6496 62.3148V62.4613C86.711 62.3912 86.7724 62.34 86.8346 62.3077C86.8961 62.2754 86.9583 62.2597 87.0213 62.2597C87.0945 62.2597 87.1559 62.2723 87.2063 62.2967C87.2567 62.3219 87.2968 62.355 87.3283 62.3967C87.3591 62.4384 87.3811 62.4872 87.3945 62.5439C87.4079 62.5998 87.415 62.6668 87.415 62.7455V63.4187Z" fill="#0383B0"/>
<path fill-rule="evenodd" clip-rule="evenodd" d="M51.689 45.2699C52.5984 46.1156 52.9252 47.4644 52.8598 49.1258C49.326 53.9093 45.3118 57.7652 40.8165 60.6951C42.7787 57.7872 44.2 55.0471 45.0795 52.4747L45.1299 56.0439C46.8031 53.8676 47.9079 51.3077 48.4449 48.3652C48.7732 49.9014 48.9425 51.277 48.9528 52.492C50.8614 49.9857 51.8583 47.8959 51.5913 46.318C51.4205 45.3093 50.774 45.125 50.1488 45.8195C50.0732 45.9038 50.1465 46.0778 50.1874 45.988C50.274 45.7983 50.4417 45.8581 50.6016 46.0306C50.9693 46.4274 50.8008 47.1479 49.9126 47.0455C49.3055 46.9754 49.163 46.177 49.5323 45.7723C50.1748 45.0684 51.1016 44.7235 51.689 45.2699Z" fill="#0383B0"/>
<path fill-rule="evenodd" clip-rule="evenodd" d="M53.8709 49.6077C49.811 54.4644 44.9614 58.7369 39.3205 62.425C41.8559 61.5621 44.2693 60.6951 46.6102 59.9809C47.389 59.7432 47.7315 59.9613 47.5953 60.4754C47.4953 60.3739 47.363 60.3439 47.1976 60.3825C46.6591 60.5077 46.5283 61.1369 47.1299 61.5321C47.6354 61.8644 48.2921 61.1093 48.3228 60.518C48.3575 59.8526 47.4756 59.3621 45.4984 59.029C47.7906 58.1447 50.5535 56.6061 53.7858 54.4117C52.5331 54.7353 51.2362 54.8652 49.8961 54.8006C53.9315 53.0715 57.015 50.8668 59.148 48.1872C57.6992 49.2187 55.9402 49.692 53.8709 49.6077Z" fill="#F4C60A"/>
</svg>
