<svg width="108" height="108" viewBox="0 0 108 108" fill="none" xmlns="http://www.w3.org/2000/svg">
<path d="M14.9123 63.7106C14.9123 63.7106 40.4275 98.7541 79.2936 84.1982C79.2936 84.1982 84.8297 79.3211 88.3134 72.3538C88.3134 72.3538 50.8784 97.2288 14.1402 50.6234C14.1402 50.6234 13.5188 56.2537 14.8934 63.6918" fill="#003C5D"/>
<path d="M15.0626 45.5392C15.0626 45.5392 15.1003 45.5769 15.1003 45.5957C15.7405 46.4431 24.685 57.9485 40.0883 64.897C53.0248 70.7156 70.4807 73.3142 91.4013 63.7106C91.4201 63.5976 91.4578 63.5035 91.4766 63.3905C91.6461 62.4678 92.1733 59.5303 92.3617 56.3667C92.3617 56.2726 92.3617 56.1596 92.3617 56.0655L92.1545 50.6423C92.0039 50.7929 91.8344 50.9247 91.6838 51.0754C89.5371 52.9961 80.0277 60.7166 65.5847 60.7166C53.232 60.7166 37.2826 55.0298 19.2242 35.239C19.2242 35.239 19.2242 35.2766 19.2053 35.2766L15.0626 45.5392Z" fill="#003C5D"/>
<path d="M31.1065 22.5095C44.1936 37.329 56.151 41.9613 65.6227 42.3568C77.467 42.8464 85.4135 36.67 86.8634 35.4648C86.9387 35.4083 87.0141 35.333 87.1082 35.2577C87.1836 35.3707 87.2589 35.4648 87.3342 35.5966C88.9348 37.9693 90.1776 41.6977 90.799 43.8632C90.8555 44.0515 90.912 44.2398 90.9685 44.4281C91.025 44.5976 91.0626 44.7671 91.1003 44.8989C91.1379 45.0495 91.1756 45.219 91.2321 45.3885C91.2321 45.445 91.2509 45.5015 91.2698 45.558C68.4849 54.6343 51.594 51.9227 40.1639 46.5936C27.5852 40.7374 21.5782 31.7176 21.5782 31.7176L31.1253 22.5471L31.1065 22.5095Z" fill="#003C5D"/>
<mask id="mask0_801_7400" style="mask-type:luminance" maskUnits="userSpaceOnUse" x="15" y="35" width="77" height="28">
<path d="M53.1756 48.2508C40.1449 48.2508 28.244 43.3361 19.2431 35.239C17.3977 38.4025 15.9854 41.8673 15.0815 45.5392C24.5909 55.8018 38.1488 62.223 53.1944 62.223C68.2399 62.223 81.7978 55.8018 91.2884 45.5392C90.3845 41.8861 88.9722 38.4213 87.1269 35.239C78.1259 43.3361 66.2251 48.2508 53.1944 48.2508" fill="white"/>
</mask>
<g mask="url(#mask0_801_7400)">
<path d="M91.2507 35.239H15.0627V62.223H91.2507V35.239Z" fill="url(#paint0_radial_801_7400)"/>
</g>
<mask id="mask1_801_7400" style="mask-type:luminance" maskUnits="userSpaceOnUse" x="14" y="50" width="79" height="31">
<path d="M53.1756 66.4222C38.3184 66.4222 24.7981 60.6224 14.7427 51.1695V62.8444C14.7992 63.1269 14.8556 63.4093 14.931 63.6918C24.4215 74.0485 38.0548 80.5639 53.1944 80.5639C68.3341 80.5639 81.9485 74.0485 91.4391 63.6918C92.0793 60.886 92.4183 57.9485 92.4183 54.9356C92.4183 53.4856 92.343 52.0357 92.1735 50.6234C82.0804 60.3964 68.3153 66.4222 53.1756 66.4222Z" fill="white"/>
</mask>
<g mask="url(#mask1_801_7400)">
<path d="M92.4183 50.6423H14.7427V80.5639H92.4183V50.6423Z" fill="url(#paint1_radial_801_7400)"/>
</g>
<mask id="mask2_801_7400" style="mask-type:luminance" maskUnits="userSpaceOnUse" x="18" y="72" width="71" height="23">
<path d="M53.1758 84.7819C39.8815 84.7819 27.6417 80.1308 18.0194 72.3726C24.2899 85.0079 37.1888 93.8017 52.1778 94.1783C52.5168 94.1783 52.8557 94.1783 53.1947 94.1783C53.5336 94.1783 53.8726 94.1783 54.2115 94.1783C69.2006 93.8017 82.0806 85.0079 88.3511 72.3726C78.7288 80.1308 66.489 84.7819 53.1947 84.7819" fill="white"/>
</mask>
<g mask="url(#mask2_801_7400)">
<path d="M88.3511 72.3538H18.0194V94.1783H88.3511V72.3538Z" fill="url(#paint2_radial_801_7400)"/>
</g>
<mask id="mask3_801_7400" style="mask-type:luminance" maskUnits="userSpaceOnUse" x="21" y="13" width="74" height="32">
<path d="M84.0953 13.0377C81.798 16.559 78.8981 19.666 75.5651 22.2269C75.4521 22.3211 75.3391 22.4152 75.2073 22.4906C75.2073 22.4906 75.1697 22.5094 75.1508 22.5282C68.9933 27.104 61.4046 29.8156 53.1569 29.8156C44.9091 29.8156 37.264 27.0852 31.1064 22.4906C27.4345 24.995 24.1956 28.102 21.5594 31.6798C29.8824 39.3438 40.9736 44.0326 53.1569 44.0326C65.3402 44.0326 76.2995 39.4003 84.5849 31.8116C84.6414 31.7552 84.6979 31.7175 84.7544 31.661C84.8485 31.5857 84.9427 31.4915 85.018 31.3974C88.5769 28.0644 91.6275 24.1665 94.0001 19.8543L92.8515 13H84.0765L84.0953 13.0377Z" fill="white"/>
</mask>
<g mask="url(#mask3_801_7400)">
<path d="M94.0378 13.0377H21.5782V44.0515H94.0378V13.0377Z" fill="url(#paint3_radial_801_7400)"/>
</g>
<mask id="mask4_801_7400" style="mask-type:luminance" maskUnits="userSpaceOnUse" x="35" y="15" width="37" height="11">
<path d="M35.0793 20.1368C40.2577 23.6016 46.4906 25.6165 53.1754 25.6165C59.8602 25.6165 66.0931 23.6016 71.2714 20.1368C65.8483 17.3123 59.7096 15.7117 53.1754 15.7117C46.6412 15.7117 40.5025 17.3123 35.0793 20.1368Z" fill="white"/>
</mask>
<g mask="url(#mask4_801_7400)">
<path d="M71.2714 15.7117H35.0793V25.5977H71.2714V15.7117Z" fill="url(#paint4_radial_801_7400)"/>
</g>
<mask id="mask5_801_7400" style="mask-type:luminance" maskUnits="userSpaceOnUse" x="21" y="13" width="74" height="32">
<path d="M84.0953 13.0377C81.798 16.559 78.8981 19.666 75.5651 22.2269C75.4521 22.3211 75.3391 22.4152 75.2073 22.4906C75.2073 22.4906 75.1697 22.5094 75.1508 22.5282C68.9933 27.104 61.4046 29.8156 53.1569 29.8156C44.9091 29.8156 37.264 27.0852 31.1064 22.4906C27.4345 24.995 24.1956 28.102 21.5594 31.6798C29.8824 39.3438 40.9736 44.0326 53.1569 44.0326C65.3402 44.0326 76.2995 39.4003 84.5849 31.8116C84.6414 31.7552 84.6979 31.7175 84.7544 31.661C84.8485 31.5857 84.9427 31.4915 85.018 31.3974C88.5769 28.0644 91.6275 24.1665 94.0001 19.8543L92.8515 13H84.0765L84.0953 13.0377Z" fill="white"/>
</mask>
<g mask="url(#mask5_801_7400)">
<path d="M94.0378 13.0377H21.5782V44.0515H94.0378V13.0377Z" fill="url(#paint5_radial_801_7400)"/>
</g>
<defs>
<radialGradient id="paint0_radial_801_7400" cx="0" cy="0" r="1" gradientUnits="userSpaceOnUse" gradientTransform="translate(93.0893 5.09889) scale(83.9085 83.9086)">
<stop stop-color="white"/>
<stop offset="0.21" stop-color="#86B9D7"/>
<stop offset="0.41" stop-color="#0A71AF"/>
<stop offset="1" stop-color="#0F4E8B"/>
</radialGradient>
<radialGradient id="paint1_radial_801_7400" cx="0" cy="0" r="1" gradientUnits="userSpaceOnUse" gradientTransform="translate(26641.6 64808.9) scale(83.9273 83.9274)">
<stop stop-color="white"/>
<stop offset="0.21" stop-color="#86B9D7"/>
<stop offset="0.41" stop-color="#0A71AF"/>
<stop offset="1" stop-color="#0F4E8B"/>
</radialGradient>
<radialGradient id="paint2_radial_801_7400" cx="0" cy="0" r="1" gradientUnits="userSpaceOnUse" gradientTransform="translate(26642 64809.9) scale(83.9273 83.9274)">
<stop stop-color="white"/>
<stop offset="0.21" stop-color="#86B9D7"/>
<stop offset="0.41" stop-color="#0A71AF"/>
<stop offset="1" stop-color="#0F4E8B"/>
</radialGradient>
<radialGradient id="paint3_radial_801_7400" cx="0" cy="0" r="1" gradientUnits="userSpaceOnUse" gradientTransform="translate(26645.4 64818.4) scale(83.9462 83.9463)">
<stop stop-color="white"/>
<stop offset="0.21" stop-color="#86B9D7"/>
<stop offset="0.41" stop-color="#0A71AF"/>
<stop offset="1" stop-color="#0F4E8B"/>
</radialGradient>
<radialGradient id="paint4_radial_801_7400" cx="0" cy="0" r="1" gradientUnits="userSpaceOnUse" gradientTransform="translate(26645.5 64818.5) scale(83.9462 83.9463)">
<stop stop-color="white"/>
<stop offset="0.21" stop-color="#86B9D7"/>
<stop offset="0.41" stop-color="#0A71AF"/>
<stop offset="1" stop-color="#0F4E8B"/>
</radialGradient>
<radialGradient id="paint5_radial_801_7400" cx="0" cy="0" r="1" gradientUnits="userSpaceOnUse" gradientTransform="translate(101.701 -3.0398) scale(121.701 121.701)">
<stop stop-color="#D9E9F7"/>
<stop offset="0.12" stop-color="#D9E9F7"/>
<stop offset="0.24" stop-color="#A3CAE7"/>
<stop offset="0.44" stop-color="#4C99CF"/>
<stop offset="0.58" stop-color="#157ABF"/>
<stop offset="0.65" stop-color="#006FBA"/>
<stop offset="1" stop-color="#00305A"/>
</radialGradient>
</defs>
</svg>
