<svg width="109" height="108" viewBox="0 0 109 108" fill="none" xmlns="http://www.w3.org/2000/svg">
<path d="M18.673 47.2199C18.46 47.5175 18.0452 47.5848 17.7487 47.3707C17.4511 47.1577 17.3838 46.743 17.5978 46.4464C18.3489 45.4028 19.0755 44.7068 19.9153 44.3277C20.7805 43.9363 21.7201 43.8935 22.8707 44.1697C23.6177 44.3481 24.2791 44.3042 24.859 44.0219C25.4613 43.7284 26.0025 43.171 26.4845 42.3323C26.6669 42.0153 27.0725 41.9063 27.3895 42.0877C27.7064 42.2701 27.8154 42.6757 27.633 42.9926C27.0114 44.0739 26.2817 44.8077 25.4409 45.2174C24.5767 45.6393 23.6198 45.7116 22.564 45.4589C21.714 45.2551 21.0445 45.2744 20.4605 45.5384C19.8501 45.8146 19.2865 46.369 18.673 47.2199Z" fill="#4198FF"/>
<path d="M15.7003 56.984C15.4873 57.2806 15.0725 57.3489 14.7759 57.1349C14.4783 56.9208 14.4111 56.5061 14.6251 56.2095C15.3762 55.1659 16.1028 54.4709 16.9425 54.0908C17.8078 53.6994 18.7474 53.6576 19.898 53.9328C20.645 54.1122 21.3064 54.0683 21.8863 53.7861C22.4886 53.4925 23.0287 52.9351 23.5117 52.0964C23.6942 51.7784 24.0998 51.6694 24.4167 51.8518C24.7337 52.0342 24.8427 52.4388 24.6603 52.7557C24.0386 53.837 23.3089 54.5718 22.4682 54.9815C21.604 55.4024 20.647 55.4747 19.5912 55.222C18.7413 55.0182 18.0717 55.0385 17.4878 55.3025C16.8773 55.5787 16.3138 56.132 15.7003 56.984Z" fill="#4198FF"/>
<path d="M19.4638 49.0329C19.2498 49.3305 18.8361 49.3978 18.5385 49.1837C18.2419 48.9697 18.1736 48.556 18.3876 48.2584C19.1387 47.2148 19.8664 46.5198 20.7051 46.1407C21.5714 45.7483 22.511 45.7065 23.6605 45.9817C24.4075 46.1611 25.07 46.1172 25.6488 45.8349C26.2521 45.5414 26.7923 44.984 27.2753 44.1453C27.4577 43.8283 27.8623 43.7182 28.1793 43.9007C28.4962 44.0831 28.6063 44.4877 28.4239 44.8056C27.8012 45.8869 27.0725 46.6207 26.2307 47.0304C25.3665 47.4523 24.4096 47.5236 23.3538 47.2709C22.5038 47.067 21.8343 47.0874 21.2514 47.3514C20.6409 47.6276 20.0763 48.182 19.4638 49.0329Z" fill="#4198FF"/>
<path d="M16.4911 58.797C16.2771 59.0936 15.8623 59.1608 15.5657 58.9468C15.2681 58.7338 15.2009 58.3191 15.4149 58.0225C16.166 56.9789 16.8936 56.2839 17.7324 55.9038C18.5986 55.5124 19.5372 55.4696 20.6878 55.7458C21.4348 55.9241 22.0962 55.8813 22.6761 55.599C23.2794 55.3045 23.8195 54.7471 24.3026 53.9083C24.485 53.5914 24.8896 53.4824 25.2065 53.6648C25.5235 53.8462 25.6335 54.2518 25.4511 54.5687C24.8284 55.65 24.0998 56.3848 23.258 56.7945C22.3938 57.2154 21.4368 57.2877 20.381 57.035C19.5311 56.8312 18.8615 56.8505 18.2776 57.1145C17.6671 57.3906 17.1036 57.945 16.4911 58.797Z" fill="#4198FF"/>
<path d="M20.325 51.009C20.111 51.3055 19.6972 51.3738 19.3996 51.1598C19.1031 50.9458 19.0348 50.531 19.2488 50.2344C19.9999 49.1909 20.7275 48.4958 21.5663 48.1167C22.4325 47.7244 23.3721 47.6826 24.5217 47.9578C25.2697 48.1371 25.9311 48.0933 26.51 47.811C27.1133 47.5175 27.6534 46.96 28.1365 46.1213C28.3189 45.8034 28.7235 45.6943 29.0404 45.8767C29.3584 46.0591 29.4674 46.4637 29.285 46.7807C28.6623 47.862 27.9337 48.5967 27.0929 49.0064C26.2277 49.4273 25.2717 49.4997 24.2159 49.2469C23.365 49.0431 22.6965 49.0635 22.1125 49.3274C21.5021 49.6036 20.9375 50.157 20.325 51.009Z" fill="#4198FF"/>
<path d="M17.3522 60.7721C17.1382 61.0696 16.7245 61.1369 16.4269 60.9229C16.1303 60.7089 16.062 60.2951 16.276 59.9975C17.0271 58.955 17.7548 58.2589 18.5935 57.8798C19.4598 57.4885 20.3994 57.4457 21.5489 57.7208C22.2959 57.9002 22.9584 57.8564 23.5372 57.5741C24.1405 57.2806 24.6807 56.7231 25.1637 55.8844C25.3461 55.5675 25.7507 55.4584 26.0677 55.6398C26.3846 55.8222 26.4947 56.2268 26.3123 56.5448C25.6896 57.6261 24.9609 58.3598 24.1191 58.7695C23.2549 59.1914 22.298 59.2628 21.2422 59.01C20.3922 58.8072 19.7237 58.8266 19.1398 59.0905C18.5293 59.3667 17.9647 59.9211 17.3522 60.7721Z" fill="#4198FF"/>
<path d="M21.1046 52.7985C20.8916 53.0951 20.4768 53.1624 20.1803 52.9494C19.8827 52.7353 19.8154 52.3206 20.0294 52.024C20.7805 50.9804 21.5071 50.2854 22.3469 49.9053C23.2121 49.5139 24.1517 49.4722 25.3023 49.7473C26.0493 49.9267 26.7107 49.8829 27.2906 49.6006C27.8929 49.3071 28.434 48.7496 28.9161 47.9109C29.0985 47.5929 29.5041 47.4839 29.8211 47.6663C30.138 47.8487 30.247 48.2533 30.0656 48.5702C29.443 49.6515 28.7133 50.3863 27.8725 50.796C27.0083 51.2169 26.0514 51.2892 24.9956 51.0365C24.1456 50.8327 23.4761 50.853 22.8921 51.117C22.2817 51.3932 21.7181 51.9466 21.1046 52.7985Z" fill="#4198FF"/>
<path d="M18.1319 62.5616C17.9189 62.8592 17.5041 62.9265 17.2075 62.7124C16.9099 62.4984 16.8427 62.0847 17.0567 61.7871C17.8078 60.7435 18.5344 60.0485 19.3741 59.6694C20.2394 59.277 21.179 59.2352 22.3296 59.5104C23.0766 59.6898 23.738 59.6459 24.3179 59.3636C24.9202 59.0701 25.4603 58.5127 25.9433 57.674C26.1258 57.357 26.5314 57.247 26.8483 57.4294C27.1653 57.6118 27.2743 58.0164 27.0919 58.3343C26.4702 59.4156 25.7405 60.1494 24.8998 60.5591C24.0356 60.981 23.0786 61.0523 22.0228 60.7996C21.1729 60.5958 20.5033 60.6161 19.9194 60.8801C19.3089 61.1563 18.7454 61.7107 18.1319 62.5616Z" fill="#4198FF"/>
<path fill-rule="evenodd" clip-rule="evenodd" d="M41.3207 48.0444C41.2963 48.2227 41.2484 48.3929 41.177 48.5519C41.1057 48.7129 41.0129 48.8586 40.8998 48.9911C40.7867 49.1236 40.6552 49.2408 40.5064 49.3417C40.3587 49.4436 40.1966 49.5262 40.0213 49.5863C40.1508 49.6097 40.268 49.6536 40.3699 49.7147C40.4749 49.7748 40.5584 49.8533 40.6257 49.946C40.6919 50.0418 40.7398 50.1539 40.7653 50.2834C40.7918 50.4118 40.7938 50.5575 40.7724 50.7195C40.7521 50.8653 40.7113 51.0171 40.6512 51.1741C40.591 51.33 40.5085 51.4839 40.4025 51.6316C40.2985 51.7815 40.1681 51.9252 40.0132 52.0607C39.8593 52.1962 39.6779 52.3145 39.471 52.4153C39.2652 52.5183 39.0318 52.5998 38.7729 52.6589C38.512 52.718 38.2155 52.7476 37.8822 52.7476H36.2415C36.1171 52.7476 36.0305 52.716 35.9826 52.6559C35.9347 52.5947 35.9327 52.4999 35.9775 52.3695L37.7019 47.2179C37.7457 47.0844 37.8109 46.9876 37.9036 46.9284C37.9954 46.8693 38.0962 46.8398 38.2063 46.8398H39.631C39.9439 46.8398 40.2099 46.8642 40.431 46.9132C40.6522 46.9611 40.8336 47.0344 40.9742 47.1343C41.1159 47.2321 41.2158 47.3575 41.2749 47.5083C41.334 47.6592 41.3482 47.8365 41.3207 48.0444ZM40.056 48.2686C40.0682 48.183 40.0621 48.1076 40.0417 48.0444C40.0183 47.9802 39.9816 47.9241 39.9266 47.8793C39.8705 47.8334 39.7992 47.7978 39.7085 47.7743C39.6198 47.7499 39.5036 47.7376 39.3599 47.7376H38.7057L38.1931 49.2704H38.8677C39.0654 49.2704 39.2336 49.2388 39.3732 49.1766C39.5118 49.1144 39.63 49.035 39.7258 48.9351C39.8236 48.8372 39.8991 48.7282 39.9531 48.61C40.0071 48.4907 40.0417 48.3776 40.056 48.2686ZM39.5118 50.7797C39.5373 50.585 39.4863 50.4311 39.3569 50.319C39.2295 50.2049 39.0073 50.1488 38.6914 50.1488H37.8965L37.3329 51.8314H38.1808C38.3959 51.8314 38.5824 51.8008 38.7362 51.7397C38.8932 51.6785 39.0247 51.599 39.1327 51.5032C39.2427 51.4044 39.3284 51.2923 39.3905 51.1659C39.4527 51.0406 39.4934 50.9111 39.5118 50.7797ZM45.974 52.3002C45.975 52.4113 45.9689 52.4969 45.9587 52.5611C45.9485 52.6243 45.922 52.6732 45.8772 52.7058C45.8313 52.7364 45.763 52.7567 45.6682 52.7649C45.5735 52.772 45.4451 52.7761 45.283 52.7761C45.1648 52.7761 45.07 52.7741 44.9967 52.77C44.9233 52.7649 44.8672 52.7557 44.8285 52.7435C44.7908 52.7323 44.7653 52.7129 44.7531 52.6885C44.7409 52.665 44.7358 52.6304 44.7388 52.5886V51.4013H42.5263L41.76 52.5611C41.7324 52.6039 41.7039 52.6406 41.6723 52.6681C41.6417 52.6976 41.5989 52.719 41.5449 52.7353C41.4919 52.7496 41.4206 52.7598 41.334 52.7659C41.2453 52.772 41.1363 52.7761 41.0048 52.7761C40.8652 52.7761 40.7551 52.771 40.6787 52.7618C40.6022 52.7527 40.5533 52.7303 40.5319 52.6966C40.5115 52.6599 40.5146 52.612 40.5421 52.5478C40.5717 52.4826 40.6216 52.399 40.694 52.291L44.2639 47.0487C44.3026 46.9967 44.3393 46.9549 44.373 46.9244C44.4086 46.8907 44.4555 46.8683 44.5156 46.851C44.5737 46.8337 44.6512 46.8225 44.75 46.8184C44.8468 46.8133 44.9742 46.8113 45.1312 46.8113C45.3085 46.8113 45.4491 46.8133 45.5521 46.8184C45.655 46.8225 45.7345 46.8337 45.7895 46.851C45.8446 46.8683 45.8792 46.8928 45.8914 46.9254C45.9057 46.96 45.9118 47.0049 45.9108 47.063L45.974 52.3002ZM44.7643 47.9679H44.7602L43.1062 50.476H44.7633L44.7643 47.9679ZM51.6535 52.3287C51.6321 52.399 51.6005 52.4612 51.5567 52.5152C51.5149 52.5703 51.467 52.6151 51.415 52.6528C51.362 52.6885 51.307 52.715 51.2469 52.7323C51.1888 52.7496 51.1286 52.7567 51.0675 52.7567H50.5539C50.4448 52.7567 50.3572 52.7455 50.2899 52.7262C50.2247 52.7038 50.1707 52.665 50.1279 52.611C50.0851 52.556 50.0504 52.4816 50.0239 52.3878C49.9974 52.2931 49.973 52.1728 49.9516 52.026L49.4308 49.3876C49.3911 49.1827 49.3564 48.9789 49.3289 48.772C49.3004 48.5641 49.2739 48.3583 49.2494 48.1544H49.2433C49.1801 48.395 49.1139 48.6314 49.0415 48.8648C48.9712 49.0971 48.8948 49.3305 48.8142 49.5659L47.8023 52.5845C47.7921 52.6141 47.7737 52.6416 47.7472 52.6671C47.7228 52.6895 47.6851 52.7099 47.6362 52.7262C47.5893 52.7394 47.5281 52.7527 47.4558 52.7618C47.3824 52.771 47.2937 52.7761 47.1857 52.7761C47.0797 52.7761 46.9931 52.771 46.9258 52.7618C46.8606 52.7527 46.8086 52.7394 46.775 52.7262C46.7393 52.7099 46.719 52.6895 46.7108 52.6671C46.7057 52.6416 46.7077 52.6141 46.721 52.5845L48.5044 47.2699C48.5503 47.1262 48.6267 47.0192 48.7337 46.9468C48.8397 46.8755 48.9539 46.8398 49.0751 46.8398H49.7019C49.8028 46.8398 49.8874 46.851 49.9567 46.8744C50.026 46.8979 50.082 46.9335 50.1248 46.9835C50.1676 47.0344 50.2043 47.0986 50.2308 47.1781C50.2593 47.2576 50.2818 47.3534 50.2991 47.4696L50.8178 50.1315C50.8525 50.3017 50.881 50.4719 50.9065 50.638C50.9309 50.8062 50.9564 50.9733 50.985 51.1415H51.0013C51.0644 50.9213 51.1327 50.6961 51.2051 50.4637C51.2764 50.2304 51.3488 50.0041 51.4211 49.784L52.3577 46.9998C52.3689 46.9692 52.3842 46.9427 52.4097 46.9193C52.4341 46.8958 52.4698 46.8785 52.5146 46.8642C52.5605 46.851 52.6186 46.8398 52.6889 46.8316C52.7592 46.8245 52.8479 46.8214 52.9529 46.8214C53.0599 46.8214 53.1485 46.8245 53.2188 46.8316C53.2881 46.8398 53.3391 46.851 53.3748 46.8642C53.4094 46.8785 53.4318 46.8958 53.441 46.9193C53.4502 46.9427 53.4502 46.9692 53.439 46.9998L51.6535 52.3287ZM58.935 47.0039C58.9279 47.0579 58.9004 47.116 58.8525 47.1781C58.8036 47.2383 58.7292 47.3167 58.6293 47.4146L56.2354 49.6301L57.1251 52.2645C57.1414 52.3257 57.1516 52.3766 57.1577 52.4225C57.1648 52.4653 57.1648 52.506 57.1608 52.5417C57.1547 52.5855 57.1404 52.6212 57.1159 52.6497C57.0915 52.6793 57.0548 52.7027 57.0038 52.7211C56.9529 52.7394 56.8856 52.7527 56.802 52.7618C56.7185 52.771 56.6115 52.7761 56.4851 52.7761C56.3557 52.7761 56.2517 52.772 56.1733 52.7649C56.0958 52.7567 56.0347 52.7445 55.9898 52.7303C55.947 52.715 55.9154 52.6936 55.8971 52.6671C55.8808 52.6385 55.8675 52.608 55.8604 52.5703L54.989 49.7708L54.0555 52.5845C54.0464 52.6171 54.027 52.6446 53.9995 52.6681C53.973 52.6915 53.9332 52.7099 53.8813 52.7272C53.8283 52.7445 53.7631 52.7567 53.6836 52.7649C53.6061 52.772 53.5093 52.7761 53.3941 52.7761C53.2759 52.7761 53.1781 52.772 53.1047 52.7649C53.0303 52.7567 52.9732 52.7445 52.9335 52.7272C52.8917 52.7099 52.8662 52.6915 52.854 52.6681C52.8418 52.6446 52.8428 52.6171 52.856 52.5845L54.7231 46.9988C54.7312 46.9662 54.7485 46.9376 54.7771 46.9142C54.8036 46.8907 54.8433 46.8724 54.8963 46.8571C54.9483 46.8428 55.0155 46.8306 55.095 46.8225C55.1735 46.8153 55.2734 46.8113 55.3916 46.8113C55.5078 46.8113 55.6015 46.8153 55.6739 46.8225C55.7462 46.8306 55.8033 46.8428 55.8441 46.8571C55.8838 46.8724 55.9093 46.8907 55.9215 46.9142C55.9338 46.9376 55.9348 46.9662 55.9246 46.9988L55.0818 49.5241L57.6092 47.0171C57.6448 46.9814 57.6826 46.9488 57.7203 46.9203C57.76 46.8948 57.8079 46.8724 57.866 46.8571C57.9231 46.8428 57.9913 46.8306 58.0729 46.8225C58.1544 46.8153 58.2543 46.8113 58.3725 46.8113C58.4927 46.8113 58.5906 46.8153 58.667 46.8225C58.7424 46.8306 58.7995 46.8428 58.8413 46.8602C58.881 46.8755 58.9075 46.8958 58.9218 46.9193C58.934 46.9427 58.9401 46.9702 58.935 47.0039Z" fill="#4198FF"/>
<path fill-rule="evenodd" clip-rule="evenodd" d="M38.8249 55.1639C38.8198 55.1894 38.8106 55.2261 38.7974 55.274C38.7841 55.3219 38.7678 55.3738 38.7475 55.4319C38.7281 55.489 38.7047 55.5481 38.6792 55.6062C38.6547 55.6653 38.6272 55.7193 38.5966 55.7692C38.5671 55.8182 38.5355 55.8589 38.5039 55.8915C38.4723 55.9221 38.4417 55.9384 38.4122 55.9384C38.3684 55.9384 38.3164 55.9191 38.2573 55.8783C38.1971 55.8375 38.1217 55.7957 38.0341 55.7478C37.9454 55.701 37.8384 55.6582 37.7151 55.6184C37.5928 55.5766 37.4491 55.5573 37.283 55.5573C37.1128 55.5573 36.963 55.5817 36.8366 55.6296C36.7092 55.6765 36.6002 55.7397 36.5095 55.8182C36.4208 55.8966 36.3485 55.9822 36.2955 56.0801C36.2415 56.1759 36.2058 56.2757 36.1885 56.3736C36.1681 56.4867 36.1793 56.5876 36.2211 56.6763C36.2618 56.7639 36.325 56.8434 36.4076 56.9188C36.4901 56.9932 36.5859 57.0666 36.696 57.1369C36.8061 57.2062 36.9182 57.2785 37.0303 57.355C37.1424 57.4314 37.2524 57.514 37.3584 57.6057C37.4644 57.6964 37.5551 57.8003 37.6295 57.9196C37.7049 58.0398 37.7569 58.1754 37.7864 58.3293C37.816 58.4842 37.814 58.6615 37.7783 58.8622C37.7263 59.1598 37.6162 59.438 37.4491 59.6938C37.283 59.9496 37.0731 60.1708 36.8183 60.3614C36.5615 60.5499 36.268 60.6977 35.9347 60.8057C35.6015 60.9147 35.2438 60.9688 34.8616 60.9688C34.6547 60.9688 34.4682 60.9524 34.299 60.9178C34.1309 60.8852 33.9831 60.8434 33.8567 60.7955C33.7314 60.7486 33.6264 60.6977 33.5449 60.6447C33.4613 60.5927 33.4022 60.5417 33.3666 60.4949C33.3309 60.4459 33.3207 60.3746 33.338 60.2778C33.3421 60.2533 33.3523 60.2146 33.3676 60.1637C33.3839 60.1117 33.4012 60.0566 33.4236 59.9986C33.445 59.9394 33.4685 59.8793 33.495 59.8161C33.5225 59.754 33.552 59.6969 33.5816 59.647C33.6132 59.596 33.6448 59.5542 33.6774 59.5216C33.71 59.49 33.7406 59.4737 33.7732 59.4737C33.8272 59.4737 33.8863 59.4982 33.9525 59.5491C34.0188 59.598 34.1013 59.651 34.2032 59.7101C34.3031 59.7703 34.4254 59.8253 34.5701 59.8763C34.7138 59.9262 34.8911 59.9527 35.1052 59.9527C35.2917 59.9527 35.4618 59.9282 35.6127 59.8814C35.7625 59.8335 35.8929 59.7682 36.003 59.6877C36.1141 59.6042 36.2017 59.5104 36.27 59.4003C36.3403 59.2913 36.3852 59.1731 36.4086 59.0426C36.429 58.9254 36.4188 58.8215 36.377 58.7338C36.3362 58.6442 36.2761 58.5626 36.1946 58.4872C36.1151 58.4128 36.0203 58.3415 35.9133 58.2742C35.8063 58.208 35.6962 58.1377 35.5862 58.0612C35.4761 57.9848 35.3691 57.9012 35.2662 57.8126C35.1622 57.7239 35.0736 57.6199 35.0022 57.5017C34.9288 57.3805 34.8779 57.2439 34.8494 57.088C34.8198 56.9331 34.8229 56.7506 34.8585 56.5438C34.9095 56.2594 35.0134 55.9955 35.1704 55.7529C35.3263 55.5124 35.523 55.3055 35.7554 55.1313C35.9897 54.959 36.2568 54.8235 36.5564 54.7257C36.855 54.6299 37.175 54.581 37.5133 54.581C37.6733 54.581 37.8241 54.5922 37.9627 54.6166C38.1013 54.6411 38.2287 54.6706 38.3408 54.7083C38.4519 54.744 38.5457 54.7848 38.6201 54.8296C38.6955 54.8745 38.7454 54.9111 38.7729 54.9427C38.8005 54.9713 38.8168 55.0039 38.8259 55.0365C38.8351 55.0712 38.8341 55.1129 38.8249 55.1639ZM43.896 58.584C43.7472 58.9774 43.5617 59.3239 43.3416 59.6205C43.1215 59.918 42.8667 60.1677 42.5803 60.3675C42.295 60.5682 41.9801 60.718 41.6366 60.8189C41.2932 60.9178 40.9243 60.9688 40.5309 60.9688C40.111 60.9688 39.7605 60.9168 39.4771 60.8138C39.1949 60.7099 38.9839 60.557 38.8443 60.3532C38.7047 60.1494 38.6374 59.8936 38.6415 59.5879C38.6456 59.2801 38.723 58.9254 38.8779 58.5219L40.2588 54.8592C40.271 54.8286 40.2904 54.799 40.32 54.7736C40.3485 54.7491 40.3903 54.7277 40.4463 54.7114C40.5014 54.6951 40.5717 54.6839 40.6552 54.6737C40.7378 54.6635 40.8428 54.6594 40.9681 54.6594C41.0873 54.6594 41.1852 54.6635 41.2616 54.6737C41.3401 54.6839 41.4002 54.6951 41.441 54.7114C41.4817 54.7277 41.5072 54.7491 41.5174 54.7736C41.5266 54.799 41.5256 54.8286 41.5143 54.8592L40.1324 58.5219C40.0387 58.7675 39.9867 58.9794 39.9755 59.1578C39.9663 59.3372 39.9949 59.4839 40.058 59.6011C40.1222 59.7163 40.2211 59.8029 40.3546 59.86C40.4881 59.915 40.6542 59.9425 40.856 59.9425C41.0578 59.9425 41.2514 59.9119 41.4359 59.8498C41.6193 59.7866 41.7885 59.6969 41.9434 59.5766C42.0973 59.4574 42.2359 59.3117 42.3602 59.1384C42.4835 58.9662 42.5885 58.7705 42.671 58.5514L44.0682 54.8592C44.0795 54.8286 44.0998 54.799 44.1284 54.7736C44.1579 54.7491 44.1966 54.7277 44.2507 54.7114C44.3026 54.6951 44.3709 54.6839 44.4555 54.6737C44.5391 54.6635 44.642 54.6594 44.7643 54.6594C44.8846 54.6594 44.9814 54.6635 45.0568 54.6737C45.1291 54.6839 45.1872 54.6951 45.23 54.7114C45.2718 54.7277 45.2973 54.7491 45.3075 54.7736C45.3177 54.799 45.3156 54.8286 45.3034 54.8592L43.896 58.584ZM51.6382 60.6946C51.6229 60.7262 51.6036 60.7547 51.5811 60.7812C51.5567 60.8057 51.52 60.8271 51.4721 60.8434C51.4222 60.8577 51.3579 60.8709 51.2764 60.8791C51.1959 60.8872 51.0971 60.8903 50.9788 60.8903C50.8545 60.8903 50.7557 60.8872 50.6813 60.8791C50.6058 60.8709 50.5498 60.8577 50.51 60.8434C50.4723 60.8271 50.4499 60.8057 50.4428 60.7812C50.4357 60.7547 50.4397 60.7262 50.452 60.6946L52.3424 55.6714H52.3332L48.6441 60.6895C48.5921 60.77 48.5085 60.823 48.3944 60.8495C48.2802 60.877 48.1223 60.8903 47.9215 60.8903C47.7146 60.8903 47.5699 60.8719 47.4853 60.8352C47.4018 60.7986 47.363 60.7537 47.3691 60.6997L47.5373 55.6663H47.5271L45.6305 60.6946C45.6183 60.7262 45.5979 60.7547 45.5745 60.7812C45.549 60.8057 45.5123 60.8271 45.4624 60.8434C45.4145 60.8577 45.3503 60.8709 45.2708 60.8791C45.1913 60.8872 45.0904 60.8903 44.9702 60.8903C44.8499 60.8903 44.751 60.8872 44.6767 60.8791C44.6012 60.8709 44.5452 60.8577 44.5065 60.8434C44.4677 60.8271 44.4453 60.8057 44.4361 60.7812C44.428 60.7547 44.4321 60.7262 44.4463 60.6946L46.5182 55.1945C46.5488 55.115 46.5865 55.0436 46.6303 54.9794C46.6751 54.9162 46.7261 54.8622 46.7832 54.8204C46.8402 54.7766 46.9024 54.744 46.9697 54.7226C47.0379 54.7002 47.1083 54.688 47.1816 54.688H47.9623C48.1029 54.688 48.2191 54.7002 48.3139 54.7247C48.4076 54.7491 48.482 54.7889 48.535 54.8459C48.589 54.903 48.6247 54.9784 48.642 55.0691C48.6583 55.1619 48.6614 55.274 48.6512 55.4044L48.5962 59.0773H48.6206L51.3895 55.4044C51.4751 55.279 51.5577 55.172 51.6362 55.0824C51.7167 54.9906 51.7992 54.9162 51.8879 54.8582C51.9765 54.799 52.0703 54.7552 52.1712 54.7287C52.2701 54.7012 52.3873 54.688 52.5167 54.688H53.4043C53.4838 54.688 53.5501 54.7002 53.6031 54.7226C53.656 54.744 53.6958 54.7766 53.7213 54.8204C53.7478 54.8622 53.758 54.9142 53.7549 54.9764C53.7518 55.0385 53.7376 55.1099 53.7111 55.1894L51.6382 60.6946ZM58.2818 55.1639C58.2767 55.1894 58.2675 55.2261 58.2533 55.274C58.24 55.3219 58.2247 55.3738 58.2043 55.4319C58.185 55.489 58.1615 55.5481 58.1361 55.6062C58.1106 55.6653 58.0841 55.7193 58.0535 55.7692C58.024 55.8182 57.9924 55.8589 57.9608 55.8915C57.9292 55.9221 57.8986 55.9384 57.8691 55.9384C57.8252 55.9384 57.7733 55.9191 57.7131 55.8783C57.654 55.8375 57.5786 55.7957 57.491 55.7478C57.4013 55.701 57.2953 55.6582 57.172 55.6184C57.0487 55.5766 56.906 55.5573 56.7399 55.5573C56.5687 55.5573 56.4199 55.5817 56.2925 55.6296C56.1651 55.6765 56.0571 55.7397 55.9664 55.8182C55.8777 55.8966 55.8054 55.9822 55.7524 56.0801C55.6973 56.1759 55.6627 56.2757 55.6454 56.3736C55.625 56.4867 55.6362 56.5876 55.678 56.6763C55.7187 56.7639 55.7809 56.8434 55.8645 56.9188C55.947 56.9932 56.0428 57.0666 56.1529 57.1369C56.2619 57.2062 56.375 57.2785 56.4871 57.355C56.5982 57.4314 56.7093 57.514 56.8153 57.6057C56.9213 57.6964 57.012 57.8003 57.0864 57.9196C57.1608 58.0398 57.2138 58.1754 57.2433 58.3293C57.2729 58.4842 57.2708 58.6615 57.2352 58.8622C57.1822 59.1598 57.0731 59.438 56.906 59.6938C56.7399 59.9496 56.5299 60.1708 56.2741 60.3614C56.0183 60.5499 55.7248 60.6977 55.3916 60.8057C55.0583 60.9147 54.7006 60.9688 54.3174 60.9688C54.1116 60.9688 53.9251 60.9524 53.7559 60.9178C53.5867 60.8852 53.44 60.8434 53.3136 60.7955C53.1883 60.7486 53.0833 60.6977 53.0018 60.6447C52.9182 60.5927 52.8581 60.5417 52.8234 60.4949C52.7878 60.4459 52.7776 60.3746 52.7949 60.2778C52.799 60.2533 52.8092 60.2146 52.8244 60.1637C52.8408 60.1117 52.8581 60.0566 52.8795 59.9986C52.9019 59.9394 52.9253 59.8793 52.9508 59.8161C52.9783 59.754 53.0079 59.6969 53.0385 59.647C53.0701 59.596 53.1016 59.5542 53.1332 59.5216C53.1669 59.49 53.1974 59.4737 53.2301 59.4737C53.2841 59.4737 53.3432 59.4982 53.4084 59.5491C53.4746 59.598 53.5582 59.651 53.6601 59.7101C53.76 59.7703 53.8823 59.8253 54.026 59.8763C54.1707 59.9262 54.348 59.9527 54.561 59.9527C54.7485 59.9527 54.9187 59.9282 55.0685 59.8814C55.2183 59.8335 55.3488 59.7682 55.4599 59.6877C55.571 59.6042 55.6586 59.5104 55.7269 59.4003C55.7972 59.2913 55.842 59.1731 55.8655 59.0426C55.8859 58.9254 55.8757 58.8215 55.8339 58.7338C55.7931 58.6442 55.732 58.5626 55.6515 58.4872C55.572 58.4128 55.4772 58.3415 55.3702 58.2742C55.2632 58.208 55.1531 58.1377 55.0431 58.0612C54.933 57.9848 54.825 57.9012 54.722 57.8126C54.6191 57.7239 54.5304 57.6199 54.4581 57.5017C54.3857 57.3805 54.3348 57.2439 54.3052 57.088C54.2757 56.9331 54.2787 56.7506 54.3154 56.5438C54.3664 56.2594 54.4693 55.9955 54.6273 55.7529C54.7832 55.5124 54.9799 55.3055 55.2122 55.1313C55.4466 54.959 55.7126 54.8235 56.0133 54.7257C56.3119 54.6299 56.6319 54.581 56.9702 54.581C57.1292 54.581 57.281 54.5922 57.4196 54.6166C57.5582 54.6411 57.6846 54.6706 57.7967 54.7083C57.9078 54.744 58.0015 54.7848 58.077 54.8296C58.1524 54.8745 58.2023 54.9111 58.2298 54.9427C58.2563 54.9713 58.2736 55.0039 58.2828 55.0365C58.291 55.0712 58.2899 55.1129 58.2818 55.1639ZM63.3274 54.8704C63.3233 54.8897 63.3162 54.9234 63.303 54.9713C63.2897 55.0192 63.2724 55.0722 63.252 55.1313C63.2326 55.1894 63.2092 55.2515 63.1817 55.3147C63.1542 55.3799 63.1246 55.437 63.09 55.491C63.0584 55.543 63.0217 55.5868 62.9819 55.6225C62.9422 55.6571 62.9035 55.6745 62.8658 55.6745H60.6614L60.0938 57.1787H61.9649C62.0087 57.1787 62.0382 57.195 62.0505 57.2266C62.0637 57.2582 62.0658 57.303 62.0556 57.3591C62.0525 57.3825 62.0443 57.4161 62.0311 57.462C62.0179 57.5078 62.0005 57.5619 61.9801 57.6199C61.9618 57.6791 61.9384 57.7371 61.9119 57.7973C61.8844 57.8574 61.8558 57.9135 61.8222 57.9654C61.7896 58.0154 61.7539 58.0561 61.7172 58.0887C61.6785 58.1193 61.6418 58.1356 61.6031 58.1356H59.734L59.0777 59.8742H61.3106C61.3483 59.8742 61.3748 59.8905 61.387 59.9252C61.4003 59.9578 61.4013 60.0067 61.3901 60.0719C61.386 60.0923 61.3779 60.128 61.3666 60.1759C61.3544 60.2248 61.3391 60.2778 61.3167 60.3369C61.2953 60.395 61.2708 60.4561 61.2443 60.5163C61.2178 60.5764 61.1873 60.6335 61.1557 60.6865C61.1221 60.7384 61.0864 60.7812 61.0497 60.8138C61.012 60.8444 60.9733 60.8607 60.9325 60.8607H57.8303C57.7794 60.8607 57.7335 60.8546 57.6958 60.8393C57.6561 60.8251 57.6255 60.8006 57.6051 60.768C57.5837 60.7344 57.5735 60.6936 57.5725 60.6447C57.5715 60.5937 57.5837 60.5356 57.6092 60.4653L59.6372 55.0844C59.6912 54.9438 59.7656 54.8429 59.8645 54.7817C59.9623 54.7196 60.0652 54.688 60.1712 54.688H63.2357C63.3182 54.688 63.3488 54.7491 63.3274 54.8704ZM65.9098 60.0159C65.9058 60.0393 65.8986 60.075 65.8844 60.1239C65.8711 60.1728 65.8528 60.2289 65.8303 60.2931C65.8079 60.3563 65.7814 60.4215 65.7529 60.4877C65.7233 60.555 65.6918 60.6172 65.6571 60.6722C65.6245 60.7272 65.5888 60.7731 65.5501 60.8087C65.5134 60.8434 65.4726 60.8607 65.4319 60.8607H62.6008C62.5508 60.8607 62.504 60.8546 62.4632 60.8393C62.4214 60.8251 62.3919 60.8006 62.3705 60.768C62.348 60.7344 62.3379 60.6936 62.3368 60.6447C62.3358 60.5937 62.348 60.5356 62.3735 60.4653L64.4902 54.8541C64.4994 54.8235 64.5188 54.794 64.5503 54.7685C64.5789 54.744 64.6217 54.7226 64.6777 54.7063C64.7328 54.692 64.8031 54.6788 64.8867 54.6706C64.9692 54.6625 65.0742 54.6594 65.1975 54.6594C65.3177 54.6594 65.4166 54.6625 65.493 54.6706C65.5715 54.6788 65.6316 54.692 65.6724 54.7063C65.7132 54.7226 65.7397 54.744 65.7498 54.7685C65.758 54.794 65.758 54.8235 65.7458 54.8541L63.8747 59.8253H65.8253C65.8691 59.8253 65.8966 59.8437 65.9088 59.8773C65.92 59.914 65.92 59.9588 65.9098 60.0159Z" fill="#4198FF"/>
<path fill-rule="evenodd" clip-rule="evenodd" d="M74.6151 55.9466C74.5815 56.1341 74.5244 56.3114 74.4429 56.4775C74.3613 56.6447 74.2574 56.7975 74.1341 56.9361C74.0097 57.0747 73.8681 57.197 73.7071 57.303C73.5481 57.408 73.3758 57.4946 73.1904 57.5578C73.3239 57.5822 73.4441 57.6281 73.5491 57.6913C73.6551 57.7555 73.7397 57.836 73.8049 57.9338C73.8711 58.0337 73.915 58.1509 73.9374 58.2854C73.9588 58.421 73.9547 58.5718 73.9241 58.742C73.8976 58.8949 73.8477 59.0528 73.7784 59.2169C73.7091 59.38 73.6153 59.541 73.4981 59.6959C73.383 59.8518 73.2403 60.0016 73.0722 60.1433C72.905 60.2849 72.7114 60.4082 72.4902 60.5142C72.2711 60.6212 72.0235 60.7058 71.7504 60.768C71.4752 60.8301 71.1644 60.8607 70.8158 60.8607H69.1017C68.9712 60.8607 68.8826 60.8281 68.8357 60.7649C68.7878 60.7017 68.7898 60.6019 68.8428 60.4653L70.8709 55.0844C70.9218 54.9438 70.9952 54.8429 71.0941 54.7817C71.1929 54.7196 71.2989 54.688 71.4151 54.688H72.903C73.2301 54.688 73.5063 54.7145 73.7356 54.7654C73.9639 54.8154 74.1504 54.8918 74.293 54.9957C74.4367 55.0987 74.5356 55.2291 74.5906 55.3871C74.6457 55.545 74.6538 55.7305 74.6151 55.9466ZM73.2841 56.181C73.3004 56.0913 73.2974 56.0138 73.279 55.9466C73.2576 55.8803 73.2209 55.8212 73.1659 55.7743C73.1088 55.7264 73.0365 55.6897 72.9427 55.6653C72.851 55.6388 72.7297 55.6255 72.5799 55.6255H71.8961L71.2938 57.2276H71.998C72.2049 57.2276 72.3822 57.195 72.53 57.1298C72.6788 57.0645 72.8051 56.982 72.9101 56.878C73.0161 56.7751 73.0997 56.661 73.1608 56.5377C73.224 56.4133 73.2637 56.2951 73.2841 56.181ZM72.6044 58.8052C72.6401 58.6014 72.5942 58.4403 72.4637 58.3231C72.3353 58.2039 72.106 58.1458 71.7758 58.1458H70.9453L70.2828 59.9038H71.1674C71.3927 59.9038 71.5883 59.8712 71.7534 59.808C71.9185 59.7438 72.0602 59.6612 72.1774 59.5603C72.2966 59.4574 72.3904 59.3402 72.4617 59.2087C72.532 59.0773 72.5799 58.9417 72.6044 58.8052ZM79.2897 60.394C79.2857 60.5091 79.2765 60.5988 79.2622 60.6661C79.249 60.7323 79.2194 60.7833 79.1705 60.8169C79.1206 60.8495 79.0492 60.8709 78.9494 60.8791C78.8505 60.8872 78.717 60.8903 78.5478 60.8903C78.4235 60.8903 78.3247 60.8882 78.2472 60.8842C78.1718 60.8791 78.1137 60.8689 78.0729 60.8556C78.0342 60.8444 78.0087 60.8251 77.9975 60.7986C77.9853 60.7741 77.9822 60.7384 77.9863 60.6946L78.0383 59.4543H75.7269L74.876 60.6661C74.8454 60.7109 74.8138 60.7486 74.7792 60.7782C74.7466 60.8087 74.6997 60.8312 74.6436 60.8475C74.5865 60.8628 74.5122 60.874 74.4215 60.8801C74.3287 60.8872 74.2146 60.8903 74.078 60.8903C73.9313 60.8903 73.8161 60.8852 73.7366 60.875C73.6571 60.8658 73.6072 60.8434 73.5858 60.8067C73.5664 60.77 73.5725 60.7191 73.6041 60.6528C73.6367 60.5845 73.6938 60.4959 73.7733 60.3838L77.7346 54.9071C77.7764 54.8531 77.8171 54.8092 77.8528 54.7766C77.8915 54.742 77.9415 54.7175 78.0057 54.7002C78.0668 54.6818 78.1483 54.6706 78.2523 54.6655C78.3542 54.6604 78.4857 54.6594 78.6508 54.6594C78.8362 54.6594 78.982 54.6604 79.09 54.6655C79.197 54.6706 79.2796 54.6818 79.3366 54.7002C79.3937 54.7175 79.4283 54.744 79.4406 54.7776C79.4528 54.8133 79.4579 54.8612 79.4538 54.9213L79.2897 60.394ZM78.2166 55.8671H78.2115L76.3741 58.4872H78.1055L78.2166 55.8671ZM85.9089 55.9466C85.8753 56.1341 85.8182 56.3114 85.7366 56.4775C85.6541 56.6447 85.5512 56.7975 85.4268 56.9361C85.3035 57.0747 85.1608 57.197 85.0008 57.303C84.8419 57.408 84.6686 57.4946 84.4831 57.5578C84.6177 57.5822 84.7379 57.6281 84.8419 57.6913C84.9479 57.7555 85.0335 57.836 85.0987 57.9338C85.1639 58.0337 85.2087 58.1509 85.2301 58.2854C85.2516 58.421 85.2475 58.5718 85.2179 58.742C85.1904 58.8949 85.1415 59.0528 85.0722 59.2169C85.0019 59.38 84.9081 59.541 84.7919 59.6959C84.6758 59.8518 84.5341 60.0016 84.3659 60.1433C84.1988 60.2849 84.0042 60.4082 83.784 60.5142C83.5649 60.6212 83.3173 60.7058 83.0442 60.768C82.769 60.8301 82.4572 60.8607 82.1096 60.8607H80.3955C80.265 60.8607 80.1764 60.8281 80.1295 60.7649C80.0816 60.7017 80.0826 60.6019 80.1366 60.4653L82.1647 55.0844C82.2156 54.9438 82.289 54.8429 82.3868 54.7817C82.4857 54.7196 82.5927 54.688 82.7078 54.688H84.1958C84.5229 54.688 84.8001 54.7145 85.0294 54.7654C85.2577 54.8154 85.4442 54.8918 85.5868 54.9957C85.7295 55.0987 85.8284 55.2291 85.8834 55.3871C85.9395 55.545 85.9466 55.7305 85.9089 55.9466ZM84.5779 56.181C84.5932 56.0913 84.5912 56.0138 84.5718 55.9466C84.5514 55.8803 84.5147 55.8212 84.4597 55.7743C84.4026 55.7264 84.3293 55.6897 84.2365 55.6653C84.1448 55.6388 84.0235 55.6255 83.8737 55.6255H83.1899L82.5866 57.2276H83.2918C83.4987 57.2276 83.675 57.195 83.8238 57.1298C83.9715 57.0645 84.0989 56.982 84.2039 56.878C84.3099 56.7751 84.3935 56.661 84.4546 56.5377C84.5168 56.4133 84.5575 56.2951 84.5779 56.181ZM83.8982 58.8052C83.9338 58.6014 83.888 58.4403 83.7565 58.3231C83.6281 58.2039 83.3998 58.1458 83.0686 58.1458H82.2391L81.5756 59.9038H82.4612C82.6854 59.9038 82.8821 59.8712 83.0462 59.808C83.2123 59.7438 83.354 59.6612 83.4712 59.5603C83.5904 59.4574 83.6842 59.3402 83.7545 59.2087C83.8248 59.0773 83.8737 58.9417 83.8982 58.8052ZM91.3295 54.8704C91.3255 54.8897 91.3183 54.9234 91.3051 54.9713C91.2918 55.0192 91.2735 55.0722 91.2541 55.1313C91.2348 55.1894 91.2113 55.2515 91.1838 55.3147C91.1553 55.3799 91.1257 55.437 91.0921 55.491C91.0605 55.543 91.0228 55.5868 90.9841 55.6225C90.9443 55.6571 90.9046 55.6745 90.8679 55.6745H88.6635L88.0959 57.1787H89.966C90.0098 57.1787 90.0393 57.195 90.0526 57.2266C90.0658 57.2582 90.0679 57.303 90.0577 57.3591C90.0536 57.3825 90.0465 57.4161 90.0332 57.462C90.02 57.5078 90.0027 57.5619 89.9823 57.6199C89.9639 57.6791 89.9405 57.7371 89.914 57.7973C89.8865 57.8574 89.8569 57.9135 89.8233 57.9654C89.7917 58.0154 89.755 58.0561 89.7183 58.0887C89.6806 58.1193 89.6439 58.1356 89.6042 58.1356H87.7361L87.0798 59.8742H89.3127C89.3504 59.8742 89.3769 59.8905 89.3881 59.9252C89.4024 59.9578 89.4034 60.0067 89.3922 60.0719C89.3881 60.0923 89.38 60.128 89.3688 60.1759C89.3565 60.2248 89.3402 60.2778 89.3188 60.3369C89.2964 60.395 89.273 60.4561 89.2465 60.5163C89.219 60.5764 89.1894 60.6335 89.1578 60.6865C89.1242 60.7384 89.0885 60.7812 89.0518 60.8138C89.0141 60.8444 88.9754 60.8607 88.9346 60.8607H85.8325C85.7815 60.8607 85.7356 60.8546 85.6969 60.8393C85.6572 60.8251 85.6276 60.8006 85.6072 60.768C85.5858 60.7344 85.5756 60.6936 85.5736 60.6447C85.5736 60.5937 85.5848 60.5356 85.6103 60.4653L87.6383 55.0844C87.6923 54.9438 87.7677 54.8429 87.8666 54.7817C87.9634 54.7196 88.0663 54.688 88.1723 54.688H91.2378C91.3204 54.688 91.3509 54.7491 91.3295 54.8704ZM93.912 60.0159C93.9079 60.0393 93.8997 60.075 93.8865 60.1239C93.8732 60.1728 93.8549 60.2289 93.8325 60.2931C93.809 60.3563 93.7836 60.4215 93.755 60.4877C93.7255 60.555 93.6929 60.6172 93.6592 60.6722C93.6266 60.7272 93.5909 60.7731 93.5522 60.8087C93.5145 60.8434 93.4737 60.8607 93.434 60.8607H90.6029C90.552 60.8607 90.5061 60.8546 90.4653 60.8393C90.4235 60.8251 90.394 60.8006 90.3716 60.768C90.3502 60.7344 90.34 60.6936 90.339 60.6447C90.3379 60.5937 90.3491 60.5356 90.3746 60.4653L92.4923 54.8541C92.5015 54.8235 92.5209 54.794 92.5515 54.7685C92.58 54.744 92.6238 54.7226 92.6799 54.7063C92.7349 54.692 92.8052 54.6788 92.8878 54.6706C92.9713 54.6625 93.0753 54.6594 93.1996 54.6594C93.3199 54.6594 93.4187 54.6625 93.4951 54.6706C93.5736 54.6788 93.6327 54.692 93.6745 54.7063C93.7153 54.7226 93.7408 54.744 93.752 54.7685C93.7601 54.794 93.7591 54.8235 93.7479 54.8541L91.8768 59.8253H93.8274C93.8712 59.8253 93.8987 59.8436 93.9109 59.8773C93.9222 59.914 93.9222 59.9588 93.912 60.0159Z" fill="#4198FF"/>
<path fill-rule="evenodd" clip-rule="evenodd" d="M33.1678 65.5853V62.5871H34.0769L34.615 64.6325L35.1459 62.5871H36.058V65.5853H35.4965L35.4945 63.2251L34.9034 65.5853H34.3194L33.7304 63.2251L33.7283 65.5853H33.1678ZM36.6603 63.1191V62.5871H37.2341V63.1191H36.6603ZM36.6603 65.5853V63.4116H37.2341V65.5853H36.6603ZM38.8168 63.4116V63.8681H38.4234V64.7486C38.4234 64.928 38.4275 65.0319 38.4346 65.0605C38.4427 65.09 38.4591 65.1145 38.4866 65.1339C38.5131 65.1532 38.5447 65.1624 38.5834 65.1624C38.6374 65.1624 38.7138 65.1451 38.8147 65.1074L38.8636 65.5548C38.7301 65.6118 38.5793 65.6404 38.4101 65.6404C38.3072 65.6404 38.2145 65.623 38.1309 65.5884C38.0473 65.5527 37.9872 65.5079 37.9485 65.4528C37.9098 65.3968 37.8833 65.3224 37.868 65.2266C37.8557 65.1604 37.8496 65.0248 37.8496 64.82V63.8681H37.5857V63.4116H37.8496V62.9805L38.4234 62.6411V63.4116H38.8168ZM39.7676 65.5853H39.1938V63.4116H39.7258V63.7204C39.8175 63.5746 39.9001 63.4788 39.9735 63.434C40.0468 63.3881 40.1294 63.3657 40.2221 63.3657C40.3536 63.3657 40.48 63.4024 40.6012 63.4737L40.4239 63.9751C40.3261 63.913 40.2364 63.8814 40.1528 63.8814C40.0723 63.8814 40.004 63.9038 39.948 63.9476C39.8919 63.9925 39.8481 64.0719 39.8165 64.1871C39.7839 64.3033 39.7676 64.5468 39.7676 64.9158V65.5853ZM41.2769 64.0821L40.7572 63.9904C40.8163 63.7774 40.9172 63.6205 41.0598 63.5186C41.2035 63.4167 41.4165 63.3657 41.6978 63.3657C41.9546 63.3657 42.1452 63.3963 42.2716 63.4564C42.3959 63.5175 42.4845 63.594 42.5355 63.6877C42.5865 63.7815 42.613 63.9527 42.613 64.2024L42.6038 64.8719C42.6038 65.0625 42.613 65.2042 42.6313 65.2949C42.6496 65.3856 42.6843 65.4824 42.7342 65.5853H42.1645C42.1503 65.5476 42.1309 65.4926 42.1095 65.4182C42.1003 65.3846 42.0932 65.3621 42.0891 65.3509C41.9913 65.4477 41.8863 65.5191 41.7752 65.568C41.6631 65.6159 41.5449 65.6404 41.4186 65.6404C41.1954 65.6404 41.0201 65.5792 40.8917 65.4579C40.7622 65.3377 40.6991 65.1838 40.6991 64.9983C40.6991 64.876 40.7276 64.766 40.7867 64.6702C40.8448 64.5744 40.9273 64.5 41.0333 64.449C41.1383 64.3981 41.2901 64.3542 41.4899 64.3155C41.7579 64.2656 41.9434 64.2177 42.0473 64.1739V64.1168C42.0473 64.0047 42.0198 63.9252 41.9658 63.8773C41.9108 63.8294 41.8068 63.806 41.656 63.806C41.5531 63.806 41.4736 63.8263 41.4165 63.8671C41.3584 63.9079 41.3126 63.9792 41.2769 64.0821ZM42.0473 64.5468C41.974 64.5713 41.8578 64.6009 41.6978 64.6355C41.5388 64.6691 41.4338 64.7028 41.3849 64.7354C41.3105 64.7884 41.2728 64.8556 41.2728 64.9372C41.2728 65.0187 41.3024 65.087 41.3625 65.1461C41.4226 65.2052 41.498 65.2337 41.5918 65.2337C41.6947 65.2337 41.7936 65.2001 41.8884 65.1318C41.9577 65.0798 42.0035 65.0167 42.0249 64.9412C42.0392 64.8923 42.0473 64.7996 42.0473 64.662V64.5468ZM44.7694 64.0821L44.2507 63.9904C44.3088 63.7774 44.4107 63.6205 44.5533 63.5186C44.696 63.4167 44.909 63.3657 45.1913 63.3657C45.4481 63.3657 45.6387 63.3963 45.7651 63.4564C45.8894 63.5175 45.9781 63.594 46.029 63.6877C46.08 63.7815 46.1054 63.9527 46.1054 64.2024L46.0973 64.8719C46.0973 65.0625 46.1065 65.2042 46.1248 65.2949C46.1432 65.3856 46.1768 65.4824 46.2277 65.5853H45.6581C45.6428 65.5476 45.6244 65.4926 45.603 65.4182C45.5939 65.3846 45.5867 65.3621 45.5826 65.3509C45.4848 65.4477 45.3798 65.5191 45.2688 65.568C45.1567 65.6159 45.0374 65.6404 44.9111 65.6404C44.6889 65.6404 44.5126 65.5792 44.3842 65.4579C44.2558 65.3377 44.1916 65.1838 44.1916 64.9983C44.1916 64.876 44.2211 64.766 44.2802 64.6702C44.3383 64.5744 44.4198 64.5 44.5258 64.449C44.6318 64.3981 44.7837 64.3542 44.9824 64.3155C45.2504 64.2656 45.4369 64.2177 45.5409 64.1739V64.1168C45.5409 64.0047 45.5133 63.9252 45.4593 63.8773C45.4033 63.8294 45.3003 63.806 45.1485 63.806C45.0466 63.806 44.9671 63.8263 44.909 63.8671C44.8519 63.9079 44.8051 63.9792 44.7694 64.0821ZM45.5409 64.5468C45.4675 64.5713 45.3503 64.6009 45.1903 64.6355C45.0313 64.6691 44.9263 64.7028 44.8784 64.7354C44.803 64.7884 44.7653 64.8556 44.7653 64.9372C44.7653 65.0187 44.7959 65.087 44.856 65.1461C44.9161 65.2052 44.9916 65.2337 45.0843 65.2337C45.1882 65.2337 45.2871 65.2001 45.3809 65.1318C45.4502 65.0798 45.497 65.0167 45.5184 64.9412C45.5327 64.8923 45.5409 64.7996 45.5409 64.662V64.5468ZM48.6492 65.5853H48.0754V64.4775C48.0754 64.2432 48.0621 64.0923 48.0387 64.023C48.0132 63.9547 47.9735 63.9017 47.9174 63.863C47.8614 63.8243 47.7951 63.806 47.7167 63.806C47.6158 63.806 47.5261 63.8335 47.4466 63.8875C47.3661 63.9415 47.3121 64.0149 47.2825 64.1035C47.2519 64.1942 47.2377 64.3604 47.2377 64.6029V65.5853H46.6639V63.4116H47.1959V63.7305C47.3865 63.487 47.626 63.3657 47.9154 63.3657C48.0428 63.3657 48.159 63.3891 48.2649 63.434C48.3709 63.4809 48.4504 63.5379 48.5034 63.6093C48.5584 63.6806 48.5962 63.7601 48.6165 63.8508C48.639 63.9405 48.6492 64.0689 48.6492 64.236V65.5853ZM51.2244 65.5853H50.6925V65.2674C50.6038 65.3907 50.4978 65.4844 50.3776 65.5466C50.2573 65.6088 50.135 65.6404 50.0117 65.6404C49.761 65.6404 49.547 65.5395 49.3676 65.3377C49.1903 65.1359 49.1006 64.8556 49.1006 64.4949C49.1006 64.126 49.1872 63.8457 49.3615 63.6531C49.5348 63.4615 49.7539 63.3657 50.0199 63.3657C50.2624 63.3657 50.4734 63.4676 50.6507 63.6694V62.5871H51.2244V65.5853ZM49.6917 64.4572C49.6917 64.6895 49.7233 64.8577 49.7865 64.9616C49.8802 65.1125 50.0086 65.1879 50.1748 65.1879C50.3072 65.1879 50.4193 65.1318 50.5111 65.0187C50.6048 64.9056 50.6507 64.7374 50.6507 64.5122C50.6507 64.2615 50.6058 64.0811 50.5162 63.9711C50.4255 63.861 50.3113 63.806 50.1707 63.806C50.0351 63.806 49.921 63.86 49.8293 63.969C49.7376 64.0781 49.6917 64.2411 49.6917 64.4572ZM52.216 64.0821L51.6973 63.9904C51.7554 63.7774 51.8563 63.6205 52 63.5186C52.1427 63.4167 52.3557 63.3657 52.638 63.3657C52.8938 63.3657 53.0853 63.3963 53.2107 63.4564C53.336 63.5175 53.4247 63.594 53.4757 63.6877C53.5266 63.7815 53.5521 63.9527 53.5521 64.2024L53.5439 64.8719C53.5439 65.0625 53.5531 65.2042 53.5715 65.2949C53.5898 65.3856 53.6234 65.4824 53.6744 65.5853H53.1037C53.0894 65.5476 53.0711 65.4926 53.0487 65.4182C53.0405 65.3846 53.0334 65.3621 53.0293 65.3509C52.9315 65.4477 52.8265 65.5191 52.7144 65.568C52.6033 65.6159 52.4841 65.6404 52.3577 65.6404C52.1355 65.6404 51.9592 65.5792 51.8308 65.4579C51.7024 65.3377 51.6382 65.1838 51.6382 64.9983C51.6382 64.876 51.6678 64.766 51.7258 64.6702C51.785 64.5744 51.8665 64.5 51.9725 64.449C52.0785 64.3981 52.2303 64.3542 52.429 64.3155C52.6971 64.2656 52.8836 64.2177 52.9865 64.1739V64.1168C52.9865 64.0047 52.96 63.9252 52.905 63.8773C52.8499 63.8294 52.747 63.806 52.5951 63.806C52.4922 63.806 52.4127 63.8263 52.3557 63.8671C52.2976 63.9079 52.2517 63.9792 52.216 64.0821ZM52.9865 64.5468C52.9141 64.5713 52.7969 64.6009 52.6369 64.6355C52.478 64.6691 52.373 64.7028 52.3241 64.7354C52.2497 64.7884 52.212 64.8556 52.212 64.9372C52.212 65.0187 52.2425 65.087 52.3016 65.1461C52.3618 65.2052 52.4382 65.2337 52.5309 65.2337C52.6339 65.2337 52.7337 65.2001 52.8275 65.1318C52.8968 65.0798 52.9427 65.0167 52.9651 64.9412C52.9794 64.8923 52.9865 64.7996 52.9865 64.662V64.5468ZM55.2408 63.4116H55.7687V63.7091C55.9572 63.4809 56.1824 63.3657 56.4443 63.3657C56.584 63.3657 56.7042 63.3942 56.8061 63.4523C56.9091 63.5094 56.9926 63.596 57.0578 63.7112C57.1536 63.596 57.2566 63.5094 57.3666 63.4523C57.4767 63.3942 57.5949 63.3657 57.7203 63.3657C57.8803 63.3657 58.0148 63.3983 58.1259 63.4625C58.2359 63.5277 58.3185 63.6225 58.3725 63.7489C58.4122 63.8406 58.4316 63.9904 58.4316 64.1983V65.5853H57.8578V64.3451C57.8578 64.13 57.8385 63.9904 57.7987 63.9282C57.7457 63.8467 57.6632 63.806 57.5531 63.806C57.4726 63.806 57.3972 63.8304 57.3259 63.8793C57.2545 63.9282 57.2036 64.0006 57.172 64.0944C57.1404 64.1891 57.1251 64.3389 57.1251 64.5438V65.5853H56.5513V64.396C56.5513 64.1851 56.5411 64.0485 56.5208 63.9884C56.5004 63.9262 56.4688 63.8803 56.426 63.8508C56.3832 63.8202 56.3241 63.806 56.2517 63.806C56.1631 63.806 56.0826 63.8294 56.0122 63.8773C55.9409 63.9252 55.891 63.9935 55.8604 64.0832C55.8298 64.1739 55.8145 64.3226 55.8145 64.5316V65.5853H55.2408V63.4116ZM60.2629 64.8984L60.8367 64.9953C60.7633 65.2052 60.6472 65.3652 60.4882 65.4753C60.3292 65.5853 60.1305 65.6404 59.892 65.6404C59.5149 65.6404 59.2347 65.517 59.0543 65.2694C58.9106 65.0717 58.8392 64.821 58.8392 64.5193C58.8392 64.1586 58.933 63.8763 59.1215 63.6725C59.3091 63.4676 59.5465 63.3657 59.8349 63.3657C60.157 63.3657 60.4117 63.4727 60.5993 63.6867C60.7858 63.8997 60.8744 64.2279 60.8663 64.6681H59.4293C59.4334 64.8393 59.4803 64.9718 59.5689 65.0666C59.6566 65.1614 59.7666 65.2093 59.8981 65.2093C59.9878 65.2093 60.0632 65.1848 60.1243 65.1359C60.1855 65.087 60.2314 65.0075 60.2629 64.8984ZM60.2966 64.3165C60.2925 64.1494 60.2497 64.023 60.1682 63.9364C60.0866 63.8488 59.9878 63.806 59.8706 63.806C59.7452 63.806 59.6423 63.8518 59.5598 63.9435C59.4782 64.0342 59.4385 64.1596 59.4405 64.3165H60.2966ZM61.2943 63.4116H61.8222V63.7091C62.0107 63.4809 62.237 63.3657 62.4989 63.3657C62.6375 63.3657 62.7577 63.3942 62.8596 63.4523C62.9626 63.5094 63.0461 63.596 63.1114 63.7112C63.2072 63.596 63.3101 63.5094 63.4202 63.4523C63.5312 63.3942 63.6484 63.3657 63.7748 63.3657C63.9338 63.3657 64.0683 63.3983 64.1794 63.4625C64.2895 63.5277 64.372 63.6225 64.427 63.7489C64.4668 63.8406 64.4861 63.9904 64.4861 64.1983V65.5853H63.9124V64.3451C63.9124 64.13 63.892 63.9904 63.8523 63.9282C63.7993 63.8467 63.7177 63.806 63.6067 63.806C63.5272 63.806 63.4507 63.8304 63.3794 63.8793C63.3091 63.9282 63.2571 64.0006 63.2255 64.0944C63.1939 64.1891 63.1786 64.3389 63.1786 64.5438V65.5853H62.6049V64.396C62.6049 64.1851 62.5947 64.0485 62.5743 63.9884C62.5539 63.9262 62.5233 63.8803 62.4795 63.8508C62.4367 63.8202 62.3786 63.806 62.3052 63.806C62.2166 63.806 62.1371 63.8294 62.0668 63.8773C61.9954 63.9252 61.9445 63.9935 61.9139 64.0832C61.8833 64.1739 61.868 64.3226 61.868 64.5316V65.5853H61.2943V63.4116ZM65.0354 65.5853V62.5871H65.6092V63.6694C65.7865 63.4676 65.9954 63.3657 66.239 63.3657C66.503 63.3657 66.7221 63.4615 66.8953 63.6531C67.0676 63.8457 67.1542 64.1209 67.1542 64.4806C67.1542 64.8526 67.0665 65.1379 66.8902 65.3397C66.7139 65.5395 66.4989 65.6404 66.2462 65.6404C66.1218 65.6404 65.9995 65.6077 65.8793 65.5446C65.758 65.4804 65.654 65.3886 65.5674 65.2674V65.5853H65.0354ZM65.6011 64.4572C65.6011 64.6824 65.6367 64.8495 65.707 64.9576C65.8069 65.1114 65.9394 65.1879 66.1045 65.1879C66.2319 65.1879 66.3399 65.1339 66.4296 65.0248C66.5193 64.9158 66.5641 64.7435 66.5641 64.5102C66.5641 64.2605 66.5183 64.0811 66.4286 63.9711C66.3389 63.861 66.2237 63.806 66.0821 63.806C65.9445 63.806 65.8293 63.86 65.7386 63.967C65.6469 64.075 65.6011 64.2381 65.6011 64.4572ZM68.0459 64.0821L67.5262 63.9904C67.5853 63.7774 67.6862 63.6205 67.8298 63.5186C67.9725 63.4167 68.1855 63.3657 68.4678 63.3657C68.7236 63.3657 68.9152 63.3963 69.0406 63.4564C69.1659 63.5175 69.2546 63.594 69.3055 63.6877C69.3565 63.7815 69.382 63.9527 69.382 64.2024L69.3738 64.8719C69.3738 65.0625 69.383 65.2042 69.4013 65.2949C69.4197 65.3856 69.4533 65.4824 69.5032 65.5853H68.9335C68.9193 65.5476 68.9009 65.4926 68.8785 65.4182C68.8693 65.3846 68.8632 65.3621 68.8581 65.3509C68.7613 65.4477 68.6563 65.5191 68.5442 65.568C68.4332 65.6159 68.3139 65.6404 68.1876 65.6404C67.9654 65.6404 67.7891 65.5792 67.6607 65.4579C67.5323 65.3377 67.4681 65.1838 67.4681 64.9983C67.4681 64.876 67.4976 64.766 67.5557 64.6702C67.6148 64.5744 67.6964 64.5 67.8023 64.449C67.9083 64.3981 68.0602 64.3542 68.2589 64.3155C68.5269 64.2656 68.7134 64.2177 68.8163 64.1739V64.1168C68.8163 64.0047 68.7899 63.9252 68.7348 63.8773C68.6798 63.8294 68.5769 63.806 68.425 63.806C68.3221 63.806 68.2426 63.8263 68.1855 63.8671C68.1274 63.9079 68.0816 63.9792 68.0459 64.0821ZM68.8163 64.5468C68.743 64.5713 68.6268 64.6009 68.4668 64.6355C68.3078 64.6691 68.2028 64.7028 68.1539 64.7354C68.0795 64.7884 68.0418 64.8556 68.0418 64.9372C68.0418 65.0187 68.0724 65.087 68.1315 65.1461C68.1916 65.2052 68.2681 65.2337 68.3608 65.2337C68.4637 65.2337 68.5636 65.2001 68.6574 65.1318C68.7267 65.0798 68.7725 65.0167 68.795 64.9412C68.8092 64.8923 68.8163 64.7996 68.8163 64.662V64.5468ZM71.9257 65.5853H71.3519V64.4775C71.3519 64.2432 71.3386 64.0923 71.3142 64.023C71.2897 63.9547 71.25 63.9017 71.1939 63.863C71.1379 63.8243 71.0706 63.806 70.9932 63.806C70.8923 63.806 70.8026 63.8335 70.7221 63.8875C70.6426 63.9415 70.5876 64.0149 70.558 64.1035C70.5285 64.1942 70.5142 64.3604 70.5142 64.6029V65.5853H69.9404V63.4116H70.4714V63.7305C70.662 63.487 70.9015 63.3657 71.1919 63.3657C71.3183 63.3657 71.4355 63.3891 71.5404 63.434C71.6464 63.4809 71.7259 63.5379 71.7799 63.6093C71.835 63.6806 71.8727 63.7601 71.893 63.8508C71.9144 63.9405 71.9257 64.0689 71.9257 64.236V65.5853ZM72.4525 65.7239L73.1099 65.8034C73.1211 65.8809 73.1466 65.9339 73.1853 65.9634C73.2403 66.0042 73.3259 66.0256 73.4431 66.0256C73.5939 66.0256 73.706 66.0032 73.7815 65.9583C73.8314 65.9277 73.8701 65.8798 73.8956 65.8126C73.9139 65.7657 73.9221 65.677 73.9221 65.5486L73.9252 65.2317C73.7519 65.4681 73.5348 65.5853 73.2719 65.5853C72.9804 65.5853 72.7481 65.462 72.5779 65.2154C72.4444 65.0207 72.3771 64.7782 72.3771 64.4888C72.3771 64.1239 72.4648 63.8467 72.6401 63.6541C72.8153 63.4625 73.0334 63.3657 73.2953 63.3657C73.5634 63.3657 73.7855 63.4839 73.9598 63.7193V63.4116H74.4969V65.3611C74.4969 65.6169 74.4755 65.8095 74.4327 65.9359C74.3909 66.0623 74.3318 66.1621 74.2553 66.2345C74.1789 66.3058 74.077 66.3639 73.9486 66.4037C73.8212 66.4455 73.6602 66.4658 73.4655 66.4658C73.0966 66.4658 72.8357 66.4016 72.6818 66.2753C72.5269 66.1489 72.4505 65.9889 72.4505 65.7942C72.4505 65.7749 72.4515 65.7514 72.4525 65.7239ZM72.9672 64.4551C72.9672 64.6854 73.012 64.8536 73.1007 64.9606C73.1904 65.0676 73.3004 65.1206 73.4309 65.1206C73.5705 65.1206 73.6897 65.0656 73.7855 64.9565C73.8824 64.8465 73.9313 64.6844 73.9313 64.4694C73.9313 64.2452 73.8844 64.0781 73.7917 63.969C73.6999 63.86 73.5827 63.806 73.4411 63.806C73.3035 63.806 73.1904 63.86 73.1007 63.966C73.012 64.073 72.9672 64.236 72.9672 64.4551ZM76.5015 65.5853V65.2602C76.422 65.3764 76.318 65.4681 76.1896 65.5374C76.0602 65.6057 75.9236 65.6404 75.781 65.6404C75.6342 65.6404 75.5027 65.6077 75.3876 65.5435C75.2704 65.4793 75.1868 65.3886 75.1348 65.2735C75.0829 65.1563 75.0574 64.9963 75.0574 64.7904V63.4116H75.6311V64.4133C75.6311 64.7191 75.6413 64.9066 75.6627 64.9759C75.6841 65.0452 75.7218 65.1002 75.7789 65.14C75.835 65.1807 75.9053 65.2001 75.9919 65.2001C76.0908 65.2001 76.1784 65.1736 76.2569 65.1196C76.3354 65.0656 76.3883 64.9983 76.4169 64.9188C76.4454 64.8383 76.4597 64.6426 76.4597 64.3308V63.4116H77.0334V65.5853H76.5015ZM79.6006 65.5853H79.0268V64.4775C79.0268 64.2432 79.0146 64.0923 78.9901 64.023C78.9647 63.9547 78.9249 63.9017 78.8689 63.863C78.8138 63.8243 78.7466 63.806 78.6681 63.806C78.5672 63.806 78.4775 63.8335 78.398 63.8875C78.3175 63.9415 78.2635 64.0149 78.234 64.1035C78.2034 64.1942 78.1891 64.3604 78.1891 64.6029V65.5853H77.6154V63.4116H78.1473V63.7305C78.3379 63.487 78.5774 63.3657 78.8668 63.3657C78.9942 63.3657 79.1104 63.3891 79.2164 63.434C79.3224 63.4809 79.4019 63.5379 79.4559 63.6093C79.5099 63.6806 79.5476 63.7601 79.569 63.8508C79.5904 63.9405 79.6006 64.0689 79.6006 64.236V65.5853ZM83.3397 65.5853H82.8077V65.2674C82.7191 65.3907 82.6141 65.4844 82.4928 65.5466C82.3726 65.6088 82.2503 65.6404 82.127 65.6404C81.8763 65.6404 81.6623 65.5395 81.4839 65.3377C81.3056 65.1359 81.2159 64.8556 81.2159 64.4949C81.2159 64.126 81.3025 63.8457 81.4768 63.6531C81.65 63.4615 81.8691 63.3657 82.1351 63.3657C82.3777 63.3657 82.5886 63.4676 82.766 63.6694V62.5871H83.3397V65.5853ZM81.807 64.4572C81.807 64.6895 81.8386 64.8577 81.9028 64.9616C81.9955 65.1125 82.1239 65.1879 82.29 65.1879C82.4225 65.1879 82.5346 65.1318 82.6273 65.0187C82.7201 64.9056 82.766 64.7374 82.766 64.5122C82.766 64.2615 82.7211 64.0811 82.6314 63.9711C82.5407 63.861 82.4266 63.806 82.2859 63.806C82.1504 63.806 82.0363 63.86 81.9445 63.969C81.8528 64.0781 81.807 64.2411 81.807 64.4572ZM84.3313 64.0821L83.8126 63.9904C83.8707 63.7774 83.9726 63.6205 84.1153 63.5186C84.2579 63.4167 84.4709 63.3657 84.7532 63.3657C85.01 63.3657 85.2006 63.3963 85.326 63.4564C85.4513 63.5175 85.54 63.594 85.5909 63.6877C85.6419 63.7815 85.6674 63.9527 85.6674 64.2024L85.6592 64.8719C85.6592 65.0625 85.6684 65.2042 85.6867 65.2949C85.7051 65.3856 85.7387 65.4824 85.7897 65.5853H85.22C85.2047 65.5476 85.1863 65.4926 85.1649 65.4182C85.1558 65.3846 85.1486 65.3621 85.1446 65.3509C85.0467 65.4477 84.9418 65.5191 84.8297 65.568C84.7186 65.6159 84.5993 65.6404 84.473 65.6404C84.2508 65.6404 84.0745 65.5792 83.9461 65.4579C83.8177 65.3377 83.7535 65.1838 83.7535 64.9983C83.7535 64.876 83.783 64.766 83.8421 64.6702C83.9002 64.5744 83.9818 64.5 84.0877 64.449C84.1937 64.3981 84.3456 64.3542 84.5443 64.3155C84.8123 64.2656 84.9988 64.2177 85.1028 64.1739V64.1168C85.1028 64.0047 85.0753 63.9252 85.0202 63.8773C84.9652 63.8294 84.8623 63.806 84.7104 63.806C84.6085 63.806 84.529 63.8263 84.4709 63.8671C84.4128 63.9079 84.367 63.9792 84.3313 64.0821ZM85.1028 64.5468C85.0294 64.5713 84.9122 64.6009 84.7522 64.6355C84.5932 64.6691 84.4883 64.7028 84.4404 64.7354C84.3649 64.7884 84.3272 64.8556 84.3272 64.9372C84.3272 65.0187 84.3578 65.087 84.4179 65.1461C84.4781 65.2052 84.5535 65.2337 84.6462 65.2337C84.7502 65.2337 84.849 65.2001 84.9428 65.1318C85.0121 65.0798 85.0579 65.0167 85.0804 64.9412C85.0946 64.8923 85.1028 64.7996 85.1028 64.662V64.5468ZM87.4905 64.8984L88.0643 64.9953C87.9909 65.2052 87.8748 65.3652 87.7158 65.4753C87.5568 65.5853 87.3581 65.6404 87.1196 65.6404C86.7425 65.6404 86.4623 65.517 86.2819 65.2694C86.1382 65.0717 86.0669 64.821 86.0669 64.5193C86.0669 64.1586 86.1606 63.8763 86.3481 63.6725C86.5367 63.4676 86.7741 63.3657 87.0615 63.3657C87.3846 63.3657 87.6393 63.4727 87.8258 63.6867C88.0123 63.8997 88.102 64.2279 88.0939 64.6681H86.6569C86.661 64.8393 86.7069 64.9718 86.7955 65.0666C86.8842 65.1614 86.9942 65.2093 87.1257 65.2093C87.2154 65.2093 87.2908 65.1848 87.352 65.1359C87.4131 65.087 87.459 65.0075 87.4905 64.8984ZM87.5242 64.3165C87.5201 64.1494 87.4773 64.023 87.3958 63.9364C87.3142 63.8488 87.2144 63.806 87.0972 63.806C86.9728 63.806 86.8689 63.8518 86.7874 63.9435C86.7058 64.0342 86.6661 64.1596 86.6671 64.3165H87.5242ZM89.112 65.5853H88.5382V63.4116H89.0702V63.7204C89.1619 63.5746 89.2444 63.4788 89.3178 63.434C89.3902 63.3881 89.4738 63.3657 89.5665 63.3657C89.698 63.3657 89.8243 63.4024 89.9456 63.4737L89.7673 63.9751C89.6704 63.913 89.5807 63.8814 89.4972 63.8814C89.4167 63.8814 89.3484 63.9038 89.2923 63.9476C89.2363 63.9925 89.1925 64.0719 89.1599 64.1871C89.1283 64.3033 89.112 64.5468 89.112 64.9158V65.5853ZM90.6202 64.0821L90.1015 63.9904C90.1596 63.7774 90.2615 63.6205 90.4042 63.5186C90.5479 63.4167 90.7599 63.3657 91.0422 63.3657C91.299 63.3657 91.4896 63.3963 91.6159 63.4564C91.7403 63.5175 91.8289 63.594 91.8799 63.6877C91.9308 63.7815 91.9573 63.9527 91.9573 64.2024L91.9482 64.8719C91.9482 65.0625 91.9573 65.2042 91.9757 65.2949C91.994 65.3856 92.0276 65.4824 92.0786 65.5853H91.5089C91.4936 65.5476 91.4753 65.4926 91.4539 65.4182C91.4447 65.3846 91.4376 65.3621 91.4335 65.3509C91.3357 65.4477 91.2307 65.5191 91.1196 65.568C91.0075 65.6159 90.8893 65.6404 90.7619 65.6404C90.5397 65.6404 90.3634 65.5792 90.235 65.4579C90.1066 65.3377 90.0424 65.1838 90.0424 64.9983C90.0424 64.876 90.072 64.766 90.1311 64.6702C90.1892 64.5744 90.2707 64.5 90.3767 64.449C90.4827 64.3981 90.6345 64.3542 90.8332 64.3155C91.1013 64.2656 91.2878 64.2177 91.3917 64.1739V64.1168C91.3917 64.0047 91.3642 63.9252 91.3102 63.8773C91.2541 63.8294 91.1512 63.806 90.9994 63.806C90.8974 63.806 90.818 63.8263 90.7599 63.8671C90.7028 63.9079 90.6559 63.9792 90.6202 64.0821ZM91.3917 64.5468C91.3183 64.5713 91.2011 64.6009 91.0422 64.6355C90.8822 64.6691 90.7782 64.7028 90.7293 64.7354C90.6539 64.7884 90.6162 64.8556 90.6162 64.9372C90.6162 65.0187 90.6467 65.087 90.7069 65.1461C90.767 65.2052 90.8424 65.2337 90.9352 65.2337C91.0391 65.2337 91.138 65.2001 91.2327 65.1318C91.301 65.0798 91.3479 65.0167 91.3693 64.9412C91.3836 64.8923 91.3917 64.7996 91.3917 64.662V64.5468ZM93.0885 62.5871V63.6979C93.275 63.4768 93.4982 63.3657 93.7571 63.3657C93.8906 63.3657 94.0108 63.3902 94.1178 63.4391C94.2238 63.489 94.3043 63.5512 94.3594 63.6276C94.4134 63.704 94.4501 63.7886 94.4705 63.8814C94.4898 63.9741 94.5 64.1178 94.5 64.3125V65.5853H93.9262V64.4398C93.9262 64.2116 93.915 64.0679 93.8936 64.0057C93.8712 63.9446 93.8315 63.8956 93.7764 63.86C93.7204 63.8243 93.6501 63.806 93.5655 63.806C93.4697 63.806 93.3841 63.8284 93.3076 63.8753C93.2312 63.9221 93.1762 63.9914 93.1415 64.0852C93.1059 64.1779 93.0885 64.3165 93.0885 64.4979V65.5853H92.5148V62.5871H93.0885Z" fill="#ED1C24"/>
</svg>
