<svg width="109" height="108" viewBox="0 0 109 108" fill="none" xmlns="http://www.w3.org/2000/svg">
<g clip-path="url(#clip0_801_8481)">
<path fill-rule="evenodd" clip-rule="evenodd" d="M23.9712 56.4572V43.2147C23.9712 43.2147 26.8683 42.6599 28.8943 43.334C30.9211 44.0081 33.4621 45.4183 33.4621 48.2571C33.4621 50.716 31.7392 52.1128 29.6939 53.045C27.6494 53.9762 26.4548 53.5574 25.7983 53.7164C25.1428 53.8764 24.6056 54.0752 24.3882 54.6698C24.1709 55.2644 23.9712 56.4572 23.9712 56.4572Z" fill="#DAB741"/>
<path fill-rule="evenodd" clip-rule="evenodd" d="M14.52 50.6567V63.8992C14.52 63.8992 17.4171 64.454 19.4431 63.7799C21.4699 63.1058 24.011 61.6956 24.011 58.8568C24.011 56.018 22.129 54.7731 20.5219 54.1122C18.4438 53.257 17.0036 53.5574 16.3472 53.3975C15.6907 53.2384 15.1544 53.0388 14.937 52.4441C14.7197 51.8495 14.52 50.6567 14.52 50.6567ZM35.906 50.6567V63.8992C35.906 63.8992 33.0098 64.454 30.9829 63.7799C28.9561 63.1058 26.4151 61.6956 26.4151 58.8568C26.4151 56.018 28.2025 54.9631 30.247 54.0318C32.2915 53.1006 33.4224 53.5574 34.0789 53.3975C34.7353 53.2384 35.2716 53.0388 35.489 52.4441C35.7063 51.8495 35.906 50.6567 35.906 50.6567Z" fill="#2A82C5"/>
<path fill-rule="evenodd" clip-rule="evenodd" d="M42.4 62.8009C42.6288 62.8831 42.8479 62.9449 43.0591 62.9865C43.2694 63.028 43.4779 63.0483 43.6838 63.0483C44.3517 63.0483 44.8695 62.8628 45.2379 62.4917C45.6063 62.1197 45.791 61.5931 45.791 60.9102C45.791 60.2449 45.6125 59.72 45.2556 59.3348C44.8986 58.9505 44.4153 58.7579 43.8075 58.7579C43.5645 58.7579 43.3277 58.7967 43.0962 58.8745C42.8656 58.9522 42.6332 59.0715 42.4 59.2323V62.8009ZM41.1198 63.7834V54.4674H42.4V58.0846C42.6385 57.915 42.893 57.7904 43.166 57.71C43.439 57.6305 43.7421 57.5898 44.0769 57.5898C45.002 57.5898 45.7442 57.8911 46.3026 58.4937C46.8619 59.0963 47.141 59.8976 47.141 60.896C47.141 61.9545 46.8274 62.7726 46.1992 63.3496C45.5719 63.9274 44.6848 64.2155 43.5398 64.2155C43.1545 64.2155 42.764 64.1801 42.3673 64.1094C41.9706 64.0379 41.5553 63.9292 41.1198 63.7834ZM51.4951 62.7824V60.9243C50.6416 61.1894 50.0523 61.435 49.7289 61.6585C49.4056 61.8838 49.2439 62.1445 49.2439 62.4422C49.2439 62.7028 49.3278 62.9043 49.4948 63.0465C49.6627 63.1879 49.8977 63.2595 50.2007 63.2595C50.426 63.2595 50.646 63.2188 50.8616 63.1384C51.0772 63.058 51.2884 62.9388 51.4951 62.7824ZM51.5428 63.5546C51.2221 63.7799 50.9182 63.9416 50.6319 64.0396C50.3456 64.1386 50.0373 64.1881 49.7077 64.1881C49.1396 64.1881 48.6952 64.0511 48.3745 63.779C48.0537 63.506 47.8929 63.1314 47.8929 62.6543C47.8929 62.2054 48.067 61.8114 48.4151 61.4721C48.7632 61.1328 49.2872 60.8465 49.9878 60.6133L51.4951 60.1079C51.4995 60.0717 51.5031 60.0355 51.5048 59.9983C51.5075 59.9621 51.5084 59.9091 51.5084 59.8411C51.5084 59.462 51.4156 59.189 51.2301 59.022C51.0445 58.855 50.7379 58.772 50.3121 58.772C49.9586 58.772 49.5946 58.8462 49.2182 58.9946C48.8427 59.144 48.4664 59.3648 48.09 59.6582V58.408C48.4151 58.142 48.78 57.9415 49.1829 57.8072C49.5858 57.672 50.0143 57.604 50.4676 57.604C51.2831 57.604 51.8759 57.7833 52.247 58.1429C52.6181 58.5025 52.8036 59.0821 52.8036 59.8835V62.5694C52.8036 62.7947 52.8231 62.9538 52.8619 63.0483C52.9008 63.142 52.9662 63.1888 53.0581 63.1888C53.1358 63.1888 53.2171 63.1685 53.3019 63.1269C53.3868 63.0854 53.5255 62.9891 53.7181 62.8371V63.6102C53.4893 63.8073 53.2578 63.9531 53.0245 64.0467C52.7913 64.1404 52.5492 64.1881 52.2974 64.1881C52.0553 64.1881 51.8733 64.1377 51.7522 64.0361C51.6312 63.9354 51.5614 63.7746 51.5428 63.5546ZM54.4717 64.075V57.7312H55.7379V58.5025C56.0542 58.2012 56.3687 57.9812 56.6824 57.8416C56.996 57.702 57.3344 57.6322 57.6958 57.6322C58.3832 57.6322 58.9248 57.831 59.3215 58.2295C59.7182 58.6271 59.9161 59.174 59.9161 59.8693V64.075H58.65V60.1927C58.65 59.6794 58.5413 59.3004 58.324 59.0547C58.1057 58.81 57.7682 58.6872 57.3106 58.6872C56.9854 58.6872 56.7 58.7499 56.4553 58.8763C56.2105 59.0026 55.9711 59.2093 55.7379 59.4983V64.075H54.4717ZM67.1311 57.7312L64.4734 60.6283L67.6656 64.075H65.9347L62.8388 60.6972L65.5716 57.7312H67.1311ZM61.5312 64.075V54.4674H62.7973V64.075H61.5312ZM71.4012 62.7824V60.9243C70.5468 61.1894 69.9584 61.435 69.635 61.6585C69.3116 61.8838 69.1499 62.1445 69.1499 62.4422C69.1499 62.7028 69.2339 62.9043 69.4009 63.0465C69.5687 63.1879 69.8038 63.2595 70.1068 63.2595C70.3312 63.2595 70.5521 63.2188 70.7677 63.1384C70.9833 63.058 71.1944 62.9388 71.4012 62.7824ZM71.4489 63.5546C71.1282 63.7799 70.8242 63.9416 70.538 64.0396C70.2517 64.1386 69.9434 64.1881 69.6138 64.1881C69.0457 64.1881 68.6013 64.0511 68.2805 63.779C67.9598 63.506 67.799 63.1314 67.799 62.6543C67.799 62.2054 67.9731 61.8114 68.3212 61.4721C68.6684 61.1328 69.1932 60.8465 69.893 60.6133L71.4012 60.1079C71.4056 60.0717 71.4091 60.0355 71.4109 59.9983C71.4136 59.9621 71.4144 59.9091 71.4144 59.8411C71.4144 59.462 71.3217 59.189 71.1361 59.022C70.9506 58.855 70.644 58.772 70.2181 58.772C69.8647 58.772 69.4998 58.8462 69.1243 58.9946C68.7479 59.144 68.3724 59.3648 67.996 59.6582V58.408C68.3212 58.142 68.6852 57.9415 69.089 57.8072C69.4919 57.672 69.9195 57.604 70.3736 57.604C71.1883 57.604 71.782 57.7833 72.1531 58.1429C72.5242 58.5025 72.7088 59.0821 72.7088 59.8835V62.5694C72.7088 62.7947 72.7291 62.9538 72.768 63.0483C72.8069 63.142 72.8723 63.1888 72.9633 63.1888C73.0419 63.1888 73.1232 63.1685 73.208 63.1269C73.2928 63.0854 73.4307 62.9891 73.6233 62.8371V63.6102C73.3953 63.8073 73.1638 63.9531 72.9306 64.0467C72.6973 64.1404 72.4552 64.1881 72.2034 64.1881C71.9613 64.1881 71.7793 64.1377 71.6583 64.0361C71.5364 63.9354 71.4675 63.7746 71.4489 63.5546ZM74.4193 64.075V54.4674H75.6855V64.075H74.4193ZM80.8639 63.8788C80.6668 63.9884 80.4557 64.0697 80.2295 64.1227C80.0033 64.1757 79.7594 64.2022 79.4988 64.2022C78.7858 64.2022 78.2839 64.0326 77.9941 63.6933C77.7034 63.354 77.5585 62.7355 77.5585 61.837V58.8277H76.4753V58.7048L78.6948 56.2539H78.8388V57.7312H80.8223V58.8277H78.8388V61.7416C78.8388 62.2681 78.9042 62.6083 79.0341 62.762C79.1648 62.9149 79.4087 62.9918 79.7656 62.9918C79.9574 62.9918 80.1447 62.967 80.3284 62.9167C80.5113 62.8663 80.6898 62.7877 80.8639 62.6825V63.8788ZM81.8446 55.8599C81.8446 55.6575 81.9135 55.487 82.0513 55.3492C82.1892 55.2113 82.3597 55.1424 82.562 55.1424C82.7643 55.1424 82.9349 55.2113 83.0727 55.3492C83.2105 55.487 83.2794 55.6575 83.2794 55.8599C83.2794 56.0622 83.2105 56.2327 83.0727 56.3705C82.9349 56.5084 82.7643 56.5773 82.562 56.5773C82.3597 56.5773 82.1892 56.5084 82.0513 56.3705C81.9135 56.2327 81.8446 56.0622 81.8446 55.8599ZM81.9294 64.075V57.7312H83.1955V64.075H81.9294ZM84.8707 64.075V57.7312H86.1377V58.5025C86.4531 58.2012 86.7685 57.9812 87.0822 57.8416C87.3958 57.702 87.7334 57.6322 88.0956 57.6322C88.563 57.6322 88.9526 57.7179 89.2672 57.8893C89.5808 58.0607 89.845 58.3311 90.0606 58.7013C90.4493 58.3179 90.8142 58.0431 91.1553 57.8787C91.4955 57.7144 91.8586 57.6322 92.2429 57.6322C92.9338 57.6322 93.479 57.831 93.8792 58.2295C94.2795 58.6271 94.48 59.174 94.48 59.8693V64.075H93.1998V60.1927C93.1998 59.675 93.0929 59.2942 92.88 59.0512C92.667 58.8091 92.3339 58.6872 91.8807 58.6872C91.5467 58.6872 91.256 58.7499 91.0086 58.8763C90.7612 59.0026 90.5209 59.2093 90.2877 59.4983V64.075H89.0498V60.1927C89.0498 59.6794 88.9411 59.3004 88.7229 59.0547C88.5056 58.81 88.1681 58.6872 87.7104 58.6872C87.3852 58.6872 87.0999 58.7499 86.8551 58.8763C86.6104 59.0026 86.3709 59.2093 86.1377 59.4983V64.075H84.8707Z" fill="#2A82C5"/>
</g>
<defs>
<clipPath id="clip0_801_8481">
<rect width="80" height="21.2155" fill="white" transform="translate(14.5 43)"/>
</clipPath>
</defs>
</svg>
