<svg width="108" height="108" viewBox="0 0 108 108" fill="none" xmlns="http://www.w3.org/2000/svg">
<g clip-path="url(#clip0_801_7443)">
<path d="M89.4577 53.4752L89.6313 53.2811L89.788 53.1075L89.7845 53.1041L91.6676 50.7613C91.6676 50.7613 91.6676 50.7613 91.671 50.7579C91.8583 50.5025 92.0387 50.254 92.1818 50.0565C92.2499 49.9679 92.3384 49.893 92.4474 49.8385C92.5189 49.8045 92.5904 49.7772 92.6619 49.767C92.6687 49.767 92.6721 49.767 92.6755 49.767H94.47L94.3236 49.9543L94.1022 50.2437C94.1022 50.2437 94.1022 50.2506 94.0954 50.2506C94.0954 50.2506 94.0954 50.2506 94.092 50.254L91.7493 53.3356C91.7153 53.3833 91.6982 53.4344 91.6982 53.4922C91.6982 53.5467 91.7119 53.591 91.7459 53.6387C91.7459 53.6387 94.0273 56.7237 94.0375 56.7441L94.3474 57.18L92.6687 57.1698C92.5597 57.1698 92.4542 57.1391 92.3418 57.0812C92.2635 57.037 92.192 56.9859 92.1341 56.9212C92.1341 56.9212 92.0966 56.8735 92.0796 56.8565L91.688 56.3083L90.6188 54.827H90.6154L90.5609 54.7589L90.486 54.6704L89.9276 54.0234L89.6245 53.6727L89.5734 53.6182L89.4543 53.4786V53.4718L89.4577 53.4752Z" fill="#006EB4"/>
<path d="M14.63 55.3719C14.63 55.3719 19.244 61.7088 26.2722 59.0767C26.2722 59.0767 27.2733 58.1947 27.9032 56.9348C27.9032 56.9348 21.1338 61.433 14.4904 53.0053C14.4904 53.0053 14.3781 54.0234 14.6266 55.3685" fill="#003C5D"/>
<path d="M14.6573 52.0859C14.6573 52.0859 14.6641 52.0927 14.6641 52.0961C14.7798 52.2494 16.3973 54.3299 19.1827 55.5864C21.522 56.6386 24.6785 57.1085 28.4616 55.3719C28.465 55.3515 28.4718 55.3344 28.4753 55.314C28.5059 55.1471 28.6012 54.6159 28.6353 54.0439C28.6353 54.0269 28.6353 54.0064 28.6353 53.9894L28.5978 53.0087C28.5706 53.036 28.54 53.0598 28.5127 53.087C28.1245 53.4344 26.4049 54.8305 23.7932 54.8305C21.5594 54.8305 18.6753 53.8021 15.4098 50.2233C15.4098 50.2233 15.4098 50.2301 15.4064 50.2301L14.6573 52.0859Z" fill="#003C5D"/>
<path d="M17.5584 47.9214C19.925 50.6013 22.0873 51.4389 23.8 51.5105C25.9419 51.599 27.3788 50.4821 27.641 50.2642C27.6546 50.254 27.6683 50.2403 27.6853 50.2267C27.6989 50.2471 27.7125 50.2642 27.7261 50.288C28.0156 50.7171 28.2403 51.3913 28.3527 51.7829C28.3629 51.8169 28.3731 51.851 28.3833 51.885C28.3935 51.9157 28.4004 51.9463 28.4072 51.9701C28.414 51.9974 28.4208 52.028 28.431 52.0587C28.431 52.0689 28.4344 52.0791 28.4378 52.0893C24.3176 53.7306 21.2632 53.2403 19.1963 52.2766C16.9217 51.2176 15.8354 49.5866 15.8354 49.5866L17.5618 47.9283L17.5584 47.9214Z" fill="#003C5D"/>
<mask id="mask0_801_7443" style="mask-type:luminance" maskUnits="userSpaceOnUse" x="14" y="50" width="15" height="6">
<path d="M21.5492 52.5763C19.1929 52.5763 17.0409 51.6875 15.4132 50.2233C15.0795 50.7954 14.8241 51.4219 14.6607 52.0859C16.3803 53.9417 18.832 55.1029 21.5526 55.1029C24.2733 55.1029 26.725 53.9417 28.4412 52.0859C28.2778 51.4253 28.0224 50.7988 27.6887 50.2233C26.061 51.6875 23.909 52.5763 21.5526 52.5763" fill="white"/>
</mask>
<g mask="url(#mask0_801_7443)">
<path d="M28.4344 50.2233H14.6573V55.1029H28.4344V50.2233Z" fill="url(#paint0_radial_801_7443)"/>
</g>
<mask id="mask1_801_7443" style="mask-type:luminance" maskUnits="userSpaceOnUse" x="14" y="53" width="15" height="6">
<path d="M21.5493 55.8622C18.8626 55.8622 16.4177 54.8134 14.5994 53.1041V55.2152C14.6096 55.2663 14.6198 55.3174 14.6334 55.3685C16.3496 57.2413 18.8149 58.4195 21.5527 58.4195C24.2904 58.4195 26.7523 57.2413 28.4685 55.3685C28.5842 54.8611 28.6455 54.3299 28.6455 53.7851C28.6455 53.5229 28.6319 53.2607 28.6013 53.0053C26.7761 54.7726 24.287 55.8622 21.5493 55.8622Z" fill="white"/>
</mask>
<g mask="url(#mask1_801_7443)">
<path d="M28.6455 53.0087H14.5994V58.4195H28.6455V53.0087Z" fill="url(#paint1_radial_801_7443)"/>
</g>
<mask id="mask2_801_7443" style="mask-type:luminance" maskUnits="userSpaceOnUse" x="15" y="56" width="13" height="5">
<path d="M21.5492 59.1822C19.1452 59.1822 16.9319 58.3411 15.1919 56.9382C16.3258 59.2231 18.6583 60.8133 21.3688 60.8814C21.4301 60.8814 21.4913 60.8814 21.5526 60.8814C21.6139 60.8814 21.6752 60.8814 21.7365 60.8814C24.447 60.8133 26.7761 59.2231 27.91 56.9382C26.17 58.3411 23.9567 59.1822 21.5526 59.1822" fill="white"/>
</mask>
<g mask="url(#mask2_801_7443)">
<path d="M27.91 56.9348H15.1919V60.8814H27.91V56.9348Z" fill="url(#paint2_radial_801_7443)"/>
</g>
<mask id="mask3_801_7443" style="mask-type:luminance" maskUnits="userSpaceOnUse" x="15" y="46" width="14" height="6">
<path d="M27.1404 46.2087C26.725 46.8454 26.2006 47.4073 25.5979 47.8704C25.5775 47.8874 25.5571 47.9044 25.5332 47.918C25.5332 47.918 25.5264 47.9214 25.523 47.9248C24.4095 48.7523 23.0373 49.2426 21.5458 49.2426C20.0544 49.2426 18.6719 48.7489 17.5584 47.918C16.8944 48.3709 16.3087 48.9328 15.832 49.5797C17.3371 50.9656 19.3427 51.8135 21.5458 51.8135C23.7489 51.8135 25.7307 50.9758 27.229 49.6036C27.2392 49.5934 27.2494 49.5865 27.2596 49.5763C27.2767 49.5627 27.2937 49.5457 27.3073 49.5287C27.9509 48.9259 28.5025 48.2211 28.9315 47.4413L28.7238 46.2018H27.137L27.1404 46.2087Z" fill="white"/>
</mask>
<g mask="url(#mask3_801_7443)">
<path d="M28.9384 46.2087H15.8354V51.8169H28.9384V46.2087Z" fill="url(#paint3_radial_801_7443)"/>
</g>
<mask id="mask4_801_7443" style="mask-type:luminance" maskUnits="userSpaceOnUse" x="18" y="46" width="7" height="3">
<path d="M18.2769 47.4924C19.2133 48.1189 20.3404 48.4833 21.5492 48.4833C22.7581 48.4833 23.8852 48.1189 24.8216 47.4924C23.8409 46.9816 22.7308 46.6922 21.5492 46.6922C20.3677 46.6922 19.2576 46.9816 18.2769 47.4924Z" fill="white"/>
</mask>
<g mask="url(#mask4_801_7443)">
<path d="M24.8216 46.6922H18.2769V48.4799H24.8216V46.6922Z" fill="url(#paint4_radial_801_7443)"/>
</g>
<mask id="mask5_801_7443" style="mask-type:luminance" maskUnits="userSpaceOnUse" x="15" y="46" width="14" height="6">
<path d="M27.1404 46.2087C26.725 46.8454 26.2006 47.4073 25.5979 47.8704C25.5775 47.8874 25.5571 47.9044 25.5332 47.918C25.5332 47.918 25.5264 47.9214 25.523 47.9248C24.4095 48.7523 23.0373 49.2426 21.5458 49.2426C20.0544 49.2426 18.6719 48.7489 17.5584 47.918C16.8944 48.3709 16.3087 48.9328 15.832 49.5797C17.3371 50.9656 19.3427 51.8135 21.5458 51.8135C23.7489 51.8135 25.7307 50.9758 27.229 49.6036C27.2392 49.5934 27.2494 49.5865 27.2596 49.5763C27.2767 49.5627 27.2937 49.5457 27.3073 49.5287C27.9509 48.9259 28.5025 48.2211 28.9315 47.4413L28.7238 46.2018H27.137L27.1404 46.2087Z" fill="white"/>
</mask>
<g mask="url(#mask5_801_7443)">
<path d="M28.9384 46.2087H15.8354V51.8169H28.9384V46.2087Z" fill="url(#paint5_radial_801_7443)"/>
</g>
<path d="M42.5248 54.5717C42.5248 54.5717 42.5146 54.5785 42.484 54.5785H41.0436C41.0061 54.5785 40.9959 54.5717 40.9925 54.5682C40.9891 54.5614 40.9925 54.541 40.9993 54.5172L41.7621 52.927L42.5112 54.5138C42.5316 54.5546 42.5214 54.5682 42.5214 54.5717M45.46 56.7033L42.0856 49.9645C42.0209 49.8351 41.9051 49.7636 41.7587 49.7636C41.6122 49.7636 41.4965 49.8351 41.4318 49.9611L38.2446 56.3219L37.8019 57.1766H39.2389C39.3512 57.1766 39.4602 57.1425 39.5658 57.0744C39.6679 57.0063 39.7496 56.9212 39.8007 56.819L40.0868 56.2368C40.1072 56.1891 40.1446 56.1482 40.2025 56.1108C40.2638 56.0733 40.3217 56.0529 40.3762 56.0529H43.1377C43.1956 56.0529 43.2501 56.0733 43.3046 56.1074C43.3659 56.1448 43.4067 56.1891 43.434 56.2334L43.7234 56.8088C43.7677 56.9178 43.846 57.0063 43.9584 57.0744C44.0673 57.1391 44.1763 57.1732 44.2887 57.1732H45.7052L45.4737 56.7271C45.4737 56.7271 45.4668 56.7067 45.46 56.6965" fill="#006EB4"/>
<path d="M51.1364 49.8964C51.0512 49.9816 51.0036 50.0939 51.0036 50.2165V53.8838L46.7506 49.8624C46.6586 49.7807 46.5463 49.75 46.4135 49.7738C46.2636 49.8045 46.1751 49.9135 46.1751 50.0701V57.18H47.3839C47.5065 57.18 47.6155 57.1357 47.704 57.0472C47.7891 56.9621 47.8334 56.8497 47.8334 56.7305V53.1211L52.083 57.0778C52.1579 57.1391 52.243 57.1698 52.3384 57.1698C52.3656 57.1698 52.3963 57.1698 52.4235 57.1596C52.5733 57.1289 52.6653 57.02 52.6653 56.8633V49.767H51.4565C51.3305 49.767 51.2249 49.8113 51.1364 49.8964Z" fill="#006EB4"/>
<path d="M59.6253 56.6045L56.9251 53.7102C56.8944 53.6761 56.8774 53.6386 56.874 53.591C56.874 53.5365 56.8876 53.4956 56.9149 53.4582L59.4721 50.2505C59.4857 50.2301 59.4994 50.2131 59.513 50.1927L59.8365 49.7772H58.1646C58.059 49.7772 57.9466 49.8045 57.8343 49.8624C57.7253 49.9168 57.6368 49.9849 57.5721 50.0701L55.1919 53.1109V50.2131C55.1919 50.0905 55.1476 49.9815 55.0625 49.893C54.9739 49.8079 54.8684 49.7636 54.7458 49.7636H53.9797C53.8571 49.7636 53.7481 49.8113 53.663 49.8964C53.5847 49.9815 53.5404 50.0905 53.5404 50.2097V56.7271C53.5404 56.8497 53.5813 56.9552 53.663 57.0438C53.7447 57.1323 53.8571 57.1766 53.9797 57.1766H54.7458C54.8684 57.1766 54.9774 57.1323 55.0625 57.0472C55.1476 56.9621 55.1919 56.8531 55.1919 56.7271V54.1698L57.7117 56.8974C57.7798 56.9791 57.8717 57.0506 57.9943 57.1017C58.1101 57.1527 58.2224 57.1766 58.3246 57.1766H60.211L59.6322 56.6011L59.6253 56.6045Z" fill="#006EB4"/>
<path d="M72.1664 49.7704L70.9576 49.7773C70.835 49.7773 70.7226 49.8249 70.6375 49.9101C70.5524 49.9986 70.5081 50.1041 70.5081 50.2301L70.5286 53.8975L66.2517 49.8998C66.1598 49.8181 66.0372 49.7875 65.9146 49.8147C65.7648 49.8454 65.6728 49.9577 65.6763 50.111L65.7171 57.2209L66.9259 57.2141C67.0485 57.2141 67.1575 57.1664 67.2426 57.0813C67.3277 56.9961 67.372 56.8838 67.372 56.7612L67.3516 53.1517L71.625 57.0847C71.7238 57.163 71.8361 57.1902 71.9655 57.1664C72.1153 57.1357 72.2073 57.0234 72.2039 56.8701L72.163 49.7704H72.1664Z" fill="#006EB4"/>
<path d="M78.1969 53.4752C78.1969 53.9519 78.139 54.3333 78.013 54.6125C77.8836 54.902 77.7202 55.1233 77.5329 55.2731C77.3388 55.4332 77.1243 55.5421 76.8961 55.5966C76.6408 55.6545 76.3922 55.6851 76.1572 55.6851L74.9961 55.692C74.9518 55.692 74.9246 55.6783 74.8973 55.6511C74.8667 55.6204 74.8531 55.5864 74.8531 55.5387L74.8292 51.4492C74.8292 51.4049 74.8429 51.3674 74.8701 51.3368C74.8973 51.3061 74.928 51.2959 74.9722 51.2959L76.1504 51.2891C76.3718 51.2891 76.6101 51.3164 76.8587 51.3674C77.0936 51.4185 77.315 51.5241 77.5125 51.6773C77.6998 51.8237 77.8632 52.0417 77.9994 52.3277C78.1288 52.6171 78.1935 53.0053 78.1969 53.4752ZM79.5624 51.885C79.3751 51.4253 79.0959 51.0235 78.7281 50.6864C78.0505 50.0769 77.1788 49.767 76.1436 49.767L73.1573 49.7841L73.2016 57.2072L76.1538 57.1902C76.668 57.1868 77.1515 57.1051 77.5942 56.9484C78.0266 56.7952 78.4182 56.5603 78.7622 56.2504C79.1333 55.9099 79.4091 55.4979 79.5828 55.0314C79.6747 54.793 79.7462 54.5444 79.7905 54.2856C79.8348 54.0234 79.8586 53.7442 79.8552 53.4548C79.8552 52.8997 79.753 52.372 79.5624 51.8816" fill="#006EB4"/>
<path d="M64.4905 49.7682L62.8323 49.7777L62.875 57.194L64.5333 57.1844L64.4905 49.7682Z" fill="#006EB4"/>
<path d="M86.0968 56.1107C86.0968 55.9882 86.0491 55.8758 85.964 55.7907C85.8789 55.7055 85.7665 55.6613 85.6439 55.6613L82.3614 55.6817C82.3171 55.6817 82.283 55.6681 82.2524 55.6374C82.2218 55.6068 82.2081 55.5727 82.2081 55.5285L82.2013 54.4559C82.2013 54.4116 82.2149 54.3775 82.2456 54.3469C82.2762 54.3162 82.3103 54.3026 82.358 54.3026L85.2012 54.2856C85.3238 54.2856 85.4362 54.2379 85.5213 54.1528C85.6065 54.0677 85.6507 53.9553 85.6507 53.8327V53.1994C85.6473 53.0768 85.5996 52.9678 85.5145 52.8827C85.4294 52.7976 85.3204 52.7533 85.1944 52.7533L82.3512 52.7703C82.3069 52.7703 82.2728 52.7567 82.2422 52.726C82.2115 52.6954 82.1979 52.6613 82.1979 52.6171L82.1911 51.4389C82.1911 51.3946 82.2047 51.3606 82.2354 51.3299C82.266 51.2993 82.3001 51.2857 82.3443 51.2857L85.6269 51.2652C85.7495 51.2652 85.8618 51.2176 85.9436 51.1324C86.0287 51.0473 86.073 50.9349 86.073 50.8124L86.0661 49.7568L80.5226 49.7908L80.5669 57.214L86.1104 57.18L86.1036 56.1073L86.0968 56.1107Z" fill="#006EB4"/>
<path d="M54.2997 49.7636H53.5336V50.4514L54.2997 49.7636Z" fill="#006EB4"/>
<path d="M54.2997 57.1766H53.5336V56.4921L54.2997 57.1766Z" fill="#006EB4"/>
<path d="M36.2628 55.1505C36.2287 55.2425 36.1776 55.331 36.1027 55.4195C36.0312 55.5047 35.9597 55.5659 35.8814 55.6034L35.8678 55.6102C35.7929 55.6545 35.7111 55.6783 35.6124 55.6783H33.9881C33.9439 55.6783 33.9098 55.6647 33.8792 55.6341C33.8485 55.6034 33.8349 55.5694 33.8349 55.5251V54.3197C33.8349 54.2754 33.8485 54.2414 33.8792 54.2073C33.9098 54.1767 33.9439 54.163 33.9881 54.163H35.466C35.7486 54.163 35.9631 54.2311 36.1027 54.3639C36.2492 54.5035 36.3207 54.667 36.3207 54.8611C36.3207 54.9701 36.3036 55.062 36.2628 55.1539M33.8349 51.4185C33.8349 51.3742 33.8485 51.3402 33.8792 51.3095C33.9098 51.2789 33.9439 51.2653 33.9881 51.2653H35.4592C35.5375 51.2653 35.6056 51.2823 35.6669 51.3129C35.7452 51.3572 35.8065 51.4083 35.861 51.4662C35.9052 51.5104 35.9461 51.5785 35.9836 51.6705C36.0142 51.7488 36.0312 51.8305 36.0312 51.9157C36.0312 52.0212 36.0176 52.1131 35.9904 52.1915C35.9563 52.2902 35.912 52.3719 35.861 52.4332C35.7963 52.5081 35.7282 52.566 35.6567 52.6001C35.5715 52.6409 35.4762 52.6614 35.3604 52.6614H33.9881C33.9439 52.6614 33.9098 52.6478 33.8792 52.6171C33.8485 52.5865 33.8349 52.5524 33.8349 52.5081V51.4185ZM37.8427 54.2584C37.7508 54.0507 37.6282 53.86 37.4784 53.7033C37.3286 53.5331 37.1617 53.4003 36.9676 53.3049C36.9472 53.2947 36.9302 53.2879 36.9063 53.2811C36.9132 53.2743 36.92 53.2709 36.9302 53.2675C37.097 53.1653 37.2366 53.0393 37.3422 52.8861C37.4375 52.7499 37.5227 52.5865 37.5942 52.4026C37.6589 52.2255 37.6895 52.0519 37.6895 51.885C37.6895 51.4423 37.6316 51.1018 37.5125 50.8464C37.4001 50.5638 37.2332 50.3391 37.0221 50.1858C36.828 50.0292 36.5897 49.9168 36.2934 49.8453C36.164 49.8181 36.0278 49.7977 35.8882 49.784C35.752 49.7704 35.6056 49.7636 35.4558 49.7636H32.1732V57.1834H35.609C35.769 57.1834 35.9257 57.1732 36.0755 57.1527C36.2219 57.1323 36.3683 57.1051 36.5079 57.071C36.8008 57.0029 37.0596 56.8735 37.2673 56.693C37.4784 56.5228 37.6555 56.2844 37.7883 55.9848C37.9109 55.6953 37.9755 55.3412 37.9755 54.936C37.9755 54.6942 37.9279 54.4695 37.8359 54.2652" fill="#006EB4"/>
<path d="M91.688 53.4786H91.6846L91.6403 53.4275L88.9741 50.0769C88.9741 50.0769 88.9639 50.0599 88.9605 50.053C88.8924 49.9645 88.8039 49.8896 88.6983 49.8351C88.6268 49.8011 88.5553 49.7738 88.4838 49.7636C88.4804 49.7636 88.4736 49.7636 88.4702 49.7636H86.6757L86.8221 49.9509L87.0434 50.2403C87.0434 50.2403 87.0468 50.2437 87.0502 50.2471C87.0502 50.2471 87.0502 50.2471 87.0502 50.2505L89.3964 53.3322C89.4304 53.3799 89.4474 53.4309 89.4474 53.4888C89.4474 53.5433 89.4338 53.5876 89.3998 53.6352C89.3998 53.6352 87.1183 56.7203 87.1081 56.7407L86.7948 57.1766L88.477 57.1664C88.5859 57.1664 88.6915 57.1357 88.8039 57.0778C88.8822 57.037 88.9503 56.9825 89.0116 56.9178L89.0865 56.8224L91.6914 53.4752H91.6948L91.688 53.4786Z" fill="#5EB4E5"/>
</g>
<defs>
<radialGradient id="paint0_radial_801_7443" cx="0" cy="0" r="1" gradientUnits="userSpaceOnUse" gradientTransform="translate(28.7669 44.7731) scale(15.1732 15.1732)">
<stop stop-color="white"/>
<stop offset="0.21" stop-color="#86B9D7"/>
<stop offset="0.41" stop-color="#0A71AF"/>
<stop offset="1" stop-color="#0F4E8B"/>
</radialGradient>
<radialGradient id="paint1_radial_801_7443" cx="0" cy="0" r="1" gradientUnits="userSpaceOnUse" gradientTransform="translate(4829.55 11763.3) scale(15.1766 15.1767)">
<stop stop-color="white"/>
<stop offset="0.21" stop-color="#86B9D7"/>
<stop offset="0.41" stop-color="#0A71AF"/>
<stop offset="1" stop-color="#0F4E8B"/>
</radialGradient>
<radialGradient id="paint2_radial_801_7443" cx="0" cy="0" r="1" gradientUnits="userSpaceOnUse" gradientTransform="translate(4829.62 11763.5) scale(15.1766 15.1767)">
<stop stop-color="white"/>
<stop offset="0.21" stop-color="#86B9D7"/>
<stop offset="0.41" stop-color="#0A71AF"/>
<stop offset="1" stop-color="#0F4E8B"/>
</radialGradient>
<radialGradient id="paint3_radial_801_7443" cx="0" cy="0" r="1" gradientUnits="userSpaceOnUse" gradientTransform="translate(4830.25 11765) scale(15.18 15.1801)">
<stop stop-color="white"/>
<stop offset="0.21" stop-color="#86B9D7"/>
<stop offset="0.41" stop-color="#0A71AF"/>
<stop offset="1" stop-color="#0F4E8B"/>
</radialGradient>
<radialGradient id="paint4_radial_801_7443" cx="0" cy="0" r="1" gradientUnits="userSpaceOnUse" gradientTransform="translate(4830.26 11765) scale(15.18 15.1801)">
<stop stop-color="white"/>
<stop offset="0.21" stop-color="#86B9D7"/>
<stop offset="0.41" stop-color="#0A71AF"/>
<stop offset="1" stop-color="#0F4E8B"/>
</radialGradient>
<radialGradient id="paint5_radial_801_7443" cx="0" cy="0" r="1" gradientUnits="userSpaceOnUse" gradientTransform="translate(30.3242 43.3014) scale(22.0073 22.0073)">
<stop stop-color="#D9E9F7"/>
<stop offset="0.12" stop-color="#D9E9F7"/>
<stop offset="0.24" stop-color="#A3CAE7"/>
<stop offset="0.44" stop-color="#4C99CF"/>
<stop offset="0.58" stop-color="#157ABF"/>
<stop offset="0.65" stop-color="#006FBA"/>
<stop offset="1" stop-color="#00305A"/>
</radialGradient>
<clipPath id="clip0_801_7443">
<rect width="80" height="14.6727" fill="white" transform="translate(14.47 46.2087)"/>
</clipPath>
</defs>
</svg>
