<svg width="108" height="108" viewBox="0 0 108 108" fill="none" xmlns="http://www.w3.org/2000/svg">
<path d="M14 50.8527C14.0147 50.7997 14.0279 50.7459 14.0447 50.6936C14.1675 50.3084 14.5443 50.0223 14.9539 50.0021C14.9874 50.0007 15.0209 50 15.0544 50C17.1108 50 19.1672 50 21.2243 50C21.6325 50 21.9507 50.1682 22.1615 50.5227C22.2508 50.6727 22.2815 50.8395 22.2822 51.0118C22.2829 52.9454 22.2843 54.8797 22.2822 56.8133C22.2822 57.3834 21.8384 57.823 21.2662 57.823C19.1819 57.8244 17.0975 57.8244 15.0132 57.823C14.5206 57.823 14.1172 57.4888 14.0167 57.0094C14.014 56.9961 14.0063 56.9843 14.0014 56.971C14.0014 54.9313 14.0014 52.8917 14.0014 50.8513L14 50.8527ZM20.8098 54.4903C20.6598 54.6097 20.5223 54.7374 20.3674 54.8385C20.0039 55.0772 19.6068 55.177 19.1728 55.0828C18.9062 55.0249 18.6746 54.8958 18.4554 54.7374C18.4087 54.7039 18.3257 54.6732 18.2838 54.6927C18.2433 54.7122 18.2203 54.7974 18.2168 54.8553C18.2077 54.999 18.2112 55.1442 18.214 55.2886C18.221 55.5963 18.2552 55.8999 18.3696 56.1888C18.4631 56.4239 18.6006 56.6291 18.8546 56.7086C19.0311 56.7638 19.2174 56.8091 19.401 56.8189C19.7931 56.8398 20.1874 56.8342 20.5802 56.8405C20.7163 56.8426 20.8531 56.8496 20.9892 56.8552C21.0785 56.8587 21.1524 56.8287 21.1873 56.7449C21.2132 56.6821 21.2306 56.6123 21.2334 56.5447C21.2397 56.403 21.2334 56.2607 21.2334 56.1183C21.2334 54.8644 21.2313 53.6104 21.2376 52.3565C21.239 52.0473 21.1615 51.7619 21.0303 51.4884C20.9208 51.2602 20.7694 51.0655 20.5251 50.9651C20.096 50.7878 19.6515 50.7041 19.186 50.7501C18.7429 50.7941 18.3982 51.0013 18.1366 51.3593C18.1366 51.3593 18.1282 51.3544 18.124 51.3481C17.9398 51.0579 17.6683 50.8806 17.3452 50.7969C16.884 50.6783 16.4269 50.7369 15.9783 50.8813C15.7892 50.942 15.6028 51.0111 15.4661 51.166C15.2051 51.4619 15.0704 51.8164 15.0474 52.2002C15.0237 52.5944 15.0488 52.9908 15.0481 53.3864C15.0474 54.378 15.0439 55.3703 15.0425 56.3618C15.0425 56.456 15.0425 56.5516 15.0565 56.6451C15.0802 56.8049 15.1779 56.8712 15.3328 56.8482C15.3572 56.8447 15.3823 56.8433 15.4075 56.8433C15.7564 56.8412 16.1053 56.8398 16.4535 56.8377C16.7493 56.8356 17.0431 56.821 17.3313 56.7407C17.5078 56.6919 17.6614 56.6082 17.759 56.4546C17.8372 56.3318 17.9063 56.1978 17.9509 56.0597C18.0821 55.6564 18.0751 55.237 18.0661 54.8183C18.0661 54.7995 18.0598 54.7799 18.0542 54.7611C18.0298 54.6801 17.9789 54.6536 17.9007 54.6892C17.856 54.7101 17.8149 54.7401 17.7744 54.7695C17.1701 55.2112 16.51 55.2342 15.8896 54.8232C15.741 54.7248 15.6098 54.5992 15.4619 54.4785C15.5742 54.3696 15.6622 54.2719 15.7619 54.1882C16.0948 53.9091 16.4737 53.7688 16.9147 53.8281C17.2057 53.8672 17.4653 53.9809 17.7032 54.1505C17.7388 54.1756 17.7925 54.1763 17.8379 54.1889C17.8309 54.1366 17.8253 54.0835 17.8156 54.0312C17.8135 54.02 17.796 54.0116 17.7877 54.0012C17.7514 53.9523 17.7081 53.9063 17.6802 53.8532C17.5574 53.6195 17.5002 53.3669 17.5023 53.1052C17.505 52.7626 17.6558 52.4709 17.8525 52.2016C17.937 52.0857 18.0354 51.979 18.14 51.8534C18.2503 51.988 18.3564 52.1025 18.4457 52.2288C18.6864 52.5707 18.8413 52.9384 18.7534 53.3704C18.7046 53.609 18.6529 53.8449 18.4694 54.0256C18.445 54.0493 18.438 54.0961 18.4331 54.1338C18.4254 54.1966 18.4541 54.2161 18.5134 54.1889C18.551 54.1714 18.5845 54.1456 18.6187 54.1219C19.3849 53.6048 20.2174 53.7556 20.8098 54.4903Z" fill="#ED1C24"/>
<path d="M25.1732 54.7099V53.1345C25.1732 51.774 25.1732 51.5233 25.1553 51.2369C25.1374 50.9325 25.0658 50.7893 24.7704 50.7267C24.6988 50.7088 24.5466 50.6998 24.4213 50.6998C24.3228 50.6998 24.2691 50.6819 24.2691 50.6193C24.2691 50.5566 24.3318 50.5387 24.466 50.5387C24.9405 50.5387 25.5044 50.5655 25.6834 50.5655C26.122 50.5655 26.4711 50.5387 26.7754 50.5387C28.3956 50.5387 28.682 51.407 28.682 51.8814C28.682 52.6154 28.2613 53.054 27.769 53.4478C28.503 53.6985 29.3981 54.334 29.3981 55.3813C29.3981 56.339 28.6552 57.3326 27.0082 57.3326C26.9008 57.3326 26.6412 57.3147 26.3816 57.3058C26.1131 57.2879 25.8445 57.2789 25.7103 57.2789C25.6118 57.2789 25.4149 57.2789 25.2 57.2879C24.9942 57.2879 24.7614 57.3058 24.5824 57.3058C24.466 57.3058 24.4034 57.2789 24.4034 57.2163C24.4034 57.1715 24.4392 57.1447 24.5466 57.1447C24.6809 57.1447 24.7883 57.1267 24.8688 57.1088C25.0479 57.073 25.0926 56.8761 25.1284 56.6165C25.1732 56.2406 25.1732 55.5334 25.1732 54.7099ZM26.2473 51.0758V53.2867C26.2473 53.3583 26.2742 53.3762 26.31 53.3852C26.3905 53.4031 26.5248 53.412 26.7307 53.412C27.0261 53.412 27.223 53.3762 27.3752 53.2419C27.6079 53.054 27.7422 52.7317 27.7422 52.2931C27.7422 51.6934 27.3931 50.9057 26.6233 50.9057C26.498 50.9057 26.4174 50.9057 26.3279 50.9236C26.2652 50.9415 26.2473 50.9773 26.2473 51.0758ZM28.2971 55.7841C28.2971 55.2291 28.1092 54.4772 27.4289 54.0028C27.2409 53.8685 27.035 53.8059 26.6859 53.788C26.5248 53.779 26.4353 53.779 26.301 53.779C26.2652 53.779 26.2473 53.7969 26.2473 53.8417V55.9631C26.2473 56.5539 26.2742 56.706 26.5606 56.8224C26.8023 56.9209 27.0082 56.9298 27.2141 56.9298C27.6169 56.9298 28.2971 56.715 28.2971 55.7841Z" fill="#4C4D4F"/>
<path d="M33.2002 55.3902H31.3473C31.3026 55.3902 31.2936 55.3992 31.2757 55.4439L30.855 56.4644C30.7745 56.6523 30.7386 56.8403 30.7386 56.9298C30.7386 57.0641 30.8103 57.1447 31.0519 57.1447H31.1683C31.2668 57.1447 31.2847 57.1805 31.2847 57.2252C31.2847 57.2879 31.2399 57.3058 31.1594 57.3058C30.8998 57.3058 30.5328 57.2789 30.2821 57.2789C30.2016 57.2789 29.7809 57.3058 29.3691 57.3058C29.2707 57.3058 29.2259 57.2879 29.2259 57.2252C29.2259 57.1805 29.2528 57.1447 29.3154 57.1447C29.387 57.1447 29.4765 57.1357 29.5481 57.1357C29.9062 57.082 30.0405 56.8493 30.2016 56.4644L32.2603 51.6755C32.3499 51.4607 32.4125 51.3711 32.4931 51.3711C32.6094 51.3711 32.6452 51.4428 32.7258 51.6128C32.9138 52.0335 34.2296 55.1485 34.7309 56.3032C35.0352 56.9925 35.259 57.0909 35.4022 57.1178C35.5186 57.1357 35.6081 57.1447 35.6976 57.1447C35.7692 57.1447 35.805 57.1715 35.805 57.2252C35.805 57.2879 35.7603 57.3058 35.4649 57.3058C35.1874 57.3058 34.6145 57.3058 33.9521 57.2879C33.8089 57.2789 33.7194 57.2789 33.7194 57.2252C33.7194 57.1805 33.7373 57.1536 33.8178 57.1447C33.8716 57.1357 33.9253 57.0641 33.8895 56.9746L33.2808 55.4439C33.2629 55.3992 33.236 55.3902 33.2002 55.3902ZM31.5084 54.9695H33.0301C33.066 54.9695 33.0749 54.9516 33.066 54.9248L32.323 52.9913C32.3141 52.9645 32.3051 52.9197 32.2872 52.9197C32.2603 52.9197 32.2514 52.9645 32.2424 52.9913L31.4816 54.9158C31.4637 54.9516 31.4816 54.9695 31.5084 54.9695Z" fill="#4C4D4F"/>
<path d="M37.0209 53.1614L37.1104 56.2674C37.1283 56.8582 37.2268 57.0372 37.3789 57.0909C37.5132 57.1357 37.6654 57.1447 37.7907 57.1447C37.8802 57.1447 37.925 57.1805 37.925 57.2252C37.925 57.2879 37.8534 57.3058 37.7459 57.3058C37.2357 57.3058 36.8687 57.2789 36.7255 57.2789C36.6539 57.2789 36.278 57.3058 35.8751 57.3058C35.7677 57.3058 35.6961 57.2968 35.6961 57.2252C35.6961 57.1805 35.7498 57.1447 35.8214 57.1447C35.9289 57.1447 36.0721 57.1357 36.1795 57.1088C36.3854 57.0551 36.4122 56.8493 36.4212 56.1869L36.4928 51.6755C36.4928 51.5233 36.5465 51.4159 36.627 51.4159C36.7255 51.4159 36.8329 51.5323 36.9672 51.6665C37.0657 51.765 38.2472 52.9734 39.393 54.0923C39.93 54.6204 40.9773 55.6946 41.0937 55.802H41.1295L41.0489 52.4184C41.04 51.953 40.9684 51.8187 40.7804 51.7471C40.664 51.7023 40.4761 51.7023 40.3686 51.7023C40.2702 51.7023 40.2433 51.6665 40.2433 51.6218C40.2433 51.5591 40.3239 51.5502 40.4402 51.5502C40.852 51.5502 41.2727 51.5681 41.4428 51.5681C41.5323 51.5681 41.8277 51.5502 42.2126 51.5502C42.32 51.5502 42.3916 51.5591 42.3916 51.6218C42.3916 51.6665 42.3468 51.7023 42.2573 51.7023C42.1768 51.7023 42.1141 51.7023 42.0157 51.7292C41.8008 51.7919 41.7382 51.9261 41.7292 52.3558L41.6397 57.1536C41.6397 57.3237 41.577 57.3953 41.5144 57.3953C41.3801 57.3953 41.2727 57.3147 41.1921 57.2342C40.6998 56.7777 39.7152 55.8378 38.8917 55.0411C38.0324 54.2176 37.1999 53.2957 37.0478 53.1614H37.0209Z" fill="#4C4D4F"/>
<path d="M45.1291 53.7522V54.0923H45.1649C45.4334 53.8059 46.5791 52.678 46.8119 52.4184C47.0356 52.1678 47.2057 51.9888 47.2057 51.8545C47.2057 51.774 47.1699 51.7202 47.0983 51.7023C47.0267 51.6844 46.9909 51.6665 46.9909 51.6218C46.9909 51.5681 47.0357 51.5502 47.1162 51.5502C47.2863 51.5502 47.7159 51.5681 47.9308 51.5681C48.1725 51.5681 48.6111 51.5502 48.8527 51.5502C48.9333 51.5502 48.987 51.5681 48.987 51.6218C48.987 51.6755 48.9423 51.7023 48.8706 51.7023C48.7543 51.7023 48.5573 51.7381 48.4141 51.7919C48.1635 51.8814 47.9129 52.0425 47.5817 52.3558C47.331 52.5885 46.1584 53.6985 45.9168 53.9759C46.1942 54.334 47.7428 55.9452 48.0471 56.2316C48.3962 56.5449 48.7006 56.8761 49.1213 57.0462C49.354 57.1447 49.5151 57.1447 49.6046 57.1447C49.6673 57.1447 49.7121 57.1805 49.7121 57.2252C49.7121 57.2789 49.6673 57.3058 49.5241 57.3058H48.8348C48.6021 57.3058 48.4589 57.3058 48.2888 57.2879C47.8681 57.2521 47.6085 57.0909 47.2684 56.7956C46.9282 56.5002 45.4155 54.7457 45.2454 54.513L45.1649 54.4056H45.1291V55.0948C45.1291 55.793 45.1291 56.3928 45.147 56.7239C45.1649 56.9388 45.2365 57.082 45.4334 57.1178C45.5408 57.1357 45.7198 57.1447 45.8183 57.1447C45.8809 57.1447 45.9257 57.1894 45.9257 57.2252C45.9257 57.2789 45.863 57.3058 45.7735 57.3058C45.3349 57.3058 44.771 57.2789 44.5741 57.2789C44.3951 57.2789 43.8938 57.3058 43.5805 57.3058C43.482 57.3058 43.4283 57.2789 43.4283 57.2252C43.4283 57.1894 43.4552 57.1447 43.5536 57.1447C43.67 57.1447 43.7595 57.1357 43.8311 57.1178C43.9923 57.082 44.037 56.9388 44.0639 56.715C44.0997 56.3928 44.0997 55.793 44.0997 55.0948V53.7522C44.0997 52.5975 44.0997 52.3826 44.0907 52.1409C44.0728 51.8814 44.0012 51.8008 43.7506 51.7292C43.6879 51.7113 43.5536 51.7023 43.4373 51.7023C43.3567 51.7023 43.303 51.6755 43.303 51.6218C43.303 51.5681 43.3657 51.5502 43.482 51.5502C43.8938 51.5502 44.3951 51.5681 44.583 51.5681C44.771 51.5681 45.3349 51.5502 45.5945 51.5502C45.7109 51.5502 45.7646 51.5681 45.7646 51.6218C45.7646 51.6755 45.7198 51.7023 45.6572 51.7023C45.5766 51.7023 45.5319 51.7113 45.4334 51.7292C45.2186 51.765 45.1559 51.8724 45.138 52.1409C45.1291 52.3826 45.1291 52.5975 45.1291 53.7522Z" fill="#4C4D4F"/>
<path d="M52.4455 56.4107L53.3317 50.5745C53.3585 50.4223 53.4122 50.3418 53.4839 50.3418C53.5555 50.3418 53.6092 50.3865 53.7255 50.6193L56.1692 55.6677L58.6039 50.5566C58.6755 50.4134 58.7203 50.3418 58.8008 50.3418C58.8814 50.3418 58.9351 50.4313 58.962 50.6193L59.7765 56.1511C59.8571 56.715 59.9466 56.9746 60.2151 57.0551C60.4747 57.1357 60.6537 57.1447 60.7701 57.1447C60.8507 57.1447 60.9133 57.1536 60.9133 57.2073C60.9133 57.2789 60.8059 57.3058 60.6806 57.3058C60.4568 57.3058 59.2216 57.2789 58.8635 57.2521C58.6576 57.2342 58.6039 57.2073 58.6039 57.1536C58.6039 57.1088 58.6397 57.082 58.7024 57.0551C58.7561 57.0372 58.7829 56.9209 58.7471 56.6702L58.2101 52.7317H58.1743L56.2229 56.7956C56.017 57.2163 55.9723 57.2968 55.8917 57.2968C55.8112 57.2968 55.7216 57.1178 55.5784 56.8493C55.3636 56.4375 54.6565 55.068 54.549 54.8173C54.4685 54.6294 53.9314 53.5015 53.6181 52.8302H53.5823L53.1169 56.3928C53.0989 56.5539 53.09 56.6702 53.09 56.8135C53.09 56.9835 53.2064 57.0641 53.3585 57.0999C53.5197 57.1357 53.645 57.1447 53.7345 57.1447C53.8061 57.1447 53.8688 57.1626 53.8688 57.2073C53.8688 57.2879 53.7882 57.3058 53.6539 57.3058C53.278 57.3058 52.8752 57.2789 52.7141 57.2789C52.544 57.2789 52.1143 57.3058 51.8279 57.3058C51.7384 57.3058 51.6668 57.2879 51.6668 57.2073C51.6668 57.1626 51.7205 57.1447 51.81 57.1447C51.8816 57.1447 51.9443 57.1447 52.0785 57.1178C52.3292 57.0641 52.4008 56.715 52.4455 56.4107Z" fill="#4C4D4F"/>
<path d="M64.3929 55.3902H62.5401C62.4953 55.3902 62.4864 55.3992 62.4684 55.4439L62.0477 56.4644C61.9672 56.6523 61.9314 56.8403 61.9314 56.9298C61.9314 57.0641 62.003 57.1447 62.2447 57.1447H62.361C62.4595 57.1447 62.4774 57.1805 62.4774 57.2252C62.4774 57.2879 62.4326 57.3058 62.3521 57.3058C62.0925 57.3058 61.7255 57.2789 61.4749 57.2789C61.3943 57.2789 60.9736 57.3058 60.5618 57.3058C60.4634 57.3058 60.4186 57.2879 60.4186 57.2252C60.4186 57.1805 60.4455 57.1447 60.5081 57.1447C60.5798 57.1447 60.6693 57.1357 60.7409 57.1357C61.0989 57.082 61.2332 56.8493 61.3943 56.4644L63.4531 51.6755C63.5426 51.4607 63.6052 51.3711 63.6858 51.3711C63.8022 51.3711 63.838 51.4428 63.9185 51.6128C64.1065 52.0335 65.4223 55.1485 65.9236 56.3032C66.2279 56.9925 66.4517 57.0909 66.5949 57.1178C66.7113 57.1357 66.8008 57.1447 66.8903 57.1447C66.9619 57.1447 66.9977 57.1715 66.9977 57.2252C66.9977 57.2879 66.953 57.3058 66.6576 57.3058C66.3801 57.3058 65.8072 57.3058 65.1448 57.2879C65.0016 57.2789 64.9121 57.2789 64.9121 57.2252C64.9121 57.1805 64.93 57.1536 65.0106 57.1447C65.0643 57.1357 65.118 57.0641 65.0822 56.9746L64.4735 55.4439C64.4556 55.3992 64.4288 55.3902 64.3929 55.3902ZM62.7012 54.9695H64.2229C64.2587 54.9695 64.2676 54.9516 64.2587 54.9248L63.5157 52.9913C63.5068 52.9645 63.4978 52.9197 63.4799 52.9197C63.4531 52.9197 63.4441 52.9645 63.4352 52.9913L62.6743 54.9158C62.6564 54.9516 62.6743 54.9695 62.7012 54.9695Z" fill="#4C4D4F"/>
<path d="M68.5738 57.4042C68.1173 57.4042 67.6339 57.3595 67.2938 57.2073C67.1684 57.1536 67.1416 57.1178 67.1416 56.9477C67.1416 56.536 67.1774 56.0616 67.1863 55.9362C67.1863 55.8199 67.2221 55.7393 67.2848 55.7393C67.3564 55.7393 67.3654 55.8109 67.3654 55.8646C67.3654 55.9631 67.3922 56.1242 67.437 56.2585C67.607 56.8224 68.1978 57.0104 68.6901 57.0104C69.3704 57.0104 69.7822 56.5807 69.7822 56.0437C69.7822 55.7125 69.7016 55.3813 69.0034 54.9695L68.5469 54.701C67.616 54.155 67.3117 53.6447 67.3117 52.9734C67.3117 52.0425 68.2068 51.4428 69.2988 51.4428C69.809 51.4428 70.2118 51.5144 70.4177 51.5681C70.4893 51.586 70.5251 51.6128 70.5251 51.6665C70.5251 51.765 70.4983 51.9798 70.4983 52.5796C70.4983 52.7407 70.4625 52.8212 70.3998 52.8212C70.3461 52.8212 70.3193 52.7765 70.3193 52.687C70.3193 52.6154 70.2835 52.3826 70.1134 52.1857C69.997 52.0425 69.7464 51.8277 69.2362 51.8277C68.6722 51.8277 68.162 52.123 68.162 52.6422C68.162 52.9824 68.2873 53.2509 68.9945 53.6447L69.3167 53.8238C70.3551 54.3966 70.6773 54.9785 70.6773 55.6677C70.6773 56.2316 70.4625 56.6881 69.8896 57.0909C69.5136 57.3595 68.9945 57.4042 68.5738 57.4042Z" fill="#4C4D4F"/>
<path d="M72.3378 55.0948V53.7522C72.3378 52.5975 72.3378 52.3826 72.3289 52.1409C72.311 51.8814 72.2394 51.8008 71.9887 51.7292C71.9261 51.7113 71.7918 51.7023 71.6754 51.7023C71.5949 51.7023 71.5412 51.6755 71.5412 51.6218C71.5412 51.5681 71.6038 51.5502 71.7202 51.5502C72.1319 51.5502 72.6332 51.5681 72.857 51.5681C73.1792 51.5681 73.8058 51.5502 74.1639 51.5502C75.1485 51.5502 75.5065 51.8724 75.6318 51.9798C75.8019 52.1409 76.0257 52.4811 76.0257 52.8928C76.0257 53.967 75.1664 54.7368 74.0475 54.7368C74.0117 54.7368 73.8506 54.7368 73.8148 54.7278C73.77 54.7278 73.7163 54.701 73.7163 54.6473C73.7163 54.5846 73.8058 54.5488 73.9759 54.5488C74.4145 54.5488 75.0321 54.0923 75.0321 53.3136C75.0321 53.0629 75.0053 52.5617 74.5667 52.1857C74.2802 51.9351 73.958 51.8993 73.779 51.8993C73.6626 51.8993 73.5104 51.9082 73.4388 51.9351C73.3941 51.953 73.3762 51.9977 73.3762 52.0783V55.0948C73.3762 55.793 73.3762 56.3928 73.412 56.7239C73.4388 56.9388 73.4836 57.082 73.7163 57.1178C73.8327 57.1357 74.0027 57.1447 74.1191 57.1447C74.2086 57.1447 74.2444 57.1894 74.2444 57.2252C74.2444 57.2789 74.1818 57.3058 74.1012 57.3058C73.5731 57.3058 73.0181 57.2789 72.8122 57.2789C72.6332 57.2789 72.1319 57.3058 71.8186 57.3058C71.7202 57.3058 71.6665 57.2789 71.6665 57.2252C71.6665 57.1894 71.6933 57.1447 71.7918 57.1447C71.9082 57.1447 71.9977 57.1357 72.0693 57.1178C72.2304 57.082 72.2752 56.9388 72.302 56.715C72.3378 56.3928 72.3378 55.793 72.3378 55.0948Z" fill="#4C4D4F"/>
<path d="M77.6253 55.0948V53.7522C77.6253 52.5975 77.6253 52.3826 77.6163 52.1409C77.5984 51.8814 77.5179 51.7919 77.3478 51.7381C77.2583 51.7113 77.1598 51.7023 77.0614 51.7023C76.9808 51.7023 76.9361 51.6844 76.9361 51.6128C76.9361 51.5681 76.9987 51.5502 77.124 51.5502C77.4194 51.5502 77.9565 51.5681 78.1803 51.5681C78.3772 51.5681 78.8874 51.5502 79.1918 51.5502C79.2902 51.5502 79.3529 51.5681 79.3529 51.6128C79.3529 51.6844 79.3081 51.7023 79.2276 51.7023C79.147 51.7023 79.0843 51.7113 78.9948 51.7292C78.78 51.765 78.7173 51.8724 78.6994 52.1409C78.6815 52.3826 78.6815 52.5975 78.6815 53.7522V55.0948C78.6815 55.8288 78.6815 56.4375 78.7173 56.7598C78.7442 56.9656 78.7979 57.082 79.0306 57.1178C79.138 57.1357 79.3171 57.1447 79.4334 57.1447C79.5229 57.1447 79.5588 57.1894 79.5588 57.2252C79.5588 57.2789 79.4961 57.3058 79.4066 57.3058C78.8874 57.3058 78.3503 57.2789 78.1355 57.2789C77.9565 57.2789 77.4194 57.3058 77.1061 57.3058C77.0077 57.3058 76.954 57.2789 76.954 57.2252C76.954 57.1894 76.9808 57.1447 77.0793 57.1447C77.1956 57.1447 77.2852 57.1357 77.3568 57.1178C77.5179 57.082 77.5626 56.9746 77.5895 56.7508C77.6253 56.4375 77.6253 55.8288 77.6253 55.0948Z" fill="#4C4D4F"/>
<path d="M83.5014 57.4042C81.2099 57.4042 80.279 55.7751 80.279 54.4235C80.279 53.1256 81.192 51.4428 83.582 51.4428C85.5691 51.4428 86.8044 52.5438 86.8044 54.2892C86.8044 56.0347 85.5333 57.4042 83.5014 57.4042ZM83.8236 56.9925C84.3786 56.9925 85.6318 56.7329 85.6318 54.5667C85.6318 52.8839 84.6203 51.8456 83.3492 51.8456C82.472 51.8456 81.4426 52.311 81.4426 54.1908C81.4426 55.7572 82.3377 56.9925 83.8236 56.9925Z" fill="#4C4D4F"/>
<path d="M88.6293 53.1614L88.7188 56.2674C88.7367 56.8582 88.8352 57.0372 88.9873 57.0909C89.1216 57.1357 89.2738 57.1447 89.3991 57.1447C89.4886 57.1447 89.5334 57.1805 89.5334 57.2252C89.5334 57.2879 89.4618 57.3058 89.3543 57.3058C88.8441 57.3058 88.4771 57.2789 88.3339 57.2789C88.2623 57.2789 87.8863 57.3058 87.4835 57.3058C87.3761 57.3058 87.3045 57.2968 87.3045 57.2252C87.3045 57.1805 87.3582 57.1447 87.4298 57.1447C87.5373 57.1447 87.6805 57.1357 87.7879 57.1088C87.9938 57.0551 88.0206 56.8493 88.0296 56.1869L88.1012 51.6755C88.1012 51.5233 88.1549 51.4159 88.2355 51.4159C88.3339 51.4159 88.4413 51.5323 88.5756 51.6665C88.6741 51.765 89.8556 52.9734 91.0014 54.0923C91.5384 54.6204 92.5857 55.6946 92.7021 55.802H92.7379L92.6573 52.4184C92.6484 51.953 92.5768 51.8187 92.3888 51.7471C92.2724 51.7023 92.0844 51.7023 91.977 51.7023C91.8786 51.7023 91.8517 51.6665 91.8517 51.6218C91.8517 51.5591 91.9323 51.5502 92.0486 51.5502C92.4604 51.5502 92.8811 51.5681 93.0512 51.5681C93.1407 51.5681 93.4361 51.5502 93.821 51.5502C93.9284 51.5502 94 51.5591 94 51.6218C94 51.6665 93.9552 51.7023 93.8657 51.7023C93.7852 51.7023 93.7225 51.7023 93.624 51.7292C93.4092 51.7919 93.3466 51.9261 93.3376 52.3558L93.2481 57.1536C93.2481 57.3237 93.1854 57.3953 93.1228 57.3953C92.9885 57.3953 92.8811 57.3147 92.8005 57.2342C92.3082 56.7777 91.3236 55.8378 90.5001 55.0411C89.6408 54.2176 88.8083 53.2957 88.6562 53.1614H88.6293Z" fill="#4C4D4F"/>
</svg>
