<svg width="108" height="108" viewBox="0 0 108 108" fill="none" xmlns="http://www.w3.org/2000/svg">
<path fill-rule="evenodd" clip-rule="evenodd" d="M19.3052 46.6027C16.1118 46.9044 15.7239 49.0118 15.1637 50.0375C14.8103 49.7531 14.6293 49.6841 14.2716 49.404C14.4957 48.6584 15.1723 47.5552 15.711 46.926C16.978 45.5555 18.3787 45.9951 19.8698 45.2538C20.7834 44.6634 21.0162 43.8359 21.3222 42.9999C21.8005 43.0861 21.9212 43.1895 22.2961 43.3748C22.0074 44.8272 21.0722 46.2537 19.3052 46.6027ZM20.5119 48.2404C22.2789 47.8913 23.2141 46.4605 23.5028 45.0125C23.1279 44.8272 23.0072 44.7237 22.5289 44.6375C22.2229 45.4736 21.9901 46.3054 21.0765 46.8915C19.5854 47.6328 18.1847 47.1932 16.9177 48.5636C16.3747 49.1928 15.6981 50.2961 15.4783 51.0417C15.8317 51.3261 16.0127 51.3951 16.3704 51.6752C16.9306 50.6452 17.3185 48.5378 20.5119 48.2404ZM21.6842 49.8479C23.4511 49.4988 24.3863 48.068 24.6751 46.62C24.3001 46.4347 24.1795 46.3312 23.7011 46.245C23.3951 47.0811 23.1624 47.9129 22.2487 48.499C20.7576 49.2403 19.357 48.8007 18.0899 50.1711C17.5469 50.8003 16.8703 51.9036 16.6505 52.6492C17.0039 52.9336 17.1849 53.0026 17.5426 53.2827C18.1028 52.2527 18.4907 50.1453 21.6842 49.8479ZM22.9469 51.3261C24.7138 50.977 25.649 49.5462 25.9378 48.0982C25.5628 47.9129 25.4422 47.8094 24.9638 47.7233C24.6578 48.5593 24.4251 49.3911 23.5115 49.9772C22.0203 50.7185 20.6197 50.2789 19.3526 51.6493C18.8096 52.2786 18.133 53.3818 17.9132 54.1274C18.2666 54.4118 18.4476 54.4808 18.8053 54.7609C19.3656 53.7309 19.7534 51.6235 22.9469 51.3261ZM19.0768 56.3555C15.8791 56.6054 15.4567 58.7042 14.8792 59.7256C14.5301 59.4369 14.3491 59.3636 14.0001 59.0749C14.2328 58.3336 14.9266 57.239 15.4783 56.6184C16.7669 55.2694 18.1632 55.7306 19.6629 55.0109C20.5852 54.4377 20.8309 53.6102 21.1498 52.7785C21.6281 52.8733 21.7445 52.9767 22.1151 53.1663C21.8048 54.6144 20.8481 56.0279 19.0768 56.3469V56.3555ZM20.2577 58.0104C17.0599 58.2603 16.6376 60.3591 16.0601 61.3805C15.711 61.0918 15.53 61.0185 15.1809 60.7298C15.4136 59.9885 16.1075 58.8939 16.6591 58.2733C17.9477 56.9244 19.344 57.3855 20.8438 56.6658C21.766 56.0926 22.0117 55.2651 22.3306 54.4334C22.809 54.5282 22.9253 54.6316 23.296 54.8212C22.9857 56.2693 22.0289 57.6829 20.2577 58.0061V58.0104ZM21.4083 59.6394C23.1796 59.3162 24.1364 57.9026 24.4466 56.4589C24.076 56.2693 23.9553 56.1659 23.4813 56.071C23.1624 56.9028 22.9167 57.7303 21.9945 58.3034C20.4947 59.0188 19.0984 58.5577 17.8098 59.9109C17.2582 60.5315 16.5643 61.6262 16.3316 62.3674C16.6807 62.6562 16.8617 62.7295 17.2151 63.0182C17.7926 61.9968 18.2106 59.898 21.4127 59.6481L21.4083 59.6394ZM22.6452 61.1392C24.4165 60.816 25.3732 59.4024 25.6878 57.9587C25.3172 57.769 25.2008 57.6656 24.7225 57.5708C24.4036 58.4026 24.1579 59.23 23.2356 59.8032C21.7359 60.5186 20.3396 60.0575 19.051 61.4107C18.4993 62.0313 17.8055 63.1259 17.5728 63.8672C17.9218 64.1559 18.1028 64.2292 18.4519 64.518C19.0294 63.4966 19.4475 61.3978 22.6495 61.1478L22.6452 61.1392ZM34.8631 46.9604C34.8631 47.163 34.8372 47.3526 34.7812 47.5336C34.7295 47.7146 34.6519 47.8784 34.5571 48.0292C34.458 48.1801 34.3416 48.3137 34.1994 48.43C34.0615 48.5464 33.902 48.6412 33.7253 48.7188C33.8589 48.7446 33.9839 48.792 34.1046 48.861C34.2209 48.93 34.3244 49.0162 34.4062 49.1196C34.4881 49.223 34.5571 49.348 34.6002 49.4859C34.6476 49.6281 34.6691 49.7833 34.6691 49.9557C34.6691 50.128 34.6476 50.309 34.6002 50.4814C34.5571 50.6581 34.4838 50.8262 34.3933 50.9857C34.2985 51.1451 34.1865 51.296 34.0485 51.4339C33.9106 51.5718 33.7512 51.6924 33.5659 51.7916C33.3805 51.895 33.1737 51.9726 32.9453 52.0286C32.7169 52.0846 32.454 52.1148 32.1523 52.1148H30.4802C30.3724 52.1148 30.2905 52.0889 30.2388 52.0329C30.1871 51.9769 30.1742 51.8907 30.2043 51.7657L31.3205 46.0468C31.3421 45.9175 31.3938 45.827 31.4757 45.7753C31.5576 45.7236 31.6438 45.6977 31.73 45.6977H33.0875C33.4064 45.6977 33.6736 45.7236 33.8891 45.7796C34.1046 45.8356 34.2856 45.9132 34.4278 46.0209C34.5743 46.1287 34.6778 46.258 34.751 46.4131C34.8243 46.5683 34.8588 46.745 34.8588 46.9475L34.8631 46.9604ZM33.9753 47.1156C33.9753 47.0079 33.958 46.9087 33.9236 46.8225C33.8891 46.7363 33.8288 46.6631 33.7512 46.5984C33.6736 46.5381 33.5702 46.4907 33.4495 46.4562C33.3288 46.4217 33.1694 46.4045 32.9711 46.4045H32.0877L31.6912 48.4818H32.635C32.8892 48.4818 33.1004 48.4387 33.2642 48.3525C33.428 48.2663 33.5616 48.1585 33.6693 48.0249C33.7727 47.8913 33.8503 47.7448 33.902 47.581C33.9537 47.4173 33.9753 47.2621 33.9753 47.1156ZM33.7857 50.0246C33.7857 49.7488 33.6908 49.5376 33.5012 49.3868C33.3116 49.2359 33.0185 49.1627 32.6177 49.1627H31.5489L31.1094 51.4252H32.2816C32.5488 51.4252 32.7729 51.3865 32.9539 51.3089C33.1349 51.2313 33.29 51.1279 33.415 51.0029C33.54 50.8779 33.6305 50.7271 33.6952 50.559C33.7598 50.3909 33.7943 50.2142 33.7943 50.0289L33.7857 50.0246ZM40.2286 51.8217L39.2848 45.8658C39.2761 45.8313 39.2675 45.8012 39.2503 45.7753C39.2331 45.7537 39.2072 45.7322 39.1641 45.7193C39.1253 45.7063 39.0693 45.6977 39.0046 45.6891C38.94 45.6848 38.8538 45.6805 38.7461 45.6805C38.6512 45.6805 38.5737 45.6805 38.509 45.6891C38.4444 45.6934 38.3884 45.7063 38.3496 45.7193C38.3065 45.7322 38.272 45.7494 38.2461 45.7753C38.2203 45.7968 38.1944 45.827 38.1729 45.8658L34.8975 51.8217C34.8631 51.895 34.8415 51.951 34.8286 51.9984C34.82 52.0415 34.8286 52.076 34.8501 52.1019C34.8717 52.1234 34.9148 52.1406 34.9708 52.1493C35.0268 52.1579 35.1044 52.1622 35.2035 52.1622C35.2897 52.1622 35.3673 52.1622 35.4276 52.1536C35.488 52.1493 35.5354 52.1363 35.5742 52.1234C35.6129 52.1105 35.6431 52.0932 35.6604 52.0717C35.6819 52.0501 35.6991 52.0243 35.7164 51.9898L36.5352 50.4426H39.1598L39.3882 52.0027C39.3882 52.0329 39.4011 52.0588 39.4141 52.076C39.427 52.0976 39.4485 52.1105 39.4744 52.1234C39.5002 52.1363 39.539 52.145 39.5908 52.1493C39.6425 52.1536 39.7071 52.1579 39.7761 52.1579C39.8838 52.1579 39.9743 52.1579 40.039 52.1493C40.1036 52.1406 40.151 52.1277 40.1812 52.1062C40.2113 52.0846 40.2329 52.0501 40.2372 52.0027C40.2415 51.9553 40.2372 51.8993 40.2286 51.826V51.8217ZM38.5909 46.564L39.0607 49.7574H36.8972L38.5909 46.564ZM46.0337 51.77C46.0251 51.8347 46.0035 51.8907 45.9777 51.9381C45.9475 51.9855 45.913 52.02 45.8785 52.0501C45.8397 52.0803 45.801 52.1019 45.7579 52.1148C45.7148 52.1277 45.6717 52.132 45.6329 52.132H45.3183C45.2321 52.132 45.1631 52.1234 45.1028 52.1019C45.0468 52.0803 44.995 52.0458 44.9476 51.9984C44.9045 51.951 44.8658 51.8864 44.8313 51.8131C44.7968 51.7355 44.758 51.6407 44.7235 51.5244L43.5427 48.1068C43.4608 47.8612 43.3832 47.6198 43.3014 47.3742C43.2195 47.1328 43.1462 46.8872 43.0686 46.6458H43.0557C43.0126 46.9174 42.9695 47.1845 42.9178 47.4517C42.8704 47.7189 42.8187 47.9861 42.767 48.2533L42.0386 51.9898C42.0343 52.0157 42.0214 52.0415 42.0042 52.0588C41.9869 52.0803 41.9611 52.0932 41.9266 52.1062C41.8921 52.1191 41.849 52.1277 41.7973 52.1363C41.7413 52.145 41.6809 52.1493 41.6034 52.1493C41.5258 52.1493 41.4654 52.1493 41.4137 52.1363C41.362 52.1277 41.3275 52.1191 41.2974 52.1062C41.2715 52.0932 41.2543 52.0803 41.2457 52.0588C41.237 52.0415 41.237 52.0157 41.2457 51.9898L42.4006 46.077C42.4265 45.9434 42.4825 45.8486 42.5644 45.7968C42.6463 45.7408 42.7325 45.7107 42.8187 45.7107H43.2022C43.2798 45.7107 43.3488 45.7193 43.4048 45.7365C43.4608 45.7537 43.5125 45.7839 43.5556 45.8227C43.5987 45.8658 43.6332 45.9218 43.6677 45.9908C43.7022 46.0597 43.7366 46.1459 43.7754 46.2494L44.9692 49.7143C45.0425 49.9298 45.12 50.1453 45.1933 50.3565C45.2666 50.5719 45.3398 50.7874 45.4088 51.0072H45.4174C45.4605 50.7357 45.5122 50.4556 45.5639 50.1668C45.6199 49.8781 45.6717 49.5936 45.7234 49.3264L46.4129 45.8529C46.4215 45.827 46.4302 45.8055 46.4474 45.7882C46.4646 45.771 46.4862 45.7537 46.5207 45.7408C46.5551 45.7279 46.5939 45.7193 46.6456 45.7107C46.6974 45.702 46.762 45.702 46.8353 45.702C46.9085 45.702 46.9732 45.702 47.0249 45.7107C47.0766 45.715 47.1154 45.7279 47.1413 45.7408C47.1714 45.7537 47.1887 45.7667 47.1973 45.7882C47.2059 45.8055 47.2102 45.827 47.2059 45.8529L46.0337 51.7743V51.77ZM52.8558 45.8442C52.8558 45.8873 52.8386 45.9304 52.8041 45.9822C52.7697 46.0296 52.7179 46.0899 52.6447 46.1589L50.0287 48.7533L51.6836 51.7399C51.7138 51.7959 51.7353 51.839 51.744 51.8734C51.7569 51.9079 51.7612 51.9381 51.7612 51.9639C51.7612 51.9941 51.7526 52.02 51.7396 52.0415C51.7267 52.0631 51.7052 52.0846 51.675 52.0975C51.6448 52.1105 51.6017 52.1191 51.5414 52.1277C51.4854 52.1363 51.4121 52.1406 51.3216 52.1406C51.2311 52.1406 51.1578 52.1406 51.1061 52.132C51.0501 52.1234 51.007 52.1148 50.9725 52.1062C50.9381 52.0932 50.9122 52.076 50.895 52.0588C50.8777 52.0372 50.8648 52.0114 50.8519 51.9812L49.1237 48.7834L48.5031 51.9898C48.5031 52.0157 48.4902 52.0415 48.4729 52.0588C48.4557 52.0803 48.4298 52.0932 48.3911 52.1062C48.3566 52.1191 48.3092 52.1277 48.2531 52.1363C48.1971 52.145 48.1325 52.1493 48.0549 52.1493C47.9773 52.1493 47.9084 52.1493 47.8523 52.1363C47.8006 52.1277 47.7575 52.1191 47.7274 52.1062C47.6972 52.0932 47.68 52.0803 47.6713 52.0588C47.6627 52.0415 47.6584 52.0157 47.667 51.9898L48.8737 45.8313C48.8737 45.8098 48.8867 45.7839 48.9082 45.7667C48.9254 45.7451 48.9556 45.7322 48.9901 45.7193C49.0246 45.7063 49.072 45.6977 49.128 45.6891C49.184 45.6805 49.2487 45.6762 49.3262 45.6762C49.4038 45.6762 49.4685 45.6762 49.5245 45.6891C49.5762 45.6977 49.6193 45.7063 49.6495 45.7193C49.6796 45.7322 49.6969 45.7451 49.7055 45.7667C49.7141 45.7839 49.7184 45.8055 49.7141 45.8313L49.1539 48.6843L51.9077 45.8399C51.9336 45.8098 51.9638 45.7839 51.9939 45.7624C52.0241 45.7408 52.0586 45.7236 52.1017 45.715C52.1448 45.702 52.1922 45.6934 52.2482 45.6891C52.3085 45.6805 52.3732 45.6805 52.4507 45.6805C52.5369 45.6805 52.6059 45.6805 52.6576 45.6934C52.7093 45.702 52.7524 45.715 52.7783 45.7236C52.8084 45.7365 52.83 45.7537 52.8386 45.7753C52.8515 45.7925 52.8558 45.8184 52.8558 45.8442ZM35.1691 55.2996C35.1691 55.3298 35.1691 55.3686 35.1604 55.4203C35.1561 55.472 35.1475 55.528 35.1389 55.5927C35.1303 55.6573 35.113 55.7177 35.0958 55.7823C35.0785 55.8469 35.0613 55.9073 35.0355 55.959C35.0139 56.0107 34.9837 56.0581 34.9579 56.0926C34.9277 56.1271 34.8975 56.1443 34.8674 56.1443C34.82 56.1443 34.7596 56.1228 34.6864 56.0797C34.6131 56.0366 34.5226 55.9892 34.4149 55.9374C34.3071 55.8857 34.1821 55.8383 34.0399 55.7952C33.8977 55.7521 33.7382 55.7306 33.5529 55.7306C33.3676 55.7306 33.2082 55.7564 33.0746 55.8082C32.9453 55.8599 32.8375 55.9288 32.7513 56.015C32.6695 56.1012 32.6048 56.196 32.566 56.3038C32.5229 56.4072 32.5057 56.5192 32.5057 56.627C32.5057 56.752 32.5359 56.864 32.6005 56.9588C32.6651 57.0536 32.747 57.1441 32.8505 57.226C32.9539 57.3079 33.0746 57.3898 33.2082 57.4674C33.3418 57.5449 33.4797 57.6225 33.6176 57.7087C33.7555 57.7949 33.8934 57.8854 34.027 57.9845C34.1606 58.0836 34.2813 58.2 34.3847 58.3293C34.4881 58.4629 34.5743 58.6094 34.6347 58.7775C34.6993 58.9456 34.7295 59.1438 34.7295 59.3636C34.7295 59.6911 34.6648 59.9971 34.5312 60.2773C34.3976 60.5574 34.2123 60.7987 33.9667 61.0099C33.721 61.2168 33.428 61.3805 33.0832 61.4969C32.7384 61.6176 32.3549 61.6736 31.9368 61.6736C31.7084 61.6736 31.5015 61.6563 31.3119 61.6176C31.1223 61.5831 30.9499 61.5357 30.8034 61.484C30.6569 61.4322 30.5319 61.3762 30.4327 61.3159C30.3293 61.2599 30.2561 61.2038 30.2086 61.1521C30.1612 61.1004 30.1354 61.0185 30.1354 60.9151C30.1354 60.8892 30.1354 60.8461 30.144 60.7901C30.1526 60.7341 30.1612 60.6737 30.1742 60.6091C30.1871 60.5445 30.2 60.4798 30.2173 60.4109C30.2345 60.3419 30.2561 60.2816 30.2819 60.2255C30.3078 60.1695 30.3336 60.1221 30.3638 60.0876C30.394 60.0532 30.4241 60.0359 30.4586 60.0359C30.5189 60.0359 30.5879 60.0618 30.6698 60.1178C30.7517 60.1695 30.8551 60.2299 30.9758 60.2945C31.0964 60.3591 31.243 60.4195 31.411 60.4755C31.5791 60.5315 31.7774 60.5574 32.0144 60.5574C32.2213 60.5574 32.4023 60.5315 32.5574 60.4798C32.7126 60.4281 32.8418 60.3548 32.9496 60.2686C33.053 60.1781 33.1349 60.0747 33.1866 59.954C33.2426 59.8334 33.2685 59.7041 33.2685 59.5619C33.2685 59.4326 33.2383 59.3205 33.1737 59.2214C33.109 59.1223 33.0272 59.0318 32.9237 58.9499C32.8203 58.868 32.7039 58.7904 32.5746 58.7172C32.4454 58.6439 32.3118 58.5663 32.1738 58.4844C32.0402 58.4026 31.9023 58.3077 31.7731 58.2129C31.6438 58.1181 31.5231 58.0018 31.424 57.8725C31.3205 57.7389 31.2387 57.588 31.174 57.42C31.1094 57.2519 31.0792 57.0493 31.0792 56.8252C31.0792 56.5106 31.1438 56.2219 31.2688 55.959C31.3938 55.6961 31.5705 55.4677 31.7903 55.2781C32.0144 55.0884 32.2816 54.9419 32.5919 54.8342C32.9022 54.7307 33.2426 54.6747 33.6133 54.6747C33.79 54.6747 33.958 54.6876 34.1132 54.7135C34.2683 54.7394 34.4149 54.7738 34.5442 54.8126C34.6734 54.8514 34.7855 54.8945 34.876 54.9462C34.9665 54.9936 35.0311 55.0367 35.0656 55.0712C35.1001 55.1014 35.126 55.1402 35.1432 55.1746C35.1604 55.2134 35.1647 55.2565 35.1647 55.3125L35.1691 55.2996ZM41.4008 59.0533C41.3146 59.4843 41.1767 59.8678 40.9914 60.1911C40.8061 60.5186 40.5777 60.7901 40.3018 61.0099C40.026 61.2297 39.7114 61.3935 39.3537 61.5055C38.996 61.6132 38.5995 61.6693 38.1686 61.6693C37.7074 61.6693 37.3109 61.6133 36.9834 61.5012C36.6516 61.3848 36.393 61.2168 36.1991 60.997C36.0051 60.7729 35.8845 60.4927 35.8284 60.1566C35.7724 59.8204 35.7896 59.4283 35.8801 58.9844L36.686 54.9635C36.6947 54.929 36.7076 54.8988 36.7378 54.8687C36.7636 54.8428 36.8067 54.8169 36.8627 54.7997C36.9188 54.7825 36.9963 54.7695 37.0825 54.7566C37.173 54.748 37.2851 54.7394 37.423 54.7394C37.5523 54.7394 37.6643 54.7437 37.7462 54.7566C37.8324 54.7652 37.9014 54.7781 37.9488 54.7997C37.9962 54.8169 38.0307 54.8428 38.0436 54.8687C38.0565 54.8988 38.0651 54.929 38.0565 54.9635L37.2506 58.9844C37.1946 59.2559 37.1773 59.4843 37.2032 59.6825C37.2291 59.8808 37.2894 60.0402 37.3799 60.1695C37.4747 60.2945 37.5997 60.3893 37.7548 60.454C37.91 60.5143 38.0996 60.5445 38.3194 60.5445C38.5392 60.5445 38.7461 60.51 38.9357 60.441C39.1253 60.3721 39.2934 60.2729 39.4399 60.1393C39.5864 60.0101 39.7114 59.8463 39.8149 59.6567C39.9183 59.467 39.9915 59.2516 40.0433 59.0102L40.8578 54.9592C40.8664 54.9247 40.8793 54.8945 40.9095 54.8643C40.9354 54.8385 40.9741 54.8126 41.0302 54.7954C41.0819 54.7782 41.1552 54.7652 41.25 54.7523C41.3405 54.7437 41.4525 54.7351 41.5861 54.7351C41.7197 54.7351 41.8275 54.7394 41.9093 54.7523C41.9912 54.7609 42.0559 54.7738 42.1076 54.7954C42.155 54.8126 42.1895 54.8385 42.2024 54.8643C42.2196 54.8945 42.2239 54.9247 42.2153 54.9592L41.3965 59.0447L41.4008 59.0533ZM50.3088 61.3719C50.3002 61.4064 50.283 61.4366 50.2614 61.4667C50.2399 61.4926 50.2054 61.5184 50.1537 61.5357C50.102 61.5529 50.033 61.5658 49.9468 61.5745C49.8606 61.5831 49.7529 61.5874 49.6236 61.5874C49.4943 61.5874 49.378 61.5874 49.2961 61.5745C49.2142 61.5658 49.1496 61.5529 49.1021 61.5357C49.059 61.5184 49.0289 61.4926 49.016 61.4667C49.003 61.4366 49.003 61.4064 49.0073 61.3719L50.1063 55.8599H50.0977L47.0249 61.3676C46.9818 61.4538 46.8999 61.5141 46.7836 61.5443C46.6629 61.5745 46.4905 61.5874 46.2707 61.5874C46.0509 61.5874 45.8828 61.5658 45.7794 61.5271C45.6803 61.4883 45.6286 61.4366 45.6243 61.3805L44.8313 55.8556H44.8227L43.7194 61.3719C43.7108 61.4064 43.6978 61.4366 43.6763 61.4667C43.6547 61.4926 43.616 61.5184 43.5642 61.5357C43.5125 61.5529 43.4479 61.5658 43.3617 61.5745C43.2755 61.5831 43.1678 61.5874 43.0342 61.5874C42.9006 61.5874 42.7928 61.5874 42.7109 61.5745C42.6291 61.5658 42.5644 61.5529 42.517 61.5357C42.4696 61.5184 42.4437 61.4926 42.4265 61.4667C42.4136 61.4366 42.4093 61.4064 42.4222 61.3719L43.6246 55.3341C43.6418 55.2479 43.6677 55.166 43.7065 55.0971C43.7453 55.0281 43.7883 54.9678 43.8444 54.9204C43.8961 54.873 43.9607 54.8385 44.0297 54.8126C44.0986 54.7868 44.1762 54.7738 44.2538 54.7738H45.1114C45.2666 54.7738 45.3958 54.7868 45.5036 54.8126C45.6113 54.8385 45.7018 54.8859 45.7708 54.9462C45.8397 55.0109 45.8958 55.0928 45.9302 55.1919C45.9647 55.2953 45.9906 55.416 46.0035 55.5582L46.6586 59.5877H46.6844L49.0073 55.5582C49.0763 55.4203 49.1452 55.3039 49.2142 55.2048C49.2831 55.1057 49.3607 55.0238 49.4469 54.9592C49.5331 54.8945 49.6279 54.8471 49.7314 54.8169C49.8348 54.7868 49.9598 54.7738 50.102 54.7738H51.076C51.1622 54.7738 51.2397 54.7868 51.3001 54.8126C51.3604 54.8342 51.4121 54.873 51.4466 54.9204C51.4854 54.9678 51.5069 55.0238 51.5155 55.0928C51.5242 55.1617 51.5242 55.2393 51.5069 55.3255L50.3045 61.3676L50.3088 61.3719ZM56.5234 55.2996C56.5234 55.2436 56.5147 55.1962 56.5018 55.1617C56.4846 55.1272 56.4587 55.0884 56.4242 55.0583C56.3898 55.0238 56.3251 54.985 56.2346 54.9333C56.1441 54.8816 56.0321 54.8385 55.9028 54.7997C55.7735 54.7566 55.627 54.7264 55.4718 54.7006C55.3167 54.6747 55.1486 54.6618 54.9719 54.6618C54.6013 54.6618 54.2608 54.7135 53.9505 54.8212C53.6402 54.929 53.373 55.0755 53.1489 55.2651C52.9291 55.4548 52.7524 55.6832 52.6274 55.9461C52.5025 56.2133 52.4378 56.502 52.4378 56.8123C52.4378 57.0407 52.468 57.239 52.5326 57.407C52.5973 57.5794 52.6792 57.7303 52.7826 57.8595C52.886 57.9888 53.0024 58.1052 53.1317 58.2C53.261 58.2991 53.3946 58.3896 53.5325 58.4715C53.6704 58.5534 53.804 58.631 53.9333 58.7042C54.0626 58.7775 54.1832 58.8551 54.2823 58.937C54.3858 59.0188 54.4677 59.1093 54.5323 59.2085C54.5926 59.3033 54.6271 59.4196 54.6271 59.5489C54.6271 59.6911 54.6013 59.8204 54.5452 59.9411C54.4935 60.0618 54.4116 60.1652 54.3082 60.2557C54.2048 60.3462 54.0712 60.4152 53.916 60.4669C53.7609 60.5186 53.5799 60.5445 53.373 60.5445C53.1403 60.5445 52.9377 60.5143 52.7697 60.4626C52.6016 60.4065 52.4551 60.3462 52.3344 60.2816C52.2094 60.2169 52.1103 60.1566 52.0284 60.1049C51.9465 60.0488 51.8776 60.023 51.8172 60.023C51.7827 60.023 51.7526 60.0402 51.7224 60.0747C51.6922 60.1092 51.6664 60.1566 51.6405 60.2126C51.619 60.2686 51.5974 60.329 51.5759 60.3979C51.5586 60.4669 51.5457 60.5315 51.5328 60.5962C51.5199 60.6608 51.5112 60.7212 51.5026 60.7772C51.494 60.8332 51.494 60.8763 51.494 60.9022C51.494 61.0056 51.5199 61.0875 51.5673 61.1392C51.6147 61.1909 51.6922 61.2469 51.7914 61.303C51.8905 61.3633 52.0155 61.4193 52.162 61.471C52.3085 61.5227 52.4809 61.5702 52.6705 61.6046C52.8645 61.6434 53.0713 61.6607 53.2954 61.6607C53.7135 61.6607 54.097 61.6003 54.4418 61.484C54.7866 61.3676 55.0796 61.2038 55.3253 60.997C55.5666 60.7901 55.7562 60.5445 55.8898 60.2643C56.0234 59.9842 56.0881 59.6782 56.0881 59.3507C56.0881 59.1309 56.0579 58.937 55.9933 58.7646C55.9329 58.5965 55.8467 58.4457 55.7433 58.3164C55.6399 58.1871 55.5192 58.0707 55.3856 57.9716C55.252 57.8725 55.1141 57.782 54.9762 57.6958C54.8383 57.6096 54.7004 57.532 54.5668 57.4544C54.4332 57.3769 54.3125 57.2993 54.2091 57.2131C54.1056 57.1312 54.0195 57.045 53.9591 56.9459C53.8945 56.8511 53.8643 56.739 53.8643 56.6141C53.8643 56.5063 53.8859 56.3986 53.9246 56.2908C53.9634 56.1831 54.0281 56.0883 54.11 56.0021C54.1918 55.9159 54.2996 55.8469 54.4332 55.7952C54.5625 55.7435 54.7219 55.7177 54.9115 55.7177C55.1012 55.7177 55.2563 55.7392 55.3985 55.7823C55.5408 55.8254 55.6657 55.8728 55.7735 55.9245C55.8769 55.9762 55.9717 56.0236 56.045 56.0667C56.1182 56.1098 56.1786 56.1314 56.226 56.1314C56.2562 56.1314 56.2906 56.1141 56.3165 56.0797C56.3467 56.0452 56.3725 55.9978 56.3941 55.9461C56.4156 55.89 56.4372 55.834 56.4544 55.7694C56.4716 55.7047 56.4846 55.6401 56.4975 55.5797C56.5061 55.5151 56.5147 55.4591 56.519 55.4074C56.5234 55.3556 56.5277 55.3125 56.5277 55.2867L56.5234 55.2996ZM62.0052 54.9764C62.0052 54.9764 62.0052 55.0324 61.9966 55.0884C61.9923 55.1402 61.9837 55.2005 61.9708 55.2651C61.9621 55.3298 61.9492 55.3987 61.9277 55.4677C61.9104 55.541 61.8889 55.6013 61.863 55.6616C61.8372 55.7177 61.807 55.7651 61.7682 55.8082C61.7294 55.8469 61.6906 55.8642 61.6518 55.8642H59.2341L58.9023 57.5148H60.9537C61.0011 57.5148 61.0356 57.532 61.0571 57.5665C61.0787 57.601 61.0873 57.6484 61.0873 57.713C61.0873 57.7389 61.0873 57.7777 61.0787 57.8251C61.0743 57.8768 61.0657 57.9328 61.0528 57.9975C61.0442 58.0621 61.0313 58.1267 61.0097 58.1914C60.9925 58.256 60.9709 58.3164 60.9451 58.3767C60.9192 58.4327 60.889 58.4758 60.8546 58.5103C60.8201 58.5448 60.7813 58.562 60.7382 58.562H58.6868L58.3032 60.4712H60.7554C60.7985 60.4712 60.8287 60.4884 60.8502 60.5272C60.8718 60.5617 60.8804 60.6177 60.8804 60.6867C60.8804 60.7082 60.8804 60.7513 60.8761 60.803C60.8761 60.8548 60.8675 60.9151 60.8546 60.9797C60.8416 61.0444 60.8287 61.109 60.8115 61.178C60.7942 61.2426 60.7727 61.3073 60.7468 61.3676C60.721 61.4236 60.6908 61.471 60.6563 61.5055C60.6218 61.54 60.583 61.5572 60.5356 61.5572H57.131C57.075 61.5572 57.0233 61.5486 56.9802 61.5357C56.9328 61.5184 56.8983 61.4926 56.8681 61.4581C56.838 61.4193 56.8164 61.3762 56.8078 61.3245C56.7992 61.2685 56.7992 61.2038 56.8121 61.1263L57.9929 55.222C58.0231 55.0669 58.0878 54.9592 58.1826 54.8902C58.2774 54.8212 58.3851 54.7868 58.5015 54.7868H61.8673C61.9578 54.7868 62.0009 54.8514 62.0009 54.985L62.0052 54.9764ZM65.8408 60.622C65.8408 60.6479 65.8408 60.6867 65.8322 60.7384C65.8279 60.7901 65.8193 60.8548 65.8063 60.9237C65.7934 60.9927 65.7762 61.0659 65.7589 61.1392C65.7374 61.2125 65.7158 61.2814 65.69 61.3417C65.6641 61.4021 65.634 61.4538 65.5995 61.4926C65.565 61.5314 65.5262 61.5486 65.4788 61.5486H62.3715C62.3155 61.5486 62.2638 61.54 62.2164 61.5271C62.169 61.5098 62.1302 61.484 62.1 61.4495C62.0699 61.4107 62.0483 61.3676 62.0397 61.3159C62.0311 61.2599 62.0311 61.1952 62.044 61.1176L63.2766 54.9592C63.2766 54.9247 63.2981 54.8945 63.324 54.8643C63.3498 54.8385 63.3929 54.8126 63.4533 54.7954C63.5093 54.7782 63.5869 54.7652 63.6731 54.7566C63.7636 54.748 63.8756 54.7437 64.0135 54.7437C64.1514 54.7437 64.2549 54.7437 64.3411 54.7566C64.4273 54.7652 64.4962 54.7782 64.5436 54.7954C64.591 54.8126 64.6255 54.8385 64.6384 54.8643C64.6514 54.8945 64.66 54.9247 64.6514 54.9592L63.5653 60.4152H65.7072C65.7546 60.4152 65.7891 60.4367 65.8106 60.4712C65.8322 60.51 65.8408 60.5617 65.8408 60.622ZM72.0338 56.1572C72.0338 56.3641 72.0036 56.558 71.9476 56.739C71.8916 56.9244 71.8054 57.0924 71.6976 57.2433C71.5899 57.3941 71.4563 57.5277 71.3011 57.6441C71.146 57.7604 70.9736 57.8552 70.784 57.9242C70.9348 57.95 71.077 58.0018 71.202 58.0707C71.3313 58.1397 71.4391 58.2302 71.5296 58.3379C71.6201 58.4457 71.6933 58.5749 71.7407 58.7258C71.7924 58.8723 71.814 59.0404 71.814 59.2257C71.814 59.3938 71.7924 59.5662 71.745 59.7472C71.7019 59.9239 71.6287 60.1006 71.5296 60.2729C71.4347 60.4453 71.3055 60.6091 71.1503 60.7642C70.9952 60.9194 70.8055 61.0573 70.5857 61.1737C70.3659 61.29 70.1117 61.3848 69.8229 61.4538C69.5342 61.5227 69.198 61.5572 68.8145 61.5572H66.9355C66.7932 61.5572 66.6898 61.5227 66.6252 61.4538C66.5605 61.3848 66.5433 61.2771 66.5735 61.1263L67.7543 55.222C67.7845 55.0669 67.8448 54.9592 67.9396 54.8902C68.0344 54.8212 68.1465 54.7868 68.2715 54.7868H69.9048C70.2625 54.7868 70.5728 54.8169 70.8357 54.8687C71.0986 54.9247 71.3141 55.0066 71.4951 55.1229C71.6718 55.235 71.8054 55.3772 71.8959 55.5496C71.9864 55.722 72.0295 55.9245 72.0295 56.1659L72.0338 56.1572ZM70.6202 56.4158C70.6202 56.3167 70.603 56.2305 70.5685 56.1572C70.534 56.084 70.4823 56.0193 70.4134 55.9676C70.3401 55.9159 70.2539 55.8728 70.1462 55.8469C70.0427 55.8168 69.9048 55.8038 69.741 55.8038H68.9912L68.6421 57.5622H69.4135C69.6419 57.5622 69.8272 57.5277 69.9781 57.4544C70.1289 57.3812 70.2496 57.2907 70.3444 57.1786C70.4392 57.0666 70.5125 56.9416 70.5513 56.8037C70.5944 56.6658 70.6159 56.5365 70.6159 56.4115L70.6202 56.4158ZM70.3832 59.2947C70.3832 59.0706 70.3013 58.8939 70.1332 58.7646C69.9695 58.6353 69.7066 58.5706 69.3446 58.5706H68.4352L68.0474 60.5014H69.0213C69.267 60.5014 69.4782 60.4669 69.6462 60.3979C69.8143 60.329 69.9565 60.2385 70.0643 60.1264C70.1763 60.0144 70.2539 59.8851 70.3056 59.7386C70.3573 59.592 70.3832 59.4455 70.3832 59.2947ZM78.0285 61.0401L77.145 55.0324C77.1364 54.9678 77.1235 54.9161 77.1019 54.8773C77.0804 54.8385 77.0373 54.8126 76.9726 54.7911C76.908 54.7695 76.8132 54.7609 76.6968 54.7523C76.5761 54.748 76.4167 54.7437 76.2141 54.7437C76.0331 54.7437 75.8909 54.7437 75.7789 54.7523C75.6668 54.7566 75.5806 54.7695 75.516 54.7911C75.4513 54.8126 75.3996 54.8385 75.3651 54.873C75.3307 54.9074 75.2962 54.9548 75.2617 55.0152L71.9821 61.0271C71.9174 61.1521 71.87 61.2469 71.8485 61.3202C71.8269 61.3935 71.8312 61.4495 71.8571 61.4883C71.8873 61.5271 71.9476 61.5529 72.0338 61.5615C72.1243 61.5702 72.2493 61.5788 72.4087 61.5788C72.5596 61.5788 72.6845 61.5788 72.7837 61.5702C72.8828 61.5615 72.9604 61.5486 73.0207 61.5357C73.081 61.5184 73.1241 61.4926 73.1543 61.4581C73.1845 61.4279 73.2146 61.3848 73.2362 61.3331L73.9343 60.0058H76.4727L76.658 61.3676C76.658 61.415 76.671 61.4538 76.6882 61.484C76.7054 61.5141 76.7399 61.5357 76.783 61.5486C76.8304 61.5615 76.8951 61.5745 76.9813 61.5788C77.0674 61.5831 77.1752 61.5874 77.3131 61.5874C77.4984 61.5874 77.6449 61.5874 77.7527 61.5745C77.8604 61.5658 77.9337 61.5443 77.9811 61.5055C78.0285 61.4667 78.0501 61.4107 78.0544 61.3374C78.0544 61.2642 78.0501 61.165 78.0328 61.0401H78.0285ZM75.9685 56.071L76.3564 58.9456H74.4558L75.9642 56.071H75.9685ZM84.424 56.1572C84.424 56.3641 84.3939 56.558 84.3378 56.739C84.2818 56.9244 84.1956 57.0924 84.0879 57.2433C83.9801 57.3941 83.8465 57.5277 83.6914 57.6441C83.5362 57.7604 83.3638 57.8552 83.1742 57.9242C83.3251 57.95 83.4673 58.0018 83.5923 58.0707C83.7215 58.1397 83.8293 58.2302 83.9198 58.3379C84.0103 58.4457 84.0836 58.5749 84.131 58.7258C84.1827 58.8723 84.2042 59.0404 84.2042 59.2257C84.2042 59.3938 84.1827 59.5662 84.1353 59.7472C84.0922 59.9239 84.0189 60.1006 83.9198 60.2729C83.825 60.4453 83.6957 60.6091 83.5405 60.7642C83.3854 60.9194 83.1958 61.0573 82.976 61.1737C82.7562 61.29 82.5019 61.3848 82.2132 61.4538C81.9244 61.5227 81.5883 61.5572 81.2047 61.5572H79.3257C79.1835 61.5572 79.0801 61.5227 79.0154 61.4538C78.9508 61.3848 78.9335 61.2771 78.9637 61.1263L80.1445 55.222C80.1747 55.0669 80.235 54.9592 80.3299 54.8902C80.4247 54.8212 80.5367 54.7868 80.666 54.7868H82.2994C82.6571 54.7868 82.9674 54.8169 83.2302 54.8687C83.4931 54.9247 83.7086 55.0066 83.8896 55.1229C84.0663 55.235 84.1999 55.3772 84.2904 55.5496C84.3809 55.722 84.424 55.9245 84.424 56.1659V56.1572ZM83.0105 56.4158C83.0105 56.3167 82.9932 56.2305 82.9587 56.1572C82.9243 56.084 82.8725 56.0193 82.8036 55.9676C82.7303 55.9159 82.6441 55.8728 82.5364 55.8469C82.433 55.8168 82.2951 55.8038 82.1313 55.8038H81.3814L81.0323 57.5622H81.8038C82.0322 57.5622 82.2175 57.5277 82.3683 57.4544C82.5192 57.3812 82.6398 57.2907 82.7346 57.1786C82.8295 57.0666 82.9027 56.9416 82.9415 56.8037C82.9846 56.6658 83.0061 56.5365 83.0061 56.4115L83.0105 56.4158ZM82.7734 59.2947C82.7734 59.0706 82.6915 58.8939 82.5235 58.7646C82.3597 58.6353 82.0968 58.5706 81.7348 58.5706H80.8255L80.4376 60.5014H81.4073C81.6529 60.5014 81.8641 60.4669 82.0322 60.3979C82.2002 60.329 82.3425 60.2385 82.4502 60.1264C82.5623 60.0144 82.6398 59.8851 82.6915 59.7386C82.7433 59.592 82.7691 59.4455 82.7691 59.2947H82.7734ZM90.1645 54.9764C90.1645 54.9764 90.1645 55.0324 90.1559 55.0884C90.1515 55.1402 90.1429 55.2005 90.13 55.2651C90.1214 55.3298 90.1084 55.3987 90.0869 55.4677C90.0697 55.541 90.0481 55.6013 90.0222 55.6616C89.9964 55.7177 89.9662 55.7651 89.9274 55.8082C89.8887 55.8469 89.8499 55.8642 89.8111 55.8642H87.3934L87.0615 57.5148H89.1129C89.1603 57.5148 89.1948 57.532 89.2163 57.5665C89.2379 57.601 89.2465 57.6484 89.2465 57.713C89.2465 57.7389 89.2465 57.7777 89.2379 57.8251C89.2336 57.8768 89.225 57.9328 89.212 57.9975C89.2034 58.0621 89.1905 58.1267 89.1689 58.1914C89.1517 58.256 89.1302 58.3164 89.1043 58.3767C89.0784 58.4327 89.0483 58.4758 89.0138 58.5103C88.9793 58.5448 88.9405 58.562 88.8974 58.562H86.846L86.4625 60.4712H88.9147C88.9578 60.4712 88.9879 60.4884 89.0095 60.5272C89.031 60.5617 89.0396 60.6177 89.0396 60.6867C89.0396 60.7082 89.0397 60.7513 89.0353 60.803C89.0353 60.8548 89.0267 60.9151 89.0138 60.9797C89.0009 61.0444 88.9879 61.109 88.9707 61.178C88.9535 61.2426 88.9319 61.3073 88.9061 61.3676C88.8802 61.4236 88.85 61.471 88.8156 61.5055C88.7811 61.54 88.7423 61.5572 88.6949 61.5572H85.2903C85.2342 61.5572 85.1825 61.5486 85.1394 61.5357C85.092 61.5184 85.0575 61.4926 85.0274 61.4581C84.9972 61.4193 84.9757 61.3762 84.967 61.3245C84.9584 61.2685 84.9584 61.2038 84.9713 61.1263L86.1522 55.222C86.1824 55.0669 86.247 54.9592 86.3418 54.8902C86.4366 54.8212 86.5444 54.7868 86.6607 54.7868H90.0266C90.1171 54.7868 90.1602 54.8514 90.1602 54.985L90.1645 54.9764ZM94.0001 60.622C94.0001 60.6479 94.0001 60.6867 93.9914 60.7384C93.9871 60.7901 93.9785 60.8548 93.9656 60.9237C93.9527 60.9927 93.9354 61.0659 93.9182 61.1392C93.8966 61.2125 93.8751 61.2814 93.8492 61.3417C93.8234 61.4021 93.7932 61.4538 93.7587 61.4926C93.7242 61.5314 93.6855 61.5486 93.638 61.5486H90.5308C90.4748 61.5486 90.423 61.54 90.3756 61.5271C90.3282 61.5098 90.2894 61.484 90.2593 61.4495C90.2291 61.4107 90.2076 61.3676 90.1989 61.3159C90.1903 61.2599 90.1903 61.1952 90.2033 61.1176L91.4358 54.9592C91.4358 54.9247 91.4574 54.8945 91.4832 54.8643C91.5091 54.8385 91.5522 54.8126 91.6125 54.7954C91.6685 54.7782 91.7461 54.7652 91.8323 54.7566C91.9228 54.748 92.0349 54.7437 92.1728 54.7437C92.3107 54.7437 92.4141 54.7437 92.5003 54.7566C92.5865 54.7652 92.6554 54.7782 92.7029 54.7954C92.7503 54.8126 92.7847 54.8385 92.7977 54.8643C92.8106 54.8945 92.8192 54.9247 92.8106 54.9592L91.7246 60.4152H93.8665C93.9139 60.4152 93.9483 60.4367 93.9699 60.4712C93.9914 60.51 94.0001 60.5617 94.0001 60.622Z" fill="#0077B3"/>
</svg>
