<svg width="108" height="108" viewBox="0 0 108 108" fill="none" xmlns="http://www.w3.org/2000/svg">
<path fill-rule="evenodd" clip-rule="evenodd" d="M56.1585 47.9486C56.2123 47.9665 56.275 47.9934 56.3287 48.0202C56.4183 48.065 56.4989 48.1277 56.5616 48.2083C56.6332 48.28 56.678 48.3606 56.7138 48.4502C56.7407 48.5487 56.7586 48.6472 56.7586 48.7547C56.7586 48.9249 56.7228 49.095 56.6511 49.2473C56.5795 49.4085 56.472 49.5429 56.3377 49.6503C56.1944 49.7757 56.0152 49.8563 55.8271 49.919C55.5943 49.9817 55.3524 50.0086 55.1106 50.0086H53.5611L54.3851 46.0677H55.7555C55.9346 46.0677 56.1227 46.0856 56.2929 46.1394C56.4272 46.1752 56.5616 46.2379 56.6691 46.3275C56.7586 46.4081 56.8303 46.5066 56.8751 46.623C56.9198 46.7395 56.9467 46.8559 56.9467 46.9813C56.9467 47.1067 56.9288 47.2231 56.884 47.3306C56.8392 47.447 56.7855 47.5455 56.7049 47.6262C56.6153 47.7157 56.5168 47.7963 56.4093 47.8501C56.3287 47.8949 56.2391 47.9217 56.1585 47.9486ZM55.1733 46.7932L54.9942 47.6262H55.3524C55.433 47.6262 55.5226 47.6172 55.6122 47.5903C55.6838 47.5724 55.7465 47.5366 55.8092 47.4918C55.854 47.456 55.8988 47.4022 55.9257 47.3485C55.9525 47.2858 55.9615 47.2231 55.9615 47.1515C55.9615 47.0977 55.9615 47.044 55.9436 46.9992C55.9257 46.9544 55.8988 46.9186 55.863 46.8917C55.8271 46.8559 55.7734 46.838 55.7197 46.8201C55.648 46.8022 55.5674 46.7932 55.4957 46.7932H55.1733ZM54.8509 48.3516L54.6538 49.2921H55.0748C55.1823 49.2921 55.2987 49.2742 55.3972 49.2473C55.4778 49.2204 55.5495 49.1846 55.6122 49.1309C55.6659 49.0861 55.7107 49.0323 55.7376 48.9607C55.7644 48.898 55.7734 48.8263 55.7734 48.7547C55.7734 48.6382 55.7376 48.5397 55.648 48.4591C55.5495 48.3696 55.3972 48.3516 55.2629 48.3516H54.8509ZM59.4366 49.1488H58.1469L57.6991 50.0086H56.6422L58.8724 46.0677H59.9472L60.5025 50.0086H59.5441L59.4366 49.1488ZM59.2306 47.0171C59.2217 47.0261 59.2217 47.044 59.2127 47.0529C59.1948 47.0888 59.1858 47.1156 59.1679 47.1515L58.5051 48.4054H59.365L59.2306 47.1425C59.2306 47.1156 59.2306 47.0798 59.2306 47.044C59.2306 47.035 59.2306 47.0261 59.2306 47.0171ZM62.2938 47.3395C62.2938 47.3664 62.2848 47.3933 62.2848 47.4291C62.2759 47.5097 62.2579 47.5903 62.24 47.6709L61.7474 50.0086H60.8607L61.6847 46.0677H62.5804L63.7358 48.4591C63.7447 48.477 63.7537 48.5039 63.7626 48.5218C63.7806 48.5576 63.7895 48.5845 63.7985 48.6114C63.8074 48.6203 63.8074 48.6293 63.8164 48.6382C63.8164 48.6203 63.8164 48.6114 63.8164 48.5935C63.8253 48.5576 63.8253 48.5218 63.8343 48.4949C63.8433 48.4591 63.8433 48.4322 63.8522 48.4054L64.3448 46.0677H65.2315L64.4165 50.0086H63.5746L62.3833 47.5366C62.3654 47.5097 62.3565 47.4829 62.3475 47.456C62.3296 47.4291 62.3206 47.4022 62.3027 47.3664C62.3027 47.3575 62.2938 47.3485 62.2938 47.3395ZM67.408 48.0023C67.4348 48.074 67.4796 48.1456 67.5154 48.2173C67.5692 48.3337 67.6319 48.4502 67.6946 48.5666C67.7662 48.7009 67.8379 48.8263 67.9095 48.9607C67.9812 49.095 68.0528 49.2204 68.1245 49.3548C68.1872 49.4712 68.2499 49.5876 68.3036 49.7041C68.3484 49.7847 68.3842 49.8743 68.4201 49.9549L68.4469 50.0086H67.3184L67.3094 49.9817C67.2826 49.919 67.2557 49.8474 67.2199 49.7847C67.1751 49.6862 67.1303 49.5876 67.0855 49.4891C67.0228 49.3816 66.9691 49.2652 66.9154 49.1577C66.8527 49.0413 66.7989 48.9338 66.7452 48.8174C66.6914 48.7189 66.6467 48.6203 66.6019 48.5218C66.5661 48.4591 66.5392 48.3875 66.5123 48.3248C66.5034 48.2979 66.4944 48.28 66.4854 48.2531L66.1272 50.0086H65.1778L66.0018 46.0677H66.9422L66.5929 47.7515C66.6108 47.7426 66.6198 47.7247 66.6287 47.7068C66.6825 47.6441 66.7452 47.5724 66.7989 47.5097C66.8795 47.4202 66.9601 47.3216 67.0407 47.2231C67.1393 47.1156 67.2288 47.0082 67.3274 46.9007C67.4259 46.7842 67.5154 46.6768 67.614 46.5693C67.6946 46.4708 67.7752 46.3812 67.8558 46.2827C67.9095 46.22 67.9633 46.1573 68.0081 46.0856L68.017 46.0677H69.1724L69.1187 46.1394C69.056 46.22 68.9843 46.2916 68.9127 46.3722C68.8142 46.4797 68.7156 46.5872 68.6082 46.7036C68.4917 46.829 68.3753 46.9544 68.2499 47.0798C68.1334 47.2052 68.0081 47.3306 67.8916 47.456C67.7931 47.5635 67.6856 47.6799 67.5871 47.7874C67.5244 47.859 67.4617 47.9307 67.408 48.0023ZM54.8598 54.9795H53.5611L53.1223 55.8393H52.0654L54.2956 51.8984H55.3704L55.9167 55.8393H54.9673L54.8598 54.9795ZM54.6449 52.8478C54.6449 52.8568 54.6359 52.8747 54.6359 52.8837C54.618 52.9195 54.6001 52.9464 54.5822 52.9822L53.9283 54.2361H54.7882L54.6538 52.9732C54.6538 52.9464 54.6538 52.9105 54.6449 52.8747C54.6449 52.8657 54.6449 52.8568 54.6449 52.8478ZM58.6574 54.0928C58.7291 54.1286 58.8007 54.1913 58.8545 54.263C58.944 54.3794 58.9978 54.5317 59.0336 54.675L59.3112 55.8393H58.3081L58.0931 54.8183C58.0752 54.6929 58.0305 54.5675 57.9409 54.4779C57.8603 54.3884 57.7618 54.3615 57.6453 54.3615H57.5378L57.2244 55.8393H56.2839L57.1079 51.8984H58.4335C58.6216 51.8984 58.8276 51.9164 59.0067 51.979C59.15 52.0328 59.2844 52.1044 59.4008 52.203C59.4993 52.3015 59.571 52.409 59.6158 52.5344C59.6695 52.6597 59.6874 52.7941 59.6874 52.9195C59.6874 53.0807 59.6605 53.2419 59.5978 53.3852C59.5352 53.5196 59.4545 53.636 59.3471 53.7435C59.2485 53.842 59.1232 53.9226 58.9888 53.9853C58.8813 54.0301 58.7738 54.0659 58.6574 54.0928ZM57.8961 52.6329L57.6901 53.6271H57.9857C58.0931 53.6271 58.2006 53.6181 58.3081 53.5823C58.3887 53.5464 58.4604 53.5106 58.5231 53.4569C58.5858 53.4031 58.6216 53.3494 58.6574 53.2777C58.6843 53.2061 58.6932 53.1434 58.6932 53.0628C58.6932 52.9464 58.6664 52.8299 58.5858 52.7493C58.4872 52.6597 58.3439 52.6329 58.2185 52.6329H57.8961ZM61.9086 52.6866L61.2548 55.8393H60.3144L60.9592 52.6866H59.8845L60.0546 51.8984H63.1446L62.9745 52.6866H61.9086ZM65.4913 54.2809H64.0224L63.7 55.8393H62.7506L63.5746 51.8984H64.515L64.1926 53.439H65.6704L65.9928 51.8984H66.9333L66.1093 55.8393H65.1688L65.4913 54.2809ZM69.262 54.9795H67.9633L67.5154 55.8393H66.4675L68.6888 51.8984H69.7635L70.3189 55.8393H69.3695L69.262 54.9795ZM69.047 52.8478C69.0381 52.8568 69.0381 52.8747 69.0291 52.8837C69.0201 52.9195 69.0022 52.9464 68.9843 52.9822L68.3215 54.2361H69.1814L69.056 52.9732C69.047 52.9464 69.047 52.9105 69.047 52.8747C69.047 52.8657 69.047 52.8568 69.047 52.8478ZM74.5911 55.0601L74.7344 54.3436H73.9642L74.1254 53.5733H75.8271L75.4062 55.5975L75.3883 55.6065C75.3077 55.6423 75.227 55.6871 75.1375 55.7139C75.039 55.7498 74.9404 55.7856 74.8419 55.8125C74.7255 55.8483 74.618 55.8662 74.5016 55.8841C74.3672 55.902 74.2329 55.911 74.0985 55.911C73.8477 55.911 73.597 55.8752 73.3551 55.7856C73.1491 55.705 72.961 55.5885 72.7998 55.4273C72.6476 55.2661 72.5311 55.078 72.4595 54.8631C72.3789 54.6391 72.343 54.3973 72.343 54.1555C72.343 53.9495 72.3609 53.7524 72.4057 53.5554C72.4505 53.3673 72.5132 53.1792 72.6028 53.0091C72.6923 52.8389 72.8088 52.6777 72.9431 52.5344C73.0775 52.391 73.2387 52.2657 73.4089 52.1671C73.597 52.0507 73.803 51.979 74.009 51.9253C74.2508 51.8626 74.5016 51.8357 74.7434 51.8357C74.8598 51.8357 74.9763 51.8447 75.0927 51.8537C75.2002 51.8716 75.2987 51.8895 75.4062 51.9074C75.4957 51.9343 75.5853 51.9522 75.6659 51.979C75.7465 52.0059 75.8182 52.0328 75.8898 52.0597L75.9167 52.0776L75.7286 52.9643L75.6838 52.9284C75.6211 52.8837 75.5584 52.8478 75.4957 52.821C75.4241 52.7851 75.3435 52.7583 75.2629 52.7314C75.1823 52.7045 75.0927 52.6866 74.9942 52.6687C74.9046 52.6508 74.8061 52.6418 74.7076 52.6418C74.5105 52.6418 74.3135 52.6777 74.1254 52.7493C73.9642 52.821 73.8119 52.9195 73.6955 53.0449C73.5701 53.1792 73.4805 53.3404 73.4178 53.5106C73.3462 53.7077 73.3193 53.9047 73.3193 54.1107C73.3193 54.254 73.3372 54.4063 73.382 54.5406C73.4178 54.6571 73.4805 54.7645 73.5611 54.8451C73.6417 54.9347 73.7403 54.9974 73.8477 55.0422C73.9642 55.087 74.0896 55.1049 74.215 55.1049C74.2956 55.1049 74.3762 55.1049 74.4478 55.0959C74.4926 55.087 74.5374 55.0691 74.5911 55.0601ZM78.3798 54.0928C78.4514 54.1286 78.5141 54.1913 78.5678 54.263C78.6574 54.3794 78.7112 54.5317 78.747 54.675L79.0246 55.8393H78.0304L77.8155 54.8183C77.7886 54.6929 77.7438 54.5675 77.6543 54.4779C77.5826 54.3884 77.4751 54.3615 77.3587 54.3615H77.2512L76.9467 55.8393H75.9973L76.8213 51.8984H78.1469C78.335 51.8984 78.541 51.9164 78.7201 51.979C78.8634 52.0328 79.0067 52.1044 79.1142 52.203C79.2127 52.3015 79.2844 52.409 79.3381 52.5344C79.3829 52.6597 79.4008 52.7941 79.4008 52.9195C79.4008 53.0807 79.3739 53.2419 79.3112 53.3852C79.2575 53.5196 79.1679 53.636 79.0694 53.7435C78.9619 53.842 78.8365 53.9226 78.7022 53.9853C78.5947 54.0301 78.4872 54.0659 78.3798 54.0928ZM77.6095 52.6329L77.4035 53.6271H77.6991C77.8065 53.6271 77.923 53.6181 78.0215 53.5823C78.1021 53.5464 78.1827 53.5106 78.2454 53.4569C78.2991 53.4031 78.3439 53.3494 78.3708 53.2777C78.3977 53.2061 78.4156 53.1434 78.4156 53.0628C78.4156 52.9464 78.3887 52.8299 78.2991 52.7493C78.2006 52.6597 78.0573 52.6329 77.9319 52.6329H77.6095ZM81.837 54.9795H80.5383L80.0994 55.8393H79.0425L81.2638 51.8984H82.3475L82.8939 55.8393H81.9445L81.837 54.9795ZM81.622 52.8478C81.622 52.8568 81.6131 52.8747 81.6041 52.8837C81.5952 52.9195 81.5772 52.9464 81.5593 52.9822L80.8966 54.2361H81.7653L81.631 52.9732C81.631 52.9464 81.622 52.9105 81.622 52.8747C81.622 52.8657 81.622 52.8568 81.622 52.8478ZM86.0018 54.2809H84.524L84.2015 55.8393H83.2611L84.0761 51.8984H85.0255L84.7031 53.439H86.172L86.4944 51.8984H87.4348L86.6198 55.8393H85.6794L86.0018 54.2809ZM89.7635 54.9795H88.4648L88.026 55.8393H86.9691L89.1993 51.8984H90.2741L90.8294 55.8393H89.871L89.7635 54.9795ZM89.5575 52.8478C89.5486 52.8568 89.5396 52.8747 89.5396 52.8837C89.5217 52.9195 89.5038 52.9464 89.4859 52.9822L88.8321 54.2361H89.6919L89.5575 52.9732C89.5575 52.9464 89.5575 52.9105 89.5575 52.8747C89.5575 52.8657 89.5575 52.8568 89.5575 52.8478ZM51.9669 61.4014H51.0264L51.8415 57.4605H52.7819L51.9669 61.4014ZM54.1612 58.7323C54.1612 58.7592 54.1612 58.786 54.1523 58.8219C54.1433 58.9025 54.1254 58.9831 54.1075 59.0637L53.6149 61.4014H52.7371L53.5522 57.4605H54.4568L55.6032 59.8429C55.6122 59.8698 55.6211 59.8966 55.6301 59.9146C55.648 59.9414 55.657 59.9773 55.6749 60.0041C55.6749 60.0131 55.6838 60.022 55.6838 60.022C55.6838 60.0131 55.6928 59.9952 55.6928 59.9862C55.6928 59.9504 55.7017 59.9146 55.7107 59.8877C55.7107 59.8519 55.7197 59.825 55.7286 59.7981L56.2123 57.4605H57.099L56.2839 61.4014H55.451L54.2508 58.9293C54.2418 58.9025 54.2239 58.8756 54.215 58.8487C54.206 58.8219 54.1881 58.795 54.1791 58.7592C54.1702 58.7502 54.1702 58.7413 54.1612 58.7323ZM59.3829 58.2486L58.7291 61.4014H57.7797L58.4335 58.2486H57.3587L57.5199 57.4605H60.6099L60.4487 58.2486H59.3829ZM61.8191 58.2486L61.6579 59.0368H62.8939L62.7237 59.834H61.4966L61.3265 60.6132H62.7416L62.5804 61.4014H60.2248L61.0488 57.4605H63.3059L63.1446 58.2486H61.8191ZM65.4644 59.6548C65.536 59.6906 65.5987 59.7533 65.6525 59.825C65.751 59.9414 65.8047 60.0937 65.8406 60.237L66.1093 61.4014H65.1151L64.9001 60.3803C64.8822 60.2549 64.8374 60.1295 64.7479 60.031C64.6673 59.9504 64.5598 59.9235 64.4523 59.9235H64.3359L64.0313 61.4014H63.0909L63.906 57.4605H65.2405C65.4286 57.4605 65.6256 57.4784 65.8137 57.5411C65.957 57.5948 66.0914 57.6665 66.1988 57.765C66.3063 57.8635 66.378 57.971 66.4227 58.0964C66.4675 58.2218 66.4944 58.3561 66.4944 58.4815C66.4944 58.6427 66.4675 58.795 66.4048 58.9473C66.3421 59.0816 66.2615 59.198 66.1541 59.2966C66.0466 59.404 65.9301 59.4846 65.7958 59.5473C65.6883 59.5921 65.5808 59.628 65.4644 59.6548ZM64.7031 58.1949L64.4881 59.1891H64.7837C64.8912 59.1891 65.0076 59.1801 65.1151 59.1353C65.1957 59.1085 65.2674 59.0726 65.33 59.0189C65.3838 58.9652 65.4286 58.9114 65.4644 58.8398C65.4913 58.7681 65.5002 58.6965 65.5002 58.6248C65.5002 58.5084 65.4734 58.3919 65.3838 58.3113C65.2942 58.2128 65.1509 58.1949 65.0255 58.1949H64.7031ZM67.9722 58.7323C67.9722 58.7592 67.9722 58.786 67.9633 58.8219C67.9543 58.9025 67.9364 58.9831 67.9185 59.0637L67.4259 61.4014H66.5481L67.3632 57.4605H68.2678L69.4142 59.8429C69.4232 59.8698 69.4322 59.8966 69.4501 59.9146C69.459 59.9414 69.4769 59.9773 69.4859 60.0041C69.4859 60.0131 69.4949 60.022 69.4949 60.022C69.4949 60.0131 69.5038 59.9952 69.5038 59.9862C69.5038 59.9504 69.5128 59.9146 69.5217 59.8877C69.5217 59.8519 69.5307 59.825 69.5396 59.7981L70.0233 57.4605H70.91L70.0949 61.4014H69.262L68.0618 58.9293C68.0528 58.9025 68.0349 58.8756 68.026 58.8487C68.017 58.8219 67.9991 58.795 67.9901 58.7592C67.9812 58.7502 67.9812 58.7413 67.9722 58.7323ZM73.2387 60.5415H71.9489L71.5011 61.4014H70.4442L72.6744 57.4605H73.7492L74.3045 61.4014H73.3462L73.2387 60.5415ZM73.0327 58.4099C73.0237 58.4188 73.0237 58.4367 73.0148 58.4457C72.9969 58.4815 72.9789 58.5084 72.97 58.5442L72.3072 59.7981H73.167L73.0327 58.5353C73.0327 58.4994 73.0327 58.4726 73.0327 58.4367C73.0327 58.4278 73.0327 58.4188 73.0327 58.4099ZM77.3766 58.4278C77.3229 58.3919 77.2602 58.3651 77.1975 58.3293C77.1348 58.3024 77.0631 58.2666 76.9915 58.2486C76.9198 58.2218 76.8392 58.2039 76.7676 58.1859C76.687 58.168 76.5974 58.1591 76.5168 58.1591C76.4362 58.1591 76.3466 58.168 76.275 58.2039C76.2212 58.2218 76.1675 58.2576 76.1227 58.2934C76.0958 58.3293 76.069 58.3651 76.0511 58.4099C76.0331 58.4546 76.0242 58.4905 76.0242 58.5353C76.0242 58.58 76.0331 58.6338 76.0511 58.6786C76.069 58.7323 76.0958 58.7771 76.1317 58.8129C76.1764 58.8577 76.2212 58.9025 76.275 58.9473C76.3556 59.001 76.4272 59.0547 76.5078 59.0995C76.6243 59.1712 76.7318 59.2518 76.8303 59.3324C76.9198 59.404 77.0004 59.4936 77.0721 59.5832C77.1437 59.6727 77.1975 59.7713 77.2333 59.8787C77.2691 59.9952 77.2781 60.1116 77.2781 60.237C77.2781 60.3176 77.2691 60.4072 77.2512 60.4878C77.2333 60.5773 77.2064 60.6759 77.1617 60.7654C77.1258 60.855 77.0631 60.9446 76.9915 61.0252C76.9109 61.1147 76.8213 61.1954 76.7138 61.258C76.5884 61.3297 76.4541 61.3745 76.3197 61.4103C76.1406 61.4551 75.9615 61.473 75.7824 61.473C75.6659 61.473 75.5584 61.464 75.442 61.4461C75.3435 61.4282 75.236 61.4103 75.1375 61.3834C75.0479 61.3566 74.9584 61.3297 74.8688 61.2939C74.7882 61.267 74.7165 61.2312 74.6449 61.1954L74.618 61.1774L74.7792 60.3176L74.833 60.3624C74.8957 60.4072 74.9673 60.452 75.039 60.4967C75.1106 60.5415 75.1912 60.5773 75.2718 60.6042C75.3524 60.64 75.442 60.658 75.5316 60.6759C75.6122 60.6938 75.7017 60.7027 75.7913 60.7027C75.8719 60.7027 75.9615 60.6938 76.0331 60.6759C76.0869 60.658 76.1496 60.6311 76.1944 60.5863C76.2302 60.5505 76.2571 60.5147 76.275 60.4699C76.2929 60.4161 76.3018 60.3624 76.3018 60.3176C76.3018 60.2639 76.2929 60.2191 76.275 60.1653C76.2571 60.1206 76.2302 60.0847 76.1944 60.0489C76.1496 59.9952 76.0869 59.9504 76.0331 59.9146C75.9525 59.8608 75.863 59.8071 75.7824 59.7533C75.6749 59.6996 75.5764 59.628 75.4868 59.5563C75.3972 59.4846 75.3166 59.404 75.245 59.3055C75.1823 59.216 75.1285 59.1174 75.0927 59.0099C75.0569 58.8846 75.039 58.7592 75.039 58.6338C75.039 58.4815 75.0658 58.3293 75.1285 58.1859C75.1823 58.0337 75.2718 57.8993 75.3883 57.7829C75.5226 57.6575 75.6838 57.5679 75.8451 57.5052C76.06 57.4246 76.2839 57.3978 76.5078 57.3978C76.6153 57.3978 76.7138 57.4067 76.8124 57.4157C76.9109 57.4246 77.0004 57.4426 77.099 57.4605C77.1796 57.4784 77.2602 57.5052 77.3498 57.5321C77.4214 57.55 77.4931 57.5769 77.5647 57.6127L77.5916 57.6217L77.4304 58.4636L77.3766 58.4278ZM78.5141 61.4014H77.5647L78.3798 57.4605H79.3292L78.5141 61.4014ZM83.2253 59.0995C83.2253 59.2518 83.2163 59.413 83.1894 59.5653C83.1626 59.7265 83.1178 59.8787 83.073 60.031C83.0193 60.1743 82.9476 60.3176 82.867 60.452C82.7953 60.5953 82.6968 60.7207 82.5893 60.8281C82.4998 60.9267 82.4013 61.0162 82.3027 61.0968C82.1953 61.1774 82.0788 61.2401 81.9534 61.2939C81.8191 61.3566 81.6847 61.3924 81.5504 61.4282C81.3892 61.4551 81.2369 61.473 81.0757 61.473C80.8428 61.473 80.6099 61.4372 80.395 61.3387C80.1979 61.258 80.0278 61.1416 79.8845 60.9804C79.7322 60.8281 79.6337 60.64 79.562 60.443C79.4814 60.228 79.4545 59.9952 79.4545 59.7713C79.4545 59.6011 79.4635 59.4309 79.4993 59.2697C79.5262 59.1085 79.562 58.9473 79.6247 58.795C79.6874 58.6427 79.7591 58.4905 79.8397 58.3561C79.9292 58.2218 80.0278 58.0874 80.1442 57.9799C80.2338 57.8904 80.3323 57.8098 80.4398 57.7381C80.5383 57.6665 80.6547 57.6038 80.7712 57.559C80.8966 57.5052 81.0309 57.4605 81.1652 57.4336C81.3086 57.4067 81.4519 57.3978 81.6041 57.3978C81.828 57.3978 82.0519 57.4336 82.2579 57.5142C82.455 57.5859 82.6341 57.7023 82.7774 57.8456C82.9297 58.0068 83.0372 58.1859 83.1088 58.383C83.1984 58.6159 83.2253 58.8577 83.2253 59.0995ZM82.24 59.1264C82.24 59.001 82.2311 58.8666 82.1953 58.7502C82.1594 58.6427 82.1146 58.5532 82.043 58.4726C81.9803 58.3919 81.9086 58.3382 81.8191 58.3024C81.7206 58.2576 81.6131 58.2397 81.5056 58.2397C81.3713 58.2397 81.2459 58.2666 81.1205 58.3293C80.9951 58.4009 80.8876 58.4905 80.798 58.5979C80.7353 58.6696 80.6905 58.7502 80.6458 58.8398C80.601 58.9293 80.5652 59.0279 80.5293 59.1264C80.5025 59.2339 80.4756 59.3324 80.4577 59.4399C80.4487 59.5473 80.4398 59.6548 80.4398 59.7533C80.4398 59.8877 80.4487 60.0131 80.4846 60.1385C80.5204 60.237 80.5652 60.3266 80.6368 60.4072C80.6995 60.4878 80.7712 60.5415 80.8607 60.5773C80.9592 60.6221 81.0578 60.64 81.1652 60.64C81.2996 60.64 81.4339 60.6042 81.5593 60.5415C81.6847 60.4788 81.7922 60.3803 81.8907 60.2639C81.9445 60.1922 81.9982 60.1116 82.043 60.022C82.0878 59.9325 82.1236 59.834 82.1505 59.7354C82.1863 59.628 82.2042 59.5294 82.2221 59.422C82.2311 59.3234 82.24 59.2249 82.24 59.1264ZM84.8106 58.7323C84.8016 58.7592 84.8016 58.786 84.8016 58.8219C84.7837 58.9025 84.7747 58.9831 84.7568 59.0637L84.2642 61.4014H83.3775L84.1926 57.4605H85.0972L86.2436 59.8429C86.2526 59.8698 86.2705 59.8966 86.2794 59.9146C86.2974 59.9414 86.3063 59.9773 86.3153 60.0041C86.3242 60.0131 86.3242 60.022 86.3332 60.022C86.3332 60.0131 86.3332 59.9952 86.3332 59.9862C86.3421 59.9504 86.3421 59.9146 86.3511 59.8877C86.3601 59.8519 86.3601 59.825 86.369 59.7981L86.8527 57.4605H87.7483L86.9243 61.4014H86.0914L84.9001 58.9293C84.8822 58.9025 84.8733 58.8756 84.8553 58.8487C84.8464 58.8219 84.8374 58.795 84.8195 58.7592C84.8195 58.7502 84.8106 58.7413 84.8106 58.7323ZM90.077 60.5415H88.7783L88.3305 61.4014H87.2826L89.5038 57.4605H90.5786L91.1339 61.4014H90.1845L90.077 60.5415ZM89.8621 58.4099C89.8621 58.4188 89.8531 58.4367 89.8442 58.4457C89.8352 58.4815 89.8173 58.5084 89.7994 58.5442L89.1366 59.7981H89.9964L89.871 58.5353C89.8621 58.4994 89.8621 58.4726 89.8621 58.4367C89.8621 58.4278 89.8621 58.4188 89.8621 58.4099ZM92.6117 60.6042H94L93.8388 61.4014H91.5011L92.3162 57.4605H93.2656L92.6117 60.6042Z" fill="black"/>
<path fill-rule="evenodd" clip-rule="evenodd" d="M48.4201 46.2738H52.3072L48.7873 61.4462C45.9481 61.4462 43.1357 61.4372 40.2875 61.4372C40.4487 60.7476 40.6099 60.0489 40.7801 59.3593C39.0694 61.6522 36.3377 62.297 34.0717 61.4103C31.3578 61.4103 28.644 61.4103 25.9301 61.4103L24.4792 54.3347L19.6605 61.4462L14 61.4641L17.4572 56.4126H20.2427L21.6937 54.2361H18.944L24.4792 46.1752H27.2826L30.0591 59.0189H31.2414C31.1249 58.8309 31.0175 58.6428 30.9189 58.4368C29.3515 53.7167 32.549 47.4381 38.2096 46.229C43.082 45.2437 46.0107 47.4918 45.8764 51.9343C44.3807 51.9253 42.876 51.9164 41.3713 51.9074C41.7743 49.4533 38.7022 48.8712 36.884 51.0118C36.06 52.0239 35.5047 53.1614 35.245 54.2272H33.2656C33.0685 55.0064 33.0954 55.714 33.2656 56.3857H35.1823C35.3345 57.0306 35.6749 57.559 36.2123 57.8725C37.2244 58.3741 39.3381 58.177 40.2606 56.5738C39.5172 56.5738 38.7649 56.5738 38.0215 56.5738C38.2365 55.7767 38.4514 54.9706 38.6664 54.1734C40.9145 54.1734 43.1536 54.1734 45.3927 54.1734L44.1926 59.0727H45.4554L48.4201 46.2738Z" fill="#A28548"/>
</svg>
