<svg width="108" height="108" viewBox="0 0 108 108" fill="none" xmlns="http://www.w3.org/2000/svg">
<path fill-rule="evenodd" clip-rule="evenodd" d="M14.0001 42H94.0001V66.9392H14.0001V42Z" fill="#001244"/>
<path fill-rule="evenodd" clip-rule="evenodd" d="M18.4011 52.7543V46.401H20.2069C20.7565 46.401 21.1908 46.5351 21.5128 46.8031C21.8349 47.0722 21.9949 47.4223 21.9949 47.8535C21.9949 48.213 21.8983 48.5267 21.703 48.7927C21.5087 49.0587 21.2385 49.2478 20.8967 49.36V49.3777C21.3248 49.4275 21.6687 49.5896 21.9274 49.8618C22.184 50.1361 22.3128 50.4914 22.3128 50.9288C22.3128 51.4722 22.1175 51.9117 21.7279 52.2493C21.3383 52.587 20.8469 52.7543 20.2526 52.7543H18.4011ZM19.145 47.0722V49.1241H19.9056C20.3128 49.1241 20.6318 49.0254 20.8656 48.8291C21.0983 48.6317 21.2146 48.3553 21.2146 47.9979C21.2146 47.3808 20.8095 47.0722 19.998 47.0722H19.145ZM19.145 49.7953V52.0831H20.1559C20.5913 52.0831 20.93 51.9803 21.171 51.7725C21.411 51.5657 21.5326 51.2831 21.5326 50.9216C21.5326 50.1704 21.0214 49.7953 20.0001 49.7953H19.145ZM28.5237 52.7543H27.6978L27.0266 50.9756H24.3295L23.6946 52.7543H22.8687L25.305 46.401H26.077L28.5237 52.7543ZM26.7856 50.3034L25.7892 47.5927C25.7559 47.5054 25.7217 47.3641 25.6863 47.1719H25.6666C25.6365 47.3506 25.6022 47.493 25.5627 47.599L24.5746 50.3034H26.7856ZM34.5778 52.7543H33.6666L30.398 47.6893C30.3149 47.5626 30.2463 47.4296 30.1933 47.2914H30.1674C30.1902 47.4265 30.2027 47.7184 30.2027 48.1652V52.7543H29.4588V46.401H30.4219L33.6032 51.386C33.7362 51.5927 33.8214 51.734 33.8609 51.8109H33.8775C33.8484 51.628 33.8339 51.3164 33.8339 50.8758V46.401H34.5778V52.7543ZM40.6682 52.7543H39.6334L37.1783 49.8483C37.0879 49.7382 37.0297 49.6654 37.011 49.626H36.9923V52.7543H36.2484V46.401H36.9923V49.387H37.011C37.0515 49.3216 37.1076 49.2499 37.1783 49.1709L39.5523 46.401H40.478L37.7518 49.4493L40.6682 52.7543Z" fill="#FEFEFE"/>
<path fill-rule="evenodd" clip-rule="evenodd" d="M41.6541 52.4031V50.9995C41.9087 51.2125 42.1861 51.3714 42.4863 51.4774C42.7856 51.5844 43.0879 51.6384 43.3923 51.6384C43.571 51.6384 43.7289 51.6218 43.863 51.5906C43.9959 51.5574 44.1071 51.5138 44.1954 51.4556C44.2858 51.3984 44.3533 51.3309 44.397 51.254C44.4406 51.1761 44.4624 51.0919 44.4624 51.0005C44.4624 50.8779 44.4282 50.7678 44.3575 50.6722C44.2869 50.5745 44.1913 50.4862 44.0676 50.4031C43.9461 50.321 43.8027 50.241 43.6344 50.1662C43.4682 50.0904 43.2863 50.0114 43.0931 49.9325C42.6006 49.7288 42.2328 49.4774 41.9897 49.1823C41.7487 48.8852 41.6271 48.5278 41.6271 48.1091C41.6271 47.7808 41.6926 47.4982 41.8245 47.2634C41.9565 47.0275 42.1372 46.8322 42.3637 46.6805C42.5902 46.5278 42.8541 46.4166 43.1523 46.3449C43.4526 46.2732 43.7695 46.2369 44.103 46.2369C44.4313 46.2369 44.7222 46.2566 44.9757 46.2971C45.2292 46.3356 45.463 46.3969 45.678 46.48V47.7943C45.5731 47.7205 45.4578 47.6561 45.3331 47.601C45.2084 47.5439 45.0796 47.4971 44.9476 47.4608C44.8157 47.4234 44.6848 47.3964 44.5539 47.3797C44.424 47.3621 44.2993 47.3527 44.1819 47.3527C44.0198 47.3527 43.8744 47.3683 43.7424 47.3995C43.6105 47.4296 43.4983 47.4732 43.4079 47.5283C43.3165 47.5844 43.2458 47.6519 43.1959 47.7278C43.1471 47.8067 43.1211 47.893 43.1211 47.9906C43.1211 48.0956 43.1502 48.1901 43.2053 48.2743C43.2604 48.3574 43.3404 48.4364 43.4422 48.5112C43.5461 48.586 43.6708 48.6587 43.8172 48.7304C43.9648 48.8021 44.13 48.8758 44.3139 48.9527C44.5674 49.0587 44.7939 49.1699 44.9954 49.2883C45.1959 49.4067 45.3684 49.5418 45.5128 49.6904C45.6552 49.841 45.7663 50.0114 45.8432 50.2036C45.9201 50.3958 45.9575 50.6182 45.9575 50.8727C45.9575 51.226 45.891 51.52 45.757 51.76C45.624 51.999 45.4422 52.1922 45.2126 52.3387C44.985 52.4873 44.7191 52.5943 44.4146 52.6587C44.1113 52.7231 43.7902 52.7543 43.4526 52.7543C43.1076 52.7543 42.7772 52.7252 42.4656 52.666C42.1539 52.6078 41.8837 52.5205 41.6541 52.4031Z" fill="#FEFEFE"/>
<path fill-rule="evenodd" clip-rule="evenodd" d="M52.3585 49.9158C52.3585 51.8078 51.4765 52.7543 49.7133 52.7543C48.0022 52.7543 47.1461 51.8306 47.1461 49.9823V46.3449H48.5684V50.001C48.5684 51.0203 48.9663 51.5304 49.7632 51.5304C50.5456 51.5304 50.9362 51.0379 50.9362 50.054V46.3449H52.3585V49.9158Z" fill="#FEFEFE"/>
<path fill-rule="evenodd" clip-rule="evenodd" d="M57.4827 52.7543H53.729V46.453H55.1513V51.6021H57.4827V52.7543Z" fill="#FEFEFE"/>
<path fill-rule="evenodd" clip-rule="evenodd" d="M61.9523 47.6052H60.1518V52.7543H58.7295V47.6052H56.9383V46.453H61.9523V47.6052Z" fill="#FEFEFE"/>
<path fill-rule="evenodd" clip-rule="evenodd" d="M68.2037 52.7543H66.5736L65.5928 51.1325C65.5211 51.0099 65.4505 50.8997 65.383 50.8031C65.3154 50.7065 65.2479 50.6244 65.1783 50.5548C65.1097 50.4862 65.037 50.4332 64.9622 50.3979C64.8895 50.3605 64.8063 50.3418 64.7191 50.3418H64.3367V52.7543H62.9144V46.453H65.1648C66.6952 46.453 67.4609 47.0244 67.4609 48.1662C67.4609 48.3865 67.4276 48.5891 67.3601 48.7751C67.2926 48.961 67.197 49.1293 67.0733 49.2779C66.9508 49.4286 66.8022 49.5574 66.6276 49.6654C66.4541 49.7735 66.2609 49.8587 66.0458 49.92V49.9387C66.1404 49.9667 66.2308 50.0145 66.3191 50.081C66.4063 50.1465 66.4915 50.2234 66.5736 50.3117C66.6546 50.399 66.7346 50.4935 66.8084 50.5953C66.8832 50.6961 66.9518 50.7948 67.0131 50.8914L68.2037 52.7543ZM64.3367 47.5148V49.2706H64.9518C65.2562 49.2706 65.5014 49.1823 65.6853 49.0067C65.8733 48.828 65.9658 48.6057 65.9658 48.3418C65.9658 47.7912 65.6365 47.5148 64.9778 47.5148H64.3367Z" fill="#FEFEFE"/>
<path fill-rule="evenodd" clip-rule="evenodd" d="M74.7991 52.7543H73.25L72.8095 51.3506H70.5539L70.1175 52.7543H68.5778L70.8718 46.453H72.557L74.7991 52.7543ZM72.4822 50.2608L71.8006 48.1454C71.7508 47.9865 71.7154 47.7974 71.6946 47.5782H71.6593C71.6448 47.7631 71.6084 47.946 71.5492 48.1278L70.8604 50.2608H72.4822Z" fill="#FEFEFE"/>
<path fill-rule="evenodd" clip-rule="evenodd" d="M20.3502 58.56C20.5144 58.2431 20.6515 57.9896 20.7627 57.7984L22.051 55.6041H22.7295L21.9523 59.3392H21.4972L21.9076 57.3756C21.9565 57.146 22.0063 56.9226 22.0604 56.7054C22.1133 56.4883 22.1622 56.2982 22.2069 56.134H22.1819C22.0302 56.4426 21.837 56.7969 21.6001 57.1948L20.3108 59.3392H20.0874L19.6936 57.2675C19.6188 56.88 19.5554 56.5028 19.5004 56.134H19.4765C19.41 56.5756 19.3435 56.9642 19.2749 57.3008L18.8552 59.3392H18.4011L19.1772 55.6041H19.8079L20.2266 57.8795C20.2754 58.1413 20.3128 58.3688 20.3388 58.56H20.3502ZM24.8427 57.281C24.8188 57.2467 24.7897 57.2125 24.7575 57.1771C24.7253 57.1408 24.6869 57.1086 24.6443 57.0795C24.6017 57.0504 24.5539 57.0275 24.5009 57.0088C24.4479 56.9912 24.3876 56.9829 24.3211 56.9829C24.21 56.9829 24.1113 57.0067 24.0219 57.0545C23.9315 57.1034 23.8526 57.1678 23.784 57.2467C23.7154 57.3267 23.6552 57.4171 23.6063 57.519C23.5554 57.6218 23.5139 57.7278 23.4817 57.8379C23.4484 57.946 23.4245 58.054 23.4089 58.161C23.3923 58.266 23.385 58.3636 23.385 58.4509C23.385 58.5683 23.3954 58.666 23.4172 58.7418C23.438 58.8187 23.4682 58.8779 23.5045 58.9226C23.5419 58.9662 23.5856 58.9974 23.6333 59.0151C23.6822 59.0327 23.7321 59.041 23.784 59.041C23.8754 59.041 23.9679 59.0171 24.0624 58.9704C24.1559 58.9226 24.2443 58.854 24.3253 58.7626C24.4074 58.6722 24.4822 58.5621 24.5466 58.4301C24.6121 58.3003 24.6619 58.1506 24.6972 57.9823L24.8427 57.281ZM24.53 58.9018C24.4666 58.9953 24.3991 59.0732 24.3253 59.1377C24.2536 59.2021 24.1798 59.254 24.1061 59.2935C24.0313 59.334 23.9565 59.3631 23.8837 59.3808C23.81 59.3984 23.7393 59.4078 23.6728 59.4078C23.5575 59.4078 23.4546 59.386 23.3663 59.3444C23.2759 59.3029 23.2011 59.2426 23.1388 59.1647C23.0785 59.0857 23.0318 58.9932 22.9996 58.8831C22.9684 58.773 22.9518 58.6514 22.9518 58.5174C22.9518 58.3667 22.9653 58.2151 22.9913 58.0634C23.0172 57.9117 23.0557 57.7652 23.1076 57.6239C23.1585 57.4826 23.2219 57.3517 23.2978 57.2291C23.3746 57.1075 23.4619 57.0005 23.5617 56.9091C23.6593 56.8187 23.7695 56.747 23.89 56.6951C24.0115 56.6421 24.1435 56.6161 24.2869 56.6161C24.4282 56.6161 24.5539 56.6462 24.6609 56.7044C24.7689 56.7636 24.8521 56.8457 24.9102 56.9506H24.9217L25.0495 56.6847H25.4006L24.9736 58.7252C24.9601 58.7969 24.9549 58.8488 24.9549 58.8841C24.9549 58.9288 24.9674 58.961 24.9923 58.9818C25.0172 59.0026 25.0619 59.013 25.1243 59.013C25.1772 59.013 25.2375 59.0067 25.3092 58.9953L25.2344 59.3538C25.1554 59.3704 25.0692 59.3787 24.9736 59.3787C24.8198 59.3787 24.7076 59.3423 24.6391 59.2696C24.5695 59.1979 24.5372 59.0743 24.5414 58.9018H24.53ZM26.3814 56.6847H26.8146L26.1632 59.8317C26.1341 59.974 26.0936 60.1008 26.0448 60.2099C25.9959 60.319 25.9315 60.4104 25.8536 60.4831C25.7757 60.5569 25.6801 60.6119 25.5689 60.6493C25.4567 60.6867 25.3248 60.7054 25.1721 60.7054C25.0827 60.7054 25.0017 60.6992 24.9289 60.6857C24.8562 60.6732 24.8043 60.6608 24.7731 60.6493L24.8448 60.2836C24.8998 60.2982 24.9559 60.3086 25.0131 60.3169C25.0713 60.3242 25.118 60.3283 25.1554 60.3283C25.2541 60.3283 25.3362 60.3169 25.4027 60.293C25.4682 60.2701 25.5243 60.2317 25.5689 60.1787C25.6136 60.1257 25.651 60.0561 25.6801 59.9709C25.7092 59.8847 25.7383 59.7808 25.7643 59.6582L26.3814 56.6847ZM26.4988 56.0675L26.5965 55.5875H27.0515L26.9539 56.0675H26.4988ZM28.1331 59.4078C27.972 59.4078 27.8328 59.387 27.7165 59.3475C27.5991 59.307 27.5024 59.2519 27.4276 59.1813C27.3518 59.1106 27.2957 59.0265 27.2593 58.9299C27.223 58.8332 27.2053 58.7273 27.2053 58.614C27.2053 58.5735 27.2084 58.5309 27.2126 58.4873C27.2178 58.4436 27.225 58.3948 27.2354 58.3408L27.5804 56.6847H28.0126L27.6749 58.3148C27.6656 58.3605 27.6583 58.4052 27.6521 58.4478C27.6469 58.4893 27.6437 58.5299 27.6437 58.5683C27.6437 58.64 27.6531 58.7044 27.6718 58.7626C27.6905 58.8218 27.7196 58.8717 27.7601 58.9122C27.7996 58.9538 27.8526 58.9849 27.9159 59.0078C27.9804 59.0296 28.0583 59.041 28.1497 59.041C28.265 59.041 28.3648 59.0254 28.4489 58.9932C28.5341 58.959 28.6069 58.9122 28.6661 58.8499C28.7253 58.7875 28.7741 58.7138 28.8115 58.6275C28.8489 58.5423 28.878 58.4457 28.9009 58.3397L29.2437 56.6847H29.677L29.3165 58.4104C29.2946 58.5195 29.2645 58.6234 29.2261 58.7231C29.1876 58.8239 29.1388 58.9153 29.0796 58.9995C28.9892 59.1221 28.8676 59.2218 28.7128 59.2956C28.5591 59.3704 28.3648 59.4078 28.1331 59.4078ZM33.2822 57.4348C33.3746 57.4525 33.4598 57.4805 33.5367 57.52C33.6146 57.5605 33.6811 57.6114 33.7362 57.6738C33.7923 57.7361 33.8359 57.8078 33.8671 57.8878C33.8972 57.9688 33.9128 58.0582 33.9128 58.1569C33.9128 58.2878 33.89 58.4114 33.8432 58.5309C33.7965 58.6493 33.7269 58.7574 33.6344 58.8551C33.543 58.9527 33.4276 59.0379 33.2884 59.1096C33.1502 59.1823 32.9871 59.2384 32.8011 59.2779C32.7004 59.2977 32.5933 59.3132 32.4791 59.3236C32.3637 59.334 32.2328 59.3392 32.0832 59.3392H31.1004L31.8796 55.6041H32.7533C32.8635 55.6041 32.9611 55.6073 33.0484 55.6135C33.1346 55.6208 33.223 55.6343 33.3123 55.6551C33.4214 55.68 33.5222 55.7195 33.6126 55.7714C33.703 55.8213 33.7798 55.8836 33.8443 55.9553C33.9087 56.026 33.9585 56.107 33.9939 56.1984C34.0292 56.2888 34.0469 56.3865 34.0469 56.4935C34.0469 56.7418 33.9783 56.9423 33.8432 57.0971C33.7071 57.2519 33.5201 57.361 33.2822 57.4244V57.4348ZM31.9097 57.6343L31.6396 58.9267H32.1508C32.2775 58.9267 32.3845 58.9236 32.4739 58.9153C32.5643 58.9091 32.6453 58.8966 32.717 58.879C32.852 58.8499 32.9643 58.8093 33.0557 58.7574C33.1461 58.7054 33.2209 58.6473 33.277 58.5808C33.3341 58.5153 33.3746 58.4447 33.3996 58.3699C33.4256 58.2951 33.438 58.2192 33.438 58.1434C33.438 58.0301 33.4058 57.9325 33.3414 57.8525C33.277 57.7714 33.1856 57.7132 33.0661 57.6769C32.9778 57.6488 32.8614 57.6343 32.7201 57.6343H31.9097ZM32.2484 56.0156L31.997 57.2229H32.6785C32.8053 57.2229 32.9227 57.2083 33.0297 57.1803C33.1378 57.1532 33.2333 57.1096 33.3144 57.0514C33.3944 56.9922 33.4578 56.9184 33.5035 56.8301C33.5492 56.7418 33.5721 56.6379 33.5721 56.5195C33.5721 56.3979 33.5367 56.2982 33.4671 56.2213C33.3975 56.1434 33.2978 56.0883 33.17 56.0551C33.118 56.0395 33.0609 56.0301 32.9996 56.0249C32.9383 56.0187 32.8687 56.0156 32.7928 56.0156H32.2484ZM36.7669 57.3018C36.7669 57.468 36.7253 57.6062 36.6432 57.7174C36.5611 57.8286 36.4437 57.919 36.2879 57.9875C36.1331 58.0571 35.9419 58.108 35.7175 58.1403C35.491 58.1735 35.2344 58.1932 34.9456 58.2005C34.9445 58.2213 34.9435 58.2421 34.9424 58.2628C34.9414 58.2826 34.9404 58.3054 34.9404 58.3293C34.9404 58.5725 35.0017 58.7501 35.1222 58.8623C35.2437 58.9735 35.4245 59.0296 35.6666 59.0296C35.73 59.0296 35.7954 59.0265 35.863 59.0171C35.9315 59.0099 35.9991 58.9974 36.0656 58.9818C36.1331 58.9673 36.1975 58.9486 36.2598 58.9288C36.3222 58.9101 36.3783 58.8883 36.4292 58.8644L36.3513 59.2561C36.2557 59.2977 36.1435 59.334 36.0146 59.3631C35.8848 59.3932 35.7445 59.4078 35.5939 59.4078C35.4037 59.4078 35.2406 59.3818 35.1045 59.3288C34.9674 59.2769 34.8541 59.2041 34.7658 59.1096C34.6775 59.0161 34.612 58.9039 34.5705 58.7751C34.5289 58.6462 34.5071 58.5039 34.5071 58.3491C34.5071 58.2078 34.5217 58.0675 34.5497 57.9252C34.5767 57.7839 34.6193 57.6488 34.6733 57.521C34.7284 57.3922 34.7959 57.2738 34.877 57.1636C34.958 57.0535 35.0515 56.959 35.1585 56.8779C35.2645 56.7969 35.384 56.7325 35.5139 56.6857C35.6458 56.639 35.7882 56.6161 35.9398 56.6161C36.05 56.6161 36.1549 56.6296 36.2546 56.6566C36.3533 56.6836 36.4417 56.7252 36.5175 56.7823C36.5954 56.8384 36.6546 56.9101 36.6993 56.9964C36.745 57.0836 36.7669 57.1844 36.7669 57.3018ZM35.0266 57.8119C35.2323 57.8119 35.4152 57.8016 35.5772 57.7808C35.7393 57.76 35.8765 57.7299 35.9876 57.6883C36.0988 57.6457 36.185 57.5927 36.2443 57.5262C36.3045 57.4597 36.3336 57.3797 36.3336 57.2852C36.3336 57.2457 36.3253 57.2083 36.3087 57.1709C36.2921 57.1345 36.2671 57.1023 36.2339 57.0753C36.1996 57.0473 36.158 57.0244 36.1092 57.0078C36.0593 56.9912 36.0032 56.9829 35.9398 56.9829C35.8339 56.9829 35.7331 57.0016 35.6375 57.041C35.5419 57.0795 35.4536 57.1356 35.3746 57.2083C35.2957 57.281 35.2261 57.3683 35.1658 57.4712C35.1066 57.573 35.0598 57.6873 35.0266 57.8119ZM38.8604 57.0566C38.8032 57.0493 38.7461 57.0452 38.69 57.0452C38.5601 57.0452 38.4427 57.067 38.3378 57.1106C38.2349 57.1553 38.1435 57.2145 38.0676 57.2893C37.9918 57.3652 37.9284 57.4525 37.8785 57.5532C37.8308 57.6551 37.7933 57.7621 37.7695 57.8753L37.464 59.3392H37.0318L37.5845 56.6847H37.9388V57.0462H37.9502C37.9949 56.987 38.0448 56.9309 38.0978 56.879C38.1528 56.827 38.212 56.7813 38.2806 56.7418C38.3471 56.7034 38.4198 56.6722 38.4998 56.6493C38.5788 56.6275 38.664 56.6161 38.7575 56.6161C38.7908 56.6161 38.824 56.6171 38.8552 56.6203C38.8863 56.6234 38.9175 56.6275 38.9476 56.6338L38.8604 57.0566ZM39.5367 57.3984C39.5367 57.4556 39.5482 57.5054 39.571 57.547C39.5949 57.5886 39.6261 57.6249 39.6656 57.6561C39.704 57.6873 39.7487 57.7132 39.8017 57.7351C39.8536 57.7579 39.9087 57.7797 39.9658 57.8005C40.0469 57.8275 40.1279 57.8577 40.21 57.8909C40.291 57.9231 40.3658 57.9657 40.4323 58.0156C40.4998 58.0675 40.5549 58.1319 40.5975 58.2099C40.6401 58.2888 40.6619 58.3886 40.6619 58.5112C40.6619 58.6577 40.6349 58.7875 40.5788 58.8997C40.5237 59.0109 40.4479 59.1044 40.3502 59.1792C40.2526 59.2551 40.1362 59.3122 40.0022 59.3506C39.8661 59.388 39.7185 59.4078 39.5585 59.4078C39.4152 59.4078 39.2708 59.3922 39.1243 59.361C38.9778 59.3309 38.8635 59.2914 38.7793 59.2416L38.8604 58.881C38.9591 58.9236 39.0661 58.961 39.1824 58.9932C39.2988 59.0254 39.4245 59.041 39.5585 59.041C39.704 59.041 39.8204 59.0244 39.9087 58.9901C39.998 58.9548 40.0666 58.9122 40.1165 58.8634C40.1653 58.8135 40.1985 58.7616 40.2131 58.7075C40.2297 58.6535 40.237 58.6067 40.237 58.5673C40.237 58.4956 40.2204 58.4343 40.1861 58.3854C40.1528 58.3377 40.1092 58.2971 40.0562 58.2639C40.0022 58.2296 39.9409 58.2005 39.8713 58.1745C39.8027 58.1506 39.7321 58.1247 39.6593 58.0987C39.5897 58.0717 39.5222 58.0436 39.4557 58.0114C39.3892 57.9771 39.33 57.9377 39.278 57.8909C39.2271 57.8431 39.1856 57.7839 39.1534 57.7143C39.1222 57.6447 39.1066 57.5605 39.1066 57.4587C39.1066 57.3164 39.1326 57.1917 39.1845 57.0867C39.2365 56.9818 39.3071 56.8935 39.3954 56.8239C39.4837 56.7543 39.5856 56.7023 39.7009 56.668C39.8162 56.6338 39.9388 56.6161 40.0676 56.6161C40.1435 56.6161 40.2193 56.6213 40.2931 56.6317C40.3679 56.641 40.4396 56.6545 40.5082 56.6722C40.5778 56.6878 40.6422 56.7065 40.7024 56.7283C40.7627 56.7491 40.8167 56.7719 40.8624 56.7958L40.7866 57.148C40.6754 57.1013 40.5611 57.0618 40.4427 57.0296C40.3253 56.9984 40.2069 56.9829 40.0895 56.9829C40.0001 56.9829 39.9211 56.9932 39.8515 57.0151C39.783 57.0358 39.7248 57.0649 39.678 57.1013C39.6313 57.1377 39.597 57.1813 39.5731 57.2322C39.5492 57.2831 39.5367 57.3382 39.5367 57.3984ZM43.1024 57.281C43.0785 57.2467 43.0495 57.2125 43.0172 57.1771C42.985 57.1408 42.9466 57.1086 42.904 57.0795C42.8624 57.0504 42.8136 57.0275 42.7606 57.0088C42.7076 56.9912 42.6474 56.9829 42.5809 56.9829C42.4708 56.9829 42.371 57.0067 42.2817 57.0545C42.1923 57.1034 42.1133 57.1678 42.0448 57.2467C41.9762 57.3267 41.9159 57.4171 41.8661 57.519C41.8152 57.6218 41.7736 57.7278 41.7414 57.8379C41.7092 57.946 41.6853 58.054 41.6687 58.161C41.6521 58.266 41.6448 58.3636 41.6448 58.4509C41.6448 58.5683 41.6552 58.666 41.677 58.7418C41.6988 58.8187 41.7279 58.8779 41.7653 58.9226C41.8017 58.9662 41.8453 58.9974 41.8941 59.0151C41.9419 59.0327 41.9918 59.041 42.0448 59.041C42.1362 59.041 42.2287 59.0171 42.3222 58.9704C42.4157 58.9226 42.504 58.854 42.5861 58.7626C42.6682 58.6722 42.7419 58.5621 42.8074 58.4301C42.8718 58.3003 42.9227 58.1506 42.957 57.9823L43.1024 57.281ZM42.7897 58.9018C42.7263 58.9953 42.6588 59.0732 42.5861 59.1377C42.5134 59.2021 42.4396 59.254 42.3658 59.2935C42.291 59.334 42.2172 59.3631 42.1435 59.3808C42.0697 59.3984 41.9991 59.4078 41.9326 59.4078C41.8172 59.4078 41.7144 59.386 41.6261 59.3444C41.5367 59.3029 41.4609 59.2426 41.3985 59.1647C41.3383 59.0857 41.2915 58.9932 41.2593 58.8831C41.2282 58.773 41.2126 58.6514 41.2126 58.5174C41.2126 58.3667 41.225 58.2151 41.251 58.0634C41.277 57.9117 41.3165 57.7652 41.3674 57.6239C41.4183 57.4826 41.4817 57.3517 41.5585 57.2291C41.6344 57.1075 41.7217 57.0005 41.8214 56.9091C41.9191 56.8187 42.0292 56.747 42.1497 56.6951C42.2713 56.6421 42.4032 56.6161 42.5466 56.6161C42.6889 56.6161 42.8136 56.6462 42.9217 56.7044C43.0287 56.7636 43.1118 56.8457 43.17 56.9506H43.1814L43.3092 56.6847H43.6604L43.2333 58.7252C43.2209 58.7969 43.2146 58.8488 43.2146 58.8841C43.2146 58.9288 43.2271 58.961 43.252 58.9818C43.278 59.0026 43.3217 59.013 43.384 59.013C43.437 59.013 43.4983 59.0067 43.5689 58.9953L43.4941 59.3538C43.4162 59.3704 43.3289 59.3787 43.2333 59.3787C43.0796 59.3787 42.9674 59.3423 42.8988 59.2696C42.8292 59.1979 42.797 59.0743 42.8011 58.9018H42.7897ZM46.4624 57.1605C46.5289 57.0649 46.6017 56.9818 46.6796 56.9122C46.7575 56.8436 46.8385 56.7875 46.9217 56.7429C47.0048 56.6992 47.0879 56.668 47.171 56.6473C47.2552 56.6265 47.3372 56.6161 47.4172 56.6161C47.5139 56.6161 47.6043 56.6306 47.6863 56.6597C47.7695 56.6888 47.8401 56.7304 47.9004 56.7844C47.9596 56.8374 48.0063 56.9049 48.0417 56.9849C48.0759 57.0649 48.0936 57.1564 48.0936 57.2592C48.0936 57.3309 48.0863 57.4088 48.0749 57.4909C48.0624 57.573 48.0479 57.6561 48.0282 57.7413L47.6967 59.3392H47.2635L47.6126 57.6509C47.6271 57.5782 47.6375 57.5169 47.6427 57.4691C47.6458 57.4203 47.6489 57.3818 47.6489 57.3538C47.6489 57.227 47.6167 57.1335 47.5502 57.0722C47.4858 57.0099 47.4006 56.9808 47.2946 56.9829C47.1897 56.9829 47.0889 57.0057 46.9892 57.0514C46.8915 57.0971 46.8001 57.1595 46.7191 57.2395C46.637 57.3195 46.5674 57.414 46.5082 57.5221C46.45 57.6301 46.4074 57.7465 46.3814 57.8732L46.077 59.3392H45.6437L45.9928 57.653C46.0074 57.5803 46.0167 57.519 46.0219 57.4701C46.0271 57.4234 46.0292 57.3849 46.0292 57.3558C46.0271 57.2218 45.9928 57.1252 45.9274 57.068C45.8609 57.0109 45.7767 56.9829 45.6749 56.9829C45.57 56.9829 45.4692 57.0057 45.3695 57.0514C45.2718 57.0971 45.1814 57.1595 45.1014 57.2395C45.0204 57.3195 44.9497 57.414 44.8895 57.5221C44.8302 57.6301 44.7876 57.7465 44.7617 57.8732L44.4572 59.3392H44.024L44.5767 56.6847H44.931V57.0462H44.9424C45.0567 56.9091 45.1876 56.8021 45.3362 56.7283C45.4848 56.6535 45.6427 56.6161 45.8089 56.6161C45.8962 56.6161 45.9762 56.6275 46.05 56.6514C46.1237 56.6743 46.1882 56.7096 46.2463 56.7553C46.3024 56.8021 46.3492 56.8592 46.3845 56.9267C46.4198 56.9932 46.4417 57.0712 46.451 57.1605H46.4624ZM50.4718 57.281C50.4479 57.2467 50.4188 57.2125 50.3866 57.1771C50.3544 57.1408 50.3159 57.1086 50.2733 57.0795C50.2308 57.0504 50.183 57.0275 50.13 57.0088C50.077 56.9912 50.0167 56.9829 49.9502 56.9829C49.8391 56.9829 49.7404 57.0067 49.651 57.0545C49.5606 57.1034 49.4817 57.1678 49.4131 57.2467C49.3445 57.3267 49.2843 57.4171 49.2354 57.519C49.1845 57.6218 49.143 57.7278 49.1097 57.8379C49.0775 57.946 49.0536 58.054 49.038 58.161C49.0214 58.266 49.0141 58.3636 49.0141 58.4509C49.0141 58.5683 49.0245 58.666 49.0463 58.7418C49.0671 58.8187 49.0972 58.8779 49.1336 58.9226C49.171 58.9662 49.2146 58.9974 49.2624 59.0151C49.3113 59.0327 49.3611 59.041 49.4131 59.041C49.5045 59.041 49.597 59.0171 49.6915 58.9704C49.785 58.9226 49.8723 58.854 49.9544 58.7626C50.0365 58.6722 50.1113 58.5621 50.1757 58.4301C50.2411 58.3003 50.291 58.1506 50.3263 57.9823L50.4718 57.281ZM50.1591 58.9018C50.0957 58.9953 50.0282 59.0732 49.9544 59.1377C49.8827 59.2021 49.8089 59.254 49.7341 59.2935C49.6604 59.334 49.5856 59.3631 49.5128 59.3808C49.4391 59.3984 49.3684 59.4078 49.3019 59.4078C49.1866 59.4078 49.0837 59.386 48.9944 59.3444C48.905 59.3029 48.8302 59.2426 48.7679 59.1647C48.7066 59.0857 48.6598 58.9932 48.6287 58.8831C48.5975 58.773 48.5809 58.6514 48.5809 58.5174C48.5809 58.3667 48.5944 58.2151 48.6204 58.0634C48.6463 57.9117 48.6848 57.7652 48.7367 57.6239C48.7866 57.4826 48.851 57.3517 48.9269 57.2291C49.0037 57.1075 49.091 57.0005 49.1897 56.9091C49.2884 56.8187 49.3975 56.747 49.5191 56.6951C49.6406 56.6421 49.7726 56.6161 49.9159 56.6161C50.0572 56.6161 50.183 56.6462 50.29 56.7044C50.398 56.7636 50.4811 56.8457 50.5393 56.9506H50.5508L50.6785 56.6847H51.0297L50.6027 58.7252C50.5892 58.7969 50.584 58.8488 50.584 58.8841C50.584 58.9288 50.5965 58.961 50.6214 58.9818C50.6463 59.0026 50.69 59.013 50.7534 59.013C50.8063 59.013 50.8666 59.0067 50.9383 58.9953L50.8635 59.3538C50.7845 59.3704 50.6983 59.3787 50.6027 59.3787C50.4489 59.3787 50.3367 59.3423 50.2682 59.2696C50.1985 59.1979 50.1663 59.0743 50.1705 58.9018H50.1591Z" fill="#FEFEFE"/>
<path fill-rule="evenodd" clip-rule="evenodd" d="M65.9482 62.7023C72.985 56.266 80.8687 52.5527 89.5991 51.5647C77.9866 51.4431 67.5087 55.1564 58.1663 62.7023H65.9482Z" fill="#C58E10"/>
</svg>
