<svg width="108" height="108" viewBox="0 0 108 108" fill="none" xmlns="http://www.w3.org/2000/svg">
<path d="M14.0724 51.5236C14.0569 51.0624 14.031 50.6011 13.9999 50.1399C14.1191 50.1554 14.2538 50.1658 14.3937 50.1762C14.5388 50.1865 14.6943 50.1917 14.8757 50.1917C15.1815 50.1917 15.5028 50.1814 15.8344 50.1658C16.1713 50.1503 16.4926 50.1399 16.7984 50.1399C17.1041 50.1399 17.4099 50.171 17.6742 50.2332C17.9385 50.2954 18.1665 50.3938 18.3582 50.5286C18.55 50.6633 18.7003 50.8343 18.8039 51.0416C18.9076 51.2541 18.9594 51.5029 18.9594 51.7983C18.9594 52.0936 18.8972 52.3424 18.778 52.5497C18.6536 52.7622 18.5085 52.9332 18.3323 53.0731C18.1561 53.213 17.9696 53.3219 17.7623 53.3996C17.5602 53.4773 17.3736 53.5343 17.2078 53.5602V53.581C17.3736 53.5913 17.5653 53.6276 17.783 53.695C18.0058 53.7624 18.2131 53.866 18.4152 54.0111C18.6122 54.1562 18.7832 54.3376 18.9231 54.5604C19.063 54.7833 19.1304 55.0579 19.1304 55.3793C19.1304 55.7627 19.063 56.0944 18.9231 56.3639C18.7832 56.6334 18.6018 56.8562 18.3686 57.0272C18.1354 57.1983 17.8711 57.3174 17.5705 57.3848C17.2699 57.4522 16.9642 57.4885 16.6429 57.4885C16.3579 57.4885 16.0935 57.4885 15.85 57.4781C15.6064 57.4729 15.3473 57.4677 15.0778 57.4677H14.487C14.2849 57.4677 14.1243 57.4729 13.9999 57.4885C14.031 57.048 14.0569 56.5971 14.0724 56.1359C14.088 55.6746 14.0983 55.1512 14.0983 54.5604V53.1042C14.0983 52.5134 14.0932 51.9848 14.0724 51.5288M17.3218 51.5184C17.2803 51.3629 17.2181 51.2334 17.1248 51.1245C17.0316 51.0157 16.9124 50.9224 16.7724 50.8551C16.6325 50.7877 16.4511 50.7566 16.2387 50.7566C16.0832 50.7566 15.9744 50.7566 15.9122 50.7566C15.85 50.7566 15.7878 50.7721 15.7152 50.7825C15.6997 51.0468 15.6893 51.3163 15.6841 51.5858C15.679 51.8553 15.6738 52.0833 15.6738 52.2698C15.6738 52.4564 15.6738 52.6482 15.6738 52.8192C15.6738 52.9954 15.679 53.1768 15.679 53.3581H16.1609C16.3112 53.3581 16.4563 53.3322 16.6066 53.2752C16.7517 53.2182 16.8813 53.1353 16.9953 53.0213C17.1093 52.9125 17.2026 52.7725 17.2751 52.6015C17.3477 52.4305 17.384 52.2336 17.384 52.0055C17.384 51.8345 17.3632 51.6739 17.327 51.5184M17.1248 54.3428C16.902 54.094 16.5755 53.9748 16.1454 53.9748C16.0469 53.9748 15.9588 53.9748 15.8914 53.9748C15.8189 53.9748 15.7515 53.98 15.6893 53.98C15.6893 54.1303 15.6893 54.2858 15.6841 54.4464C15.6841 54.6071 15.6841 54.7988 15.6841 55.0165C15.6841 55.1875 15.6841 55.3637 15.6841 55.5399C15.6841 55.7161 15.6893 55.8923 15.6893 56.0633C15.6893 56.2343 15.6893 56.3898 15.6893 56.5349C15.6893 56.68 15.6945 56.794 15.6945 56.8873C15.793 56.8925 15.8863 56.8977 15.9744 56.9029C16.0625 56.9029 16.1609 56.9029 16.2853 56.9029C16.4408 56.9029 16.5911 56.8718 16.7362 56.8044C16.8813 56.7422 17.0056 56.6489 17.1093 56.5194C17.2181 56.395 17.301 56.2447 17.3632 56.0633C17.4254 55.8871 17.4617 55.6798 17.4617 55.4414C17.4617 54.9439 17.3477 54.5708 17.1248 54.3221" fill="#6F6F6E"/>
<path d="M26.2561 57.4833C26.0851 57.4677 25.9245 57.4626 25.769 57.4626H24.8569C24.7066 57.4626 24.5511 57.4677 24.4008 57.4833C24.2868 57.1309 24.1676 56.7785 24.0484 56.4157C23.9293 56.053 23.7997 55.6902 23.665 55.3222C23.4369 55.3171 23.2089 55.3119 22.9809 55.3067C22.7529 55.3067 22.5248 55.3015 22.2968 55.3015C22.1102 55.3015 21.9289 55.3015 21.7423 55.3067C21.5557 55.3067 21.3692 55.3171 21.1878 55.3222C21.0427 55.685 20.9131 56.0478 20.7939 56.4157C20.6695 56.7785 20.5607 57.1361 20.4623 57.4833C20.3742 57.4677 20.2912 57.4626 20.2083 57.4626H19.7004C19.6123 57.4626 19.5191 57.4677 19.4206 57.4833C19.5035 57.2967 19.6227 57.0428 19.7626 56.7111C19.9077 56.3846 20.0632 56.0115 20.2342 55.5969C20.4052 55.1823 20.5866 54.7418 20.7836 54.265C20.9805 53.7883 21.1774 53.3115 21.3743 52.8244C21.5713 52.3372 21.763 51.8604 21.9496 51.3888C22.1362 50.9173 22.3124 50.4768 22.4678 50.0725C22.5404 50.0881 22.6078 50.0984 22.6699 50.1088C22.7321 50.1192 22.7995 50.1244 22.8721 50.1244C22.9446 50.1244 23.012 50.1192 23.0742 50.1088C23.1364 50.0984 23.2037 50.0881 23.2763 50.0725C23.5043 50.6789 23.7479 51.3267 24.007 52.0159C24.2661 52.7103 24.5304 53.3892 24.7947 54.0526C25.059 54.7211 25.3181 55.3533 25.5669 55.9493C25.8156 56.5453 26.0437 57.0531 26.2509 57.4677M22.4678 52.1299C22.2813 52.5601 22.1051 52.9798 21.9444 53.3996C21.7786 53.8142 21.6179 54.2443 21.4625 54.6744H23.4214C23.2659 54.2391 23.1104 53.8142 22.955 53.3996C22.7995 52.9798 22.6388 52.5601 22.4678 52.1299Z" fill="#6F6F6E"/>
<path d="M27.4326 51.0261C27.417 50.6892 27.4067 50.3938 27.4015 50.1399C27.5984 50.1762 27.7591 50.1917 27.8834 50.1917C28.0078 50.1917 28.1633 50.171 28.3654 50.1399C29.1427 51.0002 29.9097 51.8501 30.6664 52.6844C31.4282 53.5188 32.2055 54.3687 33.0036 55.229V53.2597C33.0036 52.9124 33.0036 52.5652 32.9984 52.2284C32.9984 51.8915 32.9932 51.5754 32.9881 51.2904C32.9881 51.0053 32.9777 50.7618 32.9673 50.5545C32.957 50.3472 32.9466 50.2073 32.931 50.1347C33.1332 50.171 33.2938 50.1865 33.413 50.1865C33.5322 50.1865 33.6929 50.1658 33.895 50.1347C33.8587 50.7825 33.8328 51.3681 33.812 51.8967C33.7913 52.4201 33.7706 52.9124 33.7602 53.3789C33.7447 53.8401 33.7343 54.3013 33.7343 54.7522C33.7343 55.203 33.7291 55.685 33.7291 56.2032V57.4885C33.584 57.4729 33.4389 57.4677 33.2886 57.4677C33.1383 57.4677 32.9932 57.4729 32.874 57.4885C31.4074 55.7783 29.8475 54.0577 28.1996 52.3217C28.1944 52.529 28.1892 52.7363 28.184 52.9435C28.184 53.1508 28.1788 53.3581 28.1788 53.5758V54.8144C28.1788 55.2445 28.1788 55.6073 28.184 55.9027C28.184 56.2032 28.1944 56.4572 28.1996 56.6645C28.2047 56.8718 28.2151 57.0376 28.2203 57.1723C28.2255 57.3019 28.2358 57.4107 28.241 57.4885C28.1529 57.4729 28.07 57.4677 27.9819 57.4677H27.7331C27.5673 57.4677 27.4067 57.4729 27.2408 57.4885C27.2564 57.4315 27.2719 57.2293 27.2926 56.8769C27.3134 56.5297 27.3393 56.1048 27.3652 55.5969C27.3911 55.0942 27.4118 54.5501 27.4274 53.9593C27.4429 53.3737 27.4533 52.8036 27.4533 52.2647C27.4533 51.7723 27.4481 51.3577 27.4326 51.0261Z" fill="#6F6F6E"/>
<path d="M37.1754 56.1566C37.1805 56.7111 37.2065 57.1568 37.2479 57.4833C37.1287 57.4677 36.994 57.4625 36.8541 57.4625H35.8901C35.745 57.4625 35.6155 57.4677 35.4963 57.4833C35.5222 57.0428 35.5481 56.5919 35.5585 56.1307C35.574 55.6695 35.5792 55.146 35.5792 54.5553V53.099C35.5792 52.5082 35.574 51.9796 35.5585 51.5236C35.5429 51.0624 35.5222 50.6011 35.4963 50.1399C35.6155 50.1554 35.7502 50.1658 35.8901 50.1762C36.0301 50.1865 36.1907 50.1917 36.3721 50.1917C36.5535 50.1917 36.709 50.1865 36.8541 50.1762C36.994 50.1658 37.1287 50.1503 37.2479 50.1399C37.2116 50.3524 37.1857 50.6737 37.1805 51.1038C37.1702 51.5339 37.165 52.0055 37.165 52.5238V53.5499C37.4086 53.2648 37.6677 52.9539 37.9424 52.6119C38.2222 52.275 38.4865 51.9434 38.7456 51.622C39.0047 51.3007 39.2328 51.0053 39.4401 50.741C39.6473 50.4768 39.7976 50.2746 39.8909 50.1347C39.9894 50.1503 40.093 50.1606 40.1915 50.171C40.29 50.1814 40.3936 50.1865 40.4921 50.1865C40.5905 50.1865 40.6942 50.1814 40.7978 50.171C40.9015 50.1606 41.0155 50.1451 41.1347 50.1347C41.0103 50.2539 40.8289 50.4508 40.5802 50.7255C40.3314 50.995 40.0671 51.2904 39.7821 51.6013C39.5022 51.9174 39.2328 52.2232 38.9736 52.5186C38.7145 52.814 38.5176 53.0472 38.3777 53.2182C38.6057 53.5654 38.8596 53.9541 39.1343 54.3739C39.4141 54.7936 39.6888 55.2082 39.9635 55.6073C40.2381 56.0115 40.4921 56.3794 40.7305 56.7215C40.9637 57.0583 41.1554 57.3174 41.2953 57.4885C41.088 57.4729 40.9015 57.4677 40.7408 57.4677H39.7925C39.637 57.4677 39.4815 57.4729 39.326 57.4885C38.9633 56.9443 38.6057 56.395 38.2585 55.8353C37.9061 55.2756 37.5537 54.7159 37.1909 54.1614H37.1702C37.1702 54.9387 37.1702 55.6021 37.1805 56.1618" fill="#6F6F6E"/>
<path d="M50.4318 50.9536C50.0898 50.7566 49.67 50.6582 49.1829 50.6582C48.8564 50.6582 48.5299 50.7307 48.2034 50.8655C47.8769 51.0054 47.5919 51.2127 47.338 51.4925C47.084 51.7724 46.8819 52.1196 46.7212 52.5342C46.5658 52.9539 46.488 53.4411 46.488 54.006C46.488 54.4361 46.545 54.8299 46.6642 55.1927C46.7834 55.5555 46.9493 55.8716 47.1721 56.1411C47.395 56.4106 47.6644 56.6179 47.9857 56.7681C48.3071 56.9184 48.675 56.991 49.0896 56.991C49.1829 56.991 49.2865 56.991 49.4057 56.9754C49.5249 56.9651 49.6389 56.9547 49.7477 56.9392C49.8566 56.9236 49.9602 56.9029 50.0535 56.8822C50.1468 56.8562 50.2142 56.8303 50.2556 56.7992C50.2712 56.7111 50.2763 56.6075 50.2815 56.4779C50.2815 56.3484 50.2867 56.2084 50.2867 56.0478C50.2867 55.4726 50.2763 55.0424 50.2556 54.7678C50.2349 54.4931 50.2193 54.3065 50.2142 54.2081C50.2867 54.2236 50.38 54.234 50.4992 54.2443C50.6184 54.2547 50.7842 54.2599 51.0071 54.2599C51.2662 54.2599 51.4527 54.2547 51.5823 54.2443C51.7067 54.234 51.8051 54.2236 51.8777 54.2081C51.8621 54.2651 51.8518 54.3584 51.8414 54.4879C51.8311 54.6175 51.8207 54.7626 51.8155 54.9336C51.8103 55.0994 51.8051 55.2808 51.8 55.4674C51.8 55.6539 51.8 55.8353 51.8 56.0063V56.3587C51.8 56.5349 51.8 56.7008 51.8 56.8562C51.8 57.0117 51.8155 57.1205 51.8259 57.1827C51.3543 57.3175 50.8775 57.4263 50.4007 57.504C49.9188 57.5818 49.442 57.6232 48.9704 57.6232C48.3589 57.6232 47.794 57.5403 47.2758 57.3797C46.7575 57.219 46.3118 56.9858 45.9387 56.6749C45.5656 56.3639 45.2702 55.9908 45.0629 55.5503C44.8504 55.1098 44.7468 54.6175 44.7468 54.0681C44.7468 53.3893 44.8608 52.7985 45.0836 52.2906C45.3065 51.7827 45.6174 51.3578 46.0164 51.0157C46.4103 50.6789 46.8819 50.425 47.4209 50.2539C47.965 50.0829 48.5506 50 49.1777 50C49.7218 50 50.1882 50.057 50.5821 50.1658C50.976 50.2747 51.3698 50.4353 51.7533 50.6426C51.6963 50.8292 51.6393 51.0106 51.5875 51.1868C51.5357 51.363 51.489 51.5495 51.4527 51.7309H51.3025C51.0744 51.4096 50.7894 51.1505 50.4474 50.9536" fill="#6F6F6E"/>
<path d="M59.532 57.4833C59.361 57.4677 59.2004 57.4626 59.0449 57.4626H58.138C57.9825 57.4626 57.8322 57.4677 57.6819 57.4833C57.5679 57.1309 57.4487 56.7785 57.3295 56.4157C57.2103 56.053 57.0808 55.6902 56.946 55.3222C56.718 55.3171 56.49 55.3119 56.262 55.3067C56.0339 55.3067 55.8059 55.3015 55.5779 55.3015C55.3913 55.3015 55.2048 55.3015 55.0234 55.3067C54.8368 55.3067 54.6502 55.3171 54.4689 55.3222C54.3238 55.685 54.1942 56.0478 54.075 56.4157C53.9558 56.7785 53.8418 57.1361 53.7433 57.4833C53.6604 57.4677 53.5775 57.4626 53.4946 57.4626H52.9867C52.8986 57.4626 52.8105 57.4677 52.7069 57.4833C52.795 57.2967 52.909 57.0428 53.0489 56.7111C53.194 56.3846 53.3495 56.0115 53.5205 55.5969C53.6915 55.1823 53.8729 54.7418 54.0698 54.265C54.2667 53.7883 54.4637 53.3115 54.6554 52.8244C54.8524 52.3372 55.0441 51.8604 55.2307 51.3888C55.4172 50.9173 55.5934 50.4768 55.7489 50.0725C55.8215 50.0881 55.8888 50.0984 55.951 50.1088C56.0132 50.1192 56.0806 50.1244 56.1531 50.1244C56.2257 50.1244 56.2931 50.1192 56.3552 50.1088C56.4174 50.0984 56.49 50.0881 56.5574 50.0725C56.7854 50.6789 57.0289 51.3267 57.2881 52.0159C57.5472 52.7103 57.8115 53.3892 58.0758 54.0526C58.3401 54.7211 58.5992 55.3533 58.8428 55.9493C59.0915 56.5453 59.3195 57.0531 59.5268 57.4677M55.7437 52.1299C55.5572 52.5601 55.381 52.9798 55.2203 53.3996C55.0545 53.8142 54.8938 54.2443 54.7383 54.6744H56.6921C56.5366 54.2391 56.3812 53.8142 56.2257 53.3996C56.0702 52.9798 55.9096 52.5601 55.7385 52.1299" fill="#6F6F6E"/>
<path d="M60.7085 51.0261C60.6929 50.6892 60.6826 50.3938 60.6774 50.1399C60.8743 50.1762 61.0349 50.1917 61.1593 50.1917C61.2837 50.1917 61.4392 50.171 61.6413 50.1399C62.4186 51.0002 63.1856 51.8501 63.9474 52.6844C64.7092 53.5188 65.4866 54.3687 66.2847 55.229V53.2597C66.2847 52.9124 66.2847 52.5652 66.2795 52.2284C66.2795 51.8915 66.2743 51.5754 66.2691 51.2904C66.2691 51.0053 66.2588 50.7618 66.2484 50.5545C66.238 50.3472 66.2225 50.2073 66.2121 50.1347C66.4142 50.171 66.5749 50.1865 66.6941 50.1865C66.8133 50.1865 66.9739 50.1658 67.176 50.1347C67.1398 50.7825 67.1139 51.3681 67.0879 51.8967C67.0672 52.4201 67.0465 52.9124 67.0361 53.3789C67.0206 53.8401 67.0154 54.3013 67.0102 54.7522C67.0102 55.203 67.005 55.685 67.005 56.2032V57.4885C66.8599 57.4729 66.7148 57.4677 66.5645 57.4677C66.4091 57.4677 66.2691 57.4729 66.1499 57.4885C64.6833 55.7783 63.1234 54.0577 61.4754 52.3217C61.4703 52.529 61.4651 52.7363 61.4599 52.9435C61.4599 53.1508 61.4547 53.3581 61.4547 53.5758V54.8144C61.4547 55.2445 61.4547 55.6073 61.4599 55.9027C61.4599 56.2032 61.4703 56.4572 61.4754 56.6645C61.4806 56.8718 61.491 57.0376 61.4962 57.1723C61.5014 57.3019 61.5117 57.4107 61.5169 57.4885C61.4288 57.4729 61.3459 57.4677 61.263 57.4677H61.0142C60.8484 57.4677 60.6877 57.4729 60.5219 57.4885C60.5374 57.4315 60.553 57.2293 60.5737 56.8769C60.5944 56.5297 60.6204 56.1048 60.6411 55.5969C60.667 55.0942 60.6877 54.5501 60.7033 53.9593C60.7188 53.3737 60.7292 52.8036 60.7292 52.2647C60.7292 51.7723 60.724 51.3577 60.7085 51.0261Z" fill="#6F6F6E"/>
<path d="M68.8292 51.5236C68.8188 51.0624 68.7981 50.6011 68.7722 50.1399C69.0935 50.1451 69.4096 50.1554 69.7257 50.171C70.0418 50.1865 70.358 50.1917 70.6741 50.1917C71.2027 50.1917 71.6691 50.1865 72.0785 50.1762C72.4879 50.1658 72.7626 50.1503 72.9077 50.1399C72.8766 50.2539 72.8662 50.4042 72.8662 50.5908C72.8662 50.7048 72.8662 50.7929 72.8766 50.8602C72.8818 50.9224 72.8973 50.995 72.9077 51.0727C72.7004 51.0572 72.4724 51.0416 72.2288 51.0313C71.9852 51.0157 71.7417 51.0002 71.5136 50.9898C71.2804 50.9743 71.0731 50.9639 70.8866 50.9587C70.7 50.9535 70.5704 50.9483 70.4927 50.9483C70.4616 51.3422 70.4461 51.7309 70.4409 52.1144C70.4409 52.4979 70.4409 52.8865 70.4409 53.2804C70.9021 53.2752 71.3219 53.2649 71.695 53.2493C72.0681 53.2338 72.462 53.2182 72.8662 53.1975C72.8455 53.3167 72.83 53.41 72.8248 53.4773C72.8196 53.5395 72.8144 53.6069 72.8144 53.6794C72.8144 53.7364 72.8144 53.7935 72.8299 53.8556C72.8403 53.9178 72.8507 54.0007 72.8662 54.1148C72.0526 54.0526 71.2441 54.0163 70.4409 54.0163C70.4409 54.2443 70.4409 54.4723 70.4409 54.7004C70.4409 54.9284 70.4357 55.1564 70.4357 55.3844C70.4357 55.8457 70.4461 56.2913 70.4668 56.7215C70.871 56.7215 71.2804 56.7111 71.6846 56.6904C72.0889 56.6697 72.5035 56.6334 72.9129 56.5816C72.8973 56.6593 72.887 56.7318 72.8818 56.794C72.8766 56.8562 72.8714 56.9443 72.8714 57.0635C72.8714 57.1827 72.8714 57.2656 72.8818 57.333C72.887 57.3952 72.9025 57.4522 72.9129 57.4936C72.7211 57.4885 72.4827 57.4833 72.2029 57.4781C71.923 57.4781 71.5344 57.4729 71.042 57.4729H69.3474C69.1868 57.4729 69.0676 57.4729 68.9846 57.4781C68.9017 57.4781 68.8343 57.4885 68.7773 57.4936C68.8033 57.0531 68.8188 56.6023 68.8344 56.1411C68.8447 55.6798 68.8551 55.1564 68.8551 54.5604V53.1042C68.8551 52.5134 68.8499 51.9848 68.8344 51.5288" fill="#6F6F6E"/>
<path d="M76.1623 50.6582C75.8358 50.6582 75.5663 50.7566 75.359 50.9484C75.1517 51.1401 75.048 51.363 75.048 51.6221C75.048 51.8812 75.1258 52.104 75.2864 52.2699C75.4471 52.4357 75.6492 52.5912 75.8928 52.7259C76.1363 52.8607 76.3955 52.9902 76.6753 53.1146C76.9552 53.239 77.2143 53.3944 77.4578 53.5758C77.7014 53.7572 77.9035 53.98 78.059 54.2392C78.2197 54.4983 78.3026 54.8299 78.3026 55.2393C78.3026 55.5969 78.2352 55.9234 78.1005 56.2188C77.9657 56.5142 77.774 56.7681 77.52 56.9806C77.2713 57.1931 76.9707 57.3537 76.6287 57.4626C76.2814 57.5714 75.898 57.6284 75.4678 57.6284C75.0843 57.6284 74.7371 57.5869 74.4365 57.504C74.1308 57.4211 73.9027 57.3227 73.7473 57.1983C73.8198 56.9495 73.8768 56.7215 73.9287 56.5142C73.9805 56.3069 74.0219 56.0841 74.0582 55.8405H74.2603C74.2914 55.996 74.3432 56.1463 74.421 56.2862C74.4987 56.4261 74.5972 56.5505 74.7216 56.6541C74.8408 56.763 74.991 56.8459 75.1621 56.9081C75.3331 56.9703 75.5248 56.9962 75.7373 56.9962C76.1674 56.9962 76.4784 56.8873 76.6857 56.6749C76.8878 56.4624 76.9914 56.2033 76.9914 55.9027C76.9914 55.6332 76.9137 55.4104 76.7582 55.2393C76.6028 55.0683 76.4058 54.918 76.1674 54.7833C75.9342 54.6486 75.6751 54.5242 75.4005 54.3998C75.1206 54.2754 74.8667 54.1251 74.6283 53.9438C74.3951 53.7676 74.1981 53.5447 74.0427 53.2856C73.8872 53.0265 73.8043 52.6896 73.8043 52.2854C73.8043 51.9175 73.8717 51.5858 74.0012 51.3008C74.1308 51.0157 74.3122 50.7774 74.5298 50.5856C74.7527 50.3939 75.0066 50.2488 75.2916 50.1503C75.5818 50.0518 75.8876 50 76.2037 50C76.5872 50 76.9241 50.0466 77.2143 50.1399C77.5045 50.2332 77.7532 50.3628 77.9554 50.5234C77.8932 50.6893 77.8362 50.8447 77.7895 51.0002C77.7429 51.1557 77.6859 51.3474 77.6133 51.5806H77.4527C77.2246 50.9691 76.7945 50.6582 76.1571 50.6582" fill="#6F6F6E"/>
<path d="M83.6715 53.9178C83.402 53.9075 83.1325 53.9023 82.8578 53.9023C82.5832 53.9023 82.3137 53.9023 82.0442 53.9126C81.7747 53.9178 81.5001 53.9282 81.2306 53.9437V54.5553C81.2306 55.146 81.2358 55.6746 81.2513 56.1307C81.2669 56.5919 81.2876 57.0428 81.3135 57.4833C81.1943 57.4677 81.0596 57.4626 80.9196 57.4626H79.9557C79.8106 57.4626 79.6811 57.4677 79.5567 57.4833C79.5878 57.0428 79.6085 56.5919 79.6189 56.1307C79.6344 55.6695 79.6396 55.146 79.6396 54.5553V53.099C79.6396 52.5082 79.6344 51.9796 79.6189 51.5236C79.6033 51.0624 79.5826 50.6011 79.5567 50.1399C79.6759 50.1554 79.8106 50.1658 79.9557 50.1762C80.0956 50.1865 80.2563 50.1917 80.4377 50.1917C80.6191 50.1917 80.7745 50.1865 80.9196 50.1762C81.0647 50.1658 81.1943 50.1503 81.3135 50.1399C81.2772 50.6011 81.2565 51.0624 81.2461 51.5132C81.2358 51.9641 81.2306 52.4875 81.2306 53.0783C81.4171 53.0835 81.64 53.0887 81.8991 53.0938C82.1582 53.0938 82.4795 53.099 82.8682 53.099C83.2569 53.099 83.5678 53.099 83.8114 53.0938C84.055 53.0938 84.2778 53.0835 84.4851 53.0783C84.4851 52.4875 84.4799 51.9641 84.4644 51.5132C84.4488 51.0624 84.4281 50.6011 84.4022 50.1399C84.5214 50.1554 84.6561 50.1658 84.796 50.1762C84.936 50.1865 85.0966 50.1917 85.278 50.1917C85.4594 50.1917 85.6149 50.1865 85.76 50.1762C85.8999 50.1658 86.0346 50.1503 86.1538 50.1399C86.1227 50.6011 86.102 51.0675 86.0916 51.5236C86.0761 51.9848 86.0709 52.5082 86.0709 53.099V54.5553C86.0709 55.146 86.0761 55.6746 86.0916 56.1307C86.1072 56.5919 86.1279 57.0428 86.1538 57.4833C86.0346 57.4677 85.8999 57.4626 85.76 57.4626H84.796C84.6509 57.4626 84.5214 57.4677 84.4022 57.4833C84.4281 57.0428 84.4488 56.5919 84.4644 56.1307C84.4799 55.6695 84.4851 55.146 84.4851 54.5553V53.9437C84.2156 53.9386 83.9461 53.9282 83.6715 53.9178Z" fill="#6F6F6E"/>
<path d="M93.9999 57.4833C93.8289 57.4677 93.6682 57.4626 93.5127 57.4626H92.6058C92.4504 57.4626 92.3001 57.4677 92.1498 57.4833C92.0358 57.1309 91.9166 56.7785 91.7974 56.4157C91.673 56.053 91.5486 55.6902 91.4139 55.3222C91.1859 55.3171 90.9578 55.3119 90.7298 55.3067C90.5018 55.3067 90.2738 55.3015 90.0457 55.3015C89.8592 55.3015 89.6778 55.3015 89.4912 55.3067C89.3047 55.3067 89.1233 55.3171 88.9367 55.3222C88.7916 55.685 88.6621 56.0478 88.5429 56.4157C88.4237 56.7785 88.3097 57.1361 88.2112 57.4833C88.1283 57.4677 88.0402 57.4626 87.9624 57.4626H87.4546C87.3716 57.4626 87.2784 57.4677 87.1747 57.4833C87.2628 57.2967 87.3768 57.0428 87.5168 56.7111C87.6619 56.3846 87.8173 56.0115 87.9883 55.5969C88.1594 55.1823 88.3408 54.7418 88.5377 54.265C88.7346 53.7883 88.9315 53.3115 89.1285 52.8244C89.3254 52.3372 89.5171 51.8604 89.7037 51.3888C89.8903 50.9173 90.0665 50.4768 90.2219 50.0725C90.2945 50.0881 90.3619 50.0984 90.4241 50.1088C90.4862 50.1192 90.5536 50.1244 90.6262 50.1244C90.6987 50.1244 90.7661 50.1192 90.8283 50.1088C90.8905 50.0984 90.963 50.0881 91.0304 50.0725C91.2584 50.6789 91.502 51.3267 91.7611 52.0159C92.0202 52.7103 92.2845 53.3892 92.5488 54.0526C92.8131 54.7211 93.0671 55.3533 93.3158 55.9493C93.5646 56.5453 93.7926 57.0531 93.9999 57.4677M90.2168 52.1299C90.0302 52.5601 89.8592 52.9798 89.6933 53.3996C89.5275 53.8142 89.3669 54.2443 89.2114 54.6744H91.1651C91.0097 54.2391 90.8542 53.8142 90.6987 53.3996C90.5484 52.9798 90.3826 52.5601 90.2116 52.1299" fill="#6F6F6E"/>
</svg>
