<svg width="109" height="108" viewBox="0 0 109 108" fill="none" xmlns="http://www.w3.org/2000/svg">
<path fill-rule="evenodd" clip-rule="evenodd" d="M41.9201 70.8733L34.3367 64.6366V29.3866L41.9201 23.7133V70.8733ZM50.1201 77.62L43.1501 71.8866V22.7966L50.1201 17.5833V77.62ZM67.7467 23.7166L75.3301 29.3866V64.6366L67.7467 70.8733V23.7166ZM59.5467 17.5833L66.5167 22.7966V71.8866L59.5467 77.62V17.5833ZM54.8334 14.0566L58.3167 16.6633V78.63L54.8334 81.4966L51.3501 78.63V16.6633L54.8334 14.0566Z" fill="#009B4C"/>
<path fill-rule="evenodd" clip-rule="evenodd" d="M54.7401 26.5666C66.0034 26.5666 75.1467 35.7066 75.1467 46.97C75.1467 58.2333 66.0034 67.3733 54.7401 67.3733C43.4801 67.3733 34.3367 58.2333 34.3367 46.97C34.3367 35.7066 43.4801 26.5666 54.7401 26.5666Z" fill="#FEFEFE"/>
<path fill-rule="evenodd" clip-rule="evenodd" d="M72.3667 47.9233C71.8667 57.2166 64.1334 64.6433 54.7167 64.6433C45.3034 64.6433 37.5701 57.2166 37.0701 47.9233H72.3667ZM54.7167 29.2966C64.1034 29.2966 71.8167 36.6766 72.3601 45.9266H37.0767C37.6201 36.6766 45.3334 29.2966 54.7167 29.2966Z" fill="#FEFEFE"/>
<path fill-rule="evenodd" clip-rule="evenodd" d="M72.3834 47.9233C71.8834 57.2166 64.1501 64.6433 54.7334 64.6433C45.3201 64.6433 37.5834 57.2166 37.0867 47.9233H72.3834ZM54.7334 29.2966C64.1201 29.2966 71.8334 36.6766 72.3767 45.9266H37.0901C37.6334 36.6766 45.3501 29.2966 54.7334 29.2966Z" fill="#00A2E9"/>
<path fill-rule="evenodd" clip-rule="evenodd" d="M72.3867 45.9266H73.1001L75.3301 46.8366L73.1001 47.9233H72.3901C72.4067 47.6066 72.4167 47.29 72.4167 46.97C72.4167 46.62 72.4067 46.2733 72.3867 45.9266ZM34.4234 45.9266H37.0534C37.0301 46.2733 37.0201 46.62 37.0201 46.97C37.0201 47.29 37.0301 47.6066 37.0467 47.9233H34.4234L37.6134 46.8366L34.4234 45.9266Z" fill="#00A2E9"/>
<path fill-rule="evenodd" clip-rule="evenodd" d="M45.6101 31.7766C51.4901 35.2633 57.9067 35.28 63.6467 31.66L65.0434 32.59C59.5401 37.33 50.2301 37.58 44.1001 32.86L45.6101 31.7766Z" fill="#FEFEFE"/>
<path fill-rule="evenodd" clip-rule="evenodd" d="M40.2267 36.8966C48.7601 42.6133 60.2601 42.5333 68.9934 36.62C69.4934 37.2733 69.9167 37.9233 70.2301 38.5733C62.4167 44.52 48.5834 45.0166 39.0267 38.8466C39.3801 38.1966 39.7634 37.5466 40.2267 36.8966Z" fill="#FEFEFE"/>
<path fill-rule="evenodd" clip-rule="evenodd" d="M45.6101 62.1866C51.4901 58.7 57.9067 58.6833 63.6467 62.3033L65.0434 61.3733C59.5401 56.6333 50.2301 56.3833 44.1001 61.1L45.6101 62.1866Z" fill="#FEFEFE"/>
<path fill-rule="evenodd" clip-rule="evenodd" d="M40.2267 57.0433C48.7601 51.3266 60.2601 51.4066 68.9934 57.3166C69.4934 56.6666 69.9167 56.0166 70.2301 55.3633C62.4167 49.42 48.5834 48.92 39.0267 55.0933C39.3801 55.7433 39.7634 56.3933 40.2267 57.0433Z" fill="#FEFEFE"/>
<path d="M27.0867 87.3533C27.6167 87.47 27.9934 87.6133 28.2067 87.7833C28.5167 88.0233 28.6701 88.3333 28.6701 88.7166C28.6701 89.12 28.5001 89.4533 28.1601 89.7166C27.7434 90.0366 27.1401 90.1933 26.3467 90.1933H23.5001V90.05C23.7601 90.05 23.9334 90.0266 24.0267 89.98C24.1201 89.9333 24.1834 89.8733 24.2201 89.8C24.2601 89.7266 24.2767 89.5433 24.2767 89.2533V85.7733C24.2767 85.4866 24.2601 85.3033 24.2201 85.2266C24.1834 85.1533 24.1201 85.0933 24.0234 85.0466C23.9301 85.0033 23.7567 84.98 23.5001 84.98V84.8333H26.1867C26.8267 84.8333 27.2834 84.89 27.5501 84.9966C27.8167 85.1066 28.0267 85.27 28.1801 85.4866C28.3367 85.7066 28.4134 85.9366 28.4134 86.1833C28.4134 86.44 28.3167 86.67 28.1201 86.8733C27.9234 87.0733 27.5801 87.2333 27.0867 87.3533ZM25.5834 87.5533V89.2733L25.5767 89.47C25.5767 89.6133 25.6167 89.72 25.6934 89.7933C25.7667 89.8666 25.8801 89.9033 26.0301 89.9033C26.2501 89.9033 26.4534 89.8566 26.6367 89.7633C26.8234 89.6666 26.9667 89.5333 27.0667 89.3533C27.1634 89.1766 27.2134 88.9766 27.2134 88.76C27.2134 88.51 27.1534 88.2833 27.0334 88.0866C26.9134 87.8866 26.7467 87.7466 26.5334 87.67C26.3201 87.59 26.0034 87.55 25.5834 87.5533ZM25.5834 87.2466C25.9734 87.2466 26.2634 87.2033 26.4467 87.12C26.6334 87.0333 26.7767 86.9166 26.8767 86.7633C26.9767 86.61 27.0234 86.4166 27.0234 86.1766C27.0234 85.94 26.9767 85.7466 26.8767 85.5966C26.7801 85.4433 26.6401 85.3266 26.4601 85.25C26.2767 85.17 25.9834 85.1333 25.5834 85.1333V87.2466Z" fill="#332C2B"/>
<path d="M32.4867 88.67H30.5067L30.2734 89.19C30.1967 89.3633 30.1567 89.5066 30.1567 89.62C30.1567 89.77 30.2201 89.8833 30.3467 89.9533C30.4201 89.9966 30.6034 90.0266 30.8967 90.05V90.1933H29.0334V90.05C29.2334 90.02 29.4001 89.94 29.5301 89.81C29.6567 89.68 29.8167 89.41 30.0067 89L32.0134 84.7233H32.0901L34.1101 89.12C34.3034 89.5366 34.4634 89.7966 34.5867 89.9066C34.6801 89.9866 34.8134 90.0366 34.9834 90.05V90.1933H32.2734V90.05H32.3834C32.6001 90.05 32.7534 90.02 32.8434 89.96C32.9034 89.92 32.9334 89.86 32.9334 89.78C32.9334 89.7333 32.9267 89.6833 32.9101 89.6333C32.9034 89.61 32.8634 89.51 32.7834 89.3366L32.4867 88.67ZM32.3467 88.3766L31.5134 86.53L30.6534 88.3766H32.3467Z" fill="#332C2B"/>
<path d="M37.1867 84.8333L39.9501 88.16V85.8533C39.9501 85.5333 39.9001 85.3133 39.8067 85.2C39.6734 85.05 39.4501 84.9733 39.1401 84.98V84.8333H40.9901V84.98C40.7534 85.01 40.5934 85.0466 40.5134 85.0933C40.4334 85.14 40.3701 85.2133 40.3234 85.32C40.2767 85.4233 40.2567 85.6 40.2567 85.8533V90.3166H40.1134L36.3267 85.8533V89.2633C36.3267 89.57 36.4001 89.7766 36.5467 89.8866C36.6934 89.9933 36.8634 90.05 37.0534 90.05H37.1867V90.1933H35.1967V90.05C35.5067 90.0466 35.7201 89.9866 35.8434 89.8666C35.9634 89.7466 36.0234 89.5466 36.0234 89.2633V85.48L35.9034 85.3366C35.7867 85.1933 35.6801 85.1 35.5901 85.0566C35.5001 85.01 35.3701 84.9866 35.1967 84.98V84.8333H37.1867Z" fill="#332C2B"/>
<path d="M44.7134 86.8866L46.6834 89.2466C46.9634 89.5766 47.2034 89.8033 47.4034 89.9233C47.5501 90.0066 47.7034 90.05 47.8667 90.05V90.1933H44.9501V90.05C45.1334 90.0333 45.2534 90.0066 45.3067 89.9666C45.3601 89.9266 45.3867 89.8766 45.3867 89.82C45.3867 89.7066 45.2601 89.5 45.0067 89.1933L43.7234 87.65L43.5167 87.8133V89.2766C43.5167 89.5566 43.5334 89.73 43.5667 89.8C43.5967 89.8666 43.6601 89.9266 43.7567 89.9766C43.8501 90.0233 44.0001 90.05 44.2067 90.05V90.1933H41.3801V90.05H41.5667C41.7267 90.05 41.8601 90.02 41.9567 89.9666C42.0301 89.93 42.0834 89.8666 42.1234 89.7766C42.1534 89.7133 42.1701 89.5466 42.1701 89.2766V85.75C42.1701 85.4766 42.1534 85.3066 42.1234 85.2366C42.0934 85.17 42.0301 85.11 41.9401 85.0566C41.8467 85.0066 41.7234 84.98 41.5667 84.98H41.3801V84.8333H44.1701V84.98C43.9801 84.98 43.8334 85.0066 43.7334 85.06C43.6634 85.0966 43.6067 85.16 43.5667 85.2466C43.5334 85.31 43.5167 85.48 43.5167 85.75V87.42L45.5934 85.81C45.8834 85.5866 46.0267 85.4066 46.0267 85.2733C46.0267 85.1733 45.9701 85.0933 45.8501 85.0366C45.7901 85.0066 45.6401 84.9866 45.4001 84.98V84.8333H47.5867V84.98C47.3901 84.9933 47.2367 85.0266 47.1267 85.08C47.0134 85.1366 46.7567 85.3166 46.3534 85.63L44.7134 86.8866Z" fill="#332C2B"/>
<path d="M53.4134 86.8866L55.3834 89.2466C55.6601 89.5766 55.9001 89.8033 56.1034 89.9233C56.2467 90.0066 56.4034 90.05 56.5634 90.05V90.1933H53.6467V90.05C53.8334 90.0333 53.9501 90.0066 54.0034 89.9666C54.0601 89.9266 54.0867 89.8766 54.0867 89.82C54.0867 89.7066 53.9601 89.5 53.7067 89.1933L52.4201 87.65L52.2134 87.8133V89.2766C52.2134 89.5566 52.2301 89.73 52.2634 89.8C52.2967 89.8666 52.3601 89.9266 52.4534 89.9766C52.5467 90.0233 52.6967 90.05 52.9034 90.05V90.1933H50.0767V90.05H50.2634C50.4267 90.05 50.5567 90.02 50.6567 89.9666C50.7267 89.93 50.7834 89.8666 50.8201 89.7766C50.8501 89.7133 50.8667 89.5466 50.8667 89.2766V85.75C50.8667 85.4766 50.8501 85.3066 50.8201 85.2366C50.7901 85.17 50.7301 85.11 50.6367 85.0566C50.5434 85.0066 50.4201 84.98 50.2634 84.98H50.0767V84.8333H52.8667V84.98C52.6767 84.98 52.5334 85.0066 52.4334 85.06C52.3601 85.0966 52.3034 85.16 52.2634 85.2466C52.2301 85.31 52.2134 85.48 52.2134 85.75V87.42L54.2934 85.81C54.5801 85.5866 54.7267 85.4066 54.7267 85.2733C54.7267 85.1733 54.6667 85.0933 54.5467 85.0366C54.4867 85.0066 54.3367 84.9866 54.0967 84.98V84.8333H56.2834V84.98C56.0867 84.9933 55.9334 85.0266 55.8234 85.08C55.7101 85.1366 55.4534 85.3166 55.0534 85.63L53.4134 86.8866Z" fill="#332C2B"/>
<path d="M59.9901 88.67H58.0101L57.7767 89.19C57.6967 89.3633 57.6601 89.5066 57.6601 89.62C57.6601 89.77 57.7234 89.8833 57.8501 89.9533C57.9234 89.9966 58.1067 90.0266 58.4001 90.05V90.1933H56.5367V90.05C56.7367 90.02 56.9034 89.94 57.0301 89.81C57.1601 89.68 57.3201 89.41 57.5101 89L59.5134 84.7233H59.5934L61.6134 89.12C61.8067 89.5366 61.9667 89.7966 62.0901 89.9066C62.1834 89.9866 62.3167 90.0366 62.4867 90.05V90.1933H59.7767V90.05H59.8867C60.1034 90.05 60.2567 90.02 60.3467 89.96C60.4067 89.92 60.4367 89.86 60.4367 89.78C60.4367 89.7333 60.4267 89.6833 60.4134 89.6333C60.4067 89.61 60.3634 89.51 60.2867 89.3366L59.9901 88.67ZM59.8501 88.3766L59.0134 86.53L58.1567 88.3766H59.8501Z" fill="#332C2B"/>
<path d="M67.9234 88.3133L67.7134 90.1933H62.7367V90.05H62.9234C63.0867 90.05 63.2167 90.02 63.3167 89.9666C63.3867 89.93 63.4434 89.8666 63.4834 89.7766C63.5134 89.7133 63.5267 89.5466 63.5267 89.2766V85.75C63.5267 85.4766 63.5134 85.3066 63.4834 85.2366C63.4501 85.17 63.3901 85.11 63.2967 85.0566C63.2067 85.0066 63.0801 84.98 62.9234 84.98H62.7367V84.8333H65.7267V84.98H65.4801C65.3201 84.98 65.1867 85.0066 65.0901 85.0633C65.0167 85.1 64.9601 85.1633 64.9201 85.2533C64.8901 85.3166 64.8734 85.4833 64.8734 85.75V89.1666C64.8734 89.44 64.8901 89.6166 64.9234 89.69C64.9567 89.7666 65.0234 89.82 65.1167 89.86C65.1867 89.8833 65.3534 89.8933 65.6167 89.8933H66.0834C66.3834 89.8933 66.6301 89.8433 66.8301 89.7433C67.0267 89.6433 67.2001 89.4866 67.3434 89.27C67.4867 89.0533 67.6234 88.7333 67.7534 88.3133H67.9234Z" fill="#332C2B"/>
<path d="M71.9901 87.3533C72.5201 87.47 72.8934 87.6133 73.1101 87.7833C73.4167 88.0233 73.5734 88.3333 73.5734 88.7166C73.5734 89.12 73.4034 89.4533 73.0634 89.7166C72.6467 90.0366 72.0434 90.1933 71.2501 90.1933H68.4034V90.05C68.6634 90.05 68.8367 90.0266 68.9301 89.98C69.0234 89.9333 69.0867 89.8733 69.1234 89.8C69.1601 89.7266 69.1801 89.5433 69.1801 89.2533V85.7733C69.1801 85.4866 69.1601 85.3033 69.1234 85.2266C69.0867 85.1533 69.0201 85.0933 68.9267 85.0466C68.8334 85.0033 68.6601 84.98 68.4034 84.98V84.8333H71.0901C71.7301 84.8333 72.1867 84.89 72.4534 84.9966C72.7201 85.1066 72.9301 85.27 73.0834 85.4866C73.2401 85.7066 73.3167 85.9366 73.3167 86.1833C73.3167 86.44 73.2167 86.67 73.0234 86.8733C72.8267 87.0733 72.4834 87.2333 71.9901 87.3533ZM70.4867 87.5533V89.2733L70.4801 89.47C70.4801 89.6133 70.5201 89.72 70.5967 89.7933C70.6701 89.8666 70.7834 89.9033 70.9334 89.9033C71.1534 89.9033 71.3567 89.8566 71.5401 89.7633C71.7267 89.6666 71.8701 89.5333 71.9701 89.3533C72.0667 89.1766 72.1167 88.9766 72.1167 88.76C72.1167 88.51 72.0567 88.2833 71.9367 88.0866C71.8134 87.8866 71.6467 87.7466 71.4367 87.67C71.2234 87.59 70.9067 87.55 70.4867 87.5533ZM70.4867 87.2466C70.8767 87.2466 71.1667 87.2033 71.3501 87.12C71.5367 87.0333 71.6801 86.9166 71.7801 86.7633C71.8801 86.61 71.9267 86.4166 71.9267 86.1766C71.9267 85.94 71.8801 85.7466 71.7801 85.5966C71.6834 85.4433 71.5434 85.3266 71.3601 85.25C71.1801 85.17 70.8867 85.1333 70.4867 85.1333V87.2466Z" fill="#332C2B"/>
<path d="M77.3901 88.67H75.4101L75.1767 89.19C75.0967 89.3633 75.0601 89.5066 75.0601 89.62C75.0601 89.77 75.1234 89.8833 75.2501 89.9533C75.3234 89.9966 75.5067 90.0266 75.8001 90.05V90.1933H73.9367V90.05C74.1367 90.02 74.3034 89.94 74.4301 89.81C74.5601 89.68 74.7201 89.41 74.9101 89L76.9167 84.7233H76.9934L79.0134 89.12C79.2067 89.5366 79.3667 89.7966 79.4901 89.9066C79.5834 89.9866 79.7167 90.0366 79.8867 90.05V90.1933H77.1767V90.05H77.2867C77.5034 90.05 77.6567 90.02 77.7467 89.96C77.8067 89.92 77.8367 89.86 77.8367 89.78C77.8367 89.7333 77.8301 89.6833 77.8134 89.6333C77.8067 89.61 77.7667 89.51 77.6867 89.3366L77.3901 88.67ZM77.2501 88.3766L76.4134 86.53L75.5567 88.3766H77.2501Z" fill="#332C2B"/>
<path d="M82.2301 87.75V89.2533C82.2301 89.5433 82.2467 89.7266 82.2834 89.8C82.3234 89.8766 82.3867 89.9366 82.4801 89.98C82.5734 90.0266 82.7501 90.05 83.0067 90.05V90.1933H80.1401V90.05C80.3967 90.05 80.5734 90.0266 80.6667 89.98C80.7567 89.9333 80.8234 89.8733 80.8601 89.8C80.8967 89.7266 80.9134 89.5433 80.9134 89.2533V85.7733C80.9134 85.4866 80.8967 85.3033 80.8601 85.2266C80.8234 85.1533 80.7567 85.0933 80.6634 85.0466C80.5701 85.0033 80.3934 84.98 80.1401 84.98V84.8333H82.7401C83.4201 84.8333 83.9167 84.88 84.2301 84.97C84.5434 85.0566 84.8001 85.2233 84.9967 85.4633C85.1967 85.7066 85.2967 85.99 85.2967 86.3133C85.2967 86.7066 85.1467 87.0333 84.8501 87.2933C84.6601 87.4566 84.3934 87.58 84.0501 87.66L85.4001 89.4766C85.5734 89.71 85.7001 89.8566 85.7734 89.9133C85.8867 89.9966 86.0167 90.04 86.1667 90.05V90.1933H84.4034L82.5967 87.75H82.2301ZM82.2301 85.1233V87.47H82.4634C82.8467 87.47 83.1334 87.4366 83.3234 87.37C83.5134 87.3033 83.6634 87.18 83.7734 87.0066C83.8801 86.83 83.9367 86.6033 83.9367 86.32C83.9367 85.9133 83.8367 85.61 83.6367 85.4166C83.4367 85.22 83.1134 85.1233 82.6701 85.1233H82.2301Z" fill="#332C2B"/>
<path d="M24.0801 93.91V91.92H24.5901C24.7834 91.92 24.9101 91.93 24.9701 91.95C25.0601 91.98 25.1334 92.0466 25.1967 92.1466C25.2567 92.2466 25.2867 92.3766 25.2867 92.5333C25.2867 92.6566 25.2701 92.7566 25.2334 92.84C25.2001 92.9233 25.1534 92.99 25.1001 93.0366C25.0467 93.0866 24.9901 93.1166 24.9367 93.1333C24.8601 93.15 24.7501 93.16 24.6034 93.16H24.3967V93.91H24.0801ZM24.3967 92.2566V92.8233H24.5701C24.6967 92.8233 24.7801 92.8133 24.8234 92.79C24.8667 92.77 24.9001 92.7366 24.9234 92.6933C24.9467 92.65 24.9601 92.5966 24.9601 92.54C24.9601 92.4666 24.9434 92.4066 24.9067 92.36C24.8734 92.3133 24.8301 92.2833 24.7801 92.27C24.7434 92.2633 24.6667 92.2566 24.5501 92.2566H24.3967Z" fill="#332C2B"/>
<path d="M25.9034 93.91V92.2566H25.4367V91.92H26.6867V92.2566H26.2201V93.91H25.9034Z" fill="#332C2B"/>
<path d="M26.6467 93.91V93.53H26.9501V93.91H26.6467Z" fill="#332C2B"/>
<path d="M27.8734 91.92H28.5034C28.6301 91.92 28.7234 91.9266 28.7834 91.94C28.8467 91.9533 28.9001 91.98 28.9467 92.0233C28.9967 92.0633 29.0367 92.12 29.0701 92.19C29.1001 92.2566 29.1167 92.3366 29.1167 92.4233C29.1167 92.5166 29.0967 92.6 29.0567 92.68C29.0167 92.7566 28.9634 92.8133 28.8967 92.8533C28.9934 92.89 29.0667 92.95 29.1167 93.0333C29.1701 93.12 29.1967 93.22 29.1967 93.3333C29.1967 93.4233 29.1801 93.5133 29.1467 93.5966C29.1134 93.6833 29.0667 93.7533 29.0101 93.8033C28.9501 93.8533 28.8801 93.8866 28.7934 93.8966C28.7434 93.9033 28.6134 93.91 28.4101 93.91H27.8734V91.92ZM28.1934 92.2533V92.7133H28.4001C28.5267 92.7133 28.6034 92.71 28.6334 92.7066C28.6867 92.6966 28.7301 92.6733 28.7601 92.6333C28.7934 92.5966 28.8067 92.5433 28.8067 92.48C28.8067 92.4166 28.7934 92.3666 28.7667 92.33C28.7401 92.29 28.7001 92.2666 28.6467 92.26C28.6167 92.2533 28.5267 92.2533 28.3767 92.2533H28.1934ZM28.1934 93.0433V93.5766H28.4867C28.6034 93.5766 28.6767 93.5733 28.7067 93.5633C28.7534 93.5533 28.7934 93.5266 28.8201 93.4833C28.8501 93.4433 28.8667 93.3866 28.8667 93.3166C28.8667 93.2566 28.8534 93.2033 28.8334 93.1633C28.8101 93.12 28.7767 93.09 28.7334 93.0733C28.6901 93.0533 28.5934 93.0433 28.4501 93.0433H28.1934Z" fill="#332C2B"/>
<path d="M30.8867 93.91H30.5401L30.4034 93.46H29.7701L29.6401 93.91H29.3034L29.9167 91.92H30.2534L30.8867 93.91ZM30.3001 93.1233L30.0834 92.3866L29.8701 93.1233H30.3001Z" fill="#332C2B"/>
<path d="M31.0567 93.91V91.92H31.3667L32.0134 93.25V91.92H32.3101V93.91H31.9901L31.3534 92.6133V93.91H31.0567Z" fill="#332C2B"/>
<path d="M32.6501 93.91V91.92H32.9667V92.8033L33.6101 91.92H34.0401L33.4467 92.6966L34.0734 93.91H33.6601L33.2267 92.9766L32.9667 93.31V93.91H32.6501Z" fill="#332C2B"/>
<path d="M34.8467 93.91V91.92H35.3601C35.5534 91.92 35.6801 91.93 35.7367 91.95C35.8267 91.98 35.9034 92.0466 35.9634 92.1466C36.0267 92.2466 36.0567 92.3766 36.0567 92.5333C36.0567 92.6566 36.0401 92.7566 36.0034 92.84C35.9701 92.9233 35.9234 92.99 35.8701 93.0366C35.8167 93.0866 35.7601 93.1166 35.7034 93.1333C35.6301 93.15 35.5201 93.16 35.3734 93.16H35.1667V93.91H34.8467ZM35.1667 92.2566V92.8233H35.3401C35.4667 92.8233 35.5501 92.8133 35.5934 92.79C35.6334 92.77 35.6667 92.7366 35.6934 92.6933C35.7167 92.65 35.7267 92.5966 35.7267 92.54C35.7267 92.4666 35.7101 92.4066 35.6767 92.36C35.6434 92.3133 35.6001 92.2833 35.5501 92.27C35.5101 92.2633 35.4367 92.2566 35.3201 92.2566H35.1667Z" fill="#332C2B"/>
<path d="M36.3167 93.91V91.92H37.4867V92.2566H36.6367V92.7H37.4267V93.0333H36.6367V93.5766H37.5167V93.91H36.3167Z" fill="#332C2B"/>
<path d="M37.7834 93.91V91.92H38.2601L38.5467 93.28L38.8267 91.92H39.3067V93.91H39.0101V92.3433L38.6967 93.91H38.3901L38.0801 92.3433V93.91H37.7834Z" fill="#332C2B"/>
<path d="M39.6234 91.92H40.2534C40.3767 91.92 40.4701 91.9266 40.5334 91.94C40.5934 91.9533 40.6501 91.98 40.6967 92.0233C40.7467 92.0633 40.7867 92.12 40.8167 92.19C40.8501 92.2566 40.8667 92.3366 40.8667 92.4233C40.8667 92.5166 40.8467 92.6 40.8067 92.68C40.7667 92.7566 40.7134 92.8133 40.6434 92.8533C40.7401 92.89 40.8134 92.95 40.8667 93.0333C40.9167 93.12 40.9434 93.22 40.9434 93.3333C40.9434 93.4233 40.9267 93.5133 40.8934 93.5966C40.8601 93.6833 40.8134 93.7533 40.7567 93.8033C40.7001 93.8533 40.6267 93.8866 40.5434 93.8966C40.4901 93.9033 40.3634 93.91 40.1601 93.91H39.6234V91.92ZM39.9401 92.2533V92.7133H40.1501C40.2734 92.7133 40.3501 92.71 40.3801 92.7066C40.4367 92.6966 40.4767 92.6733 40.5101 92.6333C40.5401 92.5966 40.5567 92.5433 40.5567 92.48C40.5567 92.4166 40.5434 92.3666 40.5167 92.33C40.4901 92.29 40.4501 92.2666 40.3967 92.26C40.3634 92.2533 40.2734 92.2533 40.1234 92.2533H39.9401ZM39.9401 93.0433V93.5766H40.2367C40.3501 93.5766 40.4234 93.5733 40.4534 93.5633C40.5001 93.5533 40.5401 93.5266 40.5701 93.4833C40.6001 93.4433 40.6134 93.3866 40.6134 93.3166C40.6134 93.2566 40.6034 93.2033 40.5801 93.1633C40.5567 93.12 40.5234 93.09 40.4801 93.0733C40.4367 93.0533 40.3434 93.0433 40.1967 93.0433H39.9401Z" fill="#332C2B"/>
<path d="M42.6334 93.91H42.2867L42.1501 93.46H41.5201L41.3901 93.91H41.0534L41.6667 91.92H42.0034L42.6334 93.91ZM42.0467 93.1233L41.8301 92.3866L41.6167 93.1233H42.0467Z" fill="#332C2B"/>
<path d="M42.8067 93.91V91.92H43.1167L43.7601 93.25V91.92H44.0567V93.91H43.7367L43.1034 92.6133V93.91H42.8067Z" fill="#332C2B"/>
<path d="M45.1267 93.18V92.8433H45.8134V93.6366C45.7467 93.7166 45.6501 93.79 45.5234 93.8533C45.3967 93.9133 45.2701 93.9433 45.1401 93.9433C44.9734 93.9433 44.8301 93.9 44.7067 93.8133C44.5867 93.7266 44.4934 93.6033 44.4301 93.44C44.3701 93.2766 44.3401 93.1 44.3401 92.91C44.3401 92.7033 44.3734 92.5166 44.4434 92.3566C44.5101 92.1966 44.6134 92.0733 44.7434 91.9866C44.8467 91.92 44.9701 91.8866 45.1234 91.8866C45.3167 91.8866 45.4701 91.94 45.5801 92.0433C45.6901 92.1466 45.7634 92.29 45.7934 92.4733L45.4767 92.5466C45.4567 92.45 45.4134 92.3733 45.3534 92.3166C45.2901 92.26 45.2134 92.23 45.1234 92.23C44.9834 92.23 44.8734 92.2866 44.7901 92.3966C44.7067 92.51 44.6667 92.6733 44.6667 92.8933C44.6667 93.13 44.7101 93.3066 44.7934 93.4233C44.8734 93.5433 44.9834 93.6 45.1201 93.6C45.1867 93.6 45.2534 93.5833 45.3201 93.5533C45.3867 93.52 45.4434 93.48 45.4934 93.4333V93.18H45.1267Z" fill="#332C2B"/>
<path d="M46.1034 91.92H46.4234V93C46.4234 93.17 46.4267 93.28 46.4367 93.33C46.4501 93.4133 46.4801 93.4766 46.5334 93.5266C46.5834 93.5766 46.6534 93.6 46.7434 93.6C46.8334 93.6 46.9001 93.5766 46.9467 93.5333C46.9934 93.4833 47.0201 93.4266 47.0301 93.36C47.0401 93.2933 47.0434 93.18 47.0434 93.0233V91.92H47.3634V92.9666C47.3634 93.2066 47.3534 93.3733 47.3367 93.4733C47.3201 93.57 47.2867 93.6533 47.2401 93.7233C47.1967 93.79 47.1334 93.8433 47.0567 93.8833C46.9801 93.9233 46.8767 93.9433 46.7534 93.9433C46.6034 93.9433 46.4867 93.9233 46.4101 93.88C46.3334 93.8366 46.2701 93.7766 46.2267 93.7066C46.1801 93.6366 46.1501 93.5633 46.1367 93.4866C46.1167 93.3733 46.1034 93.2066 46.1034 92.9833V91.92Z" fill="#332C2B"/>
<path d="M47.7001 93.91V91.92H48.0101L48.6567 93.25V91.92H48.9534V93.91H48.6334L47.9967 92.6133V93.91H47.7001Z" fill="#332C2B"/>
<path d="M50.7101 93.91H50.3634L50.2267 93.46H49.5967L49.4667 93.91H49.1267L49.7434 91.92H50.0801L50.7101 93.91ZM50.1234 93.1233L49.9067 92.3866L49.6934 93.1233H50.1234Z" fill="#332C2B"/>
<path d="M50.8834 93.91V91.92H51.1934L51.8367 93.25V91.92H52.1334V93.91H51.8134L51.1801 92.6133V93.91H50.8834Z" fill="#332C2B"/>
<path d="M53.0801 91.92H53.6634C53.7934 91.92 53.8934 91.9333 53.9634 91.96C54.0567 91.9933 54.1367 92.0533 54.2001 92.1433C54.2667 92.23 54.3167 92.3366 54.3501 92.4633C54.3867 92.5933 54.4034 92.75 54.4034 92.9333C54.4034 93.1 54.3867 93.24 54.3534 93.3566C54.3167 93.5033 54.2601 93.62 54.1867 93.71C54.1301 93.7766 54.0567 93.83 53.9634 93.87C53.8934 93.8966 53.7967 93.91 53.6801 93.91H53.0801V91.92ZM53.4001 92.2566V93.5766H53.6367C53.7267 93.5766 53.7901 93.57 53.8301 93.5566C53.8801 93.54 53.9234 93.5133 53.9567 93.4733C53.9934 93.4333 54.0201 93.37 54.0434 93.28C54.0634 93.1933 54.0734 93.07 54.0734 92.9166C54.0734 92.7633 54.0634 92.6466 54.0434 92.5633C54.0201 92.48 53.9901 92.4166 53.9501 92.37C53.9134 92.3233 53.8634 92.2933 53.8034 92.2766C53.7601 92.2633 53.6734 92.2566 53.5434 92.2566H53.4001Z" fill="#332C2B"/>
<path d="M56.0934 93.91H55.7501L55.6101 93.46H54.9801L54.8501 93.91H54.5134L55.1267 91.92H55.4634L56.0934 93.91ZM55.5101 93.1233L55.2934 92.3866L55.0801 93.1233H55.5101Z" fill="#332C2B"/>
<path d="M56.2634 93.91V91.92H57.4334V92.2566H56.5834V92.7H57.3734V93.0333H56.5834V93.5766H57.4634V93.91H56.2634Z" fill="#332C2B"/>
<path d="M57.7334 93.91V91.92H58.4034C58.5734 91.92 58.6967 91.94 58.7701 91.9733C58.8467 92.01 58.9101 92.0733 58.9534 92.1666C59.0001 92.2566 59.0234 92.36 59.0234 92.48C59.0234 92.6266 58.9901 92.75 58.9201 92.85C58.8501 92.9466 58.7467 93.0066 58.6067 93.0333C58.6767 93.0833 58.7334 93.14 58.7767 93.2C58.8234 93.26 58.8834 93.3666 58.9601 93.5233L59.1534 93.91H58.7701L58.5401 93.4766C58.4601 93.3233 58.4034 93.2266 58.3734 93.1866C58.3434 93.1466 58.3101 93.1166 58.2767 93.1033C58.2434 93.0866 58.1901 93.08 58.1167 93.08H58.0534V93.91H57.7334ZM58.0534 92.7633H58.2867C58.4401 92.7633 58.5367 92.7533 58.5734 92.7366C58.6134 92.7233 58.6434 92.6933 58.6634 92.6533C58.6834 92.6133 58.6967 92.5633 58.6967 92.5066C58.6967 92.4366 58.6801 92.3833 58.6534 92.3433C58.6234 92.3 58.5834 92.2766 58.5334 92.2633C58.5067 92.26 58.4301 92.2566 58.3001 92.2566H58.0534V92.7633Z" fill="#332C2B"/>
<path d="M60.7467 93.91H60.4001L60.2601 93.46H59.6301L59.5001 93.91H59.1634L59.7767 91.92H60.1134L60.7467 93.91ZM60.1601 93.1233L59.9434 92.3866L59.7301 93.1233H60.1601Z" fill="#332C2B"/>
<path d="M60.9167 93.91V91.92H61.2334V92.7033H61.8567V91.92H62.1767V93.91H61.8567V93.04H61.2334V93.91H60.9167Z" fill="#332C2B"/>
<path d="M63.1234 93.91V91.92H63.4401V92.8033L64.0834 91.92H64.5101L63.9167 92.6966L64.5434 93.91H64.1301L63.6967 92.9766L63.4401 93.31V93.91H63.1234Z" fill="#332C2B"/>
<path d="M66.1301 93.91H65.7834L65.6467 93.46H65.0167L64.8867 93.91H64.5467L65.1634 91.92H65.5001L66.1301 93.91ZM65.5434 93.1233L65.3267 92.3866L65.1134 93.1233H65.5434Z" fill="#332C2B"/>
<path d="M66.3067 93.91V91.9366H66.6267V93.5766H67.4167V93.91H66.3067Z" fill="#332C2B"/>
<path d="M67.6334 93.91V91.92H67.9534V93.91H67.6334Z" fill="#332C2B"/>
<path d="M68.2534 93.91V91.92H68.7301L69.0134 93.28L69.2967 91.92H69.7767V93.91H69.4801V92.3433L69.1667 93.91H68.8601L68.5467 92.3433V93.91H68.2534Z" fill="#332C2B"/>
<path d="M71.5134 93.91H71.1667L71.0301 93.46H70.4001L70.2701 93.91H69.9301L70.5434 91.92H70.8834L71.5134 93.91ZM70.9267 93.1233L70.7101 92.3866L70.4967 93.1233H70.9267Z" fill="#332C2B"/>
<path d="M71.6834 93.91V91.92H71.9934L72.6401 93.25V91.92H72.9367V93.91H72.6167L71.9801 92.6133V93.91H71.6834Z" fill="#332C2B"/>
<path d="M73.6267 93.91V92.2566H73.1601V91.92H74.4134V92.2566H73.9467V93.91H73.6267Z" fill="#332C2B"/>
<path d="M75.8767 93.91H75.5301L75.3934 93.46H74.7634L74.6334 93.91H74.2934L74.9101 91.92H75.2467L75.8767 93.91ZM75.2901 93.1233L75.0734 92.3866L74.8601 93.1233H75.2901Z" fill="#332C2B"/>
<path d="M76.0501 93.91V91.92H76.3601L77.0034 93.25V91.92H77.3001V93.91H76.9801L76.3434 92.6133V93.91H76.0501Z" fill="#332C2B"/>
<path d="M78.2501 91.92H78.8801C79.0034 91.92 79.0967 91.9266 79.1601 91.94C79.2201 91.9533 79.2767 91.98 79.3234 92.0233C79.3734 92.0633 79.4134 92.12 79.4434 92.19C79.4767 92.2566 79.4934 92.3366 79.4934 92.4233C79.4934 92.5166 79.4734 92.6 79.4334 92.68C79.3934 92.7566 79.3401 92.8133 79.2701 92.8533C79.3667 92.89 79.4401 92.95 79.4934 93.0333C79.5434 93.12 79.5701 93.22 79.5701 93.3333C79.5701 93.4233 79.5534 93.5133 79.5201 93.5966C79.4867 93.6833 79.4401 93.7533 79.3834 93.8033C79.3267 93.8533 79.2534 93.8866 79.1701 93.8966C79.1167 93.9033 78.9901 93.91 78.7867 93.91H78.2501V91.92ZM78.5667 92.2533V92.7133H78.7767C78.9001 92.7133 78.9767 92.71 79.0067 92.7066C79.0634 92.6966 79.1034 92.6733 79.1367 92.6333C79.1667 92.5966 79.1834 92.5433 79.1834 92.48C79.1834 92.4166 79.1701 92.3666 79.1434 92.33C79.1167 92.29 79.0767 92.2666 79.0234 92.26C78.9901 92.2533 78.9001 92.2533 78.7501 92.2533H78.5667ZM78.5667 93.0433V93.5766H78.8634C78.9767 93.5766 79.0501 93.5733 79.0801 93.5633C79.1267 93.5533 79.1667 93.5266 79.1967 93.4833C79.2267 93.4433 79.2401 93.3866 79.2401 93.3166C79.2401 93.2566 79.2301 93.2033 79.2067 93.1633C79.1834 93.12 79.1501 93.09 79.1067 93.0733C79.0634 93.0533 78.9701 93.0433 78.8234 93.0433H78.5667Z" fill="#332C2B"/>
<path d="M81.2601 93.91H80.9134L80.7767 93.46H80.1467L80.0167 93.91H79.6801L80.2934 91.92H80.6301L81.2601 93.91ZM80.6767 93.1233L80.4567 92.3866L80.2434 93.1233H80.6767Z" fill="#332C2B"/>
<path d="M81.4301 93.91V91.92H82.1001C82.2701 91.92 82.3934 91.94 82.4667 91.9733C82.5434 92.01 82.6067 92.0733 82.6534 92.1666C82.6967 92.2566 82.7201 92.36 82.7201 92.48C82.7201 92.6266 82.6867 92.75 82.6167 92.85C82.5467 92.9466 82.4434 93.0066 82.3034 93.0333C82.3734 93.0833 82.4301 93.14 82.4734 93.2C82.5201 93.26 82.5801 93.3666 82.6567 93.5233L82.8501 93.91H82.4667L82.2367 93.4766C82.1567 93.3233 82.1001 93.2266 82.0701 93.1866C82.0401 93.1466 82.0067 93.1166 81.9734 93.1033C81.9401 93.0866 81.8867 93.08 81.8134 93.08H81.7501V93.91H81.4301ZM81.7501 92.7633H81.9834C82.1367 92.7633 82.2334 92.7533 82.2701 92.7366C82.3101 92.7233 82.3401 92.6933 82.3601 92.6533C82.3834 92.6133 82.3934 92.5633 82.3934 92.5066C82.3934 92.4366 82.3767 92.3833 82.3501 92.3433C82.3234 92.3 82.2834 92.2766 82.2301 92.2633C82.2034 92.26 82.1267 92.2566 81.9967 92.2566H81.7501V92.7633Z" fill="#332C2B"/>
<path d="M84.4434 93.91H84.0967L83.9601 93.46H83.3267L83.2001 93.91H82.8601L83.4734 91.92H83.8101L84.4434 93.91ZM83.8567 93.1233L83.6401 92.3866L83.4267 93.1233H83.8567Z" fill="#332C2B"/>
<path d="M84.8034 93.91V92.2566H84.3334V91.92H85.5901V92.2566H85.1201V93.91H84.8034Z" fill="#332C2B"/>
</svg>
