<svg width="109" height="108" viewBox="0 0 109 108" fill="none" xmlns="http://www.w3.org/2000/svg">
<path fill-rule="evenodd" clip-rule="evenodd" d="M16.5516 60.2457L14.5166 58.5717V49.1136L16.5516 47.5919V60.2457ZM18.7516 62.0553L16.8817 60.517V47.3447L18.7516 45.9459V62.0553ZM23.481 47.5919L25.516 49.1136V58.5717L23.481 60.2457V47.5919ZM21.281 45.9459L23.1509 47.3447V60.517L21.281 62.0553V45.9459ZM20.0163 45L20.9509 45.6994V62.3266L20.0163 63.0961L19.081 62.3266V45.6994L20.0163 45Z" fill="#009B4C"/>
<path fill-rule="evenodd" clip-rule="evenodd" d="M19.9914 48.3562C23.0137 48.3562 25.4662 50.8095 25.4662 53.831C25.4662 56.8533 23.0137 59.3066 19.9914 59.3066C16.9699 59.3066 14.5166 56.8533 14.5166 53.831C14.5166 50.8095 16.9699 48.3562 19.9914 48.3562Z" fill="#FEFEFE"/>
<path fill-rule="evenodd" clip-rule="evenodd" d="M24.7208 54.0873C24.5867 56.5805 22.5118 58.5732 19.9854 58.5732C17.459 58.5732 15.3833 56.5805 15.2499 54.0873H24.7208ZM19.9854 49.0888C22.5035 49.0888 24.5739 51.0687 24.7193 53.5521H15.2515C15.3969 51.0687 17.4673 49.0888 19.9854 49.0888Z" fill="#FEFEFE"/>
<path fill-rule="evenodd" clip-rule="evenodd" d="M24.7246 54.0873C24.5912 56.5805 22.5155 58.5732 19.9899 58.5732C17.4635 58.5732 15.3879 56.5805 15.2545 54.0873H24.7246ZM19.9899 49.0888C22.508 49.0888 24.5776 51.0687 24.7238 53.5521H15.256C15.4014 51.0687 17.4718 49.0888 19.9899 49.0888Z" fill="#00A2E9"/>
<path fill-rule="evenodd" clip-rule="evenodd" d="M24.7261 53.5521H24.9175L25.516 53.7956L24.9175 54.0873H24.7276C24.7314 54.0021 24.7344 53.9169 24.7344 53.831C24.7344 53.7375 24.7314 53.6441 24.7261 53.5521ZM14.5392 53.5521H15.2447C15.2394 53.6441 15.2364 53.7375 15.2364 53.831C15.2364 53.9169 15.2386 54.0021 15.2432 54.0873H14.5392L15.3954 53.7956L14.5392 53.5521Z" fill="#00A2E9"/>
<path fill-rule="evenodd" clip-rule="evenodd" d="M17.5412 49.7543C19.1186 50.6904 20.8408 50.6949 22.3814 49.7234L22.756 49.9729C21.2795 51.2443 18.781 51.3114 17.1357 50.046L17.5412 49.7543Z" fill="#FEFEFE"/>
<path fill-rule="evenodd" clip-rule="evenodd" d="M16.0971 51.1283C18.3868 52.662 21.4724 52.6409 23.8156 51.0544C23.9498 51.2293 24.0636 51.4041 24.1473 51.579C22.0505 53.1738 18.3393 53.3079 15.7753 51.6513C15.8702 51.4772 15.972 51.3031 16.0971 51.1283Z" fill="#FEFEFE"/>
<path fill-rule="evenodd" clip-rule="evenodd" d="M17.5412 57.9145C19.1186 56.9792 20.8408 56.9747 22.3814 57.9462L22.756 57.6959C21.2795 56.4245 18.781 56.3574 17.1357 57.6236L17.5412 57.9145Z" fill="#FEFEFE"/>
<path fill-rule="evenodd" clip-rule="evenodd" d="M16.0971 56.5345C18.3868 55 21.4724 55.0218 23.8156 56.6076C23.9498 56.4327 24.0636 56.2586 24.1473 56.0838C22.0505 54.489 18.3393 54.3548 15.7753 56.0107C15.8702 56.1855 15.972 56.3596 16.0971 56.5345Z" fill="#FEFEFE"/>
<path d="M30.7609 51.9106C31.3345 52.038 31.7369 52.1932 31.9691 52.3749C32.3015 52.6334 32.468 52.9695 32.468 53.3818C32.468 53.8159 32.2856 54.1754 31.9201 54.4603C31.4716 54.804 30.819 54.9759 29.9635 54.9759H26.893V54.8183C27.1718 54.8183 27.3618 54.7935 27.4613 54.7437C27.5607 54.694 27.6308 54.6292 27.6708 54.5493C27.7107 54.4701 27.7303 54.2742 27.7303 53.9614V50.2088C27.7303 49.8967 27.7107 49.7 27.6708 49.6186C27.6308 49.5372 27.56 49.4732 27.459 49.4249C27.358 49.3759 27.1688 49.3518 26.893 49.3518V49.1943H29.7894C30.4821 49.1943 30.972 49.2531 31.2606 49.3714C31.5485 49.489 31.7761 49.6654 31.942 49.8997C32.1085 50.1341 32.1922 50.3836 32.1922 50.6482C32.1922 50.927 32.0867 51.175 31.8756 51.3921C31.6646 51.6099 31.293 51.7825 30.7609 51.9106ZM29.139 52.1277V53.9825L29.1344 54.1958C29.1344 54.3495 29.1751 54.4649 29.2573 54.5432C29.3387 54.6216 29.46 54.6608 29.6206 54.6608C29.858 54.6608 30.0773 54.6103 30.2778 54.5093C30.4783 54.4083 30.632 54.2621 30.7391 54.0699C30.8461 53.8777 30.8996 53.6644 30.8996 53.4285C30.8996 53.158 30.834 52.916 30.7036 52.7012C30.5725 52.4864 30.3931 52.3364 30.164 52.2513C29.9356 52.1661 29.5934 52.1246 29.139 52.1277ZM29.139 51.7953C29.561 51.7953 29.8723 51.7501 30.0728 51.6589C30.2733 51.5677 30.427 51.4403 30.5341 51.2752C30.6411 51.1102 30.6946 50.8999 30.6946 50.6436C30.6946 50.3881 30.6418 50.1786 30.5363 50.0151C30.4308 49.8515 30.2801 49.7272 30.0841 49.642C29.8874 49.5568 29.5731 49.5154 29.139 49.5184V51.7953Z" fill="#332C2B"/>
<path d="M36.5862 53.3306H34.4517L34.1978 53.8928C34.1141 54.0805 34.0726 54.2357 34.0726 54.3578C34.0726 54.5199 34.1412 54.639 34.2776 54.7158C34.3575 54.7611 34.5558 54.7957 34.87 54.8183V54.9759H32.8607V54.8183C33.077 54.7867 33.2556 54.7008 33.3951 54.5606C33.5345 54.4196 33.7071 54.1287 33.9121 53.6886L36.0737 49.0752H36.1581L38.3378 53.8159C38.5458 54.2651 38.7161 54.5478 38.8503 54.6646C38.9513 54.7528 39.0937 54.804 39.2776 54.8183V54.9759H36.3541V54.8183H36.4747C36.7098 54.8183 36.8741 54.7867 36.9691 54.7249C37.0346 54.6789 37.0678 54.6133 37.0678 54.5282C37.0678 54.4769 37.0588 54.4249 37.0407 54.3706C37.0346 54.345 36.9902 54.2388 36.9073 54.0511L36.5862 53.3306ZM36.4347 53.0148L35.5348 51.0235L34.6078 53.0148H36.4347Z" fill="#332C2B"/>
<path d="M41.6533 49.1943L44.6349 52.7804V50.2939C44.6349 49.9472 44.5829 49.7128 44.4789 49.5907C44.3364 49.4264 44.0975 49.3465 43.7613 49.3518V49.1943H45.7579V49.3518C45.5024 49.3835 45.3313 49.4234 45.2431 49.4739C45.1557 49.5237 45.0871 49.6043 45.0381 49.7166C44.9891 49.8289 44.965 50.0218 44.965 50.2939V55.1085H44.8135L40.7262 50.2939V53.9697C40.7262 54.3021 40.8061 54.5267 40.9651 54.6435C41.1242 54.7603 41.3058 54.8183 41.5108 54.8183H41.6533V54.9759H39.5098V54.8183C39.8421 54.8153 40.0743 54.7498 40.2047 54.6216C40.3358 54.4943 40.4014 54.2764 40.4014 53.9697V49.8892L40.2718 49.7354C40.1444 49.5824 40.0313 49.4815 39.9333 49.4332C39.8354 49.385 39.6937 49.3578 39.5098 49.3518V49.1943H41.6533Z" fill="#332C2B"/>
<path d="M49.7735 51.4071L51.8997 53.9523C52.1997 54.3111 52.4582 54.5538 52.6745 54.6819C52.8328 54.7724 52.9986 54.8183 53.1742 54.8183V54.9759H50.0275V54.8183C50.2265 54.801 50.3554 54.7716 50.4134 54.7287C50.4715 54.6864 50.5001 54.6337 50.5001 54.5711C50.5001 54.4513 50.3637 54.2274 50.0901 53.8973L48.7041 52.2302L48.481 52.4095V53.987C48.481 54.2885 48.499 54.4754 48.5345 54.5493C48.5699 54.6239 48.6385 54.6864 48.7395 54.7392C48.8405 54.792 49.0025 54.8183 49.2256 54.8183V54.9759H46.1769V54.8183H46.3774C46.553 54.8183 46.694 54.7882 46.801 54.7287C46.8779 54.6887 46.9374 54.6209 46.9789 54.5244C47.012 54.4558 47.0278 54.2764 47.0278 53.987V50.1831C47.0278 49.8877 47.012 49.703 46.9789 49.6292C46.9464 49.5553 46.8801 49.4905 46.7806 49.4355C46.6811 49.3797 46.547 49.3518 46.3774 49.3518H46.1769V49.1943H49.1849V49.3518C48.9799 49.3518 48.8239 49.3805 48.7176 49.4377C48.64 49.4769 48.5789 49.544 48.5345 49.6382C48.499 49.7091 48.481 49.8907 48.481 50.1831V51.983L50.7224 50.2472C51.0352 50.006 51.1912 49.8123 51.1912 49.6676C51.1912 49.5591 51.1272 49.4739 50.999 49.4121C50.9335 49.3805 50.7714 49.3609 50.5137 49.3518V49.1943H52.8712V49.3518C52.6602 49.3661 52.4944 49.4023 52.3738 49.4611C52.2539 49.5191 51.9766 49.7158 51.5432 50.0512L49.7735 51.4071Z" fill="#332C2B"/>
<path d="M59.1547 51.4071L61.2809 53.9523C61.5809 54.3111 61.8394 54.5538 62.0565 54.6819C62.214 54.7724 62.3798 54.8183 62.5554 54.8183V54.9759H59.4087V54.8183C59.6085 54.801 59.7366 54.7716 59.7946 54.7287C59.8527 54.6864 59.8813 54.6337 59.8813 54.5711C59.8813 54.4513 59.7449 54.2274 59.4713 53.8973L58.0853 52.2302L57.8629 52.4095V53.987C57.8629 54.2885 57.8803 54.4754 57.9164 54.5493C57.9519 54.6239 58.0197 54.6864 58.1207 54.7392C58.2217 54.792 58.3837 54.8183 58.6068 54.8183V54.9759H55.5581V54.8183H55.7586C55.9342 54.8183 56.0752 54.7882 56.1822 54.7287C56.2598 54.6887 56.3186 54.6209 56.3608 54.5244C56.3932 54.4558 56.4098 54.2764 56.4098 53.987V50.1831C56.4098 49.8877 56.3932 49.703 56.3608 49.6292C56.3276 49.5553 56.2621 49.4905 56.1626 49.4355C56.0631 49.3797 55.9282 49.3518 55.7586 49.3518H55.5581V49.1943H58.5669V49.3518C58.3619 49.3518 58.2058 49.3805 58.0988 49.4377C58.0212 49.4769 57.9601 49.544 57.9164 49.6382C57.8803 49.7091 57.8629 49.8907 57.8629 50.1831V51.983L60.1044 50.2472C60.4164 50.006 60.5724 49.8123 60.5724 49.6676C60.5724 49.5591 60.5084 49.4739 60.3802 49.4121C60.3154 49.3805 60.1534 49.3609 59.8949 49.3518V49.1943H62.2524V49.3518C62.0414 49.3661 61.8756 49.4023 61.7557 49.4611C61.6351 49.5191 61.3578 49.7158 60.9244 50.0512L59.1547 51.4071Z" fill="#332C2B"/>
<path d="M66.25 53.3306H64.1155L63.8608 53.8928C63.7779 54.0805 63.7364 54.2357 63.7364 54.3578C63.7364 54.5199 63.805 54.639 63.9414 54.7158C64.0213 54.7611 64.2195 54.7957 64.5346 54.8183V54.9759H62.5245V54.8183C62.7408 54.7867 62.9194 54.7008 63.0589 54.5606C63.1991 54.4196 63.3709 54.1287 63.5759 53.6886L65.7375 49.0752H65.8227L68.0016 53.8159C68.2096 54.2651 68.3807 54.5478 68.5141 54.6646C68.6151 54.7528 68.7575 54.804 68.9422 54.8183V54.9759H66.0179V54.8183H66.1384C66.3736 54.8183 66.5379 54.7867 66.6336 54.7249C66.6984 54.6789 66.7316 54.6133 66.7316 54.5282C66.7316 54.4769 66.7226 54.4249 66.7045 54.3706C66.6984 54.345 66.654 54.2388 66.5711 54.0511L66.25 53.3306ZM66.0985 53.0148L65.1986 51.0235L64.2716 53.0148H66.0985Z" fill="#332C2B"/>
<path d="M74.8067 52.9462L74.5798 54.9759H69.2135V54.8183H69.414C69.5896 54.8183 69.7305 54.7882 69.8376 54.7287C69.9152 54.6887 69.9747 54.6209 70.0162 54.5244C70.0486 54.4558 70.0652 54.2764 70.0652 53.987V50.1831C70.0652 49.8877 70.0486 49.703 70.0162 49.6292C69.983 49.5553 69.9175 49.4905 69.8172 49.4355C69.7177 49.3797 69.5836 49.3518 69.414 49.3518H69.2135V49.1943H72.4363V49.3518H72.1733C71.9976 49.3518 71.8567 49.382 71.7497 49.4415C71.6721 49.4815 71.6118 49.5493 71.5665 49.6465C71.5341 49.7143 71.5175 49.8937 71.5175 50.1831V53.8672C71.5175 54.1634 71.5356 54.3518 71.5711 54.4325C71.6072 54.5131 71.6766 54.5741 71.7806 54.6133C71.8552 54.639 72.0346 54.6518 72.3202 54.6518H72.8237C73.1448 54.6518 73.4123 54.5983 73.6256 54.4897C73.8397 54.382 74.0251 54.2116 74.1811 53.978C74.3371 53.7451 74.4841 53.4014 74.6243 52.9462H74.8067Z" fill="#332C2B"/>
<path d="M79.1924 51.9106C79.7659 52.038 80.1684 52.1932 80.3998 52.3749C80.7329 52.6334 80.8995 52.9695 80.8995 53.3818C80.8995 53.8159 80.7163 54.1754 80.3508 54.4603C79.9024 54.804 79.2504 54.9759 78.3942 54.9759H75.3237V54.8183C75.6033 54.8183 75.7925 54.7935 75.892 54.7437C75.9915 54.694 76.0615 54.6292 76.1015 54.5493C76.1414 54.4701 76.1618 54.2742 76.1618 53.9614V50.2088C76.1618 49.8967 76.1414 49.7 76.1015 49.6186C76.0615 49.5372 75.9907 49.4732 75.8897 49.4249C75.7887 49.3759 75.6003 49.3518 75.3237 49.3518V49.1943H78.2209C78.9128 49.1943 79.4034 49.2531 79.6913 49.3714C79.98 49.489 80.2069 49.6654 80.3734 49.8997C80.54 50.1341 80.6229 50.3836 80.6229 50.6482C80.6229 50.927 80.5174 51.175 80.3063 51.3921C80.0953 51.6099 79.7237 51.7825 79.1924 51.9106ZM77.5697 52.1277V53.9825L77.5659 54.1958C77.5659 54.3495 77.6059 54.4649 77.688 54.5432C77.7702 54.6216 77.8908 54.6608 78.0513 54.6608C78.2895 54.6608 78.508 54.6103 78.7085 54.5093C78.9098 54.4083 79.0628 54.2621 79.1698 54.0699C79.2768 53.8777 79.3303 53.6644 79.3303 53.4285C79.3303 53.158 79.2647 52.916 79.1343 52.7012C79.004 52.4864 78.8238 52.3364 78.5947 52.2513C78.3663 52.1661 78.0249 52.1246 77.5697 52.1277ZM77.5697 51.7953C77.9918 51.7953 78.303 51.7501 78.5035 51.6589C78.704 51.5677 78.8577 51.4403 78.9648 51.2752C79.0718 51.1102 79.1253 50.8999 79.1253 50.6436C79.1253 50.3881 79.0726 50.1786 78.967 50.0151C78.8615 49.8515 78.7108 49.7272 78.5148 49.642C78.3189 49.5568 78.0038 49.5154 77.5697 49.5184V51.7953Z" fill="#332C2B"/>
<path d="M85.0169 53.3306H82.8825L82.6285 53.8928C82.5456 54.0805 82.5033 54.2357 82.5033 54.3578C82.5033 54.5199 82.5719 54.639 82.7084 54.7158C82.789 54.7611 82.9865 54.7957 83.3015 54.8183V54.9759H81.2914V54.8183C81.5085 54.7867 81.6864 54.7008 81.8265 54.5606C81.966 54.4196 82.1378 54.1287 82.3436 53.6886L84.5044 49.0752H84.5896L86.7685 53.8159C86.9773 54.2651 87.1476 54.5478 87.281 54.6646C87.382 54.7528 87.5252 54.804 87.7091 54.8183V54.9759H84.7855V54.8183H84.9061C85.1405 54.8183 85.3056 54.7867 85.4005 54.7249C85.4661 54.6789 85.4985 54.6133 85.4985 54.5282C85.4985 54.4769 85.4902 54.4249 85.4721 54.3706C85.4661 54.345 85.4216 54.2388 85.3387 54.0511L85.0169 53.3306ZM84.8654 53.0148L83.9655 51.0235L83.0385 53.0148H84.8654Z" fill="#332C2B"/>
<path d="M90.2362 52.341V53.9614C90.2362 54.2742 90.2566 54.4709 90.2965 54.5515C90.3365 54.6329 90.4073 54.6977 90.5083 54.746C90.6085 54.7942 90.7977 54.8183 91.0743 54.8183V54.9759H87.9812V54.8183C88.26 54.8183 88.45 54.7935 88.5495 54.7437C88.6489 54.694 88.719 54.6292 88.7582 54.5493C88.7989 54.4701 88.8185 54.2742 88.8185 53.9614V50.2088C88.8185 49.8967 88.7989 49.7 88.7582 49.6186C88.719 49.5372 88.6474 49.4732 88.5472 49.4249C88.4462 49.3759 88.257 49.3518 87.9812 49.3518V49.1943H90.7887C91.5198 49.1943 92.0541 49.2425 92.3933 49.339C92.7317 49.4362 93.0083 49.6141 93.2224 49.8741C93.4364 50.1341 93.5434 50.4394 93.5434 50.7891C93.5434 51.2149 93.3821 51.5677 93.0618 51.8465C92.8568 52.0229 92.5697 52.1548 92.2019 52.243L93.6542 54.1996C93.8449 54.4536 93.9798 54.6111 94.0605 54.6729C94.1818 54.7611 94.3227 54.81 94.4833 54.8183V54.9759H92.5802L90.6327 52.341H90.2362ZM90.2362 49.5056V52.038H90.4902C90.9032 52.038 91.2123 52.0018 91.4173 51.9294C91.6223 51.8571 91.7836 51.7259 91.9004 51.5375C92.018 51.3483 92.0767 51.1019 92.0767 50.7974C92.0767 50.3572 91.969 50.0316 91.7534 49.8206C91.5386 49.6111 91.1912 49.5056 90.7133 49.5056H90.2362Z" fill="#332C2B"/>
<path d="M27.517 58.9847V56.8382H28.068C28.2767 56.8382 28.4132 56.8488 28.4765 56.8706C28.5737 56.9031 28.6551 56.9724 28.7214 57.0809C28.787 57.1887 28.8202 57.3274 28.8202 57.4985C28.8202 57.6304 28.8006 57.7412 28.7629 57.8308C28.7252 57.9205 28.677 57.9914 28.6182 58.0419C28.5601 58.0931 28.5006 58.1278 28.4403 58.1444C28.3589 58.1647 28.2398 58.1745 28.0846 58.1745H27.8607V58.9847H27.517ZM27.8607 57.2015V57.8105H28.0484C28.184 57.8105 28.2745 57.7992 28.3197 57.7766C28.3657 57.754 28.4011 57.7185 28.4275 57.6711C28.4531 57.6236 28.4659 57.5678 28.4659 57.5045C28.4659 57.4261 28.4478 57.362 28.4117 57.3108C28.3755 57.2603 28.3288 57.2286 28.2737 57.2158C28.2323 57.206 28.1501 57.2015 28.0265 57.2015H27.8607Z" fill="#332C2B"/>
<path d="M29.4849 58.9847V57.2015H28.9799V56.8382H30.3313V57.2015H29.8278V58.9847H29.4849Z" fill="#332C2B"/>
<path d="M30.2876 58.9847V58.5732H30.6132V58.9847H30.2876Z" fill="#332C2B"/>
<path d="M31.6111 56.8382H32.2909C32.4251 56.8382 32.5253 56.845 32.5916 56.8593C32.658 56.8737 32.7175 56.9031 32.7695 56.9483C32.8215 56.9927 32.8652 57.053 32.8999 57.1277C32.9346 57.2023 32.9519 57.2859 32.9519 57.3786C32.9519 57.4789 32.9308 57.5716 32.8878 57.6552C32.8449 57.7389 32.7868 57.8022 32.713 57.8444C32.817 57.8821 32.8961 57.9469 32.9519 58.0389C33.0077 58.1308 33.0356 58.2378 33.0356 58.3622C33.0356 58.4602 33.0175 58.5551 32.9813 58.6471C32.9459 58.739 32.8969 58.8129 32.8343 58.8679C32.7718 58.9229 32.6949 58.9569 32.6037 58.9697C32.5472 58.9772 32.4085 58.9825 32.1899 58.9847H31.6111V56.8382ZM31.954 57.1955V57.6914H32.1794C32.3135 57.6914 32.3964 57.6892 32.4288 57.6846C32.4876 57.6756 32.5336 57.65 32.5675 57.607C32.6007 57.5655 32.618 57.509 32.618 57.4397C32.618 57.3734 32.6037 57.3198 32.5743 57.2784C32.5457 57.2369 32.5027 57.2113 32.4447 57.203C32.4107 57.1977 32.3135 57.1955 32.1515 57.1955H31.954ZM31.954 58.0487V58.623H32.2721C32.3957 58.623 32.4748 58.6185 32.508 58.6102C32.5585 58.5981 32.6007 58.5695 32.6323 58.5242C32.6647 58.479 32.6806 58.418 32.6806 58.3418C32.6806 58.277 32.6685 58.2228 32.6436 58.1775C32.6188 58.1331 32.5826 58.0999 32.5359 58.0796C32.4891 58.0592 32.3881 58.0487 32.2314 58.0487H31.954Z" fill="#332C2B"/>
<path d="M34.8595 58.9847H34.4857L34.3372 58.4971H33.6574L33.5172 58.9847H33.1531L33.8149 56.8382H34.1782L34.8595 58.9847ZM34.2271 58.1353L33.9927 57.3394L33.7629 58.1353H34.2271Z" fill="#332C2B"/>
<path d="M35.0449 58.9847V56.8382H35.3788L36.0752 58.271V56.8382H36.394V58.9847H36.0496L35.3637 57.5851V58.9847H35.0449Z" fill="#332C2B"/>
<path d="M36.7618 58.9847V56.8382H37.1047V57.7917L37.7989 56.8382H38.2601L37.6203 57.6741L38.2956 58.9847H37.8509L37.3836 57.9771L37.1047 58.3358V58.9847H36.7618Z" fill="#332C2B"/>
<path d="M39.1329 58.9847V56.8382H39.6839C39.8926 56.8382 40.0291 56.8488 40.0924 56.8706C40.1896 56.9031 40.271 56.9724 40.3373 57.0809C40.4029 57.1887 40.4353 57.3274 40.4353 57.4985C40.4353 57.6304 40.4165 57.7412 40.3788 57.8308C40.3411 57.9205 40.2929 57.9914 40.2341 58.0419C40.176 58.0931 40.1165 58.1278 40.0562 58.1444C39.974 58.1647 39.8557 58.1745 39.7005 58.1745H39.4766V58.9847H39.1329ZM39.4766 57.2015V57.8105H39.6643C39.7992 57.8105 39.8896 57.7992 39.9356 57.7766C39.9808 57.754 40.017 57.7185 40.0426 57.6711C40.069 57.6236 40.0818 57.5678 40.0818 57.5045C40.0818 57.4261 40.0637 57.362 40.0276 57.3108C39.9906 57.2603 39.9446 57.2286 39.8889 57.2158C39.8482 57.206 39.766 57.2015 39.6424 57.2015H39.4766Z" fill="#332C2B"/>
<path d="M40.7172 58.9847V56.8382H41.9781V57.2015H41.0609V57.6771H41.9148V58.0389H41.0609V58.623H42.0113V58.9847H40.7172Z" fill="#332C2B"/>
<path d="M42.2977 58.9847V56.8382H42.8117L43.12 58.3019L43.4252 56.8382H43.94V58.9847H43.6212V57.295L43.2835 58.9847H42.9534L42.6165 57.295V58.9847H42.2977Z" fill="#332C2B"/>
<path d="M44.2821 56.8382H44.962C45.0969 56.8382 45.1971 56.845 45.2635 56.8593C45.329 56.8737 45.3886 56.9031 45.4406 56.9483C45.4926 56.9927 45.5363 57.053 45.571 57.1277C45.6064 57.2023 45.6237 57.2859 45.6237 57.3786C45.6237 57.4789 45.6019 57.5716 45.5589 57.6552C45.5159 57.7389 45.4579 57.8022 45.3848 57.8444C45.4881 57.8821 45.5679 57.9469 45.6237 58.0389C45.6787 58.1308 45.7066 58.2378 45.7066 58.3622C45.7066 58.4602 45.6885 58.5551 45.6531 58.6471C45.6169 58.739 45.5679 58.8129 45.5054 58.8679C45.4436 58.9229 45.3667 58.9569 45.2755 58.9697C45.2182 58.9772 45.0803 58.9825 44.861 58.9847H44.2821V56.8382ZM44.6258 57.1955V57.6914H44.8504C44.9846 57.6914 45.0675 57.6892 45.0999 57.6846C45.1587 57.6756 45.2054 57.65 45.2386 57.607C45.2725 57.5655 45.2891 57.509 45.2891 57.4397C45.2891 57.3734 45.2748 57.3198 45.2461 57.2784C45.2167 57.2369 45.1738 57.2113 45.1165 57.203C45.0826 57.1977 44.9846 57.1955 44.8225 57.1955H44.6258ZM44.6258 58.0487V58.623H44.9439C45.0675 58.623 45.1459 58.6185 45.179 58.6102C45.2303 58.5981 45.2717 58.5695 45.3041 58.5242C45.3358 58.479 45.3516 58.418 45.3516 58.3418C45.3516 58.277 45.3396 58.2228 45.3147 58.1775C45.2898 58.1331 45.2544 58.0999 45.2077 58.0796C45.1609 58.0592 45.0592 58.0487 44.9032 58.0487H44.6258Z" fill="#332C2B"/>
<path d="M47.5306 58.9847H47.1567L47.0082 58.4971H46.3284L46.1882 58.9847H45.8242L46.4867 56.8382H46.85L47.5306 58.9847ZM46.8982 58.1353L46.6638 57.3394L46.4339 58.1353H46.8982Z" fill="#332C2B"/>
<path d="M47.716 58.9847V56.8382H48.0506L48.7463 58.271V56.8382H49.0651V58.9847H48.7206L48.0348 57.5851V58.9847H47.716Z" fill="#332C2B"/>
<path d="M50.2197 58.1956V57.8339H50.9599V58.6885C50.8875 58.7767 50.7835 58.8536 50.6471 58.9207C50.5107 58.9878 50.372 59.0209 50.2325 59.0209C50.0547 59.0209 49.8994 58.9734 49.7668 58.88C49.6349 58.7858 49.5354 58.6509 49.4691 58.476C49.4027 58.3004 49.3696 58.1097 49.3696 57.904C49.3696 57.6801 49.4065 57.4819 49.4804 57.3078C49.555 57.1344 49.6635 57.001 49.8067 56.9083C49.9152 56.8375 50.0517 56.8021 50.2137 56.8021C50.4247 56.8021 50.5898 56.8578 50.7089 56.9694C50.8272 57.0809 50.9033 57.2354 50.938 57.4321L50.5966 57.5128C50.5725 57.408 50.5272 57.3244 50.4617 57.2633C50.3953 57.2023 50.3124 57.1721 50.2137 57.1721C50.0637 57.1721 49.9446 57.2324 49.8557 57.3523C49.7675 57.4721 49.723 57.65 49.723 57.8866C49.723 58.1414 49.7675 58.3321 49.858 58.4594C49.9476 58.5868 50.0652 58.6509 50.2099 58.6509C50.2823 58.6509 50.3546 58.6328 50.427 58.5974C50.4993 58.5612 50.5612 58.5182 50.6132 58.4677V58.1956H50.2197Z" fill="#332C2B"/>
<path d="M51.2741 56.8382H51.6171V58.0004C51.6171 58.1851 51.6216 58.3049 51.6299 58.3592C51.645 58.4466 51.6796 58.5175 51.7354 58.571C51.7904 58.6237 51.8658 58.6509 51.9623 58.6509C52.0595 58.6509 52.1326 58.6252 52.1823 58.5747C52.2321 58.525 52.2615 58.4632 52.272 58.3901C52.2818 58.317 52.2871 58.1956 52.2871 58.0253V56.8382H52.63V57.9658C52.63 58.2228 52.621 58.4052 52.6021 58.5114C52.5841 58.6177 52.5494 58.7074 52.4996 58.7813C52.4499 58.8544 52.3828 58.9124 52.2999 58.9554C52.2163 58.9991 52.107 59.0209 51.9721 59.0209C51.81 59.0209 51.6872 58.9976 51.6028 58.9501C51.5191 58.9026 51.4528 58.8415 51.4038 58.7654C51.3555 58.6901 51.3231 58.6102 51.3073 58.5273C51.2854 58.4044 51.2741 58.2228 51.2741 57.9831V56.8382Z" fill="#332C2B"/>
<path d="M52.9956 58.9847V56.8382H53.3295L54.0259 58.271V56.8382H54.3447V58.9847H54.0002L53.3144 57.5851V58.9847H52.9956Z" fill="#332C2B"/>
<path d="M56.2417 58.9847H55.8679L55.7194 58.4971H55.0396L54.8994 58.9847H54.5354L55.1979 56.8382H55.5604L56.2417 58.9847ZM55.6094 58.1353L55.375 57.3394L55.1451 58.1353H55.6094Z" fill="#332C2B"/>
<path d="M56.4271 58.9847V56.8382H56.761L57.4574 58.271V56.8382H57.7762V58.9847H57.4318L56.7459 57.5851V58.9847H56.4271Z" fill="#332C2B"/>
<path d="M58.7982 56.8382H59.4261C59.5678 56.8382 59.6755 56.8518 59.7494 56.8797C59.8489 56.9166 59.9348 56.9822 60.0057 57.0772C60.0773 57.1714 60.1315 57.2874 60.1685 57.4246C60.2054 57.5618 60.2242 57.7306 60.2242 57.9318C60.2242 58.1082 60.2069 58.2604 60.1715 58.3886C60.1293 58.5446 60.0682 58.6712 59.9898 58.7677C59.9303 58.8408 59.8496 58.8981 59.7479 58.9388C59.6725 58.9689 59.5715 58.9847 59.4442 58.9847H58.7982V56.8382ZM59.1419 57.2015V58.623H59.3982C59.4939 58.623 59.5632 58.6162 59.6054 58.6026C59.6612 58.5845 59.7072 58.5551 59.7441 58.5129C59.7811 58.4707 59.8112 58.4021 59.8346 58.3057C59.8572 58.21 59.8692 58.0788 59.8692 57.913C59.8692 57.7472 59.8572 57.6198 59.8346 57.5309C59.8112 57.4419 59.7788 57.3726 59.7366 57.3229C59.6951 57.2731 59.6424 57.2392 59.5776 57.2219C59.5301 57.2083 59.4359 57.2015 59.2957 57.2015H59.1419Z" fill="#332C2B"/>
<path d="M62.0489 58.9847H61.6751L61.5266 58.4971H60.8468L60.7066 58.9847H60.3426L61.0051 56.8382H61.3676L62.0489 58.9847ZM61.4166 58.1353L61.1822 57.3394L60.9523 58.1353H61.4166Z" fill="#332C2B"/>
<path d="M62.2306 58.9847V56.8382H63.4915V57.2015H62.5742V57.6771H63.4282V58.0389H62.5742V58.623H63.5246V58.9847H62.2306Z" fill="#332C2B"/>
<path d="M63.8163 58.9847V56.8382H64.5391C64.7215 56.8382 64.8534 56.8578 64.9356 56.8963C65.0177 56.9347 65.084 57.0033 65.133 57.102C65.1828 57.2 65.2076 57.3131 65.2076 57.4397C65.2076 57.601 65.17 57.7336 65.0953 57.8391C65.02 57.9439 64.9077 58.0102 64.7584 58.0374C64.8331 58.0916 64.8941 58.1519 64.9423 58.2175C64.9906 58.2831 65.0561 58.3991 65.1383 58.5657L65.3456 58.9847H64.9348L64.6868 58.5175C64.5987 58.3501 64.5384 58.2454 64.506 58.2017C64.4735 58.1587 64.4389 58.1286 64.4027 58.1127C64.3665 58.0961 64.3085 58.0886 64.2301 58.0886H64.16V58.9847H63.8163ZM64.16 57.7457H64.414C64.5791 57.7457 64.6816 57.7374 64.7223 57.7193C64.7637 57.702 64.7961 57.6718 64.8187 57.6289C64.8421 57.5859 64.8542 57.5324 64.8542 57.4676C64.8542 57.3952 64.8383 57.3372 64.8082 57.2927C64.7773 57.2482 64.7343 57.2204 64.6785 57.2083C64.6507 57.2038 64.567 57.2015 64.4283 57.2015H64.16V57.7457Z" fill="#332C2B"/>
<path d="M67.0647 58.9847H66.6917L66.5424 58.4971H65.8634L65.7224 58.9847H65.3584L66.0209 56.8382H66.3842L67.0647 58.9847ZM66.4324 58.1353L66.198 57.3394L65.9689 58.1353H66.4324Z" fill="#332C2B"/>
<path d="M67.2479 58.9847V56.8382H67.5916V57.6831H68.2646V56.8382H68.6075V58.9847H68.2646V58.0464H67.5916V58.9847H67.2479Z" fill="#332C2B"/>
<path d="M69.6273 58.9847V56.8382H69.971V57.7917L70.6644 56.8382H71.1264L70.4857 57.6741L71.161 58.9847H70.7164L70.2491 57.9771L69.971 58.3358V58.9847H69.6273Z" fill="#332C2B"/>
<path d="M72.8719 58.9847H72.4989L72.3504 58.4971H71.6705L71.5296 58.9847H71.1656L71.8281 56.8382H72.1913L72.8719 58.9847ZM72.2396 58.1353L72.0059 57.3394L71.7761 58.1353H72.2396Z" fill="#332C2B"/>
<path d="M73.0634 58.9847V56.8556H73.407V58.623H74.261V58.9847H73.0634Z" fill="#332C2B"/>
<path d="M74.4954 58.9847V56.8382H74.8383V58.9847H74.4954Z" fill="#332C2B"/>
<path d="M75.1609 58.9847V56.8382H75.6749L75.9832 58.3019L76.2884 56.8382H76.8039V58.9847H76.4844V57.295L76.1467 58.9847H75.8166L75.4797 57.295V58.9847H75.1609Z" fill="#332C2B"/>
<path d="M78.6784 58.9847H78.3045L78.1561 58.4971H77.4762L77.336 58.9847H76.972L77.6338 56.8382H77.997L78.6784 58.9847ZM78.046 58.1353L77.8116 57.3394L77.5817 58.1353H78.046Z" fill="#332C2B"/>
<path d="M78.8638 58.9847V56.8382H79.1984L79.8941 58.271V56.8382H80.2129V58.9847H79.8684L79.1826 57.5851V58.9847H78.8638Z" fill="#332C2B"/>
<path d="M80.959 58.9847V57.2015H80.4548V56.8382H81.8054V57.2015H81.3027V58.9847H80.959Z" fill="#332C2B"/>
<path d="M83.3852 58.9847H83.0113L82.8629 58.4971H82.183L82.0429 58.9847H81.6781L82.3406 56.8382H82.7038L83.3852 58.9847ZM82.7528 58.1353L82.5177 57.3394L82.2886 58.1353H82.7528Z" fill="#332C2B"/>
<path d="M83.5706 58.9847V56.8382H83.9045L84.6001 58.271V56.8382H84.9197V58.9847H84.5753L83.8894 57.5851V58.9847H83.5706Z" fill="#332C2B"/>
<path d="M85.944 56.8382H86.6238C86.7579 56.8382 86.8582 56.845 86.9245 56.8593C86.9908 56.8737 87.0504 56.9031 87.1024 56.9483C87.1544 56.9927 87.1981 57.053 87.2328 57.1277C87.2674 57.2023 87.2848 57.2859 87.2848 57.3786C87.2848 57.4789 87.2637 57.5716 87.2207 57.6552C87.1778 57.7389 87.1197 57.8022 87.0459 57.8444C87.1499 57.8821 87.229 57.9469 87.2848 58.0389C87.3405 58.1308 87.3684 58.2378 87.3684 58.3622C87.3684 58.4602 87.3511 58.5551 87.3142 58.6471C87.2787 58.739 87.229 58.8129 87.1672 58.8679C87.1046 58.9229 87.0285 58.9569 86.9366 58.9697C86.88 58.9772 86.7414 58.9825 86.5228 58.9847H85.944V56.8382ZM86.2876 57.1955V57.6914H86.5122C86.6464 57.6914 86.7293 57.6892 86.7617 57.6846C86.8205 57.6756 86.8665 57.65 86.9004 57.607C86.9343 57.5655 86.9509 57.509 86.9509 57.4397C86.9509 57.3734 86.9366 57.3198 86.9072 57.2784C86.8785 57.2369 86.8356 57.2113 86.7783 57.203C86.7436 57.1977 86.6464 57.1955 86.4844 57.1955H86.2876ZM86.2876 58.0487V58.623H86.6057C86.7285 58.623 86.8069 58.6185 86.8408 58.6102C86.8913 58.5981 86.9328 58.5695 86.9652 58.5242C86.9976 58.479 87.0134 58.418 87.0134 58.3418C87.0134 58.277 87.0014 58.2228 86.9758 58.1775C86.9516 58.1331 86.9162 58.0999 86.8695 58.0796C86.822 58.0592 86.7203 58.0487 86.565 58.0487H86.2876Z" fill="#332C2B"/>
<path d="M89.1924 58.9847H88.8185L88.6701 58.4971H87.9902L87.85 58.9847H87.4853L88.1477 56.8382H88.511L89.1924 58.9847ZM88.56 58.1353L88.3256 57.3394L88.0957 58.1353H88.56Z" fill="#332C2B"/>
<path d="M89.3755 58.9847V56.8382H90.0983C90.2799 56.8382 90.4118 56.8578 90.494 56.8963C90.5761 56.9347 90.6425 57.0033 90.6922 57.102C90.742 57.2 90.7661 57.3131 90.7661 57.4397C90.7661 57.601 90.7284 57.7336 90.6538 57.8391C90.5792 57.9439 90.4669 58.0102 90.3176 58.0374C90.3915 58.0916 90.4525 58.1519 90.5008 58.2175C90.549 58.2831 90.6146 58.3991 90.6967 58.5657L90.9048 58.9847H90.494L90.2453 58.5175C90.1571 58.3501 90.0968 58.2454 90.0644 58.2017C90.032 58.1587 89.9973 58.1286 89.9611 58.1127C89.925 58.0961 89.8677 58.0886 89.7885 58.0886H89.7192V58.9847H89.3755ZM89.7192 57.7457H89.9724C90.1375 57.7457 90.2407 57.7374 90.2814 57.7193C90.3221 57.702 90.3546 57.6718 90.3779 57.6289C90.4013 57.5859 90.4126 57.5324 90.4126 57.4676C90.4126 57.3952 90.3975 57.3372 90.3666 57.2927C90.3365 57.2482 90.2935 57.2204 90.2377 57.2083C90.2091 57.2038 90.1262 57.2015 89.9868 57.2015H89.7192V57.7457Z" fill="#332C2B"/>
<path d="M92.6239 58.9847H92.2501L92.1016 58.4971H91.4218L91.2816 58.9847H90.9168L91.5793 56.8382H91.9426L92.6239 58.9847ZM91.9908 58.1353L91.7572 57.3394L91.5273 58.1353H91.9908Z" fill="#332C2B"/>
<path d="M93.0121 58.9847V57.2015H92.5079V56.8382H93.8592V57.2015H93.3558V58.9847H93.0121Z" fill="#332C2B"/>
</svg>
