<svg width="109" height="108" viewBox="0 0 109 108" fill="none" xmlns="http://www.w3.org/2000/svg">
<path fill-rule="evenodd" clip-rule="evenodd" d="M15.7614 55.6874C15.7614 55.8428 15.7893 55.9973 15.8165 56.1387C16.0526 57.0001 16.7594 57.5927 17.6464 57.5927C18.9217 57.5927 19.6845 56.534 19.6845 54.9674C19.6845 53.5981 18.9909 52.4261 17.6883 52.4261C16.8565 52.4261 16.0798 53.0047 15.8305 53.9507C15.8033 54.0921 15.7614 54.2614 15.7614 54.4587V55.6874ZM14.5551 48.4028H15.7614V52.6948H15.7893C16.2188 51.9321 16.9948 51.4381 18.0759 51.4381C19.7396 51.4381 20.9179 52.8494 20.9039 54.9247C20.9039 57.3667 19.3932 58.5806 17.8957 58.5806C16.9256 58.5806 16.1497 58.2001 15.6503 57.2968H15.6091L15.5532 58.4261H14.5C14.528 57.9601 14.5551 57.268 14.5551 56.6614V48.4028Z" fill="#D2272C"/>
<path fill-rule="evenodd" clip-rule="evenodd" d="M25.9773 54.9387C24.6468 54.9107 23.1353 55.1507 23.1353 56.4781C23.1353 57.282 23.6619 57.6634 24.2856 57.6634C25.1594 57.6634 25.714 57.0987 25.9082 56.5201C25.9493 56.3927 25.9773 56.2521 25.9773 56.1247V54.9387ZM27.1555 56.788C27.1555 57.3814 27.1827 57.9601 27.2658 58.4261H26.1575L26.0604 57.5647H26.0184C25.6441 58.1014 24.9241 58.5806 23.9672 58.5806C22.6087 58.5806 21.9159 57.6067 21.9159 56.6187C21.9159 54.9674 23.3575 54.0641 25.9493 54.0781V53.9368C25.9493 53.3721 25.7971 52.3554 24.4247 52.3554C23.801 52.3554 23.1493 52.5535 22.6779 52.8641L22.4006 52.0455C22.9551 51.6781 23.759 51.4381 24.6049 51.4381C26.6561 51.4381 27.1555 52.8641 27.1555 54.2335V56.788Z" fill="#D2272C"/>
<path fill-rule="evenodd" clip-rule="evenodd" d="M29.1237 53.4428C29.1237 52.7368 29.1097 52.1581 29.0685 51.5935H30.1497L30.2188 52.7228H30.2468C30.5792 52.0735 31.3551 51.4381 32.4643 51.4381C33.3932 51.4381 34.8348 52.0028 34.8348 54.3461V58.4261H33.6146V54.4874C33.6146 53.3861 33.213 52.4688 32.0619 52.4688C31.2581 52.4688 30.6344 53.0474 30.4262 53.7395C30.3711 53.8948 30.3431 54.1061 30.3431 54.3181V58.4261H29.1237V53.4428Z" fill="#D2272C"/>
<path fill-rule="evenodd" clip-rule="evenodd" d="M38.0223 54.7274H38.0503C38.2165 54.4874 38.4518 54.1907 38.6468 53.9507L40.615 51.5935H42.0837L39.4918 54.4028L42.4441 58.4261H40.9614L38.6468 55.1507L38.0223 55.8568V58.4261H36.8169V48.4028H38.0223V54.7274Z" fill="#D2272C"/>
<path fill-rule="evenodd" clip-rule="evenodd" d="M46.1567 49.6152C46.1567 50.1232 45.7839 50.5472 45.154 50.5472C44.5676 50.5472 44.1948 50.1232 44.1948 49.6152C44.1948 49.0793 44.5816 48.6692 45.1827 48.6692C45.7839 48.6692 46.1567 49.0793 46.1567 49.6152ZM42.5202 60.0618C43.0926 60.0191 43.5509 59.8777 43.8367 59.5678C44.166 59.2284 44.295 58.6777 44.295 57.1818V51.5352H46.0565V57.6758C46.0565 59.1018 45.7839 59.9911 45.154 60.6117C44.5388 61.1772 43.5649 61.4164 42.6918 61.4164L42.5202 60.0618Z" fill="#332C2B"/>
<path fill-rule="evenodd" clip-rule="evenodd" d="M51.6254 55.0505C50.3796 55.0218 49.1913 55.2905 49.1913 56.3344C49.1913 57.0125 49.6355 57.3232 50.1932 57.3232C50.8953 57.3232 51.4103 56.8711 51.568 56.3771C51.6107 56.2498 51.6254 56.1092 51.6254 55.9958V55.0505ZM53.3435 56.7585C53.3435 57.3791 53.3722 57.9865 53.4437 58.4098H51.8546L51.7396 57.6478H51.6969C51.2674 58.1838 50.5373 58.5651 49.6355 58.5651C48.232 58.5651 47.4445 57.5632 47.4445 56.5185C47.4445 54.7818 49.0056 53.9065 51.5819 53.9212V53.8078C51.5819 53.3566 51.3963 52.6078 50.1652 52.6078C49.4779 52.6078 48.7617 52.8199 48.2895 53.1166L47.9462 51.9872C48.4612 51.6766 49.3629 51.3799 50.4658 51.3799C52.6988 51.3799 53.3435 52.7771 53.3435 54.2738V56.7585Z" fill="#332C2B"/>
<path fill-rule="evenodd" clip-rule="evenodd" d="M57.1369 49.7705V51.5352H58.8122V52.8338H57.1369V55.8692C57.1369 56.7018 57.3668 57.1391 58.0394 57.1391C58.3687 57.1391 58.5264 57.1111 58.7268 57.0544L58.7555 58.3818C58.4977 58.4805 58.0394 58.5651 57.481 58.5651C56.8363 58.5651 56.2926 58.3391 55.9633 57.9865C55.5913 57.5911 55.4188 56.9698 55.4188 56.0665V52.8338H54.4169V51.5352H55.4188V50.2645L57.1369 49.7705Z" fill="#332C2B"/>
<path fill-rule="evenodd" clip-rule="evenodd" d="M60.1435 58.4098V51.5352H61.919V58.4098H60.1435ZM62.0192 49.6152C62.0192 50.1379 61.6324 50.5472 61.0173 50.5472C60.4301 50.5472 60.0433 50.1379 60.0433 49.6152C60.0433 49.0793 60.4449 48.6692 61.0313 48.6692C61.6324 48.6692 62.0052 49.0793 62.0192 49.6152Z" fill="#332C2B"/>
<path fill-rule="evenodd" clip-rule="evenodd" d="M63.8087 53.5818C63.8087 52.7919 63.7948 52.1278 63.752 51.5352H65.2689L65.3404 52.5519H65.3839C65.7272 52.0152 66.3571 51.3799 67.5315 51.3799C68.4472 51.3799 69.1633 51.8878 69.4639 52.6505H69.4926C69.7357 52.2692 70.0223 51.9872 70.3517 51.7892C70.7377 51.5212 71.1819 51.3799 71.7544 51.3799C72.914 51.3799 74.0884 52.1566 74.0884 54.3585V58.4098H72.3703V54.6125C72.3703 53.4692 71.9695 52.7919 71.1245 52.7919C70.5233 52.7919 70.0798 53.2152 69.8934 53.7092C69.8507 53.8785 69.8072 54.0905 69.8072 54.2878V58.4098H68.0891V54.4292C68.0891 53.4692 67.7031 52.7919 66.8868 52.7919C66.2282 52.7919 65.7847 53.2999 65.627 53.7799C65.5555 53.9492 65.5268 54.1465 65.5268 54.3445V58.4098H63.8087V53.5818Z" fill="#332C2B"/>
<path fill-rule="evenodd" clip-rule="evenodd" d="M54.9357 60.5177C54.9357 60.5177 63.5882 63.1834 70.0278 61.6913C76.4619 60.2008 80.5054 57.7364 85.3171 50.6816C88.6227 45.9003 90.0837 45.0001 90.0837 45.0001C90.0837 45.0001 89.8918 49.1764 87.1027 53.0731C84.712 56.3049 83.4429 57.8397 83.4429 57.8397L72.8612 63.0638C72.8612 63.0638 67.1058 64.141 54.9357 60.5177Z" fill="#E5252A"/>
<path fill-rule="evenodd" clip-rule="evenodd" d="M61.2907 62.134C61.2907 62.134 67.9027 63.3294 76.5357 59.6323C79.6503 58.2987 80.82 57.717 87.088 52.9845C89.9214 50.8439 93.9454 48.6304 93.9454 48.6304C93.9454 48.6304 92.9909 51.39 89.1392 54.8144C86.594 57.2556 86.8744 58.3274 86.8744 58.3274L75.6083 62.2738C75.6083 62.2738 71.3559 63.4179 61.2907 62.134Z" fill="#D1272C"/>
<path fill-rule="evenodd" clip-rule="evenodd" d="M67.7365 62.1783C67.7365 62.1783 70.4705 61.7138 73.4973 60.8595C77.874 59.6253 83.0514 57.7729 87.2355 55.5818C89.3404 54.4789 94.5 53.0133 94.5 53.0133C94.5 53.0133 92.8068 55.3822 89.2868 57.397C87.3994 58.837 85.7008 59.3449 85.7008 59.3449L80.9388 60.983C80.9388 60.983 75.199 62.9356 67.7365 62.1783Z" fill="#BB292D"/>
<path fill-rule="evenodd" clip-rule="evenodd" d="M67.2091 61.9057C67.2091 61.9057 68.0332 62.0828 70.8542 61.5065C75.3186 60.5954 79.6386 59.5453 83.7746 58.3041C87.6115 57.1531 92.1202 57.0575 92.1202 57.0575C92.1202 57.0575 89.8476 58.2676 86.7485 59.5515C84.8612 60.3702 83.2658 60.649 83.2658 60.649L78.5039 61.5795C78.5039 61.5795 74.6717 62.336 67.2091 61.9057Z" fill="#9D272A"/>
<path fill-rule="evenodd" clip-rule="evenodd" d="M71.3116 63.6393C65.7738 63.7317 59.9773 62.5325 54.7307 60.4517C54.7307 60.4517 62.6779 62.5768 70.6181 61.5507C75.2371 60.9542 78.9 60.0641 82.9264 59.6253C86.173 59.2711 89.5229 59.6105 89.5229 59.6105C89.5229 59.6105 81.9369 63.4622 71.3116 63.6393Z" fill="#8B2527"/>
</svg>
