<svg width="108" height="108" viewBox="0 0 108 108" fill="none" xmlns="http://www.w3.org/2000/svg">
<path d="M31.5745 68.0213L23.3617 60.1915C23.3617 60.1915 53.8865 34.9291 64.3262 46.0496C64.3262 46.0496 46.9504 49.5674 31.5603 68.0213" fill="#003058"/>
<path d="M21.6879 58.617L14 51.2837C14 51.2837 36.3121 32.6454 56.4539 41.2979C56.4539 41.2979 35.7589 44.5461 21.7021 58.617" fill="#003058"/>
<path d="M76.4397 39L84.6525 46.8298C84.6525 46.8298 54.1277 72.1064 43.6738 60.9716C43.6738 60.9716 61.0496 57.4539 76.4397 39Z" fill="#C72127"/>
<path d="M86.3121 48.4184L94 55.7518C94 55.7518 71.6879 74.4043 51.5461 65.7376C51.5461 65.7376 72.2411 62.4894 86.2979 48.4184" fill="#C72127"/>
</svg>
