<svg width="108" height="108" viewBox="0 0 108 108" fill="none" xmlns="http://www.w3.org/2000/svg">
<path fill-rule="evenodd" clip-rule="evenodd" d="M29.1759 54.8444C29.7181 54.9706 30.1004 55.1235 30.3191 55.3027C30.6341 55.5572 30.7913 55.8877 30.7913 56.2941C30.7913 56.7219 30.6197 57.0769 30.2747 57.3577C29.8528 57.6967 29.239 57.8657 28.4347 57.8657H25.5439V57.7197C25.807 57.7197 25.9862 57.6951 26.0792 57.6453C26.1733 57.5961 26.2391 57.532 26.2765 57.4534C26.315 57.3748 26.3337 57.1801 26.3337 56.8694V53.1691C26.3337 52.8584 26.315 52.6637 26.2765 52.5835C26.2391 52.5033 26.1722 52.4391 26.0776 52.3905C25.9819 52.3429 25.8043 52.3188 25.5439 52.3188V52.1728H28.2716C28.924 52.1728 29.3849 52.2317 29.6566 52.3472C29.9282 52.4632 30.1416 52.6365 30.2993 52.8669C30.455 53.0974 30.5341 53.3434 30.5341 53.6022C30.5341 53.8771 30.4336 54.1204 30.2336 54.3353C30.033 54.5481 29.6807 54.7187 29.1759 54.8444ZM27.6476 54.7316C28.0481 54.7316 28.3443 54.6872 28.5347 54.5968C28.7251 54.5086 28.8711 54.3824 28.9727 54.2193C29.0743 54.0578 29.1256 53.8498 29.1256 53.5979C29.1256 53.3461 29.0753 53.1402 28.9753 52.9798C28.8753 52.8183 28.732 52.6969 28.5449 52.6119C28.3588 52.5279 28.0593 52.4878 27.6476 52.4905V54.7316ZM27.6476 55.0578V57.0914C27.6476 57.2416 27.6845 57.3561 27.7604 57.432C27.8363 57.509 27.9481 57.5475 28.0968 57.5475C28.3171 57.5475 28.5192 57.4978 28.7048 57.3988C28.8908 57.2999 29.0326 57.1571 29.1315 56.9684C29.2304 56.7807 29.2801 56.5705 29.2801 56.34C29.2801 56.0754 29.2245 55.8379 29.1144 55.6272C29.0026 55.4171 28.8395 55.2679 28.6219 55.1823C28.4042 55.0963 28.0797 55.0551 27.6476 55.0578ZM34.6553 56.2427H32.6645L32.4169 56.7978C32.3383 56.9839 32.2998 57.1384 32.2998 57.2603C32.2998 57.4218 32.364 57.5405 32.4912 57.6181C32.5672 57.6625 32.7533 57.6967 33.0495 57.7197V57.8657H31.1592V57.7197C31.3624 57.6881 31.5314 57.602 31.6613 57.4635C31.7934 57.3229 31.9565 57.0341 32.1479 56.5962L34.1799 52.0611H34.2601L36.3109 56.7219C36.5071 57.1684 36.667 57.4507 36.7932 57.5662C36.8889 57.655 37.0221 57.7052 37.1969 57.7197V57.8657H34.4462V57.7197H34.5591C34.7799 57.7197 34.9355 57.6881 35.0243 57.625C35.0858 57.5806 35.1157 57.5149 35.1157 57.4304C35.1157 57.379 35.1088 57.3261 35.0917 57.2716C35.0858 57.2475 35.0446 57.14 34.9655 56.9523L34.6553 56.2427ZM34.5206 55.9337L33.6719 53.9947L32.8035 55.9337H34.5206ZM39.4262 52.1728L42.2299 55.6989V53.2546C42.2299 52.9097 42.1807 52.6782 42.0823 52.5563C41.9475 52.3921 41.7213 52.3129 41.4053 52.3188V52.1728H43.2854V52.3188C43.0453 52.3504 42.8838 52.3905 42.8004 52.4391C42.7191 52.4889 42.6544 52.5691 42.6074 52.6808C42.5614 52.7926 42.5389 52.984 42.5389 53.2546V57.994H42.3972L38.5546 53.2487V56.878C38.5546 57.2074 38.6289 57.4304 38.7792 57.5464C38.9295 57.6625 39.1027 57.7197 39.2958 57.7197H39.4305V57.8657H37.4044V57.7197C37.7188 57.7165 37.9365 57.6523 38.0611 57.525C38.184 57.3978 38.2455 57.1828 38.2455 56.878V52.8525L38.1268 52.7049C38.0065 52.5504 37.9006 52.4493 37.8076 52.4001C37.7161 52.352 37.583 52.3247 37.4097 52.3188V52.1728H39.4262ZM47.0692 54.3567L49.0627 56.8636C49.3445 57.217 49.5878 57.4577 49.7927 57.5849C49.9402 57.6753 50.0975 57.7197 50.2621 57.7197V57.8657H47.3067V57.7197C47.4944 57.7026 47.6147 57.6721 47.6692 57.6309C47.7232 57.5876 47.7505 57.5363 47.7505 57.4732C47.7505 57.3544 47.6232 57.1315 47.3655 56.8037L46.0634 55.1663L45.85 55.3385V56.8951C45.85 57.1946 45.8671 57.3801 45.9003 57.4534C45.9345 57.5261 45.9987 57.5892 46.0949 57.6405C46.1907 57.694 46.3436 57.7197 46.5543 57.7197V57.8657H43.6865V57.7197H43.8736C44.0383 57.7197 44.1715 57.6892 44.2715 57.6309C44.3447 57.5908 44.4004 57.5234 44.4389 57.4277C44.4693 57.3603 44.4848 57.1828 44.4848 56.8951V53.1429C44.4848 52.8498 44.4693 52.6664 44.4389 52.5937C44.4078 52.5204 44.3464 52.4563 44.2533 52.4017C44.1603 52.3461 44.0341 52.3188 43.8736 52.3188H43.6865V52.1728H46.511V52.3188C46.3195 52.3188 46.1719 52.3472 46.0719 52.4033C45.9987 52.4434 45.9415 52.5092 45.9003 52.6022C45.8671 52.6723 45.85 52.8525 45.85 53.1429V54.9187L47.9665 53.2161C48.2601 52.9744 48.4061 52.7798 48.4061 52.6349C48.4061 52.5263 48.3457 52.4418 48.2253 52.3787C48.1638 52.3472 48.0125 52.3274 47.7692 52.3188V52.1728H49.983V52.3188C49.7841 52.3333 49.628 52.3691 49.5151 52.4274C49.4018 52.4846 49.1413 52.6824 48.7339 53.0172L47.0692 54.3567ZM56.3539 52.044L56.3967 53.9418H56.225C56.1437 53.4664 55.9443 53.0846 55.6266 52.7953C55.3079 52.5065 54.9641 52.3616 54.5951 52.3616C54.309 52.3616 54.0828 52.4375 53.9165 52.5905C53.7492 52.7423 53.6663 52.9183 53.6663 53.1161C53.6663 53.2418 53.6962 53.3535 53.7551 53.4519C53.8353 53.5824 53.9652 53.7129 54.1459 53.8412C54.2775 53.9332 54.5807 54.0974 55.0561 54.3321C55.7229 54.6583 56.1721 54.9674 56.4041 55.2583C56.6341 55.5486 56.749 55.8807 56.749 56.2556C56.749 56.7304 56.563 57.1384 56.1918 57.4806C55.8213 57.8223 55.3507 57.994 54.7796 57.994C54.601 57.994 54.4304 57.9758 54.2716 57.94C54.1112 57.9042 53.9112 57.8352 53.6706 57.7336C53.5363 57.678 53.4257 57.6507 53.3385 57.6507C53.2658 57.6507 53.1898 57.6796 53.108 57.7352C53.0267 57.7924 52.961 57.8785 52.9107 57.994H52.7647V55.8476H52.9107C53.0337 56.4502 53.2716 56.9111 53.6219 57.2272C53.9738 57.5432 54.3518 57.7026 54.7582 57.7026C55.0716 57.7026 55.3218 57.6165 55.5079 57.4464C55.694 57.2758 55.7871 57.0785 55.7871 56.8507C55.7871 56.7176 55.7512 56.5876 55.6796 56.4614C55.6084 56.3358 55.501 56.2171 55.355 56.1026C55.209 55.9893 54.9513 55.8422 54.5823 55.6604C54.0641 55.4069 53.692 55.1893 53.4658 55.0107C53.2412 54.8316 53.0679 54.6316 52.9465 54.4107C52.8246 54.1893 52.7647 53.946 52.7647 53.6813C52.7647 53.2273 52.931 52.8413 53.2642 52.522C53.5962 52.2028 54.0155 52.044 54.5219 52.044C54.7069 52.044 54.8855 52.0654 55.0587 52.1097C55.1903 52.1445 55.3507 52.206 55.5395 52.2958C55.7282 52.3862 55.8603 52.4306 55.9357 52.4306C56.009 52.4306 56.0662 52.4092 56.1079 52.3648C56.1491 52.3204 56.1892 52.2129 56.225 52.044H56.3539ZM57.2913 52.1728H60.2275V52.3188H60.0799C59.8585 52.3188 59.7067 52.3418 59.6238 52.3889C59.5409 52.4349 59.4821 52.499 59.4479 52.5808C59.412 52.6621 59.3949 52.8669 59.3949 53.1947V55.9791C59.3949 56.4887 59.4334 56.8251 59.5094 56.9898C59.5864 57.1555 59.7126 57.2919 59.8885 57.402C60.0644 57.5106 60.2879 57.5651 60.5553 57.5651C60.8628 57.5651 61.1248 57.4962 61.3408 57.3577C61.5569 57.2186 61.7189 57.0283 61.8258 56.785C61.9333 56.5416 61.9879 56.1181 61.9879 55.5144V53.1947C61.9879 52.9386 61.9606 52.7536 61.9077 52.645C61.8547 52.5349 61.7873 52.4589 61.7061 52.4161C61.5799 52.352 61.4023 52.3188 61.1719 52.3188V52.1728H63.1381V52.3188H63.021C62.8622 52.3188 62.7306 52.352 62.6247 52.4161C62.5189 52.4803 62.4413 52.5776 62.3943 52.7081C62.3584 52.798 62.3397 52.96 62.3397 53.1947V55.3556C62.3397 56.024 62.2953 56.5058 62.2082 56.8021C62.1194 57.0999 61.9061 57.3716 61.5654 57.6207C61.2237 57.8699 60.7601 57.994 60.1703 57.994C59.6783 57.994 59.2987 57.9282 59.0313 57.7967C58.665 57.6181 58.4057 57.3887 58.2554 57.1085C58.1051 56.8293 58.0297 56.4529 58.0297 55.9807V53.1947C58.0297 52.8643 58.011 52.6595 57.9752 52.5792C57.9378 52.499 57.8763 52.4349 57.7864 52.3862C57.6961 52.3386 57.5314 52.3162 57.2913 52.3188V52.1728ZM68.7207 55.8732L68.5063 57.8657H63.4659V57.7197H63.6536C63.8183 57.7197 63.9514 57.6892 64.0514 57.6309C64.1241 57.5908 64.1803 57.5234 64.2188 57.4277C64.2487 57.3603 64.2642 57.1828 64.2642 56.8951V53.1429C64.2642 52.8498 64.2487 52.6664 64.2188 52.5937C64.1872 52.5204 64.1257 52.4563 64.0327 52.4017C63.9397 52.3461 63.814 52.3188 63.6536 52.3188H63.4659V52.1728H66.4968V52.3188H66.2481C66.0834 52.3188 65.9503 52.3488 65.8487 52.4076C65.7754 52.4477 65.7182 52.5151 65.6754 52.6108C65.6455 52.6782 65.63 52.8552 65.63 53.1429V56.7748C65.63 57.0657 65.6471 57.2518 65.6797 57.3315C65.7128 57.4117 65.7786 57.4705 65.8759 57.5106C65.946 57.5347 66.115 57.5475 66.3807 57.5475H66.8534C67.154 57.5475 67.4042 57.4951 67.6047 57.3887C67.8047 57.2828 67.9796 57.1154 68.1256 56.8866C68.2716 56.6577 68.4101 56.3197 68.5405 55.8732H68.7207ZM69.2186 52.1728H72.1554V52.3188H72.0078C71.7859 52.3188 71.6345 52.3418 71.5511 52.3889C71.4682 52.4349 71.4094 52.499 71.3752 52.5808C71.3394 52.6621 71.3222 52.8669 71.3222 53.1947V55.9791C71.3222 56.4887 71.3607 56.8251 71.4367 56.9898C71.5142 57.1555 71.6399 57.2919 71.8158 57.402C71.9923 57.5106 72.2152 57.5651 72.4826 57.5651C72.7906 57.5651 73.0526 57.4962 73.2687 57.3577C73.4847 57.2186 73.6462 57.0283 73.7537 56.785C73.8612 56.5416 73.9152 56.1181 73.9152 55.5144V53.1947C73.9152 52.9386 73.8879 52.7536 73.835 52.645C73.782 52.5349 73.7152 52.4589 73.6334 52.4161C73.5077 52.352 73.3302 52.3188 73.0997 52.3188V52.1728H75.0659V52.3188H74.9483C74.7895 52.3188 74.6579 52.352 74.552 52.4161C74.4462 52.4803 74.3692 52.5776 74.3216 52.7081C74.2858 52.798 74.2676 52.96 74.2676 53.1947V55.3556C74.2676 56.024 74.2232 56.5058 74.1355 56.8021C74.0473 57.0999 73.8339 57.3716 73.4933 57.6207C73.151 57.8699 72.6874 57.994 72.0981 57.994C71.6056 57.994 71.2265 57.9282 70.9586 57.7967C70.5923 57.6181 70.3335 57.3887 70.1832 57.1085C70.033 56.8293 69.9571 56.4529 69.9571 55.9807V53.1947C69.9571 52.8643 69.9383 52.6595 69.9025 52.5792C69.8656 52.499 69.8041 52.4349 69.7137 52.3862C69.6239 52.3386 69.4592 52.3162 69.2186 52.3188V52.1728ZM80.6395 52.1728V53.7097H80.494C80.4037 53.3551 80.3047 53.1001 80.1962 52.9455C80.0871 52.7894 79.9368 52.6664 79.747 52.575C79.6411 52.5247 79.4551 52.499 79.1888 52.499H78.7594V56.8951C78.7594 57.1887 78.7754 57.3716 78.8064 57.4448C78.838 57.5175 78.9011 57.5822 78.9925 57.6363C79.0856 57.6924 79.2117 57.7197 79.3716 57.7197H79.5577V57.8657H76.5958V57.7197H76.783C76.9461 57.7197 77.0781 57.6892 77.1781 57.6309C77.2498 57.5908 77.307 57.5234 77.3482 57.4277C77.3787 57.3603 77.3942 57.1828 77.3942 56.8951V52.499H76.9819C76.6012 52.499 76.3252 52.5808 76.152 52.7423C75.9103 52.9685 75.7584 53.2904 75.6942 53.7097H75.5312V52.1728H80.6395ZM86.8735 52.044V54.0444H86.7275C86.5398 53.5006 86.258 53.0872 85.8831 52.8038C85.5083 52.5204 85.0971 52.3787 84.6522 52.3787C84.226 52.3787 83.8725 52.4974 83.5891 52.7365C83.3057 52.9755 83.1052 53.3092 82.9881 53.7353C82.8704 54.1631 82.8121 54.6011 82.8121 55.0508C82.8121 55.5957 82.8752 56.0721 83.0036 56.4828C83.1324 56.894 83.3399 57.1946 83.626 57.3876C83.9126 57.5806 84.2516 57.6764 84.6452 57.6764C84.7826 57.6764 84.9227 57.6625 85.066 57.632C85.2104 57.6036 85.358 57.5609 85.5083 57.5047V56.3283C85.5083 56.101 85.4922 55.9534 85.4623 55.8866C85.4323 55.8203 85.3676 55.7588 85.2719 55.7059C85.1762 55.6518 85.0602 55.6246 84.9243 55.6246H84.7784V55.4786H87.543V55.6246C87.3328 55.639 87.1852 55.6674 87.1023 55.7117C87.0205 55.7561 86.9563 55.8288 86.912 55.932C86.8863 55.985 86.8735 56.1181 86.8735 56.3283V57.5047C86.5098 57.6667 86.1318 57.7881 85.7398 57.871C85.3479 57.9528 84.9398 57.994 84.5179 57.994C83.9795 57.994 83.5319 57.9213 83.1758 57.7737C82.8191 57.6277 82.5041 57.4347 82.2325 57.1956C81.9603 56.9566 81.7475 56.6876 81.594 56.3887C81.3983 56.0037 81.301 55.5716 81.301 55.0952C81.301 54.2391 81.6015 53.5182 82.2025 52.9284C82.8046 52.3386 83.5618 52.044 84.4736 52.044C84.757 52.044 85.0099 52.0654 85.2377 52.1097C85.3607 52.1327 85.5596 52.1958 85.8355 52.3001C86.1104 52.4049 86.2735 52.4563 86.3237 52.4563C86.4024 52.4563 86.4756 52.4274 86.543 52.3702C86.6098 52.3129 86.6713 52.2044 86.7275 52.044H86.8735ZM90.9385 52.1044C91.8444 52.0712 92.5818 52.3343 93.1481 52.8953C93.7149 53.4578 93.9983 54.1589 93.9983 55.0032C93.9983 55.723 93.7865 56.3572 93.3641 56.9053C92.8048 57.6309 92.015 57.994 90.9931 57.994C89.9685 57.994 89.1771 57.648 88.6178 56.9555C88.1755 56.4074 87.9536 55.7588 87.9536 55.0075C87.9536 54.1631 88.2413 53.4605 88.8167 52.8985C89.3921 52.3343 90.099 52.0712 90.9385 52.1044ZM90.9888 52.3702C90.4664 52.3702 90.0701 52.6349 89.7969 53.1659C89.575 53.6011 89.4648 54.2262 89.4648 55.0422C89.4648 56.0107 89.6364 56.7277 89.9787 57.1914C90.2177 57.5149 90.5508 57.6764 90.9802 57.6764C91.2695 57.6764 91.5112 57.6063 91.7043 57.4678C91.9508 57.2887 92.1438 57.0026 92.2813 56.6106C92.4187 56.2181 92.4871 55.7059 92.4871 55.0765C92.4871 54.3252 92.4171 53.7626 92.277 53.3904C92.1363 53.0172 91.9577 52.7536 91.7401 52.6006C91.5225 52.4477 91.2722 52.3702 90.9888 52.3702Z" fill="#014C8F"/>
<path fill-rule="evenodd" clip-rule="evenodd" d="M14.7315 60.1228L14.7652 60.1479C14.7561 60.1666 14.7476 60.1832 14.7396 60.1971C14.7315 60.2115 14.7219 60.2287 14.7102 60.249C14.6989 60.2693 14.6904 60.2843 14.684 60.2939C14.6337 60.3827 14.5861 60.4265 14.5417 60.4265C14.523 60.4265 14.507 60.4196 14.4936 60.4046C14.4802 60.3896 14.4733 60.3693 14.4733 60.3436C14.4733 60.3073 14.4861 60.2575 14.5123 60.1944C14.538 60.1313 14.5781 60.0527 14.6321 59.9608C14.6866 59.8677 14.7545 59.7629 14.8369 59.6458C14.9187 59.5287 15.0112 59.4052 15.1144 59.2752C15.0551 59.2667 14.9845 59.2624 14.9032 59.2624C14.8096 59.2624 14.7053 59.2725 14.5909 59.2939C14.4759 59.3143 14.3759 59.3383 14.2909 59.3656C14.2059 59.3929 14.1631 59.4126 14.1631 59.4255C14.1631 59.4303 14.1647 59.4335 14.1679 59.4351C14.1717 59.4367 14.177 59.4378 14.185 59.4389C14.1925 59.4399 14.2027 59.441 14.2145 59.4426C14.2931 59.4533 14.3332 59.4656 14.3332 59.479C14.3332 59.4854 14.3155 59.4886 14.2813 59.488C14.2471 59.4875 14.2059 59.4875 14.1572 59.4875C14.1187 59.4875 14.0909 59.4864 14.0738 59.4832C14.0567 59.48 14.0449 59.4741 14.0396 59.4661C14.0337 59.4576 14.031 59.4447 14.031 59.4271C14.031 59.4159 14.0342 59.3907 14.0412 59.3522C14.0535 59.2811 14.0733 59.2239 14.1 59.1806C14.1268 59.1378 14.1674 59.1025 14.2225 59.0752C14.277 59.048 14.3524 59.0266 14.4492 59.01C14.6102 58.9827 14.7438 58.9688 14.8497 58.9688C14.9278 58.9688 14.9893 58.972 15.0347 58.9784C15.0797 58.9849 15.1128 58.994 15.1342 59.0062C15.1551 59.0185 15.1684 59.0303 15.1743 59.0421C15.1802 59.0538 15.1877 59.0742 15.1973 59.1036L15.2283 59.1961C15.2305 59.2025 15.2321 59.2073 15.2331 59.2111C15.2347 59.2148 15.2358 59.2185 15.2369 59.2228C15.2379 59.2266 15.2385 59.2303 15.2385 59.234C15.2385 59.2602 15.2326 59.2832 15.2208 59.3046C15.2091 59.3255 15.1877 59.3565 15.1561 59.3982C15.1246 59.4405 15.1016 59.4725 15.0871 59.4966C14.9134 59.7784 14.7952 59.987 14.7315 60.1228ZM15.7053 60.003V60.0704C15.6609 60.111 15.6256 60.1378 15.5989 60.1517C15.5716 60.165 15.5331 60.1704 15.4823 60.1672C15.3952 60.2709 15.3182 60.3233 15.2518 60.3233C15.2139 60.3233 15.1797 60.3105 15.1486 60.2859C15.1176 60.2607 15.093 60.2271 15.0743 60.1837C15.0561 60.141 15.0465 60.0928 15.0465 60.0394C15.0465 59.9966 15.0609 59.9485 15.0893 59.8961C15.1182 59.8436 15.1551 59.795 15.2005 59.7495C15.246 59.7041 15.2946 59.6672 15.3465 59.6394C15.3978 59.6116 15.4465 59.5971 15.4903 59.5971C15.5224 59.5971 15.547 59.6019 15.5652 59.6116C15.5834 59.6217 15.5925 59.6351 15.5925 59.6527C15.5925 59.6661 15.585 59.6816 15.5695 59.6993C15.5951 59.7046 15.6123 59.7137 15.6219 59.726C15.631 59.7383 15.6358 59.7613 15.6358 59.7939C15.6358 59.8265 15.6283 59.8672 15.6133 59.9164C15.5978 59.9656 15.5775 60.011 15.5513 60.0543L15.5695 60.0725H15.5845C15.5962 60.0725 15.6074 60.0693 15.6181 60.064C15.6294 60.0581 15.6395 60.0522 15.6481 60.0458C15.6572 60.0394 15.6759 60.0249 15.7053 60.003ZM15.4978 59.7378C15.4417 59.7715 15.3946 59.8019 15.3545 59.8292C15.3149 59.8565 15.2813 59.8843 15.2534 59.9121C15.2256 59.9399 15.2075 59.9677 15.1978 59.996C15.1813 60.0714 15.1727 60.1121 15.1727 60.118C15.1727 60.1624 15.2037 60.1848 15.2657 60.1848C15.2946 60.1848 15.3428 60.1597 15.4112 60.1099C15.4 60.0784 15.3941 60.0479 15.3941 60.019C15.3941 59.9768 15.4026 59.9335 15.4203 59.8896C15.4379 59.8453 15.4636 59.795 15.4978 59.7378ZM15.6935 60.0832V60.0174C15.7294 59.9741 15.7572 59.9378 15.7764 59.9073C15.7545 59.8998 15.739 59.8912 15.7294 59.88C15.7192 59.8693 15.7144 59.8533 15.7144 59.8319C15.7144 59.8073 15.7246 59.7763 15.7449 59.7399C15.7652 59.7025 15.7898 59.6677 15.8197 59.6351C15.8491 59.603 15.8759 59.5822 15.8999 59.5725C15.9101 59.5683 15.9187 59.5656 15.9278 59.5656C15.9411 59.5656 15.9481 59.572 15.9481 59.5848C15.9481 59.5961 15.9374 59.6196 15.9165 59.6544C16.0556 59.633 16.1427 59.6223 16.1796 59.6223C16.1935 59.6223 16.2031 59.6233 16.2085 59.626C16.2203 59.6319 16.2293 59.6463 16.2368 59.6688C16.2443 59.6912 16.2481 59.7132 16.2481 59.7356C16.2481 59.7495 16.2416 59.765 16.2293 59.7816C16.217 59.7982 16.1957 59.8223 16.1652 59.8538C16.1293 59.8923 16.0999 59.934 16.0753 59.9789C16.0513 60.0244 16.039 60.0586 16.039 60.0811C16.039 60.1132 16.0588 60.1287 16.0978 60.1287C16.1384 60.1287 16.2101 60.087 16.3117 60.0035V60.0714C16.2555 60.1297 16.2096 60.1757 16.1732 60.2089C16.1368 60.2431 16.1031 60.2693 16.0721 60.2891C16.0411 60.3089 16.0138 60.319 15.9892 60.319C15.9609 60.319 15.9374 60.3062 15.9187 60.28C15.8994 60.2543 15.8903 60.2169 15.8903 60.1677C15.8903 60.1388 15.8978 60.1057 15.9128 60.0688C15.9278 60.0313 15.9491 59.9918 15.978 59.9479C16.0064 59.9046 16.0384 59.8613 16.0743 59.8185C16.0556 59.8223 16.0342 59.8265 16.0106 59.8308C15.9871 59.8356 15.9625 59.8399 15.9358 59.8447C15.9096 59.8495 15.8893 59.8533 15.8753 59.8559C15.8336 59.9394 15.7727 60.0153 15.6935 60.0832ZM16.4256 59.8244C16.5283 59.7314 16.6272 59.6624 16.724 59.6175C16.8202 59.572 16.8946 59.5495 16.947 59.5495C16.9609 59.5495 16.9742 59.5554 16.9865 59.5672C16.9983 59.579 17.0085 59.5929 17.0149 59.6084C17.0224 59.6239 17.0256 59.6351 17.0256 59.6431C17.0256 59.6549 17.0208 59.664 17.0117 59.6693C17.0026 59.6752 16.986 59.6822 16.9619 59.6902C16.9667 59.7009 16.9732 59.7148 16.9801 59.7319C16.9881 59.7485 16.9935 59.7618 16.9978 59.7725C17.0015 59.7832 17.0031 59.7923 17.0031 59.8003C17.0031 59.8164 16.9871 59.8463 16.9544 59.8907C16.9218 59.9346 16.8988 59.9672 16.886 59.988C16.8726 60.0089 16.8662 60.0345 16.8662 60.065C16.8662 60.1148 16.8892 60.1399 16.9347 60.1399C16.9823 60.1399 17.0555 60.0955 17.156 60.0073V60.0688C16.986 60.2581 16.8641 60.3522 16.7903 60.3522C16.7641 60.3522 16.7454 60.3436 16.7336 60.3265C16.7229 60.3094 16.7176 60.2843 16.7176 60.2506C16.7176 60.1971 16.7368 60.1206 16.7753 60.0196C16.6769 60.1281 16.6042 60.2062 16.5561 60.2522C16.5079 60.2982 16.4689 60.3212 16.4379 60.3212C16.4229 60.3212 16.4047 60.3083 16.3823 60.2827C16.3604 60.257 16.3406 60.2238 16.3235 60.1832C16.3063 60.1426 16.2978 60.1003 16.2978 60.0565C16.2978 60.0249 16.3005 59.9987 16.3063 59.9773C16.3128 59.9559 16.3245 59.9346 16.3422 59.9121C16.3598 59.8902 16.3876 59.8608 16.4256 59.8244ZM16.9095 59.7132C16.7347 59.7934 16.6101 59.8613 16.5352 59.9169C16.4609 59.9736 16.4235 60.0308 16.4235 60.0902C16.4235 60.1116 16.4277 60.1297 16.4347 60.1431C16.4422 60.157 16.4523 60.164 16.4652 60.164C16.4727 60.164 16.486 60.1591 16.5042 60.1495C16.5748 60.1078 16.64 60.0538 16.6983 59.9864C16.7571 59.9196 16.8277 59.8281 16.9095 59.7132ZM17.8277 59.8223C17.709 59.9543 17.6496 60.0463 17.6496 60.0982C17.6496 60.1271 17.6614 60.1415 17.6849 60.1415C17.7041 60.1415 17.7298 60.1313 17.7614 60.1105C17.7924 60.0902 17.8416 60.0538 17.9079 60.0014V60.0704C17.8127 60.165 17.7389 60.2329 17.6881 60.2746C17.6368 60.3164 17.5951 60.3377 17.5624 60.3377C17.5074 60.3377 17.4801 60.3008 17.4801 60.2281C17.4801 60.2073 17.4833 60.1859 17.4903 60.165C17.4967 60.1442 17.5063 60.1222 17.5181 60.0998C17.5298 60.0768 17.5475 60.0452 17.5721 60.003C17.5961 59.9608 17.6239 59.9132 17.6555 59.8602C17.6175 59.8795 17.5694 59.918 17.5111 59.9757C17.4731 60.0121 17.4416 60.0468 17.4154 60.0795C17.3892 60.1121 17.3608 60.1484 17.3309 60.1886C17.301 60.2287 17.279 60.2554 17.2651 60.2693C17.2518 60.2832 17.2379 60.2902 17.2234 60.2902C17.202 60.2902 17.1822 60.2677 17.1641 60.2222C17.1459 60.1773 17.1368 60.1244 17.1368 60.0645C17.1368 60.0276 17.1411 59.9987 17.1496 59.9779C17.1576 59.957 17.1742 59.9276 17.1994 59.8891C17.2459 59.8174 17.286 59.765 17.3197 59.7319C17.3534 59.6987 17.3854 59.6816 17.4165 59.6816C17.4379 59.6816 17.455 59.6854 17.4683 59.6929C17.4812 59.7003 17.4881 59.7116 17.4881 59.7271C17.4881 59.734 17.486 59.741 17.4822 59.7485C17.478 59.7565 17.4731 59.7629 17.4683 59.7688C17.4635 59.7747 17.4528 59.787 17.4362 59.8041C17.3304 59.9217 17.2774 59.9987 17.2774 60.0335C17.2774 60.0527 17.2838 60.0624 17.2967 60.0624C17.3047 60.0624 17.3202 60.0495 17.3437 60.0239C17.3667 59.9977 17.3967 59.9634 17.433 59.9217C17.4699 59.8795 17.5132 59.8356 17.5635 59.7902C17.6138 59.7442 17.6705 59.6998 17.7341 59.6576C17.7699 59.6324 17.7999 59.6201 17.8234 59.6201C17.8341 59.6201 17.8448 59.6351 17.8555 59.6645C17.8656 59.6939 17.871 59.7244 17.871 59.7549C17.871 59.7699 17.856 59.7923 17.8277 59.8223ZM18.7046 60.0725L18.3688 60.3484C18.2747 60.5115 18.1892 60.6329 18.1116 60.7131C18.0346 60.7933 17.9769 60.834 17.9394 60.834C17.9191 60.834 17.909 60.8217 17.909 60.7965C17.909 60.7479 17.9336 60.6859 17.9827 60.611C18.002 60.581 18.0245 60.5522 18.0496 60.5238C18.0747 60.496 18.0988 60.4714 18.1212 60.4506C18.1437 60.4303 18.1736 60.4046 18.2105 60.3741C18.248 60.3436 18.2731 60.3222 18.2865 60.311C18.3539 60.1736 18.402 60.0688 18.4314 59.996C18.3683 60.0634 18.3132 60.1185 18.2662 60.1618C18.2191 60.2051 18.1758 60.2383 18.1362 60.2613C18.0972 60.2843 18.0619 60.296 18.0298 60.296C17.9956 60.296 17.964 60.2688 17.9352 60.2137C17.9063 60.1591 17.8918 60.1025 17.8918 60.0447C17.8918 60.018 17.8983 59.9896 17.9106 59.9597C17.9229 59.9303 17.9426 59.8987 17.9688 59.865C17.9956 59.8313 18.0293 59.7971 18.0704 59.7618C18.1111 59.726 18.1597 59.6918 18.2148 59.6581C18.3191 59.5929 18.4004 59.5602 18.4581 59.5602C18.5009 59.5602 18.5223 59.5757 18.5223 59.6078C18.5223 59.6511 18.4758 59.6939 18.3822 59.7356C18.325 59.7608 18.2683 59.7934 18.2121 59.8346C18.156 59.8757 18.1105 59.919 18.0763 59.9656C18.0416 60.011 18.0239 60.0527 18.0239 60.0896C18.0239 60.1078 18.0287 60.1228 18.0373 60.1335C18.0464 60.1442 18.0576 60.1495 18.0715 60.1495C18.095 60.1495 18.1218 60.1388 18.1523 60.1169C18.1827 60.0955 18.2277 60.0575 18.287 60.003C18.3137 59.9784 18.3496 59.9378 18.3945 59.8821C18.4389 59.8271 18.4758 59.7843 18.5052 59.7549C18.5346 59.7255 18.5613 59.711 18.5843 59.711C18.5977 59.711 18.6089 59.7153 18.6175 59.7239C18.626 59.7319 18.6298 59.7447 18.6298 59.7608C18.6298 59.7918 18.6175 59.8367 18.5929 59.8955C18.5683 59.9543 18.5239 60.0506 18.4597 60.1848L18.7046 60.0073V60.0725ZM19.2661 60.0896V60.019C19.3608 59.9169 19.442 59.8201 19.51 59.7303C19.5784 59.6399 19.6324 59.5683 19.672 59.5153C19.7116 59.4624 19.7468 59.4244 19.7773 59.4025C19.8073 59.3811 19.8452 59.3699 19.8912 59.3699C19.9142 59.3699 19.926 59.3784 19.926 59.3961C19.926 59.41 19.9164 59.4314 19.8976 59.4586C19.8795 59.4864 19.8554 59.5148 19.8265 59.5437C19.788 59.5816 19.7506 59.6287 19.7142 59.6854C19.6773 59.7426 19.6356 59.8153 19.5896 59.9035C19.6255 59.8752 19.6677 59.8415 19.7153 59.803C19.7624 59.764 19.8014 59.734 19.8313 59.7116C19.8613 59.6902 19.8912 59.6731 19.9201 59.6602C19.9495 59.6474 19.9789 59.641 20.0083 59.641C20.0276 59.641 20.0393 59.6442 20.0452 59.6506C20.0511 59.6576 20.0538 59.6709 20.0538 59.6902C20.0538 59.7415 20.0415 59.7912 20.0169 59.8399C19.9918 59.8886 19.9559 59.9394 19.9094 59.9918C19.8629 60.0442 19.8057 60.1014 19.7378 60.1634C19.7613 60.172 19.7853 60.1763 19.8105 60.1763C19.8886 60.1763 19.9934 60.1169 20.1244 59.9977V60.0704C20.0736 60.1164 20.0233 60.1591 19.9746 60.2003C19.926 60.2404 19.88 60.273 19.8367 60.2971C19.7939 60.3212 19.7543 60.3335 19.7174 60.3335C19.7041 60.3335 19.6902 60.3319 19.6747 60.3292C19.6597 60.326 19.6458 60.3222 19.6329 60.3174C19.6201 60.3137 19.6035 60.3073 19.5832 60.2992C19.5634 60.2907 19.5479 60.2853 19.5372 60.2816C19.5153 60.2875 19.5035 60.2902 19.5003 60.2902C19.4773 60.2902 19.4495 60.2805 19.418 60.2613C19.3955 60.3046 19.3715 60.3602 19.3447 60.4286C19.318 60.4966 19.2955 60.5511 19.2773 60.5912C19.2592 60.6318 19.2351 60.6704 19.2046 60.7072C19.188 60.7244 19.1763 60.7324 19.1693 60.7324C19.1405 60.7324 19.126 60.7072 19.126 60.6559C19.126 60.611 19.1346 60.565 19.1528 60.5169C19.1709 60.4688 19.1923 60.4233 19.218 60.3805C19.2442 60.3372 19.2725 60.2934 19.3035 60.2495C19.3346 60.2057 19.3565 60.1725 19.3693 60.1511C19.4757 59.9682 19.5586 59.8126 19.6174 59.6843C19.4629 59.8725 19.3458 60.0073 19.2661 60.0896ZM19.6763 60.1394C19.7426 60.0693 19.7923 60.0094 19.8249 59.9608C19.8581 59.911 19.8741 59.8736 19.8741 59.8474C19.8741 59.8228 19.8618 59.8105 19.8367 59.8105C19.803 59.8105 19.7559 59.8378 19.695 59.8934C19.634 59.949 19.5709 60.0239 19.5067 60.118C19.5565 60.1126 19.5896 60.1105 19.6067 60.1121C19.6233 60.1137 19.6468 60.1228 19.6763 60.1394ZM20.2789 60.0415V60.0666C20.2789 60.1062 20.2885 60.1372 20.3083 60.1591C20.3281 60.1816 20.3532 60.1928 20.3853 60.1928C20.4179 60.1928 20.4522 60.1853 20.4875 60.1698C20.5227 60.1543 20.558 60.1335 20.5928 60.1078C20.6281 60.0827 20.6709 60.0479 20.7211 60.0051V60.0666C20.6452 60.1581 20.5741 60.2281 20.5072 60.2768C20.4404 60.3254 20.373 60.35 20.304 60.35C20.2447 60.35 20.1971 60.3271 20.1618 60.2805C20.127 60.234 20.1094 60.1704 20.1094 60.0896C20.1094 60.019 20.126 59.9549 20.1591 59.8971C20.1917 59.8394 20.2458 59.7789 20.3201 59.7153C20.3714 59.6715 20.4222 59.6383 20.473 59.6164C20.5233 59.5939 20.5682 59.5827 20.6083 59.5827C20.6399 59.5827 20.665 59.5902 20.6832 59.6046C20.7019 59.6191 20.711 59.641 20.711 59.6699C20.711 59.7121 20.6955 59.7543 20.6634 59.7966C20.6318 59.8383 20.5837 59.88 20.519 59.9217C20.4538 59.9634 20.3736 60.0035 20.2789 60.0415ZM20.2891 59.9763C20.3495 59.9522 20.4014 59.9233 20.4447 59.888C20.4875 59.8533 20.519 59.8196 20.5399 59.788C20.5602 59.756 20.5703 59.7324 20.5703 59.7174C20.5703 59.7019 20.5634 59.6945 20.5495 59.6945C20.5372 59.6945 20.5174 59.7019 20.4901 59.7174C20.4629 59.733 20.4356 59.7533 20.4078 59.7784C20.3794 59.803 20.3548 59.8324 20.3324 59.8661C20.3105 59.8998 20.296 59.9367 20.2891 59.9763ZM21.8537 59.641L21.8024 59.7014C21.8623 59.7068 21.9157 59.7137 21.9628 59.7233C22.0099 59.7319 22.0537 59.742 22.0938 59.7533C22.1339 59.7645 22.1687 59.7757 22.1992 59.788C22.3056 59.8324 22.3585 59.8944 22.3585 59.9736C22.3585 60.0222 22.3366 60.0693 22.2922 60.1158C22.2478 60.1624 22.1901 60.2041 22.1189 60.2399C22.0478 60.2768 21.9751 60.3051 21.9002 60.3254C21.8248 60.3458 21.7564 60.3565 21.6954 60.3565C21.5928 60.3565 21.5136 60.3372 21.4564 60.2992C21.3992 60.2613 21.3703 60.2089 21.3703 60.1431C21.3703 60.0976 21.388 60.0436 21.4227 59.9821C21.458 59.9201 21.512 59.8426 21.5853 59.7506C21.5302 59.7479 21.4912 59.7399 21.4682 59.726C21.4457 59.7121 21.4339 59.6929 21.4339 59.6677C21.4339 59.6522 21.4382 59.6404 21.4468 59.6324C21.4559 59.6244 21.4676 59.6185 21.4826 59.6148C21.497 59.611 21.5254 59.6062 21.5676 59.6009C21.6099 59.5955 21.6639 59.5886 21.7297 59.5806C21.8034 59.4907 21.8692 59.4228 21.927 59.3774C21.9858 59.3319 22.0478 59.3057 22.1141 59.2987C22.12 59.2982 22.1259 59.2977 22.1318 59.2977C22.1387 59.2977 22.1414 59.2998 22.1414 59.303C22.1414 59.3073 22.1339 59.318 22.1189 59.3356C22.104 59.3528 22.0794 59.3811 22.0451 59.4196C22.0115 59.4576 21.9708 59.5036 21.9243 59.556C22.051 59.5388 22.1542 59.5196 22.235 59.4977C22.3152 59.4763 22.3761 59.4501 22.4168 59.4196C22.458 59.3891 22.4788 59.3554 22.4788 59.3185C22.4788 59.2736 22.4569 59.2405 22.413 59.2201C22.3692 59.1998 22.3024 59.1902 22.2125 59.1902C22.1623 59.1902 22.1056 59.195 22.0409 59.2052C21.9767 59.2153 21.9184 59.2271 21.866 59.2394C21.8141 59.2522 21.7676 59.2661 21.727 59.2806C21.6863 59.295 21.666 59.3052 21.666 59.3121C21.666 59.3143 21.6682 59.3164 21.6724 59.3185C21.7051 59.3308 21.7216 59.3405 21.7216 59.349C21.7216 59.3597 21.6714 59.38 21.5703 59.411C21.4692 59.4415 21.4013 59.457 21.366 59.457C21.3414 59.457 21.3291 59.4447 21.3291 59.4196C21.3291 59.3897 21.3564 59.3367 21.4104 59.2597C21.4644 59.1822 21.5136 59.133 21.558 59.1116C21.5735 59.1036 21.6099 59.0923 21.6666 59.0758C21.7227 59.0597 21.7847 59.0447 21.8526 59.0292C21.92 59.0148 21.989 59.002 22.059 58.9923C22.1291 58.9822 22.1911 58.9768 22.2451 58.9768C22.3724 58.9768 22.4676 58.9998 22.5318 59.0453C22.5954 59.0907 22.6275 59.1474 22.6275 59.2164C22.6275 59.2629 22.613 59.3078 22.5836 59.3512C22.5542 59.3939 22.5088 59.4346 22.4467 59.4731C22.3847 59.5116 22.3045 59.5453 22.2045 59.5741C22.1056 59.603 21.9885 59.6255 21.8537 59.641ZM21.7468 59.7709C21.712 59.8126 21.6805 59.8495 21.6532 59.8811C21.6259 59.9132 21.6067 59.9394 21.5949 59.9592C21.5831 59.9789 21.5773 59.9987 21.5773 60.019C21.5773 60.0517 21.5938 60.08 21.627 60.1051C21.6607 60.1303 21.7083 60.1431 21.7714 60.1431C21.8291 60.1431 21.8906 60.1329 21.9564 60.1126C22.0222 60.0918 22.0772 60.0656 22.1221 60.0324C22.1671 59.9993 22.189 59.9661 22.189 59.9324C22.189 59.9035 22.1724 59.8795 22.1393 59.8608C22.1066 59.842 22.0564 59.8255 21.9895 59.811C21.9216 59.7966 21.8414 59.7832 21.7468 59.7709ZM22.5612 59.8244C22.6633 59.7314 22.7628 59.6624 22.859 59.6175C22.9553 59.572 23.0296 59.5495 23.082 59.5495C23.0964 59.5495 23.1093 59.5554 23.1216 59.5672C23.1339 59.579 23.1435 59.5929 23.1504 59.6084C23.1574 59.6239 23.1611 59.6351 23.1611 59.6431C23.1611 59.6549 23.1563 59.664 23.1467 59.6693C23.1376 59.6752 23.121 59.6822 23.0975 59.6902C23.1023 59.7009 23.1082 59.7148 23.1157 59.7319C23.1232 59.7485 23.1285 59.7618 23.1328 59.7725C23.1371 59.7832 23.1387 59.7923 23.1387 59.8003C23.1387 59.8164 23.1221 59.8463 23.0895 59.8907C23.0574 59.9346 23.0344 59.9672 23.021 59.988C23.0082 60.0089 23.0013 60.0345 23.0013 60.065C23.0013 60.1148 23.0242 60.1399 23.0702 60.1399C23.1173 60.1399 23.1911 60.0955 23.2911 60.0073V60.0688C23.121 60.2581 22.9991 60.3522 22.9259 60.3522C22.8991 60.3522 22.8804 60.3436 22.8692 60.3265C22.8579 60.3094 22.8526 60.2843 22.8526 60.2506C22.8526 60.1971 22.8718 60.1206 22.9104 60.0196C22.812 60.1281 22.7392 60.2062 22.6911 60.2522C22.6435 60.2982 22.6039 60.3212 22.5729 60.3212C22.5585 60.3212 22.5398 60.3083 22.5179 60.2827C22.4954 60.257 22.4761 60.2238 22.4585 60.1832C22.4414 60.1426 22.4328 60.1003 22.4328 60.0565C22.4328 60.0249 22.436 59.9987 22.4419 59.9773C22.4478 59.9559 22.4596 59.9346 22.4772 59.9121C22.4949 59.8902 22.5227 59.8608 22.5612 59.8244ZM23.0451 59.7132C22.8697 59.7934 22.7451 59.8613 22.6708 59.9169C22.5959 59.9736 22.559 60.0308 22.559 60.0902C22.559 60.1116 22.5628 60.1297 22.5703 60.1431C22.5777 60.157 22.5874 60.164 22.6002 60.164C22.6077 60.164 22.6211 60.1591 22.6398 60.1495C22.7104 60.1078 22.7751 60.0538 22.8333 59.9864C22.8922 59.9196 22.9628 59.8281 23.0451 59.7132ZM23.9627 59.8223C23.844 59.9543 23.7846 60.0463 23.7846 60.0982C23.7846 60.1271 23.7964 60.1415 23.8199 60.1415C23.8397 60.1415 23.8649 60.1313 23.8964 60.1105C23.928 60.0902 23.9766 60.0538 24.0435 60.0014V60.0704C23.9477 60.165 23.8745 60.2329 23.8231 60.2746C23.7718 60.3164 23.7301 60.3377 23.698 60.3377C23.6429 60.3377 23.6151 60.3008 23.6151 60.2281C23.6151 60.2073 23.6189 60.1859 23.6253 60.165C23.6322 60.1442 23.6413 60.1222 23.6531 60.0998C23.6649 60.0768 23.6825 60.0452 23.7071 60.003C23.7312 59.9608 23.7595 59.9132 23.7911 59.8602C23.7526 59.8795 23.7044 59.918 23.6467 59.9757C23.6087 60.0121 23.5772 60.0468 23.5504 60.0795C23.5242 60.1121 23.4964 60.1484 23.4665 60.1886C23.4365 60.2287 23.4141 60.2554 23.4007 60.2693C23.3868 60.2832 23.3729 60.2902 23.359 60.2902C23.3371 60.2902 23.3173 60.2677 23.2991 60.2222C23.2809 60.1773 23.2718 60.1244 23.2718 60.0645C23.2718 60.0276 23.2761 59.9987 23.2847 59.9779C23.2927 59.957 23.3098 59.9276 23.3349 59.8891C23.3809 59.8174 23.421 59.765 23.4547 59.7319C23.4884 59.6987 23.521 59.6816 23.5515 59.6816C23.5729 59.6816 23.5905 59.6854 23.6034 59.6929C23.6167 59.7003 23.6232 59.7116 23.6232 59.7271C23.6232 59.734 23.6216 59.741 23.6173 59.7485C23.613 59.7565 23.6087 59.7629 23.6034 59.7688C23.5986 59.7747 23.5879 59.787 23.5718 59.8041C23.4654 59.9217 23.4125 59.9987 23.4125 60.0335C23.4125 60.0527 23.4189 60.0624 23.4317 60.0624C23.4397 60.0624 23.4552 60.0495 23.4788 60.0239C23.5018 59.9977 23.5317 59.9634 23.5681 59.9217C23.605 59.8795 23.6488 59.8356 23.6986 59.7902C23.7488 59.7442 23.806 59.6998 23.8697 59.6576C23.9055 59.6324 23.9349 59.6201 23.9584 59.6201C23.9697 59.6201 23.9798 59.6351 23.9905 59.6645C24.0007 59.6939 24.006 59.7244 24.006 59.7549C24.006 59.7699 23.9916 59.7923 23.9627 59.8223ZM24.7985 60.0051V60.073C24.7231 60.1613 24.66 60.2281 24.6087 60.2736C24.5579 60.319 24.5151 60.3415 24.4803 60.3415C24.4472 60.3415 24.4178 60.3319 24.391 60.3126C24.3648 60.2928 24.3408 60.2661 24.3194 60.2319C24.298 60.1971 24.2729 60.1495 24.244 60.0886C24.2098 60.1308 24.1787 60.1704 24.1509 60.2073C24.1237 60.2436 24.1044 60.2682 24.0937 60.28C24.083 60.2923 24.0729 60.2982 24.0643 60.2982C24.0461 60.2982 24.0328 60.2864 24.0247 60.2634C24.0167 60.2404 24.0124 60.2062 24.0124 60.1618C24.0124 60.1014 24.0199 60.0431 24.0344 59.987C24.0488 59.9308 24.0697 59.8757 24.0969 59.8228C24.1242 59.7699 24.1595 59.7121 24.2023 59.6506C24.2451 59.5891 24.2926 59.5244 24.3461 59.4576C24.4194 59.3645 24.483 59.2886 24.536 59.2298C24.5889 59.1709 24.6354 59.126 24.675 59.0961C24.714 59.0661 24.7472 59.0517 24.7734 59.0517C24.806 59.0517 24.822 59.0661 24.822 59.095C24.822 59.1196 24.7627 59.2094 24.6434 59.364C24.5242 59.5185 24.3504 59.7292 24.1221 59.9966V60.0832C24.275 59.9196 24.398 59.7982 24.491 59.7185C24.5846 59.6388 24.6568 59.5993 24.7081 59.5993C24.7285 59.5993 24.745 59.6116 24.7563 59.6362C24.7675 59.6608 24.7734 59.6891 24.7734 59.7217C24.7734 59.7875 24.745 59.8485 24.6889 59.9051C24.6322 59.9613 24.545 60.026 24.4279 60.0987C24.4483 60.1287 24.4659 60.1506 24.4814 60.1645C24.4969 60.1784 24.5162 60.1853 24.5402 60.1853C24.5611 60.1853 24.5835 60.1779 24.6076 60.164C24.6317 60.1495 24.6568 60.1324 24.6819 60.1105C24.7071 60.0891 24.7461 60.0538 24.7985 60.0051ZM24.3996 60.057C24.4253 60.0399 24.4573 60.0137 24.4948 59.9784C24.5333 59.9431 24.5659 59.9062 24.5926 59.8682C24.6194 59.8303 24.6327 59.7982 24.6327 59.7725C24.6327 59.7618 24.6279 59.7565 24.6188 59.7565C24.5932 59.7565 24.5493 59.7811 24.4873 59.8303C24.4247 59.8795 24.3643 59.9426 24.3049 60.0196C24.3301 60.0196 24.3622 60.0319 24.3996 60.057Z" fill="#ED1C24"/>
<path fill-rule="evenodd" clip-rule="evenodd" d="M17.5218 56.6181C16.1518 56.3267 15.2246 56.6235 14.085 57.6657C14.0139 57.6972 13.9883 57.6715 14.008 57.5887L17.8031 53.0584C18.6982 51.9894 18.9656 51.3862 20.1345 51.3558C20.9361 51.3349 21.4409 51.1606 21.6147 50.7638C21.6847 50.6034 21.6853 50.3767 21.696 50.0975C21.7323 49.1794 22.0291 48.4805 22.5398 47.9998C22.251 48.5521 22.1783 49.1912 22.3847 49.8975C22.6243 50.7189 22.481 51.3012 21.9328 51.7183C21.566 51.998 20.9126 52.0408 19.9121 51.9627C19.3827 51.9215 19.0875 52.1167 19.0314 52.3771C19.3747 52.4178 19.9618 52.6274 20.8302 52.8953C22.5195 53.4166 23.5617 52.9792 23.1692 51.8739C23.5991 52.4119 23.5601 53.0001 23.021 53.6134C22.5227 54.1802 21.6184 54.307 20.3933 53.8573C19.2586 53.4412 18.5223 53.3364 18.1212 53.7022C18.8217 53.7856 19.6276 54.0343 20.5265 54.4717C21.7414 55.0631 22.6403 55.2898 23.2061 55.0567C23.7996 54.8118 23.9595 54.2829 23.7167 53.5391C24.2493 54.1706 24.2878 54.8209 23.8055 55.4711C23.22 56.2609 22.1778 56.3582 20.6971 55.8042C19.8741 55.4962 19.1255 55.2342 18.4469 55.0417C17.6165 54.807 17.0694 54.9283 16.8186 55.3599C17.8491 55.2925 19.018 55.6615 20.3714 56.3818C22.5125 57.5207 23.8649 57.3881 24.383 56.0705C24.6916 56.871 24.3921 57.5919 23.4355 58.1507C22.8034 58.5196 21.8275 58.4421 20.4618 57.902C19.8565 57.663 18.2351 56.7705 17.5218 56.6181Z" fill="#1D5580"/>
<path fill-rule="evenodd" clip-rule="evenodd" d="M17.5218 56.6181C16.1518 56.3267 15.2246 56.6235 14.085 57.6657C14.0139 57.6972 13.9883 57.6715 14.008 57.5887L17.8031 53.0584C18.6982 51.9894 18.9656 51.3862 20.1345 51.3558C20.9361 51.3349 21.4409 51.1606 21.6147 50.7638C21.6847 50.6034 21.6853 50.3767 21.696 50.0975C21.7323 49.1794 22.0291 48.4805 22.5398 47.9998C22.251 48.5521 22.1783 49.1912 22.3847 49.8975C22.6243 50.7189 22.481 51.3012 21.9328 51.7183C21.566 51.998 20.9126 52.0408 19.9121 51.9627C19.3827 51.9215 19.0875 52.1167 19.0314 52.3771C19.3747 52.4178 19.9618 52.6274 20.8302 52.8953C22.5195 53.4166 23.5617 52.9792 23.1692 51.8739C23.5991 52.4119 23.5601 53.0001 23.021 53.6134C22.5227 54.1802 21.6184 54.307 20.3933 53.8573C19.2586 53.4412 18.5223 53.3364 18.1212 53.7022C18.8217 53.7856 19.6276 54.0343 20.5265 54.4717C21.7414 55.0631 22.6403 55.2898 23.2061 55.0567C23.7996 54.8118 23.9595 54.2829 23.7167 53.5391C24.2493 54.1706 24.2878 54.8209 23.8055 55.4711C23.22 56.2609 22.1778 56.3582 20.6971 55.8042C19.8741 55.4962 19.1255 55.2342 18.4469 55.0417C17.6165 54.807 17.0694 54.9283 16.8186 55.3599C17.8491 55.2925 19.018 55.6615 20.3714 56.3818C22.5125 57.5207 23.8649 57.3881 24.383 56.0705C24.6916 56.871 24.3921 57.5919 23.4355 58.1507C22.8034 58.5196 21.8275 58.4421 20.4618 57.902C19.8565 57.663 18.2351 56.7705 17.5218 56.6181Z" fill="#2AA7DE"/>
</svg>
