<svg width="109" height="108" viewBox="0 0 109 108" fill="none" xmlns="http://www.w3.org/2000/svg">
<g clip-path="url(#clip0_801_8434)">
<path fill-rule="evenodd" clip-rule="evenodd" d="M14.6164 60.6244C17.547 59.5527 19.8813 58.2848 21.6037 56.8094C21.8298 56.9632 22.0753 57.1027 22.341 57.2288C22.4619 57.2863 22.5836 57.3393 22.7059 57.3878C21.0179 58.9587 18.6164 60.4176 15.5455 61.7758L14.6164 60.6244ZM22.2709 56.1982C22.6373 55.8378 22.9694 55.4654 23.2679 55.0811C23.4604 54.8326 23.6276 54.5915 23.7709 54.3572C23.9112 54.3572 24.0507 54.3609 24.1888 54.3699C24.4627 54.387 24.7156 54.4214 24.947 54.4706C24.5597 55.2729 24.0089 56.049 23.3 56.7997C22.9059 56.6348 22.5627 56.4333 22.2709 56.1982ZM24.238 53.3841C24.5462 52.4579 24.3821 51.6781 23.7298 51.0796C22.8492 50.2721 21.1224 49.852 18.644 49.7102C19.8895 49.5094 21.1962 49.5064 22.5567 49.746C24.8358 50.1482 25.888 51.3102 25.4373 53.1251C25.3985 53.2811 25.3537 53.437 25.303 53.5915C24.9679 53.4908 24.6127 53.4214 24.238 53.3841Z" fill="#F6D300"/>
<path d="M14.5925 60.5579C16.0545 60.0236 17.3679 59.44 18.5291 58.8065C19.6903 58.1736 20.7 57.4908 21.5582 56.7565L21.5985 56.7214L21.6433 56.7512C21.7545 56.8266 21.8709 56.8997 21.9933 56.9691C22.1142 57.0378 22.2396 57.1035 22.3709 57.1654C22.4343 57.1953 22.494 57.2229 22.5507 57.2475C22.6127 57.2744 22.6724 57.299 22.7313 57.3229L22.8351 57.3639L22.7537 57.4393C21.9067 58.2281 20.8806 58.9885 19.6813 59.7221C18.4828 60.4542 17.1119 61.1602 15.5739 61.84L15.5246 61.8624L15.491 61.8199L14.5619 60.6684L14.5 60.5923L14.5925 60.5579ZM18.597 58.9303C17.453 59.5535 16.1642 60.1288 14.7328 60.6565L15.5664 61.6893C17.0791 61.0184 18.4284 60.3229 19.6075 59.6012C20.7612 58.8968 21.7522 58.1669 22.5769 57.4109C22.5493 57.3997 22.5216 57.3878 22.4948 57.3766C22.4299 57.3482 22.3687 57.3199 22.3104 57.293C22.1776 57.2296 22.0485 57.1624 21.9239 57.0915C21.8157 57.0296 21.7104 56.9654 21.609 56.8975C20.753 57.6251 19.7478 58.302 18.597 58.9303ZM22.2209 56.1482C22.4037 55.9684 22.5776 55.7863 22.7425 55.602L22.7418 55.6012C22.9082 55.4154 23.0649 55.2273 23.2119 55.0378C23.306 54.9169 23.3955 54.7953 23.4799 54.6744C23.5634 54.5535 23.6403 54.4356 23.7112 54.3206L23.7313 54.2871H23.7709C23.8425 54.2871 23.9127 54.2878 23.9828 54.29C24.0552 54.2915 24.1254 54.2953 24.1933 54.2997C24.3306 54.3079 24.4634 54.3214 24.5918 54.3385C24.7209 54.3557 24.8448 54.3766 24.9619 54.402L25.0493 54.4206L25.0104 54.5012C24.8157 54.905 24.5791 55.3027 24.3015 55.6945C24.0246 56.0863 23.7075 56.4706 23.3515 56.8475L23.3179 56.8833L23.2731 56.8647C23.0731 56.7811 22.8858 56.6885 22.7127 56.5871C22.5381 56.4848 22.3761 56.3736 22.2261 56.2527L22.1649 56.2035L22.2209 56.1482ZM22.847 55.6953C22.697 55.8639 22.5396 56.0296 22.3769 56.1923C22.503 56.2893 22.6381 56.3803 22.7836 56.4654C22.9396 56.5565 23.106 56.64 23.2821 56.7154C23.6216 56.3535 23.9231 55.9863 24.1866 55.6139C24.4403 55.2557 24.6597 54.8915 24.844 54.5214C24.756 54.505 24.6657 54.49 24.5731 54.4781C24.45 54.4617 24.3201 54.449 24.1843 54.44C24.1142 54.4356 24.0455 54.4326 23.9791 54.4303C23.9224 54.4288 23.8664 54.4281 23.8104 54.4273C23.7433 54.5363 23.6716 54.6453 23.5955 54.755C23.5119 54.8744 23.4216 54.9975 23.3231 55.1236C23.1724 55.3184 23.0134 55.5087 22.8478 55.6953H22.847ZM24.1709 53.3617C24.3216 52.9094 24.3567 52.4938 24.2746 52.1199C24.1933 51.7505 23.9963 51.4199 23.6821 51.1318C23.2507 50.7356 22.609 50.4341 21.7687 50.2132C20.9216 49.9908 19.8746 49.8512 18.6403 49.7811L17.9955 49.7438L18.6328 49.6408C19.2701 49.5385 19.9231 49.487 20.591 49.493C21.2373 49.499 21.897 49.5579 22.5687 49.6766C22.7455 49.7079 22.9164 49.7438 23.0806 49.7848C24.009 50.0154 24.6963 50.3945 25.1187 50.9132C25.544 51.4348 25.6993 52.0953 25.5604 52.8826C25.5463 52.9669 25.5276 53.0527 25.506 53.1415C25.4858 53.2221 25.4642 53.3012 25.4425 53.3781C25.4201 53.4557 25.3955 53.5348 25.3694 53.6132L25.3485 53.6788L25.2821 53.6594C25.1164 53.6087 24.9463 53.5669 24.7724 53.5333C24.5963 53.499 24.4157 53.4721 24.2306 53.4535L24.1433 53.4445L24.1709 53.3617ZM24.4119 52.0893C24.4948 52.4654 24.4672 52.8781 24.3313 53.3229C24.491 53.3415 24.647 53.3654 24.7985 53.3945C24.956 53.4251 25.1082 53.4617 25.2567 53.5042C25.2739 53.4497 25.291 53.3945 25.3067 53.3393C25.3291 53.2609 25.35 53.1833 25.3687 53.1079C25.3896 53.0244 25.4075 52.9408 25.4216 52.8587C25.5537 52.1132 25.4082 51.4908 25.0097 51.0012C24.6067 50.5079 23.9455 50.1445 23.047 49.9214C22.8881 49.8818 22.7201 49.8468 22.544 49.8154C21.8791 49.6982 21.2269 49.6393 20.5903 49.6333C20.1709 49.6296 19.7567 49.649 19.3493 49.6893C20.2933 49.7691 21.1134 49.896 21.8045 50.0773C22.6672 50.3035 23.3291 50.6162 23.7776 51.0281C24.1134 51.3363 24.3246 51.6915 24.4119 52.0893Z" fill="#3D107A"/>
<path fill-rule="evenodd" clip-rule="evenodd" d="M25.5582 53.6758C24.3328 53.2303 22.8045 53.2512 21.0306 53.6639C21.0522 54.0661 21.1261 54.4393 21.2507 54.7811C22.2739 54.4684 23.2537 54.3094 24.1888 54.3699C26.6224 54.5258 27.388 55.9676 26.2515 58.1572C25.4082 59.7825 23.8455 61.1288 21.8768 62.3721C24.153 61.3079 25.7798 60.0669 26.7142 58.6199C28.1963 56.3228 27.8485 54.5102 25.5582 53.6758ZM19.756 54.0139C18.8821 54.2878 17.9589 54.6415 16.991 55.0676L17.9515 56.1743C18.7007 55.793 19.4306 55.4527 20.1403 55.1728C19.9604 54.8139 19.8321 54.4266 19.756 54.0139Z" fill="#F6D300"/>
<path d="M25.5343 53.7423C24.9291 53.5221 24.2485 53.4169 23.5 53.4184C22.7657 53.4191 21.9642 53.5229 21.1045 53.7191C21.1164 53.896 21.1388 54.0669 21.1709 54.2318C21.203 54.3923 21.244 54.5467 21.2948 54.6945C21.7881 54.5467 22.2709 54.4348 22.7433 54.3662C23.2373 54.2938 23.7209 54.2691 24.1933 54.2997C24.8455 54.3415 25.3813 54.4744 25.7955 54.6893C26.1627 54.8803 26.4351 55.1348 26.6097 55.4467C26.7836 55.7587 26.8589 56.1259 26.8328 56.5408C26.8015 57.0273 26.6298 57.5811 26.3142 58.19C25.8888 59.0094 25.2821 59.7587 24.5343 60.4594C24.0403 60.9221 23.4851 61.3632 22.8791 61.7893C23.5813 61.4087 24.2075 61.0072 24.756 60.5841C25.5575 59.9647 26.1925 59.2982 26.6545 58.5818C26.9425 58.1356 27.1604 57.7087 27.3075 57.3042C27.5522 56.6326 27.6015 56.0236 27.4515 55.4953C27.303 54.9691 26.9545 54.5199 26.4045 54.1647C26.1552 54.0042 25.8657 53.8632 25.5343 53.7423ZM23.5 53.2781C24.2649 53.2766 24.9619 53.3841 25.5821 53.6102C25.9239 53.7348 26.2231 53.8803 26.4806 54.0467C27.0612 54.4214 27.4284 54.8975 27.5873 55.4572C27.7455 56.0147 27.6948 56.6527 27.4403 57.3527C27.2888 57.7669 27.0664 58.2035 26.7731 58.6579C26.3022 59.3885 25.656 60.0662 24.8418 60.6953C24.0298 61.3229 23.0492 61.9012 21.9067 62.4356L20.8978 62.9072L21.8395 62.3124C22.8209 61.693 23.7 61.0482 24.4381 60.3564C25.1746 59.6676 25.7709 58.9303 26.1888 58.1251C26.4963 57.5341 26.6619 56.999 26.6918 56.5318C26.7164 56.1438 26.6478 55.8027 26.4866 55.5154C26.3261 55.2281 26.0731 54.9923 25.7306 54.8147C25.3336 54.6087 24.8172 54.4803 24.1843 54.44C23.7224 54.4102 23.2478 54.4348 22.7627 54.505C22.2761 54.5759 21.7784 54.693 21.2709 54.849L21.2075 54.8684L21.1843 54.8057C21.1209 54.6311 21.0701 54.4482 21.0328 54.2594C20.9955 54.0699 20.9709 53.8729 20.9604 53.6676L20.9567 53.6087L21.0142 53.5953C21.906 53.3878 22.7366 53.2788 23.5 53.2781ZM19.7022 54.105C19.291 54.2356 18.8679 54.3841 18.4343 54.549C18.0015 54.7139 17.5597 54.896 17.1075 55.0938L17.9686 56.087C18.3239 55.9065 18.6784 55.7341 19.0313 55.5721V55.5714C19.3731 55.4147 19.7104 55.2684 20.044 55.1348C19.9664 54.9744 19.9 54.8079 19.8425 54.6356C19.7858 54.4639 19.7388 54.2863 19.7022 54.105ZM18.3836 54.4176C18.8455 54.2415 19.2963 54.0841 19.7351 53.9467L19.8104 53.9229L19.8254 54.0012C19.8627 54.205 19.9134 54.402 19.9761 54.5915C20.0388 54.7818 20.1149 54.9647 20.203 55.1408L20.2373 55.2102L20.1657 55.2378C19.8119 55.3773 19.4537 55.5326 19.0903 55.6997H19.0895C18.7298 55.8654 18.3604 56.0453 17.9836 56.2378L17.9351 56.2624L17.8985 56.2206L16.9381 55.1139L16.8754 55.0415L16.9627 55.0035C17.4478 54.7893 17.9216 54.5938 18.3836 54.4176Z" fill="#3D107A"/>
<path fill-rule="evenodd" clip-rule="evenodd" d="M20.047 50.8631C20.1545 50.525 20.2776 50.1974 20.4142 49.878C20.9687 49.9556 21.4679 50.0556 21.9112 50.1788C21.5522 50.8377 21.303 51.4862 21.1672 52.125C20.6478 54.5698 21.5373 56.2765 23.7993 56.9803C24.6993 57.2601 25.6582 57.2922 26.6657 57.1146C26.6284 57.2579 26.5806 57.4049 26.5231 57.5571C25.0955 57.9437 23.6866 57.8683 22.3411 57.2288C19.9269 56.0818 19.1202 53.772 20.047 50.8631ZM27.5 56.9235C28.1067 56.7534 28.7291 56.5153 29.3649 56.2153C28.7097 56.6512 28.0522 57.0041 27.3963 57.2646C27.4366 57.1489 27.4709 57.0355 27.5 56.9235ZM20.5552 49.5631C21.3642 47.8295 22.5948 46.3668 24.0605 45.1101L24.9187 46.4653C23.759 47.5698 22.8448 48.6429 22.1963 49.6877C21.6403 49.6071 21.0925 49.5661 20.5552 49.5631Z" fill="#F6D300"/>
<path d="M19.9799 50.8415C20.0336 50.6713 20.0918 50.5042 20.1537 50.3392C20.2157 50.1721 20.2814 50.0094 20.3493 49.8504L20.3709 49.8004L20.4239 49.8079C20.7008 49.8474 20.9657 49.8915 21.2179 49.9422C21.4702 49.993 21.7075 50.0489 21.9299 50.1109L22.0149 50.1348L21.9724 50.2124C21.7955 50.5385 21.6448 50.8624 21.5209 51.1848C21.3985 51.5057 21.303 51.8243 21.2358 52.14C20.9784 53.3512 21.0709 54.3766 21.5082 55.184C21.9411 55.9818 22.7127 56.5683 23.8202 56.9131C24.2642 57.0512 24.7231 57.128 25.1948 57.1482C25.6679 57.1691 26.1545 57.1333 26.6537 57.0452L26.7612 57.0258L26.7336 57.1318C26.7149 57.2057 26.6933 57.2795 26.6687 57.3542C26.644 57.4303 26.6179 57.5064 26.5888 57.5825L26.5761 57.6161L26.5411 57.6251C25.8075 57.8236 25.0784 57.9019 24.3597 57.8452C23.6649 57.7907 22.9799 57.6109 22.3105 57.293C21.0903 56.7124 20.2739 55.8385 19.8784 54.7407C19.4821 53.64 19.5105 52.3161 19.9799 50.8415ZM20.2851 50.3877C20.2246 50.5512 20.1672 50.7169 20.1142 50.884C19.6537 52.328 19.6246 53.6213 20.0112 54.6937C20.3933 55.7549 21.1851 56.6019 22.3709 57.1654C23.0239 57.4758 23.6925 57.6519 24.3709 57.7049C25.062 57.7594 25.7634 57.6863 26.4702 57.4982C26.494 57.434 26.5157 57.3721 26.5351 57.3116C26.547 57.2743 26.5582 57.2385 26.5687 57.2027C26.0985 57.278 25.6381 57.3086 25.1888 57.2892C24.7045 57.2683 24.2336 57.1892 23.7784 57.0474C22.6343 56.6915 21.8343 56.0818 21.3843 55.2512C20.9306 54.4139 20.8336 53.3557 21.0978 52.1109C21.1664 51.7877 21.2642 51.4616 21.3896 51.1348C21.5045 50.8333 21.644 50.5303 21.8067 50.2236C21.612 50.1713 21.406 50.1236 21.1903 50.0803C20.9597 50.034 20.7157 49.9922 20.4575 49.9549C20.397 50.0989 20.3396 50.243 20.2851 50.3877ZM27.4806 56.8557C27.7814 56.7721 28.0866 56.6698 28.3963 56.5519C28.706 56.4348 29.0194 56.3004 29.3351 56.1519L30.2037 55.7422L29.4037 56.2743C29.0731 56.4937 28.7403 56.6937 28.4075 56.8713C28.0791 57.046 27.7508 57.1997 27.4224 57.3303L27.2799 57.387L27.3299 57.2422C27.3485 57.1892 27.3664 57.1325 27.3851 57.0721C27.4022 57.0161 27.4179 56.9609 27.4314 56.9064L27.4418 56.8669L27.4806 56.8557ZM28.4463 56.684C28.1478 56.7974 27.8515 56.8967 27.5575 56.9803C27.5455 57.0243 27.5328 57.0683 27.5194 57.1131H27.5202L27.5105 57.1422C27.7873 57.0266 28.0642 56.8945 28.3411 56.7474C28.3888 56.7221 28.4358 56.696 28.4836 56.6698L28.4463 56.684ZM20.4918 49.5333C20.8985 48.6616 21.4112 47.8579 22.0067 47.1139C22.6015 46.3706 23.2791 45.687 24.0149 45.0564L24.0769 45.0034L24.1202 45.0721L24.9784 46.428L25.009 46.4766L24.9672 46.5169C24.3888 47.0669 23.8724 47.6094 23.4194 48.1445C22.9672 48.6788 22.5784 49.2057 22.2567 49.7251L22.2321 49.7646L22.1866 49.7579C21.9127 49.7176 21.6403 49.6877 21.3694 49.6669C21.0933 49.646 20.8224 49.6348 20.5552 49.6333L20.4455 49.6325L20.4918 49.5333ZM22.1164 47.2012C21.5508 47.9086 21.0605 48.6698 20.6657 49.4937C20.903 49.4974 21.1418 49.5079 21.3799 49.5266C21.6381 49.546 21.8985 49.5743 22.1612 49.6116C22.4828 49.0982 22.8672 48.5788 23.312 48.0534C23.7567 47.528 24.2634 46.9952 24.8284 46.4549L24.0448 45.2161C23.3388 45.8273 22.6888 46.487 22.1164 47.2012Z" fill="#3D107A"/>
<path fill-rule="evenodd" clip-rule="evenodd" d="M36.2836 51.5556C36.6373 51.6317 36.9015 51.7511 37.0776 51.9176C37.3209 52.1489 37.4425 52.4317 37.4425 52.7661C37.4425 53.0206 37.3627 53.2646 37.2022 53.4967C37.0418 53.7295 36.8216 53.8989 36.5418 54.0056C36.2634 54.1123 35.8366 54.1661 35.2619 54.1661H32.8552V54.028H33.0455C33.2575 54.028 33.4097 53.9594 33.5022 53.8243C33.5597 53.737 33.5881 53.5497 33.5881 53.2646V49.9571C33.5881 49.6414 33.5522 49.4422 33.4799 49.3601C33.3821 49.2489 33.2388 49.1937 33.0455 49.1937H32.8552V49.0549H35.0582C35.4694 49.0549 35.7978 49.0847 36.0463 49.1452C36.4224 49.2362 36.709 49.3959 36.9067 49.6258C37.1045 49.8556 37.2037 50.1191 37.2037 50.4183C37.2037 50.6743 37.1269 50.9026 36.9709 51.1056C36.8157 51.3079 36.5866 51.4579 36.2836 51.5556ZM34.3127 51.3459C34.4052 51.3638 34.5119 51.3773 34.6299 51.3862C34.7493 51.3952 34.8806 51.3989 35.0231 51.3989C35.3896 51.3989 35.6657 51.3586 35.8493 51.281C36.0328 51.2019 36.1746 51.0817 36.2724 50.9183C36.3687 50.7564 36.4172 50.5788 36.4172 50.3862C36.4172 50.0885 36.2955 49.8347 36.0522 49.6243C35.8097 49.4153 35.4552 49.3094 34.9896 49.3094C34.7396 49.3094 34.5134 49.3362 34.3127 49.3914V51.3459ZM34.3127 53.7952C34.6045 53.8631 34.8933 53.8967 35.1776 53.8967C35.6336 53.8967 35.9821 53.7937 36.2209 53.5892C36.4597 53.3855 36.5791 53.1317 36.5791 52.8317C36.5791 52.6332 36.5239 52.4422 36.4119 52.2594C36.3015 52.0758 36.1246 51.9317 35.8813 51.8265C35.6388 51.7213 35.3366 51.6683 34.9784 51.6683C34.8224 51.6683 34.6903 51.6713 34.5799 51.6765C34.4694 51.6817 34.3806 51.6907 34.3127 51.7019V53.7952ZM41.3985 52.4631H39.4187L39.0769 53.2631C38.9918 53.4609 38.9485 53.6101 38.9485 53.7079C38.9485 53.7847 38.9858 53.8541 39.0604 53.9131C39.1336 53.9713 39.294 54.0094 39.5396 54.028V54.1661H37.9284V54.028C38.1418 53.9907 38.2791 53.9414 38.3418 53.881C38.4702 53.7601 38.6119 53.5153 38.7672 53.1459L40.5649 48.9392H40.6918L42.4687 53.1914C42.6119 53.5332 42.741 53.7541 42.8582 53.8564C42.9754 53.9579 43.1373 54.0146 43.3463 54.028V54.1661H41.3321V54.028C41.5351 54.0176 41.6724 53.984 41.744 53.9265C41.8164 53.8683 41.8507 53.7974 41.8507 53.7138C41.8507 53.6034 41.8007 53.4288 41.7007 53.19L41.3985 52.4631ZM41.2828 52.1855L40.4224 50.1228L39.5381 52.1855H41.2828ZM43.3313 49.0549H44.7045L47.8358 52.8929V49.9414C47.8358 49.6273 47.8 49.4303 47.7291 49.3519C47.6358 49.2467 47.4866 49.1937 47.2836 49.1937H47.1037V49.0549H48.9V49.1937H48.7172C48.4978 49.1937 48.3433 49.2594 48.2507 49.3907C48.1955 49.4713 48.1672 49.6556 48.1672 49.9414V54.2489H48.0313L44.6672 50.1317V53.2795C44.6672 53.5944 44.7022 53.7914 44.7701 53.8698C44.8664 53.975 45.0157 54.028 45.2172 54.028H45.4V54.1661H43.6037V54.028H43.7836C44.0045 54.028 44.1597 53.9623 44.2522 53.831C44.3075 53.7504 44.3358 53.5661 44.3358 53.2795V49.7258C44.1881 49.5526 44.0754 49.4377 43.9993 49.3825C43.9224 49.3273 43.8104 49.2765 43.6627 49.2273C43.5896 49.2056 43.4791 49.1937 43.3313 49.1937V49.0549ZM51.3037 51.3317L53.1903 53.2019C53.4993 53.5138 53.7627 53.7258 53.9813 53.8377C54.2 53.9489 54.4187 54.0123 54.6366 54.028V54.1661H52.203V54.028C52.35 54.028 52.4537 54.0034 52.5179 53.9541C52.5821 53.9056 52.6142 53.8504 52.6142 53.79C52.6142 53.7295 52.6015 53.6758 52.5784 53.628C52.5537 53.5803 52.4754 53.4907 52.3433 53.3609L50.5821 51.6146V53.2646C50.5821 53.5228 50.5985 53.6937 50.6321 53.7758C50.656 53.8385 50.7104 53.8929 50.791 53.9377C50.9 53.9982 51.0157 54.028 51.1381 54.028H51.3142V54.1661H49.1246V54.028H49.306C49.5179 54.028 49.6709 53.9661 49.7672 53.8437C49.8276 53.7631 49.8567 53.5706 49.8567 53.2646V49.9571C49.8567 49.6989 49.8403 49.5265 49.8082 49.4422C49.7828 49.3817 49.7313 49.3288 49.653 49.284C49.5425 49.2235 49.4269 49.1937 49.306 49.1937H49.1246V49.0549H51.3142V49.1937H51.1381C51.0187 49.1937 50.903 49.222 50.791 49.2803C50.7127 49.3198 50.6575 49.3803 50.6284 49.4616C50.597 49.5407 50.5821 49.7064 50.5821 49.9571V51.525C50.6321 51.4758 50.8037 51.3168 51.097 51.0452C51.8418 50.3616 52.2933 49.9056 52.4485 49.6773C52.5164 49.5758 52.55 49.4885 52.55 49.4123C52.55 49.3549 52.5231 49.3041 52.4701 49.2594C52.4179 49.2161 52.3291 49.1937 52.203 49.1937H52.0873V49.0549H53.9672V49.1937C53.8567 49.1967 53.7567 49.2116 53.6664 49.24C53.5754 49.2676 53.4649 49.3213 53.3351 49.4011C53.2045 49.4817 53.0433 49.6101 52.8537 49.7877C52.7985 49.8377 52.5425 50.0944 52.0866 50.5586L51.3037 51.3317ZM60.9209 52.7556L61.044 52.7825L60.6052 54.1661H56.65V54.028H56.8418C57.0575 54.028 57.2119 53.9579 57.3045 53.8183C57.3567 53.7385 57.3828 53.5534 57.3828 53.2646V49.9571C57.3828 49.6385 57.3478 49.4392 57.2769 49.3601C57.1799 49.2489 57.0343 49.1937 56.8418 49.1937H56.65V49.0549H58.9627V49.1937C58.6918 49.1914 58.5015 49.2161 58.391 49.2683C58.2821 49.3198 58.2075 49.387 58.1679 49.4653C58.1276 49.5444 58.1075 49.7347 58.1075 50.034V53.2571C58.1075 53.4661 58.1276 53.6086 58.1679 53.687C58.197 53.7414 58.2448 53.7795 58.3075 53.8056C58.3694 53.8295 58.5657 53.8429 58.8963 53.8429H59.2687C59.6619 53.8429 59.9366 53.8146 60.0948 53.7564C60.253 53.6989 60.3978 53.5959 60.5291 53.4497C60.659 53.3034 60.7903 53.0713 60.9209 52.7556ZM64.7373 52.4631H62.7575L62.4157 53.2631C62.3306 53.4609 62.2866 53.6101 62.2866 53.7079C62.2866 53.7847 62.3239 53.8541 62.3985 53.9131C62.4716 53.9713 62.6328 54.0094 62.8776 54.028V54.1661H61.2664V54.028C61.4799 53.9907 61.6172 53.9414 61.6806 53.881C61.809 53.7601 61.95 53.5153 62.106 53.1459L63.903 48.9392H64.0306L65.8075 53.1914C65.95 53.5332 66.0799 53.7541 66.197 53.8564C66.3134 53.9579 66.4754 54.0146 66.6851 54.028V54.1661H64.6702V54.028C64.8731 54.0176 65.0112 53.984 65.0828 53.9265C65.1545 53.8683 65.1896 53.7974 65.1896 53.7138C65.1896 53.6034 65.1396 53.4288 65.0388 53.19L64.7373 52.4631ZM64.6216 52.1855L63.7605 50.1228L62.8769 52.1855H64.6216ZM69.9254 54.1661L67.9522 49.8661V53.2795C67.9522 53.5944 67.9866 53.7914 68.0545 53.8698C68.1485 53.975 68.2978 54.028 68.5015 54.028H68.6843V54.1661H66.8881V54.028H67.0716C67.2903 54.028 67.444 53.9623 67.5366 53.831C67.5918 53.7504 67.6202 53.5661 67.6202 53.2795V49.9414C67.6202 49.7153 67.5948 49.5511 67.5448 49.4511C67.509 49.378 67.4433 49.3176 67.3478 49.2676C67.2515 49.2183 67.0985 49.1937 66.8881 49.1937V49.0549H68.353L70.1955 53.0511L72.0209 49.0549H73.4716V49.1937H73.2933C73.0709 49.1937 72.9157 49.2594 72.8231 49.3907C72.7679 49.4713 72.7396 49.6556 72.7396 49.9414V53.2795C72.7396 53.5944 72.7754 53.7914 72.8463 53.8698C72.9396 53.975 73.0888 54.028 73.2933 54.028H73.4716V54.1661H71.2821V54.028H71.4657C71.6873 54.028 71.841 53.9623 71.9313 53.831C71.9866 53.7504 72.0149 53.5661 72.0149 53.2795V49.8661L70.0485 54.1661H69.9254ZM75.2075 51.7698V53.2646C75.2075 53.5855 75.2425 53.7847 75.3127 53.8616C75.4082 53.972 75.5522 54.028 75.7448 54.028H75.9403V54.1661H73.7507V54.028H73.9433C74.159 54.028 74.3149 53.9571 74.4075 53.8168C74.4575 53.74 74.4828 53.5549 74.4828 53.2646V49.9571C74.4828 49.6362 74.4493 49.437 74.3813 49.3601C74.2821 49.2489 74.1373 49.1937 73.9433 49.1937H73.7507V49.0549H75.6239C76.0813 49.0549 76.441 49.1026 76.706 49.1967C76.9694 49.29 77.1918 49.4497 77.3724 49.6735C77.5537 49.8967 77.644 50.1616 77.644 50.4676C77.644 50.8847 77.506 51.2243 77.2313 51.4847C76.956 51.7459 76.5687 51.8765 76.0657 51.8765C75.9425 51.8765 75.8105 51.8676 75.6679 51.8497C75.5239 51.8332 75.3709 51.8064 75.2075 51.7698ZM75.2075 51.5541C75.3403 51.5803 75.4582 51.5989 75.5612 51.6109C75.6627 51.6235 75.7507 51.6303 75.8231 51.6303C76.0836 51.6303 76.3075 51.5288 76.4963 51.3265C76.6851 51.125 76.7806 50.8646 76.7806 50.5444C76.7806 50.3235 76.7351 50.1176 76.6455 49.9288C76.5552 49.74 76.4269 49.5989 76.2627 49.5049C76.097 49.4109 75.909 49.3638 75.7 49.3638C75.5709 49.3638 75.4082 49.3877 75.2075 49.4355V51.5541ZM81.6 49.1937V49.0549H83.3963V49.1937H83.2045C83.0045 49.1937 82.85 49.2773 82.7418 49.4459C82.6896 49.5243 82.6634 49.7041 82.6634 49.9877V52.0594C82.6634 52.572 82.6134 52.9691 82.5119 53.2519C82.4104 53.534 82.2105 53.7773 81.9134 53.9788C81.6164 54.1803 81.2127 54.2817 80.7015 54.2817C80.1455 54.2817 79.7224 54.1855 79.4351 53.9914C79.1455 53.7989 78.9418 53.5385 78.8216 53.2116C78.741 52.9885 78.7015 52.5691 78.7015 51.9541V49.9571C78.7015 49.6437 78.6575 49.4377 78.5716 49.3407C78.4851 49.2429 78.3455 49.1937 78.1522 49.1937H77.9612V49.0549H80.1657V49.1937H79.9709C79.7597 49.1937 79.6097 49.2609 79.5194 49.3929C79.4567 49.4832 79.4261 49.672 79.4261 49.9571V52.184C79.4261 52.3817 79.444 52.6094 79.4799 52.8661C79.5172 53.122 79.5828 53.3213 79.6776 53.4646C79.7739 53.6079 79.9112 53.7258 80.0903 53.8198C80.2701 53.9116 80.4896 53.9579 80.7507 53.9579C81.0843 53.9579 81.3843 53.8847 81.647 53.74C81.9105 53.5944 82.0903 53.4071 82.1873 53.181C82.2836 52.9534 82.3321 52.5683 82.3321 52.0258V49.9571C82.3321 49.6385 82.2978 49.4392 82.2269 49.3601C82.1291 49.2489 81.9843 49.1937 81.791 49.1937H81.6ZM83.3791 49.0549H84.753L87.8843 52.8929V49.9414C87.8843 49.6273 87.8485 49.4303 87.7776 49.3519C87.6836 49.2467 87.5343 49.1937 87.3313 49.1937H87.1515V49.0549H88.9478V49.1937H88.7657C88.5455 49.1937 88.3918 49.2594 88.2993 49.3907C88.244 49.4713 88.2157 49.6556 88.2157 49.9414V54.2489H88.0799L84.7157 50.1317V53.2795C84.7157 53.5944 84.75 53.7914 84.8187 53.8698C84.9149 53.975 85.0642 54.028 85.2657 54.028H85.4478V54.1661H83.6515V54.028H83.8313C84.053 54.028 84.2082 53.9623 84.3007 53.831C84.356 53.7504 84.3843 53.5661 84.3843 53.2795V49.7258C84.2366 49.5526 84.1231 49.4377 84.0478 49.3825C83.9702 49.3273 83.859 49.2765 83.7112 49.2273C83.6373 49.2056 83.5269 49.1937 83.3791 49.1937V49.0549ZM93.7754 48.9392L93.906 50.5511H93.7679C93.6351 50.1511 93.4634 49.8504 93.2537 49.6474C92.9508 49.3556 92.5612 49.2094 92.0858 49.2094C91.4381 49.2094 90.9448 49.4661 90.6067 49.9817C90.3239 50.4146 90.1828 50.9325 90.1828 51.5325C90.1828 52.0191 90.2769 52.4631 90.4657 52.8646C90.653 53.2661 90.9 53.5601 91.2045 53.7474C91.509 53.934 91.8224 54.028 92.1433 54.028C92.3313 54.028 92.5134 54.0034 92.6896 53.9556C92.8642 53.9079 93.0336 53.8377 93.197 53.7437V52.2623C93.197 52.0056 93.1776 51.837 93.1396 51.7586C93.0993 51.6788 93.0388 51.6183 92.9582 51.5773C92.8761 51.5347 92.7321 51.5146 92.5261 51.5146V51.3758H94.5V51.5146H94.406C94.2112 51.5146 94.0776 51.5803 94.0037 51.7109C93.9537 51.8034 93.9299 51.987 93.9299 52.2623V53.8288C93.6418 53.9855 93.3567 54.0997 93.0761 54.1728C92.7948 54.2459 92.4828 54.2817 92.1396 54.2817C91.1537 54.2817 90.406 53.9661 89.8948 53.3325C89.5112 52.8586 89.3194 52.3101 89.3194 51.6907C89.3194 51.2407 89.4269 50.8094 89.6433 50.3982C89.8985 49.9086 90.2493 49.5303 90.6955 49.2676C91.0694 49.0489 91.5097 48.9392 92.0202 48.9392C92.2052 48.9392 92.3731 48.9549 92.5254 48.9847C92.6769 49.0153 92.8911 49.081 93.1702 49.184C93.3105 49.2362 93.4052 49.2631 93.453 49.2631C93.5 49.2631 93.5403 49.2414 93.5746 49.1982C93.6082 49.1541 93.6291 49.0683 93.6366 48.9392H93.7754Z" fill="#0A4390"/>
<path fill-rule="evenodd" clip-rule="evenodd" d="M34.962 57.2348C35.1247 57.2698 35.247 57.325 35.3276 57.4019C35.4396 57.5086 35.4963 57.6385 35.4963 57.7922C35.4963 57.9094 35.4597 58.0221 35.3851 58.1295C35.3112 58.2362 35.2105 58.3146 35.0814 58.3639C34.953 58.4131 34.756 58.4377 34.4918 58.4377H33.3836V58.3736H33.4709C33.5687 58.3736 33.6381 58.3422 33.6814 58.2803C33.7075 58.24 33.7209 58.1534 33.7209 58.0221V56.4989C33.7209 56.3534 33.7038 56.2616 33.6709 56.2236C33.6261 56.1728 33.5597 56.1474 33.4709 56.1474H33.3836V56.0833H34.3978C34.5873 56.0833 34.7388 56.0967 34.853 56.125C35.0261 56.1668 35.1582 56.24 35.2493 56.3459C35.3403 56.4519 35.3858 56.5736 35.3858 56.7116C35.3858 56.8288 35.3508 56.9348 35.2791 57.028C35.2075 57.1206 35.1023 57.19 34.962 57.2348ZM34.0545 57.1385C34.097 57.1467 34.1463 57.1527 34.2008 57.1571C34.2552 57.1609 34.3157 57.1631 34.3814 57.1631C34.55 57.1631 34.6776 57.1445 34.762 57.1086C34.847 57.0721 34.912 57.0168 34.9567 56.9415C35.0015 56.8668 35.0239 56.7855 35.0239 56.6967C35.0239 56.5594 34.9679 56.443 34.856 56.3459C34.7441 56.2489 34.5806 56.2004 34.3664 56.2004C34.2508 56.2004 34.147 56.2131 34.0545 56.2385V57.1385ZM34.0545 58.2668C34.1888 58.2982 34.3217 58.3131 34.453 58.3131C34.6627 58.3131 34.8232 58.2661 34.9336 58.1721C35.0433 58.078 35.0985 57.9609 35.0985 57.8228C35.0985 57.7318 35.0732 57.6437 35.0217 57.5594C34.9702 57.475 34.8888 57.4086 34.7769 57.3601C34.6649 57.3116 34.5261 57.287 34.3612 57.287C34.2896 57.287 34.2284 57.2885 34.1776 57.2907C34.1269 57.293 34.0858 57.2974 34.0545 57.3027V58.2668ZM37.3179 57.6527H36.406L36.2485 58.0213C36.2097 58.1124 36.1896 58.181 36.1896 58.2265C36.1896 58.2616 36.2067 58.2937 36.2411 58.3213C36.2747 58.3474 36.3485 58.3653 36.462 58.3736V58.4377H35.7194V58.3736C35.8179 58.3564 35.8814 58.334 35.9105 58.3064C35.9694 58.2504 36.0344 58.1377 36.106 57.9676L36.9344 56.0303H36.9926L37.8112 57.9885C37.8769 58.1459 37.9366 58.2474 37.9903 58.2952C38.0441 58.3415 38.1187 58.3676 38.2157 58.3736V58.4377H37.2873V58.3736C37.3806 58.3691 37.4441 58.3534 37.4776 58.3273C37.5105 58.3004 37.5269 58.2676 37.5269 58.2295C37.5269 58.178 37.5038 58.0982 37.4575 57.9877L37.3179 57.6527ZM37.2649 57.525L36.8687 56.575L36.4612 57.525H37.2649ZM38.2082 56.0833H38.8411L40.2836 57.8512V56.4915C40.2836 56.3467 40.2664 56.2564 40.2344 56.2198C40.1911 56.1713 40.1224 56.1474 40.0291 56.1474H39.9463V56.0833H40.7732V56.1474H40.6888C40.5881 56.1474 40.5172 56.1773 40.4747 56.2377C40.4493 56.275 40.4358 56.3601 40.4358 56.4915V58.4758H40.3732L38.8239 56.5795V58.0295C38.8239 58.1743 38.8396 58.2646 38.8709 58.3012C38.9157 58.3497 38.9844 58.3736 39.0769 58.3736H39.1612V58.4377H38.3336V58.3736H38.4164C38.5187 58.3736 38.5903 58.3437 38.6329 58.2833C38.6582 58.2459 38.6709 58.1609 38.6709 58.0295V56.3922C38.603 56.3124 38.5508 56.2601 38.5164 56.234C38.4806 56.2086 38.4291 56.1855 38.3612 56.1624C38.3276 56.1527 38.2761 56.1474 38.2082 56.1474V56.0833ZM41.8806 57.1318L42.7493 57.993C42.8918 58.137 43.0135 58.2348 43.1142 58.2862C43.2142 58.3377 43.3149 58.3668 43.4157 58.3736V58.4377H42.2948V58.3736C42.362 58.3736 42.4105 58.3624 42.4396 58.34C42.4694 58.3176 42.4844 58.2922 42.4844 58.2639C42.4844 58.2362 42.4784 58.2116 42.4679 58.19C42.4567 58.1676 42.4202 58.1265 42.359 58.0668L41.5478 57.2624V58.0221C41.5478 58.1415 41.556 58.2198 41.5709 58.2579C41.5821 58.287 41.6067 58.3116 41.6441 58.3325C41.6948 58.3601 41.7478 58.3736 41.8045 58.3736H41.8851V58.4377H40.8769V58.3736H40.9605C41.0582 58.3736 41.1284 58.3452 41.1724 58.2892C41.2008 58.2519 41.2142 58.1631 41.2142 58.0221V56.4989C41.2142 56.3795 41.2067 56.3004 41.1918 56.2616C41.1799 56.234 41.156 56.2094 41.1202 56.1885C41.0694 56.1609 41.0157 56.1474 40.9605 56.1474H40.8769V56.0833H41.8851V56.1474H41.8045C41.7493 56.1474 41.6955 56.1601 41.6441 56.187C41.6082 56.2056 41.5829 56.2333 41.5694 56.2706C41.5552 56.3071 41.5478 56.3833 41.5478 56.4989V57.2206C41.5709 57.1982 41.65 57.125 41.7851 57.0004C42.1284 56.6855 42.3358 56.475 42.4075 56.3698C42.4396 56.3228 42.4545 56.2825 42.4545 56.2482C42.4545 56.2213 42.4426 56.1982 42.4179 56.1773C42.3933 56.1571 42.353 56.1474 42.2948 56.1474H42.2418V56.0833H43.1075V56.1474C43.0567 56.1482 43.0105 56.1556 42.9687 56.1683C42.9269 56.181 42.8761 56.2056 42.8164 56.243C42.756 56.2795 42.6821 56.3392 42.5941 56.4206C42.5687 56.4437 42.4508 56.5624 42.2411 56.7758L41.8806 57.1318ZM43.3373 56.0833H43.9694L45.412 57.8512V56.4915C45.412 56.3467 45.3955 56.2564 45.3627 56.2198C45.3194 56.1713 45.2508 56.1474 45.1575 56.1474H45.0747V56.0833H45.9015V56.1474H45.8179C45.7164 56.1474 45.6455 56.1773 45.603 56.2377C45.5776 56.275 45.5642 56.3601 45.5642 56.4915V58.4758H45.5015L43.9523 56.5795V58.0295C43.9523 58.1743 43.9687 58.2646 44 58.3012C44.0441 58.3497 44.1127 58.3736 44.206 58.3736H44.2896V58.4377H43.4627V58.3736H43.5455C43.647 58.3736 43.7187 58.3437 43.7612 58.2833C43.7866 58.2459 43.8 58.1609 43.8 58.0295V56.3922C43.7321 56.3124 43.6799 56.2601 43.6448 56.234C43.609 56.2086 43.5575 56.1855 43.4896 56.1624C43.456 56.1527 43.4052 56.1474 43.3373 56.1474V56.0833ZM47.6448 56.0833H48.4657V56.1474H48.4209C48.3903 56.1474 48.3463 56.1609 48.2888 56.1877C48.2306 56.2139 48.1784 56.2527 48.1306 56.3027C48.0836 56.3519 48.0254 56.434 47.956 56.5459L47.3903 57.4303V58.0295C47.3903 58.1743 47.4067 58.2646 47.4396 58.3012C47.4836 58.3497 47.5545 58.3736 47.65 58.3736H47.7276V58.4377H46.7194V58.3736H46.8038C46.9045 58.3736 46.9754 58.3437 47.0179 58.2833C47.0433 58.2459 47.0567 58.1609 47.0567 58.0295V57.4788L46.4127 56.4833C46.3366 56.3683 46.2851 56.2967 46.2575 56.2683C46.2306 56.2392 46.1739 56.2049 46.0881 56.1646C46.0649 56.1534 46.0321 56.1474 45.9881 56.1474V56.0833H46.9911V56.1474H46.9396C46.8851 56.1474 46.8344 56.1601 46.7888 56.1855C46.7433 56.2109 46.7202 56.2489 46.7202 56.2997C46.7202 56.3422 46.756 56.4168 46.8269 56.5258L47.3142 57.2848L47.7776 56.5594C47.8478 56.4504 47.8821 56.3691 47.8821 56.3161C47.8821 56.2833 47.8739 56.2542 47.8575 56.2288C47.8403 56.2034 47.8164 56.1833 47.7851 56.1691C47.7538 56.1542 47.7067 56.1474 47.6448 56.1474V56.0833ZM49.7463 57.6527H48.8344L48.6769 58.0213C48.6381 58.1124 48.6179 58.181 48.6179 58.2265C48.6179 58.2616 48.6351 58.2937 48.6694 58.3213C48.703 58.3474 48.7769 58.3653 48.8896 58.3736V58.4377H48.1478V58.3736C48.2463 58.3564 48.3097 58.334 48.3381 58.3064C48.3978 58.2504 48.4627 58.1377 48.5344 57.9676L49.362 56.0303H49.4209L50.2396 57.9885C50.3052 58.1459 50.3649 58.2474 50.4187 58.2952C50.4724 58.3415 50.547 58.3676 50.6433 58.3736V58.4377H49.7157V58.3736C49.809 58.3691 49.8724 58.3534 49.9052 58.3273C49.9388 58.3004 49.9545 58.2676 49.9545 58.2295C49.9545 58.178 49.9314 58.0982 49.8851 57.9877L49.7463 57.6527ZM49.6933 57.525L49.2963 56.575L48.8896 57.525H49.6933ZM52.8276 58.4377L51.9187 56.4571V58.0295C51.9187 58.1743 51.9351 58.2646 51.9664 58.3012C52.0097 58.3497 52.0784 58.3736 52.1724 58.3736H52.256V58.4377H51.4291V58.3736H51.5135C51.6142 58.3736 51.6851 58.3437 51.7276 58.2833C51.753 58.2459 51.7664 58.1609 51.7664 58.0295V56.4915C51.7664 56.3877 51.7545 56.3116 51.7314 56.2653C51.7149 56.2318 51.6844 56.2042 51.6403 56.181C51.5963 56.1586 51.5261 56.1474 51.4291 56.1474V56.0833H52.1038L52.9523 57.9236L53.7933 56.0833H54.4612V56.1474H54.3791C54.2769 56.1474 54.2052 56.1773 54.1627 56.2377C54.1366 56.275 54.1239 56.3601 54.1239 56.4915V58.0295C54.1239 58.1743 54.1403 58.2646 54.1732 58.3012C54.2164 58.3497 54.2851 58.3736 54.3791 58.3736H54.4612V58.4377H53.453V58.3736H53.5373C53.6388 58.3736 53.7105 58.3437 53.7515 58.2833C53.7769 58.2459 53.7903 58.1609 53.7903 58.0295V56.4571L52.8844 58.4377H52.8276ZM56.1597 57.6527H55.2478L55.0903 58.0213C55.0515 58.1124 55.0314 58.181 55.0314 58.2265C55.0314 58.2616 55.0485 58.2937 55.0829 58.3213C55.1164 58.3474 55.1903 58.3653 55.3038 58.3736V58.4377H54.5612V58.3736C54.6597 58.3564 54.7232 58.334 54.7515 58.3064C54.8112 58.2504 54.8761 58.1377 54.9478 57.9676L55.7754 56.0303H55.8344L56.653 57.9885C56.7187 58.1459 56.7784 58.2474 56.8321 58.2952C56.8858 58.3415 56.9605 58.3676 57.0567 58.3736V58.4377H56.1291V58.3736C56.2224 58.3691 56.2858 58.3534 56.3187 58.3273C56.3523 58.3004 56.3679 58.2676 56.3679 58.2295C56.3679 58.178 56.3448 58.0982 56.2985 57.9877L56.1597 57.6527ZM56.1067 57.525L55.7097 56.575L55.303 57.525H56.1067ZM58.7269 56.0303V56.843H58.6635C58.6426 56.687 58.6052 56.5624 58.5515 56.4706C58.4978 56.378 58.4202 56.3049 58.3202 56.2504C58.2209 56.1959 58.1179 56.1683 58.0112 56.1683C57.8911 56.1683 57.7911 56.2056 57.7127 56.2788C57.6336 56.3519 57.5941 56.4362 57.5941 56.5295C57.5941 56.6012 57.6194 56.6668 57.6687 56.7258C57.7411 56.8124 57.9112 56.9288 58.1814 57.0728C58.4015 57.1915 58.5515 57.2818 58.6321 57.3445C58.7127 57.4079 58.7747 57.4818 58.8179 57.5676C58.8612 57.6534 58.8836 57.743 58.8836 57.837C58.8836 58.0153 58.8142 58.1683 58.6761 58.2974C58.5373 58.4265 58.3597 58.4907 58.1426 58.4907C58.0739 58.4907 58.0097 58.4855 57.9493 58.4751C57.9135 58.4691 57.8396 58.4474 57.7261 58.4109C57.6142 58.3743 57.5426 58.3556 57.512 58.3556C57.4829 58.3556 57.4597 58.3646 57.4433 58.3818C57.4269 58.3997 57.4142 58.4355 57.406 58.4907H57.3426V57.6848H57.406C57.4366 57.8534 57.4761 57.9803 57.5276 58.0639C57.5784 58.1474 57.6567 58.2176 57.7612 58.2728C57.8657 58.328 57.9806 58.3556 58.1052 58.3556C58.25 58.3556 58.3649 58.3176 58.4485 58.2415C58.5321 58.1639 58.5746 58.0736 58.5746 57.9698C58.5746 57.9116 58.5582 57.8527 58.5269 57.7937C58.4948 57.7348 58.4463 57.6795 58.3791 57.628C58.3344 57.593 58.2105 57.5198 58.0082 57.4071C57.8067 57.2952 57.6627 57.2056 57.5776 57.1385C57.4926 57.0721 57.4276 56.9974 57.3836 56.9168C57.3396 56.8355 57.3172 56.7459 57.3172 56.6489C57.3172 56.4803 57.3821 56.3348 57.512 56.2131C57.6418 56.0907 57.8075 56.0303 58.0075 56.0303C58.1329 56.0303 58.2657 56.0609 58.406 56.1221C58.4709 56.1512 58.5164 56.1653 58.5433 56.1653C58.5732 56.1653 58.5978 56.1564 58.6172 56.1385C58.6358 56.1198 58.6515 56.0848 58.6635 56.0303H58.7269ZM60.7679 56.0833H61.5888V56.1474H61.5441C61.5142 56.1474 61.4702 56.1609 61.412 56.1877C61.3538 56.2139 61.3023 56.2527 61.2538 56.3027C61.2067 56.3519 61.1485 56.434 61.0791 56.5459L60.5135 57.4303V58.0295C60.5135 58.1743 60.5306 58.2646 60.5627 58.3012C60.6075 58.3497 60.6776 58.3736 60.7739 58.3736H60.8508V58.4377H59.8426V58.3736H59.9269C60.0276 58.3736 60.0985 58.3437 60.1418 58.2833C60.1672 58.2459 60.1799 58.1609 60.1799 58.0295V57.4788L59.5358 56.4833C59.4597 56.3683 59.4082 56.2967 59.3806 56.2683C59.3538 56.2392 59.2978 56.2049 59.212 56.1646C59.1888 56.1534 59.1552 56.1474 59.1112 56.1474V56.0833H60.1149V56.1474H60.0627C60.0082 56.1474 59.9582 56.1601 59.9127 56.1855C59.8672 56.2109 59.8441 56.2489 59.8441 56.2997C59.8441 56.3422 59.8791 56.4168 59.95 56.5258L60.4373 57.2848L60.9015 56.5594C60.9709 56.4504 61.0052 56.3691 61.0052 56.3161C61.0052 56.2833 60.997 56.2542 60.9806 56.2288C60.9635 56.2034 60.9396 56.1833 60.9082 56.1691C60.8769 56.1542 60.8306 56.1474 60.7679 56.1474V56.0833ZM62.8694 57.6527H61.9575L61.8 58.0213C61.7612 58.1124 61.7411 58.181 61.7411 58.2265C61.7411 58.2616 61.7582 58.2937 61.7926 58.3213C61.8261 58.3474 61.9 58.3653 62.0135 58.3736V58.4377H61.2709V58.3736C61.3694 58.3564 61.4329 58.334 61.462 58.3064C61.5209 58.2504 61.5858 58.1377 61.6575 57.9676L62.4858 56.0303H62.5441L63.3627 57.9885C63.4284 58.1459 63.4881 58.2474 63.5418 58.2952C63.5955 58.3415 63.6702 58.3676 63.7672 58.3736V58.4377H62.8388V58.3736C62.9321 58.3691 62.9955 58.3534 63.0291 58.3273C63.062 58.3004 63.0784 58.2676 63.0784 58.2295C63.0784 58.178 63.0552 58.0982 63.009 57.9877L62.8694 57.6527ZM62.8164 57.525L62.4202 56.575L62.0127 57.525H62.8164ZM66.209 58.4377H65.5784L64.7791 57.337C64.7217 57.3392 64.6747 57.3407 64.6388 57.3407C64.6239 57.3407 64.6082 57.34 64.5911 57.3392C64.5739 57.3385 64.5567 57.3377 64.5388 57.337V58.0221C64.5388 58.1698 64.5545 58.2616 64.5873 58.2974C64.6306 58.3482 64.6963 58.3736 64.7844 58.3736H64.8761V58.4377H63.8672V58.3736H63.956C64.0552 58.3736 64.1261 58.3415 64.1687 58.2765C64.1933 58.2415 64.2045 58.1556 64.2045 58.0221V56.4989C64.2045 56.3512 64.1888 56.2594 64.156 56.2236C64.1112 56.1728 64.0441 56.1474 63.956 56.1474H63.8672V56.0833H64.7247C64.9747 56.0833 65.159 56.1019 65.2769 56.1377C65.3963 56.1743 65.497 56.2422 65.5791 56.3392C65.662 56.437 65.703 56.5542 65.703 56.6892C65.703 56.8348 65.656 56.9601 65.562 57.0661C65.4672 57.1728 65.3217 57.2482 65.1232 57.2922L65.6105 57.9668C65.7217 58.1213 65.8172 58.2251 65.897 58.2758C65.9761 58.3273 66.0806 58.3594 66.209 58.3736V58.4377ZM64.5388 57.2265C64.5605 57.2265 64.5791 57.2265 64.5955 57.2273C64.6112 57.228 64.6247 57.2288 64.6344 57.2288C64.8567 57.2288 65.0239 57.1803 65.1366 57.0833C65.2493 56.9855 65.3052 56.8616 65.3052 56.7116C65.3052 56.5646 65.2597 56.4452 65.1694 56.3527C65.0784 56.2609 64.9575 56.2146 64.8082 56.2146C64.7418 56.2146 64.6515 56.2251 64.5388 56.2467V57.2265ZM67.8023 57.6527H66.8903L66.7329 58.0213C66.6941 58.1124 66.6739 58.181 66.6739 58.2265C66.6739 58.2616 66.6911 58.2937 66.7254 58.3213C66.759 58.3474 66.8329 58.3653 66.9463 58.3736V58.4377H66.2038V58.3736C66.3023 58.3564 66.3657 58.334 66.3948 58.3064C66.4538 58.2504 66.5187 58.1377 66.5903 57.9676L67.4187 56.0303H67.4769L68.2955 57.9885C68.3612 58.1459 68.4209 58.2474 68.4747 58.2952C68.5284 58.3415 68.603 58.3676 68.6993 58.3736V58.4377H67.7717V58.3736C67.865 58.3691 67.9284 58.3534 67.962 58.3273C67.9948 58.3004 68.0105 58.2676 68.0105 58.2295C68.0105 58.178 67.9873 58.0982 67.9418 57.9877L67.8023 57.6527ZM67.7493 57.525L67.353 56.575L66.9455 57.525H67.7493ZM69.8 57.1318L70.6694 57.993C70.812 58.137 70.9329 58.2348 71.0336 58.2862C71.1344 58.3377 71.2351 58.3668 71.3358 58.3736V58.4377H70.215V58.3736C70.2821 58.3736 70.3299 58.3624 70.3597 58.34C70.3896 58.3176 70.4038 58.2922 70.4038 58.2639C70.4038 58.2362 70.3978 58.2116 70.3873 58.19C70.3761 58.1676 70.3403 58.1265 70.2791 58.0668L69.4679 57.2624V58.0221C69.4679 58.1415 69.4754 58.2198 69.4911 58.2579C69.5023 58.287 69.5269 58.3116 69.5642 58.3325C69.6142 58.3601 69.6679 58.3736 69.7239 58.3736H69.8053V58.4377H68.797V58.3736H68.8799C68.9776 58.3736 69.0485 58.3452 69.0926 58.2892C69.1202 58.2519 69.1344 58.1631 69.1344 58.0221V56.4989C69.1344 56.3795 69.1261 56.3004 69.1112 56.2616C69.1 56.234 69.0761 56.2094 69.0396 56.1885C68.9888 56.1609 68.9358 56.1474 68.8799 56.1474H68.797V56.0833H69.8053V56.1474H69.7239C69.6687 56.1474 69.6157 56.1601 69.5642 56.187C69.5284 56.2056 69.503 56.2333 69.4888 56.2706C69.4746 56.3071 69.4679 56.3833 69.4679 56.4989V57.2206C69.4911 57.1982 69.5702 57.125 69.7052 57.0004C70.0485 56.6855 70.256 56.475 70.3276 56.3698C70.359 56.3228 70.3746 56.2825 70.3746 56.2482C70.3746 56.2213 70.362 56.1982 70.3381 56.1773C70.3135 56.1571 70.2724 56.1474 70.215 56.1474H70.1612V56.0833H71.0269V56.1474C70.9761 56.1482 70.9299 56.1556 70.8888 56.1683C70.847 56.181 70.7955 56.2056 70.7358 56.243C70.6754 56.2795 70.6015 56.3392 70.5142 56.4206C70.4888 56.4437 70.3709 56.5624 70.1605 56.7758L69.8 57.1318ZM72.9314 57.6527H72.0194L71.862 58.0213C71.8224 58.1124 71.8023 58.181 71.8023 58.2265C71.8023 58.2616 71.8194 58.2937 71.8538 58.3213C71.8881 58.3474 71.962 58.3653 72.0747 58.3736V58.4377H71.3329V58.3736C71.4306 58.3564 71.4941 58.334 71.5232 58.3064C71.5821 58.2504 71.6478 58.1377 71.7194 57.9676L72.547 56.0303H72.6052L73.4239 57.9885C73.4896 58.1459 73.5493 58.2474 73.6038 58.2952C73.6575 58.3415 73.7321 58.3676 73.8284 58.3736V58.4377H72.9V58.3736C72.9941 58.3691 73.0575 58.3534 73.0903 58.3273C73.1232 58.3004 73.1396 58.2676 73.1396 58.2295C73.1396 58.178 73.1164 58.0982 73.0702 57.9877L72.9314 57.6527ZM72.8776 57.525L72.4814 56.575L72.0739 57.525H72.8776ZM75.5306 56.0833L75.556 56.637H75.4903C75.4769 56.54 75.4597 56.4698 75.4381 56.4288C75.4023 56.3616 75.3545 56.3116 75.2948 56.2803C75.2351 56.2482 75.1567 56.2325 75.0597 56.2325H74.7284V58.0295C74.7284 58.1743 74.7441 58.2646 74.7754 58.3012C74.8187 58.3497 74.8866 58.3736 74.9776 58.3736H75.059V58.4377H74.0575V58.3736H74.1418C74.2426 58.3736 74.3135 58.3437 74.356 58.2833C74.3814 58.2459 74.3948 58.1609 74.3948 58.0295V56.2325H74.1127C74.0023 56.2325 73.9239 56.2407 73.8776 56.2571C73.8179 56.2788 73.7664 56.3206 73.7232 56.3833C73.6806 56.4459 73.6552 56.5303 73.647 56.637H73.5814L73.606 56.0833H75.5306ZM78.506 57.7877L78.5627 57.8004L78.3605 58.4377H76.5388V58.3736H76.6269C76.7261 58.3736 76.797 58.3415 76.8403 58.2773C76.8642 58.2407 76.8761 58.1556 76.8761 58.0221V56.4989C76.8761 56.3519 76.8597 56.2601 76.8276 56.2236C76.7829 56.1728 76.7157 56.1474 76.6269 56.1474H76.5388V56.0833H77.6038V56.1474C77.4791 56.1459 77.3918 56.1571 77.3403 56.1818C77.2903 56.2056 77.256 56.2362 77.2373 56.2721C77.2194 56.3086 77.2097 56.3967 77.2097 56.534V58.0183C77.2097 58.1153 77.2194 58.181 77.2373 58.2168C77.2515 58.2415 77.2732 58.2594 77.3023 58.2713C77.3306 58.2825 77.4209 58.2885 77.5732 58.2885H77.7448C77.9261 58.2885 78.0523 58.2758 78.1254 58.2489C78.1985 58.2221 78.265 58.175 78.3254 58.1071C78.3851 58.04 78.4455 57.9333 78.506 57.7877ZM80.2635 57.6527H79.3515L79.1941 58.0213C79.1552 58.1124 79.1351 58.181 79.1351 58.2265C79.1351 58.2616 79.1523 58.2937 79.1866 58.3213C79.2202 58.3474 79.2941 58.3653 79.4075 58.3736V58.4377H78.6649V58.3736C78.7635 58.3564 78.8269 58.334 78.856 58.3064C78.9149 58.2504 78.9799 58.1377 79.0515 57.9676L79.8799 56.0303H79.9381L80.7567 57.9885C80.8224 58.1459 80.8821 58.2474 80.9358 58.2952C80.9896 58.3415 81.0642 58.3676 81.1605 58.3736V58.4377H80.2329V58.3736C80.3261 58.3691 80.3896 58.3534 80.4224 58.3273C80.456 58.3004 80.4717 58.2676 80.4717 58.2295C80.4717 58.178 80.4485 58.0982 80.4023 57.9877L80.2635 57.6527ZM80.2105 57.525L79.8135 56.575L79.4067 57.525H80.2105ZM82.653 58.4377L81.7441 56.4571V58.0295C81.7441 58.1743 81.7605 58.2646 81.7918 58.3012C81.8351 58.3497 81.9038 58.3736 81.9978 58.3736H82.0814V58.4377H81.2545V58.3736H81.3388C81.4396 58.3736 81.5105 58.3437 81.553 58.2833C81.5784 58.2459 81.5918 58.1609 81.5918 58.0295V56.4915C81.5918 56.3877 81.5799 56.3116 81.5567 56.2653C81.5403 56.2318 81.5097 56.2042 81.4664 56.181C81.4217 56.1586 81.3515 56.1474 81.2545 56.1474V56.0833H81.9291L82.7776 57.9236L83.6187 56.0833H84.2866V56.1474H84.2045C84.1023 56.1474 84.0306 56.1773 83.9881 56.2377C83.9627 56.275 83.9493 56.3601 83.9493 56.4915V58.0295C83.9493 58.1743 83.9657 58.2646 83.9985 58.3012C84.0418 58.3497 84.1105 58.3736 84.2045 58.3736H84.2866V58.4377H83.2784V58.3736H83.3627C83.4649 58.3736 83.5358 58.3437 83.5769 58.2833C83.6023 58.2459 83.6157 58.1609 83.6157 58.0295V56.4571L82.7105 58.4377H82.653ZM85.0866 57.334V58.0221C85.0866 58.1698 85.1023 58.2616 85.1351 58.2974C85.1784 58.3482 85.2448 58.3736 85.3336 58.3736H85.4239V58.4377H84.4149V58.3736H84.5038C84.603 58.3736 84.6746 58.3415 84.7179 58.2765C84.7403 58.2415 84.7523 58.1556 84.7523 58.0221V56.4989C84.7523 56.3512 84.7373 56.2594 84.706 56.2236C84.6605 56.1728 84.5933 56.1474 84.5038 56.1474H84.4149V56.0833H85.2776C85.4888 56.0833 85.6545 56.1049 85.7761 56.1482C85.8978 56.1915 86 56.2653 86.0836 56.3683C86.1672 56.4713 86.2082 56.593 86.2082 56.734C86.2082 56.9258 86.1448 57.0825 86.0187 57.2027C85.8918 57.3228 85.7127 57.3833 85.4814 57.3833C85.4247 57.3833 85.3635 57.3788 85.2978 57.3706C85.2321 57.3631 85.1612 57.3504 85.0866 57.334ZM85.0866 57.2348C85.147 57.2459 85.2015 57.2549 85.2493 57.2601C85.2955 57.2661 85.3366 57.2691 85.3694 57.2691C85.4896 57.2691 85.5926 57.2228 85.6799 57.1295C85.7664 57.037 85.8105 56.9168 85.8105 56.7691C85.8105 56.6676 85.7896 56.5728 85.7485 56.4855C85.7067 56.3989 85.6478 56.334 85.5724 56.2907C85.4955 56.2474 85.409 56.225 85.3127 56.225C85.2538 56.225 85.1784 56.237 85.0866 56.2586V57.2348ZM88.0306 56.1474V56.0833H88.8582V56.1474H88.7694C88.6776 56.1474 88.606 56.1855 88.5567 56.2631C88.5321 56.2997 88.5202 56.3825 88.5202 56.5131V57.4668C88.5202 57.7034 88.4978 57.8862 88.4508 58.0161C88.4038 58.1467 88.3112 58.2586 88.1746 58.3512C88.0381 58.4445 87.8523 58.4907 87.6172 58.4907C87.3605 58.4907 87.1657 58.4467 87.0336 58.3571C86.9 58.2683 86.806 58.1482 86.7508 57.9982C86.7135 57.8952 86.6955 57.7019 86.6955 57.4183V56.4989C86.6955 56.3542 86.6754 56.2601 86.6358 56.2146C86.5963 56.1698 86.5314 56.1474 86.4426 56.1474H86.3545V56.0833H87.3702V56.1474H87.2799C87.1829 56.1474 87.1135 56.178 87.0724 56.2392C87.0433 56.2803 87.0291 56.3676 87.0291 56.4989V57.5243C87.0291 57.6153 87.0373 57.7206 87.0538 57.8385C87.0709 57.9564 87.1015 58.0482 87.1455 58.1146C87.1896 58.1803 87.253 58.2348 87.3351 58.278C87.4179 58.3206 87.5194 58.3415 87.6396 58.3415C87.7933 58.3415 87.9314 58.3079 88.0523 58.2415C88.1739 58.1743 88.2567 58.0877 88.3008 57.984C88.3455 57.8788 88.3679 57.7012 88.3679 57.4519V56.4989C88.3679 56.3519 88.3515 56.2601 88.3194 56.2236C88.2746 56.1728 88.2075 56.1474 88.1187 56.1474H88.0306ZM88.85 56.0833H89.4829L90.9254 57.8512V56.4915C90.9254 56.3467 90.9082 56.2564 90.8761 56.2198C90.8329 56.1713 90.7642 56.1474 90.6709 56.1474H90.5881V56.0833H91.415V56.1474H91.3314C91.2299 56.1474 91.159 56.1773 91.1164 56.2377C91.0911 56.275 91.0776 56.3601 91.0776 56.4915V58.4758H91.015L89.4657 56.5795V58.0295C89.4657 58.1743 89.4814 58.2646 89.5127 58.3012C89.5575 58.3497 89.6261 58.3736 89.7187 58.3736H89.803V58.4377H88.9754V58.3736H89.0582C89.1605 58.3736 89.2321 58.3437 89.2746 58.2833C89.3 58.2459 89.3127 58.1609 89.3127 58.0295V56.3922C89.2448 56.3124 89.1926 56.2601 89.1582 56.234C89.1224 56.2086 89.0709 56.1855 89.003 56.1624C88.9694 56.1527 88.9179 56.1474 88.85 56.1474V56.0833ZM93.6388 56.0303L93.6993 56.7721H93.6351C93.5739 56.5885 93.4948 56.4497 93.3985 56.3564C93.2582 56.2221 93.0791 56.1542 92.8605 56.1542C92.562 56.1542 92.3351 56.2728 92.1791 56.5101C92.0485 56.7094 91.9836 56.9482 91.9836 57.2243C91.9836 57.4489 92.0269 57.6527 92.1142 57.8377C92.2008 58.0228 92.3142 58.1586 92.4545 58.2445C92.5948 58.3303 92.7388 58.3736 92.8866 58.3736C92.9732 58.3736 93.0575 58.3624 93.1381 58.3407C93.2187 58.3183 93.297 58.2862 93.3724 58.243V57.5609C93.3724 57.4422 93.3635 57.3646 93.3455 57.3288C93.3276 57.2922 93.2993 57.2639 93.262 57.2452C93.2239 57.2258 93.1582 57.2161 93.0635 57.2161V57.1519H93.9724V57.2161H93.9291C93.8388 57.2161 93.7776 57.2459 93.7441 57.3064C93.7209 57.3489 93.7097 57.434 93.7097 57.5609V58.2818C93.5769 58.3542 93.4455 58.4071 93.3164 58.4407C93.1873 58.4743 93.0433 58.4907 92.8851 58.4907C92.4314 58.4907 92.0866 58.3452 91.8515 58.0534C91.6747 57.8348 91.5858 57.5825 91.5858 57.2974C91.5858 57.09 91.6358 56.8915 91.7351 56.7019C91.853 56.4765 92.0149 56.3027 92.2202 56.181C92.3918 56.0803 92.5948 56.0303 92.8299 56.0303C92.9149 56.0303 92.9926 56.037 93.0627 56.0512C93.1329 56.0653 93.2314 56.0952 93.3597 56.143C93.4246 56.1668 93.4679 56.1795 93.4903 56.1795C93.512 56.1795 93.5299 56.1691 93.5463 56.1489C93.5612 56.1288 93.5709 56.0892 93.5746 56.0303H93.6388Z" fill="#DD1717"/>
</g>
<defs>
<clipPath id="clip0_801_8434">
<rect width="80" height="17.9104" fill="white" transform="translate(14.5 45)"/>
</clipPath>
</defs>
</svg>
