<svg width="109" height="108" viewBox="0 0 109 108" fill="none" xmlns="http://www.w3.org/2000/svg">
<path d="M14.5 46.9456C14.9177 46.836 15.3355 46.7263 15.7804 46.6097C16.124 47.8856 16.4651 49.1521 16.8128 50.4427C22.7947 48.8418 28.763 47.2445 34.7474 45.6429C34.8641 46.0749 34.9745 46.4839 35.0911 46.9163C28.6801 48.632 22.2882 50.3426 15.882 52.0568C15.7125 51.4308 15.5493 50.8326 15.3883 50.2337C15.1151 49.2163 14.8433 48.1985 14.5693 47.1815C14.5543 47.125 14.5235 47.0729 14.5 47.019C14.5 46.9944 14.5 46.9702 14.5 46.9456Z" fill="#28317D"/>
<path d="M41.9352 51.9472C42.0541 52.3891 42.1641 52.7988 42.2785 53.2242C40.1377 53.7967 38.0186 54.3638 35.8752 54.9366C35.4729 53.4395 35.0746 51.9556 34.6723 50.4592C28.6838 52.0609 22.7173 53.6563 16.735 55.2561C16.9082 55.9016 17.0765 56.5288 17.2507 57.179C21.522 56.0373 25.779 54.8992 30.061 53.7546C30.1747 54.176 30.2862 54.5901 30.4035 55.0269C25.7057 56.2845 21.0188 57.5388 16.3144 58.7979C15.9124 57.3004 15.5163 55.826 15.1132 54.3245C21.9449 52.4962 28.7645 50.6716 35.609 48.84C36.0091 50.3301 36.4063 51.8089 36.8109 53.3159C38.517 52.86 40.2151 52.4064 41.9352 51.9468V51.9472Z" fill="#E62530"/>
<path d="M33.5353 58.9861C33.0207 57.0653 32.5124 55.1681 31.9975 53.2451C32.4134 53.1318 32.8212 53.0207 33.258 52.9015C33.6596 54.3935 34.0576 55.8708 34.4639 57.3811C37.2378 56.6395 40.0009 55.9005 42.7861 55.1556C42.8995 55.5708 43.011 55.979 43.1302 56.4151C39.9331 57.2718 36.7463 58.1256 33.5353 58.9861Z" fill="#ED721F"/>
<path d="M36.0425 45.3036C36.4731 45.1885 36.8776 45.0803 37.3082 44.9651C37.537 45.8145 37.7622 46.6508 37.9922 47.5049C37.5587 47.6216 37.1505 47.7316 36.7265 47.8457C36.4965 46.9907 36.2724 46.1582 36.0425 45.3033V45.3036Z" fill="#ED721F"/>
<path d="M20.9059 45.238C21.1336 46.0907 21.3562 46.9236 21.5851 47.7804C21.1619 47.8944 20.7537 48.0045 20.3245 48.12C20.095 47.2691 19.8694 46.4329 19.6394 45.5802C20.0616 45.4661 20.4712 45.3554 20.9059 45.238Z" fill="#ED721F"/>
<path d="M47.9941 49.239H50.2375C50.4493 49.239 50.6675 49.2229 50.8922 49.1908C51.1232 49.1587 51.3318 49.0978 51.518 49.0079C51.7105 48.9116 51.8678 48.7832 51.9898 48.6228C52.1117 48.4559 52.1727 48.2377 52.1727 47.9681C52.1727 47.7049 52.1149 47.4835 51.9994 47.3037C51.8903 47.124 51.7459 46.9796 51.5661 46.8705C51.3928 46.7549 51.1938 46.6715 50.9692 46.6201C50.751 46.5688 50.5295 46.5431 50.3049 46.5431H47.9941V49.239ZM47.9941 46.0521H50.3049C50.5103 46.0521 50.7092 46.036 50.9018 46.0039C51.1008 45.9654 51.2773 45.9012 51.4313 45.8114C51.5918 45.7151 51.7202 45.5899 51.8165 45.4359C51.9127 45.2754 51.9609 45.0764 51.9609 44.839C51.9609 44.595 51.9095 44.3864 51.8068 44.2131C51.7106 44.0334 51.579 43.889 51.4121 43.7799C51.2516 43.6643 51.0687 43.5809 50.8633 43.5295C50.6579 43.4718 50.4493 43.4429 50.2375 43.4429H47.9941V46.0521ZM50.2375 43C50.5199 43 50.7927 43.0353 51.0558 43.1059C51.3254 43.1765 51.5629 43.2888 51.7683 43.4429C51.9737 43.5905 52.1374 43.7799 52.2593 44.0109C52.3877 44.242 52.4519 44.518 52.4519 44.839C52.4519 45.1856 52.3524 45.4872 52.1534 45.744C51.9609 45.9943 51.6945 46.174 51.3543 46.2832C51.7779 46.3987 52.1053 46.6137 52.3364 46.9282C52.5674 47.2363 52.683 47.5862 52.683 47.9777C52.683 48.3243 52.6092 48.6131 52.4615 48.8442C52.3139 49.0689 52.1246 49.2486 51.8935 49.3834C51.6624 49.5118 51.3992 49.6048 51.104 49.6626C50.8151 49.714 50.5263 49.7396 50.2375 49.7396H47.4742V43H50.2375Z" fill="#28317D"/>
<path d="M58.3914 44.9834V49.7396H57.9197V48.7287C57.6886 49.101 57.403 49.377 57.0628 49.5567C56.7226 49.73 56.3599 49.8167 55.9748 49.8167C55.641 49.8167 55.3265 49.7589 55.0312 49.6433C54.7424 49.5214 54.4889 49.3513 54.2706 49.1331C54.0524 48.9148 53.8791 48.6581 53.7507 48.3628C53.6223 48.0611 53.5582 47.7274 53.5582 47.3615C53.5582 46.9956 53.6223 46.6651 53.7507 46.3698C53.8791 46.0681 54.0524 45.8114 54.2706 45.5996C54.4889 45.3878 54.7424 45.2241 55.0312 45.1085C55.3265 44.9866 55.641 44.9256 55.9748 44.9256C56.3599 44.9256 56.729 45.0155 57.082 45.1952C57.4415 45.3749 57.7207 45.6509 57.9197 46.0232V44.9834H58.3914ZM55.9748 45.3781C55.7052 45.3781 55.4517 45.4263 55.2142 45.5225C54.9767 45.6124 54.7713 45.744 54.598 45.9173C54.4247 46.0906 54.2867 46.2992 54.184 46.5431C54.0813 46.787 54.0299 47.0598 54.0299 47.3615C54.0299 47.6568 54.0813 47.9296 54.184 48.1799C54.2867 48.4238 54.4247 48.6324 54.598 48.8057C54.7713 48.979 54.9767 49.1138 55.2142 49.2101C55.4517 49.3064 55.7052 49.3545 55.9748 49.3545C56.4177 49.3545 56.7835 49.2582 57.0724 49.0657C57.3676 48.8667 57.5891 48.6196 57.7367 48.3243C57.8844 48.029 57.9582 47.7113 57.9582 47.3711C57.9582 47.0245 57.8844 46.7036 57.7367 46.4083C57.5891 46.1131 57.3676 45.8692 57.0724 45.6766C56.7835 45.4776 56.4177 45.3781 55.9748 45.3781Z" fill="#28317D"/>
<path d="M60.1187 44.9834V45.8306C60.3048 45.5033 60.5487 45.269 60.8504 45.1278C61.1585 44.9802 61.4794 44.9031 61.8132 44.8967C62.1342 44.8967 62.4262 44.9449 62.6894 45.0411C62.9525 45.1374 63.1772 45.2754 63.3633 45.4552C63.5495 45.6349 63.6939 45.8563 63.7966 46.1195C63.9057 46.3762 63.9603 46.6683 63.9603 46.9956V49.7396H63.4885V47.0053C63.4885 46.4597 63.3344 46.0489 63.0264 45.7729C62.7247 45.4905 62.3139 45.3525 61.794 45.3589C61.5501 45.3589 61.3254 45.4038 61.12 45.4937C60.9146 45.5835 60.7381 45.7055 60.5905 45.8595C60.4428 46.0136 60.3273 46.1965 60.2439 46.4083C60.1668 46.6201 60.1283 46.848 60.1283 47.0919V49.7396H59.6565V44.9834H60.1187Z" fill="#28317D"/>
<path d="M65.6374 43V47.063L67.8808 44.9834H68.5066V45.0026L66.0996 47.2267L68.7858 49.7107V49.7396H68.1889L65.6374 47.4096V49.7396H65.1753V43H65.6374Z" fill="#28317D"/>
<path d="M48.8634 51.5096V57.71H52.7252V59.0187H47.4474V51.5096H48.8634Z" fill="#28317D"/>
<path d="M58.0512 53.7301H59.3063V59.0187H58.0727L58.0083 58.2463C57.9368 58.4037 57.8331 58.5395 57.6972 58.654C57.5613 58.7684 57.4147 58.8649 57.2574 58.9436C57.1001 59.0223 56.9356 59.0795 56.764 59.1152C56.5995 59.1582 56.4421 59.1796 56.292 59.1796C55.8986 59.1796 55.5339 59.1224 55.1978 59.008C54.8688 58.8864 54.5827 58.7076 54.3396 58.4716C54.0964 58.2356 53.9069 57.9424 53.771 57.592C53.6352 57.2415 53.5672 56.8339 53.5672 56.3691C53.5672 55.9114 53.6387 55.5109 53.7818 55.1676C53.9248 54.8172 54.1179 54.5275 54.361 54.2987C54.6113 54.0627 54.9046 53.8875 55.2407 53.773C55.5768 53.6586 55.938 53.6014 56.3241 53.6014C56.6817 53.6014 57.0143 53.6801 57.3218 53.8374C57.6293 53.9876 57.8581 54.195 58.0083 54.4596L58.0512 53.7301ZM56.4421 54.7707C56.2276 54.7707 56.0238 54.8064 55.8307 54.878C55.6376 54.9495 55.4695 55.0532 55.3265 55.1891C55.1906 55.3249 55.0798 55.493 54.9939 55.6932C54.9153 55.8935 54.876 56.1188 54.876 56.3691C54.876 56.6194 54.9153 56.8446 54.9939 57.0449C55.0798 57.2451 55.1906 57.4168 55.3265 57.5598C55.4695 57.6957 55.6376 57.7994 55.8307 57.8709C56.0238 57.9424 56.2276 57.9782 56.4421 57.9782C56.7854 57.9782 57.0715 57.8995 57.3003 57.7422C57.5292 57.5848 57.7008 57.3882 57.8152 57.1522C57.9297 56.909 57.9869 56.6515 57.9869 56.3798C57.9869 56.1009 57.9297 55.8434 57.8152 55.6074C57.7008 55.3643 57.5292 55.164 57.3003 55.0067C57.0715 54.8494 56.7854 54.7707 56.4421 54.7707Z" fill="#28317D"/>
<path d="M63.9548 59.0187V56.1867C63.9548 56.0151 63.9297 55.8506 63.8797 55.6932C63.8368 55.5288 63.7688 55.3857 63.6759 55.2641C63.59 55.1354 63.4792 55.0353 63.3433 54.9638C63.2074 54.8923 63.0501 54.8565 62.8713 54.8565C62.6925 54.8565 62.5316 54.8923 62.3886 54.9638C62.2527 55.0353 62.1347 55.1354 62.0346 55.2641C61.9416 55.3857 61.8701 55.5288 61.82 55.6932C61.77 55.8506 61.7449 56.0151 61.7449 56.1867V59.0187H60.4362V53.7194H61.6484L61.7449 54.3631C61.888 54.0913 62.0918 53.9018 62.3564 53.7945C62.6282 53.6872 62.8892 53.6336 63.1395 53.6336C63.4613 53.6336 63.7653 53.7087 64.0513 53.8589C64.3374 54.0019 64.5555 54.2558 64.7057 54.6205C64.9417 54.2415 65.2099 53.9876 65.5102 53.8589C65.8106 53.723 66.1324 53.655 66.4757 53.655C67.2337 53.655 67.7951 53.8732 68.1599 54.3094C68.5317 54.7457 68.7177 55.3643 68.7177 56.1652V59.0187H67.409V56.1652C67.409 55.9936 67.3911 55.8291 67.3553 55.6718C67.3196 55.5144 67.2588 55.3786 67.173 55.2641C67.0943 55.1426 66.9906 55.0496 66.8619 54.9852C66.7403 54.9137 66.5901 54.878 66.4113 54.878C66.2325 54.878 66.0716 54.9137 65.9286 54.9852C65.7927 55.0567 65.6747 55.1533 65.5746 55.2749C65.4745 55.3893 65.3958 55.5288 65.3386 55.6932C65.2885 55.8506 65.2635 56.0151 65.2635 56.1867V59.0187H63.9548Z" fill="#28317D"/>
<path d="M72.8983 57.8816C73.12 57.8816 73.3238 57.8423 73.5098 57.7636C73.6957 57.6849 73.853 57.5777 73.9818 57.4418C74.1177 57.3059 74.2214 57.1486 74.2929 56.9698C74.3644 56.7838 74.4001 56.5872 74.4001 56.3798C74.4001 56.1724 74.3644 55.9793 74.2929 55.8005C74.2285 55.6146 74.132 55.4537 74.0032 55.3178C73.8745 55.1819 73.7172 55.0746 73.5312 54.996C73.3453 54.9173 73.1343 54.878 72.8983 54.878C72.6623 54.878 72.4513 54.9173 72.2654 54.996C72.0795 55.0746 71.9221 55.1819 71.7934 55.3178C71.6647 55.4537 71.5646 55.6146 71.493 55.8005C71.4287 55.9793 71.3965 56.1724 71.3965 56.3798C71.3965 56.5872 71.4323 56.7838 71.5038 56.9698C71.5753 57.1486 71.6754 57.3059 71.8041 57.4418C71.94 57.5777 72.1009 57.6849 72.2869 57.7636C72.4728 57.8423 72.6766 57.8816 72.8983 57.8816ZM69.9698 61.2285V53.7301H71.1927L71.2785 54.4596C71.4859 54.1592 71.7469 53.9447 72.0616 53.816C72.3834 53.6801 72.6945 53.6121 72.9949 53.6121C73.4025 53.6121 73.7708 53.6837 74.0998 53.8267C74.4359 53.9697 74.722 54.1664 74.958 54.4167C75.2011 54.6598 75.387 54.9531 75.5158 55.2963C75.6445 55.6324 75.7089 55.9936 75.7089 56.3798C75.7089 56.766 75.6481 57.1271 75.5265 57.4632C75.4121 57.7994 75.2404 58.0926 75.0116 58.3429C74.7827 58.5932 74.5003 58.7899 74.1641 58.9329C73.8352 59.0759 73.4597 59.1474 73.0378 59.1474C72.9019 59.1474 72.7481 59.1331 72.5765 59.1045C72.412 59.0831 72.2475 59.0437 72.083 58.9865C71.9257 58.9293 71.7755 58.8542 71.6325 58.7612C71.4895 58.6611 71.3715 58.5395 71.2785 58.3965V61.2285H69.9698Z" fill="#28317D"/>
<path d="M77.9319 53.7301V56.4978C77.9319 56.9054 78.0392 57.2451 78.2538 57.5169C78.4683 57.7815 78.7865 57.9138 79.2085 57.9138C79.4087 57.9138 79.5911 57.8745 79.7556 57.7958C79.9272 57.7171 80.0702 57.6098 80.1847 57.474C80.3062 57.3381 80.3992 57.1808 80.4636 57.002C80.5279 56.8232 80.5601 56.6337 80.5601 56.4334V53.7301H81.8581V59.0294H80.6889L80.603 58.3107C80.3313 58.5825 80.0559 58.7827 79.777 58.9114C79.5053 59.0402 79.1835 59.1045 78.8116 59.1045C78.4969 59.1045 78.2037 59.0473 77.9319 58.9329C77.6673 58.8113 77.4385 58.6397 77.2454 58.418C77.0523 58.1963 76.8985 57.9245 76.7841 57.6027C76.6768 57.2809 76.6232 56.9161 76.6232 56.5085V53.7301H77.9319Z" fill="#28317D"/>
<path d="M86.9282 59.0187V56.2511C86.9282 55.8434 86.8209 55.5073 86.6064 55.2427C86.3918 54.9709 86.0736 54.8351 85.6516 54.8351C85.4514 54.8351 85.2655 54.8744 85.0938 54.9531C84.9293 55.0317 84.7863 55.139 84.6647 55.2749C84.5503 55.4108 84.4609 55.5681 84.3966 55.7469C84.3322 55.9257 84.3 56.1152 84.3 56.3154V59.0187H83.002V53.7194H84.1713L84.2571 54.4381C84.5289 54.1735 84.8006 53.9769 85.0724 53.8481C85.3513 53.7123 85.6588 53.6443 85.9949 53.6443C86.3096 53.6443 86.6028 53.7015 86.8746 53.816C87.1463 53.9304 87.3823 54.0984 87.5826 54.3201C87.7828 54.5418 87.9401 54.8136 88.0546 55.1354C88.1761 55.4572 88.2369 55.8255 88.2369 56.2403V59.0187H86.9282Z" fill="#28317D"/>
<path d="M93.5345 53.1938L94.5 53.9232L93.91 54.6741C94.1174 54.903 94.2604 55.1497 94.3391 55.4143C94.4249 55.6718 94.4678 55.9471 94.4678 56.2403C94.4678 56.4048 94.4499 56.5836 94.4142 56.7767C94.3784 56.9626 94.3176 57.145 94.2318 57.3238C94.146 57.5026 94.0316 57.6706 93.8885 57.828C93.7455 57.9853 93.5667 58.114 93.3522 58.2142C93.7956 58.4358 94.0888 58.7005 94.2318 59.008C94.3748 59.3083 94.4464 59.6266 94.4464 59.9627C94.4464 60.3274 94.3784 60.6564 94.2425 60.9496C94.1138 61.2428 93.9315 61.4896 93.6954 61.6898C93.4594 61.8972 93.1805 62.0545 92.8587 62.1618C92.5369 62.2691 92.1829 62.3227 91.7967 62.3227C91.4105 62.3227 91.053 62.2655 90.724 62.1511C90.4022 62.0438 90.1197 61.8865 89.8765 61.6791C89.6405 61.4717 89.4546 61.2214 89.3187 60.9282C89.1828 60.6421 89.1149 60.3203 89.1149 59.9627H90.4129C90.4129 60.1343 90.4486 60.2881 90.5202 60.424C90.5988 60.567 90.699 60.6886 90.8205 60.7887C90.9493 60.8888 91.0959 60.9639 91.2604 61.014C91.432 61.0712 91.6108 61.0998 91.7967 61.0998C92.1758 61.0998 92.494 60.9997 92.7514 60.7994C93.0089 60.6063 93.1376 60.3274 93.1376 59.9627C93.1376 59.7839 93.0983 59.6266 93.0196 59.4907C92.941 59.3548 92.8373 59.244 92.7085 59.1582C92.587 59.0723 92.4439 59.008 92.2794 58.9651C92.1221 58.9222 91.9612 58.9007 91.7967 58.9007C91.3819 58.9007 91.0101 58.8399 90.6811 58.7183C90.3521 58.5968 90.0696 58.4215 89.8336 58.1927C89.6048 57.9638 89.426 57.6849 89.2973 57.356C89.1757 57.027 89.1149 56.6551 89.1149 56.2403C89.1149 55.8255 89.1828 55.4537 89.3187 55.1247C89.4617 54.7957 89.6548 54.5168 89.898 54.288C90.1411 54.052 90.4236 53.8732 90.7454 53.7516C91.0744 53.6229 91.4248 53.5585 91.7967 53.5585C92.0041 53.5585 92.2115 53.58 92.4189 53.6229C92.6263 53.6586 92.823 53.7373 93.0089 53.8589L93.5345 53.1938ZM91.7967 54.7492C91.6036 54.7492 91.4213 54.785 91.2496 54.8565C91.0851 54.9209 90.9385 55.0174 90.8098 55.1461C90.6882 55.2749 90.5917 55.4322 90.5202 55.6181C90.4486 55.8041 90.4129 56.0115 90.4129 56.2403C90.4129 56.4692 90.4486 56.6766 90.5202 56.8625C90.5917 57.0413 90.6882 57.1951 90.8098 57.3238C90.9385 57.4454 91.0851 57.5419 91.2496 57.6134C91.4213 57.6778 91.6036 57.71 91.7967 57.71C91.9827 57.71 92.1579 57.6778 92.3224 57.6134C92.494 57.5419 92.6406 57.4454 92.7622 57.3238C92.8909 57.1951 92.991 57.0413 93.0625 56.8625C93.1341 56.6766 93.1698 56.4692 93.1698 56.2403C93.1698 56.0115 93.1341 55.8077 93.0625 55.6289C92.991 55.4429 92.8909 55.2856 92.7622 55.1569C92.6406 55.0281 92.494 54.928 92.3224 54.8565C92.1579 54.785 91.9827 54.7492 91.7967 54.7492Z" fill="#28317D"/>
<path d="M48.1429 63.4698C48.0628 63.4698 47.9884 63.4838 47.9195 63.5117C47.8506 63.5396 47.7911 63.5796 47.7408 63.6317C47.6906 63.682 47.6505 63.7425 47.6208 63.8132C47.5928 63.884 47.5789 63.9621 47.5789 64.0478C47.5789 64.1334 47.5928 64.2125 47.6208 64.2851C47.6505 64.3558 47.6906 64.4172 47.7408 64.4694C47.7911 64.5196 47.8506 64.5587 47.9195 64.5866C47.9884 64.6145 48.0628 64.6285 48.1429 64.6285C48.221 64.6285 48.2936 64.6164 48.3606 64.5922C48.4295 64.568 48.4891 64.5317 48.5393 64.4833C48.5915 64.4349 48.6324 64.3744 48.6622 64.3018C48.692 64.2292 48.7069 64.1455 48.7069 64.0505C48.7069 63.9538 48.692 63.8691 48.6622 63.7965C48.6324 63.7239 48.5915 63.6634 48.5393 63.615C48.4891 63.5666 48.4295 63.5303 48.3606 63.5061C48.2936 63.4819 48.221 63.4698 48.1429 63.4698ZM47.5761 62.7858V63.6625C47.6319 63.5508 47.711 63.4689 47.8134 63.4168C47.9176 63.3646 48.0293 63.3386 48.1484 63.3386C48.2452 63.3386 48.3355 63.3544 48.4193 63.386C48.503 63.4177 48.5756 63.4642 48.6371 63.5256C48.7003 63.5852 48.7497 63.6597 48.785 63.749C48.8223 63.8365 48.8409 63.937 48.8409 64.0505C48.8409 64.1641 48.8232 64.2655 48.7878 64.3549C48.7525 64.4442 48.7031 64.5187 48.6399 64.5782C48.5784 64.6378 48.5058 64.6834 48.4221 64.7151C48.3383 64.7467 48.248 64.7625 48.1512 64.7625C48.034 64.7625 47.9232 64.7346 47.819 64.6788C47.7148 64.6229 47.6338 64.5419 47.5761 64.4359V64.7402H47.4421V62.7858H47.5761Z" fill="#28317D"/>
<path d="M50.7788 63.3609V64.7402H50.642V64.447C50.575 64.555 50.4922 64.635 50.3935 64.6871C50.2949 64.7374 50.1897 64.7625 50.078 64.7625C49.9812 64.7625 49.89 64.7458 49.8044 64.7123C49.7206 64.6769 49.6471 64.6276 49.5838 64.5643C49.5205 64.501 49.4703 64.4265 49.433 64.3409C49.3958 64.2534 49.3772 64.1566 49.3772 64.0505C49.3772 63.9445 49.3958 63.8486 49.433 63.763C49.4703 63.6755 49.5205 63.601 49.5838 63.5396C49.6471 63.4782 49.7206 63.4307 49.8044 63.3972C49.89 63.3618 49.9812 63.3442 50.078 63.3442C50.1897 63.3442 50.2967 63.3702 50.3991 63.4223C50.5033 63.4745 50.5843 63.5545 50.642 63.6625V63.3609H50.7788ZM50.078 63.4754C49.9998 63.4754 49.9263 63.4894 49.8574 63.5173C49.7886 63.5433 49.729 63.5815 49.6787 63.6317C49.6285 63.682 49.5885 63.7425 49.5587 63.8132C49.5289 63.884 49.514 63.9631 49.514 64.0505C49.514 64.1362 49.5289 64.2153 49.5587 64.2879C49.5885 64.3586 49.6285 64.4191 49.6787 64.4694C49.729 64.5196 49.7886 64.5587 49.8574 64.5866C49.9263 64.6145 49.9998 64.6285 50.078 64.6285C50.2064 64.6285 50.3125 64.6006 50.3963 64.5447C50.4819 64.487 50.5461 64.4154 50.589 64.3298C50.6318 64.2441 50.6532 64.152 50.6532 64.0533C50.6532 63.9528 50.6318 63.8598 50.589 63.7741C50.5461 63.6885 50.4819 63.6178 50.3963 63.5619C50.3125 63.5042 50.2064 63.4754 50.078 63.4754Z" fill="#28317D"/>
<path d="M51.5589 62.7858V63.6178C51.6147 63.5173 51.6873 63.4465 51.7767 63.4056C51.866 63.3646 51.9591 63.3432 52.0559 63.3414C52.1527 63.3414 52.2364 63.3563 52.3072 63.386C52.3798 63.4158 52.4403 63.4577 52.4886 63.5117C52.537 63.5638 52.5733 63.628 52.5975 63.7043C52.6217 63.7788 52.6338 63.8607 52.6338 63.95V64.7402H52.4998V63.95C52.4998 63.8067 52.4645 63.6913 52.3937 63.6038C52.323 63.5163 52.2104 63.4726 52.0559 63.4726C51.9833 63.4726 51.9163 63.4856 51.8549 63.5117C51.7953 63.5377 51.7441 63.574 51.7013 63.6206C51.6585 63.6671 51.625 63.7211 51.6008 63.7825C51.5766 63.8439 51.5645 63.9109 51.5645 63.9835V64.7402H51.4277V62.7858H51.5589Z" fill="#28317D"/>
<path d="M54.5926 63.3609V64.7402H54.4558V64.447C54.3888 64.555 54.306 64.635 54.2073 64.6871C54.1087 64.7374 54.0035 64.7625 53.8918 64.7625C53.7951 64.7625 53.7038 64.7458 53.6182 64.7123C53.5345 64.6769 53.4609 64.6276 53.3977 64.5643C53.3344 64.501 53.2841 64.4265 53.2469 64.3409C53.2097 64.2534 53.191 64.1566 53.191 64.0505C53.191 63.9445 53.2097 63.8486 53.2469 63.763C53.2841 63.6755 53.3344 63.601 53.3977 63.5396C53.4609 63.4782 53.5345 63.4307 53.6182 63.3972C53.7038 63.3618 53.7951 63.3442 53.8918 63.3442C54.0035 63.3442 54.1106 63.3702 54.2129 63.4223C54.3172 63.4745 54.3981 63.5545 54.4558 63.6625V63.3609H54.5926ZM53.8918 63.4754C53.8137 63.4754 53.7401 63.4894 53.6713 63.5173C53.6024 63.5433 53.5428 63.5815 53.4926 63.6317C53.4423 63.682 53.4023 63.7425 53.3725 63.8132C53.3427 63.884 53.3279 63.9631 53.3279 64.0505C53.3279 64.1362 53.3427 64.2153 53.3725 64.2879C53.4023 64.3586 53.4423 64.4191 53.4926 64.4694C53.5428 64.5196 53.6024 64.5587 53.6713 64.5866C53.7401 64.6145 53.8137 64.6285 53.8918 64.6285C54.0203 64.6285 54.1264 64.6006 54.2101 64.5447C54.2958 64.487 54.36 64.4154 54.4028 64.3298C54.4456 64.2441 54.467 64.152 54.467 64.0533C54.467 63.9528 54.4456 63.8598 54.4028 63.7741C54.36 63.6885 54.2958 63.6178 54.2101 63.5619C54.1264 63.5042 54.0203 63.4754 53.8918 63.4754Z" fill="#28317D"/>
<path d="M56.3499 63.3051L56.4393 63.3833L56.3053 63.5396C56.3537 63.5936 56.3937 63.6578 56.4253 63.7323C56.4588 63.8049 56.4756 63.897 56.4756 64.0087C56.4756 64.0682 56.4672 64.1278 56.4505 64.1874C56.4337 64.2469 56.4086 64.3028 56.3751 64.3549C56.3434 64.4051 56.3043 64.4517 56.2578 64.4945C56.2131 64.5354 56.162 64.5689 56.1043 64.595C56.2271 64.6378 56.3202 64.7011 56.3835 64.7849C56.4486 64.8686 56.4812 64.9701 56.4812 65.0892C56.4812 65.1823 56.4635 65.2632 56.4281 65.3321C56.3946 65.401 56.3481 65.4577 56.2885 65.5024C56.2308 65.5489 56.162 65.5834 56.0819 65.6057C56.0019 65.6281 55.9163 65.6392 55.825 65.6392C55.7338 65.6392 55.6482 65.6271 55.5682 65.6029C55.4881 65.5787 55.4183 65.5424 55.3588 65.494C55.3011 65.4475 55.2555 65.3898 55.222 65.3209C55.1885 65.2539 55.1717 65.1767 55.1717 65.0892H55.3085C55.3085 65.1599 55.3225 65.2213 55.3504 65.2735C55.3783 65.3256 55.4155 65.3684 55.4621 65.4019C55.5105 65.4373 55.5654 65.4633 55.6268 65.4801C55.6901 65.4968 55.7562 65.5052 55.825 65.5052C55.8939 65.5052 55.96 65.4968 56.0233 65.4801C56.0866 65.4652 56.1415 65.441 56.188 65.4075C56.2364 65.374 56.2746 65.3302 56.3025 65.2763C56.3323 65.2241 56.3472 65.1618 56.3472 65.0892C56.3472 65.0147 56.3313 64.9514 56.2997 64.8993C56.2699 64.8472 56.2308 64.8044 56.1824 64.7709C56.134 64.7374 56.0782 64.7132 56.0149 64.6983C55.9535 64.6834 55.8902 64.676 55.825 64.676C55.7245 64.676 55.6343 64.6583 55.5542 64.6229C55.4742 64.5876 55.4062 64.5401 55.3504 64.4805C55.2946 64.421 55.2517 64.3502 55.222 64.2683C55.1922 64.1864 55.1773 64.0999 55.1773 64.0087C55.1773 63.9007 55.194 63.8049 55.2276 63.7211C55.2629 63.6373 55.3095 63.5675 55.3672 63.5117C55.4267 63.454 55.4956 63.4102 55.5738 63.3805C55.6519 63.3507 55.7357 63.3358 55.825 63.3358C55.8958 63.3358 55.9646 63.3479 56.0317 63.3721C56.1005 63.3944 56.162 63.4242 56.2159 63.4614L56.3499 63.3051ZM55.825 63.4726C55.7543 63.4726 55.6873 63.4838 55.624 63.5061C55.5626 63.5284 55.5086 63.5619 55.4621 63.6066C55.4174 63.6513 55.3811 63.7071 55.3532 63.7741C55.3271 63.8411 55.3141 63.9193 55.3141 64.0087C55.3141 64.0794 55.3253 64.1473 55.3476 64.2125C55.3718 64.2758 55.4062 64.3316 55.4509 64.38C55.4956 64.4284 55.5496 64.4675 55.6129 64.4973C55.6761 64.5252 55.7469 64.5392 55.825 64.5392C55.8958 64.5392 55.9628 64.5252 56.0261 64.4973C56.0894 64.4675 56.1443 64.4284 56.1908 64.38C56.2373 64.3316 56.2736 64.2758 56.2997 64.2125C56.3276 64.1473 56.3416 64.0794 56.3416 64.0087C56.3416 63.9212 56.3276 63.8439 56.2997 63.7769C56.2736 63.7099 56.2373 63.6541 56.1908 63.6094C56.1443 63.5647 56.0894 63.5312 56.0261 63.5089C55.9628 63.4847 55.8958 63.4726 55.825 63.4726Z" fill="#28317D"/>
<path d="M57.1707 63.3553V64.7402H57.0339V63.3553H57.1707ZM56.9948 62.9114C56.9948 62.9468 57.006 62.9738 57.0283 62.9924C57.0525 63.011 57.0777 63.0203 57.1037 63.0203C57.1316 63.0203 57.1568 63.011 57.1791 62.9924C57.2033 62.9738 57.2154 62.9468 57.2154 62.9114C57.2154 62.8742 57.2033 62.8472 57.1791 62.8304C57.1568 62.8118 57.1316 62.8025 57.1037 62.8025C57.0777 62.8025 57.0525 62.8118 57.0283 62.8304C57.006 62.8472 56.9948 62.8742 56.9948 62.9114Z" fill="#28317D"/>
<path d="M59.1655 63.3609V64.7402H59.0287V64.447C58.9617 64.555 58.8788 64.635 58.7802 64.6871C58.6815 64.7374 58.5764 64.7625 58.4647 64.7625C58.3679 64.7625 58.2767 64.7458 58.1911 64.7123C58.1073 64.6769 58.0338 64.6276 57.9705 64.5643C57.9072 64.501 57.857 64.4265 57.8197 64.3409C57.7825 64.2534 57.7639 64.1566 57.7639 64.0505C57.7639 63.9445 57.7825 63.8486 57.8197 63.763C57.857 63.6755 57.9072 63.601 57.9705 63.5396C58.0338 63.4782 58.1073 63.4307 58.1911 63.3972C58.2767 63.3618 58.3679 63.3442 58.4647 63.3442C58.5764 63.3442 58.6834 63.3702 58.7858 63.4223C58.89 63.4745 58.971 63.5545 59.0287 63.6625V63.3609H59.1655ZM58.4647 63.4754C58.3865 63.4754 58.313 63.4894 58.2441 63.5173C58.1753 63.5433 58.1157 63.5815 58.0654 63.6317C58.0152 63.682 57.9752 63.7425 57.9454 63.8132C57.9156 63.884 57.9007 63.9631 57.9007 64.0505C57.9007 64.1362 57.9156 64.2153 57.9454 64.2879C57.9752 64.3586 58.0152 64.4191 58.0654 64.4694C58.1157 64.5196 58.1753 64.5587 58.2441 64.5866C58.313 64.6145 58.3865 64.6285 58.4647 64.6285C58.5931 64.6285 58.6992 64.6006 58.783 64.5447C58.8686 64.487 58.9328 64.4154 58.9756 64.3298C59.0185 64.2441 59.0399 64.152 59.0399 64.0533C59.0399 63.9528 59.0185 63.8598 58.9756 63.7741C58.9328 63.6885 58.8686 63.6178 58.783 63.5619C58.6992 63.5042 58.5931 63.4754 58.4647 63.4754Z" fill="#28317D"/>
<path d="M62.9035 64.7402V63.9137C62.9035 63.8467 62.8923 63.7862 62.8699 63.7323C62.8495 63.6764 62.8197 63.629 62.7806 63.5899C62.7415 63.5489 62.695 63.5173 62.641 63.4949C62.587 63.4726 62.5275 63.4614 62.4623 63.4614C62.3972 63.4614 62.3367 63.4735 62.2808 63.4977C62.2268 63.5201 62.1803 63.5517 62.1412 63.5927C62.1021 63.6336 62.0714 63.682 62.0491 63.7378C62.0286 63.7937 62.0184 63.8551 62.0184 63.9221V64.7402H61.8816V63.9221C61.8816 63.8551 61.8704 63.7937 61.8481 63.7378C61.8276 63.682 61.7978 63.6345 61.7587 63.5954C61.7196 63.5545 61.6722 63.5229 61.6163 63.5005C61.5623 63.4763 61.5028 63.4642 61.4376 63.4642C61.3725 63.4642 61.3129 63.4763 61.2589 63.5005C61.205 63.5229 61.1584 63.5545 61.1193 63.5954C61.0802 63.6345 61.0495 63.682 61.0272 63.7378C61.0067 63.7937 60.9965 63.8551 60.9965 63.9221V64.7402H60.8597V63.3609H60.9881L60.9909 63.5899C61.0393 63.4987 61.1035 63.4335 61.1836 63.3944C61.2655 63.3535 61.3511 63.333 61.4404 63.333C61.4925 63.333 61.5447 63.3395 61.5968 63.3525C61.6489 63.3637 61.6973 63.3833 61.742 63.4112C61.7885 63.4391 61.8294 63.4745 61.8648 63.5173C61.902 63.5601 61.9309 63.6122 61.9514 63.6736C61.9718 63.6178 61.9998 63.5685 62.0351 63.5256C62.0724 63.4828 62.1133 63.4475 62.158 63.4196C62.2045 63.3898 62.2538 63.3684 62.306 63.3553C62.3581 63.3404 62.4102 63.333 62.4623 63.333C62.5461 63.333 62.6233 63.347 62.694 63.3749C62.7648 63.4028 62.8253 63.4428 62.8755 63.4949C62.9276 63.5452 62.9677 63.6066 62.9956 63.6792C63.0254 63.7499 63.0403 63.8281 63.0403 63.9137V64.7402H62.9035Z" fill="#28317D"/>
<path d="M64.3244 64.7597C64.2276 64.7597 64.1364 64.7439 64.0508 64.7123C63.9652 64.6788 63.8907 64.6313 63.8275 64.5699C63.7642 64.5084 63.7139 64.434 63.6767 64.3465C63.6413 64.259 63.6236 64.1604 63.6236 64.0505C63.6236 63.9463 63.6413 63.8514 63.6767 63.7658C63.7139 63.6783 63.7642 63.6029 63.8275 63.5396C63.8907 63.4763 63.9652 63.427 64.0508 63.3916C64.1364 63.3563 64.2276 63.3386 64.3244 63.3386C64.4212 63.3386 64.5134 63.3544 64.6009 63.386C64.6902 63.4158 64.7665 63.4624 64.8298 63.5256C64.8949 63.5889 64.9433 63.6699 64.975 63.7686C65.0085 63.8653 65.0187 63.9807 65.0057 64.1148H63.7632C63.7707 64.1948 63.7902 64.2674 63.8219 64.3325C63.8554 64.3958 63.8973 64.4489 63.9475 64.4917C63.9978 64.5345 64.0555 64.568 64.1206 64.5922C64.1858 64.6145 64.2537 64.6257 64.3244 64.6257C64.3691 64.6257 64.4157 64.6211 64.464 64.6118C64.5124 64.6024 64.558 64.5894 64.6009 64.5727C64.6455 64.554 64.6865 64.5317 64.7237 64.5057C64.7628 64.4796 64.7954 64.4498 64.8214 64.4163L64.9191 64.4945C64.8521 64.5838 64.7637 64.6508 64.6539 64.6955C64.5459 64.7383 64.4361 64.7597 64.3244 64.7597ZM64.8829 63.9947C64.881 63.8235 64.8289 63.6922 64.7265 63.601C64.626 63.5098 64.492 63.4642 64.3244 63.4642C64.2537 63.4642 64.1858 63.4763 64.1206 63.5005C64.0555 63.5229 63.9978 63.5573 63.9475 63.6038C63.8973 63.6485 63.8554 63.7043 63.8219 63.7713C63.7902 63.8365 63.7707 63.9109 63.7632 63.9947H64.8829Z" fill="#28317D"/>
<path d="M65.7728 62.7858V64.7402H65.636V62.7858H65.7728Z" fill="#28317D"/>
<path d="M67.7567 63.3609V64.7402H67.6199V64.447C67.5529 64.555 67.47 64.635 67.3714 64.6871C67.2727 64.7374 67.1676 64.7625 67.0559 64.7625C66.9591 64.7625 66.8679 64.7458 66.7823 64.7123C66.6985 64.6769 66.625 64.6276 66.5617 64.5643C66.4984 64.501 66.4482 64.4265 66.4109 64.3409C66.3737 64.2534 66.3551 64.1566 66.3551 64.0505C66.3551 63.9445 66.3737 63.8486 66.4109 63.763C66.4482 63.6755 66.4984 63.601 66.5617 63.5396C66.625 63.4782 66.6985 63.4307 66.7823 63.3972C66.8679 63.3618 66.9591 63.3442 67.0559 63.3442C67.1676 63.3442 67.2746 63.3702 67.377 63.4223C67.4812 63.4745 67.5622 63.5545 67.6199 63.6625V63.3609H67.7567ZM67.0559 63.4754C66.9777 63.4754 66.9042 63.4894 66.8353 63.5173C66.7664 63.5433 66.7069 63.5815 66.6566 63.6317C66.6064 63.682 66.5663 63.7425 66.5366 63.8132C66.5068 63.884 66.4919 63.9631 66.4919 64.0505C66.4919 64.1362 66.5068 64.2153 66.5366 64.2879C66.5663 64.3586 66.6064 64.4191 66.6566 64.4694C66.7069 64.5196 66.7664 64.5587 66.8353 64.5866C66.9042 64.6145 66.9777 64.6285 67.0559 64.6285C67.1843 64.6285 67.2904 64.6006 67.3742 64.5447C67.4598 64.487 67.524 64.4154 67.5668 64.3298C67.6096 64.2441 67.631 64.152 67.631 64.0533C67.631 63.9528 67.6096 63.8598 67.5668 63.7741C67.524 63.6885 67.4598 63.6178 67.3742 63.5619C67.2904 63.5042 67.1843 63.4754 67.0559 63.4754Z" fill="#28317D"/>
<path d="M69.5238 63.3609L68.6834 65.3153H68.5382L68.7923 64.7234L68.2395 63.3609H68.3874L68.7085 64.1762L68.8705 64.5755L69.0296 64.1734L69.3758 63.3609H69.5238Z" fill="#28317D"/>
<path d="M71.3906 63.3609V64.7402H71.2538V64.447C71.1867 64.555 71.1039 64.635 71.0053 64.6871C70.9066 64.7374 70.8014 64.7625 70.6898 64.7625C70.593 64.7625 70.5018 64.7458 70.4161 64.7123C70.3324 64.6769 70.2589 64.6276 70.1956 64.5643C70.1323 64.501 70.082 64.4265 70.0448 64.3409C70.0076 64.2534 69.989 64.1566 69.989 64.0505C69.989 63.9445 70.0076 63.8486 70.0448 63.763C70.082 63.6755 70.1323 63.601 70.1956 63.5396C70.2589 63.4782 70.3324 63.4307 70.4161 63.3972C70.5018 63.3618 70.593 63.3442 70.6898 63.3442C70.8014 63.3442 70.9085 63.3702 71.0108 63.4223C71.1151 63.4745 71.1961 63.5545 71.2538 63.6625V63.3609H71.3906ZM70.6898 63.4754C70.6116 63.4754 70.5381 63.4894 70.4692 63.5173C70.4003 63.5433 70.3408 63.5815 70.2905 63.6317C70.2402 63.682 70.2002 63.7425 70.1704 63.8132C70.1407 63.884 70.1258 63.9631 70.1258 64.0505C70.1258 64.1362 70.1407 64.2153 70.1704 64.2879C70.2002 64.3586 70.2402 64.4191 70.2905 64.4694C70.3408 64.5196 70.4003 64.5587 70.4692 64.5866C70.5381 64.6145 70.6116 64.6285 70.6898 64.6285C70.8182 64.6285 70.9243 64.6006 71.0081 64.5447C71.0937 64.487 71.1579 64.4154 71.2007 64.3298C71.2435 64.2441 71.2649 64.152 71.2649 64.0533C71.2649 63.9528 71.2435 63.8598 71.2007 63.7741C71.1579 63.6885 71.0937 63.6178 71.0081 63.5619C70.9243 63.5042 70.8182 63.4754 70.6898 63.4754Z" fill="#28317D"/>
<path d="M72.1734 63.3609V63.6066C72.2274 63.5117 72.2982 63.4437 72.3856 63.4028C72.475 63.36 72.5681 63.3377 72.6648 63.3358C72.7579 63.3358 72.8426 63.3498 72.9189 63.3777C72.9952 63.4056 73.0604 63.4456 73.1144 63.4977C73.1683 63.5498 73.2102 63.6141 73.24 63.6904C73.2716 63.7648 73.2875 63.8495 73.2875 63.9445V64.7402H73.1507V63.9472C73.1507 63.789 73.106 63.6699 73.0166 63.5899C72.9292 63.508 72.81 63.4679 72.6593 63.4698C72.5885 63.4698 72.5234 63.4828 72.4638 63.5089C72.4043 63.535 72.3531 63.5703 72.3103 63.615C72.2674 63.6597 72.2339 63.7127 72.2097 63.7741C72.1874 63.8356 72.1762 63.9016 72.1762 63.9724V64.7402H72.0394V63.3609H72.1734Z" fill="#28317D"/>
<path d="M74.0586 63.3553V64.7402H73.9218V63.3553H74.0586ZM73.8827 62.9114C73.8827 62.9468 73.8939 62.9738 73.9162 62.9924C73.9404 63.011 73.9655 63.0203 73.9916 63.0203C74.0195 63.0203 74.0447 63.011 74.067 62.9924C74.0912 62.9738 74.1033 62.9468 74.1033 62.9114C74.1033 62.8742 74.0912 62.8472 74.067 62.8304C74.0447 62.8118 74.0195 62.8025 73.9916 62.8025C73.9655 62.8025 73.9404 62.8118 73.9162 62.8304C73.8939 62.8472 73.8827 62.8742 73.8827 62.9114Z" fill="#28317D"/>
<path d="M76.3951 63.4698C76.3169 63.4698 76.2434 63.4819 76.1745 63.5061C76.1075 63.5303 76.048 63.5666 75.9959 63.615C75.9456 63.6634 75.9056 63.7239 75.8758 63.7965C75.846 63.8691 75.8311 63.9538 75.8311 64.0505C75.8311 64.1455 75.846 64.2292 75.8758 64.3018C75.9056 64.3744 75.9456 64.4349 75.9959 64.4833C76.048 64.5317 76.1075 64.568 76.1745 64.5922C76.2434 64.6164 76.3169 64.6285 76.3951 64.6285C76.477 64.6285 76.5524 64.6145 76.6213 64.5866C76.6901 64.5587 76.7497 64.5196 76.8 64.4694C76.8502 64.4172 76.8893 64.3558 76.9172 64.2851C76.9451 64.2125 76.9591 64.1334 76.9591 64.0478C76.9591 63.9621 76.9442 63.884 76.9144 63.8132C76.8865 63.7425 76.8474 63.682 76.7972 63.6317C76.7469 63.5796 76.6874 63.5396 76.6185 63.5117C76.5496 63.4838 76.4752 63.4698 76.3951 63.4698ZM77.0959 62.7858V64.7402H76.9619V64.4359C76.9042 64.5419 76.8232 64.6229 76.719 64.6788C76.6148 64.7346 76.504 64.7625 76.3867 64.7625C76.29 64.7625 76.1997 64.7467 76.1159 64.7151C76.0322 64.6834 75.9586 64.6378 75.8953 64.5782C75.8339 64.5187 75.7855 64.4442 75.7502 64.3549C75.7148 64.2655 75.6971 64.1641 75.6971 64.0505C75.6971 63.937 75.7148 63.8365 75.7502 63.749C75.7874 63.6597 75.8367 63.5852 75.8981 63.5256C75.9614 63.4642 76.0349 63.4177 76.1187 63.386C76.2025 63.3544 76.2927 63.3386 76.3895 63.3386C76.5087 63.3386 76.6194 63.3646 76.7218 63.4168C76.826 63.4689 76.9061 63.5508 76.9619 63.6625V62.7858H77.0959Z" fill="#28317D"/>
<path d="M79.0929 63.3609V64.7402H78.9561V64.447C78.8891 64.555 78.8062 64.635 78.7076 64.6871C78.6089 64.7374 78.5038 64.7625 78.3921 64.7625C78.2953 64.7625 78.2041 64.7458 78.1185 64.7123C78.0347 64.6769 77.9612 64.6276 77.8979 64.5643C77.8346 64.501 77.7843 64.4265 77.7471 64.3409C77.7099 64.2534 77.6913 64.1566 77.6913 64.0505C77.6913 63.9445 77.7099 63.8486 77.7471 63.763C77.7843 63.6755 77.8346 63.601 77.8979 63.5396C77.9612 63.4782 78.0347 63.4307 78.1185 63.3972C78.2041 63.3618 78.2953 63.3442 78.3921 63.3442C78.5038 63.3442 78.6108 63.3702 78.7132 63.4223C78.8174 63.4745 78.8984 63.5545 78.9561 63.6625V63.3609H79.0929ZM78.3921 63.4754C78.3139 63.4754 78.2404 63.4894 78.1715 63.5173C78.1026 63.5433 78.0431 63.5815 77.9928 63.6317C77.9426 63.682 77.9025 63.7425 77.8728 63.8132C77.843 63.884 77.8281 63.9631 77.8281 64.0505C77.8281 64.1362 77.843 64.2153 77.8728 64.2879C77.9025 64.3586 77.9426 64.4191 77.9928 64.4694C78.0431 64.5196 78.1026 64.5587 78.1715 64.5866C78.2404 64.6145 78.3139 64.6285 78.3921 64.6285C78.5205 64.6285 78.6266 64.6006 78.7104 64.5447C78.796 64.487 78.8602 64.4154 78.903 64.3298C78.9458 64.2441 78.9672 64.152 78.9672 64.0533C78.9672 63.9528 78.9458 63.8598 78.903 63.7741C78.8602 63.6885 78.796 63.6178 78.7104 63.5619C78.6266 63.5042 78.5205 63.4754 78.3921 63.4754Z" fill="#28317D"/>
<path d="M79.8702 63.3609L79.8758 63.6066C79.8981 63.5601 79.926 63.521 79.9595 63.4894C79.993 63.4558 80.0303 63.4289 80.0712 63.4084C80.1122 63.386 80.155 63.3702 80.1996 63.3609C80.2443 63.3516 80.289 63.347 80.3337 63.347C80.4379 63.3432 80.5365 63.3702 80.6296 63.4279L80.5682 63.5396C80.531 63.5173 80.4928 63.5014 80.4537 63.4921C80.4146 63.481 80.3746 63.4754 80.3337 63.4754C80.2704 63.4754 80.2108 63.4884 80.155 63.5145C80.0991 63.5387 80.0507 63.5722 80.0098 63.615C79.9688 63.6559 79.9363 63.7043 79.9121 63.7602C79.8897 63.8142 79.8786 63.8728 79.8786 63.9361V64.7402H79.7417V63.3609H79.8702Z" fill="#28317D"/>
<path d="M81.2483 63.3553V64.7402H81.1115V63.3553H81.2483ZM81.0724 62.9114C81.0724 62.9468 81.0836 62.9738 81.1059 62.9924C81.1301 63.011 81.1553 63.0203 81.1813 63.0203C81.2092 63.0203 81.2344 63.011 81.2567 62.9924C81.2809 62.9738 81.293 62.9468 81.293 62.9114C81.293 62.8742 81.2809 62.8472 81.2567 62.8304C81.2344 62.8118 81.2092 62.8025 81.1813 62.8025C81.1553 62.8025 81.1301 62.8118 81.1059 62.8304C81.0836 62.8472 81.0724 62.8742 81.0724 62.9114Z" fill="#28317D"/>
<path d="M83.0934 62.7858V63.6178C83.1493 63.5173 83.2219 63.4465 83.3112 63.4056C83.4006 63.3646 83.4936 63.3432 83.5904 63.3414C83.6872 63.3414 83.771 63.3563 83.8417 63.386C83.9143 63.4158 83.9748 63.4577 84.0232 63.5117C84.0716 63.5638 84.1079 63.628 84.1321 63.7043C84.1563 63.7788 84.1684 63.8607 84.1684 63.95V64.7402H84.0343V63.95C84.0343 63.8067 83.999 63.6913 83.9283 63.6038C83.8575 63.5163 83.7449 63.4726 83.5904 63.4726C83.5178 63.4726 83.4508 63.4856 83.3894 63.5117C83.3298 63.5377 83.2786 63.574 83.2358 63.6206C83.193 63.6671 83.1595 63.7211 83.1353 63.7825C83.1111 63.8439 83.099 63.9109 83.099 63.9835V64.7402H82.9622V62.7858H83.0934Z" fill="#28317D"/>
<path d="M86.1272 63.3609V64.7402H85.9904V64.447C85.9234 64.555 85.8405 64.635 85.7419 64.6871C85.6432 64.7374 85.5381 64.7625 85.4264 64.7625C85.3296 64.7625 85.2384 64.7458 85.1528 64.7123C85.069 64.6769 84.9955 64.6276 84.9322 64.5643C84.8689 64.501 84.8186 64.4265 84.7814 64.3409C84.7442 64.2534 84.7256 64.1566 84.7256 64.0505C84.7256 63.9445 84.7442 63.8486 84.7814 63.763C84.8186 63.6755 84.8689 63.601 84.9322 63.5396C84.9955 63.4782 85.069 63.4307 85.1528 63.3972C85.2384 63.3618 85.3296 63.3442 85.4264 63.3442C85.5381 63.3442 85.6451 63.3702 85.7475 63.4223C85.8517 63.4745 85.9327 63.5545 85.9904 63.6625V63.3609H86.1272ZM85.4264 63.4754C85.3482 63.4754 85.2747 63.4894 85.2058 63.5173C85.1369 63.5433 85.0774 63.5815 85.0271 63.6317C84.9769 63.682 84.9368 63.7425 84.9071 63.8132C84.8773 63.884 84.8624 63.9631 84.8624 64.0505C84.8624 64.1362 84.8773 64.2153 84.9071 64.2879C84.9368 64.3586 84.9769 64.4191 85.0271 64.4694C85.0774 64.5196 85.1369 64.5587 85.2058 64.5866C85.2747 64.6145 85.3482 64.6285 85.4264 64.6285C85.5548 64.6285 85.6609 64.6006 85.7447 64.5447C85.8303 64.487 85.8945 64.4154 85.9373 64.3298C85.9801 64.2441 86.0015 64.152 86.0015 64.0533C86.0015 63.9528 85.9801 63.8598 85.9373 63.7741C85.8945 63.6885 85.8303 63.6178 85.7447 63.5619C85.6609 63.5042 85.5548 63.4754 85.4264 63.4754Z" fill="#28317D"/>
<path d="M87.0316 62.9449V63.3609H87.5006V63.4754H87.0316V64.3158C87.0316 64.3623 87.0343 64.4051 87.0399 64.4442C87.0474 64.4833 87.0595 64.5168 87.0762 64.5447C87.0948 64.5727 87.1209 64.595 87.1544 64.6118C87.1879 64.6266 87.2316 64.6341 87.2856 64.6341C87.3191 64.6341 87.3536 64.6294 87.3889 64.6201C87.4262 64.609 87.4625 64.595 87.4978 64.5782L87.5453 64.6899C87.5025 64.7104 87.4587 64.7272 87.4141 64.7402C87.3713 64.7532 87.3284 64.7597 87.2856 64.7597C87.213 64.7597 87.1516 64.7495 87.1014 64.729C87.0511 64.7085 87.0111 64.6788 86.9813 64.6397C86.9515 64.6006 86.9301 64.554 86.9171 64.5001C86.904 64.4442 86.8975 64.3828 86.8975 64.3158V63.4754H86.6044V63.3609H86.8975V62.9589L87.0316 62.9449Z" fill="#28317D"/>
<path d="M88.2281 63.3553V64.7402H88.0913V63.3553H88.2281ZM88.0522 62.9114C88.0522 62.9468 88.0634 62.9738 88.0857 62.9924C88.1099 63.011 88.135 63.0203 88.1611 63.0203C88.189 63.0203 88.2141 63.011 88.2365 62.9924C88.2607 62.9738 88.2728 62.9468 88.2728 62.9114C88.2728 62.8742 88.2607 62.8472 88.2365 62.8304C88.2141 62.8118 88.189 62.8025 88.1611 62.8025C88.135 62.8025 88.1099 62.8118 88.0857 62.8304C88.0634 62.8472 88.0522 62.8742 88.0522 62.9114Z" fill="#28317D"/>
</svg>
