<svg width="108" height="108" viewBox="0 0 108 108" fill="none" xmlns="http://www.w3.org/2000/svg">
<path fill-rule="evenodd" clip-rule="evenodd" d="M17.9267 47.0034H20.5794L23.3938 47L27.2173 50.8906L27.1709 56.3474L23.2786 60.1709L17.8235 60.1227L14 56.2322L14.0481 50.7771L16.9966 47.8785V57.1502H24.2327V49.8745H18.7553V55.3519H22.3622V51.7639H19.7147V50.8235H23.282V56.2408H17.9267V47.0034Z" fill="#ED3338"/>
<path fill-rule="evenodd" clip-rule="evenodd" d="M33.3497 53.184C33.9102 53.184 34.3228 53.1221 34.5893 52.9966C34.8557 52.8711 35.0603 52.6957 35.2013 52.4688C35.3423 52.2419 35.4145 51.953 35.4145 51.6006C35.4145 51.2482 35.344 50.961 35.2047 50.7358C35.0655 50.5106 34.8643 50.3404 34.6047 50.2235C34.3451 50.1066 33.9274 50.0499 33.3514 50.0533V53.184M33.3514 53.6396V56.4797C33.3514 56.6895 33.4047 56.8493 33.5096 56.9577C33.6162 57.0642 33.7709 57.1193 33.9789 57.1193C34.2867 57.1193 34.5703 57.0505 34.8282 56.9112C35.0878 56.7737 35.2855 56.5725 35.4248 56.3095C35.5623 56.0465 35.6328 55.7542 35.6328 55.431C35.6328 55.0614 35.5554 54.7296 35.4007 54.4356C35.246 54.1416 35.0173 53.9353 34.713 53.8149C34.4087 53.6946 33.9566 53.6361 33.3531 53.6413L33.3514 53.6396ZM35.4867 53.3422C36.2449 53.5175 36.7761 53.7307 37.0821 53.9817C37.5222 54.3376 37.7423 54.7983 37.7423 55.3657C37.7423 55.9639 37.5016 56.4591 37.0219 56.8511C36.4322 57.3238 35.5744 57.5611 34.45 57.5611H30.4133V57.3565C30.7812 57.3565 31.0305 57.3221 31.1611 57.2534C31.2918 57.1846 31.3829 57.0952 31.4362 56.9852C31.4895 56.8751 31.5153 56.6035 31.5153 56.1703V51.0006C31.5153 50.5673 31.4878 50.2957 31.4362 50.1822C31.3829 50.0705 31.2901 49.9811 31.1577 49.914C31.0253 49.847 30.776 49.8143 30.4133 49.8143V49.6097H34.2231C35.1342 49.6097 35.7789 49.6905 36.1572 49.8521C36.5371 50.0138 36.8345 50.2562 37.0546 50.5794C37.2729 50.9009 37.383 51.2447 37.383 51.6075C37.383 51.9908 37.2437 52.3313 36.9635 52.6287C36.6833 52.9278 36.1916 53.1651 35.4867 53.3404V53.3422Z" fill="#383336"/>
<path fill-rule="evenodd" clip-rule="evenodd" d="M42.9446 54.941L41.7601 52.2333L40.5463 54.941H42.9446ZM43.1337 55.3725H40.3538L40.0065 56.1479C39.8965 56.4092 39.8414 56.6241 39.8414 56.7943C39.8414 57.0195 39.9308 57.1863 40.1114 57.2929C40.2162 57.3565 40.4758 57.4029 40.8902 57.4356V57.6402H38.2495V57.4356C38.5348 57.3926 38.7687 57.2723 38.9526 57.078C39.1366 56.882 39.3618 56.478 39.6317 55.866L42.4684 49.5324H42.5801L45.4461 56.0413C45.7194 56.6654 45.9429 57.0591 46.12 57.2207C46.2524 57.3428 46.4398 57.415 46.6822 57.4339V57.6385H42.8415V57.4339H42.9996C43.3074 57.4339 43.524 57.3909 43.6495 57.3032C43.7355 57.2396 43.7784 57.1485 43.7784 57.0299C43.7784 56.9577 43.7664 56.8837 43.744 56.8098C43.7354 56.7737 43.677 56.6258 43.567 56.3628L43.1337 55.3708V55.3725Z" fill="#383336"/>
<path fill-rule="evenodd" clip-rule="evenodd" d="M49.806 49.5203L53.7206 54.4459V51.0315C53.7206 50.5502 53.6519 50.2252 53.516 50.055C53.3269 49.8264 53.0123 49.7163 52.5705 49.7232V49.5186H55.1974V49.7232C54.8622 49.7662 54.6352 49.8229 54.5201 49.8917C54.4049 49.9605 54.3155 50.0722 54.2501 50.2287C54.1865 50.3851 54.1539 50.6516 54.1539 51.0298V57.6505H53.9562L48.5888 51.0229V56.0912C48.5888 56.5519 48.6937 56.8631 48.9034 57.0247C49.1131 57.1863 49.3538 57.2671 49.6237 57.2671H49.8111V57.47H46.9813V57.2671C47.4197 57.2637 47.7257 57.1726 47.8977 56.9955C48.0696 56.8184 48.1555 56.5175 48.1555 56.0912V50.4693L47.9888 50.263C47.8203 50.0481 47.6724 49.9054 47.5435 49.8384C47.4146 49.7696 47.2289 49.7318 46.9865 49.7249V49.5203H49.8043" fill="#383336"/>
<path fill-rule="evenodd" clip-rule="evenodd" d="M60.4909 52.6596L63.276 56.1599C63.6697 56.6551 64.0101 56.9903 64.2955 57.1674C64.5018 57.2929 64.7218 57.3548 64.9522 57.3548V57.5594H60.8244V57.3548C61.0857 57.3307 61.2542 57.2895 61.3316 57.231C61.4072 57.1726 61.445 57.0986 61.445 57.0109C61.445 56.8442 61.2662 56.533 60.9069 56.0757L59.088 53.7891L58.7906 54.0298V56.2046C58.7906 56.6224 58.8146 56.882 58.8611 56.9834C58.9075 57.0849 58.9986 57.1743 59.131 57.2465C59.2651 57.3204 59.4783 57.3548 59.7722 57.3548V57.5594H55.7665V57.3548H56.0295C56.2582 57.3548 56.4439 57.3135 56.5848 57.231C56.6863 57.176 56.7636 57.0814 56.8186 56.9473C56.8616 56.8528 56.8822 56.6052 56.8822 56.2029V50.9645C56.8822 50.5553 56.8616 50.2991 56.8186 50.1977C56.7757 50.0963 56.6897 50.0052 56.559 49.9295C56.4284 49.8521 56.253 49.8143 56.0295 49.8143H55.7665V49.6097H59.7121V49.8143C59.4439 49.8143 59.2393 49.8539 59.0983 49.933C58.9969 49.988 58.9178 50.0808 58.8593 50.2115C58.8129 50.3095 58.7889 50.5622 58.7889 50.9662V53.447L61.7442 51.0676C62.1533 50.7289 62.3579 50.459 62.3579 50.2562C62.3579 50.1049 62.2737 49.9862 62.1069 49.8986C62.021 49.8556 61.8078 49.8264 61.4691 49.8143V49.6097H64.562V49.8143C64.2852 49.8332 64.0668 49.8848 63.9087 49.9656C63.7505 50.0464 63.386 50.3215 62.817 50.7891L60.4926 52.6613" fill="#383336"/>
<path fill-rule="evenodd" clip-rule="evenodd" d="M73.5431 54.8516L75.7145 49.6097H78.9311V49.8143H78.675C78.4411 49.8143 78.2537 49.8556 78.1145 49.9398C78.0165 49.9948 77.9391 50.0894 77.8807 50.2201C77.8377 50.3163 77.8153 50.5639 77.8153 50.9662V56.2064C77.8153 56.6155 77.8377 56.8717 77.8807 56.9731C77.9237 57.0746 78.0113 57.1657 78.1437 57.2413C78.2761 57.3187 78.4532 57.3565 78.675 57.3565H78.9311V57.5611H74.793V57.3565H75.0509C75.2847 57.3565 75.4703 57.3152 75.6113 57.2327C75.7093 57.1777 75.7867 57.0832 75.8451 56.9491C75.8881 56.8545 75.9087 56.6069 75.9087 56.2046V50.3215L72.8554 57.5611H72.7145L69.6199 50.3748V55.9657C69.6199 56.3594 69.6302 56.6001 69.6491 56.6912C69.699 56.8872 69.8107 57.0471 69.9809 57.1708C70.1511 57.2946 70.4193 57.3565 70.7821 57.3565V57.5611H68.0606V57.3565H68.1431C68.3202 57.3599 68.4835 57.3324 68.6365 57.2706C68.7895 57.2087 68.9047 57.1279 68.9838 57.0247C69.0611 56.9216 69.123 56.7771 69.166 56.5932C69.1746 56.5502 69.178 56.3491 69.178 55.9897V50.9645C69.178 50.5553 69.1574 50.2991 69.1144 50.1977C69.0714 50.0963 68.9838 50.0069 68.8497 49.9295C68.7173 49.8522 68.5385 49.8126 68.315 49.8126H68.0623V49.608H71.303L73.5448 54.8499" fill="#383336"/>
<path fill-rule="evenodd" clip-rule="evenodd" d="M83.9306 54.941L82.746 52.2333L81.5323 54.941H83.9306ZM84.1197 55.3725H81.3397L80.9925 56.1479C80.8841 56.4092 80.8291 56.6241 80.8291 56.7943C80.8291 57.0195 80.9185 57.1863 81.0973 57.2929C81.2022 57.3565 81.4618 57.4029 81.8761 57.4356V57.6402H79.2354V57.4356C79.5208 57.3926 79.7546 57.2723 79.9386 57.078C80.1225 56.882 80.3477 56.478 80.6177 55.866L83.4544 49.5324H83.5661L86.432 56.0413C86.7054 56.6654 86.9306 57.0591 87.106 57.2207C87.2383 57.3428 87.4257 57.415 87.6681 57.4339V57.6385H83.8274V57.4339H83.9856C84.2933 57.4339 84.51 57.3909 84.6355 57.3032C84.7214 57.2396 84.7644 57.1485 84.7644 57.0299C84.7644 56.9577 84.7524 56.8837 84.7283 56.8098C84.7197 56.7737 84.6612 56.6258 84.5529 56.3628L84.1197 55.3708V55.3725Z" fill="#383336"/>
<path fill-rule="evenodd" clip-rule="evenodd" d="M93.4481 49.4292L93.5083 52.0802H93.2676C93.1541 51.4166 92.8756 50.8837 92.4321 50.4797C91.9885 50.0756 91.5071 49.8745 90.9914 49.8745C90.5925 49.8745 90.2762 49.9811 90.0441 50.1943C89.812 50.4075 89.6951 50.6516 89.6951 50.9284C89.6951 51.1037 89.7364 51.2602 89.8172 51.396C89.9306 51.58 90.1129 51.7605 90.3621 51.941C90.5461 52.0699 90.9707 52.2986 91.6344 52.6252C92.5645 53.0825 93.192 53.5141 93.5169 53.9198C93.8367 54.3255 93.9966 54.7897 93.9966 55.3124C93.9966 55.976 93.737 56.5468 93.2195 57.0247C92.702 57.5026 92.0435 57.7416 91.2458 57.7416C90.9965 57.7416 90.7593 57.7158 90.5358 57.666C90.3123 57.6161 90.0338 57.5198 89.6968 57.3789C89.5094 57.3015 89.3547 57.262 89.2326 57.262C89.1312 57.262 89.0229 57.3015 88.9094 57.3806C88.7959 57.4597 88.7048 57.58 88.6343 57.7416H88.4315V54.7433H88.6343C88.8063 55.5857 89.1381 56.227 89.628 56.6705C90.118 57.1124 90.6475 57.3342 91.2149 57.3342C91.6516 57.3342 92.0023 57.2155 92.2619 56.9766C92.5215 56.7393 92.6521 56.4608 92.6521 56.1445C92.6521 55.9571 92.6023 55.7748 92.5026 55.5995C92.4028 55.4241 92.2516 55.2574 92.0487 55.0992C91.8458 54.941 91.4848 54.7347 90.969 54.482C90.2452 54.1261 89.726 53.8235 89.4114 53.5742C89.0968 53.325 88.8544 53.0447 88.6842 52.7353C88.5157 52.4258 88.4315 52.0871 88.4315 51.7158C88.4315 51.0831 88.6636 50.5433 89.1278 50.098C89.5919 49.6527 90.1782 49.4292 90.8848 49.4292C91.1427 49.4292 91.392 49.4602 91.6344 49.5221C91.8183 49.5685 92.0418 49.6544 92.3049 49.7799C92.5696 49.9054 92.7536 49.9691 92.8584 49.9691C92.9633 49.9691 93.0407 49.9381 93.0974 49.8762C93.1559 49.8143 93.2109 49.6648 93.2607 49.4292H93.4412" fill="#383336"/>
</svg>
