<svg width="108" height="108" viewBox="0 0 108 108" fill="none" xmlns="http://www.w3.org/2000/svg">
<g clip-path="url(#clip0_801_7134)">
<path d="M89.86 38.9526C89.8694 38.8038 89.8814 38.7035 89.8819 38.6032C89.884 38.1426 89.8835 37.6826 89.8835 37.222C89.8835 37.1014 89.8898 37.0021 90.0595 37.0032C91.3462 37.0094 92.6329 37.0094 93.9196 37.0121C93.9348 37.0121 93.9505 37.0246 93.999 37.046V37.3092C93.999 41.2012 94.0027 45.0937 93.9975 48.9857C93.9943 51.425 93.9745 53.8642 93.9734 56.3029C93.9734 56.5635 93.9071 56.6387 93.6387 56.635C92.4825 56.6188 91.3258 56.6282 90.1692 56.6282H89.8611V55.3123C89.7054 55.3687 89.5874 55.4063 89.4731 55.4533C88.6861 55.7739 87.9132 56.1379 87.1101 56.4115C82.5945 57.9499 77.6534 56.0904 75.2466 51.9686C74.4262 50.5638 73.9442 49.0552 73.9176 47.4259C73.8502 43.3219 75.6894 40.2957 79.2039 38.2523C80.8572 37.2909 82.6603 36.9076 84.5612 37.0653C86.3732 37.2157 88.0469 37.8126 89.5853 38.7834C89.6626 38.8325 89.7409 38.88 89.8595 38.9531L89.86 38.9526ZM89.847 46.9752C89.8705 46.9773 89.894 46.9799 89.9175 46.982C89.8814 46.4468 89.9305 45.8896 89.7958 45.3804C88.9905 42.3438 85.9408 40.4586 82.852 41.0325C79.6691 41.6237 77.3897 44.6801 77.9955 48.0541C78.584 51.3299 81.6024 53.3373 84.5481 53.0156C86.4845 52.8041 87.9832 51.8782 89.0605 50.2704C89.7258 49.2777 90.0464 48.1889 89.847 46.9752Z" fill="#FF6400"/>
<path d="M48.5409 56.6282C48.0526 56.6282 47.602 56.6282 47.1513 56.6282C46.3424 56.6282 45.5335 56.6173 44.7251 56.635C44.4718 56.6408 44.4134 56.552 44.4238 56.3233C44.4389 56.0047 44.4275 55.6846 44.4275 55.3149C44.2572 55.3776 44.1314 55.4214 44.0071 55.4695C43.0452 55.8423 42.1083 56.3107 41.1172 56.5724C37.4873 57.5306 34.2731 56.6815 31.5363 54.1305C29.9383 52.6412 28.9336 50.7868 28.6035 48.6233C28.1273 45.5063 28.9357 42.7281 31.0584 40.385C32.5807 38.7051 34.4679 37.5975 36.7145 37.1818C38.515 36.8486 40.2837 37.0538 41.9814 37.7238C42.7282 38.0184 43.4306 38.4262 44.1523 38.7844C44.2348 38.8252 44.3105 38.8789 44.4348 38.9541V37.0183C44.5476 37.0131 44.6306 37.0053 44.7141 37.0053C45.9053 37.0047 47.097 37.01 48.2881 37C48.5059 36.998 48.5691 37.0622 48.5686 37.2779C48.5633 41.2054 48.5675 45.1329 48.5633 49.0599C48.5607 51.4662 48.5482 53.8726 48.5398 56.2789C48.5398 56.3818 48.5398 56.4852 48.5398 56.6277L48.5409 56.6282ZM44.4233 46.9867C44.4233 46.5011 44.5136 45.9951 44.4087 45.5334C43.7204 42.5078 40.5965 40.4618 37.551 41.0017C34.258 41.5855 32.0663 44.5856 32.53 47.874C32.988 51.121 36.0805 53.4731 39.3485 52.9911C41.6619 52.6501 43.264 51.3398 44.194 49.1889C44.5053 48.4693 44.4353 47.7283 44.4233 46.9867Z" fill="#FF6400"/>
<path d="M48.3774 57.7457C49.0746 58.5494 49.7132 59.3416 50.4104 60.079C52.1039 61.8686 54.0825 63.2879 56.2554 64.4404C58.9166 65.852 61.747 66.7569 64.7168 67.2353C66.5758 67.5345 68.4511 67.64 70.3289 67.5444C75.6653 67.2729 80.5694 65.7084 84.922 62.5558C86.7231 61.2513 88.2886 59.7051 89.5994 57.905C89.6396 57.8502 89.6856 57.7995 89.7514 57.7202C90.742 58.4189 91.7242 59.1118 92.7394 59.8283C92.4224 60.2419 92.1331 60.6409 91.8219 61.0221C88.6709 64.8801 84.6896 67.5622 80.044 69.2938C77.9077 70.0902 75.7045 70.6234 73.4434 70.9289C71.7436 71.1581 70.037 71.2735 68.3247 71.2234C63.7992 71.0913 59.4717 70.1173 55.3901 68.1256C52.6804 66.8034 50.2407 65.0989 48.1017 62.973C47.1325 62.0096 46.2458 60.9745 45.439 59.822C46.4327 59.1197 47.4223 58.421 48.3774 57.7463V57.7457Z" fill="#FF6400"/>
<path d="M63.5856 56.8283H59.4272V56.5139C59.4272 53.8814 59.4246 51.2495 59.4319 48.6171C59.4325 48.3993 59.375 48.3116 59.1536 48.2494C55.189 47.1351 52.7472 44.5653 51.8375 40.5526C51.5915 39.468 51.6406 38.3609 51.6537 37.2586C51.6558 37.0847 51.7388 37.0204 51.9148 37.021C53.1148 37.0262 54.3148 37.0272 55.5143 37.0199C55.7253 37.0189 55.7807 37.1035 55.7802 37.2988C55.7786 37.8716 55.7702 38.4461 55.8031 39.0179C55.9567 41.678 57.8105 44.1444 60.7437 44.6008C62.9072 44.9376 65.1193 43.8535 66.3219 41.8958C66.9413 40.8874 67.2363 39.786 67.2515 38.6074C67.2572 38.1557 67.2588 37.704 67.2494 37.2523C67.2457 37.0841 67.3 37.021 67.4708 37.0215C68.6969 37.0262 69.9226 37.0246 71.1487 37.023C71.2824 37.023 71.3513 37.0606 71.3618 37.2121C71.59 40.4701 70.7946 43.3773 68.4108 45.7261C67.147 46.9716 65.6431 47.8097 63.9193 48.2385C63.6629 48.3022 63.5783 48.4009 63.5793 48.6719C63.5908 51.2694 63.5861 53.8668 63.5861 56.4648C63.5861 56.5765 63.5861 56.6883 63.5861 56.8277L63.5856 56.8283Z" fill="#00559F"/>
<path d="M18.1714 56.8277H14.0386C14.0324 56.751 14.0214 56.6841 14.0214 56.6173C14.0214 53.3154 13.9624 50.0124 14.0386 46.7121C14.1504 41.8916 17.4445 38.1578 21.9328 37.2518C22.8603 37.0643 23.7935 37.0325 24.7334 37.0408C25.4196 37.0471 26.1058 37.0419 26.8129 37.0419V40.9401C26.7152 40.9401 26.615 40.9386 26.5142 40.9401C25.5324 40.9558 24.5486 40.9412 23.5689 40.9934C21.0926 41.1255 19.0289 42.8018 18.3959 45.1992C18.2602 45.7131 18.1881 46.2588 18.185 46.7904C18.1646 50.0312 18.173 53.272 18.1714 56.5134C18.1714 56.6084 18.1714 56.7035 18.1714 56.8277Z" fill="#00559F"/>
</g>
<defs>
<clipPath id="clip0_801_7134">
<rect width="80" height="34.2343" fill="white" transform="translate(14 37)"/>
</clipPath>
</defs>
</svg>
