<svg width="109" height="108" viewBox="0 0 109 108" fill="none" xmlns="http://www.w3.org/2000/svg">
<path d="M52.1284 57.1103C52.1284 57.1103 51.7331 55.4333 52.327 53.8964C52.8546 52.5292 54.4933 52.6731 55.1332 53.4406C55.6129 54.0163 55.8767 54.9277 55.9007 56.3428C55.9007 56.3428 57.3571 55.3316 56.9081 52.7672C56.5003 50.4387 53.1904 49.699 51.6314 51.4739L51.0529 55.8631L52.1284 57.1103Z" fill="#72BB38"/>
<path d="M55.6129 49.2193C55.6129 49.2193 54.5336 47.5644 52.4229 49.5551C50.3123 51.5458 51.0884 55.181 51.8041 55.6415C51.8041 55.6415 51.4837 50.6824 55.6129 49.2193Z" fill="#9EC92A"/>
<path d="M52.3913 41.9999C52.3913 41.9999 53.3823 43.5589 53.4303 46.1013C53.4782 48.6437 52.6148 50.3946 52.279 51.6178C51.9432 52.841 50.9359 56.5107 53.2144 58.8612C53.2144 58.8612 52.7587 59.0051 52.1351 58.4055C51.5115 57.8059 49.3692 55.1436 49.5447 52.0495C49.7366 48.6677 53.0465 45.4537 52.3913 41.9999Z" fill="#E6E400"/>
<path d="M58.3616 46.7239C57.5614 46.1464 56.579 45.9286 55.5333 46.0274C56.3372 46.0293 57.0904 46.2442 57.7245 46.7019C59.8812 48.258 59.8381 52.0044 57.6267 55.0687C55.4153 58.133 51.8741 59.3553 49.7174 57.7982C47.814 56.4253 47.625 53.3466 49.1264 50.5366C47.0311 53.8762 47.0599 57.6927 49.2886 59.2997C51.6544 61.0074 55.6043 59.576 58.1102 56.103C60.6161 52.63 60.7293 48.4307 58.3635 46.723L58.3616 46.7239Z" fill="#E62129"/>
<path d="M18.1073 47.3725C18.6532 47.3725 19.0926 47.4003 19.4265 47.456C19.7604 47.5116 20.0578 47.6104 20.3206 47.7514C20.7351 47.9635 21.0555 48.2417 21.2829 48.5852C21.5103 48.9286 21.6235 49.3076 21.6235 49.722C21.6235 50.0655 21.5429 50.3869 21.3808 50.6843C21.2186 50.9827 20.9913 51.2273 20.6986 51.4192C20.6075 51.4796 20.5164 51.5353 20.4262 51.5861C20.335 51.637 20.1988 51.7022 20.0165 51.7828C20.3082 51.8634 20.5365 51.9344 20.7025 51.9948C20.8685 52.0553 21.0363 52.1368 21.2071 52.2376C21.659 52.4899 22.0082 52.8238 22.2548 53.2382C22.5004 53.6527 22.6241 54.1074 22.6241 54.6025C22.6241 55.2088 22.4447 55.7672 22.0869 56.2776C21.729 56.788 21.2378 57.19 20.6123 57.4826C20.4406 57.5632 20.264 57.6322 20.0827 57.6869C19.9014 57.7426 19.7047 57.7857 19.4927 57.8155C19.2807 57.8462 19.0437 57.8711 18.7818 57.8913C18.5199 57.9114 18.2224 57.922 17.8895 57.922H14.5C14.6516 57.8414 14.7725 57.7531 14.8636 57.6572C14.9548 57.5612 15.0248 57.4375 15.0756 57.2859C15.1265 57.1343 15.161 56.9472 15.1821 56.7247C15.2023 56.5021 15.2128 56.2191 15.2128 55.8756V49.4342C15.2128 49.0908 15.2023 48.8077 15.1821 48.5852C15.162 48.3626 15.1265 48.1755 15.0756 48.0239C15.0248 47.8723 14.9548 47.7486 14.8636 47.6526C14.7725 47.5567 14.6516 47.4684 14.5 47.3878H17.0539C17.2007 47.3878 17.3849 47.383 17.6075 47.3725H18.1073ZM16.7738 51.6322C16.9148 51.6523 17.029 51.6629 17.1143 51.6629H17.3801C18.138 51.6629 18.7492 51.5094 19.2145 51.2005C19.6788 50.8925 19.9119 50.4809 19.9119 49.9648C19.9119 49.4899 19.7249 49.108 19.3507 48.8202C18.9765 48.5324 18.4863 48.3885 17.8799 48.3885C17.7178 48.3885 17.5566 48.3962 17.3945 48.4115C17.2324 48.4269 17.0251 48.4547 16.7728 48.495L16.7738 51.6322ZM16.7738 56.6489C17.0664 56.7093 17.312 56.7496 17.5087 56.7697C17.7053 56.7899 17.9308 56.8004 18.1831 56.8004C19.0418 56.8004 19.7009 56.6287 20.1614 56.2853C20.6209 55.9418 20.8512 55.4515 20.8512 54.8145C20.8512 54.117 20.6037 53.5769 20.1086 53.1922C19.8457 52.9897 19.555 52.8458 19.2375 52.7604C18.919 52.6751 18.5026 52.6319 17.9874 52.6319C17.7754 52.6319 17.5806 52.6367 17.4041 52.6472C17.2276 52.6578 17.0174 52.6779 16.7747 52.7077L16.7738 56.6489Z" fill="#00824A"/>
<path d="M27.7473 53.9213C27.6053 53.9817 27.4873 54.0326 27.3914 54.0729C27.2954 54.1132 27.1813 54.1535 27.0508 54.1938C26.9194 54.2341 26.7495 54.2801 26.5433 54.33C26.336 54.3809 26.0559 54.4461 25.7019 54.5267C24.9334 54.709 24.5496 55.1177 24.5496 55.7547C24.5496 56.1692 24.6993 56.4896 24.9996 56.717C25.2989 56.9444 25.7182 57.0576 26.2564 57.0576C26.4598 57.0576 26.645 57.0422 26.8119 57.0125C26.9798 56.9818 27.1957 56.9271 27.4595 56.8455L26.5193 58.0429C26.3476 58.0832 26.2008 58.1081 26.0799 58.1187C25.959 58.1282 25.8122 58.134 25.6405 58.134C24.8317 58.134 24.2004 57.9268 23.7457 57.5114C23.4828 57.2782 23.2804 57.0048 23.1393 56.6911C22.9974 56.3774 22.9273 56.0579 22.9273 55.7336C22.9273 55.4093 23.0079 55.085 23.1691 54.7915C23.3303 54.4979 23.5471 54.2753 23.8186 54.1228C23.9299 54.0623 24.045 54.0067 24.1659 53.9558C24.2868 53.905 24.4278 53.8541 24.589 53.8043C24.7502 53.7534 24.9363 53.7054 25.1483 53.6603C25.3594 53.6153 25.6165 53.5615 25.9187 53.5011C26.2708 53.4301 26.5634 53.362 26.7946 53.2958C27.0258 53.2296 27.21 53.1538 27.3463 53.0684C27.4825 52.9821 27.5775 52.8861 27.6331 52.7796C27.6888 52.6731 27.7166 52.5494 27.7166 52.4074C27.7166 52.1033 27.5756 51.8576 27.2926 51.6706C27.0105 51.4835 26.6421 51.3895 26.1873 51.3895C26.0156 51.3895 25.8544 51.4 25.7028 51.4202C25.5513 51.4413 25.3949 51.4749 25.2337 51.5209C25.0725 51.5679 24.8931 51.6351 24.6964 51.7224C24.4998 51.8106 24.2705 51.9162 24.0076 52.0409L25.0706 50.4339C25.3037 50.3831 25.4927 50.3533 25.6395 50.3428C25.7863 50.3332 25.9657 50.3274 26.1787 50.3274C27.5353 50.3274 28.4362 50.6862 28.8823 51.4039C28.9533 51.5151 29.0089 51.6188 29.0492 51.7147C29.0895 51.8106 29.1202 51.9267 29.1403 52.063C29.1605 52.1992 29.1758 52.3661 29.1864 52.5628C29.196 52.7595 29.2017 53.0099 29.2017 53.313V55.3748C29.2017 55.607 29.2065 55.7969 29.2171 55.9427C29.2267 56.0895 29.2449 56.2085 29.2699 56.2987C29.2948 56.3898 29.3351 56.4685 29.3907 56.5337C29.4464 56.5999 29.5193 56.6623 29.6105 56.7227C29.7217 56.8139 29.8503 56.8772 29.9971 56.9117C30.1439 56.9472 30.3329 56.9703 30.565 56.9799L29.8676 58.0256C29.4637 57.9949 29.1538 57.9546 28.9398 57.9047C28.7259 57.8539 28.5311 57.7733 28.3584 57.662C28.2356 57.591 28.1339 57.5104 28.0524 57.4193C27.9708 57.3281 27.9066 57.2197 27.8615 57.0931C27.8154 56.9664 27.7847 56.8148 27.7694 56.6383C27.754 56.4618 27.7463 56.2421 27.7463 55.9792V53.9175L27.7473 53.9213Z" fill="#00824A"/>
<path d="M32.3706 51.5717C32.7534 51.117 33.1237 50.7966 33.4816 50.6095C33.8395 50.4224 34.2549 50.3293 34.7288 50.3293C35.2421 50.3293 35.7208 50.4329 36.1641 50.6402C36.6073 50.8474 36.945 51.1228 37.1772 51.4662C37.2472 51.5775 37.3077 51.6965 37.3585 51.8222C37.4084 51.9488 37.4487 52.0946 37.4794 52.2616C37.5101 52.4285 37.5302 52.6232 37.5398 52.8449C37.5494 53.0674 37.5552 53.3303 37.5552 53.6335V56.3467C37.5552 56.6095 37.56 56.8168 37.5705 56.9683C37.5801 57.1199 37.606 57.2485 37.6463 57.355C37.6866 57.4615 37.7471 57.5545 37.8286 57.6351C37.9092 57.7157 38.0205 57.8116 38.1625 57.9229H35.4944C35.6326 57.8116 35.7429 57.7157 35.8273 57.6351C35.9108 57.5545 35.9731 57.4605 36.0125 57.355C36.0518 57.2485 36.0768 57.118 36.0864 56.9607C36.096 56.8043 36.1017 56.5999 36.1017 56.3467V53.8004C36.1017 53.3764 36.0768 53.0454 36.0269 52.8074C35.977 52.5705 35.8868 52.3652 35.7563 52.1934C35.5961 51.991 35.3706 51.8269 35.08 51.7013C34.7893 51.5746 34.4832 51.5123 34.1628 51.5123C33.8423 51.5123 33.5488 51.5756 33.283 51.7013C33.0173 51.8279 32.8091 51.9968 32.6594 52.2088C32.5788 52.3201 32.5241 52.441 32.4934 52.5724C32.4637 52.7038 32.4483 52.8861 32.4483 53.1183V56.3467C32.4483 56.6095 32.4531 56.8168 32.4627 56.9683C32.4723 57.1199 32.4973 57.2485 32.5366 57.355C32.5759 57.4615 32.6354 57.5545 32.7141 57.6351C32.7928 57.7157 32.9012 57.8116 33.0393 57.9229H30.3866C30.5276 57.8116 30.6389 57.7157 30.7205 57.6351C30.8011 57.5545 30.8615 57.4605 30.9028 57.355C30.943 57.2485 30.968 57.1199 30.9785 56.9683C30.9881 56.8168 30.9939 56.6095 30.9939 56.3467V52.1176C30.9939 51.8653 30.9891 51.661 30.9785 51.5036C30.968 51.3473 30.943 51.2158 30.9028 51.1093C30.8625 51.0028 30.802 50.9098 30.7205 50.8292C30.6399 50.7486 30.5286 50.6527 30.3866 50.5414H31.4218C31.6568 50.5414 31.8458 50.5183 31.9888 50.4732C32.1317 50.4282 32.2593 50.3495 32.3716 50.2382L32.3706 51.5717Z" fill="#00824A"/>
<path d="M39.6668 47.3878C39.9019 47.3878 40.0909 47.3648 40.2338 47.3197C40.3768 47.2746 40.5044 47.196 40.6166 47.0847V56.3457C40.6166 56.6086 40.6214 56.8158 40.632 56.9674C40.6416 57.119 40.6675 57.2475 40.7078 57.354C40.7481 57.4605 40.8085 57.5536 40.89 57.6342C40.9706 57.7147 41.0819 57.8107 41.2239 57.922H38.5558C38.6969 57.8107 38.8082 57.7147 38.8897 57.6342C38.9703 57.5536 39.0307 57.4595 39.072 57.354C39.1123 57.2475 39.1372 57.119 39.1478 56.9674C39.1574 56.8158 39.1631 56.6086 39.1631 56.3457V48.9641C39.1631 48.7012 39.1583 48.494 39.1478 48.3424C39.1372 48.1908 39.1123 48.0623 39.072 47.9558C39.0317 47.8493 38.9713 47.7562 38.8897 47.6757C38.8091 47.5951 38.6978 47.4991 38.5558 47.3878H39.6668ZM42.4961 53.6325C42.6572 53.835 42.9105 54.1535 43.254 54.5871C43.5974 55.0217 44.0321 55.582 44.5578 56.2699C44.7497 56.5126 44.9118 56.717 45.0433 56.8839C45.1747 57.0508 45.2985 57.1919 45.4145 57.308C45.5306 57.4241 45.6467 57.5305 45.7628 57.6265C45.8789 57.7224 46.0132 57.8212 46.1648 57.922C45.9624 57.9421 45.7484 57.9546 45.521 57.9594C45.2937 57.9642 45.0788 57.9671 44.8773 57.9671C44.6653 57.9671 44.4906 57.9565 44.3544 57.9364C44.2182 57.9162 44.0915 57.8711 43.9755 57.8001C43.8594 57.7291 43.7481 57.6332 43.6416 57.5123C43.5351 57.3914 43.4065 57.2245 43.2549 57.0125C43.0429 56.7093 42.8328 56.4109 42.6256 56.1183C42.4184 55.8257 42.1987 55.5273 41.9665 55.2242C41.8149 55.0121 41.6662 54.8049 41.5194 54.6025C41.3726 54.4 41.2191 54.2082 41.057 54.0268C41.0368 53.9865 41.0119 53.9491 40.9812 53.9136C40.9505 53.8781 40.9207 53.8407 40.89 53.7995L42.3454 52.1925C42.6083 51.9095 42.7925 51.6802 42.899 51.5027C43.0055 51.3261 43.0583 51.1717 43.0583 51.0402C43.0583 50.8887 42.9518 50.7217 42.7398 50.5404H45.1805L42.498 53.6325H42.4961Z" fill="#00824A"/>
<path d="M66.2862 57.9978C66.527 57.9268 66.8253 57.757 66.9961 57.4164C67.1659 57.0758 67.1381 56.7918 67.0105 56.4378L66.4425 54.7205H63.2219L62.6405 56.4234C62.5272 56.7784 62.4841 57.0902 62.6261 57.4164C62.7824 57.7714 63.123 57.9277 63.3638 57.9978H59.7594C59.9292 57.8558 60.0146 57.7282 60.1566 57.5584C60.3696 57.3032 60.5394 57.1324 60.667 56.8062L63.4905 48.6331C63.5327 48.4911 63.5615 48.4058 63.5471 48.2647C63.5471 47.7821 63.2065 47.385 62.8093 47.2574H66.9098L70.258 56.5088C70.3856 56.8494 70.5276 57.0336 70.7406 57.3176C70.9536 57.6015 71.109 57.757 71.3796 57.9987L66.2862 57.9978ZM64.7962 50.0377L63.6613 53.1595H65.9312L64.7962 50.0377Z" fill="#00824A"/>
<path d="M77.2434 57.615L76.5334 57.8414C75.7813 58.0832 75.0867 58.182 74.4477 58.182C72.3332 58.182 70.4605 56.8484 70.4605 54.4787C70.4605 52.109 71.936 50.4771 74.9303 50.4637C75.2143 50.4637 75.5117 50.478 75.8101 50.5059L76.8174 50.6056V52.4218L76.1084 52.0812C75.8101 51.9392 75.4273 51.8826 75.0588 51.8826C74.0227 51.8826 73.4979 52.8334 73.4979 54.0959C73.4979 55.8267 74.4487 56.6354 75.6259 56.6354C76.0653 56.6354 76.5056 56.5222 76.9028 56.3092L77.7538 55.8267L77.2434 57.615Z" fill="#00824A"/>
<path d="M84.9195 57.7291L84.1817 57.9565C83.5859 58.1407 82.947 58.2549 82.2946 58.2549C79.6131 58.2549 77.7538 56.8925 77.7538 54.4806C77.7538 51.7281 79.7119 50.3802 81.741 50.3802C83.3873 50.3802 85.0749 51.4298 85.3311 53.3169L85.4731 54.3665H80.4785L80.5351 54.849C80.6627 56.0972 82.096 56.7506 82.8616 56.7506C83.6848 56.7362 84.4791 56.41 84.7487 56.2824L85.5009 55.9418L84.9195 57.7291ZM81.6134 51.8404C81.032 51.8404 80.5351 52.3086 80.5063 53.0041H82.7484C82.7484 52.3086 82.2092 51.8404 81.6134 51.8404Z" fill="#00824A"/>
<path d="M90.4696 57.9978C90.7248 57.828 90.8524 57.686 90.9944 57.402C91.1076 57.1468 91.1076 56.9626 91.1076 56.6786V52.961C91.1076 52.4362 90.6538 52.0102 90.128 52.0102C89.6033 52.0246 89.1773 52.4362 89.1773 52.9466V56.5932C89.1773 56.7774 89.1629 57.2034 89.3337 57.5152C89.4613 57.7282 89.5889 57.8558 89.7875 57.9978L85.829 57.9834C86.0564 57.827 86.1696 57.6994 86.2828 57.4442C86.4248 57.1602 86.4104 56.9616 86.4104 56.6498V48.3213C86.4104 48.0939 86.3682 47.9663 86.2684 47.7678C86.1552 47.5404 86.041 47.3993 85.8146 47.2574H88.3829C88.5815 47.2574 88.6947 47.2008 88.8799 47.1298C88.9931 47.0732 89.0641 47.0444 89.1782 46.9878V50.975C89.774 50.5068 90.3132 50.3504 91.2496 50.3504C92.4555 50.3504 93.8745 51.188 93.8745 52.3508V56.6498C93.8745 57.0182 93.8745 57.26 94.0731 57.5574C94.1863 57.7704 94.3139 57.8836 94.499 57.9968L90.4696 57.9978Z" fill="#00824A"/>
<path d="M27.9363 63.6035C27.9363 63.6956 27.9392 63.7704 27.944 63.8299C27.9497 63.8894 27.9584 63.9393 27.9728 63.9796C27.9862 64.0199 28.0054 64.0535 28.0294 64.0784C28.0534 64.1043 28.086 64.1273 28.1263 64.1494H27.3127C27.353 64.1283 27.3856 64.1043 27.4096 64.0784C27.4336 64.0525 27.4528 64.0199 27.4662 63.9796C27.4796 63.9393 27.4892 63.8894 27.494 63.8299C27.4998 63.7704 27.5017 63.6946 27.5017 63.6035V61.8833C27.5017 61.7922 27.4988 61.7164 27.494 61.6569C27.4883 61.5974 27.4796 61.5475 27.4662 61.5072C27.4528 61.4669 27.4336 61.4334 27.4096 61.4084C27.3856 61.3825 27.353 61.3595 27.3127 61.3374H28.1263C28.086 61.3595 28.0534 61.3825 28.0294 61.4084C28.0054 61.4343 27.9862 61.4669 27.9728 61.5072C27.9593 61.5475 27.9497 61.5974 27.944 61.6569C27.9382 61.7164 27.9363 61.7922 27.9363 61.8833V63.6035ZM28.5964 61.8996C28.6607 61.8162 28.7125 61.7394 28.7499 61.6713C28.7873 61.6022 28.8065 61.5514 28.8065 61.5197C28.8065 61.4525 28.7633 61.3911 28.677 61.3374H29.4464L28.463 62.6C28.6194 62.8101 28.7441 62.978 28.8372 63.1037C28.9302 63.2293 29.006 63.3301 29.0636 63.4068C29.1212 63.4836 29.1691 63.545 29.2075 63.591C29.2449 63.6371 29.2862 63.6841 29.3294 63.733C29.3591 63.7656 29.3898 63.7973 29.4224 63.828C29.455 63.8587 29.4915 63.8904 29.5318 63.923C29.5721 63.9556 29.6172 63.9901 29.6671 64.0285C29.7169 64.0659 29.7745 64.1072 29.8388 64.1504C29.7851 64.1561 29.7198 64.1609 29.645 64.1648C29.5692 64.1686 29.4982 64.1705 29.4301 64.1705C29.3466 64.1705 29.2756 64.1628 29.2181 64.1484C29.1605 64.1341 29.0991 64.0976 29.0358 64.041C28.9725 63.9844 28.8976 63.9 28.8113 63.7877C28.7249 63.6755 28.6117 63.5229 28.4717 63.3282C28.4122 63.2418 28.3527 63.1564 28.2913 63.071C28.2308 62.9857 28.1694 62.9003 28.1071 62.8139C28.0879 62.7928 28.0706 62.7708 28.0543 62.7496C28.038 62.7276 28.0217 62.7065 28.0054 62.6844L28.5964 61.8996Z" fill="#00824A"/>
<path d="M30.3847 63.1219C30.3952 63.3742 30.4758 63.5709 30.6255 63.7119C30.7752 63.8529 30.9795 63.9239 31.2385 63.9239C31.3815 63.9239 31.5081 63.9057 31.6194 63.8702C31.7298 63.8347 31.842 63.7772 31.9552 63.6975L31.725 64.1062C31.6309 64.1436 31.5379 64.1705 31.4477 64.1849C31.3575 64.1993 31.2529 64.207 31.134 64.207C30.9555 64.207 30.7924 64.1811 30.6447 64.1302C30.496 64.0794 30.3684 64.0074 30.2619 63.9153C30.1554 63.8232 30.0719 63.7138 30.0134 63.5853C29.9539 63.4567 29.9242 63.3157 29.9242 63.1622C29.9242 63.0087 29.9549 62.8696 30.0172 62.7295C30.0796 62.5894 30.164 62.4695 30.2724 62.3697C30.4586 62.2057 30.6955 62.1232 30.9843 62.1232C31.1244 62.1232 31.2539 62.1462 31.3729 62.1922C31.4918 62.2383 31.5945 62.3026 31.6808 62.387C31.7672 62.4705 31.8343 62.5693 31.8833 62.6825C31.9322 62.7957 31.9562 62.9204 31.9562 63.0547V63.1238H30.3856L30.3847 63.1219ZM31.5062 62.8552C31.4439 62.5395 31.2635 62.3812 30.9642 62.3812C30.8183 62.3812 30.6965 62.4225 30.5977 62.505C30.4989 62.5875 30.4336 62.7036 30.401 62.8552H31.5062Z" fill="#00824A"/>
<path d="M32.9108 63.8059C33.0029 63.8491 33.0844 63.8798 33.1545 63.8971C33.2245 63.9144 33.3032 63.923 33.3905 63.923C33.6044 63.923 33.7694 63.8587 33.8855 63.7301C34.0016 63.6016 34.0601 63.4174 34.0601 63.1785C34.0601 63.0643 34.0448 62.9598 34.0131 62.8657C33.9824 62.7708 33.9383 62.6892 33.8817 62.622C33.8251 62.5539 33.757 62.5012 33.6773 62.4637C33.5977 62.4254 33.5094 62.4071 33.4125 62.4071C33.3156 62.4071 33.2226 62.4273 33.1353 62.4676C33.048 62.5079 32.9741 62.5645 32.9146 62.6374C32.8772 62.6863 32.8503 62.7401 32.834 62.7995C32.8177 62.859 32.81 62.9377 32.81 63.0346V64.6118C32.81 64.679 32.8119 64.7356 32.8158 64.7797C32.8196 64.8239 32.8273 64.8613 32.8398 64.891C32.8513 64.9208 32.8676 64.9457 32.8868 64.9658C32.9069 64.986 32.9338 65.0052 32.9674 65.0244H32.2593C32.2948 65.0052 32.3217 64.986 32.3418 64.9658C32.362 64.9457 32.3783 64.9208 32.3908 64.891C32.4032 64.8613 32.4109 64.8248 32.4148 64.7816C32.4186 64.7385 32.4205 64.6819 32.4205 64.6118V62.6C32.4205 62.5328 32.4196 62.4781 32.4167 62.4359C32.4138 62.3937 32.4071 62.3592 32.3965 62.3304C32.386 62.3016 32.3697 62.2767 32.3476 62.2556C32.3255 62.2345 32.2968 62.2085 32.2584 62.1788H32.5548C32.6172 62.1788 32.668 62.173 32.7064 62.1606C32.7448 62.1481 32.7784 62.128 32.8091 62.0982L32.8052 62.4302C32.8839 62.3361 32.9856 62.2613 33.1113 62.2057C33.237 62.15 33.3694 62.1222 33.5104 62.1222C33.6399 62.1222 33.7685 62.1491 33.897 62.2028C34.0256 62.2565 34.134 62.3285 34.2232 62.4177C34.3096 62.5069 34.3767 62.6134 34.4237 62.7372C34.4707 62.8609 34.4947 62.9933 34.4947 63.1334C34.4947 63.2869 34.4688 63.4299 34.418 63.5603C34.3671 63.6908 34.2952 63.804 34.2031 63.9C34.111 63.9959 34.0026 64.0707 33.8769 64.1245C33.7512 64.1782 33.614 64.205 33.4663 64.205C33.4039 64.205 33.3502 64.2012 33.3041 64.1926C33.2581 64.1849 33.2043 64.1695 33.142 64.1484L32.9117 63.804L32.9108 63.8059Z" fill="#00824A"/>
<path d="M35.2785 63.1219C35.2891 63.3742 35.3697 63.5709 35.5194 63.7119C35.669 63.8529 35.8734 63.9239 36.1324 63.9239C36.2754 63.9239 36.402 63.9057 36.5133 63.8702C36.6236 63.8347 36.7359 63.7772 36.8491 63.6975L36.6188 64.1062C36.5248 64.1436 36.4317 64.1705 36.3416 64.1849C36.2514 64.1993 36.1468 64.207 36.0278 64.207C35.8494 64.207 35.6863 64.1811 35.5385 64.1302C35.3898 64.0794 35.2622 64.0074 35.1557 63.9153C35.0493 63.8232 34.9658 63.7138 34.9073 63.5853C34.8478 63.4567 34.818 63.3157 34.818 63.1622C34.818 63.0087 34.8487 62.8696 34.9111 62.7295C34.9735 62.5894 35.0579 62.4695 35.1663 62.3697C35.3524 62.2057 35.5894 62.1232 35.8782 62.1232C36.0182 62.1232 36.1478 62.1462 36.2667 62.1922C36.3857 62.2383 36.4883 62.3026 36.5747 62.387C36.661 62.4705 36.7282 62.5693 36.7771 62.6825C36.8261 62.7957 36.85 62.9204 36.85 63.0547V63.1238H35.2795L35.2785 63.1219ZM36.4001 62.8552C36.3377 62.5395 36.1574 62.3812 35.858 62.3812C35.7122 62.3812 35.5904 62.4225 35.4915 62.505C35.3927 62.5875 35.3275 62.7036 35.2949 62.8552H36.4001Z" fill="#00824A"/>
<path d="M37.1801 64.1494C37.2175 64.1197 37.2472 64.0938 37.2693 64.0727C37.2914 64.0515 37.3067 64.0256 37.3182 63.9978C37.3288 63.97 37.3355 63.9355 37.3384 63.8942C37.3412 63.8539 37.3422 63.7983 37.3422 63.7282V62.599C37.3422 62.5319 37.3412 62.4772 37.3384 62.435C37.3355 62.3928 37.3288 62.3582 37.3182 62.3294C37.3077 62.3006 37.2914 62.2757 37.2693 62.2546C37.2472 62.2325 37.2184 62.2076 37.1801 62.1778H37.4765C37.5389 62.1778 37.5897 62.1721 37.6281 62.1596C37.6665 62.1471 37.7001 62.127 37.7308 62.0973V62.4494C37.8468 62.2306 38.0167 62.1212 38.2412 62.1212C38.2786 62.1212 38.3285 62.127 38.3908 62.1376V62.5299C38.3419 62.4839 38.2747 62.4609 38.1884 62.4609C38.1126 62.4609 38.0416 62.4762 37.9764 62.5069C37.9102 62.5376 37.8584 62.5808 37.8209 62.6345C37.7615 62.718 37.7317 62.8475 37.7317 63.0231V63.7273C37.7317 63.7973 37.7327 63.8529 37.7356 63.8932C37.7384 63.9335 37.7452 63.9681 37.7557 63.9969C37.7663 64.0247 37.7826 64.0506 37.8046 64.0717C37.8267 64.0938 37.8555 64.1187 37.8939 64.1484H37.182L37.1801 64.1494Z" fill="#00824A"/>
<path d="M40.2645 62.6153C40.1244 62.4753 39.946 62.4052 39.7301 62.4052C39.6217 62.4052 39.5248 62.4225 39.4366 62.4561C39.3493 62.4897 39.2744 62.5376 39.2121 62.5981C39.1497 62.6595 39.1017 62.7333 39.0682 62.8216C39.0346 62.9099 39.0173 63.0068 39.0173 63.1123C39.0173 63.2284 39.0394 63.3368 39.0845 63.4356C39.1286 63.5344 39.19 63.6198 39.2667 63.6918C39.3435 63.7637 39.4356 63.8203 39.5421 63.8606C39.6486 63.9009 39.7656 63.922 39.8923 63.922C40.0084 63.922 40.1177 63.9048 40.2204 63.8702C40.323 63.8357 40.4305 63.7829 40.5437 63.711L40.2923 64.1273C40.2252 64.1542 40.1456 64.1743 40.0535 64.1859C39.9614 64.1983 39.8597 64.2041 39.7455 64.2041C39.5757 64.2041 39.4193 64.1791 39.2763 64.1293C39.1334 64.0794 39.0106 64.0093 38.9089 63.9211C38.8072 63.8318 38.7276 63.7263 38.67 63.6035C38.6124 63.4807 38.5837 63.3464 38.5837 63.2006C38.5837 63.0547 38.6134 62.9089 38.6719 62.7775C38.7304 62.647 38.8158 62.529 38.9281 62.4235C39.0432 62.3179 39.1708 62.2412 39.3099 62.1932C39.449 62.1443 39.6112 62.1203 39.7973 62.1203C39.8808 62.1203 39.9575 62.1241 40.0256 62.1308C40.0947 62.1376 40.1734 62.1519 40.2626 62.1731V62.6144L40.2645 62.6153Z" fill="#00824A"/>
<path d="M41.9598 63.0816C41.9224 63.0979 41.8907 63.1113 41.8648 63.1219C41.8389 63.1324 41.8091 63.144 41.7736 63.1545C41.7381 63.1651 41.6931 63.1775 41.6384 63.191C41.5827 63.2044 41.5079 63.2217 41.4139 63.2437C41.2086 63.2927 41.1059 63.4011 41.1059 63.5718C41.1059 63.6822 41.1462 63.7685 41.2258 63.829C41.3055 63.8894 41.4177 63.9201 41.5616 63.9201C41.6153 63.9201 41.6652 63.9163 41.7103 63.9076C41.7554 63.9 41.813 63.8846 41.883 63.8635L41.6317 64.183C41.5856 64.1935 41.5463 64.2002 41.5146 64.2031C41.482 64.206 41.4427 64.207 41.3976 64.207C41.1817 64.207 41.0128 64.1513 40.892 64.041C40.8219 63.9786 40.7682 63.9057 40.7298 63.8222C40.6924 63.7388 40.6732 63.6534 40.6732 63.567C40.6732 63.4807 40.6943 63.3944 40.7375 63.3157C40.7807 63.237 40.8382 63.1775 40.9112 63.1372C40.9409 63.1209 40.9716 63.1065 41.0042 63.0931C41.0368 63.0797 41.0742 63.0662 41.1174 63.0528C41.1606 63.0394 41.2105 63.026 41.2671 63.0144C41.3237 63.002 41.3918 62.9876 41.4724 62.9722C41.5664 62.953 41.6441 62.9348 41.7065 62.9175C41.7679 62.9003 41.8178 62.8801 41.8542 62.8571C41.8907 62.8341 41.9156 62.8082 41.931 62.7803C41.9463 62.7525 41.9531 62.7189 41.9531 62.6806C41.9531 62.599 41.9156 62.5338 41.8398 62.4839C41.7641 62.434 41.6662 62.4091 41.5453 62.4091C41.4993 62.4091 41.4561 62.4119 41.4158 62.4177C41.3755 62.4235 41.3333 62.4321 41.2901 62.4446C41.2469 62.457 41.199 62.4753 41.1462 62.4983C41.0934 62.5223 41.032 62.5501 40.962 62.5827L41.246 62.1539C41.3083 62.1404 41.3592 62.1328 41.3976 62.1299C41.4369 62.127 41.4849 62.126 41.5415 62.126C41.9041 62.126 42.144 62.222 42.2629 62.4139C42.2821 62.4436 42.2965 62.4714 42.3071 62.4973C42.3176 62.5232 42.3263 62.5539 42.3311 62.5904C42.3368 62.6268 42.3406 62.671 42.3435 62.7237C42.3464 62.7765 42.3474 62.8427 42.3474 62.9243V63.4749C42.3474 63.5373 42.3483 63.5872 42.3512 63.6265C42.3541 63.6659 42.3589 63.6975 42.3656 63.7215C42.3723 63.7455 42.3829 63.7666 42.3982 63.7839C42.4126 63.8011 42.4327 63.8184 42.4567 63.8347C42.4865 63.8587 42.521 63.876 42.5603 63.8856C42.5997 63.8952 42.6496 63.9009 42.7119 63.9038L42.5258 64.183C42.4174 64.1753 42.3349 64.1638 42.2783 64.1504C42.2207 64.1369 42.1689 64.1149 42.1229 64.0861C42.0902 64.0669 42.0624 64.0458 42.0413 64.0208C42.0193 63.9969 42.0029 63.9681 41.9905 63.9335C41.978 63.9 41.9703 63.8597 41.9655 63.8117C41.9617 63.7647 41.9598 63.7062 41.9598 63.6361V63.0816Z" fill="#00824A"/>
<path d="M44.4494 62.6355C44.4926 62.528 44.5137 62.4417 44.5137 62.3764C44.5137 62.3361 44.5041 62.3006 44.4858 62.2709C44.4667 62.2412 44.435 62.2114 44.389 62.1817H44.9876L44.0772 64.3547C44.0234 64.4814 43.9726 64.5802 43.9256 64.6502C43.8786 64.7202 43.82 64.7836 43.75 64.8392C43.5936 64.962 43.4008 65.0234 43.1715 65.0234C43.0851 65.0234 43.0045 65.0157 42.9307 64.9994C42.8568 64.9831 42.7637 64.9553 42.6534 64.916L43.0381 64.6397C43.0842 64.6694 43.1245 64.6895 43.16 64.7001C43.1955 64.7106 43.2358 64.7164 43.2818 64.7164C43.3893 64.7164 43.4833 64.6771 43.5629 64.5994C43.6425 64.5207 43.7164 64.3969 43.7836 64.2271L43.8239 64.1139C43.7912 64.0813 43.7653 64.0544 43.7452 64.0333C43.7251 64.0122 43.7078 63.9911 43.6924 63.971C43.678 63.9508 43.6636 63.9278 43.6521 63.9019C43.6397 63.876 43.6243 63.8424 43.6061 63.7983L43.0391 62.5635C43.0122 62.504 42.9873 62.4532 42.9643 62.4119C42.9412 62.3697 42.9172 62.3352 42.8933 62.3064C42.8693 62.2776 42.8424 62.2546 42.8146 62.2354C42.7868 62.2162 42.7541 62.199 42.7196 62.1826L43.1321 62.1663C43.1974 62.1663 43.2396 62.1702 43.2617 62.1788C43.2751 62.1817 43.2876 62.1913 43.3 62.2095C43.3125 62.2268 43.3288 62.2584 43.3509 62.3045L44.0023 63.7733L44.4513 62.6364L44.4494 62.6355Z" fill="#00824A"/>
<path d="M46.4363 63.0816C46.3989 63.0979 46.3672 63.1113 46.3413 63.1219C46.3154 63.1324 46.2857 63.144 46.2502 63.1545C46.2147 63.1651 46.1696 63.1775 46.1149 63.191C46.0593 63.2044 45.9844 63.2217 45.8904 63.2437C45.6851 63.2927 45.5824 63.4011 45.5824 63.5718C45.5824 63.6822 45.6227 63.7685 45.7024 63.829C45.782 63.8894 45.8942 63.9201 46.0382 63.9201C46.0919 63.9201 46.1418 63.9163 46.1869 63.9076C46.2319 63.9 46.2895 63.8846 46.3595 63.8635L46.1082 64.183C46.0621 64.1935 46.0228 64.2002 45.9911 64.2031C45.9585 64.206 45.9192 64.207 45.8741 64.207C45.6582 64.207 45.4894 64.1513 45.3685 64.041C45.2985 63.9786 45.2447 63.9057 45.2064 63.8222C45.1689 63.7388 45.1497 63.6534 45.1497 63.567C45.1497 63.4807 45.1709 63.3944 45.214 63.3157C45.2572 63.237 45.3148 63.1775 45.3877 63.1372C45.4174 63.1209 45.4481 63.1065 45.4807 63.0931C45.5134 63.0797 45.5508 63.0662 45.594 63.0528C45.6371 63.0394 45.687 63.026 45.7436 63.0144C45.8002 63.002 45.8683 62.9876 45.9489 62.9722C46.0429 62.953 46.1207 62.9348 46.183 62.9175C46.2444 62.9003 46.2943 62.8801 46.3308 62.8571C46.3672 62.8341 46.3922 62.8082 46.4075 62.7803C46.4229 62.7525 46.4296 62.7189 46.4296 62.6806C46.4296 62.599 46.3922 62.5338 46.3164 62.4839C46.2406 62.434 46.1427 62.4091 46.0218 62.4091C45.9758 62.4091 45.9326 62.4119 45.8923 62.4177C45.852 62.4235 45.8098 62.4321 45.7666 62.4446C45.7235 62.457 45.6755 62.4753 45.6227 62.4983C45.57 62.5223 45.5086 62.5501 45.4385 62.5827L45.7225 62.1539C45.7849 62.1404 45.8357 62.1328 45.8741 62.1299C45.9134 62.127 45.9614 62.126 46.018 62.126C46.3807 62.126 46.6205 62.222 46.7395 62.4139C46.7587 62.4436 46.773 62.4714 46.7836 62.4973C46.7941 62.5232 46.8028 62.5539 46.8076 62.5904C46.8133 62.6268 46.8172 62.671 46.8201 62.7237C46.8229 62.7765 46.8239 62.8427 46.8239 62.9243V63.4749C46.8239 63.5373 46.8249 63.5872 46.8277 63.6265C46.8306 63.6659 46.8354 63.6975 46.8421 63.7215C46.8488 63.7455 46.8594 63.7666 46.8747 63.7839C46.8891 63.8011 46.9093 63.8184 46.9333 63.8347C46.963 63.8587 46.9975 63.876 47.0369 63.8856C47.0762 63.8952 47.1261 63.9009 47.1885 63.9038L47.0023 64.183C46.8939 64.1753 46.8114 64.1638 46.7548 64.1504C46.6973 64.1369 46.6454 64.1149 46.5994 64.0861C46.5668 64.0669 46.539 64.0458 46.5178 64.0208C46.4958 63.9969 46.4795 63.9681 46.467 63.9335C46.4545 63.9 46.4469 63.8597 46.4421 63.8117C46.4373 63.7637 46.4363 63.7062 46.4363 63.6361V63.0816Z" fill="#00824A"/>
<path d="M48.6419 63.0816C48.6045 63.0979 48.5729 63.1113 48.547 63.1219C48.5211 63.1324 48.4913 63.144 48.4558 63.1545C48.4203 63.1651 48.3752 63.1775 48.3205 63.191C48.2649 63.2044 48.1901 63.2217 48.0961 63.2437C47.8907 63.2927 47.7881 63.4011 47.7881 63.5718C47.7881 63.6822 47.8284 63.7685 47.908 63.829C47.9876 63.8894 48.0999 63.9201 48.2438 63.9201C48.2975 63.9201 48.3474 63.9163 48.3925 63.9076C48.4376 63.9 48.4952 63.8846 48.5652 63.8635L48.3138 64.183C48.2678 64.1935 48.2284 64.2002 48.1968 64.2031C48.1642 64.206 48.1248 64.207 48.0797 64.207C47.8639 64.207 47.695 64.1513 47.5741 64.041C47.5041 63.9786 47.4504 63.9057 47.412 63.8222C47.3746 63.7388 47.3554 63.6534 47.3554 63.567C47.3554 63.4807 47.3765 63.3944 47.4197 63.3157C47.4629 63.237 47.5204 63.1775 47.5933 63.1372C47.6231 63.1209 47.6538 63.1065 47.6864 63.0931C47.719 63.0797 47.7564 63.0662 47.7996 63.0528C47.8428 63.0394 47.8927 63.026 47.9493 63.0144C48.0059 63.002 48.074 62.9876 48.1555 62.9722C48.2496 62.953 48.3273 62.9348 48.3896 62.9175C48.451 62.9003 48.5009 62.8801 48.5374 62.8571C48.5738 62.8341 48.5988 62.8082 48.6141 62.7803C48.6295 62.7525 48.6362 62.7189 48.6362 62.6806C48.6362 62.599 48.5988 62.5338 48.523 62.4839C48.4472 62.434 48.3493 62.4091 48.2284 62.4091C48.1824 62.4091 48.1392 62.4119 48.0989 62.4177C48.0586 62.4235 48.0164 62.4321 47.9732 62.4446C47.9301 62.457 47.8821 62.4753 47.8293 62.4983C47.7766 62.5223 47.7152 62.5501 47.6451 62.5827L47.9291 62.1539C47.9915 62.1404 48.0423 62.1328 48.0807 62.1299C48.12 62.127 48.168 62.126 48.2246 62.126C48.5873 62.126 48.8271 62.222 48.9461 62.4139C48.9653 62.4436 48.9797 62.4714 48.9902 62.4973C49.0008 62.5232 49.0094 62.5539 49.0142 62.5904C49.0199 62.6268 49.0238 62.671 49.0267 62.7237C49.0295 62.7765 49.0305 62.8427 49.0305 62.9243V63.4749C49.0305 63.5373 49.0315 63.5872 49.0343 63.6265C49.0372 63.6659 49.042 63.6975 49.0487 63.7215C49.0554 63.7455 49.066 63.7666 49.0813 63.7839C49.0957 63.8011 49.1159 63.8184 49.1399 63.8347C49.1696 63.8587 49.2041 63.876 49.2435 63.8856C49.2828 63.8952 49.3327 63.9009 49.3951 63.9038L49.2089 64.183C49.1005 64.1753 49.018 64.1638 48.9614 64.1504C48.9039 64.1369 48.8521 64.1149 48.806 64.0861C48.7734 64.0669 48.7456 64.0458 48.7245 64.0208C48.7024 63.9969 48.6861 63.9681 48.6736 63.9335C48.6611 63.9 48.6535 63.8597 48.6487 63.8117C48.6448 63.7647 48.6429 63.7062 48.6429 63.6361V63.0854L48.6419 63.0816Z" fill="#00824A"/>
<path d="M50.1194 62.4542C50.2221 62.3323 50.3209 62.2469 50.4159 62.197C50.5118 62.1471 50.6221 62.1222 50.7488 62.1222C50.886 62.1222 51.0136 62.15 51.1325 62.2057C51.2505 62.2613 51.3407 62.3342 51.4031 62.4263C51.4223 62.4561 51.4376 62.4877 51.451 62.5213C51.4645 62.5549 51.475 62.5942 51.4837 62.6384C51.4913 62.6825 51.4971 62.7353 51.5 62.7938C51.5029 62.8533 51.5038 62.9233 51.5038 63.0039V63.7282C51.5038 63.7983 51.5048 63.8539 51.5077 63.8942C51.5105 63.9345 51.5172 63.969 51.5278 63.9978C51.5384 64.0256 51.5547 64.0515 51.5767 64.0727C51.5978 64.0947 51.6276 64.1197 51.666 64.1494H50.9541C50.9905 64.1197 51.0203 64.0938 51.0433 64.0727C51.0654 64.0515 51.0817 64.0256 51.0922 63.9978C51.1028 63.97 51.1095 63.9345 51.1124 63.8923C51.1153 63.8501 51.1162 63.7963 51.1162 63.7282V63.048C51.1162 62.9348 51.1095 62.8465 51.0961 62.7832C51.0826 62.7199 51.0587 62.6652 51.0241 62.6192C50.9809 62.5654 50.9215 62.5213 50.8438 62.4877C50.766 62.4542 50.6845 62.4369 50.5991 62.4369C50.5137 62.4369 50.4351 62.4542 50.3641 62.4877C50.2931 62.5213 50.2374 62.5664 50.1971 62.623C50.176 62.6527 50.1607 62.6854 50.153 62.7199C50.1453 62.7554 50.1405 62.8034 50.1405 62.8657V63.7282C50.1405 63.7983 50.1415 63.8539 50.1444 63.8942C50.1472 63.9345 50.1539 63.969 50.1645 63.9978C50.1751 64.0256 50.1904 64.0515 50.2115 64.0727C50.2326 64.0947 50.2614 64.1197 50.2988 64.1494H49.5908C49.6282 64.1197 49.6579 64.0938 49.68 64.0727C49.7021 64.0515 49.7174 64.0256 49.7289 63.9978C49.7395 63.97 49.7462 63.9355 49.7491 63.8942C49.752 63.8539 49.7529 63.7983 49.7529 63.7282V62.599C49.7529 62.5319 49.752 62.4772 49.7491 62.435C49.7462 62.3928 49.7395 62.3582 49.7289 62.3294C49.7184 62.3006 49.7021 62.2757 49.68 62.2546C49.6579 62.2325 49.6292 62.2076 49.5908 62.1778H49.8671C49.9295 62.1778 49.9803 62.1721 50.0187 62.1596C50.057 62.1471 50.0906 62.127 50.1213 62.0973V62.4532L50.1194 62.4542Z" fill="#00824A"/>
<path d="M54.7044 61.7615C54.7044 61.6943 54.7034 61.6396 54.7005 61.5974C54.6976 61.5552 54.6909 61.5207 54.6804 61.4919C54.6698 61.4631 54.6545 61.4382 54.6334 61.417C54.6123 61.395 54.5835 61.37 54.5461 61.3403H54.8415C54.9039 61.3403 54.9538 61.3345 54.9912 61.3221C55.0286 61.3096 55.0622 61.2894 55.0919 61.2597V63.7301C55.0919 63.8002 55.0929 63.8549 55.0958 63.8961C55.0987 63.9364 55.1054 63.971 55.1159 63.9988C55.1265 64.0276 55.1428 64.0525 55.1649 64.0736C55.186 64.0947 55.2157 64.1206 55.2541 64.1504H54.7034V63.1814C54.7034 63.1008 54.7024 63.0327 54.6996 62.977C54.6967 62.9223 54.6909 62.8744 54.6813 62.836C54.6717 62.7967 54.6593 62.7631 54.643 62.7333C54.6266 62.7036 54.6065 62.6729 54.5825 62.6403C54.5259 62.5645 54.4549 62.5069 54.3705 62.4666C54.2851 62.4263 54.1949 62.4062 54.0971 62.4062C54.005 62.4062 53.9215 62.4235 53.8438 62.459C53.767 62.4944 53.7008 62.5415 53.6452 62.6019C53.5895 62.6623 53.5464 62.7353 53.5157 62.8216C53.485 62.9079 53.4687 63 53.4687 63.0998C53.4687 63.2159 53.4878 63.3234 53.5253 63.4231C53.5627 63.5229 53.6154 63.6083 53.6816 63.6812C53.7478 63.7541 53.8265 63.8107 53.9176 63.851C54.0088 63.8913 54.1067 63.9115 54.2122 63.9115C54.2851 63.9115 54.3494 63.9038 54.4031 63.8875C54.4568 63.8712 54.5192 63.8405 54.5902 63.7944L54.3427 64.1791C54.2966 64.1926 54.2602 64.2012 54.2333 64.2031C54.2064 64.206 54.1709 64.207 54.1278 64.207C53.8678 64.207 53.6529 64.1504 53.4821 64.0372C53.3372 63.9403 53.2278 63.8175 53.1511 63.6687C53.0753 63.52 53.0369 63.3541 53.0369 63.1708C53.0369 63.0221 53.0628 62.8849 53.1137 62.7583C53.1645 62.6316 53.2355 62.5213 53.3257 62.4263C53.4159 62.3323 53.5214 62.2575 53.6423 62.2038C53.7632 62.15 53.8937 62.1232 54.0337 62.1232C54.1652 62.1232 54.2832 62.1433 54.3868 62.1826C54.4904 62.222 54.5959 62.2872 54.7034 62.3774V61.7624L54.7044 61.7615Z" fill="#00824A"/>
<path d="M56.8294 63.0816C56.792 63.0979 56.7603 63.1113 56.7344 63.1219C56.7085 63.1324 56.6788 63.144 56.6433 63.1545C56.6078 63.1651 56.5627 63.1775 56.508 63.191C56.4524 63.2044 56.3775 63.2217 56.2835 63.2437C56.0782 63.2927 55.9756 63.4011 55.9756 63.5718C55.9756 63.6822 56.0158 63.7685 56.0955 63.829C56.1751 63.8894 56.2874 63.9201 56.4313 63.9201C56.485 63.9201 56.5349 63.9163 56.58 63.9076C56.6251 63.9 56.6826 63.8846 56.7527 63.8635L56.5013 64.183C56.4552 64.1935 56.4159 64.2002 56.3843 64.2031C56.3516 64.206 56.3123 64.207 56.2672 64.207C56.0513 64.207 55.8825 64.1513 55.7616 64.041C55.6916 63.9786 55.6378 63.9057 55.5995 63.8222C55.5621 63.7388 55.5429 63.6534 55.5429 63.567C55.5429 63.4807 55.564 63.3944 55.6071 63.3157C55.6503 63.237 55.7079 63.1775 55.7808 63.1372C55.8105 63.1209 55.8412 63.1065 55.8739 63.0931C55.9065 63.0797 55.9439 63.0662 55.9871 63.0528C56.0302 63.0394 56.0801 63.026 56.1367 63.0144C56.1933 63.002 56.2615 62.9876 56.343 62.9722C56.437 62.953 56.5147 62.9348 56.5771 62.9175C56.6385 62.9003 56.6884 62.8801 56.7248 62.8571C56.7613 62.8341 56.7862 62.8082 56.8016 62.7803C56.8169 62.7525 56.8237 62.7189 56.8237 62.6806C56.8237 62.599 56.7862 62.5338 56.7104 62.4839C56.6347 62.434 56.5368 62.4091 56.4159 62.4091C56.3699 62.4091 56.3267 62.4119 56.2864 62.4177C56.2461 62.4235 56.2039 62.4321 56.1607 62.4446C56.1175 62.457 56.0696 62.4753 56.0168 62.4983C55.964 62.5223 55.9026 62.5501 55.8326 62.5827L56.1166 62.1539C56.1789 62.1404 56.2298 62.1328 56.2682 62.1299C56.3075 62.127 56.3555 62.126 56.4121 62.126C56.7747 62.126 57.0146 62.222 57.1335 62.4139C57.1527 62.4436 57.1671 62.4714 57.1777 62.4973C57.1882 62.5232 57.1969 62.5539 57.2017 62.5904C57.2074 62.6268 57.2112 62.671 57.2141 62.7237C57.217 62.7765 57.218 62.8427 57.218 62.9243V63.4749C57.218 63.5373 57.2189 63.5872 57.2218 63.6265C57.2247 63.6659 57.2295 63.6975 57.2362 63.7215C57.2429 63.7455 57.2535 63.7666 57.2688 63.7839C57.2832 63.8011 57.3034 63.8184 57.3273 63.8347C57.3571 63.8587 57.3916 63.876 57.431 63.8856C57.4703 63.8952 57.5202 63.9009 57.5825 63.9038L57.3964 64.183C57.288 64.1753 57.2055 64.1638 57.1489 64.1504C57.0913 64.1369 57.0395 64.1149 56.9935 64.0861C56.9608 64.0669 56.933 64.0458 56.9119 64.0208C56.8899 63.9969 56.8735 63.9681 56.8611 63.9335C56.8486 63.9 56.8409 63.8597 56.8361 63.8117C56.8313 63.7637 56.8304 63.7062 56.8304 63.6361V63.0854L56.8294 63.0816Z" fill="#00824A"/>
<path d="M58.3069 62.4542C58.4095 62.3323 58.5083 62.2469 58.6033 62.197C58.6993 62.1471 58.8096 62.1222 58.9362 62.1222C59.0734 62.1222 59.201 62.15 59.32 62.2057C59.438 62.2613 59.5282 62.3342 59.5905 62.4263C59.6097 62.4561 59.6251 62.4877 59.6385 62.5213C59.6519 62.5549 59.6625 62.5942 59.6711 62.6384C59.6788 62.6825 59.6846 62.7353 59.6874 62.7938C59.6903 62.8533 59.6913 62.9233 59.6913 63.0039V63.7282C59.6913 63.7983 59.6922 63.8539 59.6951 63.8942C59.698 63.9345 59.7047 63.969 59.7153 63.9978C59.7258 64.0256 59.7421 64.0515 59.7642 64.0727C59.7853 64.0947 59.815 64.1197 59.8534 64.1494H59.1415C59.178 64.1197 59.2077 64.0938 59.2308 64.0727C59.2528 64.0515 59.2701 64.0256 59.2797 63.9978C59.2903 63.97 59.297 63.9345 59.2998 63.8923C59.3027 63.8501 59.3037 63.7963 59.3037 63.7282V63.048C59.3037 62.9348 59.297 62.8465 59.2835 62.7832C59.2701 62.7199 59.2461 62.6652 59.2116 62.6192C59.1684 62.5654 59.1089 62.5213 59.0312 62.4877C58.9535 62.4542 58.872 62.4369 58.7866 62.4369C58.7012 62.4369 58.6225 62.4542 58.5515 62.4877C58.4805 62.5213 58.4249 62.5664 58.3846 62.623C58.3635 62.6527 58.3481 62.6854 58.3405 62.7199C58.3328 62.7554 58.328 62.8034 58.328 62.8657V63.7282C58.328 63.7983 58.3289 63.8539 58.3318 63.8942C58.3347 63.9345 58.3414 63.969 58.352 63.9978C58.3625 64.0256 58.3779 64.0515 58.399 64.0727C58.4201 64.0947 58.4489 64.1197 58.4863 64.1494H57.7782C57.8157 64.1197 57.8454 64.0938 57.8675 64.0727C57.8895 64.0515 57.9049 64.0256 57.9164 63.9978C57.927 63.97 57.9337 63.9355 57.9365 63.8942C57.9394 63.8539 57.9404 63.7983 57.9404 63.7282V62.599C57.9404 62.5319 57.9394 62.4772 57.9365 62.435C57.9337 62.3928 57.927 62.3582 57.9164 62.3294C57.9058 62.3006 57.8895 62.2757 57.8675 62.2546C57.8454 62.2325 57.8166 62.2076 57.7782 62.1778H58.0546C58.1169 62.1778 58.1678 62.1721 58.2061 62.1596C58.2445 62.1471 58.2781 62.127 58.3088 62.0973V62.4532L58.3069 62.4542Z" fill="#00824A"/>
<path d="M61.896 63.6035C61.896 63.6956 61.8988 63.7704 61.9036 63.8299C61.9094 63.8894 61.918 63.9393 61.9315 63.9796C61.9449 64.0199 61.9641 64.0535 61.9881 64.0784C62.0121 64.1043 62.0447 64.1273 62.085 64.1494H61.2714C61.3117 64.1283 61.3443 64.1043 61.3683 64.0784C61.3923 64.0525 61.4115 64.0199 61.4249 63.9796C61.4383 63.9393 61.4479 63.8894 61.4527 63.8299C61.4585 63.7704 61.4614 63.6946 61.4614 63.6035V61.8833C61.4614 61.7922 61.4585 61.7164 61.4527 61.6569C61.447 61.5974 61.4383 61.5475 61.4249 61.5072C61.4115 61.4669 61.3923 61.4334 61.3683 61.4084C61.3443 61.3835 61.3117 61.3595 61.2714 61.3374H62.085C62.0447 61.3595 62.0121 61.3825 61.9881 61.4084C61.9641 61.4343 61.9449 61.4669 61.9315 61.5072C61.918 61.5475 61.9084 61.5974 61.9036 61.6569C61.8979 61.7164 61.896 61.7922 61.896 61.8833V63.6035ZM62.556 61.8996C62.6203 61.8162 62.6721 61.7394 62.7095 61.6713C62.747 61.6022 62.7661 61.5514 62.7661 61.5197C62.7661 61.4525 62.723 61.3911 62.6366 61.3374H63.4051L62.4217 62.6C62.5781 62.8101 62.7028 62.978 62.7959 63.1037C62.8889 63.2293 62.9647 63.3301 63.0223 63.4068C63.0799 63.4836 63.1278 63.545 63.1662 63.591C63.2036 63.6371 63.2449 63.6841 63.288 63.733C63.3178 63.7656 63.3485 63.7973 63.3811 63.828C63.4137 63.8587 63.4502 63.8904 63.4905 63.923C63.5308 63.9556 63.5759 63.9901 63.6258 64.0285C63.6756 64.0659 63.7332 64.1072 63.7975 64.1504C63.7438 64.1561 63.6785 64.1609 63.6027 64.1648C63.5269 64.1686 63.4559 64.1705 63.3878 64.1705C63.3044 64.1705 63.2334 64.1628 63.1758 64.1484C63.1173 64.1341 63.0568 64.0976 62.9935 64.041C62.9302 63.9844 62.8554 63.9 62.769 63.7877C62.6827 63.6755 62.5695 63.5229 62.4294 63.3282C62.3699 63.2418 62.3095 63.1564 62.249 63.071C62.1886 62.9857 62.1272 62.9003 62.0648 62.8139C62.0456 62.7928 62.0284 62.7708 62.0121 62.7496C61.9957 62.7276 61.9794 62.7065 61.9631 62.6844L62.5541 61.8996H62.556Z" fill="#00824A"/>
<path d="M64.3443 63.1219C64.3549 63.3742 64.4355 63.5709 64.5851 63.7119C64.7348 63.8529 64.9392 63.9239 65.1982 63.9239C65.3412 63.9239 65.4678 63.9057 65.5791 63.8702C65.6894 63.8347 65.8017 63.7772 65.9149 63.6975L65.6846 64.1062C65.5896 64.1436 65.4975 64.1705 65.4073 64.1849C65.3172 64.1993 65.2126 64.207 65.0936 64.207C64.9152 64.207 64.7521 64.1811 64.6043 64.1302C64.4556 64.0794 64.328 64.0074 64.2215 63.9153C64.115 63.8232 64.0316 63.7138 63.9731 63.5853C63.9136 63.4567 63.8838 63.3157 63.8838 63.1622C63.8838 63.0087 63.9145 62.8696 63.9769 62.7295C64.0393 62.5894 64.1237 62.4695 64.2321 62.3697C64.4182 62.2057 64.6561 62.1232 64.944 62.1232C65.084 62.1232 65.2136 62.1462 65.3325 62.1922C65.4515 62.2383 65.5541 62.3026 65.6405 62.387C65.7268 62.4705 65.794 62.5693 65.8429 62.6825C65.8918 62.7957 65.9158 62.9204 65.9158 63.0547V63.1238H64.3453L64.3443 63.1219ZM65.4659 62.8552C65.4035 62.5395 65.2231 62.3812 64.9238 62.3812C64.778 62.3812 64.6561 62.4225 64.5573 62.505C64.4585 62.5875 64.3933 62.7036 64.3607 62.8552H65.4659Z" fill="#00824A"/>
<path d="M66.7774 62.458C66.8666 62.3371 66.9577 62.2498 67.0527 62.199C67.1467 62.1481 67.2628 62.1222 67.401 62.1222C67.5487 62.1222 67.6744 62.1519 67.7771 62.2114C67.8797 62.2709 67.9709 62.3668 68.0524 62.4992C68.1551 62.3621 68.2567 62.2642 68.3584 62.2076C68.4592 62.151 68.582 62.1222 68.7249 62.1222C68.8679 62.1222 69.0032 62.15 69.1221 62.2076C69.2411 62.2642 69.3303 62.34 69.3898 62.434C69.4272 62.4983 69.4541 62.5693 69.4685 62.6441C69.4829 62.7199 69.4905 62.8264 69.4905 62.9636V63.7282C69.4905 63.7983 69.4934 63.8568 69.4982 63.9048C69.504 63.9518 69.5126 63.9911 69.527 64.0218C69.5404 64.0525 69.5596 64.0774 69.5836 64.0966C69.6076 64.1158 69.6402 64.1331 69.6805 64.1494H68.9389C68.9763 64.1225 69.006 64.0986 69.0281 64.0765C69.0502 64.0554 69.0674 64.0304 69.078 64.0017C69.0885 63.9738 69.0953 63.9383 69.0981 63.8961C69.101 63.8539 69.102 63.7983 69.102 63.7282V63.0682C69.102 62.9492 69.0933 62.8552 69.0761 62.7851C69.0588 62.7151 69.031 62.6547 68.9936 62.6029C68.9504 62.552 68.8967 62.5108 68.8305 62.481C68.7643 62.4513 68.6923 62.4369 68.6146 62.4369C68.5206 62.4369 68.4352 62.459 68.3584 62.5021C68.2817 62.5453 68.2251 62.6029 68.1867 62.6758C68.1762 62.695 68.1675 62.7132 68.1627 62.7305C68.157 62.7477 68.1531 62.7679 68.1503 62.789C68.1474 62.8101 68.1455 62.8379 68.1445 62.8715C68.1435 62.9051 68.1426 62.9473 68.1426 62.9991V63.7273C68.1426 63.7973 68.1435 63.8529 68.1464 63.8932C68.1493 63.9335 68.156 63.9681 68.1666 63.9969C68.1771 64.0247 68.1944 64.0506 68.2165 64.0717C68.2395 64.0938 68.2692 64.1187 68.3066 64.1484H67.5938C67.6312 64.1216 67.661 64.0976 67.6821 64.0755C67.7032 64.0544 67.7195 64.0295 67.73 64.0007C67.7406 63.9729 67.7473 63.9374 67.7502 63.8952C67.7531 63.8529 67.754 63.7973 67.754 63.7273V63.0307C67.754 62.8283 67.7109 62.6825 67.6255 62.5933C67.5823 62.5472 67.5295 62.5127 67.4662 62.4877C67.4029 62.4637 67.3376 62.4513 67.2705 62.4513C67.187 62.4513 67.1093 62.4685 67.0364 62.5021C66.9635 62.5357 66.9088 62.5827 66.8714 62.6422C66.8416 62.6854 66.8225 62.7295 66.8129 62.7736C66.8033 62.8178 66.7985 62.884 66.7985 62.9703V63.7273C66.7985 63.7973 66.7994 63.8539 66.8023 63.8952C66.8052 63.9374 66.8119 63.9719 66.8225 64.0007C66.833 64.0295 66.8493 64.0544 66.8704 64.0755C66.8915 64.0976 66.9203 64.1216 66.9577 64.1484H66.2487C66.2862 64.1187 66.3159 64.0928 66.338 64.0717C66.3591 64.0506 66.3754 64.0247 66.3869 63.9969C66.3974 63.969 66.4042 63.9345 66.407 63.8932C66.4099 63.8529 66.4109 63.7973 66.4109 63.7273V62.5981C66.4109 62.5309 66.4099 62.4762 66.407 62.434C66.4042 62.3918 66.3974 62.3573 66.3869 62.3285C66.3763 62.2997 66.36 62.2747 66.338 62.2536C66.3159 62.2316 66.2862 62.2066 66.2487 62.1769H66.5452C66.6546 62.1769 66.7323 62.15 66.7783 62.0963V62.4561L66.7774 62.458Z" fill="#00824A"/>
<path d="M70.5449 63.7282C70.5449 63.7983 70.5459 63.8539 70.5487 63.8942C70.5516 63.9345 70.5583 63.969 70.5689 63.9978C70.5794 64.0256 70.5958 64.0515 70.6178 64.0727C70.6389 64.0947 70.6687 64.1197 70.707 64.1494H69.9952C70.0326 64.1197 70.0623 64.0938 70.0844 64.0727C70.1055 64.0515 70.1218 64.0256 70.1333 63.9978C70.1439 63.97 70.1506 63.9355 70.1535 63.8942C70.1564 63.8539 70.1573 63.7983 70.1573 63.7282V62.599C70.1573 62.5319 70.1564 62.4772 70.1535 62.435C70.1506 62.3928 70.1439 62.3582 70.1333 62.3294C70.1228 62.3006 70.1065 62.2757 70.0844 62.2546C70.0623 62.2325 70.0326 62.2076 69.9952 62.1778H70.2916C70.354 62.1778 70.4048 62.1721 70.4432 62.1596C70.4816 62.1471 70.5152 62.127 70.5459 62.0973L70.5449 63.7282ZM70.3463 61.3892C70.4163 61.3892 70.4768 61.4151 70.5286 61.4679C70.5794 61.5207 70.6053 61.5821 70.6053 61.6521C70.6053 61.7279 70.5794 61.7912 70.5286 61.8421C70.4777 61.8939 70.4135 61.9188 70.3386 61.9188C70.2638 61.9188 70.2034 61.8929 70.1525 61.8421C70.1017 61.7912 70.0758 61.7279 70.0758 61.6521C70.0758 61.5763 70.1017 61.5168 70.1525 61.466C70.2034 61.4151 70.2686 61.3892 70.3463 61.3892Z" fill="#00824A"/>
<path d="M71.6501 63.3685C71.6501 63.4874 71.6559 63.5738 71.6664 63.6294C71.677 63.6851 71.6971 63.7311 71.7269 63.7695C71.8075 63.8664 71.9168 63.9153 72.055 63.9153C72.0876 63.9153 72.1154 63.9124 72.1404 63.9076C72.1644 63.9019 72.196 63.8932 72.2334 63.8798L72.0109 64.183C71.9811 64.1935 71.9562 64.2002 71.936 64.2031C71.9159 64.206 71.889 64.207 71.8574 64.207C71.7681 64.207 71.6885 64.1916 71.6175 64.16C71.5465 64.1293 71.4803 64.0822 71.418 64.0208C71.3853 63.9853 71.3585 63.9518 71.3383 63.9201C71.3182 63.8875 71.3019 63.8491 71.2913 63.805C71.2808 63.7608 71.2731 63.7062 71.2692 63.6428C71.2654 63.5795 71.2635 63.5009 71.2635 63.4059V62.4628H70.9718V62.3093C71.1205 62.2853 71.2376 62.2229 71.3249 62.1232C71.4314 62.01 71.4841 61.8344 71.4841 61.5974V61.5446H71.652V62.1798H71.984C72.054 62.1798 72.1068 62.1788 72.1413 62.1759C72.1768 62.173 72.2075 62.1663 72.2344 62.1558V62.5405C72.1989 62.5108 72.1644 62.4906 72.1289 62.4801C72.0934 62.4695 72.0396 62.4637 71.9667 62.4637H71.6511V63.3704L71.6501 63.3685Z" fill="#00824A"/>
<path d="M72.4349 64.1494C72.4723 64.1197 72.5021 64.0938 72.5241 64.0727C72.5452 64.0515 72.5615 64.0256 72.5731 63.9978C72.5836 63.97 72.5903 63.9355 72.5932 63.8942C72.5961 63.8539 72.597 63.7983 72.597 63.7282V62.599C72.597 62.5319 72.5961 62.4772 72.5932 62.435C72.5903 62.3928 72.5836 62.3582 72.5731 62.3294C72.5625 62.3006 72.5462 62.2757 72.5241 62.2546C72.5021 62.2325 72.4723 62.2076 72.4349 62.1778H72.7314C72.7937 62.1778 72.8446 62.1721 72.8829 62.1596C72.9213 62.1471 72.9549 62.127 72.9856 62.0973V62.4494C73.1017 62.2306 73.2715 62.1212 73.496 62.1212C73.5334 62.1212 73.5833 62.127 73.6457 62.1376V62.5299C73.5967 62.4839 73.5296 62.4609 73.4432 62.4609C73.3674 62.4609 73.2964 62.4762 73.2312 62.5069C73.165 62.5376 73.1132 62.5808 73.0758 62.6345C73.0163 62.718 72.9866 62.8475 72.9866 63.0231V63.7273C72.9866 63.7973 72.9875 63.8529 72.9904 63.8932C72.9933 63.9335 73 63.9681 73.0105 63.9969C73.0211 64.0247 73.0374 64.0506 73.0595 64.0717C73.0806 64.0938 73.1103 64.1187 73.1487 64.1484H72.4368L72.4349 64.1494Z" fill="#00824A"/>
<path d="M75.1059 63.0816C75.0684 63.0979 75.0368 63.1113 75.0109 63.1219C74.985 63.1324 74.9552 63.144 74.9197 63.1545C74.8842 63.1651 74.8391 63.1775 74.7845 63.191C74.7288 63.2044 74.654 63.2217 74.56 63.2437C74.3547 63.2927 74.252 63.4011 74.252 63.5718C74.252 63.6822 74.2923 63.7685 74.3719 63.829C74.4516 63.8894 74.5638 63.9201 74.7077 63.9201C74.7614 63.9201 74.8113 63.9163 74.8564 63.9076C74.9015 63.9 74.9591 63.8846 75.0291 63.8635L74.7777 64.183C74.7317 64.1935 74.6924 64.2002 74.6607 64.2031C74.6281 64.206 74.5887 64.207 74.5437 64.207C74.3278 64.207 74.1589 64.1513 74.0381 64.041C73.968 63.9786 73.9143 63.9057 73.8759 63.8222C73.8385 63.7388 73.8193 63.6534 73.8193 63.567C73.8193 63.4807 73.8404 63.3944 73.8836 63.3157C73.9268 63.237 73.9843 63.1775 74.0572 63.1372C74.087 63.1209 74.1177 63.1065 74.1503 63.0931C74.1829 63.0797 74.2203 63.0662 74.2635 63.0528C74.3067 63.0394 74.3566 63.026 74.4132 63.0144C74.4698 63.002 74.5379 62.9876 74.6185 62.9722C74.7125 62.953 74.7902 62.9348 74.8526 62.9175C74.914 62.9003 74.9639 62.8801 75.0003 62.8571C75.0368 62.8341 75.0617 62.8082 75.0771 62.7803C75.0924 62.7525 75.0991 62.7189 75.0991 62.6806C75.0991 62.599 75.0617 62.5338 74.9859 62.4839C74.9101 62.434 74.8123 62.4091 74.6904 62.4091C74.6444 62.4091 74.6012 62.4119 74.5609 62.4177C74.5206 62.4235 74.4784 62.4321 74.4352 62.4446C74.3921 62.457 74.3441 62.4753 74.2913 62.4983C74.2386 62.5223 74.1772 62.5501 74.1071 62.5827L74.3911 62.1539C74.4535 62.1404 74.5043 62.1328 74.5437 62.1299C74.583 62.127 74.631 62.126 74.6876 62.126C75.0502 62.126 75.2901 62.222 75.409 62.4139C75.4282 62.4436 75.4426 62.4714 75.4532 62.4973C75.4637 62.5232 75.4724 62.5539 75.4771 62.5904C75.4819 62.6268 75.4867 62.671 75.4896 62.7237C75.4925 62.7765 75.4935 62.8427 75.4935 62.9243V63.4749C75.4935 63.5373 75.4944 63.5872 75.4973 63.6265C75.5002 63.6659 75.505 63.6975 75.5117 63.7215C75.5184 63.7455 75.529 63.7666 75.5443 63.7839C75.5587 63.8011 75.5788 63.8184 75.6028 63.8347C75.6326 63.8587 75.6671 63.876 75.7064 63.8856C75.7458 63.8952 75.7957 63.9009 75.858 63.9038L75.6719 64.183C75.5644 64.1753 75.481 64.1638 75.4244 64.1504C75.3668 64.1369 75.315 64.1149 75.269 64.0861C75.2363 64.0669 75.2085 64.0458 75.1874 64.0208C75.1653 63.9969 75.149 63.9681 75.1366 63.9335C75.1241 63.9 75.1164 63.8597 75.1116 63.8117C75.1078 63.7647 75.1059 63.7062 75.1059 63.6361V63.0816Z" fill="#00824A"/>
<path d="M77.3115 63.0816C77.2741 63.0979 77.2424 63.1113 77.2165 63.1219C77.1906 63.1324 77.1609 63.144 77.1254 63.1545C77.0899 63.1651 77.0448 63.1775 76.9901 63.191C76.9345 63.2044 76.8596 63.2217 76.7656 63.2437C76.5603 63.2927 76.4576 63.4011 76.4576 63.5718C76.4576 63.6822 76.4979 63.7685 76.5776 63.829C76.6572 63.8894 76.7694 63.9201 76.9134 63.9201C76.9671 63.9201 77.017 63.9163 77.0621 63.9076C77.1072 63.9 77.1647 63.8846 77.2348 63.8635L76.9834 64.183C76.9373 64.1935 76.898 64.2002 76.8663 64.2031C76.8337 64.206 76.7944 64.207 76.7493 64.207C76.5334 64.207 76.3646 64.1513 76.2437 64.041C76.1737 63.9786 76.1199 63.9057 76.0816 63.8222C76.0441 63.7388 76.025 63.6534 76.025 63.567C76.025 63.4807 76.0461 63.3944 76.0892 63.3157C76.1324 63.237 76.19 63.1775 76.2629 63.1372C76.2926 63.1209 76.3233 63.1065 76.3559 63.0931C76.3886 63.0797 76.426 63.0662 76.4692 63.0528C76.5123 63.0394 76.5622 63.026 76.6188 63.0144C76.6754 63.002 76.7435 62.9876 76.8241 62.9722C76.9182 62.953 76.9959 62.9348 77.0582 62.9175C77.1196 62.9003 77.1695 62.8801 77.206 62.8571C77.2424 62.8341 77.2674 62.8082 77.2827 62.7803C77.2981 62.7525 77.3048 62.7189 77.3048 62.6806C77.3048 62.599 77.2674 62.5338 77.1916 62.4839C77.1158 62.434 77.0179 62.4091 76.8961 62.4091C76.85 62.4091 76.8069 62.4119 76.7666 62.4177C76.7263 62.4235 76.6841 62.4321 76.6409 62.4446C76.5977 62.457 76.5497 62.4753 76.497 62.4983C76.4442 62.5223 76.3828 62.5501 76.3128 62.5827L76.5968 62.1539C76.6591 62.1404 76.71 62.1328 76.7483 62.1299C76.7877 62.127 76.8356 62.126 76.8923 62.126C77.2549 62.126 77.4947 62.222 77.6137 62.4139C77.6329 62.4436 77.6473 62.4714 77.6578 62.4973C77.6684 62.5232 77.677 62.5539 77.6818 62.5904C77.6866 62.6268 77.6914 62.671 77.6943 62.7237C77.6972 62.7765 77.6981 62.8427 77.6981 62.9243V63.4749C77.6981 63.5373 77.6991 63.5872 77.702 63.6265C77.7049 63.6659 77.7097 63.6975 77.7164 63.7215C77.7231 63.7455 77.7336 63.7666 77.749 63.7839C77.7634 63.8011 77.7835 63.8184 77.8075 63.8347C77.8373 63.8587 77.8718 63.876 77.9111 63.8856C77.9505 63.8952 78.0004 63.9009 78.0627 63.9038L77.8766 64.183C77.7691 64.1753 77.6857 64.1638 77.6291 64.1504C77.5715 64.1369 77.5197 64.1149 77.4736 64.0861C77.441 64.0669 77.4132 64.0458 77.3921 64.0208C77.37 63.9969 77.3537 63.9681 77.3412 63.9335C77.3288 63.9 77.3211 63.8597 77.3163 63.8117C77.3125 63.7647 77.3105 63.7062 77.3105 63.6361V63.0854L77.3115 63.0816Z" fill="#00824A"/>
<path d="M78.789 62.4542C78.8916 62.3323 78.9904 62.2469 79.0854 62.197C79.1814 62.1471 79.2917 62.1222 79.4183 62.1222C79.5555 62.1222 79.6831 62.15 79.8021 62.2057C79.9201 62.2613 80.0103 62.3342 80.0726 62.4263C80.0918 62.4561 80.1072 62.4877 80.1206 62.5213C80.134 62.5549 80.1446 62.5942 80.1532 62.6384C80.1609 62.6825 80.1667 62.7353 80.1695 62.7938C80.1724 62.8533 80.1734 62.9233 80.1734 63.0039V63.7282C80.1734 63.7983 80.1743 63.8539 80.1772 63.8942C80.1801 63.9345 80.1868 63.969 80.1974 63.9978C80.2079 64.0256 80.2242 64.0515 80.2463 64.0727C80.2674 64.0947 80.2971 64.1197 80.3355 64.1494H79.6236C79.6601 64.1197 79.6898 64.0938 79.7129 64.0727C79.7349 64.0515 79.7522 64.0256 79.7618 63.9978C79.7723 63.97 79.7791 63.9345 79.781 63.8923C79.7839 63.8501 79.7848 63.7963 79.7848 63.7282V63.048C79.7848 62.9348 79.7781 62.8465 79.7647 62.7832C79.7512 62.7199 79.7273 62.6652 79.6927 62.6192C79.6496 62.5654 79.5901 62.5213 79.5124 62.4877C79.4346 62.4542 79.3531 62.4369 79.2677 62.4369C79.1823 62.4369 79.1037 62.4542 79.0327 62.4877C78.9617 62.5213 78.906 62.5664 78.8657 62.623C78.8446 62.6527 78.8293 62.6854 78.8216 62.7199C78.8139 62.7554 78.8101 62.8034 78.8101 62.8657V63.7282C78.8101 63.7983 78.811 63.8539 78.8139 63.8942C78.8168 63.9345 78.8235 63.969 78.8341 63.9978C78.8446 64.0256 78.86 64.0515 78.8811 64.0727C78.9022 64.0947 78.931 64.1197 78.9684 64.1494H78.2603C78.2978 64.1197 78.3275 64.0938 78.3496 64.0727C78.3707 64.0515 78.387 64.0256 78.3985 63.9978C78.4091 63.97 78.4158 63.9355 78.4186 63.8942C78.4215 63.8539 78.4225 63.7983 78.4225 63.7282V62.599C78.4225 62.5319 78.4215 62.4772 78.4186 62.435C78.4158 62.3928 78.4091 62.3582 78.3985 62.3294C78.3879 62.3006 78.3716 62.2757 78.3496 62.2546C78.3275 62.2325 78.2978 62.2076 78.2603 62.1778H78.5367C78.599 62.1778 78.6499 62.1721 78.6882 62.1596C78.7266 62.1471 78.7602 62.127 78.7909 62.0973V62.4532L78.789 62.4542Z" fill="#00824A"/>
</svg>
