<svg width="108" height="108" viewBox="0 0 108 108" fill="none" xmlns="http://www.w3.org/2000/svg">
<path d="M55.582 74.2727V73.7542C55.582 69.9006 55.5787 66.0471 55.582 62.1936C55.5863 58.3411 56.4415 54.7178 58.534 51.4398C60.5974 48.2071 63.4633 45.9134 66.9306 44.3395C70.3259 42.799 73.9137 42.09 77.6198 41.9244C78.5988 41.8803 79.5799 41.8953 80.5589 41.8609C80.9139 41.848 81.0097 41.9685 81.0086 42.3213C80.9957 45.7714 81.0011 49.2226 81.0011 52.6727C81.0011 59.6945 81.0011 66.7173 81.0011 73.7391C81.0011 74.0934 80.8289 74.2709 80.4847 74.2716C72.3602 74.2716 64.2347 74.2716 56.1102 74.2716H55.582V74.2727Z" fill="#FF1C25"/>
<path d="M52.6644 74.2458H27.2969V41.9362C27.3722 41.9179 27.468 41.8759 27.5648 41.8749C32.6329 41.7748 37.5698 42.4052 42.1473 44.7397C48.1288 47.7907 51.6209 52.649 52.4858 59.3362C52.6074 60.2776 52.6515 61.235 52.6558 62.1861C52.6741 66.0536 52.6633 69.92 52.6633 73.7875C52.6633 73.9317 52.6633 74.0748 52.6633 74.2458H52.6644Z" fill="#FF1C25"/>
<path d="M42.4335 28.6489C42.725 28.1046 42.9703 27.6323 43.2339 27.1708C43.2769 27.0955 43.3953 27.0492 43.4889 27.0223C43.576 26.9976 43.675 27.0159 43.7696 27.0159C50.6591 27.0159 57.5485 27.0191 64.438 27.0062C64.7984 27.0062 65.0092 27.1041 65.1555 27.429C65.3341 27.827 65.5482 28.21 65.772 28.6489H42.4335Z" fill="#FF1C25"/>
<path d="M41.6815 31.0093C41.8085 30.5606 41.9064 30.1572 42.0451 29.7689C42.0817 29.6677 42.2377 29.5967 42.3528 29.5408C42.4174 29.5085 42.511 29.5343 42.5916 29.5343C50.2729 29.5343 57.9541 29.5376 65.6364 29.5246C66.0194 29.5246 66.198 29.6301 66.2679 30.0001C66.3292 30.3261 66.4358 30.6446 66.5347 31.0093H41.6815Z" fill="#FF1C25"/>
<path d="M41.4029 33.3524C41.4308 32.964 41.4405 32.6047 41.4932 32.2507C41.5062 32.1636 41.6471 32.0754 41.7482 32.0291C41.8257 31.9936 41.9332 32.0216 42.0268 32.0216C50.0814 32.0216 58.1359 32.0216 66.1905 32.0216H66.709C66.751 32.4756 66.7886 32.8962 66.8306 33.3534H41.4029V33.3524Z" fill="#FF1C25"/>
<path d="M64.2379 26.1843H43.9611C43.9375 26.1541 43.9138 26.124 43.8901 26.0939C44.3882 25.5592 44.8799 25.0192 45.3898 24.4963C45.4576 24.4275 45.6146 24.4275 45.7308 24.4275C51.3164 24.4243 56.902 24.4243 62.4876 24.4275C62.6037 24.4275 62.7608 24.4275 62.8286 24.4963C63.3385 25.0192 63.8302 25.5603 64.3272 26.095L64.2368 26.1843H64.2379Z" fill="#FF1C25"/>
<path d="M66.7563 34.469C66.7822 34.5261 66.7929 34.5379 66.7929 34.5508C66.7743 35.3024 66.3974 35.6782 65.6623 35.6782C57.8175 35.6782 49.9727 35.6782 42.129 35.6782C41.9558 35.6782 41.7826 35.6782 41.546 35.6782C41.5008 35.2716 41.4567 34.8843 41.4104 34.4701H66.7574L66.7563 34.469Z" fill="#FF1C25"/>
<path d="M14 86.1195C14.0312 85.9022 14.0689 85.7322 14.0796 85.56C14.1065 85.1222 14.2614 84.8608 14.7681 84.949C14.8617 84.9651 15.0629 84.836 15.0801 84.7489C15.3975 83.0642 15.6933 81.3752 16.0031 79.6367C15.7213 79.6238 15.4749 79.613 15.1845 79.6001C15.2479 79.2376 15.2899 78.8954 15.377 78.5652C15.3985 78.4823 15.5674 78.3855 15.6686 78.3855C16.8767 78.3887 18.0859 78.3812 19.293 78.4318C20.4591 78.4813 21.0874 79.4247 20.7582 80.5479C20.571 81.1858 20.1719 81.6538 19.5286 82.0174C20.0761 82.2778 20.3784 82.6737 20.4892 83.2148C20.7474 84.4821 19.7426 85.999 18.4226 86.0958C16.9692 86.2012 15.5029 86.1195 14 86.1195ZM16.5217 84.9027C16.9972 84.9027 17.4092 84.906 17.8213 84.9027C18.3592 84.8984 18.7357 84.6284 18.9756 84.1647C19.3317 83.4784 19.0563 82.8867 18.2946 82.7554C17.9148 82.6898 17.52 82.6963 17.1338 82.7049C17.0434 82.707 16.8961 82.8361 16.8767 82.9276C16.7476 83.5558 16.6454 84.1895 16.5206 84.9027H16.5217ZM17.1575 81.4978C17.3554 81.5075 17.4867 81.5193 17.6179 81.5182C17.9385 81.5172 18.2623 81.5333 18.5808 81.4989C19.1111 81.4408 19.4974 80.9352 19.4662 80.3844C19.4382 79.8959 19.0821 79.6216 18.4786 79.6248C18.2247 79.6259 17.9676 79.6076 17.7169 79.6367C17.6136 79.6485 17.4533 79.7464 17.4372 79.8292C17.3285 80.365 17.2532 80.9072 17.1586 81.4978H17.1575Z" fill="#FF1C25"/>
<path d="M46.3634 23.6744C50.8409 20.0468 57.5894 20.1716 61.8496 23.6744H46.3634Z" fill="#FF1C25"/>
<path d="M50.942 84.0873C51.1109 83.6677 51.2486 83.3374 51.3777 83.0039C51.9318 81.5645 52.4815 80.124 53.0431 78.6878C53.0764 78.6017 53.2001 78.4974 53.2862 78.4942C53.7929 78.4759 54.3007 78.4856 54.8504 78.4856C54.4846 79.131 54.7407 79.7378 54.8128 80.3381C54.9935 81.8292 55.1882 83.3192 55.4098 84.8048C55.469 85.1986 55.6476 85.5751 55.7735 85.9635H54.0898C54.1511 85.6827 54.2975 85.3739 54.2684 85.0824C54.0909 83.3471 53.8736 81.6161 53.6681 79.8841C53.6606 79.8196 53.6369 79.7561 53.5885 79.5689C52.7074 81.8098 51.8672 83.9453 51.0184 86.1044C50.5687 85.8311 50.3224 85.4406 50.1362 85.0039C49.4477 83.3869 48.7624 81.7689 48.0761 80.1509C48.0094 79.9949 47.9395 79.84 47.7835 79.6926C47.7447 79.9347 47.7006 80.1756 47.6684 80.4177C47.4779 81.8399 47.2821 83.2621 47.1046 84.6865C47.0508 85.119 46.9691 85.573 47.3682 85.9688H45.8008C46.5345 84.5843 46.4118 83.0287 46.6937 81.557C46.8195 80.8997 46.897 80.2305 46.9562 79.5624C46.9863 79.2246 46.9271 78.8793 46.9045 78.4866C47.3392 78.4866 47.8824 78.4748 48.4246 78.4995C48.5053 78.5028 48.6065 78.6652 48.6527 78.7728C49.3638 80.4231 50.0674 82.0777 50.7742 83.7301C50.8108 83.8151 50.8538 83.8979 50.9431 84.0851L50.942 84.0873Z" fill="#FF1C25"/>
<path d="M66.4519 36.8573C66.3648 37.151 66.311 37.4146 66.2045 37.6556C66.1593 37.7578 66.0151 37.8438 65.8979 37.8804C65.7752 37.9191 65.6321 37.8901 65.4977 37.8901C57.9261 37.8901 50.3546 37.8901 42.7831 37.8901C42.2947 37.8901 41.987 37.6538 41.8601 37.1811C41.8364 37.0919 41.8149 37.0026 41.7773 36.8573H66.4519Z" fill="#FF1C25"/>
<path d="M39.3438 78.378C39.0716 79.9207 38.8145 81.3816 38.5574 82.8415C38.5832 82.863 38.6101 82.8834 38.6359 82.905C39.1674 82.4585 39.6988 82.0121 40.2969 81.5097C40.0732 81.4741 39.9376 81.4516 39.7472 81.4214C39.7892 81.1417 39.8161 80.8674 39.8806 80.6017C39.8978 80.5296 40.028 80.4371 40.1076 80.436C40.9639 80.4242 41.8214 80.4285 42.7412 80.4285C42.6691 80.848 42.6045 81.2203 42.5314 81.6484C41.6288 81.401 41.2264 82.1261 40.6692 82.5457C40.425 82.7296 40.2023 82.9415 39.9333 83.1718C40.3862 83.7505 40.8123 84.3153 41.2684 84.8543C41.348 84.949 41.5567 84.9468 41.7084 84.9651C41.8515 84.9823 41.9978 84.9694 42.2033 84.9694C42.1484 85.3427 42.1108 85.6698 42.0462 85.9925C42.0333 86.0538 41.9182 86.1388 41.8504 86.1388C40.8725 86.1485 39.8946 86.1453 38.893 86.1453C38.9328 85.8935 38.9748 85.6838 38.9952 85.4718C39.0253 85.1588 39.0845 84.8855 39.5912 84.9598C39.205 84.424 38.8715 83.9636 38.4573 83.3891C38.353 83.9668 38.2691 84.4262 38.1798 84.9189C38.367 84.9511 38.5186 84.977 38.6628 85.0017C38.6693 85.0297 38.6768 85.0437 38.6757 85.0566C38.5746 85.7845 38.1539 86.1485 37.4138 86.1485C36.9318 86.1485 36.4499 86.1485 35.9098 86.1485C35.9701 85.7763 36.0002 85.4331 36.0959 85.1104C36.1196 85.0307 36.3563 84.9888 36.4983 84.977C36.6909 84.9608 36.8641 84.9834 36.9103 84.7177C37.2019 83.0405 37.5052 81.3655 37.8129 79.6399C37.5537 79.6227 37.3224 79.6076 37.1007 79.5936C37.0889 79.5581 37.0803 79.5452 37.0814 79.5334C37.1474 78.7646 37.5651 78.3801 38.3347 78.3801H39.3438V78.378Z" fill="#FF1C25"/>
<path d="M26.5094 81.1342C26.5417 81.0965 26.5675 81.0793 26.5751 81.0567C26.7149 80.635 27.019 80.4242 27.4874 80.4242C27.8359 80.4242 28.1855 80.4274 28.5341 80.4306C28.5728 80.4306 28.6105 80.4478 28.7138 80.4726C28.6514 80.819 28.603 81.1686 28.5147 81.5086C28.4997 81.5688 28.3136 81.628 28.2167 81.6151C27.865 81.5699 27.7649 81.7291 27.7122 82.0562C27.5584 83.0072 27.3636 83.9506 27.1775 84.9361C27.4303 84.9565 27.652 84.9748 27.8693 84.9931C27.8757 85.0351 27.8876 85.062 27.8832 85.0867C27.7728 85.7931 27.354 86.1464 26.6267 86.1464C26.3341 86.1464 26.0415 86.1464 25.7327 86.1464V85.4815C25.6122 85.5622 25.524 85.6138 25.4433 85.6762C24.4902 86.4175 23.2874 86.4702 22.3407 85.8118C21.4585 85.1975 21.082 84.0098 21.4908 82.8974C21.9943 81.529 22.9991 80.6598 24.4084 80.3144C25.141 80.1348 25.8263 80.2951 26.3169 80.947C26.3696 81.0169 26.4438 81.0718 26.5094 81.1342ZM26.2287 82.9674C26.2287 82.0293 25.425 81.3504 24.5052 81.5408C23.6134 81.7248 23.0206 82.2842 22.757 83.1416C22.4354 84.1906 23.1981 85.1125 24.2858 85.0415C25.2981 84.9748 26.2287 83.9818 26.2287 82.9674Z" fill="#FF1C25"/>
<path d="M74.4483 86.1733C72.5001 86.1582 70.8756 85.0114 70.4098 83.3202C69.7847 81.0524 71.236 78.7879 73.5898 78.3575C75.5994 77.9907 77.4638 78.8298 78.2685 80.465C79.5896 83.1481 77.5499 86.1969 74.4483 86.1733ZM74.5236 85.3922C76.2643 85.3782 77.4251 84.1421 77.4068 82.3197C77.3885 80.4564 76.1148 79.0504 74.4516 79.0568C72.7335 79.0633 71.5178 80.3306 71.5211 82.1121C71.5243 83.9356 72.8701 85.4051 74.5236 85.3911V85.3922Z" fill="#FF1C25"/>
<path d="M30.0574 81.6463C29.782 81.6301 29.5723 81.6183 29.3227 81.6032C29.384 81.2665 29.4281 80.9502 29.5077 80.6436C29.5303 80.5576 29.6551 80.4392 29.7358 80.4371C30.3232 80.4199 30.9106 80.4274 31.5356 80.4274C31.5109 80.6888 31.4904 80.8954 31.4603 81.2041C31.6184 81.0578 31.7099 80.9707 31.8035 80.8857C32.4425 80.3047 33.429 80.1488 34.1638 80.5124C34.8588 80.8566 35.1707 81.3644 35.0793 82.1315C34.9846 82.9168 34.834 83.6946 34.7092 84.4756C34.6866 84.6187 34.6726 84.7629 34.6501 84.9447C34.8803 84.9587 35.0761 84.9705 35.3396 84.9866C35.2837 85.3707 35.2299 85.7311 35.174 86.1173H32.3984C32.4522 85.7946 32.5071 85.4933 32.5501 85.19C32.5856 84.9339 32.7728 84.949 32.9428 84.9727C33.2547 85.0146 33.3645 84.8715 33.4064 84.5811C33.4936 83.984 33.613 83.3912 33.7141 82.7963C33.8475 82.0077 33.2042 81.3956 32.4221 81.586C31.7292 81.7549 31.2473 82.1358 31.1397 82.9017C31.0504 83.5386 30.9127 84.169 30.7998 84.8027C30.7933 84.8382 30.8127 84.878 30.8256 84.9468C31.031 84.9597 31.2398 84.9737 31.4915 84.9888C31.442 85.3288 31.4076 85.645 31.342 85.9549C31.3258 86.0291 31.2075 86.1345 31.1354 86.1356C30.2791 86.1485 29.4238 86.1442 28.5201 86.1442C28.5922 85.729 28.6546 85.3642 28.7138 85.0211C28.7805 84.9952 28.8052 84.978 28.83 84.977C29.4636 84.9436 29.4668 84.9447 29.583 84.3089C29.7412 83.4386 29.8939 82.5682 30.0585 81.6452L30.0574 81.6463Z" fill="#FF1C25"/>
<path d="M65.6117 39.1778C65.3643 39.7889 64.9286 40.0944 64.3046 40.0944H43.9203C43.2941 40.0944 42.8566 39.7889 42.6078 39.1778H65.6117Z" fill="#FF1C25"/>
<path d="M82.4975 82.3692C83.5464 83.6107 84.3952 85.0318 85.8594 85.929C84.6674 86.1786 84.0768 85.9904 83.37 85.077C82.689 84.1981 82.0478 83.288 81.3905 82.3907C81.3367 82.3176 81.3001 82.2326 81.2399 82.1239C81.4776 82.054 81.7089 82.0239 81.9015 81.9217C82.2393 81.7409 82.5997 81.5634 82.8644 81.2977C83.2344 80.9266 83.2742 80.4285 83.0774 79.9454C82.8697 79.4344 82.4373 79.1913 81.9112 79.1493C81.582 79.1235 81.2463 79.1827 80.8558 79.2063C80.8558 79.4021 80.8558 79.5581 80.8558 79.7141C80.8558 81.3655 80.8408 83.0158 80.8655 84.6671C80.872 85.1028 81 85.5364 81.0731 85.9753H79.3723C79.7639 85.5288 79.7445 84.9996 79.7434 84.4703C79.7402 82.9136 79.7574 81.3558 79.7327 79.7991C79.7262 79.3742 79.5982 78.9503 79.5132 78.4468C80.5535 78.4856 81.6767 78.4651 82.7847 78.5888C83.5712 78.6771 84.1381 79.1805 84.2823 80.01C84.4189 80.7953 84.0617 81.3978 83.4507 81.8485C83.1753 82.0508 82.8471 82.1809 82.4986 82.3681L82.4975 82.3692Z" fill="#FF1C25"/>
<path d="M89.3224 78.4856C89.6613 78.4856 90.1174 78.4662 90.5693 78.4995C90.679 78.5082 90.8199 78.6749 90.8716 78.7997C91.6537 80.6953 92.4121 82.6016 93.2061 84.4929C93.4244 85.0125 93.7429 85.4912 94.0022 85.9635H92.2594C92.2615 85.7074 92.3271 85.4266 92.254 85.1878C92.0679 84.5875 91.8312 84.0001 91.5827 83.4224C91.531 83.303 91.3395 83.1718 91.2094 83.1685C90.4176 83.1449 89.6258 83.1449 88.834 83.1685C88.7027 83.1728 88.5102 83.2998 88.4596 83.4192C88.2305 83.9625 88.0401 84.5208 87.841 85.0759C87.727 85.3944 87.6958 85.7053 88.0314 85.9775H86.2144C87.0277 85.3105 87.1988 84.3326 87.5678 83.4633C88.1175 82.167 88.636 80.8588 89.1395 79.5442C89.2589 79.2322 89.26 78.8761 89.3246 78.4866L89.3224 78.4856ZM91.1631 82.3294C90.7737 81.3343 90.4122 80.4091 90.0034 79.3645C89.5903 80.4134 89.2234 81.3472 88.8361 82.3294H91.1631Z" fill="#FF1C25"/>
<path d="M64.2519 85.9807H62.3283C62.6747 85.7279 62.608 85.4428 62.4908 85.1448C62.2713 84.5832 62.0744 84.0109 61.8324 83.459C61.7743 83.3267 61.5796 83.1739 61.4419 83.1696C60.6512 83.1427 59.8572 83.1449 59.0665 83.1675C58.9363 83.1718 58.7459 83.3009 58.6953 83.4203C58.4651 83.9625 58.2704 84.5208 58.0735 85.0759C57.967 85.3761 57.9057 85.6795 58.2586 85.9613H56.4329C57.0612 85.5181 57.2505 84.8532 57.5023 84.225C58.1381 82.6446 58.7793 81.0675 59.3946 79.4796C59.5065 79.1913 59.5001 78.8578 59.5581 78.4823C59.8906 78.4823 60.3435 78.463 60.7932 78.4963C60.905 78.5049 61.0524 78.6609 61.103 78.7825C61.9002 80.7157 62.6726 82.6597 63.4805 84.5897C63.6828 85.0738 63.9905 85.5138 64.2519 85.9796V85.9807ZM59.0697 82.3294H61.3978C61.0159 81.3504 60.6544 80.4199 60.2918 79.4904C60.2574 79.4936 60.223 79.4968 60.1886 79.5C59.8239 80.4231 59.4581 81.345 59.0697 82.3294Z" fill="#FF1C25"/>
<path d="M64.2304 41.451C63.9485 41.9448 63.6742 42.2471 63.0405 42.2439C57.1042 42.2138 51.1679 42.2127 45.2317 42.2439C44.5916 42.2471 44.2828 41.9738 43.9934 41.451H64.2304Z" fill="#FF1C25"/>
<path d="M63.3912 78.4985C63.7441 78.4985 64.0776 78.4942 64.4122 78.4995C64.736 78.5038 64.9587 78.6641 65.1254 78.9428C65.5945 79.7249 66.0764 80.4995 66.5552 81.2762C66.652 81.4343 66.7542 81.5893 66.8951 81.8098C67.2082 81.3418 67.489 80.9212 67.7697 80.5016C67.9709 80.2004 68.1786 79.9024 68.3711 79.5969C68.5852 79.2558 68.6853 78.9073 68.3033 78.5211H70.0591C69.9526 78.6943 69.8751 78.8298 69.789 78.96C69.0231 80.1111 68.2485 81.2558 67.4965 82.4155C67.3814 82.593 67.3201 82.8318 67.3072 83.0459C67.2803 83.5279 67.3029 84.012 67.2975 84.495C67.2921 85.0232 67.2878 85.5471 67.8397 85.9678H65.8527C66.4228 84.9554 66.0947 83.8463 66.155 82.7748C66.1603 82.6694 66.0721 82.5521 66.0087 82.451C65.3718 81.4247 64.7381 80.3962 64.0862 79.3806C63.8936 79.0805 63.643 78.8169 63.3902 78.4995L63.3912 78.4985Z" fill="#FF1C25"/>
<path d="M62.1089 43.6779C61.6753 44.1018 61.2579 44.3449 60.6382 44.3406C56.3167 44.3105 51.9952 44.3116 47.6748 44.3406C47.0412 44.3449 46.5678 44.1534 46.1224 43.679H62.1089V43.6779Z" fill="#FF1C25"/>
<path d="M58.1133 45.8586C55.4464 46.7795 52.7795 46.7795 50.1104 45.8586H58.1133Z" fill="#FF1C25"/>
</svg>
