<svg width="108" height="108" viewBox="0 0 108 108" fill="none" xmlns="http://www.w3.org/2000/svg">
<path d="M25.3297 43C19.0815 43 14.0171 48.0636 14.0171 54.3118C14.0171 60.5598 19.0815 65.624 25.3297 65.624C31.5772 65.624 36.6419 60.5598 36.6419 54.3118C36.6419 48.0636 31.5772 43 25.3297 43ZM16.4495 54.3118C16.4495 49.8607 19.7242 46.1789 23.9953 45.5356V49.6903L22.1453 49.6966C20.7545 49.6966 19.911 50.7178 19.911 52.1074V56.4617C19.911 57.8521 21.0506 58.9244 22.4405 58.9244L23.9881 58.9249L23.9952 63.0956C19.7242 62.4512 16.4495 58.7621 16.4495 54.3118ZM22.5986 56.489C22.5986 56.489 22.475 56.4763 22.4133 56.369C22.353 56.2637 22.3694 56.2078 22.3694 56.2078V52.4302C22.3694 52.4302 22.3633 52.2965 22.4366 52.2154C22.5053 52.1382 22.633 52.135 22.633 52.135H27.9732C27.9732 52.135 28.0584 52.1231 28.1568 52.1771C28.2412 52.2222 28.2888 52.4003 28.2888 52.4003V56.2769C28.2888 56.2769 28.2412 56.3845 28.1959 56.4222C28.1527 56.459 28.0651 56.4878 28.0651 56.4878L26.652 56.4905L22.5986 56.489ZM26.6289 63.1028L26.6209 58.8957H28.2873C29.6781 58.8957 30.6992 57.8521 30.6992 56.4619V52.1075C30.6992 50.7179 29.5912 49.7032 28.2013 49.7032L26.6209 49.7048L26.6201 45.5253C30.9132 46.1504 34.2092 49.846 34.2092 54.312C34.2092 58.7762 30.92 62.4773 26.6289 63.1028Z" fill="#B30738"/>
<path d="M89.5985 64.6496L89.6485 64.5353C89.682 64.5008 89.8813 64.4493 89.9626 64.3478C90.0396 64.2465 91.6968 60.4967 91.6968 60.4967L91.7984 60.471L93.32 63.9654C93.4215 64.1956 93.4904 64.351 93.5488 64.4074C93.6099 64.4609 93.7622 64.5263 93.8647 64.5354C93.9255 64.5401 93.8902 64.6286 93.8902 64.6286L92.2183 64.6263C92.2183 64.6263 92.1074 64.5416 92.2183 64.4986C92.2861 64.4723 92.555 64.3905 92.5983 64.2199C92.6167 64.1444 92.5811 63.9655 92.5043 63.7616C92.4511 63.618 92.2994 63.3024 92.2148 63.2423C92.1387 63.189 91.8239 63.2175 91.5347 63.2091C91.2715 63.2015 90.9225 63.1915 90.8124 63.2511C90.6739 63.3254 90.5224 63.9014 90.4896 63.9912C90.4592 64.0779 90.4896 64.2802 90.5659 64.34C90.6937 64.4396 90.9485 64.5183 91.0412 64.5444L91.0668 64.646L89.5985 64.6496ZM92.1296 62.9364C92.1724 62.8809 92.0148 62.5687 91.8661 62.2391C91.756 61.9932 91.5691 61.5157 91.5093 61.534C91.4669 61.5464 91.314 61.9248 91.1953 62.1967C91.067 62.4902 90.9116 62.858 90.9734 62.9188C91.0101 62.9559 91.2971 62.9791 91.535 62.9704C91.8076 62.9608 92.0912 62.9884 92.1296 62.9364ZM45.5953 63.7588C45.6841 63.3231 45.5863 63.0359 45.332 62.8233C45.2107 62.722 44.888 62.5685 44.6256 62.5685C44.2641 62.5685 44.0264 62.5343 44.0264 62.9372L44.0304 63.9203C44.0304 64.4719 44.7192 64.4132 44.7192 64.4132C45.2806 64.4132 45.5274 64.0896 45.5953 63.7588ZM56.4682 64.4896C56.4745 64.4971 56.6811 64.4381 56.7755 64.2936C56.8248 64.2173 56.8856 64.1128 56.8856 63.8522V61.2506C56.8856 61.089 56.8356 60.9333 56.7667 60.8678C56.7003 60.8022 56.5943 60.7334 56.3591 60.7154C56.3591 60.7154 56.1795 60.6042 56.3591 60.5542L57.931 60.5507C57.931 60.5507 58.0762 60.596 57.9492 60.6642C57.8354 60.7243 57.7354 60.6814 57.6444 60.7837C57.5812 60.8547 57.5428 60.9935 57.5404 61.2145V62.4997C57.5404 62.5509 57.5903 62.6261 57.6083 62.6277C57.6927 62.6362 57.7443 62.5317 57.7872 62.5089C57.9575 62.3641 58.22 62.0808 58.4584 61.8541C58.8855 61.4477 59.1011 61.2362 59.1725 61.1396C59.266 61.013 59.284 60.834 59.2328 60.7741C59.1725 60.7065 59.0452 60.7065 58.9348 60.6721C58.9348 60.6721 58.8328 60.604 58.9512 60.5622H60.3543C60.3543 60.5622 60.4052 60.6893 60.3287 60.7232C60.1346 60.7412 60.063 60.7824 59.9466 60.8425C59.8347 60.8995 59.6026 61.0617 59.4027 61.2588C59.4027 61.2588 58.3771 62.1411 58.4159 62.2454C58.4755 62.4063 59.0676 63.0999 59.47 63.6556C59.6426 63.8952 59.8139 64.1935 59.9123 64.2686C60.0074 64.3374 60.1582 64.4811 60.2863 64.4811C60.4347 64.4811 60.3631 64.6169 60.3631 64.6169C60.3631 64.6169 59.5648 64.5871 59.4279 64.5998C59.3339 64.6082 59.2215 64.4379 59.2215 64.4379C58.9099 64.0302 58.0159 62.7806 57.9492 62.7035C57.9148 62.6782 57.549 62.9503 57.5404 63.1804V63.9365C57.5404 64.1637 57.5935 64.2791 57.6592 64.3452C57.77 64.4549 58.0496 64.4893 58.0496 64.481C58.1788 64.5149 58.0927 64.6006 58.0927 64.6006H56.401C56.401 64.6008 56.3419 64.5153 56.4682 64.4896ZM51.2273 64.4913C51.3419 64.4473 51.5512 64.316 51.632 64.226C51.7084 64.136 51.7667 64.0572 51.7667 63.7324C51.7667 63.7324 51.7495 61.7605 51.7495 61.4713C51.7495 61.2333 51.6658 60.9184 51.5552 60.8338C51.4435 60.748 51.3116 60.695 51.1723 60.6894C51.1723 60.6894 51.0624 60.5702 51.1812 60.5445H52.2437L54.7608 63.3249C54.7608 63.3249 54.8582 63.4464 54.913 63.4185L54.9363 63.2834C54.9474 63.0702 54.9387 61.4349 54.9387 61.4349C54.9387 61.2591 54.9723 61.0639 54.8534 60.9274C54.7012 60.7535 54.3982 60.7227 54.3091 60.6895C54.2411 60.6642 54.2411 60.5875 54.3174 60.5624H55.6608C55.7543 60.5704 55.6871 60.6644 55.6871 60.6644C55.5338 60.7068 55.3847 60.7403 55.3131 60.8341C55.2281 60.9444 55.1841 61.1101 55.1841 61.4352V64.6745H55.0717C55.0717 64.6745 52.3076 61.6716 52.1413 61.5059C52.0657 61.4295 52.0398 61.5312 52.0398 61.6336C52.0398 61.7351 52.0322 63.6992 52.0322 63.6992C52.0322 64.0363 52.0999 64.2431 52.315 64.3561C52.3985 64.4003 52.6149 64.4544 52.7118 64.4724C52.7538 64.4813 52.7751 64.6032 52.7751 64.6032H51.2275C51.2273 64.6028 51.1864 64.5069 51.2273 64.4913ZM46.642 64.6132L46.692 64.4983C46.7264 64.4643 46.9264 64.4131 47.0067 64.3112C47.0831 64.2087 48.7403 60.4597 48.7403 60.4597L48.8435 60.434L50.3654 63.9285C50.4666 64.158 50.5338 64.314 50.5942 64.3703C50.6543 64.4243 50.8066 64.4895 50.9083 64.4983C50.9699 64.5032 50.9347 64.5916 50.9347 64.5916L49.2418 64.6339C49.2418 64.6339 49.1831 64.5407 49.2934 64.4983C49.3621 64.4719 49.6002 64.3536 49.6418 64.1832C49.6614 64.1072 49.6246 63.9284 49.5483 63.7249C49.4949 63.5809 49.345 63.2652 49.2599 63.2056C49.1838 63.1522 48.8682 63.1806 48.5795 63.1721C48.3154 63.1638 47.9667 63.1545 47.8574 63.2146C47.7182 63.2891 47.566 63.8642 47.5339 63.9537C47.5035 64.0411 47.5339 64.243 47.6099 64.3022C47.7386 64.4022 47.9928 64.4814 48.0863 64.5065L48.1115 64.6087L46.642 64.6132ZM49.1748 62.8997C49.2161 62.8437 49.0593 62.5325 48.9116 62.2029C48.7997 61.9562 48.6141 61.4784 48.5537 61.4968C48.5108 61.5105 48.3583 61.8877 48.2387 62.1597C48.1101 62.4544 47.956 62.8212 48.0184 62.8829C48.0552 62.9189 48.3422 62.9416 48.5796 62.9339C48.852 62.924 49.1364 62.9522 49.1748 62.8997ZM45.392 61.601C45.3952 61.327 45.2349 61.0741 45.0592 60.9273C44.9575 60.8426 44.7625 60.7404 44.5412 60.7404C44.2349 60.7404 44.0333 60.7825 44.0333 61.072L44.0304 62.1512C44.0052 62.4063 44.6161 62.3416 44.6161 62.3416C45.1281 62.3416 45.3828 62.271 45.392 61.601ZM42.815 64.4868C43.0194 64.4304 43.1694 64.3802 43.2323 64.302C43.2999 64.2173 43.3234 64.1635 43.3266 63.9335V61.2098C43.3251 61.0465 43.283 60.953 43.189 60.8507C43.0062 60.6512 42.7891 60.7824 42.7562 60.7065C42.7307 60.6497 42.7382 60.5473 42.7382 60.5473H44.4529C44.9437 60.5473 45.2685 60.5685 45.561 60.7153C45.7822 60.8261 46.0461 61.0889 46.0461 61.4853C46.0461 62.0333 45.6038 62.2277 45.4258 62.3553C45.7658 62.4488 46.3264 62.6449 46.3264 63.2824C46.3264 63.9449 45.9609 64.3622 45.6125 64.4721C45.3733 64.549 45.0749 64.5942 44.7342 64.5969H42.8149L42.815 64.4868ZM67.4621 64.5232C67.4621 64.5352 67.6745 64.4552 67.768 64.379C67.8353 64.3234 67.8869 64.2111 67.8869 63.9448L67.8957 61.3693C67.8957 61.154 67.8688 61.0545 67.7932 60.9352C67.7164 60.8181 67.5293 60.7911 67.3089 60.7567C67.3089 60.7567 67.1481 60.6379 67.2613 60.5891C67.2489 60.587 68.4541 60.5955 69.0345 60.6039C69.6302 60.6134 70.2237 60.5555 70.2846 60.5955C70.3614 60.647 70.3206 61.2193 70.3354 61.3268C70.3434 61.3859 70.2974 61.5071 70.2418 61.5139C70.1738 61.5223 70.1575 61.4007 70.1575 61.3268C70.1575 61.1735 70.0278 60.9963 69.9959 60.9528C69.9139 60.8441 69.7574 60.8224 69.682 60.8224H68.7668C68.6857 60.8224 68.6623 60.8208 68.6348 60.8507C68.6139 60.8782 68.5788 60.9459 68.5756 61.0296V62.1594C68.5756 62.2275 68.5789 62.3239 68.6176 62.3383C68.7125 62.3719 69.3231 62.364 69.3231 62.364C69.4263 62.364 69.5451 62.2615 69.5795 62.2028C69.632 62.1107 69.7199 62 69.766 61.8619C69.792 61.786 69.9272 61.7261 69.9272 61.8966C69.9272 62.0038 69.9452 63.2228 69.9452 63.2228C69.8764 63.3165 69.8176 63.1974 69.8176 63.1974C69.7715 62.9608 69.7305 62.8753 69.6551 62.798C69.5841 62.7205 69.4763 62.6277 69.3231 62.6277L68.7968 62.6201C68.6012 62.6024 68.5928 62.8149 68.584 62.8913L68.5755 63.9801C68.584 64.0898 68.6099 64.2369 68.678 64.3022C68.7468 64.3622 68.9207 64.4853 69.1536 64.5065C69.2656 64.5154 69.188 64.6402 69.188 64.6402H67.4189C67.4189 64.6401 67.3337 64.5831 67.4621 64.5232ZM63.2278 61.0465C63.6042 60.687 64.1489 60.5309 64.6989 60.5282C65.249 60.5282 65.7049 60.6142 66.0838 60.9782C66.4908 61.3697 66.7024 61.8541 66.7057 62.5089C66.7057 63.172 66.4918 63.7128 66.0672 64.107C65.6908 64.4564 65.1596 64.664 64.6213 64.6668C64.0473 64.6668 63.4972 64.512 63.1172 64.1237C62.7344 63.7296 62.5932 63.2013 62.5901 62.5761C62.5901 61.9249 62.8154 61.444 63.2278 61.0465ZM63.755 64.0047C64.0924 64.3885 64.3253 64.4719 64.7916 64.4719C65.1153 64.4719 65.4409 64.2816 65.6933 63.9801C65.9058 63.7249 66.008 63.2741 66.008 62.6104C66.008 61.9437 65.8238 61.4996 65.5746 61.1909C65.2853 60.8335 64.9722 60.752 64.6137 60.7491C64.2493 60.7491 63.8829 60.8425 63.644 61.1143C63.3837 61.4111 63.2657 61.8852 63.262 62.5343C63.262 63.1773 63.5673 63.7925 63.755 64.0047ZM85.0857 64.4897C85.0857 64.4985 85.3578 64.4045 85.4601 64.252C85.5233 64.1557 85.5644 64.0648 85.5644 63.7416L85.5282 61.1998C85.511 61.0038 85.3634 60.867 85.299 60.8338C85.2141 60.7913 85.0751 60.8013 85.0007 60.7404C85.0007 60.7404 84.8305 60.6137 84.975 60.5873C84.9641 60.5916 86.0038 60.5537 86.0178 60.5916C86.1313 60.6641 87.7553 62.4661 88.4274 63.24C88.6487 63.5029 88.7333 63.4605 88.7241 63.2056L88.7333 61.3019C88.7333 61.0296 88.5969 60.9352 88.5382 60.8931C88.414 60.8049 88.299 60.7403 88.0953 60.7045C88.0953 60.7045 87.9256 60.647 88.0953 60.5915H89.4304C89.524 60.587 89.524 60.6639 89.4304 60.6891C89.3116 60.6891 89.1684 60.7851 89.0912 60.8754C89.0133 60.966 88.9748 61.1683 88.9748 61.491L88.9708 64.5996C88.9632 64.7446 88.8264 64.6682 88.8264 64.6682C88.8264 64.6682 86.2938 61.9046 85.992 61.5669C85.988 61.5636 85.9453 61.4796 85.8717 61.5329C85.8258 61.5656 85.8201 61.5818 85.8249 61.6576L85.8324 63.7413C85.8324 64.0764 85.9477 64.26 86.0459 64.3616C86.1092 64.4275 86.2133 64.4825 86.4372 64.506C86.5732 64.4981 86.5485 64.6408 86.5485 64.6408L84.9929 64.6421C84.9931 64.6424 84.9662 64.5233 85.0857 64.4897ZM82.7226 64.5312C82.7822 64.5151 82.9108 64.4444 82.9865 64.3875C83.0578 64.3302 83.0977 64.2172 83.1005 63.9778L83.1132 61.3523C83.1045 61.1819 83.1045 60.9779 83.0201 60.8931C82.8962 60.7697 82.7577 60.7172 82.5053 60.7045C82.5053 60.7045 82.3989 60.647 82.5053 60.5915H84.1936C84.3288 60.6134 84.1757 60.7045 84.1757 60.7045C84.0404 60.7063 83.9312 60.7776 83.8787 60.8424C83.8013 60.935 83.8044 61.1258 83.7927 61.2675V63.9778C83.7927 64.2142 83.8716 64.3535 83.9469 64.4131C84.0177 64.4671 84.1036 64.5111 84.3545 64.5323C84.5159 64.5576 84.3545 64.6422 84.3545 64.6422L82.7226 64.641C82.5946 64.6 82.7226 64.5312 82.7226 64.5312ZM77.4179 64.5153C77.4071 64.5165 77.6718 64.3433 77.7315 64.2769C77.7915 64.2144 77.8422 64.1093 77.8422 63.8436L77.8594 61.3097C77.8594 61.0914 77.815 60.9688 77.7654 60.8849C77.7062 60.7825 77.5679 60.7669 77.3406 60.7493C77.3406 60.7493 77.017 60.6722 77.3151 60.5959H78.9047C79.0757 60.6041 78.9314 60.7049 78.9314 60.7049C78.803 60.7066 78.7007 60.7493 78.6367 60.8275C78.5798 60.9003 78.5235 61.0299 78.5358 61.2551V62.1514C78.5358 62.1514 78.5235 62.3643 78.7094 62.3555C78.9826 62.3433 80.2038 62.3787 80.3922 62.3643C80.6142 62.3475 80.6562 62.2115 80.6562 62.109C80.6649 61.8545 80.6562 61.2812 80.6562 61.2812C80.6562 61.0627 80.5977 60.8964 80.5327 60.8276C80.4662 60.7628 80.3202 60.7235 80.0922 60.705C79.9334 60.6815 80.0438 60.592 80.0438 60.592L81.7357 60.5936C81.7357 60.5936 81.8209 60.6895 81.6849 60.7067C81.5485 60.6979 81.493 60.7599 81.4249 60.8276C81.3585 60.8936 81.3257 61.0344 81.3257 61.2552L81.3281 63.9539C81.3281 64.1754 81.3717 64.2459 81.439 64.3114C81.5043 64.3707 81.5774 64.474 81.8036 64.4986C81.9225 64.5154 81.974 64.6341 81.838 64.6426L80.2904 64.677C80.2904 64.677 80.0865 64.5835 80.3161 64.5067C80.3161 64.5155 80.4945 64.4476 80.5633 64.3371C80.6078 64.2626 80.6396 64.0651 80.6396 63.9287C80.6396 63.9287 80.6485 62.9855 80.6485 62.8399C80.6485 62.7388 80.6141 62.6028 80.478 62.6278C80.478 62.6278 78.8193 62.6235 78.6841 62.6106C78.5905 62.6028 78.5304 62.653 78.5304 62.8319V63.9031C78.5304 64.124 78.649 64.3051 78.7176 64.3708C78.7841 64.4335 78.9067 64.4943 79.1349 64.5155C79.3304 64.5412 79.1848 64.6427 79.1848 64.6427L77.3764 64.6414C77.3766 64.6413 77.2728 64.5496 77.4179 64.5153ZM75.7251 60.7065C75.9408 60.8185 76.1164 60.9097 76.2104 60.9021C76.2687 60.896 76.3165 60.7777 76.3368 60.7065C76.4315 60.5784 76.4652 60.8081 76.4652 60.8003L76.5408 61.9471C76.5408 61.9471 76.4652 62.0588 76.3884 61.9471C76.308 61.6751 76.0949 61.3756 75.9465 61.2163C75.7252 60.978 75.3253 60.7392 74.9001 60.7315C74.4165 60.7231 74.0808 60.9218 73.8293 61.2331C73.6165 61.4968 73.4892 61.9393 73.4892 62.3983C73.4892 62.9414 73.7197 63.5718 74.0424 63.8773C74.3554 64.1742 74.6907 64.3242 75.1307 64.3278C75.4471 64.3278 75.6259 64.2418 75.8955 64.0894C76.048 64.0063 76.2547 63.7815 76.4391 63.6055C76.5492 63.512 76.6095 63.6396 76.6095 63.6396C76.6267 63.7324 76.2752 64.0995 75.9892 64.3279C75.7759 64.4983 75.2235 64.694 74.9432 64.694C74.286 64.694 73.9063 64.6596 73.3277 64.1408C73.0008 63.8473 72.8182 63.2397 72.8145 62.6573C72.8145 62.062 73.004 61.5625 73.3793 61.1565C73.7745 60.7317 74.2884 60.52 74.9283 60.52C75.1491 60.52 75.5136 60.5959 75.7251 60.7065ZM59.0258 48.9927C59.0523 48.9426 59.0593 49.0354 59.1851 49.173C59.3112 49.3099 59.2334 49.3522 59.3087 49.4626C59.3835 49.5748 59.3843 49.5152 59.3654 49.6426C59.3479 49.7691 59.3228 49.7435 59.2103 49.8355C59.0991 49.9262 59.1931 49.8855 59.0834 49.7743C58.975 49.6624 59.0702 49.5022 58.9618 49.4075C58.8522 49.313 58.844 49.313 58.8704 49.1608C58.8979 49.0083 58.999 49.0436 59.0258 48.9927ZM58.5961 49.4119C58.6477 49.3786 58.7391 49.5326 58.8054 49.6946C58.8701 49.8565 58.871 49.8221 58.9283 50.0014C58.9858 50.1809 58.9695 50.0954 58.8235 50.2629C58.6767 50.4318 58.4823 50.4117 58.2851 50.5877C58.0874 50.7637 58.0022 50.7116 57.8234 50.8369C57.6438 50.962 57.6695 50.9202 57.5178 50.859C57.3656 50.7977 57.375 50.7545 57.4782 50.6286C57.5807 50.503 57.5642 50.5706 57.6407 50.5039C57.7178 50.4364 57.5487 50.4263 57.6334 50.3591C57.7194 50.2927 57.7095 50.3855 57.8471 50.2352C57.985 50.0835 57.944 50.0571 57.9954 49.9647C58.0469 49.8723 58.1077 49.7628 58.2538 49.696C58.3987 49.6303 58.5454 49.4451 58.5961 49.4119ZM59.7134 45.7935C59.7642 45.7691 59.875 45.7707 59.9931 45.7886C60.0627 45.7998 59.9415 45.7707 60.2398 45.7578C60.3921 45.7513 60.4766 45.8286 60.6119 45.9066C60.9283 46.0897 61.1505 46.1538 61.2184 46.2539C61.2765 46.3382 61.321 46.5038 61.2986 46.6282C61.2805 46.7293 61.2702 46.9245 61.1406 47.0332C61.0299 47.1277 60.965 47.2137 60.9095 47.2685C60.8572 47.3189 60.8767 47.4712 60.7867 47.5041C60.6766 47.5456 60.5924 47.4686 60.4571 47.4668C60.3118 47.4643 60.2006 47.548 60.1587 47.5048C60.1283 47.4735 60.0955 47.4216 60.0423 47.3851C59.9916 47.3502 59.9163 47.3755 59.9071 47.3152C59.8915 47.2211 59.7736 46.9719 59.6828 46.88C59.649 46.8456 59.7342 46.6668 59.6867 46.6079C59.6359 46.5475 59.6454 46.4543 59.6374 46.3951C59.6299 46.3332 59.6305 46.2815 59.6314 46.2167C59.6323 46.1575 59.5531 46.0626 59.5915 45.9871C59.6179 45.9371 59.6571 45.8208 59.7134 45.7935ZM58.3382 46.8623C58.307 46.7006 58.4932 46.7459 58.6635 46.6542C58.835 46.5626 58.7491 46.587 58.799 46.723C58.8487 46.8599 58.7478 46.7317 58.7031 46.9178C58.6595 47.1037 58.6595 47.0702 58.5391 47.1538C58.4194 47.2362 58.4366 47.1442 58.3792 47.0497C58.321 46.9552 58.3711 47.0239 58.3382 46.8623ZM56.3006 45.8372C56.2662 45.7577 56.475 45.4824 57.0258 44.7936C57.5153 44.1819 58.5323 43.7759 58.9498 43.6292C59.039 43.5972 59.3342 43.5112 59.4359 43.4897C59.5127 43.474 59.8219 43.4608 59.8945 43.436C60.0398 43.3873 60.2834 43.4048 60.3282 43.382C60.4342 43.3312 60.5462 43.3024 60.6693 43.276C60.8109 43.246 60.9914 43.3224 61.1193 43.2983C61.3677 43.2523 61.5632 43.3939 61.7022 43.4671C62.1826 43.7193 62.7069 44.6083 62.9045 45.1115C63.1022 45.6147 63.5086 47.0287 63.5797 48.1842C63.6256 48.9263 63.5977 50.8662 63.5692 51.1634C63.5176 51.6926 63.4961 52.9354 63.4592 53.173C63.4153 53.4598 63.382 53.9538 63.278 54.1306C63.0856 54.4573 62.3044 55.0402 62.1357 55.1938C61.9985 55.3201 61.4076 55.8343 61.339 55.8299C61.2537 55.8238 61.1545 55.649 60.9693 55.4688C60.6397 55.146 59.7807 54.8428 59.4179 54.6435C59.0619 54.4468 57.8947 54.3383 57.1816 54.2934C56.6728 54.2619 55.8932 54.1934 55.8679 54.1334C55.84 54.0663 55.7835 54.0895 55.7064 54.0884C55.6368 54.0879 55.6299 54.1732 55.6128 54.206C55.5859 54.2567 55.6464 54.2319 55.6196 54.3764C55.5916 54.5204 55.6604 54.4275 55.676 54.5468C55.6924 54.6664 55.7433 54.6155 55.6993 54.7253C55.6564 54.8353 55.8761 54.9144 55.9165 55.0337C55.9654 55.1753 55.963 55.3568 55.8113 55.3633C55.6465 55.3707 55.5025 55.4356 55.3269 55.3744C55.1993 55.33 54.7631 54.9347 54.741 54.6875C54.7213 54.4773 54.6926 53.9904 54.6754 53.8385C54.6442 53.5673 54.5424 52.8525 54.5137 52.4956C54.483 52.1383 54.449 52.2145 54.5183 52.0708C54.5879 51.9276 54.4099 51.906 54.4713 51.7144C54.5158 51.5779 54.459 51.3169 54.5378 51.1468C54.573 51.0704 54.4816 51.0704 54.4885 50.9929C54.499 50.8904 54.5082 50.8232 54.5346 50.722C54.5558 50.644 54.545 50.552 54.5386 50.4076C54.5317 50.2632 54.5326 50.2039 54.5942 50.1023C54.631 50.0396 54.5607 50.0083 54.5706 49.882C54.5762 49.8083 54.6646 49.1437 54.7009 48.89C54.7388 48.6372 54.7941 47.9621 54.841 47.8733C54.9714 47.6288 55.0459 47.0782 55.0993 46.8828C55.1558 46.6771 55.3361 46.4929 55.3779 46.3343C55.3959 46.2672 55.5058 46.2093 55.5491 46.2356C55.6076 46.2708 55.6318 46.4493 55.6311 46.5164C55.6295 46.6156 55.5639 47.0447 55.5215 47.1347C55.4683 47.2444 55.4122 47.6414 55.4043 47.7024C55.3879 47.8083 55.3839 47.9312 55.3747 48.0072C55.3646 48.0837 55.313 48.1852 55.2864 48.2692C55.2656 48.3389 55.3034 48.4795 55.2828 48.5492C55.2567 48.6423 55.2648 48.7024 55.2209 48.7776C55.1796 48.8504 55.2444 48.9221 55.2183 48.9817C55.1855 49.0548 55.2503 49.1264 55.1991 49.2101C55.1452 49.2976 55.2348 49.3173 55.2051 49.4309C55.169 49.5673 55.1755 49.6773 55.1411 49.744C55.1067 49.8116 55.2051 49.9008 55.1714 50.0252C55.1271 50.1945 55.1575 51.1552 55.1312 51.3489C55.1028 51.5432 55.1124 52.1544 55.1354 52.2656C55.1518 52.3419 55.1584 52.4948 55.2264 52.4864C55.3107 52.4772 55.3255 52.2024 55.4075 52.218C55.4591 52.2272 55.4255 52.3839 55.4387 52.4893C55.4624 52.6853 55.4467 52.5185 55.4935 52.8637C55.5247 53.0938 55.4856 53.4748 55.5182 53.5945C55.5502 53.7137 55.5326 53.8232 55.6598 53.8248C55.7698 53.8264 55.7286 53.7408 55.8153 53.6321C55.9011 53.522 55.9067 53.5061 55.977 53.5572C56.036 53.6006 56.4516 53.5968 56.5878 53.5736C56.7638 53.5421 56.8861 53.3967 57.0074 53.3067C57.1526 53.1984 57.7189 52.6619 58.0026 52.4192C58.131 52.3096 58.4846 51.8903 58.6221 51.756C58.8501 51.534 59.2025 51.1672 59.2573 51.102C59.3009 51.0516 59.319 50.9837 59.2688 50.8897C59.2393 50.8329 59.1933 50.8209 59.1335 50.8544C58.9867 50.9363 58.7993 51.1809 58.6531 51.2732C58.398 51.4337 58.0768 51.6511 57.8999 51.756C57.7038 51.8717 57.4212 52.0044 57.2423 52.104C57.0111 52.2336 56.7516 52.3172 56.7127 52.3356C56.6276 52.3776 56.5972 52.4025 56.518 52.3413C56.4508 52.2901 56.4713 52.3205 56.5376 52.104C56.5823 51.96 56.4681 51.8032 56.6293 51.596C56.7325 51.4616 56.8302 51.115 56.9941 50.9133C57.0524 50.8405 57.3688 50.4461 57.4336 50.3409C57.4861 50.2574 57.59 50.211 57.6055 50.1826C57.6581 50.0797 57.7228 49.9541 57.7532 49.9373C57.8604 49.8813 57.9681 49.7221 57.9843 49.7025C58.0203 49.662 58.0336 49.6357 58.012 49.5676C58.0032 49.5416 57.9489 49.4468 57.8844 49.5236C57.8164 49.6073 57.6891 49.6312 57.6375 49.6649C57.5417 49.7266 57.5671 49.8425 57.4735 49.8494C57.3359 49.8601 57.3487 49.6357 57.3663 49.5601C57.3882 49.4709 57.317 49.4485 57.3602 49.3553C57.4611 49.1422 57.4315 49.1189 57.4579 49.0773C57.4834 49.0347 57.507 49.0673 57.5602 49.0021C57.5947 48.9593 57.5282 48.9001 57.5702 48.8489C57.6577 48.7472 57.6826 48.6256 57.7694 48.5709C57.8634 48.5132 58.0273 48.2944 58.0445 48.2357C58.0662 48.1629 58.0733 48.0889 58.0984 48.0149C58.1076 47.9892 58.0108 47.976 57.9724 47.9289C57.9305 47.8773 57.9652 47.8436 57.9825 47.7504C57.9921 47.6999 57.8914 47.6384 57.8922 47.5713C57.893 47.4945 57.8841 47.4609 57.7913 47.4681C57.6977 47.4752 57.4938 47.6865 57.3306 47.7173C57.1594 47.7489 57.0249 47.628 57.1126 47.4601C57.2203 47.2504 57.4749 46.9469 57.5264 46.8868C57.603 46.8008 57.5884 46.7193 57.5806 46.634C57.5725 46.5468 57.4937 46.3533 57.4676 46.148C57.4527 46.0293 57.3232 45.5889 57.2968 45.5357C57.2804 45.5018 57.242 45.396 57.3413 45.3576C57.3842 45.3409 57.4685 45.4354 57.5264 45.5209C57.615 45.6502 57.7514 45.8889 57.7922 45.9745C57.8437 46.0805 57.893 46.1888 57.9161 46.2725C57.9322 46.333 57.9733 46.4434 58.0586 46.4533C58.1421 46.4621 58.1946 46.4545 58.2462 46.4042C58.3335 46.319 58.7859 46.1413 58.9798 46.0734C59.0734 46.0409 59.125 46.0242 59.225 46.0854C59.2821 46.1194 59.3505 46.3161 59.3841 46.333C59.4529 46.3693 59.4857 46.3601 59.4677 46.4109C59.456 46.4442 59.4677 46.4272 59.382 46.5288C59.2952 46.6291 59.3709 46.6644 59.2857 46.7999C59.1984 46.9341 59.128 47.1191 59.0929 47.2031C59.0592 47.2855 58.9812 47.3208 58.9216 47.3804C58.852 47.4476 58.8763 47.5408 58.8428 47.5575C58.7362 47.6091 58.7387 47.5927 58.7053 47.6663C58.6709 47.7415 58.6521 47.8599 58.7356 48.0146C58.7765 48.0911 58.8528 48.1086 58.8684 48.1687C58.8997 48.2827 58.9781 48.2804 59.0201 48.34C59.0913 48.4436 59.0781 48.4371 59.1193 48.5033C59.1952 48.6225 59.1856 48.5724 59.2797 48.6404C59.3381 48.683 59.3872 48.8204 59.4536 48.8892C59.564 49.0008 59.7059 49.0872 59.8068 49.2076C59.888 49.3041 59.8905 49.3528 59.8804 49.4377C59.8649 49.5807 59.8967 49.4973 59.8444 49.5979C59.806 49.6736 59.8421 49.7764 59.8412 49.8272C59.8405 49.9212 59.8397 49.9883 59.7796 50.0732C59.7184 50.1568 59.5468 50.3756 59.5116 50.46C59.4824 50.53 59.4585 50.6032 59.4929 50.6376C59.5388 50.6856 59.5764 50.7068 59.6364 50.6655C59.7452 50.5891 60.0676 50.0599 60.3436 49.7059C60.4911 49.5179 60.7942 49.0154 60.8639 48.8807C60.9347 48.7423 61.1488 48.4818 61.1918 48.4262C61.2174 48.3927 61.2935 48.3934 61.3099 48.453C61.3238 48.5058 61.3003 48.5635 61.3158 48.5982C61.3394 48.6438 61.4002 48.6159 61.4089 48.6919C61.4158 48.7687 61.4238 48.8026 61.3981 48.8441C61.3786 48.877 61.4457 48.8946 61.4058 48.9634C61.3705 49.023 61.4121 49.1419 61.3173 49.2511C61.1823 49.4067 60.8501 49.8473 60.7131 50.025C60.5239 50.269 59.9722 50.9238 59.8871 50.9997C59.8403 51.0394 59.7839 51.129 59.8083 51.1852C59.8495 51.2793 60.0074 51.5438 60.1002 51.6213C60.2198 51.7209 60.4698 51.8713 60.581 51.8736C60.7114 51.8752 60.7974 51.8368 60.845 51.8001C61.0502 51.6409 61.215 51.2952 61.2854 51.1261C61.3829 50.8914 61.5411 50.4077 61.5503 50.3325C61.5647 50.2133 61.5107 50.0848 61.5199 50.0425C61.5319 49.9905 61.605 50.0014 61.6215 50.053C61.6427 50.121 61.6616 50.2486 61.6771 50.3333C61.7042 50.4747 61.4895 51.1969 61.4519 51.4425C61.4059 51.7393 61.0475 52.2456 61.0167 52.3206C60.9986 52.3621 61.0066 52.4301 60.9214 52.437C60.8223 52.4466 60.7861 52.4185 60.7271 52.4017C60.5066 52.3392 60.3215 52.1842 60.1802 52.0549C60.0369 51.9261 59.7019 51.5145 59.6597 51.4457C59.6294 51.3945 59.5182 51.3173 59.4666 51.3597C59.3731 51.4352 59.2339 51.6441 59.165 51.6949C59.1123 51.7338 59.0091 51.7744 58.951 51.8362C58.865 51.9286 58.7622 52.0466 58.6597 52.1382C58.5829 52.2065 58.2558 52.4479 58.1959 52.5066C58.1019 52.5991 57.9894 52.7499 57.9207 52.8001C57.8519 52.8505 57.6216 52.9913 57.5527 53.0678C57.4757 53.1518 57.3667 53.3235 57.2771 53.3611C57.2175 53.3854 57.1403 53.4861 57.1985 53.5378C57.2575 53.5894 57.4542 53.5 57.5811 53.4756C57.6822 53.4563 57.8363 53.4528 57.9474 53.4459C58.0146 53.4403 58.0778 53.3691 58.2363 53.3215C58.3739 53.281 58.4659 53.3411 58.5255 53.3251C58.5996 53.3051 58.6451 53.2759 58.7646 53.2431C58.8976 53.2071 59.0788 53.2304 59.155 53.1976C59.2098 53.1731 59.2075 53.1559 59.3098 53.0888C59.3763 53.0452 59.4652 53.0856 59.5388 53.0664C59.6887 53.0272 59.8367 52.9807 59.9822 52.9272C60.1232 52.8756 60.5787 52.7649 60.6466 52.7573C60.7114 52.7501 60.8092 52.6068 60.9198 52.5656C61.0607 52.5132 61.3287 52.5614 61.4386 52.4953C61.5042 52.456 61.6541 52.5425 61.7245 52.6688C61.8165 52.8313 61.7128 52.9145 61.6876 53.0076C61.6197 53.2412 61.5558 53.346 61.4786 53.4297C61.4002 53.5132 61.3729 53.6657 61.2459 53.6993C61.0994 53.7353 61.023 53.7568 60.8638 53.6852C60.577 53.5539 60.4222 53.6797 60.2534 53.6441C60.0011 53.5897 59.9041 53.716 59.7854 53.7052C59.7262 53.7012 59.5353 53.6693 59.4801 53.7024C59.315 53.798 59.1822 53.7748 59.0713 53.8076C58.9785 53.8348 58.9434 53.9248 58.9934 53.968C59.081 54.0423 59.3729 54.1167 59.6113 54.1024C59.9925 54.0804 60.2722 54.1615 60.4253 54.1723C60.6535 54.1876 60.8138 54.3123 60.9246 54.3139C61.0496 54.315 61.102 54.3751 61.2287 54.4107C61.3131 54.4347 61.4146 54.4647 61.5082 54.4564C61.6107 54.4492 61.6879 54.5263 61.728 54.5098C61.8818 54.4527 61.8823 54.4663 61.9667 54.4451C62.0347 54.4295 62.173 54.2514 62.2666 54.1862C62.3872 54.1023 62.6362 53.8675 62.6878 53.7239C62.7417 53.5776 62.759 53.5131 62.8114 53.3262C62.8573 53.1695 62.7894 53.1571 62.8511 52.903C62.9058 52.6835 62.8502 52.3262 62.8943 52.1906C62.9215 52.1046 62.9131 52.0633 62.9388 51.987C62.9748 51.8843 62.9395 51.8078 62.9332 51.767C62.9256 51.7154 63.0036 51.6058 63.0036 51.5383C63.0044 51.4793 62.9379 51.427 62.9819 51.309C63.0363 51.1598 62.9935 51.003 63.0364 50.953C63.0797 50.9023 62.9881 50.817 63.014 50.7402C63.0537 50.6254 63.0568 50.1538 63.0319 49.909C63.0029 49.603 63.0487 49.1869 63.0599 49.0342C63.0651 48.9567 62.96 48.8978 62.9944 48.8302C63.042 48.7383 62.9895 48.5927 62.9739 48.4738C62.9528 48.315 62.9027 48.0232 62.8959 47.845C62.8848 47.5394 62.5994 45.7634 62.4176 45.3094C62.1631 44.6691 61.4823 43.9991 61.2043 43.877C60.9387 43.7598 60.5943 43.7758 60.3748 43.773C60.2044 43.7707 59.6003 43.8661 59.0639 44.0369C58.5872 44.1894 58.0779 44.4253 57.9117 44.5238C57.7153 44.6402 57.492 44.9094 57.3444 45.0598C57.1871 45.2241 57.146 45.419 57.102 45.507C56.9812 45.7523 57.1036 46.0591 57.1288 46.1438C57.1692 46.2885 57.1332 46.3905 57.074 46.4153C56.9412 46.4701 56.9977 46.4734 56.7505 46.5041C56.6699 46.5142 56.5215 46.4426 56.514 46.3829C56.4955 46.2355 56.3662 45.9899 56.3006 45.8372ZM93.8959 48.9274C93.7538 49.005 93.32 49.4887 93.2092 49.5382C93.102 49.5862 92.9478 49.4682 92.8538 49.4835C92.6061 49.5223 92.0168 49.6635 91.6021 49.7394C91.2544 49.803 90.6749 50.019 90.5201 50.0999C90.4093 50.1574 90.4052 50.2363 90.467 50.2942C90.6774 50.4919 90.8537 50.587 90.9545 50.7162C91.0225 50.8038 90.9185 50.8427 90.8913 50.9871C90.8577 51.1627 90.7436 51.9947 90.797 52.4458C90.8445 52.8394 91.0507 54.0245 91.1054 54.351C91.1521 54.6402 91.1939 55.0355 91.2307 55.1842C91.2827 55.3926 91.2071 55.7613 91.1298 55.8457C90.8455 56.1538 90.3986 56.6086 90.2791 56.6498C90.0991 56.7121 89.8626 56.7038 89.6946 56.5661C89.4759 56.3868 89.3947 56.0616 89.3291 55.8918C89.2162 55.5989 88.8946 55.3761 88.6662 55.2122C88.2661 54.9222 87.3858 54.4754 87.254 54.1598C87.2352 54.1151 87.2047 54.0227 87.2987 53.9901C87.475 53.9282 87.5595 54.1465 87.6776 54.2325C87.9 54.3962 88.0907 54.4413 88.2515 54.4938C88.5039 54.5774 88.9563 54.6889 89.0635 54.7245C89.3203 54.8098 89.4524 54.8489 89.6486 54.7833C89.7815 54.7386 90.0023 54.3206 90.0136 54.1417C90.0383 53.7097 89.9398 53.1988 89.9505 52.9868C89.9823 52.3769 89.9686 52.2628 90.0327 51.7997C90.0798 51.4604 89.9892 51.205 89.9999 51.0525C90.0127 50.8629 90.0143 50.5853 90.0663 50.4508C90.1095 50.3372 89.9703 50.3432 89.872 50.372C89.4031 50.5104 89.1843 50.728 88.779 50.9185C88.4971 51.0509 87.9931 51.3595 87.7874 51.4323C87.6447 51.4848 87.5298 51.684 87.4462 51.6064C87.3514 51.5188 87.2171 51.5444 87.135 51.3904C87.0141 51.166 87.2079 50.9587 87.3625 50.8671C87.566 50.7464 87.7522 50.8212 88.3765 50.5148C88.9996 50.2083 89.6749 49.8007 90.1781 49.6036C90.6702 49.4096 92.0109 49.0075 92.2069 48.966C92.4012 48.9236 92.8272 48.8852 92.8953 48.8552C93.1592 48.7396 93.3977 48.7429 93.4823 48.7272C93.5996 48.7045 93.77 48.7469 93.8724 48.7564C93.996 48.769 94.032 48.8529 93.8959 48.9274ZM88.5997 47.4624C88.7797 47.3708 88.8282 47.5836 88.8881 47.5845C89.0652 47.5864 89.2256 47.6068 89.4485 47.5329C89.6184 47.4745 90.6946 46.9361 91.06 46.8468C91.6864 46.6953 92.5599 46.4497 92.8647 46.4696C92.9675 46.4765 92.9747 46.5476 92.8715 46.6061C92.7569 46.6717 92.7248 46.8336 92.6304 46.9252C92.5692 46.9853 92.5944 47.1713 92.541 47.2381C92.4794 47.3204 92.3871 47.364 92.2771 47.3625C92.1059 47.3609 92.0895 47.3609 91.9805 47.3593C91.8544 47.3577 91.6028 47.5181 91.5109 47.54C91.4773 47.548 91.3905 47.4749 91.3085 47.4529C91.114 47.4001 90.3755 47.6936 90.0896 47.8194C89.7913 47.9521 89.2609 48.2133 88.9951 48.4942C88.892 48.603 88.7864 48.8062 88.6191 48.7102C88.4659 48.6234 88.4036 48.2742 88.363 48.1213C88.3274 47.9883 88.3454 47.5919 88.5997 47.4624ZM87.6413 43.2739C87.8021 43.3012 88.0989 44.0263 88.2653 44.351C88.3185 44.4567 88.3537 44.6255 88.3857 44.896C88.4013 45.0234 88.5169 45.2627 88.4872 45.5512C88.4733 45.6947 88.5152 45.954 88.4649 46.0763C88.4289 46.1611 88.2929 46.2438 88.2922 46.3635C88.2905 46.4339 88.179 46.591 88.1101 46.6578C88.0013 46.7623 87.9348 47.0395 87.8653 47.1306C87.7364 47.2981 87.4093 47.2926 87.1757 47.3591C87.0044 47.4086 86.7985 47.5169 86.6192 47.6413C86.4403 47.767 86.1176 47.8785 85.8938 48.0313C85.7225 48.1482 85.371 48.5005 85.2677 48.5841C85.1961 48.6412 85.0739 48.7381 85.1881 48.8377C85.3061 48.9413 85.6372 48.8853 86.0848 49.0863C86.3803 49.219 86.6404 49.3998 86.7903 49.6465C86.9152 49.8513 86.8535 50.0305 86.7168 50.1129C86.6068 50.1792 86.5319 50.3769 86.2961 50.5741C86.1764 50.6748 86.0895 50.9312 85.8988 51.0949C85.7528 51.2204 85.2247 51.7828 85.0232 51.9332C84.9125 52.0176 84.914 52.1563 85.0961 52.2228C85.2648 52.2845 85.7889 52.6541 85.9616 52.9044C86.1453 53.1692 86.2265 53.7408 86.2601 54.2065C86.282 54.5128 86.0716 54.9771 85.9833 55.2987C85.9396 55.4587 85.9077 55.5272 85.7006 55.49C85.6477 55.4806 85.5538 55.3555 85.4661 55.2659C85.3406 55.138 85.1654 55.0859 85.0791 54.9903C84.9782 54.8784 84.839 54.8148 84.7686 54.7065C84.685 54.5782 84.6947 53.99 84.7382 53.7297C84.7742 53.5092 84.8086 53.3541 84.8635 53.1876C84.9079 53.0528 84.9939 52.6088 84.8291 52.5759C84.7351 52.5587 84.3843 52.7495 84.1971 52.8404C83.9891 52.9416 83.7524 53.0807 83.6492 53.1988C83.5337 53.3296 83.4672 53.5103 83.4489 53.6464C83.431 53.7792 83.337 53.8711 83.2769 53.8391C83.1509 53.7699 83.0261 53.8291 82.9369 53.8519C82.8104 53.8843 82.7259 53.7679 82.5824 53.7114C82.3368 53.615 82.4492 53.6894 82.2361 53.5118C82.1025 53.3997 81.8032 52.961 81.9165 52.6515C81.9776 52.4818 81.9188 52.4043 82.0916 52.2455C82.5096 51.8575 82.6728 51.6416 83.0972 51.1799C83.3205 50.9367 83.6993 50.5418 83.9316 50.3499C84.0244 50.272 84.1111 50.1336 84.1815 49.9708C84.2252 49.8699 84.4704 49.6867 84.3135 49.5819C84.1447 49.4699 83.9276 49.4575 83.8048 49.5079C83.6859 49.5572 83.6079 49.42 83.4671 49.3425C83.3408 49.2728 83.2 49.3673 83.1032 49.2961C82.9853 49.2092 82.9268 49.1489 82.818 49.072C82.7157 48.9997 82.5253 48.8956 82.6179 48.704C82.6876 48.5608 82.63 48.3561 82.7844 48.2392C82.9824 48.0892 83.1187 47.938 83.2571 47.8209C83.5227 47.595 84.2548 46.7466 84.7455 46.1837C85.262 45.591 86.2126 44.1819 86.5821 43.8038C86.6601 43.7245 86.6265 43.5393 87.021 43.3341C87.2603 43.21 87.449 43.2412 87.6413 43.2739ZM76.1963 45.146C76.2274 45.29 76.1015 45.8245 75.9514 46.2808C75.8015 46.7363 75.767 46.8887 75.6334 47.3038C75.5742 47.4884 75.4545 47.403 75.3859 47.4794C75.3087 47.5629 75.4799 47.4122 75.1531 47.7306C74.9556 47.9234 74.5384 48.1811 74.4243 48.3074C74.3651 48.3746 74.2382 48.3394 74.2135 48.2118C74.1987 48.1279 74.1991 48.0499 74.1923 47.8803C74.1874 47.7363 74.3144 47.5582 74.3423 47.4835C74.3859 47.3646 74.4571 47.1278 74.4587 46.9751C74.4618 46.6863 74.7719 46.3003 75.0136 46.0146C75.2539 45.7291 76.1963 45.146 76.1963 45.146ZM74.6885 49.6691C74.8164 49.5763 74.8056 49.8232 74.9252 49.7991C75 49.7844 75.0628 49.6919 75.1136 49.6328C75.1565 49.5812 75.2213 49.5447 75.2653 49.7612C75.2892 49.8804 75.3112 49.9928 75.244 50.0752C75.1409 50.2003 74.5516 50.414 74.45 50.4555C74.3775 50.4846 74.3548 50.5158 74.3235 50.3691C74.2835 50.1824 74.5047 50.0828 74.5151 49.9984C74.5323 49.8432 74.5836 49.744 74.6885 49.6691ZM75.9634 52.282C76.0826 52.3003 76.3898 52.1263 76.5186 52.0263C76.6111 51.9527 76.6963 52.0616 76.6447 52.1544C76.5883 52.2539 76.385 52.4906 76.3424 52.6007C76.3165 52.6647 76.2472 52.7096 76.1963 52.6918C76.0826 52.6512 75.9723 52.6017 75.8662 52.544C75.7479 52.4763 75.8539 52.2648 75.9634 52.282ZM73.2284 52.4608C73.2688 52.3672 73.5064 52.6428 73.658 52.6787C73.8213 52.7167 74.0057 52.7935 74.2081 52.8466C74.4867 52.9191 74.7825 53.0828 74.9932 53.2296C75.1377 53.3299 75.3307 53.3691 75.4988 53.5411C75.561 53.605 75.5392 53.6938 75.4876 53.7527C75.4283 53.821 75.3924 53.9043 75.2807 53.9794C74.9908 54.1754 74.0252 54.6856 73.8965 54.7942C73.7324 54.9335 73.4204 54.8562 73.3187 54.7615C73.2301 54.6781 73.1361 54.5507 73.1112 54.3774C73.0722 54.1049 73.0543 53.5957 73.0737 53.3502C73.0923 53.1183 73.0972 52.7648 73.2284 52.4608ZM70.1292 52.6012C70.13 52.5415 70.4361 52.4012 70.6065 52.3184C70.7722 52.2384 70.9229 52.1693 71.0673 52.154C71.1402 52.146 71.222 52.2092 71.1934 52.3003C71.1494 52.4436 70.4878 53.0811 70.2558 53.3327C70.2065 53.3864 70.1122 53.1952 70.1065 53.0764C70.0993 52.94 70.1275 52.7303 70.1292 52.6012ZM69.6024 51.1856C69.6972 51.1748 69.736 51.3107 69.6589 51.4238C69.6073 51.4998 69.4636 51.5402 69.4292 51.4972C69.3728 51.4264 69.4229 51.3619 69.508 51.3023C69.5837 51.2515 69.5344 51.1936 69.6024 51.1856ZM70.3629 48.6823C70.5325 48.668 70.5376 48.7479 70.5488 48.7608C70.591 48.8132 70.683 49.0279 70.7489 49.1027C70.8074 49.1714 70.8532 49.2503 70.9501 49.2838C71.001 49.3005 71.0066 49.5306 70.9964 49.6327C70.986 49.7418 70.7182 49.787 70.5861 49.8897C70.5001 49.9574 70.4501 50.0106 70.3973 50.0834C70.3278 50.1753 70.3106 50.2261 70.2157 50.3098C70.1377 50.3794 70.2329 50.745 70.1744 50.9122C70.148 50.9881 70.2501 50.9809 70.3354 50.9822C70.3769 50.9829 70.3916 50.903 70.4466 50.8562C70.5158 50.7978 70.7042 50.663 70.7981 50.6066C70.8673 50.5642 70.7778 50.3334 70.8778 50.3098C70.9465 50.2937 70.951 50.5445 70.9934 50.6422C71.0261 50.719 71.1362 51.0041 71.1058 51.1189C71.0784 51.2206 71.0598 51.3333 71.0261 51.3988C70.991 51.4651 70.5809 51.6416 70.6221 51.8173C70.6465 51.9196 70.9501 51.776 71.1058 51.7893C71.2245 51.7997 71.451 51.7761 71.5565 51.7781C71.6573 51.7792 71.8541 51.9302 71.9673 52.131C72.026 52.2337 71.6081 52.5998 71.3891 52.8802C71.1736 53.1573 70.3336 53.8678 70.1621 54.0354C70.0736 54.1219 70.1317 54.4347 70.063 54.4761C69.9801 54.5261 69.9082 54.4769 69.8173 54.4981C69.7489 54.5147 69.631 54.561 69.5942 54.6403C69.5598 54.7162 69.5524 54.7762 69.6181 54.81C69.7016 54.8532 70.59 54.4059 71.0188 54.0215C71.468 53.618 72.0827 52.9983 72.3087 52.7119C72.4807 52.4941 72.4155 51.5683 72.6142 50.6623C72.7048 50.2458 72.9064 48.9008 73.0499 48.2656C73.215 47.54 73.7827 46.4133 73.8899 46.2467C73.9326 46.1804 73.8867 46.1143 73.9266 46.0524C73.9702 45.9852 73.9874 45.9341 74.1391 46.004C74.2007 46.0328 74.2988 46.1503 74.358 46.1264C74.4916 46.0696 74.2893 46.184 74.7704 45.7143C75.2515 45.2452 75.7135 45.0131 75.9703 44.8209C76.2267 44.6284 76.3991 44.4101 76.5275 44.3525C76.6327 44.3053 76.7326 44.3505 76.772 44.4581C76.8136 44.5684 76.8236 44.7305 76.7665 44.9329C76.7307 45.0601 76.6367 45.2382 76.5219 45.5068C76.4766 45.6132 76.3375 46.152 76.2392 46.446C76.1391 46.7387 76.0219 47.4396 75.9525 47.5628C75.8493 47.7475 75.9711 47.7928 75.898 47.9947C75.8737 48.06 75.7384 48.369 75.6532 48.5432C75.5656 48.7208 75.3127 49.2779 75.2611 49.3279C75.1965 49.392 75.2416 49.528 75.276 49.5828C75.3164 49.6508 75.55 49.7958 75.7096 50.1828C75.7588 50.3016 75.7432 50.4251 75.6455 50.5544C75.5768 50.6475 75.2982 50.7356 75.1416 50.8124C74.9368 50.9111 74.1164 51.3256 73.8425 51.552C73.7824 51.6015 73.6825 51.5888 73.7073 51.4993C73.7515 51.3384 73.6981 50.846 73.7598 50.6761C73.85 50.4264 73.8121 50.5244 74.0197 50.2381C74.1301 50.0853 74.3596 49.5293 74.6089 49.2526C74.6329 49.2258 74.6836 49.0833 74.6033 49.0315C74.5354 48.9881 74.4509 49.0774 74.3643 49.1047C74.3137 49.121 74.3032 49.2483 74.244 49.2735C74.1525 49.3112 74.0644 49.2167 73.9807 49.2871C73.9204 49.3376 73.8104 49.5799 73.7885 49.7434C73.7793 49.8111 73.6635 49.9001 73.6328 49.9451C73.5979 49.9959 73.6203 50.2163 73.6016 50.3694C73.5792 50.5541 73.4047 51.0259 73.362 51.2234C73.3351 51.3507 73.2829 51.6339 73.2963 51.7993C73.3032 51.8938 73.3456 51.9592 73.4126 51.9454C73.4899 51.9293 73.5431 51.7986 73.6188 51.7875C73.7128 51.7711 74.0172 51.7666 74.1522 51.8018C74.2155 51.8181 74.3308 51.8973 74.5344 51.857C74.6507 51.8346 74.8307 51.785 74.9679 51.7866C75.1038 51.7877 75.7656 51.7873 76.0462 51.7906C76.1479 51.7922 76.7204 51.5102 76.8992 51.4282C77.0471 51.3601 77.403 51.0258 77.6456 50.7746C77.7835 50.633 78.1071 50.535 78.2759 50.6133C78.3619 50.6534 78.3086 50.9053 78.1775 51.0025C78.075 51.0778 77.8275 51.21 77.7072 51.2937C77.5149 51.4278 77.2071 51.8089 77.0611 52.0577C76.9923 52.1765 76.767 52.4957 76.6547 52.698C76.6323 52.7374 76.6314 52.8377 76.7203 52.928C76.8029 53.014 77.5055 53.2009 77.835 53.3149C77.8648 53.3253 77.911 53.3841 77.979 53.3593C78.025 53.3425 78.0897 53.3189 78.097 53.4374C78.0998 53.4942 78.561 53.5073 78.6132 53.5462C78.7906 53.675 79.4668 53.8266 79.6863 53.9666C79.77 54.0182 79.7961 54.0399 79.8709 54.1294C79.9208 54.19 80.0484 54.1866 80.0312 54.2755C80.0124 54.3695 78.7092 54.6918 78.2437 54.6694C77.8428 54.6511 77.4297 54.6011 77.0485 54.4687C76.711 54.3519 76.0633 53.8618 75.97 53.861C75.8168 53.8594 75.8333 53.8938 75.7304 53.9939C75.7021 54.0218 75.6488 54.1162 75.5749 54.1874C75.4896 54.2711 75.1889 54.5658 75.1281 54.6487C75.0413 54.7667 74.8373 54.8127 74.7092 54.9151C74.6147 54.991 74.434 55.1922 74.3225 55.2666C74.1176 55.4047 73.8609 55.5755 73.7077 55.6415C73.5513 55.7083 73.2766 55.6076 73.0462 55.5739C72.7914 55.5374 72.4806 55.2706 72.3651 55.0387C72.2954 54.9027 72.2986 54.5615 72.2626 54.3588C72.239 54.2228 72.347 53.8044 72.261 53.7489C72.1438 53.6707 72.0813 53.7596 72.0234 53.8216C71.9291 53.9219 71.8155 54.1164 71.5162 54.3248C71.3834 54.4164 71.3827 54.4807 71.2324 54.6268C71.1204 54.736 70.8594 54.8912 70.6759 55.0439C70.4954 55.1944 70.1704 55.286 69.9595 55.324C69.8824 55.3376 69.6704 55.4691 69.5491 55.5223C69.4383 55.5727 69.0851 55.6955 68.8672 55.7603C68.7307 55.801 68.6663 55.504 68.6351 55.2994C68.6038 55.0947 68.6827 54.8838 68.8032 54.8179C69.0024 54.7062 69.318 54.3398 69.4899 54.1551C69.5335 54.108 69.4446 53.9971 69.3644 54.0015C69.0844 54.0147 68.9071 53.8938 68.9071 53.8938C69.1121 53.8618 69.4588 53.8512 69.5809 53.6982C69.6 53.6743 69.6579 53.6227 69.6579 53.5542C69.6596 53.4546 69.6275 53.4306 69.6188 53.3675C69.6103 53.319 69.676 53.2355 69.654 53.1891C69.6299 53.1383 69.5818 53.0178 69.4949 53.0695C69.3164 53.1743 69.0096 53.4799 68.9276 53.6392C68.876 53.7403 68.8652 53.8503 68.8652 53.8503C68.8136 53.9012 68.7212 53.8571 68.7212 53.8571C68.5582 54.0251 68.2992 54.3103 68.1712 54.4193C68.0753 54.5009 67.9448 54.5597 67.8384 54.5083C67.7128 54.448 67.6284 54.1837 67.572 54.098C67.5221 54.0212 67.5917 53.9117 67.6689 53.8613C67.7844 53.787 68.0867 53.6293 68.1727 53.5533C68.2672 53.4709 68.6712 53.0677 68.7657 52.9933C68.9165 52.8717 69.126 52.7358 69.2456 52.608C69.3316 52.5156 69.2252 52.4028 69.163 52.4545C69.1114 52.4958 69.0352 52.4778 69.0016 52.4018C68.9196 52.2092 68.7474 51.7361 68.7494 51.558C68.75 51.4476 68.7517 51.3863 68.7949 51.2872C68.926 50.9832 69.3604 50.4147 69.495 50.3108C69.6229 50.2103 69.5466 50.1151 69.5075 50.0394C69.4566 49.9451 69.2057 49.6363 69.2158 49.5258C69.2309 49.3627 69.4739 49.2163 69.7145 49.0487C69.9532 48.8808 70.194 48.6968 70.3629 48.6823ZM71.1752 46.1373C71.2359 46.0109 71.6523 45.982 71.8392 46.0185C72.0072 46.0517 72.2095 46.3833 72.2737 46.5413C72.3152 46.644 72.3861 46.8601 72.354 46.9413C72.3104 47.0514 72.1343 47.0509 71.9619 47.098C71.9008 47.1141 71.7408 47.1717 71.6292 47.2296C71.4836 47.3039 71.3064 47.4601 71.243 47.5215C71.1742 47.5883 71.0596 47.6191 71.0039 47.604C70.9704 47.5948 70.9719 47.4979 71.0323 47.4343C71.1437 47.3163 71.2834 46.9874 71.2515 46.8599C71.2343 46.7942 71.1678 46.7654 71.1619 46.5615C71.1588 46.4593 71.1246 46.2436 71.1752 46.1373ZM71.1179 43.8533C71.186 43.8366 71.2329 43.953 71.3376 44.0001C71.4136 44.0353 71.4465 44.1041 71.5228 44.1045C71.6276 44.1061 71.6308 44.268 71.6902 44.3194C71.74 44.362 71.8073 44.5233 71.8653 44.5757C71.9317 44.6358 71.9573 44.7133 72.0237 44.7644C72.0966 44.8206 72.1181 45.0117 72.0286 45.121C71.9598 45.2045 71.8493 45.319 71.7025 45.3629C71.5657 45.4033 71.2665 45.4145 71.0989 45.5173C70.9613 45.6006 70.7073 45.8017 70.5657 45.9521C70.2992 46.2373 69.9966 46.7345 69.7542 47.156C69.5885 47.4417 68.9729 48.4956 68.7901 48.9092C68.7138 49.082 68.3214 49.9208 68.1802 50.2256C67.9967 50.6224 67.5489 51.4872 67.4573 51.7193C67.3337 52.032 67.4057 52.2952 67.3214 52.4141C67.2443 52.5232 67.0902 52.5132 66.9991 52.444C66.9059 52.3747 66.759 52.2355 66.7223 52.0928C66.6911 51.9649 66.7574 51.6672 66.7983 51.5165C66.8239 51.4149 66.8795 51.3461 66.9615 51.3061C67.0124 51.2813 67.0994 51.3049 67.1739 51.2748C67.2311 51.2516 67.4762 50.846 67.5983 50.6176C67.7592 50.3163 68.1856 49.4137 68.2862 49.2004C68.3468 49.07 68.5927 48.5173 68.7731 48.1796C68.8863 47.9688 69.4395 46.4475 69.7075 46.0764C69.7691 45.9917 70.0541 45.388 70.2287 45.1161C70.3845 44.8716 71.0145 43.8773 71.1179 43.8533ZM47.1156 53.7314C47.1656 53.7314 47.1992 53.7738 47.2153 53.8591C47.2376 53.9774 47.2228 53.977 47.2376 54.0782C47.2539 54.1793 47.2153 54.205 47.2353 54.2886C47.2596 54.3901 47.2493 54.4464 47.2572 54.5502C47.2728 54.7279 47.2784 54.8873 47.244 54.997C47.208 55.1057 47.2501 55.1401 47.2493 55.2498C47.2474 55.3504 47.1886 55.5092 47.1769 55.6614C47.1664 55.7877 47.2908 55.917 47.2892 56.0678C47.2885 56.1604 47.2473 56.1598 47.1621 56.1509C47.0697 56.1408 46.9604 56.0805 46.9276 56.0044C46.8948 55.928 46.7963 55.6741 46.7981 55.5817C46.7992 55.4805 46.8284 55.2956 46.8448 55.1776C46.8635 55.0512 46.8322 54.9003 46.8329 54.7806C46.8352 54.6377 47.0049 54.4876 47.0072 54.3444C47.0088 54.2015 46.9752 54.1848 46.9776 54.0073C46.9801 53.8305 47.0481 53.7302 47.1156 53.7314ZM48.5024 47.1823C48.4956 47.0883 48.8317 46.8819 48.9966 46.7747C49.1488 46.6755 49.2664 46.5372 49.3965 46.4674C49.5829 46.3692 49.7518 46.4 49.8604 46.4059C50.0293 46.4163 50.2339 46.3263 50.3245 46.4367C50.4065 46.5394 50.3826 46.6231 50.354 46.7411C50.3317 46.8335 49.8465 47.5947 49.6145 47.869C49.3738 48.1579 48.7768 48.8424 48.718 48.8783C48.6494 48.9198 48.595 48.8191 48.5778 48.6747C48.5614 48.5477 48.5442 48.441 48.572 48.3794C48.6064 48.3039 48.5646 48.2554 48.5493 48.1863C48.5337 48.1094 48.4574 47.8303 48.472 47.6202C48.4817 47.468 48.5137 47.3164 48.5024 47.1823ZM44.4862 49.6108C44.5082 49.5592 44.7325 49.4451 44.8338 49.3628C44.9051 49.3044 45.0811 49.1884 45.1491 49.1304C45.3451 48.9628 45.3197 48.9948 45.4982 48.8731C45.5827 48.8151 45.7011 48.774 45.7165 48.9512C45.7337 49.1623 45.709 49.5412 45.7157 49.6764C45.7221 49.8112 45.6877 49.8443 45.6785 49.9539C45.6706 50.0476 45.7105 50.098 45.7182 50.1568C45.7269 50.2159 45.7057 50.2327 45.691 50.3414C45.6818 50.4091 45.7309 50.5111 45.6706 50.6278C45.6105 50.7458 45.2861 51.0026 45.1845 51.0354C45.083 51.0677 45.1533 50.8834 44.9862 50.7633C44.8181 50.643 44.7786 50.4737 44.7041 50.355C44.613 50.2073 44.6395 50.1354 44.5319 50.0065C44.423 49.8803 44.4254 49.7531 44.4862 49.6108ZM42.3629 47.5722C42.4665 47.5398 42.6697 47.9353 42.868 48.1495C43.0673 48.3629 43.3648 48.6327 43.4261 48.6869C43.4925 48.747 43.6501 48.985 43.7098 48.9862C43.741 48.9862 43.9329 48.8211 44.0918 48.7122C44.2621 48.5966 44.6474 48.3338 44.7646 48.2562C44.8591 48.1937 45.1526 47.9801 45.333 47.8417C45.5146 47.7037 45.9076 47.4482 45.9208 47.4113C45.9286 47.3893 45.9131 47.3017 45.9747 47.1338C46.0123 47.0311 45.9303 46.9853 45.9263 46.9638C45.9182 46.9221 45.9698 46.7966 45.9795 46.7293C45.9983 46.6038 45.9674 46.3445 45.9846 46.291C46.028 46.1565 46.0434 45.8757 46.0494 45.7942C46.069 45.5638 46.0418 45.4651 46.0713 45.373C46.1705 45.0662 46.1802 44.8183 46.1573 44.5903C46.1387 44.3978 46.0934 44.3795 46.1466 44.0847C46.1957 43.8189 46.4378 43.5351 46.5474 43.4076C46.6198 43.3231 46.8393 43.3091 47.005 43.4714C47.0674 43.5327 47.2147 43.6003 47.3558 43.7459C47.4934 43.8854 47.7494 44.2022 47.8386 44.2823C47.9802 44.4111 48.2536 44.76 48.4287 44.9807C48.5615 45.1494 48.633 45.455 48.6491 45.5654C48.6723 45.7313 48.6363 45.9526 48.7495 45.9741C48.9116 46.0058 49.2287 45.7324 49.7355 45.6369C50.0716 45.5741 50.6208 45.5893 50.9832 45.5934C51.1437 45.5958 51.456 45.5805 51.4819 45.6561C51.5295 45.7932 51.4468 46.2104 51.2396 46.6753C51.0576 47.0861 50.9575 47.1649 50.7505 47.4277C50.5796 47.6457 50.5544 47.7821 50.2436 48.1888C49.9436 48.5817 49.3468 49.1556 49.4632 49.2668C49.5633 49.3616 49.8592 49.2204 49.9085 49.4407C49.9485 49.6185 49.7529 49.7336 49.6832 49.9097C49.5864 50.1548 49.6446 50.3316 49.424 50.4375C49.2215 50.5355 49.1028 50.5015 48.9756 50.5847C48.8223 50.6834 48.8804 50.9375 48.7832 51.1215C48.6108 51.4479 48.6996 51.7603 48.5945 52.0242C48.4356 52.421 48.474 52.2659 48.3436 52.679C48.3158 52.7679 48.2522 53.2218 48.216 53.3815C48.1857 53.517 48.0819 53.6258 48.0788 53.6746C48.066 53.8138 47.9976 54.1733 48.0036 54.2135C48.0115 54.2646 47.9169 54.3314 47.9255 54.4232C47.9331 54.5074 47.8429 54.7202 47.827 54.8687C47.7655 55.4535 47.8176 55.5312 47.8402 55.8556C47.863 56.1803 47.8018 56.2512 47.7667 56.3375C47.7362 56.4156 47.6139 56.4343 47.5294 56.4588C47.437 56.4847 47.4434 56.5838 47.3854 56.6028C47.3166 56.626 47.2197 56.5532 47.1868 56.6095C47.1213 56.7231 47.0518 56.8659 46.9673 56.8732C46.8801 56.8811 46.8501 56.8292 46.8253 56.6952C46.8196 56.6596 46.7344 56.6508 46.7187 56.5759C46.6941 56.4565 46.6674 56.5297 46.5605 56.3325C46.4705 56.1677 46.5473 56.1096 46.5368 55.962C46.5299 55.8477 46.3776 55.7445 46.4164 55.5653C46.4368 55.469 46.4111 55.2737 46.3908 55.1129C46.3679 54.9269 46.361 54.7974 46.361 54.7501C46.3629 54.6642 46.3343 54.7478 46.3564 54.4801C46.3759 54.2445 46.3023 54.0502 46.3031 53.9826C46.3039 53.8977 46.271 53.8386 46.204 53.8374C46.1498 53.837 46.122 53.8673 46.0939 54.0023C46.0644 54.1371 46.0612 54.4067 46.0776 54.569C46.0933 54.7215 46.1877 55.1445 46.1948 55.2795C46.204 55.459 46.1853 55.3723 46.19 55.6162C46.1925 55.7354 46.2489 56.0313 46.2909 56.1939C46.3344 56.3564 46.4284 56.3495 46.4588 56.4628C46.4909 56.5807 46.5236 56.6831 46.5654 56.7507C46.6182 56.8379 46.8245 56.888 46.799 56.9387C46.7665 57.0007 46.6786 57.1227 46.6105 57.1303C46.4746 57.1452 46.2261 56.8647 46.177 56.7416C46.0885 56.5215 46.0285 55.7327 45.9825 55.4458C45.9025 54.9619 45.8196 54.7495 45.7614 54.2123C45.7009 53.6544 45.5665 52.2 45.5705 51.8916C45.5728 51.6892 45.4394 51.62 45.3656 51.6164C45.2768 51.6115 45.1639 51.706 45.1566 51.8024C45.149 51.92 45.1761 52.1977 45.0518 52.2477C44.9503 52.2885 44.2287 52.0857 43.6675 51.7164C42.7503 51.1116 42.4247 49.6101 42.273 49.3224C42.0666 48.9329 42.0613 48.1209 42.1033 47.9637C42.1473 47.8022 42.209 47.619 42.3629 47.5722Z" fill="#231F20"/>
</svg>
