<svg width="109" height="108" viewBox="0 0 109 108" fill="none" xmlns="http://www.w3.org/2000/svg">
<g clip-path="url(#clip0_801_8356)">
<path d="M54.5001 26.8433C39.5034 26.8433 27.3434 39.0033 27.3434 54C27.3434 68.9967 39.5034 81.1567 54.5001 81.1567C69.4967 81.1567 81.6567 68.9967 81.6567 54C81.6567 39.0033 69.4967 26.8433 54.5001 26.8433Z" fill="white"/>
<path d="M35.6666 73.42C36.2633 72.97 36.7933 72.44 37.3633 71.9567C37.4666 71.8733 37.5633 71.7833 37.6833 71.68C37.74 71.8567 37.7866 72 37.83 72.1467C38.1133 73.0767 38.71 73.7233 39.6266 74.0767C40.0033 74.2233 40.38 74.37 40.7666 74.4967C42.3966 75.0233 43.62 76.0367 44.45 77.52C44.53 77.6633 44.5933 77.7267 44.78 77.6733C46.49 77.1967 48.14 77.4 49.7366 78.1467C50.2533 78.3867 50.77 78.6267 51.3166 78.8067C52.1366 79.0833 52.8966 78.9667 53.6 78.47C53.7433 78.37 53.8833 78.2633 54.08 78.12C54.0933 79.1133 54.11 80.0633 54.1233 81.01C54.12 81.1667 54.0866 81.2567 53.8866 81.2433C52.91 81.19 51.9366 81.15 50.9633 81.03C48.8866 80.7767 46.8766 80.28 44.9266 79.5333C41.89 78.3767 39.17 76.6967 36.7066 74.6033C36.3666 74.3167 36.0366 74.0133 35.6966 73.7267C35.5766 73.6267 35.5566 73.5333 35.6666 73.42Z" fill="black"/>
<path d="M34.9533 35.2266C35.57 35.8966 36.1867 36.5666 36.83 37.2666C36.6733 37.32 36.5433 37.3666 36.4133 37.4033C35.42 37.69 34.7533 38.32 34.3933 39.2733C34.2433 39.6666 34.0967 40.0633 33.9633 40.4633C33.4467 42.0166 32.4567 43.18 31.0333 43.9866C30.8367 44.0966 30.7867 44.1933 30.85 44.4166C31.32 46.0666 31.1267 47.6633 30.4167 49.2133C30.2133 49.6533 30.02 50.0966 29.8367 50.5433C29.4267 51.54 29.55 52.4633 30.2533 53.2933C30.3133 53.3633 30.37 53.4366 30.4667 53.56C29.41 53.58 28.3967 53.6 27.3867 53.6166C27.2667 53.55 27.31 53.4366 27.31 53.34C27.36 49.0333 28.39 44.98 30.4933 41.2C31.0233 40.25 31.6133 39.34 32.2333 38.45C32.65 37.85 33.0867 37.27 33.55 36.7066C33.9233 36.26 34.3067 35.82 34.7067 35.3966C34.7767 35.3233 34.83 35.2233 34.9533 35.2266Z" fill="black"/>
<path d="M27.3933 54.55C28.3167 54.6033 29.24 54.6567 30.1967 54.71C30.1167 54.8633 30.05 55 29.98 55.1333C29.52 55.9867 29.4767 56.8633 29.87 57.7533C30.0467 58.1467 30.2267 58.5433 30.4233 58.93C31.18 60.4167 31.31 61.9633 30.86 63.5567C30.8067 63.7367 30.8233 63.83 31 63.9267C32.5233 64.7633 33.5367 66.03 34.14 67.6367C34.28 68.0133 34.44 68.3833 34.5767 68.76C35.0267 69.99 35.8867 70.6633 37.2867 70.6833C36.5633 71.4333 35.88 72.1433 35.1933 72.85C35.0267 72.9867 34.9533 72.83 34.87 72.7433C33.48 71.32 32.2533 69.7733 31.2167 68.08C29.42 65.14 28.2967 61.9633 27.7333 58.5767C27.5233 57.3133 27.42 56.0433 27.3233 54.77C27.3167 54.6867 27.3033 54.6 27.3933 54.55Z" fill="black"/>
<path d="M81.7767 53.5766C80.8433 53.5266 79.91 53.4733 78.9433 53.42C79.0367 53.2466 79.1167 53.1033 79.19 52.96C79.6267 52.12 79.67 51.2633 79.2867 50.3933C79.1033 49.9766 78.9133 49.5666 78.71 49.16C77.9767 47.6833 77.8533 46.1566 78.3033 44.58C78.35 44.4133 78.3567 44.3066 78.1733 44.2066C76.6267 43.3566 75.61 42.0633 75.01 40.4333C74.8567 40.0166 74.6833 39.6066 74.52 39.1966C74.12 38.17 73.3833 37.5666 72.2633 37.4533C72.16 37.4433 72.06 37.4266 71.9567 37.4133C71.9433 37.3066 72.0333 37.27 72.0867 37.2166C72.7 36.5966 73.3233 35.9833 73.93 35.3566C74.07 35.2166 74.14 35.2066 74.2833 35.3566C75.46 36.5633 76.5167 37.8666 77.4533 39.2633C77.5067 39.34 77.52 39.4566 77.6433 39.4766L77.6367 39.47C77.6833 39.69 77.8367 39.8533 77.9567 40.0333L77.9533 40.0266C78.0167 40.1333 78.08 40.24 78.1467 40.3433L78.14 40.3366C78.15 40.3733 78.15 40.4166 78.21 40.4066L78.2033 40.3966C78.1933 40.4566 78.2033 40.51 78.2667 40.5366C78.7 41.2166 79.0333 41.95 79.3733 42.67C79.8467 43.68 80.2133 44.7333 80.5467 45.7966C80.5767 45.89 80.6867 45.9566 80.6433 46.0733C80.5767 46.1766 80.67 46.23 80.7167 46.2966L80.71 46.29C80.7367 46.4166 80.7467 46.55 80.7933 46.6733C80.93 47.05 80.9333 47.4633 81.1333 47.82C81.13 48.2133 81.2233 48.6033 81.3267 48.9733C81.41 49.2633 81.3933 49.5466 81.4367 49.83C81.6133 51.0733 81.7833 52.3166 81.7767 53.5766Z" fill="black"/>
<path d="M73.9933 72.6733C73.42 72.0333 72.85 71.3967 72.2533 70.7333C72.3733 70.6933 72.4666 70.66 72.56 70.6333C73.5966 70.3467 74.3133 69.7167 74.6766 68.7067C74.8166 68.3067 74.97 67.9133 75.1033 67.5133C75.6133 65.9833 76.5866 64.8267 77.9866 64.03C78.2266 63.8933 78.2566 63.77 78.1866 63.52C77.72 61.87 77.9333 60.2767 78.6433 58.73C78.8733 58.2333 79.0866 57.73 79.2766 57.2167C79.5866 56.3667 79.4433 55.5733 78.8933 54.85C78.8 54.73 78.7033 54.6067 78.5666 54.4333C79.6166 54.41 80.62 54.39 81.62 54.37C81.7233 54.4333 81.6933 54.5333 81.6966 54.6233C81.72 56.1433 81.57 57.65 81.2966 59.1433C80.83 61.7067 79.9733 64.1433 78.7533 66.45C77.6533 68.5267 76.3066 70.43 74.75 72.1967C74.6133 72.35 74.4666 72.4967 74.3433 72.6633C74.22 72.83 74.1133 72.7933 73.9933 72.6733Z" fill="black"/>
<path d="M54.99 29.96C54.99 28.9433 54.9934 27.9833 54.9867 27.0267C54.9867 26.8333 55.0934 26.8433 55.23 26.8466C58.5134 26.9266 61.68 27.5533 64.7167 28.8066C67.9567 30.15 70.8034 32.08 73.3667 34.44C73.45 34.5166 73.5567 34.5666 73.4067 34.6966C72.7434 35.2633 72.0867 35.84 71.43 36.41C71.4167 36.4233 71.39 36.4166 71.33 36.4266C71.0934 34.9 70.03 34.18 68.6467 33.7533C67.69 33.46 66.7834 33.0467 66.0267 32.36C65.4567 31.8467 65 31.25 64.6267 30.5866C64.55 30.45 64.48 30.39 64.3134 30.4367C62.5767 30.92 60.9134 30.6933 59.3 29.93C58.7567 29.67 58.2134 29.4133 57.6334 29.24C56.8934 29.02 56.21 29.1367 55.5734 29.55C55.3934 29.6667 55.22 29.8 54.99 29.96Z" fill="black"/>
<path d="M37.6133 36.8C36.8933 36.1166 36.1767 35.44 35.46 34.7666C35.3067 34.6233 35.47 34.57 35.5333 34.5066C36.2467 33.79 37 33.12 37.79 32.4933C41.3733 29.6533 45.4567 27.92 49.97 27.1567C51.1533 26.9533 52.3433 26.82 53.54 26.74C53.7467 26.7267 53.8033 26.7766 53.7933 26.9833C53.7533 27.77 53.73 28.5533 53.7067 29.34C53.7033 29.5333 53.6633 29.5766 53.4833 29.47C52.43 28.8533 51.3733 28.8766 50.2967 29.4233C49.52 29.82 48.7467 30.2333 47.8867 30.4333C46.8267 30.6833 45.7733 30.61 44.73 30.35C44.57 30.31 44.4967 30.3233 44.4167 30.4733C43.5767 32.03 42.2867 33.0666 40.64 33.6933C40.1433 33.8833 39.6533 34.0866 39.1733 34.31C38.26 34.7266 37.7767 35.45 37.6933 36.44C37.6833 36.5333 37.67 36.6233 37.6567 36.7166C37.6533 36.7366 37.6367 36.7533 37.6133 36.8Z" fill="black"/>
<path d="M73.47 73.22C72.7533 72.5566 72.0333 71.89 71.2933 71.2033C71.2866 71.29 71.28 71.34 71.2766 71.39C71.2066 72.5866 70.61 73.4 69.4866 73.84C69.0633 74.0066 68.64 74.1866 68.2133 74.35C66.6666 74.9466 65.4266 75.91 64.61 77.36C64.4566 77.63 64.33 77.6966 64.0166 77.6166C62.5666 77.2433 61.1466 77.35 59.7833 78C59.3166 78.2233 58.85 78.45 58.38 78.6666C57.4366 79.1033 56.5066 79.0766 55.5866 78.5866C55.4833 78.5333 55.39 78.4366 55.23 78.4433C55.1933 79.27 55.1533 80.0933 55.1133 80.9166C55.07 81.2 55.2033 81.26 55.4666 81.2433C56.56 81.1666 57.6433 81.0433 58.7233 80.8733C62.0533 80.35 65.19 79.29 68.1033 77.6C70.04 76.4766 71.7966 75.1233 73.38 73.55C73.4733 73.46 73.61 73.3766 73.47 73.22Z" fill="black"/>
<path d="M54.5 14C32.4433 14 14.5 31.9433 14.5 54C14.5 76.0567 32.4433 94 54.5 94C76.5567 94 94.5 76.0567 94.5 54C94.5 31.9433 76.5567 14 54.5 14ZM54.5 92.52C33.2267 92.52 15.98 75.2733 15.98 54C15.98 32.7267 33.2267 15.48 54.5 15.48C75.7733 15.48 93.02 32.7267 93.02 54C93.02 75.2733 75.7733 92.52 54.5 92.52Z" fill="black"/>
<path d="M54.5 15.48C33.2266 15.48 15.98 32.7266 15.98 54C15.98 75.2733 33.2266 92.52 54.5 92.52C75.7733 92.52 93.02 75.2733 93.02 54C93.02 32.7266 75.7733 15.48 54.5 15.48ZM54.5 81.1566C39.5033 81.1566 27.3433 68.9966 27.3433 54C27.3433 39.0033 39.5033 26.8433 54.5 26.8433C69.4966 26.8433 81.6566 39.0033 81.6566 54C81.6566 68.9966 69.4966 81.1566 54.5 81.1566Z" fill="#019966"/>
<path d="M84.83 52.5567C85.3866 52.59 85.8766 52.7733 86.3833 52.89C86.48 52.91 86.6033 52.9967 86.66 52.8767C86.73 52.7233 86.5566 52.6933 86.47 52.6433C86.0766 52.43 85.6933 52.1967 85.3233 51.9434C85.0966 51.7867 84.91 51.5967 84.8266 51.32C84.77 51.1367 84.82 50.9833 84.9466 50.8667C85.0666 50.7567 85.2133 50.72 85.3833 50.7833C85.8 50.9433 86.01 51.31 86.2433 51.6533C86.41 51.9033 86.55 52.1733 86.7066 52.43C86.7566 52.5133 86.7866 52.66 86.9233 52.6C87.05 52.5467 86.95 52.4367 86.9333 52.3533C86.8233 51.7967 86.6 51.2567 86.6133 50.6767C86.6166 50.47 86.6566 50.2833 86.8166 50.14C87.06 49.92 87.33 49.96 87.4866 50.25C87.6233 50.5 87.6433 50.7667 87.58 51.04C87.4833 51.4734 87.3766 51.91 87.2733 52.3433C87.2566 52.42 87.19 52.5133 87.3066 52.5567C87.41 52.59 87.45 52.4934 87.4866 52.42C87.64 52.1234 87.7933 51.83 87.9433 51.53C88.08 51.2567 88.27 51.0233 88.5 50.8233C88.6966 50.65 89.05 50.61 89.19 50.76C89.3733 50.9567 89.3366 51.1833 89.2266 51.4C89.06 51.72 88.77 51.91 88.49 52.11C88.2266 52.2934 87.95 52.46 87.6833 52.6433C87.62 52.6867 87.5266 52.74 87.57 52.84C87.6166 52.9533 87.71 52.93 87.8066 52.9033C88.18 52.8 88.5533 52.7133 88.9233 52.6067C89.16 52.54 89.4 52.5467 89.6366 52.5567C89.9233 52.5733 90.1766 52.7933 90.1866 53.02C90.2 53.2367 89.99 53.4433 89.6933 53.4967C89.1433 53.6 88.63 53.3967 88.1033 53.29C87.99 53.27 87.8833 53.23 87.7733 53.2C87.6933 53.1767 87.6333 53.1867 87.5933 53.27C87.5466 53.37 87.62 53.3967 87.6833 53.4367C88.0066 53.6433 88.33 53.85 88.66 54.0534C88.8566 54.1767 89.0166 54.3433 89.17 54.51C89.4033 54.76 89.42 55.08 89.24 55.2767C89.09 55.4367 88.74 55.4167 88.5 55.2033C88.2233 54.96 88.0333 54.6467 87.85 54.33C87.7333 54.12 87.6166 53.91 87.4966 53.7033C87.46 53.6367 87.4333 53.53 87.32 53.5833C87.2133 53.63 87.2666 53.72 87.2833 53.8C87.39 54.3367 87.5733 54.8633 87.55 55.4267C87.5433 55.5867 87.5166 55.7367 87.41 55.86C87.3 55.9867 87.1766 56.1433 87 56.1067C86.81 56.07 86.69 55.9067 86.6166 55.7233C86.4933 55.4133 86.58 55.1067 86.6466 54.8034C86.7233 54.46 86.8333 54.1233 86.9233 53.78C86.9433 53.7033 87.0333 53.5967 86.8866 53.5433C86.7666 53.5 86.7533 53.6233 86.7133 53.68C86.4133 54.13 86.17 54.6167 85.77 54.9967C85.45 55.3033 85.0933 55.3833 84.89 55.1767C84.6966 54.9833 84.7833 54.5933 85.0966 54.2967C85.4766 53.9433 85.9566 53.7534 86.3933 53.49C86.4466 53.4567 86.5033 53.43 86.5566 53.4C86.62 53.3633 86.7033 53.33 86.6566 53.24C86.6166 53.1634 86.5466 53.22 86.49 53.2333C86.0633 53.33 85.64 53.4267 85.2133 53.53C85.0266 53.5733 84.84 53.5667 84.6533 53.55C84.3566 53.52 84.0866 53.2767 84.1 53.0467C84.1133 52.75 84.3566 52.6633 84.5833 52.5833C84.67 52.5533 84.77 52.5633 84.83 52.5567Z" fill="black"/>
<path d="M22.0267 50.7533C22.0267 51.25 21.8401 51.71 21.7367 52.1867C21.7167 52.2833 21.6434 52.42 21.7567 52.4667C21.8867 52.5167 21.9034 52.35 21.9534 52.2733C22.2467 51.8067 22.4067 51.26 22.8101 50.8633C23.0967 50.5767 23.4467 50.4933 23.6401 50.6733C23.8567 50.8767 23.8034 51.2167 23.5101 51.5367C23.1234 51.96 22.6201 52.22 22.1634 52.5467C22.0867 52.6 21.9467 52.6167 22.0067 52.77C22.0734 52.93 22.1901 52.8267 22.2734 52.8067C22.7567 52.6833 23.2334 52.54 23.7267 52.4567C23.9234 52.4233 24.1101 52.45 24.2801 52.5167C24.4767 52.5967 24.6534 52.7533 24.6367 52.9833C24.6201 53.1933 24.4567 53.33 24.2501 53.3867C23.8634 53.4933 23.4834 53.4267 23.1067 53.34C22.8234 53.2767 22.5434 53.1967 22.2601 53.13C22.1867 53.1133 22.0867 53.08 22.0401 53.1833C21.9901 53.2933 22.1034 53.32 22.1634 53.3633C22.6067 53.6767 23.1034 53.9067 23.4967 54.2933C23.6567 54.45 23.7867 54.6167 23.7867 54.8567C23.7867 55.2267 23.5067 55.41 23.1734 55.2533C22.8667 55.11 22.6634 54.86 22.5001 54.5767C22.3201 54.27 22.1467 53.9633 21.9734 53.6533C21.9267 53.5767 21.8934 53.4567 21.7734 53.51C21.6567 53.5567 21.7067 53.6733 21.7267 53.7567C21.8301 54.16 21.9201 54.5633 21.9867 54.9767C22.0201 55.18 22.0134 55.37 21.9634 55.5633C21.8867 55.8467 21.6601 56.06 21.4434 56.0033C21.1867 55.94 21.0534 55.74 21.0234 55.48C20.9834 55.1 21.0734 54.7367 21.1801 54.3767C21.2501 54.1367 21.3234 53.8967 21.3901 53.6567C21.4101 53.5833 21.4067 53.5 21.3234 53.4633C21.2234 53.42 21.2067 53.5233 21.1734 53.5767C20.8367 54.09 20.5667 54.6467 20.0734 55.0433C19.7234 55.3233 19.2934 55.23 19.2334 54.8567C19.2001 54.6667 19.2934 54.5167 19.4101 54.3767C19.7901 53.9233 20.3334 53.7067 20.8234 53.4167C20.9301 53.3533 21.1601 53.3133 21.1067 53.1867C21.0334 53.0133 20.8434 53.17 20.7201 53.2C20.3067 53.3033 19.8934 53.4067 19.4734 53.4733C19.2134 53.5133 18.9701 53.4767 18.7567 53.32C18.6301 53.23 18.5034 53.1 18.5334 52.9367C18.5634 52.7567 18.6834 52.6167 18.8701 52.5567C19.2534 52.4267 19.6301 52.5 20.0067 52.59C20.2801 52.6567 20.5467 52.74 20.8201 52.8067C20.9201 52.8333 21.0567 52.95 21.1234 52.8067C21.1967 52.6533 21.0201 52.63 20.9334 52.5733C20.5601 52.3433 20.1834 52.1233 19.8134 51.89C19.6267 51.7733 19.4634 51.6233 19.3567 51.4233C19.2367 51.2 19.1801 50.9567 19.4001 50.77C19.6201 50.58 19.8634 50.6733 20.0601 50.8267C20.3667 51.0633 20.5934 51.38 20.7834 51.7167C20.9067 51.9367 21.0334 52.1533 21.1667 52.3633C21.2101 52.4333 21.2367 52.5767 21.3567 52.5167C21.4534 52.47 21.4067 52.3433 21.3867 52.26C21.3101 51.9233 21.2301 51.59 21.1367 51.26C21.0634 51.0033 21.0667 50.7433 21.0834 50.4833C21.1001 50.1867 21.3401 49.9167 21.5701 49.92C21.7934 49.9233 21.9967 50.1667 22.0234 50.4733C22.0334 50.5667 22.0267 50.66 22.0267 50.7533Z" fill="black"/>
<path d="M31.85 32.54C31.5333 32.2633 31.16 32.1466 30.74 32.1833C30.5333 32.2066 30.3133 32.2833 30.0833 32.4133C30.1333 32.1866 30.14 31.97 30.0966 31.7666C30.0333 31.4533 29.8766 31.1833 29.6333 30.9733C29.35 30.7266 29.0166 30.6 28.6366 30.6C28.6333 30.6 28.63 30.6 28.63 30.6C28.2566 30.6 27.8733 30.7366 27.4933 31.0066C27.2466 31.1833 26.96 31.4566 26.6433 31.82L24.8933 33.8333L25.2133 34.11L25.4433 33.8433C25.5633 33.7033 25.6866 33.6366 25.8166 33.6333C25.8666 33.6366 25.9966 33.6666 26.3333 33.96L29.2 36.4533C29.51 36.7233 29.57 36.8466 29.5833 36.8866C29.62 37.0266 29.5733 37.17 29.44 37.32L29.21 37.5866L29.5266 37.8633L31.43 35.6733C31.88 35.1566 32.1566 34.7433 32.2833 34.4C32.41 34.0533 32.43 33.7066 32.3433 33.3666C32.2566 33.0266 32.09 32.7466 31.85 32.54ZM28.8433 31.83C28.9933 31.96 29.0966 32.12 29.1566 32.3033C29.2166 32.4866 29.2166 32.67 29.1533 32.8633C29.09 33.0666 28.9233 33.3233 28.66 33.6266C28.5533 33.7466 28.4533 33.8533 28.3566 33.95C28.2966 34.01 28.2366 34.0666 28.1766 34.1166L26.6333 32.7733C26.73 32.5966 26.8533 32.42 27.01 32.24C27.3366 31.8633 27.6733 31.6466 28.0066 31.6C28.3366 31.5533 28.61 31.63 28.8433 31.83ZM30.3033 35.9633L28.6466 34.5266C28.68 34.4833 28.7166 34.4333 28.7566 34.38C28.8366 34.28 28.9333 34.1633 29.05 34.0333C29.3066 33.7366 29.5666 33.5233 29.8266 33.4C30.0733 33.28 30.3066 33.24 30.52 33.28C30.7366 33.32 30.9233 33.41 31.0766 33.5433C31.31 33.7466 31.4233 34.0033 31.42 34.3266C31.42 34.6533 31.2566 35.0066 30.9366 35.3766C30.75 35.5866 30.54 35.7866 30.3033 35.9633Z" fill="black"/>
<path d="M38.5333 28.97C38.3566 29.0867 38.1933 29.1367 38.0466 29.1267C37.94 29.1167 37.72 29.0533 37.2866 28.7967L32.6533 26.05L32.3933 26.2433L33.6466 31.4433C33.75 31.87 33.79 32.1767 33.7566 32.36C33.75 32.3933 33.7166 32.4933 33.51 32.71L33.4333 32.79L33.6733 33.1133L35.3666 31.8533L35.12 31.5233L35.0166 31.5867C34.7233 31.7733 34.6033 31.7867 34.57 31.79C34.48 31.7867 34.4433 31.7533 34.4266 31.73C34.3866 31.6767 34.3266 31.5567 34.26 31.28L34.0466 30.38L35.73 29.1267L36.4466 29.55C36.7433 29.7267 36.86 29.8367 36.9066 29.8967C36.94 29.94 36.9466 29.99 36.93 30.0533C36.92 30.0967 36.87 30.19 36.6633 30.3633L36.5666 30.44L36.8166 30.7733L38.8833 29.2367L38.6366 28.9033L38.5333 28.97ZM33.8966 29.7667L33.4133 27.7433L35.1966 28.7967L33.8966 29.7667Z" fill="black"/>
<path d="M43.04 25.2334L43.0467 25.3434C43.06 25.72 43.0367 26.0134 42.9767 26.2134C42.9167 26.4067 42.8267 26.5667 42.7034 26.6867C42.58 26.8134 42.3167 26.9667 41.9234 27.1467L41.5334 27.3267C41.0667 27.5434 40.9634 27.5567 40.95 27.5567C40.9 27.56 40.8634 27.55 40.8367 27.53C40.8 27.5034 40.7234 27.4167 40.6034 27.1567L39.06 23.8C38.8767 23.3967 38.8567 23.2667 38.86 23.2267C38.86 23.1534 38.8967 23.0734 38.9667 22.99C39.02 22.9267 39.15 22.82 39.48 22.6734L39.6 22.62L39.4234 22.2367L36.77 23.4534L36.9467 23.8367L37.2667 23.69C37.4334 23.6134 37.5734 23.6034 37.6934 23.6567C37.7234 23.6667 37.8334 23.7434 38.0267 24.1667L39.6134 27.6134C39.7867 27.9934 39.7934 28.1234 39.7867 28.16C39.7634 28.3067 39.6634 28.42 39.48 28.5034L39.16 28.65L39.3367 29.0334L43.67 27.0434L43.43 25.1467L43.04 25.2334Z" fill="black"/>
<path d="M47.0734 25.6067C46.9601 25.6367 46.8467 25.64 46.7301 25.61C46.6567 25.5933 46.6067 25.5667 46.5801 25.53C46.5501 25.49 46.4867 25.3733 46.3867 25.02L45.3567 21.3633C45.2334 20.93 45.2634 20.8033 45.2734 20.7767C45.3267 20.6467 45.4434 20.56 45.6367 20.5067L45.9667 20.4133L45.8501 20.0067L43.1801 20.76L43.2934 21.1633L43.6201 21.0733C43.7334 21.04 43.8467 21.04 43.9634 21.0667C44.0334 21.0833 44.0834 21.1133 44.1134 21.15C44.1434 21.19 44.2067 21.3067 44.3067 21.66L45.3367 25.3167C45.4567 25.75 45.4301 25.8767 45.4201 25.9033C45.3701 26.03 45.2501 26.12 45.0567 26.1733L44.7301 26.2633L44.8434 26.67L47.5167 25.9167L47.4001 25.5133L47.0734 25.6067Z" fill="black"/>
<path d="M58.8433 19.5667C58.39 19.32 57.71 19.16 56.8233 19.0867L54.31 18.88L54.2766 19.3L54.6266 19.33C54.81 19.3433 54.94 19.4033 55.0166 19.51C55.0366 19.5333 55.0933 19.6533 55.0566 20.1167L54.7433 23.9033C54.71 24.3167 54.65 24.4333 54.6233 24.4667C54.5366 24.58 54.3933 24.6267 54.1933 24.61L53.8433 24.58L53.8066 25L56.55 25.2267C56.7133 25.24 56.87 25.2467 57.0233 25.2467C57.9666 25.2467 58.72 24.9933 59.2633 24.4867C59.8233 23.96 60.1433 23.2633 60.2133 22.4167C60.2666 21.79 60.1666 21.2133 59.9166 20.7067C59.6666 20.1967 59.3066 19.8133 58.8433 19.5667ZM56.1833 19.7267C56.47 19.6833 56.7266 19.6733 56.9466 19.69C57.6033 19.7433 58.11 20.0033 58.4933 20.4833C58.87 20.9567 59.03 21.5867 58.9666 22.36C58.9033 23.1233 58.6433 23.72 58.19 24.13C57.7366 24.54 57.2066 24.7133 56.57 24.6633C56.3566 24.6467 56.0966 24.59 55.79 24.5L56.1833 19.7267Z" fill="black"/>
<path d="M69.72 22.98C69.8333 22.88 69.9333 22.8234 70.0167 22.8067C70.1033 22.7934 70.2067 22.8067 70.33 22.85L70.4533 22.8934L70.5933 22.4934L68.6933 21.8267L68.5533 22.2234L68.6767 22.2667C68.8267 22.32 68.9433 22.38 69.02 22.4434C69.0533 22.47 69.0733 22.5034 69.0867 22.5467C69.1 22.59 69.1 22.6267 69.0867 22.6634C69.0567 22.7434 68.9633 22.9134 68.68 23.2667L66.7833 25.6567V22.6434C66.7833 22.18 66.82 21.98 66.85 21.8934C66.8767 21.8167 66.9167 21.77 66.9767 21.7434C67.0367 21.7167 67.1333 21.7234 67.25 21.7667L67.52 21.86L67.66 21.4634L65.26 20.6167L65.12 21.0134L65.2433 21.0567C65.3733 21.1034 65.4233 21.1367 65.4433 21.15C65.4933 21.1867 65.54 21.2367 65.5833 21.3C65.6133 21.3434 65.6333 21.3867 65.6467 21.4334C65.68 21.5534 65.7 21.69 65.7067 21.83V22.7234L64.12 24.72L64.1233 21.5967C64.1267 21.1134 64.1533 20.9634 64.17 20.92C64.19 20.8634 64.2267 20.8234 64.29 20.8C64.36 20.7734 64.4533 20.78 64.5667 20.82L64.7867 20.8967L64.9267 20.5L62.63 19.6934L62.49 20.09L62.6133 20.1334C62.7533 20.1834 62.8567 20.24 62.9167 20.3067C62.9733 20.3734 63.01 20.45 63.0233 20.5467C63.03 20.5934 63.04 20.75 63.04 21.22L63.0633 26.4967L63.3867 26.61L65.7133 23.72L65.7267 27.4367L66.0633 27.5534L69.24 23.5534C69.5367 23.1667 69.6633 23.0267 69.72 22.98Z" fill="black"/>
<path d="M70.9566 29.4133C70.92 29.3467 70.9066 29.29 70.9133 29.2467C70.92 29.1967 70.9633 29.07 71.15 28.7567L73.1066 25.5C73.3366 25.1133 73.45 25.0467 73.4766 25.0367C73.6066 24.9867 73.75 25.0133 73.92 25.1133L74.2166 25.29L74.4333 24.93L72.0533 23.5L71.8366 23.8633L72.1266 24.0367C72.2266 24.0967 72.3066 24.1767 72.3666 24.28C72.4 24.3467 72.4133 24.4 72.4066 24.4467C72.4 24.4967 72.3566 24.6233 72.17 24.9367L70.2133 28.1933C69.9833 28.58 69.8733 28.65 69.8466 28.66C69.7166 28.71 69.57 28.6833 69.4 28.58L69.11 28.4033L68.8933 28.7667L71.27 30.1933L71.49 29.8333L71.1933 29.6567C71.0933 29.5967 71.0166 29.5167 70.9566 29.4133Z" fill="black"/>
<path d="M77.0966 30.78C77.5666 30.7467 77.97 30.5267 78.2967 30.13C78.54 29.8334 78.6633 29.5034 78.6667 29.1434C78.67 28.79 78.5833 28.46 78.4067 28.1634C78.2333 27.8767 77.9367 27.5567 77.52 27.2167L75.7567 25.77L75.49 26.0934L75.76 26.3167C75.9033 26.4334 75.9767 26.5567 75.98 26.6867C75.98 26.7167 75.96 26.8434 75.6633 27.2067L73.25 30.1434C72.9767 30.4734 72.8667 30.53 72.8433 30.5367C72.7 30.58 72.5567 30.54 72.3967 30.41L72.1267 30.19L71.86 30.5134L74.0033 32.2767L74.27 31.95L73.9967 31.7234C73.8533 31.6067 73.7833 31.4867 73.78 31.3567C73.78 31.3267 73.7966 31.1967 74.0966 30.8334L75.08 29.6334C75.1667 29.74 75.2533 29.8367 75.3366 29.9234C75.4533 30.0467 75.57 30.1567 75.6833 30.25C76.1533 30.6367 76.63 30.8134 77.0966 30.78ZM76.8267 27.51C76.9833 27.5934 77.11 27.67 77.1967 27.7434C77.3667 27.8834 77.4867 28.0467 77.5567 28.2267C77.6267 28.4067 77.6367 28.6 77.5833 28.81C77.53 29.0234 77.4267 29.2234 77.28 29.4034C77.0633 29.6667 76.82 29.81 76.5367 29.85C76.2533 29.8867 76.02 29.82 75.8133 29.6534C75.7533 29.6034 75.6833 29.5367 75.6067 29.4567C75.5433 29.3934 75.48 29.32 75.4067 29.2367L76.8267 27.51Z" fill="black"/>
<path d="M82.43 31.8333L82.22 31.5867L77.1167 33.1933C76.6967 33.33 76.3934 33.3867 76.21 33.3667C76.1767 33.3633 76.0734 33.3367 75.8434 33.1467L75.7567 33.0767L75.4534 33.3367L76.8267 34.94L77.14 34.67L77.0667 34.5733C76.86 34.2933 76.8334 34.1767 76.8334 34.14C76.83 34.05 76.86 34.0133 76.8834 33.9933C76.9334 33.95 77.05 33.8833 77.3234 33.7967L78.2034 33.52L79.57 35.1167L79.1967 35.8567C79.0434 36.17 78.94 36.2933 78.8834 36.34C78.8434 36.3767 78.7934 36.39 78.73 36.3767C78.6867 36.3667 78.5867 36.3267 78.4034 36.13L78.3167 36.04L78 36.31L79.6767 38.2667L79.9934 37.9967L79.9167 37.9C79.7934 37.7333 79.73 37.5733 79.73 37.4267C79.73 37.3167 79.78 37.0933 80.0067 36.6433L82.43 31.8333ZM80.7934 32.71L79.86 34.56L78.8067 33.33L80.7934 32.71Z" fill="black"/>
<path d="M33.3601 75.88L33.5734 76.1067C33.6367 76.1767 33.6801 76.2567 33.7034 76.3533C33.7167 76.41 33.7167 76.4533 33.7034 76.4867C33.6867 76.52 33.6234 76.61 33.4001 76.82L30.9134 79.1333C30.7434 79.29 30.6534 79.3233 30.6134 79.33C30.5634 79.3367 30.5267 79.33 30.51 79.3167C30.4934 79.2933 30.5 79.2367 30.5334 79.1633C30.6734 78.8433 30.6867 78.72 30.6834 78.65C30.6767 78.54 30.6367 78.4433 30.56 78.3633C30.4634 78.26 30.3434 78.2033 30.1934 78.1933C30.0734 78.1933 29.9534 78.24 29.8401 78.3433C29.7034 78.47 29.64 78.6433 29.6467 78.8567C29.6567 79.0633 29.75 79.2633 29.9267 79.4533C30.14 79.6833 30.4001 79.8167 30.6934 79.85C30.7567 79.8567 30.8201 79.86 30.8834 79.86C31.0967 79.86 31.3001 79.82 31.4901 79.7367C31.7301 79.6333 31.9934 79.4467 32.2767 79.1833L34.0567 77.5267C34.3367 77.2667 34.4367 77.2433 34.4534 77.24C34.5634 77.2333 34.6701 77.2833 34.7801 77.4033L34.9901 77.63L35.28 77.36L33.6534 75.61L33.3601 75.88Z" fill="black"/>
<path d="M47.0533 88.9767C47.0066 88.9034 46.9433 88.7234 46.9 88.3034L46.4633 83.7567L46.1733 83.6667L43.24 87.1234C42.9433 87.4767 42.7666 87.6067 42.6733 87.6534C42.6566 87.66 42.5766 87.69 42.32 87.6567L42.2133 87.6434L42.1 88.0034L43.8466 88.5434L43.96 88.17L43.8466 88.1267C43.57 88.02 43.5066 87.95 43.4933 87.93C43.45 87.8667 43.4633 87.8334 43.4666 87.82C43.4833 87.77 43.5333 87.67 43.6866 87.49L44.1866 86.9067L45.86 87.4234L45.9266 88.1067C45.9566 88.3967 45.94 88.53 45.9233 88.5867C45.9133 88.6134 45.8966 88.6467 45.8366 88.67C45.8133 88.68 45.73 88.6967 45.5066 88.64L45.3866 88.61L45.27 88.9834L47.3933 89.64L47.5066 89.2667L47.3933 89.2234C47.23 89.1634 47.1166 89.08 47.0533 88.9767ZM45.8133 86.85L44.56 86.4634L45.65 85.1834L45.8133 86.85Z" fill="black"/>
<path d="M61.79 84.1L61.8833 84.4833L62.01 84.4533C62.1466 84.42 62.22 84.4233 62.2533 84.43C62.3033 84.44 62.34 84.4566 62.37 84.4833C62.3966 84.51 62.4166 84.5433 62.4266 84.5833C62.4366 84.63 62.44 84.7566 62.3366 85.0633L61.8166 86.59L60.5766 85.4166C60.32 85.1733 60.29 85.0866 60.2866 85.07C60.27 85.0133 60.2833 84.97 60.33 84.93C60.3966 84.87 60.47 84.83 60.5633 84.8066L60.7966 84.75L60.7 84.3633L58.3833 84.93L58.4766 85.3133L58.6033 85.2833C58.6933 85.26 58.74 85.2633 58.76 85.27C58.9966 85.3166 59.0833 85.36 59.1133 85.38C59.1566 85.41 59.2633 85.4933 59.5233 85.7333L61.3133 87.4066L61.5833 88.5133C61.6666 88.8533 61.6433 88.9533 61.6366 88.9733C61.5966 89.0766 61.5 89.1466 61.3366 89.1866L61.04 89.2566L61.1333 89.6433L63.44 89.0833L63.3433 88.6966L63.06 88.7666C62.9033 88.8033 62.7833 88.7933 62.7 88.74C62.6866 88.73 62.6133 88.6633 62.52 88.2866L62.2333 87.11L62.94 85.0266C63.0233 84.7733 63.1 84.5833 63.1666 84.4666C63.2333 84.3566 63.31 84.2633 63.4033 84.19C63.5266 84.0933 63.5833 84.07 63.6033 84.0666L63.8233 84.0133L63.73 83.6266L61.79 84.1Z" fill="black"/>
<path d="M79.23 78.6833L79.1366 78.7633C79.0066 78.8766 78.8766 78.94 78.7566 78.9466C78.6666 78.95 78.48 78.9233 78.0933 78.76L73.8833 76.98L73.6666 77.1933L75.3133 81.42C75.48 81.8466 75.5133 82.0633 75.5066 82.1666C75.5066 82.19 75.4933 82.27 75.3433 82.48L75.28 82.57L75.5433 82.8366L76.8466 81.56L76.5766 81.2833L76.4833 81.3633C76.2566 81.5533 76.1666 81.5766 76.1433 81.58C76.0766 81.5866 76.05 81.5666 76.0333 81.55C75.9966 81.5133 75.9333 81.42 75.8466 81.1966L75.57 80.48L76.82 79.2566L77.4566 79.5233C77.7233 79.6366 77.8333 79.71 77.8766 79.7566C77.8933 79.7733 77.9166 79.8066 77.9066 79.8666C77.9033 79.8966 77.88 79.9766 77.7233 80.1466L77.64 80.2366L77.9133 80.5166L79.5 78.9633L79.23 78.6833ZM76.2966 79.0233L75.36 79.9433L74.7533 78.3733L76.2966 79.0233Z" fill="black"/>
<path d="M38.88 59.1333C38.65 59.1333 38.4566 59.11 38.27 59.1366C37.59 59.24 37.1666 59.7766 37.1166 60.55C37.05 61.6333 37.3933 62.6133 37.8833 63.5466C38.98 65.6233 40.58 67.1633 42.78 68.0366C44.14 68.5766 45.5566 68.6633 46.9966 68.5033C48.16 68.3733 49.3133 68.18 50.4033 67.7266C52.8766 66.6933 54.2533 64.8233 54.3733 62.1666C54.4633 60.2366 53.8766 58.4633 52.4 57.1033C50.4633 55.32 46.9966 55.5566 45.3866 57.5566C44.97 58.0766 44.83 58.4766 44.7466 59.4133C43.27 58.5933 42.31 56.8166 44.0033 55.2533C44.1366 55.13 44.28 55.0166 44.4266 54.91C45.49 54.1466 46.6933 53.7166 47.9566 53.4333C48.9333 53.2166 49.89 52.9533 50.73 52.3766C51.4966 51.85 52.1166 51.1966 52.4666 50.3166C53.06 48.8166 52.5033 47.4433 51.02 46.8133C50.7466 46.7 50.6833 46.5666 50.6866 46.29C50.7133 45.1666 50.7166 44.0433 50.7133 42.92C50.71 42.7066 50.77 42.65 50.9833 42.6433C53.23 42.5866 55.0833 43.4066 56.5 45.1566C57.9733 46.98 58.03 49.4933 56.69 51.6366C55.9666 52.7933 55.0133 53.73 53.9233 54.5366C53.72 54.6866 53.7033 54.7466 53.9233 54.9C55.24 55.8166 56.4233 56.8766 57.3233 58.22C59.4066 61.33 59.0733 64.86 56.44 67.5333C54.6266 69.3766 52.4066 70.4366 49.87 70.8166C45.5966 71.45 41.9533 70.1033 38.8166 67.22C37.8333 66.3133 36.89 65.3733 36.1666 64.2366C35.2866 62.85 34.71 61.3666 34.7733 59.6933C34.8033 58.9133 34.9833 58.1733 35.4533 57.53C36.13 56.6066 37.1166 56.5366 37.9033 57.36C38.3766 57.8566 38.66 58.4533 38.88 59.1333Z" fill="#8C8101"/>
<path d="M44.7466 59.4133C44.4799 59.02 42.9433 56.5 44.6266 55.2366C46.5066 53.8233 49.8033 53.7833 50.9399 52.8733C51.8666 52.13 53.5166 50.99 53.0866 48.5166C52.6599 46.04 51.3133 46.5966 51.2633 46.1666C51.2133 45.7366 51.4799 42.6466 51.4799 42.6466L50.9833 42.6433C50.7699 42.65 50.7099 42.7066 50.7133 42.92C50.7166 44.0433 50.7133 45.1666 50.6866 46.29C50.6833 46.5666 50.7466 46.7 51.0199 46.8133C52.5033 47.4433 53.0599 48.8166 52.4666 50.3166C52.1166 51.1966 51.4966 51.85 50.7299 52.3766C49.8899 52.9533 48.9333 53.2166 47.9566 53.4333C46.6933 53.7166 45.4899 54.1466 44.4266 54.91C44.2799 55.0166 44.1366 55.13 44.0033 55.2533C43.1399 56.05 42.9699 56.9 43.1999 57.6533C43.4666 58.69 44.7833 59.47 44.7466 59.4133Z" fill="url(#paint0_linear_801_8356)"/>
<path d="M55.26 61.9534C55.0834 59.3 53.5167 55.8434 51.0434 55.2367C48.5667 54.6267 45.9934 56.0434 45.9934 56.0434C45.9934 56.0434 45.1567 56.5234 44.8034 57.0534C44.45 57.5834 44.49 59.27 44.7467 59.4134C44.83 58.4767 44.97 58.0767 45.3867 57.5567C46.9967 55.5567 50.4634 55.32 52.4 57.1034C53.8767 58.4634 54.4634 60.2367 54.3734 62.1667C54.2534 64.8234 52.8767 66.6934 50.4034 67.7267C49.3134 68.18 48.16 68.3734 46.9967 68.5034C45.5567 68.6634 44.14 68.5767 42.78 68.0367C40.58 67.1634 38.98 65.6234 37.8834 63.5467C37.3934 62.6134 37.05 61.6334 37.1167 60.55C37.1667 59.7767 37.59 59.24 38.27 59.1367C38.4567 59.11 38.65 59.1334 38.88 59.1334C38.66 58.4534 38.3767 57.8567 37.9034 57.36C37.1167 56.5367 36.13 56.6067 35.4534 57.53C35.4534 57.53 36.6367 56.7567 37.34 57.57C38.04 58.3867 37.9634 58.6134 37.9634 58.6134C37.9634 58.6134 36.6367 58.9167 36.6 60.5267C36.5634 62.1367 37.2267 63.52 37.47 63.9367C37.7167 64.3534 38.7234 66.3034 40.56 67.3834C42.3967 68.4634 44.07 69.2034 46.1434 69.0767C48.2134 68.95 51.0934 68.5467 52.33 67.4334C53.5667 66.3234 55.4367 64.6067 55.26 61.9534Z" fill="url(#paint1_linear_801_8356)"/>
<path d="M42.9433 39.4867C43.42 39.65 43.88 39.8667 44.3667 40.0133C46.14 40.54 47.89 40.38 49.6333 39.8667C51.2 39.4067 52.6867 38.7333 54.1967 38.13C55.88 37.4567 57.5933 36.8967 59.39 36.58C60.89 36.3167 62.34 36.4733 63.79 36.89C65.48 37.3767 67.0867 38.0233 68.48 39.1233C70.2034 40.48 71.2 42.2667 71.5634 44.4133C71.8367 46.04 71.8 47.6667 71.45 49.2733C71.2534 50.1867 70.72 50.95 70.1867 51.7C68.9733 53.39 67.4867 54.76 65.58 55.6367C64.9634 55.92 64.3233 56.1433 63.62 56.2933C63.62 55.5533 63.62 54.8267 63.62 54.1C63.62 54.0067 63.6834 53.9733 63.7567 53.9367C65.7667 52.9533 66.96 51.2567 67.7767 49.2467C68.0867 48.4867 68.3767 47.72 68.4234 46.8833C68.5134 45.3 68.09 43.8633 67.1534 42.5933C65.8634 40.8367 64.06 39.88 61.97 39.43C60.3367 39.0733 58.6867 39.05 57.07 39.4967C56.0967 39.7633 55.1733 40.2133 54.2133 40.5467C52.3433 41.1967 50.44 41.7033 48.4433 41.75C46.39 41.8 44.5567 41.2567 43.1 39.7267C43.0333 39.66 42.9433 39.61 42.9333 39.5033L42.9433 39.4867Z" fill="#8C8101"/>
<path d="M58.4667 66.87C59.0467 66.9933 59.62 67.14 60.2067 67.23C61.9367 67.4966 63.6133 67.3966 65.1667 66.49C66.4333 65.7466 67.29 64.6266 67.9433 63.34C69.1167 61.04 69.5767 58.5866 69.4367 56.02C69.39 55.2066 69.3433 54.5566 69.12 53.7666C69.09 53.6566 69.0467 53.5566 69.17 53.4366C70.16 52.4533 70.92 51.3133 71.4933 50.0433C71.5067 50.01 71.5333 49.98 71.5633 49.9366C72.2133 51.0266 72.5767 52.03 72.8333 53.2566C73.1167 54.6 73.1633 55.9533 73.0333 57.32C72.9367 58.2833 72.8767 59.25 72.73 60.2066C72.42 62.2466 71.6 64.06 70.3433 65.6766C69 67.4033 67.1667 68.33 65.0633 68.73C63.2667 69.0733 61.53 68.85 59.9067 67.9633C59.3733 67.6766 58.8867 67.3233 58.4667 66.87Z" fill="#8C8101"/>
<path d="M39.5467 45.9533C39.9101 46.1766 40.2701 46.39 40.6567 46.56C41.1867 46.7933 41.7434 46.9466 42.3234 46.9533C42.5467 46.9566 42.5867 47.04 42.5834 47.2433C42.5767 49.3733 42.5801 51.5066 42.5801 53.6366C42.5801 56.96 42.5834 60.28 42.5734 63.6033C42.5734 63.8833 42.6534 64.09 42.8301 64.3C43.2367 64.7733 43.6067 65.2733 43.9067 65.8233C44.0267 66.0433 44.1267 66.27 44.1734 66.52C44.2401 66.8933 44.0667 67.1133 43.6867 67.13C43.2134 67.15 42.7767 66.9966 42.3567 66.81C41.1601 66.28 40.0701 65.5933 39.2467 64.5466C39.0501 64.2966 38.8934 64.0233 38.8567 63.6966C38.8201 63.32 38.9801 63.0333 39.2901 62.85C39.4834 62.7433 39.5167 62.61 39.5167 62.41C39.5134 57.0333 39.5134 51.6566 39.5134 46.2833C39.5134 46.18 39.4867 46.0733 39.5467 45.9533Z" fill="#8C8101"/>
<path d="M40.3067 46.37C39.9234 46.2033 39.9101 46.1766 39.5467 45.9533C39.4867 46.0733 39.5134 46.18 39.5134 46.2833C39.5134 51.6566 39.5134 57.0333 39.5167 62.41C39.5167 62.61 39.4834 62.7433 39.2901 62.85C38.9801 63.0333 38.8201 63.32 38.8567 63.6966C38.8934 64.0233 39.0501 64.2966 39.2467 64.5466L40.6567 65.87C40.6567 65.87 39.7501 64.5533 40.0534 63.5933C40.3567 62.6366 40.3067 46.37 40.3067 46.37Z" fill="url(#paint2_linear_801_8356)"/>
<path d="M60.1534 46.8633C61.3501 47.21 62.3734 47.8067 63.2367 48.6733C63.3267 48.76 63.3167 48.86 63.3167 48.9633C63.3101 50.6633 63.3034 52.3633 63.3034 54.06C63.3034 57.2767 63.3134 60.4933 63.3134 63.7067C63.3134 63.85 63.3567 63.94 63.4767 64.0133C63.7067 64.1533 63.9167 64.32 64.1067 64.5133C64.7201 65.1433 64.6367 65.71 63.8701 66.1333C63.4867 66.3433 63.0701 66.46 62.6434 66.53C61.8001 66.67 60.9634 66.6233 60.1401 66.3767C59.1567 66.08 58.9501 65.4433 59.5767 64.62C59.6501 64.52 59.7201 64.4067 59.8167 64.3367C60.1701 64.0767 60.2334 63.7367 60.2301 63.3133C60.2034 61.0967 60.2101 58.88 60.2001 56.66C60.1867 53.5067 60.1701 50.35 60.1534 47.1967C60.1501 47.0933 60.1534 46.9867 60.1534 46.8633Z" fill="#8C8101"/>
<path d="M60.1534 46.8633C60.1534 46.9867 60.1501 47.0933 60.1534 47.1967C60.1701 50.35 60.1867 53.5067 60.2001 56.66C60.2101 58.88 60.2034 61.0967 60.2301 63.3133C60.2334 63.7367 60.1701 64.0767 59.8167 64.3367C59.7201 64.4067 59.6501 64.52 59.5767 64.62C58.9501 65.4433 59.1567 66.08 60.1401 66.3767C60.5901 66.51 61.0434 66.5867 61.4967 66.6033C61.4967 66.6033 61.1067 65.9267 60.4501 65.85C59.7934 65.7733 60.0901 64.9 60.6201 64.43C61.6767 63.4933 60.9934 47.6067 60.9934 47.6067L60.9567 47.2067C60.9567 47.2067 60.9534 47.0667 60.1534 46.8633Z" fill="url(#paint3_linear_801_8356)"/>
<path d="M50.3267 60.2433C50.3267 61.4033 50.33 62.5633 50.32 63.7267C50.3167 63.9467 50.3867 64.1033 50.5433 64.2533C50.84 64.54 51.1067 64.8567 51.3 65.2233C51.6567 65.9067 51.4833 66.41 50.78 66.7133C50.29 66.9267 49.7667 67.0067 49.24 67.04C48.1967 67.1 47.15 67.1467 46.1267 66.8433C44.9867 66.5033 44.7533 65.7133 45.54 64.82C45.7467 64.5867 45.9733 64.38 46.23 64.21C46.4033 64.1 46.4633 63.9667 46.4633 63.7633C46.4567 61.72 46.4667 59.6733 46.46 57.63C46.4567 57.42 46.53 57.31 46.7067 57.2067C47.7633 56.59 48.9067 56.3467 50.1233 56.38C50.3233 56.3867 50.3567 56.4667 50.3567 56.6433C50.35 57.8433 50.3533 59.0433 50.3533 60.2433C50.3433 60.2433 50.3333 60.2433 50.3267 60.2433Z" fill="#8C8101"/>
<path d="M46.7067 57.2067C46.53 57.31 46.4567 57.42 46.46 57.63C46.4667 59.6733 46.4567 61.72 46.4633 63.7633C46.4633 63.9667 46.4033 64.1 46.23 64.21C45.9733 64.38 45.7467 64.5867 45.54 64.82C44.7533 65.7133 44.9867 66.5033 46.1267 66.8433L47.1433 67.0833C47.1433 67.0833 47.6067 66.6633 46.9633 66.36C46.32 66.0567 45.3633 65.8433 46.3533 65.0333C47.4133 64.1667 47.06 64.1633 47.0967 62.61C47.1333 61.0567 47.0033 57.06 47.0033 57.06L46.7067 57.2067Z" fill="url(#paint4_linear_801_8356)"/>
<path d="M46.3533 53.37C46.3533 53.1034 46.3533 52.8734 46.3533 52.6434C46.3633 49.7734 46.3699 46.9034 46.3766 44.0334C46.3799 43.5267 46.3799 43.5234 46.8566 43.35C47.8799 42.9834 48.9366 42.7767 50.0199 42.7067C50.2599 42.69 50.3066 42.7467 50.3033 42.9734C50.2799 45.2067 50.2633 47.4434 50.2466 49.68C50.2433 50.2367 50.2233 50.7934 50.2433 51.35C50.2533 51.6267 50.1399 51.7967 49.9433 51.9567C49.5533 52.2767 49.1233 52.51 48.6433 52.67C47.8933 52.92 47.1066 53.0434 46.3533 53.37Z" fill="#8C8101"/>
<path d="M46.3533 53.37C46.3533 53.1033 46.3533 52.8733 46.3533 52.6433C46.3599 49.7733 46.3666 46.9033 46.3766 44.0333C46.3766 43.5266 46.3799 43.5233 46.8133 43.35L47.1433 43.23L47.0166 53.11L46.3533 53.37Z" fill="url(#paint5_linear_801_8356)"/>
<path d="M56.1899 41.82C56.7499 42.3133 57.2966 42.8067 57.8699 43.27C58.9399 44.13 60.1333 44.5933 61.5233 44.5833C62.6833 44.5733 63.8466 44.6267 64.9833 44.8967C66.0899 45.16 67.0599 45.72 68.0066 46.3267C68.1933 46.4467 68.1299 46.6133 68.1199 46.7633C68.0433 47.68 67.7699 48.5433 67.3966 49.3767C67.2933 49.61 67.1833 49.8367 67.0666 50.0867C65.9433 48.9 64.6199 48.07 63.1833 47.4133C62.2599 46.99 61.2799 46.7033 60.3333 46.3433C59.4499 46.0067 58.5999 45.6133 57.8733 44.9967C56.8933 44.1667 56.3733 43.0833 56.1899 41.82Z" fill="#8C8101"/>
<path d="M37.8199 41.37C38.2566 41.9367 38.6633 42.4167 39.1466 42.83C40.5833 44.0667 42.2433 44.44 44.0833 44.1267C44.6433 44.0333 45.1866 43.8833 45.7166 43.6867C45.9133 43.6133 45.9866 43.62 45.9833 43.8567C45.9766 44.71 45.9866 45.5633 45.9933 46.4167C45.9933 46.5433 45.9933 46.6333 45.8233 46.6467C44.1899 46.7633 42.5666 46.7667 41.0033 46.1633C39.2133 45.4767 38.2633 44.1233 37.9399 42.2767C37.8899 42.0067 37.8666 41.7267 37.8199 41.37Z" fill="#8C8101"/>
<path d="M37.8199 41.37C39.7533 47.4167 45.9866 45.5633 45.9933 46.4167C45.9933 46.5433 45.9933 46.6333 45.8233 46.6467C44.1899 46.7633 42.5666 46.7667 41.0033 46.1633C39.2133 45.4767 38.2633 44.1233 37.9399 42.2767C37.8899 42.0067 37.8666 41.7267 37.8199 41.37Z" fill="url(#paint6_linear_801_8356)"/>
<path d="M55.6934 53.97C56.5634 54.21 57.4267 54.4266 58.31 54.5533C58.7667 54.6166 59.2234 54.6633 59.6834 54.6633C59.8734 54.6633 59.9267 54.7333 59.92 54.9166C59.9067 55.3366 59.9134 55.76 59.92 56.1833C59.92 56.3133 59.8967 56.3833 59.7434 56.3533C58.13 56.0066 56.75 55.2566 55.6934 53.97Z" fill="#8C8101"/>
<path d="M55.6934 53.97C56.5634 54.21 57.4267 54.4266 58.31 54.5533C58.7667 54.6166 59.2234 54.6633 59.6834 54.6633C59.8734 54.6633 59.9267 54.7333 59.92 54.9166C59.9167 55.0233 59.9134 55.13 59.9134 55.2333C59.9134 55.2333 57.2267 55.3166 55.6934 53.97Z" fill="url(#paint7_linear_801_8356)"/>
<path d="M42.9333 39.5033C42.91 39.49 42.8866 39.48 42.8633 39.47C42.8733 39.46 42.8833 39.45 42.8899 39.44C42.9066 39.4567 42.9233 39.47 42.9433 39.4867L42.9333 39.5033Z" fill="#8C8101"/>
<path d="M42.9434 39.4866C42.9434 39.4866 43.57 39.96 44.0334 40.2566C46.1767 41.6366 50.3034 41.2033 54.6934 39.44C57.43 38.3433 59.8467 38.0566 62.8267 38.5633C65.8067 39.07 68.0234 41.7033 68.6867 43.0833C69.4234 44.6133 70.4667 48.82 67.0834 52.3433C65.5 53.99 63.62 54.7366 63.62 54.7366C63.62 54.4766 63.62 54.36 63.62 54.1C63.62 54.0067 63.6834 53.9733 63.7567 53.9366C65.7667 52.9533 66.96 51.2566 67.7767 49.2466C68.0867 48.4866 68.3767 47.72 68.4234 46.8833C68.5134 45.3 68.09 43.8633 67.1534 42.5933C65.8634 40.8366 64.06 39.88 61.97 39.43C60.3367 39.0733 58.6867 39.05 57.07 39.4966C56.0967 39.7633 55.1734 40.2133 54.2134 40.5466C52.3434 41.1966 50.44 41.7033 48.4434 41.75C46.39 41.8 44.5567 41.2566 43.1 39.7266C43.1 39.7266 42.9534 39.56 42.9434 39.4866Z" fill="url(#paint8_linear_801_8356)"/>
<path d="M58.4667 66.87C59.0467 66.9933 59.62 67.14 60.2067 67.23C61.9367 67.4966 63.6133 67.3966 65.1667 66.49C66.4333 65.7466 67.29 64.6266 67.9433 63.34C69.1167 61.04 69.5767 58.5866 69.4367 56.02C69.39 55.2066 69.3433 54.5566 69.12 53.7666C69.09 53.6566 69.0467 53.5566 69.17 53.4366C70.1133 52.5066 71.3433 50.2 71.5633 49.9366C71.5633 49.9366 71.9467 50.23 71.5633 51.1166C71.1767 52.0066 69.88 53.4166 69.9367 53.77C70.1633 55.2 70.5167 57.2033 70.2633 59.2C69.9967 61.32 68.5733 64.1766 67.84 65.0866C67.1067 65.9933 64.1267 68.9766 60.2633 67.6633L58.4667 66.87Z" fill="url(#paint9_linear_801_8356)"/>
<path d="M56.1899 41.82C56.1933 41.8533 56.3333 43.44 57.4833 44.6267C58.4666 45.6167 59.4499 46.0067 60.3333 46.3433C61.2799 46.7033 62.2599 46.99 63.1833 47.4133C64.6199 48.07 65.9433 48.9 67.0666 50.0867C67.1833 49.8367 67.2933 49.61 67.3966 49.3767C67.3966 49.3767 65.2633 47.2533 62.5866 46.3433C59.9066 45.4333 58.9733 45.5233 56.1899 41.82Z" fill="url(#paint10_linear_801_8356)"/>
</g>
<defs>
<linearGradient id="paint0_linear_801_8356" x1="48.1318" y1="42.6433" x2="48.1318" y2="59.4162" gradientUnits="userSpaceOnUse">
<stop stop-color="white"/>
<stop offset="1" stop-color="white" stop-opacity="0"/>
</linearGradient>
<linearGradient id="paint1_linear_801_8356" x1="45.3625" y1="55.0842" x2="45.3625" y2="69.0908" gradientUnits="userSpaceOnUse">
<stop stop-color="white"/>
<stop offset="1" stop-color="white" stop-opacity="0"/>
</linearGradient>
<linearGradient id="paint2_linear_801_8356" x1="39.7541" y1="45.9533" x2="39.7541" y2="65.87" gradientUnits="userSpaceOnUse">
<stop stop-color="white"/>
<stop offset="1" stop-color="white" stop-opacity="0"/>
</linearGradient>
<linearGradient id="paint3_linear_801_8356" x1="60.3585" y1="46.8633" x2="60.3585" y2="66.6033" gradientUnits="userSpaceOnUse">
<stop stop-color="white"/>
<stop offset="1" stop-color="white" stop-opacity="0"/>
</linearGradient>
<linearGradient id="paint4_linear_801_8356" x1="46.1915" y1="57.06" x2="46.1915" y2="67.0833" gradientUnits="userSpaceOnUse">
<stop stop-color="white"/>
<stop offset="1" stop-color="white" stop-opacity="0"/>
</linearGradient>
<linearGradient id="paint5_linear_801_8356" x1="46.7483" y1="43.23" x2="46.7483" y2="53.37" gradientUnits="userSpaceOnUse">
<stop stop-color="white"/>
<stop offset="1" stop-color="white" stop-opacity="0"/>
</linearGradient>
<linearGradient id="paint6_linear_801_8356" x1="41.9066" y1="41.37" x2="41.9066" y2="46.7078" gradientUnits="userSpaceOnUse">
<stop stop-color="white"/>
<stop offset="1" stop-color="white" stop-opacity="0"/>
</linearGradient>
<linearGradient id="paint7_linear_801_8356" x1="55.6934" y1="54.6033" x2="59.92" y2="54.6033" gradientUnits="userSpaceOnUse">
<stop stop-color="#847424"/>
<stop offset="0.258824" stop-color="#E5D71A"/>
<stop offset="0.65098" stop-color="#E5D71A"/>
<stop offset="0.85098" stop-color="#E5D71A"/>
<stop offset="0.980392" stop-color="#847424"/>
<stop offset="1" stop-color="#847424"/>
</linearGradient>
<linearGradient id="paint8_linear_801_8356" x1="56.1904" y1="38.3212" x2="56.1904" y2="54.7366" gradientUnits="userSpaceOnUse">
<stop stop-color="white"/>
<stop offset="1" stop-color="white" stop-opacity="0"/>
</linearGradient>
<linearGradient id="paint9_linear_801_8356" x1="65.1002" y1="49.9366" x2="65.1002" y2="67.9922" gradientUnits="userSpaceOnUse">
<stop stop-color="white"/>
<stop offset="1" stop-color="white" stop-opacity="0"/>
</linearGradient>
<linearGradient id="paint10_linear_801_8356" x1="61.7933" y1="41.82" x2="61.7933" y2="50.0867" gradientUnits="userSpaceOnUse">
<stop stop-color="white"/>
<stop offset="1" stop-color="white" stop-opacity="0"/>
</linearGradient>
<clipPath id="clip0_801_8356">
<rect width="80" height="80" fill="white" transform="translate(14.5 14)"/>
</clipPath>
</defs>
</svg>
