<svg width="108" height="108" viewBox="0 0 108 108" fill="none" xmlns="http://www.w3.org/2000/svg">
<path fill-rule="evenodd" clip-rule="evenodd" d="M42.6049 55.0186C43.1531 55.7555 43.6024 56.5194 44.0338 57.2922C43.6563 57.3911 43.3777 57.7416 43.3777 58.155C43.3777 58.6402 43.7731 59.0357 44.2674 59.0357C44.7527 59.0357 45.1481 58.6402 45.1481 58.155C45.1481 57.7416 44.8695 57.3911 44.4921 57.2922C44.9234 56.5194 45.3728 55.7555 45.921 55.0186C47.269 55.5848 49.2551 55.3331 49.983 54.3805C50.6031 53.5807 50.2436 52.9067 49.0933 52.7629C47.5656 52.6461 46.3074 53.2572 45.238 54.3805C44.9594 54.1828 44.6988 53.9582 44.5011 53.6885C45.0762 53.0235 45.4806 52.3675 45.7682 51.1723C46.0738 49.5636 45.3099 47.9999 44.2674 47.9999C43.216 47.9999 42.4521 49.5636 42.7576 51.1723C43.0452 52.3675 43.4496 53.0235 44.0248 53.6885C43.8271 53.9582 43.5664 54.1828 43.2879 54.3805C42.2184 53.2572 40.9603 52.6461 39.4325 52.7629C38.2822 52.9067 37.9228 53.5807 38.5429 54.3805C39.2708 55.3331 41.2569 55.5848 42.6049 55.0186ZM44.2674 55.8723C43.9978 55.396 43.7282 54.9737 43.4406 54.5962C43.7372 54.4165 44.0158 54.2008 44.2674 53.8683C44.5101 54.2008 44.7886 54.4165 45.0852 54.5962C44.7976 54.9737 44.528 55.396 44.2674 55.8723ZM44.2674 53.3471C43.0812 52.1608 43.1171 49.1502 44.2674 49.1143C45.4087 49.1502 45.4447 52.1608 44.2674 53.3471ZM48.7518 54.749C47.8711 55.1714 47.0982 55.0995 46.1816 54.749C46.586 53.9492 48.4013 53.1763 49.309 53.6167C49.6954 53.8234 49.7224 54.2367 48.7518 54.749ZM39.774 54.749C40.6547 55.1714 41.4276 55.0995 42.3443 54.749C41.9398 53.9492 40.1245 53.1763 39.2169 53.6167C38.8304 53.8234 38.8035 54.2367 39.774 54.749ZM15.3301 52.3316V48.8357H14.045V55.8094C14.045 56.3396 14.018 56.9777 14.0001 57.3731H15.0964L15.1594 56.4924H15.1953C15.6087 57.1844 16.2198 57.4899 17.0016 57.4899C18.2688 57.4899 19.5629 56.4924 19.5629 54.3536C19.5629 52.5652 18.6013 51.379 17.1993 51.379C16.3456 51.379 15.7165 51.7294 15.3481 52.3316H15.3301ZM15.3301 53.9042C15.3301 53.1224 15.9232 52.3675 16.741 52.3675C17.7565 52.3675 18.2598 53.2931 18.2598 54.4075C18.2598 55.6566 17.7116 56.5014 16.723 56.5014C15.8783 56.5014 15.3301 55.8004 15.3301 55.0545V53.9042ZM25.1077 53.7694C25.1077 52.5203 24.6134 51.379 22.8161 51.379C21.9983 51.379 21.2703 51.6036 20.839 51.8732L21.1086 52.691C21.495 52.4484 22.0522 52.2866 22.5914 52.2866C23.8226 52.2866 23.8226 53.1583 23.8226 53.5987C21.7287 53.5987 20.4076 54.3176 20.4076 55.7735C20.4076 56.6811 21.0636 57.4899 22.205 57.4899C22.9688 57.4899 23.5709 57.1484 23.9124 56.6901H23.9484L24.0383 57.3731H25.1975C25.1257 56.9867 25.1077 56.4834 25.1077 55.9802V53.7694ZM23.8585 55.396C23.8585 56.079 23.2834 56.5823 22.5824 56.5823C22.1061 56.5823 21.6837 56.2947 21.6837 55.6477C21.6837 54.6052 22.852 54.4255 23.8585 54.4255V55.396ZM31.7758 53.7874C31.7758 51.9811 30.7154 51.379 29.7538 51.379C28.8372 51.379 28.1901 51.8822 27.9026 52.3855H27.8756L27.8037 51.5048H26.6893C26.7073 52.008 26.7343 52.5113 26.7343 53.1583V57.3731H28.0194V53.8413C28.0194 52.9067 28.6934 52.4034 29.3225 52.4034C30.2032 52.4034 30.4907 53.1044 30.4907 53.9312V57.3731H31.7758V53.7874ZM36.0535 53.9222L38.2103 51.5048H36.6916L35.1728 53.4639C35.0111 53.6706 34.8493 53.9222 34.7055 54.1469H34.6786V48.8357H33.3935V57.3731H34.6786V55.2702L35.1818 54.6771L36.9342 57.3731H38.4889L36.0535 53.9222ZM55.2312 50.4084L54.054 54.1738C53.8653 54.7939 53.6945 55.3691 53.5597 55.9622H53.5238C53.389 55.3691 53.2272 54.7759 53.0295 54.1648L51.8432 50.4084H50.1897L52.7419 57.472H54.2068L56.8309 50.4084H55.2312ZM59.4999 50.4084H57.9632V57.472H59.4999V50.4084ZM66.1681 56.1419C65.8176 56.2767 65.3953 56.4205 64.7931 56.4205C63.517 56.4205 62.5824 55.4949 62.5824 53.9492C62.5824 52.5652 63.3732 51.4329 64.8021 51.4329C65.4222 51.4329 65.8446 51.5857 66.1142 51.7205L66.4197 50.5791C66.0962 50.4174 65.4941 50.2556 64.7931 50.2556C62.4476 50.2556 61.0187 51.8732 61.0187 54.0121C61.0187 56.2138 62.3937 57.6158 64.4966 57.6158C65.3413 57.6158 66.0333 57.4091 66.3748 57.2563L66.1681 56.1419ZM68.0553 50.4084H67.0219V51.5227H68.0553V55.1803C68.0553 56.097 68.2261 56.6901 68.5945 57.0766C68.9181 57.418 69.4303 57.6158 70.0414 57.6158C70.5536 57.6158 70.967 57.5528 71.2276 57.445L71.1737 56.3037C70.994 56.3576 70.8053 56.3936 70.4997 56.3936C69.8527 56.3936 69.5741 55.9712 69.5741 55.0995V51.5227H71.3085V50.4084H69.5741V48.665L68.0553 49.1233V50.4084ZM75.6042 50.2556C73.681 50.2556 72.1713 51.6036 72.1713 53.9851C72.1713 56.2677 73.6091 57.6158 75.5053 57.6158C77.1409 57.6158 78.9113 56.5194 78.9113 53.8863C78.9113 51.7205 77.6082 50.2556 75.6042 50.2556ZM77.3386 53.9222C77.3386 55.3331 76.6556 56.5014 75.5413 56.5014C74.4179 56.5014 73.7439 55.3331 73.7439 53.9492C73.7439 52.727 74.2472 51.37 75.5503 51.37C76.8354 51.37 77.3386 52.7539 77.3386 53.9222ZM84.0967 50.2916C83.9619 50.2646 83.863 50.2556 83.7102 50.2556C82.9194 50.2556 82.1555 50.8038 81.823 51.7025H81.7691L81.7152 50.4084H80.3851C80.4211 51.0644 80.4391 51.7384 80.4391 52.5652V57.472H81.9668V53.7245C81.9668 52.5023 82.6139 51.6755 83.6473 51.6755C83.8181 51.6755 83.9619 51.6935 84.0967 51.7205V50.2916ZM86.8196 50.4084H85.2919V57.472H86.8196V50.4084ZM93.9012 53.1224C93.9012 51.6306 93.2991 50.2556 91.1602 50.2556C90.1807 50.2556 89.318 50.5252 88.8057 50.8487L89.1203 51.8283C89.5876 51.5407 90.2436 51.343 90.8996 51.343C92.3645 51.343 92.3645 52.3945 92.3645 52.9247C89.8662 52.9247 88.2935 53.7964 88.2935 55.5488C88.2935 56.6362 89.0663 57.6158 90.4323 57.6158C91.349 57.6158 92.0589 57.2024 92.4723 56.6542H92.5083L92.6161 57.472H94.0001C93.9102 57.0136 93.9012 56.3936 93.9012 55.7914V53.1224ZM92.4004 55.0905C92.4004 55.9083 91.7174 56.5194 90.8817 56.5194C90.3155 56.5194 89.8122 56.1779 89.8122 55.396C89.8122 54.1379 91.1962 53.9222 92.4004 53.9222V55.0905Z" fill="#FF0000"/>
</svg>
