<svg width="108" height="108" viewBox="0 0 108 108" fill="none" xmlns="http://www.w3.org/2000/svg">
<path fill-rule="evenodd" clip-rule="evenodd" d="M54.6736 44.4093C54.3937 41.4792 52.8587 39.1687 50.1485 38.0494C47.4742 36.9461 44.6321 37.2699 41.8619 37.8096C35.6379 39.0128 27.0155 44.9249 24.6571 50.7971C23.29 54.1989 24.2054 57.9365 26.9636 60.0991C29.9137 62.4096 34.0869 62.0058 37.3968 61.0105C39.1956 60.4668 40.3829 59.9991 42.0578 59.2276C42.4055 59.0677 43.285 58.5681 43.5488 58.5201L43.9525 64.3483L47.83 62.3216C49.1052 61.6221 50.4203 60.9785 51.7115 60.267C51.5596 60.0471 50.3923 59.3755 50.1085 59.0797L51.3757 56.8931C52.2072 55.2742 52.9307 53.8391 53.5423 52.0643L54.1539 50.0456C54.6256 48.2748 54.8534 46.2121 54.6816 44.4093H54.6736ZM44.4762 43.0382C45.7434 42.9302 47.1025 43.0701 48.0019 43.6098C48.5935 43.9656 49.2691 44.7331 49.2851 45.4446C49.3011 46.1561 49.2011 47.6192 48.8893 48.1668C48.4736 48.8983 47.5862 49.8617 46.9506 50.3894C45.6714 51.4567 44.808 52.0483 43.193 52.8838C42.0098 53.4994 38.7199 54.9984 37.4767 55.4941C35.3621 56.3375 32.8318 57.149 30.873 55.8818C30.0696 55.3621 29.458 54.2109 29.5339 53.0876C29.5939 52.1722 30.1735 51.2928 30.7491 50.6452C30.857 50.5253 30.853 50.4933 30.977 50.3734C31.1608 50.2015 31.3167 50.0536 31.4966 49.8537C32.0203 49.2781 33.7751 47.9789 34.4067 47.5592C37.5447 45.4686 40.4428 43.3779 44.4762 43.0342V43.0382Z" fill="#FF0000"/>
<path fill-rule="evenodd" clip-rule="evenodd" d="M45.2397 57.3968C45.3836 57.0371 45.6554 56.6093 45.8553 56.2256C46.4829 55.0104 46.9906 54.123 47.6381 52.7998C49.405 49.2101 50.5283 45.5685 48.8853 41.691C48.1738 40.0081 46.315 38.2772 46.0432 37.6257C48.0459 37.6137 50.2245 38.2413 51.7954 39.4685C53.8381 41.0634 54.5217 44.0415 54.3098 46.6558C54.046 49.9497 52.6909 53.7192 51.1239 56.4894L49.5569 59.2036C49.8327 59.4475 50.8081 59.9831 50.948 60.231C50.3404 60.4309 44.6441 63.6248 44.3083 63.6767L43.8326 56.7892L45.2357 57.3888L45.2397 57.3968Z" fill="white"/>
<path fill-rule="evenodd" clip-rule="evenodd" d="M53.6262 53.9351C53.9061 56.8652 55.4411 59.1757 58.1513 60.2949C60.8256 61.3982 63.6677 61.0744 66.4379 60.5348C72.6619 59.3316 81.2843 53.4194 83.6427 47.5472C85.0098 44.1454 84.0944 40.4079 81.3362 38.2453C78.3861 35.9348 74.2129 36.3385 70.903 37.3339C69.1042 37.8775 67.917 38.3452 66.242 39.1167C65.8943 39.2766 65.0148 39.7763 64.751 39.8242L64.3473 33.996L60.4698 36.0227C59.1946 36.7223 57.8795 37.3658 56.5883 38.0774C56.7402 38.2972 57.9075 38.9688 58.1913 39.2606L56.9241 41.4472C56.0926 43.0661 55.3691 44.5012 54.7575 46.2761L54.1459 48.2947C53.6742 50.0656 53.4464 52.1282 53.6183 53.9311L53.6262 53.9351ZM63.8236 55.3062C62.5564 55.4141 61.1973 55.2742 60.2979 54.7346C59.7063 54.3788 59.0307 53.6113 59.0147 52.8997C58.9988 52.1882 59.0987 50.7252 59.4105 50.1775C59.8262 49.446 60.7136 48.4826 61.3492 47.955C62.6284 46.8877 63.4918 46.296 65.1068 45.4606C66.29 44.845 69.5799 43.346 70.8231 42.8503C72.9377 42.0068 75.468 41.1954 77.4268 42.4625C78.2303 42.9822 78.8419 44.1334 78.7659 45.2567C78.7059 46.1721 78.1263 47.0515 77.5507 47.6991C77.4428 47.819 77.4468 47.851 77.3228 47.9709C77.139 48.1428 76.9831 48.2907 76.8032 48.4906C76.2795 49.0662 74.5247 50.3654 73.8931 50.7851C70.7551 52.8758 67.857 54.9664 63.8236 55.3102V55.3062Z" fill="#FF0000"/>
<path fill-rule="evenodd" clip-rule="evenodd" d="M63.0601 40.9475C62.9162 41.3073 62.6444 41.735 62.4445 42.1188C61.8169 43.334 61.3092 44.2214 60.6617 45.5445C58.8948 49.1342 57.7716 52.7758 59.4145 56.6533C60.126 58.3362 61.9848 60.0671 62.2566 60.7187C60.2539 60.7307 58.0754 60.1031 56.5044 58.8759C54.4617 57.2809 53.7821 54.3028 53.99 51.6885C54.2538 48.3947 55.609 44.6251 57.1759 41.8549L58.7429 39.1407C58.4671 38.8968 57.4917 38.3612 57.3518 38.1134C57.9594 37.9135 63.6557 34.7196 63.9915 34.6676L64.4672 41.5551L63.0641 40.9555L63.0601 40.9475Z" fill="white"/>
<path fill-rule="evenodd" clip-rule="evenodd" d="M15.7908 72.6069H16.0826C16.6982 72.6069 17.138 72.527 17.3978 72.3711C17.6576 72.2112 17.8135 71.9434 17.8695 71.5636C17.9175 71.2398 17.8535 71.008 17.6736 70.8761C17.4977 70.7401 17.134 70.6722 16.5903 70.6722H16.3265L15.7948 72.6109L15.7908 72.6069ZM17.126 67.6821L16.6423 69.457H16.8022C17.3538 69.457 17.7456 69.385 17.9774 69.2371C18.2093 69.0932 18.3492 68.8414 18.3971 68.4936C18.4411 68.1938 18.3851 67.9819 18.2332 67.862C18.0813 67.7421 17.7536 67.6821 17.2539 67.6821H17.122H17.126ZM14.004 73.8181L15.9947 66.4789H17.4578C18.0773 66.4789 18.5171 66.5149 18.7889 66.5788C19.0607 66.6468 19.2846 66.7587 19.4565 66.9186C19.6323 67.0825 19.7563 67.2744 19.8282 67.4943C19.8962 67.7141 19.9122 67.958 19.8762 68.2298C19.8082 68.7055 19.6163 69.0972 19.3046 69.413C18.9888 69.7288 18.597 69.9167 18.1253 69.9846C18.565 70.0566 18.8968 70.2325 19.1127 70.5203C19.3285 70.8081 19.4045 71.1679 19.3405 71.5996C19.2846 71.9793 19.1566 72.3231 18.9608 72.6309C18.7609 72.9387 18.5011 73.1946 18.1773 73.3944C17.9334 73.5503 17.6416 73.6543 17.3059 73.7182C16.9661 73.7822 16.4144 73.8141 15.6389 73.8141H14L14.004 73.8181ZM20.3839 73.8181L20.9875 72.575H23.1101L23.3459 73.8181H24.5851L23.242 68.0419H21.9668L19.0767 73.8181H20.3839ZM21.4392 71.6276L22.1187 70.1325C22.1907 69.9766 22.2586 69.8088 22.3226 69.6289C22.3865 69.449 22.4465 69.2531 22.5025 69.0413C22.5225 69.3171 22.5384 69.5569 22.5584 69.7528C22.5784 69.9527 22.6024 70.1205 22.6264 70.2605L22.8942 71.6276H21.4392ZM25.1967 73.8181L25.9322 68.0419H27.1475L28.8743 71.02C29.0582 71.3478 29.1901 71.5916 29.2701 71.7595C29.35 71.9234 29.414 72.0833 29.4619 72.2312C29.4739 71.9594 29.4859 71.7155 29.4979 71.5076C29.5139 71.2998 29.5299 71.1319 29.5419 71.012L29.9256 68.0459H31.0249L30.2854 73.8221H29.1541L27.2314 70.4603C27.1115 70.2565 27.0155 70.0766 26.9436 69.9207C26.8676 69.7648 26.8077 69.6169 26.7557 69.473V69.6568C26.7557 69.8567 26.7517 70.0446 26.7397 70.2285C26.7317 70.4124 26.7157 70.5882 26.6957 70.7481L26.28 73.8181H25.1927H25.1967ZM31.5206 73.8181L32.2561 68.0419H33.4274L33.0916 70.6402L35.2702 68.0419H36.6493L34.2668 70.8121L35.9457 73.8181H34.6346L33.0556 70.9L32.6918 73.8181H31.5166H31.5206ZM38.3602 72.4071L39.7273 72.1432C39.7033 72.3471 39.7193 72.499 39.7673 72.5989C39.8192 72.6989 39.9112 72.7508 40.0391 72.7508C40.3029 72.7508 40.5667 72.2472 40.8306 71.2438C40.8865 71.036 40.9265 70.8801 40.9545 70.7761L42.0578 66.7108H43.4928L42.3496 70.924C42.3216 71.024 42.2816 71.1759 42.2297 71.3797C41.9578 72.4031 41.69 73.0666 41.4262 73.3784C41.2503 73.5823 41.0384 73.7342 40.7866 73.8341C40.5348 73.9341 40.2389 73.986 39.8992 73.986C39.3395 73.986 38.9278 73.8541 38.66 73.5863C38.3961 73.3185 38.2962 72.9307 38.3562 72.4191L38.3602 72.4071ZM43.6687 73.8181L44.2723 72.575H46.3949L46.6308 73.8181H47.87L46.5269 68.0419H45.2517L42.3616 73.8181H43.6687ZM44.724 71.6276L45.4036 70.1325C45.4755 69.9766 45.5435 69.8088 45.6075 69.6289C45.6714 69.449 45.7314 69.2531 45.7873 69.0413C45.8073 69.3171 45.8233 69.5569 45.8433 69.7528C45.8633 69.9527 45.8873 70.1205 45.9113 70.2605L46.1791 71.6276H44.724ZM48.8294 72.2672C48.9613 72.503 49.1132 72.6789 49.2891 72.7908C49.461 72.9027 49.6648 72.9587 49.9007 72.9587C50.1485 72.9587 50.3444 72.8868 50.4843 72.7508C50.6242 72.6109 50.6961 72.4191 50.6961 72.1752C50.6961 72.0193 50.6562 71.8754 50.5722 71.7515C50.4923 71.6276 50.3684 71.5196 50.2045 71.4237C50.1645 71.3997 50.1045 71.3677 50.0246 71.3198C49.5689 71.0639 49.2611 70.8441 49.1012 70.6602C48.9893 70.5243 48.9013 70.3724 48.8414 70.2005C48.7814 70.0286 48.7534 69.8407 48.7534 69.6449C48.7534 69.1492 48.9253 68.7334 49.2731 68.4017C49.6168 68.0699 50.0526 67.902 50.5802 67.902C50.896 67.902 51.1798 67.9619 51.4277 68.0859C51.6755 68.2098 51.8834 68.3897 52.0593 68.6335L51.4596 69.437C51.3597 69.2451 51.2398 69.1012 51.0919 69.0053C50.948 68.9093 50.7801 68.8614 50.5882 68.8614C50.3724 68.8614 50.1925 68.9253 50.0526 69.0532C49.9127 69.1812 49.8407 69.3451 49.8407 69.5449C49.8407 69.8048 50.0726 70.0726 50.5363 70.3404C50.6242 70.3924 50.6922 70.4363 50.7361 70.4643C51.1558 70.7202 51.4397 70.968 51.5916 71.2158C51.7395 71.4597 51.8154 71.7755 51.8154 72.1632C51.8154 72.7029 51.6395 73.1386 51.2878 73.4704C50.936 73.8022 50.4683 73.966 49.8847 73.966C49.5329 73.966 49.2171 73.8941 48.9413 73.7502C48.6655 73.6063 48.4176 73.3824 48.2018 73.0866L48.8374 72.2632L48.8294 72.2672ZM53.2705 73.8181L53.8741 72.575H55.9967L56.2325 73.8181H57.4717L56.1286 68.0419H54.8534L51.9633 73.8181H53.2705ZM54.3258 71.6276L55.0053 70.1325C55.0773 69.9766 55.1453 69.8088 55.2092 69.6289C55.2732 69.449 55.3331 69.2531 55.3891 69.0413C55.4091 69.3171 55.4251 69.5569 55.4451 69.7528C55.465 69.9527 55.489 70.1205 55.513 70.2605L55.7808 71.6276H54.3258ZM60.2299 72.3871L61.6131 72.1193C61.5891 72.3231 61.6051 72.479 61.657 72.579C61.709 72.6789 61.8009 72.7309 61.9328 72.7309C62.2007 72.7309 62.4685 72.2232 62.7323 71.2078C62.7883 71 62.8283 70.8401 62.8562 70.7361L63.9715 66.6308H65.4226L64.2673 70.8881C64.2393 70.988 64.1994 71.1399 64.1434 71.3478C63.8676 72.3791 63.5998 73.0506 63.3319 73.3664C63.1561 73.5703 62.9402 73.7262 62.6844 73.8261C62.4285 73.9261 62.1327 73.978 61.7889 73.978C61.2213 73.978 60.8056 73.8421 60.5378 73.5743C60.2739 73.3025 60.17 72.9107 60.2299 72.3991V72.3871ZM65.5785 73.8141L66.1821 72.571H68.3047L68.5406 73.8141H69.7797L68.4366 68.0379H67.1614L64.2713 73.8141H65.5785ZM66.6338 71.6236L67.3133 70.1285C67.3853 69.9726 67.4533 69.8048 67.5172 69.6249C67.5812 69.445 67.6411 69.2491 67.6971 69.0373C67.7171 69.3131 67.7331 69.5529 67.7531 69.7488C67.773 69.9487 67.797 70.1165 67.821 70.2565L68.0888 71.6236H66.6338ZM70.3913 73.8141L71.1269 68.0379H72.2981L71.9623 70.6362L74.1409 68.0379H75.52L73.1376 70.8081L74.8165 73.8141H73.5053L71.9263 70.896L71.5626 73.8141H70.3873H70.3913ZM75.9517 73.8141L76.5553 72.571H78.678L78.9138 73.8141H80.153L78.8099 68.0379H77.5347L74.6446 73.8141H75.9517ZM77.007 71.6236L77.6866 70.1285C77.7586 69.9726 77.8265 69.8048 77.8905 69.6249C77.9544 69.445 78.0144 69.2491 78.0704 69.0373C78.0903 69.3131 78.1063 69.5529 78.1263 69.7488C78.1463 69.9487 78.1703 70.1165 78.1943 70.2565L78.4621 71.6236H77.007ZM82.3516 70.5323H82.5235C82.9672 70.5323 83.267 70.4723 83.4269 70.3444C83.5868 70.2205 83.6667 70.0046 83.6667 69.7008C83.6667 69.441 83.5988 69.2611 83.4668 69.1532C83.3349 69.0492 83.0711 68.9973 82.6834 68.9973H82.5514L82.3556 70.5323H82.3516ZM80.7646 73.8141L81.5001 68.0379H82.6634C83.1471 68.0379 83.4988 68.0659 83.7147 68.1179C83.9305 68.1698 84.1184 68.2578 84.2823 68.3857C84.4622 68.5216 84.5981 68.6895 84.694 68.8893C84.786 69.0892 84.834 69.3091 84.834 69.5489C84.834 69.9886 84.714 70.3564 84.4742 70.6442C84.2343 70.932 83.8906 71.1279 83.4389 71.2318L84.706 73.8141H83.4269L82.2796 71.1639L81.9438 73.8141H80.7646ZM86.1691 73.8141L86.7727 69.0492H85.3256L85.4576 68.0379H89.419L89.2911 69.0492H87.9399L87.3363 73.8141H86.1651H86.1691ZM89.7987 73.8141L90.4023 72.571H92.525L92.7608 73.8141H94L92.6569 68.0379H91.3817L88.4916 73.8141H89.7987ZM90.854 71.6236L91.5336 70.1285C91.6056 69.9726 91.6735 69.8048 91.7375 69.6249C91.8014 69.445 91.8614 69.2491 91.9174 69.0373C91.9373 69.3131 91.9533 69.5529 91.9733 69.7488C91.9933 69.9487 92.0173 70.1165 92.0413 70.2565L92.3091 71.6236H90.854Z" fill="black"/>
</svg>
