<svg width="108" height="108" viewBox="0 0 108 108" fill="none" xmlns="http://www.w3.org/2000/svg">
<path d="M17.7316 54.3024C18.3684 54.5941 19.9331 55.1522 22.1265 54.3461C24.3727 53.5201 25.4914 53.0972 26.9209 53.3094C26.8911 53.1987 26.8553 53.0901 26.8152 52.9837C25.3456 52.913 24.2085 53.0823 22.7939 53.6897C20.4327 54.7044 18.6991 54.2066 17.7699 53.7404C17.7436 53.9146 17.7305 54.0935 17.7305 54.2744C17.7305 54.2836 17.7316 54.2932 17.7316 54.3024Z" fill="#234089"/>
<path d="M22.1143 55.4857C24.3701 54.6562 25.2844 54.0371 27.0506 54.2538C27.0506 54.1364 27.0439 54.019 27.0318 53.9033C25.6598 53.8192 24.3974 54.0576 22.7937 54.6682C20.1675 55.6688 18.5929 55.1238 17.7502 54.6502C17.7726 54.8708 17.8155 55.0866 17.8769 55.2966C18.5787 55.6542 20.0649 56.2393 22.1143 55.4857Z" fill="#234089"/>
<path d="M21.9303 53.4366C24.0605 52.5847 25.1402 52.155 26.4813 52.308C26.4313 52.2271 26.3777 52.1483 26.3224 52.0717C24.5328 51.9191 22.9354 52.7231 21.4016 53.185C20.184 53.5519 18.7811 53.2028 18.0037 52.8895C17.9349 53.0573 17.8785 53.2301 17.8352 53.4071C18.5419 53.7169 20.0385 54.193 21.9303 53.4366Z" fill="#234089"/>
<path d="M22.1143 56.4295C24.3215 55.6185 25.2425 55.0079 26.9356 55.1853C26.9587 55.0941 26.9786 55.0025 26.9956 54.9089C25.7485 54.8386 24.011 55.2899 22.8977 55.7043C20.6198 56.5516 19.0917 56.289 18.006 55.6774C18.1061 55.9424 18.1969 56.0847 18.3534 56.3227C19.1644 56.6928 20.4602 57.038 22.1143 56.4295Z" fill="#234089"/>
<path d="M22.9437 56.8211C21.5153 57.5303 19.8449 57.3256 18.6915 56.7671C19.5433 57.7436 20.8831 58.3737 22.3906 58.3737C24.2746 58.3737 25.8982 57.3898 26.6323 55.9745C25.3841 55.8691 24.1589 56.2168 22.9437 56.8211Z" fill="#234089"/>
<path d="M22.3371 52.2104C23.6381 51.4756 24.6603 51.129 25.5381 51.251C24.7089 50.5829 23.6044 50.1746 22.3906 50.1746C20.5436 50.1746 18.9487 51.1194 18.1944 52.4896C19.0069 52.8604 20.5028 53.2475 22.3371 52.2104Z" fill="#234089"/>
<path d="M28.447 52.1059C28.5137 52.1978 28.5761 52.2918 28.634 52.3869C29.1357 52.3773 29.8268 52.4721 30.1912 52.5519C30.122 52.4266 30.0454 52.3025 29.9623 52.1811C29.7317 52.1268 29.273 52.0644 28.447 52.1059Z" fill="#234089"/>
<path d="M29.0066 55.4244C29.3489 55.4574 30.0113 55.5294 30.3917 55.6291C30.4332 55.5262 30.4694 55.4215 30.5017 55.3158C30.2601 55.2668 29.8567 55.2062 29.0899 55.138C29.0665 55.2349 29.0381 55.33 29.0066 55.4244Z" fill="#234089"/>
<path d="M29.0533 53.3228C29.3471 53.3228 30.089 53.3416 30.5666 53.5257C30.5371 53.3976 30.5002 53.2713 30.4562 53.1461C29.9922 53.0396 29.3521 53.018 28.948 53.0173C28.9874 53.1177 29.0228 53.2195 29.0533 53.3228Z" fill="#234089"/>
<path d="M29.193 54.3007C29.193 54.3256 29.1919 54.3508 29.1919 54.3756C29.4662 54.3933 30.1907 54.4498 30.6445 54.5715C30.6519 54.4817 30.6551 54.3912 30.6551 54.3007V54.2979C30.362 54.1918 29.8855 54.0797 29.1862 54.0822C29.1905 54.1546 29.193 54.2273 29.193 54.3007Z" fill="#234089"/>
<path d="M28.6618 56.1684C27.6247 57.9119 25.1798 59.1364 22.3279 59.1364C18.5361 59.1364 15.4621 56.9717 15.4621 54.3008C15.4621 51.6298 18.5361 49.4641 22.3279 49.4641C24.5546 49.4641 26.5337 50.2117 27.7879 51.3694L29.3072 51.4088C27.8209 49.9587 25.2511 49.0001 22.3279 49.0001C17.7286 49.0001 14 51.3733 14 54.3008C14 57.2282 17.7286 59.6008 22.3279 59.6008C25.7751 59.6008 28.7331 58.2674 29.9987 56.3668C29.6198 56.2887 29.1415 56.2064 28.6618 56.1684Z" fill="#234089"/>
<path d="M91.4096 55.0547H92.512L92.3292 53.3165H92.3158L91.4096 55.0547ZM91.9372 52.0251H93.2084L94 56.8535H92.7351L92.6209 55.9882H90.9228L90.436 56.8535H89.1165L91.9372 52.0251ZM90.4229 53.1068H89.0033L88.2111 56.8535H86.9533L87.7445 53.1068H86.3242L86.541 52.0251H90.6393L90.4229 53.1068ZM82.9164 54.1617H83.9169C84.3704 54.1617 84.7624 54.0201 84.7624 53.4992C84.7624 53.0866 84.4179 52.9986 84.0865 52.9986H83.1594L82.9164 54.1617ZM82.1046 52.0251H84.4722C85.351 52.0251 86.0202 52.2479 86.0202 53.2761C86.0202 53.9992 85.676 54.514 84.9178 54.6215V54.635C85.2765 54.7237 85.4117 54.9734 85.4117 55.4404C85.4117 55.7916 85.3918 56.0623 85.3918 56.3391C85.3918 56.509 85.3918 56.718 85.4656 56.8535H84.2015C84.1809 56.7592 84.1603 56.6712 84.1603 56.5764C84.1603 56.3259 84.1944 56.0691 84.1944 55.7444C84.1944 55.319 84.012 55.0958 83.566 55.0958H82.7269L82.3618 56.8535H81.1033L82.1046 52.0251ZM78.2153 55.0547H79.318L79.1356 53.3165H79.1228L78.2153 55.0547ZM78.7443 52.0251H80.0155L80.8067 56.8535H79.5419L79.4269 55.9882H77.7288L77.242 56.8535H75.9233L78.7443 52.0251ZM73.1381 52.0251H74.3951L73.3878 56.8535H72.1301L73.1381 52.0251ZM66.8826 52.0251H68.6136L68.8432 55.4673H68.857L70.5207 52.0251H72.2521L71.2448 56.8535H70.0545L70.9603 53.0192H70.9475L69.0401 56.8535H68.0736L67.7887 53.0192H67.7752L67.0578 56.8535H65.8682L66.8826 52.0251ZM65.4889 54.784C65.2186 56.0822 64.8265 56.955 63.0816 56.955C61.8238 56.955 61.127 56.3259 61.127 55.5617C61.127 55.1562 61.1955 54.8645 61.2622 54.5473L61.81 52.0251H63.0685L62.5068 54.608C62.4596 54.8386 62.3844 55.0884 62.3844 55.3449C62.3844 55.7036 62.6555 55.92 63.1082 55.92C63.9746 55.92 64.1098 55.2775 64.2847 54.514L64.8059 52.0251H66.064L65.4889 54.784ZM57.8337 53.925H58.7271C59.2341 53.925 59.4843 53.7625 59.4843 53.391C59.4843 53.0398 59.1195 53.0118 58.8492 53.0118H58.0239L57.8337 53.925ZM57.4285 55.8661H58.4156C58.8552 55.8661 59.2746 55.7714 59.2746 55.2512C59.2746 54.8046 58.8687 54.7709 58.5451 54.7709H57.6585L57.4285 55.8661ZM56.9818 52.0251H59.2341C60.5394 52.0251 60.7424 52.5519 60.7424 53.0795C60.7424 53.7157 60.4043 54.1485 59.8497 54.2702V54.2834C60.2758 54.3848 60.5331 54.7971 60.5331 55.2307C60.5331 56.2117 59.7486 56.8468 58.334 56.8535H55.9739L56.9818 52.0251ZM49.8543 52.0251H51.1124L50.7132 53.9186H50.7274L52.6948 52.0251H54.3581L52.0522 54.0134L53.486 56.8535H52.0522L51.0581 54.8248L50.4028 55.3861L50.0909 56.8535H48.8331L49.8543 52.0251ZM44.7756 52.0251H46.0668L47.1968 55.1828H47.2099L47.812 52.0251H49.0293L48.0214 56.8535H46.7306L45.614 53.6955H45.6005L44.9846 56.8535H43.768L44.7756 52.0251ZM40.8874 55.0547H41.9897L41.807 53.3165H41.7932L40.8874 55.0547ZM41.415 52.0251H42.6859L43.4774 56.8535H42.2133L42.098 55.9882H40.4006L39.9131 56.8535H38.5954L41.415 52.0251ZM36.0387 53.925H36.931C37.4384 53.925 37.6885 53.7625 37.6885 53.391C37.6885 53.0398 37.3238 53.0118 37.0527 53.0118H36.2281L36.0387 53.925ZM35.6324 55.8661H36.6198C37.0591 55.8661 37.4792 55.7714 37.4792 55.2512C37.4792 54.8046 37.0733 54.7709 36.7483 54.7709H35.8627L35.6324 55.8661ZM35.1864 52.0251H37.4384C38.744 52.0251 38.9473 52.5519 38.9473 53.0795C38.9473 53.7157 38.6088 54.1485 38.0539 54.2702V54.2834C38.4797 54.3848 38.7369 54.7971 38.7369 55.2307C38.7369 56.2117 37.9517 56.8468 36.5393 56.8535H34.1784L35.1864 52.0251Z" fill="#234089"/>
</svg>
