<svg width="108" height="108" viewBox="0 0 108 108" fill="none" xmlns="http://www.w3.org/2000/svg">
<path d="M14.0545 52.6984C14.0545 52.4699 14.0792 52.2507 14.1286 52.0377C14.2737 51.3923 14.7925 50.5278 15.7188 50.5278C17.0187 50.5278 16.8087 52.6243 14.9221 52.1982C15.1198 52.5626 15.725 53.6772 15.9782 54.0972C16.6605 55.2335 17.9543 55.5268 18.7139 55.0636C18.2291 55.4187 17.6332 55.6287 16.9848 55.6287C15.3668 55.6287 14.0545 54.3164 14.0545 52.6984ZM18.26 49.9905C18.26 49.9905 18.2538 49.9905 18.2476 49.9905C18.2322 49.9905 18.2168 50.0028 18.2168 50.0214C18.2168 50.0337 18.2229 50.043 18.2353 50.0492C19.2264 50.5185 19.915 51.5282 19.915 52.7015C19.915 53.0443 19.8563 53.3716 19.7483 53.6772C19.5445 54.2824 18.8405 54.4276 18.3804 53.6587C18.297 53.5198 17.8184 52.6212 17.6733 52.3526C19.9181 51.9234 18.6336 49.0364 15.7898 49.9627C15.762 49.972 15.7682 50.009 15.7929 50.0028C18.4175 49.4409 18.8281 52.3186 16.6976 52.4082C16.9353 52.8281 17.3337 53.5229 17.4942 53.8069C17.9234 54.5727 18.6459 54.7425 19.316 54.3782C19.3716 54.3473 19.4179 54.3133 19.4457 54.2824C19.3963 54.3596 19.3438 54.4368 19.2851 54.5078C18.998 54.8444 17.7906 55.2489 16.9477 53.881C16.7563 53.5692 16.2838 52.72 16.0955 52.3526C17.7752 52.3711 18.0562 50.2838 16.2746 50.1418C15.4996 50.0769 14.249 50.6266 13.7519 52.0068C13.616 52.3742 13.5419 52.7725 13.5419 53.1863C13.5419 55.0852 15.0827 56.626 16.9817 56.626C18.8806 56.626 20.4214 55.0852 20.4214 53.1863C20.4214 51.7381 19.526 50.4969 18.2569 49.9905" fill="#009E5E"/>
<path d="M14.4034 57.892H14.2861V57.5987H14.4188C14.5424 57.5987 14.6165 57.6511 14.6165 57.7407C14.6165 57.8302 14.5362 57.892 14.4034 57.892ZM14.5918 57.9754C14.7091 57.9476 14.7894 57.8549 14.7894 57.7376C14.7894 57.4844 14.5856 57.4504 14.3818 57.4504H14.1193V58.4941H14.2861V58.0402H14.3664C14.4435 58.0402 14.4868 58.0402 14.53 58.1359L14.6906 58.4972H14.8758L14.6751 58.0773C14.6473 58.0217 14.6257 57.997 14.5887 57.9784M15.0611 58.4972H15.6539V58.349H15.2247V58.0278H15.6138V57.8796H15.2247V57.5987H15.6539V57.4504H15.0611V58.4972ZM16.0059 57.7098C16.0059 57.5956 16.1264 57.5832 16.1758 57.5832C16.2499 57.5832 16.29 57.5956 16.3672 57.6264L16.3765 57.6326L16.4012 57.4782H16.395C16.3271 57.4504 16.2468 57.4381 16.1727 57.4381C15.9689 57.4381 15.833 57.5493 15.833 57.7253C15.833 57.9013 15.9658 57.9661 16.0862 58.0217C16.1881 58.068 16.2746 58.1112 16.2746 58.21C16.2746 58.3274 16.1603 58.3675 16.0831 58.3675C15.9998 58.3675 15.901 58.3304 15.8732 58.3181H15.8608L15.8454 58.4694H15.8516C15.9195 58.4941 15.9905 58.5157 16.0646 58.5157C16.3085 58.5157 16.4475 58.4015 16.4475 58.2008C16.4475 58.0001 16.2993 57.929 16.1789 57.8735C16.0862 57.8302 16.0059 57.7901 16.0059 57.7098ZM17.4386 57.9754C17.4386 58.1575 17.3522 58.3675 17.1083 58.3675C16.8643 58.3675 16.7779 58.1575 16.7779 57.9754C16.7779 57.8488 16.818 57.7376 16.889 57.6666C16.9446 57.611 17.0187 57.5832 17.1052 57.5832C17.1916 57.5832 17.2657 57.611 17.3244 57.6666C17.3954 57.7376 17.4356 57.8488 17.4356 57.9754M17.6085 57.9754C17.6085 57.6511 17.4078 57.435 17.1052 57.435C16.8026 57.435 16.6019 57.6511 16.6019 57.9754C16.6019 58.2996 16.7995 58.5157 17.1052 58.5157C17.4109 58.5157 17.6085 58.3027 17.6085 57.9754ZM18.4391 58.4972H18.6398V57.4535H18.4761V58.2594C18.4483 58.2131 18.0346 57.4535 18.0346 57.4535H17.8184V58.4972H17.9821V57.6728C18.0099 57.7191 18.436 58.4972 18.436 58.4972M19.492 58.0989H19.1091C19.1184 58.0773 19.2851 57.6604 19.3005 57.6234C19.316 57.6604 19.4827 58.0773 19.492 58.0989ZM19.8316 58.4972L19.3901 57.4535H19.2234L18.7787 58.4972H18.9516C18.9516 58.4972 19.0504 58.2502 19.0566 58.2378H19.5476L19.6525 58.4972H19.8316Z" fill="#F7922A"/>
<path d="M91.8066 55.7028C91.504 55.7028 91.1798 55.4959 91.1798 55.1624C91.1798 54.6005 91.9332 54.5171 92.3809 54.5171C92.3809 54.5171 92.7051 54.5295 92.7607 54.5295V54.8043C92.7607 55.3601 92.3933 55.7028 91.8035 55.7028M93.5419 56.2401L93.5358 56.1907C93.5172 56.0517 93.508 55.8232 93.508 55.4928V54.0076C93.508 52.964 93.0355 52.4792 92.0197 52.4792C91.6028 52.4792 91.1983 52.5965 90.8155 52.8219L90.7908 52.8343L90.834 53.5074L90.8988 53.4518C91.1613 53.2326 91.5503 53.0967 91.9147 53.0967C92.4983 53.0967 92.7422 53.3438 92.7576 53.9459C92.6743 53.9459 92.0969 53.9335 92.0969 53.9335C91.4608 53.9335 90.3863 54.1929 90.3863 55.1593C90.3863 55.9097 90.871 56.3234 91.7449 56.3234C92.3254 56.3234 92.6681 56.027 92.8287 55.8386V56.2401H93.5419ZM88.9227 51.0156V51.8462H89.7564V51.0156H88.9227ZM88.969 52.5657V56.2401H89.7162V52.5657H88.969ZM86.7026 52.4792C86.2086 52.4792 85.7794 52.7077 85.554 53.0628V52.5626H84.8284V56.237H85.5756V54.5325C85.5756 53.9984 85.7114 53.0998 86.6223 53.0998C87.138 53.1307 87.3387 53.4796 87.3387 54.338V56.2401H88.0859V54.0663C88.0859 53.0288 87.6073 52.4823 86.6995 52.4823M82.2285 55.7059C81.9259 55.7059 81.6017 55.499 81.6017 55.1655C81.6017 54.6036 82.3551 54.5202 82.8059 54.5202C82.8059 54.5202 83.1301 54.5325 83.1857 54.5325V54.8073C83.1857 55.3631 82.8182 55.7059 82.2285 55.7059ZM83.9669 56.2431L83.9607 56.1937C83.9422 56.0548 83.9329 55.8263 83.9329 55.4959V54.0107C83.9329 52.9671 83.4605 52.4823 82.4446 52.4823C82.0278 52.4823 81.6233 52.5996 81.2404 52.825L81.2188 52.8374L81.262 53.5105L81.3269 53.4549C81.5893 53.2357 81.9753 53.0998 82.3396 53.0998C82.9232 53.0998 83.1702 53.3469 83.1826 53.949C83.0992 53.949 82.5249 53.9366 82.5249 53.9366C81.8888 53.9366 80.8143 54.196 80.8143 55.1624C80.8143 55.9128 81.296 56.3265 82.1729 56.3265C82.7534 56.3265 83.0961 56.0301 83.2567 55.8417V56.2431H83.9669ZM78.3565 55.7059C78.1311 55.7059 77.9396 55.6225 77.7791 55.4619C77.4919 55.1686 77.3993 54.7024 77.4085 54.3936C77.3993 53.9551 77.5228 53.5753 77.742 53.3499C77.8995 53.1894 78.1033 53.106 78.3503 53.106C79.0512 53.106 79.3692 53.7853 79.3692 54.4152C79.3692 55.0451 79.0512 55.709 78.3565 55.709M79.3692 53.0072C79.1191 52.6676 78.7332 52.4885 78.2083 52.4885C77.109 52.4885 76.6181 53.421 76.6181 54.3473C76.6181 55.2736 77.0318 56.3327 78.2021 56.3327C78.7733 56.3327 79.1809 56.0733 79.397 55.8078V56.2462H80.1165V50.8736H79.3692V53.0072ZM76.4081 52.5348C76.2753 52.507 76.1734 52.4885 75.9758 52.4885C75.6238 52.4885 75.2718 52.717 75.0711 53.0504V52.5749H74.364V56.2493H75.1113V54.5727C75.1113 53.7081 75.4787 53.1523 76.0468 53.1523C76.1827 53.1523 76.3 53.1709 76.3958 53.211L76.4544 53.2357V52.544L76.405 52.5348H76.4081ZM71.9927 53.1091C72.5608 53.1091 72.8263 53.5599 72.8418 54.0231H71.0818C71.1435 53.5723 71.4122 53.1091 71.9958 53.1091M73.6353 54.5572C73.6353 53.1832 73.0888 52.4854 72.0081 52.4854C70.9922 52.4854 70.2821 53.2511 70.2821 54.3442C70.2821 55.6225 70.9583 56.3296 72.1841 56.3296C72.7121 56.3296 73.0023 56.2184 73.237 56.1289L73.3605 56.0826V55.3014L73.2895 55.3601C73.1413 55.4805 72.6411 55.709 72.2119 55.709C71.5882 55.709 71.1003 55.2242 71.0787 54.6005H73.6353V54.5572ZM68.2164 53.5784H67.5649V51.945H68.1206C68.5375 51.945 69.1612 52.1581 69.1612 52.7478C69.1612 53.3376 68.6548 53.5692 68.2195 53.5692M68.1083 51.241H66.7775V56.2401H67.5679V54.2763H68.2133C69.3279 54.2763 69.9949 53.7081 69.9949 52.754C69.9949 51.7999 69.3434 51.241 68.1083 51.241ZM36.0021 54.4615C36.1379 54.619 37.5398 56.2308 37.5398 56.2308H38.605C38.605 56.2308 36.7493 54.2546 36.6937 54.196C36.7524 54.1404 38.4043 52.5657 38.4043 52.5657H37.3792C37.3792 52.5657 36.1349 53.8255 36.0021 53.9582V50.8767H35.2579V56.2277H36.0021V54.4584V54.4615ZM31.108 52.5626V56.2277H31.8522V54.5295C31.8522 53.9953 31.988 53.0967 32.8989 53.0967C33.4146 53.1276 33.6122 53.4765 33.6122 54.3318V56.2277H34.3563V54.057C34.3563 53.0226 33.8777 52.4761 32.973 52.4761C32.4821 52.4761 32.0529 52.7046 31.8306 53.0597V52.5626H31.1049H31.108ZM28.5205 55.6935C28.221 55.6935 27.8968 55.4866 27.8968 55.1532C27.8968 54.5912 28.6471 54.5078 29.0948 54.5078C29.0948 54.5078 29.419 54.5171 29.4746 54.5202V54.795C29.4746 55.3477 29.1103 55.6935 28.5205 55.6935ZM28.4649 56.3142C29.0423 56.3142 29.3851 56.0177 29.5456 55.8294V56.2277H30.2558L30.2496 56.1783C30.2311 56.0363 30.2218 55.8109 30.2218 55.4805V53.9984C30.2218 52.9578 29.7525 52.473 28.7397 52.473C28.326 52.473 27.9215 52.5873 27.5386 52.8158L27.517 52.8281L27.5602 53.5012L27.6251 53.4457C27.8844 53.2264 28.2735 53.0906 28.6348 53.0906C29.2183 53.0906 29.4623 53.3407 29.4746 53.9366C29.3912 53.9366 28.8169 53.9243 28.8169 53.9243C28.1839 53.9243 27.1094 54.1805 27.1094 55.147C27.1094 55.8942 27.5911 56.3049 28.4649 56.3049M24.4571 53.9891C25.0283 53.9891 25.6829 54.0817 25.6829 54.8104C25.6829 55.3292 25.3247 55.5608 24.525 55.5608H24.0402V53.9891H24.4571ZM24.0433 51.9049H24.738C24.9974 51.9049 25.5995 51.9728 25.5995 52.5904C25.5995 53.2789 25.0499 53.3345 24.386 53.3345H24.0433V51.9049ZM26.3869 52.5132C26.3869 51.664 25.794 51.2348 24.6238 51.2348H23.2528V56.2277H24.6022C25.8867 56.2277 26.5135 55.7862 26.5135 54.8784C26.5135 54.2485 26.1152 53.7946 25.4914 53.6803C26.0905 53.4889 26.3869 53.1091 26.3869 52.5193M61.5592 55.6904C61.2597 55.6904 60.9355 55.4836 60.9355 55.1501C60.9355 54.5881 61.6858 54.5048 62.1335 54.5048C62.1335 54.5048 62.4577 54.514 62.5133 54.5171V54.7919C62.5133 55.3446 62.149 55.6904 61.5592 55.6904ZM63.2945 56.2246L63.2853 56.1752C63.2667 56.0363 63.2575 55.8078 63.2575 55.4774V53.9953C63.2575 52.9547 62.7881 52.4699 61.7754 52.4699C61.3616 52.4699 60.9571 52.5842 60.5742 52.8127L60.5526 52.825L60.5959 53.4982L60.6607 53.4426C60.9201 53.2233 61.3091 53.0875 61.6704 53.0875C62.254 53.0875 62.4979 53.3376 62.5102 53.9335C62.4269 53.9335 61.8526 53.9212 61.8526 53.9212C61.2196 53.9212 60.145 54.1775 60.145 55.1439C60.145 55.8911 60.6267 56.3018 61.5006 56.3018C62.078 56.3018 62.4207 56.0054 62.5813 55.817V56.2154H63.2914L63.2945 56.2246ZM56.273 52.5595V56.2246H57.0203V54.5264C57.0203 53.9922 57.1561 53.0937 58.0639 53.0937C58.5796 53.1245 58.7803 53.4734 58.7803 54.3288V56.2246H59.5244V54.0539C59.5244 53.0196 59.0458 52.473 58.1411 52.473C57.6502 52.473 57.221 52.7015 56.9986 53.0566V52.5595H56.273ZM53.7534 55.6904C53.0124 55.6904 52.6727 55.0173 52.6727 54.3905C52.6727 53.7637 53.0525 53.0937 53.7534 53.0937C54.4544 53.0937 54.828 53.7637 54.828 54.3905C54.828 55.0173 54.4914 55.6904 53.7534 55.6904ZM53.7534 56.3111C54.8156 56.3111 55.6153 55.4866 55.6153 54.3936C55.6153 53.3005 54.8496 52.4761 53.7534 52.4761C52.6573 52.4761 51.8854 53.2635 51.8854 54.3936C51.8854 55.5237 52.6882 56.3111 53.7534 56.3111ZM50.0266 55.6904C49.8567 55.6904 49.4862 55.6132 49.2268 55.4434L49.1651 55.4033L49.1218 56.0918L49.1465 56.1042C49.48 56.2833 49.8567 56.3049 50.1501 56.3049C50.7923 56.3049 51.4407 55.9467 51.4407 55.147C51.4407 54.4831 50.9467 54.2577 50.5113 54.0632C50.1778 53.9119 49.8907 53.7822 49.8907 53.4858C49.8907 53.1894 50.2056 53.0937 50.4804 53.0937C50.6225 53.0937 51.0084 53.1801 51.1536 53.2697L51.2122 53.3036L51.2771 52.6243L51.2431 52.6151C51.0023 52.544 50.7367 52.473 50.4094 52.473C49.6035 52.473 49.1033 52.9115 49.1033 53.6186C49.1033 54.2022 49.5943 54.4399 50.0266 54.6499C50.3631 54.8135 50.6534 54.9556 50.6534 55.218C50.6534 55.6657 50.1284 55.6874 50.0235 55.6874M46.8863 53.0906C47.4545 53.0906 47.7169 53.5414 47.7293 54.0015H45.9724C46.0341 53.5506 46.3027 53.0906 46.8832 53.0906M48.5197 54.5356C48.5197 53.1647 47.9732 52.4699 46.8987 52.4699C45.8859 52.4699 45.1788 53.2326 45.1788 54.3226C45.1788 55.6009 45.8519 56.3018 47.0747 56.3018C47.5996 56.3018 47.8898 56.1907 48.1245 56.1042L48.248 56.0579V55.2767L48.177 55.3353C48.0288 55.4558 47.5317 55.6843 47.1025 55.6843C46.4818 55.6843 45.994 55.1995 45.9724 54.5758H48.5228V54.5325L48.5197 54.5356ZM43.7183 52.6181C43.7183 53.069 43.3385 53.3407 42.7025 53.3407H42.1497V51.945H42.7796C43.3787 51.945 43.7183 52.192 43.7183 52.6243M44.5489 52.612C44.5489 51.4047 43.567 51.2441 42.6036 51.2441H41.3593V56.2277H42.1467V54.0509H42.5234C42.8939 54.0509 43.1008 54.0509 43.3076 54.5017L44.0703 56.2246H44.9658L44.0117 54.2114C43.8758 53.949 43.7708 53.8285 43.601 53.7421C44.1722 53.6031 44.5489 53.1616 44.5489 52.6089" fill="black"/>
</svg>
