<svg width="108" height="108" viewBox="0 0 108 108" fill="none" xmlns="http://www.w3.org/2000/svg">
<path d="M14 24.2359C14.1415 23.7237 14.2696 23.2047 14.4313 22.6992C15.6175 18.9789 19.257 16.2157 23.2131 16.0202C23.5366 16.0067 23.8602 16 24.1837 16C44.0455 16 63.9073 16 83.7759 16C87.7186 16 90.7919 17.6243 92.8273 21.048C93.69 22.497 93.9865 24.1078 93.9933 25.7725C94 44.4482 94.0135 63.1306 93.9933 81.8062C93.9933 87.3125 89.7068 91.5585 84.1803 91.5585C64.0489 91.572 43.9174 91.572 23.786 91.5585C19.0278 91.5585 15.1323 88.3302 14.1618 83.7001C14.1348 83.572 14.0607 83.4574 14.0135 83.3294C14.0135 63.6293 14.0135 43.9292 14.0135 24.2224L14 24.2359ZM79.7725 59.3698C78.3235 60.5223 76.9958 61.7557 75.4996 62.7329C71.9882 65.0379 68.1533 66.0017 63.9612 65.0918C61.3867 64.5324 59.1491 63.2856 57.0329 61.7557C56.5813 61.4322 55.7793 61.1356 55.3749 61.3243C54.984 61.513 54.7616 62.3353 54.7279 62.8947C54.6403 64.283 54.674 65.6849 54.7009 67.08C54.7683 70.0522 55.0986 72.984 56.2039 75.7742C57.107 78.0455 58.4347 80.0269 60.888 80.7952C62.5931 81.3277 64.3926 81.7658 66.1651 81.8601C69.9528 82.0623 73.7607 82.0084 77.5552 82.069C78.8694 82.0893 80.1904 82.1567 81.5046 82.2106C82.3673 82.2443 83.0817 81.9545 83.4187 81.1457C83.6681 80.5391 83.8366 79.8652 83.8635 79.2114C83.9242 77.8433 83.8635 76.4684 83.8635 75.0935C83.8635 62.9823 83.8433 50.8711 83.904 38.7599C83.9174 35.7742 83.1693 33.0177 81.9023 30.3757C80.8441 28.1719 79.3816 26.2915 77.0228 25.321C72.8778 23.6091 68.5847 22.8003 64.0893 23.2452C59.8096 23.6698 56.4802 25.6714 53.9528 29.1289C53.9528 29.1289 53.8719 29.0817 53.8315 29.0211C52.0522 26.2174 49.4305 24.5055 46.31 23.6967C41.8551 22.551 37.4406 23.1171 33.107 24.5122C31.2805 25.0986 29.481 25.7658 28.1601 27.262C25.6394 30.1196 24.3387 33.5434 24.1163 37.2502C23.8871 41.0581 24.1297 44.8863 24.123 48.7076C24.1163 58.2847 24.0826 67.8685 24.0691 77.4456C24.0691 78.3555 24.0691 79.2788 24.2039 80.1819C24.433 81.7253 25.3766 82.3656 26.8728 82.1432C27.1087 82.1095 27.3513 82.096 27.5939 82.096C30.9638 82.0758 34.3336 82.0623 37.6967 82.0421C40.5543 82.0219 43.3917 81.8803 46.1752 81.1053C47.8804 80.6335 49.3631 79.8247 50.3067 78.342C51.0615 77.1558 51.7287 75.8618 52.1601 74.5273C53.4271 70.6318 53.3597 66.5813 53.2721 62.5375C53.2721 62.3555 53.2115 62.1668 53.1575 61.9848C52.9217 61.203 52.4297 60.9469 51.6748 61.2906C51.2435 61.4928 50.8458 61.7826 50.4549 62.0657C44.6184 66.3319 38.2426 66.5543 32.2511 62.5846C30.8155 61.6344 29.5484 60.4212 28.1196 59.2552C29.2047 58.2039 30.0539 57.2603 31.0177 56.4515C34.2325 53.7557 37.8922 52.401 42.1516 52.9739C44.9621 53.3513 47.4692 54.4499 49.7675 56.0876C50.1112 56.3302 50.6302 56.337 51.0682 56.4583C51.0008 55.9528 50.9469 55.4406 50.8526 54.9351C50.8324 54.8273 50.6639 54.7464 50.583 54.6453C50.2325 54.1735 49.8147 53.7287 49.5451 53.2165C48.3589 50.9587 47.8062 48.5189 47.8265 45.9916C47.8534 42.6824 49.3092 39.8652 51.2098 37.2637C52.0253 36.1449 52.9756 35.1137 53.9865 33.9006C55.0514 35.2013 56.0758 36.3066 56.9385 37.5265C59.2637 40.829 60.7599 44.3808 59.9107 48.5526C59.4389 50.8576 58.9402 53.1356 57.1677 54.8812C56.9318 55.1103 56.8644 55.5619 56.8172 55.9258C56.743 56.5324 57.0194 56.7211 57.5923 56.4583C57.9562 56.2898 58.2797 56.0404 58.6099 55.8113C66.0101 50.8172 74.0438 52.2662 79.7658 59.3631L79.7725 59.3698Z" fill="#ED1C24"/>
</svg>
