<svg width="109" height="108" viewBox="0 0 109 108" fill="none" xmlns="http://www.w3.org/2000/svg">
<g clip-path="url(#clip0_801_8491)">
<path fill-rule="evenodd" clip-rule="evenodd" d="M15.5112 48.6486C20.8805 45.723 25.4708 44.2779 29.1713 44.1178C36.8036 43.7885 39.2538 46.7719 35.4055 51.2194C33.9184 52.9384 31.549 54.688 27.0586 55.9235C38.4186 49.5449 34.4317 46.4071 29.409 45.8195C26.4314 45.4704 20.628 46.2627 15.5112 48.6486Z" fill="#115588"/>
<path fill-rule="evenodd" clip-rule="evenodd" d="M14.6455 50.4766C17.6347 48.519 20.7155 47.409 23.2821 46.9757C28.4443 46.1059 34.8468 47.5254 29.9875 51.0147C28.7059 51.9349 26.6344 53.0515 23.467 54.2869C25.2776 53.4129 26.5931 52.5472 27.5397 51.8226C31.0629 49.1272 28.9287 47.3735 23.4661 47.938C21.1108 48.1815 18.0795 48.9696 14.6455 50.4766Z" fill="#FECC1A"/>
<path fill-rule="evenodd" clip-rule="evenodd" d="M25.8884 53.5012C26.0353 54.1433 25.871 54.9471 25.3949 55.9136C27.2031 54.754 27.8517 53.7208 27.3409 52.813L27.3301 52.8179C26.887 53.0399 26.4075 53.2685 25.8884 53.5012ZM23.8309 48.5116C20.9251 48.4926 17.0521 49.6629 14.015 51.0543C16.6625 50.1877 18.9799 49.7247 20.8508 49.6208C24.095 49.44 26.5222 49.6711 25.8265 51.5082C25.7217 51.7855 25.4939 52.0892 25.1786 52.435C25.3552 52.5679 25.5013 52.7181 25.6169 52.8839L25.7184 52.8212C26.1038 52.5827 26.4545 52.35 26.7731 52.1263C26.6839 51.9051 26.7789 51.6609 27.0702 51.4083C28.3634 50.2843 28.0556 49.4276 26.2688 48.8623C25.6474 48.6651 24.8328 48.5182 23.8309 48.5116Z" fill="#115588"/>
<path fill-rule="evenodd" clip-rule="evenodd" d="M39.5559 49.4599C40.2764 49.28 42.4147 49.2214 43.0749 49.6522C44.5052 50.5856 43.7244 51.9861 42.4568 52.3311C43.783 52.8105 43.8598 54.2177 42.8307 55.0413C42.4164 55.3731 41.96 55.5546 41.1603 55.6256C40.2162 55.7106 39.2679 55.7164 38.3114 55.5802L39.5559 49.4599ZM40.7782 50.3842L40.4712 51.8953H41.0546C41.3592 51.8953 41.719 51.8326 41.9055 51.7286C42.2719 51.5239 42.3479 51.2153 42.3528 51.0915C42.371 50.6359 42.0673 50.3842 41.4978 50.3842H40.7782ZM40.2756 52.8559L39.9199 54.608H40.798C41.1281 54.608 41.5713 54.4347 41.738 54.2829C41.9055 54.1318 41.9955 53.947 42.0062 53.7266C42.0194 53.4592 41.9352 53.2818 41.7982 53.1473C41.6678 53.0193 41.4186 52.8559 41.1372 52.8559H40.2756Z" fill="#115588"/>
<path fill-rule="evenodd" clip-rule="evenodd" d="M49.6392 55.6866H48.1529L48.0101 54.0402H46.0303L45.1984 55.6866H43.6262L47.0833 49.3319H48.8841L49.6392 55.6866ZM46.4495 53.0061H47.935L47.6932 50.4254L46.4495 53.0061Z" fill="#115588"/>
<path fill-rule="evenodd" clip-rule="evenodd" d="M75.5804 55.6866H74.0941L73.9513 54.0402H71.9723L71.1404 55.6866H69.5674L73.0245 49.3319H74.8253L75.5804 55.6866ZM72.3907 53.0061H73.877L73.6344 50.4254L72.3907 53.0061Z" fill="#115588"/>
<path fill-rule="evenodd" clip-rule="evenodd" d="M93.9851 55.6866H92.4987L92.356 54.0402H90.3761L89.5442 55.6866H87.972L91.4292 49.3319H93.2299L93.9851 55.6866ZM90.7953 53.0061H92.2808L92.0382 50.4254L90.7953 53.0061Z" fill="#115588"/>
<path fill-rule="evenodd" clip-rule="evenodd" d="M57.0643 49.3319L55.7777 55.6866H54.3268L52.6391 50.9726C52.621 51.2796 52.4501 52.1197 52.2199 53.2619L51.7313 55.6866H50.4406L51.7197 49.3319H53.419L54.945 53.8941C54.9582 53.767 55.1447 52.4465 55.3708 51.3357L55.7785 49.3319H57.0643Z" fill="#115588"/>
<path fill-rule="evenodd" clip-rule="evenodd" d="M63.7144 49.3319L60.9348 52.0983L62.4913 55.6866H60.9159L59.7695 52.9326L59.0086 53.6118L58.5844 55.6866H57.2004L58.4986 49.3319H59.8826L59.2719 52.3244L59.4807 52.0677C59.5995 51.9183 59.7052 51.7929 59.7943 51.6897L61.9079 49.3319H63.7144Z" fill="#115588"/>
<path fill-rule="evenodd" clip-rule="evenodd" d="M88.6198 49.3427L87.9043 52.7552C87.5312 54.5337 86.7819 55.6866 84.7566 55.6866C83.5369 55.6866 82.4541 55.0899 82.4541 53.7769C82.4541 53.5912 82.4673 53.3808 82.5135 53.1489L83.2612 49.3427H84.7558L84.0089 52.917C83.9553 53.1753 83.9363 53.4039 83.9396 53.5986C83.9437 53.8239 84.0023 54.0847 84.1674 54.2572C84.6106 54.7194 85.5679 54.7598 86.0837 53.8256C86.2521 53.5211 86.4006 53.1167 86.5128 52.5901L87.2044 49.3427H88.6198Z" fill="#115588"/>
<path fill-rule="evenodd" clip-rule="evenodd" d="M66.8819 53.4666L66.4387 55.6866H65.02L66.2505 49.5209C67.2392 49.3476 68.9451 49.2543 69.6144 49.6562C70.1648 49.988 70.5956 50.3767 70.6014 51.0675C70.6064 51.7467 70.3027 52.4655 69.7126 52.8814C68.7462 53.5623 67.9853 53.4666 66.8819 53.4666ZM67.4835 50.4535L67.0989 52.3747C67.5181 52.4226 67.9019 52.4275 68.237 52.3351C69.4006 52.0165 69.4039 50.5632 68.4714 50.4584C68.1412 50.4213 67.7971 50.446 67.4835 50.4535Z" fill="#115588"/>
<path fill-rule="evenodd" clip-rule="evenodd" d="M78.2254 53.4666L77.783 55.6866H76.3635L77.5949 49.5209C78.5827 49.3476 80.2886 49.2543 80.9579 49.6562C81.5083 49.988 81.94 50.3767 81.9449 51.0675C81.9507 51.7467 81.6462 52.4655 81.0561 52.8814C80.0905 53.5623 79.3296 53.4666 78.2254 53.4666ZM78.8278 50.4535L78.4432 52.3747C78.8617 52.4226 79.2462 52.4275 79.5813 52.3351C80.745 52.0165 80.7483 50.5632 79.8149 50.4584C79.4847 50.4213 79.1406 50.446 78.8278 50.4535Z" fill="#115588"/>
<path fill-rule="evenodd" clip-rule="evenodd" d="M14.1743 62.9227L14.8742 59.5819H16.0172C16.2656 59.5819 16.4389 59.5902 16.5379 59.605C16.7022 59.6281 16.8416 59.6727 16.9555 59.7412C17.0702 59.8097 17.1569 59.9005 17.2163 60.0152C17.2757 60.1291 17.3046 60.2553 17.3046 60.3932C17.3046 60.5789 17.2535 60.739 17.1503 60.8751C17.0471 61.0113 16.8878 61.1145 16.6725 61.1838C16.8425 61.2317 16.9762 61.315 17.0727 61.4355C17.1684 61.556 17.2163 61.693 17.2163 61.8448C17.2163 62.0454 17.1594 62.236 17.0455 62.4159C16.9308 62.5958 16.774 62.7246 16.5734 62.8046C16.3729 62.883 16.0981 62.9227 15.7498 62.9227H14.1743ZM15.2777 60.9304H15.8034C16.0403 60.9304 16.2095 60.9139 16.3126 60.8809C16.4166 60.8471 16.4942 60.7926 16.5462 60.7167C16.5982 60.6407 16.6238 60.5599 16.6238 60.474C16.6238 60.389 16.5998 60.3189 16.5511 60.2644C16.5016 60.21 16.4323 60.1736 16.3423 60.1563C16.292 60.1464 16.1707 60.1423 15.9784 60.1423H15.4428L15.2777 60.9304ZM14.9732 62.3862H15.6367C15.9165 62.3862 16.103 62.3681 16.1979 62.3326C16.2936 62.2963 16.3687 62.2385 16.4265 62.156C16.4835 62.0743 16.5115 61.9868 16.5115 61.896C16.5115 61.7854 16.4703 61.6938 16.3886 61.622C16.3068 61.5494 16.1699 61.5139 15.9776 61.5139H15.1556L14.9732 62.3862ZM19.9001 61.915H18.2578C18.2562 61.9406 18.2553 61.9604 18.2553 61.9744C18.2553 62.137 18.3016 62.2682 18.394 62.3672C18.4864 62.4671 18.6003 62.5166 18.7332 62.5166C18.9527 62.5166 19.1235 62.4044 19.2465 62.1807L19.83 62.2789C19.7153 62.5133 19.5634 62.6891 19.372 62.8063C19.1805 62.9243 18.9667 62.9829 18.7291 62.9829C18.4031 62.9829 18.1382 62.8797 17.9343 62.6734C17.7296 62.4671 17.6273 62.1939 17.6273 61.8531C17.6273 61.5213 17.7197 61.2259 17.9038 60.9659C18.1538 60.6152 18.5128 60.4402 18.9775 60.4402C19.2737 60.4402 19.5098 60.5326 19.6847 60.7158C19.8589 60.8991 19.9464 61.1566 19.9464 61.4875C19.9464 61.6459 19.9307 61.7879 19.9001 61.915ZM19.3488 61.518C19.3505 61.4883 19.3513 61.4669 19.3513 61.4512C19.3513 61.2704 19.3109 61.1343 19.23 61.0435C19.15 60.9519 19.0418 60.9073 18.9057 60.9073C18.7703 60.9073 18.649 60.9585 18.5417 61.0616C18.4344 61.164 18.3626 61.3167 18.3247 61.518H19.3488ZM20.6082 60.5013H21.2222L21.1298 60.9568C21.3551 60.6127 21.5994 60.4402 21.8635 60.4402C21.9567 60.4402 22.0566 60.4641 22.1631 60.5112L21.9114 61.046C21.8519 61.0253 21.7884 61.0146 21.7215 61.0146C21.6085 61.0146 21.4946 61.0575 21.3782 61.1425C21.261 61.2284 21.1702 61.3414 21.1051 61.485C21.039 61.627 20.9747 61.8531 20.9103 62.1626L20.7543 62.9227H20.1015L20.6082 60.5013ZM21.8701 62.2492L22.5047 62.1477C22.5609 62.2822 22.631 62.3771 22.7135 62.4333C22.7969 62.4886 22.9099 62.5166 23.0535 62.5166C23.2021 62.5166 23.3209 62.4836 23.4101 62.4159C23.472 62.3697 23.5033 62.3128 23.5033 62.2476C23.5033 62.2022 23.4876 62.1626 23.4555 62.1279C23.4224 62.0941 23.3317 62.0528 23.1848 62.0041C22.7911 61.8737 22.5485 61.7697 22.4544 61.693C22.3067 61.575 22.234 61.4198 22.234 61.2275C22.234 61.0352 22.3058 60.8694 22.4478 60.7307C22.6459 60.5368 22.9405 60.4402 23.3308 60.4402C23.642 60.4402 23.8772 60.498 24.0356 60.6127C24.1949 60.7266 24.2956 60.8809 24.3377 61.0765L23.7361 61.1821C23.7047 61.0938 23.6527 61.027 23.5826 60.9824C23.4852 60.9222 23.3696 60.8933 23.2335 60.8933C23.0973 60.8933 22.9991 60.9156 22.9388 60.9618C22.8794 61.0072 22.8497 61.06 22.8497 61.1194C22.8497 61.1805 22.8802 61.2308 22.9405 61.2704C22.9784 61.2952 23.1006 61.3381 23.3053 61.3984C23.6238 61.4916 23.8359 61.5824 23.9432 61.6732C24.0951 61.7994 24.1702 61.9521 24.1702 62.1304C24.1702 62.3606 24.0736 62.5604 23.8805 62.7295C23.689 62.8987 23.4175 62.9829 23.0668 62.9829C22.7177 62.9829 22.4486 62.9185 22.258 62.7906C22.0673 62.6619 21.9386 62.482 21.8701 62.2492ZM25.4725 61.178L24.8337 61.1235C24.9063 60.9098 25.0342 60.7423 25.2158 60.6218C25.3982 60.5013 25.6383 60.4402 25.9379 60.4402C26.2499 60.4402 26.481 60.5038 26.6295 60.6284C26.7789 60.7546 26.8532 60.9081 26.8532 61.0889C26.8532 61.1623 26.8474 61.2399 26.8342 61.3216C26.821 61.4041 26.7756 61.6204 26.698 61.9703C26.6336 62.2591 26.6014 62.4622 26.6014 62.5777C26.6014 62.6817 26.6204 62.7956 26.6567 62.9227H26.0188C25.9932 62.8344 25.9784 62.7427 25.9718 62.6487C25.876 62.7551 25.7654 62.8377 25.6416 62.8962C25.517 62.954 25.3908 62.9829 25.2653 62.9829C25.0639 62.9829 24.8989 62.9169 24.7685 62.7848C24.6373 62.6528 24.5721 62.4836 24.5721 62.2756C24.5721 62.0437 24.6439 61.858 24.7875 61.7194C24.9311 61.5807 25.1877 61.4966 25.5575 61.4677C25.8694 61.4413 26.0774 61.4099 26.1822 61.3736C26.2094 61.282 26.2235 61.2085 26.2235 61.1541C26.2235 61.0839 26.1954 61.0253 26.1393 60.9775C26.0832 60.9304 25.999 60.9073 25.8876 60.9073C25.7712 60.9073 25.6788 60.9304 25.6111 60.9775C25.5434 61.0245 25.4964 61.0914 25.4725 61.178ZM26.0955 61.7887C26.0559 61.7994 26.0039 61.8102 25.9379 61.8193C25.6103 61.8589 25.3957 61.9175 25.295 61.9942C25.224 62.0503 25.1877 62.1246 25.1877 62.2179C25.1877 62.2954 25.215 62.3606 25.2703 62.4143C25.3247 62.4671 25.3974 62.4935 25.4865 62.4935C25.5855 62.4935 25.6788 62.4688 25.7654 62.4201C25.8537 62.3722 25.9189 62.3095 25.9618 62.2335C26.0056 62.1576 26.0435 62.038 26.0766 61.877L26.0955 61.7887ZM27.6322 60.5013H28.2512L28.1951 60.791C28.4352 60.5574 28.6878 60.4402 28.9519 60.4402C29.1351 60.4402 29.2754 60.479 29.3744 60.5541C29.4743 60.63 29.537 60.7348 29.5642 60.8685C29.6484 60.7472 29.7681 60.6457 29.9249 60.5632C30.0817 60.4815 30.2442 60.4402 30.4134 60.4402C30.6065 60.4402 30.7576 60.493 30.8657 60.5987C30.9738 60.7035 31.0274 60.8421 31.0274 61.0154C31.0266 61.0988 31.0043 61.2424 30.9589 61.4471L30.6429 62.9227H29.9892L30.3037 61.4471C30.3425 61.2614 30.3631 61.1557 30.3647 61.131C30.3647 61.0616 30.3449 61.0072 30.3037 60.9667C30.2632 60.9271 30.2013 60.9073 30.1205 60.9073C29.9562 60.9073 29.8093 60.9931 29.6798 61.1665C29.5857 61.2902 29.5056 61.5106 29.4396 61.825L29.2102 62.9227H28.5574L28.8635 61.4553C28.8982 61.2861 28.9155 61.1772 28.9155 61.126C28.9155 61.0625 28.8941 61.0097 28.8512 60.9684C28.8074 60.9271 28.748 60.9073 28.6713 60.9073C28.6003 60.9073 28.526 60.9288 28.4509 60.9717C28.3742 61.0146 28.3073 61.0724 28.2512 61.1483C28.1934 61.2226 28.1439 61.3191 28.1026 61.4363C28.0845 61.4916 28.0523 61.6162 28.0102 61.8102L27.7783 62.9227H27.1247L27.6322 60.5013ZM32.2158 61.178L31.5763 61.1235C31.6497 60.9098 31.7768 60.7423 31.9592 60.6218C32.1407 60.5013 32.3809 60.4402 32.6813 60.4402C32.9933 60.4402 33.2243 60.5038 33.3729 60.6284C33.5223 60.7546 33.5965 60.9081 33.5965 61.0889C33.5965 61.1623 33.5908 61.2399 33.5776 61.3216C33.5644 61.4041 33.519 61.6204 33.4414 61.9703C33.3762 62.2591 33.3448 62.4622 33.3448 62.5777C33.3448 62.6817 33.363 62.7956 33.4001 62.9227H32.7614C32.7366 62.8344 32.7209 62.7427 32.7151 62.6487C32.6194 62.7551 32.5088 62.8377 32.3842 62.8962C32.2596 62.954 32.1341 62.9829 32.0079 62.9829C31.8073 62.9829 31.6415 62.9169 31.5111 62.7848C31.3807 62.6528 31.3155 62.4836 31.3155 62.2756C31.3155 62.0437 31.3864 61.858 31.5309 61.7194C31.6745 61.5807 31.9311 61.4966 32.3 61.4677C32.612 61.4413 32.8208 61.4099 32.9256 61.3736C32.9528 61.282 32.9669 61.2085 32.9669 61.1541C32.9669 61.0839 32.9388 61.0253 32.8819 60.9775C32.8257 60.9304 32.7424 60.9073 32.631 60.9073C32.5146 60.9073 32.4213 60.9304 32.3537 60.9775C32.286 61.0245 32.2398 61.0914 32.2158 61.178ZM32.8381 61.7887C32.7985 61.7994 32.7465 61.8102 32.6813 61.8193C32.3537 61.8589 32.1383 61.9175 32.0384 61.9942C31.9666 62.0503 31.9311 62.1246 31.9311 62.2179C31.9311 62.2954 31.9584 62.3606 32.0137 62.4143C32.0681 62.4671 32.1399 62.4935 32.2299 62.4935C32.3281 62.4935 32.4213 62.4688 32.5088 62.4201C32.5963 62.3722 32.6623 62.3095 32.7044 62.2335C32.7482 62.1576 32.7861 62.038 32.82 61.877L32.8381 61.7887ZM35.8743 62.9227H35.1877L35.8875 59.5819H37.2427C37.4845 59.5819 37.6751 59.6108 37.8146 59.6677C37.9557 59.7247 38.0671 59.8188 38.1488 59.95C38.2305 60.0812 38.271 60.238 38.271 60.4204C38.271 60.5888 38.2388 60.753 38.1736 60.9123C38.1084 61.0724 38.0283 61.2003 37.9334 61.296C37.8385 61.3918 37.7362 61.4636 37.6264 61.5139C37.5183 61.5626 37.3706 61.5997 37.1849 61.6261C37.0776 61.641 36.8754 61.6484 36.58 61.6484H36.1409L35.8743 62.9227ZM36.2573 61.0889H36.4694C36.8317 61.0889 37.0735 61.0666 37.1948 61.0212C37.3161 60.9758 37.411 60.904 37.4812 60.8042C37.5505 60.7051 37.586 60.5954 37.586 60.4765C37.586 60.3965 37.5678 60.3313 37.5323 60.2793C37.496 60.2281 37.4465 60.191 37.3821 60.1679C37.3169 60.1439 37.1733 60.1324 36.9505 60.1324H36.4578L36.2573 61.0889ZM39.2184 61.178L38.5796 61.1235C38.6522 60.9098 38.7802 60.7423 38.9617 60.6218C39.1441 60.5013 39.3843 60.4402 39.6847 60.4402C39.9958 60.4402 40.2269 60.5038 40.3754 60.6284C40.5248 60.7546 40.5991 60.9081 40.5991 61.0889C40.5991 61.1623 40.5933 61.2399 40.5801 61.3216C40.5669 61.4041 40.5215 61.6204 40.4439 61.9703C40.3796 62.2591 40.3474 62.4622 40.3474 62.5777C40.3474 62.6817 40.3664 62.7956 40.4027 62.9227H39.7647C39.7391 62.8344 39.7235 62.7427 39.7177 62.6487C39.6219 62.7551 39.5114 62.8377 39.3876 62.8962C39.2629 62.954 39.1367 62.9829 39.0112 62.9829C38.8107 62.9829 38.6448 62.9169 38.5136 62.7848C38.3832 62.6528 38.318 62.4836 38.318 62.2756C38.318 62.0437 38.3898 61.858 38.5334 61.7194C38.677 61.5807 38.9337 61.4966 39.3034 61.4677C39.6153 61.4413 39.8233 61.4099 39.9281 61.3736C39.9554 61.282 39.9694 61.2085 39.9694 61.1541C39.9694 61.0839 39.9413 61.0253 39.8852 60.9775C39.8291 60.9304 39.7449 60.9073 39.6335 60.9073C39.5171 60.9073 39.4247 60.9304 39.357 60.9775C39.2894 61.0245 39.2423 61.0914 39.2184 61.178ZM39.8415 61.7887C39.8019 61.7994 39.7499 61.8102 39.6847 61.8193C39.3562 61.8589 39.1416 61.9175 39.0409 61.9942C38.97 62.0503 38.9337 62.1246 38.9337 62.2179C38.9337 62.2954 38.9609 62.3606 39.0162 62.4143C39.0707 62.4671 39.1433 62.4935 39.2324 62.4935C39.3314 62.4935 39.4247 62.4688 39.5114 62.4201C39.5997 62.3722 39.6649 62.3095 39.7078 62.2335C39.7507 62.1576 39.7895 62.038 39.8225 61.877L39.8415 61.7887ZM41.3699 60.5013H41.9897L41.941 60.748C42.073 60.6383 42.1977 60.559 42.3132 60.5112C42.4279 60.4641 42.5525 60.4402 42.6846 60.4402C42.9388 60.4402 43.1434 60.5285 43.2986 60.7035C43.4529 60.8793 43.5297 61.14 43.5297 61.4875C43.5297 61.9249 43.396 62.2946 43.1286 62.5967C42.9 62.8542 42.6285 62.9829 42.3157 62.9829C41.993 62.9829 41.7495 62.8542 41.5845 62.5958L41.327 63.8462H40.675L41.3699 60.5013ZM41.7619 61.8902C41.7619 62.0809 41.8081 62.2294 41.9014 62.3351C41.9946 62.4407 42.1036 62.4935 42.229 62.4935C42.338 62.4935 42.4428 62.4539 42.5443 62.3747C42.645 62.2954 42.7291 62.165 42.7952 61.9818C42.862 61.7986 42.8958 61.6286 42.8958 61.4726C42.8958 61.2902 42.8521 61.1508 42.7638 61.0534C42.6771 60.956 42.5657 60.9073 42.4312 60.9073C42.3058 60.9073 42.1911 60.9511 42.0879 61.041C41.9839 61.1301 41.9039 61.2614 41.8477 61.4347C41.7908 61.6088 41.7619 61.7598 41.7619 61.8902ZM44.2691 60.5013H44.9227L44.5992 61.9381C44.5596 62.1106 44.5398 62.2179 44.5398 62.2608C44.5398 62.3309 44.5637 62.3904 44.61 62.4415C44.657 62.4919 44.7164 62.5166 44.7899 62.5166C44.8419 62.5166 44.893 62.5051 44.9442 62.4828C44.9954 62.4597 45.0474 62.425 45.101 62.378C45.1547 62.3318 45.2025 62.2789 45.2454 62.2187C45.2883 62.1593 45.328 62.08 45.3651 61.9827C45.3907 61.91 45.4212 61.8011 45.4542 61.6567L45.715 60.5013H46.3686L45.8182 62.9227H45.2091L45.2735 62.6115C45.0276 62.8591 44.7602 62.9829 44.4705 62.9829C44.2873 62.9829 44.1429 62.926 44.0389 62.8112C43.9332 62.6974 43.8804 62.543 43.8804 62.3507C43.8804 62.2674 43.9085 62.1007 43.9646 61.8514L44.2691 60.5013ZM47.5125 61.178L46.8737 61.1235C46.9463 60.9098 47.0743 60.7423 47.2558 60.6218C47.4382 60.5013 47.6784 60.4402 47.9788 60.4402C48.2907 60.4402 48.521 60.5038 48.6695 60.6284C48.8189 60.7546 48.894 60.9081 48.894 61.0889C48.894 61.1623 48.8874 61.2399 48.8742 61.3216C48.861 61.4041 48.8156 61.6204 48.738 61.9703C48.6737 62.2591 48.6415 62.4622 48.6415 62.5777C48.6415 62.6817 48.6605 62.7956 48.6968 62.9227H48.0588C48.0341 62.8344 48.0184 62.7427 48.0118 62.6487C47.916 62.7551 47.8063 62.8377 47.6817 62.8962C47.5571 62.954 47.4308 62.9829 47.3053 62.9829C47.1048 62.9829 46.9389 62.9169 46.8085 62.7848C46.6773 62.6528 46.6121 62.4836 46.6121 62.2756C46.6121 62.0437 46.6839 61.858 46.8275 61.7194C46.9719 61.5807 47.2286 61.4966 47.5975 61.4677C47.9094 61.4413 48.1174 61.4099 48.2231 61.3736C48.2503 61.282 48.2643 61.2085 48.2643 61.1541C48.2643 61.0839 48.2363 61.0253 48.1793 60.9775C48.1232 60.9304 48.039 60.9073 47.9284 60.9073C47.8112 60.9073 47.7188 60.9304 47.6511 60.9775C47.5835 61.0245 47.5372 61.0914 47.5125 61.178ZM48.1356 61.7887C48.096 61.7994 48.044 61.8102 47.9788 61.8193C47.6503 61.8589 47.4357 61.9175 47.335 61.9942C47.2641 62.0503 47.2286 62.1246 47.2286 62.2179C47.2286 62.2954 47.255 62.3606 47.3103 62.4143C47.3648 62.4671 47.4374 62.4935 47.5265 62.4935C47.6255 62.4935 47.7188 62.4688 47.8063 62.4201C47.8938 62.3722 47.959 62.3095 48.0019 62.2335C48.0456 62.1576 48.0836 62.038 48.1166 61.877L48.1356 61.7887ZM52.4114 62.9227H51.7586L51.6348 60.1315L51.1049 62.9227H50.4852L51.1842 59.5819H52.1646L52.2669 61.8778L53.3175 59.5819H54.3054L53.6972 62.9227H53.0741L53.6551 60.1514L52.4114 62.9227ZM56.7235 61.915H55.0803C55.0787 61.9406 55.0779 61.9604 55.0779 61.9744C55.0779 62.137 55.1241 62.2682 55.2173 62.3672C55.3098 62.4671 55.4228 62.5166 55.5557 62.5166C55.7752 62.5166 55.9461 62.4044 56.069 62.1807L56.6525 62.2789C56.5378 62.5133 56.3859 62.6891 56.1945 62.8063C56.003 62.9243 55.7893 62.9829 55.5516 62.9829C55.2256 62.9829 54.9607 62.8797 54.7568 62.6734C54.5522 62.4671 54.4506 62.1939 54.4506 61.8531C54.4506 61.5213 54.5423 61.2259 54.7263 60.9659C54.9764 60.6152 55.3354 60.4402 55.8 60.4402C56.0963 60.4402 56.3323 60.5326 56.5073 60.7158C56.6822 60.8991 56.7689 61.1566 56.7689 61.4875C56.7689 61.6459 56.7532 61.7879 56.7235 61.915ZM56.1722 61.518C56.173 61.4883 56.1738 61.4669 56.1738 61.4512C56.1738 61.2704 56.1334 61.1343 56.0525 61.0435C55.9725 60.9519 55.8644 60.9073 55.7282 60.9073C55.5928 60.9073 55.4723 60.9585 55.3651 61.0616C55.257 61.164 55.1851 61.3167 55.1472 61.518H56.1722ZM57.4497 60.5013H58.0679L58.0126 60.791C58.2527 60.5574 58.5053 60.4402 58.7694 60.4402C58.9526 60.4402 59.0929 60.479 59.1919 60.5541C59.2918 60.63 59.3545 60.7348 59.3817 60.8685C59.4659 60.7472 59.5856 60.6457 59.7424 60.5632C59.8992 60.4815 60.0618 60.4402 60.2309 60.4402C60.4241 60.4402 60.5751 60.493 60.6832 60.5987C60.7913 60.7035 60.8449 60.8421 60.8449 61.0154C60.8441 61.0988 60.8218 61.2424 60.7764 61.4471L60.4604 62.9227H59.8067L60.1212 61.4471C60.16 61.2614 60.1806 61.1557 60.1822 61.131C60.1822 61.0616 60.1624 61.0072 60.1212 60.9667C60.0807 60.9271 60.0188 60.9073 59.938 60.9073C59.7737 60.9073 59.6268 60.9931 59.4973 61.1665C59.4032 61.2902 59.3231 61.5106 59.2571 61.825L59.0277 62.9227H58.3749L58.6811 61.4553C58.7157 61.2861 58.733 61.1772 58.733 61.126C58.733 61.0625 58.7116 61.0097 58.6687 60.9684C58.6249 60.9271 58.5655 60.9073 58.4888 60.9073C58.4178 60.9073 58.3435 60.9288 58.2684 60.9717C58.1917 61.0146 58.1248 61.0724 58.0679 61.1483C58.0109 61.2226 57.9614 61.3191 57.9201 61.4363C57.902 61.4916 57.8698 61.6162 57.8269 61.8102L57.5958 62.9227H56.9422L57.4497 60.5013ZM61.0909 62.9227L61.7907 59.5819H62.4427L62.2042 60.6927C62.3247 60.6011 62.4377 60.5368 62.5417 60.498C62.6465 60.46 62.7613 60.4402 62.8842 60.4402C63.1401 60.4402 63.3456 60.526 63.5007 60.6977C63.6542 60.8685 63.731 61.1186 63.731 61.4471C63.731 61.6674 63.6947 61.882 63.6229 62.0908C63.5502 62.2979 63.4537 62.4679 63.3324 62.5983C63.211 62.7279 63.0839 62.8253 62.9502 62.888C62.8174 62.9515 62.6779 62.9829 62.5318 62.9829C62.1836 62.9829 61.9285 62.8319 61.7668 62.5315L61.6818 62.9227H61.0909ZM61.9682 61.9389C61.9682 62.1032 62.0135 62.2368 62.106 62.3392C62.1984 62.4423 62.3073 62.4935 62.4328 62.4935C62.5426 62.4935 62.6474 62.4539 62.7481 62.3738C62.8471 62.2946 62.9304 62.1667 62.9973 61.9917C63.0633 61.8176 63.0971 61.641 63.0971 61.4627C63.0971 61.2902 63.0526 61.1541 62.9626 61.0559C62.8735 60.9568 62.7654 60.9073 62.6391 60.9073C62.4741 60.9073 62.3313 60.9841 62.2124 61.1376C62.0499 61.3472 61.9682 61.6146 61.9682 61.9389ZM64.8831 61.178L64.2435 61.1235C64.3169 60.9098 64.444 60.7423 64.6264 60.6218C64.808 60.5013 65.0481 60.4402 65.3485 60.4402C65.6605 60.4402 65.8916 60.5038 66.0401 60.6284C66.1895 60.7546 66.2638 60.9081 66.2638 61.0889C66.2638 61.1623 66.258 61.2399 66.2448 61.3216C66.2316 61.4041 66.1862 61.6204 66.1086 61.9703C66.0442 62.2591 66.012 62.4622 66.012 62.5777C66.012 62.6817 66.0302 62.7956 66.0673 62.9227H65.4286C65.4038 62.8344 65.3881 62.7427 65.3824 62.6487C65.2866 62.7551 65.176 62.8377 65.0514 62.8962C64.9268 62.954 64.8014 62.9829 64.6751 62.9829C64.4745 62.9829 64.3087 62.9169 64.1783 62.7848C64.0479 62.6528 63.9827 62.4836 63.9827 62.2756C63.9827 62.0437 64.0545 61.858 64.1981 61.7194C64.3417 61.5807 64.5983 61.4966 64.9672 61.4677C65.2792 61.4413 65.488 61.4099 65.5928 61.3736C65.62 61.282 65.6341 61.2085 65.6341 61.1541C65.6341 61.0839 65.606 61.0253 65.5491 60.9775C65.4929 60.9304 65.4096 60.9073 65.2982 60.9073C65.1818 60.9073 65.0886 60.9304 65.0209 60.9775C64.954 61.0245 64.907 61.0914 64.8831 61.178ZM65.5053 61.7887C65.4657 61.7994 65.4137 61.8102 65.3485 61.8193C65.0209 61.8589 64.8055 61.9175 64.7056 61.9942C64.6338 62.0503 64.5983 62.1246 64.5983 62.2179C64.5983 62.2954 64.6256 62.3606 64.6809 62.4143C64.7353 62.4671 64.8071 62.4935 64.8971 62.4935C64.9953 62.4935 65.0886 62.4688 65.176 62.4201C65.2635 62.3722 65.3295 62.3095 65.3716 62.2335C65.4154 62.1576 65.4533 62.038 65.4872 61.877L65.5053 61.7887ZM67.0701 60.5013H67.6948L67.6313 60.819C67.7872 60.682 67.9333 60.5855 68.0687 60.5277C68.204 60.4691 68.346 60.4402 68.4962 60.4402C68.6959 60.4402 68.8543 60.498 68.9699 60.6135C69.0846 60.7299 69.1423 60.8826 69.1423 61.074C69.1415 61.159 69.1135 61.3191 69.0582 61.5543L68.7652 62.9227H68.1124L68.4095 61.551C68.4516 61.3455 68.4747 61.2234 68.4772 61.183C68.4772 61.0963 68.4516 61.0303 68.4021 60.9808C68.3517 60.9321 68.2824 60.9073 68.1941 60.9073C68.0967 60.9073 67.9894 60.9478 67.8714 61.0286C67.7526 61.1095 67.6601 61.2168 67.5925 61.3497C67.5421 61.4438 67.4852 61.6369 67.4216 61.929L67.2161 62.9227H66.5633L67.0701 60.5013ZM69.3701 63.0531L70.0617 63.1537C70.0617 63.2231 70.0733 63.2759 70.0956 63.3114C70.1178 63.3469 70.155 63.3774 70.2053 63.403C70.2557 63.4277 70.325 63.4401 70.4125 63.4401C70.5594 63.4401 70.6774 63.4129 70.7657 63.3576C70.8317 63.3155 70.8862 63.247 70.9283 63.1521C70.9538 63.0927 70.9877 62.9631 71.0281 62.7634L71.0512 62.6495C70.8135 62.8377 70.5668 62.9317 70.3126 62.9317C70.0757 62.9317 69.881 62.8476 69.7291 62.6809C69.5781 62.5133 69.5014 62.2682 69.5014 61.9447C69.5014 61.6608 69.5533 61.3992 69.6565 61.1623C69.7597 60.9246 69.9049 60.7456 70.0923 60.6234C70.2796 60.5013 70.4702 60.4402 70.665 60.4402C70.8251 60.4402 70.972 60.4831 71.1057 60.5689C71.2386 60.6548 71.3417 60.7744 71.4168 60.9296L71.5018 60.5013H72.1167L71.7313 62.5249C71.6611 62.8476 71.6017 63.0778 71.5538 63.2165C71.5051 63.3543 71.4507 63.464 71.3879 63.5449C71.3269 63.6275 71.2476 63.696 71.1536 63.7512C71.0587 63.8065 70.9472 63.8462 70.8177 63.8701C70.6889 63.8948 70.5495 63.9072 70.3993 63.9072C70.0576 63.9072 69.7993 63.8486 69.6251 63.7323C69.451 63.6142 69.3635 63.4203 69.3635 63.1488C69.3635 63.1199 69.3652 63.0885 69.3701 63.0531ZM70.1409 61.8787C70.1409 62.0644 70.1822 62.2047 70.2647 62.3012C70.3473 62.3986 70.4504 62.4465 70.575 62.4465C70.6914 62.4465 70.8045 62.4027 70.9134 62.3161C71.0232 62.2286 71.1074 62.1056 71.1659 61.9455C71.2237 61.7854 71.2534 61.6311 71.2534 61.4809C71.2534 61.3092 71.2056 61.1698 71.1107 61.0649C71.0149 60.9601 70.9043 60.9073 70.7789 60.9073C70.6617 60.9073 70.5544 60.9535 70.4562 61.046C70.3588 61.1392 70.2779 61.2828 70.2136 61.4768C70.1649 61.6261 70.1409 61.7598 70.1409 61.8787ZM72.7827 60.5013H73.4371L73.1136 61.9381C73.074 62.1106 73.0542 62.2179 73.0542 62.2608C73.0542 62.3309 73.0773 62.3904 73.1243 62.4415C73.1706 62.4919 73.2308 62.5166 73.3043 62.5166C73.3562 62.5166 73.4074 62.5051 73.4586 62.4828C73.5089 62.4597 73.5617 62.425 73.6154 62.378C73.6682 62.3318 73.7169 62.2789 73.7598 62.2187C73.8027 62.1593 73.8423 62.08 73.8795 61.9827C73.9051 61.91 73.9356 61.8011 73.9686 61.6567L74.2294 60.5013H74.8822L74.3326 62.9227H73.7227L73.7879 62.6115C73.5419 62.8591 73.2746 62.9829 72.9841 62.9829C72.8017 62.9829 72.6572 62.926 72.5524 62.8112C72.4476 62.6974 72.3948 62.543 72.3948 62.3507C72.3948 62.2674 72.4229 62.1007 72.479 61.8514L72.7827 60.5013ZM75.6192 60.5013H76.2439L76.1812 60.819C76.3364 60.682 76.4824 60.5855 76.6178 60.5277C76.7531 60.4691 76.8959 60.4402 77.0453 60.4402C77.245 60.4402 77.4034 60.498 77.519 60.6135C77.6345 60.7299 77.6915 60.8826 77.6915 61.074C77.6906 61.159 77.6634 61.3191 77.6081 61.5543L77.3143 62.9227H76.6615L76.9586 61.551C77.0015 61.3455 77.0238 61.2234 77.0263 61.183C77.0263 61.0963 77.0015 61.0303 76.9512 60.9808C76.9008 60.9321 76.8315 60.9073 76.7432 60.9073C76.6458 60.9073 76.5385 60.9478 76.4205 61.0286C76.3025 61.1095 76.2101 61.2168 76.1424 61.3497C76.0912 61.4438 76.0351 61.6369 75.9707 61.929L75.7653 62.9227H75.1125L75.6192 60.5013ZM81.9219 62.9227H81.2831L80.3802 60.6787L79.9107 62.9227H79.2727L79.9726 59.5819H80.6105L81.5158 61.8168L81.9829 59.5819H82.6217L81.9219 62.9227ZM84.9754 61.915H83.3323C83.3306 61.9406 83.3298 61.9604 83.3298 61.9744C83.3298 62.137 83.3768 62.2682 83.4693 62.3672C83.5617 62.4671 83.6748 62.5166 83.8085 62.5166C84.0272 62.5166 84.1988 62.4044 84.321 62.1807L84.9044 62.2789C84.7906 62.5133 84.6379 62.6891 84.4464 62.8063C84.2549 62.9243 84.0412 62.9829 83.8035 62.9829C83.4775 62.9829 83.2126 62.8797 83.0088 62.6734C82.8041 62.4671 82.7026 62.1939 82.7026 61.8531C82.7026 61.5213 82.7942 61.2259 82.9782 60.9659C83.2291 60.6152 83.5873 60.4402 84.0519 60.4402C84.3482 60.4402 84.5842 60.5326 84.7592 60.7158C84.9342 60.8991 85.0208 61.1566 85.0208 61.4875C85.0208 61.6459 85.006 61.7879 84.9754 61.915ZM84.4241 61.518C84.4258 61.4883 84.4266 61.4669 84.4266 61.4512C84.4266 61.2704 84.3862 61.1343 84.3053 61.0435C84.2252 60.9519 84.1171 60.9073 83.981 60.9073C83.8456 60.9073 83.7243 60.9585 83.617 61.0616C83.5097 61.164 83.4371 61.3167 83.3991 61.518H84.4241ZM85.1801 63.0531L85.8709 63.1537C85.8709 63.2231 85.8824 63.2759 85.9055 63.3114C85.9278 63.3469 85.9641 63.3774 86.0153 63.403C86.0656 63.4277 86.1349 63.4401 86.2216 63.4401C86.3685 63.4401 86.4865 63.4129 86.5756 63.3576C86.6417 63.3155 86.6961 63.247 86.7382 63.1521C86.7638 63.0927 86.7968 62.9631 86.8373 62.7634L86.8612 62.6495C86.6227 62.8377 86.3768 62.9317 86.1226 62.9317C85.8849 62.9317 85.6909 62.8476 85.5391 62.6809C85.3872 62.5133 85.3113 62.2682 85.3113 61.9447C85.3113 61.6608 85.3625 61.3992 85.4656 61.1623C85.5696 60.9246 85.7149 60.7456 85.9022 60.6234C86.0887 60.5013 86.2802 60.4402 86.4741 60.4402C86.6342 60.4402 86.7811 60.4831 86.9157 60.5689C87.0485 60.6548 87.1517 60.7744 87.226 60.9296L87.311 60.5013H87.9258L87.5404 62.5249C87.4703 62.8476 87.4117 63.0778 87.363 63.2165C87.3151 63.3543 87.2598 63.464 87.1979 63.5449C87.136 63.6275 87.0576 63.696 86.9627 63.7512C86.8678 63.8065 86.7564 63.8462 86.6276 63.8701C86.4989 63.8948 86.3594 63.9072 86.2084 63.9072C85.8667 63.9072 85.6092 63.8486 85.4351 63.7323C85.261 63.6142 85.1727 63.4203 85.1727 63.1488C85.1727 63.1199 85.1751 63.0885 85.1801 63.0531ZM85.9501 61.8787C85.9501 62.0644 85.9913 62.2047 86.0739 62.3012C86.1564 62.3986 86.2596 62.4465 86.3842 62.4465C86.5005 62.4465 86.6136 62.4027 86.7234 62.3161C86.8331 62.2286 86.9165 62.1056 86.9751 61.9455C87.0337 61.7854 87.0634 61.6311 87.0634 61.4809C87.0634 61.3092 87.0147 61.1698 86.9198 61.0649C86.8241 60.9601 86.7135 60.9073 86.5889 60.9073C86.4717 60.9073 86.3644 60.9535 86.2662 61.046C86.168 61.1392 86.0871 61.2828 86.0235 61.4768C85.9748 61.6261 85.9501 61.7598 85.9501 61.8787ZM90.4198 61.915H88.7767C88.775 61.9406 88.7742 61.9604 88.7742 61.9744C88.7742 62.137 88.8212 62.2682 88.9137 62.3672C89.0061 62.4671 89.12 62.5166 89.2529 62.5166C89.4716 62.5166 89.6432 62.4044 89.7662 62.1807L90.3488 62.2789C90.235 62.5133 90.0823 62.6891 89.8908 62.8063C89.7002 62.9243 89.4856 62.9829 89.2479 62.9829C88.9219 62.9829 88.657 62.8797 88.4532 62.6734C88.2485 62.4671 88.147 62.1939 88.147 61.8531C88.147 61.5213 88.2386 61.2259 88.4226 60.9659C88.6735 60.6152 89.0317 60.4402 89.4972 60.4402C89.7926 60.4402 90.0286 60.5326 90.2036 60.7158C90.3786 60.8991 90.466 61.1566 90.466 61.4875C90.466 61.6459 90.4504 61.7879 90.4198 61.915ZM89.8685 61.518C89.8702 61.4883 89.871 61.4669 89.871 61.4512C89.871 61.2704 89.8306 61.1343 89.7497 61.0435C89.6696 60.9519 89.5615 60.9073 89.4254 60.9073C89.29 60.9073 89.1687 60.9585 89.0614 61.0616C88.9541 61.164 88.8815 61.3167 88.8435 61.518H89.8685ZM91.1271 60.5013H91.7419L91.6495 60.9568C91.8748 60.6127 92.1191 60.4402 92.3823 60.4402C92.4756 60.4402 92.5763 60.4641 92.6827 60.5112L92.4302 61.046C92.3716 61.0253 92.3081 61.0146 92.2404 61.0146C92.1282 61.0146 92.0134 61.0575 91.8971 61.1425C91.7807 61.2284 91.6899 61.3414 91.6239 61.485C91.5579 61.627 91.4935 61.8531 91.43 62.1626L91.274 62.9227H90.6204L91.1271 60.5013ZM93.173 59.5819H93.8258L93.702 60.1745H93.0484L93.173 59.5819ZM92.9807 60.5013H93.6335L93.1267 62.9227H92.4731L92.9807 60.5013Z" fill="#115588"/>
</g>
<defs>
<clipPath id="clip0_801_8491">
<rect width="80" height="19.8142" fill="white" transform="translate(14 44.0929)"/>
</clipPath>
</defs>
</svg>
