<svg width="109" height="108" viewBox="0 0 109 108" fill="none" xmlns="http://www.w3.org/2000/svg">
<path fill-rule="evenodd" clip-rule="evenodd" d="M50.0752 57.8781C52.1786 58.3104 54.2071 57.8332 56.1777 56.6364L49.7075 62.9345L47.3346 60.5588L50.0752 57.8781Z" fill="#C13439"/>
<path fill-rule="evenodd" clip-rule="evenodd" d="M56.6446 59.0205L51.1157 64.4222L50.0556 63.3602L56.1299 57.3831C59.2963 54.5022 59.853 51.4444 59.1007 48.2987C60.508 52.3857 60.6006 54.0334 58.7732 56.5625C58.1248 57.4608 57.4343 58.2495 56.6446 59.0205Z" fill="#EC9033"/>
<path fill-rule="evenodd" clip-rule="evenodd" d="M57.6803 60.1639L52.1168 65.4683L51.4441 64.7684L57.5278 58.7773C60.5566 55.7541 61.1461 54.0371 60.4125 50.6238C61.5447 53.7705 61.3781 55.6727 59.8399 57.792C59.1952 58.6809 58.4691 59.4126 57.6803 60.1639Z" fill="#DABD29"/>
<path fill-rule="evenodd" clip-rule="evenodd" d="M56.2928 45.0697C58.7377 47.9628 57.6495 52.7759 53.2144 53.8406C54.573 53.1614 55.3449 52.1209 55.6237 51.0205C56.1328 49.0079 55.0287 46.9897 53.0778 46.3178C51.9503 45.9286 50.6544 46.0137 49.6102 46.6266C48.0195 47.5604 47.2813 49.5543 47.8034 51.3312C48.4359 53.487 50.5571 54.5499 52.6895 54.4657C56.5912 54.3104 59.2504 50.2439 57.8516 46.5368C61.089 52.6561 55.4684 58.4357 50.0696 57.0856C46.6366 56.2275 44.1449 52.6757 44.5295 49.1614C44.8139 46.5714 46.6301 44.4297 49.0291 43.5005C51.5508 42.5228 54.4953 42.9419 56.2928 45.0697Z" fill="#C13439"/>
<path fill-rule="evenodd" clip-rule="evenodd" d="M63.1063 49.5515C63.9288 49.6937 64.7456 49.7377 65.5494 49.5618C65.4502 50.8428 65.3996 52.206 65.3819 53.6236C65.3688 54.7015 65.5007 55.8187 65.3903 56.9396C65.3211 57.5375 65.1292 57.996 64.8439 58.3506C64.303 59.0205 63.4768 59.4378 62.413 59.4771L62.1332 58.5789C62.8106 58.5433 63.1596 58.1737 63.1363 57.4243C63.1952 54.8297 63.2747 52.1761 63.1063 49.5515ZM91.94 49.6161C92.8223 49.7639 93.6775 49.7752 94.5 49.6114C94.1791 52.5036 94.2268 55.2966 94.4888 58.0297C93.5915 57.9164 92.7353 57.9305 91.9044 58.0222C92.1627 55.2133 92.1449 52.4119 91.94 49.6161ZM85.5288 49.6311C86.7508 49.7471 87.9119 49.6442 89.104 49.6507C90.5608 49.7153 91.3028 50.5508 91.3851 51.4622C91.4563 52.2378 91.0726 53.0715 90.0106 53.5178C91.2158 53.8743 91.7538 54.9438 91.5377 55.9796C91.3346 56.9555 90.6263 57.8987 88.7961 57.9932C87.6836 58.069 87.2317 57.8622 85.4595 58.0128C85.6944 55.2339 85.6644 52.4362 85.5288 49.6311ZM87.751 50.7323C87.7351 51.5202 87.7145 52.3108 87.7182 53.0996C88.7793 53.1398 89.1994 52.5157 89.2003 51.8776C89.2003 51.5688 89.1414 51.2423 88.9365 51.0168C88.7026 50.7595 88.2881 50.6294 87.751 50.7323ZM87.7154 54.1897C87.6986 54.9775 87.7145 56.1171 87.7182 56.905C88.5828 57.0126 88.8364 56.7375 89.0394 56.4343C89.2518 56.1162 89.293 55.7775 89.2939 55.4509C89.2939 55.1422 89.1685 54.7754 88.9646 54.5508C88.7297 54.2926 88.2525 54.0858 87.7154 54.1897ZM75.9194 49.6254C76.3461 49.7349 76.7737 49.7714 77.2003 49.603C78.0303 51.4135 78.9313 53.1801 79.867 54.9251C80.8018 53.1819 81.714 51.4191 82.5758 49.6095C83.0015 49.7143 83.4413 49.7312 83.9007 49.6114C84.1851 52.4474 84.537 55.2488 84.9618 58.0128C84.1636 57.9146 83.3655 57.9052 82.5674 58.0063L82.1444 53.1838C81.308 54.7679 80.4696 56.3642 79.7201 58.0081L79.0043 58.0109L76.6015 53.2867C76.4144 54.8596 76.2759 56.454 76.1852 58.0699C75.6752 57.9146 75.1615 57.909 74.645 58.0446C74.6647 57.8687 74.6553 57.7199 74.6544 57.5422C75.2064 55.0336 75.5564 52.323 75.9194 49.6254ZM69.3837 49.5525C69.7861 49.6713 70.1884 49.6872 70.5908 49.5618C71.7501 52.3239 72.9374 55.0364 74.1894 57.6273L74.1753 58.0156C73.3323 57.9174 72.4958 57.9211 71.6659 58.0343C71.4207 57.2109 71.1372 56.4081 70.7994 55.6315C69.9302 55.5838 69.0469 55.5782 68.1505 55.6091C67.8174 56.3576 67.5152 57.1567 67.2607 58.0381C66.7695 57.8968 66.252 57.9099 65.714 58.054L65.7253 57.6348C67.0109 54.9513 68.2712 52.2631 69.3837 49.5525ZM69.4913 52.5279L70.3447 54.519L68.6174 54.5143L69.4913 52.5279Z" fill="#332C2B"/>
<path fill-rule="evenodd" clip-rule="evenodd" d="M14.5 49.9735H17.2658C18.9697 49.9885 19.3945 50.7829 19.4226 51.6053C19.4497 52.3894 18.9295 53.1932 17.5784 53.6254C19.2298 53.763 19.8212 54.7211 19.6902 55.7466C19.5676 56.7122 18.7611 57.8846 16.4715 57.8042H14.5C14.6095 55.188 14.6291 52.5766 14.5 49.9735ZM36.8382 49.9988C37.2022 50.0764 37.5653 50.0736 37.9292 49.9988L37.8787 53.3999C37.8871 53.573 37.8899 53.6638 37.9882 53.6432C38.9332 52.9228 40.2544 51.4537 41.6429 49.9988C41.9564 50.0334 42.268 50.0297 42.5786 49.9988L38.966 53.5113L42.7442 57.7621L42.7451 57.8285C42.2848 57.749 41.8759 57.7742 41.482 57.8266C40.3798 56.4849 39.2607 55.1646 38.0995 53.8959C38.0275 53.865 37.9545 53.8528 37.8806 53.865C37.8806 55.1824 37.86 56.497 37.948 57.8285C37.5858 57.7967 37.2172 57.7911 36.8382 57.8219C37.0216 55.1656 37.0057 52.5625 36.8382 49.9988ZM28.8495 49.8247H29.0432L34.8827 55.9328C34.9594 53.9763 34.9416 51.988 34.8799 49.9847C35.1437 50.0502 35.4095 50.0615 35.6771 49.9913C35.6219 50.4245 35.6135 50.8933 35.5863 51.3443C35.4544 53.5366 35.3945 55.7419 35.4778 57.9726L35.3327 57.9698L29.4081 51.6521C29.3809 53.4074 29.3594 55.2123 29.4184 56.8863C29.4296 57.2268 29.4549 57.501 29.4726 57.8369C29.2275 57.7864 28.9636 57.7854 28.6782 57.8406C28.827 55.1768 28.8598 52.5026 28.8495 49.8247ZM24.0092 49.835H24.2301L27.7519 57.8341C27.3271 57.7555 26.9295 57.7714 26.544 57.8322C26.1735 56.7646 25.7702 55.7354 25.3201 54.7604C24.3367 54.7239 23.344 54.7221 22.3409 54.7576C21.9339 55.7288 21.5437 56.7468 21.176 57.8247C20.9215 57.778 20.6408 57.7789 20.3395 57.8191L24.0092 49.835ZM22.5374 54.2739L23.8333 51.3293L25.1395 54.2888C24.2974 54.2589 23.4329 54.2505 22.5374 54.2739ZM15.5405 50.4217C17.5185 50.2795 18.3915 50.5143 18.4008 51.9384C18.3419 52.5878 18.049 52.9592 17.5306 53.2268C17.263 53.3653 16.9608 53.414 16.6277 53.4346C16.289 53.4552 15.9194 53.501 15.5208 53.472L15.5405 50.4217ZM15.5115 53.8893C16.9627 53.8247 17.7225 53.9557 18.1519 54.3702C18.7816 54.9794 18.7349 56.061 18.2249 56.7291C17.9742 57.0566 17.6167 57.2596 17.1536 57.3532C16.7129 57.4421 16.1674 57.3719 15.548 57.3326L15.5115 53.8893Z" fill="#332C2B"/>
</svg>
