<svg width="109" height="108" viewBox="0 0 109 108" fill="none" xmlns="http://www.w3.org/2000/svg">
<path fill-rule="evenodd" clip-rule="evenodd" d="M36.1023 67.2887L40.4754 40.3375H17.8373C16.1804 40.3375 14.8373 41.6807 14.8373 43.3375V64.2887C14.8373 65.9455 16.1804 67.2887 17.8373 67.2887H36.1023Z" fill="url(#paint0_linear_801_8268)"/>
<path fill-rule="evenodd" clip-rule="evenodd" d="M40.4754 40.3375L36.1023 67.2887H67.7867L63.4149 40.3375H40.4754Z" fill="url(#paint1_linear_801_8268)"/>
<path fill-rule="evenodd" clip-rule="evenodd" d="M63.4149 40.3375L67.7867 67.2887H91.1613C92.8182 67.2887 94.1613 65.9455 94.1613 64.2887V43.3375C94.1613 41.6807 92.8182 40.3375 91.1613 40.3375H63.4149Z" fill="url(#paint2_linear_801_8268)"/>
<path fill-rule="evenodd" clip-rule="evenodd" d="M18.2213 40.0001H90.7787C91.8027 40.0001 92.7327 40.4194 93.4074 41.0927C94.0821 41.7674 94.5 42.6974 94.5 43.7215V63.9046C94.5 64.9287 94.0807 65.8586 93.4074 66.5333C92.7327 67.208 91.8027 67.6259 90.7787 67.6259H18.2213C17.1973 67.6259 16.2673 67.2066 15.5926 66.5333C14.918 65.8586 14.5 64.9287 14.5 63.9046V43.7215C14.5 42.6974 14.9193 41.7674 15.5926 41.0927C16.2673 40.4181 17.1973 40.0001 18.2213 40.0001ZM90.7773 40.6761H18.2213C17.3841 40.6761 16.6221 41.0188 16.0711 41.5712C15.5187 42.1235 15.176 42.8842 15.176 43.7215V63.9046C15.176 64.7418 15.5187 65.5039 16.0711 66.0549C16.6234 66.6072 17.3841 66.9499 18.2213 66.9499H90.7787C91.6159 66.9499 92.3779 66.6072 92.929 66.0549C93.4813 65.5025 93.824 64.7418 93.824 63.9046V43.7215C93.824 42.8842 93.4813 42.1222 92.929 41.5712C92.3766 41.0188 91.6159 40.6761 90.7787 40.6761H90.7773Z" fill="white"/>
<path fill-rule="evenodd" clip-rule="evenodd" d="M35.0016 44.6758C34.8484 44.8236 34.8148 44.8989 34.7153 45.0911C34.6306 45.2564 34.5514 45.4311 34.4774 45.6138C34.2328 46.22 34.046 46.9161 33.8821 47.6593C33.4009 49.8472 33.1792 51.9706 32.8056 54.1518C32.7465 54.4999 32.6725 54.8937 32.5489 55.2606C32.3836 55.7551 32.135 56.204 31.6659 56.4607C31.5087 56.5467 31.3286 56.6112 31.1203 56.6502H24.9369C25.2621 56.3048 25.5376 55.6301 25.7782 54.766C25.9663 54.0913 26.133 53.3038 26.2862 52.4679C26.5604 50.9667 26.731 49.4481 26.977 47.9429C27.1759 46.7266 27.6167 45.0252 28.7187 44.6758H35.0002H35.0016Z" fill="#F0B300"/>
<path fill-rule="evenodd" clip-rule="evenodd" d="M42.8784 54.3104C42.8784 54.5644 42.8408 54.7996 42.7668 55.016C42.6902 55.2297 42.5854 55.4245 42.4483 55.5952C42.3113 55.7659 42.1473 55.9164 41.9551 56.0468C41.7629 56.1745 41.5466 56.2847 41.3073 56.372C41.0654 56.4594 40.8074 56.5252 40.5332 56.5682C40.2591 56.6126 39.9433 56.6341 39.5898 56.6341H37.1223C37.0108 56.6341 36.906 56.6018 36.8065 56.5373C36.7071 56.4715 36.6573 56.3572 36.6573 56.196V48.971C36.6573 48.8084 36.7071 48.6955 36.8065 48.6296C36.906 48.5651 37.0108 48.5329 37.1223 48.5329H39.2686C39.8317 48.5329 40.294 48.5772 40.6528 48.67C41.0144 48.7614 41.3154 48.8971 41.5546 49.0718C41.7965 49.2465 41.978 49.4629 42.0976 49.7169C42.2199 49.9709 42.2817 50.2598 42.2817 50.5797C42.2817 50.7719 42.2548 50.956 42.1997 51.1307C42.1473 51.3054 42.068 51.468 41.9632 51.6159C41.8584 51.7637 41.7293 51.8954 41.5694 52.0137C41.4122 52.1306 41.2307 52.2247 41.0265 52.3026C41.2832 52.3429 41.5251 52.4195 41.7481 52.5311C41.9726 52.6399 42.1661 52.781 42.3354 52.9517C42.5021 53.1224 42.6338 53.324 42.7319 53.5538C42.8287 53.7823 42.8784 54.0349 42.8784 54.3104ZM86.7442 54.2029C86.7442 54.4919 86.6999 54.7526 86.6071 54.9851C86.513 55.2203 86.3854 55.4272 86.2241 55.6073C86.0601 55.7874 85.8653 55.9406 85.6395 56.0683C85.4151 56.1987 85.1637 56.3062 84.8923 56.3895C84.6208 56.4728 84.3292 56.5346 84.0201 56.5736C83.711 56.6139 83.3669 56.6327 82.9866 56.6327H80.4788C80.3175 56.6327 80.1818 56.5924 80.0729 56.5104C79.9627 56.4298 79.909 56.2968 79.909 56.1126V49.049C79.909 48.8648 79.9641 48.7331 80.0729 48.6511C80.1831 48.5705 80.3175 48.5289 80.4788 48.5289H82.8495C83.4274 48.5289 83.9179 48.5719 84.3184 48.6552C84.7189 48.7385 85.0576 48.8648 85.3317 49.0328C85.6086 49.2022 85.8169 49.4158 85.9647 49.6739C86.1085 49.9319 86.1838 50.2383 86.1838 50.5891C86.1838 50.7853 86.1542 50.9694 86.0937 51.1428C86.036 51.3162 85.9513 51.4734 85.8397 51.6145C85.7282 51.7583 85.5911 51.882 85.4258 51.9908C85.2645 52.0997 85.0777 52.187 84.8681 52.2542C85.1369 52.2972 85.3842 52.3698 85.6099 52.4746C85.8344 52.5795 86.0333 52.7125 86.1999 52.8791C86.3666 53.0431 86.501 53.2366 86.5977 53.4584C86.6945 53.6788 86.7415 53.9261 86.7415 54.2016L86.7442 54.2029ZM84.2633 50.792C84.2633 50.6281 84.2338 50.4816 84.176 50.3539C84.1182 50.2235 84.0295 50.116 83.9125 50.0314C83.7983 49.9454 83.6505 49.8795 83.4717 49.8325C83.2943 49.7881 83.0578 49.7639 82.7621 49.7639H81.7905V51.8672H82.8643C83.1411 51.8672 83.3629 51.8389 83.5268 51.7838C83.6935 51.7287 83.8306 51.6495 83.9408 51.5527C84.051 51.4546 84.1303 51.339 84.1854 51.206C84.2378 51.0756 84.2647 50.9372 84.2647 50.792H84.2633ZM84.7512 54.2607C84.7512 54.0726 84.7162 53.9032 84.641 53.7567C84.5684 53.6076 84.4622 53.4826 84.3224 53.3831C84.18 53.285 84.0012 53.2057 83.7822 53.152C83.5631 53.0982 83.2796 53.0713 82.9274 53.0713H81.7891V55.3748H83.1761C83.4422 55.3748 83.6666 55.352 83.8507 55.3022C84.0322 55.2552 84.1894 55.1853 84.3238 55.0913C84.4582 54.9972 84.563 54.8803 84.6369 54.7405C84.7122 54.5994 84.7485 54.4408 84.7485 54.262L84.7512 54.2607ZM79.2558 49.2062C79.2558 49.3285 79.2478 49.4306 79.2357 49.5166C79.2236 49.6026 79.2061 49.6725 79.1806 49.7236C79.155 49.7747 79.1255 49.815 79.0905 49.8392C79.0529 49.8647 79.0139 49.8782 78.9682 49.8782H76.6043V56.4096C76.6043 56.45 76.5895 56.4889 76.5572 56.5212C76.525 56.5548 76.4726 56.583 76.4 56.6018C76.3274 56.6233 76.228 56.6408 76.103 56.6529C75.9807 56.6663 75.8261 56.6717 75.6393 56.6717C75.4525 56.6717 75.3007 56.665 75.1757 56.6529C75.0534 56.6395 74.9539 56.6233 74.8814 56.6018C74.8061 56.583 74.7537 56.5548 74.7241 56.5212C74.6919 56.4889 74.6771 56.4513 74.6771 56.4096V49.8782H72.3118C72.2647 49.8782 72.2217 49.8647 72.1895 49.8392C72.1545 49.8163 72.125 49.7747 72.0994 49.7236C72.0766 49.6725 72.0578 49.6013 72.0443 49.5166C72.0349 49.4306 72.0268 49.3285 72.0268 49.2062C72.0268 49.0839 72.0349 48.975 72.0443 48.8877C72.0564 48.8003 72.0766 48.7291 72.0994 48.678C72.125 48.6243 72.1545 48.588 72.1895 48.5651C72.2217 48.5423 72.2647 48.5315 72.3118 48.5315H78.9655C79.0099 48.5315 79.0502 48.5423 79.0879 48.5651C79.1228 48.588 79.1524 48.6256 79.1779 48.678C79.2034 48.7291 79.2209 48.8003 79.233 48.8877C79.2451 48.975 79.2532 49.0825 79.2532 49.2062H79.2558ZM71.3791 56.0562C71.3791 56.153 71.3589 56.2376 71.3213 56.3142C71.281 56.3895 71.2286 56.4513 71.164 56.4997C71.0969 56.5508 71.0202 56.587 70.9302 56.6112C70.8402 56.6327 70.7488 56.6448 70.656 56.6448H69.8389C69.6696 56.6448 69.5204 56.6301 69.3981 56.6005C69.2731 56.5723 69.1589 56.5199 69.0541 56.4419C68.9493 56.3653 68.8471 56.2605 68.7504 56.1274C68.6536 55.9971 68.5434 55.8264 68.4238 55.6167L66.0733 51.8295C65.9389 51.6024 65.7991 51.3619 65.658 51.1011C65.5182 50.8404 65.3919 50.5864 65.279 50.3405H65.2642C65.2844 50.6402 65.2991 50.9385 65.3086 51.2382C65.3166 51.5379 65.3206 51.8457 65.3206 52.1615V56.4016C65.3206 56.4419 65.3086 56.4809 65.2803 56.5131C65.2548 56.5467 65.2078 56.575 65.1433 56.5991C65.0761 56.622 64.9887 56.6395 64.8772 56.6529C64.7656 56.6663 64.6205 56.6717 64.4458 56.6717C64.271 56.6717 64.134 56.665 64.0224 56.6529C63.9109 56.6395 63.8235 56.6233 63.759 56.5991C63.6972 56.575 63.6542 56.5481 63.63 56.5131C63.6045 56.4809 63.5924 56.4432 63.5924 56.4016V49.1188C63.5924 48.924 63.6596 48.7775 63.7939 48.678C63.9257 48.5799 64.091 48.5302 64.2845 48.5302H65.3153C65.4994 48.5302 65.6539 48.5436 65.7816 48.5705C65.9093 48.5987 66.0208 48.6431 66.1203 48.7049C66.2197 48.7667 66.3152 48.8541 66.4012 48.9656C66.4885 49.0745 66.5786 49.2116 66.67 49.3742L68.5098 52.3362C68.6173 52.5163 68.7221 52.6937 68.8256 52.8657C68.9304 53.0391 69.0326 53.2124 69.1293 53.3845C69.2261 53.5578 69.3215 53.7285 69.4129 53.8952C69.5056 54.0618 69.5943 54.2285 69.6817 54.3951H69.6898C69.675 54.1021 69.6642 53.7984 69.6575 53.4799C69.6494 53.1641 69.6481 52.8603 69.6481 52.5741V48.7721C69.6481 48.7318 69.6629 48.6928 69.6911 48.6592C69.7207 48.627 69.7704 48.5974 69.8376 48.5719C69.9048 48.549 69.9948 48.5289 70.1064 48.5208C70.2179 48.51 70.3631 48.5033 70.5378 48.5033C70.7125 48.5033 70.8415 48.51 70.9531 48.5208C71.0646 48.5289 71.152 48.549 71.2124 48.5719C71.2742 48.5974 71.3173 48.627 71.3401 48.6592C71.3656 48.6928 71.3777 48.7318 71.3777 48.7721V56.0535L71.3791 56.0562ZM62.2699 56.4715C62.2699 56.5037 62.2605 56.5333 62.2431 56.5588C62.2229 56.5844 62.1906 56.6032 62.1436 56.6206C62.0966 56.6381 62.0334 56.6502 61.9487 56.6596C61.8668 56.6677 61.7619 56.6731 61.6356 56.6731C61.5093 56.6731 61.3964 56.669 61.3117 56.6623C61.227 56.6556 61.1545 56.6448 61.098 56.6327C61.0389 56.618 60.9905 56.5965 60.9542 56.5682C60.9193 56.5427 60.887 56.5078 60.8575 56.4715L58.0863 53.3536V56.4782C58.0863 56.5104 58.0769 56.54 58.0567 56.5615C58.0366 56.5844 58.0043 56.6045 57.9626 56.6206C57.9183 56.6381 57.8578 56.6502 57.7812 56.6596C57.7019 56.6677 57.6025 56.6731 57.4802 56.6731C57.3659 56.6731 57.2678 56.669 57.1885 56.6596C57.1119 56.6516 57.0488 56.6381 57.0044 56.6206C56.9574 56.6032 56.9251 56.5844 56.9103 56.5615C56.8929 56.54 56.8835 56.5104 56.8835 56.4782V48.1136C56.8835 48.08 56.8929 48.0491 56.9103 48.0262C56.9251 48.0007 56.9574 47.9792 57.0044 47.9617C57.0488 47.9469 57.1119 47.9335 57.1885 47.9254C57.2678 47.9174 57.3659 47.912 57.4802 47.912C57.6025 47.912 57.7019 47.916 57.7812 47.9254C57.8578 47.9335 57.9183 47.9469 57.9626 47.9617C58.0056 47.9792 58.0379 48.0007 58.0567 48.0262C58.0769 48.0491 58.0863 48.08 58.0863 48.1136V53.2084L60.5672 50.8686C60.6048 50.8256 60.6465 50.792 60.6922 50.7638C60.7338 50.7383 60.7862 50.7141 60.8494 50.6953C60.9085 50.6764 60.9811 50.6657 61.0631 50.659C61.1451 50.6523 61.2445 50.6482 61.3614 50.6482C61.4784 50.6482 61.5859 50.6523 61.6678 50.659C61.7498 50.6657 61.817 50.6738 61.8694 50.6885C61.9192 50.7033 61.9568 50.7221 61.9796 50.7463C61.9998 50.7678 62.0119 50.8001 62.0119 50.8364C62.0119 50.8874 61.9944 50.9372 61.9649 50.9856C61.9326 51.0366 61.8802 51.0944 61.8076 51.1603L59.4289 53.203L62.0979 56.1758C62.1597 56.2457 62.2054 56.3035 62.2323 56.3492C62.2592 56.3922 62.2726 56.4325 62.2726 56.4715H62.2699ZM55.7492 56.4782C55.7492 56.5104 55.7398 56.54 55.7196 56.5615C55.6995 56.5844 55.6699 56.6045 55.6256 56.6206C55.5812 56.6381 55.5207 56.6502 55.4441 56.6596C55.3648 56.6677 55.2667 56.6731 55.1525 56.6731C55.0302 56.6731 54.9307 56.669 54.8515 56.6596C54.7748 56.6516 54.7144 56.6381 54.67 56.6206C54.627 56.6032 54.5948 56.5844 54.5759 56.5615C54.5558 56.54 54.5464 56.5104 54.5464 56.4782V53.1788C54.5464 52.8563 54.5195 52.5969 54.459 52.4034C54.4012 52.2072 54.3166 52.0378 54.205 51.8954C54.0935 51.7543 53.9483 51.6454 53.7696 51.5702C53.5922 51.4949 53.3879 51.4573 53.1541 51.4573C52.853 51.4573 52.552 51.5487 52.2496 51.7328C51.9459 51.9169 51.6301 52.1857 51.3008 52.5405V56.4795C51.3008 56.5118 51.2914 56.5414 51.2712 56.5629C51.2511 56.5857 51.2188 56.6059 51.1771 56.622C51.1328 56.6395 51.0723 56.6516 50.9957 56.661C50.9164 56.669 50.817 56.6744 50.6947 56.6744C50.5804 56.6744 50.4823 56.6704 50.403 56.661C50.3264 56.6529 50.2633 56.6395 50.2189 56.622C50.1719 56.6045 50.1396 56.5857 50.1249 56.5629C50.1074 56.5414 50.098 56.5118 50.098 56.4795V50.8444C50.098 50.8108 50.106 50.7826 50.1208 50.7584C50.1356 50.7369 50.1652 50.7154 50.2082 50.6966C50.2525 50.6778 50.3076 50.667 50.3775 50.6603C50.4447 50.6536 50.5348 50.6496 50.6463 50.6496C50.7578 50.6496 50.8425 50.6536 50.9124 50.6603C50.9823 50.667 51.0374 50.6778 51.0764 50.6966C51.114 50.7154 51.1435 50.7369 51.161 50.7584C51.1758 50.7813 51.1866 50.8095 51.1866 50.8444V51.5903C51.5548 51.2355 51.923 50.9748 52.2926 50.8108C52.6582 50.6469 53.0304 50.5636 53.4027 50.5636C53.8408 50.5636 54.2091 50.6281 54.5087 50.7557C54.8071 50.8821 55.0517 51.0527 55.2358 51.2637C55.4199 51.4774 55.5516 51.7274 55.6323 52.0123C55.7143 52.2986 55.7546 52.6426 55.7546 53.0418V56.4809L55.7492 56.4782ZM48.9906 56.4849C48.9906 56.5346 48.9704 56.5723 48.9314 56.5965C48.8938 56.622 48.8387 56.6408 48.7715 56.6542C48.7016 56.6677 48.6022 56.6731 48.4732 56.6731C48.3441 56.6731 48.2447 56.6663 48.1694 56.6542C48.0942 56.6408 48.0404 56.622 48.0055 56.5965C47.9705 56.5736 47.9558 56.5346 47.9558 56.4849V55.9205C47.6668 56.1839 47.3483 56.3881 46.9948 56.5333C46.6441 56.6784 46.2705 56.7537 45.8767 56.7537C45.53 56.7537 45.2168 56.7147 44.9373 56.6368C44.6578 56.5602 44.4199 56.4486 44.2223 56.3035C44.0261 56.1556 43.8716 55.9769 43.7614 55.7646C43.6538 55.5509 43.6001 55.309 43.6001 55.0375C43.6001 54.719 43.6753 54.4462 43.8245 54.211C43.9764 53.9785 44.1928 53.7836 44.475 53.6291C44.7559 53.4732 45.1026 53.3576 45.5111 53.281C45.9197 53.2044 46.3807 53.1654 46.8914 53.1654H47.7958V52.7273C47.7958 52.5096 47.7689 52.3174 47.7165 52.1507C47.6614 51.9841 47.5768 51.8457 47.4572 51.7355C47.3375 51.6239 47.183 51.5406 46.9935 51.4828C46.804 51.4277 46.5702 51.3995 46.2933 51.3995C45.995 51.3995 45.7302 51.429 45.4937 51.4895C45.2571 51.5513 45.0502 51.6172 44.8741 51.6898C44.6954 51.7623 44.5476 51.8282 44.4279 51.89C44.3083 51.9505 44.221 51.9801 44.1618 51.9801C44.1242 51.9801 44.0893 51.972 44.0597 51.9559C44.0301 51.9384 44.0046 51.9129 43.9831 51.8793C43.9629 51.847 43.9455 51.804 43.9361 51.7516C43.9267 51.7005 43.9213 51.6427 43.9213 51.5809C43.9213 51.4761 43.9307 51.3928 43.9482 51.3336C43.9656 51.2732 44.0059 51.2167 44.0731 51.1603C44.1377 51.1065 44.2505 51.0433 44.4118 50.9694C44.5717 50.8969 44.7559 50.831 44.9642 50.7692C45.1738 50.7087 45.4023 50.6603 45.6509 50.62C45.8969 50.5797 46.1495 50.5595 46.4035 50.5595C46.8739 50.5595 47.2757 50.6066 47.6063 50.698C47.9369 50.7893 48.2044 50.9251 48.4087 51.1025C48.6129 51.2799 48.7621 51.5003 48.8548 51.7623C48.9476 52.0258 48.9946 52.3308 48.9946 52.6816V56.4836L48.9906 56.4849ZM47.7931 53.9113H46.765C46.4344 53.9113 46.1468 53.9355 45.9036 53.9812C45.6617 54.0309 45.4601 54.1008 45.2988 54.1949C45.1389 54.2889 45.0193 54.4018 44.9454 54.5322C44.8701 54.6652 44.8338 54.8144 44.8338 54.9851C44.8338 55.2781 44.9413 55.5106 45.1577 55.6839C45.3741 55.8573 45.6778 55.9446 46.0662 55.9446C46.382 55.9446 46.6736 55.8761 46.9451 55.7377C47.2139 55.6006 47.4975 55.3896 47.7945 55.1047V53.9099L47.7931 53.9113ZM40.9888 50.6859C40.9888 50.4896 40.9566 50.3122 40.8948 50.1537C40.8329 49.9951 40.7335 49.8607 40.5964 49.7491C40.4593 49.6376 40.2833 49.5529 40.0629 49.4951C39.8438 49.4373 39.5549 49.4078 39.1933 49.4078H37.8965V52.0325H39.3264C39.653 52.0325 39.9164 51.9962 40.1153 51.9209C40.3142 51.8484 40.4795 51.7502 40.6112 51.6279C40.7429 51.5043 40.8383 51.3605 40.9001 51.1965C40.9593 51.0299 40.9902 50.8606 40.9902 50.6859H40.9888ZM41.5587 54.3723C41.5587 54.1303 41.5143 53.9167 41.4216 53.7352C41.3315 53.5511 41.2025 53.3952 41.0278 53.2716C40.8558 53.1452 40.6394 53.0512 40.38 52.9853C40.118 52.9208 39.7927 52.8886 39.3963 52.8886H37.8951V55.7444H39.7175C40.0064 55.7444 40.255 55.7148 40.4701 55.657C40.6838 55.5993 40.8733 55.5119 41.0359 55.3963C41.1998 55.2834 41.3275 55.1396 41.4189 54.969C41.5116 54.7983 41.5587 54.5994 41.5587 54.3723Z" fill="white"/>
<path fill-rule="evenodd" clip-rule="evenodd" d="M22.9828 50.6482C23.304 52.1077 23.4519 53.5242 23.7005 54.9797C23.7408 55.2108 23.7892 55.4742 23.8712 55.7188C23.9814 56.0481 24.1467 56.3478 24.4598 56.5198C24.5646 56.5776 24.6842 56.6193 24.824 56.6461H24.9409C25.2648 56.2994 25.539 55.6261 25.7795 54.766C25.9677 54.0913 26.1343 53.3038 26.2875 52.4679C26.5187 51.2046 26.6759 49.9292 26.8668 48.6578H22.2356C22.3377 48.7573 22.3606 48.807 22.4264 48.9347C22.4829 49.0449 22.5353 49.1618 22.585 49.2841C22.7476 49.6886 22.8726 50.1536 22.9815 50.6482H22.9828Z" fill="#00ABE6"/>
<path fill-rule="evenodd" clip-rule="evenodd" d="M26.8668 48.6592C26.6759 49.9292 26.5187 51.2046 26.2875 52.4692C26.1343 53.3051 25.9677 54.094 25.7795 54.7673C25.539 55.6274 25.2648 56.3008 24.9409 56.6475H30.2736C30.0573 56.4177 29.8731 55.9675 29.7119 55.3909C29.5869 54.9407 29.4753 54.4152 29.3732 53.8575C29.1904 52.8563 29.0762 51.8429 28.9122 50.839C28.7805 50.0273 28.4849 48.893 27.7497 48.6605H26.8654L26.8668 48.6592Z" fill="#007BBF"/>
<path fill-rule="evenodd" clip-rule="evenodd" d="M67.7343 60.0543H67.5166C67.5475 59.7626 67.5636 59.5409 67.5636 59.3904C67.5636 59.1767 67.5058 59.0074 67.3902 58.8837C67.2746 58.7601 67.1187 58.6983 66.9198 58.6983C66.6148 58.6983 66.3473 58.8098 66.1189 59.0302C65.8904 59.2506 65.7775 59.4992 65.7775 59.7747C65.7775 59.9212 65.8084 60.0556 65.8716 60.1752C65.9334 60.2948 66.0718 60.4615 66.2855 60.6765C66.6766 61.0595 66.9346 61.3606 67.0569 61.5769C67.1792 61.7947 67.241 62.0057 67.241 62.2126C67.241 62.5164 67.1483 62.808 66.9629 63.0889C66.7774 63.3697 66.5059 63.6022 66.1457 63.7837C65.7856 63.9665 65.4052 64.0565 65.0047 64.0565C64.6043 64.0565 64.275 63.953 64.0049 63.7474C63.7347 63.5404 63.5977 63.3241 63.5977 63.0969C63.5977 62.9746 63.6326 62.8738 63.7052 62.7919C63.7764 62.7112 63.857 62.6709 63.9484 62.6709C64.0398 62.6709 64.1218 62.7085 64.1823 62.7838C64.2226 62.8281 64.2602 62.9289 64.3005 63.0848C64.3449 63.2743 64.3986 63.4114 64.4631 63.4961C64.5277 63.5807 64.615 63.6493 64.7279 63.7044C64.8408 63.7581 64.9631 63.785 65.0961 63.785C65.4939 63.785 65.842 63.6506 66.1404 63.3818C66.436 63.1144 66.5866 62.8161 66.5866 62.4922C66.5866 62.3806 66.5677 62.2704 66.5301 62.1602C66.4925 62.05 66.4253 61.925 66.3231 61.7866C66.2546 61.6912 66.1 61.5245 65.8608 61.2853C65.6243 61.0515 65.4765 60.8915 65.4146 60.8055C65.3273 60.6805 65.2641 60.5542 65.2225 60.4279C65.1808 60.3016 65.1593 60.1752 65.1593 60.0502C65.1593 59.7962 65.2453 59.5436 65.4146 59.2869C65.584 59.0302 65.8044 58.8273 66.0759 58.6754C66.3473 58.5235 66.6551 58.4469 67.0005 58.4469C67.1725 58.4469 67.3862 58.4738 67.6388 58.5262C67.784 58.5531 67.909 58.5746 68.0151 58.5894C67.9533 58.7708 67.9063 58.9402 67.8727 59.1001C67.8404 59.26 67.7947 59.5772 67.7356 60.0529L67.7343 60.0543ZM68.085 60.776C68.339 60.5919 68.5326 60.4991 68.6696 60.4991C68.7866 60.4991 68.8968 60.573 69.0002 60.7209C69.2059 61.0071 69.3645 61.4211 69.4773 61.964C69.5902 62.5069 69.6467 62.9706 69.6467 63.3577C69.6467 63.6345 69.5701 63.906 69.4182 64.1761C69.2677 64.4449 69.0621 64.6774 68.8027 64.8723C68.6132 65.0134 68.4331 65.0846 68.2638 65.0846C68.1993 65.0846 68.0797 65.0658 67.9049 65.0268C67.741 64.9905 67.612 64.9731 67.5179 64.9731C67.3956 64.9731 67.2975 65.0026 67.2249 65.0631C67.1537 65.1236 67.1161 65.1948 67.1161 65.2781C67.1161 65.3722 67.1631 65.4542 67.2558 65.5214C67.3499 65.5899 67.4883 65.6235 67.6711 65.6235C67.913 65.6235 68.1697 65.559 68.4398 65.43C68.7113 65.301 68.9922 65.0873 69.2825 64.7876C69.5728 64.4879 69.8953 64.031 70.2474 63.4141C70.5995 62.7972 70.8576 62.222 71.0215 61.6858C71.1868 61.1496 71.2675 60.7034 71.2675 60.3446C71.2675 60.2048 71.2379 60.0986 71.1774 60.0247C71.1169 59.9495 71.039 59.9105 70.9422 59.9105C70.8643 59.9105 70.7998 59.9374 70.7487 59.9898C70.6963 60.0422 70.6707 60.1094 70.6707 60.19C70.6707 60.2707 70.6963 60.4118 70.746 60.608C70.793 60.7827 70.8172 60.9225 70.8172 61.03C70.8172 61.538 70.5821 62.2247 70.1117 63.0916C70.1171 62.9599 70.1197 62.8631 70.1197 62.7999C70.1197 62.3067 70.0351 61.7987 69.8684 61.2746C69.7018 60.7504 69.4948 60.3325 69.2502 60.0247C69.1978 59.9575 69.1414 59.9239 69.0836 59.9239C69.0258 59.9239 68.9613 59.9414 68.8914 59.9736C68.7691 60.0314 68.5581 60.1645 68.2571 60.3714L67.948 60.5798L68.0823 60.776H68.085ZM74.3612 59.8567L74.6367 59.7989L74.3235 60.8553C74.1999 61.2746 74.0816 61.7584 73.9688 62.3067C73.9069 62.6051 73.8774 62.7972 73.8774 62.8819C73.8774 62.9666 73.911 63.0109 73.9808 63.0109C74.0252 63.0109 74.0964 62.9827 74.1945 62.9236C74.3666 62.8201 74.5319 62.6924 74.6904 62.5392L74.8248 62.7018C74.5077 62.9908 74.3047 63.1682 74.2147 63.2286C74.0373 63.3496 73.8666 63.441 73.7067 63.4988C73.6019 63.5377 73.497 63.5566 73.3976 63.5566C73.325 63.5566 73.2712 63.5391 73.235 63.5068C73.1973 63.4732 73.1812 63.4249 73.1812 63.3603C73.1812 63.3187 73.1933 63.2622 73.2135 63.1897L73.3801 62.6225C73.1409 62.9088 72.856 63.1547 72.5254 63.3603C72.3211 63.488 72.1356 63.5525 71.965 63.5525C71.7943 63.5525 71.68 63.4961 71.5927 63.3818C71.4758 63.2273 71.418 63.0284 71.418 62.7811C71.418 62.4868 71.4973 62.1589 71.6545 61.7974C71.8117 61.4358 72.0214 61.1066 72.2875 60.8123C72.5509 60.5179 72.8304 60.3002 73.1221 60.1618C73.3465 60.057 73.6368 60.0032 73.9889 60.0032C74.079 60.0032 74.169 60.0086 74.2604 60.0207L74.3598 59.8567H74.3612ZM73.8438 60.4964C73.6932 60.4655 73.5656 60.4494 73.4634 60.4494C73.2121 60.4494 72.9944 60.5193 72.8076 60.6564C72.6208 60.7948 72.4488 61.0421 72.2875 61.3996C72.1276 61.757 72.0483 62.1132 72.0483 62.4693C72.0483 62.6588 72.0792 62.7959 72.1437 62.8779C72.2082 62.9625 72.2915 63.0029 72.395 63.0029C72.5872 63.0029 72.7928 62.9007 73.0132 62.6924C73.2323 62.4854 73.3935 62.1871 73.4957 61.7974L73.8438 60.4951V60.4964ZM75.8758 63.4383H75.2535L75.5452 62.3161C75.6876 61.7651 75.8113 61.2423 75.9174 60.7464C75.943 60.6241 75.9551 60.5488 75.9551 60.5166C75.9551 60.4494 75.9255 60.4171 75.8637 60.4171C75.822 60.4171 75.7589 60.4454 75.6715 60.5032C75.5855 60.5596 75.4296 60.7007 75.2038 60.9265L75.0748 60.7813C75.3422 60.4951 75.6083 60.2801 75.8744 60.1363C76.1405 59.9938 76.3448 59.9212 76.4873 59.9212C76.537 59.9212 76.576 59.9347 76.6055 59.9575C76.6338 59.9817 76.6499 60.0113 76.6499 60.0476C76.6499 60.0838 76.6311 60.1806 76.5961 60.3352L76.416 61.0824C76.6969 60.6389 77.0141 60.2626 77.3675 59.9468C77.5369 59.7962 77.678 59.7223 77.7922 59.7223C77.8769 59.7223 77.9454 59.7492 78.0019 59.803C78.057 59.8567 78.0852 59.9199 78.0852 59.9925C78.0852 60.065 78.0583 60.1322 78.0032 60.1846C77.9495 60.2371 77.8137 60.3002 77.5974 60.3728C77.3904 60.4427 77.2237 60.5247 77.0947 60.6214C76.9657 60.7195 76.8233 60.8674 76.6687 61.0689C76.5155 61.2692 76.4066 61.4439 76.3448 61.5931C76.283 61.7409 76.1889 62.0876 76.0653 62.6306L75.8771 63.4396L75.8758 63.4383ZM79.4439 58.1338C79.5299 58.1338 79.6011 58.162 79.6563 58.2198C79.7114 58.2763 79.7409 58.3515 79.7409 58.4389C79.7409 58.5612 79.6979 58.67 79.6132 58.7628C79.5286 58.8568 79.4332 58.9025 79.3283 58.9025C79.2437 58.9025 79.1751 58.8743 79.1187 58.8152C79.0636 58.7574 79.0367 58.6794 79.0367 58.5854C79.0367 58.4604 79.077 58.3529 79.1577 58.2669C79.2369 58.1782 79.3337 58.1338 79.4453 58.1338H79.4439ZM77.8003 60.8969C78.0435 60.6577 78.2021 60.5152 78.2734 60.4709C78.3446 60.4265 78.4077 60.4037 78.4628 60.4037C78.5139 60.4037 78.5381 60.4319 78.5381 60.4884C78.5381 60.5381 78.5287 60.5959 78.5099 60.659C78.0919 62.011 77.8836 62.8617 77.8836 63.2085C77.8836 63.3173 77.9118 63.402 77.9696 63.4638C78.0261 63.5256 78.104 63.5552 78.2021 63.5552C78.3137 63.5552 78.4561 63.5055 78.6322 63.406C78.8069 63.3052 79.0851 63.0754 79.4654 62.7166L79.3028 62.558C78.9359 62.9021 78.7074 63.0754 78.6187 63.0754C78.5959 63.0754 78.5744 63.062 78.5556 63.0351C78.5354 63.0096 78.526 62.9773 78.526 62.937C78.526 62.7341 78.6738 62.1387 78.9695 61.1523C79.1509 60.5488 79.2396 60.2048 79.2396 60.1255C79.2396 60.0583 79.2168 60.0059 79.1684 59.9656C79.1214 59.9266 79.0528 59.9078 78.9641 59.9078C78.8029 59.9078 78.6066 59.9736 78.3768 60.1027C78.147 60.2317 77.8944 60.4494 77.6162 60.7545L77.8003 60.8969ZM82.5605 59.8567L82.836 59.7989L82.5228 60.8553C82.3992 61.2746 82.2809 61.7584 82.1681 62.3067C82.1062 62.6051 82.0767 62.7972 82.0767 62.8819C82.0767 62.9666 82.1103 63.0109 82.1801 63.0109C82.2245 63.0109 82.2957 62.9827 82.3938 62.9236C82.5659 62.8201 82.7312 62.6924 82.8897 62.5392L83.0241 62.7018C82.707 62.9908 82.504 63.1682 82.414 63.2286C82.2366 63.3496 82.0659 63.441 81.906 63.4988C81.8012 63.5377 81.6963 63.5566 81.5969 63.5566C81.5243 63.5566 81.4706 63.5391 81.4343 63.5068C81.3966 63.4732 81.3805 63.4249 81.3805 63.3603C81.3805 63.3187 81.3913 63.2622 81.4128 63.1897L81.5794 62.6225C81.3402 62.9088 81.0553 63.1547 80.7247 63.3603C80.5204 63.488 80.3349 63.5525 80.1643 63.5525C79.9936 63.5525 79.8793 63.4961 79.792 63.3818C79.6751 63.2273 79.6173 63.0284 79.6173 62.7811C79.6173 62.4868 79.6966 62.1589 79.8538 61.7974C80.011 61.4358 80.2207 61.1066 80.4868 60.8123C80.7502 60.5179 81.0297 60.3002 81.3214 60.1618C81.5458 60.057 81.8361 60.0032 82.1896 60.0032C82.2796 60.0032 82.3696 60.0086 82.461 60.0207L82.5605 59.8567ZM82.0431 60.4964C81.8925 60.4655 81.7649 60.4494 81.6627 60.4494C81.4114 60.4494 81.1937 60.5193 81.0069 60.6564C80.8201 60.7948 80.6481 61.0421 80.4868 61.3996C80.3269 61.757 80.2476 62.1132 80.2476 62.4693C80.2476 62.6588 80.2785 62.7959 80.343 62.8779C80.4075 62.9625 80.4908 63.0029 80.5943 63.0029C80.7865 63.0029 80.9921 62.9007 81.2125 62.6924C81.4316 62.4854 81.5929 62.1871 81.695 61.7974L82.0431 60.4951V60.4964ZM86.6541 62.554L86.7629 62.7072C86.5076 62.9921 86.2442 63.2165 85.9754 63.3832C85.7913 63.4974 85.6394 63.5539 85.5198 63.5539C85.4231 63.5539 85.3451 63.5149 85.2846 63.4369C85.2241 63.359 85.1946 63.238 85.1946 63.0741C85.1946 62.9625 85.2174 62.8013 85.2631 62.5889C85.3088 62.3752 85.4392 61.9197 85.6529 61.2168C85.7483 60.8714 85.7953 60.6711 85.7953 60.6134C85.7953 60.5179 85.7483 60.4709 85.6529 60.4709C85.5359 60.4709 85.3908 60.5287 85.2161 60.6456C84.9715 60.8069 84.7538 61.0125 84.5656 61.2638C84.446 61.4251 84.3493 61.6643 84.2767 61.9815L83.9434 63.4329H83.3211C83.4555 62.9451 83.559 62.5486 83.6303 62.2395L84.2444 59.5597C84.356 59.0678 84.5025 58.6888 84.6852 58.4227C84.868 58.1567 85.1059 57.9457 85.3989 57.7857C85.6918 57.6271 85.9835 57.5479 86.2697 57.5479C86.3893 57.5479 86.4834 57.5774 86.5533 57.6366C86.6232 57.6943 86.6568 57.7683 86.6568 57.857C86.6568 57.9322 86.6232 57.9981 86.556 58.0545C86.4874 58.111 86.3947 58.1405 86.2778 58.1405C86.2106 58.1405 86.1246 58.1338 86.0184 58.1204C85.7792 58.0868 85.6139 58.0693 85.5211 58.0693C85.3948 58.0693 85.2887 58.1217 85.2094 58.2252C85.1287 58.3273 85.0441 58.5706 84.958 58.9523L84.4904 61.0138C84.821 60.6658 85.1811 60.3728 85.5709 60.1336C85.7993 59.9911 85.9821 59.9199 86.1205 59.9199C86.2294 59.9199 86.3141 59.9521 86.3759 60.018C86.4377 60.0838 86.4673 60.1752 86.4673 60.2908C86.4673 60.3849 86.4579 60.4803 86.435 60.5744C86.4001 60.7383 86.3141 61.0353 86.1797 61.4681C85.9982 62.0635 85.8934 62.4344 85.8612 62.5782C85.8303 62.7233 85.8141 62.8537 85.8141 62.9666C85.8141 63.0109 85.8209 63.0445 85.837 63.066C85.8518 63.0889 85.8746 63.0996 85.9055 63.0996C85.9727 63.0996 86.0977 63.0203 86.2818 62.8617C86.384 62.7744 86.5103 62.6723 86.6568 62.5526L86.6541 62.554Z" fill="white"/>
<defs>
<linearGradient id="paint0_linear_801_8268" x1="40.4754" y1="53.8131" x2="14.8373" y2="53.8131" gradientUnits="userSpaceOnUse">
<stop stop-color="#00693F"/>
<stop offset="1" stop-color="#008A44"/>
</linearGradient>
<linearGradient id="paint1_linear_801_8268" x1="67.7867" y1="53.8131" x2="36.1023" y2="53.8131" gradientUnits="userSpaceOnUse">
<stop stop-color="#00693F"/>
<stop offset="1" stop-color="#008A44"/>
</linearGradient>
<linearGradient id="paint2_linear_801_8268" x1="94.1613" y1="53.8131" x2="63.4149" y2="53.8131" gradientUnits="userSpaceOnUse">
<stop stop-color="#00693F"/>
<stop offset="1" stop-color="#008A44"/>
</linearGradient>
</defs>
</svg>
