<svg width="108" height="108" viewBox="0 0 108 108" fill="none" xmlns="http://www.w3.org/2000/svg">
<path fill-rule="evenodd" clip-rule="evenodd" d="M29.8255 41.0001C29.6335 41.1834 29.5942 41.275 29.472 41.515C29.3673 41.7201 29.267 41.9382 29.1753 42.1651C28.8743 42.9156 28.6387 43.7795 28.438 44.7001C27.8402 47.4141 27.5653 50.0451 27.1028 52.7503C27.0286 53.1823 26.937 53.671 26.7843 54.1247C26.5792 54.7356 26.2738 55.2941 25.6891 55.6126C25.4928 55.7173 25.2702 55.8002 25.0128 55.8482H17.351C17.7524 55.4206 18.0971 54.5829 18.3938 53.5139C18.625 52.6762 18.8345 51.6988 19.0221 50.6647C19.3624 48.8016 19.5719 46.921 19.8773 45.0536C20.1216 43.5439 20.6714 41.4364 22.0371 41.0045H29.8255V41.0001Z" fill="#EFB305"/>
<path fill-rule="evenodd" clip-rule="evenodd" d="M39.5904 52.9423C39.5904 53.2565 39.5424 53.5488 39.4508 53.815C39.3548 54.0811 39.2239 54.3211 39.0537 54.5349C38.8836 54.7487 38.6785 54.9319 38.4429 55.0934C38.2029 55.2505 37.9367 55.3857 37.64 55.4948C37.339 55.6039 37.0205 55.6868 36.6801 55.7391C36.3398 55.7959 35.9471 55.822 35.5108 55.822H32.4521C32.3125 55.822 32.1816 55.7828 32.0594 55.7042C31.9373 55.6213 31.8762 55.4817 31.8762 55.281V46.3233C31.8762 46.1226 31.9373 45.9829 32.0594 45.9C32.1816 45.8215 32.3125 45.7822 32.4521 45.7822H35.1137C35.8118 45.7822 36.3878 45.839 36.8285 45.9524C37.2779 46.0658 37.6488 46.2316 37.9455 46.4498C38.2465 46.668 38.469 46.9341 38.6174 47.2483C38.7701 47.5624 38.8443 47.9202 38.8443 48.3173C38.8443 48.5573 38.8094 48.7841 38.7439 49.0023C38.6785 49.2205 38.5825 49.4212 38.4516 49.6044C38.3207 49.7877 38.1636 49.9535 37.9629 50.0975C37.7666 50.2415 37.544 50.3593 37.291 50.4553C37.6095 50.5076 37.9106 50.5992 38.1854 50.7389C38.4647 50.8741 38.7047 51.0487 38.9141 51.2625C39.1192 51.4763 39.285 51.725 39.4071 52.0086C39.5293 52.2922 39.5904 52.6063 39.5904 52.9467V52.9423ZM93.9738 52.8114C93.9738 53.1692 93.9171 53.4921 93.8037 53.7801C93.6858 54.0724 93.5288 54.3298 93.3281 54.5523C93.123 54.7749 92.883 54.9669 92.6038 55.1239C92.3245 55.2854 92.0147 55.4163 91.6788 55.521C91.3428 55.6257 90.9806 55.6999 90.5967 55.7479C90.2127 55.8002 89.7895 55.822 89.3139 55.822H86.2029C86.0022 55.822 85.8364 55.7697 85.7011 55.6693C85.5659 55.569 85.496 55.4032 85.496 55.1763V46.4236C85.496 46.1967 85.5659 46.0309 85.7011 45.9306C85.8364 45.8302 86.0022 45.7779 86.2029 45.7779H89.1437C89.8593 45.7779 90.4701 45.8302 90.9632 45.9349C91.4606 46.0397 91.8795 46.1967 92.2198 46.4018C92.5645 46.6112 92.8219 46.8774 93.0052 47.1959C93.1841 47.5144 93.2757 47.894 93.2757 48.3304C93.2757 48.5747 93.2364 48.8016 93.1666 49.0154C93.0968 49.2292 92.9921 49.4255 92.8525 49.6001C92.7128 49.779 92.5427 49.9317 92.342 50.0669C92.1413 50.2022 91.91 50.3113 91.6526 50.3942C91.9842 50.4465 92.2896 50.5382 92.5732 50.6691C92.8525 50.8 93.0968 50.9614 93.3062 51.1708C93.5113 51.3759 93.6815 51.6115 93.7993 51.8908C93.9215 52.1657 93.9782 52.4711 93.9782 52.8114H93.9738ZM90.8977 48.5834C90.8977 48.3784 90.8628 48.1995 90.7887 48.0424C90.7188 47.881 90.6054 47.7501 90.4614 47.641C90.3174 47.5363 90.1385 47.4534 89.916 47.3966C89.6978 47.3399 89.4055 47.3137 89.0346 47.3137H87.8304V49.9186H89.1612C89.5059 49.9186 89.7764 49.8837 89.9815 49.8139C90.1865 49.7441 90.3567 49.6481 90.492 49.5259C90.6272 49.4037 90.7276 49.2597 90.793 49.0983C90.8585 48.9369 90.8934 48.7623 90.8934 48.5834H90.8977ZM91.5042 52.8856C91.5042 52.6543 91.4606 52.4449 91.369 52.2616C91.2773 52.074 91.1464 51.9213 90.9719 51.7991C90.7974 51.677 90.5749 51.581 90.3 51.5112C90.0294 51.4457 89.676 51.4108 89.2397 51.4108H87.8304V54.2687H89.5495C89.8811 54.2687 90.156 54.2382 90.3872 54.1771C90.6141 54.1204 90.8061 54.0331 90.9719 53.9153C91.1377 53.7975 91.2686 53.6535 91.3602 53.479C91.4519 53.3045 91.4999 53.1081 91.4999 52.8856H91.5042ZM84.6932 46.62C84.6932 46.7727 84.6845 46.8992 84.667 47.0039C84.6496 47.1087 84.6321 47.1959 84.5972 47.2614C84.5667 47.3268 84.5274 47.3748 84.4881 47.4054C84.4401 47.4359 84.3921 47.4534 84.3354 47.4534H81.4077V55.5515C81.4077 55.6039 81.3902 55.6475 81.351 55.6911C81.3117 55.7348 81.2463 55.7697 81.1546 55.7915C81.063 55.8177 80.9408 55.8395 80.7881 55.857C80.6354 55.8744 80.4434 55.8788 80.2122 55.8788C79.9809 55.8788 79.7933 55.87 79.6362 55.857C79.4835 55.8395 79.3613 55.8177 79.2741 55.7915C79.1824 55.7697 79.117 55.7348 79.0777 55.6911C79.0384 55.6519 79.021 55.6039 79.021 55.5515V47.449H76.0889C76.0322 47.449 75.9798 47.4315 75.9362 47.401C75.8926 47.3705 75.8576 47.3225 75.8271 47.257C75.8009 47.1916 75.7747 47.1043 75.7573 46.9996C75.7442 46.8949 75.7355 46.7683 75.7355 46.6156C75.7355 46.4629 75.7442 46.3276 75.7573 46.2229C75.7747 46.1138 75.7966 46.0266 75.8271 45.9655C75.8576 45.9 75.8969 45.852 75.9362 45.8259C75.9755 45.7953 76.0278 45.7822 76.0889 45.7822H84.3398C84.3965 45.7822 84.4445 45.7953 84.4925 45.8259C84.5361 45.8564 84.571 45.9 84.6016 45.9655C84.6321 46.0309 84.6539 46.1182 84.6714 46.2229C84.6888 46.332 84.6976 46.4629 84.6976 46.6156L84.6932 46.62ZM74.9283 55.1108C74.9283 55.2286 74.9021 55.3377 74.8585 55.4294C74.8105 55.521 74.745 55.5995 74.6621 55.6606C74.5792 55.7261 74.4832 55.7697 74.3698 55.8002C74.2607 55.8264 74.1429 55.8439 74.0295 55.8439H73.0172C72.8077 55.8439 72.6201 55.8264 72.4718 55.7871C72.3191 55.7522 72.1751 55.6868 72.0442 55.5908C71.9133 55.4948 71.7867 55.3639 71.6689 55.2025C71.5468 55.041 71.4115 54.8272 71.2632 54.5698L68.3485 49.875C68.1827 49.5957 68.0082 49.2946 67.8337 48.9718C67.6591 48.6489 67.502 48.3347 67.3624 48.0293H67.345C67.3711 48.4002 67.3886 48.7711 67.4017 49.1419C67.4104 49.5128 67.4191 49.8924 67.4191 50.2851V55.5428C67.4191 55.5952 67.4017 55.6388 67.3711 55.6824C67.3406 55.7261 67.2795 55.761 67.201 55.7871C67.1181 55.8177 67.009 55.8395 66.8694 55.8526C66.7298 55.87 66.5509 55.8744 66.3371 55.8744C66.1233 55.8744 65.9531 55.8657 65.8135 55.8526C65.6738 55.8351 65.5648 55.8133 65.4862 55.7871C65.4077 55.7566 65.3553 55.7217 65.3248 55.6824C65.2942 55.6432 65.2768 55.5952 65.2768 55.5428V46.5109C65.2768 46.2709 65.3597 46.0877 65.5255 45.9655C65.6913 45.8433 65.892 45.7822 66.132 45.7822H67.4104C67.6373 45.7822 67.8293 45.7997 67.9864 45.8346C68.1434 45.8695 68.2831 45.9262 68.4052 46.0004C68.5274 46.0789 68.6452 46.1837 68.7543 46.3233C68.8634 46.4585 68.9725 46.6287 69.0859 46.8294L71.3679 50.5033C71.4988 50.7258 71.6297 50.9439 71.7606 51.1621C71.8915 51.3759 72.018 51.5897 72.1358 51.8079C72.258 52.0217 72.3714 52.2355 72.4892 52.4405C72.6027 52.6456 72.7161 52.855 72.8208 53.0601H72.8296C72.8121 52.698 72.799 52.3227 72.7903 51.9257C72.7816 51.533 72.7772 51.1577 72.7772 50.8043V46.092C72.7772 46.0397 72.7947 45.996 72.8296 45.9524C72.8645 45.9131 72.9299 45.8739 73.0128 45.8433C73.0957 45.8128 73.2092 45.791 73.3444 45.7779C73.484 45.7648 73.6629 45.7561 73.8767 45.7561C74.0905 45.7561 74.252 45.7648 74.3916 45.7779C74.5312 45.7866 74.6403 45.8128 74.7145 45.8433C74.793 45.8739 74.8454 45.9131 74.8716 45.9524C74.9021 45.996 74.9196 46.044 74.9196 46.092V55.1196L74.9283 55.1108ZM63.6362 55.6257C63.6362 55.665 63.6231 55.7042 63.6013 55.7348C63.5751 55.7653 63.5359 55.7915 63.4791 55.8133C63.4224 55.8351 63.3439 55.8482 63.2392 55.8613C63.1388 55.87 63.0079 55.8788 62.8508 55.8788C62.6938 55.8788 62.5541 55.8744 62.4494 55.8657C62.3447 55.857 62.2531 55.8439 62.1833 55.8308C62.1091 55.8133 62.0524 55.7871 62.0044 55.7522C61.9607 55.7217 61.9215 55.6781 61.8822 55.6344L58.444 51.7686V55.6432C58.444 55.6824 58.4309 55.7217 58.4091 55.7479C58.3829 55.7784 58.3436 55.8002 58.2912 55.822C58.2345 55.8439 58.1603 55.857 58.0644 55.87C57.964 55.8788 57.8418 55.8875 57.6891 55.8875C57.5451 55.8875 57.4273 55.8831 57.327 55.87C57.231 55.8613 57.1524 55.8439 57.1001 55.822C57.0434 55.8002 56.9997 55.7784 56.9823 55.7479C56.9605 55.7217 56.9474 55.6824 56.9474 55.6432V45.263C56.9474 45.2194 56.9605 45.1845 56.9823 45.1539C56.9997 45.1234 57.039 45.0972 57.1001 45.0754C57.1568 45.0579 57.231 45.0405 57.327 45.0318C57.4273 45.023 57.5451 45.0143 57.6891 45.0143C57.8418 45.0143 57.964 45.0187 58.0644 45.0318C58.1603 45.0405 58.2345 45.0579 58.2912 45.0754C58.3436 45.0972 58.3829 45.1234 58.4091 45.1539C58.4352 45.1845 58.444 45.2194 58.444 45.263V51.581L61.52 48.6794C61.568 48.6271 61.6204 48.5834 61.6728 48.5485C61.7251 48.518 61.7906 48.4874 61.8691 48.4656C61.9433 48.4438 62.0349 48.4307 62.1353 48.422C62.2356 48.4133 62.3621 48.4089 62.5061 48.4089C62.6501 48.4089 62.7854 48.4133 62.8857 48.422C62.9861 48.4307 63.069 48.4394 63.1344 48.4569C63.1955 48.4744 63.2435 48.5005 63.2697 48.5267C63.2959 48.5529 63.309 48.5922 63.309 48.6402C63.309 48.7056 63.2872 48.7667 63.2522 48.8234C63.213 48.8889 63.1475 48.9587 63.0559 49.0416L60.1064 51.5723L63.4181 55.2592C63.4966 55.3465 63.5489 55.4163 63.5839 55.473C63.6188 55.5253 63.6319 55.5777 63.6319 55.6257H63.6362ZM55.5511 55.6344C55.5511 55.6737 55.538 55.713 55.5162 55.7391C55.49 55.7697 55.4551 55.7915 55.3984 55.8133C55.3417 55.8351 55.2675 55.8482 55.1715 55.8613C55.0712 55.87 54.9534 55.8788 54.8094 55.8788C54.6567 55.8788 54.5345 55.8744 54.4341 55.8613C54.3382 55.8526 54.264 55.8351 54.2073 55.8133C54.1549 55.7915 54.1156 55.7697 54.0894 55.7391C54.0633 55.713 54.0545 55.6737 54.0545 55.6344V51.5417C54.0545 51.1403 54.0196 50.8218 53.9455 50.5818C53.8756 50.3375 53.7709 50.128 53.6313 49.9491C53.4917 49.7746 53.3128 49.6393 53.0903 49.5477C52.8721 49.4561 52.619 49.4081 52.3267 49.4081C51.9515 49.4081 51.5806 49.5215 51.2053 49.7484C50.8301 49.9753 50.4374 50.3113 50.0273 50.752V55.6344C50.0273 55.6737 50.0142 55.713 49.9924 55.7391C49.9662 55.7697 49.9269 55.7915 49.8746 55.8133C49.8178 55.8351 49.7437 55.8482 49.6477 55.8613C49.5473 55.87 49.4251 55.8788 49.2724 55.8788C49.1284 55.8788 49.0106 55.8744 48.9103 55.8613C48.8143 55.8526 48.7358 55.8351 48.6834 55.8133C48.6267 55.7915 48.583 55.7697 48.5656 55.7391C48.5438 55.713 48.5307 55.6737 48.5307 55.6344V48.6489C48.5307 48.6052 48.5394 48.5703 48.5569 48.5442C48.5743 48.518 48.6136 48.4918 48.6659 48.4656C48.7227 48.4438 48.7881 48.4307 48.8754 48.422C48.9583 48.4133 49.0717 48.4089 49.207 48.4089C49.3422 48.4089 49.4513 48.4133 49.5386 48.422C49.6259 48.4307 49.6913 48.4438 49.7437 48.4656C49.7917 48.4874 49.8266 48.518 49.8484 48.5442C49.8658 48.5747 49.8789 48.6096 49.8789 48.6489V49.5739C50.3371 49.1332 50.7908 48.8103 51.249 48.6052C51.7028 48.4002 52.1609 48.2998 52.6278 48.2998C53.1732 48.2998 53.6269 48.3784 53.9978 48.5398C54.3687 48.6969 54.6698 48.9063 54.901 49.1725C55.1279 49.4386 55.2937 49.7484 55.3897 50.1018C55.49 50.4553 55.5424 50.8829 55.5424 51.3803V55.6432L55.5511 55.6344ZM47.1737 55.6432C47.1737 55.7042 47.1475 55.7522 47.0995 55.7828C47.0515 55.8133 46.9861 55.8395 46.9032 55.8526C46.8159 55.87 46.6938 55.8744 46.5323 55.8744C46.3709 55.8744 46.2487 55.8657 46.1571 55.8526C46.0654 55.8351 45.9956 55.8133 45.952 55.7828C45.9084 55.7522 45.8909 55.7042 45.8909 55.6432V54.945C45.5331 55.2723 45.1361 55.5253 44.6998 55.7042C44.2634 55.8831 43.8009 55.9791 43.3122 55.9791C42.8846 55.9791 42.492 55.9311 42.1473 55.8351C41.8026 55.7391 41.5059 55.6039 41.2615 55.4206C41.0172 55.2374 40.8252 55.0148 40.6899 54.7531C40.559 54.4869 40.4892 54.1902 40.4892 53.8542C40.4892 53.4615 40.5809 53.1212 40.7685 52.8289C40.9561 52.5409 41.2266 52.3009 41.5757 52.1089C41.9247 51.9169 42.3523 51.773 42.8585 51.677C43.3646 51.581 43.9362 51.533 44.5689 51.533H45.6902V50.9919C45.6902 50.7214 45.6553 50.4814 45.5899 50.2764C45.52 50.0713 45.4153 49.8968 45.267 49.7615C45.1186 49.6219 44.9266 49.5215 44.691 49.4474C44.4554 49.3775 44.1674 49.3426 43.8227 49.3426C43.4519 49.3426 43.1246 49.3775 42.8323 49.4561C42.54 49.5346 42.2825 49.6132 42.0644 49.7048C41.8418 49.7964 41.6586 49.875 41.5102 49.9535C41.3619 50.0277 41.2528 50.0626 41.1786 50.0626C41.1306 50.0626 41.0914 50.0538 41.0521 50.032C41.0172 50.0102 40.9823 49.9797 40.9561 49.936C40.9299 49.8968 40.9081 49.8444 40.8994 49.779C40.8863 49.7135 40.8819 49.6437 40.8819 49.5652C40.8819 49.4343 40.895 49.3339 40.9168 49.2597C40.9386 49.1856 40.9866 49.1157 41.0695 49.0459C41.1481 48.9805 41.2877 48.9019 41.4884 48.8103C41.6848 48.7187 41.916 48.6402 42.1734 48.5616C42.4309 48.4874 42.7188 48.4264 43.0243 48.374C43.3297 48.3216 43.6395 48.2998 43.958 48.2998C44.5427 48.2998 45.0401 48.3565 45.4502 48.47C45.8604 48.5834 46.192 48.7492 46.4451 48.9718C46.6981 49.1899 46.8814 49.4648 46.9992 49.792C47.1126 50.1193 47.1737 50.4945 47.1737 50.9309V55.6432ZM45.6902 52.4536H44.4161C44.006 52.4536 43.6526 52.4842 43.3472 52.5409C43.0461 52.602 42.7974 52.6892 42.5967 52.807C42.4003 52.9249 42.252 53.0645 42.1603 53.2259C42.0687 53.3917 42.0207 53.575 42.0207 53.7888C42.0207 54.1509 42.1516 54.4389 42.4221 54.6571C42.6927 54.8709 43.0679 54.9799 43.5479 54.9799C43.9406 54.9799 44.3027 54.897 44.6387 54.7225C44.9703 54.5523 45.3237 54.2905 45.6902 53.9371V52.4536ZM37.2561 48.4569C37.2561 48.2126 37.2168 47.9944 37.1383 47.798C37.0597 47.6017 36.9376 47.4359 36.7674 47.2963C36.5972 47.1567 36.3791 47.0519 36.1085 46.9821C35.838 46.9123 35.4802 46.873 35.0308 46.873H33.4208V50.128H35.1923C35.598 50.128 35.9253 50.0844 36.1696 49.9884C36.4183 49.8968 36.619 49.7746 36.7848 49.6262C36.9506 49.4735 37.0641 49.2946 37.1426 49.0896C37.2168 48.8845 37.2517 48.6751 37.2517 48.4569H37.2561ZM37.9629 53.0252C37.9629 52.7241 37.9062 52.4624 37.7927 52.2355C37.6837 52.0086 37.5222 51.8122 37.3041 51.6595C37.0903 51.5024 36.8241 51.3846 36.5012 51.3061C36.1783 51.2276 35.7726 51.1883 35.2839 51.1883H33.4208V54.7269H35.6809C36.0387 54.7269 36.3485 54.692 36.6147 54.6178C36.8808 54.548 37.1164 54.4389 37.3172 54.2949C37.5222 54.1553 37.6793 53.9764 37.7927 53.767C37.9062 53.5532 37.9673 53.3088 37.9673 53.0296L37.9629 53.0252Z" fill="#0B6E45"/>
<path fill-rule="evenodd" clip-rule="evenodd" d="M14.925 48.4045C15.3221 50.2153 15.5053 51.9693 15.8151 53.7757C15.8631 54.0637 15.9242 54.3865 16.0289 54.692C16.1642 55.1021 16.3692 55.473 16.7576 55.6824C16.8885 55.7522 17.0368 55.8046 17.207 55.8395H17.351C17.7524 55.4119 18.0927 54.5742 18.3894 53.5095C18.6207 52.6718 18.8301 51.6944 19.0177 50.6603C19.3057 49.0939 19.4977 47.5144 19.7333 45.9393H14C14.1265 46.0615 14.1571 46.1226 14.2356 46.284C14.3054 46.4193 14.3709 46.5633 14.432 46.716C14.6327 47.2177 14.7897 47.7937 14.925 48.4089V48.4045Z" fill="#00ABE5"/>
<path fill-rule="evenodd" clip-rule="evenodd" d="M19.742 45.9393C19.5064 47.5144 19.3101 49.0939 19.0265 50.6603C18.8388 51.6944 18.6294 52.6762 18.3981 53.5095C18.1014 54.5742 17.7611 55.4119 17.3597 55.8395H23.97C23.6995 55.5559 23.4726 54.9974 23.2719 54.2818C23.1148 53.7233 22.9795 53.0732 22.853 52.3795C22.6261 51.1359 22.4865 49.8837 22.2814 48.6358C22.1156 47.6322 21.7535 46.2229 20.8416 45.9349H19.7464L19.742 45.9393Z" fill="#007EBF"/>
<path fill-rule="evenodd" clip-rule="evenodd" d="M70.4036 60.0631H70.1331C70.1723 59.701 70.1898 59.4261 70.1898 59.2385C70.1898 58.9723 70.1156 58.7629 69.976 58.6102C69.832 58.4574 69.64 58.3789 69.3913 58.3789C69.0117 58.3789 68.6801 58.5185 68.4009 58.789C68.1173 59.0639 67.9776 59.3694 67.9776 59.7141C67.9776 59.8973 68.0169 60.0631 68.0954 60.2115C68.1696 60.3598 68.3442 60.5649 68.6103 60.831C69.0946 61.3066 69.4175 61.6775 69.5659 61.948C69.7186 62.2186 69.7927 62.4803 69.7927 62.7378C69.7927 63.113 69.6793 63.4752 69.4481 63.8242C69.2168 64.1733 68.8808 64.4613 68.4358 64.6838C67.9907 64.9107 67.5195 65.0241 67.0221 65.0241C66.5247 65.0241 66.1189 64.8932 65.7829 64.6402C65.447 64.3827 65.2768 64.1166 65.2768 63.833C65.2768 63.6802 65.3204 63.5537 65.4077 63.4534C65.495 63.353 65.5953 63.305 65.7088 63.305C65.8222 63.305 65.9226 63.353 65.9967 63.4446C66.0447 63.5013 66.0927 63.6235 66.1451 63.8155C66.2018 64.0511 66.2672 64.2213 66.3458 64.326C66.4243 64.4307 66.5334 64.518 66.673 64.5834C66.8127 64.6489 66.9654 64.6838 67.1312 64.6838C67.6242 64.6838 68.0562 64.518 68.4271 64.182C68.7936 63.8504 68.9812 63.4795 68.9812 63.0781C68.9812 62.9385 68.9594 62.8032 68.9114 62.668C68.8634 62.5327 68.7805 62.3756 68.6539 62.2055C68.571 62.0877 68.3747 61.8826 68.078 61.5859C67.7857 61.2979 67.6024 61.0972 67.5239 60.9925C67.4148 60.8354 67.3362 60.6827 67.2839 60.5256C67.2315 60.3685 67.2053 60.2115 67.2053 60.0588C67.2053 59.7446 67.3101 59.4304 67.5195 59.1119C67.7289 58.7934 68.0038 58.5403 68.3398 58.3527C68.6758 58.1651 69.0597 58.0691 69.4873 58.0691C69.7011 58.0691 69.9673 58.104 70.2771 58.1695C70.456 58.2044 70.613 58.2306 70.7439 58.248C70.6698 58.4705 70.6087 58.6843 70.5694 58.8807C70.5301 59.077 70.4734 59.4741 70.3992 60.0631H70.4036ZM70.8399 60.9576C71.1541 60.7307 71.3941 60.6129 71.5642 60.6129C71.7082 60.6129 71.8435 60.7045 71.9744 60.8878C72.2274 61.2412 72.4281 61.7561 72.5678 62.428C72.7074 63.0999 72.7772 63.6759 72.7772 64.1558C72.7772 64.5005 72.6812 64.8365 72.4936 65.1725C72.306 65.5041 72.0529 65.792 71.73 66.0364C71.4944 66.2109 71.2719 66.2982 71.0624 66.2982C70.9839 66.2982 70.8356 66.2764 70.6174 66.224C70.4123 66.1804 70.2553 66.1586 70.1374 66.1586C69.9847 66.1586 69.8626 66.1935 69.7753 66.2676C69.688 66.3418 69.64 66.4291 69.64 66.5338C69.64 66.6516 69.6968 66.752 69.8146 66.8349C69.9324 66.9178 70.1025 66.9614 70.3294 66.9614C70.6305 66.9614 70.949 66.8829 71.285 66.7214C71.6209 66.56 71.97 66.2938 72.3322 65.9229C72.6943 65.5521 73.0914 64.9848 73.5277 64.2213C73.964 63.4577 74.2825 62.7421 74.4876 62.0789C74.6927 61.4157 74.793 60.8616 74.793 60.4165C74.793 60.242 74.7581 60.1111 74.6839 60.0195C74.6098 59.9279 74.5138 59.8799 74.3916 59.8799C74.2956 59.8799 74.2171 59.9148 74.1516 59.9802C74.0862 60.0457 74.0556 60.1286 74.0556 60.2289C74.0556 60.3293 74.0862 60.5038 74.1473 60.7481C74.204 60.9663 74.2345 61.1365 74.2345 61.2717C74.2345 61.9 73.9422 62.7552 73.3619 63.8286C73.3706 63.6672 73.3706 63.545 73.3706 63.4664C73.3706 62.8556 73.2659 62.2229 73.0608 61.5772C72.8557 60.927 72.5983 60.4078 72.2929 60.0282C72.2274 59.9453 72.1576 59.9017 72.0878 59.9017C72.018 59.9017 71.9351 59.9235 71.8478 59.9628C71.6951 60.0369 71.4333 60.1984 71.0624 60.4558L70.6785 60.7132L70.8443 60.9576H70.8399ZM78.6196 59.8188L78.9599 59.7446L78.5716 61.0536C78.4189 61.5728 78.2705 62.1749 78.1309 62.8512C78.0567 63.2221 78.0175 63.4577 78.0175 63.5668C78.0175 63.6759 78.0611 63.7282 78.1484 63.7282C78.2051 63.7282 78.2923 63.6933 78.4145 63.6192C78.6283 63.4883 78.8334 63.3312 79.0297 63.1436L79.1955 63.3443C78.8028 63.7021 78.5498 63.9202 78.4407 63.9988C78.2182 64.1471 78.0087 64.2606 77.8124 64.3347C77.6815 64.3827 77.5549 64.4089 77.4284 64.4089C77.3368 64.4089 77.2713 64.3871 77.2277 64.3478C77.1797 64.3042 77.1623 64.2475 77.1623 64.1646C77.1623 64.1122 77.1754 64.0424 77.2015 63.9508L77.4066 63.2483C77.1099 63.6017 76.7565 63.9071 76.3463 64.1646C76.0933 64.3216 75.862 64.4045 75.6526 64.4045C75.4431 64.4045 75.2992 64.3347 75.1901 64.1907C75.0461 63.9988 74.9719 63.7544 74.9719 63.4446C74.9719 63.0781 75.0723 62.6723 75.2643 62.2229C75.4606 61.7735 75.718 61.3677 76.0496 61.0012C76.3769 60.6347 76.7216 60.3685 77.0837 60.194C77.363 60.0631 77.7207 59.9977 78.1571 59.9977C78.2705 59.9977 78.3796 60.0064 78.493 60.0195L78.6152 59.8144L78.6196 59.8188ZM77.9782 60.6129C77.7906 60.5736 77.6335 60.5562 77.507 60.5562C77.1972 60.5562 76.9266 60.6434 76.6954 60.8136C76.4641 60.9838 76.2503 61.2935 76.0496 61.7342C75.8533 62.1793 75.7529 62.62 75.7529 63.0607C75.7529 63.2963 75.7922 63.4664 75.8707 63.5668C75.9493 63.6715 76.054 63.7239 76.1805 63.7239C76.4205 63.7239 76.6736 63.5973 76.9485 63.3399C77.219 63.0825 77.4197 62.7116 77.5462 62.2316L77.9782 60.6172V60.6129ZM79.7278 64.2606L80.09 62.8687C80.2645 62.1836 80.4216 61.5379 80.5525 60.9227C80.583 60.77 80.6005 60.6783 80.6005 60.6391C80.6005 60.5562 80.5612 60.5169 80.487 60.5169C80.4347 60.5169 80.3562 60.5518 80.2471 60.6216C80.1424 60.6914 79.946 60.866 79.6668 61.1452L79.5053 60.9663C79.8369 60.6129 80.1685 60.3467 80.4958 60.1678C80.8274 59.9933 81.0804 59.9017 81.255 59.9017C81.3161 59.9017 81.3641 59.9191 81.4033 59.9453C81.4382 59.9758 81.46 60.0108 81.46 60.0544C81.46 60.098 81.4382 60.2202 81.3946 60.4122L81.1721 61.3372C81.5211 60.7874 81.9138 60.3205 82.3501 59.9279C82.5596 59.7402 82.7341 59.6486 82.8781 59.6486C82.9828 59.6486 83.0701 59.6835 83.1355 59.749C83.2053 59.8144 83.2403 59.8929 83.2403 59.9846C83.2403 60.0762 83.2053 60.1591 83.1399 60.2246C83.0745 60.29 82.9043 60.3685 82.6381 60.4558C82.3807 60.5431 82.1756 60.6434 82.0142 60.7656C81.8527 60.8878 81.6782 61.071 81.4862 61.3197C81.2942 61.5684 81.1633 61.7822 81.0848 61.9699C81.0106 62.1531 80.8928 62.5807 80.7401 63.257L80.5089 64.2606H79.7278ZM84.9245 57.6852C85.0292 57.6852 85.1208 57.7201 85.1863 57.7899C85.2561 57.8597 85.291 57.9513 85.291 58.0604C85.291 58.2131 85.2386 58.3484 85.1339 58.4618C85.0292 58.5796 84.9114 58.6363 84.7805 58.6363C84.6758 58.6363 84.5885 58.6014 84.523 58.5273C84.4532 58.4531 84.4227 58.3615 84.4227 58.2436C84.4227 58.0866 84.4707 57.9557 84.571 57.8466C84.6714 57.7375 84.7892 57.6808 84.9288 57.6808L84.9245 57.6852ZM82.8868 61.1103C83.1879 60.8136 83.3842 60.6391 83.4715 60.5823C83.5588 60.5256 83.6373 60.4994 83.7071 60.4994C83.7726 60.4994 83.7987 60.5343 83.7987 60.6042C83.7987 60.6652 83.7857 60.7351 83.7638 60.818C83.2446 62.4934 82.9872 63.5493 82.9872 63.9769C82.9872 64.1122 83.0221 64.2169 83.0919 64.2911C83.1617 64.3653 83.2577 64.4045 83.3799 64.4045C83.5195 64.4045 83.694 64.3435 83.9122 64.2213C84.1303 64.0947 84.4751 63.8111 84.9463 63.3661L84.7456 63.1697C84.2918 63.5973 84.0082 63.8111 83.8991 63.8111C83.8729 63.8111 83.8424 63.7937 83.8206 63.7631C83.7944 63.7326 83.7857 63.689 83.7857 63.641C83.7857 63.3923 83.9689 62.6505 84.3354 61.4288C84.5579 60.6783 84.6714 60.2551 84.6714 60.1547C84.6714 60.0718 84.6452 60.0064 84.5841 59.9584C84.5274 59.9104 84.4401 59.8842 84.3311 59.8842C84.1304 59.8842 83.886 59.9671 83.6024 60.1242C83.3188 60.2856 83.0046 60.5518 82.6599 60.9314L82.8868 61.1059V61.1103ZM88.7903 59.8231L89.1306 59.749L88.7423 61.0579C88.5896 61.5772 88.4412 62.1793 88.3016 62.8556C88.2274 63.2265 88.1882 63.4621 88.1882 63.5712C88.1882 63.6802 88.2318 63.7326 88.3191 63.7326C88.3758 63.7326 88.463 63.6977 88.5852 63.6235C88.799 63.4926 89.0041 63.3355 89.2004 63.1479L89.3662 63.3486C88.9735 63.7064 88.7205 63.9246 88.6114 64.0031C88.3889 64.1515 88.1794 64.2649 87.9831 64.3391C87.8522 64.3871 87.7257 64.4133 87.5991 64.4133C87.5075 64.4133 87.4421 64.3914 87.3984 64.3522C87.3504 64.3085 87.333 64.2518 87.333 64.1689C87.333 64.1166 87.3461 64.0468 87.3722 63.9551L87.5773 63.2526C87.2806 63.6061 86.9272 63.9115 86.517 64.1689C86.264 64.326 86.0327 64.4089 85.8233 64.4089C85.6139 64.4089 85.4699 64.3391 85.3608 64.1951C85.2168 64.0031 85.1426 63.7588 85.1426 63.449C85.1426 63.0825 85.243 62.6767 85.435 62.2273C85.6313 61.7779 85.8887 61.3721 86.2203 61.0056C86.5476 60.6391 86.8923 60.3729 87.2544 60.1984C87.5337 60.0675 87.8915 60.002 88.3278 60.002C88.4369 60.002 88.5503 60.0108 88.6638 60.0238L88.7859 59.8188L88.7903 59.8231ZM88.1489 60.6172C87.9613 60.578 87.8042 60.5605 87.6777 60.5605C87.3679 60.5605 87.0974 60.6478 86.8661 60.818C86.6349 60.9881 86.4211 61.2979 86.2203 61.7386C86.024 62.1836 85.9236 62.6243 85.9236 63.065C85.9236 63.3006 85.9629 63.4708 86.0415 63.5712C86.12 63.6759 86.2247 63.7282 86.3512 63.7282C86.5912 63.7282 86.8443 63.6017 87.1192 63.3443C87.3897 63.0868 87.5904 62.716 87.7169 62.236L88.1489 60.6216V60.6172ZM93.8647 63.1654L94 63.3574C93.6858 63.7108 93.3586 63.99 93.0226 64.1951C92.7957 64.3347 92.6081 64.4089 92.4554 64.4089C92.3376 64.4089 92.2373 64.3609 92.1631 64.2649C92.0889 64.1689 92.054 64.0162 92.054 63.8155C92.054 63.6759 92.0802 63.4752 92.1369 63.2134C92.1936 62.9472 92.3551 62.3844 92.6212 61.5117C92.739 61.0841 92.7957 60.8354 92.7957 60.7612C92.7957 60.6434 92.739 60.5867 92.6212 60.5867C92.4772 60.5867 92.2983 60.6609 92.0802 60.8049C91.7747 61.0056 91.5042 61.2586 91.273 61.5728C91.1246 61.7735 91.0025 62.0702 90.9152 62.4629L90.5007 64.2606H89.7284C89.8942 63.6584 90.0251 63.1654 90.1124 62.7814L90.8716 59.461C91.0112 58.8501 91.1901 58.3833 91.417 58.0517C91.6438 57.7201 91.9362 57.4583 92.3027 57.2619C92.6649 57.0656 93.027 56.9652 93.3804 56.9652C93.5288 56.9652 93.6466 57.0001 93.7338 57.0743C93.8211 57.1485 93.8647 57.2357 93.8647 57.3492C93.8647 57.4408 93.8211 57.5237 93.7382 57.5935C93.6553 57.6633 93.5375 57.6982 93.3935 57.6982C93.3106 57.6982 93.2015 57.6895 93.0706 57.6721C92.7739 57.6284 92.5689 57.6066 92.4554 57.6066C92.2983 57.6066 92.1674 57.6721 92.0671 57.7986C91.9667 57.9251 91.862 58.2262 91.7573 58.6974L91.177 61.2543C91.5871 60.8223 92.0322 60.4602 92.5165 60.1635C92.8001 59.9889 93.027 59.8973 93.1972 59.8973C93.3324 59.8973 93.4371 59.9366 93.5113 60.0195C93.5855 60.1024 93.6248 60.2158 93.6248 60.3598C93.6248 60.4776 93.6117 60.5954 93.5855 60.7132C93.5419 60.9183 93.4371 61.2848 93.2713 61.8215C93.0488 62.5589 92.9179 63.017 92.8743 63.1959C92.835 63.3748 92.8176 63.5363 92.8176 63.6759C92.8176 63.7326 92.8263 63.7719 92.8437 63.798C92.8612 63.8242 92.8917 63.8417 92.9266 63.8417C93.0095 63.8417 93.1666 63.7413 93.3935 63.545C93.52 63.4359 93.6771 63.3094 93.856 63.161L93.8647 63.1654Z" fill="#0B6E45"/>
</svg>
