<svg width="109" height="108" viewBox="0 0 109 108" fill="none" xmlns="http://www.w3.org/2000/svg">
<g clip-path="url(#clip0_801_8411)">
<path fill-rule="evenodd" clip-rule="evenodd" d="M22.4689 46.5306C26.5941 46.5306 29.9385 49.8751 29.9385 54.0002C29.9385 58.1247 26.5941 61.4692 22.4689 61.4692C18.3438 61.4692 15 58.1247 15 54.0002C15 49.8751 18.3438 46.5306 22.4689 46.5306Z" fill="#EC2127"/>
<path fill-rule="evenodd" clip-rule="evenodd" d="M15.5877 56.9095C15.2092 56.0155 15 55.0318 15 53.9996C15 52.7576 15.3038 51.5865 15.8405 50.5555C18.5374 50.1633 21.0271 51.2752 24.8254 51.1825C25.7847 51.1594 27.0324 50.9833 27.932 51.0306C27.6917 51.5106 27.3181 51.8088 26.9141 52.1039C25.4374 53.1834 24.2364 53.7412 22.1496 53.5868C20.9138 53.4953 19.6581 53.2849 18.431 53.1274C17.7978 53.0458 17.1317 52.9618 16.5203 53.1604C16.0845 53.3023 15.4551 53.7805 15.3524 54.05C17.25 54.9067 19.8834 54.9913 21.9292 54.4385C22.8437 54.1913 23.1525 53.9591 23.8062 53.7375C23.7539 54.1696 22.9402 55.1775 22.5611 55.4689C22.2249 55.7278 22.1097 55.853 21.6976 56.117C19.9974 57.204 17.6304 57.4038 15.5927 56.9095H15.5877Z" fill="#FEFEFE"/>
<path fill-rule="evenodd" clip-rule="evenodd" d="M62.2081 55.2609C60.5303 55.2609 60.3915 53.0203 61.5501 52.4843C63.0841 51.7758 64.0976 53.6553 63.1762 54.8164C62.9695 55.0766 62.5145 55.2609 62.2081 55.2609ZM59.3829 48.9549V56.4718H60.7955V55.8667C61.0807 56.0578 61.4306 56.5727 62.4099 56.5727C63.9096 56.5727 64.9829 55.3705 64.9829 54.0507C64.9829 53.1828 64.8858 52.4332 64.29 51.8169C63.3257 50.8177 61.7257 50.718 60.846 51.7297V48.8036H59.5342C59.4178 48.8036 59.3829 48.8385 59.3829 48.9549Z" fill="#221E1F"/>
<path fill-rule="evenodd" clip-rule="evenodd" d="M35.066 53.8483C35.066 53.3085 35.2372 52.9157 35.6046 52.6212C35.6979 52.5465 35.716 52.5334 35.8212 52.4849C37.4106 51.7453 38.3576 53.7867 37.4517 54.8214C36.7283 55.6469 35.066 55.264 35.066 53.8483ZM33.6541 49.0558V56.4718H35.066V55.8667C35.198 55.9551 35.2379 56.0285 35.3605 56.1275C36.8522 57.3341 39.2534 55.9856 39.2534 54.1515C39.2534 53.2867 39.2136 52.4923 38.5611 51.8169C37.8259 51.0555 36.7046 50.7921 35.772 51.2242C35.5286 51.3369 35.3406 51.5292 35.1165 51.6793V48.9045H33.8053C33.6889 48.9045 33.6541 48.9393 33.6541 49.0558Z" fill="#221E1F"/>
<path fill-rule="evenodd" clip-rule="evenodd" d="M67.3032 53.7979C67.3032 53.4063 67.4801 52.9842 67.6787 52.7607C68.323 52.0373 69.9772 52.1406 69.9772 53.8987C69.9772 54.3053 69.8178 54.6303 69.6136 54.8469C68.8684 55.6363 67.3032 55.269 67.3032 53.7979ZM65.8402 53.5962C65.8402 54.5026 65.9766 55.2136 66.558 55.8051C67.2173 56.4749 68.3678 56.8142 69.3222 56.3716C69.6603 56.2153 69.7244 56.0354 69.9772 55.8667V56.4718H71.3898V51.1246H69.9267V51.6793C69.8041 51.5971 69.7786 51.5423 69.6547 51.4471C68.1443 50.291 65.8402 51.584 65.8402 53.5962Z" fill="#221E1F"/>
<path fill-rule="evenodd" clip-rule="evenodd" d="M41.5744 53.7979C41.5744 51.9376 44.2483 51.721 44.2483 53.8987C44.2483 54.3052 44.0889 54.6302 43.8841 54.8469C43.7895 54.9471 43.6432 55.0623 43.5074 55.1258C42.629 55.5392 41.5744 54.9608 41.5744 53.7979ZM40.1113 53.697C40.1113 56.2265 42.2474 56.9954 43.5927 56.3716C43.9308 56.2153 43.9955 56.0354 44.2483 55.8667V56.4718H45.6609V51.1245H44.1979V51.6793C43.7839 51.4022 43.5803 51.0231 42.5829 51.0231C41.1504 51.0231 40.1113 52.2831 40.1113 53.697Z" fill="#221E1F"/>
<path fill-rule="evenodd" clip-rule="evenodd" d="M53.2281 49.0558V56.4718H54.6912V54.2019C55.1058 54.4796 56.4935 56.4108 56.8135 56.4681C57.0831 56.5166 57.9883 56.4718 58.3232 56.4718C58.2118 56.2607 58.2018 56.2944 58.0636 56.1263L57.1914 55.0305C56.9934 54.7778 56.8285 54.5842 56.6299 54.3314C56.4319 54.0793 56.2196 53.8452 56.0534 53.5962L57.1628 52.3853C57.3769 52.1051 58.0854 51.4047 58.2728 51.1246H56.5576C56.4948 51.2428 54.9047 53.1 54.6912 53.2432V48.9045H53.3794C53.263 48.9045 53.2281 48.9393 53.2281 49.0558Z" fill="#221E1F"/>
<path fill-rule="evenodd" clip-rule="evenodd" d="M85.8184 52.3349H86.121C86.6595 52.3349 86.9758 52.7482 87.0797 53.1928H84.8092C84.9082 52.7682 85.298 52.3349 85.8184 52.3349ZM83.2958 53.5457C83.2958 54.4335 83.3854 55.1819 84.1151 55.8549C84.9854 56.6573 86.3121 56.7632 87.3979 56.2857C87.7714 56.1213 88.1257 55.8343 88.3411 55.5131L87.4327 54.6558C87.1252 54.8619 86.9185 55.2609 86.121 55.2609C85.4984 55.2609 84.8553 54.8046 84.8092 54.2524H88.5428C88.5428 53.2631 88.5733 52.544 87.7739 51.7415C86.9204 50.8855 85.354 50.7878 84.4046 51.4763C84.018 51.7565 83.7285 52.0647 83.5392 52.5285C83.4228 52.8136 83.2958 53.1286 83.2958 53.5457Z" fill="#221E1F"/>
<path fill-rule="evenodd" clip-rule="evenodd" d="M91.3088 51.7378C91.3088 51.721 91.3455 51.7011 91.3468 51.7086L91.368 51.1246H89.8545V56.4718C91.696 56.4718 91.368 56.7725 91.368 55.2609C91.368 54.8071 91.3686 54.3532 91.3673 53.8987C91.3667 53.3851 91.3879 53.0776 91.6108 52.78C92.1157 52.1064 93.0918 52.3031 93.3365 52.6866C93.664 53.2002 93.537 55.6706 93.537 56.4718H95V53.2936C95 52.6798 94.8519 51.998 94.5592 51.6656C93.6397 50.6197 91.8984 50.9876 91.368 51.7801L91.3088 51.7378Z" fill="#221E1F"/>
<path fill-rule="evenodd" clip-rule="evenodd" d="M74.114 51.7801V51.1245H72.651V56.4718H74.114C74.114 55.5996 73.9684 53.3515 74.3774 52.8005C74.8761 52.1275 75.9058 52.2396 76.1598 52.7613C76.4331 53.3247 76.3335 55.7085 76.3335 56.4718H77.7965V53.4449C77.7965 52.0055 77.319 51.0231 75.7788 51.0231C74.7951 51.0231 74.4365 51.5641 74.114 51.7801Z" fill="#221E1F"/>
<path fill-rule="evenodd" clip-rule="evenodd" d="M48.4855 51.7801V51.1246H47.0225V56.4718H48.4855V53.6466C48.4855 52.0429 50.6551 51.848 50.6551 53.344V56.4718H52.1182V52.9406C52.1182 51.2012 50.4341 50.6402 49.1734 51.2572C48.7955 51.4421 48.7557 51.5996 48.4855 51.7801Z" fill="#221E1F"/>
<path fill-rule="evenodd" clip-rule="evenodd" d="M79.4613 49.6615V51.1246H78.6544V52.3348H79.4613V54.9079C79.4613 56.7389 81.2082 56.9032 82.6905 56.1188C82.5965 55.7172 82.4259 55.3393 82.3369 54.9583C81.9192 55.0561 80.9243 55.6456 80.9243 54.6558V52.3348H82.3873V51.1246H80.9243V49.4088L79.4613 49.6615Z" fill="#221E1F"/>
<path d="M33.9541 58.8102H34.5804C34.7049 58.8102 34.7971 58.8152 34.8574 58.8251C34.9191 58.8357 34.9732 58.8575 35.0212 58.8899C35.0691 58.9229 35.1096 58.9658 35.1413 59.02C35.1737 59.0748 35.1899 59.1358 35.1899 59.203C35.1899 59.2759 35.17 59.3437 35.1308 59.4041C35.0915 59.4657 35.038 59.5112 34.9701 59.5417C35.0654 59.5697 35.1382 59.617 35.1899 59.6843C35.2409 59.7515 35.2665 59.8299 35.2665 59.9208C35.2665 59.9924 35.2497 60.0615 35.2167 60.1288C35.1837 60.1966 35.1382 60.2502 35.0809 60.2906C35.0237 60.3311 34.9527 60.3554 34.8687 60.3654C34.8164 60.3703 34.6887 60.3741 34.4876 60.3759H33.9541V58.8102ZM34.271 59.0704V59.4309H34.4783C34.6009 59.4309 34.6775 59.429 34.7074 59.4253C34.7616 59.4197 34.8039 59.401 34.835 59.3699C34.8662 59.3387 34.8811 59.2983 34.8811 59.2478C34.8811 59.1993 34.868 59.1607 34.8413 59.1302C34.8145 59.1003 34.7746 59.0816 34.7224 59.0754C34.6912 59.0723 34.6009 59.0704 34.4528 59.0704H34.271ZM34.271 59.6911V60.1113H34.5642C34.6781 60.1113 34.7504 60.1076 34.7809 60.1014C34.8282 60.0927 34.8662 60.0721 34.896 60.0391C34.9253 60.0055 34.9402 59.9613 34.9402 59.9053C34.9402 59.858 34.929 59.8181 34.906 59.7857C34.8836 59.7527 34.8506 59.7291 34.807 59.7135C34.7641 59.6986 34.6707 59.6911 34.5269 59.6911H34.271ZM37.6061 60.3759H37.2643L37.1292 60.0192H36.5016L36.3715 60.3759H36.036L36.6436 58.8102H36.9792L37.6061 60.3759ZM37.0265 59.7546L36.8092 59.175L36.5975 59.7546H37.0265ZM38.4372 60.3759V58.8102H38.7441L39.3885 59.8592V58.8102H39.6811V60.3759H39.3648L38.7304 59.3462V60.3759H38.4372ZM40.6828 60.3759V58.8102H41.0003V59.5037L41.6391 58.8102H42.0637L41.4729 59.4197L42.0948 60.3759H41.6858L41.255 59.6407L41.0003 59.9022V60.3759H40.6828Z" fill="#221E1F"/>
<path d="M43.8442 60.376V58.8102H44.3516C44.5434 58.8102 44.6685 58.8177 44.727 58.8332C44.8167 58.8569 44.8914 58.9079 44.9518 58.987C45.0128 59.0654 45.0427 59.1669 45.0427 59.2921C45.0427 59.3879 45.0253 59.4689 44.991 59.5342C44.9555 59.5996 44.9113 59.6513 44.8578 59.6886C44.8042 59.726 44.7501 59.7509 44.6947 59.7627C44.6187 59.7777 44.5098 59.7851 44.3672 59.7851H44.1617V60.376H43.8442ZM44.1617 59.0748V59.5205H44.3342C44.4581 59.5205 44.5409 59.5125 44.5826 59.4956C44.6249 59.4795 44.6573 59.4539 44.681 59.4184C44.7053 59.3836 44.7171 59.3431 44.7171 59.2964C44.7171 59.2391 44.7003 59.1925 44.6673 59.1551C44.6337 59.1177 44.5913 59.0947 44.5403 59.0854C44.5029 59.0779 44.427 59.0748 44.3137 59.0748H44.1617ZM45.9105 60.376V58.8102H47.0698V59.0748H46.2281V59.4222H47.0106V59.6868H46.2281V60.1114H47.1003V60.376H45.9105ZM47.9725 60.376V58.8102H48.4475L48.7277 59.8779L49.0053 58.8102H49.481V60.376H49.1884L49.1871 59.1433L48.8783 60.376H48.5739L48.2663 59.1433L48.2657 60.376H47.9725ZM50.4061 58.8102H51.0324C51.1563 58.8102 51.2484 58.8152 51.3095 58.8251C51.3705 58.8357 51.4252 58.8575 51.4732 58.8899C51.5211 58.9229 51.5616 58.9658 51.5933 59.02C51.6257 59.0748 51.6413 59.1358 51.6413 59.203C51.6413 59.2759 51.622 59.3437 51.5828 59.4041C51.5429 59.4658 51.4894 59.5112 51.4221 59.5417C51.5174 59.5697 51.5902 59.617 51.6413 59.6843C51.6923 59.7515 51.7179 59.83 51.7179 59.9209C51.7179 59.9925 51.7017 60.0616 51.6687 60.1288C51.6351 60.1967 51.5902 60.2502 51.5323 60.2907C51.4751 60.3311 51.4047 60.3554 51.3207 60.3654C51.2677 60.3703 51.1407 60.3741 50.939 60.376H50.4061V58.8102ZM50.723 59.0704V59.4309H50.9303C51.053 59.4309 51.1295 59.429 51.1594 59.4253C51.213 59.4197 51.2559 59.401 51.287 59.3699C51.3175 59.3388 51.3331 59.2983 51.3331 59.2479C51.3331 59.1993 51.3194 59.1607 51.2933 59.1302C51.2665 59.1003 51.2267 59.0816 51.1744 59.0754C51.1432 59.0723 51.053 59.0704 50.9048 59.0704H50.723ZM50.723 59.6911V60.1114H51.0162C51.1295 60.1114 51.2024 60.1076 51.2329 60.1014C51.2802 60.0927 51.3182 60.0721 51.3481 60.0391C51.3773 60.0055 51.3923 59.9613 51.3923 59.9053C51.3923 59.858 51.381 59.8181 51.358 59.7858C51.3356 59.7528 51.302 59.7291 51.259 59.7135C51.2161 59.6986 51.1227 59.6911 50.9789 59.6911H50.723ZM54.0033 60.376H53.6615L53.5264 60.0192H52.8989L52.7688 60.376H52.4332L53.0408 58.8102H53.3764L54.0033 60.376ZM53.4237 59.7546L53.2064 59.175L52.9947 59.7546H53.4237ZM54.7796 60.376V58.8102H55.0866L55.7309 59.8592V58.8102H56.0235V60.376H55.7073L55.0729 59.3462V60.376H54.7796ZM57.6945 59.8007V59.5361H58.375V60.1605C58.309 60.2253 58.2131 60.2819 58.0874 60.3311C57.9616 60.3797 57.8346 60.404 57.7057 60.404C57.542 60.404 57.3994 60.3697 57.2774 60.3012C57.156 60.2321 57.0651 60.1332 57.0035 60.0055C56.9424 59.8773 56.9119 59.7378 56.9119 59.5872C56.9119 59.424 56.9462 59.279 57.014 59.152C57.0825 59.025 57.1828 58.9272 57.3141 58.8594C57.4144 58.8071 57.5395 58.7816 57.6889 58.7816C57.8831 58.7816 58.0351 58.8226 58.1446 58.9042C58.2536 58.9858 58.3239 59.0984 58.3551 59.2429L58.04 59.302C58.0182 59.2248 57.9765 59.1644 57.9155 59.1196C57.8551 59.0748 57.7798 59.053 57.6883 59.053C57.5507 59.053 57.4411 59.0966 57.3596 59.1844C57.2786 59.2721 57.2375 59.4023 57.2375 59.5747C57.2375 59.7609 57.2786 59.9003 57.3614 59.9937C57.4436 60.0865 57.5519 60.1332 57.6858 60.1332C57.7512 60.1332 57.8178 60.1201 57.8844 60.0939C57.951 60.0684 58.0077 60.0367 58.0556 59.9993V59.8007H57.6945ZM59.2752 58.8102H59.5921V59.6588C59.5921 59.7932 59.5958 59.8804 59.6039 59.9202C59.617 59.9844 59.6488 60.036 59.6992 60.0746C59.7496 60.1139 59.8187 60.1332 59.9065 60.1332C59.9949 60.1332 60.0621 60.1145 60.107 60.0777C60.1524 60.041 60.1792 59.9962 60.1885 59.9426C60.1972 59.8891 60.2022 59.8007 60.2022 59.6768V58.8102H60.5191V59.6332C60.5191 59.8212 60.511 59.9545 60.4936 60.0323C60.4768 60.1095 60.445 60.1755 60.3996 60.229C60.3535 60.2826 60.2925 60.3249 60.2159 60.3567C60.1393 60.3884 60.0391 60.404 59.9158 60.404C59.7664 60.404 59.6537 60.3872 59.5765 60.3523C59.5 60.3181 59.4389 60.2732 59.3941 60.2178C59.3493 60.1624 59.32 60.1045 59.3057 60.0435C59.2852 59.9539 59.2752 59.8212 59.2752 59.6463V58.8102ZM61.4617 60.376V58.8102H61.7686L62.413 59.8592V58.8102H62.7062V60.376H62.3893L61.7549 59.3462V60.376H61.4617ZM65.0589 60.376H64.7177L64.5826 60.0192H63.9544L63.8243 60.376H63.4888L64.097 58.8102H64.4319L65.0589 60.376ZM64.4793 59.7546L64.262 59.175L64.0503 59.7546H64.4793ZM65.8352 60.376V58.8102H66.1421L66.7865 59.8592V58.8102H67.0797V60.376H66.7628L66.1284 59.3462V60.376H65.8352Z" fill="#221E1F"/>
<path d="M69.1199 58.8102H69.6964C69.8265 58.8102 69.9255 58.8195 69.9933 58.8401C70.0849 58.8668 70.1639 58.9148 70.2287 58.9839C70.2947 59.053 70.3438 59.1377 70.3781 59.2379C70.4123 59.3375 70.4291 59.4614 70.4291 59.6077C70.4291 59.7366 70.4136 59.8474 70.3812 59.9408C70.342 60.0547 70.2866 60.1475 70.2137 60.2178C70.1596 60.2713 70.0855 60.3124 69.9927 60.3423C69.923 60.3647 69.8296 60.3759 69.7132 60.3759H69.1199V58.8102ZM69.4368 59.0748V60.1113H69.6715C69.7592 60.1113 69.8228 60.1057 69.862 60.0964C69.913 60.0833 69.9554 60.0615 69.989 60.031C70.0232 60.0005 70.0506 59.9501 70.0718 59.8798C70.0929 59.81 70.1035 59.7141 70.1035 59.5934C70.1035 59.472 70.0929 59.3798 70.0718 59.3145C70.0506 59.2497 70.0207 59.1993 69.9821 59.1632C69.9442 59.1271 69.8956 59.1022 69.8364 59.0897C69.7929 59.0798 69.7063 59.0748 69.5781 59.0748H69.4368ZM72.7108 60.3759H72.3691L72.234 60.0192H71.6058L71.4757 60.3759H71.1407L71.7484 58.8102H72.0833L72.7108 60.3759ZM72.1312 59.7546L71.914 59.175L71.7023 59.7546H72.1312ZM73.481 60.3759V58.8102H74.6402V59.0748H73.7979V59.4222H74.581V59.6868H73.7979V60.1113H74.6707V60.3759H73.481ZM75.541 60.3759V58.8102H76.2072C76.374 58.8102 76.4961 58.8245 76.572 58.8525C76.648 58.8805 76.7084 58.9303 76.7538 59.0019C76.7999 59.0741 76.8223 59.1563 76.8223 59.2491C76.8223 59.3668 76.788 59.4633 76.7196 59.5398C76.6505 59.6164 76.5477 59.6643 76.4108 59.6849C76.4786 59.7241 76.5347 59.7683 76.5789 59.8156C76.6237 59.8636 76.6835 59.9489 76.7582 60.0703L76.9493 60.3759H76.5714L76.3448 60.0335C76.2632 59.9127 76.2078 59.8362 76.1773 59.8044C76.1474 59.7727 76.1157 59.7509 76.0821 59.7397C76.0484 59.7278 75.9955 59.7216 75.9221 59.7216H75.8579V60.3759H75.541ZM75.8579 59.4726H76.092C76.2439 59.4726 76.3379 59.4657 76.3759 59.4533C76.4139 59.4402 76.4438 59.4184 76.4643 59.3867C76.4861 59.3555 76.4967 59.3163 76.4967 59.269C76.4967 59.2161 76.4824 59.1738 76.4543 59.1414C76.4263 59.109 76.3865 59.0885 76.3354 59.0798C76.3099 59.0766 76.2327 59.0748 76.1051 59.0748H75.8579V59.4726ZM79.132 60.3759H78.7908L78.6557 60.0192H78.0276L77.8975 60.3759H77.5619L78.1701 58.8102H78.5051L79.132 60.3759ZM78.553 59.7546L78.3351 59.175L78.1241 59.7546H78.553ZM79.9028 60.3759V58.8102H80.2196V59.4265H80.8366V58.8102H81.1535V60.3759H80.8366V59.6911H80.2196V60.3759H79.9028Z" fill="#221E1F"/>
<path d="M83.0934 58.8102H83.7197C83.8436 58.8102 83.9357 58.8152 83.9967 58.8251C84.0577 58.8357 84.1125 58.8575 84.1605 58.8899C84.2084 58.9229 84.2489 58.9658 84.2806 59.02C84.313 59.0748 84.3292 59.1358 84.3292 59.203C84.3292 59.2759 84.3093 59.3437 84.27 59.4041C84.2302 59.4657 84.1766 59.5112 84.1094 59.5417C84.2047 59.5697 84.2775 59.617 84.3292 59.6843C84.3796 59.7515 84.4051 59.8299 84.4051 59.9208C84.4051 59.9924 84.3889 60.0615 84.356 60.1288C84.323 60.1966 84.2775 60.2502 84.2196 60.2906C84.163 60.3311 84.092 60.3554 84.0079 60.3654C83.955 60.3703 83.828 60.3741 83.6263 60.3759H83.0934V58.8102ZM83.4103 59.0704V59.4309H83.6176C83.7402 59.4309 83.8168 59.429 83.8467 59.4253C83.9009 59.4197 83.9432 59.401 83.9743 59.3699C84.0054 59.3387 84.0204 59.2983 84.0204 59.2478C84.0204 59.1993 84.0073 59.1607 83.9805 59.1302C83.9538 59.1003 83.9139 59.0816 83.8616 59.0754C83.8305 59.0723 83.7402 59.0704 83.5921 59.0704H83.4103ZM83.4103 59.6911V60.1113H83.7035C83.8174 60.1113 83.8897 60.1076 83.9202 60.1014C83.9675 60.0927 84.0054 60.0721 84.0353 60.0391C84.0646 60.0055 84.0795 59.9613 84.0795 59.9053C84.0795 59.858 84.0683 59.8181 84.0453 59.7857C84.0229 59.7527 83.9893 59.7291 83.9463 59.7135C83.9033 59.6986 83.81 59.6911 83.6661 59.6911H83.4103ZM86.7086 60.3759H86.3675L86.2318 60.0192H85.6042L85.4741 60.3759H85.1385L85.7468 58.8102H86.0817L86.7086 60.3759ZM86.129 59.7546L85.9118 59.175L85.7001 59.7546H86.129ZM87.5037 60.3759V58.8102H87.81L88.4543 59.8592V58.8102H88.7475V60.3759H88.4307L87.7963 59.3462V60.3759H87.5037ZM90.0605 60.3759V59.0748H89.5967V58.8102H90.8388V59.0748H90.3774V60.3759H90.0605ZM91.6699 60.3759V58.8102H92.8291V59.0748H91.9868V59.4222H92.77V59.6868H91.9868V60.1113H92.8596V60.3759H91.6699ZM93.7542 60.3759V58.8102H94.0612L94.7055 59.8592V58.8102H94.9988V60.3759H94.6819L94.0475 59.3462V60.3759H93.7542Z" fill="#221E1F"/>
</g>
<defs>
<clipPath id="clip0_801_8411">
<rect width="80" height="14.9416" fill="white" transform="translate(15 46.5292)"/>
</clipPath>
</defs>
</svg>
