<svg width="108" height="108" viewBox="0 0 108 108" fill="none" xmlns="http://www.w3.org/2000/svg">
<path d="M26.6943 40.7229C26.6943 38.6303 26.9206 36.6225 27.373 34.6713C28.7021 28.761 33.453 20.843 41.9367 20.843C53.8422 20.843 51.9192 40.0442 34.6407 36.1418C36.4506 39.4787 41.9933 49.6873 44.3122 53.5332C50.5618 63.9398 62.4107 66.6263 69.3674 62.3844C64.9276 65.6365 59.4697 67.5595 53.5311 67.5595C38.7129 67.5595 26.6943 55.541 26.6943 40.7229ZM65.2104 15.9225C65.2104 15.9225 65.1538 15.9225 65.0972 15.9225C64.9558 15.9225 64.8144 16.0356 64.8144 16.2053C64.8144 16.3184 64.871 16.4032 64.9841 16.4598C74.0617 20.7581 80.3679 30.0053 80.3679 40.7512C80.3679 43.8902 79.8306 46.8877 78.8408 49.6873C76.9744 55.2299 70.5268 56.559 66.3132 49.5176C65.5497 48.2451 61.1665 40.016 59.8373 37.5557C80.3962 33.625 68.6321 7.18435 42.5871 15.668C42.3326 15.7528 42.3892 16.0922 42.6154 16.0356C66.6526 10.8889 70.4137 37.2446 50.9012 38.0647C53.0786 41.9106 56.7266 48.2734 58.1972 50.875C62.1279 57.8881 68.7452 59.4435 74.8818 56.1066C75.3908 55.8238 75.815 55.5127 76.0695 55.2299C75.617 55.9369 75.1363 56.6439 74.599 57.2943C71.969 60.3767 60.9119 64.0812 53.1918 51.5537C51.4385 48.6975 47.1118 40.9209 45.3868 37.5557C60.7705 37.7254 63.3439 18.609 47.0269 17.3081C39.9289 16.7143 28.4759 21.7479 23.923 34.3885C22.6787 37.7537 22 41.4016 22 45.191C22 62.5824 36.1112 76.6935 53.5028 76.6935C70.8944 76.6935 85.0057 62.5824 85.0057 45.191C85.0057 31.9282 76.8048 20.5602 65.1821 15.9225" fill="#009E5E"/>
<path d="M29.8909 88.2877H28.8163V85.6012H30.0323C31.1634 85.6012 31.8421 86.082 31.8421 86.9021C31.8421 87.7221 31.1069 88.2877 29.8909 88.2877ZM31.6159 89.0512C32.6905 88.7967 33.4258 87.9484 33.4258 86.8738C33.4258 84.5549 31.5594 84.2439 29.6929 84.2439H27.2892V93.8021H28.8163V89.6451H29.5515C30.2585 89.6451 30.6544 89.6451 31.0503 90.5217L32.5208 93.8303H34.2176L32.3794 89.9844C32.1249 89.4754 31.927 89.2492 31.5876 89.0795M35.9143 93.8303H41.3439V92.473H37.4131V89.532H40.9763V88.1746H37.4131V85.6012H41.3439V84.2439H35.9143V93.8303ZM44.5677 86.6193C44.5677 85.5729 45.6706 85.4598 46.1231 85.4598C46.8017 85.4598 47.1694 85.5729 47.8764 85.8557L47.9612 85.9123L48.1874 84.4984H48.1309C47.5087 84.2439 46.7735 84.1307 46.0948 84.1307C44.2284 84.1307 42.9841 85.1488 42.9841 86.7607C42.9841 88.3725 44.2001 88.9664 45.303 89.4754C46.2362 89.8996 47.028 90.2955 47.028 91.2004C47.028 92.275 45.9817 92.6426 45.2747 92.6426C44.5111 92.6426 43.6062 92.3033 43.3517 92.1902H43.2386L43.0972 93.5758H43.1538C43.7759 93.8021 44.4263 94 45.105 94C47.339 94 48.6116 92.9537 48.6116 91.1156C48.6116 89.2775 47.2542 88.6271 46.1513 88.118C45.303 87.7221 44.5677 87.3545 44.5677 86.6193ZM57.6892 89.0512C57.6892 90.7197 56.8974 92.6426 54.6633 92.6426C52.4293 92.6426 51.6375 90.7197 51.6375 89.0512C51.6375 87.8918 52.0051 86.8738 52.6555 86.2234C53.1645 85.7143 53.8432 85.4598 54.635 85.4598C55.4268 85.4598 56.1055 85.7143 56.6428 86.2234C57.2933 86.8738 57.6609 87.8918 57.6609 89.0512M59.2445 89.0512C59.2445 86.082 57.4064 84.1025 54.635 84.1025C51.8637 84.1025 50.0256 86.082 50.0256 89.0512C50.0256 92.0205 51.8354 94 54.635 94C57.4347 94 59.2445 92.0488 59.2445 89.0512ZM66.8516 93.8303H68.6897V84.2721H67.1909V91.6529C66.9364 91.2287 63.147 84.2721 63.147 84.2721H61.1675V93.8303H62.6663V86.2799C62.9208 86.7041 66.8233 93.8303 66.8233 93.8303M76.4947 90.1824H72.9881C73.073 89.9844 74.6 86.1668 74.7414 85.8275C74.8828 86.1668 76.4099 89.9844 76.4947 90.1824ZM79.6054 93.8303L75.5615 84.2721H74.0344L69.9623 93.8303H71.5459C71.5459 93.8303 72.4508 91.568 72.5074 91.4549H77.0037L77.9652 93.8303H79.6054Z" fill="#F7922A"/>
</svg>
