<svg width="109" height="108" viewBox="0 0 109 108" fill="none" xmlns="http://www.w3.org/2000/svg">
<path fill-rule="evenodd" clip-rule="evenodd" d="M16.9512 55.3475V55.6486C16.8114 55.7265 16.7402 55.8569 16.7402 56.037V61.0739C17.6607 60.019 18.3099 59.3739 18.6861 59.1414C19.0624 58.9089 19.4455 58.7933 19.8365 58.7933C20.4628 58.7933 20.9641 59.0419 21.3377 59.5378C21.7113 60.0337 21.8994 60.6654 21.8994 61.4354C21.8994 62.0792 21.761 62.7068 21.4882 63.3155C21.2154 63.9243 20.8592 64.4243 20.4225 64.8127C19.9857 65.2037 19.5745 65.4497 19.1888 65.5545C18.8031 65.6593 18.3233 65.7131 17.7494 65.7131H17.0748C16.5614 65.7131 16.2201 65.748 16.0575 65.8206C15.8922 65.8905 15.7685 66.0114 15.6865 66.1794H15.1906C15.3183 65.9483 15.4218 65.6486 15.4971 65.275C15.575 64.9014 15.6126 64.6205 15.6126 64.435V57.182C15.6126 56.7506 15.45 56.5356 15.1208 56.5356C14.9702 56.5356 14.7619 56.5907 14.4985 56.7035V56.3582L16.9498 55.3502L16.9512 55.3475ZM16.7603 64.56C17.3516 64.9255 17.9833 65.1097 18.6525 65.1097C19.139 65.1097 19.5395 64.982 19.858 64.7267C20.1738 64.4686 20.409 64.1219 20.5595 63.6811C20.7101 63.243 20.7853 62.7404 20.7853 62.18C20.7853 61.4529 20.6456 60.871 20.3647 60.4382C20.0811 60.0042 19.6927 59.7865 19.1995 59.7865C18.5625 59.7865 17.9806 60.152 17.4551 60.8844C16.9283 61.6169 16.6649 62.4917 16.6649 63.5064C16.6649 63.8195 16.6972 64.1703 16.7603 64.5613V64.56ZM23.3186 59.8899C24.4461 59.1481 25.5092 58.7772 26.505 58.7772C26.9713 58.7772 27.3073 58.8807 27.5156 59.0849C27.7212 59.2906 27.822 59.6386 27.8166 60.1278V64.7186C27.8166 64.939 27.9174 65.0492 28.115 65.0492C28.3125 65.0492 28.6512 64.8234 29.1404 64.3719V64.8234C28.3959 65.5558 27.7898 65.9214 27.3207 65.9214C26.9001 65.9214 26.6891 65.6875 26.6891 65.2199V64.1367C26.0776 64.7602 25.5616 65.2145 25.1369 65.4981C24.7162 65.7816 24.3144 65.9214 23.9381 65.9214C23.5618 65.9214 23.2581 65.7789 23.0001 65.4927C22.7421 65.2064 22.6117 64.8584 22.6117 64.4471C22.6117 63.3868 23.9704 62.2431 26.6878 61.0175V60.1332C26.6878 59.8631 26.6071 59.6386 26.4472 59.4639C26.2846 59.2865 26.0642 59.1978 25.7779 59.1978C25.2968 59.1978 24.8654 59.4303 24.4891 59.8993C24.1128 60.3684 23.8871 60.9516 23.8145 61.6491H23.3186V59.8886V59.8899ZM26.763 61.6195C25.8599 61.805 25.1288 62.1235 24.5671 62.5751C24.0053 63.0266 23.7244 63.4903 23.7244 63.9633C23.7244 64.2643 23.8172 64.5076 24.0053 64.6877C24.1935 64.8678 24.4394 64.9578 24.7418 64.9578C25.3035 64.9578 25.7766 64.6621 26.1663 64.0681C26.5547 63.4768 26.7536 62.6597 26.763 61.6182V61.6195ZM29.6336 59.5432L31.5366 58.7758H31.8443V61.2029C32.5512 60.2582 33.1331 59.6185 33.5887 59.2798C34.0456 58.9438 34.4784 58.7758 34.8869 58.7758C35.7161 58.7758 36.13 59.3053 36.13 60.3657V64.2066C36.13 64.6474 36.2174 64.9484 36.3961 65.1097C36.5735 65.2696 36.8544 65.3556 37.2441 65.365V65.7104H34.6867V65.365C34.8977 65.3556 35.0025 65.2346 35.0025 65.0062V60.4759C35.0025 60.2232 34.938 60.0176 34.8049 59.8644C34.6719 59.7112 34.5012 59.6333 34.2916 59.6333C33.672 59.6333 33.0982 60.07 32.5673 60.9422C32.0365 61.8144 31.7704 62.8143 31.7704 63.9432C31.7704 64.5143 31.8578 64.8906 32.0338 65.0761C32.2112 65.2588 32.5257 65.3543 32.9745 65.365V65.7104H29.6349V65.365C30.0314 65.3556 30.315 65.2696 30.487 65.1043C30.6603 64.9417 30.7477 64.6433 30.7477 64.2066V60.4611C30.7477 59.9571 30.5878 59.7072 30.2639 59.7072C30.1483 59.7072 29.9387 59.7676 29.6349 59.8899V59.5446L29.6336 59.5432ZM40.1658 62.1208V64.2066L40.1577 64.3772C40.1577 65.021 40.5313 65.3502 41.2785 65.365V65.7104H37.9241V65.365C38.3058 65.3556 38.5854 65.2723 38.7668 65.1164C38.9469 64.9605 39.0369 64.6581 39.0369 64.2066V57.3244C39.0369 56.8003 38.8609 56.5369 38.5101 56.5369C38.3676 56.5369 38.1714 56.5772 37.9241 56.6552V56.3098L40.4668 55.3166V55.6177C40.2666 55.6808 40.1658 55.8287 40.1658 56.0585V62.1208L41.4519 61.0551L41.5191 60.9825L41.8497 60.6896C42.2152 60.3684 42.398 60.0727 42.398 59.7999C42.398 59.4989 42.105 59.343 41.5177 59.3336V58.9882H44.9595V59.3336C44.3453 59.343 43.6008 59.7152 42.7179 60.4463L41.2181 61.6894L42.6641 63.5225C43.6237 64.7455 44.4838 65.3596 45.2484 65.365V65.7104H42.9947L40.1618 62.1208H40.1658Z" fill="#3156A5"/>
<path fill-rule="evenodd" clip-rule="evenodd" d="M62.5956 62.3775V64.4632L62.5875 64.6339C62.5875 65.2777 62.9611 65.6069 63.7083 65.6217V65.9671H60.3539V65.6217C60.7356 65.6123 61.0151 65.529 61.1966 65.3731C61.3766 65.2172 61.4667 64.9148 61.4667 64.4632V57.5811C61.4667 57.057 61.2906 56.7936 60.9399 56.7936C60.7974 56.7936 60.6012 56.8339 60.3526 56.9118V56.5665L62.8953 55.5733V55.8743C62.695 55.9375 62.5942 56.0853 62.5942 56.3152V62.3775L63.8803 61.3118L63.9475 61.2392L64.2781 60.9462C64.6437 60.6251 64.8264 60.3294 64.8264 60.0566C64.8264 59.7555 64.5335 59.601 63.9462 59.5902V59.2449H67.3879V59.5902C66.7738 59.5997 66.0292 59.9719 65.1463 60.703L63.6478 61.9461L65.0939 63.7792C66.0534 65.0021 66.9135 65.6163 67.6782 65.6217V65.9671H65.4245L62.5915 62.3775H62.5956ZM68.627 60.1466C69.7545 59.4048 70.8176 59.0339 71.8134 59.0339C72.2797 59.0339 72.6157 59.136 72.824 59.3416C73.0296 59.5472 73.1304 59.8953 73.1251 60.3845V64.9753C73.1251 65.1957 73.2259 65.3059 73.4234 65.3059C73.621 65.3059 73.9596 65.0801 74.4488 64.6285V65.0801C73.7043 65.8125 73.0982 66.1781 72.6292 66.1781C72.2085 66.1781 71.9975 65.9442 71.9975 65.4765V64.3934C71.386 65.0183 70.87 65.4712 70.4453 65.7547C70.0247 66.0383 69.6228 66.1781 69.2465 66.1781C68.8703 66.1781 68.5665 66.0356 68.3085 65.7494C68.0505 65.4631 67.9201 65.115 67.9201 64.7038C67.9201 63.6435 69.2788 62.4998 71.9962 61.2742V60.3899C71.9962 60.1197 71.9155 59.8967 71.7556 59.7206C71.593 59.5432 71.3726 59.4545 71.0864 59.4545C70.6052 59.4545 70.1738 59.687 69.7976 60.156C69.4213 60.6251 69.1955 61.2083 69.1229 61.9058H68.627V60.1453V60.1466ZM72.0714 61.8762C71.1683 62.0617 70.4372 62.3802 69.8755 62.8317C69.3137 63.2833 69.0329 63.7469 69.0329 64.22C69.0329 64.521 69.1256 64.7643 69.3137 64.9444C69.5019 65.1244 69.7478 65.2145 70.0502 65.2145C70.612 65.2145 71.085 64.9188 71.4747 64.3248C71.8631 63.7335 72.062 62.9164 72.0714 61.8749V61.8762ZM77.5438 55.8743C77.3436 55.9778 77.2428 56.1552 77.2428 56.4106V64.4632C77.2428 64.9 77.3301 65.1984 77.5089 65.361C77.6863 65.5263 77.9672 65.6123 78.3569 65.6217V65.9671H74.9877V65.6217C75.3882 65.6123 75.6771 65.5236 75.8532 65.3529C76.0292 65.1849 76.1166 64.8893 76.1166 64.4632V57.4709C76.1166 57.0194 75.9311 56.7936 75.5602 56.7936C75.4043 56.7936 75.2148 56.8339 74.9891 56.9118V56.5665L77.5465 55.5733V55.8743H77.5438ZM79.725 63.6959C79.7653 64.3329 79.9454 64.8288 80.2746 65.1822C80.5999 65.5357 80.9909 65.7117 81.4479 65.7117C81.8242 65.7117 82.1319 65.5962 82.3725 65.3663C82.613 65.1379 82.734 64.8476 82.734 64.4942C82.734 64.181 82.6439 63.9176 82.4639 63.7026C82.2757 63.4916 81.9129 63.2161 81.3659 62.8734C80.9802 62.6275 80.6267 62.399 80.3082 62.1867C79.9897 61.973 79.7693 61.758 79.647 61.5376C79.5194 61.3172 79.4562 61.0941 79.4562 60.8629C79.4562 60.3885 79.6766 59.9652 80.1161 59.5916C80.5542 59.2207 81.1388 59.0352 81.8631 59.0352C82.312 59.0352 82.7904 59.1333 83.3065 59.3282V61.2459H82.7797C82.7743 60.7043 82.6211 60.2703 82.3214 59.945C82.0204 59.6185 81.675 59.4559 81.2839 59.4559C81.0084 59.4559 80.792 59.5432 80.6375 59.7166C80.4816 59.8899 80.405 60.0956 80.405 60.3281C80.405 60.5941 80.4923 60.8213 80.6711 61.0121C80.8418 61.2083 81.1898 61.4663 81.7086 61.7889C82.6036 62.3533 83.1654 62.7484 83.3912 62.9769C83.6169 63.2121 83.7298 63.5239 83.7298 63.9096C83.7298 64.521 83.4597 65.0532 82.9181 65.5034C82.3765 65.9523 81.7529 66.1781 81.0474 66.1781C80.5233 66.1781 79.9198 66.0302 79.2318 65.7373V63.6972H79.7277L79.725 63.6959ZM90.3848 64.1165C89.2949 65.49 88.2319 66.1767 87.1931 66.1767C86.4633 66.1767 85.8223 65.8609 85.2659 65.2266C84.7068 64.5949 84.4286 63.845 84.4286 62.9755C84.4286 61.973 84.7592 61.0699 85.4218 60.2676C86.083 59.4626 86.8652 59.0621 87.7629 59.0621C88.4872 59.0621 89.0584 59.3147 89.4858 59.8241C89.9118 60.3307 90.1349 60.9503 90.1604 61.6787H85.4379C85.4285 61.8695 85.4231 62.0093 85.4231 62.0993C85.4231 62.9688 85.6543 63.6959 86.1126 64.2778C86.5708 64.8624 87.138 65.1527 87.8126 65.1527C88.6552 65.1527 89.5126 64.646 90.3875 63.6341V64.1152L90.3848 64.1165ZM88.9563 61.3333C88.8985 60.7621 88.7157 60.3186 88.4066 60.0015C88.0989 59.6857 87.7347 59.5271 87.3167 59.5271C86.8987 59.5271 86.4848 59.6978 86.1381 60.0405C85.7927 60.3818 85.579 60.8132 85.5011 61.3319H88.9563V61.3333ZM93.6868 55.873C93.4866 55.9765 93.3858 56.1539 93.3858 56.4092V64.4619C93.3858 64.8987 93.4731 65.197 93.6519 65.3596C93.8293 65.5249 94.1101 65.6109 94.4999 65.6203V65.9657H91.1307V65.6203C91.5312 65.6109 91.8201 65.5222 91.9962 65.3516C92.1722 65.1836 92.2596 64.8879 92.2596 64.4619V57.4696C92.2596 57.018 92.0741 56.7922 91.7032 56.7922C91.5473 56.7922 91.3578 56.8326 91.132 56.9105V56.5651L93.6895 55.572V55.873H93.6868Z" fill="#00AA43"/>
<path fill-rule="evenodd" clip-rule="evenodd" d="M55.7497 55.2333L54.8721 55.0667L53.9946 54.9014L52.3093 55.4927L51.1455 56.8473L50.8149 58.6025L51.4062 60.2877L52.0835 60.871L52.7609 61.4529L54.516 61.7835L56.2013 61.1922L57.3651 59.8375L57.6957 58.0824L57.1044 56.3971L56.427 55.8139L55.7497 55.232V55.2333ZM55.8653 56.1378L56.6555 57.022L56.5883 58.2074L55.704 58.9976L54.5187 58.9304L53.7285 58.0461L53.7957 56.8608L54.68 56.0706L55.8653 56.1378Z" fill="#4964AE"/>
<path fill-rule="evenodd" clip-rule="evenodd" d="M54.3547 41.9999L56.9592 42.6974L58.8649 44.603L59.5637 47.2075L58.8649 49.812L56.9592 51.7177L54.3547 52.4151L51.7502 51.7177L49.8446 49.812L49.1458 47.2075L49.8446 44.603L51.7502 42.6974L54.3547 41.9999ZM53.6048 43.1543L51.9518 43.8397L51.2664 45.4927L51.9518 47.1457L53.6048 47.8311L55.2578 47.1457L55.9432 45.4927L55.2578 43.8397L53.6048 43.1543Z" fill="#4964AE"/>
<path fill-rule="evenodd" clip-rule="evenodd" d="M50.9372 63.6475L50.7517 63.2215L50.5649 62.7955L49.8177 62.2445L48.8931 62.1423L48.0411 62.5159L47.4901 63.2631L47.4377 63.7254L47.3866 64.1877L47.572 64.6138L47.7589 65.0398L48.5061 65.5908L49.4307 65.6929L50.2827 65.3193L50.8337 64.5721L50.9358 63.6475H50.9372ZM50.5824 63.9633L50.4346 64.5627L50.1712 64.7226L49.9064 64.8825L49.307 64.7347L48.9872 64.2052L49.135 63.6058L49.6645 63.286L50.2639 63.4338L50.5837 63.9633H50.5824Z" fill="#4964AE"/>
</svg>
