<svg width="108" height="108" viewBox="0 0 108 108" fill="none" xmlns="http://www.w3.org/2000/svg">
<path fill-rule="evenodd" clip-rule="evenodd" d="M44.93 43.9567C47.3078 44.8781 49.6756 45.8688 51.9839 46.9883C44.5932 49.9604 37.4105 53.5171 30.6143 57.6087C28.3059 56.4199 25.9282 55.231 23.5604 54.1808C30.4161 50.2279 37.5393 46.8 44.93 43.9567Z" fill="#0067B1"/>
<path fill-rule="evenodd" clip-rule="evenodd" d="M36.0929 40.8558C28.4446 43.2929 21.0539 46.4632 14 50.2873C16.239 51.1493 18.4879 52.0013 20.6576 52.9226C27.4539 48.9004 34.6365 45.5418 42.0867 42.8966C40.1053 42.1734 38.1337 41.4502 36.083 40.8558H36.0929Z" fill="#0067B1"/>
<path fill-rule="evenodd" clip-rule="evenodd" d="M60.9498 43.6297C54.8867 40.7269 48.6155 38.2898 42.2254 36.3084C39.917 36.9722 37.678 37.6954 35.4985 38.4186C42.0966 40.4 48.556 42.9065 54.7579 45.8687C56.7988 45.0762 58.8495 44.353 60.9598 43.6297H60.9498Z" fill="#EE2A24"/>
<path fill-rule="evenodd" clip-rule="evenodd" d="M70.7777 40.7269C64.6452 38.0223 58.2452 35.7833 51.7164 34C49.6062 34.3963 47.5653 34.8619 45.5145 35.387C51.974 37.2991 58.3046 39.6768 64.3777 42.5796C66.4879 41.9158 68.6675 41.2619 70.7777 40.7368V40.7269Z" fill="#EE2A24"/>
<path fill-rule="evenodd" clip-rule="evenodd" d="M86.6093 45.9976C71.1145 51.2087 56.6006 58.6589 43.4836 67.9616C46.7827 70.0025 49.943 72.1127 53.044 74.4211C65.4378 64.5932 79.2285 56.4199 94 50.218C91.5628 48.7022 89.1158 47.3152 86.6093 45.9976Z" fill="#EE2A24"/>
<path fill-rule="evenodd" clip-rule="evenodd" d="M75.9195 40.9846C59.8303 45.205 44.7319 52.0607 31.0799 61.1654C34.1114 62.6812 37.143 64.2663 40.1152 65.9802C53.4997 56.7468 68.3405 49.4948 84.1622 44.7493C81.4576 43.4316 78.7529 42.114 75.9195 40.9945V40.9846Z" fill="#EE2A24"/>
</svg>
