<svg width="108" height="108" viewBox="0 0 108 108" fill="none" xmlns="http://www.w3.org/2000/svg">
<mask id="mask0_801_8026" style="mask-type:luminance" maskUnits="userSpaceOnUse" x="15" y="50" width="10" height="9">
<path d="M18.6894 52.0519C19.2806 52.5918 20.3264 53.7854 19.9115 54.6607C19.6841 55.1382 18.877 54.4277 18.4053 54.3254C18.7179 54.7971 19.3772 55.644 20.2184 56.3659C21.0539 57.0877 23.0091 58.6621 23.8333 57.8096C24.7711 56.8376 22.3328 53.541 20.764 52.2963C19.2635 51.1027 16.9331 50.0682 15.7964 50C17.0866 50.6252 18.2347 51.6313 18.7008 52.0575" fill="white"/>
</mask>
<g mask="url(#mask0_801_8026)">
<path d="M20.1499 45.5095L11.4561 54.4496L20.4002 63.1474L29.0941 54.2073L20.1499 45.5095Z" fill="url(#paint0_linear_801_8026)"/>
</g>
<mask id="mask1_801_8026" style="mask-type:luminance" maskUnits="userSpaceOnUse" x="14" y="50" width="9" height="9">
<path d="M14.2277 50.2955C13.2046 51.2163 15.876 54.5243 17.3424 55.7633C18.8089 56.9967 21.0938 57.9687 22.2305 58.0312C20.9801 57.5196 19.8035 56.4227 19.3659 55.968C18.9282 55.5132 17.422 53.9502 18.0188 53.2738C18.3655 52.8816 19.0703 53.5466 19.5421 53.649C19.2238 52.9157 18.6895 52.444 17.8483 51.7221C17.1833 51.1481 15.8931 50.0454 14.9098 50.0454C14.654 50.0454 14.421 50.1193 14.222 50.2955" fill="white"/>
</mask>
<g mask="url(#mask1_801_8026)">
<path d="M17.5966 45.5293L9.21582 54.1475L17.8462 62.5402L26.227 53.922L17.5966 45.5293Z" fill="url(#paint1_linear_801_8026)"/>
</g>
<path d="M18.0245 53.2682C18.3314 52.8817 19.076 53.2113 19.4227 53.5239C19.7751 53.8365 20.1559 54.422 19.9797 54.7175C19.8092 55.0131 19.093 54.8767 18.6554 54.5413C18.2291 54.206 17.7687 53.5921 18.0245 53.2682Z" fill="#19335D"/>
<path d="M91.3514 54.9108C91.323 54.9165 91.2775 54.9222 91.215 54.9222H90.3226C90.2033 54.9222 90.118 54.9165 90.0782 54.9051C90.0612 54.8994 90.0555 54.8937 90.0555 54.8937C90.0555 54.8937 90.0555 54.8937 90.0555 54.8824C90.0555 54.871 90.0668 54.8028 90.1009 54.7119L90.6864 53.3023C90.6977 53.2682 90.7148 53.2511 90.7262 53.2397C90.7375 53.2511 90.7603 53.2852 90.7773 53.3364L91.3287 54.6891C91.3571 54.7516 91.3684 54.8085 91.3798 54.8426C91.3855 54.8596 91.3855 54.8767 91.3912 54.8881C91.3912 54.8881 91.3912 54.8881 91.3912 54.8937C91.3912 54.8937 91.3741 54.9051 91.3514 54.9108ZM93.9603 57.1388C93.9318 57.082 93.8807 57.0479 93.8295 57.0252C93.7784 57.0081 93.7159 56.9911 93.6477 56.9683C93.4203 56.8888 93.335 56.758 93.227 56.5023L91.2491 51.7335C91.2036 51.6369 91.1411 51.546 91.0331 51.5403C90.9819 51.5403 90.9308 51.5573 90.9024 51.5914C90.8683 51.6255 90.8569 51.6596 90.8398 51.6994L88.8846 56.2351C88.7255 56.5989 88.6175 56.8206 88.4299 56.9456C88.3674 56.9911 88.2935 57.0081 88.2196 57.0422C88.1798 57.0593 88.1457 57.082 88.1173 57.1218C88.0889 57.1616 88.0718 57.2127 88.0718 57.2696C88.0718 57.3378 88.0946 57.4003 88.14 57.4458C88.1855 57.4912 88.248 57.5083 88.3162 57.5083C88.3788 57.5083 88.447 57.4856 88.5606 57.4685C88.6686 57.4515 88.8107 57.4344 88.9983 57.4344C89.4928 57.4344 89.8168 57.514 89.9986 57.514C90.0669 57.514 90.1351 57.4969 90.1862 57.4515C90.2317 57.406 90.2544 57.3378 90.2544 57.2696C90.2601 57.1786 90.1919 57.0991 90.1237 57.0706C90.0555 57.0422 89.9702 57.0252 89.885 57.0081C89.7088 56.974 89.5894 56.9229 89.5155 56.8603C89.4416 56.7978 89.4132 56.7296 89.4075 56.6273C89.4075 56.5648 89.4246 56.4852 89.4644 56.3829L89.6747 55.7747C89.7372 55.6099 89.7883 55.5474 89.8509 55.519C89.9191 55.4849 90.0327 55.4792 90.2033 55.4849H91.3002C91.4594 55.4849 91.5446 55.4905 91.5958 55.5246C91.6526 55.5531 91.7038 55.6213 91.7663 55.7804L91.988 56.3147C92.0391 56.4341 92.0562 56.5534 92.0562 56.6387C92.0562 56.741 92.0278 56.8092 91.988 56.8603C91.9255 56.9342 91.8231 56.9797 91.7208 57.0252C91.6697 57.0479 91.6242 57.0706 91.5787 57.1047C91.5333 57.1388 91.4992 57.1957 91.4992 57.2639C91.4992 57.3264 91.5162 57.3833 91.5503 57.4287C91.5844 57.4742 91.6356 57.5083 91.6981 57.5083C91.7549 57.5083 91.8459 57.4856 92.0107 57.4685C92.1699 57.4515 92.3972 57.4287 92.6871 57.4287C93.1986 57.4287 93.5624 57.4969 93.7784 57.5026C93.8352 57.5026 93.8921 57.5026 93.9432 57.4571C93.9944 57.406 93.9944 57.3435 94 57.2753C94 57.2298 93.9944 57.1843 93.9773 57.1445M86.702 56.3545C86.3553 56.7467 85.8608 56.9626 85.264 56.9626C84.8718 56.9626 84.69 56.8774 84.5933 56.7182C84.491 56.5591 84.4683 56.2863 84.4683 55.8998V52.8532C84.4683 52.5691 84.4967 52.4042 84.5706 52.3247C84.6502 52.2394 84.8093 52.1882 85.139 52.1939C86.4122 52.1939 87.259 53.2113 87.259 54.655C87.259 55.3825 87.0544 55.9623 86.702 56.3545ZM87.5717 52.3644C87.0317 51.9097 86.2416 51.6653 85.2242 51.6653C84.7752 51.6653 84.2409 51.7449 83.61 51.7449C83.2122 51.7449 82.9564 51.6994 82.8086 51.6937C82.7234 51.6937 82.6552 51.7108 82.5983 51.7563C82.5415 51.7961 82.5074 51.8699 82.5074 51.9438C82.5074 52.0177 82.5358 52.0802 82.5869 52.12C82.6608 52.1712 82.7404 52.1769 82.8257 52.1939C82.9109 52.2053 83.0019 52.2223 83.0814 52.2678C83.2179 52.3474 83.2861 52.427 83.3258 52.535C83.3656 52.6486 83.377 52.8021 83.377 53.0124V56.309C83.377 56.4795 83.36 56.6103 83.3202 56.7069C83.2804 56.8092 83.2179 56.8774 83.1155 56.9342C83.036 56.9854 82.945 57.0138 82.8711 57.0593C82.7972 57.0991 82.7177 57.1843 82.7177 57.298C82.7177 57.4401 82.8427 57.531 82.9678 57.5367C82.9962 57.5367 83.0189 57.5253 83.0758 57.5197C83.2349 57.4912 83.5816 57.4401 84.1898 57.4401C84.5422 57.4401 84.8718 57.4856 85.1958 57.4856C86.1393 57.4856 86.9408 57.1332 87.5035 56.5648C88.0661 55.9907 88.3958 55.195 88.3958 54.314C88.3958 53.4898 88.1173 52.8135 87.5773 52.3588M79.9951 54.9165C79.9667 54.9222 79.9212 54.9278 79.8587 54.9278H78.9664C78.8413 54.9278 78.7617 54.9222 78.722 54.9108C78.7049 54.9051 78.6935 54.8994 78.6935 54.8994C78.6935 54.8994 78.6935 54.8994 78.6935 54.8881C78.6935 54.8767 78.7049 54.8085 78.739 54.7175L79.3188 53.308C79.3301 53.2738 79.3472 53.2568 79.3585 53.2454C79.3699 53.2568 79.3926 53.2909 79.4097 53.3421L79.961 54.6948C79.9894 54.7573 80.0065 54.8142 80.0122 54.8483C80.0122 54.8653 80.0179 54.8824 80.0236 54.8937C80.0236 54.8937 80.0065 54.9108 79.9838 54.9165M82.4562 57.0309C82.4051 57.0138 82.3482 56.9968 82.2687 56.974C82.047 56.8944 81.956 56.7637 81.8481 56.5079L79.8644 51.7392C79.8189 51.6426 79.7564 51.5517 79.6484 51.546C79.5973 51.546 79.5461 51.563 79.512 51.5971C79.4779 51.6312 79.4665 51.6653 79.4495 51.7051L77.4943 56.2408C77.3408 56.6046 77.2271 56.8262 77.0395 56.9513C76.9713 56.9968 76.9031 57.0138 76.8236 57.0479C76.7895 57.065 76.7497 57.0877 76.7213 57.1275C76.6928 57.1673 76.6758 57.2184 76.6758 57.2753C76.6758 57.3435 76.6985 57.406 76.744 57.4515C76.7951 57.4969 76.8577 57.514 76.9202 57.514C76.9827 57.514 77.0509 57.4912 77.1589 57.4742C77.2669 57.4571 77.4147 57.4401 77.5909 57.4401C78.0854 57.4401 78.4093 57.5197 78.5912 57.5197C78.6594 57.5197 78.7276 57.5026 78.7731 57.4571C78.8186 57.4117 78.8413 57.3435 78.8413 57.2753C78.8413 57.1843 78.7788 57.1047 78.7106 57.0763C78.6424 57.0479 78.5628 57.0309 78.4719 57.0138C78.3014 56.9797 78.1763 56.9285 78.1024 56.866C78.0285 56.8035 78.0001 56.7353 77.9944 56.633C77.9944 56.5705 78.0172 56.4909 78.0513 56.3886L78.2616 55.7804C78.3241 55.6156 78.3752 55.5531 78.4378 55.5246C78.506 55.4905 78.6196 55.4849 78.7958 55.4849H79.8928C80.0463 55.4849 80.1372 55.4905 80.1941 55.5246C80.2452 55.5531 80.2964 55.6213 80.3589 55.7804L80.5749 56.3147C80.626 56.4341 80.6431 56.5534 80.6431 56.6387C80.6431 56.741 80.6147 56.8092 80.5749 56.8603C80.518 56.9342 80.4101 56.9797 80.3077 57.0252C80.2566 57.0479 80.2054 57.0706 80.1656 57.1047C80.1202 57.1388 80.0804 57.1957 80.0861 57.2639C80.0861 57.3264 80.1031 57.3833 80.1372 57.4287C80.1713 57.4742 80.2225 57.5083 80.285 57.5083C80.3418 57.5083 80.4328 57.4856 80.5976 57.4685C80.7624 57.4515 80.9841 57.4287 81.274 57.4287C81.7912 57.4287 82.1493 57.4969 82.371 57.4969C82.4278 57.4969 82.479 57.4969 82.5358 57.4515C82.587 57.4003 82.5869 57.3378 82.5869 57.2696C82.5869 57.2241 82.587 57.1786 82.5642 57.1388C82.5358 57.082 82.479 57.0479 82.4335 57.0252M75.2094 54.4447C75.1184 54.4447 75.0559 54.4333 74.9991 54.4277C74.9422 54.4163 74.9081 54.4049 74.8683 54.4049C74.7547 54.4049 74.6751 54.4959 74.6751 54.5925C74.6751 54.6607 74.7035 54.7232 74.749 54.7744C74.8911 54.9165 75.1696 54.979 75.5561 54.9847C76.0335 54.9847 76.4598 54.8085 76.761 54.5072C77.0623 54.206 77.2442 53.7797 77.2442 53.2966C77.2442 52.8135 77.0737 52.4042 76.744 52.1143C76.4143 51.8245 75.9312 51.6596 75.323 51.6596C74.9763 51.6596 74.5103 51.7392 73.8907 51.7392C73.3849 51.7392 73.0666 51.6767 72.9302 51.6767C72.8563 51.6767 72.7881 51.6937 72.7369 51.7392C72.6857 51.7847 72.663 51.8529 72.6687 51.9211C72.6687 52.0064 72.7085 52.0802 72.7653 52.1143C72.8506 52.1655 72.9472 52.1655 73.0438 52.1882C73.1405 52.211 73.2314 52.2394 73.3167 52.319C73.3962 52.3985 73.436 52.4895 73.4644 52.6145C73.4872 52.7396 73.4928 52.893 73.4928 53.0863V56.2238C73.4928 56.5818 73.4076 56.7808 73.22 56.9058C73.1348 56.9626 73.0438 56.9911 72.9699 57.0365C72.896 57.0763 72.8222 57.1673 72.8278 57.2809C72.8278 57.3435 72.8506 57.406 72.9017 57.4458C72.9529 57.4856 73.0154 57.5026 73.0893 57.5026C73.2825 57.5026 73.6406 57.4287 74.1522 57.4287C74.6637 57.4287 74.9479 57.4969 75.1014 57.5026C75.1753 57.5026 75.2435 57.4912 75.3003 57.4458C75.3515 57.4003 75.3742 57.3264 75.3742 57.2525C75.3742 57.1843 75.3515 57.1218 75.3117 57.082C75.2491 57.0195 75.1753 57.0024 75.1014 56.9911C75.0275 56.974 74.9593 56.957 74.8911 56.9285C74.7831 56.8717 74.7092 56.7921 74.6637 56.6728C74.6126 56.5534 74.5898 56.4 74.5898 56.1953V53.0351C74.5898 52.7055 74.5898 52.4724 74.6523 52.3417C74.6808 52.2735 74.7092 52.2394 74.7603 52.2053C74.8172 52.1769 74.8911 52.1598 75.0104 52.1598C75.3571 52.1598 75.63 52.2905 75.8232 52.5122C76.0108 52.7339 76.1245 53.0579 76.1245 53.45C76.1245 53.7968 76.0449 54.0412 75.8971 54.2003C75.7493 54.3595 75.5277 54.4447 75.215 54.4447M70.1906 54.9108C70.1906 54.9108 70.1167 54.9222 70.0541 54.9222H69.1618C69.0367 54.9222 68.9572 54.9165 68.9174 54.9051C68.8946 54.8994 68.889 54.8937 68.889 54.8937C68.889 54.8937 68.889 54.8937 68.889 54.8824C68.889 54.871 68.9003 54.8028 68.9344 54.7119L69.5199 53.3023C69.5312 53.2682 69.5483 53.2511 69.5596 53.2397C69.571 53.2511 69.5938 53.2852 69.6108 53.3364L70.1621 54.6891C70.1906 54.7516 70.2019 54.8085 70.2133 54.8426C70.219 54.8596 70.219 54.8767 70.2247 54.8881C70.2247 54.8881 70.2247 54.8881 70.2247 54.8937C70.219 54.8937 70.2076 54.9051 70.1849 54.9108M72.663 57.0252C72.6119 57.0081 72.555 56.9911 72.4811 56.9683C72.2538 56.8888 72.1685 56.758 72.0605 56.5023L70.0826 51.7335C70.0371 51.6369 69.9746 51.546 69.8666 51.5403C69.8154 51.5403 69.7643 51.5573 69.7359 51.5914C69.7017 51.6255 69.6904 51.6596 69.6733 51.6994L67.7181 56.2351C67.5646 56.5989 67.451 56.8206 67.2634 56.9456C67.1952 56.9911 67.127 57.0081 67.0531 57.0422C67.019 57.0593 66.9792 57.082 66.9508 57.1218C66.9167 57.1616 66.9053 57.2127 66.9053 57.2696C66.9053 57.3378 66.928 57.4003 66.9735 57.4458C67.0247 57.4912 67.0872 57.5083 67.1497 57.5083C67.2122 57.5083 67.2804 57.4856 67.3941 57.4685C67.5021 57.4515 67.6442 57.4344 67.8261 57.4344C68.3206 57.4344 68.6502 57.514 68.8321 57.514C68.9003 57.514 68.9628 57.4969 69.014 57.4515C69.0595 57.406 69.0822 57.3378 69.0822 57.2696C69.0822 57.1786 69.0197 57.0991 68.9515 57.0706C68.8833 57.0422 68.8037 57.0252 68.7128 57.0081C68.5366 56.974 68.4172 56.9229 68.3433 56.8603C68.2694 56.7978 68.2353 56.7296 68.2353 56.6273C68.2353 56.5648 68.2524 56.4852 68.2922 56.3829L68.5025 55.7747C68.565 55.6099 68.6161 55.5474 68.6787 55.519C68.7469 55.4849 68.8605 55.4792 69.0311 55.4849H70.0428C70.0769 55.4849 70.1053 55.4849 70.128 55.4849C70.2815 55.4849 70.3724 55.4905 70.4236 55.5246C70.4747 55.5531 70.5259 55.6213 70.5941 55.7804L70.8101 56.3147C70.8612 56.4341 70.8783 56.5534 70.8783 56.6387C70.8783 56.741 70.8499 56.8092 70.8101 56.8603C70.7476 56.9342 70.6453 56.9797 70.543 57.0252C70.4918 57.0479 70.4463 57.0706 70.4009 57.1047C70.3554 57.1388 70.3213 57.1957 70.3213 57.2639C70.3213 57.3264 70.3383 57.3833 70.3724 57.4287C70.4065 57.4742 70.4577 57.5083 70.5202 57.5083C70.5771 57.5083 70.668 57.4856 70.8328 57.4685C70.992 57.4515 71.2193 57.4287 71.5092 57.4287C72.0207 57.4287 72.3845 57.4969 72.6005 57.4969C72.6573 57.4969 72.7142 57.4969 72.7653 57.4515C72.8165 57.4003 72.8165 57.3378 72.8165 57.2696C72.8165 57.2241 72.8108 57.1786 72.7937 57.1388C72.7653 57.082 72.7142 57.0479 72.663 57.0252ZM66.8201 52.6259C66.9678 52.3474 67.1383 52.1826 67.2463 52.1428C67.2918 52.12 67.3543 52.1143 67.4169 52.0859C67.4794 52.0575 67.5419 51.9779 67.5362 51.8756C67.5362 51.8131 67.5135 51.7392 67.4623 51.7051C67.4055 51.6653 67.3486 51.6596 67.2748 51.6596C67.0929 51.6596 66.8655 51.7165 66.6041 51.7165C66.1437 51.7165 65.8879 51.671 65.7856 51.671C65.7174 51.671 65.6492 51.6824 65.6037 51.7222C65.5526 51.762 65.5298 51.8302 65.5298 51.8927C65.5298 51.9495 65.5412 52.0064 65.5753 52.0461C65.6321 52.103 65.7003 52.1143 65.7685 52.12C65.8368 52.1314 65.9106 52.1371 65.9959 52.1598C66.1948 52.2223 66.2744 52.3247 66.2801 52.4895C66.2801 52.6145 66.2119 52.7282 66.1323 52.8873L65.3934 54.2856C65.3934 54.2856 65.3707 54.331 65.3593 54.3367C65.3536 54.331 65.3479 54.3197 65.3423 54.3083L64.4726 52.6032C64.3987 52.4667 64.3703 52.3644 64.3703 52.3133C64.3703 52.2508 64.3874 52.2223 64.4158 52.1939C64.4556 52.1541 64.5352 52.1314 64.6204 52.0973C64.6602 52.0802 64.7057 52.0632 64.7398 52.0291C64.7796 51.995 64.808 51.9382 64.808 51.8756C64.808 51.8074 64.7852 51.7335 64.7284 51.6937C64.6716 51.6596 64.6147 51.6596 64.5465 51.6596C64.4385 51.6596 64.1714 51.7165 63.6599 51.7165C63.3643 51.7165 63.1369 51.7051 62.9778 51.6881C62.813 51.671 62.722 51.6596 62.6766 51.6596C62.6027 51.6596 62.5401 51.671 62.4833 51.7051C62.4265 51.7392 62.3867 51.8131 62.3924 51.8813C62.3924 51.9438 62.4094 52.0064 62.4549 52.0405C62.5117 52.0973 62.5856 52.1087 62.6538 52.1257C62.722 52.1428 62.7902 52.1485 62.8471 52.1769C62.9607 52.2223 63.154 52.427 63.2961 52.7168L64.4215 54.8596C64.4783 54.9619 64.5181 55.0188 64.5238 55.212V56.1214C64.5238 56.3488 64.5181 56.5136 64.4783 56.6273C64.4442 56.741 64.3817 56.8149 64.251 56.8888C64.1373 56.957 64.0066 56.974 63.8872 57.0024C63.8304 57.0195 63.7735 57.0309 63.7224 57.0706C63.6712 57.1104 63.6371 57.1786 63.6371 57.2525C63.6371 57.3207 63.6712 57.3889 63.7224 57.4344C63.7792 57.4799 63.8474 57.4969 63.9327 57.4969C64.1998 57.4969 64.6204 57.4174 65.1717 57.4174C65.689 57.4174 66.0527 57.4856 66.2687 57.4912C66.3426 57.4912 66.4108 57.4742 66.4677 57.4287C66.5188 57.3833 66.5415 57.3094 66.5415 57.2412C66.5415 57.1502 66.4961 57.0763 66.4392 57.0365C66.3483 56.974 66.2403 56.9683 66.1323 56.9513C66.0243 56.9342 65.9163 56.9115 65.8481 56.866C65.7458 56.7921 65.6947 56.7126 65.6606 56.5818C65.6321 56.4511 65.6265 56.2749 65.6265 56.0362V55.0302C65.6265 54.9392 65.6265 54.8767 65.706 54.7403L66.8314 52.6145L66.8201 52.6259ZM60.6645 54.9108C60.6645 54.9108 60.5906 54.9222 60.5338 54.9222H59.6414C59.5164 54.9222 59.4368 54.9165 59.3913 54.9051C59.3743 54.9051 59.3686 54.8937 59.3686 54.8937C59.3686 54.8937 59.3686 54.8937 59.3686 54.8824C59.3686 54.871 59.3799 54.8028 59.4197 54.7119L59.9995 53.3023C60.0108 53.2682 60.0279 53.2511 60.0393 53.2397C60.0506 53.2511 60.0734 53.2852 60.0904 53.3364L60.6418 54.6891C60.6645 54.7516 60.6815 54.8085 60.6929 54.8426C60.6986 54.8596 60.6986 54.8767 60.7043 54.8881C60.7043 54.8881 60.7043 54.8881 60.7043 54.8937C60.7043 54.8937 60.6872 54.9051 60.6645 54.9108ZM63.1369 57.0252C63.0858 57.0081 63.029 56.9911 62.9551 56.9683C62.7277 56.8888 62.6424 56.758 62.5345 56.5023L60.5565 51.7335C60.511 51.6369 60.4485 51.546 60.3405 51.5403C60.2894 51.5403 60.2382 51.5573 60.2041 51.5914C60.17 51.6255 60.1586 51.6596 60.1473 51.6994L58.192 56.2351C58.0329 56.5989 57.9249 56.8206 57.7373 56.9456C57.6691 56.9911 57.5952 57.0081 57.527 57.0422C57.4872 57.0593 57.4531 57.082 57.4247 57.1218C57.3963 57.1616 57.3792 57.2127 57.3792 57.2696C57.3792 57.3378 57.402 57.4003 57.4474 57.4458C57.4929 57.4912 57.5554 57.5083 57.6236 57.5083C57.6862 57.5083 57.7544 57.4856 57.868 57.4685C57.976 57.4515 58.1181 57.4344 58.3 57.4344C58.7945 57.4344 59.1242 57.514 59.3061 57.514C59.3743 57.514 59.4368 57.4969 59.4879 57.4515C59.5391 57.406 59.5618 57.3378 59.5561 57.2696C59.5618 57.1786 59.4936 57.0991 59.4254 57.0706C59.3572 57.0422 59.2776 57.0252 59.1867 57.0081C59.0162 56.974 58.8911 56.9229 58.8172 56.8603C58.7434 56.7978 58.7149 56.7296 58.7093 56.6273C58.7093 56.5648 58.7263 56.4852 58.7661 56.3829L58.9764 55.7747C59.0389 55.6099 59.0901 55.5474 59.1526 55.519C59.2208 55.4849 59.3345 55.4792 59.5107 55.4792H60.6076C60.7611 55.4792 60.8521 55.4849 60.9032 55.519C60.9544 55.5474 61.0055 55.6156 61.068 55.7747L61.2897 56.309C61.3409 56.4284 61.3636 56.5477 61.3579 56.633C61.3579 56.7353 61.3295 56.8035 61.2897 56.8547C61.2272 56.9285 61.1249 56.974 61.0226 57.0195C60.9714 57.0422 60.9203 57.065 60.8805 57.0991C60.8407 57.1332 60.8009 57.19 60.8009 57.2582C60.8009 57.3207 60.8179 57.3776 60.8521 57.423C60.8862 57.4685 60.9373 57.5026 60.9998 57.5026C61.0567 57.5026 61.1476 57.4799 61.3124 57.4628C61.4773 57.4458 61.6989 57.423 61.9888 57.423C62.5004 57.423 62.8641 57.4912 63.0801 57.4912C63.1369 57.4912 63.1881 57.4912 63.2449 57.4458C63.2961 57.3946 63.2961 57.3321 63.2961 57.2639C63.2961 57.2184 63.2961 57.173 63.2734 57.1332C63.2449 57.0763 63.1938 57.0422 63.1426 57.0195M57.1178 57.0024C57.0553 56.9854 56.9814 56.9627 56.8904 56.9001C56.7881 56.8149 56.7256 56.7239 56.6915 56.5989C56.6517 56.4738 56.6403 56.3147 56.6347 56.1101L56.5494 52.9044V52.8362C56.5494 52.66 56.5665 52.5236 56.6006 52.427C56.6347 52.3303 56.6801 52.2678 56.7597 52.2223C56.9132 52.1371 57.0098 52.1257 57.0837 52.1087C57.1235 52.103 57.1576 52.0973 57.203 52.0575C57.2428 52.0177 57.2485 51.9666 57.2485 51.9097C57.2485 51.8358 57.2428 51.7733 57.1917 51.7222C57.1405 51.671 57.078 51.6653 57.0155 51.6653C56.862 51.6653 56.6745 51.7222 56.4187 51.7222C56.2538 51.7222 56.1515 51.6937 56.0606 51.6881C55.9981 51.6881 55.9412 51.6994 55.8901 51.7278C55.8389 51.7563 55.8105 51.8074 55.7821 51.8586L53.9064 55.7634C53.9064 55.7634 53.8837 55.8032 53.878 55.8088H53.8723C53.8723 55.8088 53.8666 55.8088 53.861 55.7975C53.8553 55.7861 53.8439 55.769 53.8325 55.7463L52.116 51.9438C52.0762 51.8529 52.0478 51.7904 51.9967 51.7449C51.9455 51.6937 51.883 51.6767 51.8148 51.6767C51.7636 51.6767 51.6045 51.6994 51.3203 51.6994C51.1214 51.6994 50.9736 51.6881 50.8713 51.6824C50.7633 51.671 50.7121 51.6653 50.678 51.6596C50.6155 51.6596 50.5587 51.671 50.5075 51.7165C50.462 51.762 50.4507 51.8245 50.4507 51.8813C50.4507 51.9495 50.4734 52.012 50.5189 52.0518C50.5814 52.103 50.6439 52.1143 50.7121 52.1314C50.7803 52.1541 50.8485 52.1769 50.9281 52.2451C51.1782 52.4611 51.2294 52.8362 51.2294 53.3705C51.2294 53.5353 51.2237 53.6603 51.2237 53.7513L51.1384 55.7804C51.1157 56.3772 51.0418 56.7353 50.9281 56.8376C50.8599 56.9058 50.7462 56.9513 50.6439 56.9911C50.5928 57.0138 50.5416 57.0365 50.5018 57.0706C50.4564 57.1047 50.4223 57.1616 50.4223 57.2298C50.4223 57.298 50.445 57.3548 50.4734 57.4003C50.5018 57.4458 50.5473 57.4856 50.6155 57.4856C50.7633 57.4856 51.0304 57.423 51.4283 57.423C51.7693 57.423 52.0194 57.4799 52.1956 57.4799C52.2638 57.4799 52.3206 57.4799 52.3775 57.4401C52.4343 57.4003 52.4627 57.3264 52.4571 57.2582C52.4571 57.19 52.44 57.1275 52.4002 57.0877C52.3377 57.0195 52.2638 57.0138 52.1956 57.0024C52.1274 56.9911 52.0535 56.9797 51.991 56.9456C51.8546 56.8717 51.7807 56.7808 51.7352 56.65C51.6841 56.5193 51.6727 56.3431 51.6727 56.1214V55.7804L51.7409 53.7968C51.7409 53.7683 51.7409 53.7399 51.7523 53.7115C51.7579 53.7286 51.7693 53.7513 51.775 53.7683L53.2869 57.2071C53.3153 57.2639 53.3267 57.315 53.3608 57.3605C53.3949 57.4117 53.4574 57.4458 53.5256 57.4458C53.5995 57.4458 53.6563 57.4117 53.6961 57.3662C53.7302 57.3207 53.753 57.2696 53.7757 57.2184L55.4126 53.8081C55.4354 53.7627 55.4581 53.7229 55.4808 53.6945C55.4808 53.7115 55.4865 53.7399 55.4865 53.7627L55.5888 56.2465V56.4113C55.5888 56.5534 55.5775 56.6614 55.5434 56.741C55.515 56.8206 55.4638 56.8831 55.3785 56.9456C55.3103 56.9911 55.2421 57.0081 55.1739 57.0422C55.1398 57.0593 55.1057 57.082 55.0773 57.1161C55.0489 57.1502 55.0318 57.2014 55.0318 57.2525C55.0318 57.3264 55.0546 57.3946 55.1057 57.4401C55.1569 57.4856 55.2251 57.4969 55.2933 57.4969C55.4524 57.4969 55.7309 57.423 56.1913 57.423C56.6517 57.423 56.9359 57.4856 57.095 57.4856C57.1803 57.4856 57.2428 57.4799 57.3054 57.4287C57.3622 57.3776 57.3736 57.3037 57.3736 57.2241C57.3736 57.1616 57.3565 57.1047 57.3167 57.065C57.2485 57.0138 57.186 57.0195 57.1235 57.0024M48.3306 57.0024C48.2738 56.9854 48.1999 56.9627 48.1089 56.8944C47.9725 56.7978 47.7907 56.5989 47.586 56.3033L46.131 54.2799C46.0457 54.1719 46.023 54.0923 46.023 54.0639C46.023 54.0639 46.0741 53.973 46.1651 53.8763L46.9949 53.0635C47.5235 52.5463 47.9043 52.2849 48.0123 52.228C48.1317 52.1655 48.2283 52.1485 48.3136 52.1143C48.359 52.0973 48.3988 52.0802 48.4329 52.0405C48.4727 52.0007 48.4841 51.9438 48.4841 51.8813C48.4841 51.8131 48.4557 51.7449 48.4045 51.7051C48.3477 51.6653 48.2908 51.6596 48.2226 51.6596C48.0407 51.6596 47.802 51.7165 47.461 51.7165C47.137 51.7165 46.8642 51.671 46.6198 51.6653C46.5573 51.6653 46.5004 51.671 46.455 51.7051C46.4038 51.7392 46.3867 51.8017 46.3924 51.8586C46.3924 51.9154 46.3924 51.9609 46.4208 52.0007C46.4493 52.0689 46.5175 52.0973 46.5629 52.103C46.6141 52.1143 46.6653 52.1143 46.7221 52.1257C46.813 52.1485 46.8415 52.1882 46.8471 52.2564C46.8471 52.2735 46.8358 52.3303 46.7903 52.4042C46.6653 52.6316 46.3413 53.0294 45.8127 53.541L44.926 54.4049C44.926 54.4049 44.8805 54.4447 44.8635 54.4504C44.8521 54.4504 44.8464 54.4561 44.8407 54.4561C44.8407 54.4333 44.8294 54.3822 44.8351 54.3083V52.9044C44.8351 52.7396 44.8351 52.6088 44.8578 52.5065C44.8805 52.4042 44.9203 52.3247 45.0113 52.2451C45.0965 52.1655 45.1875 52.1371 45.2784 52.103C45.3239 52.0859 45.3693 52.0632 45.4091 52.0291C45.4489 51.9893 45.4717 51.9325 45.4717 51.8643C45.4717 51.7961 45.4546 51.7392 45.4091 51.6994C45.3637 51.654 45.3068 51.6369 45.2443 51.6369C45.1249 51.6369 44.7669 51.7108 44.1416 51.7108C43.6244 51.7108 43.2948 51.6483 43.1299 51.6483C43.0503 51.6483 42.9821 51.671 42.931 51.7165C42.8798 51.762 42.8514 51.8302 42.8514 51.8984C42.8514 51.9836 42.8912 52.0632 42.9594 52.0916C43.0503 52.1428 43.1527 52.1428 43.255 52.1598C43.363 52.1769 43.4653 52.211 43.5505 52.2962C43.6415 52.3815 43.6813 52.4667 43.7097 52.5918C43.7324 52.7112 43.7381 52.8646 43.7381 53.0635V56.0248C43.7381 56.2238 43.7324 56.3829 43.7097 56.5136C43.6813 56.6387 43.6358 56.7353 43.5562 56.8206C43.4766 56.9001 43.3743 56.9399 43.2777 56.9911C43.2265 57.0195 43.1811 57.0422 43.1413 57.0877C43.1015 57.1332 43.0731 57.1957 43.0788 57.2696C43.0788 57.3321 43.1015 57.3946 43.1527 57.4344C43.2038 57.4742 43.2663 57.4912 43.3402 57.4912C43.5505 57.4912 43.9029 57.4174 44.4031 57.4174C44.8407 57.4174 45.1534 57.4856 45.3523 57.4912C45.4205 57.4912 45.483 57.4799 45.5342 57.4344C45.5853 57.3833 45.5967 57.315 45.5967 57.2412C45.5967 57.1673 45.574 57.1047 45.5228 57.065C45.4546 57.0081 45.375 56.9968 45.2955 56.974C45.2159 56.9513 45.142 56.9342 45.0738 56.8831C44.9601 56.7978 44.909 56.7012 44.8749 56.5534C44.8408 56.4056 44.8351 56.2124 44.8407 55.9737V55.411C44.8407 55.3314 44.8408 55.2632 44.8521 55.212C44.8635 55.1609 44.8805 55.1325 44.9146 55.104L45.1647 54.8824C45.1931 54.854 45.2216 54.8312 45.2386 54.8198C45.25 54.8312 45.2614 54.854 45.2784 54.8767L46.8869 57.1843C47.0063 57.3548 47.1313 57.4571 47.2734 57.4571C47.3985 57.4571 47.5406 57.4174 47.6997 57.4174C47.8759 57.4174 48.0748 57.4628 48.2965 57.4628C48.3704 57.4628 48.4329 57.4515 48.4898 57.4003C48.5409 57.3491 48.558 57.2753 48.558 57.2014C48.558 57.1502 48.5409 57.0934 48.5011 57.0593C48.4443 57.0138 48.3931 57.0138 48.3306 56.9968M34.0188 54.8937C34.0188 54.8937 33.9449 54.9051 33.888 54.9051H32.9957C32.8763 54.9051 32.7911 54.8994 32.7513 54.8881C32.7342 54.8824 32.7285 54.8767 32.7285 54.8767C32.7285 54.8767 32.7285 54.8767 32.7285 54.8653C32.7285 54.854 32.7399 54.7857 32.7797 54.6948L33.3594 53.2852C33.3708 53.2511 33.3879 53.2341 33.3992 53.2227C33.4106 53.2341 33.4333 53.2682 33.4504 53.3193L34.0017 54.6721C34.0245 54.7346 34.0415 54.7914 34.0529 54.8255C34.0586 54.8426 34.0642 54.8596 34.0642 54.871C34.0642 54.871 34.0642 54.871 34.0642 54.8767C34.0642 54.8767 34.0472 54.8881 34.0245 54.8937M42.5445 51.6994C42.4933 51.6596 42.4365 51.654 42.374 51.654C42.1523 51.654 41.8226 51.7165 41.4134 51.7165C41.1122 51.7165 40.8621 51.6596 40.6575 51.6596C40.5893 51.6596 40.5267 51.671 40.4813 51.7108C40.4301 51.7506 40.4131 51.8188 40.4131 51.8813C40.4131 51.9552 40.4472 52.0291 40.504 52.0632C40.5836 52.1087 40.6688 52.1143 40.7768 52.1428C40.8848 52.1655 41.0042 52.1996 41.1292 52.2905C41.2429 52.3701 41.3054 52.4724 41.3509 52.6259C41.3907 52.7794 41.3964 52.9783 41.3964 53.2227V55.2632C41.3964 55.3882 41.385 55.4792 41.3736 55.5303C41.3736 55.5474 41.3623 55.5587 41.3623 55.5701C41.3509 55.5701 41.3225 55.5474 41.2827 55.519C41.2372 55.4792 41.1804 55.4223 41.1122 55.3371L38.4408 52.0348C38.3328 51.9097 38.2703 51.8188 38.1907 51.762C38.1111 51.6994 38.0202 51.671 37.9008 51.6767C37.6791 51.6767 37.4575 51.7165 37.2301 51.7165C37.071 51.7165 36.9175 51.6767 36.7641 51.6767C36.7072 51.6767 36.6447 51.6824 36.5935 51.7335C36.5424 51.7847 36.531 51.8529 36.531 51.9268C36.531 52.0064 36.5594 52.0859 36.622 52.12C36.7072 52.1655 36.7868 52.1598 36.8777 52.1769C36.9687 52.1939 37.0596 52.228 37.1619 52.336C37.3097 52.4838 37.3779 52.7794 37.3722 53.2625V55.2689C37.3722 55.7179 37.3495 56.076 37.3097 56.3431C37.2699 56.6103 37.2131 56.7808 37.1562 56.8433C37.088 56.9399 36.98 56.974 36.872 57.0081C36.8209 57.0252 36.7697 57.0422 36.7243 57.0706C36.6845 57.0934 36.6447 57.1502 36.639 57.2071C36.639 57.1843 36.6276 57.1616 36.6163 57.1388C36.5879 57.082 36.531 57.0479 36.4855 57.0252C36.4344 57.0081 36.3776 56.9911 36.298 56.9683C36.0763 56.8888 35.9911 56.758 35.8831 56.5023L33.8994 51.7335C33.8539 51.6369 33.7914 51.546 33.6834 51.5403C33.6323 51.5403 33.5811 51.5573 33.547 51.5914C33.5129 51.6255 33.5072 51.6596 33.4845 51.6994L31.5293 56.2351C31.3758 56.5989 31.2621 56.8206 31.0746 56.9456C31.0063 56.9911 30.9381 57.0081 30.8643 57.0422C30.8302 57.0593 30.7904 57.082 30.7619 57.1218C30.7335 57.1616 30.7165 57.2127 30.7165 57.2696C30.7165 57.3378 30.7392 57.4003 30.7847 57.4458C30.8302 57.4912 30.8927 57.5083 30.9609 57.5083C31.0234 57.5083 31.0916 57.4856 31.2053 57.4685C31.3133 57.4515 31.4554 57.4344 31.6373 57.4344C32.1317 57.4344 32.4557 57.514 32.6376 57.514C32.7058 57.514 32.774 57.4969 32.8195 57.4515C32.8706 57.406 32.8877 57.3378 32.8877 57.2696C32.8877 57.1786 32.8252 57.0991 32.757 57.0706C32.6888 57.0422 32.6092 57.0252 32.5126 57.0081C32.342 56.974 32.217 56.9229 32.1431 56.8603C32.0692 56.7978 32.0351 56.7296 32.0351 56.6273C32.0351 56.5648 32.0522 56.4852 32.092 56.3829L32.3023 55.7747C32.3591 55.6099 32.4159 55.5474 32.4785 55.519C32.5467 55.4849 32.6603 55.4792 32.8309 55.4849H33.9278C34.0813 55.4849 34.1722 55.4905 34.2291 55.5246C34.2802 55.5531 34.3314 55.6213 34.3939 55.7804L34.6099 56.3147C34.661 56.4341 34.6838 56.5534 34.6838 56.6387C34.6838 56.741 34.6554 56.8092 34.6156 56.8603C34.553 56.9342 34.4507 56.9797 34.3484 57.0252C34.2973 57.0479 34.2518 57.0706 34.2063 57.1047C34.1609 57.1388 34.1268 57.1957 34.1268 57.2639C34.1268 57.3264 34.1438 57.3833 34.1779 57.4287C34.212 57.4742 34.2632 57.5083 34.3257 57.5083C34.3825 57.5083 34.4735 57.4856 34.6383 57.4685C34.8031 57.4515 35.0248 57.4287 35.3147 57.4287C35.8319 57.4287 36.1957 57.4969 36.4117 57.4969C36.4685 57.4969 36.5196 57.4969 36.5765 57.4515C36.6163 57.406 36.6276 57.3548 36.6276 57.298C36.6276 57.3435 36.6504 57.3889 36.6731 57.423C36.7129 57.4742 36.7754 57.5083 36.8436 57.5026C36.9971 57.5026 37.2756 57.4287 37.7189 57.4287C38.1339 57.4287 38.3896 57.5083 38.5374 57.5083C38.6113 57.5083 38.6738 57.5083 38.7363 57.4685C38.7989 57.423 38.8159 57.3435 38.8159 57.2639C38.8159 57.173 38.7648 57.0934 38.7022 57.065C38.6056 57.0138 38.4976 57.0081 38.3839 56.9854C38.2703 56.9626 38.1736 56.9285 38.0997 56.8603C37.9974 56.7467 37.9349 56.5705 37.9008 56.3033C37.8667 56.0419 37.8667 55.7008 37.8667 55.2802V53.4159C37.8667 53.308 37.8724 53.2284 37.8894 53.1886C37.8894 53.1829 37.8894 53.1772 37.8951 53.1715C37.9235 53.1943 37.9747 53.2341 38.0145 53.2852L41.2088 57.173C41.2997 57.2866 41.3736 57.3776 41.4475 57.4515C41.5214 57.5197 41.601 57.5765 41.7033 57.5765C41.7431 57.5765 41.7772 57.5538 41.7999 57.531C41.8681 57.4458 41.8738 57.3378 41.8738 57.1616L41.9193 53.109C41.9193 52.876 41.9306 52.6998 41.9647 52.5634C41.9988 52.427 42.05 52.336 42.158 52.2508C42.2432 52.1826 42.3285 52.1598 42.4138 52.1257C42.4535 52.1087 42.4933 52.0916 42.5331 52.0518C42.5672 52.012 42.59 51.9552 42.59 51.8927C42.59 51.8302 42.5786 51.762 42.5274 51.7222M29.1762 56.6728C28.9829 56.8717 28.6987 56.9911 28.3122 56.9911C27.9598 56.9911 27.7723 56.9342 27.6756 56.8262C27.5733 56.7239 27.5392 56.5307 27.5392 56.2124V55.1381C27.5392 54.8994 27.5506 54.7687 27.6074 54.7232C27.6472 54.6721 27.7723 54.638 28.0451 54.638C28.4998 54.638 28.8579 54.7573 29.0966 54.9563C29.3353 55.1609 29.466 55.4508 29.466 55.8145C29.466 56.1783 29.3637 56.4625 29.1705 56.6671M27.5335 52.8078C27.5335 52.5577 27.5563 52.3872 27.6188 52.2962C27.6756 52.2053 27.7723 52.1598 27.9882 52.1541C28.6703 52.1541 29.1534 52.5975 29.1534 53.3421C29.1534 53.649 29.0909 53.8479 28.9715 53.9673C28.8522 54.0866 28.6476 54.1435 28.335 54.1435C27.9769 54.1435 27.7552 54.1321 27.6529 54.081C27.6017 54.0582 27.579 54.0298 27.5563 53.9957C27.5392 53.9559 27.5279 53.8877 27.5279 53.8024V52.8078H27.5335ZM29.5342 54.223C29.7161 54.1264 29.8639 54.0127 29.9719 53.8707C30.131 53.666 30.2049 53.4159 30.2049 53.1204C30.2049 52.6884 30.0287 52.319 29.7048 52.0632C29.3751 51.8074 28.9033 51.671 28.2952 51.671C27.8007 51.671 27.3346 51.7278 26.914 51.7278C26.59 51.7278 26.3399 51.7165 26.1694 51.6994C25.9932 51.6881 25.8966 51.671 25.8511 51.671C25.7772 51.671 25.7034 51.6881 25.6522 51.7335C25.5954 51.779 25.5726 51.8472 25.5726 51.9154C25.5669 52.0007 25.6124 52.0802 25.6749 52.1087C25.7659 52.1598 25.8682 52.1598 25.9705 52.1769C26.0785 52.1939 26.1808 52.228 26.2717 52.3133C26.357 52.3985 26.4025 52.4838 26.4252 52.6088C26.4536 52.7282 26.4536 52.8817 26.4536 53.0806V56.2181C26.4536 56.5761 26.3684 56.7751 26.1751 56.9001C26.0898 56.957 25.9989 56.9854 25.925 57.0309C25.8511 57.0706 25.7772 57.1616 25.7829 57.2753C25.7829 57.3378 25.8057 57.4003 25.8568 57.4401C25.9023 57.4799 25.9705 57.4969 26.0444 57.4969C26.2433 57.4969 26.5787 57.4344 27.0334 57.4344C27.2493 57.4344 27.7154 57.4969 28.4032 57.4969H28.4088C29.0682 57.4969 29.5797 57.423 30.0174 57.0195C30.3754 56.6898 30.5857 56.1953 30.5857 55.6838C30.5857 54.9563 30.1651 54.3765 29.5286 54.223" fill="#19335D"/>
<mask id="mask2_801_8026" style="mask-type:luminance" maskUnits="userSpaceOnUse" x="15" y="50" width="10" height="9">
<path d="M18.6894 52.0519C19.2806 52.5918 20.3264 53.7854 19.9115 54.6607C19.6841 55.1382 18.877 54.4277 18.4053 54.3254C18.7179 54.7971 19.3772 55.644 20.2184 56.3659C21.0539 57.0877 23.0091 58.6621 23.8333 57.8096C24.7711 56.8376 22.3328 53.541 20.764 52.2963C19.2635 51.1027 16.9331 50.0682 15.7964 50C17.0866 50.6252 18.2347 51.6313 18.7008 52.0575" fill="white"/>
</mask>
<g mask="url(#mask2_801_8026)">
<path d="M20.1499 45.5095L11.4561 54.4496L20.4002 63.1474L29.0941 54.2073L20.1499 45.5095Z" fill="url(#paint2_linear_801_8026)"/>
</g>
<mask id="mask3_801_8026" style="mask-type:luminance" maskUnits="userSpaceOnUse" x="14" y="50" width="9" height="9">
<path d="M14.2277 50.2955C13.2046 51.2163 15.876 54.5243 17.3424 55.7633C18.8089 56.9967 21.0938 57.9687 22.2305 58.0312C20.9801 57.5196 19.8035 56.4227 19.3659 55.968C18.9282 55.5132 17.422 53.9502 18.0188 53.2738C18.3655 52.8816 19.0703 53.5466 19.5421 53.649C19.2238 52.9157 18.6895 52.444 17.8483 51.7221C17.1833 51.1481 15.8931 50.0454 14.9098 50.0454C14.654 50.0454 14.421 50.1193 14.222 50.2955" fill="white"/>
</mask>
<g mask="url(#mask3_801_8026)">
<path d="M17.5966 45.5293L9.21582 54.1475L17.8462 62.5402L26.227 53.922L17.5966 45.5293Z" fill="url(#paint3_linear_801_8026)"/>
</g>
<path d="M18.0245 53.2682C18.3314 52.8817 19.076 53.2113 19.4227 53.5239C19.7751 53.8365 20.1559 54.422 19.9797 54.7175C19.8092 55.0131 19.093 54.8767 18.6554 54.5413C18.2291 54.206 17.7687 53.5921 18.0245 53.2682Z" fill="#19335D"/>
<defs>
<linearGradient id="paint0_linear_801_8026" x1="17.047" y1="58.8116" x2="25.087" y2="50.5439" gradientUnits="userSpaceOnUse">
<stop stop-color="#EA292C"/>
<stop offset="0.27" stop-color="#EA292C"/>
<stop offset="0.38" stop-color="#EA292C"/>
<stop offset="0.41" stop-color="#EB3E2B"/>
<stop offset="0.46" stop-color="#EF7529"/>
<stop offset="0.54" stop-color="#F5CC26"/>
<stop offset="0.57" stop-color="#F8EC26"/>
<stop offset="1" stop-color="#F8EC26"/>
</linearGradient>
<linearGradient id="paint1_linear_801_8026" x1="12.4519" y1="57.3708" x2="20.4523" y2="49.1438" gradientUnits="userSpaceOnUse">
<stop stop-color="#F8EC26"/>
<stop offset="0.45" stop-color="#F8EC26"/>
<stop offset="0.47" stop-color="#F5CC26"/>
<stop offset="0.54" stop-color="#EF7529"/>
<stop offset="0.58" stop-color="#EB3E2B"/>
<stop offset="0.61" stop-color="#EA292C"/>
<stop offset="0.74" stop-color="#EA292C"/>
<stop offset="1" stop-color="#EA292C"/>
</linearGradient>
<linearGradient id="paint2_linear_801_8026" x1="17.047" y1="58.8116" x2="25.087" y2="50.5439" gradientUnits="userSpaceOnUse">
<stop stop-color="#EA292C"/>
<stop offset="0.27" stop-color="#EA292C"/>
<stop offset="0.38" stop-color="#EA292C"/>
<stop offset="0.41" stop-color="#EB3E2B"/>
<stop offset="0.46" stop-color="#EF7529"/>
<stop offset="0.54" stop-color="#F5CC26"/>
<stop offset="0.57" stop-color="#F8EC26"/>
<stop offset="1" stop-color="#F8EC26"/>
</linearGradient>
<linearGradient id="paint3_linear_801_8026" x1="12.4519" y1="57.3708" x2="20.4523" y2="49.1438" gradientUnits="userSpaceOnUse">
<stop stop-color="#F8EC26"/>
<stop offset="0.45" stop-color="#F8EC26"/>
<stop offset="0.47" stop-color="#F5CC26"/>
<stop offset="0.54" stop-color="#EF7529"/>
<stop offset="0.58" stop-color="#EB3E2B"/>
<stop offset="0.61" stop-color="#EA292C"/>
<stop offset="0.74" stop-color="#EA292C"/>
<stop offset="1" stop-color="#EA292C"/>
</linearGradient>
</defs>
</svg>
