<svg width="108" height="108" viewBox="0 0 108 108" fill="none" xmlns="http://www.w3.org/2000/svg">
<path d="M28.5404 38.2272C28.5404 38.2272 27.3579 35.5022 26.7254 35.2597C26.0929 35.0172 24.7329 43.6172 25.4129 45.4672C25.4129 45.4672 28.9379 48.2397 29.5179 50.6497L31.6229 47.9747L33.0279 42.9522L28.5379 38.2272H28.5404Z" fill="url(#paint0_linear_801_7061)" stroke="#A3822E" stroke-width="0.075" stroke-miterlimit="10"/>
<path d="M29.2704 47.4672C29.2704 47.4672 27.3129 43.3822 27.1729 38.0397" stroke="#A3822E" stroke-width="0.025" stroke-miterlimit="10"/>
<path d="M79.1879 38.2272C79.1879 38.2272 80.3704 35.5022 81.0029 35.2597C81.6354 35.0172 82.9954 43.6172 82.3154 45.4672C82.3154 45.4672 78.7904 48.2397 78.2104 50.6497L76.1054 47.9747L74.7004 42.9522L79.1904 38.2272H79.1879Z" fill="url(#paint1_linear_801_7061)" stroke="#A3822E" stroke-width="0.075" stroke-miterlimit="10"/>
<path d="M78.4579 47.4672C78.4579 47.4672 80.4154 43.3822 80.5554 38.0397" stroke="#A3822E" stroke-width="0.025" stroke-miterlimit="10"/>
<path d="M35.5304 31.5948C35.5304 31.5948 34.0154 28.5723 33.2654 28.5723C32.5154 28.5723 30.7354 33.7748 31.5554 36.3298C32.3754 38.8848 33.5279 39.1773 33.2429 40.7523C32.9604 42.3273 37.8104 38.0173 37.8579 37.6648C37.9054 37.3123 37.5779 33.5398 37.5779 33.5398L35.5304 31.5948Z" fill="url(#paint2_linear_801_7061)" stroke="#A3822E" stroke-width="0.075" stroke-miterlimit="10"/>
<path d="M39.3229 25.3148C39.3229 25.3148 34.0904 26.5648 35.9154 37.3398C37.7404 48.1148 41.5829 35.8123 41.5829 35.8123C41.5829 35.8123 47.2304 31.3123 45.2154 30.2348C43.2004 29.1573 39.3229 25.3148 39.3229 25.3148Z" fill="url(#paint3_linear_801_7061)" stroke="#A3822E" stroke-width="0.075" stroke-miterlimit="10"/>
<path d="M35.9154 37.3398C35.9154 37.3398 37.6679 28.7823 41.8404 28.3498C46.0129 27.9173 46.7154 32.8448 46.7154 32.8448L37.8629 36.2123L35.9179 37.3398H35.9154Z" fill="url(#paint4_linear_801_7061)" stroke="#A3822E" stroke-width="0.075" stroke-miterlimit="10"/>
<path d="M32.1754 75.4472L29.2704 76.4022C29.2704 76.4022 31.5654 78.7447 33.5354 78.2522C35.5054 77.7597 37.9654 75.1022 37.9654 75.1022C37.9654 75.1022 38.1954 73.4147 37.9304 73.3297C37.6654 73.2447 32.3054 74.5247 32.3054 74.5247L32.1779 75.4472H32.1754Z" fill="url(#paint5_linear_801_7061)" stroke="#A3822E" stroke-width="0.075" stroke-miterlimit="10"/>
<path d="M28.8929 68.8898L25.1679 68.9623C25.1679 68.9623 28.0829 73.9148 31.6004 75.1248C31.6004 75.1248 33.1154 76.4098 35.9604 75.3098C38.8054 74.2098 39.4379 72.3223 39.4379 72.3223L34.3079 67.4948C34.3079 67.4948 31.1554 67.8498 30.9229 67.8823C30.6904 67.9148 28.8954 68.8898 28.8954 68.8898H28.8929Z" fill="url(#paint6_linear_801_7061)" stroke="#A3822E" stroke-width="0.075" stroke-miterlimit="10"/>
<path d="M32.4179 69.4598C32.4179 69.4598 27.6629 69.8523 25.4504 65.9848C23.2354 62.1173 23.5879 60.6073 23.5879 60.6073C23.5879 60.6073 23.4129 59.8698 26.1979 61.8273L32.6929 62.2948C32.6929 62.2948 33.0204 64.1698 33.0329 64.9723C33.0454 65.7748 33.5379 68.2698 33.5379 68.5173C33.5379 68.7648 32.4229 69.4623 32.4229 69.4623L32.4179 69.4598Z" fill="url(#paint7_linear_801_7061)" stroke="#A3822E" stroke-width="0.075" stroke-miterlimit="10"/>
<path d="M36.9904 74.0597C36.9904 74.0597 33.9179 72.5572 32.1604 68.9722C30.4029 65.3872 30.9179 64.2997 30.9179 64.2997L33.1229 63.8647C33.1229 63.8647 34.4104 65.2447 34.9379 66.5472C35.4654 67.8472 37.6829 70.6947 38.2104 71.1522C38.7354 71.6097 38.7704 73.0797 38.7704 73.0797L36.9904 74.0597Z" fill="url(#paint8_linear_801_7061)" stroke="#A3822E" stroke-width="0.075" stroke-miterlimit="10"/>
<path d="M25.7229 53.8547C25.7229 53.8547 23.7979 52.5922 23.0254 52.5922C23.0254 52.5922 22.7004 55.8972 24.3754 59.0947C26.0479 62.2922 27.9079 63.9622 31.4779 64.3772C31.4779 64.3772 34.3104 59.2372 32.5529 57.6197C30.7954 56.0022 25.7254 53.8572 25.7254 53.8572L25.7229 53.8547Z" fill="url(#paint9_linear_801_7061)" stroke="#A3822E" stroke-width="0.075" stroke-miterlimit="10"/>
<path d="M29.5204 50.6497C29.5204 50.6497 29.5854 48.0672 24.6179 44.6472C24.6179 44.6472 21.9004 52.2397 28.1104 55.9422L29.4129 56.8297L30.9229 53.4197L29.5229 50.6522L29.5204 50.6497Z" fill="url(#paint10_linear_801_7061)" stroke="#A3822E" stroke-width="0.075" stroke-miterlimit="10"/>
<path d="M33.4754 40.6398C33.4754 40.6398 33.4304 35.8823 29.2704 34.0773C29.2704 34.0773 26.4904 39.5848 31.7879 43.3098C31.7879 43.3098 33.6654 42.0398 33.4754 40.6398Z" fill="url(#paint11_linear_801_7061)" stroke="#A3822E" stroke-width="0.075" stroke-miterlimit="10"/>
<path d="M35.1479 73.6722C34.9104 73.7322 33.0079 73.4072 30.2804 71.9872C29.4179 71.5397 28.4754 70.9822 27.4754 70.2947" stroke="#A3822E" stroke-width="0.025" stroke-miterlimit="10"/>
<path d="M30.4054 67.4947C30.4054 67.4947 26.7504 65.1747 25.1679 62.2922" stroke="#A3822E" stroke-width="0.025" stroke-miterlimit="10"/>
<path d="M29.1279 60.9572C29.1279 60.9572 25.3729 58.6347 23.5654 54.1722" stroke="#A3822E" stroke-width="0.025" stroke-miterlimit="10"/>
<path d="M28.5404 53.4173C28.5404 53.4173 25.9054 51.1148 25.1679 46.3323" stroke="#A3822E" stroke-width="0.025" stroke-miterlimit="10"/>
<path d="M31.3429 41.1748L29.7029 35.2598" stroke="#A3822E" stroke-width="0.025" stroke-miterlimit="10"/>
<path d="M72.1979 31.5948C72.1979 31.5948 73.7129 28.5723 74.4629 28.5723C75.2129 28.5723 76.9929 33.7748 76.1729 36.3298C75.3529 38.8848 74.2004 39.1773 74.4854 40.7523C74.7679 42.3273 69.9179 38.0173 69.8704 37.6648C69.8229 37.3123 70.1504 33.5398 70.1504 33.5398L72.1979 31.5948Z" fill="url(#paint12_linear_801_7061)" stroke="#A3822E" stroke-width="0.075" stroke-miterlimit="10"/>
<path d="M68.4054 25.3148C68.4054 25.3148 73.6379 26.5648 71.8129 37.3398C69.9879 48.1148 66.1454 35.8123 66.1454 35.8123C66.1454 35.8123 60.4979 31.3123 62.5129 30.2348C64.5279 29.1573 68.4054 25.3148 68.4054 25.3148Z" fill="url(#paint13_linear_801_7061)" stroke="#A3822E" stroke-width="0.075" stroke-miterlimit="10"/>
<path d="M71.8129 37.3398C71.8129 37.3398 70.0604 28.7823 65.8879 28.3498C61.7154 27.9173 61.0129 32.8448 61.0129 32.8448L69.8654 36.2123L71.8104 37.3398H71.8129Z" fill="url(#paint14_linear_801_7061)" stroke="#A3822E" stroke-width="0.075" stroke-miterlimit="10"/>
<path d="M75.5529 75.4472L78.4579 76.4022C78.4579 76.4022 76.1629 78.7447 74.1929 78.2522C72.2254 77.7572 69.7629 75.1022 69.7629 75.1022C69.7629 75.1022 69.5329 73.4147 69.7979 73.3297C70.0629 73.2447 75.4229 74.5247 75.4229 74.5247L75.5504 75.4472H75.5529Z" fill="url(#paint15_linear_801_7061)" stroke="#A3822E" stroke-width="0.075" stroke-miterlimit="10"/>
<path d="M78.8354 68.8898L82.5604 68.9623C82.5604 68.9623 79.6454 73.9148 76.1279 75.1248C76.1279 75.1248 74.6129 76.4098 71.7679 75.3098C68.9229 74.2098 68.2904 72.3223 68.2904 72.3223L73.4204 67.4948C73.4204 67.4948 76.5729 67.8498 76.8054 67.8823C77.0379 67.9148 78.8329 68.8898 78.8329 68.8898H78.8354Z" fill="url(#paint16_linear_801_7061)" stroke="#A3822E" stroke-width="0.075" stroke-miterlimit="10"/>
<path d="M75.3104 69.4598C75.3104 69.4598 80.0654 69.8523 82.2779 65.9848C84.4929 62.1173 84.1404 60.6073 84.1404 60.6073C84.1404 60.6073 84.3154 59.8698 81.5304 61.8273L75.0354 62.2948C75.0354 62.2948 74.7079 64.1698 74.6954 64.9723C74.6829 65.7748 74.1904 68.2698 74.1904 68.5173C74.1904 68.7648 75.3054 69.4623 75.3054 69.4623L75.3104 69.4598Z" fill="url(#paint17_linear_801_7061)" stroke="#A3822E" stroke-width="0.075" stroke-miterlimit="10"/>
<path d="M70.7354 74.0597C70.7354 74.0597 73.8079 72.5572 75.5654 68.9722C77.3229 65.3872 76.8079 64.2997 76.8079 64.2997L74.6029 63.8647C74.6029 63.8647 73.3154 65.2447 72.7879 66.5472C72.2604 67.8472 70.0429 70.6947 69.5154 71.1522C68.9879 71.6097 68.9554 73.0797 68.9554 73.0797L70.7354 74.0597Z" fill="url(#paint18_linear_801_7061)" stroke="#A3822E" stroke-width="0.075" stroke-miterlimit="10"/>
<path d="M82.0054 53.8547C82.0054 53.8547 83.9304 52.5922 84.7029 52.5922C84.7029 52.5922 85.0279 55.8972 83.3529 59.0947C81.6804 62.2922 79.8204 63.9622 76.2504 64.3772C76.2504 64.3772 73.4179 59.2372 75.1754 57.6197C76.9329 56.0022 82.0029 53.8572 82.0029 53.8572L82.0054 53.8547Z" fill="url(#paint19_linear_801_7061)" stroke="#A3822E" stroke-width="0.075" stroke-miterlimit="10"/>
<path d="M78.2079 50.6497C78.2079 50.6497 78.1429 48.0672 83.1104 44.6472C83.1104 44.6472 85.8279 52.2397 79.6179 55.9422L78.3154 56.8297L76.8054 53.4197L78.2054 50.6522L78.2079 50.6497Z" fill="url(#paint20_linear_801_7061)" stroke="#A3822E" stroke-width="0.075" stroke-miterlimit="10"/>
<path d="M74.2529 40.6398C74.2529 40.6398 74.2979 35.8823 78.4579 34.0773C78.4579 34.0773 81.2379 39.5848 75.9404 43.3098C75.9404 43.3098 74.0629 42.0398 74.2529 40.6398Z" fill="url(#paint21_linear_801_7061)" stroke="#A3822E" stroke-width="0.075" stroke-miterlimit="10"/>
<path d="M38.6079 72.4473C38.3654 72.3373 32.9829 79.4648 32.9829 79.4648C32.9829 79.4648 39.6029 86.7598 54.4779 86.7598C69.3529 86.7598 74.6479 78.8073 74.6479 78.8073L68.8829 71.8148C68.8829 71.8148 58.9004 81.7098 38.6054 72.4473H38.6079Z" fill="url(#paint22_linear_801_7061)" stroke="#A3822E" stroke-width="0.075" stroke-miterlimit="10"/>
<path d="M38.5379 78.9048L38.5929 78.9423C38.5829 79.2048 38.6129 79.4273 38.6829 79.6098C38.7554 79.7923 38.8854 79.9473 39.0779 80.0773C39.2179 80.1723 39.3679 80.2223 39.5279 80.2273C39.6879 80.2323 39.8404 80.1973 39.9854 80.1223C40.1304 80.0473 40.2504 79.9398 40.3429 79.7998C40.4904 79.5798 40.5329 79.3723 40.4654 79.1798C40.3979 78.9873 40.2629 78.7448 40.0604 78.4498C39.8579 78.1548 39.7279 77.8923 39.6729 77.6648C39.6179 77.4373 39.6804 77.1873 39.8629 76.9173C40.0829 76.5898 40.3654 76.4123 40.7079 76.3873C41.0504 76.3623 41.3929 76.4648 41.7354 76.6948C41.8729 76.7873 41.9979 76.9023 42.1079 77.0373C42.2179 77.1723 42.2904 77.3148 42.3229 77.4598C42.2529 77.5023 42.1079 77.6173 41.8854 77.7998L41.8329 77.7648C41.8754 77.5848 41.8679 77.4148 41.8079 77.2548C41.7479 77.0948 41.6404 76.9623 41.4854 76.8573C41.3629 76.7748 41.2329 76.7248 41.0954 76.7073C40.9579 76.6898 40.8279 76.7073 40.7029 76.7648C40.5779 76.8198 40.4754 76.9073 40.3954 77.0273C40.2479 77.2448 40.2079 77.4473 40.2729 77.6398C40.3379 77.8323 40.4729 78.0773 40.6804 78.3798C40.8879 78.6823 41.0204 78.9448 41.0779 79.1673C41.1354 79.3898 41.0779 79.6273 40.9104 79.8798C40.7854 80.0673 40.6379 80.2123 40.4679 80.3173C40.3004 80.4223 40.1179 80.4873 39.9254 80.5098C39.7329 80.5323 39.5379 80.5198 39.3429 80.4673C39.1479 80.4148 38.9579 80.3273 38.7754 80.2048C38.6329 80.1098 38.4929 79.9748 38.3554 79.7973C38.2179 79.6223 38.1379 79.4598 38.1154 79.3098C38.2354 79.2223 38.3754 79.0873 38.5354 78.9048H38.5379Z" fill="black"/>
<path d="M43.9854 80.7248L43.3304 82.0623C43.2929 82.1373 43.2679 82.1948 43.2554 82.2323C43.2429 82.2698 43.2404 82.3073 43.2554 82.3398C43.2679 82.3748 43.2979 82.4023 43.3454 82.4273C43.3879 82.4473 43.4479 82.4673 43.5279 82.4848L43.4654 82.6123C43.3854 82.6123 43.3179 82.5998 43.2604 82.5848C43.1929 82.5648 43.1279 82.5423 43.0679 82.5123C42.9554 82.4523 42.8754 82.3773 42.8304 82.2898C42.7854 82.2023 42.7854 82.0898 42.8304 81.9598L42.7529 81.9873C42.3929 82.1123 42.0479 82.0923 41.7204 81.9323C41.5104 81.8298 41.3604 81.6748 41.2754 81.4698C41.1879 81.2648 41.1954 81.0573 41.2979 80.8523C41.3979 80.6498 41.5229 80.5148 41.6754 80.4498C41.8279 80.3848 41.9854 80.3648 42.1479 80.3898C42.3104 80.4148 42.5204 80.4673 42.7729 80.5448C42.9679 80.6023 43.1104 80.6398 43.1979 80.6548C43.2854 80.6698 43.3604 80.6648 43.4179 80.6373C43.4754 80.6098 43.5279 80.5498 43.5729 80.4573C43.6779 80.2423 43.7004 80.0473 43.6404 79.8698C43.5804 79.6948 43.4429 79.5548 43.2304 79.4498C43.1054 79.3873 42.9804 79.3548 42.8604 79.3523C42.7379 79.3498 42.6329 79.3623 42.5454 79.3948C42.4579 79.4273 42.3904 79.4648 42.3479 79.5098L42.2829 79.4773L42.4404 79.1573C42.8529 79.0973 43.2154 79.1423 43.5254 79.2948C43.8304 79.4448 44.0254 79.6398 44.1029 79.8773C44.1829 80.1173 44.1429 80.3973 43.9854 80.7198V80.7248ZM42.9229 81.7273L43.3354 80.8848L43.1129 80.8273C42.9754 80.7873 42.8454 80.7523 42.7279 80.7248C42.6079 80.6948 42.4929 80.6798 42.3779 80.6748C42.2654 80.6698 42.1554 80.6923 42.0554 80.7423C41.9529 80.7923 41.8729 80.8798 41.8129 81.0023C41.7254 81.1823 41.7079 81.3423 41.7604 81.4823C41.8154 81.6223 41.9304 81.7348 42.1129 81.8223C42.1854 81.8573 42.2754 81.8748 42.3879 81.8723C42.5004 81.8723 42.5979 81.8573 42.6829 81.8273C42.7104 81.8173 42.7404 81.8073 42.7729 81.7998C42.8054 81.7898 42.8379 81.7773 42.8704 81.7623C42.9029 81.7473 42.9204 81.7348 42.9254 81.7248L42.9229 81.7273Z" fill="black"/>
<path d="M44.4954 83.1998L45.3179 80.2398C45.3679 80.2573 45.4154 80.2748 45.4554 80.2898C45.4954 80.3048 45.5304 80.3173 45.5604 80.3248C45.5879 80.3323 45.6229 80.3398 45.6654 80.3473C45.7079 80.3548 45.7554 80.3648 45.8129 80.3748L45.6654 80.9073C45.7704 80.8048 45.8779 80.7248 45.9854 80.6648C46.0954 80.6048 46.2129 80.5698 46.3404 80.5548C46.4679 80.5423 46.6004 80.5548 46.7379 80.5923C46.9454 80.6498 47.1179 80.7573 47.2529 80.9123C47.3904 81.0698 47.4629 81.2498 47.4704 81.4573C47.8279 81.1173 48.2079 81.0023 48.6129 81.1148C48.9779 81.2173 49.2079 81.3873 49.3029 81.6298C49.3979 81.8723 49.3879 82.1948 49.2779 82.5973L48.7804 84.3873C48.7404 84.3723 48.7079 84.3598 48.6804 84.3498C48.6529 84.3398 48.6329 84.3323 48.6129 84.3248C48.5929 84.3173 48.5704 84.3098 48.5354 84.2998C48.4979 84.2898 48.4729 84.2823 48.4604 84.2798C48.4479 84.2773 48.4254 84.2723 48.3904 84.2673C48.3554 84.2598 48.3179 84.2548 48.2804 84.2498L48.7379 82.6023C48.7954 82.3923 48.8279 82.2098 48.8354 82.0523C48.8429 81.8948 48.8104 81.7573 48.7329 81.6398C48.6579 81.5223 48.5229 81.4348 48.3329 81.3823C48.0529 81.3048 47.8379 81.3473 47.6879 81.5098C47.5379 81.6748 47.4229 81.8998 47.3429 82.1873L46.8779 83.8598C46.8379 83.8448 46.8054 83.8323 46.7804 83.8223C46.7554 83.8123 46.7329 83.8048 46.7154 83.7973C46.6979 83.7898 46.6729 83.7823 46.6354 83.7723C46.5979 83.7623 46.5679 83.7548 46.5504 83.7523C46.5329 83.7498 46.5079 83.7448 46.4804 83.7398C46.4529 83.7348 46.4204 83.7273 46.3829 83.7223L46.8854 81.9073C46.9679 81.6123 46.9754 81.3823 46.9079 81.2123C46.8429 81.0423 46.6954 80.9273 46.4679 80.8648C46.2629 80.8073 46.0979 80.8048 45.9679 80.8523C45.8379 80.8998 45.7379 80.9823 45.6629 81.0998C45.5904 81.2148 45.5279 81.3598 45.4804 81.5298L44.9804 83.3323C44.9404 83.3173 44.9079 83.3048 44.8829 83.2948C44.8554 83.2848 44.8354 83.2773 44.8179 83.2698C44.8004 83.2623 44.7754 83.2548 44.7379 83.2448C44.7079 83.2373 44.6704 83.2273 44.6229 83.2198C44.5754 83.2098 44.5304 83.2023 44.4854 83.1948L44.4954 83.1998Z" fill="black"/>
<path d="M50.7579 84.0248L50.5954 86.2273C50.5529 86.2198 50.5204 86.2148 50.4929 86.2098C50.4654 86.2048 50.4429 86.2023 50.4254 86.1973C50.4079 86.1948 50.3804 86.1898 50.3429 86.1873C50.3029 86.1848 50.2729 86.1823 50.2554 86.1848C50.2379 86.1848 50.2129 86.1848 50.1854 86.1848C50.1579 86.1848 50.1229 86.1848 50.0854 86.1848L50.4304 81.4823C50.4854 81.4898 50.5329 81.4973 50.5779 81.5048C50.6229 81.5123 50.6579 81.5173 50.6879 81.5198C50.7154 81.5198 50.7504 81.5223 50.7929 81.5198C50.8354 81.5173 50.8854 81.5198 50.9454 81.5198L50.8979 82.1673H50.9104C51.0304 81.9748 51.1654 81.8173 51.3154 81.6998C51.4654 81.5823 51.7079 81.5373 52.0454 81.5623C52.2454 81.5773 52.4229 81.6273 52.5754 81.7173C52.7304 81.8048 52.8579 81.9223 52.9604 82.0698C53.0629 82.2173 53.1379 82.3823 53.1804 82.5598C53.2254 82.7373 53.2379 82.9273 53.2254 83.1248C53.1879 83.6448 53.0304 84.0448 52.7529 84.3298C52.4754 84.6123 52.1304 84.7398 51.7154 84.7098C51.2779 84.6773 50.9629 84.4473 50.7754 84.0223H50.7629L50.7579 84.0248ZM50.8229 83.1398C50.7954 83.5048 50.8529 83.8073 50.9929 84.0473C51.1329 84.2873 51.3604 84.4198 51.6729 84.4423C51.8804 84.4573 52.0529 84.4073 52.1929 84.2948C52.3329 84.1798 52.4404 84.0223 52.5129 83.8198C52.5879 83.6173 52.6354 83.3823 52.6554 83.1173C52.6729 82.8898 52.6604 82.6773 52.6179 82.4823C52.5754 82.2873 52.4929 82.1248 52.3704 81.9948C52.2479 81.8648 52.0779 81.7948 51.8629 81.7798C51.6329 81.7623 51.4429 81.8223 51.2929 81.9573C51.1429 82.0923 51.0304 82.2698 50.9579 82.4848C50.8854 82.6998 50.8404 82.9198 50.8229 83.1423V83.1398Z" fill="black"/>
<path d="M53.9004 83.1998C53.8804 82.9723 53.9054 82.7623 53.9704 82.5673C54.0354 82.3723 54.1379 82.1998 54.2754 82.0473C54.4129 81.8973 54.5779 81.7773 54.7654 81.6873C54.9529 81.5973 55.1654 81.5448 55.4004 81.5248C55.6929 81.5023 55.9554 81.5423 56.1904 81.6523C56.4254 81.7598 56.6154 81.9273 56.7579 82.1548C56.9004 82.3823 56.9879 82.6523 57.0129 82.9673C57.0304 83.1723 57.0129 83.3723 56.9579 83.5698C56.9054 83.7673 56.8154 83.9473 56.6904 84.1098C56.5654 84.2723 56.4054 84.4048 56.2104 84.5048C56.0179 84.6048 55.7929 84.6673 55.5404 84.6873C55.2629 84.7098 55.0029 84.6673 54.7629 84.5573C54.5204 84.4473 54.3229 84.2773 54.1704 84.0423C54.0154 83.8073 53.9254 83.5273 53.9004 83.1998ZM55.4079 81.7223C55.1529 81.7448 54.9529 81.8298 54.8079 81.9823C54.6604 82.1348 54.5629 82.3223 54.5129 82.5473C54.4629 82.7723 54.4479 83.0073 54.4679 83.2548C54.4879 83.4873 54.5379 83.6973 54.6229 83.8898C54.7079 84.0823 54.8279 84.2348 54.9904 84.3473C55.1504 84.4598 55.3454 84.5073 55.5754 84.4898C55.8029 84.4698 55.9829 84.3773 56.1204 84.2073C56.2579 84.0373 56.3479 83.8423 56.3979 83.6173C56.4454 83.3923 56.4629 83.1798 56.4479 82.9848C56.4354 82.8248 56.4054 82.6673 56.3629 82.5173C56.3179 82.3673 56.2554 82.2298 56.1704 82.1048C56.0854 81.9798 55.9804 81.8823 55.8529 81.8123C55.7254 81.7423 55.5779 81.7123 55.4079 81.7273V81.7223Z" fill="black"/>
<path d="M60.3629 83.1523L60.4304 83.4823C60.2879 83.6348 60.1329 83.7648 59.9629 83.8723C59.7929 83.9773 59.6154 84.0523 59.4354 84.0923C59.1479 84.1573 58.8779 84.1498 58.6254 84.0773C58.3729 84.0023 58.1604 83.8648 57.9829 83.6573C57.8079 83.4523 57.6829 83.1923 57.6129 82.8748C57.5479 82.5798 57.5454 82.3048 57.6029 82.0473C57.6604 81.7898 57.7854 81.5698 57.9729 81.3873C58.1604 81.2048 58.4054 81.0823 58.7079 81.0148C58.8779 80.9773 59.0454 80.9698 59.2129 80.9948C59.3804 81.0173 59.5354 81.0748 59.6779 81.1623C59.8204 81.2498 59.9454 81.3748 60.0529 81.5348C60.1604 81.6973 60.2429 81.8948 60.2929 82.1323C60.3004 82.1598 60.3054 82.1848 60.3079 82.2048C60.3104 82.2248 60.3154 82.2473 60.3179 82.2723C59.8904 82.3523 59.4654 82.4423 59.0429 82.5348L58.1579 82.7298C58.1579 82.7598 58.1679 82.8048 58.1804 82.8623C58.2154 83.0198 58.2729 83.1673 58.3504 83.2973C58.4279 83.4298 58.5279 83.5398 58.6454 83.6273C58.7629 83.7148 58.9004 83.7748 59.0504 83.8048C59.2004 83.8348 59.3604 83.8298 59.5279 83.7923C59.8454 83.7223 60.1229 83.5098 60.3604 83.1523H60.3629ZM58.1079 82.4948L59.7754 82.1273C59.6954 81.8073 59.5754 81.5573 59.4154 81.3798C59.2554 81.2023 59.0329 81.1448 58.7529 81.2073C58.5679 81.2498 58.4229 81.3348 58.3179 81.4673C58.2129 81.5973 58.1454 81.7548 58.1129 81.9373C58.0804 82.1198 58.0804 82.3073 58.1104 82.4973L58.1079 82.4948Z" fill="black"/>
<path d="M61.6104 83.4623L60.6604 80.5423C60.7129 80.5298 60.7629 80.5173 60.8054 80.5073C60.8479 80.4973 60.8854 80.4873 60.9129 80.4798C60.9379 80.4723 60.9704 80.4573 61.0104 80.4423C61.0504 80.4248 61.0979 80.4048 61.1504 80.3823L61.3504 80.9948L61.3554 80.9098C61.4729 80.4498 61.6654 80.1748 61.9379 80.0873C62.0179 80.0623 62.0829 80.0498 62.1354 80.0548L62.2179 80.5948C62.1979 80.5948 62.1504 80.5948 62.0754 80.5823C62.0004 80.5698 61.9404 80.5748 61.8954 80.5898C61.8229 80.6123 61.7554 80.6498 61.6929 80.6973C61.6304 80.7473 61.5829 80.8048 61.5554 80.8698C61.4954 81.0148 61.4679 81.1448 61.4779 81.2598C61.4879 81.3748 61.5229 81.5273 61.5854 81.7173L62.1004 83.2973C62.0604 83.3073 62.0254 83.3148 61.9979 83.3198C61.9704 83.3273 61.9479 83.3323 61.9279 83.3348C61.9104 83.3373 61.8829 83.3473 61.8504 83.3573C61.8129 83.3698 61.7879 83.3773 61.7779 83.3823C61.7679 83.3873 61.7454 83.3948 61.7129 83.4098C61.6804 83.4223 61.6454 83.4373 61.6129 83.4548L61.6104 83.4623Z" fill="black"/>
<path d="M63.8629 82.6998L62.6479 79.8798C62.7004 79.8623 62.7454 79.8473 62.7879 79.8323C62.8304 79.8198 62.8654 79.8073 62.8904 79.7948C62.9154 79.7823 62.9479 79.7673 62.9854 79.7473C63.0229 79.7273 63.0679 79.7023 63.1204 79.6748L63.3529 80.2123C63.4054 79.7373 63.6379 79.4098 64.0529 79.2298C64.3929 79.0823 64.6754 79.0723 64.9029 79.1923C65.1304 79.3148 65.3279 79.5723 65.4979 79.9698L66.2329 81.6748C66.1929 81.6873 66.1604 81.6973 66.1329 81.7073C66.1054 81.7173 66.0829 81.7248 66.0679 81.7298C66.0504 81.7348 66.0254 81.7448 65.9904 81.7598C65.9529 81.7748 65.9279 81.7873 65.9104 81.7973C65.8929 81.8073 65.8729 81.8173 65.8479 81.8323C65.8229 81.8448 65.7929 81.8623 65.7604 81.8798L65.0829 80.3098C64.9954 80.1073 64.9054 79.9448 64.8079 79.8173C64.7129 79.6898 64.5979 79.6048 64.4654 79.5648C64.3329 79.5223 64.1804 79.5398 64.0054 79.6148C63.7154 79.7398 63.5579 79.9248 63.5279 80.1698C63.5004 80.4148 63.5729 80.7348 63.7429 81.1298L64.3329 82.4973C64.2929 82.5098 64.2604 82.5198 64.2329 82.5298C64.2054 82.5398 64.1829 82.5473 64.1654 82.5523C64.1479 82.5573 64.1204 82.5673 64.0879 82.5823C64.0504 82.5973 64.0279 82.6073 64.0179 82.6148C64.0079 82.6198 63.9879 82.6323 63.9554 82.6498C63.9229 82.6673 63.8904 82.6848 63.8579 82.7023L63.8629 82.6998Z" fill="black"/>
<path d="M68.2729 78.2948L68.9904 79.5998C69.0304 79.6723 69.0629 79.7273 69.0879 79.7598C69.1129 79.7923 69.1429 79.8148 69.1754 79.8248C69.2104 79.8348 69.2504 79.8248 69.2979 79.7998C69.3379 79.7773 69.3879 79.7398 69.4479 79.6848L69.5154 79.8098C69.4679 79.8748 69.4204 79.9248 69.3779 79.9598C69.3229 80.0048 69.2679 80.0423 69.2079 80.0748C69.0954 80.1323 68.9879 80.1548 68.8879 80.1423C68.7879 80.1298 68.6979 80.0648 68.6179 79.9523L68.5979 80.0323C68.4929 80.3973 68.2804 80.6698 67.9604 80.8448C67.7554 80.9573 67.5429 80.9898 67.3254 80.9448C67.1079 80.8973 66.9429 80.7723 66.8329 80.5723C66.7229 80.3748 66.6854 80.1948 66.7204 80.0323C66.7554 79.8698 66.8279 79.7298 66.9429 79.6123C67.0554 79.4923 67.2179 79.3523 67.4304 79.1898C67.5904 79.0648 67.7029 78.9698 67.7654 78.9048C67.8279 78.8423 67.8654 78.7773 67.8779 78.7148C67.8904 78.6523 67.8704 78.5748 67.8204 78.4848C67.7054 78.2748 67.5579 78.1423 67.3804 78.0898C67.2029 78.0373 67.0104 78.0698 66.8004 78.1848C66.6779 78.2523 66.5804 78.3348 66.5054 78.4323C66.4329 78.5298 66.3829 78.6248 66.3604 78.7148C66.3354 78.8048 66.3304 78.8823 66.3404 78.9423L66.2779 78.9773L66.1054 78.6648C66.2929 78.2923 66.5379 78.0223 66.8429 77.8548C67.1404 77.6898 67.4104 77.6448 67.6529 77.7173C67.8929 77.7898 68.1004 77.9823 68.2754 78.2973L68.2729 78.2948ZM68.4804 79.7423L68.0279 78.9198L67.8529 79.0698C67.7404 79.1598 67.6379 79.2448 67.5454 79.3248C67.4529 79.4048 67.3729 79.4898 67.3029 79.5823C67.2329 79.6748 67.1904 79.7748 67.1729 79.8873C67.1554 79.9998 67.1804 80.1148 67.2479 80.2373C67.3454 80.4123 67.4654 80.5198 67.6104 80.5548C67.7554 80.5898 67.9154 80.5598 68.0929 80.4648C68.1629 80.4273 68.2279 80.3623 68.2929 80.2698C68.3579 80.1773 68.4004 80.0898 68.4254 80.0048C68.4329 79.9773 68.4429 79.9473 68.4529 79.9148C68.4629 79.8823 68.4729 79.8498 68.4779 79.8123C68.4829 79.7773 68.4829 79.7548 68.4779 79.7448L68.4804 79.7423Z" fill="black"/>
<path d="M42.7429 32.4697C42.7429 32.4697 41.9704 26.6497 39.2304 25.3122C39.2304 25.3122 53.5729 15.6097 68.4054 25.3122C68.4054 25.3122 64.4904 28.9347 64.6554 31.9747L42.7429 32.4697Z" fill="url(#paint23_linear_801_7061)" stroke="#A3822E" stroke-width="0.075" stroke-miterlimit="10"/>
<path d="M46.7254 28.7447L45.7379 23.8047L47.1579 23.5197C47.5204 23.4472 47.8279 23.4197 48.0779 23.4347C48.3279 23.4522 48.5279 23.5222 48.6779 23.6447C48.8279 23.7672 48.9279 23.9522 48.9754 24.1972C49.0079 24.3622 49.0104 24.5197 48.9804 24.6697C48.9504 24.8197 48.8954 24.9597 48.8129 25.0922C48.7304 25.2247 48.6279 25.3397 48.5054 25.4422C48.3829 25.5422 48.2404 25.6322 48.0829 25.7097C48.2354 25.6872 48.3954 25.6822 48.5604 25.6947C48.7254 25.7072 48.8829 25.7447 49.0279 25.8047C49.1754 25.8647 49.3054 25.9597 49.4154 26.0872C49.5254 26.2147 49.6004 26.3797 49.6429 26.5822C49.7454 27.0972 49.6104 27.5497 49.2354 27.9372C49.1254 28.0472 48.9904 28.1422 48.8279 28.2197C48.6679 28.2997 48.5054 28.3597 48.3454 28.4022C48.1829 28.4447 47.9904 28.4872 47.7604 28.5347L46.7279 28.7422L46.7254 28.7447ZM46.4279 23.9472L46.8104 25.8622L47.1079 25.8022C47.2979 25.7647 47.4629 25.7197 47.5979 25.6722C47.7329 25.6247 47.8654 25.5572 47.9879 25.4672C48.1479 25.3472 48.2604 25.2022 48.3279 25.0322C48.3929 24.8622 48.4079 24.6772 48.3679 24.4797C48.3229 24.2597 48.2404 24.0947 48.1179 23.9822C47.9954 23.8697 47.8379 23.8047 47.6479 23.7872C47.4579 23.7697 47.2279 23.7872 46.9604 23.8422L46.4279 23.9497V23.9472ZM46.8654 26.1322L47.3079 28.3497L47.9954 28.2122C48.2354 28.1647 48.4354 28.0747 48.6004 27.9422C48.7654 27.8097 48.8829 27.6472 48.9504 27.4547C49.0179 27.2622 49.0304 27.0597 48.9879 26.8472C48.9079 26.4447 48.7204 26.1897 48.4279 26.0772C48.1329 25.9672 47.7454 25.9572 47.2654 26.0547L46.8604 26.1347L46.8654 26.1322Z" fill="black"/>
<path d="M53.2279 25.5773L53.3204 27.2898C53.3254 27.3873 53.3329 27.4573 53.3404 27.5048C53.3479 27.5523 53.3679 27.5873 53.3979 27.6148C53.4279 27.6423 53.4754 27.6548 53.5379 27.6498C53.5904 27.6473 53.6629 27.6323 53.7529 27.6048L53.7604 27.7673C53.6779 27.8098 53.6054 27.8398 53.5404 27.8548C53.4629 27.8723 53.3829 27.8848 53.3079 27.8898C53.1604 27.8923 53.0404 27.8623 52.9429 27.7998C52.8479 27.7373 52.7854 27.6248 52.7579 27.4673L52.6954 27.5398C52.4029 27.8648 52.0454 28.0398 51.6279 28.0623C51.3579 28.0773 51.1229 28.0048 50.9204 27.8473C50.7179 27.6898 50.6104 27.4773 50.5954 27.2123C50.5829 26.9523 50.6329 26.7473 50.7479 26.5973C50.8629 26.4473 51.0104 26.3373 51.1879 26.2723C51.3654 26.2073 51.6029 26.1398 51.9029 26.0773C52.1304 26.0273 52.2954 25.9848 52.3904 25.9498C52.4879 25.9148 52.5579 25.8673 52.6004 25.8073C52.6454 25.7473 52.6629 25.6573 52.6579 25.5398C52.6429 25.2623 52.5554 25.0548 52.3979 24.9123C52.2404 24.7698 52.0229 24.7073 51.7504 24.7223C51.5879 24.7298 51.4454 24.7673 51.3229 24.8323C51.1979 24.8973 51.1004 24.9698 51.0304 25.0523C50.9604 25.1348 50.9154 25.2098 50.8979 25.2773L50.8154 25.2823L50.7929 24.8723C51.1754 24.5798 51.5654 24.4223 51.9604 24.4023C52.3504 24.3823 52.6554 24.4698 52.8679 24.6648C53.0829 24.8598 53.2004 25.1648 53.2229 25.5798L53.2279 25.5773ZM52.7204 27.1798L52.6629 26.1023L52.4054 26.1698C52.2429 26.2073 52.0954 26.2448 51.9604 26.2823C51.8254 26.3198 51.6979 26.3673 51.5804 26.4273C51.4629 26.4873 51.3679 26.5698 51.2929 26.6773C51.2204 26.7848 51.1854 26.9173 51.1954 27.0773C51.2079 27.3073 51.2804 27.4773 51.4129 27.5873C51.5454 27.6973 51.7279 27.7473 51.9579 27.7348C52.0504 27.7298 52.1504 27.6948 52.2629 27.6323C52.3754 27.5698 52.4654 27.4998 52.5354 27.4223C52.5579 27.3973 52.5829 27.3698 52.6104 27.3423C52.6379 27.3148 52.6629 27.2848 52.6854 27.2498C52.7079 27.2173 52.7204 27.1948 52.7204 27.1823V27.1798Z" fill="black"/>
<path d="M54.3954 27.9048L54.6754 24.3823C54.7379 24.3923 54.7929 24.4023 54.8429 24.4098C54.8929 24.4173 54.9354 24.4248 54.9679 24.4273C54.9979 24.4273 55.0404 24.4298 55.0879 24.4273C55.1379 24.4273 55.1954 24.4273 55.2629 24.4273L55.2079 25.0998C55.5179 24.6448 55.9304 24.4373 56.4504 24.4773C56.8754 24.5123 57.1704 24.6498 57.3354 24.8973C57.5004 25.1423 57.5629 25.5123 57.5229 26.0073L57.3529 28.1373C57.3054 28.1298 57.2654 28.1223 57.2329 28.1173C57.2004 28.1123 57.1754 28.1073 57.1554 28.1048C57.1354 28.1023 57.1029 28.0973 57.0604 28.0948C57.0154 28.0923 56.9804 28.0898 56.9604 28.0898C56.9404 28.0898 56.9104 28.0898 56.8779 28.0898C56.8454 28.0898 56.8079 28.0898 56.7629 28.0898L56.9204 26.1298C56.9404 25.8773 56.9354 25.6623 56.9079 25.4798C56.8804 25.2973 56.8079 25.1523 56.6954 25.0373C56.5829 24.9223 56.4179 24.8573 56.2029 24.8398C55.8404 24.8098 55.5804 24.9123 55.4204 25.1473C55.2604 25.3823 55.1604 25.7448 55.1204 26.2398L54.9854 27.9498C54.9379 27.9423 54.8979 27.9348 54.8654 27.9298C54.8329 27.9248 54.8079 27.9198 54.7854 27.9173C54.7629 27.9148 54.7329 27.9098 54.6929 27.9073C54.6479 27.9048 54.6179 27.9023 54.6054 27.9023C54.5929 27.9023 54.5654 27.9023 54.5229 27.9023C54.4804 27.9023 54.4404 27.9023 54.3954 27.9023V27.9048Z" fill="black"/>
<path d="M60.0729 22.9947L59.3754 26.2347C59.3554 26.3322 59.3429 26.3922 59.3429 26.4197C59.3429 26.4472 59.3479 26.4672 59.3604 26.4797C59.4954 26.5072 59.7354 26.4122 60.0804 26.1872L60.6254 25.8297L61.3229 25.3297C61.3829 25.3472 61.4379 25.3647 61.4854 25.3797C61.5329 25.3947 61.5754 25.4072 61.6079 25.4122C61.6329 25.4172 61.6704 25.4222 61.7204 25.4297C61.7704 25.4347 61.8279 25.4422 61.8954 25.4522L61.8829 25.5047C61.7929 25.5572 61.7154 25.5997 61.6454 25.6347C61.5779 25.6697 61.4229 25.7497 61.1829 25.8772C60.9429 26.0047 60.7054 26.1372 60.4754 26.2697C60.2454 26.4022 60.0829 26.4972 59.9904 26.5547C60.0479 26.6597 60.1279 26.8022 60.2279 26.9872C60.3279 27.1722 60.4429 27.3872 60.5754 27.6322C60.7079 27.8772 60.8304 28.0997 60.9404 28.3022C61.0504 28.5047 61.1579 28.6997 61.2629 28.8922L61.2554 28.9272C61.1954 28.9097 61.1479 28.8947 61.1104 28.8847C61.0754 28.8747 61.0454 28.8647 61.0179 28.8572C60.9929 28.8497 60.9554 28.8397 60.9054 28.8297C60.8504 28.8172 60.8129 28.8097 60.7954 28.8072C60.7779 28.8047 60.7454 28.7997 60.6954 28.7922C60.6454 28.7847 60.5929 28.7772 60.5404 28.7722C60.4629 28.6047 60.3329 28.3522 60.1479 28.0122C59.9629 27.6722 59.7504 27.2847 59.5079 26.8472C59.4554 26.7572 59.4079 26.7072 59.3654 26.6972C59.3054 26.6847 59.2554 26.7647 59.2154 26.9422L58.8979 28.4172C58.8504 28.4022 58.8129 28.3897 58.7829 28.3822C58.7529 28.3722 58.7254 28.3647 58.7054 28.3572C58.6854 28.3497 58.6529 28.3422 58.6154 28.3347C58.5704 28.3247 58.5429 28.3197 58.5279 28.3172C58.5154 28.3172 58.4879 28.3122 58.4479 28.3072C58.4079 28.3022 58.3654 28.2972 58.3229 28.2922L59.4929 22.8622C59.5529 22.8797 59.6079 22.8972 59.6554 22.9122C59.7029 22.9272 59.7454 22.9397 59.7779 22.9447C59.8079 22.9522 59.8479 22.9572 59.8979 22.9622C59.9479 22.9672 60.0054 22.9747 60.0729 22.9847V22.9947Z" fill="black"/>
<path d="M53.8179 78.8122C67.4262 78.8122 78.4579 67.7805 78.4579 54.1722C78.4579 40.5639 67.4262 29.5322 53.8179 29.5322C40.2096 29.5322 29.1779 40.5639 29.1779 54.1722C29.1779 67.7805 40.2096 78.8122 53.8179 78.8122Z" fill="url(#paint24_linear_801_7061)" stroke="#A3822E" stroke-width="0.075" stroke-miterlimit="10"/>
<path d="M54.1854 72.4447C64.694 72.4447 73.2129 63.9258 73.2129 53.4172C73.2129 42.9086 64.694 34.3897 54.1854 34.3897C43.6768 34.3897 35.1579 42.9086 35.1579 53.4172C35.1579 63.9258 43.6768 72.4447 54.1854 72.4447Z" fill="white"/>
<path d="M54.1854 73.0797C43.3429 73.0797 34.5254 64.2597 34.5254 53.4197C34.5254 42.5797 43.3429 33.7572 54.1854 33.7572C65.0279 33.7572 73.8454 42.5772 73.8454 53.4172C73.8454 64.2572 65.0254 73.0772 54.1854 73.0772V73.0797ZM54.1854 35.0222C44.0429 35.0222 35.7904 43.2747 35.7904 53.4172C35.7904 63.5597 44.0429 71.8122 54.1854 71.8122C64.3279 71.8122 72.5804 63.5597 72.5804 53.4172C72.5804 43.2747 64.3279 35.0222 54.1854 35.0222Z" fill="black"/>
<path d="M54.1829 36.5447C44.8704 36.5447 37.3154 44.0997 37.3154 53.4197C37.3154 62.7397 44.8704 70.2947 54.1829 70.2947C63.4954 70.2947 71.0579 62.7397 71.0579 53.4197C71.0579 44.0997 63.5029 36.5447 54.1829 36.5447ZM53.6054 63.5897H54.0379C53.8879 63.7697 53.7904 63.8672 53.7904 63.8672C53.7229 63.7772 53.6679 63.6822 53.6054 63.5897Z" fill="#FF0000"/>
<path d="M66.4829 45.3847C58.1504 42.4672 53.8279 47.6697 53.8279 47.6697C47.1154 42.1522 40.6804 46.1947 40.6804 46.1947C42.5479 54.8072 49.1204 55.7222 49.1204 55.7222C47.0779 62.3972 53.8279 67.8822 53.8279 67.8822C59.5229 64.6497 59.2754 55.4747 59.2754 55.4747C65.8879 53.0447 66.4829 45.3822 66.4829 45.3822V45.3847ZM53.6329 51.4522C54.0879 50.8322 55.5304 53.7872 55.2529 54.0647C54.9754 54.3497 52.5629 54.4697 52.3554 53.9072C52.1404 53.3497 53.6329 51.4522 53.6329 51.4522ZM49.8554 53.0847C45.4254 51.9272 44.2304 47.9347 44.2304 47.9347C49.2804 47.1822 51.9804 49.6747 51.9804 49.6747C49.8554 50.9397 49.8554 53.0847 49.8554 53.0847ZM53.6454 63.5297C51.2854 60.3022 51.5454 56.2797 51.5454 56.2797C53.5129 56.8422 56.0179 56.2797 56.0179 56.2797C56.5679 60.6022 53.6454 63.5297 53.6454 63.5297ZM58.2379 53.0847C57.7329 51.4322 55.7254 49.5172 55.7254 49.5172C59.0654 46.7197 63.1104 47.5997 63.1104 47.5997C61.6679 51.3272 58.2379 53.0847 58.2379 53.0847Z" fill="white" stroke="black" stroke-width="0.125" stroke-miterlimit="10"/>
<path d="M46.4829 75.4422L46.5154 75.4572C46.5304 75.5647 46.5679 75.6672 46.6254 75.7622C46.6854 75.8572 46.7579 75.9222 46.8479 75.9622C46.9129 75.9922 46.9854 76.0047 47.0579 75.9997C47.1329 75.9947 47.2029 75.9722 47.2654 75.9322C47.3279 75.8922 47.3754 75.8397 47.4054 75.7697C47.4579 75.6497 47.4579 75.5497 47.4054 75.4722C47.3504 75.3947 47.2529 75.2947 47.1104 75.1747C46.9679 75.0547 46.8704 74.9447 46.8204 74.8422C46.7704 74.7397 46.7804 74.6097 46.8479 74.4522C46.9304 74.2672 47.0579 74.1472 47.2279 74.0972C47.3979 74.0472 47.5804 74.0622 47.7704 74.1472C47.8629 74.1872 47.9454 74.2397 48.0229 74.2997C48.1004 74.3597 48.1529 74.4122 48.1804 74.4547C48.1054 74.5222 48.0304 74.6022 47.9554 74.6972L47.9204 74.6822C47.9204 74.6322 47.9154 74.5772 47.8979 74.5172C47.8804 74.4572 47.8554 74.4072 47.8229 74.3622C47.7904 74.3172 47.7479 74.2847 47.6979 74.2622C47.5929 74.2172 47.4929 74.2072 47.3979 74.2347C47.3029 74.2622 47.2304 74.3297 47.1854 74.4347C47.1354 74.5472 47.1354 74.6447 47.1879 74.7247C47.2404 74.8022 47.3354 74.9047 47.4729 75.0272C47.6104 75.1497 47.7054 75.2622 47.7604 75.3672C47.8154 75.4722 47.8079 75.5972 47.7454 75.7422C47.6854 75.8772 47.5979 75.9772 47.4829 76.0422C47.3679 76.1072 47.2429 76.1397 47.1054 76.1347C46.9704 76.1322 46.8404 76.1047 46.7204 76.0497C46.5304 75.9647 46.3804 75.8497 46.2729 75.6997C46.3904 75.5697 46.4604 75.4847 46.4879 75.4422H46.4829Z" fill="black"/>
<path d="M49.9954 75.6597L49.7229 76.6422C49.7079 76.6972 49.6979 76.7397 49.6929 76.7672C49.6879 76.7947 49.6929 76.8197 49.7054 76.8397C49.7179 76.8597 49.7404 76.8772 49.7779 76.8872C49.8079 76.8947 49.8504 76.8997 49.9079 76.9022L49.8829 76.9947C49.8279 77.0022 49.7829 77.0047 49.7429 77.0022C49.6954 76.9972 49.6504 76.9897 49.6054 76.9772C49.5229 76.9522 49.4579 76.9097 49.4179 76.8572C49.3754 76.8022 49.3604 76.7297 49.3754 76.6347L49.3279 76.6647C49.1004 76.7922 48.8679 76.8247 48.6254 76.7572C48.4704 76.7147 48.3504 76.6297 48.2679 76.5022C48.1829 76.3747 48.1629 76.2347 48.2054 76.0847C48.2479 75.9347 48.3129 75.8297 48.4079 75.7672C48.5029 75.7047 48.6054 75.6697 48.7179 75.6672C48.8304 75.6647 48.9779 75.6722 49.1579 75.6922C49.2979 75.7072 49.3954 75.7147 49.4579 75.7122C49.5204 75.7097 49.5679 75.6972 49.6029 75.6722C49.6404 75.6472 49.6654 75.5997 49.6854 75.5322C49.7304 75.3747 49.7204 75.2397 49.6579 75.1297C49.5954 75.0197 49.4854 74.9422 49.3279 74.8997C49.2354 74.8747 49.1479 74.8672 49.0654 74.8797C48.9829 74.8922 48.9129 74.9147 48.8604 74.9497C48.8054 74.9822 48.7654 75.0172 48.7429 75.0522L48.6954 75.0397L48.7604 74.8047C49.0304 74.7122 49.2804 74.6972 49.5079 74.7597C49.7329 74.8222 49.8879 74.9297 49.9704 75.0797C50.0529 75.2297 50.0629 75.4247 49.9979 75.6622L49.9954 75.6597ZM49.4054 76.4672L49.5779 75.8472L49.4204 75.8372C49.3204 75.8272 49.2304 75.8222 49.1479 75.8172C49.0654 75.8122 48.9829 75.8172 48.9079 75.8272C48.8304 75.8397 48.7604 75.8672 48.6979 75.9147C48.6354 75.9622 48.5929 76.0297 48.5654 76.1222C48.5279 76.2547 48.5379 76.3647 48.5904 76.4522C48.6429 76.5397 48.7379 76.6022 48.8704 76.6372C48.9229 76.6522 48.9854 76.6522 49.0629 76.6372C49.1404 76.6222 49.2029 76.5997 49.2554 76.5697C49.2729 76.5597 49.2929 76.5497 49.3129 76.5397C49.3329 76.5297 49.3554 76.5172 49.3729 76.5022C49.3929 76.4872 49.4029 76.4772 49.4054 76.4697V76.4672Z" fill="black"/>
<path d="M50.5954 77.2022L50.9979 73.9222C51.0354 73.9297 51.0679 73.9372 51.0979 73.9422C51.1279 73.9497 51.1529 73.9547 51.1729 73.9547C51.1929 73.9547 51.2154 73.9572 51.2454 73.9597C51.2754 73.9597 51.3104 73.9597 51.3504 73.9647L51.1554 75.5547C51.3504 75.2922 51.6029 75.1797 51.9104 75.2172C52.1579 75.2472 52.3304 75.3397 52.4229 75.4947C52.5154 75.6497 52.5454 75.8697 52.5104 76.1547L52.3554 77.4172C52.3279 77.4097 52.3054 77.4047 52.2854 77.4022C52.2654 77.3972 52.2504 77.3947 52.2404 77.3922C52.2304 77.3897 52.2104 77.3872 52.1829 77.3822C52.1554 77.3797 52.1354 77.3772 52.1229 77.3772C52.1104 77.3772 52.0929 77.3772 52.0754 77.3772C52.0554 77.3772 52.0329 77.3772 52.0079 77.3772L52.1504 76.2147C52.1804 75.9622 52.1679 75.7722 52.1104 75.6497C52.0529 75.5247 51.9354 75.4522 51.7554 75.4297C51.3729 75.3822 51.1554 75.5922 51.0979 76.0597L50.9529 77.2472C50.9254 77.2397 50.9029 77.2347 50.8829 77.2322C50.8629 77.2297 50.8479 77.2247 50.8354 77.2222C50.8229 77.2197 50.8054 77.2172 50.7804 77.2122C50.7529 77.2097 50.7354 77.2072 50.7279 77.2072C50.7204 77.2072 50.7029 77.2072 50.6804 77.2072C50.6554 77.2072 50.6304 77.2072 50.6054 77.2072L50.5954 77.2022Z" fill="black"/>
<path d="M54.7429 76.0472L54.7579 77.0672C54.7579 77.1247 54.7604 77.1672 54.7654 77.1947C54.7679 77.2222 54.7804 77.2447 54.7979 77.2622C54.8154 77.2797 54.8429 77.2872 54.8804 77.2872C54.9129 77.2872 54.9554 77.2797 55.0079 77.2672V77.3647C54.9604 77.3872 54.9154 77.4047 54.8779 77.4122C54.8304 77.4222 54.7829 77.4272 54.7379 77.4272C54.6504 77.4272 54.5804 77.4047 54.5229 77.3647C54.4679 77.3247 54.4329 77.2572 54.4204 77.1622L54.3829 77.2047C54.2004 77.3922 53.9854 77.4872 53.7354 77.4897C53.5754 77.4922 53.4354 77.4447 53.3204 77.3447C53.2029 77.2472 53.1429 77.1172 53.1429 76.9597C53.1429 76.8047 53.1754 76.6847 53.2479 76.5972C53.3204 76.5097 53.4104 76.4497 53.5179 76.4122C53.6254 76.3772 53.7679 76.3447 53.9479 76.3122C54.0854 76.2872 54.1829 76.2672 54.2404 76.2472C54.2979 76.2297 54.3429 76.2022 54.3704 76.1672C54.3979 76.1322 54.4104 76.0797 54.4104 76.0097C54.4104 75.8447 54.3604 75.7197 54.2704 75.6297C54.1804 75.5397 54.0529 75.4997 53.8879 75.5022C53.7929 75.5022 53.7079 75.5222 53.6304 75.5572C53.5529 75.5922 53.4954 75.6347 53.4529 75.6822C53.4079 75.7297 53.3804 75.7722 53.3679 75.8122H53.3179L53.3154 75.5672C53.5504 75.4022 53.7854 75.3172 54.0204 75.3147C54.2529 75.3122 54.4329 75.3697 54.5554 75.4922C54.6779 75.6147 54.7404 75.7972 54.7454 76.0447L54.7429 76.0472ZM54.4029 76.9897L54.3929 76.3472L54.2379 76.3822C54.1404 76.4022 54.0504 76.4197 53.9704 76.4397C53.8879 76.4572 53.8129 76.4847 53.7404 76.5172C53.6704 76.5497 53.6104 76.5972 53.5629 76.6597C53.5179 76.7222 53.4954 76.7997 53.4954 76.8947C53.4954 77.0322 53.5379 77.1347 53.6129 77.2022C53.6904 77.2697 53.7954 77.3047 53.9329 77.3022C53.9879 77.3022 54.0479 77.2822 54.1179 77.2472C54.1854 77.2122 54.2404 77.1722 54.2829 77.1297C54.2979 77.1147 54.3129 77.0997 54.3304 77.0847C54.3479 77.0697 54.3629 77.0522 54.3779 77.0322C54.3929 77.0122 54.4004 76.9997 54.4004 76.9922L54.4029 76.9897Z" fill="black"/>
<path d="M55.6529 77.3673L55.1954 74.1073C55.2329 74.1073 55.2654 74.1023 55.2954 74.1023C55.3254 74.1023 55.3504 74.0998 55.3704 74.0948C55.3879 74.0923 55.4129 74.0873 55.4404 74.0798C55.4704 74.0723 55.5029 74.0648 55.5429 74.0573L55.7704 75.6698C55.8454 75.5148 55.9404 75.3898 56.0504 75.2923C56.1629 75.1948 56.3004 75.1373 56.4604 75.1148C56.6554 75.0873 56.8254 75.1148 56.9729 75.1923C57.1179 75.2698 57.2354 75.3823 57.3204 75.5298C57.4054 75.6773 57.4604 75.8323 57.4829 76.0023C57.5029 76.1498 57.5029 76.2948 57.4779 76.4373C57.4529 76.5773 57.4054 76.7073 57.3354 76.8248C57.2654 76.9423 57.1729 77.0423 57.0604 77.1223C56.9454 77.2023 56.8129 77.2523 56.6579 77.2748C56.3854 77.3123 56.1629 77.2398 55.9954 77.0523C55.9654 77.0823 55.9279 77.1223 55.8854 77.1748C55.8429 77.2273 55.7929 77.2873 55.7354 77.3548L55.6529 77.3648V77.3673ZM56.3779 75.3148C56.1479 75.3473 55.9954 75.4673 55.9204 75.6773C55.8454 75.8873 55.8279 76.1373 55.8704 76.4298C55.8929 76.5823 55.9354 76.7173 56.0029 76.8323C56.0679 76.9473 56.1529 77.0323 56.2554 77.0873C56.3579 77.1423 56.4704 77.1598 56.5954 77.1423C56.7129 77.1248 56.8079 77.0823 56.8829 77.0098C56.9579 76.9373 57.0154 76.8473 57.0529 76.7398C57.0904 76.6323 57.1129 76.5248 57.1204 76.4123C57.1279 76.3023 57.1204 76.1873 57.1054 76.0748C57.0829 75.9098 57.0404 75.7673 56.9804 75.6473C56.9204 75.5273 56.8404 75.4373 56.7404 75.3773C56.6404 75.3173 56.5204 75.2948 56.3829 75.3148H56.3779Z" fill="black"/>
<path d="M59.4104 75.2273L59.6654 76.2148C59.6804 76.2698 59.6929 76.3123 59.7029 76.3373C59.7129 76.3623 59.7279 76.3823 59.7504 76.3948C59.7704 76.4073 59.8004 76.4073 59.8354 76.3998C59.8654 76.3923 59.9054 76.3748 59.9554 76.3473L59.9804 76.4398C59.9379 76.4748 59.8979 76.4998 59.8629 76.5173C59.8204 76.5373 59.7754 76.5548 59.7304 76.5648C59.6454 76.5848 59.5704 76.5823 59.5079 76.5548C59.4429 76.5298 59.3954 76.4723 59.3604 76.3823L59.3329 76.4323C59.2004 76.6573 59.0129 76.8023 58.7729 76.8648C58.6179 76.9048 58.4729 76.8923 58.3354 76.8223C58.1979 76.7548 58.1104 76.6448 58.0704 76.4923C58.0329 76.3423 58.0379 76.2173 58.0879 76.1148C58.1379 76.0123 58.2104 75.9323 58.3054 75.8723C58.4004 75.8123 58.5329 75.7473 58.7004 75.6723C58.8279 75.6148 58.9179 75.5723 58.9704 75.5398C59.0229 75.5098 59.0579 75.4723 59.0779 75.4323C59.0954 75.3923 59.0954 75.3373 59.0779 75.2698C59.0354 75.1098 58.9604 74.9973 58.8529 74.9348C58.7429 74.8698 58.6104 74.8598 58.4529 74.8998C58.3604 74.9248 58.2804 74.9623 58.2154 75.0148C58.1504 75.0673 58.1029 75.1223 58.0704 75.1773C58.0404 75.2348 58.0229 75.2823 58.0204 75.3248L57.9729 75.3373L57.9104 75.0998C58.0979 74.8848 58.3079 74.7473 58.5354 74.6873C58.7604 74.6273 58.9479 74.6448 59.0979 74.7323C59.2454 74.8223 59.3504 74.9848 59.4129 75.2223L59.4104 75.2273ZM59.3054 76.2223L59.1429 75.5998L59.0004 75.6698C58.9104 75.7098 58.8279 75.7498 58.7529 75.7873C58.6779 75.8248 58.6104 75.8673 58.5479 75.9173C58.4854 75.9648 58.4404 76.0248 58.4104 76.0973C58.3804 76.1698 58.3754 76.2498 58.4004 76.3423C58.4354 76.4748 58.4979 76.5648 58.5879 76.6148C58.6779 76.6623 58.7904 76.6698 58.9229 76.6348C58.9754 76.6198 59.0304 76.5898 59.0879 76.5373C59.1454 76.4873 59.1904 76.4348 59.2204 76.3823C59.2304 76.3648 59.2429 76.3473 59.2554 76.3273C59.2679 76.3073 59.2804 76.2873 59.2904 76.2648C59.3004 76.2423 59.3029 76.2273 59.3029 76.2198L59.3054 76.2223Z" fill="black"/>
<path d="M59.7304 73.9147L60.0204 73.6722L60.2054 74.2122L60.6454 74.0622C60.6529 74.1047 60.6604 74.1347 60.6654 74.1497C60.6729 74.1722 60.6854 74.1972 60.7004 74.2222L60.2604 74.3722L60.6179 75.4172L60.6704 75.5672C60.7254 75.7272 60.7879 75.8472 60.8629 75.9272C60.9354 76.0097 61.0354 76.0272 61.1604 75.9847C61.1879 75.9747 61.2454 75.9447 61.3379 75.8922L61.3729 75.9922C61.2529 76.0897 61.1429 76.1547 61.0479 76.1872C60.9704 76.2147 60.9004 76.2272 60.8354 76.2272C60.7704 76.2272 60.7079 76.2097 60.6504 76.1722C60.5929 76.1347 60.5379 76.0797 60.4854 75.9997C60.4354 75.9197 60.3879 75.8197 60.3454 75.6947L59.9304 74.4822L59.6729 74.5697C59.6729 74.5497 59.6679 74.5197 59.6554 74.4872C59.6429 74.4497 59.6304 74.4247 59.6179 74.4122L59.8754 74.3247L59.7354 73.9122L59.7304 73.9147Z" fill="black"/>
<path d="M72.5804 73.6722C72.8179 73.7322 74.7204 73.4072 77.4479 71.9872C78.3104 71.5397 79.2529 70.9822 80.2529 70.2947" stroke="#A3822E" stroke-width="0.025" stroke-miterlimit="10"/>
<path d="M77.3229 67.4947C77.3229 67.4947 80.9779 65.1747 82.5604 62.2922" stroke="#A3822E" stroke-width="0.025" stroke-miterlimit="10"/>
<path d="M78.5979 60.9572C78.5979 60.9572 82.3529 58.6347 84.1604 54.1722" stroke="#A3822E" stroke-width="0.025" stroke-miterlimit="10"/>
<path d="M79.1879 53.4173C79.1879 53.4173 81.8229 51.1148 82.5604 46.3323" stroke="#A3822E" stroke-width="0.025" stroke-miterlimit="10"/>
<path d="M76.3854 41.1748L78.0254 35.2598" stroke="#A3822E" stroke-width="0.025" stroke-miterlimit="10"/>
<defs>
<linearGradient id="paint0_linear_801_7061" x1="28.6804" y1="42.2397" x2="24.3229" y2="47.4422" gradientUnits="userSpaceOnUse">
<stop stop-color="#F7E349"/>
<stop offset="1" stop-color="#A3822E"/>
</linearGradient>
<linearGradient id="paint1_linear_801_7061" x1="79.0479" y1="42.2397" x2="83.4054" y2="47.4422" gradientUnits="userSpaceOnUse">
<stop stop-color="#F7E349"/>
<stop offset="1" stop-color="#A3822E"/>
</linearGradient>
<linearGradient id="paint2_linear_801_7061" x1="34.3854" y1="34.7648" x2="29.1829" y2="35.1148" gradientUnits="userSpaceOnUse">
<stop stop-color="#F7E349"/>
<stop offset="1" stop-color="#A3822E"/>
</linearGradient>
<linearGradient id="paint3_linear_801_7061" x1="40.7854" y1="30.2648" x2="37.2004" y2="37.8573" gradientUnits="userSpaceOnUse">
<stop stop-color="#F7E349"/>
<stop offset="1" stop-color="#A3822E"/>
</linearGradient>
<linearGradient id="paint4_linear_801_7061" x1="44.5354" y1="32.8298" x2="33.1479" y2="32.8298" gradientUnits="userSpaceOnUse">
<stop stop-color="#F7E349"/>
<stop offset="1" stop-color="#A3822E"/>
</linearGradient>
<linearGradient id="paint5_linear_801_7061" x1="28.5304" y1="74.7747" x2="38.0904" y2="76.2497" gradientUnits="userSpaceOnUse">
<stop stop-color="#F7E349"/>
<stop offset="1" stop-color="#A3822E"/>
</linearGradient>
<linearGradient id="paint6_linear_801_7061" x1="32.5754" y1="69.4248" x2="30.7479" y2="77.5798" gradientUnits="userSpaceOnUse">
<stop stop-color="#F7E349"/>
<stop offset="1" stop-color="#A3822E"/>
</linearGradient>
<linearGradient id="paint7_linear_801_7061" x1="28.9754" y1="63.8323" x2="25.9529" y2="69.0348" gradientUnits="userSpaceOnUse">
<stop stop-color="#F7E349"/>
<stop offset="1" stop-color="#A3822E"/>
</linearGradient>
<linearGradient id="paint8_linear_801_7061" x1="32.1129" y1="66.2747" x2="40.4079" y2="74.8522" gradientUnits="userSpaceOnUse">
<stop stop-color="#F7E349"/>
<stop offset="1" stop-color="#A3822E"/>
</linearGradient>
<linearGradient id="paint9_linear_801_7061" x1="28.1829" y1="56.4347" x2="23.8254" y2="66.2772" gradientUnits="userSpaceOnUse">
<stop stop-color="#F7E349"/>
<stop offset="1" stop-color="#A3822E"/>
</linearGradient>
<linearGradient id="paint10_linear_801_7061" x1="28.6204" y1="48.7697" x2="22.0829" y2="56.7822" gradientUnits="userSpaceOnUse">
<stop stop-color="#F7E349"/>
<stop offset="1" stop-color="#A3822E"/>
</linearGradient>
<linearGradient id="paint11_linear_801_7061" x1="32.3729" y1="38.4348" x2="26.3979" y2="39.2773" gradientUnits="userSpaceOnUse">
<stop stop-color="#F7E349"/>
<stop offset="1" stop-color="#A3822E"/>
</linearGradient>
<linearGradient id="paint12_linear_801_7061" x1="73.3429" y1="34.7648" x2="78.5454" y2="35.1148" gradientUnits="userSpaceOnUse">
<stop stop-color="#F7E349"/>
<stop offset="1" stop-color="#A3822E"/>
</linearGradient>
<linearGradient id="paint13_linear_801_7061" x1="66.9429" y1="30.2648" x2="70.5279" y2="37.8573" gradientUnits="userSpaceOnUse">
<stop stop-color="#F7E349"/>
<stop offset="1" stop-color="#A3822E"/>
</linearGradient>
<linearGradient id="paint14_linear_801_7061" x1="63.1929" y1="32.8298" x2="74.5804" y2="32.8298" gradientUnits="userSpaceOnUse">
<stop stop-color="#F7E349"/>
<stop offset="1" stop-color="#A3822E"/>
</linearGradient>
<linearGradient id="paint15_linear_801_7061" x1="79.1979" y1="74.7747" x2="69.6379" y2="76.2497" gradientUnits="userSpaceOnUse">
<stop stop-color="#F7E349"/>
<stop offset="1" stop-color="#A3822E"/>
</linearGradient>
<linearGradient id="paint16_linear_801_7061" x1="75.1529" y1="69.4248" x2="76.9804" y2="77.5798" gradientUnits="userSpaceOnUse">
<stop stop-color="#F7E349"/>
<stop offset="1" stop-color="#A3822E"/>
</linearGradient>
<linearGradient id="paint17_linear_801_7061" x1="78.7529" y1="63.8323" x2="81.7754" y2="69.0348" gradientUnits="userSpaceOnUse">
<stop stop-color="#F7E349"/>
<stop offset="1" stop-color="#A3822E"/>
</linearGradient>
<linearGradient id="paint18_linear_801_7061" x1="75.6154" y1="66.2747" x2="67.3204" y2="74.8522" gradientUnits="userSpaceOnUse">
<stop stop-color="#F7E349"/>
<stop offset="1" stop-color="#A3822E"/>
</linearGradient>
<linearGradient id="paint19_linear_801_7061" x1="79.5454" y1="56.4347" x2="83.9029" y2="66.2772" gradientUnits="userSpaceOnUse">
<stop stop-color="#F7E349"/>
<stop offset="1" stop-color="#A3822E"/>
</linearGradient>
<linearGradient id="paint20_linear_801_7061" x1="79.1079" y1="48.7697" x2="85.6454" y2="56.7822" gradientUnits="userSpaceOnUse">
<stop stop-color="#F7E349"/>
<stop offset="1" stop-color="#A3822E"/>
</linearGradient>
<linearGradient id="paint21_linear_801_7061" x1="75.3554" y1="38.4348" x2="81.3304" y2="39.2773" gradientUnits="userSpaceOnUse">
<stop stop-color="#F7E349"/>
<stop offset="1" stop-color="#A3822E"/>
</linearGradient>
<linearGradient id="paint22_linear_801_7061" x1="53.8179" y1="71.8148" x2="53.8179" y2="86.7573" gradientUnits="userSpaceOnUse">
<stop stop-color="#F7E349"/>
<stop offset="1" stop-color="#A3822E"/>
</linearGradient>
<linearGradient id="paint23_linear_801_7061" x1="53.8179" y1="32.4697" x2="53.8179" y2="21.0022" gradientUnits="userSpaceOnUse">
<stop stop-color="#F7E349"/>
<stop offset="1" stop-color="#A3822E"/>
</linearGradient>
<linearGradient id="paint24_linear_801_7061" x1="53.8179" y1="29.5322" x2="53.8179" y2="78.8122" gradientUnits="userSpaceOnUse">
<stop stop-color="#F7E349"/>
<stop offset="1" stop-color="#A3822E"/>
</linearGradient>
</defs>
</svg>
