<svg width="109" height="108" viewBox="0 0 109 108" fill="none" xmlns="http://www.w3.org/2000/svg">
<path d="M45.4065 58.7985H46.0865V55.9697L48.8084 58.7985H49.7472L46.7345 55.7317L49.4232 53.2915H48.5482L46.0865 55.5478V50.6993H45.4065V58.7985ZM39.9689 58.7985H40.6488V55.7539C40.6488 55.5083 40.6807 55.2675 40.7363 55.0295C40.789 54.7999 40.884 54.5917 41.0062 54.3926C41.2587 53.9798 41.675 53.7487 42.2801 53.7452C42.7477 53.7418 43.0946 53.8979 43.2951 54.1983C43.4977 54.5022 43.5873 54.9248 43.5873 55.4514V58.7985H44.2672V55.2779C44.2672 54.659 44.1298 54.1525 43.8454 53.7661C43.5533 53.3685 43.0648 53.1666 42.3883 53.1617C42.1073 53.1596 41.8665 53.1943 41.6646 53.2589C41.4634 53.3234 41.2934 53.4143 41.1574 53.5288C41.0277 53.637 40.9194 53.7556 40.8334 53.8854C40.7467 54.0151 40.671 54.1442 40.6065 54.2733H40.5843V53.2915H39.9258C39.9543 53.73 39.9689 54.1622 39.9689 54.5869V58.7985ZM38.1794 56.3582C38.1794 56.5019 38.1718 56.6857 38.1579 56.9085C38.1434 57.1242 38.0823 57.3449 37.9741 57.5669C37.8735 57.7758 37.7111 57.9555 37.4877 58.1081C37.2573 58.2656 36.9444 58.3447 36.5489 58.3447C36.2318 58.3447 35.9696 58.2601 35.7496 58.1081C35.5234 57.9506 35.4041 57.7043 35.4041 57.3518C35.4041 57.0486 35.4908 56.812 35.6525 56.6282C35.8072 56.4512 36.007 56.318 36.2575 56.2285C36.5101 56.1383 36.7897 56.0668 37.0998 56.0446C37.394 56.0238 37.6896 56.0238 37.9852 56.0238H38.1794V56.3582ZM38.244 58.7985H38.9135C38.8705 58.446 38.8594 58.0609 38.8594 57.6432V55.2134C38.8594 53.8313 38.2301 53.1409 36.9264 53.1617C36.3574 53.17 35.8183 53.3019 35.3069 53.5399V54.1983C35.8183 53.8889 36.3574 53.7425 36.9264 53.7452C37.7833 53.7494 38.1794 54.2164 38.1794 55.1593V55.4403H38.0497C37.6903 55.4403 37.3149 55.4438 36.9264 55.4722C36.5302 55.5014 36.1645 55.5916 35.8245 55.7102C35.488 55.8282 35.2119 56.0176 34.994 56.2826C34.7727 56.5504 34.6679 56.9126 34.6589 57.3733C34.6533 57.6543 34.7415 57.9818 34.9829 58.3343C35.1023 58.5078 35.3014 58.632 35.5449 58.7444C35.7836 58.8554 36.0917 58.9282 36.4733 58.9282C36.8334 58.9282 37.1755 58.8311 37.4988 58.6583C37.8235 58.4856 38.0636 58.2365 38.2225 57.9131H38.244V58.7985ZM33.274 56.0446C33.274 56.3041 33.2559 56.5664 33.2199 56.8328C33.1699 57.1069 33.0797 57.3588 32.9507 57.5891C32.8348 57.8049 32.6696 57.9811 32.4532 58.1185C32.2374 58.2691 31.9675 58.3447 31.6435 58.3447C31.3409 58.3447 31.0891 58.2691 30.8879 58.1185C30.679 57.9811 30.5097 57.798 30.3793 57.5669C30.1281 57.0778 30.0053 56.5706 30.0129 56.0446C30.0053 55.5048 30.1246 54.9935 30.3696 54.5112C30.4986 54.2809 30.6679 54.0935 30.8768 53.9499C31.0849 53.8132 31.3409 53.7452 31.6435 53.7452C31.9675 53.7452 32.2374 53.8132 32.4532 53.9499C32.6696 54.0797 32.8348 54.2594 32.9507 54.4897C33.0797 54.7055 33.1699 54.9504 33.2199 55.2238C33.2559 55.4972 33.274 55.7713 33.274 56.0446ZM29.3323 58.7985H30.0129V57.9236H30.0344C30.3945 58.6007 30.967 58.9359 31.751 58.9282C32.5073 58.9137 33.0762 58.6368 33.4579 58.097C33.8318 57.5565 34.0192 56.8724 34.0192 56.0446C34.0192 55.1884 33.8464 54.4967 33.5009 53.9714C33.1408 53.4386 32.5579 53.1687 31.751 53.1617C31.4853 53.1617 31.2507 53.2013 31.0495 53.2804C30.8476 53.3595 30.6748 53.4601 30.5312 53.5829C30.3945 53.6904 30.2863 53.8028 30.2079 53.918C30.1205 54.0401 30.0629 54.1407 30.0344 54.2198H30.0129V50.6993H29.3323V58.7985Z" fill="#1C1C1A"/>
<path d="M93.0096 52.0273H94.5V50.6035H93.0096V52.0273ZM93.0096 58.7985H94.5V53.0722H93.0096V58.7985ZM88.8736 58.7985H90.3633V56.6968C90.3633 56.4741 90.3703 56.2334 90.3855 55.9746C90.4001 55.7074 90.4431 55.4549 90.5187 55.2183C90.5985 54.9657 90.7241 54.7645 90.8858 54.607C91.0502 54.4453 91.2785 54.3621 91.5755 54.3621C91.8648 54.3621 92.0868 54.403 92.2422 54.4842V52.9834C92.0868 52.9536 91.9349 52.9355 91.7864 52.939C91.3416 52.9494 90.9864 53.1277 90.7075 53.4504C90.4306 53.7723 90.2627 54.0769 90.2183 54.3732H90.1961V53.0722H88.8736V58.7985ZM84.8986 54.0949C85.1428 54.0901 85.3475 54.1504 85.5113 54.2622C85.6729 54.3732 85.8069 54.5182 85.8887 54.7062C86.058 55.0961 86.1337 55.5034 86.1337 55.9184C86.1337 56.1112 86.1246 56.3166 86.0892 56.5303C86.0518 56.7461 85.9741 56.9494 85.8776 57.1416C85.7881 57.3199 85.6618 57.4677 85.4995 57.5863C85.3281 57.7126 85.1213 57.7758 84.8771 57.7758C84.6315 57.7758 84.4296 57.7099 84.2651 57.5863C84.1042 57.4656 83.964 57.3213 83.8648 57.1416C83.6532 56.7586 83.5609 56.3485 83.565 55.9184C83.5678 55.4889 83.6719 55.0864 83.8759 54.7062C84.0868 54.3156 84.424 54.1046 84.8986 54.0949ZM82.0636 61.134H83.5533V58.1421H83.5761C83.8426 58.446 84.1146 58.6528 84.3873 58.7652C84.6551 58.8748 84.9444 58.9359 85.2546 58.9317C86.1441 58.9206 86.7803 58.6105 87.1564 58.0089C87.5213 57.4247 87.6892 56.7267 87.6892 55.9184C87.6892 55.1031 87.5248 54.403 87.1564 53.8285C86.7838 53.2464 86.1552 52.9355 85.2886 52.939C84.4206 52.9418 83.828 53.2755 83.5089 53.884H83.4866V53.0722H82.0636V61.134ZM80.4185 57.2644C80.1437 57.4268 79.8488 57.5558 79.5401 57.6648C79.2188 57.7772 78.8795 57.8424 78.5167 57.8424C78.0573 57.8424 77.6827 57.7085 77.3822 57.4531C77.0894 57.204 76.9194 56.8557 76.8827 56.3971H80.841C80.848 55.3737 80.671 54.5383 80.2846 53.9055C79.8918 53.2637 79.1619 52.9348 78.117 52.939C77.2344 52.9418 76.569 53.245 76.1264 53.8174C75.6795 54.394 75.4526 55.1107 75.4589 55.9628C75.4742 57.9125 76.4781 58.9109 78.45 58.9317C79.2355 58.94 79.8918 58.7798 80.4185 58.4759V57.2644ZM76.8827 55.3737C76.9118 54.981 77.0367 54.6569 77.2601 54.4065C77.4808 54.1602 77.7978 54.0283 78.2058 54.0283C78.6207 54.0283 78.9253 54.1685 79.1168 54.4287C79.3028 54.6805 79.4027 54.9955 79.4173 55.3737H76.8827ZM70.0546 58.7985H71.5449V56.019H71.5678L73.4801 58.7985H75.3694L72.9687 55.629L75.103 53.0722H73.3461L71.5678 55.3626H71.5449V50.4585H70.0546V58.7985ZM68.6093 53.0722H67.1189V55.8746C67.1189 56.0592 67.1043 56.2597 67.0752 56.4741C67.0454 56.6892 66.9725 56.8904 66.8747 57.0868C66.7796 57.2762 66.6533 57.4351 66.4861 57.5641C66.305 57.7022 66.0823 57.7758 65.8075 57.7758C65.5772 57.7758 65.3961 57.7196 65.2629 57.6086C65.1373 57.5052 65.0325 57.3747 64.9735 57.2082C64.9139 57.0403 64.8882 56.8557 64.8736 56.6635C64.866 56.5671 64.8688 56.4741 64.8625 56.3846C64.8549 56.2965 64.8403 56.2112 64.8403 56.13V53.0722H63.35V56.6864C63.35 57.338 63.5158 57.8674 63.8287 58.2878C64.1389 58.7041 64.6211 58.9359 65.2962 58.9317C66.0823 58.9282 66.7082 58.6132 67.1751 58.02H67.1973V58.7985H68.6093V53.0722ZM58.4792 57.1416C58.4792 56.9196 58.5437 56.7447 58.6575 56.608C58.7657 56.4783 58.899 56.3742 59.0696 56.3083C59.2396 56.241 59.4214 56.2001 59.6143 56.1744C59.7038 56.1626 59.7919 56.1522 59.8807 56.1522H60.7814C60.789 56.6046 60.6925 57.0021 60.4705 57.331C60.2409 57.6696 59.8849 57.8375 59.4249 57.8424C59.1508 57.8452 58.9323 57.7772 58.7581 57.6648C58.5763 57.5475 58.4792 57.3789 58.4792 57.1416ZM57.7236 54.6514C58.2495 54.2434 58.8393 54.0332 59.4915 54.0283C59.9363 54.0255 60.2651 54.1157 60.4705 54.2955C60.6794 54.4779 60.7814 54.8033 60.7814 55.2627H59.9592C59.6476 55.2627 59.3208 55.2772 58.9801 55.3182C58.6464 55.3584 58.3328 55.4583 58.0351 55.5957C57.7548 55.7248 57.5279 55.9218 57.3454 56.1848C57.1588 56.4561 57.0533 56.8009 57.0575 57.2304C57.061 57.7785 57.2795 58.1928 57.6903 58.4863C58.0865 58.7714 58.5395 58.9275 59.0578 58.9317C59.4138 58.9345 59.7545 58.8415 60.0813 58.6653C60.3997 58.4932 60.6481 58.2531 60.8265 57.9423H60.848C60.848 58.165 60.8702 58.4502 60.9146 58.7985H62.2273C62.1975 58.369 62.176 57.9423 62.1607 57.5197C62.1454 57.1201 62.1385 56.6413 62.1385 56.0856V55.3515C62.1385 53.7203 61.3371 52.9182 59.6691 52.939C58.9801 52.9473 58.3168 53.0909 57.6792 53.3726L57.7236 54.6514ZM54.5923 52.0273H56.0827V50.6035H54.5923V52.0273ZM54.5923 58.7985H56.0827V53.0722H54.5923V58.7985ZM50.414 58.7985H51.9036V56.6968C51.9036 56.4741 51.9113 56.234 51.9258 55.9746C51.9411 55.7074 51.9855 55.4549 52.0591 55.2183C52.1409 54.9664 52.2631 54.7624 52.4268 54.607C52.5892 54.4432 52.8195 54.3621 53.1158 54.3621C53.4051 54.3621 53.6271 54.403 53.7833 54.4842V52.9834C53.6271 52.9536 53.4752 52.939 53.3267 52.939C52.882 52.9536 52.5232 53.1242 52.2485 53.4504C51.9668 53.7688 51.8037 54.0769 51.7593 54.3732H51.7371V53.0722H50.414V58.7985Z" fill="#1C1C1A"/>
<path d="M59.1376 61.1215H59.4124V60.6039C59.4124 60.5699 59.4159 60.5324 59.4235 60.4915C59.4297 60.4519 59.4415 60.4138 59.4603 60.3784C59.4776 60.3423 59.5026 60.3131 59.5338 60.2889C59.565 60.2646 59.606 60.2535 59.6546 60.2535C59.699 60.2535 59.733 60.2625 59.7559 60.2819C59.7808 60.3027 59.7982 60.327 59.8093 60.3562C59.8211 60.3867 59.828 60.4186 59.8308 60.454C59.8329 60.4894 59.8336 60.5241 59.8336 60.5567V61.1215H60.1083V60.454C60.1083 60.395 60.1014 60.3402 60.0875 60.2903C60.0736 60.2396 60.0528 60.1952 60.023 60.1591C59.9938 60.1216 59.9557 60.0925 59.912 60.071C59.8662 60.0502 59.8121 60.0391 59.7489 60.0391C59.6768 60.0391 59.6115 60.0543 59.5553 60.0849C59.4991 60.1147 59.4526 60.1556 59.4166 60.2077H59.4124V59.5818H59.1376V61.1215ZM58.3411 60.0641H58.0657V60.581C58.0657 60.6164 58.0629 60.6524 58.0559 60.6934C58.049 60.7336 58.0365 60.7718 58.0192 60.8072C58.0011 60.8426 57.9762 60.8724 57.9449 60.896C57.9137 60.9203 57.8735 60.9321 57.8235 60.9321C57.7805 60.9321 57.7458 60.9223 57.7215 60.9022C57.6965 60.8828 57.6785 60.8585 57.6681 60.8287C57.657 60.7995 57.6507 60.7662 57.6487 60.7315C57.6459 60.6948 57.6452 60.6608 57.6452 60.6288V60.0641H57.3704V60.7315C57.3704 60.7919 57.3767 60.8467 57.3912 60.8974C57.4044 60.948 57.4259 60.9917 57.4558 61.0292C57.4849 61.0653 57.5224 61.0944 57.5675 61.1145C57.6119 61.1354 57.6667 61.1458 57.7291 61.1458C57.802 61.1458 57.8672 61.1305 57.9255 61.1007C57.9838 61.0701 58.0344 61.0299 58.0761 60.9778H58.0802V61.1215H58.3411V60.0641ZM55.6032 61.1215H55.8696V60.9917H55.8738C55.9134 61.0486 55.9633 61.0875 56.0216 61.1111C56.0799 61.134 56.1389 61.1458 56.1978 61.1458C56.279 61.1458 56.347 61.1305 56.4039 61.0993C56.4608 61.068 56.5066 61.0278 56.542 60.9765C56.5767 60.9251 56.6023 60.8661 56.6176 60.7988C56.6329 60.7322 56.6412 60.6622 56.6412 60.5893C56.6412 60.5171 56.6329 60.4478 56.6176 60.3811C56.6023 60.3152 56.5767 60.2563 56.542 60.2056C56.5066 60.155 56.4608 60.1147 56.4039 60.0849C56.347 60.0543 56.279 60.0391 56.1978 60.0391C56.1257 60.0391 56.0646 60.0537 56.014 60.0814C55.9647 60.1099 55.921 60.1487 55.8821 60.2001H55.878V59.5818H55.6032V61.1215ZM55.8801 60.5893C55.8801 60.5525 55.8849 60.5137 55.8932 60.4748C55.9023 60.4346 55.9168 60.3985 55.9363 60.3659C55.9564 60.3326 55.9814 60.3062 56.0133 60.2847C56.0452 60.2639 56.0827 60.2535 56.1264 60.2535C56.1715 60.2535 56.2082 60.2639 56.2367 60.2861C56.2658 60.3069 56.2887 60.3354 56.3068 60.368C56.3241 60.4013 56.3373 60.4373 56.3435 60.4769C56.3512 60.5164 56.3539 60.5539 56.3539 60.5893C56.3539 60.6268 56.3505 60.6649 56.3428 60.7045C56.3352 60.744 56.3227 60.7808 56.3061 60.8148C56.2887 60.8495 56.2651 60.8779 56.2353 60.8994C56.2048 60.9216 56.1673 60.9321 56.1222 60.9321C56.0771 60.9321 56.0389 60.9216 56.007 60.8994C55.9758 60.8779 55.9508 60.8502 55.9321 60.8162C55.9141 60.7829 55.9002 60.7454 55.8918 60.7052C55.8835 60.6649 55.8801 60.6268 55.8801 60.5893ZM53.2608 61.1215H53.5363V60.608C53.5363 60.5733 53.5383 60.5366 53.5425 60.4949C53.5467 60.454 53.5557 60.4151 53.5703 60.3791C53.5841 60.343 53.6049 60.3131 53.632 60.2889C53.6598 60.2646 53.6965 60.2535 53.7416 60.2535C53.7812 60.2535 53.811 60.2611 53.8325 60.2764C53.854 60.2923 53.8693 60.3118 53.8797 60.3354C53.8901 60.3589 53.8957 60.3839 53.897 60.4124C53.8984 60.4401 53.8991 60.4665 53.8991 60.4908V61.1215H54.1739V60.608C54.1739 60.5733 54.1767 60.5366 54.1801 60.4949C54.1843 60.454 54.194 60.4151 54.2086 60.3791C54.2225 60.343 54.2433 60.3131 54.2703 60.2889C54.2981 60.2646 54.3342 60.2535 54.3793 60.2535C54.4188 60.2535 54.45 60.2611 54.4702 60.2764C54.4924 60.2923 54.5076 60.3118 54.518 60.3354C54.5284 60.3589 54.534 60.3839 54.5354 60.4124C54.5368 60.4401 54.5375 60.4665 54.5375 60.4908V61.1215H54.8122V60.454C54.8122 60.395 54.8074 60.3402 54.797 60.2903C54.7873 60.2396 54.7692 60.1952 54.7428 60.1591C54.7172 60.1216 54.6825 60.0925 54.6402 60.071C54.5971 60.0502 54.5437 60.0391 54.4778 60.0391C54.414 60.0391 54.3501 60.055 54.2877 60.0856C54.2259 60.1168 54.1794 60.1633 54.1475 60.2264C54.1177 60.1605 54.0768 60.1133 54.0247 60.0842C53.9727 60.0543 53.9095 60.0391 53.836 60.0391C53.7833 60.0391 53.7291 60.0516 53.6722 60.0765C53.616 60.1008 53.5654 60.1459 53.5217 60.2118H53.5175V60.0641H53.2608V61.1215ZM52.4684 60.0641H52.1937V60.581C52.1937 60.6164 52.1902 60.6524 52.184 60.6934C52.1763 60.7336 52.1645 60.7718 52.1465 60.8072C52.1284 60.8426 52.1042 60.8724 52.0729 60.896C52.041 60.9203 52.0001 60.9321 51.9515 60.9321C51.9078 60.9321 51.8731 60.9223 51.8488 60.9022C51.8238 60.8828 51.8065 60.8585 51.7954 60.8287C51.7843 60.7995 51.7781 60.7662 51.776 60.7315C51.7739 60.6948 51.7725 60.6608 51.7725 60.6288V60.0641H51.4977V60.7315C51.4977 60.7919 51.5047 60.8467 51.5179 60.8974C51.5324 60.948 51.5533 60.9917 51.5831 61.0292C51.6129 61.0653 51.6497 61.0944 51.6955 61.1145C51.7399 61.1354 51.794 61.1458 51.8572 61.1458C51.9293 61.1458 51.9945 61.1305 52.0528 61.1007C52.1111 61.0701 52.1618 61.0299 52.2041 60.9778H52.2075V61.1215H52.4684V60.0641ZM50.2766 60.803C50.2766 60.9078 50.305 60.9917 50.3626 61.0535C50.4202 61.1145 50.5028 61.1458 50.611 61.1458C50.652 61.1458 50.6894 61.1444 50.722 61.1395C50.7546 61.1354 50.7852 61.1291 50.8143 61.1215L50.806 60.9036C50.7907 60.9126 50.7727 60.9203 50.7505 60.9251C50.7283 60.93 50.7054 60.9321 50.6811 60.9321C50.6547 60.9321 50.6332 60.9272 50.6159 60.9182C50.5992 60.9078 50.5853 60.8953 50.5763 60.8786C50.5666 60.8627 50.5604 60.8439 50.5569 60.8231C50.5527 60.803 50.5513 60.7808 50.5513 60.7579V60.2653H50.7956V60.0641H50.5513V59.765L50.2766 59.8524V60.0641H50.0733V60.2653H50.2766V60.803Z" fill="#1C1C1A"/>
<path d="M78.8601 61.1215H79.1349V60.6039C79.1349 60.5699 79.1376 60.5317 79.1453 60.4915C79.1522 60.4519 79.1647 60.4138 79.182 60.3784C79.1994 60.3423 79.2244 60.3125 79.2556 60.2889C79.2875 60.2646 79.3278 60.2535 79.3763 60.2535C79.4207 60.2535 79.4547 60.2625 79.479 60.2819C79.5026 60.3027 79.5206 60.327 79.5324 60.3569C79.5435 60.3867 79.5505 60.4186 79.5526 60.4547C79.5546 60.4894 79.5553 60.5241 79.5553 60.5567V61.1215H79.8301V60.4547C79.8301 60.3957 79.8239 60.3402 79.81 60.2903C79.7968 60.2389 79.7753 60.1952 79.7454 60.1584C79.7163 60.1216 79.6788 60.0925 79.6337 60.071C79.5886 60.0502 79.5345 60.0391 79.4714 60.0391C79.3992 60.0391 79.334 60.0523 79.2764 60.0779C79.2188 60.1022 79.1682 60.1459 79.1252 60.2077H79.1203V60.0641H78.8601V61.1215ZM77.4003 60.8148C77.4003 60.7746 77.4107 60.7419 77.4308 60.7184C77.4523 60.6934 77.4773 60.676 77.5071 60.6635C77.5369 60.651 77.5703 60.6434 77.6056 60.6393C77.6417 60.6344 77.6743 60.6323 77.7062 60.6323H77.8256C77.8256 60.6739 77.8214 60.7128 77.8138 60.7496C77.8062 60.7863 77.7916 60.8203 77.768 60.8502C77.7458 60.8793 77.7194 60.9015 77.6868 60.9189C77.6549 60.9362 77.6174 60.9445 77.5751 60.9445C77.5258 60.9445 77.4842 60.9341 77.4509 60.914C77.4176 60.8932 77.4003 60.8606 77.4003 60.8148ZM77.2608 60.3562C77.3073 60.3201 77.3593 60.2923 77.4148 60.2715C77.4717 60.2507 77.5286 60.241 77.5876 60.241C77.6695 60.241 77.7298 60.2569 77.768 60.2903C77.8062 60.3229 77.8256 60.3818 77.8256 60.4686H77.6729C77.616 60.4686 77.555 60.472 77.4918 60.4797C77.428 60.4873 77.3697 60.5046 77.3191 60.5303C77.267 60.556 77.2233 60.5928 77.1893 60.6406C77.1553 60.6885 77.1373 60.7523 77.1373 60.8314C77.1373 60.8821 77.1491 60.9272 77.1699 60.9661C77.1907 61.0049 77.2185 61.0382 77.2532 61.0646C77.2872 61.0916 77.3267 61.1111 77.3711 61.1256C77.4155 61.1388 77.4606 61.1458 77.5071 61.1458C77.539 61.1458 77.5702 61.1416 77.6029 61.1333C77.6348 61.1256 77.6646 61.1138 77.6938 61.0986C77.7229 61.0833 77.7493 61.0646 77.7729 61.041C77.7971 61.0174 77.8173 60.9917 77.8332 60.9633H77.8381C77.8395 60.9799 77.8402 61.0028 77.8409 61.0334C77.8409 61.0646 77.845 61.0937 77.8499 61.1215H78.0927C78.0892 61.0798 78.0872 61.0403 78.0851 61.0021C78.083 60.9633 78.0816 60.9244 78.0795 60.8849C78.0788 60.8453 78.0781 60.8051 78.0768 60.7628C78.0761 60.7211 78.0761 60.6739 78.0761 60.6205V60.4852C78.0761 60.3291 78.04 60.2153 77.9692 60.1452C77.8977 60.0745 77.7812 60.0391 77.6209 60.0391C77.5619 60.0391 77.4988 60.0474 77.4329 60.0613C77.3663 60.0752 77.3066 60.0953 77.2532 60.1203L77.2608 60.3562ZM75.5574 61.1215H75.8322V60.608H75.8363L76.1895 61.1215H76.5385L76.0951 60.5359L76.4892 60.0641H76.1652L75.8363 60.4866H75.8322V59.5818H75.5574V61.1215ZM74.4917 60.0641V60.2077H74.4875C74.4493 60.1459 74.4029 60.1022 74.3494 60.0779C74.2946 60.0523 74.2336 60.0391 74.1635 60.0391C74.0837 60.0391 74.0164 60.0564 73.9602 60.0897C73.904 60.1237 73.8582 60.1661 73.8214 60.2188C73.786 60.2701 73.759 60.3291 73.7416 60.3943C73.725 60.4602 73.716 60.5248 73.716 60.5872C73.716 60.658 73.7236 60.726 73.7395 60.7912C73.7555 60.8543 73.7805 60.9119 73.8145 60.9612C73.8492 61.0105 73.8936 61.0493 73.9477 61.0785C74.0032 61.1062 74.0691 61.1215 74.1475 61.1215C74.2252 61.1215 74.2925 61.1041 74.3501 61.0701C74.4077 61.0368 74.4493 60.998 74.4757 60.9522H74.4792C74.4792 60.998 74.4778 61.0445 74.4722 61.0937C74.4681 61.1416 74.4556 61.1867 74.4341 61.2269C74.414 61.2665 74.3814 61.2998 74.339 61.3248C74.296 61.3504 74.237 61.3636 74.1614 61.3636C74.1399 61.3636 74.1149 61.3609 74.0886 61.3546C74.0615 61.3497 74.0344 61.3421 74.0067 61.3338C73.9782 61.3248 73.9512 61.3144 73.9241 61.3033C73.8977 61.2929 73.8742 61.2818 73.854 61.27L73.8311 61.5045C73.897 61.5322 73.9602 61.551 74.0219 61.5614C74.0837 61.5711 74.142 61.5766 74.1961 61.5766C74.3071 61.5766 74.398 61.5607 74.4702 61.5295C74.5423 61.4982 74.5992 61.4566 74.6422 61.4053C74.6839 61.3546 74.7137 61.2949 74.7297 61.2276C74.7463 61.1603 74.7546 61.0903 74.7546 61.0181V60.0641H74.4917ZM74.2377 60.9078C74.1975 60.9078 74.1635 60.8981 74.1336 60.8779C74.1038 60.8585 74.0795 60.8321 74.0608 60.8023C74.0414 60.7718 74.0275 60.7364 74.0171 60.6975C74.0081 60.6601 74.0039 60.6233 74.0039 60.5872C74.0039 60.5463 74.0074 60.506 74.0157 60.4665C74.024 60.4269 74.0372 60.3909 74.0566 60.3596C74.0754 60.3284 74.1017 60.3027 74.133 60.2819C74.1642 60.2625 74.203 60.2535 74.2502 60.2535C74.2891 60.2535 74.3238 60.2611 74.3529 60.2785C74.3827 60.2958 74.407 60.3194 74.4251 60.3492C74.4438 60.3798 74.457 60.4151 74.4667 60.4547C74.4757 60.4929 74.4792 60.5359 74.4792 60.581C74.4792 60.6254 74.4757 60.6663 74.4667 60.7066C74.457 60.7461 74.4424 60.7808 74.423 60.8113C74.4029 60.8412 74.3779 60.8648 74.3474 60.8814C74.3161 60.8994 74.28 60.9078 74.2377 60.9078ZM72.016 61.1215H72.2922V60.6039C72.2922 60.5699 72.295 60.5317 72.3019 60.4915C72.3088 60.4519 72.3213 60.4138 72.338 60.3784C72.3567 60.3423 72.3817 60.3125 72.4129 60.2889C72.4441 60.2646 72.4844 60.2535 72.5336 60.2535C72.5781 60.2535 72.6107 60.2625 72.635 60.2819C72.6585 60.3027 72.6773 60.327 72.6884 60.3569C72.7002 60.3867 72.7078 60.4186 72.7099 60.4547C72.7113 60.4894 72.7127 60.5241 72.7127 60.5567V61.1215H72.9867V60.4547C72.9867 60.3957 72.9805 60.3402 72.9666 60.2903C72.9534 60.2389 72.9319 60.1952 72.9021 60.1584C72.8729 60.1216 72.8355 60.0925 72.7897 60.071C72.7453 60.0502 72.6912 60.0391 72.6287 60.0391C72.5559 60.0391 72.4899 60.0523 72.433 60.0779C72.3761 60.1022 72.3248 60.1459 72.2818 60.2077H72.2776V60.0641H72.016V61.1215ZM70.5569 60.8148C70.5569 60.7746 70.5673 60.7419 70.5874 60.7184C70.6082 60.6934 70.6339 60.676 70.6631 60.6635C70.6936 60.651 70.7269 60.6434 70.7623 60.6393C70.7977 60.6344 70.8317 60.6323 70.8636 60.6323H70.9808C70.9808 60.6739 70.9788 60.7128 70.9704 60.7496C70.9628 60.7863 70.9482 60.8203 70.9246 60.8502C70.9031 60.8793 70.8761 60.9015 70.8428 60.9189C70.8115 60.9362 70.7741 60.9445 70.731 60.9445C70.6825 60.9445 70.6409 60.9341 70.6069 60.914C70.5735 60.8932 70.5569 60.8606 70.5569 60.8148ZM70.4174 60.3562C70.4639 60.3201 70.5153 60.2923 70.5715 60.2715C70.6277 60.2507 70.6853 60.241 70.7435 60.241C70.8261 60.241 70.8865 60.2569 70.9246 60.2903C70.9628 60.3229 70.9808 60.3818 70.9808 60.4686H70.8303C70.7727 60.4686 70.7123 60.472 70.6485 60.4797C70.5846 60.4873 70.5271 60.5046 70.475 60.5303C70.423 60.556 70.38 60.5928 70.346 60.6406C70.3113 60.6885 70.2946 60.7523 70.2946 60.8314C70.2946 60.8821 70.3057 60.9272 70.3258 60.9661C70.3474 61.0049 70.3751 61.0382 70.4084 61.0646C70.4438 61.0916 70.4827 61.1111 70.5278 61.1256C70.5722 61.1388 70.6173 61.1458 70.6631 61.1458C70.695 61.1458 70.7269 61.1416 70.7588 61.1333C70.7914 61.1256 70.8219 61.1138 70.8504 61.0986C70.8788 61.0833 70.9059 61.0646 70.9295 61.041C70.9531 61.0174 70.9739 60.9917 70.9898 60.9633H70.994C70.9961 60.9799 70.9968 61.0028 70.9968 61.0334C70.9982 61.0646 71.0003 61.0937 71.0065 61.1215H71.2487C71.2459 61.0798 71.2438 61.0403 71.2417 61.0021C71.2396 60.9633 71.2376 60.9244 71.2369 60.8849C71.2348 60.8453 71.2341 60.8051 71.2327 60.7628C71.2327 60.7211 71.232 60.6739 71.232 60.6205V60.4852C71.232 60.3291 71.1966 60.2153 71.1251 60.1452C71.0551 60.0745 70.9378 60.0391 70.7768 60.0391C70.7179 60.0391 70.6547 60.0474 70.5888 60.0613C70.5229 60.0752 70.4632 60.0953 70.4084 60.1203L70.4174 60.3562ZM68.5947 61.1215H68.8618V60.9917H68.8653C68.9056 61.0486 68.9541 61.0875 69.0131 61.1111C69.0721 61.134 69.131 61.1458 69.1893 61.1458C69.2705 61.1458 69.3392 61.1305 69.3961 61.0993C69.453 61.068 69.4995 61.0278 69.5335 60.9765C69.5689 60.9251 69.5938 60.8661 69.6098 60.7988C69.6251 60.7322 69.6334 60.6622 69.6334 60.5893C69.6334 60.5171 69.6251 60.4478 69.6098 60.3811C69.5938 60.3152 69.5689 60.2563 69.5335 60.2056C69.4995 60.155 69.453 60.1147 69.3961 60.0849C69.3392 60.0543 69.2705 60.0391 69.1893 60.0391C69.1172 60.0391 69.0561 60.0537 69.0062 60.0814C68.9562 60.1099 68.9118 60.1487 68.8743 60.1994H68.8695V59.5818H68.5947V61.1215ZM68.8722 60.5893C68.8722 60.5525 68.8757 60.5144 68.8854 60.4748C68.8944 60.4353 68.9083 60.3985 68.9284 60.3659C68.9479 60.3326 68.9735 60.3062 69.0048 60.2847C69.0367 60.2639 69.0742 60.2535 69.1186 60.2535C69.163 60.2535 69.1997 60.2639 69.2289 60.2861C69.2573 60.3069 69.2809 60.3347 69.2983 60.368C69.3163 60.4013 69.3281 60.4373 69.3357 60.4769C69.3427 60.5164 69.3461 60.5539 69.3461 60.5893C69.3461 60.6268 69.3427 60.6649 69.335 60.7045C69.3267 60.744 69.3149 60.7808 69.2976 60.8148C69.2802 60.8495 69.2573 60.8779 69.2275 60.8994C69.197 60.9216 69.1588 60.9321 69.1137 60.9321C69.0686 60.9321 69.0304 60.9216 68.9992 60.8994C68.968 60.8779 68.9423 60.8502 68.9236 60.8162C68.9056 60.7829 68.8924 60.7454 68.884 60.7052C68.8757 60.6649 68.8722 60.6268 68.8722 60.5893ZM66.253 61.1215H66.5278V60.608C66.5278 60.5733 66.5298 60.5359 66.534 60.4949C66.5382 60.4547 66.5472 60.4158 66.5618 60.3791C66.5763 60.343 66.5964 60.3125 66.6242 60.2889C66.6519 60.2646 66.6873 60.2535 66.7324 60.2535C66.7727 60.2535 66.8032 60.2611 66.824 60.2764C66.8455 60.2923 66.8615 60.3118 66.8712 60.3347C66.8816 60.3589 66.8879 60.3839 66.8885 60.4124C66.8906 60.4401 66.8913 60.4665 66.8913 60.4908V61.1215H67.1661V60.608C67.1661 60.5733 67.1675 60.5359 67.1723 60.4949C67.1765 60.4547 67.1855 60.4158 67.2001 60.3791C67.2147 60.343 67.2355 60.3125 67.2618 60.2889C67.2903 60.2646 67.3264 60.2535 67.3715 60.2535C67.411 60.2535 67.4415 60.2611 67.4617 60.2764C67.4839 60.2923 67.4998 60.3118 67.5095 60.3347C67.5199 60.3589 67.5262 60.3839 67.5276 60.4124C67.5283 60.4401 67.529 60.4665 67.529 60.4908V61.1215H67.8044V60.4547C67.8044 60.3957 67.7996 60.3402 67.7892 60.2903C67.7794 60.2389 67.7607 60.1952 67.735 60.1584C67.7087 60.1216 67.674 60.0925 67.6324 60.071C67.5893 60.0502 67.5359 60.0391 67.47 60.0391C67.4055 60.0391 67.3423 60.055 67.2806 60.0856C67.2174 60.1161 67.1709 60.1633 67.139 60.2264C67.1092 60.1605 67.0683 60.1133 67.0162 60.0842C66.9642 60.0543 66.901 60.0391 66.8275 60.0391C66.7755 60.0391 66.7206 60.0516 66.6637 60.0759C66.6075 60.1015 66.5569 60.1459 66.5132 60.2118H66.5097V60.0641H66.253V61.1215ZM65.4509 60.8377C65.3982 60.8668 65.3434 60.8918 65.2858 60.9126C65.2289 60.9341 65.1664 60.9445 65.0991 60.9445C65.0131 60.9445 64.943 60.9216 64.8889 60.8759C64.8348 60.8301 64.8049 60.7635 64.7973 60.6774H65.5279C65.5279 60.5858 65.5203 60.5005 65.5043 60.4221C65.4884 60.343 65.462 60.2764 65.4232 60.2209C65.385 60.164 65.3336 60.1203 65.2698 60.0876C65.2053 60.0557 65.1241 60.0391 65.0256 60.0391C64.943 60.0391 64.8716 60.0543 64.8098 60.0842C64.7481 60.1133 64.6974 60.1536 64.6572 60.2042C64.6162 60.2542 64.5864 60.3138 64.5656 60.3811C64.5454 60.4491 64.535 60.5213 64.535 60.5976C64.535 60.7725 64.5836 60.9078 64.6794 61.0028C64.7758 61.0979 64.9111 61.1458 65.0873 61.1458C65.1602 61.1458 65.2275 61.1388 65.2858 61.1236C65.3448 61.1097 65.3996 61.0889 65.4509 61.0618V60.8377ZM64.7973 60.4894C64.8049 60.4179 64.8278 60.3589 64.866 60.3118C64.9049 60.2639 64.9638 60.241 65.0415 60.241C65.0797 60.241 65.113 60.2472 65.1401 60.2611C65.1671 60.275 65.19 60.293 65.2081 60.3152C65.2261 60.3381 65.2386 60.3645 65.2476 60.3943C65.2573 60.4242 65.2629 60.4568 65.2657 60.4894H64.7973ZM62.9545 61.1215H63.2292V60.608H63.2341L63.5859 61.1215H63.9356L63.4922 60.5359L63.8863 60.0641H63.5616L63.2341 60.4866H63.2292V59.5818H62.9545V61.1215Z" fill="#1C1C1A"/>
<path d="M93.6917 60.8155C93.6917 60.7746 93.7021 60.7419 93.7222 60.7177C93.743 60.6934 93.768 60.676 93.7985 60.6635C93.8291 60.651 93.861 60.6427 93.897 60.6393C93.9324 60.6344 93.9664 60.6323 93.9977 60.6323H94.1163C94.1163 60.6739 94.1128 60.7128 94.1052 60.7496C94.0976 60.7863 94.0823 60.8203 94.0587 60.8502C94.0372 60.8786 94.0101 60.9015 93.9782 60.9189C93.9463 60.9362 93.9081 60.9452 93.8665 60.9452C93.8173 60.9452 93.7756 60.9341 93.7423 60.914C93.7083 60.8932 93.6917 60.8606 93.6917 60.8155ZM93.5522 60.3562C93.5987 60.3201 93.65 60.2923 93.7056 60.2715C93.7624 60.2507 93.8193 60.241 93.879 60.241C93.9602 60.241 94.0206 60.2576 94.0587 60.2903C94.0976 60.3229 94.1163 60.3818 94.1163 60.4686H93.9644C93.9075 60.4686 93.8464 60.472 93.7826 60.4797C93.7194 60.4873 93.6618 60.504 93.6098 60.5303C93.5578 60.556 93.5147 60.5928 93.48 60.6406C93.4467 60.6885 93.4287 60.7523 93.4287 60.8314C93.4287 60.8821 93.4398 60.9272 93.4606 60.9661C93.4821 61.0049 93.5099 61.0382 93.5439 61.0646C93.5779 61.0916 93.6167 61.1111 93.6618 61.1249C93.7062 61.1388 93.752 61.1458 93.7985 61.1458C93.8297 61.1458 93.8617 61.1416 93.8936 61.1333C93.9269 61.1249 93.9567 61.1138 93.9859 61.0986C94.0143 61.0833 94.04 61.0639 94.065 61.041C94.0879 61.0174 94.108 60.9917 94.1246 60.9633H94.1281C94.1302 60.9799 94.1316 61.0028 94.1323 61.034C94.1329 61.0646 94.1357 61.0937 94.1406 61.1215H94.3827C94.3814 61.0798 94.3779 61.041 94.3758 61.0021C94.3744 60.9633 94.373 60.9244 94.3709 60.8849C94.3702 60.8453 94.3689 60.8051 94.3682 60.7628C94.3675 60.7211 94.3675 60.6739 94.3675 60.6205V60.4852C94.3675 60.3291 94.3314 60.216 94.2599 60.1452C94.1885 60.0745 94.0726 60.0398 93.9109 60.0398C93.852 60.0398 93.7902 60.046 93.7236 60.0613C93.6563 60.0752 93.5973 60.0953 93.5439 60.1203L93.5522 60.3562ZM91.7288 61.1215H92.0049V60.6039C92.0049 60.5699 92.0077 60.5317 92.0147 60.4922C92.0216 60.4519 92.0334 60.4138 92.0514 60.3784C92.0695 60.3423 92.0944 60.3125 92.1257 60.2889C92.1569 60.2653 92.1971 60.2528 92.2464 60.2528C92.2901 60.2528 92.3241 60.2625 92.3484 60.2819C92.3727 60.3027 92.39 60.327 92.4011 60.3569C92.4129 60.386 92.4192 60.4186 92.4219 60.4547C92.424 60.4894 92.4247 60.5241 92.4247 60.5567V61.1215H92.7002V60.4547C92.7002 60.3957 92.6932 60.3402 92.6794 60.2903C92.6655 60.2389 92.644 60.1952 92.6148 60.1591C92.585 60.1216 92.5482 60.0925 92.5038 60.0717C92.458 60.0502 92.4046 60.0398 92.3415 60.0398C92.2686 60.0398 92.2041 60.0543 92.1472 60.0849C92.0903 60.1147 92.0445 60.1556 92.0091 60.2077H92.0049V59.5818H91.7288V61.1215ZM90.2703 60.8155C90.2703 60.7746 90.2801 60.7419 90.3009 60.7177C90.3217 60.6934 90.3467 60.676 90.3772 60.6635C90.407 60.651 90.4396 60.6427 90.4757 60.6393C90.5104 60.6344 90.5444 60.6323 90.5763 60.6323H90.695C90.695 60.6739 90.6915 60.7128 90.6839 60.7496C90.6755 60.7863 90.6603 60.8203 90.6374 60.8502C90.6159 60.8786 90.5881 60.9015 90.5562 60.9189C90.5243 60.9362 90.4868 60.9452 90.4445 60.9452C90.3952 60.9452 90.3536 60.9341 90.321 60.914C90.2863 60.8932 90.2703 60.8606 90.2703 60.8155ZM90.1309 60.3562C90.1767 60.3201 90.228 60.2923 90.2842 60.2715C90.3404 60.2507 90.398 60.241 90.457 60.241C90.5389 60.241 90.5992 60.2576 90.6374 60.2903C90.6755 60.3229 90.695 60.3818 90.695 60.4686H90.543C90.4854 60.4686 90.4251 60.472 90.3612 60.4797C90.2974 60.4873 90.2398 60.504 90.1878 60.5303C90.1357 60.556 90.0927 60.5928 90.058 60.6406C90.024 60.6885 90.0074 60.7523 90.0074 60.8314C90.0074 60.8821 90.0178 60.9272 90.0386 60.9661C90.0601 61.0049 90.0879 61.0382 90.1226 61.0646C90.1565 61.0916 90.1954 61.1111 90.2405 61.1249C90.2849 61.1388 90.33 61.1458 90.3772 61.1458C90.4084 61.1458 90.4403 61.1416 90.4715 61.1333C90.5042 61.1249 90.5347 61.1138 90.5631 61.0986C90.5923 61.0833 90.6186 61.0639 90.6422 61.041C90.6665 61.0174 90.6866 60.9917 90.7033 60.9633H90.7068C90.7088 60.9799 90.7095 61.0028 90.7102 61.034C90.7109 61.0646 90.7144 61.0937 90.7193 61.1215H90.9614C90.9593 61.0798 90.9565 61.041 90.9545 61.0021C90.9517 60.9633 90.9503 60.9244 90.9496 60.8849C90.9482 60.8453 90.9468 60.8051 90.9461 60.7628C90.9454 60.7211 90.9447 60.6739 90.9447 60.6205V60.4852C90.9447 60.3291 90.9094 60.216 90.8386 60.1452C90.7664 60.0745 90.6513 60.0398 90.4896 60.0398C90.4306 60.0398 90.3689 60.046 90.3023 60.0613C90.235 60.0752 90.176 60.0953 90.1226 60.1203L90.1309 60.3562ZM89.2969 60.0786C89.2532 60.0689 89.2088 60.0599 89.1637 60.0516C89.1179 60.0432 89.063 60.0398 88.9971 60.0398C88.9444 60.0398 88.8917 60.046 88.8431 60.0592C88.7925 60.0724 88.7487 60.0918 88.7099 60.1182C88.6717 60.1452 88.6405 60.1792 88.6183 60.2209C88.594 60.2611 88.5822 60.3104 88.5822 60.368C88.5822 60.4325 88.5947 60.4824 88.619 60.5199C88.6419 60.5567 88.6724 60.5858 88.7064 60.6087C88.7418 60.6295 88.7793 60.6462 88.8223 60.6573C88.8632 60.6684 88.9021 60.6802 88.9361 60.6927C88.9722 60.7045 89.0013 60.7197 89.0249 60.7371C89.0485 60.7551 89.061 60.7808 89.061 60.8155C89.061 60.8412 89.054 60.8627 89.0429 60.8786C89.0304 60.8953 89.0145 60.9078 88.9958 60.9182C88.9777 60.9272 88.9583 60.9341 88.9382 60.9383C88.9166 60.9425 88.8972 60.9452 88.8799 60.9452C88.832 60.9452 88.7862 60.9383 88.7418 60.9265C88.6974 60.914 88.653 60.8967 88.6093 60.8752L88.5926 61.1007C88.6433 61.1145 88.6953 61.1249 88.748 61.1333C88.8008 61.1416 88.8535 61.1458 88.9049 61.1458C88.9611 61.1458 89.0152 61.1395 89.0686 61.1256C89.122 61.1131 89.1692 61.093 89.2108 61.0653C89.2511 61.0382 89.2844 61.0028 89.3107 60.9591C89.335 60.9154 89.3482 60.8627 89.3482 60.8009C89.3482 60.7378 89.3364 60.6871 89.3121 60.6483C89.2886 60.6094 89.2587 60.5775 89.224 60.5532C89.1893 60.5303 89.1512 60.5116 89.1095 60.4991C89.0672 60.4866 89.0291 60.4748 88.9944 60.463C88.959 60.4519 88.9298 60.438 88.9055 60.4221C88.882 60.4068 88.8702 60.3853 88.8702 60.3576C88.8702 60.3354 88.8757 60.3173 88.8854 60.3027C88.8958 60.2875 88.9083 60.275 88.9236 60.2653C88.9382 60.2556 88.9555 60.2493 88.9749 60.2458C88.9944 60.2424 89.0131 60.241 89.0318 60.241C89.0825 60.241 89.1255 60.2445 89.1616 60.2521C89.197 60.259 89.2365 60.2708 89.2788 60.2861L89.2969 60.0786ZM87.8544 60.0641H87.5782V60.581C87.5782 60.615 87.5755 60.6524 87.5685 60.6934C87.5616 60.7336 87.5491 60.7718 87.5317 60.8065C87.5137 60.8425 87.4894 60.8724 87.4575 60.8967C87.4263 60.9203 87.386 60.9321 87.3368 60.9321C87.2931 60.9321 87.2584 60.9216 87.2341 60.9022C87.2091 60.8835 87.1918 60.8578 87.1814 60.8287C87.1702 60.7988 87.1633 60.7669 87.1605 60.7315C87.1591 60.6948 87.1578 60.6615 87.1578 60.6288V60.0641H86.883V60.7315C86.883 60.7912 86.8899 60.8474 86.9031 60.8974C86.9177 60.948 86.9392 60.9917 86.9683 61.0292C86.9975 61.0653 87.035 61.0944 87.0801 61.1152C87.1252 61.1354 87.1793 61.1458 87.2417 61.1458C87.3146 61.1458 87.3805 61.1305 87.4381 61.1007C87.4964 61.0701 87.5463 61.0299 87.5893 60.9772H87.5935V61.1215H87.8544V60.0641Z" fill="#1C1C1A"/>
<path d="M26.4278 54.2885L22.7415 50.6014V54.2885H26.4278Z" fill="#F6A500"/>
<path d="M21.9165 49.687L18.2294 45.9999V49.687H21.9165Z" fill="#F6A500"/>
<path d="M21.8402 58.965L18.1531 55.2779V58.965H21.8402Z" fill="#F6A500"/>
<path d="M19.0884 54.2885L22.7415 57.9749L26.4278 54.2885H19.0884Z" fill="#B61818"/>
<path d="M14.5763 49.687L18.2294 53.3733L21.9165 49.687L14.5763 49.687Z" fill="#B61818"/>
<path d="M14.5 58.965L18.1531 62.6521L21.8402 58.965H14.5Z" fill="#B61818"/>
</svg>
