<svg width="109" height="108" viewBox="0 0 109 108" fill="none" xmlns="http://www.w3.org/2000/svg">
<path fill-rule="evenodd" clip-rule="evenodd" d="M46.935 27H65.8022C73.4491 27 79.7072 31.5966 79.7072 37.2122C79.7072 40.1009 78.0679 42.5532 75.8372 44.2633C78.2318 46.0998 79.7072 48.5875 79.7072 51.3144C79.7072 58.1374 71.6304 61.5289 65.8022 61.5289H48.7448V55.2686L66.1721 55.2265C67.4237 55.2221 70.4386 53.5009 70.4386 51.3144C70.4386 49.3783 67.993 47.4245 66.1721 47.4245H48.7448V41.1642L66.3515 41.1111C67.6895 40.9626 70.4386 39.2968 70.4386 37.2122C70.4386 34.6559 68.6089 33.3223 66.1721 33.3223H46.935C45.196 33.3223 42.8279 31.9001 42.8279 30.1611C42.8279 28.338 45.3223 27 46.935 27Z" fill="#00923F"/>
<path fill-rule="evenodd" clip-rule="evenodd" d="M62.065 68.6774H43.1979C35.5509 68.6774 29.2929 64.083 29.2929 58.4652C29.2929 55.5765 30.9321 53.1265 33.1629 51.4141C30.7682 49.5777 29.2929 47.09 29.2929 44.363C29.2929 37.5423 37.3696 34.1508 43.1979 34.1508H60.2552V40.411L42.8279 40.4531C41.5763 40.4553 38.5636 42.1788 38.5636 44.363C38.5636 46.2991 41.007 48.253 42.8279 48.253H60.2552V54.5132L42.6485 54.5664C41.3105 54.717 38.5636 56.3807 38.5636 58.4652C38.5636 61.0216 40.3912 62.3574 42.8279 62.3574H62.065C63.804 62.3574 66.1721 63.7796 66.1721 65.5185C66.1721 67.3417 63.6777 68.6774 62.065 68.6774Z" fill="#DF4C18"/>
<path fill-rule="evenodd" clip-rule="evenodd" d="M15.5185 77.3988H14.515V71.9117L15.5916 71.3247V73.4912C16.048 73.0991 16.6283 72.9019 17.3328 72.9019C17.7227 72.9019 18.0948 72.9573 18.4426 73.0658C18.7926 73.1744 19.0784 73.3272 19.3044 73.5244C19.5303 73.7238 19.7075 73.9608 19.8338 74.2399C19.9623 74.5168 20.0243 74.8136 20.0243 75.1304C20.0243 75.8836 19.7563 76.4662 19.2202 76.876C18.6797 77.2881 18.035 77.4919 17.2818 77.4919C16.5331 77.4919 15.9461 77.2748 15.5185 76.845V77.3988ZM15.5074 75.1659C15.5074 75.6909 15.6116 76.0719 15.8176 76.3067C16.1565 76.69 16.6128 76.8805 17.191 76.8805C17.6629 76.8805 18.0683 76.7409 18.4094 76.4574C18.7528 76.1738 18.9233 75.7529 18.9233 75.1925C18.9233 74.6187 18.7594 74.1956 18.4316 73.9231C18.1037 73.6507 17.705 73.5133 17.2398 73.5133C16.7679 73.5133 16.3625 73.6551 16.0214 73.9386C15.678 74.22 15.5074 74.6298 15.5074 75.1659ZM25.4893 76.8472C25.0883 77.0843 24.7029 77.2482 24.3329 77.3457C23.9652 77.4431 23.5687 77.4919 23.1434 77.4919C22.4456 77.4919 21.9095 77.3745 21.5329 77.1396C21.1585 76.9048 20.9702 76.6036 20.9702 76.2358C20.9702 76.021 21.0411 75.826 21.1829 75.6466C21.3246 75.4694 21.5107 75.3276 21.7389 75.219C21.9693 75.1127 22.2285 75.0307 22.5142 74.9754C22.7269 74.9377 23.0481 74.9 23.4756 74.8646C24.344 74.7937 24.9864 74.7073 25.3963 74.6076C25.4007 74.5057 25.4029 74.4415 25.4029 74.4149C25.4029 74.1114 25.301 73.8988 25.0972 73.7725C24.8225 73.6041 24.4105 73.5222 23.8677 73.5222C23.3605 73.5222 22.9839 73.5842 22.7446 73.706C22.5009 73.8301 22.3237 74.0472 22.2063 74.3617L21.1541 74.2598C21.2493 73.9475 21.4066 73.695 21.6281 73.5022C21.8474 73.3095 22.1664 73.1633 22.5829 73.0592C22.9972 72.9551 23.4801 72.9019 24.0272 72.9019C24.57 72.9019 25.013 72.9462 25.3542 73.0348C25.6931 73.1256 25.9434 73.2342 26.1029 73.3693C26.2624 73.5044 26.3754 73.6728 26.4396 73.8788C26.4751 74.0051 26.4928 74.2355 26.4928 74.5633V75.5535C26.4928 76.2447 26.5149 76.6811 26.5593 76.8672C26.6036 77.0533 26.6922 77.2283 26.8229 77.3988H25.6975C25.589 77.2415 25.5203 77.0577 25.4893 76.8472ZM25.4029 75.1925C25.0108 75.3032 24.4238 75.3963 23.6396 75.4738C23.1943 75.5159 22.8797 75.5668 22.6959 75.6222C22.5142 75.6776 22.3725 75.7573 22.2728 75.8615C22.1731 75.9678 22.1221 76.0852 22.1221 76.2159C22.1221 76.4108 22.2285 76.577 22.4478 76.7099C22.6671 76.8406 22.9839 76.907 23.4025 76.907C23.8168 76.907 24.1867 76.845 24.5124 76.7188C24.8336 76.5947 25.0728 76.4241 25.2235 76.207C25.3409 76.0387 25.3963 75.7906 25.3963 75.4649L25.4029 75.1925ZM28.1476 77.3988V72.9949H29.1156V73.6219C29.5808 73.1412 30.2543 72.9019 31.1337 72.9019C31.5169 72.9019 31.8692 72.9506 32.1882 73.0459C32.5094 73.1411 32.7508 73.2652 32.9103 73.4203C33.0676 73.5753 33.1806 73.757 33.2448 73.9696C33.2825 74.1092 33.3024 74.3507 33.3024 74.6962V77.3988H32.2258V74.7228C32.2258 74.4193 32.186 74.1912 32.1018 74.0427C32.0176 73.8921 31.8692 73.7725 31.6565 73.6817C31.4438 73.5931 31.1935 73.5465 30.9078 73.5465C30.4492 73.5465 30.0571 73.6484 29.7226 73.85C29.3903 74.0516 29.2264 74.4348 29.2264 74.9975V77.3988H28.1476ZM34.9616 77.3988V71.9117L36.0405 71.3247V74.7849L38.588 72.9949H39.9792L37.5535 74.632L40.225 77.3988H38.8981L36.787 75.1482L36.0405 75.6532V77.3988H34.9616Z" fill="#1F1A17"/>
<path fill-rule="evenodd" clip-rule="evenodd" d="M43.4881 77.2947V72.1775L45.1096 71.2959V73.4601C45.6103 73.057 46.2017 72.8554 46.8885 72.8554C47.6372 72.8554 48.2531 73.0459 48.7426 73.4313C49.2322 73.8146 49.4759 74.3662 49.4759 75.0861C49.4759 75.8282 49.2278 76.3998 48.7293 76.8029C48.2309 77.2039 47.6217 77.4033 46.9106 77.4033C46.5584 77.4033 46.215 77.339 45.8739 77.2127C45.5305 77.0843 45.2381 76.9004 44.9922 76.6567V77.2947H43.4881ZM45.0853 75.0374C45.0853 75.4893 45.1872 75.8238 45.3865 76.0387C45.6701 76.3466 46.0422 76.4994 46.5097 76.4994C46.8685 76.4994 47.1742 76.3909 47.429 76.1738C47.6815 75.9545 47.8078 75.6111 47.8078 75.1437C47.8078 74.6453 47.6793 74.2864 47.4246 74.0649C47.1698 73.8456 46.8442 73.7348 46.4476 73.7348C46.0555 73.7348 45.7321 73.8434 45.4751 74.0583C45.216 74.2731 45.0853 74.5988 45.0853 75.0374ZM54.3383 75.9213L55.9599 76.114C55.7516 76.5349 55.4216 76.8539 54.9741 77.0754C54.5244 77.2947 53.9639 77.4033 53.2905 77.4033C52.2228 77.4033 51.4319 77.1574 50.9224 76.6634C50.517 76.2668 50.3132 75.7662 50.3132 75.1614C50.3132 74.4415 50.5813 73.8766 51.1107 73.469C51.6424 73.0592 52.3136 72.8554 53.1266 72.8554C54.037 72.8554 54.757 73.068 55.2864 73.4956C55.8137 73.9231 56.0662 74.5788 56.0418 75.4605H51.9835C51.9946 75.8016 52.1253 76.0675 52.3756 76.2558C52.6237 76.4463 52.9361 76.5415 53.306 76.5415C53.5608 76.5415 53.7734 76.4928 53.9462 76.3953C54.119 76.2979 54.2497 76.1384 54.3383 75.9213ZM54.4336 74.7561C54.4203 74.4238 54.3006 74.169 54.0703 73.9962C53.8399 73.8212 53.5585 73.7348 53.2285 73.7348C52.874 73.7348 52.5816 73.8279 52.3512 74.0095C52.1209 74.1934 52.0079 74.4437 52.0123 74.7561H54.4336ZM62.9556 77.2947H61.334V75.0795C61.334 74.6098 61.2986 74.3064 61.2277 74.1712C61.1568 74.0317 61.046 73.9253 60.8888 73.85C60.7293 73.7725 60.541 73.7348 60.3194 73.7348C60.0359 73.7348 59.7811 73.7902 59.5552 73.8988C59.3292 74.0073 59.1764 74.1513 59.0922 74.3307C59.008 74.5102 58.9659 74.8424 58.9659 75.3298V77.2947H57.3444V72.9462H58.8485V73.5842C59.3868 73.0968 60.0625 72.8554 60.8821 72.8554C61.241 72.8554 61.5711 72.9019 61.8679 72.9927C62.167 73.0836 62.3929 73.201 62.5435 73.3405C62.6986 73.4845 62.8049 73.644 62.8647 73.8234C62.9246 74.0051 62.9556 74.2621 62.9556 74.5966V77.2947ZM64.4442 77.5716L66.3006 77.7311C66.3338 77.8862 66.4047 77.9925 66.5155 78.0501C66.6705 78.1343 66.912 78.1742 67.2443 78.1742C67.6674 78.1742 67.9864 78.1299 68.199 78.039C68.3408 77.9792 68.4494 77.884 68.5225 77.7488C68.5712 77.6536 68.5978 77.4764 68.5978 77.2216L68.6044 76.5858C68.1149 77.0599 67.5012 77.2947 66.7591 77.2947C65.9351 77.2947 65.2794 77.0488 64.7987 76.5548C64.4198 76.1649 64.2315 75.6798 64.2315 75.0994C64.2315 74.3706 64.4797 73.8146 64.9737 73.4313C65.4699 73.0481 66.0857 72.8554 66.8234 72.8554C67.5832 72.8554 68.2101 73.0902 68.7041 73.562V72.9462H70.2193V76.845C70.2193 77.359 70.1595 77.7422 70.0399 77.9947C69.9203 78.2495 69.7519 78.4466 69.537 78.5928C69.32 78.7368 69.032 78.852 68.6731 78.9318C68.312 79.0137 67.8557 79.0558 67.3063 79.0558C66.2651 79.0558 65.5275 78.9273 65.0911 78.6748C64.6547 78.4201 64.4376 78.1011 64.4376 77.7112C64.4376 77.6735 64.4398 77.627 64.4442 77.5716ZM65.8996 75.033C65.8996 75.4937 66.0259 75.8304 66.2762 76.0453C66.5288 76.258 66.8389 76.3665 67.2088 76.3665C67.6031 76.3665 67.9376 76.2558 68.2101 76.0365C68.4848 75.8172 68.6199 75.4937 68.6199 75.0618C68.6199 74.6121 68.4914 74.2798 68.2278 74.0605C67.9687 73.8434 67.6364 73.7348 67.2354 73.7348C66.8477 73.7348 66.5288 73.8434 66.2762 74.056C66.0259 74.2687 65.8996 74.5943 65.8996 75.033ZM71.7656 77.2947V72.1775L73.3871 71.2959V74.4791L75.2878 72.9462H77.2859L75.1925 74.5367L77.441 77.2947H75.6888L74.1403 75.3342L73.3871 75.9035V77.2947H71.7656ZM82.4652 77.2947V76.6456C82.2414 76.876 81.9468 77.0599 81.5835 77.1995C81.218 77.3368 80.8325 77.4033 80.4294 77.4033C80.0151 77.4033 79.6429 77.339 79.3173 77.2127C78.9872 77.0821 78.7502 76.9004 78.604 76.67C78.4556 76.4374 78.3847 76.1162 78.3847 75.7042V72.9462H80.004V74.9488C80.004 75.5624 80.035 75.9368 80.0949 76.0741C80.1547 76.2137 80.2632 76.3244 80.4227 76.4042C80.58 76.4839 80.7816 76.5238 81.0275 76.5238C81.3044 76.5238 81.5525 76.4706 81.774 76.3621C81.9955 76.2558 82.144 76.1206 82.2259 75.9611C82.3057 75.7994 82.3477 75.4095 82.3477 74.7849V72.9462H83.9693V77.2947H82.4652ZM85.6352 77.2947V72.1775L87.2567 71.2959V77.2947H85.6352ZM92.9831 77.2947V76.6456C92.7571 76.876 92.4625 77.0599 92.0992 77.1995C91.7337 77.3368 91.3482 77.4033 90.9451 77.4033C90.5308 77.4033 90.1609 77.339 89.833 77.2127C89.503 77.0821 89.2659 76.9004 89.1197 76.67C88.9735 76.4374 88.9004 76.1162 88.9004 75.7042V72.9462H90.5198V74.9488C90.5198 75.5624 90.5508 75.9368 90.6106 76.0741C90.6704 76.2137 90.7789 76.3244 90.9384 76.4042C91.0957 76.4839 91.2973 76.5238 91.5432 76.5238C91.8201 76.5238 92.0682 76.4706 92.2897 76.3621C92.5112 76.2558 92.6597 76.1206 92.7416 75.9611C92.8214 75.7994 92.8635 75.4095 92.8635 74.7849V72.9462H94.485V77.2947H92.9831Z" fill="#1F1A17"/>
<path d="M15.246 79.5144L15.2793 79.6938C15.2128 79.7071 15.153 79.7138 15.0998 79.7138C15.0157 79.7138 14.9492 79.7005 14.9005 79.6783C14.8539 79.6539 14.8207 79.6229 14.803 79.5853C14.7831 79.5454 14.7742 79.4656 14.7742 79.3438V78.646H14.5992V78.4887H14.7742V78.1897L15.009 78.0678V78.4887H15.246V78.646H15.009V79.3549C15.009 79.4125 15.0134 79.4501 15.0223 79.4679C15.0312 79.4834 15.0445 79.4967 15.0622 79.5077C15.0821 79.5166 15.1087 79.521 15.1441 79.521C15.1685 79.521 15.204 79.5188 15.246 79.5144Z" fill="#1F1A17"/>
<path d="M47.5154 79.5144L47.5486 79.6938C47.4821 79.7071 47.4223 79.7138 47.3714 79.7138C47.285 79.7138 47.2185 79.7005 47.172 79.6783C47.1255 79.6539 47.0923 79.6229 47.0723 79.5853C47.0524 79.5454 47.0435 79.4656 47.0435 79.3438V78.646H46.8685V78.4887H47.0435V78.1897L47.2806 78.0678V78.4887H47.5154V78.646H47.2806V79.3549C47.2806 79.4125 47.285 79.4501 47.2916 79.4679C47.3005 79.4834 47.3138 79.4967 47.3315 79.5077C47.3515 79.5166 47.378 79.521 47.4135 79.521C47.4401 79.521 47.4733 79.5188 47.5154 79.5144Z" fill="#1F1A17"/>
<path d="M17.8977 79.5454C17.7825 79.6096 17.6717 79.6562 17.5654 79.6827C17.4591 79.7093 17.3439 79.7226 17.222 79.7226C17.0204 79.7226 16.8654 79.6894 16.7568 79.6251C16.6483 79.5609 16.5951 79.4789 16.5951 79.377C16.5951 79.3194 16.6151 79.2641 16.6549 79.2153C16.697 79.1666 16.7502 79.1289 16.8166 79.0979C16.8831 79.0691 16.9562 79.047 17.0404 79.0315C17.1002 79.0204 17.1932 79.0115 17.3173 79.0004C17.5676 78.9805 17.7537 78.9584 17.8711 78.9318C17.8733 78.903 17.8733 78.8853 17.8733 78.8786C17.8733 78.7944 17.8445 78.7368 17.7847 78.7014C17.705 78.6549 17.5875 78.6327 17.4303 78.6327C17.2841 78.6327 17.1755 78.6504 17.1068 78.6837C17.036 78.7169 16.985 78.7767 16.9518 78.8631L16.6483 78.8343C16.6749 78.7501 16.7214 78.6792 16.7834 78.6283C16.8477 78.5751 16.9385 78.5352 17.0603 78.5064C17.1799 78.4776 17.3195 78.4621 17.4768 78.4621C17.6319 78.4621 17.7603 78.4754 17.8578 78.4998C17.9575 78.5242 18.0284 78.5552 18.0749 78.5906C18.1214 78.6283 18.1524 78.6748 18.1724 78.7302C18.1812 78.7656 18.1879 78.8277 18.1879 78.9185V79.191C18.1879 79.3793 18.1945 79.4989 18.2056 79.5498C18.2189 79.6008 18.2455 79.6495 18.2831 79.696H17.9575C17.9265 79.6539 17.9065 79.603 17.8977 79.5454ZM17.8733 79.0913C17.7603 79.1223 17.5898 79.1467 17.3638 79.1688C17.2353 79.1799 17.1445 79.1932 17.0913 79.2087C17.0404 79.2242 16.9983 79.2463 16.9695 79.2751C16.9407 79.3039 16.9274 79.3372 16.9274 79.3726C16.9274 79.4258 16.9584 79.4723 17.0204 79.5077C17.0847 79.5432 17.1755 79.5609 17.2951 79.5609C17.4148 79.5609 17.5211 79.5454 17.6163 79.5099C17.7094 79.4767 17.7781 79.428 17.8201 79.3704C17.8556 79.3239 17.8711 79.2552 17.8711 79.1666L17.8733 79.0913Z" fill="#1F1A17"/>
<path d="M40.1386 79.5321C40.0235 79.5963 39.9127 79.6429 39.8064 79.6694C39.7 79.696 39.5848 79.7093 39.463 79.7093C39.2614 79.7093 39.1063 79.6761 38.9978 79.6119C38.8915 79.5476 38.8361 79.4656 38.8361 79.3637C38.8361 79.3061 38.856 79.253 38.8981 79.202C38.938 79.1533 38.9934 79.1156 39.0576 79.0868C39.1241 79.0558 39.1994 79.0337 39.2814 79.0182C39.3434 79.0093 39.4364 78.9982 39.5583 78.9872C39.8086 78.9694 39.9947 78.9451 40.1121 78.9185C40.1143 78.8897 40.1143 78.872 40.1143 78.8653C40.1143 78.7811 40.0855 78.7235 40.0257 78.6881C39.9481 78.6438 39.8285 78.6194 39.6712 78.6194C39.525 78.6194 39.4165 78.6371 39.3478 78.6704C39.2769 78.7036 39.226 78.7634 39.1927 78.8498L38.8893 78.8232C38.9158 78.7368 38.9624 78.6682 39.0266 78.615C39.0886 78.5618 39.1817 78.522 39.3013 78.4932C39.4209 78.4644 39.5605 78.4511 39.7178 78.4511C39.875 78.4511 40.0013 78.4621 40.101 78.4865C40.1985 78.5109 40.2716 78.5419 40.3159 78.5773C40.3624 78.615 40.3956 78.6615 40.4133 78.7169C40.4244 78.7523 40.4288 78.8166 40.4288 78.9052V79.1777C40.4288 79.3682 40.4355 79.4878 40.4488 79.5387C40.4599 79.5897 40.4864 79.6362 40.5241 79.6827H40.2007C40.1674 79.6406 40.1475 79.5897 40.1386 79.5321ZM40.1143 79.078C40.0013 79.109 39.8329 79.1334 39.607 79.1555C39.4785 79.1666 39.3877 79.1799 39.3345 79.1954C39.2814 79.2109 39.2415 79.233 39.2127 79.2618C39.1839 79.2906 39.1684 79.3239 39.1684 79.3593C39.1684 79.4125 39.1994 79.459 39.2614 79.4944C39.3257 79.5299 39.4165 79.5498 39.5383 79.5498C39.6579 79.5498 39.7643 79.5321 39.8573 79.4967C39.9504 79.4634 40.019 79.4169 40.0633 79.3571C40.0966 79.3106 40.1121 79.2419 40.1121 79.1533L40.1143 79.078Z" fill="#1F1A17"/>
<path d="M19.7208 79.696V78.4887H20.0022V78.6593C20.1395 78.5286 20.3367 78.4621 20.5936 78.4621C20.7044 78.4621 20.8085 78.4754 20.9015 78.502C20.9946 78.5286 21.0655 78.5618 21.112 78.6039C21.1585 78.6482 21.1917 78.697 21.2095 78.7568C21.2205 78.7944 21.2272 78.8609 21.2272 78.9539V79.696H20.9126V78.9628C20.9126 78.8786 20.8993 78.8166 20.875 78.7745C20.8506 78.7346 20.8085 78.7014 20.7465 78.677C20.6844 78.6527 20.6091 78.6394 20.5272 78.6394C20.392 78.6394 20.2768 78.6682 20.1816 78.7235C20.0841 78.7789 20.0354 78.883 20.0354 79.0381V79.696H19.7208Z" fill="#1F1A17"/>
<path d="M41.9618 79.696V78.4887H42.2453V78.6593C42.3805 78.5286 42.5776 78.4621 42.8346 78.4621C42.9476 78.4621 43.0495 78.4754 43.1425 78.502C43.2355 78.5286 43.3064 78.5618 43.353 78.6039C43.3995 78.6482 43.4327 78.697 43.4504 78.7568C43.4637 78.7944 43.4681 78.8609 43.4681 78.9539V79.696H43.1536V78.9628C43.1536 78.8786 43.1425 78.8166 43.1181 78.7745C43.0938 78.7346 43.0495 78.7014 42.9874 78.677C42.9254 78.6527 42.8523 78.6394 42.7681 78.6394C42.6352 78.6394 42.52 78.6682 42.4226 78.7235C42.3251 78.7789 42.2763 78.883 42.2763 79.0381V79.696H41.9618Z" fill="#1F1A17"/>
<path d="M22.7136 79.7957L23.0082 79.8245C23.0215 79.8865 23.0547 79.9308 23.1123 79.9596C23.1877 79.9973 23.2918 80.015 23.4247 80.015C23.5665 80.015 23.675 79.9973 23.7525 79.9596C23.8301 79.922 23.881 79.8688 23.9098 79.8001C23.9253 79.7581 23.932 79.6717 23.932 79.5387C23.7969 79.6429 23.6307 79.696 23.4313 79.696C23.1832 79.696 22.9905 79.6362 22.8554 79.5166C22.718 79.397 22.6494 79.253 22.6494 79.0868C22.6494 78.9716 22.6826 78.8653 22.7446 78.7678C22.8066 78.6704 22.8953 78.5951 23.0149 78.5419C23.1323 78.4887 23.2718 78.4621 23.4313 78.4621C23.644 78.4621 23.8212 78.522 23.9586 78.6371V78.4887H24.2399V79.5321C24.2399 79.7204 24.2133 79.8533 24.1557 79.9308C24.0981 80.0106 24.0073 80.0726 23.8832 80.1169C23.7592 80.1634 23.6063 80.1856 23.4269 80.1856C23.2098 80.1856 23.037 80.1524 22.9041 80.0881C22.7712 80.0239 22.7092 79.9264 22.7136 79.7957ZM22.9639 79.0713C22.9639 79.2308 23.0104 79.346 23.1035 79.4169C23.1987 79.49 23.3161 79.5277 23.4579 79.5277C23.5997 79.5277 23.7171 79.49 23.8124 79.4191C23.9076 79.346 23.9563 79.233 23.9563 79.078C23.9563 78.9318 23.9054 78.8188 23.8079 78.7457C23.7105 78.6704 23.5908 78.6327 23.4535 78.6327C23.3184 78.6327 23.201 78.6704 23.1057 78.7435C23.0104 78.8166 22.9639 78.9273 22.9639 79.0713Z" fill="#1F1A17"/>
<path d="M25.7551 79.7957L26.0497 79.8245C26.063 79.8865 26.0985 79.9308 26.1539 79.9596C26.2314 79.9973 26.3333 80.015 26.4662 80.015C26.608 80.015 26.7165 79.9973 26.7941 79.9596C26.8716 79.922 26.9226 79.8688 26.9513 79.8001C26.9669 79.7581 26.9735 79.6717 26.9735 79.5387C26.8384 79.6429 26.6722 79.696 26.4729 79.696C26.2248 79.696 26.032 79.6362 25.8969 79.5166C25.7596 79.397 25.6931 79.253 25.6931 79.0868C25.6931 78.9716 25.7241 78.8653 25.7861 78.7678C25.8482 78.6704 25.939 78.5951 26.0564 78.5419C26.1738 78.4887 26.3134 78.4621 26.4751 78.4621C26.6877 78.4621 26.8627 78.522 27.0001 78.6371V78.4887H27.2836V79.5321C27.2836 79.7204 27.2548 79.8533 27.1972 79.9308C27.1396 80.0106 27.0488 80.0726 26.9248 80.1169C26.8007 80.1634 26.6479 80.1856 26.4684 80.1856C26.2513 80.1856 26.0785 80.1524 25.9456 80.0881C25.8149 80.0239 25.7507 79.9264 25.7551 79.7957ZM26.0054 79.0713C26.0054 79.2308 26.052 79.346 26.1472 79.4169C26.2403 79.49 26.3577 79.5277 26.4994 79.5277C26.6412 79.5277 26.7586 79.49 26.8539 79.4191C26.9491 79.346 26.9979 79.233 26.9979 79.078C26.9979 78.9318 26.9469 78.8188 26.8494 78.7457C26.752 78.6704 26.6346 78.6327 26.495 78.6327C26.3599 78.6327 26.2447 78.6704 26.1472 78.7435C26.052 78.8166 26.0054 78.9273 26.0054 79.0713Z" fill="#1F1A17"/>
<path d="M30.0394 79.696V79.5166C29.8932 79.6539 29.6938 79.7226 29.4435 79.7226C29.3327 79.7226 29.2308 79.7093 29.1334 79.6805C29.0381 79.6539 28.9672 79.6207 28.9207 79.5786C28.8742 79.5365 28.8409 79.4856 28.8232 79.428C28.8099 79.3859 28.8033 79.3239 28.8033 79.2353V78.4887H29.1223V79.1577C29.1223 79.2641 29.1289 79.3349 29.1422 79.3726C29.1622 79.4258 29.2042 79.4679 29.2685 79.4989C29.3327 79.5299 29.4125 79.5454 29.5077 79.5454C29.603 79.5454 29.6938 79.5299 29.7758 79.4989C29.86 79.4679 29.9198 79.4236 29.953 79.3704C29.9884 79.315 30.0062 79.2375 30.0062 79.1334V78.4887H30.3252V79.696H30.0394Z" fill="#1F1A17"/>
<path d="M50.2645 79.696V79.5166C50.1183 79.6539 49.9211 79.7226 49.6708 79.7226C49.56 79.7226 49.4559 79.7093 49.3607 79.6805C49.2654 79.6539 49.1923 79.6207 49.1458 79.5786C49.0993 79.5365 49.0683 79.4856 49.0483 79.428C49.0372 79.3859 49.0306 79.3239 49.0306 79.2353V78.4887H49.3474V79.1577C49.3474 79.2641 49.354 79.3349 49.3673 79.3726C49.3873 79.4258 49.4293 79.4679 49.4958 79.4989C49.56 79.5299 49.6398 79.5454 49.735 79.5454C49.8303 79.5454 49.9189 79.5299 50.0031 79.4989C50.0851 79.4679 50.1449 79.4236 50.1803 79.3704C50.2135 79.315 50.2313 79.2375 50.2313 79.1334V78.4887H50.5503V79.696H50.2645Z" fill="#1F1A17"/>
<path d="M60.3106 79.696V79.5166C60.1644 79.6539 59.9672 79.7226 59.7169 79.7226C59.6061 79.7226 59.502 79.7093 59.4068 79.6805C59.3115 79.6539 59.2406 79.6207 59.1941 79.5786C59.1476 79.5365 59.1144 79.4856 59.0944 79.428C59.0833 79.3859 59.0767 79.3239 59.0767 79.2353V78.4887H59.3957V79.1577C59.3957 79.2641 59.4023 79.3349 59.4134 79.3726C59.4333 79.4258 59.4754 79.4679 59.5419 79.4989C59.6061 79.5299 59.6859 79.5454 59.7811 79.5454C59.8764 79.5454 59.965 79.5299 60.0492 79.4989C60.1334 79.4679 60.191 79.4236 60.2264 79.3704C60.2618 79.315 60.2774 79.2375 60.2774 79.1334V78.4887H60.5963V79.696H60.3106Z" fill="#1F1A17"/>
<path d="M30.8413 79.696V78.0302H31.1559V78.6305C31.3021 78.5175 31.4859 78.4621 31.7097 78.4621C31.847 78.4621 31.9644 78.4799 32.0663 78.5153C32.1682 78.5508 32.2391 78.5995 32.2834 78.6615C32.3255 78.7235 32.3477 78.8144 32.3477 78.9318V79.696H32.0331V78.9318C32.0331 78.8299 31.9999 78.7568 31.9312 78.7103C31.8625 78.6637 31.7673 78.6394 31.6432 78.6394C31.5524 78.6394 31.4638 78.6549 31.3818 78.6859C31.2999 78.7191 31.2423 78.7612 31.2068 78.8144C31.1736 78.8675 31.1559 78.9428 31.1559 79.0381V79.696H30.8413Z" fill="#1F1A17"/>
<path d="M62.1559 79.696V78.0302H62.4704V78.6305C62.6166 78.5175 62.8005 78.4621 63.0242 78.4621C63.1616 78.4621 63.279 78.4799 63.3809 78.5153C63.4828 78.5508 63.5537 78.5995 63.598 78.6615C63.6423 78.7235 63.6622 78.8144 63.6622 78.9318V79.696H63.3477V78.9318C63.3477 78.8299 63.3144 78.7568 63.2458 78.7103C63.1793 78.6637 63.0818 78.6394 62.9578 78.6394C62.867 78.6394 62.7784 78.6549 62.6964 78.6859C62.6166 78.7191 62.5568 78.7612 62.5236 78.8144C62.4882 78.8675 62.4704 78.9428 62.4704 79.0381V79.696H62.1559Z" fill="#1F1A17"/>
<path d="M37.0683 79.696V79.5432C36.9509 79.6628 36.7803 79.7226 36.5544 79.7226C36.4082 79.7226 36.2753 79.696 36.1534 79.6429C36.0294 79.5897 35.9341 79.5166 35.8677 79.4213C35.8012 79.3261 35.7658 79.2175 35.7658 79.0935C35.7658 78.9739 35.7968 78.8653 35.8588 78.7656C35.9186 78.6682 36.0094 78.5928 36.1335 78.5419C36.2531 78.4887 36.3905 78.4621 36.5411 78.4621C36.6519 78.4621 36.7493 78.4777 36.8357 78.5087C36.9221 78.5397 36.993 78.5796 37.0462 78.6283V78.0302H37.3563V79.696H37.0683ZM36.0848 79.0935C36.0848 79.2486 36.1335 79.3637 36.2332 79.4391C36.3329 79.5166 36.4503 79.5543 36.5854 79.5543C36.7205 79.5543 36.8357 79.5188 36.931 79.4457C37.0262 79.3726 37.075 79.2618 37.075 79.1112C37.075 78.9473 37.0262 78.8254 36.9288 78.7479C36.8335 78.6704 36.7139 78.6327 36.5699 78.6327C36.4326 78.6327 36.3174 78.6704 36.2243 78.7435C36.1313 78.8188 36.0848 78.934 36.0848 79.0935Z" fill="#1F1A17"/>
<path d="M52.0522 79.7226V78.5131H52.3291V78.6837C52.3845 78.6261 52.4598 78.5773 52.555 78.5419C52.6481 78.5064 52.7544 78.4887 52.8763 78.4887C53.0092 78.4887 53.1199 78.5064 53.2041 78.5441C53.2905 78.5818 53.3503 78.6327 53.3858 78.6992C53.5297 78.5596 53.7158 78.4887 53.9462 78.4887C54.1256 78.4887 54.263 78.522 54.3605 78.5884C54.4579 78.6549 54.5067 78.7568 54.5067 78.8941V79.7226H54.1987V78.9628C54.1987 78.8808 54.1899 78.821 54.1699 78.7856C54.15 78.7501 54.1146 78.7213 54.0614 78.6992C54.0082 78.677 53.9462 78.6659 53.8775 78.6659C53.7491 78.6659 53.6427 78.6947 53.5585 78.7501C53.4744 78.8077 53.4323 78.8963 53.4323 79.0204V79.7226H53.1266V78.9384C53.1266 78.8476 53.1022 78.7789 53.0513 78.7346C53.0025 78.6881 52.9206 78.6659 52.8054 78.6659C52.7212 78.6659 52.6414 78.6814 52.5683 78.7102C52.4952 78.7413 52.4421 78.7856 52.4088 78.8432C52.3756 78.903 52.3601 78.9872 52.3601 79.0957V79.7226H52.0522Z" fill="#1F1A17"/>
<path d="M56.3431 79.696H56.0485V78.0302H56.3652V78.6239C56.5004 78.5175 56.671 78.4621 56.8792 78.4621C56.9944 78.4621 57.1029 78.4776 57.207 78.5064C57.3089 78.5375 57.3953 78.5796 57.4618 78.6327C57.5282 78.6881 57.5792 78.7523 57.6169 78.8299C57.6545 78.9052 57.6745 78.9872 57.6745 79.0736C57.6745 79.2818 57.5947 79.4413 57.4352 79.552C57.2757 79.665 57.0874 79.7226 56.8637 79.7226C56.6422 79.7226 56.4694 79.6628 56.3431 79.5454V79.696ZM56.3409 79.0846C56.3409 79.2286 56.3719 79.3327 56.4317 79.397C56.5314 79.5011 56.6665 79.5543 56.8371 79.5543C56.9767 79.5543 57.0963 79.5166 57.196 79.4391C57.2979 79.3615 57.3488 79.2441 57.3488 79.0913C57.3488 78.934 57.3001 78.8188 57.2026 78.7435C57.1051 78.6682 56.9899 78.6305 56.8504 78.6305C56.713 78.6305 56.5934 78.6704 56.4915 78.7479C56.3918 78.8254 56.3409 78.9362 56.3409 79.0846Z" fill="#1F1A17"/>
</svg>
