<svg width="108" height="108" viewBox="0 0 108 108" fill="none" xmlns="http://www.w3.org/2000/svg">
<path d="M15.9082 49.2046H20.8525C21.6311 49.2046 22.2311 49.3833 22.6475 49.744C23.0656 50.1013 23.2727 50.5604 23.2727 51.1248C23.2727 51.7216 23.0601 52.2243 22.6344 52.6281C22.2066 53.0347 21.5005 53.3046 20.5148 53.438C21.2896 53.5068 21.8814 53.7309 22.2858 54.1106C22.6885 54.4866 22.8902 54.9718 22.8902 55.5587C22.8902 56.0855 22.735 56.5522 22.4251 56.9598C22.1984 57.2615 21.8098 57.5292 21.2601 57.7658C20.7087 58.003 20.1158 58.121 19.4847 58.121H14L14.1317 57.5822H14.712C15.0497 57.5822 15.2612 57.4013 15.3486 57.0407L17.0568 50.333C17.076 50.2543 17.0858 50.1735 17.0858 50.0997C17.0858 49.9899 17.0437 49.9024 16.9596 49.8407C16.8749 49.7757 16.7208 49.744 16.4995 49.744H15.7814L15.9082 49.2046ZM17.9825 53.7866L17.1645 56.9724C17.1388 57.0604 17.1295 57.1451 17.1295 57.2232C17.1295 57.3363 17.1738 57.4205 17.2623 57.4757C17.3508 57.533 17.5262 57.5576 17.7929 57.5576H18.765C19.2235 57.5576 19.6055 57.4718 19.9158 57.2937C20.2262 57.1166 20.4825 56.838 20.6836 56.4494C20.882 56.0625 20.9831 55.6533 20.9831 55.2243C20.9831 54.7795 20.8383 54.4287 20.5536 54.1702C20.2645 53.9134 19.8475 53.7866 19.2956 53.7866H17.9825ZM18.1481 53.2254H19.2989C19.6437 53.2254 19.953 53.1615 20.224 53.038C20.5847 52.8707 20.8749 52.6084 21.0874 52.256C21.3016 51.9002 21.4082 51.4975 21.4082 51.0483C21.4082 50.5538 21.2601 50.2008 20.9607 49.9877C20.7508 49.8407 20.3661 49.7658 19.8071 49.7658C19.4803 49.7658 19.2612 49.8019 19.1481 49.868C19.035 49.9358 18.953 50.0658 18.9016 50.2549L18.1481 53.2254Z" fill="#332C2B"/>
<path d="M29.2902 49.2046H30.0934L31.1016 56.8926C31.1311 57.1303 31.2055 57.2981 31.3213 57.3888C31.4825 57.5183 31.6962 57.5822 31.9628 57.5822H32.229L32.0874 58.121H28.1743L28.3066 57.5822H28.594C28.8945 57.5822 29.1011 57.5434 29.2093 57.4598C29.3191 57.3795 29.3743 57.2571 29.3743 57.0915C29.3743 57.0325 29.3678 56.9675 29.3557 56.8926L29.1448 55.2915H26.2705L25.7005 56.2183C25.5432 56.4822 25.465 56.7259 25.465 56.9451C25.465 57.1456 25.5262 57.2997 25.6519 57.4128C25.7754 57.527 25.9683 57.5822 26.2251 57.5822H26.4601L26.3268 58.121H23.2771L23.4104 57.5822C23.6721 57.5631 23.8825 57.4992 24.0366 57.386C24.3311 57.1664 24.5525 56.9336 24.7027 56.686L29.2902 49.2046ZM28.6383 51.4298L26.6831 54.6177H29.0574L28.6383 51.4298Z" fill="#332C2B"/>
<path d="M34.9896 49.2046H37.5536L40.4262 55.4183L41.4383 51.0396C41.4831 50.8565 41.5066 50.7041 41.5066 50.5921C41.5066 50.333 41.424 50.1276 41.2612 49.9746C41.1 49.821 40.8809 49.744 40.6082 49.744H40.3623L40.506 49.2046H43.441L43.2902 49.744C42.9847 49.7604 42.7497 49.8489 42.5885 50.0112C42.3617 50.2407 42.2027 50.5505 42.1082 50.9418L40.4514 58.121H39.7951L36.4885 51.0418L35.1765 55.9587C35.1191 56.1942 35.0891 56.3828 35.0891 56.5303C35.0891 56.8412 35.1913 57.0953 35.3907 57.2833C35.5913 57.4751 35.8847 57.5735 36.2667 57.5822L36.1399 58.121H32.8628L32.9962 57.5822C33.376 57.5631 33.6809 57.4489 33.9197 57.2352C34.1585 57.0183 34.3257 56.721 34.4213 56.3418L35.9536 50.5937C35.9924 50.4505 36.012 50.3429 36.012 50.2768C36.012 50.1117 35.9475 49.9811 35.8197 49.8849C35.6923 49.7893 35.4645 49.744 35.1388 49.744H34.8464L34.9896 49.2046Z" fill="#332C2B"/>
<path d="M44.9153 49.2046H48.8852L48.7301 49.744H48.2781C48.0776 49.744 47.9262 49.7893 47.8235 49.8839C47.7186 49.98 47.635 50.1478 47.5754 50.3915L46.6754 53.9358L50.0924 50.8128C50.3421 50.5751 50.4678 50.368 50.4678 50.1926C50.4678 50.0604 50.4148 49.9538 50.3104 49.8696C50.2093 49.7855 50.0481 49.744 49.835 49.744H49.6109L49.7486 49.2046H53.0317L52.8896 49.744C52.5404 49.7713 52.2421 49.8489 51.9951 49.9675C51.747 50.0888 51.447 50.3188 51.0891 50.656L48.8481 52.7057L50.8055 57.0232C50.8678 57.1664 50.9393 57.2729 51.0208 57.3456C51.1033 57.4205 51.2246 57.4817 51.3858 57.533C51.4891 57.5631 51.6809 57.5822 51.9618 57.5822L51.8219 58.121H47.8393L47.9852 57.5822H48.5005C48.6973 57.5822 48.8372 57.5483 48.9213 57.4828C49.0055 57.4145 49.0475 57.3276 49.0475 57.2205C49.0475 57.1358 49.0311 57.0576 48.9945 56.9828L47.5803 53.8642L46.423 54.9183L45.8721 57.0888C45.8601 57.133 45.8557 57.1795 45.8557 57.2265C45.8557 57.3374 45.8989 57.4259 45.9863 57.486C46.0743 57.55 46.2273 57.5822 46.4481 57.5822H47.0546L46.9115 58.121H42.8557L42.9956 57.5822H43.3383C43.5689 57.5822 43.741 57.5369 43.8552 57.4494C43.9661 57.362 44.0481 57.2205 44.0978 57.0232L45.8044 50.3139C45.824 50.2494 45.8333 50.1839 45.8333 50.1172C45.8333 49.9986 45.7902 49.9084 45.7011 49.8418C45.612 49.7773 45.4634 49.744 45.247 49.744H44.782L44.9153 49.2046Z" fill="#332C2B"/>
<path d="M69.7683 49.1686H73.8464C75.012 49.1686 75.9027 49.486 76.5208 50.127C77.1355 50.7636 77.4448 51.6554 77.4448 52.7937C77.4448 53.5374 77.3109 54.2636 77.0415 54.9811C76.7727 55.6997 76.4279 56.2806 76.0126 56.7243C75.594 57.1702 75.0617 57.5276 74.4066 57.7948C73.753 58.0653 73.0169 58.2002 72.2049 58.2002H67.9022L68.047 57.6543H68.5246C68.8525 57.6543 69.0617 57.4554 69.159 57.0571L70.8923 50.2467C70.9087 50.1926 70.9148 50.1401 70.9148 50.0822C70.9148 49.9658 70.8699 49.8757 70.782 49.8128C70.6929 49.7489 70.5208 49.715 70.2699 49.715H69.6005L69.7683 49.1686ZM72.1126 57.6292C72.5503 57.6292 72.9678 57.5172 73.3623 57.2893C73.7574 57.0604 74.1016 56.733 74.3984 56.3024C74.6945 55.8735 74.9541 55.2582 75.1765 54.4527C75.3984 53.65 75.5104 52.8817 75.5104 52.1478C75.5104 51.3582 75.3333 50.744 74.9765 50.3046C74.6661 49.9276 74.1869 49.7369 73.5377 49.7369C73.2448 49.7369 73.0475 49.7707 72.9432 49.8369C72.8415 49.9046 72.765 50.0237 72.7197 50.1926L70.9672 57.0757C70.9519 57.138 70.9443 57.1937 70.9443 57.2462C70.9443 57.368 70.9781 57.4593 71.0426 57.5145C71.1317 57.5937 71.2607 57.6292 71.4333 57.6292H72.1126Z" fill="#332C2B"/>
<path d="M80.1994 49.1686H84.2224L84.0645 49.715H83.6071C83.4027 49.715 83.2503 49.7609 83.1459 49.8565C83.0388 49.9538 82.9574 50.1243 82.8956 50.3707L81.9836 53.9609L85.4459 50.7975C85.6973 50.5565 85.8251 50.3467 85.8251 50.1696C85.8251 50.0352 85.7727 49.9276 85.6667 49.8423C85.5623 49.7571 85.4011 49.715 85.1836 49.715H84.9585L85.0945 49.1686H88.4219L88.2792 49.715C87.9251 49.7429 87.6208 49.821 87.371 49.9412C87.1208 50.0642 86.8158 50.297 86.4557 50.6385L84.1814 52.715L86.1672 57.0877C86.2295 57.233 86.3027 57.3407 86.3863 57.4145C86.4683 57.491 86.5924 57.5522 86.7546 57.6046C86.8607 57.6352 87.0541 57.6543 87.3372 57.6543L87.1973 58.2002H83.1645L83.3104 57.6543H83.8333C84.0311 57.6543 84.1738 57.6199 84.2596 57.5538C84.3448 57.4844 84.3863 57.3959 84.3863 57.2877C84.3863 57.2019 84.3699 57.1227 84.335 57.0472L82.9022 53.8882L81.7284 54.956L81.1699 57.1549C81.1579 57.1992 81.153 57.2467 81.153 57.2942C81.153 57.4063 81.1984 57.4959 81.2863 57.5571C81.376 57.6216 81.5295 57.6543 81.7525 57.6543H82.3683L82.2235 58.2002H78.1158L78.2541 57.6543H78.6044C78.8366 57.6543 79.0131 57.6084 79.1251 57.5199C79.2393 57.4314 79.3213 57.2877 79.3749 57.0877L81.1016 50.2921C81.1208 50.227 81.1301 50.1604 81.1301 50.0931C81.1301 49.9724 81.0852 49.8817 80.9978 49.8139C80.9071 49.7489 80.7541 49.715 80.5372 49.715H80.065L80.1994 49.1686Z" fill="#332C2B"/>
<path d="M89.7607 49.1686H94L93.8607 49.715H93.3667C93.1366 49.715 92.9721 49.7494 92.8749 49.821C92.7738 49.8915 92.7038 50.0112 92.6612 50.1773L90.9077 57.0751C90.8907 57.1489 90.8825 57.2117 90.8825 57.262C90.8825 57.3899 90.9197 57.4789 90.9934 57.5314C91.1077 57.615 91.2732 57.6543 91.4945 57.6543H92.123L91.9831 58.2002H87.8448L87.9902 57.6543H88.4557C88.7885 57.6543 88.9924 57.497 89.0661 57.1784L90.8148 50.3117C90.8328 50.2314 90.8432 50.1543 90.8432 50.08C90.8432 49.9658 90.8027 49.8757 90.7246 49.8128C90.6432 49.7467 90.5049 49.715 90.3087 49.715H89.6317L89.7607 49.1686Z" fill="#332C2B"/>
<path d="M60.7022 59.6789C60.7022 59.6789 59.9574 58.0784 59.2563 56.5707L59.2557 56.5686C58.6432 55.2511 58.0617 54.0063 58.041 53.9571C57.9978 53.8669 57.9404 53.7074 57.9902 53.5237C58.0279 53.386 58.1847 53.1489 58.2984 53.003C58.5137 52.7281 58.5787 52.5839 58.6077 52.3839L61.7743 59.1784L61.7721 59.1795L62.1475 59.9844C62.5448 59.9052 62.9273 59.7855 63.2934 59.638C62.8628 58.7134 62.4229 57.7642 62.1492 57.1773L62.1459 57.1789C62.1459 57.1789 59.5317 51.5615 59.4825 51.4576C59.4399 51.3675 59.3831 51.2074 59.4328 51.0243C59.471 50.8866 59.6273 50.6489 59.7415 50.5046C59.9568 50.2298 60.0208 50.0839 60.0503 49.8839L64.3448 59.097C64.6896 58.8806 65.0082 58.6325 65.3044 58.3576C64.7339 57.1314 63.9705 55.4915 63.5929 54.6784L63.588 54.6795C63.588 54.6795 60.9743 49.0625 60.9246 48.9587C60.8836 48.8686 60.8257 48.709 60.8765 48.5254C60.9137 48.3882 61.0705 48.15 61.1842 48.0052C61.4005 47.7298 61.4645 47.5849 61.4918 47.3849L66.1585 57.3921C66.9399 56.3134 67.4049 54.9921 67.4049 53.5576C67.4049 49.9369 64.4699 47.0013 60.8486 47.0013C57.2279 47.0013 54.2923 49.9369 54.2923 53.5576C54.2923 56.1516 55.8049 58.3871 57.9891 59.45C57.3158 58.0024 56.6213 56.5095 56.5973 56.456C56.5557 56.3658 56.4967 56.2063 56.5464 56.0227C56.5852 55.8855 56.7415 55.6478 56.8557 55.503C57.0705 55.2276 57.135 55.0828 57.1634 54.8828L59.5426 59.9833C59.9639 60.0675 60.4011 60.1134 60.8486 60.1134C60.8683 60.1134 60.8847 60.1112 60.9033 60.1106C60.8361 59.9691 60.7683 59.8243 60.7022 59.6789Z" fill="#E62129"/>
</svg>
