<svg width="108" height="108" viewBox="0 0 108 108" fill="none" xmlns="http://www.w3.org/2000/svg">
<path fill-rule="evenodd" clip-rule="evenodd" d="M14.0001 72.5583V58.2941H16.5552V63.4408C17.3431 62.4808 18.2765 61.9983 19.3577 61.9983C20.5358 61.9983 21.508 62.4541 22.2789 63.368C23.0474 64.2796 23.4328 65.5911 23.4328 67.3026C23.4328 69.0699 23.0425 70.4299 22.2571 71.3874C21.4692 72.3402 20.514 72.8177 19.3916 72.8177C18.8389 72.8177 18.2934 72.665 17.7577 72.362C17.2195 72.0565 16.7565 71.6202 16.3686 71.0408V72.5583H14.0001ZM16.5165 67.1886C16.5165 68.2626 16.6765 69.0577 16.9916 69.5693C17.4377 70.3014 18.0243 70.6674 18.7613 70.6674C19.3262 70.6674 19.8086 70.408 20.2086 69.8892C20.6062 69.3705 20.8049 68.5535 20.8049 67.4408C20.8049 66.2553 20.6037 65.402 20.2013 64.8783C19.8013 64.3523 19.2898 64.0905 18.6619 64.0905C18.0462 64.0905 17.5371 64.3474 17.1298 64.859C16.7225 65.3705 16.5165 66.1462 16.5165 67.1886ZM27.4013 65.4068L25.091 64.968C25.3504 63.9596 25.8013 63.2105 26.4389 62.7256C27.0764 62.2408 28.0243 61.9983 29.2777 61.9983C30.4195 61.9983 31.2704 62.1414 31.8304 62.4299C32.3855 62.7208 32.7807 63.0844 33.0086 63.5305C33.234 63.9741 33.3504 64.7887 33.3504 65.9765L33.3116 69.1644C33.3116 70.0711 33.3528 70.7426 33.4328 71.1741C33.5128 71.6056 33.6655 72.0686 33.891 72.5583H31.3552C31.2898 72.3789 31.2049 72.1147 31.108 71.7632C31.0692 71.5983 31.0377 71.4941 31.0183 71.4432C30.5843 71.9014 30.1164 72.2432 29.6195 72.4735C29.1225 72.7014 28.594 72.8177 28.0316 72.8177C27.0425 72.8177 26.2595 72.5292 25.6874 71.9523C25.1152 71.3777 24.8292 70.6456 24.8292 69.7632C24.8292 69.1814 24.9601 68.6602 25.2195 68.202C25.4813 67.7486 25.8449 67.3947 26.3177 67.1523C26.7855 66.9099 27.4643 66.699 28.3492 66.5147C29.5419 66.2771 30.3734 66.0493 30.8316 65.8456V65.5693C30.8316 65.0383 30.7104 64.6602 30.468 64.4299C30.2231 64.2044 29.7625 64.0905 29.0886 64.0905C28.6328 64.0905 28.2789 64.1874 28.0243 64.3838C27.7649 64.5753 27.5613 64.9171 27.4013 65.4068ZM30.8316 67.6177C30.5067 67.7341 29.988 67.8723 29.2752 68.0371C28.5674 68.1996 28.1019 68.3571 27.8837 68.5123C27.5516 68.7668 27.3843 69.0844 27.3843 69.4747C27.3843 69.8602 27.5177 70.1874 27.7843 70.4662C28.051 70.745 28.3904 70.8856 28.8025 70.8856C29.2631 70.8856 29.7043 70.7232 30.1237 70.4008C30.4316 70.1511 30.6377 69.8529 30.7322 69.4941C30.7977 69.2614 30.8316 68.8177 30.8316 68.1632V67.6177ZM44.6692 72.5583H42.114V67.288C42.114 66.1729 42.0582 65.4529 41.9492 65.128C41.8376 64.7983 41.6607 64.5462 41.4134 64.3644C41.1637 64.1802 40.8655 64.0905 40.5189 64.0905C40.0704 64.0905 39.6704 64.2214 39.3164 64.4808C38.9576 64.7377 38.7152 65.0844 38.5843 65.5087C38.451 65.9377 38.3855 66.728 38.3855 67.8844V72.5583H35.8328V62.219H38.1989V63.7365C39.0473 62.5777 40.114 61.9983 41.4037 61.9983C41.9685 61.9983 42.4873 62.1099 42.9576 62.3256C43.4304 62.5438 43.7843 62.8202 44.0219 63.1547C44.2643 63.4941 44.434 63.8747 44.5261 64.3038C44.6231 64.7329 44.6692 65.3438 44.6692 66.139V72.5583ZM47.1637 72.5583V58.2941H49.7188V65.8602L52.7104 62.219H55.8619L52.5625 65.9983L56.1043 72.5583H53.3455L50.9019 67.8941L49.7188 69.2492V72.5583H47.1637Z" fill="#72706F"/>
<path fill-rule="evenodd" clip-rule="evenodd" d="M58.3952 72.8177V58.0032H61.0958L66.7685 67.9305V58.0032H69.3455V72.8177H66.56L60.9746 63.0796V72.8177H58.3952ZM75.394 72.8177V60.5074H71.3115V58.0032H82.2449V60.5074H78.1843V72.8177H75.394ZM87.1491 72.8177V60.5074H83.0691V58.0032H94V60.5074H89.9394V72.8177H87.1491Z" fill="#28166F"/>
<path fill-rule="evenodd" clip-rule="evenodd" d="M20.994 35.0505C22.3395 35.0505 23.4328 36.1414 23.4328 37.4869C23.4328 38.8347 22.3395 39.9257 20.994 39.9257C19.6462 39.9257 18.5552 38.8347 18.5552 37.4869C18.5552 36.1414 19.6462 35.0505 20.994 35.0505Z" fill="#48B7EC"/>
<path fill-rule="evenodd" clip-rule="evenodd" d="M34.2304 32.7063C35.1249 32.7063 35.8498 33.4311 35.8498 34.3257C35.8498 35.2178 35.1249 35.9426 34.2304 35.9426C33.3383 35.9426 32.6134 35.2178 32.6134 34.3257C32.6134 33.4311 33.3383 32.7063 34.2304 32.7063Z" fill="#0093DD"/>
<path fill-rule="evenodd" clip-rule="evenodd" d="M39.8134 46.8226C41.5273 46.8226 42.9164 48.2093 42.9164 49.9232C42.9164 51.6372 41.5273 53.0262 39.8134 53.0262C38.1019 53.0262 36.7128 51.6372 36.7128 49.9232C36.7128 48.2093 38.1019 46.8226 39.8134 46.8226Z" fill="#28166F"/>
<path fill-rule="evenodd" clip-rule="evenodd" d="M15.9419 29.6227C18.2377 31.8748 22.7274 35.0021 28.0752 37.3705C30.851 38.5996 32.3589 38.6627 32.4995 37.6372C32.4849 37.6178 32.4704 37.5984 32.4558 37.5766C32.1383 37.4942 31.891 37.4748 31.6825 37.4942C31.5298 37.7099 30.6789 37.3633 29.1007 36.4736C25.1031 34.2214 21.6825 32.3911 20.0001 30.5099C17.5662 27.7899 18.1553 26.5657 21.1346 27.7099C23.8449 28.7499 26.7468 31.3972 30.0437 35.0966C30.8752 36.0299 31.3989 36.6942 31.6049 37.0942C31.8789 37.0481 32.1552 37.0069 32.4389 36.9705C32.2643 36.2893 31.7698 35.3608 30.9431 34.1924C27.2777 29.0215 22.994 26.2772 19.5856 25.3293C17.2219 24.6724 15.1928 25.1524 14.3686 25.4457C13.6437 26.1221 13.8983 27.6178 15.9419 29.6227Z" fill="#6AC1EF"/>
<path fill-rule="evenodd" clip-rule="evenodd" d="M50.9479 41.0481C48.1067 39.5426 44.8534 38.1996 39.0522 37.4529C36.6498 37.1426 33.1128 37.0675 32.6958 37.3754C33.1904 38.1366 33.7552 39.1184 34.4122 40.0396C34.1601 40.4081 35.7722 41.7656 36.6086 42.282C42.0001 45.6129 46.0825 48.2432 49.3916 49.4965C53.1152 50.9099 55.891 50.4759 57.1831 48.9608C58.9406 45.5232 53.4788 42.3863 50.9479 41.0481ZM50.0291 43.116C47.9564 41.6857 43.6776 39.9402 39.1225 39.0384C37.4134 38.699 34.3273 38.2554 33.7867 38.1705C34.8631 39.6978 36.3661 40.7935 38.0073 41.8093C42.2231 44.4153 46.3952 45.9669 49.2073 46.6917C49.9031 46.8687 51.8546 47.242 52.1673 46.6311C52.6643 45.6614 51.6316 44.219 50.0291 43.116Z" fill="#0093DD"/>
<path fill-rule="evenodd" clip-rule="evenodd" d="M35.9855 44.8444C35.8255 42.1438 34.7904 39.5014 32.7977 36.9244C32.0413 37.0141 31.3237 37.1305 30.6401 37.276C30.9795 37.4287 31.2364 37.5208 31.4134 37.5475C31.6704 37.4699 31.988 37.453 32.4558 37.5766C33.748 39.3802 34.1819 41.9184 34.2134 43.8093C34.2522 46.2578 33.028 48.3547 31.8667 49.0262C30.5043 49.8117 28.514 49.7147 26.7977 49.2493C25.6874 48.2844 25.234 47.9693 24.7346 46.8129C23.9855 45.0723 24.1771 43.5329 25.1274 42.0153C26.1237 40.4202 27.8861 38.9463 30.131 38.1366C29.7649 38.0347 29.3601 37.8966 28.9164 37.722C25.8425 38.6747 23.6292 40.2893 22.1504 42.4784C20.6862 44.6481 20.388 46.8469 21.5468 49.3365C22.3177 50.9923 23.8086 52.0856 26.0389 52.7159C29.217 53.6129 31.7164 53.3996 33.474 51.8481C35.3795 50.1632 36.1601 47.7947 35.9855 44.8444Z" fill="#28166F"/>
<path d="M14.0001 81.5498V77.5474H14.6086V78.1123C14.7346 77.9159 14.9019 77.7583 15.1104 77.6395C15.3165 77.5208 15.554 77.4626 15.8207 77.4626C16.1165 77.4626 16.3589 77.5232 16.548 77.6468C16.7371 77.768 16.8704 77.9401 16.948 78.1608C17.2656 77.6953 17.6801 77.4626 18.1868 77.4626C18.5868 77.4626 18.8946 77.5717 19.108 77.7898C19.3213 78.0105 19.4304 78.3498 19.4304 78.8056V81.5498H18.7516V79.0311C18.7516 78.7595 18.7274 78.5656 18.6837 78.4444C18.6401 78.3256 18.5601 78.2311 18.4437 78.1583C18.3274 78.0832 18.1916 78.0468 18.0365 78.0468C17.7528 78.0468 17.5201 78.1414 17.3334 78.328C17.1468 78.5171 17.0546 78.8153 17.0546 79.2274V81.5498H16.3759V78.9511C16.3759 78.6504 16.3201 78.425 16.2086 78.2747C16.0995 78.1244 15.9177 78.0468 15.668 78.0468C15.4765 78.0468 15.3019 78.0977 15.1395 78.1995C14.9771 78.2989 14.8607 78.4444 14.7856 78.6383C14.7153 78.8323 14.6789 79.1111 14.6789 79.4747V81.5498H14.0001ZM23.154 80.2529L23.8571 80.3474C23.748 80.7547 23.5443 81.0723 23.2437 81.2977C22.948 81.5207 22.5649 81.6347 22.1019 81.6347C21.5177 81.6347 21.0546 81.4553 20.7128 81.0941C20.371 80.7353 20.2013 80.2311 20.2013 79.5814C20.2013 78.9098 20.3734 78.3886 20.7201 78.0177C21.0643 77.6468 21.5128 77.4626 22.0655 77.4626C22.5989 77.4626 23.0352 77.642 23.3722 78.008C23.7092 78.3717 23.8789 78.8832 23.8789 79.5426C23.8789 79.5814 23.8789 79.642 23.8765 79.722H20.8946C20.9213 80.1607 21.0449 80.4977 21.268 80.7304C21.491 80.9632 21.7698 81.0795 22.1019 81.0795C22.3492 81.0795 22.5625 81.0141 22.7371 80.8832C22.914 80.7523 23.0522 80.5414 23.154 80.2529ZM20.9334 79.1668H23.1637C23.1322 78.8298 23.0474 78.5777 22.9068 78.408C22.691 78.1486 22.4122 78.0177 22.068 78.0177C21.7577 78.0177 21.4958 78.122 21.2849 78.3305C21.074 78.5389 20.9577 78.8177 20.9334 79.1668ZM24.6983 81.5498V76.0274H25.3771V81.5498H24.6983ZM29.0425 81.048C28.7904 81.2638 28.548 81.4141 28.3152 81.5014C28.0825 81.5911 27.8328 81.6347 27.5661 81.6347C27.1249 81.6347 26.788 81.528 26.5504 81.3123C26.3152 81.0989 26.1964 80.825 26.1964 80.4929C26.1964 80.2989 26.2401 80.1195 26.3298 79.9571C26.4195 79.7947 26.5358 79.6662 26.6813 79.5692C26.8267 79.4698 26.9892 79.3971 27.1686 79.3462C27.3019 79.3123 27.5055 79.2783 27.7746 79.2444C28.3201 79.1814 28.7249 79.1014 28.9843 79.0117C28.9867 78.9195 28.9892 78.8614 28.9892 78.8371C28.9892 78.5608 28.9237 78.3668 28.7952 78.2529C28.6231 78.1001 28.3637 78.025 28.0219 78.025C27.7019 78.025 27.4643 78.0808 27.314 78.1923C27.1613 78.3062 27.0474 78.5026 26.9746 78.7886L26.3128 78.6965C26.3734 78.4129 26.4704 78.1826 26.611 78.008C26.7492 77.8311 26.9504 77.6977 27.2122 77.6032C27.4716 77.5086 27.7771 77.4626 28.1213 77.4626C28.4631 77.4626 28.7419 77.5014 28.9577 77.5838C29.171 77.6638 29.3286 77.7632 29.4304 77.8868C29.5298 78.008 29.6001 78.1632 29.6413 78.3498C29.6631 78.4638 29.6752 78.6723 29.6752 78.9729V79.8723C29.6752 80.5001 29.6898 80.8977 29.7164 81.0674C29.7431 81.2347 29.8013 81.3947 29.8837 81.5498H29.1734C29.1055 81.4068 29.0619 81.2395 29.0425 81.048ZM28.9892 79.545C28.7419 79.6444 28.371 79.7292 27.8789 79.7995C27.5977 79.8383 27.3989 79.8844 27.2849 79.9329C27.1686 79.9838 27.0789 80.0565 27.0158 80.1535C26.9528 80.248 26.9213 80.3547 26.9213 80.4735C26.9213 80.6529 26.9892 80.8032 27.1274 80.922C27.2655 81.0432 27.4643 81.1014 27.7286 81.1014C27.9904 81.1014 28.2231 81.0456 28.4267 80.9317C28.6304 80.8177 28.7807 80.6626 28.8752 80.4662C28.948 80.3135 28.9843 80.088 28.9843 79.7898L28.9892 79.545ZM30.6861 83.0892L30.6086 82.4614C30.7589 82.5001 30.8874 82.522 30.9964 82.522C31.1492 82.522 31.2704 82.4953 31.3601 82.4444C31.4522 82.3959 31.5249 82.3256 31.5831 82.2359C31.6267 82.1656 31.6946 81.9983 31.7916 81.7292C31.8037 81.6904 31.8231 81.6347 31.8498 81.562L30.3322 77.5474H31.057L31.891 79.8577C32.0025 80.1486 32.097 80.4589 32.1843 80.7814C32.2619 80.4783 32.354 80.1777 32.4631 79.882L33.3164 77.5474H33.9928L32.4801 81.6201C32.3177 82.0565 32.1916 82.3571 32.0995 82.5244C31.9783 82.7474 31.8401 82.9098 31.6849 83.0141C31.5273 83.1183 31.3407 83.1692 31.1249 83.1692C30.994 83.1692 30.8461 83.1426 30.6861 83.0892ZM37.1879 81.048C36.9358 81.2638 36.6934 81.4141 36.4607 81.5014C36.2279 81.5911 35.9783 81.6347 35.7116 81.6347C35.2704 81.6347 34.9334 81.528 34.6958 81.3123C34.4607 81.0989 34.3419 80.825 34.3419 80.4929C34.3419 80.2989 34.388 80.1195 34.4752 79.9571C34.5649 79.7947 34.6837 79.6662 34.8267 79.5692C34.9722 79.4698 35.1346 79.3971 35.3164 79.3462C35.4498 79.3123 35.651 79.2783 35.9201 79.2444C36.4679 79.1814 36.8728 79.1014 37.1298 79.0117C37.1322 78.9195 37.1346 78.8614 37.1346 78.8371C37.1346 78.5608 37.0692 78.3668 36.9407 78.2529C36.7686 78.1001 36.5092 78.025 36.1673 78.025C35.8473 78.025 35.6122 78.0808 35.4595 78.1923C35.3067 78.3062 35.1952 78.5026 35.1201 78.7886L34.4583 78.6965C34.5189 78.4129 34.6183 78.1826 34.7564 78.008C34.8946 77.8311 35.0958 77.6977 35.3576 77.6032C35.6195 77.5086 35.9225 77.4626 36.2667 77.4626C36.611 77.4626 36.8898 77.5014 37.1031 77.5838C37.3164 77.6638 37.474 77.7632 37.5758 77.8868C37.6752 78.008 37.7455 78.1632 37.7867 78.3498C37.8086 78.4638 37.8207 78.6723 37.8207 78.9729V79.8723C37.8207 80.5001 37.8352 80.8977 37.8643 81.0674C37.891 81.2347 37.9467 81.3947 38.0292 81.5498H37.3189C37.251 81.4068 37.2073 81.2395 37.1879 81.048ZM37.1346 79.545C36.8873 79.6444 36.5164 79.7292 36.0243 79.7995C35.7431 79.8383 35.5443 79.8844 35.4304 79.9329C35.314 79.9838 35.2243 80.0565 35.1613 80.1535C35.0983 80.248 35.0667 80.3547 35.0667 80.4735C35.0667 80.6529 35.1346 80.8032 35.2728 80.922C35.411 81.0432 35.6122 81.1014 35.874 81.1014C36.1358 81.1014 36.3686 81.0456 36.5722 80.9317C36.7758 80.8177 36.9261 80.6626 37.0207 80.4662C37.0934 80.3135 37.1298 80.088 37.1298 79.7898L37.1346 79.545ZM38.8631 81.5498V77.5474H39.4716V78.1147C39.7649 77.6783 40.1892 77.4626 40.7443 77.4626C40.9843 77.4626 41.2073 77.5062 41.4085 77.5911C41.6098 77.6783 41.7625 77.7923 41.8619 77.9329C41.9613 78.0735 42.034 78.2408 42.0728 78.4323C42.097 78.5583 42.1092 78.7789 42.1092 79.0917V81.5498H41.4304V79.1183C41.4304 78.842 41.4061 78.6335 41.3528 78.4977C41.2995 78.362 41.2073 78.2529 41.0716 78.1704C40.9382 78.088 40.7807 78.0468 40.6013 78.0468C40.3128 78.0468 40.0655 78.1389 39.8546 78.3232C39.6461 78.505 39.5419 78.8541 39.5419 79.3656V81.5498H38.8631ZM43.1516 76.7983V76.0274H43.8304V76.7983H43.1516ZM43.1516 81.5498V77.5474H43.8304V81.5498H43.1516Z" fill="black"/>
<path d="M46.994 81.5498V76.0274H47.6728V81.5498H46.994ZM51.4522 80.2529L52.1552 80.3474C52.0461 80.7547 51.8425 81.0723 51.5419 81.2977C51.2461 81.5207 50.8631 81.6347 50.4001 81.6347C49.8158 81.6347 49.3528 81.4553 49.011 81.0941C48.6691 80.7353 48.4995 80.2311 48.4995 79.5814C48.4995 78.9098 48.6716 78.3886 49.0182 78.0177C49.3625 77.6468 49.811 77.4626 50.3637 77.4626C50.897 77.4626 51.3334 77.642 51.6704 78.008C52.0073 78.3717 52.1794 78.8832 52.1794 79.5426C52.1794 79.5814 52.177 79.642 52.1746 79.722H49.1928C49.2194 80.1607 49.3431 80.4977 49.5661 80.7304C49.7891 80.9632 50.0679 81.0795 50.4001 81.0795C50.6473 81.0795 50.8607 81.0141 51.0352 80.8832C51.2122 80.7523 51.3504 80.5414 51.4522 80.2529ZM49.2316 79.1668H51.4619C51.4304 78.8298 51.3455 78.5777 51.2049 78.408C50.9891 78.1486 50.7104 78.0177 50.3661 78.0177C50.0558 78.0177 49.794 78.122 49.5831 78.3305C49.3722 78.5389 49.2558 78.8177 49.2316 79.1668ZM53.6364 81.5498H53.0037V76.0274H53.6825V77.9983C53.971 77.6395 54.3346 77.4626 54.7807 77.4626C55.0255 77.4626 55.2582 77.5111 55.4788 77.6105C55.6994 77.7098 55.8788 77.848 56.0219 78.0274C56.1625 78.2068 56.274 78.4226 56.354 78.6771C56.4364 78.9292 56.4752 79.2007 56.4752 79.4868C56.4752 80.1729 56.3055 80.7014 55.9685 81.0747C55.6291 81.448 55.2219 81.6347 54.7467 81.6347C54.2764 81.6347 53.9055 81.4383 53.6364 81.0456V81.5498ZM53.6291 79.5183C53.6291 79.9959 53.6946 80.3426 53.8255 80.5559C54.0388 80.905 54.3249 81.0795 54.691 81.0795C54.9867 81.0795 55.2437 80.9511 55.457 80.6941C55.6728 80.4371 55.7819 80.0541 55.7819 79.545C55.7819 79.0214 55.6776 78.6383 55.4716 78.3911C55.2655 78.1414 55.0134 78.0177 54.72 78.0177C54.4243 78.0177 54.1673 78.1462 53.954 78.4032C53.7382 78.6601 53.6291 79.0311 53.6291 79.5183ZM57.3019 76.7983V76.0274H57.9806V76.7983H57.3019ZM57.3019 81.5498V77.5474H57.9806V81.5498H57.3019ZM59.0158 81.5498V76.0274H59.6946V78.0153C60.0097 77.6468 60.4073 77.4626 60.8873 77.4626C61.1806 77.4626 61.4376 77.5208 61.6558 77.6371C61.874 77.7535 62.0291 77.9135 62.1213 78.1195C62.2158 78.3256 62.2619 78.6262 62.2619 79.0165V81.5498H61.5831V79.0189C61.5831 78.6795 61.5103 78.4347 61.3649 78.2795C61.2194 78.1244 61.0134 78.0468 60.7467 78.0468C60.5455 78.0468 60.3588 78.1001 60.1819 78.2044C60.0073 78.3086 59.8813 78.4492 59.8061 78.6286C59.731 78.8056 59.6946 79.0504 59.6946 79.3656V81.5498H59.0158Z" fill="#E62129"/>
<path d="M65.1782 80.3547L65.8497 80.2456C65.8861 80.5147 65.9928 80.7208 66.1649 80.8638C66.337 81.0068 66.577 81.0795 66.8873 81.0795C67.1976 81.0795 67.4303 81.0165 67.5806 80.888C67.7334 80.762 67.8085 80.6141 67.8085 80.442C67.8085 80.2892 67.7406 80.168 67.6049 80.0808C67.5103 80.0201 67.2776 79.945 66.9115 79.8529C66.4146 79.7268 66.0703 79.6201 65.8788 79.528C65.6873 79.4359 65.5418 79.3098 65.4425 79.1474C65.3431 78.9874 65.2946 78.808 65.2946 78.6117C65.2946 78.4347 65.3358 78.2698 65.4158 78.1171C65.4982 77.9668 65.6097 77.8408 65.7479 77.7389C65.8546 77.6614 65.9976 77.5959 66.1794 77.5426C66.3612 77.4892 66.5552 77.4626 66.7637 77.4626C67.0788 77.4626 67.3528 77.5062 67.5903 77.5983C67.8279 77.688 68.0025 77.8117 68.1164 77.9668C68.2279 78.122 68.3055 78.328 68.3491 78.5874L67.6849 78.6795C67.6558 78.4711 67.5685 78.3086 67.4231 78.1923C67.28 78.0759 67.0764 78.0177 66.8122 78.0177C66.5043 78.0177 66.2812 78.0686 66.1479 78.1704C66.017 78.2747 65.9491 78.3959 65.9491 78.5317C65.9491 78.6214 65.9758 78.6989 66.0315 78.7717C66.0873 78.842 66.1722 78.9026 66.2909 78.9511C66.3588 78.9753 66.5576 79.0335 66.8897 79.1232C67.3673 79.2517 67.7018 79.3559 67.8909 79.4383C68.0825 79.5183 68.2303 79.6371 68.3394 79.7923C68.4485 79.9474 68.5019 80.1414 68.5019 80.3717C68.5019 80.5971 68.4364 80.8104 68.3055 81.0092C68.1721 81.208 67.9806 81.3632 67.7334 81.4723C67.4837 81.5814 67.2025 81.6347 66.8897 81.6347C66.3685 81.6347 65.9734 81.5256 65.6994 81.3123C65.4279 81.0965 65.2534 80.7765 65.1782 80.3547ZM71.92 81.5498V80.9535C71.6073 81.4092 71.1855 81.6347 70.6521 81.6347C70.417 81.6347 70.1988 81.5886 69.9928 81.4989C69.7891 81.4092 69.6364 81.2953 69.5394 81.1595C69.44 81.0214 69.3697 80.8541 69.3309 80.6553C69.3043 80.522 69.2897 80.3111 69.2897 80.0226V77.5474H69.9685V79.7607C69.9685 80.1147 69.9806 80.3547 70.0097 80.4759C70.0509 80.6553 70.1406 80.7935 70.2812 80.8953C70.417 80.9971 70.5867 81.048 70.7903 81.048C70.994 81.048 71.1831 80.9971 71.36 80.8929C71.5394 80.7886 71.6655 80.6456 71.7382 80.4662C71.8134 80.2892 71.8497 80.0274 71.8497 79.688V77.5474H72.5285V81.5498H71.92ZM73.5928 81.5498V77.5474H74.2037V78.1147C74.497 77.6783 74.9212 77.4626 75.474 77.4626C75.7164 77.4626 75.937 77.5062 76.1382 77.5911C76.3418 77.6783 76.4921 77.7923 76.594 77.9329C76.6934 78.0735 76.7637 78.2408 76.8024 78.4323C76.8291 78.5583 76.8412 78.7789 76.8412 79.0917V81.5498H76.1624V79.1183C76.1624 78.842 76.1358 78.6335 76.0849 78.4977C76.0315 78.362 75.937 78.2529 75.8037 78.1704C75.6703 78.088 75.5127 78.0468 75.3309 78.0468C75.0449 78.0468 74.7952 78.1389 74.5867 78.3232C74.3758 78.505 74.2715 78.8541 74.2715 79.3656V81.5498H73.5928ZM77.76 81.882L78.4146 81.9741C78.4412 82.1777 78.5188 82.3256 78.6449 82.4177C78.8121 82.5438 79.0424 82.6068 79.3358 82.6068C79.6485 82.6068 79.8909 82.5438 80.063 82.4177C80.2327 82.2941 80.3491 82.1171 80.4097 81.8917C80.4437 81.7559 80.4606 81.465 80.4582 81.0262C80.16 81.3753 79.7915 81.5498 79.3503 81.5498C78.8 81.5498 78.3733 81.3511 78.0727 80.9535C77.7697 80.5583 77.6194 80.0832 77.6194 79.528C77.6194 79.1474 77.6897 78.7959 77.8279 78.4711C77.9637 78.1486 78.1649 77.9014 78.4267 77.7244C78.6885 77.5498 78.9988 77.4626 79.3527 77.4626C79.8255 77.4626 80.2134 77.6541 80.5188 78.0395V77.5474H81.1443V81.0044C81.1443 81.6274 81.0812 82.0686 80.9552 82.328C80.8291 82.5874 80.6279 82.7935 80.3515 82.9438C80.0776 83.0941 79.7406 83.1692 79.3382 83.1692C78.8606 83.1692 78.4776 83.0626 78.1843 82.8468C77.8909 82.6335 77.7479 82.311 77.76 81.882ZM78.3152 79.4795C78.3152 80.0032 78.417 80.3862 78.6255 80.6262C78.8364 80.8662 79.0958 80.9874 79.4109 80.9874C79.7237 80.9874 79.983 80.8662 80.1964 80.6286C80.4073 80.3886 80.5115 80.0129 80.5115 79.5014C80.5115 79.0141 80.4024 78.6456 80.1867 78.3959C79.9685 78.1486 79.7067 78.025 79.4012 78.025C79.0982 78.025 78.8412 78.1462 78.6303 78.3911C78.4194 78.6359 78.3152 78.9971 78.3152 79.4795ZM82.0485 81.882L82.703 81.9741C82.7321 82.1777 82.8073 82.3256 82.9333 82.4177C83.103 82.5438 83.3333 82.6068 83.6243 82.6068C83.937 82.6068 84.1818 82.5438 84.3515 82.4177C84.5236 82.2941 84.6376 82.1171 84.6982 81.8917C84.7346 81.7559 84.7515 81.465 84.7467 81.0262C84.4509 81.3753 84.0824 81.5498 83.6388 81.5498C83.0885 81.5498 82.6618 81.3511 82.3612 80.9535C82.0606 80.5583 81.9103 80.0832 81.9103 79.528C81.9103 79.1474 81.9782 78.7959 82.1164 78.4711C82.2546 78.1486 82.4533 77.9014 82.7176 77.7244C82.9794 77.5498 83.2873 77.4626 83.6412 77.4626C84.1139 77.4626 84.5042 77.6541 84.8097 78.0395V77.5474H85.4352V81.0044C85.4352 81.6274 85.3721 82.0686 85.2436 82.328C85.1176 82.5874 84.9164 82.7935 84.6424 82.9438C84.3685 83.0941 84.0291 83.1692 83.6291 83.1692C83.1515 83.1692 82.7661 83.0626 82.4752 82.8468C82.1794 82.6335 82.0388 82.311 82.0485 81.882ZM82.6036 79.4795C82.6036 80.0032 82.7079 80.3862 82.9164 80.6262C83.1249 80.8662 83.3867 80.9874 83.6994 80.9874C84.0121 80.9874 84.2739 80.8662 84.4849 80.6286C84.6958 80.3886 84.8024 80.0129 84.8024 79.5014C84.8024 79.0141 84.6933 78.6456 84.4752 78.3959C84.257 78.1486 83.9952 78.025 83.6897 78.025C83.3867 78.025 83.1321 78.1462 82.9188 78.3911C82.7079 78.6359 82.6036 78.9971 82.6036 79.4795ZM89.0764 81.5498V80.9535C88.7661 81.4092 88.3442 81.6347 87.8109 81.6347C87.5758 81.6347 87.3552 81.5886 87.1515 81.4989C86.9479 81.4092 86.7952 81.2953 86.6958 81.1595C86.5988 81.0214 86.5285 80.8541 86.4873 80.6553C86.4606 80.522 86.4461 80.3111 86.4461 80.0226V77.5474H87.1249V79.7607C87.1249 80.1147 87.1394 80.3547 87.1661 80.4759C87.2097 80.6553 87.2994 80.7935 87.4376 80.8953C87.5758 80.9971 87.7455 81.048 87.9491 81.048C88.1527 81.048 88.3418 80.9971 88.5188 80.8929C88.6958 80.7886 88.8218 80.6456 88.897 80.4662C88.9697 80.2892 89.0085 80.0274 89.0085 79.688V77.5474H89.6873V81.5498H89.0764ZM90.7515 81.5498V76.0274H91.4303V78.0153C91.7454 77.6468 92.143 77.4626 92.623 77.4626C92.9188 77.4626 93.1733 77.5208 93.3915 77.6371C93.6097 77.7535 93.7648 77.9135 93.8594 78.1195C93.9539 78.3256 94 78.6262 94 79.0165V81.5498H93.3212V79.0189C93.3212 78.6795 93.2461 78.4347 93.103 78.2795C92.9551 78.1244 92.7491 78.0468 92.4824 78.0468C92.2836 78.0468 92.0945 78.1001 91.92 78.2044C91.743 78.3086 91.6194 78.4492 91.5418 78.6286C91.4691 78.8056 91.4303 79.0504 91.4303 79.3656V81.5498H90.7515Z" fill="black"/>
</svg>
