<svg width="108" height="108" viewBox="0 0 108 108" fill="none" xmlns="http://www.w3.org/2000/svg">
<path d="M19.6177 57.0698C19.6177 56.5935 19.6229 55.3206 19.6112 55.1638C19.6214 53.2696 18.2442 51.9334 17.3741 52.0376C16.7721 52.0898 16.2675 52.3353 15.9966 53.0415C15.7455 53.6997 15.97 54.5752 16.8048 54.7806C17.6975 55.0012 18.2188 55.1848 18.596 55.4437C19.0582 55.7607 19.4356 56.3665 19.4456 57.0705" fill="#0060AF"/>
<path d="M19.9743 59.9489C18.4003 59.9489 16.7826 59.5613 15.1672 58.7945L15.1275 58.775L15.1086 58.7346C14.3836 57.2043 14.0002 55.5306 14.0002 53.893C14.0002 52.2579 14.3679 50.6558 15.0934 49.1275L15.1133 49.0869L15.1537 49.0667C16.6481 48.3587 18.2557 48.0001 19.9334 48.0001C21.4962 48.0001 23.1652 48.3993 24.7593 49.1566L24.8002 49.1748L24.819 49.2162C25.5579 50.7747 25.9475 52.448 25.9475 54.0584C25.9475 55.6626 25.5734 57.2662 24.8337 58.8237L24.8142 58.8646L24.773 58.8836C23.3015 59.5802 21.6419 59.9489 19.9743 59.9489ZM15.3167 58.5847C16.8861 59.3229 18.4512 59.6957 19.9743 59.6957C21.5893 59.6957 23.1954 59.3427 24.625 58.6735C25.3352 57.1643 25.6952 55.6109 25.6952 54.0584C25.6952 52.4997 25.3195 50.8783 24.6088 49.3657C23.0618 48.6385 21.4462 48.2528 19.9334 48.2528C18.3092 48.2528 16.7524 48.5973 15.3031 49.2769C14.6074 50.7582 14.2534 52.3104 14.2534 53.893C14.2534 55.4786 14.6213 57.1007 15.3167 58.5847Z" fill="#0060AF"/>
<path d="M19.2447 57.0705C19.2476 56.4601 18.9069 55.9203 18.4616 55.6302C18.0665 55.3738 17.5362 55.2053 16.6807 54.9884C16.4163 54.9207 16.1396 54.7705 16.054 54.5789C15.8275 54.8072 15.7863 55.3204 15.8262 55.6203C15.8725 55.9673 16.2781 56.5393 16.8887 56.5618C17.2617 56.5767 17.7331 56.4815 17.9593 56.4335C18.3493 56.3492 18.9664 56.5935 19.0647 57.0698" fill="#0060AF"/>
<path d="M19.9331 49.0855C18.8977 49.0855 18.0033 49.7683 18.0065 50.9499C18.0098 51.9435 18.8089 52.4755 19.094 52.8554C19.5249 53.4279 19.7581 54.1056 19.7823 55.1425C19.8012 55.9678 19.8002 56.7827 19.8044 57.0715H20.033C20.029 56.7693 20.0187 55.9042 20.0305 55.117C20.046 54.0798 20.2876 53.4279 20.7187 52.8554C21.0063 52.4755 21.8048 51.9435 21.8065 50.9499C21.8104 49.7683 20.9165 49.0855 19.882 49.0855" fill="#0060AF"/>
<path d="M20.196 57.0698C20.196 56.5935 20.1906 55.3206 20.2021 55.1638C20.192 53.2696 21.5683 51.9334 22.4391 52.0376C23.0412 52.0898 23.5452 52.3353 23.8169 53.0415C24.0678 53.6997 23.842 54.5752 23.0081 54.7806C22.115 55.0012 21.5944 55.1848 21.2162 55.4437C20.7545 55.7607 20.4035 56.3665 20.3928 57.0705" fill="#0060AF"/>
<path d="M20.5688 57.0705C20.5656 56.4601 20.9062 55.9203 21.3502 55.6302C21.7468 55.3738 22.2778 55.2053 23.1325 54.9884C23.3975 54.9207 23.6738 54.7705 23.758 54.5789C23.9856 54.8072 24.0266 55.3204 23.9868 55.6203C23.9395 55.9673 23.535 56.5393 22.9254 56.5618C22.5526 56.5767 22.0786 56.4815 21.8535 56.4335C21.4649 56.3492 20.8461 56.5935 20.7474 57.0698" fill="#0060AF"/>
<path d="M20.8882 59.0413L20.7557 58.0745L21.0755 58.026C21.1534 58.0153 21.2482 58.0289 21.2861 58.0777C21.328 58.1287 21.3408 58.1708 21.3489 58.2376C21.361 58.3202 21.3371 58.4157 21.244 58.4633V58.4662C21.3479 58.4662 21.4107 58.5409 21.4289 58.6669C21.4316 58.6935 21.4395 58.7578 21.4316 58.8115C21.4105 58.9391 21.3344 58.9802 21.2058 58.9982L20.8882 59.0413ZM21.094 58.8682C21.132 58.8627 21.1704 58.8607 21.2005 58.8416C21.2465 58.8115 21.2423 58.7472 21.2359 58.6995C21.2199 58.5946 21.1925 58.5547 21.0812 58.5712L21.0113 58.5819L21.0556 58.8735L21.094 58.8682ZM21.027 58.4214C21.0694 58.4146 21.1268 58.4095 21.1507 58.3693C21.1632 58.3425 21.1792 58.3212 21.1687 58.2615C21.1557 58.1907 21.1322 58.1469 21.0423 58.1639L20.9586 58.1773L20.9916 58.4251" fill="#0060AF"/>
<path d="M22.2736 58.4598C22.2761 58.4778 22.279 58.4978 22.28 58.5158C22.3059 58.6921 22.2736 58.8381 22.0754 58.8783C21.7824 58.9347 21.7263 58.7527 21.6747 58.4978L21.6472 58.3599C21.6068 58.116 21.5894 57.9314 21.8751 57.8745C22.0362 57.8451 22.1426 57.9092 22.1869 58.0695C22.1938 58.0934 22.2024 58.1171 22.2056 58.1412L22.0303 58.1773C22.0101 58.1171 21.9833 58.0095 21.9044 58.0186C21.7629 58.0356 21.8096 58.2117 21.8242 58.2853L21.8768 58.55C21.8927 58.63 21.9241 58.7579 22.0466 58.7332C22.146 58.7133 22.1027 58.5584 22.0939 58.4949" fill="#0060AF"/>
<path d="M22.5548 58.7524L22.4942 57.7518L22.7297 57.68L23.2234 58.5502L23.038 58.6056L22.921 58.3845L22.7151 58.4463L22.7417 58.6977L22.5548 58.7524ZM22.6979 58.2847L22.8467 58.2417L22.6491 57.8368" fill="#0060AF"/>
<path d="M16.7388 57.9959C16.8125 57.76 16.8785 57.5864 17.1596 57.6635C17.3101 57.7055 17.4034 57.7719 17.399 57.9467C17.3983 57.9856 17.3854 58.0252 17.377 58.0637L17.202 58.0153C17.2249 57.9188 17.2395 57.8422 17.1205 57.8056C16.9831 57.7679 16.9496 57.9345 16.9306 58.0065L16.8594 58.2688C16.8368 58.3467 16.8097 58.4754 16.9306 58.5086C17.0306 58.5355 17.0912 58.4374 17.1274 58.2941L17.005 58.2617L17.0473 58.1099L17.3352 58.2026L17.1985 58.7081L17.066 58.6721L17.0959 58.5652H17.0921C17.0311 58.6526 16.9567 58.6618 16.8915 58.6493C16.6036 58.5714 16.6336 58.3832 16.7024 58.1318" fill="#0060AF"/>
<path d="M17.8105 58.4229L17.7238 58.8342L17.5286 58.792L17.7366 57.8317L18.0693 57.9069C18.2641 57.9489 18.3229 58.0356 18.2953 58.2141C18.2796 58.3165 18.2291 58.4269 18.1058 58.418L18.1045 58.4163C18.2087 58.4528 18.2176 58.5054 18.1994 58.5963C18.1915 58.635 18.1373 58.8697 18.1747 58.9076L18.176 58.9364L17.974 58.8837C17.9656 58.8187 17.9942 58.7017 18.0055 58.6369C18.0169 58.5796 18.0351 58.4988 17.9769 58.4685C17.9314 58.4442 17.9144 58.4454 17.863 58.4336L17.8105 58.4229ZM17.8438 58.2742L17.9752 58.3096C18.055 58.3212 18.0994 58.2798 18.1151 58.1834C18.1293 58.0949 18.1109 58.0604 18.0393 58.0432L17.8984 58.0147" fill="#0060AF"/>
<path d="M19.0624 58.0462L19.2555 58.0687L19.1723 58.7437C19.1319 58.9578 19.0492 59.0514 18.8137 59.0221C18.5741 58.9918 18.5172 58.8827 18.5318 58.6669L18.6155 57.9924L18.81 58.0147L18.7265 58.6742C18.7177 58.7458 18.7011 58.8519 18.8286 58.8647C18.9416 58.8733 18.9672 58.7985 18.9799 58.7054" fill="#0060AF"/>
<path d="M19.4683 59.059L19.5264 58.0936L19.8973 58.1097C20.0725 58.1183 20.1184 58.2615 20.1129 58.3981C20.1078 58.4811 20.0819 58.5739 20.0095 58.6242C19.9501 58.6669 19.8739 58.6771 19.8031 58.6736L19.6822 58.6669L19.6581 59.0715L19.4683 59.059ZM19.6877 58.5197L19.786 58.5252C19.8658 58.5281 19.9187 58.4965 19.9256 58.3793C19.9295 58.2668 19.8869 58.2477 19.7835 58.2432L19.7056 58.2405" fill="#0060AF"/>
<path d="M45.6264 50.0186L44.1523 52.694C43.5959 52.2423 42.9165 51.9097 42.0497 51.9097C39.9984 51.9097 39.1652 53.4388 39.1652 54.5159C39.1652 55.3154 39.6887 56.4951 41.5139 56.4951C42.28 56.4951 43.3692 55.9621 43.6827 55.7196L42.2248 58.8236C41.5299 58.9622 41.3016 59.0482 40.7133 59.0664C37.4465 59.1639 36.1264 57.157 36.1273 55.1063C36.1295 52.3954 38.5397 49.0985 42.5353 49.0985C42.7802 49.0985 43.0796 49.1832 43.3357 49.277L43.5944 48.9461" fill="#0060AF"/>
<path d="M51.7086 49.03L52.126 58.7542H49.0196L49.0177 57.0865H46.8995L46.2023 58.7542H42.8334L46.3555 51.8103L45.5613 51.8051L47.0704 49.03H51.7086ZM48.9976 52.0048L47.8 54.8333H49.0337" fill="#0060AF"/>
<path d="M34.1662 49.03C35.7045 49.0386 36.5738 49.8737 36.5738 51.08C36.5738 52.192 35.657 53.1763 34.6506 53.6853C35.6868 54.0662 35.7764 55.0012 35.7764 55.6627C35.7764 57.2609 34.1727 58.7542 32.0882 58.7542H27.5422L29.3155 51.907L28.5871 51.9028L30.0761 49.03C30.0761 49.03 32.9152 49.0214 34.1662 49.03ZM32.6569 52.9726C32.9751 52.9726 33.537 52.892 33.6774 52.2762C33.8314 51.6077 33.3041 51.5897 33.0512 51.5897L32.1474 51.5857L31.8322 52.9726L32.6569 52.9726ZM31.3791 54.691L30.963 56.2891H32.0272C32.4459 56.2891 33.0165 56.0813 33.1563 55.5612C33.2944 55.0397 32.8955 54.691 32.4783 54.691" fill="#0060AF"/>
<path d="M74.0011 50.9516C74.0011 50.9326 74.2974 49.1624 74.3146 49.0788L74.3236 49.0348H75.6823C76.4295 49.0348 77.0409 49.0387 77.0409 49.0436C77.0409 49.0485 76.9689 49.4772 76.8809 49.9963C76.7929 50.5154 76.7209 50.947 76.7209 50.9554C76.7209 50.9649 76.2126 50.9706 75.361 50.9706C74.3186 50.9706 74.0011 50.9662 74.0011 50.9516Z" fill="#00A6B5"/>
<path d="M62.188 50.9235C62.1932 50.8975 62.2671 50.4637 62.3523 49.9595L62.5072 49.0428L65.2328 49.0346L65.2242 49.0787C65.2194 49.1029 65.1455 49.5367 65.0599 50.0427L64.9043 50.9626L62.1785 50.9708L62.188 50.9235Z" fill="#00A6B5"/>
<path d="M89.6529 58.6302C89.6573 58.6104 90.0306 56.5009 90.4825 53.9425L91.3039 49.2907H94V49.364C94 49.4197 92.4645 58.1706 92.3825 58.5822L92.3658 58.6662H89.6448L89.6529 58.6302Z" fill="#00A6B5"/>
<path d="M72.6412 58.6478C72.6412 58.6159 73.8277 51.8593 73.8355 51.8466C73.8396 51.84 74.4509 51.8346 75.194 51.8346C76.4487 51.8346 76.545 51.8365 76.545 51.8615C76.545 51.8804 75.6243 57.1568 75.3666 58.6142L75.3575 58.6662H73.9993C72.9849 58.6662 72.6412 58.6616 72.6412 58.6478Z" fill="#00A6B5"/>
<path d="M60.8271 58.6383C60.8306 58.6229 61.0965 57.1055 61.418 55.2664C61.7395 53.4273 62.0065 51.9028 62.0114 51.8786L62.0203 51.8346H63.379C64.4557 51.8346 64.7374 51.8388 64.7368 51.8546C64.7363 51.8656 64.468 53.4009 64.1405 55.2664L63.5451 58.6582L62.1829 58.6623C60.891 58.6662 60.8211 58.665 60.8271 58.6383Z" fill="#00A6B5"/>
<path d="M78.5784 58.7141C78.1911 58.6872 77.8871 58.6351 77.6732 58.5589C77.3141 58.4309 77.1032 58.183 77.0227 57.7943C76.9933 57.6522 76.9906 57.5975 76.9984 57.3063C77.007 56.9809 77.0352 56.733 77.1037 56.3783C77.1215 56.286 77.2407 55.5984 77.3686 54.8504C77.4964 54.1025 77.6047 53.4743 77.6093 53.4545L77.6175 53.4185H77.1292C76.6745 53.4185 76.641 53.4166 76.6419 53.3905C76.6424 53.3751 76.7022 53.0205 76.7748 52.6026L76.9068 51.8426L77.9154 51.8342L78.0152 51.2784C78.07 50.9728 78.1553 50.4977 78.2046 50.2227L78.2944 49.7227H79.6276C80.3608 49.7227 80.9603 49.7281 80.9599 49.7347C80.9594 49.7413 80.8747 50.2147 80.7717 50.7867L80.5843 51.8266L81.8911 51.835L81.8821 51.8788C81.8771 51.9029 81.8188 52.2394 81.7525 52.6266C81.6862 53.0137 81.628 53.3503 81.6231 53.3745L81.6141 53.4185H80.9594C80.5689 53.4185 80.3047 53.4245 80.3047 53.4333C80.3047 53.4415 80.1997 54.0408 80.0714 54.7652C79.824 56.1615 79.8007 56.3182 79.8259 56.4137C79.85 56.5044 79.9349 56.6054 80.0226 56.6474C80.1882 56.7267 80.3161 56.7463 80.6676 56.7463H80.9933L80.985 56.7823C80.9804 56.8021 80.9156 57.2143 80.8411 57.6983C80.7666 58.1823 80.7018 58.6003 80.697 58.6273L80.6884 58.6763L80.2046 58.6965C79.5647 58.7231 78.8246 58.7311 78.5784 58.7141Z" fill="#00A6B5"/>
<path d="M82.1581 58.5828C81.946 58.4768 81.9176 58.4571 81.783 58.3232C81.6306 58.1715 81.5429 58.0398 81.4677 57.8495C81.377 57.6201 81.359 57.4431 81.3862 57.0503C81.4143 56.6464 81.4677 56.4432 81.6259 56.1384C81.7205 55.9563 81.8071 55.8439 82.0125 55.6366C82.3967 55.2488 82.8064 55.0099 83.3616 54.8501C83.5954 54.7829 84.4146 54.6448 85.1181 54.5542C85.9083 54.4524 86.3422 54.3697 86.5074 54.2894C86.6175 54.2359 86.7405 54.0998 86.7848 53.9824C86.8536 53.8003 86.8003 53.579 86.6622 53.4737C86.5899 53.4185 86.3631 53.3508 86.1531 53.3216C85.9383 53.2917 85.5834 53.3512 85.3658 53.4534C85.2436 53.5109 85.0966 53.6609 85.0339 53.7924C85.0039 53.8551 84.9754 53.9191 84.9705 53.9345C84.962 53.9609 84.8846 53.9625 83.6415 53.9625H82.3214L82.3308 53.9105C82.4651 53.1639 82.9019 52.5777 83.6006 52.2064C84.2201 51.8772 85.0305 51.7146 86.2164 51.6815C87.2049 51.6538 88.1297 51.7859 88.6576 52.03C88.9579 52.1688 89.2016 52.3781 89.3149 52.5946C89.433 52.8201 89.5042 53.1603 89.5042 53.4989C89.5042 53.7399 89.488 53.9323 89.4388 54.2745C89.4051 54.5088 88.8199 57.8154 88.809 57.833C88.8056 57.8386 88.7947 57.9023 88.7848 57.9745C88.7529 58.2076 88.82 58.4159 88.9724 58.5563C89.042 58.6204 89.0436 58.6241 89.0301 58.6874L89.0163 58.7526L88.7843 58.7477C88.6567 58.745 88.0267 58.7273 87.3844 58.7085L86.2164 58.6742L86.2078 57.9469L86.1081 58.0278C85.6627 58.3894 85.0897 58.6614 84.5285 58.7777C83.6977 58.9295 82.8491 58.9238 82.1581 58.5828ZM85.1685 57.3534C85.3249 57.3283 85.5234 57.2545 85.6677 57.1678C86.1123 56.9008 86.3611 56.4457 86.4558 55.7264C86.4607 55.689 86.4613 55.6584 86.457 55.6584C86.4527 55.6584 86.3969 55.6791 86.3328 55.7044C86.093 55.7993 85.7993 55.8847 85.5306 55.9377C85.083 56.0261 84.7824 56.1144 84.5776 56.2178C84.4607 56.2768 84.3317 56.4153 84.2678 56.5502C84.2232 56.6442 84.2158 56.6786 84.2111 56.8135C84.206 56.9584 84.2085 56.974 84.2503 57.0508C84.3011 57.144 84.3561 57.1954 84.4635 57.2498C84.6609 57.3498 84.9374 57.3904 85.1685 57.3534Z" fill="#00A6B5"/>
<path d="M67.1055 60.9058C66.4313 60.8503 65.9088 60.7335 65.5228 60.5521C65.1834 60.3926 64.8656 60.1374 64.6819 59.8767C64.5399 59.6752 64.4325 59.3711 64.4098 59.1062C64.4043 59.0421 64.4069 58.9842 64.4159 58.9709C64.4296 58.9506 64.5969 58.9522 65.7405 58.9836C66.4604 59.0033 67.0795 59.0232 67.1162 59.0276C67.1805 59.0355 67.1833 59.0383 67.1936 59.103C67.2179 59.2566 67.2832 59.3379 67.45 59.4224C67.5759 59.4862 67.7023 59.5041 67.9507 59.4934C68.2716 59.4796 68.4983 59.4044 68.7003 59.2447C68.9146 59.0753 69.1575 58.5855 69.1946 58.2478C69.2007 58.1919 69.2292 58.0239 69.258 57.8743C69.2867 57.7247 69.3088 57.6007 69.307 57.5988C69.3052 57.5969 69.2501 57.6353 69.1846 57.6841C68.6976 58.0467 68.1554 58.2587 67.5731 58.314C67.3673 58.3335 66.8975 58.3205 66.6973 58.2896C66.1979 58.2127 65.7077 57.9622 65.3747 57.6136C64.9267 57.1447 64.6793 56.4307 64.7138 55.7064C64.7466 55.0189 64.8645 54.511 65.1335 53.8985C65.3436 53.4202 65.624 52.9896 65.9438 52.6542C66.4829 52.0887 67.1372 51.7561 67.9534 51.6324C68.2295 51.5906 68.6482 51.594 68.8604 51.6397C69.4577 51.7684 69.9373 52.0799 70.2264 52.5269C70.3077 52.6526 70.3207 52.6661 70.3283 52.6328C70.333 52.6118 70.366 52.4326 70.4015 52.2346C70.4369 52.0366 70.47 51.8548 70.4749 51.8306L70.4838 51.7866H72.8818L72.8733 51.8226C72.8686 51.8424 72.6453 53.0933 72.3769 54.6024C71.7951 57.8742 71.827 57.7027 71.7296 58.0823C71.4927 59.0057 71.3044 59.4048 70.8808 59.8815C70.6117 60.1842 70.1734 60.4754 69.7773 60.6146C69.5047 60.7104 68.9777 60.8174 68.4894 60.876C68.1818 60.913 67.3971 60.9299 67.1055 60.9058ZM68.7184 56.4256C68.9197 56.3751 69.0946 56.2778 69.234 56.1387C69.4958 55.8774 69.6934 55.4939 69.7675 55.103C69.8061 54.8997 69.8179 54.4587 69.7885 54.3225C69.7295 54.0491 69.6241 53.8714 69.4455 53.7439C69.2664 53.6161 69.1599 53.586 68.8974 53.5889C68.4376 53.594 68.1626 53.7379 67.9241 54.0985C67.7391 54.378 67.6284 54.664 67.559 55.0416C67.5231 55.2373 67.5187 55.2964 67.5254 55.4984C67.5318 55.691 67.5401 55.7521 67.5747 55.8584C67.682 56.1882 67.9196 56.3984 68.2536 56.4588C68.3584 56.4777 68.5715 56.4625 68.7184 56.4256Z" fill="#00A6B5"/>
<path d="M54.9411 58.8335C54.0084 58.7064 53.3671 58.1918 53.0377 57.3063C52.8713 56.8588 52.8365 56.4081 52.9072 55.6136C52.9407 55.2367 53.064 54.7595 53.2637 54.2345C53.4155 53.8352 53.5101 53.6486 53.7382 53.2985C54.3205 52.4051 55.0586 51.8703 55.9798 51.6746C56.5396 51.5556 57.3644 51.6678 57.7886 51.9207C57.9459 52.0145 58.1617 52.2093 58.2771 52.3618C58.3207 52.4194 58.361 52.465 58.3667 52.4632C58.3723 52.4613 58.5037 51.7414 58.6585 50.8633L58.9401 49.2667L61.6664 49.2586L61.6581 49.2946C61.6536 49.3145 61.2823 51.4186 60.833 53.9705C60.3838 56.5223 60.0125 58.6228 60.008 58.6382C60.0002 58.6646 59.9277 58.6662 58.7766 58.6662H57.5534L57.5615 58.6302C57.566 58.6104 57.599 58.425 57.6349 58.2182C57.6708 58.0115 57.7043 57.8243 57.7093 57.8023C57.716 57.7729 57.6613 57.8182 57.5042 57.9716C57.1767 58.2917 56.7993 58.5552 56.5073 58.6679C56.3359 58.734 56.0638 58.8031 55.856 58.8334C55.647 58.8639 55.1644 58.8639 54.9411 58.8335ZM56.7817 56.8904C57.0853 56.8179 57.3276 56.6586 57.524 56.4023C57.6203 56.2768 57.7237 56.1069 57.7794 55.983C57.9744 55.5493 58.066 54.8235 57.9727 54.4505C57.9213 54.2446 57.839 54.0863 57.7226 53.9694C57.5504 53.7963 57.3486 53.7305 57.0353 53.7453C56.7084 53.7607 56.491 53.8503 56.2383 54.0737C56.1025 54.1939 55.8941 54.539 55.7885 54.8187C55.6689 55.1355 55.5941 55.6153 55.6064 55.9855C55.6155 56.2559 55.6443 56.3841 55.7377 56.5696C55.8212 56.7353 55.9917 56.8635 56.1994 56.9167C56.31 56.945 56.6099 56.9314 56.7817 56.8904Z" fill="#00A6B5"/>
</svg>
