<svg width="108" height="108" viewBox="0 0 108 108" fill="none" xmlns="http://www.w3.org/2000/svg">
<path d="M19.135 58.0766C18.0752 58.0326 16.9435 57.7839 15.8613 57.357C15.609 57.2575 15.2312 57.093 15.0868 57.0198C15.0295 56.9907 15.0254 56.9839 14.9133 56.7293C14.3684 55.4922 14.068 54.2216 14.0062 52.8916C13.9951 52.653 14.0003 52.047 14.0153 51.8343C14.1048 50.566 14.3897 49.4202 14.9026 48.2663C14.9427 48.1759 14.987 48.0793 15.0009 48.0515L15.0263 48.001L15.2113 47.9168C16.2142 47.4604 17.2775 47.1701 18.3603 47.0572C19.5415 46.934 20.6288 47.009 21.7603 47.2916C22.4821 47.4719 23.1452 47.71 23.8972 48.0589L23.9598 48.088L24.0216 48.2229C24.5575 49.3929 24.8847 50.6224 24.9851 51.843C25.1032 53.2777 24.89 54.7498 24.3582 56.1724C24.2313 56.5117 24.0002 57.0467 23.9686 57.074C23.9348 57.1033 23.5189 57.285 23.2243 57.3992C23.0352 57.4725 22.6112 57.6149 22.4108 57.6725C21.607 57.9033 20.8153 58.0328 19.9571 58.0739C19.7952 58.0815 19.2952 58.0834 19.135 58.0766ZM20.0524 57.8384C21.331 57.7671 22.6268 57.4496 23.7193 56.9397L23.801 56.9015L23.884 56.7154C24.3809 55.6008 24.6693 54.4927 24.7601 53.3485C24.8874 51.747 24.5824 50.0619 23.8767 48.4665L23.7862 48.2621L23.6278 48.19C22.3697 47.6185 21.1036 47.3009 19.836 47.2387C19.6093 47.2275 19.0719 47.2326 18.8451 47.2481C17.5996 47.3329 16.4888 47.603 15.4091 48.0837C15.1809 48.1852 15.1967 48.1754 15.1723 48.2307C15.1604 48.2575 15.1233 48.341 15.0899 48.4163C14.6694 49.3633 14.389 50.4083 14.2803 51.434C14.2408 51.8061 14.2292 52.035 14.2289 52.4522C14.2289 53.0388 14.2661 53.5129 14.3583 54.0746C14.5061 54.9744 14.8021 55.945 15.1713 56.7399L15.2086 56.8202L15.2851 56.8559C16.5772 57.4594 17.8909 57.7937 19.1826 57.8478C19.3771 57.8558 19.8252 57.8511 20.0524 57.8384ZM19.0636 57.2584C19.0475 57.2553 19.0442 57.249 19.0444 57.2226C19.0451 57.1487 19.0945 56.3756 19.0988 56.3712C19.1015 56.3686 19.1896 56.3702 19.2947 56.3749C19.4708 56.3827 19.4892 56.3851 19.5268 56.4045C19.5568 56.4199 19.5751 56.4379 19.5953 56.4718C19.6613 56.5821 19.6371 56.7725 19.5477 56.8469C19.5012 56.8856 19.446 56.899 19.3337 56.899H19.2369L19.2316 56.9621C19.2287 56.9968 19.2237 57.079 19.2205 57.1448L19.2147 57.2645L19.1489 57.2633C19.1127 57.2622 19.0743 57.2606 19.0636 57.2584ZM19.399 56.7533C19.4409 56.7322 19.4595 56.6908 19.4595 56.6189C19.4595 56.571 19.4561 56.5566 19.4401 56.5379C19.4182 56.5124 19.3731 56.4993 19.3065 56.4989C19.2711 56.4989 19.2608 56.5018 19.2574 56.514C19.2551 56.5223 19.2506 56.5808 19.2474 56.6439L19.2416 56.7587L19.2748 56.7621C19.3464 56.7697 19.3698 56.768 19.399 56.7533ZM20.3469 57.2101C20.3362 57.1485 20.2295 56.3483 20.2317 56.3467C20.2331 56.3456 20.312 56.3339 20.4072 56.3204C20.6011 56.293 20.6553 56.2963 20.7052 56.3386C20.7517 56.3779 20.7706 56.4316 20.7707 56.5248C20.7707 56.5959 20.768 56.612 20.751 56.6395C20.7401 56.6571 20.7189 56.6793 20.7038 56.6889L20.6764 56.7064L20.7019 56.7121C20.716 56.7152 20.7337 56.7196 20.7414 56.7216C20.7674 56.7287 20.8173 56.7877 20.8314 56.8282C20.8508 56.8842 20.8583 57.0172 20.8444 57.0607C20.829 57.1091 20.797 57.1487 20.7566 57.1694C20.7335 57.1813 20.6648 57.1958 20.5515 57.2127C20.4579 57.2267 20.3746 57.2382 20.3665 57.2383C20.3566 57.2383 20.3502 57.2292 20.3469 57.2101ZM20.6098 57.0697C20.626 57.0643 20.6474 57.0489 20.6574 57.0354C20.6939 56.9858 20.6683 56.8384 20.6185 56.8116C20.6006 56.802 20.4761 56.8051 20.4657 56.8154C20.4624 56.8188 20.4959 57.0566 20.5029 57.0796C20.5067 57.0916 20.5567 57.0873 20.6098 57.0697ZM20.556 56.6506C20.5711 56.6443 20.5896 56.6275 20.5971 56.613C20.615 56.5781 20.6143 56.5104 20.5954 56.4727C20.5731 56.4277 20.549 56.4194 20.4736 56.4307C20.4121 56.4399 20.4108 56.4406 20.415 56.4629C20.4173 56.4754 20.4238 56.5229 20.4292 56.5684C20.4346 56.6138 20.4406 56.6562 20.4425 56.6625C20.4466 56.6758 20.5109 56.6691 20.556 56.6506ZM18.4291 57.2217C18.355 57.2114 18.2874 57.187 18.2528 57.1584C18.1667 57.087 18.1615 57.0071 18.2156 56.5794C18.2363 56.4156 18.2555 56.2794 18.2581 56.2767C18.2625 56.2721 18.422 56.2885 18.4277 56.2939C18.429 56.2952 18.4125 56.4347 18.3909 56.604C18.3694 56.7733 18.3517 56.9367 18.3517 56.967C18.3517 57.0161 18.3545 57.025 18.3764 57.047C18.4202 57.091 18.5033 57.0924 18.5456 57.0497C18.5797 57.0154 18.5895 56.9665 18.6297 56.6304L18.6664 56.3227L18.719 56.3283C18.7479 56.3312 18.7873 56.3361 18.8066 56.3386L18.8417 56.3434L18.8007 56.6712C18.7753 56.8735 18.7526 57.0217 18.7412 57.0583C18.7196 57.128 18.6768 57.1809 18.6224 57.2052C18.5798 57.2242 18.4975 57.2313 18.4291 57.2217ZM17.7428 57.1178L17.6575 57.0949L17.6628 57.0424C17.6657 57.0135 17.6758 56.9489 17.6853 56.8988C17.7088 56.775 17.708 56.7552 17.678 56.725C17.6531 56.7 17.6181 56.6873 17.5462 56.6769L17.5067 56.6712L17.469 56.8569C17.4483 56.959 17.4304 57.0438 17.4293 57.0454C17.4272 57.0483 17.2593 57.0132 17.2553 57.009C17.2522 57.006 17.4406 56.1326 17.4455 56.1277C17.4523 56.1209 17.7992 56.2029 17.8428 56.2218C17.8947 56.2442 17.9409 56.2949 17.9541 56.3437C17.9659 56.3877 17.9599 56.4742 17.9402 56.5407C17.9232 56.5985 17.8742 56.6504 17.8287 56.659L17.7966 56.6651L17.831 56.6901C17.8791 56.7251 17.8813 56.7455 17.8537 56.8969C17.8365 56.9916 17.8316 57.0406 17.8352 57.0839C17.8379 57.1162 17.8373 57.1422 17.834 57.1418C17.8308 57.1407 17.7897 57.1305 17.7428 57.1178ZM17.7512 56.5413C17.7739 56.5199 17.7979 56.451 17.7977 56.408C17.797 56.3715 17.7802 56.3399 17.7532 56.3269C17.7282 56.3149 17.5994 56.2864 17.5941 56.2917C17.589 56.2968 17.5394 56.5288 17.5427 56.5322C17.5442 56.5337 17.5721 56.5424 17.6046 56.5514C17.6763 56.5711 17.7231 56.5679 17.7512 56.5413ZM21.267 57.0861C21.21 57.0676 21.1557 57.0047 21.1262 56.923C21.0908 56.8248 21.0432 56.5787 21.0374 56.4633C21.0307 56.332 21.0433 56.2898 21.1054 56.2337C21.1596 56.1847 21.2341 56.1593 21.3239 56.1593C21.4392 56.1593 21.5098 56.2156 21.5464 56.3366C21.5552 56.3659 21.5625 56.3941 21.5626 56.3991C21.5626 56.41 21.4142 56.4404 21.4064 56.4311C21.4035 56.4274 21.3944 56.4066 21.3863 56.3843C21.358 56.307 21.313 56.2782 21.2572 56.3016C21.2179 56.3181 21.1979 56.3564 21.1979 56.4151C21.1979 56.4761 21.2654 56.8235 21.2871 56.8743C21.3115 56.9313 21.3374 56.953 21.3872 56.9578C21.4615 56.965 21.4908 56.9156 21.4755 56.8092C21.4712 56.7796 21.4677 56.7513 21.4676 56.7463C21.4669 56.7374 21.6215 56.703 21.6288 56.7103C21.6308 56.7123 21.6348 56.7528 21.6377 56.8002C21.6418 56.8674 21.6397 56.8975 21.6283 56.9369C21.6099 57.0005 21.5586 57.0551 21.4972 57.0766C21.4368 57.0976 21.3177 57.1025 21.267 57.0861ZM21.8881 56.9106C21.8772 56.7896 21.8386 56.098 21.8412 56.0714C21.8439 56.0442 21.8452 56.0435 21.9457 56.0132C22.0017 55.9964 22.0491 55.9842 22.051 55.9861C22.0701 56.0057 22.4972 56.7808 22.4917 56.786C22.4877 56.7897 22.4557 56.8015 22.4205 56.8119C22.3854 56.8223 22.3519 56.8326 22.3461 56.8349C22.3396 56.8375 22.316 56.8015 22.2851 56.742C22.2574 56.6887 22.2301 56.6432 22.2244 56.641C22.2186 56.6387 22.1755 56.6482 22.1285 56.6619L22.043 56.6868L22.0437 56.7298C22.0437 56.7535 22.0472 56.8068 22.0511 56.8484L22.0583 56.9238L21.9989 56.9414C21.8836 56.9755 21.8942 56.9786 21.8881 56.9106ZM22.1521 56.5003C22.155 56.4972 22.1172 56.4122 22.0681 56.3117C22.019 56.2111 21.9786 56.1348 21.9784 56.142C21.9777 56.1596 22.0126 56.4981 22.0175 56.5221L22.0214 56.5411L22.0841 56.5237C22.1186 56.5142 22.1492 56.5036 22.1521 56.5003ZM16.8847 56.9167C16.8287 56.9004 16.8275 56.8982 16.8411 56.8384L16.848 56.8083L16.8173 56.8353C16.7545 56.8908 16.6767 56.8945 16.5801 56.8466C16.4259 56.7703 16.4127 56.6651 16.5129 56.3109C16.5774 56.0828 16.6348 55.9873 16.7234 55.9606C16.8165 55.9325 16.9807 55.9706 17.057 56.0379C17.0965 56.0729 17.1132 56.1045 17.1227 56.1624C17.1302 56.2082 17.1178 56.3334 17.1056 56.3334C17.1022 56.3334 17.088 56.3297 17.0742 56.3254C17.0604 56.3209 17.0275 56.3113 17.0011 56.3039L16.953 56.2905L16.9613 56.24C16.9682 56.1979 16.9671 56.1841 16.9545 56.1574C16.9375 56.1215 16.8839 56.0898 16.84 56.0898C16.8074 56.0898 16.7607 56.1206 16.7408 56.1551C16.7216 56.1885 16.6209 56.5501 16.6147 56.6077C16.6117 56.6368 16.6141 56.662 16.6236 56.6836C16.6506 56.7486 16.7351 56.7717 16.7905 56.7293C16.8194 56.7071 16.8649 56.6229 16.8755 56.5721C16.8811 56.5454 16.8808 56.5452 16.831 56.5341C16.8034 56.528 16.7785 56.5216 16.7757 56.5199C16.7677 56.5152 16.8041 56.3857 16.8134 56.3857C16.8397 56.3857 17.0712 56.4678 17.0682 56.4761C17.0663 56.4815 17.0378 56.5866 17.005 56.7099C16.9722 56.8331 16.9434 56.9334 16.941 56.9329C16.9386 56.9319 16.9133 56.9248 16.8847 56.9167ZM18.6485 55.3478C18.6215 55.2593 18.5749 55.1838 18.495 55.0996C18.3249 54.9201 18.0659 54.8101 17.8108 54.809C17.7354 54.808 17.6832 54.8151 17.5598 54.8396C17.2053 54.9103 16.9957 54.9354 16.7549 54.9361C16.5628 54.9372 16.5255 54.9321 16.4001 54.8914C16.25 54.8428 16.1184 54.7586 15.9886 54.6281C15.8081 54.4466 15.7012 54.2422 15.6765 54.0313C15.6559 53.8563 15.6808 53.565 15.7298 53.4051C15.7657 53.2878 15.8197 53.1798 15.87 53.1247L15.8876 53.1054L15.9116 53.1435C15.969 53.2345 16.0637 53.3131 16.2005 53.3831C16.3046 53.4364 16.4154 53.4729 16.6748 53.5395C17.6854 53.799 18.1495 54.0203 18.454 54.388C18.6775 54.6577 18.8096 54.9853 18.8253 55.3087L18.8302 55.4109L18.6676 55.4109L18.6485 55.3478ZM19.0181 55.3549C19.0181 55.211 18.9655 54.9523 18.9013 54.7801C18.8397 54.6151 18.7327 54.4194 18.6319 54.2874C18.2921 53.8423 17.8293 53.6086 16.7203 53.322C16.6061 53.2925 16.4853 53.2585 16.452 53.2464C16.0917 53.1164 15.8425 52.8082 15.7672 52.3995C15.7466 52.2874 15.7464 52.0524 15.7665 51.9388C15.8203 51.6396 15.9591 51.3627 16.1596 51.1548C16.3951 50.9106 16.6778 50.7882 17.1044 50.7461C17.4723 50.7098 17.8978 50.9158 18.2796 51.3155C18.7099 51.7657 19.0085 52.3746 19.1182 53.0257C19.1656 53.3075 19.1668 53.337 19.1712 54.4124L19.1754 55.411H19.0179L19.0181 55.3549ZM19.3523 55.374C19.3498 55.3537 19.3457 54.9964 19.3432 54.5799C19.3368 53.5367 19.3256 53.275 19.2728 52.9309C19.2345 52.682 19.1761 52.4494 19.0992 52.2403C19.0106 51.9994 18.8266 51.6684 18.6751 51.4776C18.6466 51.4417 18.5471 51.332 18.454 51.2339C18.3609 51.1358 18.2506 51.0164 18.209 50.9685C17.8571 50.5639 17.694 50.1712 17.694 49.7289C17.694 49.2432 17.8562 48.8251 18.1651 48.5148C18.657 48.0207 19.4686 47.8706 20.1609 48.1457C20.5422 48.2972 20.8487 48.5774 21.0214 48.9322C21.1388 49.1733 21.1913 49.4179 21.1915 49.7241C21.1922 50.005 21.144 50.2145 21.0231 50.4638C20.9147 50.6873 20.7578 50.8957 20.4763 51.1904C20.2767 51.3994 20.2207 51.4636 20.146 51.5691C19.7772 52.09 19.6039 52.6363 19.5635 53.4051C19.5587 53.4961 19.5548 53.9846 19.5548 54.4907V55.411H19.3568L19.3523 55.374ZM19.7131 54.4472C19.716 53.8574 19.7216 53.4379 19.7275 53.366C19.7558 53.0217 19.8291 52.6879 19.9413 52.3913C20.2583 51.5538 20.8912 50.8955 21.5107 50.7587C21.7332 50.7096 22.1467 50.7788 22.4027 50.908C22.7486 51.0825 23.021 51.4575 23.1125 51.8852C23.1407 52.0168 23.1451 52.2515 23.122 52.387C23.0536 52.7884 22.8205 53.0919 22.4719 53.2334C22.4312 53.2499 22.2927 53.2906 22.1642 53.3238C20.9917 53.6266 20.5381 53.8686 20.2098 54.3668C20.0897 54.5489 19.9829 54.8049 19.9363 55.0221C19.9162 55.1157 19.8923 55.3046 19.8923 55.3696V55.411H19.7084L19.7131 54.4472ZM20.0569 55.361C20.0576 55.2858 20.0795 55.1313 20.1049 55.0292C20.2065 54.6215 20.4751 54.2606 20.8418 54.0391C21.1389 53.8597 21.519 53.7219 22.2418 53.5317C22.3847 53.494 22.527 53.4537 22.558 53.4419C22.7474 53.3702 22.9166 53.2497 22.9794 53.1419L23.0019 53.1034L23.0224 53.1281C23.1471 53.2782 23.2166 53.5385 23.2169 53.8577C23.2176 54.0711 23.199 54.1651 23.1291 54.3102C22.9859 54.6079 22.7181 54.8354 22.4209 54.9117C22.2134 54.965 21.843 54.9415 21.3549 54.844C21.1528 54.8036 21.0399 54.7983 20.9179 54.8236C20.5772 54.8941 20.3139 55.1008 20.2335 55.361L20.218 55.411H20.0567L20.0569 55.361ZM38.0977 57.2595C38.0786 57.2578 38.0046 57.252 37.9332 57.2468C37.2796 57.1988 36.6423 57.0188 36.1503 56.7432C35.192 56.2063 34.5981 55.2928 34.4497 54.1274C34.2776 52.7752 34.7894 51.2472 35.8123 50.0594C36.7706 48.9466 38.075 48.2489 39.5379 48.0667C39.89 48.0228 40.351 48.0079 40.524 48.0348C40.6337 48.0518 40.8209 48.0997 40.9558 48.1453C41.0114 48.1641 41.0596 48.1794 41.063 48.1794C41.0664 48.1794 41.1222 48.1112 41.1869 48.0279L41.3046 47.8763L41.3845 47.9187C42.8496 48.696 43.1693 48.8668 43.1715 48.8733C43.174 48.8807 41.8388 51.3255 41.8236 51.3414C41.8198 51.3455 41.7763 51.3176 41.727 51.2795C41.2337 50.8975 40.6883 50.6799 40.1056 50.6328C39.9493 50.6201 39.644 50.6266 39.4824 50.646C38.853 50.7215 38.3243 50.9668 37.9245 51.3688C37.5704 51.7248 37.3302 52.1947 37.244 52.6998C37.2215 52.8318 37.2126 53.1168 37.2271 53.241C37.2898 53.777 37.5604 54.2274 37.9955 54.52C38.1991 54.6568 38.4803 54.7685 38.7588 54.8231C38.9769 54.8659 39.0763 54.8748 39.3396 54.8752C39.6052 54.8762 39.6743 54.868 39.8998 54.8147C40.3531 54.7075 40.9563 54.4521 41.3053 54.2197L41.3799 54.1701L41.3561 54.2227C41.2389 54.4825 40.0461 57.0276 40.0381 57.0349C40.0324 57.0402 39.977 57.0547 39.9152 57.0671C39.8533 57.0794 39.7009 57.1112 39.5765 57.1378C39.0763 57.2445 38.9654 57.257 38.4914 57.2602C38.2939 57.2616 38.1167 57.2616 38.0977 57.2595ZM26.4963 56.9665C26.497 56.9606 26.8638 55.5322 27.3123 53.7924L28.1278 50.6291L28.0453 50.6236C28 50.6206 27.8509 50.6176 27.7141 50.617C27.5772 50.6159 27.4653 50.613 27.4655 50.6094C27.4655 50.6059 27.7724 50.0076 28.1473 49.2801L28.829 47.9574L30.7154 47.9549C32.6216 47.9523 32.8129 47.9549 33.0368 47.984C34.0252 48.1134 34.6537 48.6605 34.8006 49.5196C34.8229 49.6499 34.8274 49.9499 34.8092 50.0941C34.7063 50.9113 34.074 51.7135 33.1217 52.2349L33.053 52.2725L33.0827 52.2855C33.3149 52.387 33.464 52.4811 33.5983 52.6112C33.8932 52.8968 34.0372 53.2538 34.0782 53.8011C34.0911 53.9722 34.0838 54.3131 34.0648 54.432C33.9745 54.9979 33.7117 55.5003 33.2771 55.9377C32.6651 56.5536 31.816 56.9192 30.8833 56.9684C30.6189 56.9823 26.4958 56.9806 26.4963 56.9665ZM30.8454 54.6712C31.2318 54.6048 31.5327 54.3881 31.6456 54.0951C31.7186 53.9055 31.7143 53.712 31.6334 53.5505C31.5562 53.3964 31.4211 53.2881 31.2326 53.2293L31.1565 53.2055L30.5992 53.2026C30.2926 53.2011 30.0388 53.2026 30.0351 53.2068C30.0313 53.2104 29.9441 53.5388 29.8412 53.9361C29.7384 54.3333 29.6521 54.6652 29.6496 54.6736C29.6453 54.688 29.6753 54.6888 30.1944 54.6888C30.7049 54.6888 30.7508 54.6874 30.8454 54.6712ZM31.4464 51.5961C31.8848 51.5181 32.1269 51.266 32.1754 50.8366C32.1937 50.6753 32.1615 50.5589 32.0747 50.4719C32.0151 50.4121 31.958 50.3811 31.8575 50.3539C31.7923 50.3362 31.7586 50.3346 31.2707 50.3264C30.9666 50.3213 30.7499 50.3208 30.7454 50.3253C30.7387 50.3321 30.4511 51.5871 30.4511 51.6097C30.4511 51.6153 30.6093 51.617 30.9077 51.6145C31.2843 51.6114 31.3786 51.6081 31.4464 51.5961ZM40.7323 56.7229C41.2065 55.7882 43.8488 50.5437 43.8488 50.5372C43.8488 50.5325 43.699 50.5283 43.4865 50.527L43.1242 50.5247L44.5126 47.9576L48.789 47.9531L48.7944 48.0336C48.7973 48.0779 48.8833 50.0859 48.9854 52.4957C49.0875 54.9056 49.1721 56.8999 49.1734 56.9274L49.1758 56.9775H46.3154V55.4285H44.3543L43.7118 56.9731L40.6031 56.9775L40.7323 56.7229ZM46.3238 53.1811C46.3238 53.0937 46.318 52.5974 46.3111 52.078C46.3041 51.5587 46.2984 51.04 46.2983 50.9254C46.2983 50.7996 46.295 50.7203 46.2902 50.7253C46.2824 50.7333 45.2008 53.2947 45.1925 53.3246C45.1885 53.339 45.2194 53.3399 45.7561 53.3399H46.3241L46.3238 53.1811Z" fill="#0060AF"/>
<path d="M58.3585 60.7193C58.088 60.6994 57.6124 60.6297 57.5853 60.606C57.5763 60.5982 57.6806 60.1834 57.817 59.6843L58.065 58.7768L58.1435 58.7796C58.1867 58.7812 58.3419 58.7905 58.4883 58.8002C58.7881 58.8201 59.1201 58.7881 59.3502 58.717C59.4601 58.6831 59.5134 58.6498 59.589 58.5677C59.6913 58.4568 59.821 58.2032 59.8651 58.0282C59.891 57.9253 59.8835 57.9023 58.6487 54.3074C57.9654 52.3179 57.4062 50.687 57.4062 50.6832C57.4062 50.6793 57.9414 50.6762 58.5955 50.6764H59.7847L60.2433 52.0952C60.4954 52.8756 60.7732 53.7348 60.8604 54.0045C60.9477 54.2743 61.027 54.4863 61.0368 54.4756C61.0465 54.465 61.3375 53.6057 61.6834 52.5661L62.3124 50.6759H63.4788C64.1203 50.6759 64.6451 50.6837 64.645 50.6932C64.645 50.7026 64.227 51.9483 63.7163 53.4613C63.2056 54.9742 62.6776 56.572 62.5432 57.0118C62.4087 57.4516 62.242 57.9862 62.1729 58.1998C61.8592 59.1691 61.3828 59.8701 60.7934 60.2298C60.4727 60.4255 59.9627 60.6096 59.532 60.6851C59.2844 60.7284 58.7105 60.7453 58.3585 60.7193ZM53.3732 57.246C52.8255 57.1806 52.2637 57.0218 51.8335 56.811C51.5054 56.6502 51.2844 56.4869 51.1017 56.2703C50.8796 56.007 50.6599 55.593 50.6448 55.4095L50.6385 55.3332L51.5462 55.1898C52.0455 55.1109 52.4962 55.0399 52.5479 55.0321L52.6418 55.0178L52.7382 55.1668C52.8997 55.4166 53.1461 55.5924 53.4536 55.6773C53.5724 55.7101 53.6925 55.7187 54.0396 55.7195C54.4709 55.7203 54.4779 55.7195 54.6141 55.6559C54.916 55.5147 55.0303 55.2992 54.8785 55.1574C54.788 55.0729 54.563 54.9943 54.0856 54.8804C52.8516 54.5862 52.6881 54.536 52.2727 54.3237C51.7735 54.0687 51.4675 53.7188 51.3128 53.2262C51.2382 52.9885 51.238 52.4885 51.3124 52.1858C51.4968 51.4355 51.9267 50.9697 52.7262 50.6541C53.8327 50.2173 55.5395 50.3568 56.5635 50.9679C56.778 51.0959 57.1251 51.4257 57.2535 51.6234C57.3507 51.7732 57.4636 52.054 57.4361 52.0779C57.426 52.0867 57.154 52.1484 56.8317 52.2149C56.5094 52.2814 56.0841 52.3695 55.8867 52.4107L55.5276 52.4855L55.4319 52.34C55.2105 52.0032 54.9166 51.8723 54.3797 51.8715C54.0859 51.8707 53.926 51.899 53.7688 51.9781C53.5863 52.0701 53.5463 52.2303 53.6597 52.4161C53.7578 52.577 53.946 52.6522 54.5451 52.77C55.8192 53.0204 56.4128 53.2602 56.8216 53.6897C57.2122 54.1002 57.3695 54.5523 57.3164 55.113C57.2632 55.6756 57.0818 56.0596 56.6951 56.4289C56.281 56.8242 55.7774 57.0527 54.9818 57.206C54.7736 57.2461 54.6257 57.2559 54.143 57.2614C53.8207 57.265 53.4743 57.2581 53.3732 57.246ZM65.2886 57.1089C64.7969 57.0774 64.5176 56.9802 64.1649 56.7176C63.9506 56.5581 63.8013 56.3836 63.7047 56.18C63.6111 55.9824 63.5809 55.8253 63.5837 55.5492C63.5918 54.7294 64.0954 54.0087 64.9048 53.6585C65.1997 53.5309 65.5765 53.4394 66.8742 53.1801C67.5125 53.0526 68.1278 52.9173 68.2416 52.8794C68.6214 52.753 68.7354 52.6506 68.7356 52.4356C68.7358 52.095 68.4469 51.9078 67.9199 51.9071C67.6236 51.9071 67.4331 51.9558 67.1389 52.1084C66.9292 52.2172 66.7185 52.4125 66.6545 52.5576C66.6315 52.6097 66.5965 52.6526 66.5768 52.6529C66.5301 52.6537 64.3369 52.3955 64.3285 52.3884C64.325 52.3855 64.3493 52.3066 64.3824 52.2133C64.5459 51.7533 64.8959 51.3321 65.392 50.9982C65.7825 50.7353 66.1123 50.5988 66.5847 50.5046C67.0572 50.4104 67.3396 50.3933 68.2051 50.4065C69.1015 50.4201 69.3355 50.448 69.8158 50.5983C70.1508 50.7031 70.3342 50.7864 70.5158 50.916C70.8262 51.1374 70.9624 51.3661 71.0577 51.8257C71.1513 52.2773 71.103 52.7503 70.7952 54.399C70.6997 54.9109 70.5987 55.4641 70.5709 55.6284C70.4849 56.1359 70.5083 56.6427 70.631 56.9326C70.647 56.9706 70.5848 56.9728 69.5067 56.9728H68.3654L68.323 56.8751C68.2811 56.7784 68.2456 56.5895 68.2172 56.3117L68.2025 56.1677L68.1186 56.2383C67.6101 56.6666 67.2182 56.8608 66.5728 57.0043C66.1137 57.1064 65.7336 57.1373 65.2886 57.1089ZM67.1878 55.6832C67.7549 55.5082 68.2004 55.097 68.3549 54.6058C68.4132 54.4206 68.4937 53.9884 68.4736 53.9684C68.4612 53.956 68.1427 54.0341 67.3798 54.2364C66.623 54.437 66.2519 54.6356 66.1314 54.9045C66.0981 54.9786 66.0849 55.0574 66.0847 55.1826C66.0844 55.4167 66.1525 55.5405 66.3295 55.6271C66.5643 55.742 66.9216 55.7654 67.1878 55.6832ZM80.9269 57.1087C80.4159 57.0769 80.0836 56.9488 79.7195 56.6432C79.3323 56.3182 79.175 55.9016 79.2385 55.3697C79.3059 54.8055 79.5647 54.3442 80.0182 53.9797C80.4146 53.6613 80.8261 53.5129 81.8805 53.3082C83.8973 52.9168 84.2413 52.8185 84.3531 52.6023C84.4091 52.4941 84.3854 52.2859 84.3038 52.1681C84.1768 51.9849 83.799 51.8704 83.4339 51.9046C82.9635 51.9487 82.444 52.2509 82.2998 52.5643C82.2727 52.6232 82.2445 52.6515 82.2125 52.6519C82.1866 52.6519 81.6902 52.5956 81.1095 52.5262C80.5287 52.4567 80.0348 52.3998 80.0118 52.3998C79.9637 52.3998 79.9656 52.3903 80.0674 52.1233C80.3012 51.5104 81.0325 50.8723 81.7886 50.6214C82.3503 50.4351 82.7659 50.3915 83.8339 50.4067C84.5205 50.4165 84.6916 50.4259 84.914 50.4657C85.3908 50.551 85.8405 50.7031 86.0873 50.8626C86.4148 51.0743 86.582 51.3127 86.6818 51.7102C86.811 52.2251 86.7738 52.6227 86.4182 54.5289C86.2257 55.5609 86.1558 56.0155 86.1553 56.2402C86.1549 56.4128 86.2057 56.7315 86.2566 56.8758L86.2908 56.9728H84.0152L83.9723 56.8751C83.9253 56.7681 83.8911 56.5921 83.8675 56.335L83.8522 56.1683L83.7609 56.2431C83.3294 56.5962 83.1024 56.7316 82.7167 56.8654C82.1455 57.0637 81.5354 57.1466 80.9269 57.1087ZM82.9491 55.6437C83.2287 55.5344 83.4081 55.418 83.6274 55.2033C83.9081 54.9285 84.0143 54.6965 84.1002 54.1707C84.1176 54.0641 84.1272 53.9722 84.1215 53.9665C84.0983 53.9433 82.6624 54.3264 82.4551 54.4112C81.9029 54.6369 81.7334 54.8176 81.7335 55.1803C81.7335 55.4043 81.7901 55.52 81.9431 55.6096C82.096 55.6993 82.2673 55.7321 82.5355 55.7231C82.7269 55.7168 82.796 55.7035 82.9491 55.6437ZM70.8729 56.9374C70.8729 56.9032 71.9284 50.885 71.9781 50.6359L72.0022 50.5153H73.1725C74.2106 50.5153 74.3429 50.5193 74.3429 50.5506C74.3429 50.5701 74.3067 50.7861 74.2625 51.0307C74.153 51.6361 74.1538 51.641 74.3192 51.3957C74.63 50.9348 75.1998 50.5435 75.7212 50.4329C75.9781 50.3785 76.5544 50.401 76.7919 50.4747L76.8854 50.5038L76.696 51.5572C76.5919 52.1366 76.5019 52.6154 76.496 52.6212C76.4902 52.627 76.4041 52.6113 76.3047 52.5862C75.999 52.5091 75.758 52.4844 75.4482 52.4982C74.6323 52.5345 74.2165 52.8375 73.9527 53.5882C73.8369 53.9177 73.824 53.9803 73.5408 55.5801L73.2963 56.9613L72.0846 56.9672C71.0008 56.9725 70.8729 56.9694 70.8729 56.9374ZM76.2055 56.9443C76.2061 56.9284 76.4575 55.4779 76.7641 53.7211L77.3215 50.5268L79.6766 50.5148L79.6604 50.6012C79.6514 50.6487 79.3995 52.0991 79.1004 53.8244L78.5567 56.9613L77.3805 56.9672C76.4467 56.9719 76.2046 56.9673 76.2055 56.9443ZM86.5226 56.9597C86.5226 56.94 88.0125 48.5263 88.0413 48.3838L88.0656 48.2632H89.19C89.8084 48.2632 90.3141 48.2709 90.3137 48.2804C90.3133 48.2899 90.1851 49.0371 90.0289 49.9408C89.8727 50.8445 89.7474 51.5866 89.7504 51.59C89.7534 51.5934 89.8376 51.5227 89.9375 51.433C90.4772 50.9482 91.0104 50.6369 91.5554 50.4883C91.7245 50.4422 91.8031 50.4351 92.1414 50.4357C92.6131 50.4365 92.8171 50.4796 93.1836 50.6564C93.4983 50.8082 93.6921 50.9952 93.8262 51.2766C93.9718 51.5817 94.0014 51.7321 94 52.1584C93.9985 52.5832 94.0282 52.3866 93.5682 55.0188C93.3838 56.0737 93.2329 56.945 93.2329 56.9549C93.2329 56.9647 92.6849 56.9728 92.015 56.9728C90.9236 56.9728 90.797 56.9691 90.797 56.9367C90.797 56.9169 90.9104 56.3042 91.0491 55.5752C91.4082 53.6868 91.4485 53.4361 91.4504 53.0776C91.4518 52.8031 91.4473 52.7696 91.3945 52.6642C91.3268 52.529 91.2154 52.4463 91.0091 52.3783C90.6537 52.2611 90.2382 52.3722 89.9898 52.6508C89.8633 52.7928 89.7023 53.0915 89.6251 53.3273C89.5968 53.414 89.4273 54.2672 89.2486 55.2232L88.9236 56.9613L87.7231 56.9673C87.0628 56.9706 86.5226 56.9673 86.5226 56.9597Z" fill="#00A6B5"/>
</svg>
