<svg width="109" height="108" viewBox="0 0 109 108" fill="none" xmlns="http://www.w3.org/2000/svg">
<path d="M41.7406 40.1689L41.2183 42.7342C46.3794 42.7136 62.6201 36.7454 63.3743 33.1848C63.3743 33.1854 63.4241 32.9517 63.4727 32.7167C63.5213 32.483 63.5693 32.2493 63.5662 32.2493C56.5304 36.9835 45.9014 40.1583 41.7406 40.1689V40.1689ZM40.7559 44.5946L40.2691 46.9555C45.2451 46.9461 61.6709 40.9679 62.425 37.4067L62.6338 36.3883C55.358 41.4266 45.1697 44.4718 40.7559 44.5946V44.5946ZM39.6957 48.9025L39.1722 51.4653C44.1794 51.3681 60.5752 45.4784 61.3294 41.9184L61.5781 40.7005C55.9383 44.6202 44.2367 48.9268 39.6957 48.9025Z" fill="url(#paint0_linear_801_8301)"/>
<path d="M14.8353 56.8097H16.7206V63.3963H16.7642C17.4361 62.227 18.6489 61.4679 20.3398 61.4679C22.9407 61.4679 24.7817 63.6343 24.7593 66.821C24.7593 70.568 22.3984 72.4309 20.0575 72.4309C18.5405 72.4309 17.327 71.8463 16.5473 70.4602H16.4825L16.3965 72.1928H14.7493C14.7923 71.4773 14.8353 70.4153 14.8353 69.4842V56.8097ZM16.7206 67.9896C16.7206 68.2277 16.7642 68.4652 16.8079 68.6827C17.1762 70.004 18.2812 70.9152 19.668 70.9152C21.6611 70.9152 22.8534 69.2897 22.8534 66.884C22.8534 64.7818 21.7689 62.9843 19.7328 62.9843C18.4321 62.9843 17.2186 63.8724 16.8284 65.3246C16.7854 65.5415 16.7206 65.8008 16.7206 66.1049V67.9896V67.9896Z" fill="#1B517E"/>
<path d="M34.2721 69.6793C34.2721 70.5898 34.3151 71.4773 34.4454 72.1928H32.7115L32.56 70.8709H32.4946C31.91 71.6948 30.7825 72.4309 29.2886 72.4309C27.1646 72.4309 26.082 70.937 26.082 69.4206C26.082 66.8846 28.3344 65.4972 32.3868 65.5209V65.3028C32.3868 64.4371 32.1487 62.8758 30.0035 62.8758C29.0281 62.8758 28.0103 63.1787 27.273 63.6562L26.8386 62.3991C27.7062 61.8363 28.9639 61.4679 30.2846 61.4679C33.4918 61.4679 34.2721 63.6562 34.2721 65.7578V69.6793ZM32.4304 66.841C30.3494 66.7973 27.9885 67.1663 27.9885 69.2018C27.9885 70.4384 28.8112 71.0236 29.786 71.0236C31.1515 71.0236 32.0178 70.156 32.3213 69.2685C32.3868 69.0722 32.4304 68.8559 32.4304 68.6621V66.841V66.841Z" fill="#1B517E"/>
<path d="M37.198 64.5435C37.198 63.4602 37.1756 62.5734 37.1114 61.7058H38.7998L38.9095 63.4391H38.9518C39.4729 62.4437 40.6864 61.4677 42.4196 61.4677C43.8699 61.4677 46.1248 62.3347 46.1248 65.9302V72.1932H44.2171V66.1477C44.2171 64.4574 43.5901 63.0483 41.7908 63.0483C40.5343 63.0483 39.5576 63.9377 39.2329 64.9997C39.1469 65.2365 39.1033 65.5625 39.1033 65.8884V72.1932H37.198V64.5435Z" fill="#1B517E"/>
<path d="M50.8043 66.5164H50.8473C51.1078 66.1475 51.4761 65.6925 51.7803 65.3248L54.8567 61.7062H57.1533L53.1016 66.0178L57.7155 72.193H55.3989L51.7803 67.1665L50.8043 68.2497V72.193H48.9189V56.8099H50.8043V66.5164Z" fill="#1B517E"/>
<path d="M73.4261 62.0772C73.3551 61.9924 73.2853 61.9076 73.2099 61.8297C73.0865 61.7026 72.9493 61.5823 72.8035 61.4689C72.0145 60.8244 71.0609 60.4455 70.0332 60.4455C68.9238 60.4455 67.9023 60.8905 67.0802 61.6315C67.0559 61.6465 67.0353 61.6633 67.011 61.677C66.9817 61.692 66.94 61.7138 66.8913 61.7007C66.7567 61.6652 66.6115 61.5212 66.6109 61.3149V57.0263C66.6109 56.7577 66.3896 56.5402 66.1191 56.5402H64.0325C63.7601 56.5402 63.5401 56.7577 63.5401 57.0263V57.1759C63.5401 57.1809 63.5389 57.1853 63.5389 57.1915V57.6888L63.5426 71.5126C63.5426 71.7868 63.7645 72.0099 64.0381 72.0099H65.9272C66.0475 72.0099 66.1565 71.9644 66.2432 71.8921C66.2457 71.8902 66.25 71.8902 66.2513 71.8877C66.2544 71.8859 66.2556 71.8828 66.2575 71.8803C66.298 71.8447 66.3298 71.803 66.3566 71.7562H66.3572C66.3896 71.6952 66.4114 71.631 66.4189 71.5599C66.4563 71.2545 66.6645 71.0856 66.7935 71.1299C66.8377 71.1442 66.8801 71.1654 66.9238 71.1953C66.968 71.2227 67.011 71.2527 67.0534 71.2807C67.1812 71.3742 67.7452 71.76 68.1809 71.9544C68.4009 72.0517 69.1014 72.2891 69.9147 72.2891C70.7287 72.2891 71.3065 72.109 71.4429 72.0729C71.5801 72.0361 71.7147 71.99 71.8443 71.9308C72.4813 71.6565 72.993 71.2807 73.3825 70.8039C73.767 70.3359 74.0862 69.7818 74.3448 69.1454C74.7293 68.3072 74.9481 67.3467 74.9481 66.3234C74.9481 64.6524 74.3629 63.1473 73.4261 62.0772ZM69.1176 70.0809C67.5888 70.0809 66.3485 68.4343 66.3485 66.4038C66.3485 64.372 67.5888 62.7253 69.1176 62.7253C70.6458 62.7253 71.8848 64.372 71.8848 66.4038C71.8848 68.4343 70.6458 70.0809 69.1176 70.0809Z" fill="#1B517E"/>
<path d="M80.38 61.6758C80.3781 61.6477 80.375 61.6203 80.3725 61.5935V61.227C80.3725 60.9515 80.1506 60.7284 79.8752 60.7284H77.7723C77.4968 60.7284 77.2737 60.9515 77.2737 61.227V72.5558C77.2631 72.8444 76.9122 73.2402 76.5065 73.338C76.3195 73.396 76.1319 73.4228 75.9437 73.4141C75.7555 73.4072 75.6264 73.4832 75.5535 73.6422C75.5249 73.7132 75.5037 73.808 75.4881 73.9245C75.475 74.0398 75.4912 75.2539 75.4993 75.3542C75.5074 75.4558 75.5249 75.5418 75.5535 75.6135C75.6402 75.7444 75.7922 75.831 76.0085 75.8747C76.0808 75.9039 77.4769 75.9077 78.4161 75.6796C78.7845 75.5905 79.0811 75.4122 79.3279 75.2258C79.5716 75.0376 79.7891 74.7983 79.9786 74.5091C80.1955 74.1626 80.3139 73.7251 80.3364 73.1978C80.3432 73.0389 80.3725 72.6238 80.3725 72.5752V62.2809C80.375 62.2255 80.3769 62.1694 80.38 62.1102C80.3875 61.9662 80.3875 61.821 80.38 61.6758Z" fill="#1B517E"/>
<path d="M92.7287 62.0772C92.6589 61.9924 92.5885 61.9076 92.5124 61.8297C92.389 61.7026 92.2513 61.5823 92.1061 61.4689C91.3177 60.8244 90.3641 60.4455 89.3357 60.4455C88.2269 60.4455 87.2054 60.8905 86.384 61.6315C86.3591 61.6465 86.3379 61.6633 86.3129 61.677C86.2843 61.692 86.2438 61.7138 86.1945 61.7007C86.0599 61.6652 85.9147 61.5212 85.9128 61.3149V57.0263C85.9128 56.7577 85.6934 56.5402 85.4223 56.5402H83.3357C83.0633 56.5402 82.8433 56.7577 82.8433 57.0263V57.1759C82.8433 57.1809 82.8414 57.1853 82.8414 57.1915V57.6888L82.8445 71.5126C82.8445 71.7868 83.067 72.0099 83.3419 72.0099H85.2285C85.3506 72.0099 85.4603 71.9644 85.5463 71.8921C85.5488 71.8902 85.5513 71.8902 85.5544 71.8877C85.5569 71.8859 85.5588 71.8828 85.5607 71.8803C85.5993 71.8447 85.6336 71.803 85.6598 71.7562L85.661 71.7544C85.6934 71.6952 85.7146 71.631 85.7221 71.5599C85.7595 71.2545 85.9664 71.0856 86.096 71.1299C86.1403 71.1442 86.1839 71.1654 86.2269 71.1953C86.2699 71.2227 86.3129 71.2527 86.3572 71.2807C86.4843 71.3742 87.0478 71.76 87.484 71.9544C87.704 72.0517 88.4033 72.2891 89.2185 72.2891C90.0306 72.2891 90.6084 72.109 90.7461 72.0729C90.8832 72.0361 91.0172 71.99 91.1475 71.9308C91.7826 71.6565 92.2968 71.2807 92.6863 70.8039C93.0709 70.3359 93.39 69.7818 93.648 69.1454C94.0319 68.3072 94.2507 67.3467 94.2507 66.3234C94.2507 64.6524 93.6648 63.1473 92.7287 62.0772ZM88.4214 70.0809C86.8913 70.0809 85.6523 68.4343 85.6523 66.4038C85.6523 64.372 86.8913 62.7253 88.4214 62.7253C89.9496 62.7253 91.1886 64.372 91.1886 66.4038C91.1886 68.4343 89.9496 70.0809 88.4214 70.0809Z" fill="#1B517E"/>
<path d="M78.7867 56.6643C78.4875 56.6687 78.2245 56.7366 77.9983 56.8681C77.7758 57.004 77.6038 57.1853 77.4816 57.4078C77.3545 57.6341 77.2915 57.8834 77.2915 58.1601C77.2915 58.4275 77.3545 58.6674 77.4722 58.8893C77.59 59.1118 77.7577 59.2888 77.9708 59.4241C78.1884 59.5556 78.442 59.6235 78.7325 59.6285C79.0584 59.6235 79.3351 59.5556 79.562 59.4241C79.7883 59.2888 79.9603 59.1118 80.0781 58.8893C80.1959 58.6674 80.2551 58.4275 80.2551 58.1601C80.2551 57.8834 80.1915 57.6341 80.0737 57.4078C79.9559 57.1853 79.7839 57.004 79.5658 56.8681C79.3482 56.7366 79.0858 56.6687 78.7867 56.6643Z" fill="#1B517E"/>
<defs>
<linearGradient id="paint0_linear_801_8301" x1="37.5824" y1="32.6272" x2="67.0375" y2="31.5986" gradientUnits="userSpaceOnUse">
<stop stop-color="#3AA7DF"/>
<stop offset="0.12" stop-color="#227AAB"/>
<stop offset="0.42" stop-color="#1B517E"/>
<stop offset="0.57" stop-color="#8B8666"/>
<stop offset="1" stop-color="#EFC900"/>
</linearGradient>
</defs>
</svg>
