<svg width="108" height="108" viewBox="0 0 108 108" fill="none" xmlns="http://www.w3.org/2000/svg">
<path d="M26.1195 35.0361C29.3796 35 32.6426 35.0303 35.9037 35.0205C37.4527 35.0342 39.0048 34.9932 40.5529 35.04C41.4474 35.1805 42.3351 35.5541 42.9448 36.2428C43.5469 36.9249 43.9049 37.7881 43.9622 38.6962C44.0022 39.3224 43.9466 39.9506 43.9388 40.5779C43.8177 39.7891 43.497 39.0443 43.0072 38.4142C42.0122 37.1783 40.5782 36.3306 39.0418 35.9609C37.2167 35.5024 35.3193 35.6829 33.4581 35.6526C33.3147 35.637 33.0913 35.6829 33.1303 35.878C33.1303 39.3605 33.1303 42.8449 33.1303 46.3274C33.0864 46.5391 33.3411 46.4708 33.4601 46.4884C35.6608 46.4484 37.9571 46.7176 40.0515 45.8758C41.3664 45.3431 42.6063 44.4818 43.3467 43.2488C43.644 42.7302 43.8474 42.1632 43.9476 41.5739C43.9895 43.1824 43.9378 44.793 43.9671 46.4016C43.6803 46.4991 43.3954 46.6123 43.1174 46.7342C43.3974 46.7957 43.6783 46.8513 43.9602 46.903C43.9388 47.6512 43.9495 48.4013 43.9554 49.1466C42.9955 48.4764 41.9673 47.8863 40.8338 47.5702C39.3706 47.1195 37.8195 47.1156 36.2997 47.1224C35.2472 47.1302 34.1946 47.1107 33.143 47.142C33.1303 50.8908 33.143 54.6405 33.1372 58.3903C33.0835 58.5991 33.3215 58.5854 33.4591 58.5854C34.8248 58.5854 36.1905 58.5854 37.5561 58.5854C39.7705 58.5728 42.058 58.005 43.8237 56.6188C44.4321 56.182 44.9326 55.6117 45.2869 54.9517C46.041 53.6972 46.0878 52.0155 45.2869 50.7708C45.2011 49.6285 45.2869 48.4784 45.2538 47.3331C46.717 47.8989 48.0602 48.8715 48.9001 50.2147C49.3114 50.8509 49.5735 51.5718 49.6666 52.3236C49.7596 53.0754 49.6814 53.8385 49.4376 54.5557C48.9128 56.095 47.6496 57.2675 46.2644 58.0518C45.2333 58.5669 44.1339 58.9649 42.9848 59.1083C42.3848 59.1688 41.7859 59.2566 41.1811 59.2449C36.1085 59.2358 31.036 59.2338 25.9634 59.239C26.8531 59.0351 27.7447 58.6664 28.3485 57.9533C28.981 57.2118 29.3209 56.2648 29.3045 55.2902C29.3045 50.5754 29.3045 45.8605 29.3045 41.1456C29.3045 40.2677 29.3386 39.3829 29.2772 38.505C29.2238 37.8665 29.0097 37.2519 28.6547 36.7185C28.2998 36.1851 27.8155 35.7503 27.2472 35.4546C26.8979 35.2478 26.4921 35.1834 26.1195 35.0361Z" fill="#020202"/>
<path d="M65.9702 36.3842C69.9932 34.5513 74.8091 34.5454 78.794 36.474C78.9813 36.5501 79.2291 36.7169 79.4057 36.5237C79.9266 36.0282 80.4309 35.5112 80.9333 35C80.9021 37.6094 80.946 40.2208 80.9108 42.8303C80.8328 42.6962 80.77 42.5539 80.7236 42.4059C80.1285 40.7476 79.1803 39.1985 77.8878 37.9909C76.8148 36.9744 75.4949 36.1852 74.0424 35.8594C72.2996 35.4529 70.4692 35.6729 68.8723 36.4808C67.2851 37.3023 65.9574 38.5489 65.0377 40.0813C64.4016 41.07 63.9271 42.1537 63.632 43.2917C62.9911 45.3246 62.9491 47.5165 63.2915 49.6099C63.3627 50.1113 63.5325 50.5922 63.6037 51.0936L63.6837 51.161C63.7123 51.5133 63.7214 51.867 63.711 52.2203L63.5852 52.1677L63.6164 52.1384C61.958 50.3825 60.2431 48.6676 58.5984 46.8932C58.6794 44.9481 59.2276 43.0137 60.2685 41.3631C61.131 39.9684 62.2576 38.7556 63.5852 37.7928C64.3432 37.2633 65.1405 36.7924 65.9702 36.3842V36.3842Z" fill="#020202"/>
<path d="M45.2459 39.498C46.0819 40.3233 46.9238 41.1436 47.7325 41.9972C47.4291 43.1424 46.8916 44.3072 45.9327 45.0407C45.7191 45.1988 45.3406 45.5148 45.2216 45.588C45.2616 43.559 45.2157 41.528 45.2459 39.498Z" fill="#020202"/>
<path d="M80.6767 51.9736C80.7362 51.8292 80.7742 51.6653 80.905 51.5648C80.9323 54.1118 80.9118 56.6598 80.9157 59.2068C80.3762 58.7405 79.9031 58.2021 79.3881 57.7094C79.2626 57.5755 79.1325 57.5755 78.9979 57.7094C77.4235 58.4294 75.7563 58.9727 74.0229 59.1444C71.1306 59.4585 68.1368 58.9805 65.5362 57.6577C65.3547 57.5495 65.1226 57.5036 64.9928 57.328C64.986 56.2716 64.9733 55.2141 64.9928 54.1577C65.9507 55.6463 67.2364 56.9564 68.8265 57.7611C70.282 58.4946 71.9307 58.7536 73.541 58.5015C75.3203 58.2167 76.9191 57.251 78.1736 55.9965C79.2767 54.8426 80.1289 53.4729 80.6767 51.9736V51.9736Z" fill="#020202"/>
<path d="M14.0185 64.3281C14.2283 64.3515 14.6311 64.215 14.6389 64.5467C14.6692 65.2295 14.6389 65.9123 14.6516 66.5952C15.2145 66.205 15.9383 66.1582 16.5889 66.3103C17.3079 66.5054 17.8571 67.2195 17.8288 67.9687C17.8288 68.7491 17.8346 69.5295 17.8288 70.3099C17.8182 70.6726 17.6931 71.0227 17.4715 71.3101C17.2498 71.5974 16.943 71.8073 16.5948 71.9097C15.8554 72.095 14.955 72.0072 14.4331 71.3917C14.1439 71.0698 13.992 70.6476 14.0097 70.2152C14.0107 68.2535 13.9824 66.2899 14.0185 64.3281ZM15.671 66.8878C15.3948 66.9008 15.1347 67.0215 14.9467 67.2242C14.7586 67.4269 14.6576 67.6952 14.6653 67.9716C14.6653 68.7188 14.6389 69.4661 14.6516 70.2152C14.6409 70.6054 14.8379 71.0161 15.1969 71.1956C15.5003 71.378 15.8681 71.3458 16.2066 71.3253C16.4659 71.3058 16.709 71.1921 16.8902 71.0055C17.0714 70.819 17.1779 70.5725 17.1898 70.3128C17.2142 69.5636 17.1996 68.8144 17.1967 68.0692C17.2076 67.8985 17.1801 67.7275 17.1163 67.5688C17.0525 67.4102 16.954 67.2678 16.8279 67.1522C16.5177 66.8654 16.0661 66.8566 15.671 66.8878V66.8878Z" fill="#020202"/>
<path d="M28.3592 64.332C28.56 64.3157 28.7622 64.3289 28.9592 64.3711C29.0128 64.8588 28.9826 65.3466 28.9894 65.8275C28.9894 67.8126 28.9952 69.7977 28.9894 71.778C28.9826 72.1028 28.5299 71.9974 28.3426 71.894C28.3612 69.3763 28.3202 66.8527 28.3592 64.332Z" fill="#020202"/>
<path d="M20.249 66.2849C20.6948 66.2098 21.1738 66.1942 21.6 66.3688C22.1697 66.5864 22.6048 67.1492 22.6087 67.7716C22.6253 69.1714 22.6087 70.5722 22.6087 71.973C22.3063 72.093 22.1834 71.8062 22.0849 71.5828C21.6869 71.8209 21.2498 72.0306 20.7738 72.013C20.2236 71.9945 19.6208 71.8755 19.2286 71.456C18.8004 70.9975 18.6882 70.3137 18.8306 69.7167C18.917 69.3892 19.1021 69.0961 19.3607 68.8773C19.6193 68.6585 19.939 68.5245 20.2763 68.4935C20.8382 68.4476 21.401 68.4935 21.9629 68.4681C21.9629 68.0467 22.0361 67.557 21.7259 67.2175C21.364 66.8127 20.7309 66.8146 20.2431 66.9571C19.8598 67.077 19.6578 67.4448 19.5964 67.8233C19.3876 67.8321 19.1799 67.8321 18.9711 67.8233C18.9806 67.4607 19.1118 67.1118 19.3436 66.8328C19.5754 66.5537 19.8943 66.3608 20.249 66.2849V66.2849ZM19.8042 69.3373C19.1701 69.8562 19.3525 71.0931 20.1827 71.3019C20.7426 71.377 21.4879 71.4326 21.8156 70.86C22.0868 70.3264 21.921 69.6943 21.9571 69.1187C21.4693 69.107 20.9816 69.1051 20.4938 69.1129C20.2446 69.1036 20.0002 69.1831 19.8042 69.3373V69.3373Z" fill="#020202"/>
<path d="M23.5598 66.2401C23.671 66.2352 23.7822 66.2323 23.8934 66.2303C23.9578 66.3767 24.0222 66.523 24.0885 66.6693C24.5002 66.4011 24.9548 66.1552 25.464 66.1816C26.4053 66.1572 27.3701 66.8839 27.3867 67.8701C27.3915 69.2261 27.3993 70.583 27.3867 71.9389C27.1867 71.9389 26.974 71.9906 26.7848 71.9038C26.7058 70.5625 26.7906 69.2144 26.7399 67.8711C26.7317 67.6749 26.6674 67.4852 26.5547 67.3244C26.442 67.1636 26.2855 67.0385 26.1039 66.9639C25.77 66.8542 25.4141 66.8287 25.0679 66.8898C24.8366 66.9336 24.6271 67.055 24.474 67.234C24.3209 67.4129 24.2335 67.6387 24.2261 67.874C24.1987 69.2085 24.2348 70.544 24.2114 71.8736C24.0875 72.1087 23.7598 71.9711 23.5627 71.9145C23.5354 70.025 23.5715 68.1326 23.5598 66.2401Z" fill="#020202"/>
<path d="M31.2525 66.4459C31.432 66.1016 31.8671 66.284 32.1734 66.243C31.5793 67.0303 31.0145 67.8399 30.4087 68.6193C30.2663 68.8047 29.9707 69.0407 30.1688 69.2905C30.8516 70.1684 31.513 71.0659 32.1529 71.975C31.869 71.9487 31.4593 72.1116 31.275 71.8121C30.6243 70.9117 29.9629 70.0211 29.3064 69.1256C29.9298 68.2145 30.6116 67.3444 31.2525 66.4459Z" fill="#020202"/>
<path d="M36.0022 66.2157C36.3192 66.1377 36.4324 66.4313 36.5494 66.6586C37.1016 66.2264 37.8605 66.0538 38.5336 66.284C39.2652 66.4967 39.8427 67.1912 39.8193 67.9716C39.8066 69.2973 39.8524 70.6259 39.8017 71.9506C39.6066 71.9165 39.234 72.0696 39.1872 71.7916C39.1569 70.5235 39.1872 69.2475 39.1716 67.9765C39.1647 67.635 39.0311 67.279 38.7414 67.08C38.3941 66.8429 37.9483 66.841 37.5464 66.8849C37.2896 66.925 37.0563 67.0576 36.8904 67.2578C36.7246 67.4579 36.6377 67.7118 36.646 67.9716C36.646 69.2934 36.646 70.6152 36.646 71.937C36.4408 72.005 36.2197 72.0094 36.0119 71.9496C35.9446 71.3721 35.9924 70.7898 35.9778 70.2103C35.9885 68.8788 35.97 67.5473 36.0022 66.2157Z" fill="#020202"/>
<path d="M40.9947 67.1112C41.3118 66.5337 41.9702 66.2128 42.6228 66.2333C43.2803 66.1806 43.9798 66.4576 44.3261 67.039C44.6938 67.5707 44.5836 68.2418 44.6011 68.8495C44.6129 68.9871 44.5943 69.2026 44.3953 69.1558C43.4198 69.1617 42.4443 69.1412 41.4688 69.1656L41.4152 69.2046C41.4396 69.7899 41.2611 70.4727 41.6717 70.9605C42.0258 71.3819 42.6355 71.3712 43.135 71.3039C43.6959 71.1809 43.9983 70.5976 43.9749 70.0572C44.17 70.0572 44.3592 70.0572 44.5524 70.0572C44.6928 70.5186 44.4665 71.019 44.1778 71.3799C43.7154 71.9389 42.9223 72.0686 42.2395 71.9594C41.4747 71.8521 40.8133 71.179 40.7762 70.3986C40.7431 69.784 40.7645 69.1675 40.7597 68.552C40.7675 68.0691 40.7284 67.5424 40.9947 67.1112ZM41.7449 67.1892C41.3547 67.517 41.4171 68.0555 41.4123 68.5091C42.2531 68.5208 43.0969 68.5461 43.9368 68.4935C43.9739 68.0984 44.0032 67.6575 43.7486 67.3229C43.2803 66.7288 42.3009 66.721 41.7449 67.1912V67.1892Z" fill="#020202"/>
<path d="M53.5259 66.9531C54.001 66.2498 54.9511 66.1289 55.7227 66.2937C56.1254 66.3962 56.4773 66.6409 56.7137 66.9826C56.95 67.3244 57.0547 67.7401 57.0084 68.153C56.8084 68.153 56.6084 68.153 56.4085 68.153C56.4085 67.6574 56.1763 67.1102 55.669 66.9541C55.1667 66.8283 54.5443 66.8097 54.1492 67.198C53.8858 67.4467 53.8283 67.8252 53.8332 68.1735C53.8332 68.8875 53.8166 69.6016 53.8439 70.3196C53.8551 70.5699 53.955 70.8081 54.1256 70.9916C54.2963 71.1751 54.5266 71.292 54.7755 71.3214C55.1901 71.3575 55.6642 71.3887 55.9968 71.0873C56.309 70.8473 56.3792 70.4405 56.4163 70.0728C56.6182 70.0728 56.8201 70.0728 57.024 70.0728C57.0541 70.4331 56.9756 70.7943 56.7987 71.1097C56.1158 72.292 54.117 72.3017 53.4332 71.1195C53.085 70.5517 53.2225 69.863 53.1981 69.2338C53.241 68.4759 53.0333 67.6155 53.5259 66.9531Z" fill="#020202"/>
<path d="M59.3603 66.2781C59.8588 66.2089 60.4012 66.1894 60.8626 66.4264C61.1461 66.5715 61.3842 66.7917 61.5509 67.0631C61.7176 67.3344 61.8065 67.6463 61.8078 67.9648C61.8156 68.6476 61.8 69.3304 61.8156 70.0133C61.8332 70.5566 61.682 71.1322 61.2694 71.5097C60.7728 71.9974 60.011 72.0677 59.3564 71.9487C58.5995 71.8053 57.9839 71.0971 57.9908 70.3206C57.983 69.506 57.9771 68.6925 57.9908 67.8818C57.9839 67.1053 58.6092 66.4108 59.3603 66.2781ZM59.5671 66.8898C59.3051 66.9267 59.0648 67.0559 58.8895 67.2542C58.7143 67.4526 58.6156 67.707 58.6112 67.9716C58.6278 68.752 58.5926 69.5265 58.62 70.303C58.6288 70.5013 58.6924 70.6933 58.8039 70.8576C58.9153 71.0219 59.0701 71.1521 59.2511 71.2336C59.5437 71.3575 59.8725 71.338 60.1856 71.3244C60.6597 71.2902 61.126 70.9059 61.1347 70.4084C61.2118 69.4796 61.204 68.5458 61.1113 67.6185C60.9367 66.9688 60.1524 66.7893 59.5642 66.8898H59.5671Z" fill="#020202"/>
<path d="M62.7599 66.2372C63.0301 66.1728 63.1774 66.3562 63.2788 66.5776C63.8202 66.2723 64.466 66.1191 65.0747 66.3074C65.4122 66.3757 65.6678 66.6137 65.9429 66.803C66.6121 66.1435 67.7515 66.0226 68.5241 66.5718C68.7089 66.7131 68.8594 66.8945 68.9641 67.1023C69.0689 67.3101 69.1252 67.5389 69.1289 67.7716C69.1289 69.1627 69.1289 70.5547 69.1338 71.9467C68.9312 72.0084 68.7145 72.006 68.5133 71.9399C68.4773 70.5839 68.5133 69.2261 68.4938 67.8701C68.5007 67.4712 68.2812 67.0459 67.8783 66.9317C67.4071 66.7971 66.7926 66.8078 66.4668 67.2302C66.3232 67.4117 66.2554 67.6417 66.2775 67.8721C66.2775 69.1734 66.2775 70.4747 66.2824 71.774C66.299 72.0969 65.862 72.0091 65.6708 71.9379C65.6034 71.7945 65.6259 71.6306 65.6171 71.4794C65.6171 70.2415 65.6239 69.0027 65.6171 67.7648C65.6133 67.5571 65.5382 67.3571 65.4045 67.1981C65.2708 67.0392 65.0865 66.931 64.8826 66.8917C64.4699 66.8186 63.9744 66.8234 63.6642 67.1483C63.4505 67.3619 63.3969 67.6731 63.4008 67.9638C63.4008 69.1675 63.4008 70.3723 63.4076 71.5731C63.406 71.7204 63.3876 71.867 63.353 72.0101C63.1564 71.9979 62.9609 71.9725 62.7677 71.934C62.7121 70.0386 62.7745 68.1374 62.7599 66.2372Z" fill="#020202"/>
<path d="M70.0819 66.244C70.1882 66.244 70.2945 66.244 70.4019 66.2538C70.4672 66.3678 70.5261 66.4853 70.5784 66.6059C70.9481 66.4664 71.2944 66.2342 71.7041 66.2294C72.2894 66.1718 72.8533 66.4606 73.2708 66.8566C73.4847 66.6109 73.7598 66.4263 74.0683 66.3216C74.3767 66.2169 74.7074 66.1959 75.0267 66.2606C75.7983 66.3074 76.4646 66.9971 76.4509 67.7755C76.4587 69.1776 76.4587 70.5791 76.4509 71.9799C76.2438 72.0217 76.0292 72.0058 75.8305 71.934C75.812 70.6776 75.7983 69.4192 75.8305 68.1628C75.8539 67.7502 75.7495 67.2673 75.373 67.038C74.7809 66.6937 73.779 66.8693 73.622 67.6233C73.5761 69.0768 73.6415 70.5362 73.5907 71.9916C73.3693 72.0043 73.141 72.0179 72.944 71.9038C72.9372 70.5566 72.944 69.2105 72.944 67.8643C72.9674 67.4234 72.6513 66.9805 72.2016 66.9171C71.7549 66.8195 71.1959 66.8615 70.9159 67.2731C70.6867 67.5531 70.7501 67.9316 70.7335 68.2662C70.7335 69.3724 70.7277 70.4796 70.7443 71.5829C70.7228 71.7145 70.7716 71.9096 70.6369 71.9916C70.4495 72.0117 70.2599 71.9901 70.0819 71.9282C70.0565 70.0338 70.0965 68.1394 70.0819 66.244Z" fill="#020202"/>
<path d="M78.3014 66.4566C78.754 66.2079 79.2944 66.2089 79.7939 66.2615C80.1657 66.3229 80.5073 66.5041 80.7665 66.7776C81.0257 67.0511 81.1884 67.4019 81.2298 67.7765C81.2581 68.2311 81.2396 68.6876 81.2386 69.1422C80.1831 69.1851 79.1257 69.1422 78.0692 69.1656C78.0634 69.6319 78.0165 70.105 78.0995 70.5673C78.1643 70.7867 78.2975 70.9795 78.4797 71.1178C78.6618 71.2561 78.8834 71.3325 79.112 71.336C79.5022 71.3575 79.949 71.3429 80.2543 71.0561C80.547 70.8093 80.5723 70.4083 80.6318 70.0601C80.8269 70.0601 81.022 70.0601 81.2171 70.0601C81.2652 70.4471 81.1789 70.8388 80.9725 71.1697C80.7661 71.5006 80.4523 71.7504 80.0836 71.8774C79.5795 72.0381 79.0375 72.0347 78.5355 71.8677C78.212 71.7532 77.9315 71.5421 77.7319 71.2629C77.5323 70.9838 77.4233 70.65 77.4195 70.3069C77.4039 69.4953 77.4039 68.6824 77.4195 67.8682C77.4301 67.5763 77.5171 67.2923 77.6718 67.0446C77.8266 66.7969 78.0437 66.5941 78.3014 66.4566V66.4566ZM78.3121 67.2663C78.0009 67.6048 78.0526 68.0906 78.0643 68.5149C78.8759 68.51 79.6915 68.552 80.5031 68.4964C80.6806 68.3384 80.6006 68.0789 80.5948 67.873C80.5518 67.4311 80.2465 67.0127 79.7988 66.919C79.2915 66.8244 78.6672 66.8322 78.3121 67.2663V67.2663Z" fill="#020202"/>
<path d="M82.1867 66.2508C82.2904 66.245 82.3943 66.245 82.4979 66.2508C82.6033 66.3669 82.6648 66.7171 82.8686 66.5308C83.3242 66.2137 83.8978 66.2098 84.4295 66.2557C84.4295 66.4508 84.4295 66.6459 84.4295 66.841C84.129 66.8859 83.8217 66.8595 83.5252 66.922C83.337 66.9733 83.1701 67.083 83.0484 67.2354C82.9267 67.3878 82.8566 67.5748 82.8482 67.7697C82.8306 69.1353 82.8599 70.501 82.8374 71.8667C82.7126 72.1087 82.3819 71.9643 82.1819 71.9126C82.1702 70.0279 82.1975 68.1394 82.1867 66.2508Z" fill="#020202"/>
<path d="M85.841 66.7942C86.3472 66.2138 87.1989 66.1504 87.908 66.2967C88.3093 66.3998 88.66 66.6437 88.8962 66.984C89.1325 67.3243 89.2384 67.7382 89.1947 68.1501C88.9762 68.1667 88.7518 68.1999 88.547 68.1053C88.576 67.9105 88.5495 67.7115 88.4707 67.531C88.3919 67.3506 88.2638 67.196 88.1012 67.0849C87.7929 66.8644 87.392 66.8683 87.0281 66.8898C86.518 66.9249 86.0341 67.3444 86.0322 67.875C86.0058 68.6554 86.0136 69.4358 86.0234 70.2221C86.0175 70.5557 86.1326 70.9049 86.4136 71.1068C86.7062 71.3595 87.1237 71.3546 87.4944 71.341C87.6769 71.3388 87.8558 71.2905 88.0146 71.2007C88.1734 71.1108 88.3069 70.9822 88.4026 70.8269C88.5431 70.6162 88.5314 70.3528 88.5977 70.1167C88.7752 70.0094 89.0084 70.105 89.2074 70.0962C89.2293 70.3996 89.173 70.7035 89.0441 70.9789C88.9152 71.2543 88.7178 71.4922 88.4709 71.6697C87.9968 72.0101 87.3754 72.0433 86.8126 71.9623C86.4216 71.8954 86.0654 71.6964 85.8035 71.3985C85.5416 71.1006 85.3899 70.7218 85.3737 70.3255C85.36 69.6719 85.3815 69.0173 85.3678 68.3638C85.3444 67.8068 85.4283 67.201 85.841 66.7942Z" fill="#020202"/>
<path d="M90.339 67.1912C90.6316 66.5727 91.3145 66.2069 91.9973 66.2342C92.6801 66.1796 93.4147 66.4742 93.7532 67.0907C94.1434 67.7121 93.9483 68.4632 93.9892 69.1509C92.9406 69.1675 91.891 69.1324 90.8443 69.1694C90.7468 69.4962 90.818 69.864 90.8014 70.2074C90.7838 70.6951 91.1145 71.1829 91.5993 71.2902C92.0841 71.3975 92.6723 71.3799 93.0538 71.016C93.2908 70.7605 93.3396 70.4015 93.3688 70.0698C93.5776 70.0581 93.7873 70.0532 93.998 70.0484C94.0304 70.4175 93.9474 70.7876 93.7605 71.1076C93.5735 71.4275 93.2918 71.6815 92.9543 71.8345C92.4972 72.0017 92.0024 72.0372 91.5262 71.9369C90.8121 71.7906 90.22 71.1497 90.1771 70.4161C90.1537 69.7947 90.1771 69.1724 90.1683 68.551C90.1683 68.0974 90.1127 67.6106 90.339 67.1912ZM91.0413 67.2819C90.7487 67.6155 90.7994 68.0837 90.7916 68.4964C91.6179 68.5227 92.4499 68.552 93.2791 68.4817C93.5425 67.8896 93.1815 67.0136 92.488 66.9083C91.9915 66.8263 91.374 66.8449 91.0413 67.2887V67.2819Z" fill="#020202"/>
<path d="M46.7501 66.3279C47.1544 66.2206 47.5772 66.203 47.989 66.2762C48.7362 66.4167 49.3547 67.0976 49.3732 67.8663C49.3986 68.5491 49.382 69.2319 49.3859 69.9148C49.3859 70.2874 49.381 70.6786 49.2045 71.019C48.585 72.3018 46.437 72.3398 45.7659 71.0863C45.4479 70.5235 45.5708 69.8533 45.5464 69.2378C45.5688 68.6525 45.4859 68.0496 45.6254 67.4722C45.7038 67.2033 45.8475 66.9581 46.0438 66.7585C46.24 66.5588 46.4827 66.4109 46.7501 66.3279V66.3279ZM47.1794 66.8908C46.675 66.9239 46.2185 67.3492 46.2039 67.8663C46.1766 68.6847 46.1814 69.5051 46.2039 70.3245C46.2145 70.5737 46.3131 70.811 46.4823 70.9943C46.6514 71.1775 46.8801 71.2948 47.1277 71.3253C47.5276 71.3546 47.9802 71.3761 48.3178 71.1205C48.6045 70.9205 48.7382 70.5635 48.7392 70.224C48.7587 69.5714 48.7236 68.9178 48.7392 68.2662C48.7392 67.9062 48.7392 67.4965 48.4563 67.2302C48.1295 66.8791 47.6203 66.8381 47.1794 66.8908V66.8908Z" fill="#020202"/>
<path d="M40.5529 35.04C42.7614 35.0185 44.9699 35.0292 47.1784 35.04C48.1539 36.0535 49.1089 37.0934 50.1097 38.0864C52.927 41.0363 55.7559 43.9739 58.5965 46.899C60.2412 48.6734 61.9541 50.3845 63.6144 52.1442L63.5832 52.1735L63.7091 52.2262C63.7195 51.8728 63.7103 51.5192 63.6817 51.1668C63.7422 48.8012 63.713 46.4337 63.7305 44.0662C63.7264 43.8072 63.6937 43.5494 63.633 43.2975C63.9289 42.159 64.4044 41.075 65.0416 40.0862C64.9811 40.5037 65.0143 40.9261 65.0084 41.3465C65.0084 45.6182 65.0172 49.8899 65.0084 54.1625C64.984 55.219 64.9967 56.2764 65.0084 57.3329C65.0172 57.8957 65.0348 58.4605 65.0084 59.0234L64.9187 59.2C63.2467 57.4743 61.523 55.7984 59.8334 54.0903C57.7966 52.0642 55.7812 50.0167 53.7298 48.0072C51.9963 46.2308 50.2385 44.4759 48.4797 42.7239C48.2846 42.523 48.0671 42.3454 47.9149 42.1103L47.7393 42.0021C46.9306 41.1485 46.0888 40.3281 45.2528 39.5029C45.2196 41.5328 45.2684 43.5638 45.2284 45.5928C45.2284 45.7001 45.2167 46.7742 45.2508 47.3419C45.2859 48.4871 45.1981 49.6372 45.284 50.7795C45.1923 51.5316 45.2576 52.2915 45.2372 53.0475C45.2645 53.6845 45.1903 54.3274 45.2869 54.9605C44.9326 55.6205 44.4321 56.1907 43.8237 56.6276C43.8764 56.1828 43.972 55.7428 43.9593 55.2931C43.9534 53.2446 43.9593 51.2009 43.9534 49.1553C43.9476 48.4062 43.9368 47.656 43.9583 46.9117C43.9583 46.7264 43.9651 46.5839 43.9651 46.4103C43.9359 44.8007 43.9876 43.1912 43.9456 41.5826C43.9359 41.25 43.9378 40.9183 43.9456 40.5866C43.9534 39.9594 44.009 39.3312 43.969 38.7049C43.9117 37.7968 43.5537 36.9337 42.9516 36.2515C42.3351 35.5541 41.4474 35.1804 40.5529 35.04Z" fill="#FFBE00"/>
<path d="M60.3817 35.0478C62.957 35.0214 65.5332 35.0146 68.1075 35.0478C67.3272 35.3346 66.4258 35.6331 65.9703 36.3842C65.1398 36.7926 64.3418 37.2638 63.5832 37.7938C63.4554 37.2836 63.1472 36.8427 62.8467 36.4203C62.214 35.6848 61.3402 35.1983 60.3817 35.0478V35.0478Z" fill="#FFBE00"/>
<path d="M42.9721 59.1122C44.1212 58.9688 45.2206 58.5708 46.2517 58.0557L46.2907 58.0499C46.6703 58.4537 47.1375 58.7651 47.6564 58.96C47.8202 59.0302 48.0124 59.0576 48.1246 59.2127C46.3863 59.2761 43.5613 59.2214 41.821 59.24L42.9721 59.1122Z" fill="#FFBE00"/>
</svg>
