<svg width="108" height="108" viewBox="0 0 108 108" fill="none" xmlns="http://www.w3.org/2000/svg">
<path d="M34.7204 51.4613C34.7554 52.0629 34.7904 53.5842 34.7904 54.1386C34.7904 54.6492 34.7904 56.3612 34.7012 57.0992L34.6942 57.1569H37.368C38.6813 57.1569 40.0715 56.7477 40.0715 55.5813C40.0715 54.8503 39.5416 54.31 38.5519 54.0144C39.2863 53.8186 39.776 53.3167 39.776 52.7431C39.776 51.7901 38.6813 51.4316 37.653 51.4071H34.7047L34.7204 51.4613ZM36.7857 52.0436C37.9014 52.0524 38.3088 52.2797 38.3088 52.8865C38.3088 53.0544 38.2581 53.203 38.1584 53.3167C37.9451 53.5738 37.5289 53.7067 36.999 53.6734H36.9728L36.6615 54.4848H36.9728C37.5883 54.4673 38.1234 54.6614 38.398 54.9972C38.5256 55.1511 38.5886 55.333 38.5886 55.5218C38.5886 56.1566 38.029 56.4836 36.9273 56.4836C36.7402 56.4836 36.4394 56.4836 36.2523 56.4766C36.2208 55.6302 36.2069 54.4831 36.2069 54.1386C36.2069 53.7381 36.2331 52.848 36.2523 52.0874C36.38 52.0611 36.5898 52.0454 36.7874 52.0454" fill="#231F20"/>
<path d="M46.2444 51.4071H44.9434L44.9959 52.8568C45.0221 53.5738 45.0466 54.31 45.0955 55.027C45.0116 54.8031 44.9329 54.6877 44.5377 54.1106C44.536 54.0914 43.1842 52.0104 42.7138 51.4194L42.6998 51.4054H41.1907V51.4596C41.2379 52.0612 41.2571 53.5825 41.2571 54.1369C41.2571 54.6475 41.2571 56.3595 41.1854 57.0974L41.1732 57.1552H42.5179V57.0974C42.441 55.695 42.441 54.2785 42.441 52.904C42.4882 53.0702 42.5477 53.2136 42.7593 53.5283C42.7768 53.5651 45.0938 56.9383 45.2057 57.1324L45.218 57.1569H46.2952V57.0992C46.2112 56.3612 46.2042 54.6492 46.2042 54.1386C46.2042 53.5843 46.241 52.0629 46.2759 51.4614L46.2934 51.4071H46.241H46.2444Z" fill="#231F20"/>
<path d="M47.8008 51.4613C47.8533 52.0629 47.8743 53.5843 47.8743 54.1386C47.8743 54.6492 47.8743 56.3612 47.7956 57.0992V57.1586H49.3956L49.3886 57.0992C49.3344 56.5676 49.3064 55.5568 49.3012 54.7821C49.3764 54.7856 49.6037 54.7979 49.6037 54.7979L49.8311 54.8031C51.9365 54.8031 52.9613 54.247 52.9613 53.0736C52.9613 51.7394 51.5238 51.4334 50.3259 51.4089H47.8026V51.4631L47.8008 51.4613ZM49.7734 52.1014C50.5236 52.0874 51.0464 52.2395 51.2947 52.5543C51.4084 52.6907 51.4714 52.869 51.4714 53.0719C51.4714 53.9043 50.534 54.0844 49.7524 54.0844L49.4359 54.0652C49.4359 54.0652 49.3607 54.0582 49.3047 54.0529C49.2995 53.8606 49.2995 53.607 49.2995 53.322C49.2995 52.96 49.2995 52.5315 49.3169 52.1328C49.4271 52.1189 49.5932 52.0996 49.7734 52.0996" fill="#231F20"/>
<path d="M56.0128 51.4613C56.0635 52.0629 56.0932 53.5843 56.0932 54.1386C56.0932 54.6492 56.088 56.3612 56.0058 57.0992V57.1586H57.6076L57.5988 57.0992C57.5481 56.5676 57.5184 55.5568 57.5184 54.7821C57.5936 54.7856 57.8069 54.7979 57.8069 54.7979L58.0395 54.8031C60.145 54.8031 61.1767 54.247 61.1767 53.0736C61.1767 51.7394 59.7323 51.4334 58.5292 51.4089H56.0145V51.4631L56.0128 51.4613ZM57.9836 52.1014C58.7355 52.0874 59.2584 52.2395 59.5102 52.5543C59.6256 52.6907 59.6851 52.869 59.6851 53.0719C59.6851 53.9043 58.7495 54.0844 57.9766 54.0844L57.66 54.0652C57.66 54.0652 57.5761 54.0582 57.5271 54.0529C57.5184 53.8606 57.5184 53.6053 57.5184 53.322C57.5184 52.9565 57.5184 52.5315 57.5341 52.1328C57.6338 52.1189 57.8069 52.0996 57.9853 52.0996" fill="#231F20"/>
<path d="M63.3154 51.4071H63.2944L63.2839 51.4368C62.9849 52.2552 61.0665 56.4451 60.7623 57.0869L60.736 57.1586H62.1L62.1105 57.1271C62.2312 56.7337 62.3921 56.2895 62.5669 55.8139C62.6211 55.8139 63.7053 55.7964 63.7053 55.7964L64.6461 55.8034C64.6461 55.8034 64.7983 55.8139 64.8437 55.8139C65.0868 56.4311 65.2722 56.898 65.3526 57.1341L65.3684 57.1586H66.9474L64.3961 51.4089H63.3154V51.4071ZM63.7053 53.0999C63.833 53.3744 64.1617 54.1386 64.5342 55.0514C64.4765 55.0549 64.4048 55.0549 64.4048 55.0549L63.7053 55.0637C63.7053 55.0637 62.9796 55.0549 62.859 55.0514C63.1615 54.3222 63.4605 53.6629 63.7053 53.0999Z" fill="#231F20"/>
<path d="M67.591 51.4613C67.6364 52.0629 67.6592 53.5842 67.6592 54.1386C67.6592 54.6492 67.6592 56.3612 67.5717 57.0992V57.1586H69.1823L69.1753 57.0992C69.0896 56.356 69.0844 54.651 69.0844 54.1386C69.0844 53.7381 69.0966 52.848 69.1368 52.1276C69.2592 52.1206 69.4446 52.1013 69.5722 52.1013C70.3172 52.0874 70.8436 52.2412 71.0901 52.5543C71.2073 52.6889 71.2615 52.8725 71.2615 53.0719C71.2615 53.7364 70.6407 54.0721 70.0636 54.1019C69.8695 54.1106 69.7261 54.0844 69.7261 54.0844L69.6125 54.0651L69.6737 54.1701C70.2455 55.0042 71.1006 56.4486 71.4539 57.1306L71.4643 57.1551H73.1833L73.1414 57.0782C73.0714 56.9802 71.9505 55.3312 71.4748 54.6282C71.4748 54.6282 71.4539 54.6072 71.4329 54.5863C72.3142 54.3222 72.7409 53.8291 72.7409 53.0719C72.7409 51.7481 71.3052 51.4316 70.0916 51.4071H67.584L67.5892 51.4613H67.591Z" fill="#231F20"/>
<path d="M75.4602 51.4071H73.9265L73.9353 51.4613C73.9755 52.0629 74.007 53.5842 74.007 54.1386C74.007 54.6475 74 56.356 73.9283 57.0992L73.923 57.1569H75.5126L75.5039 57.0992C75.4427 56.356 75.4234 54.6475 75.4234 54.1386C75.4234 53.5842 75.4619 52.0629 75.5039 51.4613V51.4071H75.4619H75.4602Z" fill="#231F20"/>
<path d="M76.9605 51.4613C77.006 52.0629 77.034 53.5842 77.034 54.1386C77.034 54.6492 77.034 56.3612 76.9536 57.0992L76.9413 57.1569H79.6186C80.9284 57.1569 82.3221 56.7477 82.3221 55.5813C82.3221 54.8503 81.7922 54.31 80.7937 54.0144C81.5282 53.8186 82.0231 53.3167 82.0231 52.7431C82.0231 51.7901 80.9266 51.4316 79.9071 51.4071H76.9518L76.9588 51.4613H76.9605ZM79.024 52.0436C80.1467 52.0524 80.5559 52.2797 80.5559 52.8865C80.5559 53.0544 80.5052 53.203 80.402 53.3167C80.1992 53.5738 79.7672 53.7067 79.2409 53.6734H79.2146L78.9051 54.4848H79.2146C79.8319 54.4673 80.3618 54.6614 80.6363 54.9972C80.771 55.1511 80.8339 55.333 80.8339 55.5218C80.8339 56.1566 80.2726 56.4836 79.1657 56.4836C78.9873 56.4836 78.6883 56.4836 78.4994 56.4766C78.454 55.6302 78.4539 54.4831 78.4539 54.1386C78.4539 53.7381 78.4697 52.848 78.4994 52.0874C78.6201 52.0611 78.8299 52.0454 79.024 52.0454" fill="#231F20"/>
<path d="M86.2602 51.4071H85.183L85.176 51.4334C84.8542 52.3042 82.8257 56.7145 82.6561 57.08L82.6264 57.1586H83.9956L84.0044 57.1237C84.118 56.7285 84.2772 56.2878 84.4555 55.8034C84.4992 55.8034 85.5869 55.7859 85.5869 55.7859L86.5295 55.7999C86.5295 55.7999 86.6939 55.8016 86.7289 55.8016C86.9772 56.4189 87.1608 56.8893 87.2412 57.1219L87.257 57.1569H88.843L86.2917 51.4054H86.2567L86.2602 51.4071ZM85.5992 53.0981C85.7286 53.3657 86.0556 54.1316 86.4281 55.0462C86.3704 55.0462 86.3022 55.0515 86.3022 55.0515L85.5992 55.0602C85.5992 55.0602 84.8647 55.0445 84.7563 55.0445C85.0536 54.31 85.3474 53.656 85.5992 53.0964" fill="#231F20"/>
<path d="M89.2942 52.8935C89.2942 53.9043 90.305 54.31 91.2021 54.6825C91.8998 54.9605 92.629 55.2525 92.629 55.7352C92.629 55.8803 92.5993 56.0027 92.5188 56.0902C92.351 56.2878 92.0117 56.37 91.4731 56.3402C90.938 56.3193 90.3365 56.1496 89.6597 55.8384L89.3939 55.7107V56.9645L89.5758 57.01L89.6807 57.0275C90.0147 57.1097 90.6617 57.2618 91.3035 57.2618C92.9927 57.2618 94 56.5886 94 55.4746C94 54.4289 92.9595 54.0215 92.0397 53.656C91.3612 53.3814 90.6617 53.1104 90.6617 52.661C90.6617 52.5316 90.6617 52.1556 91.5361 52.1556C92.1813 52.1556 92.8074 52.4179 93.1641 52.5543L93.4876 52.6889V52.4738L93.4859 51.4316L93.1641 51.3739C92.8354 51.3075 92.288 51.199 91.7249 51.199C90.2683 51.199 89.296 51.888 89.296 52.8953" fill="#231F20"/>
<mask id="mask0_801_6934" style="mask-type:luminance" maskUnits="userSpaceOnUse" x="14" y="46" width="17" height="17">
<path d="M30.5568 46.0001H14V62.5568H30.5568V46.0001Z" fill="white"/>
</mask>
<g mask="url(#mask0_801_6934)">
<path d="M30.5568 46.0001H14V62.5568H30.5568V46.0001Z" fill="url(#paint0_linear_801_6934)"/>
</g>
<mask id="mask1_801_6934" style="mask-type:luminance" maskUnits="userSpaceOnUse" x="14" y="46" width="17" height="17">
<path d="M15.2923 46.2957C14.9705 46.2957 14.7624 46.5667 14.7117 46.9462C14.7117 46.9462 14.299 49.1198 14.299 53.7329C14.299 58.346 14.7117 61.3695 14.7117 61.3695C14.7502 61.735 14.9723 62.02 15.2923 62.02H29.623C29.943 62.02 30.1983 61.7665 30.2035 61.3695C30.2035 61.3695 30.0444 57.8336 30.0444 54.3782C30.0444 50.9227 30.2035 46.9462 30.2035 46.9462C30.2123 46.5929 29.943 46.2957 29.623 46.2957H15.2923Z" fill="white"/>
</mask>
<g mask="url(#mask1_801_6934)">
<path d="M30.2123 46.2957H14.299V62.0218H30.2123V46.2957Z" fill="url(#paint1_linear_801_6934)"/>
</g>
<g style="mix-blend-mode:multiply">
<mask id="mask2_801_6934" style="mask-type:luminance" maskUnits="userSpaceOnUse" x="14" y="46" width="17" height="17">
<path d="M30.2123 46.2957H14.299V62.02H30.2123V46.2957Z" fill="white"/>
</mask>
<g mask="url(#mask2_801_6934)">
<mask id="mask3_801_6934" style="mask-type:luminance" maskUnits="userSpaceOnUse" x="14" y="46" width="17" height="17">
<path d="M15.2765 46.2957C14.9653 46.3044 14.7624 46.5737 14.7134 46.9462C14.7134 46.9462 14.3008 49.1198 14.3008 53.7329C14.3008 58.346 14.7134 61.3695 14.7134 61.3695C14.7519 61.735 14.974 62.02 15.294 62.02H29.623C29.943 62.02 30.1983 61.7665 30.2035 61.3695C30.2035 61.3695 30.0444 57.8336 30.0444 54.3782C30.0444 50.9227 30.2035 46.9462 30.2035 46.9462C30.2105 46.5982 29.9517 46.3061 29.6387 46.2957H15.2765Z" fill="white"/>
</mask>
<g mask="url(#mask3_801_6934)">
<path d="M30.2123 46.2957H14.299V62.02H30.2123V46.2957Z" fill="url(#paint2_linear_801_6934)"/>
</g>
</g>
</g>
<path d="M26.8565 50.4733C25.8318 51.0731 25.5205 51.1204 24.4083 51.7884L24.4625 51.6642C25.0466 51.0277 25.2984 50.7619 25.6831 50.1988C24.6584 50.2548 23.1685 50.3772 22.1035 50.6115L22.1595 50.4978C23.1248 50.0274 24.9172 49.5605 25.8318 49.4399C25.6079 49.1251 23.7928 48.1441 23.3416 47.9552L23.3941 47.8398C24.7703 47.9954 26.5942 48.6389 27.3899 49.1251C27.7256 49.0202 28.0701 49.0097 28.6927 48.9555C28.6927 48.9555 28.6 49.3297 27.9215 49.7966C28.0894 50.2478 27.6854 52.7449 27.3514 53.4077C27.3357 52.3619 27.2447 51.0434 26.8565 50.4716" fill="#009A7B"/>
<path d="M19.3755 59.425L19.428 59.3061C18.8841 59.098 18.3403 58.9301 17.8996 58.5174C18.0378 58.1309 18.1969 57.8284 18.454 57.4472L18.5082 57.33C18.0413 57.4 17.6181 57.5731 17.2124 57.6518C16.8941 57.0922 16.7717 56.3263 16.6108 55.597L16.5583 55.7107C16.4674 56.5448 16.4324 57.1412 16.5496 57.8039C16.2121 57.8983 15.9183 57.9123 15.6473 58.0278L15.5966 58.1397C16.0267 58.4037 16.38 58.6083 16.8679 58.8374C17.1284 59.3952 17.3977 59.7765 17.8367 60.2066L17.8891 60.0895C17.8104 59.7747 17.709 59.5107 17.7475 59.1609C18.2896 59.3183 18.7547 59.4005 19.3738 59.4232" fill="#009A7B"/>
<path d="M20.8846 51.1099C20.8846 51.1099 20.6661 51.4963 20.4912 52.0104H20.4492C21.7258 52.1836 22.9289 52.6994 23.2314 52.8778L23.1772 52.9932C21.8552 52.7589 21.1574 52.7869 20.6643 52.8306C20.1712 52.8796 20.0715 52.939 20.0715 52.939C19.7882 53.5598 19.6221 54.5723 19.5539 54.9465L19.4997 55.0619C19.2583 54.4796 18.9086 53.3185 18.9086 53.3185C18.2423 53.6752 16.7052 55.1179 16.7052 55.1179C17.5516 53.4286 18.4102 52.6575 18.4102 52.6575C18.1147 52.3602 17.3418 52.2081 16.7769 52.1853L16.8311 52.0699C17.1844 51.9667 17.9153 51.923 18.4032 51.9003C18.9821 51.8828 19.3318 51.916 19.3318 51.916C19.8477 51.5051 20.6153 51.1466 20.8864 51.1099" fill="#009A7B"/>
<path d="M22.5075 58.374C22.2399 58.7342 22.0126 59.0227 21.717 59.3532C21.2799 59.4739 20.7588 59.4197 20.3548 59.4319L20.3023 59.5456C20.6049 59.703 20.9021 59.7957 21.2187 59.8621C20.9616 60.0964 20.6171 60.2748 20.3775 60.4374L20.3233 60.5511C20.8409 60.4269 21.5212 60.2084 22.0283 59.9111C22.2924 59.9216 22.5407 59.9023 22.7191 59.8674C22.7191 59.8674 22.7733 59.7502 22.7733 59.7537C22.7418 59.6383 22.6386 59.5666 22.6071 59.4022C23.081 59.0332 23.4255 58.6975 23.8242 58.297L23.8785 58.1833C23.485 58.4544 23.0093 58.8251 22.5494 59.042C22.5302 58.8199 22.5162 58.6258 22.504 58.374" fill="#009A7B"/>
<path d="M26.909 50.3579C25.8877 50.9595 25.573 51.0084 24.4643 51.6747C25.1113 50.9735 25.3351 50.6727 25.7373 50.0869C24.7126 50.1411 23.2244 50.2635 22.1612 50.4996C23.0863 50.0047 24.9207 49.4556 25.8877 49.3262C25.6639 49.0166 23.847 48.0321 23.3941 47.8433C24.8333 47.9569 26.5907 48.492 27.4423 49.0131C27.7781 48.9082 28.1261 48.903 28.7521 48.8488C28.5912 49.1216 28.586 49.279 27.9739 49.6847C28.1436 50.1376 27.7379 52.6347 27.4039 53.294C27.3916 52.25 27.3007 50.9315 26.909 50.3597" fill="white"/>
<path d="M19.428 59.306C18.8404 59.0909 18.4172 58.8374 17.9521 58.4002C18.092 58.0172 18.2494 57.7165 18.5099 57.33C18.0325 57.4017 17.681 57.4559 17.2701 57.5346C16.9343 56.947 16.7839 56.3839 16.6126 55.5953C16.5216 56.4294 16.4866 57.0257 16.6038 57.6885C16.2261 57.7934 15.9585 57.8843 15.649 58.0277C16.0844 58.2918 16.4359 58.4981 16.9221 58.7237C17.1826 59.2833 17.4537 59.6593 17.8909 60.0895C17.7894 59.724 17.7615 59.4319 17.8034 59.0437C18.3473 59.2046 18.8107 59.2885 19.428 59.3043" fill="white"/>
<path d="M20.9564 51.0102C20.7745 51.248 20.5612 51.6904 20.5035 51.8968C22.0161 52.1014 23.2297 52.8796 23.2297 52.8796C21.9077 52.6452 21.2099 52.675 20.715 52.7187C20.2237 52.7641 20.124 52.8236 20.124 52.8236C19.7672 53.6053 19.5522 54.9483 19.5522 54.9483C19.3108 54.3677 18.9628 53.2048 18.9628 53.2048C18.2948 53.5616 16.7595 55.0042 16.7595 55.0042C17.6041 53.3132 18.461 52.5456 18.461 52.5456C18.1672 52.2465 17.3925 52.0979 16.8277 52.0717C17.1197 51.9527 17.8734 51.8129 18.4522 51.7866C19.0328 51.7691 19.3808 51.8024 19.3808 51.8024C19.8966 51.3949 20.6818 51.0504 20.9529 51.0119" fill="white"/>
<path d="M22.5599 58.2621C22.2941 58.6223 22.0633 58.9073 21.7677 59.2378C21.2589 59.3812 20.8514 59.4337 20.3565 59.4337C20.6608 59.5893 20.9563 59.6838 21.2746 59.7502C20.9581 60.0405 20.6888 60.2433 20.381 60.441C20.8986 60.3168 21.5771 60.0982 22.0843 59.7992C22.3483 59.8097 22.5966 59.7939 22.7768 59.7572C22.7295 59.6033 22.6998 59.4897 22.6631 59.2921C23.1387 58.9196 23.4867 58.5891 23.8837 58.1851C23.4622 58.4789 23.0968 58.6992 22.6089 58.9301C22.5861 58.7062 22.5739 58.5174 22.5634 58.2621" fill="white"/>
<defs>
<linearGradient id="paint0_linear_801_6934" x1="22.0056" y1="45.5926" x2="22.0056" y2="63.071" gradientUnits="userSpaceOnUse">
<stop stop-color="#009A7B"/>
<stop offset="0.6" stop-color="#77C1B1"/>
<stop offset="1" stop-color="#009A7B"/>
</linearGradient>
<linearGradient id="paint1_linear_801_6934" x1="22.1402" y1="41.8924" x2="22.1402" y2="61.5287" gradientUnits="userSpaceOnUse">
<stop stop-color="#009A7B"/>
<stop offset="0.3" stop-color="#77C1B1"/>
<stop offset="0.55" stop-color="#009A7B"/>
<stop offset="0.84" stop-color="#009A7B"/>
<stop offset="1" stop-color="#00A184"/>
</linearGradient>
<linearGradient id="paint2_linear_801_6934" x1="22.1385" y1="41.8924" x2="22.1385" y2="61.5287" gradientUnits="userSpaceOnUse">
<stop stop-color="white"/>
<stop offset="0.3" stop-color="white"/>
<stop offset="0.55" stop-color="white"/>
<stop offset="0.84" stop-color="#B1B3B5"/>
<stop offset="0.87" stop-color="#B9BBBD"/>
<stop offset="0.92" stop-color="#D2D3D4"/>
<stop offset="0.99" stop-color="#F9F9F9"/>
<stop offset="1" stop-color="white"/>
</linearGradient>
</defs>
</svg>
