<svg width="108" height="108" viewBox="0 0 108 108" fill="none" xmlns="http://www.w3.org/2000/svg">
<path d="M26.3865 93.9232C24.8198 93.7408 23.6024 93.3707 22.1488 92.6349C18.3699 90.722 15.536 87.4229 14.4669 83.6922C13.945 81.8713 13.9737 83.6237 13.9937 54.8912C14.0027 38.2801 14.0437 28.3533 14.096 27.608C14.2263 25.7999 14.5014 24.6218 15.2297 22.7539C16.5419 19.3901 18.689 17.03 21.8578 15.4681C23.6399 14.5897 25.3431 14.1476 27.4252 14.0231C28.145 13.9803 39.8894 13.9735 55.2209 14.0073C84.5646 14.0725 82.1401 14.0231 83.9755 14.5928C84.8199 14.8549 86.3813 15.5935 87.3355 16.1823C90.686 18.2497 93.1123 21.6134 93.8359 25.1942C93.9779 25.8976 93.9851 27.2911 93.9851 53.5101C93.9851 79.5812 93.9805 81.1377 93.8368 82.029C93.3624 85.0425 91.9581 87.6673 89.5051 90.1266C87.5841 92.0525 85.8108 93.1132 83.4566 93.7444L82.601 93.9738L54.8053 93.985C39.5177 93.9912 26.7292 93.9632 26.3865 93.9232ZM37.9859 85.7098C39.1844 85.3025 40.6662 84.3021 41.8766 83.083C42.8275 82.1253 43.5736 81.0867 44.0926 79.9984C44.6967 78.7317 44.8445 78.1205 44.8944 76.6823C44.9671 74.5875 44.6636 72.8413 43.9763 71.3969C43.1501 69.6613 42.0652 68.3828 37.1065 63.3021C31.7604 57.8244 30.2218 56.1872 29.0648 54.745C28.7176 54.3125 28.6238 54.1364 28.6613 53.9918C28.8394 53.3092 30.6666 51.4339 35.3259 47.1506C40.2299 42.6424 41.7742 41.0299 43.4622 38.6545C44.5144 37.174 45.2677 35.4449 45.5362 33.8944C45.7013 32.9423 45.7017 31.1532 45.5378 30.1924C45.1856 28.1297 44.093 26.0705 42.6535 24.7578C40.6082 22.8926 38.601 22.0326 35.7326 21.7924C34.5025 21.6894 29.4616 21.7523 28.2144 21.8864C25.4268 22.186 22.8362 24.1415 22.1781 26.4431C22.0468 26.9017 22.0342 28.3118 22.0072 45.4759C21.9891 55.6716 22.0101 67.9302 22.0523 72.7173C22.133 82.4147 22.0928 81.7938 22.7222 82.7762C23.1524 83.4459 24.0595 84.406 24.6932 84.8614C25.3266 85.3166 25.9341 85.6005 26.7302 85.8133C27.3117 85.9687 27.6068 85.9763 32.3299 85.9578L37.3157 85.9383L37.9859 85.7098ZM80.5758 85.8359C80.2611 85.2476 77.9716 82.8531 72.4333 77.3197C66.1179 71.0097 49.6982 54.1158 49.6701 53.8989C49.5957 53.3284 52.5103 50.2533 56.218 46.9896C58.3305 45.1301 61.377 42.1842 63.2309 40.2083C66.9166 36.2799 67.8541 34.9017 68.1866 32.9223C68.349 31.9583 68.3327 29.7421 68.1597 29.043C67.9671 28.268 67.645 27.4762 67.2363 26.7711C66.7885 25.9988 65.1333 24.3176 64.2377 23.7256C62.9753 22.8912 61.4326 22.2306 59.9998 21.9108C59.3038 21.7555 54.375 21.6564 52.7648 21.7654L51.7621 21.8333L51.832 22.1027C51.8725 22.2509 52.2898 22.9529 52.7642 23.6627C53.2385 24.3726 53.7753 25.2685 53.957 25.6536C54.9194 27.6938 55.3675 30.2365 55.2797 33.1597C55.2085 35.5312 54.8672 36.9258 53.8499 38.9986C52.4357 41.8808 50.5341 44.1125 46.3308 47.8229C43.8791 49.9871 41.9094 51.9569 40.9934 53.1605L40.3511 54.0046L45.1898 59.126C51.2003 65.4876 51.6153 65.9332 52.3089 66.7686C54.3016 69.1686 55.2951 71.3109 55.68 74.0379C55.8621 75.3268 55.8427 77.7861 55.6393 78.9649C55.3309 80.7738 54.6624 82.3539 53.4218 84.2071C53.0299 84.7923 52.6164 85.431 52.5025 85.6267L52.2956 85.9824H66.4743C79.9523 85.9824 80.6491 85.9755 80.5746 85.8359L80.5758 85.8359ZM86.1846 56.7742C86.1396 34.5325 86.0895 30.3869 85.8465 28.7796C85.1598 24.2384 83.3156 22.3338 79.1702 21.8842C78.193 21.7782 73.0867 21.7569 73.0867 21.8585C73.0867 22.0116 73.6553 22.8096 74.4148 23.7225C75.347 24.843 75.7781 25.4609 76.1618 26.2268C77.0163 27.9326 77.2717 29.7955 77.0854 32.9639C76.9154 35.8552 76.5762 37.1188 75.5025 38.8625C73.9816 41.3323 71.9849 43.4563 66.603 48.3294C63.4258 51.2062 61.31 53.4362 61.3873 53.8267C61.3964 53.8943 66.9833 59.6105 73.793 66.5292L86.1744 79.1086L86.2014 78.7165C86.2195 78.5008 86.2059 68.6267 86.1833 56.7739L86.1846 56.7742Z" fill="#00529C"/>
</svg>
