<svg width="108" height="108" viewBox="0 0 108 108" fill="none" xmlns="http://www.w3.org/2000/svg">
<path d="M43.5313 70.0724C43.2421 70.0724 42.958 70.0921 42.6774 70.1235H44.3855C44.1049 70.0921 43.8205 70.0724 43.5313 70.0724Z" fill="#00529C"/>
<path d="M40.0268 82.3584C41.374 82.3584 42.3728 82.7076 43.0228 83.4045C43.6336 84.0906 43.9418 84.9004 43.9418 85.8374C43.9418 86.8024 43.5923 87.6272 42.8944 88.3125C42.1958 88.998 41.0476 89.3406 39.4484 89.3406H34.0234V82.3584H40.0268ZM40.7992 72.1589C41.1593 72.2964 41.4601 72.4749 41.6949 72.6998C42.3041 73.2843 42.6088 73.9822 42.6088 74.7943C42.6088 75.5307 42.4814 76.14 42.2279 76.6222C41.9739 77.1046 41.7202 77.473 41.4667 77.7263H34.0234V71.8431H38.6502C39.5175 71.8431 40.2317 71.9497 40.7992 72.1589ZM45.5329 79.1846C45.7109 79.0066 45.9213 78.7769 46.1639 78.4964C46.4058 78.2163 46.6355 77.8845 46.8522 77.5022C47.0685 77.1198 47.2536 76.6933 47.4068 76.2213C47.5595 75.7498 47.6362 75.2461 47.6362 74.7108C47.6362 73.6659 47.4577 72.6907 47.1009 71.7856C46.7436 70.8811 46.1956 70.0905 45.4567 69.4149C44.717 68.7397 43.7932 68.2105 42.6842 67.8278C41.5753 67.4455 40.2813 67.2543 38.8032 67.2543H29.0524V94.0209H39.7591C41.3137 94.0209 42.6711 93.8107 43.8314 93.3901C44.9912 92.9692 45.9535 92.3898 46.7185 91.6501C47.483 90.9112 48.0503 90.0507 48.4203 89.0691C48.7892 88.0881 48.9743 87.0367 48.9743 85.9144C48.9743 84.4106 48.6304 83.0723 47.9422 81.8996C47.2536 80.7274 46.4509 79.822 45.5329 79.1846Z" fill="#00529C"/>
<path d="M61.2958 71.8427C61.6146 71.8427 61.9149 71.8632 62.2013 71.8997C63.1054 72.036 63.843 72.3586 64.4118 72.8711C65.1857 73.5693 65.5734 74.4262 65.5734 75.4412C65.5734 75.9494 65.4903 76.4445 65.3257 76.9264C65.1604 77.4088 64.9003 77.8345 64.545 78.202C64.1892 78.5702 63.7324 78.8685 63.1743 79.0969C62.6154 79.3256 61.9425 79.4398 61.156 79.4398H55.7897V71.8427H61.2958ZM67.1272 82.492C67.93 81.9443 68.5993 81.3064 69.1346 80.5801C69.67 79.8536 70.065 79.0505 70.32 78.1711C70.5745 77.2916 70.7024 76.3931 70.7024 75.4754C70.7024 74.2773 70.5046 73.175 70.1098 72.1676C69.7143 71.161 69.1215 70.2942 68.3316 69.5677C67.5413 68.8409 66.5537 68.2739 65.3683 67.8659C64.1829 67.4587 62.8121 67.2541 61.2578 67.2541H50.722V94.0205H55.7897V84.0788H58.6155L65.6038 94.0205H71.5437L64.3166 83.7346C65.3873 83.4545 66.324 83.0405 67.1272 82.492Z" fill="#00529C"/>
<path d="M73.3331 67.2544V67.262C73.2819 67.2604 73.232 67.2544 73.1801 67.2544H73.1376V94.0207H78.3041V67.2544H73.3331Z" fill="#00529C"/>
<path d="M38.0932 14.0347C36.3397 14.239 35.1218 14.6219 33.8529 15.3749C31.1303 16.9831 29.3832 19.7017 29.0707 22.8159C29.0197 23.3392 29.007 27.8383 29.0197 39.1082C29.0452 53.3074 29.0516 54.7241 29.1536 55.19C29.5298 57.0279 30.193 58.4255 31.3216 59.7848C32.8965 61.6865 35.2302 62.9246 37.7552 63.199C38.6415 63.2947 68.6801 63.2883 69.5728 63.1926C71.2944 63.0075 73.016 62.3247 74.4315 61.2589C75.0691 60.7739 76.0766 59.7082 76.5484 59.019C77.5686 57.5257 78.1042 55.9494 78.2318 54.1051C78.3083 53.0202 78.3083 24.239 78.2318 23.1541C78.0596 20.6653 77.1159 18.5529 75.3943 16.8363C74.0298 15.4642 72.4995 14.6346 70.4846 14.1751L69.847 14.0347L54.0657 14.022C45.3876 14.0156 38.2016 14.022 38.0932 14.0347ZM44.4694 19.7336C46.4716 20.2888 48.1358 21.9352 48.6586 23.8689C48.8627 24.6347 48.8435 25.7132 48.6204 26.4726C48.4036 27.2001 48.0784 27.8638 47.6321 28.4764C47.1985 29.0827 47.581 28.6742 42.2059 34.4177C39.7 37.098 37.6468 39.3252 37.6468 39.3699C37.6468 39.4784 41.938 43.6201 45.1389 46.6003C47.0964 48.4255 47.8361 49.4146 48.3016 50.8505C48.5439 51.5908 48.5885 52.8479 48.3972 53.6456C48.1294 54.7624 47.5747 55.7133 46.6884 56.5684C46.1017 57.1364 45.5343 57.5193 45.1071 57.6469C44.9221 57.698 43.8956 57.7108 41.4088 57.698L37.9656 57.6788L37.481 57.5065C36.1165 57.0215 35.1792 56.0515 34.701 54.6476C34.5926 54.3093 34.5862 53.6775 34.5671 38.8849C34.548 21.6353 34.5161 22.9499 35.0134 21.9161C35.3896 21.1311 36.0846 20.4483 36.9136 20.0335C37.8572 19.5676 37.9975 19.5549 41.1857 19.574C43.8318 19.5868 43.9848 19.5932 44.4694 19.7336ZM58.9436 19.8676C60.1933 20.2951 61.4813 21.4438 62.0998 22.6819C63.324 25.1133 62.5143 27.7617 59.6258 30.7483C58.1975 32.2288 51.6746 39.2933 51.6746 39.3635C51.6746 39.4018 55.6279 43.5243 60.4547 48.5276C68.068 56.4089 69.2157 57.6214 69.0946 57.6597C69.0181 57.6788 65.3134 57.698 60.8628 57.7044C54.4164 57.7108 52.7841 57.6916 52.8096 57.6278C53.8425 55.2474 54.0976 54.2008 54.0848 52.3183C54.0657 49.0955 52.6821 46.1344 49.9466 43.4797C49.5641 43.1095 48.3845 41.9928 47.3196 40.9972C46.2548 40.0017 45.394 39.1657 45.4067 39.1402C45.4195 39.1146 46.7521 37.6788 48.3717 35.9429C51.5598 32.5224 51.7639 32.2926 52.4206 31.2907C54.0976 28.7317 54.7161 25.777 54.155 23.0265C53.9956 22.2288 53.613 21.1439 53.2049 20.3334L52.7338 19.5485H54.4292C55.9809 19.5448 57.5738 19.412 58.9436 19.8676ZM69.4453 19.6442C70.9054 19.9505 72.1297 21.1439 72.5951 22.7074C72.7099 23.0712 72.7163 23.7795 72.729 36.3003C72.7418 43.5626 72.7418 50.3527 72.7354 51.3802L72.7163 53.25L66.0212 46.3195C62.3421 42.5097 59.3261 39.3507 59.3261 39.3061C59.3261 39.2614 60.3145 38.1701 61.5259 36.8811C64.3953 33.8306 64.7077 33.486 65.2752 32.733C67.0733 30.359 68.0297 27.9659 68.1891 25.4196C68.2975 23.754 67.8576 21.731 67.0478 20.1547C66.9075 19.874 66.78 19.6251 66.7672 19.5932C66.7226 19.5038 68.9925 19.5485 69.4453 19.6442Z" fill="#00529C"/>
</svg>
