<svg width="108" height="108" viewBox="0 0 108 108" fill="none" xmlns="http://www.w3.org/2000/svg">
<path d="M29.3281 52.642H30.6376C31.1421 52.642 31.5714 52.7279 31.5714 53.2968C31.5714 53.9301 30.9811 54.0804 30.5517 54.0804H29.0275L29.3281 52.642ZM26.3226 55.9051H30.7664C32.4516 55.9051 33.9544 55.1645 33.9544 53.3075C33.9544 52.5884 33.4928 51.9014 32.7736 51.7511V51.7296H32.7844C33.7182 51.4828 34.212 50.8387 34.212 49.8727C34.212 48.7456 33.5787 48.166 31.9042 48.166H27.9326L26.3226 55.9051ZM29.8648 50.0229H31.0884C31.507 50.0229 31.8291 50.1088 31.8291 50.5811C31.8291 51.0534 31.346 51.1929 30.9703 51.1929H29.6286L29.8648 50.0229Z" fill="#0069AC"/>
<path d="M35.9831 55.9051H38.366L39.5575 50.1517H41.7043L42.1122 48.166H35.4357L35.0278 50.1517H37.1746L35.9831 55.9051Z" fill="#0069AC"/>
<path d="M41.3501 55.9051H43.6149L44.5166 51.5686H44.538L45.9549 55.9051H48.3056L49.9265 48.166H47.6616L46.7922 52.3951H46.7707L45.3216 48.166H42.9602L41.3501 55.9051Z" fill="#0069AC"/>
<path d="M25.4424 61.2399C25.5175 60.9823 25.4853 60.9823 25.6571 60.2738C25.7859 59.5654 26.5587 58.5027 27.9219 58.3847C28.3835 58.331 46.1803 57.5796 49.9801 57.3113L49.8728 57.9661C46.2877 58.4276 30.0687 60.6281 25.4424 61.2399Z" fill="#E21C23"/>
<path d="M17.6603 55.9051V57.3113L18.8732 56.6028L20.0969 57.3113V55.9051L18.8732 55.1967L17.6603 55.9051Z" fill="#A58560"/>
<path d="M22.5335 55.9051V54.499L18.8732 52.3844L15.2237 54.499V55.9051L18.8732 53.7906L22.5335 55.9051Z" fill="#A58560"/>
<path d="M14 49.5721L18.8732 46.7598L23.7571 49.5721V55.1967L22.5335 55.9051V50.2806L18.8732 48.166L15.2237 50.2806V55.9051L14 55.1967V49.5721Z" fill="#0069AC"/>
<path d="M18.8732 49.5721L21.3205 50.9783V56.6028L20.0969 57.3113V51.6867L18.8732 50.9783L17.6603 51.6867V57.3113L16.4473 56.6028V50.9783L18.8732 49.5721Z" fill="#0069AC"/>
<path fill-rule="evenodd" clip-rule="evenodd" d="M94 57.8587H92.2826V52.6206H90.4685V55.5187H82.139V53.8872C82.139 53.8872 82.9011 51.1607 87.3664 51.2359V53.9194H88.7726V48.1338H90.4471V50.8387H93.9678L94 57.8587ZM84.8762 49.9693L85.7778 49.0676L86.6795 49.9693L85.7778 50.8709L84.8762 49.9693ZM82.3537 49.9693L83.2553 49.0676L84.1463 49.9693L83.2553 50.8709L82.3537 49.9693ZM78.9725 49.9693L79.8634 49.0676L80.7651 49.9693L79.8634 50.8709L78.9725 49.9693ZM85.6919 53.9086L83.8242 53.8872C83.8242 53.8872 84.1248 52.9318 85.6812 52.642L85.6919 53.9086ZM80.7973 51.2144H79.112V53.9516H75.9026V52.6098C75.9026 52.6098 76.8579 52.5239 77.5127 52.0517V51.2144H74.2174V53.9408H72.779V51.2251C72.779 51.2251 68.6572 50.7958 67.777 53.9408V55.4972H80.7651L80.7973 51.2144ZM71.1153 53.9086L69.3227 53.8872C69.3227 53.8872 69.6554 52.7708 71.1045 52.5561L71.1153 53.9086ZM70.3853 49.9693L71.287 49.0676L72.1887 49.9693L71.287 50.8709L70.3853 49.9693ZM67.8736 49.9693L68.7753 49.0676L69.6662 49.9693L68.7753 50.8709L67.8736 49.9693ZM90.3612 56.4633H67.7663V57.8158H90.3612V56.4633ZM66.7573 51.2466H65.1365V53.8979H63.2151V51.2251H61.4977V55.465H65.2009V57.7192H66.7573V51.2466ZM64.106 56.4633H53.3506V57.8158H64.106V56.4633ZM60.5531 48.0586L60.5423 49.6687C60.5423 49.6687 57.451 49.2286 56.4098 51.0963L56.3668 51.1929H60.5101V55.4221H53.3291V53.9194H58.8142V52.4703H54.1878V51.1178C54.1878 51.1178 55.1324 47.64 60.5531 48.0586Z" fill="#B38767"/>
</svg>
