<svg width="108" height="108" viewBox="0 0 108 108" fill="none" xmlns="http://www.w3.org/2000/svg">
<path d="M14.0917 56.4892C14.2884 56.4479 14.4354 56.3943 14.5289 56.3289C14.7433 56.177 14.8947 55.8883 14.9872 55.46L16.4255 48.7681C16.4653 48.5689 16.4938 48.4037 16.5096 48.2724C16.5273 48.1416 16.5341 48.0398 16.5287 47.9661C16.5135 47.6995 16.4269 47.5319 16.2735 47.463C16.2184 47.4394 16.1516 47.4163 16.066 47.3971L16.1678 46.932H19.4447C20.5629 46.932 21.4396 47.108 22.0735 47.463C22.7122 47.8136 23.055 48.3796 23.1027 49.1679C23.1494 49.93 22.8067 50.5388 22.0745 50.9941C21.6806 51.242 21.1471 51.4485 20.4695 51.6147C21.1112 51.8389 21.5695 52.0632 21.8458 52.284C22.3105 52.6587 22.5633 53.1725 22.6001 53.8211C22.6528 54.6428 22.3543 55.3656 21.7165 55.9847C21.0763 56.6023 19.9654 56.9107 18.3806 56.9107H13.9998L14.0917 56.4892ZM17.495 56.3855C17.6174 56.4263 17.8102 56.4455 18.0674 56.4455C19.0164 56.4455 19.6724 56.0069 20.0348 55.1335C20.2482 54.6162 20.3406 54.0744 20.3082 53.5153C20.2683 52.8298 20.0008 52.3695 19.5135 52.133C19.2244 51.9914 18.7041 51.9038 17.9538 51.8709L17.1886 55.5127C17.1734 55.5707 17.1577 55.6366 17.1473 55.7157C17.1419 55.79 17.1419 55.8741 17.1488 55.9724C17.1616 56.1755 17.2757 56.3127 17.495 56.3855ZM19.5362 51.2508C19.8056 51.1874 20.049 51.0536 20.2634 50.8491C20.5373 50.5929 20.7217 50.2349 20.8196 49.7796C20.882 49.4831 20.9086 49.1895 20.8899 48.8999C20.8624 48.4607 20.7488 48.1077 20.5486 47.8348C20.3475 47.5584 19.9743 47.4193 19.4319 47.4193C19.2008 47.4193 19.0449 47.4743 18.9574 47.5786C18.8748 47.6882 18.8148 47.8525 18.7681 48.0747L18.0506 51.4249C18.7754 51.3693 19.2706 51.3093 19.5362 51.2508Z" fill="#0069AB"/>
<path d="M24.3029 51.797C25.1482 50.6183 26.0378 50.0297 26.9706 50.0297C27.3526 50.0297 27.6359 50.1409 27.8281 50.3616C27.9412 50.4983 28.0489 50.7265 28.1488 51.0471L28.7305 50.223H30.0282L29.1376 53.6336C29.0127 54.1303 28.9237 54.5064 28.8745 54.77C28.7688 55.2701 28.7197 55.6251 28.731 55.839C28.7359 55.928 28.758 55.9895 28.7998 56.0225C28.8406 56.0564 28.8829 56.0726 28.9311 56.0726C29.0211 56.0726 29.1022 56.0421 29.1809 55.9777C29.2615 55.9103 29.3515 55.8174 29.4445 55.6935L29.5104 55.6158C29.6126 55.6827 29.7459 55.7766 29.8595 55.8562C29.6298 56.167 29.4071 56.4242 29.1863 56.6342C28.8406 56.9695 28.4758 57.1367 28.1045 57.1367C27.8744 57.1367 27.6482 57.0516 27.4249 56.8825C27.2017 56.7119 27.0822 56.4635 27.066 56.1311C27.0606 56.0077 27.1087 55.7058 27.2076 55.2254L27.1569 55.3085C27.1087 55.3955 27.0286 55.5248 26.9219 55.6935C26.677 56.0933 26.3834 56.4306 26.0363 56.7084C25.6965 56.9838 25.307 57.1215 24.8719 57.1215C24.4731 57.1215 24.1008 56.9749 23.7448 56.6765C23.3903 56.3819 23.1931 55.8789 23.1567 55.1683C23.1021 54.0722 23.4847 52.9491 24.3029 51.797ZM27.7205 50.9881C27.6187 50.7649 27.4402 50.6557 27.1879 50.6557C26.6455 50.6557 26.1233 51.2925 25.6203 52.5685C25.1743 53.703 24.9677 54.5674 24.9987 55.1683C25.0095 55.4078 25.0779 55.6133 25.2033 55.7889C25.3341 55.9639 25.4964 56.052 25.6891 56.052C26.1882 56.0564 26.7163 55.4009 27.2774 54.0845C27.6703 52.9816 27.8493 52.1073 27.8168 51.4631C27.8085 51.2679 27.7765 51.1086 27.7205 50.9881Z" fill="#0069AB"/>
<path d="M30.1557 56.9108L31.3162 51.8877C31.3599 51.6955 31.3904 51.5401 31.4111 51.429C31.4494 51.2219 31.4671 51.0754 31.4637 50.9928C31.4524 50.8133 31.3899 50.7017 31.2768 50.6569C31.2173 50.6358 31.1264 50.6161 31.0074 50.6019L31.0762 50.2227H33.4837L32.7501 52.8038L32.7889 52.824C32.7658 52.8491 32.8991 52.6283 33.1936 52.1621C33.4857 51.6915 33.7684 51.3095 34.0384 51.0179C34.3089 50.7214 34.5921 50.4868 34.8881 50.3113C35.193 50.1328 35.5111 50.0413 35.8549 50.0413C36.1676 50.0413 36.442 50.1328 36.6682 50.3113C36.9013 50.4912 37.0271 50.7843 37.0498 51.1949C37.0694 51.573 36.889 52.406 36.5167 53.6978C36.1381 54.9871 35.9522 55.6751 35.9586 55.7665C35.9606 55.8555 35.9921 55.9224 36.0476 55.9726C36.1042 56.0144 36.1583 56.0375 36.2123 56.0375C36.3328 56.0375 36.4971 55.8988 36.7124 55.621L37.0665 55.8472C36.9116 56.0763 36.7724 56.2573 36.6446 56.3935C36.2207 56.8459 35.758 57.0721 35.2559 57.0721C34.9884 57.0721 34.7445 56.9919 34.5223 56.8385C34.3054 56.6831 34.1884 56.4372 34.1712 56.1019C34.1613 55.8885 34.1972 55.5767 34.2769 55.1686C34.3605 54.7614 34.4633 54.3435 34.5882 53.9093L35.2215 51.6797L35.2495 51.543C35.2559 51.5042 35.2599 51.4644 35.2599 51.425C35.253 51.3149 35.2112 51.2362 35.1291 51.1949C35.0553 51.1497 34.9732 51.128 34.8842 51.128C34.5803 51.128 34.2499 51.3641 33.8992 51.841C33.5482 52.3131 33.2649 52.7822 33.05 53.2553C32.8174 53.7637 32.6296 54.281 32.4801 54.8052C32.3321 55.3308 32.1566 56.0321 31.9564 56.9108H30.1557Z" fill="#0069AB"/>
<path d="M37.3572 56.9108C37.3572 56.9108 39.3074 48.1609 39.3221 48.0665C39.3374 47.976 39.3428 47.887 39.3393 47.7975C39.3266 47.5762 39.2498 47.4395 39.1063 47.3903C39.0369 47.3677 38.9484 47.351 38.8324 47.3397L38.9214 46.936H41.3559L39.9579 53.3044C40.4998 52.8972 40.9739 52.5103 41.3736 52.1478C41.9912 51.5794 42.2966 51.1831 42.2838 50.9588C42.2769 50.799 42.1988 50.6997 42.0522 50.6594C41.9863 50.6436 41.916 50.6269 41.8349 50.6161L41.9214 50.2168L44.1136 50.2409L43.9695 50.7469C43.5731 50.7607 43.5987 50.7956 42.6285 51.7171C42.6285 51.7171 41.9072 52.3986 41.8123 52.4832L41.7395 52.5501C41.7523 52.5894 41.8123 52.8436 41.9214 53.3108C42.0488 53.8517 42.1466 54.2185 42.2086 54.4123C42.4284 55.0618 42.5848 55.4877 42.6831 55.6859C42.7839 55.8811 42.9241 55.9779 43.0967 55.9779C43.2752 55.9779 43.4335 55.883 43.58 55.6927C43.5953 55.6736 43.6144 55.6475 43.6331 55.6195L43.9469 55.8555C43.8082 56.0856 43.6577 56.3005 43.4959 56.4947C43.1881 56.864 42.8164 57.0489 42.3841 57.0489C42.0562 57.0489 41.7754 56.9383 41.5443 56.7219C41.3146 56.5036 41.1194 56.2115 40.9611 55.8471C40.7914 55.4636 40.6439 55.023 40.5205 54.5224C40.4054 54.0218 40.343 53.7499 40.341 53.7066L39.7804 54.1138L39.1766 56.9108H37.3572Z" fill="#0069AB"/>
<path d="M68.0455 49.2141H69.623C70.1693 49.2141 70.5745 49.3257 70.5745 49.9266C70.5745 50.5433 69.9593 50.7232 69.4715 50.7232H67.7367L68.0455 49.2141ZM63.4793 56.7991H69.204C71.3873 56.7991 73.3144 55.8466 73.3144 53.4415C73.3144 52.521 72.7292 51.6384 71.8043 51.4422V51.4156H71.8181C73.0218 51.0955 73.6498 50.2689 73.6498 49.012C73.6498 47.5698 72.8394 46.8159 70.6723 46.8159H65.5485L63.4793 56.7991ZM67.3586 52.5835H69.0486C69.6928 52.5835 70.2406 52.6951 70.2406 53.4386C70.2406 54.248 69.4863 54.4422 68.9385 54.4422H66.9661L67.3586 52.5835Z" fill="#0069AB"/>
<path d="M75.936 56.7992H79.0093L80.5485 49.3731H83.3164L83.8499 46.8161H75.2358L74.7052 49.3731H77.4732L75.936 56.7992Z" fill="#0069AB"/>
<path d="M82.868 56.7992H85.7893L86.9493 51.2067H86.9769L88.8076 56.7992H91.8278L93.9265 46.8161H91.0022L89.8845 52.2689H89.8579L87.9844 46.8161H84.9347L82.868 56.7992Z" fill="#0069AB"/>
<path d="M62.3414 63.6851C62.4333 63.3453 62.3954 63.3472 62.6226 62.4307C62.7859 61.5273 63.7807 60.1436 65.5347 60.0015C66.1326 59.9302 89.0935 58.9546 94 58.6109L93.853 59.4596C89.2302 60.0571 68.3149 62.8924 62.3414 63.6851Z" fill="#E31C24"/>
<path d="M52.3022 56.8006V58.6136L53.8742 57.7059L55.4468 58.6136V56.8006L53.8742 55.8914L52.3022 56.8006Z" fill="#A68561"/>
<path d="M58.5898 56.8007V54.9828L53.8736 52.26L49.1604 54.9828V56.8007L53.8736 54.075L58.5898 56.8007Z" fill="#A68561"/>
<path d="M47.5867 48.6306L53.8745 45.0001L60.1632 48.6306V55.8915L58.5898 56.8007L58.5907 49.5398L53.8745 46.8156L49.1598 49.5398L49.1604 56.8007L47.5867 55.8915V48.6306Z" fill="#0069AB"/>
<path d="M53.8737 48.6305L57.0179 50.4464V57.7063L55.4468 58.6136L55.4468 51.3527L53.8737 50.4464L52.3026 51.3527V58.6126L50.7321 57.7063V50.4464L53.8737 48.6305Z" fill="#0069AB"/>
</svg>
