<svg width="108" height="108" viewBox="0 0 108 108" fill="none" xmlns="http://www.w3.org/2000/svg">
<path d="M49.2641 45.264H51.9831C52.9248 45.264 53.6232 45.4563 53.6232 46.4921C53.6232 47.5549 52.5628 47.8651 51.7221 47.8651H48.7318L49.2641 45.264ZM41.3936 58.3377H51.261C55.0242 58.3377 58.3458 56.696 58.3458 52.5505C58.3458 50.9639 57.3372 49.4425 55.7429 49.1043V49.0585H55.7667C57.8415 48.5068 58.9239 47.082 58.9239 44.9156C58.9239 42.4297 57.5271 41.1303 53.7918 41.1303H44.9601L41.3936 58.3377ZM48.08 51.0715H50.9931C52.1035 51.0715 53.0477 51.2639 53.0477 52.5454C53.0477 53.9405 51.7475 54.2753 50.8033 54.2753H47.4037L48.08 51.0715Z" fill="#0069AB"/>
<path d="M62.8641 58.3377H68.1615L70.8144 45.5376H75.5853L76.5049 41.1303H61.6572L60.7427 45.5376H65.5136L62.8641 58.3377Z" fill="#0069AB"/>
<path d="M74.8125 58.3377H79.8479L81.8473 48.6982H81.8948L85.0503 58.3377H90.2561L93.8735 41.1303H88.833L86.9065 50.529H86.8607L83.6315 41.1303H78.3748L74.8125 58.3377Z" fill="#0069AB"/>
<path d="M39.4316 70.2063C39.5901 69.6207 39.5249 69.6241 39.9165 68.0442C40.1978 66.4872 41.9125 64.1021 44.9358 63.8572C45.9664 63.7343 85.5429 62.0527 93.9999 61.4603L93.7465 62.9232C85.7785 63.953 49.7279 68.8401 39.4316 70.2063Z" fill="#E31C24"/>
<path d="M22.1277 58.3401V61.4651L24.8374 59.9004L27.5479 61.4651V58.3401L24.8374 56.7729L22.1277 58.3401Z" fill="#A68561"/>
<path d="M32.9654 58.34V55.2065L24.8364 50.5135L16.7124 55.2065V58.34L24.8364 53.6419L32.9654 58.34Z" fill="#A68561"/>
<path d="M14 44.2576L24.8379 38L35.6775 44.2576V56.7728L32.9669 58.34V45.8248L24.8379 41.1292L16.7114 45.8248V58.34L14 56.7728V44.2576Z" fill="#0069AB"/>
<path d="M24.8365 44.2576L30.2559 47.3877V59.9012L27.5479 61.4633V48.9498L24.8365 47.3877L22.1285 48.9498V61.4633L19.4214 59.9012V47.3877L24.8365 44.2576Z" fill="#0069AB"/>
</svg>
