<svg width="108" height="108" viewBox="0 0 108 108" fill="none" xmlns="http://www.w3.org/2000/svg">
<path d="M88.7021 41.6145C89.7941 39.7197 91.6969 38.7803 92.9575 39.5109C94.2181 40.2415 94.3546 42.3692 93.2626 44.256C92.1707 46.1509 90.2678 47.0903 89.0072 46.3596C87.7467 45.629 87.6102 43.5013 88.7021 41.6145Z" fill="#7C6A55"/>
<path d="M21.6758 60.4667C21.8363 61.398 21.9006 65.1476 25.8107 65.1476C28.2274 65.1476 30.4595 62.3696 30.4595 56.5084C30.4595 50.6472 28.2917 47.829 25.9873 47.829C25.1202 47.829 24.2852 48.2144 23.5867 48.8969V47.0903C24.51 46.5524 25.5698 46.3035 26.8384 46.3035C31.8807 46.3035 35.6142 49.8924 35.6142 55.8901C35.6142 62.4258 31.0456 66.4082 25.5779 66.4082C23.1611 66.4082 16.7459 65.1316 16.7459 58.9894V43.2605C16.7459 40.1853 16.5452 39.6153 14.2088 39.6153H14V38.3628H21.6758C21.6517 38.8124 21.6758 60.4586 21.6758 60.4586M48.7015 64.7141V66.2556C47.9789 66.4965 47.2 66.6009 46.2767 66.6009C42.3987 66.6009 40.6162 65.0432 39.717 63.8871C38.625 62.49 38.7937 60.7156 38.8017 54.9347V54.7259L38.7937 48.3509H36.1922V46.8735H36.955C38.4645 46.7932 39.7812 46.2874 40.56 45.067C41.1783 44.1035 41.5316 43.0919 41.8527 41.3255L41.8768 41.1488H43.9403V46.7933H47.5373V48.3509H43.9403V55.5128C43.9403 55.561 43.9403 55.6011 43.9242 55.6412C43.9242 63.3812 43.868 65.1958 47.0876 65.1958C47.6497 65.1958 48.1956 65.0272 48.6934 64.7221M58.6494 64.7542C59.1472 65.0593 59.6932 65.2279 60.2553 65.2279C62.9289 65.2279 64.3661 62.5382 64.3661 56.6208C64.3661 50.7034 62.9932 48.1261 60.6808 48.1261C58.537 48.1261 57.0597 50.1494 56.5458 53.8347V74.8306C56.8349 75.5532 57.5093 75.6416 59.0509 75.6978H59.2516V76.9663H48.8861V75.7058H49.0869C51.062 75.6416 51.4876 75.5051 51.5759 73.6022V50.5428C51.4795 48.5998 50.8131 48.3669 48.8861 48.3429V46.8173H56.5458V48.7764C58.0553 47.2429 59.621 46.5765 61.837 46.5765C66.7748 46.5765 69.5368 50.1012 69.5368 56.131C69.5368 59.3346 68.7098 62.1688 67.2807 63.9352C65.8756 65.6695 63.5712 66.6571 61.0903 66.6571C60.1669 66.6571 59.3881 66.5527 58.6655 66.3118V64.7703L58.6494 64.7542ZM77.9272 49.3144L77.9111 49.2983V46.7852H70.3799V47.9575H70.5886C72.8287 47.9976 73.0776 48.2465 73.0776 51.2815V61.3579C73.0776 64.5374 72.8689 64.7542 70.5164 64.7863H70.3477V66.079H80.657V64.7863H80.4483C78.1359 64.7462 77.9272 64.5695 77.9272 61.3579V54.0836C77.9272 52.9194 78.3126 51.4661 78.8826 50.4384C79.7658 48.9209 81.0103 48.1421 82.4475 48.1421C84.4949 48.1421 85.4343 49.5713 85.4343 53.4975V61.3579C85.4343 64.5053 85.1854 64.7542 82.9132 64.7863H82.7044V66.079H93.0217V64.7863H92.813C90.4685 64.7462 90.2598 64.5374 90.2598 61.3579V53.2807C90.2598 51.0888 90.0028 49.8363 89.3204 48.7042C88.3248 46.9458 86.6065 46.1268 84.1898 46.1268C81.4358 46.1268 79.4607 47.1225 77.9191 49.3144M88.6861 41.6065C89.778 39.7116 91.6809 38.7722 92.9414 39.5029C94.202 40.2335 94.3385 42.3612 93.2466 44.248C92.1546 46.1429 90.2517 47.0823 88.9912 46.3517C87.7306 45.621 87.5941 43.4933 88.6861 41.6065Z" fill="#F58220"/>
<path d="M51.1423 36.4117H50.8532C50.7569 36.4117 50.6766 36.3314 50.6766 36.2351C50.6766 35.6811 50.5401 35.1431 50.0824 34.7898C49.8978 34.6373 49.6649 34.5249 49.3839 34.4526C49.1109 34.3804 48.8058 34.3402 48.4686 34.3402C47.9628 34.3402 47.5854 34.4125 47.3205 34.541C47.0394 34.6694 46.8387 34.8139 46.7183 34.9665C46.5416 35.1752 46.4292 35.4563 46.4292 35.7373C46.4292 36.0745 46.4935 36.3153 46.6059 36.4759C46.7424 36.6445 46.911 36.773 47.1358 36.8694C47.3847 36.9738 47.6577 37.0621 47.9467 37.1343C48.2518 37.2146 48.6051 37.3029 49.0146 37.4073C49.3036 37.4876 49.5846 37.5679 49.8657 37.6482C50.1708 37.7285 50.4357 37.8489 50.6766 38.0015C50.9255 38.162 51.1262 38.3547 51.2788 38.6036C51.4474 38.8606 51.5196 39.1817 51.5196 39.5591C51.5196 39.9605 51.4313 40.3058 51.2467 40.6029C51.078 40.8839 50.8532 41.1167 50.5722 41.2933C50.2992 41.47 49.9941 41.5904 49.6489 41.6627C49.3197 41.743 48.9905 41.7832 48.6613 41.7832C47.6497 41.7832 46.8548 41.5583 46.3008 41.0926C45.7468 40.6189 45.4898 39.8722 45.4898 38.9168C45.4898 38.8204 45.5701 38.7401 45.6665 38.7401H45.9555C46.0519 38.7401 46.1322 38.8204 46.1322 38.9168C46.1322 39.7197 46.3489 40.2737 46.7584 40.6189C47.184 40.9642 47.8102 41.1569 48.6613 41.1569C48.9182 41.1569 49.1752 41.1328 49.4401 41.0766C49.7131 41.0124 49.946 40.924 50.1627 40.7955C50.3715 40.6671 50.5401 40.4985 50.6686 40.3058C50.797 40.1211 50.8693 39.8883 50.8693 39.5992C50.8693 39.3102 50.797 39.0774 50.6686 38.9168C50.5401 38.7401 50.3715 38.5876 50.1547 38.4752C49.946 38.3467 49.689 38.2503 49.3919 38.1781L48.4606 37.9453C47.8986 37.8088 47.3124 37.6723 46.7745 37.4314C46.4373 37.2869 46.1884 37.0781 46.0198 36.7971C45.8511 36.5161 45.7789 36.1628 45.7789 35.7453C45.7789 34.2921 47.2161 33.7139 48.4606 33.7139C50.1387 33.7139 51.3109 34.4366 51.3109 36.2511C51.3109 36.3475 51.2306 36.4278 51.1343 36.4278" fill="#7C6A55"/>
<path d="M55.2692 40.6109L57.7582 34.019C57.7743 33.9709 57.8706 33.9067 57.9188 33.9067H58.2239C58.3684 33.9067 58.4407 34.011 58.3845 34.1475L55.0123 42.9072C54.7233 43.678 54.2255 44.0232 53.4948 44.0714H52.5956C52.2824 44.0393 52.2824 43.4371 52.6277 43.4291H53.4306C53.9284 43.4211 54.2495 43.1722 54.378 42.8189L54.924 41.4058L51.8729 34.1475C51.8167 34.011 51.889 33.8986 52.0335 33.8986H52.3386C52.3868 33.8986 52.4832 33.9628 52.4992 34.011L55.2612 40.6029L55.2692 40.6109Z" fill="#7C6A55"/>
<path d="M63.7158 37.4635C63.6435 37.5117 63.5632 37.5438 63.4749 37.5759C63.2662 37.6482 63.0253 37.7044 62.7523 37.7445C62.4873 37.7847 62.1983 37.8088 61.8852 37.8168C61.5881 37.8248 61.299 37.8409 61.018 37.8569C60.737 37.873 60.464 37.9132 60.191 37.9694C59.9502 38.0095 59.7254 38.1058 59.5407 38.2343C59.356 38.3467 59.2115 38.5153 59.0991 38.7401C58.9947 38.9408 58.9305 39.2299 58.9305 39.6073C58.9305 39.8 58.9626 39.9847 59.0188 40.1773C59.083 40.354 59.1874 40.5065 59.348 40.6591C59.5005 40.7956 59.6932 40.916 59.9502 41.0123C60.2071 41.1007 60.5202 41.1488 60.9137 41.1488C62.0538 41.1488 63.1377 40.5788 63.5391 39.4628C63.6676 39.1336 63.7318 38.8044 63.7318 38.4591V37.4635H63.7158ZM63.7158 40.4423C63.4829 40.7554 63.2822 40.9642 62.953 41.189C62.6881 41.3736 62.383 41.5182 62.0457 41.6145C61.7005 41.7269 61.3312 41.7832 60.9297 41.7832C60.1589 41.7832 59.5166 41.6145 59.0268 41.2612C58.521 40.8839 58.2801 40.3299 58.2801 39.6233C58.2801 39.1496 58.3524 38.7401 58.513 38.435C58.6816 38.1299 58.8984 37.8971 59.1633 37.7205C59.4283 37.5438 59.7173 37.4234 60.0465 37.3672C60.3597 37.2949 60.6728 37.2547 60.9939 37.2307L62.3027 37.1584C62.664 37.1263 62.937 37.0861 63.1538 37.0219C63.3705 36.9496 63.507 36.8613 63.5793 36.757C63.6596 36.6446 63.7158 36.4679 63.7158 36.211C63.7158 35.7774 63.6756 35.3197 63.4027 34.9665C63.2822 34.7979 63.0895 34.6453 62.8246 34.5329C62.5676 34.4125 62.2063 34.3483 61.7326 34.3483C60.9859 34.3483 60.4239 34.5329 60.0385 34.8782C59.2276 35.5767 59.5728 36.5161 59.2035 36.5161H58.9144C58.513 36.5161 58.8984 35.4723 58.9706 35.3118C59.1071 34.9826 59.2998 34.7016 59.5407 34.4607C59.7976 34.2198 60.1108 34.0351 60.464 33.9067C60.8334 33.7702 61.2589 33.706 61.7326 33.706C62.0698 33.706 62.391 33.738 62.6961 33.8103C63.0173 33.8825 63.2983 34.011 63.5391 34.2037C64.1253 34.6373 64.3421 35.2957 64.3581 35.9942V41.3415C64.3581 41.6306 64.2858 41.6306 64.0289 41.6306C63.7559 41.6306 63.7158 41.6306 63.7158 41.3255V40.4423Z" fill="#7C6A55"/>
<path d="M66.9916 35.0388C67.3449 34.4366 67.9069 34.0592 68.5332 33.8585C68.7259 33.7943 69.9302 33.4891 69.9302 33.8826V34.1716C69.9302 34.276 69.8419 34.3563 69.7455 34.3483C69.2638 34.3162 68.8463 34.3884 68.5091 34.549C68.1718 34.7015 67.8908 34.9183 67.666 35.1913C67.1923 35.7614 66.9996 36.5402 66.9996 37.2628V41.4459C66.9996 41.5423 66.9193 41.6226 66.823 41.6226H66.5339C66.4376 41.6226 66.3573 41.5423 66.3573 41.4459V34.0512C66.3573 33.9548 66.4376 33.8745 66.5339 33.8745H66.823C66.9193 33.8745 66.9996 33.9548 66.9996 34.0512V35.0388H66.9916Z" fill="#7C6A55"/>
<path d="M71.4316 34.1315V41.5262C71.4316 41.6226 71.3514 41.7028 71.255 41.7028H70.966C70.8696 41.7028 70.7893 41.6226 70.7893 41.5262V34.1315C70.7893 34.0351 70.8696 33.9548 70.966 33.9548H71.255C71.3514 33.9548 71.4316 34.0351 71.4316 34.1315ZM71.4316 31.2571V32.7103C71.4316 32.8067 71.3514 32.887 71.255 32.887H70.966C70.8696 32.887 70.7893 32.8067 70.7893 32.7103V31.2571C70.7893 31.1607 70.8696 31.0804 70.966 31.0804H71.255C71.3514 31.0804 71.4316 31.1607 71.4316 31.2571Z" fill="#7C6A55"/>
<path d="M80.914 35.0227C81.0987 34.7336 81.2994 34.5088 81.5322 34.3161C81.7811 34.1234 82.0621 33.9709 82.3753 33.8665C82.6964 33.7541 83.0417 33.6979 83.4271 33.6979C83.8285 33.6979 84.1979 33.7541 84.5351 33.8826C84.8803 34.003 85.1854 34.1877 85.4343 34.4366C85.6993 34.6774 85.892 34.9745 86.0205 35.3358C86.165 35.6891 86.2372 36.0905 86.2372 36.5402V41.4459C86.2372 41.5422 86.1569 41.6226 86.0606 41.6226H85.7716C85.6752 41.6226 85.5949 41.5422 85.5949 41.4459V36.5883C85.5949 36.1708 85.5387 35.8336 85.4263 35.5607C85.3139 35.2716 85.1533 35.0468 84.9526 34.8782C84.7599 34.6935 84.5351 34.565 84.2701 34.4847C84.0132 34.3964 83.7322 34.3483 83.4351 34.3483C83.0176 34.3483 82.6563 34.4285 82.3512 34.5891C82.0381 34.7417 81.7731 34.9504 81.5643 35.2154C81.1067 35.7854 80.9301 36.5402 80.9301 37.2628V41.4459C80.9301 41.5422 80.8498 41.6226 80.7534 41.6226H80.4644C80.368 41.6226 80.2877 41.5422 80.2877 41.4459V31.1768C80.2877 31.0804 80.368 31.0001 80.4644 31.0001H80.7534C80.8498 31.0001 80.9301 31.0804 80.9301 31.1768V35.0227H80.914Z" fill="#7C6A55"/>
<path d="M77.6944 37.4635C77.6221 37.5117 77.5418 37.5438 77.4535 37.5759C77.2447 37.6482 77.0039 37.7044 76.7309 37.7445C76.4659 37.7847 76.1769 37.8088 75.8637 37.8168C75.5667 37.8248 75.2776 37.8409 74.9966 37.8569C74.7156 37.873 74.4426 37.9132 74.1696 37.9694C73.9207 38.0095 73.7039 38.1058 73.5112 38.2343C73.3346 38.3467 73.182 38.5153 73.0696 38.7401C72.9653 38.9408 72.901 39.2299 72.901 39.6073C72.901 39.8 72.9331 39.9847 72.9893 40.1773C73.0536 40.354 73.158 40.5065 73.3185 40.6591C73.4711 40.7956 73.6638 40.916 73.9207 41.0123C74.1776 41.1007 74.4908 41.1488 74.8842 41.1488C76.0243 41.1488 77.1082 40.5788 77.5097 39.4628C77.6382 39.1336 77.7024 38.8044 77.7024 38.4591V37.4635H77.6944ZM77.6944 40.4423C77.4615 40.7554 77.2608 40.9642 76.9316 41.189C76.6666 41.3736 76.3615 41.5182 76.0243 41.6145C75.6791 41.7269 75.3097 41.7832 74.9083 41.7832C74.1375 41.7832 73.4952 41.6145 73.0054 41.2612C72.4996 40.8839 72.2587 40.3299 72.2587 39.6233C72.2587 39.1496 72.331 38.7401 72.4915 38.435C72.6601 38.1299 72.8769 37.8971 73.1419 37.7205C73.4069 37.5438 73.6959 37.4234 74.0251 37.3672C74.3382 37.2949 74.6514 37.2547 74.9725 37.2307L76.2812 37.1584C76.6425 37.1263 76.9155 37.0861 77.1323 37.0219C77.3491 36.9496 77.4856 36.8613 77.5579 36.757C77.6382 36.6446 77.6944 36.4679 77.6944 36.211C77.6944 35.7774 77.6542 35.3197 77.3812 34.9665C77.2608 34.7979 77.0681 34.6453 76.8031 34.5329C76.5462 34.4125 76.1849 34.3483 75.7112 34.3483C74.9645 34.3483 74.4025 34.5329 74.0171 34.8782C73.2061 35.5767 73.5514 36.5161 73.182 36.5161H72.893C72.4915 36.5161 72.8769 35.4723 72.9412 35.3118C73.0777 34.9826 73.2704 34.7016 73.5193 34.4607C73.7762 34.2198 74.0893 34.0351 74.4426 33.9067C74.8119 33.7702 75.2375 33.706 75.7112 33.706C76.0484 33.706 76.3696 33.738 76.6747 33.8103C76.9958 33.8825 77.2768 34.011 77.5177 34.2037C78.1038 34.6373 78.3206 35.2957 78.3367 35.9942V41.3415C78.3367 41.6306 78.2644 41.6306 78.0075 41.6306C77.7345 41.6306 77.6944 41.6306 77.6944 41.3255V40.4423Z" fill="#7C6A55"/>
</svg>
