<svg width="108" height="108" viewBox="0 0 108 108" fill="none" xmlns="http://www.w3.org/2000/svg">
<path d="M86.5664 32.4916C85.4955 31.867 83.8705 32.6701 82.9452 34.2811C82.02 35.892 82.1374 37.6955 83.2082 38.3155C84.2791 38.9355 85.8994 38.137 86.8294 36.5308C87.7593 34.9245 87.6372 33.1116 86.5664 32.4916Z" fill="#F58220"/>
<path d="M83.814 51.4662V44.5996C83.814 42.721 83.598 41.6736 83.0203 40.7108C82.1749 39.2173 80.7142 38.5175 78.6618 38.5175C76.3134 38.5175 74.6414 39.3629 73.3311 41.2321V39.0764H66.906V40.0768H67.0845C68.9631 40.1096 69.198 40.321 69.198 42.8948V51.4662C69.198 54.1621 69.0195 54.3452 67.0234 54.3781H66.906V55.4678H75.6653V54.3781H75.4915C73.5283 54.3452 73.3498 54.195 73.3498 51.4662V45.2807C73.3763 44.1998 73.6545 43.14 74.1624 42.1856C74.9091 40.8987 75.9659 40.2364 77.1917 40.2364C78.9295 40.2364 79.7326 41.4435 79.7326 44.7828V51.4662C79.7326 54.1339 79.5213 54.3452 77.5909 54.3781H77.4125V55.4678H86.1624V54.3781H85.9839C83.9878 54.3452 83.8093 54.1621 83.8093 51.4662" fill="#F58220"/>
<path d="M29.9104 38.663C28.9447 38.6343 27.9891 38.8663 27.144 39.3346V40.8704C27.6721 40.2968 28.4079 39.9585 29.1871 39.9311C31.1409 39.9311 32.9867 42.317 32.9867 47.3096C32.9867 52.3021 31.0845 54.6552 29.0368 54.6552C25.7115 54.6552 25.6505 51.4661 25.519 50.6771C25.519 50.6771 25.4955 32.2802 25.519 31.8904H19V32.9518H19.1785C21.1652 32.9518 21.3342 33.4215 21.3342 36.0469V49.4512C21.3483 54.6692 26.7871 55.7589 28.863 55.7589C33.508 55.7589 37.3875 52.3726 37.3875 46.8352C37.3875 41.7346 34.2125 38.6818 29.9292 38.6818" fill="#F58220"/>
<path d="M59.6497 38.8932C57.9485 38.83 56.3053 39.5169 55.155 40.7718V39.0857H48.6454V40.3914C50.2798 40.4196 50.8528 40.6122 50.9327 42.2701V61.8693C50.8622 63.4897 50.4912 63.6024 48.8145 63.6493H48.6454V64.7202H57.461V63.6587H57.292C55.9816 63.6118 55.4133 63.5366 55.1597 62.9261V45.0787C55.6012 41.946 56.8552 40.227 58.6822 40.227C60.6407 40.227 61.8102 42.5754 61.8102 47.4505C61.8102 52.4853 60.5843 54.7679 58.3158 54.7679C57.8331 54.7622 57.3616 54.6224 56.9538 54.364V55.6744C57.6219 55.875 58.3186 55.9638 59.0156 55.9374C61.027 55.9907 62.9568 55.1413 64.2759 53.6219C65.4923 52.1284 66.1922 49.7143 66.1922 46.9949C66.1922 41.8709 63.8438 38.8744 59.6497 38.8744" fill="#F58220"/>
<path d="M44.4325 46.6051C44.4348 46.566 44.4348 46.5268 44.4325 46.4877V40.382H47.4901V39.0858H44.4419V34.2858H42.6901V34.4361C42.5444 35.564 42.1636 36.6489 41.5722 37.6204C40.9053 38.6584 39.7875 39.0858 38.5053 39.1468H37.8572V40.3961H40.0646V45.8255V46.004C40.0646 50.9214 39.9143 52.429 40.8396 53.6126C41.6145 54.5989 43.1315 55.9374 46.4239 55.9374C47.1221 55.9537 47.8184 55.857 48.4857 55.6509V54.3359C48.0778 54.5938 47.6063 54.7336 47.1237 54.7398C44.3809 54.7398 44.4278 53.1993 44.4325 46.6192" fill="#F58220"/>
<path fill-rule="evenodd" clip-rule="evenodd" d="M63.9331 27.809C64.0886 27.5585 64.2837 27.3349 64.5108 27.1468C64.7491 26.9587 65.0197 26.8155 65.3092 26.7241C65.628 26.6145 65.9632 26.5605 66.3002 26.5644C66.6569 26.5593 67.0116 26.6182 67.3476 26.7382C67.6694 26.8535 67.9604 27.0415 68.1977 27.2877C68.4462 27.522 68.6361 27.8117 68.7519 28.1331C68.895 28.4945 68.9637 28.8811 68.9538 29.2697V33.863C68.9514 33.9554 68.8771 34.0296 68.7847 34.0321H68.517C68.4229 34.0321 68.3458 33.9572 68.3433 33.863V29.2838C68.3533 28.9551 68.2974 28.6277 68.1789 28.3209C68.0847 28.0732 67.9334 27.8512 67.7374 27.6728C67.5547 27.4951 67.3326 27.3631 67.0892 27.2877C66.8355 27.1996 66.5688 27.1551 66.3002 27.1562C65.9453 27.1489 65.594 27.2279 65.2763 27.3863C64.9951 27.533 64.7498 27.7398 64.5577 27.9922C64.3475 28.2494 64.1881 28.5443 64.0881 28.8611C63.9834 29.2067 63.9311 29.5661 63.9331 29.9272V33.863C63.9306 33.9554 63.8563 34.0296 63.764 34.0321H63.4916C63.3992 34.0296 63.325 33.9554 63.3225 33.863V26.8979C63.325 26.8055 63.3992 26.7312 63.4916 26.7288H63.764C63.8563 26.7312 63.9306 26.8055 63.9331 26.8979" fill="#7D6B56"/>
<path fill-rule="evenodd" clip-rule="evenodd" d="M49.2513 32.6982V33.863C49.2488 33.9554 49.1745 34.0296 49.0822 34.0321H48.8098C48.7175 34.0296 48.6432 33.9554 48.6407 33.863V24.1879C48.6368 24.1402 48.6528 24.093 48.6847 24.0575C48.7167 24.0219 48.762 24.0011 48.8098 24H49.0822C49.1763 24.0025 49.2513 24.0796 49.2513 24.1738V28.0297C49.4315 27.7052 49.6742 27.4195 49.9652 27.189C50.5185 26.7599 51.2051 26.5388 51.9049 26.5644C52.3755 26.5546 52.841 26.6645 53.2575 26.8838C53.6421 27.0978 53.973 27.3966 54.2251 27.7573C54.4966 28.1229 54.6988 28.5352 54.8215 28.9738C54.9636 29.4428 55.0348 29.9303 55.0329 30.4204C55.0375 30.929 54.9663 31.4356 54.8215 31.9233C54.6958 32.352 54.4937 32.7545 54.2251 33.1115C53.6635 33.8046 52.8156 34.2026 51.9237 34.1918C51.2289 34.2178 50.5472 33.9983 49.9981 33.5718C49.6969 33.331 49.4449 33.0344 49.256 32.6982H49.2513ZM49.4391 31.6368C49.5483 32.0041 49.7216 32.3491 49.9511 32.656C50.1797 32.9414 50.4663 33.1751 50.7918 33.3417C51.1385 33.5151 51.522 33.6021 51.9096 33.5953C52.2914 33.6038 52.6692 33.5166 53.0086 33.3417C53.3191 33.1801 53.5864 32.9466 53.7883 32.6607C54.0085 32.3489 54.1679 31.9983 54.2579 31.6274C54.3762 31.228 54.4347 30.8134 54.4317 30.3969C54.4301 30.0048 54.3764 29.6147 54.272 29.2368C54.181 28.8647 54.0218 28.5128 53.8024 28.1988C53.5994 27.8957 53.3294 27.6434 53.0133 27.4614C52.6705 27.2613 52.2782 27.162 51.8814 27.175C51.1618 27.1559 50.4712 27.459 49.9981 28.0016C49.4634 28.6805 49.202 29.535 49.2654 30.3969C49.2629 30.8171 49.3247 31.2352 49.4485 31.6368" fill="#7D6B56"/>
<path fill-rule="evenodd" clip-rule="evenodd" d="M61.0963 32.9237L61.0212 33.0271C60.8438 33.2579 60.6296 33.4578 60.3871 33.6188C60.1244 33.8011 59.832 33.9362 59.5229 34.0181C59.1833 34.1281 58.8279 34.182 58.4709 34.1777C57.8343 34.207 57.2048 34.0344 56.6721 33.6846C56.1962 33.3156 55.9326 32.7359 55.9676 32.1347C55.9574 31.7589 56.0345 31.3859 56.193 31.0451C56.3358 30.7727 56.546 30.5414 56.8036 30.3734C57.0558 30.204 57.3405 30.0889 57.6396 30.0353C57.9317 29.9701 58.2285 29.9277 58.5272 29.9085L59.7625 29.8427C60.0335 29.8251 60.3023 29.7827 60.5656 29.7159C60.7234 29.6756 60.8647 29.5869 60.9695 29.4623C61.0641 29.309 61.1084 29.13 61.0963 28.9503C61.097 28.7426 61.0798 28.5352 61.0447 28.3304C60.9642 27.9038 60.6695 27.5488 60.265 27.391C59.9372 27.2589 59.5849 27.198 59.2317 27.2126C58.6555 27.1755 58.0861 27.3547 57.6349 27.7151C57.2413 28.0782 57.0167 28.5887 57.0149 29.1241C57.0015 29.2107 56.9287 29.2757 56.8411 29.2791H56.5734C56.527 29.2804 56.482 29.2625 56.4491 29.2297C56.4162 29.1968 56.3983 29.1518 56.3997 29.1053C56.4175 28.7731 56.4905 28.4461 56.6157 28.1378C56.7346 27.8188 56.9203 27.529 57.1605 27.2877C57.4153 27.058 57.7119 26.8794 58.0341 26.7617C58.4201 26.6335 58.8251 26.5716 59.2317 26.5785C59.5368 26.5745 59.8412 26.6076 60.1382 26.6772C60.4285 26.7379 60.7013 26.8631 60.9366 27.0435C61.1691 27.2201 61.3573 27.4484 61.4862 27.7104C61.6341 28.0313 61.7094 28.3809 61.7069 28.7343V33.8631C61.7044 33.9554 61.6302 34.0297 61.5378 34.0321H61.2701C61.1778 34.0297 61.1035 33.9554 61.101 33.8631L61.0963 32.9237ZM61.101 30.1057C61.0298 30.1464 60.9561 30.1825 60.8803 30.2137C60.6561 30.2831 60.4268 30.3349 60.1946 30.3687C59.9238 30.4084 59.6509 30.432 59.3773 30.4392C59.0955 30.4392 58.8278 30.4392 58.5554 30.4768C58.2935 30.496 58.0331 30.532 57.7758 30.5848C57.5546 30.6206 57.3443 30.7056 57.1605 30.8337C56.9782 30.946 56.8329 31.1093 56.7425 31.3034C56.6156 31.568 56.5575 31.8604 56.5734 32.1535C56.5739 32.3368 56.6024 32.5189 56.658 32.6936C56.7214 32.8731 56.8278 33.0344 56.968 33.1633C57.1359 33.3075 57.3284 33.4205 57.5362 33.4967C57.8283 33.5856 58.1328 33.6268 58.438 33.6188C58.8314 33.6229 59.2215 33.5462 59.584 33.3934C59.8938 33.2637 60.1748 33.0737 60.4106 32.8345C60.6358 32.603 60.8088 32.326 60.9179 32.022C61.0347 31.7225 61.0952 31.4041 61.0963 31.0826L61.101 30.1057Z" fill="#7D6B56"/>
<path d="M76.2994 33.9053L73.1386 29.5233L75.5761 26.973C75.5761 26.973 75.6701 26.8791 75.6607 26.8321C75.6514 26.7969 75.6216 26.7709 75.5855 26.7663H75.0595C74.9562 26.7684 74.8588 26.8146 74.7918 26.8932L71.18 30.4955V24.1691C71.1754 24.0777 71.1023 24.0047 71.011 24H70.6775C70.5852 24.0025 70.5109 24.0767 70.5084 24.1691V33.863C70.511 33.9546 70.5859 34.0274 70.6775 34.0274H71.011C71.1025 34.0274 71.1775 33.9546 71.18 33.863V31.3926L72.6172 29.9836L75.393 33.9147C75.4385 33.9939 75.5281 34.0368 75.6184 34.0227H76.2055C76.2446 34.0216 76.281 34.0025 76.3041 33.971C76.3186 33.9481 76.3186 33.9188 76.3041 33.8959" fill="#7D6B56"/>
<path d="M45.1135 73.0708H21.5081V82.7741H45.1135V73.0708Z" fill="#004B35"/>
<path d="M29.1495 79.9186C29.0697 79.881 29.0509 79.8528 29.0509 79.7401C29.0509 79.4489 29.0744 79.1342 29.0791 79.0497C29.0838 78.9652 29.0791 78.9088 29.1354 78.9088C29.1918 78.9088 29.1871 78.9605 29.1871 79.0027C29.191 79.0936 29.2068 79.1836 29.2341 79.2704C29.3071 79.5961 29.6054 79.8208 29.9386 79.8012C30.1065 79.8141 30.2724 79.7576 30.3975 79.6449C30.5227 79.5321 30.5962 79.3731 30.6008 79.2047C30.5956 78.862 30.4193 78.5447 30.1311 78.3593L29.9057 78.1714C29.4748 77.8992 29.2019 77.4356 29.173 76.9268C29.179 76.6386 29.3063 76.3662 29.5236 76.1767C29.7408 75.9871 30.0279 75.898 30.3143 75.9311C30.537 75.9289 30.7587 75.9606 30.9718 76.025C31.0141 76.025 31.0376 76.025 31.0376 76.0861C31.0376 76.1472 31.0376 76.3068 31.0376 76.7154C31.0376 76.8329 31.0376 76.8751 30.9765 76.8751C30.9155 76.8751 30.9296 76.8423 30.9296 76.7765C30.9203 76.6526 30.8764 76.5338 30.8028 76.4336C30.6796 76.2598 30.4753 76.1621 30.2626 76.1753C30.1108 76.1591 29.9592 76.209 29.8468 76.3125C29.7344 76.4159 29.672 76.5627 29.6756 76.7154C29.6756 76.9597 29.7883 77.1428 30.1969 77.4763L30.3378 77.5843C30.939 78.054 31.1456 78.425 31.1456 78.9229C31.1602 79.2958 30.983 79.6502 30.676 79.8622C30.4412 80.0131 30.1658 80.0885 29.8869 80.0783C29.632 80.0836 29.3794 80.0289 29.1495 79.9186Z" fill="white"/>
<path d="M32.4936 76.0721C32.4936 75.9781 32.5406 75.9312 32.5781 75.9312C32.6157 75.9312 32.6486 75.9593 32.7143 76.0955L34.0623 79.0169L35.4102 76.058C35.4431 75.9734 35.4713 75.9312 35.5136 75.9312C35.5558 75.9312 35.5887 75.9875 35.6028 76.0955L36.0725 79.3128C36.1147 79.6462 36.1664 79.7824 36.3167 79.8435C36.4149 79.8775 36.5181 79.8949 36.622 79.8951C36.6642 79.8951 36.7018 79.8951 36.7018 79.9327C36.7018 79.9703 36.6408 79.9891 36.5703 79.9891C36.4999 79.9891 35.7672 79.9891 35.5699 79.9609C35.4572 79.9609 35.429 79.9374 35.429 79.9092C35.429 79.8811 35.429 79.867 35.4807 79.8482C35.5323 79.8294 35.5229 79.7683 35.5042 79.6227L35.2083 77.3355L34.1327 79.6838C34.0153 79.928 33.9918 79.975 33.9449 79.975C33.8979 79.975 33.8509 79.8717 33.7711 79.712C33.6537 79.4724 33.2638 78.6693 33.2075 78.519C33.1511 78.3687 32.8646 77.791 32.6909 77.3965L32.4325 79.4443C32.4281 79.5272 32.4281 79.6103 32.4325 79.6932C32.432 79.7771 32.4948 79.848 32.5781 79.8576C32.6471 79.8759 32.7181 79.8854 32.7895 79.8857C32.8271 79.8857 32.8599 79.8858 32.8599 79.9233C32.8599 79.9609 32.8177 79.9797 32.7472 79.9797C32.5359 79.9797 32.3151 79.9797 32.2259 79.9797C32.1366 79.9797 31.8924 79.9797 31.7327 79.9797C31.6858 79.9797 31.6482 79.9797 31.6482 79.9233C31.6482 79.867 31.6764 79.8857 31.7233 79.8857C31.7749 79.8912 31.8268 79.8912 31.8783 79.8857C32.0145 79.8529 32.0521 79.6462 32.0756 79.4677L32.4936 76.0721Z" fill="white"/>
<path d="M37.3499 77.5421C37.3499 76.7483 37.3499 76.6027 37.3499 76.4289C37.3499 76.2552 37.3029 76.1706 37.1386 76.1284C37.0745 76.1224 37.01 76.1224 36.946 76.1284C36.8896 76.1284 36.8615 76.1284 36.8615 76.0814C36.8615 76.0344 36.8943 76.0344 36.9695 76.0344C37.2325 76.0344 37.5425 76.0344 37.6411 76.0344C37.8853 76.0344 38.0779 76.0344 38.247 76.0344C39.1393 76.0344 39.2943 76.5417 39.2943 76.8235C39.2901 77.1987 39.1046 77.5486 38.7965 77.7628C39.2791 77.9179 39.6216 78.3474 39.6654 78.8524C39.6586 79.185 39.5111 79.4992 39.2595 79.7168C39.0078 79.9344 38.6757 80.035 38.3456 79.9937H38.0027H37.627C37.5753 79.9937 37.4673 79.9937 37.3452 79.9937H37.007C36.9413 79.9937 36.9084 79.9937 36.9084 79.9421C36.9084 79.8904 36.9084 79.8998 36.9883 79.8998C37.0461 79.9036 37.1042 79.9036 37.162 79.8998C37.2654 79.8998 37.2888 79.7589 37.3076 79.6086C37.3264 79.4583 37.3076 78.9745 37.3076 78.4908L37.3499 77.5421ZM37.9464 77.636C37.9464 77.6736 37.9464 77.6877 37.9793 77.6923C38.0558 77.7002 38.1329 77.7002 38.2094 77.6923C38.3375 77.7084 38.4666 77.6711 38.5663 77.589C38.7139 77.4423 38.788 77.2373 38.7683 77.0301C38.7683 76.6826 38.5757 76.2176 38.153 76.2176C38.0984 76.2123 38.0433 76.2123 37.9887 76.2176C37.9511 76.2176 37.9464 76.2505 37.9464 76.3068V77.636ZM38.5992 78.054C38.4782 77.973 38.3362 77.929 38.1906 77.9272H37.9746C37.9746 77.9272 37.9464 77.9272 37.9464 77.9648V79.2094C37.9464 79.5569 37.9464 79.6462 38.1155 79.7166C38.2303 79.7623 38.3536 79.7831 38.4771 79.7777C38.65 79.7804 38.8156 79.708 38.931 79.5791C39.0464 79.4502 39.1001 79.2776 39.0783 79.106C39.0977 78.6946 38.9198 78.2986 38.5992 78.0399V78.054Z" fill="white"/>
<path d="M40.8912 79.4818C40.0855 78.653 40.069 77.3388 40.8536 76.49C41.2747 76.0947 41.8413 75.8922 42.4176 75.9311C42.6567 75.9303 42.8955 75.9491 43.1315 75.9875C43.3193 75.9875 43.479 76.0579 43.6011 76.0767C43.6575 76.0767 43.681 76.1049 43.681 76.1378C43.681 76.1706 43.681 76.2411 43.6528 76.429C43.6246 76.6168 43.6528 76.8986 43.6528 76.9926C43.6528 77.0865 43.6528 77.1147 43.5918 77.1147C43.5307 77.1147 43.5448 77.0724 43.5448 77.002C43.5331 76.8287 43.4655 76.6639 43.3522 76.5323C43.0719 76.2981 42.7115 76.1819 42.3471 76.2082C42.003 76.184 41.6638 76.301 41.4078 76.5323C41.0705 76.9042 40.9008 77.3983 40.9381 77.899C40.895 78.3551 41.0353 78.8095 41.3278 79.162C41.6204 79.5145 42.0412 79.736 42.4974 79.7777C42.9389 79.7777 43.2066 79.726 43.3992 79.4818C43.4815 79.3805 43.5393 79.2615 43.5683 79.1342C43.5683 79.0544 43.5683 79.0309 43.634 79.0309C43.6998 79.0309 43.6763 79.0685 43.6763 79.1108C43.6546 79.3445 43.6185 79.5766 43.5683 79.8059C43.5617 79.8786 43.5115 79.94 43.4415 79.9609C43.1545 80.0511 42.8544 80.0923 42.5538 80.083C41.943 80.1029 41.3479 79.8877 40.8912 79.4818Z" fill="white"/>
<path d="M23.0438 77.6924V80.6231L24.2368 80.1205V77.171L23.0438 77.6924Z" fill="#BFD730"/>
<path d="M25.7491 75.2595V78.1949L26.9421 77.6877V74.7382L25.7491 75.2595Z" fill="#BFD730"/>
<path d="M24.4153 77.0959V80.0313L25.6082 78.2889V75.3394L24.4153 77.0959Z" fill="#BFD730"/>
<path d="M47.9034 79.6885C47.9034 80.0454 48.0208 80.3742 48.5891 80.8439L48.8239 81.0364C49.2936 81.4122 49.4016 81.6047 49.4016 81.9382C49.4008 82.119 49.325 82.2913 49.1924 82.4142C49.0598 82.537 48.8821 82.5993 48.7018 82.5863C48.3689 82.6253 48.0583 82.4128 47.9738 82.0885C47.9675 82.0276 47.9675 81.9662 47.9738 81.9053C47.9738 81.8771 47.9738 81.8114 47.8987 81.8114C47.8235 81.8114 47.8235 81.8912 47.8188 81.9288V81.9899C47.8188 82.0979 47.8188 82.2717 47.8188 82.4595C47.8188 82.6474 47.8188 82.6427 47.9175 82.6944C48.142 82.7938 48.3859 82.8419 48.6314 82.8353C48.9152 82.8443 49.1952 82.7673 49.4345 82.6145C49.7228 82.4076 49.8968 82.0769 49.9042 81.7221C49.9042 81.3182 49.7774 80.9848 49.1339 80.4775L48.9883 80.3601C48.5187 79.9562 48.3684 79.7918 48.3684 79.5241C48.3651 79.367 48.4288 79.2159 48.5434 79.1084C48.6581 79.0009 48.8129 78.9471 48.9695 78.9605C49.3969 78.9605 49.5425 79.139 49.5801 79.2141C49.6162 79.291 49.6384 79.3737 49.6459 79.4583C49.6459 79.4959 49.6459 79.5617 49.7257 79.5617C49.8055 79.5617 49.8008 79.4583 49.8008 79.402C49.8008 79.1296 49.8008 78.9652 49.8008 78.8947V78.8525C49.8008 78.8055 49.768 78.782 49.7116 78.782C49.6527 78.7798 49.5944 78.7704 49.5378 78.7538C49.3835 78.72 49.2261 78.7027 49.0682 78.7022C48.7894 78.6674 48.509 78.7531 48.2974 78.9378C48.0858 79.1226 47.9629 79.3888 47.9597 79.6697" fill="#004B35"/>
<path d="M54.225 78.829C54.225 78.829 52.8536 81.9851 52.8489 81.9992C52.8442 82.0133 51.4399 78.8243 51.4399 78.8243C51.4399 78.8243 51.3929 78.7256 51.3365 78.7256C51.2802 78.7256 51.2473 78.8102 51.2426 78.8478L50.8669 82.2388C50.8669 82.4172 50.834 82.591 50.7119 82.6145C50.6651 82.6204 50.6178 82.6204 50.571 82.6145C50.524 82.6145 50.4865 82.6427 50.4865 82.6756C50.4865 82.7084 50.4865 82.7601 50.6039 82.7601H50.8998H51.1017H51.454C51.4962 82.7601 51.5761 82.7601 51.5761 82.6756C51.5712 82.6385 51.5382 82.6117 51.5009 82.6145C51.4434 82.624 51.3847 82.624 51.3272 82.6145C51.2691 82.6008 51.2293 82.5472 51.2332 82.4877C51.2332 82.4031 51.2332 82.3092 51.2332 82.2294C51.2332 82.2294 51.4117 79.9468 51.4164 79.9468C51.4211 79.9468 52.5765 82.5346 52.5765 82.5346C52.6751 82.7319 52.6939 82.7742 52.7502 82.7742C52.8066 82.7742 52.8301 82.7319 52.9052 82.5534L54.07 79.8951L54.2908 82.4501C54.2881 82.4751 54.2881 82.5003 54.2908 82.5253C54.2908 82.5675 54.2908 82.6192 54.2908 82.6192C54.2612 82.6296 54.242 82.6583 54.2438 82.6896C54.2438 82.7554 54.3142 82.7695 54.4082 82.7742C54.596 82.7742 55.108 82.7742 55.216 82.7742C55.324 82.7742 55.3522 82.7084 55.3522 82.6896C55.3522 82.6709 55.3522 82.6286 55.2771 82.6286C55.1753 82.6302 55.0739 82.616 54.9765 82.5863C54.7933 82.5206 54.7604 82.2388 54.7463 82.0697L54.4223 78.89C54.4223 78.8196 54.4223 78.7209 54.3236 78.7209C54.225 78.7209 54.2344 78.7867 54.2203 78.8243" fill="#004B35"/>
<path d="M56.7143 79.0122C56.7143 79.0122 56.7143 79.0122 56.7425 79.0122C56.8237 79.0033 56.9056 79.0033 56.9867 79.0122C57.4564 79.0122 57.6584 79.4818 57.6584 79.8764C57.6589 80.0603 57.594 80.2384 57.4752 80.3789C57.3766 80.4916 57.3155 80.5057 57.0055 80.5057C56.9024 80.5149 56.7987 80.5149 56.6955 80.5057V79.0967L56.7143 79.0122ZM56.6486 78.8337H56.3856C56.2728 78.8337 56.038 78.8337 55.8595 78.8337C55.8314 78.8337 55.7374 78.8337 55.7374 78.9135C55.7374 78.9343 55.7459 78.9542 55.7611 78.9684C55.7762 78.9827 55.7965 78.99 55.8173 78.9887C55.8734 78.9813 55.9302 78.9813 55.9864 78.9887C56.1319 79.0169 56.1742 79.0732 56.1836 79.247C56.193 79.4208 56.1836 79.5617 56.1836 80.3789V81.3182C56.1836 81.7879 56.1836 82.2576 56.1836 82.4548C56.1836 82.6521 56.1366 82.6944 56.0615 82.7085C56.0115 82.7136 55.9612 82.7136 55.9112 82.7085C55.8548 82.7085 55.8314 82.7413 55.8314 82.7742C55.8314 82.8071 55.9206 82.8588 55.9535 82.8588C56.0662 82.8588 56.2259 82.8588 56.3433 82.8588H56.4654H56.6674H57.1652C57.5058 82.8954 57.8464 82.7895 58.1062 82.5662C58.3659 82.3429 58.5217 82.0221 58.5366 81.6799C58.5193 81.155 58.1671 80.7004 57.6631 80.5527C57.9701 80.3407 58.1473 79.9862 58.1327 79.6134C58.1327 79.3034 57.9026 78.7867 57.0431 78.7867H56.6674L56.6486 78.8337ZM56.8693 82.5159C56.7331 82.4501 56.7331 82.3985 56.7143 82.1636V80.7124C56.8442 80.7047 56.9743 80.7047 57.1042 80.7124C57.2482 80.7159 57.3889 80.7563 57.5128 80.8298C57.8234 81.0727 57.9982 81.4503 57.9824 81.8443C57.9918 82.0334 57.9214 82.2178 57.7883 82.3526C57.6553 82.4874 57.4719 82.5603 57.2826 82.5535C57.1227 82.5583 56.9634 82.5328 56.813 82.4783" fill="#004B35"/>
<path d="M59.7765 79.3221C59.439 79.7294 59.259 80.2444 59.2693 80.7733C59.2569 81.3527 59.4867 81.911 59.9033 82.3138C60.3514 82.702 60.9378 82.8919 61.5284 82.8399C61.8258 82.838 62.121 82.7872 62.402 82.6896C62.4804 82.6665 62.5365 82.5973 62.5429 82.5158C62.5842 82.292 62.614 82.0663 62.6321 81.8395C62.6321 81.7361 62.5804 81.7268 62.5569 81.7268C62.5335 81.7268 62.4865 81.7972 62.4724 81.8348C62.4517 81.9852 62.3988 82.1293 62.3174 82.2575C62.104 82.4604 61.8116 82.5584 61.519 82.5252C61.0488 82.5387 60.5961 82.3466 60.2791 81.9992C59.9647 81.6449 59.7866 81.1904 59.7765 80.717C59.7199 80.2372 59.8587 79.7548 60.1616 79.3784C60.4447 79.1043 60.8297 78.9612 61.2231 78.9839C61.5569 78.9628 61.8881 79.0556 62.1624 79.2469C62.2902 79.3799 62.3639 79.5557 62.3691 79.7401C62.3691 79.8011 62.3691 79.8857 62.4442 79.881C62.5194 79.8763 62.5194 79.7964 62.5194 79.7354V79.2046C62.5194 79.0919 62.5194 79.0262 62.5194 78.9792V78.9134C62.5194 78.8571 62.4865 78.8242 62.4207 78.8195C62.2632 78.8106 62.1063 78.7918 61.9511 78.7632C61.718 78.7277 61.4822 78.7135 61.2466 78.7209C60.6905 78.7003 60.1528 78.9212 59.7718 79.3268" fill="#004B35"/>
<path d="M69.353 80.501C69.3248 80.2145 69.2497 80.2145 69.1463 80.2239C69.043 80.2332 68.935 80.2708 68.8927 80.2708C68.877 80.2721 68.8614 80.2668 68.8498 80.2561C68.8382 80.2454 68.8316 80.2303 68.8317 80.2145C68.8317 80.1675 68.8317 80.1534 69.1088 80.083C69.2825 80.0407 69.7146 79.8857 69.7428 79.8857C69.753 79.8798 69.7655 79.8798 69.7757 79.8857V80.144C69.7757 80.4587 69.7757 80.4822 69.8227 80.4822C69.8696 80.4822 69.8649 80.4822 69.9495 80.3648C70.1501 80.0911 70.4538 79.9113 70.7902 79.8669C70.883 79.8585 70.9749 79.8911 71.0417 79.9561C71.1085 80.0211 71.1436 80.112 71.1377 80.2051C71.1404 80.3719 71.0086 80.5099 70.8418 80.515C70.7489 80.5179 70.6615 80.4714 70.6117 80.3929C70.5701 80.3372 70.5071 80.3015 70.4379 80.2943C70.2237 80.3408 70.0412 80.4802 69.9401 80.6747C69.7992 80.9284 69.7616 81.0693 69.7616 81.9428C69.7616 82.0039 69.7616 82.2951 69.7616 82.3843C69.7616 82.4736 69.7945 82.5628 69.9213 82.5863C70.0481 82.6098 70.0669 82.5863 70.1561 82.6145C70.1875 82.6149 70.2142 82.6374 70.2199 82.6682C70.2256 82.6991 70.2087 82.7296 70.1796 82.7413C70.1022 82.7573 70.0222 82.7573 69.9448 82.7413H69.4751C69.3295 82.7413 69.0571 82.7413 69.0054 82.7413C68.9538 82.7413 68.888 82.7413 68.8739 82.6708C68.8598 82.6004 68.9491 82.591 69.0101 82.591C69.0712 82.591 69.2027 82.591 69.2544 82.5158C69.306 82.3551 69.3298 82.1867 69.3248 82.018C69.3248 81.6329 69.3248 80.7687 69.3248 80.4681" fill="#004B35"/>
<path d="M72.7393 79.8904C73.3657 79.8003 73.9822 80.1084 74.2861 80.6635C74.5899 81.2186 74.5173 81.904 74.1039 82.3831C73.6905 82.8622 73.0231 83.0343 72.4295 82.8149C71.8359 82.5956 71.4409 82.0308 71.4384 81.398C71.4019 81.0236 71.5204 80.6506 71.7662 80.3658C72.0119 80.081 72.3636 79.9092 72.7393 79.8904ZM72.9742 82.7366C73.5812 82.7366 74.0121 82.1025 74.0121 81.398C74.0121 80.6935 73.6054 80.0501 72.9742 80.0501C72.3429 80.0501 71.9362 80.5996 71.9362 81.398C71.9362 82.0931 72.3247 82.7366 72.9742 82.7366Z" fill="#004B35"/>
<path d="M78.4552 83.521C78.4842 83.6611 78.608 83.7612 78.751 83.7605C78.8591 83.7605 78.8966 83.7605 78.8966 83.831C78.8966 83.9014 78.7839 83.9108 78.7041 83.9061C78.4505 83.9061 78.0982 83.9061 77.6755 83.9061C77.5816 83.9061 77.5675 83.8497 77.5722 83.8263C77.5733 83.8066 77.5826 83.7884 77.5977 83.7759C77.6129 83.7634 77.6326 83.7579 77.652 83.7605C77.7207 83.7679 77.79 83.7679 77.8587 83.7605C77.9103 83.7484 77.9525 83.7114 77.9714 83.6619C78.0258 83.2147 78.0415 82.7638 78.0184 82.3139C78.0184 82.3139 78.0184 81.2431 78.0184 80.9049C78.0184 80.3883 78.0184 80.2239 77.8164 80.2239C77.7319 80.2239 77.6332 80.2568 77.591 80.2568C77.5634 80.2546 77.5415 80.2327 77.5393 80.2051C77.5393 80.1628 77.5393 80.1488 77.6755 80.1159C77.8869 80.0736 78.3706 79.8857 78.3894 79.8857C78.4082 79.8857 78.4317 79.9374 78.4317 80.0548C78.4317 80.1722 78.4317 80.2004 78.4786 80.1816C78.5256 80.1628 78.6712 80.0736 78.6853 80.0642C78.8734 79.9529 79.0868 79.8914 79.3053 79.8857C79.9158 79.8857 80.4747 80.4212 80.4747 81.337C80.4747 82.1167 80.0379 82.8916 79.3006 82.8916C79.1047 82.8891 78.9109 82.8525 78.7276 82.7836C78.658 82.7436 78.5839 82.712 78.5068 82.6897C78.4317 82.6897 78.4364 82.6897 78.4317 83.1593C78.4317 83.2345 78.4317 83.4505 78.4317 83.5116L78.4552 83.521ZM78.5585 80.3554C78.4129 80.4963 78.4082 80.5996 78.4082 81.4544C78.4082 82.3092 78.4082 82.3374 78.5538 82.4548C78.716 82.576 78.9151 82.6374 79.1174 82.6286C79.7749 82.6286 79.9628 81.9053 79.9628 81.3887C79.9628 80.6889 79.6669 80.13 79.1268 80.13C78.917 80.1374 78.7163 80.2171 78.5585 80.3554Z" fill="#004B35"/>
<path d="M68.2353 80.764H67.8454H67.7092H67.2678C67.2396 80.764 67.155 80.764 67.155 80.8438C67.1575 80.8835 67.1904 80.9144 67.2302 80.9143C67.2692 80.9094 67.3086 80.9094 67.3476 80.9143C67.5073 80.9613 67.5355 80.9988 67.5355 81.4121V82.2904C67.5398 82.3541 67.5068 82.4145 67.4509 82.4454C67.2879 82.5154 67.1116 82.5491 66.9343 82.544C66.4673 82.5474 66.0211 82.3508 65.7085 82.0039C65.3942 81.6024 65.2283 81.1047 65.2388 80.5949C65.2103 80.1194 65.3804 79.6534 65.7085 79.308C65.985 79.0727 66.3417 78.9533 66.7042 78.9746C67.1083 78.9308 67.5097 79.0785 67.7891 79.3738C67.8419 79.4764 67.8753 79.5878 67.8877 79.7026C67.8877 79.7448 67.8877 79.8153 67.9535 79.8153C68.0192 79.8153 68.038 79.726 68.038 79.6697C68.0271 79.4538 68.0271 79.2374 68.038 79.0215C68.0399 78.9918 68.0399 78.962 68.038 78.9323C68.038 78.9323 68.038 78.8618 67.9441 78.8525C67.8175 78.8467 67.6917 78.8294 67.5683 78.8008C67.3262 78.746 67.0792 78.7161 66.831 78.7116C66.3794 78.6882 65.9317 78.8046 65.5488 79.045C65.0086 79.4533 64.7046 80.1017 64.7363 80.7781C64.7247 81.334 64.9322 81.8721 65.3139 82.2763C65.7494 82.664 66.319 82.8662 66.9014 82.8399C67.2587 82.8454 67.6119 82.7632 67.93 82.6004C68.0098 82.5534 68.0098 82.5206 68.0098 82.2904V81.7221C68.0098 81.5061 68.0098 81.3511 68.0098 81.1867C68.0098 81.0223 68.0568 80.9472 68.1554 80.9237H68.2681C68.3104 80.9237 68.3433 80.8955 68.3433 80.8579C68.3433 80.8204 68.2775 80.7781 68.2306 80.7781" fill="#004B35"/>
<path d="M77.2951 82.6333C77.2149 82.6299 77.1364 82.609 77.065 82.5722C76.9523 82.5112 76.9335 82.3703 76.9335 81.9945C76.9335 81.8208 76.9335 81.2807 76.9335 81.1257C76.9335 80.9707 76.9335 79.9797 76.9335 79.9374C76.9277 79.9099 76.905 79.8891 76.8771 79.8857C76.8771 79.8857 76.5719 79.975 76.4732 79.9938C76.0928 80.0877 76.0364 80.083 76.0364 80.1582C76.0364 80.2333 76.0364 80.2098 76.1069 80.2051H76.3088C76.5296 80.2051 76.5296 80.3883 76.5296 80.9754C76.5421 81.395 76.5154 81.8148 76.4497 82.2294C76.2838 82.4765 76.0138 82.634 75.7171 82.6568C75.4907 82.6634 75.2852 82.5257 75.2051 82.3139C75.144 82.1005 75.1233 81.8775 75.1441 81.6564C75.1441 81.4873 75.1441 79.9609 75.1441 79.9562C75.1418 79.9286 75.12 79.9067 75.0924 79.9045C75.0924 79.9045 74.7401 80.0126 74.5523 80.0595C74.3644 80.1065 74.3221 80.1206 74.3221 80.1675C74.3221 80.2145 74.3221 80.2239 74.3973 80.2145H74.557C74.6177 80.2067 74.6765 80.2389 74.7026 80.2944C74.7272 80.5786 74.7366 80.8639 74.7308 81.1491C74.7308 81.2807 74.7308 81.8865 74.7308 82.0086C74.773 82.8634 75.3977 82.9198 75.5668 82.9198C75.8291 82.9043 76.0809 82.8111 76.2901 82.6521C76.3182 82.6521 76.4356 82.5159 76.4685 82.5159C76.5014 82.5159 76.5155 82.5488 76.5202 82.6568C76.516 82.6769 76.516 82.6977 76.5202 82.7178C76.521 82.7443 76.5335 82.7691 76.5544 82.7854C76.5753 82.8018 76.6023 82.808 76.6282 82.8024C76.7221 82.8024 76.8255 82.8024 76.91 82.8024H77.281C77.3656 82.8024 77.3938 82.7601 77.3985 82.7272C77.4032 82.6944 77.3985 82.6615 77.2904 82.6521" fill="#004B35"/>
<path d="M65.638 73.1131C65.638 73.1131 64.2713 76.2693 64.2619 76.2834L62.8529 73.1085C62.8529 73.0615 62.8059 73.0098 62.7448 73.0098C62.6838 73.0098 62.6603 73.0944 62.6556 73.1366L62.308 76.5276C62.308 76.7061 62.2752 76.8752 62.1484 76.9034C62.1032 76.9094 62.0574 76.9094 62.0122 76.9034C61.9652 76.9034 61.9276 76.9315 61.9276 76.9644C61.9276 76.9973 61.9276 77.049 62.045 77.049H62.3409H62.5429H62.8951C62.9374 77.049 63.0172 77.049 63.0172 76.9644C63.0172 76.8799 62.9844 76.9034 62.9374 76.9034C62.8813 76.9104 62.8245 76.9104 62.7683 76.9034C62.7102 76.8897 62.6705 76.8361 62.6744 76.7766C62.6744 76.692 62.6744 76.5981 62.6744 76.5182L62.8529 74.2357L64.0176 76.8235C64.1116 77.0208 64.135 77.0631 64.1914 77.0631C64.2478 77.0631 64.2713 77.0208 64.3464 76.8423L65.4971 74.1793L65.7178 76.7249C65.7153 76.753 65.7153 76.7813 65.7178 76.8094C65.7178 76.847 65.7178 76.8987 65.7178 76.8987C65.6892 76.9103 65.6705 76.9382 65.6709 76.9691C65.6709 77.0349 65.7413 77.049 65.8352 77.0584C66.0231 77.0584 66.535 77.0584 66.6431 77.0584C66.7511 77.0584 66.7793 76.9973 66.7793 76.9738C66.7793 76.9503 66.7793 76.9128 66.7041 76.9128C66.6023 76.9144 66.5009 76.9002 66.4035 76.8705C66.2204 76.8047 66.1875 76.5229 66.1734 76.3539L65.8493 73.1789C65.8493 73.1038 65.8493 73.0051 65.7507 73.0051C65.6521 73.0051 65.6615 73.0709 65.6474 73.1085" fill="#004B35"/>
<path d="M68.1554 73.315C68.1554 73.315 68.1554 73.315 68.1836 73.2915C68.2663 73.2825 68.3498 73.2825 68.4325 73.2915C68.9022 73.2915 69.0994 73.7612 69.0994 74.151C69.1008 74.3351 69.0357 74.5135 68.9162 74.6536C68.8176 74.7663 68.7566 74.7757 68.4466 74.7757C68.345 74.7835 68.2429 74.7835 68.1413 74.7757V73.3667L68.1554 73.315ZM68.0943 73.1037H67.8454H67.3194C67.2912 73.1037 67.1973 73.1037 67.1973 73.1788C67.1972 73.1996 67.2058 73.2194 67.2209 73.2337C67.236 73.2479 67.2564 73.2553 67.2771 73.254H67.4462C67.5918 73.2868 67.6294 73.3432 67.6434 73.517C67.6575 73.6907 67.6434 73.8316 67.6434 74.6442V75.5835C67.6434 76.0532 67.6434 76.4947 67.6153 76.7107C67.5871 76.9268 67.5683 76.9502 67.4979 76.9643C67.4479 76.9694 67.3975 76.9694 67.3476 76.9643C67.2912 76.9643 67.2677 76.9972 67.2677 77.0301C67.2677 77.063 67.357 77.1146 67.3851 77.1146H67.7796H67.8971H68.1037C68.2775 77.1146 68.517 77.1146 68.5734 77.1146C68.914 77.1513 69.2546 77.0454 69.5143 76.8221C69.7741 76.5988 69.9299 76.278 69.9448 75.9358C69.9255 75.4126 69.5736 74.9605 69.0712 74.8133C69.379 74.6018 69.5564 74.247 69.5409 73.8739C69.5409 73.5686 69.3108 73.052 68.4513 73.052L68.0943 73.1037ZM68.301 76.8234C68.1601 76.7577 68.1601 76.7107 68.146 76.4712V76.4477C68.146 76.3726 68.146 75.715 68.146 75.3205V75.0246C68.362 75.0246 68.4935 75.0246 68.5405 75.0246C68.6903 75.0349 68.8347 75.0852 68.9585 75.1702C69.2679 75.4141 69.4424 75.791 69.4282 76.1847C69.4376 76.3734 69.3671 76.5574 69.2339 76.6915C69.1007 76.8256 68.9172 76.8973 68.7284 76.8892C68.5851 76.8761 68.4452 76.8379 68.3151 76.7765L68.301 76.8234Z" fill="#004B35"/>
<path d="M57.5127 73.1131C57.5127 73.1131 56.1459 76.2692 56.1413 76.2833C56.1366 76.2974 54.7322 73.1084 54.7322 73.1084C54.7322 73.1084 54.6853 73.0098 54.6242 73.0098C54.5632 73.0098 54.5397 73.0943 54.535 73.1366L54.1874 76.5276C54.1874 76.706 54.1546 76.8751 54.0278 76.9033C53.9826 76.9094 53.9367 76.9094 53.8915 76.9033C53.8446 76.9033 53.807 76.9315 53.807 76.9644C53.807 76.9972 53.807 77.0489 53.9244 77.0489H54.2203H54.4223H54.7745C54.8168 77.0489 54.8966 77.0489 54.8966 76.9644C54.8918 76.9273 54.8588 76.9005 54.8215 76.9033C54.7638 76.9107 54.7054 76.9107 54.6477 76.9033C54.5888 76.8899 54.5476 76.8369 54.5491 76.7765C54.5443 76.6905 54.5443 76.6042 54.5491 76.5182L54.7276 74.2356L55.8923 76.8235C55.991 77.0207 56.0097 77.063 56.0661 77.063C56.1225 77.063 56.1459 77.0207 56.2211 76.8422L57.3812 74.1886L57.6019 76.7342C57.6019 76.7671 57.6019 76.7906 57.6019 76.8188C57.6019 76.8469 57.6019 76.908 57.6019 76.908C57.5733 76.9196 57.5546 76.9475 57.555 76.9784C57.555 77.0442 57.6301 77.0583 57.724 77.0677C57.9072 77.0677 58.4238 77.0677 58.5272 77.0677C58.6305 77.0677 58.6634 77.0066 58.6634 76.9831C58.6634 76.9597 58.6634 76.9221 58.5882 76.9221C58.4864 76.9235 58.3851 76.9093 58.2876 76.8798C58.1045 76.8141 58.0716 76.5323 58.0575 76.3632L57.7334 73.1882C57.7334 73.1131 57.7334 73.0145 57.6348 73.0145C57.5362 73.0145 57.5456 73.0802 57.5315 73.1178" fill="#004B35"/>
<path d="M51.6888 76.9457C51.6234 76.9444 51.5584 76.9333 51.4963 76.9128C51.3788 76.8799 51.2426 76.7907 51.0689 76.3586C50.8481 75.7997 50.3737 74.5644 50.0919 73.8271C49.9698 73.5218 49.89 73.3057 49.8665 73.2494C49.8055 73.0897 49.7773 73.0427 49.7256 73.0427C49.6739 73.0427 49.6458 73.0897 49.58 73.2635L48.4105 76.4713C48.3119 76.7437 48.2133 76.9034 48.0019 76.941H47.8563C47.8094 76.941 47.7765 76.941 47.7765 77.002C47.7765 77.0631 47.8704 77.0772 47.908 77.0772C48.0724 77.0772 48.2509 77.0772 48.3777 77.0772H48.6266H48.899C48.9882 77.0772 49.007 77.0349 49.007 77.002C49.007 76.9691 49.007 76.941 48.9225 76.941H48.8708C48.8098 76.941 48.7064 76.9081 48.7064 76.8189C48.7127 76.7047 48.7365 76.5923 48.7769 76.4854L49.0587 75.6165H50.2328L50.7025 76.847C50.7118 76.8728 50.7118 76.9011 50.7025 76.9269C50.6855 76.9268 50.6692 76.9339 50.6576 76.9464C50.646 76.9589 50.6401 76.9756 50.6415 76.9926C50.6415 77.049 50.7025 77.0537 50.8011 77.0584H50.8293C51.0595 77.0584 51.346 77.0584 51.6372 77.0584C51.7499 77.0584 51.7734 77.0161 51.7734 76.9832C51.7734 76.9504 51.7499 76.9457 51.6888 76.9457ZM49.1573 75.3488L49.627 73.9398C49.6265 73.932 49.6265 73.9241 49.627 73.9163C49.6295 73.9239 49.6295 73.9322 49.627 73.9398L50.1389 75.3488H49.1573Z" fill="#004B35"/>
<path d="M72.9225 76.3163C72.8614 76.3163 72.852 76.382 72.8473 76.4196C72.8097 76.6215 72.7534 76.7202 72.636 76.7718C72.4829 76.8128 72.3246 76.8302 72.1663 76.8235C71.6637 76.8235 71.6168 76.7577 71.6027 76.4337C71.6027 76.3538 71.6027 76.0204 71.6027 75.7761V75.0904C71.6919 75.0904 72.2039 75.0904 72.3401 75.1186C72.4763 75.1468 72.5608 75.2031 72.5843 75.2736C72.5928 75.3281 72.5928 75.3835 72.5843 75.438C72.5843 75.4849 72.5843 75.5178 72.65 75.5178C72.7158 75.5178 72.7205 75.4286 72.7205 75.3863C72.7205 75.344 72.7205 75.1609 72.7205 75.0575C72.7269 74.9818 72.7379 74.9065 72.7534 74.8321C72.7534 74.7992 72.7534 74.7804 72.7534 74.7663C72.7534 74.7523 72.7064 74.6912 72.6923 74.6912C72.6782 74.6912 72.636 74.7194 72.5984 74.757C72.5608 74.7992 72.4998 74.8086 72.3729 74.818H71.5604V73.3526H72.2602C72.5467 73.3526 72.5749 73.4419 72.6031 73.5076C72.6224 73.5635 72.632 73.6223 72.6313 73.6814C72.6313 73.766 72.6782 73.78 72.7064 73.78C72.7346 73.78 72.7628 73.7519 72.7722 73.6955C72.7764 73.6157 72.7764 73.5358 72.7722 73.456C72.7739 73.4216 72.7739 73.3871 72.7722 73.3526C72.7722 73.2728 72.7722 73.2164 72.805 73.1742C72.8067 73.1523 72.8067 73.1303 72.805 73.1084C72.805 73.038 72.7675 73.0286 72.7534 73.0286C72.7366 73.0232 72.7185 73.0232 72.7017 73.0286H72.6735C72.6032 73.035 72.5325 73.035 72.4622 73.0286C72.3401 73.0286 71.4571 73.0286 71.1847 73.0286H70.715C70.6821 73.0286 70.6023 73.0286 70.6023 73.1037C70.6035 73.1212 70.6116 73.1374 70.6248 73.1489C70.6381 73.1604 70.6553 73.1661 70.6727 73.1648C70.729 73.1597 70.7856 73.1597 70.8418 73.1648C70.9827 73.1977 71.0297 73.254 71.0344 73.4325C71.0391 73.611 71.0344 73.7378 71.0344 74.5456V75.4521C71.0344 75.9217 71.0344 76.3538 71.0109 76.5652C70.9874 76.7765 70.9592 76.8094 70.8841 76.8235C70.8341 76.8289 70.7837 76.8289 70.7338 76.8235C70.6821 76.8235 70.6633 76.8517 70.6633 76.8845C70.6633 76.9174 70.7479 76.955 70.7761 76.955H71.2833H71.6872H71.7953H72.5561C72.7581 76.955 72.8238 76.955 72.8661 76.8C72.8993 76.6324 72.9228 76.4631 72.9365 76.2928C73.0117 76.3867 73.0117 76.3163 72.9225 76.3163Z" fill="#004B35"/>
<path d="M61.3358 76.3022C61.2795 76.3022 61.2701 76.3632 61.2607 76.4055C61.2231 76.6075 61.1667 76.7014 61.0493 76.7578C60.8963 76.799 60.7379 76.8164 60.5797 76.8094C60.0724 76.8094 60.0254 76.7437 60.0114 76.4149C60.0114 76.3397 60.0114 76.0063 60.0114 75.7621V75.0763C60.0959 75.0763 60.6078 75.0763 60.7487 75.0763C60.8896 75.0763 60.9648 75.1656 60.9883 75.236C60.9967 75.2905 60.9967 75.3459 60.9883 75.4004C60.9853 75.4203 60.9916 75.4404 61.0053 75.455C61.0191 75.4696 61.0387 75.4772 61.0587 75.4756C61.1245 75.4756 61.1245 75.391 61.1245 75.3441C61.1245 75.2971 61.1245 75.128 61.1245 75.02C61.1313 74.9443 61.1422 74.869 61.1573 74.7945C61.1573 74.7617 61.1573 74.7429 61.1573 74.7288C61.1573 74.7147 61.1104 74.6536 61.101 74.6536C61.0916 74.6536 61.0399 74.6818 61.007 74.7194C60.9695 74.7617 60.9084 74.7711 60.7863 74.7805C60.6642 74.7898 60.3166 74.7805 59.9691 74.7805V73.3621C60.0395 73.3621 60.5843 73.3621 60.6736 73.3621C60.9554 73.3621 60.9836 73.4513 61.0117 73.517C61.0315 73.5728 61.041 73.6317 61.0399 73.6908C61.0399 73.7754 61.0869 73.7895 61.1151 73.7895C61.1433 73.7895 61.1714 73.7613 61.1808 73.7049C61.1851 73.6267 61.1851 73.5483 61.1808 73.4701C61.1772 73.4342 61.1772 73.398 61.1808 73.3621C61.1863 73.3036 61.1958 73.2455 61.209 73.1883C61.2122 73.1649 61.2122 73.1412 61.209 73.1178C61.209 73.0474 61.1714 73.038 61.1526 73.038C61.1357 73.0334 61.1179 73.0334 61.101 73.038H61.0728C61.0009 73.0444 60.9286 73.0444 60.8568 73.038H59.6544H59.1847C59.1566 73.038 59.072 73.038 59.072 73.1131C59.0732 73.1306 59.0813 73.1469 59.0946 73.1583C59.1078 73.1698 59.125 73.1755 59.1425 73.1742C59.1987 73.1691 59.2553 73.1691 59.3116 73.1742C59.4571 73.2071 59.4994 73.2634 59.5088 73.4372C59.5182 73.611 59.5088 73.7472 59.5088 74.5503V75.4568C59.5088 75.9264 59.5088 76.3632 59.5088 76.5746C59.5088 76.7859 59.4618 76.8141 59.382 76.8329C59.3336 76.8384 59.2848 76.8384 59.2364 76.8329C59.2182 76.8302 59.1997 76.8353 59.1854 76.8469C59.1711 76.8585 59.1624 76.8756 59.1613 76.894C59.1613 76.9691 59.2458 76.9691 59.2787 76.9691H59.7812H60.1851H60.2932H61.054C61.256 76.9691 61.3217 76.9691 61.364 76.8141C61.4063 76.6591 61.4344 76.3444 61.4344 76.3069C61.4344 76.2693 61.4016 76.3022 61.3358 76.3022Z" fill="#004B35"/>
<path d="M84.434 76.6028C84.434 76.7625 84.387 76.847 84.3119 76.8611H84.1663C84.1481 76.8585 84.1296 76.8635 84.1153 76.8751C84.101 76.8867 84.0923 76.9038 84.0911 76.9222C84.0911 76.9973 84.1757 76.9973 84.2039 76.9973H84.6219H84.7534C84.8661 76.9973 85.1103 76.9973 85.3264 76.9973C85.425 76.9973 85.4438 76.9504 85.4438 76.9222C85.4427 76.9038 85.4339 76.8867 85.4196 76.8751C85.4053 76.8635 85.3869 76.8585 85.3686 76.8611H85.1385C85.0164 76.8611 84.9835 76.7578 84.9647 76.6028C84.9459 76.4478 84.9412 75.9734 84.9412 75.4897C84.9412 75.4897 84.9412 75.0764 84.9412 75.02C85.1338 75.02 85.6035 75.02 85.7162 75.02C85.821 75.0241 85.9142 75.0881 85.9557 75.1844C85.9707 75.2367 85.9817 75.2901 85.9886 75.3441C85.9886 75.3911 85.9886 75.4239 86.0544 75.4239C86.1201 75.4239 86.1248 75.3394 86.1248 75.2924C86.1248 75.2455 86.1248 75.0482 86.1248 74.9496C86.1312 74.8738 86.1422 74.7985 86.1577 74.7241C86.1577 74.6913 86.1577 74.6725 86.1577 74.6584C86.1577 74.6443 86.1201 74.5832 86.0966 74.5832C86.0732 74.5832 86.045 74.6114 86.0262 74.6349C85.9886 74.6913 85.9322 74.7006 85.8101 74.7147H84.9178V73.2729C84.9178 73.2447 84.9178 73.2447 84.9178 73.2447H85.7115C85.838 73.2369 85.9598 73.2934 86.0356 73.395C86.0601 73.4531 86.0744 73.5151 86.0778 73.5781C86.0778 73.6627 86.1295 73.6721 86.1436 73.6721C86.1577 73.6721 86.2047 73.6721 86.2187 73.5875C86.2328 73.503 86.2187 73.4372 86.2187 73.3527C86.2205 73.3167 86.2205 73.2807 86.2187 73.2447C86.2263 73.1846 86.2372 73.125 86.2516 73.0662C86.2533 73.0443 86.2533 73.0223 86.2516 73.0004C86.2516 72.9488 86.2234 72.9206 86.1906 72.9206C86.1736 72.9168 86.1559 72.9168 86.1389 72.9206H86.106C86.053 72.9271 85.9994 72.9271 85.9463 72.9206H85.89C85.796 72.9206 85.115 72.9206 84.7863 72.9206H84.0395C84.0066 72.9206 83.9268 72.9206 83.9268 72.9911C83.9267 73.0093 83.9343 73.0268 83.9476 73.0393C83.961 73.0518 83.979 73.0581 83.9972 73.0568C84.0535 73.052 84.11 73.052 84.1663 73.0568C84.3119 73.0897 84.3495 73.1413 84.3636 73.3245C84.3776 73.5077 84.3636 73.6298 84.3636 74.4329V75.3441C84.4622 75.9922 84.4622 76.4102 84.434 76.6028Z" fill="#004B35"/>
<path d="M77.126 76.894C77.0604 76.9006 76.9943 76.9006 76.9287 76.894C76.6997 76.8544 76.4955 76.7262 76.3604 76.5371C76.1303 76.2552 75.5056 75.2408 75.5056 75.2408C75.9079 74.9788 76.1405 74.5226 76.1162 74.0431C76.1093 73.7565 75.975 73.4879 75.7499 73.3104C75.4595 73.1337 75.1214 73.0517 74.7824 73.0756H74.3456H74.1013C73.9933 73.0756 73.7632 73.0756 73.5847 73.0756C73.5565 73.0756 73.4673 73.0756 73.4673 73.1554C73.4684 73.1751 73.4777 73.1933 73.4928 73.2058C73.508 73.2183 73.5277 73.2238 73.5471 73.2212C73.6018 73.2164 73.6568 73.2164 73.7115 73.2212C73.8524 73.2494 73.8947 73.3057 73.9088 73.4795C73.9229 73.6533 73.9088 73.7942 73.9088 74.5973V75.5085C73.9088 75.9781 73.9088 76.4102 73.8853 76.6263C73.8618 76.8423 73.8383 76.8611 73.7585 76.8752C73.7109 76.8881 73.6621 76.896 73.6129 76.8987C73.5565 76.8987 73.5377 76.9316 73.5377 76.9644C73.5377 76.9973 73.6223 77.0443 73.6552 77.0443C73.7867 77.0443 74.0356 77.0443 74.1248 77.0443H74.2047C74.3221 77.0443 74.5616 77.0443 74.7824 77.0443C74.8904 77.0443 74.8998 76.9879 74.8998 76.9644C74.9 76.9453 74.8918 76.9269 74.8773 76.9143C74.8629 76.9016 74.8436 76.896 74.8246 76.8987C74.7474 76.8965 74.6705 76.8886 74.5945 76.8752C74.4677 76.8752 74.4395 76.7766 74.4254 76.6263C74.4113 76.476 74.3972 75.9922 74.3972 75.5085V75.377H75.036C75.036 75.377 75.0595 75.377 75.0735 75.377C75.0876 75.377 75.5855 76.2271 75.5855 76.2271C75.7215 76.4951 75.9157 76.7293 76.1538 76.9128C76.3078 76.9997 76.4853 77.0359 76.661 77.0161H77.0274C77.0931 77.0161 77.1871 77.0161 77.1964 76.9363C77.2058 76.8564 77.1636 76.8705 77.1213 76.8705L77.126 76.894ZM74.3972 73.3292C74.3922 73.3205 74.3922 73.3098 74.3972 73.301C74.5064 73.2753 74.6186 73.2643 74.7307 73.2682C75.2708 73.2682 75.5902 73.6439 75.5902 74.2686C75.6174 74.557 75.5058 74.8412 75.2896 75.0341C75.18 75.1022 75.0521 75.135 74.9233 75.128C74.7444 75.1351 74.5659 75.108 74.3972 75.0482C74.3922 75.0378 74.3922 75.0257 74.3972 75.0153V73.3292Z" fill="#004B35"/>
<path d="M81.3249 72.9582C80.7746 72.9466 80.2432 73.1592 79.8526 73.5471C79.4621 73.935 79.2459 74.4649 79.2537 75.0153C79.2255 75.5674 79.4309 76.1059 79.8196 76.499C80.2082 76.8921 80.7443 77.1037 81.2967 77.0818C81.8663 77.0941 82.4154 76.8697 82.8133 76.462C83.2112 76.0543 83.4223 75.4999 83.3961 74.9308C83.4134 74.3864 83.1982 73.8604 82.8043 73.4842C82.3941 73.1303 81.8664 72.9427 81.3249 72.9582ZM81.292 73.2071C82.0294 73.2071 82.8278 73.7895 82.8278 75.0858C82.8278 76.739 81.6677 76.8235 81.4188 76.8235C80.4795 76.8235 79.8032 76.0204 79.8032 74.8791C79.8173 73.8411 80.3809 73.2071 81.292 73.2071Z" fill="#004B35"/>
</svg>
