<svg width="108" height="108" viewBox="0 0 108 108" fill="none" xmlns="http://www.w3.org/2000/svg">
<path d="M91.7177 33.4793C92.2083 33.9045 92.5299 34.5259 92.5299 35.2127C92.5299 35.8068 92.2955 36.3737 91.9085 36.7662L85.5146 43.1818L63.7821 21.4112H63.9729C63.6731 21.2095 63.3842 20.9696 63.0844 20.7189C57.192 14.9683 51.8938 16.5654 51.2016 16.6689C55.5404 14.7284 67.5323 9.82812 79.982 21.6619L79.9439 21.6728L91.7122 33.4793H91.7177Z" fill="#0066B1"/>
<path d="M46.2958 18.4241C47.5168 18.0915 48.7977 17.9117 50.1114 17.9117C53.3928 17.9117 56.418 19.0236 58.8436 20.8933L58.9854 21.0023C59.8357 21.6837 60.6152 22.4522 61.2965 23.3189L83.4052 45.4003L74.6184 54.1816C74.5584 54.2688 74.4767 54.356 74.3895 54.4105C74.0079 54.743 73.5282 54.9393 72.994 54.9393C72.3563 54.9393 71.7785 54.6558 71.386 54.2197L66.6384 49.4612L54.592 37.4257C54.4448 37.2404 54.2213 37.1259 53.9651 37.1259C53.7089 37.1259 53.4691 37.2567 53.3219 37.4366L35.4868 55.2718C35.4868 55.2718 35.4486 55.3154 35.4377 55.3535C35.3069 55.4843 35.2251 55.6751 35.2251 55.8713C35.2251 56.1003 35.3232 56.3183 35.4813 56.4546L53.3764 74.3606C53.5236 74.5078 53.7417 74.6168 53.9651 74.6168C54.1886 74.6168 54.4121 74.5078 54.5647 74.3443L72.3672 56.5364C72.7597 56.0948 73.3265 55.8059 73.9697 55.8059C74.1224 55.8059 74.3022 55.7623 74.4603 55.8059H90.4422C90.5676 55.7787 90.6984 55.8059 90.8183 55.8059C91.6577 55.8059 92.3282 56.4818 92.3282 57.3104C91.5596 77.702 74.7765 94 54.1777 94C33.579 94 16 76.8953 16 55.8005C16 37.4202 29.0057 22.0598 46.2958 18.4241Z" fill="#0066B1"/>
</svg>
