<svg width="108" height="108" viewBox="0 0 108 108" fill="none" xmlns="http://www.w3.org/2000/svg">
<path d="M24.5293 52.8975L20.9314 49.2996C20.1843 48.5524 19.2877 48.5984 18.9773 48.6559C16.1495 49.1272 14 51.5756 14 54.5413C14 57.8403 16.6668 60.5071 19.9544 60.5071C23.1614 60.5071 25.7823 57.9438 25.8972 54.7597C25.8972 54.7252 25.8857 54.6102 25.8053 54.5643C25.7133 54.5068 25.5179 54.5298 25.5179 54.5298H23.2189C23.2189 54.5298 23.0005 54.5298 22.9316 54.5643C22.8856 54.5872 22.8281 54.6332 22.8281 54.6332L20.0233 57.4265C19.9774 57.4725 19.9084 57.4725 19.8624 57.4265L17.0347 54.5987C16.9887 54.5528 16.9887 54.4838 17.0347 54.4378L19.8624 51.6101C19.9084 51.5641 19.9774 51.5641 20.0233 51.6101L22.6097 54.2079C22.6097 54.2079 22.7476 54.3344 22.8741 54.3573C22.989 54.3918 23.1614 54.2654 23.1614 54.2654L24.5293 52.8975Z" fill="#2D64AA"/>
<path fill-rule="evenodd" clip-rule="evenodd" d="M25.8398 51.0468L23.9086 49.1272C21.7591 47.0466 19.2762 48.4834 19.2762 48.4834C19.2762 48.4834 20.3337 47.9202 21.6786 49.3456L24.8627 52.5526L25.8053 51.6215C25.8053 51.6215 25.9202 51.4836 25.9432 51.3457C25.9662 51.2192 25.8398 51.0468 25.8398 51.0468Z" fill="#2D64AA"/>
<path fill-rule="evenodd" clip-rule="evenodd" d="M33.5643 53.9205H35.3805V50.8169H33.5643V53.9205ZM36.553 50.8054V54.4608H33.5758V55.139H32.3919V54.4608H29.4147V50.8054C29.4147 50.518 29.6446 50.2766 29.9434 50.2766H32.3919V49.7019H33.5529V50.2766H36.0243C36.3231 50.2766 36.553 50.518 36.553 50.8054ZM30.5872 53.9205H32.3919V50.8169H30.5872V53.9205Z" fill="#221F20"/>
<path d="M44.1857 53.6791H42.6453V52.4032H44.0937V51.8629H42.6453V51.1733H44.1857V50.6445H39.944V51.1733H41.4499V51.8629H40.036V52.4032H41.4499V53.6791H39.944V54.2079H44.1857V53.6791ZM45.0938 49.6559H39.0359C38.7486 49.6559 38.5187 49.8858 38.5187 50.1847V55.1275H45.611V50.1732C45.611 49.8858 45.3811 49.6559 45.0938 49.6559ZM39.6911 50.1732H44.4385V54.6217H39.6911V50.1732ZM43.6684 52.5986H42.8522L43.1511 53.1389C43.1511 53.1389 43.2431 53.3458 43.4155 53.4377C43.5649 53.5182 43.7948 53.4952 43.7948 53.4952H44.1627V53.0009H43.8983L43.6684 52.5986Z" fill="#221F20"/>
<path d="M54.8874 50.8514H54.4621V50.4491C54.4621 50.1502 54.2207 49.9088 53.9218 49.9088H52.462V49.5984H51.3585V49.9088H49.8986V50.4606H51.3585V50.8629H49.7147V51.4146H51.3585V51.794H49.8986V52.3457H51.3585V52.7481H49.7722V53.2998H51.3585V53.6791H49.6342V54.2424H51.3585V54.6332H50.2205C49.7722 54.6332 49.3699 54.5068 49.0135 54.2769C49.2319 53.955 49.3699 53.5642 49.3699 53.1389L49.3814 51.656H48.7032C49.2894 51.2767 49.5883 50.5985 49.5883 49.8513C49.5883 49.8398 47.3468 49.8513 47.3468 49.8513L47.3353 50.4146H48.6342C48.5307 51.0468 48.0479 51.5411 47.4272 51.6675V52.2193H48.5652V53.0239C48.5652 53.2653 48.4962 53.4837 48.3928 53.6906C48.2204 53.4377 48.0824 53.1504 48.025 52.8285L47.4157 52.84C47.4617 53.3458 47.6571 53.8056 47.956 54.1849C47.7721 54.3114 47.5652 54.3918 47.3353 54.4148V55.162C47.7951 55.162 48.2204 55.0011 48.5652 54.7482C48.9905 55.0355 49.4963 55.1965 50.0481 55.1965H54.807V54.6332H52.4505V54.2424H54.4621V53.6791H52.4505V53.2998H54.4621V52.7481H52.4505V52.3457H54.4736V51.4146H54.8874V50.8514ZM52.462 51.4146H53.3126V51.794H52.462V51.4146ZM52.462 50.4606H53.3126V50.8629H52.462V50.4606Z" fill="#221F20"/>
<path d="M77.7393 49.7594H82.2683V50.3226H77.7393V49.7594Z" fill="#221F20"/>
<path d="M76.7967 52.0813V55.1965H75.6932V52.932C75.4863 53.0584 75.2679 53.1619 75.0495 53.2653L74.5897 52.5411C75.5898 52.0584 76.5438 51.2422 76.9921 50.3571L77.6704 50.9434C77.4175 51.3457 77.1186 51.748 76.7967 52.0813Z" fill="#221F20"/>
<path d="M80.6245 55.1965C81.1648 55.1965 81.5901 54.7597 81.5901 54.2194V52.0469H82.4407V51.4836H77.4634V52.0469H80.3946V54.3229C80.3946 54.4953 80.2452 54.6447 80.0728 54.6447H78.7739V55.208L80.6245 55.1965Z" fill="#221F20"/>
<path d="M76.7278 49.9203C76.291 50.7824 75.6013 51.4951 74.7736 51.9664L74.3483 51.2192C75.061 50.7364 75.6357 50.1962 76.0955 49.3456L76.7278 49.9203Z" fill="#221F20"/>
<path fill-rule="evenodd" clip-rule="evenodd" d="M58.9911 53.1044C58.9911 53.1044 58.5313 53.5527 58.037 53.8975V51.0238L56.0254 51.0353V51.5871H56.9105V54.4148C56.6002 54.5183 56.3473 54.5757 56.3473 54.5757L56.9105 55.2769C56.9105 55.2769 57.4623 55.139 58.06 54.8401C58.6233 54.5528 59.0026 54.1734 59.0026 54.1734L58.9911 53.1044ZM60.6579 50.8744V50.1962H62.2327V50.8859C62.2442 51.1388 62.1637 51.7825 63.2557 51.7825H63.9454V51.2652H63.7615C63.3247 51.2882 63.3592 51.1043 63.3592 50.9778V50.1617C63.3592 49.8743 63.1293 49.6444 62.8304 49.6444H59.5314V50.9778C59.5314 51.0813 59.5658 51.2882 59.129 51.2652L58.9336 51.2537V51.7825H59.6003C60.7728 51.84 60.6464 51.1273 60.6579 50.8744ZM62.566 54.001C63.0833 53.6447 63.5431 53.2193 63.9339 52.7251V52.0239H58.8991V52.6561H62.6695C62.3246 53.0009 61.9338 53.3113 61.5085 53.5642C61.1062 53.3573 60.7268 53.1274 60.3705 52.84H59.0141C59.4394 53.2998 59.9337 53.7021 60.4739 54.047C59.9682 54.2194 59.4164 54.3229 58.8532 54.3458V55.162C59.8072 55.162 60.7153 54.9551 61.5315 54.5872C62.3706 54.9436 63.2787 55.139 64.2443 55.1505V54.3229C63.6465 54.2769 63.0948 54.1734 62.566 54.001ZM56.4047 50.3686H58.6348V49.7709H56.4047V50.3686Z" fill="#221F20"/>
<path fill-rule="evenodd" clip-rule="evenodd" d="M71.0263 54.0815C70.8194 54.2424 70.3366 54.3688 70.1412 54.3803V52.3802H73.0264V50.1502C73.0264 49.8513 72.785 49.6099 72.4976 49.6099H69.0951V54.4263H68.8767V55.185H69.417C69.9573 55.185 70.532 55.0815 71.0263 54.8861V54.0815ZM72.3367 54.07C72.7275 53.6906 73.0494 53.2308 73.2678 52.7251H72.4517C72.2792 53.0469 72.0608 53.3343 71.785 53.5872C71.762 53.5642 71.67 53.4377 71.647 53.4148C71.4976 53.2193 71.3941 53.0124 71.3137 52.7366H70.4745C70.5665 53.0239 70.7389 53.4377 70.8654 53.6561C71.4631 54.6217 72.3712 55.185 73.3023 55.1965V54.4148C72.9804 54.4148 72.6356 54.2769 72.3367 54.07ZM70.1297 51.84H71.9689V51.2882H70.1297V51.84ZM70.1297 50.7364H71.9689V50.1732H70.1297V50.7364Z" fill="#221F20"/>
<path d="M67.4629 54.2654V52.9665H68.7388V52.4147H67.4629V51.794H68.6353V51.2422H66.4973C66.6467 51.0813 66.7962 50.8859 66.9226 50.702L68.7273 50.6905V50.1617H67.2675C67.3594 49.9893 67.4514 49.8169 67.5203 49.6329L66.7042 49.3456C66.4053 50.1732 65.7961 50.8974 65.1409 51.2997L65.6812 51.9434C65.7616 51.8859 65.8421 51.84 65.9225 51.7825H66.5318V52.4147H65.7271V52.9665H66.5433V54.5183C66.3594 54.5528 66.1754 54.5642 65.9915 54.5757L66.5318 55.2539C67.3479 55.1735 68.1066 54.8746 68.7273 54.4033V53.4952C68.348 53.8171 67.9227 54.0815 67.4629 54.2654Z" fill="#221F20"/>
<path d="M32.413 57.237H31.9987C31.9648 57.0285 31.871 56.8604 31.7172 56.7327C31.5479 56.592 31.3238 56.5217 31.0449 56.5217C30.7062 56.5217 30.4443 56.6168 30.2592 56.807C30.0638 57.0051 29.9661 57.2904 29.9661 57.663C29.9661 57.9601 30.0456 58.2051 30.2045 58.3979C30.3921 58.622 30.6645 58.7341 31.0215 58.7341C31.5609 58.7341 31.8866 58.4748 31.9987 57.9562H32.413C32.3791 58.2767 32.2384 58.5438 31.9909 58.7575C31.7277 58.9816 31.4032 59.0937 31.0176 59.0937C30.6162 59.0937 30.284 58.9842 30.0208 58.7653C29.7081 58.5048 29.5517 58.123 29.5517 57.62C29.5517 57.1953 29.6768 56.85 29.927 56.5842C30.1902 56.3028 30.5524 56.162 31.0136 56.162C31.355 56.162 31.6495 56.2363 31.8971 56.3848C32.2098 56.5751 32.3818 56.8591 32.413 57.237Z" fill="black"/>
<path d="M32.5945 59.0233V56.2089H32.9854V57.2839H32.9932C33.1548 57.0311 33.4219 56.9047 33.7945 56.9047C34.0551 56.9047 34.2597 56.9608 34.4082 57.0728C34.5724 57.1979 34.6545 57.3829 34.6545 57.6279V59.0233H34.2636V57.706C34.2636 57.3907 34.0616 57.2331 33.6577 57.2331C33.4701 57.2331 33.3137 57.2839 33.1887 57.3855C33.0532 57.4976 32.9854 57.65 32.9854 57.8429V59.0233H32.5945Z" fill="black"/>
<path d="M34.8985 59.0233V56.9751H35.2893V59.0233H34.8985ZM34.8985 56.6389V56.2089H35.2893V56.6389H34.8985Z" fill="black"/>
<path d="M35.5304 59.0233V56.9751H35.9213V57.2839H35.9291C36.0907 57.0311 36.3578 56.9047 36.7305 56.9047C36.9911 56.9047 37.1956 56.9608 37.3442 57.0728C37.5083 57.1979 37.5904 57.3829 37.5904 57.6279V59.0233H37.1995V57.706C37.1995 57.3907 36.9976 57.2331 36.5937 57.2331C36.406 57.2331 36.2497 57.2839 36.1246 57.3855C35.9891 57.4976 35.9213 57.65 35.9213 57.8429V59.0233H35.5304Z" fill="black"/>
<path d="M38.1979 57.6161H37.8305C37.8774 57.1419 38.2162 56.9047 38.8468 56.9047C39.1048 56.9047 39.3145 56.9425 39.4761 57.0181C39.6846 57.1145 39.7888 57.2709 39.7888 57.4871V58.5894C39.7888 58.7067 39.8475 58.7653 39.9647 58.7653C40.0038 58.7653 40.0494 58.7601 40.1015 58.7497V59.0233C40.0077 59.039 39.9061 59.0468 39.7966 59.0468C39.5856 59.0468 39.4683 58.9517 39.4448 58.7614C39.3693 58.8631 39.2455 58.9452 39.0735 59.0077C38.9145 59.065 38.7478 59.0937 38.5732 59.0937C38.2683 59.0937 38.0442 59.0233 37.9008 58.8826C37.794 58.7784 37.7406 58.6429 37.7406 58.4761C37.7406 58.2833 37.8057 58.1373 37.936 58.0383C38.0689 57.9393 38.2969 57.8728 38.6201 57.8389L39.0657 57.792C39.1882 57.779 39.2755 57.7582 39.3276 57.7295C39.3901 57.693 39.4214 57.6318 39.4214 57.5458C39.4214 57.3217 39.2246 57.2096 38.8311 57.2096C38.4194 57.2096 38.2083 57.3451 38.1979 57.6161ZM39.4214 58.2142V57.9523C39.3719 58.007 39.2442 58.0474 39.0383 58.0735L38.5966 58.1282C38.4377 58.1491 38.3204 58.1842 38.2448 58.2337C38.1692 58.2833 38.1315 58.3601 38.1315 58.4644C38.1315 58.5608 38.1745 58.639 38.2605 58.6989C38.3491 58.7588 38.465 58.7888 38.6083 58.7888C38.8351 58.7888 39.0266 58.7354 39.1829 58.6285C39.3419 58.5191 39.4214 58.381 39.4214 58.2142Z" fill="black"/>
<path d="M43.9769 57.237H43.5625C43.5287 57.0285 43.4348 56.8604 43.2811 56.7327C43.1117 56.592 42.8876 56.5217 42.6088 56.5217C42.27 56.5217 42.0081 56.6168 41.8231 56.807C41.6276 57.0051 41.5299 57.2904 41.5299 57.663C41.5299 57.9601 41.6094 58.2051 41.7684 58.3979C41.956 58.622 42.2283 58.7341 42.5853 58.7341C43.1247 58.7341 43.4505 58.4748 43.5625 57.9562H43.9769C43.943 58.2767 43.8023 58.5438 43.5547 58.7575C43.2915 58.9816 42.9671 59.0937 42.5814 59.0937C42.1801 59.0937 41.8478 58.9842 41.5846 58.7653C41.2719 58.5048 41.1156 58.123 41.1156 57.62C41.1156 57.1953 41.2407 56.85 41.4908 56.5842C41.754 56.3028 42.1163 56.162 42.5775 56.162C42.9189 56.162 43.2133 56.2363 43.4609 56.3848C43.7736 56.5751 43.9456 56.8591 43.9769 57.237Z" fill="black"/>
<path d="M44.0685 57.9992C44.0685 57.6865 44.1675 57.4298 44.3655 57.2292C44.5792 57.0129 44.8763 56.9047 45.2568 56.9047C45.6372 56.9047 45.9356 57.0129 46.1519 57.2292C46.3473 57.4298 46.445 57.6865 46.445 57.9992C46.445 58.3119 46.3473 58.5686 46.1519 58.7693C45.9356 58.9855 45.6372 59.0937 45.2568 59.0937C44.8763 59.0937 44.5792 58.9855 44.3655 58.7693C44.1675 58.5686 44.0685 58.3119 44.0685 57.9992ZM46.0307 57.9992C46.0307 57.7881 45.9721 57.6135 45.8548 57.4754C45.7193 57.3139 45.52 57.2331 45.2568 57.2331C44.9936 57.2331 44.7942 57.3139 44.6587 57.4754C44.5414 57.6135 44.4828 57.7881 44.4828 57.9992C44.4828 58.2103 44.5414 58.3849 44.6587 58.523C44.7942 58.6846 44.9936 58.7653 45.2568 58.7653C45.52 58.7653 45.7193 58.6846 45.8548 58.523C45.9721 58.3849 46.0307 58.2103 46.0307 57.9992Z" fill="black"/>
<path d="M46.5959 59.0233V56.9751H46.9868V57.2839H46.9946C47.1562 57.0311 47.4233 56.9047 47.7959 56.9047C48.0565 56.9047 48.2611 56.9608 48.4096 57.0728C48.5738 57.1979 48.6559 57.3829 48.6559 57.6279V59.0233H48.265V57.706C48.265 57.3907 48.063 57.2331 47.6591 57.2331C47.4715 57.2331 47.3151 57.2839 47.1901 57.3855C47.0546 57.4976 46.9868 57.65 46.9868 57.8429V59.0233H46.5959Z" fill="black"/>
<path d="M48.7826 58.3784H49.1735C49.1735 58.4878 49.2191 58.579 49.3103 58.652C49.4223 58.7432 49.5917 58.7888 49.8184 58.7888C50.2354 58.7888 50.4439 58.682 50.4439 58.4683C50.4439 58.3901 50.4191 58.3315 50.3696 58.2924C50.3097 58.2481 50.2054 58.2155 50.0569 58.1947L49.4119 58.1087C49.2556 58.0878 49.1266 58.0318 49.0249 57.9406C48.9129 57.8416 48.8569 57.7165 48.8569 57.5653C48.8569 57.3595 48.9402 57.1979 49.107 57.0806C49.2738 56.9634 49.5018 56.9047 49.7911 56.9047C50.4165 56.9047 50.7501 57.134 50.7917 57.5927H50.4009C50.3956 57.4832 50.3422 57.3933 50.2406 57.323C50.1311 57.2474 49.98 57.2096 49.7872 57.2096C49.4276 57.2096 49.2477 57.3139 49.2477 57.5223C49.2477 57.5953 49.2712 57.6513 49.3181 57.6904C49.365 57.7295 49.4549 57.7582 49.5878 57.7764L50.1429 57.8507C50.6198 57.9132 50.8582 58.0943 50.8582 58.394C50.8582 58.6259 50.767 58.8005 50.5846 58.9178C50.4048 59.0351 50.1533 59.0937 49.8302 59.0937C49.1657 59.0937 48.8165 58.8553 48.7826 58.3784Z" fill="black"/>
<path d="M51.1544 56.9751V56.3458H51.5453V56.9751H52.1316V57.28H51.5453V58.5425C51.5453 58.6911 51.6508 58.7653 51.8619 58.7653C51.9375 58.7653 52.0274 58.7562 52.1316 58.738V59.0663C52.0274 59.0846 51.8814 59.0937 51.6938 59.0937C51.3342 59.0937 51.1544 58.9321 51.1544 58.609V57.28H50.7322V56.9751H51.1544Z" fill="black"/>
<path d="M52.1946 59.0233V56.9751H52.5855V57.3503H52.5933C52.7627 57.0533 52.9972 56.9047 53.2969 56.9047C53.3855 56.9047 53.4598 56.9125 53.5197 56.9282V57.3503C53.4103 57.3243 53.3178 57.3112 53.2422 57.3112C53.0415 57.3112 52.8839 57.3673 52.7692 57.4793C52.6467 57.5992 52.5855 57.7673 52.5855 57.9836V59.0233H52.1946Z" fill="black"/>
<path d="M55.6118 56.9751V59.0233H55.221V58.7145H55.2131C55.0516 58.9673 54.7845 59.0937 54.4118 59.0937C54.1512 59.0937 53.9467 59.0377 53.7981 58.9256C53.634 58.8005 53.5519 58.6155 53.5519 58.3706V56.9751H53.9428V58.2924C53.9428 58.6077 54.1447 58.7653 54.5486 58.7653C54.7363 58.7653 54.8926 58.7145 55.0177 58.6129C55.1532 58.5008 55.221 58.3484 55.221 58.1556V56.9751H55.6118Z" fill="black"/>
<path d="M57.5327 58.2728H57.9471C57.8689 58.5673 57.7373 58.781 57.5523 58.9139C57.3829 59.0338 57.1588 59.0937 56.8799 59.0937C56.5021 59.0937 56.2154 58.979 56.02 58.7497C55.8506 58.5569 55.7659 58.3106 55.7659 58.0109C55.7659 57.693 55.8584 57.4324 56.0434 57.2292C56.2441 57.0129 56.5216 56.9047 56.876 56.9047C57.1601 56.9047 57.3959 56.9673 57.5835 57.0924C57.7816 57.2253 57.9002 57.4142 57.9392 57.6591H57.5249C57.4754 57.3751 57.2682 57.2331 56.9034 57.2331C56.6636 57.2331 56.4812 57.306 56.3562 57.452C56.2389 57.5849 56.1803 57.7673 56.1803 57.9992C56.1803 58.2311 56.2389 58.4136 56.3562 58.5465C56.4812 58.6924 56.6636 58.7653 56.9034 58.7653C57.2396 58.7653 57.4493 58.6012 57.5327 58.2728Z" fill="black"/>
<path d="M58.2554 56.9751V56.3458H58.6463V56.9751H59.2326V57.28H58.6463V58.5425C58.6463 58.6911 58.7518 58.7653 58.9629 58.7653C59.0385 58.7653 59.1284 58.7562 59.2326 58.738V59.0663C59.1284 59.0846 58.9825 59.0937 58.7948 59.0937C58.4352 59.0937 58.2554 58.9321 58.2554 58.609V57.28H57.8332V56.9751H58.2554Z" fill="black"/>
<path d="M59.2956 59.0233V56.9751H59.6865V59.0233H59.2956ZM59.2956 56.6389V56.2089H59.6865V56.6389H59.2956Z" fill="black"/>
<path d="M59.8377 57.9992C59.8377 57.6865 59.9367 57.4298 60.1348 57.2292C60.3485 57.0129 60.6455 56.9047 61.026 56.9047C61.4065 56.9047 61.7048 57.0129 61.9211 57.2292C62.1166 57.4298 62.2143 57.6865 62.2143 57.9992C62.2143 58.3119 62.1166 58.5686 61.9211 58.7693C61.7048 58.9855 61.4065 59.0937 61.026 59.0937C60.6455 59.0937 60.3485 58.9855 60.1348 58.7693C59.9367 58.5686 59.8377 58.3119 59.8377 57.9992ZM61.8 57.9992C61.8 57.7881 61.7413 57.6135 61.6241 57.4754C61.4885 57.3139 61.2892 57.2331 61.026 57.2331C60.7628 57.2331 60.5635 57.3139 60.4279 57.4754C60.3107 57.6135 60.252 57.7881 60.252 57.9992C60.252 58.2103 60.3107 58.3849 60.4279 58.523C60.5635 58.6846 60.7628 58.7653 61.026 58.7653C61.2892 58.7653 61.4885 58.6846 61.6241 58.523C61.7413 58.3849 61.8 58.2103 61.8 57.9992Z" fill="black"/>
<path d="M62.3652 59.0233V56.9751H62.756V57.2839H62.7639C62.9254 57.0311 63.1925 56.9047 63.5652 56.9047C63.8258 56.9047 64.0303 56.9608 64.1789 57.0728C64.343 57.1979 64.4251 57.3829 64.4251 57.6279V59.0233H64.0342V57.706C64.0342 57.3907 63.8323 57.2331 63.4284 57.2331C63.2407 57.2331 63.0844 57.2839 62.9593 57.3855C62.8238 57.4976 62.756 57.65 62.756 57.8429V59.0233H62.3652Z" fill="black"/>
<path d="M65.8026 59.0233V56.2324H67.3544C67.9277 56.2324 68.2144 56.4656 68.2144 56.9321C68.2144 57.2266 68.0789 57.4233 67.8079 57.5223V57.5301C68.1597 57.6109 68.3356 57.8402 68.3356 58.2181C68.3356 58.437 68.2639 58.6207 68.1206 58.7693C67.959 58.9386 67.7362 59.0233 67.4522 59.0233H65.8026ZM66.217 57.3855H67.3466C67.4925 57.3855 67.6059 57.3477 67.6867 57.2722C67.7623 57.2044 67.8 57.1119 67.8 56.9946C67.8 56.7262 67.6411 56.592 67.3232 56.592H66.217V57.3855ZM66.217 58.6637H67.3388C67.7271 58.6637 67.9212 58.5061 67.9212 58.1907C67.9212 57.8937 67.7388 57.7451 67.374 57.7451H66.217V58.6637Z" fill="black"/>
<path d="M68.9114 57.6161H68.544C68.5909 57.1419 68.9297 56.9047 69.5603 56.9047C69.8183 56.9047 70.0281 56.9425 70.1896 57.0181C70.3981 57.1145 70.5023 57.2709 70.5023 57.4871V58.5894C70.5023 58.7067 70.561 58.7653 70.6782 58.7653C70.7173 58.7653 70.7629 58.7601 70.815 58.7497V59.0233C70.7212 59.039 70.6196 59.0468 70.5101 59.0468C70.2991 59.0468 70.1818 58.9517 70.1583 58.7614C70.0828 58.8631 69.959 58.9452 69.787 59.0077C69.628 59.065 69.4613 59.0937 69.2867 59.0937C68.9818 59.0937 68.7577 59.0233 68.6143 58.8826C68.5075 58.7784 68.4541 58.6429 68.4541 58.4761C68.4541 58.2833 68.5192 58.1373 68.6495 58.0383C68.7824 57.9393 69.0104 57.8728 69.3336 57.8389L69.7792 57.792C69.9017 57.779 69.989 57.7582 70.0411 57.7295C70.1036 57.693 70.1349 57.6318 70.1349 57.5458C70.1349 57.3217 69.9381 57.2096 69.5447 57.2096C69.1329 57.2096 68.9218 57.3451 68.9114 57.6161ZM70.1349 58.2142V57.9523C70.0854 58.007 69.9577 58.0474 69.7518 58.0735L69.3101 58.1282C69.1512 58.1491 69.0339 58.1842 68.9583 58.2337C68.8828 58.2833 68.845 58.3601 68.845 58.4644C68.845 58.5608 68.888 58.639 68.974 58.6989C69.0626 58.7588 69.1785 58.7888 69.3218 58.7888C69.5486 58.7888 69.7401 58.7354 69.8965 58.6285C70.0554 58.5191 70.1349 58.381 70.1349 58.2142Z" fill="black"/>
<path d="M70.848 59.0233V56.9751H71.2389V57.2839H71.2467C71.4083 57.0311 71.6754 56.9047 72.048 56.9047C72.3086 56.9047 72.5132 56.9608 72.6617 57.0728C72.8259 57.1979 72.908 57.3829 72.908 57.6279V59.0233H72.5171V57.706C72.5171 57.3907 72.3151 57.2331 71.9112 57.2331C71.7236 57.2331 71.5673 57.2839 71.4422 57.3855C71.3067 57.4976 71.2389 57.65 71.2389 57.8429V59.0233H70.848Z" fill="black"/>
<path d="M73.5741 57.8507L74.6139 56.9751H75.208L74.2464 57.7451L75.2823 59.0233H74.7507L73.9337 57.9992L73.5741 58.2846V59.0233H73.1832V56.2089H73.5741V57.8507Z" fill="black"/>
<path d="M76.4032 59.0233V56.2324H76.8175V59.0233H76.4032Z" fill="black"/>
<path d="M77.1589 59.0233V56.9751H77.5497V57.2839H77.5576C77.7191 57.0311 77.9862 56.9047 78.3589 56.9047C78.6195 56.9047 78.824 56.9608 78.9726 57.0728C79.1368 57.1979 79.2188 57.3829 79.2188 57.6279V59.0233H78.828V57.706C78.828 57.3907 78.626 57.2331 78.2221 57.2331C78.0344 57.2331 77.8781 57.2839 77.753 57.3855C77.6175 57.4976 77.5497 57.65 77.5497 57.8429V59.0233H77.1589Z" fill="black"/>
<path d="M81.2726 59.0233V58.7614H81.2648C81.1918 58.8657 81.0824 58.9478 80.9365 59.0077C80.7931 59.065 80.6433 59.0937 80.4869 59.0937C80.1664 59.0937 79.9032 58.9986 79.6973 58.8083C79.481 58.6103 79.3729 58.3445 79.3729 58.0109C79.3729 57.6774 79.481 57.4103 79.6973 57.2096C79.9032 57.022 80.1664 56.9282 80.4869 56.9282C80.6459 56.9282 80.7957 56.9568 80.9365 57.0142C81.0798 57.0715 81.1892 57.1536 81.2648 57.2604H81.2726V56.2089H81.6635V59.0233H81.2726ZM79.7872 58.0109C79.7872 58.222 79.8459 58.3966 79.9631 58.5347C80.0987 58.6885 80.2902 58.7653 80.5377 58.7653C80.7879 58.7653 80.9808 58.6885 81.1163 58.5347C81.2361 58.3966 81.2961 58.222 81.2961 58.0109C81.2961 57.779 81.227 57.5953 81.0889 57.4598C80.9508 57.3243 80.7671 57.2565 80.5377 57.2565C80.3084 57.2565 80.126 57.3243 79.9905 57.4598C79.855 57.5953 79.7872 57.779 79.7872 58.0109Z" fill="black"/>
<path d="M81.8143 57.9992C81.8143 57.6865 81.9133 57.4298 82.1113 57.2292C82.325 57.0129 82.6221 56.9047 83.0026 56.9047C83.383 56.9047 83.6814 57.0129 83.8977 57.2292C84.0931 57.4298 84.1909 57.6865 84.1909 57.9992C84.1909 58.3119 84.0931 58.5686 83.8977 58.7693C83.6814 58.9855 83.383 59.0937 83.0026 59.0937C82.6221 59.0937 82.325 58.9855 82.1113 58.7693C81.9133 58.5686 81.8143 58.3119 81.8143 57.9992ZM83.7765 57.9992C83.7765 57.7881 83.7179 57.6135 83.6006 57.4754C83.4651 57.3139 83.2658 57.2331 83.0026 57.2331C82.7394 57.2331 82.54 57.3139 82.4045 57.4754C82.2872 57.6135 82.2286 57.7881 82.2286 57.9992C82.2286 58.2103 82.2872 58.3849 82.4045 58.523C82.54 58.6846 82.7394 58.7653 83.0026 58.7653C83.2658 58.7653 83.4651 58.6846 83.6006 58.523C83.7179 58.3849 83.7765 58.2103 83.7765 57.9992Z" fill="black"/>
<path d="M84.3417 59.0233V56.9751H84.7326V57.2839H84.7404C84.902 57.0311 85.1691 56.9047 85.5417 56.9047C85.8023 56.9047 86.0069 56.9608 86.1554 57.0728C86.3196 57.1979 86.4017 57.3829 86.4017 57.6279V59.0233H86.0108V57.706C86.0108 57.3907 85.8089 57.2331 85.4049 57.2331C85.2173 57.2331 85.061 57.2839 84.9359 57.3855C84.8004 57.4976 84.7326 57.65 84.7326 57.8429V59.0233H84.3417Z" fill="black"/>
<path d="M88.8542 58.1165H86.9701C86.9857 58.3171 87.0717 58.4774 87.2281 58.5973C87.3714 58.7093 87.5369 58.7653 87.7245 58.7653C88.0529 58.7653 88.2731 58.6442 88.3851 58.4018H88.7995C88.7082 58.6338 88.5584 58.811 88.3499 58.9334C88.1675 59.0403 87.9656 59.0937 87.7441 59.0937C87.3636 59.0937 87.0665 58.9855 86.8528 58.7693C86.6548 58.5686 86.5558 58.3119 86.5558 57.9992C86.5558 57.6865 86.6548 57.4298 86.8528 57.2292C87.0665 57.0129 87.3636 56.9047 87.7441 56.9047C88.049 56.9047 88.3017 56.992 88.5024 57.1666C88.7369 57.3725 88.8542 57.6722 88.8542 58.0657V58.1165ZM86.9818 57.8116H88.4398C88.4112 57.6292 88.3317 57.4871 88.2014 57.3855C88.0711 57.2839 87.9121 57.2331 87.7245 57.2331C87.5369 57.2331 87.3753 57.2839 87.2398 57.3855C87.0965 57.4924 87.0105 57.6344 86.9818 57.8116Z" fill="black"/>
<path d="M88.9011 58.3784H89.2919C89.2919 58.4878 89.3376 58.579 89.4288 58.652C89.5408 58.7432 89.7102 58.7888 89.9369 58.7888C90.3539 58.7888 90.5623 58.682 90.5623 58.4683C90.5623 58.3901 90.5376 58.3315 90.4881 58.2924C90.4281 58.2481 90.3239 58.2155 90.1754 58.1947L89.5304 58.1087C89.374 58.0878 89.245 58.0318 89.1434 57.9406C89.0314 57.8416 88.9753 57.7165 88.9753 57.5653C88.9753 57.3595 89.0587 57.1979 89.2255 57.0806C89.3923 56.9634 89.6203 56.9047 89.9095 56.9047C90.535 56.9047 90.8685 57.134 90.9102 57.5927H90.5193C90.5141 57.4832 90.4607 57.3933 90.3591 57.323C90.2496 57.2474 90.0985 57.2096 89.9056 57.2096C89.546 57.2096 89.3662 57.3139 89.3662 57.5223C89.3662 57.5953 89.3897 57.6513 89.4366 57.6904C89.4835 57.7295 89.5734 57.7582 89.7063 57.7764L90.2613 57.8507C90.7382 57.9132 90.9767 58.0943 90.9767 58.394C90.9767 58.6259 90.8855 58.8005 90.703 58.9178C90.5232 59.0351 90.2718 59.0937 89.9486 59.0937C89.2841 59.0937 88.9349 58.8553 88.9011 58.3784Z" fill="black"/>
<path d="M91.1009 59.0233V56.9751H91.4918V59.0233H91.1009ZM91.1009 56.6389V56.2089H91.4918V56.6389H91.1009Z" fill="black"/>
<path d="M92.0964 57.6161H91.7289C91.7758 57.1419 92.1146 56.9047 92.7452 56.9047C93.0032 56.9047 93.213 56.9425 93.3746 57.0181C93.5831 57.1145 93.6873 57.2709 93.6873 57.4871V58.5894C93.6873 58.7067 93.7459 58.7653 93.8632 58.7653C93.9023 58.7653 93.9479 58.7601 94 58.7497V59.0233C93.9062 59.039 93.8046 59.0468 93.6951 59.0468C93.484 59.0468 93.3668 58.9517 93.3433 58.7614C93.2677 58.8631 93.144 58.9452 92.972 59.0077C92.813 59.065 92.6462 59.0937 92.4716 59.0937C92.1667 59.0937 91.9426 59.0233 91.7993 58.8826C91.6925 58.7784 91.639 58.6429 91.639 58.4761C91.639 58.2833 91.7042 58.1373 91.8345 58.0383C91.9674 57.9393 92.1954 57.8728 92.5185 57.8389L92.9641 57.792C93.0866 57.779 93.1739 57.7582 93.226 57.7295C93.2886 57.693 93.3199 57.6318 93.3199 57.5458C93.3199 57.3217 93.1231 57.2096 92.7296 57.2096C92.3179 57.2096 92.1068 57.3451 92.0964 57.6161ZM93.3199 58.2142V57.9523C93.2703 58.007 93.1427 58.0474 92.9368 58.0735L92.4951 58.1282C92.3361 58.1491 92.2189 58.1842 92.1433 58.2337C92.0677 58.2833 92.0299 58.3601 92.0299 58.4644C92.0299 58.5608 92.0729 58.639 92.1589 58.6989C92.2475 58.7588 92.3635 58.7888 92.5068 58.7888C92.7335 58.7888 92.9251 58.7354 93.0814 58.6285C93.2404 58.5191 93.3199 58.381 93.3199 58.2142Z" fill="black"/>
</svg>
