<svg width="108" height="108" viewBox="0 0 108 108" fill="none" xmlns="http://www.w3.org/2000/svg">
<g clip-path="url(#clip0_801_7047)">
<path fill-rule="evenodd" clip-rule="evenodd" d="M24.5562 54.5524H14V44H24.5562V54.5524Z" fill="#6A1F1D"/>
<path fill-rule="evenodd" clip-rule="evenodd" d="M15.4265 45.9907L17.9077 49.2771H23.5211L21.0375 45.9907H15.4265Z" fill="white"/>
<path fill-rule="evenodd" clip-rule="evenodd" d="M17.9077 49.2771L15.4265 52.5597H21.0375L23.5211 49.2771H17.9077Z" fill="#DA242A"/>
<path fill-rule="evenodd" clip-rule="evenodd" d="M51.1719 49.2043C51.4807 49.036 51.9792 48.5662 51.9792 47.7982C51.9792 46.5991 51.1604 45.8522 49.8425 45.8522L47.0796 45.8522V52.7268H49.9597C51.2623 52.7268 52.0744 51.9655 52.0744 50.7358C52.0743 49.8139 51.5325 49.3847 51.1719 49.2043ZM48.4681 47.1008C48.523 47.1008 49.7394 47.1008 49.7394 47.1008C50.272 47.1008 50.5885 47.3802 50.5885 47.8534C50.5885 48.3286 50.272 48.6112 49.7394 48.6112C49.7393 48.6113 48.523 48.6112 48.4681 48.6112L48.4681 47.1008ZM49.8272 51.484C49.8272 51.484 48.523 51.484 48.4681 51.484L48.4681 49.8666C48.523 49.8666 49.8272 49.8665 49.8272 49.8665C50.4607 49.8666 50.6843 50.2814 50.6843 50.6697C50.6843 51.0638 50.4607 51.484 49.8272 51.484ZM41.6752 50.2462C41.6273 50.1572 39.2521 45.8401 39.2521 45.8401L37.8945 45.8401V52.715H39.284C39.284 52.715 39.284 48.8137 39.284 48.6081C39.3855 48.7885 41.6752 52.77 41.6752 52.77C41.6752 52.77 43.96 48.7885 44.0648 48.6081C44.0647 48.815 44.0648 52.715 44.0648 52.715H45.452V45.8401H44.0938C44.0938 45.8401 41.7257 50.1572 41.6752 50.2462ZM34.8047 45.8522V52.7268H36.1954V45.8522H34.8047ZM32.5041 51.0723C32.1018 51.3936 31.6126 51.5641 31.0956 51.5641C29.8425 51.5642 28.8651 50.5665 28.8651 49.2911C28.8651 48.0173 29.8425 47.0174 31.0956 47.0174C31.6126 47.0174 32.1018 47.1857 32.5042 47.5089L32.5259 47.5255L33.4915 46.5577L33.4715 46.5397C32.8076 45.9656 31.9665 45.651 31.0956 45.651C29.0643 45.651 27.4156 47.2847 27.4156 49.2911C27.4155 51.2969 29.0644 52.9293 31.0956 52.9293C31.9664 52.9293 32.8076 52.6148 33.4715 52.0428L33.4915 52.023L32.5259 51.0558L32.5041 51.0723Z" fill="#6A1F1D"/>
<path fill-rule="evenodd" clip-rule="evenodd" d="M66.0094 50.0689H68.3029L67.1753 46.7466H67.1564L66.0094 50.0689ZM66.6835 45.8885H67.6792L70.0713 52.7038H69.2392L68.59 50.8689H65.7268L65.1003 52.7469H64.1751L66.6835 45.8885Z" fill="#6A1F1D"/>
<path fill-rule="evenodd" clip-rule="evenodd" d="M79.8693 50.0689H82.1637L81.034 46.7466H81.0151L79.8693 50.0689ZM80.5416 45.8885H81.5365L83.9249 52.7038H83.0955L82.4479 50.8689H79.5832L78.9589 52.7469H78.03L80.5416 45.8885Z" fill="#6A1F1D"/>
<path fill-rule="evenodd" clip-rule="evenodd" d="M76.7084 46.7776C76.7084 46.7776 74.1253 44.7268 71.8088 46.9105C71.8088 46.9105 70.7687 47.8161 70.8294 49.7171C70.8294 49.7171 70.9466 52.8383 74.3922 52.8833C74.3922 52.8833 75.8615 52.793 76.8428 52.2144V48.9604H74.5707V49.5827H76.1738V51.7226C76.1738 51.7226 73.8145 52.8383 72.4746 51.5015C72.4746 51.5015 71.4074 50.9217 71.6306 48.914C71.6306 48.914 72.0751 46.4784 74.541 46.6288C74.541 46.6288 75.8778 46.7917 76.2348 47.3716L76.7084 46.7776Z" fill="#6A1F1D"/>
<path fill-rule="evenodd" clip-rule="evenodd" d="M63.0296 45.8403V52.7039H62.3182V45.8403H63.0296Z" fill="#6A1F1D"/>
<path fill-rule="evenodd" clip-rule="evenodd" d="M59.7752 52.7039H60.4885V45.8403H59.7752V51.4585L55.6807 45.8403H54.9666V52.7039H55.6807V47.068L59.7752 52.7039Z" fill="#6A1F1D"/>
<path fill-rule="evenodd" clip-rule="evenodd" d="M74.1428 55.7039H74.1483H74.1497C74.3867 55.6972 74.5738 55.6292 74.7191 55.4992C74.9155 55.3255 74.911 55.1693 74.8746 55.0691C74.8212 54.9152 74.6722 54.8369 74.4148 54.8369C74.1573 54.8437 73.97 54.912 73.8422 55.0448C73.67 55.2176 73.6803 55.3826 73.718 55.4883C73.7684 55.6324 73.9115 55.7039 74.143 55.7039H74.1428ZM72.1748 56.8306C72.2045 56.8504 72.2578 56.8832 72.3041 56.8832C72.4177 56.8832 72.4504 56.8228 72.4625 56.7864C72.4689 56.76 72.4951 56.705 72.5822 56.5907C72.6438 56.5057 72.7154 56.4256 72.7914 56.3563L72.8282 56.3244L72.8128 56.2781C72.7975 56.2341 72.7617 56.1989 72.7046 56.1593C72.6681 56.1417 72.6196 56.1175 72.5532 56.0957L72.5197 56.0868C72.5069 56.0859 72.4951 56.0825 72.4747 56.0801L72.4436 56.0702L72.4335 56.0693C72.3881 56.0603 72.3399 56.0516 72.2907 56.0459C72.2211 56.036 72.1499 56.0341 72.0768 56.0341C71.2088 56.0342 70.2154 56.6268 69.8178 56.8887C69.8277 56.8734 69.8385 56.858 69.8481 56.8436L69.8711 56.8063C69.919 56.7379 69.9615 56.6654 69.9991 56.5862C70.0378 56.5026 70.0569 56.4387 70.0378 56.3869C69.9988 56.2758 69.8925 56.1934 69.7191 56.1417C69.5498 56.0922 69.4789 56.0756 69.431 56.0756L69.4296 56.0756C69.3568 56.0756 69.3025 56.1417 69.2348 56.2519C69.2102 56.3122 69.1524 56.4288 69.0148 56.6379C68.8985 56.813 68.7628 57.0209 68.6258 57.2453C68.6098 57.2616 68.5891 57.2792 68.5674 57.299C66.7788 58.7558 65.71 59.0614 65.1269 59.0614C65.0129 59.0614 64.9085 59.0492 64.8254 59.0285C64.5933 58.9384 64.63 58.5951 64.6389 58.5323C64.6702 58.3914 64.7197 58.241 64.7858 58.0759C64.9497 57.6854 65.2329 57.154 65.625 56.4949L66.4834 56.485C66.5093 56.4783 66.6367 56.4365 66.6616 56.3356C66.6718 56.2947 66.6706 56.2321 66.5971 56.1593C66.5306 56.0976 66.2181 56.0625 65.9147 56.0494C65.9156 56.0494 65.9156 56.0461 65.9171 56.044C65.9573 55.9856 66.0036 55.9338 66.0585 55.891L66.1742 55.8007L66.0327 55.7611L65.9842 55.749L65.9672 55.7436L65.9506 55.746L65.334 55.8692C65.2682 55.8912 65.2088 55.9241 65.1571 55.9637C65.1235 55.9902 65.0942 56.0276 65.0603 56.0736C64.4219 56.1311 63.4997 56.3003 62.6615 56.7988C62.3891 56.9504 62.1493 57.1101 61.9445 57.2771C61.5754 57.5764 61.3036 57.8935 61.1344 58.2201C60.9601 58.5536 60.9124 58.8374 60.9923 59.0593C61.0714 59.273 61.2829 59.3809 61.6172 59.3809L61.6476 59.3786C61.8737 59.3742 62.1122 59.3201 62.3549 59.2176C62.6001 59.1199 62.8416 58.9976 63.069 58.8526C63.3011 58.7073 63.5195 58.5444 63.7175 58.3707C63.7625 58.3334 63.8088 58.2915 63.8516 58.2519C63.8164 58.3334 63.79 58.4103 63.7702 58.4873C63.7101 58.7163 63.7054 58.8967 63.7565 59.034C63.8114 59.1847 63.9244 59.3102 64.0905 59.4025C64.245 59.4897 64.4734 59.5347 64.7697 59.5347H64.8204C65.1817 59.528 65.5553 59.4565 65.9337 59.3233C66.3188 59.1847 66.6921 59.011 67.0443 58.7999C67.4176 58.5732 67.766 58.3334 68.0793 58.0836C68.0905 58.0738 68.1036 58.0648 68.1163 58.0562C67.9442 58.3244 67.7775 58.5974 67.6153 58.8625C67.5255 59.0001 67.4975 59.1055 67.5256 59.1802C67.5383 59.2301 67.5821 59.2728 67.7737 59.3543C67.9426 59.4268 68.0036 59.4399 68.0419 59.4399C68.1499 59.4399 68.2163 59.4124 68.2399 59.3565C68.3932 59.1451 68.5312 58.934 68.6516 58.7284C68.7595 58.5435 68.8904 58.3464 69.0466 58.1286C69.1944 57.9218 69.3528 57.7327 69.5157 57.5586C69.6785 57.3827 69.8909 57.2131 70.1467 57.0547C70.2999 56.9503 70.4909 56.8526 70.7132 56.7677C70.9331 56.6809 71.1494 56.6335 71.3554 56.6303L71.3937 56.6304C71.5552 56.6304 71.6792 56.6412 71.766 56.661C71.88 56.692 71.9624 56.7194 72.0209 56.7469C72.0752 56.7721 72.1368 56.8018 72.1748 56.8306ZM64.2054 57.4686C62.7378 58.6623 62.2352 58.8417 62.0662 58.8417C61.9995 58.8417 61.9902 58.8162 61.9857 58.7986C61.9857 58.6865 62.0266 58.5278 62.1058 58.3333C62.2217 58.0539 62.4111 57.7655 62.6663 57.4817C62.8444 57.2836 63.06 57.0978 63.3072 56.9273C63.621 56.7248 64.1256 56.484 64.7422 56.484C64.7687 56.4841 64.7962 56.484 64.8237 56.485C64.7806 56.5556 64.7362 56.6281 64.6915 56.7073L64.5558 56.934C64.4347 57.1365 64.3051 57.3255 64.2054 57.4686ZM49.9815 59.5698L50.0228 59.5797C50.0662 59.5918 50.1135 59.6049 50.1729 59.6225C50.4475 59.6876 50.7177 59.7272 50.9958 59.748C51.2362 59.7691 51.4837 59.779 51.7517 59.779H51.8574C52.5357 59.7646 53.1351 59.6799 53.638 59.5257C53.8471 59.4619 54.0445 59.3817 54.2396 59.2783C54.4328 59.1783 54.6072 59.0592 54.7617 58.9308C54.9179 58.7986 55.0328 58.6545 55.1006 58.5026C55.1743 58.3397 55.182 58.1768 55.121 58.0054C55.084 57.9063 55.0418 57.8294 54.9926 57.7668C54.946 57.7061 54.8789 57.6423 54.7815 57.5631L54.7579 57.5455C54.7288 57.5258 54.6953 57.5014 54.6544 57.473C54.5944 57.4312 54.5242 57.3881 54.4504 57.3443C54.4213 57.3233 54.3839 57.3025 54.3469 57.2792L54.3118 57.2572C53.3266 56.6412 53.0421 56.3551 52.9706 56.2672C52.8652 56.1009 52.7633 55.8579 52.8777 55.649C52.9977 55.4313 53.3998 55.1713 54.6225 55.1703C54.7991 55.1968 54.9454 55.2351 55.0594 55.2837C55.2924 55.3871 55.4317 55.4906 55.472 55.5973C55.4834 55.6292 55.4934 55.671 55.4774 55.6985L55.4438 55.7588L55.5023 55.7985C55.5495 55.8294 55.5961 55.8447 55.6434 55.8447C55.6638 55.8448 55.6843 55.8414 55.7051 55.8349L55.752 55.8205L55.7558 55.7733C55.7642 55.6928 55.7834 55.5995 55.8112 55.4906C55.837 55.375 55.86 55.2846 55.8836 55.2176L55.8913 55.1936L55.8836 55.1671C55.8577 55.101 55.7978 55.0371 55.6987 54.9768C55.5084 54.8832 55.3114 54.8216 55.1131 54.7928C54.9406 54.7676 54.7637 54.7545 54.5871 54.7545L54.5149 54.7555C54.2141 54.7612 53.9539 54.7874 53.724 54.8369C53.5123 54.881 53.3159 54.9359 53.1393 55.002C52.9763 55.0636 52.8429 55.1275 52.7289 55.2022C52.6171 55.2805 52.5386 55.3408 52.4843 55.3916C52.3198 55.5455 52.1966 55.7215 52.1155 55.9195C52.0363 56.1264 52.0308 56.3321 52.1037 56.5313C52.1739 56.7303 52.3065 56.904 52.4952 57.0528C52.6657 57.1878 52.9106 57.3475 53.2411 57.5388C53.5767 57.7282 53.8313 57.8933 53.9775 58.0143C54.0519 58.0801 54.1043 58.1395 54.1394 58.1813C54.1455 58.1881 54.2742 58.3751 54.1796 58.5795C54.0794 58.7954 53.7198 59.0802 52.5616 59.199C52.2569 59.23 51.9743 59.2441 51.7202 59.2441C50.2592 59.2441 50.1513 58.7338 50.1513 58.6942L50.1579 58.6699L50.1497 58.6457C50.1267 58.5817 50.0733 58.5466 49.9964 58.5466C49.9714 58.5476 49.921 58.5533 49.8948 58.5929L49.8855 58.6159L49.8841 58.6348C49.8697 58.7338 49.8567 58.8612 49.8413 59.0199C49.8301 59.1739 49.8215 59.3147 49.8171 59.4344L49.817 59.4631L49.8337 59.4839C49.8617 59.519 49.9046 59.5433 49.9814 59.5698L49.9815 59.5698ZM61.1953 56.2034C61.1586 56.1043 61.0894 56.0098 60.9878 55.9194C60.8901 55.8336 60.7895 55.7755 60.6746 55.7445C60.5238 55.7488 60.3715 55.8425 60.2217 56.0207C60.0854 56.1848 59.9449 56.3924 59.8082 56.6325C59.6022 56.9781 59.4058 57.321 59.2101 57.6796L59.0654 57.9108C58.9859 58.0405 58.9147 58.1529 58.8598 58.241C58.4229 58.6808 57.8152 58.9151 57.812 58.9151C57.5786 58.9934 57.3876 59.0307 57.242 59.0307C57.242 59.0307 57.2406 59.0307 57.2396 59.0307C57.1026 59.0307 57.0106 58.9943 56.9695 58.9228C56.8756 58.7558 57.0126 58.408 57.1611 58.1571C57.1831 58.1197 57.2105 58.0823 57.2387 58.0427C57.5691 57.5586 57.9332 56.9975 58.3177 56.3729L58.3365 56.3419L58.3254 56.3091C58.293 56.2101 58.1689 56.2101 58.1273 56.2101C58.09 56.2101 58.0047 56.2187 57.838 56.2398C57.6889 56.2583 57.5675 56.2758 57.4628 56.2947C57.4101 56.3177 57.3644 56.3486 57.3201 56.3774C57.2865 56.4036 57.2418 56.4441 57.1901 56.4917L57.1725 56.507L57.1682 56.5138C56.7001 57.1495 56.3527 57.6269 56.0691 58.0373C55.7539 58.4939 55.6406 58.8305 55.7255 59.0703C55.7836 59.2201 55.9053 59.33 56.0918 59.397C56.2546 59.4555 56.4564 59.4839 56.694 59.4839L56.757 59.4839C57.1258 59.4785 57.4751 59.4136 57.7938 59.2926C57.9752 59.2234 58.131 59.1572 58.2658 59.0933C55.5422 62.3224 53.1663 63.0132 51.6374 63.0132C50.8441 63.0132 50.2039 62.8305 49.76 62.6501C49.3183 62.4687 49.0734 62.2883 49.0718 62.2883C48.9706 62.1695 48.9074 62.0759 48.8876 62.0188C48.8763 61.977 48.8432 61.9418 48.7828 61.9118C48.7652 61.9054 48.7461 61.9022 48.7292 61.9022C48.6819 61.9022 48.6401 61.9284 48.6152 61.9747C48.5938 62.0188 48.5832 62.0935 48.5871 62.1902C48.5895 62.2851 48.6219 62.4214 48.6819 62.5951C48.7752 62.8593 48.9288 63.0649 49.1472 63.2223C49.3659 63.3785 49.6108 63.4928 49.8951 63.5743C50.1764 63.6512 50.4644 63.7065 50.7566 63.7349C50.9993 63.7579 51.2165 63.769 51.4183 63.769C51.47 63.769 51.524 63.7676 51.5758 63.7657C52.6049 63.7324 53.5687 63.4795 54.4366 63.013C55.3037 62.5487 56.1237 61.9525 56.8741 61.2375C57.3883 60.7489 57.8922 60.2121 58.375 59.6389L60.1822 57.6079C60.3156 57.4607 60.4434 57.3131 60.5606 57.1778L60.6018 57.1296C60.7713 56.9316 60.9198 56.7422 61.0434 56.5729C61.202 56.3484 61.2184 56.2626 61.1953 56.2032V56.2034ZM93.9783 51.7831C93.9614 51.6873 93.9087 51.5564 93.8139 51.3759C93.6766 51.1196 93.4878 50.9183 93.249 50.7785C93.0152 50.639 92.7511 50.5386 92.4637 50.4825C92.1786 50.4221 91.8976 50.3924 91.605 50.3857L91.4712 50.3833C91.2308 50.3833 91.0082 50.3967 90.8089 50.421C89.8193 50.5375 88.9338 50.8728 88.1834 51.4198C87.4371 51.9634 86.7588 52.6419 86.1674 53.4329C85.5887 54.2054 85.0545 55.0766 84.5793 56.0196L84.5563 56.0668C84.5244 56.1307 84.4947 56.1932 84.466 56.2482L84.4104 56.3309C84.3599 56.4078 84.3099 56.4826 84.261 56.563C84.1614 56.7157 84.0633 56.8776 83.9643 57.0392L83.8433 57.2353C82.2948 58.4376 81.1838 59.0459 80.5414 59.0459C80.352 59.0459 80.2102 58.9932 80.1179 58.8808C79.9301 58.6598 79.9886 58.267 79.9985 58.2054C80.0078 58.1767 80.0183 58.1527 80.0275 58.124C80.0403 58.0889 80.0524 58.0515 80.0694 58.0106C80.2211 57.6434 80.4829 57.1471 80.8712 56.4957L81.7603 56.4871C81.7851 56.4794 81.9148 56.4363 81.9413 56.3354C81.9512 56.2945 81.9496 56.2319 81.8762 56.1591C81.8072 56.0965 81.4748 56.0579 81.1535 56.0493C81.1646 56.0317 81.1749 56.0183 81.1848 56.0007L81.2001 55.9787C81.241 55.9148 81.2857 55.8688 81.3384 55.8292L81.4639 55.7379L81.3141 55.697L81.264 55.6839L81.2477 55.6796L81.2302 55.682L80.6151 55.8053C80.5529 55.8273 80.4948 55.8579 80.435 55.8998C80.3906 55.9372 80.3459 55.9943 80.3015 56.0757C79.6737 56.0914 79.0897 56.2102 78.5695 56.4289C78.0802 56.6336 77.6514 56.8811 77.2928 57.1605L77.2595 57.1605C77.2193 57.1605 77.1771 57.1816 77.1104 57.231C75.7027 58.4963 74.3801 58.9462 73.6115 58.9462C73.2602 58.9462 73.0175 58.846 72.9961 58.6853C72.9559 58.3114 73.462 57.3607 73.9449 56.5985L73.9818 56.5445L74.0148 56.4906C74.0553 56.4609 74.0834 56.418 74.1 56.3596C74.1137 56.3092 74.117 56.2696 74.1039 56.2232C74.0652 56.1387 73.9519 56.1386 73.8937 56.1386C73.8206 56.1387 73.6942 56.167 73.494 56.2287C73.2848 56.2894 73.151 56.3663 73.0919 56.4541C72.99 56.5698 72.8623 56.7415 72.7237 56.9494C72.5752 57.164 72.4274 57.3939 72.2837 57.628C72.1434 57.8669 72.0288 58.0978 71.9382 58.3178C71.8391 58.5579 71.8177 58.7469 71.8717 58.891C71.9119 59.0079 71.9899 59.1033 72.1016 59.1784C72.2013 59.241 72.3143 59.2905 72.4481 59.3345C72.5682 59.3709 72.7039 59.3926 72.8521 59.4006C72.9641 59.407 73.0641 59.4115 73.1529 59.4115L73.2116 59.4091C73.5038 59.4024 73.8146 59.3618 74.1345 59.2881C74.4635 59.2143 74.7684 59.1121 75.066 58.978C75.4428 58.8039 75.835 58.5795 76.2629 58.2959C76.3086 58.2649 76.3504 58.2343 76.3932 58.2055C76.2399 58.5137 76.1997 58.78 76.275 58.9955C76.3504 59.2079 76.5631 59.3156 76.9032 59.3156H76.9318C77.15 59.3101 77.3882 59.2584 77.6331 59.1572C77.8755 59.0626 78.1173 58.9384 78.3514 58.7886C78.5787 58.6456 78.8032 58.4805 79.0012 58.309C79.0462 58.2685 79.0909 58.2298 79.1337 58.1912C79.0989 58.2717 79.0727 58.3486 79.0539 58.4233C78.9928 58.6424 78.9875 58.8282 79.0386 58.9691C79.089 59.1166 79.2014 59.2408 79.3735 59.3398C79.529 59.4267 79.751 59.4698 80.0365 59.4698H80.1003C80.4555 59.4664 80.8208 59.396 81.2183 59.2584C81.5974 59.123 81.9716 58.9493 82.3268 58.7359C82.6882 58.5182 83.0369 58.277 83.3614 58.0197C83.3657 58.0182 83.3697 58.0163 83.3735 58.012C83.1954 58.3122 83.0162 58.6235 82.8329 58.9426C82.7955 59.0285 82.7866 59.1054 82.8125 59.1782C82.8504 59.2792 82.9616 59.3453 83.1459 59.3708C83.2845 59.3884 83.3972 59.396 83.4891 59.396H83.5274C83.6833 59.3927 83.8114 59.2881 83.9094 59.0878C84.0189 58.8768 84.1524 58.6334 84.3456 58.2969C84.4445 58.1196 84.5442 57.9469 84.6416 57.7763L84.8284 57.4497C85.279 56.9362 85.6865 56.5773 86.041 56.3837C86.4727 56.1494 86.6921 56.0935 86.8013 56.089C86.8144 56.089 86.8265 56.089 86.8386 56.1174C86.8539 56.1592 86.8588 56.2739 86.7148 56.5555C86.595 56.7909 86.4612 57.0505 86.3134 57.3322C86.162 57.617 86.0343 57.9009 85.9321 58.1669C85.8202 58.4566 85.796 58.6983 85.8637 58.8854C85.9359 59.0879 86.0898 59.2386 86.3287 59.3398C86.5298 59.428 86.7681 59.473 87.0376 59.473C87.074 59.473 87.1114 59.473 87.1478 59.4696C87.5641 59.4562 87.9815 59.3671 88.4245 59.1997C88.8549 59.0404 89.2797 58.828 89.6823 58.5729C90.0748 58.3264 90.4602 58.0438 90.83 57.7324C91.0654 57.5367 91.2803 57.3284 91.5236 57.0624C91.6957 56.9028 91.7976 56.7971 91.7976 56.7971L91.8464 56.7488L91.7988 56.6962C91.7369 56.6278 91.6715 56.5927 91.605 56.5927C91.4897 56.5927 91.4256 56.6917 91.4272 56.6917C91.4286 56.6917 91.4286 56.6917 91.4286 56.6917C89.4998 58.4816 88.3997 58.8577 87.8188 58.8577C87.1176 58.8578 86.9327 58.334 86.9234 58.2165C86.9326 58.1284 86.9496 58.046 86.9758 57.9556C87.0515 57.7082 87.1549 57.453 87.2859 57.1966C87.4219 56.9315 87.5685 56.685 87.7313 56.4497C87.8833 56.2229 88.006 56.0457 88.1005 55.9237C88.1911 55.8203 88.2451 55.7334 88.2627 55.6574L88.2651 55.6299L88.2675 55.6289C88.2819 55.5156 88.2632 55.4265 88.2065 55.3594C88.1439 55.2879 88.0421 55.2524 87.8999 55.2524C87.2625 55.2524 85.8335 56.0115 85.2779 56.3209C85.6161 55.354 86.8637 52.3165 89.443 51.4635C89.6783 51.3955 89.9194 51.3361 90.1586 51.2898C90.3942 51.2525 90.6367 51.2336 90.8793 51.2336C91.7604 51.2337 92.7098 51.4779 93.6991 51.9566C93.7077 51.9697 93.7144 51.985 93.7199 51.993C93.7448 52.0426 93.7882 52.0655 93.8294 52.0821C93.8476 52.0907 93.8632 52.0929 93.8798 52.0929C93.9255 52.093 93.9766 52.0655 93.9922 51.9993C94.0063 51.9522 94.0008 51.886 93.9788 51.7829L93.9783 51.7831ZM79.3736 57.5564C79.3614 57.573 79.3477 57.5873 79.3327 57.6027L79.3109 57.6269C78.1479 58.6083 77.6437 58.8152 77.424 58.8152C77.3608 58.8152 77.2762 58.7986 77.2729 58.6744C77.2822 58.5655 77.3234 58.4301 77.3905 58.2717C77.5032 57.9923 77.6926 57.7039 77.9528 57.4146C78.0192 57.3386 78.093 57.2648 78.1738 57.1914C78.1798 57.1847 78.9709 56.4828 80.0199 56.4828C80.0365 56.4828 80.0505 56.4828 80.0678 56.4842L80.0654 56.4851C79.9955 56.6062 79.9179 56.7338 79.8425 56.8702C79.6796 57.1321 79.528 57.3563 79.3734 57.5565L79.3736 57.5564Z" fill="#6A1F1D"/>
</g>
<defs>
<clipPath id="clip0_801_7047">
<rect width="80" height="19.769" fill="white" transform="translate(14 44)"/>
</clipPath>
</defs>
</svg>
