<svg width="108" height="108" viewBox="0 0 108 108" fill="none" xmlns="http://www.w3.org/2000/svg">
<path fill-rule="evenodd" clip-rule="evenodd" d="M23.8407 60.7802L23.7826 60.8373C22.8507 61.7866 21.7718 62.29 20.661 62.29C18.342 62.29 16.658 60.5493 16.658 58.1479C16.658 55.7512 18.342 54.0097 20.661 54.0097C21.7718 54.0097 22.8507 54.514 23.7826 55.4651L23.8407 55.5236L25.3322 53.7193L25.2924 53.6706C24.0528 52.2044 22.5636 51.4917 20.7336 51.4917C18.8983 51.4917 17.2186 52.1098 16.009 53.2239C14.6935 54.4316 14 56.1334 14 58.1484C14 60.1639 14.6935 61.8699 16.009 63.0772C17.2186 64.1969 18.8979 64.8108 20.7336 64.8108C22.5636 64.8108 24.0528 64.098 25.2924 62.6314L25.3322 62.5859L23.8407 60.7802ZM26.8396 64.564H29.4751V51.6996H26.8396V64.564ZM39.7991 61.7674C39.0948 62.1954 38.441 62.4113 37.8524 62.4113C37.001 62.4113 36.6156 61.9617 36.6156 60.9605V54.1338H39.3008V51.7113H36.6156V47.7079L34.033 49.0907V51.7113H31.8049V54.1338H34.033V61.3965C34.033 63.3736 35.2047 64.7251 36.9556 64.7621C38.1427 64.785 38.8588 64.431 39.2933 64.1716L39.32 64.1538L39.9536 61.6728L39.7991 61.7674ZM41.9804 64.564H44.6183V51.6996H41.9804V64.564Z" fill="#1C4882"/>
<path fill-rule="evenodd" clip-rule="evenodd" d="M46.1547 49.4438C43.7472 46.0337 39.7494 43.9999 35.6819 43.9999C31.6152 43.9999 27.616 46.0342 25.2128 49.4438L25.0891 49.619H28.1213L28.1536 49.5824C30.2179 47.4545 32.9119 46.3278 35.6819 46.3278C38.4518 46.3278 41.1445 47.4545 43.212 49.5824L43.2471 49.619H46.276L46.1547 49.4438Z" fill="#CC2131"/>
<path fill-rule="evenodd" clip-rule="evenodd" d="M49.6505 54.757L49.6149 54.8043V61.4592L49.6407 61.5C50.471 62.7835 51.8239 63.5515 53.261 63.5515C55.4831 63.5515 56.6098 61.6789 56.6098 57.9873C56.6098 54.6873 55.3623 52.7977 53.187 52.7977C51.8674 52.7972 50.6775 53.4566 49.6505 54.757ZM94 64.519V64.564H92.4078C92.3174 64.3814 89.0722 57.5097 89.0722 57.5097L86.6492 60.9062V64.5645H85.1456V47.6643C85.2771 47.5889 86.2943 47.0054 86.6492 46.8055V59.0766L87.4716 57.8C87.4688 57.8042 91.1584 52.4634 91.6304 51.7825H93.277C92.9267 52.2512 90.0266 56.2434 90.0266 56.2434C90.0266 56.2434 93.624 63.7454 94 64.519ZM64.0219 64.8328H63.3836C62.0883 64.7579 59.7553 64.1566 59.7553 60.8088C59.7553 57.8347 62.2101 56.7791 64.5094 56.7791C65.6656 56.7791 66.8059 57.0446 67.6329 57.5097L67.8815 57.6459V55.8116C67.8815 53.7774 66.8883 52.7471 64.9238 52.7471C63.7128 52.7471 62.6198 53.0511 61.5011 53.6837C61.4004 53.4566 61.0529 52.6872 60.9569 52.4699C62.1277 51.8513 63.5737 51.5062 65.047 51.5062C67.9663 51.5062 69.3862 52.8394 69.3862 55.5869V64.564H67.8815V62.6997L67.5898 63.0233C66.5619 64.1552 65.394 64.7522 64.0219 64.8328ZM53.6848 64.8328H53.0896C51.8454 64.756 50.8283 64.2156 49.9071 63.1498L49.6149 62.8084V64.564H48.1141V47.6638C48.241 47.5884 49.2623 47.005 49.6149 46.805V53.6434L49.9053 53.3245C51.0142 52.1009 52.2397 51.5062 53.6497 51.5062C56.4712 51.5062 58.091 53.857 58.091 57.9602C58.0905 62.0006 56.37 64.6605 53.6848 64.8328ZM61.2285 60.6847C61.2285 62.5967 62.219 63.648 64.0181 63.648C65.5499 63.648 66.9094 62.9245 67.8525 61.6091L67.8815 61.5641V58.7619L67.7973 58.7132C66.8368 58.1657 65.8557 57.9442 64.4096 57.9442C62.4203 57.9447 61.2285 58.9693 61.2285 60.6847ZM74.2934 53.3049C75.0689 52.1459 76.2846 51.5062 77.7077 51.5062C80.5432 51.5062 82.0469 53.3147 82.0469 56.7374V64.564H80.5385V57.0615C80.5385 54.1501 79.527 52.7972 77.3382 52.7972C75.2407 52.7972 73.9881 54.3927 73.9881 57.0615V64.564H72.4853V51.7825H73.9881V53.7638L74.2934 53.3049Z" fill="#1C4882"/>
</svg>
