<svg width="108" height="108" viewBox="0 0 108 108" fill="none" xmlns="http://www.w3.org/2000/svg">
<path fill-rule="evenodd" clip-rule="evenodd" d="M45.8501 79.265H52.3737V47.802H45.8501V79.265Z" fill="#1C4882"/>
<path fill-rule="evenodd" clip-rule="evenodd" d="M58.3552 47.8535V53.753H63.8475V71.5024C63.8475 73.9518 64.5291 75.9183 65.841 77.4015C67.1524 78.9369 68.9018 79.696 71.1053 79.7475C73.2921 79.7994 75.2334 79.3161 76.8772 78.3157L76.9824 78.2639V78.1606L78.5388 72.1751L78.1544 72.4167C76.4051 73.4689 74.796 73.9864 73.3271 73.9864C71.2981 73.9864 70.2659 72.7963 70.2659 70.4502V53.753H76.9298V47.8535H70.2659V38.0215L63.8475 41.4197V47.8535H58.3552Z" fill="#1C4882"/>
<path fill-rule="evenodd" clip-rule="evenodd" d="M83.3486 79.265H89.9253V47.802H83.3486V79.265Z" fill="#1C4882"/>
<path fill-rule="evenodd" clip-rule="evenodd" d="M42.1068 52.7523L41.967 52.649C38.9587 49.0437 35.1983 47.2843 30.6858 47.2843C25.9633 47.2843 22.0805 48.716 18.9671 51.545C15.6617 54.5291 14 58.5481 14 63.5851C14 68.6217 15.6617 72.6066 18.9671 75.6248C22.028 78.4538 25.9633 79.8513 30.6858 79.8513C35.1983 79.8513 38.9934 78.0746 41.967 74.5212L42.1068 74.4175L38.4165 70.0189L38.2763 70.1572C35.8804 72.5028 33.3092 73.7102 30.5459 73.7102C27.66 73.7102 25.2812 72.7441 23.3925 70.8299C21.4857 68.9494 20.5762 66.5178 20.5762 63.5851C20.5762 60.6525 21.4857 58.2031 23.3925 56.2889C25.2812 54.4257 27.66 53.4596 30.5459 53.4596C33.3092 53.4596 35.8804 54.6674 38.2763 57.0134L38.4165 57.1513L42.1068 52.7523Z" fill="#1C4882"/>
<path fill-rule="evenodd" clip-rule="evenodd" d="M49.068 42.6271C51.6388 40.0398 54.5076 38.0733 57.778 36.6762C60.926 35.3305 64.2845 34.6751 67.7477 34.6751C71.193 34.6751 74.5514 35.3305 77.7692 36.6762C80.9698 38.0733 83.8382 40.0398 86.4095 42.6271L86.5142 42.7135H94L93.7203 42.2821C90.7471 38.1594 86.8995 34.8995 82.2818 32.5188C77.6644 30.1559 72.8547 29 67.7477 29C62.6929 29 57.813 30.1559 53.1957 32.5188C48.5779 34.8995 44.7303 38.1594 41.7742 42.2821L41.4771 42.7135H49.0154L49.068 42.6271Z" fill="#CC2131"/>
</svg>
