<svg width="108" height="108" viewBox="0 0 108 108" fill="none" xmlns="http://www.w3.org/2000/svg">
<path fill-rule="evenodd" clip-rule="evenodd" d="M41.5863 52.1766V53.3338L41.7398 53.322V53.3102C41.7693 53.139 42.0763 52.8142 42.4601 52.8142C42.4601 52.8142 43.5642 52.8142 43.6055 52.8142C43.6055 52.8733 43.6055 58.7953 43.6055 58.7953H44.7392C44.7392 58.7953 44.7392 52.8733 44.7392 52.8319C44.7982 52.8319 45.9141 52.8319 45.9141 52.8319C46.3097 52.8319 46.5636 53.0445 46.6049 53.2393V53.2689H46.7762L46.7644 52.2061H46.7526V52.1766H41.5863Z" fill="#183964"/>
<path fill-rule="evenodd" clip-rule="evenodd" d="M20.9919 52.1766H20.9624V52.3301L20.9742 52.3419C21.0746 52.4009 21.1749 52.6371 21.1749 52.9382V58.7894H22.2791C22.2791 58.7894 22.2791 55.8373 22.2791 55.7782C22.3381 55.7782 22.775 55.7782 22.775 55.7782C23.2119 55.8077 23.3832 56.0911 23.5957 56.4572L23.6253 56.4985L23.767 56.7229C24.009 57.1185 24.3338 57.6558 24.6585 58.1636C24.9006 58.5178 25.1958 58.7304 25.5796 58.7835C25.8453 58.8248 26.3826 58.813 26.5951 58.754L26.8372 58.695L26.9376 58.6654L26.601 58.5651C26.4593 58.5237 26.2468 58.4234 25.9634 58.0986C25.7803 57.8979 25.4969 57.4314 25.06 56.7583L24.6349 56.0793L24.6231 56.0675C24.5109 55.8963 24.3102 55.6306 23.9854 55.4594C24.6054 55.2586 25.2135 54.6977 25.2135 53.8475C25.2135 53.6054 25.1545 53.1567 24.7471 52.7611C24.3397 52.3655 23.6843 52.1648 22.8105 52.1648H21.0037L20.9919 52.1766ZM22.8872 52.7729C24.0208 52.8142 24.0445 53.7766 24.0445 53.877C24.0445 54.8394 23.3359 55.176 22.716 55.176C22.716 55.176 22.3204 55.1642 22.2791 55.1642C22.2791 55.1051 22.2791 52.8319 22.2791 52.7729C22.409 52.7729 22.6156 52.7611 22.8872 52.7729Z" fill="#183964"/>
<path fill-rule="evenodd" clip-rule="evenodd" d="M32.2987 52.1766H32.2692L32.281 52.3478H32.2928C32.3932 52.3891 32.4759 52.6312 32.4759 52.826V58.7776H34.3712C35.617 58.7776 36.662 58.3938 37.3706 57.6617C37.9669 57.0535 38.2916 56.221 38.2916 55.3708C38.2916 54.863 38.1204 54.0837 37.6244 53.446C36.975 52.5958 35.9417 52.1588 34.5424 52.1588L32.2928 52.1707L32.2987 52.1766ZM33.6154 52.8142C33.6744 52.8142 34.2117 52.8142 34.2117 52.8142C34.3652 52.8142 34.7608 52.826 35.0442 52.8733C36.91 53.1567 37.1108 54.7272 37.1108 55.3767C37.1108 55.914 37.0104 56.6934 36.5439 57.2838C36.0893 57.8624 35.3867 58.1577 34.4243 58.1577C34.1999 58.1577 33.9165 58.1577 33.6036 58.1458C33.6154 58.1045 33.6154 52.8733 33.6154 52.8142Z" fill="#183964"/>
<path fill-rule="evenodd" clip-rule="evenodd" d="M40.5825 52.1765H39.2835V52.33L39.2953 52.3419C39.4075 52.4009 39.4961 52.6076 39.4961 52.891V58.7835H40.6002V52.1824L40.5884 52.1706L40.5825 52.1765Z" fill="#183964"/>
<path fill-rule="evenodd" clip-rule="evenodd" d="M30.8699 52.1766H27.1501L27.162 52.3301H27.1738C27.2741 52.3891 27.3863 52.6135 27.3863 52.9264V58.7776H31.0883L31.3599 57.6026L31.2064 57.5436L31.1651 57.6145C30.8522 58.0927 30.5451 58.1518 29.4705 58.1518C29.0868 58.1636 28.7089 58.1222 28.4786 58.1104C28.4786 58.0691 28.4786 55.4653 28.4786 55.4121C28.5377 55.4121 30.3562 55.4121 30.3562 55.4121V54.8158C30.3562 54.8158 28.5318 54.8158 28.4786 54.8158C28.4786 54.7568 28.4786 52.8083 28.4786 52.767C28.5377 52.767 30.0078 52.7788 30.0078 52.7788C30.3444 52.7788 30.7282 53.1035 30.7577 53.3043V53.3338H30.9112L30.8699 52.1766Z" fill="#183964"/>
<path fill-rule="evenodd" clip-rule="evenodd" d="M61.8736 52.1766H60.5746L60.5864 52.3301H60.5982C60.7104 52.3891 60.799 52.6135 60.799 52.8969V58.7894H61.9031V52.1884L61.8736 52.1766Z" fill="#183964"/>
<path fill-rule="evenodd" clip-rule="evenodd" d="M77.3075 52.1765H73.6054L73.6173 52.3478H73.6291C73.7294 52.4068 73.8416 52.6194 73.8416 52.9264V58.7776H77.5436L77.8093 57.6026L77.6381 57.5436L77.5968 57.6144C77.2839 58.0927 76.9768 58.1517 75.914 58.1517C75.5303 58.1635 75.1524 58.1222 74.9221 58.1104C74.9221 58.0691 74.9221 55.4653 74.9221 55.4121C74.9812 55.4121 76.7997 55.4121 76.7997 55.4121V54.8158C76.7997 54.8158 74.9753 54.8158 74.9221 54.8158C74.9221 54.7567 74.9221 52.8083 74.9221 52.767C74.9812 52.767 76.4513 52.7788 76.4513 52.7788C76.8765 52.7788 77.1894 53.0917 77.1894 53.3043V53.3338L77.3606 53.322L77.3311 52.1647L77.3016 52.1765H77.3075Z" fill="#183964"/>
<path fill-rule="evenodd" clip-rule="evenodd" d="M63.6685 53.8475C63.6566 54.7685 64.2057 55.2173 65.1091 55.6719L65.4457 55.8431C66.1542 56.1974 66.6206 56.4218 66.6206 57.0889C66.6206 57.2011 66.5911 57.5967 66.2959 57.9097C66.0833 58.1222 65.7881 58.2226 65.422 58.2226C64.3593 58.2108 63.9814 57.3901 63.8397 56.9059L63.8102 56.8233L63.5858 56.8646L63.6448 58.2521L63.7039 58.2816C64.0581 58.4824 64.6486 58.8189 65.487 58.8307C66.0951 58.8307 66.7033 58.5887 67.1107 58.1813C67.4768 57.8152 67.6775 57.3605 67.6775 56.8528C67.6775 55.6955 66.8745 55.2822 66.0243 54.8335L65.8708 54.7508C64.9497 54.2962 64.6427 54.0836 64.6427 53.5759C64.6427 53.2216 64.9084 52.6843 65.6464 52.702C66.538 52.7138 66.9158 53.3515 67.0044 53.694L67.0339 53.7943L67.2583 53.7648L67.1756 52.5485L67.1343 52.519C66.6265 52.1824 65.9889 52.1352 65.735 52.1352C64.743 52.1234 63.698 52.7315 63.6862 53.8593L63.6685 53.8475Z" fill="#183964"/>
<path fill-rule="evenodd" clip-rule="evenodd" d="M49.1379 53.8475C49.1261 54.7686 49.6752 55.2173 50.5786 55.6719L50.9151 55.8432C51.6236 56.1974 52.0901 56.4218 52.0901 57.089C52.0901 57.2012 52.0606 57.5967 51.7653 57.9097C51.5528 58.1222 51.2576 58.2226 50.8915 58.2226C49.8287 58.2108 49.4508 57.3901 49.3091 56.9059L49.2796 56.8233L49.0552 56.8646L49.1143 58.2521L49.1733 58.2816C49.5276 58.4824 50.118 58.8189 50.9564 58.8307C51.5646 58.8307 52.1727 58.5887 52.5801 58.1813C52.9462 57.8152 53.147 57.3606 53.147 56.8528C53.147 55.6955 52.344 55.2822 51.4937 54.8335L51.3402 54.7509C50.4191 54.2962 50.1121 54.0837 50.1121 53.5759C50.1121 53.2216 50.3778 52.6843 51.1159 52.702C52.0074 52.7139 52.3853 53.3515 52.4739 53.694L52.5034 53.7943L52.7277 53.7648L52.6569 52.5603L52.6156 52.5308C52.1078 52.1943 51.4701 52.147 51.2162 52.147C50.2243 52.1175 49.1674 52.7257 49.1497 53.8593L49.1379 53.8475Z" fill="#183964"/>
<path fill-rule="evenodd" clip-rule="evenodd" d="M68.6281 53.8475C68.6163 54.7686 69.1654 55.2173 70.0688 55.6719L70.4053 55.8432C71.1139 56.1974 71.5803 56.4218 71.5803 57.089C71.5803 57.2012 71.5508 57.5967 71.2556 57.9097C71.043 58.1222 70.7478 58.2226 70.3817 58.2226C69.3189 58.2108 68.9411 57.3901 68.7994 56.9059L68.7698 56.8233L68.5455 56.8646L68.6045 58.2521L68.6636 58.2816C69.0178 58.4824 69.6083 58.8189 70.4467 58.8308C71.0548 58.8308 71.663 58.5887 72.0704 58.1813C72.4364 57.8152 72.6372 57.3606 72.6372 56.8528C72.6372 55.6955 71.8342 55.2822 70.984 54.8335L70.8305 54.7509C69.9094 54.2962 69.6023 54.0837 69.6023 53.5759C69.6023 53.3515 69.7027 53.1213 69.868 52.9559C70.0511 52.7847 70.305 52.6902 70.6061 52.6902C71.4976 52.702 71.8755 53.3397 71.9641 53.6822L71.9936 53.7648L72.218 53.7353L72.1471 52.5308L72.1058 52.5013C71.598 52.1648 70.9603 52.1175 70.7065 52.1175C69.7145 52.1175 68.6577 52.7257 68.6399 53.8534L68.6281 53.8475Z" fill="#183964"/>
<path fill-rule="evenodd" clip-rule="evenodd" d="M59.1162 52.1825H58.2424L58.2542 52.336H58.266C58.3073 52.3655 58.4491 52.4659 58.4491 52.8733V56.6166C58.4491 57.337 58.1774 58.2167 56.908 58.2167C55.7035 58.2167 55.4496 57.4964 55.4496 56.4218V52.1648H54.0621L54.0739 52.3065H54.0857C54.1684 52.3478 54.3278 52.5308 54.3278 52.8851V56.4041C54.3278 58.5946 55.7685 58.8367 56.8608 58.8367C57.3981 58.8367 59.1221 58.6831 59.1221 56.6166V52.147L59.1103 52.1766L59.1162 52.1825Z" fill="#183964"/>
<path fill-rule="evenodd" clip-rule="evenodd" d="M14.9282 53.1272C14.3495 53.7648 14.0071 54.6091 14.0071 55.4889C14.0071 56.4631 14.3909 57.3429 15.0817 57.9746C15.7489 58.5828 16.6227 58.9075 17.5674 58.9075C18.0634 58.9075 19.0376 58.8248 19.9705 58.2403L20.0118 58.2108L20.124 56.841L19.9409 56.8292L19.9114 56.8882C19.2206 58.3702 18.146 58.1577 17.7327 58.1577C15.9083 58.1577 15.2883 56.8174 15.2883 55.359C15.2883 53.9597 15.9083 52.7552 17.7504 52.7552C18.3172 52.7552 19.3328 52.7434 19.8701 54.0128L19.8996 54.0837L20.0708 54.0246L19.9587 52.5958L19.9173 52.584C19.0553 52.2002 18.3645 52.0349 17.6678 52.0349C16.5519 52.023 15.6013 52.4009 14.9282 53.1213V53.1272Z" fill="#183964"/>
<path fill-rule="evenodd" clip-rule="evenodd" d="M90.7104 56.6461C89.4823 56.4454 88.1538 56.3332 87.1737 56.5044C87.1146 56.5162 87.0733 56.4749 87.0733 56.4218C87.0733 56.0852 87.0733 54.9811 86.8076 53.6113C86.8076 53.5818 86.7958 53.57 86.7663 53.5523C83.5543 51.3027 80.6612 49.8089 79.4744 49.2421C79.3918 49.2008 79.3032 49.313 79.374 49.3838C82.8399 52.5662 84.0503 57.9805 84.2097 58.7009C84.2215 58.7422 84.2687 58.7717 84.3101 58.7717C88.1951 58.0219 92.0979 58.9547 93.1902 59.25C93.2729 59.2795 93.3319 59.1673 93.2729 59.1083C92.4699 58.2462 91.6196 57.4373 90.7576 56.6757C90.7576 56.6639 90.7458 56.6461 90.7163 56.6461H90.7104Z" fill="#183964"/>
<path fill-rule="evenodd" clip-rule="evenodd" d="M93.9755 57.1952C90.8521 53.0091 86.412 49.927 85.0127 49.0118C84.93 48.9528 84.8415 49.0532 84.9005 49.1417C85.9751 50.5529 86.5242 52.1825 86.7958 53.5405C86.7958 53.57 86.8076 53.5818 86.8253 53.5995C88.1125 54.5029 89.4291 55.5243 90.7281 56.6402C90.7399 56.652 90.7576 56.652 90.7694 56.652C92.1274 56.8764 93.3732 57.1893 93.881 57.331C93.9637 57.3606 94.0227 57.272 93.9814 57.2012L93.9755 57.1952Z" fill="#183964"/>
<path fill-rule="evenodd" clip-rule="evenodd" d="M41.5863 52.1766V53.3338L41.7398 53.322V53.3102C41.7693 53.139 42.0763 52.8142 42.4601 52.8142C42.4601 52.8142 43.5642 52.8142 43.6055 52.8142C43.6055 52.8733 43.6055 58.7953 43.6055 58.7953H44.7392C44.7392 58.7953 44.7392 52.8733 44.7392 52.8319C44.7982 52.8319 45.9141 52.8319 45.9141 52.8319C46.3097 52.8319 46.5636 53.0445 46.6049 53.2393V53.2689H46.7762L46.7644 52.2061H46.7526V52.1766H41.5863Z" fill="#183964"/>
<path fill-rule="evenodd" clip-rule="evenodd" d="M20.9919 52.1766H20.9624V52.3301L20.9742 52.3419C21.0746 52.4009 21.1749 52.6371 21.1749 52.9382V58.7894H22.2791C22.2791 58.7894 22.2791 55.8373 22.2791 55.7782C22.3381 55.7782 22.775 55.7782 22.775 55.7782C23.2119 55.8077 23.3832 56.0911 23.5957 56.4572L23.6253 56.4985L23.767 56.7229C24.009 57.1185 24.3338 57.6558 24.6585 58.1636C24.9006 58.5178 25.1958 58.7304 25.5796 58.7835C25.8453 58.8248 26.3826 58.813 26.5951 58.754L26.8372 58.695L26.9376 58.6654L26.601 58.5651C26.4593 58.5237 26.2468 58.4234 25.9634 58.0986C25.7803 57.8979 25.4969 57.4314 25.06 56.7583L24.6349 56.0793L24.6231 56.0675C24.5109 55.8963 24.3102 55.6306 23.9854 55.4594C24.6054 55.2586 25.2135 54.6977 25.2135 53.8475C25.2135 53.6054 25.1545 53.1567 24.7471 52.7611C24.3397 52.3655 23.6843 52.1648 22.8105 52.1648H21.0037L20.9919 52.1766ZM22.8872 52.7729C24.0208 52.8142 24.0445 53.7766 24.0445 53.877C24.0445 54.8394 23.3359 55.176 22.716 55.176C22.716 55.176 22.3204 55.1642 22.2791 55.1642C22.2791 55.1051 22.2791 52.8319 22.2791 52.7729C22.409 52.7729 22.6156 52.7611 22.8872 52.7729Z" fill="#183964"/>
<path fill-rule="evenodd" clip-rule="evenodd" d="M32.2987 52.1766H32.2692L32.281 52.3478H32.2928C32.3932 52.3891 32.4759 52.6312 32.4759 52.826V58.7776H34.3712C35.617 58.7776 36.662 58.3938 37.3706 57.6617C37.9669 57.0535 38.2916 56.221 38.2916 55.3708C38.2916 54.863 38.1204 54.0837 37.6244 53.446C36.975 52.5958 35.9417 52.1588 34.5424 52.1588L32.2928 52.1707L32.2987 52.1766ZM33.6154 52.8142C33.6744 52.8142 34.2117 52.8142 34.2117 52.8142C34.3652 52.8142 34.7608 52.826 35.0442 52.8733C36.91 53.1567 37.1108 54.7272 37.1108 55.3767C37.1108 55.914 37.0104 56.6934 36.5439 57.2838C36.0893 57.8624 35.3867 58.1577 34.4243 58.1577C34.1999 58.1577 33.9165 58.1577 33.6036 58.1458C33.6154 58.1045 33.6154 52.8733 33.6154 52.8142Z" fill="#183964"/>
<path fill-rule="evenodd" clip-rule="evenodd" d="M40.5825 52.1765H39.2835V52.33L39.2953 52.3419C39.4075 52.4009 39.4961 52.6076 39.4961 52.891V58.7835H40.6002V52.1824L40.5884 52.1706L40.5825 52.1765Z" fill="#183964"/>
<path fill-rule="evenodd" clip-rule="evenodd" d="M30.8699 52.1766H27.1501L27.162 52.3301H27.1738C27.2741 52.3891 27.3863 52.6135 27.3863 52.9264V58.7776H31.0883L31.3599 57.6026L31.2064 57.5436L31.1651 57.6145C30.8522 58.0927 30.5451 58.1518 29.4705 58.1518C29.0868 58.1636 28.7089 58.1222 28.4786 58.1104C28.4786 58.0691 28.4786 55.4653 28.4786 55.4121C28.5377 55.4121 30.3562 55.4121 30.3562 55.4121V54.8158C30.3562 54.8158 28.5318 54.8158 28.4786 54.8158C28.4786 54.7568 28.4786 52.8083 28.4786 52.767C28.5377 52.767 30.0078 52.7788 30.0078 52.7788C30.3444 52.7788 30.7282 53.1035 30.7577 53.3043V53.3338H30.9112L30.8699 52.1766Z" fill="#183964"/>
<path fill-rule="evenodd" clip-rule="evenodd" d="M61.8736 52.1766H60.5746L60.5864 52.3301H60.5982C60.7104 52.3891 60.799 52.6135 60.799 52.8969V58.7894H61.9031V52.1884L61.8736 52.1766Z" fill="#183964"/>
<path fill-rule="evenodd" clip-rule="evenodd" d="M77.3075 52.1765H73.6054L73.6173 52.3478H73.6291C73.7294 52.4068 73.8416 52.6194 73.8416 52.9264V58.7776H77.5436L77.8093 57.6026L77.6381 57.5436L77.5968 57.6144C77.2839 58.0927 76.9768 58.1517 75.914 58.1517C75.5303 58.1635 75.1524 58.1222 74.9221 58.1104C74.9221 58.0691 74.9221 55.4653 74.9221 55.4121C74.9812 55.4121 76.7997 55.4121 76.7997 55.4121V54.8158C76.7997 54.8158 74.9753 54.8158 74.9221 54.8158C74.9221 54.7567 74.9221 52.8083 74.9221 52.767C74.9812 52.767 76.4513 52.7788 76.4513 52.7788C76.8765 52.7788 77.1894 53.0917 77.1894 53.3043V53.3338L77.3606 53.322L77.3311 52.1647L77.3016 52.1765H77.3075Z" fill="#183964"/>
<path fill-rule="evenodd" clip-rule="evenodd" d="M63.6685 53.8475C63.6566 54.7685 64.2057 55.2173 65.1091 55.6719L65.4457 55.8431C66.1542 56.1974 66.6206 56.4218 66.6206 57.0889C66.6206 57.2011 66.5911 57.5967 66.2959 57.9097C66.0833 58.1222 65.7881 58.2226 65.422 58.2226C64.3593 58.2108 63.9814 57.3901 63.8397 56.9059L63.8102 56.8233L63.5858 56.8646L63.6448 58.2521L63.7039 58.2816C64.0581 58.4824 64.6486 58.8189 65.487 58.8307C66.0951 58.8307 66.7033 58.5887 67.1107 58.1813C67.4768 57.8152 67.6775 57.3605 67.6775 56.8528C67.6775 55.6955 66.8745 55.2822 66.0243 54.8335L65.8708 54.7508C64.9497 54.2962 64.6427 54.0836 64.6427 53.5759C64.6427 53.2216 64.9084 52.6843 65.6464 52.702C66.538 52.7138 66.9158 53.3515 67.0044 53.694L67.0339 53.7943L67.2583 53.7648L67.1756 52.5485L67.1343 52.519C66.6265 52.1824 65.9889 52.1352 65.735 52.1352C64.743 52.1234 63.698 52.7315 63.6862 53.8593L63.6685 53.8475Z" fill="#183964"/>
<path fill-rule="evenodd" clip-rule="evenodd" d="M49.1379 53.8475C49.1261 54.7686 49.6752 55.2173 50.5786 55.6719L50.9151 55.8432C51.6236 56.1974 52.0901 56.4218 52.0901 57.089C52.0901 57.2012 52.0606 57.5967 51.7653 57.9097C51.5528 58.1222 51.2576 58.2226 50.8915 58.2226C49.8287 58.2108 49.4508 57.3901 49.3091 56.9059L49.2796 56.8233L49.0552 56.8646L49.1143 58.2521L49.1733 58.2816C49.5276 58.4824 50.118 58.8189 50.9564 58.8307C51.5646 58.8307 52.1727 58.5887 52.5801 58.1813C52.9462 57.8152 53.147 57.3606 53.147 56.8528C53.147 55.6955 52.344 55.2822 51.4937 54.8335L51.3402 54.7509C50.4191 54.2962 50.1121 54.0837 50.1121 53.5759C50.1121 53.2216 50.3778 52.6843 51.1159 52.702C52.0074 52.7139 52.3853 53.3515 52.4739 53.694L52.5034 53.7943L52.7277 53.7648L52.6569 52.5603L52.6156 52.5308C52.1078 52.1943 51.4701 52.147 51.2162 52.147C50.2243 52.1175 49.1674 52.7257 49.1497 53.8593L49.1379 53.8475Z" fill="#183964"/>
<path fill-rule="evenodd" clip-rule="evenodd" d="M68.6281 53.8475C68.6163 54.7686 69.1654 55.2173 70.0688 55.6719L70.4053 55.8432C71.1139 56.1974 71.5803 56.4218 71.5803 57.089C71.5803 57.2012 71.5508 57.5967 71.2556 57.9097C71.043 58.1222 70.7478 58.2226 70.3817 58.2226C69.3189 58.2108 68.9411 57.3901 68.7994 56.9059L68.7698 56.8233L68.5455 56.8646L68.6045 58.2521L68.6636 58.2816C69.0178 58.4824 69.6083 58.8189 70.4467 58.8308C71.0548 58.8308 71.663 58.5887 72.0704 58.1813C72.4364 57.8152 72.6372 57.3606 72.6372 56.8528C72.6372 55.6955 71.8342 55.2822 70.984 54.8335L70.8305 54.7509C69.9094 54.2962 69.6023 54.0837 69.6023 53.5759C69.6023 53.3515 69.7027 53.1213 69.868 52.9559C70.0511 52.7847 70.305 52.6902 70.6061 52.6902C71.4976 52.702 71.8755 53.3397 71.9641 53.6822L71.9936 53.7648L72.218 53.7353L72.1471 52.5308L72.1058 52.5013C71.598 52.1648 70.9603 52.1175 70.7065 52.1175C69.7145 52.1175 68.6577 52.7257 68.6399 53.8534L68.6281 53.8475Z" fill="#183964"/>
<path fill-rule="evenodd" clip-rule="evenodd" d="M59.1162 52.1825H58.2424L58.2542 52.336H58.266C58.3073 52.3655 58.4491 52.4659 58.4491 52.8733V56.6166C58.4491 57.337 58.1774 58.2167 56.908 58.2167C55.7035 58.2167 55.4496 57.4964 55.4496 56.4218V52.1648H54.0621L54.0739 52.3065H54.0857C54.1684 52.3478 54.3278 52.5308 54.3278 52.8851V56.4041C54.3278 58.5946 55.7685 58.8367 56.8608 58.8367C57.3981 58.8367 59.1221 58.6831 59.1221 56.6166V52.147L59.1103 52.1766L59.1162 52.1825Z" fill="#183964"/>
<path fill-rule="evenodd" clip-rule="evenodd" d="M14.9282 53.1272C14.3495 53.7648 14.0071 54.6091 14.0071 55.4889C14.0071 56.4631 14.3909 57.3429 15.0817 57.9746C15.7489 58.5828 16.6227 58.9075 17.5674 58.9075C18.0634 58.9075 19.0376 58.8248 19.9705 58.2403L20.0118 58.2108L20.124 56.841L19.9409 56.8292L19.9114 56.8882C19.2206 58.3702 18.146 58.1577 17.7327 58.1577C15.9083 58.1577 15.2883 56.8174 15.2883 55.359C15.2883 53.9597 15.9083 52.7552 17.7504 52.7552C18.3172 52.7552 19.3328 52.7434 19.8701 54.0128L19.8996 54.0837L20.0708 54.0246L19.9587 52.5958L19.9173 52.584C19.0553 52.2002 18.3645 52.0349 17.6678 52.0349C16.5519 52.023 15.6013 52.4009 14.9282 53.1213V53.1272Z" fill="#183964"/>
<path fill-rule="evenodd" clip-rule="evenodd" d="M90.7104 56.6461C89.4823 56.4454 88.1538 56.3332 87.1737 56.5044C87.1146 56.5162 87.0733 56.4749 87.0733 56.4218C87.0733 56.0852 87.0733 54.9811 86.8076 53.6113C86.8076 53.5818 86.7958 53.57 86.7663 53.5523C83.5543 51.3027 80.6612 49.8089 79.4744 49.2421C79.3918 49.2008 79.3032 49.313 79.374 49.3838C82.8399 52.5662 84.0503 57.9805 84.2097 58.7009C84.2215 58.7422 84.2687 58.7717 84.3101 58.7717C88.1951 58.0219 92.0979 58.9547 93.1902 59.25C93.2729 59.2795 93.3319 59.1673 93.2729 59.1083C92.4699 58.2462 91.6196 57.4373 90.7576 56.6757C90.7576 56.6639 90.7458 56.6461 90.7163 56.6461H90.7104Z" fill="#183964"/>
<path fill-rule="evenodd" clip-rule="evenodd" d="M93.9755 57.1952C90.8521 53.0091 86.412 49.927 85.0127 49.0118C84.93 48.9528 84.8415 49.0532 84.9005 49.1417C85.9751 50.5529 86.5242 52.1825 86.7958 53.5405C86.7958 53.57 86.8076 53.5818 86.8253 53.5995C88.1125 54.5029 89.4291 55.5243 90.7281 56.6402C90.7399 56.652 90.7576 56.652 90.7694 56.652C92.1274 56.8764 93.3732 57.1893 93.881 57.331C93.9637 57.3606 94.0227 57.272 93.9814 57.2012L93.9755 57.1952Z" fill="#183964"/>
</svg>
