<svg width="108" height="108" viewBox="0 0 108 108" fill="none" xmlns="http://www.w3.org/2000/svg">
<path d="M15.915 56.8532H16.7797C17.2733 56.8532 17.672 56.8926 18.1117 57.4002C18.4228 57.7511 18.7647 58.5266 18.7647 59.781C18.7647 60.2314 18.768 60.6772 18.6827 61.1354C18.5457 61.8581 18.2122 63.0165 16.3047 63.0165C15.7943 63.0165 15.915 63.0033 15.915 63.0033V56.8541V56.8532ZM16.896 64.0857C19.4633 64.0857 20.6127 62.9402 20.6127 59.8114C20.6127 58.9842 20.3696 57.5978 19.5992 56.7521C18.8023 55.884 17.7719 55.7756 16.9016 55.7756H14.04V64.0857H16.896V64.0857Z" fill="#046148"/>
<path d="M24.9986 61.9333C24.9986 62.2084 24.9907 62.5779 24.6988 62.8424C24.4539 63.0579 24.1092 63.0743 23.9778 63.0743C23.6521 63.0743 23.359 62.9558 23.2354 62.5532C23.2046 62.4263 23.1922 62.2983 23.1922 62.1759C23.1922 61.5688 23.5948 61.3134 24.0423 61.2044C24.2769 61.1501 24.4348 61.1398 24.9986 61.0928V61.9334L24.9986 61.9333ZM24.9986 60.3436L24.0631 60.4357C23.0552 60.5512 22.6694 60.6433 22.2382 60.9298C21.5419 61.4032 21.5329 62.0955 21.5329 62.323C21.5329 62.8907 21.7052 63.318 21.94 63.5639C22.2494 63.9244 22.7396 64.0564 23.213 64.0564C24.3737 64.0564 24.9273 63.5291 24.9273 63.5291L24.9353 63.9042H26.5002V59.973C26.5002 59.5305 26.5108 58.9083 26.0033 58.4681C25.7377 58.2406 25.5052 58.1357 25.1458 58.0846C24.7887 58.0204 24.6646 57.9946 24.3164 57.9946C23.2608 57.9946 22.4645 58.1803 22.0108 58.9879C21.8161 59.3378 21.8261 59.6887 21.8261 59.9571H23.2608C23.274 59.7231 23.2845 59.399 23.4674 59.1738C23.56 59.0458 23.7768 58.8633 24.1783 58.8633C24.3092 58.8633 24.6893 58.8633 24.883 59.18C24.991 59.3671 24.9999 59.6101 24.9999 59.8858V60.3435L24.9986 60.3436Z" fill="#046148"/>
<path d="M37.4575 61.9333C37.4575 62.2084 37.4496 62.5779 37.1554 62.8424C36.9169 63.0579 36.5708 63.0743 36.431 63.0743C36.1076 63.0743 35.819 62.9558 35.6938 62.5532C35.6624 62.4263 35.6534 62.2983 35.6534 62.1759C35.6534 61.5688 36.0537 61.3134 36.5035 61.2044C36.7381 61.1501 36.8943 61.1398 37.4576 61.0928V61.9334L37.4575 61.9333ZM37.4575 60.3436L36.5259 60.4357C35.5118 60.5512 35.1317 60.6433 34.6976 60.9298C34.0053 61.4032 33.9946 62.0955 33.9946 62.323C33.9946 62.8907 34.1618 63.318 34.3944 63.5639C34.7083 63.9244 35.2013 64.0564 35.6724 64.0564C36.8359 64.0564 37.3884 63.5291 37.3884 63.5291L37.3964 63.9042H38.9557V59.973C38.9557 59.5305 38.9689 58.9083 38.4644 58.4681C38.1988 58.2406 37.9618 58.1357 37.6069 58.0846C37.2481 58.0204 37.1257 57.9946 36.7753 57.9946C35.7202 57.9946 34.9256 58.1803 34.4691 58.9879C34.2771 59.3378 34.2895 59.6887 34.2895 59.9571H35.7202C35.7334 59.7231 35.7439 59.399 35.9273 59.1738C36.0189 59.0458 36.2356 58.8633 36.6377 58.8633C36.7686 58.8633 37.1481 58.8633 37.3469 59.18C37.4495 59.3671 37.4585 59.6101 37.4585 59.8858V60.3435L37.4575 60.3436Z" fill="#046148"/>
<path d="M61.0339 63.904H59.401V60.3855C59.401 60.1605 59.401 59.9728 59.3825 59.7813C59.3667 59.5971 59.3139 58.9997 58.602 58.9997C58.4134 58.9997 58.2533 59.0464 58.1511 59.0897C57.6699 59.3102 57.6575 59.7012 57.6457 60.0117V63.9042H56.0095V58.1463H57.6457V58.801C58.0568 58.4332 58.4285 58.0306 59.3466 58.0306C60.1176 58.0306 60.4994 58.3293 60.6572 58.5141C61.0205 58.9223 61.0205 59.4518 61.0345 59.8646V63.9042L61.0339 63.904Z" fill="#046148"/>
<path d="M32.7931 63.904H31.1613V60.3855C31.1613 60.1605 31.1613 59.9728 31.1344 59.7813C31.1238 59.5971 31.0682 58.9997 30.3522 58.9997C30.1696 58.9997 30.0097 59.0464 29.9075 59.0897C29.4251 59.3102 29.4111 59.7012 29.3976 60.0117V63.9042H27.7625V58.1463H29.3976V58.801C29.8165 58.4332 30.1837 58.0306 31.1007 58.0306C31.8762 58.0306 32.2513 58.3293 32.4136 58.5141C32.7802 58.9223 32.7802 59.4518 32.7932 59.8646V63.9042L32.7931 63.904Z" fill="#046148"/>
<path d="M40.1555 58.1435H41.7901V58.8134C42.104 58.5332 42.6576 58.0255 43.6392 58.0255C44.7622 58.0255 45.0744 58.696 45.1508 58.9172C45.8196 58.2704 46.2593 58.0255 46.9 58.0255C47.2138 58.0255 47.4289 58.0767 47.6367 58.1525C48.5172 58.4905 48.5362 59.2733 48.5525 59.7809V63.9003H46.8893V60.1481C46.8814 59.7405 46.8682 59.5097 46.7624 59.3289C46.7413 59.2822 46.5787 58.9953 46.1655 58.9953C46.0256 58.9953 45.7589 59.0291 45.6337 59.098C45.1761 59.3164 45.1587 59.6966 45.1508 60.0049V63.9002H43.5302V60.1722C43.5302 59.7291 43.5355 58.9952 42.7975 58.9952C42.6307 58.9952 42.3404 59.0424 42.1972 59.1216C41.7901 59.3725 41.7788 59.7404 41.7901 60.2525V63.9002H40.1555V58.1434V58.1435Z" fill="#046148"/>
<path d="M53.3799 60.9007C53.3799 61.2275 53.3667 61.5414 53.3326 61.8581C53.2983 62.1759 53.2427 62.8149 52.7532 63.0833C52.6122 63.1506 52.464 63.186 52.3118 63.186C51.3847 63.186 51.301 62.2134 51.2819 61.858C51.2608 61.5929 51.2442 61.3335 51.2442 61.0758C51.2442 60.8454 51.26 60.5254 51.2935 60.1481C51.3268 59.8432 51.3946 59.2598 51.8663 58.9841C52.0275 58.9025 52.1825 58.869 52.3627 58.869C53.2426 58.869 53.3224 59.7922 53.3431 60.1482C53.3669 60.4004 53.3796 60.6541 53.3796 60.9006L53.3799 60.9007ZM55.0467 60.9299C55.0467 60.4189 55.0467 59.4626 54.4785 58.8135C53.7928 57.9948 52.8113 57.9948 52.4637 57.9948C52.0605 57.9948 51.1334 58.0106 50.4057 58.6709C49.5825 59.4048 49.5825 60.5767 49.5825 61.1697C49.5825 62.295 49.8364 63.4849 51.2598 63.9004C51.6742 64.0268 51.8943 64.0492 52.3115 64.0492C52.7018 64.0492 53.6777 64.0492 54.4027 63.2434C55.0467 62.5303 55.0467 61.4611 55.0467 60.9299" fill="#046148"/>
<path d="M26.686 49.9104H41.8112L28.3964 45.7959L26.686 46.7148L20.8808 48.2127L26.686 49.9104Z" fill="#EF9826"/>
<path d="M14.0401 44.0401V49.9103H26.6879V46.7146L14.0401 44.0401V44.0401Z" fill="#EB712D"/>
<path d="M41.8176 49.9104L26.6861 44.0402L26.6884 46.7148L41.8177 49.9104H41.8176Z" fill="#FEC02B"/>
<path d="M93.96 60.9451V49.9066H73.5878L69.3535 52.9592L73.5878 56.6376L93.96 60.9451Z" fill="#EF9826"/>
<path d="M73.5877 56.6377L68.0499 51.8632L41.8193 49.9145L73.5877 60.9519V56.6377Z" fill="#FEC02B"/>
<path d="M41.8126 49.9066V49.9118L73.5878 56.6361V49.9079H41.8126V49.9066Z" fill="#EB712D"/>
</svg>
