<svg width="108" height="108" viewBox="0 0 108 108" fill="none" xmlns="http://www.w3.org/2000/svg">
<path d="M15.9149 56.8532H16.7797C17.2733 56.8532 17.672 56.8925 18.1116 57.4001C18.4227 57.7511 18.7647 58.5266 18.7647 59.781C18.7647 60.2313 18.768 60.6772 18.6827 61.1354C18.5457 61.8581 18.2122 63.0165 16.3046 63.0165C15.7942 63.0165 15.9149 63.0033 15.9149 63.0033V56.8532ZM16.8959 64.0857C19.4632 64.0857 20.6127 62.9401 20.6127 59.8113C20.6127 58.9842 20.3695 57.5978 19.5991 56.7521C18.8023 55.884 17.7719 55.7756 16.9015 55.7756H14.04V64.0857H16.8959Z" fill="#046148"/>
<path d="M24.9986 61.9332C24.9986 62.2084 24.9907 62.5779 24.6987 62.8423C24.4539 63.0579 24.1091 63.0743 23.9777 63.0743C23.6521 63.0743 23.3589 62.9558 23.2354 62.5532C23.2045 62.4263 23.1921 62.2983 23.1921 62.1758C23.1921 61.5688 23.5947 61.3133 24.0423 61.2044C24.2768 61.15 24.4348 61.1397 24.9986 61.0928L24.9986 61.9332ZM24.9986 60.3435L24.0631 60.4356C23.0552 60.5512 22.6694 60.6433 22.2381 60.9298C21.5418 61.4032 21.5329 62.0955 21.5329 62.3229C21.5329 62.8906 21.7052 63.3179 21.94 63.5639C22.2493 63.9244 22.7396 64.0564 23.2129 64.0564C24.3736 64.0564 24.9273 63.5291 24.9273 63.5291L24.9352 63.9042H26.5002V59.9729C26.5002 59.5305 26.5108 58.9083 26.0032 58.468C25.7376 58.2406 25.5052 58.1356 25.1458 58.0845C24.7887 58.0204 24.6646 57.9945 24.3164 57.9945C23.2607 57.9945 22.4645 58.1803 22.0108 58.9879C21.8161 59.3377 21.8261 59.6887 21.8261 59.9571H23.2608C23.274 59.7231 23.2845 59.3989 23.4674 59.1737C23.56 59.0458 23.7768 58.8632 24.1783 58.8632C24.3091 58.8632 24.6893 58.8632 24.883 59.1799C24.9909 59.367 24.9999 59.6101 24.9999 59.8858V60.3434L24.9986 60.3435Z" fill="#046148"/>
<path d="M37.4575 61.9332C37.4575 62.2084 37.4496 62.5779 37.1554 62.8423C36.9168 63.0579 36.5708 63.0743 36.431 63.0743C36.1076 63.0743 35.8189 62.9558 35.6937 62.5532C35.6623 62.4263 35.6533 62.2983 35.6533 62.1758C35.6533 61.5688 36.0537 61.3133 36.5035 61.2044C36.7381 61.15 36.8943 61.1397 37.4575 61.0928L37.4575 61.9332ZM37.4575 60.3435L36.5259 60.4356C35.5118 60.5512 35.1316 60.6433 34.6976 60.9298C34.0052 61.4032 33.9945 62.0955 33.9945 62.3229C33.9945 62.8906 34.1618 63.3179 34.3943 63.5639C34.7082 63.9244 35.2012 64.0564 35.6724 64.0564C36.8359 64.0564 37.3884 63.5291 37.3884 63.5291L37.3963 63.9042H38.9557V59.9729C38.9557 59.5305 38.9689 58.9083 38.4644 58.468C38.1988 58.2406 37.9618 58.1356 37.6069 58.0845C37.2481 58.0204 37.1257 57.9945 36.7753 57.9945C35.7202 57.9945 34.9256 58.1803 34.4691 58.9879C34.277 59.3377 34.2894 59.6887 34.2894 59.9571H35.7202C35.7334 59.7231 35.7439 59.3989 35.9273 59.1737C36.0189 59.0458 36.2356 58.8632 36.6376 58.8632C36.7685 58.8632 37.1481 58.8632 37.3469 59.1799C37.4495 59.367 37.4585 59.6101 37.4585 59.8858V60.3434L37.4575 60.3435Z" fill="#046148"/>
<path d="M61.0339 63.9041H59.401V60.3856C59.401 60.1605 59.401 59.9728 59.3825 59.7813C59.3666 59.5972 59.3139 58.9997 58.602 58.9997C58.4133 58.9997 58.2533 59.0464 58.1511 59.0897C57.6698 59.3103 57.6575 59.7012 57.6457 60.0117V63.9042H56.0094V58.1463H57.6457V58.8011C58.0567 58.4332 58.4285 58.0306 59.3465 58.0306C60.1175 58.0306 60.4994 58.3294 60.6572 58.5141C61.0205 58.9223 61.0205 59.4519 61.0345 59.8646L61.0339 63.9041Z" fill="#046148"/>
<path d="M32.7931 63.9041H31.1613V60.3856C31.1613 60.1605 31.1613 59.9728 31.1344 59.7813C31.1238 59.5972 31.0681 58.9997 30.3522 58.9997C30.1696 58.9997 30.0096 59.0464 29.9074 59.0897C29.4251 59.3103 29.411 59.7012 29.3976 60.0117V63.9042H27.7624V58.1463H29.3976V58.8011C29.8165 58.4332 30.1837 58.0306 31.1007 58.0306C31.8762 58.0306 32.2512 58.3294 32.4135 58.5141C32.7802 58.9223 32.7802 59.4519 32.7931 59.8646L32.7931 63.9041Z" fill="#046148"/>
<path d="M40.1554 58.1435H41.79V58.8134C42.1039 58.5332 42.6576 58.0256 43.6391 58.0256C44.7622 58.0256 45.0744 58.696 45.1508 58.9173C45.8195 58.2704 46.2592 58.0256 46.8999 58.0256C47.2138 58.0256 47.4289 58.0768 47.6366 58.1525C48.5171 58.4905 48.5362 59.2733 48.5525 59.7809V63.9003H46.8893V60.1482C46.8813 59.7405 46.8682 59.5097 46.7623 59.3289C46.7412 59.2822 46.5787 58.9953 46.1654 58.9953C46.0256 58.9953 45.7589 59.0291 45.6337 59.098C45.176 59.3165 45.1586 59.6966 45.1508 60.0049V63.9002H43.5302V60.1722C43.5302 59.7291 43.5355 58.9952 42.7974 58.9952C42.6306 58.9952 42.3403 59.0425 42.1971 59.1216C41.79 59.3726 41.7788 59.7404 41.79 60.2525V63.9002H40.1554V58.1435Z" fill="#046148"/>
<path d="M53.3798 60.9007C53.3798 61.2275 53.3666 61.5414 53.3326 61.8581C53.2983 62.1759 53.2426 62.8149 52.7531 63.0833C52.6122 63.1506 52.4639 63.186 52.3118 63.186C51.3847 63.186 51.301 62.2134 51.2819 61.858C51.2608 61.5929 51.2442 61.3335 51.2442 61.0758C51.2442 60.8454 51.26 60.5255 51.2935 60.1481C51.3268 59.8432 51.3946 59.2598 51.8663 58.9841C52.0275 58.9026 52.1824 58.869 52.3627 58.869C53.2426 58.869 53.3223 59.7922 53.3431 60.1482C53.3668 60.4005 53.3798 60.6542 53.3798 60.9007ZM55.0467 60.9299C55.0467 60.4189 55.0467 59.4626 54.4784 58.8135C53.7928 57.9948 52.8112 57.9948 52.4637 57.9948C52.0605 57.9948 51.1334 58.0106 50.4057 58.6709C49.5825 59.4048 49.5825 60.5767 49.5825 61.1697C49.5825 62.295 49.8363 63.4849 51.2597 63.9004C51.6742 64.0268 51.8943 64.0492 52.3115 64.0492C52.7017 64.0492 53.6777 64.0492 54.4026 63.2434C55.0467 62.5303 55.0467 61.4611 55.0467 60.9299Z" fill="#046148"/>
<path d="M26.6859 49.9103H41.8112L28.3964 45.7958L26.6859 46.7147L20.8808 48.2127L26.6859 49.9103Z" fill="#EF9826"/>
<path d="M14.0401 44.04V49.9102H26.6879V46.7146L14.0401 44.04Z" fill="#EB712D"/>
<path d="M41.8176 49.9103L26.6861 44.0401L26.6879 46.7146L41.8176 49.9103Z" fill="#FEC02B"/>
<path d="M93.96 60.9451V49.9066H73.5878L69.3535 52.9592L73.5878 56.6376L93.96 60.9451Z" fill="#EF9826"/>
<path d="M73.5878 56.6376L68.0499 51.8632L41.8193 49.9145L73.5877 60.9519L73.5878 56.6376Z" fill="#FEC02B"/>
<path d="M41.8126 49.9065V49.9118L73.5877 56.636V49.9078H41.8126V49.9065Z" fill="#EB712D"/>
<path d="M42.1049 70.3442C42.1179 70.5767 42.1728 70.7655 42.2695 70.9106C42.4537 71.1821 42.7783 71.3179 43.2433 71.3179C43.4516 71.3179 43.6414 71.2882 43.8125 71.2286C44.1436 71.1133 44.3092 70.9068 44.3092 70.6092C44.3092 70.386 44.2394 70.227 44.0999 70.1321C43.9585 70.0391 43.7372 69.9582 43.4358 69.8894L42.8806 69.7638C42.5179 69.682 42.2612 69.5917 42.1105 69.4932C41.8501 69.322 41.7199 69.0663 41.7199 68.7259C41.7199 68.3575 41.8473 68.0553 42.1021 67.819C42.357 67.5828 42.7178 67.4647 43.1847 67.4647C43.6144 67.4647 43.979 67.5689 44.2785 67.7772C44.5798 67.9837 44.7305 68.3148 44.7305 68.7705H44.2087C44.1808 68.551 44.1213 68.3827 44.0301 68.2655C43.8609 68.0516 43.5735 67.9446 43.168 67.9446C42.8406 67.9446 42.6053 68.0134 42.4621 68.1511C42.3188 68.2887 42.2472 68.4487 42.2472 68.631C42.2472 68.8319 42.3309 68.9788 42.4983 69.0718C42.6081 69.1314 42.8564 69.2058 43.2433 69.295L43.8181 69.4262C44.0952 69.4894 44.3092 69.5759 44.4598 69.6857C44.7202 69.8773 44.8504 70.1554 44.8504 70.5199C44.8504 70.9738 44.6849 71.2984 44.3538 71.4937C44.0246 71.689 43.6414 71.7867 43.2042 71.7867C42.6946 71.7867 42.2956 71.6565 42.0073 71.3961C41.7189 71.1375 41.5776 70.7869 41.5831 70.3442H42.1049Z" fill="#046148"/>
<path d="M47.3532 68.6784H47.9085C47.8378 68.87 47.6806 69.3071 47.4369 69.9898C47.2547 70.5032 47.1021 70.9217 46.9794 71.2454C46.6892 72.008 46.4846 72.4731 46.3655 72.6405C46.2465 72.8079 46.0419 72.8916 45.7517 72.8916C45.681 72.8916 45.6261 72.8888 45.5871 72.8832C45.5499 72.8776 45.5033 72.8674 45.4475 72.8525V72.3949C45.535 72.4191 45.5982 72.434 45.6373 72.4396C45.6763 72.4452 45.7108 72.448 45.7405 72.448C45.8335 72.448 45.9014 72.4321 45.9442 72.4005C45.9888 72.3708 46.026 72.3336 46.0558 72.2889C46.0651 72.274 46.0986 72.1978 46.1562 72.0601C46.2139 71.9225 46.2558 71.8202 46.2818 71.7532L45.1769 68.6784H45.7461L46.5469 71.1115L47.3532 68.6784Z" fill="#046148"/>
<path d="M48.7288 70.8715C48.7288 71.0166 48.7818 71.131 48.8878 71.2147C48.9939 71.2984 49.1194 71.3402 49.2645 71.3402C49.4412 71.3402 49.6124 71.2993 49.7779 71.2175C50.0569 71.0817 50.1964 70.8594 50.1964 70.5506V70.1461C50.135 70.1851 50.056 70.2177 49.9593 70.2437C49.8625 70.2697 49.7677 70.2884 49.6747 70.2995L49.3705 70.3386C49.1882 70.3628 49.0515 70.4009 48.9604 70.453C48.806 70.5404 48.7288 70.6799 48.7288 70.8715ZM49.9453 69.8559C50.0606 69.841 50.1378 69.7926 50.1769 69.7108C50.1992 69.6661 50.2104 69.602 50.2104 69.5183C50.2104 69.3471 50.149 69.2234 50.0262 69.1472C49.9053 69.069 49.7314 69.03 49.5045 69.03C49.2422 69.03 49.0562 69.1007 48.9464 69.242C48.885 69.3202 48.8451 69.4364 48.8265 69.5908H48.3577C48.367 69.2225 48.486 68.9667 48.7148 68.8235C48.9455 68.6784 49.2124 68.6059 49.5156 68.6059C49.8672 68.6059 50.1527 68.6728 50.3722 68.8068C50.5898 68.9407 50.6987 69.149 50.6987 69.4318V71.1533C50.6987 71.2054 50.7089 71.2472 50.7294 71.2789C50.7517 71.3105 50.7972 71.3263 50.8661 71.3263C50.8884 71.3263 50.9135 71.3254 50.9414 71.3235C50.9693 71.3198 50.9991 71.3151 51.0307 71.3096V71.6807C50.9526 71.703 50.893 71.7169 50.8521 71.7225C50.8112 71.7281 50.7554 71.7309 50.6847 71.7309C50.5117 71.7309 50.3862 71.6695 50.308 71.5467C50.2671 71.4816 50.2383 71.3895 50.2215 71.2705C50.1192 71.4044 49.9723 71.5207 49.7807 71.6193C49.5891 71.7179 49.378 71.7671 49.1473 71.7671C48.8702 71.7671 48.6432 71.6834 48.4665 71.516C48.2917 71.3468 48.2042 71.1356 48.2042 70.8827C48.2042 70.6055 48.2907 70.3907 48.4637 70.2381C48.6367 70.0856 48.8637 69.9917 49.1445 69.9563L49.9453 69.8559Z" fill="#046148"/>
<path d="M51.5385 68.6784H52.0156V69.1946C52.0547 69.0942 52.1505 68.9723 52.303 68.8291C52.4555 68.684 52.6313 68.6115 52.8304 68.6115C52.8397 68.6115 52.8555 68.6124 52.8778 68.6142C52.9001 68.6161 52.9382 68.6198 52.9922 68.6254V69.1555C52.9624 69.15 52.9345 69.1462 52.9085 69.1444C52.8843 69.1425 52.8573 69.1416 52.8276 69.1416C52.5746 69.1416 52.3802 69.2234 52.2444 69.3871C52.1086 69.549 52.0407 69.7359 52.0407 69.948V71.6667H51.5385V68.6784Z" fill="#046148"/>
<path d="M53.4275 68.6924H53.9381V71.6667H53.4275V68.6924ZM53.4275 67.5679H53.9381V68.1371H53.4275V67.5679Z" fill="#046148"/>
<path d="M55.0848 70.8715C55.0848 71.0166 55.1378 71.131 55.2439 71.2147C55.3499 71.2984 55.4754 71.3402 55.6205 71.3402C55.7972 71.3402 55.9684 71.2993 56.1339 71.2175C56.4129 71.0817 56.5525 70.8594 56.5525 70.5506V70.1461C56.4911 70.1851 56.412 70.2177 56.3153 70.2437C56.2186 70.2697 56.1237 70.2884 56.0307 70.2995L55.7266 70.3386C55.5443 70.3628 55.4076 70.4009 55.3164 70.453C55.162 70.5404 55.0848 70.6799 55.0848 70.8715ZM56.3013 69.8559C56.4167 69.841 56.4939 69.7926 56.5329 69.7108C56.5552 69.6661 56.5664 69.602 56.5664 69.5183C56.5664 69.3471 56.505 69.2234 56.3823 69.1472C56.2613 69.069 56.0874 69.03 55.8605 69.03C55.5982 69.03 55.4122 69.1007 55.3025 69.242C55.2411 69.3202 55.2011 69.4364 55.1825 69.5908H54.7137C54.723 69.2225 54.8421 68.9667 55.0709 68.8235C55.3015 68.6784 55.5685 68.6059 55.8717 68.6059C56.2232 68.6059 56.5087 68.6728 56.7282 68.8068C56.9459 68.9407 57.0547 69.149 57.0547 69.4318V71.1533C57.0547 71.2054 57.0649 71.2472 57.0854 71.2789C57.1077 71.3105 57.1533 71.3263 57.2221 71.3263C57.2444 71.3263 57.2695 71.3254 57.2974 71.3235C57.3253 71.3198 57.3551 71.3151 57.3867 71.3096V71.6807C57.3086 71.703 57.2491 71.7169 57.2081 71.7225C57.1672 71.7281 57.1114 71.7309 57.0407 71.7309C56.8677 71.7309 56.7422 71.6695 56.6641 71.5467C56.6231 71.4816 56.5943 71.3895 56.5776 71.2705C56.4753 71.4044 56.3283 71.5207 56.1367 71.6193C55.9451 71.7179 55.734 71.7671 55.5033 71.7671C55.2262 71.7671 54.9993 71.6834 54.8225 71.516C54.6477 71.3468 54.5603 71.1356 54.5603 70.8827C54.5603 70.6055 54.6468 70.3907 54.8198 70.2381C54.9927 70.0856 55.2197 69.9917 55.5006 69.9563L56.3013 69.8559Z" fill="#046148"/>
<path d="M57.8806 67.554H58.3828V69.083C58.5019 68.9323 58.6088 68.8263 58.7037 68.7649C58.8655 68.6589 59.0673 68.6059 59.3092 68.6059C59.7426 68.6059 60.0365 68.7575 60.1908 69.0607C60.2746 69.2262 60.3164 69.4559 60.3164 69.7498V71.6667H59.8002V69.7833C59.8002 69.5638 59.7723 69.4029 59.7165 69.3006C59.6254 69.1369 59.4542 69.0551 59.2031 69.0551C58.9948 69.0551 58.806 69.1267 58.6367 69.2699C58.4674 69.4132 58.3828 69.6838 58.3828 70.0819V71.6667H57.8806V67.554Z" fill="#046148"/>
</svg>
