<svg width="108" height="108" viewBox="0 0 108 108" fill="none" xmlns="http://www.w3.org/2000/svg">
<path d="M14 37.9999V43.7366H27.0382V40.6638L14 37.9999Z" fill="#F05A22"/>
<path d="M41.8728 43.7366L27.0367 37.9999L27.038 40.6746L41.8728 43.7366Z" fill="#FDBC38"/>
<path d="M27.0382 43.7366L41.8677 43.7366L27.0381 40.6634L27.0382 43.7366Z" fill="#F79433"/>
<path d="M75.937 50.9509L41.9003 43.7394L75.937 55.0705V50.9509Z" fill="#FDBC38"/>
<path d="M40.2231 52.0498H41.8651V52.7237C42.1817 52.445 42.7358 51.935 43.723 51.935C44.8475 51.935 45.1641 52.6094 45.24 52.8272C45.9102 52.1818 46.3537 51.935 46.9981 51.935C47.3101 51.935 47.5269 51.9828 47.7377 52.0624C48.6191 52.4024 48.6416 53.1874 48.6547 53.6946V57.8356H46.9883V54.065C46.9757 53.6576 46.9654 53.4276 46.8586 53.2431C46.8361 53.1958 46.6745 52.9082 46.26 52.9082C46.1205 52.9082 45.8512 52.942 45.7233 53.0122C45.2676 53.2342 45.2503 53.6075 45.24 53.9222V57.8356H43.6125V54.0889C43.6125 53.6459 43.62 52.9082 42.8749 52.9082C42.71 52.9082 42.4192 52.9565 42.2735 53.0361C41.8651 53.2904 41.8548 53.6576 41.8651 54.1709V57.8356H40.2231V52.0498ZM32.828 53.7826C32.8158 53.3621 32.8158 52.8314 32.4486 52.4235C32.2871 52.2423 31.9091 51.942 31.1307 51.942C30.209 51.942 29.8386 52.3439 29.4204 52.7148V52.0558H27.7802V57.8394H29.4204V53.9311C29.4339 53.6178 29.4475 53.2258 29.9327 53.0024C30.0329 52.9616 30.1945 52.912 30.3776 52.912C31.098 52.912 31.1556 53.5138 31.1668 53.7007C31.1921 53.8894 31.1921 54.0777 31.1921 54.3072V57.8394H32.828V53.7826ZM61.1917 53.7826C61.1744 53.3621 61.1744 52.8314 60.8123 52.4235C60.6536 52.2423 60.2667 51.942 59.4958 51.942C58.5765 51.942 58.2032 52.3439 57.7864 52.7148V52.0558H56.1434V57.8394H57.7864V53.9311C57.8018 53.6178 57.8126 53.2258 58.2941 53.0024C58.3985 52.9616 58.5563 52.912 58.7455 52.912C59.4607 52.912 59.5164 53.5138 59.5314 53.7007C59.5506 53.8894 59.5506 54.0777 59.5506 54.3072V57.8394H61.1917V53.7826ZM54.6092 52.7237C55.1796 53.3813 55.1796 54.3414 55.1796 54.85C55.1796 55.3848 55.1796 56.4592 54.5328 57.1748C53.8055 57.9846 52.8257 57.9846 52.4328 57.9846C52.0145 57.9846 51.7902 57.9616 51.3757 57.8356C49.9449 57.4188 49.6874 56.2208 49.6874 55.0907C49.6874 54.4968 49.6874 53.3222 50.5182 52.5818C51.2474 51.9219 52.1794 51.9036 52.5831 51.9036C52.9306 51.9036 53.9174 51.9036 54.6092 52.7237ZM53.4584 55.7848C53.4922 55.4644 53.5067 55.153 53.5067 54.8205C53.5067 54.5727 53.4922 54.3193 53.4716 54.065C53.4481 53.7082 53.3671 52.7813 52.482 52.7813C52.3012 52.7813 52.1466 52.8174 51.9832 52.8975C51.5106 53.1757 51.4418 53.7615 51.4123 54.065C51.3757 54.4453 51.3589 54.7661 51.3589 54.998C51.3589 55.2556 51.3757 55.5202 51.3973 55.7848C51.4151 56.1388 51.5003 57.1172 52.4328 57.1172C52.5831 57.1172 52.7353 57.0802 52.8763 57.0146C53.3671 56.743 53.4214 56.1033 53.4584 55.7848ZM38.5244 52.3799C39.0284 52.8216 39.0195 53.4431 39.0195 53.8932V57.8394H37.4538L37.444 57.4643C37.444 57.4643 36.8899 57.9907 35.7224 57.9907C35.2493 57.9907 34.7543 57.8591 34.4377 57.4975C34.2059 57.2488 34.033 56.8208 34.033 56.2517C34.033 56.0222 34.0485 55.3277 34.7393 54.85C35.1795 54.5633 35.558 54.472 36.5761 54.3517L37.5138 54.2613V53.8018C37.5138 53.5255 37.5063 53.2815 37.4009 53.0946C37.2042 52.7771 36.8234 52.7771 36.6914 52.7771C36.2834 52.7771 36.0666 52.9616 35.9781 53.0857C35.7898 53.3148 35.7786 53.6351 35.7683 53.8721H34.33C34.33 53.6028 34.3159 53.2501 34.514 52.9021C34.9697 52.0863 35.7683 51.9036 36.8295 51.9036C37.1798 51.9036 37.3039 51.9294 37.6613 51.994C38.02 52.0465 38.2566 52.1476 38.5244 52.3799ZM37.5138 55.013C36.9485 55.0612 36.7939 55.0715 36.5546 55.1291C36.1012 55.2349 35.7017 55.4939 35.7017 56.1033C35.7017 56.2255 35.7121 56.3533 35.7448 56.4859C35.868 56.8868 36.1603 57.0057 36.4834 57.0057C36.6249 57.0057 36.9719 56.9884 37.2098 56.7706C37.5063 56.5084 37.5138 56.1337 37.5138 55.8611V55.013ZM26.1677 52.3799C26.6777 52.8216 26.6665 53.4431 26.6665 53.8932V57.8394H25.0976L25.0854 57.4643C25.0854 57.4643 24.5351 57.9907 23.3661 57.9907C22.8917 57.9907 22.399 57.8591 22.0875 57.4975C21.852 57.2488 21.6801 56.8208 21.6801 56.2517C21.6801 56.0222 21.6866 55.3277 22.3873 54.85C22.8224 54.5633 23.2078 54.472 24.2213 54.3517L25.1599 54.2613V53.8018C25.1599 53.5255 25.1477 53.2815 25.0423 53.0946C24.8507 52.7771 24.4658 52.7771 24.3337 52.7771C23.9305 52.7771 23.7146 52.9616 23.6223 53.0857C23.4368 53.3148 23.4279 53.6351 23.4115 53.8721H21.9747C21.9747 53.6028 21.963 53.2501 22.1578 52.9021C22.6135 52.0863 23.4115 51.9036 24.4733 51.9036C24.8217 51.9036 24.9491 51.9294 25.3097 51.994C25.6666 52.0465 25.9031 52.1476 26.1677 52.3799ZM25.1599 55.013C24.5922 55.0612 24.4363 55.0715 24.1993 55.1291C23.7515 55.2349 23.3446 55.4939 23.3446 56.1033C23.3446 56.2255 23.3558 56.3533 23.3895 56.4859C23.516 56.8868 23.8068 57.0057 24.1337 57.0057C24.2658 57.0057 24.6124 56.9884 24.8582 56.7706C25.1477 56.5084 25.1599 56.1337 25.1599 55.8611V55.013ZM19.5768 50.6532C20.3547 51.5046 20.5973 52.8975 20.5973 53.7283C20.5973 56.8709 19.4428 58.0192 16.8679 58.0192H14.0002V49.6743H16.8679C17.7455 49.6743 18.7787 49.7872 19.5768 50.6532ZM18.6607 55.0565C18.7436 54.5957 18.7403 54.1493 18.7403 53.6946C18.7403 52.439 18.3965 51.6582 18.0879 51.306C17.6467 50.796 17.2454 50.7576 16.7456 50.7576H15.8787V56.9327C15.8787 56.9327 15.7593 56.9449 16.2721 56.9449C18.1877 56.9449 18.5216 55.7848 18.6607 55.0565Z" fill="#004E39"/>
<path d="M41.8795 43.7394L75.9223 43.7591V50.9509L41.8795 43.7394Z" fill="#F05A22"/>
<path d="M75.9223 43.7591V50.9509L93.9995 55.071L93.9916 43.7592L75.9223 43.7591Z" fill="#F79433"/>
<path d="M44.9052 69.6266V67.9124L44.1755 69.0229H44.1605L43.4243 67.9237V69.6266H42.8758V66.995H43.4894L44.1755 68.0979L44.8621 66.995H45.4536V69.6266H44.9052ZM47.0099 69.6561C46.3083 69.6561 45.892 69.2655 45.892 68.4988V66.995H46.4413V68.4834C46.4413 68.9086 46.668 69.1273 47.0174 69.1273C47.3663 69.1273 47.593 68.9166 47.593 68.5016V66.995H48.1414V68.4791C48.1414 69.2692 47.711 69.6561 47.0099 69.6561ZM49.1291 67.5429V68.0914H50.2808V68.6398H49.1291V69.6266H48.5802V66.995H50.6096V67.5429H49.1291ZM52.0825 69.6598C51.2699 69.6598 50.7201 69.0889 50.7201 68.3185V68.311C50.7201 67.571 51.2887 66.9622 52.0797 66.9622C52.5494 66.9622 52.8286 67.0886 53.1002 67.3223L52.7363 67.756C52.5358 67.5898 52.3654 67.4909 52.0638 67.4909C51.6451 67.4909 51.3228 67.8605 51.3228 68.3035V68.311C51.3228 68.7896 51.6432 69.1386 52.1059 69.1386C52.3157 69.1386 52.4745 69.0861 52.6403 68.9821V68.6398H52.0357V68.0914H53.1882V69.2467C52.9138 69.4744 52.5602 69.6598 52.0825 69.6598Z" fill="#393C3E"/>
<path d="M39.9377 66.3378C39.6506 66.3378 39.378 66.3987 39.1321 66.5097C38.8858 66.3987 38.6132 66.3378 38.3261 66.3378C37.2358 66.3378 36.3516 67.2211 36.3516 68.3114C36.3516 69.4008 37.2358 70.2855 38.3261 70.2855C38.6132 70.2855 38.8858 70.2232 39.1321 70.1131C39.378 70.2232 39.6506 70.2855 39.9377 70.2855C41.028 70.2855 41.9122 69.4008 41.9122 68.3114C41.9122 67.2211 41.028 66.3378 39.9377 66.3378ZM39.1321 70.0954C38.1463 70.0954 37.3468 69.2959 37.3468 68.3114C37.3468 67.3251 38.1463 66.5275 39.1321 66.5275C40.118 66.5275 40.917 67.3251 40.917 68.3114C40.917 69.2959 40.118 70.0954 39.1321 70.0954ZM39.9536 68.3114C39.9536 68.7648 39.5855 69.1324 39.1321 69.1324C38.6783 69.1324 38.3102 68.7648 38.3102 68.3114C38.3102 67.8576 38.6783 67.4904 39.1321 67.4904C39.5855 67.4904 39.9536 67.8576 39.9536 68.3114Z" fill="#DE2D36"/>
<path d="M14.8233 67.0844H15.4237L16.2368 69.547H15.7609L15.5642 68.9372H14.6238L14.4304 69.547H14L14.8233 67.0844ZM14.7311 68.6028H15.4575L15.0964 67.4595L14.7311 68.6028Z" fill="#393C3E"/>
<path d="M17.3976 67.7447H17.8149V68.0206C17.9006 67.852 18.0973 67.7068 18.3628 67.7068C18.597 67.7068 18.7829 67.8075 18.8724 68.0309C19.0105 67.8075 19.2583 67.7068 19.4826 67.7068C19.8128 67.7068 20.0816 67.9105 20.0816 68.4065V69.5465H19.6648V68.4337C19.6648 68.1686 19.551 68.0548 19.3445 68.0548C19.1379 68.0548 18.9482 68.1934 18.9482 68.4683V69.5465H18.5314V68.4337C18.5314 68.1686 18.4139 68.0548 18.2111 68.0548C18.0041 68.0548 17.8149 68.1934 17.8149 68.4683V69.5465H17.3976V67.7447Z" fill="#393C3E"/>
<path d="M20.4399 68.6651V68.6375C20.4399 68.0797 20.8226 67.7069 21.3363 67.7069C21.7841 67.7069 22.1873 67.9724 22.1873 68.6169V68.7372H20.8675C20.8811 69.0787 21.0534 69.2711 21.364 69.2711C21.615 69.2711 21.7461 69.1714 21.777 68.9953H22.1803C22.1217 69.3746 21.815 69.5812 21.3532 69.5812C20.8226 69.5812 20.4399 69.2327 20.4399 68.6651ZM21.7738 68.4581C21.7527 68.1485 21.5939 68.0108 21.3363 68.0108C21.0844 68.0108 20.9158 68.1794 20.8745 68.4581H21.7738Z" fill="#393C3E"/>
<path d="M22.5596 67.7447H22.9759V68.0206C23.0626 67.852 23.2588 67.7068 23.5239 67.7068C23.7585 67.7068 23.9445 67.8075 24.0339 68.0309C24.1721 67.8075 24.4203 67.7068 24.6442 67.7068C24.9748 67.7068 25.2437 67.9105 25.2437 68.4065V69.5465H24.8268V68.4337C24.8268 68.1686 24.7126 68.0548 24.5065 68.0548C24.2995 68.0548 24.1103 68.1934 24.1103 68.4683V69.5465H23.693V68.4337C23.693 68.1686 23.5759 68.0548 23.3726 68.0548C23.1656 68.0548 22.9759 68.1934 22.9759 68.4683V69.5465H22.5596V67.7447Z" fill="#393C3E"/>
<path d="M26.1397 69.2571V69.547H25.7224V66.9121H26.1397V68.0347C26.239 67.8628 26.4634 67.7074 26.7289 67.7074C27.1799 67.7074 27.5284 68.0417 27.5284 68.6239V68.652C27.5284 69.2299 27.1935 69.5812 26.7289 69.5812C26.4432 69.5812 26.2357 69.4402 26.1397 69.2571ZM27.1012 68.6581V68.6305C27.1012 68.231 26.8942 68.0347 26.6217 68.0347C26.3322 68.0347 26.1257 68.231 26.1257 68.6305V68.6581C26.1257 69.0613 26.3219 69.2505 26.6254 69.2505C26.9322 69.2505 27.1012 69.044 27.1012 68.6581Z" fill="#393C3E"/>
<path d="M27.7826 68.6651V68.6375C27.7826 68.0797 28.1657 67.7069 28.679 67.7069C29.1267 67.7069 29.53 67.9724 29.53 68.6169V68.7372H28.2102C28.2242 69.0787 28.3966 69.2711 28.7062 69.2711C28.9581 69.2711 29.0893 69.1714 29.1197 68.9953H29.5234C29.4649 69.3746 29.1581 69.5812 28.6959 69.5812C28.1657 69.5812 27.7826 69.2327 27.7826 68.6651ZM29.1164 68.4581C29.0958 68.1485 28.9371 68.0108 28.679 68.0108C28.427 68.0108 28.2584 68.1794 28.2172 68.4581H29.1164Z" fill="#393C3E"/>
<path d="M29.9018 67.7447H30.3187V68.0824C30.4325 67.8553 30.6015 67.7209 30.905 67.7176V68.1063C30.5392 68.1096 30.3187 68.2271 30.3187 68.6098V69.5465H29.9018V67.7447Z" fill="#393C3E"/>
<path d="M31.9695 68.6651V68.6375C31.9695 68.0797 32.3653 67.7069 32.8964 67.7069C33.4237 67.7069 33.82 68.0764 33.82 68.6267V68.6548C33.82 69.2159 33.4237 69.5812 32.8931 69.5812C32.362 69.5812 31.9695 69.2121 31.9695 68.6651ZM33.3928 68.6581V68.6342C33.3928 68.2619 33.206 68.0347 32.8964 68.0347C32.5863 68.0347 32.3967 68.2586 32.3967 68.6305V68.6581C32.3967 69.0262 32.5793 69.2571 32.8964 69.2571C33.206 69.2571 33.3928 69.0262 33.3928 68.6581Z" fill="#393C3E"/>
<path d="M34.2677 68.0581H34.0228V67.7447H34.2677V67.5036C34.2677 67.1073 34.4883 66.8942 34.8742 66.8942C34.9745 66.8942 35.0363 66.9045 35.1117 66.9289V67.2525C35.0634 67.2352 34.9983 67.2216 34.9225 67.2216C34.7534 67.2216 34.6846 67.3317 34.6846 67.4867V67.7447H35.0948V68.0581H34.6846V69.5465H34.2677V68.0581Z" fill="#393C3E"/>
<path d="M53.8917 69.8565L54.2045 69.0407L54.6017 69.198L54.1498 69.9703L53.8917 69.8565Z" fill="#393C3E"/>
<path d="M55.7384 69.0468C55.7384 68.6267 56.1444 68.4759 56.6619 68.4759H56.8858V68.3827C56.8858 68.141 56.8034 68.0211 56.5584 68.0211C56.3411 68.0211 56.2334 68.1242 56.2147 68.304H55.8105C55.8447 67.883 56.1791 67.7074 56.5823 67.7074C56.986 67.7074 57.3026 67.8736 57.3026 68.3654V69.547H56.8919V69.3264C56.7762 69.4814 56.617 69.5812 56.3411 69.5812C56.0109 69.5812 55.7384 69.4229 55.7384 69.0468ZM56.8858 68.9166V68.7377H56.6722C56.3556 68.7377 56.1519 68.8103 56.1519 69.0299C56.1519 69.1822 56.2334 69.2814 56.4409 69.2814C56.6966 69.2814 56.8858 69.1475 56.8858 68.9166Z" fill="#393C3E"/>
<path d="M58.5011 69.6088H58.9221C58.9563 69.7877 59.0945 69.8907 59.3666 69.8907C59.6902 69.8907 59.8691 69.7287 59.8691 69.4051V69.1405C59.7703 69.3128 59.5455 69.4739 59.2804 69.4739C58.8294 69.4739 58.481 69.1367 58.481 68.6168V68.592C58.481 68.0858 58.8252 67.7069 59.2912 67.7069C59.5877 67.7069 59.7661 67.8422 59.8691 68.0206V67.7448H60.2869V69.4126C60.2822 69.9432 59.9281 70.2078 59.3703 70.2078C58.8046 70.2078 58.5489 69.9526 58.5011 69.6088ZM59.8836 68.6023V68.5784C59.8836 68.238 59.6972 68.0342 59.397 68.0342C59.0875 68.0342 58.9086 68.2581 58.9086 68.5859V68.6131C58.9086 68.947 59.1151 69.1536 59.3835 69.1536C59.6729 69.1536 59.8836 68.947 59.8836 68.6023Z" fill="#393C3E"/>
<path d="M60.7927 69.5469H61.2091V66.912H60.7927V69.5469Z" fill="#393C3E"/>
<path d="M61.5954 68.6651V68.6375C61.5954 68.0797 61.9926 67.7069 62.5228 67.7069C63.0501 67.7069 63.4454 68.0764 63.4454 68.6267V68.6548C63.4454 69.2159 63.0501 69.5812 62.519 69.5812C61.9884 69.5812 61.5954 69.2121 61.5954 68.6651ZM63.0183 68.6581V68.6342C63.0183 68.2619 62.8328 68.0347 62.5228 68.0347C62.2122 68.0347 62.0226 68.2586 62.0226 68.6305V68.6581C62.0226 69.0262 62.2057 69.2571 62.5228 69.2571C62.8328 69.2571 63.0183 69.0262 63.0183 68.6581Z" fill="#393C3E"/>
<path d="M64.2387 69.2571V69.547H63.8219V66.9121H64.2387V68.0347C64.3385 67.8628 64.5624 67.7074 64.8275 67.7074C65.2794 67.7074 65.6274 68.0417 65.6274 68.6239V68.652C65.6274 69.2299 65.293 69.5812 64.8275 69.5812C64.5427 69.5812 64.3357 69.4402 64.2387 69.2571ZM65.2002 68.6581V68.6305C65.2002 68.231 64.9937 68.0347 64.7216 68.0347C64.4317 68.0347 64.2252 68.231 64.2252 68.6305V68.6581C64.2252 69.0613 64.4205 69.2505 64.7239 69.2505C65.0312 69.2505 65.2002 69.044 65.2002 68.6581Z" fill="#393C3E"/>
<path d="M65.8714 69.0468C65.8714 68.6267 66.2789 68.4759 66.795 68.4759H67.0193V68.3827C67.0193 68.141 66.9369 68.0211 66.6924 68.0211C66.4751 68.0211 66.3678 68.1242 66.3472 68.304H65.9435C65.9787 67.883 66.3126 67.7074 66.7158 67.7074C67.1195 67.7074 67.4366 67.8736 67.4366 68.3654V69.547H67.0259V69.3264C66.9083 69.4814 66.7495 69.5812 66.4751 69.5812C66.144 69.5812 65.8714 69.4229 65.8714 69.0468ZM67.0193 68.9166V68.7377H66.8048C66.4882 68.7377 66.2859 68.8103 66.2859 69.0299C66.2859 69.1822 66.3678 69.2814 66.5739 69.2814C66.8296 69.2814 67.0193 69.1475 67.0193 68.9166Z" fill="#393C3E"/>
<path d="M67.926 69.5469H68.3428V66.912H67.926V69.5469Z" fill="#393C3E"/>
<path d="M69.7413 68.0581H69.4968V67.7447H69.7413V67.5036C69.7413 67.1073 69.9586 66.8942 70.3412 66.8942C70.4447 66.8942 70.5023 66.9045 70.5684 66.9256V67.2497C70.5201 67.2282 70.4682 67.2216 70.3928 67.2216C70.227 67.2216 70.1576 67.3317 70.1576 67.4867V67.7447H70.5684V68.0581H70.1576V69.5465H69.7413V68.0581Z" fill="#393C3E"/>
<path d="M70.8372 67.2119C70.8372 67.0737 70.9473 66.9702 71.0854 66.9702C71.2236 66.9702 71.3337 67.0737 71.3337 67.2119C71.3337 67.3458 71.2236 67.4498 71.0854 67.4498C70.9473 67.4498 70.8372 67.3458 70.8372 67.2119ZM70.8817 67.7448H71.2995V69.5465H70.8817V67.7448Z" fill="#393C3E"/>
<path d="M71.8053 67.7447H72.2226V68.0309C72.3087 67.8553 72.5083 67.7068 72.8047 67.7068C73.1672 67.7068 73.422 67.9176 73.422 68.4126V69.5465H73.0052V68.4515C73.0052 68.1789 72.8937 68.0548 72.6459 68.0548C72.4118 68.0548 72.2226 68.1995 72.2226 68.4861V69.5465H71.8053V67.7447Z" fill="#393C3E"/>
<path d="M73.7686 69.0468C73.7686 68.6267 74.1751 68.4759 74.6931 68.4759H74.9169V68.3827C74.9169 68.141 74.834 68.0211 74.59 68.0211C74.3713 68.0211 74.2659 68.1242 74.2453 68.304H73.8416C73.8763 67.883 74.2107 67.7074 74.6139 67.7074C75.0172 67.7074 75.3338 67.8736 75.3338 68.3654V69.547H74.9235V69.3264C74.8069 69.4814 74.6477 69.5812 74.3713 69.5812C74.0411 69.5812 73.7686 69.4229 73.7686 69.0468ZM74.9169 68.9166V68.7377H74.7024C74.3863 68.7377 74.1826 68.8103 74.1826 69.0299C74.1826 69.1822 74.2659 69.2814 74.4716 69.2814C74.7273 69.2814 74.9169 69.1475 74.9169 68.9166Z" fill="#393C3E"/>
<path d="M75.8124 67.7447H76.2292V68.0309C76.3154 67.8553 76.5154 67.7068 76.8123 67.7068C77.1734 67.7068 77.4286 67.9176 77.4286 68.4126V69.5465H77.0113V68.4515C77.0113 68.1789 76.9013 68.0548 76.654 68.0548C76.4194 68.0548 76.2292 68.1995 76.2292 68.4861V69.5465H75.8124V67.7447Z" fill="#393C3E"/>
<path d="M77.7879 68.6684V68.6403C77.7879 68.0694 78.193 67.7069 78.6969 67.7069C79.0964 67.7069 79.4725 67.8867 79.5193 68.3827H79.117C79.0828 68.141 78.9241 68.0417 78.7039 68.0417C78.4173 68.0417 78.215 68.2619 78.215 68.6342V68.6618C78.215 69.0538 78.4075 69.2604 78.7142 69.2604C78.9344 69.2604 79.124 69.1302 79.1484 68.8754H79.5306C79.5001 69.288 79.1859 69.5812 78.6969 69.5812C78.1803 69.5812 77.7879 69.2435 77.7879 68.6684Z" fill="#393C3E"/>
<path d="M79.8547 67.2119C79.8547 67.0737 79.9647 66.9702 80.1034 66.9702C80.2406 66.9702 80.3502 67.0737 80.3502 67.2119C80.3502 67.3458 80.2406 67.4498 80.1034 67.4498C79.9647 67.4498 79.8547 67.3458 79.8547 67.2119ZM79.8992 67.7448H80.3164V69.5465H79.8992V67.7448Z" fill="#393C3E"/>
<path d="M80.6912 69.0468C80.6912 68.6267 81.0986 68.4759 81.6157 68.4759H81.8395V68.3827C81.8395 68.141 81.7566 68.0211 81.5122 68.0211C81.2953 68.0211 81.1885 68.1242 81.1679 68.304H80.7642C80.7984 67.883 81.1328 67.7074 81.5356 67.7074C81.9393 67.7074 82.2554 67.8736 82.2554 68.3654V69.547H81.8461V69.3264C81.7299 69.4814 81.5702 69.5812 81.2953 69.5812C80.9642 69.5812 80.6912 69.4229 80.6912 69.0468ZM81.8395 68.9166V68.7377H81.625C81.3084 68.7377 81.1052 68.8103 81.1052 69.0299C81.1052 69.1822 81.1885 69.2814 81.3951 69.2814C81.6499 69.2814 81.8395 69.1475 81.8395 68.9166Z" fill="#393C3E"/>
<path d="M82.7448 69.5469H83.1621V66.912H82.7448V69.5469Z" fill="#393C3E"/>
<path d="M84.3892 69.6088H84.8093C84.8444 69.7877 84.9816 69.8907 85.2537 69.8907C85.5778 69.8907 85.7572 69.7287 85.7572 69.4051V69.1405C85.6579 69.3128 85.4331 69.4739 85.1675 69.4739C84.7161 69.4739 84.3686 69.1367 84.3686 68.6168V68.592C84.3686 68.0858 84.7128 67.7069 85.1783 67.7069C85.4748 67.7069 85.6537 67.8422 85.7572 68.0206V67.7448H86.174V69.4126C86.1712 69.9432 85.8157 70.2078 85.2575 70.2078C84.6922 70.2078 84.4374 69.9526 84.3892 69.6088ZM85.7712 68.6023V68.5784C85.7712 68.238 85.5848 68.0342 85.2846 68.0342C84.9751 68.0342 84.7952 68.2581 84.7952 68.5859V68.6131C84.7952 68.947 85.0027 69.1536 85.2715 69.1536C85.5609 69.1536 85.7712 68.947 85.7712 68.6023Z" fill="#393C3E"/>
<path d="M86.6695 67.7447H87.0873V68.0824C87.2006 67.8553 87.3701 67.7209 87.6722 67.7176V68.1063C87.3069 68.1096 87.0873 68.2271 87.0873 68.6098V69.5465H86.6695V67.7447Z" fill="#393C3E"/>
<path d="M87.8825 68.6651V68.6375C87.8825 68.0797 88.2792 67.7069 88.8098 67.7069C89.3372 67.7069 89.7334 68.0764 89.7334 68.6267V68.6548C89.7334 69.2159 89.3372 69.5812 88.807 69.5812C88.2755 69.5812 87.8825 69.2121 87.8825 68.6651ZM89.3063 68.6581V68.6342C89.3063 68.2619 89.1199 68.0347 88.8098 68.0347C88.4993 68.0347 88.3097 68.2586 88.3097 68.6305V68.6581C88.3097 69.0262 88.4928 69.2571 88.8098 69.2571C89.1199 69.2571 89.3063 69.0262 89.3063 68.6581Z" fill="#393C3E"/>
<path d="M90.0912 68.8988V67.7448H90.509V68.851C90.509 69.1231 90.6228 69.2468 90.863 69.2468C91.0869 69.2468 91.2831 69.1025 91.2831 68.8164V67.7448H91.7009V69.547H91.2831V69.2641C91.1937 69.4402 91.0049 69.5812 90.7118 69.5812C90.3568 69.5812 90.0912 69.3775 90.0912 68.8988Z" fill="#393C3E"/>
<path d="M92.1941 67.7448H92.61V68.0342C92.7102 67.8623 92.9341 67.7068 93.2005 67.7068C93.6511 67.7068 94 68.0412 94 68.6234V68.6515C94 69.2294 93.6647 69.5811 93.2005 69.5811C92.9134 69.5811 92.7074 69.4397 92.61 69.2641V70.1633H92.1941V67.7448ZM93.5729 68.6576V68.6304C93.5729 68.2305 93.3654 68.0342 93.0933 68.0342C92.8039 68.0342 92.5959 68.2305 92.5959 68.6304V68.6576C92.5959 69.0608 92.7926 69.25 93.0961 69.25C93.4019 69.25 93.5729 69.0435 93.5729 68.6576Z" fill="#393C3E"/>
</svg>
