<svg width="108" height="108" viewBox="0 0 108 108" fill="none" xmlns="http://www.w3.org/2000/svg">
<path d="M42.6666 71.7371H43.7357L43.8393 72.015H42.563L42.6666 71.7371ZM42.789 71.8266L42.7608 71.8925L42.4029 72.7402H42.0732L43.1988 70.1971L44.3196 72.7402H43.99L43.6368 71.9114L43.6085 71.8407L43.1988 70.8658L42.789 71.8077V71.8266Z" fill="#5A5A5C"/>
<path d="M46.8109 72.7402H46.4954L46.7921 70.1924L47.734 71.9537L48.6759 70.1924L48.9726 72.7402H48.6759L48.4969 71.1013L47.7152 72.5142L46.9287 71.1013L46.8109 72.7402Z" fill="#5A5A5C"/>
<path d="M50.1123 72.4624H51.3273V72.7402H50.1123V72.4624ZM50.1123 71.285H51.2614V71.5629H50.1123V71.285ZM50.1123 70.3431H51.3273V70.621H50.1123V70.3431ZM50.263 72.7449H49.971V70.3195H50.263V72.7449Z" fill="#5A5A5C"/>
<path d="M52.5094 72.7402H52.2127L52.5094 70.1924L53.4513 71.9537L54.3932 70.1924L54.6899 72.7402H54.3932L54.2143 71.1013L53.4325 72.5142L52.646 71.1013L52.5094 72.7402Z" fill="#5A5A5C"/>
<path d="M55.8814 71.2991H56.2723C56.3467 71.3001 56.4204 71.2857 56.4889 71.2567C56.5498 71.231 56.602 71.1886 56.6396 71.1343C56.6784 71.0775 56.6982 71.0099 56.6962 70.9412C56.6988 70.8899 56.689 70.8388 56.6677 70.792C56.6464 70.7453 56.6141 70.7044 56.5737 70.6728C56.4871 70.6076 56.3806 70.5743 56.2723 70.5786H55.9426V72.4624H56.3053C56.3994 72.4641 56.4927 72.4448 56.5784 72.4058C56.6555 72.374 56.72 72.3177 56.7621 72.2457C56.8078 72.1766 56.8345 72.0967 56.8394 72.014C56.8444 71.9314 56.8275 71.8488 56.7903 71.7748C56.7669 71.7179 56.7296 71.6677 56.682 71.6288C56.6343 71.5873 56.578 71.5567 56.5172 71.5393C56.4467 71.5197 56.3737 71.5102 56.3006 71.511H55.8767V71.3462H56.3006C56.41 71.3461 56.519 71.3588 56.6255 71.3839C56.7177 71.4087 56.8052 71.4485 56.8845 71.5016C56.958 71.5522 57.0179 71.6201 57.0588 71.6994C57.102 71.7889 57.123 71.8874 57.12 71.9867C57.1272 72.1268 57.0892 72.2654 57.0117 72.3823C56.9407 72.4888 56.8388 72.571 56.7197 72.6178C56.5867 72.6722 56.4442 72.6995 56.3006 72.6978H55.6459V70.3148H56.2676C56.3964 70.3108 56.5246 70.3333 56.6444 70.3808C56.7454 70.4204 56.8322 70.4893 56.894 70.5786C56.9562 70.6805 56.9873 70.7983 56.9834 70.9176C56.9848 71.0219 56.9536 71.124 56.894 71.2096C56.83 71.2935 56.7434 71.3572 56.6444 71.3933C56.5239 71.4385 56.3962 71.4608 56.2676 71.4592H55.8767V71.2944L55.8814 71.2991Z" fill="#5A5A5C"/>
<path d="M58.2409 72.4624H59.4559V72.7402H58.2409V72.4624ZM58.2409 71.285H59.39V71.5629H58.2409V71.285ZM58.2409 70.3431H59.4559V70.621H58.2409V70.3431ZM58.3727 72.7685H58.0807V70.3195H58.3727V72.7685Z" fill="#5A5A5C"/>
<path d="M61.2408 71.544L62.1026 72.7402H61.74L60.9111 71.544H61.2408ZM60.6239 70.3148H61.0948C61.2381 70.3116 61.3801 70.3422 61.5092 70.4043C61.6278 70.4609 61.7299 70.5468 61.8059 70.6539C61.8795 70.7708 61.9171 70.9067 61.9143 71.0448C61.9178 71.18 61.8801 71.3131 61.8059 71.4263C61.7478 71.5281 61.6653 71.6139 61.5658 71.6759C61.4366 71.738 61.2946 71.7686 61.1513 71.7654H60.6239V71.5063H61.0948C61.1889 71.5076 61.2821 71.4884 61.368 71.4498C61.4422 71.4135 61.5055 71.3583 61.5516 71.2897C61.5991 71.2137 61.6221 71.1249 61.6176 71.0354C61.6202 70.9461 61.5973 70.8579 61.5516 70.7811C61.5044 70.7135 61.4414 70.6585 61.368 70.621C61.2818 70.5839 61.1886 70.5662 61.0948 70.5691H60.6239V70.3101V70.3148ZM60.7557 72.7402H60.4826V70.3148H60.7746L60.7557 72.7402Z" fill="#5A5A5C"/>
<path d="M64.7494 72.015C64.8256 72.1561 64.9377 72.2747 65.0743 72.3588C65.2183 72.4392 65.3804 72.4814 65.5453 72.4814C65.7102 72.4814 65.8723 72.4392 66.0162 72.3588C66.1526 72.2758 66.2634 72.1569 66.3365 72.015C66.4164 71.8709 66.4586 71.7088 66.4589 71.544C66.4578 71.3793 66.4157 71.2175 66.3365 71.0731C66.2619 70.9334 66.1514 70.8164 66.0162 70.734C65.8742 70.649 65.7107 70.6065 65.5453 70.6115C65.3799 70.6073 65.2167 70.6497 65.0743 70.734C64.9391 70.8178 64.8273 70.9344 64.7494 71.0731C64.6718 71.2179 64.6313 71.3797 64.6316 71.544C64.6305 71.7084 64.671 71.8704 64.7494 72.015ZM64.3914 71.0354C64.4501 70.8874 64.5383 70.7528 64.6505 70.6398C64.7607 70.5253 64.8939 70.4354 65.0414 70.3761C65.1903 70.3129 65.3505 70.2808 65.5123 70.2819C65.6741 70.2804 65.8344 70.3125 65.9833 70.3761C66.1299 70.4364 66.2628 70.526 66.3737 70.6393C66.4846 70.7527 66.5713 70.8874 66.6285 71.0354C66.6873 71.1854 66.7177 71.3452 66.7179 71.5063C66.7171 71.6675 66.6868 71.8271 66.6285 71.9773C66.5697 72.1242 66.4834 72.2585 66.3741 72.3729C66.2631 72.4865 66.1301 72.5762 65.9833 72.6366C65.8338 72.6981 65.6739 72.7301 65.5123 72.7308C65.3505 72.7322 65.1902 72.7002 65.0414 72.6366C64.8947 72.5754 64.7616 72.4856 64.65 72.3724C64.5384 72.2592 64.4505 72.1249 64.3914 71.9773C64.3331 71.8271 64.3028 71.6675 64.302 71.5063C64.3047 71.3454 64.335 71.1861 64.3914 71.0354Z" fill="#5A5A5C"/>
<path d="M67.8482 71.285H68.8937V71.5629H67.8482V71.285ZM67.8482 70.3431H68.9267V70.621H67.8482V70.3431ZM67.9801 72.7685H67.6881V70.3195H67.9848L67.9801 72.7685Z" fill="#5A5A5C"/>
<path d="M71.6864 71.2991H72.0773C72.1517 71.3001 72.2255 71.2857 72.294 71.2567C72.3548 71.231 72.407 71.1886 72.4447 71.1343C72.4816 71.0767 72.5012 71.0096 72.5012 70.9412C72.5038 70.8899 72.494 70.8388 72.4727 70.792C72.4514 70.7453 72.4192 70.7044 72.3787 70.6728C72.2921 70.6076 72.1856 70.5743 72.0773 70.5786H71.7477V72.4624H72.1103C72.2044 72.4637 72.2976 72.4444 72.3834 72.4058C72.4596 72.3726 72.5238 72.3167 72.5671 72.2457C72.6088 72.1751 72.633 72.0955 72.638 72.0137C72.6429 71.9318 72.6283 71.8499 72.5954 71.7748C72.5719 71.7179 72.5347 71.6677 72.4871 71.6288C72.4393 71.5873 72.383 71.5567 72.3222 71.5393C72.2517 71.5197 72.1788 71.5102 72.1056 71.511H71.6817V71.3462H72.1056C72.215 71.3462 72.324 71.3588 72.4305 71.3839C72.5227 71.4087 72.6103 71.4485 72.6896 71.5016C72.763 71.5522 72.8229 71.6202 72.8638 71.6994C72.905 71.7896 72.9259 71.8876 72.925 71.9867C72.93 72.1265 72.8922 72.2645 72.8167 72.3823C72.7446 72.4878 72.6431 72.5697 72.5247 72.6178C72.3917 72.6719 72.2492 72.6991 72.1056 72.6978H71.4557V70.3148H72.0773C72.2046 70.3104 72.3314 70.3328 72.4494 70.3808C72.5518 70.418 72.6393 70.4874 72.699 70.5786C72.7648 70.6791 72.7977 70.7976 72.7932 70.9177C72.7952 71.0228 72.7621 71.1256 72.699 71.2096C72.6371 71.2956 72.5498 71.3598 72.4494 71.3933C72.3307 71.439 72.2044 71.4614 72.0773 71.4592H71.6864V71.2944V71.2991Z" fill="#5A5A5C"/>
<path d="M76.005 70.3148V72.8627L74.1778 70.9365V72.7402H73.8858V70.1924L75.6942 72.1468V70.3148H76.005Z" fill="#5A5A5C"/>
<path d="M77.3519 70.3148H77.06V72.7402H77.3519V70.3148Z" fill="#5A5A5C"/>
<path d="M81.0724 71.511H82.1933C82.1918 71.6709 82.1664 71.8297 82.1179 71.982C82.0682 72.1298 81.9915 72.2671 81.8919 72.387C81.7927 72.5062 81.669 72.6025 81.5293 72.6696C81.381 72.7354 81.2205 72.7691 81.0583 72.7685C80.8971 72.7688 80.7373 72.7384 80.5874 72.679C80.4408 72.6202 80.3078 72.5321 80.1965 72.42C80.0816 72.3007 79.9916 72.1597 79.9318 72.0053C79.872 71.8508 79.8435 71.686 79.848 71.5205C79.8508 71.3595 79.881 71.2003 79.9375 71.0495C79.9985 70.9013 80.0863 70.7656 80.1965 70.6492C80.3069 70.5361 80.4401 70.4477 80.5874 70.3902C80.7373 70.3308 80.8971 70.3004 81.0583 70.3007C81.1969 70.2993 81.335 70.3184 81.468 70.3572C81.5899 70.3961 81.7045 70.455 81.8071 70.5315C81.9084 70.6094 81.9946 70.7052 82.0614 70.814L81.8542 71.0071C81.7767 70.8795 81.666 70.7753 81.534 70.7057C81.3895 70.6276 81.2272 70.5887 81.063 70.5927C80.9009 70.5926 80.7419 70.6364 80.6026 70.7193C80.4633 70.8022 80.349 70.9211 80.2718 71.0636C80.1914 71.2169 80.1494 71.3874 80.1494 71.5605C80.1494 71.7336 80.1914 71.9041 80.2718 72.0573C80.3511 72.1966 80.4646 72.3133 80.6015 72.3964C80.7447 72.4781 80.9076 72.5188 81.0724 72.5142C81.1813 72.515 81.2896 72.4975 81.3927 72.4624C81.4846 72.431 81.5682 72.3795 81.6376 72.3117C81.7081 72.2498 81.7658 72.1746 81.8071 72.0903C81.8538 72.0082 81.8872 71.9192 81.906 71.8266H81.1054V71.5393L81.0724 71.511Z" fill="#5A5A5C"/>
<path d="M83.8887 71.544L84.7505 72.7402H84.3879L83.559 71.544H83.8887ZM83.2906 70.3148H83.7851C83.9298 70.3121 84.0733 70.3427 84.2042 70.4043C84.3214 70.4611 84.4219 70.547 84.4962 70.6539C84.5698 70.7708 84.6074 70.9067 84.6045 71.0448C84.6104 71.1803 84.5724 71.3141 84.4962 71.4263C84.4261 71.538 84.3245 71.6265 84.2042 71.6806C84.0733 71.7422 83.9298 71.7728 83.7851 71.7701H83.2906V71.511H83.7851C83.8792 71.5128 83.9726 71.4935 84.0582 71.4545C84.1343 71.421 84.1984 71.3652 84.2419 71.2944C84.2911 71.2189 84.3157 71.1301 84.3126 71.0401C84.3137 70.9503 84.2892 70.8621 84.2419 70.7858C84.1971 70.7161 84.1334 70.6606 84.0582 70.6257C83.9722 70.5883 83.8789 70.5706 83.7851 70.5739H83.2906V70.3101V70.3148ZM83.4225 72.7402H83.1305V70.3148H83.4225V72.7402Z" fill="#5A5A5C"/>
<path d="M85.8526 72.015C85.9292 72.1574 86.0431 72.2762 86.1822 72.3587C86.3251 72.4418 86.488 72.4842 86.6532 72.4812C86.8182 72.4823 86.9806 72.4401 87.1241 72.3587C87.2619 72.2761 87.3743 72.1572 87.4491 72.015C87.5274 71.8704 87.5679 71.7084 87.5668 71.544C87.5671 71.3797 87.5267 71.2179 87.4491 71.0731C87.3711 70.9344 87.2593 70.8178 87.1241 70.734C86.9821 70.649 86.8186 70.6065 86.6532 70.6115C86.4876 70.6057 86.324 70.6483 86.1822 70.734C86.0443 70.8159 85.9306 70.9329 85.8526 71.0731C85.7769 71.2186 85.7366 71.38 85.7348 71.544C85.7359 71.7081 85.7762 71.8696 85.8526 72.015ZM85.5182 71.0354C85.5769 70.8885 85.6632 70.7542 85.7725 70.6398C85.8827 70.5253 86.0159 70.4354 86.1634 70.3761C86.3123 70.3129 86.4726 70.2808 86.6343 70.2819C86.796 70.2815 86.9562 70.3135 87.1053 70.3761C87.2491 70.4395 87.38 70.5289 87.4915 70.6398C87.6021 70.754 87.69 70.8883 87.7505 71.0354C87.8094 71.1854 87.8397 71.3451 87.84 71.5063C87.8372 71.6673 87.8069 71.8265 87.7505 71.9773C87.69 72.1244 87.6021 72.2587 87.4915 72.3729C87.3822 72.4863 87.2507 72.5761 87.1053 72.6366C86.9557 72.6975 86.7959 72.7295 86.6343 72.7308C86.4726 72.7318 86.3123 72.6998 86.1634 72.6366C86.0167 72.5763 85.8839 72.4867 85.7729 72.3733C85.662 72.26 85.5753 72.1252 85.5182 71.9773C85.4582 71.8274 85.4263 71.6678 85.424 71.5063C85.4258 71.3449 85.4577 71.1851 85.5182 71.0354Z" fill="#5A5A5C"/>
<path d="M89.0691 70.3148V71.9443C89.0636 72.0907 89.1104 72.2343 89.201 72.3493C89.2524 72.4011 89.3143 72.4414 89.3826 72.4674C89.4508 72.4933 89.5237 72.5045 89.5966 72.5C89.6688 72.5044 89.741 72.4932 89.8085 72.4672C89.8759 72.4412 89.937 72.401 89.9875 72.3493C90.0817 72.236 90.1304 72.0916 90.1241 71.9443V70.3148H90.4161V71.9443C90.4176 72.0583 90.3985 72.1716 90.3595 72.2787C90.3223 72.3765 90.2663 72.4661 90.1947 72.5424C90.1194 72.6165 90.0296 72.6742 89.931 72.712C89.8248 72.7547 89.7111 72.7756 89.5966 72.7732C89.4806 72.7756 89.3653 72.7547 89.2575 72.712C89.1597 72.6753 89.0712 72.6174 88.9985 72.5424C88.9269 72.4661 88.871 72.3765 88.8337 72.2787C88.7948 72.1716 88.7756 72.0583 88.7772 71.9443V70.3148H89.0691Z" fill="#5A5A5C"/>
<path d="M91.617 70.3148H92.1115C92.2562 70.3121 92.3996 70.3427 92.5306 70.4043C92.6478 70.4611 92.7483 70.547 92.8226 70.6539C92.8961 70.7708 92.9338 70.9067 92.9309 71.0448C92.9331 71.1782 92.8964 71.3093 92.8253 71.4222C92.7542 71.5351 92.6518 71.6249 92.5306 71.6806C92.3996 71.7422 92.2562 71.7728 92.1115 71.7701H91.617V71.4922H92.1115C92.2477 71.498 92.3819 71.4583 92.4929 71.3792C92.5421 71.338 92.5809 71.2859 92.6063 71.227C92.6316 71.1681 92.6428 71.1041 92.6389 71.0401C92.6428 70.9768 92.6316 70.9134 92.6063 70.8553C92.5809 70.7972 92.542 70.7459 92.4929 70.7057C92.3819 70.6266 92.2477 70.5869 92.1115 70.5927H91.617V70.3148ZM91.7488 72.7402H91.4569V70.3148H91.7488V72.7402Z" fill="#5A5A5C"/>
<path d="M42.417 67.7906V56.4878H44.8047V60.3166C45.3163 59.8982 45.962 59.679 46.6226 59.6997C47.0938 59.6711 47.5657 59.7452 48.0056 59.9168C48.4455 60.0883 48.8429 60.3533 49.1704 60.6934C49.796 61.4291 50.1177 62.3755 50.0699 63.3401V67.7717H47.6822V63.7687C47.7058 63.2896 47.5826 62.8147 47.329 62.4076C47.2045 62.2347 47.038 62.0963 46.8452 62.0057C46.6523 61.915 46.4396 61.8751 46.227 61.8896C45.9553 61.8929 45.6878 61.9562 45.4435 62.0751C45.1993 62.194 44.9843 62.3654 44.8141 62.5772V67.7576L42.417 67.7906Z" fill="#036A80"/>
<path d="M51.8736 59.8457H54.2613V67.7906H51.8736V59.8457ZM54.1813 58.7154H51.9678C51.762 58.4586 51.658 58.135 51.6758 57.8065C51.6672 57.5201 51.7458 57.2378 51.9013 56.9971C52.0568 56.7565 52.2818 56.5688 52.5464 56.4589C52.8111 56.3491 53.1028 56.3223 53.3831 56.3821C53.6633 56.442 53.9187 56.5856 54.1154 56.7939C54.2447 56.9279 54.3456 57.0867 54.412 57.2607C54.4784 57.4347 54.5088 57.6204 54.5015 57.8065C54.5127 58.1381 54.4003 58.462 54.186 58.7154" fill="#036A80"/>
<path d="M60.7604 61.0042C60.2457 60.9963 59.7373 61.1178 59.2817 61.3574C58.8678 61.5742 58.5209 61.8999 58.2785 62.2993V65.351C58.5206 65.7508 58.8675 66.0765 59.2817 66.2929C59.7361 66.5362 60.2451 66.6593 60.7604 66.6509C61.1135 66.6569 61.4638 66.5883 61.7884 66.4495C62.1131 66.3108 62.4047 66.1049 62.6442 65.8455C63.1299 65.2882 63.3974 64.5739 63.3974 63.8346C63.3974 63.0953 63.1299 62.381 62.6442 61.8236C62.4047 61.5643 62.1131 61.3584 61.7884 61.2196C61.4638 61.0808 61.1135 61.0122 60.7604 61.0183M56.9175 67.7858V56.4831H58.2691V60.618C58.605 60.3023 59.0003 60.0564 59.432 59.8947C59.8638 59.733 60.3233 59.6587 60.784 59.6761C61.3206 59.6606 61.8546 59.7574 62.3517 59.9601C62.8488 60.1628 63.2981 60.4671 63.6709 60.8535C64.4097 61.6481 64.8204 62.693 64.8204 63.7781C64.8204 64.8631 64.4097 65.908 63.6709 66.7027C63.3017 67.0929 62.855 67.4018 62.3595 67.6094C61.864 67.817 61.3306 67.9188 60.7934 67.9083C60.3329 67.9241 59.8738 67.8491 59.4423 67.6875C59.0108 67.5259 58.6153 67.2808 58.2785 66.9664V67.7623L56.9175 67.7858Z" fill="#036A80"/>
<path d="M70.2171 66.6273C70.7282 66.6349 71.2332 66.5151 71.6864 66.2788C72.1019 66.0607 72.4514 65.7355 72.699 65.3369V62.2899C72.4529 61.8901 72.1029 61.5646 71.6864 61.348C71.234 61.1094 70.7285 60.9895 70.2171 60.9995C69.8604 60.9891 69.5057 61.0552 69.1767 61.1933C68.8478 61.3314 68.5521 61.5383 68.3097 61.8001C67.8269 62.3588 67.5611 63.0726 67.5611 63.811C67.5611 64.5495 67.8269 65.2633 68.3097 65.822C68.5515 66.0849 68.8469 66.2928 69.176 66.4317C69.505 66.5707 69.8601 66.6374 70.2171 66.6273ZM72.699 67.7858V66.9994C72.0137 67.6261 71.1125 67.9636 70.1841 67.9413C69.6474 67.9573 69.1133 67.8609 68.6161 67.6581C68.1189 67.4553 67.6696 67.1507 67.2972 66.7639C66.5614 65.9677 66.1528 64.9234 66.1528 63.8393C66.1528 62.7552 66.5614 61.7109 67.2972 60.9147C67.6703 60.5288 68.1197 60.2248 68.6167 60.0221C69.1138 59.8194 69.6475 59.7224 70.1841 59.7373C71.1129 59.713 72.0147 60.0508 72.699 60.6792V59.8409H74.06V67.7906L72.699 67.7858Z" fill="#036A80"/>
<path d="M76.4336 67.7858V59.8409H77.7946V60.7452C78.0946 60.3947 78.4721 60.119 78.8972 59.94C79.3223 59.761 79.7833 59.6835 80.2436 59.7138C80.6514 59.6988 81.0578 59.7694 81.4366 59.921C81.8154 60.0727 82.1582 60.3021 82.4429 60.5945C82.7348 60.9103 82.9605 61.2814 83.1069 61.6857C83.2533 62.0901 83.3174 62.5197 83.2953 62.9492V67.7858H81.9343V63.0198C81.9448 62.7539 81.9028 62.4885 81.8107 62.2388C81.7186 61.9891 81.5781 61.76 81.3974 61.5646C81.2082 61.3734 80.9808 61.2242 80.7301 61.1268C80.4793 61.0294 80.2108 60.986 79.9422 60.9995C79.4445 60.9672 78.9521 61.1172 78.557 61.4214C78.1618 61.7256 77.8908 62.1632 77.7946 62.6525V67.7858H76.4336Z" fill="#036A80"/>
<path d="M85.5841 67.7858V56.4831H86.9452V63.4343L90.4396 59.8409H92.2292L88.5605 63.5756L92.5918 67.7858H90.7646L86.9546 63.8158V67.7858H85.5841Z" fill="#036A80"/>
<path d="M23.9888 39.6797C23.9841 40.5605 23.7187 41.4203 23.2261 42.1505C22.7334 42.8807 22.0355 43.4487 21.2205 43.7828C20.4054 44.1169 19.5097 44.2021 18.6462 44.0277C17.7828 43.8534 16.9903 43.4273 16.3687 42.8031C15.7472 42.1789 15.3244 41.3846 15.1536 40.5204C14.9829 39.6563 15.0719 38.7609 15.4095 37.9472C15.747 37.1336 16.3179 36.4381 17.0502 35.9485C17.7825 35.4589 18.6433 35.1972 19.5242 35.1962C20.1119 35.1968 20.6937 35.3134 21.2363 35.5391C21.779 35.7649 22.2717 36.0955 22.6864 36.5119C23.1011 36.9284 23.4296 37.4225 23.6531 37.9661C23.8766 38.5096 23.9906 39.0919 23.9888 39.6797Z" fill="#CF5A27"/>
<path d="M23.9888 51.5428C23.9841 52.4237 23.7187 53.2835 23.2261 54.0137C22.7334 54.7439 22.0355 55.3119 21.2205 55.646C20.4054 55.98 19.5097 56.0653 18.6462 55.8909C17.7828 55.7166 16.9903 55.2904 16.3687 54.6663C15.7472 54.0421 15.3244 53.2478 15.1536 52.3836C14.9829 51.5195 15.0719 50.6241 15.4095 49.8104C15.747 48.9968 16.3179 48.3013 17.0502 47.8117C17.7825 47.3221 18.6433 47.0604 19.5242 47.0594C20.1119 47.06 20.6937 47.1766 21.2363 47.4023C21.779 47.6281 22.2717 47.9586 22.6864 48.3751C23.1011 48.7915 23.4296 49.2857 23.6531 49.8293C23.8766 50.3728 23.9906 50.9551 23.9888 51.5428Z" fill="#CF5A27"/>
<path d="M36.0969 51.5428C36.0922 52.4239 35.8267 53.2838 35.3338 54.0142C34.8409 54.7445 34.1428 55.3125 33.3275 55.6464C32.5121 55.9804 31.6161 56.0653 30.7526 55.8906C29.889 55.7159 29.0965 55.2892 28.4751 54.6646C27.8538 54.0399 27.4313 53.2452 27.2612 52.3807C27.091 51.5163 27.1807 50.6207 27.5189 49.8072C27.8571 48.9936 28.4288 48.2985 29.1617 47.8094C29.8946 47.3204 30.7559 47.0594 31.637 47.0594C32.2243 47.0606 32.8056 47.1776 33.3477 47.4037C33.8898 47.6297 34.382 47.9604 34.7962 48.3768C35.2104 48.7931 35.5384 49.2871 35.7616 49.8303C35.9848 50.3736 36.0987 50.9555 36.0969 51.5428Z" fill="#CF5A27"/>
<path d="M36.0969 39.6514C36.0922 40.5325 35.8267 41.3924 35.3338 42.1227C34.8409 42.853 34.1428 43.421 33.3275 43.755C32.5121 44.0889 31.6161 44.1739 30.7526 43.9991C29.889 43.8244 29.0965 43.3978 28.4751 42.7731C27.8538 42.1485 27.4313 41.3538 27.2612 40.4893C27.091 39.6248 27.1807 38.7293 27.5189 37.9157C27.8571 37.1022 28.4288 36.407 29.1617 35.918C29.8946 35.429 30.7559 35.168 31.637 35.168C32.2243 35.1692 32.8056 35.2862 33.3477 35.5122C33.8898 35.7383 34.382 36.0689 34.7962 36.4853C35.2104 36.9017 35.5384 37.3956 35.7616 37.9389C35.9848 38.4822 36.0987 39.0641 36.0969 39.6514Z" fill="#036A80"/>
<path d="M36.0969 63.4202C36.0969 64.3022 35.8353 65.1645 35.3452 65.8979C34.8552 66.6314 34.1586 67.203 33.3437 67.5405C32.5288 67.8781 31.632 67.9664 30.7669 67.7943C29.9018 67.6223 29.1071 67.1975 28.4834 66.5738C27.8596 65.95 27.4349 65.1554 27.2628 64.2902C27.0907 63.4251 27.179 62.5284 27.5166 61.7134C27.8542 60.8985 28.4258 60.202 29.1592 59.7119C29.8926 59.2218 30.7549 58.9603 31.637 58.9603C32.8191 58.9628 33.952 59.4334 34.7879 60.2693C35.6237 61.1051 36.0944 62.2381 36.0969 63.4202Z" fill="#CF5A27"/>
<path d="M23.9888 63.4202C23.9888 64.302 23.7273 65.1641 23.2375 65.8974C22.7476 66.6308 22.0514 67.2024 21.2367 67.5401C20.4221 67.8778 19.5256 67.9664 18.6606 67.7947C17.7956 67.623 17.0009 67.1987 16.377 66.5754C15.753 65.9522 15.3279 65.1579 15.1553 64.2931C14.9827 63.4283 15.0703 62.5317 15.4072 61.7167C15.744 60.9017 16.3149 60.2048 17.0477 59.7142C17.7805 59.2236 18.6423 58.9612 19.5242 58.9603C20.1119 58.9609 20.6937 59.0774 21.2363 59.3032C21.779 59.5289 22.2717 59.8595 22.6864 60.276C23.1011 60.6924 23.4296 61.1866 23.6531 61.7301C23.8766 62.2737 23.9906 62.856 23.9888 63.4437" fill="#CF5A27"/>
</svg>
