<svg width="108" height="108" viewBox="0 0 108 108" fill="none" xmlns="http://www.w3.org/2000/svg">
<path d="M46.3141 43H24.7883V64.5258H46.3141V43Z" fill="white"/>
<path d="M57.0769 53.7882L46.314 43V64.5511L57.0769 53.7882Z" fill="#DB0011"/>
<path d="M35.5512 53.7882L46.3141 43H24.7883L35.5512 53.7882Z" fill="#DB0011"/>
<path d="M14 53.7882L24.7882 64.5511V43L14 53.7882Z" fill="#DB0011"/>
<path d="M35.5512 53.7882L24.7883 64.5511H46.3141L35.5512 53.7882Z" fill="#DB0011"/>
<path d="M66.523 54.4213H62.6231V58.2706H60.6731V49.2551H62.6231V52.9525H66.523V49.2551H68.473V58.2706H66.523V54.4213Z" fill="black"/>
<path d="M73.1833 58.448C71.2333 58.448 69.6379 57.6629 69.6125 55.5104H71.5625C71.5879 56.4727 72.145 57.0552 73.2086 57.0552C73.9937 57.0552 74.9054 56.65 74.9054 55.7636C74.9054 55.0545 74.2976 54.8519 73.2846 54.548L72.6262 54.3708C71.208 53.9656 69.7898 53.4084 69.7898 51.7877C69.7898 49.787 71.6638 49.1033 73.3606 49.1033C75.108 49.1033 76.6274 49.7111 76.6528 51.7117H74.7028C74.6268 50.9013 74.1456 50.4201 73.2339 50.4201C72.4995 50.4201 71.7905 50.8 71.7905 51.6104C71.7905 52.2688 72.3982 52.4714 73.6645 52.8766L74.4242 53.1045C75.969 53.5857 76.9566 54.1175 76.9566 55.637C76.9313 57.6629 74.956 58.448 73.1833 58.448Z" fill="black"/>
<path d="M78.0457 49.2805H81.1859C81.7684 49.2552 82.3761 49.2805 82.9586 49.3818C84.0476 49.635 84.8833 50.3441 84.8833 51.5597C84.8833 52.7246 84.1489 53.3071 83.0852 53.5857C84.3008 53.8136 85.2125 54.4214 85.2125 55.7636C85.2125 57.8148 83.1865 58.2707 81.6164 58.2707H78.071L78.0457 49.2805ZM81.1859 53.0285C82.0469 53.0285 82.9333 52.8512 82.9333 51.8129C82.9333 50.8759 82.1229 50.6227 81.3125 50.6227H79.945V53.0285H81.1859V53.0285ZM81.3632 56.9285C82.2748 56.9285 83.1612 56.7259 83.1612 55.6116C83.1612 54.4973 82.4015 54.2947 81.4645 54.2947H79.9197V56.9285H81.3632Z" fill="black"/>
<path d="M90.2774 58.4479C87.365 58.4479 86.0735 56.5992 86.0735 53.8389C86.0735 51.0785 87.517 49.0779 90.3786 49.0779C92.1767 49.0779 93.9241 49.8883 93.9747 51.9142H91.9488C91.8475 51.0025 91.2397 50.5467 90.3786 50.5467C88.6059 50.5467 88.0741 52.446 88.0741 53.8895C88.0741 55.333 88.6059 57.0044 90.3027 57.0044C91.189 57.0044 91.8475 56.5233 91.9741 55.6116H94C93.7975 57.6882 92.1514 58.4479 90.2774 58.4479Z" fill="black"/>
</svg>
