<svg width="108" height="108" viewBox="0 0 108 108" fill="none" xmlns="http://www.w3.org/2000/svg">
<path d="M33.4656 15.9675C31.31 17.04 29.6872 18.9069 28.9273 21.1943L14.4688 64.6689C13.7026 66.9473 13.8812 69.4145 14.9627 71.5765C16.0427 73.723 17.9133 75.3389 20.1858 76.0977L67.6116 92.0222C69.9267 92.782 72.3689 92.6177 74.5277 91.5298C76.6966 90.4382 78.3066 88.5921 79.0627 86.2988L93.5362 42.8306C95.1143 38.1057 92.5323 32.9682 87.8021 31.3906L40.3715 15.4619C38.0655 14.709 35.6228 14.8759 33.4656 15.9675Z" fill="#0055A2"/>
<path d="M56.6469 57.7172C54.0681 60.6007 50.8496 62.9105 47.1393 64.3482L44.9821 65.1793V45.0367L47.1052 45.8566C50.8342 47.2805 54.0537 49.601 56.6469 52.4638C58.4867 49.4914 59.6363 46.0544 59.8639 42.3212C60.4503 32.6513 54.3978 23.7998 46.0918 20.7195L39.2469 18.4257C36.1518 17.3989 32.87 19.1105 31.8411 22.1881L17.3299 65.6892C16.3111 68.7791 18.0376 72.1401 21.136 73.1599L54.0537 84.1532C57.4206 80.5822 59.5916 75.8557 59.9037 70.5763C60.1972 65.8743 58.9727 61.4413 56.6469 57.7172ZM37.6023 66.4214H34.3418V43.8398H37.6023V66.4214Z" fill="#0099DA"/>
<path d="M54.7434 55.0857C52.91 52.9264 50.6922 51.1275 48.1203 49.8057V60.4162C50.6922 59.0858 52.9185 57.2572 54.7434 55.0857Z" fill="#F15C21"/>
<path d="M86.7524 34.2975L56.5395 24.2017C60.5998 28.6411 63.0866 34.5352 63.0866 41.0052C63.101 46.107 61.5085 51.0068 58.7297 55.0857C61.5143 59.1613 63.1292 64.0553 63.1292 69.1646C63.1403 75.2709 60.9512 80.8869 57.2935 85.2321L68.6442 89.0211C71.7441 90.0511 75.019 88.356 76.0377 85.2603L90.5574 41.7725C91.5826 38.6789 89.8492 35.3275 86.7524 34.2975ZM78.7447 66.3459L74.6712 66.3608L66.2791 55.0639L74.7983 43.7765L78.9202 43.7616L70.3707 55.0857L78.7447 66.3459Z" fill="#0055A2"/>
</svg>
