<svg width="108" height="108" viewBox="0 0 108 108" fill="none" xmlns="http://www.w3.org/2000/svg">
<path fill-rule="evenodd" clip-rule="evenodd" d="M81.3109 59.3126V61.3464H87.9067V55.2449H83.8512V53.2111H87.9067V47.1055H81.3109V49.1394H85.8728V51.1772H81.8052V57.2787H85.8728V59.3126H81.3109ZM69.582 54.232C69.582 48.0576 74.5895 43.0419 80.768 43.0419C86.9465 43.0419 91.9541 48.0536 91.9541 54.232C91.9541 60.4105 86.9465 65.4181 80.768 65.4181C74.5895 65.4181 69.582 60.4065 69.582 54.232ZM67.5319 54.232C67.5319 46.9192 73.4551 41 80.764 41C88.0728 41 94.0001 46.9232 94.0001 54.232C94.0001 61.5409 88.0768 67.4681 80.764 67.4681C73.4511 67.4681 67.5319 61.5449 67.5319 54.232ZM80.2818 47.1015H73.678V53.207H77.7254V55.2449H73.678V61.3464H80.2818V59.3126H75.7077V57.2787H79.7714V51.1732H75.7077V49.1394H80.2818V47.1015Z" fill="#CB0202"/>
<path fill-rule="evenodd" clip-rule="evenodd" d="M36.2344 55.3624V55.33H41.1448C41.5945 55.33 42.2387 55.4029 42.7573 55.7432C43.2394 56.0633 43.4865 56.5333 43.4865 57.145C43.4865 57.6312 43.3528 58.0121 43.0976 58.2754C42.6155 58.7575 41.7849 58.7575 41.1772 58.7575H36.2223V58.7292L36.2385 55.3705L36.2344 55.3624ZM36.2344 49.7187H40.7275C41.5175 49.7187 42.8424 49.7187 42.8424 51.2907C42.8424 51.866 42.5952 52.2752 42.105 52.5061C41.6634 52.7128 41.1124 52.7371 40.7397 52.7371H36.2344V49.7187ZM41.3271 61.391C43.0287 61.391 44.3171 60.9737 45.1476 60.1553C45.9984 59.3126 46.1808 58.2308 46.1808 57.4692C46.1808 55.804 45.488 54.6453 44.1186 54.0254L44.0578 54.0011L44.1145 53.9728C44.7303 53.6486 45.5487 52.9842 45.5487 51.0071C45.5487 49.9213 45.1395 48.9449 44.3981 48.2521C43.5838 47.4945 42.3926 47.0934 40.9625 47.0934H33.5443V61.3869H41.3312L41.3271 61.391Z" fill="black"/>
<path d="M16.828 47.0893H14.0001V61.3869H16.828V47.0893Z" fill="black"/>
<path fill-rule="evenodd" clip-rule="evenodd" d="M19.1211 54.1186C19.1211 55.5002 19.352 56.6427 19.8301 57.6069C20.2312 58.4091 20.7903 59.0897 21.6046 59.738C22.8687 60.7508 24.6473 61.2654 26.8918 61.2654H30.7609V58.5671H27.1065C25.0727 58.5671 23.598 58.0607 22.7269 57.0559C22.107 56.3469 21.787 55.3867 21.7789 54.2037C21.7667 52.9396 22.1232 51.9308 22.8282 51.2137C23.7114 50.3183 25.1497 49.8605 27.1065 49.8605H30.7609V47.1825H27.0255C25.7695 47.1825 24.7162 47.3081 23.8005 47.5674C22.889 47.8267 22.1394 48.2116 21.5115 48.7464C20.6201 49.5081 19.117 51.2137 19.117 54.1105L19.1211 54.1186Z" fill="black"/>
<path fill-rule="evenodd" clip-rule="evenodd" d="M47.8824 54.1186C47.8824 55.4961 48.1214 56.7156 48.5914 57.7325C49.0006 58.6157 49.5961 59.3733 50.3659 59.9892C51.553 60.9453 53.2343 61.3869 55.6531 61.3869H59.7329V58.6886H55.8718C53.8421 58.6886 52.3673 58.1579 51.4882 57.1167C50.8683 56.3834 50.5482 55.4029 50.5401 54.2077C50.528 52.9072 50.8926 51.87 51.6259 51.1286C52.5132 50.2252 53.9393 49.7673 55.8678 49.7673H59.7288V47.0934H55.7827C54.5267 47.0934 53.4734 47.219 52.5577 47.4783C51.6462 47.7376 50.8966 48.1225 50.2727 48.6532C49.5516 49.265 47.8783 51.0233 47.8783 54.1186H47.8824Z" fill="black"/>
</svg>
