<svg width="108" height="108" viewBox="0 0 108 108" fill="none" xmlns="http://www.w3.org/2000/svg">
<path fill-rule="evenodd" clip-rule="evenodd" d="M52.8957 28.9845H42.0902V38.9655H48.7106V42.2919H42.0902V52.2711H52.8957V48.9465H45.4148V45.6219H52.0623V35.6355H45.4148V32.3127H52.8957V28.9845ZM32.0408 40.6431C32.0408 28.6857 41.7248 19.0017 53.6859 19.0017C65.6469 19.0017 75.3327 28.6857 75.3327 40.6431C75.3327 52.6005 65.6415 62.2863 53.6859 62.2863C41.7302 62.2863 32.0408 52.5987 32.0408 40.6431ZM35.3924 40.6431C35.3924 30.5469 43.5824 22.3497 53.6859 22.3497C63.7893 22.3497 71.9757 30.5469 71.9757 40.6431C71.9757 50.7393 63.7839 58.9347 53.6859 58.9347C43.5878 58.9347 35.3924 50.7429 35.3924 40.6431ZM54.5697 52.2765H65.3571V42.3027H58.7241V38.9781H65.3571V28.9881H54.5697V32.3145H62.0289V35.6481H55.3815V45.6255H62.0289V48.9501H54.5697V52.2765Z" fill="#B2292E"/>
<path d="M59.0859 88.1541C61.1487 88.1541 62.7021 87.6555 63.7083 86.6745C64.7415 85.6629 64.9575 84.3633 64.9575 83.4489C64.9575 81.4473 64.1187 80.0559 62.4591 79.3179L62.3871 79.2873L62.4573 79.2513C63.2061 78.8607 64.1961 78.0669 64.1961 75.6945C64.1961 74.3931 63.7011 73.2195 62.7993 72.3915C61.8129 71.4807 60.3747 71.0019 58.6395 71.0019L49.6539 70.9947V88.1505L59.0859 88.1559V88.1541ZM52.9173 74.1501H58.3605C59.3181 74.1501 60.9237 74.1501 60.9237 76.0365C60.9237 76.7277 60.6231 77.2209 60.0291 77.4945C59.4981 77.7429 58.8285 77.7717 58.3731 77.7717H52.9173V74.1501ZM52.9173 80.9199V80.8839H58.8645C59.4063 80.8839 60.1875 80.9685 60.8157 81.3771C61.4007 81.7605 61.6977 82.3239 61.6977 83.0547C61.6977 83.6397 61.5357 84.0951 61.2243 84.4083C60.6411 84.9915 59.6331 84.9897 58.8987 84.9897H52.8993V84.9519L52.9191 80.9199H52.9173Z" fill="#161519"/>
<path d="M29.4218 71.0001H26V88.1541H29.4218V71.0001Z" fill="#161519"/>
<path d="M32.201 79.4313C32.201 81.0909 32.4818 82.4607 33.0632 83.6163C33.5438 84.5811 34.2242 85.3911 35.207 86.1741C36.737 87.3927 38.8916 88.0101 41.6078 88.0101H46.2914V84.7701H41.8688C39.41 84.7701 37.6226 84.1599 36.5642 82.9593C35.8136 82.1025 35.4266 80.9559 35.4176 79.5393C35.405 78.0219 35.8334 76.8141 36.6866 75.9537C37.754 74.8755 39.4982 74.3301 41.8688 74.3301H46.2914V71.1189H41.7716C40.2488 71.1189 38.9726 71.2719 37.8674 71.5797C36.7658 71.8911 35.8568 72.3537 35.0972 72.9945C34.0136 73.9053 32.1992 75.9537 32.1992 79.4313" fill="#161519"/>
<path d="M67.0239 79.4313C67.0239 81.0873 67.3137 82.5489 67.8843 83.7693C68.3811 84.8277 69.1029 85.7385 70.0299 86.4819C71.4645 87.6249 73.5021 88.1559 76.4325 88.1559H81.3717V84.9177H76.6917C74.2365 84.9177 72.4509 84.2823 71.3853 83.0313C70.6365 82.1493 70.2531 80.9739 70.2387 79.5393C70.2243 77.9787 70.6689 76.7331 71.5545 75.8421C72.6291 74.7585 74.3571 74.2077 76.6917 74.2077H81.3717V71.0019H76.5963C75.0753 71.0019 73.7973 71.1531 72.6939 71.4627C71.5887 71.7705 70.6797 72.2331 69.9219 72.8757C69.0507 73.6065 67.0221 75.7161 67.0221 79.4331" fill="#161519"/>
</svg>
