<svg width="108" height="108" viewBox="0 0 108 108" fill="none" xmlns="http://www.w3.org/2000/svg">
<path fill-rule="evenodd" clip-rule="evenodd" d="M14.4967 49.6224C15.0978 49.6224 15.5167 49.7496 15.7768 50.0094C16.0679 50.3002 16.1982 50.7804 16.1982 51.5664V61.3836C16.1982 62.7421 15.9131 63.348 14.2307 63.348H14V63.9505H21.5611V63.351L21.3329 63.348C19.6664 63.3281 19.3854 62.7256 19.3854 61.3836V51.5659C19.3854 50.7824 19.5152 50.3042 19.8062 50.0139C20.0688 49.7501 20.4952 49.6219 21.1088 49.6219H21.5606V49.011H14V49.6219L14.4967 49.6224Z" fill="#091C5A"/>
<path fill-rule="evenodd" clip-rule="evenodd" d="M38.6792 58.9424C38.6792 58.9424 38.5479 58.3295 38.5289 57.9864V53.5024C38.4995 50.8877 38.8564 49.586 36.5679 49.596V49.0085H41.8324V49.596C39.4755 49.5865 39.772 50.8882 39.7586 53.5024V63.9724L39.0092 63.9645L27.6409 52.0801C27.6409 52.0801 27.7687 52.692 27.7877 53.0356V60.3782C27.7233 63.0568 28.0553 63.3805 29.7826 63.349V63.961H24.2944V63.349C26.0243 63.351 26.3643 63.1211 26.3623 60.1598V60.3368V53.1005L26.3483 51.9519C26.4127 50.4653 25.8631 49.603 24.1851 49.6169V49.029H29.238L38.6792 58.9424Z" fill="#091C5A"/>
<path fill-rule="evenodd" clip-rule="evenodd" d="M57.7364 48.7232H57.1562L57.1293 48.9217C57.0899 49.218 56.973 49.7142 56.635 49.7142C56.5387 49.7142 56.2985 49.6688 56.028 49.5451C54.8527 49.0364 53.33 48.7232 52.048 48.7232C49.5532 48.7232 47.2902 49.6159 45.6736 51.2378C44.1889 52.7279 43.3766 54.7562 43.3881 56.948C43.3986 59.0476 44.2248 60.7747 45.9162 62.2304C47.6202 63.6867 49.5293 64.3076 52.3036 64.3076C54.6146 64.3076 55.9376 63.9759 57.968 62.8872L58.3235 62.6947V58.7773C58.3235 57.1076 58.5282 56.8478 59.8881 56.7929L60.1093 56.7845V56.2025H53.4653V56.7845L53.6865 56.7929C55.2012 56.8518 55.4873 57.1231 55.4873 58.5035V62.1337C54.3635 62.8743 53.5467 63.1555 52.5168 63.1555C50.9926 63.1555 49.6361 62.5671 48.5947 61.5277C47.375 60.3084 46.7799 58.5325 46.7799 56.5256C46.7799 54.3637 47.3561 52.5195 48.5433 51.3345C49.4883 50.3904 50.7434 49.8663 52.1753 49.8663C53.4543 49.8663 54.9401 50.4144 55.9591 51.2218C56.7878 51.8996 57.2177 52.5554 57.5422 53.6391L57.5916 53.8032H58.1587L57.7364 48.7232Z" fill="#091C5A"/>
<path fill-rule="evenodd" clip-rule="evenodd" d="M86.8369 63.9101C87.2063 63.8542 87.5982 63.8627 87.8928 63.5924C89.1409 63.7839 90.406 63.4757 91.387 62.789C91.9037 62.3726 92.3695 61.8893 92.7465 61.3612C93.078 60.8964 93.3396 60.463 93.5088 59.9423C93.6351 59.6212 93.735 59.287 93.8103 58.9439C94.1663 57.3261 93.9791 55.5167 93.4519 53.9782C93.3555 53.6924 93.2452 53.4156 93.1254 53.1518C92.4674 51.7933 91.5717 50.3276 90.1928 49.4683C89.416 48.9846 88.7011 48.236 88.2622 47.461C88.0236 47.2466 87.7949 46.9623 87.4864 46.9109C87.5708 47.0501 87.6636 47.1862 87.6866 47.3488L87.6686 47.3717C87.3411 47.3812 87.0845 47.2082 86.8603 46.9987L87.1075 46.7748C87.0141 46.7274 86.9073 46.7094 86.8039 46.6855C85.8609 46.5783 85.085 47.0132 84.2483 47.2226L84.2353 47.269C84.749 47.4974 84.8564 48.0629 85.1554 48.4455C85.2293 48.3567 85.3556 48.4215 85.459 48.4135C85.6082 48.422 85.7485 48.5297 85.8933 48.4918C85.8978 48.3672 85.8274 48.2679 85.8049 48.1562C85.8933 48.1143 86.0006 48.1512 86.0995 48.1562C86.3701 48.3143 86.8039 48.1283 86.9727 48.4918C86.6641 48.5113 86.3746 48.5761 86.085 48.6464C86.104 48.7631 86.2208 48.8559 86.2113 48.9731C85.9637 48.8704 85.7016 48.8055 85.426 48.7731L85.412 48.8145C85.7625 49.225 86.2438 49.4683 86.7345 49.6125C87.4405 49.7755 88.0615 49.4399 88.743 49.5566C90.4165 50.3221 91.8458 52.0731 92.4674 53.7348C92.4978 53.8146 92.5273 53.8954 92.5547 53.9777C93.0755 55.4953 93.1743 57.3605 92.6526 58.9434C92.375 59.6017 92.0695 60.2231 91.5797 60.7582C91.3945 60.9861 91.1898 61.1891 90.9671 61.3607C90.2657 61.9063 89.401 62.1471 88.5094 61.9028C88.4534 61.8644 88.3411 61.8549 88.3601 61.7576C88.391 61.6275 88.42 61.4958 88.4454 61.3607C88.5927 60.6021 88.6616 59.8042 88.6217 59.0062C88.6207 58.9723 88.6197 58.9379 88.6187 58.904C88.5693 57.7455 88.3381 56.7042 87.9123 55.7023C87.6387 55.1272 87.3142 54.5004 86.9053 53.9378C86.417 53.267 85.8114 52.6875 85.0336 52.3983C84.5568 52.2721 83.9682 52.2482 83.6088 52.6446C83.3517 52.8696 83.2448 53.1723 83.2818 53.5044C82.8799 53.7588 82.4281 53.8959 81.9363 53.9378C81.816 53.9483 81.6927 53.9927 81.5673 53.9912C81.4485 53.9967 81.3327 53.9917 81.2189 53.9777C80.6273 53.9049 80.0287 53.5857 79.5739 53.2216C79.5644 52.9788 79.5504 52.7504 79.5409 52.4935C79.2803 52.3584 79.0641 52.1015 79.0462 51.7978L79.0691 51.7749C79.2194 51.8213 79.3492 51.8956 79.485 51.9749C79.4241 51.6108 79.3537 51.2517 79.1725 50.934C79.0037 50.8637 78.8355 50.8079 78.6772 50.7236C78.495 50.6034 78.3777 50.383 78.3507 50.183C78.514 50.3416 78.7985 50.2857 78.9248 50.4533C78.7047 49.8045 78.7012 49.0624 78.3407 48.4694C78.1585 48.031 77.6817 47.8301 77.3547 47.5084C77.2284 47.3538 77.1775 47.1393 76.9488 47.1154C76.7616 47.069 76.7476 46.8596 76.7152 46.7234C76.8315 46.7374 76.9294 46.8167 77.0272 46.8351C76.7566 46.1175 76.518 45.3185 75.7851 44.8612L75.6593 44.941C75.3742 44.9829 75.0702 45.0018 74.7856 45.0113C74.9119 44.8248 75.1356 44.745 75.3133 44.6602C75.1076 44.5066 74.9384 44.4697 74.6813 44.4278C74.532 44.5764 74.2619 44.6517 74.0702 44.6936L74.0462 44.6747C74.0412 44.5066 74.0033 44.3016 74.2564 44.2593C74.0133 44.1426 73.6104 44.1899 73.3628 44.2593C73.2934 44.4413 73.0927 44.6049 73.1071 44.8203C72.9629 44.9694 72.86 45.1704 72.7097 45.2776C72.7052 44.9181 72.8585 44.5869 72.9239 44.2837C72.7137 44.363 72.5001 44.4752 72.2939 44.5729C71.9629 44.3814 71.6134 44.1904 71.2584 44.0453C71.2265 44.0313 71.1556 44.0179 71.1696 44.0782C71.4736 44.2972 71.3558 44.7086 71.3882 45.0203L71.1965 44.8622C71.1032 44.6243 70.8336 44.4518 70.7871 44.1904C70.4691 44.2513 70.2659 44.3351 69.9714 44.4612L69.9309 44.4847C70.1501 44.4847 70.3368 44.6567 70.4442 44.8303C70.1127 44.8482 69.8181 44.7181 69.4911 44.6847C69.4587 44.6527 69.4302 44.6143 69.3788 44.6193C69.2155 44.6802 69.0747 44.7964 68.931 44.9086C68.6084 45.2263 68.2809 45.5764 68.1272 45.9968C68.235 46.0147 68.3703 46.0102 68.4497 46.0756C68.2724 46.1828 68.1182 46.3653 67.9454 46.4676C67.8845 46.7104 67.894 46.9867 67.8795 47.252C67.7437 47.458 67.562 47.639 67.4737 47.869C67.1836 48.8055 67.1092 49.8473 67.1511 50.9111C67.0573 51.0004 66.9355 51.0567 66.8476 51.1266L66.8571 52.0781H66.8801C66.922 51.8781 67.1606 51.7664 67.3054 51.6308H67.3523C67.3289 51.8452 67.3009 52.0601 67.2964 52.2796L67.0258 52.5035C66.7542 52.7419 66.9834 53.101 66.9604 53.4002C66.9794 53.4785 66.9924 53.5957 67.0488 53.6146C67.0818 53.4979 67.1841 53.4142 67.25 53.3109C67.3663 53.2835 67.4692 53.1892 67.5765 53.1763C67.5156 53.4097 67.4372 53.6381 67.3429 53.862C67.2979 53.8914 67.2455 53.9308 67.2006 53.9787C67.1526 54.0301 67.1142 54.0874 67.1042 54.1513C67.3154 55.2569 67.6459 56.3491 68.0238 57.3899C67.7677 57.8243 67.6219 58.3355 67.4083 58.7838C67.3773 58.8461 67.3498 58.9105 67.3244 58.9753C67.1097 59.5179 67.0443 60.1249 66.7772 60.646C66.6689 60.5722 66.5521 60.5148 66.4317 60.464C65.9265 60.2959 65.3424 60.4031 64.9739 60.7911C64.6464 60.7303 64.3099 60.7861 64.0528 60.9592C63.8686 61.0963 63.7263 61.2634 63.6444 61.4579C63.5885 61.5936 63.5631 61.7412 63.5716 61.9023C63.3619 62.0464 63.2495 62.2698 63.1796 62.4947C63.0818 62.9984 63.259 63.5231 63.5486 63.9111L86.8369 63.9101Z" fill="white"/>
<path fill-rule="evenodd" clip-rule="evenodd" d="M83.7441 53.4156C83.7391 53.5368 83.6507 53.673 83.7301 53.7752C83.8424 53.649 84.0296 53.6535 84.1789 53.5982C84.5943 53.5608 84.9917 53.6909 85.3791 53.7852C85.2817 53.6306 85.2158 53.459 85.1085 53.3184C84.8928 53.2625 84.5663 53.4117 84.5294 53.0945C84.3981 52.9823 84.1919 53.0626 84.0576 53.0705C83.9263 53.1648 83.8189 53.2805 83.7441 53.4156Z" fill="white"/>
<path fill-rule="evenodd" clip-rule="evenodd" d="M69.4646 49.386C69.4626 49.384 69.4596 49.382 69.4577 49.3816C69.4577 49.3816 69.4577 49.384 69.4587 49.386H69.4646Z" fill="white"/>
<path fill-rule="evenodd" clip-rule="evenodd" d="M71.1631 53.5343L71.4437 53.264C71.4676 53.264 71.4856 53.269 71.4996 53.288L71.4761 53.8056C71.6114 53.9318 71.7797 53.9737 71.9569 53.9832C71.9714 53.843 72.0787 53.7453 72.1396 53.6236C72.191 53.5259 72.1586 53.3807 72.2609 53.3104L72.2929 53.3433C72.3263 53.4969 72.3173 53.67 72.3967 53.8051C72.4062 53.8795 72.4197 53.9732 72.4287 54.0385C72.6344 54.0485 72.8206 53.9917 72.9798 53.9174C72.9703 53.7403 73.0318 53.5952 73.0587 53.4316C73.1017 53.3753 73.0073 53.273 73.1246 53.278C73.19 53.4176 73.3068 53.5623 73.3722 53.7114C73.6428 53.4361 73.7552 53.077 73.8206 52.704C73.7417 52.5958 73.6199 52.5958 73.526 52.5264C72.7322 52.2696 71.7128 52.2177 70.9464 52.6147C70.897 52.9329 70.9624 53.283 71.1631 53.5343Z" fill="white"/>
<path fill-rule="evenodd" clip-rule="evenodd" d="M63.7383 62.2928C63.7099 62.6528 63.7383 62.99 63.7608 63.3445C63.8361 63.4612 63.9719 63.5969 64.1061 63.6064L64.1306 63.368C64.186 63.0358 64.0088 62.6838 64.196 62.404C64.3267 62.4459 64.4565 62.5112 64.5698 62.572C64.6247 62.2638 64.5463 61.9048 64.2519 61.7182L63.7383 62.2928Z" fill="white"/>
<path fill-rule="evenodd" clip-rule="evenodd" d="M64.8915 61.7896C64.7093 62.3352 64.5736 63.0094 64.7942 63.5834C64.9195 63.5001 65.0507 63.4204 65.162 63.3037C65.1396 62.8643 65.0787 62.3955 65.3397 62.0314C65.5683 62.1018 65.7235 62.3212 65.8114 62.5361C65.9661 62.3391 66.0175 62.0688 65.9566 61.807C65.9661 61.6025 65.7315 61.6494 65.6197 61.5646C65.6576 61.3921 65.6521 61.1921 65.8348 61.0944L65.2743 61.1502C65.1301 61.3547 64.9714 61.5562 64.8915 61.7896Z" fill="white"/>
<path fill-rule="evenodd" clip-rule="evenodd" d="M66.0458 63.4009C66.0698 63.4438 66.0458 63.5176 66.0927 63.5271C66.1631 63.1356 66.4807 62.8812 66.6539 62.5361C66.7373 62.4194 66.7323 62.2559 66.8681 62.1671C67.0508 62.1671 67.1816 62.2982 67.3593 62.3122C67.4152 62.3541 67.3304 62.391 67.3264 62.4374C67.2894 62.7556 67.1676 63.0189 67.1911 63.345H67.223C67.4707 63.0847 67.6389 62.8014 67.8211 62.5027L67.8531 62.2374C67.895 61.9197 67.5495 61.7148 67.3254 61.5841L67.5261 61.3272L67.246 61.229C66.9185 61.2619 66.6239 61.3971 66.3953 61.6544C66.1112 62.1766 66.0648 62.7665 66.0458 63.4009Z" fill="white"/>
<path fill-rule="evenodd" clip-rule="evenodd" d="M67.3029 60.631C67.4103 60.664 67.5081 60.5752 67.6149 60.6221C68.0453 60.7802 68.4941 60.9437 68.8161 61.3033L69.1996 62.2783L69.3913 61.6768L69.265 61.3497C69.1576 61.1163 68.8631 61.1352 68.6619 61.1258C68.5785 61.0325 68.6669 60.9248 68.6953 60.8365C68.7927 60.5054 68.3863 60.5233 68.223 60.3892C68.233 60.1882 67.9894 60.258 67.8536 60.2391L67.8072 60.1832C67.7797 60.1413 67.7098 60.1413 67.6719 60.1737C67.6619 60.1603 67.6439 60.1508 67.6539 60.1268L67.55 60.1508C67.4058 60.277 67.3074 60.44 67.3029 60.631Z" fill="white"/>
<path fill-rule="evenodd" clip-rule="evenodd" d="M67.5735 59.5583C67.5875 59.6187 67.6249 59.6795 67.6714 59.7164C67.882 59.6605 68.0822 59.5164 68.3254 59.6042C68.6389 59.8795 68.9654 60.1687 69.3448 60.3188L69.4796 60.2949C69.564 60.3238 69.6569 60.3278 69.7133 60.4211C69.7652 60.5473 69.6349 60.6221 69.592 60.7243C69.8026 60.8784 69.7183 61.1542 69.8496 61.3402L70.1861 60.8924C70.1072 60.6959 70.1906 60.3602 69.882 60.3418C69.7797 60.2899 69.7093 60.1872 69.7138 60.0705C69.5136 59.8885 69.2659 59.8097 69.0643 59.6231C68.901 59.492 68.8031 59.291 68.5925 59.2446C68.4482 59.1658 68.2899 59.1234 68.1217 59.0865C67.8072 59.0401 67.7797 59.4127 67.5735 59.5583Z" fill="white"/>
<path fill-rule="evenodd" clip-rule="evenodd" d="M68.0218 58.6387L68.0782 58.7275C68.3114 58.713 68.5226 58.6108 68.7517 58.6152C68.9055 58.709 69.1067 58.7045 69.2649 58.7833C69.3913 58.9559 69.527 59.1519 69.7128 59.2691C70.0922 59.3244 70.3019 59.7309 70.4327 60.0291V59.8845C70.4886 59.6845 70.4277 59.4506 70.3528 59.2691C70.2594 59.1753 70.1241 59.114 70.0263 59.0302C70.0073 58.9698 70.0213 58.9414 70.0403 58.8855C69.895 58.7314 69.6803 58.6472 69.5031 58.5265C69.2555 58.1669 68.7787 58.2651 68.4003 58.1669L68.0218 58.6387Z" fill="white"/>
<path fill-rule="evenodd" clip-rule="evenodd" d="M68.0143 55.2145C68.0558 55.3596 68.1067 55.5417 68.1341 55.6953C68.2649 55.406 68.5229 55.2764 68.7515 55.038C68.6203 54.9487 68.4575 54.9068 68.3128 54.8789V54.8704C68.21 54.9726 68.0513 55.0754 68.0143 55.2145Z" fill="white"/>
<path fill-rule="evenodd" clip-rule="evenodd" d="M68.8631 56.7501L69.0732 56.5356C69.2838 56.3212 69.4565 56.0733 69.4889 55.798C69.3397 55.7092 69.1436 55.7696 68.9988 55.8209C68.9464 56.1252 68.8681 56.4239 68.8631 56.7501Z" fill="white"/>
<path fill-rule="evenodd" clip-rule="evenodd" d="M69.0168 57.4084C69.3397 57.4273 69.6522 57.4916 69.9142 57.3111L70.1752 56.4703C70.0919 56.4653 70.007 56.4284 69.9282 56.4563C69.756 56.8393 69.4091 57.2168 69.0168 57.4084Z" fill="white"/>
<path fill-rule="evenodd" clip-rule="evenodd" d="M69.1117 54.4305C69.3218 54.7392 69.6721 55.0843 70.032 55.1816C69.9901 54.7901 69.6542 54.5188 69.481 54.1832L69.471 54.071C69.3358 53.9398 69.172 53.852 69.0318 53.7812C69.0093 54.0061 69.0702 54.2211 69.1117 54.4305Z" fill="white"/>
<path fill-rule="evenodd" clip-rule="evenodd" d="M70.251 57.4458C70.4985 57.4886 70.7645 57.4458 70.9931 57.3749C71.3255 57.2966 71.5077 56.9321 71.6195 56.6478H71.2037L70.7551 57.0862C70.5784 57.1799 70.4092 57.3206 70.251 57.4458Z" fill="white"/>
<path fill-rule="evenodd" clip-rule="evenodd" d="M70.2005 54.0061C70.2709 54.3702 70.4241 54.7013 70.6353 55.0145L70.6912 54.3188L70.2005 54.0061Z" fill="white"/>
<path fill-rule="evenodd" clip-rule="evenodd" d="M71.7321 55.8214C71.76 55.588 71.6627 55.3177 71.6357 55.0799C71.495 54.9861 71.2983 54.9956 71.1541 54.9028C71.1631 55.2714 71.4521 55.5836 71.7321 55.8214Z" fill="white"/>
<path fill-rule="evenodd" clip-rule="evenodd" d="M71.3069 58.1933C71.6013 58.0996 71.8858 57.9968 72.1563 57.8472C72.329 57.6009 72.591 57.3754 72.628 57.0867C72.4134 57.147 72.2262 57.0777 72.0261 57.176C71.9048 57.3949 71.8294 57.6428 71.5963 57.8008C71.5594 57.9589 71.3862 58.0672 71.3069 58.1933Z" fill="white"/>
<path fill-rule="evenodd" clip-rule="evenodd" d="M71.7642 58.7674L72.1145 59.2242C72.3017 59.285 72.5353 59.2661 72.6985 59.1588L72.5722 58.7434C72.3252 58.8377 72.0312 58.8087 71.7642 58.7674Z" fill="white"/>
<path fill-rule="evenodd" clip-rule="evenodd" d="M72.3488 55.4619L72.484 56.0783C72.8105 55.812 72.8768 55.4245 72.8688 55.014C72.6817 55.2285 72.5724 55.3596 72.3488 55.4619Z" fill="white"/>
<path fill-rule="evenodd" clip-rule="evenodd" d="M73.2689 56.5501C73.2739 56.6383 73.2973 56.7226 73.3487 56.7929C73.7126 56.9231 73.75 57.3665 74.0869 57.5345C74.306 57.6323 74.5576 57.5106 74.7497 57.4223C74.605 57.2592 74.4408 57.146 74.3015 56.974C74.2032 56.9321 74.1049 56.8712 74.1099 56.7501L73.2689 56.5501Z" fill="white"/>
<path fill-rule="evenodd" clip-rule="evenodd" d="M73.5584 58.7529C73.7176 58.9349 73.9323 59.0282 74.1564 59.079C74.1194 59.0277 74.1803 59.079 74.1893 59.0466L73.9083 58.4317C73.7686 58.4352 73.6238 58.4636 73.493 58.4547C73.502 58.5564 73.526 58.6586 73.5584 58.7529Z" fill="white"/>
<path fill-rule="evenodd" clip-rule="evenodd" d="M74.054 55.8773C73.9228 55.5741 73.8679 55.2055 73.8309 54.8699C73.6907 55.0375 73.5459 55.1452 73.4152 55.3172C73.3543 55.6629 73.8479 55.7476 74.054 55.8773Z" fill="white"/>
<path fill-rule="evenodd" clip-rule="evenodd" d="M74.6238 55.5606C74.792 55.7796 75.1608 55.7047 75.3675 55.6394C75.2686 55.4713 74.9522 55.3736 74.8963 55.1916C74.8634 54.8699 74.799 54.5572 74.6952 54.263C74.5315 54.6594 74.3343 55.1312 74.6238 55.5606Z" fill="white"/>
<path fill-rule="evenodd" clip-rule="evenodd" d="M74.9179 56.5501C75.3857 56.8912 75.843 57.2872 76.497 57.1425C76.5439 57.1096 76.6233 57.1141 76.6328 57.0538C76.4406 56.9321 76.2359 56.8388 76.0392 56.7276L75.8155 56.4005H75.7127C75.4601 56.4847 75.1885 56.5167 74.9179 56.5501Z" fill="white"/>
<path fill-rule="evenodd" clip-rule="evenodd" d="M74.9279 60.3353H74.9598C75.2409 60.1114 75.5724 60.0366 75.9039 59.9428C75.9933 59.9752 75.9369 60.0735 76.0162 60.1114C76.2174 60.0271 76.4606 60.0461 76.6658 59.9757C76.9139 59.9857 77.1151 59.9902 77.3153 60.0974C77.4735 60.3069 77.7731 60.2844 77.9793 60.4236L77.9463 60.0974C77.512 59.5882 76.834 59.5508 76.209 59.5608L76.1945 59.495C76.0452 59.495 75.8774 59.5279 75.7372 59.5937C75.5365 59.6022 75.3447 59.7009 75.1525 59.7613C75.0632 59.9388 74.9933 60.1528 74.9279 60.3353Z" fill="white"/>
<path fill-rule="evenodd" clip-rule="evenodd" d="M75.3028 54.5991C75.4849 54.8375 75.7554 55.019 76.0639 54.9587C75.9057 54.8046 75.723 54.6405 75.7135 54.4216C75.7604 54.0061 75.3028 53.9737 75.0787 53.7583C75.1525 54.039 75.144 54.3512 75.3028 54.5991Z" fill="white"/>
<path fill-rule="evenodd" clip-rule="evenodd" d="M75.2554 61.1617H75.3098C75.5579 61.0066 75.9179 61.1238 76.161 60.9602C76.2963 60.8899 76.3053 61.0769 76.3997 61.1283C76.6283 61.2684 76.6563 61.6878 76.9788 61.5906C77.3662 61.7911 77.2683 62.2633 77.2823 62.6084L77.6423 62.3845C77.6093 62.2025 77.7117 61.9821 77.5949 61.824C77.5065 61.624 77.2638 61.605 77.147 61.4415C77.2873 61.2031 76.9698 61.0919 76.9039 60.9188L76.9229 60.8949L77.4171 60.9602C77.5864 61.0629 77.6463 61.2499 77.6982 61.4225C78.0861 61.4878 78.1795 61.9262 78.3153 62.2065C78.3946 62.015 78.4271 61.8095 78.507 61.6235C78.5115 61.4689 78.3058 61.4689 78.2034 61.3996C78.1745 61.1617 78.0676 60.9368 77.858 60.7926C77.4276 60.6854 77.0497 60.447 76.5779 60.447L76.185 60.5687C75.9698 60.6201 75.7411 60.5547 75.5779 60.7034C75.3338 60.7218 75.3153 60.9886 75.2554 61.1617Z" fill="white"/>
<path fill-rule="evenodd" clip-rule="evenodd" d="M75.502 59.2381L75.5914 59.28C75.7821 59.1908 75.9743 59.0885 76.1755 59.0137C76.488 58.9249 76.7312 59.28 76.9933 59.0561C77.0911 58.9858 77.1745 59.0885 77.2499 59.1449C77.3622 59.3503 77.6238 59.3364 77.82 59.3922C77.7222 59.1264 77.6008 58.7619 77.2594 58.719C77.1241 58.6586 76.9648 58.6646 76.834 58.5843C76.4745 58.1878 76.2409 58.9105 75.848 58.7334C75.7082 58.8885 75.5355 59.0327 75.502 59.2381Z" fill="white"/>
<path fill-rule="evenodd" clip-rule="evenodd" d="M75.5914 61.5113C75.7406 61.6365 75.8943 61.8519 76.1274 61.8235C76.4184 61.9591 76.2966 62.3411 76.4553 62.5421L76.623 62.3925L76.609 62.3835L76.633 62.3601L76.643 62.3741C76.6894 62.2334 76.6235 61.9861 76.5442 61.823C76.4369 61.7492 76.3106 61.828 76.2083 61.7576C76.1938 61.6085 76.1005 61.5337 75.9932 61.4405C75.9183 61.3846 75.82 61.4594 75.7361 61.4544L75.5914 61.5113Z" fill="white"/>
<path fill-rule="evenodd" clip-rule="evenodd" d="M76.1755 55.8214C76.3297 56.0788 76.6282 56.2374 76.8667 56.4144C77.0624 56.5037 77.3194 56.5261 77.5301 56.4797C77.3294 56.3167 77.1467 56.1302 76.979 55.9332C76.9137 55.8399 76.8992 55.7237 76.8109 55.6394C76.5902 55.6818 76.3437 55.6773 76.1755 55.8214Z" fill="white"/>
<path fill-rule="evenodd" clip-rule="evenodd" d="M76.4331 54.1513C76.6487 54.4166 76.9801 54.3098 77.2836 54.3188V54.2869L76.8164 53.8939C76.6852 53.9363 76.5459 54.0525 76.4331 54.1513Z" fill="white"/>
<path fill-rule="evenodd" clip-rule="evenodd" d="M67.8321 49.7496L68.1026 50.5899C68.0976 50.1137 68.3172 49.7172 68.2708 49.2319L68.472 48.9327L68.0462 49.0634C67.9344 49.2778 67.8416 49.4933 67.8321 49.7496Z" fill="white"/>
<path fill-rule="evenodd" clip-rule="evenodd" d="M68.0143 48.2934L68.3827 48.0784V47.5323C68.2285 47.6261 68.1436 47.7847 68.0233 47.9108L68.0143 48.2934Z" fill="white"/>
<path fill-rule="evenodd" clip-rule="evenodd" d="M75.5924 49.1432C75.503 49.2599 75.3682 49.2878 75.2564 49.3112C75.4521 48.9517 75.546 48.4514 75.3912 48.0455C75.4945 48.0086 75.6069 47.9906 75.7047 47.9338L75.6947 47.9248L75.9523 47.6999C76.2933 47.4665 76.1625 47.0236 76.2888 46.6925C76.1206 46.4307 76.0697 46.1135 75.826 45.8935L75.8405 45.8851C75.6483 45.6422 75.3028 45.6696 75.0402 45.5484C74.6947 45.4317 74.4286 45.6696 74.181 45.8292C74.0737 45.8472 74.1391 45.9873 74.0223 45.9828C73.9569 46.1559 73.877 46.3424 73.8305 46.5334C73.3677 46.4676 72.8685 46.5199 72.4991 46.7808C72.3024 46.6366 72.0642 46.6082 71.8351 46.5429C71.6673 46.5105 71.4756 46.5713 71.3548 46.477C71.1776 46.2771 71.1391 45.9125 70.8351 45.8616C70.7282 45.8242 70.7053 45.708 70.7053 45.6048C70.5041 45.5724 70.3258 45.4796 70.1296 45.4367C69.8316 45.3011 69.5935 45.5165 69.3688 45.6606C69.2709 45.703 69.1586 45.7165 69.0657 45.7734C68.8975 46.0342 68.7382 46.3005 68.6309 46.5893C68.6639 46.8271 68.7662 47.0376 68.8885 47.2381C68.9958 47.5418 69.3318 47.7797 69.6169 47.9014C69.4816 48.3632 69.4816 48.9143 69.6169 49.3811C69.6169 49.3811 69.6089 49.3865 69.6089 49.3855C69.6089 49.3865 69.5939 49.3985 69.5939 49.3985C69.549 49.3985 69.5016 49.408 69.4646 49.386H69.4587C69.5241 49.8319 69.7342 50.2214 70.0737 50.556C70.1955 50.5989 70.1676 50.743 70.2195 50.8368C70.2515 50.8782 70.2559 50.967 70.242 51.0044C69.5141 50.9809 68.8641 51.163 68.2799 51.4941C68.1307 51.5689 68.1966 51.7749 68.1826 51.919C68.5935 51.6487 69.0373 51.4477 69.5275 51.3595C69.7377 51.3455 69.9759 51.2941 70.1771 51.35L70.2005 51.7514C69.6449 52.0407 69.0373 52.2088 68.5605 52.685C68.57 52.8292 68.5425 52.9977 68.5845 53.1194L69.0098 52.7733C69.4202 52.4616 69.8501 52.1948 70.3223 52.0222C70.4487 52.1719 70.58 52.3304 70.7482 52.4232C71.0328 52.2412 71.3413 52.1065 71.6683 52.0222C71.8416 51.9195 72.1161 52.0128 72.2285 51.8078L72.3083 51.3829C72.2939 51.3734 72.2854 51.3555 72.2614 51.3604C72.0422 51.2343 71.8975 51.0153 71.9159 50.758C71.8416 50.7949 71.7577 50.8188 71.6683 50.8233C71.5934 50.8044 71.524 50.7864 71.4911 50.7111C71.4861 50.6174 71.4392 50.4777 71.5325 50.4079C71.8361 50.2209 72.229 50.2114 72.6124 50.2403C72.897 50.2772 73.3088 50.2628 73.4062 50.5999C73.3932 50.6977 73.4017 50.8049 73.3038 50.8702C73.201 50.9261 73.0847 50.8652 72.9903 50.8238C72.9164 51.0522 72.7901 51.3096 72.5325 51.3834L72.566 51.6547C72.5979 51.7764 72.6074 51.9764 72.7996 51.9345C73.2434 52.0417 73.6353 52.2706 74.0233 52.518C74.1541 52.3868 74.2569 52.2372 74.3498 52.1025C75.0412 52.3354 75.6398 52.8536 76.2094 53.3344L76.2334 52.9424C75.6912 52.4616 75.0881 52.121 74.4621 51.8547C74.486 51.7285 74.514 51.6068 74.518 51.4722C75.2614 51.5136 75.9658 51.7425 76.5789 52.1025L76.5689 51.7664C75.9244 51.4213 75.2189 51.1924 74.4476 51.1829C74.4197 51.14 74.4107 51.0802 74.4157 51.0378C74.7896 50.9769 75.0552 50.5899 75.1451 50.2533C75.3358 50.0344 75.6124 49.796 75.547 49.4698C75.5554 49.4434 75.5649 49.4145 75.5744 49.3865C75.5994 49.3043 75.6203 49.219 75.5924 49.1432Z" fill="white"/>
<path fill-rule="evenodd" clip-rule="evenodd" d="M76.2424 50.3426L76.6252 50.2209L76.6666 50.0064C76.7749 49.6937 76.5463 49.4603 76.433 49.2125L76.2424 50.3426Z" fill="white"/>
<path fill-rule="evenodd" clip-rule="evenodd" d="M77.2084 51.8223C77.3906 52.0222 77.5683 52.3449 77.8912 52.2462C77.8672 52.1115 77.7924 51.9998 77.746 51.8781C77.6611 51.7794 77.6337 51.4996 77.4655 51.5983C77.3392 51.5141 77.3072 51.3734 77.2269 51.2617C77.1905 51.4343 77.2134 51.6492 77.2084 51.8223Z" fill="white"/>
<path fill-rule="evenodd" clip-rule="evenodd" d="M77.2743 53.1887C77.3447 53.2875 77.3637 53.4137 77.4325 53.5019C77.5588 53.5852 77.746 53.5722 77.8997 53.5578C78.04 53.5254 78.1288 53.679 78.2596 53.5897C78.0969 53.4875 77.999 53.3004 77.8438 53.1658C77.6611 53.0212 77.466 53.1473 77.2743 53.1887Z" fill="white"/>
<path fill-rule="evenodd" clip-rule="evenodd" d="M77.5219 55.3596C77.8439 55.5511 78.2541 55.7382 78.6838 55.6728C78.7303 55.6489 78.8101 55.6539 78.8191 55.5975C78.5531 55.5038 78.2736 55.238 77.9941 55.1821C77.8394 54.9442 77.6387 55.2429 77.4426 55.224C77.4471 55.2803 77.503 55.3227 77.5219 55.3596Z" fill="white"/>
<path fill-rule="evenodd" clip-rule="evenodd" d="M78.493 59.4805L78.5634 59.6306C78.6337 60.1164 78.9412 60.5637 78.773 61.0958C78.9132 61.1936 78.9557 61.3567 79.044 61.4873H79.0675C79.1748 61.0819 79.1004 60.6615 79.044 60.255C79.0859 59.8865 78.7121 59.6715 78.493 59.4805Z" fill="white"/>
<path fill-rule="evenodd" clip-rule="evenodd" d="M78.5734 54.7013C78.8164 54.8884 79.2042 54.9068 79.4837 54.8135C79.3066 54.7158 79.1109 54.6086 78.9652 54.4774L78.5734 54.7013Z" fill="white"/>
<path fill-rule="evenodd" clip-rule="evenodd" d="M79.7261 56.1346C79.7022 56.3311 79.8334 56.4942 79.9737 56.592C80.0251 56.4753 80.1089 56.3775 80.1179 56.2468C80.0765 56.0459 79.9642 55.8643 79.782 55.7292C79.7491 55.8593 79.7122 55.9845 79.7261 56.1346Z" fill="white"/>
<path fill-rule="evenodd" clip-rule="evenodd" d="M79.7406 58.2622C79.7077 58.4811 79.9502 58.51 80.053 58.6312C80.1374 58.7334 79.9971 58.8038 79.9971 58.9015C80.1743 59.1299 80.2771 59.3917 80.2771 59.6955C80.3475 59.4112 80.4548 59.1394 80.4933 58.8457C80.4743 58.6407 80.1479 58.6826 80.1988 58.4542C80.2916 58.2208 80.1798 57.9919 80.1189 57.7824C80.1 57.749 80.058 57.6836 80.0216 57.7026C79.9358 57.8941 79.7261 58.0288 79.7406 58.2622Z" fill="white"/>
<path fill-rule="evenodd" clip-rule="evenodd" d="M80.3806 57.1515L80.6232 57.6228C80.731 57.6098 80.7999 57.5061 80.8842 57.4323C80.9501 57.2358 80.7769 57.1096 80.726 56.951C80.6831 56.8388 80.726 56.6897 80.6462 56.5915C80.5858 56.5546 80.5149 56.4937 80.445 56.5117L80.3806 57.1515Z" fill="white"/>
<path fill-rule="evenodd" clip-rule="evenodd" d="M80.6932 55.9107C80.8849 56.0269 81.104 56.195 81.2064 56.4C81.3706 56.8762 81.6322 57.3056 81.8235 57.7674C81.8938 58.0896 81.9498 58.3769 82.0386 58.6945C82.0716 58.7773 82.0526 58.9409 82.1839 58.9274C82.2209 58.5729 82.2912 58.2322 82.2957 57.8632C82.1794 57.7096 82.0242 57.6442 81.8799 57.55V57.5181C81.8988 57.4383 81.9642 57.345 82.0626 57.36C82.104 57.3121 82.2303 57.2662 82.1749 57.1824C81.9318 56.9401 81.9458 56.5216 81.5574 56.4463C81.4226 56.3905 81.3891 56.2508 81.3761 56.1202C81.1934 55.9671 80.9218 55.9142 80.6932 55.9107Z" fill="white"/>
<path fill-rule="evenodd" clip-rule="evenodd" d="M80.9168 58.4402C81.1554 58.6586 81.0721 58.9763 81.0526 59.2706C81.0157 59.4481 81.2397 59.3454 81.3101 59.4386C81.4544 59.6536 81.3705 59.9663 81.3186 60.1997C81.4454 60.0077 81.5901 59.8396 81.6879 59.6301C81.683 59.5503 81.7853 59.5134 81.7818 59.4157C81.8232 59.28 81.665 59.3409 81.5996 59.3259C81.5437 59.312 81.4828 59.2745 81.5008 59.2002C81.6226 58.9663 81.5108 58.6866 81.4639 58.4537C81.408 58.2617 81.4878 58.0058 81.3985 57.8378C81.2492 58.0432 80.805 58.0901 80.9168 58.4402Z" fill="white"/>
<path fill-rule="evenodd" clip-rule="evenodd" d="M81.3517 55.1257C81.7679 55.5462 82.0714 55.9681 82.5196 56.3745C82.5296 56.1935 82.5056 56.0244 82.4961 55.8469C82.4302 55.7217 82.309 55.6279 82.2061 55.5347C81.8752 55.5018 81.702 55.0559 81.3517 55.1257Z" fill="white"/>
<path fill-rule="evenodd" clip-rule="evenodd" d="M82.4405 57.3505C82.45 57.3924 82.469 57.4293 82.4869 57.4717C82.6691 57.7709 82.8418 58.0781 82.9686 58.4003C82.9311 58.0557 83.1652 57.6253 82.8563 57.36C82.8143 57.2478 82.6741 57.2852 82.5853 57.2941L82.4405 57.3505Z" fill="white"/>
<path fill-rule="evenodd" clip-rule="evenodd" d="M83.5618 60.7602C83.6931 60.8196 83.8609 60.7123 83.9872 60.6385C84.104 60.6101 84.2024 60.6754 84.2912 60.7363C84.3282 60.8106 84.2912 60.8804 84.3042 60.9507C84.5853 61.03 84.8604 61.1328 85.1085 61.2958L85.1869 61.217C85.2058 61.0161 85.0476 60.8724 84.8978 60.7602C84.8 60.7029 84.6542 60.7363 84.5853 60.647C84.6317 60.5732 84.6317 60.461 84.6267 60.3767C84.472 60.3767 84.3741 60.3298 84.2478 60.255C84.1694 60.2321 84.0985 60.1667 84.0331 60.255C83.8 60.4141 83.786 60.647 83.5618 60.7602Z" fill="white"/>
<path fill-rule="evenodd" clip-rule="evenodd" d="M83.8893 54.8864C84.0056 54.8544 84.1279 54.8205 84.2257 54.7372C84.5377 54.4525 84.9913 54.6435 85.3552 54.639C85.2858 54.5128 85.187 54.3876 85.0986 54.2794C84.9679 54.2281 84.8461 54.1672 84.6969 54.1672C84.3789 53.9812 84.1648 54.2934 83.9213 54.447C83.8564 54.5742 83.8239 54.7602 83.8893 54.8864Z" fill="white"/>
<path fill-rule="evenodd" clip-rule="evenodd" d="M83.8983 55.8469C83.8983 55.8339 83.8983 55.819 83.9123 55.815C83.9542 55.8524 83.9073 55.9406 83.9777 55.9591C84.099 55.8992 84.2113 55.815 84.3232 55.7362C84.6367 55.7362 84.8234 55.4329 85.131 55.4329C85.6447 55.5257 86.1549 55.6284 86.6027 55.8803C86.5708 55.5771 86.3087 55.3018 86.0431 55.1656C85.8928 55.1143 85.776 55.1946 85.6686 55.2778C85.3551 55.4748 85.5194 54.9936 85.2997 54.9836C85.0146 55.0734 84.7201 55.1706 84.4031 55.1432C84.2158 55.2125 84.0845 55.3846 83.8748 55.3666C83.8654 55.5207 83.8419 55.7077 83.8983 55.8469Z" fill="white"/>
<path fill-rule="evenodd" clip-rule="evenodd" d="M84.1135 56.8887C84.2108 56.9909 84.3741 56.972 84.5154 56.9909L84.9213 56.8328C84.9263 56.758 84.8 56.7386 84.8274 56.6558C84.9397 56.5296 85.0945 56.6179 85.2338 56.566C85.431 56.5386 85.6317 56.3426 85.8269 56.4872C85.8224 56.5102 85.8369 56.5436 85.8184 56.566C85.7565 56.7112 85.8604 56.7994 85.9722 56.8553C86.2013 56.8982 86.416 57.1081 86.6452 57.0139C86.6222 56.8229 86.5708 56.6458 86.5233 56.4633C86.3321 56.4304 86.1968 56.2718 86.0191 56.206C85.9392 56.2808 85.8369 56.3371 85.7385 56.3276C85.3786 56.2439 84.9487 56.0199 84.5848 56.2488C84.4535 56.4069 84.2198 56.3606 84.0426 56.4299C84.0526 56.59 84.0706 56.7436 84.1135 56.8887Z" fill="white"/>
<path fill-rule="evenodd" clip-rule="evenodd" d="M84.2672 59.6625C84.2388 59.7418 84.1599 59.873 84.3042 59.9099C84.6036 59.9199 84.9865 59.7658 85.2205 59.9987C85.2994 60.06 85.262 60.1852 85.2575 60.265L85.6493 60.5921C85.6872 60.3957 85.7566 60.2181 85.7616 60.0077C85.7296 59.8585 85.6543 59.7134 85.524 59.6157C85.2664 59.6157 85.1167 59.3149 84.8412 59.3533C84.697 59.3199 84.5712 59.4481 84.4255 59.4481C84.3601 59.5134 84.3231 59.5932 84.2672 59.6625Z" fill="white"/>
<path fill-rule="evenodd" clip-rule="evenodd" d="M84.3796 57.4627C84.44 57.5879 84.5109 57.7939 84.6272 57.8078C84.9028 57.6866 85.3042 57.6113 85.6132 57.7425C85.7161 57.7609 85.7161 57.8776 85.6931 57.953C85.8514 58.0462 86.0436 58.12 86.2113 58.2233L86.1649 57.9435C86.1549 57.6398 85.772 57.6113 85.7485 57.3121C85.4355 57.2099 85.085 57.1775 84.7535 57.2567C84.6452 57.355 84.4919 57.341 84.3606 57.3695C84.3521 57.4064 84.3746 57.4293 84.3796 57.4627Z" fill="white"/>
<path fill-rule="evenodd" clip-rule="evenodd" d="M84.4595 58.9748C84.6417 58.9234 84.7574 58.7225 84.9541 58.7045C85.253 58.7095 85.5196 58.8297 85.7057 59.087C85.819 59.1613 85.7951 59.3533 85.9393 59.3533C85.8974 59.1239 85.9722 58.914 85.9633 58.6806C85.7661 58.3544 85.282 58.6058 85.0993 58.2233L84.7539 58.2462C84.5064 58.307 84.5723 58.5968 84.5383 58.7928C84.5104 58.8536 84.4545 58.9 84.4595 58.9748Z" fill="white"/>
<path fill-rule="evenodd" clip-rule="evenodd" d="M86.1729 61.0161C86.3181 61.3053 86.6365 61.5252 86.6685 61.8569C86.7434 61.7676 86.7948 61.6654 86.8462 61.5676C86.8412 61.4739 86.7334 61.4739 86.6909 61.3996C86.649 61.2784 86.7149 61.1712 86.7334 61.0629C86.673 60.8899 86.5277 60.7268 86.3645 60.6246L86.1729 61.0161Z" fill="white"/>
<path fill-rule="evenodd" clip-rule="evenodd" d="M86.749 60.279L87.0849 60.7363C87.2291 60.5074 87.2291 60.1717 87.1732 59.8954C87.1413 59.8441 87.0799 59.7603 86.9961 59.7977C86.8693 59.9289 86.8513 60.1288 86.749 60.279Z" fill="white"/>
<path fill-rule="evenodd" clip-rule="evenodd" d="M85.3791 47.5034C85.5009 47.5642 85.6176 47.6201 85.7619 47.6291C85.8607 47.5782 85.987 47.5408 86.1083 47.5732C86.281 47.6854 86.4911 47.5498 86.6912 47.5592C86.5145 47.3917 86.3129 47.2889 86.1083 47.1912C85.8462 47.2466 85.6366 47.4326 85.3791 47.5034Z" fill="white"/>
<path fill-rule="evenodd" clip-rule="evenodd" d="M87.2068 47.9423C87.4534 47.9652 87.6311 48.1841 87.7992 48.3677C88.0099 48.3996 88.1686 48.5487 88.2944 48.7033L88.215 48.4554C88.1591 48.2076 88.0049 48.0161 87.8467 47.8211C87.6226 47.835 87.402 47.8535 87.2068 47.9423Z" fill="white"/>
<path fill-rule="evenodd" clip-rule="evenodd" d="M69.7702 45.894L69.9055 45.908C70.2704 46.09 70.859 46.1833 70.8915 46.7104C70.5235 46.8556 70.1681 47.0521 69.874 47.3498C69.6499 47.1209 69.1961 47.2471 69.1217 46.8461C69.1921 46.4681 69.3269 45.9928 69.7702 45.894Z" fill="#FF6600"/>
<path fill-rule="evenodd" clip-rule="evenodd" d="M70.1216 48.2609C70.546 48.224 70.9574 48.2834 71.3972 48.247C71.5046 48.2934 71.6164 48.3871 71.6678 48.4943C71.6538 48.998 71.4996 49.4793 71.4761 49.997C71.2849 50.0773 71.0977 50.2353 71.0512 50.4453C70.878 50.4962 70.7237 50.5999 70.5555 50.6782C70.4806 50.5201 70.4946 50.2817 70.6264 50.1516C70.8081 49.8942 71.2804 49.9551 71.242 49.5491C71.3638 49.3526 71.2469 49.1008 71.2519 48.8953C71.205 48.7417 71.1586 48.9467 71.0837 48.9417C70.9344 48.9736 70.7802 48.9836 70.6498 48.9098C70.551 48.806 70.4297 48.7227 70.4017 48.5826C70.2709 48.5173 70.1172 48.4145 70.0518 48.2789L70.1216 48.2609Z" fill="#FF6600"/>
<path fill-rule="evenodd" clip-rule="evenodd" d="M70.6354 51.3041C70.835 51.3315 71.0461 51.2432 71.2188 51.341C71.1814 51.4063 71.0836 51.4343 71.0042 51.4532L70.6913 51.5983C70.5745 51.5694 70.6399 51.3829 70.6354 51.3041Z" fill="#FF6600"/>
<path fill-rule="evenodd" clip-rule="evenodd" d="M71.453 47.4061C71.6532 47.3408 71.8688 47.2062 72.0834 47.2715C71.9292 47.4256 71.8079 47.6261 71.6916 47.8121L71.0518 47.7986C71.1206 47.6311 71.2978 47.4909 71.453 47.4061Z" fill="#FF6600"/>
<path fill-rule="evenodd" clip-rule="evenodd" d="M73.3267 47.2525C73.5922 47.2062 73.5782 47.5513 73.8213 47.5657C73.8637 47.6216 73.9246 47.6725 73.9007 47.7562C73.7604 47.8121 73.5553 47.7847 73.3956 47.8216C73.1855 47.7049 73.3217 47.3408 72.9893 47.3643C72.9713 47.3368 72.9334 47.2805 72.9803 47.2615C73.0836 47.2251 73.2179 47.2386 73.3267 47.2525Z" fill="#FF6600"/>
<path fill-rule="evenodd" clip-rule="evenodd" d="M73.1586 48.5038C73.2749 48.3397 73.4531 48.3268 73.6209 48.2934L74.831 48.3168C74.8824 48.3632 74.7846 48.4051 74.7846 48.4614C74.7097 48.5312 74.6019 48.5502 74.5365 48.616C74.3782 48.621 74.3912 48.8065 74.2794 48.8863C74.1061 49.0589 73.8545 48.9801 73.6533 48.9517C73.5829 48.9003 73.504 48.83 73.4711 48.7507L73.4152 48.8065C73.4856 49.0684 73.4666 49.3581 73.5175 49.6234L73.8071 49.8154C73.8121 50.2448 74.3168 50.1281 74.5365 50.3665C74.4851 50.5201 74.3822 50.6508 74.2709 50.7819C74.0931 50.6089 73.8919 50.4962 73.6773 50.4224C73.6588 50.17 73.3832 50.0214 73.2284 49.8947C73.1865 49.4374 73.177 48.9706 73.1031 48.5273L73.1586 48.5038Z" fill="#FF6600"/>
<path fill-rule="evenodd" clip-rule="evenodd" d="M73.5974 51.3829H74.1584L74.088 51.6771L73.527 51.4387C73.514 51.3924 73.5644 51.3784 73.5974 51.3829Z" fill="#FF6600"/>
<path fill-rule="evenodd" clip-rule="evenodd" d="M74.6064 46.0955L75.0222 45.9644C75.2609 46.0761 75.485 46.2167 75.7042 46.3748C75.8775 46.693 75.8485 47.1214 75.7696 47.476C75.6433 47.6166 75.3677 47.476 75.2654 47.6999H75.2464C75.0916 47.2615 74.6533 46.87 74.2464 46.6685C74.3118 46.4451 74.3822 46.2262 74.6064 46.0955Z" fill="#FF6600"/>
<path fill-rule="evenodd" clip-rule="evenodd" d="M86.8439 63.8772C87.2128 63.8213 87.6052 63.8303 87.8993 63.559C89.1474 63.751 90.413 63.4428 91.394 62.7571C91.9117 62.3391 92.377 61.8564 92.7529 61.3292C93.0844 60.8644 93.3465 60.4301 93.5158 59.9099C93.6416 59.5882 93.7414 59.2546 93.8168 58.911C94.1728 57.2937 93.9861 55.4848 93.4599 53.9448C93.362 53.659 93.2527 53.3837 93.1324 53.1194C92.4744 51.7609 91.5797 50.2957 90.1998 49.4359C89.4225 48.9517 88.7081 48.2026 88.2692 47.4286C88.0306 47.2131 87.8014 46.9289 87.4934 46.8775C87.5778 47.0176 87.6706 47.1528 87.6946 47.3159L87.6756 47.3393C87.3491 47.3488 87.0915 47.1762 86.8673 46.9653L87.1155 46.7419C87.0216 46.6955 86.9143 46.676 86.8114 46.6536C85.8673 46.5464 85.092 46.9797 84.2563 47.1902L84.2423 47.2366C84.7555 47.465 84.8629 48.0295 85.1624 48.413C85.2373 48.3238 85.3636 48.3891 85.466 48.3796C85.6152 48.3891 85.7555 48.4963 85.8998 48.4589C85.9048 48.3333 85.8354 48.2355 85.8114 48.1238C85.8998 48.0809 86.0081 48.1188 86.106 48.1238C86.3766 48.2819 86.8114 48.0949 86.9797 48.4589C86.6711 48.4784 86.3816 48.5427 86.092 48.613C86.1105 48.7297 86.2273 48.8235 86.2183 48.9402C85.9702 48.8365 85.7091 48.7726 85.433 48.7392L85.42 48.7806C85.7705 49.1915 86.2508 49.4344 86.7415 49.5795C87.447 49.7426 88.068 49.407 88.7495 49.5237C90.4235 50.2892 91.8523 52.0402 92.4743 53.7019C92.5048 53.7817 92.5338 53.8625 92.5617 53.9438C93.0824 55.4614 93.1808 57.3281 92.6596 58.91C92.382 59.5693 92.0765 60.1897 91.5867 60.7258C91.4015 60.9527 91.1963 61.1557 90.9736 61.3282C90.2722 61.8738 89.4075 62.1137 88.5168 61.8689C88.4614 61.8324 88.3481 61.8225 88.3666 61.7247C88.398 61.5951 88.427 61.4624 88.4524 61.3282C88.6007 60.5687 88.6681 59.7708 88.6292 58.9738C88.6272 58.9394 88.6267 58.905 88.6252 58.8711C88.5762 57.7131 88.3451 56.6713 87.9187 55.6698C87.6462 55.0948 87.3211 54.4679 86.9123 53.9049C86.4245 53.2336 85.8184 52.6536 85.0406 52.3644C84.5638 52.2382 83.9747 52.2152 83.6158 52.6122C83.3581 52.8361 83.2513 53.1394 83.2882 53.4705C82.8864 53.7258 82.4345 53.8635 81.9428 53.9049C81.8225 53.9154 81.6986 53.9587 81.5743 53.9582C81.455 53.9637 81.3387 53.9582 81.2264 53.9438C80.6333 53.871 80.0352 53.5533 79.5803 53.1877C79.5709 52.9464 79.5564 52.7165 79.5474 52.4606C79.2863 52.325 79.0716 52.0676 79.0527 51.7649L79.0766 51.7415C79.2259 51.7878 79.3567 51.8627 79.4915 51.9424C79.4306 51.5784 79.3612 51.2188 79.179 50.9016C79.0107 50.8313 78.8415 50.776 78.6832 50.6912C78.501 50.57 78.3842 50.3506 78.3572 50.1496C78.52 50.3092 78.805 50.2528 78.9313 50.4209C78.7122 49.772 78.7072 49.03 78.3472 48.437C78.165 47.9981 77.6882 47.7976 77.3612 47.475C77.2349 47.3214 77.184 47.1069 76.9548 47.083C76.7681 47.0366 76.7536 46.8261 76.7212 46.6915C76.838 46.705 76.9358 46.7847 77.0347 46.8032C76.7631 46.0841 76.525 45.2866 75.7916 44.8293L75.6653 44.9081C75.3807 44.951 75.0767 44.9689 74.7916 44.9784C74.9179 44.7914 75.1421 44.7126 75.3198 44.6278C75.1136 44.4742 74.9449 44.4368 74.6872 44.3944C74.538 44.5445 74.2684 44.6183 74.0767 44.6602L74.0537 44.6423C74.0487 44.4747 74.0098 44.2682 74.2624 44.2268C74.0198 44.1101 73.6179 44.1565 73.3697 44.2268C73.2993 44.4089 73.1001 44.572 73.1131 44.7864C72.9693 44.9365 72.8665 45.1365 72.7162 45.2442C72.7122 44.8846 72.8645 44.553 72.9304 44.2503C72.7202 44.3291 72.5065 44.4408 72.3014 44.5395C71.9694 44.348 71.6199 44.1565 71.2654 44.0124C71.2325 43.9979 71.1621 43.984 71.1761 44.0443C71.4796 44.2637 71.3623 44.6742 71.3947 44.9874L71.203 44.8293C71.1097 44.5909 70.8396 44.4183 70.7936 44.1565C70.4756 44.2174 70.2724 44.3016 69.9779 44.4278L69.9369 44.4508C70.1561 44.4508 70.3428 44.6233 70.4507 44.7959C70.1192 44.8148 69.8246 44.6837 69.4981 44.6517C69.4651 44.6188 69.4377 44.5814 69.3853 44.5864C69.2215 44.6473 69.0822 44.764 68.9369 44.8762C68.6149 45.1928 68.2874 45.5439 68.1337 45.9634C68.2415 45.9823 68.3768 45.9778 68.4562 46.0432C68.2794 46.1504 68.1247 46.3324 67.9514 46.4351C67.891 46.678 67.9 46.9533 67.886 47.2196C67.7507 47.4246 67.5685 47.6066 67.4796 47.835C67.1901 48.7731 67.1152 49.8139 67.1576 50.8782C67.0638 50.9665 66.942 51.0238 66.8541 51.0931L66.8636 52.0452H66.8865C66.9295 51.8442 67.1676 51.7325 67.3119 51.5973H67.3588C67.3359 51.8118 67.3074 52.0262 67.3029 52.2462L67.0318 52.4701C66.7617 52.708 66.9904 53.0665 66.9664 53.3653C66.9859 53.4451 66.9989 53.5618 67.0563 53.5807C67.0882 53.464 67.1911 53.3797 67.256 53.2775C67.3728 53.2486 67.4752 53.1558 67.5825 53.1419C67.5231 53.3748 67.4432 53.6037 67.3488 53.8276C67.3044 53.857 67.2515 53.8974 67.2066 53.9443C67.1591 53.9957 67.1212 54.0545 67.1122 54.1178C67.3219 55.224 67.6524 56.3157 68.0313 57.3565C67.7737 57.7899 67.6284 58.3016 67.4142 58.7499C67.3838 58.8127 67.3563 58.8761 67.3304 58.9414C67.1157 59.4845 67.0503 60.0904 66.7832 60.6126C66.6759 60.5373 66.5595 60.4814 66.4382 60.4301C65.9325 60.2625 65.3489 60.3697 64.9804 60.7567C64.6529 60.6959 64.3164 60.7517 64.0588 60.9243C63.8751 61.0629 63.7323 61.2295 63.6509 61.4245C63.596 61.5597 63.5696 61.7068 63.5785 61.8679C63.3679 62.0125 63.2555 62.2364 63.1861 62.4603C63.0878 62.965 63.265 63.4892 63.5546 63.8767L86.8439 63.8772Z" fill="white"/>
<path fill-rule="evenodd" clip-rule="evenodd" d="M93.4599 53.9448C93.362 53.659 93.2527 53.3837 93.1324 53.1194C92.4744 51.7609 91.5797 50.2957 90.1998 49.4359C89.4225 48.9517 88.7081 48.2026 88.2692 47.4286C88.0306 47.2131 87.8014 46.9289 87.4934 46.8775C87.5778 47.0176 87.6706 47.1528 87.6946 47.3159L87.6756 47.3393C87.3491 47.3488 87.0915 47.1762 86.8673 46.9653L87.1155 46.7419C87.0216 46.6955 86.9143 46.676 86.8114 46.6536C85.8673 46.5464 85.092 46.9797 84.2563 47.1902L84.2423 47.2366C84.7555 47.465 84.8629 48.0295 85.1624 48.413C85.2373 48.3238 85.3636 48.3891 85.466 48.3796C85.6152 48.3891 85.7555 48.4963 85.8998 48.4589C85.9048 48.3333 85.8354 48.2355 85.8114 48.1238C85.8998 48.0809 86.0081 48.1188 86.106 48.1238C86.3766 48.2819 86.8114 48.0949 86.9797 48.4589C86.6711 48.4784 86.3816 48.5427 86.092 48.613C86.1105 48.7297 86.2273 48.8235 86.2183 48.9402C85.9702 48.8365 85.7091 48.7726 85.433 48.7392L85.42 48.7806C85.7705 49.1915 86.2508 49.4344 86.7415 49.5795C87.447 49.7426 88.068 49.407 88.7495 49.5237C90.4235 50.2892 91.8523 52.0402 92.4743 53.7019C92.5048 53.7817 92.5338 53.8625 92.5617 53.9438C93.0824 55.4614 93.1808 57.3281 92.6596 58.91C92.382 59.5693 92.0765 60.1897 91.5867 60.7258C91.4015 60.9527 91.1963 61.1557 90.9736 61.3282C90.2722 61.8738 89.4075 62.1137 88.5168 61.8689C88.4614 61.8324 88.3481 61.8225 88.3666 61.7247C88.398 61.5951 88.427 61.4624 88.4524 61.3282C88.6007 60.5687 88.6681 59.7708 88.6292 58.9738C88.6272 58.9394 88.6267 58.905 88.6252 58.8711C88.5762 57.7131 88.3451 56.6713 87.9187 55.6698C87.6462 55.0948 87.3211 54.4679 86.9123 53.9049C86.4245 53.2336 85.8184 52.6536 85.0406 52.3644C84.5638 52.2382 83.9747 52.2152 83.6158 52.6122C83.3581 52.8361 83.2513 53.1394 83.2882 53.4705C82.8864 53.7258 82.4345 53.8635 81.9428 53.9049C81.8225 53.9154 81.6986 53.9587 81.5743 53.9582C81.455 53.9637 81.3387 53.9582 81.2264 53.9438C80.6333 53.871 80.0352 53.5533 79.5803 53.1877C79.5709 52.9464 79.5564 52.7165 79.5474 52.4606C79.2863 52.325 79.0716 52.0676 79.0527 51.7649L79.0766 51.7415C79.2259 51.7878 79.3567 51.8627 79.4915 51.9424C79.4306 51.5784 79.3612 51.2188 79.179 50.9016C79.0107 50.8313 78.8415 50.776 78.6832 50.6912C78.501 50.57 78.3842 50.3506 78.3572 50.1496C78.52 50.3092 78.805 50.2528 78.9313 50.4209C78.7122 49.772 78.7072 49.03 78.3472 48.437C78.165 47.9981 77.6882 47.7976 77.3612 47.475C77.2349 47.3214 77.184 47.1069 76.9548 47.083C76.7681 47.0366 76.7536 46.8261 76.7212 46.6915C76.838 46.705 76.9358 46.7847 77.0347 46.8032C76.7631 46.0841 76.525 45.2866 75.7916 44.8293L75.6653 44.9081C75.3807 44.951 75.0767 44.9689 74.7916 44.9784C74.9179 44.7914 75.1421 44.7126 75.3198 44.6278C75.1136 44.4742 74.9449 44.4368 74.6872 44.3944C74.538 44.5445 74.2684 44.6183 74.0767 44.6602L74.0537 44.6423C74.0487 44.4747 74.0098 44.2682 74.2624 44.2268C74.0198 44.1101 73.6179 44.1565 73.3697 44.2268C73.2993 44.4089 73.1001 44.572 73.1131 44.7864C72.9693 44.9365 72.8665 45.1365 72.7162 45.2442C72.7122 44.8846 72.8645 44.553 72.9304 44.2503C72.7202 44.3291 72.5065 44.4408 72.3014 44.5395C71.9694 44.348 71.6199 44.1565 71.2654 44.0124C71.2325 43.9979 71.1621 43.984 71.1761 44.0443C71.4796 44.2637 71.3623 44.6742 71.3947 44.9874L71.203 44.8293C71.1097 44.5909 70.8396 44.4183 70.7936 44.1565C70.4756 44.2174 70.2724 44.3016 69.9779 44.4278L69.9369 44.4508C70.1561 44.4508 70.3428 44.6233 70.4507 44.7959C70.1192 44.8148 69.8246 44.6837 69.4981 44.6517C69.4651 44.6188 69.4377 44.5814 69.3853 44.5864C69.2215 44.6473 69.0822 44.764 68.9369 44.8762C68.6149 45.1928 68.2874 45.5439 68.1337 45.9634C68.2415 45.9823 68.3768 45.9778 68.4562 46.0432C68.2794 46.1504 68.1247 46.3324 67.9514 46.4351C67.891 46.678 67.9 46.9533 67.886 47.2196C67.7507 47.4246 67.5685 47.6066 67.4796 47.835C67.1901 48.7731 67.1152 49.8139 67.1576 50.8782C67.0638 50.9665 66.942 51.0238 66.8541 51.0931L66.8636 52.0452H66.8865C66.9295 51.8442 67.1676 51.7325 67.3119 51.5973H67.3588C67.3359 51.8118 67.3074 52.0262 67.3029 52.2462L67.0318 52.4701C66.7617 52.708 66.9904 53.0665 66.9664 53.3653C66.9859 53.4451 66.9989 53.5618 67.0563 53.5807C67.0882 53.464 67.1911 53.3797 67.256 53.2775C67.3728 53.2486 67.4752 53.1558 67.5825 53.1419C67.5231 53.3748 67.4432 53.6037 67.3488 53.8276C67.3044 53.857 67.2515 53.8974 67.2066 53.9443C67.1591 53.9957 67.1212 54.0545 67.1122 54.1178C67.3219 55.224 67.6524 56.3157 68.0313 57.3565C67.7737 57.7899 67.6284 58.3016 67.4142 58.7499C67.3838 58.8127 67.3563 58.8761 67.3304 58.9414C67.1157 59.4845 67.0503 60.0904 66.7832 60.6126C66.6759 60.5373 66.5595 60.4814 66.4382 60.4301C65.9325 60.2625 65.3489 60.3697 64.9804 60.7567C64.6529 60.6959 64.3164 60.7517 64.0588 60.9243C63.8751 61.0629 63.7323 61.2295 63.6509 61.4245C63.596 61.5597 63.5696 61.7068 63.5785 61.8679C63.3679 62.0125 63.2555 62.2364 63.1861 62.4603C63.0878 62.965 63.265 63.4892 63.5546 63.8767L71.8106 63.8772C71.6893 63.733 71.5769 63.5321 71.4921 63.3595C71.3153 63.0927 71.4367 62.7152 71.4177 62.407C71.5859 62.0678 71.7567 61.7267 71.9489 61.3951C71.9878 61.3282 72.0268 61.2629 72.0667 61.1981L72.4456 61.0535C72.6463 61.0535 72.8151 60.9088 73.0063 60.9597C73.2634 61.217 73.2634 60.7034 73.5115 60.6799C74.0906 60.6051 74.6653 60.661 74.9918 61.1512C74.9918 61.2165 75.0956 61.2165 75.0717 61.2774C74.9968 61.2998 74.9264 61.2534 74.8475 61.2534C74.4925 61.1652 74.0762 60.9403 73.7262 61.1412C73.7127 61.225 73.6947 61.3103 73.6778 61.3941C73.6603 61.4834 73.6443 61.5706 73.6368 61.6544C73.8655 61.7197 74.0572 61.8833 74.2299 62.0604C74.3468 61.832 74.5944 61.7292 74.8141 61.6544C75.0058 61.6963 75.2159 61.7013 75.3752 61.8225C75.6698 62.0938 75.5245 62.5556 75.497 62.9007C75.7626 63.0498 76.0572 63.1346 76.3278 63.2787C76.2015 63.3919 76.0342 63.4378 75.8799 63.4942L75.4316 63.4049C75.3802 63.368 75.2908 63.368 75.2724 63.3027C75.1231 63.4608 74.9409 63.6712 74.8475 63.8762H81.2478C81.1635 63.6847 81.0656 63.5356 80.9488 63.3585C80.8175 63.0782 80.8699 62.6952 80.8554 62.3965L81.4535 61.4863C81.78 61.4819 82.15 61.3602 82.5044 61.421C82.5224 61.413 82.5394 61.4041 82.5559 61.3936C82.7031 61.2918 82.7481 61.0555 82.9672 61.0849C83.3591 60.9782 83.6587 61.1557 83.9532 61.3327C83.9433 61.3562 83.9338 61.3766 83.9233 61.3936C83.8 61.5906 83.5693 61.3706 83.4011 61.43C83.3307 61.5048 83.434 61.5931 83.4475 61.6778C83.5084 61.7611 83.3866 61.7517 83.3452 61.7661C83.2473 61.7801 83.14 61.7566 83.0646 61.6778C83.0461 61.6539 83.0601 61.6265 83.0231 61.622C82.9383 61.7611 82.817 61.8878 82.7845 62.0464C82.8913 62.1496 83.0361 62.2519 83.088 62.383C83.1954 62.5371 83.0037 62.6533 82.9667 62.789C82.9527 62.8164 82.9098 62.8164 82.8963 62.789C82.7975 62.7331 82.7141 62.5925 82.6063 62.6294C82.5124 63.0453 82.6387 63.4608 82.5828 63.8762C82.765 63.9191 82.9797 63.8667 83.1759 63.8762L83.2558 62.9984C83.3392 62.4294 83.6767 61.9531 84.0736 61.5183C84.5024 61.2255 84.779 61.804 85.096 62.0045C85.1479 62.014 85.1295 62.0698 85.1519 62.1023C85.1474 62.196 85.0496 62.2329 84.9842 62.2613C84.7875 62.3307 84.6427 62.1162 84.5214 61.99C84.4051 62.1162 84.3531 62.2838 84.2178 62.3825L84.2643 62.396C84.4195 62.5506 84.5678 62.7137 84.6018 62.9191C84.5828 63.1052 84.4894 63.2872 84.3207 63.3815C84.1954 63.166 84.092 62.9281 84.0087 62.7087C84.0131 62.7187 84.0032 62.7227 83.9942 62.7326C83.7366 62.8019 83.6682 63.0912 83.6252 63.3251C83.6392 63.554 83.4665 63.6473 83.5124 63.8757H86.8444C87.2133 63.8198 87.6057 63.8288 87.8998 63.5575C89.1479 63.7495 90.4135 63.4413 91.3945 62.7556C91.9122 62.3376 92.3775 61.8549 92.7534 61.3278C93.0849 60.8629 93.347 60.4286 93.5163 59.9084C93.6421 59.5867 93.7419 59.2531 93.8173 58.9095C94.1728 57.2937 93.9861 55.4843 93.4599 53.9448Z" fill="#FF6600"/>
<path fill-rule="evenodd" clip-rule="evenodd" d="M72.0193 62.6079C72.2015 62.4912 72.4959 62.4628 72.5373 62.1925C72.4635 62.1362 72.3976 62.0658 72.3132 62.0474L72.1216 62.1033C72.1356 61.991 72.1965 61.8654 72.2349 61.7442L72.8508 61.5437C72.7659 61.8235 72.734 62.1736 72.7055 62.4957C72.7614 62.972 72.8318 63.4807 73.0749 63.8772H72.4111C72.3367 63.4388 71.878 63.1206 72.0193 62.6079Z" fill="#FF6600"/>
<path fill-rule="evenodd" clip-rule="evenodd" d="M73.454 62.0474H73.491L73.9387 62.4538L74.0041 62.4399C73.9676 62.9162 73.9437 63.383 73.9387 63.8772H73.4535C73.3547 63.4154 73.1915 62.9296 73.2105 62.4309C73.2943 62.3047 73.3502 62.1456 73.454 62.0474Z" fill="#FF6600"/>
<path fill-rule="evenodd" clip-rule="evenodd" d="M74.453 62.4962C74.5424 62.38 74.5793 62.183 74.7565 62.1606C74.8828 62.1641 74.9996 62.183 75.0939 62.2723C75.2571 62.4773 75.0974 62.7396 75.038 62.9446C74.9721 63.2573 74.8593 63.5834 74.757 63.8777H74.2853L74.453 62.4962Z" fill="#FF6600"/>
<path fill-rule="evenodd" clip-rule="evenodd" d="M81.5408 62.3511C81.6436 62.4823 81.6761 62.6593 81.8303 62.776C81.9661 62.5895 81.9985 62.2997 81.9331 62.0619L81.7979 61.9262C81.9711 61.8848 82.1527 61.8704 82.3259 61.8379C82.251 62.0853 82.1098 62.3092 82.1343 62.5985C82.1388 63.0189 82.2086 63.4393 82.2461 63.8772H81.7325C81.5458 63.4662 81.3587 63.0747 81.3726 62.5985C81.4285 62.5142 81.466 62.4159 81.5408 62.3511Z" fill="#FF6600"/>
<path fill-rule="evenodd" clip-rule="evenodd" d="M83.751 53.3837C83.7461 53.5049 83.6577 53.6396 83.7366 53.7433C83.8499 53.6171 84.0361 53.6216 84.1859 53.5658C84.6018 53.5279 84.9987 53.659 85.3861 53.7528C85.2882 53.5982 85.2228 53.4256 85.115 53.286C84.8998 53.2296 84.5728 53.3792 84.5359 53.0611C84.4051 52.9494 84.1999 53.0291 84.0641 53.0381C83.9328 53.1314 83.8259 53.2481 83.751 53.3837Z" fill="white"/>
<path fill-rule="evenodd" clip-rule="evenodd" d="M69.4711 49.3531C69.4691 49.3521 69.4671 49.3501 69.4641 49.3481C69.4641 49.3501 69.4651 49.3511 69.4651 49.3531H69.4711Z" fill="white"/>
<path fill-rule="evenodd" clip-rule="evenodd" d="M71.1701 53.5024L71.4506 53.2321C71.4746 53.2321 71.4931 53.2366 71.5066 53.2546L71.4836 53.7727C71.6189 53.8989 71.7861 53.9403 71.9639 53.9503C71.9783 53.8106 72.0857 53.7119 72.1466 53.5907C72.198 53.4929 72.1656 53.3483 72.2679 53.279L72.3009 53.3109C72.3328 53.4655 72.3238 53.6381 72.4037 53.7727C72.4132 53.8475 72.4262 53.9403 72.4352 54.0061C72.6413 54.0156 72.8286 53.9597 72.9868 53.8844C72.9773 53.7074 73.0387 53.5628 73.0657 53.4002C73.1086 53.3438 73.0143 53.2406 73.1311 53.2456C73.197 53.3857 73.3133 53.5299 73.3792 53.68C73.6498 53.4047 73.7631 53.0456 73.8271 52.6716C73.7482 52.5648 73.6269 52.5648 73.5325 52.4945C72.7387 52.2382 71.7207 52.1868 70.9544 52.5833C70.903 52.8995 70.9684 53.2496 71.1701 53.5024Z" fill="white"/>
<path fill-rule="evenodd" clip-rule="evenodd" d="M63.7443 62.2608C63.7158 62.6204 63.7443 62.9575 63.7673 63.3126C63.8421 63.4293 63.9784 63.565 64.1136 63.5735L64.1366 63.3351C64.1925 63.0039 64.0153 62.6523 64.2025 62.3721C64.3332 62.4135 64.464 62.4793 64.5763 62.5396C64.6322 62.2319 64.5523 61.8718 64.2579 61.6848L63.7443 62.2608Z" fill="white"/>
<path fill-rule="evenodd" clip-rule="evenodd" d="M64.8985 61.7561C64.7163 62.3027 64.5811 62.9755 64.8007 63.551C64.9269 63.4662 65.0572 63.3869 65.169 63.2707C65.146 62.8314 65.0851 62.3636 65.3467 61.9985C65.5753 62.0688 65.73 62.2883 65.8178 62.5022C65.9731 62.3067 66.024 62.0354 65.9636 61.7751C65.9731 61.5691 65.7395 61.6165 65.6272 61.5322C65.6641 61.3592 65.6591 61.1597 65.8418 61.0609L65.2818 61.1168C65.1371 61.3228 64.9783 61.5222 64.8985 61.7561Z" fill="white"/>
<path fill-rule="evenodd" clip-rule="evenodd" d="M66.0528 63.369C66.0763 63.4104 66.0528 63.4857 66.1002 63.4952C66.1696 63.1027 66.4871 62.8488 66.6609 62.5027C66.7443 62.3875 66.7403 62.2229 66.8756 62.1347C67.0573 62.1347 67.1886 62.2653 67.3663 62.2793C67.4222 62.3217 67.3374 62.3591 67.3329 62.4055C67.2959 62.7237 67.1746 62.986 67.1976 63.3131H67.23C67.4776 63.0513 67.6459 62.7695 67.8281 62.4708L67.8601 62.2055C67.903 61.8878 67.5575 61.6828 67.3319 61.5517L67.5331 61.2943L67.2525 61.1966C66.9255 61.229 66.6309 61.3647 66.4023 61.622C66.1177 62.1436 66.0713 62.7341 66.0528 63.369Z" fill="white"/>
<path fill-rule="evenodd" clip-rule="evenodd" d="M67.3099 60.5991C67.4167 60.631 67.5151 60.5433 67.6219 60.5892C68.0523 60.7482 68.5006 60.9113 68.8231 61.2704L69.2065 62.2464L69.3982 61.6434L69.2719 61.3178C69.1641 61.0844 68.87 61.1033 68.6688 61.0939C68.585 61.0001 68.6733 60.8929 68.7018 60.8046C68.7996 60.473 68.3933 60.4914 68.23 60.3563C68.2395 60.1563 67.9964 60.2251 67.8606 60.2071L67.8141 60.1513C67.7862 60.1084 67.7163 60.1084 67.6783 60.1413C67.6699 60.1273 67.6509 60.1179 67.6604 60.0949L67.558 60.1179C67.4122 60.244 67.3144 60.4071 67.3099 60.5991Z" fill="white"/>
<path fill-rule="evenodd" clip-rule="evenodd" d="M67.58 59.5254C67.5945 59.5852 67.6314 59.6461 67.6778 59.684C67.8885 59.6281 68.0902 59.4825 68.3324 59.5718C68.6459 59.8471 68.9724 60.1363 69.3513 60.2854L69.4871 60.2625C69.5705 60.2899 69.6638 60.2944 69.7198 60.3887C69.7717 60.5148 69.6409 60.5887 69.5994 60.6914C69.8091 60.846 69.7257 61.1208 69.8561 61.3073L70.192 60.86C70.1137 60.6635 70.197 60.3278 69.8895 60.3089C69.7857 60.2575 69.7163 60.1553 69.7203 60.0386C69.5201 59.8565 69.2724 59.7772 69.0717 59.5902C68.907 59.4601 68.8096 59.2596 68.6 59.2127C68.4547 59.1329 68.2959 59.091 68.1282 59.0546C67.8141 59.0067 67.7862 59.3803 67.58 59.5254Z" fill="white"/>
<path fill-rule="evenodd" clip-rule="evenodd" d="M68.0293 58.6058L68.0852 58.6955C68.3189 58.6811 68.5286 58.5788 68.7577 58.5828C68.9115 58.6761 69.1127 58.6711 69.2714 58.7509C69.3977 58.9239 69.5335 59.1189 69.7193 59.2356C70.0982 59.2915 70.3079 59.6989 70.4387 59.9967V59.8526C70.4946 59.6516 70.4337 59.4177 70.3603 59.2356C70.2664 59.1424 70.1301 59.082 70.0328 58.9988C70.0138 58.9379 70.0278 58.909 70.0468 58.8536C69.9015 58.6995 69.6868 58.6152 69.5091 58.4936C69.2615 58.134 68.7857 58.2332 68.4067 58.134L68.0293 58.6058Z" fill="white"/>
<path fill-rule="evenodd" clip-rule="evenodd" d="M68.0213 55.1821C68.0627 55.3272 68.1132 55.5088 68.1416 55.6634C68.2719 55.3741 68.5299 55.2429 68.7585 55.0056C68.6272 54.9168 68.464 54.8744 68.3198 54.847V54.8375C68.2165 54.9392 68.0578 55.0425 68.0213 55.1821Z" fill="white"/>
<path fill-rule="evenodd" clip-rule="evenodd" d="M68.87 56.7181L69.0797 56.5037C69.2903 56.2882 69.464 56.0404 69.4954 55.7656C69.3462 55.6773 69.15 55.7382 69.0058 55.7895C68.9544 56.0917 68.8745 56.3905 68.87 56.7181Z" fill="white"/>
<path fill-rule="evenodd" clip-rule="evenodd" d="M69.0238 57.3764C69.3462 57.3944 69.6597 57.4597 69.9212 57.2777L70.1832 56.4379C70.0984 56.4329 70.014 56.395 69.9352 56.4239C69.7625 56.8059 69.4171 57.1844 69.0238 57.3764Z" fill="white"/>
<path fill-rule="evenodd" clip-rule="evenodd" d="M69.1186 54.3986C69.3288 54.7063 69.6796 55.0509 70.0385 55.1497C69.9971 54.7572 69.6607 54.4864 69.4875 54.1513L69.478 54.039C69.3427 53.9084 69.179 53.8191 69.0388 53.7498C69.0163 53.9737 69.0772 54.1877 69.1186 54.3986Z" fill="white"/>
<path fill-rule="evenodd" clip-rule="evenodd" d="M70.2574 57.4133C70.505 57.4552 70.7715 57.4133 71.0001 57.343C71.3315 57.2632 71.5142 56.8997 71.626 56.6154H71.2102L70.7625 57.0538C70.5854 57.1465 70.4172 57.2867 70.2574 57.4133Z" fill="white"/>
<path fill-rule="evenodd" clip-rule="evenodd" d="M70.207 53.9737C70.2774 54.3383 70.4321 54.6694 70.6422 54.9821L70.6976 54.2864L70.207 53.9737Z" fill="white"/>
<path fill-rule="evenodd" clip-rule="evenodd" d="M71.7385 55.789C71.767 55.5556 71.6692 55.2843 71.6417 55.0474C71.5015 54.9537 71.3058 54.9627 71.1606 54.8704C71.1701 55.238 71.4585 55.5511 71.7385 55.789Z" fill="white"/>
<path fill-rule="evenodd" clip-rule="evenodd" d="M71.3139 58.1599C71.6078 58.0667 71.8928 57.9639 72.1643 57.8148C72.337 57.5669 72.598 57.3435 72.636 57.0543C72.4199 57.1146 72.2342 57.0443 72.0331 57.143C71.9118 57.362 71.8364 57.6103 71.6033 57.7684C71.5659 57.926 71.3932 58.0337 71.3139 58.1599Z" fill="white"/>
<path fill-rule="evenodd" clip-rule="evenodd" d="M71.7712 58.7339L72.1215 59.1913C72.3087 59.2516 72.5423 59.2336 72.7055 59.1264L72.5802 58.7115C72.3321 58.8038 72.0377 58.7768 71.7712 58.7339Z" fill="white"/>
<path fill-rule="evenodd" clip-rule="evenodd" d="M72.3553 55.43L72.4905 56.0454C72.8174 55.7801 72.8848 55.3926 72.8753 54.9821C72.6887 55.1966 72.5804 55.3272 72.3553 55.43Z" fill="white"/>
<path fill-rule="evenodd" clip-rule="evenodd" d="M73.2764 56.5167C73.2809 56.6059 73.3038 56.6897 73.3547 56.7595C73.7191 56.8907 73.7565 57.333 74.0934 57.5011C74.312 57.5999 74.5651 57.4782 74.7557 57.3889C74.6115 57.2258 74.4483 57.1136 74.308 56.9416C74.2102 56.8997 74.1109 56.8388 74.1164 56.7176L73.2764 56.5167Z" fill="white"/>
<path fill-rule="evenodd" clip-rule="evenodd" d="M73.5659 58.7205C73.7241 58.9015 73.9388 58.9958 74.1629 59.0461C74.1259 58.9953 74.1868 59.0461 74.1958 59.0142L73.9153 58.3978C73.7751 58.4028 73.6298 58.4312 73.4995 58.4217C73.51 58.5245 73.5325 58.6267 73.5659 58.7205Z" fill="white"/>
<path fill-rule="evenodd" clip-rule="evenodd" d="M74.061 55.8454C73.9297 55.5422 73.8758 55.1726 73.8374 54.8375C73.6982 55.0056 73.5529 55.1133 73.4217 55.2848C73.3608 55.6299 73.8554 55.7142 74.061 55.8454Z" fill="white"/>
<path fill-rule="evenodd" clip-rule="evenodd" d="M74.6303 55.5272C74.7995 55.7476 75.1678 55.6728 75.3735 55.607C75.2751 55.4389 74.9587 55.3402 74.9028 55.1597C74.8709 54.8375 74.805 54.5238 74.7017 54.231C74.5384 54.627 74.3408 55.0988 74.6303 55.5272Z" fill="white"/>
<path fill-rule="evenodd" clip-rule="evenodd" d="M74.9249 56.5167C75.3922 56.8573 75.8505 57.2543 76.5035 57.1091C76.5504 57.0772 76.6303 57.0807 76.6393 57.0209C76.4476 56.8997 76.2424 56.8054 76.0462 56.6937L75.8225 56.3675H75.7197C75.4671 56.4508 75.1965 56.4847 74.9249 56.5167Z" fill="white"/>
<path fill-rule="evenodd" clip-rule="evenodd" d="M74.9344 60.3019H74.9678C75.2479 60.078 75.5794 60.0027 75.9109 59.9099C76.0003 59.9428 75.9438 60.0411 76.0237 60.078C76.2244 59.9947 76.4676 60.0126 76.6727 59.9428C76.9204 59.9518 77.1216 59.9563 77.3223 60.0635C77.482 60.274 77.7801 60.25 77.9863 60.3907L77.9528 60.0635C77.519 59.5548 76.8415 59.5179 76.2154 59.5274L76.2015 59.4621C76.0522 59.4621 75.8839 59.494 75.7436 59.5598C75.5434 59.5693 75.3512 59.667 75.1595 59.7274C75.0702 59.9049 74.9998 60.1209 74.9344 60.3019Z" fill="white"/>
<path fill-rule="evenodd" clip-rule="evenodd" d="M75.3097 54.5662C75.4914 54.8046 75.7624 54.9871 76.0709 54.9263C75.9127 54.7712 75.7295 54.6081 75.7205 54.3891C75.7674 53.9737 75.3097 53.9403 75.0856 53.7258C75.1605 54.0061 75.1505 54.3188 75.3097 54.5662Z" fill="white"/>
<path fill-rule="evenodd" clip-rule="evenodd" d="M75.2619 61.1278H75.3178C75.5649 60.9742 75.9249 61.0914 76.168 60.9278C76.3033 60.8575 76.3128 61.0445 76.4062 61.0958C76.6353 61.235 76.6638 61.6554 76.9858 61.5577C77.3727 61.7581 77.2753 62.2294 77.2893 62.5745L77.6493 62.3511C77.6163 62.1691 77.7197 61.9496 77.6023 61.7911C77.5135 61.5906 77.2703 61.5721 77.1535 61.409C77.2943 61.1707 76.9763 61.0579 76.9104 60.8854L76.9299 60.8625L77.4251 60.9278C77.5934 61.03 77.6543 61.217 77.7057 61.3901C78.0926 61.4554 78.186 61.8938 78.3218 62.1736C78.4016 61.9826 78.4341 61.7766 78.5135 61.5901C78.5185 61.436 78.3128 61.436 78.2099 61.3662C78.1825 61.1278 78.0746 60.9043 77.8644 60.7602C77.4346 60.6515 77.0567 60.4146 76.5849 60.4146L76.1925 60.5353C75.9768 60.5872 75.7481 60.5218 75.5844 60.6704C75.3408 60.6894 75.3228 60.9557 75.2619 61.1278Z" fill="white"/>
<path fill-rule="evenodd" clip-rule="evenodd" d="M75.509 59.2052L75.5984 59.2476C75.7901 59.1588 75.9813 59.0561 76.1825 58.9813C76.4945 58.893 76.7376 59.2476 77.0002 59.0232C77.0976 58.9539 77.1825 59.0561 77.2564 59.1125C77.3702 59.3174 77.6308 59.3035 77.8275 59.3588C77.7291 59.0935 77.6073 58.7294 77.2663 58.6871C77.1311 58.6267 76.9718 58.6317 76.8415 58.5519C76.4815 58.1554 76.2484 58.8791 75.8545 58.702C75.7152 58.8551 75.5419 59.0007 75.509 59.2052Z" fill="white"/>
<path fill-rule="evenodd" clip-rule="evenodd" d="M75.5984 61.4784C75.7476 61.6045 75.9018 61.8195 76.1359 61.7911C76.4249 61.9262 76.3036 62.3092 76.4618 62.5102L76.63 62.3606L76.616 62.3506L76.6395 62.3277L76.6495 62.3406C76.6959 62.2015 76.6305 61.9541 76.5507 61.7901C76.4439 61.7158 76.3181 61.795 76.2148 61.7247C76.2008 61.5746 76.1075 61.5008 76.0002 61.408C75.9253 61.3512 75.827 61.426 75.7426 61.421L75.5984 61.4784Z" fill="white"/>
<path fill-rule="evenodd" clip-rule="evenodd" d="M76.1825 55.789C76.3362 56.0454 76.6352 56.2045 76.8737 56.3815C77.0704 56.4703 77.3264 56.4937 77.5371 56.4463C77.3359 56.2833 77.1532 56.0962 76.986 55.9007C76.9202 55.807 76.9062 55.6898 76.8178 55.6065C76.5982 55.6489 76.3502 55.6439 76.1825 55.789Z" fill="white"/>
<path fill-rule="evenodd" clip-rule="evenodd" d="M76.4401 54.1188C76.6547 54.3847 76.9866 54.2774 77.2901 54.2869V54.254L76.8229 53.862C76.6921 53.9034 76.5524 54.0201 76.4401 54.1188Z" fill="white"/>
<path fill-rule="evenodd" clip-rule="evenodd" d="M67.8391 49.7172L68.1096 50.5575C68.1046 50.0812 68.3252 49.6838 68.2783 49.199L68.4785 48.8998L68.0532 49.031C67.9414 49.2454 67.8481 49.4603 67.8391 49.7172Z" fill="white"/>
<path fill-rule="evenodd" clip-rule="evenodd" d="M68.0213 48.2609L68.3902 48.0465V47.4999C68.2349 47.5932 68.1516 47.7528 68.0303 47.8774L68.0213 48.2609Z" fill="white"/>
<path fill-rule="evenodd" clip-rule="evenodd" d="M75.5994 49.1103C75.5105 49.2265 75.3752 49.2554 75.2629 49.2778C75.4596 48.9192 75.5529 48.4195 75.3987 48.0131C75.501 47.9762 75.6133 47.9572 75.7112 47.9014L75.7017 47.8914L75.9588 47.6675C76.2998 47.4341 76.1685 46.9912 76.2948 46.6596C76.1271 46.3987 76.0756 46.0811 75.8325 45.8616L75.8465 45.8522C75.6548 45.6093 75.3093 45.6377 75.0477 45.5165C74.7012 45.3998 74.4351 45.6377 74.187 45.7963C74.0797 45.8152 74.1456 45.9549 74.0287 45.9499C73.9633 46.1225 73.8835 46.3095 73.8365 46.501C73.3742 46.4356 72.8745 46.487 72.5056 46.7483C72.3083 46.6032 72.0712 46.5758 71.8421 46.5105C71.6738 46.477 71.4826 46.5379 71.3613 46.4446C71.1841 46.2446 71.1456 45.8801 70.8416 45.8292C70.7342 45.7913 70.7118 45.6746 70.7118 45.5719C70.5106 45.5385 70.3323 45.4457 70.1371 45.4038C69.8381 45.2682 69.5999 45.4836 69.3758 45.6277C69.2769 45.6691 69.1651 45.6836 69.0717 45.7394C68.904 46.0013 68.7457 46.2671 68.6369 46.5563C68.6703 46.7942 68.7727 47.0037 68.8945 47.2052C69.0018 47.5084 69.3383 47.7468 69.6229 47.8685C69.4876 48.3303 69.4876 48.8803 69.6229 49.3471C69.6229 49.3471 69.6154 49.3536 69.6154 49.3521C69.6154 49.3536 69.6004 49.3661 69.6004 49.3661C69.5565 49.3661 69.5076 49.3756 69.4711 49.3531H69.4651C69.532 49.799 69.7417 50.189 70.0812 50.5236C70.203 50.5655 70.1746 50.7106 70.2255 50.8034C70.2584 50.8458 70.2634 50.934 70.2495 50.9715C69.5201 50.9485 68.8705 51.1305 68.2864 51.4617C68.1372 51.5365 68.2026 51.7415 68.1886 51.8866C68.6 51.6153 69.0433 51.4153 69.534 51.326C69.7442 51.3131 69.9819 51.2607 70.1836 51.3166L70.2065 51.719C69.6514 52.0088 69.0433 52.1763 68.5675 52.6526C68.5765 52.7967 68.5485 52.9643 68.5905 53.086L69.0163 52.7409C69.4272 52.4277 69.8571 52.1619 70.3283 51.9893C70.4552 52.1384 70.586 52.298 70.7542 52.3908C71.0388 52.2083 71.3478 52.0731 71.6748 51.9893C71.8475 51.8866 72.1236 51.9799 72.2355 51.7749L72.3143 51.35C72.3014 51.3405 72.2914 51.3215 72.2679 51.326C72.0487 51.1999 71.9035 50.9809 71.9224 50.7246C71.8475 50.7615 71.7642 50.7854 71.6748 50.7889C71.6009 50.771 71.53 50.752 71.4976 50.6767C71.4931 50.584 71.4457 50.4438 71.54 50.3745C71.8431 50.1875 72.236 50.178 72.6189 50.2059C72.9034 50.2438 73.3148 50.2294 73.4137 50.5655C73.3997 50.6637 73.4087 50.7715 73.3103 50.8363C73.2075 50.8922 73.0912 50.8313 72.9973 50.7889C72.9229 51.0183 72.7966 51.2747 72.54 51.3495L72.572 51.6198C72.6039 51.7415 72.6139 51.942 72.8056 51.8996C73.2494 52.0078 73.6423 52.2362 74.0297 52.4831C74.161 52.3529 74.2634 52.2033 74.3563 52.0676C75.0487 52.302 75.6458 52.8197 76.2169 53.3009L76.2394 52.9085C75.6972 52.4272 75.0951 52.0871 74.4686 51.8213C74.4925 51.6951 74.5205 51.5734 74.5255 51.4377C75.2679 51.4801 75.9733 51.7091 76.5849 52.0676L76.5754 51.732C75.9309 51.3864 75.2254 51.158 74.4551 51.149C74.4261 51.1071 74.4172 51.0463 74.4221 51.0044C74.7961 50.944 75.0617 50.557 75.1511 50.2199C75.3433 50.001 75.6188 49.7626 75.5534 49.4364C75.5614 49.409 75.5709 49.3806 75.5809 49.3521C75.6054 49.2718 75.6263 49.1861 75.5994 49.1103Z" fill="white"/>
<path fill-rule="evenodd" clip-rule="evenodd" d="M76.2484 50.3102L76.6312 50.1885L76.6741 49.9745C76.7814 49.6613 76.5523 49.4279 76.44 49.1806L76.2484 50.3102Z" fill="white"/>
<path fill-rule="evenodd" clip-rule="evenodd" d="M77.2154 51.7888C77.3976 51.9898 77.5753 52.3115 77.8977 52.2137C77.8737 52.0781 77.7989 51.9659 77.753 51.8447C77.6691 51.747 77.6402 51.4667 77.4725 51.5649C77.3462 51.4811 77.3142 51.341 77.2339 51.2288C77.1975 51.4018 77.2204 51.6163 77.2154 51.7888Z" fill="white"/>
<path fill-rule="evenodd" clip-rule="evenodd" d="M77.2808 53.1563C77.3512 53.2541 77.3707 53.3807 77.4395 53.4695C77.5658 53.5528 77.753 53.5388 77.9077 53.5254C78.0469 53.4925 78.1363 53.6461 78.2665 53.5578C78.1033 53.455 78.0055 53.2685 77.8518 53.1324C77.6691 52.9887 77.473 53.1149 77.2808 53.1563Z" fill="white"/>
<path fill-rule="evenodd" clip-rule="evenodd" d="M77.5289 55.3272C77.8513 55.5182 78.2606 55.7052 78.6908 55.6399C78.7373 55.617 78.8171 55.6215 78.8261 55.5656C78.5596 55.4718 78.2801 55.206 78.0006 55.1502C77.8463 54.9123 77.6452 55.211 77.4491 55.1921C77.4536 55.2474 77.5095 55.2893 77.5289 55.3272Z" fill="white"/>
<path fill-rule="evenodd" clip-rule="evenodd" d="M78.499 59.4481L78.5694 59.5972C78.6402 60.083 78.9472 60.5303 78.7795 61.0624C78.9197 61.1612 78.9617 61.3243 79.051 61.4549H79.074C79.1813 61.0495 79.1069 60.6291 79.051 60.2226C79.0929 59.854 78.7186 59.6396 78.499 59.4481Z" fill="white"/>
<path fill-rule="evenodd" clip-rule="evenodd" d="M78.5799 54.6689C78.8224 54.8559 79.2102 54.8739 79.4902 54.7811C79.313 54.6834 79.1169 54.5752 78.9717 54.445L78.5799 54.6689Z" fill="white"/>
<path fill-rule="evenodd" clip-rule="evenodd" d="M79.7331 56.1012C79.7102 56.2977 79.8404 56.4608 79.9807 56.5595C80.0321 56.4433 80.1154 56.3441 80.1249 56.2139C80.083 56.0135 79.9707 55.8309 79.7885 55.6953C79.7566 55.8259 79.7186 55.9521 79.7331 56.1012Z" fill="white"/>
<path fill-rule="evenodd" clip-rule="evenodd" d="M79.7471 58.2302C79.7137 58.4492 79.9567 58.4776 80.059 58.5988C80.1434 58.7015 80.0031 58.7718 80.0031 58.8696C80.1808 59.098 80.2841 59.3583 80.2841 59.6625C80.3535 59.3783 80.4608 59.1075 80.4987 58.8137C80.4798 58.6078 80.1534 58.6507 80.2043 58.4217C80.2981 58.1883 80.1858 57.9599 80.1249 57.749C80.1069 57.7171 80.064 57.6512 80.0276 57.6707C79.9427 57.8612 79.7331 57.9968 79.7471 58.2302Z" fill="white"/>
<path fill-rule="evenodd" clip-rule="evenodd" d="M80.3871 57.1191L80.6297 57.5904C80.737 57.5764 80.8069 57.4737 80.8907 57.3989C80.9561 57.2029 80.7829 57.0767 80.7325 56.9176C80.6901 56.8054 80.7325 56.6568 80.6526 56.559C80.5918 56.5211 80.5224 56.4603 80.4525 56.4793L80.3871 57.1191Z" fill="white"/>
<path fill-rule="evenodd" clip-rule="evenodd" d="M80.6992 55.8773C80.8914 55.994 81.1105 56.1616 81.2139 56.3675C81.3771 56.8438 81.6387 57.2722 81.8299 57.7345C81.9003 58.0567 81.9563 58.3444 82.0446 58.6611C82.0781 58.7454 82.0591 58.9085 82.1904 58.8945C82.2268 58.5399 82.2972 58.1988 82.3022 57.8303C82.1854 57.6762 82.0316 57.6113 81.8864 57.5181V57.4852C81.9053 57.4064 81.9712 57.3121 82.0686 57.3271C82.11 57.2802 82.2368 57.2338 82.1809 57.1495C81.9378 56.9071 81.9518 56.4897 81.5648 56.4144C81.4291 56.3586 81.3966 56.2179 81.3826 56.0883C81.1999 55.9332 80.9293 55.8823 80.6992 55.8773Z" fill="white"/>
<path fill-rule="evenodd" clip-rule="evenodd" d="M80.9248 58.4073C81.1624 58.6262 81.079 58.9439 81.0601 59.2381C81.0231 59.4157 81.2467 59.3119 81.3171 59.4062C81.4623 59.6207 81.378 59.9338 81.3271 60.1667C81.4534 59.9747 81.5976 59.8072 81.6954 59.5967C81.6914 59.5179 81.7938 59.48 81.7893 59.3818C81.8307 59.2466 81.6725 59.3075 81.6066 59.2935C81.5507 59.2795 81.4903 59.2421 81.5093 59.1673C81.6295 58.9339 81.5183 58.6541 81.4713 58.4207C81.4154 58.2292 81.4953 57.9724 81.4054 57.8043C81.2557 58.0108 80.8115 58.0572 80.9248 58.4073Z" fill="white"/>
<path fill-rule="evenodd" clip-rule="evenodd" d="M81.3587 55.0938C81.7749 55.5142 82.0784 55.9362 82.5266 56.3426C82.536 56.1601 82.5126 55.9925 82.5036 55.815C82.4382 55.6888 82.3164 55.596 82.2131 55.5018C81.8817 55.4699 81.709 55.0235 81.3587 55.0938Z" fill="white"/>
<path fill-rule="evenodd" clip-rule="evenodd" d="M82.4465 57.3176C82.4565 57.3605 82.4755 57.3974 82.4944 57.4388C82.6761 57.738 82.8493 58.0462 82.9756 58.3679C82.9376 58.0223 83.1712 57.5934 82.8623 57.3271C82.8208 57.2144 82.6816 57.2523 82.5918 57.2612L82.4465 57.3176Z" fill="white"/>
<path fill-rule="evenodd" clip-rule="evenodd" d="M83.5683 60.7268C83.6991 60.7876 83.8674 60.6804 83.9937 60.6056C84.1105 60.5777 84.2083 60.6435 84.2977 60.7039C84.3347 60.7782 84.2977 60.8485 84.3117 60.9188C84.5918 60.9976 84.8669 61.1008 85.1145 61.2639L85.1934 61.1846C85.2123 60.9841 85.0541 60.839 84.9038 60.7268C84.8064 60.6709 84.6607 60.7039 84.5913 60.6151C84.6382 60.5403 84.6382 60.4281 84.6332 60.3443C84.4789 60.3443 84.3806 60.2969 84.2553 60.2231C84.1754 60.1997 84.105 60.1338 84.0396 60.2231C83.8065 60.3812 83.7925 60.6151 83.5683 60.7268Z" fill="white"/>
<path fill-rule="evenodd" clip-rule="evenodd" d="M83.8963 54.8539C84.0126 54.8205 84.1344 54.7881 84.2322 54.7038C84.5456 54.4191 84.9983 54.6106 85.3632 54.6061C85.2928 54.4799 85.194 54.3537 85.1056 54.2465C84.9744 54.1951 84.8531 54.1348 84.7038 54.1348C84.3859 53.9478 84.1718 54.261 83.9282 54.4146C83.8624 54.5407 83.8304 54.7273 83.8963 54.8539Z" fill="white"/>
<path fill-rule="evenodd" clip-rule="evenodd" d="M83.9043 55.815C83.9043 55.8005 83.9043 55.786 83.9183 55.7825C83.9612 55.8195 83.9138 55.9092 83.9842 55.9272C84.1055 55.8663 84.2178 55.7825 84.3297 55.7033C84.6427 55.7033 84.8299 55.3995 85.1375 55.3995C85.6522 55.4933 86.1614 55.5965 86.6092 55.8474C86.5773 55.5452 86.3147 55.2689 86.0491 55.1337C85.8988 55.0824 85.782 55.1616 85.6751 55.2459C85.3626 55.4424 85.5259 54.9612 85.3067 54.9517C85.0211 55.04 84.7266 55.1387 84.409 55.1098C84.2223 55.1806 84.091 55.3527 83.8809 55.3337C83.8724 55.4888 83.8494 55.6758 83.9043 55.815Z" fill="white"/>
<path fill-rule="evenodd" clip-rule="evenodd" d="M84.12 56.8553C84.2178 56.959 84.3811 56.9401 84.5219 56.959L84.9283 56.7994C84.9328 56.7261 84.8069 56.7062 84.8349 56.6224C84.9472 56.4962 85.1005 56.5855 85.2413 56.5341C85.437 56.5057 85.6382 56.3107 85.8344 56.4543C85.8284 56.4783 85.8429 56.5102 85.8244 56.5341C85.764 56.6787 85.8664 56.7675 85.9787 56.8234C86.2078 56.8653 86.422 57.0757 86.6512 56.9815C86.6282 56.79 86.5773 56.6139 86.5303 56.4309C86.3386 56.3985 86.2028 56.2399 86.0256 56.174C85.9467 56.2488 85.8429 56.3047 85.745 56.2952C85.3851 56.2109 84.9547 55.987 84.5908 56.2159C84.46 56.375 84.2263 56.3281 84.0486 56.398C84.0591 56.5566 84.0776 56.7112 84.12 56.8553Z" fill="white"/>
<path fill-rule="evenodd" clip-rule="evenodd" d="M84.2742 59.6301C84.2463 59.7094 84.1669 59.8396 84.3122 59.8775C84.6106 59.8865 84.9939 59.7324 85.2275 59.9658C85.3069 60.0266 85.269 60.1528 85.264 60.2321L85.6563 60.5587C85.6937 60.3617 85.7646 60.1847 85.7696 59.9747C85.7366 59.8251 85.6617 59.681 85.531 59.5832C85.2734 59.5832 85.1247 59.2825 84.8482 59.3194C84.704 59.2875 84.5777 59.4157 84.4325 59.4157C84.3681 59.4805 84.3301 59.5603 84.2742 59.6301Z" fill="white"/>
<path fill-rule="evenodd" clip-rule="evenodd" d="M84.3861 57.4293C84.4465 57.5555 84.5174 57.7609 84.6337 57.7744C84.9093 57.6542 85.3117 57.5789 85.6197 57.7101C85.7221 57.728 85.7221 57.8447 85.6996 57.9195C85.8579 58.0128 86.0496 58.0876 86.2178 58.1898L86.1709 57.9096C86.1614 57.6063 85.779 57.5789 85.755 57.2797C85.442 57.1775 85.0915 57.144 84.76 57.2238C84.6527 57.3216 84.4979 57.3086 84.3681 57.336C84.3586 57.3734 84.3811 57.3974 84.3861 57.4293Z" fill="white"/>
<path fill-rule="evenodd" clip-rule="evenodd" d="M84.4655 58.9419C84.6476 58.89 84.7649 58.6901 84.9611 58.6711C85.2595 58.6761 85.526 58.7978 85.7132 59.0551C85.825 59.1284 85.8016 59.3199 85.9468 59.3199C85.9039 59.0915 85.9787 58.8821 85.9693 58.6477C85.7741 58.3215 85.288 58.5739 85.1058 58.1903L84.7604 58.2138C84.5124 58.2751 84.5782 58.5644 84.5458 58.7609C84.5174 58.8207 84.4615 58.8676 84.4655 58.9419Z" fill="white"/>
<path fill-rule="evenodd" clip-rule="evenodd" d="M86.1809 60.9836C86.3251 61.2729 86.6435 61.4923 86.6755 61.8235C86.7498 61.7352 86.8018 61.6325 86.8527 61.5342C86.8477 61.441 86.7404 61.441 86.6989 61.3661C86.656 61.245 86.7214 61.1377 86.7404 61.03C86.6795 60.8575 86.5342 60.6944 86.3715 60.5911L86.1809 60.9836Z" fill="white"/>
<path fill-rule="evenodd" clip-rule="evenodd" d="M86.7555 60.246L87.0914 60.7039C87.2356 60.4754 87.2356 60.1388 87.1797 59.8635C87.1478 59.8117 87.0864 59.7279 87.003 59.7658C86.8768 59.8959 86.8578 60.0969 86.7555 60.246Z" fill="white"/>
<path fill-rule="evenodd" clip-rule="evenodd" d="M85.3861 47.471C85.5074 47.5318 85.6242 47.5877 85.7699 47.5972C85.8672 47.5458 85.994 47.5079 86.1153 47.5413C86.2879 47.6535 86.4981 47.5179 86.6992 47.5273C86.5215 47.3593 86.3199 47.256 86.1153 47.1583C85.8532 47.2136 85.6436 47.4007 85.3861 47.471Z" fill="white"/>
<path fill-rule="evenodd" clip-rule="evenodd" d="M87.2128 47.9088C87.4604 47.9323 87.6385 48.1517 87.8057 48.3338C88.0159 48.3657 88.1746 48.5158 88.3003 48.6694L88.222 48.4225C88.1661 48.1747 88.0109 47.9832 87.8527 47.7872C87.6286 47.8016 87.4085 47.8211 87.2128 47.9088Z" fill="white"/>
<path fill-rule="evenodd" clip-rule="evenodd" d="M69.7777 45.8621L69.9135 45.8766C70.2769 46.0586 70.8655 46.1519 70.8995 46.679C70.5295 46.8241 70.1746 47.0196 69.88 47.3184C69.6564 47.09 69.203 47.2156 69.1277 46.8147C69.1986 46.4356 69.3333 45.9594 69.7777 45.8621Z" fill="#FF6600"/>
<path fill-rule="evenodd" clip-rule="evenodd" d="M70.1286 48.229C70.554 48.1911 70.9649 48.2515 71.4042 48.2146C71.511 48.2609 71.6229 48.3537 71.6748 48.4614C71.6603 48.9656 71.5066 49.4469 71.4836 49.9645C71.2919 50.0433 71.1047 50.2029 71.0577 50.4124C70.885 50.4638 70.7302 50.566 70.562 50.6453C70.4886 50.4872 70.5016 50.2488 70.6329 50.1177C70.8151 49.8613 71.2874 49.9212 71.2499 49.5152C71.3713 49.3197 71.2549 49.0674 71.2584 48.8624C71.212 48.7078 71.1651 48.9138 71.0907 48.9088C70.9414 48.9407 70.7876 48.9502 70.6563 48.8754C70.558 48.7726 70.4377 48.6883 70.4087 48.5492C70.2774 48.4839 70.1241 48.3816 70.0582 48.246L70.1286 48.229Z" fill="#FF6600"/>
<path fill-rule="evenodd" clip-rule="evenodd" d="M70.6424 51.2707C70.842 51.2996 71.0531 51.2098 71.2258 51.3086C71.1894 51.3744 71.0906 51.4018 71.0112 51.4208L70.6978 51.5649C70.5815 51.5375 70.6468 51.3505 70.6424 51.2707Z" fill="#FF6600"/>
<path fill-rule="evenodd" clip-rule="evenodd" d="M71.4595 47.3742C71.6597 47.3089 71.8753 47.1742 72.0899 47.2386C71.9362 47.3932 71.8149 47.5932 71.6981 47.7802L71.0582 47.7662C71.1286 47.5976 71.3058 47.4585 71.4595 47.3742Z" fill="#FF6600"/>
<path fill-rule="evenodd" clip-rule="evenodd" d="M73.3332 47.2206C73.5992 47.1742 73.5847 47.5194 73.8278 47.5323C73.8707 47.5882 73.9316 47.6395 73.9076 47.7238C73.7669 47.7797 73.5618 47.7528 73.4031 47.7892C73.1924 47.6725 73.3287 47.3084 72.9968 47.3318C72.9783 47.3034 72.9414 47.2476 72.9873 47.2291C73.0901 47.1922 73.2264 47.2062 73.3332 47.2206Z" fill="#FF6600"/>
<path fill-rule="evenodd" clip-rule="evenodd" d="M73.165 48.4704C73.2819 48.3068 73.4596 48.2934 73.6278 48.2609L74.838 48.2834C74.8894 48.3308 74.7911 48.3727 74.7911 48.4285C74.7167 48.4988 74.6089 48.5178 74.5435 48.5826C74.3847 48.5871 74.3987 48.7741 74.2868 48.8539C74.1136 49.0265 73.861 48.9467 73.6603 48.9192C73.5904 48.8674 73.511 48.7976 73.4776 48.7183L73.4217 48.7741C73.492 49.0359 73.4736 49.3252 73.5255 49.591L73.8151 49.7825C73.8195 50.2114 74.3243 50.0947 74.5435 50.3331C74.492 50.4877 74.3892 50.6179 74.2774 50.7485C74.1001 50.576 73.8984 50.4643 73.6843 50.389C73.6653 50.1381 73.3897 49.988 73.2364 49.8623C73.1935 49.4045 73.1845 48.9377 73.1101 48.4943L73.165 48.4704Z" fill="#FF6600"/>
<path fill-rule="evenodd" clip-rule="evenodd" d="M73.6044 51.3505H74.1654L74.095 51.6442L73.5335 51.4063C73.5205 51.3599 73.5714 51.346 73.6044 51.3505Z" fill="#FF6600"/>
<path fill-rule="evenodd" clip-rule="evenodd" d="M74.6134 46.0631L75.0292 45.9324C75.2679 46.0442 75.4915 46.1838 75.7112 46.3429C75.8839 46.6601 75.8565 47.0895 75.7766 47.444C75.6503 47.5837 75.3747 47.444 75.2724 47.668H75.2529C75.0991 47.2296 74.6598 46.8366 74.2534 46.6371C74.3188 46.4127 74.3892 46.1933 74.6134 46.0631Z" fill="#FF6600"/>
</svg>
