<svg width="108" height="108" viewBox="0 0 108 108" fill="none" xmlns="http://www.w3.org/2000/svg">
<g clip-path="url(#clip0_801_8096)">
<path d="M-92.8115 320.066H112.067V30.3097H-92.8115V320.066Z" fill="black"/>
<path d="M71.4357 51.8918V50.4407H73.6315C74.3133 50.4407 74.3536 50.7818 74.3536 51.137C74.3536 51.538 74.2761 51.8918 73.6315 51.8918H71.4357ZM71.4357 52.7753H73.7688C73.9161 52.7756 74.5831 52.7133 74.5831 53.5345C74.5831 54.3578 74.0469 54.3144 73.8118 54.3144H71.4357V52.7753ZM70.421 49.5125V55.2427H74.0583C74.9242 55.2427 75.6477 54.9536 75.6477 53.6836C75.6418 52.9095 75.3761 52.4032 74.4348 52.2752C74.4348 52.2752 75.4367 52.1902 75.4367 50.9849C75.4367 49.6374 74.612 49.5125 74.0885 49.5125H70.421Z" fill="black"/>
<path d="M47.3856 52.4523C47.3856 52.4523 48.2519 52.3236 48.2519 51.0677C48.2519 49.8163 47.0287 49.5031 46.4215 49.5031H42.9395V55.2429H44.0137V50.3708H46.1686C46.3407 50.3708 47.1859 50.3143 47.1859 51.1944C47.1859 52.1099 46.1927 52.0238 46.1927 52.0238H44.8469V52.8915H46.1789C46.5609 52.8915 47.0992 52.8846 47.0992 53.7681V55.2429H48.1586V53.6562C48.1586 52.6316 47.3856 52.4523 47.3856 52.4523Z" fill="black"/>
<path d="M53.5237 49.5031V53.2708C53.5237 54.0025 53.3637 54.454 51.8497 54.454C50.337 54.454 50.1395 54.0283 50.1395 53.2708V49.5031H49.0581V53.4081C49.0581 54.0448 49.0922 55.362 51.8173 55.362C54.5466 55.362 54.5996 54.1288 54.5996 53.4081V49.5031H53.5237Z" fill="black"/>
<path d="M57.2735 51.8191C56.6678 51.7537 56.4169 51.5758 56.4169 51.1844C56.4169 50.7122 56.61 50.2892 58.018 50.2892C59.4694 50.2892 59.6562 50.6754 59.6562 51.4161H60.6929C60.6929 50.7938 60.664 49.4044 58.05 49.4044C55.51 49.4044 55.3875 50.6296 55.3875 51.3169C55.3875 52.0049 55.912 52.5219 56.8598 52.6286C58.6664 52.832 59.8208 52.7783 59.8208 53.5117C59.8208 54.0383 59.6642 54.4648 58.1587 54.4648C56.6533 54.4648 56.4568 54.0765 56.4568 53.3293H55.3875C55.3875 53.9602 55.4167 55.362 58.126 55.362C60.8364 55.362 60.8939 53.9953 60.8939 53.4625C60.8939 51.9069 58.877 51.9884 57.2735 51.8191Z" fill="black"/>
<path d="M31.196 55.3641C33.9202 55.3641 33.9167 53.9616 33.9167 53.3889V49.5032H31.3719V50.3567H32.8419V53.2498C32.8419 54.0996 32.4884 54.4675 31.1812 54.4675C29.5526 54.4675 29.5474 53.8666 29.5474 52.8485H28.5583C28.5583 53.7861 28.3397 55.3641 31.196 55.3641Z" fill="black"/>
<path d="M38.9084 50.3713V55.2451H39.9857V50.3713H42.2146V49.5033H36.6844V50.3713H38.9084Z" fill="black"/>
<path d="M63.4227 50.3713V55.2451H64.4993V50.3713H66.7265V49.5033H61.1942V50.3713H63.4227Z" fill="black"/>
<path d="M77.8494 53.0556L78.823 50.4027L79.7946 53.0556H77.8494ZM80.1378 53.9697L80.6127 55.2425H81.8235L79.5472 49.5127H78.1071L75.8208 55.2425H77.0447L77.5155 53.9697H80.1378Z" fill="black"/>
<path d="M89.7672 49.5126H88.7072V55.2437H89.7672V49.5126ZM93.9999 55.2427L91.2086 52.29L93.8677 49.5126H92.4704L89.897 52.29L92.5695 55.2427H93.9999Z" fill="black"/>
<path d="M86.0179 55.2426H87.6858V49.5128H86.6343V54.2562L83.9518 49.5128H82.2819V55.2426H83.3444V50.5336L86.0179 55.2426Z" fill="black"/>
<path d="M-92.8115 320.066H112.067V30.3097H-92.8115V320.066Z" fill="black"/>
<path d="M25.8283 52.0842C25.8283 49.8292 23.926 47.9999 21.5802 47.9999C19.9705 47.9999 18.5693 48.8593 17.8486 50.1248C17.9746 50.1152 18.1037 50.1093 18.2327 50.1093C20.5796 50.1093 22.4819 51.9376 22.4819 54.1943C22.4819 54.9075 22.294 55.5738 21.9625 56.1561C24.1281 55.971 25.8283 54.2191 25.8283 52.0842Z" fill="#009EE3"/>
<path d="M21.3057 56.7295C21.2592 56.7629 21.2076 56.7887 21.157 56.8159C21.0366 56.8772 20.913 56.9305 20.7815 56.9752C20.605 57.0358 20.4219 57.0751 20.2425 57.0991C19.4502 57.1959 18.669 56.9377 18.1231 56.4287C17.8753 56.1984 17.6791 55.9162 17.5521 55.5934C17.1704 54.6173 17.5401 53.5573 18.3881 52.9491C17.0982 53.4082 16.4226 54.7629 16.849 56.0061C16.8153 55.9586 16.785 55.91 16.754 55.8622C15.9579 54.5209 16.4184 52.8118 17.7851 52.0443C19.0927 51.3129 20.7536 51.708 21.5951 52.9157C21.5886 52.9071 21.5845 52.8985 21.5793 52.8906C20.605 51.2465 18.4552 50.6772 16.7829 51.6158C15.8037 52.162 15.2062 53.1019 15.0699 54.1145C14.9901 53.845 14.9471 53.56 14.9471 53.2651C14.9471 51.6595 16.2104 50.3341 17.8486 50.1248C15.6872 50.3183 13.9999 52.0625 13.9999 54.1885C13.9999 56.4421 15.9018 58.2707 18.245 58.2707C19.8557 58.2707 21.2548 57.4089 21.9751 56.1379C21.7948 56.3695 21.57 56.5719 21.3057 56.7295Z" fill="#009EE3"/>
<path d="M68.9362 56.4254V57.4669C69.6886 57.66 70.3935 57.9835 71.0636 58.3617L70.7693 58.9451C70.3845 58.6932 69.4377 58.1893 68.9362 58.0592V60.1298H68.3181V56.4254H68.9362Z" fill="black"/>
<path d="M75.4268 57.5762C75.2795 58.8906 74.8342 59.89 72.5685 60.079L72.4002 59.5586C74.3021 59.4743 74.605 58.7185 74.7437 58.101H71.8943V57.5762H75.4268ZM75.1756 57.1057H72.2009V56.5808H75.1756V57.1057Z" fill="black"/>
<path d="M76.2832 59.6298C77.252 59.2687 78.2419 58.4162 78.7175 57.2068H76.5344V56.6692H79.4916C79.4351 56.9418 79.3054 57.572 78.6962 58.4117C79.2235 58.8065 79.686 59.193 80.1355 59.6256L79.6471 60.092C79.2493 59.6422 78.8129 59.2267 78.3499 58.8361C77.8702 59.3734 77.2995 59.8273 76.6246 60.0961L76.2832 59.6298Z" fill="black"/>
<path d="M82.5578 56.4254V57.4669C83.3098 57.66 84.0147 57.9835 84.6848 58.3617L84.3909 58.9451C84.0061 58.6932 83.0589 58.1893 82.5578 58.0592V60.1298H81.9393V56.4254H82.5578Z" fill="black"/>
<path d="M86.9511 59.9449C86.6655 59.9992 85.8704 60.1293 85.3125 60.1841L85.252 59.6929C85.3903 59.6805 85.5462 59.6716 85.974 59.6213V58.5337H85.2692V58.0715H85.974V57.7652H85.5806V57.5215C85.4939 57.5969 85.4461 57.6348 85.3511 57.7019L85.1959 57.177C85.5672 56.9251 85.7748 56.6814 85.9782 56.2952H86.5058C86.7047 56.6398 86.8603 56.8201 87.1756 57.0342L86.8778 57.4627C86.8472 57.4417 86.8345 57.4289 86.821 57.4207V57.7652H86.4321V58.0715H87.0637V58.5337H86.4321V59.5625C86.5275 59.5501 87.0117 59.4785 87.0637 59.4702L87.072 59.7181C87.1109 59.7139 87.137 59.7139 87.2103 59.7012V56.3961H89.1907V58.3407H88.4211C88.4383 58.4625 88.4648 58.6009 88.5464 58.8112C88.8014 58.6466 88.9353 58.5042 89.0262 58.4033L89.3376 58.8022C89.2599 58.8738 89.0912 59.0294 88.7581 59.2138C88.9745 59.5291 89.2168 59.7057 89.3941 59.8316L89.0606 60.2849C88.8149 60.1128 88.153 59.6551 87.9544 58.3407H87.7207V59.6213C88.0405 59.5625 88.162 59.5377 88.3217 59.4995V59.9786C87.7166 60.1293 87.1845 60.2051 86.9856 60.2343L86.9511 59.9449ZM85.7056 58.7058C85.7493 58.8569 85.8137 59.1846 85.8357 59.4283L85.4382 59.504C85.4333 59.1636 85.3425 58.8359 85.3256 58.7733L85.7056 58.7058ZM86.7133 57.3243C86.471 57.0972 86.3413 56.8958 86.2466 56.7403C86.164 56.8748 86.0735 57.0342 85.7882 57.3243H86.7133ZM87.0117 58.7268C86.9814 58.9578 86.947 59.1636 86.882 59.3863L86.5488 59.3233C86.6094 59.0586 86.6311 58.924 86.6483 58.6807L87.0117 58.7268ZM87.7207 57.177H88.6806V56.8452H87.7207V57.177ZM87.7207 57.9077H88.6806V57.5635H87.7207V57.9077Z" fill="black"/>
<path d="M91.1239 56.4212C90.9643 56.7444 90.5708 57.2862 90.0215 57.6224L89.7448 57.1099C89.9049 57.0218 90.2807 56.8119 90.6397 56.2447L91.1239 56.4212ZM91.254 57.3409C91.1887 57.4796 91.0851 57.715 90.7867 58.1049V60.2595H90.2418V58.7017C90.0821 58.8446 90.0216 58.8821 89.9307 58.9409L89.7534 58.3321C90.2074 58.0254 90.5533 57.5969 90.8083 57.1185L91.254 57.3409ZM93.8825 57.6138V58.1222H93.2509V59.8692C93.2509 60.1548 93.1429 60.2557 92.8186 60.2557H91.9538L91.8587 59.7012H92.5633C92.6634 59.7012 92.702 59.6847 92.702 59.5794V58.1222H91.2234V57.6138H93.8825ZM93.7187 56.9588H91.401V56.4546H93.7187V56.9588Z" fill="black"/>
<path d="M64.9152 60.2241C66.6649 60.2241 66.6622 59.3189 66.6622 58.95V56.4396H65.028V56.9916H65.9725V58.8584C65.9725 59.4084 65.745 59.6469 64.9059 59.6469C63.8582 59.6469 63.8541 59.2577 63.8541 58.6H63.2187C63.2187 59.2061 63.078 60.2241 64.9152 60.2241Z" fill="black"/>
</g>
<defs>
<clipPath id="clip0_801_8096">
<rect width="108" height="108" rx="8" fill="white"/>
</clipPath>
</defs>
</svg>
