<svg width="108" height="108" viewBox="0 0 108 108" fill="none" xmlns="http://www.w3.org/2000/svg">
<path d="M78.6687 50.9999C78.3592 50.9999 78.1042 51.1042 77.8995 51.3121C77.695 51.5203 77.5948 51.7549 77.5948 52.0204C77.5948 52.3574 77.7445 52.7318 78.0442 53.1476C77.5468 53.4798 77.2072 53.7597 77.0312 53.9778C76.8558 54.1964 76.7723 54.4636 76.7723 54.7851C76.7723 55.0663 76.8445 55.3096 76.9855 55.5239C77.1263 55.7385 77.3021 55.9079 77.5263 56.0265C77.7505 56.1452 77.9885 56.2093 78.2346 56.2093C78.7363 56.2093 79.2156 55.9559 79.6664 55.4553C80.0455 55.9559 80.4847 56.2093 80.984 56.2093C81.2143 56.2093 81.4179 56.1403 81.5933 56.0113C81.7684 55.8826 81.8819 55.7105 81.936 55.501H81.7532C81.6229 55.7311 81.4377 55.8514 81.1973 55.8514C81.0205 55.8514 80.8584 55.7967 80.7022 55.6914C80.5463 55.5864 80.3286 55.3372 80.0548 54.945C80.1697 54.7923 80.2981 54.5551 80.4356 54.2291C80.5993 53.8343 80.7609 53.5644 80.9155 53.4218C81.0703 53.2789 81.2488 53.1808 81.4562 53.1248V52.942H79.8111V53.1248C80.2139 53.1706 80.4128 53.3345 80.4128 53.6274C80.4128 53.7495 80.3678 53.9202 80.2833 54.1377C80.1991 54.3555 80.0861 54.5659 79.9406 54.7699C79.5359 54.1957 79.1088 53.6029 78.6535 52.9877C79.3884 52.618 79.7502 52.2385 79.7502 51.8453C79.7502 51.5926 79.645 51.384 79.4227 51.2284C79.2001 51.0727 78.9449 50.9999 78.6687 50.9999ZM85.6603 51.0227C85.2128 51.0227 84.801 51.1249 84.4265 51.335C84.052 51.545 83.7599 51.8685 83.5506 52.3022C83.3417 52.7357 83.2384 53.1974 83.2384 53.6884C83.2384 54.4361 83.4625 55.0389 83.9162 55.4934C84.3696 55.9479 84.9606 56.1712 85.6756 56.1712C86.3521 56.1712 86.9082 55.9238 87.3435 55.4325C87.4586 55.5842 87.5351 55.7594 87.5796 55.958H87.7471V54.2139H87.5796C87.5503 54.502 87.452 54.8039 87.2902 55.1126C87.1286 55.4215 86.9121 55.6383 86.6352 55.7676C86.3574 55.8969 86.0858 55.958 85.8203 55.958C85.3239 55.958 84.9049 55.7614 84.5712 55.3639C84.2383 54.9662 84.0762 54.3961 84.0762 53.6503C84.0762 52.8626 84.2279 52.2531 84.5331 51.83C84.8389 51.4065 85.2482 51.1979 85.7669 51.1979C86.1903 51.1979 86.5719 51.3306 86.9094 51.5939C87.2468 51.8573 87.47 52.3202 87.5796 52.9877H87.7471L87.7014 51.1065H87.5339C87.5112 51.3286 87.4509 51.5468 87.3435 51.7539C87.1953 51.5691 86.9658 51.4032 86.6656 51.2512C86.365 51.0993 86.0298 51.0227 85.6603 51.0227ZM56.4143 51.038C55.9668 51.038 55.555 51.1402 55.1805 51.3502C54.8057 51.5603 54.5139 51.8838 54.3046 52.3175C54.0954 52.7509 53.9924 53.2123 53.9924 53.7036C53.9924 54.4511 54.2165 55.0539 54.6702 55.5086C55.1234 55.9631 55.7065 56.1865 56.4219 56.1865C57.0979 56.1865 57.6548 55.9469 58.0899 55.4553C58.2056 55.6075 58.2896 55.782 58.3336 55.9808H58.5011V54.2291H58.3336C58.3043 54.5175 58.2062 54.8191 58.0442 55.1278C57.8826 55.4368 57.6667 55.6535 57.3892 55.7828C57.1114 55.9121 56.8395 55.9808 56.5743 55.9808C56.0779 55.9808 55.6587 55.7763 55.3252 55.3792C54.9917 54.9814 54.8302 54.4116 54.8302 53.6655C54.8302 52.8778 54.9816 52.2759 55.2871 51.8529C55.5926 51.4296 56.0027 51.2131 56.5209 51.2131C56.9448 51.2131 57.3264 51.3458 57.6634 51.6092C58.0006 51.8725 58.2238 52.3354 58.3336 53.0029H58.5011L58.4554 51.1294H58.2879C58.2655 51.3514 58.1973 51.562 58.0899 51.7691C57.9417 51.5844 57.7203 51.4181 57.4196 51.2664C57.1198 51.1145 56.784 51.038 56.4143 51.038ZM20.1843 51.0532C19.9042 51.0532 19.512 51.0642 19.0114 51.0837L18.3869 51.1065V51.2741H18.4783C18.7318 51.2741 18.8971 51.2986 18.9733 51.3426C19.0498 51.3869 19.0959 51.4635 19.1181 51.5787C19.1402 51.6939 19.1561 51.9518 19.1561 52.3479V54.7851C19.1561 55.2012 19.1402 55.471 19.1181 55.5848C19.0959 55.6986 19.0481 55.7823 18.9657 55.8361C18.8834 55.89 18.7304 55.9123 18.5164 55.9123H18.3869V56.0798H20.6794V55.9123H20.5118C20.2879 55.9123 20.1361 55.8877 20.0548 55.8285C19.9735 55.7696 19.9209 55.6759 19.9025 55.5543C19.8839 55.4328 19.8797 55.178 19.8797 54.7851V53.7341H20.428C20.999 53.7341 21.3972 53.6816 21.6238 53.5741C21.8506 53.4664 22.0201 53.3099 22.1417 53.1019C22.2629 52.8937 22.3244 52.65 22.3244 52.3784C22.3244 52.0655 22.2359 51.8071 22.0579 51.6016C21.8798 51.396 21.651 51.2558 21.3724 51.175C21.0939 51.0943 20.6996 51.0532 20.1843 51.0532ZM15.4699 51.1065V51.2741H15.5842C15.8366 51.2741 15.997 51.2986 16.0716 51.3426C16.1465 51.3866 16.2007 51.4641 16.2239 51.5787C16.2471 51.6936 16.2544 51.9524 16.2544 52.3479V54.0387C16.2544 54.5929 16.2403 54.994 16.2011 55.2345C16.1624 55.4754 16.0408 55.682 15.8507 55.859C15.6607 56.036 15.4278 56.1255 15.15 56.1255C15.0136 56.1255 14.9001 56.1007 14.8073 56.057C14.7151 56.0133 14.6702 55.952 14.6702 55.8742C14.6702 55.8449 14.6814 55.8031 14.7083 55.7447C14.7379 55.6789 14.754 55.6154 14.754 55.5543C14.754 55.452 14.7201 55.366 14.6474 55.2954C14.5749 55.2245 14.4814 55.1888 14.3732 55.1888C14.2674 55.1888 14.1794 55.2317 14.1066 55.3106C14.0341 55.3895 14 55.4846 14 55.6C14 55.7914 14.1023 55.9562 14.3046 56.0951C14.5075 56.2337 14.7897 56.3007 15.1653 56.3007C15.4995 56.3007 15.7963 56.2457 16.0487 56.1332C16.3012 56.0204 16.5069 55.8621 16.658 55.6533C16.8092 55.4444 16.8989 55.2262 16.9322 55.006C16.965 54.7861 16.9779 54.4672 16.9779 54.0463V52.3479C16.9779 51.9348 16.9915 51.6736 17.016 51.5635C17.0403 51.4534 17.0926 51.375 17.1683 51.335C17.2438 51.2942 17.404 51.2741 17.6481 51.2741H17.77V51.1065H15.4699ZM22.9947 51.1065V51.2741H23.1318C23.3853 51.2741 23.544 51.2986 23.6192 51.3426C23.6944 51.3869 23.7483 51.4635 23.7715 51.5787C23.795 51.6939 23.802 51.9516 23.802 52.3479V54.5109C23.802 54.922 23.7935 55.2044 23.7639 55.3563C23.7346 55.508 23.6469 55.6413 23.5126 55.7447C23.3785 55.8487 23.209 55.9003 22.9947 55.9123V56.0798H24.7845V55.9123C24.5544 55.8976 24.3785 55.8383 24.2513 55.7295C24.1236 55.6207 24.0471 55.4932 24.0228 55.3487C23.9983 55.2042 23.9848 54.9326 23.9848 54.5338V51.6244L25.965 56.0798H26.1401L28.0975 51.6244V54.7927C28.0975 55.2088 28.0902 55.471 28.067 55.5848C28.0438 55.6986 27.9895 55.782 27.9071 55.8361C27.8244 55.89 27.6773 55.9123 27.4653 55.9123H27.2902V56.0798H29.6816V55.9123H29.4608C29.2353 55.9123 29.0832 55.8874 29.0038 55.8285C28.9238 55.7699 28.8709 55.683 28.8515 55.5619C28.8318 55.4409 28.821 55.1767 28.821 54.7851V52.3479C28.821 51.9345 28.833 51.6738 28.8591 51.5635C28.8844 51.4534 28.9355 51.3752 29.0114 51.335C29.0874 51.2947 29.2539 51.2741 29.4989 51.2741H29.6816V51.1065H28.1432L26.3382 55.2268L24.5103 51.1065H22.9947ZM78.6839 51.1903C78.8708 51.1903 79.0187 51.2535 79.1333 51.3807C79.2471 51.5081 79.3084 51.6694 79.3085 51.8757C79.3085 52.2217 79.0492 52.5452 78.5392 52.843C78.226 52.413 78.0746 52.0719 78.0746 51.8224C78.0746 51.6417 78.1302 51.4952 78.2422 51.3731C78.3539 51.2512 78.4987 51.1903 78.6839 51.1903ZM20.2605 51.2284C20.7142 51.2284 21.0409 51.325 21.243 51.5178C21.445 51.7102 21.5476 52.012 21.5476 52.4241C21.5476 52.6941 21.49 52.9256 21.3724 53.1096C21.2546 53.2935 21.1069 53.4094 20.9307 53.4675C20.7542 53.5251 20.5242 53.5589 20.2376 53.5589H19.8797V51.2436C19.9679 51.2337 20.0941 51.2284 20.2605 51.2284ZM69.5065 52.1728C69.2154 52.1728 68.9806 52.2578 68.7906 52.4393C68.6008 52.6209 68.5011 52.8521 68.5011 53.1248C68.5011 53.3036 68.5508 53.4696 68.6382 53.6274C68.7257 53.7855 68.8405 53.9175 68.9962 54.0159C69.1519 54.1148 69.3903 54.2272 69.6969 54.3586C70.0407 54.5055 70.2759 54.6422 70.4052 54.7699C70.5347 54.8994 70.5956 55.058 70.5956 55.2497C70.5956 55.4395 70.5221 55.6143 70.3747 55.7676C70.227 55.9209 70.0192 55.9961 69.7502 55.9961C69.1523 55.9961 68.7753 55.594 68.6154 54.7927H68.4707V56.0265H68.6154C68.6455 55.8663 68.6898 55.7416 68.7525 55.6533C69.0334 55.9748 69.3834 56.1332 69.8035 56.1332C70.169 56.1332 70.4608 56.0332 70.6794 55.8285C70.8979 55.6233 71.0069 55.3562 71.0069 55.0288C71.0069 54.822 70.9599 54.6385 70.8698 54.4805C70.7789 54.3227 70.6619 54.2042 70.5118 54.1149C70.362 54.0256 70.118 53.9043 69.7883 53.7569C69.4436 53.6015 69.2122 53.4612 69.08 53.338C68.9454 53.217 68.8743 53.0714 68.8743 52.8963C68.8743 52.7513 68.9274 52.615 69.0343 52.4926C69.1414 52.3708 69.3077 52.3099 69.5369 52.3099C69.7776 52.3099 69.9944 52.3957 70.1767 52.5612C70.3598 52.7273 70.4855 52.9501 70.5575 53.239H70.6794V52.2413H70.5575C70.5466 52.3615 70.4994 52.4733 70.4128 52.5764C70.2619 52.4111 70.1142 52.3014 69.9711 52.2489C69.8274 52.1961 69.6693 52.1728 69.5065 52.1728ZM32.0274 52.1804C31.4378 52.1804 30.9518 52.356 30.5575 52.7135C30.1633 53.0707 29.9634 53.5473 29.9634 54.1377C29.9634 54.7434 30.1612 55.2259 30.5499 55.5924C30.9385 55.9595 31.4359 56.1484 32.0426 56.1484C32.6656 56.1484 33.1684 55.9595 33.5506 55.5924C33.9326 55.2259 34.1219 54.7529 34.1219 54.1606C34.1219 53.5493 33.919 53.0672 33.5202 52.7135C33.1211 52.36 32.6224 52.1804 32.0274 52.1804ZM40.8698 52.1804C40.2743 52.1804 39.8076 52.3854 39.4608 52.7973C39.114 53.2089 38.9353 53.6897 38.9353 54.2367C38.9353 54.7896 39.1211 55.2475 39.4836 55.6076C39.8459 55.9678 40.3002 56.1484 40.8469 56.1484C41.1191 56.1484 41.4108 56.0853 41.7304 55.9656C41.965 55.8776 42.1571 55.8361 42.3016 55.8361C42.3373 55.8361 42.3789 55.836 42.4235 55.8437V55.4401C42.4235 55.1096 42.4331 54.9014 42.4539 54.8156C42.4744 54.73 42.5184 54.6619 42.5834 54.6252C42.6482 54.5884 42.7743 54.5719 42.9566 54.5719V54.4424H41.3039V54.5719H41.3953C41.547 54.5719 41.6508 54.5862 41.7075 54.6099C41.7643 54.6331 41.8019 54.6785 41.8294 54.747C41.8569 54.8158 41.8751 54.9528 41.8751 55.1583C41.8751 55.3334 41.8421 55.4778 41.7837 55.5924C41.7259 55.7073 41.623 55.8019 41.4638 55.8818C41.3044 55.9623 41.1253 56.0037 40.9307 56.0037C40.5506 56.0037 40.2275 55.8676 39.9711 55.5848C39.7144 55.3025 39.5903 54.8159 39.5903 54.1377C39.5903 53.4577 39.7271 52.988 39.9939 52.7211C40.2607 52.4546 40.5714 52.3175 40.9307 52.3175C41.2783 52.3175 41.5708 52.432 41.8142 52.6602C42.0578 52.8886 42.2091 53.1983 42.2635 53.5894H42.393V52.3099H42.2635C42.2465 52.4642 42.2046 52.6104 42.1417 52.744C41.8058 52.3689 41.3821 52.1804 40.8698 52.1804ZM90.7479 52.1804C90.1583 52.1804 89.6722 52.356 89.278 52.7135C88.8837 53.0707 88.6839 53.5473 88.6839 54.1377C88.6839 54.7434 88.8741 55.2259 89.2628 55.5924C89.6514 55.9595 90.1491 56.1484 90.7555 56.1484C91.379 56.1484 91.8813 55.9595 92.2635 55.5924C92.6455 55.2259 92.8423 54.7529 92.8423 54.1606C92.8423 53.5493 92.6394 53.0672 92.2407 52.7135C91.8416 52.36 91.3426 52.1804 90.7479 52.1804ZM65.965 52.188L64.853 54.8384C64.773 55.029 64.72 55.1379 64.7083 55.1659C64.5902 55.4658 64.4944 55.6593 64.4113 55.7524C64.3281 55.8457 64.2008 55.9088 64.0305 55.9351V56.0646H65.1805V55.9351C65.0565 55.9351 64.9542 55.9032 64.8759 55.8437C64.7983 55.7846 64.7616 55.6997 64.7616 55.5848C64.7616 55.4774 64.8359 55.2515 64.9825 54.8993L65.0815 54.6556H66.5286L66.8256 55.3639C66.9122 55.5692 66.9551 55.6882 66.9551 55.7295C66.9551 55.8103 66.9206 55.8699 66.8561 55.8971C66.791 55.9242 66.6665 55.9351 66.4829 55.9351V56.0646H67.9832V55.9351C67.8492 55.9221 67.7529 55.8881 67.6862 55.8361C67.6193 55.7847 67.5657 55.713 67.5263 55.6229L67.3511 55.2268L66.0792 52.188H65.965ZM36.0487 52.2032C35.8347 52.2032 35.5446 52.2101 35.1805 52.2261L34.6398 52.2489V52.3784H34.7007C34.8977 52.3784 35.0297 52.3979 35.0891 52.4317C35.148 52.4656 35.1863 52.5263 35.2034 52.6145C35.2207 52.7027 35.2262 52.8965 35.2262 53.2009V55.0821C35.2262 55.4017 35.2204 55.6037 35.2034 55.6914C35.1866 55.7789 35.1447 55.8408 35.0815 55.8818C35.0186 55.9231 34.9027 55.9428 34.7388 55.9428H34.6169V56.0722H36.4524V55.9428H36.2696C36.0961 55.9428 35.9727 55.9193 35.9117 55.8742C35.8501 55.8294 35.8113 55.7613 35.7974 55.6686C35.7833 55.5766 35.7822 55.381 35.7822 55.0821V54.2444H35.9345C36.0371 54.2444 36.1066 54.2633 36.1554 54.2977C36.2036 54.3323 36.2929 54.4211 36.4219 54.5795C36.5507 54.737 36.6752 54.9026 36.7951 55.0745C37.1686 55.6124 37.4516 55.944 37.6329 56.0722H38.6535V55.9428C38.4298 55.9353 38.2388 55.8726 38.0746 55.7524C37.911 55.6316 37.6852 55.3778 37.3968 54.9907C37.0428 54.5125 36.7794 54.2371 36.62 54.1606C36.974 54.1174 37.2449 54.0101 37.4273 53.8331C37.6101 53.6561 37.7014 53.4363 37.7014 53.1857C37.7014 52.9711 37.6289 52.7917 37.4882 52.6373C37.3474 52.4825 37.1675 52.3702 36.9398 52.3022C36.7116 52.2345 36.4126 52.2032 36.0487 52.2032ZM45.1653 52.2032L44.0457 54.846C43.9655 55.0364 43.9211 55.1455 43.9086 55.1735C43.7913 55.4734 43.6874 55.6746 43.604 55.7676C43.5205 55.8609 43.4008 55.9164 43.2308 55.9428V56.0722H44.3808V55.9428C44.2563 55.9428 44.154 55.9184 44.0762 55.859C43.9981 55.7995 43.9619 55.7073 43.9619 55.5924C43.9619 55.485 44.0359 55.2591 44.1828 54.907L44.2818 54.6632H45.7289L46.0183 55.3715C46.1046 55.5768 46.1554 55.7034 46.1554 55.7447C46.1554 55.8255 46.1214 55.8775 46.0564 55.9047C45.9916 55.9319 45.8671 55.9428 45.6832 55.9428V56.0722H47.1835V55.9428C47.05 55.9294 46.9532 55.9033 46.8865 55.8514C46.8199 55.7999 46.7658 55.7282 46.7266 55.6381L46.5514 55.2345L45.2795 52.2032H45.1653ZM59.3922 52.2413V52.3708H59.4684C59.6635 52.3708 59.7837 52.3905 59.8416 52.4241C59.8992 52.458 59.9385 52.5184 59.9558 52.6069C59.974 52.6951 59.9863 52.8892 59.9863 53.1933V55.0669C59.9863 55.3868 59.974 55.5961 59.9558 55.6838C59.9385 55.7712 59.8971 55.8332 59.834 55.8742C59.7705 55.9155 59.656 55.9351 59.4912 55.9351H59.3922V56.0646H61.1287V55.9351H61.0297C60.8564 55.9351 60.7336 55.9116 60.6717 55.8666C60.6099 55.8213 60.5724 55.754 60.5575 55.661C60.5423 55.5677 60.5347 55.3687 60.5347 55.0669V54.1453H62.5301V55.0669C62.5301 55.3873 62.5243 55.5885 62.5072 55.6762C62.4904 55.7639 62.4475 55.8326 62.3854 55.8742C62.3227 55.9155 62.2107 55.9351 62.0503 55.9351H61.9208V56.0646H63.6497V55.9351H63.5659C63.3953 55.9351 63.2776 55.9116 63.2155 55.8666C63.1537 55.8215 63.1154 55.754 63.1013 55.661C63.0869 55.5679 63.0784 55.3679 63.0784 55.0669V53.1933C63.0784 52.8761 63.0895 52.6762 63.1089 52.5917C63.1289 52.5072 63.1653 52.4471 63.2232 52.4165C63.2815 52.3853 63.4087 52.3708 63.5963 52.3708H63.6497V52.2413H61.9208V52.3708H62.0198C62.212 52.3708 62.3359 52.3905 62.393 52.4241C62.45 52.458 62.4904 52.5184 62.5072 52.6069C62.5243 52.6951 62.5301 52.8892 62.5301 53.1933V53.9549H60.5347V53.1933C60.5347 52.8761 60.5451 52.6762 60.5651 52.5917C60.5851 52.5072 60.6278 52.4471 60.687 52.4165C60.7459 52.3853 60.8641 52.3708 61.0526 52.3708H61.1287V52.2413H59.3922ZM71.7304 52.2413V52.3708C71.9162 52.3708 72.0378 52.3873 72.096 52.4241C72.1538 52.4604 72.1942 52.5225 72.2102 52.6145C72.2267 52.7065 72.2331 52.9022 72.2331 53.1933V55.0669C72.2331 55.3865 72.2251 55.5905 72.2102 55.6686C72.195 55.7464 72.1588 55.8081 72.1036 55.859C72.0484 55.9096 71.9338 55.9351 71.7456 55.9351H71.6618V56.0646H74.8149L74.8987 54.8765H74.7692C74.7015 55.1628 74.6045 55.3862 74.4874 55.5467C74.3704 55.7077 74.2506 55.8123 74.1219 55.859C73.992 55.9056 73.8275 55.9275 73.6268 55.9275H73.345C73.0896 55.9275 72.9312 55.8854 72.8728 55.8057C72.8147 55.726 72.789 55.4586 72.789 55.006V54.0996H73.2003C73.3629 54.0996 73.4821 54.1159 73.5506 54.1377C73.6189 54.1593 73.6675 54.2026 73.703 54.2748C73.7384 54.3476 73.7563 54.4891 73.7563 54.7013H73.8858V53.399H73.7563C73.7563 53.5864 73.7417 53.7153 73.7182 53.7798C73.6947 53.8445 73.6468 53.8925 73.5735 53.9245C73.4999 53.9565 73.3698 53.9702 73.1851 53.9702H72.789V52.3708H73.3145C73.5795 52.3708 73.7661 52.3874 73.8858 52.4165C74.0052 52.4458 74.1111 52.5107 74.198 52.6221C74.2844 52.7338 74.3592 52.927 74.4189 53.1933H74.5484L74.457 52.2413H71.7304ZM47.6786 52.2489V52.3784C47.8849 52.3784 48.0149 52.3958 48.0746 52.4241C48.1343 52.4524 48.1767 52.5151 48.2041 52.6145C48.2316 52.7139 48.2498 52.9075 48.2498 53.2009V55.2345C48.2498 55.4656 48.2369 55.6065 48.2193 55.6686C48.2015 55.7304 48.1472 55.7899 48.0518 55.8437C47.9566 55.8976 47.8215 55.9294 47.6405 55.9428V56.0722H49.0571V55.9428C48.8551 55.9428 48.7088 55.9174 48.6078 55.859C48.5067 55.8009 48.4392 55.7384 48.4174 55.6686C48.3958 55.599 48.3869 55.4544 48.3869 55.2345V52.5764L51.1059 56.1636H51.2201V52.9953C51.2201 52.8316 51.2331 52.7214 51.2582 52.6526C51.2832 52.5841 51.3417 52.5186 51.4334 52.4698C51.5256 52.421 51.6542 52.3917 51.8142 52.3784V52.2489H50.4356V52.3784C50.586 52.3784 50.7096 52.3999 50.8164 52.4393C50.9236 52.4788 50.9951 52.5318 51.0297 52.5993C51.0644 52.6672 51.083 52.7882 51.083 52.9572V55.2421L48.821 52.2489H47.6786ZM32.035 52.3175C32.5007 52.3175 32.8563 52.4803 33.1013 52.7973C33.3463 53.1142 33.4669 53.5659 33.4669 54.1606C33.4669 54.7721 33.3421 55.2304 33.0937 55.5391C32.8447 55.8478 32.5091 56.0037 32.0807 56.0037C31.5921 56.0037 31.2282 55.8478 30.984 55.5391C30.7398 55.2304 30.6184 54.7758 30.6184 54.1606C30.6184 53.5547 30.7398 53.0915 30.984 52.7821C31.2282 52.4726 31.5763 52.3175 32.035 52.3175ZM90.7555 52.3175C91.2212 52.3175 91.5768 52.4803 91.8218 52.7973C92.0673 53.1142 92.1874 53.5659 92.1874 54.1606C92.1874 54.7721 92.0626 55.2304 91.8142 55.5391C91.5652 55.8478 91.2293 56.0037 90.8012 56.0037C90.3126 56.0037 89.941 55.8478 89.6969 55.5391C89.4527 55.2304 89.3313 54.7758 89.3313 54.1606C89.3313 53.5547 89.4527 53.0915 89.6969 52.7821C89.941 52.4726 90.2968 52.3175 90.7555 52.3175ZM36.0183 52.3403C36.4632 52.3403 36.7538 52.4222 36.8865 52.584C37.019 52.7458 37.0845 52.9624 37.0845 53.2314C37.0845 53.386 37.0625 53.5143 37.0236 53.6198C36.9844 53.7251 36.9314 53.814 36.8637 53.8788C36.796 53.9438 36.7067 53.9899 36.5971 54.0235C36.4878 54.0573 36.3572 54.0767 36.2087 54.0844C36.0602 54.0919 35.9213 54.0962 35.7822 54.0996V52.3479C35.8712 52.3402 35.9495 52.3403 36.0183 52.3403ZM65.805 52.8963L66.4752 54.5109H65.1424L65.805 52.8963ZM45.0053 52.9039L45.6756 54.5262H44.3351L45.0053 52.9039ZM78.1584 53.3076C78.5473 53.8156 79.0142 54.476 79.5522 55.2954C79.2491 55.6481 78.9187 55.8285 78.5621 55.8285C78.2409 55.8285 77.9481 55.6898 77.6938 55.4096C77.4395 55.1297 77.313 54.8257 77.313 54.5109C77.313 54.3067 77.3865 54.0976 77.5339 53.8788C77.6805 53.6599 77.8903 53.4712 78.1584 53.3076ZM93.5811 55.3411C93.4662 55.3411 93.3659 55.3808 93.2841 55.4629C93.2017 55.545 93.1622 55.6453 93.1622 55.76C93.1622 55.8725 93.2033 55.9722 93.2841 56.057C93.3646 56.1418 93.4641 56.1789 93.5811 56.1789C93.696 56.1789 93.7947 56.1388 93.8781 56.057C93.9616 55.9746 94 55.8773 94 55.76C94 55.6453 93.96 55.545 93.8781 55.4629C93.7955 55.3808 93.6987 55.3411 93.5811 55.3411Z" fill="black"/>
</svg>
