<svg width="108" height="108" viewBox="0 0 108 108" fill="none" xmlns="http://www.w3.org/2000/svg">
<path d="M76.7256 45.1676L76.3166 44.9073C74.9344 43.5251 73.0005 42.9239 70.4221 43.0788C68.2775 43.209 66.573 44.0643 65.2714 44.8515C65.2714 44.8329 65.2714 44.8143 65.2714 44.7957C65.2714 44.1201 65.3458 43.3949 65.4202 42.6883C65.4945 41.9693 65.5689 41.2379 65.5689 40.5437C65.5689 39.8372 65.4883 39.1678 65.2466 38.5913C65.1846 38.4426 65.0483 38.3558 64.8809 38.3558C64.1867 38.3744 62.8355 38.8454 62.507 39.1368L62.3273 39.5272C62.3149 40.2958 62.1475 42.4404 61.974 42.7007C61.9802 42.6945 61.881 42.961 61.881 42.961C61.5897 46.0229 61.5835 48.7192 61.85 51.0311C61.881 51.2604 62.3273 51.6075 62.6682 51.7315C63.0462 51.874 64.2239 51.5579 64.9057 51.2976C64.8995 51.2976 65.1598 51.2542 65.1598 51.2542C65.3768 51.2294 65.5007 51.0497 65.4945 50.8017C65.4883 50.7955 65.5131 50.1385 65.5131 50.1385C66.0028 48.1427 67.9924 45.7626 70.3415 45.4031C71.6741 45.1924 72.7216 45.5333 73.546 46.4382C73.6575 46.5994 73.8993 48.0374 73.0253 49.6861C72.3745 50.9071 71.0729 51.936 69.356 52.5806C67.7321 53.2004 65.947 53.4484 63.7404 53.374C63.6475 53.312 61.6764 51.9794 61.6764 51.9794C59.9286 50.7522 57.753 49.2212 55.782 48.4774C55.4349 48.3473 54.8151 47.8266 54.4432 47.5229L54.2386 47.3556C53.1044 46.4444 50.9412 45.0002 49.1995 43.8474C49.1995 43.8474 48.4123 43.3205 48.2636 43.2214C48.2636 43.1594 48.2636 43.023 48.2636 43.023C48.3132 42.9672 49.404 42.3102 49.404 42.3102C50.9288 41.4177 51.6354 40.9776 51.7903 40.7483C51.7593 40.7855 51.9949 40.6305 51.9949 40.6305C52.0073 40.6243 55.782 38.4859 55.782 38.4859C59.4203 36.4901 63.5359 34.2216 65.6991 31.9779C65.7053 31.9779 65.8044 31.637 65.8044 31.637L65.8478 31.3332C65.9904 30.856 65.9966 30.4903 65.8788 30.0626C65.8478 29.9387 65.7363 29.8023 65.5875 29.7713C63.8954 29.604 61.7198 30.6143 59.7364 32.4737C59.2901 32.8952 58.9121 33.0997 58.5154 33.3167L58.2117 33.484C56.0237 34.7298 51.0961 37.7856 48.5177 39.4343C48.685 36.6575 49.1995 32.7154 49.8317 29.4242L49.7635 29.0337C49.7573 29.0213 49.497 28.5379 49.497 28.5379L49.2987 28.1846L49.2429 28.166C48.7284 27.9056 48.307 28.011 47.997 28.0854L47.4826 28.2775L46.7946 28.5255C46.6582 28.5503 46.5653 28.637 46.5095 28.7672C45.276 31.7423 44.2533 36.6389 44.0054 40.5561C41.5447 38.988 39.27 37.8661 38.1543 37.3207L38.1233 37.3021L37.9932 37.2711C37.5903 37.2215 37.1006 36.924 36.6358 36.6389C36.5862 36.6079 35.6998 36.0315 35.6998 36.0315L34.2681 35.1141C34.2805 35.1203 33.89 35.0274 33.89 35.0274C33.2764 35.1327 32.0987 35.9261 31.7454 36.4653C31.702 36.5397 31.6834 36.6141 31.6834 36.6947C31.6834 36.8062 31.7206 36.924 31.7454 37.0356L31.8074 37.3269L31.8756 37.5004C32.5636 38.2008 34.2929 39.3723 35.985 40.2834L37.9498 41.3247L40.9621 42.9672C40.9621 42.9796 41.4766 43.3763 41.4766 43.3763L41.8299 43.5809C41.8299 43.5809 41.8732 43.6057 41.8918 43.618C41.0923 44.1573 36.4188 47.275 36.4188 47.275L33.5429 49.184C33.2702 49.37 32.1359 49.8782 31.8818 49.9774C31.2557 50.2315 30.7847 50.622 30.5925 51.0435L30.512 51.2108L30.5925 51.3224L30.8157 51.4897C30.8033 51.4897 31.107 51.6819 31.107 51.6819L31.4231 51.8988C31.4293 51.8988 31.7206 51.9484 31.7206 51.9484C32.2289 51.967 32.9726 51.6819 34.3796 51.0683C35.6689 50.498 39.1646 48.3907 40.6584 47.4857L41.2968 47.1014C41.5633 47.12 41.8484 46.8969 42.1088 46.7047C42.4063 46.463 43.0633 46.0663 43.46 45.8866C43.4724 45.8804 43.7017 45.7564 43.9124 45.6387C43.9124 45.7068 43.9062 45.8122 43.9062 45.8122C43.9744 50.3865 44.2347 53.7087 44.7368 56.2747L44.743 56.3181L44.7926 56.4235C45.0405 56.783 45.3194 57.8677 45.5674 58.8222L46.1376 60.7312C46.15 60.756 46.2987 60.911 46.2987 60.911C46.6211 61.1341 47.6128 61.5122 48.276 61.4316L48.4433 61.413L48.5487 61.1837C48.6045 60.8986 48.6231 60.6197 48.6231 60.3098C48.6231 59.9627 48.5983 59.5784 48.5673 59.1073L48.5239 58.4193C48.3132 55.2272 48.1024 50.6158 48.1024 47.5539C48.1024 47.4671 48.1024 47.3927 48.1024 47.3122C48.6479 47.6531 51.0156 49.1468 51.0156 49.1468C55.0506 51.7687 61.1496 55.7231 64.8375 56.7706C65.0297 56.8264 65.2342 56.783 65.3706 56.6466C65.3768 56.6404 65.9346 56.2809 65.9346 56.2809L66.04 56.2376C66.2507 56.1384 66.3933 55.7789 66.4181 55.3946C69.5234 55.2396 73.8559 54.0434 76.174 51.1302C77.0727 50.0022 77.4756 48.6138 77.4756 47.4299C77.4756 46.463 77.2091 45.6263 76.7194 45.1614L76.7256 45.1676Z" fill="#FCAF16"/>
<path d="M91.5641 69.2165C93.188 69.2165 94 70.0471 94 71.7144V77.3114H92.4381V72.2908C92.4381 71.8446 92.3947 71.5037 92.3017 71.2557C92.2087 71.0078 92.06 70.8343 91.8492 70.7227C91.6385 70.6173 91.3472 70.5615 90.9877 70.5615C90.622 70.5615 90.2377 70.6111 89.8224 70.7165C89.4071 70.8157 89.0229 70.952 88.6572 71.1194V77.3052H87.0952V69.2475H88.6572V70.0037C89.6737 69.4768 90.6468 69.2103 91.5703 69.2103L91.5641 69.2165Z" fill="#776C61"/>
<path d="M83.8163 77.3114V69.2166H85.4961V77.3114H83.8163Z" fill="#776C61"/>
<path d="M79.2793 69.1794C80.0045 69.1794 80.6057 69.353 81.0891 69.7063C81.5664 70.0596 81.9259 70.5306 82.149 71.1132C82.3784 71.7021 82.4899 72.3405 82.4899 73.0347C82.4899 73.9272 82.3164 74.6958 81.9693 75.3404C81.6222 75.985 81.1511 76.4747 80.5561 76.8094C79.9611 77.1441 79.2793 77.3114 78.5169 77.3114C77.9405 77.3114 77.3888 77.2371 76.8496 77.0821V79.3506L75.3372 79.9705V69.2104H76.8496V69.8984C77.2711 69.6629 77.6863 69.4831 78.1078 69.3592C78.5231 69.2352 78.9136 69.1732 79.2731 69.1732L79.2793 69.1794ZM78.3991 76.1214C78.8764 76.1214 79.3041 76.0098 79.6698 75.7929C80.0354 75.5759 80.333 75.235 80.5499 74.7826C80.7668 74.3239 80.8722 73.7537 80.8722 73.0719C80.8722 72.1917 80.6987 71.5409 80.3454 71.1132C79.9921 70.6918 79.4962 70.481 78.8516 70.481C78.1698 70.481 77.5066 70.6732 76.8496 71.0637V75.8549C77.4012 76.0284 77.9157 76.1214 78.3929 76.1214H78.3991Z" fill="#776C61"/>
<path d="M69.9882 77.5097C69.2072 77.5097 68.5564 77.3238 68.0358 76.9581C67.5151 76.5924 67.1247 76.0903 66.8643 75.4643C66.6102 74.8321 66.48 74.1193 66.48 73.3259C66.48 72.3652 66.6474 71.5718 66.9821 70.9582C67.3168 70.3384 67.7693 69.8859 68.3333 69.607C68.9035 69.3219 69.5481 69.1855 70.2671 69.1855C71.0481 69.1855 71.6989 69.3715 72.2196 69.7372C72.7402 70.1029 73.1307 70.5987 73.391 71.2248C73.6451 71.8508 73.7753 72.5574 73.7753 73.3507C73.7753 74.3238 73.608 75.1172 73.2733 75.737C72.9386 76.3568 72.4861 76.8093 71.922 77.0882C71.3518 77.3734 70.7072 77.5097 69.9882 77.5097ZM70.1246 76.2453C71.5626 76.2453 72.2753 75.2722 72.2753 73.3259C72.2753 72.4458 72.1018 71.7516 71.7485 71.2248C71.3952 70.7041 70.8746 70.4376 70.168 70.4376C69.387 70.4376 68.8292 70.6917 68.4883 71.2062C68.1474 71.7144 67.98 72.421 67.98 73.3259C67.98 74.2123 68.1598 74.9251 68.513 75.4519C68.8663 75.9788 69.4056 76.2453 70.1184 76.2453H70.1246Z" fill="#776C61"/>
<path d="M62.3272 72.9727L66.2755 77.1998V77.3114H64.1061L60.288 73.0656V77.3114H58.5092V66.7621H60.288V72.9355L64.1247 69.1918H66.0895V69.3033L62.3272 72.9727Z" fill="#776C61"/>
<path d="M57.1146 69.1794V77.3115H55.6084L55.5093 76.7722C54.5052 77.2619 53.4887 77.5098 52.4598 77.5098C51.6664 77.5098 51.0156 77.3239 50.5135 76.9458C50.0115 76.5677 49.7635 75.9974 49.7635 75.2351V69.1856H51.4433V74.826C51.4433 75.1855 51.4928 75.4706 51.5982 75.6875C51.7036 75.8983 51.8709 76.0532 52.1065 76.1462C52.342 76.2392 52.6643 76.2826 53.0858 76.2826C53.7118 76.2826 54.4928 76.078 55.4287 75.6751V69.1794H57.1084H57.1146Z" fill="#776C61"/>
<path d="M46.3235 71.7268C47.2223 71.9127 47.8855 72.2474 48.3194 72.7247C48.747 73.2082 48.964 73.7474 48.964 74.3486C48.964 74.9189 48.7904 75.4271 48.4433 75.8734C48.0962 76.3197 47.5818 76.673 46.8876 76.9271C46.1996 77.1812 45.3566 77.3114 44.3649 77.3114H39.7906V66.7001H44.2038C45.0901 66.7001 45.8525 66.8178 46.4909 67.0534C47.1293 67.2889 47.619 67.6112 47.9537 68.0203C48.2946 68.4294 48.4619 68.9004 48.4619 69.4397C48.4619 69.9541 48.2884 70.4128 47.9413 70.8157C47.5942 71.2186 47.0549 71.5285 46.3111 71.733L46.3235 71.7268ZM41.5943 67.9459V71.2867H43.9558C44.7492 71.2867 45.3938 71.1504 45.8897 70.8715C46.3855 70.5925 46.6334 70.1463 46.6334 69.5388C46.6334 69.2351 46.5405 68.9624 46.3607 68.7207C46.181 68.479 45.9083 68.293 45.5488 68.1566C45.1893 68.0203 44.7554 67.9521 44.2471 67.9521H41.5881L41.5943 67.9459ZM44.4083 76.0717C45.3442 76.0717 46.026 75.9106 46.4413 75.5821C46.8566 75.2536 47.0673 74.8321 47.0673 74.3238C47.0673 73.766 46.8442 73.3259 46.4041 72.9974C45.964 72.6689 45.3008 72.5078 44.4331 72.5078H41.6005V76.0779H44.4145L44.4083 76.0717Z" fill="#776C61"/>
<path d="M32.0925 71.7268C32.9913 71.9127 33.6545 72.2474 34.0883 72.7247C34.516 73.2082 34.7329 73.7474 34.7329 74.3486C34.7329 74.9189 34.5594 75.4271 34.2123 75.8734C33.8652 76.3197 33.3508 76.673 32.6566 76.9271C31.9686 77.1812 31.1256 77.3114 30.1339 77.3114H25.5596V66.7001H29.9727C30.8591 66.7001 31.6215 66.8178 32.2599 67.0534C32.8983 67.2889 33.3879 67.6112 33.7226 68.0203C34.0635 68.4294 34.2309 68.9004 34.2309 69.4397C34.2309 69.9541 34.0573 70.4128 33.7102 70.8157C33.3631 71.2186 32.8239 71.5285 32.0801 71.733L32.0925 71.7268ZM27.3633 67.9459V71.2867H29.7248C30.5182 71.2867 31.1628 71.1504 31.6586 70.8715C32.1545 70.5925 32.4024 70.1463 32.4024 69.5388C32.4024 69.2351 32.3095 68.9624 32.1297 68.7207C31.95 68.479 31.6772 68.293 31.3177 68.1566C30.9583 68.0203 30.5244 67.9521 30.0161 67.9521H27.3571L27.3633 67.9459ZM30.1773 76.0717C31.1132 76.0717 31.795 75.9106 32.2103 75.5821C32.6256 75.2536 32.8363 74.8321 32.8363 74.3238C32.8363 73.766 32.6132 73.3259 32.1731 72.9974C31.733 72.6689 31.0698 72.5078 30.2021 72.5078H27.3695V76.0779H30.1835L30.1773 76.0717Z" fill="#776C61"/>
<path d="M17.9111 71.795L23.7683 77.2122V77.3114H21.599L15.7975 71.8942V77.3114H14V66.7001H15.7975V71.7578L21.4874 66.7001H23.5328V66.7992L17.9111 71.795Z" fill="#776C61"/>
<path fill-rule="evenodd" clip-rule="evenodd" d="M83.8163 68.1256H85.4961V66.6691H83.8163V68.1256Z" fill="#776C61"/>
</svg>
