<svg width="108" height="108" viewBox="0 0 108 108" fill="none" xmlns="http://www.w3.org/2000/svg">
<path d="M17.9156 47.4867C17.7697 47.3602 17.6092 47.2532 17.439 47.1608C16.9234 46.8884 16.4126 46.6063 15.897 46.329C15.5565 46.1442 15.2209 45.9399 14.9047 45.7162C14.7929 45.6383 14.6859 45.5508 14.5789 45.4681C14.4718 45.3854 14.4135 45.2833 14.394 45.1519C14.3794 45.0546 14.394 44.9768 14.4573 44.9087C14.6226 44.7385 14.8123 44.6072 15.0312 44.5147C15.1382 44.471 15.2404 44.4758 15.3377 44.5342C15.3863 44.5634 15.4349 44.5926 15.4884 44.6266C15.683 44.7531 15.8776 44.8795 16.077 45.006C16.2472 45.113 16.4224 45.22 16.6266 45.2687C16.6996 45.2881 16.7677 45.3319 16.8407 45.366C17.4 45.6383 17.9448 45.9351 18.475 46.2609C18.5236 46.2901 18.5723 46.3242 18.6258 46.3436C18.6501 46.3534 18.6793 46.3436 18.7133 46.3436C18.7328 46.1539 18.7571 45.974 18.7766 45.7891C18.869 44.9379 19.0295 44.0964 19.263 43.2744C19.3408 42.9923 19.443 42.7199 19.5354 42.4426C19.5548 42.3891 19.5743 42.3307 19.6035 42.2821C19.6229 42.2481 19.6521 42.2189 19.6862 42.2043C19.8759 42.1216 20.0607 42.0486 20.265 42.0049C20.3671 41.9854 20.4596 42.0146 20.5471 42.0535C20.5714 42.0632 20.5958 42.0875 20.6104 42.1119C20.659 42.1946 20.7125 42.2772 20.7465 42.3697C20.766 42.4232 20.7709 42.4815 20.766 42.5399C20.766 42.6177 20.7417 42.6956 20.732 42.7685C20.6639 43.2014 20.5909 43.6295 20.5277 44.0624C20.4693 44.4661 20.4255 44.8698 20.3769 45.2784C20.3526 45.473 20.3477 45.6675 20.338 45.8621C20.338 45.8864 20.3526 45.9205 20.372 45.9302C20.3915 45.9399 20.4304 45.9399 20.4547 45.9253C20.6882 45.7843 20.9168 45.6383 21.1503 45.4924C21.9042 45.0303 22.6581 44.5682 23.4121 44.111C23.5629 44.0186 23.7137 43.9359 23.8644 43.8483C24.0201 43.7657 24.1611 43.6635 24.2876 43.5419C24.487 43.3571 24.7011 43.1868 24.9345 43.0458C25.2069 42.8755 25.4939 42.7393 25.8101 42.6615C25.9657 42.6226 26.1165 42.6177 26.2722 42.6226C26.3403 42.6226 26.3986 42.6761 26.4181 42.7442C26.4424 42.8269 26.457 42.9144 26.4424 43.002C26.4327 43.0604 26.4181 43.1187 26.4132 43.1771C26.3938 43.3279 26.3257 43.4495 26.2089 43.5516C25.9609 43.7705 25.7031 43.9748 25.4307 44.1645C24.8956 44.5391 24.3363 44.8698 23.7672 45.1908C23.0813 45.5751 22.3955 45.9594 21.7096 46.3436C21.5929 46.4117 21.4762 46.4847 21.3692 46.5674C21.2719 46.6452 21.16 46.7084 21.053 46.7765C20.8438 46.903 20.6347 47.0246 20.4304 47.1511C20.3817 47.1803 20.3331 47.2143 20.2845 47.2484C20.2309 47.2873 20.2358 47.3505 20.2942 47.3943C20.3477 47.4332 20.4061 47.4721 20.4644 47.511C20.7611 47.7105 21.0627 47.9099 21.3594 48.1142C21.5686 48.2552 21.7777 48.4012 21.982 48.5471C22.1474 48.6687 22.3079 48.7952 22.4636 48.9216C22.6387 49.0627 22.8187 49.1891 23.0327 49.2718C23.3488 49.3934 23.6456 49.5685 23.9325 49.7534C24.2341 49.9479 24.5308 50.1522 24.8275 50.3517C25.0756 50.5219 25.3285 50.6873 25.5766 50.8624C25.635 50.9013 25.6982 50.9208 25.7663 50.9208C26.3111 50.9354 26.851 50.8916 27.3812 50.7311C27.7752 50.6095 28.1449 50.4392 28.4659 50.1766C28.8891 49.8312 29.1177 49.3837 29.1469 48.8438C29.1663 48.4887 29.1371 48.4595 28.8453 48.2747C28.5778 48.0996 28.281 48.0753 27.9746 48.1288C27.6925 48.1774 27.4396 48.2941 27.2109 48.4693C26.8461 48.7416 26.5689 49.0919 26.3889 49.5102C26.3305 49.6464 26.2868 49.7826 26.2916 49.9334C26.2916 49.9723 26.2916 50.0112 26.2819 50.0501C26.2722 50.1133 26.2381 50.1571 26.1749 50.1766C25.9414 50.2447 25.7128 50.3225 25.4696 50.3565C25.2848 50.3809 25.1486 50.303 25.0416 50.1668C25.0124 50.1328 24.9978 50.0793 24.9929 50.0306C24.9783 49.9334 24.9783 49.8361 24.9686 49.7388C24.9102 49.1162 24.92 48.4984 24.9637 47.8758C24.9735 47.7591 24.9783 47.6424 24.9832 47.5256C24.9929 47.3894 25.0075 47.2581 25.0513 47.1268C25.0756 47.0538 25.0853 46.976 25.0951 46.8981C25.1194 46.6647 25.134 46.4312 25.1534 46.2026C25.1583 46.1345 25.1583 46.0664 25.1875 46.0031C25.2118 45.9496 25.241 45.8961 25.2994 45.8718C25.5377 45.7551 25.7809 45.6578 26.0484 45.6529C26.1263 45.6529 26.1749 45.687 26.2041 45.7599C26.2673 45.9156 26.3014 46.0761 26.3062 46.2415C26.3159 46.4944 26.3062 46.7474 26.277 47.0003C26.2527 47.224 26.2333 47.4478 26.2138 47.6667C26.2138 47.6959 26.2138 47.725 26.2138 47.7542C26.2138 47.8223 26.2722 47.8612 26.3305 47.8369C26.3986 47.8029 26.4716 47.7737 26.5397 47.7348C26.7294 47.6375 26.924 47.5451 27.1283 47.4818C27.7898 47.263 28.461 47.2289 29.1371 47.4089C29.4533 47.4916 29.7354 47.6424 29.9786 47.8564C30.037 47.905 30.0954 47.9585 30.1635 48.0023C30.2802 48.085 30.3532 48.192 30.4018 48.3233C30.4942 48.5665 30.5137 48.8146 30.4796 49.0675C30.4164 49.5442 30.217 49.9577 29.8911 50.3079C29.5944 50.6241 29.2441 50.8673 28.8599 51.0618C28.2519 51.3634 27.6098 51.5434 26.9386 51.6115C26.8899 51.6163 26.8413 51.6261 26.7926 51.6261C26.6662 51.6261 26.5981 51.6796 26.5689 51.806C26.5543 51.8741 26.5008 51.9179 26.4376 51.9568C26.1068 52.1563 26.1895 52.1854 25.7712 52.0395C25.3772 51.8985 25.0026 51.7185 24.6281 51.5288C23.8158 51.1105 23.0375 50.6338 22.2641 50.1474C21.6756 49.7728 21.087 49.3934 20.4936 49.0189C20.4255 48.9751 20.3623 48.9362 20.2942 48.8973C20.2309 48.8584 20.1726 48.8827 20.1726 48.9508C20.1726 49.0092 20.1726 49.0675 20.1726 49.1259C20.1774 49.6999 20.1823 50.2738 20.2212 50.8478C20.2212 50.8867 20.2212 50.9256 20.2261 50.9645C20.2504 51.5093 20.2796 52.0541 20.3039 52.594C20.3136 52.7594 20.3331 52.9248 20.3428 53.0902C20.3526 53.2264 20.3526 53.3626 20.3477 53.4987C20.3477 53.5668 20.3282 53.6301 20.3136 53.6982C20.3039 53.742 20.2504 53.776 20.2018 53.776C20.1337 53.776 20.0656 53.776 19.9975 53.7663C19.8661 53.742 19.7348 53.6982 19.6132 53.6398C19.5305 53.6009 19.4721 53.5377 19.4478 53.4501C19.3846 53.2361 19.3214 53.0221 19.263 52.808C19.1852 52.5357 19.1219 52.2633 19.0052 52.0055C18.9566 51.9033 18.9468 51.7817 18.9274 51.665C18.8349 51.0618 18.7717 50.4489 18.7425 49.8361C18.7231 49.3788 18.7085 48.9216 18.689 48.4644C18.689 48.4157 18.6793 48.3671 18.6696 48.3233C18.6696 48.3087 18.6404 48.2941 18.6258 48.299C18.5966 48.299 18.5674 48.3087 18.5431 48.3185C18.3923 48.3866 18.2513 48.4741 18.1151 48.5714C18.0129 48.6444 17.9059 48.7125 17.7843 48.7562C17.6919 48.7903 17.6092 48.8438 17.5265 48.8924C17.0741 49.16 16.6266 49.4323 16.1694 49.695C15.8095 49.9042 15.4447 50.1133 15.0555 50.2641C14.9096 50.3225 14.7637 50.3711 14.6178 50.4198C14.5643 50.4392 14.5059 50.4441 14.4475 50.4489C14.3892 50.4538 14.3308 50.4441 14.2773 50.41C14.2286 50.3809 14.18 50.3468 14.1314 50.3176C13.9806 50.2203 13.9611 50.162 14.0827 50.016C14.1654 49.9188 14.2676 49.8458 14.3843 49.7874C14.4913 49.7388 14.5983 49.6901 14.7053 49.6415C14.8658 49.5734 15.0215 49.4907 15.1674 49.3934C16.0332 48.8146 16.899 48.2406 17.7648 47.6618C17.8135 47.6278 17.8621 47.5937 17.9059 47.5548C17.9205 47.5451 17.9205 47.5208 17.9302 47.5013" fill="#FBB01D"/>
<path d="M58.9687 47.4381C58.993 47.4867 59.0368 47.5062 59.0806 47.5208C59.2703 47.5986 59.4454 47.7056 59.601 47.8369C59.9464 48.1288 60.1507 48.513 60.248 48.9508C60.3307 49.3253 60.3112 49.7047 60.2091 50.0744C60.068 50.5657 59.781 50.9402 59.3433 51.198C59.0757 51.3585 58.7839 51.4704 58.4774 51.5336C58.137 51.6066 57.7867 51.6552 57.4365 51.6552C56.2497 51.6552 55.0677 51.6552 53.8809 51.6552C53.8128 51.6552 53.7495 51.6455 53.6766 51.6407C53.6668 51.5969 53.6522 51.558 53.6522 51.5191C53.6522 51.4412 53.6522 51.3634 53.6522 51.2856V44.0089C53.6522 43.9213 53.6522 43.8338 53.6522 43.7462C53.6522 43.6927 53.6912 43.6586 53.7447 43.6586C53.8225 43.6586 53.9003 43.6586 53.9781 43.6586C55.0093 43.6586 56.0357 43.6586 57.0668 43.6586C57.3392 43.6586 57.6116 43.6732 57.884 43.6927C58.1759 43.7122 58.458 43.7754 58.7401 43.8678C58.8909 43.9164 59.0319 43.9797 59.1633 44.0624C59.5135 44.2715 59.747 44.5682 59.8637 44.9574C59.995 45.4146 59.9999 45.8767 59.8588 46.3339C59.7324 46.7474 59.494 47.083 59.1341 47.3262C59.0806 47.3651 59.0076 47.3846 58.9784 47.4527M56.3956 48.1044C56.0259 48.1093 55.6563 48.1044 55.2914 48.1093C55.2331 48.1093 55.1747 48.1142 55.1163 48.1239C55.1017 48.1239 55.0823 48.1482 55.0774 48.1628C55.0677 48.1871 55.0628 48.2212 55.0628 48.2504C55.0628 48.9994 55.0628 49.7437 55.0628 50.4927C55.0628 50.5122 55.0628 50.5316 55.0628 50.5511C55.0628 50.5997 55.1017 50.6338 55.1601 50.6386C55.2379 50.6386 55.3158 50.6386 55.3936 50.6386C55.9286 50.6386 56.4637 50.6386 56.9939 50.6386C57.1204 50.6386 57.2468 50.6386 57.3733 50.6338C57.6068 50.6338 57.8354 50.5803 58.0591 50.517C58.2002 50.4781 58.3315 50.4198 58.4531 50.3371C58.7206 50.162 58.8812 49.9188 58.9298 49.6026C58.9639 49.3983 58.9541 49.194 58.9152 48.9946C58.8617 48.7368 58.7255 48.5325 58.4969 48.3866C58.3899 48.3185 58.2731 48.2698 58.1515 48.2309C57.9278 48.1677 57.6992 48.1239 57.4657 48.119C57.1058 48.1093 56.7458 48.1093 56.3907 48.0996M56.2886 44.685C55.9578 44.685 55.6271 44.685 55.2963 44.685C55.2379 44.685 55.1796 44.685 55.1212 44.6947C55.0969 44.6947 55.0677 44.719 55.0677 44.7531C55.0677 44.8017 55.058 44.8504 55.058 44.899C55.058 45.5411 55.058 46.1831 55.058 46.8203C55.058 46.8495 55.058 46.8787 55.058 46.9079C55.058 47.01 55.092 47.0392 55.2039 47.0392C55.272 47.0392 55.3401 47.0392 55.4082 47.0392C55.9432 47.0392 56.4783 47.0392 57.0085 47.0392C57.203 47.0392 57.3976 47.0246 57.5922 47.0052C57.8159 46.9808 58.0299 46.9127 58.2245 46.796C58.4726 46.6501 58.6185 46.4312 58.6915 46.1539C58.7596 45.8913 58.745 45.6335 58.6866 45.3757C58.6428 45.2006 58.5455 45.0595 58.3947 44.9525C58.2148 44.826 58.0105 44.7628 57.8013 44.7336C57.5533 44.6947 57.3003 44.6704 57.0474 44.6752C56.7945 44.6752 56.5415 44.6752 56.2886 44.6752" fill="#796E63"/>
<path d="M48.2482 47.4283C48.2482 47.4283 48.2628 47.477 48.2725 47.4818C48.3163 47.5013 48.365 47.5159 48.4087 47.5256C48.6471 47.5743 48.8757 47.6618 49.0848 47.7834C49.6102 48.0947 49.9166 48.5568 49.9896 49.1697C50.0236 49.4226 50.009 49.6756 49.9555 49.9236C49.8436 50.4295 49.5615 50.8235 49.1335 51.1202C48.8173 51.3391 48.4622 51.4704 48.0877 51.5482C47.7472 51.6212 47.397 51.665 47.0468 51.665C45.7335 51.665 44.425 51.665 43.1117 51.665C43.0631 51.665 43.0144 51.6601 42.9658 51.6552C42.9317 51.6552 42.9123 51.6261 42.9074 51.6017C42.8977 51.5774 42.8977 51.5434 42.8977 51.5142C42.8977 51.4364 42.8977 51.3585 42.8977 51.2807V44.0235C42.8977 43.9359 42.8977 43.8483 42.8977 43.7608C42.8977 43.6976 42.9415 43.6586 43.0144 43.6586C43.0923 43.6586 43.1701 43.6586 43.2479 43.6586C44.4056 43.6586 45.5584 43.6586 46.716 43.6586C46.9787 43.6586 47.2413 43.6684 47.504 43.6878C47.8542 43.717 48.1947 43.7851 48.5255 43.9116C48.6811 43.97 48.827 44.0478 48.9632 44.1402C49.2648 44.3445 49.474 44.6169 49.5858 44.9574C49.688 45.2687 49.7172 45.5848 49.6685 45.9059C49.581 46.4944 49.2648 46.9273 48.7541 47.2192C48.6617 47.2727 48.5595 47.3116 48.4622 47.3505C48.3893 47.3797 48.3163 47.404 48.2434 47.4283M45.714 50.7408C46.0448 50.7408 46.3755 50.7408 46.7063 50.7408C46.8133 50.7408 46.9203 50.7408 47.0273 50.7359C47.2608 50.7262 47.4894 50.6824 47.7132 50.6241C47.8445 50.59 47.971 50.5365 48.0877 50.4635C48.3406 50.3128 48.5157 50.1036 48.5984 49.8166C48.6617 49.6075 48.6617 49.3934 48.6471 49.1794C48.613 48.7611 48.4136 48.4449 48.0537 48.2309C47.9126 48.1482 47.7569 48.085 47.5964 48.0461C47.3338 47.978 47.0662 47.9342 46.789 47.9342C45.9718 47.9342 45.1546 47.9342 44.3423 47.9342C44.3132 47.9342 44.284 47.9342 44.2548 47.9391C44.2159 47.9391 44.177 47.978 44.177 48.012C44.177 48.0607 44.1672 48.1093 44.1672 48.158C44.1672 48.9459 44.1672 49.7339 44.1672 50.517C44.1672 50.5657 44.1672 50.6143 44.177 50.663C44.177 50.6922 44.2256 50.7359 44.2596 50.7359C44.3277 50.7359 44.3958 50.7359 44.4639 50.7408C44.8823 50.7408 45.3006 50.7408 45.7189 50.7408M45.6994 47.0197C45.9913 47.0197 46.2831 47.0197 46.575 47.0197C46.7501 47.0197 46.9252 47.01 47.1003 47.0052C47.2559 47.0052 47.4067 46.9662 47.5575 46.9225C47.718 46.8787 47.8688 46.8106 48.005 46.7133C48.2385 46.5479 48.3795 46.3242 48.4282 46.0421C48.4622 45.8572 48.4525 45.6724 48.4233 45.4924C48.3747 45.1957 48.219 44.972 47.9564 44.8212C47.8299 44.7482 47.6937 44.6996 47.5527 44.6655C47.2559 44.5974 46.9592 44.5682 46.6577 44.5682C45.9183 44.5682 45.179 44.5682 44.4396 44.5682C44.391 44.5682 44.3423 44.5682 44.2937 44.5682C44.2742 44.5682 44.2548 44.5682 44.2353 44.5828C44.2207 44.5926 44.2013 44.6071 44.1964 44.6217C44.1867 44.6704 44.177 44.719 44.177 44.7628C44.177 45.4535 44.177 46.1442 44.177 46.8349C44.177 46.8738 44.177 46.9127 44.1867 46.9517C44.1964 46.976 44.2207 47.0052 44.2451 47.01C44.2986 47.0197 44.3618 47.0246 44.4153 47.0246C44.8433 47.0246 45.2714 47.0246 45.6994 47.0246" fill="#796E63"/>
<path d="M41.9395 51.6601H41.7546C41.3266 51.6601 40.8985 51.6601 40.4705 51.6601C40.1933 51.6601 40.2419 51.6893 40.0327 51.4947C39.4782 50.9889 38.9286 50.483 38.3789 49.9771C37.4985 49.1697 36.6181 48.3622 35.7377 47.5548C35.7329 47.5499 35.7231 47.5402 35.7134 47.5353C35.6696 47.5062 35.6356 47.4381 35.5675 47.4721C35.514 47.5013 35.5383 47.5597 35.5334 47.6034C35.5334 47.6813 35.5334 47.7591 35.5334 47.8369V51.2467C35.5334 51.3245 35.5334 51.4023 35.5334 51.4801C35.5334 51.6309 35.514 51.6552 35.3729 51.6552C35.0519 51.6552 34.7309 51.6552 34.4098 51.6552C34.3806 51.6552 34.3515 51.6552 34.3223 51.6455C34.298 51.6358 34.2736 51.6115 34.2639 51.592C34.2542 51.5677 34.2542 51.5336 34.2542 51.5045C34.2542 51.4266 34.2542 51.3488 34.2542 51.271V43.931C34.2542 43.6489 34.2396 43.6538 34.5168 43.6538C34.7698 43.6538 35.0227 43.6538 35.2756 43.6538C35.3243 43.6538 35.3729 43.6538 35.4216 43.6538C35.4945 43.6538 35.5334 43.6878 35.5334 43.7559C35.5334 43.8435 35.5334 43.931 35.5334 44.0186V47.1414C35.5675 47.1414 35.6064 47.1608 35.621 47.1462C35.7572 47.0392 35.8934 46.9273 36.0296 46.8155C37.2407 45.8086 38.447 44.8017 39.6582 43.7948C39.6825 43.7754 39.702 43.7559 39.7263 43.7365C39.7944 43.6732 39.8722 43.6441 39.9646 43.6441C40.4802 43.6441 40.9958 43.6441 41.5114 43.6441C41.5309 43.6441 41.5455 43.6586 41.5601 43.6684C41.5747 43.6781 41.5601 43.7122 41.5309 43.7413C41.5017 43.7657 41.4725 43.79 41.4433 43.8143C41.1563 44.0429 40.8645 44.2715 40.5775 44.505C39.4977 45.366 38.4179 46.222 37.338 47.083C37.2797 47.1316 37.2213 47.1851 37.1678 47.2386C37.158 47.2484 37.158 47.2775 37.1678 47.2921C37.197 47.3311 37.231 47.3651 37.2651 47.3992C37.698 47.7883 38.1357 48.1774 38.5686 48.5665C39.629 49.5102 40.6845 50.4538 41.7449 51.3974C41.8081 51.4558 41.8762 51.5142 41.9346 51.5774C41.9492 51.592 41.9395 51.6261 41.9443 51.6601" fill="#796F64"/>
<path d="M80.0449 49.622C80.0449 48.3866 80.0449 47.1559 80.0449 45.9205C80.0449 45.8329 80.0449 45.7454 80.0449 45.6578C80.0449 45.6092 80.0887 45.5702 80.1422 45.5702C80.1811 45.5702 80.22 45.5702 80.2589 45.5702C80.5313 45.5702 80.8037 45.5702 81.0761 45.5702C81.1247 45.5702 81.1734 45.5751 81.222 45.58C81.2561 45.58 81.295 45.6237 81.295 45.6578C81.2998 45.7843 81.3047 45.9107 81.3144 46.0323C81.3144 46.0421 81.3485 46.0615 81.3582 46.0567C81.402 46.0372 81.4458 46.0129 81.4847 45.9837C81.616 45.8815 81.7522 45.794 81.903 45.7162C82.3456 45.4827 82.8126 45.3903 83.3136 45.4632C83.4887 45.4876 83.6589 45.5265 83.8243 45.5848C84.2329 45.7259 84.5588 45.9788 84.8117 46.3242C85.0306 46.616 85.1765 46.9468 85.2641 47.297C85.4586 48.0607 85.4878 48.8341 85.3322 49.6075C85.2689 49.9139 85.1668 50.2057 85.0112 50.4781C84.6561 51.1056 84.1259 51.5045 83.4206 51.6504C82.7688 51.7866 82.1656 51.6601 81.616 51.2856C81.5382 51.2321 81.4603 51.1737 81.3825 51.1153C81.3631 51.1007 81.3144 51.1153 81.3144 51.1397C81.3144 51.2077 81.3047 51.2758 81.3047 51.3439C81.3047 51.8498 81.3047 52.3557 81.3047 52.8567C81.3047 52.9151 81.3047 52.9734 81.2998 53.0318C81.2998 53.0561 81.2755 53.0853 81.2512 53.0999C81.222 53.1242 81.1831 53.1388 81.149 53.1583C80.828 53.3139 80.5021 53.4744 80.1811 53.6301C80.1714 53.6301 80.1616 53.6398 80.1568 53.6398C80.0984 53.6641 80.0546 53.6398 80.0546 53.5863C80.0546 53.4987 80.0546 53.4112 80.0546 53.3236V49.622H80.0449ZM84.1648 48.6346C84.1843 48.3817 84.1405 48.1239 84.1016 47.8661C84.0675 47.6326 83.9945 47.4137 83.8875 47.2046C83.7611 46.9662 83.586 46.7717 83.3379 46.6598C83.0558 46.5285 82.7591 46.4993 82.4526 46.5625C82.0003 46.6549 81.6355 46.9079 81.329 47.2484C81.295 47.2873 81.2804 47.3311 81.2804 47.3846C81.2804 47.4527 81.2804 47.5208 81.2804 47.5888C81.2804 48.2309 81.2804 48.873 81.2804 49.515C81.2804 49.5734 81.2804 49.6318 81.2804 49.6901C81.2804 49.7826 81.3096 49.8604 81.3728 49.9285C81.6403 50.2057 81.9516 50.4198 82.3164 50.5365C82.6131 50.6338 82.9099 50.6386 83.2066 50.556C83.4984 50.4733 83.7222 50.2933 83.8778 50.0306C83.9994 49.8263 84.0724 49.6075 84.1113 49.374C84.1551 49.1356 84.1794 48.8924 84.1648 48.6346Z" fill="#796F64"/>
<path d="M71.951 51.6552C71.8635 51.6066 71.8002 51.5288 71.737 51.4558C71.2068 50.9013 70.6815 50.3419 70.1513 49.7874C69.8254 49.4421 69.4946 49.0967 69.1687 48.7514C69.1006 48.6784 69.0326 48.6103 68.9645 48.5471C68.9547 48.5374 68.9304 48.5374 68.9109 48.5374C68.8866 48.5374 68.8769 48.5519 68.872 48.5763C68.872 48.6638 68.8623 48.7514 68.8623 48.8389C68.8623 49.6658 68.8623 50.4927 68.8623 51.3196C68.8623 51.4072 68.8623 51.4947 68.8574 51.5823C68.8574 51.6309 68.8137 51.6698 68.7602 51.6698C68.4002 51.6698 68.0403 51.6698 67.6803 51.6698C67.6171 51.6698 67.5831 51.6309 67.5782 51.558C67.5782 51.4996 67.5782 51.4412 67.5782 51.3829C67.5782 48.907 67.5782 46.4263 67.5782 43.9505C67.5782 43.8824 67.5782 43.8143 67.583 43.7462C67.583 43.7122 67.622 43.6781 67.6609 43.6732C67.6803 43.6732 67.6998 43.6684 67.7192 43.6684C68.05 43.6684 68.3808 43.6684 68.7115 43.6684C68.731 43.6684 68.7504 43.6684 68.7699 43.6732C68.8185 43.6732 68.8526 43.717 68.8574 43.7705C68.8574 43.8581 68.8574 43.9456 68.8574 44.0332V47.7348C68.8574 48.0801 68.8623 48.1239 68.9109 48.119C69.0423 48.0947 69.1152 47.9828 69.2028 47.9002C70.0054 47.1754 70.8031 46.4506 71.6008 45.7259C71.63 45.7016 71.6592 45.6724 71.6884 45.6481C71.7419 45.5994 71.8002 45.5751 71.8732 45.5751C72.3596 45.5751 72.846 45.5751 73.3373 45.5751C73.3373 45.6092 73.347 45.6481 73.3373 45.6578C73.2643 45.7356 73.1865 45.8086 73.1087 45.8815C72.2915 46.6306 71.4743 47.3748 70.6572 48.1239C70.5939 48.1823 70.5307 48.2455 70.4675 48.3087C70.4431 48.3331 70.4431 48.3866 70.4675 48.4157C70.5015 48.4547 70.5307 48.4887 70.5647 48.5228C70.9782 48.9459 71.3916 49.3691 71.81 49.7923C72.3499 50.3419 72.8849 50.8867 73.4248 51.4364C73.4783 51.4899 73.527 51.5482 73.5805 51.6066C73.5951 51.6261 73.5951 51.6407 73.5805 51.6601C73.5756 51.665 73.5659 51.6747 73.561 51.6747C73.5416 51.6747 73.5221 51.6796 73.5027 51.6796C73.0163 51.6796 72.5298 51.6796 72.0434 51.6796C72.0143 51.6796 71.9851 51.6747 71.9608 51.6698" fill="#796E63"/>
<path d="M73.4784 48.6444C73.4832 48.2309 73.5173 47.8807 73.6097 47.5402C73.6681 47.3213 73.7459 47.1122 73.848 46.9176C74.2031 46.2366 74.743 45.7794 75.4824 45.5654C76.1147 45.3805 76.747 45.4 77.3696 45.6335C77.9728 45.8572 78.4349 46.2609 78.7559 46.8203C78.9748 47.2046 79.1013 47.618 79.1548 48.0607C79.2131 48.5276 79.1888 48.9897 79.0915 49.4518C79.0088 49.8361 78.8629 50.1912 78.644 50.517C78.3084 51.018 77.8463 51.3634 77.2772 51.5531C76.7324 51.7331 76.1731 51.7623 75.6137 51.6261C74.8889 51.451 74.3344 51.0326 73.9502 50.4003C73.6972 49.9869 73.561 49.5345 73.5075 49.0578C73.4881 48.9022 73.4881 48.7465 73.4832 48.659M77.9193 48.6152C77.9193 48.3136 77.8804 48.0461 77.8074 47.7834C77.749 47.5743 77.6566 47.3846 77.535 47.2094C77.3794 46.9906 77.1799 46.8252 76.9319 46.7182C76.7859 46.6549 76.64 46.616 76.4844 46.6063C76.2898 46.5917 76.0952 46.5917 75.9055 46.6403C75.5699 46.7279 75.3121 46.9225 75.1176 47.2046C74.9133 47.5013 74.8208 47.8321 74.7819 48.1871C74.7576 48.4303 74.7625 48.6735 74.7771 48.9168C74.7917 49.1308 74.8403 49.3399 74.9084 49.5442C74.9716 49.7291 75.0641 49.8993 75.1857 50.055C75.3656 50.2836 75.5942 50.4392 75.8715 50.5268C76.0515 50.5851 76.2314 50.5949 76.4211 50.59C76.7324 50.5803 77.0097 50.4733 77.248 50.269C77.4912 50.0598 77.6566 49.802 77.7685 49.5053C77.8755 49.2086 77.9241 48.9022 77.929 48.62" fill="#796E64"/>
<path d="M65.1024 51.5434C65.0926 51.4996 65.078 51.4655 65.078 51.4266C65.0732 51.3294 65.0683 51.2321 65.0634 51.1348C65.0634 51.1105 65.0099 51.0861 64.9953 51.1007C64.9662 51.1251 64.937 51.1494 64.9078 51.1737C64.6111 51.4461 64.2511 51.592 63.862 51.6455C63.5069 51.6942 63.147 51.6893 62.7919 51.6017C62.2082 51.4607 61.7802 51.1299 61.5078 50.59C61.3764 50.3273 61.2986 50.0501 61.25 49.7582C61.2013 49.481 61.1916 49.1989 61.1916 48.9168C61.1916 47.8856 61.1916 46.8592 61.1916 45.828C61.1916 45.7697 61.1916 45.7113 61.1916 45.6529C61.1916 45.6335 61.1916 45.614 61.2062 45.5994C61.2159 45.5848 61.2305 45.5654 61.25 45.5605C61.2792 45.5508 61.3083 45.5459 61.3375 45.5459C61.6683 45.5459 61.9991 45.5459 62.3298 45.5459C62.3493 45.5459 62.3687 45.5459 62.3882 45.5557C62.4125 45.5702 62.4417 45.5897 62.4465 45.6092C62.4563 45.6773 62.4611 45.7454 62.4611 45.8134C62.4611 46.4555 62.4611 47.0976 62.4611 47.7348C62.4611 48.1531 62.4611 48.5714 62.4611 48.9897C62.4611 49.2037 62.4757 49.4178 62.5292 49.6269C62.5584 49.7291 62.5876 49.8312 62.6265 49.9285C62.7724 50.2787 63.0448 50.483 63.4096 50.5511C63.6188 50.59 63.8328 50.5949 64.0468 50.5608C64.4262 50.4927 64.7084 50.2982 64.8883 49.9528C64.971 49.7972 65.0197 49.6318 65.044 49.4567C65.0683 49.2913 65.078 49.1308 65.078 48.9605C65.078 47.9488 65.078 46.9419 65.078 45.9302C65.078 45.8426 65.078 45.7551 65.078 45.6675C65.078 45.58 65.1121 45.5459 65.2045 45.5459C65.545 45.5459 65.8855 45.5459 66.226 45.5459C66.2989 45.5459 66.333 45.58 66.3378 45.6529C66.3378 45.7308 66.3378 45.8086 66.3378 45.8864C66.3378 47.6618 66.3378 49.4421 66.3378 51.2175C66.3378 51.5872 66.3719 51.5434 66.0119 51.5434C65.7687 51.5434 65.5255 51.5434 65.2823 51.5434C65.224 51.5434 65.1656 51.5385 65.1024 51.5336" fill="#796E63"/>
<path d="M90.1185 46.0956C90.1185 46.0956 90.1671 46.115 90.1768 46.1102C90.2109 46.0907 90.2401 46.0664 90.2693 46.0421C90.6341 45.721 91.067 45.5654 91.5485 45.5411C91.889 45.5216 92.2246 45.5411 92.5554 45.6529C93.0515 45.8134 93.4212 46.1248 93.6595 46.5868C93.8298 46.9079 93.9173 47.2581 93.9563 47.618C93.9806 47.8418 93.9903 48.0655 93.9903 48.2893C93.9903 49.3205 93.9903 50.3517 93.9903 51.378C93.9903 51.4558 93.9806 51.5336 93.9757 51.6115C93.9757 51.6261 93.9562 51.6407 93.9368 51.6504C93.9222 51.6601 93.8979 51.665 93.8784 51.665C93.5282 51.665 93.178 51.665 92.8278 51.665C92.7743 51.665 92.7354 51.6261 92.7354 51.5774C92.7354 51.4899 92.7305 51.4023 92.7305 51.3148C92.7305 50.3517 92.7305 49.3886 92.7305 48.4303C92.7305 48.1969 92.7159 47.9634 92.6819 47.7348C92.6624 47.5889 92.6235 47.4478 92.5651 47.3165C92.4046 46.9322 92.1128 46.7182 91.7042 46.6598C91.5291 46.6355 91.3539 46.6306 91.1788 46.6598C90.7605 46.7133 90.459 46.9273 90.2741 47.3067C90.172 47.5208 90.1282 47.7494 90.1087 47.9828C90.099 48.0996 90.1039 48.2163 90.1039 48.3331C90.1039 49.3351 90.1039 50.3371 90.1039 51.3391C90.1039 51.4266 90.1039 51.5142 90.0941 51.6017C90.0941 51.6358 90.0552 51.6698 90.0163 51.6747C90.0066 51.6747 89.9969 51.6747 89.9871 51.6747C89.6369 51.6747 89.2867 51.6747 88.9365 51.6747C88.8878 51.6747 88.8441 51.6358 88.8392 51.5823C88.8392 51.5142 88.8343 51.4461 88.8343 51.378C88.8343 49.5685 88.8343 47.764 88.8343 45.9545C88.8343 45.8864 88.8343 45.8183 88.8441 45.7502C88.8441 45.7162 88.883 45.6821 88.9219 45.6773C88.9316 45.6773 88.9414 45.6773 88.9511 45.6773C89.3013 45.6773 89.6515 45.6773 90.0017 45.6773C90.0552 45.6773 90.099 45.7162 90.099 45.7648C90.099 45.8815 90.1039 45.9983 90.1087 46.1102" fill="#796F64"/>
<path d="M41.9541 58.9855C41.993 58.9757 42.0173 58.966 42.0465 58.966C42.2605 58.966 42.4745 58.966 42.6885 58.966C42.7615 58.966 42.7858 59.0001 42.7761 59.0779C42.7664 59.1363 42.7615 59.1946 42.7518 59.253C42.6059 60.0848 42.4599 60.9165 42.314 61.7483C42.2313 62.2347 42.1438 62.726 42.0611 63.2124C42.027 63.4118 41.9784 63.6112 41.9006 63.8009C41.7254 64.229 41.4433 64.5646 41.0542 64.8127C40.8402 64.9489 40.6116 65.0559 40.3684 65.1337C39.8576 65.2991 39.3274 65.3526 38.7875 65.3623C38.7778 65.3623 38.7681 65.3623 38.7583 65.3623C38.7194 65.3623 38.6805 65.3234 38.6805 65.2894C38.6854 65.1434 38.6902 64.9975 38.7048 64.8516C38.7097 64.7786 38.7486 64.7543 38.8216 64.7494C39.1134 64.73 39.4004 64.6862 39.6874 64.623C39.916 64.5695 40.1349 64.5014 40.344 64.3944C40.4656 64.3311 40.5824 64.263 40.6845 64.1755C40.918 63.9809 41.0737 63.7426 41.1418 63.4507C41.1661 63.3486 41.1758 63.2416 41.1904 63.1346C41.1904 63.1248 41.1661 63.0956 41.1515 63.0956C41.0834 63.1005 41.0153 63.1102 40.9521 63.1248C40.7526 63.1783 40.5532 63.2124 40.3538 63.2464C40.0717 63.2902 39.7944 63.2853 39.5123 63.227C39.3858 63.2026 39.2691 63.1589 39.1572 63.1005C38.9334 62.9789 38.7875 62.7892 38.7243 62.5411C38.6757 62.3612 38.6659 62.1763 38.6951 61.9915C38.7292 61.7921 38.7583 61.5878 38.7924 61.3883C38.9237 60.6441 39.0551 59.8951 39.1864 59.1508C39.1912 59.1119 39.1961 59.073 39.2107 59.039C39.2204 59.0146 39.2496 59.0001 39.2691 58.9806C39.2739 58.9757 39.2885 58.9757 39.2983 58.9757C39.5317 58.9757 39.7652 58.9757 39.9987 58.9757C40.023 58.9757 40.0522 59.0146 40.0522 59.0341C40.0522 59.0633 40.0522 59.0925 40.0522 59.1217C40.0084 59.3697 39.9646 59.6178 39.9209 59.8659C39.8041 60.5274 39.6874 61.184 39.5706 61.8456C39.5512 61.9526 39.5415 62.0547 39.5512 62.1666C39.5706 62.4001 39.6923 62.5411 39.9209 62.5898C40.0327 62.6141 40.1495 62.6287 40.2662 62.619C40.5872 62.5946 40.9034 62.5557 41.2147 62.4779C41.2877 62.4584 41.3315 62.4195 41.346 62.3417C41.4044 61.9963 41.4677 61.651 41.526 61.3105C41.6476 60.6149 41.7692 59.9145 41.8957 59.2141C41.9103 59.1411 41.9297 59.0633 41.9492 58.9903" fill="#59A544"/>
<path d="M58.886 59.0633C58.9687 59.039 59.0514 59.0146 59.1341 58.9952C59.3043 58.9514 59.4697 58.9028 59.64 58.8687C59.9561 58.8055 60.2772 58.8104 60.5933 58.893C60.642 58.9076 60.6857 58.9222 60.7295 58.9368C61.0797 59.073 61.2694 59.3357 61.3083 59.7054C61.3278 59.8999 61.3181 60.0945 61.284 60.2842C61.1284 61.1646 60.9776 62.045 60.8219 62.9254C60.8073 63.0129 60.783 63.0956 60.7684 63.1735C60.7441 63.1881 60.7295 63.2026 60.7101 63.2026C60.4766 63.2026 60.2431 63.2026 60.0096 63.2026C59.961 63.2026 59.9269 63.1589 59.9367 63.1054C59.9367 63.0762 59.9464 63.047 59.9513 63.0178C59.9999 62.7211 60.0534 62.4244 60.1021 62.1277C60.2042 61.5343 60.3112 60.9408 60.4134 60.3474C60.4377 60.1918 60.4571 60.041 60.4425 59.8853C60.4231 59.7005 60.3307 59.5789 60.1556 59.5205C60.0729 59.4913 59.9853 59.4816 59.8978 59.4767C59.7032 59.4719 59.5086 59.4816 59.3189 59.5254C59.1487 59.5643 58.9784 59.6081 58.8082 59.647C58.7401 59.6616 58.7109 59.7102 58.7012 59.7686C58.6525 60.0264 58.6088 60.2842 58.565 60.542C58.4239 61.3543 58.2829 62.1666 58.1369 62.9838C58.1272 63.0519 58.1029 63.1151 58.0834 63.1832C58.0397 63.1881 58.0056 63.2026 57.9667 63.2026C57.8013 63.2026 57.6359 63.2026 57.4706 63.2026C57.2468 63.2026 57.2468 63.2026 57.2857 62.9692C57.4073 62.2687 57.5289 61.5732 57.6554 60.8727C57.7624 60.2696 57.8646 59.6664 57.9716 59.0633C58.0737 58.4699 58.1759 57.8764 58.2829 57.283C58.2877 57.2538 58.2926 57.2247 58.3023 57.2003C58.3169 57.1614 58.3412 57.1322 58.385 57.1274C58.6185 57.1031 58.8471 57.0836 59.0806 57.0641C59.1244 57.0641 59.1584 57.0933 59.1535 57.1322C59.1438 57.1906 59.139 57.249 59.1292 57.3073C59.0417 57.7938 58.9541 58.285 58.8714 58.7714C58.8568 58.8493 58.852 58.9271 58.8471 59.0001C58.8471 59.0146 58.8666 59.0292 58.8812 59.0536" fill="#59A544"/>
<path d="M38.3011 58.0029C38.1357 57.9835 37.9898 57.964 37.8488 57.9494C37.5861 57.9202 37.3283 57.891 37.0656 57.8667C36.8808 57.8521 36.696 57.857 36.516 57.9056C36.409 57.93 36.3117 57.9737 36.2241 58.0321C35.8788 58.2558 35.8058 58.6207 35.8739 58.9222C35.9031 59.039 35.9615 59.1411 36.0442 59.2238C36.1171 59.3016 36.1998 59.3746 36.2825 59.4378C36.4625 59.574 36.6473 59.7005 36.8273 59.827C36.9683 59.9291 37.1143 60.0264 37.2553 60.1285C37.3575 60.2015 37.4596 60.2793 37.552 60.362C37.8633 60.6344 38.0044 60.9846 38.0239 61.3883C38.053 61.9915 37.8196 62.4633 37.3429 62.8281C37.0462 63.0567 36.7057 63.1978 36.3409 63.2805C35.9372 63.3729 35.5334 63.3729 35.1249 63.3097C34.8281 63.2659 34.5314 63.2026 34.2493 63.1005C34.225 63.0908 34.1958 63.0762 34.1763 63.0567C34.1618 63.047 34.1472 63.0178 34.152 63.0081C34.2055 62.8427 34.2542 62.6773 34.3125 62.5119C34.3223 62.4876 34.3515 62.4682 34.3806 62.473C34.4196 62.473 34.4585 62.4779 34.4974 62.4876C34.7017 62.546 34.9157 62.58 35.1249 62.6141C35.3875 62.6579 35.6453 62.6627 35.908 62.6481C36.0928 62.6384 36.2728 62.5898 36.443 62.5119C36.5403 62.4682 36.6327 62.4098 36.7154 62.3417C37.0024 62.1082 37.1094 61.7969 37.0802 61.437C37.0705 61.2765 37.0024 61.1354 36.8954 61.0187C36.8078 60.9262 36.7154 60.8436 36.6084 60.7706C36.4333 60.649 36.2533 60.5323 36.0831 60.4058C35.9031 60.2745 35.7231 60.1431 35.548 60.0069C35.4799 59.9534 35.4167 59.8951 35.3486 59.8367C34.7649 59.3211 34.7795 58.3726 35.2659 57.8375C35.4702 57.6089 35.7183 57.4435 36.0053 57.3365C36.336 57.2101 36.6814 57.1566 37.0364 57.1809C37.4742 57.2149 37.9071 57.2733 38.3303 57.3803C38.3595 57.3852 38.3838 57.3949 38.413 57.4046C38.447 57.4144 38.4762 57.4581 38.4665 57.4922C38.4227 57.6624 38.3838 57.8327 38.306 58.0175" fill="#59A544"/>
<path d="M45.6459 58.8249C45.9475 58.8249 46.2491 58.8785 46.5458 58.9709C46.7841 59.0438 47.0176 59.1411 47.2511 59.2481C47.3289 59.2822 47.3435 59.3162 47.3289 59.4135C47.2949 59.6227 47.2608 59.8367 47.2268 60.0458C47.1149 60.7171 46.9981 61.3835 46.8863 62.0547C46.8765 62.1228 46.8619 62.1909 46.8619 62.259C46.8571 62.4633 46.9252 62.6384 47.0954 62.7649C47.1295 62.7892 47.1635 62.8038 47.1878 62.833C47.2073 62.8524 47.2219 62.8913 47.2122 62.9108C47.1343 63.047 47.0516 63.1783 46.969 63.3097C46.9446 63.3486 46.9057 63.3583 46.8668 63.3486C46.6771 63.3048 46.4971 63.2318 46.3415 63.1102C46.2247 63.0227 46.1421 62.9011 46.0788 62.7649C46.0545 62.7114 46.0156 62.7065 45.9621 62.7503C45.9232 62.7795 45.8891 62.8135 45.8551 62.8476C45.7237 62.9643 45.5778 63.0616 45.4222 63.1394C45.0087 63.3486 44.571 63.4021 44.1235 63.2853C43.7538 63.1881 43.4911 62.9643 43.3355 62.6092C43.2382 62.3903 43.1993 62.1617 43.1847 61.9283C43.1506 61.3056 43.2722 60.7122 43.5641 60.1577C43.7635 59.7832 44.0262 59.467 44.3764 59.2238C44.7217 58.9855 45.1449 58.8298 45.6459 58.8298M44.0554 61.6559C44.0554 61.758 44.0554 61.7921 44.0554 61.831C44.0651 61.9963 44.0894 62.1617 44.1575 62.3125C44.2596 62.546 44.4445 62.6725 44.6974 62.6919C44.8433 62.7016 44.9893 62.6919 45.1303 62.6481C45.4805 62.5509 45.7578 62.3466 45.9815 62.0693C46.0059 62.0401 46.0205 62.0012 46.0302 61.9672C46.0594 61.8261 46.0837 61.6802 46.108 61.5391C46.2102 60.936 46.3172 60.3328 46.4193 59.7297C46.429 59.6616 46.4047 59.6275 46.3366 59.5983C46.0934 59.5108 45.8502 59.4767 45.5924 59.4719C45.2617 59.4621 44.9893 59.5886 44.7558 59.8172C44.6293 59.9437 44.532 60.0848 44.4445 60.2355C44.1916 60.6976 44.0845 61.1938 44.0554 61.6559Z" fill="#59A544"/>
<path d="M55.6854 62.6919C55.6125 62.7551 55.5492 62.8135 55.4811 62.867C55.2234 63.081 54.9315 63.2318 54.6007 63.2999C54.2992 63.3632 54.0025 63.3486 53.7106 63.261C53.3993 63.1637 53.1707 62.9643 53.0248 62.6725C52.9275 62.4779 52.874 62.2736 52.8545 62.0596C52.8059 61.4613 52.8837 60.8776 53.1366 60.328C53.2874 59.9972 53.4869 59.7005 53.7544 59.4524C54.2165 59.0195 54.7613 58.8104 55.3985 58.8298C55.593 58.8347 55.7876 58.8639 55.9724 58.9125C56.3032 58.9952 56.6193 59.1168 56.9258 59.2627C56.9744 59.287 56.9987 59.326 56.989 59.3795C56.9647 59.5448 56.9404 59.7054 56.9112 59.8707C56.7847 60.5955 56.6631 61.3251 56.5367 62.0499C56.5221 62.1423 56.5123 62.2444 56.5172 62.3368C56.5172 62.4925 56.5853 62.619 56.702 62.7211C56.7507 62.7649 56.8091 62.7989 56.8626 62.8476C56.8723 62.8573 56.882 62.8865 56.8723 62.9011C56.7896 63.0421 56.702 63.1832 56.6096 63.3194C56.5999 63.3388 56.5561 63.3486 56.5318 63.3437C56.201 63.2659 55.9092 63.1297 55.7535 62.7989C55.7389 62.7649 55.7146 62.7357 55.6854 62.6968M53.7155 61.724C53.7155 61.8164 53.7155 61.9039 53.7301 61.9866C53.7447 62.1131 53.7738 62.2347 53.8322 62.3466C53.9295 62.546 54.09 62.6627 54.3089 62.6871C54.4548 62.7065 54.6007 62.7016 54.7418 62.6627C55.0726 62.58 55.345 62.4001 55.5736 62.1569C55.6465 62.079 55.6952 61.9915 55.7146 61.8747C55.8216 61.2327 55.9335 60.5955 56.0454 59.9534C56.06 59.8659 56.0697 59.7783 56.0794 59.6956C56.0794 59.6616 56.0551 59.6178 56.0211 59.6081C55.7049 59.4913 55.379 59.4476 55.0482 59.4865C54.9801 59.4962 54.9169 59.5157 54.8537 59.54C54.6932 59.5935 54.5618 59.6859 54.4402 59.8026C54.2943 59.9437 54.1776 60.1139 54.0851 60.2939C53.8565 60.7414 53.7447 61.223 53.7301 61.7191" fill="#59A544"/>
<path d="M86.2807 48.6298V45.9788C86.2807 45.8913 86.2807 45.8037 86.2807 45.7162C86.2807 45.6821 86.3196 45.6383 86.3536 45.6383C86.3828 45.6383 86.412 45.6286 86.4412 45.6286C86.7622 45.6286 87.0833 45.6286 87.4043 45.6286C87.4335 45.6286 87.4627 45.6286 87.487 45.6432C87.5113 45.6529 87.5356 45.6821 87.5405 45.7016C87.5502 45.7794 87.5502 45.8572 87.5502 45.9351C87.5502 47.117 87.5502 48.3039 87.5502 49.4859V51.378C87.5502 51.4364 87.5502 51.4947 87.5502 51.5531C87.5502 51.6163 87.5064 51.6552 87.4383 51.6552C87.0881 51.6552 86.7379 51.6552 86.3926 51.6552C86.3293 51.6552 86.2904 51.6115 86.2904 51.5385C86.2904 51.451 86.2904 51.3634 86.2904 51.2758V48.6249L86.2807 48.6298Z" fill="#7A7065"/>
<path d="M48.9632 58.9709C49.0313 59.0244 49.0411 59.0925 49.0605 59.1557C49.0751 59.1995 49.114 59.2092 49.1529 59.1946C49.1967 59.1752 49.2405 59.1508 49.2843 59.1314C49.5664 58.9903 49.8631 58.9076 50.1793 58.8979C50.3349 58.8979 50.4906 58.893 50.6462 58.893C50.6754 58.893 50.7046 58.9028 50.7435 58.9076C50.7435 58.9417 50.7581 58.9806 50.7532 59.0195C50.7289 59.1654 50.7046 59.3065 50.6803 59.4524C50.6657 59.5157 50.6268 59.5448 50.5538 59.5448C50.4079 59.5448 50.262 59.5448 50.116 59.5448C49.8728 59.5497 49.6296 59.574 49.3961 59.647C49.3475 59.6616 49.3037 59.6762 49.26 59.6908C49.0654 59.7637 49.0508 59.7783 49.0167 59.9729C48.8368 60.9895 48.6568 62.0012 48.4817 63.0129C48.4768 63.0421 48.472 63.0713 48.4671 63.1005C48.4525 63.1686 48.4136 63.2075 48.3504 63.2075C48.1266 63.2075 47.9029 63.2075 47.6791 63.2075C47.6256 63.2075 47.5916 63.1686 47.6013 63.1102C47.6256 62.9497 47.6548 62.7843 47.684 62.6238C47.8542 61.6559 48.0245 60.6928 48.1947 59.7248C48.2336 59.4962 48.2774 59.2676 48.3212 59.0341C48.326 58.9952 48.365 58.966 48.399 58.9611C48.5936 58.9514 48.7881 58.9514 48.9681 58.9611" fill="#59A745"/>
<path d="M51.5461 63.1881C51.5461 63.1881 51.5266 63.1978 51.5169 63.1978C51.264 63.2221 51.0159 63.2124 50.763 63.2075C50.724 63.2075 50.69 63.1637 50.6949 63.1297C50.6949 63.1005 50.6949 63.0713 50.7046 63.0421C50.8894 62.0012 51.0743 60.9603 51.2591 59.9194C51.3029 59.6616 51.3467 59.4038 51.3953 59.146C51.4002 59.1071 51.4099 59.073 51.4196 59.0341C51.4293 59.0001 51.4683 58.966 51.5023 58.966C51.7455 58.966 51.9887 58.966 52.2271 58.966C52.266 58.966 52.3 59.0049 52.2952 59.0438C52.2611 59.2433 52.2271 59.4476 52.193 59.647C51.9984 60.7463 51.8087 61.8407 51.6142 62.94C51.5996 63.0275 51.5899 63.1151 51.5461 63.1881Z" fill="#59A745"/>
<path d="M86.3001 43.6927C86.3293 43.683 86.3536 43.6635 86.3828 43.6635C86.7379 43.6635 87.0979 43.6635 87.4529 43.6635C87.5064 43.6635 87.5454 43.7024 87.5454 43.7511C87.5454 44.0916 87.5454 44.4272 87.5405 44.7628C87.5405 44.7968 87.5016 44.8309 87.4627 44.8358C87.4335 44.8358 87.4043 44.8406 87.3751 44.8406C87.0638 44.8406 86.7574 44.8406 86.4461 44.8406C86.4072 44.8406 86.3682 44.8358 86.3342 44.826C86.3196 44.826 86.3001 44.8066 86.2953 44.7871C86.2856 44.7628 86.2807 44.7336 86.2807 44.7044C86.2807 44.3931 86.2807 44.0867 86.2807 43.7754C86.2807 43.7462 86.2904 43.717 86.2953 43.6878" fill="#7C7166"/>
<path d="M52.0033 58.2753C51.8963 58.2753 51.7893 58.2558 51.6969 58.1975C51.5947 58.1294 51.5266 58.037 51.5072 57.9154C51.4245 57.4192 51.8671 57.0593 52.2611 57.0982C52.3389 57.1079 52.4119 57.1322 52.48 57.1712C52.5821 57.2344 52.6502 57.3268 52.6794 57.4435C52.7037 57.5603 52.6989 57.677 52.66 57.7889C52.5578 58.0856 52.2854 58.2753 52.0033 58.2753Z" fill="#5AA644"/>
</svg>
