<svg width="108" height="108" viewBox="0 0 108 108" fill="none" xmlns="http://www.w3.org/2000/svg">
<path d="M30.1573 54.0053L30.0138 53.914C29.5307 53.4319 28.8561 53.2218 27.9535 53.2761C27.2053 53.3191 26.6075 53.6178 26.1546 53.8932V53.8753C26.1546 53.6371 26.1808 53.3847 26.2045 53.1368C26.2326 52.8854 26.2598 52.6293 26.2598 52.3865C26.2598 52.1388 26.23 51.9055 26.1467 51.704C26.124 51.6522 26.0775 51.6216 26.0179 51.6216C25.7753 51.6272 25.2994 51.7927 25.1863 51.8951L25.1225 52.0318C25.1188 52.2964 25.0593 53.0481 24.9997 53.1401C25.0034 53.1368 24.9681 53.2322 24.9681 53.2322C24.8664 54.3022 24.8657 55.2443 24.9595 56.0531C24.9699 56.1336 25.125 56.2555 25.245 56.301C25.3755 56.3474 25.7901 56.2369 26.0267 56.1469L26.1151 56.1336C26.1922 56.1239 26.2379 56.0607 26.2326 55.9758L26.2379 55.7436C26.4104 55.046 27.1071 54.2138 27.928 54.0875C28.3916 54.0139 28.7595 54.1313 29.0481 54.4485C29.0873 54.5056 29.1725 55.0084 28.8666 55.5841C28.6395 56.0127 28.1831 56.3727 27.5821 56.5981C27.0133 56.8145 26.3902 56.9004 25.6193 56.8739C25.5875 56.8514 24.8954 56.385 24.8954 56.385C24.2856 55.9549 23.5239 55.4212 22.8346 55.1602C22.7144 55.1129 22.4964 54.9323 22.3664 54.8252L22.2947 54.7667C21.8977 54.4475 21.1423 53.9447 20.5343 53.5398C20.5343 53.5398 20.2617 53.3548 20.2074 53.3191C20.2074 53.297 20.209 53.2515 20.209 53.2515C20.226 53.2341 20.6053 53.0043 20.6053 53.0043C21.1423 52.6906 21.3886 52.5374 21.4376 52.4575C21.429 52.4701 21.5123 52.4165 21.5123 52.4165C21.5165 52.4146 22.837 51.6673 22.837 51.6673C24.1075 50.969 25.5492 50.1741 26.3055 49.389L26.3429 49.2732L26.3587 49.1645C26.4088 48.9974 26.4104 48.8683 26.3703 48.7193C26.3587 48.6775 26.3194 48.6285 26.2686 48.6178C25.6771 48.5602 24.9154 48.914 24.2224 49.564C24.0622 49.7131 23.9332 49.7832 23.7939 49.8612L23.6887 49.9183C22.9219 50.3538 21.1985 51.4238 20.2987 52.0002C20.3565 51.0294 20.5378 49.6492 20.756 48.4987L20.7332 48.362C20.7288 48.3569 20.6385 48.1883 20.6385 48.1883L20.5684 48.0632L20.5501 48.0572C20.3678 47.9676 20.2213 48.0035 20.1136 48.03L19.9333 48.0976L19.6948 48.1851C19.6456 48.1955 19.6134 48.2236 19.5941 48.2707C19.1639 49.3117 18.8036 51.024 18.7196 52.3937C17.859 51.8458 17.0625 51.4516 16.6727 51.2608L16.663 51.2552L16.614 51.2467C16.4754 51.2283 16.3036 51.1241 16.1372 51.024C16.1214 51.0152 15.8112 50.8121 15.8112 50.8121L15.3119 50.4922C15.316 50.494 15.1786 50.4622 15.1786 50.4622C14.9639 50.5001 14.5518 50.7761 14.4311 50.9653C14.4137 50.9911 14.4083 51.0171 14.4083 51.0461C14.4083 51.0855 14.4179 51.1259 14.4311 51.1642L14.4522 51.2659L14.4759 51.3284C14.7143 51.5719 15.3205 51.9828 15.9129 52.3015L16.6008 52.6662L17.6522 53.241C17.6531 53.248 17.8353 53.3847 17.8353 53.3847L17.9572 53.4549C17.9572 53.4549 17.9695 53.4637 17.98 53.4706C17.6995 53.6564 16.0652 54.7472 16.0652 54.7472L15.0586 55.4158C14.963 55.4799 14.566 55.6596 14.4782 55.6937C14.2593 55.7831 14.0938 55.917 14.0262 56.0661L14 56.122L14.0262 56.1624L14.1042 56.2202L14.3164 56.3658C14.3206 56.3676 14.4225 56.3816 14.4225 56.3816C14.5992 56.3878 14.8596 56.2852 15.353 56.0712C15.7996 55.8725 17.023 55.1354 17.5472 54.822L17.7696 54.6869C17.8609 54.6957 17.9642 54.617 18.0526 54.5504C18.1587 54.4652 18.3874 54.3259 18.5257 54.2646C18.5311 54.2618 18.61 54.2191 18.6827 54.1768V54.2381C18.7038 55.8367 18.7983 56.9977 18.9726 57.894L18.9754 57.9096L18.9928 57.9441C19.0778 58.0721 19.1769 58.4495 19.2647 58.7852L19.4627 59.451C19.4678 59.4589 19.5186 59.5167 19.5186 59.5167C19.6326 59.5896 19.9769 59.7247 20.2109 59.6973L20.2678 59.6911L20.3047 59.6107C20.3233 59.5088 20.3309 59.4125 20.3309 59.3029C20.3309 59.1813 20.3233 59.0471 20.3117 58.8825L20.2959 58.6424C20.2213 57.5242 20.1487 55.9128 20.1487 54.8426V54.7551C20.3388 54.8751 21.1669 55.3984 21.1669 55.3984C22.5804 56.3149 24.7139 57.6978 26.0011 58.0639C26.0668 58.0823 26.1388 58.0674 26.1878 58.0203C26.1887 58.0184 26.387 57.8959 26.387 57.8959L26.4237 57.8784C26.4973 57.8422 26.5462 57.7187 26.5551 57.5839C27.6417 57.5295 29.1565 57.1105 29.9672 56.0923C30.282 55.6963 30.422 55.2118 30.422 54.7974C30.422 54.4591 30.3291 54.1655 30.1573 54.0053Z" fill="#FCAF16"/>
<path d="M64.8855 57.4979V56.9266C64.5691 57.3603 63.9418 57.6214 63.2872 57.6214C61.8072 57.6214 61.0212 56.7144 61.0212 54.9515V51.5324H62.2681V54.9069C62.2681 56.1099 62.7519 56.541 63.5755 56.541C64.4115 56.541 64.8855 55.9855 64.8855 55.0197V51.5324H66.1305V57.4979H64.8855Z" fill="#776C61"/>
<path d="M82.6456 52.497C82.054 52.497 81.5352 52.8731 81.2076 53.2612V55.7698C81.4846 56.1204 82.0682 56.5535 82.6955 56.5535C83.592 56.5535 84.0765 55.917 84.0765 54.6555C84.0765 53.156 83.5684 52.497 82.6456 52.497ZM82.8164 57.6328C82.1759 57.6328 81.5705 57.3138 81.219 56.9505V59.012L79.9835 59.614V51.5445H81.219V52.1135C81.6808 51.7146 82.2128 51.4191 82.8761 51.4191C84.2448 51.4191 85.3227 52.3507 85.3227 54.6237C85.3227 56.6671 84.1397 57.6328 82.8164 57.6328Z" fill="#776C61"/>
<path d="M44.0374 56.69H46.5374C48.0909 56.69 48.5046 56.0854 48.5046 55.3142C48.5046 54.4014 47.8711 53.893 46.4724 53.893H44.0374V56.69ZM44.0374 52.9886H46.6179C47.5776 52.9886 48.2838 52.626 48.2838 51.7796C48.2838 51.0399 47.9359 50.5466 46.4724 50.5466H44.0374V52.9886ZM42.771 49.6424H46.6811C48.5406 49.6424 49.5121 50.2555 49.5121 51.6085C49.5121 52.5682 48.8419 53.2321 47.95 53.4083V53.4427C49.2303 53.595 49.8339 54.4325 49.8339 55.3792C49.8339 56.569 48.9647 57.5944 46.8064 57.5944H42.771V49.6424Z" fill="#776C61"/>
<path d="M34.168 49.6423H35.4395V53.1997L39.7129 49.6423H41.512L36.9949 53.2341L41.8869 57.5945H40.0899L35.4395 53.3314V57.5945H34.168V49.6423Z" fill="#776C61"/>
<path d="M56.801 56.5786H54.7936V54.0473H56.7451C58.1521 54.0473 58.6772 54.4029 58.6772 55.3058C58.6772 56.1099 58.0943 56.5786 56.801 56.5786ZM54.7936 50.6526H56.7451C57.4768 50.6526 57.9086 50.7445 58.1521 50.9523C58.3931 51.1222 58.4509 51.4201 58.4509 51.7776C58.4509 52.6224 57.8517 52.9964 56.8964 52.9964H54.7936V50.6526ZM59.6718 54.1961C59.4431 53.8395 59.0707 53.5609 58.6027 53.4084C59.2574 53.1096 59.6718 52.4524 59.6718 51.6086C59.6718 50.2582 58.827 49.6386 56.951 49.6386H53.4047V57.5945H57.0824C58.1521 57.5945 58.8832 57.3296 59.3509 56.9364C59.8006 56.5394 60.0091 55.9785 60.0091 55.3791C60.0091 54.9487 59.896 54.5536 59.6718 54.1961Z" fill="#776C61"/>
<path d="M92.7515 57.5945V54.221C92.7515 53.0149 92.2661 52.5848 91.4431 52.5848C90.6083 52.5848 90.1377 53.141 90.1377 54.107V57.5945H88.8918V51.6288H90.1377V52.1982C90.4542 51.769 91.0814 51.506 91.7359 51.506C93.2135 51.506 94 52.4165 94 54.1752V57.5945H92.7515Z" fill="#776C61"/>
<path d="M86.3381 51.6095H87.5875V57.5945H86.3381V51.6095Z" fill="#776C61"/>
<path d="M86.3381 49.645H87.5859V50.8206H86.3381V49.645Z" fill="#776C61"/>
<path d="M76.0894 52.534C75.1439 52.534 74.564 53.3165 74.564 54.4977C74.564 55.8042 75.2042 56.5181 76.1481 56.5181C77.0953 56.5181 77.7124 55.6218 77.7124 54.5309C77.7124 53.3165 77.0953 52.534 76.0894 52.534ZM76.1036 57.6329C74.5024 57.6329 73.3029 56.3957 73.3029 54.5309C73.3029 52.5776 74.5375 51.4192 76.1351 51.4192C77.7613 51.4192 78.9722 52.6347 78.9722 54.4977C78.9722 56.4735 77.7367 57.6329 76.1036 57.6329Z" fill="#776C61"/>
<path d="M70.2289 54.2961L73.245 51.5403H71.5951L68.7032 54.1736V49.6423H67.4345V57.5945H68.7032V54.3714L71.7553 57.5945H73.472L70.2289 54.2961Z" fill="#776C61"/>
</svg>
