<svg width="108" height="108" viewBox="0 0 108 108" fill="none" xmlns="http://www.w3.org/2000/svg">
<path d="M66.365 61.089C66.1839 59.9872 65.882 58.9006 65.4292 57.9195C64.0256 54.8859 62.0636 52.3353 59.1356 50.6298C54.5776 47.9585 49.0688 47.9886 44.5561 50.7204C42.5035 51.958 40.8282 53.7389 39.7567 55.867C39.3793 56.5914 39.0926 57.346 38.8511 58.1157C37.6588 61.8889 37.7041 66.9751 39.8472 70.4162C40.5415 71.5481 41.5527 72.499 42.7903 72.9819C44.0279 73.4649 45.4919 73.4045 46.6087 72.6801C48.0425 71.7594 48.2991 69.9936 48.0274 68.424C47.6803 66.4167 47.4388 64.4395 48.1783 62.4624C48.4047 61.8285 48.7368 61.2399 49.2348 60.772C49.5367 60.5004 49.8838 60.2589 50.246 60.0929C51.0309 59.7005 51.9062 59.5495 52.7665 59.6703C54.2607 59.9118 55.4832 61.0739 56.1473 62.4322C56.8113 63.7905 56.9924 65.33 57.0528 66.8392C57.3698 73.4347 55.8001 80.2414 54.1098 86.5652C53.9437 87.2142 53.7626 87.8632 53.5815 88.5122C53.4306 89.0102 53.1891 89.6592 53.506 90.1422C53.6419 90.3535 53.8683 90.5044 54.0947 90.5949C55.0606 90.9873 55.8756 90.3836 56.5246 89.7347C60.3732 85.8559 62.8635 80.8451 64.5539 75.6986C65.1878 73.7667 65.716 71.8198 66.0933 69.8125C66.5914 67.0958 66.8781 63.9717 66.3801 61.089" fill="#008A8B"/>
<path d="M93.9999 30.6623C93.9999 29.6662 93.1246 29.0172 92.1888 29.0474C91.2229 29.0927 90.3475 29.5756 89.4721 29.9077C72.4929 36.3673 53.3404 37.5898 35.4405 35.009C32.3767 34.5713 29.2827 33.9525 26.1887 33.4695C24.2719 33.1677 22.3552 32.73 20.4233 32.5941C18.7631 32.4583 16.7105 32.413 15.3673 33.5601C13.6014 35.0844 13.7222 37.9671 14.7334 39.8839C15.9408 42.1779 18.0387 43.8985 20.2271 45.1964C22.3552 46.4642 24.8907 47.8225 27.4414 47.6565C34.2783 47.2188 41.1002 46.5699 47.8919 45.6794C59.4831 44.1701 71.6477 42.7514 82.5295 38.2539C86.0914 36.7899 89.608 34.9486 92.6567 32.5791C93.2151 32.1565 93.9999 31.4773 93.9999 30.6623Z" fill="#008A8B"/>
<path d="M45.296 24.8369C45.296 28.5195 48.2843 31.5229 51.982 31.5229C55.6797 31.5229 58.6529 28.5346 58.6529 24.8369C58.6529 24.2785 58.5322 23.7352 58.3058 23.2371C57.7323 22.0146 57.0984 21.4411 57.1437 19.9771C57.2342 18.0151 54.7138 18 53.3554 18C51.8764 18 50.3067 18.1962 48.9786 18.8754C47.9221 19.4036 47.0014 20.2337 46.3524 21.2298C45.6884 22.2561 45.3261 23.4635 45.296 24.686V24.8369Z" fill="#E50045"/>
</svg>
