<svg width="108" height="108" viewBox="0 0 108 108" fill="none" xmlns="http://www.w3.org/2000/svg">
<path d="M41.5464 50.0546V59.3857H39.7216V54.8965H35.9339V59.3857H34.1054V50.0546H35.9339V53.6824H39.7216V50.0546H41.5464Z" fill="black"/>
<path d="M47.0135 59.3857C46.9589 59.3494 46.9008 59.2731 46.8354 59.1495C46.7663 59.0222 46.7336 58.9023 46.7336 58.7751C46.4573 59.0695 46.1447 59.2694 45.7848 59.3748C45.4286 59.4839 45.0796 59.5348 44.7343 59.5348C44.1018 59.5348 43.5747 59.3421 43.1603 58.9568C42.7423 58.5715 42.5351 58.0444 42.5351 57.3756C42.5351 56.7612 42.7568 56.2269 43.1967 55.7689C43.6365 55.3109 44.2727 55.0346 45.1087 54.9474L46.6027 54.7765C46.6027 54.2058 46.4755 53.8169 46.221 53.6097C45.9702 53.3988 45.6794 53.2934 45.3632 53.2934C44.9706 53.2934 44.5998 53.3806 44.2508 53.5515C43.8982 53.726 43.5784 53.9477 43.2839 54.2131L42.9749 52.8645C43.3312 52.6173 43.7056 52.4283 44.1018 52.3047C44.498 52.1775 44.9488 52.1193 45.4686 52.1193C45.7885 52.1193 46.1193 52.1629 46.4609 52.2538C46.8026 52.341 47.1116 52.4901 47.3879 52.6936C47.6714 52.8972 47.9041 53.1698 48.0822 53.5006C48.2603 53.8314 48.3512 54.2422 48.3512 54.7329V57.6373C48.3512 57.9135 48.3693 58.208 48.4166 58.517C48.4602 58.8296 48.5511 59.1167 48.6856 59.3821H47.0207L47.0135 59.3857ZM46.6136 55.8925L45.7194 56.0124C45.3014 56.0669 44.9633 56.2087 44.7052 56.4377C44.4471 56.6704 44.3199 56.9575 44.3199 57.3065C44.3199 57.6155 44.4071 57.8663 44.5816 58.0517C44.7525 58.2371 44.9597 58.3316 45.1996 58.3316C45.385 58.3316 45.5667 58.3061 45.7412 58.2552C45.9157 58.2007 46.0647 58.1026 46.1883 57.9608C46.3228 57.8154 46.4282 57.63 46.5046 57.3937C46.5773 57.1575 46.6173 56.8557 46.6173 56.4813V55.8961L46.6136 55.8925Z" fill="black"/>
<path d="M51.3864 52.2538V52.8681C51.6263 52.6282 51.9062 52.4428 52.2298 52.3156C52.5569 52.1847 52.8913 52.1229 53.2403 52.1229C54.0945 52.1229 54.7634 52.3701 55.2577 52.8681C55.7521 53.3661 55.9957 54.0459 55.9957 54.9074V59.3857H54.2508V55.1618C54.2508 54.6202 54.1272 54.1804 53.8837 53.8423C53.6365 53.5079 53.2948 53.337 52.8477 53.337C52.437 53.337 52.0953 53.5042 51.8154 53.8387C51.5355 54.1695 51.3937 54.6311 51.3937 55.2163V59.3894H49.6598V52.2538H51.3864Z" fill="black"/>
<path d="M61.4119 59.3857C61.361 59.3494 61.2992 59.2731 61.2301 59.1495C61.1647 59.0222 61.132 58.9023 61.132 58.7751C60.8557 59.0695 60.5431 59.2694 60.1869 59.3748C59.8306 59.4839 59.478 59.5348 59.1327 59.5348C58.5002 59.5348 57.9768 59.3421 57.5587 58.9568C57.1443 58.5715 56.9371 58.0444 56.9371 57.3756C56.9371 56.7612 57.1552 56.2269 57.5951 55.7689C58.0349 55.3109 58.6747 55.0346 59.5071 54.9474L60.9975 54.7765C60.9975 54.2058 60.8739 53.8169 60.6194 53.6097C60.365 53.3988 60.0778 53.2934 59.7579 53.2934C59.3653 53.2934 58.9946 53.3806 58.642 53.5515C58.293 53.726 57.9695 53.9477 57.675 54.2131L57.3697 52.8645C57.7259 52.6173 58.1003 52.4283 58.4929 52.3047C58.8928 52.1775 59.3472 52.1193 59.8633 52.1193C60.1832 52.1193 60.514 52.1629 60.8521 52.2538C61.1974 52.341 61.5064 52.4901 61.779 52.6936C62.0625 52.8972 62.2916 53.1698 62.4733 53.5006C62.6514 53.8314 62.7387 54.2422 62.7387 54.7329V57.6373C62.7387 57.9135 62.7605 58.208 62.8041 58.517C62.8477 58.8296 62.9386 59.1167 63.0695 59.3821H61.4046L61.4119 59.3857ZM61.012 55.8925L60.1178 56.0124C59.6998 56.0669 59.3617 56.2087 59.1036 56.4377C58.8419 56.6704 58.7147 56.9575 58.7147 57.3065C58.7147 57.6155 58.8019 57.8663 58.9764 58.0517C59.1472 58.2371 59.3581 58.3316 59.5943 58.3316C59.7834 58.3316 59.9615 58.3061 60.136 58.2552C60.3068 58.2007 60.4595 58.1026 60.5831 57.9608C60.7176 57.8154 60.8194 57.63 60.8957 57.3937C60.972 57.1575 61.0084 56.8557 61.0084 56.4813V55.8961L61.012 55.8925Z" fill="black"/>
<path d="M68.9618 59.3857H65.9884V50.0546H69.1618C69.9433 50.0546 70.5903 50.2545 71.1029 50.6507C71.6118 51.0506 71.8663 51.5668 71.8663 52.1993C71.8663 52.8318 71.7136 53.3298 71.401 53.6933C71.092 54.0568 70.7503 54.3076 70.3759 54.4421C70.9211 54.5766 71.3755 54.8201 71.7499 55.1727C72.1243 55.529 72.3097 56.0233 72.3097 56.6558C72.3097 57.481 72.0226 58.1426 71.4519 58.6442C70.8812 59.1422 70.0524 59.3894 68.9655 59.3894M67.8314 51.2178V53.9514H68.5111C69.0164 53.9514 69.3981 53.8169 69.6525 53.5442C69.9142 53.2716 70.0415 52.9117 70.0415 52.4573C70.0415 52.0866 69.9324 51.7849 69.7143 51.5595C69.4962 51.3341 69.1872 51.2178 68.7874 51.2178H67.8277H67.8314ZM67.8314 55.1109V58.2298H68.791C69.2527 58.2298 69.638 58.0953 69.9433 57.8263C70.2487 57.5537 70.405 57.1647 70.405 56.6595C70.405 56.0997 70.2232 55.6998 69.8597 55.4672C69.4926 55.2272 69.0854 55.1109 68.6347 55.1109H67.8314Z" fill="black"/>
<path d="M77.6278 59.3857C77.5769 59.3494 77.5115 59.2731 77.446 59.1495C77.3806 59.0222 77.3479 58.9023 77.3479 58.7751C77.0716 59.0695 76.7554 59.2694 76.3992 59.3748C76.0466 59.4839 75.6903 59.5348 75.345 59.5348C74.7125 59.5348 74.189 59.3421 73.771 58.9568C73.353 58.5715 73.1422 58.0444 73.1422 57.3756C73.1422 56.7612 73.3639 56.2269 73.8037 55.7689C74.2436 55.3109 74.8797 55.0346 75.7158 54.9474L77.2061 54.7765C77.2061 54.2058 77.0789 53.8169 76.8281 53.6097C76.5736 53.3988 76.2901 53.2934 75.9702 53.2934C75.5776 53.2934 75.2069 53.3806 74.8543 53.5515C74.5017 53.726 74.1818 53.9477 73.8873 54.2131L73.582 52.8645C73.9382 52.6173 74.3126 52.4283 74.7052 52.3047C75.1051 52.1775 75.5595 52.1193 76.0756 52.1193C76.3955 52.1193 76.7263 52.1629 77.068 52.2538C77.4097 52.341 77.7187 52.4901 77.9949 52.6936C78.2785 52.8972 78.5075 53.1698 78.6892 53.5006C78.8673 53.8314 78.9546 54.2422 78.9546 54.7329V57.6373C78.9546 57.9135 78.9764 58.208 79.0237 58.517C79.0673 58.8296 79.1545 59.1167 79.289 59.3821H77.6242L77.6278 59.3857ZM77.2279 55.8925L76.3337 56.0124C75.9157 56.0669 75.5813 56.2087 75.3195 56.4377C75.0615 56.6704 74.9342 56.9575 74.9342 57.3065C74.9342 57.6155 75.0215 57.8663 75.1923 58.0517C75.3668 58.2371 75.5776 58.3316 75.8139 58.3316C75.9993 58.3316 76.181 58.3061 76.3555 58.2552C76.5264 58.2007 76.6754 58.1026 76.8026 57.9608C76.9371 57.8154 77.0389 57.63 77.1153 57.3937C77.1916 57.1575 77.2279 56.8557 77.2279 56.4813V55.8925Z" fill="black"/>
<path d="M82.0007 52.2538V52.8681C82.2407 52.6282 82.5206 52.4428 82.8441 52.3156C83.1676 52.1847 83.5057 52.1229 83.851 52.1229C84.7052 52.1229 85.3777 52.3701 85.8721 52.8681C86.3664 53.3661 86.61 54.0459 86.61 54.9074V59.3857H84.8652V55.1618C84.8652 54.6202 84.7416 54.1804 84.498 53.8423C84.2545 53.5079 83.9091 53.337 83.462 53.337C83.0549 53.337 82.7096 53.5042 82.4297 53.8387C82.1462 54.1695 82.008 54.6311 82.008 55.2163V59.3894H80.2741V52.2538H82.0007Z" fill="black"/>
<path d="M87.8386 59.3857V49.6547H89.5725V54.7583L91.8408 52.2538H93.6947L90.932 55.3072L94.04 59.3857H92.0553L89.5725 56.1469V59.3857H87.8386Z" fill="black"/>
<path d="M26.65 55.7143C26.6063 55.449 26.5336 55.1873 26.4246 54.951C26.0865 54.2203 25.614 53.606 24.9088 53.1953C23.811 52.5519 22.4842 52.5591 21.3973 53.2171C20.903 53.5151 20.4995 53.9441 20.2414 54.4566C20.1505 54.6311 20.0814 54.8129 20.0233 54.9982C19.7361 55.907 19.747 57.132 20.2632 57.9608C20.4304 58.2334 20.674 58.4624 20.972 58.5788C21.2701 58.6951 21.6227 58.6805 21.8917 58.5061C22.237 58.2843 22.2988 57.859 22.2334 57.481C22.1498 56.9975 22.0916 56.5213 22.2697 56.0451C22.3243 55.8925 22.4042 55.7507 22.5242 55.638C22.5969 55.5726 22.6805 55.5144 22.7677 55.4744C22.9568 55.3799 23.1676 55.3436 23.3748 55.3727C23.7347 55.4308 24.0291 55.7107 24.189 56.0379C24.349 56.365 24.3926 56.7358 24.4071 57.0993C24.4835 58.6878 24.1054 60.3272 23.6983 61.8503C23.6583 62.0066 23.6147 62.1629 23.5711 62.3192C23.5347 62.4392 23.4766 62.5955 23.5529 62.7118C23.5856 62.7627 23.6402 62.799 23.6947 62.8208C23.9273 62.9154 24.1236 62.77 24.2799 62.6137C25.2069 61.6794 25.8066 60.4726 26.2138 59.2331C26.3664 58.7678 26.4937 58.2989 26.5845 57.8154C26.7045 57.1611 26.7736 56.4086 26.6536 55.7143" fill="#008A8B"/>
<path d="M33.3057 48.3861C33.3057 48.1462 33.0949 47.9899 32.8695 47.9972C32.6369 48.0081 32.426 48.1244 32.2152 48.2044C28.1258 49.7601 23.5129 50.0546 19.2018 49.433C18.4639 49.3276 17.7187 49.1785 16.9735 49.0622C16.5118 48.9895 16.0502 48.8841 15.5849 48.8514C15.185 48.8187 14.6907 48.8078 14.3672 49.084C13.9419 49.4512 13.9709 50.1455 14.2145 50.6071C14.5053 51.1596 15.0106 51.574 15.5376 51.8866C16.0502 52.192 16.6609 52.5191 17.2752 52.4792C18.9219 52.3737 20.5649 52.2174 22.2007 52.003C24.9924 51.6395 27.9222 51.2978 30.5431 50.2145C31.401 49.8619 32.2479 49.4185 32.9822 48.8478C33.1167 48.746 33.3057 48.5824 33.3057 48.3861Z" fill="#008A8B"/>
<path d="M21.5754 46.983C21.5754 47.8699 22.2952 48.5933 23.1858 48.5933C24.0764 48.5933 24.7925 47.8736 24.7925 46.983C24.7925 46.8485 24.7634 46.7176 24.7089 46.5977C24.5707 46.3032 24.4181 46.1651 24.429 45.8125C24.4508 45.3399 23.8437 45.3363 23.5166 45.3363C23.1603 45.3363 22.7823 45.3836 22.4624 45.5471C22.2079 45.6744 21.9862 45.8743 21.8299 46.1142C21.67 46.3614 21.5827 46.6522 21.5754 46.9466V46.983Z" fill="#E50045"/>
</svg>
