<svg width="108" height="108" viewBox="0 0 108 108" fill="none" xmlns="http://www.w3.org/2000/svg">
<rect x="22" y="22" width="64" height="64" rx="8.31769" fill="#6936D3"/>
<g clip-path="url(#clip0_801_7194)">
<path d="M36.2672 71.0499C36.3599 70.9187 36.4361 70.8026 36.5205 70.6926C39.0501 67.3971 41.233 63.8842 43.1331 60.1928C45.6454 55.312 47.64 50.2258 49.2138 44.9705C50.0321 42.2372 50.7278 39.4736 51.3075 36.6809C51.6412 35.0725 51.9111 33.4521 52.1542 31.8276C52.1931 31.567 52.2255 31.3055 52.2577 31.044C52.2724 30.9251 52.3467 30.8869 52.4514 30.8974C52.8066 30.9324 53.1616 30.9692 53.5161 31.0095C54.5644 31.1284 55.6128 31.2477 56.661 31.3699C57.6012 31.4794 58.5407 31.5941 59.4807 31.7045C59.6504 31.7244 59.8214 31.7302 59.9911 31.7502C60.1657 31.771 60.2149 31.822 60.1965 31.9887C60.1643 32.2812 60.127 32.5737 60.0767 32.8636C59.8361 34.253 59.5816 35.6395 59.2949 37.0203C58.7812 39.4941 58.1813 41.9463 57.5049 44.3808C56.6707 47.3837 55.7196 50.3487 54.6232 53.2668C54.6069 53.3103 54.5927 53.3546 54.5756 53.398C54.3384 54.0035 54.3365 53.9497 54.9271 53.9C57.4357 53.6898 59.6529 52.7873 61.5371 51.1071C62.6139 50.1468 63.4679 49.0089 64.1576 47.7459C64.5519 47.0236 64.8936 46.2768 65.1775 45.5042C65.2043 45.4315 65.2288 45.3578 65.2595 45.287C65.3038 45.1858 65.3719 45.1604 65.4821 45.2007C65.8462 45.3338 66.214 45.4567 66.5799 45.5851C68.1751 46.1449 69.77 46.7055 71.3649 47.2658C71.4673 47.3017 71.57 47.3373 71.6707 47.3779C71.7558 47.4121 71.7833 47.4839 71.7567 47.5662C71.7043 47.7282 71.6479 47.889 71.5859 48.0477C70.7261 50.2503 69.5073 52.2398 67.9926 54.0499C66.5403 55.7854 64.892 57.309 63.0076 58.5697C62.5953 58.8456 62.1652 59.095 61.7432 59.3565C61.6772 59.3973 61.6089 59.4341 61.5443 59.4773C61.4861 59.516 61.4896 59.5994 61.5488 59.6255C61.591 59.6441 61.6355 59.6581 61.6793 59.673C63.2465 60.2063 64.4799 61.1841 65.4511 62.5075C66.4018 63.8031 66.999 65.2566 67.371 66.8107C67.7129 68.2392 67.812 69.6876 67.7565 71.1513C67.6828 73.0912 67.278 74.9595 66.5571 76.7607C66.5226 76.8469 66.4888 76.9336 66.4466 77.0161C66.417 77.0739 66.3615 77.1047 66.2946 77.1049C66.2483 77.1049 66.2019 77.101 66.1553 77.0991C65.0071 77.0506 63.859 77.0047 62.7109 76.9532C61.4234 76.8954 60.1361 76.8327 58.8488 76.7712C58.7717 76.7674 58.6936 76.7632 58.6179 76.749C58.5437 76.7353 58.5188 76.6749 58.5393 76.6096C58.5764 76.4917 58.6248 76.3773 58.6677 76.261C59.136 74.9942 59.5254 73.7055 59.7753 72.3763C59.9911 71.227 60.079 70.0677 59.9907 68.9033C59.793 66.2959 58.6551 64.1949 56.5412 62.6331C55.432 61.8136 54.2144 61.2102 52.897 60.8074C52.5262 60.6941 52.1477 60.6067 51.8025 60.4214C51.7063 60.3697 51.6216 60.3928 51.5697 60.4935C51.5128 60.6037 51.4597 60.7156 51.4058 60.8275C50.4395 62.8403 49.4902 64.8615 48.464 66.8452C47.4086 68.8856 46.2856 70.8865 44.9702 72.7742C44.1973 73.8831 43.3643 74.9441 42.439 75.9312C42.3646 76.0104 42.2919 76.0915 42.2134 76.1663C42.105 76.2698 42.0551 76.2729 41.9348 76.167C41.6316 75.9006 41.3326 75.6296 41.0326 75.3597C39.4857 73.9691 37.9388 72.5784 36.3925 71.1872C36.3583 71.1564 36.3301 71.1189 36.2672 71.0494L36.2672 71.0499Z" fill="white"/>
</g>
<defs>
<clipPath id="clip0_801_7194">
<rect width="35.4994" height="46.2094" fill="white" transform="translate(36.2672 30.8953)"/>
</clipPath>
</defs>
</svg>
