<svg width="108" height="108" viewBox="0 0 108 108" fill="none" xmlns="http://www.w3.org/2000/svg">
<g clip-path="url(#clip0_801_7990)">
<path d="M77.062 42.0419C77.062 30.4279 65.691 22.2209 54.669 25.8799L30 34.0679V51.7608C30 51.9438 30.005 52.1248 30.012 52.3048L54.669 44.1209C62.503 41.5209 70.512 44.9149 74.49 51.2648C76.135 48.5458 77.062 45.3749 77.062 42.0419Z" fill="#00D200"/>
<path d="M64.853 58.958L47.81 64.615C39.217 67.467 30.359 61.252 30.012 52.305L30 52.309V70.002C30 79.239 39.043 85.766 47.81 82.856L64.853 77.199C72.142 74.78 77.062 67.963 77.062 60.283C77.062 56.923 76.109 53.85 74.49 51.265C72.345 54.811 68.979 57.589 64.854 58.958H64.853Z" fill="#008BEC"/>
<path d="M54.669 44.1209L30.012 52.3049C30.359 61.2519 39.217 67.4669 47.81 64.6149L64.853 58.9579C68.978 57.5889 72.344 54.8109 74.489 51.2649C70.51 44.9149 62.502 41.5209 54.668 44.1209H54.669Z" fill="#1A4FE3"/>
</g>
<defs>
<clipPath id="clip0_801_7990">
<rect width="47.062" height="58.555" fill="white" transform="translate(30 25)"/>
</clipPath>
</defs>
</svg>
