<svg width="108" height="108" viewBox="0 0 108 108" fill="none" xmlns="http://www.w3.org/2000/svg">
<path d="M68.0339 50.6903C66.7806 50.6903 65.7558 49.6655 65.7558 48.4047C65.7558 47.144 66.7732 46.1192 68.0339 46.1192C69.2947 46.1192 70.3121 47.144 70.3121 48.4047C70.3121 49.6655 69.2947 50.6903 68.0339 50.6903ZM73.0104 43.7969H70.3194V44.4014C69.5896 43.937 68.727 43.6715 67.798 43.6715C65.1955 43.6715 63.0796 45.7949 63.0796 48.4047C63.0796 51.0146 65.1881 53.1379 67.798 53.1379C68.727 53.1379 69.5896 52.8725 70.3194 52.4081V53.0126H73.0104V43.7969Z" fill="#333333"/>
<path d="M79.4025 43.6642C78.4735 43.6642 77.6183 43.9812 76.94 44.512V43.7895H74.249V53.0126H76.94V47.955C76.9695 46.9302 77.8026 46.1119 78.8274 46.1119C79.8522 46.1119 80.6853 46.9302 80.7148 47.9476V53.0052H83.4058V47.6822C83.4058 45.4631 81.6143 43.6642 79.4025 43.6642Z" fill="#333333"/>
<path d="M90.8005 53.0126H94.0002L89.7831 47.7486L93.3662 43.7895H90.2181L87.3575 47.0703V40H84.6665V53.0126H87.3575V50.4248L88.1169 49.5917L90.8005 53.0126Z" fill="#3C3836"/>
<path d="M25.7816 41.0469H24.0196C23.7468 41.0469 23.533 41.2681 23.533 41.5409V52.5334C23.533 52.8062 23.7542 53.02 24.0196 53.02H25.7816C26.0544 53.02 26.2682 52.7988 26.2682 52.5334V41.5335C26.2682 41.2607 26.047 41.0395 25.7816 41.0395" fill="#05C754"/>
<path d="M37.9095 41.0469H36.1475C35.8747 41.0469 35.6609 41.2681 35.6609 41.5409V48.0656L30.6402 41.2607C30.6402 41.2607 30.618 41.2238 30.6033 41.2091C30.5959 41.2017 30.5812 41.187 30.5738 41.1796C30.5738 41.1796 30.5738 41.1796 30.5664 41.1722C30.5591 41.1649 30.5517 41.1575 30.5369 41.1501C30.5369 41.1501 30.5296 41.1501 30.5222 41.1428C30.5148 41.1428 30.5074 41.128 30.4927 41.128C30.4927 41.128 30.4853 41.128 30.478 41.1206C30.4706 41.1206 30.4632 41.1133 30.4485 41.1059C30.4485 41.1059 30.4411 41.1059 30.4337 41.0985C30.4264 41.0985 30.4116 41.0911 30.4042 41.0838C30.4042 41.0838 30.3969 41.0838 30.3895 41.0838C30.3821 41.0838 30.3674 41.0764 30.36 41.0764H30.3453C30.3379 41.0764 30.3231 41.0764 30.3158 41.0764C30.3158 41.0764 30.301 41.0764 30.2936 41.0764C30.2863 41.0764 30.2789 41.0764 30.2642 41.0764C30.2568 41.0764 30.2494 41.0764 30.242 41.0764H28.4652C28.1925 41.0764 27.9786 41.2976 27.9786 41.5704V52.5629C27.9786 52.8357 28.1998 53.0495 28.4652 53.0495H30.2273C30.5001 53.0495 30.7139 52.8283 30.7139 52.5629V45.9939L35.7346 52.8062C35.7715 52.8578 35.8083 52.8947 35.8599 52.9241C35.8673 52.9241 35.8821 52.9389 35.8894 52.9463C35.8894 52.9463 35.8968 52.9463 35.9042 52.9463C35.9116 52.9463 35.9189 52.9536 35.9263 52.961C35.9337 52.961 35.941 52.961 35.9484 52.9684C35.9484 52.9684 35.9558 52.9684 35.9632 52.9684C35.9705 52.9684 35.9853 52.9684 35.9927 52.9758C35.9927 52.9758 35.9927 52.9758 36 52.9758C36.0369 52.9831 36.0811 52.9905 36.1254 52.9905H37.8874C38.1602 52.9905 38.374 52.7693 38.374 52.5039V41.5335C38.374 41.2607 38.1528 41.0395 37.8874 41.0395" fill="#05C754"/>
<path d="M21.5276 50.2626H16.7428V41.5335C16.7428 41.2607 16.5216 41.0395 16.2562 41.0395H14.4868C14.214 41.0395 14.0002 41.2607 14.0002 41.5335V52.5187C14.0002 52.6514 14.0518 52.7693 14.1329 52.8578C14.1329 52.8578 14.1329 52.8578 14.1329 52.8652C14.2214 52.9463 14.3394 52.9979 14.4721 52.9979H21.5276C21.8004 52.9979 22.0142 52.7767 22.0142 52.5039V50.7345C22.0142 50.4617 21.793 50.2405 21.5276 50.2405" fill="#05C754"/>
<path d="M47.6414 41.0469C47.9141 41.0469 48.1279 41.2681 48.1279 41.5409V43.3103C48.1279 43.5831 47.9068 43.8043 47.6414 43.8043H42.8565V45.6621H47.6414C47.9141 45.6621 48.1279 45.8833 48.1279 46.1561V47.9255C48.1279 48.1983 47.9068 48.4195 47.6414 48.4195H42.8565V50.2774H47.6414C47.9141 50.2774 48.1279 50.4986 48.1279 50.7713V52.5408C48.1279 52.8136 47.9068 53.0347 47.6414 53.0347H40.6005C40.4678 53.0347 40.3499 52.9831 40.2614 52.8947C40.2614 52.8947 40.2614 52.8947 40.2614 52.8873C40.1729 52.7988 40.1213 52.6809 40.1213 52.5481V41.5409C40.1213 41.4082 40.1729 41.2902 40.254 41.2017C40.254 41.2017 40.254 41.2017 40.2614 41.1944C40.3499 41.1059 40.4678 41.0543 40.6005 41.0543H47.6414V41.0469Z" fill="#05C754"/>
<path d="M58.4348 50.5281H55.965V48.2131H58.4348C59.0615 48.2278 59.5702 48.7365 59.5702 49.3706C59.5702 50.0046 59.0689 50.5133 58.4348 50.5281ZM55.965 43.5315H57.9114C58.538 43.5462 59.0468 44.0549 59.0468 44.689C59.0468 45.323 58.5454 45.8317 57.9114 45.8465H55.965V43.5315ZM59.1352 53.0126C60.9268 52.9168 62.3497 51.4349 62.3497 49.6139C62.3497 48.449 61.7672 47.4242 60.8825 46.8049C61.465 46.193 61.8188 45.3672 61.8188 44.453C61.8188 42.6025 60.3517 41.1059 58.5307 41.0469H53.274V53.0126H59.1426H59.1352Z" fill="#333333"/>
<path d="M15.0029 63.2458C15.0029 63.3047 15.0029 63.3711 15.0176 63.4301C15.0987 63.7471 15.3715 63.9683 15.6959 63.9683C16.1751 63.9683 16.47 63.5849 16.47 62.9656C16.47 62.4274 16.212 61.9851 15.7033 61.9851C15.3936 61.9851 15.1061 62.2136 15.025 62.5527C15.0103 62.6117 15.0029 62.6781 15.0029 62.7518V63.2458ZM14.2361 60.0461H15.0029V61.8745H15.0176C15.2019 61.5796 15.5337 61.3879 15.9908 61.3879C16.7354 61.3879 17.2663 62.0072 17.2589 62.9361C17.2589 64.0346 16.5659 64.5802 15.8802 64.5802C15.4895 64.5802 15.1356 64.4328 14.9144 64.0568H14.8997L14.8628 64.5139H14.2066C14.2214 64.3074 14.2288 63.9683 14.2288 63.6586V60.0534L14.2361 60.0461Z" fill="#808282"/>
<path d="M18.3279 61.4542L18.8735 63.0909C18.9325 63.2826 19.0062 63.5112 19.0504 63.6807H19.0726C19.1168 63.5112 19.1684 63.2826 19.2348 63.0836L19.7066 61.4542H20.525L19.7656 63.5407C19.3453 64.6834 19.0652 65.1921 18.7113 65.5018C18.4017 65.7672 18.092 65.863 17.9077 65.8925L17.7307 65.2437C17.8635 65.2142 18.0183 65.1405 18.1731 65.0299C18.3206 64.9341 18.4901 64.7571 18.6007 64.5433C18.6228 64.4844 18.6449 64.4401 18.6449 64.4033C18.6449 64.3738 18.6449 64.3295 18.6081 64.2558L17.4874 61.4542H18.3353H18.3279Z" fill="#808282"/>
<path d="M37.1207 60.5474V65.3764H36.177V63.0541H34.2232V65.3764H33.2869V60.5474H34.2232V62.4274H36.177V60.5474H37.1207Z" fill="#241F21"/>
<path d="M39.937 65.3764C39.937 65.3764 39.878 65.3175 39.8485 65.2511C39.8117 65.1848 39.7969 65.1258 39.7969 65.0594C39.6568 65.2142 39.4946 65.3175 39.3103 65.3691C39.126 65.4281 38.9491 65.4502 38.7647 65.4502C38.4404 65.4502 38.1676 65.3543 37.9538 65.1479C37.74 64.9488 37.6294 64.676 37.6294 64.3295C37.6294 64.0125 37.74 63.7324 37.9685 63.4964C38.1971 63.2605 38.5215 63.1204 38.9564 63.0762L39.7232 62.9877C39.7232 62.6928 39.6568 62.4938 39.5241 62.3832C39.3914 62.2726 39.244 62.221 39.0818 62.221C38.8827 62.221 38.691 62.2652 38.5067 62.3537C38.3298 62.4422 38.1602 62.5601 38.0127 62.6928L37.8505 61.9924C38.0349 61.8671 38.2266 61.7639 38.433 61.7049C38.6394 61.6385 38.868 61.6091 39.1408 61.6091C39.3029 61.6091 39.4725 61.6312 39.6568 61.6754C39.8338 61.7196 39.9886 61.8007 40.1361 61.904C40.2835 62.0072 40.4015 62.1473 40.4899 62.3242C40.5784 62.4938 40.63 62.7076 40.63 62.9582V64.4622C40.63 64.6023 40.6448 64.7571 40.6669 64.9193C40.689 65.0815 40.7406 65.229 40.807 65.3691H39.9517L39.937 65.3764ZM39.7306 63.5702L39.2661 63.6291C39.0523 63.6586 38.8753 63.7324 38.7426 63.8503C38.6099 63.9683 38.5436 64.1157 38.5436 64.3C38.5436 64.4622 38.5878 64.5876 38.6763 64.6834C38.7648 64.7793 38.868 64.8309 38.9933 64.8309C39.0891 64.8309 39.185 64.8161 39.2735 64.794C39.3619 64.7645 39.4357 64.7129 39.502 64.6392C39.5684 64.5655 39.6273 64.4696 39.6642 64.3443C39.7011 64.2263 39.7232 64.0641 39.7232 63.8724V63.5702H39.7306Z" fill="#241F21"/>
<path d="M42.1856 61.6828V61.9998C42.311 61.8745 42.451 61.7786 42.6206 61.7123C42.7902 61.6459 42.9598 61.6091 43.1367 61.6091C43.5791 61.6091 43.9256 61.7344 44.1762 61.9924C44.4343 62.2505 44.5596 62.6044 44.5596 63.0467V65.3617H43.6602V63.172C43.6602 62.8919 43.5938 62.6633 43.4685 62.4864C43.3431 62.3094 43.1662 62.2283 42.9376 62.2283C42.7238 62.2283 42.5469 62.3168 42.4068 62.4864C42.2594 62.656 42.1856 62.8993 42.1856 63.2015V65.3617H41.2936V61.6754H42.1783L42.1856 61.6828Z" fill="#241F21"/>
<path d="M47.3538 65.3764C47.3538 65.3764 47.2948 65.3175 47.2654 65.2511C47.2285 65.1848 47.2137 65.1258 47.2137 65.0594C47.0737 65.2142 46.9115 65.3175 46.7271 65.3691C46.5428 65.4281 46.3659 65.4502 46.1816 65.4502C45.8572 65.4502 45.5844 65.3543 45.3706 65.1479C45.1568 64.9488 45.0536 64.676 45.0536 64.3295C45.0536 64.0125 45.1642 63.7324 45.3927 63.4964C45.6213 63.2605 45.9457 63.1204 46.3806 63.0762L47.1474 62.9877C47.1474 62.6928 47.081 62.4938 46.9557 62.3832C46.823 62.2726 46.6755 62.221 46.5133 62.221C46.3143 62.221 46.1226 62.2652 45.9383 62.3537C45.7613 62.4422 45.5918 62.5601 45.4443 62.6928L45.2895 61.9924C45.4738 61.8671 45.6655 61.7639 45.8719 61.7049C46.0784 61.6385 46.3143 61.6091 46.5797 61.6091C46.7419 61.6091 46.9115 61.6312 47.0884 61.6754C47.2654 61.7196 47.4275 61.8007 47.5676 61.904C47.7151 62.0072 47.833 62.1473 47.9289 62.3242C48.0174 62.4938 48.069 62.7076 48.069 62.9582V64.4622C48.069 64.6023 48.0837 64.7571 48.1058 64.9193C48.1279 65.0815 48.1722 65.229 48.2459 65.3691H47.3833L47.3538 65.3764ZM47.1474 63.5702L46.6903 63.6291C46.4765 63.6586 46.2995 63.7324 46.1668 63.8503C46.0341 63.9683 45.9678 64.1157 45.9678 64.3C45.9678 64.4622 46.012 64.5876 46.1005 64.6834C46.189 64.7793 46.2995 64.8309 46.4175 64.8309C46.5133 64.8309 46.6092 64.8161 46.6977 64.794C46.7861 64.7645 46.8599 64.7129 46.9262 64.6392C46.9926 64.5655 47.0442 64.4696 47.0884 64.3443C47.1253 64.2263 47.1474 64.0641 47.1474 63.8724V63.5702Z" fill="#241F21"/>
<path d="M51.2465 65.3764H49.713V60.5474H51.3498C51.7479 60.5474 52.087 60.6506 52.3524 60.857C52.6178 61.0635 52.7432 61.3289 52.7432 61.6607C52.7432 61.9924 52.6621 62.2431 52.5073 62.4348C52.3451 62.6265 52.1681 62.7518 51.9764 62.8182C52.2566 62.8845 52.4925 63.0098 52.6842 63.1942C52.8759 63.3785 52.9717 63.6365 52.9717 63.9609C52.9717 64.3885 52.8243 64.7277 52.5294 64.9857C52.2345 65.2437 51.8069 65.3691 51.2465 65.3691M50.6641 61.1446V62.5601H51.018C51.276 62.5601 51.4751 62.4864 51.6078 62.3463C51.7405 62.2062 51.8069 62.0145 51.8069 61.786C51.8069 61.5943 51.7479 61.4395 51.6373 61.3215C51.5267 61.2036 51.3645 61.1446 51.1581 61.1446H50.6641ZM50.6641 63.1573V64.7719H51.1581C51.394 64.7719 51.5931 64.7055 51.7479 64.5655C51.9027 64.4254 51.9838 64.2263 51.9838 63.9609C51.9838 63.6734 51.888 63.4669 51.7036 63.3416C51.512 63.2163 51.3055 63.1573 51.0696 63.1573H50.6567H50.6641Z" fill="#241F21"/>
<path d="M55.7143 65.3764C55.7143 65.3764 55.6554 65.3175 55.6185 65.2511C55.5816 65.1848 55.5669 65.1258 55.5669 65.0594C55.4268 65.2142 55.2646 65.3175 55.0803 65.3691C54.896 65.4281 54.719 65.4502 54.5347 65.4502C54.2103 65.4502 53.9375 65.3543 53.7237 65.1479C53.5099 64.9488 53.3993 64.676 53.3993 64.3295C53.3993 64.0125 53.5173 63.7324 53.7385 63.4964C53.967 63.2605 54.2914 63.1204 54.7264 63.0762L55.4932 62.9877C55.4932 62.6928 55.4268 62.4938 55.2941 62.3832C55.1688 62.2726 55.0139 62.221 54.8517 62.221C54.6527 62.221 54.461 62.2652 54.2767 62.3537C54.0924 62.4422 53.9302 62.5601 53.7827 62.6928L53.6279 61.9924C53.8122 61.8671 54.0039 61.7639 54.2103 61.7049C54.4168 61.6385 54.6527 61.6091 54.9181 61.6091C55.0803 61.6091 55.2499 61.6312 55.4268 61.6754C55.6037 61.7196 55.7586 61.8007 55.906 61.904C56.0535 62.0072 56.1714 62.1473 56.2599 62.3242C56.3484 62.4938 56.3926 62.7076 56.3926 62.9582V64.4622C56.3926 64.6023 56.4074 64.7571 56.4295 64.9193C56.4516 65.0815 56.4958 65.229 56.5622 65.3691H55.707L55.7143 65.3764ZM55.5079 63.5702L55.0508 63.6291C54.837 63.6586 54.6601 63.7324 54.5274 63.8503C54.3946 63.9683 54.3283 64.1157 54.3283 64.3C54.3283 64.4622 54.3725 64.5876 54.461 64.6834C54.5495 64.7793 54.6601 64.8309 54.778 64.8309C54.8739 64.8309 54.9697 64.8161 55.0582 64.794C55.1466 64.7645 55.2278 64.7129 55.2867 64.6392C55.3531 64.5655 55.4121 64.4696 55.4489 64.3443C55.4858 64.2263 55.5079 64.0641 55.5079 63.8724V63.5702Z" fill="#241F21"/>
<path d="M57.963 61.6828V61.9998C58.0883 61.8745 58.2284 61.7786 58.398 61.7123C58.5675 61.6459 58.7371 61.6091 58.9214 61.6091C59.3638 61.6091 59.7103 61.7344 59.961 61.9924C60.219 62.2505 60.3443 62.6044 60.3443 63.0467V65.3617H59.4449V63.172C59.4449 62.8919 59.3785 62.6633 59.2532 62.4864C59.1279 62.3094 58.9509 62.2283 58.7224 62.2283C58.5086 62.2283 58.339 62.3168 58.1915 62.4864C58.0441 62.656 57.9777 62.8993 57.9777 63.2015V65.3617H57.0856V61.6754H57.9704L57.963 61.6828Z" fill="#241F21"/>
<path d="M60.971 65.3764V60.341H61.8705V62.9804L63.0353 61.6828H63.9938L62.5709 63.2679L64.1707 65.3764H63.1459L61.8705 63.7029V65.3764H60.971Z" fill="#241F21"/>
<path d="M29.4384 63.4743C29.4163 63.3342 29.3794 63.2015 29.3205 63.0762C29.1435 62.7002 28.9076 62.3832 28.539 62.1694C27.9713 61.8376 27.2856 61.8376 26.7253 62.1841C26.4746 62.3389 26.2608 62.5601 26.1281 62.8255C26.0839 62.914 26.047 63.0098 26.0175 63.1057C25.8701 63.5775 25.8775 64.2116 26.1429 64.6392C26.2313 64.7793 26.3567 64.8972 26.5041 64.9562C26.659 65.0152 26.8433 65.0078 26.976 64.9193C27.1529 64.8014 27.1824 64.5876 27.1529 64.3885C27.1087 64.1379 27.0792 63.8946 27.1677 63.6439C27.1972 63.5628 27.2414 63.4891 27.3004 63.4301C27.3372 63.3932 27.3815 63.3637 27.4257 63.3416C27.5215 63.29 27.6321 63.2753 27.7354 63.29C27.9197 63.3195 28.0745 63.4669 28.1556 63.6365C28.2367 63.8061 28.2588 63.9978 28.2662 64.1821C28.303 65.0004 28.1114 65.8483 27.8976 66.6372C27.8754 66.7183 27.8533 66.7994 27.8312 66.8805C27.8165 66.9394 27.7796 67.0205 27.8238 67.0795C27.8386 67.109 27.8681 67.1237 27.8976 67.1385C28.0155 67.1901 28.1187 67.1164 28.1998 67.0279C28.679 66.5413 28.9887 65.922 29.1951 65.2806C29.2762 65.0373 29.3426 64.8014 29.3868 64.5507C29.4458 64.2116 29.4827 63.8208 29.4237 63.4669" fill="#008375"/>
<path d="M32.874 59.6848C32.874 59.5595 32.7635 59.4784 32.6529 59.4857C32.5349 59.4857 32.4243 59.5521 32.3137 59.589C30.2052 60.3926 27.8312 60.5474 25.6047 60.223C25.2287 60.164 24.8379 60.0903 24.4545 60.0313C24.2186 59.9945 23.9827 59.9428 23.7394 59.9207C23.533 59.906 23.2749 59.8986 23.1127 60.0387C22.8916 60.2304 22.9063 60.5843 23.0316 60.8276C23.1791 61.1151 23.4445 61.3289 23.7099 61.4911C23.9753 61.6533 24.2924 61.8229 24.602 61.8007C25.4498 61.7418 26.2977 61.6607 27.1382 61.5501C28.5758 61.3658 30.0872 61.1888 31.4364 60.6211C31.8787 60.4368 32.3137 60.2083 32.6897 59.9134C32.7635 59.8617 32.8593 59.7733 32.8593 59.6774" fill="#008375"/>
<path d="M26.8285 58.9623C26.8285 59.4194 27.1972 59.7954 27.6543 59.7954C28.1114 59.7954 28.48 59.4194 28.48 58.9623C28.48 58.8959 28.4652 58.8222 28.4357 58.7632C28.362 58.6084 28.2883 58.5421 28.2883 58.3577C28.2957 58.1144 27.986 58.1071 27.8164 58.1071C27.6321 58.1071 27.4404 58.1292 27.2709 58.2177C27.1382 58.284 27.0276 58.3872 26.9465 58.5126C26.8654 58.6379 26.8211 58.7927 26.8138 58.9402V58.9623" fill="#D50037"/>
</svg>
