<svg width="108" height="108" viewBox="0 0 108 108" fill="none" xmlns="http://www.w3.org/2000/svg">
<g clip-path="url(#clip0_801_7236)">
<path fill-rule="evenodd" clip-rule="evenodd" d="M40.5979 69.8039C39.936 69.8039 39.5949 69.6776 39.1207 69.3228C38.1245 68.5791 38.2235 67.4926 38.2235 66.2439C38.2235 65.809 38.2866 65.5019 38.3957 65.1642C38.5015 64.8384 38.6328 64.6098 38.8273 64.3454L39.0525 64.122C39.0576 64.1186 39.0644 64.1117 39.0695 64.1066L39.136 64.0452C40.1049 63.2077 41.6776 63.3868 42.3753 64.4017C42.9467 65.2341 43.003 65.8056 43.003 66.8529C43.003 68.2857 42.2081 69.8039 40.5979 69.8039ZM38.0631 63.1326L37.9659 61.9778C37.6554 61.9778 37.3467 61.9778 37.0362 61.9778C36.8606 61.9778 36.2277 61.8994 36.151 62.0256C36.1424 62.0392 36.2021 63.6017 36.2021 63.8064V74.551C36.2004 74.7079 36.151 74.9365 36.2977 74.9365H38.2235V70.4776L38.3565 70.568C38.4913 70.6926 38.5527 70.7693 38.7181 70.8802C39.8661 71.641 41.3876 71.6921 42.6192 71.0883C43.1087 70.8478 43.5284 70.5186 43.8797 70.1024C44.5484 69.3126 44.7122 68.8196 44.9424 67.8303C45.1386 66.9911 45.0925 65.7117 44.8606 64.8998C44.6678 64.2226 44.4409 63.7672 44.0111 63.2145C43.8593 63.0166 43.4704 62.6329 43.2418 62.4776C43.1326 62.4026 43.0371 62.3548 42.9211 62.2849C41.6947 61.5395 39.7126 61.6742 38.5851 62.6277L38.0631 63.1326Z" fill="#092139"/>
<path fill-rule="evenodd" clip-rule="evenodd" d="M49.8055 63.3884C50.4162 63.3884 50.7215 63.4226 51.2077 63.7825C51.3305 63.8712 51.3646 63.9223 51.4601 64.0435C51.9548 64.6797 51.8678 65.0618 51.9872 65.5701H47.7194C47.7962 64.6609 48.6371 63.3884 49.8055 63.3884ZM50.2542 71.5044C51.467 71.5044 52.7002 71.2503 53.4951 70.8307L53.2051 69.6759C53.1829 69.5855 53.142 69.3569 53.1096 69.2904L52.2618 69.5974C52.1322 69.6332 52.064 69.6622 51.936 69.6895L50.5117 69.8362C49.9249 69.8362 49.1267 69.6418 48.6712 69.2682C48.4733 69.1061 48.516 69.2153 48.3198 68.9475C48.0281 68.5501 47.8559 68.3027 47.7484 67.7552C47.7177 67.6034 47.6546 67.3066 47.6546 67.1411H53.8789C53.8789 66.5458 54.0887 66.672 53.8891 65.304C53.7765 64.5279 53.5019 63.7842 53.0414 63.1684C52.8418 62.9023 52.562 62.626 52.2891 62.4452C51.2486 61.7594 49.9881 61.6537 48.7838 61.9829C48.5518 62.046 48.1783 62.2166 47.977 62.3309C47.8644 62.3974 47.7552 62.4622 47.6461 62.5458C47.5301 62.6328 47.426 62.6993 47.3168 62.7948L47.1667 62.933C46.9825 63.1019 46.6107 63.5795 46.4844 63.791L46.2303 64.2737C46.1945 64.359 46.1723 64.388 46.1382 64.4699C45.9113 65.0021 45.7288 65.7833 45.7305 66.3735C45.7322 66.5748 45.6776 66.6976 45.7032 66.9125C45.7953 67.7023 45.7134 67.5846 45.9232 68.3931C46.2047 69.478 46.9484 70.4247 47.919 70.9518C48.5723 71.3083 49.4866 71.5044 50.2542 71.5044Z" fill="#092139"/>
<path fill-rule="evenodd" clip-rule="evenodd" d="M25.1335 66.7574H25.4217V68.2005C25.4217 68.7071 25.1164 69.0772 24.7889 69.3962C24.6661 69.5156 24.3693 69.6657 24.2021 69.7408C23.8405 69.9045 23.2674 69.9523 22.8819 69.809L22.5475 69.6299C21.9727 69.1608 21.9659 68.2295 22.3548 67.6683C22.8358 66.974 24.2499 66.7574 25.1335 66.7574ZM20.6422 62.6824C20.6883 62.8819 21.1113 64.0163 21.1232 64.1595C21.2836 64.1459 21.3672 64.0077 21.5991 63.8986C22.4623 63.4892 22.7369 63.4209 23.8183 63.4209C24.893 63.4209 25.3893 64.1612 25.3893 65.2171L24.2107 65.2905C23.7075 65.3536 23.3493 65.4116 22.8802 65.531C21.7458 65.8226 20.6149 66.5203 20.2362 67.6666C19.9855 68.4273 19.9923 69.1983 20.3215 69.9318C20.8998 71.2248 22.4503 71.7365 23.7859 71.4073C25.1454 71.073 25.4064 70.5015 25.6145 70.4452L25.71 71.3118C25.9284 71.3118 27.4516 71.3391 27.5249 71.2964C27.6 71.2521 27.5574 71.2128 27.5198 70.945C27.5011 70.8018 27.4789 70.638 27.4755 70.5101L27.4345 69.6197C27.3322 68.8777 27.4772 65.5873 27.3987 65.0687C27.3578 64.8077 27.3305 64.5126 27.2691 64.2687L27.0217 63.5847C26.8375 63.1753 26.5851 62.829 26.2337 62.5442C26.0512 62.3958 25.8891 62.29 25.6674 62.1809C24.9015 61.7988 24.2738 61.8175 23.4652 61.8175C22.8 61.8175 21.867 62.087 21.2409 62.3531L20.6422 62.6824Z" fill="#092139"/>
<path fill-rule="evenodd" clip-rule="evenodd" d="M57.055 63.0678C57.0533 62.928 57.0311 62.9553 57.0243 62.812C57.009 62.5425 57.0397 62.3224 56.9595 61.9779H55.1309C55.1309 62.3258 55.2298 63.2435 55.2281 63.6768L55.2264 71.3118H57.1522C57.304 71.3118 57.2478 71.0627 57.2478 70.7983C57.2478 69.8226 57.2102 65.7066 57.2785 65.3126C57.3825 64.7275 57.7748 64.1664 58.2559 63.8508C59.0678 63.3203 60.4733 63.4329 60.9117 64.5058C61.1966 65.2035 61.1625 65.664 61.1625 66.6278L61.1591 71.09C61.1591 71.2094 61.1352 71.3118 61.258 71.3118H63.1838V65.4098C63.1838 64.8947 63.1104 64.7173 63.02 64.3216C62.8051 63.3698 62.2354 62.6568 61.3859 62.1706C61.1539 62.0393 60.748 61.9062 60.4802 61.8636C59.38 61.6879 58.394 61.9403 57.5497 62.6005C57.362 62.7472 57.2478 62.9399 57.055 63.0678Z" fill="#092139"/>
<path fill-rule="evenodd" clip-rule="evenodd" d="M28.9185 64.3506C28.9185 64.7651 28.9134 65.1915 29.1181 65.5633C29.4866 66.2371 29.971 66.6601 30.6618 67.003C30.887 67.1156 31.1122 67.2196 31.3527 67.3049C31.6921 67.426 32.2243 67.6444 32.5058 67.8866C32.5177 67.8968 32.5655 67.9378 32.574 67.9463L32.6354 68.0128C33.3382 68.7753 32.7446 69.8687 31.6136 69.8687C31.0456 69.8687 30.6499 69.8226 30.1245 69.6265C29.9471 69.5599 29.7731 69.4968 29.623 69.4201C29.5019 69.3587 29.2665 69.1949 29.1437 69.1625L28.6303 70.7659C28.8145 70.8154 29.6964 71.5045 31.3885 71.5045C32.6627 71.5045 34.0188 70.9979 34.5339 69.9966C34.9126 69.2614 35.0303 68.3898 34.713 67.6034C34.6687 67.4943 34.6107 67.3834 34.5561 67.2793C34.5066 67.1906 34.5066 67.2043 34.452 67.1275C34.2883 66.8921 34.0751 66.6482 33.8414 66.4862C33.3416 66.1433 33.1249 66.0341 32.5399 65.7987C32.3045 65.7049 32.0657 65.606 31.8388 65.5054C31.7859 65.4815 31.7501 65.461 31.6921 65.4286C31.3271 65.2239 30.8751 64.9919 30.8751 64.4478C30.8751 63.8047 31.4141 63.4209 31.9667 63.4209C32.5484 63.4209 32.7736 63.4414 33.304 63.6239C33.4303 63.6683 33.5616 63.7484 33.693 63.8115C33.8107 63.8661 33.9539 63.9958 34.0836 64.0299L34.4657 62.8717C34.522 62.7164 34.5561 62.6346 34.597 62.4589C33.5241 61.8909 33.2751 61.8175 31.9019 61.8175C31.3612 61.8175 30.6294 62.0563 30.1996 62.3275C30.1569 62.3531 30.1399 62.3702 30.087 62.4077C29.9864 62.4759 29.9744 62.4862 29.8891 62.5612C29.5087 62.8938 29.2034 63.264 29.0431 63.7689C29.0226 63.8337 28.9185 64.2806 28.9185 64.3506Z" fill="#092139"/>
<path fill-rule="evenodd" clip-rule="evenodd" d="M15.38 60.3744V61.9778H14V63.6136H15.38V68.5535C15.38 70.1791 16.0998 71.5045 17.9778 71.5045C18.29 71.5045 18.5544 71.4772 18.8256 71.4209C19.3254 71.3202 19.3527 71.2691 19.5829 71.2162C19.5829 70.6431 19.5181 70.1637 19.5181 69.5787C19.3271 69.5838 18.0358 70.0767 17.5855 69.362C17.4661 69.171 17.3689 68.7616 17.3689 68.4563V63.6136H19.6785V61.9778H17.3689V59.7961L16.3744 60.0844C16.2021 60.1322 16.0674 60.1799 15.8814 60.2345L15.38 60.3744Z" fill="#092139"/>
<path d="M73.3603 47.0815H76.1493V56.6729H73.3603V47.0815ZM66.4964 56.6729V50.0597C66.4964 49.519 66.4861 48.9987 66.4674 48.499C66.4486 48.0026 66.423 47.5318 66.3855 47.0815H68.9424L69.0431 48.7992C69.2853 48.209 69.6742 47.7638 70.2064 47.4619C70.7335 47.1582 71.397 47.0098 72.1868 47.0098H72.2687L72.2601 49.5275C72.0913 49.5156 71.9667 49.5054 71.8832 49.4985C71.7979 49.4934 71.7211 49.49 71.6546 49.49C70.9262 49.49 70.3548 49.6674 69.9454 50.0222C69.5309 50.3753 69.3228 50.8683 69.3228 51.496V56.6729H66.4964ZM62.2797 47.0815H65.0687V56.6729H62.2797V47.0815ZM57.7595 56.6729L57.6674 55.3032C57.3228 55.8201 56.91 56.2073 56.4256 56.47C55.9412 56.7309 55.3936 56.8606 54.7829 56.8606C53.6213 56.8606 52.678 56.4051 51.9514 55.4943C51.2299 54.5834 50.8665 53.3774 50.8665 51.8815C50.8665 50.3753 51.2196 49.1676 51.9292 48.2636C52.6405 47.3595 53.5787 46.9075 54.7471 46.9075C55.3817 46.9075 55.9343 47.032 56.4068 47.2759C56.881 47.5216 57.2887 47.8985 57.6299 48.4V42.9143H60.4V54.7437C60.4 55.2282 60.4051 55.6222 60.4222 55.9224C60.4375 56.2243 60.4631 56.4751 60.4921 56.6729H57.7595ZM53.693 51.8968C53.693 52.8862 53.8652 53.6538 54.2064 54.1996C54.5475 54.7437 55.0269 55.0149 55.6426 55.0149C56.2687 55.0149 56.7702 54.7369 57.1352 54.1791C57.5019 53.623 57.6861 52.8623 57.6861 51.8968C57.6861 50.928 57.5019 50.1621 57.1352 49.6043C56.7702 49.0448 56.2687 48.7633 55.6426 48.7633C55.0269 48.7633 54.5475 49.038 54.2064 49.5889C53.8652 50.1399 53.693 50.9092 53.693 51.8968ZM40.5126 56.6729V48.922C40.5126 48.6491 40.5058 48.3625 40.4904 48.0623C40.4733 47.7638 40.4478 47.4363 40.4205 47.0815H43.0746L43.1326 48.5211C43.4925 47.9429 43.9224 47.5181 44.4154 47.2503C44.91 46.9842 45.5139 46.8495 46.2303 46.8495C47.2878 46.8495 48.0708 47.1497 48.5842 47.7518C49.0959 48.3488 49.3535 49.2665 49.3535 50.4981V56.6729H46.6124V50.8819C46.6124 50.1638 46.4878 49.652 46.2439 49.3399C45.9983 49.0312 45.6009 48.8759 45.0465 48.8759C44.5109 48.8759 44.0776 49.0465 43.7535 49.3945C43.426 49.7373 43.2623 50.1962 43.2623 50.7693V56.6729H40.5126ZM14.0733 56.6729V48.922C14.0733 48.5791 14.0665 48.2567 14.0546 47.9548C14.0409 47.6529 14.0222 47.3629 14 47.0815H16.6388L16.7122 48.5211C17.0721 47.9429 17.5002 47.5181 17.9966 47.2503C18.4896 46.9842 19.0951 46.8495 19.8081 46.8495C20.5313 46.8495 21.1386 47.0098 21.6384 47.3305C22.1348 47.6529 22.4981 48.1169 22.7284 48.7258C23.0388 48.0793 23.4465 47.6051 23.9497 47.3015C24.4529 46.9996 25.0908 46.8495 25.8635 46.8495C26.9211 46.8495 27.7075 47.1497 28.2226 47.7518C28.7394 48.3488 28.997 49.2665 28.997 50.4981V56.6729H26.2269V50.8819C26.2269 50.1638 26.1023 49.652 25.8567 49.3399C25.6128 49.0312 25.2136 48.8759 24.661 48.8759C24.1254 48.8759 23.6955 49.0465 23.3765 49.3945C23.0559 49.7373 22.8972 50.1962 22.8972 50.7693V56.6729H20.1271V50.8819C20.1271 50.1706 20.006 49.6606 19.7638 49.3467C19.5215 49.0312 19.1292 48.8759 18.5885 48.8759C18.0529 48.8759 17.6299 49.0465 17.3143 49.3877C17.0004 49.7322 16.8435 50.1894 16.8435 50.7693V56.6729H14.0733ZM36.4921 55.6717C35.9326 56.1595 34.8392 56.6832 34.0887 56.852C33.8004 56.9186 33.4866 56.951 33.1454 56.951C32.3403 56.951 31.6665 56.6678 31.1224 56.1015C30.5783 55.5335 30.3087 54.8103 30.3087 53.9301C30.3087 53.2256 30.4469 52.6508 30.7232 52.2056C31.0013 51.757 31.3919 51.4056 31.9002 51.148C32.4017 50.8938 33.0277 50.7079 33.7714 50.6004C34.5168 50.4913 35.2878 50.4094 36.0861 50.3599V50.3071C36.0861 48.0145 32.8162 48.2994 31.4175 49.2802L30.933 47.4721C32.0264 46.9604 33.1011 46.6994 34.4384 46.6994C36.7838 46.6994 38.7642 47.8235 38.7642 50.51V56.6934H36.4921V55.6717ZM36.2721 53.8004V51.9514C35.849 51.9923 35.3885 52.0452 34.8938 52.1135C34.4009 52.1851 34.0256 52.2653 33.7697 52.3574C33.4576 52.4683 33.2171 52.6354 33.0533 52.8486C32.8861 53.0653 32.8026 53.345 32.8026 53.6981C32.8026 56.1271 35.6392 55.339 36.2721 53.8004Z" fill="#053364"/>
<path fill-rule="evenodd" clip-rule="evenodd" d="M44.9595 40.9732C45.8141 41.9301 47.4072 44.5228 49.2921 44.3625C53.7083 43.9872 56.2226 39.2111 61.6759 39.5523C63.9156 39.6921 64.9697 43.4482 67.1923 43.7723C70.6925 44.2823 74.0461 38.899 79.7518 39.2077C82.0972 39.3356 83.0678 43.2759 85.4047 43.5045C87.5846 43.716 90.9996 40.6252 94 39.0235C93.2358 37.7373 91.8166 35.7279 90.3053 35.6256C87.3288 35.426 84.9493 39.2282 82.3326 38.5629C80.8094 38.1774 79.0746 33.9932 76.5655 34.0017C71.9207 34.0171 68.7156 38.6158 64.6098 38.9791C62.2797 39.1855 61.1591 34.0017 58.0392 34.4793C53.768 35.1309 49.4047 38.6499 44.9595 40.9732Z" fill="url(#paint0_linear_801_7236)"/>
</g>
<defs>
<linearGradient id="paint0_linear_801_7236" x1="48.0554" y1="48.1254" x2="90.9041" y2="30.3923" gradientUnits="userSpaceOnUse">
<stop stop-color="#F6AD02"/>
<stop offset="0.2" stop-color="#FFF000"/>
<stop offset="0.411765" stop-color="#F6AD02"/>
<stop offset="0.658824" stop-color="#FFF000"/>
<stop offset="0.788235" stop-color="#F6AD02"/>
<stop offset="1" stop-color="#FFF000"/>
</linearGradient>
<clipPath id="clip0_801_7236">
<rect width="80" height="40.9382" fill="white" transform="translate(14 34)"/>
</clipPath>
</defs>
</svg>
