<svg width="108" height="108" viewBox="0 0 108 108" fill="none" xmlns="http://www.w3.org/2000/svg">
<path fill-rule="evenodd" clip-rule="evenodd" d="M23.1771 79.3997L26.189 71.162L27.174 79.3997H30.3559L28.6326 67.3009H24.7495L22.1779 74.569L19.6069 67.3009H15.7239L14 79.3997H17.1825L18.1669 71.162L21.1793 79.3997H23.1771Z" fill="#231F20"/>
<path fill-rule="evenodd" clip-rule="evenodd" d="M83.5732 66.3033V79.3891H86.8695V74.8328L90.2499 79.3891H94L90.279 74.5788L93.668 70.4023H89.8808L86.8695 74.3316V66.3033H83.5732Z" fill="#231F20"/>
<path fill-rule="evenodd" clip-rule="evenodd" d="M47.8861 70.4023L45.7282 76.6946L43.5393 70.4023H39.9036L43.995 79.3996L42.3744 82.9292H45.8982L51.5231 70.4023H47.8861Z" fill="#231F20"/>
<path fill-rule="evenodd" clip-rule="evenodd" d="M55.4064 77.3128V72.58C56.0742 72.3545 58.4931 71.7492 58.4931 74.8241C58.4931 77.9578 56.0117 77.477 55.4064 77.3128V77.3128ZM52.0532 78.9361C52.0532 78.9361 53.7963 79.5891 56.2399 79.5891C58.6829 79.5891 61.8648 78.8289 61.8648 74.6165C61.8648 70.4023 57.6416 70.2505 57.1488 70.2505C56.2189 70.2505 55.6247 70.5039 55.4064 70.616V66.2834H52.0532V78.9361Z" fill="#231F20"/>
<path fill-rule="evenodd" clip-rule="evenodd" d="M65.3508 76.6274C65.3508 75.3344 67.8031 75.2421 68.4771 75.2414V77.5443C67.7753 77.6286 65.3508 77.8287 65.3508 76.6274V76.6274ZM63.6647 72.6802C68.4758 71.2564 68.4771 72.9658 68.4771 73.1925V73.498C64.5829 73.5308 62.2629 74.6454 62.2629 76.6658C62.2629 78.7153 64.4227 79.6075 67.2831 79.6075C70.1435 79.6075 71.6015 78.9427 71.6015 78.9427V73.3443C71.6015 71.3704 70.3327 70.1177 67.2831 70.1177C64.2329 70.1177 62.9078 70.8395 62.9078 70.8395L63.6647 72.6802Z" fill="#231F20"/>
<path fill-rule="evenodd" clip-rule="evenodd" d="M33.8701 76.6274C33.8701 75.3344 36.3224 75.2421 36.9951 75.2414V77.5443C36.294 77.6286 33.8701 77.8287 33.8701 76.6274V76.6274ZM32.184 72.6802C36.9951 71.2564 36.9951 72.9658 36.9951 73.1925V73.498C33.1022 73.5308 30.7822 74.6454 30.7822 76.6658C30.7822 78.7153 32.942 79.6075 35.8018 79.6075C38.6621 79.6075 40.1208 78.9427 40.1208 78.9427V73.3443C40.1208 71.3704 38.852 70.1177 35.8018 70.1177C32.7522 70.1177 31.4265 70.8395 31.4265 70.8395L32.184 72.6802Z" fill="#231F20"/>
<path fill-rule="evenodd" clip-rule="evenodd" d="M79.0077 79.3802H82.3225V73.6865C82.3225 70.7256 80.2017 70.0986 77.5868 70.0986C74.9738 70.0986 72.8708 70.8198 72.8708 70.8198V79.3802H76.1863V72.5725C78.735 71.826 79.0077 73.0527 79.0077 73.6481V79.3802Z" fill="#231F20"/>
<mask id="mask0_801_7626" style="mask-type:luminance" maskUnits="userSpaceOnUse" x="35" y="26" width="36" height="35">
<path fill-rule="evenodd" clip-rule="evenodd" d="M35.9385 26H70.7819V60.9142H35.9385V26Z" fill="white"/>
</mask>
<g mask="url(#mask0_801_7626)">
<path fill-rule="evenodd" clip-rule="evenodd" d="M53.3597 25.9998C43.7544 25.9998 35.9383 33.8326 35.9383 43.456C35.9383 53.0815 43.7544 60.9143 53.3597 60.9143C62.967 60.9143 70.7821 53.0815 70.7821 43.456C70.7821 33.8326 62.967 25.9998 53.3597 25.9998" fill="#FFC600"/>
<path fill-rule="evenodd" clip-rule="evenodd" d="M53.3597 25.9998C43.7544 25.9998 35.9383 33.8326 35.9383 43.456C35.9383 53.0815 43.7544 60.9143 53.3597 60.9143C62.967 60.9143 70.7821 53.0815 70.7821 43.456C70.7821 33.8326 62.967 25.9998 53.3597 25.9998M53.3595 27.4576C62.1767 27.4576 69.3258 34.6188 69.3258 43.4558C69.3258 52.2917 62.1767 59.454 53.3595 59.454C44.5434 59.454 37.3954 52.2917 37.3954 43.4558C37.3954 34.6188 44.5434 27.4576 53.3595 27.4576" fill="#231F20"/>
</g>
<path fill-rule="evenodd" clip-rule="evenodd" d="M45.8573 37.3441C45.8573 37.3441 46.2267 35.8893 46.8167 35.3969C47.4077 34.9034 49.5309 33.4979 52.5974 32.512C52.9625 32.394 53.3865 32.5292 53.4058 32.5356C53.3854 32.6568 53.3736 32.7394 53.3683 32.7663C53.3276 32.9969 53.1552 33.1439 53.1552 33.1439C53.7784 33.2265 54.1884 32.7834 54.303 32.2728C54.4186 31.7653 54.8116 29.7462 55.4519 29.7763C57.2389 29.8578 58.5184 35.6436 58.3877 35.9054C58.301 36.0771 57.5997 35.9376 57.5997 35.9376C58.7143 37.696 60.1737 37.6788 60.5024 37.4009C60.83 37.1231 60.6501 36.2176 60.6501 36.2176C64.1599 38.3053 63.9629 40.7868 63.9629 40.7868C65.0122 36.6789 62.5859 34.9195 62.5859 34.9195C63.5367 34.8862 64.57 35.4945 64.57 35.4945C63.0935 33.5065 60.043 32.4047 60.043 32.4047C60.043 32.4047 56.4851 28.4449 55.3373 28.5929C54.3855 28.7163 53.8415 30.465 53.5749 31.6602C53.4443 31.6494 53.1948 31.6398 52.8704 31.6784C52.6188 31.3651 51.5535 30.0981 51.1391 30.5154C50.9774 30.6764 50.926 31.8179 50.9121 32.2974C49.1883 32.9841 46.2556 34.2747 45.6593 35.222C45.1196 36.0856 44.9954 36.7272 44.9954 36.7272C44.9954 36.7272 41.4792 38.9941 40.6173 41.4616C40.6173 41.4616 42.9793 38.6991 45.8573 37.3441" fill="#231F20"/>
<path fill-rule="evenodd" clip-rule="evenodd" d="M57.1733 35.5127C57.123 33.6867 56.2226 32.2255 55.7622 32.1408C55.3039 32.0603 55.1561 33.8005 55.1561 33.8005C56.3703 34.6051 57.1733 35.5127 57.1733 35.5127" fill="#231F20"/>
<path fill-rule="evenodd" clip-rule="evenodd" d="M48.5298 35.1839C47.8242 35.6088 48.1369 35.9714 48.1369 35.9714C48.1369 35.9714 48.0223 35.6088 48.8917 35.3631C50.4421 34.9243 51.8436 34.4748 51.8094 34.0982C51.7772 33.7206 50.7279 33.5725 50.7279 33.5725C51.0235 33.9662 49.2354 34.7559 48.5298 35.1839" fill="#231F20"/>
<path fill-rule="evenodd" clip-rule="evenodd" d="M49.2597 37.5978C49.4728 37.5978 49.6451 37.4261 49.6451 37.2127C49.6451 37.0957 49.5927 36.9949 49.5102 36.9241C49.7661 36.9069 50.3507 36.9391 50.3507 36.9391C50.2854 36.9241 50.1377 37.0882 49.809 37.4991C49.4813 37.9111 49.1708 37.5978 49.1708 37.5978L49.1655 37.5796C49.1955 37.586 49.2265 37.5978 49.2597 37.5978M48.022 39.3563C48.022 39.3563 48.4642 38.322 48.7929 38.1912C48.7929 38.1912 49.3668 38.3381 49.6783 38.2223C49.9899 38.1085 50.5799 37.32 50.8101 37.3028C50.8101 37.3028 50.203 39.9463 47.7425 39.898C47.7425 39.898 49.5145 40.9011 50.4161 40.1941C51.3187 39.4871 50.6291 38.9454 51.794 37.8114C52.9579 36.6763 52.1881 36.6291 52.1388 36.6463C52.0896 36.6613 51.7277 36.5465 51.7277 36.5465C51.7277 36.5465 51.8915 36.333 52.2213 36.1871C52.5489 36.0369 54.4344 35.184 54.4676 34.6712C54.4997 34.1637 53.1057 33.5887 52.4011 33.6037C52.4011 33.6037 53.0393 33.8665 53.0072 34.2291C52.975 34.5907 51.1388 35.3964 51.1388 36.4317C51.1388 36.4317 50.4824 36.48 50.006 36.3834C49.5306 36.2826 49.022 36.333 48.4974 36.6763C47.9727 37.0228 47.9406 36.2515 47.9888 36.1517C47.9888 36.1517 46.9727 36.7922 48.2522 37.614C48.2522 37.614 47.7265 38.1568 47.6772 38.2888C47.628 38.4197 47.4149 39.1256 48.022 39.3563" fill="#231F20"/>
<path fill-rule="evenodd" clip-rule="evenodd" d="M46.3983 42.7419C46.3983 42.7419 46.3737 41.8053 45.5118 42.0027C44.0642 42.3331 43.5685 44.9101 43.5685 44.9101C45.1938 41.904 46.3983 42.7419 46.3983 42.7419" fill="#231F20"/>
<path fill-rule="evenodd" clip-rule="evenodd" d="M46.94 45.0332C47.7259 43.7533 46.7676 42.939 45.5374 43.6278C44.3082 44.3187 44.0117 45.9709 44.0117 45.9709C46.4475 43.3092 46.94 45.0332 46.94 45.0332" fill="#231F20"/>
<path fill-rule="evenodd" clip-rule="evenodd" d="M58.5514 43.3821C58.5514 43.3821 57.6649 42.5957 57.7634 41.1388C57.8619 39.684 58.1328 37.4933 55.6734 35.9634C55.6734 35.9634 56.6809 37.5169 56.3115 39.0446C55.9422 40.5734 54.7108 43.1815 54.8115 44.0483C55.0331 45.9462 57.0011 46.2916 56.8533 48.8793C56.8533 48.8793 58.0097 47.4728 57.7891 45.8228C57.5675 44.1706 56.1156 43.455 56.7548 42.1505C56.7548 42.1505 57.4925 43.234 58.5514 43.3821" fill="#231F20"/>
<path fill-rule="evenodd" clip-rule="evenodd" d="M47.3702 50.9737C47.1475 50.9018 46.9516 50.0875 46.9516 50.0875C47.2717 50.3471 47.9238 50.3589 47.9238 50.3589C47.6154 50.6529 47.5919 51.0477 47.3702 50.9737M49.8264 48.3785C49.8264 48.3785 50.5963 48.4107 50.6294 48.2798C50.6626 48.1478 50.3832 47.2434 50.3832 47.2434C50.3832 47.2434 51.3511 47.3421 51.3682 47.6554C51.3843 47.9655 50.8265 48.7572 49.6455 49.2657C49.6455 49.2657 49.8596 48.6403 49.8264 48.3785M44.822 47.5406C44.928 47.4795 45.0275 47.414 45.1185 47.3421C45.3584 47.1608 45.5383 47.0739 45.6593 47.0342C45.6346 47.3808 45.6143 47.9901 45.7224 48.4965C45.7224 48.4965 45.0854 48.0878 44.822 47.5406M41.7405 44.3843C41.3636 44.3843 40.6912 43.3823 40.5766 43.1849C40.4621 42.9885 41.2148 42.6259 41.4461 42.5605C41.6752 42.494 41.9172 42.5497 41.9536 42.6613C41.9868 42.7568 41.4792 43.0701 41.4129 43.1849C41.3475 43.3007 41.8154 43.7331 41.8882 43.8243C42.0189 43.9916 42.1184 44.3843 41.7405 44.3843M65.6332 36.5043C65.6332 36.5043 67.7842 42.3641 65.3569 47.6876C65.3569 47.6876 65.495 46.9141 64.8976 45.3885C64.2573 43.7535 64.4715 41.641 64.7338 41.2473C64.7338 41.2473 63.5517 42.4296 63.6181 44.4025C63.6845 46.3723 64.2081 51.9274 60.2079 53.998C60.2079 53.998 61.724 51.2204 61.1576 47.9654C61.1576 47.9654 61.6748 48.165 61.9457 48.8548C61.9457 48.8548 63.0281 45.9957 61.6255 42.4939C61.6255 42.4939 62.4125 42.6431 62.905 43.0615C62.905 43.0615 63.4222 40.5564 60.5923 38.7969C59.8792 38.3528 59.9767 38.1082 59.9767 38.1082C59.9767 38.1082 59.7561 38.6746 60.2229 39.2411C60.6897 39.8086 61.3311 40.9179 61.2326 41.4855C61.2326 41.4855 60.4692 40.9415 59.3621 41.0907C59.3621 41.0907 61.4778 42.8888 61.1576 46.7596C61.1576 46.7596 60.618 46.1684 59.24 45.9217C59.24 45.9217 60.7893 48.8312 59.4113 51.6152C59.4113 51.6152 59.3128 50.6293 58.8706 50.0124C58.8706 50.0124 58.5259 52.0594 56.0665 52.775C56.0665 52.775 58.058 50.2838 55.6971 49.0286C53.3351 47.7691 51.3425 50.5553 50.9496 52.9971C50.9496 52.9971 48.2193 53.1923 47.9484 52.0841C47.6775 50.9737 48.4645 50.5049 48.4645 50.5049C48.4645 50.5049 48.8831 50.7763 49.8436 50.3332C50.8018 49.8901 52.819 48.681 52.622 47.1533C52.425 45.6266 50.0395 44.1225 48.1443 44.7373C46.2514 45.3552 45.1678 47.031 44.1838 47.0063C43.1999 46.9816 41.9942 45.4775 42.1677 44.6901C42.339 43.9004 42.9782 43.6784 43.1999 42.347C43.1999 42.347 42.8562 42.3802 42.627 42.2322C42.3968 42.083 41.7897 41.8374 41.4621 41.921C41.1334 42.0026 40.3304 42.5454 40.2972 42.4457C40.264 42.347 40.3796 41.7537 40.3796 41.7537C40.3796 41.7537 39.4942 42.6903 39.6259 43.0701C39.7565 43.4477 40.5274 44.3843 41.3304 44.9111C41.3304 44.9111 41.4792 46.0601 42.5285 47.1297C43.1549 47.768 43.7395 47.8839 44.2384 47.7766C44.4494 48.0888 45.1678 49.0308 46.3124 49.2368C46.3124 49.2368 46.1143 47.9161 46.2578 46.9183C46.3017 46.8947 46.3456 46.869 46.382 46.8325C46.5619 46.6534 48.6615 44.7137 50.2194 46.5868C50.2194 46.5868 49.5138 46.8497 49.2354 47.7358C48.957 48.6252 48.7932 50.8267 46.4805 49.4138C46.4805 49.4138 46.2835 50.6787 46.9891 51.4361C46.9891 51.4361 46.8906 52.7825 48.4152 53.5206C49.941 54.2609 51.0074 53.703 51.9914 54.1954C51.9914 54.1954 51.8929 52.1731 52.728 50.9415C53.5653 49.7088 54.7463 49.2979 55.3202 49.7764C55.893 50.2517 56.2549 52.0594 54.0407 53.9337C54.0407 53.9337 56.5825 54.2609 58.3214 52.9305C58.3214 52.9305 58.1051 55.2779 56.3502 57.267C62.7091 55.9002 67.4555 50.2356 67.4555 43.4552C67.4555 40.9287 66.7927 38.5566 65.6332 36.5043" fill="#231F20"/>
<path fill-rule="evenodd" clip-rule="evenodd" d="M55.4188 37.055C55.4188 37.055 53.7624 36.1206 53.0247 37.0883C52.3298 38.0013 52.7817 39.5644 52.3737 40.5418C52.3619 40.531 52.347 40.5182 52.3352 40.5074C51.4165 39.6835 50.2859 41.0825 50.0717 41.4923C49.8597 41.9043 49.5803 41.9515 49.5803 41.9515C47.5631 42.3635 47.9892 40.737 47.3168 40.2446C46.6455 39.75 45.5127 40.4753 45.5127 40.4753C46.6444 40.2585 46.9067 41.0492 46.8746 41.3604C46.8414 41.6736 47.0705 42.5952 47.3821 43.1037C47.6937 43.6122 48.9571 43.2507 49.9903 43.3355C51.0236 43.4159 51.6135 44.6797 51.6135 44.6797C52.2367 43.1681 50.5642 42.4793 50.5642 42.4793C50.5642 42.4793 51.0525 41.5502 51.6296 41.87C53.4669 42.8881 53.0076 47.0132 53.0076 47.0132C54.5901 44.0328 53.893 42.283 53.0675 41.2606C53.1714 40.3315 53.6414 37.4005 55.4188 37.055" fill="#231F20"/>
</svg>
