<svg width="108" height="108" viewBox="0 0 108 108" fill="none" xmlns="http://www.w3.org/2000/svg">
<path d="M37.1225 31H49.9466C47.8119 35.8029 45.6725 40.6041 43.5343 45.4059C41.5293 49.9118 39.5225 54.4172 37.517 58.9225C33.2399 58.9243 28.9629 58.9237 24.6864 58.9231C28.832 49.6154 32.974 40.3059 37.1225 31Z" fill="#FFCA08"/>
<path d="M49.9466 31H49.9501C51.2936 34.0257 52.6453 37.0478 53.9883 40.0741L53.9976 40.0952C53.0814 42.0938 52.2063 44.1111 51.3071 46.1172C50.2723 48.4315 49.2458 50.75 48.2122 53.0648C47.9938 53.5297 47.8183 54.0145 47.5683 54.4635C46.2225 51.4449 44.8795 48.4245 43.5343 45.4059C45.6725 40.6041 47.8119 35.8029 49.9466 31Z" fill="#FA9D1C"/>
<path d="M58.0317 31H58.0352C60.1723 35.8041 62.3117 40.607 64.4511 45.41C63.0947 48.4304 61.7582 51.4602 60.4053 54.4823C58.2618 49.6899 56.1335 44.8911 53.9976 40.0952L53.9883 40.0741C55.3435 37.0525 56.687 34.0257 58.0317 31Z" fill="#9E9FA3"/>
<path d="M58.0352 31H70.8593C75.0101 40.3054 79.1504 49.6154 83.2971 58.9225C79.0213 58.9266 74.7448 58.9231 70.469 58.9243C68.461 54.4201 66.4561 49.9147 64.4511 45.41C62.3117 40.607 60.1723 35.8041 58.0352 31Z" fill="#636466"/>
<path d="M76.9546 66.7788C77.7811 66.3262 78.7577 66.2405 79.681 66.338C80.5367 66.4284 81.3849 66.7524 82.0211 67.3428C82.7583 68.0149 83.1768 68.9769 83.3171 69.9529C82.4103 69.9535 81.5034 69.9541 80.5966 69.9524C80.4798 69.5098 80.2509 69.0432 79.8042 68.8571C79.2478 68.6341 78.5282 68.6394 78.0704 69.069C77.7588 69.359 77.6778 69.7992 77.629 70.2024C77.5381 71.0628 77.551 71.9298 77.5639 72.7931C77.5897 73.3701 77.5921 73.9629 77.7758 74.517C77.9149 74.949 78.3304 75.2442 78.7736 75.2953C79.2965 75.3575 79.897 75.2565 80.2585 74.8398C80.5808 74.4624 80.6418 73.9406 80.6442 73.4623C80.1024 73.4458 79.5601 73.4605 79.0183 73.4552C79.0177 72.7004 79.0172 71.9456 79.0189 71.1908C80.4563 71.1908 81.8938 71.1902 83.3318 71.1914C83.3095 72.4909 83.4345 73.8262 83.0494 75.0875C82.7724 76.0284 82.064 76.8008 81.2094 77.2592C80.6588 77.5544 80.0349 77.6765 79.4175 77.7205H78.7026C78.1045 77.6782 77.5064 77.5403 76.9758 77.2545C76.1699 76.8207 75.4761 76.1229 75.1768 75.2448C74.7677 74.0821 74.8604 72.8289 74.8458 71.6181C74.8469 70.6649 74.8522 69.6847 75.178 68.7761C75.4773 67.9074 76.1629 67.2184 76.9546 66.7788V66.7788Z" fill="#636466"/>
<path d="M14 66.5205C15.0365 66.5528 16.0754 66.5252 17.1131 66.5346C17.7957 66.5475 18.4907 66.4812 19.1604 66.649C19.8718 66.8146 20.5461 67.2207 20.9429 67.8446C21.3444 68.468 21.4618 69.2486 21.3438 69.9729C21.2006 70.8234 20.5931 71.5817 19.7808 71.8816C20.3472 72.1 20.859 72.4844 21.1701 73.0121C21.6208 73.7593 21.6461 74.6972 21.4213 75.5224C21.2182 76.2708 20.6641 76.9064 19.9533 77.2146C19.4315 77.4511 18.8528 77.5409 18.2829 77.5397C16.8555 77.5386 15.4274 77.5397 14 77.5392V66.5205ZM15.1803 67.5905C15.1768 68.8606 15.1798 70.1302 15.1792 71.4003C16.1558 71.4021 17.1331 71.4009 18.1103 71.4009C18.7125 71.3933 19.3558 71.2213 19.7708 70.7594C20.1717 70.3163 20.2674 69.6753 20.1781 69.1013C20.1159 68.6904 19.9081 68.296 19.5759 68.0407C19.1627 67.7167 18.6257 67.5987 18.1103 67.5911C17.1337 67.5899 16.157 67.5917 15.1803 67.5905V67.5905ZM15.1798 72.4574C15.178 73.7992 15.1786 75.1409 15.1792 76.4827C16.0772 76.4832 16.9746 76.4827 17.8726 76.4833C18.2477 76.4891 18.6292 76.4868 18.9913 76.3741C19.5302 76.2232 20.0109 75.837 20.2198 75.3105C20.5156 74.5598 20.4176 73.6002 19.8136 73.0262C19.3464 72.5789 18.6726 72.4386 18.0452 72.4568C17.0897 72.458 16.1347 72.4574 15.1798 72.4574V72.4574Z" fill="#636466"/>
<path d="M26.3428 66.5345C26.6744 66.5351 27.006 66.5316 27.3382 66.5363C28.6812 70.2023 30.0217 73.8695 31.3705 77.5332C30.9497 77.5444 30.5283 77.5408 30.1074 77.5355C29.8175 76.7062 29.5281 75.8769 29.2264 75.0522C27.6282 75.0581 26.0299 75.0528 24.4317 75.0546C24.1371 75.8821 23.8448 76.7103 23.5525 77.5385C23.1328 77.5408 22.7131 77.5379 22.2941 77.5397C23.6411 73.8707 24.9928 70.2029 26.3428 66.5345V66.5345ZM26.8382 68.2801C26.1544 70.1953 25.4712 72.1105 24.7903 74.0268C26.1567 74.0274 27.5225 74.0286 28.8883 74.0262C28.2175 72.1116 27.5454 70.1976 26.8722 68.2836C26.864 68.283 26.847 68.2813 26.8382 68.2801Z" fill="#636466"/>
<path d="M32.5227 66.5351C32.8948 66.5328 33.2669 66.5346 33.6396 66.5346C35.5842 69.4599 37.5263 72.3869 39.4715 75.3122C39.4761 72.3858 39.4703 69.4599 39.475 66.5334C39.8665 66.5334 40.2585 66.5369 40.6506 66.5316C40.6653 70.2006 40.653 73.8701 40.6565 77.5391C40.2832 77.5391 39.9105 77.5391 39.5372 77.5391C37.5903 74.6044 35.6505 71.665 33.703 68.7303C33.6995 71.6668 33.7018 74.6026 33.7018 77.5385C33.3092 77.5403 32.9159 77.5385 32.5233 77.5391C32.5221 73.8713 32.5233 70.2035 32.5227 66.5351V66.5351Z" fill="#636466"/>
<path d="M43.212 66.5405C43.6053 66.5264 43.9991 66.5381 44.3935 66.5346C44.3947 68.637 44.3912 70.7394 44.3953 72.8424C46.1086 70.7424 47.8084 68.6311 49.5234 66.5328C50.0035 66.5364 50.4831 66.5328 50.9632 66.5346C49.8104 67.9538 48.6524 69.3678 47.5014 70.7882C48.8191 73.0391 50.1391 75.2882 51.4556 77.5391C50.9884 77.538 50.5218 77.5415 50.0552 77.5374C48.9423 75.587 47.823 73.6401 46.709 71.6903C45.9665 72.5713 45.2346 73.4617 44.4933 74.3438C44.4499 74.4043 44.3765 74.4612 44.3935 74.5463C44.3935 75.5441 44.393 76.5413 44.3935 77.5391C44.0009 77.5397 43.6082 77.5391 43.215 77.5391C43.2126 73.8731 43.2191 70.2065 43.212 66.5405V66.5405Z" fill="#636466"/>
<path d="M53.2857 77.5385C53.2915 73.8707 53.2751 70.2018 53.2939 66.5345C54.1796 66.5475 55.0659 66.5328 55.9522 66.5422C56.7686 68.1569 57.5944 69.7674 58.4132 71.3815C59.2425 69.7704 60.0578 68.1522 60.8831 66.5392C61.7711 66.5398 62.6591 66.5387 63.5478 66.5398C63.5472 70.2065 63.5478 73.8725 63.5472 77.5391C62.6445 77.5397 61.7412 77.5391 60.8384 77.5391C60.8349 75.7108 60.842 73.8825 60.8349 72.0536C60.3249 72.9451 59.816 73.8373 59.3036 74.7277C59.1263 75.0323 58.7853 75.2359 58.4308 75.2324C58.0722 75.2453 57.7183 75.0493 57.5363 74.7412C57.018 73.8508 56.5168 72.9504 55.9962 72.0618C55.995 73.8877 55.9962 75.7137 55.995 77.5391C55.0917 77.5385 54.189 77.5403 53.2857 77.5385V77.5385Z" fill="#636466"/>
<path d="M65.8075 66.5399C68.302 66.5387 70.7965 66.5393 73.2904 66.5399C73.2933 67.3404 73.2857 68.1416 73.2945 68.9422C71.7027 68.9622 70.1098 68.9434 68.5174 68.9516C68.5168 69.5626 68.5162 70.173 68.5174 70.784C69.8773 70.7858 71.2367 70.784 72.5966 70.7852C72.596 71.5905 72.596 72.3952 72.5966 73.2005C71.2367 73.2028 69.8767 73.1987 68.5174 73.2022C68.5168 73.8438 68.5162 74.4859 68.5174 75.1274C70.1086 75.1292 71.6992 75.1274 73.2904 75.128C73.291 75.9321 73.291 76.7356 73.2904 77.5391C70.7959 77.5391 68.302 77.5397 65.8081 77.5391C65.8069 73.8725 65.8069 70.2065 65.8075 66.5399V66.5399Z" fill="#636466"/>
<path d="M87.8911 66.5398C88.5896 66.5416 89.2886 66.5334 89.9877 66.544C90.9233 69.14 91.8729 71.7308 92.8138 74.3244C93.2141 75.3944 93.5768 76.4797 94 77.5409C93.065 77.5368 92.13 77.5415 91.1956 77.5385C91.0154 76.9927 90.8376 76.4468 90.655 75.9016C89.5076 75.9027 88.3595 75.8957 87.212 75.9051C87.0389 76.4515 86.8552 76.9944 86.6761 77.5391C85.7476 77.5397 84.8191 77.5391 83.8911 77.5391C85.2223 73.8719 86.557 70.2059 87.8911 66.5398V66.5398ZM88.9318 70.5357C88.6001 71.5893 88.2632 72.6411 87.931 73.6941C88.6007 73.6958 89.271 73.6947 89.9419 73.6947C89.6044 72.6417 89.2822 71.584 88.9318 70.5357V70.5357Z" fill="#636466"/>
<path d="M53.9976 40.0952C56.1335 44.8911 58.2618 49.6899 60.4053 54.4823C59.8312 55.7436 58.8675 56.8213 57.686 57.545C55.9357 58.632 53.7001 58.8785 51.7497 58.2217C49.9161 57.6183 48.3618 56.2238 47.5683 54.4635C47.8183 54.0145 47.9938 53.5297 48.2122 53.0648C49.2458 50.7499 50.2723 48.4315 51.3071 46.1172C52.2063 44.1111 53.0814 42.0937 53.9976 40.0952Z" fill="#F37022"/>
</svg>
