<svg width="108" height="108" viewBox="0 0 108 108" fill="none" xmlns="http://www.w3.org/2000/svg">
<g clip-path="url(#clip0_801_7340)">
<path d="M36.9391 25H49.5649C47.4632 29.7287 45.3569 34.4556 43.2517 39.1831C41.2777 43.6194 39.302 48.0551 37.3274 52.4908C33.1165 52.4925 28.9056 52.4919 24.6953 52.4914C28.7767 43.3276 32.8547 34.1621 36.9391 25Z" fill="#FFCA08"/>
<path d="M49.5649 25H49.5683C50.8911 27.9789 52.2219 30.9543 53.544 33.9338L53.5533 33.9546C52.6512 35.9222 51.7896 37.9084 50.9043 39.8835C49.8856 42.162 48.8749 44.4446 47.8573 46.7237C47.6423 47.1814 47.4695 47.6587 47.2233 48.1007C45.8983 45.1288 44.5761 42.1551 43.2517 39.1831C45.3568 34.4556 47.4632 29.7287 49.5649 25Z" fill="#FA9D1C"/>
<path d="M57.525 25H57.5284C59.6324 29.7298 61.7387 34.4585 63.8451 39.1872C62.5096 42.1609 61.1938 45.1438 59.8618 48.1192C57.7515 43.401 55.6561 38.6763 53.5533 33.9546L53.544 33.9338C54.8783 30.9589 56.2011 27.9789 57.525 25Z" fill="#9E9FA3"/>
<path d="M57.5284 25H70.1542C74.2409 34.1615 78.3171 43.3276 82.3998 52.4908C78.19 52.4948 73.9797 52.4914 69.7699 52.4925C67.7931 48.058 65.8191 43.6223 63.8451 39.1872C61.7388 34.4585 59.6324 29.7298 57.5284 25Z" fill="#636466"/>
<path d="M53.5533 33.9546C55.6561 38.6763 57.7515 43.401 59.8619 48.1192C59.2967 49.3611 58.3478 50.422 57.1846 51.1345C55.4614 52.2047 53.2603 52.4474 51.3401 51.8008C49.5348 51.2068 48.0046 49.8337 47.2234 48.1007C47.4695 47.6587 47.6423 47.1813 47.8573 46.7237C48.8749 44.4446 49.8856 42.162 50.9044 39.8835C51.7896 37.9083 52.6512 35.9222 53.5533 33.9546Z" fill="#F37022"/>
<path d="M53.3607 59.6458H56.02L58.4236 64.1887H58.5088L60.9124 59.6458H63.5802V70.334H60.8272V65.0922H60.742L59.3953 67.6492C59.3019 67.8092 59.1691 67.9427 59.0094 68.0367C58.8497 68.1307 58.6685 68.1822 58.4833 68.1861C58.2995 68.1755 58.121 68.1212 57.9624 68.0278C57.8038 67.9344 57.6698 67.8046 57.5713 67.6492L56.1138 65.2882H56.02V70.4022H53.3607" fill="#646565"/>
<path d="M68.8903 67.9816H73.5269V70.3425H65.9241V59.6458H73.5269V61.9897H68.8903V63.7966H72.7428V66.0894H68.8903V67.9816Z" fill="#646565"/>
<path d="M79.033 64.18H83.4055V65.1602C83.4349 66.0582 83.3403 66.9559 83.1242 67.828C82.886 68.6631 82.3647 69.3893 81.6497 69.8822C80.8949 70.3868 80 70.6403 79.0927 70.6066C78.1903 70.6387 77.2993 70.3982 76.5357 69.9163C75.8297 69.4501 75.3106 68.7499 75.0697 67.9388C74.8352 66.977 74.732 65.9878 74.7628 64.9983C74.7328 64.0003 74.836 63.0028 75.0697 62.0322C75.3141 61.2274 75.8329 60.5338 76.5357 60.0718C77.2995 59.5904 78.1904 59.3498 79.0927 59.3814C79.9276 59.3555 80.7526 59.5684 81.4707 59.9951C82.1286 60.3925 82.6422 60.9898 82.9367 61.6998C83.1174 62.1186 83.2241 62.5656 83.2521 63.0209H80.5672L80.465 62.6799C80.3743 62.4422 80.213 62.2379 80.0027 62.0946C79.7924 61.9514 79.5432 61.876 79.2887 61.8788C78.4875 61.8788 77.9932 62.1174 77.7801 62.8334C77.6425 63.5434 77.591 64.2674 77.6267 64.9898C77.5933 65.7121 77.6448 66.4358 77.7801 67.1462C77.8733 67.4487 78.0688 67.7095 78.3332 67.8836C78.5976 68.0578 78.9143 68.1346 79.2291 68.1008C79.9962 68.1008 80.465 67.8195 80.6354 67.2484C80.6959 66.9683 80.7274 66.6827 80.7292 66.3961V66.3194H79.0245L79.033 64.18Z" fill="#646565"/>
<path d="M90.0537 59.5519L94 70.3339H91.1617L90.5736 68.7997H87.3774L86.7722 70.3339H83.9169L87.8291 59.5519H90.0537ZM88.9116 63.5834L88.0592 66.2342H89.9173L88.9627 63.5834H88.9116Z" fill="#646565"/>
<path d="M43.0987 59.731H44.4539V65.7058L49.4656 59.731H51.1447L47.6672 64.0949L51.4771 70.5045H49.8832L46.5762 65.1177L44.4027 67.7088V70.5045H43.0987V59.731Z" fill="#646565"/>
<path d="M39.391 59.731H40.7206V70.5045H39.391L33.6974 62.0408V70.5045H32.4104V59.731H33.74L39.3995 68.2458L39.391 59.731Z" fill="#646565"/>
<path d="M27.3731 59.731H26.248L22.2165 70.5044H23.5717L24.424 68.1946H29.1715L29.9642 70.5044H31.3706L27.3731 59.731ZM24.7394 66.9928L26.8361 61.2992L28.8476 66.9928H24.7394Z" fill="#646565"/>
<path d="M18.0486 59.7309C18.9426 59.6638 19.8288 59.9379 20.5289 60.498C20.8108 60.7622 21.0327 61.0838 21.1798 61.4411C21.3268 61.7984 21.3955 62.1831 21.3812 62.5692C21.4075 63.1053 21.2643 63.6361 20.9721 64.0863C20.7139 64.4706 20.3455 64.7678 19.9152 64.9386C20.3566 65.084 20.7431 65.3605 21.0232 65.7313C21.1944 65.9531 21.3296 66.2005 21.4238 66.4643C21.5259 66.7781 21.5777 67.106 21.5772 67.436C21.6055 67.8648 21.5367 68.2944 21.3758 68.6928C21.215 69.0913 20.9662 69.4483 20.6482 69.7373C19.8828 70.2985 18.9446 70.5731 17.9974 70.5129H14V59.7309H18.0486ZM19.4294 63.9244C19.5938 63.7731 19.7237 63.5883 19.8105 63.3824C19.8972 63.1765 19.9388 62.9544 19.9322 62.7311C19.941 62.5012 19.9007 62.2721 19.814 62.059C19.7273 61.8459 19.5962 61.6537 19.4294 61.4952C19.0356 61.1628 18.5289 60.9949 18.0145 61.0264H15.4575V64.4358H18.0145C18.5346 64.4556 19.0421 64.2722 19.4294 63.9244ZM18.0912 69.2259C18.6353 69.2644 19.1731 69.0902 19.5913 68.74C19.9167 68.3939 20.0979 67.9367 20.0979 67.4616C20.0979 66.9864 19.9167 66.5292 19.5913 66.1831C19.1731 65.8329 18.6353 65.6587 18.0912 65.6972H15.4404V69.2515L18.0912 69.2259Z" fill="#646565"/>
<path d="M27.714 83.4343C27.1093 83.4321 26.5096 83.3254 25.9412 83.119C25.4496 82.9555 24.999 82.6881 24.6201 82.3348C24.6105 82.3253 24.603 82.314 24.5978 82.3016C24.5927 82.2892 24.59 82.2758 24.59 82.2624C24.59 82.2489 24.5927 82.2356 24.5978 82.2231C24.603 82.2107 24.6105 82.1994 24.6201 82.1899L25.6344 80.9967C25.6439 80.9871 25.6551 80.9796 25.6676 80.9744C25.68 80.9692 25.6933 80.9666 25.7068 80.9666C25.7203 80.9666 25.7336 80.9692 25.746 80.9744C25.7585 80.9796 25.7698 80.9871 25.7793 80.9967C26.309 81.4907 27.0067 81.7649 27.7311 81.7638C28.0079 81.7798 28.2834 81.7146 28.5238 81.5762C28.6152 81.5225 28.6905 81.445 28.7415 81.352C28.7925 81.2589 28.8174 81.1538 28.8136 81.0478C28.8176 80.9635 28.7992 80.8797 28.7603 80.8048C28.7213 80.7299 28.6633 80.6667 28.592 80.6216C28.3614 80.4931 28.1052 80.4174 27.8419 80.4L27.4413 80.3489C25.7366 80.1017 24.8843 79.3005 24.8843 77.9368C24.8771 77.6126 24.9431 77.291 25.0774 76.9958C25.2117 76.7007 25.4108 76.4397 25.6599 76.2321C26.2405 75.7439 26.9816 75.4888 27.7396 75.5162C28.7121 75.4958 29.6643 75.7952 30.45 76.3685C30.4698 76.3891 30.4809 76.4166 30.4809 76.4452C30.4809 76.4738 30.4698 76.5013 30.45 76.5219L29.5977 77.7493C29.5834 77.7734 29.5605 77.7912 29.5336 77.7991C29.5068 77.807 29.4779 77.8044 29.4528 77.7919C28.9543 77.4356 28.3606 77.2367 27.7481 77.2208C27.5286 77.2053 27.31 77.2622 27.1259 77.3828C27.0534 77.4387 26.9954 77.5113 26.9569 77.5944C26.9183 77.6774 26.9003 77.7686 26.9043 77.8601C26.9043 78.2095 27.2367 78.4226 27.8845 78.4993L28.2936 78.559C28.9978 78.6127 29.6679 78.8837 30.2114 79.3346C30.4327 79.5562 30.6024 79.8238 30.7084 80.1185C30.8145 80.4131 30.8543 80.7275 30.8251 81.0393C30.8324 81.3822 30.7591 81.722 30.611 82.0315C30.463 82.3409 30.2444 82.6112 29.9727 82.8206C29.3116 83.2762 28.5148 83.4927 27.714 83.4343Z" fill="#94278F"/>
<path d="M37.5585 83.2979H35.5641V80.3233L33.2372 75.7463C33.2372 75.661 33.2372 75.6184 33.3309 75.6184H35.1038C35.1411 75.6179 35.1777 75.6281 35.2094 75.6478C35.2411 75.6674 35.2666 75.6956 35.2828 75.7292L36.5698 78.3544L37.8313 75.7292C37.8456 75.6942 37.8706 75.6646 37.9027 75.6447C37.9349 75.6248 37.9725 75.6156 38.0102 75.6184H39.7149C39.8172 75.6184 39.8428 75.6184 39.8087 75.7463L37.4818 80.3233L37.5585 83.2979Z" fill="#94278F"/>
<path d="M41.8372 83.1872L44.4965 75.7293C44.5027 75.6962 44.5209 75.6665 44.5477 75.6461C44.5744 75.6256 44.6078 75.6158 44.6414 75.6185H46.4824C46.5146 75.6179 46.5459 75.6287 46.5708 75.649C46.5958 75.6693 46.6128 75.6977 46.6188 75.7293L49.2014 83.1872C49.2014 83.2554 49.2014 83.298 49.1247 83.298H47.2836C47.2508 83.2975 47.219 83.2864 47.1929 83.2665C47.1668 83.2465 47.1478 83.2187 47.1387 83.1872L46.7807 82.0025H44.2749L43.9169 83.1872C43.9091 83.2195 43.8904 83.2481 43.8641 83.2683C43.8377 83.2884 43.8052 83.2989 43.772 83.298H41.9224C41.8457 83.298 41.8202 83.2554 41.8372 83.1872ZM45.5278 77.9539L44.7863 80.3489H46.2779L45.5619 77.9539H45.5278Z" fill="#94278F"/>
<path d="M58.4151 83.2979H56.4547C56.4199 83.2972 56.386 83.2863 56.3572 83.2666C56.3284 83.247 56.306 83.2193 56.2928 83.1871L55.1677 80.5619H54.3154V83.2979H52.338V75.6269H55.5768C56.3176 75.5803 57.0468 75.8285 57.6054 76.3173C57.8463 76.5407 58.0371 76.8127 58.1649 77.1154C58.2928 77.4181 58.3548 77.7446 58.3469 78.0731C58.3515 78.5239 58.2368 78.9679 58.0145 79.3601C57.7908 79.7288 57.4652 80.0248 57.0769 80.2124L58.4918 83.1871C58.5 83.2013 58.5044 83.2175 58.5044 83.234C58.5044 83.2504 58.5 83.2666 58.4918 83.2808C58.4808 83.2886 58.4683 83.2941 58.4551 83.297C58.442 83.2999 58.4284 83.3002 58.4151 83.2979ZM55.4575 78.9254C55.5761 78.9339 55.6953 78.9187 55.8079 78.8807C55.9206 78.8426 56.0246 78.7825 56.1138 78.7038C56.2674 78.5449 56.3533 78.3325 56.3533 78.1114C56.3533 77.8904 56.2674 77.678 56.1138 77.5191C55.9305 77.3664 55.6955 77.2901 55.4575 77.306H54.3154V78.9254H55.4575Z" fill="#94278F"/>
<path d="M61.8756 83.298V75.627H63.8615V83.298H61.8756Z" fill="#94278F"/>
<path d="M66.8873 83.1872L69.538 75.7293C69.5461 75.6955 69.566 75.6657 69.5942 75.6454C69.6223 75.625 69.6569 75.6155 69.6915 75.6185H71.5325C71.5653 75.619 71.5971 75.63 71.6232 75.65C71.6493 75.6699 71.6683 75.6977 71.6774 75.7293L74.2344 83.1872C74.2344 83.2554 74.2344 83.298 74.1577 83.298H72.2144C72.1822 83.2985 72.1509 83.2877 72.126 83.2675C72.101 83.2472 72.084 83.2188 72.078 83.1872L71.7115 82.2752H69.4954L69.1033 83.1872C69.0973 83.2188 69.0803 83.2472 69.0554 83.2675C69.0304 83.2877 68.9991 83.2985 68.967 83.298H66.9725C66.8958 83.298 66.8702 83.2554 66.8873 83.1872ZM70.5779 78.6613L70.1176 80.366H71.0467L70.612 78.6613H70.5779Z" fill="#94278F"/>
<path d="M77.2261 83.2979V75.6269H79.2205V78.5334H81.4451V75.6184H83.4311V83.2894H81.4451V80.2807H79.2205V83.2979H77.2261Z" fill="#94278F"/>
</g>
<defs>
<clipPath id="clip0_801_7340">
<rect width="80" height="58.4437" fill="white" transform="translate(14 25)"/>
</clipPath>
</defs>
</svg>
