<svg width="108" height="108" viewBox="0 0 108 108" fill="none" xmlns="http://www.w3.org/2000/svg">
<path d="M26.0389 42.1593C25.3782 43.8419 24.6729 45.5305 23.9462 47.2306L22.963 49.4845L21.9683 47.2306C21.2183 45.5305 20.4994 43.8419 19.8252 42.1593H14.3225V42.6003C14.9326 42.6003 15.4339 43.1095 15.4339 43.737C15.3445 44.8989 15.2474 46.0629 15.1289 47.2306L14.7636 50.7786C14.5887 52.4767 14.3904 54.1691 14.1594 55.8497H15.9177C16.0265 54.1691 16.1625 52.4767 16.3335 50.7786L16.8757 45.4293C17.6567 47.0556 18.4048 48.6917 19.1295 50.3317L19.3297 50.7786C20.0816 52.4767 20.7967 54.1691 21.4748 55.8497H22.0072C22.6716 54.1691 23.3751 52.4767 24.1056 50.7786L24.4223 50.0499C25.1315 48.4099 25.8698 46.774 26.6315 45.1496L27.2047 50.7786C27.3757 52.4767 27.5175 54.1691 27.6205 55.8497H31.6659C31.4327 54.1691 31.2325 52.4767 31.0616 50.7786L30.7002 47.2306C30.5311 45.5305 30.3854 43.8419 30.2864 42.1593H26.0389Z" fill="#183181"/>
<path d="M44.1845 54.4891C44.6255 53.6497 45.1017 52.8006 45.6067 51.9515L50.5206 43.7734V43.4275H39.7079V45.9436H40.1352C40.1352 45.3374 40.6016 44.8419 41.1844 44.805C41.5225 44.7935 41.8588 44.7876 42.191 44.7876H45.6806C45.2474 45.6095 44.7849 46.4391 44.2855 47.2688L39.3464 55.5053V55.8492H51.0083V54.3881C50.1884 54.4541 49.3568 54.4891 48.5291 54.4891H44.1845Z" fill="#183181"/>
<path d="M64.1744 55.8496C64.2094 55.8476 64.2444 55.8437 64.2774 55.8418C64.2133 55.0024 64.1744 54.1612 64.1744 53.3139V50.2363H69.0028V53.3139C69.0028 54.1612 68.9737 55.0102 68.9096 55.8496H72.6285C72.5605 55.0102 72.5294 54.1612 72.5294 53.3139V45.9655C72.5294 45.1124 72.5605 44.2693 72.6285 43.426H67.8876V43.8185H67.9944C68.5229 43.8185 68.9485 44.2361 68.9854 44.7648C68.9969 45.163 69.0028 45.5632 69.0028 45.9655V48.8742H64.1744V45.9655C64.1744 45.1124 64.2055 44.2693 64.2735 43.426H59.5345V43.8185H59.6375C60.164 43.8185 60.5915 44.2324 60.6284 44.7589C60.6421 45.1611 60.6498 45.5613 60.6498 45.9655V54.5672C60.1621 54.6293 59.6607 54.6586 59.1537 54.6586C58.6076 54.6586 58.0695 54.6158 57.5449 54.5303C56.0565 54.2465 55.8194 52.8495 55.8194 51.979V45.8936C55.8194 45.0677 55.8563 44.2459 55.9186 43.426H51.1795V43.8185H51.2805C51.809 43.8185 52.2326 44.2324 52.2695 44.757C52.2832 45.1611 52.291 45.5613 52.291 45.9655V51.3904C52.291 52.6106 52.6775 55.3074 55.9886 55.7971C57.0221 55.939 58.0791 56.0205 59.1537 56.0205C60.8402 56.0205 62.5151 55.9603 64.1744 55.8496Z" fill="#183181"/>
<path d="M88.547 49.6391C88.547 53.871 84.8884 56.02 81.284 56.02C77.6798 56.02 74.0288 53.871 74.0288 49.6391C74.0288 45.4053 77.6798 43.2563 81.284 43.2563C84.8884 43.2563 88.547 45.4053 88.547 49.6391ZM85.0069 49.6391C85.003 47.3327 84.0392 44.6184 81.284 44.6184C78.5327 44.6184 77.5651 47.3327 77.5651 49.6391C77.5651 51.9435 78.5327 54.6579 81.284 54.6579C84.0392 54.6579 85.003 51.9435 85.0069 49.6391Z" fill="#183181"/>
<path d="M37.6647 45.9657C37.6647 45.1128 37.6958 44.2694 37.7676 43.4261H32.9024V43.8673H33.0033C33.633 43.8673 34.1246 44.3763 34.1246 45.0097C34.1342 45.3245 34.1381 45.6432 34.1381 45.9657V53.3141C34.1381 54.1613 34.1051 55.0105 34.0488 55.8497H37.7676C37.6958 55.0105 37.6647 54.1613 37.6647 53.3141V45.9657Z" fill="#183181"/>
<path d="M20.9252 62.6729C30.722 60.4772 40.9033 59.3173 51.3567 59.3173C66.114 59.3173 80.3542 61.5303 93.7688 65.6456C93.8194 65.6612 93.8485 65.7079 93.8388 65.7642C93.8272 65.8167 93.7708 65.8575 93.7184 65.8458C79.9327 63.5705 65.8127 62.2727 51.4286 62.0219C41.1539 61.8412 31.0017 62.2045 20.9913 63.0711C20.8903 63.0809 20.8008 63.0168 20.7737 62.9178C20.7485 62.8088 20.8165 62.6981 20.9252 62.6729Z" fill="#ED1A3A"/>
</svg>
