<svg width="108" height="108" viewBox="0 0 108 108" fill="none" xmlns="http://www.w3.org/2000/svg">
<g clip-path="url(#clip0_801_7557)">
<path fill-rule="evenodd" clip-rule="evenodd" d="M33.6827 50.0064V55.5031C33.6827 55.5031 31.569 52.3061 31.2537 51.7686C30.7081 51.033 30.0412 50.0064 28.8974 50.0064H26.529V57.8027H28.8974V52.3102C28.8974 52.3102 31.0112 55.5071 31.3265 56.0446C31.868 56.7802 32.4783 57.8068 33.6787 57.8068H36.0309V50.0105H33.6787L33.6827 50.0064ZM21.3436 51.1987C20.8304 52.4072 19.9169 54.9696 19.9169 54.9696L18.8015 51.7201C18.8015 51.7201 18.2195 50.0024 16.3644 50.0024H14V57.7987H16.3644V52.387C16.3644 52.387 16.6473 52.4435 17.1929 53.9874C17.7385 55.5314 18.5468 57.8149 18.5468 57.8149H20.1392C20.1392 57.8149 21.283 57.7421 21.9499 55.9234L22.8067 53.5833C22.8067 53.5833 23.2351 52.3102 23.6312 52.1525V57.7947H25.9753V49.9984H23.6312C23.6312 49.9984 21.8488 49.9862 21.3356 51.1906L21.3436 51.1987ZM44.676 55.7981L44.6598 55.7819H41.0142C39.9836 55.7819 39.147 54.9494 39.147 53.9228C39.147 52.8962 39.9836 52.0636 41.0142 52.0636H44.5143C44.8093 51.7363 45.1246 51.4816 45.3428 51.2593L46.6119 50.0064H40.5171C38.3427 50.0064 36.5846 51.7605 36.5846 53.9228C36.5846 56.0851 38.3468 57.8391 40.5171 57.8391H46.6887L44.6719 55.7981H44.676ZM70.2999 52.3789C70.4939 52.1606 70.7202 51.9828 70.9829 51.8454C71.3426 51.6635 71.7347 51.5827 72.1348 51.5827C72.9269 51.5827 73.6059 51.8535 74.1273 52.4557C74.6851 53.1023 74.875 53.9309 74.875 54.7675C74.875 55.6041 74.6891 56.4084 74.1354 57.047C73.614 57.6492 72.935 57.9078 72.1469 57.9078C71.7549 57.9078 71.3588 57.8432 70.9991 57.6775C70.7364 57.5562 70.502 57.3824 70.2999 57.1763V57.73H69.1036V49.6063H70.2999V52.3708V52.3789ZM79.6158 57.0955C79.3572 57.3299 79.0662 57.5239 78.7469 57.6694C78.3751 57.8351 77.9871 57.9159 77.5789 57.9159C77.0373 57.9159 76.4917 57.7987 76.0754 57.4309C75.6793 57.0793 75.5257 56.6064 75.5257 56.0851C75.5257 55.5637 75.6793 55.1151 76.0673 54.7756C76.4957 54.3997 77.1181 54.2461 77.6678 54.1774C77.9062 54.1532 78.1447 54.1249 78.3831 54.1006C78.5933 54.0804 79.1026 54.04 79.2966 53.9632C79.3572 53.943 79.438 53.9026 79.4703 53.842C79.5108 53.7652 79.5148 53.5227 79.5148 53.4378C79.5148 53.1953 79.4299 52.9972 79.2238 52.8639C78.9651 52.6941 78.5691 52.6618 78.2659 52.6618C77.9386 52.6618 77.5425 52.7063 77.2717 52.9083C77.0413 53.0862 76.9565 53.3367 76.9565 53.6237V53.7288H75.7965V53.5792C75.7965 52.9892 76.0067 52.488 76.4755 52.1202C76.9888 51.712 77.6557 51.5908 78.2983 51.5908C78.9005 51.5908 79.6401 51.6676 80.1332 52.0434C80.5939 52.391 80.7435 52.9245 80.7435 53.4822V56.3599C80.7435 56.4488 80.7475 56.6994 80.8041 56.7721C80.8526 56.8328 80.9577 56.8408 81.0264 56.8408C81.0587 56.8408 81.091 56.8408 81.1234 56.8328C81.1719 56.8247 81.2244 56.8166 81.2729 56.8085L81.3982 56.7843V57.7381L81.3214 57.7583C81.2123 57.7866 81.0991 57.8108 80.986 57.827C80.897 57.8391 80.8041 57.8472 80.7111 57.8472C80.4282 57.8472 80.113 57.7987 79.8907 57.6128C79.729 57.4754 79.6441 57.2935 79.6158 57.0955ZM83.2937 52.4112C83.4837 52.197 83.7019 52.0151 83.9646 51.8818C84.3243 51.6999 84.7164 51.6271 85.1165 51.6271C85.5166 51.6271 85.9289 51.6756 86.2967 51.8333C86.6119 51.9666 86.8746 52.1728 87.0605 52.4597C87.1656 52.6214 87.2384 52.7992 87.2788 52.9851C87.3394 53.264 87.3434 53.6156 87.3434 53.9026V57.7381H86.1148V54.0925C86.1148 53.7692 86.0865 53.2478 85.8682 52.9851C85.6662 52.7467 85.3105 52.6982 85.0195 52.6982C84.5668 52.6982 84.1142 52.7992 83.7787 53.1266C83.4473 53.454 83.3422 53.9026 83.3422 54.3552V57.7381H82.1257V51.7726H83.3018V52.4112H83.2937ZM89.8614 54.2178L92.4238 51.7726H94L91.6235 53.9996L93.8828 57.7381H92.5006L90.7829 54.816L89.8533 55.6728V57.7381H88.6368V49.6144H89.8533V54.2178H89.8614ZM70.2635 54.7149C70.2635 55.2606 70.3524 55.8668 70.7 56.3073C71.0072 56.6994 71.4396 56.8489 71.9287 56.8489C72.4177 56.8489 72.838 56.6953 73.1573 56.3195C73.5049 55.9072 73.61 55.3656 73.61 54.8402C73.61 54.2865 73.517 53.6722 73.1694 53.2195C72.8623 52.8235 72.4379 52.6658 71.9408 52.6658C71.4437 52.6658 70.9991 52.7871 70.6838 53.167C70.3403 53.5833 70.2635 54.1936 70.2635 54.7149ZM79.5067 54.8685C79.1268 55.0181 78.6135 55.0908 78.2417 55.1353C78.0679 55.1555 77.8941 55.1797 77.7244 55.204C77.4859 55.2404 77.1747 55.3171 76.9888 55.4869C76.8271 55.6364 76.7827 55.8547 76.7827 56.0689C76.7827 56.2952 76.8473 56.5013 77.0252 56.6468C77.2232 56.8125 77.5102 56.853 77.7607 56.853C78.2134 56.853 78.662 56.76 79.0298 56.4811C79.337 56.2467 79.5108 55.9476 79.5108 55.5596V54.8645L79.5067 54.8685Z" fill="url(#paint0_linear_801_7557)"/>
<path fill-rule="evenodd" clip-rule="evenodd" d="M59.4644 43.7985C59.0077 43.459 58.656 43.0185 58.2357 42.6628C57.2738 41.7656 55.7784 41.7818 54.8529 42.7073L54.8125 42.7477C54.6953 42.8447 54.578 42.9498 54.4608 43.0589L51.0012 46.4903L50.981 46.5751C50.7142 47.8765 51.567 48.8304 51.567 48.8304L53.4949 50.8067L56.5746 53.9107L57.6254 52.8558L59.8766 50.6249L61.5781 48.9637L61.6913 48.8708C61.7317 48.8385 61.7883 48.79 61.8691 48.7374C62.3299 48.4222 62.7947 48.305 63.1786 48.2726C63.4818 48.2484 63.7283 48.2767 63.8859 48.309C63.9546 48.3211 64.0072 48.3373 64.0355 48.3454H64.0516L64.0597 48.3535L59.4644 43.7985Z" fill="url(#paint1_linear_801_7557)"/>
<path fill-rule="evenodd" clip-rule="evenodd" d="M59.4644 43.7985C59.0077 43.459 58.656 43.0185 58.2357 42.6628C57.2738 41.7656 55.7784 41.7818 54.8529 42.7073L54.8125 42.7477C54.6953 42.8447 54.578 42.9498 54.4608 43.0589L51.0012 46.4903L50.981 46.5751C50.7142 47.8765 51.567 48.8304 51.567 48.8304L53.4949 50.8067L56.5746 53.9107L57.6254 52.8558L59.8766 50.6249L61.5781 48.9637L61.6913 48.8708C61.7317 48.8385 61.7883 48.79 61.8691 48.7374C62.3299 48.4222 62.7947 48.305 63.1786 48.2726C63.4818 48.2484 63.7283 48.2767 63.8859 48.309C63.9546 48.3211 64.0072 48.3373 64.0355 48.3454H64.0516L64.0597 48.3535L59.4644 43.7985Z" fill="url(#paint2_linear_801_7557)"/>
<path fill-rule="evenodd" clip-rule="evenodd" d="M53.6888 64.0228C54.1455 64.3623 54.4972 64.8028 54.9175 65.1585C55.8794 66.0557 57.3748 66.0396 58.3003 65.114L58.3408 65.0736C58.458 64.9766 58.5752 64.8715 58.6924 64.7624L62.152 61.3311L62.1722 61.2462C62.439 59.9448 61.5862 58.991 61.5862 58.991L59.6583 57.0146L56.5786 53.9106L55.5278 54.9655L53.2766 57.1965L51.5751 58.8576L51.4619 58.9506C51.4215 58.9829 51.3649 59.0314 51.2841 59.0839C50.8233 59.3992 50.3585 59.5164 49.9746 59.5487C49.6715 59.573 49.4249 59.5447 49.2673 59.5123C49.1986 59.5002 49.146 59.4841 49.1178 59.476H49.1016L49.0935 59.4679L53.6888 64.0228Z" fill="url(#paint3_linear_801_7557)"/>
<path fill-rule="evenodd" clip-rule="evenodd" d="M53.6888 64.0228C54.1455 64.3623 54.4972 64.8028 54.9175 65.1585C55.8794 66.0557 57.3748 66.0396 58.3003 65.114L58.3408 65.0736C58.458 64.9766 58.5752 64.8715 58.6924 64.7624L62.152 61.3311L62.1722 61.2462C62.439 59.9448 61.5862 58.991 61.5862 58.991L59.6583 57.0146L56.5786 53.9106L55.5278 54.9655L53.2766 57.1965L51.5751 58.8576L51.4619 58.9506C51.4215 58.9829 51.3649 59.0314 51.2841 59.0839C50.8233 59.3992 50.3585 59.5164 49.9746 59.5487C49.6715 59.573 49.4249 59.5447 49.2673 59.5123C49.1986 59.5002 49.146 59.4841 49.1178 59.476H49.1016L49.0935 59.4679L53.6888 64.0228Z" fill="url(#paint4_linear_801_7557)"/>
<path fill-rule="evenodd" clip-rule="evenodd" d="M46.4624 51.0209C46.1229 51.4776 45.6823 51.8292 45.3267 52.2495C44.4294 53.2114 44.4456 54.7068 45.3711 55.6324L45.4115 55.6728C45.5085 55.79 45.6136 55.9072 45.7227 56.0244L49.1541 59.484L49.239 59.5042C50.5404 59.771 51.4942 58.9182 51.4942 58.9182L53.4705 56.9904L56.5745 53.9106L55.5196 52.8598L53.2887 50.6086L51.6276 48.9071L51.5346 48.7939C51.5023 48.7535 51.4538 48.6969 51.4012 48.6161C51.086 48.1554 50.9688 47.6906 50.9364 47.3066C50.9122 47.0035 50.9405 46.757 50.9728 46.5993C50.9849 46.5306 51.0011 46.4781 51.0092 46.4498V46.4336L51.0173 46.4255L46.4624 51.0209Z" fill="url(#paint5_linear_801_7557)"/>
<path fill-rule="evenodd" clip-rule="evenodd" d="M46.4624 51.0209C46.1229 51.4776 45.6823 51.8292 45.3267 52.2495C44.4294 53.2114 44.4456 54.7068 45.3711 55.6324L45.4115 55.6728C45.5085 55.79 45.6136 55.9072 45.7227 56.0244L49.1541 59.484L49.239 59.5042C50.5404 59.771 51.4942 58.9182 51.4942 58.9182L53.4705 56.9904L56.5745 53.9106L55.5196 52.8598L53.2887 50.6086L51.6276 48.9071L51.5346 48.7939C51.5023 48.7535 51.4538 48.6969 51.4012 48.6161C51.086 48.1554 50.9688 47.6906 50.9364 47.3066C50.9122 47.0035 50.9405 46.757 50.9728 46.5993C50.9849 46.5306 51.0011 46.4781 51.0092 46.4498V46.4336L51.0173 46.4255L46.4624 51.0209Z" fill="url(#paint6_linear_801_7557)"/>
<path fill-rule="evenodd" clip-rule="evenodd" d="M66.6908 56.7964C67.0303 56.3397 67.4708 55.9881 67.8265 55.5678C68.7237 54.6058 68.7075 53.1104 67.782 52.1849L67.7416 52.1445C67.6446 52.0273 67.5395 51.9101 67.4304 51.7929L63.999 48.3332L63.9142 48.313C62.6128 48.0463 61.6589 48.8991 61.6589 48.8991L59.6826 50.8269L56.5786 53.9066L57.6335 54.9575L59.8645 57.2087L61.5256 58.9102L61.6185 59.0233C61.6509 59.0638 61.6994 59.1203 61.7519 59.2012C62.0671 59.6619 62.1844 60.1267 62.2167 60.5107C62.2409 60.8138 62.2126 61.0603 62.1803 61.2179C62.1682 61.2867 62.152 61.3392 62.1439 61.3675V61.3837L62.1359 61.3917L66.6908 56.7964Z" fill="url(#paint7_linear_801_7557)"/>
<path fill-rule="evenodd" clip-rule="evenodd" d="M66.6908 56.7964C67.0303 56.3397 67.4708 55.9881 67.8265 55.5678C68.7237 54.6058 68.7075 53.1104 67.782 52.1849L67.7416 52.1445C67.6446 52.0273 67.5395 51.9101 67.4304 51.7929L63.999 48.3332L63.9142 48.313C62.6128 48.0463 61.6589 48.8991 61.6589 48.8991L59.6826 50.8269L56.5786 53.9066L57.6335 54.9575L59.8645 57.2087L61.5256 58.9102L61.6185 59.0233C61.6509 59.0638 61.6994 59.1203 61.7519 59.2012C62.0671 59.6619 62.1844 60.1267 62.2167 60.5107C62.2409 60.8138 62.2126 61.0603 62.1803 61.2179C62.1682 61.2867 62.152 61.3392 62.1439 61.3675V61.3837L62.1359 61.3917L66.6908 56.7964Z" fill="url(#paint8_linear_801_7557)"/>
<path fill-rule="evenodd" clip-rule="evenodd" d="M50.6132 54.0076C50.6132 55.6404 51.28 57.1156 52.3592 58.1867C53.4383 59.2577 54.9256 59.9205 56.5746 59.9205C58.2236 59.9205 59.7109 59.2577 60.79 58.1867C61.8691 57.1156 62.536 55.6445 62.536 54.0076C62.536 52.3708 61.8691 50.8996 60.79 49.8245C59.7109 48.7535 58.2195 48.0947 56.5746 48.0947C54.9296 48.0947 53.4423 48.7576 52.3592 49.8245C51.28 50.8956 50.6132 52.3708 50.6132 54.0076ZM50.1646 54.0076C50.1646 50.4955 53.0341 47.6501 56.5746 47.6501C60.115 47.6501 62.9886 50.4955 62.9886 54.0076C62.9886 57.5198 60.1191 60.3651 56.5746 60.3651C53.0301 60.3651 50.1646 57.5198 50.1646 54.0076Z" fill="white"/>
<path fill-rule="evenodd" clip-rule="evenodd" d="M56.5382 55.2686C57.1808 55.2686 57.7062 54.7432 57.7062 54.1006C57.7062 53.458 57.1808 52.9326 56.5382 52.9326C55.8956 52.9326 55.3702 53.458 55.3702 54.1006C55.3702 54.7432 55.8956 55.2686 56.5382 55.2686Z" fill="white"/>
</g>
<defs>
<linearGradient id="paint0_linear_801_7557" x1="54.1051" y1="57.2773" x2="53.7575" y2="48.9799" gradientUnits="userSpaceOnUse">
<stop stop-color="#B08C35"/>
<stop offset="1" stop-color="#71522C"/>
</linearGradient>
<linearGradient id="paint1_linear_801_7557" x1="55.8997" y1="48.1514" x2="53.9435" y2="49.1941" gradientUnits="userSpaceOnUse">
<stop stop-color="#B08C35"/>
<stop offset="1" stop-color="#78572D"/>
</linearGradient>
<linearGradient id="paint2_linear_801_7557" x1="60.0504" y1="47.9574" x2="54.0728" y2="47.9533" gradientUnits="userSpaceOnUse">
<stop stop-color="#B08C35"/>
<stop offset="0.58" stop-color="#FDDB8F" stop-opacity="0.61"/>
<stop offset="1" stop-color="#B08C35" stop-opacity="0"/>
</linearGradient>
<linearGradient id="paint3_linear_801_7557" x1="57.2536" y1="59.67" x2="59.2097" y2="58.6272" gradientUnits="userSpaceOnUse">
<stop stop-color="#B08C35"/>
<stop offset="1" stop-color="#78572D"/>
</linearGradient>
<linearGradient id="paint4_linear_801_7557" x1="53.0988" y1="59.864" x2="59.0804" y2="59.864" gradientUnits="userSpaceOnUse">
<stop stop-color="#B08C35"/>
<stop offset="0.58" stop-color="#FDDB8F" stop-opacity="0.61"/>
<stop offset="1" stop-color="#B08C35" stop-opacity="0"/>
</linearGradient>
<linearGradient id="paint5_linear_801_7557" x1="50.8152" y1="54.5856" x2="51.8579" y2="56.5458" gradientUnits="userSpaceOnUse">
<stop stop-color="#B08C35"/>
<stop offset="1" stop-color="#78572D"/>
</linearGradient>
<linearGradient id="paint6_linear_801_7557" x1="50.6212" y1="50.4348" x2="50.6212" y2="56.4164" gradientUnits="userSpaceOnUse">
<stop stop-color="#B08C35"/>
<stop offset="0.58" stop-color="#FDDB8F" stop-opacity="0.61"/>
<stop offset="1" stop-color="#B08C35" stop-opacity="0"/>
</linearGradient>
<linearGradient id="paint7_linear_801_7557" x1="62.3379" y1="53.2357" x2="61.2952" y2="51.2755" gradientUnits="userSpaceOnUse">
<stop stop-color="#B08C35"/>
<stop offset="1" stop-color="#78572D"/>
</linearGradient>
<linearGradient id="paint8_linear_801_7557" x1="62.5319" y1="57.3865" x2="62.5319" y2="51.4049" gradientUnits="userSpaceOnUse">
<stop stop-color="#B08C35"/>
<stop offset="0.58" stop-color="#FDDB8F" stop-opacity="0.61"/>
<stop offset="1" stop-color="#B08C35" stop-opacity="0"/>
</linearGradient>
<clipPath id="clip0_801_7557">
<rect width="80" height="23.8214" fill="white" transform="translate(14 42)"/>
</clipPath>
</defs>
</svg>
