<svg width="108" height="108" viewBox="0 0 108 108" fill="none" xmlns="http://www.w3.org/2000/svg">
<path d="M69.4382 50.0446H70.6994V52.9651H70.7215C70.81 52.825 70.917 52.6996 71.0423 52.589C71.1677 52.4784 71.3042 52.3862 71.4517 52.3124C71.6065 52.2313 71.7651 52.1723 71.9274 52.1354C72.097 52.0912 72.2629 52.0691 72.4252 52.0691C72.8751 52.0691 73.266 52.1502 73.5979 52.3124C73.9371 52.4673 74.2174 52.6849 74.4386 52.9651C74.6599 53.238 74.8258 53.5588 74.9365 53.9276C75.0471 54.2964 75.1024 54.6909 75.1024 55.1113C75.1024 55.4948 75.0508 55.8673 74.9475 56.2287C74.8516 56.5901 74.7005 56.9109 74.4939 57.1911C74.2948 57.464 74.0404 57.6853 73.7306 57.8549C73.4209 58.0172 73.0558 58.0983 72.6354 58.0983C72.4436 58.0983 72.2482 58.0835 72.0491 58.054C71.8573 58.0319 71.6729 57.984 71.4959 57.9102C71.3189 57.8365 71.1567 57.7406 71.0092 57.6226C70.869 57.5046 70.751 57.3497 70.6551 57.158H70.633V57.9434H69.4382V50.0446ZM73.8412 55.0892C73.8412 54.8311 73.8081 54.5803 73.7417 54.3369C73.6753 54.0936 73.5757 53.8797 73.443 53.6953C73.3102 53.5035 73.1443 53.3523 72.9451 53.2417C72.746 53.1237 72.5174 53.0647 72.2593 53.0647C71.7282 53.0647 71.3263 53.2491 71.0534 53.6178C70.7879 53.9866 70.6551 54.4771 70.6551 55.0892C70.6551 55.3768 70.6883 55.646 70.7547 55.8968C70.8285 56.1402 70.9354 56.3504 71.0755 56.5274C71.2157 56.7044 71.3816 56.8445 71.5734 56.9478C71.7725 57.051 72.0011 57.1026 72.2593 57.1026C72.5469 57.1026 72.7903 57.0436 72.9894 56.9256C73.1885 56.8076 73.3508 56.6564 73.4762 56.4721C73.6089 56.2803 73.7011 56.0664 73.7527 55.8304C73.8117 55.587 73.8412 55.34 73.8412 55.0892Z" fill="#223C77"/>
<path d="M80.9583 56.6712C80.9583 56.8261 80.9767 56.9367 81.0136 57.0031C81.0578 57.0695 81.139 57.1026 81.257 57.1026C81.2938 57.1026 81.3381 57.1026 81.3897 57.1026C81.4413 57.1026 81.5003 57.0953 81.5667 57.0805V57.9545C81.5225 57.9692 81.4635 57.984 81.3897 57.9987C81.3233 58.0209 81.2533 58.0393 81.1795 58.054C81.1058 58.0688 81.032 58.0799 80.9583 58.0872C80.8845 58.0946 80.8218 58.0983 80.7702 58.0983C80.5121 58.0983 80.2982 58.0467 80.1286 57.9434C79.9589 57.8402 79.8483 57.6595 79.7967 57.4013C79.5459 57.6447 79.2362 57.8217 78.8674 57.9324C78.506 58.043 78.1557 58.0983 77.8164 58.0983C77.5583 58.0983 77.3112 58.0614 77.0752 57.9877C76.8392 57.9213 76.629 57.8217 76.4446 57.689C76.2676 57.5488 76.1238 57.3755 76.0132 57.169C75.9099 56.9551 75.8583 56.7081 75.8583 56.4278C75.8583 56.0738 75.921 55.7862 76.0464 55.5649C76.1791 55.3437 76.3488 55.1703 76.5553 55.045C76.7691 54.9196 77.0052 54.8311 77.2633 54.7794C77.5288 54.7204 77.7943 54.6762 78.0598 54.6467C78.2884 54.6024 78.506 54.5729 78.7125 54.5582C78.919 54.5361 79.0997 54.5029 79.2546 54.4586C79.4168 54.4144 79.5422 54.348 79.6307 54.2595C79.7266 54.1636 79.7745 54.0235 79.7745 53.8391C79.7745 53.6769 79.734 53.5441 79.6529 53.4408C79.5791 53.3376 79.4832 53.2602 79.3652 53.2085C79.2546 53.1495 79.1292 53.1126 78.9891 53.0979C78.849 53.0758 78.7162 53.0647 78.5908 53.0647C78.2368 53.0647 77.9455 53.1385 77.7169 53.286C77.4882 53.4335 77.3592 53.6621 77.3297 53.9719H76.0685C76.0906 53.6031 76.1791 53.297 76.334 53.0536C76.4889 52.8103 76.6843 52.6148 76.9203 52.4673C77.1637 52.3198 77.4366 52.2166 77.739 52.1576C78.0414 52.0986 78.3511 52.0691 78.6683 52.0691C78.9485 52.0691 79.2251 52.0986 79.498 52.1576C79.7709 52.2166 80.0142 52.3124 80.2281 52.4452C80.4494 52.5779 80.6264 52.7513 80.7591 52.9651C80.8919 53.1716 80.9583 53.4261 80.9583 53.7285V56.6712ZM79.6971 55.0781C79.5053 55.2035 79.2693 55.281 78.9891 55.3105C78.7088 55.3326 78.4286 55.3695 78.1483 55.4211C78.0156 55.4432 77.8865 55.4764 77.7611 55.5207C77.6357 55.5575 77.5251 55.6128 77.4292 55.6866C77.3333 55.753 77.2559 55.8452 77.1969 55.9632C77.1453 56.0738 77.1195 56.2102 77.1195 56.3725C77.1195 56.5126 77.16 56.6306 77.2412 56.7265C77.3223 56.8224 77.4182 56.8998 77.5288 56.9588C77.6468 57.0104 77.7722 57.0473 77.9049 57.0695C78.0451 57.0916 78.1704 57.1026 78.2811 57.1026C78.4212 57.1026 78.5724 57.0842 78.7346 57.0473C78.8969 57.0104 79.0481 56.9478 79.1882 56.8593C79.3357 56.7708 79.4574 56.6601 79.5533 56.5274C79.6492 56.3872 79.6971 56.2176 79.6971 56.0185V55.0781Z" fill="#223C77"/>
<path d="M82.3153 52.2239H83.5101V53.0647L83.5322 53.0868C83.7239 52.7697 83.9747 52.5226 84.2845 52.3456C84.5942 52.1612 84.9372 52.0691 85.3133 52.0691C85.9402 52.0691 86.4343 52.2313 86.7957 52.5558C87.1571 52.8803 87.3378 53.3671 87.3378 54.0161V57.9434H86.0766V54.348C86.0619 53.8981 85.966 53.5736 85.789 53.3745C85.612 53.168 85.3354 53.0647 84.9593 53.0647C84.7454 53.0647 84.5537 53.1053 84.384 53.1864C84.2144 53.2602 84.0706 53.3671 83.9526 53.5072C83.8346 53.64 83.7424 53.7985 83.676 53.9829C83.6096 54.1673 83.5764 54.3627 83.5764 54.5693V57.9434H82.3153V52.2239Z" fill="#223C77"/>
<path d="M88.701 50.0446H89.9621V54.5361L92.2411 52.2239H93.7899L91.5994 54.3259L94 57.9434H92.4623L90.7144 55.1666L89.9621 55.8968V57.9434H88.701V50.0446Z" fill="#223C77"/>
<path d="M59.6815 43.827C59.2201 43.4858 58.8681 43.0428 58.4456 42.6852C57.4797 41.7838 55.9752 41.7971 55.0437 42.7287L55.0022 42.7711C54.8831 42.8704 54.7674 42.9747 54.6498 43.0847L51.1712 46.5357L51.1522 46.6217C50.8842 47.9302 51.7421 48.8879 51.7421 48.8879L53.6793 50.8743L56.7769 53.9979L57.8348 52.9379L60.0995 50.6942L61.8122 49.0245L61.9247 48.9298C61.9646 48.8956 62.0234 48.8495 62.1027 48.7973C62.5672 48.4786 63.0343 48.3615 63.4195 48.3303C63.7223 48.3047 63.9735 48.3354 64.1295 48.3666C64.2001 48.3799 64.2508 48.3937 64.2784 48.4019L64.2938 48.4065L64.3035 48.4096L59.6815 43.827Z" fill="#FFD200"/>
<path d="M67.7817 51.8538L64.2938 48.4064L64.2785 48.4018C64.2509 48.3936 64.1997 48.3793 64.1296 48.3665C63.9736 48.3353 63.7229 48.3041 63.4201 48.3302C63.0354 48.3614 62.5678 48.4785 62.1033 48.7972C62.024 48.8494 61.9652 48.8954 61.9253 48.9297L61.8128 49.0244L60.1 50.6941L57.8354 52.9378L56.778 53.9978L59.6652 56.8252L61.8496 59.0223L61.8532 59.0254L61.8552 59.0285C61.9401 59.119 62.2123 59.4434 62.399 60.0588C62.5919 60.6987 62.4936 61.2727 62.4614 61.4282L62.4507 61.4727L62.4532 61.4702L62.8922 61.0272L65.7774 58.1138L68.1024 55.7882C68.4927 55.3974 68.7209 54.9058 68.7905 54.3983C68.8099 54.2766 68.8237 54.1477 68.8253 54.009C68.8406 53.0713 68.3715 52.4718 67.7817 51.8538Z" fill="#223C77"/>
<path d="M62.3995 60.0588C62.2123 59.4434 61.9406 59.1191 61.8552 59.0285L61.8501 59.0224L59.6657 56.8252L56.7779 53.9973L53.9485 56.882L51.7493 59.0715C51.7493 59.0715 50.9451 59.8885 49.6222 59.7243C49.5444 59.714 49.4641 59.7028 49.3833 59.6849L53.8513 64.1882C54.4043 64.7412 55.1814 65.8446 56.537 65.9536C57.2747 66.0641 58.0522 65.8369 58.6185 65.2716L61.3283 62.5609L62.4348 61.4907V61.4892L62.4517 61.4718L62.4624 61.4273C62.4941 61.2717 62.5929 60.6978 62.4 60.0578" fill="#EE3524"/>
<path d="M61.8547 59.0286L61.8532 59.025L61.8501 59.0229L61.8552 59.0286H61.8547Z" fill="#EA4125"/>
<path d="M53.6799 50.8742L51.7421 48.8878C51.7421 48.8878 50.8847 47.9307 51.1523 46.6216L51.1712 46.5356L46.5855 51.0691C46.0095 51.6451 44.8345 52.4631 44.8099 53.9293C44.7951 54.8721 45.2606 55.4798 45.8438 56.1019L49.3066 59.6081H49.3055L49.3818 59.6843V59.6859C49.4636 59.7038 49.5439 59.715 49.6212 59.7242C50.9446 59.889 51.7488 59.072 51.7488 59.072L53.948 56.8825L56.7774 53.9978L53.6799 50.8747V50.8742Z" fill="#3F9244"/>
<path d="M50.3296 53.9972C50.3296 50.4664 53.2169 47.6042 56.7773 47.6042C60.3378 47.6042 63.2261 50.4664 63.2261 53.9972C63.2261 57.5281 60.3399 60.3892 56.7773 60.3892C53.2148 60.3892 50.3296 57.5281 50.3296 53.9972ZM50.7808 53.9972C50.7808 55.6409 51.4514 57.1244 52.538 58.1992C53.6256 59.275 55.1209 59.9406 56.7773 59.9406C58.4338 59.9406 59.9326 59.2745 61.0182 58.1992C62.1042 57.1244 62.7749 55.6409 62.7749 53.9972C62.7749 52.3536 62.1042 50.8701 61.0182 49.7927C59.9326 48.7169 58.4353 48.0519 56.7773 48.0519C55.1194 48.0519 53.6256 48.7169 52.538 49.7927C51.4514 50.8706 50.7808 52.3536 50.7808 53.9972Z" fill="white"/>
<path d="M57.7416 53.9042C57.7416 54.4306 57.3155 54.8577 56.7881 54.8577C56.2607 54.8577 55.833 54.4306 55.833 53.9042C55.833 53.3778 56.2612 52.9491 56.7881 52.9491C57.315 52.9491 57.7416 53.3763 57.7416 53.9042Z" fill="white"/>
<path d="M33.795 50.0858V55.6128C33.795 55.6128 31.6694 52.3971 31.3512 51.8584C30.8044 51.1187 30.1322 50.0853 28.9832 50.0853H26.5999V57.9276H28.9832V52.4022C28.9832 52.4022 31.1093 55.6163 31.4275 56.1566C31.9733 56.8942 32.5867 57.9276 33.795 57.9276H36.1599V50.0858H33.795Z" fill="#223C77"/>
<path d="M21.3839 51.2865C20.8677 52.5004 19.95 55.0787 19.95 55.0787L18.8286 51.8123C18.8286 51.8123 18.2455 50.0858 16.3783 50.0858H14V57.9286H16.3783V52.4871C16.3783 52.4871 16.6632 52.5423 17.2131 54.098C17.7631 55.6516 18.5749 57.9455 18.5749 57.9455H20.1776C20.1776 57.9455 21.3292 57.8708 22.0003 56.044L22.8633 53.6898C22.8633 53.6898 23.2956 52.4073 23.6916 52.2528V57.9286H26.0468V50.0858H23.6916C23.6916 50.0858 21.9011 50.0735 21.3839 51.2859" fill="#223C77"/>
<path d="M44.8488 55.9135L44.8314 55.8956H41.1666C40.1296 55.8956 39.2886 55.0587 39.2886 54.0258C39.2886 52.993 40.1296 52.1561 41.1666 52.1561H44.6866C44.9823 51.8282 45.3 51.5688 45.5215 51.3478L46.7968 50.0863H40.6683C38.4834 50.0863 36.7124 51.8497 36.7124 54.0264C36.7124 56.2031 38.4834 57.9664 40.6683 57.9664H46.8751L44.8483 55.914L44.8488 55.9135Z" fill="#223C77"/>
<path d="M62.73 53.9973C62.73 57.2841 60.0648 59.9493 56.778 59.9493C53.4912 59.9493 50.8259 57.2841 50.8259 53.9973C50.8259 50.7105 53.4912 48.0458 56.778 48.0458C60.0648 48.0458 62.73 50.7105 62.73 53.9973Z" fill="url(#paint0_radial_801_7201)"/>
<defs>
<radialGradient id="paint0_radial_801_7201" cx="0" cy="0" r="1" gradientUnits="userSpaceOnUse" gradientTransform="translate(56.7774 53.9973) scale(5.95203)">
<stop stop-color="white"/>
<stop offset="1" stop-color="white" stop-opacity="0"/>
</radialGradient>
</defs>
</svg>
