<svg width="108" height="108" viewBox="0 0 108 108" fill="none" xmlns="http://www.w3.org/2000/svg">
<path d="M52.1854 53.3568C52.2724 53.4003 52.3484 53.4546 52.4245 53.4981C52.4462 53.5089 52.468 53.5307 52.4897 53.5415C52.5332 53.5633 52.5658 53.5958 52.5984 53.6176L53.6633 54.2913V52.9113C53.6633 51.1617 52.2506 50.5858 50.5011 50.5858H49.9469V56.2256H52.1637C52.2072 56.2473 52.1528 53.3351 52.1854 53.3568Z" fill="#122448"/>
<path d="M52.1854 48.771C52.2724 48.8144 52.3484 48.8688 52.4245 48.9122C52.4462 48.9231 52.468 48.9448 52.4897 48.9557C52.5332 48.9883 52.5658 49.01 52.5984 49.0318L53.6633 49.7055V48.3254C53.6633 46.5759 52.2506 46 50.5011 46H49.9469V47.3474L52.0768 48.6949C52.1094 48.7275 52.1528 48.7492 52.1854 48.771Z" fill="#122448"/>
<path d="M58.1186 59.0184C57.7709 59.1488 57.3797 59.2574 56.9559 59.3335C56.5321 59.4096 56.1192 59.4422 55.728 59.4422C54.9021 59.4422 54.3479 59.214 54.0762 58.7467C53.9024 58.4533 53.7937 58.0838 53.7285 57.66L53.685 57.6926L53.6633 57.7035L50.4902 60.1485C50.6315 60.4636 50.8054 60.757 51.0227 61.0178C51.4248 61.5068 51.9572 61.8871 52.6201 62.1697C53.283 62.4413 54.1197 62.5826 55.1303 62.5826C55.9236 62.5826 56.5973 62.5174 57.1515 62.387C57.1623 62.387 57.1623 62.387 57.1623 62.3761C57.76 62.2349 58.1838 61.6915 58.1729 61.0721L58.1186 59.0184Z" fill="#122448"/>
<path d="M82.6876 49.7599C83.3179 49.5752 84.1329 49.4122 85.1326 49.2492C86.1323 49.0862 87.1755 49.0101 88.2731 49.0101C89.3815 49.0101 90.316 49.1514 91.0441 49.4448C91.783 49.7382 92.3698 50.1403 92.8045 50.6727C93.2391 51.2052 93.5434 51.8354 93.7281 52.5635C93.9129 53.2916 93.9998 54.1065 93.9998 54.9976V62.3977H90.2834V55.454C90.2834 54.2587 90.1204 53.4111 89.8161 52.9112C89.501 52.4114 88.9142 52.1614 88.0449 52.1614C87.7732 52.1614 87.5015 52.1723 87.1973 52.194C86.893 52.2158 86.6322 52.2484 86.404 52.281V62.3977H82.6985V49.7599H82.6876Z" fill="#122448"/>
<path d="M80.0796 55.8345C80.0796 56.8668 79.9275 57.8013 79.6341 58.6598C79.3298 59.5182 78.906 60.2463 78.3409 60.8548C77.7759 61.4633 77.1021 61.9306 76.3089 62.2566C75.5265 62.5826 74.6354 62.7565 73.6574 62.7565C72.6903 62.7565 71.821 62.5935 71.0277 62.2566C70.2344 61.9197 69.5607 61.4525 68.9956 60.8548C68.4306 60.2463 67.9959 59.5182 67.6808 58.6598C67.3656 57.8013 67.2135 56.8559 67.2135 55.8345C67.2135 54.8021 67.3765 53.8676 67.7025 53.02C68.0285 52.1724 68.474 51.4552 69.05 50.8576C69.6259 50.2599 70.2996 49.7927 71.0929 49.4667C71.8753 49.1298 72.7446 48.9668 73.6683 48.9668C74.6137 48.9668 75.483 49.1298 76.2763 49.4667C77.0695 49.7927 77.7433 50.2599 78.3083 50.8576C78.8734 51.4552 79.3081 52.1833 79.6232 53.02C79.9166 53.8676 80.0796 54.8021 80.0796 55.8345ZM76.2871 55.8345C76.2871 54.6935 76.0589 53.7915 75.6025 53.1287C75.1461 52.4767 74.4941 52.1507 73.6465 52.1507C72.799 52.1507 72.147 52.4767 71.6797 53.1287C71.2124 53.7807 70.9842 54.6826 70.9842 55.8345C70.9842 56.9754 71.2124 57.8882 71.6797 58.562C72.147 59.2357 72.799 59.5726 73.6465 59.5726C74.4941 59.5726 75.1461 59.2357 75.6025 58.562C76.0589 57.8882 76.2871 56.9754 76.2871 55.8345Z" fill="#122448"/>
<path d="M64.5838 62.4087H63.3776C61.9976 62.4087 60.8674 61.2894 60.8674 59.9093V49.3145H62.4214C63.6167 49.3145 64.5838 50.2816 64.5838 51.4769V62.4087Z" fill="#122448"/>
<path d="M47.4578 55.8345C47.4578 56.8668 47.3056 57.8013 47.0122 58.6598C46.708 59.5182 46.2842 60.2463 45.7191 60.8548C45.154 61.4633 44.4803 61.9306 43.6871 62.2566C42.9047 62.5826 42.0136 62.7565 41.0356 62.7565C40.0685 62.7565 39.1991 62.5935 38.4059 62.2566C37.6126 61.9197 36.9389 61.4525 36.3738 60.8548C35.8087 60.2463 35.3632 59.5182 35.0589 58.6598C34.7438 57.8013 34.5808 56.8559 34.5808 55.8345C34.5808 54.8021 34.7438 53.8676 35.0698 53.02C35.3958 52.1724 35.8413 51.4552 36.4173 50.8576C36.9932 50.2599 37.6669 49.7927 38.4602 49.4667C39.2535 49.1298 40.1119 48.9668 41.0356 48.9668C41.981 48.9668 42.8503 49.1298 43.6436 49.4667C44.4368 49.7927 45.1106 50.2599 45.6757 50.8576C46.2407 51.4552 46.6754 52.1833 46.9905 53.02C47.2948 53.8676 47.4578 54.8021 47.4578 55.8345ZM43.6653 55.8345C43.6653 54.6935 43.4371 53.7915 42.9807 53.1287C42.5243 52.4767 41.8723 52.1507 41.0247 52.1507C40.1771 52.1507 39.5251 52.4767 39.0579 53.1287C38.5906 53.7807 38.3624 54.6826 38.3624 55.8345C38.3624 56.9754 38.5906 57.8882 39.0579 58.562C39.5251 59.2357 40.1771 59.5726 41.0247 59.5726C41.8723 59.5726 42.5243 59.2357 42.9807 58.562C43.448 57.8882 43.6653 56.9754 43.6653 55.8345Z" fill="#122448"/>
<path d="M21.1827 55.4541C21.1827 54.2588 21.0306 53.4112 20.7263 52.9113C20.4221 52.4115 19.8896 52.1616 19.1507 52.1616C18.9225 52.1616 18.6834 52.1724 18.4335 52.205C18.1835 52.2268 17.9445 52.2594 17.7054 52.292V62.3979H13.9999V49.7601C14.315 49.6731 14.6845 49.5862 15.1083 49.4993C15.5321 49.4123 15.9776 49.3254 16.4557 49.2493C16.9339 49.1733 17.412 49.1189 17.9119 49.0755C18.4117 49.032 18.9007 49.0103 19.3789 49.0103C20.3243 49.0103 21.0958 49.1298 21.6826 49.3689C22.2694 49.6079 22.7584 49.9013 23.1387 50.2273C23.6712 49.847 24.2797 49.5427 24.9752 49.3254C25.6598 49.1081 26.3009 48.9994 26.8768 48.9994C27.92 48.9994 28.7785 49.1407 29.4522 49.4341C30.126 49.7274 30.6584 50.1404 31.0605 50.662C31.4626 51.1944 31.7342 51.8247 31.8755 52.5528C32.0276 53.2808 32.1037 54.0958 32.1037 54.9977V62.3979H28.3982V55.4541C28.3982 54.2588 28.246 53.4112 27.9418 52.9113C27.6375 52.4115 27.105 52.1616 26.3552 52.1616C26.1596 52.1616 25.8771 52.2159 25.5185 52.3137C25.1599 52.4115 24.8665 52.5419 24.6383 52.6832C24.7578 53.0635 24.823 53.4655 24.8556 53.8893C24.8882 54.3131 24.91 54.7695 24.91 55.2477V62.3979H21.1936V55.4541H21.1827Z" fill="#122448"/>
<path d="M56.7277 51.7268L53.6524 49.7164L52.5984 49.0427C52.5658 49.0101 52.5223 48.9884 52.4897 48.9667C52.468 48.9558 52.4462 48.934 52.4245 48.9232C52.3484 48.8688 52.2724 48.8254 52.1963 48.7819H52.1854C52.142 48.7602 52.1094 48.7385 52.0768 48.7167L49.9469 47.3693V51.466L50.4902 51.7811C52.0007 52.6721 52.055 54.8237 50.6098 55.8017L49.9578 56.2364V56.9318C49.9578 57.7794 50.0338 58.551 50.1968 59.2464C50.2729 59.5724 50.3707 59.8767 50.5011 60.1592L53.6742 57.7142L53.6959 57.7034L53.7394 57.6708L53.8806 57.5621L56.8255 55.4214C58.0751 54.4869 58.0317 52.5852 56.7277 51.7268Z" fill="#DCA32D"/>
</svg>
