<svg width="108" height="108" viewBox="0 0 108 108" fill="none" xmlns="http://www.w3.org/2000/svg">
<g clip-path="url(#clip0_801_7584)">
<path d="M29.1663 53.4628C29.2008 53.48 29.2311 53.5016 29.2613 53.5189C29.2699 53.5232 29.2785 53.5318 29.2872 53.5361C29.3044 53.5448 29.3174 53.5577 29.3303 53.5663L29.7533 53.8339V53.2858C29.7533 52.5909 29.1922 52.3622 28.4973 52.3622H28.2772V54.6022H29.1577C29.1749 54.6108 29.1534 53.4541 29.1663 53.4628Z" fill="#122448"/>
<path d="M29.1663 51.6413C29.2008 51.6586 29.2311 51.6802 29.2613 51.6975C29.2699 51.7018 29.2785 51.7104 29.2872 51.7147C29.3044 51.7277 29.3174 51.7363 29.3303 51.7449L29.7533 52.0125V51.4644C29.7533 50.7695 29.1922 50.5408 28.4973 50.5408H28.2772V51.076L29.1232 51.6111C29.1361 51.6241 29.1534 51.6327 29.1663 51.6413Z" fill="#122448"/>
<path d="M31.5229 55.7114C31.3848 55.7632 31.2294 55.8063 31.0611 55.8365C30.8927 55.8667 30.7287 55.8797 30.5733 55.8797C30.2453 55.8797 30.0252 55.7891 29.9173 55.6035C29.8483 55.4869 29.8051 55.3402 29.7792 55.1719L29.7619 55.1848L29.7533 55.1891L28.493 56.1602C28.5491 56.2854 28.6182 56.4019 28.7045 56.5055C28.8642 56.6997 29.0757 56.8508 29.339 56.963C29.6022 57.0709 29.9346 57.127 30.336 57.127C30.651 57.127 30.9186 57.1011 31.1387 57.0493C31.1431 57.0493 31.1431 57.0493 31.1431 57.045C31.3804 56.9889 31.5488 56.7731 31.5444 56.5271L31.5229 55.7114Z" fill="#122448"/>
<path d="M41.2814 52.0341C41.5317 51.9608 41.8554 51.896 42.2525 51.8313C42.6495 51.7665 43.0639 51.7363 43.4998 51.7363C43.94 51.7363 44.3112 51.7924 44.6004 51.909C44.8938 52.0255 45.1269 52.1852 45.2996 52.3967C45.4722 52.6082 45.593 52.8585 45.6664 53.1477C45.7398 53.4368 45.7743 53.7605 45.7743 54.1144V57.0536H44.2982V54.2957C44.2982 53.8209 44.2335 53.4843 44.1127 53.2858C43.9875 53.0872 43.7544 52.988 43.4092 52.988C43.3013 52.988 43.1934 52.9923 43.0725 53.0009C42.9517 53.0095 42.8481 53.0225 42.7574 53.0354V57.0536H41.2857V52.0341H41.2814Z" fill="#122448"/>
<path d="M40.2455 54.4468C40.2455 54.8568 40.1851 55.228 40.0685 55.569C39.9477 55.9099 39.7794 56.1991 39.5549 56.4408C39.3305 56.6825 39.0629 56.8681 38.7479 56.9976C38.4371 57.127 38.0832 57.1961 37.6948 57.1961C37.3106 57.1961 36.9654 57.1314 36.6503 56.9976C36.3352 56.8638 36.0676 56.6782 35.8432 56.4408C35.6188 56.1991 35.4461 55.9099 35.321 55.569C35.1958 55.228 35.1354 54.8525 35.1354 54.4468C35.1354 54.0368 35.2001 53.6656 35.3296 53.329C35.4591 52.9923 35.636 52.7075 35.8648 52.4701C36.0935 52.2327 36.3611 52.0471 36.6762 51.9177C36.9869 51.7839 37.3322 51.7191 37.6991 51.7191C38.0746 51.7191 38.4198 51.7839 38.7349 51.9177C39.05 52.0471 39.3176 52.2327 39.542 52.4701C39.7664 52.7075 39.9391 52.9966 40.0642 53.329C40.1808 53.6656 40.2455 54.0368 40.2455 54.4468ZM38.7392 54.4468C38.7392 53.9936 38.6486 53.6354 38.4673 53.3721C38.286 53.1132 38.0271 52.9837 37.6904 52.9837C37.3538 52.9837 37.0948 53.1132 36.9092 53.3721C36.7237 53.6311 36.633 53.9893 36.633 54.4468C36.633 54.9 36.7237 55.2625 36.9092 55.5301C37.0948 55.7977 37.3538 55.9315 37.6904 55.9315C38.0271 55.9315 38.286 55.7977 38.4673 55.5301C38.6486 55.2625 38.7392 54.9 38.7392 54.4468Z" fill="#122448"/>
<path d="M34.0909 57.0579H33.6119C33.0637 57.0579 32.6149 56.6134 32.6149 56.0653V51.8572H33.2321C33.7068 51.8572 34.0909 52.2413 34.0909 52.7161V57.0579Z" fill="#122448"/>
<path d="M27.2889 54.4468C27.2889 54.8568 27.2285 55.228 27.1119 55.569C26.9911 55.9099 26.8228 56.1991 26.5983 56.4408C26.3739 56.6825 26.1063 56.8681 25.7912 56.9976C25.4805 57.127 25.1266 57.1961 24.7381 57.1961C24.354 57.1961 24.0087 57.1314 23.6937 56.9976C23.3786 56.8638 23.111 56.6782 22.8866 56.4408C22.6621 56.1991 22.4852 55.9099 22.3643 55.569C22.2392 55.228 22.1744 54.8525 22.1744 54.4468C22.1744 54.0368 22.2392 53.6656 22.3687 53.329C22.4981 52.9923 22.6751 52.7075 22.9038 52.4701C23.1326 52.2327 23.4002 52.0471 23.7152 51.9177C24.0303 51.7839 24.3713 51.7191 24.7381 51.7191C25.1136 51.7191 25.4589 51.7839 25.774 51.9177C26.089 52.0471 26.3566 52.2327 26.5811 52.4701C26.8055 52.7075 26.9781 52.9966 27.1033 53.329C27.2241 53.6656 27.2889 54.0368 27.2889 54.4468ZM25.7826 54.4468C25.7826 53.9936 25.692 53.6354 25.5107 53.3721C25.3294 53.1132 25.0705 52.9837 24.7338 52.9837C24.3972 52.9837 24.1382 53.1132 23.9526 53.3721C23.767 53.6311 23.6764 53.9893 23.6764 54.4468C23.6764 54.9 23.767 55.2625 23.9526 55.5301C24.1382 55.7977 24.3972 55.9315 24.7338 55.9315C25.0705 55.9315 25.3294 55.7977 25.5107 55.5301C25.6963 55.2625 25.7826 54.9 25.7826 54.4468Z" fill="#122448"/>
<path d="M16.8529 54.2957C16.8529 53.821 16.7924 53.4843 16.6716 53.2858C16.5507 53.0873 16.3393 52.988 16.0458 52.988C15.9551 52.988 15.8602 52.9923 15.7609 53.0053C15.6616 53.0139 15.5667 53.0268 15.4717 53.0398V57.0537H14V52.0342C14.1252 51.9996 14.2719 51.9651 14.4402 51.9306C14.6086 51.8961 14.7855 51.8615 14.9754 51.8313C15.1653 51.8011 15.3552 51.7795 15.5538 51.7623C15.7523 51.745 15.9465 51.7364 16.1364 51.7364C16.5119 51.7364 16.8183 51.7838 17.0514 51.8788C17.2845 51.9738 17.4787 52.0903 17.6297 52.2198C17.8412 52.0687 18.0829 51.9479 18.3591 51.8615C18.631 51.7752 18.8857 51.7321 19.1144 51.7321C19.5288 51.7321 19.8697 51.7882 20.1373 51.9047C20.4049 52.0212 20.6164 52.1852 20.7761 52.3924C20.9358 52.6039 21.0437 52.8542 21.0998 53.1434C21.1602 53.4326 21.1904 53.7563 21.1904 54.1145V57.0537H19.7187V54.2957C19.7187 53.821 19.6582 53.4843 19.5374 53.2858C19.4166 53.0873 19.2051 52.988 18.9073 52.988C18.8296 52.988 18.7174 53.0096 18.5749 53.0484C18.4325 53.0873 18.316 53.1391 18.2253 53.1952C18.2728 53.3462 18.2987 53.5059 18.3117 53.6742C18.3246 53.8426 18.3332 54.0238 18.3332 54.2137V57.0537H16.8572V54.2957H16.8529Z" fill="#122448"/>
<path d="M30.9704 52.8153L29.749 52.0169L29.3303 51.7493C29.3174 51.7363 29.3001 51.7277 29.2872 51.7191C29.2785 51.7148 29.2699 51.7061 29.2613 51.7018C29.2311 51.6802 29.2008 51.663 29.1706 51.6457H29.1663C29.149 51.6371 29.1361 51.6284 29.1232 51.6198L28.2772 51.0846V52.7117L28.493 52.8369C29.0929 53.1908 29.1145 54.0454 28.5405 54.4338L28.2815 54.6065V54.8827C28.2815 55.2193 28.3117 55.5258 28.3765 55.802C28.4067 55.9315 28.4455 56.0523 28.4973 56.1645L29.7576 55.1934L29.7662 55.1891L29.7835 55.1762L29.8396 55.133L31.0092 54.2828C31.5056 53.9116 31.4883 53.1563 30.9704 52.8153ZM56.0204 53.0441L54.5961 51.6371H54.5831C54.5745 51.6371 54.5659 51.6327 54.5572 51.6327C54.5054 51.6241 54.4062 51.6069 54.2896 51.6198C54.1084 51.6327 53.94 51.6932 53.789 51.7968C53.7631 51.814 53.7415 51.827 53.7242 51.8442C53.707 51.8572 53.694 51.8701 53.6811 51.8831L53.4696 52.0902C53.9228 52.565 54.2033 53.2038 54.2033 53.9116C54.2033 54.5978 53.94 55.2236 53.5041 55.6941L53.694 55.884L53.7242 55.9056V55.9185L53.7286 55.9228L53.7415 55.9358C53.7458 55.9401 53.7501 55.9487 53.7545 55.953C53.7588 55.9574 53.7631 55.966 53.7674 55.9703C53.7717 55.9789 53.776 55.9833 53.7847 55.9919C53.789 56.0005 53.7933 56.0048 53.7976 56.0135C53.8019 56.0221 53.8106 56.0307 53.8149 56.0394C53.8192 56.048 53.8235 56.0566 53.8278 56.0609C53.8321 56.0696 53.8408 56.0825 53.8451 56.0955L53.858 56.1214C53.8667 56.1343 53.871 56.1473 53.8753 56.1602L53.8883 56.1861C53.8969 56.2034 53.9012 56.2206 53.9098 56.2379L53.9228 56.2638C53.9314 56.2897 53.94 56.3199 53.9487 56.3501C53.9573 56.3846 53.9659 56.4192 53.9746 56.4494C53.9789 56.4623 53.9789 56.471 53.9789 56.4839C53.9832 56.5055 53.9875 56.5271 53.9875 56.5443C53.9875 56.5573 53.9918 56.5702 53.9918 56.5832C53.9918 56.6004 53.9962 56.6177 53.9962 56.635V56.7083L55.1874 55.5042L56.1498 54.5417C56.2923 54.3993 56.3829 54.218 56.4088 54.0195C56.4174 53.9634 56.4217 53.9159 56.4217 53.8684C56.4304 53.5059 56.2362 53.2728 56.0204 53.0441ZM49.7535 51.9349C50.224 51.5162 50.8498 51.2616 51.5317 51.2616C52.2266 51.2616 52.8611 51.5248 53.3358 51.9564L53.5516 51.745C53.5646 51.732 53.5732 51.7234 53.5861 51.7148C53.5905 51.7104 53.5991 51.7061 53.6034 51.6975C53.6163 51.6889 53.6293 51.6759 53.6422 51.6673C53.6552 51.6586 53.6681 51.6457 53.6854 51.6371C53.7933 51.5637 53.9142 51.5076 54.0393 51.4687C54.1127 51.4472 54.1947 51.4342 54.2724 51.4256C54.3112 51.4213 54.3458 51.4213 54.3803 51.4213H54.3846L52.6711 49.7251C52.5589 49.6388 52.4597 49.5438 52.3647 49.4489C52.2957 49.3798 52.2309 49.3151 52.1575 49.2546C51.9806 49.0906 51.7562 49 51.5188 49C51.2728 49 51.044 49.095 50.8714 49.2676L50.8498 49.2892C50.8023 49.328 50.7592 49.3669 50.716 49.41L50.7074 49.4187L49.2917 50.8257V50.83C49.1925 51.3263 49.5119 51.6889 49.5119 51.6932L49.7535 51.9349ZM53.8149 56.6522C53.8149 56.6393 53.8106 56.622 53.8106 56.6048C53.8106 56.5961 53.8106 56.5832 53.8063 56.5702C53.8063 56.553 53.8019 56.5357 53.7976 56.5141C53.7976 56.5055 53.7933 56.4925 53.7933 56.4839C53.789 56.4537 53.7804 56.4278 53.7717 56.3976C53.7631 56.3674 53.7545 56.3415 53.7458 56.3156C53.7415 56.307 53.7372 56.2983 53.7372 56.2897C53.7329 56.2724 53.7242 56.2552 53.7199 56.2422L53.707 56.2163C53.7027 56.2034 53.694 56.1904 53.6897 56.1818L53.6768 56.1559L53.6638 56.13C53.6595 56.1214 53.6552 56.1127 53.6509 56.1084C53.6466 56.0998 53.6422 56.0955 53.6379 56.0868C53.6336 56.0782 53.6293 56.0739 53.625 56.0696C53.6207 56.0653 53.6163 56.0566 53.612 56.0523C53.6077 56.048 53.6034 56.0437 53.6034 56.0394C53.5991 56.035 53.5948 56.0307 53.5948 56.0264L53.5861 56.0178L53.5775 56.0092L53.5646 55.9962L53.3833 55.8149C52.9042 56.2681 52.2568 56.5486 51.5404 56.5486C50.8369 56.5486 50.1981 56.2767 49.719 55.8365L49.5248 56.0307C49.5205 56.035 49.4644 56.0912 49.3651 56.1516C49.3608 56.1559 49.3565 56.1559 49.3522 56.1602C49.3435 56.1645 49.3306 56.1732 49.3219 56.1775C49.3176 56.1818 49.3133 56.1861 49.3047 56.1861C49.2961 56.1904 49.2831 56.1991 49.2702 56.2034C49.2615 56.2077 49.2572 56.212 49.2486 56.2163C49.2356 56.2206 49.227 56.2249 49.214 56.2293L49.1882 56.2422C49.1752 56.2465 49.1666 56.2508 49.1536 56.2552C49.145 56.2595 49.132 56.2638 49.1234 56.2681C49.1148 56.2724 49.1018 56.2767 49.0889 56.2767C49.0759 56.2811 49.063 56.2854 49.0544 56.2897C49.0414 56.294 49.0328 56.294 49.0198 56.2983C49.0069 56.3026 48.9939 56.307 48.9767 56.307C48.9637 56.3113 48.9551 56.3113 48.9421 56.3113C48.9292 56.3156 48.9119 56.3156 48.8947 56.3199C48.8817 56.3199 48.8688 56.3242 48.8601 56.3242C48.8429 56.3242 48.8299 56.3285 48.8127 56.3285H48.722L50.3923 58.0118C50.4312 58.0506 50.47 58.0938 50.5132 58.1369C50.7246 58.3657 51.0095 58.6807 51.4454 58.7153C51.4972 58.7239 51.5447 58.7282 51.5878 58.7282C51.8295 58.7282 52.0626 58.6333 52.2352 58.4606L53.3574 57.3385L53.8019 56.9069V56.8939C53.8019 56.8896 53.8019 56.8853 53.8063 56.8767C53.8063 56.868 53.8106 56.8594 53.8106 56.8551C53.8106 56.8465 53.8106 56.8421 53.8149 56.8335C53.8149 56.8249 53.8149 56.8162 53.8192 56.8033V56.7774V56.7429V56.7127V56.6738C53.8149 56.6738 53.8149 56.6652 53.8149 56.6522ZM49.5809 55.7113C49.1364 55.2409 48.8645 54.6065 48.8645 53.9073C48.8645 53.1908 49.1536 52.5391 49.6198 52.0643L49.3824 51.8227C49.3824 51.8227 49.3781 51.8183 49.3781 51.814L49.3737 51.8097C49.3694 51.8054 49.3694 51.8011 49.3651 51.7968C49.3651 51.7924 49.3608 51.7924 49.3608 51.7881C49.3565 51.7838 49.3522 51.7795 49.3478 51.7709C49.3435 51.7665 49.3435 51.7622 49.3392 51.7579C49.3349 51.7536 49.3306 51.745 49.3263 51.7363C49.3219 51.732 49.3176 51.7277 49.3176 51.7234C49.3133 51.7148 49.3047 51.7061 49.3004 51.6975C49.2961 51.6932 49.2917 51.6889 49.2917 51.6802C49.2831 51.6673 49.2788 51.6586 49.2702 51.6457C49.2702 51.6414 49.2658 51.6371 49.2658 51.6327C49.2572 51.6155 49.2486 51.5982 49.2356 51.581C49.2313 51.5766 49.2313 51.568 49.227 51.5637C49.2184 51.5507 49.214 51.5378 49.2054 51.5205C49.2011 51.5119 49.1968 51.5033 49.1968 51.4946C49.1925 51.4817 49.1838 51.4687 49.1795 51.4515C49.1752 51.4428 49.1709 51.4342 49.1709 51.4256C49.1666 51.4126 49.1623 51.3954 49.1579 51.3824C49.1536 51.3738 49.1493 51.3608 49.1493 51.3522C49.145 51.3349 49.1407 51.322 49.1364 51.3047C49.132 51.2961 49.132 51.2832 49.1277 51.2745L49.1148 51.2098C49.1148 51.2012 49.1105 51.1968 49.1105 51.1882C49.1061 51.158 49.1018 51.1321 49.1018 51.1019V51.0803V51.0199L47.3884 52.7117C47.3495 52.7506 47.3064 52.7894 47.2632 52.8326C47.0215 53.0527 46.6892 53.3591 46.6806 53.8339C46.6762 54.2008 46.8662 54.4381 47.0863 54.6712L48.5278 56.13C48.5494 56.1343 48.571 56.1386 48.5925 56.1386C48.6357 56.1429 48.6832 56.1473 48.7263 56.1473C49.1407 56.1473 49.3953 55.8969 49.3953 55.8969L49.5809 55.7113Z" fill="#DCA32D"/>
<path d="M51.3117 53.5447C51.3678 53.5102 51.4369 53.4886 51.5146 53.4886C51.5879 53.4886 51.6527 53.5102 51.7131 53.5447L51.8728 53.385L52.7791 52.4873L53.1244 52.1506C52.6971 51.7665 52.1361 51.5334 51.5146 51.5334C50.9017 51.5334 50.3449 51.7622 49.922 52.1334L50.3406 52.5607L51.3117 53.5447ZM51.8383 53.6699C51.8728 53.726 51.8944 53.795 51.8944 53.8684C51.8944 53.9418 51.8728 54.0065 51.8383 54.0669L52.7273 54.9344L53.2884 55.4998C53.6725 55.0812 53.9099 54.5201 53.9099 53.9072C53.9099 53.2728 53.6596 52.6988 53.2539 52.2758L52.9043 52.6168L51.8383 53.6699ZM51.7131 54.1921C51.657 54.2266 51.5879 54.2482 51.5146 54.2482C51.4412 54.2482 51.3764 54.2266 51.316 54.1921L50.4442 55.0855L49.8831 55.6466C50.3104 56.0393 50.8844 56.281 51.5146 56.281C52.1576 56.281 52.736 56.0307 53.1676 55.625L52.6065 55.0596L51.7131 54.1921ZM51.1909 54.0669C51.1563 54.0065 51.1347 53.9418 51.1347 53.8684C51.1347 53.795 51.1563 53.7303 51.1909 53.6699L50.2111 52.6815L49.7925 52.2499C49.3738 52.6772 49.1149 53.2598 49.1149 53.9029C49.1149 54.5287 49.3566 55.0941 49.7536 55.5171L50.3147 54.956L51.1909 54.0669Z" fill="#DCA32D"/>
<path d="M63.8046 51.9735C64.4497 51.8035 65.0988 51.7373 65.7361 51.7357C66.4426 51.7357 66.9579 51.9917 67.2862 52.295C67.6145 52.5984 67.7808 53.0431 67.7808 53.6332V56.9064C67.206 57.0604 66.3165 57.186 65.456 57.1456C64.6615 57.0413 63.6488 57.0003 63.359 56.2098C63.2884 56.0103 63.251 55.7984 63.251 55.5698C63.251 55.3163 63.2925 55.0836 63.3757 54.8758C63.4588 54.6638 63.5876 54.481 63.7538 54.3272C63.9201 54.1734 64.1362 54.0488 64.3897 53.9615C64.6473 53.8742 64.9507 53.8285 65.2998 53.8285H66.2615V53.6706C66.2615 53.5792 66.2532 53.4919 66.2324 53.4088C66.2116 53.3257 66.1742 53.2509 66.1119 53.1885C66.0495 53.1262 65.9664 53.0763 65.8542 53.0389C65.742 53.0015 65.7029 52.9807 65.52 52.9807C65.4245 52.9807 65.3122 52.9849 65.1876 52.9974C63.7309 53.2396 63.9426 52.4885 63.8046 51.9735ZM66.3188 54.8209H65.7095C65.6181 54.8209 65.5225 54.8292 65.4186 54.8417C65.3147 54.8541 65.2191 54.8832 65.1318 54.9331C65.0446 54.983 64.9739 55.0536 64.9116 55.145C64.8534 55.2365 64.8243 55.3038 64.8243 55.4617C64.8243 55.6903 64.8991 55.8482 65.0529 55.9396C65.2066 56.0311 65.4103 56.0236 65.6721 56.0236C65.7095 56.0236 66.2565 56.0486 66.3188 56.0236V54.8209Z" fill="#142B4B"/>
<path d="M69.1321 52.0018C69.3839 51.9279 69.7096 51.8628 70.1091 51.7977C70.5086 51.7325 70.9254 51.7021 71.364 51.7021C71.8069 51.7021 72.1803 51.7586 72.4712 51.8758C72.7665 51.9931 73.001 52.1537 73.1747 52.3665C73.3484 52.5793 73.47 52.8311 73.5438 53.1221C73.6176 53.413 73.6523 53.7386 73.6523 54.0947V57.0518H72.1673V54.2771C72.1673 53.7994 72.1022 53.4607 71.9806 53.261C71.8547 53.0613 71.6202 52.9614 71.2728 52.9614C71.1642 52.9614 71.0557 52.9657 70.9341 52.9744C70.8125 52.9831 70.7083 52.9961 70.6171 53.0092V57.0518H69.1364V52.0018H69.1321Z" fill="#142B4B"/>
<path d="M82.2489 57.0819H81.7672C81.2162 57.0819 80.7649 56.6349 80.7649 56.0839V51.8531H81.3854C81.8627 51.8531 82.2489 52.2393 82.2489 52.7166V57.0819Z" fill="#142B4B"/>
<path d="M83.6105 52.0018C83.8623 51.9279 84.188 51.8628 84.5875 51.7977C84.987 51.7325 85.4038 51.7021 85.8424 51.7021C86.2853 51.7021 86.6587 51.7586 86.9496 51.8758C87.2449 51.9931 87.4794 52.1537 87.6531 52.3665C87.8268 52.5793 87.9483 52.8311 88.0222 53.1221C88.096 53.413 88.1307 53.7386 88.1307 54.0947V57.0518H86.6457V54.2771C86.6457 53.7994 86.5806 53.4607 86.459 53.261C86.333 53.0613 86.0986 52.9614 85.7512 52.9614C85.6426 52.9614 85.5341 52.9657 85.4125 52.9744C85.2909 52.9831 85.1867 52.9961 85.0955 53.0092V57.0518H83.6148V52.0018H83.6105Z" fill="#142B4B"/>
<path d="M74.9832 53.2069V49.3621H75.4755C75.8537 49.3621 76.0293 49.4236 76.2336 49.6279C76.4951 49.8894 76.4995 49.9241 76.5019 51.7669L76.5045 53.6401L76.9622 53.1525C77.214 52.8843 77.5787 52.4803 77.7725 52.2546L78.1251 51.8443C78.7131 51.8653 79.3012 51.8368 79.8892 51.8578L78.8332 53.0173L77.7772 54.1273L78.3329 54.7354C78.8784 55.3322 79.25 55.8375 79.7377 56.6456L79.9829 57.0517H79.1159H78.249L77.7614 56.3207C77.4933 55.9186 77.0997 55.4217 76.8867 55.2164L76.4994 54.8431V55.9474V57.0517H75.7413H74.9832V53.2069Z" fill="#142B4B"/>
<path d="M58.0614 57.0338L57.6543 56.9307V53.1464V49.3621H58.3423C59.1349 49.3621 59.1719 50.0744 59.1719 50.7594L59.1706 51.968L59.5111 51.8314C60.6371 51.5297 61.3587 51.8647 61.8877 52.3968C62.3426 52.8667 62.5283 53.5948 62.5438 54.3473C62.596 55.7849 61.9565 56.6004 60.935 57.045C60.4801 57.235 58.8303 57.2059 58.0614 57.0338ZM60.9224 54.8398C61.0089 54.0065 61.0228 53.2621 60.1649 53.0323C59.752 52.9647 59.6006 53.0239 59.1786 53.1629V55.7538C60.2422 56.143 60.8306 55.7231 60.9224 54.8398Z" fill="#142B4B"/>
<path d="M89.3757 58.4837L89.7611 57.3294C90.6853 57.6262 92.1387 58.216 92.4342 56.8525C92.4342 56.8525 92.4671 56.6768 92.4552 56.5651C90.3775 57.1218 89.2498 56.1233 89.2288 54.3118C89.2288 52.4305 90.19 51.7266 92.0394 51.7266C92.5587 51.7645 93.4873 51.852 93.9999 51.9894V54.8337V57.1811C94.0067 57.8451 93.5279 58.2735 92.9499 58.5933C92.0519 59.1117 90.4972 59.1313 89.3757 58.4837ZM92.4636 55.3349C92.4636 54.8335 92.4755 54.8348 92.4755 54.1303V52.9362C91.1576 52.7904 90.81 53.5567 90.7505 54.0492C90.6916 54.4919 90.751 54.9359 91.0649 55.2245C91.3794 55.5053 91.884 55.6027 92.4636 55.3349Z" fill="#142B4B"/>
</g>
<defs>
<clipPath id="clip0_801_7584">
<rect width="80" height="9.97631" fill="white" transform="translate(14 49)"/>
</clipPath>
</defs>
</svg>
