<svg width="108" height="108" viewBox="0 0 108 108" fill="none" xmlns="http://www.w3.org/2000/svg">
<path fill-rule="evenodd" clip-rule="evenodd" d="M27.2873 59.1355L28.4323 57.9906L29.595 59.1533L28.4501 60.2982L27.2873 59.1355ZM30.3837 59.1355L31.5286 57.9906L32.6926 59.1533L31.5477 60.2982L30.3837 59.1355ZM19.6126 50.8667L20.7754 49.7027L21.9572 50.8845L20.7944 52.0498L19.6126 50.8692V50.8667ZM26.3027 45.1116C24.3335 46.5313 23.4201 47.4701 23.0919 49.2371C22.5411 52.1986 23.7788 54.4528 23.9124 54.8815H21.5742C22.4253 55.4031 23.2598 56.6854 23.8055 56.7134C24.3805 56.7439 24.696 56.735 24.696 56.735C25.4466 58.2094 25.3512 60.0553 24.9963 60.9686C24.6032 61.9863 23.6529 63.1249 21.4585 62.4379C19.2959 61.7586 16.8432 60.0362 16.3942 57.5275C16.2212 56.5582 16.3942 55.2174 16.6753 54.6017C17.0926 53.7023 17.9156 52.7634 18.759 51.5867C17.1053 52.9212 14.8269 55.4031 14.1794 57.8316C13.4327 60.6582 15.047 62.6657 16.5392 63.9123C18.0314 65.159 20.6367 65.72 21.9164 65.3117C23.2356 64.8982 23.5575 64.3792 24.3042 63.5129C25.2214 62.4443 25.9173 61.3172 26.1144 60.4878C26.4706 58.9879 26.1628 56.7134 26.1628 56.7134C26.1628 56.7134 29.4958 56.8406 31.0503 56.7439C32.143 56.6752 34.3107 55.6143 34.4774 53.3868C34.6466 51.1351 32.2703 49.4661 30.3951 48.6532C31.5121 49.8592 31.7398 51.2343 31.3569 52.2508C30.9282 53.3957 29.857 54.2862 28.6243 54.6373C27.7149 54.8851 26.7652 54.9491 25.8308 54.8256C25.0675 53.6565 24.6413 48.3606 26.3027 45.1116ZM27.3039 44.7427C30.2298 45.2515 34.4112 47.5236 35.9212 50.7942C37.5648 54.3561 36.0243 58.0453 33.5627 60.5539C31.8097 62.3425 29.5301 62.99 28.2567 63.2661C27.3815 63.4518 26.8574 63.2203 26.374 63.378C25.2291 63.747 24.4543 65.1412 23.3934 66.0126C26.2786 66.1106 30.7602 66.4235 34.2662 63.9314C38.6385 60.8223 38.2314 54.7912 37.4923 52.2419C36.7532 49.6925 34.583 44.5124 29.4449 42C28.8342 43.1704 28.3343 43.9082 27.3039 44.7427V44.7427Z" fill="#6FBD62"/>
<path fill-rule="evenodd" clip-rule="evenodd" d="M52.1218 51.7151H52.7731V51.177C52.5327 51.2788 52.1091 51.2953 52.1091 50.9226V47.7423C52.1198 47.3555 52.0709 46.9693 51.9641 46.5974C51.8871 46.3388 51.7488 46.1027 51.5608 45.9092C51.1359 45.497 50.6245 45.4576 50.0813 45.4309C49.4251 45.3974 48.7693 45.5028 48.1566 45.74L48.1477 46.357C48.8257 46.072 49.9643 45.7972 50.6817 46.1025C50.8804 46.1782 51.0528 46.31 51.1779 46.4819C51.3031 46.6538 51.3755 46.8583 51.3865 47.0706C51.4056 47.3594 51.4069 47.6456 51.4069 47.9344C49.734 47.6024 47.5701 47.7728 47.5905 49.9393C47.5912 50.2969 47.6969 50.6465 47.8946 50.9446C48.0922 51.2426 48.3731 51.4761 48.7023 51.6159C49.6526 51.9976 50.9298 51.8309 51.501 50.9137V51.0854C51.503 51.2517 51.57 51.4106 51.6877 51.5281C51.8054 51.6455 51.9644 51.7122 52.1307 51.7139L52.1218 51.7151ZM51.3522 49.7332C51.3331 50.3158 51.169 51.2864 49.7137 51.2864C49.525 51.2917 49.3373 51.2584 49.1619 51.1887C48.9865 51.119 48.8272 51.0143 48.6936 50.881C48.56 50.7476 48.455 50.5885 48.385 50.4132C48.315 50.238 48.2814 50.0503 48.2863 49.8617C48.2863 48.0082 50.2518 48.2575 51.3725 48.4623L51.3522 49.7332Z" fill="#420655"/>
<path fill-rule="evenodd" clip-rule="evenodd" d="M54.8148 45.5417H53.5287V46.0709H54.1813V51.7254H54.825V47.605C54.8148 46.6929 55.9699 45.9055 56.8706 45.9653C57.2191 45.9882 57.7114 46.1828 57.9417 46.4881C58.1719 46.7934 58.2279 47.3112 58.2279 47.7068V51.7254H58.9352V47.6483C58.9352 46.2337 58.2584 45.4857 56.8044 45.431C55.9635 45.403 55.1379 45.7299 54.8148 46.4143V45.5417Z" fill="#420655"/>
<path fill-rule="evenodd" clip-rule="evenodd" d="M65.6482 51.1721C64.8671 51.2153 65.0478 51.3616 63.3024 48.1724L65.2106 45.5505H64.4244L62.6791 47.9918H61.6232C61.6232 46.349 61.6232 44.7067 61.6232 43.0648H60.2607V43.8166H60.8968V51.7254H61.6283V48.5222L62.6943 48.5413C64.7297 51.976 64.3137 51.7216 65.6495 51.6707L65.6482 51.1721Z" fill="#420655"/>
<path fill-rule="evenodd" clip-rule="evenodd" d="M40.4462 43.6639V44.2211H41.1815V51.7267H43.8529C44.5221 51.7267 45.1467 51.6134 45.6899 51.1326C46.1707 50.7064 46.3488 50.1047 46.3488 49.4305C46.3488 48.4662 45.8145 47.7258 44.863 47.4676C45.1936 47.3005 45.4692 47.0418 45.6568 46.7224C45.8445 46.403 45.9363 46.0364 45.9214 45.6663C45.9214 44.4234 44.9037 43.6652 43.7053 43.6652L40.4462 43.6639ZM41.946 47.2717V44.2262H43.6316C44.8274 44.2809 45.111 44.9221 45.111 45.7617C45.1199 46.703 44.6709 47.2742 43.7003 47.2742L41.946 47.2717ZM41.946 51.1262V47.8772H43.7066C44.9495 47.8772 45.5207 48.2589 45.5207 49.4292C45.5207 50.6619 44.7956 51.1262 43.8478 51.1262H41.946Z" fill="#420655"/>
<path fill-rule="evenodd" clip-rule="evenodd" d="M54.5209 63.1376C54.1737 63.6464 53.4295 63.8309 52.7705 63.8309C51.2757 63.8309 50.5875 62.9646 50.5875 61.5487V57.5962H51.8228V61.4927C51.8228 62.1351 51.9144 62.9518 53.0198 62.9518C53.6559 62.9518 54.2805 62.8246 54.4841 61.8069V57.5962H55.6862V62.471C55.7028 62.9582 55.8198 63.0625 56.4228 62.8094V63.5103C56.1073 63.78 54.8415 64.028 54.5209 63.1376Z" fill="#420655"/>
<path fill-rule="evenodd" clip-rule="evenodd" d="M81.1058 56.0163H80.3845V55.0724H82.3283V62.5499C82.3283 63.0092 82.6323 63.0855 83.1004 62.8145V63.5307C82.5458 63.976 81.1122 63.9124 81.1058 62.8362V56.0163Z" fill="#420655"/>
<path fill-rule="evenodd" clip-rule="evenodd" d="M91.1035 58.5083H90.1379V57.6255H91.1035V56.0989L92.3311 55.66V57.628H93.7304V58.5109H92.3311V61.9965C92.3272 62.1457 92.3387 62.2949 92.3654 62.4417C92.5257 63.1707 93.5396 63.0027 94.0001 62.658V63.4989C93.0956 64.0319 91.3757 64.0611 91.1455 62.7127C91.1155 62.4594 91.1015 62.2045 91.1035 61.9494V58.5083Z" fill="#420655"/>
<path fill-rule="evenodd" clip-rule="evenodd" d="M62.1792 62.5474C62.1792 63.1147 62.688 62.9634 62.959 62.7662V63.546C62.3077 63.9276 61.4744 63.9022 61.0063 63.2572C60.4466 64.0307 58.0282 64.1655 57.4723 62.7636C56.709 60.8237 58.0728 59.0567 61.005 59.9077C61.0394 57.5988 58.7673 58.3392 57.8158 58.8824L57.8438 57.9487C58.7813 57.2935 60.6425 57.3266 61.5737 58.0759C61.7953 58.261 61.9646 58.5009 62.0647 58.7717C62.1983 59.1063 62.1792 59.4956 62.1792 59.853V62.5461V62.5474ZM61.0063 61.7841V60.7104C58.4315 60.0248 58.2229 61.6658 58.7228 62.5321C59.2469 63.4468 61.0241 62.9824 61.0063 61.7905V61.7841Z" fill="#420655"/>
<path fill-rule="evenodd" clip-rule="evenodd" d="M65.0783 58.3187C65.348 57.8557 66.0744 57.4817 66.7321 57.4817C67.6226 57.4817 68.5652 57.7361 68.8832 58.4816C69.1059 57.7806 70.0701 57.3952 70.8525 57.4537C72.3129 57.5631 72.9133 58.3684 72.9133 59.7104V63.7214H71.6412V59.7664C71.659 57.7832 69.0969 58.3022 69.1046 59.6977V63.7214H67.9139V59.7664C67.9139 57.8455 65.4167 58.2399 65.3951 59.6061V63.7214H64.1331V58.5057H63.3584V57.5936L64.8468 57.5796L65.0783 58.3187Z" fill="#420655"/>
<path fill-rule="evenodd" clip-rule="evenodd" d="M47.7799 58.1038L45.4914 63.6769H44.695L42.2538 58.0885V63.6947H41.1382V55.7694H42.4485L45.1199 61.9964L47.6655 55.7694H48.902V63.6947H47.7799V58.1038Z" fill="#420655"/>
<path fill-rule="evenodd" clip-rule="evenodd" d="M79.1722 62.5474C79.1722 63.1147 79.681 62.9634 79.9532 62.7662V63.546C79.3019 63.9276 78.4674 63.9022 77.9993 63.2572C77.4395 64.0307 75.0212 64.1655 74.4666 62.7636C73.7033 60.8237 75.067 59.0567 77.9993 59.9077C78.0336 57.5988 75.7603 58.3392 74.8088 58.8824L74.838 57.9487C75.7756 57.2935 77.6367 57.3266 78.5679 58.0759C78.7888 58.2616 78.958 58.5013 79.0589 58.7717C79.1862 59.1063 79.1722 59.4956 79.1722 59.853V62.5461V62.5474ZM77.9993 61.7841V60.7104C75.4258 60.0248 75.2159 61.6658 75.7171 62.5321C76.2399 63.4468 78.0183 62.9824 77.9993 61.7905V61.7841Z" fill="#420655"/>
<path fill-rule="evenodd" clip-rule="evenodd" d="M88.9179 62.5474C88.9179 63.1147 89.4267 62.9634 89.6989 62.7662V63.546C89.0476 63.9276 88.2131 63.9022 87.745 63.2572C87.1852 64.0307 84.767 64.1655 84.2123 62.7636C83.449 60.8237 84.8128 59.0567 87.745 59.9077C87.7793 57.5988 85.5061 58.3392 84.5545 58.8824L84.5838 57.9487C85.5213 57.2935 87.3824 57.3266 88.3136 58.0759C88.5345 58.2616 88.7037 58.5013 88.8046 58.7717C88.9319 59.1063 88.9179 59.4956 88.9179 59.853V62.5461V62.5474ZM87.745 61.7841V60.7104C85.1715 60.0248 84.9616 61.6658 85.4628 62.5321C85.9856 63.4468 87.7641 62.9824 87.745 61.7905V61.7841Z" fill="#420655"/>
</svg>
