<svg width="108" height="108" viewBox="0 0 108 108" fill="none" xmlns="http://www.w3.org/2000/svg">
<g clip-path="url(#clip0_801_8541)">
<path d="M54.6804 60.6325V52.5152L51.2083 57.8172H51.1144L47.5955 52.6089V60.7264H44.9678V48.1516H47.8769L51.1613 53.4067L54.3988 48.1516H57.214V60.6794H54.6803V60.6325H54.6804ZM64.6745 60.7732C61.3431 60.7732 59.3726 58.8963 59.3726 55.2835V48.1516H62.0001V55.2365C62.0001 57.2542 63.0793 58.2864 64.7216 58.2864C66.3639 58.2864 67.443 57.3011 67.443 55.3303V48.1514H70.0236V55.1895C70.0235 58.9434 68.006 60.7732 64.6745 60.7732ZM74.7155 50.732V53.3597H80.2053V55.9873H74.7155V60.6794H72.088V48.1516H81.7535V50.7791H74.7154L74.7155 50.732ZM88.745 60.8202C84.8975 60.8202 82.2698 58.0987 82.2698 54.4389V54.392C82.2698 50.873 84.9913 47.9639 88.745 47.9639C90.9971 47.9639 92.311 48.5739 93.5777 49.6531L91.8417 51.7176C90.9033 50.9199 90.1058 50.4506 88.651 50.4506C86.6805 50.4506 85.132 52.2336 85.132 54.2982V54.392C85.132 56.6911 86.6334 58.3334 88.8387 58.3334C89.8242 58.3334 90.5748 58.0988 91.3725 57.5827V55.9404H88.5103V53.3128H94.0001V58.8026C92.7332 59.9287 91.0441 60.8202 88.745 60.8202Z" fill="#5A5A5A"/>
<path d="M31.0322 45.0078C29.6715 45.0078 28.3578 45.2893 27.1847 45.8054C26.0587 45.2894 24.7449 45.0078 23.3841 45.0078C18.2229 45.0078 14 49.1836 14 54.3919C14 59.5532 18.2229 63.7761 23.3841 63.7761C24.7447 63.7761 26.0586 63.4946 27.2317 62.9784C28.4047 63.4945 29.6714 63.7761 31.0792 63.7761C36.2405 63.7761 40.4632 59.5532 40.4632 54.3919C40.4164 49.1836 36.2405 45.0078 31.0322 45.0078ZM27.2317 62.8846C22.5395 62.8846 18.7389 59.0839 18.7389 54.3918C18.7389 49.6997 22.5395 45.8991 27.2317 45.8991C31.9237 45.8991 35.7244 49.6997 35.7244 54.3918C35.7244 59.084 31.8769 62.8846 27.2317 62.8846ZM31.1261 54.3919C31.1274 54.9037 31.0275 55.4106 30.8323 55.8837C30.637 56.3568 30.3502 56.7866 29.9884 57.1485C29.6265 57.5104 29.1967 57.7972 28.7236 57.9924C28.2506 58.1877 27.7436 58.2876 27.2318 58.2863C25.0734 58.2863 23.3374 56.5503 23.3374 54.3919C23.3374 52.2335 25.0734 50.4976 27.2318 50.4976C27.7436 50.4963 28.2506 50.5962 28.7236 50.7914C29.1967 50.9867 29.6265 51.2735 29.9884 51.6353C30.3502 51.9972 30.637 52.427 30.8323 52.9001C31.0275 53.3731 31.1274 53.8801 31.1261 54.3919Z" fill="#E60000"/>
</g>
<defs>
<clipPath id="clip0_801_8541">
<rect width="80" height="18.784" fill="white" transform="translate(14 45)"/>
</clipPath>
</defs>
</svg>
