<svg width="108" height="108" viewBox="0 0 108 108" fill="none" xmlns="http://www.w3.org/2000/svg">
<path d="M65.4894 26C61.3761 26 57.4046 26.8509 53.8582 28.4112C50.4542 26.8513 46.4824 26 42.3686 26C26.766 26 14 38.6237 14 54.3688C14 69.9719 26.766 82.738 42.3686 82.738C46.482 82.738 50.4538 81.8871 54.0002 80.3264C57.5462 81.8867 61.3757 82.738 65.6314 82.738C81.2344 82.738 94 69.9719 94 54.3688C93.8584 38.6237 81.2344 26 65.4894 26ZM54.0002 80.0429C39.8155 80.0429 28.3259 68.5532 28.3259 54.3684C28.3259 40.184 39.8155 28.6943 54.0002 28.6943C68.1845 28.6943 79.6741 40.184 79.6741 54.3684C79.6741 68.5536 68.043 80.0429 54.0002 80.0429ZM65.7733 54.3688C65.7772 55.9159 65.4753 57.4486 64.8851 58.8787C64.2948 60.3088 63.4278 61.6082 62.3338 62.7022C61.2398 63.7962 59.9405 64.6633 58.5104 65.2536C57.0803 65.8439 55.5477 66.1458 54.0006 66.142C47.4756 66.142 42.2275 60.8938 42.2275 54.3688C42.2275 47.8438 47.4756 42.596 54.0006 42.596C55.5477 42.5921 57.0803 42.894 58.5104 43.4843C59.9405 44.0745 61.2398 44.9416 62.3338 46.0355C63.4278 47.1295 64.2948 48.4289 64.885 49.859C65.4753 51.2891 65.7772 52.8217 65.7733 54.3688Z" fill="#E60000"/>
</svg>
