<svg width="108" height="108" viewBox="0 0 108 108" fill="none" xmlns="http://www.w3.org/2000/svg">
<g clip-path="url(#clip0_801_8228)">
<path d="M28.1587 52.7742C27.9188 52.1026 26.7196 51.7189 26.4798 51.623C26.2399 51.527 26.0001 51.4311 26.0001 51.4311C26.144 52.0547 25.8082 52.5823 25.8082 52.5823H25.8562C25.9041 52.5344 26.0001 52.5823 26.0001 52.5823C27.1993 52.8701 28.0627 53.7336 28.0627 53.7336C28.1107 53.7336 28.1107 53.7336 28.1107 53.7336C28.1587 53.5897 28.1587 53.4458 28.1587 53.3498C28.1587 53.2539 28.1587 52.8701 28.1587 52.7742ZM29.6457 46.97C29.4058 47.066 28.5904 46.9221 28.3505 46.7782C28.1587 46.6343 28.0147 46.6343 28.0147 46.6343C27.1993 46.4904 26.9115 46.9221 26.8635 46.9221C26.8635 46.97 26.8635 46.97 26.8635 46.97C26.8635 46.97 27.3912 46.7782 28.2066 47.1619C29.0701 47.5457 29.5977 47.018 29.5977 47.018C29.6936 46.97 29.6457 46.97 29.6457 46.97ZM30.3172 66.685C30.4611 65.7736 29.166 65.9175 29.166 65.9175C29.118 65.8695 29.118 65.8695 29.118 65.8695C30.0774 65.7256 30.3652 66.1574 30.3652 66.1574C30.3652 65.5817 29.9335 65.4858 29.9335 65.4858H29.8855C29.7416 65.15 29.166 65.102 28.8782 65.2939C28.5904 65.4858 28.3505 65.4858 28.3505 65.4858C27.1993 65.7256 26.5277 64.7663 26.5277 64.7663C25.4245 63.0394 27.0554 63.2313 26.8155 61.3126C26.5757 59.4418 23.4098 59.0101 23.4098 59.0101C22.5464 58.9141 21.8748 60.641 21.7309 61.1207C21.587 61.6004 21.4431 61.7443 21.4431 61.7443C21.3951 61.8402 21.4911 61.7922 21.4911 61.7922C24.0813 62.176 23.9854 63.5671 23.9854 63.5671C23.9854 63.8069 23.6017 63.8549 23.6017 63.8549C23.3618 63.9028 22.8342 64.1907 23.7456 64.8142C23.8415 64.8622 23.8895 64.9102 23.9374 64.9581C23.9374 64.9581 23.9374 64.9581 23.9374 65.0061C23.8895 65.0541 23.7935 65.102 23.6496 65.198C23.6496 65.198 23.6017 65.198 23.4578 65.246C23.3618 65.2939 23.17 65.4378 23.122 65.7736C23.122 65.7736 23.122 65.7736 23.122 65.7256C23.17 65.7256 23.2659 65.4858 23.6976 65.5338C23.9374 65.5338 24.1773 65.4378 24.4171 65.2939C24.5131 65.3419 24.609 65.4378 24.7049 65.4858C24.609 65.5338 24.561 65.5338 24.4651 65.5817C24.4651 65.5817 24.3692 65.6297 24.2732 65.6297C24.1773 65.6297 23.9854 65.7736 23.8895 66.1094C23.8895 66.1094 23.8895 66.1094 23.8895 66.0614C23.8895 66.0614 24.0334 65.8216 24.4651 65.9175C24.7049 65.9655 24.9448 65.9175 25.1367 65.8216C25.2326 65.8695 25.2806 65.9175 25.3765 65.9655C25.2806 66.0134 25.1846 66.0614 25.0407 66.1094C25.0407 66.1094 24.9448 66.1574 24.8488 66.1574C24.7529 66.1574 24.5131 66.3013 24.4171 66.5891C24.4651 66.5411 24.561 66.3492 24.9927 66.4452C25.2806 66.5411 25.5684 66.4452 25.8082 66.3492H25.8562C26.4318 66.7809 26.9115 67.2606 26.9115 67.5484C26.9115 68.1241 27.3912 68.268 27.3912 68.268C27.3912 68.5558 27.2473 68.5558 27.2473 68.5558C27.1993 68.6037 27.2473 68.6037 27.2473 68.6037C27.7269 68.6517 27.8708 68.268 27.8708 68.268C28.3026 67.8842 28.1587 67.4525 28.1587 67.4525C28.6383 68.22 29.118 68.0281 29.118 68.0281V68.0761C29.166 68.4119 28.9741 68.6997 28.9261 68.6997C28.9261 68.7476 28.9261 68.7476 28.9261 68.7476C29.5497 68.3639 29.5497 67.9801 29.5497 67.9801C29.5497 67.9322 29.5497 67.9322 29.5497 67.9322C30.1733 67.1647 28.9741 66.5891 28.9741 66.5891C29.4058 66.637 29.5977 66.7809 29.6457 66.8289C29.6936 66.8769 29.7416 67.0208 29.8855 67.0687C30.0294 67.0687 30.1733 67.0687 30.1733 67.0687C30.2693 67.0687 30.3172 67.4045 30.3172 67.4045C30.605 66.9728 30.3172 66.685 30.3172 66.685ZM28.4944 49.992C28.4944 49.992 28.3505 49.9441 28.3985 50.04C28.3985 50.04 28.9741 50.8555 28.9261 51.0953C28.9261 51.2872 28.9261 51.2872 28.8302 51.2392C28.7822 51.2392 28.5424 51.2392 28.6863 51.527C28.8302 51.8628 29.0221 52.1506 28.8302 52.5823V52.6303C28.7822 52.6303 28.7343 52.5344 28.5904 52.6783C28.4944 52.8222 28.4465 53.2539 28.4944 53.7336C28.4944 53.7336 28.4944 53.8295 28.3985 53.8775C28.3026 53.9254 28.3985 54.0214 28.5424 54.0214C28.6383 53.9734 29.3579 53.7336 29.3579 53.7336C29.3579 53.7336 29.7416 53.6376 30.0774 52.7742C30.4132 51.8628 31.9482 49.8961 32.0441 49.8481C32.188 49.8002 32.4758 49.6563 32.5717 49.5603C32.6197 49.4644 32.7636 48.9847 32.8595 48.7449H32.9075C32.9075 48.7449 33.3872 48.9847 33.723 48.601C33.723 48.601 33.8669 48.6489 33.9149 48.8408C33.9149 48.8408 33.9149 48.8408 33.9628 48.8408C33.9628 48.8408 34.0588 48.553 33.8669 48.2652C33.8669 48.2652 33.8189 47.5457 32.8116 47.8335C32.8116 47.8335 32.8595 47.7375 33.1474 47.6416C33.3872 47.5936 33.4352 47.6416 33.627 47.3538C33.627 47.3538 33.723 47.2099 33.9628 47.5936C33.9628 47.5936 33.9628 47.5936 34.0108 47.5936C34.0108 47.5936 34.1547 47.2578 33.7709 46.97C33.7709 46.9221 33.723 46.3464 33.0035 46.4424C33.0035 46.4424 32.5238 46.4904 32.188 46.97C32.188 46.9221 32.2839 46.6822 32.6197 46.4424C32.6197 46.4424 32.8116 46.3464 32.8116 46.2025C32.8595 46.0107 32.7156 45.9627 32.7636 45.8668C32.8595 45.7708 33.0035 45.7229 33.0994 45.7229C33.0994 45.7229 32.9555 45.435 32.4758 45.6269C32.4278 45.6269 31.5644 45.3391 31.5644 46.6822C31.5644 46.6822 31.5644 46.7782 31.5644 46.7302C31.5644 46.7302 31.4205 46.5863 31.4685 46.1066C31.4685 46.1066 31.5644 45.8668 31.3725 45.8668H31.3246C31.3246 45.8668 31.3725 45.6269 31.5164 45.579H31.5644C31.5644 45.579 31.0847 45.2911 30.8449 46.4904C30.8449 46.4904 30.8449 46.9221 30.9408 47.1139C30.9888 47.3058 31.0368 48.0253 30.5571 48.601C30.5571 48.601 29.2619 49.9441 28.4944 49.992ZM22.8342 54.549C24.657 53.7336 25.3285 53.014 25.5684 52.4864C25.6163 52.3425 25.6643 52.2465 25.7123 52.1506C25.7123 52.0067 25.7123 51.8148 25.7123 51.8148C25.7123 51.623 25.7123 51.4311 25.6163 51.2872C25.5684 51.1912 25.4245 51.0473 25.2806 50.9514C25.0407 50.7595 24.8488 50.5197 24.8488 50.5197C24.9448 52.6783 22.8821 53.4937 22.8821 53.4937C22.8342 53.4937 22.8342 53.5417 22.8342 53.5417C22.9781 54.2612 22.7382 54.5011 22.7382 54.549C22.7382 54.597 22.8342 54.549 22.8342 54.549ZM24.657 53.7815C24.657 53.7815 25.5204 53.7336 25.7123 55.0767C25.7123 55.0767 25.7123 55.1246 25.7602 55.1246C25.7602 55.1246 26.9594 54.2132 27.0074 53.3018C27.0074 53.3018 27.0074 53.2539 26.9594 53.2539C26.9594 53.2539 26.5277 52.9181 25.7602 52.7262H25.7123C25.7123 52.7262 25.4245 53.3018 24.657 53.7815ZM23.4578 38C15.8308 38.1918 9.83476 44.5237 10.0266 52.1506C10.1226 56.084 11.8974 59.5857 14.6316 62.0321L14.6796 62.08L14.7755 62.0321C14.9194 61.7922 15.2552 61.6004 15.4471 61.6004H15.6869C15.6869 61.6004 15.6869 61.6004 15.6869 61.5524L15.495 61.4085C15.3511 61.2646 15.2072 61.1686 15.0633 60.9768C12.7129 58.7702 11.1779 55.6043 11.0819 52.1026C10.986 48.601 12.3291 45.3871 14.5836 43.0366C16.8381 40.6862 19.9561 39.1512 23.4578 39.0553C27.0074 38.9593 30.1733 40.3024 32.5717 42.557C34.9222 44.8115 36.4092 47.9294 36.5051 51.4311C36.6011 54.9807 35.258 58.1946 33.0035 60.5451C31.5164 62.128 29.6936 63.2793 27.5351 63.9508H27.4391V63.9988L27.4871 64.0467C27.631 64.4785 27.9188 64.6703 28.1107 64.8142L28.1587 64.8622L28.2066 64.8142C33.8669 63.0394 37.7043 57.7629 37.5604 51.527V51.4311C37.3686 43.8041 31.0368 37.8081 23.4578 38ZM25.4724 44.6196H25.4245C25.7602 44.8115 26.2399 45.2432 26.4318 44.6676C26.192 44.3797 25.7123 44.5716 25.4724 44.6196ZM19.9561 67.4525C19.9561 67.4525 19.9561 67.4525 19.9561 67.4045C19.9561 67.4045 20.5797 66.7809 21.2512 67.4525C21.2512 67.4525 21.2992 67.5005 21.2992 67.4525C21.2992 67.4525 21.2512 67.0208 20.8675 66.8289C20.7715 66.7809 20.7236 66.8289 20.7236 66.8289H20.6756C20.5317 66.733 20.4358 66.685 20.1959 66.733C20.1959 66.733 19.8122 66.7809 19.5723 66.9248C19.3805 67.1167 19.1886 67.0687 19.0926 66.9728C18.9487 66.8769 17.9414 65.5338 17.8934 64.0467C17.8934 64.0467 17.9414 63.9508 18.0373 63.9028C18.0373 63.9028 19.7642 63.0394 20.4358 62.3679C21.1073 61.6963 21.635 59.7776 22.3065 59.058C22.3065 59.058 22.5943 58.6743 22.9301 58.5784C23.2179 58.4824 24.609 58.0507 24.9927 57.8109C25.3765 57.571 26.048 56.8035 26.4798 56.7556C26.4798 56.7556 26.5757 56.6596 26.6716 56.8035L28.2546 58.2426C28.2546 58.2426 28.4944 58.4824 28.7343 58.5304C28.9741 58.5304 29.3579 58.6743 29.3579 58.9141C29.4058 59.154 29.214 59.8255 29.5977 60.0654C29.5977 60.0654 29.6936 60.2093 29.4538 60.3532C29.4538 60.3532 29.4058 60.4012 29.4538 60.4012C29.4538 60.4012 30.701 60.4491 30.4132 59.3938C30.4132 59.3938 30.4132 59.3459 30.4611 59.3459C30.4611 59.3459 30.7489 59.5377 30.8928 59.9694C31.0368 60.4012 31.2766 60.4491 31.2766 60.4491C31.2766 60.4491 31.3246 60.4971 31.3246 60.5451C31.3246 60.5451 31.3725 60.689 31.1807 60.9288C31.1807 60.9288 31.7083 60.9288 31.7083 60.593C31.7083 60.593 31.9961 60.4971 32.0921 60.3532C32.188 60.1613 32.3799 59.3938 31.4205 58.8182C31.4205 58.8182 31.9002 58.7702 32.14 59.2499C32.4278 59.7296 32.6197 59.154 32.7156 59.6816V59.7296C32.7156 59.7296 33.0514 59.5377 32.8116 59.106V59.058C32.8116 59.058 33.0514 58.2426 31.8522 58.0507H31.8042C31.8042 58.0507 31.9482 57.9068 32.2839 58.0507C32.6197 58.1466 32.7636 58.0507 32.7636 57.9068C32.7636 57.9068 32.9555 57.9068 33.0994 58.0987C33.0994 58.0987 33.1474 57.0434 31.4205 57.3312C31.4205 57.3312 30.9888 57.5231 30.605 57.2352C30.1733 56.9474 28.1107 54.9328 28.1107 54.9328C28.1107 54.9328 27.9668 54.7409 27.9188 54.645C27.8708 54.549 27.7269 53.9734 27.7269 53.8295C27.7269 53.8295 27.7269 53.8295 27.679 53.7815C27.679 53.7815 27.3912 53.5417 27.2473 53.4458C27.2473 53.4458 27.1034 54.549 25.6163 55.4604C25.6163 55.4604 25.4245 55.5084 25.4245 55.3645C25.4245 55.2685 25.0887 53.5897 24.1293 54.1173C23.122 54.6929 22.4025 55.0287 22.2586 54.9328C22.2106 54.9328 22.2106 54.8368 22.2586 54.7889C22.3545 54.7409 22.6903 54.2132 22.5943 53.6376H22.5464C22.5464 53.6376 22.4504 53.6856 22.3065 53.7336C21.587 53.9734 21.1073 54.2132 20.8675 54.4051C20.8195 54.4051 20.7236 54.4531 20.6756 54.5011C20.5317 54.645 20.004 55.0767 19.2365 55.4604C18.4691 55.8442 17.2219 56.5157 16.8861 57.4751C16.5983 58.4345 15.495 58.6263 14.8714 57.8588C14.2478 57.1393 14.8714 55.7962 17.6056 53.8775C17.6056 53.8775 18.4211 53.3498 18.7089 52.5344C18.9967 51.7189 18.8048 51.4791 18.7569 51.1433C18.7089 50.8075 18.9487 50.3758 19.0447 50.2798C19.0926 50.1839 19.0447 49.8961 19.0447 49.9441C19.0447 49.9441 18.9487 50.1359 18.7089 50.1839C18.4691 50.2319 18.4211 50.2798 18.4211 50.3278C18.4211 50.3278 18.3731 50.3278 18.3731 50.2798C18.3731 50.2798 18.3731 50.088 18.613 49.9441C18.8528 49.7522 18.9008 49.3684 18.8528 49.1286C18.8528 48.8888 18.9008 48.7928 18.9487 48.7449C18.9487 48.7449 18.8048 48.7928 18.6609 48.9367C18.6609 48.8888 18.4691 48.0733 18.9008 47.6416C18.9967 47.5936 19.0926 47.1619 18.7569 46.7302C18.4211 46.2985 18.4211 46.1546 18.4211 46.1546C18.4211 46.1546 18.3731 46.1546 18.3731 46.2985C18.4211 46.4424 18.3252 46.5863 18.3252 46.6822C18.2772 46.7302 18.2772 46.9221 18.3252 47.018C18.3252 47.018 18.0853 46.6343 18.1333 46.2985C18.1812 45.9627 18.4211 45.3871 18.1333 45.0993C18.1333 45.0993 18.0853 45.0513 18.1333 45.1472C18.1333 45.1472 18.1812 45.6749 17.7016 46.2025C17.2219 46.6822 17.7495 47.3538 17.9414 47.6416C18.1333 47.8814 17.9414 48.3131 17.9894 48.4571C17.9894 48.4571 17.9414 48.3611 17.9414 48.3131C17.9414 48.2172 17.8934 47.8814 17.7016 47.7855C17.7016 47.7855 17.7016 47.7855 17.7016 47.8335C17.7016 47.8335 17.7016 48.0733 17.6536 48.2172C17.6056 48.3131 17.6056 48.6969 17.8455 48.9367C18.0853 49.1766 17.8934 49.8961 17.7495 49.992C17.7495 49.992 17.7495 49.992 17.7495 49.9441C17.7495 49.8961 17.7495 49.8002 17.7975 49.7522C17.8455 49.6563 17.8455 49.3205 17.7975 49.2725C17.7975 49.2725 17.7495 49.5124 17.4138 49.7522C17.2698 49.8481 17.1259 50.3278 17.5577 50.8075C17.5577 50.8075 17.7016 50.9514 17.7975 51.0953C17.7975 51.0953 17.4617 51.0473 17.4138 50.8555C17.4138 50.8555 17.4138 50.8555 17.3658 50.8555C17.3658 50.8555 17.3178 51.3351 17.7975 51.4791C18.1333 51.527 18.4211 52.5344 16.6942 53.5417C16.3585 53.6856 16.0227 53.9254 15.6869 54.2132C15.591 54.1653 15.3511 54.0214 15.0153 53.5417C15.0153 53.5417 14.9674 53.4458 14.9674 53.3498C14.9194 53.2539 14.7275 53.062 14.4397 53.014V53.062C14.4397 53.062 14.6796 53.1579 14.6796 53.5897C14.6796 53.9734 14.9674 54.4051 15.2552 54.549C15.2552 54.549 15.2552 54.549 15.2072 54.597C15.1113 54.6929 15.0153 54.8368 14.9194 54.9328C14.8235 54.7889 14.6796 54.645 14.5836 54.4531C14.5836 54.4531 14.5357 54.3572 14.4877 54.2612C14.4877 54.1653 14.2958 53.9734 14.008 53.8775C14.008 53.8775 14.008 53.8775 14.008 53.9254C14.056 53.9254 14.2478 54.0214 14.2478 54.4531C14.1999 54.7889 14.3918 55.1246 14.5836 55.3165V55.3645C14.4877 55.4604 14.3918 55.5564 14.3438 55.7003C14.2478 55.5564 14.1519 55.4125 14.056 55.2206C14.056 55.2206 14.008 55.1246 14.008 55.0287C13.96 54.9328 13.8161 54.6929 13.5283 54.597C13.5763 54.597 13.7682 54.7409 13.7202 55.1726C13.6243 55.5564 13.8161 56.036 14.056 56.1799C14.056 56.1799 14.056 56.1799 14.056 56.2279C13.7682 56.9474 13.7202 57.7629 14.1999 58.4824C15.1592 59.8735 16.6942 59.058 16.6942 59.058C16.6942 59.058 16.7902 58.9621 16.7902 59.058C16.7902 59.058 16.9341 60.2093 17.2219 60.8808C17.5097 61.5524 17.1259 62.0321 16.4544 62.128C15.7828 62.224 15.2072 62.5597 15.3991 63.3272C15.495 63.5191 15.591 63.8549 15.7349 64.2386C15.591 64.2386 15.3991 64.2386 15.2072 64.2386C15.2072 64.2386 15.1113 64.2386 15.0153 64.1907C14.9194 64.1427 14.6796 64.1907 14.4397 64.3825C14.4877 64.3825 14.6796 64.2386 15.0153 64.5264C15.2552 64.7183 15.6389 64.7663 15.8788 64.7663H15.9267C15.9747 64.8622 16.0227 65.0061 16.0706 65.102C15.9267 65.102 15.7828 65.0541 15.6389 65.0061C15.6389 65.0061 15.543 65.0061 15.4471 64.9581C15.3511 64.9102 15.1113 64.9102 14.8235 65.102C14.8235 65.102 14.8235 65.102 14.8714 65.102C14.8714 65.0541 15.1113 64.9581 15.3991 65.2939C15.6389 65.5338 15.9747 65.6297 16.2625 65.6297C16.3105 65.6777 16.3105 65.7736 16.3585 65.8216C16.2145 65.8216 16.0227 65.7736 15.7828 65.7256C15.7828 65.7256 15.6869 65.7256 15.6389 65.6777C15.543 65.6297 15.2552 65.6297 15.0153 65.7736C15.0633 65.7736 15.3031 65.6777 15.591 66.0134C15.8308 66.2533 16.2625 66.3972 16.5503 66.3492C16.7422 66.8289 16.8861 67.1647 16.8861 67.1647C16.8861 67.1647 16.982 67.7403 16.9341 67.9322C16.8861 68.172 17.03 68.6037 17.3658 68.7476C17.7016 68.9395 17.9894 69.3712 17.9894 69.4192C17.9894 69.5151 17.9894 69.9948 18.565 70.2347C18.565 70.2347 18.6609 70.1867 18.6609 70.2826C18.6609 70.3786 18.565 70.5704 18.565 70.5704C18.565 70.5704 18.565 70.6184 18.613 70.5704C18.6609 70.5704 18.9008 70.5225 19.0447 70.2347V70.1867C19.0447 70.1867 19.2845 69.9468 19.3325 69.707C19.3805 69.4672 19.2845 69.1794 18.8528 68.9395V68.8915C18.8528 68.8915 18.9967 68.8915 19.1406 69.0354C19.2365 69.1314 19.5244 69.3712 19.5723 69.4192C19.6203 69.4672 19.9081 69.755 20.3398 69.707C20.3398 69.707 20.3878 69.659 20.3878 69.707C20.4358 69.707 20.5317 69.8029 20.4837 70.1867V70.2347C20.4837 70.1867 20.9154 70.0428 20.8195 69.5151C20.8195 69.5151 20.8195 69.5151 20.8195 69.4672C20.8195 69.4672 20.9634 69.1314 20.9634 68.9395C20.9154 68.7476 20.7715 68.3159 20.004 68.172C20.004 68.172 20.1959 68.0281 20.6276 68.22C20.6276 68.22 20.6756 68.22 20.7236 68.22C20.7236 68.268 20.8675 68.5078 21.2033 68.4119C21.2033 68.4119 21.4911 68.4598 21.539 68.8436C21.539 68.8436 21.8748 68.5078 21.3951 68.0281C21.3951 68.0281 21.1073 67.0687 19.9561 67.4525ZM26.7676 44.1879C26.7676 44.1879 26.7676 44.1399 26.7676 44.0919C26.7676 44.0919 26.6716 43.948 26.4798 43.8521C26.3359 43.7562 25.9521 43.7562 25.6643 43.7562C25.3765 43.8041 25.1846 43.7082 24.9448 43.6602C24.7529 43.6123 24.2253 43.4683 23.8895 43.8041C23.8895 43.8041 23.8415 43.8521 23.8895 43.9001C23.8895 43.9001 23.9854 44.0919 24.1773 44.2358C24.3692 44.3797 24.7529 44.6676 25.1846 44.5237C25.1846 44.5237 25.3765 44.4757 25.4245 44.4277C25.5204 44.3797 25.7123 44.2358 25.8562 44.2358C26.048 44.2358 26.2399 44.2838 26.2399 44.2838C26.2879 44.2838 26.4318 44.3318 26.4318 44.3318C26.4318 44.3318 26.7196 44.3797 26.7676 44.1879ZM22.0187 50.9034H21.9707C22.0187 50.9514 22.0667 50.9994 22.1626 50.9994C22.3065 50.9994 22.8342 50.9034 22.9301 50.2798C22.9781 49.6083 22.1626 48.8408 21.6829 48.4571C21.1073 47.9774 20.2919 47.4497 20.1 46.8741C20.1 46.8741 19.9561 47.2099 19.7642 47.5457C19.5723 47.9294 19.6203 48.4091 19.7162 48.6489C19.8601 48.9847 20.052 49.3205 20.1 49.4164C20.1479 49.5124 20.1479 49.6563 20.3878 49.7522C20.4837 49.7522 20.8195 49.7522 21.0114 49.5603C21.1553 49.4644 21.2512 49.2725 21.2512 49.1286C21.2512 48.553 20.7236 48.601 20.7715 48.7928C20.7715 48.8408 20.8675 48.8408 20.8195 48.9367C20.7715 48.9847 20.6756 49.0327 20.5797 48.9847C20.4837 48.9847 20.2439 48.6489 20.7236 48.4571C21.1553 48.3131 21.6829 48.6969 21.587 49.2725C21.4911 49.8481 20.7236 50.088 20.3398 49.992H20.2919C20.2919 50.04 20.2919 50.1839 20.2439 50.3278C20.1479 50.4238 19.7642 51.527 20.4358 52.6783C20.4358 52.6783 20.5797 52.8701 20.9154 52.8701C21.2512 52.8701 21.635 52.3905 21.3951 52.0547C21.3472 52.0067 21.3472 52.0067 21.3472 52.0547C21.3472 52.0547 21.3472 52.2465 21.1553 52.1506C20.8675 52.0547 20.9154 51.6709 21.2512 51.575C21.587 51.4791 21.9707 51.623 21.8268 52.2945C21.6829 52.9661 21.0114 53.2059 20.8675 53.1579C20.7715 53.1579 20.7715 53.1579 20.7715 53.2059C20.7715 53.2059 20.9634 53.7815 20.8675 54.0693C20.8675 54.0693 20.8195 54.1653 20.9634 54.0693C20.9634 54.0693 21.4431 53.8295 21.8268 53.6856C22.1626 53.5417 23.122 53.3018 23.8415 52.3905C24.561 51.4311 24.8968 50.04 23.8895 48.505C23.7456 48.2652 23.6017 47.8335 22.6903 47.4977C22.6903 47.4977 22.4984 47.4497 22.6423 47.3538C22.6423 47.3538 22.6903 47.3058 22.8821 47.3538C22.8821 47.3538 23.8415 47.4977 24.4171 48.7928C24.9448 50.088 25.1846 50.6636 25.9041 51.0473C26.6716 51.4311 28.1107 51.9108 28.3505 52.4384C28.3505 52.4384 28.4465 52.5823 28.4944 52.3905C28.5424 52.1986 28.5424 51.9587 28.3505 51.575C28.2066 51.1912 28.2066 51.0953 28.3505 51.0953C28.5424 51.0953 28.5424 51.0953 28.5424 50.9994C28.5424 50.9034 28.3985 49.7522 26.3359 49.7522C26.3359 49.7522 26.144 49.8002 26.192 49.6563C26.2399 49.5603 26.3838 49.5603 26.5757 49.5603C26.8155 49.5603 27.8708 49.6563 28.2066 49.9441C28.2066 49.9441 28.3505 50.04 28.2546 49.8481C28.1587 49.6083 27.631 48.6969 25.9041 48.3131C24.1773 47.9294 24.1773 46.7302 24.1773 46.7302C24.1773 46.7302 24.2253 46.5383 24.3692 46.8261C24.8968 48.0253 26.8635 48.2172 26.9594 48.2652C27.1034 48.2652 27.2952 48.4091 27.3912 48.3131C27.631 48.0733 27.679 47.6416 27.5351 47.4497C27.5351 47.4497 27.5351 47.3538 27.4871 47.4017C27.4391 47.4497 27.2952 47.5457 27.2473 47.5457C27.2473 47.5457 27.2473 47.5457 27.2473 47.4977C27.1993 47.4977 27.1034 47.3058 27.1034 47.2099C27.1034 47.2099 26.9594 47.4977 26.8635 47.5936C26.8635 47.5936 26.8635 47.6416 26.8155 47.6416C26.8155 47.6416 26.0001 47.5936 25.9041 46.9221C25.8082 46.2985 26.096 45.8668 26.8155 45.9627C26.8155 45.9627 26.9594 46.0107 27.0074 46.0586C27.0554 46.1066 27.1513 46.3464 27.1513 46.3464V46.3944L27.2952 46.2025C27.2952 46.2025 27.3432 46.1546 27.3432 46.2025L27.7269 46.2985C27.7269 46.2985 27.7749 46.3464 27.7749 46.2985C27.7749 46.2985 27.9188 46.2025 28.0147 45.9147C28.0627 45.6749 28.1107 45.3391 28.0627 45.3391C28.0627 45.3391 27.7269 45.1472 27.679 45.0993V45.0513C27.679 45.0513 27.7749 45.0513 28.1107 45.1472C28.1107 45.1472 28.2066 45.1472 28.1587 45.1472C28.1587 45.0993 28.1587 45.0993 28.1587 45.0993C28.1587 45.0993 28.0147 44.8594 27.631 44.7155C27.1513 44.5237 27.0074 44.4757 26.7676 44.5237C26.7676 44.5237 26.7196 44.5237 26.6716 44.5237C26.6716 44.5237 26.5277 45.0993 26.0001 45.1472C26.0001 45.1472 25.8562 45.1472 25.6643 45.0033C25.4724 44.8594 25.4245 44.8594 25.0887 44.8115C24.8009 44.7635 24.0813 44.6196 23.7456 44.0919C23.3618 43.5163 23.2179 43.2765 22.4504 43.6602C21.6829 44.044 21.3951 44.044 20.8195 43.5163H20.7715C20.7715 43.5163 20.8195 43.6123 20.7236 43.948C20.6756 44.2838 20.7715 44.4757 20.8675 44.5716C20.9154 44.7155 20.9154 45.0033 21.3472 45.1472C21.7309 45.2911 21.9228 45.0513 22.3065 45.2911H22.3545C22.3545 45.2911 22.4025 45.3391 22.3545 45.3391C22.3065 45.3391 22.2586 45.3391 22.2586 45.3391C22.2586 45.3391 22.1146 45.2432 21.9707 45.2432C21.8268 45.2911 21.635 45.3391 21.539 45.3391C21.4431 45.3391 21.0593 45.3391 20.9154 45.0993C20.9154 45.0993 20.9154 45.0993 20.9154 45.1472C20.9154 45.1472 20.8675 45.435 20.4837 45.9627C20.1479 46.4904 20.4837 47.066 21.2992 47.7375C22.1146 48.4091 23.074 49.1766 23.2179 49.8961C23.3618 50.5677 22.8821 51.2392 22.3545 51.2872C21.7789 51.3351 21.4911 50.7595 21.8748 50.5677C22.3545 50.3278 22.3545 51.0953 22.0187 50.9034ZM68.2602 63.0874L69.0756 60.0654H69.1236L69.939 63.0874H68.2602ZM68.4041 59.2499L66.3894 65.3899H67.5886L68.0203 63.8549H70.1309L70.5626 65.3899H71.7618L69.8911 59.2499H68.4041ZM65.0943 63.8069H65.0463L62.9836 59.2499H61.5926V65.3899H62.6958V60.689L64.7585 65.3899H66.1496V59.2499H65.0943V63.8069ZM58.5226 64.7663C57.8031 64.7663 57.2754 64.3825 57.2754 62.2719C57.2754 60.2093 57.8031 59.8735 58.5226 59.8735C59.1941 59.8735 59.7218 60.2093 59.7218 62.2719C59.7218 64.3825 59.1941 64.7663 58.5226 64.7663ZM58.5226 59.154C56.8437 59.154 56.1242 60.1133 56.1242 62.3199C56.1242 64.5264 56.8437 65.4858 58.5226 65.4858C60.1535 65.4858 60.873 64.5264 60.873 62.3199C60.873 60.1133 60.1535 59.154 58.5226 59.154ZM98.3363 59.2499H97.0891L94.9305 61.9361H94.8826V59.2499H93.7793V65.3899H94.8826V63.3752L95.5541 62.6077L97.281 65.3899H98.5761L96.2736 61.8402L98.3363 59.2499ZM54.3014 65.3899H55.4526V59.2499H54.3014V65.3899ZM73.105 59.2499H71.9537V65.3899H75.8871V64.5744H73.105V59.2499ZM84.6174 63.0874L85.4808 60.0654H85.5287L86.3442 63.0874H84.6174ZM84.8092 59.2499L82.7466 65.3899H83.9458L84.4255 63.8549H86.5361L86.9678 65.3899H88.167L86.2962 59.2499H84.8092ZM91.8606 63.8069L89.75 59.2499H88.3589V65.3899H89.4621V60.689L91.5728 65.3899H92.9638V59.2499H91.8606V63.8069ZM80.636 64.6224H79.4847V62.5118H80.588C81.2116 62.5118 81.6913 62.8955 81.6913 63.5671C81.6913 64.2866 81.3075 64.6224 80.636 64.6224ZM79.4847 59.9694H80.3002C80.9718 59.9694 81.4514 60.1133 81.4514 60.8808C81.4514 61.4565 81.1157 61.8402 80.3961 61.8402H79.4847V59.9694ZM81.5474 62.128C82.2669 61.9361 82.6027 61.5044 82.6027 60.7369C82.6027 59.6337 81.7393 59.2499 80.6839 59.2499H78.3335V65.3899H80.636C81.9791 65.3899 82.8425 64.7183 82.8425 63.711C82.8425 62.6557 82.3149 62.2719 81.5474 62.128ZM46.8663 63.0874L47.6818 60.0654H47.7297L48.5452 63.0874H46.8663ZM47.0102 59.2499L44.9955 65.3899H46.1947L46.6265 63.8549H48.7371L49.1688 65.3899H50.368L48.4972 59.2499H47.0102ZM49.5046 60.0654H51.1834V65.3899H52.3347V60.0654H54.0136V59.2499H49.5046V60.0654ZM43.7004 63.8069H43.6524L41.5898 59.2499H40.1987V65.3899H41.302V60.689L43.3646 65.3899H44.7557V59.2499H43.7004V63.8069ZM94.5468 41.9334V51.1912C94.5468 53.1579 93.8273 54.1653 91.8606 54.1653C89.8939 54.1653 89.1743 53.1579 89.1743 51.1912V41.9334H85.193V50.9514C85.193 55.4125 87.2076 57.619 91.8606 57.619C96.5135 57.619 98.5761 55.4125 98.5761 50.9514V41.9334H94.5468ZM62.1202 45.0513C64.7105 45.0513 65.6699 47.3058 65.6699 49.6083C65.6699 51.9108 64.7105 54.1653 62.1202 54.1653C59.5299 54.1653 58.5226 51.9108 58.5226 49.6083C58.5226 47.3058 59.5299 45.0513 62.1202 45.0513ZM62.1202 57.619C66.965 57.619 69.6992 54.0693 69.6992 49.6083C69.6992 45.1472 66.965 41.5976 62.1202 41.5976C57.2754 41.5976 54.5412 45.1472 54.5412 49.6083C54.5412 54.0693 57.2754 57.619 62.1202 57.619ZM77.9977 54.0693H74.7838V50.5677H77.9977C79.2449 50.5677 80.1563 50.9994 80.1563 52.3425C80.1563 53.6376 79.2929 54.0693 77.9977 54.0693ZM74.7838 45.0033H77.9018C78.7652 45.0033 79.5327 45.3871 79.5327 46.4904C79.5327 47.5936 78.6213 47.9774 77.9018 47.9774H74.7838V45.0033ZM84.1856 52.5344C84.1856 50.7595 83.1783 49.3684 81.5474 48.8888C82.7466 48.2652 83.562 47.1619 83.562 45.7708C83.562 42.557 80.636 41.8854 77.9977 41.9334H70.8025V57.2832H78.1896C81.4994 57.2832 84.1856 56.1799 84.1856 52.5344ZM43.9402 47.6896H43.9882L49.3606 57.2832H53.438V41.9334H49.6964V51.3831H49.6485L44.276 41.9334H40.1987V57.2832H43.9402V47.6896Z" fill="#E20613"/>
</g>
<defs>
<clipPath id="clip0_801_8228">
<rect width="88.6027" height="32.6184" fill="white" transform="translate(10 38)"/>
</clipPath>
</defs>
</svg>
