<svg width="108" height="108" viewBox="0 0 108 108" fill="none" xmlns="http://www.w3.org/2000/svg">
<path d="M43.0821 44.7735L32.658 40.7903C33.258 38.2965 34.2881 35.9713 35.6559 33.8866L44.9758 39.6793C43.9532 41.1545 43.2818 42.8926 43.0821 44.7735ZM55.527 49.5272L44.3045 45.2376C44.6272 43.5062 45.3536 41.9067 46.3898 40.5525L55.527 46.2398V49.5272V49.5272ZM55.527 45.8056L46.8396 40.0055C47.9289 38.762 49.2926 37.7733 50.8364 37.1183L55.527 41.9114V45.8056V45.8056ZM33.2763 53.1713C32.4867 50.9066 32.0532 48.4747 32.0532 45.9381C32.0532 44.5261 32.1864 43.1488 32.4399 41.8163L43.0284 45.5372L43.0236 45.9327C43.0236 48.5365 43.9307 50.9303 45.4487 52.8125C44.668 51.1267 44.1244 49.2398 44.1244 47.2305C44.1244 46.7963 44.1502 46.3682 44.2019 45.947L55.527 49.924V53.1713H33.2763V53.1713ZM34.0829 55.1643C33.8899 54.7498 33.7105 54.3244 33.5433 53.9011H40.0814L41.2916 55.1778H51.0749L48.9298 57.4412H36.8851C36.5059 56.2093 35.4092 55.2764 34.0829 55.1643V55.1643ZM58.9727 55.7058C59.752 55.3036 60.4737 54.815 61.1273 54.2531C61.5561 53.895 61.9549 53.5063 62.3205 53.0714C63.9649 51.1478 64.959 48.6588 64.959 45.9327C64.959 39.8764 60.0469 34.965 53.9906 34.965C52.7213 34.965 51.4982 35.179 50.3676 35.5752L42.7131 27.1175C46.0073 25.1375 49.8647 24 53.9906 24C66.1046 24 75.9233 33.8187 75.9233 45.9381C75.9233 58.0528 66.1046 67.868 53.9906 67.868C47.9635 67.868 42.5065 65.4416 38.5417 61.508H65.4462L37.2459 60.1076L67.0464 59.9187L35.8604 58.2947L47.8392 58.1092C47.8392 58.1092 54.1238 58.3001 58.9727 55.7058V55.7058ZM45.4351 39.0657L36.2987 32.9653C37.7847 30.9397 39.6071 29.1832 41.6864 27.7739L49.6133 35.8748C47.9737 36.5883 46.5427 37.6925 45.4351 39.0657Z" fill="#D10A10"/>
<path d="M27.1671 84C24.3665 84 23 82.3861 23 79.7558C23 77.0264 25.0228 75.3009 27.4885 75.3009C29.8734 75.3009 31.6553 76.5792 31.6553 79.5198C31.6553 82.274 29.6724 84 27.1671 84ZM27.3268 77.0634C26.2426 77.0634 25.2113 77.844 25.2113 79.5951C25.2113 81.2075 25.8547 82.2259 27.2879 82.2259C28.2789 82.2259 29.4441 81.5439 29.4441 79.6448C29.4441 77.9566 28.7078 77.0634 27.3268 77.0634" fill="#D10A10"/>
<path d="M36.735 83.95C33.3977 83.95 32.5004 81.8536 32.5004 79.9547C32.5004 77.2364 34.0949 75.4007 37.0826 75.4007C37.7125 75.4007 38.3678 75.475 38.9325 75.6119L38.6903 77.3609C38.1807 77.2243 37.6056 77.1384 37.0427 77.1384C35.5825 77.1384 34.7913 78.1182 34.7913 79.6317C34.7913 81.2819 35.5155 82.1882 37.1504 82.1882C37.6196 82.1882 38.3016 82.0764 38.7304 81.8909L38.9727 83.6153C38.3155 83.827 37.5119 83.95 36.735 83.95Z" fill="#D10A10"/>
<path d="M43.2056 83.8641C42.6706 83.8641 41.6649 83.837 40.3519 83.837V75.4748C41.1822 75.4381 42.5365 75.4127 43.6484 75.4127C45.6171 75.4127 46.7831 76.1201 46.7831 77.5225C46.7831 78.3041 46.2471 79.012 45.4699 79.3337V79.3715C46.3951 79.5951 46.9301 80.3883 46.9301 81.2204C46.9301 82.5605 45.8723 83.8641 43.2056 83.8641ZM43.313 76.9633C42.992 76.9633 42.6965 76.9759 42.4426 76.9881V78.8251C42.6165 78.8375 42.8176 78.8375 43.0585 78.8375C44.0767 78.8375 44.5723 78.4532 44.5723 77.8199C44.5723 77.2855 44.1846 76.9633 43.313 76.9633V76.9633ZM43.1393 80.2646C43.0314 80.2646 42.6025 80.2646 42.4426 80.277V82.2507C42.6165 82.274 42.9247 82.288 43.2459 82.288C44.1712 82.288 44.6934 81.8907 44.6934 81.2447C44.6934 80.599 44.1168 80.2646 43.1393 80.2646" fill="#D10A10"/>
<path d="M52.0766 83.95C48.7411 83.95 47.8435 81.8536 47.8435 79.9547C47.8435 77.2364 49.4375 75.4007 52.4252 75.4007C53.0549 75.4007 53.7115 75.475 54.2734 75.6119L54.0334 77.3609C53.5241 77.2243 52.9477 77.1384 52.3859 77.1384C50.9241 77.1384 50.1345 78.1182 50.1345 79.6317C50.1345 81.2819 50.8573 82.1882 52.4915 82.1882C52.9617 82.1882 53.645 82.0764 54.073 81.8909L54.3148 83.6153C53.6582 83.827 52.8541 83.95 52.0766 83.95Z" fill="#D10A10"/>
<path d="M63.4673 83.8369L61.3368 80.2278C60.9498 79.5829 60.6401 78.9364 60.3994 78.3913C60.4395 79.0117 60.4664 79.8557 60.4664 80.6497V83.8369H58.4565V75.4621H61.1372L63.1194 78.7759C63.5206 79.4713 63.8961 80.1898 64.2184 80.8363C64.1518 80.1152 64.1249 79.0117 64.1249 78.2169V75.4621H66.1343V83.8369H63.4673Z" fill="#D10A10"/>
<path d="M67.717 75.4624H69.8064V83.8369H67.717V75.4624Z" fill="#D10A10"/>
<path d="M73.1832 83.986C72.553 83.986 71.9093 83.9259 71.3343 83.8001L71.4414 82.0133C71.9513 82.1883 72.6881 82.3249 73.3442 82.3249C74.1058 82.3249 74.6574 82.0265 74.6574 81.4315C74.6574 80.0039 71.0537 80.7374 71.0537 77.9324C71.0537 76.3555 72.3798 75.3128 74.6437 75.3128C75.1263 75.3128 75.7286 75.3624 76.2912 75.4623L76.1704 77.1381C75.6618 77.0007 75.0999 76.914 74.5624 76.914C73.6928 76.914 73.2911 77.2616 73.2911 77.7331C73.2911 79.036 76.8943 78.5401 76.8943 81.1577C76.8943 82.7843 75.4879 83.986 73.1832 83.986Z" fill="#D10A10"/>
<path d="M80.7137 81.0715C80.6068 81.0715 80.42 81.0715 80.2326 81.0586V83.8369H78.1425V75.4624C78.9181 75.4254 79.7761 75.4008 80.7137 75.4008C83.0192 75.4008 84.2783 76.3674 84.2783 78.0932C84.2783 79.719 83.0192 81.0715 80.7137 81.0715ZM80.6744 76.9759C80.5279 76.9759 80.3801 76.9759 80.2326 76.9878V79.4454C80.3661 79.4579 80.487 79.4713 80.5929 79.4713C81.464 79.4579 82.1219 78.9985 82.1219 78.1801C82.1219 77.4728 81.7052 76.9759 80.6744 76.9759" fill="#D10A10"/>
</svg>
