<svg width="108" height="108" viewBox="0 0 108 108" fill="none" xmlns="http://www.w3.org/2000/svg">
<path d="M20.5754 42.906C16.9533 42.906 14 45.6462 14 49.0138C14 52.8786 16.7047 55.5774 20.5754 55.5774C24.4461 55.5774 27.1508 52.8786 27.1508 49.0138C27.1508 45.6462 24.2034 42.906 20.5754 42.906ZM20.5754 52.8253C18.5572 52.8253 16.9711 51.1563 16.9711 49.0316C16.9711 47.2324 18.6578 45.6581 20.5754 45.6581C22.493 45.6581 24.1739 47.2383 24.1739 49.0316C24.1739 51.1622 22.5936 52.8253 20.5754 52.8253Z" fill="#55474A"/>
<path d="M36.4902 55.169H39.9466L34.5667 48.9191L34.5904 48.8955L39.4554 43.3084H36.2239L31.5069 48.6528V43.3084H28.6601V55.169H31.5069V49.5583L31.572 49.6294L36.4902 55.169Z" fill="#55474A"/>
<path d="M52.257 42.8113C50.8247 41.0239 48.6941 40 46.4036 40C44.1132 40 41.9825 41.0239 40.5502 42.8113L40.3017 43.125L40.6094 43.3735L41.8464 44.3619L42.1541 44.6105L42.4027 44.2968C43.3793 43.0776 44.8352 42.3733 46.3977 42.3733C47.9602 42.3733 49.4161 43.0717 50.3927 44.2968L50.6412 44.6105L50.949 44.3619L52.1859 43.3735L52.4996 43.125L52.2511 42.8113H52.257Z" fill="#FAA61A"/>
<path d="M46.4037 53.0325C45.6816 53.0325 45.0957 53.6184 45.0957 54.3405C45.0957 55.0625 45.6816 55.6484 46.4037 55.6484C47.1257 55.6484 47.7116 55.0625 47.7116 54.3405C47.7116 53.6184 47.1257 53.0325 46.4037 53.0325Z" fill="#F04923"/>
<path d="M48.0845 45.7409C48.0845 44.8117 47.3329 44.0601 46.4037 44.0601C45.4745 44.0601 44.7228 44.8117 44.7228 45.7409C44.7228 45.812 45.51 51.4878 45.51 51.4878H45.5159C45.5336 51.9672 45.9183 52.3459 46.4037 52.3459C46.889 52.3459 47.2678 51.9672 47.2914 51.4878C47.2914 51.4878 48.0845 45.9007 48.0845 45.7409Z" fill="#F04923"/>
<path d="M60.7086 49.3038C61.4365 48.9783 62.3066 48.3569 62.3066 46.8181C62.3066 44.8768 61.1288 43.9713 58.5957 43.9713H54.9736V55.175H58.7377C61.0696 55.175 62.5729 53.9084 62.5729 51.9494C62.5729 50.3218 61.5904 49.6175 60.7027 49.3098M57.4357 50.3277H58.3649C59.4716 50.3277 60.0339 50.8249 60.0339 51.8074C60.0339 52.7898 59.4539 53.2811 58.43 53.2811H57.4357V50.3277ZM58.3471 48.5048H57.4357V45.7942H58.2998C59.2467 45.7942 59.8326 46.2854 59.8326 47.0726C59.8326 47.9189 59.223 48.5048 58.3471 48.5048Z" fill="#55474A"/>
<path d="M69.3851 43.9713H66.7573L62.7268 55.0921L62.6972 55.1691H65.2599L66.1003 52.559H69.8349L70.6576 55.1691H73.2794L69.4206 44.0897L69.3732 43.9654L69.3851 43.9713ZM69.2786 50.6769H66.6744L68.0298 46.4038L69.2726 50.6769H69.2786Z" fill="#55474A"/>
<path d="M80.6656 51.8429L77.0554 43.9713H74.1908V55.169H76.5168V47.3507L80.062 55.0566L80.1034 55.169H82.9975V43.9713H80.6656V51.8429Z" fill="#55474A"/>
<path d="M89.5671 49.2624L93.6922 43.9713H90.7389L87.6436 48.2208V43.9713H85.1105V55.169H87.6436V50.4402L90.8573 55.0862L90.9165 55.169H94L89.5671 49.2624Z" fill="#55474A"/>
<path d="M56.2046 61.5196H54.9795V68.2015H56.2046V61.5196Z" fill="#55474A"/>
<path d="M57.4593 64.0882C57.4593 63.7804 57.4475 63.4964 57.4238 63.2774H58.5365C58.5483 63.5259 58.5779 63.7864 58.5779 64.0349H58.5957C58.7673 63.739 59.1047 63.2004 59.9037 63.2004C61.0282 63.2004 61.3596 64.0349 61.3596 65.0292V68.2075H60.17V65.2482C60.17 64.4907 59.9806 64.177 59.4894 64.177C58.8679 64.177 58.649 64.7037 58.649 65.337V68.2075H57.4593V64.0882Z" fill="#55474A"/>
<path d="M66.4791 61.0224V67.3611C66.4791 67.7162 66.4909 68.024 66.5205 68.2015H65.4078C65.3901 68.0595 65.3664 67.7695 65.3664 67.4321H65.3368C65.1415 67.8524 64.7864 68.2726 64.0229 68.2726C62.7978 68.2726 62.2888 67.1066 62.2888 65.7335C62.2888 64.1237 62.928 63.1886 63.9933 63.1886C64.7035 63.1886 65.0942 63.591 65.2658 63.9757H65.2835V61.0165H66.4732L66.4791 61.0224ZM64.3543 67.4085C65.0527 67.4085 65.2954 66.6509 65.2954 65.7217C65.2954 64.7925 65.0291 64.0645 64.378 64.0645C63.727 64.0645 63.4902 64.7037 63.4902 65.6921C63.4902 66.8285 63.6678 67.4085 64.3603 67.4085" fill="#55474A"/>
<path d="M69.61 63.2004C70.6161 63.2004 71.7761 63.7272 71.7761 65.7395C71.7761 67.7517 70.6161 68.2844 69.61 68.2844C68.6038 68.2844 67.4379 67.805 67.4379 65.7395C67.4379 63.6739 68.6038 63.2004 69.61 63.2004ZM69.61 67.444C70.3735 67.444 70.551 66.5621 70.551 65.7395C70.551 64.9168 70.3794 64.0468 69.61 64.0468C68.8406 64.0468 68.663 64.9168 68.663 65.7395C68.663 66.5621 68.8465 67.444 69.61 67.444Z" fill="#55474A"/>
<path d="M72.7113 64.0882C72.7113 63.7804 72.6994 63.4964 72.6757 63.2774H73.7884C73.7943 63.5259 73.8239 63.7864 73.8239 64.0349H73.8417C74.0133 63.739 74.3507 63.2004 75.1556 63.2004C76.2742 63.2004 76.6115 64.0349 76.6115 65.0292V68.2075H75.4219V65.2482C75.4219 64.4907 75.2266 64.177 74.7413 64.177C74.1199 64.177 73.9009 64.7037 73.9009 65.337V68.2075H72.7113V64.0882Z" fill="#55474A"/>
<path d="M81.2989 67.9648C81.0504 68.0713 80.5355 68.2844 79.8252 68.2844C78.2391 68.2844 77.5466 67.1421 77.5466 65.8164C77.5466 64.3427 78.322 63.2004 79.5767 63.2004C80.642 63.2004 81.5475 63.8219 81.5475 65.8341V66.065H78.6948C78.6948 66.9054 79.0322 67.4144 79.9495 67.4144C80.6775 67.4144 81.0208 67.1954 81.2398 67.0297L81.2989 67.9648ZM80.3993 65.3133C80.3993 64.4433 80.1153 63.9994 79.5767 63.9994C78.9552 63.9994 78.6948 64.6623 78.6948 65.3133H80.3993Z" fill="#55474A"/>
<path d="M82.3347 67.0534C82.53 67.1303 83.0153 67.3789 83.5716 67.3789C84.0037 67.3789 84.3351 67.2723 84.3351 66.8936C84.3351 66.6982 84.2404 66.5207 83.8084 66.2721L83.3171 65.9821C82.82 65.6862 82.2696 65.3725 82.2696 64.5972C82.2696 63.9166 82.9324 63.2004 83.9741 63.2004C84.6074 63.2004 85.0927 63.3602 85.2051 63.4017L85.14 64.319C84.8441 64.2066 84.5304 64.1 84.0984 64.1C83.619 64.1 83.4177 64.2835 83.4177 64.5794C83.4177 64.8458 83.6308 64.9937 83.9741 65.2127L84.56 65.5856C85.1696 65.9762 85.4774 66.2544 85.4774 66.8285C85.4774 67.7399 84.708 68.2844 83.6367 68.2844C83.0212 68.2844 82.5181 68.1424 82.2696 68.0477L82.3288 67.0593L82.3347 67.0534Z" fill="#55474A"/>
<path d="M86.4599 61.1763H87.685V62.3482H86.4599V61.1763ZM86.4776 63.2714H87.6673V68.2015H86.4776V63.2714Z" fill="#55474A"/>
<path d="M89.0936 63.5615C89.431 63.4076 89.8985 63.2004 90.6561 63.2004C92.189 63.2004 92.5441 63.9462 92.5441 65.1831V67.3374C92.5441 67.6926 92.5796 68.0181 92.6092 68.2075H91.5379C91.4787 68.0121 91.4728 67.7754 91.4728 67.5387H91.4551C91.1591 67.9411 90.7804 68.2844 90.0761 68.2844C89.3126 68.2844 88.6024 67.7577 88.6024 66.8403C88.6024 65.4968 89.6973 65.1654 91.1947 65.1654H91.4373V64.9819C91.4373 64.4907 91.1947 64.0409 90.52 64.0409C89.9281 64.0409 89.4014 64.3249 89.1705 64.5202L89.1054 63.5615H89.0936ZM91.4314 65.7927H91.3249C90.3069 65.7927 89.7032 65.9999 89.7032 66.7219C89.7032 67.1717 89.9991 67.4795 90.4608 67.4795C91.171 67.4795 91.4314 66.9527 91.4314 66.0709V65.7927Z" fill="#55474A"/>
</svg>
