<svg width="108" height="108" viewBox="0 0 108 108" fill="none" xmlns="http://www.w3.org/2000/svg">
<g clip-path="url(#clip0_801_7544)">
<path fill-rule="evenodd" clip-rule="evenodd" d="M89.7775 47C92.109 47 94 48.891 94 51.2225C94 53.554 92.109 55.445 89.7775 55.445C87.446 55.445 85.555 53.554 85.555 51.2225C85.555 48.891 87.446 47 89.7775 47Z" fill="url(#paint0_linear_801_7544)"/>
<path fill-rule="evenodd" clip-rule="evenodd" d="M88.4105 47.6113C88.4029 47.9872 88.3421 48.3746 88.2244 48.7581C88.551 48.7581 88.8814 48.8074 89.2003 48.91C89.2725 48.9327 89.3446 48.9593 89.413 48.9859C89.4851 49.0163 89.5573 49.0467 89.6256 49.0808C89.7167 48.6897 89.7471 48.2986 89.7205 47.9265C89.6484 47.8885 89.5762 47.8543 89.5003 47.824C89.4206 47.7898 89.3332 47.7594 89.2421 47.7328C88.9687 47.6493 88.6877 47.6113 88.4067 47.6151L88.4105 47.6113ZM85.6043 51.5376C85.6651 51.5718 85.7221 51.6098 85.779 51.6478C85.817 51.663 85.8588 51.6781 85.8967 51.6933C86.0068 51.7313 86.117 51.7617 86.2271 51.7807C86.0296 51.6705 85.8246 51.587 85.6119 51.5263L85.6005 51.5338L85.6043 51.5376ZM86.3676 52.2515C86.5992 52.5857 86.7625 52.992 86.8346 53.4363H86.846C87.1498 53.5312 87.465 53.5692 87.7764 53.5578C87.5561 53.0413 87.2447 52.6009 86.8764 52.2553C86.7055 52.2705 86.5385 52.2705 86.3676 52.2553V52.2515ZM86.8726 53.9109V53.9451C86.8726 54.0552 86.8688 54.1653 86.8574 54.2716C86.7473 54.1653 86.641 54.0514 86.5423 53.9337C86.5423 53.8919 86.5423 53.8502 86.5423 53.8084C86.5043 53.7932 86.4625 53.778 86.4245 53.7628L86.4056 53.7552C86.2195 53.5046 86.06 53.235 85.9309 52.9502C86.0942 53.0869 86.2727 53.2046 86.4739 53.2996C86.3828 52.9084 86.2081 52.5629 85.9803 52.2857C85.9423 52.2401 85.9043 52.1984 85.8626 52.1566C85.8284 52.1452 85.7904 52.1338 85.7562 52.1224C85.7221 52.111 85.6841 52.0958 85.6499 52.0806C85.6157 51.9098 85.5892 51.7313 85.5778 51.5528V51.549V51.5452V51.5414C85.5778 51.4921 85.574 51.4465 85.5702 51.3971V51.3933V51.3896V51.3668V51.363V51.3592L86.922 48.1543C86.941 48.4391 86.9334 48.7353 86.8916 49.0353C87.1726 48.9252 87.465 48.853 87.7612 48.8112C87.8941 48.4315 87.9624 48.0442 87.9776 47.6721C87.7384 47.71 87.503 47.7708 87.2713 47.8619C87.4916 47.6986 87.727 47.5544 87.9776 47.4366H87.9852H87.9928V47.4328H87.9966L88.0042 47.429H88.0118V47.4252L88.0194 47.4214H88.027L88.0308 47.4177L88.0384 47.4139H88.046L88.0536 47.4063H88.0611H88.0687L88.0763 47.3987H88.0839H88.0915L88.0991 47.3911H88.1029H88.1105L88.1181 47.3835H88.1257L88.1333 47.3759H88.1371H88.1447L88.1523 47.3683H88.1599H88.1675L88.1751 47.3645H88.1827H88.1903L88.1978 47.3607H88.2054H88.2092L88.2168 47.3569H88.2244V47.3531H88.2282L88.2358 47.3493H88.2434L88.2472 47.3455L88.2548 47.3417H88.2624L88.2662 47.3379H88.2738H88.2814L88.289 47.3341H88.2966H88.3042L88.3118 47.3303H88.3194H88.327L88.3345 47.3265H88.3384H88.3459L88.3535 47.3227H88.3573H88.3649L88.3725 47.3189H88.3763H88.3839L88.3991 47.3113H88.4067C88.4713 47.2885 88.5358 47.2696 88.6042 47.2506C88.8662 47.262 89.1244 47.3075 89.3788 47.3835C89.4699 47.4101 89.5573 47.4404 89.6446 47.4784C89.6142 47.3493 89.5762 47.224 89.5307 47.0987V47.0911C89.6104 47.0873 89.694 47.0835 89.7813 47.0835C89.8534 47.0835 89.9294 47.0835 90.0015 47.0873C90.0661 47.2923 90.1155 47.5088 90.1458 47.729C90.6433 48.0442 91.0192 48.4923 91.2508 49.0163C91.547 49.6884 91.604 50.4858 91.3647 51.2832L91.3458 51.3402C91.4976 51.9781 91.4749 52.6844 91.2546 53.3869C91.2242 53.4818 91.1901 53.5768 91.1559 53.6717C90.9546 54.1805 90.6698 54.6362 90.3205 55.0159C90.2977 55.183 90.2673 55.3425 90.2218 55.502C90.0775 55.5171 89.9294 55.5247 89.7813 55.5247H89.7623C89.5231 55.5247 89.2877 55.502 89.0598 55.464C89.3636 55.2931 89.6446 55.0729 89.8952 54.8184C89.937 54.3742 89.8952 53.9033 89.7623 53.4325C89.6332 53.516 89.5041 53.5957 89.3674 53.6641C89.056 53.8236 88.7219 53.9413 88.3839 54.0134C88.5092 54.4615 88.5586 54.9096 88.5396 55.3387C88.3877 55.2931 88.2396 55.2361 88.0953 55.1754C88.0953 54.8185 88.046 54.4463 87.9358 54.0742C87.5827 54.1008 87.2258 54.0742 86.8764 53.9907L86.8726 53.9109ZM86.7701 49.5441C86.7397 49.6504 86.7093 49.7567 86.6714 49.8631C86.6144 50.0263 86.5499 50.182 86.4777 50.3339C86.5764 50.3225 86.6752 50.3187 86.7739 50.3187C87.0777 50.0339 87.3397 49.6808 87.5447 49.2783C87.2827 49.3353 87.0207 49.4264 86.7739 49.5441H86.7701ZM85.5588 51.3174L86.9106 48.1277C86.7511 48.2758 86.603 48.4353 86.4701 48.6024C86.4587 48.8112 86.4321 49.0239 86.3866 49.2365C86.2195 49.3277 86.06 49.4302 85.9043 49.5441C85.7904 49.8099 85.7031 50.0871 85.6423 50.3757C85.8094 50.1972 85.9879 50.0377 86.1815 49.8972C86.1018 50.0947 86.0069 50.2846 85.9005 50.4592C85.8702 50.4706 85.8436 50.4782 85.8132 50.4896C85.7448 50.5162 85.6765 50.5466 85.6081 50.5769C85.5892 50.7136 85.574 50.8503 85.5664 50.987V50.9946V51.0022V51.006V51.0136V51.0212V51.025V51.0326V51.0402V51.044V51.0516V51.0554V51.0592V51.063V51.082V51.0858V51.0934V51.0972V51.101V51.1389V51.1465V51.1541V51.1617V51.1693V51.1769V51.1845V51.1921V51.1997V51.2073V51.2149V51.2187V51.2263V51.2339V51.2415V51.2453V51.2529V51.2642V51.268V51.2718V51.287L85.5588 51.3174ZM86.1891 51.2642C86.2765 51.2225 86.36 51.1731 86.4473 51.1237C86.6182 51.0212 86.7815 50.9035 86.9372 50.7706C87.3207 50.7972 87.7042 50.9187 88.0649 51.1199C88.1295 51.1579 88.1941 51.1959 88.2586 51.2377C88.1713 51.306 88.0763 51.3668 87.9852 51.4237C87.6814 51.606 87.3549 51.7313 87.0207 51.7845C86.846 51.6364 86.66 51.5073 86.4663 51.4009C86.3752 51.3516 86.284 51.3022 86.1929 51.2604L86.1891 51.2642ZM87.408 52.1604C87.6852 52.0844 87.9586 51.9629 88.2168 51.811C88.3573 51.7275 88.494 51.6288 88.6269 51.5225C89.0332 51.8832 89.3788 52.3578 89.6104 52.9198C89.4699 53.0224 89.318 53.1135 89.1661 53.1894C88.8738 53.3413 88.5624 53.4477 88.2434 53.5084C88.0422 52.992 87.7536 52.5363 87.4118 52.1604H87.408ZM88.0649 49.2061C87.8789 49.6466 87.6283 50.0415 87.3359 50.3719C87.6586 50.4364 87.9776 50.558 88.2814 50.7288C88.3915 50.7896 88.5016 50.8617 88.6042 50.9339C88.9839 50.558 89.2953 50.0719 89.5003 49.5099C89.4206 49.4682 89.337 49.4302 89.2535 49.3998C89.1927 49.377 89.132 49.3542 89.0712 49.3353C88.7447 49.2327 88.4029 49.191 88.0649 49.2061ZM90.0319 49.3087C90.4686 49.6049 90.8141 50.0036 91.0534 50.4668C91.0951 49.9884 91.0192 49.5251 90.8407 49.1188C90.6888 48.7771 90.4686 48.4771 90.18 48.2303C90.18 48.5834 90.1268 48.9441 90.0319 49.3087ZM90.3471 54.1805C90.5028 53.9489 90.6357 53.6983 90.7382 53.4325C90.7724 53.3489 90.8028 53.2616 90.8293 53.178C90.947 52.7983 91.004 52.4148 90.9964 52.0503C90.7686 52.4414 90.4724 52.7831 90.1382 53.0717C90.2597 53.4439 90.3281 53.816 90.3471 54.1843V54.1805ZM90.8787 51.2453C90.8445 51.1199 90.8028 51.0022 90.7534 50.8845C90.5635 50.4364 90.2711 50.0491 89.8838 49.7567C89.6636 50.3301 89.3408 50.8238 88.9535 51.2225C89.3636 51.5946 89.7129 52.0693 89.9636 52.6274C90.3281 52.2895 90.6243 51.8718 90.8217 51.3971C90.8407 51.3478 90.8597 51.2984 90.8787 51.2491V51.2453Z" fill="url(#paint1_linear_801_7544)"/>
<path fill-rule="evenodd" clip-rule="evenodd" d="M87.5827 53.2806C87.4346 52.7604 87.1346 52.263 86.7093 51.8149C87.1498 51.7997 87.8827 51.606 88.2434 51.2339C87.9206 50.9149 87.2181 50.6681 86.5878 50.6567C86.9675 50.1783 87.4953 49.6543 87.5865 49.0277C87.1498 49.1454 86.6524 49.3353 86.2954 49.7112C86.4283 49.3467 86.5157 48.9594 86.5119 48.5265C86.4891 48.5531 86.4701 48.5797 86.4511 48.6024L85.8815 49.9808L85.7638 49.8707C85.6233 50.2922 85.5474 50.7441 85.5474 51.2149C85.5474 51.6098 85.6005 51.9896 85.7031 52.3541C85.9992 52.7642 86.2764 53.2806 86.546 53.835C86.527 53.4477 86.4777 53.0566 86.3182 52.6503C86.6865 52.9389 87.1688 53.1173 87.5865 53.2768L87.5827 53.2806Z" fill="#FF0000"/>
<path fill-rule="evenodd" clip-rule="evenodd" d="M15.1468 54.4653V53.8502H15.3442C15.4202 53.8502 15.4695 53.8502 15.4923 53.8578C15.5265 53.8654 15.5569 53.8881 15.5796 53.9185C15.6024 53.9489 15.6138 53.9907 15.6138 54.04C15.6138 54.078 15.6062 54.1084 15.5948 54.135C15.5796 54.1615 15.5645 54.1805 15.5417 54.1957C15.5189 54.2109 15.4999 54.2185 15.4771 54.2261C15.4467 54.2337 15.405 54.2337 15.348 54.2337H15.2683V54.4653H15.143H15.1468ZM15.2721 53.9527V54.1274H15.3404C15.3898 54.1274 15.4202 54.1274 15.4391 54.116C15.4543 54.1084 15.4695 54.1008 15.4771 54.0856C15.4847 54.0704 15.4923 54.0552 15.4923 54.0362C15.4923 54.0135 15.4847 53.9945 15.4733 53.9793C15.4619 53.9641 15.4429 53.9565 15.424 53.9527C15.4088 53.9527 15.3784 53.9489 15.3366 53.9489H15.2759L15.2721 53.9527ZM16.21 54.4653L15.9632 53.8502H15.8303L15.591 54.4653H15.7239L15.7733 54.3248H16.0201L16.0733 54.4653H16.21ZM15.8151 54.2223L15.8986 53.9945L15.986 54.2223H15.8151ZM16.2745 54.4653V53.8502H16.3961L16.6505 54.2641V53.8502H16.7644V54.4653H16.6391L16.3885 54.059V54.4653H16.2745ZM16.8897 54.4653V53.8502H17.015V54.4653H16.8897ZM17.1327 54.4653V53.8502H17.2542L17.5086 54.2641V53.8502H17.6226V54.4653H17.4972L17.2466 54.059V54.4653H17.1327ZM18.2795 54.2375V54.135H18.5453V54.3818C18.5187 54.4084 18.4807 54.4312 18.4314 54.4501C18.382 54.4691 18.3326 54.4805 18.2795 54.4805C18.2149 54.4805 18.158 54.4653 18.1124 54.4387C18.063 54.4122 18.0289 54.3742 18.0061 54.321C17.9833 54.2717 17.9681 54.2147 17.9681 54.1577C17.9681 54.0932 17.9833 54.0362 18.0099 53.9869C18.0365 53.9375 18.0744 53.8995 18.1276 53.873C18.1656 53.854 18.2149 53.8426 18.2757 53.8426C18.3516 53.8426 18.4124 53.8578 18.4541 53.8919C18.4959 53.9261 18.5263 53.9679 18.5377 54.0248L18.4124 54.0476C18.4048 54.0173 18.3858 53.9945 18.363 53.9755C18.3402 53.9565 18.3099 53.9489 18.2719 53.9489C18.2187 53.9489 18.1732 53.9679 18.1428 54.0021C18.1124 54.0362 18.0934 54.0894 18.0934 54.154C18.0934 54.2261 18.1086 54.2831 18.1428 54.3172C18.177 54.3552 18.2187 54.3704 18.2719 54.3704C18.2985 54.3704 18.325 54.3666 18.3516 54.3552C18.3782 54.3438 18.401 54.3324 18.42 54.3172V54.2375H18.2795ZM18.663 53.8502H18.925C18.9896 53.8502 19.0389 53.854 19.0693 53.8654C19.0997 53.8768 19.1225 53.8957 19.1414 53.9261C19.1604 53.9527 19.168 53.9869 19.168 54.0248C19.168 54.0704 19.1528 54.1084 19.1263 54.1388C19.0997 54.1691 19.0579 54.1881 19.0047 54.1957C19.0313 54.2109 19.0541 54.2299 19.0693 54.2489C19.0883 54.2679 19.1111 54.302 19.1414 54.3476L19.2174 54.4691H19.0693L18.982 54.3362C18.9516 54.2869 18.9288 54.2603 18.9174 54.2451C18.906 54.2337 18.8946 54.2261 18.8794 54.2185C18.8642 54.2147 18.8453 54.2109 18.8149 54.2109H18.7883V54.4691H18.663V53.8502ZM18.7883 54.1122H18.8794C18.9402 54.1122 18.9744 54.1122 18.9896 54.1046C19.0047 54.1008 19.0161 54.0894 19.0237 54.078C19.0313 54.0666 19.0351 54.0514 19.0351 54.0324C19.0351 54.0135 19.0313 53.9945 19.0199 53.9831C19.0085 53.9717 18.9934 53.9641 18.9744 53.9603C18.963 53.9603 18.9326 53.9603 18.8832 53.9603H18.7845V54.116L18.7883 54.1122ZM19.2592 54.1615C19.2592 54.097 19.2668 54.0476 19.2857 54.0021C19.3009 53.9717 19.3199 53.9413 19.3427 53.9185C19.3655 53.8919 19.3921 53.8768 19.4224 53.8616C19.4604 53.8464 19.506 53.8388 19.5553 53.8388C19.6465 53.8388 19.7186 53.8654 19.7718 53.9223C19.8249 53.9793 19.8553 54.0552 19.8553 54.1577C19.8553 54.2603 19.8287 54.3362 19.7756 54.3932C19.7224 54.4501 19.6503 54.4767 19.5591 54.4767C19.468 54.4767 19.3959 54.4501 19.3389 54.3932C19.2819 54.3362 19.2592 54.2603 19.2592 54.1615ZM19.3883 54.1577C19.3883 54.2261 19.4035 54.2793 19.4376 54.3172C19.4718 54.3514 19.5098 54.3704 19.5591 54.3704C19.6085 54.3704 19.6503 54.3514 19.6807 54.3172C19.711 54.2831 19.73 54.2261 19.73 54.1577C19.73 54.0894 19.7148 54.0362 19.6845 53.9983C19.6541 53.9641 19.6123 53.9451 19.5591 53.9451C19.506 53.9451 19.468 53.9641 19.4338 53.9983C19.4035 54.0324 19.3883 54.0856 19.3883 54.1577ZM19.9541 53.8502H20.0794V54.1843C20.0794 54.2375 20.0794 54.2717 20.0832 54.2869C20.087 54.3134 20.1021 54.3324 20.1211 54.3476C20.1401 54.3628 20.1667 54.3704 20.2009 54.3704C20.235 54.3704 20.2616 54.3628 20.2806 54.3476C20.2996 54.3324 20.3072 54.3172 20.311 54.2944C20.311 54.2717 20.3148 54.2375 20.3148 54.1881V53.8464H20.4401V54.1691C20.4401 54.2413 20.4401 54.2944 20.4287 54.3248C20.4211 54.3552 20.4097 54.3818 20.3907 54.4008C20.3717 54.4236 20.349 54.4387 20.3186 54.4501C20.2882 54.4615 20.2502 54.4691 20.2009 54.4691C20.1439 54.4691 20.0983 54.4615 20.068 54.4501C20.0376 54.4349 20.0148 54.4198 19.9958 54.397C19.9768 54.3742 19.9654 54.3514 19.9616 54.3286C19.9541 54.2944 19.9503 54.2413 19.9503 54.1729V53.8426L19.9541 53.8502ZM20.573 54.4653V53.8502H20.7705C20.8464 53.8502 20.8958 53.8502 20.9185 53.8578C20.9527 53.8654 20.9831 53.8881 21.0059 53.9185C21.0287 53.9489 21.0401 53.9907 21.0401 54.04C21.0401 54.078 21.0325 54.1084 21.0211 54.135C21.0059 54.1615 20.9907 54.1805 20.9679 54.1957C20.9451 54.2109 20.9261 54.2185 20.9034 54.2261C20.873 54.2337 20.8312 54.2337 20.7743 54.2337H20.6945V54.4653H20.5692H20.573ZM20.6983 53.9527V54.1274H20.7667C20.816 54.1274 20.8464 54.1274 20.8654 54.116C20.8806 54.1084 20.8958 54.1008 20.9034 54.0856C20.911 54.0704 20.9185 54.0552 20.9185 54.0362C20.9185 54.0135 20.911 53.9945 20.8996 53.9793C20.8882 53.9641 20.8692 53.9565 20.8502 53.9527C20.835 53.9527 20.8046 53.9489 20.7629 53.9489H20.7021L20.6983 53.9527ZM14.4025 54.4653C14.4025 54.6742 14.5316 54.8982 14.7594 54.8982H21.2147C21.5489 54.8982 21.6894 54.7729 21.6894 54.4653V47.7518C21.6894 47.5126 21.5033 47.3569 21.2299 47.3569H14.805C14.6379 47.3569 14.4025 47.5392 14.4025 47.6683V54.4653ZM14 47.6303V54.4122C14 54.7159 14.1177 55.0045 14.3683 55.1488C14.4329 55.1868 14.5582 55.2551 14.6531 55.2551H21.3324C21.7463 55.2551 22.0767 54.9362 22.0767 54.5754V47.6721C22.0767 47.5202 21.9666 47.3227 21.8489 47.2126C21.7501 47.1215 21.5375 47.0076 21.3476 47.0076H14.7139C14.5734 47.0076 14.3531 47.1253 14.2506 47.2202C14.1557 47.3075 14 47.4936 14 47.6303ZM18.2757 51.3022C18.2377 51.3136 18.2187 51.3326 18.1694 51.344C17.9833 51.3972 17.8656 51.2984 17.8276 51.287L17.9111 51.5301C18.044 52.0389 17.8846 52.6085 17.52 52.9616C17.015 53.4439 16.2442 53.5426 15.648 53.1439C15.5872 53.1021 15.5189 53.0566 15.4809 52.9996C16.2138 52.9996 16.1302 51.9364 15.4657 51.9554C15.2873 51.9592 15.0784 52.0845 15.0442 52.2288H15.0177C15.0177 52.1756 14.9987 52.13 14.9949 52.0883C14.9797 51.9743 14.9949 51.7161 15.0139 51.625C15.048 51.4503 15.1088 51.2795 15.1923 51.1503C15.2303 51.0858 15.2797 51.0136 15.329 50.9605C15.3594 50.9263 15.3746 50.9035 15.405 50.8731C15.5037 50.7668 15.7429 50.5997 15.8872 50.5428C16.0239 50.4896 16.2214 50.4213 16.4188 50.4213C16.8403 50.4213 17.0871 50.5124 17.3985 50.744C17.5238 50.839 17.6074 50.9415 17.7061 51.0744C17.7061 50.9757 17.7175 50.9187 17.7706 50.8542L17.8162 50.8048C18.0554 50.577 18.4807 50.7934 18.4124 51.0896L18.4352 51.0706C18.4352 51.0706 18.4466 51.0554 18.4541 51.0478L18.7389 50.7782C19.1718 50.4706 19.7452 50.4175 20.2123 50.6339C20.2958 50.6719 20.349 50.7061 20.4211 50.7516C20.7515 50.9719 20.9603 51.2832 21.0552 51.6782C21.116 51.944 21.0742 52.0237 21.0742 52.2553C21.0211 52.2401 21.0249 52.206 20.9907 52.1642C20.8578 52.0047 20.5768 51.9364 20.3528 52.0769C20.2768 52.1262 20.2237 52.168 20.1743 52.2515C19.9844 52.5781 20.1287 53.0414 20.6414 53.0414C20.5958 53.1059 20.5274 53.1515 20.4591 53.1971L20.2578 53.3186C19.525 53.6603 18.7313 53.3983 18.3288 52.7338C18.2605 52.6199 18.2187 52.5287 18.1807 52.392C18.12 52.1832 18.1124 52.0465 18.1314 51.8035C18.1542 51.5225 18.2605 51.3858 18.2795 51.3022H18.2757ZM16.6087 49.2138C16.6087 48.8948 16.734 48.5416 16.9277 48.2986C17.034 48.1619 17.1935 48.0138 17.3454 47.9303C17.539 47.824 17.5162 47.8544 17.6529 47.7898C17.6226 47.9189 17.4934 48.0404 17.6377 48.3176C17.6795 48.3974 17.7099 48.4315 17.7858 48.4847C18.0782 48.6821 18.4655 48.5682 18.5833 48.272C18.6858 48.0176 18.5719 47.8885 18.5491 47.7898C18.6136 47.824 18.6972 47.8506 18.7655 47.8847C18.9592 47.9797 19.1225 48.124 19.2592 48.2872C19.8212 48.9783 19.6313 50.0226 18.8605 50.4858C18.4997 50.7023 18.082 50.7478 17.6719 50.6339C17.4934 50.5846 17.3492 50.501 17.2049 50.3947C17.1441 50.3491 16.9732 50.1934 16.9315 50.1289C16.7416 49.8517 16.6125 49.5783 16.6125 49.2138H16.6087Z" fill="#2171B5"/>
<path fill-rule="evenodd" clip-rule="evenodd" d="M46.1815 48.7125C46.1815 49.0353 46.0714 49.3049 45.8246 49.5289C45.6043 49.7302 45.3575 49.8213 45.0879 49.8213C44.7993 49.8213 44.5449 49.7302 44.3285 49.5403C44.0854 49.3391 43.9639 49.0581 43.9639 48.7239C43.9639 48.3898 44.0778 48.1012 44.3171 47.8809C44.5373 47.6911 44.7955 47.5999 45.0879 47.5999C45.3651 47.5999 45.6119 47.6987 45.8322 47.8885C46.0714 48.1088 46.1853 48.3822 46.1853 48.7125H46.1815Z" fill="#2171B5"/>
<path fill-rule="evenodd" clip-rule="evenodd" d="M37.5922 50.1099H39.4984V50.9681C39.7756 50.6149 40.068 50.3643 40.3642 50.2162C40.6527 50.0643 41.0135 49.9922 41.4312 49.9922C41.9894 49.9922 42.4336 50.1593 42.7564 50.4934C43.0792 50.82 43.2349 51.3288 43.2349 52.0237V55.3463H41.1844V52.4718C41.1844 52.1376 41.116 51.9136 40.9945 51.7693C40.8692 51.6364 40.6983 51.568 40.4705 51.568C40.2237 51.568 40.0262 51.6592 39.8743 51.8452C39.7186 52.0275 39.6351 52.3541 39.6351 52.8401V55.3463H37.5922V50.1099ZM46.8954 50.1099H48.8016V50.9681C49.0826 50.6149 49.3712 50.3643 49.6598 50.2162C49.9522 50.0643 50.3053 49.9922 50.723 49.9922C51.2926 49.9922 51.7369 50.1593 52.0596 50.4934C52.3748 50.82 52.5381 51.3288 52.5381 52.0237V55.3463H50.48V52.4718C50.48 52.1376 50.4192 51.9136 50.3015 51.7693C50.1724 51.6364 50.0015 51.568 49.7737 51.568C49.5269 51.568 49.3218 51.6592 49.1661 51.8452C49.0142 52.0275 48.9383 52.3541 48.9383 52.8401V55.3463H46.8954V50.1099ZM43.9601 55.3463H46.1815V50.1099H43.9601V55.3463ZM30.7496 50.501C30.7572 52.4414 29.2497 53.3072 27.6358 53.1249V51.6668C28.2054 51.5984 28.6497 51.2149 28.6649 50.3871C28.6801 49.8175 28.2396 49.3732 27.6358 49.3201V47.9645C27.7384 47.9569 27.8523 47.9569 27.97 47.9569C29.5686 47.9721 30.742 48.6897 30.7534 50.501H30.7496ZM27.6358 53.1249V51.6668C27.3131 51.7009 26.9485 51.6402 26.5992 51.5073V49.5631C26.9561 49.3543 27.3245 49.2897 27.6358 49.3201V47.9645C27.2371 47.9911 26.9372 48.0822 26.5992 48.2227V47.9569H24.2943V55.3463H26.5992V52.8743C26.9372 53.0072 27.2903 53.0945 27.6358 53.1249ZM33.943 49.9922C34.524 49.9922 34.9987 50.0264 35.3594 50.0909C35.7353 50.1631 36.0391 50.3074 36.2859 50.5238C36.6619 50.8504 36.8821 51.4541 36.8821 51.9364V55.3463H34.9759V54.7539C34.7367 54.9552 34.3607 55.1222 33.9468 55.221V54.2793C34.0759 54.2527 34.2051 54.2109 34.3228 54.1426C34.5202 54.0438 34.6531 53.9185 34.7367 53.7742C34.8164 53.6261 34.8582 53.4325 34.8582 53.197V52.8895C34.581 52.992 34.2848 53.0641 33.981 53.1401C33.9734 53.1401 33.9582 53.1439 33.9468 53.1439V52.1566C34.0228 52.1414 34.0911 52.1224 34.1443 52.1072C34.3645 52.0465 34.6038 51.9667 34.8582 51.8642C34.8582 51.6136 34.8088 51.4389 34.7063 51.3364C34.6038 51.2453 34.4177 51.1959 34.1633 51.1959C34.0873 51.1959 34.019 51.1959 33.9506 51.2073V49.9884L33.943 49.9922ZM33.0925 51.83C33.1722 51.5946 33.2823 51.4465 33.4114 51.363C33.5405 51.2794 33.719 51.2301 33.9468 51.2111V49.9922H33.8975C33.514 49.9922 33.1646 50.0264 32.8343 50.0757C32.5115 50.1365 32.2533 50.2162 32.0672 50.3188C31.8166 50.463 31.6077 50.6263 31.4748 50.8276C31.3381 51.0174 31.228 51.287 31.1597 51.6212L33.1001 51.83H33.0925ZM33.943 54.2793C33.8595 54.2944 33.7722 54.302 33.6886 54.302C33.4646 54.302 33.3051 54.2527 33.195 54.1615C33.0849 54.0628 33.0241 53.9451 33.0241 53.7932C33.0241 53.6603 33.0849 53.5502 33.195 53.4439C33.3051 53.3527 33.5519 53.2502 33.943 53.1515V52.1642C33.6696 52.2288 33.2444 52.3123 32.652 52.4414C32.0216 52.5667 31.5888 52.7566 31.3495 53.0186C31.1103 53.2768 30.9926 53.6034 30.9926 54.0135C30.985 54.9552 31.9381 55.3501 32.9406 55.3501C33.2823 55.3501 33.6203 55.3083 33.943 55.2248V54.2793Z" fill="#FF0000"/>
<path fill-rule="evenodd" clip-rule="evenodd" d="M83.0564 48.7885C83.0564 49.0695 82.9615 49.3011 82.745 49.4948C82.5552 49.6694 82.3387 49.7454 82.1071 49.7454C81.8565 49.7454 81.6362 49.6656 81.4502 49.5023C81.2375 49.3277 81.135 49.0847 81.135 48.7961C81.135 48.5075 81.2337 48.2569 81.4426 48.067C81.6324 47.9037 81.8565 47.824 82.1071 47.824C82.3463 47.824 82.5627 47.9075 82.7526 48.0746C82.9615 48.2645 83.0564 48.5037 83.0564 48.7847V48.7885Z" fill="#2171B5"/>
<path fill-rule="evenodd" clip-rule="evenodd" d="M81.135 50.0833H83.0564V55.221H81.135V50.0833ZM78.2339 52.8021C77.9567 52.9009 77.6719 52.992 77.3719 53.0679C76.9656 53.1781 76.7074 53.2882 76.6011 53.3945C76.4872 53.5046 76.434 53.6299 76.434 53.7704C76.434 53.9299 76.491 54.0628 76.5973 54.1653C76.7074 54.2679 76.8707 54.3172 77.0834 54.3172C77.296 54.3172 77.5162 54.2603 77.7099 54.1502C77.8998 54.04 78.0365 53.9071 78.12 53.7476C78.1997 53.5882 78.2415 53.3831 78.2415 53.1287V52.8021H78.2339ZM76.4986 51.7427L74.5848 51.5377C74.6569 51.1997 74.7594 50.9339 74.8961 50.7402C75.0328 50.5466 75.2265 50.3757 75.4847 50.2352C75.667 50.1327 75.9214 50.0529 76.2404 49.996C76.5593 49.939 76.9087 49.9124 77.2846 49.9124C77.8846 49.9124 78.3668 49.9466 78.7276 50.015C79.0921 50.0833 79.3959 50.2238 79.6351 50.4403C79.806 50.5884 79.9427 50.801 80.0376 51.0744C80.1363 51.3478 80.1857 51.6098 80.1857 51.8566V54.1881C80.1857 54.4387 80.2009 54.6324 80.2313 54.7729C80.2616 54.9134 80.33 55.0919 80.4363 55.3121H78.5605C78.4845 55.1754 78.4352 55.0729 78.4124 55.0045C78.3896 54.9324 78.3668 54.8223 78.344 54.6704C78.082 54.9248 77.82 55.1071 77.5618 55.2134C77.2087 55.3577 76.7948 55.4336 76.3277 55.4336C75.705 55.4336 75.2303 55.2893 74.9075 54.9931C74.5848 54.7008 74.4215 54.34 74.4215 53.9147C74.4215 53.5122 74.5354 53.1819 74.7708 52.9236C75.0063 52.6654 75.4354 52.4718 76.0619 52.3465C76.8137 52.1946 77.2998 52.0883 77.5238 52.0237C77.7479 51.963 77.9833 51.8832 78.2339 51.7845C78.2339 51.5339 78.1845 51.363 78.082 51.2605C77.9795 51.1617 77.8048 51.1124 77.5466 51.1124C77.2201 51.1124 76.9732 51.1655 76.81 51.2719C76.6808 51.3554 76.5783 51.5111 76.5024 51.7427H76.4986ZM56.1872 49.2973L56.1948 53.9299C56.3543 53.9831 56.5062 54.0097 56.6505 54.0097C56.9087 54.0097 57.1441 53.9337 57.3416 53.7704C57.5428 53.6072 57.7099 53.3565 57.8276 53.0148C57.9529 52.6578 58.0251 52.206 58.0289 51.6516C58.0365 51.2301 57.9947 50.8504 57.9073 50.5276C57.801 50.1289 57.6264 49.8137 57.4023 49.5935C57.1783 49.377 56.9011 49.2555 56.5859 49.2479C56.4606 49.2479 56.3277 49.2593 56.191 49.2935L56.1872 49.2973ZM54.057 47.9948H56.0201V48.291C56.5821 48.029 57.1175 47.9227 57.5998 47.9531C58.0744 47.9797 58.4997 48.1353 58.8643 48.3936C59.225 48.6518 59.5212 49.0125 59.7376 49.453C60.0224 50.0416 60.1629 50.7668 60.1173 51.5794C60.0794 52.5857 59.9199 53.3755 59.6617 53.9717C59.4338 54.5071 59.1225 54.8868 58.7503 55.1336C58.3782 55.3767 57.9415 55.483 57.4555 55.464C57.0112 55.445 56.5214 55.3235 56.0087 55.1109V55.4336H53.9734C53.9848 52.954 53.9962 50.4744 54.0114 47.9986H54.057V47.9948ZM69.675 52.7034C69.675 53.1477 69.7661 53.4704 69.9522 53.6679C70.1344 53.8692 70.3661 53.9679 70.647 53.9679C70.9053 53.9679 71.1255 53.8692 71.3002 53.6755C71.4786 53.478 71.566 53.1515 71.566 52.6882C71.566 52.2819 71.4786 51.9819 71.3078 51.7921C71.1369 51.6022 70.928 51.5035 70.6812 51.5035C70.385 51.5035 70.1458 51.6022 69.9597 51.8035C69.7699 52.0009 69.6788 52.3047 69.6788 52.7072L69.675 52.7034ZM67.4916 48.2037H69.6939V50.6529C69.9104 50.4479 70.1572 50.2922 70.4344 50.1896C70.7116 50.0871 71.0154 50.0378 71.3495 50.0378C72.0406 50.0378 72.614 50.2618 73.0659 50.7137C73.5178 51.1655 73.7456 51.8111 73.7456 52.654C73.7456 53.216 73.6431 53.7097 73.4342 54.1388C73.2292 54.5678 72.9406 54.8868 72.576 55.0957C72.2115 55.3083 71.8052 55.4108 71.3609 55.4108C70.9812 55.4108 70.6281 55.3349 70.3129 55.1868C70.0737 55.0691 69.8117 54.8526 69.5307 54.5299V55.2893H67.4916V48.2037ZM66.4245 55.3653H64.6322V54.5375C64.3664 54.8792 64.0968 55.1222 63.8272 55.2665C63.5538 55.4108 63.2235 55.483 62.8248 55.483C62.2969 55.483 61.8868 55.3197 61.5831 54.9969C61.2831 54.6742 61.135 54.1729 61.135 53.497V50.2238H63.064V53.0566C63.064 53.3793 63.1209 53.6072 63.2387 53.7439C63.3526 53.8806 63.5159 53.9451 63.7247 53.9451C63.9525 53.9451 64.1386 53.854 64.2829 53.6755C64.4272 53.4932 64.4993 53.1705 64.4993 52.6996V50.2238H66.4207V55.3615L66.4245 55.3653Z" fill="#3B720D"/>
<path fill-rule="evenodd" clip-rule="evenodd" d="M34.9341 59.4967L36.0467 59.4283C36.0695 59.6068 36.1189 59.7435 36.1948 59.8346C36.3163 59.9865 36.4872 60.0624 36.7112 60.0624C36.8783 60.0624 37.0074 60.0245 37.0985 59.9447C37.1897 59.8688 37.2352 59.7776 37.2352 59.6751C37.2352 59.5726 37.1935 59.4929 37.1061 59.4131C37.0188 59.3372 36.8213 59.265 36.5062 59.1967C35.9935 59.0828 35.6252 58.9309 35.4088 58.741C35.1885 58.5511 35.0784 58.3119 35.0784 58.0195C35.0784 57.8297 35.1354 57.6474 35.2493 57.4765C35.3632 57.3057 35.5303 57.169 35.7581 57.074C35.986 56.9753 36.2973 56.9259 36.6922 56.9259C37.1783 56.9259 37.5466 57.0133 37.801 57.1917C38.0554 57.3702 38.2073 57.6512 38.2567 58.0423L37.1555 58.1069C37.1251 57.936 37.0644 57.8145 36.9694 57.7347C36.8745 57.6588 36.7454 57.6208 36.5783 57.6208C36.4416 57.6208 36.3391 57.6512 36.2707 57.7044C36.2024 57.7613 36.1682 57.8297 36.1682 57.9132C36.1682 57.974 36.1948 58.0271 36.2518 58.0727C36.3049 58.1221 36.4378 58.1676 36.6429 58.2094C37.1555 58.3195 37.5238 58.4296 37.7441 58.5398C37.9643 58.6499 38.1276 58.7904 38.2263 58.9536C38.3288 59.1169 38.3782 59.303 38.3782 59.508C38.3782 59.7473 38.3099 59.9675 38.177 60.1726C38.0403 60.3738 37.8542 60.5295 37.6112 60.632C37.3681 60.7383 37.0644 60.7877 36.6998 60.7877C36.0543 60.7877 35.6062 60.6662 35.3594 60.4194C35.1126 60.1726 34.9721 59.865 34.9379 59.4853L34.9341 59.4967ZM38.5946 58.0195H39.7072L40.273 59.827L40.797 58.0195H41.8337L40.7439 60.9206C40.6186 61.251 40.4933 61.4712 40.3642 61.5889C40.1819 61.7522 39.9047 61.8319 39.5288 61.8319C39.3769 61.8319 39.1414 61.813 38.8263 61.7712L38.7427 61.0459C38.8946 61.0915 39.0617 61.1181 39.2516 61.1181C39.3769 61.1181 39.4756 61.0915 39.5553 61.0345C39.6313 60.9814 39.6958 60.8788 39.749 60.7383L38.5946 58.0233V58.0195ZM43.0108 58.8967L42.0046 58.7904C42.0425 58.6157 42.0957 58.479 42.1678 58.3803C42.24 58.2815 42.3425 58.1942 42.4754 58.1221C42.5703 58.0689 42.7032 58.0271 42.8741 58.0005C43.0412 57.9702 43.2273 57.9588 43.4247 57.9588C43.7399 57.9588 43.9943 57.9778 44.1842 58.0119C44.374 58.0461 44.5335 58.1183 44.6626 58.2322C44.7538 58.3081 44.8221 58.4182 44.8753 58.5587C44.9284 58.6992 44.9512 58.8321 44.9512 58.9612V60.1612C44.9512 60.2903 44.9588 60.389 44.9778 60.4611C44.993 60.5333 45.0309 60.6244 45.0841 60.7383H44.0968C44.0589 60.67 44.0323 60.6168 44.0209 60.5789C44.0095 60.5409 43.9981 60.4839 43.9829 60.408C43.8462 60.5371 43.7095 60.632 43.5728 60.689C43.3867 60.7649 43.1703 60.8029 42.9235 60.8029C42.5969 60.8029 42.3463 60.727 42.1754 60.5789C42.0046 60.4308 41.921 60.2447 41.921 60.0245C41.921 59.8194 41.9818 59.6485 42.1033 59.5156C42.2248 59.3827 42.4526 59.284 42.783 59.2195C43.1779 59.1397 43.4323 59.0866 43.55 59.0524C43.6677 59.022 43.7931 58.9802 43.9222 58.9271C43.9222 58.798 43.8956 58.7106 43.8424 58.6575C43.7893 58.6043 43.6943 58.5815 43.5614 58.5815C43.3905 58.5815 43.2614 58.6081 43.1741 58.6651C43.1058 58.7068 43.0526 58.7904 43.0108 58.9081V58.8967ZM43.9222 59.4397C43.7779 59.4929 43.626 59.5346 43.4665 59.5764C43.2538 59.6334 43.1171 59.6903 43.0602 59.7435C42.9994 59.8004 42.9729 59.865 42.9729 59.9371C42.9729 60.0207 43.0032 60.089 43.0602 60.1384C43.1171 60.1915 43.2045 60.2181 43.3146 60.2181C43.4247 60.2181 43.5424 60.1877 43.645 60.1346C43.7475 60.0776 43.8158 60.0093 43.8614 59.9257C43.907 59.8422 43.926 59.7359 43.926 59.6068V59.4397H43.9222ZM45.5929 58.0157H46.5802V58.46C46.6751 58.2663 46.7739 58.1334 46.8726 58.0613C46.9751 57.9892 47.1004 57.955 47.2485 57.955C47.4042 57.955 47.5751 58.0043 47.7612 58.0993L47.4346 58.8359C47.3093 58.7828 47.2106 58.76 47.1384 58.76C47.0017 58.76 46.8916 58.8169 46.8156 58.9271C46.7055 59.0866 46.6524 59.3827 46.6524 59.8194V60.7308H45.5929V58.0157ZM47.9738 58.0157H49.0294V60.7308H47.9738V58.0157ZM50.666 58.8929L49.6598 58.7866C49.6977 58.6119 49.7509 58.4752 49.823 58.3765C49.8952 58.2777 49.9977 58.1904 50.1306 58.1183C50.2256 58.0651 50.3585 58.0233 50.5293 57.9967C50.6964 57.9664 50.8825 57.955 51.0799 57.955C51.3951 57.955 51.6495 57.974 51.8394 58.0081C52.0292 58.0423 52.1887 58.1145 52.3178 58.2284C52.409 58.3043 52.4773 58.4144 52.5305 58.5549C52.5836 58.6954 52.6064 58.8283 52.6064 58.9574V60.1574C52.6064 60.2865 52.614 60.3852 52.633 60.4573C52.6482 60.5295 52.6862 60.6206 52.7393 60.7345H51.752C51.7141 60.6662 51.6875 60.613 51.6761 60.5751C51.6647 60.5371 51.6533 60.4801 51.6381 60.4042C51.5014 60.5333 51.3647 60.6282 51.228 60.6852C51.042 60.7611 50.8255 60.7991 50.5787 60.7991C50.2521 60.7991 50.0015 60.7232 49.8306 60.5751C49.6598 60.427 49.5762 60.2409 49.5762 60.0207C49.5762 59.8156 49.637 59.6447 49.7585 59.5118C49.88 59.3789 50.1078 59.2802 50.4382 59.2157C50.8331 59.1359 51.0913 59.0828 51.2052 59.0486C51.323 59.0182 51.4483 58.9764 51.5774 58.9233C51.5774 58.7942 51.5508 58.7068 51.4976 58.6537C51.4445 58.6005 51.3495 58.5777 51.2166 58.5777C51.0458 58.5777 50.9167 58.6043 50.8293 58.6613C50.761 58.703 50.7078 58.7866 50.666 58.9043V58.8929ZM51.5774 59.4359C51.4331 59.4891 51.2812 59.5308 51.1217 59.5726C50.9091 59.6296 50.7724 59.6865 50.7154 59.7397C50.6546 59.7966 50.6281 59.8612 50.6281 59.9333C50.6281 60.0169 50.6584 60.0852 50.7154 60.1346C50.7724 60.1877 50.8597 60.2143 50.9698 60.2143C51.0799 60.2143 51.1976 60.184 51.3002 60.1308C51.4027 60.0738 51.4711 60.0055 51.5166 59.9219C51.5584 59.8384 51.5812 59.7321 51.5812 59.603V59.4359H51.5774ZM53.2368 56.9829H54.2924V58.3613C54.4367 58.2132 54.5772 58.1069 54.7177 58.0461C54.8582 57.9816 55.0253 57.9512 55.2189 57.9512C55.5037 57.9512 55.7315 58.0385 55.8948 58.2094C56.0581 58.3803 56.1416 58.6461 56.1416 59.003V60.727H55.0822V59.2346C55.0822 59.0638 55.0518 58.9423 54.9873 58.8739C54.9227 58.8018 54.8354 58.7676 54.7177 58.7676C54.5924 58.7676 54.4898 58.8169 54.4101 58.9119C54.3304 59.0068 54.2924 59.1777 54.2924 59.4245V60.727H53.2368V56.9829ZM58.6136 56.9829H60.8122C61.1768 56.9829 61.4578 57.074 61.6552 57.2525C61.8527 57.431 61.9476 57.6512 61.9476 57.917C61.9476 58.1372 61.8792 58.3271 61.7388 58.4866C61.6476 58.5929 61.5109 58.6764 61.3287 58.7372C61.6021 58.8018 61.7995 58.9119 61.9286 59.0714C62.0577 59.2308 62.1223 59.4283 62.1223 59.6637C62.1223 59.8574 62.0767 60.0321 61.9856 60.1877C61.8944 60.3434 61.7691 60.4649 61.6096 60.5561C61.5109 60.613 61.3628 60.651 61.1616 60.6776C60.8958 60.7118 60.7211 60.7308 60.6376 60.7308H58.6136V56.9829ZM59.7946 58.4524H60.3072C60.4895 58.4524 60.6186 58.422 60.6907 58.3575C60.7629 58.2929 60.797 58.2056 60.797 58.0879C60.797 57.9778 60.7629 57.8942 60.6907 57.8335C60.6186 57.7727 60.4933 57.7423 60.3148 57.7423H59.7946V58.4524ZM59.7946 59.9219H60.3945C60.5958 59.9219 60.7401 59.8878 60.8236 59.8156C60.9072 59.7435 60.9489 59.6523 60.9489 59.5308C60.9489 59.4207 60.9072 59.3296 60.8274 59.265C60.7439 59.1967 60.5996 59.1625 60.3945 59.1625H59.7984V59.9219H59.7946ZM63.626 58.8929L62.6197 58.7866C62.6577 58.6119 62.7108 58.4752 62.783 58.3765C62.8551 58.2777 62.9577 58.1904 63.0906 58.1183C63.1855 58.0651 63.3184 58.0233 63.4893 57.9967C63.6564 57.9664 63.8424 57.955 64.0399 57.955C64.355 57.955 64.6095 57.974 64.7993 58.0081C64.9892 58.0423 65.1487 58.1145 65.2778 58.2284C65.3689 58.3043 65.4373 58.4144 65.4904 58.5549C65.5436 58.6954 65.5664 58.8283 65.5664 58.9574V60.1574C65.5664 60.2865 65.574 60.3852 65.5929 60.4573C65.6081 60.5295 65.6461 60.6206 65.6993 60.7345H64.712C64.674 60.6662 64.6474 60.613 64.636 60.5751C64.6246 60.5371 64.6133 60.4801 64.5981 60.4042C64.4614 60.5333 64.3247 60.6282 64.188 60.6852C64.0019 60.7611 63.7855 60.7991 63.5386 60.7991C63.2121 60.7991 62.9615 60.7232 62.7906 60.5751C62.6197 60.427 62.5362 60.2409 62.5362 60.0207C62.5362 59.8156 62.5969 59.6447 62.7184 59.5118C62.8399 59.3789 63.0678 59.2802 63.3981 59.2157C63.7931 59.1359 64.0475 59.0828 64.1652 59.0486C64.2829 59.0182 64.4082 58.9764 64.5373 58.9233C64.5373 58.7942 64.5107 58.7068 64.4576 58.6537C64.4044 58.6005 64.3095 58.5777 64.1766 58.5777C64.0057 58.5777 63.8766 58.6043 63.7893 58.6613C63.7209 58.703 63.6677 58.7866 63.626 58.9043V58.8929ZM64.5373 59.4359C64.393 59.4891 64.2411 59.5308 64.0816 59.5726C63.869 59.6296 63.7323 59.6865 63.6753 59.7397C63.6146 59.7966 63.588 59.8612 63.588 59.9333C63.588 60.0169 63.6184 60.0852 63.6753 60.1346C63.7323 60.1877 63.8196 60.2143 63.9298 60.2143C64.0399 60.2143 64.1576 60.184 64.2601 60.1308C64.3626 60.0738 64.431 60.0055 64.4766 59.9219C64.5183 59.8384 64.5411 59.7321 64.5411 59.603V59.4359H64.5373ZM66.1967 58.0119H67.1802V58.4524C67.3283 58.2701 67.4726 58.141 67.6245 58.0651C67.7763 57.9892 67.9586 57.9474 68.1713 57.9474C68.4636 57.9474 68.6915 58.0309 68.8548 58.2056C69.018 58.3765 69.1016 58.6423 69.1016 58.9992V60.7232H68.0422V59.2308C68.0422 59.06 68.0118 58.9385 67.9472 58.8701C67.8827 58.798 67.7953 58.7638 67.6776 58.7638C67.5523 58.7638 67.446 58.8132 67.37 58.9081C67.2903 59.003 67.2523 59.1739 67.2523 59.4207V60.7232H66.1967V58.0081V58.0119ZM69.7319 56.9829H70.8065V58.9119L71.5926 58.0157H72.8874L71.9001 58.965L72.9444 60.7308H71.7596L71.2014 59.6447L70.8027 60.0283V60.7345H69.7281V56.9905L69.7319 56.9829Z" fill="#3B720D"/>
<path fill-rule="evenodd" clip-rule="evenodd" d="M48.5244 57.7385C48.8396 57.7385 49.094 57.4803 49.094 57.169C49.094 56.8576 48.8358 56.5994 48.5244 56.5994C48.213 56.5994 47.9548 56.8576 47.9548 57.169C47.9548 57.4803 48.213 57.7385 48.5244 57.7385Z" fill="#2171B5"/>
</g>
<defs>
<linearGradient id="paint0_linear_801_7544" x1="89.0104" y1="52.8629" x2="91.7748" y2="46.943" gradientUnits="userSpaceOnUse">
<stop stop-color="#406F3D"/>
<stop offset="0.68" stop-color="#72C380"/>
<stop offset="1" stop-color="#406F3D"/>
</linearGradient>
<linearGradient id="paint1_linear_801_7544" x1="87.8599" y1="52.8363" x2="90.7572" y2="47.7708" gradientUnits="userSpaceOnUse">
<stop stop-color="#FFF9AE"/>
<stop offset="0.26" stop-color="#ABA048"/>
<stop offset="0.73" stop-color="#E5E3DD"/>
<stop offset="1" stop-color="#C7BC84"/>
</linearGradient>
<clipPath id="clip0_801_7544">
<rect width="80" height="14.832" fill="white" transform="translate(14 47)"/>
</clipPath>
</defs>
</svg>
