<svg width="108" height="108" viewBox="0 0 108 108" fill="none" xmlns="http://www.w3.org/2000/svg">
<path d="M45.3543 55.156V55.1771C45.3476 55.6701 45.0056 55.84 44.557 55.8378H44.1762V56.6561H43.6443V54.4953H44.5726C44.9723 54.4953 45.3154 54.6186 45.3521 55.0783L45.3543 55.1171V55.156ZM44.808 55.1704L44.8069 55.1538C44.8113 54.9517 44.6303 54.9639 44.4793 54.9561H44.1762V55.377H44.4737C44.607 55.3703 44.8024 55.3892 44.8058 55.2037L44.8069 55.1882L44.808 55.1704ZM47.504 56.6561H46.9266L46.78 56.222H46.0683L45.9206 56.6561H45.3576L46.1549 54.4953H46.7156L47.504 56.6561ZM46.6323 55.7823L46.428 55.1604L46.2215 55.7823H46.6323ZM49.7237 56.6561H49.234L48.4123 55.3281V56.6561H47.9037V54.4953H48.4134L49.214 55.8189V54.4953H49.7237V56.6561ZM50.8096 56.6561H50.2777V54.4942H50.8096V56.6561ZM53.1836 56.6561H52.6951L51.8734 55.3281V56.6561H51.3648V54.4953H51.8745L52.674 55.8189V54.4953H53.1836V56.6561ZM59.5894 56.6561H59.0132L58.8666 56.222H58.1548L58.0083 56.6561H57.4453L58.2414 54.4953H58.8033L59.5894 56.6561ZM58.72 55.7823L58.5146 55.1604L58.3081 55.7823H58.72ZM61.8102 56.6561H61.3205L60.5 55.3281V56.6561H59.9914V54.4953H60.5L61.3006 55.8189V54.4953H61.8102V56.6561ZM64.4318 56.6561H63.7556L63.0672 55.6934L62.9062 55.8489V56.6561H62.3743V54.4953H62.9062V55.2426L63.7145 54.4953H64.4063L63.4714 55.3192" fill="#007DC5"/>
<path fill-rule="evenodd" clip-rule="evenodd" d="M55.2144 54.5063H56.2914C56.4946 54.5074 56.6445 54.5474 56.7434 54.6251C56.8422 54.7028 56.9088 54.7883 56.941 54.8816C56.951 54.9116 56.9588 54.9416 56.9632 54.9715C56.9688 55.0004 56.971 55.0304 56.971 55.0581C56.971 55.1592 56.9543 55.238 56.9199 55.2969C56.8866 55.3568 56.8488 55.4001 56.81 55.4301C56.79 55.4457 56.77 55.459 56.7522 55.4679C56.7334 55.4779 56.7156 55.4879 56.7012 55.4956C56.8355 55.5456 56.9266 55.6178 56.9732 55.7133C57.0187 55.8088 57.0432 55.9087 57.0432 56.0131C57.0432 56.0997 57.0254 56.1807 56.9899 56.2574C56.9543 56.3329 56.9088 56.3995 56.8511 56.455C56.8488 56.4572 56.8466 56.4583 56.8455 56.4595C56.8444 56.4617 56.8433 56.4628 56.8433 56.4639C56.7811 56.5194 56.7056 56.5638 56.6157 56.5971C56.5279 56.6293 56.3725 56.646 56.1537 56.646H55.2144V54.5063ZM55.7418 56.2762H56.2082C56.3003 56.2785 56.3725 56.254 56.4236 56.2041C56.4758 56.1552 56.5002 56.0741 56.5002 55.9653C56.5002 55.8732 56.4724 55.8077 56.4169 55.7677C56.3614 55.7277 56.3014 55.7055 56.2359 55.7044H55.7418V56.2762ZM55.7418 55.3435H56.1726C56.2437 55.3457 56.3048 55.328 56.3558 55.2913C56.4058 55.2547 56.4302 55.1936 56.4302 55.1081C56.4302 55.0193 56.4069 54.9582 56.3581 54.926C56.3103 54.8916 56.2437 54.8749 56.1604 54.8749H55.7418" fill="#007DC5"/>
<path fill-rule="evenodd" clip-rule="evenodd" d="M42.5338 32H65.541L65.6609 32.0034L65.7864 32.0122C66.9912 32.1377 67.9306 33.1315 67.9939 34.3407L67.9961 34.4606V56.5551C67.9961 57.7632 67.1022 58.8037 65.9085 58.9869L65.7864 59.0035L65.6609 59.0124L65.541 59.0157H42.5338C41.3212 59.0135 40.2941 58.1186 40.1076 56.9238L40.092 56.8005L40.0821 56.6751L40.0798 56.5551V34.4606L40.0821 34.3407L40.092 34.2153L40.1076 34.092L40.1287 33.971L40.1576 33.8522L40.1909 33.7345C40.2519 33.5379 40.3308 33.3647 40.4374 33.1893L40.5007 33.0882L40.5695 32.9927L40.6428 32.8994C40.9693 32.5008 41.4267 32.2066 41.9264 32.0778L42.0452 32.05L42.1663 32.0289L42.2895 32.0122L42.415 32.0034L42.5338 32ZM42.5427 32.6751H65.5332L65.6265 32.6785L65.7176 32.6851C66.5903 32.7751 67.2765 33.5002 67.3199 34.3751L67.3232 34.4695V56.5462C67.3243 57.4257 66.6758 58.1863 65.8064 58.3195L65.7176 58.3317L65.6265 58.3384L65.5332 58.3406H42.5427C41.6621 58.3429 40.9082 57.6888 40.7738 56.8216L40.7627 56.7317L40.7549 56.6406L40.7527 56.5462V34.4695L40.7549 34.3751L40.7627 34.2841L40.7738 34.1953L40.7894 34.1064L40.8094 34.0209L40.8338 33.9354C40.876 33.7989 40.9393 33.6623 41.0126 33.5401L41.0592 33.468L41.1092 33.3969L41.1625 33.3292C41.3979 33.0416 41.7343 32.8239 42.0952 32.7329L42.1807 32.7118L42.2695 32.6962L42.3583 32.6851L42.4483 32.6785" fill="#007DC5"/>
<path fill-rule="evenodd" clip-rule="evenodd" d="M53.4544 33.8209C51.066 34.1118 49.2061 36.1594 49.2061 38.63C49.2061 41.2972 51.3769 43.4724 54.0385 43.4724C56.6989 43.4724 58.8698 41.2972 58.8698 38.63C58.8698 36.1594 57.0099 34.1118 54.6214 33.8209C54.9534 34.0208 55.1777 34.3861 55.1777 34.8014C55.1777 35.431 54.6647 35.944 54.0385 35.944C53.41 35.944 52.8981 35.431 52.8981 34.8014C52.8981 34.3861 53.1224 34.0208 53.4544 33.8209" fill="#007DC5"/>
<path fill-rule="evenodd" clip-rule="evenodd" d="M53.0513 45.1868C53.3655 45.7308 54.0651 45.9196 54.608 45.6054C55.151 45.29 55.3387 44.5894 55.0244 44.0442C54.7102 43.5001 54.0118 43.3113 53.4688 43.6255C52.9247 43.9409 52.737 44.6416 53.0513 45.1868Z" fill="#007DC5"/>
<path fill-rule="evenodd" clip-rule="evenodd" d="M45.0043 50.519C46.4489 52.4466 49.1482 53.0373 51.2824 51.8037C53.5864 50.469 54.3815 47.4965 53.0512 45.1858C51.7199 42.8751 48.7551 42.0789 46.45 43.4136C44.3169 44.6484 43.4775 47.2878 44.4202 49.5052C44.428 49.1166 44.6312 48.7401 44.9898 48.5325C45.5328 48.2183 46.2323 48.4059 46.5466 48.9511C46.8597 49.4952 46.6721 50.1959 46.1291 50.5112C45.7704 50.7188 45.344 50.7077 45.0043 50.519Z" fill="#007DC5"/>
<path fill-rule="evenodd" clip-rule="evenodd" d="M63.0704 50.519C61.6258 52.4466 58.9264 53.0373 56.7923 51.8037C54.4882 50.469 53.6932 47.4965 55.0234 45.1858C56.3548 42.8751 59.3195 42.0789 61.6247 43.4136C63.7577 44.6484 64.5972 47.2878 63.6534 49.5052C63.6467 49.1166 63.4435 48.7401 63.0848 48.5325C62.5419 48.2183 61.8434 48.4059 61.5292 48.9511C61.215 49.4952 61.4026 50.1959 61.9445 50.5112C62.3042 50.7188 62.7306 50.7077 63.0704 50.519Z" fill="#007DC5"/>
<path fill-rule="evenodd" clip-rule="evenodd" d="M45.5118 66.2399C45.5118 66.6301 45.3106 66.9612 44.9075 67.2334C44.554 67.4694 44.1559 67.5869 43.7137 67.5869C43.2521 67.5869 42.8446 67.4739 42.4906 67.2473C42.0979 66.993 41.9011 66.6618 41.9011 66.2543C41.9011 65.8363 42.093 65.4962 42.4762 65.233C42.8297 65.0064 43.2422 64.8929 43.7137 64.8929C44.1658 64.8929 44.5689 65.0109 44.9224 65.2469C45.315 65.5101 45.5118 65.8408 45.5118 66.2399Z" fill="#007DC5"/>
<path fill-rule="evenodd" clip-rule="evenodd" d="M84.8619 64.8929H87.9208V70.4505L90.1562 67.8636H93.8393L91.0367 70.5983L94 75.6696H90.6252L89.0447 72.5382L87.9208 73.6399V75.6696H84.8619" fill="#007DC5"/>
<path fill-rule="evenodd" clip-rule="evenodd" d="M75.5458 68.0286H78.2711V69.2794C78.6781 68.7717 79.0906 68.4108 79.5071 68.1927C79.9245 67.9745 80.4322 67.864 81.0306 67.864C81.8402 67.864 82.4728 68.1069 82.9319 68.5878C83.388 69.0687 83.616 69.8114 83.616 70.8173V75.6694H80.6776V71.4722C80.6776 70.9943 80.5893 70.6552 80.4128 70.4569C80.2334 70.2556 79.986 70.1574 79.6642 70.1574C79.3112 70.1574 79.0217 70.2923 78.8031 70.56C78.5825 70.8272 78.4724 71.3101 78.4724 72.0047V75.6694H75.5458" fill="#007DC5"/>
<path fill-rule="evenodd" clip-rule="evenodd" d="M58.7074 75.6696H55.4125V64.8929H58.7074V65.2806C59.1967 65.0139 59.8135 64.8934 60.7128 64.8934C62.7326 64.8934 64.5268 65.7169 64.5327 67.4481C64.5387 68.9404 63.682 69.4793 62.5253 69.5577C63.9879 69.7277 65.324 70.628 65.324 72.1476C65.324 74.6929 63.6344 75.6696 60.7564 75.6696C59.8551 75.6696 59.3593 75.5476 58.7074 75.3151V75.6696ZM58.7074 67.0054V68.8482C59.6642 68.8864 61.5437 69.0088 61.5437 67.7947C61.5437 66.5865 59.571 66.647 58.7074 67.0054ZM58.7074 70.9186V73.6111C59.0698 73.7222 59.4486 73.7831 59.9091 73.7831C60.9195 73.7831 62.1163 73.326 62.0841 72.2735C62.033 70.6087 59.9751 70.8576 58.7074 70.9186Z" fill="#007DC5"/>
<path fill-rule="evenodd" clip-rule="evenodd" d="M68.9882 70.5342L66.2138 70.2372C66.3184 69.7439 66.4697 69.3553 66.667 69.0727C66.8643 68.7901 67.1469 68.5452 67.5192 68.3369C67.7849 68.1857 68.1528 68.0692 68.6178 67.9874C69.0834 67.9061 69.5871 67.8635 70.1304 67.8635C71 67.8635 71.7016 67.9131 72.2276 68.0127C72.7561 68.1119 73.1943 68.3216 73.5478 68.6344C74.0887 69.1133 74.3971 69.9889 74.3971 70.6983V75.6689H71.6723V74.8023C71.0744 75.3254 69.8974 75.6714 68.7691 75.6689C67.3328 75.666 65.9754 75.1052 65.9853 73.7072C65.9892 73.1207 66.1534 72.6398 66.492 72.2635C66.8301 71.8842 67.4513 71.6046 68.3595 71.4211C69.4507 71.198 70.1572 71.0419 70.481 70.9531C70.8027 70.8634 71.1458 70.7444 71.5062 70.6011C71.5062 70.2372 71.4333 69.9844 71.2876 69.8381C71.1388 69.6944 70.8806 69.62 70.5077 69.62C70.0333 69.62 69.6773 69.6993 69.4388 69.853C69.2534 69.9745 69.1027 70.2025 68.9882 70.5342ZM71.5062 72.0875C71.1066 72.2243 70.6907 72.3443 70.2593 72.4484C69.6699 72.5966 69.2946 72.7454 69.1389 72.8886C68.9758 73.0389 68.896 73.2079 68.896 73.3973C68.896 73.6149 68.9758 73.7909 69.1344 73.9298C69.2946 74.0666 69.5286 74.136 69.8379 74.136C70.1617 74.136 70.4616 74.0616 70.7417 73.9134C71.0194 73.7632 71.2167 73.5802 71.3337 73.3676C71.4507 73.1524 71.5062 72.8723 71.5062 72.5292" fill="#007DC5"/>
<path fill-rule="evenodd" clip-rule="evenodd" d="M33.0114 68.0286H35.7366V69.2794C36.1436 68.7718 36.5556 68.4113 36.9726 68.1932C37.3895 67.975 37.8977 67.8645 38.4961 67.8645C39.3057 67.8645 39.9383 68.1074 40.3974 68.5878C40.853 69.0682 41.0816 69.8114 41.0816 70.8173V75.668H38.1426V71.4722C38.1426 70.9933 38.0544 70.6552 37.8779 70.4564C37.6989 70.2551 37.451 70.1569 37.1297 70.1569C36.7763 70.1569 36.4872 70.2923 36.2686 70.5595C36.048 70.8267 35.9374 71.3101 35.9374 72.0042V75.668H33.0114" fill="#D71920"/>
<path fill-rule="evenodd" clip-rule="evenodd" d="M46.3163 68.0286H49.0416V69.2794C49.4486 68.7718 49.8606 68.4113 50.2776 68.1932C50.6945 67.975 51.2027 67.8645 51.8011 67.8645C52.6107 67.8645 53.2433 68.1074 53.7024 68.5878C54.1585 69.0682 54.3865 69.8114 54.3865 70.8173V75.668H51.4481V71.4722C51.4481 70.9933 51.3594 70.6552 51.1829 70.4564C51.0039 70.2551 50.756 70.1569 50.4347 70.1569C50.0817 70.1569 49.7922 70.2923 49.5736 70.5595C49.353 70.8267 49.2429 71.3101 49.2429 72.0042V75.668H46.3163" fill="#D71920"/>
<path d="M42.1075 75.6679H45.2904V68.0286H42.1075V75.6679Z" fill="#D71920"/>
<path fill-rule="evenodd" clip-rule="evenodd" d="M23.2318 68.5987C23.2477 72.0255 20.0703 73.1534 17.2944 72.0563V75.668H14V64.8948H17.2944V65.2815C17.9077 65.0232 18.4268 64.8854 19.2502 64.8948C21.5353 64.9196 23.2194 65.9617 23.2318 68.5987ZM17.2944 67.2264V70.0618C18.6791 70.6041 20.2155 70.324 20.2562 68.4341C20.2829 67.1724 18.7986 66.3484 17.2944 67.2264" fill="#D71920"/>
<path fill-rule="evenodd" clip-rule="evenodd" d="M26.5761 70.5342L23.8023 70.2368C23.9069 69.744 24.0576 69.3553 24.2554 69.0727C24.4522 68.7906 24.7348 68.5457 25.1072 68.3374C25.3729 68.1862 25.7413 68.0697 26.2058 67.9879C26.6713 67.9061 27.175 67.864 27.7184 67.864C28.588 67.864 29.2895 67.9136 29.8155 68.0127C30.3445 68.1119 30.7828 68.3221 31.1358 68.6344C31.6767 69.1138 31.9855 69.9889 31.9855 70.6983V75.6675H29.2603V74.8013C28.6624 75.3239 27.4854 75.6704 26.357 75.6675C24.9212 75.6645 23.5633 75.1043 23.5732 73.7067C23.5772 73.1202 23.7413 72.6393 24.0799 72.263C24.418 71.8837 25.0392 71.6041 25.9475 71.4207C27.0387 71.1976 27.7452 71.0414 28.0694 70.9527C28.3907 70.8634 28.7342 70.7444 29.0947 70.6012C29.0947 70.2368 29.0218 69.9844 28.8755 69.8382C28.7268 69.6949 28.4685 69.62 28.0962 69.62C27.6212 69.62 27.2658 69.6993 27.0268 69.853C26.8414 69.9745 26.6907 70.2025 26.5761 70.5342ZM29.0947 72.087C28.6951 72.2238 28.2786 72.3438 27.8478 72.4479C27.2578 72.5956 26.883 72.7444 26.7273 72.8877C26.5637 73.0384 26.4839 73.2069 26.4839 73.3963C26.4839 73.6145 26.5637 73.79 26.7224 73.9288C26.883 74.0656 27.117 74.135 27.4264 74.135C27.7501 74.135 28.0496 74.0612 28.3297 73.9129C28.6073 73.7622 28.8046 73.5798 28.9216 73.3666C29.0386 73.1514 29.0947 72.8713 29.0947 72.5287" fill="#D71920"/>
</svg>
