<svg width="108" height="108" viewBox="0 0 108 108" fill="none" xmlns="http://www.w3.org/2000/svg">
<path fill-rule="evenodd" clip-rule="evenodd" d="M65.6181 74.645C65.6264 74.4926 65.6352 74.2483 65.6431 73.9135V67.4932L65.6223 66.8702C65.6172 66.7377 65.6107 66.6477 65.6043 66.6006C65.5974 66.5507 65.5867 66.5077 65.572 66.468C65.5239 66.3097 65.4173 66.1979 65.257 66.131C65.1093 66.0686 64.8909 66.0386 64.6073 66.0363V65.8179H68.2737C68.8066 65.8188 69.2882 65.8534 69.7181 65.9227C70.1476 65.9915 70.4934 66.0866 70.758 66.2076C71.5246 66.571 71.9032 67.1828 71.899 68.0533C71.9078 69.2973 71.0896 70.092 69.3958 70.2965L69.1118 70.3422C69.4928 70.3561 70.0081 70.4831 70.2478 70.5385C70.4856 70.5934 70.7188 70.6807 70.9473 70.7998C71.8464 71.2515 72.2892 71.9736 72.2805 72.9724C72.2851 74.1855 71.6936 74.9742 70.493 75.3468C70.2307 75.4216 69.9019 75.4807 69.5043 75.5237C69.1054 75.5666 68.6722 75.5888 68.2054 75.5897H64.6073V75.3708C65.0308 75.3658 65.3221 75.3011 65.451 75.1492C65.505 75.0975 65.5433 75.0407 65.5687 74.9756C65.5946 74.9095 65.6098 74.7969 65.6181 74.645ZM66.7476 66.118V70.1926H68.1782C69.8419 70.1829 70.7035 69.4917 70.7128 68.1078C70.7243 66.7645 69.816 66.1088 68.0553 66.118H66.7476V66.118ZM70.9991 72.8635C70.9898 71.9136 70.6463 71.2422 69.9615 70.8668C69.7537 70.7606 69.4896 70.6789 69.1723 70.6211C68.8556 70.5639 68.506 70.5348 68.1237 70.5334H66.7476V75.2891H68.1237C69.1206 75.2937 69.8493 75.1076 70.2981 74.7174C70.5258 74.5304 70.6985 74.2765 70.8185 73.9578C70.9381 73.6392 70.9977 73.2735 70.9991 72.8635" fill="#3A3A3A"/>
<path d="M77.528 75.3108C77.4536 75.1635 77.4014 74.9885 77.3788 74.541L77.3723 74.4085L77.2841 74.5078C77.1793 74.6265 77.0764 74.729 76.9757 74.8162C76.8746 74.9044 76.7573 74.9945 76.6257 75.0859C76.3361 75.2983 76.0572 75.4479 75.7899 75.5352C75.5225 75.622 75.221 75.6645 74.8853 75.6617C74.3007 75.664 73.8519 75.5255 73.5309 75.2526C73.3513 75.091 73.2105 74.8883 73.1075 74.6422C73.0045 74.3965 72.9519 74.1324 72.9496 73.8489C72.9565 72.8034 73.5983 72.1288 74.9111 71.83C75.2584 71.7497 75.6255 71.6836 76.0115 71.6319C76.3989 71.5802 76.8376 71.5377 77.3285 71.5045L77.3788 70.5925C77.3797 70.2808 77.3645 70.0282 77.334 69.8357C77.3035 69.6408 77.2532 69.4709 77.1826 69.3273C76.9877 68.9477 76.5906 68.7658 76.0166 68.7658C75.0958 68.7611 74.5967 69.1994 74.545 70.0712C74.5394 70.2097 74.5265 70.3071 74.5085 70.3662C74.4909 70.4216 74.4609 70.4627 74.4184 70.4928C74.327 70.5542 74.1811 70.5897 73.9715 70.592C73.5203 70.599 73.3513 70.4646 73.3587 70.2388C73.3615 70.0024 73.44 69.7738 73.5974 69.5535C73.7549 69.3323 73.9742 69.1402 74.2577 68.9763C74.7675 68.6937 75.4205 68.5497 76.2212 68.5473C77.0971 68.5497 77.6845 68.7482 78.0054 69.1273C78.1352 69.2871 78.2317 69.4843 78.2945 69.723C78.3568 69.9617 78.3887 70.2642 78.3882 70.6322L78.3868 70.7102L78.3799 71.0667L78.361 72.0083L78.3471 73.303L78.3337 73.9301C78.3347 74.2252 78.3471 74.4501 78.3674 74.7017C78.3878 74.9469 78.4755 75.2203 78.6717 75.2928C78.8763 75.3685 79.073 75.3985 79.4475 75.4008C79.7227 75.3953 79.9347 75.3639 80.0783 75.3029C80.2422 75.2332 80.3429 75.0855 80.3863 74.8758C80.4288 74.6713 80.4472 74.36 80.4426 73.9431V70.2887C80.4518 69.7913 80.3941 69.4413 80.2524 69.2585C80.1138 69.0798 79.8562 69.0026 79.502 69.0063V68.8124L81.4516 68.6702V70.2231L81.5532 70.0421C81.8418 69.5281 82.1691 69.1647 82.5335 68.9463C82.8978 68.7279 83.3545 68.6198 83.9045 68.6254C84.731 68.6143 85.3068 68.8914 85.6439 69.445C85.7672 69.6302 85.8573 69.8537 85.9108 70.115C85.9644 70.3769 85.9912 70.7116 85.9898 71.1194V73.9431C85.9847 74.3642 86.0022 74.6777 86.0429 74.8814C86.0844 75.091 86.1842 75.2383 86.3486 75.3062C86.4843 75.3621 86.8011 75.3925 87.0712 75.3999C87.3243 75.3921 87.5201 75.3611 87.654 75.3025C87.8137 75.2328 87.9103 75.0845 87.9514 74.8749C87.9911 74.6713 88.0082 74.3596 88.0031 73.9431V67.3038C88.0082 66.9233 87.9925 66.6412 87.9541 66.4592C87.9144 66.2695 87.8165 66.1388 87.6563 66.0825C87.5173 66.0335 87.309 66.0104 87.0357 66.0095V65.8151L89.0633 65.7117C89.0379 66.1619 89.0185 66.6223 89.0056 67.0928C88.9917 67.5841 88.9852 68.0131 88.9852 68.3802V72.8404L91.2193 70.3926C91.5351 70.0425 91.7078 69.7484 91.7101 69.5129C91.7263 69.185 91.3952 69.0368 90.8517 69.0096V68.8161H93.7548V69.0128C93.5803 69.0331 93.4283 69.065 93.2995 69.1093C93.1591 69.1569 93.0151 69.2261 92.8682 69.3148C92.7191 69.4048 92.5944 69.4875 92.4933 69.5628C92.3903 69.6399 92.2688 69.7493 92.1289 69.8915C91.989 70.0333 91.7868 70.2485 91.5208 70.5375L90.7834 71.3313L92.7135 74.3674C92.9338 74.7271 93.1365 74.9816 93.3226 75.1261C93.5004 75.2637 93.7271 75.3524 94 75.3944V75.5929H92.2347C92.1862 75.4941 92.1197 75.3662 92.0347 75.2092L91.754 74.6971L91.5393 74.3115L90.1106 71.9833L88.988 73.2393L88.9852 73.9431C88.9802 74.3596 88.9972 74.6713 89.0374 74.8754C89.079 75.085 89.1769 75.2332 89.339 75.3029C89.4807 75.3634 89.6917 75.3953 89.966 75.4008V75.5929H83.9996V75.4004C84.4036 75.3893 84.6811 75.3233 84.7924 75.176C84.8372 75.1187 84.8709 75.0536 84.8945 74.9806C84.9185 74.9072 84.9328 74.8126 84.9397 74.6971C84.9476 74.6057 84.9559 74.4741 84.9651 74.3009C84.9748 74.1273 84.9799 74.0077 84.9808 73.944V71.2016C84.9831 70.5251 84.9106 70.0245 84.7573 69.7064C84.5251 69.2058 84.1049 68.9551 83.5092 68.9528C82.8452 68.9505 82.3155 69.2668 81.923 69.8915C81.7753 70.1275 81.6607 70.3962 81.5781 70.6959C81.495 70.9965 81.453 71.2921 81.4516 71.583V73.9431C81.4465 74.3642 81.464 74.6777 81.5047 74.8814C81.5462 75.091 81.6455 75.2383 81.8099 75.3062C81.9535 75.3653 82.1673 75.3958 82.4462 75.4008V75.5929L79.5117 75.5925C79.2513 75.6012 78.7558 75.6146 78.5101 75.6114C78.2525 75.6077 78.1283 75.5805 77.8932 75.5629C77.6845 75.502 77.5968 75.4475 77.528 75.3108ZM74.068 73.8082C74.073 74.2524 74.1811 74.6135 74.3967 74.886C74.6128 75.1598 74.9056 75.3002 75.2667 75.3071C75.6315 75.302 75.9764 75.2069 76.2992 75.0222C76.6211 74.8375 76.8746 74.5914 77.0583 74.2852C77.1706 74.0899 77.2523 73.8387 77.3035 73.5344C77.3543 73.2315 77.3797 72.8547 77.3788 72.4045V71.7049C76.7254 71.7612 76.2581 71.8226 75.9182 71.8947C75.5761 71.9672 75.2741 72.0706 75.0109 72.2059C74.3861 72.5162 74.0726 73.0542 74.068 73.8082Z" fill="#3A3A3A"/>
<path fill-rule="evenodd" clip-rule="evenodd" d="M16.6579 71.476V73.9072C16.6528 74.2974 16.675 74.5869 16.7249 74.7758C16.7752 74.9651 16.8833 75.0898 17.05 75.1507C17.2166 75.2122 17.4725 75.2463 17.8174 75.2533V75.5927H14V75.2533C14.3255 75.2463 14.5661 75.2122 14.7222 75.1507C14.8783 75.0898 14.9794 74.9651 15.0256 74.7758C15.0718 74.5869 15.0921 74.2974 15.087 73.9072V67.5164C15.0921 67.1262 15.0718 66.8362 15.0274 66.6469C14.9826 66.4576 14.8857 66.3315 14.7365 66.2687C14.5869 66.2055 14.3579 66.1685 14.048 66.157V65.8171H17.6849C18.9109 65.812 19.8085 66.0286 20.3793 66.4659C20.9495 66.9036 21.2312 67.5935 21.2248 68.5355C21.2285 69.8599 20.7131 70.7266 19.6783 71.1362C19.4082 71.2419 19.0637 71.3246 18.6453 71.3846C18.227 71.4442 17.762 71.4746 17.2499 71.476H16.6579ZM16.6579 71.0969H17.2864C18.0414 71.0946 18.5969 70.9159 18.9533 70.5613C19.1473 70.3558 19.2941 70.087 19.3943 69.7541C19.4945 69.4216 19.5449 69.0416 19.5453 68.614C19.5412 67.0043 18.8365 66.1985 17.4309 66.1962H16.6579V71.0969Z" fill="#3A3A3A"/>
<path fill-rule="evenodd" clip-rule="evenodd" d="M27.371 71.8865H22.9288C22.9339 72.3602 22.9616 72.7578 23.0124 73.0787C23.0627 73.3992 23.144 73.6924 23.2557 73.9579C23.6247 74.8177 24.1945 75.2472 24.9656 75.2472C25.4025 75.2449 25.7987 75.1165 26.1538 74.8616C26.5093 74.6067 26.8044 74.2405 27.0404 73.7621L27.3548 73.9709C27.0454 74.5864 26.6677 75.0385 26.2216 75.3271C25.7756 75.6157 25.2312 75.7583 24.5884 75.7556C23.5771 75.7426 22.6476 75.4194 22.0648 74.7868C21.4826 74.1537 21.1856 73.2865 21.1741 72.1861C21.1856 71.0774 21.4729 70.2006 22.0353 69.5546C22.5973 68.909 23.4954 68.5788 24.4628 68.5645C25.1065 68.5664 25.7276 68.7128 26.1685 69.0041C26.6095 69.296 26.9346 69.7226 27.1447 70.2841C27.2131 70.4707 27.2648 70.684 27.3003 70.9241C27.3354 71.1643 27.359 71.4852 27.371 71.8865ZM22.9413 71.5087H25.7202C25.7091 71.107 25.6874 70.7833 25.6555 70.5381C25.6241 70.2929 25.5743 70.0736 25.5064 69.8806C25.2718 69.1962 24.9112 68.8577 24.4254 68.8642C23.8805 68.8688 23.4737 69.2507 23.2054 70.0108C23.1371 70.2075 23.0821 70.4231 23.0406 70.6572C22.999 70.8914 22.9657 71.1753 22.9413 71.5087Z" fill="#3A3A3A"/>
<path d="M27.6551 68.7509L30.119 68.5806C30.132 68.8262 30.1421 69.0331 30.1486 69.1998C30.155 69.3669 30.1583 69.5147 30.1583 69.6421V70.0356C30.6935 69.0571 31.3399 68.563 32.0981 68.5542C32.4255 68.5607 32.6915 68.6563 32.8961 68.841C33.1002 69.0257 33.2059 69.2626 33.2119 69.5507C33.2073 69.7904 33.1186 69.9825 32.9464 70.127C32.7746 70.272 32.5488 70.3463 32.2685 70.35C31.9319 70.3606 31.7269 70.2212 31.6525 69.9307C31.6041 69.7511 31.5537 69.6288 31.5015 69.5636C31.4498 69.4985 31.3732 69.4681 31.2725 69.4718H31.2462C30.9885 69.4939 30.7438 69.6989 30.5124 70.0877C30.4076 70.2821 30.3287 70.4964 30.276 70.7319C30.2238 70.9669 30.1975 71.2371 30.1975 71.5428V73.9675C30.1924 74.3544 30.2114 74.6398 30.2539 74.8231C30.2963 75.0065 30.3929 75.1265 30.5434 75.1833C30.6935 75.2396 30.928 75.2715 31.2462 75.278V75.5929H27.6029V75.278C27.8998 75.2794 28.1196 75.2507 28.2627 75.1916C28.4059 75.133 28.4987 75.0101 28.5416 74.8231C28.5841 74.6357 28.6031 74.3508 28.5989 73.9675V70.3366C28.6109 69.7964 28.5569 69.4454 28.4364 69.2834C28.3163 69.1213 28.0554 69.0488 27.6551 69.0654V68.7509Z" fill="#3A3A3A"/>
<path d="M36.139 68.581L36.1524 69.8786C36.6829 69.0049 37.443 68.5635 38.4326 68.5547C39.4397 68.5482 40.0598 69.0068 40.2935 69.9312C40.5784 69.4551 40.9035 69.106 41.2682 68.8839C41.6335 68.6623 42.0597 68.5524 42.5478 68.5547C43.3189 68.5593 43.8869 68.8124 44.2517 69.3148C44.3944 69.505 44.4955 69.7377 44.5565 70.0129C44.617 70.2882 44.6465 70.6451 44.6447 71.0842V73.9675C44.6405 74.3508 44.6594 74.6357 44.7019 74.8227C44.7449 75.0101 44.8377 75.133 44.9808 75.1916C45.124 75.2507 45.3438 75.2794 45.6412 75.278V75.5929H42.0893V75.278C42.3733 75.2794 42.5838 75.2507 42.7214 75.1916C42.859 75.133 42.9486 75.0101 42.9902 74.8227C43.0317 74.6357 43.0502 74.3508 43.046 73.9675V71.0972C43.0488 70.4087 42.9643 69.9118 42.7921 69.6066C42.6194 69.3014 42.3419 69.1518 41.9581 69.1578C41.4973 69.149 41.1085 69.3891 40.7917 69.8786C40.5188 70.2872 40.383 70.7282 40.3854 71.2024V73.9675C40.3812 74.3508 40.3997 74.6357 40.4417 74.8227C40.4833 75.0101 40.5742 75.133 40.7137 75.1916C40.8531 75.2507 41.0669 75.2794 41.3551 75.278V75.5929H37.8429V75.278C38.1269 75.2794 38.3379 75.2507 38.475 75.1916C38.6126 75.133 38.7022 75.0101 38.7438 74.8227C38.7853 74.6357 38.8038 74.3508 38.7997 73.9675V71.0842C38.8061 69.7867 38.4524 69.1444 37.7381 69.1578C37.2934 69.1735 36.9207 69.3845 36.6206 69.7899C36.3204 70.1958 36.1644 70.7014 36.1524 71.3073V73.9675C36.1482 74.3549 36.1667 74.6421 36.2082 74.8287C36.2493 75.0157 36.3389 75.1376 36.4765 75.1949C36.6141 75.2521 36.8247 75.2798 37.1087 75.278V75.5929H33.5568V75.278C33.8542 75.2798 34.074 75.2521 34.2171 75.1949C34.3603 75.1376 34.4535 75.0157 34.496 74.8287C34.5385 74.6421 34.5574 74.3549 34.5533 73.9675V70.3242C34.5667 69.7908 34.5136 69.4454 34.3926 69.287C34.2721 69.1291 34.0024 69.0552 33.5836 69.0659V68.7514L36.139 68.581Z" fill="#3A3A3A"/>
<path d="M54.9592 69.1808V73.5583C54.9587 73.8432 54.9693 74.0792 54.9901 74.2657C55.0113 74.4523 55.0446 74.6098 55.0903 74.7377C55.1457 74.884 55.2311 75.0009 55.3475 75.0881C55.4634 75.1754 55.5918 75.2207 55.7321 75.2225C56.012 75.2184 56.3177 75.0831 56.6497 74.8162L56.833 75.144C56.307 75.585 55.7081 75.8034 55.0377 75.7993C54.3145 75.7882 53.8209 75.5481 53.5568 75.0784C53.5051 74.9745 53.4644 74.8559 53.4358 74.7229C53.4072 74.5899 53.3873 74.4103 53.3762 74.1845C53.3651 73.9582 53.3596 73.653 53.3601 73.2697V69.1808H52.6129V68.7878C52.8983 68.7768 53.1403 68.7167 53.3388 68.6073C53.5374 68.4978 53.7105 68.3265 53.8583 68.0929C53.9742 67.9151 54.0698 67.717 54.1451 67.5C54.2199 67.2825 54.2859 67.0128 54.3432 66.6905L54.9984 66.6249C54.9896 66.7986 54.9822 66.9745 54.9767 67.1527C54.9707 67.331 54.9665 67.5457 54.9638 67.7969C54.9605 68.0476 54.9592 68.3695 54.9592 68.7611H56.5449V69.1808H54.9592Z" fill="#3A3A3A"/>
<path fill-rule="evenodd" clip-rule="evenodd" d="M52.6066 75.3152V75.5923C52.2228 75.6177 52.0681 75.6172 51.665 75.6177C51.345 75.6182 51.0139 75.6126 50.7392 75.5092C50.5693 75.4455 50.4741 75.391 50.3476 75.2571C50.259 75.1167 50.2026 75.1093 50.174 74.7182C49.836 75.0834 49.4837 75.3522 49.1179 75.524C48.7518 75.6962 48.3565 75.7812 47.933 75.7798C47.3041 75.7728 46.8123 75.5992 46.4573 75.2584C46.1017 74.9177 45.9211 74.4494 45.9147 73.8528C45.9124 72.728 46.6119 72.0289 48.012 71.756C48.6432 71.6336 49.3594 71.5509 50.1611 71.5071V70.6551C50.168 69.9726 50.0955 69.4993 49.945 69.2366C49.7944 68.9734 49.5257 68.8478 49.1387 68.8598C48.7282 68.851 48.4354 68.9992 48.2609 69.3054C48.1972 69.4102 48.151 69.5312 48.1214 69.6674C48.0924 69.8036 48.0688 69.9929 48.0513 70.2358C48.0406 70.469 47.9728 70.6348 47.8481 70.7336C47.7229 70.8324 47.5239 70.8805 47.2515 70.8781C46.6443 70.8735 46.3386 70.6727 46.334 70.2751C46.3363 70.0433 46.4078 69.8221 46.5491 69.6115C46.69 69.401 46.8895 69.2158 47.1471 69.056C47.6929 68.7199 48.4091 68.5541 49.2962 68.5582C50.1985 68.5541 50.8449 68.7328 51.236 69.0957C51.412 69.2615 51.5413 69.4735 51.6239 69.7311C51.707 69.9888 51.7477 70.3185 51.7472 70.7207L51.7338 71.8608L51.7209 73.0009C51.7098 73.3744 51.7057 73.6104 51.7075 73.7088C51.7029 74.1811 51.7181 74.5265 51.7523 74.744C51.7865 74.962 51.8243 75.0576 51.9675 75.1758C52.2178 75.3189 52.432 75.3148 52.6066 75.3152ZM50.1611 72.8176V71.8086C49.2228 71.8723 48.5574 72.0459 48.1644 72.3295C47.7714 72.613 47.5807 73.0554 47.5923 73.6566C47.5964 74.128 47.6934 74.5021 47.8823 74.7787C48.0716 75.0553 48.3288 75.1966 48.6539 75.203C48.9208 75.2003 49.1669 75.1236 49.3927 74.9717C49.6185 74.8207 49.7963 74.6092 49.9251 74.3381C50.0096 74.1719 50.0701 73.9697 50.107 73.73C50.144 73.4903 50.162 73.1865 50.1611 72.8176Z" fill="#3A3A3A"/>
<path fill-rule="evenodd" clip-rule="evenodd" d="M63.8911 75.3152V75.5922C63.5073 75.6176 63.3527 75.6181 62.9495 75.6185C62.6295 75.619 62.2985 75.6135 62.0237 75.51C61.8538 75.4463 61.7586 75.3918 61.6321 75.2579C61.5435 75.1175 61.4871 75.1101 61.4585 74.719C61.1205 75.0843 60.7682 75.353 60.402 75.5248C60.0363 75.697 59.641 75.782 59.2176 75.7806C58.5886 75.7737 58.0969 75.6001 57.7418 75.2593C57.3862 74.9185 57.2057 74.4503 57.1992 73.8537C57.1969 72.7288 57.896 72.0297 59.2965 71.7568C59.9278 71.6344 60.644 71.5518 61.4456 71.5079V70.656C61.4525 69.9735 61.38 69.5002 61.2295 69.2374C61.0785 68.9742 60.8097 68.8486 60.4232 68.8606C60.0127 68.8519 59.72 69.0001 59.5454 69.3062C59.4817 69.4111 59.4351 69.532 59.406 69.6683C59.3769 69.8045 59.3533 69.9938 59.3358 70.2367C59.3252 70.4699 59.2573 70.6357 59.1326 70.7349C59.0075 70.8333 58.8084 70.8813 58.536 70.879C57.9288 70.8744 57.6231 70.6735 57.6185 70.2759C57.6208 70.0441 57.6924 69.8229 57.8337 69.6124C57.9745 69.4018 58.174 69.2167 58.4312 69.0569C58.9774 68.7207 59.6936 68.5549 60.5807 68.5591C61.483 68.5549 62.1294 68.7336 62.5206 69.0966C62.6965 69.2624 62.8258 69.4743 62.9084 69.732C62.9916 69.9896 63.0322 70.3193 63.0317 70.7215L63.0183 71.8616L63.0054 73.0017C62.9943 73.3753 62.9902 73.6113 62.992 73.7096C62.9874 74.182 63.0026 74.5274 63.0368 74.7453C63.071 74.9628 63.1088 75.0584 63.252 75.1766C63.5023 75.3198 63.7165 75.3147 63.8911 75.3152ZM61.4456 72.8184V71.8095C60.5073 71.8732 59.8414 72.0468 59.4489 72.3303C59.0559 72.6138 58.8652 73.0562 58.8768 73.6574C58.8809 74.1289 58.9779 74.5029 59.1668 74.7795C59.3561 75.0561 59.6133 75.1974 59.9384 75.2039C60.2053 75.2011 60.4514 75.1245 60.6772 74.9725C60.903 74.8211 61.0803 74.6101 61.2096 74.3385C61.2941 74.1732 61.3546 73.9705 61.3915 73.7309C61.4285 73.4917 61.4465 73.1874 61.4456 72.8184Z" fill="#3A3A3A"/>
<path d="M40.3927 42.808L40.3609 43.4281L52.2584 57.3848L52.6856 57.4546L52.7395 57.4279L52.9482 57.041L47.8745 40.0579L47.0134 39.4776L40.3927 42.808Z" fill="#0097B9"/>
<path d="M59.4856 39.1412L67.1785 42.6782L67.1927 43.676L54.5679 62.7995L53.9916 62.9515L53.9065 62.9124L53.7266 62.4813L58.8151 39.5139L59.4856 39.1412Z" fill="#80B13A"/>
<path d="M47.7345 33.7L48.0408 33.11L57.8899 33.0033L58.5264 33.6642L53.8078 49.4294L53.5088 49.603L53.4992 49.6025L53.1758 49.3846L47.7345 33.7Z" fill="#D81936"/>
<path fill-rule="evenodd" clip-rule="evenodd" d="M43.9112 44.1062L52.7097 57.4917L52.2417 57.4151L40.3289 43.4221L43.9112 44.1062Z" fill="#005874"/>
<path d="M47.0258 39.4625L47.8841 40.0451L45.2185 43.5895L43.9807 43.0483L47.0258 39.4625Z" fill="#2FB8E7"/>
<path d="M43.9802 43.0479L43.911 44.1064L40.3292 43.4223L40.3666 42.8068L43.9802 43.0479Z" fill="#007592"/>
<path d="M45.2183 43.59L47.8896 40.0399L53.0275 57.0373L52.7659 57.4769L45.2183 43.59Z" fill="#007592"/>
<path d="M67.2192 43.6736L54.6046 62.8385L53.9596 63.0262L62.0677 44.1121L67.2192 43.6736Z" fill="#6E9123"/>
<path d="M60.615 43.3131L53.8871 62.967L53.6976 62.4849L58.806 39.4942L60.615 43.3131Z" fill="#3F7937"/>
<path d="M67.1988 42.6778L67.2192 43.6734L62.0678 44.1124L61.7773 42.7481L67.1988 42.6778Z" fill="#A5C550"/>
<path d="M61.7775 42.748L60.6146 43.3119L58.805 39.4924L59.4698 39.1174L61.7775 42.748Z" fill="#5D8B27"/>
<path d="M52.2598 34.7603L51.5502 35.5988L47.7012 33.6819L48.0121 33.0988L52.2598 34.7603Z" fill="#AF2C35"/>
<path d="M47.7007 33.6819L51.5502 35.5987L53.5017 49.6349L53.1602 49.4023L47.7007 33.6819Z" fill="#762624"/>
<path d="M53.4019 35.6008L58.5437 33.6573L53.8319 49.4508L53.5086 49.6346L53.4019 35.6008Z" fill="#B22B37"/>
<path d="M52.2604 34.7602L53.4018 35.601L58.5441 33.6575L57.9003 33L52.2604 34.7602Z" fill="#DC505E"/>
</svg>
