<svg width="108" height="108" viewBox="0 0 108 108" fill="none" xmlns="http://www.w3.org/2000/svg">
<path d="M24.2947 33.4106H32.0853L27.2435 52.7776H19.453L24.2947 33.4106Z" fill="#0D92D2"/>
<path d="M16.8013 63.3842L14 74.5894H21.7906L24.5919 63.3842H16.8013Z" fill="#0D92D2"/>
<path d="M25.1484 63.3842L22.3471 74.5894H33.7547L36.556 63.3842H25.1484Z" fill="#0D92D2"/>
<path d="M37.9471 63.3842L35.1458 74.5894H52.8137L55.615 63.3842H37.9471Z" fill="#0D92D2"/>
<path d="M58.2667 52.7776H40.5988L45.4405 33.4106H63.1084L58.2667 52.7776Z" fill="#0D92D2"/>
<path d="M39.2077 52.7776H27.8001L32.6418 33.4106H44.0494L39.2077 52.7776Z" fill="#0D92D2"/>
<path d="M86.1555 54.3912H88.4821L87.432 57.2326L90.9116 54.3912H94L90.2116 57.2223L91.3543 61.927H88.4924L88.0394 58.8386L86.3717 60.0945L85.7025 61.927H83.3759L86.1452 54.4015M77.3947 54.4015H79.5669L80.864 58.5606L82.3876 54.4015H84.5804L81.8111 61.927H79.6081L78.3212 57.7885L76.7976 61.927H74.6151L77.3844 54.4015M71.6091 59.0547L71.7841 56.3472L69.9619 59.0547H71.6091ZM71.5061 60.6813H68.8707L68.0368 61.927H65.6588L71.2591 54.4015H73.8018L73.8533 61.927H71.4135L71.4958 60.6813M61.3659 60.3004H62.5498C62.9512 60.3004 63.2601 60.2283 63.4763 60.0842C63.6925 59.9401 63.8469 59.7548 63.9292 59.518C64.0116 59.2915 64.0013 59.1165 63.8881 58.9827C63.7748 58.8489 63.5175 58.7768 63.1057 58.7768H61.9218L61.3659 60.3004ZM62.4468 57.3458H63.466C63.8263 57.3458 64.1043 57.2841 64.2896 57.1605C64.4749 57.037 64.619 56.8517 64.7013 56.6149C64.7837 56.3987 64.7734 56.2237 64.6808 56.1002C64.5881 55.9766 64.3616 55.9149 64.0013 55.9149H62.9718L62.4468 57.3458ZM61.1909 54.3912H65.5455C66.2764 54.3912 66.7603 54.5766 67.0177 54.9266C67.275 55.2869 67.3059 55.7296 67.1103 56.2649C66.9456 56.7076 66.6676 57.0885 66.2764 57.4076C66.0088 57.6238 65.6793 57.7885 65.2779 57.912C65.772 58.0459 66.0911 58.2621 66.225 58.5812C66.3588 58.9003 66.3382 59.2915 66.1735 59.7754C66.0294 60.1666 65.8132 60.5166 65.5146 60.8254C65.2161 61.1343 64.8764 61.3814 64.4955 61.5667C64.2587 61.6799 63.9292 61.7623 63.5175 61.8137C62.9718 61.8858 62.6115 61.9167 62.4365 61.9167H58.4216L61.1909 54.3912ZM51.9256 59.0445L52.1006 56.3369L50.2785 59.0445H51.9256ZM51.8227 60.671H49.1873L48.3534 61.9167H45.9753L51.5756 54.3912H54.1184L54.1699 61.9167H51.73L51.8124 60.671M39.5514 54.381H42.6192L42.1045 58.9621L44.9561 54.381H48.0137L45.2444 61.9064H43.3399L45.4503 56.1722L41.878 61.9064H40.1485L40.7868 56.1722L38.6764 61.9064H36.7719L39.5411 54.381M35.5674 54.381H37.9043L35.135 61.9064H32.7981L35.5674 54.381ZM28.5361 57.4385H29.5141C29.6171 57.4385 29.8435 57.4076 30.173 57.3355C30.3377 57.3046 30.4921 57.2326 30.6362 57.0988C30.7804 56.9752 30.8833 56.8208 30.9451 56.6664C31.0377 56.4193 31.0274 56.234 30.9245 56.1105C30.8215 55.9766 30.5539 55.9149 30.1215 55.9149H29.1023L28.5361 57.4488M24.5624 61.9167L27.3316 54.3912H31.2127C31.9334 54.3912 32.4584 54.453 32.7878 54.5766C33.1275 54.7001 33.3437 54.9266 33.457 55.256C33.5702 55.5957 33.529 55.9972 33.354 56.4811C33.1996 56.9032 32.9834 57.2635 32.6849 57.562C32.3966 57.8709 32.0569 58.1179 31.676 58.3032C31.4392 58.4268 31.1201 58.5194 30.7495 58.6018C30.9965 58.6944 31.1613 58.7871 31.2539 58.8797C31.3157 58.9415 31.3877 59.0753 31.4804 59.2812C31.5628 59.4871 31.6245 59.6415 31.6348 59.7548L31.9642 61.927H29.3391L28.9376 59.6312C28.8861 59.3327 28.8244 59.1371 28.7317 59.0547C28.6082 58.9415 28.4332 58.8797 28.2273 58.8797H28.0214L26.8993 61.927H24.5624M20.846 57.6135H21.4225C21.8755 57.6135 22.2152 57.5311 22.4622 57.3767C22.699 57.2223 22.8637 57.0164 22.9564 56.7796C23.0387 56.5428 23.0388 56.3472 22.9358 56.1825C22.8432 56.0178 22.5652 55.9355 22.1328 55.9355H21.4637L20.846 57.6135ZM19.693 54.4015H23.5638C24.4079 54.4015 24.9639 54.5971 25.2315 54.9986C25.4992 55.4001 25.5095 55.9663 25.2315 56.7076C24.9536 57.4694 24.5006 58.0665 23.8932 58.4885C23.2755 58.9209 22.5034 59.1268 21.5563 59.1268H20.2798L19.2606 61.9167H16.9237L19.693 54.3912" fill="black"/>
</svg>
