<svg width="108" height="108" viewBox="0 0 108 108" fill="none" xmlns="http://www.w3.org/2000/svg">
<g clip-path="url(#clip0_801_8061)">
<path fill-rule="evenodd" clip-rule="evenodd" d="M24.3604 61.0475L20.7043 64.7036L20.4114 64.5612C19.6262 64.1796 18.8954 63.6617 18.2237 63.1076L17.8348 62.7872L24.58 56.0419C24.9535 55.6685 25.4586 55.4609 25.9866 55.4609C26.5145 55.4609 27.019 55.6678 27.3931 56.0419L34.1384 62.7872L33.7495 63.1076C33.0771 63.6617 32.3469 64.1796 31.5617 64.5612L31.2688 64.7036L27.6128 61.0475V65.8038L27.2319 65.8683C26.8202 65.9381 26.4044 65.9731 25.9866 65.9731C25.5688 65.9731 25.153 65.9388 24.7412 65.8683L24.3604 65.8038V61.0475ZM33.0475 55.612L36.7036 59.2681L36.5612 59.561C36.1797 60.3462 35.6618 61.077 35.1076 61.7487L34.7872 62.1376L28.042 55.3924C27.6685 55.0189 27.461 54.5138 27.461 53.9858C27.461 53.4579 27.6678 52.9534 28.042 52.5793L34.7872 45.834L35.1076 46.2229C35.6618 46.8953 36.1797 47.6255 36.5612 48.4107L36.7036 48.7036L33.0475 52.3596H37.8039L37.8683 52.7405C37.9382 53.1522 37.9731 53.568 37.9731 53.9858C37.9731 54.4036 37.9389 54.8194 37.8683 55.2312L37.8039 55.612H33.0475ZM27.6128 46.9255L31.2688 43.2695L31.5617 43.4119C32.3469 43.7934 33.0777 44.3113 33.7495 44.8654L34.1384 45.1858L27.3931 51.9311C27.0196 52.3046 26.5145 52.5121 25.9866 52.5121C25.4586 52.5121 24.9542 52.3052 24.58 51.9311L17.8348 45.1852L18.2237 44.8648C18.8961 44.3106 19.6262 43.7927 20.4114 43.4112L20.7043 43.2688L24.3604 46.9249V42.1692L24.7412 42.1041C25.153 42.0342 25.5688 41.9993 25.9866 41.9993C26.4044 41.9993 26.8202 42.0335 27.2319 42.1041L27.6128 42.1692V46.9255ZM18.9256 52.3603L15.2695 48.7042L15.4119 48.4114C15.7935 47.6261 16.3113 46.8953 16.8655 46.2236L17.1859 45.8347L23.9312 52.58C24.3046 52.9534 24.5122 53.4585 24.5122 53.9865C24.5122 54.5145 24.3053 55.0189 23.9312 55.3931L17.1859 62.1383L16.8655 61.7494C16.3113 61.077 15.7935 60.3469 15.4119 59.5617L15.2695 59.2688L18.9256 55.6127H14.1693L14.1048 55.2318C14.0349 54.8201 14 54.4043 14 53.9865C14 53.5687 14.0343 53.1529 14.1048 52.7412L14.1693 52.3603H18.9256Z" fill="#878786"/>
<mask id="mask0_801_8061" style="mask-type:luminance" maskUnits="userSpaceOnUse" x="14" y="46" width="11" height="16">
<path d="M14.4575 53.9864C14.4575 53.6063 14.4877 53.2173 14.5555 52.8177H20.0299L15.823 48.6115C16.1623 47.9122 16.6419 47.2136 17.2182 46.5144L23.6074 52.9037C23.905 53.2012 24.0541 53.5942 24.0541 53.9864C24.0541 54.3787 23.905 54.7717 23.6074 55.0692L17.2182 61.4585C16.6419 60.7592 16.1629 60.0607 15.823 59.3614L20.0299 55.1545H14.5555C14.4877 54.7549 14.4568 54.366 14.4575 53.9858" fill="white"/>
</mask>
<g mask="url(#mask0_801_8061)">
<path d="M24.0541 46.5144H14.4568V61.4592H24.0541V46.5144Z" fill="url(#paint0_linear_801_8061)"/>
</g>
<mask id="mask1_801_8061" style="mask-type:luminance" maskUnits="userSpaceOnUse" x="18" y="42" width="16" height="11">
<path d="M25.9866 42.4574C26.3668 42.4574 26.7557 42.487 27.1553 42.5555V48.0299L31.3622 43.823C32.0615 44.1622 32.76 44.6418 33.4593 45.2181L27.07 51.6074C26.7725 51.9049 26.3795 52.054 25.9872 52.054C25.595 52.054 25.202 51.9049 24.9045 51.6074L18.5145 45.2181C19.2138 44.6418 19.9123 44.1629 20.6116 43.823L24.8185 48.0299V42.5555C25.2181 42.4876 25.6071 42.4567 25.9872 42.4574" fill="white"/>
</mask>
<g mask="url(#mask1_801_8061)">
<path d="M33.4593 42.4568H18.5145V52.0541H33.4593V42.4568Z" fill="url(#paint1_linear_801_8061)"/>
</g>
<mask id="mask2_801_8061" style="mask-type:luminance" maskUnits="userSpaceOnUse" x="27" y="46" width="11" height="16">
<path d="M37.5157 53.9865C37.5157 54.3667 37.4855 54.7549 37.4176 55.1553H31.9432L36.1501 59.3622C35.8109 60.0614 35.3313 60.76 34.755 61.4592L28.3658 55.07C28.0682 54.7724 27.9191 54.3795 27.9191 53.9872C27.9191 53.5949 28.0682 53.202 28.3658 52.9044L34.755 46.5151C35.3313 47.2144 35.8103 47.913 36.1501 48.6122L31.9432 52.8191H37.4176C37.4855 53.2187 37.5164 53.6077 37.5157 53.9878" fill="white"/>
</mask>
<g mask="url(#mask2_801_8061)">
<path d="M37.5164 46.5144H27.9191V61.4592H37.5164V46.5144Z" fill="url(#paint2_linear_801_8061)"/>
</g>
<mask id="mask3_801_8061" style="mask-type:luminance" maskUnits="userSpaceOnUse" x="18" y="55" width="16" height="11">
<path d="M25.9866 65.5156C25.6064 65.5156 25.2181 65.4854 24.8178 65.4176V59.9432L20.6109 64.1501C19.9117 63.8109 19.2131 63.3313 18.5139 62.7556L24.9031 56.3664C25.2007 56.0688 25.5936 55.9197 25.9859 55.9197C26.3782 55.9197 26.7711 56.0688 27.0687 56.3664L33.4579 62.7556C32.7587 63.3319 32.0601 63.8109 31.3609 64.1501L27.154 59.9432V65.4176C26.7543 65.4854 26.3654 65.5163 25.9852 65.5156" fill="white"/>
</mask>
<g mask="url(#mask3_801_8061)">
<path d="M33.4593 55.9189H18.5145V65.5163H33.4593V55.9189Z" fill="url(#paint3_linear_801_8061)"/>
</g>
<path fill-rule="evenodd" clip-rule="evenodd" d="M82.1886 48.0151H88.3043C89.4447 48.0151 90.3781 48.9486 90.3781 50.0889V50.28C90.3781 51.5252 89.3593 52.544 88.1141 52.544H83.1467C83.1467 53.997 83.8503 54.9559 84.966 54.9559H88.3413C89.5556 54.9559 91.1548 55.8251 91.1548 57.0297V57.2208C91.1548 58.466 90.1359 59.4848 88.8908 59.4848H82.1886V48.0151ZM62.2301 45.7036H63.9015C64.7283 45.7036 65.4619 46.2073 65.8167 46.5622L74.0907 57.3511V45.7036H76.7026V61.8906H75.0638C74.2369 61.8906 73.9851 61.4661 73.6302 61.1112L64.8745 49.8512V61.8906H62.2292V45.7036H62.2301ZM51.0053 56.4204L54.0248 59.4989C53.3106 59.8652 52.4935 60.0669 51.5988 60.0669C48.3424 60.0669 46.1189 57.404 46.1189 53.8297C46.1189 50.2554 48.3124 47.5925 51.5988 47.5925C54.8851 47.5925 57.0787 50.2245 57.0787 53.8297C57.0787 55.3962 56.6516 56.7884 55.8969 57.8575L54.5813 56.5269C54.5813 56.5269 53.0579 54.8661 51.0053 56.4212V56.4204ZM51.5979 45.3126C56.6701 45.3126 59.9767 49.1256 59.9767 53.8297C59.9767 56.1289 59.171 58.215 57.7629 59.7472L59.8913 61.9011C59.8913 61.9011 59.1084 62.6206 58.0931 62.6206C57.0778 62.6206 56.4112 61.9328 56.4112 61.9328L55.7913 61.3006C54.5919 61.9672 53.1768 62.3458 51.5979 62.3458C46.5891 62.3458 43.2191 58.5329 43.2191 53.8297C43.2191 49.1264 46.5257 45.3126 51.5979 45.3126ZM88.3457 45.7036H79.4377V61.8906H88.8564C94.3099 61.8906 95.8307 55.2131 91.4489 53.7812C91.0966 53.6659 90.6634 53.6588 91.2199 53.4299C91.6514 53.252 91.972 52.9447 92.3119 52.5414C94.6754 49.7402 92.2388 45.7027 88.3457 45.7027V45.7036Z" fill="#00193E"/>
</g>
<defs>
<linearGradient id="paint0_linear_801_8061" x1="14.4568" y1="53.9864" x2="24.0541" y2="53.9864" gradientUnits="userSpaceOnUse">
<stop stop-color="#003A73"/>
<stop offset="0.35" stop-color="#003A73"/>
<stop offset="0.73" stop-color="#0062AF"/>
<stop offset="1" stop-color="#0062AF"/>
</linearGradient>
<linearGradient id="paint1_linear_801_8061" x1="18.5145" y1="47.2554" x2="33.4586" y2="47.2554" gradientUnits="userSpaceOnUse">
<stop stop-color="#AB004C"/>
<stop offset="0.35" stop-color="#AB004C"/>
<stop offset="0.61" stop-color="#760030"/>
<stop offset="1" stop-color="#1A1A18"/>
</linearGradient>
<linearGradient id="paint2_linear_801_8061" x1="27.9191" y1="53.9864" x2="37.5164" y2="53.9864" gradientUnits="userSpaceOnUse">
<stop stop-color="#0062AF"/>
<stop offset="0.27" stop-color="#0062AF"/>
<stop offset="0.65" stop-color="#003A73"/>
<stop offset="1" stop-color="#003A73"/>
</linearGradient>
<linearGradient id="paint3_linear_801_8061" x1="25.9866" y1="65.5163" x2="25.9866" y2="55.9189" gradientUnits="userSpaceOnUse">
<stop stop-color="#003A73"/>
<stop offset="0.35" stop-color="#003A73"/>
<stop offset="0.73" stop-color="#0062AF"/>
<stop offset="1" stop-color="#0062AF"/>
</linearGradient>
<clipPath id="clip0_801_8061">
<rect width="80" height="23.9798" fill="white" transform="translate(14 42)"/>
</clipPath>
</defs>
</svg>
