<svg width="108" height="108" viewBox="0 0 108 108" fill="none" xmlns="http://www.w3.org/2000/svg">
<path d="M61.208 54.1558C59.7609 52.9561 57.8876 52.1816 56.2356 51.498C53.9574 50.5558 51.9893 49.7429 51.9893 48.2352C51.9893 47.5768 52.2973 46.972 52.8577 46.5357C53.4485 46.0752 54.2735 45.8217 55.1793 45.8217C58.028 45.8217 60.3001 47.8364 60.3203 47.8545L60.8757 48.3615L63.4003 43.6264L63.1115 43.3214C63.0014 43.2044 60.3425 40.4596 55.2136 40.4596C52.7527 40.4596 50.4897 41.2462 48.8386 42.6741C47.1633 44.1232 46.2383 46.1237 46.2383 48.3059C46.2383 50.4336 47.0643 52.1544 48.7598 53.5651C50.1857 54.7496 51.962 55.515 53.6807 56.2563C56.0245 57.2661 58.0512 58.1396 58.0512 59.6937C58.0512 60.8772 57.2494 62.1426 55.0026 62.1426C51.7802 62.1426 49.1941 59.6887 49.1688 59.6634L48.6841 59.1928L45.5456 63.5421L45.8586 63.8926C45.894 63.9289 46.7048 64.8247 48.2287 65.7163C49.6263 66.5322 51.9246 67.5057 54.9309 67.5057C57.5615 67.5057 59.8033 66.6989 61.415 65.1741C62.9307 63.7381 63.7648 61.7548 63.7648 59.5887C63.7648 57.36 62.9287 55.5827 61.208 54.1558Z" fill="#292075"/>
<path d="M87.7401 67.1149H93.6213V40.8504H87.7401V67.1149Z" fill="#292075"/>
<path d="M76.2442 62.1961H71.7677V45.7673H75.7151C77.4843 45.7673 78.4992 46.7569 78.4992 48.4817C78.4992 50.2246 77.5863 51.1072 75.7848 51.1072H74.4256V55.9412H76.2442C77.2389 55.9412 78.068 56.2513 78.6406 56.841C79.2424 57.459 79.4868 58.0709 79.4868 58.9525C79.4868 60.954 78.2447 62.1961 76.2442 62.1961ZM84.0532 55.3111C83.4716 54.3962 82.6738 53.6691 81.7246 53.1824C83.2565 51.9544 84.1229 50.0691 84.1229 47.9161C84.1229 45.7389 83.2938 43.9233 81.7246 42.662C80.2462 41.4755 78.1932 40.8474 75.7848 40.8474H66.2157V67.1119H75.8918C78.4588 67.1119 80.6794 66.4636 82.3123 65.2346C84.1663 63.8411 85.1449 61.7669 85.1449 59.2343C85.1449 57.7912 84.7682 56.434 84.0532 55.3111Z" fill="#292075"/>
<path d="M27.9568 40.3788C20.4578 40.3788 14.3787 46.472 14.3787 53.9882C14.3787 61.0347 19.7217 66.8301 26.5673 67.5269V57.6407C25.096 57.0793 24.0478 55.6544 24.0478 53.9882C24.0478 51.8322 25.8008 50.0782 27.9568 50.0782C30.1118 50.0782 31.8669 51.8322 31.8669 53.9882C31.8669 55.6544 30.8166 57.0793 29.3453 57.6407V67.5269C36.1919 66.8301 41.5349 61.0347 41.5349 53.9882C41.5349 46.472 35.4558 40.3788 27.9568 40.3788Z" fill="#00B5EF"/>
</svg>
