<svg width="108" height="108" viewBox="0 0 108 108" fill="none" xmlns="http://www.w3.org/2000/svg">
<path fill-rule="evenodd" clip-rule="evenodd" d="M25.76 41C19.2816 41 14.0296 46.2521 14.0296 52.7175C14.0255 55.189 14.8073 57.5978 16.2619 59.5959C16.7666 59.355 17.2886 59.1522 17.8235 58.9892C16.4556 57.273 15.6426 55.0921 15.6426 52.7305C15.6426 47.1686 20.1721 42.639 25.734 42.639C31.2959 42.639 35.8254 47.1683 35.8254 52.7302C35.8254 56.2921 33.9673 59.4406 31.154 61.2343C31.4251 61.2343 31.6962 61.2343 31.98 61.2216C32.8962 61.1698 33.761 60.7568 34.4965 60.4216C36.3546 58.3435 37.4902 55.7368 37.4902 52.7171C37.4902 46.2524 32.2381 41 25.76 41Z" fill="#EA5F00"/>
<path fill-rule="evenodd" clip-rule="evenodd" d="M33.1928 64.3841C32.5347 64.6034 31.8896 64.7323 31.2703 64.7453C28.6506 64.8485 26.7665 64.0615 24.9598 63.2872C23.3465 62.6031 21.8366 61.958 19.9785 62.0612C18.2233 62.2031 16.9976 63.1841 16.9458 63.2225C16.5846 63.5066 16.5331 64.0355 16.8169 64.3971C17.1008 64.7584 17.6427 64.8228 18.0042 64.539C18.0169 64.539 18.8944 63.8422 20.1074 63.7517C21.5271 63.6872 22.8306 64.2161 24.3144 64.8615C26.0049 65.5841 27.889 66.3844 30.4055 66.4615C30.7154 66.4745 31.0249 66.4615 31.3477 66.4488C32.135 66.4231 32.9477 66.2679 33.7608 65.9971C33.971 65.9225 34.1439 65.7689 34.2427 65.5689C34.3415 65.3689 34.3585 65.1383 34.29 64.926C34.122 64.4615 33.6319 64.2291 33.1928 64.3841V64.3841Z" fill="#2673DD"/>
<path fill-rule="evenodd" clip-rule="evenodd" d="M35.8899 60.6016C35.0899 61.1565 33.4769 62.0984 31.6315 62.1632C29.2829 62.2663 27.7471 61.5822 26.1083 60.8854C24.3918 60.1371 22.6112 59.3629 19.9398 59.479C17.462 59.5692 15.3588 60.9889 14.3261 61.8146C14.2364 61.8861 14.1618 61.9748 14.1067 62.0754C14.0515 62.176 14.017 62.2865 14.005 62.4006C13.993 62.5147 14.0038 62.6301 14.0368 62.7399C14.0698 62.8498 14.1243 62.952 14.1972 63.0406C14.2687 63.1303 14.3574 63.2049 14.458 63.2601C14.5586 63.3152 14.6692 63.3498 14.7833 63.3618C14.8974 63.3738 15.0127 63.3629 15.1226 63.3299C15.2324 63.2969 15.3347 63.2424 15.4233 63.1695C16.2877 62.4727 18.0296 61.2857 20.0042 61.2083C22.2883 61.1178 23.7982 61.7759 25.3985 62.4727C26.9731 63.1568 28.5858 63.8664 30.909 63.9051C31.1671 63.9051 31.4252 63.9051 31.6963 63.8924C33.9801 63.8019 35.916 62.6794 36.8836 62.021C37.2836 61.7502 37.3741 61.2083 37.1029 60.8083C36.8322 60.421 36.2772 60.3178 35.8902 60.6019L35.8899 60.6016Z" fill="#2673DD"/>
<path fill-rule="evenodd" clip-rule="evenodd" d="M26.4179 60.022L26.4436 60.0347C27.4633 60.4477 28.4439 60.8477 29.5925 61.0671C32.7798 59.609 34.9995 56.3956 34.9995 52.6661C35.0122 47.5817 30.8572 43.4395 25.7728 43.4395C20.688 43.4395 16.5198 47.5817 16.5198 52.6661C16.5169 54.8987 17.3292 57.0556 18.8042 58.7315C19.088 58.6798 19.3718 58.6541 19.6687 58.6283C22.6109 58.4604 24.6369 59.2864 26.4179 60.022ZM27.076 53.802C26.9085 53.6341 26.7116 53.4985 26.495 53.402C26.2633 53.2855 26.0049 53.1953 25.7341 53.1048C25.4706 53.0203 25.212 52.9212 24.9595 52.808C24.4176 52.6017 23.9658 52.2918 23.5918 51.8531C23.2172 51.4274 23.0496 50.8855 23.0496 50.2274C23.0626 49.8014 23.1531 49.4274 23.3077 49.1045C23.4757 48.782 23.695 48.5109 23.9788 48.3045C24.263 48.0982 24.5725 47.9299 24.9211 47.8271C25.2815 47.7224 25.6552 47.6703 26.0306 47.6722H26.0566C26.6503 47.6848 27.1791 47.801 27.6179 48.0077C28.0546 48.2258 28.4695 48.485 28.8569 48.782L27.9407 50.0982C27.6826 49.9045 27.3985 49.7496 27.1147 49.6207C26.8179 49.4915 26.4566 49.4144 26.0309 49.3883C25.708 49.3626 25.4112 49.4271 25.1661 49.582C24.908 49.7239 24.7788 49.9433 24.7788 50.2271C24.7788 50.395 24.8176 50.5499 24.908 50.6788C24.9985 50.808 25.1274 50.9242 25.2823 51.0144C25.4372 51.1175 25.6049 51.1823 25.7725 51.2598C25.9404 51.3242 26.1211 51.3887 26.276 51.4534C26.6115 51.5693 26.9471 51.7112 27.2823 51.8788C27.6073 52.0431 27.9108 52.2468 28.1858 52.4855C28.4569 52.7179 28.6633 53.0017 28.8309 53.3242C28.9858 53.6471 29.0633 54.0214 29.0506 54.4601C29.0376 54.8858 28.9471 55.2728 28.7925 55.5956C28.6245 55.9312 28.3925 56.202 28.1084 56.4344C27.8115 56.6668 27.476 56.8344 27.089 56.9506C26.7017 57.0668 26.276 57.1185 25.8242 57.1055C25.3985 57.0928 25.0115 57.041 24.663 56.9245C24.3144 56.8087 23.9918 56.6795 23.7077 56.5245C23.4526 56.3882 23.2108 56.2284 22.9852 56.0474C22.7788 55.9052 22.6369 55.7763 22.5464 55.6728L23.4887 54.3439C23.8097 54.6498 24.1807 54.8985 24.5855 55.0795C25.0112 55.2858 25.4499 55.389 25.9017 55.389C26.289 55.402 26.6115 55.3115 26.8953 55.1439C27.1791 54.9763 27.308 54.7182 27.3214 54.3953C27.3214 54.1502 27.2439 53.9566 27.076 53.8017V53.802ZM46.4976 52.6264C46.2264 52.3814 45.9296 52.1877 45.5941 52.0071C45.2588 51.8395 44.9233 51.6845 44.575 51.5683C44.4068 51.5039 44.2391 51.4391 44.0585 51.3747C43.8813 51.314 43.7123 51.2317 43.5553 51.1296C43.4004 51.0391 43.2842 50.9233 43.1807 50.7941C43.088 50.6617 43.0385 50.5039 43.0391 50.3423C43.0518 50.0585 43.1811 49.8391 43.4264 49.6972C43.6842 49.5553 43.9684 49.4909 44.3036 49.5163C44.7296 49.5423 45.1036 49.6198 45.4007 49.7487C45.6976 49.8909 45.9814 50.0455 46.2395 50.2391L47.1687 48.9229C46.7814 48.6131 46.3557 48.355 45.9169 48.1356C45.4782 47.9163 44.9487 47.8131 44.3553 47.8001H44.3296C43.9423 47.7874 43.568 47.8388 43.2068 47.955C42.8455 48.0712 42.5357 48.2261 42.2518 48.4325C41.968 48.6388 41.7487 48.9099 41.5807 49.2325C41.4131 49.5553 41.3226 49.9423 41.3099 50.3683C41.2969 51.0264 41.4776 51.5683 41.8518 51.9941C42.2218 52.4206 42.6919 52.7487 43.2198 52.949C43.4649 53.0525 43.723 53.1553 44.0071 53.2331C44.2779 53.3233 44.536 53.4268 44.7684 53.5426C45.0004 53.6588 45.1941 53.788 45.3493 53.9556C45.5039 54.1236 45.5941 54.3169 45.5811 54.562C45.5684 54.8849 45.4264 55.1429 45.1557 55.3106C44.8845 55.4785 44.549 55.5687 44.162 55.556C43.7026 55.5423 43.2506 55.4369 42.8325 55.2461C42.4068 55.0398 42.0325 54.7944 41.7226 54.5106L40.7677 55.8398C40.8582 55.9302 41.0131 56.0722 41.2068 56.2398C41.4323 56.4209 41.6742 56.5808 41.9293 56.7172C42.2131 56.8721 42.5357 57.0014 42.8842 57.1172C43.2455 57.2334 43.6328 57.2852 44.0588 57.2982C44.5103 57.3109 44.936 57.2595 45.3233 57.1433C45.7106 57.0271 46.0588 56.8591 46.3557 56.6271C46.6489 56.399 46.8871 56.1079 47.0525 55.7753C47.2201 55.4398 47.3106 55.0525 47.3236 54.6268C47.3363 54.188 47.2588 53.8007 47.0912 53.4782C46.975 53.1426 46.7687 52.8588 46.4976 52.6264ZM69.8937 52.2791C69.9712 52.2017 70.0617 52.0982 70.1391 52.008C70.2293 51.9048 70.3068 51.789 70.3712 51.6337C70.4487 51.4791 70.5004 51.3112 70.5522 51.1048C70.5909 50.8985 70.6166 50.6531 70.6166 50.3563C70.6164 50.0696 70.5639 49.7854 70.4617 49.5175C70.3614 49.2477 70.2127 48.9985 70.023 48.782C69.8293 48.5626 69.6099 48.369 69.3388 48.2141C69.0575 48.0522 68.7454 47.9511 68.4226 47.9172C68.2033 47.8915 67.9582 47.8658 67.7001 47.8658C67.429 47.8528 67.1582 47.8528 66.8483 47.8528L64.3449 47.8655V57.3118H67.8033C68.1258 57.3118 68.3712 57.3118 68.5776 57.2991C68.9261 57.2604 69.2487 57.1829 69.5585 57.0537C69.855 56.9248 70.1391 56.7442 70.3585 56.5118C70.5909 56.2795 70.7715 55.9956 70.9134 55.6858C71.0509 55.3411 71.121 54.9731 71.1198 54.602C71.1198 53.9696 70.9909 53.4664 70.7455 53.0922C70.5004 52.7048 70.2166 52.4341 69.8937 52.2791ZM65.9191 49.4788H66.7322C67.0033 49.4788 67.2483 49.4788 67.455 49.4915C67.6614 49.5045 67.855 49.5175 67.9969 49.5302C68.3195 49.569 68.5776 49.6725 68.7712 49.8401C68.9776 49.995 69.0807 50.2274 69.068 50.5112C69.0807 50.8725 68.9649 51.1436 68.7712 51.2985C68.5645 51.4531 68.3064 51.5566 67.9839 51.595C67.829 51.621 67.6483 51.6337 67.442 51.6337H65.9064V49.4788H65.9191V49.4788ZM69.1712 55.2344C68.9388 55.4534 68.5645 55.5826 68.0483 55.6087C67.8937 55.6214 67.7001 55.6341 67.442 55.6214H65.9064V53.1823H66.6934C66.9388 53.1823 67.1709 53.1823 67.3903 53.1696C67.6096 53.1569 67.8033 53.1569 67.9582 53.1696C68.4614 53.1953 68.8357 53.3115 69.1068 53.5179C69.3776 53.7242 69.5198 54.0083 69.5198 54.3826C69.5325 54.7309 69.4163 55.015 69.1712 55.2344V55.2344ZM55.0795 52.2274C54.8988 51.7372 54.6407 51.3112 54.3052 50.9756C53.9826 50.6274 53.5953 50.3693 53.1566 50.1883C52.7189 50.0071 52.2494 49.915 51.7757 49.9175C51.1823 49.9175 50.6531 50.0207 50.2014 50.2014C49.7369 50.395 49.3496 50.6658 49.0401 51.0014C48.7303 51.3369 48.4979 51.7242 48.3303 52.1629C48.1753 52.6017 48.0979 53.0791 48.0979 53.5823C48.0979 54.1372 48.2011 54.6407 48.3947 55.1052C48.5835 55.5444 48.8551 55.9432 49.1947 56.2798C49.5304 56.6045 49.9245 56.8628 50.3563 57.041C50.795 57.2087 51.2595 57.2991 51.7499 57.2991C52.2017 57.2991 52.6017 57.2604 52.9372 57.1829C53.2457 57.1253 53.5481 57.0389 53.8404 56.9248C54.0883 56.8127 54.3259 56.6788 54.5503 56.5248C54.7569 56.3829 54.9503 56.2407 55.1439 56.0988L54.3052 54.9245C54.189 55.015 54.0728 55.1055 53.9309 55.2083C53.776 55.3115 53.5823 55.402 53.376 55.4925C53.1696 55.5696 52.9372 55.6344 52.6661 55.6861C52.408 55.7245 52.1112 55.7506 51.7887 55.7375C51.6066 55.7226 51.4257 55.6967 51.2468 55.6601C51.0557 55.6095 50.873 55.5312 50.7045 55.4277C50.5349 55.3078 50.3792 55.1693 50.2401 55.015C50.0982 54.8471 49.995 54.6404 49.9303 54.3953L49.9176 54.3309H55.2988L55.3118 53.9182C55.3376 53.2728 55.2601 52.7179 55.0795 52.2274V52.2274ZM49.8658 52.9115L49.8788 52.8598C49.9045 52.6534 49.969 52.5499 50.0337 52.408L50.0725 52.3306C50.1826 52.1457 50.3271 51.9836 50.4982 51.8531C50.6669 51.7247 50.8602 51.6326 51.0661 51.5823C51.2855 51.5175 51.5049 51.4788 51.7242 51.4788C52.2404 51.4918 52.6661 51.6337 52.976 51.9179C53.1309 52.0468 53.2598 52.176 53.363 52.3179C53.4664 52.4598 53.5309 52.6274 53.5566 52.8468L53.5696 52.9115H49.8658V52.9115ZM61.4414 50.6401L61.3382 50.5499C61.1188 50.3563 60.8347 50.2014 60.5122 50.0982C60.2023 49.982 59.8283 49.9172 59.4023 49.9172C58.9249 49.9172 58.4731 50.0077 58.0604 50.1887C57.6524 50.3557 57.2865 50.6113 56.9893 50.9369C56.6795 51.2595 56.4471 51.6598 56.2665 52.1242C56.0988 52.576 56.0084 53.0922 56.0084 53.6598C56.0084 54.1633 56.0988 54.6407 56.2665 55.0795C56.4471 55.5182 56.6795 55.8921 56.9893 56.228C57.2977 56.5509 57.6602 56.8173 58.0604 57.0153C58.4731 57.1956 58.9118 57.2861 59.4023 57.2861C59.8283 57.2861 60.2023 57.2344 60.5122 57.1182C60.8347 57.0023 61.1188 56.8344 61.3382 56.628L61.4414 56.5248V57.2731H63.1061V50.1239H61.4414V50.6401ZM61.2864 54.5115C61.1833 54.7569 61.0414 54.9763 60.8734 55.1439C60.7058 55.3118 60.5122 55.4277 60.2928 55.5182C60.0731 55.5953 59.8419 55.6346 59.609 55.6344C59.0798 55.6344 58.641 55.4534 58.2798 55.1052C57.9182 54.7309 57.7506 54.2407 57.7506 53.6341C57.7506 53.0404 57.9312 52.5499 58.2798 52.1629C58.641 51.7756 59.0798 51.582 59.609 51.582C59.8541 51.582 60.0864 51.6337 60.2928 51.7242C60.5252 51.8144 60.7185 51.9433 60.8734 52.1242C61.0414 52.2918 61.1833 52.5115 61.2864 52.7823C61.3896 53.0404 61.4414 53.3242 61.4414 53.6598C61.4414 53.9696 61.3896 54.2534 61.2864 54.5115ZM77.0433 50.6401L76.9401 50.5499C76.7207 50.3563 76.4369 50.2014 76.1141 50.0982C75.8045 49.982 75.4303 49.9172 75.0045 49.9172C74.5271 49.9172 74.0753 50.0077 73.6623 50.1887C73.2543 50.3557 72.8884 50.6113 72.5912 50.9369C72.2814 51.2595 72.0493 51.6598 71.8687 52.1242C71.7007 52.576 71.6106 53.0922 71.6106 53.6598C71.6106 54.1633 71.7007 54.6407 71.8687 55.0795C72.0493 55.5182 72.2814 55.8921 72.5912 56.228C72.8997 56.5508 73.2622 56.8172 73.6623 57.0153C74.0753 57.1956 74.5141 57.2861 75.0045 57.2861C75.4303 57.2861 75.8045 57.2344 76.1141 57.1182C76.4369 57.0023 76.7207 56.8344 76.9401 56.628L77.0433 56.5248V57.2731H78.708V50.1626H77.0433V50.6401ZM76.8884 54.5115C76.7852 54.7569 76.6433 54.9763 76.4757 55.1439C76.3077 55.3118 76.1141 55.4277 75.8947 55.5182C75.675 55.5953 75.4438 55.6346 75.2109 55.6344C74.6817 55.6344 74.243 55.4534 73.8817 55.1052C73.5204 54.7309 73.3525 54.2407 73.3525 53.6341C73.3525 53.0404 73.5331 52.5499 73.8817 52.1629C74.243 51.7756 74.6817 51.582 75.2109 51.582C75.456 51.582 75.6753 51.6337 75.8947 51.7242C76.1271 51.8144 76.3207 51.9433 76.4757 52.1242C76.6433 52.2918 76.7852 52.5115 76.8884 52.7823C76.9918 53.0404 77.0433 53.3242 77.0433 53.6598C77.0433 53.9696 76.9918 54.2534 76.8884 54.5115ZM90.8642 53.2474L93.8969 49.9309H91.703L89.1995 52.6537V47.7499H87.522V57.2991H89.1995V55.1315L89.7544 54.5118L91.9223 57.2991H94.0001L90.8642 53.2474ZM86.0249 51.5823C85.8699 51.1436 85.5734 50.7566 85.1474 50.4341C84.7217 50.1112 84.1795 49.9436 83.5344 49.9436C83.1988 49.9436 82.8503 49.995 82.502 50.0985C82.197 50.1898 81.9123 50.3388 81.6633 50.5372V50.1626H79.9725V57.2991H81.6633V53.4795C81.676 53.2214 81.702 52.9763 81.7277 52.7439C81.7664 52.4988 81.8309 52.2922 81.9341 52.1115C82.0372 51.9309 82.1922 51.789 82.3858 51.6728C82.5795 51.5566 82.8245 51.4918 83.1214 51.4791C83.4956 51.4664 83.7925 51.5696 84.0249 51.7633C84.2569 51.9696 84.4118 52.2277 84.4893 52.5633C84.528 52.7182 84.5537 52.9245 84.5798 53.1826C84.5925 53.4277 84.6055 53.789 84.6055 54.2668V57.2991H86.2703V53.8541C86.2723 53.4494 86.2594 53.0448 86.2315 52.641C86.2076 52.2809 86.1381 51.9253 86.0249 51.5826V51.5823Z" fill="#EA5F00"/>
</svg>
