<svg width="108" height="108" viewBox="0 0 108 108" fill="none" xmlns="http://www.w3.org/2000/svg">
<path d="M52.7785 21.475C34.666 22.2937 20.6472 37.6375 21.4722 55.7437C22.291 73.8562 37.6347 87.8687 55.741 87.05C73.8535 86.2375 87.8597 70.8875 87.041 52.7812C86.2535 35.175 71.7347 21.4437 54.291 21.4437C53.791 21.4437 53.2847 21.4562 52.7785 21.475Z" fill="url(#paint0_radial_801_7230)"/>
<path d="M53.6597 21C53.3597 21.0062 53.066 21.0187 52.766 21.0312C34.4035 21.8625 20.2035 37.4125 21.0347 55.7687C21.8347 73.5187 36.4097 87.3875 53.9722 87.5375H54.5222C54.941 87.5375 55.3535 87.525 55.7722 87.5062C73.4535 86.7062 87.2847 72.2375 87.5285 54.7625V53.8125C87.5285 53.4625 87.516 53.1125 87.4972 52.7625C86.7035 35.1437 72.3285 21.3437 54.9472 21H53.6597ZM56.7222 83.525C56.691 82.775 57.791 82.5812 57.791 82.5812C67.6285 80.6437 64.7535 74.1937 61.2722 70.9C59.8097 69.5125 46.1097 57.7 46.1097 57.7C33.0472 46.4562 34.091 37.675 34.091 37.675C34.7222 26.8687 44.1847 24.1937 51.3347 24.8125C52.1722 24.8812 52.6347 25.3937 52.4847 26.0937C52.3285 26.85 51.2222 26.9062 51.2222 26.9062C48.9472 27.0437 46.9097 27.275 45.3597 28.3125C39.591 32.1937 41.2972 38.7875 48.9847 46.1312C49.9535 47.0625 50.9785 48.0312 52.0347 49.0187C52.0347 49.0187 53.5785 50.3812 56.6535 53.3062C62.566 58.7562 65.8035 61.6937 65.8035 61.6937C76.2222 70.375 72.666 78.3062 68.6847 81.0687C65.6472 83.175 62.2785 84.1625 57.8722 84.3937L57.7535 84.4062C57.341 84.4062 56.7472 84.1562 56.716 83.5187M59.1597 51.475C55.7785 50.7625 55.091 47.7 55.091 47.7C54.8097 46.6187 54.7472 45.2625 54.9722 43.525C55.4347 39.8937 56.4097 38.1875 57.5222 35.375C59.0285 31.5937 55.3722 29.3812 55.9785 27.9937C56.8035 26.1125 59.416 28.5062 62.3222 28.6812C64.8285 28.8187 66.3347 28.6937 68.2847 28.9562C70.8722 29.3 73.966 30.175 75.341 31.8C76.6035 33.2812 74.6722 35.0875 72.3535 33.95C70.6597 33.125 68.5222 33.6312 69.7722 35.4C71.2847 37.0812 72.0035 37.1312 73.541 37.5312C77.7785 38.6437 77.8597 42.7 75.0035 44.8062C71.7347 47.1937 68.441 46.2125 67.1097 41.525C66.441 39.1875 64.791 38 63.0972 38.6625C61.416 39.325 62.4097 42.4 63.691 45.25C65.9097 50.925 61.4097 51.5062 59.7035 51.5062C59.441 51.5062 59.2472 51.4937 59.1535 51.4812M46.7597 82.4625C43.0847 82.1 38.691 80.9437 34.8722 77.6375C31.3597 74.6 29.1785 70.4125 28.1222 66.75C27.041 62.9875 26.5847 58.5937 28.3722 58.9437C28.9222 59.05 29.8722 61.4687 30.9035 63.225C31.9722 65.0375 32.841 66.0437 33.6535 66.6562C34.0222 66.9312 35.2785 64.1437 37.0972 62.5562C38.1597 61.6812 39.3222 61.3812 39.5097 63.9937C39.7347 67.2 39.1597 71.0062 40.091 71.0062C40.966 71.0062 42.941 70.3437 47.2722 69.9812C48.8972 69.8437 49.8222 70.15 48.2722 72.3437C47.4972 73.4312 46.4597 74.975 44.0035 76.7375C47.6847 80.1875 52.1035 79.7687 52.1785 81.2375C52.2222 82.0812 50.5722 82.55 48.4097 82.55C47.8847 82.55 47.3285 82.5187 46.7535 82.4687" fill="url(#paint1_radial_801_7230)"/>
<defs>
<radialGradient id="paint0_radial_801_7230" cx="0" cy="0" r="1" gradientUnits="userSpaceOnUse" gradientTransform="translate(60.5669 45.1602) scale(31.4965 31.4995)">
<stop stop-color="white"/>
<stop offset="1" stop-color="#CF9C51"/>
</radialGradient>
<radialGradient id="paint1_radial_801_7230" cx="0" cy="0" r="1" gradientUnits="userSpaceOnUse" gradientTransform="translate(59.7474 46.3884) scale(69.4811 69.4811)">
<stop stop-color="#00C0F3"/>
<stop offset="0.22" stop-color="#0097D6"/>
<stop offset="0.57" stop-color="#0066B3"/>
<stop offset="1" stop-color="#0066B3"/>
</radialGradient>
</defs>
</svg>
