<svg width="108" height="108" viewBox="0 0 108 108" fill="none" xmlns="http://www.w3.org/2000/svg">
<path d="M25.1452 42.1666C18.7934 42.4537 13.8773 47.8345 14.1666 54.1841C14.4537 60.5359 19.8345 65.4499 26.1841 65.1627C32.5359 64.8778 37.4477 59.4948 37.1605 53.1452C36.8844 46.971 31.7929 42.1556 25.6756 42.1556C25.5003 42.1556 25.3227 42.16 25.1452 42.1666Z" fill="url(#paint0_radial_801_6857)"/>
<path d="M25.4542 42C25.349 42.0022 25.246 42.0066 25.1408 42.011C18.7014 42.3025 13.7216 47.7556 14.0131 54.1929C14.2937 60.4175 19.4049 65.2811 25.5638 65.3337H25.7567C25.9036 65.3337 26.0482 65.3293 26.1951 65.3227C32.3956 65.0422 37.246 59.9682 37.3315 53.84V53.5068C37.3315 53.3841 37.3271 53.2614 37.3205 53.1386C37.0422 46.96 32.0011 42.1205 25.9058 42H25.4542ZM26.5282 63.9266C26.5173 63.6636 26.903 63.5956 26.903 63.5956C30.3529 62.9162 29.3447 60.6542 28.1238 59.4992C27.611 59.0126 22.8066 54.8701 22.8066 54.8701C18.2258 50.9271 18.5918 47.8477 18.5918 47.8477C18.8131 44.0581 22.1315 43.12 24.6389 43.337C24.9326 43.3611 25.0948 43.5408 25.0422 43.7863C24.9874 44.0515 24.5995 44.0712 24.5995 44.0712C23.8016 44.1195 23.0871 44.2005 22.5436 44.5644C20.5205 45.9255 21.1189 48.2378 23.8148 50.8131C24.1545 51.1397 24.514 51.4794 24.8844 51.8257C24.8844 51.8257 25.4258 52.3036 26.5041 53.3293C28.5775 55.2405 29.7129 56.2707 29.7129 56.2707C33.3666 59.3151 32.1195 62.0964 30.7233 63.0652C29.6581 63.8038 28.4767 64.1501 26.9315 64.2312L26.8899 64.2356C26.7452 64.2356 26.537 64.1479 26.526 63.9244M27.383 52.6871C26.1973 52.4373 25.9562 51.3633 25.9562 51.3633C25.8575 50.9841 25.8356 50.5085 25.9145 49.8992C26.0767 48.6258 26.4186 48.0274 26.8088 47.0411C27.337 45.7151 26.0548 44.9392 26.2674 44.4526C26.5567 43.7929 27.4729 44.6323 28.4921 44.6937C29.371 44.7419 29.8992 44.6981 30.583 44.7901C31.4904 44.9107 32.5753 45.2175 33.0575 45.7874C33.5003 46.3068 32.823 46.9403 32.0099 46.5414C31.4159 46.2521 30.6663 46.4296 31.1047 47.0499C31.6351 47.6395 31.8871 47.657 32.4263 47.7973C33.9123 48.1874 33.9408 49.6099 32.9392 50.3485C31.7929 51.1858 30.6378 50.8416 30.171 49.1978C29.9364 48.3781 29.3578 47.9616 28.7638 48.194C28.1742 48.4263 28.5227 49.5047 28.9721 50.5041C29.7501 52.4942 28.1721 52.6981 27.5737 52.6981C27.4816 52.6981 27.4137 52.6937 27.3808 52.6893M23.0345 63.554C21.7458 63.4268 20.2049 63.0214 18.8658 61.8619C17.634 60.7967 16.869 59.3282 16.4986 58.0438C16.1195 56.7244 15.9595 55.1836 16.5863 55.3063C16.7792 55.3436 17.1123 56.1918 17.474 56.8077C17.8488 57.4433 18.1534 57.7962 18.4384 58.011C18.5677 58.1074 19.0082 57.1299 19.646 56.5731C20.0186 56.2663 20.4263 56.1611 20.4921 57.0773C20.571 58.2016 20.3693 59.5364 20.6959 59.5364C21.0027 59.5364 21.6953 59.3041 23.2142 59.177C23.7841 59.1288 24.1085 59.2362 23.5649 60.0055C23.2931 60.3868 22.9293 60.9282 22.0679 61.5463C23.3589 62.7562 24.9085 62.6093 24.9348 63.1244C24.9501 63.4203 24.3715 63.5847 23.6131 63.5847C23.429 63.5847 23.234 63.5737 23.0323 63.5562" fill="url(#paint1_radial_801_6857)"/>
<path d="M44.091 49.0816C45.2526 50.5107 46.8285 51.337 48.2553 51.2449L48.411 51.2362V50.3726L48.2663 50.3551C46.2827 50.1118 45.1299 48.4921 45.1057 45.9101V45.7414H42.4493C42.331 45.7414 42.0197 45.7348 42.0197 45.9868C42.0197 46.0701 42.0526 46.2608 42.3594 46.2608C42.4975 46.2608 42.6203 46.274 42.7123 46.2981C42.8197 46.3222 42.9293 46.3748 42.96 46.7123C42.949 48.72 41.7063 50.2214 39.9419 50.3507L39.7907 50.3616V51.2427H39.9551C41.2285 51.2427 42.8416 50.9907 44.0931 49.0773" fill="#7E8082"/>
<path d="M44.869 56.0515C44.0997 56.0515 43.7425 55.6482 43.7425 54.7847V52.4197H41.2679C41.1518 52.4197 40.8405 52.4153 40.8405 52.6674C40.8405 52.7485 40.8756 52.9414 41.1803 52.9414C41.3184 52.9414 41.4389 52.9545 41.5331 52.9786C41.6471 53.0049 41.7611 53.0619 41.7852 53.4389V54.2674C41.7852 54.5545 41.851 57.0751 44.0997 57.0751H51.4181V56.0537H44.8712L44.869 56.0515Z" fill="#7E8082"/>
<path d="M48.8975 45.6449C48.7792 45.6449 48.4679 45.6405 48.4679 45.8926C48.4679 45.9737 48.5008 46.1666 48.8077 46.1666C48.9479 46.1666 49.0685 46.1797 49.1605 46.2038C49.2658 46.2279 49.3731 46.2762 49.406 46.5852V53.0948H51.3611V45.6449H48.8975Z" fill="#7E8082"/>
<path d="M58.103 50.8088C57.086 50.8088 56.2553 50.0307 56.2553 49.0751C56.2553 48.1194 57.0838 47.3392 58.103 47.3392C59.1222 47.3392 59.9529 48.1173 59.9529 49.0751C59.9529 50.0329 59.1244 50.8088 58.103 50.8088ZM54.3353 49.1562C54.3353 50.651 56.0208 51.8674 58.0964 51.8674C60.1721 51.8674 61.8575 50.651 61.8575 49.1562C61.8575 48.3671 61.3863 47.657 60.6411 47.1616H62.2564V46.1512H59.1857V45.04H56.709C56.5929 45.04 56.2794 45.0356 56.2794 45.2877C56.2794 45.371 56.3123 45.5616 56.6214 45.5616C56.7594 45.5616 56.88 45.5748 56.9742 45.5989C57.0838 45.6252 57.1956 45.68 57.2241 46.0351C57.2241 46.0285 57.2241 46.0855 57.2241 46.1512H53.5923L54.1929 47.1616H55.5583C54.811 47.6592 54.3419 48.3671 54.3419 49.1562" fill="#7E8082"/>
<path d="M58.914 56.0559C57.8992 56.0559 57.7874 55.6504 57.7874 54.7868V52.4263H55.3129C55.1967 52.4263 54.8855 52.4241 54.8855 52.674C54.8855 52.7573 54.9184 52.9479 55.2252 52.9479C55.3633 52.9479 55.486 52.9611 55.5781 52.9852C55.6877 53.0115 55.8038 53.0663 55.8301 53.4323V54.2652C55.8301 56.0997 56.6279 57.0707 58.1447 57.0707H65.474V56.0537H58.914V56.0559Z" fill="#7E8082"/>
<path d="M67.1616 48.6542V47.6351H65.52V45.6449H63.0564C62.9403 45.6449 62.629 45.6405 62.629 45.8926C62.629 45.9737 62.6619 46.1666 62.9688 46.1666C63.1068 46.1666 63.2296 46.1797 63.3195 46.2038C63.4137 46.2236 63.5079 46.2674 63.5518 46.4953V53.097H65.52V48.6542H67.1616Z" fill="#7E8082"/>
<path d="M84.2531 48.9721C84.2531 48.1129 84.8471 47.4159 85.5748 47.4159C86.3025 47.4159 86.8964 48.1129 86.8964 48.9721C86.8964 49.8312 86.3025 50.5282 85.5748 50.5282C84.8471 50.5282 84.2531 49.8312 84.2531 48.9721ZM88.6477 49.0597C88.6477 48.3452 88.2751 47.703 87.6833 47.2493H89.0575V46.2433H86.6247V45.097H84.2948C84.1545 45.097 83.8652 45.097 83.8652 45.3425C83.8652 45.4258 83.8981 45.6164 84.2071 45.6164C84.3474 45.6164 84.3518 45.6296 84.446 45.6559C84.5578 45.6822 84.6783 45.7414 84.6981 46.1249L84.7047 46.2411H81.6647L82.2674 47.2471H83.5364C82.9447 47.7008 82.572 48.343 82.572 49.0575C82.572 50.4252 83.9353 51.5386 85.6099 51.5386C87.2844 51.5386 88.6455 50.4252 88.6455 49.0575" fill="#7E8082"/>
<path d="M88.926 56.3627C87.3874 56.3627 86.1359 55.5649 86.1359 54.5874C86.1359 53.6099 87.3874 52.8099 88.926 52.8099C90.4647 52.8099 91.7162 53.6077 91.7162 54.5874C91.7162 55.5671 90.4647 56.3627 88.926 56.3627ZM88.9304 51.8236C86.2389 51.8236 84.0493 53.0597 84.0493 54.5808C84.0493 56.1019 86.2389 57.3381 88.9304 57.3381C91.6219 57.3381 93.8093 56.0997 93.8093 54.5808C93.8093 53.0619 91.6219 51.8236 88.9304 51.8236Z" fill="#7E8082"/>
<path d="M74.6268 49.6011C73.04 49.6011 71.7468 48.7792 71.7468 47.7688C71.7468 46.7584 73.0378 45.9364 74.6268 45.9364C76.2159 45.9364 77.5068 46.7584 77.5068 47.7688C77.5068 48.7792 76.2159 49.6011 74.6268 49.6011ZM74.6312 44.9151C71.8521 44.9151 69.5945 46.1929 69.5945 47.7622C69.5945 49.3315 71.8542 50.6093 74.6312 50.6093C77.4082 50.6093 79.6658 49.3337 79.6658 47.7622C79.6658 46.1907 77.406 44.9151 74.6312 44.9151Z" fill="#7E8082"/>
<path d="M94 45.4915H92.2641V47.5956H91.5474V45.4915H89.3666C89.2285 45.4915 88.937 45.4871 88.937 45.7348C88.937 45.8181 88.9699 46.011 89.2789 46.011C89.4192 46.011 89.4652 46.0241 89.5573 46.0504C89.6712 46.0767 89.8115 46.1315 89.8115 46.5173V51.4619H91.5474V48.5534H92.2641V51.4619H94V45.4915Z" fill="#7E8082"/>
<path d="M69.8488 52.7222C69.8488 52.7222 69.8707 53.7896 69.8773 54.3551C69.9101 56.2422 70.743 57.1079 72.3036 57.0663H79.6636V56.0493H72.8866C71.8718 56.0493 71.76 55.6416 71.76 54.7803V52.2597H80.4899V51.1989H67.8236L68.4394 52.2597H69.4455C69.4455 52.2597 69.8181 52.2203 69.8466 52.7047V52.7222H69.8488Z" fill="#7E8082"/>
<path d="M44.7353 58.3244V60.0625H44.5973C44.5534 59.7293 44.4723 59.4641 44.3584 59.2647C44.2444 59.0674 44.08 58.9096 43.8674 58.7934C43.6548 58.6773 43.4356 58.6203 43.2077 58.6203C42.9512 58.6203 42.7386 58.6992 42.5699 58.8548C42.4011 59.0126 42.3178 59.1901 42.3178 59.3896C42.3178 59.543 42.3704 59.6833 42.4778 59.8082C42.6312 59.9945 42.9951 60.24 43.5715 60.549C44.0405 60.8011 44.3605 60.994 44.5337 61.1299C44.7047 61.2636 44.8384 61.4236 44.9304 61.6055C45.0225 61.7874 45.0685 61.9803 45.0685 62.1797C45.0685 62.5589 44.9216 62.8877 44.6257 63.1638C44.3299 63.44 43.9507 63.5781 43.486 63.5781C43.3392 63.5781 43.2033 63.5671 43.074 63.5452C42.9973 63.532 42.8394 63.4882 42.5984 63.4093C42.3573 63.3326 42.206 63.2931 42.1403 63.2931C42.0745 63.2931 42.0307 63.3107 41.9934 63.3479C41.9584 63.3852 41.9321 63.4619 41.9145 63.5781H41.7764V61.8553H41.9145C41.9781 62.217 42.0657 62.4866 42.1731 62.6641C42.2827 62.8438 42.4471 62.9929 42.6707 63.1112C42.8942 63.2296 43.1397 63.2888 43.4071 63.2888C43.7162 63.2888 43.9594 63.2077 44.1392 63.0433C44.3189 62.8811 44.4088 62.6882 44.4088 62.4646C44.4088 62.3419 44.3759 62.217 44.3057 62.0899C44.2378 61.9627 44.1326 61.8466 43.9901 61.737C43.8937 61.6625 43.6307 61.5046 43.2011 61.2636C42.7715 61.0225 42.4647 60.8296 42.2849 60.6871C42.103 60.5447 41.9649 60.3847 41.8707 60.2137C41.7764 60.0427 41.7304 59.8499 41.7304 59.6438C41.7304 59.2822 41.8685 58.9731 42.1447 58.7123C42.4208 58.4515 42.7737 58.3222 43.2011 58.3222C43.4685 58.3222 43.7512 58.3879 44.0493 58.5194C44.1874 58.5808 44.286 58.6115 44.343 58.6115C44.4066 58.6115 44.4592 58.5918 44.5008 58.5545C44.5425 58.5173 44.5753 58.4383 44.5994 58.3222H44.7375L44.7353 58.3244Z" fill="#7D7E81"/>
<path d="M46.8942 61.0225H49.0093V59.7183C49.0093 59.486 48.994 59.3326 48.9655 59.2581C48.9436 59.2011 48.8953 59.1529 48.8252 59.1134C48.7288 59.0586 48.6279 59.0323 48.5205 59.0323H48.3584V58.9074H50.3068V59.0323H50.1447C50.0373 59.0323 49.9342 59.0586 49.84 59.109C49.7677 59.1441 49.7195 59.1989 49.6931 59.2712C49.6668 59.3436 49.6537 59.4926 49.6537 59.7162V62.6553C49.6537 62.8855 49.669 63.0389 49.6975 63.1112C49.7194 63.1682 49.7655 63.2164 49.8356 63.2559C49.9342 63.3085 50.0373 63.337 50.1447 63.337H50.3068V63.4619H48.3584V63.337H48.5205C48.7068 63.337 48.8427 63.2822 48.926 63.1726C48.983 63.1003 49.0093 62.9293 49.0093 62.6553V61.2679H46.8942V62.6553C46.8942 62.8855 46.9096 63.0389 46.9381 63.1112C46.96 63.1682 47.0082 63.2164 47.0784 63.2559C47.1748 63.3085 47.2756 63.337 47.383 63.337H47.5474V63.4619H45.5967V63.337H45.7589C45.9474 63.337 46.0833 63.2822 46.1688 63.1726C46.2236 63.1003 46.2499 62.9293 46.2499 62.6553V59.7162C46.2499 59.4838 46.2345 59.3304 46.206 59.2559C46.1841 59.1989 46.1381 59.1507 46.0679 59.1112C45.9693 59.0564 45.8663 59.0301 45.7589 59.0301H45.5967V58.9052H47.5474V59.0301H47.383C47.2756 59.0301 47.1726 59.0564 47.0784 59.1068C47.0082 59.1419 46.96 59.1967 46.9337 59.269C46.9074 59.3414 46.8942 59.4904 46.8942 59.714V61.0225Z" fill="#7D7E81"/>
<path d="M52.5753 63.3414V63.4663H50.6247V63.3414H50.7868C50.9753 63.3414 51.1112 63.2866 51.1967 63.177C51.2515 63.1046 51.2778 62.9337 51.2778 62.6597V59.7183C51.2778 59.4882 51.2625 59.3348 51.234 59.2625C51.2121 59.2055 51.166 59.1573 51.0959 59.1178C50.9973 59.063 50.8942 59.0367 50.7868 59.0367H50.6247V58.9118H52.5753V59.0367H52.411C52.2247 59.0367 52.0888 59.0915 52.0055 59.2011C51.9485 59.2734 51.9222 59.4444 51.9222 59.7183V62.6597C51.9222 62.8899 51.9375 63.0433 51.966 63.1156C51.9879 63.1726 52.0362 63.2208 52.1063 63.2603C52.2027 63.3129 52.3036 63.3414 52.411 63.3414H52.5753Z" fill="#7D7E81"/>
<path d="M52.6586 58.9096H53.8948L56.6784 62.3244V59.6986C56.6784 59.4181 56.6477 59.2449 56.5841 59.1748C56.5008 59.0805 56.3693 59.0345 56.1918 59.0345H56.034V58.9096H57.6186V59.0345H57.4564C57.2636 59.0345 57.1277 59.0937 57.0466 59.2099C56.9962 59.2822 56.972 59.4444 56.972 59.7008V63.5408H56.8515L53.8488 59.874V62.6794C53.8488 62.96 53.8794 63.1331 53.9386 63.2033C54.0241 63.2975 54.1556 63.3436 54.331 63.3436H54.4931V63.4685H52.9085V63.3436H53.0663C53.2614 63.3436 53.3994 63.2844 53.4805 63.1682C53.5288 63.0959 53.5551 62.9337 53.5551 62.6772V59.5101C53.4236 59.3545 53.3227 59.2537 53.2548 59.2055C53.1868 59.1551 53.086 59.1112 52.9545 59.0674C52.8888 59.0477 52.7901 59.0367 52.6586 59.0367V58.9096Z" fill="#7D7E81"/>
<path d="M59.1331 61.0225H61.2482V59.7183C61.2482 59.486 61.2329 59.3326 61.2044 59.2581C61.1825 59.2011 61.1342 59.1529 61.0641 59.1134C60.9677 59.0586 60.8668 59.0323 60.7594 59.0323H60.5973V58.9074H62.5458V59.0323H62.3836C62.2762 59.0323 62.1731 59.0586 62.0789 59.109C62.0066 59.1441 61.9584 59.1989 61.9321 59.2712C61.9058 59.3436 61.8926 59.4926 61.8926 59.7162V62.6553C61.8926 62.8855 61.9079 63.0389 61.9364 63.1112C61.9584 63.1682 62.0044 63.2164 62.0745 63.2559C62.1731 63.3085 62.2762 63.337 62.3836 63.337H62.5458V63.4619H60.5973V63.337H60.7594C60.9458 63.337 61.0816 63.2822 61.1649 63.1726C61.2219 63.1003 61.2482 62.9293 61.2482 62.6553V61.2679H59.1331V62.6553C59.1331 62.8855 59.1485 63.0389 59.177 63.1112C59.1989 63.1682 59.2471 63.2164 59.3173 63.2559C59.4137 63.3085 59.5145 63.337 59.6219 63.337H59.7863V63.4619H57.8356V63.337H57.9978C58.1863 63.337 58.3222 63.2822 58.4077 63.1726C58.4625 63.1003 58.4888 62.9293 58.4888 62.6553V59.7162C58.4888 59.4838 58.4734 59.3304 58.4449 59.2559C58.423 59.1989 58.377 59.1507 58.3068 59.1112C58.2082 59.0564 58.1052 59.0301 57.9978 59.0301H57.8356V58.9052H59.7863V59.0301H59.6219C59.5145 59.0301 59.4115 59.0564 59.3173 59.1068C59.2471 59.1419 59.1989 59.1967 59.1726 59.269C59.1463 59.3414 59.1331 59.4904 59.1331 59.714V61.0225Z" fill="#7D7E81"/>
<path d="M65.8378 61.9408H64.0734L63.7644 62.6597C63.6877 62.8373 63.6504 62.9688 63.6504 63.0564C63.6504 63.1266 63.6833 63.1857 63.749 63.2405C63.8148 63.2931 63.9573 63.3282 64.1764 63.3436V63.4685H62.743V63.3436C62.9337 63.3107 63.0564 63.2668 63.1134 63.212C63.2274 63.1046 63.3545 62.8855 63.4926 62.5567L65.0948 58.8088H65.2132L66.7978 62.5983C66.9249 62.903 67.0411 63.1003 67.1463 63.1923C67.2515 63.2822 67.3962 63.3348 67.5803 63.3457V63.4707H65.783V63.3457C65.9649 63.337 66.0877 63.3063 66.1512 63.2559C66.2148 63.2055 66.2477 63.1419 66.2477 63.0674C66.2477 62.9688 66.2038 62.8131 66.114 62.6005L65.8378 61.9452V61.9408ZM65.7436 61.6931L64.9721 59.852L64.1786 61.6931H65.7436Z" fill="#7D7E81"/>
<path d="M67.5715 58.9096H68.8077L71.5912 62.3244V59.6986C71.5912 59.4181 71.5605 59.2449 71.497 59.1748C71.4137 59.0805 71.2844 59.0345 71.1047 59.0345H70.9468V58.9096H72.5315V59.0345H72.3693C72.1764 59.0345 72.0405 59.0937 71.9594 59.2099C71.9112 59.2822 71.8849 59.4444 71.8849 59.7008V63.5408H71.7644L68.7616 59.874V62.6794C68.7616 62.96 68.7923 63.1331 68.8515 63.2033C68.937 63.2975 69.0685 63.3436 69.2438 63.3436H69.406V63.4685H67.8214V63.3436H67.9792C68.1742 63.3436 68.3123 63.2844 68.3934 63.1682C68.4416 63.0959 68.4679 62.9337 68.4679 62.6772V59.5101C68.3364 59.3545 68.2356 59.2537 68.1677 59.2055C68.0997 59.1551 67.9989 59.1112 67.8674 59.0674C67.8016 59.0477 67.703 59.0367 67.5715 59.0367V58.9096Z" fill="#7D7E81"/>
<path d="M77.531 61.1408C77.8466 61.2088 78.0833 61.3162 78.2389 61.463C78.4559 61.669 78.5655 61.9211 78.5655 62.2192C78.5655 62.4449 78.4932 62.6619 78.3507 62.8701C78.2082 63.0783 78.011 63.2296 77.7611 63.3238C77.5112 63.4181 77.1299 63.4663 76.617 63.4663H74.4668V63.3414H74.6378C74.8285 63.3414 74.9644 63.28 75.0477 63.1594C75.1003 63.0805 75.1244 62.914 75.1244 62.6597V59.7183C75.1244 59.4356 75.0915 59.2581 75.0279 59.1836C74.9403 59.0849 74.811 59.0367 74.6378 59.0367H74.4668V58.9118H76.4351C76.8033 58.9118 77.097 58.9381 77.3184 58.9929C77.6537 59.074 77.9101 59.2164 78.0877 59.4203C78.2652 59.6241 78.3529 59.8608 78.3529 60.1282C78.3529 60.3562 78.2827 60.56 78.1447 60.7419C78.0066 60.9216 77.8005 61.0553 77.531 61.143V61.1408ZM75.771 60.9589C75.8542 60.9742 75.9485 60.9874 76.0537 60.994C76.1611 61.0027 76.2773 61.0049 76.4044 61.0049C76.731 61.0049 76.9764 60.9699 77.1408 60.8997C77.3052 60.8296 77.4323 60.7222 77.5178 60.5753C77.6055 60.4285 77.6493 60.2707 77.6493 60.0975C77.6493 59.8301 77.5419 59.6044 77.3227 59.4159C77.1058 59.2274 76.7879 59.1331 76.3715 59.1331C76.1479 59.1331 75.9463 59.1573 75.7666 59.2077V60.9567L75.771 60.9589ZM75.771 63.1353C76.0296 63.1967 76.286 63.2252 76.5403 63.2252C76.9457 63.2252 77.2548 63.1331 77.4674 62.9512C77.68 62.7693 77.7874 62.5436 77.7874 62.274C77.7874 62.0964 77.7392 61.9277 77.6427 61.7633C77.5463 61.5989 77.3907 61.4718 77.1715 61.3775C76.9545 61.2833 76.6849 61.2373 76.3649 61.2373C76.2268 61.2373 76.1085 61.2373 76.0099 61.2438C75.9112 61.2482 75.8323 61.257 75.771 61.2679V63.1353Z" fill="#7D7E81"/>
<path d="M82.0942 61.9408H80.3321L80.023 62.6597C79.9463 62.8373 79.909 62.9688 79.909 63.0564C79.909 63.1266 79.9419 63.1857 80.0077 63.2405C80.0734 63.2931 80.2159 63.3282 80.4351 63.3436V63.4685H79.0016V63.3436C79.1923 63.3107 79.3151 63.2668 79.3721 63.212C79.486 63.1046 79.6131 62.8855 79.7512 62.5567L81.3534 58.8088H81.4718L83.0564 62.5983C83.1836 62.903 83.2997 63.1003 83.4049 63.1923C83.5101 63.2822 83.6548 63.3348 83.8389 63.3457V63.4707H82.0416V63.3457C82.2236 63.337 82.3463 63.3063 82.4099 63.2559C82.4734 63.2055 82.5063 63.1419 82.5063 63.0674C82.5063 62.9688 82.4625 62.8131 82.3726 62.6005L82.0964 61.9452L82.0942 61.9408ZM82 61.6931L81.2285 59.852L80.4351 61.6931H82Z" fill="#7D7E81"/>
<path d="M83.8279 58.9096H85.0641L87.8477 62.3244V59.6986C87.8477 59.4181 87.817 59.2449 87.7534 59.1748C87.6701 59.0805 87.5386 59.0345 87.3611 59.0345H87.2033V58.9096H88.7879V59.0345H88.6257C88.4329 59.0345 88.297 59.0937 88.2159 59.2099C88.1655 59.2822 88.1414 59.4444 88.1414 59.7008V63.5408H88.0208L85.0181 59.874V62.6794C85.0181 62.96 85.0488 63.1331 85.1079 63.2033C85.1934 63.2975 85.3249 63.3436 85.5003 63.3436H85.6625V63.4685H84.0778V63.3436H84.2356C84.4307 63.3436 84.5688 63.2844 84.6499 63.1682C84.6981 63.0959 84.7244 62.9337 84.7244 62.6772V59.5101C84.5929 59.3545 84.492 59.2537 84.4241 59.2055C84.3562 59.1551 84.2553 59.1112 84.1238 59.0674C84.0581 59.0477 83.9594 59.0367 83.8279 59.0367V58.9096Z" fill="#7D7E81"/>
<path d="M90.9447 60.9392L92.6236 62.6093C92.8997 62.8855 93.1342 63.0718 93.3293 63.1726C93.5244 63.2712 93.7194 63.3282 93.9145 63.3414V63.4663H91.749V63.3414C91.8784 63.3414 91.9726 63.3194 92.0296 63.2756C92.0866 63.2318 92.1151 63.1836 92.1151 63.1288C92.1151 63.074 92.1041 63.0279 92.0822 62.9841C92.0603 62.9425 91.9901 62.8614 91.8718 62.7452L90.3003 61.189V62.6575C90.3003 62.8877 90.3156 63.0411 90.3441 63.1134C90.366 63.1704 90.4142 63.2186 90.4844 63.2581C90.5808 63.3107 90.6816 63.3392 90.789 63.3392H90.9425V63.4641H89.0005V63.3392H89.1627C89.3512 63.3392 89.4871 63.2844 89.5726 63.1748C89.6274 63.1025 89.6537 62.9315 89.6537 62.6575V59.7162C89.6537 59.486 89.6384 59.3326 89.6099 59.2559C89.5879 59.2033 89.5419 59.1551 89.4718 59.1156C89.3731 59.0608 89.2701 59.0345 89.1627 59.0345H89.0005V58.9096H90.9425V59.0345H90.789C90.6838 59.0345 90.5808 59.0608 90.4844 59.1112C90.4142 59.1463 90.366 59.2011 90.3397 59.2734C90.3134 59.3457 90.3003 59.4926 90.3003 59.7162V61.1101C90.3441 61.0685 90.4975 60.926 90.7605 60.6827C91.4247 60.0734 91.8279 59.6679 91.966 59.4641C92.0274 59.3742 92.0559 59.2953 92.0559 59.2296C92.0559 59.1792 92.0318 59.1331 91.9857 59.0937C91.9397 59.0542 91.8586 59.0345 91.7468 59.0345H91.6416V58.9096H93.314V59.0345C93.2153 59.0345 93.1255 59.0499 93.0444 59.074C92.9633 59.0981 92.8647 59.1463 92.7485 59.2164C92.6323 59.2866 92.4899 59.4005 92.3189 59.5562C92.2707 59.6 92.0427 59.8301 91.6373 60.2444L90.9425 60.937L90.9447 60.9392Z" fill="#7D7E81"/>
<defs>
<radialGradient id="paint0_radial_801_6857" cx="0" cy="0" r="1" gradientUnits="userSpaceOnUse" gradientTransform="translate(61.5793 50.4726) scale(37.8739 11.0464)">
<stop stop-color="white"/>
<stop offset="1" stop-color="#CF9C51"/>
</radialGradient>
<radialGradient id="paint1_radial_801_6857" cx="0" cy="0" r="1" gradientUnits="userSpaceOnUse" gradientTransform="translate(60.5939 50.9033) scale(83.5495 24.366)">
<stop stop-color="#00C0F3"/>
<stop offset="0.22" stop-color="#0097D6"/>
<stop offset="0.57" stop-color="#0066B3"/>
<stop offset="1" stop-color="#0066B3"/>
</radialGradient>
</defs>
</svg>
