<svg width="108" height="108" viewBox="0 0 108 108" fill="none" xmlns="http://www.w3.org/2000/svg">
<path fill-rule="evenodd" clip-rule="evenodd" d="M14 42.1724C14 41.2113 14.7791 40.4323 15.7404 40.4323H31.3694C32.3304 40.4323 33.1095 41.2113 33.1095 42.1724V57.8015C33.1095 58.7626 32.3304 59.5418 31.3694 59.5418H15.7404C14.7791 59.5418 14 58.7626 14 57.8015V42.1724Z" fill="#E30016"/>
<path fill-rule="evenodd" clip-rule="evenodd" d="M18.0028 49.8108C18.1082 46.1576 21.1029 43.2284 24.7818 43.2284C28.4609 43.2284 31.4554 46.1576 31.5611 49.8108H31.2254C31.1965 46.949 28.8677 44.6379 25.999 44.6379C23.1302 44.6379 20.8014 46.949 20.7725 49.8108H18.0028ZM14.8539 49.8108C14.9479 45.086 18.8074 41.2846 23.5549 41.2846C28.3023 41.2846 32.1618 45.086 32.2557 49.8108H31.8999C31.7868 45.9714 28.6389 42.8935 24.772 42.8935C20.905 42.8935 17.757 45.9714 17.6441 49.8108H14.8539ZM21.1253 49.8108C21.1463 47.135 23.3221 44.9723 26.0031 44.9723C28.684 44.9723 30.8597 47.135 30.8806 49.8108H30.5204C30.5217 49.7708 30.5227 49.7306 30.5227 49.69C30.5227 47.7647 28.9618 46.204 27.0365 46.204C25.1112 46.204 23.5504 47.7647 23.5504 49.69C23.5504 49.7306 23.5512 49.7708 23.5526 49.8108H21.1253ZM25.9843 50.1631C25.9632 52.839 23.7876 55.0019 21.1066 55.0019C18.4257 55.0019 16.25 52.839 16.229 50.1631H16.5891C16.5878 50.2032 16.5872 50.2435 16.5872 50.284C16.5872 52.2093 18.1479 53.7702 20.0732 53.7702C21.9984 53.7702 23.5592 52.2093 23.5592 50.284C23.5592 50.2435 23.5584 50.2032 23.5572 50.1631H25.9843ZM32.2557 50.1631C32.1617 54.8882 28.3023 58.6894 23.5549 58.6894C18.8074 58.6894 14.9479 54.8882 14.8539 50.1631H15.2098C15.3227 54.0027 18.4708 57.0805 22.3377 57.0805C26.2047 57.0805 29.3527 54.0027 29.4656 50.1631H32.2557ZM29.107 50.1631C29.0013 53.8165 26.0067 56.7457 22.3279 56.7457C18.6489 56.7457 15.6543 53.8165 15.5486 50.1631H15.8843C15.9129 53.025 18.2421 55.3362 21.1108 55.3362C23.9796 55.3362 26.3083 53.025 26.3373 50.1631H29.107Z" fill="white"/>
<path fill-rule="evenodd" clip-rule="evenodd" d="M35.9762 45.6918V40.4323H36.9943V42.3265C37.3083 41.9726 37.6803 41.7957 38.1103 41.7955C38.5791 41.7955 38.9666 41.9641 39.2736 42.3013C39.5805 42.6362 39.7336 43.1183 39.7338 43.7472C39.7338 44.3978 39.5768 44.8988 39.2629 45.2505C38.9511 45.6021 38.5717 45.7778 38.1248 45.7778C37.905 45.7778 37.6875 45.724 37.4726 45.6163C37.2599 45.5064 37.0764 45.3449 36.9218 45.132V45.6918H35.9762ZM48.0639 45.6918V40.4323H49.082V43.2234L50.2742 41.8816H51.528L50.2127 43.2737L51.6221 45.6918H50.5242L49.5568 43.9804L49.082 44.4719V45.6918H48.0639ZM47.4384 45.6918H46.4201V43.7472C46.4201 43.3359 46.3984 43.0704 46.355 42.9508C46.3115 42.8288 46.24 42.7344 46.1411 42.6673C46.0444 42.6004 45.9273 42.5669 45.7896 42.5669C45.6131 42.5669 45.455 42.6147 45.3149 42.7105C45.1747 42.806 45.0781 42.9328 45.0251 43.0906C44.9743 43.2485 44.9489 43.5403 44.9489 43.9661V45.6918H43.9307V41.8816H44.8765V42.4414C45.2122 42.0109 45.6349 41.7955 46.1447 41.7955C46.3694 41.7955 46.5746 41.8362 46.7608 41.9174C46.9466 41.9965 47.0866 42.0982 47.181 42.2225C47.2776 42.3469 47.3441 42.4879 47.3803 42.6458C47.4189 42.8037 47.4382 43.0297 47.4384 43.3239V45.6918ZM42.3051 43.862C42.1746 43.905 41.968 43.9565 41.6855 44.0163C41.4029 44.0762 41.218 44.1347 41.1312 44.1921C40.9982 44.2854 40.9318 44.4037 40.9318 44.5472C40.9318 44.6885 40.9849 44.8104 41.0911 44.9133C41.1975 45.0162 41.3327 45.0675 41.497 45.0675C41.6805 45.0675 41.8556 45.0078 42.0225 44.8881C42.1456 44.7973 42.2264 44.6862 42.2652 44.5545C42.2917 44.4684 42.305 44.3045 42.3051 44.0628V43.862ZM40.9425 43.0441L40.0185 42.8789C40.1224 42.5107 40.3011 42.2381 40.5549 42.061C40.8086 41.8841 41.1854 41.7957 41.6855 41.7955C42.1395 41.7955 42.4778 41.8493 42.7002 41.957C42.9224 42.0623 43.078 42.1973 43.1676 42.3623C43.2592 42.5251 43.3051 42.8252 43.3053 43.2628L43.2942 44.4396C43.2942 44.7745 43.3099 45.022 43.3416 45.1822C43.3753 45.34 43.4368 45.5099 43.5262 45.6918H42.519C42.4923 45.6247 42.4596 45.5255 42.4212 45.3938C42.404 45.3341 42.392 45.2947 42.3848 45.2755C42.2109 45.4432 42.0248 45.5686 41.8269 45.6522C41.6286 45.7359 41.4174 45.7777 41.1927 45.7778C40.7964 45.7778 40.4835 45.6714 40.2541 45.4586C40.0269 45.2457 39.9136 44.9766 39.9136 44.6513C39.9136 44.436 39.9654 44.2448 40.0694 44.0773C40.1733 43.9075 40.3181 43.7784 40.504 43.6897C40.6925 43.599 40.9631 43.5201 41.3157 43.4531C41.7916 43.3645 42.1214 43.2821 42.3051 43.2055V43.105C42.3051 42.9112 42.2567 42.7739 42.1601 42.6925C42.0635 42.6088 41.8812 42.5669 41.613 42.5669C41.4319 42.5669 41.2904 42.6028 41.189 42.6745C41.0875 42.7439 41.0054 42.8671 40.9425 43.0441ZM36.987 43.7042C36.987 44.0988 37.0498 44.3906 37.1754 44.5795C37.3518 44.8474 37.5861 44.9815 37.8785 44.9815C38.103 44.9815 38.294 44.887 38.451 44.698C38.6105 44.5068 38.6902 44.2066 38.6902 43.7974C38.6902 43.3622 38.6105 43.0488 38.451 42.8575C38.2915 42.6637 38.0874 42.5669 37.8386 42.5669C37.5945 42.5669 37.3918 42.6614 37.2298 42.8503C37.0678 43.0368 36.987 43.3215 36.987 43.7042Z" fill="#3B3B3B"/>
<path fill-rule="evenodd" clip-rule="evenodd" d="M63.6441 62.3582C62.9878 62.8613 63.3667 63.8856 63.6101 64.0588C63.9791 64.348 65.8468 64.3656 66.0691 64.348C66.5808 64.348 66.2657 64.9941 66.0919 65.0978C64.3282 66.1505 56.8411 65.0622 58.2736 62.9874C56.3444 64.892 64.5272 67.5474 66.8872 65.7422C67.3318 65.4022 67.6525 64.0588 67.1008 63.6354C66.8005 63.438 65.378 63.6555 64.7885 63.454C64.3243 63.2953 64.5911 62.8836 64.6978 62.8005C65.7275 61.999 67.5905 63.0641 67.5905 63.0641C67.5905 63.0641 67.6074 62.5125 67.5861 62.3416C67.5062 61.697 64.8262 61.4962 63.6441 62.3582Z" fill="#009035"/>
<path fill-rule="evenodd" clip-rule="evenodd" d="M70.241 62.8004C70.2314 63.0317 70.241 64.5859 70.241 64.5859C70.241 64.5859 69.622 65.4022 69.0098 64.5859V62.1032C68.9936 62.1032 67.9622 62.5827 67.9622 62.8004V64.9601C68.5405 66.1164 70.241 65.7422 70.241 65.7422C70.241 65.7422 70.2524 66.8046 67.9622 67.0992C67.9622 67.122 71.2277 67.4655 71.2277 65.7422C71.1934 65.4475 71.2616 62.4257 71.2616 62.1032C71.2082 62.1032 70.2508 62.5692 70.241 62.8004Z" fill="#009035"/>
<path fill-rule="evenodd" clip-rule="evenodd" d="M72.8034 64.5859C72.9044 63.997 73.1546 63.2936 74.198 63.2936V64.5859C72.531 65.4023 72.8034 64.5859 72.8034 64.5859ZM75.0144 64.5859V62.1033C71.6015 62.1033 71.6358 65.4023 71.6358 65.4023C71.6358 65.4023 72.531 66.2184 74.1638 65.4023C75.2863 65.9804 75.7966 65.4023 75.7966 65.4023C75.7966 65.4023 75.0144 65.0622 75.0144 64.5859Z" fill="#009035"/>
<path fill-rule="evenodd" clip-rule="evenodd" d="M75.8021 62.3582C75.8021 62.3582 75.8137 63.7697 75.8137 64.5859C75.8137 63.7874 75.6602 65.6054 76.7248 65.7422C76.7248 64.926 76.7205 62.9874 76.7205 62.9874C76.2103 62.8061 75.8021 62.3582 75.8021 62.3582Z" fill="#009035"/>
<path fill-rule="evenodd" clip-rule="evenodd" d="M80.343 62.5623C80.4744 62.1543 79.5994 62.1033 79.5913 62.1033C79.3358 62.1033 78.894 63.1575 78.894 63.1575C78.8681 63.1575 79.3111 62.9874 79.547 62.9874C79.547 62.9874 79.4451 64.382 79.4451 64.5859C79.4451 64.8204 79.5016 65.2283 79.7419 65.4023C80.1422 65.6911 80.343 65.7422 80.343 65.7422V62.5623ZM80.0593 60.7094L79.4421 61.3268L80.0593 61.944L80.6769 61.3268L80.0593 60.7094Z" fill="#009035"/>
<path fill-rule="evenodd" clip-rule="evenodd" d="M88.6499 65.1302C88.3438 64.5859 89.3004 62.9213 88.7382 62.3582C88.6384 62.2587 88.2293 62.1033 88.0884 62.1033C88.0884 62.1033 86.6105 62.0957 86.379 62.3582L86.372 59.5418C85.7572 59.5418 85.3541 60.4707 85.3541 60.4707V64.3479C85.3541 64.3479 85.2635 65.7423 86.3744 65.7423C86.3945 65.7423 86.3971 63.5961 86.3958 63.4466C86.668 63.0215 87.6862 63.0325 87.9129 63.1837C88.1682 63.3537 87.5729 65.2661 87.9469 65.7423C89.4432 67.3068 94.8223 63.6166 93.7337 62.9874C94.6181 64.0589 89.3301 66.2865 88.6499 65.1302Z" fill="#009035"/>
<path fill-rule="evenodd" clip-rule="evenodd" d="M66.9896 66.4903L66.451 67.029L66.9896 67.5677L67.5286 67.029L66.9896 66.4903Z" fill="#009035"/>
<path fill-rule="evenodd" clip-rule="evenodd" d="M65.6189 66.4903L65.0801 67.029L65.6189 67.5677L66.1578 67.029L65.6189 66.4903Z" fill="#009035"/>
<path fill-rule="evenodd" clip-rule="evenodd" d="M82.225 64.5859C82.326 63.997 82.5759 63.2936 83.6196 63.2936V64.5859C81.9526 65.4023 82.225 64.5859 82.225 64.5859ZM84.4356 64.5859V62.1033C81.0231 62.1033 81.057 65.4023 81.057 65.4023C81.057 65.4023 81.9526 66.2184 83.5853 65.4023C84.7078 65.9804 85.2181 65.4023 85.2181 65.4023C85.2181 65.4023 84.4356 65.0622 84.4356 64.5859Z" fill="#009035"/>
<path fill-rule="evenodd" clip-rule="evenodd" d="M78.339 62.308C78.2634 62.3504 78.0382 62.2715 78.0382 62.1015C78.0382 61.9314 78.1882 61.7162 78.3001 61.6788C78.3587 61.6592 78.6405 61.6739 78.6405 61.9168C78.6405 62.1209 78.4947 62.2205 78.339 62.308ZM78.1297 61.1022C77.8236 61.1022 77.231 61.8681 78.0041 62.3582C77.707 62.5143 76.8495 62.8005 75.863 62.1204C75.8021 62.1033 76.1935 62.5427 76.4429 62.6986C77.314 63.243 79.0333 63.327 79.1356 61.9155C79.1798 61.3039 78.4358 61.1022 78.1297 61.1022Z" fill="#009035"/>
<path fill-rule="evenodd" clip-rule="evenodd" d="M35.7008 55.4599L37.723 55.1517C37.8091 55.5436 37.9835 55.8424 38.2464 56.0478C38.5092 56.2487 38.8773 56.349 39.3508 56.349C39.8718 56.349 40.2636 56.2536 40.5268 56.0622C40.7036 55.9285 40.7919 55.7491 40.7921 55.5244C40.7921 55.3716 40.7442 55.2451 40.6486 55.1444C40.5483 55.0489 40.3234 54.9606 39.9746 54.8793C38.3491 54.5208 37.3189 54.1935 36.8841 53.8971C36.2819 53.486 35.9806 52.9149 35.9806 52.1834C35.9806 51.5239 36.241 50.9695 36.7622 50.5201C37.2832 50.071 38.0911 49.8464 39.1858 49.8461C40.2279 49.8461 41.0022 50.016 41.5092 50.3551C42.0158 50.6945 42.3647 51.1964 42.5561 51.8608L40.6559 52.212C40.5745 51.9159 40.4192 51.689 40.1897 51.5309C39.9648 51.3732 39.6423 51.2944 39.2218 51.2944C38.6912 51.2944 38.3111 51.3685 38.0816 51.5166C37.9284 51.6219 37.8521 51.7583 37.8521 51.9253C37.8521 52.0686 37.9189 52.1906 38.0529 52.291C38.2345 52.425 38.8607 52.6137 39.9316 52.8574C41.0072 53.1011 41.7577 53.4 42.1833 53.7535C42.6038 54.1119 42.814 54.6116 42.8141 55.2521C42.8141 55.9499 42.5225 56.5498 41.9394 57.0516C41.3561 57.5535 40.4932 57.8045 39.3508 57.8045C38.3133 57.8045 37.4911 57.5943 36.8841 57.1734C36.2819 56.7529 35.8873 56.1818 35.7008 55.4599ZM43.8438 47.1217H45.8589V48.9859H43.8438V47.1217ZM43.8438 50.0182H45.8589V57.6323H43.8438V50.0182ZM54.1166 57.6323H52.1015V53.7465C52.1015 52.9244 52.0586 52.3937 51.9726 52.1547C51.8865 51.911 51.7454 51.7224 51.5495 51.5883C51.3581 51.4546 51.1264 51.3878 50.854 51.3876C50.5048 51.3876 50.1918 51.4832 49.9146 51.6745C49.6373 51.8657 49.446 52.1189 49.3409 52.4344C49.2405 52.7499 49.1904 53.333 49.1904 54.1838V57.6323H47.1753V50.0182H49.0469V51.1365C49.7113 50.2763 50.5479 49.8461 51.5567 49.8461C52.0012 49.8461 52.4076 49.9274 52.7758 50.0898C53.1438 50.2477 53.4208 50.4508 53.6076 50.6993C53.7987 50.948 53.93 51.2299 54.0019 51.5453C54.0782 51.8608 54.1163 52.3124 54.1166 52.9003V57.6323ZM56.9319 52.3411L55.1033 52.0114C55.3087 51.2753 55.6624 50.7304 56.1645 50.3767C56.6666 50.0232 57.4123 49.8464 58.4018 49.8461C59.3004 49.8461 59.9698 49.9538 60.4096 50.1689C60.8493 50.3791 61.1576 50.649 61.3347 50.979C61.516 51.3039 61.6069 51.9038 61.6071 52.7786L61.5855 55.1301C61.5855 55.7993 61.6165 56.294 61.6788 56.6143C61.7455 56.9297 61.8674 57.2692 62.0445 57.6323H60.0511C59.9985 57.4985 59.9338 57.3003 59.8575 57.0374C59.8238 56.9178 59.8 56.839 59.7858 56.8006C59.4415 57.1354 59.0734 57.3864 58.6815 57.5535C58.2894 57.7205 57.8712 57.8041 57.4266 57.8045C56.6426 57.8045 56.0233 57.5918 55.5695 57.1662C55.1197 56.741 54.8953 56.2034 54.8953 55.553C54.8953 55.123 54.998 54.7407 55.2037 54.4059C55.4091 54.0668 55.696 53.8087 56.0642 53.6317C56.437 53.4502 56.9723 53.2925 57.6703 53.1585C58.6119 52.9817 59.2645 52.8169 59.6279 52.6639V52.463C59.6279 52.0759 59.5323 51.8012 59.3412 51.6386C59.1498 51.4714 58.789 51.3878 58.2584 51.3876C57.8999 51.3876 57.6204 51.4593 57.4194 51.6027C57.2185 51.7413 57.0559 51.9877 56.9319 52.3411ZM59.6279 53.9759C59.3699 54.0617 58.9612 54.1646 58.4018 54.2841C57.8425 54.4038 57.4768 54.5208 57.3046 54.6354C57.0417 54.8218 56.9103 55.0583 56.9103 55.3452C56.9103 55.6273 57.0156 55.8711 57.2258 56.0765C57.436 56.2821 57.7038 56.3848 58.0288 56.3848C58.392 56.3848 58.7385 56.2654 59.0687 56.0264C59.3124 55.8449 59.4724 55.6226 59.5491 55.3595C59.6016 55.1874 59.6278 54.8602 59.6279 54.3773V53.9759ZM64.5676 57.6323H62.5525V50.0182H64.4239V51.1009C64.7442 50.5896 65.0312 50.2526 65.2845 50.0898C65.5426 49.9274 65.8342 49.8464 66.1593 49.8461C66.6182 49.8461 67.0603 49.973 67.4859 50.2261L66.8621 51.9827C66.5224 51.7629 66.2069 51.6531 65.9156 51.6529C65.6333 51.6529 65.3944 51.7315 65.1984 51.8894C65.0023 52.0425 64.847 52.3221 64.7325 52.7283C64.6223 53.1347 64.5676 53.9856 64.5676 55.2808V57.6323ZM67.6892 50.0182H69.5466V51.0577C70.2108 50.2502 71.0018 49.8464 71.9202 49.8461C72.4074 49.8461 72.8307 49.9465 73.1892 50.1473C73.5477 50.3481 73.8419 50.6515 74.071 51.0577C74.4057 50.6515 74.7665 50.3483 75.1539 50.1473C75.541 49.9465 75.9545 49.8461 76.3946 49.8461C76.9539 49.8461 77.4272 49.9607 77.8143 50.1902C78.2014 50.4149 78.4904 50.7473 78.682 51.1868C78.8202 51.5118 78.8897 52.0377 78.89 52.7641V57.6323H76.8748V53.2803C76.8748 52.5253 76.8054 52.0377 76.6668 51.8178C76.4805 51.5309 76.1935 51.3876 75.8064 51.3876C75.5243 51.3876 75.2593 51.4737 75.0104 51.6456C74.7616 51.8178 74.5825 52.0711 74.4726 52.4057C74.3626 52.7355 74.308 53.2587 74.308 53.9759V57.6323H72.2927V53.4597C72.2927 52.7189 72.2573 52.241 72.1852 52.0257C72.1137 51.8106 72.0012 51.6506 71.8484 51.5453C71.6999 51.4402 71.4969 51.3878 71.2388 51.3876C70.928 51.3876 70.6483 51.4714 70.3998 51.6386C70.151 51.8058 69.9717 52.0472 69.8619 52.3626C69.7565 52.6781 69.7042 53.2015 69.7042 53.9329V57.6323H67.6892V50.0182ZM81.6689 52.3411L79.8407 52.0114C80.0461 51.2753 80.3996 50.7304 80.902 50.3767C81.404 50.0232 82.1494 49.8464 83.139 49.8461C84.0376 49.8461 84.7071 49.9538 85.147 50.1689C85.5867 50.3791 85.8948 50.649 86.0719 50.979C86.2537 51.3039 86.3445 51.9038 86.3445 52.7786L86.3231 55.1301C86.3231 55.7993 86.354 56.294 86.4163 56.6143C86.4831 56.9297 86.6052 57.2692 86.7819 57.6323H84.7885C84.7358 57.4985 84.6713 57.3003 84.595 57.0374C84.5609 56.9178 84.5374 56.839 84.5231 56.8006C84.1792 57.1354 83.8109 57.3864 83.4188 57.5535C83.0267 57.7205 82.6084 57.8041 82.1639 57.8045C81.3799 57.8045 80.7607 57.5918 80.3068 57.1662C79.8572 56.741 79.6326 56.2034 79.6326 55.553C79.6326 55.123 79.7355 54.7407 79.9411 54.4059C80.1465 54.0668 80.4332 53.8087 80.8016 53.6317C81.1745 53.4502 81.7097 53.2925 82.4079 53.1585C83.3494 52.9817 84.0021 52.8169 84.3655 52.6639V52.463C84.3655 52.0759 84.2697 51.8012 84.0784 51.6386C83.8872 51.4714 83.5264 51.3878 82.9958 51.3876C82.6374 51.3876 82.3575 51.4593 82.1568 51.6027C81.9559 51.7413 81.7934 51.9877 81.6689 52.3411ZM84.3655 53.9759C84.1074 54.0617 83.6986 54.1646 83.139 54.2841C82.5801 54.4038 82.2141 54.5208 82.0421 54.6354C81.7789 54.8218 81.6478 55.0583 81.6478 55.3452C81.6478 55.6273 81.7529 55.8711 81.9632 56.0765C82.1732 56.2821 82.4411 56.3848 82.7663 56.3848C83.1298 56.3848 83.4761 56.2654 83.8059 56.0264C84.0498 55.8449 84.2098 55.6226 84.2865 55.3595C84.3391 55.1874 84.3651 54.8602 84.3655 54.3773V53.9759ZM86.8865 55.4599L88.9088 55.1517C88.9949 55.5436 89.1691 55.8424 89.4321 56.0478C89.6948 56.2487 90.0628 56.349 90.5365 56.349C91.0576 56.349 91.4493 56.2536 91.7126 56.0622C91.889 55.9285 91.9775 55.7491 91.9778 55.5244C91.9778 55.3716 91.9299 55.2451 91.8344 55.1444C91.734 55.0489 91.5091 54.9606 91.1603 54.8793C89.5348 54.5208 88.5045 54.1935 88.0696 53.8971C87.4676 53.486 87.1661 52.9149 87.1661 52.1834C87.1661 51.5239 87.4268 50.9695 87.9479 50.5201C88.4689 50.071 89.2768 49.8464 90.3716 49.8461C91.4137 49.8461 92.1879 50.016 92.6948 50.3551C93.2018 50.6945 93.5503 51.1964 93.7416 51.8608L91.8417 52.212C91.7599 51.9159 91.605 51.689 91.3756 51.5309C91.1508 51.3732 90.8278 51.2944 90.4075 51.2944C89.8768 51.2944 89.4965 51.3685 89.2671 51.5166C89.1141 51.6219 89.0377 51.7583 89.0377 51.9253C89.0377 52.0686 89.1045 52.1906 89.2386 52.291C89.4202 52.425 90.0463 52.6137 91.1175 52.8574C92.1928 53.1011 92.9433 53.4 93.3689 53.7535C93.7896 54.1119 93.9997 54.6116 94 55.2521C94 55.9499 93.7081 56.5498 93.1251 57.0516C92.5418 57.5535 91.679 57.8045 90.5365 57.8045C89.4994 57.8045 88.6769 57.5943 88.0696 57.1734C87.4676 56.7529 87.073 56.1818 86.8865 55.4599Z" fill="#7DD1F1"/>
<path fill-rule="evenodd" clip-rule="evenodd" d="M35.696 55.4575L37.7178 55.1492C37.8039 55.5414 37.9781 55.8398 38.2411 56.0454C38.5039 56.246 38.8717 56.3464 39.3452 56.3464C39.866 56.3464 40.2579 56.2509 40.5208 56.0596C40.6976 55.9259 40.7858 55.7467 40.7861 55.522C40.7861 55.3693 40.7382 55.2427 40.6428 55.142C40.5424 55.0466 40.3175 54.9583 39.9688 54.8768C38.3437 54.5185 37.3139 54.1912 36.8789 53.8947C36.2768 53.484 35.9756 52.9128 35.9756 52.1816C35.9756 51.522 36.236 50.9678 36.7571 50.5185C37.2781 50.0693 38.0857 49.8448 39.1803 49.8446C40.222 49.8446 40.9963 50.0145 41.503 50.3535C42.0096 50.6929 42.3584 51.1947 42.5498 51.859L40.6499 52.2102C40.5686 51.9141 40.4134 51.6871 40.184 51.5291C39.9592 51.3714 39.6367 51.2926 39.2162 51.2926C38.6856 51.2926 38.3057 51.3668 38.0763 51.5149C37.9232 51.6202 37.8466 51.7564 37.8466 51.9234C37.8466 52.0669 37.9137 52.1886 38.0475 52.289C38.229 52.4229 38.8552 52.6116 39.9259 52.8554C41.0013 53.0992 41.7514 53.3978 42.1769 53.7514C42.5974 54.1098 42.8076 54.6093 42.8077 55.2496C42.8077 55.9474 42.5164 56.5473 41.9331 57.0489C41.35 57.5506 40.4873 57.8016 39.3452 57.8016C38.3078 57.8016 37.4859 57.5915 36.8789 57.1708C36.2768 56.7503 35.8825 56.1793 35.696 55.4575ZM43.8373 47.1206H45.8518V48.9844H43.8373V47.1206ZM43.8373 50.0166H45.8518V57.6295H43.8373V50.0166ZM54.1077 57.6295H52.0932V53.7443C52.0932 52.9223 52.0503 52.3919 51.9642 52.1529C51.8781 51.9092 51.737 51.7205 51.5412 51.5866C51.3499 51.4528 51.1182 51.3861 50.8458 51.3857C50.4967 51.3857 50.1837 51.4814 49.9067 51.6727C49.6291 51.8639 49.4381 52.117 49.3331 52.4324C49.2327 52.7479 49.1825 53.3309 49.1825 54.1817V57.6295H47.168V50.0166H49.0391V51.1349C49.7034 50.2749 50.5399 49.8446 51.5483 49.8446C51.9928 49.8446 52.399 49.9259 52.7671 50.0884C53.1351 50.246 53.412 50.4493 53.5987 50.6976C53.7899 50.9463 53.9211 51.2281 53.993 51.5435C54.0694 51.859 54.1073 52.3106 54.1077 52.8983V57.6295ZM56.9223 52.3392L55.0942 52.0096C55.2995 51.2736 55.6532 50.7287 56.1552 50.375C56.657 50.0215 57.4025 49.8448 58.3919 49.8446C59.2904 49.8446 59.9595 49.9521 60.3993 50.1672C60.839 50.3775 61.1473 50.6475 61.3242 50.9773C61.5055 51.3021 61.5963 51.9019 61.5965 52.7764L61.575 55.1278C61.575 55.7968 61.606 56.2915 61.6683 56.6116C61.7349 56.9271 61.8568 57.2664 62.0338 57.6295H60.0409C59.9882 57.4958 59.9237 57.2976 59.8473 57.0348C59.8136 56.9152 59.7899 56.8364 59.7755 56.7981C59.4314 57.1327 59.0634 57.3836 58.6715 57.5506C58.2795 57.7177 57.8614 57.8014 57.4169 57.8016C56.633 57.8016 56.0142 57.589 55.5602 57.1636C55.1107 56.7384 54.8863 56.2007 54.8863 55.5506C54.8863 55.1206 54.9889 54.7384 55.1944 54.4036C55.3999 54.0646 55.6867 53.8065 56.0548 53.6296C56.4276 53.448 56.9628 53.2904 57.6606 53.1564C58.6021 52.9796 59.2544 52.8147 59.6177 52.6618V52.461C59.6177 52.0738 59.5222 51.7994 59.3312 51.6366C59.1398 51.4695 58.779 51.3861 58.2486 51.3857C57.89 51.3857 57.6106 51.4575 57.4099 51.6009C57.209 51.7394 57.0464 51.9857 56.9223 52.3392ZM59.6177 53.9737C59.3598 54.0597 58.9512 54.1625 58.3919 54.2819C57.8328 54.4015 57.4671 54.5185 57.2951 54.6332C57.032 54.8195 56.9008 55.056 56.9008 55.3427C56.9008 55.6248 57.0059 55.8686 57.2163 56.074C57.4264 56.2795 57.6941 56.3823 58.0191 56.3823C58.3823 56.3823 58.7286 56.2628 59.0586 56.0238C59.3024 55.8425 59.4624 55.6201 59.5391 55.357C59.5914 55.185 59.6175 54.8579 59.6177 54.375V53.9737ZM64.5562 57.6295H62.5415V50.0166H64.4128V51.099C64.733 50.5879 65.0198 50.251 65.2731 50.0884C65.5314 49.9259 65.8226 49.8448 66.1477 49.8446C66.6066 49.8446 67.0486 49.9713 67.4741 50.2245L66.8504 51.9808C66.5108 51.7611 66.1954 51.6513 65.904 51.6511C65.622 51.6511 65.3828 51.7298 65.187 51.8876C64.9911 52.0406 64.8358 52.3201 64.7211 52.7263C64.6111 53.1327 64.5562 53.9833 64.5562 55.2782V57.6295ZM67.6773 50.0166H69.5341V51.0561C70.1983 50.2485 70.9893 49.8448 71.9071 49.8446C72.3945 49.8446 72.8175 49.945 73.176 50.1456C73.5345 50.3465 73.8284 50.6499 74.0578 51.0561C74.3922 50.6499 74.753 50.3466 75.1405 50.1456C75.5275 49.945 75.9406 49.8446 76.3804 49.8446C76.94 49.8446 77.4131 49.9591 77.8002 50.1886C78.1872 50.4133 78.4763 50.7458 78.6676 51.185C78.8061 51.51 78.8753 52.0359 78.8756 52.7622V57.6295H76.8611V53.2784C76.8611 52.5234 76.7913 52.0359 76.653 51.8158C76.4667 51.5291 76.1796 51.3857 75.7926 51.3857C75.5108 51.3857 75.2455 51.4719 74.9969 51.6438C74.7484 51.8158 74.5691 52.0694 74.4594 52.4037C74.3494 52.7334 74.2946 53.2568 74.2946 53.9737V57.6295H72.28V53.4576C72.28 52.7169 72.2441 52.239 72.1724 52.0239C72.1006 51.8088 71.988 51.6488 71.8353 51.5435C71.6872 51.4385 71.484 51.3861 71.2259 51.3857C70.9153 51.3857 70.6357 51.4695 70.3872 51.6366C70.1385 51.804 69.9594 52.0453 69.8495 52.3608C69.7443 52.6761 69.6919 53.1996 69.6919 53.9306V57.6295H67.6773V50.0166ZM81.6541 52.3392L79.8262 52.0096C80.0316 51.2736 80.3852 50.7287 80.8872 50.375C81.3891 50.0215 82.1344 49.8448 83.1238 49.8446C84.0225 49.8446 84.6914 49.9521 85.1311 50.1672C85.571 50.3775 85.879 50.6475 86.0561 50.9773C86.2374 51.3021 86.3284 51.9019 86.3286 52.7764L86.3069 55.1278C86.3069 55.7968 86.3379 56.2915 86.4002 56.6116C86.4669 56.9271 86.5887 57.2664 86.7658 57.6295H84.7727C84.7201 57.4958 84.6555 57.2976 84.5791 57.0348C84.5455 56.9152 84.5219 56.8364 84.5077 56.7981C84.1634 57.1327 83.7953 57.3836 83.4037 57.5506C83.0113 57.7177 82.5932 57.8014 82.1489 57.8016C81.3648 57.8016 80.7459 57.589 80.292 57.1636C79.8427 56.7384 79.6182 56.2007 79.6182 55.5506C79.6182 55.1206 79.7209 54.7384 79.9264 54.4036C80.1317 54.0646 80.4187 53.8065 80.7867 53.6296C81.1594 53.448 81.6945 53.2904 82.3924 53.1564C83.3339 52.9796 83.9863 52.8147 84.3497 52.6618V52.461C84.3497 52.0738 84.2542 51.7994 84.063 51.6366C83.8717 51.4695 83.511 51.3861 82.9804 51.3857C82.6221 51.3857 82.3424 51.4575 82.1417 51.6009C81.9408 51.7394 81.7782 51.9857 81.6541 52.3392ZM84.3497 53.9737C84.0916 54.0597 83.6828 54.1625 83.1238 54.2819C82.565 54.4015 82.1988 54.5185 82.0271 54.6332C81.7638 54.8195 81.6327 55.056 81.6327 55.3427C81.6327 55.6248 81.7378 55.8686 81.948 56.074C82.158 56.2795 82.426 56.3823 82.7513 56.3823C83.1139 56.3823 83.4606 56.2628 83.7907 56.0238C84.0343 55.8425 84.1943 55.6201 84.2707 55.357C84.3234 55.185 84.3497 54.8579 84.3497 54.375V53.9737ZM86.8705 55.4575L88.8923 55.1492C88.9778 55.5414 89.1523 55.8398 89.4157 56.0454C89.6783 56.246 90.046 56.3464 90.5194 56.3464C91.0404 56.3464 91.4322 56.2509 91.6951 56.0596C91.8719 55.9259 91.9601 55.7467 91.9605 55.522C91.9605 55.3693 91.9127 55.2427 91.8173 55.142C91.7165 55.0466 91.492 54.9583 91.1431 54.8768C89.518 54.5185 88.4881 54.1912 88.0532 53.8947C87.4511 53.484 87.15 52.9128 87.15 52.1816C87.15 51.522 87.4104 50.9678 87.9314 50.5185C88.4525 50.0693 89.2601 49.8448 90.3545 49.8446C91.3966 49.8446 92.1708 50.0145 92.6773 50.3535C93.184 50.6929 93.533 51.1947 93.7241 51.859L91.8242 52.2102C91.7428 51.9141 91.5875 51.6871 91.3584 51.5291C91.1335 51.3714 90.811 51.2926 90.3907 51.2926C89.86 51.2926 89.4798 51.3668 89.2504 51.5149C89.0976 51.6202 89.0213 51.7564 89.0213 51.9234C89.0213 52.0669 89.0877 52.1886 89.2222 52.289C89.4032 52.4229 90.0295 52.6116 91.1003 52.8554C92.1755 53.0992 92.9259 53.3978 93.3513 53.7514C93.7719 54.1098 93.9819 54.6093 93.9823 55.2496C93.9823 55.9474 93.6906 56.5473 93.1076 57.0489C92.5243 57.5506 91.6616 57.8016 90.5194 57.8016C89.4821 57.8016 88.6601 57.5915 88.0532 57.1708C87.4511 56.7503 87.0568 56.1793 86.8705 55.4575Z" fill="#3B3B3B"/>
</svg>
