<svg width="108" height="108" viewBox="0 0 108 108" fill="none" xmlns="http://www.w3.org/2000/svg">
<path d="M14 46.6325C14 45.7314 14.7304 45 15.6325 45H30.2913C31.1924 45 31.9238 45.7314 31.9238 46.6325V61.2923C31.9238 62.1934 31.1924 62.9248 30.2913 62.9248H15.6325C14.7304 62.9248 14 62.1934 14 61.2923V46.6325Z" fill="#ED1D24"/>
<path d="M28.1696 54.1281C28.0707 57.5537 25.2615 60.3011 21.8103 60.3011C18.3601 60.3011 15.5509 57.5537 15.452 54.1281H15.7668C15.7944 56.8118 17.9786 58.9794 20.6693 58.9794C23.3605 58.9794 25.5442 56.8118 25.5713 54.1281H28.1696Z" fill="white"/>
<path d="M31.1228 54.1282C31.0345 58.5598 27.4146 62.125 22.9614 62.125C18.5082 62.125 14.8883 58.5598 14.8009 54.1282H15.1342C15.2402 57.7295 18.1934 60.616 21.8203 60.616C25.4468 60.616 28.4 57.7295 28.5059 54.1282H31.1228Z" fill="white"/>
<path d="M25.2401 54.1281C25.2205 56.6381 23.1799 58.6656 20.6654 58.6656C18.1514 58.6656 16.1103 56.6381 16.0902 54.1281H16.4286C16.4265 54.1652 16.4265 54.2034 16.4265 54.241C16.4265 56.0467 17.8904 57.5106 19.6956 57.5106C21.5017 57.5106 22.9656 56.0467 22.9656 54.241C22.9656 54.2034 22.9656 54.1652 22.9636 54.1281H25.2401Z" fill="white"/>
<path d="M20.6829 53.7968C20.7024 51.2868 22.7436 49.2592 25.2576 49.2592C27.7726 49.2592 29.8127 51.2868 29.8328 53.7968H29.4954C29.4964 53.7596 29.4974 53.7215 29.4974 53.6838C29.4974 51.8781 28.0336 50.4143 26.2274 50.4143C24.4212 50.4143 22.9574 51.8781 22.9574 53.6838C22.9574 53.7215 22.9584 53.7596 22.9594 53.7968H20.6829Z" fill="white"/>
<path d="M14.801 53.7968C14.8884 49.3651 18.5093 45.7999 22.9615 45.7999C27.4147 45.7999 31.0346 49.3651 31.123 53.7968H30.7886C30.6827 50.1954 27.7305 47.3089 24.1025 47.3089C20.4761 47.3089 17.5239 50.1954 17.4179 53.7968H14.801Z" fill="white"/>
<path d="M17.7543 53.7968C17.8532 50.3711 20.6623 47.6237 24.1126 47.6237C27.5628 47.6237 30.372 50.3711 30.4709 53.7968H30.1561C30.1295 51.1131 27.9453 48.9455 25.2536 48.9455C22.5634 48.9455 20.3792 51.1131 20.3526 53.7968H17.7543Z" fill="white"/>
<path fill-rule="evenodd" clip-rule="evenodd" d="M86.7161 60.6038L88.7868 60.2881C88.8741 60.6902 89.0533 60.9959 89.3219 61.2067C89.592 61.4115 89.9685 61.5145 90.4534 61.5145C90.987 61.5145 91.3881 61.4166 91.6577 61.2208C91.8379 61.0842 91.9293 60.9 91.9293 60.6706C91.9293 60.5135 91.8801 60.3845 91.7822 60.281C91.6793 60.1832 91.4499 60.0928 91.0919 60.0095C89.4268 59.642 88.3731 59.3067 87.9269 59.0035C87.3104 58.5823 87.0022 57.998 87.0022 57.2485C87.0022 56.5733 87.2693 56.0055 87.8024 55.5447C88.336 55.0849 89.1633 54.8555 90.2837 54.8545C91.3515 54.8545 92.1441 55.0292 92.6637 55.376C93.1823 55.7239 93.5392 56.238 93.7349 56.9182L91.7897 57.2781C91.7064 56.9744 91.5468 56.742 91.3123 56.5798C91.0819 56.4192 90.7516 56.3379 90.3214 56.3379C89.7782 56.3379 89.3887 56.4142 89.1532 56.5653C88.9966 56.6732 88.9183 56.8133 88.9183 56.9839C88.9183 57.131 88.9866 57.2555 89.1241 57.3584C89.3104 57.496 89.9514 57.6887 91.0478 57.9387C92.1486 58.1882 92.9177 58.4949 93.3539 58.8569C93.7841 59.2243 93.999 59.7354 94 60.391C94 61.1058 93.7008 61.7208 93.1039 62.2343C92.5066 62.7479 91.6231 63.0049 90.4534 63.0049C89.3907 63.0049 88.5483 62.79 87.9269 62.3588C87.3104 61.9286 86.9063 61.3433 86.7161 60.6038Z" fill="#414042"/>
<path fill-rule="evenodd" clip-rule="evenodd" d="M67.0587 55.0308H68.9598V56.0956C69.6405 55.2683 70.4502 54.8551 71.3905 54.8541C71.8895 54.8541 72.3227 54.9575 72.6906 55.1633C73.0571 55.3692 73.3583 55.6799 73.5937 56.0956C73.9356 55.6799 74.3056 55.3692 74.7027 55.1633C75.0987 54.9575 75.5219 54.8541 75.9722 54.8541C76.5445 54.8541 77.0299 54.9721 77.426 55.2075C77.8221 55.4379 78.1183 55.7778 78.3145 56.2281C78.4566 56.5604 78.5274 57.0996 78.5274 57.843V62.8293H76.4642V58.3721C76.4642 57.5985 76.3929 57.0996 76.2513 56.8742C76.0606 56.58 75.7674 56.4339 75.3703 56.4339C75.0807 56.4339 74.8091 56.5223 74.5556 56.6975C74.3006 56.8742 74.1173 57.1337 74.0044 57.476C73.8914 57.8144 73.8357 58.3495 73.8357 59.0839V62.8293H71.772V58.5553C71.772 57.7968 71.7353 57.3074 71.662 57.087C71.5883 56.8661 71.4738 56.7025 71.3167 56.5945C71.1651 56.4876 70.9572 56.4339 70.6932 56.4339C70.3744 56.4339 70.0883 56.5192 69.8343 56.6909C69.5793 56.8611 69.395 57.1096 69.2836 57.4319C69.1756 57.7557 69.1214 58.2908 69.1214 59.0398V62.8293H67.0587V55.0308Z" fill="#414042"/>
<path fill-rule="evenodd" clip-rule="evenodd" d="M63.8615 62.8295H61.7988V55.031H63.7155V56.1399C64.0428 55.6163 64.3369 55.2709 64.596 55.1042C64.8605 54.9376 65.1587 54.8553 65.492 54.8542C65.9619 54.8542 66.4147 54.9848 66.8499 55.2438L66.2119 57.043C65.8635 56.8181 65.5412 56.7056 65.242 56.7056C64.9539 56.7056 64.7084 56.7859 64.5086 56.9476C64.3078 57.1047 64.1487 57.3908 64.0312 57.8065C63.9183 58.2221 63.8615 59.0941 63.8615 60.4204V62.8295Z" fill="#414042"/>
<path fill-rule="evenodd" clip-rule="evenodd" d="M53.1607 62.8295H51.098V58.8486C51.098 58.0078 51.0539 57.4641 50.9655 57.2192C50.8772 56.9692 50.7331 56.7759 50.5323 56.6388C50.336 56.5023 50.0986 56.434 49.8204 56.434C49.4625 56.434 49.1417 56.5309 48.8586 56.7272C48.574 56.923 48.3782 57.182 48.2703 57.5058C48.1684 57.8291 48.1162 58.4265 48.1162 59.2969V62.8295H46.0535V55.031H47.9691V56.176C48.6498 55.2955 49.5067 54.8542 50.5388 54.8542C50.9951 54.8542 51.4108 54.9376 51.7883 55.1042C52.1648 55.2664 52.4479 55.4742 52.6392 55.7287C52.8354 55.9827 52.9695 56.2719 53.0433 56.5947C53.1216 56.9185 53.1607 57.3808 53.1607 57.9832V62.8295Z" fill="#414042"/>
<path fill-rule="evenodd" clip-rule="evenodd" d="M42.6425 55.031H44.7052V62.8295H42.6425V55.031Z" fill="#414042"/>
<path fill-rule="evenodd" clip-rule="evenodd" d="M42.6425 52.0651H44.7052V53.9742H42.6425V52.0651Z" fill="#414042"/>
<path fill-rule="evenodd" clip-rule="evenodd" d="M34.3035 60.6038L36.3742 60.2881C36.4626 60.6902 36.6408 60.9959 36.9103 61.2067C37.1794 61.4115 37.5564 61.5145 38.0408 61.5145C38.5745 61.5145 38.9766 61.4166 39.2451 61.2208C39.4263 61.0842 39.5167 60.9 39.5167 60.6706C39.5167 60.5135 39.4675 60.3845 39.3706 60.281C39.2677 60.1832 39.0373 60.0928 38.6804 60.0095C37.0153 59.642 35.9606 59.3067 35.5153 59.0035C34.8988 58.5823 34.5896 57.998 34.5896 57.2485C34.5896 56.5733 34.8567 56.0055 35.3908 55.5447C35.9244 55.0849 36.7507 54.8555 37.8722 54.8545C38.9389 54.8545 39.7321 55.0292 40.2511 55.376C40.7697 55.7239 41.1276 56.238 41.3234 56.9182L39.3772 57.2781C39.2938 56.9744 39.1352 56.742 38.8998 56.5798C38.6693 56.4192 38.34 56.3379 37.9088 56.3379C37.3656 56.3379 36.9761 56.4142 36.7417 56.5653C36.585 56.6732 36.5067 56.8133 36.5067 56.9839C36.5067 57.131 36.575 57.2555 36.7126 57.3584C36.8978 57.496 37.5388 57.6887 38.6362 57.9387C39.7371 58.1882 40.5056 58.4949 40.9414 58.8569C41.3716 59.2243 41.5874 59.7354 41.5874 60.391C41.5874 61.1058 41.2883 61.7208 40.6924 62.2343C40.094 62.7479 39.2105 63.0049 38.0408 63.0049C36.9791 63.0049 36.1368 62.79 35.5153 62.3588C34.8988 61.9286 34.4947 61.3433 34.3035 60.6038Z" fill="#414042"/>
<path fill-rule="evenodd" clip-rule="evenodd" d="M84.1346 59.4959C84.1336 59.9899 84.107 60.3252 84.0533 60.5019C83.975 60.7705 83.8108 60.9979 83.5618 61.1841C83.224 61.4296 82.8691 61.5521 82.4971 61.5521C82.1638 61.5521 81.8892 61.4462 81.6748 61.2353C81.459 61.0255 81.351 60.7755 81.351 60.4864C81.351 60.1932 81.4866 59.9507 81.7551 59.7595C81.9313 59.642 82.3058 59.5225 82.8786 59.4C83.4514 59.2771 83.87 59.1721 84.1346 59.0843V59.4959ZM86.2349 61.786C86.1712 61.4587 86.1386 60.9517 86.1386 60.2665L86.1611 57.8574C86.1601 56.9624 86.0683 56.3479 85.8815 56.0151C85.7003 55.6772 85.3846 55.4006 84.9348 55.1848C84.4845 54.9654 83.7983 54.8545 82.8786 54.8545C81.8656 54.8555 81.102 55.0357 80.5885 55.3986C80.0735 55.7606 79.7115 56.3183 79.5012 57.0723L81.3736 57.4106C81.5011 57.0477 81.6668 56.7957 81.8726 56.6536C82.0784 56.5065 82.3651 56.4337 82.7315 56.4337C83.2757 56.4337 83.6441 56.5191 83.8404 56.6908C84.0367 56.8574 84.1346 57.1391 84.1346 57.5351V57.7409C83.7621 57.8966 83.0945 58.0662 82.1296 58.247C81.4148 58.384 80.8666 58.5456 80.4851 58.7324C80.1081 58.9126 79.8149 59.1772 79.6041 59.5255C79.3932 59.8674 79.2883 60.259 79.2883 60.6997C79.2883 61.3659 79.5187 61.9156 79.9786 62.3518C80.4429 62.7875 81.0774 63.0049 81.8806 63.0049C82.3354 63.0049 82.7641 62.9195 83.1647 62.7484C83.5668 62.5777 83.9433 62.3197 84.2952 61.9773C84.3103 62.0165 84.3344 62.0973 84.369 62.2198C84.4473 62.4893 84.5131 62.6921 84.5678 62.8297H86.6084C86.4277 62.4567 86.3022 62.1098 86.2349 61.786" fill="#414042"/>
<path fill-rule="evenodd" clip-rule="evenodd" d="M58.8043 59.4959C58.8043 59.9899 58.7767 60.3252 58.724 60.5019C58.6446 60.7705 58.4805 60.9979 58.2315 61.1841C57.8937 61.4296 57.5387 61.5521 57.1668 61.5521C56.8334 61.5521 56.5599 61.4462 56.3445 61.2353C56.1286 61.0255 56.0217 60.7755 56.0217 60.4864C56.0217 60.1932 56.1562 59.9507 56.4258 59.7595C56.601 59.642 56.9755 59.5225 57.5483 59.4C58.1211 59.2771 58.5397 59.1721 58.8043 59.0843V59.4959ZM60.9046 61.786C60.8409 61.4587 60.8082 60.9517 60.8082 60.2665L60.8308 57.8574C60.8308 56.9624 60.738 56.3479 60.5512 56.0151C60.37 55.6772 60.0542 55.4006 59.6045 55.1848C59.1542 54.9654 58.4689 54.8545 57.5483 54.8545C56.5353 54.8555 55.7717 55.0357 55.2582 55.3986C54.7431 55.7606 54.3812 56.3183 54.1714 57.0723L56.0433 57.4106C56.1708 57.0477 56.3375 56.7957 56.5423 56.6536C56.7481 56.5065 57.0347 56.4337 57.4012 56.4337C57.9454 56.4337 58.3138 56.5191 58.5101 56.6908C58.7064 56.8574 58.8043 57.1391 58.8043 57.5351V57.7409C58.4318 57.8966 57.7641 58.0662 56.7993 58.247C56.0855 58.384 55.5363 58.5456 55.1548 58.7324C54.7778 58.9126 54.4846 59.1772 54.2738 59.5255C54.0629 59.8674 53.958 60.259 53.958 60.6997C53.958 61.3659 54.1884 61.9156 54.6483 62.3518C55.1126 62.7875 55.7471 63.0049 56.5503 63.0049C57.0051 63.0049 57.4338 62.9195 57.8344 62.7484C58.2365 62.5777 58.613 62.3197 58.9659 61.9773C58.981 62.0165 59.0041 62.0973 59.0397 62.2198C59.117 62.4893 59.1838 62.6921 59.2375 62.8297H61.2791C61.0974 62.4567 60.9719 62.1098 60.9046 61.786" fill="#414042"/>
<path d="M34.7166 50.3499H35.7189V49.8554H35.7337C35.9639 50.2825 36.4317 50.4548 36.996 50.4548C37.7607 50.4548 38.5849 49.8329 38.5849 48.4093C38.5849 46.9931 37.7607 46.3712 36.996 46.3712C36.5208 46.3712 36.0456 46.551 35.7857 46.9482H35.7709V45H34.7166V50.3499ZM37.5305 48.4168C37.5305 49.0611 37.2558 49.6531 36.6321 49.6531C36.0085 49.6531 35.7337 49.0611 35.7337 48.4168C35.7337 47.7649 36.0085 47.1729 36.6321 47.1729C37.2558 47.1729 37.5305 47.7649 37.5305 48.4168Z" fill="#414042"/>
<path d="M41.3369 48.8513C41.3369 49.0836 41.3072 49.743 40.4831 49.743C40.1416 49.743 39.8371 49.6456 39.8371 49.2485C39.8371 48.8588 40.1341 48.7464 40.4608 48.679C40.7875 48.6191 41.1587 48.6116 41.3369 48.4542V48.8513ZM39.9559 47.6675C39.9931 47.2479 40.2529 47.083 40.6539 47.083C41.0251 47.083 41.3369 47.1505 41.3369 47.6075C41.3369 48.0421 40.7355 48.0196 40.0896 48.117C39.4362 48.207 38.7828 48.4168 38.7828 49.2934C38.7828 50.0877 39.362 50.4548 40.0896 50.4548C40.5573 50.4548 41.0474 50.3274 41.3815 49.9753C41.3889 50.1027 41.4186 50.23 41.4557 50.3499H42.5249C42.4284 50.1926 42.3913 49.8404 42.3913 49.4882V47.4727C42.3913 46.5435 41.4706 46.3712 40.7058 46.3712C39.8446 46.3712 38.961 46.6709 38.9016 47.6675H39.9559Z" fill="#414042"/>
<path d="M42.9002 50.3499H43.9546V48.3194C43.9546 47.5326 44.1996 47.2104 44.7713 47.2104C45.2613 47.2104 45.4469 47.5251 45.4469 48.162V50.3499H46.5013V47.9672C46.5013 47.0081 46.2191 46.3712 45.098 46.3712C44.6525 46.3712 44.1922 46.581 43.9249 47.0156H43.9026V46.4761H42.9002V50.3499Z" fill="#414042"/>
<path d="M47.0886 50.3499H48.1429V49.0162L48.5513 48.6191L49.6056 50.3499H50.8827L49.2715 47.8998L50.7193 46.4761H49.472L48.1429 47.8698V45H47.0886V50.3499Z" fill="#414042"/>
</svg>
