<svg width="108" height="108" viewBox="0 0 108 108" fill="none" xmlns="http://www.w3.org/2000/svg">
<path d="M33.7042 69.3683H14.0198V53.03H33.7042V69.3683Z" fill="white"/>
<path fill-rule="evenodd" clip-rule="evenodd" d="M29.3068 68.9073L16.1483 60.3486C16.1483 60.3486 14.4978 59.401 14.12 57.635C13.5894 55.1555 15.3389 53.03 15.3389 53.03L32.4169 64.1415C33.7342 64.9995 34.0939 66.7542 33.247 68.0779C32.3772 69.4376 30.5895 69.7376 29.3068 68.9073Z" fill="#38D200"/>
<path fill-rule="evenodd" clip-rule="evenodd" d="M16.8429 51.1958C16.8429 51.1958 14.8272 49.9798 14.8272 47.1675C14.8272 44.3645 16.8421 43.164 16.8421 43.164L24.0358 38.4599C25.3544 37.6037 27.1179 37.9774 27.9749 39.2946C28.832 40.6118 28.4579 42.3737 27.1394 43.23L21.0764 47.1745L31.4071 53.896C31.4071 53.896 33.2665 54.9607 33.6329 56.7572C34.1443 59.264 32.4173 61.329 32.4173 61.329L16.8429 51.1958Z" fill="#0473EA"/>
<path fill-rule="evenodd" clip-rule="evenodd" d="M30.3835 44.3714C29.7079 44.3716 29.2272 44.5843 28.7583 44.8893L25.2463 47.1744L28.7583 49.4595C29.2318 49.7641 29.7287 49.9774 30.3835 49.9774C31.933 49.9774 33.1891 48.7225 33.1891 47.1744C33.1891 45.6264 31.933 44.3711 30.3835 44.3714Z" fill="#38D200"/>
<path fill-rule="evenodd" clip-rule="evenodd" d="M16.8056 69.3609C17.4812 69.3608 17.9618 69.148 18.4307 68.8431L21.9427 66.5579L18.4307 64.2728C17.9573 63.9683 17.4604 63.755 16.8056 63.755C15.2561 63.755 14 65.0099 14 66.5579C14 68.106 15.2561 69.3612 16.8056 69.3609Z" fill="#0473EA"/>
<path fill-rule="evenodd" clip-rule="evenodd" d="M92.9678 53.1554L94 53.7853V61.3185H92.9678V60.2543C92.4644 60.9963 91.6588 61.449 90.6895 61.449C88.8768 61.449 87.5804 60.1034 87.5804 58.2673C87.5804 56.3935 88.8768 55.0227 90.6895 55.0227C91.6588 55.0227 92.4644 55.4881 92.9678 56.2426V53.1554ZM66.6635 53.1526L67.6831 53.7822V59.258C67.6831 60.1257 68.2118 60.4653 68.879 60.4653C69.3825 60.4653 69.8859 60.327 70.3265 60.0126V61.0061C69.8986 61.3205 69.3069 61.4462 68.7908 61.4462C67.4691 61.4462 66.6635 60.8551 66.6635 59.1825V53.1526ZM83.9268 55.0059C85.7143 55.0059 86.8849 56.3263 86.8849 58.0995C86.8849 58.2756 86.8723 58.4516 86.8471 58.6152H81.9506C82.1015 59.7344 82.9828 60.4764 84.2163 60.4764C85.0093 60.4764 85.7771 60.25 86.4318 59.7847V60.7656C85.7646 61.2184 85.0093 61.4322 84.2163 61.4322C82.2652 61.4322 80.868 60.1746 80.868 58.2756C80.868 56.4144 82.0512 55.0059 83.9268 55.0059ZM57.7196 55.0059C58.6889 55.0059 59.4818 55.4586 59.9979 56.2006V55.119H61.0301V61.319H59.9979V60.2626C59.4818 60.992 58.6889 61.4322 57.7196 61.4322C55.9069 61.4322 54.6105 60.0865 54.6105 58.2505C54.6105 56.3767 55.9069 55.0059 57.7196 55.0059ZM44.9179 55.0059C45.6606 55.0059 46.3529 55.2197 46.9068 55.6347V56.7791C46.4158 56.2509 45.7362 55.9742 44.9808 55.9742C43.6591 55.9742 42.7276 56.8923 42.7276 58.2127C42.7276 59.5332 43.6718 60.4638 44.9935 60.4638C45.7362 60.4638 46.4285 60.2626 46.9697 59.7973V60.8411C46.3655 61.2561 45.648 61.4321 44.8928 61.4321C42.9921 61.4321 41.6703 60.1117 41.6703 58.2127C41.6703 56.3263 43.0297 55.0059 44.9179 55.0059ZM73.4288 55.0059C75.2162 55.0059 76.3868 56.3263 76.3868 58.0995C76.3868 58.2756 76.3743 58.4516 76.3491 58.6152H71.4525C71.6035 59.7344 72.4847 60.4764 73.7183 60.4764C74.5113 60.4764 75.2791 60.25 75.9338 59.7847V60.7656C75.2666 61.2184 74.5113 61.4322 73.7183 61.4322C71.7672 61.4322 70.37 60.1746 70.37 58.2756C70.37 56.4144 71.5531 55.0059 73.4288 55.0059ZM48.1025 53.1537L49.1221 53.7834L49.1222 56.1754C49.5879 55.4586 50.3306 55.0059 51.2746 55.0059C52.8355 55.0059 53.6663 56.1503 53.6663 57.672V61.319H52.6341V57.848C52.6341 56.6407 52.1055 55.9994 51.0229 55.9994C49.8774 55.9994 49.1222 56.9803 49.1222 58.2127V61.319H48.1025V53.1537ZM65.9014 55.0059V56.1754C64.6679 55.9994 63.6357 56.8294 63.6357 58.3636V61.319H62.6161V55.119H63.6357V56.4395C64.1266 55.5215 64.9196 55.0059 65.9014 55.0059ZM80.7924 55.0059V56.1754C79.5589 55.9994 78.5267 56.8294 78.5267 58.3636V61.319H77.5071V55.119H78.5267V56.4395C79.0175 55.5215 79.8106 55.0059 80.7924 55.0059ZM90.7903 55.991C89.5315 55.991 88.6377 56.9468 88.6377 58.2547C88.6377 59.5374 89.5315 60.4806 90.7903 60.4806C92.0616 60.4806 92.9678 59.5374 92.9678 58.2547C92.9678 56.9468 92.0616 55.991 90.7903 55.991ZM57.8204 55.9742C56.5616 55.9742 55.6678 56.93 55.6678 58.2379C55.6678 59.5206 56.5616 60.4638 57.8204 60.4638C59.0917 60.4638 59.9979 59.5206 59.9979 58.2379C59.9979 56.93 59.0917 55.9742 57.8204 55.9742ZM73.4413 55.9491C72.3085 55.9491 71.6288 56.7414 71.4651 57.7851H75.3044C75.2036 56.7288 74.5364 55.9491 73.4413 55.9491ZM83.9394 55.9491C82.8066 55.9491 82.1268 56.7414 81.9631 57.7851H85.8024C85.7017 56.7288 85.0345 55.9491 83.9394 55.9491ZM68.4752 55.0307C68.737 54.8645 69.0722 54.8674 69.3312 55.0382L70.3582 55.721L69.3441 56.3707C69.0858 56.5363 68.7546 56.5367 68.4958 56.3718L68.474 56.358C67.9882 56.0484 67.9888 55.3395 68.4752 55.0307ZM54.0944 45.9395C55.0637 45.9395 55.8567 46.3923 56.3727 47.1343V46.0527H57.4049V52.2527H56.3727V51.1963C55.8567 51.9257 55.0637 52.3658 54.0944 52.3658C52.2817 52.3658 50.9852 51.0202 50.9852 49.1841C50.9852 47.3103 52.2817 45.9395 54.0944 45.9395ZM48.0272 44.0664V50.1777C48.0272 51.0454 48.5558 51.3849 49.223 51.3849C49.7266 51.3849 50.23 51.2466 50.6706 50.9322V51.9257C50.2427 52.2401 49.651 52.3658 49.1349 52.3658C47.8132 52.3658 47.0075 51.7748 47.0075 50.1022V44.6966L48.0272 44.0664ZM90.8001 44.0668V52.2527H89.7679V51.1711C89.2645 51.9131 88.4589 52.3658 87.4897 52.3658C85.677 52.3658 84.3805 51.0202 84.3805 49.1841C84.3805 47.3103 85.677 45.9395 87.4897 45.9395C88.4589 45.9395 89.2645 46.4049 89.7679 47.1594V44.6963L90.8001 44.0668ZM76.1353 45.9395C77.1046 45.9395 77.8976 46.3923 78.4137 47.1343V46.0527H79.4459V52.2527H78.4137V51.1963C77.8976 51.9257 77.1046 52.3658 76.1353 52.3658C74.3227 52.3658 73.0262 51.0202 73.0262 49.1841C73.0262 47.3103 74.3227 45.9395 76.1353 45.9395ZM43.8984 45.9396C44.6284 45.9396 45.3081 46.1408 45.7864 46.5055V47.5744C45.2201 47.0714 44.5277 46.7822 43.9109 46.7822C43.2563 46.7822 42.7906 47.084 42.7906 47.587C42.7906 47.9643 42.9668 48.1907 43.4578 48.3793L44.9306 48.9704C45.7235 49.3099 46.0886 49.7878 46.0886 50.4543C46.0886 51.6365 45.1319 52.3658 43.7851 52.3658C42.9668 52.3658 42.2241 52.1395 41.6829 51.737V50.6304C42.3374 51.2466 43.0675 51.5233 43.7977 51.5233C44.5277 51.5233 45.0565 51.2089 45.0565 50.643C45.0565 50.3034 44.8802 50.0393 44.4145 49.8506L42.9417 49.2596C42.1865 48.9327 41.7711 48.5051 41.7711 47.7002C41.7711 46.6187 42.6396 45.9396 43.8984 45.9396ZM71.9184 44.0668V52.2527H70.8862V51.1711C70.3828 51.9131 69.5772 52.3658 68.6079 52.3658C66.7952 52.3658 65.4988 51.0202 65.4988 49.1841C65.4988 47.3103 66.7952 45.9395 68.6079 45.9395C69.5772 45.9395 70.3828 46.4049 70.8862 47.1594V44.6963L71.9184 44.0668ZM84.3172 45.9395V47.1091C83.0837 46.9331 82.0515 47.7631 82.0515 49.2973V52.2526H81.0318V46.0527H82.0515V47.3732C82.5423 46.4552 83.3354 45.9395 84.3172 45.9395ZM62.1629 45.9395C63.7238 45.9395 64.5546 47.084 64.5546 48.6057V52.2526H63.5224V48.7817C63.5224 47.5744 62.9938 46.9331 61.9112 46.9331C60.7657 46.9331 60.0105 47.914 60.0105 49.1464V52.2526H58.9908V46.0527H60.0105V47.1091C60.4762 46.3923 61.2189 45.9395 62.1629 45.9395ZM54.1951 46.9079C52.9363 46.9079 52.0425 47.8637 52.0425 49.1716C52.0425 50.4543 52.9363 51.3975 54.1951 51.3975C55.4664 51.3975 56.3727 50.4543 56.3727 49.1716C56.3727 47.8637 55.4664 46.9079 54.1951 46.9079ZM68.7086 46.9079C67.4499 46.9079 66.5561 47.8637 66.5561 49.1716C66.5561 50.4543 67.4499 51.3975 68.7086 51.3975C69.98 51.3975 70.8862 50.4543 70.8862 49.1716C70.8862 47.8637 69.98 46.9079 68.7086 46.9079ZM87.5904 46.9079C86.3316 46.9079 85.4378 47.8637 85.4378 49.1716C85.4378 50.4543 86.3316 51.3975 87.5904 51.3975C88.8618 51.3975 89.7679 50.4543 89.7679 49.1716C89.7679 47.8637 88.8618 46.9079 87.5904 46.9079ZM76.2361 46.9079C74.9773 46.9079 74.0835 47.8637 74.0835 49.1716C74.0835 50.4543 74.9773 51.3975 76.2361 51.3975C77.5074 51.3975 78.4137 50.4543 78.4137 49.1716C78.4137 47.8637 77.5074 46.9079 76.2361 46.9079ZM49.4484 46.0415C49.7064 45.8753 50.0376 45.8741 50.2968 46.0384L50.3186 46.0522C50.8051 46.3606 50.8062 47.0696 50.3206 47.3794C50.0591 47.5463 49.7239 47.5441 49.4646 47.374L48.4359 46.6936L49.4484 46.0415Z" fill="#525355"/>
</svg>
