<svg width="108" height="108" viewBox="0 0 108 108" fill="none" xmlns="http://www.w3.org/2000/svg">
<circle cx="54" cy="54" r="36" fill="#012A31"/>
<g clip-path="url(#clip0_801_8013)">
<path d="M44.265 31.5509C43.6369 31.7321 43.0038 31.8984 42.3831 32.0995C30.3368 35.9826 29.433 48.5727 34.1503 54.9881C36.9186 58.7544 40.7445 60.614 45.3302 60.9939C47.0557 61.1354 48.7986 61.0237 50.534 61.0733C54.3848 61.1851 56.947 63.0273 57.6844 66.1704C58.5707 69.9517 57.0885 73.4499 53.7988 75.2077C51.0033 76.6998 47.9619 76.9953 44.8833 76.675C32.323 75.3666 23.5588 65.3213 23.9735 52.7933C24.3186 42.3062 32.4893 33.1647 42.9144 31.603C43.3539 31.536 43.7933 31.4739 44.2328 31.4069C44.2427 31.454 44.2551 31.5037 44.265 31.5509Z" fill="#AFEE01"/>
<path d="M66.2798 41.472V32.0524C72.1962 37.9092 78.1722 43.8231 84.0737 49.6651C79.0983 54.5884 73.8944 59.7351 68.7353 64.8372C68.6111 64.1048 68.4944 63.1092 68.266 62.136C66.6125 55.0775 60.6787 50.3851 53.0641 50.1244C51.2889 50.0623 49.5088 50.1442 47.7361 50.0722C45.2136 49.9704 43.4806 48.451 43.287 46.2786C43.0288 43.3787 44.7071 41.5166 47.7609 41.4918C53.3372 41.4446 58.9159 41.4744 64.4947 41.472C65.0285 41.472 65.5623 41.472 66.2798 41.472Z" fill="#AFEE01"/>
</g>
<defs>
<clipPath id="clip0_801_8013">
<rect width="60.1175" height="45.3848" fill="white" transform="translate(23.9586 31.4069)"/>
</clipPath>
</defs>
</svg>
