<svg width="108" height="108" viewBox="0 0 108 108" fill="none" xmlns="http://www.w3.org/2000/svg">
<path d="M21.3441 55.9677H20.2366C17.9677 55.9677 16.1398 54.129 16.1398 51.871C16.1398 49.6129 17.9677 47.7634 20.2366 47.7634C16.7957 47.7634 14 50.5591 14 54C14 57.4408 16.7957 60.2365 20.2366 60.2365C20.7634 60.2365 21.2688 60.172 21.7527 60.0538C22.6989 59.8602 23.4086 59.0322 23.4086 58.0322C23.4086 56.8925 22.4839 55.9677 21.3441 55.9677Z" fill="#012A31"/>
<path d="M20.5054 52.9462H22.3011C24.5484 52.9462 26.3763 54.7742 26.3763 57.0215C26.3763 57.0645 26.3763 57.1183 26.3763 57.1613L30.7419 52.7957L25.7097 47.7634V50.5054H20.5054C19.828 50.5054 19.2903 51.0538 19.2903 51.7204C19.2903 52.3871 19.828 52.9462 20.5054 52.9462Z" fill="#012A31"/>
<path d="M38.9892 50.8495C38.5269 50.6559 37.871 50.4946 37.086 50.4946C36.086 50.4946 34.3656 50.6989 34.3656 52.3871C34.3656 53.5484 35.3011 54.0538 35.7849 54.1613L37.3548 54.5591C37.6774 54.6452 37.7634 54.7634 37.7634 55.0215C37.7634 55.3441 37.4624 55.5699 36.6452 55.5699C35.871 55.5699 35.0753 55.2688 34.5591 55.0215V56.5484C35.1935 56.8602 35.871 56.9677 36.6452 56.9677C37.4301 56.9677 39.4086 56.7097 39.4086 54.9677C39.4086 53.8065 38.5376 53.3226 38.0645 53.2043L36.4946 52.7849C36.2366 52.7204 36.0108 52.5484 36.0108 52.3656C36.0108 52.043 36.3333 51.8925 36.9785 51.8925C37.6237 51.8925 38.6237 52.0538 38.9892 52.2366V50.8495Z" fill="#012A31"/>
<path d="M46 50.7097H44.3656V54.3011L46 52.6667V50.7097Z" fill="#012A31"/>
<path d="M50.2473 50.4946C49.1183 50.4946 48.2473 50.9785 47.871 51.4086L44.2796 55C44.0538 55.2258 43.7634 55.4409 43.2151 55.4409C42.4946 55.4409 41.9247 54.9247 41.9247 54.2366V50.7097H40.2796V54.2903C40.2796 55.5161 40.871 56.957 43.1613 56.957C44.4624 56.957 45.172 56.4731 45.5376 56.043L49.129 52.4516C49.4086 52.1935 49.8064 51.9462 50.3226 51.9462C51 51.9462 51.8602 52.4409 51.8602 53.7204C51.8602 55 51.0538 55.4301 50.3011 55.4301C49.5484 55.4301 48.7312 55.0323 48.7312 53.7204V53.4409L47.086 55.086V59.2258H48.7312V56.0323C48.9892 56.4194 49.5376 56.957 50.6129 56.957C51.957 56.957 53.4946 56.129 53.4946 53.828C53.5054 50.8817 51.3763 50.4946 50.2473 50.4946Z" fill="#012A31"/>
<path d="M60.3979 53.5269C60.3979 51.0753 58.6237 50.4839 57.4409 50.4839C56.2581 50.4839 54.3763 51.0323 54.3763 53.7204C54.3763 56.5699 56.6774 56.957 57.8172 56.957C58.957 56.957 59.6344 56.7204 60.0753 56.4301V54.9785C59.5484 55.4409 58.7849 55.5591 57.8172 55.5591C57.2473 55.5591 56.2366 55.2688 55.957 54.2796H60.3011C60.3548 54.0323 60.3979 53.7419 60.3979 53.5269ZM55.957 53.0645C56.1613 52.1398 56.8065 51.8065 57.4409 51.8065C58.2151 51.8065 58.7742 52.4086 58.8172 53.0645H55.957Z" fill="#012A31"/>
<path d="M64.086 50.4946C62.4194 50.4946 61.3763 51.3548 61.3763 53.0753V56.7419H63.0215V53.2043C63.0215 52.4839 63.5161 51.9462 64.2796 51.9462C64.7204 51.9462 65.0215 52.0323 65.2366 52.1398V50.6774C64.9785 50.5699 64.6022 50.4946 64.086 50.4946Z" fill="#012A31"/>
<path d="M69.8064 50.4946C68.8495 50.4946 68.2473 50.9247 67.871 51.4409V48.0753H66.2258V53.7312C66.2258 55.2796 67.2258 56.9677 69.4301 56.9677C71.1613 56.9677 72.6667 55.871 72.6667 53.6559C72.6667 52.7312 72.1075 50.4946 69.8064 50.4946ZM69.4409 55.4624C68.6452 55.4624 67.8602 54.7634 67.8602 53.6129C67.8602 52.6344 68.4731 51.9247 69.4409 51.9247C70.2903 51.9247 71.0215 52.5699 71.0215 53.6129C71.0215 54.6559 70.2366 55.4624 69.4409 55.4624Z" fill="#012A31"/>
<path d="M76.3333 56.957C77.2903 56.957 77.9355 56.3656 78.3118 55.8602V56.7419H79.957V53.7312C79.957 52.1828 78.957 50.4946 76.7527 50.4946C75.0215 50.4946 73.5161 51.5914 73.5161 53.8065C73.5054 54.7204 74.0323 56.957 76.3333 56.957ZM76.7312 51.9247C77.5269 51.9247 78.3118 52.6237 78.3118 53.7742C78.3118 54.7527 77.5484 55.4624 76.7312 55.4624C75.7634 55.4624 75.1505 54.8172 75.1505 53.7742C75.1505 52.7312 75.7419 51.9247 76.7312 51.9247Z" fill="#012A31"/>
<path d="M84.0215 50.4946C81.8495 50.4946 81.1505 51.9355 81.1505 53.1613V56.7419H82.7957V53.2151C82.7957 52.5376 83.3118 51.9677 84.0323 51.9677C84.7527 51.9677 85.2688 52.5376 85.2688 53.2151V56.7419H86.914V53.1613C86.8925 51.9355 86.1828 50.4946 84.0215 50.4946Z" fill="#012A31"/>
<path d="M92.3333 54.0108C92.1828 53.7634 91.9355 53.5806 91.6559 53.5269C91.9785 53.4409 92.2581 53.2473 92.4409 52.957L93.8495 50.7204H92.0538L90.9032 52.4409C90.7634 52.6559 90.5161 52.7849 90.2581 52.7849H89.7849V48.1613H88.1398V56.7527H89.7849V54.2903H90.2473C90.4946 54.2903 90.7204 54.4194 90.8387 54.6237L92.1075 56.7312H94L92.3333 54.0108Z" fill="#012A31"/>
</svg>
