<svg width="108" height="108" viewBox="0 0 108 108" fill="none" xmlns="http://www.w3.org/2000/svg">
<path fill-rule="evenodd" clip-rule="evenodd" d="M30.7275 65.0003C30.7203 65.5648 31.4322 65.626 31.8635 65.626H32.0956C32.1378 65.626 32.1719 65.6246 32.2226 65.6188C33.2406 65.5662 33.233 65.1819 33.233 65.0003C33.2299 64.9045 33.2299 64.8047 33.233 64.6924V43.6297C33.2406 43.067 32.5252 43 32.0956 43H31.8635C31.4322 43 30.7203 43.067 30.7275 43.6297C30.7275 43.7493 30.7239 43.863 30.7239 43.9821V64.6452C30.7239 64.6564 30.7239 64.6726 30.7275 64.7036" fill="#E1091D"/>
<path fill-rule="evenodd" clip-rule="evenodd" d="M17.3644 65.0003C17.3568 65.5648 18.0696 65.626 18.5001 65.626H18.7317C18.7743 65.626 18.8089 65.6246 18.8591 65.6188C19.8772 65.5662 19.8695 65.1819 19.8695 65.0003C19.8673 64.9045 19.8673 64.8047 19.8695 64.6924V43.6297C19.8772 43.067 19.1617 43 18.7317 43H18.5001C18.0696 43 17.3568 43.067 17.3644 43.6297C17.3644 43.7493 17.3595 43.863 17.3595 43.9821V64.6452C17.3595 64.6564 17.3595 64.6726 17.3644 64.7036" fill="#E1091D"/>
<path fill-rule="evenodd" clip-rule="evenodd" d="M21.818 65.0003C21.8126 65.5648 22.5236 65.626 22.955 65.626H23.1866C23.2292 65.626 23.2638 65.6246 23.3145 65.6188C24.3321 65.5662 24.3249 65.1819 24.3249 65.0003C24.3204 64.9045 24.3204 64.8047 24.3249 64.6924V43.6297C24.3321 43.067 23.6166 43 23.1866 43H22.955C22.5236 43 21.8126 43.067 21.818 43.6297C21.818 43.7493 21.8153 43.863 21.8153 43.9821V64.6452C21.8153 64.6564 21.8153 64.6726 21.818 64.7036" fill="#E1091D"/>
<path fill-rule="evenodd" clip-rule="evenodd" d="M26.2735 65.0003C26.2668 65.5648 26.9782 65.626 27.4091 65.626H27.6412C27.6834 65.626 27.7179 65.6246 27.7678 65.6188C28.7867 65.5662 28.7777 65.1819 28.7777 65.0003C28.7759 64.9045 28.7759 64.8047 28.7777 64.6924V43.6297C28.7867 43.067 28.0703 43 27.6412 43H27.4091C26.9782 43 26.2668 43.067 26.2735 43.6297C26.2735 43.7493 26.2686 43.863 26.2686 43.9821V64.6452C26.2686 64.6564 26.2686 64.6726 26.2735 64.7036" fill="#E1091D"/>
<path fill-rule="evenodd" clip-rule="evenodd" d="M14.6239 53.0598C14.0601 53.0526 14 53.7655 14 54.1984V54.4312C14 54.4735 14.0013 54.5076 14.0054 54.5575C14.0579 55.5761 14.4417 55.5689 14.6239 55.5689C14.72 55.5662 14.8183 55.5662 14.9318 55.5689H35.9642C36.5266 55.5761 36.5926 54.8605 36.5926 54.4312V54.1984C36.5926 53.7655 36.5266 53.0526 35.9642 53.0598C35.8452 53.0598 35.7316 53.0558 35.6118 53.0558H14.9776C14.9664 53.0558 14.9529 53.0558 14.9202 53.0598" fill="#E1091D"/>
<path fill-rule="evenodd" clip-rule="evenodd" d="M67.7198 44.6582C61.7127 44.6582 59.0343 47.6208 59.0343 54.2638C59.0343 60.7522 61.8258 63.9283 67.5676 63.9683H67.8477C73.5999 63.9395 76.3972 60.7643 76.3972 54.2638C76.3972 47.6208 73.7211 44.6582 67.7198 44.6582M67.7359 61.1226H67.6919C64.2438 61.1226 62.8999 59.1888 62.8999 54.2323C62.8999 49.3288 64.189 47.5066 67.6569 47.5066H67.7687C71.2375 47.5066 72.5275 49.3288 72.5275 54.2323C72.5275 59.1888 71.1836 61.1226 67.7359 61.1226" fill="#002469"/>
<path fill-rule="evenodd" clip-rule="evenodd" d="M43.5967 62.4982C44.8149 63.4403 46.4721 63.8422 49.1392 63.8422H49.308C51.9949 63.8422 53.657 63.4403 54.8654 62.4995C56.6186 61.1637 56.914 59.5927 56.914 56.573L56.9171 45.7399C56.9189 45.5826 56.9225 45.3848 56.7475 45.2077C56.471 44.9267 55.8547 44.7852 54.9156 44.7852C53.9852 44.7852 53.3743 44.9267 53.0987 45.2059C52.9223 45.3843 52.9254 45.5826 52.9276 45.7417L52.9281 47.6938V57.0598C52.9285 58.945 52.9285 59.3374 52.0919 60.0282C51.3212 60.6548 50.1568 60.7366 49.229 60.7366C48.3017 60.7366 47.1382 60.6548 46.368 60.0282C45.534 59.3432 45.534 58.9571 45.5344 57.1016L45.5353 45.7417C45.5385 45.5826 45.5407 45.3848 45.3648 45.2059C45.0887 44.9267 44.476 44.7852 43.5424 44.7852C42.6065 44.7852 41.9934 44.9267 41.7182 45.2068C41.5414 45.3848 41.5445 45.5826 41.5463 45.7408L41.5472 45.7871V56.573C41.5472 59.5909 41.843 61.1623 43.5967 62.4982" fill="#002469"/>
<path fill-rule="evenodd" clip-rule="evenodd" d="M91.3975 45.9099C90.4055 45.1714 89.2214 44.9093 86.8734 44.9093H79.1503C78.7993 44.9093 78.5138 45.1943 78.5138 45.5444V63.0781C78.5138 63.4319 78.7993 63.7173 79.1503 63.7173H87.2522C89.4512 63.7173 90.989 63.6467 92.2656 62.6826C93.6983 61.5701 94 59.7479 94 58.4151C94 56.6549 93.4097 55.261 92.3387 54.4915C91.8742 54.145 91.3248 53.9369 90.8018 53.753L90.4517 53.6298L90.7866 53.4694C92.3639 52.7151 92.9416 51.6665 92.9169 49.5993C92.903 48.6324 92.6875 46.8655 91.3975 45.9099V45.9099ZM82.4463 47.5384H86.7603C88.9943 47.5384 89.1716 48.672 89.1716 50.1549C89.1716 51.9272 88.36 52.6823 86.4604 52.6823H82.4463V47.5384ZM86.6718 61.024H82.4431V55.35H86.9784C89.4929 55.35 89.9984 56.4455 89.9984 58.2155C89.9984 60.5992 89.1271 61.024 86.6718 61.024V61.024Z" fill="#002469"/>
</svg>
