<svg width="108" height="108" viewBox="0 0 108 108" fill="none" xmlns="http://www.w3.org/2000/svg">
<path d="M53.9972 90.7267C51.9798 91.8344 49.8827 92.757 47.6793 93.4292C47.0804 93.6119 46.475 93.7753 45.872 93.9452C45.3818 94.0837 44.9197 93.9041 44.46 93.7898C40.6425 92.8439 37.0408 91.3627 33.6645 89.3469C30.0443 87.1854 26.8499 84.5062 24.0637 81.3392C20.8106 77.6409 18.3182 73.4853 16.5753 68.8822C15.3992 65.7755 14.6328 62.5699 14.2399 59.2685C14.0153 57.3831 13.9718 55.4969 14.0218 53.6043C14.1522 53.1696 14.1369 52.7147 14.2021 52.2711C14.5813 49.6942 15.2776 47.2115 16.337 44.827C17.9535 41.1883 20.2318 38.0269 23.1919 35.3743C26.0063 32.8522 29.2232 31.0167 32.8748 29.9879C34.6893 29.4767 36.5385 29.1611 38.4303 29.1683C39.9494 29.174 41.4645 29.1555 42.961 28.8536C41.7269 29.4694 40.4856 30.0676 39.315 30.8074C37.0376 32.2476 35.0315 33.9961 33.2886 36.0449C30.9105 38.8408 29.108 41.9683 27.9399 45.4541C27.2074 47.6422 26.7429 49.8826 26.5593 52.1866C26.2856 55.6225 26.6092 58.9996 27.572 62.3026C28.7321 66.2811 30.6843 69.8401 33.4295 72.9532C35.8172 75.6605 38.6195 77.8341 41.863 79.4297C42.8854 80.0053 43.985 80.4022 45.0775 80.8143C45.2352 80.8739 45.3818 80.8562 45.5395 80.7926C48.8667 79.4458 51.6747 77.3897 53.9763 74.6373C55.5678 72.6908 56.8148 70.5486 57.6794 68.1818C58.5078 65.914 58.92 63.5738 58.9763 61.1675C58.994 60.4229 59.0158 59.6774 58.9425 58.9344C58.9385 58.399 58.9353 57.8637 58.9296 57.3292C58.9047 54.8988 58.7348 52.4748 58.5134 50.0573C58.251 47.1922 57.863 44.3408 57.3163 41.5143C56.9203 39.4671 56.4646 37.4328 55.6193 35.5144C55.2828 34.7504 54.9536 33.9655 54.2452 33.4415C55.3279 33.4149 56.3254 33.7643 57.2858 34.1998C60.5172 35.6617 63.0852 37.919 65.1284 40.8011C67.2464 43.7885 68.8621 47.0231 69.9473 50.5194C70.6565 52.8065 71.1218 55.1435 71.3432 57.5304C71.4905 59.1187 71.5316 60.7095 71.4616 62.3002C71.3432 65.0043 70.9174 67.6609 70.1719 70.2652C69.35 73.1392 68.1698 75.8569 66.6467 78.4274C66.4567 78.7478 66.2619 79.0666 66.0695 79.3854C66.0042 79.4683 65.9326 79.548 65.8746 79.6358C64.1664 82.2272 62.1473 84.5505 59.8184 86.5993C58.0232 88.1788 56.0637 89.5328 53.994 90.7275L53.9972 90.7267Z" fill="#F47921"/>
<path d="M53.9972 90.7267C56.0677 89.532 58.0264 88.178 59.8216 86.5985C62.1506 84.5497 64.1704 82.2264 65.8779 79.635C65.9358 79.5472 66.0075 79.4683 66.0727 79.3846C66.6338 79.2687 67.0927 78.933 67.57 78.6536C72.2143 75.9383 75.8047 72.2077 78.3148 67.4444C79.7856 64.6525 80.7291 61.6868 81.204 58.5705C81.4939 56.6714 81.5212 54.7587 81.4729 52.8459C81.5003 52.8862 81.4987 52.895 81.4705 52.8717C81.4617 52.8644 81.452 52.8508 81.452 52.8403C81.4745 52.1327 81.4262 51.4267 81.4021 50.7198C81.3409 48.9166 81.1751 47.123 80.9561 45.335C80.7041 43.2749 80.3419 41.2334 79.8717 39.2095C79.082 35.8099 77.9759 32.5245 76.4302 29.3921C74.6277 25.7397 72.3125 22.4657 69.2654 19.7374C67.8598 18.4783 66.3367 17.3819 64.6784 16.477C62.8187 15.4627 60.8561 14.7285 58.7791 14.3018C59.6429 14.268 60.4793 14.4717 61.3166 14.6287C65.1356 15.3443 68.7736 16.5954 72.2223 18.3898C76.101 20.408 79.5553 22.9921 82.5984 26.1342C85.5271 29.1579 87.9228 32.5559 89.7897 36.3235C91.5994 39.9751 92.8142 43.8175 93.4832 47.8419C93.9912 50.8994 94.0982 53.9746 93.9211 57.053C93.6225 62.2471 92.3352 67.2021 90.1021 71.9075C87.1009 78.2302 82.7553 83.4363 77.0799 87.5202C72.7746 90.618 68.02 92.7481 62.8501 93.946C62.409 94.0482 62.0016 93.9194 61.5895 93.8083C58.9337 93.0894 56.3954 92.0824 53.9972 90.7267Z" fill="#006EB8"/>
<path d="M54.2476 33.4398C54.956 33.9639 55.2853 34.7488 55.6218 35.5128C56.4678 37.4312 56.9227 39.4655 57.3188 41.5127C57.8662 44.3392 58.2542 47.1898 58.5158 50.0557C58.7372 52.474 58.9071 54.8972 58.932 57.3275C58.9377 57.8629 58.9409 58.3982 58.9449 58.9328C58.8499 58.8531 58.8644 58.7396 58.8523 58.6357C58.6318 56.6465 58.1689 54.7168 57.4097 52.8644C56.9211 51.6714 56.3471 50.525 55.4076 49.6065C54.4907 48.7097 53.4667 48.7153 52.5441 49.617C52.1392 50.013 51.793 50.455 51.5113 50.9428C49.8561 53.8104 49.1308 56.9411 48.9939 60.212C48.878 62.995 49.357 65.6991 50.3246 68.3138C51.182 70.6299 52.4177 72.727 53.9779 74.6373C51.6771 77.3897 48.8683 79.4458 45.5412 80.7926C45.3826 80.857 45.2369 80.8747 45.0791 80.8143C43.9858 80.4022 42.887 80.0053 41.8646 79.4297C41.809 79.0714 41.5538 78.8178 41.3783 78.5264C39.5453 75.4802 38.2194 72.2263 37.395 68.7727C36.6544 65.6709 36.3549 62.5176 36.495 59.3337C36.6955 54.7563 37.734 50.3745 39.6862 46.2181C40.9203 43.5905 42.3911 41.107 44.3231 38.9326C46.3695 36.6294 48.7814 34.8181 51.7294 33.8037C52.5409 33.5244 53.3741 33.3271 54.2476 33.4398Z" fill="#006EB8"/>
<path d="M42.9634 28.8536C41.4669 29.1555 39.951 29.174 38.4327 29.1683C36.5409 29.1611 34.6909 29.4759 32.8772 29.9879C29.2256 31.0167 26.0087 32.8522 23.1943 35.3743C20.2342 38.0269 17.9559 41.1883 16.3394 44.827C15.28 47.2115 14.5837 49.6942 14.2045 52.2711C14.1393 52.7147 14.1546 53.1696 14.0242 53.6043C13.9509 52.3702 14.0684 51.1433 14.2029 49.9204C14.5652 46.6407 15.301 43.4456 16.4465 40.3494C18.2337 35.5192 20.8267 31.1721 24.2601 27.3264C27.1905 24.0435 30.5635 21.3096 34.3826 19.128C37.6172 17.2804 41.0483 15.9135 44.6701 15.0465C47.1037 14.4644 49.5727 14.0821 52.0844 14.0072C52.4161 13.9975 52.5345 14.0957 52.5739 14.4008C53.2461 19.5152 51.4549 23.6072 47.4265 26.7581C46.1683 27.7426 44.7418 28.3995 43.1856 28.7715C43.1092 28.79 43.0375 28.8254 42.9634 28.8536Z" fill="#006EB8"/>
<path d="M58.7791 14.3018C60.8553 14.7277 62.8187 15.4619 64.6784 16.477C66.3367 17.3819 67.8598 18.4783 69.2654 19.7374C72.3125 22.4657 74.6277 25.7397 76.4302 29.3921C77.9759 32.5245 79.082 35.8099 79.8717 39.2095C80.3419 41.2334 80.7041 43.2749 80.9561 45.335C81.1751 47.123 81.3409 48.9166 81.4021 50.7198C81.4262 51.4267 81.4745 52.1327 81.452 52.8403C81.452 52.8508 81.4617 52.8644 81.4705 52.8717C81.4987 52.895 81.5003 52.8862 81.4729 52.8459C81.3393 51.1682 81.1179 49.5083 80.7243 47.8708C79.6125 43.2459 77.4252 39.1749 74.3347 35.5877C71.526 32.3273 68.1191 29.8703 64.0706 28.3891C61.4945 27.4464 59.341 25.982 57.7028 23.7899C55.8174 21.267 54.9906 18.43 55.2965 15.2807C55.3279 14.9612 55.3722 14.6432 55.406 14.3244C55.4318 14.0796 55.5211 13.9967 55.8045 14.0007C56.806 14.0152 57.7913 14.161 58.7775 14.3034L58.7791 14.3018Z" fill="#F47921"/>
</svg>
