<svg width="108" height="108" viewBox="0 0 108 108" fill="none" xmlns="http://www.w3.org/2000/svg">
<g clip-path="url(#clip0_801_8801)">
<path d="M14 73.4226C14 60.3275 14 47.2324 14 34.1373C14.0108 34.0823 14.0257 34.0281 14.032 33.9728C14.2406 32.2027 15.5309 30.6839 17.2649 30.1794C17.5278 30.1029 17.8 30.0591 18.0677 30C42.0226 30 65.9774 30 89.9323 30C89.9503 30.0285 89.9806 30.0267 90.0084 30.0309C91.8022 30.2966 93.0323 31.2806 93.7218 32.9499C93.8696 33.308 93.9294 33.6894 94 34.0674V73.4921C93.9711 73.5098 93.9729 73.5404 93.9684 73.5683C93.6554 75.4518 92.5908 76.6979 90.7886 77.3196C90.4653 77.4312 90.1252 77.458 89.7935 77.5251H18.1025C18.0274 77.4601 17.9304 77.4802 17.8442 77.4639C15.9746 77.1075 14.7531 76.022 14.1693 74.2129C14.0859 73.9545 14.0661 73.6837 14 73.4226ZM68.9169 41.3493C68.8494 41.4094 68.7938 41.4584 68.7389 41.5085C66.5056 43.5446 64.2723 45.5804 62.039 47.6166C59.853 49.6096 57.667 51.603 55.481 53.5963C54.8009 54.2166 54.1215 54.838 53.4404 55.4569C53.1014 55.7646 52.6 55.6613 52.4324 55.2517C52.383 55.1311 52.383 55.0035 52.383 54.8755C52.3834 50.1593 52.3827 45.4427 52.3872 40.7265C52.3872 40.5649 52.343 40.5304 52.1876 40.5304C49.0298 40.535 45.8716 40.5353 42.7138 40.5304C42.5514 40.5304 42.5226 40.5624 42.5657 40.7192C42.9509 42.1191 44.2326 43.0999 45.6873 43.0999C46.9912 43.0999 48.2948 43.0992 49.5986 43.1006C49.8831 43.1006 49.8392 43.0693 49.8392 43.3371C49.8403 47.2365 49.8379 51.136 49.841 55.0351C49.8427 57.298 52.0451 58.8685 54.1744 58.1171C55.0906 57.7938 55.8437 57.2211 56.5353 56.5414C57.8562 55.242 59.2056 53.9715 60.5435 52.6895C62.1364 51.1631 63.7299 49.6371 65.323 48.111C65.6137 47.8328 65.9044 47.5547 66.2031 47.2692C66.2438 47.353 66.2267 47.4226 66.2271 47.4886C66.2281 49.8526 66.2271 52.2167 66.2285 54.5807C66.2295 55.9284 67.0758 57.1603 68.3338 57.6039C69.6338 58.0625 70.8025 57.8032 71.799 56.8581C73.4964 55.2483 75.179 53.6228 76.8674 52.0035C78.3636 50.5686 79.859 49.1325 81.3555 47.6979C81.3861 47.6687 81.4115 47.6221 81.4793 47.6322V47.8193C81.4793 50.0675 81.4776 52.3154 81.48 54.5636C81.4814 56.0692 82.4828 57.3518 83.9271 57.7204C84.0756 57.7583 84.0999 57.7253 84.0999 57.5838C84.0968 52.2938 84.0975 47.0039 84.0961 41.714C84.0961 41.6723 84.1177 41.6229 84.0648 41.5794C83.6131 42.0029 83.1622 42.4254 82.7119 42.8486C80.7126 44.7282 78.7137 46.6089 76.7141 48.4883C75.0559 50.0463 73.3966 51.6033 71.7381 53.161C71.1557 53.7079 70.5747 54.2563 69.9909 54.8018C69.8046 54.9757 69.5824 55.0163 69.3459 54.9287C69.106 54.8397 68.9822 54.6526 68.9555 54.4016C68.9482 54.3328 68.9499 54.2629 68.9499 54.1933C68.9499 49.9868 68.9499 45.7804 68.9489 41.5739C68.9489 41.5068 68.9659 41.4365 68.9179 41.3486L68.9169 41.3493ZM53.6462 53.5633C53.7046 53.5664 53.7279 53.5188 53.7592 53.4903C54.6629 52.6683 55.5648 51.8446 56.4675 51.0216C60.6725 47.1872 64.8783 43.3538 69.082 39.5176C69.2966 39.3218 69.5236 39.2168 69.8056 39.3406C70.0893 39.4651 70.1867 39.696 70.1867 39.9985C70.1832 44.2223 70.1842 48.4462 70.1842 52.6701V52.9002C70.2468 52.8522 70.284 52.8279 70.3157 52.798C70.6157 52.5174 70.9151 52.2354 71.2145 51.9541C73.5472 49.7615 75.8806 47.5693 78.2123 45.3756C80.2363 43.4713 82.2585 41.5652 84.2814 39.6594C84.3676 39.5781 84.465 39.519 84.5804 39.4922C84.9918 39.3976 85.337 39.7046 85.337 40.1653C85.337 45.3624 85.337 50.5595 85.337 55.7566C85.337 56.3765 85.3405 56.9965 85.3343 57.6164C85.3329 57.742 85.3735 57.7587 85.4838 57.7357C86.8784 57.4429 87.983 56.0893 87.9837 54.6544C87.9862 49.7528 87.9848 44.8513 87.9844 39.9498C87.9844 39.6939 87.9538 39.4414 87.8923 39.1935C87.2873 36.752 84.2852 35.8796 82.4689 37.6174C81.6824 38.3698 80.8979 39.1243 80.1121 39.8774C77.8841 42.013 75.6557 44.1486 73.4272 46.2838C73.2085 46.4935 72.9881 46.7014 72.7378 46.9386V46.7091C72.7378 44.4668 72.7398 42.2248 72.7367 39.9825C72.7346 38.6066 71.9224 37.4241 70.6512 36.921C70.138 36.7179 69.605 36.696 69.0629 36.7085C68.2604 36.7273 67.5532 36.9933 66.96 37.5291C66.4576 37.9832 65.9781 38.4627 65.4892 38.9317C64.2024 40.1664 62.9163 41.4021 61.6291 42.6365C60.0408 44.159 58.4514 45.6809 56.8624 47.2028C56.6987 47.36 56.5332 47.5154 56.3458 47.6934C56.3458 46.1708 56.3465 44.6879 56.344 43.2049C56.344 43.118 56.3757 43.0979 56.4553 43.0992C56.6869 43.1034 56.9188 43.0958 57.1507 43.1017C58.0874 43.1253 58.8788 42.7783 59.5589 42.1556C60.0926 41.6667 60.6183 41.1695 61.1454 40.6737C61.1833 40.6379 61.2473 40.616 61.248 40.5398C61.2167 40.5381 61.1889 40.5353 61.1607 40.5353C58.6983 40.5353 56.2355 40.537 53.7731 40.5308C53.5954 40.5304 53.6288 40.6274 53.6288 40.7262C53.6288 44.9441 53.6288 49.1621 53.6295 53.3801C53.6295 53.4406 53.6128 53.5045 53.6455 53.5643L53.6462 53.5633ZM20.5475 56.3195C20.575 56.2987 20.5948 56.2865 20.6112 56.2712C21.8427 55.113 23.0739 53.9548 24.3055 52.7966C26.14 51.071 27.9741 49.3453 29.8082 47.6197C31.7818 45.7633 33.755 43.9066 35.7285 42.0502C36.5087 41.3162 37.2883 40.5819 38.0696 39.8493C38.3731 39.5649 38.8057 39.6021 39.039 39.9251C39.144 40.0704 39.1565 40.2335 39.1565 40.4039C39.1558 46.1107 39.1558 51.8175 39.1561 57.5247C39.1561 57.7319 39.1568 57.7319 39.3529 57.6808C40.7702 57.3101 41.7726 56.0167 41.7729 54.5532C41.7736 49.7038 41.7736 44.8544 41.7715 40.0051C41.7715 39.8145 41.7642 39.6208 41.7305 39.4341C41.4996 38.1522 40.7802 37.2554 39.5431 36.8438C38.3342 36.4415 37.2247 36.7005 36.2897 37.5645C35.2949 38.4839 34.329 39.4341 33.3509 40.3719C32.0717 41.5982 30.7939 42.8256 29.5147 44.0516C28.0054 45.498 26.4953 46.9431 24.9856 48.3892C23.7648 49.5585 22.5559 50.741 21.3191 51.8933C20.6206 52.5442 20.1126 53.2757 20.0298 54.2524C19.9665 54.9993 20.1456 55.6836 20.5482 56.3202L20.5475 56.3195ZM35.2775 47.5279V47.7685C35.2775 50.0338 35.2775 52.2991 35.2775 54.564C35.2775 56.0351 36.3088 57.3438 37.7379 57.6954C37.87 57.7277 37.8926 57.6929 37.8926 57.5688C37.8902 52.3491 37.8905 47.1291 37.8891 41.9094C37.8891 41.8691 37.9152 41.8159 37.8509 41.7849C37.5703 42.0502 37.289 42.3169 37.0067 42.5826C34.337 45.0926 31.6667 47.602 28.9974 50.1124C26.5176 52.4444 24.0395 54.7782 21.5583 57.1088C21.4634 57.1978 21.4464 57.2385 21.5733 57.316C22.8253 58.0792 24.464 57.8946 25.5193 56.8758C26.7067 55.7298 27.9004 54.5908 29.0919 53.4489C30.8937 51.7226 32.6959 49.9969 34.4976 48.2713C34.7466 48.0328 34.9966 47.7953 35.2775 47.5276V47.5279ZM28.8649 64.7141C29.0739 64.6668 29.2418 64.6296 29.4094 64.5906C30.8193 64.2648 31.8054 63.3354 31.8471 61.84C31.8697 61.0385 31.6215 60.3462 31.0043 59.8146C30.3162 59.2221 29.481 59.001 28.6038 58.929C27.5579 58.8435 26.5075 58.8709 25.4606 58.9029C24.1223 58.9436 23.0941 59.7162 22.6741 60.9585C22.5336 61.3737 22.4387 61.8045 22.3246 62.2287C21.5691 65.0416 20.8149 67.8548 20.0566 70.6674C20.0204 70.8019 20.0503 70.8336 20.1873 70.8332C22.2207 70.8259 24.254 70.8343 26.287 70.8155C27.2206 70.8068 28.1281 70.6239 28.9758 70.2161C29.8624 69.7894 30.5415 69.1559 30.8085 68.1789C31.1434 66.9526 30.8649 65.8517 29.7547 65.1657C29.4842 64.9985 29.1883 64.8816 28.8652 64.7137L28.8649 64.7141ZM67.6008 62.7179C67.5883 62.712 67.5761 62.7061 67.5636 62.6998C67.6342 62.4328 67.7044 62.1654 67.7757 61.8984C67.7955 61.8243 67.8115 61.7715 67.6933 61.7729C67.1895 61.7795 66.685 61.7673 66.1815 61.7784C65.7511 61.7882 65.4235 62.0382 65.3237 62.4126C64.5897 65.1636 63.8582 67.9153 63.1214 70.6657C63.087 70.7943 63.0925 70.8353 63.241 70.8339C63.9072 70.8266 64.5734 70.8273 65.2396 70.8339C65.3641 70.835 65.4027 70.7922 65.4336 70.6757C65.7608 69.441 66.0911 68.2071 66.4301 66.9755C66.6064 66.3354 66.7291 65.6786 66.991 65.0642C67.3853 64.1383 68.1116 63.6452 69.0285 63.6692C69.9207 63.6929 70.4057 64.2141 70.3623 65.1024C70.3491 65.3695 70.3035 65.6309 70.2343 65.8889C69.8101 67.4745 69.388 69.0607 68.9579 70.6448C68.9137 70.8072 68.9489 70.8364 69.1078 70.8343C69.7621 70.8259 70.4169 70.828 71.0716 70.8336C71.1835 70.8346 71.2322 70.8023 71.2614 70.6928C71.607 69.3913 71.9526 68.0899 72.308 66.7909C72.4666 66.212 72.574 65.6163 72.8212 65.0649C73.2113 64.1953 73.8372 63.657 74.8396 63.6696C75.7182 63.6807 76.2043 64.1748 76.1932 65.0506C76.1894 65.3587 76.1292 65.6602 76.0493 65.9571C75.6282 67.5252 75.2064 69.0937 74.7808 70.6604C74.745 70.7926 74.7579 70.836 74.9102 70.8343C75.559 70.8263 76.2078 70.8256 76.8566 70.835C77.0075 70.8371 77.0632 70.7877 77.1004 70.6462C77.5336 69.0033 77.9773 67.3632 78.4098 65.72C78.5899 65.036 78.7328 64.3486 78.6368 63.6296C78.4932 62.5548 77.7266 61.7725 76.6556 61.6341C75.4926 61.4839 74.4728 61.8094 73.5719 62.5451C73.2475 62.81 72.9766 63.1258 72.7113 63.4477C72.6487 63.3966 72.6439 63.3288 72.6237 63.2711C72.243 62.1859 71.477 61.6303 70.3289 61.5955C69.3581 61.566 68.4996 61.8247 67.8063 62.535C67.7427 62.6004 67.6704 62.6571 67.6019 62.7176L67.6008 62.7179ZM52.5725 39.253C55.8406 39.253 59.1086 39.253 62.3766 39.253C62.4173 39.253 62.458 39.2502 62.4983 39.2537C62.5675 39.2596 62.6155 39.2373 62.6586 39.1775C62.8259 38.946 62.9649 38.6998 63.047 38.4258C63.2525 37.737 63.0157 37.1004 62.4399 36.7986C62.1739 36.6591 61.885 36.6014 61.5853 36.6004C61.168 36.599 60.7508 36.6004 60.3335 36.6004C55.4779 36.6004 50.6223 36.5997 45.7666 36.6007C44.2068 36.6011 42.9071 37.5962 42.548 39.0593C42.5162 39.1882 42.5666 39.2527 42.6992 39.253C45.9905 39.253 49.2815 39.253 52.5729 39.253H52.5725ZM37.3064 66.9265C38.1057 66.9265 38.9051 66.9282 39.7045 66.9258C40.1544 66.9244 40.3734 66.7544 40.4979 66.3263C40.6843 65.6855 40.7629 65.0353 40.6669 64.3705C40.516 63.324 40.024 62.4926 39.0894 61.9683C38.0904 61.4078 37.0122 61.3514 35.9215 61.5927C33.1155 62.213 31.2585 64.9456 31.7035 67.7947C31.8885 68.9796 32.4904 69.8938 33.5832 70.4459C34.2257 70.7707 34.9166 70.8965 35.6287 70.915C36.8401 70.9466 37.9687 70.6736 38.976 69.9741C39.1732 69.8371 39.1801 69.81 39.041 69.6194C38.8157 69.311 38.5883 69.004 38.3589 68.6987C38.1742 68.4532 38.1447 68.448 37.879 68.6104C37.1482 69.0575 36.3599 69.2091 35.5147 69.0767C34.6353 68.939 34.0397 68.4084 33.8433 67.5377C33.6166 66.5343 33.8207 65.5903 34.3502 64.7259C34.9493 63.7485 35.8234 63.2339 36.9927 63.2697C37.757 63.293 38.33 63.7113 38.4945 64.3768C38.5637 64.6563 38.5564 64.9376 38.5115 65.2214C38.4924 65.3427 38.4447 65.3792 38.321 65.3785C37.3999 65.373 36.4788 65.3799 35.5578 65.3723C35.3457 65.3705 35.2045 65.4543 35.1033 65.6289C35.039 65.7394 34.9889 65.8556 34.957 65.9797C34.8888 66.2426 34.8283 66.5078 34.7476 66.7669C34.7045 66.9056 34.7372 66.9303 34.8732 66.9293C35.684 66.9237 36.4952 66.9265 37.306 66.9265H37.3064ZM84.1076 69.8538C84.0255 70.159 83.9619 70.4289 83.8781 70.6921C83.8367 70.8218 83.8781 70.8336 83.99 70.8329C84.6274 70.8291 85.2644 70.827 85.9017 70.8343C86.0314 70.8357 86.0773 70.7915 86.1089 70.6716C86.4507 69.375 86.805 68.0819 87.142 66.7839C87.3304 66.0583 87.5818 65.3451 87.6148 64.5854C87.6489 63.8031 87.4907 63.0854 86.8947 62.5263C86.4775 62.1352 85.9636 61.9314 85.4135 61.8097C84.6128 61.6327 83.8037 61.6393 82.9942 61.7172C82.5047 61.7645 82.0158 61.833 81.5478 61.9923C81.0064 62.1762 80.763 62.5927 80.8632 63.1386C80.9091 63.389 80.9703 63.6365 81.0116 63.8876C81.0315 64.0075 81.069 64.0194 81.1792 63.9801C81.7762 63.7676 82.3927 63.6386 83.0252 63.5965C83.5474 63.5618 84.0679 63.5698 84.5686 63.7506C85.0262 63.9157 85.3148 64.2238 85.3669 64.7231C85.3878 64.9213 85.3666 65.1181 85.3196 65.309C85.1461 66.0162 84.9667 66.7217 84.7873 67.4275C84.6646 67.9112 84.4247 68.3294 84.0488 68.6584C83.3704 69.2519 82.5846 69.5047 81.6997 69.2755C80.8524 69.0561 80.5127 68.0874 81.174 67.4286C81.3016 67.3013 81.4365 67.1838 81.5871 67.0854C82.2428 66.6574 82.9619 66.4056 83.74 66.3253C83.8451 66.3145 83.9062 66.2784 83.949 66.1814C84.0756 65.8962 84.2147 65.6167 84.3405 65.3312C84.4507 65.0816 84.4375 65.0572 84.1688 65.0364C82.8788 64.9355 81.6601 65.188 80.5162 65.7926C79.9101 66.1129 79.3743 66.5193 78.9762 67.0875C78.4018 67.907 78.3646 68.907 78.9063 69.6326C79.4779 70.3983 80.2606 70.8172 81.2119 70.8204C82.2564 70.8239 83.2387 70.5662 84.1076 69.8527V69.8538ZM60.2925 69.8552C60.2101 70.1587 60.1454 70.4219 60.0658 70.6806C60.0283 70.8023 60.046 70.8357 60.1802 70.8343C60.8116 70.8273 61.4431 70.8273 62.0745 70.8343C62.207 70.8357 62.2605 70.8016 62.2956 70.667C62.6454 69.3315 63.0098 67.9998 63.3585 66.6643C63.5348 65.9891 63.7629 65.3239 63.798 64.6174C63.8342 63.8949 63.7146 63.2172 63.2118 62.6609C62.7793 62.1824 62.2122 61.9443 61.5953 61.8104C60.6896 61.6136 59.7776 61.6397 58.8659 61.7555C58.4817 61.8042 58.0971 61.8643 57.73 61.993C57.2001 62.1786 56.9574 62.5736 57.0443 63.1077C57.0878 63.3758 57.1583 63.6393 57.2039 63.9074C57.2223 64.0166 57.2609 64.0187 57.3503 63.9867C57.9528 63.7714 58.5742 63.6414 59.2126 63.5972C59.7178 63.5625 60.2209 63.5712 60.707 63.7339C61.1854 63.8938 61.4962 64.2033 61.5505 64.7276C61.5707 64.9202 61.5508 65.1115 61.506 65.2965C61.3332 66.0099 61.1625 66.7241 60.9695 67.4324C60.7045 68.4039 60.0602 69.0109 59.0968 69.2689C58.571 69.4098 58.0408 69.4247 57.5488 69.1302C56.9657 68.7815 56.8419 68.0569 57.2699 67.5315C57.4139 67.3545 57.585 67.2085 57.7748 67.0843C58.4254 66.6591 59.1402 66.4126 59.9107 66.3253C59.9987 66.3152 60.0752 66.311 60.1201 66.2099C60.256 65.9039 60.4076 65.6045 60.5429 65.2978C60.6329 65.0941 60.6103 65.0597 60.3847 65.0402C59.2491 64.9421 58.1601 65.1278 57.1184 65.5896C56.3944 65.9105 55.7435 66.3319 55.2512 66.9647C54.56 67.8534 54.5186 68.9386 55.1667 69.7338C55.739 70.4358 56.4963 70.8228 57.401 70.8218C58.4455 70.8207 59.4267 70.5645 60.2925 69.8541V69.8552ZM50.2878 70.9136C50.3486 70.9101 50.4293 70.9042 50.5103 70.901C51.1901 70.8718 51.8427 70.7314 52.4352 70.3871C53.5019 69.7672 53.9957 68.8228 53.9414 67.6003C53.9112 66.9143 53.512 66.4338 52.9755 66.0524C52.5252 65.7325 52.0256 65.5037 51.5245 65.2784C51.1661 65.1174 50.802 64.9658 50.486 64.7259C49.9561 64.3232 50.0187 63.6164 50.6094 63.3059C50.7019 63.2572 50.7989 63.2224 50.9008 63.1977C51.1991 63.1251 51.4988 63.1397 51.7978 63.1828C52.4912 63.2829 53.092 63.5962 53.6511 64.0013C53.7199 64.0513 53.7669 64.0962 53.8458 63.9995C54.1212 63.664 54.4087 63.3386 54.6883 63.0065C54.8204 62.8493 54.8221 62.6977 54.7015 62.5319C54.6007 62.3935 54.465 62.2927 54.3173 62.212C53.0569 61.5239 51.7252 61.2572 50.3159 61.6133C49.2068 61.8935 48.3779 62.5381 48.059 63.6755C47.6831 65.0162 48.0573 65.8316 49.1379 66.4863C49.5586 66.7415 50.0068 66.9425 50.4571 67.1382C50.7961 67.2857 51.141 67.4237 51.4338 67.657C51.8159 67.9616 51.8611 68.4459 51.5461 68.8208C51.407 68.9863 51.2255 69.086 51.0214 69.1427C50.551 69.2731 50.0798 69.2251 49.6122 69.126C48.8758 68.9703 48.2419 68.6142 47.6821 68.1184C47.6247 68.0676 47.5847 68.013 47.503 68.1007C47.1988 68.4265 46.8848 68.7432 46.5789 69.0673C46.4805 69.1712 46.4551 69.2985 46.5058 69.4379C46.5698 69.6139 46.6894 69.7435 46.8403 69.8475C47.8719 70.5593 49.0239 70.8833 50.2874 70.9139L50.2878 70.9136ZM44.2965 62.5368C44.3727 62.2322 44.4294 61.9697 44.5062 61.7134C44.5465 61.5785 44.5062 61.5583 44.3835 61.5597C43.9259 61.5649 43.4683 61.5611 43.0107 61.5622C42.6989 61.5628 42.5222 61.7064 42.4395 62.0114C42.1026 63.2485 41.7941 64.4929 41.4447 65.7269C40.9802 67.3663 40.5612 69.0182 40.1196 70.6643C40.0873 70.7853 40.0915 70.836 40.2417 70.8343C40.8672 70.8263 41.4927 70.827 42.1182 70.8343C42.2406 70.8357 42.2722 70.7846 42.2966 70.6816C42.4113 70.1921 42.5274 69.7029 42.6526 69.2157C42.9718 67.9738 43.2927 66.7328 43.7232 65.5221C43.9412 64.9088 44.363 64.5207 44.9436 64.2756C45.5747 64.0089 46.2371 63.8883 46.9175 63.8472C47.219 63.8288 47.3337 63.7262 47.4067 63.4335C47.519 62.9853 47.6306 62.5371 47.743 62.0889C47.8181 61.7889 47.7002 61.6199 47.3911 61.6233C46.292 61.6352 45.2124 61.7242 44.2969 62.5368H44.2965Z" fill="#0073C0"/>
<path d="M68.917 41.3492C68.965 41.4372 68.948 41.5074 68.948 41.5745C68.949 45.781 68.9487 49.9875 68.949 54.194C68.949 54.2635 68.9473 54.3334 68.9546 54.4022C68.9817 54.6536 69.1051 54.8403 69.345 54.9294C69.5811 55.017 69.8037 54.9763 69.99 54.8024C70.5738 54.2569 71.1548 53.7086 71.7372 53.1616C73.3958 51.6039 75.055 50.0469 76.7132 48.4889C78.7128 46.6096 80.7117 44.7292 82.711 42.8492C83.1613 42.426 83.6126 42.0036 84.0639 41.5801C84.1168 41.6235 84.0952 41.6729 84.0952 41.7146C84.0962 47.0046 84.0959 52.2945 84.099 57.5844C84.099 57.7259 84.0747 57.7589 83.9262 57.721C82.4819 57.3525 81.4805 56.0698 81.4791 54.5643C81.4767 52.316 81.4784 50.0682 81.4784 47.8199V47.6329C81.4102 47.6228 81.3852 47.6694 81.3546 47.6986C79.8581 49.1332 78.3627 50.5688 76.8665 52.0041C75.1781 53.6234 73.4955 55.2489 71.7981 56.8587C70.8019 57.8034 69.6333 58.0628 68.3329 57.6046C67.0749 57.1609 66.2286 55.929 66.2276 54.5813C66.2258 52.2173 66.2276 49.8533 66.2262 47.4893C66.2262 47.4228 66.2429 47.3533 66.2022 47.2699C65.9038 47.5553 65.6128 47.8335 65.3221 48.1116C63.729 49.6377 62.1355 51.1638 60.5426 52.6902C59.2047 53.9721 57.8553 55.243 56.5344 56.542C55.8431 57.2221 55.0897 57.7948 54.1735 58.1178C52.0442 58.8688 49.8418 57.2986 49.8401 55.0357C49.8369 51.1363 49.8394 47.2368 49.8383 43.3377C49.8383 43.07 49.8818 43.1013 49.5977 43.1013C48.2939 43.0999 46.9903 43.1006 45.6864 43.1006C44.2317 43.1006 42.9504 42.1197 42.5648 40.7199C42.5217 40.5631 42.5509 40.5307 42.7129 40.5311C45.8707 40.5359 49.0289 40.5359 52.1867 40.5311C52.3418 40.5311 52.3863 40.5655 52.3863 40.7272C52.3814 45.4434 52.3825 50.1599 52.3821 54.8762C52.3821 55.0041 52.3821 55.1314 52.4315 55.2524C52.5991 55.662 53.1005 55.7652 53.4395 55.4575C54.121 54.8386 54.8 54.2173 55.4801 53.597C57.6661 51.6036 59.8521 49.6106 62.0381 47.6172C64.2714 45.5811 66.5047 43.5449 68.738 41.5092C68.7929 41.4591 68.8485 41.4101 68.916 41.3499L68.917 41.3492Z" fill="#FDFEFE"/>
<path d="M53.6465 53.5629C53.6141 53.5034 53.6308 53.4395 53.6305 53.3786C53.6294 49.1606 53.6294 44.9427 53.6298 40.7247C53.6298 40.626 53.5964 40.5286 53.7741 40.5293C56.2365 40.5359 58.6989 40.5338 61.1617 40.5338C61.1895 40.5338 61.2173 40.5366 61.2489 40.5384C61.2482 40.6145 61.1846 40.6364 61.1464 40.6722C60.6192 41.1681 60.0935 41.6653 59.5598 42.1541C58.8797 42.7772 58.0883 43.1242 57.1516 43.1002C56.9201 43.0943 56.6881 43.102 56.4562 43.0978C56.3766 43.0964 56.3446 43.1166 56.345 43.2035C56.3474 44.6864 56.3467 46.1694 56.3467 47.692C56.5341 47.5139 56.6993 47.3585 56.8634 47.2014C58.4524 45.6795 60.0417 44.1576 61.63 42.635C62.9175 41.4007 64.2033 40.1649 65.4902 38.9303C65.9791 38.4612 66.4585 37.9817 66.961 37.5276C67.5541 36.9915 68.2614 36.7255 69.0639 36.7071C69.6056 36.6945 70.1389 36.7164 70.6521 36.9195C71.9233 37.4226 72.7356 38.6052 72.7377 39.981C72.7408 42.2233 72.7387 44.4653 72.7387 46.7076V46.9371C72.9887 46.6996 73.2091 46.4917 73.4282 46.2824C75.6566 44.1472 77.885 42.0116 80.1131 39.876C80.8989 39.1229 81.6833 38.3684 82.4698 37.6159C84.2862 35.8781 87.2882 36.7509 87.8932 39.1921C87.9548 39.4403 87.9854 39.6928 87.9854 39.9483C87.9854 44.8499 87.9868 49.7514 87.9847 54.6529C87.984 56.0882 86.8793 57.4415 85.4847 57.7343C85.3748 57.7572 85.3341 57.7405 85.3352 57.615C85.3415 56.995 85.338 56.3751 85.338 55.7551C85.338 50.5581 85.338 45.361 85.338 40.1639C85.338 39.7032 84.9927 39.3965 84.5814 39.4907C84.4659 39.5172 84.3686 39.5766 84.2824 39.658C82.2598 41.5637 80.2376 43.4698 78.2132 45.3742C75.8816 47.5678 73.5481 49.7601 71.2154 51.9527C70.9161 52.2343 70.6167 52.516 70.3166 52.7966C70.2846 52.8265 70.2474 52.8504 70.1852 52.8988V52.6686C70.1852 48.4447 70.1841 44.2209 70.1876 39.997C70.1876 39.6945 70.0903 39.4633 69.8065 39.3391C69.5246 39.2154 69.2972 39.3207 69.083 39.5161C64.8793 43.3523 60.6738 47.1861 56.4684 51.0202C55.5658 51.8432 54.6638 52.6669 53.7602 53.4888C53.7289 53.5173 53.7052 53.5646 53.6472 53.5618L53.6465 53.5629Z" fill="#FDFEFE"/>
<path d="M20.5475 56.3191C20.1448 55.6825 19.9658 54.9982 20.029 54.2514C20.1118 53.2747 20.6198 52.5431 21.3183 51.8922C22.5551 50.7399 23.764 49.5578 24.9848 48.3881C26.4945 46.942 28.0046 45.497 29.514 44.0505C30.7932 42.8245 32.0713 41.5971 33.3501 40.3708C34.3279 39.4334 35.2941 38.4828 36.2889 37.5635C37.2239 36.6994 38.3334 36.4404 39.5423 36.8427C40.7798 37.2544 41.4989 38.1511 41.7297 39.4331C41.7635 39.6198 41.7704 39.8134 41.7708 40.004C41.7728 44.8534 41.7728 49.7027 41.7721 54.5521C41.7721 56.0156 40.7697 57.309 39.3522 57.6797C39.156 57.7308 39.1554 57.7308 39.1554 57.5236C39.1554 51.8168 39.155 46.11 39.1557 40.4028C39.1557 40.2324 39.1432 40.0693 39.0382 39.924C38.8049 39.601 38.3723 39.5634 38.0688 39.8482C37.2875 40.5808 36.508 41.3155 35.7277 42.0492C33.7542 43.9055 31.781 45.7623 29.8074 47.6186C27.9733 49.3443 26.1388 51.0699 24.3047 52.7955C23.0735 53.9537 21.8419 55.1123 20.6104 56.2701C20.5941 56.2858 20.5742 56.2976 20.5468 56.3184L20.5475 56.3191Z" fill="#FDFDFE"/>
<path d="M35.2777 47.5278C34.9971 47.7956 34.7471 48.0331 34.4978 48.2716C32.6957 49.9972 30.8936 51.7232 29.0921 53.4492C27.9006 54.5907 26.7065 55.7301 25.5195 56.8761C24.4642 57.8949 22.8255 58.0792 21.5734 57.3163C21.4469 57.2391 21.4636 57.1984 21.5585 57.1091C24.0397 54.7784 26.5177 52.445 28.9975 50.1126C31.6668 47.6022 34.3372 45.0929 37.0068 42.5828C37.2892 42.3172 37.5705 42.0505 37.851 41.7852C37.9154 41.8162 37.8893 41.8694 37.8893 41.9097C37.8907 47.1294 37.8903 52.3494 37.8928 57.5691C37.8928 57.6932 37.8702 57.728 37.738 57.6957C36.309 57.3441 35.2777 56.035 35.2777 54.5643C35.2777 52.299 35.2777 50.0337 35.2777 47.7688V47.5282V47.5278Z" fill="#FDFEFE"/>
<path d="M28.8654 64.714C29.1888 64.8816 29.4843 64.9988 29.7548 65.166C30.865 65.852 31.1436 66.9528 30.8087 68.1792C30.5417 69.1562 29.8626 69.7897 28.976 70.2164C28.1283 70.6242 27.2208 70.8071 26.2872 70.8158C24.2542 70.8349 22.2209 70.8262 20.1875 70.8335C20.0502 70.8339 20.0203 70.8022 20.0568 70.6677C20.8148 67.8555 21.5693 65.0422 22.3248 62.229C22.4389 61.8048 22.5338 61.3743 22.6743 60.9588C23.0943 59.7165 24.1224 58.9439 25.4607 58.9032C26.5077 58.8716 27.5581 58.8438 28.604 58.9293C29.4812 59.0009 30.3164 59.2224 31.0045 59.8149C31.622 60.3465 31.8699 61.0388 31.8473 61.8402C31.8056 63.3357 30.8192 64.2648 29.4096 64.5909C29.242 64.6295 29.074 64.6671 28.8651 64.7143L28.8654 64.714ZM22.8332 68.795C22.8818 68.7991 22.9156 68.8047 22.9496 68.8047C24.0967 68.805 25.2434 68.8078 26.3905 68.8036C26.7691 68.8023 27.138 68.7313 27.492 68.5926C28.3595 68.2525 28.7785 67.4695 28.5351 66.6434C28.348 66.0085 27.7427 65.5589 26.9913 65.5349C26.3317 65.5137 25.6707 65.5231 25.0105 65.5273C24.8769 65.528 24.855 65.4915 24.8909 65.3705C24.9611 65.1323 25.0216 64.8913 25.0824 64.6504C25.1256 64.481 25.1843 64.319 25.2827 64.1733C25.3762 64.0349 25.4976 63.9595 25.6746 63.9637C26.016 63.972 26.3582 63.9637 26.6999 63.9668C27.1405 63.9706 27.5807 63.9699 28.0115 63.8614C28.7176 63.6838 29.2597 63.3197 29.4513 62.568C29.5963 61.9981 29.4085 61.5005 28.9398 61.2113C28.6731 61.0464 28.3776 60.9665 28.0699 60.9432C27.1676 60.8754 26.2639 60.9227 25.3606 60.9154C25.0915 60.9133 24.8874 61.1056 24.8119 61.3879C24.3057 63.2801 23.7994 65.1726 23.2935 67.0648C23.1402 67.6385 22.9879 68.2129 22.8328 68.795H22.8332Z" fill="#FDFDFE"/>
<path d="M67.6006 62.7178C67.6688 62.657 67.7411 62.6003 67.8051 62.5353C68.4984 61.825 69.3569 61.5663 70.3277 61.5958C71.4758 61.6306 72.2421 62.1862 72.6225 63.2714C72.6427 63.3291 72.6479 63.3969 72.7101 63.448C72.9754 63.126 73.2463 62.8103 73.5707 62.5454C74.4716 61.8097 75.4914 61.4839 76.6544 61.6344C77.7253 61.7728 78.4924 62.5551 78.6356 63.6299C78.7316 64.3493 78.5887 65.0367 78.4086 65.7202C77.976 67.3635 77.5324 69.0036 77.0991 70.6465C77.0619 70.788 77.0063 70.8377 76.8554 70.8353C76.2066 70.8259 75.5578 70.8262 74.909 70.8346C74.7567 70.8367 74.7438 70.7928 74.7796 70.6607C75.2052 69.0936 75.627 67.5255 76.048 65.9574C76.1277 65.6604 76.1878 65.359 76.192 65.0509C76.2031 64.1751 75.717 63.681 74.8384 63.6699C73.836 63.6573 73.2101 64.1956 72.82 65.0652C72.5728 65.6166 72.4653 66.2122 72.3068 66.7912C71.9514 68.0898 71.6055 69.3913 71.2602 70.6931C71.231 70.8029 71.1827 70.8349 71.0704 70.8339C70.4156 70.8283 69.7609 70.8262 69.1065 70.8346C68.9476 70.8367 68.9125 70.8075 68.9567 70.6451C69.3868 69.061 69.8089 67.4751 70.2331 65.8892C70.3019 65.6312 70.3478 65.3698 70.361 65.1027C70.4045 64.2144 69.9195 63.6931 69.0273 63.6695C68.1104 63.6452 67.384 64.1386 66.9897 65.0645C66.7279 65.6789 66.6052 66.3357 66.4289 66.9758C66.0899 68.2073 65.7596 69.4413 65.4324 70.676C65.4014 70.7922 65.3632 70.8353 65.2384 70.8342C64.5722 70.8276 63.906 70.8269 63.2398 70.8342C63.091 70.836 63.0854 70.7949 63.1202 70.6659C63.857 67.9156 64.5885 65.1639 65.3225 62.4129C65.4223 62.0384 65.7502 61.7884 66.1803 61.7787C66.6841 61.7676 67.1883 61.7794 67.6921 61.7731C67.8103 61.7718 67.7943 61.8246 67.7745 61.8987C67.7032 62.1657 67.633 62.4327 67.5624 62.7001C67.5749 62.706 67.5871 62.7119 67.5996 62.7182L67.6006 62.7178Z" fill="#FDFDFE"/>
<path d="M52.5727 39.2529C49.2813 39.2529 45.9904 39.2529 42.699 39.2529C42.5664 39.2529 42.516 39.1884 42.5478 39.0593C42.907 37.5961 44.2067 36.601 45.7664 36.6007C50.6221 36.5996 55.4777 36.6003 60.3334 36.6003C60.7506 36.6003 61.1678 36.5993 61.5851 36.6003C61.8848 36.6014 62.1734 36.6591 62.4397 36.7985C63.0155 37.1 63.2527 37.737 63.0468 38.4257C62.9651 38.6997 62.826 38.9459 62.6584 39.1775C62.6153 39.2373 62.5673 39.2595 62.4981 39.2536C62.4578 39.2501 62.4171 39.2529 62.3764 39.2529C59.1084 39.2529 55.8404 39.2529 52.5723 39.2529H52.5727Z" fill="#FDFEFE"/>
<path d="M37.3065 66.9264C36.4957 66.9264 35.6845 66.9237 34.8736 66.9292C34.7377 66.9303 34.7046 66.9056 34.7481 66.7668C34.8288 66.5078 34.8893 66.2425 34.9574 65.9797C34.9894 65.8555 35.0395 65.7394 35.1038 65.6288C35.2053 65.4543 35.3462 65.3705 35.5583 65.3722C36.4793 65.3799 37.4004 65.3729 38.3214 65.3785C38.4452 65.3792 38.4928 65.343 38.512 65.2213C38.5568 64.9376 38.5641 64.6563 38.4949 64.3768C38.3305 63.7116 37.7575 63.2933 36.9932 63.2697C35.8242 63.2339 34.9498 63.7485 34.3507 64.7258C33.8208 65.5906 33.6167 66.5342 33.8437 67.5377C34.0405 68.4083 34.6358 68.9389 35.5151 69.0766C36.3604 69.2087 37.1486 69.0575 37.8795 68.6104C38.1451 68.4476 38.175 68.4532 38.3593 68.6987C38.5888 69.004 38.8162 69.311 39.0415 69.6194C39.1806 69.8099 39.1736 69.837 38.9765 69.974C37.9692 70.6736 36.8406 70.9466 35.6292 70.9149C34.9171 70.8965 34.2262 70.7706 33.5837 70.4459C32.4908 69.8934 31.889 68.9796 31.704 67.7946C31.2589 64.9452 33.116 62.213 35.9219 61.5927C37.013 61.3514 38.0909 61.4077 39.0898 61.9682C40.0245 62.4926 40.5165 63.3239 40.6674 64.3705C40.7633 65.0353 40.6847 65.6855 40.4984 66.3263C40.3739 66.7543 40.1549 66.9244 39.7049 66.9257C38.9056 66.9282 38.1062 66.9264 37.3068 66.9264H37.3065Z" fill="#FDFDFE"/>
<path d="M84.1079 69.8538C83.2387 70.5676 82.2564 70.8252 81.2123 70.8214C80.261 70.8183 79.4786 70.3993 78.9067 69.6337C78.3646 68.908 78.4022 67.908 78.9766 67.0885C79.3747 66.5203 79.9105 66.1142 80.5165 65.7936C81.6605 65.1887 82.8792 64.9366 84.1691 65.0374C84.4379 65.0583 84.4511 65.0826 84.3409 65.3323C84.215 65.6177 84.0759 65.8973 83.9494 66.1824C83.9063 66.279 83.8454 66.3156 83.7404 66.3263C82.9626 66.407 82.2432 66.6584 81.5874 67.0864C81.4369 67.1845 81.3023 67.3023 81.1744 67.4296C80.5134 68.0885 80.8531 69.0572 81.7001 69.2766C82.585 69.5057 83.3708 69.2529 84.0492 68.6594C84.4247 68.3305 84.6646 67.9122 84.7877 67.4285C84.9671 66.7227 85.1465 66.0172 85.32 65.31C85.3669 65.1188 85.3882 64.922 85.3673 64.7241C85.3148 64.2248 85.0262 63.9168 84.569 63.7516C84.0679 63.5705 83.5478 63.5628 83.0255 63.5976C82.3931 63.6396 81.7769 63.769 81.1796 63.9811C81.0697 64.02 81.0318 64.0082 81.012 63.8886C80.9706 63.6376 80.9094 63.39 80.8635 63.1397C80.7634 62.5938 81.0068 62.1772 81.5482 61.9933C82.0162 61.8344 82.505 61.7655 82.9946 61.7183C83.804 61.6404 84.6131 61.6338 85.4139 61.8107C85.9639 61.9324 86.4779 62.1358 86.8951 62.5274C87.4911 63.0861 87.6493 63.8041 87.6152 64.5864C87.5821 65.3458 87.3308 66.0593 87.1423 66.7849C86.8054 68.0826 86.4511 69.376 86.1093 70.6726C86.0776 70.7925 86.0318 70.8367 85.9021 70.8353C85.2651 70.828 84.6277 70.8301 83.9904 70.8339C83.8788 70.8346 83.8371 70.8224 83.8784 70.6931C83.9622 70.4299 84.0255 70.1604 84.1079 69.8548V69.8538Z" fill="#FDFDFE"/>
<path d="M60.2927 69.8551C59.427 70.5651 58.4461 70.8213 57.4013 70.8227C56.4965 70.8238 55.7393 70.4364 55.1669 69.7348C54.5185 68.9396 54.5599 67.8544 55.2514 66.9657C55.7438 66.3329 56.3947 65.9115 57.1186 65.5905C58.1606 65.1288 59.2493 64.9431 60.3849 65.0412C60.6105 65.0606 60.6331 65.0951 60.5431 65.2988C60.4078 65.6051 60.2562 65.9045 60.1203 66.2108C60.0754 66.312 59.9986 66.3162 59.911 66.3263C59.1405 66.4135 58.4256 66.6601 57.775 67.0853C57.5852 67.2094 57.4141 67.3555 57.2702 67.5324C56.8422 68.0578 56.9659 68.7828 57.549 69.1312C58.041 69.4253 58.5713 69.4107 59.097 69.2699C60.0608 69.0119 60.7048 68.4045 60.9697 67.4334C61.1627 66.7254 61.3334 66.0109 61.5062 65.2974C61.5511 65.1125 61.5705 64.9212 61.5507 64.7286C61.4961 64.2043 61.1856 63.8945 60.7072 63.7349C60.2211 63.5725 59.7176 63.5634 59.2128 63.5982C58.5744 63.6424 57.9531 63.7724 57.3505 63.9876C57.2611 64.0196 57.2226 64.0175 57.2041 63.9084C57.1586 63.6406 57.0883 63.3767 57.0445 63.1087C56.9576 62.5746 57.2003 62.1796 57.7302 61.9939C58.0974 61.8653 58.4819 61.8051 58.8661 61.7564C59.7778 61.6407 60.6898 61.6146 61.5956 61.8114C62.2124 61.9452 62.7795 62.1834 63.212 62.6619C63.7148 63.2182 63.8344 63.8962 63.7983 64.6184C63.7628 65.3249 63.5351 65.99 63.3588 66.6653C63.0097 68.0008 62.6456 69.3325 62.2958 70.668C62.2607 70.8026 62.2072 70.8366 62.0747 70.8353C61.4433 70.828 60.8119 70.8283 60.1804 70.8353C60.0462 70.8366 60.0288 70.8033 60.066 70.6816C60.1457 70.4229 60.2103 70.1597 60.2927 69.8561V69.8551Z" fill="#FDFDFE"/>
<path d="M50.2876 70.9135C49.024 70.8829 47.8717 70.5589 46.8405 69.8471C46.6896 69.7432 46.5699 69.6135 46.506 69.4375C46.4552 69.2984 46.4806 69.1712 46.579 69.0669C46.885 68.7428 47.1989 68.4261 47.5032 68.1003C47.5849 68.0127 47.6249 68.0672 47.6822 68.118C48.242 68.6138 48.8759 68.9699 49.6123 69.1256C50.08 69.2247 50.5511 69.2727 51.0216 69.1423C51.2257 69.0857 51.4072 68.9859 51.5462 68.8204C51.8613 68.4452 51.8164 67.9612 51.4339 67.6566C51.1412 67.4233 50.7962 67.2853 50.4572 67.1378C50.0066 66.9421 49.5588 66.7408 49.1381 66.4859C48.0574 65.8312 47.6833 65.0155 48.0591 63.6751C48.378 62.5378 49.2069 61.8931 50.3161 61.6129C51.7256 61.2568 53.057 61.5239 54.3174 62.2116C54.4652 62.2923 54.6008 62.3931 54.7016 62.5315C54.8223 62.6974 54.8205 62.8489 54.6884 63.0061C54.4089 63.3382 54.121 63.6636 53.8459 63.9991C53.767 64.0955 53.7201 64.0506 53.6512 64.0009C53.0921 63.5958 52.4913 63.2825 51.798 63.1824C51.4993 63.1393 51.1992 63.1247 50.9009 63.1973C50.799 63.222 50.7017 63.2568 50.6095 63.3055C50.0188 63.6156 49.9562 64.3229 50.4861 64.7255C50.8018 64.9654 51.1662 65.117 51.5247 65.278C52.0257 65.5033 52.5254 65.7321 52.9756 66.052C53.5125 66.4334 53.9113 66.9139 53.9415 67.5999C53.9954 68.8224 53.5017 69.7668 52.4353 70.3868C51.8428 70.731 51.1902 70.8714 50.5104 70.9007C50.4294 70.9041 50.3488 70.9097 50.2879 70.9132L50.2876 70.9135Z" fill="#FDFDFE"/>
<path d="M44.2963 62.5367C45.2118 61.7242 46.2914 61.6351 47.3905 61.6233C47.6996 61.6198 47.8175 61.7888 47.7424 62.0889C47.6304 62.5371 47.5185 62.9853 47.4062 63.4335C47.3328 63.7262 47.2184 63.8288 46.9169 63.8472C46.2365 63.8886 45.5741 64.0092 44.943 64.2756C44.3624 64.5211 43.941 64.9087 43.7226 65.5221C43.2922 66.7328 42.9712 67.9737 42.652 69.2157C42.5269 69.7025 42.4111 70.1921 42.296 70.6816C42.272 70.7842 42.24 70.8357 42.1176 70.8343C41.4921 70.827 40.8666 70.8263 40.2411 70.8343C40.0905 70.836 40.0864 70.7852 40.1191 70.6642C40.5606 69.0186 40.9796 67.3663 41.4441 65.7269C41.7936 64.4929 42.102 63.2485 42.4389 62.0114C42.522 61.7064 42.6986 61.5628 43.0102 61.5621C43.4678 61.5611 43.9253 61.5653 44.3829 61.5597C44.5056 61.5583 44.546 61.5785 44.5056 61.7134C44.4288 61.9696 44.3721 62.2322 44.296 62.5367H44.2963Z" fill="#FDFDFE"/>
<path d="M22.833 68.795C22.9881 68.2129 23.1404 67.6389 23.2937 67.0648C23.7996 65.1723 24.3059 63.2801 24.8121 61.3879C24.8876 61.1056 25.0917 60.9129 25.3608 60.9154C26.2638 60.9227 27.1678 60.8754 28.0701 60.9432C28.3778 60.9665 28.6733 61.0465 28.94 61.2113C29.4087 61.5009 29.5965 61.9985 29.4515 62.568C29.2599 63.3197 28.7175 63.6838 28.0117 63.8614C27.5812 63.9699 27.1407 63.9706 26.7001 63.9668C26.3583 63.9637 26.0166 63.972 25.6748 63.9637C25.4978 63.9595 25.3764 64.0349 25.2829 64.1733C25.1849 64.319 25.1257 64.481 25.0826 64.6504C25.0214 64.891 24.9613 65.1323 24.891 65.3705C24.8552 65.4915 24.8771 65.528 25.0107 65.5273C25.6709 65.5231 26.3316 65.5137 26.9915 65.5349C27.7425 65.5589 28.3482 66.0088 28.5353 66.6434C28.7787 67.4695 28.3597 68.2525 27.4922 68.5926C27.1382 68.7313 26.7697 68.8023 26.3907 68.8037C25.2436 68.8078 24.0969 68.805 22.9498 68.8047C22.9158 68.8047 22.8817 68.7991 22.8334 68.795H22.833Z" fill="#0073C0"/>
</g>
<defs>
<clipPath id="clip0_801_8801">
<rect width="80" height="47.5248" fill="white" transform="translate(14 30)"/>
</clipPath>
</defs>
</svg>
