<svg width="108" height="108" viewBox="0 0 108 108" fill="none" xmlns="http://www.w3.org/2000/svg">
<path d="M93.7577 57.4298L92.0071 57.5841C91.846 57.5966 91.726 57.4721 91.7751 57.3453L92.4322 55.6712C92.4893 55.5272 92.3259 55.3947 92.1499 55.4415L89.1584 55.5421L88.1277 57.8503L87.3049 59.9369L85.8251 63.7101C85.7074 64.0232 85.6297 64.2928 85.5932 64.5202C85.4652 65.3178 85.68 65.92 86.2376 66.3291C86.7953 66.7371 87.5952 66.9027 88.6373 66.825C89.7034 66.7451 90.6119 66.5154 91.3603 66.136C91.4346 66.0983 91.4769 66.0286 91.462 65.8572L91.7569 64.4437C91.7443 64.3111 91.5706 64.2368 91.4255 64.3008C91.0632 64.4585 90.7159 64.5499 90.3833 64.5751C89.6017 64.6334 89.2578 64.3671 89.3538 63.774C89.3789 63.6152 89.4132 63.4884 89.4555 63.3947L90.885 59.7609C90.9136 59.6866 90.9947 59.6341 91.0884 59.6272L93.1155 59.5027C93.2092 59.4958 93.2904 59.4421 93.3189 59.369L93.9897 57.6675C94.04 57.5407 93.9188 57.4161 93.7577 57.4287V57.4298Z" fill="url(#paint0_linear_801_8776)"/>
<path d="M57.4441 56.1248C57.331 56.1248 57.2315 56.2014 57.2018 56.3111L56.731 58.056C56.6876 58.216 56.8087 58.3725 56.9733 58.3725H61.6401C61.8057 58.3725 61.9257 58.5291 61.8823 58.689L61.2961 60.883C61.2664 60.9927 61.167 61.0693 61.0539 61.0693H56.1174C56.0031 61.0693 55.9037 61.1458 55.8752 61.2555L54.6491 65.8275C54.6193 65.9372 54.5199 66.0137 54.4068 66.0137H49.5526C49.3869 66.0137 49.267 65.8572 49.3104 65.6972L51.878 56.134H51.8734L52.5488 53.6155C52.5785 53.5058 52.6779 53.4292 52.791 53.4292H63.8455C64.0111 53.4292 64.1311 53.5858 64.0877 53.7458L63.5015 55.9386C63.4718 56.0483 63.3724 56.1248 63.2593 56.1248H57.4441Z" fill="url(#paint1_linear_801_8776)"/>
<path d="M71.882 66.1954H68.0369C67.9694 66.1954 67.9203 66.1314 67.9374 66.0663C67.9592 65.9863 67.8814 65.9154 67.8037 65.944C67.2095 66.1645 66.5662 66.2754 65.8737 66.2754C62.9621 66.2754 61.5075 65.6126 61.5075 64.286C61.5075 64.1008 61.5361 63.9032 61.5943 63.6918C61.8537 62.7193 62.4925 62.0246 63.5118 61.6075C64.1357 61.3538 65.123 61.1664 66.4759 61.0453C67.7957 60.9264 68.7705 60.7402 69.4012 60.4865C69.4309 60.4739 69.4527 60.4488 69.4618 60.4179L69.5121 60.2294C69.5486 60.0923 69.5681 59.9677 69.5681 59.8569C69.5783 59.3655 69.2458 59.1198 68.5693 59.1198C67.7672 59.1198 67.2484 59.4661 67.0153 60.1586C67.0016 60.2008 66.9627 60.2294 66.9182 60.2294H62.9004C62.8227 60.2294 62.7725 60.146 62.8102 60.0786C63.8774 58.1611 65.9697 57.2024 69.0847 57.2024C72.0169 57.2024 73.4852 58.1108 73.4909 59.9289C73.4909 60.3037 73.4327 60.7105 73.3161 61.1493L71.9814 66.1211C71.9689 66.1657 71.9289 66.1965 71.882 66.1965V66.1954ZM68.6082 63.5649L68.8676 62.5925C68.8882 62.5148 68.8162 62.4462 68.7396 62.4679C68.5214 62.5308 68.2254 62.5845 67.8506 62.6291C67.3615 62.6873 67.0016 62.7639 66.7685 62.8587C66.3879 63.0176 66.156 63.2518 66.0714 63.5638C66.0497 63.6483 66.0394 63.7272 66.0394 63.8015C66.0394 64.2025 66.3982 64.4037 67.117 64.4037C67.9626 64.4037 68.4585 64.1237 68.6071 63.5638L68.6082 63.5649Z" fill="url(#paint2_linear_801_8776)"/>
<path d="M85.5772 60.4134H81.6738C81.5081 60.4134 81.3801 60.2751 81.3824 60.1106C81.3824 60.1037 81.3824 60.098 81.3824 60.0911C81.3824 59.6775 81.0841 59.4706 80.4865 59.4706C79.6089 59.4706 79.1713 59.7266 79.1713 60.2385C79.1713 60.5711 79.6786 60.827 80.6933 61.0064C82.3102 61.2967 83.3192 61.5286 83.7203 61.7035C84.5442 62.0623 84.9567 62.5925 84.9567 63.2941C84.9567 63.4792 84.9304 63.6712 84.8779 63.8723C84.3808 65.7246 82.2337 66.6513 78.4354 66.6513C75.141 66.6513 73.4475 65.8046 73.3549 64.1123C73.3458 63.9454 73.4806 63.806 73.6463 63.806H77.5486C77.7143 63.806 77.84 63.9443 77.84 64.11V64.1123C77.84 64.5374 78.168 64.7488 78.8227 64.7488C79.7415 64.7488 80.202 64.4928 80.202 63.9809C80.202 63.6541 79.6946 63.4004 78.6799 63.221C77.079 62.9364 76.07 62.7033 75.6529 62.5239C74.829 62.1708 74.4165 61.6406 74.4165 60.9333C74.4165 60.7539 74.4428 60.5608 74.4954 60.3551C74.997 58.4971 77.1475 57.5692 80.9459 57.5692C84.1363 57.5692 85.7772 58.4137 85.8674 60.1026C85.8766 60.2705 85.744 60.4134 85.5761 60.4134H85.5772Z" fill="url(#paint3_linear_801_8776)"/>
<path d="M39.7449 53.5618C39.3312 53.4407 38.8913 53.3584 38.4616 53.355C35.9225 53.3378 33.3823 53.339 30.8421 53.3424C30.4582 53.3424 30.0742 53.3435 29.6903 53.3435C29.68 53.3435 29.6697 53.3435 29.6594 53.3424H27.7134C27.814 53.6109 27.934 53.8783 28.0688 54.1434C29.2995 56.5625 29.4503 59.0182 28.2242 61.4944C27.3375 63.2861 25.9594 64.6334 24.3231 65.7383C23.922 66.0092 23.5049 66.256 23.0947 66.5131C23.1038 66.5382 23.1118 66.5634 23.1209 66.5874C23.7574 66.392 24.3928 66.192 25.0315 66.0023C25.1949 65.9532 25.3686 65.9075 25.5366 65.9075C28.5213 65.9018 31.506 65.9052 34.4919 65.9018C34.8656 65.9006 35.2426 65.8949 35.614 65.8526C36.5373 65.7486 37.3795 65.4355 38.0411 64.7579C39.0364 63.7421 39.402 62.468 39.4386 61.0899C39.466 60.0237 39.0261 59.5107 37.9794 59.2821C38.0102 59.2707 38.0331 59.2593 38.0582 59.2536C38.1165 59.2387 38.1759 59.2227 38.2365 59.2124C38.9153 59.097 39.4912 58.7862 39.9311 58.2594C40.6316 57.423 40.9881 56.4402 41.0292 55.3581C41.0647 54.4337 40.6224 53.82 39.7449 53.5618ZM34.1422 61.443C33.9605 62.5319 33.2144 63.1741 32.1037 63.1924C31.81 63.197 31.5152 63.1936 31.1838 63.1936C31.3209 62.6714 31.45 62.1789 31.5815 61.6864C31.6991 61.243 31.8294 60.8008 31.9345 60.354C31.9711 60.1963 32.0271 60.1334 32.1917 60.1449C32.547 60.17 32.907 60.1529 33.2578 60.202C33.9594 60.3003 34.2588 60.7402 34.1422 61.443ZM35.2758 57.2596C35.0644 57.96 34.5227 58.2583 33.8566 58.3543C33.412 58.4171 32.9573 58.4091 32.451 58.4365C32.6636 57.6412 32.859 56.9053 33.0624 56.1717C33.0761 56.1237 33.1584 56.0597 33.2064 56.062C33.6989 56.086 34.2016 56.0712 34.6804 56.1694C35.2518 56.286 35.4449 56.6985 35.2758 57.2596Z" fill="#282D6A"/>
<path d="M39.3655 65.9029C39.5232 65.3064 39.6706 64.7442 39.8203 64.1843C40.7596 60.675 41.7035 57.167 42.6348 53.6555C42.6999 53.4109 42.7913 53.3298 43.0507 53.3321C44.6299 53.3458 46.2091 53.339 47.7883 53.339H48.1003C47.9232 54.0051 47.754 54.6416 47.5826 55.2781C46.6651 58.7039 45.744 62.1274 44.839 65.5555C44.7636 65.8423 44.6448 65.9109 44.3648 65.9086C42.8039 65.8949 41.2418 65.9017 39.6798 65.9017H39.3655V65.9029Z" fill="#282D6A"/>
<path d="M27.2438 62.6188C27.2964 62.2417 27.3661 61.8657 27.4004 61.4864C27.6792 58.3919 26.5879 55.8963 24.1094 54.0166C23.0376 53.2041 21.8183 52.6762 20.5739 52.1883C18.0349 51.1907 16.4385 49.3132 15.6169 46.749C15.145 45.275 14.9519 43.3507 15.1324 42C15.1587 42.0948 15.185 42.1897 15.2101 42.2845C15.5289 43.5049 16.2111 44.5151 17.051 45.4269C18.4359 46.9296 20.1306 48.0014 21.9394 48.9122C23.9392 49.9177 25.6486 51.2558 26.7925 53.2235C27.8609 55.061 28.2025 57.0538 28.0346 59.1541C27.9489 60.2374 27.7238 61.2898 27.3867 62.3194C27.3524 62.4245 27.3101 62.5262 27.2712 62.6291C27.2621 62.6256 27.2518 62.6222 27.2427 62.6188H27.2438Z" fill="#282D6A"/>
<path d="M20.3957 57.8743C21.2493 57.6583 22.0297 57.7795 22.777 58.1097C24.2214 58.7462 25.2738 59.7735 25.8063 61.2807C26.0131 61.8669 26.06 62.4736 25.8532 63.0747C25.4772 64.1683 24.4157 64.5831 23.3495 64.4756C22.0651 64.3465 20.9522 63.7786 19.9009 63.0758C18.1823 61.9274 16.8373 60.4477 16.0077 58.5359C15.4958 57.3567 15.2558 56.134 15.5552 54.8336C15.5883 54.925 15.6238 55.0153 15.6546 55.1067C16.122 56.4859 16.7425 57.7817 17.7629 58.849C18.4188 59.5346 19.2107 59.9803 20.1443 60.1723C20.9282 60.3334 21.3738 59.8729 21.1201 59.1176C21.0081 58.7862 20.7979 58.4879 20.6242 58.1783C20.5693 58.0811 20.4905 57.9989 20.3945 57.8743H20.3957Z" fill="#282D6A"/>
<path d="M26.7376 62.1274C26.5251 59.818 25.1675 58.3508 23.1804 57.4024C22.3714 57.0161 21.4995 56.7328 20.6288 56.5065C18.1868 55.8712 16.4568 54.3845 15.3004 52.1848C14.5976 50.8513 14.2662 49.6846 14 47.7843C14.04 47.8426 14.0708 47.8734 14.0868 47.9112C14.6993 49.3624 15.698 50.5028 16.9276 51.4592C18.2211 52.4659 19.6872 53.1321 21.2275 53.6623C22.8239 54.2108 24.2648 55.021 25.3767 56.3271C26.2337 57.3338 26.7285 58.4982 26.8747 59.8157C26.9616 60.5951 26.9182 61.3607 26.7376 62.1263V62.1274Z" fill="#DF1F28"/>
<path d="M28.4688 55.045C28.4688 55.045 28.0986 53.4075 24.6865 49.7063C24.6865 49.7063 26.5388 51.0958 27.3398 51.5998C29.047 52.675 29.6903 53.3447 29.6903 53.3447L28.4688 55.0461V55.045Z" fill="#282D6A"/>
<path d="M28.9761 52.7436C28.9761 52.7436 29.8126 53.4007 30.5394 53.3504L30.0023 53.8783L29.1258 53.3012L28.9761 52.7436Z" fill="#282D6A"/>
<defs>
<linearGradient id="paint0_linear_801_8776" x1="53.3805" y1="42.0406" x2="53.4366" y2="66.7919" gradientUnits="userSpaceOnUse">
<stop stop-color="#282D6A"/>
<stop offset="1" stop-color="#DF1F28"/>
</linearGradient>
<linearGradient id="paint1_linear_801_8776" x1="53.9944" y1="42" x2="53.9944" y2="66.8414" gradientUnits="userSpaceOnUse">
<stop stop-color="#282D6A"/>
<stop offset="1" stop-color="#DF1F28"/>
</linearGradient>
<linearGradient id="paint2_linear_801_8776" x1="53.9968" y1="41.9969" x2="53.9968" y2="66.8437" gradientUnits="userSpaceOnUse">
<stop stop-color="#282D6A"/>
<stop offset="1" stop-color="#DF1F28"/>
</linearGradient>
<linearGradient id="paint3_linear_801_8776" x1="54.0079" y1="41.9969" x2="54.0079" y2="66.8405" gradientUnits="userSpaceOnUse">
<stop stop-color="#282D6A"/>
<stop offset="1" stop-color="#DF1F28"/>
</linearGradient>
</defs>
</svg>
