<svg width="108" height="108" viewBox="0 0 108 108" fill="none" xmlns="http://www.w3.org/2000/svg">
<g clip-path="url(#clip0_801_8788)">
<path d="M14.0019 54.377C14.0019 43.9309 14.0022 33.4845 14.0014 23.0384C14.0014 22.1491 14.0054 21.2611 14.1549 20.3798C14.3975 18.9503 14.9385 17.6521 15.839 16.5114C16.8289 15.2567 18.129 14.5155 19.6885 14.2131C20.4064 14.0741 21.1332 14.0167 21.8624 14.0105C23.0447 14.0007 24.2271 14.0065 25.4097 14.0065C45.5821 14.0049 65.7543 14.0041 85.9267 14.0001C86.8 14.0001 87.669 14.0289 88.5201 14.2422C90.6751 14.7816 92.2249 16.0542 93.1463 18.081C93.706 19.3122 93.9894 20.6085 93.9963 21.9572C94.007 24.0552 93.987 26.1533 93.9862 28.2514C93.9795 46.3167 93.9734 64.3819 93.9694 82.4472C93.9691 83.914 93.9921 85.3809 93.9926 86.8478C93.9929 87.7139 93.8717 88.5658 93.6299 89.3991C93.3112 90.4974 92.7977 91.4945 92.0664 92.3742C91.0687 93.5739 89.7735 94.2587 88.2532 94.5387C87.3057 94.713 86.3468 94.748 85.3857 94.7477C75.8908 94.7448 66.3959 94.7402 56.9007 94.7405C45.3344 94.7405 33.7679 94.7445 22.2016 94.7485C21.248 94.7488 20.2994 94.7005 19.3722 94.4597C17.2018 93.8963 15.7013 92.5522 14.8064 90.5131C14.2776 89.3083 14.0244 88.0408 14.0102 86.7293C13.9947 85.2891 14.0006 83.8489 14.0006 82.4087C14.0001 73.0649 14.0003 63.7211 14.0003 54.3772H14.0019V54.377ZM58.2464 73.6668C58.3793 73.6761 58.4575 73.6868 58.5357 73.6865C59.8956 73.6828 61.2557 73.679 62.6155 73.6713C62.784 73.6702 62.9534 73.6553 63.1202 73.6315C63.354 73.5984 63.508 73.4658 63.5617 73.2299C63.5814 73.1434 63.5988 73.0561 63.6116 72.9683C63.7157 72.2562 63.8203 71.5444 63.9209 70.8318C64.2175 68.7294 64.5167 66.6273 64.806 64.5239C64.9271 63.6426 65.012 62.757 64.9442 61.8659C64.8311 60.3763 64.2535 59.1235 63.0551 58.1894C62.4303 57.7023 61.7329 57.362 60.9749 57.1404C60.012 56.8589 59.0194 56.7703 58.0254 56.727C56.3005 56.6523 54.5763 56.6891 52.8639 56.9323C51.483 57.1284 50.5614 57.8998 50.1511 59.2399C50.027 59.6455 49.9536 60.0691 49.8861 60.4892C49.7225 61.5064 49.5744 62.5259 49.4233 63.5449C49.2568 64.6694 49.0884 65.7935 48.9303 66.9193C48.7008 68.5551 48.4772 70.192 48.2572 71.8292C48.1958 72.2866 48.1433 72.7462 48.112 73.2066C48.0915 73.5104 48.2177 73.6259 48.518 73.6451C48.589 73.6497 48.6602 73.6499 48.7312 73.6499C50.1535 73.6502 51.5756 73.6505 52.9979 73.6505C53.0689 73.6505 53.1401 73.6441 53.2111 73.6478C53.3662 73.6556 53.438 73.5731 53.4599 73.43C53.4815 73.2896 53.5076 73.1498 53.5263 73.0089C53.7086 71.6439 53.8866 70.2785 54.0724 68.9138C54.3326 67.0037 54.5955 65.0937 54.864 63.1849C54.9345 62.6839 55.0148 62.1832 55.1173 61.6879C55.1939 61.3187 55.4701 61.0983 55.8419 61.1031C56.5527 61.1119 57.2637 61.1311 57.9734 61.1685C58.6374 61.2034 59.077 61.5581 59.3079 62.1803C59.436 62.5256 59.5238 62.8785 59.4952 63.2479C59.4616 63.6816 59.4186 64.1148 59.3647 64.5463C59.1979 65.8859 59.0231 67.2246 58.8536 68.5639C58.6796 69.9385 58.5061 71.313 58.3372 72.6883C58.2985 73.0035 58.2779 73.3211 58.2462 73.6673L58.2464 73.6668ZM38.3041 68.7497C38.1813 68.7433 38.1122 68.7366 38.043 68.7364C35.3404 68.7345 32.6378 68.7337 29.9355 68.7316C29.7756 68.7316 29.6152 68.7273 29.4559 68.7142C29.0683 68.6822 28.8148 68.4833 28.7075 68.1025C28.6266 67.8158 28.601 67.526 28.6421 67.2316C28.869 65.6126 29.0953 63.9933 29.3256 62.3746C29.5485 60.8087 29.778 59.2439 30.0006 57.6782C30.2269 56.0859 30.449 54.4931 30.6719 52.9002C30.71 52.6275 30.7549 52.355 30.7765 52.0809C30.8069 51.6979 30.635 51.4942 30.2552 51.447C30.1234 51.4307 29.9891 51.4331 29.8557 51.4326C28.6378 51.428 27.4197 51.4246 26.2018 51.4208C25.9886 51.42 25.7751 51.424 25.5618 51.4171C25.3222 51.4093 25.1788 51.5353 25.094 51.7419C25.0606 51.8233 25.0344 51.9103 25.0219 51.9973C24.9426 52.5511 24.865 53.1052 24.7932 53.6601C24.657 54.7085 24.5231 55.7568 24.392 56.8058C24.2401 58.022 24.0958 59.2393 23.9418 60.4556C23.7755 61.7685 23.6044 63.0811 23.4312 64.3931C23.2601 65.6876 23.0802 66.981 22.911 68.2757C22.8397 68.8212 22.7436 69.366 22.7794 69.9206C22.8293 70.6927 23.0874 71.3757 23.6394 71.9327C24.3552 72.655 25.2012 73.1533 26.1805 73.4327C26.9249 73.6451 27.6869 73.6764 28.4515 73.6806C29.9894 73.6895 31.5275 73.6919 33.0654 73.6919C34.4701 73.6919 35.8745 73.6852 37.2792 73.6793C37.383 73.6788 37.4868 73.6614 37.6059 73.6505C37.8386 72.0157 38.0687 70.4007 38.3038 68.7497H38.3041ZM49.9459 40.3312C49.9696 40.3307 49.9937 40.3301 50.0174 40.3296C50.0404 40.4019 50.0705 40.4729 50.0855 40.5469C50.3046 41.6441 50.5211 42.7418 50.7391 43.839C50.8966 44.6317 51.0466 45.4258 51.2163 46.2158C51.318 46.6887 51.638 46.9417 52.123 46.9666C52.3269 46.977 52.5319 46.9674 52.736 46.9724C53.2469 46.9852 53.6 46.752 53.8108 46.2921C53.8367 46.2355 53.8669 46.1811 53.8933 46.1248C54.251 45.3604 54.6081 44.5957 54.9654 43.8313C55.4736 42.7453 55.981 41.6588 56.4924 40.5744C56.5292 40.4962 56.5369 40.3833 56.6659 40.3518C56.6659 40.4105 56.672 40.454 56.665 40.4954C56.494 41.5202 56.3213 42.5451 56.1491 43.5697C55.9874 44.5333 55.8235 45.4965 55.6653 46.4605C55.6089 46.8029 55.7477 46.962 56.099 46.9682C56.3744 46.973 56.6501 46.9692 56.9255 46.969C57.3077 46.9684 57.6902 46.9751 58.0721 46.965C58.3897 46.9564 58.5603 46.8155 58.6537 46.5126C58.6772 46.4365 58.6959 46.358 58.7084 46.2793C58.8846 45.1738 59.0613 44.0683 59.2337 42.9623C59.4774 41.3996 59.7186 39.8366 59.9586 38.2734C60.0328 37.7906 60.1222 37.3083 60.1641 36.8223C60.2281 36.0811 59.831 35.2698 58.7837 35.2644C58.437 35.2625 58.0906 35.2609 57.7439 35.2644C57.2007 35.2698 56.7598 35.4974 56.4342 35.9226C56.2572 36.1535 56.1011 36.407 55.9759 36.6696C55.0055 38.7061 54.0452 40.7476 53.0795 42.7867C53.0422 42.8654 53.0272 42.9655 52.9365 43.0202C52.9173 42.986 52.9037 42.9719 52.9013 42.9559C52.7534 42.0439 52.6069 41.1319 52.4593 40.2199C52.2831 39.1323 52.1126 38.0439 51.9268 36.9579C51.7707 36.0459 51.1565 35.4363 50.2544 35.293C50.0281 35.2569 49.7935 35.265 49.5629 35.265C45.8028 35.2623 42.0425 35.2615 38.2824 35.2604C38.007 35.2604 37.731 35.2545 37.4559 35.2636C37.0496 35.2772 36.7392 35.4817 36.6205 35.8569C36.5124 36.1983 36.463 36.5698 36.4577 36.9291C36.4515 37.3486 36.7531 37.6417 37.1703 37.6927C37.3723 37.7172 37.5781 37.7175 37.782 37.718C38.5643 37.7201 39.3466 37.7164 40.1286 37.7185C40.2479 37.7188 40.3669 37.7391 40.4988 37.7514C40.4892 37.8819 40.4889 37.9796 40.4737 38.0749C40.3578 38.8027 40.2385 39.5302 40.1211 40.2578C39.9129 41.5467 39.7042 42.8355 39.4971 44.1246C39.373 44.8965 39.2497 45.6681 39.1304 46.4408C39.0719 46.8187 39.2027 46.9652 39.5935 46.969C39.8956 46.9719 40.198 46.9695 40.5001 46.969C40.8468 46.9684 41.1938 46.9751 41.5399 46.9639C41.8575 46.9537 42.0265 46.8115 42.1159 46.5064C42.1383 46.4298 42.1557 46.3514 42.1685 46.2726C42.417 44.7468 42.6649 43.2212 42.9121 41.6951C43.1053 40.5026 43.2967 39.3095 43.4915 38.117C43.5449 37.7906 43.6132 37.729 43.9452 37.7271C44.4518 37.7244 44.9586 37.7314 45.4652 37.7356C45.892 37.7394 46.3188 37.7378 46.745 37.7516C47.1862 37.7661 47.3119 37.931 47.2411 38.3634C47.1069 39.1873 46.9753 40.0117 46.8424 40.8359C46.5993 42.3439 46.3553 43.8519 46.113 45.3601C46.0524 45.7372 45.9939 46.1146 45.9392 46.4925C45.9149 46.6594 45.9339 46.8248 46.1026 46.9078C46.1933 46.9524 46.3067 46.9668 46.41 46.9676C47.0146 46.9724 47.6191 46.9722 48.2233 46.9682C48.704 46.965 48.8756 46.8206 48.9739 46.3511C48.9829 46.3076 48.9888 46.2636 48.9957 46.2195C49.2632 44.553 49.5301 42.8862 49.7978 41.2197C49.8455 40.9232 49.8963 40.6272 49.9456 40.3309L49.9459 40.3312ZM69.3483 73.6977V73.6991C69.7751 73.6991 70.2016 73.7004 70.6284 73.6988C70.9751 73.6975 71.322 73.7023 71.6679 73.6865C71.9802 73.6724 72.1184 73.5552 72.1921 73.2523C72.2423 73.0457 72.274 72.8338 72.3023 72.6227C72.4529 71.5044 72.5989 70.3858 72.7478 69.2672C72.9365 67.8495 73.1268 66.432 73.3149 65.0142C73.4844 63.7374 73.651 62.46 73.8199 61.1829C74.0252 59.6327 74.2304 58.0826 74.4378 56.5327C74.6251 55.1326 74.8154 53.733 75.0036 52.3328C75.0543 51.9543 75.1141 51.5764 75.1464 51.1961C75.1728 50.8846 75.0159 50.6906 74.7103 50.6233C74.5816 50.595 74.4463 50.5857 74.3142 50.5852C72.9723 50.5814 71.63 50.5814 70.2878 50.5804C70.2435 50.5804 70.1986 50.5801 70.1546 50.5841C69.8973 50.6076 69.7289 50.7512 69.6384 50.985C69.6003 51.0832 69.5786 51.1902 69.5642 51.2951C69.4046 52.4385 69.2429 53.5814 69.0916 54.7258C68.933 55.9234 68.7868 57.1223 68.6322 58.3204C68.5028 59.3247 68.3691 60.3283 68.2369 61.3323C68.0853 62.4859 67.934 63.6394 67.7814 64.7929C67.6145 66.0519 67.4459 67.3106 67.2788 68.5695C67.1256 69.7228 66.9719 70.8761 66.8219 72.0296C66.7682 72.4433 66.7124 72.8575 66.6812 73.2734C66.6612 73.5403 66.789 73.6628 67.0551 73.6892C67.1432 73.698 67.2326 73.6969 67.3215 73.6969C67.997 73.6975 68.6725 73.6972 69.348 73.6972L69.3483 73.6977ZM82.4629 57.2432V57.2365C81.734 57.2365 81.0043 57.2531 80.2762 57.2296C79.9009 57.2176 79.6217 57.3444 79.397 57.6286C79.353 57.6844 79.3049 57.737 79.259 57.7914C78.3753 58.8368 77.493 59.8836 76.6074 60.9277C75.8024 61.8768 75.0009 62.8291 74.1834 63.7675C73.9301 64.0582 73.8493 64.3403 74.0465 64.6827C74.0775 64.7364 74.097 64.7961 74.1231 64.8527C75.0663 66.8822 76.0095 68.9117 76.9533 70.9409C77.7134 72.5757 78.4834 74.2059 79.2297 75.8468C79.4485 76.3277 79.756 76.5391 80.3013 76.5228C81.5004 76.4871 82.7012 76.5082 83.9015 76.5044C84.0523 76.5039 84.2041 76.5026 84.3538 76.486C84.7195 76.446 84.87 76.2301 84.7681 75.8751C84.7144 75.6883 84.6354 75.5073 84.554 75.3301C83.342 72.6891 82.1285 70.0492 80.9141 67.4096C80.4945 66.4974 80.0837 65.5808 79.6436 64.6787C79.4928 64.3699 79.5273 64.1476 79.7739 63.9261C79.9055 63.8078 80.016 63.6661 80.1366 63.5353C81.6865 61.8568 83.2486 60.1898 84.712 58.4338C84.8316 58.2905 84.9509 58.1469 85.0649 57.9991C85.1188 57.9291 85.1674 57.8531 85.2058 57.7738C85.3254 57.528 85.154 57.2299 84.8634 57.2368C84.0637 57.256 83.2633 57.2435 82.4631 57.2435L82.4629 57.2432ZM42.0134 73.6988V73.6937C42.6801 73.6937 43.3468 73.694 44.0136 73.6935C44.1291 73.6935 44.245 73.6943 44.36 73.6865C44.6453 73.667 44.7598 73.58 44.8335 73.3057C44.8794 73.1346 44.9111 72.9587 44.9357 72.7833C45.0678 71.842 45.1964 70.9001 45.3254 69.958C45.5178 68.5495 45.7105 67.1414 45.9011 65.7327C46.0665 64.509 46.2264 63.2844 46.3935 62.0607C46.5774 60.7139 46.7685 59.368 46.9518 58.0209C46.9745 57.8547 46.9841 57.6833 46.9716 57.5165C46.9558 57.3038 46.8304 57.1757 46.6185 57.1436C46.4522 57.1183 46.2825 57.1081 46.114 57.1073C44.8874 57.1012 43.6607 57.0988 42.434 57.0953C42.2742 57.0948 42.114 57.0932 41.9542 57.0948C41.4767 57.0991 41.3264 57.2184 41.2181 57.6895C41.1842 57.8362 41.1607 57.9862 41.1431 58.136C40.9581 59.7152 40.7806 61.295 40.5909 62.8737C40.3907 64.5405 40.1804 66.2059 39.9724 67.8716C39.7811 69.4052 39.5852 70.9383 39.3949 72.4721C39.3599 72.754 39.3314 73.0374 39.3204 73.3211C39.3105 73.575 39.4096 73.67 39.6671 73.6913C39.7731 73.7001 39.8804 73.6991 39.9869 73.6991C40.6624 73.6996 41.3379 73.6993 42.0134 73.6993V73.6988ZM35.6556 46.9695V46.9687C35.9757 46.9687 36.2957 46.974 36.6157 46.9674C36.9909 46.9596 37.1046 46.8139 37.0392 46.441C37.0302 46.3887 37.015 46.3372 37.0029 46.2854C36.337 43.4123 35.6711 40.5394 35.0055 37.6662C34.7989 36.7748 34.6003 35.8818 34.3852 34.9924C34.2686 34.511 34.0097 34.3006 33.5157 34.2862C32.965 34.27 32.4136 34.2753 31.8625 34.2793C31.5142 34.282 31.2518 34.4506 31.0698 34.7413C30.9708 34.8993 30.8824 35.064 30.7949 35.2287C29.1756 38.2814 27.5558 41.3337 25.94 44.3881C25.5912 45.0473 25.2504 45.7113 24.9202 46.3799C24.7518 46.7213 24.9077 46.9631 25.2896 46.9674C25.9472 46.9748 26.6051 46.9663 27.2628 46.9695C27.4902 46.9706 27.6535 46.8771 27.7635 46.6802C27.8673 46.4941 27.981 46.3132 28.0787 46.124C28.3437 45.611 28.6173 45.1015 28.8591 44.5776C29.0077 44.2554 29.2047 44.1228 29.5749 44.1308C30.721 44.1559 31.8681 44.1398 33.0147 44.1401C33.5525 44.1401 33.5552 44.1401 33.6726 44.6782C33.7975 45.2507 33.9104 45.8261 34.0404 46.3975C34.1367 46.8214 34.3201 46.9623 34.7493 46.9682C35.0514 46.9724 35.3538 46.969 35.6559 46.969L35.6556 46.9695ZM47.8294 52.0187C47.8265 51.9589 47.8251 51.8521 47.8152 51.7459C47.6962 50.4498 46.7033 49.5742 45.4057 49.6169C44.8345 49.6358 44.3408 49.8704 43.8697 50.1648C42.6102 50.9519 41.8984 52.4924 42.1525 53.9168C42.3089 54.7936 42.7944 55.4187 43.638 55.7515C44.1208 55.9421 44.5954 55.8791 45.0729 55.7416C46.3649 55.3698 47.783 54.1792 47.8294 52.0184V52.0187Z" fill="#E82529"/>
<path d="M58.2461 73.6668C58.2779 73.3206 58.2984 73.0032 58.3371 72.6878C58.5064 71.3127 58.6796 69.9379 58.8536 68.5634C59.0231 67.2241 59.1982 65.8856 59.3647 64.5458C59.4183 64.1142 59.4616 63.681 59.4952 63.2473C59.5238 62.8779 59.436 62.5251 59.3078 62.1797C59.077 61.5576 58.6374 61.2032 57.9734 61.1679C57.2637 61.1303 56.5527 61.1113 55.8419 61.1025C55.4701 61.0977 55.1939 61.3182 55.1173 61.6873C55.0145 62.1827 54.9345 62.6831 54.864 63.1843C54.5955 65.0935 54.3326 67.0031 54.0724 68.9133C53.8866 70.2777 53.7086 71.6434 53.5263 73.0083C53.5074 73.1492 53.4812 73.2891 53.4598 73.4295C53.438 73.5725 53.3659 73.6548 53.2111 73.6473C53.1404 73.6438 53.0688 73.6499 52.9978 73.6499C51.5755 73.6499 50.1535 73.6499 48.7312 73.6494C48.6602 73.6494 48.589 73.6491 48.518 73.6446C48.2177 73.6254 48.0915 73.5098 48.112 73.2061C48.1432 72.7457 48.1958 72.2861 48.2572 71.8286C48.4771 70.1915 48.7008 68.5546 48.9303 66.9188C49.0883 65.793 49.2565 64.6688 49.4233 63.5444C49.5743 62.5254 49.7225 61.5058 49.8861 60.4887C49.9536 60.0686 50.027 59.645 50.1511 59.2393C50.5613 57.8992 51.4829 57.1279 52.8639 56.9317C54.576 56.6886 56.3004 56.6517 58.0254 56.7265C59.0193 56.7694 60.0119 56.8583 60.9749 57.1399C61.7329 57.3614 62.4303 57.7017 63.0551 58.1888C64.2535 59.1232 64.831 60.376 64.9442 61.8653C65.012 62.7565 64.9271 63.6421 64.8059 64.5234C64.5166 66.6268 64.2174 68.7289 63.9209 70.8312C63.8203 71.5439 63.7157 72.2557 63.6116 72.9678C63.5988 73.0556 63.5812 73.1428 63.5617 73.2293C63.5083 73.4652 63.354 73.5979 63.1202 73.631C62.9534 73.6545 62.7839 73.6697 62.6155 73.6708C61.2557 73.6785 59.8956 73.6822 58.5357 73.686C58.4575 73.686 58.3793 73.6756 58.2464 73.6662L58.2461 73.6668Z" fill="white"/>
<path d="M38.3041 68.75C38.0689 70.401 37.8391 72.016 37.6061 73.6507C37.4868 73.6617 37.3833 73.679 37.2795 73.6796C35.8748 73.6854 34.4704 73.6918 33.0657 73.6921C31.5278 73.6921 29.9897 73.6897 28.4518 73.6809C27.6871 73.6766 26.9249 73.6454 26.1808 73.4329C25.2015 73.1535 24.3555 72.6552 23.6396 71.933C23.0877 71.376 22.8296 70.6927 22.7797 69.9208C22.7439 69.3662 22.84 68.8215 22.9113 68.2759C23.0805 66.9812 23.2604 65.6878 23.4315 64.3934C23.6049 63.0813 23.776 61.769 23.942 60.4558C24.096 59.2398 24.2404 58.0225 24.3923 56.806C24.5233 55.7571 24.6573 54.7084 24.7934 53.6603C24.8655 53.1055 24.9432 52.5514 25.0222 51.9976C25.0347 51.9106 25.0609 51.8235 25.0942 51.7421C25.1791 51.5353 25.3222 51.4096 25.5621 51.4173C25.7754 51.4243 25.9886 51.4203 26.2021 51.4211C27.42 51.4248 28.6381 51.4283 29.856 51.4328C29.9891 51.4333 30.1237 51.4307 30.2555 51.4472C30.6353 51.4945 30.8072 51.6981 30.7768 52.0811C30.7551 52.3552 30.7103 52.6277 30.6721 52.9005C30.4493 54.4933 30.2272 56.0862 30.0009 57.6785C29.7783 59.2444 29.5488 60.8092 29.3259 62.3748C29.0956 63.9936 28.8692 65.6126 28.6424 67.2318C28.601 67.5262 28.6269 67.8161 28.7078 68.1027C28.8151 68.4836 29.0686 68.6822 29.4561 68.7145C29.6155 68.7275 29.7759 68.7318 29.9358 68.7318C32.6384 68.7339 35.341 68.735 38.0433 68.7366C38.1125 68.7366 38.1816 68.7433 38.3044 68.75H38.3041Z" fill="white"/>
<path d="M49.946 40.3315C49.8967 40.6277 49.8457 40.9237 49.7982 41.2202C49.5305 42.8868 49.2633 44.5533 48.9962 46.22C48.9892 46.2638 48.9833 46.3081 48.9743 46.3516C48.8761 46.8211 48.7044 46.9658 48.2238 46.9687C47.6192 46.9727 47.0147 46.9732 46.4104 46.9682C46.3072 46.9674 46.1937 46.953 46.103 46.9084C45.9343 46.8254 45.9156 46.6602 45.9396 46.4931C45.9946 46.1152 46.0528 45.7378 46.1134 45.3606C46.3557 43.8524 46.5997 42.3444 46.8428 40.8364C46.9757 40.0123 47.1073 39.1878 47.2416 38.3639C47.312 37.9315 47.1866 37.7666 46.7454 37.7522C46.3192 37.7383 45.8921 37.7399 45.4656 37.7362C44.9591 37.7319 44.4522 37.7247 43.9456 37.7276C43.6134 37.7295 43.545 37.7911 43.4919 38.1176C43.2974 39.3101 43.106 40.5028 42.9125 41.6956C42.6651 43.2215 42.4174 44.7473 42.1689 46.2732C42.1561 46.3519 42.1387 46.4304 42.1163 46.507C42.0269 46.812 41.858 46.954 41.5404 46.9644C41.1939 46.9756 40.8472 46.969 40.5005 46.9695C40.1984 46.97 39.896 46.9724 39.5939 46.9695C39.2031 46.9658 39.0724 46.8192 39.1308 46.4413C39.2501 45.6689 39.3737 44.897 39.4975 44.1252C39.7046 42.836 39.9134 41.5472 40.1215 40.2583C40.2392 39.5308 40.3583 38.8032 40.4741 38.0754C40.4893 37.9801 40.4896 37.8824 40.4992 37.7519C40.3673 37.7396 40.248 37.7193 40.129 37.7191C39.3467 37.7169 38.5645 37.7204 37.7824 37.7185C37.5783 37.718 37.3728 37.7177 37.1707 37.6932C36.7538 37.6425 36.4522 37.3492 36.4581 36.9296C36.4632 36.5704 36.5128 36.1988 36.6209 35.8575C36.7397 35.4825 37.0501 35.2778 37.4563 35.2642C37.7315 35.2548 38.0074 35.261 38.2829 35.261C42.0429 35.262 45.8033 35.2628 49.5633 35.2655C49.7942 35.2655 50.0285 35.2577 50.2548 35.2935C51.157 35.4366 51.7714 36.0462 51.9272 36.9584C52.113 38.0444 52.2835 39.1328 52.4597 40.2204C52.6076 41.1324 52.7538 42.0447 52.9017 42.9564C52.9043 42.9724 52.9177 42.9866 52.9369 43.0207C53.0277 42.966 53.0426 42.8659 53.08 42.7872C54.0456 40.7484 55.0059 38.7069 55.9763 36.6702C56.1015 36.4075 56.2577 36.154 56.4346 35.9231C56.7602 35.498 57.2011 35.2703 57.7443 35.265C58.091 35.2615 58.4374 35.2634 58.7841 35.265C59.8311 35.2703 60.2283 36.0817 60.1645 36.8228C60.1226 37.3089 60.0332 37.7909 59.959 38.274C59.7191 39.8372 59.4775 41.4001 59.2341 42.9628C59.0617 44.0689 58.885 45.1743 58.7088 46.2798C58.6963 46.3586 58.6776 46.4368 58.6541 46.5131C58.561 46.816 58.3904 46.957 58.0726 46.9655C57.6906 46.9756 57.3082 46.9692 56.926 46.9695C56.6505 46.9698 56.3748 46.9738 56.0994 46.9687C55.7481 46.9626 55.6096 46.8035 55.6657 46.4611C55.8239 45.497 55.9878 44.5338 56.1496 43.5703C56.3217 42.5454 56.4944 41.5208 56.6655 40.4959C56.6724 40.4545 56.6663 40.411 56.6663 40.3523C56.5371 40.3838 56.5296 40.497 56.4928 40.5749C55.9811 41.6593 55.4738 42.7458 54.9659 43.8318C54.6082 44.5962 54.2511 45.3609 53.8937 46.1253C53.8673 46.1816 53.8372 46.2361 53.8113 46.2926C53.6004 46.7525 53.2476 46.9858 52.7365 46.973C52.532 46.9679 52.3273 46.9775 52.1234 46.9671C51.6387 46.9423 51.3184 46.6893 51.2168 46.2163C51.047 45.4263 50.897 44.6323 50.7395 43.8396C50.5215 42.7421 50.305 41.6443 50.0859 40.5474C50.0712 40.4735 50.0411 40.4025 50.0178 40.3301C49.9941 40.3307 49.9701 40.3312 49.9463 40.3317L49.946 40.3315Z" fill="white"/>
<path d="M69.3481 73.698C68.6726 73.698 67.997 73.698 67.3215 73.6977C67.2326 73.6977 67.1432 73.6988 67.0552 73.69C66.7891 73.6639 66.6612 73.5411 66.6812 73.2742C66.7122 72.8584 66.768 72.4441 66.8219 72.0304C66.9719 70.8766 67.1256 69.7236 67.2788 68.5704C67.4459 67.3114 67.6148 66.0527 67.7814 64.7938C67.9341 63.6405 68.0854 62.4867 68.237 61.3332C68.3691 60.3294 68.5025 59.3256 68.6323 58.3212C68.7868 57.1231 68.9331 55.9242 69.0916 54.7266C69.2429 53.5822 69.4047 52.4391 69.5643 51.2959C69.5789 51.191 69.6006 51.084 69.6385 50.9858C69.7289 50.7523 69.8976 50.6084 70.1546 50.5849C70.1987 50.5809 70.2435 50.5812 70.2878 50.5812C71.6301 50.582 72.972 50.5822 74.3143 50.586C74.4466 50.5863 74.5817 50.5959 74.7103 50.6242C75.0159 50.6911 75.1729 50.8854 75.1464 51.1969C75.1141 51.577 75.0544 51.9549 75.0036 52.3336C74.8155 53.7335 74.6252 55.1334 74.4378 56.5335C74.2304 58.0834 74.0252 59.6336 73.82 61.1837C73.651 62.4608 73.4845 63.7379 73.315 65.015C73.1268 66.4328 72.9365 67.8503 72.7478 69.268C72.5992 70.3863 72.4529 71.5052 72.3024 72.6235C72.2741 72.8346 72.2423 73.0465 72.1921 73.2531C72.1185 73.556 71.9802 73.6732 71.668 73.6873C71.3221 73.7031 70.9748 73.6983 70.6284 73.6996C70.2019 73.7012 69.7751 73.6999 69.3483 73.6999V73.6986L69.3481 73.698Z" fill="white"/>
<path d="M82.463 57.2435C83.2631 57.2435 84.0635 57.256 84.8632 57.2368C85.1538 57.2299 85.3252 57.528 85.2056 57.7738C85.1672 57.8531 85.1186 57.9291 85.0647 57.9991C84.9507 58.1467 84.8314 58.2903 84.7118 58.4338C83.2484 60.1898 81.686 61.8568 80.1364 63.5353C80.0158 63.6658 79.9053 63.8078 79.7737 63.9261C79.5273 64.1473 79.4929 64.3697 79.6434 64.6787C80.0836 65.5808 80.4943 66.4976 80.9139 67.4096C82.1283 70.0492 83.3421 72.6894 84.5538 75.3301C84.6352 75.5073 84.7142 75.6883 84.7679 75.8751C84.8698 76.2298 84.7193 76.446 84.3537 76.486C84.2039 76.5026 84.0521 76.5039 83.9013 76.5044C82.701 76.5082 81.5003 76.4868 80.3011 76.5229C79.7558 76.5391 79.4483 76.3278 79.2295 75.8468C78.483 74.2059 77.7132 72.5754 76.9531 70.9409C76.0094 68.9117 75.0661 66.8822 74.1229 64.8527C74.0968 64.7964 74.0773 64.7364 74.0463 64.6827C73.8488 64.3403 73.93 64.0582 74.1832 63.7675C75.0008 62.8294 75.8023 61.8771 76.6072 60.9277C77.4925 59.8836 78.3752 58.8371 79.2589 57.7914C79.3048 57.7372 79.3528 57.6844 79.3968 57.6286C79.6216 57.3441 79.9007 57.2176 80.276 57.2296C81.0044 57.2528 81.7338 57.2365 82.4627 57.2365V57.2432L82.463 57.2435Z" fill="white"/>
<path d="M42.0135 73.699C41.338 73.699 40.6625 73.6993 39.9869 73.6988C39.8804 73.6988 39.7732 73.6998 39.6672 73.691C39.4096 73.6697 39.3106 73.5747 39.3205 73.3208C39.3317 73.0374 39.36 72.7537 39.395 72.4718C39.5853 70.938 39.7809 69.4049 39.9725 67.8713C40.1804 66.2056 40.3905 64.5402 40.5909 62.8734C40.7807 61.2949 40.9582 59.7149 41.1431 58.1357C41.1608 57.9859 41.1842 57.836 41.2181 57.6892C41.3265 57.2181 41.4768 57.099 41.9542 57.0945C42.1141 57.0932 42.2743 57.0945 42.4341 57.095C43.6608 57.0985 44.8874 57.1006 46.1141 57.1071C46.2825 57.1079 46.4523 57.1183 46.6185 57.1433C46.8305 57.1756 46.9559 57.3035 46.9717 57.5162C46.9839 57.683 46.9743 57.8544 46.9519 58.0206C46.7685 59.3677 46.5774 60.7134 46.3936 62.0604C46.2265 63.2839 46.0666 64.5087 45.9011 65.7324C45.7106 67.1411 45.5181 68.5495 45.3254 69.9577C45.1968 70.8995 45.0681 71.8414 44.9358 72.783C44.9112 72.9587 44.8794 73.1345 44.8335 73.3054C44.7596 73.5797 44.6454 73.6667 44.3601 73.6862C44.245 73.694 44.1292 73.6932 44.0136 73.6932C43.3469 73.6937 42.6802 73.6934 42.0135 73.6934V73.6985V73.699Z" fill="white"/>
<path d="M35.6557 46.9697C35.3535 46.9697 35.0511 46.9732 34.749 46.9689C34.3198 46.9631 34.1365 46.8219 34.0401 46.3983C33.9102 45.8269 33.7973 45.2517 33.6724 44.6789C33.5549 44.1406 33.5522 44.1409 33.0144 44.1409C31.8679 44.1409 30.7207 44.1566 29.5747 44.1315C29.2045 44.1235 29.0075 44.2562 28.8588 44.5783C28.617 45.1022 28.3437 45.6118 28.0784 46.1247C27.9808 46.314 27.8668 46.4947 27.7632 46.681C27.6535 46.8779 27.4902 46.9713 27.2625 46.9703C26.6049 46.9671 25.947 46.9756 25.2894 46.9681C24.9074 46.9639 24.7516 46.7218 24.92 46.3807C25.2501 45.7118 25.5909 45.0481 25.9398 44.3888C27.5556 41.3345 29.1754 38.2819 30.7947 35.2294C30.8819 35.0648 30.9705 34.8998 31.0696 34.7421C31.2519 34.4514 31.5142 34.2827 31.8623 34.2801C32.4134 34.2758 32.9648 34.2707 33.5154 34.287C34.0094 34.3014 34.2686 34.5117 34.385 34.9932C34.6001 35.8825 34.7989 36.7756 35.0052 37.667C35.6709 40.5402 36.3368 43.4133 37.0027 46.2862C37.0147 46.3383 37.0297 46.3895 37.039 46.4418C37.1044 46.8147 36.9907 46.9604 36.6154 46.9681C36.2957 46.9748 35.9754 46.9695 35.6554 46.9695V46.9703L35.6557 46.9697ZM32.2324 37.774C32.009 37.9873 30.2598 41.5928 30.2264 41.8797C30.3222 41.8867 30.417 41.8989 30.5123 41.8995C31.2145 41.9029 31.9167 41.908 32.6186 41.9045C33.0964 41.9024 33.1068 41.884 33.0118 41.4228C32.802 40.4051 32.593 39.3874 32.3808 38.3703C32.3416 38.1819 32.2882 37.9961 32.2324 37.774Z" fill="white"/>
<path d="M47.8296 52.0189C47.7832 54.1798 46.3651 55.3704 45.0731 55.7422C44.5959 55.8796 44.1213 55.9423 43.6382 55.7521C42.7946 55.4192 42.3091 54.7939 42.1527 53.9174C41.8986 52.493 42.6104 50.9524 43.8699 50.1653C44.341 49.871 44.8347 49.6361 45.4059 49.6174C46.7033 49.5747 47.6964 50.4504 47.8155 51.7464C47.8251 51.8524 47.8267 51.9592 47.8296 52.0192V52.0189Z" fill="white"/>
<path d="M32.2326 37.774C32.2884 37.9961 32.3417 38.1819 32.381 38.3703C32.5931 39.3874 32.8021 40.4051 33.0119 41.4228C33.1069 41.884 33.0965 41.9022 32.6188 41.9046C31.9166 41.9078 31.2144 41.903 30.5124 41.8995C30.4174 41.899 30.3224 41.8867 30.2266 41.8797C30.2599 41.5928 32.0092 37.9873 32.2326 37.774Z" fill="#E82529"/>
</g>
<defs>
<clipPath id="clip0_801_8788">
<rect width="80" height="80.7481" fill="white" transform="translate(14 14.0001)"/>
</clipPath>
</defs>
</svg>
