<svg width="108" height="108" viewBox="0 0 108 108" fill="none" xmlns="http://www.w3.org/2000/svg">
<path d="M82.5581 34.5017C85.9092 37.7508 89.2489 41.0123 92.5891 44.2729C92.5999 44.2837 92.6053 44.2967 92.6053 44.312V64.6662C92.6053 64.6837 92.5988 64.6983 92.5857 64.7101L82.4713 73.8176C82.4589 73.8287 82.4443 73.8343 82.4275 73.8343H25.4301C25.4136 73.8343 25.3993 73.8287 25.3872 73.8176L15.4248 64.7134C15.4124 64.702 15.4062 64.688 15.4062 64.6714V44.3015C15.4062 44.2888 15.4109 44.2778 15.4201 44.2686L25.3781 34.425C25.3905 34.4126 25.4053 34.4064 25.4225 34.4064C44.4149 34.406 63.4069 34.406 82.3984 34.4064C82.4818 34.4064 82.5037 34.4488 82.5581 34.5017ZM27.4983 39.1382C27.4957 39.1382 27.4932 39.1387 27.4908 39.1397C27.4884 39.1407 27.4863 39.1421 27.4844 39.1439L20.4298 46.3153C20.428 46.3171 20.4266 46.3193 20.4256 46.3216C20.4246 46.324 20.4241 46.3266 20.4241 46.3291V62.5279C20.4241 62.5306 20.4247 62.5333 20.4257 62.5357C20.4268 62.5382 20.4284 62.5404 20.4303 62.5422L27.4825 69.0853C27.4862 69.0886 27.4909 69.0905 27.4959 69.0905H80.5919C80.5969 69.0905 80.6017 69.0886 80.6053 69.0853L87.6646 62.5346C87.6666 62.5328 87.6682 62.5306 87.6692 62.5281C87.6703 62.5256 87.6709 62.523 87.6709 62.5203V46.3377C87.6709 46.3351 87.6703 46.3326 87.6694 46.3302C87.6684 46.3279 87.6669 46.3257 87.6651 46.3239L80.6039 39.1439C80.6021 39.1421 80.5999 39.1407 80.5975 39.1397C80.5951 39.1387 80.5926 39.1382 80.59 39.1382H27.4983Z" fill="#F78F1E"/>
<path d="M27.4983 39.1382H80.59C80.5926 39.1382 80.5951 39.1387 80.5975 39.1397C80.5999 39.1407 80.6021 39.1421 80.6039 39.1439L87.6651 46.3239C87.6669 46.3257 87.6684 46.3279 87.6694 46.3302C87.6703 46.3326 87.6709 46.3351 87.6709 46.3377V62.5203C87.6709 62.523 87.6703 62.5256 87.6692 62.5281C87.6682 62.5306 87.6666 62.5328 87.6646 62.5346L80.6053 69.0853C80.6017 69.0886 80.5969 69.0905 80.5919 69.0905H27.4959C27.4909 69.0905 27.4862 69.0886 27.4825 69.0853L20.4303 62.5422C20.4284 62.5404 20.4268 62.5382 20.4257 62.5357C20.4247 62.5333 20.4241 62.5306 20.4241 62.5279V46.3291C20.4241 46.3266 20.4246 46.324 20.4256 46.3216C20.4266 46.3193 20.428 46.3171 20.4298 46.3153L27.4844 39.1439C27.4863 39.1421 27.4884 39.1407 27.4908 39.1397C27.4932 39.1387 27.4957 39.1382 27.4983 39.1382ZM69.8778 51.2364C69.832 52.9351 70.4799 54.1313 72.0651 54.8173C73.0706 55.2526 74.1233 55.4824 75.1793 55.7542C75.6303 55.87 76.4499 56.086 76.6992 56.4664C76.8942 56.7644 76.8122 57.2388 76.4642 57.418C76.31 57.4975 76.1473 57.5495 75.976 57.5739C74.3564 57.8061 72.6368 57.2083 71.268 56.3272C71.265 56.3253 71.2617 56.324 71.2582 56.3233C71.2547 56.3227 71.2512 56.3227 71.2477 56.3235C71.2442 56.3242 71.241 56.3257 71.2381 56.3277C71.2352 56.3297 71.2327 56.3323 71.2308 56.3353L69.493 59.1482C69.4835 59.1635 69.4862 59.176 69.5011 59.1859C71.2918 60.383 73.6341 60.8865 75.7605 60.7611C78.1877 60.6185 80.3154 59.5048 80.448 56.7949C80.4947 55.8352 80.3088 54.8669 79.6728 54.126C78.6744 52.9627 76.7021 52.4912 75.2856 52.1604C74.6911 52.0211 73.2027 51.737 73.5745 50.8679C73.7314 50.5003 74.1838 50.3825 74.5848 50.3663C76.0246 50.3086 77.3281 50.7759 78.5014 51.5821C78.5223 51.5967 78.5395 51.5932 78.5529 51.5716L80.2949 48.7577C80.3054 48.7409 80.3024 48.7267 80.2859 48.7153C79.224 47.9846 78.0662 47.5256 76.8127 47.3384C75.566 47.1525 74.2396 47.1425 73.012 47.4857C71.2251 47.9859 69.9297 49.3146 69.8778 51.2364ZM37.1583 54.0607C37.0995 56.2233 37.0819 58.3863 37.1054 60.5499C37.1054 60.5623 37.1118 60.5685 37.1245 60.5685H40.5076C40.5235 60.5685 40.5314 60.5605 40.5314 60.5446V47.4457C40.5314 47.4298 40.5235 47.4219 40.5076 47.4219H37.2322C37.2195 47.4219 37.2103 47.4277 37.2046 47.4395C36.5699 48.8205 35.9361 50.2018 35.3033 51.5835C34.817 52.6462 34.3416 53.7232 33.9631 54.8297C33.9624 54.8317 33.9611 54.8335 33.9593 54.8347C33.9576 54.8359 33.9555 54.8365 33.9534 54.8365C33.9513 54.8364 33.9492 54.8357 33.9475 54.8344C33.9459 54.8331 33.9446 54.8313 33.944 54.8293C33.5645 53.7027 33.0778 52.6104 32.5829 51.5315C31.9577 50.1686 31.3316 48.8054 30.7045 47.4419C30.6981 47.4285 30.6876 47.4219 30.673 47.4219H27.361C27.3451 47.4219 27.3371 47.4298 27.3371 47.4457V60.5446C27.3371 60.5605 27.3451 60.5685 27.361 60.5685H30.745C30.7606 60.5685 30.7683 60.5607 30.7683 60.5451C30.7755 58.3787 30.7984 56.2057 30.7011 54.0407L30.7027 54.0352L30.7075 54.0321L30.7132 54.033L30.7169 54.0374C31.7052 56.3916 32.8065 58.6691 33.9154 60.9961C33.9262 61.0187 33.937 61.0187 33.9478 60.9961C35.0453 58.7048 36.1309 56.4564 37.1436 54.0574C37.154 54.0326 37.159 54.0337 37.1583 54.0607ZM47.7571 57.4934C47.7532 57.4934 47.7495 57.4918 47.7467 57.489C47.7439 57.4863 47.7424 57.4825 47.7424 57.4786V55.2793C47.7424 55.2754 47.7439 55.2716 47.7467 55.2689C47.7495 55.2661 47.7532 55.2645 47.7571 55.2645H53.8539C53.8578 55.2645 53.8616 55.263 53.8644 55.2602C53.8671 55.2574 53.8687 55.2537 53.8687 55.2498V52.24C53.8687 52.2361 53.8671 52.2323 53.8644 52.2295C53.8616 52.2268 53.8578 52.2252 53.8539 52.2252H47.7571C47.7532 52.2252 47.7495 52.2236 47.7467 52.2209C47.7439 52.2181 47.7424 52.2143 47.7424 52.2104V50.4998C47.7424 50.4959 47.7439 50.4921 47.7467 50.4894C47.7495 50.4866 47.7532 50.485 47.7571 50.485H54.1877C54.1916 50.485 54.1953 50.4835 54.1981 50.4807C54.2009 50.4779 54.2024 50.4742 54.2024 50.4703V47.4366C54.2024 47.4327 54.2009 47.429 54.1981 47.4262C54.1953 47.4234 54.1916 47.4219 54.1877 47.4219H44.1338C44.1299 47.4219 44.1261 47.4234 44.1233 47.4262C44.1206 47.429 44.119 47.4327 44.119 47.4366V60.5537C44.119 60.5576 44.1206 60.5614 44.1233 60.5641C44.1261 60.5669 44.1299 60.5685 44.1338 60.5685H54.3068C54.3108 60.5685 54.3145 60.5669 54.3173 60.5641C54.3201 60.5614 54.3216 60.5576 54.3216 60.5537V57.5082C54.3216 57.5042 54.3201 57.5005 54.3173 57.4977C54.3145 57.4949 54.3108 57.4934 54.3068 57.4934H47.7571ZM67.9078 50.8192C67.5331 48.2896 65.3924 47.4371 63.1173 47.429C61.1525 47.4223 59.186 47.4201 57.2179 47.4223C57.202 47.4223 57.1941 47.4303 57.1941 47.4462V60.5446C57.1941 60.5605 57.202 60.5685 57.2179 60.5685H60.7698C60.7857 60.5685 60.7936 60.5605 60.7936 60.5446V56.3625C60.7936 56.3269 60.8114 56.3094 60.847 56.3101C62.7331 56.3368 65.0563 56.4731 66.6191 55.1902C67.8849 54.1513 68.1343 52.3449 67.9078 50.8192Z" fill="white"/>
<path d="M72.0651 54.8173C70.4799 54.1313 69.832 52.9351 69.8778 51.2364C69.9297 49.3146 71.2251 47.9859 73.012 47.4857C74.2396 47.1425 75.566 47.1525 76.8127 47.3384C78.0662 47.5256 79.224 47.9846 80.2859 48.7153C80.3024 48.7267 80.3054 48.7409 80.2949 48.7577L78.5529 51.5716C78.5395 51.5932 78.5223 51.5967 78.5014 51.5821C77.3281 50.7759 76.0246 50.3086 74.5848 50.3663C74.1838 50.3825 73.7314 50.5003 73.5745 50.8679C73.2027 51.737 74.6911 52.0211 75.2856 52.1604C76.7021 52.4912 78.6744 52.9627 79.6728 54.126C80.3088 54.8669 80.4947 55.8352 80.448 56.7949C80.3154 59.5048 78.1877 60.6185 75.7605 60.7611C73.6341 60.8865 71.2918 60.383 69.5011 59.1859C69.4862 59.176 69.4835 59.1635 69.493 59.1482L71.2308 56.3353C71.2327 56.3323 71.2352 56.3297 71.2381 56.3277C71.241 56.3257 71.2442 56.3242 71.2477 56.3235C71.2512 56.3227 71.2547 56.3227 71.2582 56.3233C71.2617 56.324 71.265 56.3253 71.268 56.3272C72.6368 57.2083 74.3564 57.8061 75.976 57.5739C76.1473 57.5495 76.31 57.4975 76.4642 57.418C76.8122 57.2388 76.8942 56.7644 76.6992 56.4664C76.4499 56.086 75.6303 55.87 75.1793 55.7542C74.1233 55.4824 73.0706 55.2526 72.0651 54.8173Z" fill="#0077C0"/>
<path d="M37.1436 54.0574C36.1309 56.4564 35.0453 58.7048 33.9478 60.9961C33.937 61.0187 33.9262 61.0187 33.9154 60.9961C32.8065 58.6691 31.7052 56.3916 30.7169 54.0374L30.7132 54.033L30.7075 54.0321L30.7027 54.0352L30.7011 54.0407C30.7984 56.2057 30.7755 58.3787 30.7683 60.5451C30.7683 60.5607 30.7606 60.5685 30.745 60.5685H27.361C27.3451 60.5685 27.3371 60.5605 27.3371 60.5446V47.4457C27.3371 47.4298 27.3451 47.4219 27.361 47.4219H30.673C30.6876 47.4219 30.6981 47.4285 30.7045 47.4419C31.3316 48.8054 31.9577 50.1686 32.5829 51.5315C33.0778 52.6104 33.5645 53.7027 33.944 54.8293C33.9446 54.8313 33.9459 54.8331 33.9475 54.8344C33.9492 54.8357 33.9513 54.8364 33.9534 54.8365C33.9555 54.8365 33.9576 54.8359 33.9593 54.8347C33.9611 54.8335 33.9624 54.8317 33.9631 54.8297C34.3416 53.7232 34.817 52.6462 35.3033 51.5835C35.9361 50.2018 36.5699 48.8205 37.2046 47.4395C37.2103 47.4277 37.2195 47.4219 37.2322 47.4219H40.5076C40.5235 47.4219 40.5314 47.4298 40.5314 47.4457V60.5446C40.5314 60.5605 40.5235 60.5685 40.5076 60.5685H37.1245C37.1118 60.5685 37.1054 60.5623 37.1054 60.5499C37.0819 58.3863 37.0995 56.2233 37.1583 54.0607C37.159 54.0337 37.154 54.0326 37.1436 54.0574Z" fill="#0077C0"/>
<path d="M47.7571 57.4934H54.3068C54.3108 57.4934 54.3145 57.4949 54.3173 57.4977C54.3201 57.5005 54.3216 57.5042 54.3216 57.5082V60.5537C54.3216 60.5576 54.3201 60.5614 54.3173 60.5641C54.3145 60.5669 54.3108 60.5685 54.3068 60.5685H44.1338C44.1299 60.5685 44.1261 60.5669 44.1233 60.5641C44.1206 60.5614 44.119 60.5576 44.119 60.5537V47.4366C44.119 47.4327 44.1206 47.429 44.1233 47.4262C44.1261 47.4234 44.1299 47.4219 44.1338 47.4219H54.1877C54.1916 47.4219 54.1953 47.4234 54.1981 47.4262C54.2009 47.429 54.2024 47.4327 54.2024 47.4366V50.4703C54.2024 50.4742 54.2009 50.4779 54.1981 50.4807C54.1953 50.4835 54.1916 50.485 54.1877 50.485H47.7571C47.7532 50.485 47.7495 50.4866 47.7467 50.4894C47.7439 50.4921 47.7424 50.4959 47.7424 50.4998V52.2104C47.7424 52.2143 47.7439 52.2181 47.7467 52.2209C47.7495 52.2236 47.7532 52.2252 47.7571 52.2252H53.8539C53.8578 52.2252 53.8616 52.2268 53.8644 52.2295C53.8671 52.2323 53.8687 52.2361 53.8687 52.24V55.2498C53.8687 55.2537 53.8671 55.2574 53.8644 55.2602C53.8616 55.263 53.8578 55.2645 53.8539 55.2645H47.7571C47.7532 55.2645 47.7495 55.2661 47.7467 55.2689C47.7439 55.2716 47.7424 55.2754 47.7424 55.2793V57.4786C47.7424 57.4825 47.7439 57.4863 47.7467 57.489C47.7495 57.4918 47.7532 57.4934 47.7571 57.4934Z" fill="#0077C0"/>
<path d="M63.1173 47.429C65.3924 47.4371 67.5331 48.2896 67.9078 50.8192C68.1343 52.3449 67.8849 54.1513 66.6191 55.1902C65.0563 56.4731 62.7331 56.3368 60.847 56.3101C60.8114 56.3094 60.7936 56.3269 60.7936 56.3625V60.5446C60.7936 60.5605 60.7857 60.5685 60.7698 60.5685H57.2179C57.202 60.5685 57.1941 60.5605 57.1941 60.5446V47.4462C57.1941 47.4303 57.202 47.4223 57.2179 47.4223C59.186 47.4201 61.1525 47.4223 63.1173 47.429ZM64.2859 52.3573C64.5309 51.3108 64.0704 50.4016 62.9028 50.3997C62.2055 50.3987 61.5094 50.4 60.8146 50.4035C60.809 50.4036 60.8036 50.4059 60.7997 50.41C60.7958 50.414 60.7936 50.4194 60.7936 50.425V53.3089C60.7936 53.3238 60.8011 53.3313 60.816 53.3313C61.4892 53.3367 62.1621 53.336 62.8346 53.3294C63.4997 53.3227 64.1204 53.0629 64.2859 52.3573Z" fill="#0077C0"/>
<path d="M62.9028 50.3997C64.0704 50.4016 64.5309 51.3108 64.2859 52.3573C64.1204 53.0629 63.4997 53.3227 62.8346 53.3294C62.1621 53.336 61.4892 53.3367 60.816 53.3313C60.8011 53.3313 60.7936 53.3238 60.7936 53.3089V50.425C60.7936 50.4194 60.7958 50.414 60.7997 50.41C60.8036 50.4059 60.809 50.4036 60.8146 50.4035C61.5094 50.4 62.2055 50.3987 62.9028 50.3997Z" fill="white"/>
</svg>
