<svg width="108" height="108" viewBox="0 0 108 108" fill="none" xmlns="http://www.w3.org/2000/svg">
<g clip-path="url(#clip0_801_8735)">
<path fill-rule="evenodd" clip-rule="evenodd" d="M15.6901 27.2H92.3099C93.2394 27.2 94 27.9605 94 28.89V79.1107C94 80.0402 93.2394 80.7998 92.3099 80.7998H15.6901C14.7616 80.7998 14 80.0392 14 79.1107V28.89C14 27.9605 14.7606 27.2 15.6901 27.2Z" fill="#006838"/>
<path fill-rule="evenodd" clip-rule="evenodd" d="M53.0694 68.4689L50.2285 67.0033L53.0705 65.5377L55.966 64.0449V65.6594H56.1758C61.1442 65.6479 69.5065 64.8694 76.7242 62.7136C82.4952 60.9899 89.3845 57.7892 89.437 52.3255C89.4559 50.3617 88.2075 48.6065 85.7253 47.1105C83.6135 45.837 80.5282 44.705 76.5553 43.7472C72.7985 42.8418 67.6632 41.8462 55.9334 40.6849C56.6846 40.6681 57.4483 40.6597 58.2204 40.6597C69.9219 40.6597 84.3384 42.5984 89.7076 48.0379C91.1806 49.5297 91.9149 51.2324 91.8908 53.0977C91.8121 59.175 84.7465 62.8384 78.8328 64.8411C71.1724 67.4366 62.3685 68.3577 57.1577 68.3577H57.1556C56.8231 68.3577 56.4947 68.3545 56.18 68.3472L55.9649 68.3419V69.9607L53.0684 68.4678L53.0694 68.4689Z" fill="#F58220"/>
<path d="M59.854 40.8821C65.6869 40.9702 71.4233 41.5294 76.1651 42.4799C79.1928 43.0862 81.8375 43.85 84.0259 44.7511C86.421 45.7373 88.282 46.8923 89.5588 48.1858C90.9908 49.6367 91.7052 51.289 91.6811 53.0956C91.6034 59.0502 84.6144 62.6622 78.7658 64.6439C71.1285 67.2309 62.3529 68.1489 57.1578 68.1489C56.8253 68.1489 56.4979 68.1457 56.1853 68.1384L55.7562 68.1289V68.558V69.6176L53.165 68.2831L50.685 67.0043L53.165 65.7255L55.7552 64.39V65.8703H56.1759C61.158 65.8577 69.5443 65.0771 76.783 62.915C80.6006 61.7746 83.6252 60.3898 85.7716 58.7984C88.3188 56.91 89.6228 54.7332 89.6448 52.3287C89.6647 50.2851 88.3817 48.4691 85.8314 46.9311C83.7007 45.646 80.5954 44.5067 76.6026 43.5436C73.2843 42.7432 68.8929 41.8745 59.8529 40.8821M58.2184 40.4499C56.3007 40.4499 54.4732 40.5013 52.7978 40.5957C67.3685 41.9427 89.3017 44.2864 89.2241 52.3234C89.1318 62.017 66.8325 65.4244 56.1727 65.4485V63.7007L52.9709 65.351L49.7681 67.0033L52.9709 68.6556L56.1738 70.3058V68.558C56.4906 68.5654 56.8169 68.5685 57.1557 68.5685C68.6914 68.5685 91.9517 64.3176 92.0986 53.1008C92.2255 43.3684 72.6297 40.4499 58.2184 40.4499Z" fill="white"/>
<path fill-rule="evenodd" clip-rule="evenodd" d="M50.7555 63.6368C39.054 63.6368 24.6375 61.698 19.2672 56.2585C17.7943 54.7667 17.0599 53.0641 17.0841 51.1988C17.1628 45.1215 24.2283 41.4581 30.142 39.4543C37.8035 36.8589 46.6063 35.9378 51.8171 35.9378C52.1508 35.9378 52.4802 35.9409 52.7949 35.9483L53.01 35.9535V34.3348L55.9065 35.8276L58.7474 37.2932L55.9054 38.7588L53.01 40.2516V38.6371H52.8001C47.8317 38.6486 39.4694 39.427 32.2517 41.5829C26.4807 43.3065 19.5914 46.5073 19.5389 51.9709C19.52 53.9348 20.7685 55.6899 23.2506 57.1859C25.3624 58.4595 28.4477 59.5915 32.4206 60.5493C36.1774 61.4547 41.3127 62.4502 53.0425 63.6116C52.2913 63.6284 51.5276 63.6368 50.7555 63.6368Z" fill="#F58220"/>
<path d="M53.2199 34.6789L55.8111 36.0133L58.2911 37.2921L55.8111 38.571L53.2209 39.9064V38.4262H52.8002C47.8181 38.4388 39.4318 39.2193 32.1931 41.3815C28.3755 42.5218 25.3509 43.9066 23.2045 45.4981C20.6573 47.3864 19.3533 49.5633 19.3313 51.9678C19.3114 54.0114 20.5944 55.8274 23.1447 57.3653C25.2754 58.6504 28.3807 59.7897 32.3735 60.7528C35.6918 61.5533 40.0832 62.4219 49.1232 63.4133C43.2913 63.3252 37.5549 62.7649 32.8141 61.8166C29.7865 61.2102 27.1417 60.4465 24.9533 59.5453C22.5583 58.5592 20.6972 57.4041 19.4205 56.1106C17.9885 54.6597 17.274 53.0074 17.2982 51.2009C17.3758 45.2463 24.3648 41.6343 30.2135 39.6526C37.8508 37.0655 46.6264 36.1476 51.8214 36.1476C52.154 36.1476 52.4813 36.1507 52.7939 36.1581L53.223 36.1675V35.7384V34.6789M52.8034 33.9907V35.7384C52.4866 35.7311 52.1603 35.7279 51.8214 35.7279C40.2857 35.7279 17.0254 39.9788 16.8785 51.1956C16.7516 60.928 36.3485 63.8466 50.7587 63.8466C52.6764 63.8466 54.5039 63.7951 56.1783 63.7007C41.6076 62.3537 19.6744 60.0101 19.752 51.973C19.8443 42.2795 42.1436 38.8721 52.8034 38.8479V40.5957L56.0052 38.9455L59.208 37.2932L56.0052 35.6409L52.8023 33.9907H52.8034Z" fill="white"/>
<path fill-rule="evenodd" clip-rule="evenodd" d="M26.9866 46.7612H31.9172C32.8446 46.7612 33.5496 46.8671 34.0312 47.0738C34.5106 47.2836 34.882 47.5941 35.1474 48.0054C35.4117 48.4177 35.5576 48.9223 35.5827 49.5192C35.6153 50.2945 35.4222 50.9827 35.0058 51.587C34.5914 52.1912 34.0532 52.6276 33.3954 52.8889C32.7387 53.1511 31.8176 53.2844 30.6321 53.2844H29.1435L28.4616 57.0988H25.0762L26.3938 49.9714L25.6144 49.9745L26.9855 46.7612H26.9866ZM29.5316 51.2387H30.6646C31.1923 51.2387 31.6183 51.0918 31.9445 50.7959C32.2708 50.5001 32.425 50.1455 32.4082 49.7374C32.382 49.1185 32.0148 48.8079 31.3098 48.8079H29.9901L29.5327 51.2387H29.5316Z" fill="white"/>
<path fill-rule="evenodd" clip-rule="evenodd" d="M46.5865 57.0988H42.8738L40.5396 53.1459L39.7759 57.0988H36.8164L38.1928 49.9693L37.3032 49.9672L38.8128 46.7612H43.8516C44.9615 46.7612 45.7703 47.0402 46.2781 47.5994C46.7859 48.1575 46.9516 48.8919 46.7754 49.8067C46.661 50.4015 46.4459 50.9292 46.1302 51.3866C45.8154 51.8408 44.63 52.7745 43.797 52.8522L46.5855 57.0988H46.5865ZM40.9666 50.9334H42.2339C42.6053 50.9334 42.92 50.8505 43.1791 50.6847C43.4361 50.5169 43.5966 50.2714 43.6585 49.9483C43.7865 49.2895 43.4718 48.959 42.7144 48.959H41.3495L40.9676 50.9334H40.9666Z" fill="white"/>
<path fill-rule="evenodd" clip-rule="evenodd" d="M53.6885 46.7612L51.8463 57.0988H48.7012L49.9779 49.9326H49.1984L50.5423 46.7612H53.6885Z" fill="white"/>
<path fill-rule="evenodd" clip-rule="evenodd" d="M54.2197 57.0988L57.368 49.2129H56.4532L58.3468 46.7612H61.7836L62.9827 52.1241L66.6682 46.7612H69.978L69.977 57.0988H66.7919L66.7773 51.1012L62.6995 57.1691L61.3325 57.0988L59.6792 51.1012L57.4121 57.0988H54.2197Z" fill="white"/>
<path fill-rule="evenodd" clip-rule="evenodd" d="M83.5163 57.0988H79.9505L79.7889 55.4067H75.9514L75.0366 57.0988H71.1172L76.1895 49.2129H75.1897L77.7652 46.7612H81.6447L83.5163 57.0988ZM79.556 53.2141L79.1972 49.4468H79.1637L77.141 53.2141H79.555H79.556Z" fill="white"/>
<path d="M24.5733 67.5739C25.1597 67.7816 25.5888 68.1625 25.8616 68.7153C26.0808 69.1633 26.192 69.6469 26.1941 70.1683C26.1962 70.6886 26.148 71.1859 26.0504 71.658C25.7944 72.854 25.3381 73.8674 24.6835 74.6972C23.7959 75.8166 22.6734 76.3757 21.3148 76.3757H17.4385L19.3489 67.3788H23.2242C23.777 67.3872 24.2271 67.4522 24.5733 67.5739ZM20.8375 68.9409L19.5922 74.8126H21.3253C22.2129 74.8126 22.9241 74.3751 23.4613 73.5002C23.754 73.0197 23.9701 72.448 24.1086 71.7849C24.3037 70.8691 24.31 70.1662 24.1264 69.6763C23.9428 69.1864 23.4246 68.9409 22.5695 68.9409H20.8365H20.8375Z" fill="white"/>
<path d="M32.7154 70.8397C32.8948 71.2341 32.9661 71.6926 32.9294 72.2129C32.9126 72.5182 32.8402 72.9578 32.7101 73.5316H28.1571C28.0396 74.1988 28.1487 74.6667 28.4865 74.9353C28.69 75.1021 28.9607 75.186 29.2985 75.186C29.6562 75.186 29.9699 75.0843 30.2385 74.8807C30.3812 74.7706 30.5217 74.6185 30.6592 74.4233H32.4353C32.3052 74.8178 32.0146 75.2186 31.5624 75.6256C30.8543 76.2729 29.9878 76.596 28.9628 76.596C28.1162 76.596 27.428 76.3232 26.8971 75.7777C26.3663 75.2322 26.231 74.3457 26.4912 73.1162C26.7356 71.9643 27.214 71.082 27.9284 70.4672C28.6428 69.8525 29.4653 69.5451 30.3969 69.5451C30.9498 69.5451 31.4271 69.649 31.8278 69.8567C32.2286 70.0644 32.5244 70.3917 32.7154 70.8397ZM28.4425 72.3839H31.1459C31.2152 71.9244 31.1491 71.5751 30.9477 71.3369C30.7462 71.0988 30.4609 70.9803 30.0906 70.9803C29.6877 70.9803 29.3489 71.1061 29.074 71.359C28.7991 71.6118 28.5883 71.9528 28.4425 72.3839Z" fill="white"/>
<path d="M40.3884 72.9641C40.1691 73.9974 39.7422 74.8545 39.1096 75.5333C38.477 76.2131 37.7227 76.553 36.8477 76.553C36.298 76.553 35.8815 76.4429 35.5962 76.2236C35.4252 76.0935 35.2584 75.8659 35.0958 75.5396L34.9185 76.3757H33.2158L35.1199 67.3914H36.853L36.1753 70.59C36.4596 70.2805 36.7533 70.0445 37.0544 69.8819C37.408 69.6784 37.8276 69.5766 38.3112 69.5766C39.1862 69.5766 39.803 69.8924 40.1639 70.5229C40.5237 71.1534 40.5982 71.9675 40.3863 72.9641H40.3884ZM38.5273 73.1477C38.6291 72.6756 38.6511 72.2853 38.5945 71.9759C38.4843 71.3905 38.1182 71.0967 37.4961 71.0967C36.874 71.0967 36.3704 71.3831 36.0127 71.957C35.8259 72.2623 35.6812 72.6567 35.5794 73.1414C35.4577 73.711 35.4829 74.1831 35.656 74.5577C35.8291 74.9322 36.1742 75.1189 36.6904 75.1189C37.1383 75.1189 37.5244 74.9385 37.8496 74.5755C38.1748 74.2136 38.4014 73.7373 38.5273 73.1477Z" fill="white"/>
<path d="M42.347 69.7224H44.1105L42.7005 76.3757H40.937L42.347 69.7224ZM44.2815 68.9293H42.518L42.86 67.3242H44.6235L44.2815 68.9293Z" fill="white"/>
<path d="M44.8374 71.0233L45.0997 69.7843H46.0271L46.4236 67.9285H48.1452L47.7486 69.7843H48.8292L48.5669 71.0233H47.4863L46.7352 74.5387C46.6785 74.8115 46.6775 74.9815 46.732 75.0486C46.7866 75.1157 46.9912 75.1493 47.3458 75.1493C47.3982 75.1493 47.4549 75.1493 47.5136 75.1462C47.5724 75.1441 47.6322 75.1409 47.6941 75.1367L47.4129 76.4365L46.5831 76.467C45.7574 76.4953 45.2256 76.3526 44.9895 76.04C44.8384 75.8407 44.8059 75.5333 44.892 75.1178L45.7648 71.0222H44.8374V71.0233Z" fill="white"/>
</g>
<defs>
<clipPath id="clip0_801_8735">
<rect width="80" height="53.5998" fill="white" transform="translate(14 27.2001)"/>
</clipPath>
</defs>
</svg>
