<svg width="108" height="108" viewBox="0 0 108 108" fill="none" xmlns="http://www.w3.org/2000/svg">
<g clip-path="url(#clip0_801_8756)">
<path fill-rule="evenodd" clip-rule="evenodd" d="M15.6901 27H92.3099C93.2394 27 94 27.7606 94 28.6901V78.9108C94 79.8403 93.2394 80.5998 92.3099 80.5998H15.6901C14.7616 80.5998 14 79.8392 14 78.9108V28.6901C14 27.7606 14.7606 27 15.6901 27Z" fill="#22508E"/>
<path fill-rule="evenodd" clip-rule="evenodd" d="M53.0685 70.0524L50.2275 68.5868L53.0695 67.1212L55.965 65.6284V67.2429H56.1748C61.1433 67.2314 69.5055 66.4529 76.7232 64.2971C82.4942 62.5734 89.3836 59.3727 89.436 53.909C89.4549 51.9452 88.2065 50.19 85.7243 48.694C83.6125 47.4205 80.5272 46.2885 76.5543 45.3307C72.7975 44.4253 67.6623 43.4297 55.9325 42.2684C56.6836 42.2516 57.4473 42.2432 58.2195 42.2432C69.9209 42.2432 84.3375 44.1819 89.7067 49.6214C91.1796 51.1132 91.9139 52.8159 91.8898 54.6812C91.8111 60.7585 84.7455 64.4219 78.8319 66.4246C71.1715 69.0201 62.3675 69.9412 57.1567 69.9412H57.1546C56.8221 69.9412 56.4937 69.938 56.179 69.9307L55.9639 69.9254V71.5441L53.0674 70.0513L53.0685 70.0524Z" fill="#F58220"/>
<path d="M59.854 42.4656C65.6869 42.5537 71.4233 43.1129 76.1651 44.0634C79.1928 44.6697 81.8375 45.4335 84.0259 46.3346C86.421 47.3208 88.282 48.4758 89.5588 49.7693C90.9908 51.2202 91.7052 52.8725 91.6811 54.679C91.6034 60.6336 84.6144 64.2456 78.7658 66.2274C71.1285 68.8144 62.3529 69.7324 57.1578 69.7324C56.8253 69.7324 56.4979 69.7292 56.1853 69.7219L55.7562 69.7124V70.1415V71.2011L53.165 69.8666L50.685 68.5878L53.165 67.309L55.7552 65.9735V67.4537H56.1759C61.158 67.4412 69.5443 66.6606 76.783 64.4985C80.6006 63.3581 83.6252 61.9733 85.7716 60.3819C88.3188 58.4935 89.6228 56.3167 89.6448 53.9122C89.6647 51.8686 88.3817 50.0526 85.8314 48.5146C83.7007 47.2295 80.5954 46.0902 76.6026 45.1271C73.2843 44.3267 68.8929 43.458 59.8529 42.4656M58.2184 42.0334C56.3007 42.0334 54.4732 42.0848 52.7978 42.1792C67.3685 43.5262 89.3017 45.8699 89.2241 53.9069C89.1318 63.6005 66.8325 67.0079 56.1727 67.032V65.2842L52.9709 66.9345L49.7681 68.5868L52.9709 70.2391L56.1738 71.8893V70.1415C56.4906 70.1488 56.8169 70.152 57.1557 70.152C68.6914 70.152 91.9517 65.9011 92.0986 54.6843C92.2255 44.9519 72.6297 42.0334 58.2184 42.0334Z" fill="white"/>
<path fill-rule="evenodd" clip-rule="evenodd" d="M50.7555 65.2202C39.054 65.2202 24.6375 63.2815 19.2672 57.842C17.7943 56.3502 17.0599 54.6476 17.0841 52.7823C17.1628 46.705 24.2283 43.0416 30.142 41.0378C37.8035 38.4424 46.6063 37.5213 51.8171 37.5213C52.1508 37.5213 52.4802 37.5244 52.7949 37.5318L53.01 37.537V35.9183L55.9065 37.4111L58.7474 38.8767L55.9054 40.3423L53.01 41.8351V40.2206H52.8001C47.8317 40.2321 39.4694 41.0105 32.2517 43.1664C26.4807 44.89 19.5914 48.0908 19.5389 53.5544C19.52 55.5183 20.7685 57.2734 23.2506 58.7694C25.3624 60.043 28.4477 61.175 32.4206 62.1328C36.1774 63.0382 41.3127 64.0337 53.0425 65.1951C52.2913 65.2119 51.5276 65.2202 50.7555 65.2202Z" fill="#F58220"/>
<path d="M53.2199 36.2623L55.8112 37.5968L58.2912 38.8756L55.8112 40.1544L53.221 41.4899V40.0097H52.8003C47.8182 40.0223 39.4318 40.8028 32.1931 42.9649C28.3755 44.1053 25.351 45.4901 23.2046 47.0816C20.6574 48.9699 19.3534 51.1468 19.3314 53.5513C19.3114 55.5949 20.5945 57.4108 23.1448 58.9488C25.2755 60.2339 28.3808 61.3732 32.3736 62.3363C35.6918 63.1367 40.0833 64.0054 49.1233 64.9978C43.2914 64.9097 37.555 64.3495 32.8142 63.4011C29.7865 62.7947 27.1418 62.031 24.9524 61.1298C22.5573 60.1437 20.6962 58.9887 19.4195 57.6951C17.9875 56.2443 17.2731 54.5919 17.2972 52.7854C17.3748 46.8308 24.3638 43.2188 30.2125 41.2371C37.8498 38.6501 46.6254 37.7321 51.8205 37.7321C52.153 37.7321 52.4803 37.7353 52.793 37.7426L53.222 37.752V37.323V36.2634M52.8024 35.5752V37.323C52.4856 37.3156 52.1593 37.3125 51.8205 37.3125C40.2847 37.3125 17.0244 41.5634 16.8776 52.7802C16.7506 62.5125 36.3475 65.4311 50.7577 65.4311C52.6755 65.4311 54.503 65.3797 56.1773 65.2853C41.6066 63.9382 19.6734 61.5946 19.751 53.5575C19.8433 43.864 42.1427 40.4566 52.8024 40.4325V42.1802L56.0042 40.53L59.2071 38.8777L56.0042 37.2254L52.8013 35.5752H52.8024Z" fill="white"/>
<path fill-rule="evenodd" clip-rule="evenodd" d="M26.9866 48.3447H31.9172C32.8446 48.3447 33.5496 48.4506 34.0312 48.6573C34.5106 48.8671 34.882 49.1776 35.1474 49.5889C35.4117 50.0012 35.5576 50.5058 35.5827 51.1027C35.6153 51.878 35.4222 52.5662 35.0058 53.1705C34.5914 53.7747 34.0532 54.2111 33.3954 54.4724C32.7387 54.7346 31.8176 54.8679 30.6321 54.8679H29.1435L28.4616 58.6823H25.0762L26.3938 51.5549L25.6144 51.558L26.9855 48.3447H26.9866ZM29.5316 52.8222H30.6646C31.1923 52.8222 31.6183 52.6753 31.9445 52.3794C32.2708 52.0836 32.425 51.729 32.4082 51.3209C32.382 50.702 32.0148 50.3914 31.3098 50.3914H29.9901L29.5327 52.8222H29.5316Z" fill="white"/>
<path fill-rule="evenodd" clip-rule="evenodd" d="M46.5865 58.6823H42.8738L40.5396 54.7294L39.7759 58.6823H36.8164L38.1928 51.5528L37.3032 51.5507L38.8128 48.3447H43.8516C44.9615 48.3447 45.7703 48.6237 46.2781 49.1829C46.7859 49.741 46.9516 50.4754 46.7754 51.3902C46.661 51.985 46.4459 52.5127 46.1302 52.9701C45.8154 53.4243 44.63 54.358 43.797 54.4356L46.5855 58.6823H46.5865ZM40.9666 52.5169H42.2339C42.6053 52.5169 42.92 52.434 43.1791 52.2682C43.4361 52.1004 43.5966 51.8549 43.6585 51.5318C43.7865 50.873 43.4718 50.5425 42.7144 50.5425H41.3495L40.9676 52.5169H40.9666Z" fill="white"/>
<path fill-rule="evenodd" clip-rule="evenodd" d="M53.6885 48.3447L51.8463 58.6823H48.7012L49.9779 51.516H49.1984L50.5423 48.3447H53.6885Z" fill="white"/>
<path fill-rule="evenodd" clip-rule="evenodd" d="M54.2197 58.6823L57.368 50.7964H56.4532L58.3468 48.3447H61.7836L62.9827 53.7076L66.6682 48.3447H69.978L69.977 58.6823H66.7919L66.7773 52.6847L62.6995 58.7526L61.3325 58.6823L59.6792 52.6847L57.4121 58.6823H54.2197Z" fill="white"/>
<path fill-rule="evenodd" clip-rule="evenodd" d="M83.5163 58.6823H79.9505L79.7889 56.9902H75.9514L75.0366 58.6823H71.1172L76.1895 50.7964H75.1897L77.7652 48.3447H81.6447L83.5163 58.6823ZM79.556 54.7976L79.1972 51.0303H79.1637L77.141 54.7976H79.555H79.556Z" fill="white"/>
</g>
<defs>
<clipPath id="clip0_801_8756">
<rect width="80" height="53.5998" fill="white" transform="translate(14 27)"/>
</clipPath>
</defs>
</svg>
