<svg width="108" height="108" viewBox="0 0 108 108" fill="none" xmlns="http://www.w3.org/2000/svg">
<path d="M40.7877 50.1574H40.3649C39.9522 50.1574 39.771 50.2782 39.4992 50.7312L37.2442 54.3854L36.308 50.7714C36.1973 50.3386 36.0765 50.1674 35.6034 50.1674H35.251C34.7879 50.1674 34.496 50.4392 34.4054 50.9224L33.3585 56.8014C33.2779 57.2443 33.4793 57.4759 33.8618 57.4759H34.0229C34.4255 57.4759 34.6067 57.2745 34.6772 56.8417L35.5228 52.0902L36.3382 55.2713C36.4087 55.5934 36.4691 55.8048 37.0832 55.8048C37.5966 55.8048 37.7174 55.6236 37.8986 55.3317L39.8918 52.06L39.0462 56.8115C38.9656 57.2645 39.167 57.4859 39.5394 57.4859H39.7106C40.1132 57.4859 40.2944 57.2745 40.3649 56.8517L41.4018 50.9325C41.4924 50.4594 41.2608 50.1574 40.7877 50.1574Z" fill="black"/>
<path d="M47.0794 54.3652C47.029 52.9358 46.0626 51.8888 44.4318 51.8888C42.5695 51.8888 41.4319 53.4089 41.4823 55.0699C41.5427 56.59 42.5896 57.5664 44.1298 57.5664C46.0425 57.5564 47.1297 56.0262 47.0794 54.3652ZM44.1399 56.5195C43.2641 56.5195 42.7104 55.8853 42.6802 55.0196C42.64 53.9022 43.3748 52.9156 44.4218 52.9156C45.2271 52.9156 45.8613 53.5498 45.8915 54.4256C45.9217 55.6034 45.1868 56.5195 44.1399 56.5195Z" fill="black"/>
<path d="M51.2369 51.8888C50.4618 51.8888 49.8477 52.2714 49.435 52.9156C49.4753 52.1808 49.0726 51.9694 48.6599 51.9694C48.4686 51.9694 48.3176 52.0197 48.3075 52.0398L47.4619 56.8215C47.3814 57.3148 47.6532 57.4557 48.0156 57.4557H48.1666C48.5592 57.4557 48.7203 57.2946 48.8008 56.8215L49.3041 53.9525C49.6665 53.3183 50.0692 53.0163 50.6933 53.0163C51.3175 53.0163 51.6899 53.3888 51.7 54.0028C51.7101 54.1639 51.6698 54.3652 51.6396 54.6068L51.247 56.8215C51.1665 57.3148 51.4483 57.4557 51.8007 57.4557H51.9517C52.3443 57.4557 52.5053 57.2946 52.5859 56.8215L53.0187 54.3753C53.0691 54.1035 53.0993 53.8619 53.0892 53.6404C53.059 52.6136 52.3745 51.8888 51.2369 51.8888Z" fill="black"/>
<path d="M75.0547 51.8888C74.4205 51.8888 73.9474 52.2512 73.6252 52.9156C73.6756 52.1808 73.2729 51.9694 72.8602 51.9694C72.6588 51.9694 72.5179 52.0197 72.5078 52.0398L71.6522 56.8215C71.5716 57.3148 71.8938 57.4557 72.2562 57.4557H72.4072C72.7494 57.4557 72.9105 57.2946 73.0011 56.8215L73.283 55.2209C73.4944 53.9726 73.9574 53.1069 74.7024 53.1069C75.0648 53.1069 75.2963 53.2579 75.4473 53.429C75.4675 53.4492 76.0312 53.2277 76.0111 52.5633C75.9809 52.1506 75.5681 51.8888 75.0547 51.8888Z" fill="black"/>
<path d="M81.5578 51.9694C81.0343 51.9694 80.7424 52.221 80.5713 52.8854C80.2391 52.2613 79.5545 51.8788 78.7593 51.8788C77.0681 51.8788 75.8902 53.3888 75.8902 55.1001C75.8902 56.5095 76.756 57.5564 78.1251 57.5564C78.9606 57.5564 79.6049 57.2141 80.0176 56.5195C79.9572 57.2443 80.0981 57.4658 80.6216 57.4658C81.0847 57.4658 81.2357 57.2947 81.286 56.7813C81.3464 55.835 81.6685 54.2948 82.041 52.1304C82.041 52.0902 81.8296 51.9694 81.5578 51.9694ZM78.417 56.5195C77.5915 56.5195 77.1184 55.9961 77.1184 55.0699C77.1184 53.9827 77.7526 52.8955 78.9304 52.8955C79.8867 52.8955 80.2894 53.6002 80.2894 54.3753C80.2894 55.3518 79.625 56.5195 78.417 56.5195Z" fill="black"/>
<path d="M89.591 51.8888C88.6649 51.8888 88.0508 52.362 87.6179 53.0566C87.4065 52.3217 86.7723 51.8888 85.967 51.8888C85.2623 51.8888 84.6482 52.221 84.2254 52.8552C84.2456 52.1808 83.853 51.9794 83.4503 51.9794C83.249 51.9794 83.108 52.0298 83.098 52.0499L82.2524 56.8316C82.1718 57.3248 82.4436 57.4658 82.806 57.4658H82.957C83.2993 57.4658 83.5107 57.3248 83.5912 56.8316L84.1147 53.8619C84.4972 53.268 84.8596 53.0163 85.4234 53.0163C85.977 53.0163 86.3193 53.429 86.3193 54.0532C86.3193 54.1538 86.3092 54.2646 86.2891 54.3854L85.8663 56.8316C85.7858 57.3248 86.0676 57.4658 86.42 57.4658H86.5609C86.9032 57.4658 87.1247 57.3148 87.2052 56.8316L87.7287 53.8619C88.1112 53.268 88.4736 53.0163 89.0373 53.0163C89.5709 53.0163 89.9635 53.3384 89.9635 54.0028C89.9635 54.1639 89.9333 54.3652 89.893 54.6068L89.5004 56.8215C89.4199 57.3148 89.6917 57.4557 90.0541 57.4557H90.2051C90.5977 57.4557 90.7587 57.2946 90.8393 56.8215L91.2721 54.3753C91.3225 54.1035 91.3426 53.8619 91.3426 53.6404C91.3527 52.5633 90.6279 51.8888 89.591 51.8888Z" fill="black"/>
<path d="M59.1997 54.2847C59.1997 53.5398 59.0487 53.0465 58.7165 52.6136C58.3541 52.1506 57.6796 51.8687 56.8944 51.8687C54.5187 51.8687 53.663 53.6203 53.663 55.1404C53.663 56.59 54.7099 57.5564 56.3206 57.5564C57.9313 57.5564 58.8373 56.8417 58.8373 56.2679C58.8373 55.8853 58.5655 55.7545 58.2534 55.7243C57.8306 56.2679 57.2467 56.5296 56.4515 56.5296C55.7468 56.5296 54.9113 56.2578 54.8509 54.9995H58.5051C58.8977 55.0095 59.1997 54.7881 59.1997 54.2847ZM58.0219 54.1136H54.9717C55.2636 53.3384 55.9381 52.8552 56.7937 52.8552C57.2266 52.8552 57.5588 52.976 57.7803 53.2176C57.9715 53.4391 58.042 53.7411 58.0219 54.1136Z" fill="black"/>
<path d="M70.5448 53.5498H68.3704C68.1087 53.5498 67.9879 53.6102 67.9073 53.6908C67.7765 53.8317 67.706 54.1538 67.706 54.2948C67.7161 54.5162 67.9073 54.6471 68.2597 54.6471H69.7999C69.5885 55.7242 68.9039 56.4692 67.7261 56.4692C66.4879 56.4692 65.6625 55.684 65.6121 54.3451C65.5517 52.664 66.6691 51.2748 68.2496 51.2748C69.1757 51.2748 69.9005 51.768 70.1925 52.4224C70.2327 52.4727 71.0884 52.4727 71.0582 51.7378C71.0481 51.4761 70.8971 51.164 70.6153 50.9023C70.1623 50.4493 69.3066 50.0567 68.1691 50.0567C66.5785 50.0567 65.3202 50.9325 64.6659 52.2009C64.6659 52.1908 64.6558 52.1908 64.6558 52.1908C64.5249 52.0197 64.3135 51.9392 64.1021 51.9392C63.7498 51.9392 63.5183 52.0499 63.176 52.6539L61.4848 55.6236L60.8506 52.664C60.7298 52.1103 60.5285 51.9392 60.1761 51.9392C59.7634 51.9392 59.4312 52.2412 59.4412 52.3116L60.6493 57.0933L59.401 59.1469C59.2701 59.3684 59.2601 59.6603 59.7332 59.6603H59.9949C60.4882 59.6603 60.6493 59.3583 60.8909 58.9456L64.2934 53.1874C64.1927 53.5901 64.1424 54.023 64.1625 54.4659C64.2229 56.3987 65.5316 57.5664 67.4443 57.5664C68.3503 57.5664 69.0751 57.2242 69.4777 56.7007C69.4475 57.2644 69.7495 57.4859 70.1522 57.4859C70.3737 57.4859 70.5347 57.4154 70.5347 57.3752L71.0884 54.2746C71.179 53.7914 70.9978 53.5498 70.5448 53.5498Z" fill="black"/>
<path d="M92.7821 56.8718C92.8224 56.9423 92.8526 56.9725 92.9029 56.9725C92.9029 56.9725 92.913 57.053 92.8123 57.053C92.7519 57.053 92.7117 57.0228 92.6513 56.9121L92.5405 56.7108H92.4399L92.3895 56.9926C92.3795 57.0329 92.3593 57.053 92.3191 57.053H92.2989C92.2587 57.053 92.2385 57.0329 92.2486 56.9826L92.3895 56.2578C92.3996 56.2074 92.4298 56.1873 92.4801 56.1873H92.6915C92.8828 56.1873 92.9935 56.2678 92.9935 56.4088C92.9935 56.5799 92.8828 56.6906 92.6915 56.7007L92.7821 56.8718ZM92.6513 56.6C92.7821 56.6 92.8526 56.5296 92.8425 56.4188C92.8425 56.3383 92.7821 56.288 92.6714 56.288H92.5204L92.46 56.59H92.6513V56.6Z" fill="black"/>
<path d="M92.6211 55.9558C93.0137 55.9558 93.3257 56.2779 93.3257 56.6604C93.3257 57.053 93.0036 57.3651 92.6211 57.3651C92.2285 57.3651 91.9164 57.043 91.9164 56.6604C91.9063 56.2779 92.2285 55.9558 92.6211 55.9558ZM92.6211 55.835C92.1681 55.835 91.7956 56.2074 91.7956 56.6604C91.7956 57.1134 92.1681 57.4859 92.6211 57.4859C93.0741 57.4859 93.4465 57.1134 93.4465 56.6604C93.4465 56.2074 93.0741 55.835 92.6211 55.835Z" fill="black"/>
<path d="M22.5469 62.4589C26.9557 62.4589 30.5297 58.8848 30.5297 54.476C30.5297 50.0672 26.9557 46.4931 22.5469 46.4931C18.138 46.4931 14.564 50.0672 14.564 54.476C14.564 58.8848 18.138 62.4589 22.5469 62.4589Z" fill="white"/>
<path d="M30.5297 54.476C30.5297 58.8848 26.9557 62.4589 22.5469 62.4589C18.138 62.4589 14.564 58.8848 14.564 54.476C14.564 53.2579 14.8358 52.1103 15.319 51.0835C14.9968 51.8989 14.8458 52.7143 14.8458 53.4693C14.8458 57.0833 17.7652 57.6067 19.0034 57.5967C20.8959 57.5765 23.1005 56.6504 24.9629 54.9391C24.9629 54.9391 24.7213 56.288 24.6508 56.7007C24.5803 57.1034 24.8421 57.4557 25.2447 57.4557H25.4058C25.8185 57.4557 26.1205 57.1135 26.191 56.7007L26.8655 52.9358C26.946 52.513 26.6742 52.1808 26.2514 52.1808H22.4865C22.0637 52.1808 21.6811 52.4022 21.6106 52.825C21.6106 52.8452 21.5804 52.966 21.5804 52.9962C21.52 53.3988 21.8019 53.7008 22.2046 53.7008H24.1676C24.1374 53.731 24.1072 53.7612 24.077 53.7914C22.718 55.0699 21.0368 55.7746 19.6476 55.7746C18.2685 55.7746 16.7182 54.8988 16.7182 52.9358C16.7182 48.8588 20.5436 46.4931 22.5469 46.4931C26.946 46.4931 30.5297 50.0668 30.5297 54.476Z" fill="#DF2127"/>
</svg>
