<svg width="108" height="108" viewBox="0 0 108 108" fill="none" xmlns="http://www.w3.org/2000/svg">
<path d="M94.0002 47.3717C94.0002 47.4454 93.9788 47.5177 93.9389 47.5795C93.3899 48.4287 92.8414 49.2781 92.2913 50.1265C91.5468 51.2747 90.8016 52.4227 90.0553 53.5696C89.8825 53.8349 89.6857 54.083 89.4792 54.3224C89.4191 54.3923 89.3419 54.4493 89.2665 54.5046C89.2242 54.5356 89.1675 54.5629 89.1151 54.5346C89.0628 54.5062 89.059 54.4477 89.0628 54.3926C89.0781 54.1796 89.1297 53.9737 89.1934 53.771C89.5108 52.7593 89.8309 51.7482 90.1462 50.736C90.2596 50.3718 90.0086 50.0169 89.6253 49.9899C89.5627 49.9856 89.4995 49.9875 89.4366 49.9875C87.4357 49.9875 85.4348 49.9875 83.4338 49.9875C83.4022 49.9875 83.3707 49.9859 83.3394 49.9877C83.2605 49.9926 83.1931 49.9705 83.1623 49.8941C83.1296 49.8126 83.145 49.7378 83.2128 49.6738C83.7809 49.1378 84.3262 48.5744 84.9349 48.0843C85.5748 47.5687 86.3263 47.2753 87.1285 47.1058C87.3318 47.0629 87.5431 47.0696 87.741 46.9995H93.6004C93.6417 46.9995 93.6825 47.0065 93.7224 47.0159C93.7302 47.0178 93.7381 47.0194 93.7462 47.0205C93.8922 47.0429 94.0004 47.1676 94.0004 47.3153L94.0002 47.3717Z" fill="#EA5CA1"/>
<path d="M36.0486 59.4795C36.0036 59.5386 35.9542 59.5953 35.914 59.6577C35.4729 60.3403 34.8351 60.7414 34.0653 60.9611C33.0026 61.2642 31.9332 61.3355 30.8635 61.0235C30.1163 60.8056 29.4942 60.3978 29.1079 59.6955C28.6679 58.8951 28.6933 57.3528 29.9285 56.6232C30.5787 56.2391 31.2813 56.0075 32.0149 55.8607C32.9578 55.6717 33.9117 55.5505 34.8623 55.4105C35.5061 55.3154 35.4732 54.835 35.2286 54.4787C35.0127 54.1642 34.6777 54.0096 34.3106 53.9402C33.7551 53.8352 33.2099 53.8565 32.7 54.1359C32.4714 54.2611 32.2841 54.4342 32.1523 54.6609C32.0595 54.8209 31.924 54.8887 31.7407 54.8879C31.0527 54.8849 30.3647 54.8873 29.6766 54.8865C29.3441 54.8863 29.1719 54.6585 29.2639 54.3418C29.4688 53.636 29.9295 53.1237 30.5136 52.7072C31.1704 52.2392 31.9097 51.9779 32.7016 51.8623C33.7943 51.7031 34.8799 51.736 35.9474 52.037C36.5947 52.2195 37.1829 52.5139 37.669 52.9933C38.1826 53.4997 38.4358 54.1162 38.4385 54.828C38.4458 56.749 38.4412 58.67 38.4407 60.5913C38.4407 60.838 38.3052 60.9727 38.0558 60.973C37.4037 60.9741 36.7518 60.9743 36.0997 60.973C35.8519 60.9724 35.722 60.8267 35.7372 60.5781C35.7563 60.2588 35.8694 59.9675 36.0009 59.6814C36.0281 59.6218 36.0546 59.5618 36.0816 59.5022C36.0705 59.4946 36.0597 59.4871 36.0486 59.4795ZM35.3776 57.528C35.3776 57.359 35.3703 57.2195 35.3798 57.081C35.3882 56.9579 35.3614 56.9226 35.227 56.9479C34.6847 57.051 34.1395 57.1385 33.5964 57.2362C33.1864 57.3099 32.7702 57.3598 32.385 57.5339C32.023 57.6975 31.8071 57.9591 31.7987 58.3728C31.7906 58.7715 32.0236 58.9961 32.3456 59.1621C32.3972 59.1885 32.4517 59.2115 32.5076 59.2269C33.2968 59.4466 34.0445 59.3551 34.742 58.9183C35.0537 58.7232 35.2823 58.4598 35.3577 58.0892C35.3973 57.8943 35.3714 57.6953 35.3776 57.528ZM36.0943 59.4595C36.091 59.4539 36.0878 59.4479 36.0845 59.4423C36.0816 59.4452 36.0756 59.449 36.0762 59.4512C36.0775 59.4574 36.0816 59.4633 36.0845 59.4693C36.0875 59.4663 36.0905 59.4633 36.0943 59.4595Z" fill="#132F59"/>
<path d="M74.0273 57.0411C72.8942 57.0411 71.7614 57.0432 70.6285 57.0378C70.5057 57.0373 70.4833 57.0726 70.4838 57.1868C70.4881 57.9596 70.7645 58.5966 71.4183 59.0366C71.8548 59.3303 72.3509 59.3945 72.8637 59.3494C73.68 59.2776 74.236 58.8468 74.5513 58.1002C74.6142 57.9512 74.7081 57.8902 74.8698 57.891C75.6431 57.8959 76.4164 57.8981 77.1897 57.8902C77.43 57.8878 77.5579 58.0147 77.4732 58.2751C77.1296 59.3316 76.4407 60.0858 75.4671 60.5916C74.446 61.1223 73.3455 61.2588 72.2127 61.2073C71.4717 61.1735 70.7489 61.0442 70.07 60.7352C68.8214 60.167 67.9736 59.2531 67.6526 57.8959C67.5938 57.6468 67.5536 57.3936 67.5463 57.138C67.5239 56.3714 67.4839 55.6026 67.7242 54.8566C68.0473 53.8536 68.7013 53.1169 69.588 52.5736C70.561 51.9773 71.635 51.7738 72.7598 51.7941C73.7949 51.8127 74.7823 52.0278 75.6749 52.5766C76.7098 53.2128 77.403 54.0976 77.637 55.3092C77.7347 55.8159 77.7126 56.3277 77.7072 56.8386C77.7058 56.9606 77.6205 57.02 77.5074 57.0386C77.468 57.0451 77.4267 57.0408 77.3862 57.0408C76.2666 57.0408 75.147 57.0411 74.0273 57.0411ZM72.6113 55.4644C73.2589 55.4644 73.9062 55.465 74.5537 55.4642C74.6973 55.4642 74.7246 55.4342 74.6973 55.3109C74.4859 54.3551 73.8322 53.7289 72.9056 53.639C71.7554 53.5275 70.7964 54.1637 70.5435 55.2758C70.506 55.4412 70.5224 55.4639 70.696 55.4642C71.3343 55.4644 71.973 55.4644 72.6113 55.4644Z" fill="#132F59"/>
<path d="M39.9695 57.1317C39.9695 56.0321 39.9695 54.9324 39.9695 53.8328C39.9695 52.7995 40.7402 52.0283 41.7721 52.0281C42.1003 52.0281 42.4285 52.0316 42.7567 52.0259C42.8534 52.0243 42.8866 52.0443 42.8879 52.1495C42.8922 52.5139 42.7613 52.8319 42.577 53.135C42.5608 53.1617 42.5394 53.186 42.5257 53.2141C42.5122 53.2419 42.4639 53.2673 42.5071 53.3045C42.5513 53.3426 42.5708 53.2943 42.5921 53.2713C42.7087 53.1469 42.8231 53.0206 42.9384 52.8948C43.5638 52.2124 44.3498 51.8677 45.2638 51.7919C45.8821 51.7406 46.4951 51.7741 47.0941 51.9422C48.3363 52.2904 49.0618 53.1304 49.3717 54.357C49.4864 54.8115 49.5339 55.275 49.5345 55.7427C49.5361 57.3361 49.535 58.9294 49.535 60.5228C49.535 60.8162 49.4014 60.9506 49.1091 60.9506C48.4299 60.9506 47.7511 60.9506 47.072 60.9506C46.7483 60.9506 46.6209 60.8253 46.6209 60.5058C46.6209 58.8943 46.6209 57.2832 46.6209 55.6717C46.6209 55.3152 46.5815 54.9646 46.4579 54.6277C46.2552 54.0744 45.8614 53.7461 45.2789 53.6511C44.8462 53.5804 44.4159 53.592 44.0097 53.7726C43.3711 54.0563 43.0504 54.5813 42.9268 55.2461C42.8922 55.4321 42.8844 55.6202 42.8844 55.8089C42.8844 57.3574 42.8844 58.9059 42.8844 60.4542C42.8844 60.5125 42.8836 60.5711 42.8771 60.6288C42.8553 60.8205 42.7198 60.9506 42.5265 60.9511C41.7937 60.9538 41.0605 60.9538 40.3277 60.9511C40.115 60.9503 39.9738 60.8011 39.9706 60.5786C39.9666 60.3138 39.9695 60.0491 39.9695 59.7843C39.9695 58.9 39.9695 58.0157 39.9695 57.1317Z" fill="#132F59"/>
<path d="M52.3783 58.4857C52.8053 58.4857 53.2326 58.4886 53.6597 58.4838C53.7798 58.4824 53.8475 58.5183 53.8899 58.6376C53.9865 58.9103 54.1822 59.1073 54.4478 59.2064C55.2454 59.5033 56.0447 59.5197 56.8277 59.1518C57.0485 59.0482 57.2267 58.8862 57.2785 58.632C57.3435 58.3135 57.2051 58.0508 56.9001 57.908C56.6342 57.7836 56.3491 57.7167 56.0619 57.6667C55.3148 57.5366 54.5655 57.4206 53.8192 57.2859C53.2648 57.1857 52.7371 57.0054 52.2415 56.7298C50.68 55.8615 50.6757 53.6606 52.0604 52.6894C52.6618 52.2675 53.3309 52.0259 54.0467 51.912C55.2379 51.7223 56.4282 51.7314 57.607 52.0103C58.275 52.1684 58.8918 52.4378 59.3879 52.9304C59.7769 53.3164 59.9763 53.7909 60.0241 54.3324C60.0357 54.4647 59.9906 54.5173 59.8584 54.5176C59.0133 54.5189 58.1679 54.5176 57.3228 54.5192C57.2461 54.5192 57.1905 54.4965 57.1692 54.4196C57.045 53.9715 56.7135 53.7594 56.2889 53.6681C55.7677 53.5561 55.2457 53.5537 54.7299 53.7064C54.5655 53.755 54.4127 53.8295 54.2783 53.9383C53.8613 54.2752 53.9182 54.8652 54.3955 55.1038C54.741 55.2766 55.1197 55.3341 55.4946 55.4029C56.3813 55.5657 57.2817 55.6561 58.1546 55.8904C58.6513 56.0237 59.1218 56.2213 59.5294 56.5452C60.185 57.0659 60.409 57.758 60.3129 58.565C60.1988 59.5243 59.606 60.1327 58.7927 60.5654C58.0505 60.9606 57.2442 61.1239 56.415 61.1884C55.5742 61.2537 54.7353 61.2302 53.9031 61.0842C53.126 60.9476 52.3886 60.7077 51.7591 60.2099C51.2663 59.8202 50.965 59.3173 50.8757 58.6927C50.8541 58.5424 50.8994 58.4873 51.0571 58.4867C51.4976 58.4851 51.9378 58.4857 52.3783 58.4857Z" fill="#132F59"/>
<path d="M82.7809 60.9698C81.3916 60.9698 80.0023 60.9698 78.6133 60.9698C78.3528 60.9698 78.2899 60.9096 78.3015 60.6531C78.3523 59.5376 78.8106 58.6225 79.6452 57.88C80.9703 56.701 82.2845 55.5103 83.6033 54.3243C83.6268 54.3032 83.6579 54.286 83.6711 54.2598C83.6951 54.212 83.7051 54.161 83.6211 54.164C83.5898 54.165 83.5583 54.164 83.5267 54.164C82.2993 54.164 81.072 54.164 79.8447 54.164C78.9952 54.164 78.3536 53.5229 78.3531 52.6743C78.3531 52.5353 78.3504 52.396 78.3539 52.257C78.3574 52.1174 78.4322 52.0454 78.5728 52.0386C78.6041 52.037 78.6357 52.0386 78.6673 52.0386C81.4143 52.0386 84.1613 52.0386 86.9082 52.0386C87.1776 52.0386 87.2357 52.0939 87.2262 52.3606C87.1879 53.4354 86.7738 54.3413 85.9805 55.0685C84.9249 56.0361 83.863 56.9973 82.8041 57.9612C82.5385 58.2031 82.2734 58.4452 82.0084 58.6876C81.9698 58.7229 81.9115 58.7561 81.9417 58.8188C81.969 58.8749 82.0305 58.8441 82.075 58.8444C83.307 58.8463 84.5389 58.8457 85.7705 58.846C86.6246 58.846 87.2591 59.4798 87.2597 60.3319C87.2597 60.4709 87.2616 60.6102 87.2591 60.7492C87.2567 60.8863 87.1917 60.956 87.057 60.9687C87.0168 60.9725 86.976 60.97 86.9358 60.97C85.5511 60.97 84.1656 60.9698 82.7809 60.9698Z" fill="#132F59"/>
<path d="M62.4588 57.488C62.4588 56.4694 62.4588 55.4507 62.4588 54.432C62.4588 54.2301 62.4342 54.205 62.2359 54.2047C62.0334 54.2045 61.8312 54.2061 61.6288 54.2042C61.344 54.2018 61.1958 54.0536 61.1953 53.772C61.1945 53.3593 61.1948 52.9464 61.1953 52.5334C61.1956 52.2413 61.343 52.0926 61.632 52.0915C61.8434 52.091 62.0547 52.0923 62.2658 52.091C62.4191 52.0902 62.4558 52.0524 62.4588 51.9004C62.4674 51.4656 62.4361 51.0299 62.4855 50.5959C62.5708 49.8455 62.8424 49.199 63.5172 48.7852C63.9671 48.5094 64.4692 48.3928 64.9877 48.3464C65.7875 48.2746 66.5862 48.3191 67.3832 48.3982C67.5306 48.4128 67.5557 48.4605 67.4826 48.5893C67.2221 49.049 66.9603 49.5078 66.6987 49.9667C66.6191 50.1065 66.5047 50.1856 66.337 50.1775C66.279 50.1748 66.2199 50.1783 66.1621 50.1864C65.5977 50.2652 65.3548 50.5457 65.354 51.1171C65.3537 51.3773 65.3529 51.6378 65.3543 51.898C65.3551 52.0478 65.3974 52.0907 65.5467 52.091C66.1041 52.0918 66.6617 52.091 67.2191 52.0915C67.4529 52.0915 67.4963 52.1409 67.4461 52.3595C67.3139 52.9323 67.0734 53.4441 66.5945 53.8141C66.2949 54.0455 65.9489 54.1591 65.5742 54.1896C65.3869 54.2047 65.3543 54.2366 65.354 54.4309C65.354 56.4594 65.354 58.4876 65.354 60.516C65.354 60.6245 65.3532 60.7314 65.2838 60.824C65.2093 60.9239 65.1116 60.9803 64.9858 60.9805C64.2665 60.9814 63.5471 60.9838 62.8278 60.9797C62.6029 60.9784 62.4588 60.8118 62.4585 60.5708C62.4577 59.5432 62.4588 58.5156 62.4588 57.488Z" fill="#132F59"/>
<path d="M17.9564 51.8791C18.4539 51.8791 18.951 51.8767 19.4485 51.8796C20.1171 51.8839 20.6394 52.3064 20.7579 52.9517C20.8073 53.2214 20.7819 53.4981 20.7709 53.771C20.7655 53.9019 20.6543 53.9801 20.5031 53.9823C20.2648 53.9855 20.0264 53.9834 19.7881 53.9834C19.4329 53.9834 19.0776 53.9826 18.7224 53.9839C18.567 53.9845 18.5073 54.0409 18.507 54.1926C18.5065 55.3953 18.5011 56.5981 18.5111 57.8009C18.5159 58.395 18.798 58.7245 19.3629 58.8417C19.5389 58.8781 19.7179 58.9005 19.8979 58.9024C20.1001 58.9046 20.3025 58.9024 20.5047 58.8981C20.7085 58.8938 20.8203 58.9907 20.8216 59.1923C20.8246 59.6412 20.8243 60.0898 20.8216 60.5387C20.8208 60.6898 20.7468 60.797 20.6165 60.8164C19.567 60.9735 18.5157 61.0604 17.4732 60.7789C16.8095 60.5997 16.2586 60.2491 15.909 59.6347C15.6912 59.2517 15.5951 58.8331 15.593 58.3977C15.5862 57.0243 15.5889 55.651 15.5881 54.2779C15.5881 54.016 15.5541 53.9815 15.2969 53.9804C14.5681 53.9764 14.0018 53.4082 14.0004 52.6791C14.0002 52.5174 13.9996 52.356 14.0004 52.1944C14.0018 51.9876 14.0957 51.891 14.3052 51.888C14.5208 51.885 14.7368 51.8874 14.9527 51.8872C14.9975 51.8872 15.0426 51.8869 15.0874 51.8834C15.4496 51.8561 15.641 51.6796 15.6337 51.3182C15.6205 50.6639 16.0745 49.9416 16.9194 49.7826C17.3383 49.7038 17.7531 49.6047 18.1702 49.5167C18.3686 49.4749 18.5046 49.5858 18.5057 49.7918C18.5076 50.1778 18.4973 50.564 18.5086 50.9495C18.5211 51.377 18.364 51.6896 17.9564 51.8791Z" fill="#132F59"/>
<path d="M22.2792 57.1784C22.2792 56.1104 22.2789 55.0423 22.2792 53.9742C22.2797 52.8816 23.1184 52.0416 24.2142 52.0364C24.5066 52.0351 24.7989 52.0394 25.0909 52.0343C25.1754 52.0327 25.1935 52.0583 25.1954 52.1401C25.2059 52.5836 25.1115 53.0028 24.9222 53.4022C24.8993 53.4508 24.8772 53.4997 24.8542 53.5483C24.844 53.5701 24.8386 53.5915 24.8604 53.6082C24.8942 53.6341 24.9082 53.6023 24.9228 53.5828C25.0218 53.4498 25.1209 53.3167 25.2186 53.1825C25.9234 52.2165 26.8975 51.8054 28.0698 51.8084C28.3081 51.8089 28.4631 51.9738 28.4639 52.2105C28.4652 52.6861 28.4652 53.162 28.4639 53.6376C28.4633 53.8884 28.306 54.0447 28.0498 54.0479C27.713 54.0522 27.3764 54.015 27.0395 54.049C26.1768 54.1359 25.5547 54.6485 25.3101 55.4796C25.2337 55.739 25.1949 56.004 25.1951 56.2753C25.1965 57.6754 25.1957 59.0757 25.1957 60.4758C25.1957 60.8283 25.0588 60.9646 24.7066 60.9646C24.0501 60.9646 23.3937 60.9652 22.7372 60.9646C22.419 60.9646 22.2792 60.8235 22.2792 60.5039C22.2792 59.3953 22.2792 58.287 22.2792 57.1784Z" fill="#132F59"/>
<path d="M36.0943 59.4595C36.0905 59.4633 36.0875 59.4663 36.0845 59.4693C36.0816 59.4633 36.0775 59.4574 36.0762 59.4512C36.0756 59.449 36.0816 59.4452 36.0845 59.4423C36.0878 59.4479 36.091 59.4539 36.0943 59.4595Z" fill="#FEFEFE"/>
</svg>
