<svg width="108" height="108" viewBox="0 0 108 108" fill="none" xmlns="http://www.w3.org/2000/svg">
<path d="M14 45.0187C16.709 45.0187 19.418 45.0187 22.127 45.0187C24.9855 49.951 27.8253 54.9019 30.6838 59.8342C30.3475 60.4134 30.0112 60.9925 29.6749 61.5717C29.3199 62.1509 28.8902 62.6927 28.3484 63.085C27.9 63.4026 27.3769 63.6455 26.8164 63.6829C26.2373 63.7389 25.6768 63.5708 25.1723 63.2718C24.5558 62.8982 24.0701 62.3564 23.6777 61.7585C23.3788 61.2914 23.1172 60.8057 22.837 60.3199C19.9038 55.2382 16.9519 50.1378 14 45.0187Z" fill="#FFDD00"/>
<path d="M24.8174 45.0187C27.5264 45.0187 30.2354 45.0187 32.9444 45.0187C34.8874 48.4003 36.8491 51.7819 38.8108 55.1448C39.0724 55.6305 39.6142 55.9482 40.156 55.9482C40.7165 55.9482 41.2396 55.6305 41.5198 55.1448C39.5768 51.7632 37.6151 48.3816 35.6721 45C38.3811 45 41.0901 45 43.7992 45C44.8454 46.8122 45.8916 48.6245 46.9379 50.4367C45.0509 53.7062 43.1639 56.957 41.277 60.2265C40.9967 60.6936 40.7352 61.1607 40.4549 61.6277C40.1 62.2069 39.6516 62.73 39.1098 63.1224C38.6427 63.44 38.1009 63.6642 37.5217 63.6642C36.9425 63.6828 36.3821 63.496 35.915 63.1784C35.3171 62.7861 34.8501 62.2443 34.4764 61.6464C34.1962 61.198 33.9346 60.731 33.673 60.2639C30.7025 55.2008 27.7693 50.1191 24.8174 45.0187Z" fill="#FFDD00"/>
<path d="M50.0579 45.0187C50.5997 45.0187 51.1228 45.0187 51.6646 45.0187C51.9636 46.2144 52.2812 47.3914 52.5801 48.5871C52.8417 49.6333 53.1032 50.6796 53.3087 51.7445C53.4956 50.6609 53.7758 49.5773 54.0374 48.4937C54.3176 47.3354 54.6165 46.177 54.9155 45.0187C55.4573 45.0187 55.9991 45.0187 56.5409 45.0187C56.9893 46.7001 57.419 48.3816 57.83 50.0817C57.9608 50.6049 58.0729 51.1093 58.1663 51.6324C58.2971 50.9038 58.4652 50.1751 58.652 49.4465C59.007 47.9706 59.3993 46.4759 59.7917 45C60.3148 45 60.8192 45 61.3424 45C60.5577 47.8958 59.7543 50.8104 58.9696 53.7062C58.4092 53.7062 57.83 53.7062 57.2695 53.7062C56.8585 52.1368 56.4475 50.5488 56.0738 48.9608C55.943 48.3816 55.8122 47.8024 55.7001 47.2046C55.5507 48.0827 55.3265 48.9421 55.1023 49.8202C54.766 51.1093 54.411 52.3984 54.0747 53.7062C53.5142 53.7062 52.9724 53.7062 52.412 53.7062C51.6273 50.8291 50.8426 47.9145 50.0579 45.0187Z" fill="black"/>
<path d="M73.9907 45.8594C74.4577 45.7473 74.9435 45.6165 75.4106 45.5044C75.4106 46.121 75.4106 46.7188 75.4106 47.3354C75.7282 47.3354 76.0645 47.3354 76.3821 47.3354C76.3821 47.7464 76.4007 48.1574 76.4007 48.5684C76.0645 48.5684 75.7468 48.5684 75.4106 48.5684C75.4106 49.8015 75.4106 51.0159 75.4106 52.2489C75.4106 52.4171 75.56 52.5666 75.7282 52.5666C75.9524 52.5852 76.1766 52.5479 76.4007 52.5292C76.4007 52.9402 76.4007 53.3326 76.4007 53.7436C76.0084 53.8557 75.6161 53.8557 75.2237 53.8557C74.9248 53.8557 74.6072 53.7623 74.383 53.5381C74.1028 53.2765 73.9907 52.9028 73.9907 52.5292C73.9907 51.2027 73.9907 49.8762 73.9907 48.5497C73.7478 48.5497 73.4862 48.5497 73.2433 48.5497C73.2433 48.1387 73.2433 47.7277 73.2433 47.3167C73.4862 47.3167 73.7478 47.3167 73.9907 47.3167C73.9907 46.8309 73.9907 46.3452 73.9907 45.8594Z" fill="black"/>
<path d="M62.2391 47.6156C62.7809 47.298 63.4348 47.1672 64.0514 47.2046C64.6679 47.2233 65.2844 47.4101 65.7702 47.7837C66.2186 48.1014 66.5549 48.5684 66.7604 49.0915C67.022 49.7081 67.0967 50.3993 67.078 51.0719C65.4339 51.0719 63.7711 51.0719 62.127 51.0719C62.2018 51.6698 62.5941 52.1929 63.1359 52.4171C63.8459 52.716 64.7613 52.6039 65.3218 52.0621C65.4713 51.9313 65.5834 51.7445 65.6768 51.5764C66.0691 51.7819 66.4615 51.9687 66.8351 52.1742C66.5362 52.8094 65.9757 53.2952 65.3218 53.5754C64.6866 53.8557 63.958 53.9304 63.2667 53.8183C62.6128 53.7249 61.9776 53.426 61.5105 52.9589C61.0434 52.4918 60.7258 51.8753 60.6137 51.2214C60.483 50.4554 60.5764 49.6333 60.9313 48.9421C61.2676 48.3816 61.716 47.9145 62.2391 47.6156ZM62.6875 48.8674C62.3886 49.1102 62.2018 49.4839 62.1457 49.8575C63.2854 49.8575 64.4064 49.8575 65.546 49.8575C65.5086 49.4092 65.2658 48.9981 64.8734 48.7553C64.2382 48.3255 63.2854 48.3629 62.6875 48.8674Z" fill="black"/>
<path d="M69.5441 47.2419C70.2728 47.1298 71.0761 47.2233 71.6927 47.653C72.2158 48.0079 72.5521 48.6058 72.5521 49.241C72.1037 49.3157 71.674 49.4092 71.2256 49.4839C71.1882 49.2597 71.1695 49.0355 71.0574 48.8487C70.8893 48.5684 70.553 48.419 70.2354 48.3816C69.9365 48.3629 69.6375 48.4003 69.376 48.5497C69.2078 48.6618 69.0957 48.8487 69.1144 49.0542C69.1331 49.241 69.2826 49.3905 69.4507 49.4839C69.731 49.6333 70.0299 49.7081 70.3475 49.7828C70.908 49.9323 71.4872 50.0631 71.9916 50.362C72.3279 50.5675 72.6081 50.8664 72.7389 51.2401C72.9444 51.8753 72.8323 52.6226 72.3652 53.1084C71.8982 53.5941 71.2069 53.7809 70.553 53.8183C69.731 53.8744 68.8716 53.6875 68.199 53.1644C67.7693 52.8468 67.489 52.3237 67.489 51.7819C67.9374 51.6885 68.4045 51.6137 68.8529 51.5203C68.8716 51.7632 68.9463 52.0061 69.1144 52.1742C69.3947 52.4731 69.8244 52.5666 70.2167 52.5666C70.5156 52.5666 70.8519 52.5292 71.0948 52.3237C71.3003 52.1555 71.3751 51.8379 71.2256 51.6137C71.0948 51.4269 70.8519 51.3335 70.6464 51.2401C70.0486 51.0346 69.432 50.9411 68.8529 50.6796C68.4792 50.5301 68.1429 50.3059 67.9187 49.9696C67.5264 49.3718 67.5824 48.5124 68.0495 47.9519C68.4419 47.5782 68.9837 47.3354 69.5441 47.2419Z" fill="black"/>
<path d="M78.3624 47.6343C78.9042 47.3167 79.5581 47.1672 80.1934 47.2046C80.7912 47.2233 81.4077 47.4101 81.9122 47.7651C82.3793 48.1014 82.7342 48.5684 82.9584 49.1102C83.22 49.7268 83.2947 50.3993 83.2574 51.0719C81.6133 51.0719 79.9505 51.0719 78.3064 51.0719C78.3811 51.6511 78.7548 52.1742 79.2779 52.3984C79.9505 52.6973 80.7725 52.6226 81.3704 52.1929C81.5946 52.0248 81.7627 51.8192 81.8748 51.5764C82.2672 51.7632 82.6595 51.9687 83.0518 52.1742C82.7716 52.7907 82.2298 53.2578 81.6319 53.5381C80.4736 54.0799 79.0163 53.9678 77.9888 53.1831C77.4283 52.7534 77.0546 52.1182 76.8865 51.4269C76.6997 50.6235 76.7744 49.7454 77.1294 48.9981C77.4096 48.419 77.8393 47.9519 78.3624 47.6343ZM79.39 48.5684C78.8295 48.7553 78.3998 49.2784 78.3251 49.8575C79.4647 49.8575 80.5857 49.8575 81.7254 49.8575C81.688 49.5586 81.5759 49.2784 81.3891 49.0542C80.9033 48.475 80.0626 48.3255 79.39 48.5684Z" fill="black"/>
<path d="M90.7305 47.2606C91.4591 47.0925 92.2438 47.1672 92.879 47.5782C93.3274 47.8585 93.6637 48.3255 93.8319 48.83C93.9626 49.2036 94 49.6147 94 50.007C94 51.2401 94 52.4918 94 53.7249C93.4956 53.7249 92.9911 53.7249 92.4867 53.7249C92.4867 52.5666 92.4867 51.3895 92.4867 50.2312C92.4867 49.8575 92.4493 49.4652 92.2438 49.1476C92.0943 48.886 91.8515 48.6992 91.5525 48.6058C90.9547 48.4376 90.2074 48.5497 89.8337 49.0729C89.5722 49.4092 89.4787 49.8575 89.4787 50.2686C89.4787 51.4269 89.4787 52.5666 89.4787 53.7249C88.9743 53.7249 88.4699 53.7249 87.9654 53.7249C87.9654 51.595 87.9654 49.4465 87.9654 47.3167C88.3951 47.3167 88.8435 47.3167 89.2732 47.3167C89.2732 47.6156 89.2732 47.9145 89.2732 48.2321C89.5908 47.7277 90.1513 47.3914 90.7305 47.2606Z" fill="black"/>
<path d="M83.9113 47.3167C84.3223 47.3167 84.752 47.3167 85.163 47.3167C85.163 47.5782 85.163 47.8585 85.163 48.12C85.3311 47.8585 85.574 47.6343 85.8543 47.5035C86.3213 47.2793 86.8445 47.2419 87.3489 47.3167C87.3489 47.7651 87.3489 48.2135 87.3302 48.6618C86.9192 48.6058 86.4708 48.5871 86.0598 48.7553C85.7982 48.8674 85.574 49.0915 85.4806 49.3531C85.3498 49.6707 85.4059 50.0257 85.3872 50.3433C85.3872 51.4643 85.3872 52.6039 85.4059 53.7249C84.9014 53.7249 84.397 53.7249 83.8926 53.7249C83.9113 51.595 83.9113 49.4652 83.9113 47.3167Z" fill="black"/>
<path d="M66.0691 54.8645C66.312 54.7898 66.6109 54.8085 66.8164 54.958C67.078 55.1261 67.2461 55.425 67.2275 55.724C67.2088 56.1163 66.9099 56.4526 66.5175 56.5273C66.1999 56.5834 65.8449 56.4526 65.6581 56.2097C65.49 55.9855 65.4339 55.6866 65.5273 55.425C65.6021 55.1635 65.8076 54.9393 66.0691 54.8645Z" fill="black"/>
<path d="M50.7305 60.1144C50.7305 58.3582 50.7305 56.6207 50.7305 54.8645C51.2349 54.8645 51.7581 54.8645 52.2625 54.8645C52.2625 56.602 52.2625 58.3396 52.2625 60.0584C52.2812 60.6749 52.4306 61.3475 52.8977 61.7959C53.3087 62.1882 53.9253 62.3003 54.4858 62.2443C54.9528 62.2069 55.4199 62.0014 55.7188 61.6277C56.0925 61.1793 56.2046 60.5815 56.2046 60.021C56.2046 58.3022 56.2046 56.5834 56.2046 54.8645C56.709 54.8645 57.2135 54.8645 57.7179 54.8645C57.7179 56.3405 57.7179 57.8164 57.7179 59.2924C57.7179 59.7781 57.7366 60.2639 57.6618 60.7496C57.5497 61.4783 57.2695 62.2069 56.7464 62.73C56.2793 63.2158 55.6628 63.496 55.0089 63.6081C54.2242 63.7389 53.3835 63.6829 52.6548 63.3652C52.113 63.1224 51.6273 62.73 51.3284 62.2069C50.9173 61.6091 50.7679 60.8617 50.7305 60.1144Z" fill="black"/>
<path d="M61.3984 57.1252C62.1084 56.9757 62.9117 57.0504 63.5283 57.4428C63.9766 57.723 64.2943 58.1714 64.4624 58.6572C64.5932 59.0495 64.6492 59.4792 64.6492 59.8902C64.6492 61.1233 64.6492 62.3564 64.6492 63.5894C64.1448 63.5894 63.6404 63.5894 63.1359 63.5894C63.1359 62.4685 63.1359 61.3475 63.1359 60.2265C63.1359 59.8529 63.1172 59.4418 62.9491 59.0869C62.837 58.8253 62.6128 58.6198 62.3512 58.5077C62.0523 58.3769 61.6973 58.3582 61.3797 58.4143C61.0434 58.4703 60.7258 58.6385 60.5016 58.9187C60.2401 59.255 60.1467 59.7034 60.1467 60.1144C60.1467 61.2728 60.1467 62.4311 60.1467 63.5894C59.6422 63.5894 59.1378 63.5894 58.6333 63.5894C58.6333 61.4596 58.6333 59.3111 58.6333 57.1812C59.0631 57.1812 59.5114 57.1812 59.9411 57.1812C59.9411 57.4801 59.9411 57.7791 59.9411 58.0967C60.2588 57.5736 60.8192 57.2373 61.3984 57.1252Z" fill="black"/>
<path d="M70.7959 57.0691C71.5806 56.9944 72.3839 57.1439 73.0565 57.5736C73.617 57.9099 74.0467 58.433 74.2896 59.0308C74.7753 60.1892 74.6072 61.6277 73.7851 62.5806C73.2994 63.141 72.6268 63.5147 71.8982 63.6455C71.0948 63.795 70.2167 63.7015 69.4881 63.3092C68.9089 63.0103 68.4418 62.5245 68.1616 61.964C67.5824 60.787 67.6945 59.2737 68.5353 58.2648C69.0957 57.5549 69.9365 57.1439 70.7959 57.0691ZM70.9267 58.4517C70.4409 58.5077 69.9925 58.7693 69.6936 59.1429C69.1331 59.8529 69.1518 60.9365 69.7123 61.6464C70.0673 62.0948 70.6651 62.3564 71.2443 62.319C71.8234 62.319 72.4026 62.0201 72.7576 61.5343C73.2807 60.8057 73.2434 59.7034 72.6268 59.0495C72.1971 58.5824 71.5432 58.3582 70.9267 58.4517Z" fill="black"/>
<path d="M78.0448 57.1252C78.7548 56.9757 79.5395 57.0318 80.156 57.4241C80.6044 57.6857 80.922 58.1154 81.1088 58.6011C81.2583 58.9935 81.3143 59.4232 81.3143 59.8529C81.3143 61.1046 81.3143 62.3564 81.3143 63.5894C80.8099 63.5894 80.3055 63.5894 79.801 63.5894C79.801 62.4124 79.801 61.2167 79.801 60.0397C79.801 59.6474 79.745 59.255 79.5208 58.9187C79.3526 58.6572 79.0724 58.489 78.7735 58.433C78.4559 58.3582 78.1196 58.3769 77.8206 58.4703C77.5217 58.5637 77.2602 58.7506 77.092 59.0121C76.8678 59.3297 76.7931 59.7408 76.7931 60.1144C76.7931 61.2728 76.7931 62.4311 76.7931 63.5894C76.2886 63.5894 75.7842 63.5894 75.2798 63.5894C75.2798 61.4596 75.2798 59.3111 75.2798 57.1812C75.7095 57.1812 76.1579 57.1812 76.5876 57.1812C76.5876 57.4801 76.5876 57.7791 76.5876 58.0967C76.9052 57.5736 77.4657 57.2559 78.0448 57.1252Z" fill="black"/>
<path d="M65.6021 57.1812C66.1065 57.1812 66.6109 57.1812 67.1154 57.1812C67.1154 59.3111 67.1154 61.4596 67.1154 63.5894C66.6109 63.5894 66.1065 63.5894 65.6021 63.5894C65.6021 61.4409 65.6021 59.3111 65.6021 57.1812Z" fill="black"/>
</svg>
