<svg width="80" height="26" viewBox="0 0 80 26" fill="none" xmlns="http://www.w3.org/2000/svg">
<g clip-path="url(#clip0_801_8265)">
<path fill-rule="evenodd" clip-rule="evenodd" d="M15.8255 0C15.6335 0.183256 15.5942 0.274884 15.472 0.514862C15.3673 0.719934 15.267 0.938097 15.1753 1.16498C14.8743 1.91546 14.6387 2.77938 14.438 3.70003C13.8402 6.41396 13.5653 9.045 13.1028 11.7502C13.0286 12.1822 12.937 12.6708 12.7843 13.1246C12.5792 13.7355 12.2738 14.294 11.6891 14.6125C11.4928 14.7172 11.2702 14.8001 11.0128 14.8481H3.35097C3.75239 14.4205 4.09708 13.5828 4.39378 12.5138C4.62503 11.676 4.83447 10.6987 5.02209 9.66458C5.36242 7.80147 5.57186 5.92092 5.87728 4.05345C6.12163 2.54377 6.67139 0.436324 8.03709 0.00436324H15.8255V0Z" fill="#EFB305"/>
<path fill-rule="evenodd" clip-rule="evenodd" d="M25.5904 11.9422C25.5904 12.2563 25.5424 12.5487 25.4508 12.8148C25.3548 13.081 25.2239 13.321 25.0537 13.5348C24.8836 13.7486 24.6785 13.9318 24.4429 14.0933C24.2029 14.2503 23.9367 14.3856 23.64 14.4947C23.339 14.6038 23.0205 14.6867 22.6801 14.739C22.3398 14.7957 21.9471 14.8219 21.5108 14.8219H18.4521C18.3125 14.8219 18.1816 14.7827 18.0594 14.7041C17.9373 14.6212 17.8762 14.4816 17.8762 14.2809V5.32315C17.8762 5.12244 17.9373 4.98282 18.0594 4.89992C18.1816 4.82138 18.3125 4.78211 18.4521 4.78211H21.1137C21.8118 4.78211 22.3878 4.83883 22.8285 4.95228C23.2779 5.06572 23.6488 5.23152 23.9455 5.44969C24.2465 5.66785 24.469 5.93401 24.6174 6.24816C24.7701 6.56231 24.8443 6.9201 24.8443 7.31715C24.8443 7.55713 24.8094 7.78402 24.7439 8.00218C24.6785 8.22034 24.5825 8.42105 24.4516 8.60431C24.3207 8.78756 24.1636 8.95337 23.9629 9.09735C23.7666 9.24134 23.544 9.35915 23.291 9.45514C23.6095 9.5075 23.9106 9.59913 24.1854 9.73875C24.4647 9.87401 24.7047 10.0485 24.9141 10.2623C25.1192 10.4761 25.285 10.7248 25.4071 11.0085C25.5293 11.2921 25.5904 11.6062 25.5904 11.9466V11.9422ZM79.9738 11.8113C79.9738 12.1691 79.9171 12.492 79.8036 12.7799C79.6858 13.0723 79.5288 13.3297 79.3281 13.5522C79.123 13.7747 78.883 13.9667 78.6038 14.1238C78.3245 14.2852 78.0147 14.4161 77.6788 14.5209C77.3428 14.6256 76.9806 14.6998 76.5967 14.7477C76.2127 14.8001 75.7895 14.8219 75.3139 14.8219H72.2029C72.0022 14.8219 71.8364 14.7696 71.7011 14.6692C71.5659 14.5689 71.496 14.4031 71.496 14.1762V5.42351C71.496 5.19662 71.5659 5.03082 71.7011 4.93046C71.8364 4.83011 72.0022 4.77775 72.2029 4.77775H75.1437C75.8593 4.77775 76.4701 4.83011 76.9632 4.93482C77.4606 5.03954 77.8795 5.19662 78.2198 5.40169C78.5645 5.61113 78.8219 5.87728 79.0052 6.1958C79.1841 6.51432 79.2757 6.89392 79.2757 7.33024C79.2757 7.57458 79.2364 7.80147 79.1666 8.01527C79.0968 8.22907 78.9921 8.42542 78.8525 8.59994C78.7128 8.77884 78.5427 8.93155 78.342 9.06681C78.1413 9.20207 77.91 9.31115 77.6526 9.39405C77.9842 9.44641 78.2896 9.53804 78.5732 9.66894C78.8525 9.79984 79.0968 9.96128 79.3062 10.1707C79.5113 10.3758 79.6815 10.6114 79.7993 10.8906C79.9215 11.1655 79.9782 11.471 79.9782 11.8113H79.9738ZM76.8977 7.58331C76.8977 7.37824 76.8628 7.19934 76.7887 7.04227C76.7188 6.88083 76.6054 6.74993 76.4614 6.64085C76.3174 6.53613 76.1385 6.45323 75.916 6.39651C75.6978 6.33979 75.4055 6.31361 75.0346 6.31361H73.8304V8.91846H75.1612C75.5059 8.91846 75.7764 8.88356 75.9815 8.81374C76.1865 8.74393 76.3567 8.64794 76.492 8.52577C76.6272 8.4036 76.7276 8.25961 76.793 8.09817C76.8585 7.93673 76.8934 7.7622 76.8934 7.58331H76.8977ZM77.5042 11.8855C77.5042 11.6542 77.4606 11.4448 77.369 11.2615C77.2773 11.0739 77.1464 10.9212 76.9719 10.799C76.7974 10.6768 76.5749 10.5809 76.3 10.511C76.0294 10.4456 75.676 10.4107 75.2397 10.4107H73.8304V13.2686H75.5495C75.8811 13.2686 76.156 13.2381 76.3872 13.177C76.6141 13.1203 76.8061 13.033 76.9719 12.9152C77.1377 12.7974 77.2686 12.6534 77.3602 12.4789C77.4519 12.3043 77.4999 12.108 77.4999 11.8855H77.5042ZM70.6932 5.61985C70.6932 5.77257 70.6845 5.8991 70.667 6.00382C70.6496 6.10854 70.6321 6.1958 70.5972 6.26125C70.5667 6.3267 70.5274 6.37469 70.4881 6.40524C70.4401 6.43578 70.3921 6.45323 70.3354 6.45323H67.4077V14.5514C67.4077 14.6038 67.3902 14.6474 67.351 14.691C67.3117 14.7347 67.2463 14.7696 67.1546 14.7914C67.063 14.8176 66.9408 14.8394 66.7881 14.8568C66.6354 14.8743 66.4434 14.8786 66.2122 14.8786C65.9809 14.8786 65.7933 14.8699 65.6362 14.8568C65.4835 14.8394 65.3613 14.8176 65.2741 14.7914C65.1824 14.7696 65.117 14.7347 65.0777 14.691C65.0385 14.6518 65.021 14.6038 65.021 14.5514V6.44887H62.0889C62.0322 6.44887 61.9798 6.43142 61.9362 6.40087C61.8926 6.37033 61.8576 6.32233 61.8271 6.25689C61.8009 6.19144 61.7747 6.10417 61.7573 5.99945C61.7442 5.89474 61.7355 5.7682 61.7355 5.61549C61.7355 5.46278 61.7442 5.32752 61.7573 5.2228C61.7747 5.11372 61.7966 5.02645 61.8271 4.96537C61.8576 4.89992 61.8969 4.85192 61.9362 4.82574C61.9755 4.7952 62.0278 4.78211 62.0889 4.78211H70.3398C70.3965 4.78211 70.4445 4.7952 70.4925 4.82574C70.5361 4.85629 70.571 4.89992 70.6016 4.96537C70.6321 5.03082 70.6539 5.11808 70.6714 5.2228C70.6889 5.33188 70.6976 5.46278 70.6976 5.61549L70.6932 5.61985ZM60.9283 14.1107C60.9283 14.2285 60.9021 14.3376 60.8585 14.4292C60.8105 14.5209 60.745 14.5994 60.6621 14.6605C60.5792 14.7259 60.4832 14.7696 60.3698 14.8001C60.2607 14.8263 60.1429 14.8437 60.0295 14.8437H59.0172C58.8077 14.8437 58.6201 14.8263 58.4718 14.787C58.3191 14.7521 58.1751 14.6867 58.0442 14.5907C57.9133 14.4947 57.7867 14.3638 57.6689 14.2023C57.5468 14.0409 57.4115 13.8271 57.2632 13.5697L54.3485 8.87483C54.1827 8.59558 54.0082 8.29452 53.8336 7.97164C53.6591 7.64876 53.502 7.33461 53.3624 7.02918H53.345C53.3711 7.40005 53.3886 7.77093 53.4017 8.1418C53.4104 8.51268 53.4191 8.89228 53.4191 9.28497V14.5427C53.4191 14.595 53.4017 14.6387 53.3711 14.6823C53.3406 14.7259 53.2795 14.7608 53.201 14.787C53.1181 14.8176 53.009 14.8394 52.8694 14.8525C52.7298 14.8699 52.5509 14.8743 52.3371 14.8743C52.1233 14.8743 51.9531 14.8656 51.8135 14.8525C51.6738 14.835 51.5648 14.8132 51.4862 14.787C51.4077 14.7565 51.3553 14.7216 51.3248 14.6823C51.2942 14.643 51.2768 14.595 51.2768 14.5427V5.51077C51.2768 5.27079 51.3597 5.08754 51.5255 4.96537C51.6913 4.8432 51.892 4.78211 52.132 4.78211H53.4104C53.6373 4.78211 53.8293 4.79956 53.9864 4.83447C54.1434 4.86938 54.2831 4.9261 54.4052 5.00027C54.5274 5.07881 54.6452 5.18353 54.7543 5.32315C54.8634 5.45841 54.9725 5.62858 55.0859 5.82929L57.3679 9.50314C57.4988 9.72566 57.6297 9.94382 57.7606 10.162C57.8915 10.3758 58.018 10.5896 58.1358 10.8077C58.258 11.0215 58.3714 11.2353 58.4892 11.4404C58.6027 11.6455 58.7161 11.8549 58.8208 12.06H58.8296C58.8121 11.6978 58.799 11.3226 58.7903 10.9256C58.7816 10.5329 58.7772 10.1576 58.7772 9.8042V5.0919C58.7772 5.03954 58.7947 4.99591 58.8296 4.95228C58.8645 4.91301 58.9299 4.87374 59.0128 4.8432C59.0957 4.81265 59.2092 4.79084 59.3444 4.77775C59.484 4.76466 59.6629 4.75593 59.8767 4.75593C60.0905 4.75593 60.252 4.76466 60.3916 4.77775C60.5312 4.78647 60.6403 4.81265 60.7145 4.8432C60.793 4.87374 60.8454 4.91301 60.8716 4.95228C60.9021 4.99591 60.9196 5.0439 60.9196 5.0919V14.1194L60.9283 14.1107ZM49.6362 14.6256C49.6362 14.6648 49.6231 14.7041 49.6013 14.7347C49.5751 14.7652 49.5359 14.7914 49.4791 14.8132C49.4224 14.835 49.3439 14.8481 49.2392 14.8612C49.1388 14.8699 49.0079 14.8786 48.8508 14.8786C48.6938 14.8786 48.5541 14.8743 48.4494 14.8656C48.3447 14.8568 48.2531 14.8437 48.1833 14.8307C48.1091 14.8132 48.0524 14.787 48.0044 14.7521C47.9607 14.7216 47.9215 14.6779 47.8822 14.6343L44.444 10.7685V14.643C44.444 14.6823 44.4309 14.7216 44.4091 14.7477C44.3829 14.7783 44.3436 14.8001 44.2912 14.8219C44.2345 14.8437 44.1603 14.8568 44.0644 14.8699C43.964 14.8786 43.8418 14.8874 43.6891 14.8874C43.5451 14.8874 43.4273 14.883 43.327 14.8699C43.231 14.8612 43.1524 14.8437 43.1001 14.8219C43.0434 14.8001 42.9997 14.7783 42.9823 14.7477C42.9605 14.7216 42.9474 14.6823 42.9474 14.643V4.26289C42.9474 4.21925 42.9605 4.18435 42.9823 4.1538C42.9997 4.12326 43.039 4.09708 43.1001 4.07527C43.1568 4.05781 43.231 4.04036 43.327 4.03163C43.4273 4.02291 43.5451 4.01418 43.6891 4.01418C43.8418 4.01418 43.964 4.01854 44.0644 4.03163C44.1603 4.04036 44.2345 4.05781 44.2912 4.07527C44.3436 4.09708 44.3829 4.12326 44.4091 4.1538C44.4352 4.18435 44.444 4.21925 44.444 4.26289V10.5809L47.52 7.6793C47.568 7.62694 47.6204 7.58331 47.6728 7.5484C47.7251 7.51786 47.7906 7.48732 47.8691 7.4655C47.9433 7.44369 48.0349 7.4306 48.1353 7.42187C48.2356 7.41314 48.3621 7.40878 48.5061 7.40878C48.6501 7.40878 48.7854 7.41314 48.8857 7.42187C48.9861 7.4306 49.069 7.43932 49.1344 7.45678C49.1955 7.47423 49.2435 7.50041 49.2697 7.52659C49.2959 7.55277 49.309 7.59204 49.309 7.64003C49.309 7.70548 49.2872 7.76657 49.2522 7.82329C49.213 7.88874 49.1475 7.95855 49.0559 8.04145L46.1064 10.5721L49.4181 14.2591C49.4966 14.3463 49.549 14.4161 49.5839 14.4729C49.6188 14.5252 49.6319 14.5776 49.6319 14.6256H49.6362ZM41.5511 14.6343C41.5511 14.6736 41.538 14.7128 41.5162 14.739C41.49 14.7696 41.4551 14.7914 41.3984 14.8132C41.3417 14.835 41.2675 14.8481 41.1715 14.8612C41.0712 14.8699 40.9534 14.8786 40.8094 14.8786C40.6567 14.8786 40.5345 14.8743 40.4341 14.8612C40.3382 14.8525 40.264 14.835 40.2073 14.8132C40.1549 14.7914 40.1156 14.7696 40.0894 14.739C40.0633 14.7128 40.0545 14.6736 40.0545 14.6343V10.5416C40.0545 10.1402 40.0196 9.82165 39.9455 9.58167C39.8756 9.33733 39.7709 9.1279 39.6313 8.949C39.4917 8.77447 39.3128 8.63921 39.0903 8.54759C38.8721 8.45596 38.619 8.40796 38.3267 8.40796C37.9515 8.40796 37.5806 8.52141 37.2053 8.74829C36.8301 8.97518 36.4374 9.31115 36.0273 9.75184V14.6343C36.0273 14.6736 36.0142 14.7128 35.9924 14.739C35.9662 14.7696 35.9269 14.7914 35.8746 14.8132C35.8178 14.835 35.7437 14.8481 35.6477 14.8612C35.5473 14.8699 35.4251 14.8786 35.2724 14.8786C35.1284 14.8786 35.0106 14.8743 34.9103 14.8612C34.8143 14.8525 34.7358 14.835 34.6834 14.8132C34.6267 14.7914 34.583 14.7696 34.5656 14.739C34.5438 14.7128 34.5307 14.6736 34.5307 14.6343V7.64876C34.5307 7.60513 34.5394 7.57022 34.5569 7.54404C34.5743 7.51786 34.6136 7.49168 34.6659 7.4655C34.7227 7.44369 34.7881 7.4306 34.8754 7.42187C34.9583 7.41314 35.0717 7.40878 35.207 7.40878C35.3422 7.40878 35.4513 7.41314 35.5386 7.42187C35.6259 7.4306 35.6913 7.44369 35.7437 7.4655C35.7917 7.48732 35.8266 7.51786 35.8484 7.54404C35.8658 7.57458 35.8789 7.60949 35.8789 7.64876V8.57376C36.3371 8.13308 36.7908 7.8102 37.249 7.60513C37.7028 7.40005 38.1609 7.2997 38.6278 7.2997C39.1732 7.2997 39.6269 7.37824 39.9978 7.53968C40.3687 7.69675 40.6698 7.90619 40.901 8.17235C41.1279 8.43851 41.2937 8.74829 41.3897 9.10172C41.49 9.45514 41.5424 9.88274 41.5424 10.3801V14.643L41.5511 14.6343ZM33.1737 14.643C33.1737 14.7041 33.1475 14.7521 33.0995 14.7827C33.0515 14.8132 32.9861 14.8394 32.9032 14.8525C32.8159 14.8699 32.6938 14.8743 32.5323 14.8743C32.3709 14.8743 32.2487 14.8656 32.1571 14.8525C32.0654 14.835 31.9956 14.8132 31.952 14.7827C31.9084 14.7521 31.8909 14.7041 31.8909 14.643V13.9449C31.5331 14.2722 31.1361 14.5252 30.6998 14.7041C30.2634 14.883 29.8009 14.979 29.3122 14.979C28.8846 14.979 28.492 14.931 28.1473 14.835C27.8026 14.739 27.5059 14.6038 27.2615 14.4205C27.0172 14.2373 26.8252 14.0147 26.6899 13.7529C26.559 13.4868 26.4892 13.1901 26.4892 12.8541C26.4892 12.4614 26.5809 12.1211 26.7685 11.8287C26.9561 11.5408 27.2266 11.3008 27.5757 11.1088C27.9247 10.9168 28.3523 10.7728 28.8585 10.6768C29.3646 10.5809 29.9362 10.5329 30.5689 10.5329H31.6902V9.99182C31.6902 9.7213 31.6553 9.48132 31.5899 9.27625C31.52 9.07117 31.4153 8.89665 31.267 8.76138C31.1186 8.62176 30.9266 8.52141 30.691 8.44723C30.4554 8.37742 30.1674 8.34251 29.8227 8.34251C29.4519 8.34251 29.1246 8.37742 28.8323 8.45596C28.54 8.5345 28.2825 8.61304 28.0644 8.70466C27.8418 8.79629 27.6586 8.87483 27.5102 8.95337C27.3619 9.02754 27.2528 9.06245 27.1786 9.06245C27.1306 9.06245 27.0914 9.05372 27.0521 9.03191C27.0172 9.01009 26.9823 8.97955 26.9561 8.93591C26.9299 8.89664 26.9081 8.84429 26.8994 8.77884C26.8863 8.71339 26.8819 8.64358 26.8819 8.56504C26.8819 8.43414 26.895 8.33379 26.9168 8.25961C26.9386 8.18544 26.9866 8.11563 27.0695 8.04581C27.1481 7.98037 27.2877 7.90183 27.4884 7.8102C27.6848 7.71857 27.916 7.64003 28.1734 7.56149C28.4309 7.48732 28.7188 7.42623 29.0243 7.37387C29.3297 7.32152 29.6395 7.2997 29.958 7.2997C30.5427 7.2997 31.0401 7.35642 31.4502 7.46987C31.8604 7.58331 32.192 7.74911 32.445 7.97164C32.6981 8.1898 32.8814 8.46468 32.9992 8.79193C33.1126 9.11917 33.1737 9.49441 33.1737 9.93073V14.643ZM31.6902 11.4535H30.4161C30.006 11.4535 29.6526 11.484 29.3472 11.5408C29.0461 11.6019 28.7974 11.6891 28.5967 11.8069C28.4003 11.9247 28.252 12.0644 28.1603 12.2258C28.0687 12.3916 28.0207 12.5749 28.0207 12.7887C28.0207 13.1508 28.1516 13.4388 28.4221 13.6569C28.6927 13.8707 29.0679 13.9798 29.5479 13.9798C29.9406 13.9798 30.3027 13.8969 30.6387 13.7224C30.9703 13.5522 31.3237 13.2904 31.6902 12.937V11.4535ZM23.2561 7.45678C23.2561 7.21243 23.2168 6.99427 23.1383 6.79793C23.0597 6.60158 22.9376 6.43578 22.7674 6.29615C22.5972 6.15653 22.3791 6.05181 22.1085 5.982C21.838 5.91219 21.4802 5.87292 21.0308 5.87292H19.4208V9.1279H21.1923C21.598 9.1279 21.9253 9.08426 22.1696 8.98827C22.4183 8.89665 22.619 8.77448 22.7848 8.62612C22.9506 8.47341 23.0641 8.29452 23.1426 8.08945C23.2168 7.88437 23.2517 7.67494 23.2517 7.45678H23.2561ZM23.9629 12.0251C23.9629 11.724 23.9062 11.4622 23.7927 11.2353C23.6837 11.0085 23.5222 10.8121 23.3041 10.6594C23.0903 10.5023 22.8241 10.3845 22.5012 10.306C22.1783 10.2274 21.7726 10.1882 21.2839 10.1882H19.4208V13.7268H21.6809C22.0387 13.7268 22.3485 13.6918 22.6147 13.6177C22.8808 13.5479 23.1164 13.4388 23.3172 13.2948C23.5222 13.1552 23.6793 12.9763 23.7927 12.7668C23.9062 12.553 23.9673 12.3087 23.9673 12.0295L23.9629 12.0251Z" fill="#0B6E45"/>
<path fill-rule="evenodd" clip-rule="evenodd" d="M0.925007 7.40442C1.32206 9.21516 1.50532 10.9692 1.81511 12.7756C1.8631 13.0635 1.92419 13.3864 2.02891 13.6918C2.16417 14.102 2.36924 14.4729 2.75757 14.6823C2.88846 14.7521 3.03681 14.8045 3.20698 14.8394H3.35097C3.75239 14.4118 4.09272 13.574 4.38942 12.5094C4.62067 11.6717 4.83011 10.6943 5.01773 9.66021C5.3057 8.09381 5.49768 6.51432 5.7333 4.93919H0C0.126534 5.06136 0.157077 5.12244 0.235615 5.28388C0.305427 5.41914 0.370875 5.56313 0.431961 5.71584C0.63267 6.21762 0.789746 6.79356 0.925007 7.40878V7.40442Z" fill="#00ABE5"/>
<path fill-rule="evenodd" clip-rule="evenodd" d="M5.74202 4.93919C5.50641 6.51432 5.31006 8.09381 5.02645 9.66021C4.83883 10.6943 4.6294 11.676 4.39815 12.5094C4.10145 13.574 3.76111 14.4118 3.35969 14.8394H9.97C9.69948 14.5558 9.47259 13.9973 9.27188 13.2817C9.11481 12.7232 8.97955 12.0731 8.85301 11.3793C8.62613 10.1358 8.4865 8.88356 8.28143 7.63567C8.11563 6.63212 7.75348 5.2228 6.84156 4.93482H5.74639L5.74202 4.93919Z" fill="#007EBF"/>
<path fill-rule="evenodd" clip-rule="evenodd" d="M56.4036 19.063H56.1331C56.1723 18.7008 56.1898 18.426 56.1898 18.2383C56.1898 17.9722 56.1156 17.7627 55.976 17.61C55.832 17.4573 55.64 17.3788 55.3913 17.3788C55.0117 17.3788 54.6801 17.5184 54.4009 17.7889C54.1173 18.0638 53.9776 18.3692 53.9776 18.7139C53.9776 18.8972 54.0169 19.063 54.0954 19.2113C54.1696 19.3597 54.3442 19.5648 54.6103 19.8309C55.0946 20.3065 55.4175 20.6774 55.5659 20.9479C55.7186 21.2184 55.7927 21.4802 55.7927 21.7377C55.7927 22.1129 55.6793 22.475 55.4481 22.8241C55.2168 23.1732 54.8808 23.4611 54.4358 23.6837C53.9907 23.9106 53.5195 24.024 53.0221 24.024C52.5247 24.024 52.1189 23.8931 51.7829 23.64C51.447 23.3826 51.2768 23.1164 51.2768 22.8328C51.2768 22.6801 51.3204 22.5536 51.4077 22.4532C51.495 22.3529 51.5953 22.3049 51.7088 22.3049C51.8222 22.3049 51.9226 22.3529 51.9967 22.4445C52.0447 22.5012 52.0927 22.6234 52.1451 22.8154C52.2018 23.051 52.2673 23.2212 52.3458 23.3259C52.4243 23.4306 52.5334 23.5179 52.673 23.5833C52.8127 23.6488 52.9654 23.6837 53.1312 23.6837C53.6242 23.6837 54.0562 23.5179 54.4271 23.1819C54.7936 22.8503 54.9812 22.4794 54.9812 22.078C54.9812 21.9384 54.9594 21.8031 54.9114 21.6678C54.8634 21.5326 54.7805 21.3755 54.6539 21.2053C54.571 21.0875 54.3747 20.8825 54.078 20.5858C53.7857 20.2978 53.6024 20.0971 53.5239 19.9924C53.4148 19.8353 53.3362 19.6826 53.2839 19.5255C53.2315 19.3684 53.2053 19.2113 53.2053 19.0586C53.2053 18.7445 53.3101 18.4303 53.5195 18.1118C53.7289 17.7933 54.0038 17.5402 54.3398 17.3526C54.6758 17.165 55.0597 17.069 55.4873 17.069C55.7011 17.069 55.9673 17.1039 56.2771 17.1693C56.456 17.2043 56.613 17.2304 56.7439 17.2479C56.6698 17.4704 56.6087 17.6842 56.5694 17.8806C56.5301 18.0769 56.4734 18.474 56.3992 19.063H56.4036ZM56.8399 19.9575C57.1541 19.7306 57.3941 19.6128 57.5642 19.6128C57.7082 19.6128 57.8435 19.7044 57.9744 19.8876C58.2274 20.2411 58.4281 20.7559 58.5678 21.4279C58.7074 22.0998 58.7772 22.6758 58.7772 23.1557C58.7772 23.5004 58.6812 23.8364 58.4936 24.1723C58.306 24.504 58.0529 24.7919 57.73 25.0363C57.4944 25.2108 57.2719 25.2981 57.0624 25.2981C56.9839 25.2981 56.8356 25.2762 56.6174 25.2239C56.4123 25.1803 56.2553 25.1584 56.1374 25.1584C55.9847 25.1584 55.8626 25.1933 55.7753 25.2675C55.688 25.3417 55.64 25.429 55.64 25.5337C55.64 25.6515 55.6968 25.7518 55.8146 25.8347C55.9324 25.9176 56.1025 25.9613 56.3294 25.9613C56.6305 25.9613 56.949 25.8827 57.285 25.7213C57.6209 25.5599 57.97 25.2937 58.3322 24.9228C58.6943 24.5519 59.0914 23.9847 59.5277 23.2212C59.964 22.4576 60.2825 21.742 60.4876 21.0788C60.6927 20.4156 60.793 19.8615 60.793 19.4164C60.793 19.2419 60.7581 19.111 60.6839 19.0194C60.6098 18.9277 60.5138 18.8797 60.3916 18.8797C60.2956 18.8797 60.2171 18.9146 60.1516 18.9801C60.0862 19.0455 60.0556 19.1284 60.0556 19.2288C60.0556 19.3292 60.0862 19.5037 60.1473 19.748C60.204 19.9662 60.2345 20.1363 60.2345 20.2716C60.2345 20.8999 59.9422 21.7551 59.3619 22.8285C59.3706 22.667 59.3706 22.5449 59.3706 22.4663C59.3706 21.8555 59.2659 21.2228 59.0608 20.577C58.8557 19.9269 58.5983 19.4077 58.2929 19.0281C58.2274 18.9452 58.1576 18.9016 58.0878 18.9016C58.018 18.9016 57.9351 18.9234 57.8478 18.9626C57.6951 19.0368 57.4333 19.1983 57.0624 19.4557L56.6785 19.7131L56.8443 19.9575H56.8399ZM64.6196 18.8187L64.9599 18.7445L64.5716 20.0534C64.4189 20.5727 64.2705 21.1748 64.1309 21.8511C64.0567 22.222 64.0175 22.4576 64.0175 22.5667C64.0175 22.6758 64.0611 22.7281 64.1484 22.7281C64.2051 22.7281 64.2923 22.6932 64.4145 22.619C64.6283 22.4881 64.8334 22.3311 65.0297 22.1434L65.1955 22.3441C64.8028 22.7019 64.5498 22.9201 64.4407 22.9986C64.2182 23.147 64.0087 23.2604 63.8124 23.3346C63.6815 23.3826 63.5549 23.4088 63.4284 23.4088C63.3368 23.4088 63.2713 23.387 63.2277 23.3477C63.1797 23.3041 63.1623 23.2473 63.1623 23.1644C63.1623 23.1121 63.1754 23.0423 63.2015 22.9506L63.4066 22.2482C63.1099 22.6016 62.7565 22.907 62.3463 23.1644C62.0933 23.3215 61.862 23.4044 61.6526 23.4044C61.4431 23.4044 61.2992 23.3346 61.1901 23.1906C61.0461 22.9986 60.9719 22.7543 60.9719 22.4445C60.9719 22.078 61.0723 21.6722 61.2643 21.2228C61.4606 20.7734 61.718 20.3676 62.0496 20.0011C62.3769 19.6346 62.7216 19.3684 63.0837 19.1939C63.363 19.063 63.7207 18.9975 64.1571 18.9975C64.2705 18.9975 64.3796 19.0063 64.493 19.0194L64.6152 18.8143L64.6196 18.8187ZM63.9782 19.6128C63.7906 19.5735 63.6335 19.556 63.507 19.556C63.1972 19.556 62.9266 19.6433 62.6954 19.8135C62.4641 19.9836 62.2503 20.2934 62.0496 20.7341C61.8533 21.1792 61.7529 21.6199 61.7529 22.0605C61.7529 22.2962 61.7922 22.4663 61.8707 22.5667C61.9493 22.6714 62.054 22.7238 62.1805 22.7238C62.4205 22.7238 62.6736 22.5972 62.9485 22.3398C63.219 22.0824 63.4197 21.7115 63.5462 21.2315L63.9782 19.6171V19.6128ZM65.7278 23.2604L66.09 21.8686C66.2645 21.1835 66.4216 20.5378 66.5525 19.9226C66.583 19.7698 66.6005 19.6782 66.6005 19.6389C66.6005 19.556 66.5612 19.5168 66.487 19.5168C66.4347 19.5168 66.3561 19.5517 66.2471 19.6215C66.1423 19.6913 65.946 19.8658 65.6668 20.1451L65.5053 19.9662C65.8369 19.6128 66.1685 19.3466 66.4958 19.1677C66.8274 18.9932 67.0804 18.9016 67.255 18.9016C67.3161 18.9016 67.3641 18.919 67.4033 18.9452C67.4382 18.9757 67.4601 19.0106 67.4601 19.0543C67.4601 19.0979 67.4382 19.2201 67.3946 19.4121L67.1721 20.3371C67.5211 19.7873 67.9138 19.3204 68.3502 18.9277C68.5596 18.7401 68.7341 18.6485 68.8781 18.6485C68.9828 18.6485 69.0701 18.6834 69.1355 18.7488C69.2053 18.8143 69.2402 18.8928 69.2402 18.9845C69.2402 19.0761 69.2053 19.159 69.1399 19.2244C69.0744 19.2899 68.9043 19.3684 68.6381 19.4557C68.3807 19.5429 68.1756 19.6433 68.0142 19.7655C67.8527 19.8876 67.6782 20.0709 67.4862 20.3196C67.2942 20.5683 67.1633 20.7821 67.0848 20.9697C67.0106 21.153 66.8928 21.5806 66.7401 22.2569L66.5089 23.2604H65.7278ZM70.9245 16.685C71.0292 16.685 71.1208 16.7199 71.1863 16.7897C71.2561 16.8596 71.291 16.9512 71.291 17.0603C71.291 17.213 71.2386 17.3482 71.1339 17.4617C71.0292 17.5795 70.9114 17.6362 70.7805 17.6362C70.6758 17.6362 70.5885 17.6013 70.523 17.5271C70.4532 17.453 70.4227 17.3613 70.4227 17.2435C70.4227 17.0864 70.4707 16.9555 70.571 16.8465C70.6714 16.7374 70.7892 16.6807 70.9288 16.6807L70.9245 16.685ZM68.8868 20.1102C69.1879 19.8135 69.3842 19.6389 69.4715 19.5822C69.5588 19.5255 69.6373 19.4993 69.7071 19.4993C69.7726 19.4993 69.7987 19.5342 69.7987 19.604C69.7987 19.6651 69.7857 19.7349 69.7638 19.8178C69.2446 21.4933 68.9872 22.5492 68.9872 22.9768C68.9872 23.1121 69.0221 23.2168 69.0919 23.291C69.1617 23.3651 69.2577 23.4044 69.3799 23.4044C69.5195 23.4044 69.694 23.3433 69.9122 23.2212C70.1303 23.0946 70.4751 22.811 70.9463 22.366L70.7456 22.1696C70.2918 22.5972 70.0082 22.811 69.8991 22.811C69.8729 22.811 69.8424 22.7936 69.8206 22.763C69.7944 22.7325 69.7857 22.6888 69.7857 22.6408C69.7857 22.3921 69.9689 21.6504 70.3354 20.4287C70.5579 19.6782 70.6714 19.255 70.6714 19.1546C70.6714 19.0717 70.6452 19.0063 70.5841 18.9583C70.5274 18.9103 70.4401 18.8841 70.3311 18.8841C70.1304 18.8841 69.886 18.967 69.6024 19.1241C69.3188 19.2855 69.0046 19.5517 68.6599 19.9313L68.8868 20.1058V20.1102ZM74.7903 18.823L75.1306 18.7488L74.7423 20.0578C74.5896 20.577 74.4412 21.1792 74.3016 21.8555C74.2274 22.2263 74.1882 22.462 74.1882 22.571C74.1882 22.6801 74.2318 22.7325 74.3191 22.7325C74.3758 22.7325 74.4631 22.6976 74.5852 22.6234C74.799 22.4925 75.0041 22.3354 75.2004 22.1478L75.3662 22.3485C74.9735 22.7063 74.7205 22.9245 74.6114 23.003C74.3889 23.1513 74.1794 23.2648 73.9831 23.339C73.8522 23.387 73.7257 23.4131 73.5991 23.4131C73.5075 23.4131 73.4421 23.3913 73.3984 23.3521C73.3504 23.3084 73.333 23.2517 73.333 23.1688C73.333 23.1164 73.3461 23.0466 73.3722 22.955L73.5773 22.2525C73.2806 22.6059 72.9272 22.9114 72.517 23.1688C72.264 23.3259 72.0327 23.4088 71.8233 23.4088C71.6139 23.4088 71.4699 23.339 71.3608 23.195C71.2168 23.003 71.1426 22.7587 71.1426 22.4489C71.1426 22.0824 71.243 21.6766 71.435 21.2272C71.6313 20.7777 71.8887 20.372 72.2203 20.0055C72.5476 19.6389 72.8923 19.3728 73.2544 19.1983C73.5337 19.0674 73.8915 19.0019 74.3278 19.0019C74.4369 19.0019 74.5503 19.0106 74.6638 19.0237L74.7859 18.8187L74.7903 18.823ZM74.1489 19.6171C73.9613 19.5779 73.8042 19.5604 73.6777 19.5604C73.3679 19.5604 73.0974 19.6477 72.8661 19.8178C72.6348 19.988 72.4211 20.2978 72.2203 20.7385C72.024 21.1835 71.9236 21.6242 71.9236 22.0649C71.9236 22.3005 71.9629 22.4707 72.0415 22.571C72.12 22.6758 72.2247 22.7281 72.3512 22.7281C72.5912 22.7281 72.8443 22.6016 73.1192 22.3441C73.3897 22.0867 73.5904 21.7158 73.7169 21.2359L74.1489 19.6215V19.6171ZM79.8647 22.1653L80 22.3572C79.6859 22.7107 79.3586 22.9899 79.0226 23.195C78.7957 23.3346 78.6081 23.4088 78.4554 23.4088C78.3376 23.4088 78.2373 23.3608 78.1631 23.2648C78.0889 23.1688 78.054 23.0161 78.054 22.8154C78.054 22.6758 78.0802 22.475 78.1369 22.2133C78.1936 21.9471 78.3551 21.3842 78.6212 20.5116C78.739 20.084 78.7957 19.8353 78.7957 19.7611C78.7957 19.6433 78.739 19.5866 78.6212 19.5866C78.4772 19.5866 78.2983 19.6608 78.0802 19.8047C77.7747 20.0055 77.5042 20.2585 77.273 20.5727C77.1246 20.7734 77.0025 21.0701 76.9152 21.4628L76.5007 23.2604H75.7284C75.8942 22.6583 76.0251 22.1653 76.1124 21.7813L76.8716 18.4609C77.0112 17.85 77.1901 17.3831 77.417 17.0515C77.6438 16.7199 77.9362 16.4581 78.3027 16.2618C78.6648 16.0654 79.027 15.9651 79.3804 15.9651C79.5288 15.9651 79.6466 16 79.7338 16.0742C79.8211 16.1483 79.8647 16.2356 79.8647 16.3491C79.8647 16.4407 79.8211 16.5236 79.7382 16.5934C79.6553 16.6632 79.5375 16.6981 79.3935 16.6981C79.3106 16.6981 79.2015 16.6894 79.0706 16.6719C78.7739 16.6283 78.5689 16.6065 78.4554 16.6065C78.2983 16.6065 78.1674 16.6719 78.0671 16.7985C77.9667 16.925 77.862 17.2261 77.7573 17.6973L77.177 20.2542C77.5871 19.8222 78.0322 19.46 78.5165 19.1633C78.8001 18.9888 79.027 18.8972 79.1972 18.8972C79.3324 18.8972 79.4371 18.9365 79.5113 19.0194C79.5855 19.1023 79.6248 19.2157 79.6248 19.3597C79.6248 19.4775 79.6117 19.5953 79.5855 19.7131C79.5419 19.9182 79.4371 20.2847 79.2713 20.8214C79.0488 21.5588 78.9179 22.0169 78.8743 22.1958C78.835 22.3747 78.8176 22.5361 78.8176 22.6758C78.8176 22.7325 78.8263 22.7717 78.8437 22.7979C78.8612 22.8241 78.8917 22.8416 78.9266 22.8416C79.0095 22.8416 79.1666 22.7412 79.3935 22.5449C79.5201 22.4358 79.6771 22.3092 79.856 22.1609L79.8647 22.1653Z" fill="#0B6E45"/>
</g>
<defs>
<clipPath id="clip0_801_8265">
<rect width="80" height="25.9613" fill="white"/>
</clipPath>
</defs>
</svg>
