<svg width="80" height="14" viewBox="0 0 80 14" fill="none" xmlns="http://www.w3.org/2000/svg">
<g clip-path="url(#clip0_801_8514)">
<path d="M1.9082 2.20328H6.85246C7.63115 2.20328 8.23115 2.38197 8.64754 2.74262C9.06557 3.1 9.27268 3.55902 9.27268 4.1235C9.27268 4.72022 9.06011 5.22295 8.63443 5.62678C8.20656 6.03333 7.50055 6.30328 6.51475 6.43661C7.28962 6.50546 7.88142 6.72951 8.28579 7.10929C8.68853 7.48525 8.89016 7.97049 8.89016 8.55738C8.89016 9.08415 8.73497 9.55082 8.42514 9.95847C8.19836 10.2601 7.80984 10.5279 7.26011 10.7645C6.70874 11.0016 6.11585 11.1197 5.4847 11.1197H0L0.131694 10.5809H0.712022C1.04973 10.5809 1.2612 10.4 1.34863 10.0393L3.05683 3.33169C3.07596 3.25301 3.08579 3.17213 3.08579 3.09836C3.08579 2.98852 3.04372 2.90109 2.95956 2.83934C2.87486 2.77432 2.72077 2.74262 2.49945 2.74262H1.78142L1.9082 2.20328ZM3.98251 6.78525L3.16448 9.97104C3.1388 10.059 3.12951 10.1437 3.12951 10.2219C3.12951 10.335 3.17377 10.4191 3.2623 10.4743C3.35082 10.5317 3.52623 10.5563 3.7929 10.5563H4.76503C5.2235 10.5563 5.60546 10.4705 5.91585 10.2923C6.22623 10.1153 6.48251 9.83661 6.68361 9.44809C6.88197 9.0612 6.98306 8.65191 6.98306 8.22295C6.98306 7.77814 6.83825 7.42732 6.55355 7.16885C6.26448 6.91202 5.84754 6.78525 5.29563 6.78525H3.98251ZM4.14809 6.22404H5.29891C5.64372 6.22404 5.95301 6.16011 6.22404 6.03661C6.5847 5.8694 6.87486 5.6071 7.08743 5.25464C7.30164 4.89891 7.4082 4.49617 7.4082 4.04699C7.4082 3.55246 7.26011 3.19945 6.96066 2.98634C6.75082 2.83934 6.36612 2.76448 5.8071 2.76448C5.48033 2.76448 5.2612 2.80055 5.14809 2.86667C5.03497 2.93443 4.95301 3.06448 4.90164 3.25355L4.14809 6.22404Z" fill="#332C2B"/>
<path d="M15.2902 2.20328H16.0934L17.1016 9.89126C17.1311 10.129 17.2055 10.2967 17.3213 10.3874C17.4825 10.5169 17.6962 10.5809 17.9628 10.5809H18.229L18.0874 11.1197H14.1743L14.3066 10.5809H14.594C14.8945 10.5809 15.1011 10.5421 15.2093 10.4585C15.3191 10.3781 15.3743 10.2557 15.3743 10.0902C15.3743 10.0311 15.3678 9.96612 15.3557 9.89126L15.1448 8.29016H12.2705L11.7005 9.21694C11.5432 9.48088 11.465 9.72459 11.465 9.94372C11.465 10.1443 11.5262 10.2984 11.6519 10.4115C11.7754 10.5257 11.9683 10.5809 12.2251 10.5809H12.4601L12.3268 11.1197H9.27705L9.41038 10.5809C9.67213 10.5617 9.88251 10.4978 10.0366 10.3847C10.3311 10.165 10.5525 9.93224 10.7027 9.6847L15.2902 2.20328ZM14.6383 4.42842L12.6831 7.61639H15.0574L14.6383 4.42842Z" fill="#332C2B"/>
<path d="M20.9896 2.20328H23.5536L26.4262 8.41694L27.4383 4.03825C27.4831 3.85519 27.5066 3.70273 27.5066 3.59071C27.5066 3.33169 27.424 3.12623 27.2612 2.97322C27.1 2.81967 26.8809 2.74262 26.6082 2.74262H26.3623L26.506 2.20328H29.441L29.2902 2.74262C28.9847 2.75902 28.7497 2.84754 28.5885 3.00984C28.3617 3.23934 28.2027 3.54918 28.1082 3.94044L26.4514 11.1197H25.7951L22.4885 4.04044L21.1765 8.95738C21.1191 9.1929 21.0891 9.38142 21.0891 9.52896C21.0891 9.83989 21.1913 10.094 21.3907 10.282C21.5913 10.4738 21.8847 10.5721 22.2667 10.5809L22.1399 11.1197H18.8628L18.9962 10.5809C19.376 10.5617 19.6809 10.4475 19.9197 10.2339C20.1585 10.0169 20.3257 9.71967 20.4213 9.34044L21.9536 3.59235C21.9923 3.44918 22.012 3.34153 22.012 3.27541C22.012 3.11038 21.9475 2.97978 21.8197 2.88361C21.6923 2.78798 21.4645 2.74262 21.1388 2.74262H20.8464L20.9896 2.20328Z" fill="#332C2B"/>
<path d="M30.9153 2.20328H34.8852L34.7301 2.74262H34.2781C34.0776 2.74262 33.9262 2.78798 33.8235 2.88251C33.7186 2.97869 33.635 3.14645 33.5754 3.39016L32.6754 6.93443L36.0924 3.81148C36.3421 3.57377 36.4678 3.36667 36.4678 3.19126C36.4678 3.05902 36.4148 2.95246 36.3104 2.86831C36.2093 2.78415 36.0481 2.74262 35.835 2.74262H35.6109L35.7486 2.20328H39.0317L38.8896 2.74262C38.5404 2.76995 38.2421 2.84754 37.9951 2.96612C37.747 3.08743 37.447 3.31749 37.0891 3.65464L34.8481 5.70437L36.8055 10.0219C36.8678 10.165 36.9393 10.2716 37.0208 10.3443C37.1033 10.4191 37.2246 10.4803 37.3858 10.5317C37.4891 10.5617 37.6809 10.5809 37.9618 10.5809L37.8219 11.1197H33.8393L33.9852 10.5809H34.5005C34.6973 10.5809 34.8372 10.547 34.9213 10.4814C35.0055 10.4131 35.0475 10.3262 35.0475 10.2191C35.0475 10.1344 35.0312 10.0563 34.9945 9.98142L33.5803 6.86284L32.423 7.91694L31.8721 10.0874C31.8601 10.1317 31.8557 10.1781 31.8557 10.2251C31.8557 10.3361 31.8989 10.4246 31.9863 10.4847C32.0743 10.5486 32.2273 10.5809 32.4481 10.5809H33.0546L32.9115 11.1197H28.8557L28.9956 10.5809H29.3383C29.5689 10.5809 29.741 10.5355 29.8552 10.4481C29.9661 10.3607 30.0481 10.2191 30.0978 10.0219L31.8044 3.31257C31.824 3.24809 31.8333 3.18251 31.8333 3.11585C31.8333 2.99727 31.7902 2.9071 31.7011 2.84044C31.612 2.77596 31.4634 2.74262 31.247 2.74262H30.782L30.9153 2.20328Z" fill="#332C2B"/>
<path d="M55.7683 2.16721H59.8464C61.012 2.16721 61.9027 2.4847 62.5208 3.12568C63.1355 3.76229 63.4448 4.6541 63.4448 5.79235C63.4448 6.53606 63.3109 7.26229 63.0415 7.97978C62.7727 8.69836 62.4279 9.27923 62.0126 9.72295C61.594 10.1689 61.0617 10.5262 60.4066 10.7934C59.753 11.0639 59.0169 11.1989 58.2049 11.1989H53.9022L54.047 10.653H54.5246C54.8525 10.653 55.0617 10.4541 55.159 10.0557L56.8923 3.24535C56.9087 3.19126 56.9148 3.1388 56.9148 3.08087C56.9148 2.96448 56.8699 2.87432 56.782 2.81148C56.6929 2.74754 56.5208 2.71366 56.2699 2.71366H55.6005L55.7683 2.16721ZM58.1126 10.6279C58.5503 10.6279 58.9678 10.5158 59.3623 10.288C59.7574 10.059 60.1016 9.73169 60.3984 9.30109C60.6945 8.87213 60.9541 8.25683 61.1765 7.45137C61.3984 6.64863 61.5104 5.88033 61.5104 5.14645C61.5104 4.35683 61.3333 3.74262 60.9765 3.30328C60.6661 2.92623 60.1869 2.73552 59.5377 2.73552C59.2448 2.73552 59.0475 2.7694 58.9432 2.83552C58.8415 2.90328 58.765 3.0224 58.7197 3.19126L56.9672 10.0743C56.9519 10.1366 56.9443 10.1923 56.9443 10.2448C56.9443 10.3667 56.9781 10.4579 57.0426 10.5131C57.1317 10.5923 57.2607 10.6279 57.4333 10.6279H58.1126Z" fill="#332C2B"/>
<path d="M66.1994 2.16721H70.2224L70.0645 2.71366H69.6071C69.4027 2.71366 69.2503 2.75956 69.1459 2.85519C69.0388 2.95246 68.9574 3.12295 68.8956 3.3694L67.9836 6.95956L71.4459 3.79617C71.6973 3.55519 71.8251 3.34535 71.8251 3.16831C71.8251 3.03388 71.7727 2.92623 71.6667 2.84098C71.5623 2.75574 71.4011 2.71366 71.1836 2.71366H70.9585L71.0945 2.16721H74.4219L74.2792 2.71366C73.9251 2.74153 73.6208 2.81967 73.371 2.93989C73.1208 3.06284 72.8158 3.29563 72.4557 3.63716L70.1814 5.71366L72.1672 10.0863C72.2295 10.2317 72.3027 10.3393 72.3863 10.4131C72.4683 10.4896 72.5924 10.5508 72.7546 10.6033C72.8607 10.6339 73.0541 10.653 73.3372 10.653L73.1973 11.1989H69.1645L69.3104 10.653H69.8333C70.0311 10.653 70.1738 10.6186 70.2596 10.5525C70.3448 10.4831 70.3863 10.3945 70.3863 10.2863C70.3863 10.2005 70.3699 10.1213 70.335 10.0459L68.9022 6.88688L67.7284 7.95464L67.1699 10.1536C67.1579 10.1978 67.153 10.2454 67.153 10.2929C67.153 10.4049 67.1984 10.4945 67.2863 10.5557C67.376 10.6202 67.5295 10.653 67.7525 10.653H68.3683L68.2235 11.1989H64.1158L64.2541 10.653H64.6044C64.8366 10.653 65.0131 10.6071 65.1251 10.5186C65.2393 10.4301 65.3213 10.2863 65.3749 10.0863L67.1016 3.29071C67.1208 3.22568 67.1301 3.15902 67.1301 3.0918C67.1301 2.97104 67.0853 2.88033 66.9978 2.81257C66.9071 2.74754 66.7541 2.71366 66.5372 2.71366H66.065L66.1994 2.16721Z" fill="#332C2B"/>
<path d="M75.7607 2.16721H80L79.8607 2.71366H79.3667C79.1366 2.71366 78.9721 2.74809 78.8749 2.81967C78.7738 2.89016 78.7038 3.00984 78.6612 3.17596L76.9077 10.0738C76.8907 10.1475 76.8825 10.2104 76.8825 10.2607C76.8825 10.3885 76.9197 10.4776 76.9934 10.5301C77.1077 10.6137 77.2732 10.653 77.4945 10.653H78.123L77.9831 11.1989H73.8448L73.9902 10.653H74.4557C74.7885 10.653 74.9924 10.4956 75.0661 10.177L76.8148 3.31038C76.8328 3.23005 76.8432 3.15301 76.8432 3.07869C76.8432 2.96448 76.8027 2.87432 76.7246 2.81148C76.6432 2.74536 76.5049 2.71366 76.3087 2.71366H75.6317L75.7607 2.16721Z" fill="#332C2B"/>
<path d="M46.7022 12.6776C46.7022 12.6776 45.9574 11.077 45.2563 9.5694L45.2557 9.56721C44.6432 8.24973 44.0617 7.00492 44.041 6.95574C43.9978 6.86557 43.9404 6.70601 43.9902 6.5224C44.0279 6.3847 44.1847 6.14754 44.2984 6.00164C44.5137 5.72678 44.5787 5.58251 44.6077 5.38251L47.7743 12.177L47.7721 12.1781L48.1475 12.9831C48.5448 12.9038 48.9273 12.7842 49.2934 12.6366C48.8628 11.712 48.4229 10.7628 48.1492 10.176L48.1459 10.1776C48.1459 10.1776 45.5317 4.56011 45.4825 4.45628C45.4399 4.36612 45.3831 4.20601 45.4328 4.02295C45.471 3.88525 45.6273 3.64754 45.7415 3.50328C45.9568 3.22842 46.0208 3.08251 46.0503 2.88251L50.3448 12.0956C50.6896 11.8792 51.0082 11.6311 51.3044 11.3563C50.7339 10.1301 49.9705 8.49016 49.5929 7.67705L49.588 7.67814C49.588 7.67814 46.9743 2.0612 46.9246 1.95738C46.8836 1.86721 46.8257 1.70765 46.8765 1.52404C46.9137 1.38689 47.0705 1.14863 47.1842 1.00383C47.4005 0.728415 47.4645 0.583607 47.4918 0.383607L52.1585 10.3907C52.9399 9.31202 53.4049 7.99071 53.4049 6.55628C53.4049 2.93552 50.4699 0 46.8486 0C43.2279 0 40.2923 2.93552 40.2923 6.55628C40.2923 9.15027 41.8049 11.3858 43.9891 12.4486C43.3158 11.0011 42.6213 9.5082 42.5973 9.45465C42.5557 9.36448 42.4967 9.20492 42.5464 9.02131C42.5852 8.88415 42.7415 8.64645 42.8557 8.50164C43.0705 8.22623 43.135 8.08142 43.1634 7.88142L45.5426 12.982C45.9639 13.0661 46.4011 13.112 46.8486 13.112C46.8683 13.112 46.8847 13.1098 46.9033 13.1093C46.8361 12.9678 46.7683 12.823 46.7022 12.6776Z" fill="#E62129"/>
</g>
<defs>
<clipPath id="clip0_801_8514">
<rect width="80" height="13.112" fill="white"/>
</clipPath>
</defs>
</svg>
