<svg width="81" height="16" viewBox="0 0 81 16" fill="none" xmlns="http://www.w3.org/2000/svg">
<g clip-path="url(#clip0_801_8449)">
<g clip-path="url(#clip1_801_8449)">
<path fill-rule="evenodd" clip-rule="evenodd" d="M44.7214 9.52374C44.1737 9.52374 44.3647 9.52121 44.0681 9.32263C44.0681 8.79646 44.3065 8.18429 44.3192 7.61385C44.6467 7.61385 44.6929 7.56136 44.9547 7.49559C45.0774 7.4646 45.171 7.46334 45.2931 7.43045C45.534 7.36595 45.639 7.20658 46.0671 7.6246C46.346 7.89717 46.329 7.93259 46.329 8.36769C46.329 9.15125 45.4701 9.52374 44.7214 9.52374ZM44.4697 6.96057C44.4697 6.5514 44.5835 6.13717 44.6493 5.73306C44.8093 4.75346 44.9269 4.85022 45.7762 4.85022C46.5756 4.85022 46.7754 5.57559 45.9919 6.32184C45.8907 6.41923 45.8426 6.4363 45.7206 6.50271C45.4075 6.67219 44.8396 6.93022 44.4697 6.96057ZM42.912 4.59915C43.0689 4.83314 43.2637 4.79014 43.2637 5.05132C43.2637 5.53765 43.1296 5.90445 43.055 6.3503C43.0208 6.55583 43.0056 6.78603 42.9531 7.00168L42.6085 8.96848C42.4852 9.9152 42.0077 9.48705 42.0077 9.92532C42.0077 10.1226 42.2562 10.177 42.4599 10.177C43.4831 10.177 45.3538 10.2523 46.2663 10.0638C46.4086 10.0347 46.5282 9.97464 46.6761 9.92089C47.8891 9.4782 48.3337 8.03947 47.5748 7.32294C47.4654 7.21986 47.3155 7.11804 47.1783 7.06619L46.6306 6.91061C46.9715 6.83093 47.3301 6.5963 47.5716 6.39393C48.1667 5.89496 48.3369 4.94445 47.5337 4.50049C46.8222 4.10713 44.2939 4.2469 43.3142 4.2469C43.0581 4.2469 42.9607 4.38919 42.912 4.59915Z" fill="#34368F"/>
<path fill-rule="evenodd" clip-rule="evenodd" d="M3.21368 9.52373C2.5585 9.52373 2.50348 9.45037 2.63945 8.74839L2.81146 7.61384L3.82522 7.41906C3.94411 7.38301 4.0181 7.33558 4.10854 7.34507C4.71249 7.40578 5.24688 8.55614 4.35518 9.20815C4.04277 9.43708 3.61399 9.52373 3.21368 9.52373ZM2.91202 6.96056C3.03091 6.71329 3.08909 5.6344 3.27439 5.16199C3.42806 4.77052 3.72846 4.85021 4.26854 4.85021C5.11217 4.85021 5.34237 5.76467 4.20972 6.49954C3.93652 6.67661 3.25289 6.95297 2.91202 6.96056ZM1.40435 4.59914C1.80719 5.19993 1.88625 4.33795 1.55486 6.30665L1.09953 8.9672C1.0053 9.88736 0.5 9.494 0.5 9.92531C0.5 10.1226 0.748538 10.177 0.952174 10.177C1.97541 10.177 3.84609 10.2523 4.75866 10.0638C4.90095 10.0347 5.02047 9.97463 5.16846 9.92088C6.54079 9.42001 7.09036 7.44942 5.39043 6.99471C5.37968 6.99218 5.2766 6.96562 5.27091 6.96372L5.12292 6.9106C5.48277 6.82649 5.90648 6.54697 6.13668 6.31614C6.14427 6.30855 6.15375 6.2978 6.16071 6.29021C6.36877 6.06823 6.54838 5.75835 6.56672 5.44341C6.61731 4.57068 5.6883 4.24689 4.8219 4.24689H1.80656C1.55043 4.24689 1.45368 4.38918 1.40435 4.59914Z" fill="#34368F"/>
<path fill-rule="evenodd" clip-rule="evenodd" d="M66.6811 9.52373C65.723 9.52373 65.6471 9.85701 66.2663 6.84799C66.3181 6.59819 66.53 5.19297 66.6008 5.07155C66.8101 4.71234 68.1148 4.74776 68.5929 5.35044C69.6256 6.65258 68.6239 9.52373 66.6811 9.52373ZM64.6707 4.54855C64.6707 4.82238 65.0223 4.84578 65.0223 5.00072L64.3412 9.04309C64.1698 9.93669 63.7664 9.4061 63.7664 10.0765C63.9415 10.1169 63.9358 10.177 64.118 10.177C65.9602 10.177 67.3351 10.368 68.8484 9.6812C69.7104 9.28973 70.1948 8.39361 70.4769 7.54048C70.6856 6.91124 70.628 6.17068 70.3795 5.57369L70.069 5.08041C69.5934 4.54539 68.8206 4.24689 67.9371 4.24689H65.1229C64.88 4.24689 64.6707 4.30886 64.6707 4.54855Z" fill="#34368F"/>
<path fill-rule="evenodd" clip-rule="evenodd" d="M56.9319 9.52373C55.8087 9.52373 56.1584 9.53131 56.5948 6.87456C56.6599 6.4793 56.7466 6.12578 56.8098 5.68246C56.9306 4.83693 56.9913 4.85021 57.8868 4.85021C58.0867 4.85021 58.3194 4.94444 58.4743 5.0159C58.7052 5.12278 58.7703 5.19171 58.9303 5.36436C59.8726 6.37811 59.2124 9.52373 56.9319 9.52373ZM54.972 4.54855C55.0549 4.70539 54.9954 4.65922 55.1434 4.78001C55.4052 4.99313 55.4527 4.85084 55.2636 5.64388C55.115 6.26871 54.7646 9.17716 54.523 9.47629C54.3441 9.69827 54.1183 9.6072 54.1183 9.9759C54.1183 10.1523 54.3409 10.177 54.5199 10.177C56.1009 10.177 58.2435 10.3655 59.409 9.53827C60.1376 9.02096 60.4639 8.5555 60.7719 7.68467C61.1728 6.5495 60.8813 4.98681 59.5602 4.48341C58.6255 4.12799 56.591 4.24689 55.4748 4.24689C55.151 4.24689 55.0846 4.33669 54.972 4.54855Z" fill="#34368F"/>
<path fill-rule="evenodd" clip-rule="evenodd" d="M20.249 4.54854C20.249 4.74585 20.4672 4.82996 20.6006 4.90016L20.0858 8.2551C20.046 8.44609 19.9935 8.737 19.9619 8.93494C19.9163 9.21953 19.9227 9.38016 19.7494 9.52625C19.6387 9.61921 19.344 9.75265 19.344 9.9253C19.344 10.0878 19.5268 10.177 19.6962 10.177H21.3544C21.5676 10.177 21.706 10.0815 21.706 9.87534C21.706 9.40482 21.1419 10.0341 21.4651 8.67945C21.4809 8.61178 21.5182 8.45431 21.5347 8.3468L21.5676 8.07803C21.6245 7.81874 21.651 7.86743 21.9413 7.69858C22.0899 7.61257 22.1823 7.54806 22.3094 7.46332L22.8286 8.40119C22.9506 8.6453 23.2637 9.2385 23.2637 9.47312C23.2637 9.61036 22.9879 9.60087 22.9121 9.9253C23.017 10.1239 23.0632 10.177 23.3642 10.177C24.9851 10.177 25.2235 10.3471 25.2235 9.67423C24.9054 9.58949 24.8725 9.28656 24.7574 8.9849C24.6354 8.66364 24.5336 8.44419 24.3862 8.15012L23.7323 6.99534C23.6172 6.79739 23.5717 6.85178 23.5154 6.60893C23.7171 6.55518 24.2774 6.017 24.488 5.82285L24.7283 5.61099C25.1982 5.21953 24.9598 5.2404 25.6308 4.85526C26.0849 4.59407 25.8635 4.24688 25.5252 4.24688C25.0894 4.24688 23.8512 4.08878 23.917 4.59913C24.0668 4.88182 24.0719 4.73194 24.2186 4.95075C24.1396 5.24609 23.9113 5.35866 23.7045 5.54206C23.6494 5.59012 23.6311 5.61542 23.5767 5.66538L21.756 7.06111L21.9774 5.57368C22.1215 4.63139 22.6578 4.86285 22.6104 4.49858C22.5282 4.34237 22.501 4.24688 22.2588 4.24688C21.658 4.24688 20.249 4.09447 20.249 4.54854Z" fill="#34368F"/>
<path fill-rule="evenodd" clip-rule="evenodd" d="M13.7661 4.59919C14.2031 5.2512 14.2208 4.48156 14.076 5.71286C14.0406 6.01642 14.0153 6.09357 13.9628 6.35286L13.4935 8.9995C13.4442 9.28472 13.4929 9.40551 13.3026 9.56235C13.0863 9.74069 12.9939 9.62559 12.9124 9.97595C13.1255 10.2947 13.3272 10.1771 14.2689 10.1771C14.525 10.1771 14.6218 10.0354 14.6711 9.82543C14.6028 9.74701 14.5503 9.70401 14.4618 9.63255C14.1095 9.35049 14.2954 9.03176 14.4061 8.4044L14.8216 5.65405L16.5734 8.87745C16.8592 9.41942 17.0705 10.1771 17.5353 10.1771C18.5844 10.1771 18.2126 9.81278 18.5788 8.20583L19.1682 5.02543C19.301 4.64472 19.6956 4.94132 19.5451 4.29753C19.2953 4.23934 17.9375 4.08504 17.9375 4.54859C17.9375 4.83191 18.2891 4.69025 18.2891 5.20187L17.8369 8.06606C17.6852 7.95539 17.7712 7.9946 17.5726 7.57658C17.3247 7.0561 17.0629 6.44709 16.772 5.96519L15.8765 4.49863C15.6355 4.12678 14.8197 4.24693 14.1683 4.24693C13.9122 4.24693 13.8154 4.38923 13.7661 4.59919Z" fill="#34368F"/>
<path fill-rule="evenodd" clip-rule="evenodd" d="M50.6509 7.26222C50.7027 7.04088 50.723 6.8189 50.759 6.56657C50.7894 6.35471 50.8387 6.13463 50.8804 5.8842C51.0594 4.8129 51.0069 4.85021 51.9574 4.85021C52.1098 4.85021 52.4305 5.0178 52.5152 5.09622C53.0464 5.58697 52.5835 6.51724 52.0751 6.82712C51.8284 6.97701 51.7804 7.03203 51.4749 7.13195C51.1442 7.23946 51.0727 7.26222 50.6509 7.26222ZM49.1938 4.49859C49.1938 4.87614 49.4929 4.73384 49.5353 5.0608C49.5498 5.17527 49.541 5.13163 49.5283 5.22776L48.9016 8.98048C48.8011 9.75645 48.3995 9.50222 48.2888 9.9759C48.297 9.98475 48.3072 9.98855 48.311 10.0044C48.3141 10.0202 48.328 10.0265 48.3331 10.0322C48.4298 10.1315 48.4703 10.177 48.6411 10.177H50.3492C50.6528 10.177 50.7008 10.0164 50.7008 9.82539C50.7008 9.65463 50.3492 9.55851 50.3492 9.42317C50.3492 9.00641 50.5503 8.43661 50.5503 7.86554C51.5084 7.86554 52.471 7.79661 53.295 7.24262C53.6264 7.02001 53.7674 6.91124 54.0045 6.59566C54.8608 5.45732 54.2006 4.24689 52.3091 4.24689H49.5954C49.4303 4.24689 49.1938 4.39993 49.1938 4.49859Z" fill="#34368F"/>
<path fill-rule="evenodd" clip-rule="evenodd" d="M9.99752 5.45292C10.0114 5.61925 10.0633 5.78367 10.1196 5.93419C10.2467 6.27126 10.4497 7.19142 10.4497 7.56391H8.641C8.84084 7.1851 9.01791 6.81387 9.24621 6.46099C9.31198 6.35917 9.33285 6.34526 9.41001 6.22257C9.52321 6.04359 9.87609 5.5345 9.99752 5.45292ZM6.37949 9.87537C6.37949 10.2909 6.27451 10.177 7.93712 10.177C8.14582 10.177 8.13823 9.99047 8.13823 9.87537C8.13823 9.61292 7.78661 9.72612 7.78661 9.37261C7.78661 9.12533 8.15973 8.60739 8.23878 8.26715H10.6002C10.6413 8.75727 10.7008 8.8319 10.7008 9.47316C10.7008 9.79822 10.2992 9.47695 10.2992 9.97593C10.2992 10.1302 10.4459 10.177 10.6002 10.177H12.3589C12.5721 10.177 12.7112 10.0815 12.7112 9.87537C12.7112 9.70526 12.4336 9.6281 12.3393 9.29229C12.259 9.00897 12.2609 8.72439 12.1964 8.42968L11.5052 5.70462C11.361 5.31696 11.3521 5.15885 11.1207 4.63142C10.9335 4.20581 10.9329 4.14636 10.4497 4.14636C10.0083 4.14636 9.80906 4.53656 9.46629 4.97229C9.36131 5.10636 9.29554 5.17593 9.20321 5.3119L8.7055 6.0202C8.52843 6.27063 8.38297 6.52549 8.22297 6.79427C7.6753 7.71569 7.43752 8.22288 6.97396 9.21387C6.71973 9.75774 6.37949 9.6028 6.37949 9.87537Z" fill="#34368F"/>
<path fill-rule="evenodd" clip-rule="evenodd" d="M74.3188 4.54854C74.3188 4.81921 74.6363 4.69146 74.8412 5.28277C74.9582 5.61984 75.0891 5.88798 75.2403 6.19028C75.3933 6.49573 75.5261 6.73352 75.676 7.01115C76.2964 8.15897 76.223 7.41779 76.0801 8.47075C76.0453 8.72624 75.9985 9.1468 75.8872 9.38269C75.8069 9.55218 75.8335 9.49083 75.6646 9.56229C74.8292 9.91644 75.4085 10.177 75.6254 10.177H77.6358C77.9109 10.177 78.2088 9.84561 77.7585 9.65146C77.4689 9.52688 77.4847 9.59518 77.4847 9.22206L77.6687 7.99897C77.7212 7.66063 77.7459 7.74032 78.1595 7.28372L80.0333 5.03676C80.2711 4.79644 80.5 4.85399 80.5 4.44798C80.5 4.13494 79.6621 4.24688 79.1435 4.24688C78.9203 4.24688 78.8305 4.36514 78.7413 4.49858C78.8178 4.82617 78.9171 4.6883 79.0929 4.95075L78.7811 5.54332C78.6268 5.73621 78.5168 5.8804 78.3549 6.07202C78.2758 6.16498 78.236 6.22506 78.1544 6.32372C78.1057 6.38316 78.0823 6.41352 78.0406 6.46095L77.9679 6.53874C77.9609 6.54632 77.9501 6.55708 77.9432 6.56466C77.7712 6.75123 77.5441 6.88909 77.4847 7.1117C77.2602 7.05162 77.2627 6.89984 77.1426 6.7C75.7304 4.3449 76.882 5.07913 76.882 4.49858C76.882 4.33605 76.6992 4.24688 76.5304 4.24688H74.7717C74.5282 4.24688 74.3188 4.30885 74.3188 4.54854Z" fill="#34368F"/>
<path fill-rule="evenodd" clip-rule="evenodd" d="M71.6057 4.49859C71.6057 5.17653 72.1452 4.331 71.8454 5.64262C71.8049 5.81906 71.7853 6.08784 71.7493 6.30033C71.7145 6.50649 71.674 6.71076 71.6329 6.93843C71.5279 7.52025 71.4154 9.24041 71.1042 9.52499C70.955 9.66159 70.7513 9.71092 70.7513 9.9759C70.7513 10.1302 70.8987 10.177 71.053 10.177H72.6606C72.9041 10.177 73.1128 10.115 73.1128 9.87535C73.1128 9.64958 72.7611 9.6072 72.7611 9.47313C72.7611 8.82112 73.3328 6.33827 73.4176 5.50665C73.5061 4.64025 74.0177 4.90712 74.0177 4.49859C74.0177 4.33606 73.835 4.24689 73.6655 4.24689H72.0579C71.8543 4.24689 71.6057 4.30127 71.6057 4.49859Z" fill="#34368F"/>
<path fill-rule="evenodd" clip-rule="evenodd" d="M38.5174 7.29384C38.5174 8.06095 38.5269 8.43723 38.396 9.217C38.1696 10.5647 37.7263 11.7542 36.9149 12.8388C36.156 13.8532 34.9778 14.664 33.6377 14.664C33.2823 14.664 32.9585 14.5969 32.6815 14.5267C31.559 14.2409 30.5503 13.2379 29.9565 12.2507C28.9395 10.5615 28.5671 8.39486 28.8244 6.32751C28.9825 5.05573 29.3923 3.88704 29.9362 2.98459C31.2219 0.848933 33.4986 -0.264742 35.7032 1.19866C36.3489 1.62806 36.9048 2.26996 37.3063 2.93652C37.5163 3.28435 37.5327 3.34443 37.694 3.66253C38.1816 4.62443 38.5174 6.20672 38.5174 7.29384ZM30.5598 0.379052C30.3467 0.660475 30.1474 0.950752 29.9609 1.26822C29.9122 1.35107 29.8705 1.42253 29.8306 1.50285C29.4581 2.26048 29.3272 2.43565 29.0237 3.34759C28.0573 6.24783 27.953 9.71913 29.2229 12.6194C29.264 12.7136 29.3057 12.7945 29.3449 12.8825C29.4651 13.1538 29.5833 13.3631 29.7225 13.6179L30.3252 14.5337C30.3859 14.6108 30.4453 14.6747 30.4984 14.7455C30.5939 14.8726 30.8323 14.8923 31.0499 14.9435C32.5588 15.2976 35.1808 15.2306 36.5696 14.8625C36.7163 14.8233 36.7068 14.8315 36.7935 14.7221C37.7086 13.5617 38.267 12.3651 38.635 10.8935C38.7337 10.4976 38.8317 10.053 38.8804 9.62048C38.9892 8.65036 38.9797 8.39423 38.9829 7.45573C38.9841 7.18759 38.9171 6.36166 38.8735 6.04672C38.7577 5.20751 38.5927 4.36957 38.3277 3.57589C38.0545 2.75818 37.7345 1.96261 37.2912 1.23028L36.8396 0.547906C36.8105 0.509329 36.7935 0.482767 36.7625 0.442926C36.7131 0.380317 36.7283 0.389171 36.6429 0.359447C36.2565 0.227273 35.4477 0.117234 35.0157 0.0837161C34.5554 0.0476687 34.0741 0.009724 33.5568 0.0261667C33.0218 0.0274315 32.4886 0.0546252 31.9612 0.112175C31.7184 0.138736 31.4749 0.177945 31.2403 0.220317C30.9923 0.265218 30.7906 0.330356 30.5598 0.379052Z" fill="#34368F"/>
<path fill-rule="evenodd" clip-rule="evenodd" d="M33.3303 10.7392L33.3651 10.7064C33.4866 10.566 33.7085 10.0499 33.7648 9.89118C33.99 9.25055 34.0165 8.61118 33.8603 7.94145C34.2802 7.90667 34.9569 7.52723 35.2111 7.22683C35.368 7.04153 35.4888 6.80185 35.5786 6.56217C35.779 6.02715 35.7993 5.23979 35.6399 4.68391C35.5982 4.53782 35.4768 4.11474 35.3383 4.11474C35.239 4.11474 35.0783 4.14446 35.0145 4.17545C35.2453 4.61244 35.1738 4.87363 35.2288 5.23663L35.2162 5.85513C35.1808 6.29402 35.0328 6.69055 34.7716 7.03078C34.4832 7.4077 34.2568 7.57149 33.7996 7.67837C33.7231 7.35078 33.5043 6.87584 33.3133 6.60517C33.202 6.44707 33.116 6.38952 33.0704 6.32185C33.1039 6.27189 33.2077 6.21244 33.2962 6.1024C33.6725 5.63695 33.7395 4.86161 33.5074 4.30509L33.3164 3.97055C33.2747 3.91553 33.2715 3.93197 33.2526 3.85165C33.527 3.78778 33.9413 3.43363 34.4674 3.66889C34.5471 3.70493 34.7052 3.78904 34.7514 3.85165C34.568 3.89402 34.3612 3.913 34.1721 3.86367C34.0817 3.83964 34.0614 3.80928 33.9817 3.79094C34.0469 3.88833 34.3112 4.05402 34.4674 4.05402C35.0979 4.05402 35.2541 3.79347 35.5925 3.90098C35.719 3.94082 35.836 4.07616 35.8922 4.18809C36.1939 4.78446 36.1686 6.86952 36.1686 7.71885C36.1686 8.58082 35.8897 9.84817 35.4768 10.5299C35.411 10.6381 35.3199 10.7911 35.2333 10.8733C34.9645 11.1288 34.4624 10.9859 34.1784 10.8632C34.0178 10.7943 33.5979 10.5445 33.3544 10.7563L33.3303 10.7392ZM33.9381 10.7392C34.0703 10.7057 34.296 10.5141 34.6641 10.6811C34.9152 10.7955 34.8146 10.8113 34.9133 10.7563C34.8854 10.652 34.771 10.5875 34.6907 10.5331V7.90098L34.4137 8.0496C34.3131 8.10019 34.2164 8.1356 34.1234 8.1843V10.4319C34.0013 10.4964 33.8894 10.5508 33.8603 10.6754L33.9381 10.7392ZM33.9817 3.7707L33.9754 3.7764C33.976 3.77576 33.9836 3.7726 33.9817 3.7707ZM33.9615 3.75047L33.9552 3.75616C33.9558 3.75553 33.9634 3.75236 33.9615 3.75047ZM33.9413 3.73023L33.9349 3.73592C33.9356 3.73529 33.9432 3.73213 33.9413 3.73023ZM33.921 3.70936L33.9147 3.71568C33.9153 3.71505 33.9229 3.71189 33.921 3.70936ZM33.9008 3.68912L33.8945 3.69545C33.8951 3.69481 33.9027 3.69165 33.9008 3.68912ZM33.8805 3.66889L33.8742 3.67521C33.8749 3.67458 33.8824 3.67141 33.8805 3.66889ZM32.8276 10.6754C32.782 10.6444 32.6657 10.5634 32.6657 10.5128V7.88074L33.3544 7.90098C33.4031 8.11094 33.3949 8.58082 33.3949 8.83252C33.3949 9.25307 33.3702 9.57307 33.2583 9.89118C33.1242 10.2751 33.0255 10.3794 32.8276 10.6754ZM32.0782 3.58794C32.2122 3.57719 32.1572 3.54746 32.4228 3.54746C32.6081 3.54746 32.8706 3.64865 32.9085 3.79094C32.727 3.79094 32.5822 3.85292 32.3128 3.75869L32.118 3.64991C32.0598 3.59553 32.1104 3.64991 32.0782 3.58794ZM30.7621 3.4058C30.7621 3.57908 30.7963 3.65434 30.9392 3.796C31.2775 4.13244 31.5786 3.85165 32.0377 3.60817C32.0763 3.68912 32.056 3.69608 32.1231 3.76628C32.3368 3.99205 32.7428 3.99964 33.03 3.9326C33.0622 4.07047 33.1071 4.16975 33.1349 4.33418C33.1931 4.67885 33.2273 5.63442 33.0502 5.91647C32.9269 6.11252 32.7492 6.11948 32.6657 6.15995V4.39806C32.7998 4.30825 32.8377 4.29181 32.9288 4.15521L32.8649 4.07742C32.6714 4.20517 32.6707 4.2564 32.4026 4.2564C32.3292 4.2564 32.2293 4.22035 32.18 4.19505C32.1111 4.15964 32.0756 4.11284 32.0175 4.07426C31.9871 4.09513 31.896 4.16786 31.8758 4.19568C31.9232 4.26588 31.9827 4.33545 32.0782 4.35758V6.079C31.9877 6.03537 31.9036 6.00438 31.8151 5.95695C31.8847 6.25418 32.2717 6.44327 32.5645 6.44327C32.6796 6.44327 32.7043 6.42304 32.8276 6.42304C32.9281 6.57292 33.059 6.82019 33.1286 6.99221C33.2608 7.3179 33.2545 7.31853 33.3341 7.65813H32.6657V6.68612C32.512 6.72217 32.4077 6.71711 32.2546 6.65197C32.1857 6.62288 32.1395 6.58114 32.0782 6.5647V7.77956C31.9637 7.84027 31.8277 7.92248 31.7949 8.06288L32.0782 7.94145V10.4319C31.9726 10.4882 31.8802 10.5584 31.8151 10.6551L31.8916 10.7405C32.0567 10.695 32.1851 10.5457 32.5468 10.652C32.6353 10.6779 32.6903 10.7177 32.7669 10.7361C32.6518 10.9075 32.3109 11.1813 32.0175 11.1813C31.6013 11.1813 31.3591 10.5925 30.8804 10.9954C30.8266 11.0409 30.7191 11.1864 30.7014 11.2622C30.8096 11.2053 30.9044 11.1421 31.0277 11.1022C31.4616 10.9618 31.4072 11.3666 32.1035 11.4602C32.5487 11.5196 32.8453 11.3672 33.1286 11.0162C33.269 10.8423 33.2842 10.7766 33.4151 10.7766C33.5707 10.7766 33.7168 10.8575 33.816 10.922C33.9349 10.9985 34.0368 11.0681 34.1525 11.1522C34.7501 11.5886 35.4407 11.6607 35.9201 11.0137C36.2907 10.5135 36.5076 9.70841 36.6056 9.06715C36.6619 8.69719 36.7156 8.26778 36.715 7.86051C36.715 7.76122 36.7087 7.63347 36.7169 7.53734C36.722 7.4741 36.7334 7.46715 36.727 7.40327C36.7024 7.15157 36.7144 6.86193 36.7156 6.60517L36.6284 5.37576C36.5721 4.92612 36.4216 3.54746 35.8246 3.54746C35.6627 3.54746 35.4761 3.58477 35.3585 3.62841C35.1005 3.7239 35.1093 3.78968 34.9765 3.68723C34.7615 3.52027 34.4466 3.34509 34.1234 3.34509C33.8552 3.34509 33.3904 3.66003 33.0907 3.73023C32.9958 3.5873 32.6587 3.38557 32.524 3.38557C32.0946 3.38557 31.4451 3.86809 31.115 3.6613C31.0663 3.63031 31.0157 3.58857 30.9841 3.54873C30.9462 3.50066 30.919 3.45134 30.8848 3.40327C30.857 3.3647 30.7621 3.28501 30.7621 3.4058Z" fill="#34368F"/>
<path fill-rule="evenodd" clip-rule="evenodd" d="M30.6812 4.15523C30.6958 4.32724 30.9038 4.37341 30.9038 4.45879V10.3712C30.9038 10.4452 30.7565 10.4819 30.6407 10.6551L30.7173 10.7405C31.0126 10.664 31.0385 10.461 31.6735 10.7968L31.7544 10.7361C31.731 10.6343 31.6558 10.5635 31.5875 10.4983C31.4629 10.3788 31.4901 10.4148 31.4913 10.1891V4.43855C31.5982 4.41009 31.7386 4.25958 31.7949 4.17547L31.6893 4.07871C31.3174 4.32218 31.1928 4.32155 30.8229 4.07428C30.7729 4.11792 30.7571 4.13752 30.6812 4.15523Z" fill="#34368F"/>
<path fill-rule="evenodd" clip-rule="evenodd" d="M33.921 4.17547C33.9463 4.27159 34.0254 4.33483 34.1234 4.3576V7.31412C34.1993 7.29641 34.2183 7.26606 34.2777 7.22495C34.3732 7.15792 34.6331 6.94859 34.6736 6.87207C34.7659 6.69879 34.6205 4.53088 34.7147 4.4025C34.7324 4.37847 34.8102 4.32914 34.8475 4.29246C34.8962 4.24503 34.9379 4.20835 34.974 4.15523L34.9095 4.07744C34.716 4.20519 34.6774 4.25641 34.4269 4.25641C34.2967 4.25641 34.1164 4.14701 34.0627 4.07428C34.0159 4.1059 33.971 4.14195 33.921 4.17547Z" fill="#34368F"/>
<path fill-rule="evenodd" clip-rule="evenodd" d="M32.4431 13.267H32.3014V12.2949H32.5038C32.7422 12.2949 32.8478 12.4998 32.8478 12.7402C32.8478 13.0425 32.7485 13.267 32.4431 13.267ZM32.0175 13.3277C32.0175 13.4225 32.142 13.3884 32.3824 13.3884C32.5778 13.3884 32.7289 13.3327 32.8333 13.2322C33.2039 12.8742 33.0394 12.1735 32.5443 12.1735H32.0175V13.3277Z" fill="#34368F"/>
<path fill-rule="evenodd" clip-rule="evenodd" d="M34.549 12.923V13.3884H34.8121V12.923C35.1207 12.8509 35.3332 12.3886 35.3383 12.1533H35.1157C35.1131 12.2728 35.0505 12.4809 35.0081 12.572C34.8589 12.8951 34.5319 12.9147 34.3726 12.5928C34.2916 12.4284 34.2885 12.3405 34.2448 12.1533H34.0222C34.0431 12.4038 34.241 12.8509 34.549 12.923Z" fill="#34368F"/>
<path fill-rule="evenodd" clip-rule="evenodd" d="M33.4353 13.3884H33.6984V12.1735H33.4353V13.3884Z" fill="#34368F"/>
<path fill-rule="evenodd" clip-rule="evenodd" d="M30.5598 0.37908C30.7906 0.330384 30.9924 0.265246 31.2403 0.220345C31.4749 0.177973 31.7184 0.138764 31.9612 0.112202C32.4887 0.0546529 33.0218 0.0274593 33.5568 0.0261944C33.5018 -0.0117502 33.2627 0.00406004 33.1717 0.00406004L31.9758 0.0837438C31.7209 0.11157 30.9057 0.233625 30.6427 0.329119L30.5598 0.37908Z" fill="#34368F"/>
<path fill-rule="evenodd" clip-rule="evenodd" d="M33.8666 3.74479L33.8818 3.72961C33.8805 3.73088 33.8615 3.73973 33.8666 3.74479Z" fill="#34368F"/>
</g>
</g>
<defs>
<clipPath id="clip0_801_8449">
<rect width="80" height="15.1779" fill="white" transform="translate(0.5)"/>
</clipPath>
<clipPath id="clip1_801_8449">
<rect width="80" height="15.1779" fill="white" transform="translate(0.5)"/>
</clipPath>
</defs>
</svg>
