<svg width="64" height="80" viewBox="0 0 64 80" fill="none" xmlns="http://www.w3.org/2000/svg">
<g clip-path="url(#clip0_801_8508)">
<path fill-rule="evenodd" clip-rule="evenodd" d="M18.92 56.8167L11.3367 50.58V15.33L18.92 9.65667V56.8167ZM27.12 63.5633L20.15 57.83V8.74L27.12 3.52667V63.5633ZM44.7467 9.66L52.33 15.33V50.58L44.7467 56.8167V9.66ZM36.5467 3.52667L43.5167 8.74V57.83L36.5467 63.5633V3.52667ZM31.8333 0L35.3167 2.60667V64.5733L31.8333 67.44L28.35 64.5733V2.60667L31.8333 0Z" fill="#009B4C"/>
<path fill-rule="evenodd" clip-rule="evenodd" d="M31.74 12.51C43.0033 12.51 52.1467 21.65 52.1467 32.9133C52.1467 44.1767 43.0033 53.3167 31.74 53.3167C20.48 53.3167 11.3367 44.1767 11.3367 32.9133C11.3367 21.65 20.48 12.51 31.74 12.51Z" fill="#FEFEFE"/>
<path fill-rule="evenodd" clip-rule="evenodd" d="M49.3667 33.8667C48.8667 43.16 41.1333 50.5867 31.7167 50.5867C22.3033 50.5867 14.57 43.16 14.07 33.8667H49.3667ZM31.7167 15.24C41.1033 15.24 48.8167 22.62 49.36 31.87H14.0767C14.62 22.62 22.3333 15.24 31.7167 15.24Z" fill="#FEFEFE"/>
<path fill-rule="evenodd" clip-rule="evenodd" d="M49.3833 33.8667C48.8833 43.16 41.15 50.5867 31.7333 50.5867C22.32 50.5867 14.5833 43.16 14.0867 33.8667H49.3833ZM31.7333 15.24C41.12 15.24 48.8333 22.62 49.3767 31.87H14.09C14.6333 22.62 22.35 15.24 31.7333 15.24Z" fill="#00A2E9"/>
<path fill-rule="evenodd" clip-rule="evenodd" d="M49.3867 31.87H50.1L52.33 32.78L50.1 33.8667H49.39C49.4067 33.55 49.4167 33.2333 49.4167 32.9133C49.4167 32.5633 49.4067 32.2167 49.3867 31.87ZM11.4233 31.87H14.0533C14.03 32.2167 14.02 32.5633 14.02 32.9133C14.02 33.2333 14.03 33.55 14.0467 33.8667H11.4233L14.6133 32.78L11.4233 31.87Z" fill="#00A2E9"/>
<path fill-rule="evenodd" clip-rule="evenodd" d="M22.61 17.72C28.49 21.2067 34.9067 21.2233 40.6467 17.6033L42.0433 18.5333C36.54 23.2733 27.23 23.5233 21.1 18.8033L22.61 17.72Z" fill="#FEFEFE"/>
<path fill-rule="evenodd" clip-rule="evenodd" d="M17.2267 22.84C25.76 28.5567 37.26 28.4767 45.9933 22.5633C46.4933 23.2167 46.9167 23.8667 47.23 24.5167C39.4167 30.4633 25.5833 30.96 16.0267 24.79C16.38 24.14 16.7633 23.49 17.2267 22.84Z" fill="#FEFEFE"/>
<path fill-rule="evenodd" clip-rule="evenodd" d="M22.61 48.13C28.49 44.6433 34.9067 44.6267 40.6467 48.2467L42.0433 47.3167C36.54 42.5767 27.23 42.3267 21.1 47.0433L22.61 48.13Z" fill="#FEFEFE"/>
<path fill-rule="evenodd" clip-rule="evenodd" d="M17.2267 42.9867C25.76 37.27 37.26 37.35 45.9933 43.26C46.4933 42.61 46.9167 41.96 47.23 41.3067C39.4167 35.3633 25.5833 34.8633 16.0267 41.0367C16.38 41.6867 16.7633 42.3367 17.2267 42.9867Z" fill="#FEFEFE"/>
<path d="M4.08667 73.2967C4.61667 73.4133 4.99333 73.5567 5.20667 73.7267C5.51667 73.9667 5.67 74.2767 5.67 74.66C5.67 75.0633 5.5 75.3967 5.16 75.66C4.74333 75.98 4.14 76.1367 3.34667 76.1367H0.5V75.9933C0.76 75.9933 0.933333 75.97 1.02667 75.9233C1.12 75.8767 1.18333 75.8167 1.22 75.7433C1.26 75.67 1.27667 75.4867 1.27667 75.1967V71.7167C1.27667 71.43 1.26 71.2467 1.22 71.17C1.18333 71.0967 1.12 71.0367 1.02333 70.99C0.93 70.9467 0.756667 70.9233 0.5 70.9233V70.7767H3.18667C3.82667 70.7767 4.28333 70.8333 4.55 70.94C4.81667 71.05 5.02667 71.2133 5.18 71.43C5.33667 71.65 5.41333 71.88 5.41333 72.1267C5.41333 72.3833 5.31667 72.6133 5.12 72.8167C4.92333 73.0167 4.58 73.1767 4.08667 73.2967ZM2.58333 73.4967V75.2167L2.57667 75.4133C2.57667 75.5567 2.61667 75.6633 2.69333 75.7367C2.76667 75.81 2.88 75.8467 3.03 75.8467C3.25 75.8467 3.45333 75.8 3.63667 75.7067C3.82333 75.61 3.96667 75.4767 4.06667 75.2967C4.16333 75.12 4.21333 74.92 4.21333 74.7033C4.21333 74.4533 4.15333 74.2267 4.03333 74.03C3.91333 73.83 3.74667 73.69 3.53333 73.6133C3.32 73.5333 3.00333 73.4933 2.58333 73.4967ZM2.58333 73.19C2.97333 73.19 3.26333 73.1467 3.44667 73.0633C3.63333 72.9767 3.77667 72.86 3.87667 72.7067C3.97667 72.5533 4.02333 72.36 4.02333 72.12C4.02333 71.8833 3.97667 71.69 3.87667 71.54C3.78 71.3867 3.64 71.27 3.46 71.1933C3.27667 71.1133 2.98333 71.0767 2.58333 71.0767V73.19Z" fill="#332C2B"/>
<path d="M9.48667 74.6133H7.50667L7.27333 75.1333C7.19667 75.3067 7.15667 75.45 7.15667 75.5633C7.15667 75.7133 7.22 75.8267 7.34667 75.8967C7.42 75.94 7.60333 75.97 7.89667 75.9933V76.1367H6.03333V75.9933C6.23333 75.9633 6.4 75.8833 6.53 75.7533C6.65667 75.6233 6.81667 75.3533 7.00667 74.9433L9.01333 70.6667H9.09L11.11 75.0633C11.3033 75.48 11.4633 75.74 11.5867 75.85C11.68 75.93 11.8133 75.98 11.9833 75.9933V76.1367H9.27333V75.9933H9.38333C9.6 75.9933 9.75333 75.9633 9.84333 75.9033C9.90333 75.8633 9.93333 75.8033 9.93333 75.7233C9.93333 75.6767 9.92667 75.6267 9.91 75.5767C9.90333 75.5533 9.86333 75.4533 9.78333 75.28L9.48667 74.6133ZM9.34667 74.32L8.51333 72.4733L7.65333 74.32H9.34667Z" fill="#332C2B"/>
<path d="M14.1867 70.7767L16.95 74.1033V71.7967C16.95 71.4767 16.9 71.2567 16.8067 71.1433C16.6733 70.9933 16.45 70.9167 16.14 70.9233V70.7767H17.99V70.9233C17.7533 70.9533 17.5933 70.99 17.5133 71.0367C17.4333 71.0833 17.37 71.1567 17.3233 71.2633C17.2767 71.3667 17.2567 71.5433 17.2567 71.7967V76.26H17.1133L13.3267 71.7967V75.2067C13.3267 75.5133 13.4 75.72 13.5467 75.83C13.6933 75.9367 13.8633 75.9933 14.0533 75.9933H14.1867V76.1367H12.1967V75.9933C12.5067 75.99 12.72 75.93 12.8433 75.81C12.9633 75.69 13.0233 75.49 13.0233 75.2067V71.4233L12.9033 71.28C12.7867 71.1367 12.68 71.0433 12.59 71C12.5 70.9533 12.37 70.93 12.1967 70.9233V70.7767H14.1867Z" fill="#332C2B"/>
<path d="M21.7133 72.83L23.6833 75.19C23.9633 75.52 24.2033 75.7467 24.4033 75.8667C24.55 75.95 24.7033 75.9933 24.8667 75.9933V76.1367H21.95V75.9933C22.1333 75.9767 22.2533 75.95 22.3067 75.91C22.36 75.87 22.3867 75.82 22.3867 75.7633C22.3867 75.65 22.26 75.4433 22.0067 75.1367L20.7233 73.5933L20.5167 73.7567V75.22C20.5167 75.5 20.5333 75.6733 20.5667 75.7433C20.5967 75.81 20.66 75.87 20.7567 75.92C20.85 75.9667 21 75.9933 21.2067 75.9933V76.1367H18.38V75.9933H18.5667C18.7267 75.9933 18.86 75.9633 18.9567 75.91C19.03 75.8733 19.0833 75.81 19.1233 75.72C19.1533 75.6567 19.17 75.49 19.17 75.22V71.6933C19.17 71.42 19.1533 71.25 19.1233 71.18C19.0933 71.1133 19.03 71.0533 18.94 71C18.8467 70.95 18.7233 70.9233 18.5667 70.9233H18.38V70.7767H21.17V70.9233C20.98 70.9233 20.8333 70.95 20.7333 71.0033C20.6633 71.04 20.6067 71.1033 20.5667 71.19C20.5333 71.2533 20.5167 71.4233 20.5167 71.6933V73.3633L22.5933 71.7533C22.8833 71.53 23.0267 71.35 23.0267 71.2167C23.0267 71.1167 22.97 71.0367 22.85 70.98C22.79 70.95 22.64 70.93 22.4 70.9233V70.7767H24.5867V70.9233C24.39 70.9367 24.2367 70.97 24.1267 71.0233C24.0133 71.08 23.7567 71.26 23.3533 71.5733L21.7133 72.83Z" fill="#332C2B"/>
<path d="M30.4133 72.83L32.3833 75.19C32.66 75.52 32.9 75.7467 33.1033 75.8667C33.2467 75.95 33.4033 75.9933 33.5633 75.9933V76.1367H30.6467V75.9933C30.8333 75.9767 30.95 75.95 31.0033 75.91C31.06 75.87 31.0867 75.82 31.0867 75.7633C31.0867 75.65 30.96 75.4433 30.7067 75.1367L29.42 73.5933L29.2133 73.7567V75.22C29.2133 75.5 29.23 75.6733 29.2633 75.7433C29.2967 75.81 29.36 75.87 29.4533 75.92C29.5467 75.9667 29.6967 75.9933 29.9033 75.9933V76.1367H27.0767V75.9933H27.2633C27.4267 75.9933 27.5567 75.9633 27.6567 75.91C27.7267 75.8733 27.7833 75.81 27.82 75.72C27.85 75.6567 27.8667 75.49 27.8667 75.22V71.6933C27.8667 71.42 27.85 71.25 27.82 71.18C27.79 71.1133 27.73 71.0533 27.6367 71C27.5433 70.95 27.42 70.9233 27.2633 70.9233H27.0767V70.7767H29.8667V70.9233C29.6767 70.9233 29.5333 70.95 29.4333 71.0033C29.36 71.04 29.3033 71.1033 29.2633 71.19C29.23 71.2533 29.2133 71.4233 29.2133 71.6933V73.3633L31.2933 71.7533C31.58 71.53 31.7267 71.35 31.7267 71.2167C31.7267 71.1167 31.6667 71.0367 31.5467 70.98C31.4867 70.95 31.3367 70.93 31.0967 70.9233V70.7767H33.2833V70.9233C33.0867 70.9367 32.9333 70.97 32.8233 71.0233C32.71 71.08 32.4533 71.26 32.0533 71.5733L30.4133 72.83Z" fill="#332C2B"/>
<path d="M36.99 74.6133H35.01L34.7767 75.1333C34.6967 75.3067 34.66 75.45 34.66 75.5633C34.66 75.7133 34.7233 75.8267 34.85 75.8967C34.9233 75.94 35.1067 75.97 35.4 75.9933V76.1367H33.5367V75.9933C33.7367 75.9633 33.9033 75.8833 34.03 75.7533C34.16 75.6233 34.32 75.3533 34.51 74.9433L36.5133 70.6667H36.5933L38.6133 75.0633C38.8067 75.48 38.9667 75.74 39.09 75.85C39.1833 75.93 39.3167 75.98 39.4867 75.9933V76.1367H36.7767V75.9933H36.8867C37.1033 75.9933 37.2567 75.9633 37.3467 75.9033C37.4067 75.8633 37.4367 75.8033 37.4367 75.7233C37.4367 75.6767 37.4267 75.6267 37.4133 75.5767C37.4067 75.5533 37.3633 75.4533 37.2867 75.28L36.99 74.6133ZM36.85 74.32L36.0133 72.4733L35.1567 74.32H36.85Z" fill="#332C2B"/>
<path d="M44.9233 74.2567L44.7133 76.1367H39.7367V75.9933H39.9233C40.0867 75.9933 40.2167 75.9633 40.3167 75.91C40.3867 75.8733 40.4433 75.81 40.4833 75.72C40.5133 75.6567 40.5267 75.49 40.5267 75.22V71.6933C40.5267 71.42 40.5133 71.25 40.4833 71.18C40.45 71.1133 40.39 71.0533 40.2967 71C40.2067 70.95 40.08 70.9233 39.9233 70.9233H39.7367V70.7767H42.7267V70.9233H42.48C42.32 70.9233 42.1867 70.95 42.09 71.0067C42.0167 71.0433 41.96 71.1067 41.92 71.1967C41.89 71.26 41.8733 71.4267 41.8733 71.6933V75.11C41.8733 75.3833 41.89 75.56 41.9233 75.6333C41.9567 75.71 42.0233 75.7633 42.1167 75.8033C42.1867 75.8267 42.3533 75.8367 42.6167 75.8367H43.0833C43.3833 75.8367 43.63 75.7867 43.83 75.6867C44.0267 75.5867 44.2 75.43 44.3433 75.2133C44.4867 74.9967 44.6233 74.6767 44.7533 74.2567H44.9233Z" fill="#332C2B"/>
<path d="M48.99 73.2967C49.52 73.4133 49.8933 73.5567 50.11 73.7267C50.4167 73.9667 50.5733 74.2767 50.5733 74.66C50.5733 75.0633 50.4033 75.3967 50.0633 75.66C49.6467 75.98 49.0433 76.1367 48.25 76.1367H45.4033V75.9933C45.6633 75.9933 45.8367 75.97 45.93 75.9233C46.0233 75.8767 46.0867 75.8167 46.1233 75.7433C46.16 75.67 46.18 75.4867 46.18 75.1967V71.7167C46.18 71.43 46.16 71.2467 46.1233 71.17C46.0867 71.0967 46.02 71.0367 45.9267 70.99C45.8333 70.9467 45.66 70.9233 45.4033 70.9233V70.7767H48.09C48.73 70.7767 49.1867 70.8333 49.4533 70.94C49.72 71.05 49.93 71.2133 50.0833 71.43C50.24 71.65 50.3167 71.88 50.3167 72.1267C50.3167 72.3833 50.2167 72.6133 50.0233 72.8167C49.8267 73.0167 49.4833 73.1767 48.99 73.2967ZM47.4867 73.4967V75.2167L47.48 75.4133C47.48 75.5567 47.52 75.6633 47.5967 75.7367C47.67 75.81 47.7833 75.8467 47.9333 75.8467C48.1533 75.8467 48.3567 75.8 48.54 75.7067C48.7267 75.61 48.87 75.4767 48.97 75.2967C49.0667 75.12 49.1167 74.92 49.1167 74.7033C49.1167 74.4533 49.0567 74.2267 48.9367 74.03C48.8133 73.83 48.6467 73.69 48.4367 73.6133C48.2233 73.5333 47.9067 73.4933 47.4867 73.4967ZM47.4867 73.19C47.8767 73.19 48.1667 73.1467 48.35 73.0633C48.5367 72.9767 48.68 72.86 48.78 72.7067C48.88 72.5533 48.9267 72.36 48.9267 72.12C48.9267 71.8833 48.88 71.69 48.78 71.54C48.6833 71.3867 48.5433 71.27 48.36 71.1933C48.18 71.1133 47.8867 71.0767 47.4867 71.0767V73.19Z" fill="#332C2B"/>
<path d="M54.39 74.6133H52.41L52.1767 75.1333C52.0967 75.3067 52.06 75.45 52.06 75.5633C52.06 75.7133 52.1233 75.8267 52.25 75.8967C52.3233 75.94 52.5067 75.97 52.8 75.9933V76.1367H50.9367V75.9933C51.1367 75.9633 51.3033 75.8833 51.43 75.7533C51.56 75.6233 51.72 75.3533 51.91 74.9433L53.9167 70.6667H53.9933L56.0133 75.0633C56.2067 75.48 56.3667 75.74 56.49 75.85C56.5833 75.93 56.7167 75.98 56.8867 75.9933V76.1367H54.1767V75.9933H54.2867C54.5033 75.9933 54.6567 75.9633 54.7467 75.9033C54.8067 75.8633 54.8367 75.8033 54.8367 75.7233C54.8367 75.6767 54.83 75.6267 54.8133 75.5767C54.8067 75.5533 54.7667 75.4533 54.6867 75.28L54.39 74.6133ZM54.25 74.32L53.4133 72.4733L52.5567 74.32H54.25Z" fill="#332C2B"/>
<path d="M59.23 73.6933V75.1967C59.23 75.4867 59.2467 75.67 59.2833 75.7433C59.3233 75.82 59.3867 75.88 59.48 75.9233C59.5733 75.97 59.75 75.9933 60.0067 75.9933V76.1367H57.14V75.9933C57.3967 75.9933 57.5733 75.97 57.6667 75.9233C57.7567 75.8767 57.8233 75.8167 57.86 75.7433C57.8967 75.67 57.9133 75.4867 57.9133 75.1967V71.7167C57.9133 71.43 57.8967 71.2467 57.86 71.17C57.8233 71.0967 57.7567 71.0367 57.6633 70.99C57.57 70.9467 57.3933 70.9233 57.14 70.9233V70.7767H59.74C60.42 70.7767 60.9167 70.8233 61.23 70.9133C61.5433 71 61.8 71.1667 61.9967 71.4067C62.1967 71.65 62.2967 71.9333 62.2967 72.2567C62.2967 72.65 62.1467 72.9767 61.85 73.2367C61.66 73.4 61.3933 73.5233 61.05 73.6033L62.4 75.42C62.5733 75.6533 62.7 75.8 62.7733 75.8567C62.8867 75.94 63.0167 75.9833 63.1667 75.9933V76.1367H61.4033L59.5967 73.6933H59.23ZM59.23 71.0667V73.4133H59.4633C59.8467 73.4133 60.1333 73.38 60.3233 73.3133C60.5133 73.2467 60.6633 73.1233 60.7733 72.95C60.88 72.7733 60.9367 72.5467 60.9367 72.2633C60.9367 71.8567 60.8367 71.5533 60.6367 71.36C60.4367 71.1633 60.1133 71.0667 59.67 71.0667H59.23Z" fill="#332C2B"/>
<path d="M1.08 79.8533V77.8633H1.59C1.78333 77.8633 1.91 77.8733 1.97 77.8933C2.06 77.9233 2.13333 77.99 2.19667 78.09C2.25667 78.19 2.28667 78.32 2.28667 78.4767C2.28667 78.6 2.27 78.7 2.23333 78.7833C2.2 78.8667 2.15333 78.9333 2.1 78.98C2.04667 79.03 1.99 79.06 1.93667 79.0767C1.86 79.0933 1.75 79.1033 1.60333 79.1033H1.39667V79.8533H1.08ZM1.39667 78.2V78.7667H1.57C1.69667 78.7667 1.78 78.7567 1.82333 78.7333C1.86667 78.7133 1.9 78.68 1.92333 78.6367C1.94667 78.5933 1.96 78.54 1.96 78.4833C1.96 78.41 1.94333 78.35 1.90667 78.3033C1.87333 78.2567 1.83 78.2267 1.78 78.2133C1.74333 78.2067 1.66667 78.2 1.55 78.2H1.39667Z" fill="#332C2B"/>
<path d="M2.90333 79.8533V78.2H2.43667V77.8633H3.68667V78.2H3.22V79.8533H2.90333Z" fill="#332C2B"/>
<path d="M3.64667 79.8533V79.4733H3.95V79.8533H3.64667Z" fill="#332C2B"/>
<path d="M4.87333 77.8633H5.50333C5.63 77.8633 5.72333 77.87 5.78333 77.8833C5.84667 77.8967 5.9 77.9233 5.94667 77.9667C5.99667 78.0067 6.03667 78.0633 6.07 78.1333C6.1 78.2 6.11667 78.28 6.11667 78.3667C6.11667 78.46 6.09667 78.5433 6.05667 78.6233C6.01667 78.7 5.96333 78.7567 5.89667 78.7967C5.99333 78.8333 6.06667 78.8933 6.11667 78.9767C6.17 79.0633 6.19667 79.1633 6.19667 79.2767C6.19667 79.3667 6.18 79.4567 6.14667 79.54C6.11333 79.6267 6.06667 79.6967 6.01 79.7467C5.95 79.7967 5.88 79.83 5.79333 79.84C5.74333 79.8467 5.61333 79.8533 5.41 79.8533H4.87333V77.8633ZM5.19333 78.1967V78.6567H5.4C5.52667 78.6567 5.60333 78.6533 5.63333 78.65C5.68667 78.64 5.73 78.6167 5.76 78.5767C5.79333 78.54 5.80667 78.4867 5.80667 78.4233C5.80667 78.36 5.79333 78.31 5.76667 78.2733C5.74 78.2333 5.7 78.21 5.64667 78.2033C5.61667 78.1967 5.52667 78.1967 5.37667 78.1967H5.19333ZM5.19333 78.9867V79.52H5.48667C5.60333 79.52 5.67667 79.5167 5.70667 79.5067C5.75333 79.4967 5.79333 79.47 5.82 79.4267C5.85 79.3867 5.86667 79.33 5.86667 79.26C5.86667 79.2 5.85333 79.1467 5.83333 79.1067C5.81 79.0633 5.77667 79.0333 5.73333 79.0167C5.69 78.9967 5.59333 78.9867 5.45 78.9867H5.19333Z" fill="#332C2B"/>
<path d="M7.88667 79.8533H7.54L7.40333 79.4033H6.77L6.64 79.8533H6.30333L6.91667 77.8633H7.25333L7.88667 79.8533ZM7.3 79.0667L7.08333 78.33L6.87 79.0667H7.3Z" fill="#332C2B"/>
<path d="M8.05667 79.8533V77.8633H8.36667L9.01333 79.1933V77.8633H9.31V79.8533H8.99L8.35333 78.5567V79.8533H8.05667Z" fill="#332C2B"/>
<path d="M9.65 79.8533V77.8633H9.96667V78.7467L10.61 77.8633H11.04L10.4467 78.64L11.0733 79.8533H10.66L10.2267 78.92L9.96667 79.2533V79.8533H9.65Z" fill="#332C2B"/>
<path d="M11.8467 79.8533V77.8633H12.36C12.5533 77.8633 12.68 77.8733 12.7367 77.8933C12.8267 77.9233 12.9033 77.99 12.9633 78.09C13.0267 78.19 13.0567 78.32 13.0567 78.4767C13.0567 78.6 13.04 78.7 13.0033 78.7833C12.97 78.8667 12.9233 78.9333 12.87 78.98C12.8167 79.03 12.76 79.06 12.7033 79.0767C12.63 79.0933 12.52 79.1033 12.3733 79.1033H12.1667V79.8533H11.8467ZM12.1667 78.2V78.7667H12.34C12.4667 78.7667 12.55 78.7567 12.5933 78.7333C12.6333 78.7133 12.6667 78.68 12.6933 78.6367C12.7167 78.5933 12.7267 78.54 12.7267 78.4833C12.7267 78.41 12.71 78.35 12.6767 78.3033C12.6433 78.2567 12.6 78.2267 12.55 78.2133C12.51 78.2067 12.4367 78.2 12.32 78.2H12.1667Z" fill="#332C2B"/>
<path d="M13.3167 79.8533V77.8633H14.4867V78.2H13.6367V78.6433H14.4267V78.9767H13.6367V79.52H14.5167V79.8533H13.3167Z" fill="#332C2B"/>
<path d="M14.7833 79.8533V77.8633H15.26L15.5467 79.2233L15.8267 77.8633H16.3067V79.8533H16.01V78.2867L15.6967 79.8533H15.39L15.08 78.2867V79.8533H14.7833Z" fill="#332C2B"/>
<path d="M16.6233 77.8633H17.2533C17.3767 77.8633 17.47 77.87 17.5333 77.8833C17.5933 77.8967 17.65 77.9233 17.6967 77.9667C17.7467 78.0067 17.7867 78.0633 17.8167 78.1333C17.85 78.2 17.8667 78.28 17.8667 78.3667C17.8667 78.46 17.8467 78.5433 17.8067 78.6233C17.7667 78.7 17.7133 78.7567 17.6433 78.7967C17.74 78.8333 17.8133 78.8933 17.8667 78.9767C17.9167 79.0633 17.9433 79.1633 17.9433 79.2767C17.9433 79.3667 17.9267 79.4567 17.8933 79.54C17.86 79.6267 17.8133 79.6967 17.7567 79.7467C17.7 79.7967 17.6267 79.83 17.5433 79.84C17.49 79.8467 17.3633 79.8533 17.16 79.8533H16.6233V77.8633ZM16.94 78.1967V78.6567H17.15C17.2733 78.6567 17.35 78.6533 17.38 78.65C17.4367 78.64 17.4767 78.6167 17.51 78.5767C17.54 78.54 17.5567 78.4867 17.5567 78.4233C17.5567 78.36 17.5433 78.31 17.5167 78.2733C17.49 78.2333 17.45 78.21 17.3967 78.2033C17.3633 78.1967 17.2733 78.1967 17.1233 78.1967H16.94ZM16.94 78.9867V79.52H17.2367C17.35 79.52 17.4233 79.5167 17.4533 79.5067C17.5 79.4967 17.54 79.47 17.57 79.4267C17.6 79.3867 17.6133 79.33 17.6133 79.26C17.6133 79.2 17.6033 79.1467 17.58 79.1067C17.5567 79.0633 17.5233 79.0333 17.48 79.0167C17.4367 78.9967 17.3433 78.9867 17.1967 78.9867H16.94Z" fill="#332C2B"/>
<path d="M19.6333 79.8533H19.2867L19.15 79.4033H18.52L18.39 79.8533H18.0533L18.6667 77.8633H19.0033L19.6333 79.8533ZM19.0467 79.0667L18.83 78.33L18.6167 79.0667H19.0467Z" fill="#332C2B"/>
<path d="M19.8067 79.8533V77.8633H20.1167L20.76 79.1933V77.8633H21.0567V79.8533H20.7367L20.1033 78.5567V79.8533H19.8067Z" fill="#332C2B"/>
<path d="M22.1267 79.1233V78.7867H22.8133V79.58C22.7467 79.66 22.65 79.7333 22.5233 79.7967C22.3967 79.8567 22.27 79.8867 22.14 79.8867C21.9733 79.8867 21.83 79.8433 21.7067 79.7567C21.5867 79.67 21.4933 79.5467 21.43 79.3833C21.37 79.22 21.34 79.0433 21.34 78.8533C21.34 78.6467 21.3733 78.46 21.4433 78.3C21.51 78.14 21.6133 78.0167 21.7433 77.93C21.8467 77.8633 21.97 77.83 22.1233 77.83C22.3167 77.83 22.47 77.8833 22.58 77.9867C22.69 78.09 22.7633 78.2333 22.7933 78.4167L22.4767 78.49C22.4567 78.3933 22.4133 78.3167 22.3533 78.26C22.29 78.2033 22.2133 78.1733 22.1233 78.1733C21.9833 78.1733 21.8733 78.23 21.79 78.34C21.7067 78.4533 21.6667 78.6167 21.6667 78.8367C21.6667 79.0733 21.71 79.25 21.7933 79.3667C21.8733 79.4867 21.9833 79.5433 22.12 79.5433C22.1867 79.5433 22.2533 79.5267 22.32 79.4967C22.3867 79.4633 22.4433 79.4233 22.4933 79.3767V79.1233H22.1267Z" fill="#332C2B"/>
<path d="M23.1033 77.8633H23.4233V78.9433C23.4233 79.1133 23.4267 79.2233 23.4367 79.2733C23.45 79.3567 23.48 79.42 23.5333 79.47C23.5833 79.52 23.6533 79.5433 23.7433 79.5433C23.8333 79.5433 23.9 79.52 23.9467 79.4767C23.9933 79.4267 24.02 79.37 24.03 79.3033C24.04 79.2367 24.0433 79.1233 24.0433 78.9667V77.8633H24.3633V78.91C24.3633 79.15 24.3533 79.3167 24.3367 79.4167C24.32 79.5133 24.2867 79.5967 24.24 79.6667C24.1967 79.7333 24.1333 79.7867 24.0567 79.8267C23.98 79.8667 23.8767 79.8867 23.7533 79.8867C23.6033 79.8867 23.4867 79.8667 23.41 79.8233C23.3333 79.78 23.27 79.72 23.2267 79.65C23.18 79.58 23.15 79.5067 23.1367 79.43C23.1167 79.3167 23.1033 79.15 23.1033 78.9267V77.8633Z" fill="#332C2B"/>
<path d="M24.7 79.8533V77.8633H25.01L25.6567 79.1933V77.8633H25.9533V79.8533H25.6333L24.9967 78.5567V79.8533H24.7Z" fill="#332C2B"/>
<path d="M27.71 79.8533H27.3633L27.2267 79.4033H26.5967L26.4667 79.8533H26.1267L26.7433 77.8633H27.08L27.71 79.8533ZM27.1233 79.0667L26.9067 78.33L26.6933 79.0667H27.1233Z" fill="#332C2B"/>
<path d="M27.8833 79.8533V77.8633H28.1933L28.8367 79.1933V77.8633H29.1333V79.8533H28.8133L28.18 78.5567V79.8533H27.8833Z" fill="#332C2B"/>
<path d="M30.08 77.8633H30.6633C30.7933 77.8633 30.8933 77.8767 30.9633 77.9033C31.0567 77.9367 31.1367 77.9967 31.2 78.0867C31.2667 78.1733 31.3167 78.28 31.35 78.4067C31.3867 78.5367 31.4033 78.6933 31.4033 78.8767C31.4033 79.0433 31.3867 79.1833 31.3533 79.3C31.3167 79.4467 31.26 79.5633 31.1867 79.6533C31.13 79.72 31.0567 79.7733 30.9633 79.8133C30.8933 79.84 30.7967 79.8533 30.68 79.8533H30.08V77.8633ZM30.4 78.2V79.52H30.6367C30.7267 79.52 30.79 79.5133 30.83 79.5C30.88 79.4833 30.9233 79.4567 30.9567 79.4167C30.9933 79.3767 31.02 79.3133 31.0433 79.2233C31.0633 79.1367 31.0733 79.0133 31.0733 78.86C31.0733 78.7067 31.0633 78.59 31.0433 78.5067C31.02 78.4233 30.99 78.36 30.95 78.3133C30.9133 78.2667 30.8633 78.2367 30.8033 78.22C30.76 78.2067 30.6733 78.2 30.5433 78.2H30.4Z" fill="#332C2B"/>
<path d="M33.0933 79.8533H32.75L32.61 79.4033H31.98L31.85 79.8533H31.5133L32.1267 77.8633H32.4633L33.0933 79.8533ZM32.51 79.0667L32.2933 78.33L32.08 79.0667H32.51Z" fill="#332C2B"/>
<path d="M33.2633 79.8533V77.8633H34.4333V78.2H33.5833V78.6433H34.3733V78.9767H33.5833V79.52H34.4633V79.8533H33.2633Z" fill="#332C2B"/>
<path d="M34.7333 79.8533V77.8633H35.4033C35.5733 77.8633 35.6967 77.8833 35.77 77.9167C35.8467 77.9533 35.91 78.0167 35.9533 78.11C36 78.2 36.0233 78.3033 36.0233 78.4233C36.0233 78.57 35.99 78.6933 35.92 78.7933C35.85 78.89 35.7467 78.95 35.6067 78.9767C35.6767 79.0267 35.7333 79.0833 35.7767 79.1433C35.8233 79.2033 35.8833 79.31 35.96 79.4667L36.1533 79.8533H35.77L35.54 79.42C35.46 79.2667 35.4033 79.17 35.3733 79.13C35.3433 79.09 35.31 79.06 35.2767 79.0467C35.2433 79.03 35.19 79.0233 35.1167 79.0233H35.0533V79.8533H34.7333ZM35.0533 78.7067H35.2867C35.44 78.7067 35.5367 78.6967 35.5733 78.68C35.6133 78.6667 35.6433 78.6367 35.6633 78.5967C35.6833 78.5567 35.6967 78.5067 35.6967 78.45C35.6967 78.38 35.68 78.3267 35.6533 78.2867C35.6233 78.2433 35.5833 78.22 35.5333 78.2067C35.5067 78.2033 35.43 78.2 35.3 78.2H35.0533V78.7067Z" fill="#332C2B"/>
<path d="M37.7467 79.8533H37.4L37.26 79.4033H36.63L36.5 79.8533H36.1633L36.7767 77.8633H37.1133L37.7467 79.8533ZM37.16 79.0667L36.9433 78.33L36.73 79.0667H37.16Z" fill="#332C2B"/>
<path d="M37.9167 79.8533V77.8633H38.2333V78.6467H38.8567V77.8633H39.1767V79.8533H38.8567V78.9833H38.2333V79.8533H37.9167Z" fill="#332C2B"/>
<path d="M40.1233 79.8533V77.8633H40.44V78.7467L41.0833 77.8633H41.51L40.9167 78.64L41.5433 79.8533H41.13L40.6967 78.92L40.44 79.2533V79.8533H40.1233Z" fill="#332C2B"/>
<path d="M43.13 79.8533H42.7833L42.6467 79.4033H42.0167L41.8867 79.8533H41.5467L42.1633 77.8633H42.5L43.13 79.8533ZM42.5433 79.0667L42.3267 78.33L42.1133 79.0667H42.5433Z" fill="#332C2B"/>
<path d="M43.3067 79.8533V77.88H43.6267V79.52H44.4167V79.8533H43.3067Z" fill="#332C2B"/>
<path d="M44.6333 79.8533V77.8633H44.9533V79.8533H44.6333Z" fill="#332C2B"/>
<path d="M45.2533 79.8533V77.8633H45.73L46.0133 79.2233L46.2967 77.8633H46.7767V79.8533H46.48V78.2867L46.1667 79.8533H45.86L45.5467 78.2867V79.8533H45.2533Z" fill="#332C2B"/>
<path d="M48.5133 79.8533H48.1667L48.03 79.4033H47.4L47.27 79.8533H46.93L47.5433 77.8633H47.8833L48.5133 79.8533ZM47.9267 79.0667L47.71 78.33L47.4967 79.0667H47.9267Z" fill="#332C2B"/>
<path d="M48.6833 79.8533V77.8633H48.9933L49.64 79.1933V77.8633H49.9367V79.8533H49.6167L48.98 78.5567V79.8533H48.6833Z" fill="#332C2B"/>
<path d="M50.6267 79.8533V78.2H50.16V77.8633H51.4133V78.2H50.9467V79.8533H50.6267Z" fill="#332C2B"/>
<path d="M52.8767 79.8533H52.53L52.3933 79.4033H51.7633L51.6333 79.8533H51.2933L51.91 77.8633H52.2467L52.8767 79.8533ZM52.29 79.0667L52.0733 78.33L51.86 79.0667H52.29Z" fill="#332C2B"/>
<path d="M53.05 79.8533V77.8633H53.36L54.0033 79.1933V77.8633H54.3V79.8533H53.98L53.3433 78.5567V79.8533H53.05Z" fill="#332C2B"/>
<path d="M55.25 77.8633H55.88C56.0033 77.8633 56.0967 77.87 56.16 77.8833C56.22 77.8967 56.2767 77.9233 56.3233 77.9667C56.3733 78.0067 56.4133 78.0633 56.4433 78.1333C56.4767 78.2 56.4933 78.28 56.4933 78.3667C56.4933 78.46 56.4733 78.5433 56.4333 78.6233C56.3933 78.7 56.34 78.7567 56.27 78.7967C56.3667 78.8333 56.44 78.8933 56.4933 78.9767C56.5433 79.0633 56.57 79.1633 56.57 79.2767C56.57 79.3667 56.5533 79.4567 56.52 79.54C56.4867 79.6267 56.44 79.6967 56.3833 79.7467C56.3267 79.7967 56.2533 79.83 56.17 79.84C56.1167 79.8467 55.99 79.8533 55.7867 79.8533H55.25V77.8633ZM55.5667 78.1967V78.6567H55.7767C55.9 78.6567 55.9767 78.6533 56.0067 78.65C56.0633 78.64 56.1033 78.6167 56.1367 78.5767C56.1667 78.54 56.1833 78.4867 56.1833 78.4233C56.1833 78.36 56.17 78.31 56.1433 78.2733C56.1167 78.2333 56.0767 78.21 56.0233 78.2033C55.99 78.1967 55.9 78.1967 55.75 78.1967H55.5667ZM55.5667 78.9867V79.52H55.8633C55.9767 79.52 56.05 79.5167 56.08 79.5067C56.1267 79.4967 56.1667 79.47 56.1967 79.4267C56.2267 79.3867 56.24 79.33 56.24 79.26C56.24 79.2 56.23 79.1467 56.2067 79.1067C56.1833 79.0633 56.15 79.0333 56.1067 79.0167C56.0633 78.9967 55.97 78.9867 55.8233 78.9867H55.5667Z" fill="#332C2B"/>
<path d="M58.26 79.8533H57.9133L57.7767 79.4033H57.1467L57.0167 79.8533H56.68L57.2933 77.8633H57.63L58.26 79.8533ZM57.6767 79.0667L57.4567 78.33L57.2433 79.0667H57.6767Z" fill="#332C2B"/>
<path d="M58.43 79.8533V77.8633H59.1C59.27 77.8633 59.3933 77.8833 59.4667 77.9167C59.5433 77.9533 59.6067 78.0167 59.6533 78.11C59.6967 78.2 59.72 78.3033 59.72 78.4233C59.72 78.57 59.6867 78.6933 59.6167 78.7933C59.5467 78.89 59.4433 78.95 59.3033 78.9767C59.3733 79.0267 59.43 79.0833 59.4733 79.1433C59.52 79.2033 59.58 79.31 59.6567 79.4667L59.85 79.8533H59.4667L59.2367 79.42C59.1567 79.2667 59.1 79.17 59.07 79.13C59.04 79.09 59.0067 79.06 58.9733 79.0467C58.94 79.03 58.8867 79.0233 58.8133 79.0233H58.75V79.8533H58.43ZM58.75 78.7067H58.9833C59.1367 78.7067 59.2333 78.6967 59.27 78.68C59.31 78.6667 59.34 78.6367 59.36 78.5967C59.3833 78.5567 59.3933 78.5067 59.3933 78.45C59.3933 78.38 59.3767 78.3267 59.35 78.2867C59.3233 78.2433 59.2833 78.22 59.23 78.2067C59.2033 78.2033 59.1267 78.2 58.9967 78.2H58.75V78.7067Z" fill="#332C2B"/>
<path d="M61.4433 79.8533H61.0967L60.96 79.4033H60.3267L60.2 79.8533H59.86L60.4733 77.8633H60.81L61.4433 79.8533ZM60.8567 79.0667L60.64 78.33L60.4267 79.0667H60.8567Z" fill="#332C2B"/>
<path d="M61.8033 79.8533V78.2H61.3333V77.8633H62.59V78.2H62.12V79.8533H61.8033Z" fill="#332C2B"/>
</g>
<defs>
<clipPath id="clip0_801_8508">
<rect width="62.6667" height="79.8867" fill="white" transform="translate(0.5)"/>
</clipPath>
</defs>
</svg>
