<svg width="81" height="18" viewBox="0 0 81 18" fill="none" xmlns="http://www.w3.org/2000/svg">
<g clip-path="url(#clip0_801_8434)">
<g clip-path="url(#clip1_801_8434)">
<path fill-rule="evenodd" clip-rule="evenodd" d="M0.616394 15.6244C3.54699 14.5527 5.88132 13.2848 7.60371 11.8094C7.82983 11.9632 8.07535 12.1027 8.34102 12.2288C8.46192 12.2863 8.58356 12.3393 8.70595 12.3878C7.01789 13.9587 4.61639 15.4176 1.5455 16.7758L0.616394 15.6244ZM8.27087 11.1982C8.63729 10.8378 8.96938 10.4654 9.26789 10.0811C9.46042 9.83256 9.62759 9.59152 9.77087 9.35719C9.91117 9.35719 10.0507 9.36092 10.1888 9.36988C10.4627 9.38704 10.7156 9.42137 10.947 9.47062C10.5597 10.2729 10.0089 11.049 9.29998 11.7997C8.90595 11.6348 8.56266 11.4333 8.27087 11.1982ZM10.238 8.38406C10.5462 7.45794 10.3821 6.67809 9.72983 6.07958C8.84923 5.27212 7.12236 4.85197 4.64401 4.71018C5.88953 4.50943 7.19625 4.50644 8.55669 4.746C10.8358 5.14824 11.888 6.31018 11.4373 8.1251C11.3985 8.28107 11.3537 8.43704 11.303 8.59152C10.9679 8.49077 10.6127 8.42137 10.238 8.38406Z" fill="#F6D300"/>
<path d="M0.592537 15.5579C2.05448 15.0236 3.36791 14.44 4.5291 13.8065C5.6903 13.1736 6.7 12.4908 7.55821 11.7565L7.59851 11.7214L7.64328 11.7512C7.75448 11.8266 7.8709 11.8997 7.99328 11.9691C8.11418 12.0378 8.23955 12.1035 8.3709 12.1654C8.43433 12.1953 8.49403 12.2229 8.55075 12.2475C8.61269 12.2744 8.67239 12.299 8.73134 12.3229L8.83507 12.3639L8.75373 12.4393C7.90672 13.2281 6.8806 13.9885 5.68134 14.7221C4.48284 15.4542 3.11194 16.1602 1.57388 16.84L1.52463 16.8624L1.49104 16.8199L0.56194 15.6684L0.5 15.5923L0.592537 15.5579ZM4.59701 13.9303C3.45299 14.5535 2.16418 15.1288 0.732836 15.6565L1.56642 16.6893C3.0791 16.0184 4.42836 15.3229 5.60746 14.6012C6.76119 13.8968 7.75224 13.1669 8.57687 12.4109C8.54925 12.3997 8.52164 12.3878 8.49478 12.3766C8.42985 12.3482 8.36866 12.3199 8.31045 12.293C8.17761 12.2296 8.04851 12.1624 7.92388 12.0915C7.81567 12.0296 7.71045 11.9654 7.60895 11.8975C6.75299 12.6251 5.74776 13.302 4.59701 13.9303ZM8.2209 11.1482C8.40373 10.9684 8.57761 10.7863 8.74254 10.602L8.74179 10.6012C8.90821 10.4154 9.06493 10.2273 9.21194 10.0378C9.30597 9.9169 9.39552 9.79526 9.47985 9.67436C9.56343 9.55347 9.6403 9.43556 9.71119 9.32063L9.73134 9.28705H9.7709C9.84254 9.28705 9.91269 9.2878 9.98284 9.29004C10.0552 9.29153 10.1254 9.29526 10.1933 9.29974C10.3306 9.30795 10.4634 9.32138 10.5918 9.33854C10.7209 9.35571 10.8448 9.3766 10.9619 9.40198L11.0493 9.42063L11.0104 9.50123C10.8157 9.90496 10.5791 10.3027 10.3015 10.6945C10.0246 11.0863 9.70746 11.4706 9.35149 11.8475L9.31791 11.8833L9.27313 11.8647C9.07313 11.7811 8.88582 11.6885 8.71269 11.587C8.53806 11.4848 8.37612 11.3736 8.22612 11.2527L8.16493 11.2035L8.2209 11.1482ZM8.84701 10.6953C8.69701 10.8639 8.53955 11.0296 8.37687 11.1923C8.50299 11.2893 8.63806 11.3803 8.78358 11.4654C8.93955 11.5565 9.10597 11.64 9.28209 11.7154C9.62164 11.3535 9.92313 10.9863 10.1866 10.6139C10.4403 10.2557 10.6597 9.89153 10.844 9.52138C10.756 9.50496 10.6657 9.49004 10.5731 9.47809C10.45 9.46168 10.3201 9.44899 10.1843 9.44003C10.1142 9.43556 10.0455 9.43257 9.9791 9.43033C9.92239 9.42884 9.86642 9.42809 9.81045 9.42735C9.74328 9.5363 9.67164 9.64526 9.59552 9.75496C9.51194 9.87436 9.42164 9.9975 9.32313 10.1236C9.17239 10.3184 9.01343 10.5087 8.84776 10.6953H8.84701ZM10.1709 8.36168C10.3216 7.90944 10.3567 7.49377 10.2746 7.11989C10.1933 6.75048 9.99627 6.41989 9.68209 6.13183C9.25075 5.73556 8.60896 5.43406 7.76866 5.21317C6.92164 4.99078 5.87463 4.85123 4.6403 4.78108L3.99552 4.74377L4.63284 4.64078C5.27015 4.53854 5.92313 4.48705 6.59104 4.49302C7.23731 4.49899 7.89702 4.55795 8.56866 4.6766C8.74552 4.70795 8.91642 4.74377 9.0806 4.78481C10.009 5.01541 10.6963 5.39451 11.1187 5.91317C11.544 6.43481 11.6993 7.09526 11.5604 7.88257C11.5463 7.9669 11.5276 8.05272 11.506 8.14153C11.4858 8.22212 11.4642 8.30123 11.4425 8.37809C11.4201 8.45571 11.3955 8.53481 11.3694 8.61317L11.3485 8.67884L11.2821 8.65944C11.1164 8.60869 10.9463 8.5669 10.7724 8.53332C10.5963 8.49899 10.4157 8.47212 10.2306 8.45347L10.1433 8.44451L10.1709 8.36168ZM10.4119 7.08929C10.4948 7.46541 10.4672 7.87809 10.3313 8.32287C10.491 8.34153 10.647 8.36541 10.7985 8.39451C10.956 8.42511 11.1082 8.46168 11.2567 8.50421C11.2739 8.44974 11.291 8.39451 11.3067 8.33929C11.3291 8.26093 11.35 8.18332 11.3687 8.10795C11.3896 8.02436 11.4075 7.94078 11.4216 7.85869C11.5537 7.11317 11.4082 6.49078 11.0097 6.00123C10.6067 5.50795 9.94552 5.14451 9.04701 4.92138C8.88806 4.88183 8.72015 4.84675 8.54403 4.81541C7.8791 4.69824 7.22687 4.63929 6.5903 4.63332C6.1709 4.62959 5.75672 4.64899 5.34925 4.68929C6.29328 4.76914 7.11343 4.896 7.80448 5.07735C8.66716 5.30347 9.3291 5.61615 9.77761 6.02809C10.1134 6.3363 10.3246 6.69153 10.4119 7.08929Z" fill="#3D107A"/>
<path fill-rule="evenodd" clip-rule="evenodd" d="M11.5582 8.67583C10.3328 8.23031 8.80446 8.2512 7.03058 8.66389C7.05222 9.06613 7.1261 9.43926 7.25073 9.78105C8.27386 9.46837 9.25371 9.30941 10.1888 9.36986C12.6224 9.52583 13.388 10.9676 12.2515 13.1572C11.4082 14.7825 9.84551 16.1288 7.87685 17.3721C10.153 16.3079 11.7798 15.0669 12.7142 13.6199C14.1963 11.3228 13.8485 9.51016 11.5582 8.67583ZM5.75595 9.01389C4.88207 9.28777 3.95894 9.6415 2.99103 10.0676L3.95148 11.1743C4.70073 10.793 5.43058 10.4527 6.14028 10.1728C5.96043 9.81389 5.83207 9.42658 5.75595 9.01389Z" fill="#F6D300"/>
<path d="M11.5343 8.74227C10.9291 8.52212 10.2485 8.4169 9.49999 8.41839C8.76566 8.41914 7.96417 8.52287 7.10447 8.71914C7.11641 8.896 7.1388 9.0669 7.17089 9.23182C7.20298 9.39227 7.24402 9.54675 7.29477 9.69451C7.78805 9.54675 8.27089 9.43481 8.74328 9.36615C9.23731 9.29376 9.72089 9.26914 10.1933 9.29973C10.8455 9.34152 11.3813 9.47436 11.7955 9.68929C12.1627 9.88033 12.4351 10.1348 12.6097 10.4467C12.7836 10.7587 12.8589 11.1259 12.8328 11.5408C12.8015 12.0273 12.6298 12.5811 12.3142 13.19C11.8888 14.0094 11.2821 14.7587 10.5343 15.4594C10.0403 15.9221 9.48507 16.3632 8.8791 16.7893C9.58134 16.4087 10.2075 16.0072 10.756 15.5841C11.5575 14.9647 12.1925 14.2982 12.6545 13.5818C12.9425 13.1356 13.1604 12.7087 13.3075 12.3042C13.5522 11.6326 13.6015 11.0236 13.4515 10.4953C13.303 9.96914 12.9545 9.51988 12.4045 9.16466C12.1552 9.00421 11.8657 8.86317 11.5343 8.74227ZM9.49999 8.27809C10.2649 8.2766 10.9619 8.38406 11.5821 8.61018C11.9239 8.73481 12.2231 8.88033 12.4806 9.04675C13.0612 9.42138 13.4284 9.89749 13.5873 10.4572C13.7455 11.0147 13.6948 11.6527 13.4403 12.3527C13.2888 12.7669 13.0664 13.2035 12.7731 13.6579C12.3022 14.3885 11.656 15.0662 10.8418 15.6953C10.0298 16.3229 9.04925 16.9012 7.90671 17.4356L6.89775 17.9072L7.83954 17.3124C8.82089 16.693 9.69999 16.0482 10.4381 15.3564C11.1746 14.6676 11.7709 13.9303 12.1888 13.1251C12.4963 12.5341 12.6619 11.999 12.6918 11.5318C12.7164 11.1438 12.6478 10.8027 12.4866 10.5154C12.3261 10.2281 12.0731 9.99227 11.7306 9.81466C11.3336 9.60869 10.8172 9.48033 10.1843 9.44003C9.72238 9.41018 9.24775 9.43481 8.76268 9.50496C8.27611 9.57585 7.77835 9.69302 7.27089 9.84899L7.20746 9.86839L7.18432 9.8057C7.12089 9.63108 7.07014 9.44824 7.03283 9.25943C6.99552 9.06988 6.97089 8.87287 6.96044 8.66764L6.95671 8.60869L7.01417 8.59526C7.90596 8.38779 8.73656 8.27884 9.49999 8.27809ZM5.70223 9.10496C5.29104 9.23555 4.8679 9.38406 4.43432 9.54899C4.00149 9.71391 3.55969 9.896 3.10746 10.0938L3.96865 11.087C4.32387 10.9065 4.67835 10.7341 5.03134 10.5721V10.5714C5.37313 10.4147 5.71044 10.2684 6.04402 10.1348C5.96641 9.97436 5.89999 9.80794 5.84253 9.63555C5.78581 9.46391 5.7388 9.2863 5.70223 9.10496ZM4.38358 9.41764C4.84552 9.24152 5.29626 9.08406 5.73507 8.94675L5.81044 8.92287L5.82537 9.00123C5.86268 9.20496 5.91343 9.40197 5.97611 9.59152C6.0388 9.78182 6.11492 9.96466 6.20298 10.1408L6.23731 10.2102L6.16566 10.2378C5.81193 10.3773 5.45372 10.5326 5.09029 10.6997H5.08955C4.72984 10.8654 4.36044 11.0453 3.98358 11.2378L3.93507 11.2624L3.8985 11.2206L2.93805 10.1139L2.87537 10.0415L2.96268 10.0035C3.44775 9.78929 3.92163 9.59376 4.38358 9.41764Z" fill="#3D107A"/>
<path fill-rule="evenodd" clip-rule="evenodd" d="M6.04702 5.86309C6.15448 5.52503 6.27762 5.19742 6.41419 4.87802C6.96866 4.95563 7.46792 5.05563 7.9112 5.17876C7.55225 5.83772 7.30299 6.48623 7.16717 7.12503C6.64777 9.56981 7.53732 11.2765 9.79926 11.9803C10.6993 12.2601 11.6582 12.2922 12.6657 12.1146C12.6284 12.2579 12.5806 12.4049 12.5231 12.5571C11.0955 12.9437 9.68657 12.8683 8.34105 12.2288C5.92687 11.0818 5.12016 8.77205 6.04702 5.86309ZM13.5 11.9235C14.1067 11.7534 14.7291 11.5153 15.3649 11.2153C14.7097 11.6512 14.0522 12.0041 13.3963 12.2646C13.4366 12.1489 13.4709 12.0355 13.5 11.9235ZM6.55523 4.56309C7.36419 2.82951 8.59478 1.36682 10.0605 0.110107L10.9187 1.46533C9.75896 2.56981 8.84478 3.64294 8.19628 4.68772C7.64031 4.60712 7.09254 4.56608 6.55523 4.56309Z" fill="#F6D300"/>
<path d="M5.97986 5.84148C6.03359 5.67133 6.0918 5.50416 6.15374 5.33924C6.21568 5.17207 6.28135 5.00939 6.34926 4.85043L6.37091 4.80043L6.42389 4.8079C6.70076 4.84745 6.96568 4.89148 7.21792 4.94222C7.47016 4.99297 7.70747 5.04894 7.92986 5.11088L8.01494 5.13476L7.9724 5.21237C7.79553 5.53849 7.64479 5.86237 7.52091 6.18476C7.39852 6.50566 7.303 6.82431 7.23583 7.13998C6.97837 8.35118 7.07091 9.37655 7.50822 10.184C7.94106 10.9818 8.7127 11.5683 9.82016 11.9131C10.2642 12.0512 10.7231 12.128 11.1948 12.1482C11.6679 12.1691 12.1545 12.1333 12.6537 12.0452L12.7612 12.0258L12.7336 12.1318C12.7149 12.2057 12.6933 12.2795 12.6687 12.3542C12.644 12.4303 12.6179 12.5064 12.5888 12.5825L12.5761 12.6161L12.5411 12.6251C11.8075 12.8236 11.0784 12.9019 10.3597 12.8452C9.66494 12.7907 8.97986 12.6109 8.31046 12.293C7.09031 11.7124 6.27389 10.8385 5.87837 9.74073C5.4821 8.63998 5.51046 7.3161 5.97986 5.84148ZM6.28508 5.38775C6.22464 5.55118 6.16717 5.71685 6.11419 5.88402C5.65374 7.32804 5.62464 8.62133 6.0112 9.69372C6.39329 10.7549 7.18509 11.6019 8.37091 12.1654C9.02389 12.4758 9.69255 12.6519 10.3709 12.7049C11.062 12.7594 11.7634 12.6863 12.4702 12.4982C12.494 12.434 12.5157 12.3721 12.5351 12.3116C12.547 12.2743 12.5582 12.2385 12.5687 12.2027C12.0985 12.278 11.6381 12.3086 11.1888 12.2892C10.7045 12.2683 10.2336 12.1892 9.77837 12.0474C8.63434 11.6915 7.83434 11.0818 7.38434 10.2512C6.93061 9.41387 6.83359 8.35566 7.09777 7.11088C7.16643 6.78775 7.26419 6.46163 7.38956 6.13476C7.50449 5.83327 7.64404 5.53028 7.80673 5.22357C7.61195 5.17133 7.40598 5.12357 7.19031 5.08028C6.95971 5.03401 6.71568 4.99222 6.45747 4.95491C6.39703 5.09894 6.33956 5.24297 6.28508 5.38775ZM13.4806 11.8557C13.7814 11.7721 14.0866 11.6698 14.3963 11.5519C14.706 11.4348 15.0194 11.3004 15.3351 11.1519L16.2037 10.7422L15.4037 11.2743C15.0731 11.4937 14.7403 11.6937 14.4075 11.8713C14.0791 12.046 13.7508 12.1997 13.4224 12.3303L13.2799 12.387L13.3299 12.2422C13.3485 12.1892 13.3664 12.1325 13.3851 12.0721C13.4022 12.0161 13.4179 11.9609 13.4314 11.9064L13.4418 11.8669L13.4806 11.8557ZM14.4463 11.684C14.1478 11.7974 13.8515 11.8967 13.5575 11.9803C13.5455 12.0243 13.5328 12.0683 13.5194 12.1131H13.5202L13.5105 12.1422C13.7873 12.0266 14.0642 11.8945 14.3411 11.7474C14.3888 11.7221 14.4358 11.696 14.4836 11.6698L14.4463 11.684ZM6.4918 4.53327C6.89852 3.66163 7.4112 2.8579 8.00673 2.11387C8.6015 1.37058 9.27911 0.687 10.0149 0.056403L10.0769 0.00341797L10.1202 0.0720747L10.9784 1.42804L11.009 1.47655L10.9672 1.51685C10.3888 2.06685 9.8724 2.60939 9.41941 3.14446C8.96717 3.67879 8.57837 4.20566 8.25673 4.72506L8.2321 4.76461L8.18658 4.7579C7.9127 4.7176 7.64031 4.68775 7.36941 4.66685C7.09329 4.64596 6.8224 4.63476 6.55523 4.63327L6.44553 4.63252L6.4918 4.53327ZM8.11643 2.20118C7.55076 2.90864 7.06046 3.66984 6.66568 4.49372C6.903 4.49745 7.1418 4.5079 7.37986 4.52655C7.63807 4.54596 7.89852 4.57431 8.1612 4.61163C8.48285 4.09819 8.86717 3.57879 9.31195 3.05342C9.75673 2.52804 10.2634 1.99521 10.8284 1.45491L10.0448 0.216105C9.33882 0.827299 8.68882 1.487 8.11643 2.20118Z" fill="#3D107A"/>
<path fill-rule="evenodd" clip-rule="evenodd" d="M22.2836 6.55563C22.6373 6.63175 22.9015 6.75115 23.0776 6.91757C23.3209 7.14891 23.4425 7.43175 23.4425 7.76607C23.4425 8.02055 23.3627 8.26458 23.2022 8.49667C23.0418 8.72951 22.8216 8.89891 22.5418 9.00563C22.2634 9.11234 21.8366 9.16607 21.2619 9.16607H18.8552V9.02802H19.0455C19.2575 9.02802 19.4097 8.95936 19.5022 8.82428C19.5597 8.73697 19.5881 8.54966 19.5881 8.26458V4.95712C19.5881 4.64145 19.5522 4.44219 19.4799 4.3601C19.3821 4.24891 19.2388 4.19369 19.0455 4.19369H18.8552V4.05488H21.0582C21.4694 4.05488 21.7978 4.08473 22.0463 4.14518C22.4224 4.23622 22.709 4.39593 22.9067 4.62578C23.1045 4.85563 23.2037 5.11906 23.2037 5.41831C23.2037 5.67428 23.1269 5.90264 22.9709 6.10563C22.8157 6.30787 22.5866 6.45787 22.2836 6.55563ZM20.3127 6.34593C20.4052 6.36384 20.5119 6.37727 20.6299 6.38622C20.7493 6.39518 20.8806 6.39891 21.0231 6.39891C21.3896 6.39891 21.6657 6.35861 21.8493 6.281C22.0328 6.2019 22.1746 6.08175 22.2724 5.91831C22.3687 5.75637 22.4172 5.57876 22.4172 5.38622C22.4172 5.08846 22.2955 4.83473 22.0522 4.62428C21.8097 4.41533 21.4552 4.30936 20.9896 4.30936C20.7396 4.30936 20.5134 4.33622 20.3127 4.39145V6.34593ZM20.3127 8.79518C20.6045 8.86309 20.8933 8.89667 21.1776 8.89667C21.6336 8.89667 21.9821 8.79369 22.2209 8.58921C22.4597 8.38548 22.5791 8.13175 22.5791 7.83175C22.5791 7.63324 22.5239 7.44219 22.4119 7.25936C22.3015 7.07578 22.1246 6.93175 21.8813 6.82652C21.6388 6.7213 21.3366 6.66831 20.9784 6.66831C20.8224 6.66831 20.6903 6.6713 20.5799 6.67652C20.4694 6.68175 20.3806 6.6907 20.3127 6.7019V8.79518ZM27.3985 7.46309H25.4187L25.0769 8.26309C24.9918 8.46085 24.9485 8.6101 24.9485 8.70787C24.9485 8.78473 24.9858 8.85413 25.0604 8.91309C25.1336 8.9713 25.294 9.00936 25.5396 9.02802V9.16607H23.9284V9.02802C24.1418 8.9907 24.2791 8.94145 24.3418 8.881C24.4702 8.7601 24.6119 8.51533 24.7672 8.14593L26.5649 3.93921H26.6918L28.4687 8.19145C28.6119 8.53324 28.741 8.75413 28.8582 8.85637C28.9754 8.95787 29.1373 9.01458 29.3463 9.02802V9.16607H27.3321V9.02802C27.5351 9.01757 27.6724 8.98398 27.744 8.92652C27.8164 8.86831 27.8507 8.79742 27.8507 8.71384C27.8507 8.60339 27.8007 8.42876 27.7007 8.18995L27.3985 7.46309ZM27.2828 7.18548L26.4224 5.12279L25.5381 7.18548H27.2828ZM29.3313 4.05488H30.7045L33.8358 7.89294V4.94145C33.8358 4.62727 33.8 4.43025 33.7291 4.3519C33.6358 4.24667 33.4866 4.19369 33.2836 4.19369H33.1037V4.05488H34.9V4.19369H34.7172C34.4978 4.19369 34.3433 4.25936 34.2507 4.3907C34.1955 4.4713 34.1672 4.65563 34.1672 4.94145V9.24891H34.0313L30.6672 5.13175V8.27951C30.6672 8.59443 30.7022 8.79145 30.7702 8.86981C30.8664 8.97503 31.0157 9.02802 31.2172 9.02802H31.4V9.16607H29.6037V9.02802H29.7836C30.0045 9.02802 30.1597 8.96234 30.2522 8.831C30.3075 8.7504 30.3358 8.56607 30.3358 8.27951V4.72578C30.1881 4.55264 30.0754 4.43772 29.9993 4.38249C29.9224 4.32727 29.8104 4.27652 29.6627 4.22727C29.5896 4.20563 29.4791 4.19369 29.3313 4.19369V4.05488ZM37.3037 6.33175L39.1903 8.2019C39.4993 8.51384 39.7627 8.72578 39.9813 8.83772C40.2 8.94891 40.4187 9.01234 40.6366 9.02802V9.16607H38.203V9.02802C38.35 9.02802 38.4537 9.00339 38.5179 8.95413C38.5821 8.90563 38.6142 8.8504 38.6142 8.78996C38.6142 8.72951 38.6015 8.67578 38.5784 8.62801C38.5537 8.58025 38.4754 8.4907 38.3433 8.36085L36.5821 6.61458V8.26458C36.5821 8.52279 36.5985 8.69369 36.6321 8.77578C36.656 8.83846 36.7104 8.89294 36.791 8.93772C36.9 8.99816 37.0157 9.02802 37.1381 9.02802H37.3142V9.16607H35.1246V9.02802H35.306C35.5179 9.02802 35.6709 8.96607 35.7672 8.84369C35.8276 8.76309 35.8567 8.57055 35.8567 8.26458V4.95712C35.8567 4.69891 35.8403 4.52652 35.8082 4.44219C35.7828 4.38175 35.7313 4.32876 35.653 4.28399C35.5425 4.22354 35.4269 4.19369 35.306 4.19369H35.1246V4.05488H37.3142V4.19369H37.1381C37.0187 4.19369 36.903 4.22204 36.791 4.28025C36.7127 4.31981 36.6575 4.38025 36.6284 4.4616C36.597 4.5407 36.5821 4.70637 36.5821 4.95712V6.52503C36.6321 6.47578 36.8037 6.31682 37.097 6.04518C37.8418 5.3616 38.2933 4.90563 38.4485 4.67727C38.5164 4.57578 38.55 4.48846 38.55 4.41234C38.55 4.35488 38.5231 4.30413 38.4701 4.25936C38.4179 4.21607 38.3291 4.19369 38.203 4.19369H38.0873V4.05488H39.9672V4.19369C39.8567 4.19667 39.7567 4.2116 39.6664 4.23996C39.5754 4.26757 39.4649 4.3213 39.3351 4.40115C39.2045 4.48175 39.0433 4.6101 38.8537 4.78772C38.7985 4.83772 38.5425 5.09443 38.0866 5.55861L37.3037 6.33175ZM46.9209 7.75563L47.044 7.78249L46.6052 9.16607H42.65V9.02802H42.8418C43.0575 9.02802 43.2119 8.95787 43.3045 8.81831C43.3567 8.73846 43.3828 8.55339 43.3828 8.26458V4.95712C43.3828 4.63846 43.3478 4.43921 43.2769 4.3601C43.1799 4.24891 43.0343 4.19369 42.8418 4.19369H42.65V4.05488H44.9627V4.19369C44.6918 4.19145 44.5015 4.21607 44.391 4.26831C44.2821 4.31981 44.2075 4.38697 44.1679 4.46533C44.1276 4.54443 44.1075 4.73473 44.1075 5.03399V8.25712C44.1075 8.46607 44.1276 8.60861 44.1679 8.68697C44.197 8.74145 44.2448 8.77951 44.3075 8.80563C44.3694 8.82951 44.5657 8.84294 44.8963 8.84294H45.2687C45.6619 8.84294 45.9366 8.81458 46.0948 8.75637C46.253 8.69891 46.3978 8.59593 46.5291 8.44966C46.659 8.30339 46.7903 8.0713 46.9209 7.75563ZM50.7373 7.46309H48.7575L48.4157 8.26309C48.3306 8.46085 48.2866 8.6101 48.2866 8.70787C48.2866 8.78473 48.3239 8.85413 48.3985 8.91309C48.4716 8.9713 48.6328 9.00936 48.8776 9.02802V9.16607H47.2664V9.02802C47.4799 8.9907 47.6172 8.94145 47.6806 8.881C47.809 8.7601 47.95 8.51533 48.106 8.14593L49.903 3.93921H50.0306L51.8075 8.19145C51.95 8.53324 52.0799 8.75413 52.197 8.85637C52.3134 8.95787 52.4754 9.01458 52.6851 9.02802V9.16607H50.6702V9.02802C50.8731 9.01757 51.0112 8.98398 51.0828 8.92652C51.1545 8.86831 51.1896 8.79742 51.1896 8.71384C51.1896 8.60339 51.1396 8.42876 51.0388 8.18995L50.7373 7.46309ZM50.6216 7.18548L49.7605 5.12279L48.8769 7.18548H50.6216ZM55.9254 9.16607L53.9522 4.86607V8.27951C53.9522 8.59443 53.9866 8.79145 54.0545 8.86981C54.1485 8.97503 54.2978 9.02802 54.5015 9.02802H54.6843V9.16607H52.8881V9.02802H53.0716C53.2903 9.02802 53.444 8.96234 53.5366 8.831C53.5918 8.7504 53.6202 8.56607 53.6202 8.27951V4.94145C53.6202 4.71533 53.5948 4.55115 53.5448 4.45115C53.509 4.37801 53.4433 4.31757 53.3478 4.26757C53.2515 4.21831 53.0985 4.19369 52.8881 4.19369V4.05488H54.353L56.1955 8.05115L58.0209 4.05488H59.4716V4.19369H59.2933C59.0709 4.19369 58.9157 4.25936 58.8231 4.3907C58.7679 4.4713 58.7396 4.65563 58.7396 4.94145V8.27951C58.7396 8.59443 58.7754 8.79145 58.8463 8.86981C58.9396 8.97503 59.0888 9.02802 59.2933 9.02802H59.4716V9.16607H57.2821V9.02802H57.4657C57.6873 9.02802 57.841 8.96234 57.9313 8.831C57.9866 8.7504 58.0149 8.56607 58.0149 8.27951V4.86607L56.0485 9.16607H55.9254ZM61.2075 6.76981V8.26458C61.2075 8.58548 61.2425 8.78473 61.3127 8.8616C61.4082 8.97204 61.5522 9.02802 61.7448 9.02802H61.9403V9.16607H59.7508V9.02802H59.9433C60.159 9.02802 60.3149 8.95712 60.4075 8.81682C60.4575 8.73995 60.4828 8.55488 60.4828 8.26458V4.95712C60.4828 4.63622 60.4493 4.43697 60.3813 4.3601C60.2821 4.24891 60.1373 4.19369 59.9433 4.19369H59.7508V4.05488H61.6239C62.0813 4.05488 62.441 4.10264 62.706 4.19667C62.9694 4.28996 63.1918 4.44966 63.3724 4.67354C63.5537 4.89667 63.644 5.1616 63.644 5.46757C63.644 5.88473 63.506 6.22428 63.2313 6.48473C62.956 6.74592 62.5687 6.87652 62.0657 6.87652C61.9425 6.87652 61.8105 6.86757 61.6679 6.84966C61.5239 6.83324 61.3709 6.80637 61.2075 6.76981ZM61.2075 6.55413C61.3403 6.58025 61.4582 6.59891 61.5612 6.61085C61.6627 6.62354 61.7507 6.63025 61.8231 6.63025C62.0836 6.63025 62.3075 6.52876 62.4963 6.32652C62.6851 6.12503 62.7806 5.86458 62.7806 5.54443C62.7806 5.32354 62.7351 5.11757 62.6455 4.92876C62.5552 4.73996 62.4269 4.59891 62.2627 4.50488C62.097 4.41085 61.909 4.36384 61.7 4.36384C61.5709 4.36384 61.4082 4.38772 61.2075 4.43548V6.55413ZM67.6 4.19369V4.05488H69.3963V4.19369H69.2045C69.0045 4.19369 68.85 4.27727 68.7418 4.44593C68.6896 4.52428 68.6634 4.70413 68.6634 4.98772V7.05936C68.6634 7.57204 68.6134 7.96906 68.5119 8.25189C68.4104 8.53398 68.2105 8.77727 67.9134 8.97876C67.6164 9.18025 67.2127 9.28175 66.7015 9.28175C66.1455 9.28175 65.7224 9.18548 65.4351 8.99145C65.1455 8.79891 64.9418 8.53846 64.8216 8.2116C64.741 7.98846 64.7015 7.56906 64.7015 6.95413V4.95712C64.7015 4.64369 64.6575 4.43772 64.5716 4.3407C64.4851 4.24294 64.3455 4.19369 64.1522 4.19369H63.9612V4.05488H66.1657V4.19369H65.9709C65.7597 4.19369 65.6097 4.26085 65.5194 4.39294C65.4567 4.48324 65.4261 4.67204 65.4261 4.95712V7.18398C65.4261 7.38175 65.444 7.60936 65.4799 7.86607C65.5172 8.12204 65.5828 8.3213 65.6776 8.46458C65.7739 8.60787 65.9112 8.72578 66.0903 8.81981C66.2701 8.9116 66.4896 8.95787 66.7507 8.95787C67.0843 8.95787 67.3843 8.88473 67.647 8.73996C67.9104 8.59443 68.0903 8.40712 68.1873 8.181C68.2836 7.95339 68.3321 7.56831 68.3321 7.02578V4.95712C68.3321 4.63846 68.2978 4.43921 68.2269 4.3601C68.1291 4.24891 67.9843 4.19369 67.791 4.19369H67.6ZM69.3791 4.05488H70.753L73.8843 7.89294V4.94145C73.8843 4.62727 73.8485 4.43025 73.7776 4.3519C73.6836 4.24667 73.5343 4.19369 73.3313 4.19369H73.1515V4.05488H74.9478V4.19369H74.7657C74.5455 4.19369 74.3918 4.25936 74.2993 4.3907C74.244 4.4713 74.2157 4.65563 74.2157 4.94145V9.24891H74.0799L70.7157 5.13175V8.27951C70.7157 8.59443 70.75 8.79145 70.8187 8.86981C70.9149 8.97503 71.0642 9.02802 71.2657 9.02802H71.4478V9.16607H69.6515V9.02802H69.8313C70.053 9.02802 70.2082 8.96234 70.3008 8.831C70.356 8.7504 70.3843 8.56607 70.3843 8.27951V4.72578C70.2366 4.55264 70.1231 4.43772 70.0478 4.38249C69.9701 4.32727 69.859 4.27652 69.7112 4.22727C69.6373 4.20563 69.5269 4.19369 69.3791 4.19369V4.05488ZM79.7754 3.93921L79.906 5.55115H79.7679C79.6351 5.15115 79.4634 4.8504 79.2537 4.64742C78.9508 4.35563 78.5612 4.20936 78.0858 4.20936C77.4381 4.20936 76.9448 4.46607 76.6067 4.98175C76.3239 5.41458 76.1828 5.93249 76.1828 6.53249C76.1828 7.01906 76.2769 7.46309 76.4657 7.86458C76.653 8.26607 76.9 8.5601 77.2045 8.74742C77.509 8.93398 77.8224 9.02802 78.1433 9.02802C78.3313 9.02802 78.5134 9.00339 78.6896 8.95563C78.8642 8.90787 79.0336 8.83772 79.197 8.74369V7.26234C79.197 7.00563 79.1776 6.83697 79.1396 6.75861C79.0993 6.67876 79.0388 6.61831 78.9582 6.57727C78.8761 6.53473 78.7321 6.51458 78.5261 6.51458V6.37578H80.5V6.51458H80.406C80.2112 6.51458 80.0776 6.58025 80.0037 6.71085C79.9537 6.80339 79.9299 6.98697 79.9299 7.26234V8.82876C79.6418 8.98548 79.3567 9.09966 79.0761 9.17279C78.7948 9.24593 78.4828 9.28175 78.1396 9.28175C77.1537 9.28175 76.406 8.96607 75.8948 8.33249C75.5112 7.85861 75.3194 7.3101 75.3194 6.6907C75.3194 6.2407 75.4269 5.80936 75.6433 5.39816C75.8985 4.90861 76.2493 4.53025 76.6955 4.26757C77.0694 4.04891 77.5097 3.93921 78.0202 3.93921C78.2052 3.93921 78.3731 3.95488 78.5254 3.98473C78.6769 4.01533 78.8911 4.081 79.1702 4.18399C79.3105 4.23622 79.4052 4.26309 79.453 4.26309C79.5 4.26309 79.5403 4.24145 79.5746 4.19816C79.6082 4.15413 79.6291 4.06831 79.6366 3.93921H79.7754Z" fill="#0A4390"/>
<path fill-rule="evenodd" clip-rule="evenodd" d="M20.962 12.2348C21.1247 12.2698 21.247 12.325 21.3276 12.4019C21.4396 12.5086 21.4963 12.6385 21.4963 12.7922C21.4963 12.9094 21.4597 13.0221 21.3851 13.1295C21.3112 13.2362 21.2105 13.3146 21.0814 13.3639C20.953 13.4131 20.756 13.4377 20.4918 13.4377H19.3836V13.3736H19.4709C19.5687 13.3736 19.6381 13.3422 19.6814 13.2803C19.7075 13.24 19.7209 13.1534 19.7209 13.0221V11.4989C19.7209 11.3534 19.7038 11.2616 19.6709 11.2236C19.6261 11.1728 19.5597 11.1474 19.4709 11.1474H19.3836V11.0833H20.3978C20.5873 11.0833 20.7388 11.0967 20.853 11.125C21.0261 11.1668 21.1582 11.24 21.2493 11.3459C21.3403 11.4519 21.3858 11.5736 21.3858 11.7116C21.3858 11.8288 21.3508 11.9348 21.2791 12.028C21.2075 12.1206 21.1023 12.19 20.962 12.2348ZM20.0545 12.1385C20.097 12.1467 20.1463 12.1527 20.2008 12.1571C20.2552 12.1609 20.3157 12.1631 20.3814 12.1631C20.55 12.1631 20.6776 12.1445 20.762 12.1086C20.847 12.0721 20.912 12.0168 20.9567 11.9415C21.0015 11.8668 21.0239 11.7855 21.0239 11.6967C21.0239 11.5594 20.9679 11.443 20.856 11.3459C20.7441 11.2489 20.5806 11.2004 20.3664 11.2004C20.2508 11.2004 20.147 11.2131 20.0545 11.2385V12.1385ZM20.0545 13.2668C20.1888 13.2982 20.3217 13.3131 20.453 13.3131C20.6627 13.3131 20.8232 13.2661 20.9336 13.1721C21.0433 13.078 21.0985 12.9609 21.0985 12.8228C21.0985 12.7318 21.0732 12.6437 21.0217 12.5594C20.9702 12.475 20.8888 12.4086 20.7769 12.3601C20.6649 12.3116 20.5261 12.287 20.3612 12.287C20.2896 12.287 20.2284 12.2885 20.1776 12.2907C20.1269 12.293 20.0858 12.2974 20.0545 12.3027V13.2668ZM23.3179 12.6527H22.406L22.2485 13.0213C22.2097 13.1124 22.1896 13.181 22.1896 13.2265C22.1896 13.2616 22.2067 13.2937 22.2411 13.3213C22.2747 13.3474 22.3485 13.3653 22.462 13.3736V13.4377H21.7194V13.3736C21.8179 13.3564 21.8814 13.334 21.9105 13.3064C21.9694 13.2504 22.0344 13.1377 22.106 12.9676L22.9344 11.0303H22.9926L23.8112 12.9885C23.8769 13.1459 23.9366 13.2474 23.9903 13.2952C24.0441 13.3415 24.1187 13.3676 24.2157 13.3736V13.4377H23.2873V13.3736C23.3806 13.3691 23.4441 13.3534 23.4776 13.3273C23.5105 13.3004 23.5269 13.2676 23.5269 13.2295C23.5269 13.178 23.5038 13.0982 23.4575 12.9877L23.3179 12.6527ZM23.2649 12.525L22.8687 11.575L22.4612 12.525H23.2649ZM24.2082 11.0833H24.8411L26.2836 12.8512V11.4915C26.2836 11.3467 26.2664 11.2564 26.2344 11.2198C26.1911 11.1713 26.1224 11.1474 26.0291 11.1474H25.9463V11.0833H26.7732V11.1474H26.6888C26.5881 11.1474 26.5172 11.1773 26.4747 11.2377C26.4493 11.275 26.4358 11.3601 26.4358 11.4915V13.4758H26.3732L24.8239 11.5795V13.0295C24.8239 13.1743 24.8396 13.2646 24.8709 13.3012C24.9157 13.3497 24.9844 13.3736 25.0769 13.3736H25.1612V13.4377H24.3336V13.3736H24.4164C24.5187 13.3736 24.5903 13.3437 24.6329 13.2833C24.6582 13.2459 24.6709 13.1609 24.6709 13.0295V11.3922C24.603 11.3124 24.5508 11.2601 24.5164 11.234C24.4806 11.2086 24.4291 11.1855 24.3612 11.1624C24.3276 11.1527 24.2761 11.1474 24.2082 11.1474V11.0833ZM27.8806 12.1318L28.7493 12.993C28.8918 13.137 29.0135 13.2348 29.1142 13.2862C29.2142 13.3377 29.3149 13.3668 29.4157 13.3736V13.4377H28.2948V13.3736C28.362 13.3736 28.4105 13.3624 28.4396 13.34C28.4694 13.3176 28.4844 13.2922 28.4844 13.2639C28.4844 13.2362 28.4784 13.2116 28.4679 13.19C28.4567 13.1676 28.4202 13.1265 28.359 13.0668L27.5478 12.2624V13.0221C27.5478 13.1415 27.556 13.2198 27.5709 13.2579C27.5821 13.287 27.6067 13.3116 27.6441 13.3325C27.6948 13.3601 27.7478 13.3736 27.8045 13.3736H27.8851V13.4377H26.8769V13.3736H26.9605C27.0582 13.3736 27.1284 13.3452 27.1724 13.2892C27.2008 13.2519 27.2142 13.1631 27.2142 13.0221V11.4989C27.2142 11.3795 27.2067 11.3004 27.1918 11.2616C27.1799 11.234 27.156 11.2094 27.1202 11.1885C27.0694 11.1609 27.0157 11.1474 26.9605 11.1474H26.8769V11.0833H27.8851V11.1474H27.8045C27.7493 11.1474 27.6955 11.1601 27.6441 11.187C27.6082 11.2056 27.5829 11.2333 27.5694 11.2706C27.5552 11.3071 27.5478 11.3833 27.5478 11.4989V12.2206C27.5709 12.1982 27.65 12.125 27.7851 12.0004C28.1284 11.6855 28.3358 11.475 28.4075 11.3698C28.4396 11.3228 28.4545 11.2825 28.4545 11.2482C28.4545 11.2213 28.4426 11.1982 28.4179 11.1773C28.3933 11.1571 28.353 11.1474 28.2948 11.1474H28.2418V11.0833H29.1075V11.1474C29.0567 11.1482 29.0105 11.1556 28.9687 11.1683C28.9269 11.181 28.8761 11.2056 28.8164 11.243C28.756 11.2795 28.6821 11.3392 28.5941 11.4206C28.5687 11.4437 28.4508 11.5624 28.2411 11.7758L27.8806 12.1318ZM29.3373 11.0833H29.9694L31.412 12.8512V11.4915C31.412 11.3467 31.3955 11.2564 31.3627 11.2198C31.3194 11.1713 31.2508 11.1474 31.1575 11.1474H31.0747V11.0833H31.9015V11.1474H31.8179C31.7164 11.1474 31.6455 11.1773 31.603 11.2377C31.5776 11.275 31.5642 11.3601 31.5642 11.4915V13.4758H31.5015L29.9523 11.5795V13.0295C29.9523 13.1743 29.9687 13.2646 30 13.3012C30.0441 13.3497 30.1127 13.3736 30.206 13.3736H30.2896V13.4377H29.4627V13.3736H29.5455C29.647 13.3736 29.7187 13.3437 29.7612 13.2833C29.7866 13.2459 29.8 13.1609 29.8 13.0295V11.3922C29.7321 11.3124 29.6799 11.2601 29.6448 11.234C29.609 11.2086 29.5575 11.1855 29.4896 11.1624C29.456 11.1527 29.4052 11.1474 29.3373 11.1474V11.0833ZM33.6448 11.0833H34.4657V11.1474H34.4209C34.3903 11.1474 34.3463 11.1609 34.2888 11.1877C34.2306 11.2139 34.1784 11.2527 34.1306 11.3027C34.0836 11.3519 34.0254 11.434 33.956 11.5459L33.3903 12.4303V13.0295C33.3903 13.1743 33.4067 13.2646 33.4396 13.3012C33.4836 13.3497 33.5545 13.3736 33.65 13.3736H33.7276V13.4377H32.7194V13.3736H32.8038C32.9045 13.3736 32.9754 13.3437 33.0179 13.2833C33.0433 13.2459 33.0567 13.1609 33.0567 13.0295V12.4788L32.4127 11.4833C32.3366 11.3683 32.2851 11.2967 32.2575 11.2683C32.2306 11.2392 32.1739 11.2049 32.0881 11.1646C32.0649 11.1534 32.0321 11.1474 31.9881 11.1474V11.0833H32.9911V11.1474H32.9396C32.8851 11.1474 32.8344 11.1601 32.7888 11.1855C32.7433 11.2109 32.7202 11.2489 32.7202 11.2997C32.7202 11.3422 32.756 11.4168 32.8269 11.5258L33.3142 12.2848L33.7776 11.5594C33.8478 11.4504 33.8821 11.3691 33.8821 11.3161C33.8821 11.2833 33.8739 11.2542 33.8575 11.2288C33.8403 11.2034 33.8164 11.1833 33.7851 11.1691C33.7538 11.1542 33.7067 11.1474 33.6448 11.1474V11.0833ZM35.7463 12.6527H34.8344L34.6769 13.0213C34.6381 13.1124 34.6179 13.181 34.6179 13.2265C34.6179 13.2616 34.6351 13.2937 34.6694 13.3213C34.703 13.3474 34.7769 13.3653 34.8896 13.3736V13.4377H34.1478V13.3736C34.2463 13.3564 34.3097 13.334 34.3381 13.3064C34.3978 13.2504 34.4627 13.1377 34.5344 12.9676L35.362 11.0303H35.4209L36.2396 12.9885C36.3052 13.1459 36.3649 13.2474 36.4187 13.2952C36.4724 13.3415 36.547 13.3676 36.6433 13.3736V13.4377H35.7157V13.3736C35.809 13.3691 35.8724 13.3534 35.9052 13.3273C35.9388 13.3004 35.9545 13.2676 35.9545 13.2295C35.9545 13.178 35.9314 13.0982 35.8851 12.9877L35.7463 12.6527ZM35.6933 12.525L35.2963 11.575L34.8896 12.525H35.6933ZM38.8276 13.4377L37.9187 11.4571V13.0295C37.9187 13.1743 37.9351 13.2646 37.9664 13.3012C38.0097 13.3497 38.0784 13.3736 38.1724 13.3736H38.256V13.4377H37.4291V13.3736H37.5135C37.6142 13.3736 37.6851 13.3437 37.7276 13.2833C37.753 13.2459 37.7664 13.1609 37.7664 13.0295V11.4915C37.7664 11.3877 37.7545 11.3116 37.7314 11.2653C37.7149 11.2318 37.6844 11.2042 37.6403 11.181C37.5963 11.1586 37.5261 11.1474 37.4291 11.1474V11.0833H38.1038L38.9523 12.9236L39.7933 11.0833H40.4612V11.1474H40.3791C40.2769 11.1474 40.2052 11.1773 40.1627 11.2377C40.1366 11.275 40.1239 11.3601 40.1239 11.4915V13.0295C40.1239 13.1743 40.1403 13.2646 40.1732 13.3012C40.2164 13.3497 40.2851 13.3736 40.3791 13.3736H40.4612V13.4377H39.453V13.3736H39.5373C39.6388 13.3736 39.7105 13.3437 39.7515 13.2833C39.7769 13.2459 39.7903 13.1609 39.7903 13.0295V11.4571L38.8844 13.4377H38.8276ZM42.1597 12.6527H41.2478L41.0903 13.0213C41.0515 13.1124 41.0314 13.181 41.0314 13.2265C41.0314 13.2616 41.0485 13.2937 41.0829 13.3213C41.1164 13.3474 41.1903 13.3653 41.3038 13.3736V13.4377H40.5612V13.3736C40.6597 13.3564 40.7232 13.334 40.7515 13.3064C40.8112 13.2504 40.8761 13.1377 40.9478 12.9676L41.7754 11.0303H41.8344L42.653 12.9885C42.7187 13.1459 42.7784 13.2474 42.8321 13.2952C42.8858 13.3415 42.9605 13.3676 43.0567 13.3736V13.4377H42.1291V13.3736C42.2224 13.3691 42.2858 13.3534 42.3187 13.3273C42.3523 13.3004 42.3679 13.2676 42.3679 13.2295C42.3679 13.178 42.3448 13.0982 42.2985 12.9877L42.1597 12.6527ZM42.1067 12.525L41.7097 11.575L41.303 12.525H42.1067ZM44.7269 11.0303V11.843H44.6635C44.6426 11.687 44.6052 11.5624 44.5515 11.4706C44.4978 11.378 44.4202 11.3049 44.3202 11.2504C44.2209 11.1959 44.1179 11.1683 44.0112 11.1683C43.8911 11.1683 43.7911 11.2056 43.7127 11.2788C43.6336 11.3519 43.5941 11.4362 43.5941 11.5295C43.5941 11.6012 43.6194 11.6668 43.6687 11.7258C43.7411 11.8124 43.9112 11.9288 44.1814 12.0728C44.4015 12.1915 44.5515 12.2818 44.6321 12.3445C44.7127 12.4079 44.7747 12.4818 44.8179 12.5676C44.8612 12.6534 44.8836 12.743 44.8836 12.837C44.8836 13.0153 44.8142 13.1683 44.6761 13.2974C44.5373 13.4265 44.3597 13.4907 44.1426 13.4907C44.0739 13.4907 44.0097 13.4855 43.9493 13.4751C43.9135 13.4691 43.8396 13.4474 43.7261 13.4109C43.6142 13.3743 43.5426 13.3556 43.512 13.3556C43.4829 13.3556 43.4597 13.3646 43.4433 13.3818C43.4269 13.3997 43.4142 13.4355 43.406 13.4907H43.3426V12.6848H43.406C43.4366 12.8534 43.4761 12.9803 43.5276 13.0639C43.5784 13.1474 43.6567 13.2176 43.7612 13.2728C43.8657 13.328 43.9806 13.3556 44.1052 13.3556C44.25 13.3556 44.3649 13.3176 44.4485 13.2415C44.5321 13.1639 44.5746 13.0736 44.5746 12.9698C44.5746 12.9116 44.5582 12.8527 44.5269 12.7937C44.4948 12.7348 44.4463 12.6795 44.3791 12.628C44.3344 12.593 44.2105 12.5198 44.0082 12.4071C43.8067 12.2952 43.6627 12.2056 43.5776 12.1385C43.4926 12.0721 43.4276 11.9974 43.3836 11.9168C43.3396 11.8355 43.3172 11.7459 43.3172 11.6489C43.3172 11.4803 43.3821 11.3348 43.512 11.2131C43.6418 11.0907 43.8075 11.0303 44.0075 11.0303C44.1329 11.0303 44.2657 11.0609 44.406 11.1221C44.4709 11.1512 44.5164 11.1653 44.5433 11.1653C44.5732 11.1653 44.5978 11.1564 44.6172 11.1385C44.6358 11.1198 44.6515 11.0848 44.6635 11.0303H44.7269ZM46.7679 11.0833H47.5888V11.1474H47.5441C47.5142 11.1474 47.4702 11.1609 47.412 11.1877C47.3538 11.2139 47.3023 11.2527 47.2538 11.3027C47.2067 11.3519 47.1485 11.434 47.0791 11.5459L46.5135 12.4303V13.0295C46.5135 13.1743 46.5306 13.2646 46.5627 13.3012C46.6075 13.3497 46.6776 13.3736 46.7739 13.3736H46.8508V13.4377H45.8426V13.3736H45.9269C46.0276 13.3736 46.0985 13.3437 46.1418 13.2833C46.1672 13.2459 46.1799 13.1609 46.1799 13.0295V12.4788L45.5358 11.4833C45.4597 11.3683 45.4082 11.2967 45.3806 11.2683C45.3538 11.2392 45.2978 11.2049 45.212 11.1646C45.1888 11.1534 45.1552 11.1474 45.1112 11.1474V11.0833H46.1149V11.1474H46.0627C46.0082 11.1474 45.9582 11.1601 45.9127 11.1855C45.8672 11.2109 45.8441 11.2489 45.8441 11.2997C45.8441 11.3422 45.8791 11.4168 45.95 11.5258L46.4373 12.2848L46.9015 11.5594C46.9709 11.4504 47.0052 11.3691 47.0052 11.3161C47.0052 11.2833 46.997 11.2542 46.9806 11.2288C46.9635 11.2034 46.9396 11.1833 46.9082 11.1691C46.8769 11.1542 46.8306 11.1474 46.7679 11.1474V11.0833ZM48.8694 12.6527H47.9575L47.8 13.0213C47.7612 13.1124 47.7411 13.181 47.7411 13.2265C47.7411 13.2616 47.7582 13.2937 47.7926 13.3213C47.8261 13.3474 47.9 13.3653 48.0135 13.3736V13.4377H47.2709V13.3736C47.3694 13.3564 47.4329 13.334 47.462 13.3064C47.5209 13.2504 47.5858 13.1377 47.6575 12.9676L48.4858 11.0303H48.5441L49.3627 12.9885C49.4284 13.1459 49.4881 13.2474 49.5418 13.2952C49.5955 13.3415 49.6702 13.3676 49.7672 13.3736V13.4377H48.8388V13.3736C48.9321 13.3691 48.9955 13.3534 49.0291 13.3273C49.062 13.3004 49.0784 13.2676 49.0784 13.2295C49.0784 13.178 49.0553 13.0982 49.009 12.9877L48.8694 12.6527ZM48.8164 12.525L48.4202 11.575L48.0127 12.525H48.8164ZM52.209 13.4377H51.5784L50.7791 12.337C50.7217 12.3392 50.6747 12.3407 50.6388 12.3407C50.6239 12.3407 50.6082 12.34 50.5911 12.3392C50.5739 12.3385 50.5567 12.3377 50.5388 12.337V13.0221C50.5388 13.1698 50.5545 13.2616 50.5873 13.2974C50.6306 13.3482 50.6963 13.3736 50.7844 13.3736H50.8761V13.4377H49.8672V13.3736H49.956C50.0553 13.3736 50.1261 13.3415 50.1687 13.2765C50.1933 13.2415 50.2045 13.1556 50.2045 13.0221V11.4989C50.2045 11.3512 50.1888 11.2594 50.156 11.2236C50.1112 11.1728 50.0441 11.1474 49.956 11.1474H49.8672V11.0833H50.7247C50.9747 11.0833 51.159 11.1019 51.2769 11.1377C51.3963 11.1743 51.497 11.2422 51.5791 11.3392C51.662 11.437 51.703 11.5542 51.703 11.6892C51.703 11.8348 51.656 11.9601 51.562 12.0661C51.4672 12.1728 51.3217 12.2482 51.1232 12.2922L51.6105 12.9668C51.7217 13.1213 51.8172 13.2251 51.897 13.2758C51.9761 13.3273 52.0806 13.3594 52.209 13.3736V13.4377ZM50.5388 12.2265C50.5605 12.2265 50.5791 12.2265 50.5955 12.2273C50.6112 12.228 50.6247 12.2288 50.6344 12.2288C50.8567 12.2288 51.0239 12.1803 51.1366 12.0833C51.2493 11.9855 51.3052 11.8616 51.3052 11.7116C51.3052 11.5646 51.2597 11.4452 51.1694 11.3527C51.0784 11.2609 50.9575 11.2146 50.8082 11.2146C50.7418 11.2146 50.6515 11.2251 50.5388 11.2467V12.2265ZM53.8023 12.6527H52.8903L52.7329 13.0213C52.6941 13.1124 52.6739 13.181 52.6739 13.2265C52.6739 13.2616 52.6911 13.2937 52.7254 13.3213C52.759 13.3474 52.8329 13.3653 52.9463 13.3736V13.4377H52.2038V13.3736C52.3023 13.3564 52.3657 13.334 52.3948 13.3064C52.4538 13.2504 52.5187 13.1377 52.5903 12.9676L53.4187 11.0303H53.4769L54.2955 12.9885C54.3612 13.1459 54.4209 13.2474 54.4747 13.2952C54.5284 13.3415 54.603 13.3676 54.6993 13.3736V13.4377H53.7717V13.3736C53.865 13.3691 53.9284 13.3534 53.962 13.3273C53.9948 13.3004 54.0105 13.2676 54.0105 13.2295C54.0105 13.178 53.9873 13.0982 53.9418 12.9877L53.8023 12.6527ZM53.7493 12.525L53.353 11.575L52.9455 12.525H53.7493ZM55.8 12.1318L56.6694 12.993C56.812 13.137 56.9329 13.2348 57.0336 13.2862C57.1343 13.3377 57.2351 13.3668 57.3358 13.3736V13.4377H56.215V13.3736C56.2821 13.3736 56.3299 13.3624 56.3597 13.34C56.3896 13.3176 56.4038 13.2922 56.4038 13.2639C56.4038 13.2362 56.3978 13.2116 56.3873 13.19C56.3761 13.1676 56.3403 13.1265 56.2791 13.0668L55.4679 12.2624V13.0221C55.4679 13.1415 55.4754 13.2198 55.4911 13.2579C55.5023 13.287 55.5269 13.3116 55.5642 13.3325C55.6142 13.3601 55.6679 13.3736 55.7239 13.3736H55.8052V13.4377H54.797V13.3736H54.8799C54.9776 13.3736 55.0485 13.3452 55.0926 13.2892C55.1202 13.2519 55.1343 13.1631 55.1343 13.0221V11.4989C55.1343 11.3795 55.1261 11.3004 55.1112 11.2616C55.1 11.234 55.0761 11.2094 55.0396 11.1885C54.9888 11.1609 54.9358 11.1474 54.8799 11.1474H54.797V11.0833H55.8052V11.1474H55.7239C55.6687 11.1474 55.6157 11.1601 55.5642 11.187C55.5284 11.2056 55.503 11.2333 55.4888 11.2706C55.4746 11.3071 55.4679 11.3833 55.4679 11.4989V12.2206C55.4911 12.1982 55.5702 12.125 55.7052 12.0004C56.0485 11.6855 56.256 11.475 56.3276 11.3698C56.359 11.3228 56.3746 11.2825 56.3746 11.2482C56.3746 11.2213 56.362 11.1982 56.3381 11.1773C56.3135 11.1571 56.2724 11.1474 56.215 11.1474H56.1612V11.0833H57.0269V11.1474C56.9761 11.1482 56.9299 11.1556 56.8888 11.1683C56.847 11.181 56.7955 11.2056 56.7358 11.243C56.6754 11.2795 56.6015 11.3392 56.5142 11.4206C56.4888 11.4437 56.3709 11.5624 56.1605 11.7758L55.8 12.1318ZM58.9314 12.6527H58.0194L57.862 13.0213C57.8224 13.1124 57.8023 13.181 57.8023 13.2265C57.8023 13.2616 57.8194 13.2937 57.8538 13.3213C57.8881 13.3474 57.962 13.3653 58.0746 13.3736V13.4377H57.3329V13.3736C57.4306 13.3564 57.4941 13.334 57.5232 13.3064C57.5821 13.2504 57.6478 13.1377 57.7194 12.9676L58.547 11.0303H58.6052L59.4239 12.9885C59.4896 13.1459 59.5493 13.2474 59.6038 13.2952C59.6575 13.3415 59.7321 13.3676 59.8284 13.3736V13.4377H58.9V13.3736C58.9941 13.3691 59.0575 13.3534 59.0903 13.3273C59.1232 13.3004 59.1396 13.2676 59.1396 13.2295C59.1396 13.178 59.1164 13.0982 59.0702 12.9877L58.9314 12.6527ZM58.8776 12.525L58.4814 11.575L58.0739 12.525H58.8776ZM61.5306 11.0833L61.556 11.637H61.4903C61.4769 11.54 61.4597 11.4698 61.4381 11.4288C61.4023 11.3616 61.3545 11.3116 61.2948 11.2803C61.2351 11.2482 61.1567 11.2325 61.0597 11.2325H60.7284V13.0295C60.7284 13.1743 60.7441 13.2646 60.7754 13.3012C60.8187 13.3497 60.8866 13.3736 60.9776 13.3736H61.059V13.4377H60.0575V13.3736H60.1418C60.2426 13.3736 60.3135 13.3437 60.356 13.2833C60.3814 13.2459 60.3948 13.1609 60.3948 13.0295V11.2325H60.1127C60.0023 11.2325 59.9239 11.2407 59.8776 11.2571C59.8179 11.2788 59.7664 11.3206 59.7232 11.3833C59.6806 11.4459 59.6552 11.5303 59.647 11.637H59.5814L59.606 11.0833H61.5306ZM64.506 12.7877L64.5627 12.8004L64.3605 13.4377H62.5388V13.3736H62.6269C62.7261 13.3736 62.797 13.3415 62.8403 13.2773C62.8642 13.2407 62.8761 13.1556 62.8761 13.0221V11.4989C62.8761 11.3519 62.8597 11.2601 62.8276 11.2236C62.7829 11.1728 62.7157 11.1474 62.6269 11.1474H62.5388V11.0833H63.6038V11.1474C63.4791 11.1459 63.3918 11.1571 63.3403 11.1818C63.2903 11.2056 63.256 11.2362 63.2373 11.2721C63.2194 11.3086 63.2097 11.3967 63.2097 11.534V13.0183C63.2097 13.1153 63.2194 13.181 63.2373 13.2168C63.2515 13.2415 63.2732 13.2594 63.3023 13.2713C63.3306 13.2825 63.4209 13.2885 63.5732 13.2885H63.7448C63.9261 13.2885 64.0523 13.2758 64.1254 13.2489C64.1985 13.2221 64.2649 13.175 64.3254 13.1071C64.3851 13.04 64.4455 12.9333 64.506 12.7877ZM66.2635 12.6527H65.3515L65.1941 13.0213C65.1553 13.1124 65.1351 13.181 65.1351 13.2265C65.1351 13.2616 65.1523 13.2937 65.1866 13.3213C65.2202 13.3474 65.2941 13.3653 65.4075 13.3736V13.4377H64.6649V13.3736C64.7635 13.3564 64.8269 13.334 64.856 13.3064C64.9149 13.2504 64.9799 13.1377 65.0515 12.9676L65.8799 11.0303H65.9381L66.7567 12.9885C66.8224 13.1459 66.8821 13.2474 66.9358 13.2952C66.9896 13.3415 67.0642 13.3676 67.1605 13.3736V13.4377H66.2329V13.3736C66.3261 13.3691 66.3896 13.3534 66.4224 13.3273C66.456 13.3004 66.4717 13.2676 66.4717 13.2295C66.4717 13.178 66.4485 13.0982 66.4023 12.9877L66.2635 12.6527ZM66.2105 12.525L65.8135 11.575L65.4067 12.525H66.2105ZM68.653 13.4377L67.7441 11.4571V13.0295C67.7441 13.1743 67.7605 13.2646 67.7918 13.3012C67.8351 13.3497 67.9038 13.3736 67.9978 13.3736H68.0814V13.4377H67.2545V13.3736H67.3388C67.4396 13.3736 67.5105 13.3437 67.553 13.2833C67.5784 13.2459 67.5918 13.1609 67.5918 13.0295V11.4915C67.5918 11.3877 67.5799 11.3116 67.5567 11.2653C67.5403 11.2318 67.5097 11.2042 67.4664 11.181C67.4217 11.1586 67.3515 11.1474 67.2545 11.1474V11.0833H67.9291L68.7776 12.9236L69.6187 11.0833H70.2866V11.1474H70.2045C70.1023 11.1474 70.0306 11.1773 69.9881 11.2377C69.9627 11.275 69.9493 11.3601 69.9493 11.4915V13.0295C69.9493 13.1743 69.9657 13.2646 69.9985 13.3012C70.0418 13.3497 70.1105 13.3736 70.2045 13.3736H70.2866V13.4377H69.2784V13.3736H69.3627C69.465 13.3736 69.5358 13.3437 69.5769 13.2833C69.6023 13.2459 69.6157 13.1609 69.6157 13.0295V11.4571L68.7105 13.4377H68.653ZM71.0866 12.334V13.0221C71.0866 13.1698 71.1023 13.2616 71.1351 13.2974C71.1784 13.3482 71.2448 13.3736 71.3336 13.3736H71.4239V13.4377H70.4149V13.3736H70.5038C70.603 13.3736 70.6746 13.3415 70.7179 13.2765C70.7403 13.2415 70.7523 13.1556 70.7523 13.0221V11.4989C70.7523 11.3512 70.7373 11.2594 70.706 11.2236C70.6605 11.1728 70.5933 11.1474 70.5038 11.1474H70.4149V11.0833H71.2776C71.4888 11.0833 71.6545 11.1049 71.7761 11.1482C71.8978 11.1915 72 11.2653 72.0836 11.3683C72.1672 11.4713 72.2082 11.593 72.2082 11.734C72.2082 11.9258 72.1448 12.0825 72.0187 12.2027C71.8918 12.3228 71.7127 12.3833 71.4814 12.3833C71.4247 12.3833 71.3635 12.3788 71.2978 12.3706C71.2321 12.3631 71.1612 12.3504 71.0866 12.334ZM71.0866 12.2348C71.147 12.2459 71.2015 12.2549 71.2493 12.2601C71.2955 12.2661 71.3366 12.2691 71.3694 12.2691C71.4896 12.2691 71.5926 12.2228 71.6799 12.1295C71.7664 12.037 71.8105 11.9168 71.8105 11.7691C71.8105 11.6676 71.7896 11.5728 71.7485 11.4855C71.7067 11.3989 71.6478 11.334 71.5724 11.2907C71.4955 11.2474 71.409 11.225 71.3127 11.225C71.2538 11.225 71.1784 11.237 71.0866 11.2586V12.2348ZM74.0306 11.1474V11.0833H74.8582V11.1474H74.7694C74.6776 11.1474 74.606 11.1855 74.5567 11.2631C74.5321 11.2997 74.5202 11.3825 74.5202 11.5131V12.4668C74.5202 12.7034 74.4978 12.8862 74.4508 13.0161C74.4038 13.1467 74.3112 13.2586 74.1746 13.3512C74.0381 13.4445 73.8523 13.4907 73.6172 13.4907C73.3605 13.4907 73.1657 13.4467 73.0336 13.3571C72.9 13.2683 72.806 13.1482 72.7508 12.9982C72.7135 12.8952 72.6955 12.7019 72.6955 12.4183V11.4989C72.6955 11.3542 72.6754 11.2601 72.6358 11.2146C72.5963 11.1698 72.5314 11.1474 72.4426 11.1474H72.3545V11.0833H73.3702V11.1474H73.2799C73.1829 11.1474 73.1135 11.178 73.0724 11.2392C73.0433 11.2803 73.0291 11.3676 73.0291 11.4989V12.5243C73.0291 12.6153 73.0373 12.7206 73.0538 12.8385C73.0709 12.9564 73.1015 13.0482 73.1455 13.1146C73.1896 13.1803 73.253 13.2348 73.3351 13.278C73.4179 13.3206 73.5194 13.3415 73.6396 13.3415C73.7933 13.3415 73.9314 13.3079 74.0523 13.2415C74.1739 13.1743 74.2567 13.0877 74.3008 12.984C74.3455 12.8788 74.3679 12.7012 74.3679 12.4519V11.4989C74.3679 11.3519 74.3515 11.2601 74.3194 11.2236C74.2747 11.1728 74.2075 11.1474 74.1187 11.1474H74.0306ZM74.85 11.0833H75.4829L76.9254 12.8512V11.4915C76.9254 11.3467 76.9082 11.2564 76.8761 11.2198C76.8329 11.1713 76.7642 11.1474 76.6709 11.1474H76.5881V11.0833H77.415V11.1474H77.3314C77.2299 11.1474 77.159 11.1773 77.1164 11.2377C77.0911 11.275 77.0776 11.3601 77.0776 11.4915V13.4758H77.015L75.4657 11.5795V13.0295C75.4657 13.1743 75.4814 13.2646 75.5127 13.3012C75.5575 13.3497 75.6261 13.3736 75.7187 13.3736H75.803V13.4377H74.9754V13.3736H75.0582C75.1605 13.3736 75.2321 13.3437 75.2747 13.2833C75.3 13.2459 75.3127 13.1609 75.3127 13.0295V11.3922C75.2448 11.3124 75.1926 11.2601 75.1582 11.234C75.1224 11.2086 75.0709 11.1855 75.003 11.1624C74.9694 11.1527 74.9179 11.1474 74.85 11.1474V11.0833ZM79.6388 11.0303L79.6993 11.7721H79.6351C79.5739 11.5885 79.4948 11.4497 79.3985 11.3564C79.2582 11.2221 79.0791 11.1542 78.8605 11.1542C78.562 11.1542 78.3351 11.2728 78.1791 11.5101C78.0485 11.7094 77.9836 11.9482 77.9836 12.2243C77.9836 12.4489 78.0269 12.6527 78.1142 12.8377C78.2008 13.0228 78.3142 13.1586 78.4545 13.2445C78.5948 13.3303 78.7388 13.3736 78.8866 13.3736C78.9732 13.3736 79.0575 13.3624 79.1381 13.3407C79.2187 13.3183 79.297 13.2862 79.3724 13.243V12.5609C79.3724 12.4422 79.3635 12.3646 79.3455 12.3288C79.3276 12.2922 79.2993 12.2639 79.262 12.2452C79.2239 12.2258 79.1582 12.2161 79.0635 12.2161V12.1519H79.9724V12.2161H79.9291C79.8388 12.2161 79.7776 12.2459 79.7441 12.3064C79.7209 12.3489 79.7097 12.434 79.7097 12.5609V13.2818C79.5769 13.3542 79.4455 13.4071 79.3164 13.4407C79.1873 13.4743 79.0433 13.4907 78.8851 13.4907C78.4314 13.4907 78.0866 13.3452 77.8515 13.0534C77.6747 12.8348 77.5858 12.5825 77.5858 12.2974C77.5858 12.09 77.6358 11.8915 77.7351 11.7019C77.853 11.4765 78.0149 11.3027 78.2202 11.181C78.3918 11.0803 78.5948 11.0303 78.8299 11.0303C78.9149 11.0303 78.9926 11.037 79.0627 11.0512C79.1329 11.0653 79.2314 11.0952 79.3597 11.143C79.4246 11.1668 79.4679 11.1795 79.4903 11.1795C79.512 11.1795 79.5299 11.1691 79.5463 11.1489C79.5612 11.1288 79.5709 11.0892 79.5746 11.0303H79.6388Z" fill="#DD1717"/>
</g>
</g>
<defs>
<clipPath id="clip0_801_8434">
<rect width="80" height="17.9104" fill="white" transform="translate(0.5)"/>
</clipPath>
<clipPath id="clip1_801_8434">
<rect width="80" height="17.9104" fill="white" transform="translate(0.5)"/>
</clipPath>
</defs>
</svg>
