<svg width="81" height="24" viewBox="0 0 81 24" fill="none" xmlns="http://www.w3.org/2000/svg">
<g clip-path="url(#clip0_801_8488)">
<path d="M38.1284 15.1105C38.1284 15.1105 37.7331 13.4334 38.327 11.8965C38.8546 10.5293 40.4933 10.6733 41.1332 11.4408C41.6129 12.0164 41.8767 12.9278 41.9007 14.3429C41.9007 14.3429 43.3571 13.3317 42.9081 10.7673C42.5003 8.43883 39.1904 7.69913 37.6314 9.47401L37.0529 13.8632L38.1284 15.1105Z" fill="#72BB38"/>
<path d="M41.6129 7.21944C41.6129 7.21944 40.5336 5.56448 38.4229 7.55523C36.3123 9.54597 37.0884 13.1811 37.8041 13.6416C37.8041 13.6416 37.4837 8.68251 41.6129 7.21944Z" fill="#9EC92A"/>
<path d="M38.3913 0C38.3913 0 39.3823 1.55902 39.4303 4.10141C39.4782 6.6438 38.6148 8.3947 38.279 9.61792C37.9432 10.8412 36.9359 14.5108 39.2144 16.8613C39.2144 16.8613 38.7587 17.0053 38.1351 16.4056C37.5115 15.806 35.3692 13.1437 35.5447 10.0496C35.7366 6.66779 39.0465 3.45382 38.3913 0Z" fill="#E6E400"/>
<path d="M44.3616 4.72405C43.5614 4.1465 42.579 3.92872 41.5333 4.02753C42.3372 4.02945 43.0904 4.24436 43.7245 4.70199C45.8812 6.25813 45.8381 10.0046 43.6267 13.0689C41.4153 16.1332 37.8741 17.3554 35.7174 15.7983C33.814 14.4254 33.625 11.3468 35.1264 8.53669C33.0311 11.8763 33.0599 15.6928 35.2886 17.2998C37.6544 19.0075 41.6043 17.5761 44.1102 14.1031C46.6161 10.6301 46.7293 6.43082 44.3635 4.7231L44.3616 4.72405Z" fill="#E62129"/>
<path d="M4.10732 5.3726C4.65321 5.3726 5.09262 5.40043 5.42649 5.45607C5.76036 5.51172 6.05777 5.61053 6.32064 5.75157C6.7351 5.96359 7.05554 6.24182 7.28291 6.58528C7.51029 6.92874 7.6235 7.3077 7.6235 7.72216C7.6235 8.06562 7.54291 8.38702 7.38077 8.68443C7.21863 8.9828 6.99126 9.22745 6.69864 9.41933C6.6075 9.47977 6.51636 9.53541 6.42617 9.58626C6.33503 9.63711 6.1988 9.70235 6.01651 9.78294C6.30817 9.86353 6.53651 9.93452 6.70248 9.99496C6.86846 10.0554 7.03635 10.137 7.20712 10.2377C7.659 10.49 8.00821 10.8239 8.25478 11.2383C8.50038 11.6528 8.62415 12.1075 8.62415 12.6026C8.62415 13.2089 8.44474 13.7673 8.08689 14.2777C7.72903 14.7881 7.23782 15.1901 6.6123 15.4827C6.44057 15.5633 6.26404 15.6324 6.08271 15.687C5.90139 15.7427 5.70471 15.7859 5.49268 15.8156C5.28066 15.8463 5.04369 15.8713 4.78177 15.8914C4.51986 15.9115 4.22245 15.9221 3.88954 15.9221H0.5C0.651584 15.8415 0.772468 15.7532 0.86361 15.6573C0.954753 15.5614 1.02479 15.4376 1.07564 15.286C1.12648 15.1344 1.16102 14.9474 1.18213 14.7248C1.20228 14.5022 1.21283 14.2192 1.21283 13.8757V7.43434C1.21283 7.09088 1.20228 6.80786 1.18213 6.58528C1.16198 6.3627 1.12648 6.17562 1.07564 6.02403C1.02479 5.87245 0.954753 5.74869 0.86361 5.65275C0.772468 5.55681 0.651584 5.46854 0.5 5.38796H3.05391C3.20069 5.38796 3.3849 5.38316 3.60748 5.3726H4.10732ZM2.77376 9.63231C2.91479 9.65246 3.02896 9.66301 3.11435 9.66301H3.3801C4.13802 9.66301 4.74915 9.50951 5.21446 9.20059C5.67881 8.89262 5.91194 8.48104 5.91194 7.96489C5.91194 7.48999 5.72486 7.10815 5.35069 6.82033C4.97653 6.53251 4.48628 6.3886 3.87994 6.3886C3.71781 6.3886 3.55663 6.39628 3.39449 6.41163C3.23235 6.42698 3.02512 6.4548 2.7728 6.4951L2.77376 9.63231ZM2.77376 14.649C3.06638 14.7094 3.31198 14.7497 3.50866 14.7699C3.70533 14.79 3.93079 14.8006 4.18311 14.8006C5.04177 14.8006 5.70087 14.6288 6.16138 14.2854C6.62093 13.9419 6.85119 13.4517 6.85119 12.8146C6.85119 12.1171 6.60366 11.577 6.10862 11.1923C5.84574 10.9899 5.55505 10.8459 5.23749 10.7606C4.91897 10.6752 4.50259 10.632 3.9874 10.632C3.77537 10.632 3.58061 10.6368 3.40408 10.6474C3.22756 10.6579 3.01745 10.6781 2.77472 10.7078L2.77376 14.649Z" fill="#00824A"/>
<path d="M13.7473 11.9214C13.6053 11.9819 13.4873 12.0327 13.3914 12.073C13.2954 12.1133 13.1813 12.1536 13.0508 12.1939C12.9194 12.2342 12.7495 12.2802 12.5433 12.3301C12.336 12.381 12.0559 12.4462 11.7019 12.5268C10.9334 12.7091 10.5496 13.1178 10.5496 13.7548C10.5496 14.1693 10.6993 14.4897 10.9996 14.7171C11.2989 14.9445 11.7182 15.0577 12.2564 15.0577C12.4598 15.0577 12.645 15.0423 12.8119 15.0126C12.9798 14.9819 13.1957 14.9272 13.4595 14.8457L12.5193 16.043C12.3476 16.0833 12.2008 16.1082 12.0799 16.1188C11.959 16.1284 11.8122 16.1341 11.6405 16.1341C10.8317 16.1341 10.2004 15.9269 9.74568 15.5115C9.4828 15.2783 9.28037 15.0049 9.13934 14.6912C8.99735 14.3775 8.92731 14.058 8.92731 13.7337C8.92731 13.4094 9.0079 13.0852 9.16908 12.7916C9.33026 12.498 9.54708 12.2754 9.81859 12.1229C9.92988 12.0625 10.045 12.0068 10.1659 11.956C10.2868 11.9051 10.4278 11.8543 10.589 11.8044C10.7502 11.7535 10.9363 11.7056 11.1483 11.6605C11.3594 11.6154 11.6165 11.5617 11.9187 11.5012C12.2708 11.4302 12.5634 11.3621 12.7946 11.2959C13.0258 11.2297 13.21 11.1539 13.3463 11.0685C13.4825 10.9822 13.5775 10.8862 13.6331 10.7797C13.6888 10.6733 13.7166 10.5495 13.7166 10.4075C13.7166 10.1034 13.5756 9.85777 13.2926 9.67069C13.0105 9.48361 12.6421 9.38959 12.1873 9.38959C12.0156 9.38959 11.8544 9.40014 11.7028 9.42029C11.5513 9.44139 11.3949 9.47497 11.2337 9.52102C11.0725 9.56803 10.8931 9.63519 10.6964 9.7225C10.4998 9.81076 10.2705 9.91629 10.0076 10.041L11.0706 8.43403C11.3037 8.38318 11.4927 8.35344 11.6395 8.34289C11.7863 8.33329 11.9657 8.32754 12.1787 8.32754C13.5353 8.32754 14.4362 8.68635 14.8823 9.40398C14.9533 9.51527 15.0089 9.61888 15.0492 9.71482C15.0895 9.81076 15.1202 9.92685 15.1403 10.0631C15.1605 10.1993 15.1758 10.3663 15.1864 10.5629C15.196 10.7596 15.2017 11.01 15.2017 11.3132V13.3749C15.2017 13.6071 15.2065 13.797 15.2171 13.9429C15.2267 14.0897 15.2449 14.2086 15.2699 14.2988C15.2948 14.3899 15.3351 14.4686 15.3907 14.5339C15.4464 14.6001 15.5193 14.6624 15.6105 14.7229C15.7217 14.814 15.8503 14.8773 15.9971 14.9119C16.1439 14.9474 16.3329 14.9704 16.565 14.98L15.8676 16.0257C15.4637 15.995 15.1538 15.9547 14.9398 15.9048C14.7259 15.854 14.5311 15.7734 14.3584 15.6621C14.2356 15.5911 14.1339 15.5105 14.0524 15.4194C13.9708 15.3282 13.9066 15.2198 13.8615 15.0932C13.8154 14.9665 13.7847 14.815 13.7694 14.6384C13.754 14.4619 13.7463 14.2422 13.7463 13.9793V11.9176L13.7473 11.9214Z" fill="#00824A"/>
<path d="M18.3706 9.57187C18.7534 9.11712 19.1238 8.79668 19.4816 8.6096C19.8395 8.42252 20.2549 8.32946 20.7288 8.32946C21.2421 8.32946 21.7208 8.43307 22.1641 8.6403C22.6073 8.84753 22.945 9.12288 23.1772 9.46634C23.2472 9.57763 23.3077 9.69659 23.3585 9.82227C23.4084 9.94891 23.4487 10.0947 23.4794 10.2617C23.5101 10.4286 23.5302 10.6234 23.5398 10.845C23.5494 11.0676 23.5552 11.3304 23.5552 11.6336V14.3468C23.5552 14.6096 23.56 14.8169 23.5705 14.9685C23.5801 15.12 23.606 15.2486 23.6463 15.3551C23.6866 15.4616 23.7471 15.5547 23.8286 15.6352C23.9092 15.7158 24.0205 15.8118 24.1625 15.9231H21.4944C21.6326 15.8118 21.7429 15.7158 21.8273 15.6352C21.9108 15.5547 21.9731 15.4606 22.0125 15.3551C22.0518 15.2486 22.0768 15.1181 22.0864 14.9608C22.096 14.8044 22.1017 14.6001 22.1017 14.3468V11.8005C22.1017 11.3765 22.0768 11.0455 22.0269 10.8076C21.977 10.5706 21.8868 10.3653 21.7563 10.1936C21.5961 9.99113 21.3706 9.82707 21.08 9.70139C20.7893 9.57475 20.4832 9.51239 20.1628 9.51239C19.8423 9.51239 19.5488 9.57571 19.283 9.70139C19.0173 9.82803 18.8091 9.99688 18.6594 10.2089C18.5788 10.3202 18.5241 10.4411 18.4934 10.5725C18.4637 10.704 18.4483 10.8862 18.4483 11.1184V14.3468C18.4483 14.6096 18.4531 14.8169 18.4627 14.9685C18.4723 15.12 18.4973 15.2486 18.5366 15.3551C18.5759 15.4616 18.6354 15.5547 18.7141 15.6352C18.7928 15.7158 18.9012 15.8118 19.0393 15.9231H16.3866C16.5276 15.8118 16.6389 15.7158 16.7205 15.6352C16.8011 15.5547 16.8615 15.4606 16.9028 15.3551C16.943 15.2486 16.968 15.12 16.9785 14.9685C16.9881 14.8169 16.9939 14.6096 16.9939 14.3468V10.1178C16.9939 9.86545 16.9891 9.6611 16.9785 9.50375C16.968 9.34737 16.943 9.21594 16.9028 9.10944C16.8625 9.00295 16.802 8.90989 16.7205 8.8293C16.6399 8.74871 16.5286 8.65277 16.3866 8.54148H17.4218C17.6568 8.54148 17.8458 8.51846 17.9888 8.47337C18.1317 8.42827 18.2593 8.3496 18.3716 8.23831L18.3706 9.57187Z" fill="#00824A"/>
<path d="M25.6668 5.38796C25.9019 5.38796 26.0909 5.36493 26.2338 5.31984C26.3768 5.27475 26.5044 5.19608 26.6166 5.08479V14.3458C26.6166 14.6087 26.6214 14.8159 26.632 14.9675C26.6416 15.1191 26.6675 15.2476 26.7078 15.3541C26.7481 15.4606 26.8085 15.5537 26.89 15.6343C26.9706 15.7149 27.0819 15.8108 27.2239 15.9221H24.5558C24.6969 15.8108 24.8082 15.7149 24.8897 15.6343C24.9703 15.5537 25.0307 15.4597 25.072 15.3541C25.1123 15.2476 25.1372 15.1191 25.1478 14.9675C25.1574 14.8159 25.1631 14.6087 25.1631 14.3458V6.96424C25.1631 6.70137 25.1583 6.49414 25.1478 6.34255C25.1372 6.19097 25.1123 6.06241 25.072 5.95592C25.0317 5.84942 24.9713 5.75636 24.8897 5.67577C24.8091 5.59518 24.6978 5.49924 24.5558 5.38796H25.6668ZM28.4961 11.6326C28.6572 11.8351 28.9105 12.1536 29.254 12.5872C29.5975 13.0219 30.0321 13.5821 30.5578 14.27C30.7497 14.5127 30.9118 14.7171 31.0433 14.884C31.1747 15.051 31.2985 15.192 31.4145 15.3081C31.5306 15.4242 31.6467 15.5307 31.7628 15.6266C31.8789 15.7225 32.0132 15.8214 32.1648 15.9221C31.9624 15.9422 31.7484 15.9547 31.521 15.9595C31.2937 15.9643 31.0788 15.9672 30.8773 15.9672C30.6653 15.9672 30.4906 15.9566 30.3544 15.9365C30.2182 15.9163 30.0915 15.8713 29.9755 15.8003C29.8594 15.7293 29.7481 15.6333 29.6416 15.5124C29.5351 15.3916 29.4065 15.2246 29.2549 15.0126C29.0429 14.7094 28.8328 14.4111 28.6256 14.1184C28.4184 13.8258 28.1987 13.5275 27.9665 13.2243C27.8149 13.0123 27.6662 12.805 27.5194 12.6026C27.3726 12.4002 27.2191 12.2083 27.057 12.027C27.0368 11.9867 27.0119 11.9492 26.9812 11.9138C26.9505 11.8783 26.9207 11.8408 26.89 11.7996L28.3454 10.1926C28.6083 9.90958 28.7925 9.68028 28.899 9.5028C29.0055 9.32627 29.0583 9.17181 29.0583 9.04037C29.0583 8.88878 28.9518 8.72185 28.7398 8.54052H31.1805L28.498 11.6326H28.4961Z" fill="#00824A"/>
<path d="M52.2862 15.9979C52.527 15.9269 52.8253 15.7571 52.9961 15.4165C53.1659 15.0759 53.1381 14.7919 53.0105 14.4379L52.4425 12.7206H49.2219L48.6405 14.4235C48.5272 14.7785 48.4841 15.0903 48.6261 15.4165C48.7824 15.7715 49.123 15.9279 49.3638 15.9979H45.7594C45.9292 15.8559 46.0146 15.7283 46.1566 15.5585C46.3696 15.3033 46.5394 15.1325 46.667 14.8063L49.4905 6.63325C49.5327 6.49126 49.5615 6.40587 49.5471 6.26484C49.5471 5.78227 49.2065 5.38508 48.8093 5.25748H52.9098L56.258 14.5089C56.3856 14.8495 56.5276 15.0337 56.7406 15.3177C56.9536 15.6017 57.109 15.7571 57.3796 15.9989L52.2862 15.9979ZM50.7962 8.0378L49.6613 11.1597H51.9312L50.7962 8.0378Z" fill="#00824A"/>
<path d="M63.2434 15.6151L62.5334 15.8415C61.7813 16.0833 61.0867 16.1821 60.4477 16.1821C58.3332 16.1821 56.4605 14.8485 56.4605 12.4788C56.4605 10.1091 57.936 8.4772 60.9303 8.46377C61.2143 8.46377 61.5117 8.47816 61.8101 8.50599L62.8174 8.60576V10.4219L62.1084 10.0813C61.8101 9.93932 61.4273 9.88272 61.0588 9.88272C60.0227 9.88272 59.4979 10.8335 59.4979 12.096C59.4979 13.8268 60.4487 14.6356 61.6259 14.6356C62.0653 14.6356 62.5056 14.5223 62.9028 14.3094L63.7538 13.8268L63.2434 15.6151Z" fill="#00824A"/>
<path d="M70.9195 15.7293L70.1817 15.9566C69.5859 16.1408 68.947 16.255 68.2946 16.255C65.6131 16.255 63.7538 14.8927 63.7538 12.4808C63.7538 9.72825 65.7119 8.3803 67.741 8.3803C69.3873 8.3803 71.0749 9.42988 71.3311 11.317L71.4731 12.3666H66.4785L66.5351 12.8492C66.6627 14.0973 68.096 14.7507 68.8616 14.7507C69.6848 14.7363 70.4791 14.4101 70.7487 14.2825L71.5009 13.9419L70.9195 15.7293ZM67.6134 9.8405C67.032 9.8405 66.5351 10.3087 66.5063 11.0042H68.7484C68.7484 10.3087 68.2092 9.8405 67.6134 9.8405Z" fill="#00824A"/>
<path d="M76.4696 15.9979C76.7248 15.8281 76.8524 15.6861 76.9944 15.4021C77.1076 15.1469 77.1076 14.9627 77.1076 14.6787V10.9611C77.1076 10.4363 76.6538 10.0103 76.128 10.0103C75.6033 10.0247 75.1773 10.4363 75.1773 10.9467V14.5933C75.1773 14.7775 75.1629 15.2035 75.3337 15.5153C75.4613 15.7283 75.5889 15.8559 75.7875 15.9979L71.829 15.9835C72.0564 15.8271 72.1696 15.6995 72.2828 15.4443C72.4248 15.1603 72.4104 14.9617 72.4104 14.6499V6.32145C72.4104 6.09407 72.3682 5.96647 72.2684 5.76788C72.1552 5.5405 72.041 5.39947 71.8146 5.25748H74.3829C74.5815 5.25748 74.6947 5.20087 74.8799 5.12988C74.9931 5.07327 75.0641 5.04449 75.1782 4.98789V8.97513C75.774 8.50694 76.3132 8.35056 77.2496 8.35056C78.4555 8.35056 79.8745 9.18811 79.8745 10.3509V14.6499C79.8745 15.0183 79.8745 15.2601 80.0731 15.5575C80.1863 15.7705 80.3139 15.8837 80.499 15.9969L76.4696 15.9979Z" fill="#00824A"/>
<path d="M13.9363 21.6036C13.9363 21.6957 13.9392 21.7706 13.944 21.83C13.9497 21.8895 13.9584 21.9394 13.9728 21.9797C13.9862 22.02 14.0054 22.0536 14.0294 22.0785C14.0534 22.1044 14.086 22.1275 14.1263 22.1495H13.3127C13.353 22.1284 13.3856 22.1044 13.4096 22.0785C13.4336 22.0526 13.4528 22.02 13.4662 21.9797C13.4796 21.9394 13.4892 21.8895 13.494 21.83C13.4998 21.7706 13.5017 21.6948 13.5017 21.6036V19.8834C13.5017 19.7923 13.4988 19.7165 13.494 19.657C13.4883 19.5975 13.4796 19.5476 13.4662 19.5074C13.4528 19.4671 13.4336 19.4335 13.4096 19.4085C13.3856 19.3826 13.353 19.3596 13.3127 19.3375H14.1263C14.086 19.3596 14.0534 19.3826 14.0294 19.4085C14.0054 19.4344 13.9862 19.4671 13.9728 19.5074C13.9593 19.5476 13.9497 19.5975 13.944 19.657C13.9382 19.7165 13.9363 19.7923 13.9363 19.8834V21.6036ZM14.5964 19.8997C14.6607 19.8163 14.7125 19.7395 14.7499 19.6714C14.7873 19.6023 14.8065 19.5515 14.8065 19.5198C14.8065 19.4527 14.7633 19.3913 14.677 19.3375H15.4464L14.463 20.6001C14.6194 20.8102 14.7441 20.9781 14.8372 21.1038C14.9302 21.2295 15.006 21.3302 15.0636 21.407C15.1212 21.4837 15.1691 21.5451 15.2075 21.5912C15.2449 21.6372 15.2862 21.6842 15.3294 21.7331C15.3591 21.7658 15.3898 21.7974 15.4224 21.8281C15.455 21.8588 15.4915 21.8905 15.5318 21.9231C15.5721 21.9557 15.6172 21.9903 15.6671 22.0286C15.7169 22.0661 15.7745 22.1073 15.8388 22.1505C15.7851 22.1562 15.7198 22.161 15.645 22.1649C15.5692 22.1687 15.4982 22.1706 15.4301 22.1706C15.3466 22.1706 15.2756 22.163 15.2181 22.1486C15.1605 22.1342 15.0991 22.0977 15.0358 22.0411C14.9725 21.9845 14.8976 21.9001 14.8113 21.7878C14.7249 21.6756 14.6117 21.523 14.4717 21.3283C14.4122 21.2419 14.3527 21.1566 14.2913 21.0712C14.2308 20.9858 14.1694 20.9004 14.1071 20.814C14.0879 20.7929 14.0706 20.7709 14.0543 20.7498C14.038 20.7277 14.0217 20.7066 14.0054 20.6845L14.5964 19.8997Z" fill="#00824A"/>
<path d="M16.3847 21.122C16.3952 21.3743 16.4758 21.571 16.6255 21.712C16.7752 21.8531 16.9795 21.9241 17.2385 21.9241C17.3815 21.9241 17.5081 21.9058 17.6194 21.8703C17.7298 21.8348 17.842 21.7773 17.9552 21.6976L17.725 22.1063C17.6309 22.1438 17.5379 22.1706 17.4477 22.185C17.3575 22.1994 17.2529 22.2071 17.134 22.2071C16.9555 22.2071 16.7924 22.1812 16.6447 22.1303C16.496 22.0795 16.3684 22.0075 16.2619 21.9154C16.1554 21.8233 16.0719 21.714 16.0134 21.5854C15.9539 21.4568 15.9242 21.3158 15.9242 21.1623C15.9242 21.0088 15.9549 20.8697 16.0172 20.7296C16.0796 20.5896 16.164 20.4696 16.2724 20.3698C16.4586 20.2058 16.6955 20.1233 16.9843 20.1233C17.1244 20.1233 17.2539 20.1463 17.3729 20.1924C17.4918 20.2384 17.5945 20.3027 17.6808 20.3871C17.7672 20.4706 17.8343 20.5694 17.8833 20.6826C17.9322 20.7958 17.9562 20.9205 17.9562 21.0549V21.1239H16.3856L16.3847 21.122ZM17.5062 20.8553C17.4439 20.5397 17.2635 20.3814 16.9642 20.3814C16.8183 20.3814 16.6965 20.4226 16.5977 20.5051C16.4988 20.5876 16.4336 20.7037 16.401 20.8553H17.5062Z" fill="#00824A"/>
<path d="M18.9108 21.8061C19.0029 21.8492 19.0844 21.8799 19.1545 21.8972C19.2245 21.9145 19.3032 21.9231 19.3905 21.9231C19.6044 21.9231 19.7694 21.8588 19.8855 21.7303C20.0016 21.6017 20.0601 21.4175 20.0601 21.1786C20.0601 21.0644 20.0448 20.9599 20.0131 20.8659C19.9824 20.7709 19.9383 20.6893 19.8817 20.6222C19.8251 20.5541 19.757 20.5013 19.6773 20.4639C19.5977 20.4255 19.5094 20.4073 19.4125 20.4073C19.3156 20.4073 19.2226 20.4274 19.1353 20.4677C19.048 20.508 18.9741 20.5646 18.9146 20.6375C18.8772 20.6864 18.8503 20.7402 18.834 20.7997C18.8177 20.8591 18.81 20.9378 18.81 21.0347V22.612C18.81 22.6791 18.8119 22.7357 18.8158 22.7798C18.8196 22.824 18.8273 22.8614 18.8398 22.8911C18.8513 22.9209 18.8676 22.9458 18.8868 22.966C18.9069 22.9861 18.9338 23.0053 18.9674 23.0245H18.2593C18.2948 23.0053 18.3217 22.9861 18.3418 22.966C18.362 22.9458 18.3783 22.9209 18.3908 22.8911C18.4032 22.8614 18.4109 22.8249 18.4148 22.7818C18.4186 22.7386 18.4205 22.682 18.4205 22.612V20.6001C18.4205 20.5329 18.4196 20.4783 18.4167 20.436C18.4138 20.3938 18.4071 20.3593 18.3965 20.3305C18.386 20.3017 18.3697 20.2768 18.3476 20.2557C18.3255 20.2346 18.2968 20.2087 18.2584 20.1789H18.5548C18.6172 20.1789 18.668 20.1732 18.7064 20.1607C18.7448 20.1482 18.7784 20.1281 18.8091 20.0983L18.8052 20.4303C18.8839 20.3363 18.9856 20.2614 19.1113 20.2058C19.237 20.1501 19.3694 20.1223 19.5104 20.1223C19.6399 20.1223 19.7685 20.1492 19.897 20.2029C20.0256 20.2566 20.134 20.3286 20.2232 20.4178C20.3096 20.507 20.3767 20.6135 20.4237 20.7373C20.4707 20.8611 20.4947 20.9935 20.4947 21.1335C20.4947 21.287 20.4688 21.43 20.418 21.5605C20.3671 21.6909 20.2952 21.8041 20.2031 21.9001C20.111 21.996 20.0026 22.0709 19.8769 22.1246C19.7512 22.1783 19.614 22.2052 19.4663 22.2052C19.4039 22.2052 19.3502 22.2013 19.3041 22.1927C19.2581 22.185 19.2043 22.1697 19.142 22.1486L18.9117 21.8041L18.9108 21.8061Z" fill="#00824A"/>
<path d="M21.2785 21.122C21.2891 21.3743 21.3697 21.571 21.5194 21.712C21.669 21.8531 21.8734 21.9241 22.1324 21.9241C22.2754 21.9241 22.402 21.9058 22.5133 21.8703C22.6236 21.8348 22.7359 21.7773 22.8491 21.6976L22.6188 22.1063C22.5248 22.1438 22.4317 22.1706 22.3416 22.185C22.2514 22.1994 22.1468 22.2071 22.0278 22.2071C21.8494 22.2071 21.6863 22.1812 21.5385 22.1303C21.3898 22.0795 21.2622 22.0075 21.1557 21.9154C21.0493 21.8233 20.9658 21.714 20.9073 21.5854C20.8478 21.4568 20.818 21.3158 20.818 21.1623C20.818 21.0088 20.8487 20.8697 20.9111 20.7296C20.9735 20.5896 21.0579 20.4696 21.1663 20.3698C21.3524 20.2058 21.5894 20.1233 21.8782 20.1233C22.0182 20.1233 22.1478 20.1463 22.2667 20.1924C22.3857 20.2384 22.4883 20.3027 22.5747 20.3871C22.661 20.4706 22.7282 20.5694 22.7771 20.6826C22.8261 20.7958 22.85 20.9205 22.85 21.0549V21.1239H21.2795L21.2785 21.122ZM22.4001 20.8553C22.3377 20.5397 22.1574 20.3814 21.858 20.3814C21.7122 20.3814 21.5904 20.4226 21.4915 20.5051C21.3927 20.5876 21.3275 20.7037 21.2949 20.8553H22.4001Z" fill="#00824A"/>
<path d="M23.1801 22.1495C23.2175 22.1198 23.2472 22.0939 23.2693 22.0728C23.2914 22.0517 23.3067 22.0258 23.3182 21.9979C23.3288 21.9701 23.3355 21.9356 23.3384 21.8943C23.3412 21.854 23.3422 21.7984 23.3422 21.7283V20.5991C23.3422 20.532 23.3412 20.4773 23.3384 20.4351C23.3355 20.3929 23.3288 20.3583 23.3182 20.3296C23.3077 20.3008 23.2914 20.2758 23.2693 20.2547C23.2472 20.2327 23.2184 20.2077 23.1801 20.178H23.4765C23.5389 20.178 23.5897 20.1722 23.6281 20.1597C23.6665 20.1473 23.7001 20.1271 23.7308 20.0974V20.4495C23.8468 20.2307 24.0167 20.1214 24.2412 20.1214C24.2786 20.1214 24.3285 20.1271 24.3908 20.1377V20.5301C24.3419 20.484 24.2747 20.461 24.1884 20.461C24.1126 20.461 24.0416 20.4763 23.9764 20.507C23.9102 20.5377 23.8584 20.5809 23.8209 20.6346C23.7615 20.7181 23.7317 20.8476 23.7317 21.0232V21.7274C23.7317 21.7974 23.7327 21.8531 23.7356 21.8934C23.7384 21.9337 23.7452 21.9682 23.7557 21.997C23.7663 22.0248 23.7826 22.0507 23.8046 22.0718C23.8267 22.0939 23.8555 22.1188 23.8939 22.1486H23.182L23.1801 22.1495Z" fill="#00824A"/>
<path d="M26.2645 20.6155C26.1244 20.4754 25.946 20.4053 25.7301 20.4053C25.6217 20.4053 25.5248 20.4226 25.4366 20.4562C25.3493 20.4898 25.2744 20.5377 25.2121 20.5982C25.1497 20.6596 25.1017 20.7335 25.0682 20.8217C25.0346 20.91 25.0173 21.0069 25.0173 21.1124C25.0173 21.2285 25.0394 21.3369 25.0845 21.4357C25.1286 21.5346 25.19 21.6199 25.2667 21.6919C25.3435 21.7638 25.4356 21.8205 25.5421 21.8607C25.6486 21.901 25.7656 21.9221 25.8923 21.9221C26.0084 21.9221 26.1177 21.9049 26.2204 21.8703C26.323 21.8358 26.4305 21.783 26.5437 21.7111L26.2923 22.1275C26.2252 22.1543 26.1456 22.1745 26.0535 22.186C25.9614 22.1985 25.8597 22.2042 25.7455 22.2042C25.5757 22.2042 25.4193 22.1793 25.2763 22.1294C25.1334 22.0795 25.0106 22.0095 24.9089 21.9212C24.8072 21.832 24.7276 21.7264 24.67 21.6036C24.6124 21.4808 24.5837 21.3465 24.5837 21.2007C24.5837 21.0549 24.6134 20.909 24.6719 20.7776C24.7304 20.6471 24.8158 20.5291 24.9281 20.4236C25.0432 20.318 25.1708 20.2413 25.3099 20.1933C25.449 20.1444 25.6112 20.1204 25.7973 20.1204C25.8808 20.1204 25.9575 20.1242 26.0256 20.131C26.0947 20.1377 26.1734 20.1521 26.2626 20.1732V20.6145L26.2645 20.6155Z" fill="#00824A"/>
<path d="M27.9598 21.0817C27.9224 21.098 27.8907 21.1115 27.8648 21.122C27.8389 21.1326 27.8091 21.1441 27.7736 21.1546C27.7381 21.1652 27.6931 21.1777 27.6384 21.1911C27.5827 21.2045 27.5079 21.2218 27.4139 21.2439C27.2086 21.2928 27.1059 21.4012 27.1059 21.572C27.1059 21.6823 27.1462 21.7686 27.2258 21.8291C27.3055 21.8895 27.4177 21.9202 27.5616 21.9202C27.6153 21.9202 27.6652 21.9164 27.7103 21.9078C27.7554 21.9001 27.813 21.8847 27.883 21.8636L27.6317 22.1831C27.5856 22.1937 27.5463 22.2004 27.5146 22.2032C27.482 22.2061 27.4427 22.2071 27.3976 22.2071C27.1817 22.2071 27.0128 22.1514 26.892 22.0411C26.8219 21.9788 26.7682 21.9058 26.7298 21.8224C26.6924 21.7389 26.6732 21.6535 26.6732 21.5672C26.6732 21.4808 26.6943 21.3945 26.7375 21.3158C26.7807 21.2371 26.8382 21.1777 26.9112 21.1374C26.9409 21.1211 26.9716 21.1067 27.0042 21.0932C27.0368 21.0798 27.0742 21.0664 27.1174 21.0529C27.1606 21.0395 27.2105 21.0261 27.2671 21.0146C27.3237 21.0021 27.3918 20.9877 27.4724 20.9723C27.5664 20.9532 27.6441 20.9349 27.7065 20.9177C27.7679 20.9004 27.8178 20.8802 27.8542 20.8572C27.8907 20.8342 27.9156 20.8083 27.931 20.7805C27.9463 20.7526 27.9531 20.7191 27.9531 20.6807C27.9531 20.5991 27.9156 20.5339 27.8398 20.484C27.7641 20.4341 27.6662 20.4092 27.5453 20.4092C27.4993 20.4092 27.4561 20.4121 27.4158 20.4178C27.3755 20.4236 27.3333 20.4322 27.2901 20.4447C27.2469 20.4572 27.199 20.4754 27.1462 20.4984C27.0934 20.5224 27.032 20.5502 26.962 20.5828L27.246 20.154C27.3083 20.1406 27.3592 20.1329 27.3976 20.13C27.4369 20.1271 27.4849 20.1262 27.5415 20.1262C27.9041 20.1262 28.144 20.2221 28.2629 20.414C28.2821 20.4437 28.2965 20.4715 28.3071 20.4974C28.3176 20.5234 28.3263 20.5541 28.3311 20.5905C28.3368 20.627 28.3406 20.6711 28.3435 20.7239C28.3464 20.7766 28.3474 20.8428 28.3474 20.9244V21.4751C28.3474 21.5374 28.3483 21.5873 28.3512 21.6267C28.3541 21.666 28.3589 21.6976 28.3656 21.7216C28.3723 21.7456 28.3829 21.7667 28.3982 21.784C28.4126 21.8013 28.4327 21.8185 28.4567 21.8348C28.4865 21.8588 28.521 21.8761 28.5603 21.8857C28.5997 21.8953 28.6496 21.901 28.7119 21.9039L28.5258 22.1831C28.4174 22.1754 28.3349 22.1639 28.2783 22.1505C28.2207 22.1371 28.1689 22.115 28.1229 22.0862C28.0902 22.067 28.0624 22.0459 28.0413 22.021C28.0193 21.997 28.0029 21.9682 27.9905 21.9337C27.978 21.9001 27.9703 21.8598 27.9655 21.8118C27.9617 21.7648 27.9598 21.7063 27.9598 21.6362V21.0817Z" fill="#00824A"/>
<path d="M30.4494 20.6356C30.4926 20.5281 30.5137 20.4418 30.5137 20.3766C30.5137 20.3363 30.5041 20.3008 30.4858 20.271C30.4667 20.2413 30.435 20.2115 30.389 20.1818H30.9876L30.0772 22.3548C30.0234 22.4815 29.9726 22.5803 29.9256 22.6503C29.8786 22.7204 29.82 22.7837 29.75 22.8393C29.5936 22.9621 29.4008 23.0235 29.1715 23.0235C29.0851 23.0235 29.0045 23.0159 28.9307 22.9995C28.8568 22.9832 28.7637 22.9554 28.6534 22.9161L29.0381 22.6398C29.0842 22.6695 29.1245 22.6897 29.16 22.7002C29.1955 22.7108 29.2358 22.7165 29.2818 22.7165C29.3893 22.7165 29.4833 22.6772 29.5629 22.5995C29.6425 22.5208 29.7164 22.397 29.7836 22.2272L29.8239 22.114C29.7912 22.0814 29.7653 22.0545 29.7452 22.0334C29.725 22.0123 29.7078 21.9912 29.6924 21.9711C29.678 21.9509 29.6636 21.9279 29.6521 21.902C29.6397 21.8761 29.6243 21.8425 29.6061 21.7984L29.0391 20.5636C29.0122 20.5042 28.9873 20.4533 28.9643 20.4121C28.9412 20.3698 28.9172 20.3353 28.8933 20.3065C28.8693 20.2777 28.8424 20.2547 28.8146 20.2355C28.7868 20.2163 28.7541 20.1991 28.7196 20.1828L29.1321 20.1665C29.1974 20.1665 29.2396 20.1703 29.2617 20.1789C29.2751 20.1818 29.2876 20.1914 29.3 20.2096C29.3125 20.2269 29.3288 20.2586 29.3509 20.3046L30.0023 21.7734L30.4513 20.6366L30.4494 20.6356Z" fill="#00824A"/>
<path d="M32.4363 21.0817C32.3989 21.098 32.3672 21.1115 32.3413 21.122C32.3154 21.1326 32.2857 21.1441 32.2502 21.1546C32.2147 21.1652 32.1696 21.1777 32.1149 21.1911C32.0593 21.2045 31.9844 21.2218 31.8904 21.2439C31.6851 21.2928 31.5824 21.4012 31.5824 21.572C31.5824 21.6823 31.6227 21.7686 31.7024 21.8291C31.782 21.8895 31.8942 21.9202 32.0382 21.9202C32.0919 21.9202 32.1418 21.9164 32.1869 21.9078C32.2319 21.9001 32.2895 21.8847 32.3595 21.8636L32.1082 22.1831C32.0621 22.1937 32.0228 22.2004 31.9911 22.2032C31.9585 22.2061 31.9192 22.2071 31.8741 22.2071C31.6582 22.2071 31.4894 22.1514 31.3685 22.0411C31.2985 21.9788 31.2447 21.9058 31.2064 21.8224C31.1689 21.7389 31.1497 21.6535 31.1497 21.5672C31.1497 21.4808 31.1709 21.3945 31.214 21.3158C31.2572 21.2371 31.3148 21.1777 31.3877 21.1374C31.4174 21.1211 31.4481 21.1067 31.4807 21.0932C31.5134 21.0798 31.5508 21.0664 31.594 21.0529C31.6371 21.0395 31.687 21.0261 31.7436 21.0146C31.8002 21.0021 31.8683 20.9877 31.9489 20.9723C32.0429 20.9532 32.1207 20.9349 32.183 20.9177C32.2444 20.9004 32.2943 20.8802 32.3308 20.8572C32.3672 20.8342 32.3922 20.8083 32.4075 20.7805C32.4229 20.7526 32.4296 20.7191 32.4296 20.6807C32.4296 20.5991 32.3922 20.5339 32.3164 20.484C32.2406 20.4341 32.1427 20.4092 32.0218 20.4092C31.9758 20.4092 31.9326 20.4121 31.8923 20.4178C31.852 20.4236 31.8098 20.4322 31.7666 20.4447C31.7235 20.4572 31.6755 20.4754 31.6227 20.4984C31.57 20.5224 31.5086 20.5502 31.4385 20.5828L31.7225 20.154C31.7849 20.1406 31.8357 20.1329 31.8741 20.13C31.9134 20.1271 31.9614 20.1262 32.018 20.1262C32.3806 20.1262 32.6205 20.2221 32.7395 20.414C32.7587 20.4437 32.773 20.4715 32.7836 20.4974C32.7941 20.5234 32.8028 20.5541 32.8076 20.5905C32.8133 20.627 32.8172 20.6711 32.8201 20.7239C32.8229 20.7766 32.8239 20.8428 32.8239 20.9244V21.4751C32.8239 21.5374 32.8249 21.5873 32.8277 21.6267C32.8306 21.666 32.8354 21.6976 32.8421 21.7216C32.8488 21.7456 32.8594 21.7667 32.8747 21.784C32.8891 21.8013 32.9093 21.8185 32.9333 21.8348C32.963 21.8588 32.9975 21.8761 33.0369 21.8857C33.0762 21.8953 33.1261 21.901 33.1885 21.9039L33.0023 22.1831C32.8939 22.1754 32.8114 22.1639 32.7548 22.1505C32.6973 22.1371 32.6454 22.115 32.5994 22.0862C32.5668 22.067 32.539 22.0459 32.5178 22.021C32.4958 21.997 32.4795 21.9682 32.467 21.9337C32.4545 21.9001 32.4469 21.8598 32.4421 21.8118C32.4373 21.7638 32.4363 21.7063 32.4363 21.6362V21.0817Z" fill="#00824A"/>
<path d="M34.6419 21.0817C34.6045 21.098 34.5729 21.1115 34.547 21.122C34.5211 21.1326 34.4913 21.1441 34.4558 21.1546C34.4203 21.1652 34.3752 21.1777 34.3205 21.1911C34.2649 21.2045 34.1901 21.2218 34.0961 21.2439C33.8907 21.2928 33.7881 21.4012 33.7881 21.572C33.7881 21.6823 33.8284 21.7686 33.908 21.8291C33.9876 21.8895 34.0999 21.9202 34.2438 21.9202C34.2975 21.9202 34.3474 21.9164 34.3925 21.9078C34.4376 21.9001 34.4952 21.8847 34.5652 21.8636L34.3138 22.1831C34.2678 22.1937 34.2284 22.2004 34.1968 22.2032C34.1642 22.2061 34.1248 22.2071 34.0797 22.2071C33.8639 22.2071 33.695 22.1514 33.5741 22.0411C33.5041 21.9788 33.4504 21.9058 33.412 21.8224C33.3746 21.7389 33.3554 21.6535 33.3554 21.5672C33.3554 21.4808 33.3765 21.3945 33.4197 21.3158C33.4628 21.2371 33.5204 21.1777 33.5933 21.1374C33.6231 21.1211 33.6538 21.1067 33.6864 21.0932C33.719 21.0798 33.7564 21.0664 33.7996 21.0529C33.8428 21.0395 33.8927 21.0261 33.9493 21.0146C34.0059 21.0021 34.074 20.9877 34.1555 20.9723C34.2496 20.9532 34.3273 20.9349 34.3896 20.9177C34.451 20.9004 34.5009 20.8802 34.5374 20.8572C34.5738 20.8342 34.5988 20.8083 34.6141 20.7805C34.6295 20.7526 34.6362 20.7191 34.6362 20.6807C34.6362 20.5991 34.5988 20.5339 34.523 20.484C34.4472 20.4341 34.3493 20.4092 34.2284 20.4092C34.1824 20.4092 34.1392 20.4121 34.0989 20.4178C34.0586 20.4236 34.0164 20.4322 33.9732 20.4447C33.9301 20.4572 33.8821 20.4754 33.8293 20.4984C33.7766 20.5224 33.7152 20.5502 33.6451 20.5828L33.9291 20.154C33.9915 20.1406 34.0423 20.1329 34.0807 20.13C34.12 20.1271 34.168 20.1262 34.2246 20.1262C34.5873 20.1262 34.8271 20.2221 34.9461 20.414C34.9653 20.4437 34.9797 20.4715 34.9902 20.4974C35.0008 20.5234 35.0094 20.5541 35.0142 20.5905C35.0199 20.627 35.0238 20.6711 35.0267 20.7239C35.0295 20.7766 35.0305 20.8428 35.0305 20.9244V21.4751C35.0305 21.5374 35.0315 21.5873 35.0343 21.6267C35.0372 21.666 35.042 21.6976 35.0487 21.7216C35.0554 21.7456 35.066 21.7667 35.0813 21.784C35.0957 21.8013 35.1159 21.8185 35.1399 21.8348C35.1696 21.8588 35.2042 21.8761 35.2435 21.8857C35.2828 21.8953 35.3327 21.901 35.3951 21.9039L35.2089 22.1831C35.1005 22.1754 35.018 22.1639 34.9614 22.1505C34.9039 22.1371 34.8521 22.115 34.806 22.0862C34.7734 22.067 34.7456 22.0459 34.7245 22.021C34.7024 21.997 34.6861 21.9682 34.6736 21.9337C34.6611 21.9001 34.6535 21.8598 34.6487 21.8118C34.6448 21.7648 34.6429 21.7063 34.6429 21.6362V21.0856L34.6419 21.0817Z" fill="#00824A"/>
<path d="M36.1194 20.4543C36.2221 20.3324 36.3209 20.247 36.4159 20.1972C36.5118 20.1473 36.6221 20.1223 36.7488 20.1223C36.886 20.1223 37.0136 20.1501 37.1325 20.2058C37.2505 20.2614 37.3407 20.3344 37.4031 20.4265C37.4223 20.4562 37.4376 20.4879 37.451 20.5214C37.4645 20.555 37.475 20.5943 37.4837 20.6385C37.4913 20.6826 37.4971 20.7354 37.5 20.7939C37.5029 20.8534 37.5038 20.9234 37.5038 21.004V21.7283C37.5038 21.7984 37.5048 21.854 37.5077 21.8943C37.5105 21.9346 37.5173 21.9692 37.5278 21.9979C37.5384 22.0258 37.5547 22.0517 37.5767 22.0728C37.5978 22.0948 37.6276 22.1198 37.666 22.1495H36.9541C36.9905 22.1198 37.0203 22.0939 37.0433 22.0728C37.0654 22.0517 37.0817 22.0258 37.0922 21.9979C37.1028 21.9701 37.1095 21.9346 37.1124 21.8924C37.1153 21.8502 37.1162 21.7965 37.1162 21.7283V21.0481C37.1162 20.9349 37.1095 20.8467 37.0961 20.7833C37.0826 20.72 37.0587 20.6653 37.0241 20.6193C36.9809 20.5656 36.9215 20.5214 36.8438 20.4879C36.766 20.4543 36.6845 20.437 36.5991 20.437C36.5137 20.437 36.4351 20.4543 36.3641 20.4879C36.2931 20.5214 36.2374 20.5665 36.1971 20.6231C36.176 20.6529 36.1607 20.6855 36.153 20.72C36.1453 20.7555 36.1405 20.8035 36.1405 20.8659V21.7283C36.1405 21.7984 36.1415 21.854 36.1444 21.8943C36.1472 21.9346 36.1539 21.9692 36.1645 21.9979C36.1751 22.0258 36.1904 22.0517 36.2115 22.0728C36.2326 22.0948 36.2614 22.1198 36.2988 22.1495H35.5908C35.6282 22.1198 35.6579 22.0939 35.68 22.0728C35.7021 22.0517 35.7174 22.0258 35.7289 21.9979C35.7395 21.9701 35.7462 21.9356 35.7491 21.8943C35.752 21.854 35.7529 21.7984 35.7529 21.7283V20.5991C35.7529 20.532 35.752 20.4773 35.7491 20.4351C35.7462 20.3929 35.7395 20.3583 35.7289 20.3296C35.7184 20.3008 35.7021 20.2758 35.68 20.2547C35.6579 20.2327 35.6292 20.2077 35.5908 20.178H35.8671C35.9295 20.178 35.9803 20.1722 36.0187 20.1597C36.057 20.1473 36.0906 20.1271 36.1213 20.0974V20.4533L36.1194 20.4543Z" fill="#00824A"/>
<path d="M40.7044 19.7616C40.7044 19.6944 40.7034 19.6397 40.7005 19.5975C40.6976 19.5553 40.6909 19.5208 40.6804 19.492C40.6698 19.4632 40.6545 19.4383 40.6334 19.4172C40.6123 19.3951 40.5835 19.3702 40.5461 19.3404H40.8415C40.9039 19.3404 40.9538 19.3347 40.9912 19.3222C41.0286 19.3097 41.0622 19.2896 41.0919 19.2598V21.7303C41.0919 21.8003 41.0929 21.855 41.0958 21.8962C41.0987 21.9365 41.1054 21.9711 41.1159 21.9989C41.1265 22.0277 41.1428 22.0526 41.1649 22.0737C41.186 22.0948 41.2157 22.1207 41.2541 22.1505H40.7034V21.1815C40.7034 21.1009 40.7024 21.0328 40.6996 20.9771C40.6967 20.9225 40.6909 20.8745 40.6813 20.8361C40.6717 20.7968 40.6593 20.7632 40.643 20.7335C40.6266 20.7037 40.6065 20.673 40.5825 20.6404C40.5259 20.5646 40.4549 20.507 40.3705 20.4667C40.2851 20.4265 40.1949 20.4063 40.0971 20.4063C40.005 20.4063 39.9215 20.4236 39.8438 20.4591C39.767 20.4946 39.7008 20.5416 39.6452 20.602C39.5895 20.6625 39.5464 20.7354 39.5157 20.8217C39.485 20.9081 39.4687 21.0002 39.4687 21.0999C39.4687 21.216 39.4878 21.3235 39.5253 21.4233C39.5627 21.523 39.6154 21.6084 39.6816 21.6813C39.7478 21.7543 39.8265 21.8109 39.9176 21.8512C40.0088 21.8914 40.1067 21.9116 40.2122 21.9116C40.2851 21.9116 40.3494 21.9039 40.4031 21.8876C40.4568 21.8713 40.5192 21.8406 40.5902 21.7945L40.3427 22.1793C40.2966 22.1927 40.2602 22.2013 40.2333 22.2032C40.2064 22.2061 40.1709 22.2071 40.1278 22.2071C39.8678 22.2071 39.6529 22.1505 39.4821 22.0373C39.3372 21.9404 39.2278 21.8176 39.1511 21.6689C39.0753 21.5202 39.0369 21.3542 39.0369 21.1709C39.0369 21.0222 39.0628 20.885 39.1137 20.7584C39.1645 20.6318 39.2355 20.5214 39.3257 20.4265C39.4159 20.3324 39.5214 20.2576 39.6423 20.2039C39.7632 20.1501 39.8937 20.1233 40.0337 20.1233C40.1652 20.1233 40.2832 20.1434 40.3868 20.1828C40.4904 20.2221 40.5959 20.2873 40.7034 20.3775V19.7626L40.7044 19.7616Z" fill="#00824A"/>
<path d="M42.8294 21.0817C42.792 21.098 42.7603 21.1115 42.7344 21.122C42.7085 21.1326 42.6788 21.1441 42.6433 21.1546C42.6078 21.1652 42.5627 21.1777 42.508 21.1911C42.4524 21.2045 42.3775 21.2218 42.2835 21.2439C42.0782 21.2928 41.9756 21.4012 41.9756 21.572C41.9756 21.6823 42.0158 21.7686 42.0955 21.8291C42.1751 21.8895 42.2874 21.9202 42.4313 21.9202C42.485 21.9202 42.5349 21.9164 42.58 21.9078C42.6251 21.9001 42.6826 21.8847 42.7527 21.8636L42.5013 22.1831C42.4552 22.1937 42.4159 22.2004 42.3843 22.2032C42.3516 22.2061 42.3123 22.2071 42.2672 22.2071C42.0513 22.2071 41.8825 22.1514 41.7616 22.0411C41.6916 21.9788 41.6378 21.9058 41.5995 21.8224C41.5621 21.7389 41.5429 21.6535 41.5429 21.5672C41.5429 21.4808 41.564 21.3945 41.6071 21.3158C41.6503 21.2371 41.7079 21.1777 41.7808 21.1374C41.8105 21.1211 41.8412 21.1067 41.8739 21.0932C41.9065 21.0798 41.9439 21.0664 41.9871 21.0529C42.0302 21.0395 42.0801 21.0261 42.1367 21.0146C42.1933 21.0021 42.2615 20.9877 42.343 20.9723C42.437 20.9532 42.5147 20.9349 42.5771 20.9177C42.6385 20.9004 42.6884 20.8802 42.7248 20.8572C42.7613 20.8342 42.7862 20.8083 42.8016 20.7805C42.8169 20.7526 42.8237 20.7191 42.8237 20.6807C42.8237 20.5991 42.7862 20.5339 42.7104 20.484C42.6347 20.4341 42.5368 20.4092 42.4159 20.4092C42.3699 20.4092 42.3267 20.4121 42.2864 20.4178C42.2461 20.4236 42.2039 20.4322 42.1607 20.4447C42.1175 20.4572 42.0696 20.4754 42.0168 20.4984C41.964 20.5224 41.9026 20.5502 41.8326 20.5828L42.1166 20.154C42.1789 20.1406 42.2298 20.1329 42.2682 20.13C42.3075 20.1271 42.3555 20.1262 42.4121 20.1262C42.7747 20.1262 43.0146 20.2221 43.1335 20.414C43.1527 20.4437 43.1671 20.4715 43.1777 20.4974C43.1882 20.5234 43.1969 20.5541 43.2017 20.5905C43.2074 20.627 43.2113 20.6711 43.2141 20.7239C43.217 20.7766 43.218 20.8428 43.218 20.9244V21.4751C43.218 21.5374 43.2189 21.5873 43.2218 21.6267C43.2247 21.666 43.2295 21.6976 43.2362 21.7216C43.2429 21.7456 43.2535 21.7667 43.2688 21.784C43.2832 21.8013 43.3034 21.8185 43.3273 21.8348C43.3571 21.8588 43.3916 21.8761 43.431 21.8857C43.4703 21.8953 43.5202 21.901 43.5825 21.9039L43.3964 22.1831C43.288 22.1754 43.2055 22.1639 43.1489 22.1505C43.0913 22.1371 43.0395 22.115 42.9935 22.0862C42.9608 22.067 42.933 22.0459 42.9119 22.021C42.8899 21.997 42.8735 21.9682 42.8611 21.9337C42.8486 21.9001 42.8409 21.8598 42.8361 21.8118C42.8313 21.7638 42.8304 21.7063 42.8304 21.6362V21.0856L42.8294 21.0817Z" fill="#00824A"/>
<path d="M44.3069 20.4543C44.4095 20.3324 44.5084 20.247 44.6033 20.1972C44.6993 20.1473 44.8096 20.1223 44.9362 20.1223C45.0734 20.1223 45.201 20.1501 45.32 20.2058C45.438 20.2614 45.5282 20.3344 45.5905 20.4265C45.6097 20.4562 45.6251 20.4879 45.6385 20.5214C45.6519 20.555 45.6625 20.5943 45.6711 20.6385C45.6788 20.6826 45.6846 20.7354 45.6874 20.7939C45.6903 20.8534 45.6913 20.9234 45.6913 21.004V21.7283C45.6913 21.7984 45.6922 21.854 45.6951 21.8943C45.698 21.9346 45.7047 21.9692 45.7153 21.9979C45.7258 22.0258 45.7421 22.0517 45.7642 22.0728C45.7853 22.0948 45.815 22.1198 45.8534 22.1495H45.1415C45.178 22.1198 45.2077 22.0939 45.2308 22.0728C45.2528 22.0517 45.2701 22.0258 45.2797 21.9979C45.2902 21.9701 45.297 21.9346 45.2998 21.8924C45.3027 21.8502 45.3037 21.7965 45.3037 21.7283V21.0481C45.3037 20.9349 45.297 20.8467 45.2835 20.7833C45.2701 20.72 45.2461 20.6653 45.2116 20.6193C45.1684 20.5656 45.1089 20.5214 45.0312 20.4879C44.9535 20.4543 44.872 20.437 44.7866 20.437C44.7012 20.437 44.6225 20.4543 44.5515 20.4879C44.4805 20.5214 44.4249 20.5665 44.3846 20.6231C44.3635 20.6529 44.3481 20.6855 44.3405 20.72C44.3328 20.7555 44.328 20.8035 44.328 20.8659V21.7283C44.328 21.7984 44.3289 21.854 44.3318 21.8943C44.3347 21.9346 44.3414 21.9692 44.352 21.9979C44.3625 22.0258 44.3779 22.0517 44.399 22.0728C44.4201 22.0948 44.4489 22.1198 44.4863 22.1495H43.7782C43.8157 22.1198 43.8454 22.0939 43.8675 22.0728C43.8895 22.0517 43.9049 22.0258 43.9164 21.9979C43.927 21.9701 43.9337 21.9356 43.9365 21.8943C43.9394 21.854 43.9404 21.7984 43.9404 21.7283V20.5991C43.9404 20.532 43.9394 20.4773 43.9365 20.4351C43.9337 20.3929 43.927 20.3583 43.9164 20.3296C43.9058 20.3008 43.8895 20.2758 43.8675 20.2547C43.8454 20.2327 43.8166 20.2077 43.7782 20.178H44.0546C44.1169 20.178 44.1678 20.1722 44.2061 20.1597C44.2445 20.1473 44.2781 20.1271 44.3088 20.0974V20.4533L44.3069 20.4543Z" fill="#00824A"/>
<path d="M47.896 21.6036C47.896 21.6957 47.8988 21.7706 47.9036 21.83C47.9094 21.8895 47.918 21.9394 47.9315 21.9797C47.9449 22.02 47.9641 22.0536 47.9881 22.0785C48.0121 22.1044 48.0447 22.1275 48.085 22.1495H47.2714C47.3117 22.1284 47.3443 22.1044 47.3683 22.0785C47.3923 22.0526 47.4115 22.02 47.4249 21.9797C47.4383 21.9394 47.4479 21.8895 47.4527 21.83C47.4585 21.7706 47.4614 21.6948 47.4614 21.6036V19.8834C47.4614 19.7923 47.4585 19.7165 47.4527 19.657C47.447 19.5975 47.4383 19.5476 47.4249 19.5074C47.4115 19.4671 47.3923 19.4335 47.3683 19.4085C47.3443 19.3836 47.3117 19.3596 47.2714 19.3375H48.085C48.0447 19.3596 48.0121 19.3826 47.9881 19.4085C47.9641 19.4344 47.9449 19.4671 47.9315 19.5074C47.918 19.5476 47.9084 19.5975 47.9036 19.657C47.8979 19.7165 47.896 19.7923 47.896 19.8834V21.6036ZM48.556 19.8997C48.6203 19.8163 48.6721 19.7395 48.7095 19.6714C48.7469 19.6023 48.7661 19.5515 48.7661 19.5198C48.7661 19.4527 48.723 19.3913 48.6366 19.3375H49.4051L48.4217 20.6001C48.5781 20.8102 48.7028 20.9781 48.7959 21.1038C48.8889 21.2295 48.9647 21.3302 49.0223 21.407C49.0799 21.4837 49.1278 21.5451 49.1662 21.5912C49.2036 21.6372 49.2449 21.6842 49.288 21.7331C49.3178 21.7658 49.3485 21.7974 49.3811 21.8281C49.4137 21.8588 49.4502 21.8905 49.4905 21.9231C49.5308 21.9557 49.5759 21.9903 49.6258 22.0286C49.6756 22.0661 49.7332 22.1073 49.7975 22.1505C49.7438 22.1562 49.6785 22.161 49.6027 22.1649C49.5269 22.1687 49.4559 22.1706 49.3878 22.1706C49.3044 22.1706 49.2334 22.163 49.1758 22.1486C49.1173 22.1342 49.0568 22.0977 48.9935 22.0411C48.9302 21.9845 48.8554 21.9001 48.769 21.7878C48.6827 21.6756 48.5695 21.523 48.4294 21.3283C48.3699 21.2419 48.3095 21.1566 48.249 21.0712C48.1886 20.9858 48.1272 20.9004 48.0648 20.814C48.0456 20.7929 48.0284 20.7709 48.0121 20.7498C47.9958 20.7277 47.9794 20.7066 47.9631 20.6845L48.5541 19.8997H48.556Z" fill="#00824A"/>
<path d="M50.3443 21.122C50.3549 21.3743 50.4355 21.571 50.5851 21.712C50.7348 21.8531 50.9392 21.9241 51.1982 21.9241C51.3412 21.9241 51.4678 21.9058 51.5791 21.8703C51.6894 21.8348 51.8017 21.7773 51.9149 21.6976L51.6846 22.1063C51.5896 22.1438 51.4975 22.1706 51.4073 22.185C51.3172 22.1994 51.2126 22.2071 51.0936 22.2071C50.9152 22.2071 50.7521 22.1812 50.6043 22.1303C50.4556 22.0795 50.328 22.0075 50.2215 21.9154C50.115 21.8233 50.0316 21.714 49.9731 21.5854C49.9136 21.4568 49.8838 21.3158 49.8838 21.1623C49.8838 21.0088 49.9145 20.8697 49.9769 20.7296C50.0393 20.5896 50.1237 20.4696 50.2321 20.3698C50.4182 20.2058 50.6561 20.1233 50.944 20.1233C51.084 20.1233 51.2136 20.1463 51.3325 20.1924C51.4515 20.2384 51.5541 20.3027 51.6405 20.3871C51.7268 20.4706 51.794 20.5694 51.8429 20.6826C51.8918 20.7958 51.9158 20.9205 51.9158 21.0549V21.1239H50.3453L50.3443 21.122ZM51.4659 20.8553C51.4035 20.5397 51.2231 20.3814 50.9238 20.3814C50.778 20.3814 50.6561 20.4226 50.5573 20.5051C50.4585 20.5876 50.3933 20.7037 50.3607 20.8553H51.4659Z" fill="#00824A"/>
<path d="M52.7774 20.4581C52.8666 20.3372 52.9577 20.2499 53.0527 20.1991C53.1467 20.1482 53.2628 20.1223 53.401 20.1223C53.5487 20.1223 53.6744 20.1521 53.7771 20.2115C53.8797 20.271 53.9709 20.367 54.0524 20.4994C54.1551 20.3622 54.2567 20.2643 54.3584 20.2077C54.4592 20.1511 54.582 20.1223 54.7249 20.1223C54.8679 20.1223 55.0032 20.1501 55.1221 20.2077C55.2411 20.2643 55.3303 20.3401 55.3898 20.4341C55.4272 20.4984 55.4541 20.5694 55.4685 20.6442C55.4829 20.72 55.4905 20.8265 55.4905 20.9637V21.7283C55.4905 21.7984 55.4934 21.8569 55.4982 21.9049C55.504 21.9519 55.5126 21.9912 55.527 22.0219C55.5404 22.0526 55.5596 22.0776 55.5836 22.0968C55.6076 22.1159 55.6402 22.1332 55.6805 22.1495H54.9389C54.9763 22.1227 55.006 22.0987 55.0281 22.0766C55.0502 22.0555 55.0674 22.0306 55.078 22.0018C55.0885 21.974 55.0953 21.9385 55.0981 21.8962C55.101 21.854 55.102 21.7984 55.102 21.7283V21.0683C55.102 20.9493 55.0933 20.8553 55.0761 20.7853C55.0588 20.7152 55.031 20.6548 54.9936 20.603C54.9504 20.5521 54.8967 20.5109 54.8305 20.4811C54.7643 20.4514 54.6923 20.437 54.6146 20.437C54.5206 20.437 54.4352 20.4591 54.3584 20.5022C54.2817 20.5454 54.2251 20.603 54.1867 20.6759C54.1762 20.6951 54.1675 20.7133 54.1627 20.7306C54.157 20.7479 54.1531 20.768 54.1503 20.7891C54.1474 20.8102 54.1455 20.838 54.1445 20.8716C54.1435 20.9052 54.1426 20.9474 54.1426 20.9992V21.7274C54.1426 21.7974 54.1435 21.8531 54.1464 21.8934C54.1493 21.9337 54.156 21.9682 54.1666 21.997C54.1771 22.0248 54.1944 22.0507 54.2165 22.0718C54.2395 22.0939 54.2692 22.1188 54.3066 22.1486H53.5938C53.6312 22.1217 53.661 22.0977 53.6821 22.0757C53.7032 22.0545 53.7195 22.0296 53.73 22.0008C53.7406 21.973 53.7473 21.9375 53.7502 21.8953C53.7531 21.8531 53.754 21.7974 53.754 21.7274V21.0309C53.754 20.8284 53.7108 20.6826 53.6255 20.5934C53.5823 20.5473 53.5295 20.5128 53.4662 20.4879C53.4029 20.4639 53.3376 20.4514 53.2705 20.4514C53.187 20.4514 53.1093 20.4687 53.0364 20.5022C52.9635 20.5358 52.9088 20.5828 52.8714 20.6423C52.8416 20.6855 52.8225 20.7296 52.8129 20.7738C52.8033 20.8179 52.7985 20.8841 52.7985 20.9704V21.7274C52.7985 21.7974 52.7994 21.854 52.8023 21.8953C52.8052 21.9375 52.8119 21.972 52.8225 22.0008C52.833 22.0296 52.8493 22.0545 52.8704 22.0757C52.8915 22.0977 52.9203 22.1217 52.9577 22.1486H52.2487C52.2862 22.1188 52.3159 22.0929 52.338 22.0718C52.3591 22.0507 52.3754 22.0248 52.3869 21.997C52.3974 21.9692 52.4042 21.9346 52.407 21.8934C52.4099 21.8531 52.4109 21.7974 52.4109 21.7274V20.5982C52.4109 20.531 52.4099 20.4763 52.407 20.4341C52.4042 20.3919 52.3974 20.3574 52.3869 20.3286C52.3763 20.2998 52.36 20.2749 52.338 20.2538C52.3159 20.2317 52.2862 20.2068 52.2487 20.177H52.5452C52.6546 20.177 52.7323 20.1501 52.7783 20.0964V20.4562L52.7774 20.4581Z" fill="#00824A"/>
<path d="M56.5449 21.7283C56.5449 21.7984 56.5459 21.854 56.5487 21.8943C56.5516 21.9346 56.5583 21.9692 56.5689 21.9979C56.5794 22.0258 56.5958 22.0517 56.6178 22.0728C56.6389 22.0948 56.6687 22.1198 56.707 22.1495H55.9952C56.0326 22.1198 56.0623 22.0939 56.0844 22.0728C56.1055 22.0517 56.1218 22.0258 56.1333 21.9979C56.1439 21.9701 56.1506 21.9356 56.1535 21.8943C56.1563 21.854 56.1573 21.7984 56.1573 21.7283V20.5991C56.1573 20.532 56.1563 20.4773 56.1535 20.4351C56.1506 20.3929 56.1439 20.3583 56.1333 20.3296C56.1228 20.3008 56.1065 20.2758 56.0844 20.2547C56.0623 20.2327 56.0326 20.2077 55.9952 20.178H56.2916C56.354 20.178 56.4048 20.1722 56.4432 20.1597C56.4816 20.1473 56.5152 20.1271 56.5459 20.0974L56.5449 21.7283ZM56.3463 19.3893C56.4163 19.3893 56.4768 19.4153 56.5286 19.468C56.5794 19.5208 56.6053 19.5822 56.6053 19.6522C56.6053 19.728 56.5794 19.7913 56.5286 19.8422C56.4777 19.894 56.4135 19.9189 56.3386 19.9189C56.2638 19.9189 56.2034 19.893 56.1525 19.8422C56.1017 19.7913 56.0758 19.728 56.0758 19.6522C56.0758 19.5764 56.1017 19.5169 56.1525 19.4661C56.2034 19.4153 56.2686 19.3893 56.3463 19.3893Z" fill="#00824A"/>
<path d="M57.6501 21.3686C57.6501 21.4875 57.6559 21.5739 57.6664 21.6295C57.677 21.6852 57.6971 21.7312 57.7269 21.7696C57.8075 21.8665 57.9168 21.9154 58.055 21.9154C58.0876 21.9154 58.1154 21.9126 58.1404 21.9078C58.1644 21.902 58.196 21.8934 58.2334 21.8799L58.0109 22.1831C57.9811 22.1937 57.9562 22.2004 57.936 22.2032C57.9159 22.2061 57.889 22.2071 57.8574 22.2071C57.7681 22.2071 57.6885 22.1917 57.6175 22.1601C57.5465 22.1294 57.4803 22.0824 57.418 22.021C57.3853 21.9855 57.3585 21.9519 57.3383 21.9202C57.3182 21.8876 57.3019 21.8492 57.2913 21.8051C57.2808 21.761 57.2731 21.7063 57.2692 21.643C57.2654 21.5796 57.2635 21.501 57.2635 21.406V20.4629H56.9718V20.3094C57.1205 20.2854 57.2376 20.2231 57.3249 20.1233C57.4314 20.0101 57.4841 19.8345 57.4841 19.5975V19.5448H57.652V20.1799H57.984C58.054 20.1799 58.1068 20.1789 58.1413 20.1761C58.1768 20.1732 58.2075 20.1665 58.2344 20.1559V20.5406C58.1989 20.5109 58.1644 20.4907 58.1289 20.4802C58.0934 20.4696 58.0396 20.4639 57.9667 20.4639H57.6511V21.3705L57.6501 21.3686Z" fill="#00824A"/>
<path d="M58.4349 22.1495C58.4723 22.1198 58.5021 22.0939 58.5241 22.0728C58.5452 22.0517 58.5615 22.0258 58.5731 21.9979C58.5836 21.9701 58.5903 21.9356 58.5932 21.8943C58.5961 21.854 58.597 21.7984 58.597 21.7283V20.5991C58.597 20.532 58.5961 20.4773 58.5932 20.4351C58.5903 20.3929 58.5836 20.3583 58.5731 20.3296C58.5625 20.3008 58.5462 20.2758 58.5241 20.2547C58.5021 20.2327 58.4723 20.2077 58.4349 20.178H58.7314C58.7937 20.178 58.8446 20.1722 58.8829 20.1597C58.9213 20.1473 58.9549 20.1271 58.9856 20.0974V20.4495C59.1017 20.2307 59.2715 20.1214 59.496 20.1214C59.5334 20.1214 59.5833 20.1271 59.6457 20.1377V20.5301C59.5967 20.484 59.5296 20.461 59.4432 20.461C59.3674 20.461 59.2964 20.4763 59.2312 20.507C59.165 20.5377 59.1132 20.5809 59.0758 20.6346C59.0163 20.7181 58.9866 20.8476 58.9866 21.0232V21.7274C58.9866 21.7974 58.9875 21.8531 58.9904 21.8934C58.9933 21.9337 59 21.9682 59.0105 21.997C59.0211 22.0248 59.0374 22.0507 59.0595 22.0718C59.0806 22.0939 59.1103 22.1188 59.1487 22.1486H58.4368L58.4349 22.1495Z" fill="#00824A"/>
<path d="M61.1059 21.0817C61.0685 21.098 61.0368 21.1115 61.0109 21.122C60.985 21.1326 60.9552 21.1441 60.9197 21.1546C60.8842 21.1652 60.8391 21.1777 60.7845 21.1911C60.7288 21.2045 60.654 21.2218 60.56 21.2439C60.3547 21.2928 60.252 21.4012 60.252 21.572C60.252 21.6823 60.2923 21.7686 60.3719 21.8291C60.4516 21.8895 60.5638 21.9202 60.7077 21.9202C60.7614 21.9202 60.8113 21.9164 60.8564 21.9078C60.9015 21.9001 60.9591 21.8847 61.0291 21.8636L60.7777 22.1831C60.7317 22.1937 60.6924 22.2004 60.6607 22.2032C60.6281 22.2061 60.5887 22.2071 60.5437 22.2071C60.3278 22.2071 60.1589 22.1514 60.0381 22.0411C59.968 21.9788 59.9143 21.9058 59.8759 21.8224C59.8385 21.7389 59.8193 21.6535 59.8193 21.5672C59.8193 21.4808 59.8404 21.3945 59.8836 21.3158C59.9268 21.2371 59.9843 21.1777 60.0572 21.1374C60.087 21.1211 60.1177 21.1067 60.1503 21.0932C60.1829 21.0798 60.2203 21.0664 60.2635 21.0529C60.3067 21.0395 60.3566 21.0261 60.4132 21.0146C60.4698 21.0021 60.5379 20.9877 60.6185 20.9723C60.7125 20.9532 60.7902 20.9349 60.8526 20.9177C60.914 20.9004 60.9639 20.8802 61.0003 20.8572C61.0368 20.8342 61.0617 20.8083 61.0771 20.7805C61.0924 20.7526 61.0991 20.7191 61.0991 20.6807C61.0991 20.5991 61.0617 20.5339 60.9859 20.484C60.9101 20.4341 60.8123 20.4092 60.6904 20.4092C60.6444 20.4092 60.6012 20.4121 60.5609 20.4178C60.5206 20.4236 60.4784 20.4322 60.4352 20.4447C60.3921 20.4572 60.3441 20.4754 60.2913 20.4984C60.2386 20.5224 60.1772 20.5502 60.1071 20.5828L60.3911 20.154C60.4535 20.1406 60.5043 20.1329 60.5437 20.13C60.583 20.1271 60.631 20.1262 60.6876 20.1262C61.0502 20.1262 61.2901 20.2221 61.409 20.414C61.4282 20.4437 61.4426 20.4715 61.4532 20.4974C61.4637 20.5234 61.4724 20.5541 61.4771 20.5905C61.4819 20.627 61.4867 20.6711 61.4896 20.7239C61.4925 20.7766 61.4935 20.8428 61.4935 20.9244V21.4751C61.4935 21.5374 61.4944 21.5873 61.4973 21.6267C61.5002 21.666 61.505 21.6976 61.5117 21.7216C61.5184 21.7456 61.529 21.7667 61.5443 21.784C61.5587 21.8013 61.5788 21.8185 61.6028 21.8348C61.6326 21.8588 61.6671 21.8761 61.7064 21.8857C61.7458 21.8953 61.7957 21.901 61.858 21.9039L61.6719 22.1831C61.5644 22.1754 61.481 22.1639 61.4244 22.1505C61.3668 22.1371 61.315 22.115 61.269 22.0862C61.2363 22.067 61.2085 22.0459 61.1874 22.021C61.1653 21.997 61.149 21.9682 61.1366 21.9337C61.1241 21.9001 61.1164 21.8598 61.1116 21.8118C61.1078 21.7648 61.1059 21.7063 61.1059 21.6362V21.0817Z" fill="#00824A"/>
<path d="M63.3115 21.0817C63.2741 21.098 63.2424 21.1115 63.2165 21.122C63.1906 21.1326 63.1609 21.1441 63.1254 21.1546C63.0899 21.1652 63.0448 21.1777 62.9901 21.1911C62.9345 21.2045 62.8596 21.2218 62.7656 21.2439C62.5603 21.2928 62.4576 21.4012 62.4576 21.572C62.4576 21.6823 62.4979 21.7686 62.5776 21.8291C62.6572 21.8895 62.7694 21.9202 62.9134 21.9202C62.9671 21.9202 63.017 21.9164 63.0621 21.9078C63.1072 21.9001 63.1647 21.8847 63.2348 21.8636L62.9834 22.1831C62.9373 22.1937 62.898 22.2004 62.8663 22.2032C62.8337 22.2061 62.7944 22.2071 62.7493 22.2071C62.5334 22.2071 62.3646 22.1514 62.2437 22.0411C62.1737 21.9788 62.1199 21.9058 62.0816 21.8224C62.0441 21.7389 62.025 21.6535 62.025 21.5672C62.025 21.4808 62.0461 21.3945 62.0892 21.3158C62.1324 21.2371 62.19 21.1777 62.2629 21.1374C62.2926 21.1211 62.3233 21.1067 62.3559 21.0932C62.3886 21.0798 62.426 21.0664 62.4692 21.0529C62.5123 21.0395 62.5622 21.0261 62.6188 21.0146C62.6754 21.0021 62.7435 20.9877 62.8241 20.9723C62.9182 20.9532 62.9959 20.9349 63.0582 20.9177C63.1196 20.9004 63.1695 20.8802 63.206 20.8572C63.2424 20.8342 63.2674 20.8083 63.2827 20.7805C63.2981 20.7526 63.3048 20.7191 63.3048 20.6807C63.3048 20.5991 63.2674 20.5339 63.1916 20.484C63.1158 20.4341 63.0179 20.4092 62.8961 20.4092C62.85 20.4092 62.8069 20.4121 62.7666 20.4178C62.7263 20.4236 62.6841 20.4322 62.6409 20.4447C62.5977 20.4572 62.5497 20.4754 62.497 20.4984C62.4442 20.5224 62.3828 20.5502 62.3128 20.5828L62.5968 20.154C62.6591 20.1406 62.71 20.1329 62.7483 20.13C62.7877 20.1271 62.8357 20.1262 62.8923 20.1262C63.2549 20.1262 63.4947 20.2221 63.6137 20.414C63.6329 20.4437 63.6473 20.4715 63.6578 20.4974C63.6684 20.5234 63.677 20.5541 63.6818 20.5905C63.6866 20.627 63.6914 20.6711 63.6943 20.7239C63.6972 20.7766 63.6981 20.8428 63.6981 20.9244V21.4751C63.6981 21.5374 63.6991 21.5873 63.702 21.6267C63.7049 21.666 63.7097 21.6976 63.7164 21.7216C63.7231 21.7456 63.7336 21.7667 63.749 21.784C63.7634 21.8013 63.7835 21.8185 63.8075 21.8348C63.8372 21.8588 63.8718 21.8761 63.9111 21.8857C63.9505 21.8953 64.0004 21.901 64.0627 21.9039L63.8766 22.1831C63.7691 22.1754 63.6857 22.1639 63.6291 22.1505C63.5715 22.1371 63.5197 22.115 63.4736 22.0862C63.441 22.067 63.4132 22.0459 63.3921 22.021C63.37 21.997 63.3537 21.9682 63.3412 21.9337C63.3288 21.9001 63.3211 21.8598 63.3163 21.8118C63.3125 21.7648 63.3105 21.7063 63.3105 21.6362V21.0856L63.3115 21.0817Z" fill="#00824A"/>
<path d="M64.789 20.4543C64.8916 20.3324 64.9904 20.247 65.0854 20.1972C65.1814 20.1473 65.2917 20.1223 65.4183 20.1223C65.5555 20.1223 65.6831 20.1501 65.8021 20.2058C65.9201 20.2614 66.0103 20.3344 66.0726 20.4265C66.0918 20.4562 66.1072 20.4879 66.1206 20.5214C66.134 20.555 66.1446 20.5943 66.1532 20.6385C66.1609 20.6826 66.1667 20.7354 66.1695 20.7939C66.1724 20.8534 66.1734 20.9234 66.1734 21.004V21.7283C66.1734 21.7984 66.1743 21.854 66.1772 21.8943C66.1801 21.9346 66.1868 21.9692 66.1974 21.9979C66.2079 22.0258 66.2242 22.0517 66.2463 22.0728C66.2674 22.0948 66.2971 22.1198 66.3355 22.1495H65.6236C65.6601 22.1198 65.6898 22.0939 65.7129 22.0728C65.7349 22.0517 65.7522 22.0258 65.7618 21.9979C65.7723 21.9701 65.7791 21.9346 65.781 21.8924C65.7839 21.8502 65.7848 21.7965 65.7848 21.7283V21.0481C65.7848 20.9349 65.7781 20.8467 65.7647 20.7833C65.7513 20.72 65.7273 20.6653 65.6927 20.6193C65.6496 20.5656 65.5901 20.5214 65.5124 20.4879C65.4346 20.4543 65.3531 20.437 65.2677 20.437C65.1823 20.437 65.1037 20.4543 65.0327 20.4879C64.9617 20.5214 64.906 20.5665 64.8657 20.6231C64.8446 20.6529 64.8293 20.6855 64.8216 20.72C64.8139 20.7555 64.8101 20.8035 64.8101 20.8659V21.7283C64.8101 21.7984 64.811 21.854 64.8139 21.8943C64.8168 21.9346 64.8235 21.9692 64.8341 21.9979C64.8446 22.0258 64.86 22.0517 64.8811 22.0728C64.9022 22.0948 64.931 22.1198 64.9684 22.1495H64.2603C64.2978 22.1198 64.3275 22.0939 64.3496 22.0728C64.3707 22.0517 64.387 22.0258 64.3985 21.9979C64.4091 21.9701 64.4158 21.9356 64.4186 21.8943C64.4215 21.854 64.4225 21.7984 64.4225 21.7283V20.5991C64.4225 20.532 64.4215 20.4773 64.4186 20.4351C64.4158 20.3929 64.4091 20.3583 64.3985 20.3296C64.388 20.3008 64.3716 20.2758 64.3496 20.2547C64.3275 20.2327 64.2978 20.2077 64.2603 20.178H64.5367C64.599 20.178 64.6499 20.1722 64.6882 20.1597C64.7266 20.1473 64.7602 20.1271 64.7909 20.0974V20.4533L64.789 20.4543Z" fill="#00824A"/>
</g>
<defs>
<clipPath id="clip0_801_8488">
<rect width="79.999" height="23.0245" fill="white" transform="translate(0.5)"/>
</clipPath>
</defs>
</svg>
