<svg width="80" height="9" viewBox="0 0 80 9" fill="none" xmlns="http://www.w3.org/2000/svg">
<g clip-path="url(#clip0_801_7541)">
<path d="M0.512563 2.91785C0.512563 2.68936 0.537265 2.47013 0.586669 2.25708C0.731792 1.61174 1.25053 0.747179 2.17685 0.747179C3.47678 0.747179 3.26682 2.84375 1.38022 2.41764C1.57783 2.78199 2.18303 3.89666 2.43622 4.31659C3.11861 5.45288 4.41237 5.74621 5.17195 5.28305C4.68717 5.63814 4.09124 5.84811 3.44282 5.84811C1.82485 5.84811 0.512563 4.53582 0.512563 2.91785ZM4.71805 0.209914C4.71805 0.209914 4.71188 0.209914 4.7057 0.209914C4.69026 0.209914 4.67482 0.222265 4.67482 0.240791C4.67482 0.253142 4.681 0.262405 4.69335 0.268581C5.68451 0.737916 6.37307 1.7476 6.37307 2.92094C6.37307 3.26368 6.31441 3.59098 6.20634 3.89666C6.00255 4.50186 5.29854 4.64698 4.83847 3.87813C4.7551 3.73919 4.27651 2.84066 4.13138 2.57203C6.37616 2.14283 5.09167 -0.744194 2.24787 0.182124C2.22008 0.191388 2.22625 0.22844 2.25096 0.222265C4.87553 -0.339702 5.28619 2.53806 3.15566 2.62761C3.39342 3.04754 3.79173 3.74227 3.95229 4.02635C4.38149 4.7921 5.10402 4.96193 5.77406 4.59758C5.82963 4.5667 5.87595 4.53273 5.90374 4.50186C5.85434 4.57905 5.80185 4.65624 5.74318 4.72726C5.45602 5.06382 4.24872 5.46831 3.40577 4.10045C3.21433 3.78859 2.7419 2.93947 2.55355 2.57203C4.23328 2.59055 4.51426 0.503248 2.73264 0.361213C1.95762 0.29637 0.70709 0.845986 0.209966 2.2262C0.0741055 2.59364 0 2.99196 0 3.40571C0 5.30467 1.54078 6.84544 3.43973 6.84544C5.33869 6.84544 6.87946 5.30467 6.87946 3.40571C6.87946 1.95757 5.98402 0.716301 4.71496 0.209914" fill="#009E5E"/>
<path d="M0.861475 8.11141H0.744141V7.81808H0.876914C1.00042 7.81808 1.07453 7.87057 1.07453 7.96011C1.07453 8.04966 0.994248 8.11141 0.861475 8.11141ZM1.04983 8.19478C1.16716 8.16699 1.24744 8.07436 1.24744 7.95702C1.24744 7.70383 1.04365 7.66987 0.839861 7.66987H0.577404V8.71352H0.744141V8.25962H0.824422C0.901616 8.25962 0.944844 8.25962 0.988072 8.35534L1.14863 8.7166H1.3339L1.1332 8.29667C1.10541 8.24109 1.08379 8.21639 1.04674 8.19787M1.51916 8.7166H2.11201V8.56839H1.68281V8.24727H2.07187V8.09906H1.68281V7.81808H2.11201V7.66987H1.51916V8.7166ZM2.46401 7.92923C2.46401 7.81499 2.58443 7.80264 2.63383 7.80264C2.70794 7.80264 2.74808 7.81499 2.82527 7.84587L2.83453 7.85204L2.85924 7.69765H2.85306C2.78513 7.66987 2.70485 7.65751 2.63074 7.65751C2.42695 7.65751 2.29109 7.76867 2.29109 7.94467C2.29109 8.12067 2.42387 8.18552 2.54429 8.24109C2.64618 8.28741 2.73264 8.33064 2.73264 8.42945C2.73264 8.54678 2.61839 8.58692 2.5412 8.58692C2.45783 8.58692 2.35902 8.54987 2.33123 8.53752H2.31888L2.30345 8.68882H2.30962C2.37755 8.71352 2.44857 8.73513 2.52267 8.73513C2.7666 8.73513 2.90555 8.62089 2.90555 8.42018C2.90555 8.21948 2.75734 8.14846 2.63692 8.09288C2.54429 8.04965 2.46401 8.00951 2.46401 7.92923ZM3.89671 8.19478C3.89671 8.37695 3.81026 8.58692 3.56633 8.58692C3.3224 8.58692 3.23594 8.37695 3.23594 8.19478C3.23594 8.06818 3.27608 7.95702 3.3471 7.88601C3.40268 7.83043 3.47678 7.80264 3.56324 7.80264C3.6497 7.80264 3.7238 7.83043 3.78247 7.88601C3.85349 7.95702 3.89363 8.06818 3.89363 8.19478M4.06654 8.19478C4.06654 7.87057 3.86584 7.65443 3.56324 7.65443C3.26064 7.65443 3.05994 7.87057 3.05994 8.19478C3.05994 8.51899 3.25755 8.73513 3.56324 8.73513C3.86892 8.73513 4.06654 8.52208 4.06654 8.19478ZM4.89714 8.7166H5.09784V7.67295H4.93419V8.47885C4.9064 8.43253 4.49265 7.67295 4.49265 7.67295H4.2765V8.7166H4.44015V7.89218C4.46794 7.9385 4.89405 8.7166 4.89405 8.7166M5.95005 8.31829H5.56718C5.57644 8.29667 5.74318 7.87983 5.75861 7.84278C5.77405 7.87983 5.94079 8.29667 5.95005 8.31829ZM6.2897 8.7166L5.84816 7.67295H5.68142L5.23679 8.7166H5.4097C5.4097 8.7166 5.50851 8.46959 5.51468 8.45724H6.00563L6.11062 8.7166H6.2897Z" fill="#F7922A"/>
<path d="M78.2647 5.92221C77.9621 5.92221 77.6379 5.71533 77.6379 5.38186C77.6379 4.81989 78.3913 4.73652 78.839 4.73652C78.839 4.73652 79.1632 4.74887 79.2188 4.74887V5.02368C79.2188 5.57947 78.8514 5.92221 78.2616 5.92221M80 6.45948L79.9938 6.41007C79.9753 6.27112 79.966 6.04263 79.966 5.71225V4.22705C79.966 3.1834 79.4936 2.69862 78.4777 2.69862C78.0609 2.69862 77.6564 2.81596 77.2735 3.04136L77.2488 3.05371L77.2921 3.72684L77.3569 3.67126C77.6194 3.45203 78.0084 3.31617 78.3728 3.31617C78.9563 3.31617 79.2003 3.56319 79.2157 4.16529C79.1323 4.16529 78.5549 4.15294 78.5549 4.15294C77.9189 4.15294 76.8443 4.41231 76.8443 5.37877C76.8443 6.12909 77.3291 6.54284 78.2029 6.54284C78.7834 6.54284 79.1262 6.24642 79.2867 6.05807V6.45948H80ZM75.3807 1.23504V2.06564H76.2144V1.23504H75.3807ZM75.4271 2.78508V6.45948H76.1743V2.78508H75.4271ZM73.1607 2.69862C72.6666 2.69862 72.2374 2.92711 72.012 3.2822V2.78199H71.2864V6.45639H72.0337V4.75196C72.0337 4.21778 72.1695 3.31926 73.0804 3.31926C73.596 3.35013 73.7967 3.69905 73.7967 4.55744V6.45948H74.544V4.28572C74.544 3.24824 74.0654 2.70171 73.1576 2.70171M68.6866 5.9253C68.384 5.9253 68.0597 5.71842 68.0597 5.38495C68.0597 4.82298 68.8132 4.73961 69.264 4.73961C69.264 4.73961 69.5882 4.75196 69.6437 4.75196V5.02677C69.6437 5.58256 69.2763 5.9253 68.6866 5.9253ZM70.4249 6.46256L70.4188 6.41316C70.4002 6.27421 70.391 6.04572 70.391 5.71533V4.23014C70.391 3.18648 69.9186 2.70171 68.9027 2.70171C68.4859 2.70171 68.0814 2.81904 67.6985 3.04445L67.6769 3.0568L67.7201 3.72992L67.7849 3.67434C68.0474 3.45512 68.4334 3.31926 68.7977 3.31926C69.3813 3.31926 69.6283 3.56627 69.6407 4.16838C69.5573 4.16838 68.983 4.15603 68.983 4.15603C68.3469 4.15603 67.2724 4.4154 67.2724 5.38186C67.2724 6.13218 67.7541 6.54593 68.631 6.54593C69.2115 6.54593 69.5542 6.24951 69.7148 6.06116V6.46256H70.4249ZM64.8145 5.9253C64.5891 5.9253 64.3977 5.84193 64.2371 5.68137C63.95 5.38803 63.8573 4.92179 63.8666 4.61301C63.8573 4.17456 63.9809 3.79477 64.2001 3.56936C64.3576 3.4088 64.5613 3.32543 64.8084 3.32543C65.5093 3.32543 65.8273 4.00473 65.8273 4.63463C65.8273 5.26452 65.5093 5.92839 64.8145 5.92839M65.8273 3.22662C65.5772 2.88697 65.1912 2.70789 64.6663 2.70789C63.5671 2.70789 63.0761 3.64038 63.0761 4.5667C63.0761 5.49302 63.4899 6.55211 64.6601 6.55211C65.2314 6.55211 65.639 6.29274 65.8551 6.02719V6.46565H66.5745V1.093H65.8273V3.22662ZM62.8662 2.7542C62.7334 2.72641 62.6315 2.70789 62.4339 2.70789C62.0819 2.70789 61.7299 2.93638 61.5292 3.26985V2.79434H60.8221V6.46874H61.5693V4.7921C61.5693 3.92754 61.9368 3.37175 62.5049 3.37175C62.6408 3.37175 62.7581 3.39027 62.8538 3.43041L62.9125 3.45512V2.76346L62.8631 2.7542H62.8662ZM58.4507 3.32852C59.0189 3.32852 59.2844 3.77933 59.2999 4.24249H57.5398C57.6016 3.79168 57.8702 3.32852 58.4538 3.32852M60.0934 4.77666C60.0934 3.40262 59.5469 2.7048 58.4662 2.7048C57.4503 2.7048 56.7401 3.47055 56.7401 4.56361C56.7401 5.84193 57.4163 6.54902 58.6422 6.54902C59.1702 6.54902 59.4604 6.43786 59.6951 6.34832L59.8186 6.302V5.52081L59.7476 5.57947C59.5994 5.69989 59.0992 5.92839 58.67 5.92839C58.0462 5.92839 57.5584 5.44361 57.5368 4.81989H60.0934V4.77666ZM54.6744 3.79785H54.0229V2.16445H54.5787C54.9956 2.16445 55.6193 2.3775 55.6193 2.96725C55.6193 3.55701 55.1129 3.78859 54.6775 3.78859M54.5664 1.46044H53.2355V6.45948H54.026V4.49568H54.6713C55.786 4.49568 56.453 3.92754 56.453 2.97343C56.453 2.01932 55.8015 1.46044 54.5664 1.46044ZM22.4601 4.68094C22.596 4.83842 23.9978 6.45021 23.9978 6.45021H25.0631C25.0631 6.45021 23.2074 4.47407 23.1518 4.4154C23.2105 4.35982 24.8624 2.78508 24.8624 2.78508H23.8373C23.8373 2.78508 22.5929 4.04487 22.4601 4.17764V1.09609H21.716V6.44712H22.4601V4.67786V4.68094ZM17.5661 2.78199V6.44712H18.3102V4.74887C18.3102 4.2147 18.4461 3.31617 19.357 3.31617C19.8726 3.34705 20.0702 3.69596 20.0702 4.55126V6.44712H20.8144V4.27645C20.8144 3.24206 20.3358 2.69553 19.4311 2.69553C18.9401 2.69553 18.5109 2.92403 18.2886 3.27912V2.78199H17.563H17.5661ZM14.9786 5.91295C14.6791 5.91295 14.3549 5.70607 14.3549 5.3726C14.3549 4.81063 15.1052 4.72726 15.5529 4.72726C15.5529 4.72726 15.8771 4.73652 15.9327 4.73961V5.01442C15.9327 5.56712 15.5683 5.91295 14.9786 5.91295ZM14.923 6.53358C15.5004 6.53358 15.8431 6.23716 16.0037 6.04881V6.44712H16.7139L16.7077 6.39772C16.6892 6.25569 16.6799 6.03028 16.6799 5.69989V4.21778C16.6799 3.17722 16.2106 2.69245 15.1978 2.69245C14.784 2.69245 14.3796 2.80669 13.9967 3.03519L13.9751 3.04754L14.0183 3.72066L14.0831 3.66508C14.3425 3.44585 14.7316 3.30999 15.0928 3.30999C15.6764 3.30999 15.9203 3.5601 15.9327 4.15603C15.8493 4.15603 15.275 4.14368 15.275 4.14368C14.642 4.14368 13.5675 4.39996 13.5675 5.36642C13.5675 6.11365 14.0492 6.52432 14.923 6.52432M10.9151 4.20852C11.4864 4.20852 12.141 4.30115 12.141 5.02986C12.141 5.5486 11.7828 5.78018 10.9831 5.78018H10.4983V4.20852H10.9151ZM10.5014 2.12431H11.1961C11.4555 2.12431 12.0576 2.19224 12.0576 2.80978C12.0576 3.49834 11.508 3.55392 10.8441 3.55392H10.5014V2.12431ZM12.845 2.73259C12.845 1.88346 12.2521 1.45427 11.0819 1.45427H9.71091V6.44712H11.0602C12.3447 6.44712 12.9716 6.00558 12.9716 5.09779C12.9716 4.46789 12.5732 4.014 11.9495 3.89975C12.5485 3.70831 12.845 3.32852 12.845 2.73876M48.0173 5.90986C47.7178 5.90986 47.3936 5.70298 47.3936 5.36951C47.3936 4.80754 48.1439 4.72417 48.5916 4.72417C48.5916 4.72417 48.9158 4.73344 48.9714 4.73652V5.01133C48.9714 5.56403 48.607 5.90986 48.0173 5.90986ZM49.7526 6.44404L49.7433 6.39463C49.7248 6.25569 49.7155 6.02719 49.7155 5.69681V4.2147C49.7155 3.17413 49.2462 2.68936 48.2334 2.68936C47.8197 2.68936 47.4152 2.80361 47.0323 3.0321L47.0107 3.04445L47.0539 3.71757L47.1188 3.66199C47.3781 3.44277 47.7672 3.30691 48.1284 3.30691C48.712 3.30691 48.956 3.55701 48.9683 4.15294C48.8849 4.15294 48.3106 4.14059 48.3106 4.14059C47.6776 4.14059 46.6031 4.39687 46.6031 5.36333C46.6031 6.11056 47.0848 6.52123 47.9586 6.52123C48.536 6.52123 48.8788 6.22481 49.0393 6.03646V6.43477H49.7495L49.7526 6.44404ZM42.7311 2.7789V6.44404H43.4783V4.74579C43.4783 4.21161 43.6142 3.31308 44.522 3.31308C45.0376 3.34396 45.2383 3.69287 45.2383 4.54817V6.44404H45.9825V4.27336C45.9825 3.23898 45.5039 2.69245 44.5992 2.69245C44.1082 2.69245 43.679 2.92094 43.4567 3.27603V2.7789H42.7311ZM40.2115 5.90986C39.4705 5.90986 39.1308 5.23673 39.1308 4.60993C39.1308 3.98312 39.5106 3.31308 40.2115 3.31308C40.9124 3.31308 41.286 3.98312 41.286 4.60993C41.286 5.23673 40.9495 5.90986 40.2115 5.90986ZM40.2115 6.53049C41.2737 6.53049 42.0734 5.70607 42.0734 4.61301C42.0734 3.51996 41.3077 2.69553 40.2115 2.69553C39.1154 2.69553 38.3434 3.48291 38.3434 4.61301C38.3434 5.74312 39.1462 6.53049 40.2115 6.53049ZM36.4846 5.90986C36.3148 5.90986 35.9443 5.83267 35.6849 5.66284L35.6231 5.6227L35.5799 6.31126L35.6046 6.32362C35.9381 6.5027 36.3148 6.52432 36.6081 6.52432C37.2504 6.52432 37.8988 6.16614 37.8988 5.36642C37.8988 4.70256 37.4048 4.47715 36.9694 4.28263C36.6359 4.13133 36.3488 4.00164 36.3488 3.70522C36.3488 3.4088 36.6637 3.31308 36.9385 3.31308C37.0806 3.31308 37.4665 3.39954 37.6116 3.48908L37.6703 3.52305L37.7351 2.84375L37.7012 2.83448C37.4603 2.76346 37.1948 2.69245 36.8675 2.69245C36.0616 2.69245 35.5614 3.1309 35.5614 3.83799C35.5614 4.42157 36.0523 4.65933 36.4846 4.8693C36.8212 5.03294 37.1114 5.17498 37.1114 5.43744C37.1114 5.88516 36.5865 5.90677 36.4815 5.90677M33.3444 3.30999C33.9125 3.30999 34.175 3.7608 34.1873 4.22087H32.4304C32.4922 3.77006 32.7608 3.30999 33.3413 3.30999M34.9778 4.75505C34.9778 3.3841 34.4313 2.68936 33.3567 2.68936C32.344 2.68936 31.6369 3.45203 31.6369 4.542C31.6369 5.82032 32.31 6.52123 33.5327 6.52123C34.0577 6.52123 34.3479 6.41007 34.5826 6.32362L34.7061 6.2773V5.4961L34.6351 5.55477C34.4869 5.67519 33.9897 5.90368 33.5605 5.90368C32.9399 5.90368 32.452 5.41891 32.4304 4.79519H34.9809V4.75196L34.9778 4.75505ZM30.1764 2.83757C30.1764 3.28838 29.7966 3.5601 29.1605 3.5601H28.6078V2.16445H29.2377C29.8367 2.16445 30.1764 2.41146 30.1764 2.84375M31.007 2.8314C31.007 1.62409 30.0251 1.46353 29.0617 1.46353H27.8174V6.44712H28.6047V4.27028H28.9814C29.352 4.27028 29.5588 4.27028 29.7657 4.72108L30.5284 6.44404H31.4238L30.4697 4.43084C30.3339 4.16838 30.2289 4.04796 30.059 3.9615C30.6303 3.82256 31.007 3.38101 31.007 2.82831" fill="black"/>
</g>
<defs>
<clipPath id="clip0_801_7541">
<rect width="80" height="8.73513" fill="white"/>
</clipPath>
</defs>
</svg>
