<svg width="81" height="19" viewBox="0 0 81 19" fill="none" xmlns="http://www.w3.org/2000/svg">
<g clip-path="url(#clip0_801_8431)">
<path fill-rule="evenodd" clip-rule="evenodd" d="M0.5 16.0629C0.918898 16.1408 1.57402 16.1936 2.33307 16.1936C3.5252 16.1936 4.4937 15.9842 5.18819 15.4605C5.76378 15.0282 6.24882 14.3212 6.24882 13.4172C6.26142 12.3566 5.5937 11.6889 4.79528 11.4534V11.4275C5.80315 11.1653 6.70709 10.3401 6.70709 9.22746C6.70709 8.65108 6.47087 8.17943 6.06535 7.85266C5.5937 7.43297 4.93937 7.23691 4.03543 7.23691C3.31496 7.23691 2.67402 7.31565 2.13701 7.42037L0.5 16.0629ZM3.07953 8.19282C3.24961 8.14006 3.57717 8.10148 3.98346 8.10148C4.93937 8.10148 5.5811 8.46762 5.5811 9.3188C5.5811 10.3928 4.59843 11.0471 3.34173 11.0471H2.52992L3.07953 8.19282ZM2.35984 11.8723H3.23701C4.23228 11.8723 5.10945 12.3306 5.10945 13.3653C5.10945 14.7794 3.90472 15.3164 2.62126 15.3031C2.32047 15.3031 1.99291 15.2897 1.71811 15.2511L2.35984 11.8723ZM12.4551 16.1282C12.4291 15.4212 12.5205 14.2952 12.7307 13.1952L13.3717 9.89518C12.9402 9.75108 12.2724 9.64636 11.6693 9.64636C8.9063 9.64636 7.28268 11.9771 7.28268 14.1771C7.28268 15.3818 7.98976 16.2723 9.10315 16.2723C10.0063 16.2723 10.8709 15.8007 11.5646 14.4912H11.5913C11.5126 15.1464 11.4472 15.7487 11.4472 16.1282H12.4551ZM11.7874 12.5141C11.4732 14.2031 10.3992 15.3818 9.49606 15.3818C8.65827 15.3818 8.40945 14.6881 8.40945 13.9802C8.42205 12.2259 9.75827 10.5101 11.3945 10.5101C11.7614 10.5101 11.9969 10.5629 12.1543 10.6023L11.7874 12.5141ZM15.1661 16.1282L15.7417 13.0511C16.0299 11.4794 17.1299 10.5495 17.9024 10.5495C18.6488 10.5495 18.8976 11.0212 18.8976 11.6629C18.8976 11.9251 18.8583 12.2259 18.8063 12.4747L18.1126 16.1282H19.1992L19.9063 12.4353C19.9717 12.0952 20.0236 11.6889 20.0236 11.4141C20.0236 10.0786 19.1732 9.64636 18.4134 9.64636C17.4835 9.64636 16.6323 10.144 16.0693 11.0345H16.0433L16.2008 9.79045H15.2315C15.1528 10.3141 15.074 10.9298 14.9299 11.6369L14.0787 16.1282H15.1661ZM22.1583 16.1282L22.6165 13.7078L23.4157 12.9857L24.9346 16.1282H26.1394L24.2402 12.3834L27.0031 9.79045H25.6677L23.4283 12.0054C23.2717 12.1889 23.0354 12.4227 22.8394 12.6448H22.8134L23.926 6.83061H22.8394L21.0843 16.1282H22.1583Z" fill="#095491"/>
<path fill-rule="evenodd" clip-rule="evenodd" d="M39.6724 15.655C40.0709 15.9668 40.9047 16.266 42.0756 16.292C43.9433 16.292 45.4866 15.2786 45.4866 13.329C45.4866 12.2897 44.8394 11.5755 43.8189 11.0164C43.1087 10.6007 42.5984 10.2889 42.5984 9.78179C42.5984 9.30148 43.0339 8.85975 43.8685 8.85975C44.5654 8.84636 45.163 9.0936 45.437 9.24951L45.9976 7.70305C45.6362 7.48179 45.0386 7.24793 44.0181 7.24793C42.1874 7.24793 40.7055 8.32667 40.7055 10.0936C40.7055 11.2377 41.5528 11.9133 42.4488 12.4196C43.2205 12.8353 43.5819 13.1605 43.5819 13.6542C43.5819 14.3432 42.9472 14.681 42.2496 14.681C41.478 14.681 40.7677 14.4338 40.2701 14.122L39.6724 15.655ZM51.0008 9.79518L50.463 12.7314C50.2268 14.0054 49.6039 14.7716 48.9961 14.7716C48.5354 14.7716 48.3882 14.4471 48.3882 14.0314C48.3882 13.7968 48.4252 13.4857 48.4756 13.1991L49.0835 9.79518H47.2921L46.6575 13.3424C46.5701 13.7842 46.5331 14.1613 46.5331 14.5117C46.5331 15.7204 47.1181 16.292 48.089 16.292C48.822 16.292 49.5693 15.9416 50.1898 15.1094H50.2142L50.1024 16.1487H51.6858C51.7732 15.5771 51.8598 14.8889 52.0094 14.0834L52.7937 9.79518H51.0008ZM54.9496 16.1487L56.6433 6.92352H54.8504L53.1567 16.1487H54.9496ZM58.0504 8.59912L57.826 9.79518H57.0417L56.7929 11.2109H57.5646L57.0913 13.7322C57.0047 14.2259 56.9669 14.5637 56.9669 14.9149C56.9669 15.707 57.478 16.292 58.548 16.292C58.9346 16.292 59.3827 16.2401 59.6071 16.1487L59.8181 14.681C59.6567 14.707 59.4819 14.707 59.3205 14.707C58.9346 14.707 58.8102 14.4857 58.8102 14.1739C58.8102 13.9534 58.8598 13.6149 58.9094 13.3684L59.3205 11.2109H60.615L60.8772 9.79518H59.5819L59.8929 8.06683L58.0504 8.59912ZM65.6953 14.4338C65.2102 14.681 64.6496 14.8369 63.9898 14.8369C63.4669 14.8369 63.0559 14.6676 62.8189 14.3432C62.6945 14.1613 62.6323 13.8755 62.6323 13.6928C65.0724 13.7582 66.5795 13.1731 66.5795 11.5495C66.5795 10.3668 65.6953 9.65187 64.463 9.65187C62.2591 9.65187 60.9142 11.666 60.9142 13.6023C60.9142 15.2527 61.811 16.292 63.5535 16.292C64.226 16.292 65.1102 16.1621 65.8197 15.7849L65.6953 14.4338ZM64.8984 11.5621C64.8984 12.1338 64.2016 12.3416 62.8063 12.329C62.9315 11.7314 63.4039 11.0164 64.2386 11.0164C64.6496 11.0164 64.8984 11.2377 64.8984 11.5495V11.5621ZM68.7583 16.1487L69.2685 13.329C69.5181 11.9259 70.2024 11.159 70.7882 11.159C71.2362 11.159 71.3858 11.4716 71.3858 11.9133C71.3858 12.1471 71.3606 12.407 71.3236 12.6275L70.6882 16.1487H72.4811L73.1535 12.459C73.2032 12.1471 73.2535 11.666 73.2535 11.3802C73.2535 10.2889 72.6929 9.65187 71.6969 9.65187C70.8874 9.65187 70.1283 10.0156 69.5551 10.8471H69.5307L69.6551 9.79518H68.0614C67.9866 10.3534 67.8866 11.055 67.737 11.8613L66.9654 16.1487H68.7583ZM73.963 18.4621C74.374 18.7094 75.1331 18.8653 75.9425 18.8653C76.752 18.8653 77.6362 18.696 78.2961 18.1503C79.0307 17.5393 79.3669 16.4999 79.5787 15.3306L80.5 10.0936C79.8646 9.80778 79.1055 9.65187 78.2465 9.65187C75.5945 9.65187 74.1622 11.7314 74.1622 13.8361C74.1748 15.0708 74.9095 16.0968 76.1173 16.0968C76.8394 16.0968 77.3874 15.7983 77.8598 15.1613H77.885L77.7858 15.6944C77.5362 16.9676 76.8646 17.3834 75.9677 17.3834C75.4575 17.3834 74.7102 17.2408 74.374 17.033L73.963 18.4621ZM78.2465 12.9007C78.0591 13.9786 77.4622 14.655 76.8764 14.655C76.3291 14.655 76.0551 14.1873 76.0551 13.5503C76.0551 12.3416 76.8268 11.081 77.9102 11.081C78.1591 11.081 78.4205 11.1338 78.5575 11.1983L78.2465 12.9007Z" fill="#095491"/>
<path fill-rule="evenodd" clip-rule="evenodd" d="M35.9031 17.3117C35.9031 17.318 35.9024 17.3243 35.9008 17.333C35.8992 17.3408 35.8961 17.3511 35.8921 17.3637L35.5669 18.4117C35.5646 18.4212 35.5606 18.429 35.5551 18.4345C35.5504 18.4401 35.5425 18.4448 35.5339 18.4479C35.5236 18.4511 35.511 18.4534 35.4945 18.455C35.478 18.4558 35.4575 18.4566 35.4339 18.4566C35.4079 18.4566 35.3866 18.4558 35.3693 18.4542C35.3528 18.4519 35.3386 18.4495 35.3283 18.4471C35.3181 18.4432 35.311 18.4393 35.3063 18.433C35.3008 18.4275 35.2976 18.4204 35.2953 18.4117L35.063 17.6109L35.0606 17.5999L35.0583 17.6109L34.8433 18.4117C34.8409 18.4212 34.837 18.429 34.8323 18.4345C34.8268 18.4401 34.8189 18.4448 34.8087 18.4479C34.7976 18.4511 34.7835 18.4534 34.7669 18.455C34.7504 18.4558 34.7299 18.4566 34.7047 18.4566C34.6795 18.4566 34.6591 18.4558 34.6433 18.4542C34.6276 18.4519 34.6142 18.4495 34.6039 18.4471C34.5937 18.4432 34.5858 18.4393 34.5819 18.433C34.5764 18.4275 34.5724 18.4204 34.5701 18.4117L34.248 17.3637C34.2441 17.3511 34.2409 17.3408 34.2394 17.333C34.2378 17.3243 34.237 17.318 34.237 17.3117C34.237 17.3046 34.2386 17.2983 34.2417 17.2936C34.2449 17.2897 34.2504 17.2857 34.2583 17.2826C34.2661 17.2802 34.2764 17.2786 34.2898 17.2779C34.3032 17.2771 34.3189 17.2763 34.3378 17.2763C34.3598 17.2763 34.3787 17.2771 34.3921 17.2779C34.4063 17.2794 34.4173 17.281 34.4244 17.2842C34.4315 17.2873 34.437 17.2912 34.4402 17.2968C34.4433 17.3015 34.4465 17.3078 34.4488 17.3157L34.715 18.2275L34.7173 18.2377L34.7197 18.2275L34.9638 17.3157C34.9654 17.3078 34.9685 17.3015 34.9717 17.2968C34.9756 17.2912 34.9811 17.2873 34.9882 17.2842C34.9961 17.281 35.0055 17.2794 35.0181 17.2779C35.0307 17.2771 35.048 17.2763 35.0685 17.2763C35.0882 17.2763 35.1039 17.2771 35.1165 17.2779C35.1291 17.2794 35.1394 17.281 35.1465 17.2842C35.1543 17.2873 35.1591 17.2912 35.1622 17.296C35.1654 17.3007 35.1685 17.3062 35.1701 17.3133L35.4339 18.2275L35.4362 18.2377L35.437 18.2275L35.7 17.3157C35.7008 17.3078 35.7039 17.3015 35.7079 17.2968C35.711 17.2912 35.7173 17.2873 35.7252 17.2842C35.7323 17.281 35.7425 17.2794 35.7567 17.2779C35.7701 17.2771 35.7874 17.2763 35.8087 17.2763C35.8283 17.2763 35.8441 17.2771 35.8559 17.2779C35.8677 17.2786 35.8772 17.2802 35.8843 17.2842C35.8905 17.2865 35.8961 17.2905 35.8992 17.2944C35.9016 17.2991 35.9031 17.3046 35.9031 17.3117ZM37.0992 18.418C37.0992 18.4251 37.0976 18.4306 37.0953 18.4353C37.0921 18.4393 37.0866 18.4432 37.0795 18.4471C37.0724 18.4495 37.063 18.4519 37.0504 18.4542C37.0386 18.4558 37.0244 18.4566 37.0071 18.4566C36.989 18.4566 36.9732 18.4558 36.9614 18.4542C36.9496 18.4519 36.9402 18.4495 36.9331 18.4471C36.926 18.4432 36.9213 18.4393 36.9189 18.4353C36.9165 18.4306 36.9157 18.4251 36.9157 18.418V18.2723C36.852 18.3416 36.7906 18.392 36.7291 18.4235C36.6677 18.4558 36.6055 18.4716 36.5425 18.4716C36.4693 18.4716 36.4071 18.4597 36.3567 18.4345C36.3063 18.4101 36.2654 18.3771 36.2346 18.3345C36.2039 18.2928 36.1811 18.244 36.1677 18.1881C36.1543 18.1314 36.1472 18.0637 36.1472 17.9834V17.3141C36.1472 17.3078 36.1488 17.3023 36.152 17.2975C36.1543 17.2936 36.1598 17.2897 36.1685 17.2857C36.1764 17.2818 36.1874 17.2794 36.2 17.2779C36.2134 17.2771 36.2291 17.2763 36.2496 17.2763C36.2693 17.2763 36.285 17.2771 36.2984 17.2779C36.311 17.2794 36.3213 17.2818 36.3299 17.2857C36.337 17.2897 36.3425 17.2936 36.3457 17.2975C36.3496 17.3023 36.3512 17.3078 36.3512 17.3141V17.9574C36.3512 18.0219 36.3559 18.0739 36.3654 18.1125C36.374 18.1511 36.3882 18.1842 36.4079 18.2117C36.4268 18.2393 36.452 18.2605 36.4811 18.2755C36.5102 18.2905 36.5449 18.2983 36.5843 18.2983C36.6346 18.2983 36.685 18.2802 36.7354 18.244C36.7858 18.2086 36.8394 18.1558 36.8961 18.0865V17.3141C36.8961 17.3078 36.8969 17.3023 36.9 17.2975C36.9032 17.2936 36.9087 17.2897 36.9165 17.2857C36.9244 17.2818 36.9354 17.2794 36.948 17.2779C36.9606 17.2771 36.9772 17.2763 36.9976 17.2763C37.0173 17.2763 37.0331 17.2771 37.0465 17.2779C37.0591 17.2794 37.0701 17.2818 37.0772 17.2857C37.0843 17.2897 37.0898 17.2936 37.0937 17.2975C37.0976 17.3023 37.0992 17.3078 37.0992 17.3141V18.418ZM37.7 18.4676C37.7 18.5487 37.6937 18.6149 37.6819 18.6653C37.6693 18.7149 37.6504 18.7574 37.6244 18.792C37.5984 18.8259 37.5654 18.8519 37.5236 18.8692C37.4835 18.8873 37.4339 18.896 37.3764 18.896C37.3504 18.896 37.3283 18.8944 37.3094 18.8912C37.2913 18.8873 37.2772 18.8842 37.2677 18.8802C37.2575 18.8755 37.2512 18.8716 37.2472 18.866C37.2433 18.8605 37.2409 18.8542 37.2394 18.8471C37.2378 18.8401 37.2362 18.833 37.2362 18.8259C37.2354 18.8188 37.2354 18.8094 37.2354 18.7991C37.2354 18.7842 37.2362 18.7716 37.237 18.7605C37.2386 18.7503 37.2409 18.7416 37.2433 18.7345C37.2465 18.7282 37.2496 18.7235 37.2535 18.7212C37.2567 18.718 37.2614 18.7164 37.2677 18.7164C37.2724 18.7164 37.2819 18.718 37.2961 18.7196C37.3102 18.722 37.3268 18.7227 37.3457 18.7227C37.3724 18.7227 37.3953 18.7188 37.4142 18.7101C37.4339 18.7023 37.4488 18.6889 37.4614 18.6708C37.474 18.6527 37.4827 18.6283 37.4882 18.5991C37.4937 18.57 37.4968 18.5259 37.4968 18.466V17.3141C37.4968 17.3086 37.4984 17.3031 37.5016 17.2983C37.5047 17.2936 37.5102 17.2897 37.5181 17.2857C37.526 17.2826 37.5362 17.2802 37.5496 17.2786C37.5622 17.2771 37.5787 17.2763 37.5984 17.2763C37.6181 17.2763 37.6346 17.2771 37.6472 17.2786C37.6606 17.2802 37.6709 17.2826 37.6787 17.2857C37.6866 17.2897 37.6921 17.2936 37.6953 17.2983C37.6984 17.3031 37.7 17.3086 37.7 17.3141V18.4676ZM37.7228 16.9424C37.7228 16.9897 37.7142 17.0219 37.6961 17.0393C37.678 17.0566 37.6449 17.0653 37.5969 17.0653C37.5488 17.0653 37.5165 17.0566 37.5 17.0401C37.4827 17.0235 37.474 16.992 37.474 16.9448C37.474 16.8975 37.4827 16.8645 37.5008 16.8479C37.5181 16.8306 37.5504 16.822 37.5992 16.822C37.6472 16.822 37.6803 16.8298 37.6968 16.8471C37.7142 16.8637 37.7228 16.8952 37.7228 16.9424ZM39.0189 18.418C39.0189 18.4251 39.0181 18.4306 39.015 18.4353C39.0126 18.4393 39.0071 18.4432 38.9992 18.4471C38.9921 18.4495 38.9827 18.4519 38.9709 18.4542C38.9591 18.4558 38.9441 18.4566 38.9276 18.4566C38.9087 18.4566 38.8929 18.4558 38.8819 18.4542C38.8693 18.4519 38.8606 18.4495 38.8528 18.4471C38.8465 18.4432 38.8417 18.4393 38.8394 18.4353C38.837 18.4306 38.8354 18.4251 38.8354 18.418V18.2723C38.7724 18.3416 38.7102 18.392 38.6488 18.4235C38.5882 18.4558 38.5252 18.4716 38.463 18.4716C38.389 18.4716 38.3268 18.4597 38.2772 18.4345C38.2268 18.4101 38.1858 18.3771 38.1543 18.3345C38.1236 18.2928 38.1016 18.244 38.0874 18.1881C38.074 18.1314 38.0677 18.0637 38.0677 17.9834V17.3141C38.0677 17.3078 38.0693 17.3023 38.0717 17.2975C38.0748 17.2936 38.0803 17.2897 38.0882 17.2857C38.0969 17.2818 38.1071 17.2794 38.1205 17.2779C38.1331 17.2771 38.1496 17.2763 38.1693 17.2763C38.189 17.2763 38.2055 17.2771 38.2181 17.2779C38.2315 17.2794 38.2417 17.2818 38.2496 17.2857C38.2575 17.2897 38.263 17.2936 38.2661 17.2975C38.2693 17.3023 38.2709 17.3078 38.2709 17.3141V17.9574C38.2709 18.0219 38.2756 18.0739 38.285 18.1125C38.2945 18.1511 38.3087 18.1842 38.3276 18.2117C38.3472 18.2393 38.3717 18.2605 38.4008 18.2755C38.4307 18.2905 38.4646 18.2983 38.5039 18.2983C38.5543 18.2983 38.6055 18.2802 38.6559 18.244C38.7063 18.2086 38.7591 18.1558 38.8157 18.0865V17.3141C38.8157 17.3078 38.8173 17.3023 38.8205 17.2975C38.8228 17.2936 38.8283 17.2897 38.837 17.2857C38.8449 17.2818 38.8551 17.2794 38.8677 17.2779C38.8811 17.2771 38.8968 17.2763 38.9173 17.2763C38.937 17.2763 38.9535 17.2771 38.9669 17.2779C38.9795 17.2794 38.9898 17.2818 38.9968 17.2857C39.0047 17.2897 39.0102 17.2936 39.0142 17.2975C39.0173 17.3023 39.0189 17.3078 39.0189 17.3141V18.418ZM40.3386 18.418C40.3386 18.4251 40.337 18.4306 40.3339 18.4353C40.3315 18.4408 40.326 18.444 40.3197 18.4471C40.3126 18.4503 40.3032 18.4519 40.2921 18.4542C40.2803 18.4558 40.2661 18.4566 40.2504 18.4566C40.2331 18.4566 40.2189 18.4558 40.2071 18.4542C40.1953 18.4519 40.1866 18.4503 40.1787 18.4471C40.1717 18.444 40.1661 18.4408 40.163 18.4353C40.1598 18.4306 40.1583 18.4243 40.1583 18.418V18.2716C40.1 18.3345 40.0402 18.3834 39.978 18.4188C39.915 18.4542 39.8465 18.4716 39.7724 18.4716C39.6913 18.4716 39.622 18.4558 39.5654 18.4243C39.5079 18.3928 39.4614 18.3503 39.426 18.2968C39.3913 18.2432 39.3654 18.1802 39.3488 18.1078C39.3323 18.0353 39.3236 17.959 39.3236 17.8794C39.3236 17.7842 39.3339 17.6983 39.3543 17.6227C39.3748 17.5456 39.4047 17.4802 39.4457 17.4267C39.485 17.3723 39.5346 17.3314 39.5945 17.3023C39.6535 17.2731 39.7213 17.259 39.7992 17.259C39.8638 17.259 39.9228 17.2731 39.9764 17.3007C40.0299 17.3298 40.0827 17.3708 40.1346 17.4259V16.7857C40.1346 16.7802 40.1362 16.7747 40.1394 16.7692C40.1425 16.7637 40.1472 16.7597 40.1559 16.7566C40.1638 16.7542 40.174 16.7519 40.1866 16.7495C40.2 16.7471 40.2158 16.7464 40.2354 16.7464C40.2559 16.7464 40.2724 16.7471 40.2858 16.7495C40.2984 16.7519 40.3094 16.7542 40.3165 16.7566C40.3236 16.7597 40.3291 16.7637 40.3331 16.7692C40.337 16.7747 40.3386 16.7802 40.3386 16.7857V18.418ZM40.1346 17.6416C40.0803 17.5731 40.0276 17.5212 39.9772 17.4857C39.926 17.4503 39.8724 17.4322 39.8173 17.4322C39.7661 17.4322 39.722 17.444 39.6866 17.4692C39.6504 17.4936 39.6213 17.5259 39.5992 17.566C39.5764 17.6054 39.5606 17.6511 39.5504 17.7023C39.5402 17.7527 39.5346 17.8038 39.5346 17.8566C39.5346 17.9117 39.5394 17.9668 39.548 18.0196C39.5559 18.0723 39.5717 18.1196 39.5921 18.1613C39.6134 18.2031 39.6417 18.2361 39.6764 18.2613C39.7118 18.2857 39.7559 18.2983 39.8087 18.2983C39.8354 18.2983 39.8614 18.2944 39.8866 18.2873C39.911 18.2802 39.937 18.2676 39.963 18.2503C39.9882 18.2338 40.0165 18.2109 40.0449 18.1834C40.0732 18.1566 40.1031 18.1227 40.1346 18.0826V17.6416ZM41.6197 18.4172C41.6197 18.4235 41.6181 18.4298 41.615 18.4345C41.6118 18.4393 41.6063 18.4432 41.5984 18.4471C41.5906 18.4495 41.5795 18.4519 41.5661 18.4542C41.552 18.4558 41.5346 18.4566 41.5134 18.4566C41.4913 18.4566 41.4732 18.4558 41.4591 18.455C41.4449 18.4534 41.4323 18.4511 41.4228 18.4487C41.4126 18.4456 41.4047 18.4416 41.3992 18.4361C41.3929 18.4306 41.3874 18.4243 41.3819 18.4172L40.9165 17.8062V18.418C40.9165 18.4251 40.915 18.4306 40.9118 18.4353C40.9087 18.4393 40.9032 18.4432 40.8961 18.4471C40.8882 18.4495 40.878 18.4519 40.8646 18.4542C40.852 18.4558 40.8354 18.4566 40.815 18.4566C40.7945 18.4566 40.778 18.4558 40.7654 18.4542C40.752 18.4519 40.7417 18.4495 40.7339 18.4471C40.726 18.4432 40.7205 18.4393 40.7173 18.4353C40.715 18.4306 40.7134 18.4251 40.7134 18.418V16.781C40.7134 16.7739 40.715 16.7684 40.7173 16.7637C40.7205 16.759 40.726 16.7542 40.7339 16.7511C40.7417 16.7479 40.752 16.7456 40.7654 16.744C40.778 16.7424 40.7945 16.7416 40.815 16.7416C40.8354 16.7416 40.852 16.7424 40.8646 16.744C40.878 16.7456 40.8882 16.7479 40.8961 16.7511C40.9032 16.7542 40.9087 16.759 40.9118 16.7637C40.915 16.7684 40.9165 16.7739 40.9165 16.781V17.7779L41.3323 17.3196C41.3394 17.3109 41.3465 17.3046 41.3535 17.2991C41.3606 17.2936 41.3693 17.2897 41.3795 17.2857C41.3898 17.2818 41.4016 17.2794 41.4157 17.2779C41.4291 17.2771 41.4465 17.2763 41.4661 17.2763C41.4866 17.2763 41.5032 17.2771 41.5173 17.2779C41.5307 17.2794 41.5425 17.281 41.5504 17.2842C41.5591 17.2873 41.5654 17.2912 41.5693 17.2952C41.5732 17.2999 41.5748 17.3054 41.5748 17.3133C41.5748 17.3227 41.5724 17.333 41.5669 17.3424C41.5614 17.3527 41.5528 17.3637 41.5402 17.3771L41.1425 17.7771L41.5905 18.359C41.6008 18.3739 41.6087 18.3842 41.6134 18.3936C41.6181 18.4023 41.6197 18.4101 41.6197 18.4172ZM42.6433 18.4196C42.6433 18.429 42.6394 18.4369 42.6339 18.4416C42.6268 18.4471 42.6181 18.4503 42.6063 18.4527C42.5953 18.455 42.5779 18.4566 42.5559 18.4566C42.5354 18.4566 42.5181 18.455 42.5055 18.4527C42.4929 18.4503 42.4835 18.4471 42.478 18.4416C42.4717 18.4369 42.4693 18.4298 42.4693 18.4196V18.3094C42.4205 18.3605 42.3669 18.4007 42.3079 18.429C42.2488 18.4574 42.1858 18.4716 42.1197 18.4716C42.0614 18.4716 42.0087 18.4637 41.9622 18.4487C41.915 18.4338 41.8748 18.4117 41.8417 18.3834C41.8087 18.355 41.7827 18.3196 41.7646 18.2779C41.7457 18.2361 41.737 18.1889 41.737 18.1353C41.737 18.0731 41.7488 18.0188 41.7748 17.9731C41.8 17.9275 41.8362 17.8897 41.8843 17.859C41.9315 17.829 41.9898 17.8062 42.0583 17.7912C42.1268 17.7763 42.2039 17.7684 42.2898 17.7684H42.4425V17.6826C42.4425 17.6401 42.4378 17.6023 42.4291 17.5692C42.4197 17.5369 42.4055 17.5094 42.385 17.4873C42.3654 17.466 42.3394 17.4495 42.3079 17.4385C42.2756 17.4275 42.2362 17.4219 42.1898 17.4219C42.1402 17.4219 42.0953 17.4275 42.0559 17.4401C42.0165 17.4519 41.9811 17.4653 41.952 17.4794C41.922 17.4944 41.8968 17.507 41.8772 17.5196C41.8575 17.5314 41.8417 17.5377 41.8323 17.5377C41.826 17.5377 41.8197 17.5361 41.815 17.5322C41.8102 17.5298 41.8063 17.5243 41.8024 17.518C41.7984 17.5117 41.7961 17.5031 41.7945 17.4928C41.7929 17.4826 41.7921 17.4716 41.7921 17.459C41.7921 17.4393 41.7929 17.4227 41.7961 17.4109C41.7992 17.3991 41.8063 17.3881 41.8173 17.3779C41.8276 17.3668 41.8472 17.3542 41.874 17.3401C41.9008 17.3259 41.9323 17.3125 41.9669 17.2999C42.0016 17.2881 42.0402 17.2786 42.0819 17.2708C42.1236 17.2621 42.1661 17.259 42.2079 17.259C42.2874 17.259 42.3551 17.2676 42.4102 17.2857C42.4661 17.3038 42.511 17.3306 42.5449 17.3653C42.5795 17.3999 42.6039 17.4432 42.6197 17.4944C42.6354 17.5456 42.6433 17.6062 42.6433 17.6747V18.4196ZM42.4425 17.9141H42.2693C42.2142 17.9141 42.1661 17.9188 42.1252 17.9282C42.0843 17.9377 42.0504 17.9519 42.0236 17.97C41.9968 17.9889 41.9772 18.0101 41.9638 18.0361C41.9512 18.0621 41.9449 18.092 41.9449 18.1251C41.9449 18.1826 41.963 18.2282 41.9992 18.2621C42.0362 18.296 42.0866 18.3133 42.152 18.3133C42.2047 18.3133 42.2543 18.2999 42.2992 18.2731C42.3449 18.2464 42.3921 18.2046 42.4425 18.1487V17.9141ZM43.9638 18.418C43.9638 18.4251 43.9622 18.4306 43.9591 18.4353C43.9551 18.4393 43.9504 18.4432 43.9433 18.4471C43.9354 18.4495 43.9252 18.4519 43.9118 18.4542C43.8992 18.4558 43.8827 18.4566 43.863 18.4566C43.8417 18.4566 43.8252 18.4558 43.8126 18.4542C43.7992 18.4519 43.789 18.4495 43.7811 18.4471C43.774 18.4432 43.7685 18.4393 43.7654 18.4353C43.7622 18.4306 43.7606 18.4251 43.7606 18.418V17.7716C43.7606 17.7094 43.7551 17.6582 43.7457 17.6196C43.7362 17.581 43.722 17.5487 43.7031 17.5204C43.6842 17.4928 43.6606 17.4716 43.6307 17.4566C43.6008 17.4424 43.5669 17.4345 43.5276 17.4345C43.4772 17.4345 43.4268 17.4527 43.3764 17.4881C43.326 17.5243 43.2732 17.5771 43.2181 17.6464V18.418C43.2181 18.4251 43.2165 18.4306 43.2134 18.4353C43.2094 18.4393 43.2047 18.4432 43.1968 18.4471C43.1898 18.4495 43.1795 18.4519 43.1661 18.4542C43.1535 18.4558 43.1362 18.4566 43.1157 18.4566C43.0961 18.4566 43.0795 18.4558 43.0669 18.4542C43.0535 18.4519 43.0425 18.4495 43.0354 18.4471C43.0276 18.4432 43.022 18.4393 43.0189 18.4353C43.0157 18.4306 43.015 18.4251 43.015 18.418V17.3141C43.015 17.3078 43.0157 17.3023 43.0189 17.2975C43.0213 17.2936 43.0252 17.2897 43.0331 17.2857C43.0409 17.2818 43.0496 17.2794 43.0614 17.2779C43.0732 17.2771 43.0882 17.2763 43.1071 17.2763C43.1252 17.2763 43.1402 17.2771 43.152 17.2779C43.1638 17.2794 43.1732 17.2818 43.1803 17.2857C43.1866 17.2897 43.1913 17.2936 43.1945 17.2975C43.1968 17.3023 43.1984 17.3078 43.1984 17.3141V17.4605C43.2606 17.3905 43.322 17.3393 43.3843 17.307C43.4457 17.2747 43.5071 17.259 43.5701 17.259C43.6433 17.259 43.7055 17.2716 43.7551 17.296C43.8055 17.3212 43.8465 17.3542 43.8772 17.396C43.9079 17.4377 43.9307 17.4865 43.9441 17.5432C43.9575 17.5991 43.9638 17.666 43.9638 17.7448V18.418ZM45.8079 18.4172C45.8079 18.4235 45.8063 18.4298 45.8031 18.4345C45.7992 18.4393 45.7937 18.4432 45.7866 18.4471C45.7787 18.4495 45.7677 18.4519 45.7535 18.4542C45.7402 18.4558 45.722 18.4566 45.7008 18.4566C45.6795 18.4566 45.6606 18.4558 45.6465 18.455C45.6323 18.4534 45.6205 18.4511 45.611 18.4487C45.6008 18.4456 45.5929 18.4416 45.5866 18.4361C45.5803 18.4306 45.5748 18.4243 45.5701 18.4172L45.1047 17.8062V18.418C45.1047 18.4251 45.1031 18.4306 45.1 18.4353C45.0961 18.4393 45.0913 18.4432 45.0835 18.4471C45.0764 18.4495 45.0661 18.4519 45.0528 18.4542C45.0402 18.4558 45.0228 18.4566 45.0024 18.4566C44.9827 18.4566 44.9661 18.4558 44.9535 18.4542C44.9402 18.4519 44.9291 18.4495 44.922 18.4471C44.9142 18.4432 44.9087 18.4393 44.9055 18.4353C44.9024 18.4306 44.9016 18.4251 44.9016 18.418V16.781C44.9016 16.7739 44.9024 16.7684 44.9055 16.7637C44.9087 16.759 44.9142 16.7542 44.922 16.7511C44.9291 16.7479 44.9402 16.7456 44.9535 16.744C44.9661 16.7424 44.9827 16.7416 45.0024 16.7416C45.0228 16.7416 45.0402 16.7424 45.0528 16.744C45.0661 16.7456 45.0764 16.7479 45.0835 16.7511C45.0913 16.7542 45.0961 16.759 45.1 16.7637C45.1031 16.7684 45.1047 16.7739 45.1047 16.781V17.7779L45.5205 17.3196C45.5268 17.3109 45.5339 17.3046 45.5409 17.2991C45.5488 17.2936 45.5575 17.2897 45.5677 17.2857C45.5779 17.2818 45.5898 17.2794 45.6039 17.2779C45.6173 17.2771 45.6339 17.2763 45.6535 17.2763C45.674 17.2763 45.6913 17.2771 45.7055 17.2779C45.7189 17.2794 45.7307 17.281 45.7386 17.2842C45.7472 17.2873 45.7535 17.2912 45.7575 17.2952C45.7606 17.2999 45.763 17.3054 45.763 17.3133C45.763 17.3227 45.7598 17.333 45.7543 17.3424C45.7496 17.3527 45.7409 17.3637 45.7283 17.3771L45.3307 17.7771L45.7787 18.359C45.789 18.3739 45.7969 18.3842 45.8008 18.3936C45.8055 18.4023 45.8079 18.4101 45.8079 18.4172ZM46.9008 17.818C46.9008 17.8503 46.8929 17.8723 46.8772 17.8865C46.8614 17.8999 46.8425 17.9062 46.822 17.9062H46.0976C46.0976 17.9684 46.1039 18.0235 46.1157 18.0723C46.1283 18.122 46.1488 18.1637 46.1772 18.1991C46.2055 18.2345 46.2433 18.2613 46.289 18.2802C46.3346 18.2983 46.3906 18.3086 46.4567 18.3086C46.5095 18.3086 46.5559 18.3038 46.5968 18.2952C46.6378 18.2873 46.6732 18.2771 46.7032 18.2668C46.7331 18.2566 46.7575 18.2471 46.7764 18.2385C46.7961 18.2298 46.8102 18.2251 46.8205 18.2251C46.826 18.2251 46.8307 18.2267 46.8354 18.2298C46.8394 18.2322 46.8433 18.2369 46.8457 18.2424C46.848 18.2479 46.8504 18.2558 46.8512 18.266C46.8528 18.2763 46.8535 18.2889 46.8535 18.3031C46.8535 18.3141 46.8528 18.3227 46.852 18.3306C46.8512 18.3385 46.8504 18.3456 46.8488 18.3511C46.848 18.3574 46.8457 18.3629 46.8425 18.3684C46.8394 18.3731 46.8362 18.3771 46.8315 18.3818C46.8276 18.3865 46.8142 18.3936 46.7921 18.4038C46.7701 18.4141 46.7417 18.4235 46.7063 18.4338C46.6709 18.4432 46.6307 18.4519 46.5843 18.4597C46.5386 18.4676 46.4898 18.4716 46.437 18.4716C46.3465 18.4716 46.2669 18.459 46.1992 18.4338C46.1307 18.4086 46.0732 18.3708 46.0268 18.3212C45.9803 18.2708 45.9457 18.2086 45.922 18.133C45.8984 18.0582 45.8866 17.9708 45.8866 17.8708C45.8866 17.7763 45.8984 17.6905 45.9236 17.6149C45.9472 17.5393 45.9835 17.4747 46.0291 17.4227C46.0756 17.37 46.1315 17.3298 46.1968 17.3007C46.2622 17.2731 46.3354 17.259 46.4157 17.259C46.5024 17.259 46.5764 17.2723 46.637 17.3007C46.6976 17.3282 46.748 17.366 46.7874 17.4125C46.826 17.4597 46.8551 17.5149 46.8732 17.5786C46.8913 17.6416 46.9008 17.7094 46.9008 17.781V17.818ZM46.6976 17.7582C46.7 17.6519 46.6764 17.5684 46.6268 17.5078C46.5772 17.4471 46.5039 17.4172 46.4063 17.4172C46.3559 17.4172 46.3118 17.4259 46.2748 17.4448C46.237 17.4637 46.2055 17.4889 46.1795 17.5204C46.1543 17.5511 46.1346 17.5873 46.1205 17.629C46.1071 17.67 46.0992 17.7133 46.0976 17.7582H46.6976ZM48.2252 17.8511C48.2252 17.9464 48.215 18.0322 48.1937 18.1094C48.1732 18.1857 48.1433 18.2511 48.1024 18.3046C48.0622 18.3582 48.0126 18.3999 47.9535 18.4282C47.8953 18.4574 47.8276 18.4716 47.752 18.4716C47.7173 18.4716 47.6842 18.4684 47.6543 18.4613C47.6252 18.4542 47.5953 18.4432 47.5669 18.4275C47.5386 18.4117 47.5102 18.3928 47.4811 18.3684C47.4528 18.3448 47.4228 18.3164 47.3906 18.2826V18.418C47.3906 18.4243 47.389 18.4306 47.3858 18.4353C47.3827 18.4408 47.3772 18.444 47.3701 18.4471C47.3622 18.4503 47.3535 18.4519 47.3425 18.4542C47.3315 18.4558 47.3165 18.4566 47.3 18.4566C47.2835 18.4566 47.2693 18.4558 47.2575 18.4542C47.2465 18.4519 47.237 18.4503 47.2291 18.4471C47.222 18.444 47.2173 18.4408 47.215 18.4353C47.2126 18.4306 47.211 18.4251 47.211 18.418V16.781C47.211 16.7739 47.2126 16.7684 47.215 16.7637C47.2181 16.759 47.2236 16.7542 47.2315 16.7511C47.2394 16.7479 47.2496 16.7456 47.263 16.744C47.2756 16.7424 47.2921 16.7416 47.3126 16.7416C47.3331 16.7416 47.3496 16.7424 47.3622 16.744C47.3756 16.7456 47.3858 16.7479 47.3937 16.7511C47.4008 16.7542 47.4063 16.759 47.4094 16.7637C47.4126 16.7684 47.4142 16.7739 47.4142 16.781V17.4401C47.4472 17.407 47.4787 17.3786 47.5094 17.355C47.5402 17.333 47.5693 17.3141 47.5992 17.2999C47.6283 17.2857 47.6583 17.2747 47.6874 17.2684C47.7165 17.2621 47.7472 17.259 47.7803 17.259C47.8598 17.259 47.9283 17.2747 47.985 17.3062C48.0417 17.3385 48.0874 17.381 48.1236 17.4345C48.1591 17.4881 48.185 17.5511 48.2008 17.6227C48.2173 17.6952 48.2252 17.7708 48.2252 17.8511ZM48.0142 17.8747C48.0142 17.818 48.0102 17.7629 48.0016 17.7101C47.9929 17.6566 47.978 17.6094 47.9567 17.5684C47.9354 17.5275 47.9071 17.4944 47.8724 17.47C47.837 17.4448 47.7929 17.4322 47.7409 17.4322C47.715 17.4322 47.689 17.4361 47.663 17.4432C47.6386 17.4503 47.6126 17.4629 47.5866 17.4802C47.5598 17.4975 47.5331 17.5196 47.5047 17.5464C47.4764 17.5731 47.4465 17.6078 47.4142 17.6487V18.0889C47.4701 18.1574 47.5236 18.2094 47.574 18.2448C47.6244 18.2802 47.6779 18.2983 47.7323 18.2983C47.7827 18.2983 47.826 18.2865 47.8622 18.2613C47.8984 18.2369 47.9276 18.2038 47.9504 18.1637C47.9724 18.1235 47.989 18.0779 47.9992 18.0275C48.0094 17.9771 48.0142 17.9259 48.0142 17.8747ZM49.4693 17.818C49.4693 17.8503 49.4614 17.8723 49.4457 17.8865C49.4291 17.8999 49.411 17.9062 49.3905 17.9062H48.6654C48.6654 17.9684 48.6717 18.0235 48.6842 18.0723C48.6961 18.122 48.7165 18.1637 48.7457 18.1991C48.774 18.2345 48.811 18.2613 48.8567 18.2802C48.9031 18.2983 48.9591 18.3086 49.0252 18.3086C49.0772 18.3086 49.1244 18.3038 49.1654 18.2952C49.2063 18.2873 49.2417 18.2771 49.2717 18.2668C49.3008 18.2566 49.326 18.2471 49.3449 18.2385C49.3646 18.2298 49.3787 18.2251 49.3882 18.2251C49.3945 18.2251 49.3992 18.2267 49.4039 18.2298C49.4079 18.2322 49.4118 18.2369 49.4142 18.2424C49.4165 18.2479 49.4189 18.2558 49.4197 18.266C49.4213 18.2763 49.4213 18.2889 49.4213 18.3031C49.4213 18.3141 49.4213 18.3227 49.4205 18.3306C49.4197 18.3385 49.4189 18.3456 49.4173 18.3511C49.4157 18.3574 49.4142 18.3629 49.411 18.3684C49.4079 18.3731 49.4047 18.3771 49.4 18.3818C49.3953 18.3865 49.3819 18.3936 49.3606 18.4038C49.3378 18.4141 49.3094 18.4235 49.2748 18.4338C49.2394 18.4432 49.1992 18.4519 49.1528 18.4597C49.1071 18.4676 49.0575 18.4716 49.0055 18.4716C48.915 18.4716 48.8354 18.459 48.7677 18.4338C48.6992 18.4086 48.6417 18.3708 48.5953 18.3212C48.5488 18.2708 48.5142 18.2086 48.4905 18.133C48.4669 18.0582 48.4551 17.9708 48.4551 17.8708C48.4551 17.7763 48.4669 17.6905 48.4913 17.6149C48.5157 17.5393 48.5512 17.4747 48.5976 17.4227C48.6433 17.37 48.6992 17.3298 48.7646 17.3007C48.8299 17.2731 48.9032 17.259 48.9843 17.259C49.0709 17.259 49.1441 17.2723 49.2047 17.3007C49.2661 17.3282 49.3158 17.366 49.3551 17.4125C49.3945 17.4597 49.4228 17.5149 49.4417 17.5786C49.4598 17.6416 49.4693 17.7094 49.4693 17.781V17.818ZM49.2661 17.7582C49.2685 17.6519 49.2449 17.5684 49.1953 17.5078C49.1457 17.4471 49.0724 17.4172 48.9748 17.4172C48.9244 17.4172 48.8803 17.4259 48.8425 17.4448C48.8047 17.4637 48.774 17.4889 48.748 17.5204C48.7228 17.5511 48.7031 17.5873 48.689 17.629C48.6756 17.67 48.6669 17.7133 48.6654 17.7582H49.2661Z" fill="#0383B0"/>
<path fill-rule="evenodd" clip-rule="evenodd" d="M50.4244 17.3857C50.4244 17.4038 50.4244 17.4188 50.4236 17.4314C50.4228 17.4432 50.4205 17.4527 50.4181 17.4597C50.4165 17.4668 50.4126 17.4723 50.4087 17.4763C50.4055 17.4794 50.4008 17.481 50.3937 17.481C50.3874 17.481 50.3795 17.4794 50.3701 17.4763C50.3606 17.4723 50.3504 17.4684 50.3386 17.4653C50.3268 17.4613 50.3134 17.4582 50.2984 17.4542C50.2843 17.4511 50.2677 17.4495 50.2512 17.4495C50.2307 17.4495 50.2102 17.4534 50.1906 17.4613C50.1717 17.47 50.1504 17.4834 50.1291 17.5031C50.1071 17.5219 50.085 17.5464 50.0606 17.5779C50.0378 17.6094 50.011 17.6471 49.9827 17.692V18.418C49.9827 18.4251 49.9811 18.4306 49.978 18.4353C49.974 18.4393 49.9693 18.4432 49.9614 18.4471C49.9543 18.4495 49.9441 18.4519 49.9307 18.4542C49.9181 18.4558 49.9008 18.4566 49.8803 18.4566C49.8606 18.4566 49.8441 18.4558 49.8315 18.4542C49.8181 18.4519 49.8071 18.4495 49.8 18.4471C49.7921 18.4432 49.7866 18.4393 49.7835 18.4353C49.7803 18.4306 49.7795 18.4251 49.7795 18.418V17.3141C49.7795 17.3078 49.7803 17.3023 49.7827 17.2975C49.7858 17.2936 49.7906 17.2897 49.7976 17.2857C49.8055 17.2818 49.8142 17.2794 49.826 17.2779C49.8378 17.2771 49.8528 17.2763 49.8717 17.2763C49.8898 17.2763 49.9047 17.2771 49.9165 17.2779C49.9283 17.2794 49.9378 17.2818 49.9449 17.2857C49.9512 17.2897 49.9559 17.2936 49.9591 17.2975C49.9614 17.3023 49.963 17.3078 49.963 17.3141V17.4747C49.9929 17.4306 50.0213 17.3944 50.048 17.3668C50.0748 17.3393 50.1 17.3172 50.1236 17.3007C50.1472 17.2849 50.1709 17.2739 50.1937 17.2676C50.2173 17.2613 50.2402 17.259 50.2646 17.259C50.2748 17.259 50.2866 17.259 50.3 17.2605C50.3134 17.2613 50.3276 17.2645 50.3425 17.2668C50.3575 17.2708 50.3709 17.2739 50.3819 17.2786C50.3937 17.2826 50.4024 17.2865 50.4071 17.2905C50.4126 17.2944 50.4157 17.2983 50.4173 17.3023C50.4189 17.3062 50.4205 17.3109 50.422 17.3164C50.4228 17.322 50.4236 17.3306 50.4244 17.3408C50.4244 17.3527 50.4244 17.3668 50.4244 17.3857ZM51.3047 18.1172C51.3047 18.1739 51.2945 18.2235 51.2732 18.2684C51.2528 18.3117 51.2228 18.3495 51.1843 18.3794C51.1465 18.4094 51.1008 18.433 51.0472 18.4479C50.9945 18.4637 50.9354 18.4716 50.8717 18.4716C50.8323 18.4716 50.7953 18.4684 50.7598 18.4621C50.7244 18.4566 50.6921 18.4487 50.6638 18.4393C50.6362 18.4298 50.6118 18.4204 50.5921 18.4101C50.5724 18.4007 50.5583 18.3912 50.5496 18.3834C50.5402 18.3755 50.5339 18.3637 50.5299 18.3487C50.526 18.3345 50.5236 18.3141 50.5236 18.2889C50.5236 18.2731 50.5244 18.2605 50.526 18.2495C50.5283 18.2393 50.5299 18.2306 50.5323 18.2235C50.5346 18.2172 50.5386 18.2125 50.5425 18.2094C50.5472 18.207 50.552 18.2054 50.5583 18.2054C50.5669 18.2054 50.5803 18.2109 50.5976 18.222C50.6157 18.233 50.637 18.2448 50.663 18.2582C50.6882 18.2708 50.7189 18.2834 50.7543 18.2944C50.789 18.3054 50.8291 18.3109 50.8748 18.3109C50.9095 18.3109 50.9402 18.307 50.9677 18.2999C50.9961 18.2928 51.0197 18.2818 51.0402 18.2668C51.0606 18.2527 51.0764 18.2345 51.0874 18.2117C51.0984 18.1897 51.1039 18.1637 51.1039 18.133C51.1039 18.1023 51.0961 18.0755 51.0795 18.055C51.0638 18.033 51.0433 18.0149 51.0173 17.9983C50.9906 17.9818 50.9614 17.9676 50.9291 17.955C50.8961 17.9424 50.863 17.929 50.8283 17.9149C50.7937 17.9007 50.7598 17.8849 50.7268 17.8676C50.6937 17.8503 50.6646 17.829 50.6378 17.8031C50.6118 17.7779 50.5913 17.7479 50.5756 17.7125C50.5591 17.6771 50.5512 17.6353 50.5512 17.5857C50.5512 17.5432 50.5598 17.5015 50.5764 17.4613C50.5929 17.4219 50.6181 17.3873 50.652 17.3574C50.6858 17.3275 50.7276 17.3038 50.778 17.2857C50.8283 17.2676 50.8866 17.259 50.9543 17.259C50.9835 17.259 51.0126 17.2613 51.0425 17.266C51.0717 17.2716 51.0976 17.2779 51.122 17.2857C51.1457 17.2928 51.1654 17.3015 51.1827 17.3101C51.1992 17.3196 51.2126 17.3267 51.2205 17.3338C51.2291 17.3408 51.2346 17.3464 51.2378 17.3511C51.2409 17.3566 51.2425 17.3613 51.2441 17.3676C51.2449 17.3739 51.2465 17.381 51.248 17.3905C51.2488 17.3991 51.2496 17.4101 51.2496 17.4235C51.2496 17.4369 51.2488 17.4495 51.248 17.459C51.2465 17.4692 51.2441 17.4779 51.2417 17.4842C51.2386 17.4905 51.2354 17.4952 51.2315 17.4983C51.2268 17.5007 51.222 17.5023 51.2173 17.5023C51.2102 17.5023 51.2 17.4975 51.1858 17.4881C51.1717 17.4794 51.1535 17.47 51.1315 17.4597C51.1094 17.4495 51.0835 17.4393 51.0535 17.4306C51.0236 17.4212 50.9898 17.4172 50.9512 17.4172C50.9165 17.4172 50.8858 17.4204 50.8606 17.429C50.8339 17.4361 50.8126 17.4471 50.7961 17.4613C50.7787 17.4755 50.7661 17.492 50.7575 17.5117C50.7488 17.5314 50.7449 17.5527 50.7449 17.5755C50.7449 17.607 50.7528 17.6338 50.7693 17.6558C50.7858 17.6771 50.8063 17.696 50.8331 17.7125C50.8591 17.729 50.889 17.7432 50.9228 17.7566C50.9559 17.77 50.9898 17.7834 51.0244 17.7968C51.0591 17.8109 51.0937 17.8267 51.1276 17.844C51.1614 17.8605 51.1913 17.8818 51.2173 17.9062C51.2441 17.9306 51.2646 17.9597 51.2811 17.9944C51.2968 18.029 51.3047 18.07 51.3047 18.1172ZM52.4252 18.4196C52.4252 18.429 52.422 18.4369 52.4157 18.4416C52.4087 18.4471 52.4 18.4503 52.3882 18.4527C52.3772 18.455 52.3598 18.4566 52.3378 18.4566C52.3173 18.4566 52.3 18.455 52.2874 18.4527C52.2748 18.4503 52.2654 18.4471 52.2598 18.4416C52.2535 18.4369 52.2512 18.4298 52.2512 18.4196V18.3094C52.2031 18.3605 52.1496 18.4007 52.0898 18.429C52.0307 18.4574 51.9677 18.4716 51.9016 18.4716C51.8433 18.4716 51.7906 18.4637 51.7441 18.4487C51.6968 18.4338 51.6567 18.4117 51.6236 18.3834C51.5906 18.355 51.5646 18.3196 51.5465 18.2779C51.5276 18.2361 51.5189 18.1889 51.5189 18.1353C51.5189 18.0731 51.5307 18.0188 51.5567 17.9731C51.5819 17.9275 51.6181 17.8897 51.6661 17.859C51.7134 17.829 51.7717 17.8062 51.8402 17.7912C51.9087 17.7763 51.9858 17.7684 52.0717 17.7684H52.2244V17.6826C52.2244 17.6401 52.2197 17.6023 52.211 17.5692C52.2016 17.5369 52.1874 17.5094 52.1669 17.4873C52.1472 17.466 52.1213 17.4495 52.0898 17.4385C52.0575 17.4275 52.0181 17.4219 51.9717 17.4219C51.922 17.4219 51.8772 17.4275 51.8378 17.4401C51.7984 17.4519 51.7638 17.4653 51.7339 17.4794C51.7039 17.4944 51.6787 17.507 51.6591 17.5196C51.6394 17.5314 51.6236 17.5377 51.6142 17.5377C51.6079 17.5377 51.6016 17.5361 51.5969 17.5322C51.5921 17.5298 51.5882 17.5243 51.5843 17.518C51.5803 17.5117 51.578 17.5031 51.5764 17.4928C51.5748 17.4826 51.574 17.4716 51.574 17.459C51.574 17.4393 51.5748 17.4227 51.578 17.4109C51.5811 17.3991 51.5882 17.3881 51.5992 17.3779C51.6102 17.3668 51.6291 17.3542 51.6559 17.3401C51.6827 17.3259 51.7142 17.3125 51.7488 17.2999C51.7835 17.2881 51.822 17.2786 51.8646 17.2708C51.9055 17.2621 51.948 17.259 51.9906 17.259C52.0693 17.259 52.137 17.2676 52.1921 17.2857C52.248 17.3038 52.2929 17.3306 52.3268 17.3653C52.3614 17.3999 52.3858 17.4432 52.4016 17.4944C52.4173 17.5456 52.4252 17.6062 52.4252 17.6747V18.4196ZM52.2244 17.9141H52.0512C51.9961 17.9141 51.948 17.9188 51.9071 17.9282C51.8661 17.9377 51.8323 17.9519 51.8055 17.97C51.7787 17.9889 51.7591 18.0101 51.7457 18.0361C51.7331 18.0621 51.7268 18.092 51.7268 18.1251C51.7268 18.1826 51.7449 18.2282 51.7811 18.2621C51.8181 18.296 51.8685 18.3133 51.9339 18.3133C51.9866 18.3133 52.0362 18.2999 52.0819 18.2731C52.1268 18.2464 52.174 18.2046 52.2244 18.1487V17.9141ZM54.4339 18.418C54.4339 18.4251 54.4323 18.4306 54.4291 18.4353C54.4252 18.4393 54.4205 18.4432 54.4126 18.4471C54.4055 18.4495 54.3953 18.4519 54.3827 18.4542C54.3693 18.4558 54.3528 18.4566 54.3331 18.4566C54.3126 18.4566 54.2961 18.4558 54.2835 18.4542C54.2701 18.4519 54.2598 18.4495 54.252 18.4471C54.2441 18.4432 54.2386 18.4393 54.2354 18.4353C54.2323 18.4306 54.2307 18.4251 54.2307 18.418V17.7479C54.2307 17.7007 54.226 17.6582 54.2181 17.6196C54.2102 17.581 54.1968 17.5487 54.1787 17.5204C54.1606 17.4928 54.1386 17.4716 54.111 17.4566C54.0835 17.4424 54.0504 17.4345 54.0126 17.4345C53.9661 17.4345 53.9197 17.4527 53.8732 17.4881C53.826 17.5243 53.774 17.5771 53.7181 17.6464V18.418C53.7181 18.4251 53.7165 18.4306 53.7134 18.4353C53.7094 18.4393 53.7039 18.4432 53.6961 18.4471C53.689 18.4495 53.6787 18.4519 53.6654 18.4542C53.652 18.4558 53.6354 18.4566 53.6157 18.4566C53.5969 18.4566 53.5811 18.4558 53.5669 18.4542C53.5535 18.4519 53.5425 18.4495 53.5354 18.4471C53.5276 18.4432 53.522 18.4393 53.5189 18.4353C53.5157 18.4306 53.515 18.4251 53.515 18.418V17.7479C53.515 17.7007 53.5102 17.6582 53.5016 17.6196C53.4921 17.581 53.4787 17.5487 53.4606 17.5204C53.4425 17.4928 53.4205 17.4716 53.3929 17.4566C53.3654 17.4424 53.3331 17.4345 53.2953 17.4345C53.2488 17.4345 53.2016 17.4527 53.1543 17.4881C53.1071 17.5243 53.0559 17.5771 53 17.6464V18.418C53 18.4251 52.9984 18.4306 52.9953 18.4353C52.9913 18.4393 52.9866 18.4432 52.9795 18.4471C52.9717 18.4495 52.9614 18.4519 52.948 18.4542C52.9354 18.4558 52.9181 18.4566 52.8976 18.4566C52.878 18.4566 52.8614 18.4558 52.8488 18.4542C52.8354 18.4519 52.8244 18.4495 52.8173 18.4471C52.8094 18.4432 52.8039 18.4393 52.8008 18.4353C52.7976 18.4306 52.7968 18.4251 52.7968 18.418V17.3141C52.7968 17.3078 52.7976 17.3023 52.8008 17.2975C52.8031 17.2936 52.8079 17.2897 52.815 17.2857C52.8228 17.2818 52.8315 17.2794 52.8433 17.2779C52.8551 17.2771 52.8701 17.2763 52.889 17.2763C52.9071 17.2763 52.922 17.2771 52.9339 17.2779C52.9465 17.2794 52.9551 17.2818 52.9622 17.2857C52.9685 17.2897 52.9732 17.2936 52.9764 17.2975C52.9787 17.3023 52.9803 17.3078 52.9803 17.3141V17.4605C53.0425 17.3905 53.1031 17.3393 53.1614 17.307C53.2197 17.2747 53.2795 17.259 53.3386 17.259C53.385 17.259 53.426 17.2645 53.4622 17.2747C53.4984 17.2857 53.5307 17.2999 53.5583 17.3196C53.5866 17.3385 53.6102 17.3613 53.6291 17.3889C53.6488 17.4149 53.6654 17.4448 53.6787 17.4779C53.7157 17.4377 53.7504 17.4038 53.7835 17.3755C53.8165 17.3471 53.848 17.3251 53.8787 17.3078C53.9094 17.2905 53.9394 17.2779 53.9677 17.2708C53.9976 17.2621 54.026 17.259 54.0559 17.259C54.1268 17.259 54.1858 17.2716 54.2339 17.296C54.2827 17.3212 54.3213 17.3542 54.3512 17.396C54.3811 17.4377 54.4024 17.4865 54.415 17.5432C54.4276 17.5991 54.4339 17.6582 54.4339 17.7204V18.418ZM55.6339 18.4196C55.6339 18.429 55.6299 18.4369 55.6244 18.4416C55.6173 18.4471 55.6087 18.4503 55.5968 18.4527C55.5858 18.455 55.5685 18.4566 55.5465 18.4566C55.526 18.4566 55.5087 18.455 55.4961 18.4527C55.4835 18.4503 55.474 18.4471 55.4685 18.4416C55.4622 18.4369 55.4598 18.4298 55.4598 18.4196V18.3094C55.411 18.3605 55.3575 18.4007 55.2984 18.429C55.2386 18.4574 55.1764 18.4716 55.1102 18.4716C55.052 18.4716 54.9992 18.4637 54.9528 18.4487C54.9055 18.4338 54.8654 18.4117 54.8323 18.3834C54.7992 18.355 54.7732 18.3196 54.7551 18.2779C54.7362 18.2361 54.7276 18.1889 54.7276 18.1353C54.7276 18.0731 54.7394 18.0188 54.7654 17.9731C54.7906 17.9275 54.8268 17.8897 54.8748 17.859C54.922 17.829 54.9803 17.8062 55.0488 17.7912C55.1173 17.7763 55.1945 17.7684 55.2803 17.7684H55.4331V17.6826C55.4331 17.6401 55.4283 17.6023 55.4189 17.5692C55.4102 17.5369 55.3961 17.5094 55.3756 17.4873C55.3559 17.466 55.3299 17.4495 55.2976 17.4385C55.2661 17.4275 55.2268 17.4219 55.1803 17.4219C55.1307 17.4219 55.0858 17.4275 55.0465 17.4401C55.0071 17.4519 54.9717 17.4653 54.9425 17.4794C54.9126 17.4944 54.8874 17.507 54.8677 17.5196C54.848 17.5314 54.8323 17.5377 54.8228 17.5377C54.8165 17.5377 54.8102 17.5361 54.8055 17.5322C54.8008 17.5298 54.7969 17.5243 54.7929 17.518C54.789 17.5117 54.7866 17.5031 54.785 17.4928C54.7835 17.4826 54.7827 17.4716 54.7827 17.459C54.7827 17.4393 54.7835 17.4227 54.7866 17.4109C54.7898 17.3991 54.7969 17.3881 54.8079 17.3779C54.8181 17.3668 54.8378 17.3542 54.8646 17.3401C54.8913 17.3259 54.9228 17.3125 54.9575 17.2999C54.9921 17.2881 55.0307 17.2786 55.0724 17.2708C55.1142 17.2621 55.1567 17.259 55.1984 17.259C55.278 17.259 55.3449 17.2676 55.4008 17.2857C55.4567 17.3038 55.5016 17.3306 55.5354 17.3653C55.5701 17.3999 55.5945 17.4432 55.6102 17.4944C55.626 17.5456 55.6339 17.6062 55.6339 17.6747V18.4196ZM55.4331 17.9141H55.2598C55.2047 17.9141 55.1567 17.9188 55.1157 17.9282C55.0748 17.9377 55.0409 17.9519 55.0142 17.97C54.9874 17.9889 54.9677 18.0101 54.9543 18.0361C54.9417 18.0621 54.9354 18.092 54.9354 18.1251C54.9354 18.1826 54.9535 18.2282 54.9898 18.2621C55.0268 18.296 55.0772 18.3133 55.1425 18.3133C55.1953 18.3133 55.2449 18.2999 55.2898 18.2731C55.3354 18.2464 55.3827 18.2046 55.4331 18.1487V17.9141ZM56.8362 18.4196C56.8362 18.429 56.8331 18.4369 56.8268 18.4416C56.8205 18.4471 56.811 18.4503 56.7992 18.4527C56.7882 18.455 56.7717 18.4566 56.7496 18.4566C56.7283 18.4566 56.711 18.455 56.6984 18.4527C56.6858 18.4503 56.6772 18.4471 56.6709 18.4416C56.6654 18.4369 56.6622 18.4298 56.6622 18.4196V18.3094C56.6142 18.3605 56.5606 18.4007 56.5016 18.429C56.4417 18.4574 56.3787 18.4716 56.3126 18.4716C56.2543 18.4716 56.2024 18.4637 56.1551 18.4487C56.1079 18.4338 56.0677 18.4117 56.0346 18.3834C56.0024 18.355 55.9764 18.3196 55.9575 18.2779C55.9394 18.2361 55.9299 18.1889 55.9299 18.1353C55.9299 18.0731 55.9425 18.0188 55.9677 17.9731C55.9929 17.9275 56.0299 17.8897 56.0772 17.859C56.1244 17.829 56.1827 17.8062 56.2512 17.7912C56.3197 17.7763 56.3976 17.7684 56.4835 17.7684H56.6354V17.6826C56.6354 17.6401 56.6307 17.6023 56.622 17.5692C56.6126 17.5369 56.5984 17.5094 56.5787 17.4873C56.5583 17.466 56.5323 17.4495 56.5008 17.4385C56.4685 17.4275 56.4299 17.4219 56.3835 17.4219C56.3331 17.4219 56.2882 17.4275 56.2496 17.4401C56.2094 17.4519 56.1748 17.4653 56.1449 17.4794C56.115 17.4944 56.0905 17.507 56.0701 17.5196C56.0504 17.5314 56.0354 17.5377 56.026 17.5377C56.0189 17.5377 56.0134 17.5361 56.0087 17.5322C56.0039 17.5298 55.9992 17.5243 55.9953 17.518C55.9921 17.5117 55.989 17.5031 55.9874 17.4928C55.9858 17.4826 55.985 17.4716 55.985 17.459C55.985 17.4393 55.9866 17.4227 55.989 17.4109C55.9921 17.3991 55.9992 17.3881 56.0102 17.3779C56.0213 17.3668 56.0402 17.3542 56.0669 17.3401C56.0937 17.3259 56.1252 17.3125 56.1606 17.2999C56.1953 17.2881 56.2339 17.2786 56.2756 17.2708C56.3173 17.2621 56.3591 17.259 56.4016 17.259C56.4803 17.259 56.548 17.2676 56.6039 17.2857C56.6591 17.3038 56.7039 17.3306 56.7386 17.3653C56.7724 17.3999 56.7976 17.4432 56.8126 17.4944C56.8283 17.5456 56.8362 17.6062 56.8362 17.6747V18.4196ZM56.6354 17.9141H56.463C56.4071 17.9141 56.3591 17.9188 56.3181 17.9282C56.278 17.9377 56.2441 17.9519 56.2165 17.97C56.1898 17.9889 56.1701 18.0101 56.1575 18.0361C56.1449 18.0621 56.1386 18.092 56.1386 18.1251C56.1386 18.1826 56.1567 18.2282 56.1929 18.2621C56.2291 18.296 56.2795 18.3133 56.3457 18.3133C56.3984 18.3133 56.448 18.2999 56.4929 18.2731C56.5378 18.2464 56.5858 18.2046 56.6354 18.1487V17.9141ZM58.1575 18.418C58.1575 18.4251 58.1551 18.4306 58.152 18.4353C58.1488 18.4393 58.1441 18.4432 58.1362 18.4471C58.1283 18.4495 58.1189 18.4519 58.1055 18.4542C58.0921 18.4558 58.0756 18.4566 58.0567 18.4566C58.0354 18.4566 58.0189 18.4558 58.0055 18.4542C57.9921 18.4519 57.9819 18.4495 57.9748 18.4471C57.9669 18.4432 57.9622 18.4393 57.9591 18.4353C57.9551 18.4306 57.9535 18.4251 57.9535 18.418V17.7716C57.9535 17.7094 57.9488 17.6582 57.9394 17.6196C57.9291 17.581 57.915 17.5487 57.8969 17.5204C57.878 17.4928 57.8535 17.4716 57.8244 17.4566C57.7945 17.4424 57.7598 17.4345 57.7213 17.4345C57.6709 17.4345 57.6205 17.4527 57.5701 17.4881C57.5197 17.5243 57.4669 17.5771 57.4118 17.6464V18.418C57.4118 18.4251 57.4095 18.4306 57.4063 18.4353C57.4031 18.4393 57.3984 18.4432 57.3906 18.4471C57.3827 18.4495 57.3732 18.4519 57.3598 18.4542C57.3465 18.4558 57.3299 18.4566 57.3094 18.4566C57.289 18.4566 57.2732 18.4558 57.2598 18.4542C57.2465 18.4519 57.2362 18.4495 57.2283 18.4471C57.2205 18.4432 57.215 18.4393 57.2118 18.4353C57.2094 18.4306 57.2079 18.4251 57.2079 18.418V17.3141C57.2079 17.3078 57.2094 17.3023 57.2118 17.2975C57.2142 17.2936 57.2189 17.2897 57.2268 17.2857C57.2339 17.2818 57.2433 17.2794 57.2551 17.2779C57.2661 17.2771 57.2819 17.2763 57.3008 17.2763C57.3189 17.2763 57.3339 17.2771 57.3457 17.2779C57.3575 17.2794 57.3669 17.2818 57.3732 17.2857C57.3795 17.2897 57.385 17.2936 57.3874 17.2975C57.3898 17.3023 57.3921 17.3078 57.3921 17.3141V17.4605C57.4535 17.3905 57.515 17.3393 57.5772 17.307C57.6386 17.2747 57.7008 17.259 57.763 17.259C57.8362 17.259 57.8984 17.2716 57.9488 17.296C57.9992 17.3212 58.0394 17.3542 58.0709 17.396C58.1016 17.4377 58.1236 17.4865 58.137 17.5432C58.1504 17.5991 58.1575 17.666 58.1575 17.7448V18.418ZM60.0386 18.418C60.0386 18.4251 60.0378 18.4306 60.0346 18.4353C60.0315 18.4408 60.0268 18.444 60.0197 18.4471C60.0126 18.4503 60.0039 18.4519 59.9921 18.4542C59.9803 18.4558 59.9669 18.4566 59.9504 18.4566C59.9331 18.4566 59.9189 18.4558 59.9079 18.4542C59.8961 18.4519 59.8866 18.4503 59.8795 18.4471C59.8724 18.444 59.8669 18.4408 59.863 18.4353C59.8606 18.4306 59.8591 18.4243 59.8591 18.418V18.2716C59.8008 18.3345 59.7402 18.3834 59.678 18.4188C59.615 18.4542 59.5472 18.4716 59.4724 18.4716C59.3913 18.4716 59.3228 18.4558 59.2661 18.4243C59.2087 18.3928 59.1622 18.3503 59.1268 18.2968C59.0913 18.2432 59.0654 18.1802 59.0488 18.1078C59.0331 18.0353 59.0244 17.959 59.0244 17.8794C59.0244 17.7842 59.0346 17.6983 59.0551 17.6227C59.0756 17.5456 59.1055 17.4802 59.1457 17.4267C59.1858 17.3723 59.2354 17.3314 59.2945 17.3023C59.3535 17.2731 59.422 17.259 59.5 17.259C59.5646 17.259 59.6228 17.2731 59.6764 17.3007C59.7299 17.3298 59.7827 17.3708 59.8354 17.4259V16.7857C59.8354 16.7802 59.8362 16.7747 59.8394 16.7692C59.8425 16.7637 59.848 16.7597 59.8567 16.7566C59.8646 16.7542 59.8748 16.7519 59.8874 16.7495C59.9 16.7471 59.9165 16.7464 59.9354 16.7464C59.9559 16.7464 59.9732 16.7471 59.9858 16.7495C59.9992 16.7519 60.0094 16.7542 60.0165 16.7566C60.0244 16.7597 60.0299 16.7637 60.0331 16.7692C60.037 16.7747 60.0386 16.7802 60.0386 16.7857V18.418ZM59.8354 17.6416C59.7811 17.5731 59.7283 17.5212 59.6772 17.4857C59.626 17.4503 59.5732 17.4322 59.5181 17.4322C59.4661 17.4322 59.4228 17.444 59.3866 17.4692C59.3504 17.4936 59.322 17.5259 59.2992 17.566C59.2772 17.6054 59.2606 17.6511 59.2504 17.7023C59.2402 17.7527 59.2354 17.8038 59.2354 17.8566C59.2354 17.9117 59.2394 17.9668 59.248 18.0196C59.2567 18.0723 59.2717 18.1196 59.2929 18.1613C59.3142 18.2031 59.3417 18.2361 59.3772 18.2613C59.4118 18.2857 59.4559 18.2983 59.5087 18.2983C59.5354 18.2983 59.5614 18.2944 59.5866 18.2873C59.6118 18.2802 59.637 18.2676 59.663 18.2503C59.689 18.2338 59.7165 18.2109 59.7449 18.1834C59.7732 18.1566 59.8039 18.1227 59.8354 18.0826V17.6416ZM61.2449 18.4196C61.2449 18.429 61.2417 18.4369 61.2354 18.4416C61.2283 18.4471 61.2197 18.4503 61.2079 18.4527C61.1968 18.455 61.1803 18.4566 61.1575 18.4566C61.137 18.4566 61.1197 18.455 61.1071 18.4527C61.0945 18.4503 61.085 18.4471 61.0795 18.4416C61.074 18.4369 61.0709 18.4298 61.0709 18.4196V18.3094C61.0228 18.3605 60.9693 18.4007 60.9095 18.429C60.8504 18.4574 60.7874 18.4716 60.7213 18.4716C60.663 18.4716 60.6102 18.4637 60.5638 18.4487C60.5165 18.4338 60.4764 18.4117 60.4433 18.3834C60.4102 18.355 60.3843 18.3196 60.3661 18.2779C60.348 18.2361 60.3386 18.1889 60.3386 18.1353C60.3386 18.0731 60.3512 18.0188 60.3764 17.9731C60.4016 17.9275 60.4378 17.8897 60.4858 17.859C60.5331 17.829 60.5913 17.8062 60.6598 17.7912C60.7283 17.7763 60.8055 17.7684 60.8913 17.7684H61.0441V17.6826C61.0441 17.6401 61.0394 17.6023 61.0307 17.5692C61.0213 17.5369 61.0071 17.5094 60.9874 17.4873C60.9669 17.466 60.9409 17.4495 60.9095 17.4385C60.8772 17.4275 60.8378 17.4219 60.7913 17.4219C60.7417 17.4219 60.6968 17.4275 60.6575 17.4401C60.6181 17.4519 60.5835 17.4653 60.5535 17.4794C60.5236 17.4944 60.4984 17.507 60.4787 17.5196C60.4591 17.5314 60.4441 17.5377 60.4346 17.5377C60.4276 17.5377 60.4221 17.5361 60.4173 17.5322C60.4118 17.5298 60.4079 17.5243 60.4039 17.518C60.4 17.5117 60.3976 17.5031 60.3961 17.4928C60.3945 17.4826 60.3937 17.4716 60.3937 17.459C60.3937 17.4393 60.3953 17.4227 60.3976 17.4109C60.4008 17.3991 60.4079 17.3881 60.4189 17.3779C60.4299 17.3668 60.4488 17.3542 60.4756 17.3401C60.5024 17.3259 60.5339 17.3125 60.5693 17.2999C60.6039 17.2881 60.6425 17.2786 60.6843 17.2708C60.7252 17.2621 60.7677 17.259 60.8102 17.259C60.889 17.259 60.9567 17.2676 61.0118 17.2857C61.0677 17.3038 61.1126 17.3306 61.1472 17.3653C61.1811 17.3999 61.2055 17.4432 61.2213 17.4944C61.237 17.5456 61.2449 17.6062 61.2449 17.6747V18.4196ZM61.0441 17.9141H60.8709C60.8158 17.9141 60.7677 17.9188 60.7268 17.9282C60.6858 17.9377 60.652 17.9519 60.6252 17.97C60.5984 17.9889 60.5787 18.0101 60.5654 18.0361C60.5528 18.0621 60.5472 18.092 60.5472 18.1251C60.5472 18.1826 60.5646 18.2282 60.6016 18.2621C60.6378 18.296 60.6882 18.3133 60.7543 18.3133C60.8063 18.3133 60.8559 18.2999 60.9016 18.2731C60.9465 18.2464 60.9945 18.2046 61.0441 18.1487V17.9141ZM62.5654 18.418C62.5654 18.4251 62.5638 18.4306 62.5606 18.4353C62.5575 18.4393 62.552 18.4432 62.5449 18.4471C62.537 18.4495 62.5268 18.4519 62.5142 18.4542C62.5008 18.4558 62.4843 18.4566 62.4646 18.4566C62.4441 18.4566 62.4268 18.4558 62.4142 18.4542C62.4008 18.4519 62.3905 18.4495 62.3835 18.4471C62.3756 18.4432 62.3709 18.4393 62.3669 18.4353C62.3638 18.4306 62.3622 18.4251 62.3622 18.418V17.7716C62.3622 17.7094 62.3575 17.6582 62.348 17.6196C62.3378 17.581 62.3236 17.5487 62.3047 17.5204C62.2858 17.4928 62.2622 17.4716 62.2323 17.4566C62.2032 17.4424 62.1685 17.4345 62.1299 17.4345C62.0787 17.4345 62.0284 17.4527 61.9787 17.4881C61.9276 17.5243 61.8748 17.5771 61.8197 17.6464V18.418C61.8197 18.4251 61.8181 18.4306 61.815 18.4353C61.8118 18.4393 61.8063 18.4432 61.7992 18.4471C61.7913 18.4495 61.7811 18.4519 61.7677 18.4542C61.7551 18.4558 61.7386 18.4566 61.7181 18.4566C61.6976 18.4566 61.6811 18.4558 61.6685 18.4542C61.6551 18.4519 61.6449 18.4495 61.637 18.4471C61.6291 18.4432 61.6236 18.4393 61.6205 18.4353C61.6181 18.4306 61.6165 18.4251 61.6165 18.418V17.3141C61.6165 17.3078 61.6181 17.3023 61.6205 17.2975C61.6228 17.2936 61.6276 17.2897 61.6346 17.2857C61.6425 17.2818 61.652 17.2794 61.6638 17.2779C61.6748 17.2771 61.6906 17.2763 61.7087 17.2763C61.7268 17.2763 61.7417 17.2771 61.7535 17.2779C61.7661 17.2794 61.7748 17.2818 61.7819 17.2857C61.7882 17.2897 61.7929 17.2936 61.7961 17.2975C61.7984 17.3023 61.8 17.3078 61.8 17.3141V17.4605C61.8622 17.3905 61.9236 17.3393 61.9858 17.307C62.0472 17.2747 62.1087 17.259 62.1717 17.259C62.2449 17.259 62.3071 17.2716 62.3575 17.296C62.4071 17.3212 62.448 17.3542 62.4787 17.396C62.5102 17.4377 62.5323 17.4865 62.5457 17.5432C62.5591 17.5991 62.5654 17.666 62.5654 17.7448V18.418ZM64.4095 18.4172C64.4095 18.4235 64.4079 18.4298 64.4047 18.4345C64.4016 18.4393 64.3961 18.4432 64.3882 18.4471C64.3803 18.4495 64.3693 18.4519 64.3559 18.4542C64.3417 18.4558 64.3244 18.4566 64.3031 18.4566C64.2811 18.4566 64.263 18.4558 64.248 18.455C64.2346 18.4534 64.222 18.4511 64.2126 18.4487C64.2024 18.4456 64.1945 18.4416 64.189 18.4361C64.1827 18.4306 64.1772 18.4243 64.1717 18.4172L63.7063 17.8062V18.418C63.7063 18.4251 63.7047 18.4306 63.7016 18.4353C63.6984 18.4393 63.6929 18.4432 63.6858 18.4471C63.678 18.4495 63.6677 18.4519 63.6543 18.4542C63.6417 18.4558 63.6252 18.4566 63.6047 18.4566C63.5843 18.4566 63.5677 18.4558 63.5551 18.4542C63.5417 18.4519 63.5315 18.4495 63.5236 18.4471C63.5158 18.4432 63.5102 18.4393 63.5071 18.4353C63.5047 18.4306 63.5032 18.4251 63.5032 18.418V16.781C63.5032 16.7739 63.5047 16.7684 63.5071 16.7637C63.5102 16.759 63.5158 16.7542 63.5236 16.7511C63.5315 16.7479 63.5417 16.7456 63.5551 16.744C63.5677 16.7424 63.5843 16.7416 63.6047 16.7416C63.6252 16.7416 63.6417 16.7424 63.6543 16.744C63.6677 16.7456 63.678 16.7479 63.6858 16.7511C63.6929 16.7542 63.6984 16.759 63.7016 16.7637C63.7047 16.7684 63.7063 16.7739 63.7063 16.781V17.7779L64.122 17.3196C64.1283 17.3109 64.1362 17.3046 64.1433 17.2991C64.1504 17.2936 64.159 17.2897 64.1693 17.2857C64.1795 17.2818 64.1913 17.2794 64.2055 17.2779C64.2189 17.2771 64.2362 17.2763 64.2559 17.2763C64.2764 17.2763 64.2929 17.2771 64.3071 17.2779C64.3205 17.2794 64.3323 17.281 64.3402 17.2842C64.3488 17.2873 64.3551 17.2912 64.3591 17.2952C64.363 17.2999 64.3646 17.3054 64.3646 17.3133C64.3646 17.3227 64.3622 17.333 64.3567 17.3424C64.3512 17.3527 64.3425 17.3637 64.3299 17.3771L63.9323 17.7771L64.3803 18.359C64.3906 18.3739 64.3984 18.3842 64.4032 18.3936C64.4079 18.4023 64.4095 18.4101 64.4095 18.4172Z" fill="#0383B0"/>
<path fill-rule="evenodd" clip-rule="evenodd" d="M65.5024 17.818C65.5024 17.8503 65.4945 17.8723 65.4787 17.8865C65.463 17.8999 65.4441 17.9062 65.4244 17.9062H64.6992C64.6992 17.9684 64.7055 18.0235 64.7173 18.0723C64.7299 18.122 64.7504 18.1637 64.7787 18.1991C64.8079 18.2345 64.8449 18.2613 64.8905 18.2802C64.9362 18.2983 64.9929 18.3086 65.0583 18.3086C65.111 18.3086 65.1583 18.3038 65.1984 18.2952C65.2394 18.2873 65.2748 18.2771 65.3047 18.2668C65.3346 18.2566 65.3591 18.2471 65.3787 18.2385C65.3976 18.2298 65.4118 18.2251 65.4221 18.2251C65.4276 18.2251 65.4331 18.2267 65.4378 18.2298C65.4417 18.2322 65.4457 18.2369 65.4472 18.2424C65.4496 18.2479 65.452 18.2558 65.4535 18.266C65.4543 18.2763 65.4551 18.2889 65.4551 18.3031C65.4551 18.3141 65.4543 18.3227 65.4535 18.3306C65.4528 18.3385 65.452 18.3456 65.4512 18.3511C65.4496 18.3574 65.4472 18.3629 65.4441 18.3684C65.4417 18.3731 65.4386 18.3771 65.4339 18.3818C65.4291 18.3865 65.4157 18.3936 65.3937 18.4038C65.3717 18.4141 65.3433 18.4235 65.3079 18.4338C65.2732 18.4432 65.2323 18.4519 65.1866 18.4597C65.1402 18.4676 65.0913 18.4716 65.0394 18.4716C64.948 18.4716 64.8693 18.459 64.8008 18.4338C64.7331 18.4086 64.6756 18.3708 64.6291 18.3212C64.5827 18.2708 64.5472 18.2086 64.5236 18.133C64.5 18.0582 64.4882 17.9708 64.4882 17.8708C64.4882 17.7763 64.5 17.6905 64.5252 17.6149C64.5496 17.5393 64.585 17.4747 64.6307 17.4227C64.6772 17.37 64.7331 17.3298 64.7984 17.3007C64.8638 17.2731 64.937 17.259 65.0173 17.259C65.1039 17.259 65.1779 17.2723 65.2386 17.3007C65.3 17.3282 65.3496 17.366 65.389 17.4125C65.4276 17.4597 65.4567 17.5149 65.4748 17.5786C65.4937 17.6416 65.5024 17.7094 65.5024 17.781V17.818ZM65.2992 17.7582C65.3016 17.6519 65.2787 17.5684 65.2283 17.5078C65.1787 17.4471 65.1055 17.4172 65.0079 17.4172C64.9575 17.4172 64.9142 17.4259 64.8764 17.4448C64.8386 17.4637 64.8071 17.4889 64.7819 17.5204C64.7559 17.5511 64.7362 17.5873 64.7228 17.629C64.7087 17.67 64.7008 17.7133 64.6992 17.7582H65.2992ZM67.4496 18.418C67.4496 18.4251 67.448 18.4306 67.4449 18.4353C67.4417 18.4393 67.4362 18.4432 67.4291 18.4471C67.422 18.4495 67.4118 18.4519 67.3984 18.4542C67.3858 18.4558 67.3693 18.4566 67.3496 18.4566C67.3291 18.4566 67.3126 18.4558 67.2992 18.4542C67.2866 18.4519 67.2756 18.4495 67.2677 18.4471C67.2606 18.4432 67.2551 18.4393 67.252 18.4353C67.248 18.4306 67.2465 18.4251 67.2465 18.418V17.7479C67.2465 17.7007 67.2425 17.6582 67.2346 17.6196C67.226 17.581 67.2134 17.5487 67.1953 17.5204C67.1772 17.4928 67.1543 17.4716 67.1268 17.4566C67.0992 17.4424 67.0669 17.4345 67.0291 17.4345C66.9827 17.4345 66.9354 17.4527 66.889 17.4881C66.8425 17.5243 66.7906 17.5771 66.7346 17.6464V18.418C66.7346 18.4251 66.7323 18.4306 66.7291 18.4353C66.726 18.4393 66.7205 18.4432 66.7126 18.4471C66.7047 18.4495 66.6945 18.4519 66.6811 18.4542C66.6685 18.4558 66.652 18.4566 66.6323 18.4566C66.6126 18.4566 66.5968 18.4558 66.5835 18.4542C66.5701 18.4519 66.5591 18.4495 66.5512 18.4471C66.5433 18.4432 66.5378 18.4393 66.5354 18.4353C66.5323 18.4306 66.5307 18.4251 66.5307 18.418V17.7479C66.5307 17.7007 66.526 17.6582 66.5173 17.6196C66.5087 17.581 66.4953 17.5487 66.4772 17.5204C66.4591 17.4928 66.4362 17.4716 66.4094 17.4566C66.3819 17.4424 66.3496 17.4345 66.3118 17.4345C66.2654 17.4345 66.2181 17.4527 66.1709 17.4881C66.1236 17.5243 66.0716 17.5771 66.0165 17.6464V18.418C66.0165 18.4251 66.0142 18.4306 66.011 18.4353C66.0079 18.4393 66.0031 18.4432 65.9953 18.4471C65.9874 18.4495 65.978 18.4519 65.9646 18.4542C65.9512 18.4558 65.9346 18.4566 65.9142 18.4566C65.8937 18.4566 65.878 18.4558 65.8646 18.4542C65.8512 18.4519 65.8409 18.4495 65.8331 18.4471C65.8252 18.4432 65.8197 18.4393 65.8165 18.4353C65.8142 18.4306 65.8126 18.4251 65.8126 18.418V17.3141C65.8126 17.3078 65.8142 17.3023 65.8165 17.2975C65.8189 17.2936 65.8236 17.2897 65.8315 17.2857C65.8386 17.2818 65.848 17.2794 65.8598 17.2779C65.8709 17.2771 65.8866 17.2763 65.9055 17.2763C65.9228 17.2763 65.9386 17.2771 65.9496 17.2779C65.9622 17.2794 65.9716 17.2818 65.978 17.2857C65.9843 17.2897 65.9898 17.2936 65.9921 17.2975C65.9945 17.3023 65.9968 17.3078 65.9968 17.3141V17.4605C66.0583 17.3905 66.1189 17.3393 66.1779 17.307C66.2362 17.2747 66.2953 17.259 66.3551 17.259C66.4008 17.259 66.4417 17.2645 66.478 17.2747C66.5142 17.2857 66.5465 17.2999 66.5748 17.3196C66.6024 17.3385 66.626 17.3613 66.6457 17.3889C66.6654 17.4149 66.6819 17.4448 66.6953 17.4779C66.7315 17.4377 66.7661 17.4038 66.8 17.3755C66.8323 17.3471 66.8646 17.3251 66.8953 17.3078C66.9252 17.2905 66.9551 17.2779 66.9842 17.2708C67.0134 17.2621 67.0425 17.259 67.0717 17.259C67.1425 17.259 67.2024 17.2716 67.2504 17.296C67.2984 17.3212 67.337 17.3542 67.3677 17.396C67.3969 17.4377 67.4181 17.4865 67.4307 17.5432C67.4433 17.5991 67.4496 17.6582 67.4496 17.7204V18.418ZM68.022 18.418C68.022 18.4251 68.0205 18.4306 68.0165 18.4353C68.0134 18.4393 68.0087 18.4432 68.0008 18.4471C67.9937 18.4495 67.9835 18.4519 67.9701 18.4542C67.9575 18.4558 67.9402 18.4566 67.9197 18.4566C67.9 18.4566 67.8835 18.4558 67.8701 18.4542C67.8567 18.4519 67.8465 18.4495 67.8394 18.4471C67.8315 18.4432 67.826 18.4393 67.8228 18.4353C67.8197 18.4306 67.8189 18.4251 67.8189 18.418V17.3141C67.8189 17.3086 67.8197 17.3031 67.8228 17.2983C67.826 17.2936 67.8315 17.2897 67.8394 17.2857C67.8465 17.2826 67.8567 17.2802 67.8701 17.2786C67.8835 17.2771 67.9 17.2763 67.9197 17.2763C67.9402 17.2763 67.9575 17.2771 67.9701 17.2786C67.9835 17.2802 67.9937 17.2826 68.0008 17.2857C68.0087 17.2897 68.0134 17.2936 68.0165 17.2983C68.0205 17.3031 68.022 17.3086 68.022 17.3141V18.418ZM68.0449 16.9424C68.0449 16.9897 68.0354 17.0219 68.0173 17.0393C67.9992 17.0566 67.9661 17.0653 67.9173 17.0653C67.8701 17.0653 67.8378 17.0566 67.8197 17.0401C67.8024 17.0235 67.7937 16.992 67.7937 16.9448C67.7937 16.8975 67.8024 16.8645 67.8205 16.8479C67.8386 16.8306 67.8717 16.8219 67.9205 16.8219C67.9677 16.8219 68.0008 16.8298 68.0181 16.8471C68.0354 16.8637 68.0449 16.8952 68.0449 16.9424ZM68.9677 18.3361C68.9677 18.3605 68.9654 18.3794 68.9622 18.3928C68.9591 18.407 68.9543 18.4172 68.948 18.4235C68.9417 18.4298 68.9315 18.4361 68.9181 18.4416C68.9055 18.4479 68.8905 18.4519 68.874 18.4558C68.8567 18.4597 68.8394 18.4629 68.8205 18.4653C68.8016 18.4676 68.7835 18.4692 68.7646 18.4692C68.7071 18.4692 68.6583 18.4613 68.6173 18.4464C68.5772 18.4314 68.5433 18.4086 68.5173 18.3779C68.4913 18.3471 68.4724 18.3086 68.4598 18.2613C68.4488 18.2149 68.4425 18.159 68.4425 18.096V17.4519H68.2874C68.2756 17.4519 68.2654 17.4456 68.2575 17.4322C68.2504 17.4196 68.2465 17.3983 68.2465 17.3684C68.2465 17.3527 68.248 17.3401 68.2496 17.3298C68.252 17.3188 68.2543 17.3094 68.2575 17.3031C68.2606 17.296 68.2654 17.2912 68.2709 17.2881C68.2764 17.2849 68.2819 17.2842 68.2882 17.2842H68.4425V17.0219C68.4425 17.0156 68.4441 17.0109 68.4465 17.0062C68.4496 17.0007 68.4551 16.9968 68.463 16.9928C68.4709 16.9889 68.4811 16.9865 68.4945 16.9849C68.5071 16.9834 68.5236 16.9826 68.5441 16.9826C68.5646 16.9826 68.5811 16.9834 68.5945 16.9849C68.6079 16.9865 68.6173 16.9889 68.6252 16.9928C68.6323 16.9968 68.6378 17.0007 68.6409 17.0062C68.6441 17.0109 68.6457 17.0156 68.6457 17.0219V17.2842H68.9276C68.9339 17.2842 68.9394 17.2849 68.9441 17.2881C68.9488 17.2912 68.9535 17.296 68.9567 17.3031C68.9606 17.3094 68.963 17.3188 68.9646 17.3298C68.9669 17.3401 68.9677 17.3527 68.9677 17.3684C68.9677 17.3983 68.9638 17.4196 68.9567 17.4322C68.9488 17.4456 68.9394 17.4519 68.9276 17.4519H68.6457V18.066C68.6457 18.1416 68.6575 18.1991 68.6795 18.2377C68.7016 18.2763 68.7417 18.296 68.7992 18.296C68.8181 18.296 68.8346 18.2944 68.8496 18.2905C68.8638 18.2865 68.8772 18.2826 68.8882 18.2786C68.8992 18.2747 68.9094 18.2708 68.9173 18.2668C68.9252 18.2629 68.9331 18.2613 68.9394 18.2613C68.9433 18.2613 68.9472 18.2621 68.9512 18.2645C68.9543 18.266 68.9575 18.27 68.9591 18.2763C68.9614 18.2818 68.963 18.2897 68.9646 18.2999C68.9669 18.3094 68.9677 18.3219 68.9677 18.3361ZM69.8811 17.3857C69.8811 17.4038 69.8811 17.4188 69.8803 17.4314C69.8795 17.4432 69.878 17.4527 69.8748 17.4597C69.8732 17.4668 69.8693 17.4723 69.8661 17.4763C69.8622 17.4794 69.8575 17.481 69.8512 17.481C69.8441 17.481 69.8362 17.4794 69.8268 17.4763C69.8173 17.4723 69.8071 17.4684 69.7953 17.4653C69.7835 17.4613 69.7701 17.4582 69.7551 17.4542C69.7409 17.4511 69.7252 17.4495 69.7079 17.4495C69.6874 17.4495 69.6669 17.4534 69.6472 17.4613C69.6283 17.47 69.6071 17.4834 69.5858 17.5031C69.5638 17.5219 69.5417 17.5464 69.5181 17.5779C69.4945 17.6094 69.4677 17.6471 69.4394 17.692V18.418C69.4394 18.4251 69.4378 18.4306 69.4346 18.4353C69.4307 18.4393 69.426 18.4432 69.4181 18.4471C69.411 18.4495 69.4008 18.4519 69.3874 18.4542C69.3748 18.4558 69.3575 18.4566 69.337 18.4566C69.3173 18.4566 69.3008 18.4558 69.2882 18.4542C69.2748 18.4519 69.2638 18.4495 69.2567 18.4471C69.2488 18.4432 69.2433 18.4393 69.2402 18.4353C69.237 18.4306 69.2362 18.4251 69.2362 18.418V17.3141C69.2362 17.3078 69.237 17.3023 69.2402 17.2975C69.2425 17.2936 69.2472 17.2897 69.2543 17.2857C69.2622 17.2818 69.2709 17.2794 69.2827 17.2779C69.2945 17.2771 69.3094 17.2763 69.3283 17.2763C69.3465 17.2763 69.3614 17.2771 69.3732 17.2779C69.385 17.2794 69.3945 17.2818 69.4016 17.2857C69.4079 17.2897 69.4126 17.2936 69.4157 17.2975C69.4181 17.3023 69.4197 17.3078 69.4197 17.3141V17.4747C69.4496 17.4306 69.478 17.3944 69.5047 17.3668C69.5315 17.3393 69.5567 17.3172 69.5803 17.3007C69.6039 17.2849 69.6276 17.2739 69.6504 17.2676C69.674 17.2613 69.6969 17.259 69.7213 17.259C69.7315 17.259 69.7433 17.259 69.7567 17.2605C69.7709 17.2613 69.7842 17.2645 69.7992 17.2668C69.8142 17.2708 69.8276 17.2739 69.8394 17.2786C69.8512 17.2826 69.8591 17.2865 69.8646 17.2905C69.8693 17.2944 69.8724 17.2983 69.874 17.3023C69.8756 17.3062 69.8772 17.3109 69.8787 17.3164C69.8795 17.3219 69.8803 17.3306 69.8811 17.3408C69.8811 17.3527 69.8811 17.3668 69.8811 17.3857ZM70.8913 18.4196C70.8913 18.429 70.8882 18.4369 70.8819 18.4416C70.8748 18.4471 70.8661 18.4503 70.8543 18.4527C70.8433 18.455 70.826 18.4566 70.8039 18.4566C70.7835 18.4566 70.7661 18.455 70.7535 18.4527C70.7409 18.4503 70.7315 18.4471 70.726 18.4416C70.7197 18.4369 70.7173 18.4298 70.7173 18.4196V18.3094C70.6693 18.3605 70.6158 18.4007 70.5559 18.429C70.4969 18.4574 70.4339 18.4716 70.3677 18.4716C70.3094 18.4716 70.2567 18.4637 70.2102 18.4487C70.163 18.4338 70.1228 18.4117 70.0898 18.3834C70.0567 18.355 70.0307 18.3196 70.0126 18.2779C69.9937 18.2361 69.985 18.1889 69.985 18.1353C69.985 18.0731 69.9976 18.0188 70.0228 17.9731C70.048 17.9275 70.0843 17.8897 70.1323 17.859C70.1795 17.829 70.2378 17.8062 70.3063 17.7912C70.3748 17.7763 70.452 17.7684 70.5378 17.7684H70.6906V17.6826C70.6906 17.6401 70.6858 17.6023 70.6772 17.5692C70.6677 17.5369 70.6535 17.5093 70.6331 17.4873C70.6134 17.466 70.5874 17.4495 70.5559 17.4385C70.5236 17.4275 70.4843 17.4219 70.4378 17.4219C70.3882 17.4219 70.3433 17.4275 70.3039 17.4401C70.2646 17.4519 70.2291 17.4653 70.2 17.4794C70.1701 17.4944 70.1449 17.507 70.1252 17.5196C70.1055 17.5314 70.0906 17.5377 70.0803 17.5377C70.074 17.5377 70.0677 17.5361 70.0638 17.5322C70.0583 17.5298 70.0543 17.5243 70.0504 17.518C70.0465 17.5117 70.0441 17.5031 70.0425 17.4928C70.0409 17.4826 70.0402 17.4716 70.0402 17.459C70.0402 17.4393 70.0409 17.4227 70.0441 17.4109C70.0472 17.3991 70.0543 17.3881 70.0654 17.3779C70.0756 17.3668 70.0953 17.3542 70.122 17.3401C70.1488 17.3259 70.1803 17.3125 70.215 17.2999C70.2504 17.2881 70.2882 17.2786 70.3307 17.2708C70.3717 17.2621 70.4142 17.259 70.4559 17.259C70.5354 17.259 70.6031 17.2676 70.6583 17.2857C70.7142 17.3038 70.759 17.3306 70.7929 17.3653C70.8276 17.3999 70.852 17.4432 70.8677 17.4944C70.8835 17.5456 70.8913 17.6062 70.8913 17.6747V18.4196ZM70.6906 17.9141H70.5173C70.4622 17.9141 70.4142 17.9188 70.3732 17.9282C70.3323 17.9377 70.2984 17.9519 70.2717 17.97C70.2449 17.9889 70.2252 18.0101 70.2118 18.0361C70.1992 18.0621 70.1929 18.092 70.1929 18.1251C70.1929 18.1826 70.211 18.2282 70.2472 18.2621C70.2842 18.296 70.3346 18.3133 70.4 18.3133C70.4528 18.3133 70.5024 18.2999 70.5472 18.2731C70.5929 18.2464 70.6402 18.2046 70.6906 18.1487V17.9141ZM72.0937 18.4196C72.0937 18.429 72.0906 18.4369 72.0843 18.4416C72.0779 18.4471 72.0685 18.4503 72.0567 18.4527C72.0457 18.455 72.0291 18.4566 72.0071 18.4566C71.9858 18.4566 71.9685 18.455 71.9559 18.4527C71.9441 18.4503 71.9346 18.4471 71.9283 18.4416C71.9228 18.4369 71.9197 18.4298 71.9197 18.4196V18.3094C71.8717 18.3605 71.8181 18.4007 71.7591 18.429C71.6992 18.4574 71.6362 18.4716 71.5701 18.4716C71.5126 18.4716 71.4598 18.4637 71.4126 18.4487C71.3661 18.4338 71.3252 18.4117 71.2929 18.3834C71.2598 18.355 71.2339 18.3196 71.215 18.2779C71.1968 18.2361 71.1874 18.1889 71.1874 18.1353C71.1874 18.0731 71.2 18.0188 71.2252 17.9731C71.2504 17.9275 71.2874 17.8897 71.3346 17.859C71.3819 17.829 71.4402 17.8062 71.5087 17.7912C71.5772 17.7763 71.6551 17.7684 71.7409 17.7684H71.8929V17.6826C71.8929 17.6401 71.8882 17.6023 71.8795 17.5692C71.8701 17.5369 71.8559 17.5093 71.8362 17.4873C71.8158 17.466 71.7905 17.4495 71.7583 17.4385C71.7268 17.4275 71.6874 17.4219 71.6409 17.4219C71.5906 17.4219 71.5464 17.4275 71.5071 17.4401C71.4669 17.4519 71.4323 17.4653 71.4024 17.4794C71.3732 17.4944 71.348 17.507 71.3276 17.5196C71.3079 17.5314 71.2929 17.5377 71.2835 17.5377C71.2764 17.5377 71.2709 17.5361 71.2661 17.5322C71.2614 17.5298 71.2567 17.5243 71.2528 17.518C71.2496 17.5117 71.2472 17.5031 71.2449 17.4928C71.2433 17.4826 71.2425 17.4716 71.2425 17.459C71.2425 17.4393 71.2441 17.4227 71.2472 17.4109C71.2496 17.3991 71.2567 17.3881 71.2677 17.3779C71.2787 17.3668 71.2976 17.3542 71.3244 17.3401C71.3512 17.3259 71.3827 17.3125 71.4181 17.2999C71.4528 17.2881 71.4913 17.2786 71.5331 17.2708C71.5748 17.2621 71.6165 17.259 71.659 17.259C71.7386 17.259 71.8055 17.2676 71.8614 17.2857C71.9165 17.3038 71.9614 17.3306 71.9961 17.3653C72.0299 17.3999 72.0551 17.4432 72.0709 17.4944C72.0858 17.5456 72.0937 17.6062 72.0937 17.6747V18.4196ZM71.8929 17.9141H71.7205C71.6654 17.9141 71.6165 17.9188 71.5756 17.9282C71.5354 17.9377 71.5016 17.9519 71.474 17.97C71.4472 17.9889 71.4276 18.0101 71.415 18.0361C71.4024 18.0621 71.3961 18.092 71.3961 18.1251C71.3961 18.1826 71.4142 18.2282 71.4504 18.2621C71.4866 18.296 71.537 18.3133 71.6031 18.3133C71.6559 18.3133 71.7055 18.2999 71.7504 18.2731C71.7953 18.2464 71.8433 18.2046 71.8929 18.1487V17.9141ZM73.415 18.418C73.415 18.4251 73.4134 18.4306 73.4094 18.4353C73.4063 18.4393 73.4016 18.4432 73.3937 18.4471C73.3866 18.4495 73.3764 18.4519 73.363 18.4542C73.3496 18.4558 73.3339 18.4566 73.3142 18.4566C73.2929 18.4566 73.2764 18.4558 73.263 18.4542C73.2496 18.4519 73.2402 18.4495 73.2323 18.4471C73.2244 18.4432 73.2197 18.4393 73.2165 18.4353C73.2134 18.4306 73.211 18.4251 73.211 18.418V17.7716C73.211 17.7094 73.2063 17.6582 73.1968 17.6196C73.1874 17.581 73.1732 17.5487 73.1543 17.5204C73.1354 17.4928 73.111 17.4716 73.0819 17.4566C73.052 17.4424 73.0173 17.4345 72.9787 17.4345C72.9283 17.4345 72.878 17.4527 72.8276 17.4881C72.7772 17.5243 72.7244 17.5771 72.6693 17.6464V18.418C72.6693 18.4251 72.6669 18.4306 72.6638 18.4353C72.6606 18.4393 72.6559 18.4432 72.648 18.4471C72.6402 18.4495 72.6307 18.4519 72.6173 18.4542C72.6039 18.4558 72.5874 18.4566 72.5669 18.4566C72.5465 18.4566 72.5307 18.4558 72.5173 18.4542C72.5039 18.4519 72.4937 18.4495 72.4858 18.4471C72.478 18.4432 72.4724 18.4393 72.4701 18.4353C72.4669 18.4306 72.4654 18.4251 72.4654 18.418V17.3141C72.4654 17.3078 72.4669 17.3023 72.4693 17.2975C72.4717 17.2936 72.4764 17.2897 72.4843 17.2857C72.4913 17.2818 72.5008 17.2794 72.5126 17.2779C72.5236 17.2771 72.5394 17.2763 72.5583 17.2763C72.5764 17.2763 72.5913 17.2771 72.6031 17.2779C72.615 17.2794 72.6244 17.2818 72.6307 17.2857C72.637 17.2897 72.6425 17.2936 72.6449 17.2975C72.648 17.3023 72.6496 17.3078 72.6496 17.3141V17.4605C72.711 17.3905 72.7724 17.3393 72.8346 17.307C72.8961 17.2747 72.9583 17.259 73.0213 17.259C73.0945 17.259 73.1559 17.2716 73.2063 17.296C73.2567 17.3212 73.2969 17.3542 73.3283 17.396C73.3591 17.4377 73.3811 17.4865 73.3945 17.5432C73.4079 17.5991 73.415 17.666 73.415 17.7448V18.418Z" fill="#0383B0"/>
<path fill-rule="evenodd" clip-rule="evenodd" d="M37.689 0.269194C38.5984 1.11486 38.9252 2.46368 38.8598 4.1251C35.326 8.90856 31.3118 12.7645 26.8165 15.6944C28.7787 12.7865 30.2 10.0464 31.0795 7.47392L31.1299 11.0432C32.8032 8.86683 33.9079 6.30699 34.4449 3.36447C34.7732 4.90069 34.9425 6.27628 34.9528 7.49124C36.8614 4.98494 37.8583 2.89518 37.5913 1.31723C37.4205 0.308564 36.774 0.124312 36.1488 0.8188C36.0732 0.903052 36.1465 1.07707 36.1874 0.987304C36.274 0.797541 36.4417 0.857383 36.6016 1.02982C36.9693 1.42667 36.8008 2.14715 35.9126 2.04478C35.3055 1.97471 35.163 1.17628 35.5323 0.771556C36.1748 0.0676194 37.1016 -0.277263 37.689 0.269194Z" fill="#0383B0"/>
<path fill-rule="evenodd" clip-rule="evenodd" d="M39.8709 4.60699C35.811 9.46368 30.9614 13.7361 25.3205 17.4243C27.8559 16.5613 30.2693 15.6944 32.6102 14.9802C33.389 14.7424 33.7315 14.9605 33.5953 15.4747C33.4953 15.3731 33.363 15.3432 33.1976 15.3818C32.6591 15.507 32.5283 16.1361 33.1299 16.5314C33.6354 16.8637 34.2921 16.1086 34.3228 15.5172C34.3575 14.8519 33.4756 14.3613 31.4984 14.0282C33.7906 13.144 36.5535 11.6054 39.7858 9.41093C38.5331 9.73455 37.2362 9.86447 35.8961 9.7999C39.9315 8.07077 43.015 5.86604 45.148 3.18652C43.6992 4.21801 41.9402 4.69124 39.8709 4.60699Z" fill="#F4C60A"/>
</g>
<defs>
<clipPath id="clip0_801_8431">
<rect width="80" height="18.896" fill="white" transform="translate(0.5)"/>
</clipPath>
</defs>
</svg>
