<svg width="80" height="40" viewBox="0 0 80 40" fill="none" xmlns="http://www.w3.org/2000/svg">
<g clip-path="url(#clip0_801_8259)">
<path d="M80 0H0V40.0019H80V0Z" fill="#0077B3"/>
<path fill-rule="evenodd" clip-rule="evenodd" d="M9.64797 13.7424C6.85425 14.0063 6.51493 15.8499 6.0248 16.7473C5.71564 16.4984 5.55729 16.4381 5.24437 16.193C5.44042 15.5408 6.03234 14.5756 6.50362 14.0252C7.61206 12.8262 8.83737 13.2108 10.1419 12.5623C10.9411 12.0458 11.1447 11.3219 11.4124 10.5905C11.8309 10.6659 11.9365 10.7564 12.2645 10.9185C12.0119 12.1891 11.1938 13.437 9.64797 13.7424ZM10.7036 15.1751C12.2494 14.8697 13.0675 13.618 13.3202 12.3512C12.9921 12.1891 12.8866 12.0986 12.4681 12.0232C12.2004 12.7546 11.9968 13.4823 11.1975 13.995C9.89303 14.6435 8.66771 14.2589 7.55927 15.4578C7.08423 16.0083 6.49231 16.9735 6.30003 17.6257C6.60918 17.8745 6.76753 17.9349 7.08046 18.1799C7.57058 17.2789 7.9099 15.4352 10.7036 15.1751ZM11.7291 16.5814C13.2749 16.276 14.093 15.0243 14.3456 13.7575C14.0176 13.5954 13.9121 13.5049 13.4936 13.4295C13.2259 14.1609 13.0223 14.8885 12.223 15.4013C10.9185 16.0498 9.69321 15.6652 8.58477 16.8641C8.10972 17.4146 7.5178 18.3798 7.32552 19.032C7.63468 19.2808 7.79303 19.3412 8.10595 19.5862C8.59608 18.6851 8.9354 16.8415 11.7291 16.5814ZM12.8338 17.8745C14.3796 17.5692 15.1977 16.3174 15.4503 15.0507C15.1223 14.8885 15.0167 14.7981 14.5982 14.7227C14.3306 15.4541 14.127 16.1817 13.3277 16.6945C12.0232 17.3429 10.7979 16.9584 9.68944 18.1573C9.2144 18.7078 8.62247 19.6729 8.43019 20.3252C8.73935 20.574 8.8977 20.6343 9.21062 20.8794C9.70075 19.9783 10.0401 18.1347 12.8338 17.8745ZM9.44815 22.2744C6.65065 22.493 6.28117 24.3291 5.77597 25.2227C5.47058 24.9701 5.31223 24.906 5.00684 24.6534C5.21044 24.0049 5.81744 23.0473 6.30003 22.5044C7.42732 21.3243 8.64886 21.7277 9.96089 21.0981C10.7677 20.5966 10.9826 19.8728 11.2616 19.1451C11.6801 19.228 11.7819 19.3185 12.1061 19.4844C11.8347 20.7512 10.9977 21.9878 9.44815 22.2668V22.2744ZM10.4812 23.7221C7.68369 23.9408 7.31421 25.7769 6.809 26.6704C6.50362 26.4178 6.34527 26.3537 6.03988 26.1011C6.24347 25.4527 6.85048 24.495 7.33306 23.9521C8.46035 22.772 9.6819 23.1755 10.9939 22.5458C11.8008 22.0444 12.0157 21.3205 12.2947 20.5929C12.7131 20.6758 12.8149 20.7663 13.1392 20.9322C12.8677 22.199 12.0307 23.4356 10.4812 23.7184V23.7221ZM11.4878 25.1473C13.0374 24.8645 13.8744 23.6279 14.1458 22.3649C13.8216 22.199 13.716 22.1085 13.3013 22.0255C13.0223 22.7532 12.8074 23.4771 12.0006 23.9785C10.6885 24.6044 9.467 24.201 8.33971 25.3848C7.85712 25.9277 7.25012 26.8853 7.04653 27.5338C7.35191 27.7864 7.51026 27.8505 7.81942 28.1031C8.32463 27.2096 8.69034 25.3735 11.4916 25.1548L11.4878 25.1473ZM12.5699 26.4593C14.1194 26.1765 14.9564 24.9399 15.2316 23.6769C14.9074 23.511 14.8056 23.4205 14.3871 23.3376C14.1081 24.0652 13.8932 24.7891 13.0864 25.2905C11.7744 25.9164 10.5528 25.513 9.42553 26.6968C8.94294 27.2397 8.33594 28.1974 8.13235 28.8458C8.43773 29.0984 8.59608 29.1625 8.90147 29.4151C9.40668 28.5216 9.77238 26.6855 12.5736 26.4668L12.5699 26.4593ZM23.2584 14.0553C23.2584 14.2325 23.2358 14.3984 23.1868 14.5568C23.1415 14.7151 23.0737 14.8584 22.9907 14.9903C22.904 15.1223 22.8022 15.2392 22.6778 15.341C22.5572 15.4428 22.4177 15.5257 22.2631 15.5936C22.38 15.6162 22.4893 15.6577 22.5949 15.718C22.6967 15.7783 22.7871 15.8537 22.8588 15.9442C22.9304 16.0347 22.9907 16.144 23.0284 16.2647C23.0699 16.3891 23.0888 16.5248 23.0888 16.6756C23.0888 16.8264 23.0699 16.9848 23.0284 17.1356C22.9907 17.2902 22.9266 17.4372 22.8475 17.5767C22.7645 17.7162 22.6665 17.8482 22.5458 17.9688C22.4252 18.0894 22.2857 18.195 22.1236 18.2817C21.9615 18.3722 21.7805 18.4401 21.5807 18.4891C21.3808 18.5381 21.1509 18.5645 20.887 18.5645H19.4241C19.3299 18.5645 19.2582 18.5419 19.213 18.4929C19.1677 18.4438 19.1564 18.3684 19.1828 18.2591L20.1593 13.256C20.1782 13.1429 20.2234 13.0638 20.295 13.0185C20.3667 12.9733 20.4421 12.9507 20.5175 12.9507H21.7051C21.9841 12.9507 22.2178 12.9733 22.4063 13.0223C22.5949 13.0713 22.7532 13.1392 22.8776 13.2334C23.0058 13.3277 23.0963 13.4408 23.1604 13.5765C23.2245 13.7122 23.2546 13.8668 23.2546 14.044L23.2584 14.0553ZM22.4818 14.1911C22.4818 14.0968 22.4667 14.0101 22.4365 13.9347C22.4063 13.8593 22.3536 13.7952 22.2857 13.7386C22.2178 13.6858 22.1273 13.6444 22.0218 13.6142C21.9162 13.5841 21.7767 13.569 21.6033 13.569H20.8304L20.4835 15.3862H21.3092C21.5317 15.3862 21.7164 15.3485 21.8597 15.2731C22.0029 15.1977 22.1198 15.1034 22.2141 14.9866C22.3046 14.8697 22.3724 14.7415 22.4177 14.5982C22.4629 14.455 22.4818 14.3192 22.4818 14.1911ZM22.3159 16.7359C22.3159 16.4946 22.2329 16.3099 22.067 16.178C21.9011 16.046 21.6448 15.9819 21.2941 15.9819H20.3591L19.9746 17.9613H21.0001C21.2338 17.9613 21.4299 17.9273 21.5882 17.8595C21.7466 17.7916 21.8823 17.7011 21.9916 17.5918C22.101 17.4824 22.1801 17.3505 22.2367 17.2034C22.2932 17.0564 22.3234 16.9018 22.3234 16.7397L22.3159 16.7359ZM27.9523 18.3081L27.1266 13.0977C27.1191 13.0675 27.1116 13.0411 27.0965 13.0185C27.0814 12.9997 27.0588 12.9808 27.0211 12.9695C26.9871 12.9582 26.9381 12.9507 26.8816 12.9431C26.825 12.9393 26.7496 12.9356 26.6554 12.9356C26.5724 12.9356 26.5046 12.9356 26.448 12.9431C26.3915 12.9469 26.3424 12.9582 26.3085 12.9695C26.2708 12.9808 26.2406 12.9959 26.218 13.0185C26.1954 13.0374 26.1728 13.0638 26.1539 13.0977L23.2886 18.3081C23.2584 18.3722 23.2396 18.4212 23.2283 18.4627C23.2207 18.5004 23.2283 18.5306 23.2471 18.5532C23.266 18.572 23.3037 18.5871 23.3527 18.5947C23.4017 18.6022 23.4695 18.606 23.5563 18.606C23.6317 18.606 23.6995 18.606 23.7523 18.5984C23.8051 18.5947 23.8466 18.5833 23.8805 18.572C23.9144 18.5607 23.9408 18.5456 23.9559 18.5268C23.9748 18.5079 23.9898 18.4853 24.0049 18.4552L24.7213 17.1017H27.0173L27.2171 18.4665C27.2171 18.4929 27.2284 18.5155 27.2397 18.5306C27.2511 18.5494 27.2699 18.5607 27.2925 18.572C27.3152 18.5833 27.3491 18.5909 27.3943 18.5947C27.4396 18.5984 27.4961 18.6022 27.5564 18.6022C27.6507 18.6022 27.7299 18.6022 27.7864 18.5947C27.843 18.5871 27.8845 18.5758 27.9108 18.557C27.9372 18.5381 27.9561 18.5079 27.9599 18.4665C27.9636 18.425 27.9599 18.376 27.9523 18.3119V18.3081ZM26.5196 13.7085L26.9306 16.5022H25.038L26.5196 13.7085ZM33.0308 18.2629C33.0232 18.3194 33.0044 18.3684 32.9818 18.4099C32.9554 18.4514 32.9252 18.4815 32.8951 18.5079C32.8611 18.5343 32.8272 18.5532 32.7895 18.5645C32.7518 18.5758 32.7141 18.5796 32.6802 18.5796H32.4049C32.3295 18.5796 32.2692 18.572 32.2164 18.5532C32.1674 18.5343 32.1222 18.5042 32.0807 18.4627C32.043 18.4212 32.0091 18.3647 31.9789 18.3006C31.9487 18.2327 31.9148 18.1498 31.8846 18.048L30.8516 15.0582C30.78 14.8433 30.7121 14.6322 30.6405 14.4173C30.5688 14.2061 30.5047 13.9912 30.4369 13.7801H30.4256C30.3879 14.0176 30.3502 14.2514 30.3049 14.4851C30.2635 14.7189 30.2182 14.9526 30.173 15.1864L29.5358 18.4552C29.532 18.4778 29.5207 18.5004 29.5056 18.5155C29.4906 18.5343 29.4679 18.5456 29.4378 18.557C29.4076 18.5683 29.3699 18.5758 29.3247 18.5833C29.2757 18.5909 29.2229 18.5947 29.155 18.5947C29.0872 18.5947 29.0344 18.5947 28.9891 18.5833C28.9439 18.5758 28.9137 18.5683 28.8873 18.557C28.8647 18.5456 28.8496 18.5343 28.8421 18.5155C28.8345 18.5004 28.8345 18.4778 28.8421 18.4552L29.8525 13.2824C29.8751 13.1656 29.9241 13.0826 29.9958 13.0336C30.0674 12.9846 30.1428 12.9582 30.2182 12.9582H30.5538C30.6216 12.9582 30.6819 12.9657 30.731 12.9808C30.78 12.9959 30.8252 13.0223 30.8629 13.0562C30.9006 13.0939 30.9308 13.1429 30.9609 13.2033C30.9911 13.2636 31.0213 13.339 31.0552 13.4295L32.0995 16.4607C32.1636 16.6492 32.2315 16.8377 32.2956 17.0225C32.3597 17.211 32.4238 17.3995 32.4841 17.5918H32.4916C32.5293 17.3543 32.5746 17.1092 32.6198 16.8566C32.6688 16.604 32.7141 16.3552 32.7593 16.1214L33.3626 13.0826C33.3701 13.06 33.3776 13.0411 33.3927 13.0261C33.4078 13.011 33.4267 12.9959 33.4568 12.9846C33.487 12.9733 33.5209 12.9657 33.5662 12.9582C33.6114 12.9507 33.668 12.9507 33.732 12.9507C33.7961 12.9507 33.8527 12.9507 33.8979 12.9582C33.9432 12.962 33.9771 12.9733 33.9997 12.9846C34.0261 12.9959 34.0412 13.0072 34.0487 13.0261C34.0563 13.0411 34.0601 13.06 34.0563 13.0826L33.0308 18.2629ZM38.999 13.0788C38.999 13.1165 38.9839 13.1542 38.9538 13.1995C38.9236 13.241 38.8784 13.2937 38.8143 13.3541L36.5258 15.6237L37.9735 18.2365C37.9999 18.2855 38.0188 18.3232 38.0263 18.3534C38.0376 18.3835 38.0414 18.4099 38.0414 18.4325C38.0414 18.4589 38.0338 18.4815 38.0225 18.5004C38.0112 18.5192 37.9924 18.5381 37.966 18.5494C37.9396 18.5607 37.9019 18.5683 37.8491 18.5758C37.8001 18.5833 37.736 18.5871 37.6568 18.5871C37.5777 18.5871 37.5136 18.5871 37.4683 18.5796C37.4193 18.572 37.3816 18.5645 37.3514 18.557C37.3213 18.5456 37.2987 18.5306 37.2836 18.5155C37.2685 18.4966 37.2572 18.474 37.2459 18.4476L35.734 15.6464L35.1911 18.4514C35.1911 18.474 35.1798 18.4966 35.1647 18.5117C35.1496 18.5306 35.127 18.5419 35.0931 18.5532C35.0629 18.5645 35.0215 18.572 34.9724 18.5796C34.9234 18.5871 34.8669 18.5909 34.799 18.5909C34.7312 18.5909 34.6708 18.5909 34.6218 18.5796C34.5728 18.5683 34.5389 18.5645 34.5125 18.5532C34.4861 18.5419 34.471 18.5306 34.4635 18.5117C34.4559 18.4966 34.4522 18.474 34.4597 18.4514L35.5154 13.0638C35.5154 13.0449 35.5267 13.0223 35.5455 13.0072C35.5606 12.9884 35.587 12.977 35.6171 12.9657C35.6473 12.9544 35.6888 12.9469 35.7378 12.9393C35.7868 12.9318 35.8434 12.928 35.9112 12.928C35.9791 12.928 36.0356 12.928 36.0847 12.9393C36.1299 12.9469 36.1676 12.9544 36.194 12.9657C36.2204 12.977 36.2355 12.9884 36.243 13.0072C36.2505 13.0223 36.2543 13.0411 36.2505 13.0638L35.7604 15.5596L38.1696 13.0713C38.1922 13.0449 38.2186 13.0223 38.245 13.0034C38.2714 12.9846 38.3015 12.9695 38.3392 12.962C38.3769 12.9507 38.4184 12.9431 38.4674 12.9393C38.5202 12.9318 38.5768 12.9318 38.6446 12.9318C38.72 12.9318 38.7803 12.9318 38.8256 12.9431C38.8708 12.9507 38.9085 12.962 38.9312 12.9695C38.9576 12.9808 38.9764 12.9959 38.9839 13.0147C38.9953 13.0298 38.999 13.0525 38.999 13.0751V13.0788ZM23.5261 21.3507C23.5261 21.3771 23.5261 21.411 23.5186 21.4562C23.5148 21.5015 23.5072 21.5505 23.4997 21.607C23.4922 21.6636 23.4771 21.7164 23.462 21.7729C23.4469 21.8295 23.4318 21.8823 23.4092 21.9275C23.3904 21.9728 23.364 22.0142 23.3414 22.0444C23.315 22.0746 23.2886 22.0896 23.2622 22.0896C23.2207 22.0896 23.1679 22.0708 23.1038 22.0331C23.0397 21.9954 22.9606 21.9539 22.8663 21.9087C22.7721 21.8634 22.6627 21.822 22.5383 21.7842C22.4139 21.7465 22.2744 21.7277 22.1123 21.7277C21.9502 21.7277 21.8107 21.7503 21.6938 21.7956C21.5807 21.8408 21.4864 21.9011 21.411 21.9765C21.3394 22.0519 21.2828 22.1349 21.2489 22.2291C21.2112 22.3196 21.1961 22.4176 21.1961 22.5119C21.1961 22.6212 21.2225 22.7193 21.2791 22.8022C21.3356 22.8851 21.4072 22.9643 21.4977 23.036C21.5882 23.1076 21.6938 23.1792 21.8107 23.2471C21.9275 23.315 22.0482 23.3828 22.1688 23.4582C22.2895 23.5299 22.4101 23.6128 22.527 23.6995C22.6439 23.7862 22.7494 23.888 22.8399 24.0011C22.9304 24.118 23.0058 24.2462 23.0586 24.3932C23.1151 24.5403 23.1415 24.7137 23.1415 24.906C23.1415 25.1925 23.085 25.4602 22.9681 25.7053C22.8512 25.9503 22.6891 26.1615 22.4742 26.3462C22.2593 26.5272 22.0029 26.6704 21.7013 26.7722C21.3997 26.8778 21.0642 26.9268 20.6984 26.9268C20.4986 26.9268 20.3177 26.9117 20.1518 26.8778C19.9859 26.8476 19.8351 26.8062 19.7069 26.7609C19.5787 26.7157 19.4694 26.6667 19.3826 26.6139C19.2922 26.5649 19.2281 26.5159 19.1866 26.4706C19.1451 26.4254 19.1225 26.3537 19.1225 26.2633C19.1225 26.2406 19.1225 26.2029 19.13 26.1539C19.1376 26.1049 19.1451 26.0521 19.1564 25.9956C19.1677 25.939 19.179 25.8825 19.1941 25.8221C19.2092 25.7618 19.2281 25.709 19.2507 25.66C19.2733 25.611 19.2959 25.5695 19.3223 25.5394C19.3487 25.5092 19.3751 25.4941 19.4053 25.4941C19.458 25.4941 19.5184 25.5168 19.59 25.5658C19.6616 25.611 19.7521 25.6638 19.8577 25.7203C19.9633 25.7769 20.0914 25.8297 20.2385 25.8787C20.3855 25.9277 20.5589 25.9503 20.7663 25.9503C20.9473 25.9503 21.1056 25.9277 21.2414 25.8825C21.3771 25.8372 21.4902 25.7731 21.5844 25.6977C21.6749 25.6186 21.7466 25.5281 21.7918 25.4225C21.8408 25.3169 21.8634 25.2038 21.8634 25.0794C21.8634 24.9663 21.837 24.8683 21.7805 24.7816C21.7239 24.6948 21.6523 24.6157 21.5618 24.544C21.4713 24.4724 21.3695 24.4045 21.2564 24.3404C21.1433 24.2764 21.0265 24.2085 20.9058 24.1369C20.7889 24.0652 20.6683 23.9823 20.5552 23.8993C20.4421 23.8164 20.3365 23.7146 20.2498 23.6015C20.1593 23.4846 20.0877 23.3527 20.0311 23.2056C19.9746 23.0586 19.9482 22.8814 19.9482 22.6853C19.9482 22.4101 20.0047 22.1575 20.1141 21.9275C20.2234 21.6975 20.378 21.4977 20.5703 21.3318C20.7663 21.1659 21.0001 21.0377 21.2715 20.9435C21.543 20.853 21.8408 20.804 22.1651 20.804C22.3196 20.804 22.4667 20.8153 22.6024 20.8379C22.7381 20.8605 22.8663 20.8907 22.9794 20.9246C23.0925 20.9586 23.1905 20.9963 23.2697 21.0415C23.3489 21.083 23.4054 21.1207 23.4356 21.1509C23.4658 21.1772 23.4884 21.2112 23.5035 21.2413C23.5186 21.2753 23.5223 21.313 23.5223 21.362L23.5261 21.3507ZM28.9778 24.6345C28.9024 25.0115 28.7818 25.3471 28.6196 25.6299C28.4575 25.9164 28.2577 26.1539 28.0164 26.3462C27.7751 26.5385 27.4999 26.6817 27.187 26.7798C26.874 26.874 26.5272 26.923 26.1502 26.923C25.7467 26.923 25.3999 26.874 25.1134 26.776C24.823 26.6742 24.5968 26.5272 24.4272 26.3349C24.2575 26.1388 24.152 25.8938 24.1029 25.5997C24.0539 25.3056 24.069 24.9625 24.1482 24.5742L24.8532 21.0566C24.8607 21.0264 24.8721 21 24.8985 20.9737C24.9211 20.951 24.9588 20.9284 25.0078 20.9133C25.0568 20.8983 25.1247 20.8869 25.2001 20.8756C25.2792 20.8681 25.3773 20.8605 25.4979 20.8605C25.611 20.8605 25.709 20.8643 25.7807 20.8756C25.8561 20.8832 25.9164 20.8945 25.9579 20.9133C25.9994 20.9284 26.0295 20.951 26.0408 20.9737C26.0521 21 26.0597 21.0264 26.0521 21.0566L25.3471 24.5742C25.2981 24.8117 25.283 25.0115 25.3056 25.185C25.3283 25.3584 25.381 25.4979 25.4602 25.611C25.5432 25.7203 25.6525 25.8033 25.7882 25.8598C25.9239 25.9126 26.0898 25.939 26.2821 25.939C26.4744 25.939 26.6554 25.9089 26.8213 25.8485C26.9871 25.7882 27.1342 25.7015 27.2624 25.5846C27.3906 25.4715 27.4999 25.3282 27.5904 25.1624C27.6809 24.9965 27.745 24.808 27.7902 24.5968L28.5028 21.0528C28.5103 21.0227 28.5216 20.9963 28.548 20.9699C28.5706 20.9473 28.6046 20.9246 28.6536 20.9096C28.6988 20.8945 28.7629 20.8832 28.8459 20.8719C28.925 20.8643 29.0231 20.8568 29.1399 20.8568C29.2568 20.8568 29.3511 20.8605 29.4227 20.8719C29.4943 20.8794 29.5509 20.8907 29.5961 20.9096C29.6376 20.9246 29.6678 20.9473 29.6791 20.9699C29.6942 20.9963 29.6979 21.0227 29.6904 21.0528L28.974 24.627L28.9778 24.6345ZM36.7708 26.6629C36.7633 26.6931 36.7482 26.7194 36.7294 26.7458C36.7105 26.7685 36.6803 26.7911 36.6351 26.8062C36.5899 26.8212 36.5295 26.8326 36.4541 26.8401C36.3787 26.8476 36.2845 26.8514 36.1714 26.8514C36.0583 26.8514 35.9565 26.8514 35.8848 26.8401C35.8132 26.8326 35.7566 26.8212 35.7152 26.8062C35.6775 26.7911 35.6511 26.7685 35.6398 26.7458C35.6285 26.7194 35.6285 26.6931 35.6322 26.6629L36.5936 21.8408H36.5861L33.8979 26.6591C33.8602 26.7345 33.7886 26.7873 33.6868 26.8137C33.5812 26.8401 33.4304 26.8514 33.2381 26.8514C33.0459 26.8514 32.8988 26.8326 32.8083 26.7986C32.7216 26.7647 32.6764 26.7194 32.6726 26.6704L31.9789 21.837H31.9714L31.0062 26.6629C30.9986 26.6931 30.9873 26.7194 30.9685 26.7458C30.9496 26.7685 30.9157 26.7911 30.8705 26.8062C30.8252 26.8212 30.7687 26.8326 30.6933 26.8401C30.6179 26.8476 30.5236 26.8514 30.4067 26.8514C30.2898 26.8514 30.1956 26.8514 30.124 26.8401C30.0523 26.8326 29.9958 26.8212 29.9543 26.8062C29.9128 26.7911 29.8902 26.7685 29.8751 26.7458C29.8638 26.7194 29.86 26.6931 29.8714 26.6629L30.9232 21.3808C30.9383 21.3054 30.9609 21.2338 30.9949 21.1735C31.0288 21.1132 31.0665 21.0604 31.1155 21.0189C31.1608 20.9774 31.2173 20.9473 31.2776 20.9246C31.338 20.902 31.4058 20.8907 31.4737 20.8907H32.224C32.3597 20.8907 32.4728 20.902 32.5671 20.9246C32.6613 20.9473 32.7405 20.9887 32.8008 21.0415C32.8611 21.0981 32.9101 21.1697 32.9403 21.2564C32.9705 21.3469 32.9931 21.4525 33.0044 21.5769L33.5775 25.102H33.6001L35.6322 21.5769C35.6926 21.4562 35.7529 21.3544 35.8132 21.2677C35.8735 21.181 35.9414 21.1094 36.0168 21.0528C36.0922 20.9963 36.1751 20.9548 36.2656 20.9284C36.3561 20.902 36.4654 20.8907 36.5899 20.8907H37.4419C37.5173 20.8907 37.5852 20.902 37.638 20.9246C37.6908 20.9435 37.736 20.9774 37.7662 21.0189C37.8001 21.0604 37.819 21.1094 37.8265 21.1697C37.834 21.23 37.834 21.2979 37.8189 21.3733L36.7671 26.6591L36.7708 26.6629ZM42.2075 21.3507C42.2075 21.3017 42.1999 21.2602 42.1886 21.23C42.1735 21.1999 42.1509 21.1659 42.1208 21.1395C42.0906 21.1094 42.034 21.0754 41.9549 21.0302C41.8757 20.985 41.7777 20.9473 41.6646 20.9133C41.5515 20.8756 41.4233 20.8492 41.2875 20.8266C41.1518 20.804 41.0048 20.7927 40.8502 20.7927C40.526 20.7927 40.2281 20.8379 39.9567 20.9322C39.6852 21.0264 39.4514 21.1546 39.2554 21.3205C39.0631 21.4864 38.9085 21.6862 38.7992 21.9162C38.6899 22.15 38.6333 22.4026 38.6333 22.674C38.6333 22.8738 38.6597 23.0473 38.7163 23.1943C38.7728 23.3451 38.8444 23.4771 38.9349 23.5902C39.0254 23.7033 39.1272 23.8051 39.2403 23.888C39.3534 23.9747 39.4703 24.0539 39.5909 24.1255C39.7116 24.1972 39.8285 24.265 39.9416 24.3291C40.0547 24.3932 40.1602 24.4611 40.247 24.5327C40.3374 24.6044 40.4091 24.6835 40.4656 24.7703C40.5184 24.8532 40.5486 24.955 40.5486 25.0681C40.5486 25.1925 40.526 25.3056 40.4769 25.4112C40.4317 25.5168 40.3601 25.6072 40.2696 25.6864C40.1791 25.7656 40.0622 25.8259 39.9265 25.8712C39.7908 25.9164 39.6324 25.939 39.4514 25.939C39.2479 25.939 39.0707 25.9126 38.9236 25.8674C38.7766 25.8184 38.6484 25.7656 38.5428 25.709C38.4335 25.6525 38.3468 25.5997 38.2751 25.5545C38.2035 25.5054 38.1432 25.4828 38.0904 25.4828C38.0602 25.4828 38.0338 25.4979 38.0075 25.5281C37.9811 25.5582 37.9584 25.5997 37.9358 25.6487C37.917 25.6977 37.8981 25.7505 37.8793 25.8108C37.8642 25.8712 37.8529 25.9277 37.8416 25.9843C37.8303 26.0408 37.8227 26.0936 37.8152 26.1426C37.8076 26.1916 37.8076 26.2293 37.8076 26.2519C37.8076 26.3424 37.8303 26.4141 37.8717 26.4593C37.9132 26.5045 37.9811 26.5536 38.0678 26.6026C38.1545 26.6554 38.2638 26.7044 38.392 26.7496C38.5202 26.7949 38.671 26.8363 38.8369 26.8665C39.0066 26.9004 39.1875 26.9155 39.3836 26.9155C39.7493 26.9155 40.0848 26.8627 40.3865 26.7609C40.6881 26.6591 40.9444 26.5159 41.1593 26.3349C41.3705 26.1539 41.5364 25.939 41.6532 25.694C41.7701 25.4489 41.8267 25.1812 41.8267 24.8947C41.8267 24.7024 41.8003 24.5327 41.7437 24.3819C41.6909 24.2349 41.6155 24.1029 41.5251 23.9898C41.4346 23.8767 41.329 23.7749 41.2121 23.6882C41.0953 23.6015 40.9746 23.5223 40.854 23.4469C40.7333 23.3753 40.6127 23.3036 40.4958 23.2358C40.3789 23.1679 40.2733 23.1 40.1829 23.0246C40.0924 22.953 40.017 22.8776 39.9642 22.7909C39.9076 22.7079 39.8812 22.6099 39.8812 22.5006C39.8812 22.4063 39.9001 22.3121 39.934 22.2178C39.968 22.1236 40.0245 22.0406 40.0962 21.9652C40.1678 21.8898 40.262 21.8295 40.3789 21.7842C40.492 21.739 40.6315 21.7164 40.7974 21.7164C40.9633 21.7164 41.099 21.7352 41.2234 21.7729C41.3479 21.8106 41.4572 21.8521 41.5515 21.8974C41.6419 21.9426 41.7249 21.9841 41.789 22.0218C41.8531 22.0595 41.9059 22.0783 41.9473 22.0783C41.9737 22.0783 42.0039 22.0632 42.0265 22.0331C42.0529 22.0029 42.0755 21.9614 42.0944 21.9162C42.1132 21.8672 42.1321 21.8144 42.1471 21.7616C42.1622 21.7051 42.1735 21.6485 42.1848 21.5957C42.1924 21.5392 42.1999 21.4902 42.2037 21.4449C42.2075 21.3997 42.2112 21.362 42.2112 21.3394L42.2075 21.3507ZM47.0032 21.0679C47.0032 21.0679 47.0032 21.1169 46.9956 21.1659C46.9919 21.2112 46.9843 21.264 46.973 21.3205C46.9655 21.3771 46.9542 21.4374 46.9353 21.4977C46.9202 21.5618 46.9014 21.6146 46.8787 21.6674C46.8561 21.7164 46.8297 21.7579 46.7958 21.7956C46.7619 21.8295 46.7279 21.8446 46.694 21.8446H44.5789L44.2886 23.2886H46.0832C46.1247 23.2886 46.1549 23.3036 46.1737 23.3338C46.1926 23.364 46.2001 23.4054 46.2001 23.462C46.2001 23.4846 46.2001 23.5185 46.1926 23.56C46.1888 23.6053 46.1813 23.6543 46.17 23.7108C46.1624 23.7674 46.1511 23.8239 46.1323 23.8805C46.1172 23.937 46.0983 23.9898 46.0757 24.0426C46.0531 24.0916 46.0267 24.1293 45.9965 24.1595C45.9664 24.1896 45.9324 24.2047 45.8947 24.2047H44.1001L43.7646 25.8749H45.9098C45.9475 25.8749 45.9739 25.89 45.9928 25.9239C46.0116 25.9541 46.0191 26.0031 46.0191 26.0634C46.0191 26.0823 46.0191 26.12 46.0154 26.1652C46.0154 26.2105 46.0078 26.2633 45.9965 26.3198C45.9852 26.3764 45.9739 26.4329 45.9588 26.4932C45.9437 26.5498 45.9249 26.6063 45.9023 26.6591C45.8797 26.7081 45.8533 26.7496 45.8231 26.7798C45.7929 26.8099 45.759 26.825 45.7175 26.825H42.7391C42.6901 26.825 42.6448 26.8175 42.6071 26.8062C42.5656 26.7911 42.5355 26.7685 42.5091 26.7383C42.4827 26.7044 42.4638 26.6667 42.4563 26.6214C42.4488 26.5724 42.4488 26.5159 42.4601 26.448L43.4931 21.2828C43.5195 21.1471 43.5761 21.0528 43.659 20.9925C43.7419 20.9322 43.8362 20.902 43.938 20.902H46.8825C46.9617 20.902 46.9994 20.9586 46.9994 21.0755L47.0032 21.0679ZM50.3587 26.0069C50.3587 26.0295 50.3587 26.0634 50.3511 26.1087C50.3473 26.1539 50.3398 26.2105 50.3285 26.2708C50.3172 26.3311 50.3021 26.3952 50.287 26.4593C50.2682 26.5234 50.2493 26.5837 50.2267 26.6365C50.2041 26.6893 50.1777 26.7345 50.1475 26.7685C50.1174 26.8024 50.0834 26.8175 50.042 26.8175H47.3236C47.2746 26.8175 47.2294 26.8099 47.1879 26.7986C47.1464 26.7835 47.1125 26.7609 47.0861 26.7308C47.0597 26.6968 47.0409 26.6591 47.0333 26.6139C47.0258 26.5649 47.0258 26.5083 47.0371 26.4405L48.1154 21.0528C48.1154 21.0227 48.1342 20.9963 48.1569 20.9699C48.1795 20.9473 48.2172 20.9246 48.27 20.9096C48.319 20.8945 48.3868 20.8832 48.4622 20.8756C48.5414 20.8681 48.6394 20.8643 48.7601 20.8643C48.8807 20.8643 48.9712 20.8643 49.0466 20.8756C49.122 20.8832 49.1823 20.8945 49.2238 20.9096C49.2653 20.9246 49.2955 20.9473 49.3068 20.9699C49.3181 20.9963 49.3256 21.0227 49.3181 21.0528L48.368 25.8259H50.2418C50.2832 25.8259 50.3134 25.8448 50.3323 25.8749C50.3511 25.9089 50.3587 25.9541 50.3587 26.0069ZM55.7764 22.1009C55.7764 22.2819 55.75 22.4516 55.701 22.6099C55.652 22.772 55.5766 22.9191 55.4824 23.051C55.3881 23.183 55.2712 23.2999 55.1355 23.4017C54.9998 23.5035 54.849 23.5864 54.6831 23.6467C54.815 23.6694 54.9395 23.7146 55.0488 23.7749C55.1619 23.8352 55.2561 23.9144 55.3353 24.0087C55.4145 24.1029 55.4786 24.216 55.5201 24.348C55.5653 24.4762 55.5842 24.6232 55.5842 24.7853C55.5842 24.9324 55.5653 25.0832 55.5238 25.2415C55.4861 25.3961 55.422 25.5507 55.3353 25.7015C55.2524 25.8523 55.1393 25.9956 55.0035 26.1313C54.8678 26.267 54.7019 26.3877 54.5097 26.4895C54.3174 26.5913 54.0949 26.6742 53.8423 26.7345C53.5897 26.7949 53.2956 26.825 52.9601 26.825H51.3163C51.1919 26.825 51.1014 26.7949 51.0448 26.7345C50.9883 26.6742 50.9732 26.5799 50.9996 26.448L52.0326 21.2828C52.059 21.1471 52.1118 21.0528 52.1947 20.9925C52.2777 20.9322 52.3757 20.902 52.4851 20.902H53.914C54.2269 20.902 54.4983 20.9284 54.7283 20.9737C54.9583 21.0227 55.1468 21.0943 55.3052 21.1961C55.4597 21.2941 55.5766 21.4185 55.6558 21.5693C55.735 21.7202 55.7727 21.8974 55.7727 22.1085L55.7764 22.1009ZM54.5398 22.3272C54.5398 22.2404 54.5247 22.165 54.4946 22.1009C54.4644 22.0369 54.4192 21.9803 54.3588 21.9351C54.2947 21.8898 54.2193 21.8521 54.1251 21.8295C54.0346 21.8031 53.914 21.7918 53.7707 21.7918H53.1147L52.8093 23.33H53.4842C53.684 23.33 53.8461 23.2999 53.9781 23.2358C54.11 23.1717 54.2156 23.0925 54.2985 22.9945C54.3815 22.8965 54.4456 22.7871 54.4795 22.6665C54.5172 22.5458 54.536 22.4327 54.536 22.3234L54.5398 22.3272ZM54.3325 24.8457C54.3325 24.6496 54.2608 24.495 54.1138 24.3819C53.9705 24.2688 53.7405 24.2123 53.4238 24.2123H52.6283L52.289 25.9013H53.1411C53.356 25.9013 53.5407 25.8712 53.6877 25.8108C53.8348 25.7505 53.9592 25.6713 54.0535 25.5733C54.1515 25.4753 54.2193 25.3622 54.2646 25.234C54.3098 25.1058 54.3325 24.9776 54.3325 24.8457ZM61.0208 26.3726L60.2479 21.1169C60.2404 21.0604 60.2291 21.0151 60.2102 20.9812C60.1913 20.9473 60.1536 20.9246 60.0971 20.9058C60.0405 20.8869 59.9576 20.8794 59.8558 20.8719C59.7502 20.8681 59.6107 20.8643 59.4335 20.8643C59.2752 20.8643 59.1508 20.8643 59.0527 20.8719C58.9547 20.8756 58.8793 20.8869 58.8228 20.9058C58.7662 20.9246 58.721 20.9473 58.6908 20.9774C58.6606 21.0076 58.6305 21.0491 58.6003 21.1018L55.7312 26.3613C55.6746 26.4706 55.6332 26.5536 55.6143 26.6177C55.5955 26.6817 55.5992 26.7308 55.6219 26.7647C55.6483 26.7986 55.701 26.8212 55.7764 26.8288C55.8556 26.8363 55.965 26.8439 56.1044 26.8439C56.2364 26.8439 56.3457 26.8439 56.4325 26.8363C56.5192 26.8288 56.587 26.8175 56.6398 26.8062C56.6926 26.7911 56.7303 26.7685 56.7567 26.7383C56.7831 26.7119 56.8095 26.6742 56.8283 26.629L57.4391 25.4677H59.6598L59.8219 26.6591C59.8219 26.7006 59.8332 26.7345 59.8483 26.7609C59.8633 26.7873 59.8935 26.8062 59.9312 26.8175C59.9727 26.8288 60.0292 26.8401 60.1046 26.8439C60.18 26.8476 60.2743 26.8514 60.3949 26.8514C60.5571 26.8514 60.6852 26.8514 60.7795 26.8401C60.8738 26.8326 60.9379 26.8137 60.9793 26.7798C61.0208 26.7458 61.0396 26.6968 61.0434 26.6327C61.0434 26.5686 61.0396 26.4819 61.0246 26.3726H61.0208ZM59.2186 22.0255L59.558 24.5403H57.8953L59.2149 22.0255H59.2186ZM66.6158 22.1009C66.6158 22.2819 66.5894 22.4516 66.5404 22.6099C66.4914 22.772 66.416 22.9191 66.3217 23.051C66.2274 23.183 66.1106 23.2999 65.9748 23.4017C65.8391 23.5035 65.6883 23.5864 65.5224 23.6467C65.6544 23.6694 65.7788 23.7146 65.8881 23.7749C66.0012 23.8352 66.0955 23.9144 66.1747 24.0087C66.2538 24.1029 66.3179 24.216 66.3594 24.348C66.4046 24.4762 66.4235 24.6232 66.4235 24.7853C66.4235 24.9324 66.4046 25.0832 66.3632 25.2415C66.3255 25.3961 66.2614 25.5507 66.1747 25.7015C66.0917 25.8523 65.9786 25.9956 65.8429 26.1313C65.7072 26.267 65.5413 26.3877 65.349 26.4895C65.1567 26.5913 64.9343 26.6742 64.6817 26.7345C64.4291 26.7949 64.135 26.825 63.7994 26.825H62.1556C62.0312 26.825 61.9407 26.7949 61.8842 26.7345C61.8276 26.6742 61.8125 26.5799 61.8389 26.448L62.872 21.2828C62.8984 21.1471 62.9511 21.0528 63.0341 20.9925C63.117 20.9322 63.2151 20.902 63.3282 20.902H64.7571C65.07 20.902 65.3415 20.9284 65.5714 20.9737C65.8014 21.0227 65.9899 21.0943 66.1483 21.1961C66.3029 21.2941 66.4197 21.4185 66.4989 21.5693C66.5781 21.7202 66.6158 21.8974 66.6158 22.1085V22.1009ZM65.3792 22.3272C65.3792 22.2404 65.3641 22.165 65.3339 22.1009C65.3037 22.0369 65.2585 21.9803 65.1982 21.9351C65.1341 21.8898 65.0587 21.8521 64.9644 21.8295C64.8739 21.8031 64.7533 21.7918 64.61 21.7918H63.954L63.6486 23.33H64.3235C64.5233 23.33 64.6854 23.2999 64.8174 23.2358C64.9493 23.1717 65.0549 23.0925 65.1379 22.9945C65.2208 22.8965 65.2849 22.7871 65.3188 22.6665C65.3565 22.5458 65.3754 22.4327 65.3754 22.3234L65.3792 22.3272ZM65.1718 24.8457C65.1718 24.6496 65.1002 24.495 64.9531 24.3819C64.8099 24.2688 64.5799 24.2123 64.2632 24.2123H63.4677L63.1283 25.9013H63.9766C64.1915 25.9013 64.3763 25.8712 64.5233 25.8108C64.6704 25.7505 64.7948 25.6713 64.889 25.5733C64.9871 25.4753 65.0549 25.3622 65.1002 25.234C65.1454 25.1058 65.168 24.9776 65.168 24.8457H65.1718ZM71.6377 21.0679C71.6377 21.0679 71.6377 21.1169 71.6302 21.1659C71.6264 21.2112 71.6188 21.264 71.6075 21.3205C71.6 21.3771 71.5887 21.4374 71.5698 21.4977C71.5548 21.5618 71.5359 21.6146 71.5133 21.6674C71.4907 21.7164 71.4643 21.7579 71.4303 21.7956C71.3964 21.8295 71.3625 21.8446 71.3285 21.8446H69.2135L68.9231 23.2886H70.7178C70.7592 23.2886 70.7894 23.3036 70.8083 23.3338C70.8271 23.364 70.8346 23.4054 70.8346 23.462C70.8346 23.4846 70.8346 23.5185 70.8271 23.56C70.8233 23.6053 70.8158 23.6543 70.8045 23.7108C70.7969 23.7674 70.7856 23.8239 70.7668 23.8805C70.7517 23.937 70.7328 23.9898 70.7102 24.0426C70.6876 24.0916 70.6612 24.1293 70.6311 24.1595C70.6009 24.1896 70.567 24.2047 70.5293 24.2047H68.7346L68.3991 25.8749H70.5443C70.582 25.8749 70.6084 25.89 70.6273 25.9239C70.6461 25.9541 70.6537 26.0031 70.6537 26.0634C70.6537 26.0823 70.6537 26.12 70.6499 26.1652C70.6499 26.2105 70.6424 26.2633 70.6311 26.3198C70.6197 26.3764 70.6084 26.4329 70.5934 26.4932C70.5783 26.5498 70.5594 26.6063 70.5368 26.6591C70.5142 26.7081 70.4878 26.7496 70.4576 26.7798C70.4275 26.8099 70.3935 26.825 70.3521 26.825H67.3736C67.3246 26.825 67.2793 26.8175 67.2416 26.8062C67.2002 26.7911 67.17 26.7685 67.1436 26.7383C67.1172 26.7044 67.0984 26.6667 67.0908 26.6214C67.0833 26.5724 67.0833 26.5159 67.0946 26.448L68.1276 21.2828C68.154 21.1471 68.2106 21.0528 68.2935 20.9925C68.3765 20.9322 68.4707 20.902 68.5725 20.902H71.5171C71.5962 20.902 71.6339 20.9586 71.6339 21.0755L71.6377 21.0679ZM74.9932 26.0069C74.9932 26.0295 74.9932 26.0634 74.9856 26.1087C74.9819 26.1539 74.9743 26.2105 74.963 26.2708C74.9517 26.3311 74.9366 26.3952 74.9215 26.4593C74.9027 26.5234 74.8838 26.5837 74.8612 26.6365C74.8386 26.6893 74.8122 26.7345 74.7821 26.7685C74.7519 26.8024 74.718 26.8175 74.6765 26.8175H71.9582C71.9091 26.8175 71.8639 26.8099 71.8224 26.7986C71.781 26.7835 71.747 26.7609 71.7206 26.7308C71.6942 26.6968 71.6754 26.6591 71.6679 26.6139C71.6603 26.5649 71.6603 26.5083 71.6716 26.4405L72.7499 21.0528C72.7499 21.0227 72.7688 20.9963 72.7914 20.9699C72.814 20.9473 72.8517 20.9246 72.9045 20.9096C72.9535 20.8945 73.0214 20.8832 73.0968 20.8756C73.1759 20.8681 73.274 20.8643 73.3946 20.8643C73.5153 20.8643 73.6057 20.8643 73.6811 20.8756C73.7565 20.8832 73.8169 20.8945 73.8583 20.9096C73.8998 20.9246 73.93 20.9473 73.9413 20.9699C73.9526 20.9963 73.9601 21.0227 73.9526 21.0528L73.0025 25.8259H74.8763C74.9178 25.8259 74.9479 25.8448 74.9668 25.8749C74.9856 25.9089 74.9932 25.9541 74.9932 26.0069Z" fill="white"/>
</g>
<defs>
<clipPath id="clip0_801_8259">
<rect width="80" height="40.0019" fill="white"/>
</clipPath>
</defs>
</svg>
