<svg width="81" height="23" viewBox="0 0 81 23" fill="none" xmlns="http://www.w3.org/2000/svg">
<g clip-path="url(#clip0_801_8292)">
<path d="M0.5 3.94564C0.917742 3.83597 1.33548 3.72631 1.78037 3.60968C2.12402 4.88565 2.46511 6.15207 2.8128 7.44271C8.79468 5.84179 14.763 4.24455 20.7474 2.6429C20.8641 3.07494 20.9745 3.48388 21.0911 3.91629C14.6801 5.63201 8.28819 7.34258 1.88196 9.05683C1.71251 8.43077 1.54931 7.83258 1.3883 7.23365C1.11506 6.21626 0.843289 5.19849 0.569318 4.18146C0.554281 4.12498 0.523473 4.0729 0.5 4.01899C0.5 3.99442 0.5 3.97021 0.5 3.94564Z" fill="#28317D"/>
<path d="M27.9352 8.94717C28.0541 9.38911 28.1641 9.79879 28.2785 10.2242C26.1377 10.7967 24.0186 11.3638 21.8752 11.9366C21.4729 10.4395 21.0746 8.9556 20.6723 7.45921C14.6838 9.06086 8.7173 10.6563 2.73505 12.2561C2.90816 12.9016 3.0765 13.5288 3.25071 14.179C7.52202 13.0373 11.779 11.8992 16.061 10.7546C16.1747 11.176 16.2862 11.5901 16.4035 12.0269C11.7057 13.2845 7.01882 14.5388 2.31437 15.7979C1.9124 14.3004 1.5163 12.826 1.11322 11.3245C7.9449 9.49621 14.7645 7.67157 21.609 5.83996C22.0091 7.33011 22.4063 8.8089 22.8109 10.3159C24.517 9.86004 26.2151 9.40635 27.9352 8.9468V8.94717Z" fill="#E62530"/>
<path d="M19.5353 15.9861C19.0207 14.0653 18.5124 12.1681 17.9975 10.2451C18.4134 10.1318 18.8212 10.0207 19.258 9.90148C19.6596 11.3935 20.0576 12.8708 20.4639 14.3811C23.2378 13.6395 26.0009 12.9005 28.7861 12.1556C28.8995 12.5708 29.011 12.979 29.1302 13.4151C25.9331 14.2718 22.7463 15.1256 19.5353 15.9861Z" fill="#ED721F"/>
<path d="M22.0425 2.30364C22.4731 2.18848 22.8776 2.08029 23.3082 1.96512C23.537 2.81454 23.7622 3.65076 23.9922 4.50495C23.5587 4.62158 23.1505 4.73161 22.7265 4.84567C22.4965 3.99075 22.2724 3.1582 22.0425 2.30328V2.30364Z" fill="#ED721F"/>
<path d="M6.90586 2.23799C7.13362 3.09071 7.35624 3.92363 7.5851 4.78039C7.16186 4.89445 6.75365 5.00448 6.32454 5.12001C6.09495 4.26912 5.86939 3.4329 5.63943 2.58018C6.06158 2.46612 6.47125 2.35536 6.90586 2.23799Z" fill="#ED721F"/>
<path d="M33.9941 6.23897H36.2375C36.4493 6.23897 36.6675 6.22292 36.8922 6.19083C37.1232 6.15874 37.3318 6.09776 37.518 6.0079C37.7105 5.91162 37.8678 5.78324 37.9898 5.62277C38.1117 5.45589 38.1727 5.23765 38.1727 4.96807C38.1727 4.7049 38.1149 4.48346 37.9994 4.30373C37.8903 4.12401 37.7458 3.97959 37.5661 3.87047C37.3928 3.75494 37.1938 3.67149 36.9692 3.62014C36.751 3.56879 36.5295 3.54312 36.3049 3.54312H33.9941V6.23897ZM33.9941 3.05209H36.3049C36.5103 3.05209 36.7092 3.03604 36.9018 3.00395C37.1008 2.96544 37.2773 2.90125 37.4313 2.81139C37.5918 2.71511 37.7202 2.58994 37.8165 2.43589C37.9127 2.27543 37.9609 2.07645 37.9609 1.83896C37.9609 1.59505 37.9095 1.38644 37.8068 1.21313C37.7106 1.03341 37.579 0.888989 37.4121 0.779871C37.2516 0.664335 37.0687 0.580892 36.8633 0.529542C36.6579 0.471774 36.4493 0.44289 36.2375 0.44289H33.9941V3.05209ZM36.2375 0C36.5199 0 36.7927 0.0353029 37.0558 0.105909C37.3254 0.176514 37.5629 0.288841 37.7683 0.44289C37.9737 0.59052 38.1374 0.779871 38.2593 1.01094C38.3877 1.24202 38.4519 1.51802 38.4519 1.83896C38.4519 2.18556 38.3524 2.48724 38.1534 2.74399C37.9609 2.99432 37.6945 3.17404 37.3543 3.28316C37.7779 3.3987 38.1053 3.61372 38.3364 3.92824C38.5674 4.23634 38.683 4.58616 38.683 4.9777C38.683 5.32431 38.6092 5.61315 38.4615 5.84422C38.3139 6.06887 38.1246 6.2486 37.8935 6.38339C37.6624 6.51176 37.3992 6.60483 37.104 6.6626C36.8151 6.71395 36.5263 6.73963 36.2375 6.73963H33.4742V0H36.2375Z" fill="#28317D"/>
<path d="M44.3914 1.98338V6.73963H43.9197V5.72868C43.6886 6.10097 43.403 6.37697 43.0628 6.55669C42.7226 6.73 42.3599 6.81665 41.9748 6.81665C41.641 6.81665 41.3265 6.75888 41.0312 6.64335C40.7424 6.52139 40.4889 6.3513 40.2706 6.13306C40.0524 5.91483 39.8791 5.65808 39.7507 5.36282C39.6223 5.06114 39.5582 4.72737 39.5582 4.3615C39.5582 3.99564 39.6223 3.66507 39.7507 3.36981C39.8791 3.06814 40.0524 2.81139 40.2706 2.59957C40.4889 2.38775 40.7424 2.22408 41.0312 2.10854C41.3265 1.98659 41.641 1.92561 41.9748 1.92561C42.3599 1.92561 42.729 2.01547 43.082 2.19519C43.4415 2.37492 43.7207 2.65092 43.9197 3.0232V1.98338H44.3914ZM41.9748 2.37813C41.7052 2.37813 41.4517 2.42627 41.2142 2.52255C40.9767 2.61241 40.7713 2.74399 40.598 2.9173C40.4247 3.0906 40.2867 3.29921 40.184 3.54312C40.0813 3.78703 40.0299 4.05982 40.0299 4.3615C40.0299 4.65676 40.0813 4.92956 40.184 5.17988C40.2867 5.4238 40.4247 5.6324 40.598 5.80571C40.7713 5.97901 40.9767 6.1138 41.2142 6.21008C41.4517 6.30637 41.7052 6.35451 41.9748 6.35451C42.4177 6.35451 42.7835 6.25823 43.0724 6.06566C43.3676 5.86669 43.5891 5.61957 43.7367 5.32431C43.8843 5.02905 43.9582 4.71132 43.9582 4.37113C43.9582 4.02452 43.8843 3.70359 43.7367 3.40833C43.5891 3.11307 43.3676 2.86916 43.0724 2.67659C42.7835 2.47762 42.4177 2.37813 41.9748 2.37813Z" fill="#28317D"/>
<path d="M46.1187 1.98338V2.83064C46.3048 2.50329 46.5487 2.26901 46.8504 2.1278C47.1585 1.98017 47.4794 1.90314 47.8132 1.89672C48.1342 1.89672 48.4262 1.94486 48.6894 2.04114C48.9525 2.13742 49.1772 2.27543 49.3633 2.45515C49.5495 2.63487 49.6939 2.85632 49.7966 3.11948C49.9057 3.37623 49.9603 3.66828 49.9603 3.99564V6.73963H49.4885V4.00526C49.4885 3.45968 49.3344 3.04888 49.0264 2.77288C48.7247 2.49045 48.3139 2.35245 47.794 2.35887C47.5501 2.35887 47.3254 2.4038 47.12 2.49366C46.9146 2.58352 46.7381 2.70548 46.5905 2.85953C46.4428 3.01358 46.3273 3.19651 46.2439 3.40833C46.1668 3.62014 46.1283 3.84801 46.1283 4.09192V6.73963H45.6565V1.98338H46.1187Z" fill="#28317D"/>
<path d="M51.6374 0V4.06303L53.8808 1.98338H54.5066V2.00263L52.0996 4.22671L54.7858 6.71074V6.73963H54.1889L51.6374 4.40964V6.73963H51.1753V0H51.6374Z" fill="#28317D"/>
<path d="M34.8634 8.50959V14.71H38.7252V16.0187H33.4474V8.50959H34.8634Z" fill="#28317D"/>
<path d="M44.0512 10.7301H45.3063V16.0187H44.0727L44.0083 15.2463C43.9368 15.4037 43.8331 15.5395 43.6972 15.654C43.5613 15.7684 43.4147 15.8649 43.2574 15.9436C43.1001 16.0223 42.9356 16.0795 42.764 16.1152C42.5995 16.1582 42.4421 16.1796 42.292 16.1796C41.8986 16.1796 41.5339 16.1224 41.1978 16.008C40.8688 15.8864 40.5827 15.7076 40.3396 15.4716C40.0964 15.2356 39.9069 14.9424 39.771 14.592C39.6352 14.2415 39.5672 13.8339 39.5672 13.3691C39.5672 12.9114 39.6387 12.5109 39.7818 12.1676C39.9248 11.8172 40.1179 11.5275 40.361 11.2987C40.6113 11.0627 40.9046 10.8875 41.2407 10.773C41.5768 10.6586 41.938 10.6014 42.3241 10.6014C42.6817 10.6014 43.0143 10.6801 43.3218 10.8374C43.6293 10.9876 43.8581 11.195 44.0083 11.4596L44.0512 10.7301ZM42.4421 11.7707C42.2276 11.7707 42.0238 11.8064 41.8307 11.878C41.6376 11.9495 41.4695 12.0532 41.3265 12.1891C41.1906 12.3249 41.0798 12.493 40.9939 12.6932C40.9153 12.8935 40.876 13.1188 40.876 13.3691C40.876 13.6194 40.9153 13.8446 40.9939 14.0449C41.0798 14.2451 41.1906 14.4168 41.3265 14.5598C41.4695 14.6957 41.6376 14.7994 41.8307 14.8709C42.0238 14.9424 42.2276 14.9782 42.4421 14.9782C42.7854 14.9782 43.0715 14.8995 43.3003 14.7422C43.5292 14.5848 43.7008 14.3882 43.8152 14.1522C43.9297 13.909 43.9869 13.6515 43.9869 13.3798C43.9869 13.1009 43.9297 12.8434 43.8152 12.6074C43.7008 12.3643 43.5292 12.164 43.3003 12.0067C43.0715 11.8494 42.7854 11.7707 42.4421 11.7707Z" fill="#28317D"/>
<path d="M49.9548 16.0187V13.1867C49.9548 13.0151 49.9297 12.8506 49.8797 12.6932C49.8368 12.5288 49.7688 12.3857 49.6759 12.2641C49.59 12.1354 49.4792 12.0353 49.3433 11.9638C49.2074 11.8923 49.0501 11.8565 48.8713 11.8565C48.6925 11.8565 48.5316 11.8923 48.3886 11.9638C48.2527 12.0353 48.1347 12.1354 48.0346 12.2641C47.9416 12.3857 47.8701 12.5288 47.82 12.6932C47.77 12.8506 47.7449 13.0151 47.7449 13.1867V16.0187H46.4362V10.7194H47.6484L47.7449 11.3631C47.888 11.0913 48.0918 10.9018 48.3564 10.7945C48.6282 10.6872 48.8892 10.6336 49.1395 10.6336C49.4613 10.6336 49.7653 10.7087 50.0513 10.8589C50.3374 11.0019 50.5555 11.2558 50.7057 11.6205C50.9417 11.2415 51.2099 10.9876 51.5102 10.8589C51.8106 10.723 52.1324 10.655 52.4757 10.655C53.2337 10.655 53.7951 10.8732 54.1599 11.3094C54.5317 11.7457 54.7177 12.3643 54.7177 13.1652V16.0187H53.409V13.1652C53.409 12.9936 53.3911 12.8291 53.3553 12.6718C53.3196 12.5144 53.2588 12.3786 53.173 12.2641C53.0943 12.1426 52.9906 12.0496 52.8619 11.9852C52.7403 11.9137 52.5901 11.878 52.4113 11.878C52.2325 11.878 52.0716 11.9137 51.9286 11.9852C51.7927 12.0567 51.6747 12.1533 51.5746 12.2749C51.4745 12.3893 51.3958 12.5288 51.3386 12.6932C51.2885 12.8506 51.2635 13.0151 51.2635 13.1867V16.0187H49.9548Z" fill="#28317D"/>
<path d="M58.8983 14.8816C59.12 14.8816 59.3238 14.8423 59.5098 14.7636C59.6957 14.6849 59.853 14.5777 59.9818 14.4418C60.1177 14.3059 60.2214 14.1486 60.2929 13.9698C60.3644 13.7838 60.4001 13.5872 60.4001 13.3798C60.4001 13.1724 60.3644 12.9793 60.2929 12.8005C60.2285 12.6146 60.132 12.4537 60.0032 12.3178C59.8745 12.1819 59.7172 12.0746 59.5312 11.996C59.3453 11.9173 59.1343 11.878 58.8983 11.878C58.6623 11.878 58.4513 11.9173 58.2654 11.996C58.0795 12.0746 57.9221 12.1819 57.7934 12.3178C57.6647 12.4537 57.5646 12.6146 57.493 12.8005C57.4287 12.9793 57.3965 13.1724 57.3965 13.3798C57.3965 13.5872 57.4323 13.7838 57.5038 13.9698C57.5753 14.1486 57.6754 14.3059 57.8041 14.4418C57.94 14.5777 58.1009 14.6849 58.2869 14.7636C58.4728 14.8423 58.6766 14.8816 58.8983 14.8816ZM55.9698 18.2285V10.7301H57.1927L57.2785 11.4596C57.4859 11.1592 57.7469 10.9447 58.0616 10.816C58.3834 10.6801 58.6945 10.6121 58.9949 10.6121C59.4025 10.6121 59.7708 10.6837 60.0998 10.8267C60.4359 10.9697 60.722 11.1664 60.958 11.4167C61.2011 11.6598 61.3871 11.9531 61.5158 12.2963C61.6445 12.6324 61.7089 12.9936 61.7089 13.3798C61.7089 13.766 61.6481 14.1271 61.5265 14.4632C61.4121 14.7994 61.2404 15.0926 61.0116 15.3429C60.7827 15.5932 60.5003 15.7899 60.1641 15.9329C59.8352 16.0759 59.4597 16.1474 59.0378 16.1474C58.9019 16.1474 58.7481 16.1331 58.5765 16.1045C58.412 16.0831 58.2475 16.0437 58.083 15.9865C57.9257 15.9293 57.7755 15.8542 57.6325 15.7612C57.4895 15.6611 57.3715 15.5395 57.2785 15.3965V18.2285H55.9698Z" fill="#28317D"/>
<path d="M63.9319 10.7301V13.4978C63.9319 13.9054 64.0392 14.2451 64.2538 14.5169C64.4683 14.7815 64.7865 14.9138 65.2085 14.9138C65.4087 14.9138 65.5911 14.8745 65.7556 14.7958C65.9272 14.7171 66.0702 14.6098 66.1847 14.474C66.3062 14.3381 66.3992 14.1808 66.4636 14.002C66.5279 13.8232 66.5601 13.6337 66.5601 13.4334V10.7301H67.8581V16.0294H66.6889L66.603 15.3107C66.3313 15.5825 66.0559 15.7827 65.777 15.9114C65.5053 16.0402 65.1835 16.1045 64.8116 16.1045C64.4969 16.1045 64.2037 16.0473 63.9319 15.9329C63.6673 15.8113 63.4385 15.6397 63.2454 15.418C63.0523 15.1963 62.8985 14.9245 62.7841 14.6027C62.6768 14.2809 62.6232 13.9161 62.6232 13.5085V10.7301H63.9319Z" fill="#28317D"/>
<path d="M72.9282 16.0187V13.2511C72.9282 12.8434 72.8209 12.5073 72.6064 12.2427C72.3918 11.9709 72.0736 11.8351 71.6516 11.8351C71.4514 11.8351 71.2655 11.8744 71.0938 11.9531C70.9294 12.0317 70.7863 12.139 70.6647 12.2749C70.5503 12.4108 70.4609 12.5681 70.3966 12.7469C70.3322 12.9257 70.3 13.1152 70.3 13.3154V16.0187H69.002V10.7194H70.1713L70.2571 11.4381C70.5289 11.1735 70.8006 10.9769 71.0724 10.8481C71.3513 10.7123 71.6588 10.6443 71.9949 10.6443C72.3096 10.6443 72.6028 10.7015 72.8746 10.816C73.1463 10.9304 73.3823 11.0984 73.5826 11.3201C73.7828 11.5418 73.9401 11.8136 74.0546 12.1354C74.1761 12.4572 74.2369 12.8255 74.2369 13.2403V16.0187H72.9282Z" fill="#28317D"/>
<path d="M79.5345 10.1938L80.5 10.9232L79.91 11.6741C80.1174 11.903 80.2604 12.1497 80.3391 12.4143C80.4249 12.6718 80.4678 12.9471 80.4678 13.2403C80.4678 13.4048 80.4499 13.5836 80.4142 13.7767C80.3784 13.9626 80.3176 14.145 80.2318 14.3238C80.146 14.5026 80.0316 14.6706 79.8885 14.828C79.7455 14.9853 79.5667 15.114 79.3522 15.2142C79.7956 15.4359 80.0888 15.7005 80.2318 16.008C80.3748 16.3083 80.4464 16.6266 80.4464 16.9627C80.4464 17.3274 80.3784 17.6564 80.2425 17.9496C80.1138 18.2428 79.9314 18.4896 79.6954 18.6898C79.4594 18.8972 79.1805 19.0545 78.8587 19.1618C78.5369 19.2691 78.1829 19.3227 77.7967 19.3227C77.4105 19.3227 77.053 19.2655 76.724 19.1511C76.4022 19.0438 76.1197 18.8865 75.8765 18.6791C75.6405 18.4717 75.4546 18.2214 75.3187 17.9282C75.1828 17.6421 75.1149 17.3203 75.1149 16.9627H76.4129C76.4129 17.1343 76.4486 17.2881 76.5202 17.424C76.5988 17.567 76.699 17.6886 76.8205 17.7887C76.9493 17.8888 77.0959 17.9639 77.2604 18.014C77.432 18.0712 77.6108 18.0998 77.7967 18.0998C78.1758 18.0998 78.494 17.9997 78.7514 17.7994C79.0089 17.6063 79.1376 17.3274 79.1376 16.9627C79.1376 16.7839 79.0983 16.6266 79.0196 16.4907C78.941 16.3548 78.8373 16.244 78.7085 16.1582C78.587 16.0723 78.4439 16.008 78.2794 15.9651C78.1221 15.9222 77.9612 15.9007 77.7967 15.9007C77.3819 15.9007 77.0101 15.8399 76.6811 15.7183C76.3521 15.5968 76.0696 15.4215 75.8336 15.1927C75.6048 14.9638 75.426 14.6849 75.2973 14.356C75.1757 14.027 75.1149 13.6551 75.1149 13.2403C75.1149 12.8255 75.1828 12.4537 75.3187 12.1247C75.4617 11.7957 75.6548 11.5168 75.898 11.288C76.1411 11.052 76.4236 10.8732 76.7454 10.7516C77.0744 10.6229 77.4248 10.5585 77.7967 10.5585C78.0041 10.5585 78.2115 10.58 78.4189 10.6229C78.6263 10.6586 78.823 10.7373 79.0089 10.8589L79.5345 10.1938ZM77.7967 11.7492C77.6036 11.7492 77.4213 11.785 77.2496 11.8565C77.0851 11.9209 76.9385 12.0174 76.8098 12.1461C76.6882 12.2749 76.5917 12.4322 76.5202 12.6181C76.4486 12.8041 76.4129 13.0115 76.4129 13.2403C76.4129 13.4692 76.4486 13.6766 76.5202 13.8625C76.5917 14.0413 76.6882 14.1951 76.8098 14.3238C76.9385 14.4454 77.0851 14.5419 77.2496 14.6134C77.4213 14.6778 77.6036 14.71 77.7967 14.71C77.9827 14.71 78.1579 14.6778 78.3224 14.6134C78.494 14.5419 78.6406 14.4454 78.7622 14.3238C78.8909 14.1951 78.991 14.0413 79.0625 13.8625C79.1341 13.6766 79.1698 13.4692 79.1698 13.2403C79.1698 13.0115 79.1341 12.8077 79.0625 12.6289C78.991 12.4429 78.8909 12.2856 78.7622 12.1569C78.6406 12.0281 78.494 11.928 78.3224 11.8565C78.1579 11.785 77.9827 11.7492 77.7967 11.7492Z" fill="#28317D"/>
<path d="M34.1429 20.4698C34.0628 20.4698 33.9884 20.4838 33.9195 20.5117C33.8506 20.5396 33.7911 20.5796 33.7408 20.6317C33.6906 20.682 33.6505 20.7425 33.6208 20.8132C33.5928 20.884 33.5789 20.9621 33.5789 21.0478C33.5789 21.1334 33.5928 21.2125 33.6208 21.2851C33.6505 21.3558 33.6906 21.4172 33.7408 21.4694C33.7911 21.5196 33.8506 21.5587 33.9195 21.5866C33.9884 21.6145 34.0628 21.6285 34.1429 21.6285C34.221 21.6285 34.2936 21.6164 34.3606 21.5922C34.4295 21.568 34.4891 21.5317 34.5393 21.4833C34.5914 21.4349 34.6324 21.3744 34.6622 21.3018C34.692 21.2292 34.7069 21.1455 34.7069 21.0505C34.7069 20.9538 34.692 20.8691 34.6622 20.7965C34.6324 20.7239 34.5914 20.6634 34.5393 20.615C34.4891 20.5666 34.4295 20.5303 34.3606 20.5061C34.2936 20.4819 34.221 20.4698 34.1429 20.4698ZM33.5761 19.7858V20.6625C33.6319 20.5508 33.711 20.4689 33.8134 20.4168C33.9176 20.3646 34.0293 20.3386 34.1484 20.3386C34.2452 20.3386 34.3355 20.3544 34.4193 20.386C34.503 20.4177 34.5756 20.4642 34.6371 20.5256C34.7003 20.5852 34.7497 20.6597 34.785 20.749C34.8223 20.8365 34.8409 20.937 34.8409 21.0505C34.8409 21.1641 34.8232 21.2655 34.7878 21.3549C34.7525 21.4442 34.7031 21.5187 34.6399 21.5782C34.5784 21.6378 34.5058 21.6834 34.4221 21.7151C34.3383 21.7467 34.248 21.7625 34.1512 21.7625C34.034 21.7625 33.9232 21.7346 33.819 21.6788C33.7148 21.6229 33.6338 21.5419 33.5761 21.4359V21.7402H33.4421V19.7858H33.5761Z" fill="#28317D"/>
<path d="M36.7788 20.3609V21.7402H36.642V21.447C36.575 21.555 36.4922 21.635 36.3935 21.6871C36.2949 21.7374 36.1897 21.7625 36.078 21.7625C35.9812 21.7625 35.89 21.7458 35.8044 21.7123C35.7206 21.6769 35.6471 21.6276 35.5838 21.5643C35.5205 21.501 35.4703 21.4265 35.433 21.3409C35.3958 21.2534 35.3772 21.1566 35.3772 21.0505C35.3772 20.9445 35.3958 20.8486 35.433 20.763C35.4703 20.6755 35.5205 20.601 35.5838 20.5396C35.6471 20.4782 35.7206 20.4307 35.8044 20.3972C35.89 20.3618 35.9812 20.3442 36.078 20.3442C36.1897 20.3442 36.2967 20.3702 36.3991 20.4223C36.5033 20.4745 36.5843 20.5545 36.642 20.6625V20.3609H36.7788ZM36.078 20.4754C35.9998 20.4754 35.9263 20.4894 35.8574 20.5173C35.7886 20.5433 35.729 20.5815 35.6787 20.6317C35.6285 20.682 35.5885 20.7425 35.5587 20.8132C35.5289 20.884 35.514 20.9631 35.514 21.0505C35.514 21.1362 35.5289 21.2153 35.5587 21.2879C35.5885 21.3586 35.6285 21.4191 35.6787 21.4694C35.729 21.5196 35.7886 21.5587 35.8574 21.5866C35.9263 21.6145 35.9998 21.6285 36.078 21.6285C36.2064 21.6285 36.3125 21.6006 36.3963 21.5447C36.4819 21.487 36.5461 21.4154 36.589 21.3298C36.6318 21.2441 36.6532 21.152 36.6532 21.0533C36.6532 20.9528 36.6318 20.8598 36.589 20.7741C36.5461 20.6885 36.4819 20.6178 36.3963 20.5619C36.3125 20.5042 36.2064 20.4754 36.078 20.4754Z" fill="#28317D"/>
<path d="M37.5589 19.7858V20.6178C37.6147 20.5173 37.6873 20.4465 37.7767 20.4056C37.866 20.3646 37.9591 20.3432 38.0559 20.3414C38.1527 20.3414 38.2364 20.3563 38.3072 20.386C38.3798 20.4158 38.4403 20.4577 38.4886 20.5117C38.537 20.5638 38.5733 20.628 38.5975 20.7043C38.6217 20.7788 38.6338 20.8607 38.6338 20.95V21.7402H38.4998V20.95C38.4998 20.8067 38.4645 20.6913 38.3937 20.6038C38.323 20.5163 38.2104 20.4726 38.0559 20.4726C37.9833 20.4726 37.9163 20.4856 37.8549 20.5117C37.7953 20.5377 37.7441 20.574 37.7013 20.6206C37.6585 20.6671 37.625 20.7211 37.6008 20.7825C37.5766 20.8439 37.5645 20.9109 37.5645 20.9835V21.7402H37.4277V19.7858H37.5589Z" fill="#28317D"/>
<path d="M40.5926 20.3609V21.7402H40.4558V21.447C40.3888 21.555 40.306 21.635 40.2073 21.6871C40.1087 21.7374 40.0035 21.7625 39.8918 21.7625C39.7951 21.7625 39.7038 21.7458 39.6182 21.7123C39.5345 21.6769 39.4609 21.6276 39.3977 21.5643C39.3344 21.501 39.2841 21.4265 39.2469 21.3409C39.2097 21.2534 39.191 21.1566 39.191 21.0505C39.191 20.9445 39.2097 20.8486 39.2469 20.763C39.2841 20.6755 39.3344 20.601 39.3977 20.5396C39.4609 20.4782 39.5345 20.4307 39.6182 20.3972C39.7038 20.3618 39.7951 20.3442 39.8918 20.3442C40.0035 20.3442 40.1106 20.3702 40.2129 20.4223C40.3172 20.4745 40.3981 20.5545 40.4558 20.6625V20.3609H40.5926ZM39.8918 20.4754C39.8137 20.4754 39.7401 20.4894 39.6713 20.5173C39.6024 20.5433 39.5428 20.5815 39.4926 20.6317C39.4423 20.682 39.4023 20.7425 39.3725 20.8132C39.3427 20.884 39.3279 20.9631 39.3279 21.0505C39.3279 21.1362 39.3427 21.2153 39.3725 21.2879C39.4023 21.3586 39.4423 21.4191 39.4926 21.4694C39.5428 21.5196 39.6024 21.5587 39.6713 21.5866C39.7401 21.6145 39.8137 21.6285 39.8918 21.6285C40.0203 21.6285 40.1264 21.6006 40.2101 21.5447C40.2958 21.487 40.36 21.4154 40.4028 21.3298C40.4456 21.2441 40.467 21.152 40.467 21.0533C40.467 20.9528 40.4456 20.8598 40.4028 20.7741C40.36 20.6885 40.2958 20.6178 40.2101 20.5619C40.1264 20.5042 40.0203 20.4754 39.8918 20.4754Z" fill="#28317D"/>
<path d="M42.3499 20.3051L42.4393 20.3833L42.3053 20.5396C42.3537 20.5936 42.3937 20.6578 42.4253 20.7323C42.4588 20.8049 42.4756 20.897 42.4756 21.0087C42.4756 21.0682 42.4672 21.1278 42.4505 21.1874C42.4337 21.2469 42.4086 21.3028 42.3751 21.3549C42.3434 21.4051 42.3043 21.4517 42.2578 21.4945C42.2131 21.5354 42.162 21.5689 42.1043 21.595C42.2271 21.6378 42.3202 21.7011 42.3835 21.7849C42.4486 21.8686 42.4812 21.9701 42.4812 22.0892C42.4812 22.1823 42.4635 22.2632 42.4281 22.3321C42.3946 22.401 42.3481 22.4577 42.2885 22.5024C42.2308 22.5489 42.162 22.5834 42.0819 22.6057C42.0019 22.6281 41.9163 22.6392 41.825 22.6392C41.7338 22.6392 41.6482 22.6271 41.5682 22.6029C41.4881 22.5787 41.4183 22.5424 41.3588 22.494C41.3011 22.4475 41.2555 22.3898 41.222 22.3209C41.1885 22.2539 41.1717 22.1767 41.1717 22.0892H41.3085C41.3085 22.1599 41.3225 22.2213 41.3504 22.2735C41.3783 22.3256 41.4155 22.3684 41.4621 22.4019C41.5105 22.4373 41.5654 22.4633 41.6268 22.4801C41.6901 22.4968 41.7562 22.5052 41.825 22.5052C41.8939 22.5052 41.96 22.4968 42.0233 22.4801C42.0866 22.4652 42.1415 22.441 42.188 22.4075C42.2364 22.374 42.2746 22.3302 42.3025 22.2763C42.3323 22.2241 42.3472 22.1618 42.3472 22.0892C42.3472 22.0147 42.3313 21.9514 42.2997 21.8993C42.2699 21.8472 42.2308 21.8044 42.1824 21.7709C42.134 21.7374 42.0782 21.7132 42.0149 21.6983C41.9535 21.6834 41.8902 21.676 41.825 21.676C41.7245 21.676 41.6343 21.6583 41.5542 21.6229C41.4742 21.5876 41.4062 21.5401 41.3504 21.4805C41.2946 21.421 41.2517 21.3502 41.222 21.2683C41.1922 21.1864 41.1773 21.0999 41.1773 21.0087C41.1773 20.9007 41.194 20.8049 41.2276 20.7211C41.2629 20.6373 41.3095 20.5675 41.3672 20.5117C41.4267 20.454 41.4956 20.4102 41.5738 20.3805C41.6519 20.3507 41.7357 20.3358 41.825 20.3358C41.8958 20.3358 41.9646 20.3479 42.0317 20.3721C42.1005 20.3944 42.162 20.4242 42.2159 20.4614L42.3499 20.3051ZM41.825 20.4726C41.7543 20.4726 41.6873 20.4838 41.624 20.5061C41.5626 20.5284 41.5086 20.5619 41.4621 20.6066C41.4174 20.6513 41.3811 20.7071 41.3532 20.7741C41.3271 20.8411 41.3141 20.9193 41.3141 21.0087C41.3141 21.0794 41.3253 21.1473 41.3476 21.2125C41.3718 21.2758 41.4062 21.3316 41.4509 21.38C41.4956 21.4284 41.5496 21.4675 41.6129 21.4973C41.6761 21.5252 41.7469 21.5392 41.825 21.5392C41.8958 21.5392 41.9628 21.5252 42.0261 21.4973C42.0894 21.4675 42.1443 21.4284 42.1908 21.38C42.2373 21.3316 42.2736 21.2758 42.2997 21.2125C42.3276 21.1473 42.3416 21.0794 42.3416 21.0087C42.3416 20.9212 42.3276 20.8439 42.2997 20.7769C42.2736 20.7099 42.2373 20.6541 42.1908 20.6094C42.1443 20.5647 42.0894 20.5312 42.0261 20.5089C41.9628 20.4847 41.8958 20.4726 41.825 20.4726Z" fill="#28317D"/>
<path d="M43.1707 20.3553V21.7402H43.0339V20.3553H43.1707ZM42.9948 19.9114C42.9948 19.9468 43.006 19.9738 43.0283 19.9924C43.0525 20.011 43.0777 20.0203 43.1037 20.0203C43.1316 20.0203 43.1568 20.011 43.1791 19.9924C43.2033 19.9738 43.2154 19.9468 43.2154 19.9114C43.2154 19.8742 43.2033 19.8472 43.1791 19.8304C43.1568 19.8118 43.1316 19.8025 43.1037 19.8025C43.0777 19.8025 43.0525 19.8118 43.0283 19.8304C43.006 19.8472 42.9948 19.8742 42.9948 19.9114Z" fill="#28317D"/>
<path d="M45.1655 20.3609V21.7402H45.0287V21.447C44.9617 21.555 44.8788 21.635 44.7802 21.6871C44.6815 21.7374 44.5764 21.7625 44.4647 21.7625C44.3679 21.7625 44.2767 21.7458 44.1911 21.7123C44.1073 21.6769 44.0338 21.6276 43.9705 21.5643C43.9072 21.501 43.857 21.4265 43.8197 21.3409C43.7825 21.2534 43.7639 21.1566 43.7639 21.0505C43.7639 20.9445 43.7825 20.8486 43.8197 20.763C43.857 20.6755 43.9072 20.601 43.9705 20.5396C44.0338 20.4782 44.1073 20.4307 44.1911 20.3972C44.2767 20.3618 44.3679 20.3442 44.4647 20.3442C44.5764 20.3442 44.6834 20.3702 44.7858 20.4223C44.89 20.4745 44.971 20.5545 45.0287 20.6625V20.3609H45.1655ZM44.4647 20.4754C44.3865 20.4754 44.313 20.4894 44.2441 20.5173C44.1753 20.5433 44.1157 20.5815 44.0654 20.6317C44.0152 20.682 43.9752 20.7425 43.9454 20.8132C43.9156 20.884 43.9007 20.9631 43.9007 21.0505C43.9007 21.1362 43.9156 21.2153 43.9454 21.2879C43.9752 21.3586 44.0152 21.4191 44.0654 21.4694C44.1157 21.5196 44.1753 21.5587 44.2441 21.5866C44.313 21.6145 44.3865 21.6285 44.4647 21.6285C44.5931 21.6285 44.6992 21.6006 44.783 21.5447C44.8686 21.487 44.9328 21.4154 44.9756 21.3298C45.0185 21.2441 45.0399 21.152 45.0399 21.0533C45.0399 20.9528 45.0185 20.8598 44.9756 20.7741C44.9328 20.6885 44.8686 20.6178 44.783 20.5619C44.6992 20.5042 44.5931 20.4754 44.4647 20.4754Z" fill="#28317D"/>
<path d="M48.9035 21.7402V20.9137C48.9035 20.8467 48.8923 20.7862 48.8699 20.7323C48.8495 20.6764 48.8197 20.629 48.7806 20.5899C48.7415 20.5489 48.695 20.5173 48.641 20.4949C48.587 20.4726 48.5275 20.4614 48.4623 20.4614C48.3972 20.4614 48.3367 20.4735 48.2808 20.4977C48.2268 20.5201 48.1803 20.5517 48.1412 20.5927C48.1021 20.6336 48.0714 20.682 48.0491 20.7378C48.0286 20.7937 48.0184 20.8551 48.0184 20.9221V21.7402H47.8816V20.9221C47.8816 20.8551 47.8704 20.7937 47.8481 20.7378C47.8276 20.682 47.7978 20.6345 47.7587 20.5954C47.7196 20.5545 47.6722 20.5229 47.6163 20.5005C47.5623 20.4763 47.5028 20.4642 47.4376 20.4642C47.3725 20.4642 47.3129 20.4763 47.2589 20.5005C47.205 20.5229 47.1584 20.5545 47.1193 20.5954C47.0802 20.6345 47.0495 20.682 47.0272 20.7378C47.0067 20.7937 46.9965 20.8551 46.9965 20.9221V21.7402H46.8597V20.3609H46.9881L46.9909 20.5899C47.0393 20.4987 47.1035 20.4335 47.1836 20.3944C47.2655 20.3535 47.3511 20.333 47.4404 20.333C47.4925 20.333 47.5447 20.3395 47.5968 20.3525C47.6489 20.3637 47.6973 20.3833 47.742 20.4112C47.7885 20.4391 47.8294 20.4745 47.8648 20.5173C47.902 20.5601 47.9309 20.6122 47.9514 20.6736C47.9718 20.6178 47.9998 20.5685 48.0351 20.5256C48.0724 20.4828 48.1133 20.4475 48.158 20.4195C48.2045 20.3898 48.2538 20.3684 48.306 20.3553C48.3581 20.3404 48.4102 20.333 48.4623 20.333C48.5461 20.333 48.6233 20.347 48.694 20.3749C48.7648 20.4028 48.8253 20.4428 48.8755 20.4949C48.9276 20.5452 48.9677 20.6066 48.9956 20.6792C49.0254 20.7499 49.0403 20.8281 49.0403 20.9137V21.7402H48.9035Z" fill="#28317D"/>
<path d="M50.3244 21.7597C50.2276 21.7597 50.1364 21.7439 50.0508 21.7123C49.9652 21.6788 49.8907 21.6313 49.8275 21.5699C49.7642 21.5084 49.7139 21.434 49.6767 21.3465C49.6413 21.259 49.6236 21.1604 49.6236 21.0505C49.6236 20.9463 49.6413 20.8514 49.6767 20.7658C49.7139 20.6783 49.7642 20.6029 49.8275 20.5396C49.8907 20.4763 49.9652 20.427 50.0508 20.3916C50.1364 20.3563 50.2276 20.3386 50.3244 20.3386C50.4212 20.3386 50.5134 20.3544 50.6009 20.386C50.6902 20.4158 50.7665 20.4624 50.8298 20.5256C50.8949 20.5889 50.9433 20.6699 50.975 20.7686C51.0085 20.8653 51.0187 20.9807 51.0057 21.1148H49.7632C49.7707 21.1948 49.7902 21.2674 49.8219 21.3325C49.8554 21.3958 49.8973 21.4489 49.9475 21.4917C49.9978 21.5345 50.0555 21.568 50.1206 21.5922C50.1858 21.6145 50.2537 21.6257 50.3244 21.6257C50.3691 21.6257 50.4156 21.6211 50.464 21.6117C50.5124 21.6024 50.558 21.5894 50.6009 21.5727C50.6455 21.554 50.6865 21.5317 50.7237 21.5057C50.7628 21.4796 50.7954 21.4498 50.8214 21.4163L50.9191 21.4945C50.8521 21.5838 50.7637 21.6508 50.6539 21.6955C50.5459 21.7383 50.4361 21.7597 50.3244 21.7597ZM50.8829 20.9947C50.881 20.8235 50.8289 20.6922 50.7265 20.601C50.626 20.5098 50.492 20.4642 50.3244 20.4642C50.2537 20.4642 50.1858 20.4763 50.1206 20.5005C50.0555 20.5229 49.9978 20.5573 49.9475 20.6038C49.8973 20.6485 49.8554 20.7043 49.8219 20.7713C49.7902 20.8365 49.7707 20.9109 49.7632 20.9947H50.8829Z" fill="#28317D"/>
<path d="M51.7728 19.7858V21.7402H51.636V19.7858H51.7728Z" fill="#28317D"/>
<path d="M53.7567 20.3609V21.7402H53.6199V21.447C53.5529 21.555 53.47 21.635 53.3714 21.6871C53.2727 21.7374 53.1676 21.7625 53.0559 21.7625C52.9591 21.7625 52.8679 21.7458 52.7823 21.7123C52.6985 21.6769 52.625 21.6276 52.5617 21.5643C52.4984 21.501 52.4482 21.4265 52.4109 21.3409C52.3737 21.2534 52.3551 21.1566 52.3551 21.0505C52.3551 20.9445 52.3737 20.8486 52.4109 20.763C52.4482 20.6755 52.4984 20.601 52.5617 20.5396C52.625 20.4782 52.6985 20.4307 52.7823 20.3972C52.8679 20.3618 52.9591 20.3442 53.0559 20.3442C53.1676 20.3442 53.2746 20.3702 53.377 20.4223C53.4812 20.4745 53.5622 20.5545 53.6199 20.6625V20.3609H53.7567ZM53.0559 20.4754C52.9777 20.4754 52.9042 20.4894 52.8353 20.5173C52.7664 20.5433 52.7069 20.5815 52.6566 20.6317C52.6064 20.682 52.5663 20.7425 52.5366 20.8132C52.5068 20.884 52.4919 20.9631 52.4919 21.0505C52.4919 21.1362 52.5068 21.2153 52.5366 21.2879C52.5663 21.3586 52.6064 21.4191 52.6566 21.4694C52.7069 21.5196 52.7664 21.5587 52.8353 21.5866C52.9042 21.6145 52.9777 21.6285 53.0559 21.6285C53.1843 21.6285 53.2904 21.6006 53.3742 21.5447C53.4598 21.487 53.524 21.4154 53.5668 21.3298C53.6096 21.2441 53.631 21.152 53.631 21.0533C53.631 20.9528 53.6096 20.8598 53.5668 20.7741C53.524 20.6885 53.4598 20.6178 53.3742 20.5619C53.2904 20.5042 53.1843 20.4754 53.0559 20.4754Z" fill="#28317D"/>
<path d="M55.5238 20.3609L54.6834 22.3153H54.5382L54.7923 21.7234L54.2395 20.3609H54.3874L54.7085 21.1762L54.8705 21.5755L55.0296 21.1734L55.3758 20.3609H55.5238Z" fill="#28317D"/>
<path d="M57.3906 20.3609V21.7402H57.2538V21.447C57.1867 21.555 57.1039 21.635 57.0053 21.6871C56.9066 21.7374 56.8014 21.7625 56.6898 21.7625C56.593 21.7625 56.5018 21.7458 56.4161 21.7123C56.3324 21.6769 56.2589 21.6276 56.1956 21.5643C56.1323 21.501 56.082 21.4265 56.0448 21.3409C56.0076 21.2534 55.989 21.1566 55.989 21.0505C55.989 20.9445 56.0076 20.8486 56.0448 20.763C56.082 20.6755 56.1323 20.601 56.1956 20.5396C56.2589 20.4782 56.3324 20.4307 56.4161 20.3972C56.5018 20.3618 56.593 20.3442 56.6898 20.3442C56.8014 20.3442 56.9085 20.3702 57.0108 20.4223C57.1151 20.4745 57.1961 20.5545 57.2538 20.6625V20.3609H57.3906ZM56.6898 20.4754C56.6116 20.4754 56.5381 20.4894 56.4692 20.5173C56.4003 20.5433 56.3408 20.5815 56.2905 20.6317C56.2402 20.682 56.2002 20.7425 56.1704 20.8132C56.1407 20.884 56.1258 20.9631 56.1258 21.0505C56.1258 21.1362 56.1407 21.2153 56.1704 21.2879C56.2002 21.3586 56.2402 21.4191 56.2905 21.4694C56.3408 21.5196 56.4003 21.5587 56.4692 21.5866C56.5381 21.6145 56.6116 21.6285 56.6898 21.6285C56.8182 21.6285 56.9243 21.6006 57.0081 21.5447C57.0937 21.487 57.1579 21.4154 57.2007 21.3298C57.2435 21.2441 57.2649 21.152 57.2649 21.0533C57.2649 20.9528 57.2435 20.8598 57.2007 20.7741C57.1579 20.6885 57.0937 20.6178 57.0081 20.5619C56.9243 20.5042 56.8182 20.4754 56.6898 20.4754Z" fill="#28317D"/>
<path d="M58.1734 20.3609V20.6066C58.2274 20.5117 58.2982 20.4437 58.3856 20.4028C58.475 20.36 58.5681 20.3377 58.6648 20.3358C58.7579 20.3358 58.8426 20.3498 58.9189 20.3777C58.9952 20.4056 59.0604 20.4456 59.1144 20.4977C59.1683 20.5498 59.2102 20.6141 59.24 20.6904C59.2716 20.7648 59.2875 20.8495 59.2875 20.9445V21.7402H59.1507V20.9472C59.1507 20.789 59.106 20.6699 59.0166 20.5899C58.9292 20.508 58.81 20.4679 58.6593 20.4698C58.5885 20.4698 58.5234 20.4828 58.4638 20.5089C58.4043 20.535 58.3531 20.5703 58.3103 20.615C58.2674 20.6597 58.2339 20.7127 58.2097 20.7741C58.1874 20.8356 58.1762 20.9016 58.1762 20.9724V21.7402H58.0394V20.3609H58.1734Z" fill="#28317D"/>
<path d="M60.0586 20.3553V21.7402H59.9218V20.3553H60.0586ZM59.8827 19.9114C59.8827 19.9468 59.8939 19.9738 59.9162 19.9924C59.9404 20.011 59.9655 20.0203 59.9916 20.0203C60.0195 20.0203 60.0447 20.011 60.067 19.9924C60.0912 19.9738 60.1033 19.9468 60.1033 19.9114C60.1033 19.8742 60.0912 19.8472 60.067 19.8304C60.0447 19.8118 60.0195 19.8025 59.9916 19.8025C59.9655 19.8025 59.9404 19.8118 59.9162 19.8304C59.8939 19.8472 59.8827 19.8742 59.8827 19.9114Z" fill="#28317D"/>
<path d="M62.3951 20.4698C62.3169 20.4698 62.2434 20.4819 62.1745 20.5061C62.1075 20.5303 62.048 20.5666 61.9959 20.615C61.9456 20.6634 61.9056 20.7239 61.8758 20.7965C61.846 20.8691 61.8311 20.9538 61.8311 21.0505C61.8311 21.1455 61.846 21.2292 61.8758 21.3018C61.9056 21.3744 61.9456 21.4349 61.9959 21.4833C62.048 21.5317 62.1075 21.568 62.1745 21.5922C62.2434 21.6164 62.3169 21.6285 62.3951 21.6285C62.477 21.6285 62.5524 21.6145 62.6213 21.5866C62.6901 21.5587 62.7497 21.5196 62.8 21.4694C62.8502 21.4172 62.8893 21.3558 62.9172 21.2851C62.9451 21.2125 62.9591 21.1334 62.9591 21.0478C62.9591 20.9621 62.9442 20.884 62.9144 20.8132C62.8865 20.7425 62.8474 20.682 62.7972 20.6317C62.7469 20.5796 62.6874 20.5396 62.6185 20.5117C62.5496 20.4838 62.4752 20.4698 62.3951 20.4698ZM63.0959 19.7858V21.7402H62.9619V21.4359C62.9042 21.5419 62.8232 21.6229 62.719 21.6788C62.6148 21.7346 62.504 21.7625 62.3867 21.7625C62.29 21.7625 62.1997 21.7467 62.1159 21.7151C62.0322 21.6834 61.9586 21.6378 61.8953 21.5782C61.8339 21.5187 61.7855 21.4442 61.7502 21.3549C61.7148 21.2655 61.6971 21.1641 61.6971 21.0505C61.6971 20.937 61.7148 20.8365 61.7502 20.749C61.7874 20.6597 61.8367 20.5852 61.8981 20.5256C61.9614 20.4642 62.0349 20.4177 62.1187 20.386C62.2025 20.3544 62.2927 20.3386 62.3895 20.3386C62.5087 20.3386 62.6194 20.3646 62.7218 20.4168C62.826 20.4689 62.9061 20.5508 62.9619 20.6625V19.7858H63.0959Z" fill="#28317D"/>
<path d="M65.0929 20.3609V21.7402H64.9561V21.447C64.8891 21.555 64.8062 21.635 64.7076 21.6871C64.6089 21.7374 64.5038 21.7625 64.3921 21.7625C64.2953 21.7625 64.2041 21.7458 64.1185 21.7123C64.0347 21.6769 63.9612 21.6276 63.8979 21.5643C63.8346 21.501 63.7843 21.4265 63.7471 21.3409C63.7099 21.2534 63.6913 21.1566 63.6913 21.0505C63.6913 20.9445 63.7099 20.8486 63.7471 20.763C63.7843 20.6755 63.8346 20.601 63.8979 20.5396C63.9612 20.4782 64.0347 20.4307 64.1185 20.3972C64.2041 20.3618 64.2953 20.3442 64.3921 20.3442C64.5038 20.3442 64.6108 20.3702 64.7132 20.4223C64.8174 20.4745 64.8984 20.5545 64.9561 20.6625V20.3609H65.0929ZM64.3921 20.4754C64.3139 20.4754 64.2404 20.4894 64.1715 20.5173C64.1026 20.5433 64.0431 20.5815 63.9928 20.6317C63.9426 20.682 63.9025 20.7425 63.8728 20.8132C63.843 20.884 63.8281 20.9631 63.8281 21.0505C63.8281 21.1362 63.843 21.2153 63.8728 21.2879C63.9025 21.3586 63.9426 21.4191 63.9928 21.4694C64.0431 21.5196 64.1026 21.5587 64.1715 21.5866C64.2404 21.6145 64.3139 21.6285 64.3921 21.6285C64.5205 21.6285 64.6266 21.6006 64.7104 21.5447C64.796 21.487 64.8602 21.4154 64.903 21.3298C64.9458 21.2441 64.9672 21.152 64.9672 21.0533C64.9672 20.9528 64.9458 20.8598 64.903 20.7741C64.8602 20.6885 64.796 20.6178 64.7104 20.5619C64.6266 20.5042 64.5205 20.4754 64.3921 20.4754Z" fill="#28317D"/>
<path d="M65.8702 20.3609L65.8758 20.6066C65.8981 20.5601 65.926 20.521 65.9595 20.4894C65.993 20.4558 66.0303 20.4289 66.0712 20.4084C66.1122 20.386 66.155 20.3702 66.1996 20.3609C66.2443 20.3516 66.289 20.347 66.3337 20.347C66.4379 20.3432 66.5365 20.3702 66.6296 20.4279L66.5682 20.5396C66.531 20.5173 66.4928 20.5014 66.4537 20.4921C66.4146 20.481 66.3746 20.4754 66.3337 20.4754C66.2704 20.4754 66.2108 20.4884 66.155 20.5145C66.0991 20.5387 66.0507 20.5722 66.0098 20.615C65.9688 20.6559 65.9363 20.7043 65.9121 20.7602C65.8897 20.8142 65.8786 20.8728 65.8786 20.9361V21.7402H65.7417V20.3609H65.8702Z" fill="#28317D"/>
<path d="M67.2483 20.3553V21.7402H67.1115V20.3553H67.2483ZM67.0724 19.9114C67.0724 19.9468 67.0836 19.9738 67.1059 19.9924C67.1301 20.011 67.1553 20.0203 67.1813 20.0203C67.2092 20.0203 67.2344 20.011 67.2567 19.9924C67.2809 19.9738 67.293 19.9468 67.293 19.9114C67.293 19.8742 67.2809 19.8472 67.2567 19.8304C67.2344 19.8118 67.2092 19.8025 67.1813 19.8025C67.1553 19.8025 67.1301 19.8118 67.1059 19.8304C67.0836 19.8472 67.0724 19.8742 67.0724 19.9114Z" fill="#28317D"/>
<path d="M69.0934 19.7858V20.6178C69.1493 20.5173 69.2219 20.4465 69.3112 20.4056C69.4006 20.3646 69.4936 20.3432 69.5904 20.3414C69.6872 20.3414 69.771 20.3563 69.8417 20.386C69.9143 20.4158 69.9748 20.4577 70.0232 20.5117C70.0716 20.5638 70.1079 20.628 70.1321 20.7043C70.1563 20.7788 70.1684 20.8607 70.1684 20.95V21.7402H70.0343V20.95C70.0343 20.8067 69.999 20.6913 69.9283 20.6038C69.8575 20.5163 69.7449 20.4726 69.5904 20.4726C69.5178 20.4726 69.4508 20.4856 69.3894 20.5117C69.3298 20.5377 69.2786 20.574 69.2358 20.6206C69.193 20.6671 69.1595 20.7211 69.1353 20.7825C69.1111 20.8439 69.099 20.9109 69.099 20.9835V21.7402H68.9622V19.7858H69.0934Z" fill="#28317D"/>
<path d="M72.1272 20.3609V21.7402H71.9904V21.447C71.9234 21.555 71.8405 21.635 71.7419 21.6871C71.6432 21.7374 71.5381 21.7625 71.4264 21.7625C71.3296 21.7625 71.2384 21.7458 71.1528 21.7123C71.069 21.6769 70.9955 21.6276 70.9322 21.5643C70.8689 21.501 70.8186 21.4265 70.7814 21.3409C70.7442 21.2534 70.7256 21.1566 70.7256 21.0505C70.7256 20.9445 70.7442 20.8486 70.7814 20.763C70.8186 20.6755 70.8689 20.601 70.9322 20.5396C70.9955 20.4782 71.069 20.4307 71.1528 20.3972C71.2384 20.3618 71.3296 20.3442 71.4264 20.3442C71.5381 20.3442 71.6451 20.3702 71.7475 20.4223C71.8517 20.4745 71.9327 20.5545 71.9904 20.6625V20.3609H72.1272ZM71.4264 20.4754C71.3482 20.4754 71.2747 20.4894 71.2058 20.5173C71.1369 20.5433 71.0774 20.5815 71.0271 20.6317C70.9769 20.682 70.9368 20.7425 70.9071 20.8132C70.8773 20.884 70.8624 20.9631 70.8624 21.0505C70.8624 21.1362 70.8773 21.2153 70.9071 21.2879C70.9368 21.3586 70.9769 21.4191 71.0271 21.4694C71.0774 21.5196 71.1369 21.5587 71.2058 21.5866C71.2747 21.6145 71.3482 21.6285 71.4264 21.6285C71.5548 21.6285 71.6609 21.6006 71.7447 21.5447C71.8303 21.487 71.8945 21.4154 71.9373 21.3298C71.9801 21.2441 72.0015 21.152 72.0015 21.0533C72.0015 20.9528 71.9801 20.8598 71.9373 20.7741C71.8945 20.6885 71.8303 20.6178 71.7447 20.5619C71.6609 20.5042 71.5548 20.4754 71.4264 20.4754Z" fill="#28317D"/>
<path d="M73.0316 19.9449V20.3609H73.5006V20.4754H73.0316V21.3158C73.0316 21.3623 73.0343 21.4051 73.0399 21.4442C73.0474 21.4833 73.0595 21.5168 73.0762 21.5447C73.0948 21.5727 73.1209 21.595 73.1544 21.6117C73.1879 21.6266 73.2317 21.6341 73.2856 21.6341C73.3191 21.6341 73.3536 21.6294 73.3889 21.6201C73.4262 21.609 73.4625 21.595 73.4978 21.5782L73.5453 21.6899C73.5025 21.7104 73.4587 21.7272 73.4141 21.7402C73.3713 21.7532 73.3284 21.7597 73.2856 21.7597C73.213 21.7597 73.1516 21.7495 73.1014 21.729C73.0511 21.7085 73.0111 21.6788 72.9813 21.6397C72.9515 21.6006 72.9301 21.554 72.9171 21.5001C72.904 21.4442 72.8975 21.3828 72.8975 21.3158V20.4754H72.6044V20.3609H72.8975V19.9589L73.0316 19.9449Z" fill="#28317D"/>
<path d="M74.2281 20.3553V21.7402H74.0913V20.3553H74.2281ZM74.0522 19.9114C74.0522 19.9468 74.0634 19.9738 74.0857 19.9924C74.1099 20.011 74.135 20.0203 74.1611 20.0203C74.189 20.0203 74.2141 20.011 74.2365 19.9924C74.2607 19.9738 74.2728 19.9468 74.2728 19.9114C74.2728 19.8742 74.2607 19.8472 74.2365 19.8304C74.2141 19.8118 74.189 19.8025 74.1611 19.8025C74.135 19.8025 74.1099 19.8118 74.0857 19.8304C74.0634 19.8472 74.0522 19.8742 74.0522 19.9114Z" fill="#28317D"/>
</g>
<defs>
<clipPath id="clip0_801_8292">
<rect width="80" height="22.6392" fill="white" transform="translate(0.5)"/>
</clipPath>
</defs>
</svg>
