<svg width="81" height="25" viewBox="0 0 81 25" fill="none" xmlns="http://www.w3.org/2000/svg">
<g clip-path="url(#clip0_801_8283)">
<path fill-rule="evenodd" clip-rule="evenodd" d="M2.95263 13.3477V13.6487C2.81286 13.7266 2.74163 13.857 2.74163 14.0371V19.074C3.66221 18.0191 4.31132 17.374 4.68761 17.1415C5.0639 16.909 5.44692 16.7934 5.83799 16.7934C6.46425 16.7934 6.96553 17.0421 7.33913 17.538C7.71274 18.0339 7.90089 18.6655 7.90089 19.4355C7.90089 20.0793 7.76246 20.7069 7.48965 21.3157C7.21684 21.9245 6.8607 22.4244 6.42393 22.8128C5.98716 23.2039 5.57593 23.4498 5.19023 23.5546C4.80453 23.6594 4.32475 23.7132 3.75091 23.7132H3.07627C2.56289 23.7132 2.22154 23.7481 2.05893 23.8207C1.89363 23.8906 1.76999 24.0115 1.68801 24.1795H1.19211C1.31978 23.9484 1.42326 23.6487 1.49852 23.2751C1.57647 22.9015 1.6141 22.6206 1.6141 22.4351V15.1821C1.6141 14.7507 1.45148 14.5357 1.12223 14.5357C0.971711 14.5357 0.763405 14.5908 0.5 14.7037V14.3583L2.95128 13.3503L2.95263 13.3477ZM2.76179 22.5601C3.35311 22.9257 3.98475 23.1098 4.65401 23.1098C5.1405 23.1098 5.54099 22.9821 5.85949 22.7268C6.17531 22.4687 6.4105 22.122 6.56101 21.6812C6.71153 21.2431 6.78679 20.7405 6.78679 20.1801C6.78679 19.453 6.64702 18.8711 6.36615 18.4384C6.08258 18.0043 5.69419 17.7866 5.20098 17.7866C4.56397 17.7866 3.98206 18.1521 3.45659 18.8845C2.92978 19.617 2.66638 20.4919 2.66638 21.5065C2.66638 21.8196 2.69863 22.1704 2.76179 22.5615V22.5601ZM9.32005 17.8901C10.4476 17.1482 11.5106 16.7773 12.5065 16.7773C12.9728 16.7773 13.3088 16.8808 13.5171 17.0851C13.7227 17.2907 13.8235 17.6387 13.8181 18.1279V22.7187C13.8181 22.9391 13.9189 23.0493 14.1164 23.0493C14.314 23.0493 14.6527 22.8235 15.1418 22.372V22.8235C14.3973 23.556 13.7912 23.9215 13.3222 23.9215C12.9016 23.9215 12.6906 23.6877 12.6906 23.22V22.1368C12.0791 22.7604 11.563 23.2146 11.1384 23.4982C10.7177 23.7817 10.3159 23.9215 9.93959 23.9215C9.5633 23.9215 9.25957 23.779 9.00154 23.4928C8.74352 23.2065 8.61316 22.8585 8.61316 22.4472C8.61316 21.3869 9.97185 20.2432 12.6892 19.0176V18.1333C12.6892 17.8632 12.6086 17.6387 12.4487 17.464C12.286 17.2866 12.0656 17.1979 11.7794 17.1979C11.2983 17.1979 10.8669 17.4304 10.4906 17.8995C10.1143 18.3685 9.88852 18.9517 9.81595 19.6492H9.32005V17.8887V17.8901ZM12.7645 19.6197C11.8614 19.8051 11.1303 20.1236 10.5685 20.5752C10.0068 21.0267 9.72591 21.4904 9.72591 21.9634C9.72591 22.2645 9.81864 22.5077 10.0068 22.6878C10.1949 22.8679 10.4409 22.9579 10.7432 22.9579C11.305 22.9579 11.7781 22.6623 12.1678 22.0683C12.5562 21.4769 12.7551 20.6598 12.7645 19.6183V19.6197ZM15.6351 17.5433L17.538 16.776H17.8458V19.2031C18.5527 18.2583 19.1346 17.6186 19.5902 17.2799C20.0471 16.944 20.4798 16.776 20.8884 16.776C21.7176 16.776 22.1315 17.3055 22.1315 18.3658V22.2067C22.1315 22.6475 22.2189 22.9485 22.3976 23.1098C22.575 23.2697 22.8559 23.3557 23.2456 23.3651V23.7105H20.6881V23.3651C20.8991 23.3557 21.004 23.2348 21.004 23.0063V18.476C21.004 18.2233 20.9395 18.0177 20.8064 17.8645C20.6734 17.7113 20.5027 17.6334 20.293 17.6334C19.6735 17.6334 19.0996 18.0701 18.5688 18.9423C18.038 19.8145 17.7719 20.8144 17.7719 21.9433C17.7719 22.5144 17.8592 22.8907 18.0353 23.0762C18.2127 23.259 18.5271 23.3544 18.976 23.3651V23.7105H15.6364V23.3651C16.0329 23.3557 16.3164 23.2697 16.4884 23.1044C16.6618 22.9418 16.7492 22.6434 16.7492 22.2067V18.4612C16.7492 17.9573 16.5892 17.7073 16.2654 17.7073C16.1498 17.7073 15.9401 17.7678 15.6364 17.8901V17.5447L15.6351 17.5433ZM26.1672 20.1209V22.2067L26.1592 22.3774C26.1592 23.0211 26.5328 23.3503 27.28 23.3651V23.7105H23.9256V23.3651C24.3073 23.3557 24.5868 23.2724 24.7682 23.1165C24.9483 22.9606 25.0384 22.6582 25.0384 22.2067V15.3245C25.0384 14.8004 24.8623 14.537 24.5116 14.537C24.3691 14.537 24.1729 14.5773 23.9256 14.6553V14.3099L26.4683 13.3168V13.6178C26.268 13.6809 26.1672 13.8288 26.1672 14.0586V20.1209L27.4534 19.0552L27.5206 18.9827L27.8512 18.6897C28.2167 18.3685 28.3995 18.0728 28.3995 17.8C28.3995 17.499 28.1065 17.3431 27.5192 17.3337V16.9883H30.961V17.3337C30.3468 17.3431 29.6023 17.7154 28.7193 18.4464L27.2195 19.6895L28.6656 21.5226C29.6251 22.7456 30.4852 23.3597 31.2499 23.3651V23.7105H28.9962L26.1632 20.1209H26.1672Z" fill="#3156A5"/>
<path fill-rule="evenodd" clip-rule="evenodd" d="M48.597 20.3776V22.4634L48.589 22.634C48.589 23.2778 48.9626 23.607 49.7098 23.6218V23.9672H46.3554V23.6218C46.7371 23.6124 47.0166 23.5291 47.198 23.3732C47.3781 23.2173 47.4681 22.9149 47.4681 22.4634V15.5812C47.4681 15.0571 47.2921 14.7937 46.9413 14.7937C46.7989 14.7937 46.6027 14.834 46.354 14.912V14.5666L48.8967 13.5734V13.8745C48.6965 13.9376 48.5957 14.0855 48.5957 14.3153V20.3776L49.8818 19.3119L49.949 19.2393L50.2796 18.9464C50.6451 18.6252 50.8279 18.3295 50.8279 18.0567C50.8279 17.7557 50.5349 17.6011 49.9477 17.5904V17.245H53.3894V17.5904C52.7752 17.5998 52.0307 17.972 51.1478 18.7031L49.6493 19.9462L51.0953 21.7793C52.0549 23.0023 52.915 23.6164 53.6797 23.6218V23.9672H51.4259L48.593 20.3776H48.597ZM54.6285 18.1467C55.756 17.4049 56.819 17.034 57.8149 17.034C58.2812 17.034 58.6172 17.1361 58.8255 17.3417C59.0311 17.5474 59.1319 17.8954 59.1265 18.3846V22.9754C59.1265 23.1958 59.2273 23.306 59.4249 23.306C59.6224 23.306 59.9611 23.0802 60.4503 22.6287V23.0802C59.7057 23.8126 59.0996 24.1782 58.6306 24.1782C58.21 24.1782 57.999 23.9444 57.999 23.4767V22.3935C57.3875 23.0184 56.8715 23.4713 56.4468 23.7549C56.0261 24.0384 55.6243 24.1782 55.248 24.1782C54.8717 24.1782 54.568 24.0357 54.31 23.7495C54.0519 23.4632 53.9216 23.1152 53.9216 22.7039C53.9216 21.6436 55.2803 20.4999 57.9976 19.2743V18.39C57.9976 18.1199 57.917 17.8968 57.7571 17.7207C57.5945 17.5433 57.3741 17.4546 57.0878 17.4546C56.6067 17.4546 56.1753 17.6871 55.799 18.1562C55.4227 18.6252 55.1969 19.2084 55.1244 19.9059H54.6285V18.1454V18.1467ZM58.0729 19.8763C57.1698 20.0618 56.4387 20.3803 55.877 20.8319C55.3152 21.2834 55.0343 21.7471 55.0343 22.2201C55.0343 22.5212 55.1271 22.7644 55.3152 22.9445C55.5034 23.1246 55.7493 23.2146 56.0517 23.2146C56.6134 23.2146 57.0865 22.9189 57.4762 22.3249C57.8646 21.7336 58.0635 20.9165 58.0729 19.875V19.8763ZM63.5453 13.8745C63.345 13.978 63.2443 14.1553 63.2443 14.4107V22.4634C63.2443 22.9001 63.3316 23.1985 63.5103 23.3611C63.6877 23.5264 63.9686 23.6124 64.3583 23.6218V23.9672H60.9892V23.6218C61.3897 23.6124 61.6786 23.5237 61.8547 23.353C62.0307 23.185 62.1181 22.8894 62.1181 22.4634V15.471C62.1181 15.0195 61.9326 14.7937 61.5617 14.7937C61.4058 14.7937 61.2163 14.834 60.9905 14.912V14.5666L63.548 13.5734V13.8745H63.5453ZM65.7264 21.696C65.7668 22.333 65.9468 22.8289 66.2761 23.1824C66.6013 23.5358 66.9924 23.7119 67.4493 23.7119C67.8256 23.7119 68.1334 23.5963 68.3739 23.3665C68.6145 23.138 68.7355 22.8477 68.7355 22.4943C68.7355 22.1811 68.6454 21.9177 68.4653 21.7027C68.2772 21.4917 67.9143 21.2162 67.3673 20.8735C66.9816 20.6276 66.6282 20.3991 66.3097 20.1868C65.9912 19.9731 65.7708 19.7581 65.6485 19.5377C65.5208 19.3173 65.4577 19.0942 65.4577 18.863C65.4577 18.3886 65.6781 17.9653 66.1175 17.5917C66.5556 17.2208 67.1402 17.0353 67.8646 17.0353C68.3135 17.0353 68.7919 17.1334 69.308 17.3283V19.2461H68.7811C68.7758 18.7045 68.6226 18.2704 68.3229 17.9452C68.0218 17.6186 67.6765 17.456 67.2854 17.456C67.0099 17.456 66.7935 17.5433 66.639 17.7167C66.4831 17.8901 66.4065 18.0957 66.4065 18.3282C66.4065 18.5943 66.4938 18.8214 66.6726 19.0122C66.8432 19.2084 67.1913 19.4665 67.7101 19.789C68.6051 20.3534 69.1668 20.7485 69.3926 20.977C69.6184 21.2122 69.7313 21.524 69.7313 21.9097C69.7313 22.5212 69.4612 23.0533 68.9196 23.5035C68.378 23.9524 67.7544 24.1782 67.0488 24.1782C66.5247 24.1782 65.9213 24.0304 65.2332 23.7374V21.6973H65.7291L65.7264 21.696ZM76.3863 22.1166C75.2964 23.4901 74.2334 24.1768 73.1945 24.1768C72.4648 24.1768 71.8237 23.861 71.2674 23.2267C70.7083 22.5951 70.4301 21.8452 70.4301 20.9757C70.4301 19.9731 70.7607 19.07 71.4233 18.2677C72.0845 17.4627 72.8666 17.0622 73.7643 17.0622C74.4887 17.0622 75.0599 17.3149 75.4872 17.8242C75.9132 18.3309 76.1363 18.9504 76.1619 19.6788H71.4394C71.43 19.8696 71.4246 20.0094 71.4246 20.0994C71.4246 20.9689 71.6557 21.696 72.114 22.2779C72.5723 22.8625 73.1394 23.1528 73.8141 23.1528C74.6567 23.1528 75.5141 22.6461 76.389 21.6342V22.1153L76.3863 22.1166ZM74.9577 19.3334C74.8999 18.7623 74.7172 18.3188 74.4081 18.0016C74.1003 17.6858 73.7361 17.5272 73.3182 17.5272C72.9002 17.5272 72.4863 17.6979 72.1396 18.0406C71.7942 18.3819 71.5805 18.8133 71.5025 19.3321H74.9577V19.3334ZM79.6883 13.8731C79.488 13.9766 79.3872 14.154 79.3872 14.4093V22.462C79.3872 22.8988 79.4746 23.1971 79.6533 23.3598C79.8307 23.5251 80.1116 23.6111 80.5013 23.6205V23.9659H77.1322V23.6205C77.5327 23.6111 77.8216 23.5224 77.9977 23.3517C78.1737 23.1837 78.261 22.888 78.261 22.462V15.4697C78.261 15.0181 78.0756 14.7924 77.7047 14.7924C77.5488 14.7924 77.3593 14.8327 77.1335 14.9106V14.5652L79.691 13.5721V13.8731H79.6883Z" fill="#00AA43"/>
<path fill-rule="evenodd" clip-rule="evenodd" d="M41.7512 13.2334L40.8736 13.0668L39.996 12.9015L38.3108 13.4928L37.147 14.8475L36.8164 16.6026L37.4077 18.2879L38.085 18.8711L38.7623 19.453L40.5175 19.7836L42.2027 19.1923L43.3666 17.8376L43.6972 16.0825L43.1058 14.3973L42.4285 13.814L41.7512 13.2321V13.2334ZM41.8668 14.1379L42.657 15.0222L42.5898 16.2075L41.7055 16.9977L40.5202 16.9305L39.7299 16.0462L39.7971 14.8609L40.6814 14.0707L41.8668 14.1379Z" fill="#4964AE"/>
<path fill-rule="evenodd" clip-rule="evenodd" d="M40.3562 0L42.9607 0.697487L44.8663 2.60314L45.5652 5.20763L44.8663 7.81212L42.9607 9.71777L40.3562 10.4153L37.7517 9.71777L35.8461 7.81212L35.1472 5.20763L35.8461 2.60314L37.7517 0.697487L40.3562 0ZM39.6063 1.15441L37.9533 1.83981L37.2679 3.49281L37.9533 5.14581L39.6063 5.8312L41.2593 5.14581L41.9447 3.49281L41.2593 1.83981L39.6063 1.15441Z" fill="#4964AE"/>
<path fill-rule="evenodd" clip-rule="evenodd" d="M36.9387 21.6476L36.7532 21.2216L36.5664 20.7956L35.8192 20.2446L34.8946 20.1424L34.0425 20.516L33.4915 21.2633L33.4391 21.7256L33.3881 22.1879L33.5735 22.6139L33.7603 23.0399L34.5075 23.5909L35.4321 23.693L36.2842 23.3194L36.8352 22.5722L36.9373 21.6476H36.9387ZM36.5839 21.9634L36.436 22.5628L36.1726 22.7227L35.9079 22.8827L35.3085 22.7348L34.9886 22.2053L35.1365 21.606L35.666 21.2861L36.2654 21.4339L36.5852 21.9634H36.5839Z" fill="#4964AE"/>
</g>
<defs>
<clipPath id="clip0_801_8283">
<rect width="80.0013" height="24.1795" fill="white" transform="translate(0.5)"/>
</clipPath>
</defs>
</svg>
