<svg width="81" height="15" viewBox="0 0 81 15" fill="none" xmlns="http://www.w3.org/2000/svg">
<g clip-path="url(#clip0_801_8411)">
<g clip-path="url(#clip1_801_8411)">
<path fill-rule="evenodd" clip-rule="evenodd" d="M7.96895 0.00146484C12.0941 0.00146484 15.4385 3.3459 15.4385 7.47104C15.4385 11.5956 12.0941 14.94 7.96895 14.94C3.84381 14.94 0.5 11.5956 0.5 7.47104C0.5 3.3459 3.84381 0.00146484 7.96895 0.00146484Z" fill="#EC2127"/>
<path fill-rule="evenodd" clip-rule="evenodd" d="M1.0877 10.3803C0.709183 9.4863 0.5 8.50264 0.5 7.47042C0.5 6.2284 0.803813 5.05735 1.34047 4.02638C4.03743 3.63416 6.52708 4.74606 10.3254 4.6533C11.2847 4.63027 12.5324 4.45408 13.432 4.50139C13.1917 4.98139 12.8181 5.2796 12.4141 5.5747C10.9374 6.65423 9.73642 7.21206 7.64957 7.05766C6.41377 6.96614 5.15805 6.75571 3.93097 6.5982C3.29782 6.51665 2.63167 6.4326 2.02031 6.6312C1.58451 6.77315 0.955097 7.25128 0.852374 7.52085C2.74996 8.3775 5.38342 8.46217 7.42918 7.90933C8.34374 7.66217 8.65253 7.42995 9.30623 7.20832C9.25393 7.64038 8.44023 8.64832 8.06109 8.93968C7.7249 9.19867 7.60973 9.32381 7.19759 9.58778C5.49735 10.6748 3.13035 10.8746 1.09268 10.3803H1.0877Z" fill="#FEFEFE"/>
<path fill-rule="evenodd" clip-rule="evenodd" d="M47.7081 8.73175C46.0303 8.73175 45.8915 6.49113 47.0501 5.9551C48.5841 5.24662 49.5976 7.12615 48.6762 8.28724C48.4695 8.54747 48.0145 8.73175 47.7081 8.73175ZM44.8829 2.42576V9.94265H46.2955V9.33751C46.5807 9.52864 46.9306 10.0435 47.9099 10.0435C49.4096 10.0435 50.4829 8.84132 50.4829 7.52148C50.4829 6.65362 50.3858 5.90405 49.79 5.2877C48.8257 4.28848 47.2257 4.18887 46.346 5.20055V2.27448H45.0342C44.9178 2.27448 44.8829 2.30934 44.8829 2.42576Z" fill="#221E1F"/>
<path fill-rule="evenodd" clip-rule="evenodd" d="M20.566 7.31912C20.566 6.77935 20.7372 6.38651 21.1046 6.09204C21.1979 6.01733 21.216 6.00425 21.3212 5.95569C22.9106 5.21608 23.8576 7.25748 22.9517 8.29219C22.2283 9.11772 20.566 8.73484 20.566 7.31912ZM19.1541 2.52659V9.94262H20.566V9.33748C20.698 9.42589 20.7379 9.49935 20.8605 9.59834C22.3522 10.8049 24.7534 9.45639 24.7534 7.62231C24.7534 6.75756 24.7136 5.96317 24.0611 5.28768C23.3259 4.52628 22.2046 4.26293 21.272 4.69499C21.0286 4.80768 20.8406 5.00005 20.6165 5.15009V2.37531H19.3053C19.1889 2.37531 19.1541 2.41017 19.1541 2.52659Z" fill="#221E1F"/>
<path fill-rule="evenodd" clip-rule="evenodd" d="M52.8032 7.26872C52.8032 6.87712 52.9801 6.45502 53.1787 6.23152C53.823 5.5081 55.4772 5.61144 55.4772 7.36957C55.4772 7.77611 55.3178 8.10109 55.1136 8.31775C54.3684 9.10716 52.8032 8.73985 52.8032 7.26872ZM51.3402 7.06701C51.3402 7.97347 51.4766 8.68444 52.058 9.27588C52.7173 9.94576 53.8678 10.2851 54.8222 9.84242C55.1603 9.68615 55.2244 9.50623 55.4772 9.33751V9.94265H56.8898V4.59541H55.4267V5.15012C55.3041 5.06794 55.2786 5.01315 55.1547 4.9179C53.6443 3.76179 51.3402 5.05487 51.3402 7.06701Z" fill="#221E1F"/>
<path fill-rule="evenodd" clip-rule="evenodd" d="M27.0744 7.26868C27.0744 5.40845 29.7483 5.1918 29.7483 7.36954C29.7483 7.77608 29.5889 8.10106 29.3841 8.31771C29.2895 8.41794 29.1432 8.53312 29.0074 8.59662C28.129 9.01 27.0744 8.43164 27.0744 7.26868ZM25.6113 7.16783C25.6113 9.69732 27.7474 10.4662 29.0927 9.84238C29.4308 9.68611 29.4955 9.50619 29.7483 9.33748V9.94261H31.1609V4.59537H29.6979V5.15008C29.2839 4.87304 29.0803 4.4939 28.0829 4.4939C26.6504 4.4939 25.6113 5.75397 25.6113 7.16783Z" fill="#221E1F"/>
<path fill-rule="evenodd" clip-rule="evenodd" d="M38.7281 2.52659V9.94262H40.1912V7.67274C40.6058 7.9504 41.9935 9.88161 42.3135 9.93888C42.5831 9.98744 43.4883 9.94262 43.8232 9.94262C43.7118 9.73157 43.7018 9.76519 43.5636 9.5971L42.6914 8.50137C42.4934 8.24861 42.3285 8.05499 42.1299 7.80223C41.9319 7.55009 41.7196 7.31601 41.5534 7.06698L42.6628 5.85608C42.8769 5.57593 43.5854 4.87554 43.7728 4.59538H42.0576C41.9948 4.71367 40.4047 6.57079 40.1912 6.71398V2.37531H38.8794C38.763 2.37531 38.7281 2.41017 38.7281 2.52659Z" fill="#221E1F"/>
<path fill-rule="evenodd" clip-rule="evenodd" d="M71.3184 5.80568H71.621C72.1595 5.80568 72.4758 6.21907 72.5797 6.66358H70.3092C70.4082 6.23899 70.798 5.80568 71.3184 5.80568ZM68.7958 7.01658C68.7958 7.90436 68.8854 8.65268 69.6151 9.32568C70.4854 10.1282 71.8121 10.234 72.8979 9.7565C73.2714 9.59214 73.6257 9.30513 73.8411 8.98389L72.9327 8.12661C72.6252 8.33268 72.4185 8.73175 71.621 8.73175C70.9984 8.73175 70.3553 8.27541 70.3092 7.72319H74.0428C74.0428 6.73393 74.0733 6.01486 73.2739 5.21237C72.4204 4.35634 70.854 4.2586 69.9046 4.94716C69.518 5.22731 69.2285 5.53549 69.0392 5.9993C68.9228 6.28443 68.7958 6.59945 68.7958 7.01658Z" fill="#221E1F"/>
<path fill-rule="evenodd" clip-rule="evenodd" d="M76.8088 5.20864C76.8088 5.19183 76.8455 5.17191 76.8468 5.17938L76.868 4.59541H75.3545V9.94265C77.196 9.94265 76.868 10.2433 76.868 8.73175C76.868 8.2779 76.8686 7.82405 76.8673 7.36957C76.8667 6.85595 76.8879 6.54841 77.1108 6.25082C77.6157 5.5772 78.5918 5.77393 78.8365 6.15743C79.164 6.67105 79.037 9.1414 79.037 9.94265H80.5V6.76444C80.5 6.15058 80.3519 5.46887 80.0592 5.13642C79.1397 4.09051 77.3984 4.45844 76.868 5.25097L76.8088 5.20864Z" fill="#221E1F"/>
<path fill-rule="evenodd" clip-rule="evenodd" d="M59.614 5.25094V4.59537H58.151V9.94261H59.614C59.614 9.07039 59.4684 6.8223 59.8774 6.27133C60.3761 5.59833 61.4058 5.71039 61.6598 6.23211C61.9331 6.79553 61.8335 9.17934 61.8335 9.94261H63.2965V6.91569C63.2965 5.47631 62.819 4.4939 61.2788 4.4939C60.2951 4.4939 59.9365 5.03491 59.614 5.25094Z" fill="#221E1F"/>
<path fill-rule="evenodd" clip-rule="evenodd" d="M33.9855 5.25097V4.59541H32.5225V9.94264H33.9855V7.11743C33.9855 5.51369 36.1551 5.31883 36.1551 6.81486V9.94264H37.6182V6.41144C37.6182 4.67198 35.9341 4.11105 34.6734 4.72801C34.2955 4.91292 34.2557 5.07043 33.9855 5.25097Z" fill="#221E1F"/>
<path fill-rule="evenodd" clip-rule="evenodd" d="M64.9613 3.13234V4.59538H64.1544V5.80565H64.9613V8.37872C64.9613 10.2097 66.7082 10.3741 68.1905 9.58962C68.0965 9.18806 67.9259 8.81016 67.8369 8.42915C67.4192 8.52689 66.4243 9.11646 66.4243 8.12658V5.80565H67.8873V4.59538H66.4243V2.87958L64.9613 3.13234Z" fill="#221E1F"/>
<path d="M19.4541 12.281H20.0804C20.2049 12.281 20.2971 12.286 20.3574 12.2959C20.4191 12.3065 20.4732 12.3283 20.5212 12.3607C20.5691 12.3937 20.6096 12.4366 20.6413 12.4908C20.6737 12.5456 20.6899 12.6066 20.6899 12.6738C20.6899 12.7467 20.67 12.8145 20.6308 12.8749C20.5915 12.9366 20.538 12.982 20.4701 13.0125C20.5654 13.0405 20.6382 13.0879 20.6899 13.1551C20.7409 13.2223 20.7665 13.3008 20.7665 13.3917C20.7665 13.4633 20.7497 13.5324 20.7167 13.5996C20.6837 13.6675 20.6382 13.721 20.5809 13.7615C20.5237 13.8019 20.4527 13.8262 20.3687 13.8362C20.3164 13.8412 20.1887 13.8449 19.9876 13.8468H19.4541V12.281ZM19.771 12.5412V12.9017H19.9783C20.1009 12.9017 20.1775 12.8998 20.2074 12.8961C20.2616 12.8905 20.3039 12.8718 20.335 12.8407C20.3662 12.8096 20.3811 12.7691 20.3811 12.7187C20.3811 12.6701 20.368 12.6315 20.3413 12.601C20.3145 12.5711 20.2746 12.5524 20.2224 12.5462C20.1912 12.5431 20.1009 12.5412 19.9528 12.5412H19.771ZM19.771 13.1619V13.5822H20.0642C20.1781 13.5822 20.2504 13.5784 20.2809 13.5722C20.3282 13.5635 20.3662 13.543 20.396 13.51C20.4253 13.4763 20.4402 13.4321 20.4402 13.3761C20.4402 13.3288 20.429 13.2889 20.406 13.2566C20.3836 13.2236 20.3506 13.1999 20.307 13.1844C20.2641 13.1694 20.1707 13.1619 20.0269 13.1619H19.771ZM23.1061 13.8468H22.7643L22.6292 13.49H22.0016L21.8715 13.8468H21.536L22.1436 12.281H22.4792L23.1061 13.8468ZM22.5265 13.2254L22.3092 12.6458L22.0975 13.2254H22.5265ZM23.9372 13.8468V12.281H24.2441L24.8885 13.33V12.281H25.1811V13.8468H24.8648L24.2304 12.817V13.8468H23.9372ZM26.1828 13.8468V12.281H26.5003V12.9745L27.1391 12.281H27.5637L26.9729 12.8905L27.5948 13.8468H27.1858L26.755 13.1115L26.5003 13.373V13.8468H26.1828Z" fill="#221E1F"/>
<path d="M29.3442 13.8468V12.281H29.8516C30.0434 12.281 30.1685 12.2885 30.227 12.3041C30.3167 12.3277 30.3914 12.3788 30.4518 12.4578C30.5128 12.5363 30.5427 12.6377 30.5427 12.7629C30.5427 12.8588 30.5253 12.9397 30.491 13.0051C30.4555 13.0704 30.4113 13.1221 30.3578 13.1595C30.3042 13.1968 30.2501 13.2217 30.1947 13.2335C30.1187 13.2485 30.0098 13.256 29.8672 13.256H29.6617V13.8468H29.3442ZM29.6617 12.5456V12.9914H29.8342C29.9581 12.9914 30.0409 12.9833 30.0826 12.9665C30.1249 12.9503 30.1573 12.9248 30.181 12.8893C30.2053 12.8544 30.2171 12.8139 30.2171 12.7672C30.2171 12.71 30.2003 12.6633 30.1673 12.6259C30.1337 12.5886 30.0913 12.5655 30.0403 12.5562C30.0029 12.5487 29.927 12.5456 29.8137 12.5456H29.6617ZM31.4105 13.8468V12.281H32.5698V12.5456H31.7281V12.893H32.5106V13.1576H31.7281V13.5822H32.6003V13.8468H31.4105ZM33.4725 13.8468V12.281H33.9475L34.2277 13.3487L34.5053 12.281H34.981V13.8468H34.6884L34.6871 12.6141L34.3783 13.8468H34.0739L33.7663 12.6141L33.7657 13.8468H33.4725ZM35.9061 12.281H36.5324C36.6563 12.281 36.7484 12.286 36.8095 12.296C36.8705 12.3065 36.9252 12.3283 36.9732 12.3607C37.0211 12.3937 37.0616 12.4367 37.0933 12.4908C37.1257 12.5456 37.1413 12.6066 37.1413 12.6739C37.1413 12.7467 37.122 12.8146 37.0828 12.8749C37.0429 12.9366 36.9894 12.982 36.9221 13.0125C37.0174 13.0406 37.0902 13.0879 37.1413 13.1551C37.1923 13.2223 37.2179 13.3008 37.2179 13.3917C37.2179 13.4633 37.2017 13.5324 37.1687 13.5996C37.1351 13.6675 37.0902 13.721 37.0323 13.7615C36.9751 13.802 36.9047 13.8262 36.8207 13.8362C36.7677 13.8412 36.6407 13.8449 36.439 13.8468H35.9061V12.281ZM36.223 12.5413V12.9017H36.4303C36.553 12.9017 36.6295 12.8999 36.6594 12.8961C36.713 12.8905 36.7559 12.8718 36.787 12.8407C36.8175 12.8096 36.8331 12.7691 36.8331 12.7187C36.8331 12.6701 36.8194 12.6315 36.7933 12.601C36.7665 12.5711 36.7267 12.5525 36.6744 12.5462C36.6432 12.5431 36.553 12.5413 36.4048 12.5413H36.223ZM36.223 13.162V13.5822H36.5162C36.6295 13.5822 36.7024 13.5785 36.7329 13.5722C36.7802 13.5635 36.8182 13.543 36.8481 13.51C36.8773 13.4763 36.8923 13.4321 36.8923 13.3761C36.8923 13.3288 36.881 13.289 36.858 13.2566C36.8356 13.2236 36.802 13.1999 36.759 13.1844C36.7161 13.1694 36.6227 13.162 36.4789 13.162H36.223ZM39.5033 13.8468H39.1615L39.0264 13.49H38.3989L38.2688 13.8468H37.9332L38.5408 12.281H38.8764L39.5033 13.8468ZM38.9237 13.2255L38.7064 12.6458L38.4947 13.2255H38.9237ZM40.2796 13.8468V12.281H40.5866L41.2309 13.33V12.281H41.5235V13.8468H41.2073L40.5729 12.8171V13.8468H40.2796ZM43.1945 13.2715V13.0069H43.875V13.6314C43.809 13.6961 43.7131 13.7528 43.5874 13.802C43.4616 13.8505 43.3346 13.8748 43.2057 13.8748C43.042 13.8748 42.8994 13.8406 42.7774 13.7721C42.656 13.703 42.5651 13.604 42.5035 13.4763C42.4424 13.3481 42.4119 13.2086 42.4119 13.058C42.4119 12.8949 42.4462 12.7498 42.514 12.6228C42.5825 12.4958 42.6828 12.3981 42.8141 12.3302C42.9144 12.2779 43.0395 12.2524 43.1889 12.2524C43.3831 12.2524 43.5351 12.2935 43.6446 12.375C43.7536 12.4566 43.8239 12.5693 43.8551 12.7137L43.54 12.7728C43.5182 12.6956 43.4765 12.6353 43.4155 12.5904C43.3551 12.5456 43.2798 12.5238 43.1883 12.5238C43.0507 12.5238 42.9411 12.5674 42.8596 12.6552C42.7786 12.743 42.7375 12.8731 42.7375 13.0455C42.7375 13.2317 42.7786 13.3711 42.8614 13.4645C42.9436 13.5573 43.0519 13.604 43.1858 13.604C43.2512 13.604 43.3178 13.5909 43.3844 13.5648C43.451 13.5392 43.5077 13.5075 43.5556 13.4701V13.2715H43.1945ZM44.7752 12.281H45.0921V13.1296C45.0921 13.2641 45.0958 13.3512 45.1039 13.3911C45.117 13.4552 45.1488 13.5069 45.1992 13.5455C45.2496 13.5847 45.3187 13.604 45.4065 13.604C45.4949 13.604 45.5621 13.5853 45.607 13.5486C45.6524 13.5118 45.6792 13.467 45.6885 13.4135C45.6972 13.3599 45.7022 13.2715 45.7022 13.1476V12.281H46.0191V13.1041C46.0191 13.2921 46.011 13.4253 45.9936 13.5031C45.9768 13.5803 45.945 13.6463 45.8996 13.6999C45.8535 13.7534 45.7925 13.7957 45.7159 13.8275C45.6393 13.8592 45.5391 13.8748 45.4158 13.8748C45.2664 13.8748 45.1537 13.858 45.0765 13.8231C45 13.7889 44.9389 13.7441 44.8941 13.6886C44.8493 13.6332 44.82 13.5753 44.8057 13.5143C44.7852 13.4247 44.7752 13.2921 44.7752 13.1171V12.281ZM46.9617 13.8468V12.281H47.2686L47.913 13.33V12.281H48.2062V13.8468H47.8893L47.2549 12.8171V13.8468H46.9617ZM50.5589 13.8468H50.2177L50.0826 13.49H49.4544L49.3243 13.8468H48.9888L49.597 12.281H49.9319L50.5589 13.8468ZM49.9793 13.2255L49.762 12.6458L49.5503 13.2255H49.9793ZM51.3352 13.8468V12.281H51.6421L52.2865 13.33V12.281H52.5797V13.8468H52.2628L51.6284 12.8171V13.8468H51.3352Z" fill="#221E1F"/>
<path d="M54.6199 12.281H55.1964C55.3265 12.281 55.4255 12.2903 55.4933 12.3109C55.5849 12.3377 55.6639 12.3856 55.7287 12.4547C55.7947 12.5238 55.8438 12.6085 55.8781 12.7087C55.9123 12.8083 55.9291 12.9322 55.9291 13.0785C55.9291 13.2074 55.9136 13.3182 55.8812 13.4116C55.842 13.5255 55.7866 13.6183 55.7137 13.6886C55.6596 13.7422 55.5855 13.7833 55.4927 13.8131C55.423 13.8356 55.3296 13.8468 55.2132 13.8468H54.6199V12.281ZM54.9368 12.5456V13.5822H55.1715C55.2592 13.5822 55.3228 13.5766 55.362 13.5672C55.413 13.5542 55.4554 13.5324 55.489 13.5019C55.5232 13.4714 55.5506 13.4209 55.5718 13.3506C55.5929 13.2808 55.6035 13.185 55.6035 13.0642C55.6035 12.9428 55.5929 12.8507 55.5718 12.7853C55.5506 12.7205 55.5207 12.6701 55.4821 12.634C55.4442 12.5979 55.3956 12.573 55.3364 12.5605C55.2929 12.5506 55.2063 12.5456 55.0781 12.5456H54.9368ZM58.2108 13.8468H57.8691L57.734 13.49H57.1058L56.9757 13.8468H56.6407L57.2484 12.281H57.5833L58.2108 13.8468ZM57.6312 13.2254L57.414 12.6458L57.2023 13.2254H57.6312ZM58.981 13.8468V12.281H60.1402V12.5456H59.2979V12.893H60.081V13.1576H59.2979V13.5822H60.1707V13.8468H58.981ZM61.041 13.8468V12.281H61.7072C61.874 12.281 61.9961 12.2953 62.072 12.3233C62.148 12.3514 62.2084 12.4012 62.2538 12.4728C62.2999 12.545 62.3223 12.6272 62.3223 12.7199C62.3223 12.8376 62.288 12.9341 62.2196 13.0107C62.1505 13.0872 62.0477 13.1352 61.9108 13.1557C61.9786 13.1949 62.0347 13.2391 62.0789 13.2865C62.1237 13.3344 62.1835 13.4197 62.2582 13.5411L62.4493 13.8468H62.0714L61.8448 13.5044C61.7632 13.3836 61.7078 13.307 61.6773 13.2752C61.6474 13.2435 61.6157 13.2217 61.5821 13.2105C61.5484 13.1987 61.4955 13.1924 61.4221 13.1924H61.3579V13.8468H61.041ZM61.3579 12.9434H61.592C61.7439 12.9434 61.8379 12.9366 61.8759 12.9241C61.9139 12.911 61.9438 12.8893 61.9643 12.8575C61.9861 12.8264 61.9967 12.7872 61.9967 12.7398C61.9967 12.6869 61.9824 12.6446 61.9543 12.6122C61.9263 12.5798 61.8865 12.5593 61.8354 12.5506C61.8099 12.5475 61.7327 12.5456 61.6051 12.5456H61.3579V12.9434ZM64.632 13.8468H64.2908L64.1557 13.49H63.5276L63.3975 13.8468H63.0619L63.6701 12.281H64.0051L64.632 13.8468ZM64.053 13.2254L63.8351 12.6458L63.6241 13.2254H64.053ZM65.4028 13.8468V12.281H65.7196V12.8973H66.3366V12.281H66.6535V13.8468H66.3366V13.1619H65.7196V13.8468H65.4028Z" fill="#221E1F"/>
<path d="M68.5934 12.281H69.2197C69.3436 12.281 69.4357 12.286 69.4967 12.2959C69.5577 12.3065 69.6125 12.3283 69.6605 12.3607C69.7084 12.3937 69.7489 12.4366 69.7806 12.4908C69.813 12.5456 69.8292 12.6066 69.8292 12.6738C69.8292 12.7467 69.8093 12.8145 69.77 12.8749C69.7302 12.9366 69.6766 12.982 69.6094 13.0125C69.7047 13.0405 69.7775 13.0879 69.8292 13.1551C69.8796 13.2223 69.9051 13.3008 69.9051 13.3917C69.9051 13.4633 69.8889 13.5324 69.856 13.5996C69.823 13.6675 69.7775 13.721 69.7196 13.7615C69.663 13.8019 69.592 13.8262 69.5079 13.8362C69.455 13.8412 69.328 13.8449 69.1263 13.8468H68.5934V12.281ZM68.9103 12.5412V12.9017H69.1176C69.2402 12.9017 69.3168 12.8998 69.3467 12.8961C69.4009 12.8905 69.4432 12.8718 69.4743 12.8407C69.5054 12.8096 69.5204 12.7691 69.5204 12.7187C69.5204 12.6701 69.5073 12.6315 69.4805 12.601C69.4538 12.5711 69.4139 12.5524 69.3616 12.5462C69.3305 12.5431 69.2402 12.5412 69.0921 12.5412H68.9103ZM68.9103 13.1619V13.5822H69.2035C69.3174 13.5822 69.3897 13.5784 69.4202 13.5722C69.4675 13.5635 69.5054 13.543 69.5353 13.51C69.5646 13.4763 69.5795 13.4321 69.5795 13.3761C69.5795 13.3288 69.5683 13.2889 69.5453 13.2566C69.5229 13.2236 69.4893 13.1999 69.4463 13.1844C69.4033 13.1694 69.31 13.1619 69.1661 13.1619H68.9103ZM72.2086 13.8468H71.8675L71.7318 13.49H71.1042L70.9741 13.8468H70.6385L71.2468 12.281H71.5817L72.2086 13.8468ZM71.629 13.2254L71.4118 12.6458L71.2001 13.2254H71.629ZM73.0037 13.8468V12.281H73.31L73.9543 13.33V12.281H74.2475V13.8468H73.9307L73.2963 12.817V13.8468H73.0037ZM75.5605 13.8468V12.5456H75.0967V12.281H76.3388V12.5456H75.8774V13.8468H75.5605ZM77.1699 13.8468V12.281H78.3291V12.5456H77.4868V12.893H78.27V13.1576H77.4868V13.5822H78.3596V13.8468H77.1699ZM79.2542 13.8468V12.281H79.5612L80.2055 13.33V12.281H80.4988V13.8468H80.1819L79.5475 12.817V13.8468H79.2542Z" fill="#221E1F"/>
</g>
</g>
<defs>
<clipPath id="clip0_801_8411">
<rect width="80" height="14.9416" fill="white" transform="translate(0.5)"/>
</clipPath>
<clipPath id="clip1_801_8411">
<rect width="80" height="14.9416" fill="white" transform="translate(0.5)"/>
</clipPath>
</defs>
</svg>
