<svg width="81" height="18" viewBox="0 0 81 18" fill="none" xmlns="http://www.w3.org/2000/svg">
<g clip-path="url(#clip0_801_8332)">
<path d="M8.70486 8.58744H11.7679C11.7679 8.58744 11.7875 8.58744 11.7954 8.59531H12.3734C12.4717 8.58744 13.3721 8.46555 13.5215 7.57692C13.5726 7.22698 13.6395 6.70009 13.0418 5.99234C13.0222 5.97268 13.0025 5.94909 12.9868 5.92943L7.36012 0C8.20156 2.19404 8.70879 5.25312 8.70879 8.56778V8.58351" fill="#FAA61A"/>
<path d="M14.017 7.27416C14.0445 7.41178 13.9737 8.00551 13.7968 8.30827C13.4547 8.89807 12.7902 9.11826 12.4009 9.14185H1.05323C0.561732 9.14185 0.314018 9.76704 0.663964 10.1327L1.41497 10.923L1.24983 10.577C1.25376 10.3529 1.41497 10.1366 1.65875 10.1327H12.7037C13.2148 10.0973 14.2096 9.73558 14.3001 8.61497C14.3001 8.58351 14.304 8.54812 14.3079 8.51274C14.3001 8.08022 14.2018 7.6595 14.017 7.26237V7.27416Z" fill="#2A9C46"/>
<path d="M14.3119 8.56778C14.3119 8.39085 14.2961 8.21391 14.2647 8.03697C14.2922 8.19818 14.3079 8.35939 14.3119 8.5206C14.3119 8.55599 14.3079 8.59138 14.304 8.62283C14.2096 9.73951 13.2188 10.1013 12.7037 10.1366H1.65876C1.42677 10.1366 1.24983 10.3332 1.24983 10.5967C1.24983 10.8208 1.41497 10.927 1.41497 10.927L5.54748 15.2679C6.53834 16.3099 8.15045 16.3099 9.14131 15.2679L11.9527 12.315L13.4822 10.7618C13.7181 10.522 14.013 10.0423 14.1664 9.53505C14.3237 9.01603 14.3079 8.56778 14.3079 8.55992" fill="#B72126"/>
<path d="M19.8677 7.40392C20.3435 6.59393 21.0473 6.19287 21.9713 6.19287C23.9491 6.26758 24.9321 7.62411 24.9321 10.2782C24.9321 12.9323 23.7801 14.1866 21.4798 14.2298C19.1639 14.2456 18 13.0778 18 10.7343V4.08533H18.9398C19.5571 4.08533 19.8677 4.42348 19.8677 5.07225V7.40392ZM19.8677 10.1917C19.852 11.7684 20.3592 12.5666 21.4248 12.5666C22.4904 12.5666 23.0251 11.7723 23.0251 10.1917C22.9819 8.68574 22.4628 7.95046 21.4523 7.95046C20.4418 7.95046 19.9228 8.68968 19.8677 10.1917Z" fill="#B52326"/>
<path d="M25.7775 10.0895C25.8325 7.56906 27.1104 6.31476 29.5954 6.31476H29.8628V8.35152H29.2298C28.1917 8.35152 27.6727 8.92559 27.6727 10.0619V14.1158H25.7775V10.0895Z" fill="#B52326"/>
<path d="M32.5995 5.04473V9.36598L34.9036 6.59393H37.1488L34.5812 9.48394L37.1802 14.1158H34.9351L33.6139 11.5482C33.3741 11.1078 33.1382 10.8837 32.8983 10.8837C32.7017 10.927 32.6034 11.0607 32.6034 11.2691V14.1158H30.7357V4.08533H31.703C32.1945 4.08533 32.5995 4.52571 32.5995 5.04473Z" fill="#B52326"/>
<path d="M40.8527 12.7003C41.6391 12.7003 42.0323 12.4644 42.0323 11.9611C42.0323 11.564 41.3874 11.2376 40.1096 11.0017C38.466 10.6911 37.6245 9.92432 37.6127 8.70147C37.6127 7.02252 38.8749 6.22432 40.5735 6.19287C41.529 6.19287 42.2879 6.41306 42.8462 6.85737C43.3928 7.31348 43.6877 7.95046 43.7309 8.76045H42.5513C42.1149 8.74472 41.8357 8.58351 41.7217 8.27289C41.5958 7.93474 41.2144 7.74207 40.5971 7.74207C39.8658 7.74207 39.5001 7.95046 39.5001 8.34759C39.5001 8.74472 39.9798 9.05535 40.9471 9.24802C42.2092 9.51146 43.0389 9.85354 43.4439 10.2507C43.7938 10.636 43.9629 11.1078 43.9629 11.6387C43.9629 13.5575 42.5317 14.2652 40.5657 14.2652C39.5276 14.2652 38.7412 14.0293 38.234 13.5732C37.6717 13.1328 37.3926 12.4526 37.3926 11.5522H39.3035C39.3467 12.4054 39.9365 12.7003 40.8488 12.7003" fill="#2A9C46"/>
<path d="M45.7244 15.4999C46.7507 15.4999 47.1124 14.969 46.8175 13.9349L44.2892 6.31083H46.4086L47.8831 11.7212L49.1728 7.00286C49.2868 6.54675 49.5817 6.31083 50.0575 6.31083H51.3629L48.4296 15.4409C47.9814 16.7227 47.5331 17.167 45.9879 17.167C45.5121 17.167 45.2565 17.1513 45.2015 17.108V15.4999H45.7244Z" fill="#2A9C46"/>
<path d="M53.4036 8.34759H51.5359C51.76 6.90062 52.7273 6.19287 54.4416 6.19287C56.4902 6.19287 57.5282 6.90062 57.5715 8.34759V11.0017C57.5715 13.1564 56.3368 14.1119 54.3276 14.2613C52.5464 14.4068 51.3118 13.5378 51.3118 11.8117C51.355 9.94004 52.6447 9.43675 54.5242 9.24802C55.3263 9.14578 55.7313 8.89414 55.7313 8.46555C55.688 8.02517 55.2948 7.80105 54.5242 7.80105C53.8636 7.80105 53.4979 7.97799 53.4036 8.34759ZM55.7628 10.9152V10.1917C55.3263 10.3844 54.823 10.5456 54.2765 10.6635C53.5333 10.8129 53.1519 11.1786 53.1519 11.7566C53.1952 12.3779 53.5019 12.6728 54.0917 12.6728C55.1297 12.6728 55.7628 12.024 55.7628 10.9191" fill="#2A9C46"/>
<path d="M58.468 10.0895C58.523 7.56906 59.8009 6.31476 62.2859 6.31476H62.5533V8.35152H61.9202C60.8822 8.35152 60.3632 8.92559 60.3632 10.0619V14.1158H58.468V10.0895Z" fill="#2A9C46"/>
<path d="M64.6726 4.08533C65.2899 4.08533 65.5848 4.40775 65.5691 5.04473V5.6188H63.7014V4.08533H64.6726ZM64.6726 6.31083C65.2742 6.31083 65.5691 6.62145 65.5691 7.2545V14.1119H63.7014V6.31476H64.6687L64.6726 6.31083Z" fill="#2A9C46"/>
<path d="M68.5495 8.34759H66.6818C66.906 6.90062 67.8732 6.19287 69.5876 6.19287C71.6361 6.19287 72.6742 6.90062 72.7174 8.34759V11.0017C72.7174 13.1564 71.4828 14.1119 69.4736 14.2613C67.6924 14.4068 66.4538 13.5378 66.4538 11.8117C66.497 9.94004 67.7867 9.43675 69.6662 9.24802C70.4683 9.14578 70.8733 8.89414 70.8733 8.46555C70.8301 8.02517 70.4369 7.80105 69.6662 7.80105C69.0056 7.80105 68.6439 7.97799 68.5456 8.34759M70.9048 10.9152V10.1917C70.4683 10.3844 69.965 10.5456 69.4146 10.6635C68.6714 10.8129 68.29 11.1786 68.29 11.7566C68.3333 12.3779 68.64 12.6728 69.2298 12.6728C70.2678 12.6728 70.9009 12.024 70.9009 10.9191" fill="#2A9C46"/>
<path d="M77.0701 7.95046C75.9613 7.95046 75.4855 8.92166 75.4855 10.117V14.1119H73.6179V4.08533H74.5576C75.1749 4.08533 75.4855 4.42348 75.4855 5.07225V7.40392C76.441 6.25185 77.6049 5.92942 78.9968 6.44451C80.0348 6.84164 80.5263 7.88755 80.4713 9.58617V14.1119H78.6193V10.117C78.6193 8.8037 78.1436 7.95046 77.0741 7.95046" fill="#2A9C46"/>
<path d="M51.6067 17.3204C51.6145 17.2181 51.6185 17.0491 51.6185 16.88V15.0359H52.0077V15.9953H52.0156C52.1099 15.838 52.2948 15.7279 52.5425 15.7279C52.9357 15.7279 53.2306 16.0425 53.2266 16.5222C53.2266 17.0805 52.8492 17.3597 52.4874 17.3597C52.279 17.3597 52.0824 17.281 51.9645 17.0727H51.9566L51.9409 17.3204H51.6067ZM52.0116 16.648C52.0116 16.6795 52.0117 16.7109 52.0195 16.7384C52.0588 16.8957 52.2043 17.0373 52.4009 17.0373C52.6604 17.0373 52.8295 16.8485 52.8295 16.534C52.8295 16.2666 52.684 16.0385 52.4088 16.0385C52.2358 16.0385 52.0706 16.1565 52.0234 16.3531C52.0156 16.3846 52.0116 16.416 52.0116 16.4553V16.648Z" fill="#231F20"/>
<path d="M53.8322 16.6598C53.844 16.9193 54.0681 17.053 54.3315 17.053C54.5242 17.053 54.6579 17.0255 54.7876 16.9744L54.8466 17.2535C54.709 17.3125 54.5242 17.3597 54.2804 17.3597C53.7692 17.3597 53.4626 17.0412 53.4626 16.5654C53.4626 16.1644 53.7142 15.7279 54.2411 15.7279C54.768 15.7279 54.9331 16.184 54.9331 16.4986C54.9331 16.5654 54.9252 16.6283 54.9174 16.6559H53.8322V16.6598ZM54.5635 16.3767C54.5635 16.2666 54.5124 16.0032 54.2175 16.0032C53.958 16.0032 53.8518 16.2233 53.8322 16.3767H54.5674H54.5635Z" fill="#231F20"/>
<path d="M55.2634 16.2863C55.2634 16.0582 55.2634 15.9088 55.2516 15.7672H55.5898L55.6015 16.0818H55.6133C55.692 15.8419 55.8807 15.7279 56.0537 15.7279C56.093 15.7279 56.1127 15.7279 56.1481 15.7358V16.1172C56.1127 16.1093 56.0773 16.1015 56.0262 16.1015C55.8257 16.1015 55.6998 16.2273 55.6645 16.4082C55.6566 16.4435 55.6566 16.4789 55.6566 16.5182V17.3204H55.2673V16.2863H55.2634Z" fill="#231F20"/>
<path d="M56.8322 16.4435H56.8401C56.8755 16.3885 56.9266 16.3216 56.9699 16.2666L57.3709 15.7672H57.8546L57.249 16.3964L57.9489 17.3204H57.4574L56.9777 16.6323L56.8362 16.7974V17.3243H56.4469V15.0398H56.8362V16.4475L56.8322 16.4435Z" fill="#231F20"/>
<path d="M59.0184 17.3204L58.9909 17.1434H58.9791C58.8847 17.2653 58.7157 17.3597 58.5033 17.3597C58.1731 17.3597 58.0079 17.1238 58.0079 16.8957C58.0079 16.5065 58.3421 16.2981 58.9594 16.302V16.2823C58.9594 16.1998 58.928 16.011 58.6331 16.015C58.4758 16.015 58.3028 16.07 58.1966 16.1408L58.118 15.8773C58.2438 15.7987 58.4444 15.7318 58.696 15.7318C59.1993 15.7318 59.3487 16.0582 59.3487 16.4042V16.9429C59.3487 17.0923 59.3566 17.2299 59.3723 17.3243H59.0184V17.3204ZM58.9673 16.5654C58.6567 16.5615 58.3972 16.6244 58.3972 16.8485C58.3972 16.994 58.4955 17.0687 58.6292 17.0687C58.8022 17.0687 58.9162 16.9547 58.9555 16.8407C58.9634 16.8131 58.9673 16.7817 58.9673 16.7542V16.5654Z" fill="#231F20"/>
<path d="M59.7852 15.0359H60.1744V15.9953H60.1823C60.2334 15.9167 60.3003 15.8498 60.3868 15.8026C60.4654 15.7554 60.5637 15.7279 60.662 15.7279C60.9176 15.7279 61.2282 15.8931 61.2282 16.4278V17.3204H60.8389V16.4829C60.8389 16.2391 60.7485 16.0621 60.5165 16.0621C60.3514 16.0621 60.2373 16.1801 60.1941 16.2902C60.1784 16.3256 60.1784 16.3649 60.1784 16.4082V17.3204H59.7891V15.0359H59.7852Z" fill="#231F20"/>
<path d="M63.7879 16.8525C63.7879 17.0412 63.7918 17.1985 63.7997 17.3243H63.4576L63.438 17.0648H63.4301C63.3672 17.1788 63.2099 17.3636 62.9072 17.3636C62.6398 17.3636 62.3488 17.2103 62.3488 16.6677V15.7751H62.7381V16.5969C62.7381 16.8682 62.8285 17.0373 63.0487 17.0373C63.2138 17.0373 63.3279 16.9232 63.3751 16.8092C63.3869 16.7778 63.3947 16.7345 63.3947 16.6913V15.779H63.784V16.8603L63.7879 16.8525Z" fill="#231F20"/>
<path d="M64.2322 16.2391C64.2322 16.0582 64.2283 15.9009 64.2204 15.7672H64.5625L64.5822 16.0189H64.59C64.653 15.9009 64.826 15.7318 65.1012 15.7318C65.3607 15.7318 65.6753 15.897 65.6753 16.4317V17.3243H65.286V16.4829C65.286 16.2391 65.1916 16.0621 64.9675 16.0621C64.7984 16.0621 64.6844 16.188 64.6412 16.3059C64.6294 16.3374 64.6254 16.3846 64.6254 16.4239V17.3204H64.2362V16.2391H64.2322Z" fill="#231F20"/>
<path d="M66.56 15.3151V15.7712H66.9374V16.0779H66.56V16.7227C66.56 16.9114 66.5993 17.0255 66.7644 17.0255C66.8352 17.0255 66.8903 17.0176 66.9256 17.0058L66.9335 17.3164C66.8745 17.34 66.7684 17.3597 66.6425 17.3597C66.4931 17.3597 66.3712 17.3046 66.3005 17.2221C66.2179 17.1277 66.1786 16.9744 66.1786 16.7817V16.0779H65.9544V15.7712H66.1786V15.4134L66.56 15.319V15.3151Z" fill="#231F20"/>
<path d="M68.6911 16.8525C68.6911 17.0412 68.695 17.1985 68.7029 17.3243H68.3608L68.3451 17.0648H68.3372C68.2743 17.1788 68.117 17.3636 67.8143 17.3636C67.5469 17.3636 67.2559 17.2103 67.2559 16.6677V15.7751H67.6452V16.5969C67.6452 16.8682 67.7356 17.0373 67.9558 17.0373C68.121 17.0373 68.235 16.9232 68.2822 16.8092C68.294 16.7778 68.3018 16.7345 68.3018 16.6913V15.779H68.6911V16.8603V16.8525Z" fill="#231F20"/>
<path d="M69.5286 16.4435H69.5365C69.5758 16.3885 69.623 16.3216 69.6662 16.2666L70.0673 15.7672H70.5509L69.9454 16.3964L70.6453 17.3204H70.1538L69.6741 16.6323L69.5325 16.7974V17.3243H69.1433V15.0398H69.5325V16.4475L69.5286 16.4435Z" fill="#231F20"/>
<path d="M71.4867 16.9468C71.5772 17.0058 71.758 17.0727 71.9035 17.0727C72.0844 17.0727 72.1591 16.9979 72.1591 16.8996C72.1591 16.7935 72.0923 16.7424 71.8957 16.6834C71.585 16.589 71.4474 16.4199 71.4513 16.2273C71.4513 15.952 71.6794 15.7318 72.049 15.7318C72.2259 15.7318 72.3832 15.7751 72.4776 15.8301L72.4029 16.1133C72.34 16.0779 72.2023 16.015 72.0529 16.015C71.9114 16.015 71.8327 16.0818 71.8327 16.1801C71.8327 16.2784 71.9153 16.3295 72.1158 16.3924C72.4107 16.4868 72.5405 16.6244 72.5405 16.8682C72.5405 17.1395 72.3321 17.3597 71.9035 17.3597C71.703 17.3597 71.53 17.3125 71.4081 17.2457L71.4867 16.9468Z" fill="#231F20"/>
<path d="M73.1539 16.6598C73.1657 16.9193 73.3898 17.053 73.6533 17.053C73.8459 17.053 73.9796 17.0255 74.1094 16.9744L74.1683 17.2535C74.0307 17.3125 73.8459 17.3597 73.6021 17.3597C73.091 17.3597 72.7843 17.0412 72.7843 16.5654C72.7843 16.1644 73.0359 15.7279 73.5667 15.7279C74.0976 15.7279 74.2588 16.184 74.2588 16.4986C74.2588 16.5654 74.2509 16.6283 74.243 16.6559H73.1539V16.6598ZM73.8852 16.3767C73.8852 16.2666 73.8341 16.0032 73.5392 16.0032C73.2797 16.0032 73.1736 16.2233 73.1539 16.3767H73.8892H73.8852Z" fill="#231F20"/>
<path d="M74.5891 16.2391C74.5891 16.0582 74.5851 15.9009 74.5773 15.7672H74.9075L74.9233 16.011H74.9351C75.0059 15.8891 75.1474 15.7318 75.4266 15.7318C75.635 15.7318 75.8001 15.8577 75.867 16.0385H75.8748C75.9299 15.9481 75.9967 15.8813 76.0675 15.8341C76.1579 15.7672 76.2601 15.7318 76.3978 15.7318C76.6455 15.7318 76.9325 15.9009 76.9325 16.4396V17.3243H76.555V16.4947C76.555 16.2116 76.4489 16.0661 76.2601 16.0661C76.1186 16.0661 76.0164 16.1722 75.9731 16.2823C75.9574 16.3216 75.9535 16.3728 75.9535 16.416V17.3282H75.576V16.4632C75.576 16.2194 75.4698 16.07 75.2929 16.07C75.1317 16.07 75.0334 16.2037 74.994 16.302C74.9783 16.3452 74.9744 16.3924 74.9744 16.4357V17.3322H74.5969V16.2509L74.5891 16.2391Z" fill="#231F20"/>
<path d="M78.8041 16.8525C78.8041 17.0412 78.8081 17.1985 78.8159 17.3243H78.4739L78.4542 17.0648H78.4463C78.3834 17.1788 78.2261 17.3636 77.9234 17.3636C77.656 17.3636 77.365 17.2103 77.365 16.6677V15.7751H77.7543V16.5969C77.7543 16.8682 77.8447 17.0373 78.0649 17.0373C78.2301 17.0373 78.3441 16.9232 78.3913 16.8092C78.4031 16.7778 78.4109 16.7345 78.4109 16.6913V15.779H78.8002V16.8603L78.8041 16.8525Z" fill="#231F20"/>
<path d="M80.1489 17.3204L80.1214 17.1434H80.1096C80.0152 17.2653 79.8461 17.3597 79.6338 17.3597C79.3035 17.3597 79.1384 17.1238 79.1384 16.8957C79.1384 16.5065 79.4726 16.2981 80.0899 16.302V16.2823C80.0899 16.1998 80.0584 16.011 79.7635 16.015C79.6063 16.015 79.4333 16.07 79.3232 16.1408L79.2445 15.8773C79.3703 15.7987 79.5709 15.7318 79.8225 15.7318C80.3258 15.7318 80.4752 16.0582 80.4752 16.4042V16.9429C80.4752 17.0923 80.4831 17.2299 80.4988 17.3243H80.1449L80.1489 17.3204ZM80.0978 16.5654C79.7871 16.5615 79.5276 16.6244 79.5276 16.8485C79.5276 16.994 79.6259 17.0687 79.7596 17.0687C79.9326 17.0687 80.0466 16.9547 80.086 16.8407C80.0938 16.8131 80.0978 16.7817 80.0978 16.7542V16.5654Z" fill="#231F20"/>
</g>
<defs>
<clipPath id="clip0_801_8332">
<rect width="79.9988" height="17.3636" fill="white" transform="translate(0.5)"/>
</clipPath>
</defs>
</svg>
