<svg width="85" height="39" viewBox="0 0 85 39" fill="none" xmlns="http://www.w3.org/2000/svg">
<g clip-path="url(#clip0_801_8335)">
<path fill-rule="evenodd" clip-rule="evenodd" d="M32.72 8.06C32.34 9.65 31.96 11.41 31.57 13C27.36 13.75 22.93 15.84 18.4 18.41C21.96 13.91 27.39 10.94 32.72 8.06ZM16.61 19.59C11.98 24.66 9.04 31.19 7.03 38.52C4.85 37.1 2.68 35.68 0.5 34.25C4.37 28.43 9.45 23.36 16.61 19.58V19.59Z" fill="#ED1C24"/>
<path fill-rule="evenodd" clip-rule="evenodd" d="M31.65 0C32.56 0.51 33.48 1.02 34.39 1.53C30.73 3.58 27.1 5.96 23.68 9.87C25.12 6.62 27.89 3.33 31.66 0H31.65ZM19.35 1.38C20.03 1.47 20.71 1.55 21.39 1.63C20.18 3.72 19.16 5.94 18.56 8.44C18.14 6.3 18.68 3.86 19.35 1.38ZM20.12 6.5C20.56 6.52 21 6.55 21.43 6.57C20.43 8.23 19.61 9.98 18.93 11.79C19.08 10.13 19.46 8.38 20.12 6.5ZM21 9.37C21.68 9.78 22.36 10.18 23.04 10.59C21.23 12.71 19.54 14.92 18.14 17.29C18.73 14.72 19.85 12.04 21 9.37ZM16.24 10.06C16.9 9.93 17.56 9.81 18.21 9.68C17.66 12.13 17.46 14.58 17.55 17.03C16.63 14.96 16.37 12.54 16.23 10.06H16.24ZM15.5 12.17C15.7 13.89 15.99 15.61 16.51 17.33C15.67 16.17 14.94 14.71 14.26 13.11C14.67 12.8 15.09 12.49 15.5 12.17ZM11.61 14.84C12.14 14.66 12.66 14.48 13.19 14.3C14.01 15.43 14.81 16.59 15.59 17.79C14.36 16.72 13.01 15.76 11.61 14.83V14.84ZM8.81 10.95C9.22 10.73 9.63 10.51 10.04 10.29C11.02 11.22 11.93 12.36 12.76 13.73C11.51 12.69 10.2 11.76 8.81 10.95ZM2.21 15.31C2.68 14.79 3.14 14.26 3.61 13.74C5.4 14.33 7.14 14.99 8.84 15.7C6.65 15.48 4.43 15.35 2.2 15.31H2.21ZM8.41 17.88C8.93 17.3 9.45 16.72 9.98 16.13C11.87 16.82 13.7 17.63 15.48 18.59C13.12 18.22 10.77 18.02 8.41 17.88ZM5.06 19.85C5.3 19.31 5.54 18.77 5.77 18.23C7.62 18.21 9.38 18.48 11.02 19.11C9.03 19.17 7.05 19.45 5.06 19.86V19.85ZM1.38 22.29C1.49 21.76 1.65 21.24 1.87 20.72C3.29 20.53 4.71 20.45 6.13 20.61C4.38 21.03 2.84 21.63 1.39 22.28L1.38 22.29ZM4.78 24.89C5.29 23.62 5.82 22.34 6.33 21.07C9.62 19.79 12.81 19.33 15.95 19.33C11.95 20.66 8.29 22.63 4.78 24.89ZM3.37 28.62V26.69C4.89 25.66 6.38 25.01 7.85 24.56C6.07 25.68 4.6 27.06 3.37 28.62Z" fill="#FED860"/>
<path fill-rule="evenodd" clip-rule="evenodd" d="M56.04 28.41V26.29L55.12 26.66C54.65 26.85 54.32 27.04 54.13 27.24C53.93 27.44 53.84 27.68 53.84 27.97C53.84 28.26 53.93 28.51 54.12 28.69C54.3 28.88 54.54 28.97 54.84 28.97C55.28 28.97 55.68 28.79 56.05 28.42L56.04 28.41ZM57.39 25.52V28.56C57.39 28.81 57.47 28.93 57.63 28.93C57.73 28.93 57.87 28.88 58.05 28.78C58.67 28.46 58.19 29.56 57.66 29.83C57.48 29.92 57.27 29.94 57.07 29.94C56.48 29.94 56.13 29.7 56.03 29.22C55.44 29.69 54.82 29.92 54.16 29.92C53.68 29.92 53.28 29.76 52.95 29.43C52.63 29.1 52.46 28.68 52.46 28.19C52.46 27.74 52.62 27.33 52.93 26.98C53.25 26.62 53.69 26.34 54.27 26.14L56.03 25.52V25.14C56.03 24.28 55.61 23.85 54.78 23.85C54.03 23.85 53.3 24.25 52.59 25.04V23.49C53.13 22.84 53.89 22.52 54.89 22.52C55.64 22.52 56.24 22.72 56.7 23.13C56.85 23.26 56.99 23.43 57.11 23.65C57.23 23.86 57.31 24.08 57.34 24.29C57.38 24.51 57.39 24.91 57.39 25.52ZM72.32 22.66V23.57C72.93 22.87 73.62 22.52 74.4 22.52C74.83 22.52 75.23 22.63 75.6 22.86C75.97 23.09 76.25 23.41 76.44 23.81C76.64 24.21 76.73 24.85 76.73 25.72V29.81C75.75 29.95 75.58 29.42 75.37 28.92V25.73C75.37 25 75.26 24.48 75.05 24.16C74.84 23.84 74.47 23.69 73.97 23.69C73.33 23.69 72.78 24.02 72.33 24.69V29.8H70.94V22.64H72.33L72.32 22.66ZM80.09 30.34C79.62 30.34 79.24 30.44 78.94 30.64C78.64 30.84 78.49 31.1 78.49 31.41C78.49 32.14 79.15 32.51 80.45 32.51C81.07 32.51 81.54 32.42 81.88 32.23C82.22 32.05 82.39 31.79 82.39 31.46C82.39 31.13 82.18 30.86 81.75 30.65C81.32 30.44 80.77 30.34 80.09 30.34ZM80.42 24.11C80.04 24.11 79.72 24.24 79.46 24.5C79.19 24.76 79.06 25.07 79.06 25.43C79.06 25.79 79.19 26.1 79.45 26.34C79.71 26.58 80.04 26.7 80.44 26.7C80.84 26.7 81.16 26.58 81.43 26.33C81.69 26.08 81.82 25.78 81.82 25.42C81.82 25.06 81.69 24.74 81.42 24.49C81.15 24.24 80.82 24.12 80.42 24.12V24.11ZM77.8 25.35C77.8 24.59 78.07 23.99 78.62 23.55C79.17 23.11 79.92 22.89 80.87 22.89H84.41C84.23 23.33 84.02 23.76 83.43 23.99H82.35C82.63 24.27 82.82 24.53 82.92 24.76C83.03 24.99 83.08 25.26 83.08 25.55C83.08 25.92 82.98 26.28 82.77 26.64C82.56 27 82.29 27.27 81.96 27.47C81.63 27.66 81.09 27.81 80.34 27.93C79.81 28.01 79.55 28.19 79.55 28.48C79.55 28.64 79.65 28.78 79.84 28.89C80.04 29 80.39 29.1 80.91 29.21C81.77 29.4 82.32 29.55 82.57 29.66C82.82 29.77 83.04 29.93 83.24 30.12C83.58 30.46 83.75 30.89 83.75 31.4C83.75 32.08 83.45 32.61 82.86 33.02C82.27 33.42 81.47 33.62 80.48 33.62C79.49 33.62 78.67 33.42 78.07 33.01C77.47 32.61 77.17 32.06 77.17 31.38C77.17 30.42 77.76 29.8 78.94 29.52C78.47 29.22 78.23 28.92 78.23 28.62C78.23 28.39 78.33 28.19 78.53 28C78.73 27.81 79 27.68 79.35 27.59C78.31 27.12 77.8 26.37 77.8 25.34V25.35ZM64.92 25.66H68.44C68.41 25.1 68.24 24.66 67.95 24.36C67.66 24.05 67.26 23.9 66.76 23.9C66.26 23.9 65.85 24.05 65.54 24.36C65.22 24.66 65.01 25.1 64.92 25.66ZM69.82 26.5H64.89C64.93 27.18 65.15 27.72 65.57 28.12C65.98 28.53 66.52 28.73 67.17 28.73C68.08 28.73 68.93 28.44 69.7 27.86V29.24C69.27 29.53 68.85 29.74 68.43 29.86C68.01 29.98 67.52 30.04 66.95 30.04C66.18 30.04 65.55 29.88 65.08 29.55C64.6 29.22 64.22 28.79 63.93 28.24C63.64 27.69 63.5 27.05 63.5 26.33C63.5 25.24 63.8 24.36 64.41 23.68C65.02 23 65.8 22.66 66.77 22.66C67.74 22.66 68.44 22.99 68.99 23.65C69.55 24.31 69.82 25.2 69.82 26.31V26.5ZM58.25 23.9L60.73 21.31V22.78H62.94C62.84 23.19 62.66 23.6 61.94 24.05H60.73V27.53C60.73 28.35 61.05 28.75 61.68 28.75C62.15 28.75 62.65 28.58 63.18 28.24V29.55C62.67 29.85 62.12 30.01 61.52 30.01C60.92 30.01 60.42 29.82 60.02 29.44C59.9 29.33 59.79 29.2 59.71 29.06C59.63 28.92 59.56 28.73 59.5 28.5C59.45 28.27 59.42 27.84 59.42 27.19V24.04H58.26V23.9H58.25ZM51.55 19.05V29.78C51.55 30.78 51.45 31.52 51.25 32C51.05 32.48 50.72 32.86 50.27 33.15C49.82 33.44 49.28 33.58 48.65 33.58C48.55 33.58 48.39 33.56 48.15 33.53L47.87 32.08H48.26C48.7 32.08 49.04 32.03 49.27 31.92C49.5 31.81 49.69 31.62 49.82 31.35C49.96 31.08 50.02 30.49 50.02 29.6V20.77C50.06 19.75 50.68 19.27 51.56 19.04L51.55 19.05ZM40.49 18.94V29.81H39.1V20.27C39.19 19.76 39.66 19.32 40.49 18.95V18.94ZM43.63 22.65H45.2L42.3 26.11C43.44 27.33 44.61 28.59 45.75 29.81C44.95 29.96 44.02 29.75 43.09 28.94L40.55 26.16L43.63 22.65ZM33.47 22.65V23.56C34.08 22.86 34.77 22.51 35.55 22.51C35.98 22.51 36.38 22.62 36.75 22.85C37.12 23.08 37.4 23.4 37.59 23.8C37.78 24.2 37.88 24.84 37.88 25.71V29.8C36.9 29.94 36.73 29.41 36.52 28.91V25.72C36.52 24.99 36.41 24.47 36.2 24.15C35.99 23.83 35.63 23.68 35.12 23.68C34.48 23.68 33.93 24.01 33.48 24.68V29.79H32.09V22.63H33.48L33.47 22.65ZM28.97 26.27L28.05 26.64C27.59 26.83 27.25 27.02 27.06 27.22C26.86 27.42 26.77 27.66 26.77 27.95C26.77 28.24 26.86 28.49 27.05 28.67C27.24 28.86 27.47 28.95 27.76 28.95C28.2 28.95 28.6 28.77 28.97 28.4V26.27ZM30.32 25.5V28.54C30.32 28.79 30.4 28.91 30.56 28.91C30.67 28.91 30.8 28.86 30.98 28.76C31.6 28.44 31.12 29.54 30.59 29.81C30.41 29.9 30.2 29.92 30 29.92C29.41 29.92 29.06 29.68 28.96 29.2C28.38 29.67 27.76 29.9 27.1 29.9C26.62 29.9 26.21 29.74 25.89 29.41C25.57 29.08 25.41 28.66 25.41 28.17C25.41 27.72 25.57 27.31 25.88 26.96C26.2 26.6 26.64 26.32 27.22 26.12L28.98 25.5V25.12C28.98 24.26 28.56 23.83 27.73 23.83C26.98 23.83 26.25 24.23 25.54 25.02V23.47C26.07 22.82 26.84 22.5 27.84 22.5C28.59 22.5 29.19 22.7 29.64 23.11C29.79 23.24 29.93 23.41 30.05 23.63C30.17 23.84 30.25 24.06 30.28 24.27C30.31 24.49 30.33 24.89 30.33 25.5H30.32ZM20.46 25H19.08V28.42H20.54C21.35 28.42 21.9 28.36 22.18 28.22C22.47 28.09 22.7 27.88 22.88 27.6C23.05 27.32 23.14 27.03 23.14 26.71C23.14 26.39 23.05 26.08 22.86 25.8C22.67 25.53 22.41 25.33 22.07 25.19C21.73 25.06 21.19 24.99 20.46 24.99V25ZM20.35 20.38H19.08V23.63H20.06C20.85 23.63 21.41 23.47 21.74 23.16C22.08 22.84 22.24 22.44 22.24 21.94C22.24 20.9 21.61 20.39 20.35 20.39V20.38ZM17.6 29.8V19.01H20.31C21.16 19.01 21.83 19.13 22.31 19.36C22.79 19.6 23.15 19.93 23.41 20.35C23.66 20.77 23.79 21.26 23.79 21.81C23.79 22.87 23.27 23.63 22.22 24.09C22.97 24.24 23.57 24.57 24.02 25.07C24.47 25.57 24.69 26.16 24.69 26.86C24.69 27.41 24.55 27.9 24.28 28.33C24.01 28.76 23.61 29.11 23.09 29.39C22.56 29.66 21.91 29.8 21.12 29.8H17.6Z" fill="#2E3092"/>
</g>
<defs>
<clipPath id="clip0_801_8335">
<rect width="83.91" height="38.52" fill="white" transform="translate(0.5)"/>
</clipPath>
</defs>
</svg>
