<svg width="80" height="9" viewBox="0 0 80 9" fill="none" xmlns="http://www.w3.org/2000/svg">
<g clip-path="url(#clip0_801_8026)">
<mask id="mask0_801_8026" style="mask-type:luminance" maskUnits="userSpaceOnUse" x="1" y="0" width="10" height="9">
<path d="M4.68945 2.05186C5.28056 2.59182 6.32639 3.78543 5.91147 4.66073C5.68411 5.13818 4.87701 4.4277 4.40526 4.32539C4.71787 4.79715 5.37719 5.64404 6.21839 6.36588C7.05391 7.08773 9.00915 8.66214 9.8333 7.80957C10.7711 6.83764 8.33277 3.54102 6.76404 2.29626C5.26351 1.10266 2.93315 0.0682059 1.79639 0C3.08661 0.62522 4.23474 1.63126 4.70082 2.05754" fill="white"/>
</mask>
<g mask="url(#mask0_801_8026)">
<path d="M6.1499 -4.49051L-2.54395 4.44958L6.40021 13.1474L15.0941 4.20732L6.1499 -4.49051Z" fill="url(#paint0_linear_801_8026)"/>
</g>
<mask id="mask1_801_8026" style="mask-type:luminance" maskUnits="userSpaceOnUse" x="0" y="0" width="9" height="9">
<path d="M0.227706 0.295498C-0.795381 1.21628 1.87601 4.52426 3.34244 5.76334C4.80886 6.99673 7.09375 7.96866 8.23052 8.03118C6.98008 7.51964 5.80353 6.42266 5.36587 5.96795C4.92822 5.51325 3.42201 3.9502 4.01881 3.27382C4.36552 2.88164 5.07032 3.54664 5.54207 3.64895C5.22378 2.91574 4.6895 2.44398 3.84829 1.72214C3.18329 1.14807 1.89306 0.0454102 0.909764 0.0454102C0.653992 0.0454102 0.420956 0.1193 0.222022 0.295498" fill="white"/>
</mask>
<g mask="url(#mask1_801_8026)">
<path d="M3.59663 -4.47067L-4.78418 4.14752L3.84622 12.5402L12.227 3.92204L3.59663 -4.47067Z" fill="url(#paint1_linear_801_8026)"/>
</g>
<path d="M4.02445 3.26816C4.33138 2.88166 5.07596 3.21132 5.42267 3.52393C5.77507 3.83654 6.15588 4.42197 5.97969 4.71753C5.80917 5.01309 5.09301 4.87668 4.65536 4.54133C4.22907 4.20599 3.76868 3.59213 4.02445 3.26816Z" fill="#19335D"/>
<path d="M77.3514 4.91079C77.323 4.91647 77.2775 4.92216 77.215 4.92216H76.3226C76.2033 4.92216 76.118 4.91647 76.0782 4.90511C76.0612 4.89942 76.0555 4.89374 76.0555 4.89374C76.0555 4.89374 76.0555 4.89374 76.0555 4.88237C76.0555 4.871 76.0668 4.8028 76.101 4.71186L76.6864 3.30227C76.6977 3.26817 76.7148 3.25111 76.7262 3.23975C76.7375 3.25111 76.7603 3.28522 76.7773 3.33637L77.3287 4.68912C77.3571 4.75164 77.3684 4.80848 77.3798 4.84258C77.3855 4.85964 77.3855 4.87669 77.3912 4.88805C77.3912 4.88805 77.3912 4.88805 77.3912 4.89374C77.3912 4.89374 77.3741 4.90511 77.3514 4.91079ZM79.9603 7.13885C79.9318 7.08201 79.8807 7.04791 79.8295 7.02517C79.7784 7.00812 79.7159 6.99107 79.6477 6.96833C79.4203 6.88876 79.335 6.75803 79.2271 6.50226L77.2491 1.73353C77.2036 1.63691 77.1411 1.54597 77.0331 1.54028C76.9819 1.54028 76.9308 1.55733 76.9024 1.59144C76.8683 1.62554 76.8569 1.65964 76.8398 1.69943L74.8846 6.23512C74.7255 6.59889 74.6175 6.82055 74.4299 6.9456C74.3674 6.99107 74.2935 7.00812 74.2196 7.04222C74.1798 7.05928 74.1457 7.08201 74.1173 7.1218C74.0889 7.16158 74.0718 7.21274 74.0718 7.26958C74.0718 7.33778 74.0946 7.4003 74.14 7.44577C74.1855 7.49125 74.248 7.5083 74.3162 7.5083C74.3788 7.5083 74.447 7.48556 74.5606 7.46851C74.6686 7.45146 74.8107 7.43441 74.9983 7.43441C75.4928 7.43441 75.8168 7.51398 75.9986 7.51398C76.0668 7.51398 76.1351 7.49693 76.1862 7.45146C76.2317 7.40599 76.2544 7.33778 76.2544 7.26958C76.2601 7.17864 76.1919 7.09906 76.1237 7.07064C76.0555 7.04222 75.9702 7.02517 75.885 7.00812C75.7088 6.97402 75.5894 6.92286 75.5155 6.86034C75.4416 6.79782 75.4132 6.72961 75.4075 6.6273C75.4075 6.56478 75.4246 6.48521 75.4644 6.3829L75.6747 5.77473C75.7372 5.6099 75.7883 5.54738 75.8509 5.51896C75.9191 5.48486 76.0327 5.47917 76.2033 5.48486H77.3002C77.4594 5.48486 77.5446 5.49054 77.5958 5.52464C77.6526 5.55306 77.7038 5.62127 77.7663 5.78041L77.988 6.31469C78.0391 6.43405 78.0562 6.55341 78.0562 6.63867C78.0562 6.74098 78.0278 6.80919 77.988 6.86034C77.9255 6.93423 77.8232 6.9797 77.7208 7.02517C77.6697 7.04791 77.6242 7.07064 77.5787 7.10474C77.5333 7.13885 77.4992 7.19569 77.4992 7.26389C77.4992 7.32641 77.5162 7.38325 77.5503 7.42872C77.5844 7.47419 77.6356 7.5083 77.6981 7.5083C77.7549 7.5083 77.8459 7.48556 78.0107 7.46851C78.1699 7.45146 78.3972 7.42872 78.6871 7.42872C79.1986 7.42872 79.5624 7.49693 79.7784 7.50261C79.8352 7.50261 79.8921 7.50261 79.9432 7.45714C79.9944 7.40599 79.9944 7.34347 80 7.27526C80 7.22979 79.9944 7.18432 79.9773 7.14453M72.702 6.35448C72.3553 6.74666 71.8608 6.96265 71.264 6.96265C70.8718 6.96265 70.69 6.87739 70.5933 6.71825C70.491 6.5591 70.4683 6.28628 70.4683 5.89978V2.85325C70.4683 2.56906 70.4967 2.40422 70.5706 2.32465C70.6502 2.23939 70.8093 2.18824 71.139 2.19392C72.4122 2.19392 73.259 3.21133 73.259 4.65502C73.259 5.38255 73.0544 5.9623 72.702 6.35448ZM73.5717 2.36444C73.0317 1.90973 72.2416 1.66533 71.2242 1.66533C70.7752 1.66533 70.2409 1.7449 69.61 1.7449C69.2122 1.7449 68.9564 1.69943 68.8086 1.69375C68.7234 1.69375 68.6552 1.7108 68.5983 1.75627C68.5415 1.79606 68.5074 1.86994 68.5074 1.94383C68.5074 2.01772 68.5358 2.08025 68.5869 2.12003C68.6608 2.17119 68.7404 2.17687 68.8257 2.19392C68.9109 2.20529 69.0019 2.22234 69.0814 2.26781C69.2179 2.34739 69.2861 2.42696 69.3258 2.53495C69.3656 2.64863 69.377 2.80209 69.377 3.01239V6.30901C69.377 6.47952 69.36 6.61025 69.3202 6.70688C69.2804 6.80919 69.2179 6.87739 69.1155 6.93423C69.036 6.98538 68.945 7.0138 68.8711 7.05927C68.7972 7.09906 68.7177 7.18432 68.7177 7.298C68.7177 7.44009 68.8427 7.53103 68.9678 7.53672C68.9962 7.53672 69.0189 7.52535 69.0758 7.51966C69.2349 7.49124 69.5816 7.44009 70.1898 7.44009C70.5422 7.44009 70.8718 7.48556 71.1958 7.48556C72.1393 7.48556 72.9408 7.13316 73.5035 6.56478C74.0662 5.99072 74.3958 5.19498 74.3958 4.31399C74.3958 3.48983 74.1173 2.81346 73.5773 2.35875M65.9951 4.91647C65.9667 4.92216 65.9212 4.92784 65.8587 4.92784H64.9664C64.8413 4.92784 64.7617 4.92216 64.722 4.91079C64.7049 4.90511 64.6935 4.89942 64.6935 4.89942C64.6935 4.89942 64.6935 4.89942 64.6935 4.88805C64.6935 4.87669 64.7049 4.80848 64.739 4.71754L65.3188 3.30795C65.3301 3.27385 65.3472 3.2568 65.3585 3.24543C65.3699 3.2568 65.3926 3.2909 65.4097 3.34205L65.961 4.6948C65.9894 4.75733 66.0065 4.81417 66.0122 4.84827C66.0122 4.86532 66.0179 4.88237 66.0236 4.89374C66.0236 4.89374 66.0065 4.91079 65.9838 4.91647M68.4562 7.03086C68.4051 7.0138 68.3482 6.99675 68.2687 6.97402C68.047 6.89444 67.956 6.76372 67.8481 6.50794L65.8644 1.73922C65.8189 1.64259 65.7564 1.55165 65.6484 1.54597C65.5973 1.54597 65.5461 1.56302 65.512 1.59712C65.4779 1.63122 65.4665 1.66533 65.4495 1.70511L63.4943 6.2408C63.3408 6.60457 63.2271 6.82624 63.0396 6.95128C62.9713 6.99675 62.9031 7.0138 62.8236 7.04791C62.7895 7.06496 62.7497 7.08769 62.7213 7.12748C62.6928 7.16727 62.6758 7.21842 62.6758 7.27526C62.6758 7.34347 62.6985 7.40599 62.744 7.45146C62.7951 7.49693 62.8577 7.51398 62.9202 7.51398C62.9827 7.51398 63.0509 7.49124 63.1589 7.47419C63.2669 7.45714 63.4147 7.44009 63.5909 7.44009C64.0854 7.44009 64.4093 7.51966 64.5912 7.51966C64.6594 7.51966 64.7276 7.50261 64.7731 7.45714C64.8186 7.41167 64.8413 7.34347 64.8413 7.27526C64.8413 7.18432 64.7788 7.10475 64.7106 7.07633C64.6424 7.04791 64.5628 7.03086 64.4719 7.0138C64.3014 6.9797 64.1763 6.92855 64.1024 6.86602C64.0285 6.8035 64.0001 6.7353 63.9944 6.63299C63.9944 6.57047 64.0172 6.49089 64.0513 6.38858L64.2616 5.78041C64.3241 5.61558 64.3752 5.55306 64.4378 5.52464C64.506 5.49054 64.6196 5.48486 64.7958 5.48486H65.8928C66.0463 5.48486 66.1372 5.49054 66.1941 5.52464C66.2452 5.55306 66.2964 5.62127 66.3589 5.78041L66.5749 6.31469C66.626 6.43405 66.6431 6.55341 66.6431 6.63867C66.6431 6.74098 66.6147 6.80919 66.5749 6.86034C66.518 6.93423 66.41 6.9797 66.3077 7.02517C66.2566 7.04791 66.2054 7.07064 66.1656 7.10474C66.1202 7.13885 66.0804 7.19569 66.0861 7.26389C66.0861 7.32641 66.1031 7.38325 66.1372 7.42872C66.1713 7.47419 66.2225 7.5083 66.285 7.5083C66.3418 7.5083 66.4328 7.48556 66.5976 7.46851C66.7624 7.45146 66.9841 7.42872 67.274 7.42872C67.7912 7.42872 68.1493 7.49693 68.371 7.49693C68.4278 7.49693 68.479 7.49693 68.5358 7.45146C68.587 7.4003 68.5869 7.33778 68.5869 7.26958C68.5869 7.22411 68.587 7.17863 68.5642 7.13885C68.5358 7.08201 68.479 7.04791 68.4335 7.02517M61.2094 4.44472C61.1184 4.44472 61.0559 4.43335 60.9991 4.42766C60.9422 4.4163 60.9081 4.40493 60.8683 4.40493C60.7547 4.40493 60.6751 4.49587 60.6751 4.5925C60.6751 4.6607 60.7035 4.72322 60.749 4.77438C60.8911 4.91647 61.1696 4.979 61.5561 4.98468C62.0335 4.98468 62.4598 4.80848 62.761 4.50724C63.0623 4.206 63.2442 3.77971 63.2442 3.29658C63.2442 2.81346 63.0737 2.40422 62.744 2.11435C62.4143 1.82447 61.9312 1.65964 61.323 1.65964C60.9763 1.65964 60.5103 1.73922 59.8907 1.73922C59.3849 1.73922 59.0666 1.6767 58.9302 1.6767C58.8563 1.6767 58.7881 1.69375 58.7369 1.73922C58.6857 1.78469 58.663 1.85289 58.6687 1.9211C58.6687 2.00636 58.7085 2.08025 58.7653 2.11435C58.8506 2.1655 58.9472 2.1655 59.0438 2.18824C59.1405 2.21097 59.2314 2.23939 59.3167 2.31897C59.3962 2.39854 59.436 2.48948 59.4644 2.61453C59.4872 2.73957 59.4928 2.89303 59.4928 3.08628V6.22375C59.4928 6.58183 59.4076 6.78077 59.22 6.90581C59.1348 6.96265 59.0438 6.99107 58.9699 7.03654C58.896 7.07633 58.8222 7.16727 58.8278 7.28094C58.8278 7.34347 58.8506 7.40599 58.9017 7.44577C58.9529 7.48556 59.0154 7.50261 59.0893 7.50261C59.2825 7.50261 59.6406 7.42872 60.1522 7.42872C60.6637 7.42872 60.9479 7.49693 61.1014 7.50261C61.1753 7.50261 61.2435 7.49125 61.3003 7.44577C61.3515 7.4003 61.3742 7.32641 61.3742 7.25252C61.3742 7.18432 61.3515 7.1218 61.3117 7.08201C61.2491 7.01949 61.1753 7.00244 61.1014 6.99107C61.0275 6.97402 60.9593 6.95697 60.8911 6.92855C60.7831 6.87171 60.7092 6.79213 60.6637 6.67277C60.6126 6.55341 60.5898 6.39995 60.5898 6.19533V3.03513C60.5898 2.70547 60.5898 2.47243 60.6523 2.3417C60.6808 2.2735 60.7092 2.23939 60.7603 2.20529C60.8172 2.17687 60.8911 2.15982 61.0104 2.15982C61.3571 2.15982 61.63 2.29055 61.8232 2.51222C62.0108 2.73389 62.1245 3.05786 62.1245 3.45005C62.1245 3.79676 62.0449 4.04117 61.8971 4.20031C61.7493 4.35946 61.5277 4.44472 61.215 4.44472M56.1906 4.91079C56.1906 4.91079 56.1167 4.92216 56.0541 4.92216H55.1618C55.0367 4.92216 54.9572 4.91647 54.9174 4.90511C54.8946 4.89942 54.889 4.89374 54.889 4.89374C54.889 4.89374 54.889 4.89374 54.889 4.88237C54.889 4.871 54.9003 4.8028 54.9344 4.71186L55.5199 3.30227C55.5312 3.26817 55.5483 3.25111 55.5597 3.23975C55.571 3.25111 55.5938 3.28522 55.6108 3.33637L56.1621 4.68912C56.1906 4.75164 56.2019 4.80848 56.2133 4.84258C56.219 4.85964 56.219 4.87669 56.2247 4.88805C56.2247 4.88805 56.2247 4.88805 56.2247 4.89374C56.219 4.89374 56.2076 4.90511 56.1849 4.91079M58.663 7.02517C58.6119 7.00812 58.555 6.99107 58.4811 6.96833C58.2538 6.88876 58.1685 6.75803 58.0605 6.50226L56.0826 1.73353C56.0371 1.63691 55.9746 1.54597 55.8666 1.54028C55.8154 1.54028 55.7643 1.55733 55.7359 1.59144C55.7017 1.62554 55.6904 1.65964 55.6733 1.69943L53.7181 6.23512C53.5646 6.59889 53.451 6.82055 53.2634 6.9456C53.1952 6.99107 53.127 7.00812 53.0531 7.04222C53.019 7.05928 52.9792 7.08201 52.9508 7.1218C52.9167 7.16158 52.9053 7.21274 52.9053 7.26958C52.9053 7.33778 52.928 7.4003 52.9735 7.44577C53.0247 7.49125 53.0872 7.5083 53.1497 7.5083C53.2122 7.5083 53.2804 7.48556 53.3941 7.46851C53.5021 7.45146 53.6442 7.43441 53.8261 7.43441C54.3206 7.43441 54.6502 7.51398 54.8321 7.51398C54.9003 7.51398 54.9628 7.49693 55.014 7.45146C55.0595 7.40599 55.0822 7.33778 55.0822 7.26958C55.0822 7.17864 55.0197 7.09906 54.9515 7.07064C54.8833 7.04222 54.8037 7.02517 54.7128 7.00812C54.5366 6.97402 54.4172 6.92286 54.3433 6.86034C54.2694 6.79782 54.2353 6.72961 54.2353 6.6273C54.2353 6.56478 54.2524 6.48521 54.2922 6.3829L54.5025 5.77473C54.565 5.6099 54.6161 5.54738 54.6787 5.51896C54.7469 5.48486 54.8605 5.47917 55.0311 5.48486H56.0428C56.0769 5.48486 56.1053 5.48486 56.128 5.48486C56.2815 5.48486 56.3724 5.49054 56.4236 5.52464C56.4747 5.55306 56.5259 5.62127 56.5941 5.78041L56.8101 6.31469C56.8612 6.43405 56.8783 6.55341 56.8783 6.63867C56.8783 6.74098 56.8499 6.80919 56.8101 6.86034C56.7476 6.93423 56.6453 6.9797 56.5429 7.02517C56.4918 7.04791 56.4463 7.07064 56.4009 7.10474C56.3554 7.13885 56.3213 7.19569 56.3213 7.26389C56.3213 7.32641 56.3383 7.38325 56.3724 7.42872C56.4065 7.47419 56.4577 7.5083 56.5202 7.5083C56.5771 7.5083 56.668 7.48556 56.8328 7.46851C56.992 7.45146 57.2193 7.42872 57.5092 7.42872C58.0207 7.42872 58.3845 7.49693 58.6005 7.49693C58.6573 7.49693 58.7142 7.49693 58.7653 7.45146C58.8165 7.4003 58.8165 7.33778 58.8165 7.26958C58.8165 7.22411 58.8108 7.17863 58.7937 7.13885C58.7653 7.08201 58.7142 7.04791 58.663 7.02517ZM52.8201 2.62589C52.9678 2.34739 53.1383 2.18256 53.2463 2.14277C53.2918 2.12003 53.3543 2.11435 53.4169 2.08593C53.4794 2.05751 53.5419 1.97794 53.5362 1.87563C53.5362 1.81311 53.5135 1.73922 53.4623 1.70511C53.4055 1.66533 53.3486 1.65964 53.2748 1.65964C53.0929 1.65964 52.8655 1.71648 52.6041 1.71648C52.1437 1.71648 51.8879 1.67101 51.7856 1.67101C51.7174 1.67101 51.6492 1.68238 51.6037 1.72217C51.5526 1.76195 51.5298 1.83016 51.5298 1.89268C51.5298 1.94952 51.5412 2.00636 51.5753 2.04614C51.6321 2.10298 51.7003 2.11435 51.7685 2.12003C51.8368 2.1314 51.9106 2.13708 51.9959 2.15982C52.1948 2.22234 52.2744 2.32465 52.2801 2.48948C52.2801 2.61453 52.2119 2.7282 52.1323 2.88735L51.3934 4.28557C51.3934 4.28557 51.3707 4.33104 51.3593 4.33672C51.3536 4.33104 51.3479 4.31967 51.3423 4.3083L50.4726 2.60316C50.3988 2.46675 50.3703 2.36444 50.3703 2.31328C50.3703 2.25076 50.3874 2.22234 50.4158 2.19392C50.4556 2.15414 50.5352 2.1314 50.6204 2.0973C50.6602 2.08025 50.7057 2.0632 50.7398 2.02909C50.7796 1.99499 50.808 1.93815 50.808 1.87563C50.808 1.80742 50.7852 1.73353 50.7284 1.69375C50.6716 1.65964 50.6147 1.65964 50.5465 1.65964C50.4385 1.65964 50.1714 1.71648 49.6599 1.71648C49.3643 1.71648 49.1369 1.70511 48.9778 1.68806C48.813 1.67101 48.722 1.65964 48.6766 1.65964C48.6027 1.65964 48.5401 1.67101 48.4833 1.70511C48.4265 1.73922 48.3867 1.81311 48.3924 1.88131C48.3924 1.94383 48.4094 2.00636 48.4549 2.04046C48.5117 2.0973 48.5856 2.10867 48.6538 2.12572C48.722 2.14277 48.7902 2.14845 48.8471 2.17687C48.9607 2.22234 49.154 2.42696 49.2961 2.71683L50.4215 4.85964C50.4783 4.96194 50.5181 5.01878 50.5238 5.21203V6.12144C50.5238 6.3488 50.5181 6.51363 50.4783 6.6273C50.4442 6.74098 50.3817 6.81487 50.251 6.88876C50.1373 6.95697 50.0066 6.97402 49.8872 7.00244C49.8304 7.01949 49.7735 7.03086 49.7224 7.07064C49.6712 7.11043 49.6371 7.17863 49.6371 7.25252C49.6371 7.32073 49.6712 7.38894 49.7224 7.43441C49.7792 7.47988 49.8474 7.49693 49.9327 7.49693C50.1998 7.49693 50.6204 7.41736 51.1717 7.41736C51.689 7.41736 52.0527 7.48556 52.2687 7.49124C52.3426 7.49124 52.4108 7.47419 52.4677 7.42872C52.5188 7.38325 52.5415 7.30936 52.5415 7.24116C52.5415 7.15022 52.4961 7.07633 52.4392 7.03654C52.3483 6.97402 52.2403 6.96833 52.1323 6.95128C52.0243 6.93423 51.9163 6.91149 51.8481 6.86602C51.7458 6.79213 51.6947 6.71256 51.6606 6.58183C51.6321 6.45111 51.6265 6.27491 51.6265 6.03619V5.03015C51.6265 4.93921 51.6265 4.87669 51.706 4.74028L52.8314 2.61453L52.8201 2.62589ZM46.6645 4.91079C46.6645 4.91079 46.5906 4.92216 46.5338 4.92216H45.6414C45.5164 4.92216 45.4368 4.91647 45.3913 4.90511C45.3743 4.90511 45.3686 4.89374 45.3686 4.89374C45.3686 4.89374 45.3686 4.89374 45.3686 4.88237C45.3686 4.871 45.3799 4.8028 45.4197 4.71186L45.9995 3.30227C46.0108 3.26817 46.0279 3.25111 46.0393 3.23975C46.0506 3.25111 46.0734 3.28522 46.0904 3.33637L46.6418 4.68912C46.6645 4.75164 46.6815 4.80848 46.6929 4.84258C46.6986 4.85964 46.6986 4.87669 46.7043 4.88805C46.7043 4.88805 46.7043 4.88805 46.7043 4.89374C46.7043 4.89374 46.6872 4.90511 46.6645 4.91079ZM49.1369 7.02517C49.0858 7.00812 49.0289 6.99107 48.9551 6.96833C48.7277 6.88876 48.6424 6.75803 48.5345 6.50226L46.5565 1.73353C46.511 1.63691 46.4485 1.54597 46.3405 1.54028C46.2894 1.54028 46.2382 1.55733 46.2041 1.59144C46.17 1.62554 46.1586 1.65964 46.1473 1.69943L44.192 6.23512C44.0329 6.59889 43.9249 6.82055 43.7373 6.9456C43.6691 6.99107 43.5952 7.00812 43.527 7.04222C43.4872 7.05928 43.4531 7.08201 43.4247 7.1218C43.3963 7.16158 43.3792 7.21274 43.3792 7.26958C43.3792 7.33778 43.402 7.4003 43.4474 7.44577C43.4929 7.49125 43.5554 7.5083 43.6236 7.5083C43.6862 7.5083 43.7544 7.48556 43.868 7.46851C43.976 7.45146 44.1181 7.43441 44.3 7.43441C44.7945 7.43441 45.1242 7.51398 45.3061 7.51398C45.3743 7.51398 45.4368 7.49693 45.4879 7.45146C45.5391 7.40599 45.5618 7.33778 45.5561 7.26958C45.5618 7.17864 45.4936 7.09906 45.4254 7.07064C45.3572 7.04222 45.2776 7.02517 45.1867 7.00812C45.0162 6.97402 44.8911 6.92286 44.8172 6.86034C44.7434 6.79782 44.7149 6.72961 44.7093 6.6273C44.7093 6.56478 44.7263 6.48521 44.7661 6.3829L44.9764 5.77473C45.0389 5.6099 45.0901 5.54738 45.1526 5.51896C45.2208 5.48486 45.3345 5.47917 45.5107 5.47917H46.6076C46.7611 5.47917 46.8521 5.48486 46.9032 5.51896C46.9544 5.54738 47.0055 5.61558 47.068 5.77473L47.2897 6.30901C47.3409 6.42837 47.3636 6.54773 47.3579 6.63299C47.3579 6.7353 47.3295 6.8035 47.2897 6.85466C47.2272 6.92855 47.1249 6.97402 47.0226 7.01949C46.9714 7.04222 46.9203 7.06496 46.8805 7.09906C46.8407 7.13316 46.8009 7.19 46.8009 7.25821C46.8009 7.32073 46.8179 7.37757 46.8521 7.42304C46.8862 7.46851 46.9373 7.50261 46.9998 7.50261C47.0567 7.50261 47.1476 7.47988 47.3124 7.46283C47.4773 7.44578 47.6989 7.42304 47.9888 7.42304C48.5004 7.42304 48.8641 7.49124 49.0801 7.49124C49.1369 7.49124 49.1881 7.49125 49.2449 7.44577C49.2961 7.39462 49.2961 7.3321 49.2961 7.26389C49.2961 7.21842 49.2961 7.17295 49.2734 7.13316C49.2449 7.07633 49.1938 7.04222 49.1426 7.01949M43.1178 7.00244C43.0553 6.98538 42.9814 6.96265 42.8904 6.90013C42.7881 6.81487 42.7256 6.72393 42.6915 6.59889C42.6517 6.47384 42.6403 6.31469 42.6347 6.11008L42.5494 2.9044V2.83619C42.5494 2.66 42.5665 2.52358 42.6006 2.42696C42.6347 2.33033 42.6801 2.26781 42.7597 2.22234C42.9132 2.13708 43.0098 2.12572 43.0837 2.10867C43.1235 2.10298 43.1576 2.0973 43.203 2.05751C43.2428 2.01772 43.2485 1.96657 43.2485 1.90973C43.2485 1.83584 43.2428 1.77332 43.1917 1.72217C43.1405 1.67101 43.078 1.66533 43.0155 1.66533C42.862 1.66533 42.6744 1.72217 42.4187 1.72217C42.2538 1.72217 42.1515 1.69375 42.0606 1.68806C41.9981 1.68806 41.9412 1.69943 41.8901 1.72785C41.8389 1.75627 41.8105 1.80742 41.7821 1.85858L39.9064 5.76336C39.9064 5.76336 39.8837 5.80315 39.878 5.80883H39.8723C39.8723 5.80883 39.8666 5.80883 39.861 5.79747C39.8553 5.7861 39.8439 5.76905 39.8325 5.74631L38.116 1.94383C38.0762 1.85289 38.0478 1.79037 37.9967 1.7449C37.9455 1.69375 37.883 1.6767 37.8148 1.6767C37.7636 1.6767 37.6045 1.69943 37.3203 1.69943C37.1214 1.69943 36.9736 1.68806 36.8713 1.68238C36.7633 1.67101 36.7121 1.66533 36.678 1.65964C36.6155 1.65964 36.5587 1.67101 36.5075 1.71648C36.462 1.76195 36.4507 1.82447 36.4507 1.88131C36.4507 1.94952 36.4734 2.01204 36.5189 2.05183C36.5814 2.10298 36.6439 2.11435 36.7121 2.1314C36.7803 2.15414 36.8485 2.17687 36.9281 2.24508C37.1782 2.46106 37.2294 2.83619 37.2294 3.37047C37.2294 3.5353 37.2237 3.66035 37.2237 3.75129L37.1384 5.78041C37.1157 6.37722 37.0418 6.7353 36.9281 6.83761C36.8599 6.90581 36.7462 6.95128 36.6439 6.99107C36.5928 7.0138 36.5416 7.03654 36.5018 7.07064C36.4564 7.10475 36.4223 7.16158 36.4223 7.22979C36.4223 7.298 36.445 7.35483 36.4734 7.4003C36.5018 7.44577 36.5473 7.48556 36.6155 7.48556C36.7633 7.48556 37.0304 7.42304 37.4283 7.42304C37.7693 7.42304 38.0194 7.47988 38.1956 7.47988C38.2638 7.47988 38.3207 7.47988 38.3775 7.44009C38.4343 7.4003 38.4627 7.32641 38.4571 7.25821C38.4571 7.19 38.44 7.12748 38.4002 7.08769C38.3377 7.01949 38.2638 7.0138 38.1956 7.00244C38.1274 6.99107 38.0535 6.9797 37.991 6.9456C37.8546 6.87171 37.7807 6.78077 37.7352 6.65004C37.6841 6.51931 37.6727 6.34311 37.6727 6.12144V5.78041L37.7409 3.79676C37.7409 3.76834 37.7409 3.73992 37.7523 3.7115C37.7579 3.72855 37.7693 3.75129 37.775 3.76834L39.2869 7.20705C39.3153 7.26389 39.3267 7.31505 39.3608 7.36052C39.3949 7.41167 39.4574 7.44577 39.5256 7.44577C39.5995 7.44577 39.6563 7.41167 39.6961 7.3662C39.7302 7.32073 39.753 7.26958 39.7757 7.21842L41.4126 3.80813C41.4354 3.76266 41.4581 3.72287 41.4808 3.69445C41.4808 3.7115 41.4865 3.73992 41.4865 3.76266L41.5888 6.24649V6.41132C41.5888 6.55341 41.5775 6.66141 41.5434 6.74098C41.515 6.82055 41.4638 6.88308 41.3785 6.9456C41.3103 6.99107 41.2421 7.00812 41.1739 7.04222C41.1398 7.05928 41.1057 7.08201 41.0773 7.11611C41.0489 7.15022 41.0318 7.20137 41.0318 7.25252C41.0318 7.32641 41.0546 7.39462 41.1057 7.44009C41.1569 7.48556 41.2251 7.49693 41.2933 7.49693C41.4524 7.49693 41.7309 7.42304 42.1913 7.42304C42.6517 7.42304 42.9359 7.48556 43.095 7.48556C43.1803 7.48556 43.2428 7.47988 43.3054 7.42872C43.3622 7.37757 43.3736 7.30368 43.3736 7.22411C43.3736 7.16158 43.3565 7.10474 43.3167 7.06496C43.2485 7.0138 43.186 7.01949 43.1235 7.00244M34.3306 7.00244C34.2738 6.98538 34.1999 6.96265 34.1089 6.89444C33.9725 6.79782 33.7906 6.59889 33.586 6.30333L32.131 4.27989C32.0457 4.17189 32.023 4.09232 32.023 4.0639C32.023 4.0639 32.0741 3.97296 32.1651 3.87633L32.9949 3.06355C33.5235 2.54632 33.9043 2.28486 34.0123 2.22803C34.1317 2.1655 34.2283 2.14845 34.3136 2.11435C34.359 2.0973 34.3988 2.08025 34.4329 2.04046C34.4727 2.00067 34.4841 1.94383 34.4841 1.88131C34.4841 1.81311 34.4557 1.7449 34.4045 1.70511C34.3477 1.66533 34.2908 1.65964 34.2226 1.65964C34.0407 1.65964 33.802 1.71648 33.461 1.71648C33.137 1.71648 32.8642 1.67101 32.6198 1.66533C32.5573 1.66533 32.5004 1.67101 32.455 1.70511C32.4038 1.73922 32.3867 1.80174 32.3924 1.85858C32.3924 1.91542 32.3924 1.96089 32.4208 2.00067C32.4493 2.06888 32.5175 2.0973 32.5629 2.10298C32.6141 2.11435 32.6653 2.11435 32.7221 2.12572C32.813 2.14845 32.8415 2.18824 32.8471 2.25644C32.8471 2.2735 32.8358 2.33033 32.7903 2.40422C32.6653 2.63158 32.3413 3.02944 31.8127 3.54099L30.926 4.40493C30.926 4.40493 30.8805 4.44472 30.8635 4.4504C30.8521 4.4504 30.8464 4.45608 30.8407 4.45608C30.8407 4.43335 30.8294 4.38219 30.8351 4.3083V2.9044C30.8351 2.73957 30.8351 2.60884 30.8578 2.50653C30.8805 2.40422 30.9203 2.32465 31.0113 2.24508C31.0965 2.1655 31.1875 2.13708 31.2784 2.10298C31.3239 2.08593 31.3693 2.0632 31.4091 2.02909C31.4489 1.98931 31.4717 1.93247 31.4717 1.86426C31.4717 1.79606 31.4546 1.73922 31.4091 1.69943C31.3637 1.65396 31.3068 1.63691 31.2443 1.63691C31.1249 1.63691 30.7669 1.7108 30.1416 1.7108C29.6244 1.7108 29.2948 1.64828 29.1299 1.64828C29.0503 1.64828 28.9821 1.67101 28.931 1.71648C28.8798 1.76195 28.8514 1.83016 28.8514 1.89836C28.8514 1.98362 28.8912 2.06319 28.9594 2.09161C29.0503 2.14277 29.1527 2.14277 29.255 2.15982C29.363 2.17687 29.4653 2.21097 29.5505 2.29623C29.6415 2.38149 29.6812 2.46675 29.7097 2.59179C29.7324 2.71115 29.7381 2.86461 29.7381 3.06355V6.02482C29.7381 6.22375 29.7324 6.3829 29.7097 6.51363C29.6812 6.63867 29.6358 6.7353 29.5562 6.82055C29.4766 6.90013 29.3743 6.93991 29.2777 6.99107C29.2265 7.01949 29.1811 7.04222 29.1413 7.08769C29.1015 7.13316 29.0731 7.19569 29.0788 7.26958C29.0788 7.3321 29.1015 7.39462 29.1527 7.43441C29.2038 7.47419 29.2663 7.49124 29.3402 7.49124C29.5505 7.49124 29.9029 7.41736 30.4031 7.41736C30.8407 7.41736 31.1534 7.48556 31.3523 7.49124C31.4205 7.49124 31.483 7.47988 31.5342 7.43441C31.5853 7.38325 31.5967 7.31505 31.5967 7.24116C31.5967 7.16727 31.574 7.10474 31.5228 7.06496C31.4546 7.00812 31.375 6.99675 31.2955 6.97402C31.2159 6.95128 31.142 6.93423 31.0738 6.88308C30.9601 6.79782 30.909 6.70119 30.8749 6.55341C30.8408 6.40564 30.8351 6.21239 30.8407 5.97366V5.41097C30.8407 5.33139 30.8407 5.26319 30.8521 5.21203C30.8635 5.16088 30.8805 5.13246 30.9146 5.10404L31.1647 4.88237C31.1931 4.85395 31.2216 4.83122 31.2386 4.81985C31.25 4.83122 31.2614 4.85395 31.2784 4.87669L32.8869 7.18432C33.0063 7.35483 33.1313 7.45714 33.2734 7.45714C33.3985 7.45714 33.5406 7.41736 33.6997 7.41736C33.8759 7.41736 34.0748 7.46283 34.2965 7.46283C34.3704 7.46283 34.4329 7.45146 34.4898 7.4003C34.5409 7.34915 34.558 7.27526 34.558 7.20137C34.558 7.15022 34.5409 7.09338 34.5011 7.05927C34.4443 7.0138 34.3931 7.0138 34.3306 6.99675M20.0188 4.89374C20.0188 4.89374 19.9449 4.90511 19.888 4.90511H18.9957C18.8763 4.90511 18.7911 4.89942 18.7513 4.88805C18.7342 4.88237 18.7285 4.87669 18.7285 4.87669C18.7285 4.87669 18.7285 4.87669 18.7285 4.86532C18.7285 4.85395 18.7399 4.78575 18.7797 4.6948L19.3594 3.28522C19.3708 3.25111 19.3879 3.23406 19.3992 3.22269C19.4106 3.23406 19.4333 3.26817 19.4504 3.31932L20.0017 4.67207C20.0245 4.73459 20.0415 4.79143 20.0529 4.82553C20.0586 4.84258 20.0642 4.85964 20.0642 4.871C20.0642 4.871 20.0642 4.871 20.0642 4.87669C20.0642 4.87669 20.0472 4.88805 20.0245 4.89374M28.5445 1.69943C28.4933 1.65964 28.4365 1.65396 28.374 1.65396C28.1523 1.65396 27.8226 1.71648 27.4134 1.71648C27.1122 1.71648 26.8621 1.65964 26.6575 1.65964C26.5893 1.65964 26.5267 1.67101 26.4813 1.7108C26.4301 1.75058 26.4131 1.81879 26.4131 1.88131C26.4131 1.9552 26.4472 2.02909 26.504 2.06319C26.5836 2.10867 26.6688 2.11435 26.7768 2.14277C26.8848 2.1655 27.0042 2.19961 27.1292 2.29055C27.2429 2.37012 27.3054 2.47243 27.3509 2.62589C27.3907 2.77936 27.3964 2.97829 27.3964 3.22269V5.26319C27.3964 5.38823 27.385 5.47917 27.3736 5.53033C27.3736 5.54738 27.3623 5.55875 27.3623 5.57011C27.3509 5.57011 27.3225 5.54738 27.2827 5.51896C27.2372 5.47917 27.1804 5.42233 27.1122 5.33708L24.4408 2.03478C24.3328 1.90973 24.2703 1.81879 24.1907 1.76195C24.1111 1.69943 24.0202 1.67101 23.9008 1.6767C23.6791 1.6767 23.4575 1.71648 23.2301 1.71648C23.071 1.71648 22.9175 1.6767 22.7641 1.6767C22.7072 1.6767 22.6447 1.68238 22.5935 1.73353C22.5424 1.78469 22.531 1.85289 22.531 1.92678C22.531 2.00636 22.5594 2.08593 22.622 2.12003C22.7072 2.1655 22.7868 2.15982 22.8777 2.17687C22.9687 2.19392 23.0596 2.22803 23.1619 2.33602C23.3097 2.4838 23.3779 2.77936 23.3722 3.26248V5.26887C23.3722 5.71789 23.3495 6.07597 23.3097 6.34311C23.2699 6.61025 23.2131 6.78077 23.1562 6.84329C23.088 6.93991 22.98 6.97402 22.872 7.00812C22.8209 7.02517 22.7697 7.04222 22.7243 7.07064C22.6845 7.09338 22.6447 7.15022 22.639 7.20705C22.639 7.18432 22.6276 7.16158 22.6163 7.13885C22.5879 7.08201 22.531 7.04791 22.4855 7.02517C22.4344 7.00812 22.3776 6.99107 22.298 6.96833C22.0763 6.88876 21.9911 6.75803 21.8831 6.50226L19.8994 1.73353C19.8539 1.63691 19.7914 1.54597 19.6834 1.54028C19.6323 1.54028 19.5811 1.55733 19.547 1.59144C19.5129 1.62554 19.5072 1.65964 19.4845 1.69943L17.5293 6.23512C17.3758 6.59889 17.2621 6.82055 17.0746 6.9456C17.0063 6.99107 16.9381 7.00812 16.8643 7.04222C16.8302 7.05928 16.7904 7.08201 16.7619 7.1218C16.7335 7.16158 16.7165 7.21274 16.7165 7.26958C16.7165 7.33778 16.7392 7.4003 16.7847 7.44577C16.8302 7.49125 16.8927 7.5083 16.9609 7.5083C17.0234 7.5083 17.0916 7.48556 17.2053 7.46851C17.3133 7.45146 17.4554 7.43441 17.6373 7.43441C18.1317 7.43441 18.4557 7.51398 18.6376 7.51398C18.7058 7.51398 18.774 7.49693 18.8195 7.45146C18.8706 7.40599 18.8877 7.33778 18.8877 7.26958C18.8877 7.17864 18.8252 7.09906 18.757 7.07064C18.6888 7.04222 18.6092 7.02517 18.5126 7.00812C18.342 6.97402 18.217 6.92286 18.1431 6.86034C18.0692 6.79782 18.0351 6.72961 18.0351 6.6273C18.0351 6.56478 18.0522 6.48521 18.092 6.3829L18.3023 5.77473C18.3591 5.6099 18.4159 5.54738 18.4785 5.51896C18.5467 5.48486 18.6603 5.47917 18.8309 5.48486H19.9278C20.0813 5.48486 20.1722 5.49054 20.2291 5.52464C20.2802 5.55306 20.3314 5.62127 20.3939 5.78041L20.6099 6.31469C20.661 6.43405 20.6838 6.55341 20.6838 6.63867C20.6838 6.74098 20.6554 6.80919 20.6156 6.86034C20.553 6.93423 20.4507 6.9797 20.3484 7.02517C20.2973 7.04791 20.2518 7.07064 20.2063 7.10474C20.1609 7.13885 20.1268 7.19569 20.1268 7.26389C20.1268 7.32641 20.1438 7.38325 20.1779 7.42872C20.212 7.47419 20.2632 7.5083 20.3257 7.5083C20.3825 7.5083 20.4735 7.48556 20.6383 7.46851C20.8031 7.45146 21.0248 7.42872 21.3147 7.42872C21.8319 7.42872 22.1957 7.49693 22.4117 7.49693C22.4685 7.49693 22.5196 7.49693 22.5765 7.45146C22.6163 7.40599 22.6276 7.35483 22.6276 7.298C22.6276 7.34347 22.6504 7.38894 22.6731 7.42304C22.7129 7.47419 22.7754 7.5083 22.8436 7.50261C22.9971 7.50261 23.2756 7.42872 23.7189 7.42872C24.1339 7.42872 24.3896 7.5083 24.5374 7.5083C24.6113 7.5083 24.6738 7.5083 24.7363 7.46851C24.7989 7.42304 24.8159 7.34347 24.8159 7.26389C24.8159 7.17295 24.7648 7.09338 24.7022 7.06496C24.6056 7.0138 24.4976 7.00812 24.3839 6.98539C24.2703 6.96265 24.1736 6.92855 24.0997 6.86034C23.9974 6.74666 23.9349 6.57047 23.9008 6.30333C23.8667 6.04187 23.8667 5.70084 23.8667 5.28024V3.41594C23.8667 3.30795 23.8724 3.22838 23.8894 3.18859C23.8894 3.18291 23.8894 3.17722 23.8951 3.17154C23.9235 3.19428 23.9747 3.23406 24.0145 3.28522L27.2088 7.17295C27.2997 7.28663 27.3736 7.37757 27.4475 7.45146C27.5214 7.51966 27.601 7.5765 27.7033 7.5765C27.7431 7.5765 27.7772 7.55377 27.7999 7.53103C27.8681 7.44577 27.8738 7.33778 27.8738 7.16158L27.9193 3.10902C27.9193 2.87598 27.9306 2.69978 27.9647 2.56337C27.9988 2.42696 28.05 2.33602 28.158 2.25076C28.2432 2.18256 28.3285 2.15982 28.4138 2.12572C28.4535 2.10867 28.4933 2.09161 28.5331 2.05183C28.5672 2.01204 28.59 1.9552 28.59 1.89268C28.59 1.83016 28.5786 1.76195 28.5274 1.72217M15.1762 6.67277C14.9829 6.87171 14.6987 6.99107 14.3122 6.99107C13.9598 6.99107 13.7723 6.93423 13.6756 6.82624C13.5733 6.72393 13.5392 6.53068 13.5392 6.21239V5.13814C13.5392 4.89942 13.5506 4.76869 13.6074 4.72322C13.6472 4.67207 13.7723 4.63797 14.0451 4.63797C14.4998 4.63797 14.8579 4.75733 15.0966 4.95626C15.3353 5.16088 15.466 5.45075 15.466 5.81452C15.466 6.17828 15.3637 6.46247 15.1705 6.66709M13.5335 2.80778C13.5335 2.55769 13.5563 2.38717 13.6188 2.29623C13.6756 2.20529 13.7723 2.15982 13.9882 2.15414C14.6703 2.15414 15.1534 2.59747 15.1534 3.34205C15.1534 3.64898 15.0909 3.84792 14.9715 3.96728C14.8522 4.08664 14.6476 4.14347 14.335 4.14347C13.9769 4.14347 13.7552 4.13211 13.6529 4.08095C13.6017 4.05822 13.579 4.0298 13.5563 3.99569C13.5392 3.95591 13.5279 3.8877 13.5279 3.80244V2.80778H13.5335ZM15.5342 4.22305C15.7161 4.12642 15.8639 4.01275 15.9719 3.87065C16.131 3.66603 16.2049 3.41594 16.2049 3.12039C16.2049 2.68842 16.0287 2.31897 15.7048 2.06319C15.3751 1.80742 14.9033 1.67101 14.2952 1.67101C13.8007 1.67101 13.3346 1.72785 12.914 1.72785C12.59 1.72785 12.3399 1.71648 12.1694 1.69943C11.9932 1.68806 11.8966 1.67101 11.8511 1.67101C11.7772 1.67101 11.7034 1.68806 11.6522 1.73353C11.5954 1.779 11.5726 1.84721 11.5726 1.91542C11.5669 2.00067 11.6124 2.08025 11.6749 2.10867C11.7659 2.15982 11.8682 2.15982 11.9705 2.17687C12.0785 2.19392 12.1808 2.22803 12.2717 2.31328C12.357 2.39854 12.4025 2.4838 12.4252 2.60884C12.4536 2.7282 12.4536 2.88167 12.4536 3.0806V6.21807C12.4536 6.57615 12.3684 6.77508 12.1751 6.90013C12.0898 6.95697 11.9989 6.98538 11.925 7.03086C11.8511 7.07064 11.7772 7.16158 11.7829 7.27526C11.7829 7.33778 11.8057 7.4003 11.8568 7.44009C11.9023 7.47988 11.9705 7.49693 12.0444 7.49693C12.2433 7.49693 12.5787 7.43441 13.0334 7.43441C13.2493 7.43441 13.7154 7.49693 14.4032 7.49693H14.4088C15.0682 7.49693 15.5797 7.42304 16.0174 7.01949C16.3754 6.68983 16.5857 6.19533 16.5857 5.68379C16.5857 4.95626 16.1651 4.37651 15.5286 4.22305" fill="#19335D"/>
<mask id="mask2_801_8026" style="mask-type:luminance" maskUnits="userSpaceOnUse" x="1" y="0" width="10" height="9">
<path d="M4.68945 2.05186C5.28056 2.59182 6.32639 3.78543 5.91147 4.66073C5.68411 5.13818 4.87701 4.4277 4.40526 4.32539C4.71787 4.79715 5.37719 5.64404 6.21839 6.36588C7.05391 7.08773 9.00915 8.66214 9.8333 7.80957C10.7711 6.83764 8.33277 3.54102 6.76404 2.29626C5.26351 1.10266 2.93315 0.0682059 1.79639 0C3.08661 0.62522 4.23474 1.63126 4.70082 2.05754" fill="white"/>
</mask>
<g mask="url(#mask2_801_8026)">
<path d="M6.1499 -4.49051L-2.54395 4.44958L6.40021 13.1474L15.0941 4.20732L6.1499 -4.49051Z" fill="url(#paint2_linear_801_8026)"/>
</g>
<mask id="mask3_801_8026" style="mask-type:luminance" maskUnits="userSpaceOnUse" x="0" y="0" width="9" height="9">
<path d="M0.227706 0.295498C-0.795381 1.21628 1.87601 4.52426 3.34244 5.76334C4.80886 6.99673 7.09375 7.96866 8.23052 8.03118C6.98008 7.51964 5.80353 6.42266 5.36587 5.96795C4.92822 5.51325 3.42201 3.9502 4.01881 3.27382C4.36552 2.88164 5.07032 3.54664 5.54207 3.64895C5.22378 2.91574 4.6895 2.44398 3.84829 1.72214C3.18329 1.14807 1.89306 0.0454102 0.909764 0.0454102C0.653992 0.0454102 0.420956 0.1193 0.222022 0.295498" fill="white"/>
</mask>
<g mask="url(#mask3_801_8026)">
<path d="M3.59663 -4.47067L-4.78418 4.14752L3.84622 12.5402L12.227 3.92204L3.59663 -4.47067Z" fill="url(#paint3_linear_801_8026)"/>
</g>
<path d="M4.02445 3.26816C4.33138 2.88166 5.07596 3.21132 5.42267 3.52393C5.77507 3.83654 6.15588 4.42197 5.97969 4.71753C5.80917 5.01309 5.09301 4.87668 4.65536 4.54133C4.22907 4.20599 3.76868 3.59213 4.02445 3.26816Z" fill="#19335D"/>
</g>
<defs>
<linearGradient id="paint0_linear_801_8026" x1="3.04697" y1="8.81161" x2="11.087" y2="0.543872" gradientUnits="userSpaceOnUse">
<stop stop-color="#EA292C"/>
<stop offset="0.27" stop-color="#EA292C"/>
<stop offset="0.38" stop-color="#EA292C"/>
<stop offset="0.41" stop-color="#EB3E2B"/>
<stop offset="0.46" stop-color="#EF7529"/>
<stop offset="0.54" stop-color="#F5CC26"/>
<stop offset="0.57" stop-color="#F8EC26"/>
<stop offset="1" stop-color="#F8EC26"/>
</linearGradient>
<linearGradient id="paint1_linear_801_8026" x1="-1.54809" y1="7.37076" x2="6.45233" y2="-0.856235" gradientUnits="userSpaceOnUse">
<stop stop-color="#F8EC26"/>
<stop offset="0.45" stop-color="#F8EC26"/>
<stop offset="0.47" stop-color="#F5CC26"/>
<stop offset="0.54" stop-color="#EF7529"/>
<stop offset="0.58" stop-color="#EB3E2B"/>
<stop offset="0.61" stop-color="#EA292C"/>
<stop offset="0.74" stop-color="#EA292C"/>
<stop offset="1" stop-color="#EA292C"/>
</linearGradient>
<linearGradient id="paint2_linear_801_8026" x1="3.04697" y1="8.81161" x2="11.087" y2="0.543872" gradientUnits="userSpaceOnUse">
<stop stop-color="#EA292C"/>
<stop offset="0.27" stop-color="#EA292C"/>
<stop offset="0.38" stop-color="#EA292C"/>
<stop offset="0.41" stop-color="#EB3E2B"/>
<stop offset="0.46" stop-color="#EF7529"/>
<stop offset="0.54" stop-color="#F5CC26"/>
<stop offset="0.57" stop-color="#F8EC26"/>
<stop offset="1" stop-color="#F8EC26"/>
</linearGradient>
<linearGradient id="paint3_linear_801_8026" x1="-1.54809" y1="7.37076" x2="6.45233" y2="-0.856235" gradientUnits="userSpaceOnUse">
<stop stop-color="#F8EC26"/>
<stop offset="0.45" stop-color="#F8EC26"/>
<stop offset="0.47" stop-color="#F5CC26"/>
<stop offset="0.54" stop-color="#EF7529"/>
<stop offset="0.58" stop-color="#EB3E2B"/>
<stop offset="0.61" stop-color="#EA292C"/>
<stop offset="0.74" stop-color="#EA292C"/>
<stop offset="1" stop-color="#EA292C"/>
</linearGradient>
<clipPath id="clip0_801_8026">
<rect width="80" height="8.05618" fill="white"/>
</clipPath>
</defs>
</svg>
