<svg width="80" height="8" viewBox="0 0 80 8" fill="none" xmlns="http://www.w3.org/2000/svg">
<g clip-path="url(#clip0_801_6854)">
<path d="M0 0.85271C0.0146538 0.799678 0.027912 0.745947 0.0446592 0.693612C0.167472 0.308427 0.544283 0.0223296 0.953892 0.0020934C0.987386 0.000697799 1.02088 0 1.05437 0C3.11079 0 5.1672 0 7.22432 0C7.63253 0 7.95072 0.168169 8.16146 0.522651C8.25078 0.672678 8.28148 0.839452 8.28218 1.01181C8.28288 2.94541 8.28427 4.87971 8.28218 6.81331C8.28218 7.38341 7.83838 7.82302 7.26618 7.82302C5.18186 7.82442 3.09753 7.82442 1.0132 7.82302C0.520558 7.82302 0.11723 7.48878 0.0167472 7.00939C0.013956 6.99613 0.00628019 6.98427 0.0013956 6.97101C0.0013956 4.93134 0.0013956 2.89168 0.0013956 0.851315L0 0.85271ZM6.80982 4.49034C6.6598 4.60966 6.52233 4.73736 6.36742 4.83854C6.00386 5.07719 5.60682 5.17697 5.17279 5.08277C4.90623 5.02485 4.67456 4.89576 4.45545 4.73736C4.4087 4.70386 4.32566 4.67316 4.28379 4.6927C4.24332 4.71224 4.22029 4.79737 4.2168 4.85529C4.20773 4.99903 4.21122 5.14417 4.21401 5.28862C4.22099 5.59635 4.25518 5.89989 4.36962 6.18878C4.46312 6.42394 4.60059 6.62909 4.85459 6.70864C5.03113 6.76377 5.21744 6.80912 5.40097 6.81889C5.79313 6.83983 6.18739 6.83424 6.58025 6.84052C6.71632 6.84262 6.85309 6.84959 6.98916 6.85518C7.07848 6.85867 7.15244 6.82866 7.18733 6.74493C7.21315 6.68212 7.2306 6.61234 7.23339 6.54466C7.23967 6.403 7.23339 6.26065 7.23339 6.1183C7.23339 4.86436 7.23129 3.61041 7.23757 2.35647C7.23897 2.04734 7.16151 1.76194 7.03033 1.48841C6.92077 1.26022 6.76935 1.06554 6.52512 0.965056C6.09597 0.787815 5.65148 0.704079 5.18604 0.750134C4.74294 0.794095 4.39823 1.00134 4.13655 1.35931C4.13655 1.35931 4.12818 1.35443 4.12399 1.34815C3.93977 1.05786 3.66833 0.880622 3.34525 0.796886C2.884 0.678261 2.42695 0.736876 1.97826 0.88132C1.78916 0.942029 1.60284 1.01111 1.46608 1.16602C1.2051 1.46189 1.07042 1.81637 1.0474 2.20016C1.02367 2.59442 1.04879 2.99077 1.04809 3.38642C1.0474 4.37799 1.04391 5.37026 1.04251 6.36183C1.04251 6.45604 1.04251 6.55163 1.05647 6.64514C1.08019 6.80494 1.17789 6.87123 1.3328 6.8482C1.35722 6.84471 1.38234 6.84331 1.40746 6.84331C1.75636 6.84122 2.10526 6.83983 2.45346 6.83773C2.74933 6.83564 3.0431 6.82098 3.33129 6.74074C3.50784 6.69189 3.66135 6.60816 3.75904 6.45464C3.8372 6.33183 3.90628 6.19785 3.95094 6.05969C4.08213 5.65636 4.07515 5.23698 4.06608 4.8183C4.06608 4.79946 4.0598 4.77992 4.05421 4.76108C4.02979 4.68014 3.97885 4.65362 3.9007 4.68921C3.85604 4.71014 3.81487 4.74015 3.7744 4.76946C3.1701 5.21116 2.50998 5.23419 1.88964 4.82319C1.74101 4.7248 1.60982 4.59919 1.46189 4.47847C1.57424 4.36962 1.66216 4.27193 1.76194 4.18819C2.09479 3.90907 2.4737 3.76881 2.91471 3.82812C3.20569 3.8672 3.46527 3.98094 3.70322 4.15051C3.73881 4.17563 3.79254 4.17633 3.8379 4.18889C3.83092 4.13655 3.82534 4.08352 3.81557 4.03118C3.81347 4.02002 3.79603 4.01165 3.78765 4.00118C3.75137 3.95233 3.70811 3.90628 3.68019 3.85325C3.55738 3.61948 3.50016 3.36688 3.50225 3.10521C3.50505 2.76259 3.65577 2.47091 3.85255 2.20156C3.93698 2.08572 4.03537 1.97896 4.14004 1.85335C4.2503 1.98803 4.35636 2.10247 4.44568 2.22877C4.68642 2.57069 4.84133 2.93843 4.75341 3.37037C4.70456 3.60902 4.65293 3.84487 4.4694 4.0256C4.44498 4.04933 4.438 4.09608 4.43312 4.13376C4.42544 4.19656 4.45405 4.2161 4.51337 4.18889C4.55105 4.17144 4.58454 4.14562 4.61873 4.1219C5.38492 3.60483 6.21739 3.75555 6.80982 4.49034Z" fill="#ED1C24"/>
<path d="M11.1732 4.70993V3.13453C11.1732 1.77395 11.1732 1.52332 11.1553 1.23688C11.1374 0.932542 11.0658 0.789323 10.7704 0.726665C10.6988 0.708763 10.5466 0.699812 10.4213 0.699812C10.3228 0.699812 10.2691 0.681909 10.2691 0.619251C10.2691 0.556593 10.3318 0.53869 10.466 0.53869C10.9405 0.53869 11.5044 0.565544 11.6834 0.565544C12.122 0.565544 12.4711 0.53869 12.7754 0.53869C14.3956 0.53869 14.682 1.40695 14.682 1.88137C14.682 2.61536 14.2613 3.05397 13.769 3.44782C14.503 3.69845 15.3981 4.33399 15.3981 5.38127C15.3981 6.33905 14.6552 7.33263 13.0082 7.33263C12.9008 7.33263 12.6412 7.31472 12.3816 7.30577C12.1131 7.28787 11.8445 7.27892 11.7103 7.27892C11.6118 7.27892 11.4149 7.27892 11.2 7.28787C10.9942 7.28787 10.7614 7.30577 10.5824 7.30577C10.466 7.30577 10.4034 7.27892 10.4034 7.21626C10.4034 7.17151 10.4392 7.14465 10.5466 7.14465C10.6809 7.14465 10.7883 7.12675 10.8688 7.10885C11.0479 7.07304 11.0926 6.87612 11.1284 6.61653C11.1732 6.24058 11.1732 5.53344 11.1732 4.70993ZM12.2473 1.07576V3.2867C12.2473 3.35831 12.2742 3.37621 12.31 3.38516C12.3905 3.40306 12.5248 3.41202 12.7307 3.41202C13.0261 3.41202 13.223 3.37621 13.3752 3.24194C13.6079 3.05397 13.7422 2.73173 13.7422 2.29312C13.7422 1.69339 13.3931 0.905688 12.6233 0.905688C12.498 0.905688 12.4174 0.905688 12.3279 0.92359C12.2652 0.941493 12.2473 0.977297 12.2473 1.07576ZM14.2971 5.78407C14.2971 5.2291 14.1092 4.4772 13.4289 4.00279C13.2409 3.86853 13.035 3.80587 12.6859 3.78796C12.5248 3.77901 12.4353 3.77901 12.301 3.77901C12.2652 3.77901 12.2473 3.79692 12.2473 3.84167V5.9631C12.2473 6.55387 12.2742 6.70605 12.5606 6.82241C12.8023 6.92087 13.0082 6.92982 13.2141 6.92982C13.6169 6.92982 14.2971 6.715 14.2971 5.78407Z" fill="#4C4D4F"/>
<path d="M19.2002 5.39022H17.3473C17.3026 5.39022 17.2936 5.39917 17.2757 5.44393L16.855 6.46436C16.7745 6.65234 16.7386 6.84031 16.7386 6.92982C16.7386 7.06409 16.8103 7.14465 17.0519 7.14465H17.1683C17.2668 7.14465 17.2847 7.18046 17.2847 7.22521C17.2847 7.28787 17.2399 7.30577 17.1594 7.30577C16.8998 7.30577 16.5328 7.27892 16.2821 7.27892C16.2016 7.27892 15.7809 7.30577 15.3691 7.30577C15.2707 7.30577 15.2259 7.28787 15.2259 7.22521C15.2259 7.18046 15.2528 7.14465 15.3154 7.14465C15.387 7.14465 15.4765 7.1357 15.5481 7.1357C15.9062 7.08199 16.0405 6.84926 16.2016 6.46436L18.2603 1.67549C18.3499 1.46066 18.4125 1.37115 18.4931 1.37115C18.6094 1.37115 18.6452 1.44276 18.7258 1.61283C18.9138 2.03354 20.2296 5.14854 20.7309 6.30324C21.0352 6.99248 21.259 7.09094 21.4022 7.1178C21.5186 7.1357 21.6081 7.14465 21.6976 7.14465C21.7692 7.14465 21.805 7.17151 21.805 7.22521C21.805 7.28787 21.7603 7.30577 21.4649 7.30577C21.1874 7.30577 20.6145 7.30577 19.9521 7.28787C19.8089 7.27892 19.7194 7.27892 19.7194 7.22521C19.7194 7.18046 19.7373 7.1536 19.8178 7.14465C19.8716 7.1357 19.9253 7.06409 19.8895 6.97458L19.2808 5.44393C19.2629 5.39917 19.236 5.39022 19.2002 5.39022ZM17.5084 4.96952H19.0301C19.066 4.96952 19.0749 4.95162 19.066 4.92476L18.323 2.99131C18.3141 2.96446 18.3051 2.9197 18.2872 2.9197C18.2603 2.9197 18.2514 2.96446 18.2424 2.99131L17.4816 4.91581C17.4637 4.95162 17.4816 4.96952 17.5084 4.96952Z" fill="#4C4D4F"/>
<path d="M23.0209 3.16138L23.1104 6.26744C23.1283 6.85821 23.2268 7.03724 23.3789 7.09095C23.5132 7.1357 23.6654 7.14465 23.7907 7.14465C23.8802 7.14465 23.925 7.18046 23.925 7.22521C23.925 7.28787 23.8534 7.30577 23.7459 7.30577C23.2357 7.30577 22.8687 7.27892 22.7255 7.27892C22.6539 7.27892 22.278 7.30577 21.8751 7.30577C21.7677 7.30577 21.6961 7.29682 21.6961 7.22521C21.6961 7.18046 21.7498 7.14465 21.8214 7.14465C21.9289 7.14465 22.0721 7.1357 22.1795 7.10885C22.3854 7.05514 22.4122 6.84926 22.4212 6.18688L22.4928 1.67549C22.4928 1.52332 22.5465 1.4159 22.627 1.4159C22.7255 1.4159 22.8329 1.53227 22.9672 1.66654C23.0657 1.765 24.2472 2.97341 25.393 4.0923C25.93 4.62042 26.9773 5.69456 27.0937 5.80198H27.1295L27.0489 2.41844C27.04 1.95297 26.9684 1.81871 26.7804 1.7471C26.664 1.70234 26.4761 1.70234 26.3686 1.70234C26.2702 1.70234 26.2433 1.66654 26.2433 1.62178C26.2433 1.55912 26.3239 1.55017 26.4402 1.55017C26.852 1.55017 27.2727 1.56807 27.4428 1.56807C27.5323 1.56807 27.8277 1.55017 28.2126 1.55017C28.32 1.55017 28.3916 1.55912 28.3916 1.62178C28.3916 1.66654 28.3468 1.70234 28.2573 1.70234C28.1768 1.70234 28.1141 1.70234 28.0157 1.7292C27.8008 1.79185 27.7382 1.92612 27.7292 2.35578L27.6397 7.1536C27.6397 7.32368 27.577 7.39528 27.5144 7.39528C27.3801 7.39528 27.2727 7.31472 27.1921 7.23416C26.6998 6.77765 25.7152 5.83778 24.8917 5.04113C24.0324 4.21762 23.1999 3.29565 23.0478 3.16138H23.0209Z" fill="#4C4D4F"/>
<path d="M31.1291 3.75216V4.0923H31.1649C31.4334 3.80587 32.5791 2.67802 32.8119 2.41844C33.0356 2.1678 33.2057 1.98878 33.2057 1.85451C33.2057 1.77395 33.1699 1.72024 33.0983 1.70234C33.0267 1.68444 32.9909 1.66654 32.9909 1.62178C32.9909 1.56807 33.0357 1.55017 33.1162 1.55017C33.2863 1.55017 33.7159 1.56807 33.9308 1.56807C34.1725 1.56807 34.6111 1.55017 34.8527 1.55017C34.9333 1.55017 34.987 1.56807 34.987 1.62178C34.987 1.67549 34.9423 1.70234 34.8706 1.70234C34.7543 1.70234 34.5574 1.73815 34.4141 1.79185C34.1635 1.88137 33.9129 2.04249 33.5817 2.35578C33.331 2.58851 32.1584 3.69845 31.9168 3.97594C32.1942 4.33399 33.7428 5.9452 34.0471 6.23163C34.3962 6.54492 34.7006 6.87612 35.1213 7.04619C35.354 7.14465 35.5151 7.14465 35.6046 7.14465C35.6673 7.14465 35.7121 7.18046 35.7121 7.22521C35.7121 7.27892 35.6673 7.30577 35.5241 7.30577H34.8348C34.6021 7.30577 34.4589 7.30577 34.2888 7.28787C33.8681 7.25207 33.6085 7.09095 33.2684 6.79556C32.9282 6.50017 31.4155 4.74574 31.2454 4.51301L31.1649 4.40559H31.1291V5.09483C31.1291 5.79303 31.1291 6.39275 31.147 6.72395C31.1649 6.93878 31.2365 7.08199 31.4334 7.1178C31.5408 7.1357 31.7198 7.14465 31.8183 7.14465C31.8809 7.14465 31.9257 7.18941 31.9257 7.22521C31.9257 7.27892 31.863 7.30577 31.7735 7.30577C31.3349 7.30577 30.771 7.27892 30.5741 7.27892C30.3951 7.27892 29.8938 7.30577 29.5805 7.30577C29.482 7.30577 29.4283 7.27892 29.4283 7.22521C29.4283 7.18941 29.4552 7.14465 29.5536 7.14465C29.67 7.14465 29.7595 7.1357 29.8311 7.1178C29.9923 7.08199 30.037 6.93878 30.0639 6.715C30.0997 6.39275 30.0997 5.79303 30.0997 5.09483V3.75216C30.0997 2.59746 30.0997 2.38263 30.0907 2.14095C30.0728 1.88137 30.0012 1.8008 29.7506 1.7292C29.6879 1.71129 29.5536 1.70234 29.4373 1.70234C29.3567 1.70234 29.303 1.67549 29.303 1.62178C29.303 1.56807 29.3657 1.55017 29.482 1.55017C29.8938 1.55017 30.3951 1.56807 30.583 1.56807C30.771 1.56807 31.3349 1.55017 31.5945 1.55017C31.7109 1.55017 31.7646 1.56807 31.7646 1.62178C31.7646 1.67549 31.7198 1.70234 31.6572 1.70234C31.5766 1.70234 31.5319 1.71129 31.4334 1.7292C31.2186 1.765 31.1559 1.87241 31.138 2.14095C31.1291 2.38263 31.1291 2.59746 31.1291 3.75216Z" fill="#4C4D4F"/>
<path d="M38.4455 6.41066L39.3317 0.574495C39.3585 0.422325 39.4122 0.341765 39.4839 0.341765C39.5555 0.341765 39.6092 0.38652 39.7255 0.619251L42.1692 5.66771L44.6039 0.556593C44.6755 0.413374 44.7203 0.341765 44.8008 0.341765C44.8814 0.341765 44.9351 0.431276 44.962 0.619251L45.7765 6.15107C45.8571 6.715 45.9466 6.97458 46.2151 7.05514C46.4747 7.1357 46.6537 7.14465 46.7701 7.14465C46.8507 7.14465 46.9133 7.1536 46.9133 7.20731C46.9133 7.27892 46.8059 7.30577 46.6806 7.30577C46.4568 7.30577 45.2216 7.27892 44.8635 7.25207C44.6576 7.23416 44.6039 7.20731 44.6039 7.1536C44.6039 7.10885 44.6397 7.08199 44.7024 7.05514C44.7561 7.03724 44.7829 6.92087 44.7471 6.67024L44.2101 2.73173H44.1743L42.2229 6.79556C42.017 7.21626 41.9723 7.29682 41.8917 7.29682C41.8112 7.29682 41.7216 7.1178 41.5784 6.84926C41.3636 6.43751 40.6565 5.06798 40.549 4.81735C40.4685 4.62937 39.9314 3.50153 39.6181 2.83019H39.5823L39.1169 6.39275C39.0989 6.55387 39.09 6.67024 39.09 6.81346C39.09 6.98353 39.2064 7.06409 39.3585 7.0999C39.5197 7.1357 39.645 7.14465 39.7345 7.14465C39.8061 7.14465 39.8688 7.16255 39.8688 7.20731C39.8688 7.28787 39.7882 7.30577 39.6539 7.30577C39.278 7.30577 38.8752 7.27892 38.7141 7.27892C38.544 7.27892 38.1143 7.30577 37.8279 7.30577C37.7384 7.30577 37.6668 7.28787 37.6668 7.20731C37.6668 7.16255 37.7205 7.14465 37.81 7.14465C37.8816 7.14465 37.9443 7.14465 38.0785 7.1178C38.3292 7.06409 38.4008 6.715 38.4455 6.41066Z" fill="#4C4D4F"/>
<path d="M50.3929 5.39022H48.5401C48.4953 5.39022 48.4864 5.39917 48.4684 5.44393L48.0477 6.46436C47.9672 6.65234 47.9314 6.84031 47.9314 6.92982C47.9314 7.06409 48.003 7.14465 48.2447 7.14465H48.361C48.4595 7.14465 48.4774 7.18046 48.4774 7.22521C48.4774 7.28787 48.4326 7.30577 48.3521 7.30577C48.0925 7.30577 47.7255 7.27892 47.4749 7.27892C47.3943 7.27892 46.9736 7.30577 46.5618 7.30577C46.4634 7.30577 46.4186 7.28787 46.4186 7.22521C46.4186 7.18046 46.4455 7.14465 46.5081 7.14465C46.5798 7.14465 46.6693 7.1357 46.7409 7.1357C47.0989 7.08199 47.2332 6.84926 47.3943 6.46436L49.4531 1.67549C49.5426 1.46066 49.6052 1.37115 49.6858 1.37115C49.8022 1.37115 49.838 1.44276 49.9185 1.61283C50.1065 2.03354 51.4223 5.14854 51.9236 6.30324C52.2279 6.99248 52.4517 7.09094 52.5949 7.1178C52.7113 7.1357 52.8008 7.14465 52.8903 7.14465C52.9619 7.14465 52.9977 7.17151 52.9977 7.22521C52.9977 7.28787 52.953 7.30577 52.6576 7.30577C52.3801 7.30577 51.8072 7.30577 51.1448 7.28787C51.0016 7.27892 50.9121 7.27892 50.9121 7.22521C50.9121 7.18046 50.93 7.1536 51.0106 7.14465C51.0643 7.1357 51.118 7.06409 51.0822 6.97458L50.4735 5.44393C50.4556 5.39917 50.4288 5.39022 50.3929 5.39022ZM48.7012 4.96952H50.2229C50.2587 4.96952 50.2676 4.95162 50.2587 4.92476L49.5157 2.99131C49.5068 2.96446 49.4978 2.9197 49.4799 2.9197C49.4531 2.9197 49.4441 2.96446 49.4352 2.99131L48.6743 4.91581C48.6564 4.95162 48.6743 4.96952 48.7012 4.96952Z" fill="#4C4D4F"/>
<path d="M54.5738 7.40424C54.1173 7.40424 53.6339 7.35948 53.2938 7.20731C53.1684 7.1536 53.1416 7.1178 53.1416 6.94773C53.1416 6.53597 53.1774 6.06156 53.1863 5.93624C53.1863 5.81988 53.2221 5.73932 53.2848 5.73932C53.3564 5.73932 53.3654 5.81093 53.3654 5.86463C53.3654 5.9631 53.3922 6.12422 53.437 6.25849C53.607 6.82241 54.1978 7.01038 54.6901 7.01038C55.3704 7.01038 55.7822 6.58073 55.7822 6.04366C55.7822 5.71247 55.7016 5.38127 55.0034 4.96952L54.5469 4.70098C53.616 4.15496 53.3117 3.64475 53.3117 2.97341C53.3117 2.04249 54.2068 1.44276 55.2988 1.44276C55.809 1.44276 56.2118 1.51437 56.4177 1.56807C56.4893 1.58598 56.5251 1.61283 56.5251 1.66654C56.5251 1.765 56.4983 1.97983 56.4983 2.57956C56.4983 2.74068 56.4625 2.82124 56.3998 2.82124C56.3461 2.82124 56.3193 2.77648 56.3193 2.68697C56.3193 2.61536 56.2835 2.38263 56.1134 2.18571C55.997 2.04249 55.7464 1.82766 55.2362 1.82766C54.6722 1.82766 54.162 2.12305 54.162 2.64221C54.162 2.98236 54.2873 3.25089 54.9945 3.64475L55.3167 3.82377C56.3551 4.39664 56.6773 4.97847 56.6773 5.66771C56.6773 6.23163 56.4625 6.68814 55.8896 7.09095C55.5136 7.35948 54.9945 7.40424 54.5738 7.40424Z" fill="#4C4D4F"/>
<path d="M58.3378 5.09483V3.75216C58.3378 2.59746 58.3378 2.38263 58.3289 2.14095C58.311 1.88137 58.2394 1.8008 57.9887 1.7292C57.9261 1.71129 57.7918 1.70234 57.6754 1.70234C57.5949 1.70234 57.5412 1.67549 57.5412 1.62178C57.5412 1.56807 57.6038 1.55017 57.7202 1.55017C58.1319 1.55017 58.6332 1.56807 58.857 1.56807C59.1792 1.56807 59.8058 1.55017 60.1639 1.55017C61.1485 1.55017 61.5065 1.87241 61.6318 1.97983C61.8019 2.14095 62.0257 2.48109 62.0257 2.89285C62.0257 3.96699 61.1664 4.73679 60.0475 4.73679C60.0117 4.73679 59.8506 4.73679 59.8148 4.72784C59.77 4.72784 59.7163 4.70098 59.7163 4.64728C59.7163 4.58462 59.8058 4.54881 59.9759 4.54881C60.4145 4.54881 61.0321 4.0923 61.0321 3.31355C61.0321 3.06292 61.0053 2.56165 60.5667 2.18571C60.2802 1.93507 59.958 1.89927 59.779 1.89927C59.6626 1.89927 59.5104 1.90822 59.4388 1.93507C59.3941 1.95297 59.3762 1.99773 59.3762 2.07829V5.09483C59.3762 5.79303 59.3762 6.39275 59.412 6.72395C59.4388 6.93878 59.4836 7.08199 59.7163 7.1178C59.8327 7.1357 60.0027 7.14465 60.1191 7.14465C60.2086 7.14465 60.2444 7.18941 60.2444 7.22521C60.2444 7.27892 60.1818 7.30577 60.1012 7.30577C59.5731 7.30577 59.0181 7.27892 58.8122 7.27892C58.6332 7.27892 58.1319 7.30577 57.8186 7.30577C57.7202 7.30577 57.6665 7.27892 57.6665 7.22521C57.6665 7.18941 57.6933 7.14465 57.7918 7.14465C57.9082 7.14465 57.9977 7.1357 58.0693 7.1178C58.2304 7.08199 58.2752 6.93878 58.302 6.715C58.3378 6.39275 58.3378 5.79303 58.3378 5.09483Z" fill="#4C4D4F"/>
<path d="M63.6253 5.09483V3.75216C63.6253 2.59746 63.6253 2.38263 63.6163 2.14095C63.5984 1.88137 63.5179 1.79185 63.3478 1.73815C63.2583 1.71129 63.1598 1.70234 63.0614 1.70234C62.9808 1.70234 62.9361 1.68444 62.9361 1.61283C62.9361 1.56807 62.9987 1.55017 63.124 1.55017C63.4194 1.55017 63.9565 1.56807 64.1803 1.56807C64.3772 1.56807 64.8874 1.55017 65.1918 1.55017C65.2902 1.55017 65.3529 1.56807 65.3529 1.61283C65.3529 1.68444 65.3081 1.70234 65.2276 1.70234C65.147 1.70234 65.0843 1.71129 64.9948 1.7292C64.78 1.765 64.7173 1.87241 64.6994 2.14095C64.6815 2.38263 64.6815 2.59746 64.6815 3.75216V5.09483C64.6815 5.82883 64.6815 6.43751 64.7173 6.75975C64.7442 6.96563 64.7979 7.08199 65.0306 7.1178C65.138 7.1357 65.3171 7.14465 65.4334 7.14465C65.5229 7.14465 65.5588 7.18941 65.5588 7.22521C65.5588 7.27892 65.4961 7.30577 65.4066 7.30577C64.8874 7.30577 64.3503 7.27892 64.1355 7.27892C63.9565 7.27892 63.4194 7.30577 63.1061 7.30577C63.0077 7.30577 62.954 7.27892 62.954 7.22521C62.954 7.18941 62.9808 7.14465 63.0793 7.14465C63.1956 7.14465 63.2852 7.1357 63.3568 7.1178C63.5179 7.08199 63.5626 6.97458 63.5895 6.7508C63.6253 6.43751 63.6253 5.82883 63.6253 5.09483Z" fill="#4C4D4F"/>
<path d="M69.5014 7.40424C67.2099 7.40424 66.279 5.77512 66.279 4.4235C66.279 3.12558 67.192 1.44276 69.582 1.44276C71.5691 1.44276 72.8044 2.54375 72.8044 4.28923C72.8044 6.03471 71.5333 7.40424 69.5014 7.40424ZM69.8236 6.99248C70.3786 6.99248 71.6318 6.7329 71.6318 4.56672C71.6318 2.8839 70.6203 1.84556 69.3492 1.84556C68.472 1.84556 67.4426 2.31102 67.4426 4.19077C67.4426 5.75722 68.3377 6.99248 69.8236 6.99248Z" fill="#4C4D4F"/>
<path d="M74.6293 3.16138L74.7188 6.26744C74.7367 6.85821 74.8352 7.03724 74.9873 7.09095C75.1216 7.1357 75.2738 7.14465 75.3991 7.14465C75.4886 7.14465 75.5334 7.18046 75.5334 7.22521C75.5334 7.28787 75.4618 7.30577 75.3543 7.30577C74.8441 7.30577 74.4771 7.27892 74.3339 7.27892C74.2623 7.27892 73.8863 7.30577 73.4835 7.30577C73.3761 7.30577 73.3045 7.29682 73.3045 7.22521C73.3045 7.18046 73.3582 7.14465 73.4298 7.14465C73.5373 7.14465 73.6805 7.1357 73.7879 7.10885C73.9938 7.05514 74.0206 6.84926 74.0296 6.18688L74.1012 1.67549C74.1012 1.52332 74.1549 1.4159 74.2355 1.4159C74.3339 1.4159 74.4413 1.53227 74.5756 1.66654C74.6741 1.765 75.8556 2.97341 77.0014 4.0923C77.5384 4.62042 78.5857 5.69456 78.7021 5.80198H78.7379L78.6573 2.41844C78.6484 1.95297 78.5768 1.81871 78.3888 1.7471C78.2724 1.70234 78.0844 1.70234 77.977 1.70234C77.8786 1.70234 77.8517 1.66654 77.8517 1.62178C77.8517 1.55912 77.9323 1.55017 78.0486 1.55017C78.4604 1.55017 78.8811 1.56807 79.0512 1.56807C79.1407 1.56807 79.4361 1.55017 79.821 1.55017C79.9284 1.55017 80 1.55912 80 1.62178C80 1.66654 79.9552 1.70234 79.8657 1.70234C79.7852 1.70234 79.7225 1.70234 79.624 1.7292C79.4092 1.79185 79.3466 1.92612 79.3376 2.35578L79.2481 7.1536C79.2481 7.32368 79.1854 7.39528 79.1228 7.39528C78.9885 7.39528 78.8811 7.31472 78.8005 7.23416C78.3082 6.77765 77.3236 5.83778 76.5001 5.04113C75.6408 4.21762 74.8083 3.29565 74.6562 3.16138H74.6293Z" fill="#4C4D4F"/>
</g>
<defs>
<clipPath id="clip0_801_6854">
<rect width="80" height="7.82407" fill="white"/>
</clipPath>
</defs>
</svg>
