<svg width="81" height="23" viewBox="0 0 81 23" fill="none" xmlns="http://www.w3.org/2000/svg">
<g clip-path="url(#clip0_801_8525)">
<path fill-rule="evenodd" clip-rule="evenodd" d="M36.0752 14.8782C38.1786 15.3105 40.2071 14.8333 42.1777 13.6366L35.7075 19.9346L33.3346 17.5589L36.0752 14.8782Z" fill="#C13439"/>
<path fill-rule="evenodd" clip-rule="evenodd" d="M42.6446 16.0207L37.1157 21.4223L36.0556 20.3603L42.1299 14.3832C45.2963 11.5023 45.853 8.44451 45.1007 5.29878C46.508 9.3858 46.6006 11.0335 44.7732 13.5626C44.1248 14.4609 43.4343 15.2497 42.6446 16.0207Z" fill="#EC9033"/>
<path fill-rule="evenodd" clip-rule="evenodd" d="M43.6803 17.164L38.1168 22.4684L37.4441 21.7685L43.5278 15.7774C46.5566 12.7542 47.1461 11.0373 46.4125 7.62393C47.5447 10.7706 47.3781 12.6728 45.8399 14.7921C45.1952 15.681 44.4691 16.4127 43.6803 17.164Z" fill="#DABD29"/>
<path fill-rule="evenodd" clip-rule="evenodd" d="M42.2928 2.06978C44.7377 4.96288 43.6495 9.77598 39.2144 10.8408C40.573 10.1615 41.3449 9.12101 41.6237 8.02065C42.1328 6.00802 41.0287 3.98978 39.0778 3.31796C37.9503 2.92873 36.6544 3.01387 35.6102 3.62674C34.0195 4.56054 33.2813 6.55446 33.8034 8.3313C34.4359 10.4871 36.5571 11.55 38.6895 11.4658C42.5912 11.3105 45.2504 7.24405 43.8516 3.53691C47.089 9.65621 41.4684 15.4359 36.0696 14.0857C32.6366 13.2277 30.1449 9.67586 30.5295 6.16147C30.8139 3.57153 32.6301 1.42978 35.0291 0.500655C37.5508 -0.477123 40.4953 -0.0579414 42.2928 2.06978Z" fill="#C13439"/>
<path fill-rule="evenodd" clip-rule="evenodd" d="M49.1063 6.55165C49.9288 6.69387 50.7456 6.73785 51.5494 6.56194C51.4502 7.84288 51.3996 9.20615 51.3819 10.6237C51.3688 11.7016 51.5007 12.8188 51.3903 13.9397C51.3211 14.5376 51.1292 14.9961 50.8439 15.3507C50.303 16.0207 49.4768 16.438 48.413 16.4773L48.1332 15.579C48.8106 15.5435 49.1596 15.1739 49.1363 14.4244C49.1952 11.8298 49.2747 9.17621 49.1063 6.55165ZM77.94 6.61621C78.8223 6.76405 79.6775 6.77527 80.5 6.61153C80.1791 9.5037 80.2268 12.2967 80.4888 15.0298C79.5915 14.9166 78.7353 14.9306 77.9044 15.0223C78.1627 12.2134 78.1449 9.412 77.94 6.61621ZM71.5288 6.63118C72.7508 6.7472 73.9119 6.64428 75.104 6.65083C76.5608 6.71539 77.3028 7.55095 77.3851 8.46229C77.4563 9.23796 77.0726 10.0716 76.0106 10.518C77.2158 10.8745 77.7538 11.9439 77.5377 12.9797C77.3346 13.9556 76.6263 14.8988 74.7961 14.9933C73.6836 15.0691 73.2317 14.8623 71.4595 15.0129C71.6944 12.234 71.6644 9.43633 71.5288 6.63118ZM73.751 7.73247C73.7351 8.5203 73.7145 9.31095 73.7182 10.0997C74.7793 10.14 75.1994 9.51586 75.2003 8.87773C75.2003 8.56896 75.1414 8.24241 74.9365 8.01691C74.7026 7.7596 74.2881 7.62954 73.751 7.73247ZM73.7154 11.1898C73.6986 11.9776 73.7145 13.1173 73.7182 13.9051C74.5828 14.0127 74.8364 13.7376 75.0394 13.4345C75.2518 13.1163 75.293 12.7776 75.2939 12.4511C75.2939 12.1423 75.1685 11.7755 74.9646 11.5509C74.7297 11.2927 74.2525 11.0859 73.7154 11.1898ZM61.9194 6.62557C62.3461 6.73504 62.7737 6.77153 63.2003 6.60311C64.0303 8.41364 64.9314 10.1802 65.867 11.9252C66.8018 10.1821 67.714 8.41925 68.5758 6.60966C69.0015 6.71446 69.4413 6.7313 69.9007 6.61153C70.1851 9.44756 70.537 12.249 70.9618 15.0129C70.1636 14.9147 69.3655 14.9053 68.5674 15.0064L68.1444 10.1839C67.308 11.768 66.4696 13.3643 65.7201 15.0083L65.0043 15.0111L62.6015 10.2869C62.4144 11.8597 62.2759 13.4541 62.1852 15.07C61.6752 14.9147 61.1615 14.9091 60.645 15.0447C60.6647 14.8688 60.6553 14.7201 60.6544 14.5423C61.2064 12.0338 61.5564 9.32311 61.9194 6.62557ZM55.3837 6.55258C55.7861 6.67141 56.1884 6.68732 56.5908 6.56194C57.7501 9.32405 58.9374 12.0366 60.1894 14.6274L60.1753 15.0157C59.3323 14.9175 58.4958 14.9212 57.6659 15.0345C57.4207 14.2111 57.1372 13.4083 56.7994 12.6316C55.9302 12.5839 55.0469 12.5783 54.1505 12.6092C53.8174 13.3577 53.5152 14.1568 53.2607 15.0382C52.7695 14.8969 52.252 14.91 51.714 15.0541L51.7253 14.6349C53.0109 11.9514 54.2712 9.26323 55.3837 6.55258ZM55.4913 9.52802L56.3447 11.5191L54.6174 11.5145L55.4913 9.52802Z" fill="#332C2B"/>
<path fill-rule="evenodd" clip-rule="evenodd" d="M0.5 6.97364H3.26585C4.96971 6.98861 5.3945 7.78299 5.42257 8.60545C5.44971 9.38954 4.92947 10.1933 3.57836 10.6256C5.22982 10.7631 5.82117 11.7212 5.69018 12.7467C5.5676 13.7123 4.76105 14.8847 2.47146 14.8043H0.5C0.609474 12.1881 0.629123 9.57668 0.5 6.97364ZM22.8382 6.9989C23.2022 7.07656 23.5653 7.07375 23.9292 6.9989L23.8787 10.4001C23.8871 10.5732 23.8899 10.6639 23.9882 10.6433C24.9332 9.92288 26.2544 8.45387 27.6429 6.9989C27.9564 7.03352 28.268 7.02978 28.5786 6.9989L24.966 10.5114L28.7442 14.7622L28.7451 14.8286C28.2848 14.7491 27.8759 14.7743 27.482 14.8267C26.3798 13.485 25.2607 12.1647 24.0995 10.896C24.0275 10.8651 23.9545 10.8529 23.8806 10.8651C23.8806 12.1825 23.86 13.4971 23.948 14.8286C23.5858 14.7968 23.2172 14.7912 22.8382 14.8221C23.0216 12.1657 23.0057 9.56264 22.8382 6.9989ZM14.8495 6.82486H15.0432L20.8827 12.9329C20.9594 10.9764 20.9416 8.98814 20.8799 6.98486C21.1437 7.05036 21.4095 7.06159 21.6771 6.99141C21.6219 7.42463 21.6135 7.8934 21.5863 8.3444C21.4544 10.5367 21.3945 12.7421 21.4778 14.9727L21.3327 14.9699L15.4081 8.65223C15.3809 10.4076 15.3594 12.2125 15.4184 13.8864C15.4296 14.227 15.4549 14.5011 15.4726 14.837C15.2275 14.7865 14.9636 14.7856 14.6782 14.8408C14.827 12.1769 14.8598 9.50276 14.8495 6.82486ZM10.0092 6.83516H10.2301L13.7519 14.8342C13.3271 14.7556 12.9295 14.7715 12.544 14.8324C12.1735 13.7647 11.7702 12.7355 11.3201 11.7605C10.3367 11.724 9.34398 11.7222 8.34094 11.7577C7.93392 12.729 7.54374 13.747 7.17602 14.8249C6.92152 14.7781 6.64082 14.779 6.33953 14.8193L10.0092 6.83516ZM8.53743 11.274L9.83333 8.32943L11.1395 11.289C10.2974 11.259 9.43287 11.2506 8.53743 11.274ZM1.54047 7.42182C3.51848 7.2796 4.39146 7.51446 4.40082 8.93855C4.34187 9.58791 4.04901 9.95937 3.53064 10.227C3.26304 10.3654 2.96082 10.4141 2.62772 10.4347C2.28901 10.4553 1.91942 10.5011 1.52082 10.4721L1.54047 7.42182ZM1.51146 10.8894C2.96269 10.8249 3.72246 10.9559 4.15193 11.3704C4.78164 11.9795 4.73485 13.0611 4.22491 13.7292C3.97415 14.0567 3.61673 14.2597 3.15357 14.3533C2.71287 14.4422 2.16737 14.372 1.54795 14.3327L1.51146 10.8894Z" fill="#332C2B"/>
</g>
<defs>
<clipPath id="clip0_801_8525">
<rect width="80" height="22.4684" fill="white" transform="translate(0.5)"/>
</clipPath>
</defs>
</svg>
