<svg width="80" height="22" viewBox="0 0 80 22" fill="none" xmlns="http://www.w3.org/2000/svg">
<g clip-path="url(#clip0_801_8262)">
<path fill-rule="evenodd" clip-rule="evenodd" d="M5.30518 3.60287C2.11173 3.90454 1.72386 6.01196 1.1636 7.03766C0.810214 6.75322 0.629209 6.68426 0.271508 6.40414C0.49561 5.65857 1.17222 4.5553 1.71093 3.92609C2.97797 2.55562 4.3786 2.99521 5.86974 2.25395C6.78339 1.66353 7.01611 0.836072 7.32209 0C7.80046 0.086193 7.92113 0.189629 8.29607 0.374944C8.00733 1.8273 7.07213 3.25378 5.30518 3.60287ZM6.51188 5.24053C8.27883 4.89145 9.21403 3.46065 9.50278 2.01261C9.12784 1.8273 9.00716 1.72386 8.52879 1.63767C8.22281 2.47374 7.99009 3.30551 7.07644 3.89162C5.5853 4.63288 4.18467 4.19329 2.91763 5.56376C2.37462 6.19297 1.698 7.29624 1.47821 8.0418C1.8316 8.32624 2.01261 8.3952 2.37031 8.67532C2.93056 7.64532 3.31843 5.5379 6.51188 5.24053ZM7.6841 6.84804C9.45106 6.49896 10.3863 5.06815 10.675 3.62011C10.3001 3.43479 10.1794 3.33136 9.70102 3.24517C9.39503 4.08124 9.16231 4.913 8.24867 5.49911C6.75753 6.24037 5.35689 5.80079 4.08986 7.17126C3.54684 7.80047 2.87023 8.90374 2.65043 9.64931C3.00382 9.93375 3.18483 10.0027 3.54253 10.2828C4.10279 9.25281 4.49065 7.1454 7.6841 6.84804ZM8.94683 8.32624C10.7138 7.97716 11.649 6.54636 11.9377 5.09831C11.5628 4.913 11.4421 4.80957 10.9637 4.72338C10.6578 5.55945 10.425 6.39121 9.51139 6.97732C8.02026 7.71858 6.61962 7.279 5.35258 8.64947C4.80957 9.27868 4.13295 10.3819 3.91316 11.1275C4.26655 11.412 4.44756 11.4809 4.80526 11.761C5.36551 10.731 5.75338 8.62361 8.94683 8.32624ZM5.07677 13.3556C1.87901 13.6056 1.45666 15.7044 0.879168 16.7257C0.530087 16.437 0.349081 16.3637 0 16.075C0.232721 15.3337 0.926574 14.2391 1.47821 13.6185C2.76679 12.2696 4.16312 12.7307 5.66288 12.011C6.58514 11.4378 6.83079 10.6104 7.14971 9.77859C7.62808 9.8734 7.74444 9.97684 8.11507 10.1665C7.80477 11.6145 6.84803 13.0281 5.07677 13.347V13.3556ZM6.25761 15.0105C3.05985 15.2605 2.6375 17.3593 2.06001 18.3807C1.71093 18.0919 1.52993 18.0186 1.18084 17.7299C1.41356 16.9886 2.10742 15.894 2.65905 15.2734C3.94764 13.9245 5.34396 14.3856 6.84372 13.6659C7.76599 13.0927 8.01164 12.2653 8.33055 11.4335C8.80892 11.5283 8.92528 11.6317 9.29591 11.8214C8.98562 13.2694 8.02887 14.683 6.25761 15.0062V15.0105ZM7.40828 16.6396C9.17955 16.3163 10.1363 14.9028 10.4466 13.459C10.076 13.2694 9.95529 13.166 9.48123 13.0712C9.16231 13.9029 8.91666 14.7304 7.9944 15.3036C6.49464 16.019 5.09831 15.5578 3.80973 16.9111C3.25809 17.5317 2.56424 18.6263 2.33152 19.3676C2.6806 19.6563 2.86161 19.7296 3.215 20.0183C3.79249 18.9969 4.21053 16.8981 7.41259 16.6482L7.40828 16.6396ZM8.64515 18.1393C10.4164 17.8161 11.3732 16.4025 11.6878 14.9588C11.3171 14.7692 11.2008 14.6657 10.7224 14.5709C10.4035 15.4027 10.1578 16.2301 9.23558 16.8033C7.73582 17.5187 6.33949 17.0576 5.05091 18.4108C4.49927 19.0314 3.80542 20.1261 3.5727 20.8673C3.92178 21.1561 4.10279 21.2293 4.45187 21.5181C5.02936 20.4967 5.44739 18.3979 8.64946 18.1479L8.64515 18.1393ZM20.863 3.96057C20.863 4.16312 20.8371 4.35275 20.7811 4.53375C20.7294 4.71476 20.6518 4.87853 20.557 5.02937C20.4579 5.1802 20.3415 5.3138 20.1993 5.43016C20.0614 5.54652 19.902 5.64133 19.7253 5.7189C19.8589 5.74476 19.9838 5.79217 20.1045 5.86112C20.2209 5.93008 20.3243 6.01627 20.4062 6.11971C20.4881 6.22314 20.557 6.34811 20.6001 6.48602C20.6475 6.62824 20.6691 6.78339 20.6691 6.95578C20.6691 7.12816 20.6475 7.30916 20.6001 7.48155C20.557 7.65824 20.4838 7.82633 20.3933 7.98578C20.2984 8.14524 20.1864 8.29608 20.0485 8.43398C19.9106 8.57189 19.7511 8.69256 19.5658 8.79169C19.3805 8.89512 19.1736 8.97269 18.9452 9.02872C18.7168 9.08474 18.4539 9.11491 18.1522 9.11491H16.4801C16.3724 9.11491 16.2905 9.08905 16.2388 9.03302C16.187 8.977 16.1741 8.89081 16.2043 8.76583L17.3205 3.04692C17.342 2.91763 17.3937 2.82713 17.4756 2.77541C17.5575 2.7237 17.6437 2.69784 17.7299 2.69784H19.0874C19.4063 2.69784 19.6735 2.7237 19.889 2.77973C20.1045 2.83575 20.2855 2.91333 20.4277 3.02107C20.5743 3.12881 20.6777 3.2581 20.751 3.41325C20.8242 3.56839 20.8587 3.74509 20.8587 3.94764L20.863 3.96057ZM19.9752 4.11572C19.9752 4.00797 19.958 3.90886 19.9235 3.82266C19.889 3.73647 19.8287 3.6632 19.7511 3.59856C19.6735 3.53822 19.5701 3.49082 19.4494 3.45634C19.3288 3.42186 19.1693 3.40463 18.9711 3.40463H18.0876L17.6911 5.48187H18.6349C18.8892 5.48187 19.1004 5.43878 19.2641 5.35259C19.4279 5.2664 19.5615 5.15865 19.6692 5.02505C19.7727 4.89145 19.8502 4.74492 19.902 4.58116C19.9537 4.41739 19.9752 4.26224 19.9752 4.11572ZM19.7856 7.02473C19.7856 6.74891 19.6908 6.53774 19.5012 6.3869C19.3115 6.23606 19.0185 6.1628 18.6177 6.1628H17.5489L17.1093 8.42536H18.2815C18.5487 8.42536 18.7728 8.38658 18.9538 8.30901C19.1348 8.23143 19.29 8.128 19.415 8.00302C19.5399 7.87804 19.6304 7.7272 19.6951 7.55913C19.7597 7.39105 19.7942 7.21436 19.7942 7.02904L19.7856 7.02473ZM26.2285 8.82185L25.2847 2.86592C25.2761 2.83144 25.2675 2.80127 25.2502 2.77541C25.233 2.75387 25.2071 2.73232 25.164 2.71939C25.1252 2.70646 25.0692 2.69784 25.0046 2.68922C24.9399 2.68491 24.8537 2.6806 24.746 2.6806C24.6512 2.6806 24.5736 2.6806 24.509 2.68922C24.4443 2.69353 24.3883 2.70646 24.3495 2.71939C24.3064 2.73232 24.2719 2.74956 24.2461 2.77541C24.2202 2.79696 24.1944 2.82713 24.1728 2.86592L20.8975 8.82185C20.863 8.89511 20.8415 8.95114 20.8285 8.99855C20.8199 9.04164 20.8285 9.07612 20.8501 9.10198C20.8716 9.12353 20.9147 9.14077 20.9707 9.14939C21.0268 9.15801 21.1043 9.16232 21.2035 9.16232C21.2897 9.16232 21.3672 9.16231 21.4276 9.1537C21.4879 9.14939 21.5353 9.13646 21.5741 9.12353C21.6129 9.1106 21.6431 9.09336 21.6603 9.07181C21.6818 9.05026 21.6991 9.0244 21.7163 8.98993L22.5352 7.44276H25.1597L25.3881 9.00286C25.3881 9.03303 25.4011 9.05889 25.414 9.07612C25.4269 9.09767 25.4485 9.1106 25.4743 9.12353C25.5002 9.13646 25.539 9.14508 25.5907 9.14939C25.6424 9.1537 25.707 9.158 25.776 9.158C25.8837 9.158 25.9742 9.15801 26.0389 9.14939C26.1035 9.14077 26.1509 9.12784 26.1811 9.10629C26.2113 9.08474 26.2328 9.05027 26.2371 9.00286C26.2414 8.95545 26.2371 8.89943 26.2285 8.82616V8.82185ZM24.5909 3.56408L25.0606 6.75753H22.8972L24.5909 3.56408ZM32.0336 8.77014C32.025 8.83478 32.0034 8.89081 31.9776 8.93821C31.9474 8.98562 31.9129 9.02009 31.8785 9.05026C31.8397 9.08043 31.8009 9.10198 31.7578 9.11491C31.7147 9.12784 31.6716 9.13214 31.6328 9.13214H31.3182C31.232 9.13214 31.1631 9.12353 31.1027 9.10198C31.0467 9.08043 30.995 9.04595 30.9476 8.99855C30.9045 8.95114 30.8657 8.8865 30.8312 8.81324C30.7967 8.73566 30.758 8.64085 30.7235 8.52449L29.5426 5.10694C29.4608 4.86129 29.3832 4.61995 29.3013 4.3743C29.2194 4.13296 29.1462 3.88731 29.0686 3.64597H29.0556C29.0125 3.91747 28.9695 4.18467 28.9177 4.45187C28.8703 4.71907 28.8186 4.98626 28.7669 5.25346L28.0386 8.98993C28.0343 9.01578 28.0213 9.04164 28.0041 9.05888C27.9869 9.08043 27.961 9.09336 27.9265 9.10629C27.892 9.11922 27.8489 9.12784 27.7972 9.13646C27.7412 9.14508 27.6809 9.14939 27.6033 9.14939C27.5257 9.14939 27.4654 9.14939 27.4137 9.13646C27.362 9.12784 27.3275 9.11922 27.2973 9.10629C27.2715 9.09336 27.2542 9.08043 27.2456 9.05888C27.237 9.04164 27.237 9.01578 27.2456 8.98993L28.4006 3.0771C28.4264 2.9435 28.4825 2.84868 28.5643 2.79696C28.6462 2.74094 28.7324 2.71077 28.8186 2.71077H29.2022C29.2797 2.71077 29.3487 2.71939 29.4047 2.73663C29.4608 2.75387 29.5125 2.78403 29.5556 2.82282C29.5987 2.86592 29.6331 2.92194 29.6676 2.9909C29.7021 3.05985 29.7366 3.14605 29.7754 3.24948L30.9691 6.71443C31.0424 6.92991 31.12 7.1454 31.1932 7.35657C31.2665 7.57205 31.3398 7.78753 31.4087 8.00733H31.4173C31.4604 7.73582 31.5121 7.45569 31.5639 7.16695C31.6199 6.8782 31.6716 6.59376 31.7233 6.32657L32.4129 2.85299C32.4215 2.82713 32.4301 2.80558 32.4473 2.78834C32.4646 2.7711 32.4861 2.75387 32.5206 2.74094C32.5551 2.72801 32.5939 2.71939 32.6456 2.71077C32.6973 2.70215 32.7619 2.70215 32.8352 2.70215C32.9085 2.70215 32.9731 2.70215 33.0248 2.71077C33.0765 2.71508 33.1153 2.72801 33.1412 2.74094C33.1714 2.75387 33.1886 2.76679 33.1972 2.78834C33.2058 2.80558 33.2101 2.82713 33.2058 2.85299L32.0336 8.77444V8.77014ZM38.8558 2.84437C38.8558 2.88747 38.8385 2.93057 38.8041 2.98228C38.7696 3.02969 38.7179 3.09002 38.6446 3.15897L36.0287 5.75338L37.6836 8.73997C37.7137 8.796 37.7353 8.83909 37.7439 8.87357C37.7568 8.90805 37.7611 8.93821 37.7611 8.96407C37.7611 8.99424 37.7525 9.0201 37.7396 9.04165C37.7267 9.06319 37.7051 9.08474 37.6749 9.09767C37.6448 9.1106 37.6017 9.11922 37.5413 9.12784C37.4853 9.13646 37.4121 9.14077 37.3216 9.14077C37.231 9.14077 37.1578 9.14076 37.1061 9.13214C37.05 9.12353 37.0069 9.11491 36.9725 9.10629C36.938 9.09336 36.9121 9.07612 36.8949 9.05888C36.8777 9.03733 36.8647 9.01148 36.8518 8.98131L35.1236 5.78355L34.503 8.98993C34.503 9.01578 34.4901 9.04164 34.4729 9.05888C34.4556 9.08043 34.4298 9.09336 34.391 9.10629C34.3565 9.11922 34.3091 9.12784 34.2531 9.13646C34.1971 9.14508 34.1324 9.14939 34.0548 9.14939C33.9773 9.14939 33.9083 9.14939 33.8523 9.13646C33.8006 9.12784 33.7575 9.11922 33.7273 9.10629C33.6971 9.09336 33.6799 9.08043 33.6713 9.05888C33.6627 9.04164 33.6584 9.01578 33.667 8.98993L34.8737 2.83144C34.8737 2.80989 34.8866 2.78404 34.9081 2.7668C34.9254 2.74525 34.9556 2.73232 34.99 2.71939C35.0245 2.70646 35.0719 2.69784 35.1279 2.68922C35.184 2.6806 35.2486 2.67629 35.3262 2.67629C35.4038 2.67629 35.4684 2.67629 35.5244 2.68922C35.5761 2.69784 35.6192 2.70646 35.6494 2.71939C35.6796 2.73232 35.6968 2.74525 35.7054 2.7668C35.7141 2.78404 35.7184 2.80558 35.7141 2.83144L35.1538 5.68443L37.9077 2.84006C37.9335 2.8099 37.9637 2.78403 37.9939 2.76249C38.024 2.74094 38.0585 2.7237 38.1016 2.71508C38.1447 2.70215 38.1921 2.69353 38.2481 2.68922C38.3085 2.6806 38.3731 2.6806 38.4507 2.6806C38.5369 2.6806 38.6058 2.6806 38.6575 2.69353C38.7093 2.70215 38.7524 2.71508 38.7782 2.7237C38.8084 2.73663 38.8299 2.75387 38.8386 2.77541C38.8515 2.79265 38.8558 2.81851 38.8558 2.84437ZM21.169 12.2997C21.169 12.3299 21.169 12.3687 21.1604 12.4204C21.1561 12.4721 21.1474 12.5281 21.1388 12.5928C21.1302 12.6574 21.113 12.7178 21.0957 12.7824C21.0785 12.8471 21.0613 12.9074 21.0354 12.9591C21.0138 13.0108 20.9837 13.0582 20.9578 13.0927C20.9277 13.1272 20.8975 13.1444 20.8673 13.1444C20.8199 13.1444 20.7596 13.1229 20.6863 13.0798C20.613 13.0367 20.5225 12.9893 20.4148 12.9376C20.3071 12.8858 20.1821 12.8384 20.0399 12.7953C19.8976 12.7522 19.7382 12.7307 19.5529 12.7307C19.3676 12.7307 19.2081 12.7566 19.0745 12.8083C18.9452 12.86 18.8375 12.9289 18.7513 13.0151C18.6694 13.1013 18.6048 13.1961 18.566 13.3039C18.5229 13.4073 18.5056 13.5194 18.5056 13.6271C18.5056 13.7521 18.5358 13.8641 18.6004 13.959C18.6651 14.0538 18.747 14.1443 18.8504 14.2262C18.9538 14.308 19.0745 14.3899 19.2081 14.4675C19.3417 14.5451 19.4796 14.6226 19.6175 14.7088C19.7554 14.795 19.8933 14.8855 20.0269 14.9846C20.1605 15.0838 20.2812 15.2001 20.3846 15.3294C20.4881 15.463 20.5743 15.6095 20.6346 15.7776C20.6992 15.9457 20.7294 16.1439 20.7294 16.3637C20.7294 16.6913 20.6648 16.9973 20.5312 17.2774C20.3976 17.5575 20.2122 17.7988 19.9666 18.01C19.7209 18.2169 19.4279 18.3807 19.0831 18.497C18.7383 18.6177 18.3548 18.6737 17.9368 18.6737C17.7083 18.6737 17.5015 18.6565 17.3119 18.6177C17.1222 18.5832 16.9498 18.5358 16.8033 18.4841C16.6568 18.4324 16.5318 18.3763 16.4327 18.316C16.3293 18.26 16.256 18.204 16.2086 18.1522C16.1612 18.1005 16.1353 18.0186 16.1353 17.9152C16.1353 17.8894 16.1353 17.8463 16.1439 17.7902C16.1526 17.7342 16.1612 17.6739 16.1741 17.6092C16.187 17.5446 16.2 17.4799 16.2172 17.411C16.2344 17.342 16.256 17.2817 16.2819 17.2257C16.3077 17.1696 16.3336 17.1222 16.3637 17.0878C16.3939 17.0533 16.4241 17.036 16.4585 17.036C16.5189 17.036 16.5878 17.0619 16.6697 17.1179C16.7516 17.1696 16.855 17.23 16.9757 17.2946C17.0964 17.3593 17.2429 17.4196 17.411 17.4756C17.5791 17.5316 17.7773 17.5575 18.0143 17.5575C18.2212 17.5575 18.4022 17.5317 18.5573 17.4799C18.7125 17.4282 18.8418 17.355 18.9495 17.2688C19.053 17.1783 19.1348 17.0748 19.1866 16.9542C19.2426 16.8335 19.2684 16.7042 19.2684 16.562C19.2684 16.4327 19.2383 16.3206 19.1736 16.2215C19.109 16.1224 19.0271 16.0319 18.9237 15.95C18.8202 15.8681 18.7039 15.7906 18.5746 15.7173C18.4453 15.644 18.3117 15.5665 18.1738 15.4846C18.0402 15.4027 17.9023 15.3079 17.773 15.2131C17.6437 15.1182 17.523 15.0019 17.4239 14.8726C17.3205 14.739 17.2386 14.5882 17.1739 14.4201C17.1093 14.252 17.0791 14.0495 17.0791 13.8254C17.0791 13.5107 17.1438 13.222 17.2688 12.9591C17.3937 12.6962 17.5704 12.4678 17.7902 12.2782C18.0143 12.0886 18.2815 11.942 18.5918 11.8343C18.9021 11.7309 19.2426 11.6748 19.6132 11.6748C19.7899 11.6748 19.958 11.6878 20.1131 11.7136C20.2683 11.7395 20.4148 11.774 20.5441 11.8127C20.6734 11.8515 20.7854 11.8946 20.8759 11.9463C20.9664 11.9938 21.0311 12.0369 21.0656 12.0713C21.1 12.1015 21.1259 12.1403 21.1431 12.1748C21.1604 12.2135 21.1647 12.2566 21.1647 12.3127L21.169 12.2997ZM27.4007 16.0534C27.3146 16.4844 27.1766 16.868 26.9913 17.1912C26.806 17.5187 26.5776 17.7902 26.3018 18.01C26.026 18.2298 25.7114 18.3936 25.3537 18.5056C24.996 18.6134 24.5995 18.6694 24.1685 18.6694C23.7074 18.6694 23.3109 18.6134 22.9834 18.5013C22.6515 18.385 22.3929 18.2169 22.199 17.9971C22.0051 17.773 21.8844 17.4929 21.8284 17.1567C21.7723 16.8206 21.7896 16.4284 21.8801 15.9845L22.686 11.9636C22.6946 11.9291 22.7075 11.8989 22.7377 11.8688C22.7636 11.8429 22.8067 11.8171 22.8627 11.7998C22.9187 11.7826 22.9963 11.7697 23.0825 11.7567C23.173 11.7481 23.285 11.7395 23.4229 11.7395C23.5522 11.7395 23.6643 11.7438 23.7462 11.7567C23.8324 11.7653 23.9013 11.7783 23.9487 11.7998C23.9961 11.8171 24.0306 11.8429 24.0435 11.8688C24.0565 11.8989 24.0651 11.9291 24.0565 11.9636L23.2506 15.9845C23.1945 16.256 23.1773 16.4844 23.2031 16.6826C23.229 16.8809 23.2893 17.0404 23.3798 17.1696C23.4747 17.2946 23.5996 17.3894 23.7548 17.4541C23.9099 17.5144 24.0996 17.5446 24.3193 17.5446C24.5391 17.5446 24.746 17.5101 24.9356 17.4411C25.1252 17.3722 25.2933 17.2731 25.4399 17.1395C25.5864 17.0102 25.7114 16.8464 25.8148 16.6568C25.9182 16.4672 25.9915 16.2517 26.0432 16.0103L26.8577 11.9593C26.8663 11.9248 26.8793 11.8946 26.9094 11.8645C26.9353 11.8386 26.9741 11.8127 27.0301 11.7955C27.0818 11.7783 27.1551 11.7653 27.2499 11.7524C27.3404 11.7438 27.4525 11.7352 27.5861 11.7352C27.7197 11.7352 27.8274 11.7395 27.9093 11.7524C27.9912 11.761 28.0558 11.774 28.1075 11.7955C28.1549 11.8127 28.1894 11.8386 28.2023 11.8645C28.2196 11.8946 28.2239 11.9248 28.2153 11.9593L27.3964 16.0448L27.4007 16.0534ZM36.3088 18.372C36.3002 18.4065 36.2829 18.4367 36.2614 18.4668C36.2398 18.4927 36.2054 18.5186 36.1536 18.5358C36.1019 18.553 36.033 18.566 35.9468 18.5746C35.8606 18.5832 35.7528 18.5875 35.6236 18.5875C35.4943 18.5875 35.3779 18.5875 35.296 18.5746C35.2141 18.566 35.1495 18.553 35.1021 18.5358C35.059 18.5186 35.0288 18.4927 35.0159 18.4668C35.003 18.4367 35.003 18.4065 35.0073 18.372L36.1062 12.86H36.0976L33.0248 18.3677C32.9817 18.4539 32.8999 18.5143 32.7835 18.5444C32.6628 18.5746 32.4904 18.5875 32.2706 18.5875C32.0509 18.5875 31.8828 18.566 31.7793 18.5272C31.6802 18.4884 31.6285 18.4367 31.6242 18.3807L30.8312 12.8557H30.8226L29.7193 18.372C29.7107 18.4065 29.6978 18.4367 29.6762 18.4668C29.6547 18.4927 29.6159 18.5186 29.5642 18.5358C29.5125 18.553 29.4478 18.566 29.3616 18.5746C29.2754 18.5832 29.1677 18.5875 29.0341 18.5875C28.9005 18.5875 28.7928 18.5875 28.7109 18.5746C28.629 18.566 28.5643 18.553 28.5169 18.5358C28.4695 18.5186 28.4437 18.4927 28.4264 18.4668C28.4135 18.4367 28.4092 18.4065 28.4221 18.372L29.6245 12.3342C29.6418 12.248 29.6676 12.1661 29.7064 12.0972C29.7452 12.0282 29.7883 11.9679 29.8443 11.9205C29.896 11.8731 29.9607 11.8386 30.0296 11.8127C30.0986 11.7869 30.1762 11.774 30.2537 11.774H31.1113C31.2665 11.774 31.3958 11.7869 31.5035 11.8127C31.6113 11.8386 31.7018 11.886 31.7707 11.9463C31.8397 12.011 31.8957 12.0929 31.9302 12.192C31.9647 12.2954 31.9905 12.4161 32.0034 12.5583L32.6585 16.5878H32.6844L35.0073 12.5583C35.0762 12.4204 35.1452 12.304 35.2141 12.2049C35.2831 12.1058 35.3607 12.0239 35.4469 11.9593C35.533 11.8946 35.6279 11.8472 35.7313 11.8171C35.8347 11.7869 35.9597 11.774 36.1019 11.774H37.0759C37.1621 11.774 37.2397 11.7869 37.3 11.8127C37.3603 11.8343 37.4121 11.8731 37.4465 11.9205C37.4853 11.9679 37.5069 12.0239 37.5155 12.0929C37.5241 12.1618 37.5241 12.2394 37.5069 12.3256L36.3045 18.3677L36.3088 18.372ZM42.5233 12.2997C42.5233 12.2437 42.5147 12.1963 42.5018 12.1618C42.4845 12.1273 42.4587 12.0886 42.4242 12.0584C42.3897 12.0239 42.3251 11.9851 42.2346 11.9334C42.144 11.8817 42.032 11.8386 41.9027 11.7998C41.7734 11.7567 41.6269 11.7266 41.4717 11.7007C41.3166 11.6748 41.1485 11.6619 40.9718 11.6619C40.6012 11.6619 40.2607 11.7136 39.9504 11.8214C39.6401 11.9291 39.3729 12.0756 39.1488 12.2653C38.9291 12.4549 38.7524 12.6833 38.6274 12.9462C38.5024 13.2134 38.4378 13.5021 38.4378 13.8124C38.4378 14.0408 38.4679 14.2391 38.5326 14.4072C38.5972 14.5795 38.6791 14.7304 38.7825 14.8597C38.886 14.989 39.0023 15.1053 39.1316 15.2001C39.2609 15.2993 39.3945 15.3898 39.5324 15.4716C39.6703 15.5535 39.8039 15.6311 39.9332 15.7044C40.0625 15.7776 40.1832 15.8552 40.2823 15.9371C40.3857 16.019 40.4676 16.1095 40.5322 16.2086C40.5926 16.3034 40.6271 16.4198 40.6271 16.5491C40.6271 16.6913 40.6012 16.8206 40.5452 16.9412C40.4935 17.0619 40.4116 17.1653 40.3081 17.2558C40.2047 17.3463 40.0711 17.4153 39.916 17.467C39.7608 17.5187 39.5798 17.5446 39.3729 17.5446C39.1402 17.5446 38.9377 17.5144 38.7696 17.4627C38.6015 17.4067 38.455 17.3463 38.3343 17.2817C38.2093 17.217 38.1102 17.1567 38.0283 17.105C37.9464 17.049 37.8775 17.0231 37.8172 17.0231C37.7827 17.0231 37.7525 17.0404 37.7223 17.0748C37.6922 17.1093 37.6663 17.1567 37.6405 17.2127C37.6189 17.2688 37.5974 17.3291 37.5758 17.3981C37.5586 17.467 37.5457 17.5316 37.5327 17.5963C37.5198 17.6609 37.5112 17.7213 37.5026 17.7773C37.4939 17.8333 37.4939 17.8764 37.4939 17.9023C37.4939 18.0057 37.5198 18.0876 37.5672 18.1393C37.6146 18.191 37.6922 18.247 37.7913 18.3031C37.8904 18.3634 38.0154 18.4194 38.1619 18.4712C38.3085 18.5229 38.4808 18.5703 38.6705 18.6048C38.8644 18.6435 39.0713 18.6608 39.2954 18.6608C39.7134 18.6608 40.097 18.6004 40.4417 18.4841C40.7865 18.3677 41.0796 18.204 41.3252 17.9971C41.5666 17.7902 41.7562 17.5446 41.8898 17.2645C42.0234 16.9843 42.088 16.6783 42.088 16.3508C42.088 16.131 42.0579 15.9371 41.9932 15.7647C41.9329 15.5966 41.8467 15.4458 41.7433 15.3165C41.6398 15.1872 41.5191 15.0708 41.3855 14.9717C41.2519 14.8726 41.114 14.7821 40.9761 14.6959C40.8382 14.6097 40.7003 14.5321 40.5667 14.4546C40.4331 14.377 40.3124 14.2994 40.209 14.2132C40.1056 14.1313 40.0194 14.0451 39.9591 13.946C39.8944 13.8512 39.8642 13.7392 39.8642 13.6142C39.8642 13.5064 39.8858 13.3987 39.9246 13.291C39.9634 13.1832 40.028 13.0884 40.1099 13.0022C40.1918 12.916 40.2995 12.8471 40.4331 12.7953C40.5624 12.7436 40.7219 12.7178 40.9115 12.7178C41.1011 12.7178 41.2563 12.7393 41.3985 12.7824C41.5407 12.8255 41.6657 12.8729 41.7734 12.9246C41.8769 12.9764 41.9717 13.0238 42.0449 13.0669C42.1182 13.11 42.1785 13.1315 42.2259 13.1315C42.2561 13.1315 42.2906 13.1143 42.3164 13.0798C42.3466 13.0453 42.3725 12.9979 42.394 12.9462C42.4156 12.8902 42.4371 12.8341 42.4543 12.7695C42.4716 12.7048 42.4845 12.6402 42.4974 12.5799C42.5061 12.5152 42.5147 12.4592 42.519 12.4075C42.5233 12.3558 42.5276 12.3127 42.5276 12.2868L42.5233 12.2997ZM48.0052 11.9765C48.0052 11.9765 48.0052 12.0325 47.9966 12.0886C47.9922 12.1403 47.9836 12.2006 47.9707 12.2653C47.9621 12.3299 47.9491 12.3989 47.9276 12.4678C47.9104 12.5411 47.8888 12.6014 47.8629 12.6617C47.8371 12.7178 47.8069 12.7652 47.7681 12.8083C47.7294 12.8471 47.6906 12.8643 47.6518 12.8643H45.2341L44.9022 14.5149H46.9536C47.001 14.5149 47.0355 14.5321 47.057 14.5666C47.0786 14.6011 47.0872 14.6485 47.0872 14.7131C47.0872 14.739 47.0872 14.7778 47.0786 14.8252C47.0743 14.8769 47.0657 14.9329 47.0527 14.9976C47.0441 15.0622 47.0312 15.1269 47.0096 15.1915C46.9924 15.2562 46.9709 15.3165 46.945 15.3768C46.9191 15.4329 46.889 15.4759 46.8545 15.5104C46.82 15.5449 46.7812 15.5621 46.7381 15.5621H44.6867L44.3032 17.4713H46.7554C46.7985 17.4713 46.8286 17.4886 46.8502 17.5273C46.8717 17.5618 46.8804 17.6178 46.8804 17.6868C46.8804 17.7083 46.8804 17.7514 46.876 17.8032C46.876 17.8549 46.8674 17.9152 46.8545 17.9799C46.8416 18.0445 46.8286 18.1091 46.8114 18.1781C46.7942 18.2427 46.7726 18.3074 46.7468 18.3677C46.7209 18.4237 46.6907 18.4712 46.6562 18.5056C46.6218 18.5401 46.583 18.5574 46.5356 18.5574H43.131C43.0749 18.5574 43.0232 18.5487 42.9801 18.5358C42.9327 18.5186 42.8982 18.4927 42.8681 18.4582C42.8379 18.4194 42.8164 18.3763 42.8077 18.3246C42.7991 18.2686 42.7991 18.204 42.812 18.1264L43.9929 12.2222C44.0231 12.067 44.0877 11.9593 44.1825 11.8903C44.2773 11.8214 44.3851 11.7869 44.5014 11.7869H47.8673C47.9578 11.7869 48.0009 11.8515 48.0009 11.9851L48.0052 11.9765ZM51.8408 17.6222C51.8408 17.648 51.8408 17.6868 51.8321 17.7385C51.8278 17.7902 51.8192 17.8549 51.8063 17.9238C51.7934 17.9928 51.7761 18.066 51.7589 18.1393C51.7373 18.2126 51.7158 18.2815 51.6899 18.3419C51.6641 18.4022 51.6339 18.4539 51.5994 18.4927C51.5649 18.5315 51.5261 18.5487 51.4787 18.5487H48.3715C48.3155 18.5487 48.2637 18.5401 48.2163 18.5272C48.1689 18.5099 48.1301 18.4841 48.1 18.4496C48.0698 18.4108 48.0483 18.3677 48.0396 18.316C48.031 18.26 48.031 18.1953 48.044 18.1178L49.2765 11.9593C49.2765 11.9248 49.2981 11.8946 49.3239 11.8645C49.3498 11.8386 49.3929 11.8127 49.4532 11.7955C49.5092 11.7783 49.5868 11.7653 49.673 11.7567C49.7635 11.7481 49.8756 11.7438 50.0135 11.7438C50.1514 11.7438 50.2548 11.7438 50.341 11.7567C50.4272 11.7653 50.4961 11.7783 50.5436 11.7955C50.591 11.8127 50.6254 11.8386 50.6384 11.8645C50.6513 11.8946 50.6599 11.9248 50.6513 11.9593L49.5653 17.4153H51.7072C51.7546 17.4153 51.789 17.4368 51.8106 17.4713C51.8321 17.5101 51.8408 17.5618 51.8408 17.6222ZM58.0337 13.1574C58.0337 13.3642 58.0036 13.5582 57.9475 13.7392C57.8915 13.9245 57.8053 14.0926 57.6976 14.2434C57.5898 14.3942 57.4562 14.5278 57.3011 14.6442C57.1459 14.7605 56.9735 14.8554 56.7839 14.9243C56.9348 14.9502 57.077 15.0019 57.202 15.0708C57.3312 15.1398 57.439 15.2303 57.5295 15.338C57.62 15.4458 57.6933 15.5751 57.7407 15.7259C57.7924 15.8724 57.8139 16.0405 57.8139 16.2258C57.8139 16.3939 57.7924 16.5663 57.745 16.7473C57.7019 16.924 57.6286 17.1007 57.5295 17.2731C57.4347 17.4455 57.3054 17.6092 57.1502 17.7644C56.9951 17.9195 56.8055 18.0574 56.5857 18.1738C56.3659 18.2902 56.1116 18.385 55.8229 18.4539C55.5341 18.5229 55.198 18.5574 54.8144 18.5574H52.9354C52.7932 18.5574 52.6898 18.5229 52.6251 18.4539C52.5605 18.385 52.5432 18.2772 52.5734 18.1264L53.7542 12.2222C53.7844 12.067 53.8447 11.9593 53.9396 11.8903C54.0344 11.8214 54.1464 11.7869 54.2714 11.7869H55.9048C56.2625 11.7869 56.5728 11.8171 56.8356 11.8688C57.0985 11.9248 57.314 12.0067 57.495 12.123C57.6717 12.2351 57.8053 12.3773 57.8958 12.5497C57.9863 12.7221 58.0294 12.9246 58.0294 13.166L58.0337 13.1574ZM56.6202 13.4159C56.6202 13.3168 56.6029 13.2306 56.5684 13.1574C56.534 13.0841 56.4822 13.0195 56.4133 12.9677C56.34 12.916 56.2538 12.8729 56.1461 12.8471C56.0427 12.8169 55.9048 12.804 55.741 12.804H54.9911L54.642 14.5623H55.4135C55.6419 14.5623 55.8272 14.5278 55.978 14.4546C56.1289 14.3813 56.2495 14.2908 56.3443 14.1787C56.4392 14.0667 56.5124 13.9417 56.5512 13.8038C56.5943 13.6659 56.6158 13.5366 56.6158 13.4116L56.6202 13.4159ZM56.3831 16.2948C56.3831 16.0707 56.3012 15.894 56.1332 15.7647C55.9694 15.6354 55.7065 15.5708 55.3445 15.5708H54.4352L54.0473 17.5015H55.0213C55.2669 17.5015 55.4781 17.467 55.6462 17.3981C55.8142 17.3291 55.9565 17.2386 56.0642 17.1265C56.1763 17.0145 56.2538 16.8852 56.3055 16.7387C56.3573 16.5921 56.3831 16.4456 56.3831 16.2948ZM64.0284 18.0402L63.145 12.0325C63.1363 11.9679 63.1234 11.9162 63.1019 11.8774C63.0803 11.8386 63.0372 11.8127 62.9726 11.7912C62.9079 11.7696 62.8131 11.761 62.6968 11.7524C62.5761 11.7481 62.4166 11.7438 62.2141 11.7438C62.0331 11.7438 61.8909 11.7438 61.7788 11.7524C61.6668 11.7567 61.5806 11.7696 61.5159 11.7912C61.4513 11.8127 61.3996 11.8386 61.3651 11.8731C61.3306 11.9076 61.2961 11.955 61.2616 12.0153L57.982 18.0273C57.9174 18.1522 57.8699 18.2471 57.8484 18.3203C57.8269 18.3936 57.8312 18.4496 57.857 18.4884C57.8872 18.5272 57.9475 18.553 58.0337 18.5617C58.1242 18.5703 58.2492 18.5789 58.4087 18.5789C58.5595 18.5789 58.6845 18.5789 58.7836 18.5703C58.8827 18.5617 58.9603 18.5487 59.0206 18.5358C59.081 18.5186 59.1241 18.4927 59.1542 18.4582C59.1844 18.4281 59.2146 18.385 59.2361 18.3332L59.9343 17.0059H62.4727L62.658 18.3677C62.658 18.4151 62.6709 18.4539 62.6881 18.4841C62.7054 18.5143 62.7399 18.5358 62.783 18.5487C62.8304 18.5617 62.895 18.5746 62.9812 18.5789C63.0674 18.5832 63.1751 18.5875 63.313 18.5875C63.4984 18.5875 63.6449 18.5875 63.7526 18.5746C63.8604 18.566 63.9336 18.5444 63.981 18.5056C64.0284 18.4668 64.05 18.4108 64.0543 18.3376C64.0543 18.2643 64.05 18.1652 64.0328 18.0402H64.0284ZM61.9684 13.0712L62.3563 15.9457H60.4557L61.9641 13.0712H61.9684ZM70.424 13.1574C70.424 13.3642 70.3938 13.5582 70.3378 13.7392C70.2817 13.9245 70.1955 14.0926 70.0878 14.2434C69.9801 14.3942 69.8465 14.5278 69.6913 14.6442C69.5362 14.7605 69.3638 14.8554 69.1742 14.9243C69.325 14.9502 69.4672 15.0019 69.5922 15.0708C69.7215 15.1398 69.8292 15.2303 69.9197 15.338C70.0102 15.4458 70.0835 15.5751 70.1309 15.7259C70.1826 15.8724 70.2042 16.0405 70.2042 16.2258C70.2042 16.3939 70.1826 16.5663 70.1352 16.7473C70.0921 16.924 70.0189 17.1007 69.9197 17.2731C69.8249 17.4455 69.6956 17.6092 69.5405 17.7644C69.3853 17.9195 69.1957 18.0574 68.9759 18.1738C68.7561 18.2902 68.5019 18.385 68.2131 18.4539C67.9244 18.5229 67.5882 18.5574 67.2047 18.5574H65.3256C65.1834 18.5574 65.08 18.5229 65.0154 18.4539C64.9507 18.385 64.9335 18.2772 64.9636 18.1264L66.1445 12.2222C66.1746 12.067 66.235 11.9593 66.3298 11.8903C66.4246 11.8214 66.5367 11.7869 66.6659 11.7869H68.2993C68.657 11.7869 68.9673 11.8171 69.2302 11.8688C69.4931 11.9248 69.7086 12.0067 69.8896 12.123C70.0663 12.2351 70.1999 12.3773 70.2904 12.5497C70.3809 12.7221 70.424 12.9246 70.424 13.166V13.1574ZM69.0104 13.4159C69.0104 13.3168 68.9931 13.2306 68.9587 13.1574C68.9242 13.0841 68.8725 13.0195 68.8035 12.9677C68.7303 12.916 68.6441 12.8729 68.5363 12.8471C68.4329 12.8169 68.295 12.804 68.1312 12.804H67.3813L67.0323 14.5623H67.8037C68.0321 14.5623 68.2174 14.5278 68.3683 14.4546C68.5191 14.3813 68.6398 14.2908 68.7346 14.1787C68.8294 14.0667 68.9026 13.9417 68.9414 13.8038C68.9845 13.6659 69.0061 13.5366 69.0061 13.4116L69.0104 13.4159ZM68.7734 16.2948C68.7734 16.0707 68.6915 15.894 68.5234 15.7647C68.3596 15.6354 68.0967 15.5708 67.7347 15.5708H66.8254L66.4375 17.5015H67.4072C67.6529 17.5015 67.864 17.467 68.0321 17.3981C68.2002 17.3291 68.3424 17.2386 68.4501 17.1265C68.5622 17.0145 68.6398 16.8852 68.6915 16.7387C68.7432 16.5921 68.7691 16.4456 68.7691 16.2948H68.7734ZM76.1644 11.9765C76.1644 11.9765 76.1644 12.0325 76.1558 12.0886C76.1515 12.1403 76.1429 12.2006 76.1299 12.2653C76.1213 12.3299 76.1084 12.3989 76.0868 12.4678C76.0696 12.5411 76.048 12.6014 76.0222 12.6617C75.9963 12.7178 75.9662 12.7652 75.9274 12.8083C75.8886 12.8471 75.8498 12.8643 75.811 12.8643H73.3933L73.0615 14.5149H75.1129C75.1603 14.5149 75.1947 14.5321 75.2163 14.5666C75.2378 14.6011 75.2465 14.6485 75.2465 14.7131C75.2465 14.739 75.2465 14.7778 75.2378 14.8252C75.2335 14.8769 75.2249 14.9329 75.212 14.9976C75.2034 15.0622 75.1904 15.1269 75.1689 15.1915C75.1516 15.2562 75.1301 15.3165 75.1042 15.3768C75.0784 15.4329 75.0482 15.4759 75.0137 15.5104C74.9793 15.5449 74.9405 15.5621 74.8974 15.5621H72.846L72.4624 17.4713H74.9146C74.9577 17.4713 74.9879 17.4886 75.0094 17.5273C75.031 17.5618 75.0396 17.6178 75.0396 17.6868C75.0396 17.7083 75.0396 17.7514 75.0353 17.8032C75.0353 17.8549 75.0267 17.9152 75.0137 17.9799C75.0008 18.0445 74.9879 18.1091 74.9706 18.1781C74.9534 18.2427 74.9318 18.3074 74.906 18.3677C74.8801 18.4237 74.85 18.4712 74.8155 18.5056C74.781 18.5401 74.7422 18.5574 74.6948 18.5574H71.2902C71.2342 18.5574 71.1825 18.5487 71.1394 18.5358C71.092 18.5186 71.0575 18.4927 71.0273 18.4582C70.9971 18.4194 70.9756 18.3763 70.967 18.3246C70.9584 18.2686 70.9584 18.204 70.9713 18.1264L72.1521 12.2222C72.1823 12.067 72.2469 11.9593 72.3418 11.8903C72.4366 11.8214 72.5443 11.7869 72.6607 11.7869H76.0265C76.117 11.7869 76.1601 11.8515 76.1601 11.9851L76.1644 11.9765ZM80 17.6222C80 17.648 80 17.6868 79.9914 17.7385C79.9871 17.7902 79.9784 17.8549 79.9655 17.9238C79.9526 17.9928 79.9353 18.066 79.9181 18.1393C79.8966 18.2126 79.875 18.2815 79.8492 18.3419C79.8233 18.4022 79.7931 18.4539 79.7587 18.4927C79.7242 18.5315 79.6854 18.5487 79.638 18.5487H76.5307C76.4747 18.5487 76.423 18.5401 76.3756 18.5272C76.3282 18.5099 76.2894 18.4841 76.2592 18.4496C76.229 18.4108 76.2075 18.3677 76.1989 18.316C76.1903 18.26 76.1903 18.1953 76.2032 18.1178L77.4358 11.9593C77.4358 11.9248 77.4573 11.8946 77.4832 11.8645C77.509 11.8386 77.5521 11.8127 77.6124 11.7955C77.6685 11.7783 77.7461 11.7653 77.8322 11.7567C77.9227 11.7481 78.0348 11.7438 78.1727 11.7438C78.3106 11.7438 78.414 11.7438 78.5002 11.7567C78.5864 11.7653 78.6554 11.7783 78.7028 11.7955C78.7502 11.8127 78.7847 11.8386 78.7976 11.8645C78.8105 11.8946 78.8192 11.9248 78.8105 11.9593L77.7245 17.4153H79.8664C79.9138 17.4153 79.9483 17.4368 79.9698 17.4713C79.9914 17.5101 80 17.5618 80 17.6222Z" fill="#0077B3"/>
</g>
<defs>
<clipPath id="clip0_801_8262">
<rect width="80" height="21.5181" fill="white"/>
</clipPath>
</defs>
</svg>
