<svg width="81" height="25" viewBox="0 0 81 25" fill="none" xmlns="http://www.w3.org/2000/svg">
<g clip-path="url(#clip0_801_8522)">
<path d="M4.673 5.21992C4.46001 5.5175 4.04523 5.58476 3.74867 5.37074C3.45109 5.15775 3.38382 4.74297 3.59784 4.44641C4.34892 3.40284 5.07555 2.70679 5.9153 2.32768C6.78052 1.93634 7.72014 1.89354 8.87072 2.16971C9.61773 2.34806 10.2791 2.30424 10.859 2.02194C11.4613 1.72844 12.0025 1.17099 12.4845 0.332257C12.6669 0.0153133 13.0725 -0.0937316 13.3895 0.0876702C13.7064 0.270091 13.8154 0.675698 13.633 0.992641C13.0114 2.07392 12.2817 2.80768 11.4409 3.21736C10.5767 3.63927 9.61977 3.71163 8.56397 3.45889C7.71403 3.25507 7.04447 3.27443 6.46052 3.53838C5.85007 3.81456 5.28651 4.36896 4.673 5.21992Z" fill="#4198FF"/>
<path d="M1.70025 14.984C1.48726 15.2806 1.07248 15.3489 0.775917 15.1349C0.478337 14.9208 0.411075 14.5061 0.625089 14.2095C1.37617 13.1659 2.1028 12.4709 2.94255 12.0908C3.80777 11.6994 4.7474 11.6576 5.89797 11.9328C6.64498 12.1122 7.30638 12.0683 7.88626 11.7861C8.48855 11.4925 9.02868 10.9351 9.51174 10.0964C9.69416 9.7784 10.0998 9.66936 10.4167 9.85178C10.7337 10.0342 10.8427 10.4388 10.6603 10.7557C10.0386 11.837 9.30894 12.5718 8.46817 12.9815C7.60397 13.4024 6.64702 13.4747 5.59122 13.222C4.74128 13.0182 4.07172 13.0385 3.48777 13.3025C2.87733 13.5787 2.31376 14.132 1.70025 14.984Z" fill="#4198FF"/>
<path d="M5.46383 7.03292C5.24982 7.3305 4.83606 7.39776 4.53848 7.18374C4.24191 6.96973 4.17363 6.55597 4.38765 6.25839C5.13873 5.21482 5.86638 4.51979 6.70511 4.14068C7.57135 3.74832 8.51097 3.70654 9.66053 3.9817C10.4075 4.16106 11.07 4.11724 11.6488 3.83494C12.2521 3.54144 12.7923 2.98399 13.2753 2.14526C13.4577 1.82831 13.8623 1.71825 14.1793 1.90067C14.4962 2.08309 14.6063 2.48768 14.4239 2.80564C13.8012 3.88692 13.0725 4.62068 12.2307 5.03036C11.3665 5.45227 10.4096 5.52361 9.35378 5.27087C8.50384 5.06705 7.83428 5.08743 7.25135 5.35138C6.6409 5.62756 6.07632 6.18196 5.46383 7.03292Z" fill="#4198FF"/>
<path d="M2.49108 16.797C2.27707 17.0936 1.86229 17.1608 1.56573 16.9468C1.26815 16.7338 1.20089 16.3191 1.4149 16.0225C2.16599 14.9789 2.89363 14.2839 3.73236 13.9038C4.59861 13.5124 5.53721 13.4696 6.68778 13.7458C7.43479 13.9241 8.0962 13.8813 8.67607 13.599C9.27938 13.3045 9.81951 12.7471 10.3026 11.9083C10.485 11.5914 10.8896 11.4824 11.2065 11.6648C11.5235 11.8462 11.6335 12.2518 11.4511 12.5687C10.8284 13.65 10.0998 14.3848 9.25798 14.7945C8.39378 15.2154 7.43683 15.2877 6.38103 15.035C5.53109 14.8312 4.86154 14.8505 4.27758 15.1145C3.66714 15.3906 3.10357 15.945 2.49108 16.797Z" fill="#4198FF"/>
<path d="M6.32498 9.00897C6.11097 9.30553 5.69721 9.37381 5.39963 9.1598C5.10306 8.94579 5.03478 8.53101 5.2488 8.23445C5.99988 7.19088 6.72753 6.49584 7.56626 6.11673C8.4325 5.72438 9.37212 5.68259 10.5217 5.95775C11.2697 6.13712 11.9311 6.09329 12.51 5.811C13.1133 5.5175 13.6534 4.96004 14.1365 4.12131C14.3189 3.80335 14.7235 3.69431 15.0404 3.87673C15.3584 4.05915 15.4674 4.46374 15.285 4.78068C14.6623 5.86196 13.9337 6.59674 13.0929 7.00642C12.2277 7.42731 11.2717 7.49967 10.2159 7.24693C9.36499 7.04311 8.69645 7.06349 8.1125 7.32744C7.50205 7.60362 6.93747 8.157 6.32498 9.00897Z" fill="#4198FF"/>
<path d="M3.35223 18.7721C3.13822 19.0696 2.72446 19.1369 2.42688 18.9229C2.13032 18.7089 2.06204 18.2951 2.27605 17.9975C3.02713 16.955 3.75478 16.2589 4.59351 15.8798C5.45975 15.4885 6.39937 15.4457 7.54893 15.7208C8.29594 15.9002 8.95836 15.8564 9.53722 15.5741C10.1405 15.2806 10.6807 14.7231 11.1637 13.8844C11.3461 13.5675 11.7507 13.4584 12.0677 13.6398C12.3846 13.8222 12.4947 14.2268 12.3123 14.5448C11.6896 15.6261 10.9609 16.3598 10.1191 16.7695C9.25492 17.1914 8.29798 17.2628 7.24218 17.01C6.39224 16.8072 5.7237 16.8266 5.13975 17.0905C4.5293 17.3667 3.96472 17.9211 3.35223 18.7721Z" fill="#4198FF"/>
<path d="M7.1046 10.7985C6.8916 11.0951 6.47683 11.1624 6.18027 10.9494C5.88268 10.7353 5.81542 10.3206 6.02944 10.024C6.78052 8.98044 7.50715 8.2854 8.3469 7.90527C9.21212 7.51394 10.1517 7.47215 11.3023 7.74731C12.0493 7.92668 12.7107 7.88285 13.2906 7.60056C13.8929 7.30706 14.434 6.7496 14.9161 5.91087C15.0985 5.59291 15.5041 5.48387 15.8211 5.66629C16.138 5.84871 16.247 6.25329 16.0656 6.57024C15.443 7.65152 14.7133 8.3863 13.8725 8.79598C13.0083 9.21687 12.0514 9.28923 10.9956 9.03649C10.1456 8.83267 9.47607 8.85305 8.89212 9.117C8.28167 9.39318 7.7181 9.94655 7.1046 10.7985Z" fill="#4198FF"/>
<path d="M4.13185 20.5616C3.91886 20.8592 3.50408 20.9265 3.20752 20.7124C2.90994 20.4984 2.84267 20.0847 3.05669 19.7871C3.80777 18.7435 4.5344 18.0485 5.37415 17.6694C6.23937 17.277 7.17899 17.2352 8.32957 17.5104C9.07658 17.6898 9.73798 17.6459 10.3179 17.3636C10.9202 17.0701 11.4603 16.5127 11.9433 15.674C12.1258 15.357 12.5314 15.247 12.8483 15.4294C13.1653 15.6118 13.2743 16.0164 13.0919 16.3343C12.4702 17.4156 11.7405 18.1494 10.8998 18.5591C10.0356 18.981 9.07862 19.0523 8.02282 18.7996C7.17288 18.5958 6.50332 18.6161 5.91937 18.8801C5.30892 19.1563 4.74536 19.7107 4.13185 20.5616Z" fill="#4198FF"/>
<path fill-rule="evenodd" clip-rule="evenodd" d="M27.3207 6.04438C27.2963 6.22272 27.2484 6.39291 27.177 6.55189C27.1057 6.71291 27.0129 6.85865 26.8998 6.99113C26.7867 7.12362 26.6552 7.24081 26.5064 7.34171C26.3587 7.44362 26.1966 7.52617 26.0213 7.58629C26.1508 7.60973 26.268 7.65355 26.3699 7.7147C26.4749 7.77483 26.5584 7.8533 26.6257 7.94604C26.6919 8.04184 26.7398 8.15394 26.7653 8.28336C26.7918 8.41177 26.7938 8.5575 26.7724 8.71954C26.7521 8.86528 26.7113 9.01712 26.6512 9.17407C26.591 9.32999 26.5085 9.48388 26.4025 9.63165C26.2985 9.78146 26.1681 9.92515 26.0132 10.0607C25.8593 10.1962 25.6779 10.3145 25.471 10.4153C25.2652 10.5183 25.0318 10.5998 24.7729 10.6589C24.512 10.718 24.2155 10.7476 23.8822 10.7476H22.2415C22.1171 10.7476 22.0305 10.716 21.9826 10.6559C21.9347 10.5947 21.9327 10.4999 21.9775 10.3695L23.7019 5.21788C23.7457 5.08437 23.8109 4.98756 23.9036 4.92845C23.9954 4.86934 24.0962 4.83979 24.2063 4.83979H25.631C25.9439 4.83979 26.2099 4.86425 26.431 4.91316C26.6522 4.96106 26.8336 5.03444 26.9742 5.13431C27.1159 5.23214 27.2157 5.3575 27.2749 5.50832C27.334 5.65915 27.3482 5.83648 27.3207 6.04438ZM26.056 6.26858C26.0682 6.18298 26.0621 6.10756 26.0417 6.04438C26.0183 5.98017 25.9816 5.92412 25.9266 5.87928C25.8705 5.83342 25.7992 5.79775 25.7085 5.77431C25.6198 5.74985 25.5036 5.73762 25.3599 5.73762H24.7057L24.1931 7.27037H24.8677C25.0654 7.27037 25.2336 7.23878 25.3732 7.17661C25.5118 7.11444 25.63 7.03495 25.7258 6.93508C25.8236 6.83725 25.8991 6.7282 25.9531 6.60998C26.0071 6.49075 26.0417 6.37763 26.056 6.26858ZM25.5118 8.77967C25.5373 8.58502 25.4863 8.43114 25.3569 8.31903C25.2295 8.20489 25.0073 8.14884 24.6914 8.14884H23.8965L23.3329 9.8314H24.1808C24.3959 9.8314 24.5824 9.80082 24.7362 9.73967C24.8932 9.67853 25.0247 9.59904 25.1327 9.50324C25.2427 9.40439 25.3284 9.29229 25.3905 9.16592C25.4527 9.04057 25.4935 8.91114 25.5118 8.77967ZM31.974 10.3002C31.975 10.4113 31.9689 10.4969 31.9587 10.5611C31.9485 10.6243 31.922 10.6732 31.8772 10.7058C31.8313 10.7364 31.763 10.7567 31.6682 10.7649C31.5735 10.772 31.4451 10.7761 31.283 10.7761C31.1648 10.7761 31.07 10.7741 30.9967 10.77C30.9233 10.7649 30.8672 10.7557 30.8285 10.7435C30.7908 10.7323 30.7653 10.7129 30.7531 10.6885C30.7409 10.665 30.7358 10.6304 30.7388 10.5886V9.40133H28.5263L27.76 10.5611C27.7324 10.6039 27.7039 10.6406 27.6723 10.6681C27.6417 10.6976 27.5989 10.719 27.5449 10.7353C27.4919 10.7496 27.4206 10.7598 27.334 10.7659C27.2453 10.772 27.1363 10.7761 27.0048 10.7761C26.8652 10.7761 26.7551 10.771 26.6787 10.7618C26.6022 10.7527 26.5533 10.7303 26.5319 10.6966C26.5115 10.6599 26.5146 10.612 26.5421 10.5478C26.5717 10.4826 26.6216 10.399 26.694 10.291L30.2639 5.04871C30.3026 4.99673 30.3393 4.95495 30.373 4.92437C30.4086 4.89074 30.4555 4.86832 30.5156 4.851C30.5737 4.83367 30.6512 4.82246 30.75 4.81839C30.8468 4.81329 30.9742 4.81125 31.1312 4.81125C31.3085 4.81125 31.4491 4.81329 31.5521 4.81839C31.655 4.82246 31.7345 4.83367 31.7895 4.851C31.8446 4.86832 31.8792 4.89278 31.8914 4.92539C31.9057 4.96004 31.9118 5.00488 31.9108 5.06297L31.974 10.3002ZM30.7643 5.96794H30.7602L29.1062 8.47598H30.7633L30.7643 5.96794ZM37.6535 10.3287C37.6321 10.399 37.6005 10.4612 37.5567 10.5152C37.5149 10.5703 37.467 10.6151 37.415 10.6528C37.362 10.6885 37.307 10.715 37.2469 10.7323C37.1888 10.7496 37.1286 10.7567 37.0675 10.7567H36.5539C36.4448 10.7567 36.3572 10.7455 36.2899 10.7262C36.2247 10.7038 36.1707 10.665 36.1279 10.611C36.0851 10.556 36.0504 10.4816 36.0239 10.3878C35.9974 10.2931 35.973 10.1728 35.9516 10.026L35.4308 7.38757C35.3911 7.18272 35.3564 6.9789 35.3289 6.77202C35.3004 6.56412 35.2739 6.35826 35.2494 6.15444H35.2433C35.1801 6.39495 35.1139 6.63138 35.0415 6.86476C34.9712 7.09712 34.8948 7.33049 34.8142 7.56591L33.8023 10.5845C33.7921 10.6141 33.7737 10.6416 33.7472 10.6671C33.7228 10.6895 33.6851 10.7099 33.6362 10.7262C33.5893 10.7394 33.5281 10.7527 33.4558 10.7618C33.3824 10.771 33.2937 10.7761 33.1857 10.7761C33.0797 10.7761 32.9931 10.771 32.9258 10.7618C32.8606 10.7527 32.8086 10.7394 32.775 10.7262C32.7393 10.7099 32.719 10.6895 32.7108 10.6671C32.7057 10.6416 32.7077 10.6141 32.721 10.5845L34.5044 5.26985C34.5503 5.12616 34.6267 5.01915 34.7337 4.94679C34.8397 4.87546 34.9539 4.83979 35.0751 4.83979H35.7019C35.8028 4.83979 35.8874 4.851 35.9567 4.87444C36.026 4.89788 36.082 4.93355 36.1248 4.98348C36.1676 5.03444 36.2043 5.09864 36.2308 5.17813C36.2593 5.25762 36.2818 5.35342 36.2991 5.4696L36.8178 8.13152C36.8525 8.30171 36.881 8.4719 36.9065 8.63802C36.9309 8.80617 36.9564 8.9733 36.985 9.14146H37.0013C37.0644 8.92133 37.1327 8.69611 37.2051 8.46375C37.2764 8.23037 37.3488 8.00413 37.4211 7.784L38.3577 4.99979C38.3689 4.96921 38.3842 4.94272 38.4097 4.91928C38.4341 4.89584 38.4698 4.87851 38.5146 4.86425C38.5605 4.851 38.6186 4.83979 38.6889 4.83163C38.7592 4.8245 38.8479 4.82144 38.9529 4.82144C39.0599 4.82144 39.1485 4.8245 39.2188 4.83163C39.2881 4.83979 39.3391 4.851 39.3748 4.86425C39.4094 4.87851 39.4318 4.89584 39.441 4.91928C39.4502 4.94272 39.4502 4.96921 39.439 4.99979L37.6535 10.3287ZM44.935 5.00386C44.9279 5.05788 44.9004 5.11597 44.8525 5.17813C44.8036 5.23826 44.7292 5.31673 44.6293 5.41457L42.2354 7.63011L43.1251 10.2645C43.1414 10.3257 43.1516 10.3766 43.1577 10.4225C43.1648 10.4653 43.1648 10.506 43.1608 10.5417C43.1547 10.5855 43.1404 10.6212 43.1159 10.6497C43.0915 10.6793 43.0548 10.7027 43.0038 10.7211C42.9529 10.7394 42.8856 10.7527 42.802 10.7618C42.7185 10.771 42.6115 10.7761 42.4851 10.7761C42.3557 10.7761 42.2517 10.772 42.1733 10.7649C42.0958 10.7567 42.0347 10.7445 41.9898 10.7303C41.947 10.715 41.9154 10.6936 41.8971 10.6671C41.8808 10.6385 41.8675 10.608 41.8604 10.5703L40.989 7.77075L40.0555 10.5845C40.0464 10.6171 40.027 10.6446 39.9995 10.6681C39.973 10.6915 39.9332 10.7099 39.8813 10.7272C39.8283 10.7445 39.7631 10.7567 39.6836 10.7649C39.6061 10.772 39.5093 10.7761 39.3941 10.7761C39.2759 10.7761 39.1781 10.772 39.1047 10.7649C39.0303 10.7567 38.9732 10.7445 38.9335 10.7272C38.8917 10.7099 38.8662 10.6915 38.854 10.6681C38.8418 10.6446 38.8428 10.6171 38.856 10.5845L40.7231 4.99877C40.7312 4.96616 40.7485 4.93762 40.7771 4.91418C40.8036 4.89074 40.8433 4.8724 40.8963 4.85711C40.9483 4.84284 41.0155 4.83062 41.095 4.82246C41.1735 4.81533 41.2734 4.81125 41.3916 4.81125C41.5078 4.81125 41.6015 4.81533 41.6739 4.82246C41.7462 4.83062 41.8033 4.84284 41.8441 4.85711C41.8838 4.8724 41.9093 4.89074 41.9215 4.91418C41.9338 4.93762 41.9348 4.96616 41.9246 4.99877L41.0818 7.52413L43.6092 5.01711C43.6449 4.98144 43.6826 4.94883 43.7203 4.9203C43.76 4.89482 43.8079 4.8724 43.866 4.85711C43.9231 4.84284 43.9913 4.83062 44.0729 4.82246C44.1544 4.81533 44.2543 4.81125 44.3725 4.81125C44.4927 4.81125 44.5906 4.81533 44.667 4.82246C44.7424 4.83062 44.7995 4.84284 44.8413 4.86017C44.881 4.87546 44.9075 4.89584 44.9218 4.91928C44.934 4.94272 44.9401 4.97023 44.935 5.00386Z" fill="#4198FF"/>
<path fill-rule="evenodd" clip-rule="evenodd" d="M24.8249 13.1639C24.8198 13.1894 24.8106 13.2261 24.7974 13.274C24.7841 13.3219 24.7678 13.3738 24.7475 13.4319C24.7281 13.489 24.7047 13.5481 24.6792 13.6062C24.6547 13.6653 24.6272 13.7193 24.5966 13.7692C24.5671 13.8182 24.5355 13.8589 24.5039 13.8915C24.4723 13.9221 24.4417 13.9384 24.4122 13.9384C24.3684 13.9384 24.3164 13.9191 24.2573 13.8783C24.1971 13.8375 24.1217 13.7957 24.0341 13.7478C23.9454 13.701 23.8384 13.6582 23.7151 13.6184C23.5928 13.5766 23.4491 13.5573 23.283 13.5573C23.1128 13.5573 22.963 13.5817 22.8366 13.6296C22.7092 13.6765 22.6002 13.7397 22.5095 13.8182C22.4208 13.8966 22.3485 13.9822 22.2955 14.0801C22.2415 14.1759 22.2058 14.2757 22.1885 14.3736C22.1681 14.4867 22.1793 14.5876 22.2211 14.6763C22.2618 14.7639 22.325 14.8434 22.4076 14.9188C22.4901 14.9932 22.5859 15.0666 22.696 15.1369C22.8061 15.2062 22.9182 15.2785 23.0303 15.355C23.1424 15.4314 23.2524 15.514 23.3584 15.6057C23.4644 15.6964 23.5551 15.8003 23.6295 15.9196C23.7049 16.0398 23.7569 16.1754 23.7864 16.3293C23.816 16.4842 23.814 16.6615 23.7783 16.8622C23.7263 17.1598 23.6162 17.438 23.4491 17.6938C23.283 17.9496 23.0731 18.1708 22.8183 18.3614C22.5615 18.5499 22.268 18.6977 21.9347 18.8057C21.6015 18.9147 21.2438 18.9688 20.8616 18.9688C20.6547 18.9688 20.4682 18.9524 20.299 18.9178C20.1309 18.8852 19.9831 18.8434 19.8567 18.7955C19.7314 18.7486 19.6264 18.6977 19.5449 18.6447C19.4613 18.5927 19.4022 18.5417 19.3666 18.4949C19.3309 18.4459 19.3207 18.3746 19.338 18.2778C19.3421 18.2533 19.3523 18.2146 19.3676 18.1637C19.3839 18.1117 19.4012 18.0566 19.4236 17.9986C19.445 17.9394 19.4685 17.8793 19.495 17.8161C19.5225 17.754 19.552 17.6969 19.5816 17.647C19.6132 17.596 19.6448 17.5542 19.6774 17.5216C19.71 17.49 19.7406 17.4737 19.7732 17.4737C19.8272 17.4737 19.8863 17.4982 19.9525 17.5491C20.0188 17.598 20.1013 17.651 20.2032 17.7101C20.3031 17.7703 20.4254 17.8253 20.5701 17.8763C20.7138 17.9262 20.8911 17.9527 21.1052 17.9527C21.2917 17.9527 21.4618 17.9282 21.6127 17.8814C21.7625 17.8335 21.8929 17.7682 22.003 17.6877C22.1141 17.6042 22.2017 17.5104 22.27 17.4003C22.3403 17.2913 22.3852 17.1731 22.4086 17.0426C22.429 16.9254 22.4188 16.8215 22.377 16.7338C22.3362 16.6442 22.2761 16.5626 22.1946 16.4872C22.1151 16.4128 22.0203 16.3415 21.9133 16.2742C21.8063 16.208 21.6962 16.1377 21.5862 16.0612C21.4761 15.9848 21.3691 15.9012 21.2662 15.8126C21.1622 15.7239 21.0736 15.6199 21.0022 15.5017C20.9289 15.3805 20.8779 15.2439 20.8494 15.088C20.8198 14.9331 20.8229 14.7506 20.8585 14.5438C20.9095 14.2594 21.0134 13.9955 21.1704 13.7529C21.3263 13.5124 21.523 13.3055 21.7554 13.1313C21.9897 12.959 22.2568 12.8235 22.5564 12.7257C22.855 12.6299 23.175 12.581 23.5133 12.581C23.6733 12.581 23.8241 12.5922 23.9627 12.6166C24.1013 12.6411 24.2287 12.6706 24.3408 12.7083C24.4519 12.744 24.5457 12.7848 24.6201 12.8296C24.6955 12.8745 24.7454 12.9111 24.7729 12.9427C24.8005 12.9713 24.8168 13.0039 24.8259 13.0365C24.8351 13.0712 24.8341 13.1129 24.8249 13.1639ZM29.896 16.584C29.7472 16.9774 29.5617 17.3239 29.3416 17.6205C29.1215 17.918 28.8667 18.1677 28.5803 18.3675C28.295 18.5682 27.9801 18.718 27.6366 18.8189C27.2932 18.9178 26.9243 18.9688 26.5309 18.9688C26.111 18.9688 25.7605 18.9168 25.4771 18.8138C25.1949 18.7099 24.9839 18.557 24.8443 18.3532C24.7047 18.1494 24.6374 17.8936 24.6415 17.5879C24.6455 17.2801 24.723 16.9254 24.8779 16.5219L26.2588 12.8592C26.271 12.8286 26.2904 12.799 26.32 12.7736C26.3485 12.7491 26.3903 12.7277 26.4463 12.7114C26.5014 12.6951 26.5717 12.6839 26.6552 12.6737C26.7378 12.6635 26.8428 12.6594 26.9681 12.6594C27.0873 12.6594 27.1852 12.6635 27.2616 12.6737C27.3401 12.6839 27.4002 12.6951 27.441 12.7114C27.4817 12.7277 27.5072 12.7491 27.5174 12.7736C27.5266 12.799 27.5256 12.8286 27.5143 12.8592L26.1324 16.5219C26.0387 16.7675 25.9867 16.9794 25.9755 17.1578C25.9663 17.3372 25.9949 17.4839 26.058 17.6011C26.1222 17.7163 26.2211 17.8029 26.3546 17.86C26.4881 17.915 26.6542 17.9425 26.856 17.9425C27.0578 17.9425 27.2514 17.9119 27.4359 17.8498C27.6193 17.7866 27.7885 17.6969 27.9434 17.5766C28.0973 17.4574 28.2359 17.3117 28.3602 17.1384C28.4835 16.9662 28.5885 16.7705 28.671 16.5514L30.0682 12.8592C30.0795 12.8286 30.0998 12.799 30.1284 12.7736C30.1579 12.7491 30.1966 12.7277 30.2507 12.7114C30.3026 12.6951 30.3709 12.6839 30.4555 12.6737C30.5391 12.6635 30.642 12.6594 30.7643 12.6594C30.8846 12.6594 30.9814 12.6635 31.0568 12.6737C31.1291 12.6839 31.1872 12.6951 31.23 12.7114C31.2718 12.7277 31.2973 12.7491 31.3075 12.7736C31.3177 12.799 31.3156 12.8286 31.3034 12.8592L29.896 16.584ZM37.6382 18.6946C37.6229 18.7262 37.6036 18.7547 37.5811 18.7812C37.5567 18.8057 37.52 18.8271 37.4721 18.8434C37.4221 18.8577 37.3579 18.8709 37.2764 18.8791C37.1959 18.8872 37.0971 18.8903 36.9788 18.8903C36.8545 18.8903 36.7557 18.8872 36.6813 18.8791C36.6058 18.8709 36.5498 18.8577 36.51 18.8434C36.4723 18.8271 36.4499 18.8057 36.4428 18.7812C36.4357 18.7547 36.4397 18.7262 36.452 18.6946L38.3424 13.6714H38.3332L34.6441 18.6895C34.5921 18.77 34.5085 18.823 34.3944 18.8495C34.2802 18.877 34.1223 18.8903 33.9215 18.8903C33.7146 18.8903 33.5699 18.8719 33.4853 18.8352C33.4018 18.7986 33.363 18.7537 33.3691 18.6997L33.5373 13.6663H33.5271L31.6305 18.6946C31.6183 18.7262 31.5979 18.7547 31.5745 18.7812C31.549 18.8057 31.5123 18.8271 31.4624 18.8434C31.4145 18.8577 31.3503 18.8709 31.2708 18.8791C31.1913 18.8872 31.0904 18.8903 30.9702 18.8903C30.8499 18.8903 30.751 18.8872 30.6767 18.8791C30.6012 18.8709 30.5452 18.8577 30.5065 18.8434C30.4677 18.8271 30.4453 18.8057 30.4361 18.7812C30.428 18.7547 30.4321 18.7262 30.4463 18.6946L32.5182 13.1945C32.5488 13.115 32.5865 13.0436 32.6303 12.9794C32.6751 12.9162 32.7261 12.8622 32.7832 12.8204C32.8402 12.7766 32.9024 12.744 32.9697 12.7226C33.0379 12.7002 33.1083 12.688 33.1816 12.688H33.9623C34.1029 12.688 34.2191 12.7002 34.3139 12.7247C34.4076 12.7491 34.482 12.7889 34.535 12.8459C34.589 12.903 34.6247 12.9784 34.642 13.0691C34.6583 13.1619 34.6614 13.274 34.6512 13.4044L34.5962 17.0773H34.6206L37.3895 13.4044C37.4751 13.279 37.5577 13.172 37.6362 13.0824C37.7167 12.9906 37.7992 12.9162 37.8879 12.8582C37.9765 12.799 38.0703 12.7552 38.1712 12.7287C38.2701 12.7012 38.3873 12.688 38.5167 12.688H39.4043C39.4838 12.688 39.5501 12.7002 39.6031 12.7226C39.656 12.744 39.6958 12.7766 39.7213 12.8204C39.7478 12.8622 39.758 12.9142 39.7549 12.9764C39.7518 13.0385 39.7376 13.1099 39.7111 13.1894L37.6382 18.6946ZM44.2818 13.1639C44.2767 13.1894 44.2675 13.2261 44.2533 13.274C44.24 13.3219 44.2247 13.3738 44.2043 13.4319C44.185 13.489 44.1615 13.5481 44.1361 13.6062C44.1106 13.6653 44.0841 13.7193 44.0535 13.7692C44.024 13.8182 43.9924 13.8589 43.9608 13.8915C43.9292 13.9221 43.8986 13.9384 43.8691 13.9384C43.8252 13.9384 43.7733 13.9191 43.7131 13.8783C43.654 13.8375 43.5786 13.7957 43.491 13.7478C43.4013 13.701 43.2953 13.6582 43.172 13.6184C43.0487 13.5766 42.906 13.5573 42.7399 13.5573C42.5687 13.5573 42.4199 13.5817 42.2925 13.6296C42.1651 13.6765 42.0571 13.7397 41.9664 13.8182C41.8777 13.8966 41.8054 13.9822 41.7524 14.0801C41.6973 14.1759 41.6627 14.2757 41.6454 14.3736C41.625 14.4867 41.6362 14.5876 41.678 14.6763C41.7187 14.7639 41.7809 14.8434 41.8645 14.9188C41.947 14.9932 42.0428 15.0666 42.1529 15.1369C42.2619 15.2062 42.375 15.2785 42.4871 15.355C42.5982 15.4314 42.7093 15.514 42.8153 15.6057C42.9213 15.6964 43.012 15.8003 43.0864 15.9196C43.1608 16.0398 43.2138 16.1754 43.2433 16.3293C43.2729 16.4842 43.2708 16.6615 43.2352 16.8622C43.1822 17.1598 43.0731 17.438 42.906 17.6938C42.7399 17.9496 42.5299 18.1708 42.2741 18.3614C42.0183 18.5499 41.7248 18.6977 41.3916 18.8057C41.0583 18.9147 40.7006 18.9688 40.3174 18.9688C40.1116 18.9688 39.9251 18.9524 39.7559 18.9178C39.5867 18.8852 39.44 18.8434 39.3136 18.7955C39.1883 18.7486 39.0833 18.6977 39.0018 18.6447C38.9182 18.5927 38.8581 18.5417 38.8234 18.4949C38.7878 18.4459 38.7776 18.3746 38.7949 18.2778C38.799 18.2533 38.8092 18.2146 38.8244 18.1637C38.8408 18.1117 38.8581 18.0566 38.8795 17.9986C38.9019 17.9394 38.9253 17.8793 38.9508 17.8161C38.9783 17.754 39.0079 17.6969 39.0385 17.647C39.0701 17.596 39.1016 17.5542 39.1332 17.5216C39.1669 17.49 39.1974 17.4737 39.2301 17.4737C39.2841 17.4737 39.3432 17.4982 39.4084 17.5491C39.4746 17.598 39.5582 17.651 39.6601 17.7101C39.76 17.7703 39.8823 17.8253 40.026 17.8763C40.1707 17.9262 40.348 17.9527 40.561 17.9527C40.7485 17.9527 40.9187 17.9282 41.0685 17.8814C41.2183 17.8335 41.3488 17.7682 41.4599 17.6877C41.571 17.6042 41.6586 17.5104 41.7269 17.4003C41.7972 17.2913 41.842 17.1731 41.8655 17.0426C41.8859 16.9254 41.8757 16.8215 41.8339 16.7338C41.7931 16.6442 41.732 16.5626 41.6515 16.4872C41.572 16.4128 41.4772 16.3415 41.3702 16.2742C41.2632 16.208 41.1531 16.1377 41.0431 16.0612C40.933 15.9848 40.825 15.9012 40.722 15.8126C40.6191 15.7239 40.5304 15.6199 40.4581 15.5017C40.3857 15.3805 40.3348 15.2439 40.3052 15.088C40.2757 14.9331 40.2787 14.7506 40.3154 14.5438C40.3664 14.2594 40.4693 13.9955 40.6273 13.7529C40.7832 13.5124 40.9799 13.3055 41.2122 13.1313C41.4466 12.959 41.7126 12.8235 42.0133 12.7257C42.3119 12.6299 42.6319 12.581 42.9702 12.581C43.1292 12.581 43.281 12.5922 43.4196 12.6166C43.5582 12.6411 43.6846 12.6706 43.7967 12.7083C43.9078 12.744 44.0015 12.7848 44.077 12.8296C44.1524 12.8745 44.2023 12.9111 44.2298 12.9427C44.2563 12.9713 44.2736 13.0039 44.2828 13.0365C44.291 13.0712 44.2899 13.1129 44.2818 13.1639ZM49.3274 12.8704C49.3233 12.8897 49.3162 12.9234 49.303 12.9713C49.2897 13.0192 49.2724 13.0722 49.252 13.1313C49.2326 13.1894 49.2092 13.2515 49.1817 13.3147C49.1542 13.3799 49.1246 13.437 49.09 13.491C49.0584 13.543 49.0217 13.5868 48.9819 13.6225C48.9422 13.6571 48.9035 13.6745 48.8658 13.6745H46.6614L46.0938 15.1787H47.9649C48.0087 15.1787 48.0382 15.195 48.0505 15.2266C48.0637 15.2582 48.0658 15.303 48.0556 15.3591C48.0525 15.3825 48.0443 15.4161 48.0311 15.462C48.0179 15.5078 48.0005 15.5619 47.9801 15.6199C47.9618 15.6791 47.9384 15.7371 47.9119 15.7973C47.8844 15.8574 47.8558 15.9135 47.8222 15.9654C47.7896 16.0154 47.7539 16.0561 47.7172 16.0887C47.6785 16.1193 47.6418 16.1356 47.6031 16.1356H45.734L45.0777 17.8742H47.3106C47.3483 17.8742 47.3748 17.8905 47.387 17.9252C47.4003 17.9578 47.4013 18.0067 47.3901 18.0719C47.386 18.0923 47.3779 18.128 47.3666 18.1759C47.3544 18.2248 47.3391 18.2778 47.3167 18.3369C47.2953 18.395 47.2708 18.4561 47.2443 18.5163C47.2178 18.5764 47.1873 18.6335 47.1557 18.6865C47.1221 18.7384 47.0864 18.7812 47.0497 18.8138C47.012 18.8444 46.9733 18.8607 46.9325 18.8607H43.8303C43.7794 18.8607 43.7335 18.8546 43.6958 18.8393C43.6561 18.8251 43.6255 18.8006 43.6051 18.768C43.5837 18.7344 43.5735 18.6936 43.5725 18.6447C43.5715 18.5937 43.5837 18.5356 43.6092 18.4653L45.6372 13.0844C45.6912 12.9438 45.7656 12.8429 45.8645 12.7817C45.9623 12.7196 46.0652 12.688 46.1712 12.688H49.2357C49.3182 12.688 49.3488 12.7491 49.3274 12.8704ZM51.9098 18.0159C51.9058 18.0393 51.8986 18.075 51.8844 18.1239C51.8711 18.1728 51.8528 18.2289 51.8303 18.2931C51.8079 18.3563 51.7814 18.4215 51.7529 18.4877C51.7233 18.555 51.6918 18.6172 51.6571 18.6722C51.6245 18.7272 51.5888 18.7731 51.5501 18.8087C51.5134 18.8434 51.4726 18.8607 51.4319 18.8607H48.6008C48.5508 18.8607 48.504 18.8546 48.4632 18.8393C48.4214 18.8251 48.3919 18.8006 48.3705 18.768C48.348 18.7344 48.3379 18.6936 48.3368 18.6447C48.3358 18.5937 48.348 18.5356 48.3735 18.4653L50.4902 12.8541C50.4994 12.8235 50.5188 12.794 50.5503 12.7685C50.5789 12.744 50.6217 12.7226 50.6777 12.7063C50.7328 12.692 50.8031 12.6788 50.8867 12.6706C50.9692 12.6625 51.0742 12.6594 51.1975 12.6594C51.3177 12.6594 51.4166 12.6625 51.493 12.6706C51.5715 12.6788 51.6316 12.692 51.6724 12.7063C51.7132 12.7226 51.7397 12.744 51.7498 12.7685C51.758 12.794 51.758 12.8235 51.7458 12.8541L49.8747 17.8253H51.8253C51.8691 17.8253 51.8966 17.8437 51.9088 17.8773C51.92 17.914 51.92 17.9588 51.9098 18.0159Z" fill="#4198FF"/>
<path fill-rule="evenodd" clip-rule="evenodd" d="M60.6151 13.9466C60.5815 14.1341 60.5244 14.3114 60.4429 14.4775C60.3613 14.6447 60.2574 14.7975 60.1341 14.9361C60.0097 15.0747 59.8681 15.197 59.7071 15.303C59.5481 15.408 59.3758 15.4946 59.1904 15.5578C59.3239 15.5822 59.4441 15.6281 59.5491 15.6913C59.6551 15.7555 59.7397 15.836 59.8049 15.9338C59.8711 16.0337 59.915 16.1509 59.9374 16.2854C59.9588 16.421 59.9547 16.5718 59.9241 16.742C59.8976 16.8949 59.8477 17.0528 59.7784 17.2169C59.7091 17.38 59.6153 17.541 59.4981 17.6959C59.383 17.8518 59.2403 18.0016 59.0722 18.1433C58.905 18.2849 58.7114 18.4082 58.4902 18.5142C58.2711 18.6212 58.0235 18.7058 57.7504 18.768C57.4752 18.8301 57.1644 18.8607 56.8158 18.8607H55.1017C54.9712 18.8607 54.8826 18.8281 54.8357 18.7649C54.7878 18.7017 54.7898 18.6019 54.8428 18.4653L56.8709 13.0844C56.9218 12.9438 56.9952 12.8429 57.0941 12.7817C57.1929 12.7196 57.2989 12.688 57.4151 12.688H58.903C59.2301 12.688 59.5063 12.7145 59.7356 12.7654C59.9639 12.8154 60.1504 12.8918 60.293 12.9957C60.4367 13.0987 60.5356 13.2291 60.5906 13.3871C60.6457 13.545 60.6538 13.7305 60.6151 13.9466ZM59.2841 14.181C59.3004 14.0913 59.2974 14.0138 59.279 13.9466C59.2576 13.8803 59.2209 13.8212 59.1659 13.7743C59.1088 13.7264 59.0365 13.6897 58.9427 13.6653C58.851 13.6388 58.7297 13.6255 58.5799 13.6255H57.8961L57.2938 15.2276H57.998C58.2049 15.2276 58.3822 15.195 58.53 15.1298C58.6788 15.0645 58.8051 14.982 58.9101 14.878C59.0161 14.7751 59.0997 14.661 59.1608 14.5377C59.224 14.4133 59.2637 14.2951 59.2841 14.181ZM58.6044 16.8052C58.64 16.6014 58.5942 16.4403 58.4637 16.3231C58.3353 16.2039 58.106 16.1458 57.7758 16.1458H56.9453L56.2828 17.9038H57.1674C57.3927 17.9038 57.5883 17.8712 57.7534 17.808C57.9185 17.7438 58.0602 17.6612 58.1774 17.5603C58.2966 17.4574 58.3904 17.3402 58.4617 17.2087C58.532 17.0773 58.5799 16.9417 58.6044 16.8052ZM65.2897 18.394C65.2857 18.5091 65.2765 18.5988 65.2622 18.6661C65.249 18.7323 65.2194 18.7833 65.1705 18.8169C65.1206 18.8495 65.0492 18.8709 64.9494 18.8791C64.8505 18.8872 64.717 18.8903 64.5478 18.8903C64.4235 18.8903 64.3247 18.8882 64.2472 18.8842C64.1718 18.8791 64.1137 18.8689 64.0729 18.8556C64.0342 18.8444 64.0087 18.8251 63.9975 18.7986C63.9853 18.7741 63.9822 18.7384 63.9863 18.6946L64.0383 17.4543H61.7269L60.876 18.6661C60.8454 18.7109 60.8138 18.7486 60.7792 18.7782C60.7466 18.8087 60.6997 18.8312 60.6436 18.8475C60.5865 18.8628 60.5122 18.874 60.4215 18.8801C60.3287 18.8872 60.2146 18.8903 60.078 18.8903C59.9313 18.8903 59.8161 18.8852 59.7366 18.875C59.6571 18.8658 59.6072 18.8434 59.5858 18.8067C59.5664 18.77 59.5725 18.7191 59.6041 18.6528C59.6367 18.5845 59.6938 18.4959 59.7733 18.3838L63.7346 12.9071C63.7764 12.8531 63.8171 12.8092 63.8528 12.7766C63.8915 12.742 63.9415 12.7175 64.0057 12.7002C64.0668 12.6818 64.1483 12.6706 64.2523 12.6655C64.3542 12.6604 64.4857 12.6594 64.6508 12.6594C64.8362 12.6594 64.982 12.6604 65.09 12.6655C65.197 12.6706 65.2796 12.6818 65.3366 12.7002C65.3937 12.7175 65.4283 12.744 65.4406 12.7776C65.4528 12.8133 65.4579 12.8612 65.4538 12.9213L65.2897 18.394ZM64.2166 13.8671H64.2115L62.3741 16.4872H64.1055L64.2166 13.8671ZM71.9089 13.9466C71.8753 14.1341 71.8182 14.3114 71.7366 14.4775C71.6541 14.6447 71.5512 14.7975 71.4268 14.9361C71.3035 15.0747 71.1608 15.197 71.0008 15.303C70.8419 15.408 70.6686 15.4946 70.4831 15.5578C70.6177 15.5822 70.7379 15.6281 70.8419 15.6913C70.9479 15.7555 71.0335 15.836 71.0987 15.9338C71.1639 16.0337 71.2087 16.1509 71.2301 16.2854C71.2515 16.421 71.2475 16.5718 71.2179 16.742C71.1904 16.8949 71.1415 17.0528 71.0722 17.2169C71.0019 17.38 70.9081 17.541 70.7919 17.6959C70.6758 17.8518 70.5341 18.0016 70.3659 18.1433C70.1988 18.2849 70.0042 18.4082 69.784 18.5142C69.5649 18.6212 69.3173 18.7058 69.0442 18.768C68.769 18.8301 68.4572 18.8607 68.1096 18.8607H66.3955C66.265 18.8607 66.1764 18.8281 66.1295 18.7649C66.0816 18.7017 66.0826 18.6019 66.1366 18.4653L68.1647 13.0844C68.2156 12.9438 68.289 12.8429 68.3868 12.7817C68.4857 12.7196 68.5927 12.688 68.7078 12.688H70.1958C70.5229 12.688 70.8001 12.7145 71.0294 12.7654C71.2577 12.8154 71.4442 12.8918 71.5868 12.9957C71.7295 13.0987 71.8284 13.2291 71.8834 13.3871C71.9395 13.545 71.9466 13.7305 71.9089 13.9466ZM70.5779 14.181C70.5932 14.0913 70.5912 14.0138 70.5718 13.9466C70.5514 13.8803 70.5147 13.8212 70.4597 13.7743C70.4026 13.7264 70.3293 13.6897 70.2365 13.6653C70.1448 13.6388 70.0235 13.6255 69.8737 13.6255H69.1899L68.5866 15.2276H69.2918C69.4987 15.2276 69.675 15.195 69.8238 15.1298C69.9715 15.0645 70.0989 14.982 70.2039 14.878C70.3099 14.7751 70.3935 14.661 70.4546 14.5377C70.5168 14.4133 70.5575 14.2951 70.5779 14.181ZM69.8982 16.8052C69.9338 16.6014 69.888 16.4403 69.7565 16.3231C69.6281 16.2039 69.3998 16.1458 69.0686 16.1458H68.2391L67.5756 17.9038H68.4612C68.6854 17.9038 68.8821 17.8712 69.0462 17.808C69.2123 17.7438 69.354 17.6612 69.4712 17.5603C69.5904 17.4574 69.6842 17.3402 69.7545 17.2087C69.8248 17.0773 69.8737 16.9417 69.8982 16.8052ZM77.3295 12.8704C77.3255 12.8897 77.3183 12.9234 77.3051 12.9713C77.2918 13.0192 77.2735 13.0722 77.2541 13.1313C77.2348 13.1894 77.2113 13.2515 77.1838 13.3147C77.1553 13.3799 77.1257 13.437 77.0921 13.491C77.0605 13.543 77.0228 13.5868 76.9841 13.6225C76.9443 13.6571 76.9046 13.6745 76.8679 13.6745H74.6635L74.0959 15.1787H75.966C76.0098 15.1787 76.0393 15.195 76.0526 15.2266C76.0658 15.2582 76.0679 15.303 76.0577 15.3591C76.0536 15.3825 76.0465 15.4161 76.0332 15.462C76.02 15.5078 76.0027 15.5619 75.9823 15.6199C75.9639 15.6791 75.9405 15.7371 75.914 15.7973C75.8865 15.8574 75.8569 15.9135 75.8233 15.9654C75.7917 16.0154 75.755 16.0561 75.7183 16.0887C75.6806 16.1193 75.6439 16.1356 75.6042 16.1356H73.7361L73.0798 17.8742H75.3127C75.3504 17.8742 75.3769 17.8905 75.3881 17.9252C75.4024 17.9578 75.4034 18.0067 75.3922 18.0719C75.3881 18.0923 75.38 18.128 75.3688 18.1759C75.3565 18.2248 75.3402 18.2778 75.3188 18.3369C75.2964 18.395 75.273 18.4561 75.2465 18.5163C75.219 18.5764 75.1894 18.6335 75.1578 18.6865C75.1242 18.7384 75.0885 18.7812 75.0518 18.8138C75.0141 18.8444 74.9754 18.8607 74.9346 18.8607H71.8325C71.7815 18.8607 71.7356 18.8546 71.6969 18.8393C71.6572 18.8251 71.6276 18.8006 71.6072 18.768C71.5858 18.7344 71.5756 18.6936 71.5736 18.6447C71.5736 18.5937 71.5848 18.5356 71.6103 18.4653L73.6383 13.0844C73.6923 12.9438 73.7677 12.8429 73.8666 12.7817C73.9634 12.7196 74.0663 12.688 74.1723 12.688H77.2378C77.3204 12.688 77.3509 12.7491 77.3295 12.8704ZM79.912 18.0159C79.9079 18.0393 79.8997 18.075 79.8865 18.1239C79.8732 18.1728 79.8549 18.2289 79.8325 18.2931C79.809 18.3563 79.7836 18.4215 79.755 18.4877C79.7255 18.555 79.6929 18.6172 79.6592 18.6722C79.6266 18.7272 79.5909 18.7731 79.5522 18.8087C79.5145 18.8434 79.4737 18.8607 79.434 18.8607H76.6029C76.552 18.8607 76.5061 18.8546 76.4653 18.8393C76.4235 18.8251 76.394 18.8006 76.3716 18.768C76.3502 18.7344 76.34 18.6936 76.339 18.6447C76.3379 18.5937 76.3492 18.5356 76.3746 18.4653L78.4923 12.8541C78.5015 12.8235 78.5209 12.794 78.5515 12.7685C78.58 12.744 78.6238 12.7226 78.6799 12.7063C78.7349 12.692 78.8052 12.6788 78.8878 12.6706C78.9713 12.6625 79.0753 12.6594 79.1996 12.6594C79.3199 12.6594 79.4187 12.6625 79.4951 12.6706C79.5736 12.6788 79.6327 12.692 79.6745 12.7063C79.7153 12.7226 79.7408 12.744 79.752 12.7685C79.7601 12.794 79.7591 12.8235 79.7479 12.8541L77.8768 17.8253H79.8274C79.8712 17.8253 79.8987 17.8436 79.9109 17.8773C79.9221 17.914 79.9222 17.9588 79.912 18.0159Z" fill="#4198FF"/>
<path fill-rule="evenodd" clip-rule="evenodd" d="M19.1678 23.5853V20.5871H20.0769L20.615 22.6325L21.1459 20.5871H22.058V23.5853H21.4965L21.4945 21.2251L20.9034 23.5853H20.3194L19.7304 21.2251L19.7283 23.5853H19.1678ZM22.6603 21.1191V20.5871H23.2341V21.1191H22.6603ZM22.6603 23.5853V21.4116H23.2341V23.5853H22.6603ZM24.8168 21.4116V21.8681H24.4234V22.7486C24.4234 22.928 24.4275 23.0319 24.4346 23.0605C24.4427 23.09 24.4591 23.1145 24.4866 23.1339C24.5131 23.1532 24.5447 23.1624 24.5834 23.1624C24.6374 23.1624 24.7138 23.1451 24.8147 23.1074L24.8636 23.5548C24.7301 23.6118 24.5793 23.6404 24.4101 23.6404C24.3072 23.6404 24.2145 23.623 24.1309 23.5884C24.0473 23.5527 23.9872 23.5079 23.9485 23.4528C23.9098 23.3968 23.8833 23.3224 23.868 23.2266C23.8557 23.1604 23.8496 23.0248 23.8496 22.82V21.8681H23.5857V21.4116H23.8496V20.9805L24.4234 20.6411V21.4116H24.8168ZM25.7676 23.5853H25.1938V21.4116H25.7258V21.7204C25.8175 21.5746 25.9001 21.4788 25.9735 21.434C26.0468 21.3881 26.1294 21.3657 26.2221 21.3657C26.3536 21.3657 26.48 21.4024 26.6012 21.4737L26.4239 21.9751C26.3261 21.913 26.2364 21.8814 26.1528 21.8814C26.0723 21.8814 26.004 21.9038 25.948 21.9476C25.8919 21.9925 25.8481 22.0719 25.8165 22.1871C25.7839 22.3033 25.7676 22.5468 25.7676 22.9158V23.5853ZM27.2769 22.0821L26.7572 21.9904C26.8163 21.7774 26.9172 21.6205 27.0598 21.5186C27.2035 21.4167 27.4165 21.3657 27.6978 21.3657C27.9546 21.3657 28.1452 21.3963 28.2716 21.4564C28.3959 21.5175 28.4845 21.594 28.5355 21.6877C28.5865 21.7815 28.613 21.9527 28.613 22.2024L28.6038 22.8719C28.6038 23.0625 28.613 23.2042 28.6313 23.2949C28.6496 23.3856 28.6843 23.4824 28.7342 23.5853H28.1645C28.1503 23.5476 28.1309 23.4926 28.1095 23.4182C28.1003 23.3846 28.0932 23.3621 28.0891 23.3509C27.9913 23.4477 27.8863 23.5191 27.7752 23.568C27.6631 23.6159 27.5449 23.6404 27.4186 23.6404C27.1954 23.6404 27.0201 23.5792 26.8917 23.4579C26.7622 23.3377 26.6991 23.1838 26.6991 22.9983C26.6991 22.876 26.7276 22.766 26.7867 22.6702C26.8448 22.5744 26.9273 22.5 27.0333 22.449C27.1383 22.3981 27.2901 22.3542 27.4899 22.3155C27.7579 22.2656 27.9434 22.2177 28.0473 22.1739V22.1168C28.0473 22.0047 28.0198 21.9252 27.9658 21.8773C27.9108 21.8294 27.8068 21.806 27.656 21.806C27.5531 21.806 27.4736 21.8263 27.4165 21.8671C27.3584 21.9079 27.3126 21.9792 27.2769 22.0821ZM28.0473 22.5468C27.974 22.5713 27.8578 22.6009 27.6978 22.6355C27.5388 22.6691 27.4338 22.7028 27.3849 22.7354C27.3105 22.7884 27.2728 22.8556 27.2728 22.9372C27.2728 23.0187 27.3024 23.087 27.3625 23.1461C27.4226 23.2052 27.498 23.2337 27.5918 23.2337C27.6947 23.2337 27.7936 23.2001 27.8884 23.1318C27.9577 23.0798 28.0035 23.0167 28.0249 22.9412C28.0392 22.8923 28.0473 22.7996 28.0473 22.662V22.5468ZM30.7694 22.0821L30.2507 21.9904C30.3088 21.7774 30.4107 21.6205 30.5533 21.5186C30.696 21.4167 30.909 21.3657 31.1913 21.3657C31.4481 21.3657 31.6387 21.3963 31.7651 21.4564C31.8894 21.5175 31.9781 21.594 32.029 21.6877C32.08 21.7815 32.1054 21.9527 32.1054 22.2024L32.0973 22.8719C32.0973 23.0625 32.1065 23.2042 32.1248 23.2949C32.1432 23.3856 32.1768 23.4824 32.2277 23.5853H31.6581C31.6428 23.5476 31.6244 23.4926 31.603 23.4182C31.5939 23.3846 31.5867 23.3621 31.5826 23.3509C31.4848 23.4477 31.3798 23.5191 31.2688 23.568C31.1567 23.6159 31.0374 23.6404 30.9111 23.6404C30.6889 23.6404 30.5126 23.5792 30.3842 23.4579C30.2558 23.3377 30.1916 23.1838 30.1916 22.9983C30.1916 22.876 30.2211 22.766 30.2802 22.6702C30.3383 22.5744 30.4198 22.5 30.5258 22.449C30.6318 22.3981 30.7837 22.3542 30.9824 22.3155C31.2504 22.2656 31.4369 22.2177 31.5409 22.1739V22.1168C31.5409 22.0047 31.5133 21.9252 31.4593 21.8773C31.4033 21.8294 31.3004 21.806 31.1485 21.806C31.0466 21.806 30.9671 21.8263 30.909 21.8671C30.8519 21.9079 30.8051 21.9792 30.7694 22.0821ZM31.5409 22.5468C31.4675 22.5713 31.3503 22.6009 31.1903 22.6355C31.0313 22.6691 30.9263 22.7028 30.8784 22.7354C30.803 22.7884 30.7653 22.8556 30.7653 22.9372C30.7653 23.0187 30.7959 23.087 30.856 23.1461C30.9161 23.2052 30.9916 23.2337 31.0843 23.2337C31.1882 23.2337 31.2871 23.2001 31.3809 23.1318C31.4502 23.0798 31.497 23.0167 31.5184 22.9412C31.5327 22.8923 31.5409 22.7996 31.5409 22.662V22.5468ZM34.6492 23.5853H34.0754V22.4775C34.0754 22.2432 34.0621 22.0923 34.0387 22.023C34.0132 21.9547 33.9735 21.9018 33.9174 21.863C33.8614 21.8243 33.7951 21.806 33.7167 21.806C33.6158 21.806 33.5261 21.8335 33.4466 21.8875C33.3661 21.9415 33.3121 22.0149 33.2825 22.1035C33.2519 22.1942 33.2377 22.3604 33.2377 22.6029V23.5853H32.6639V21.4116H33.1959V21.7305C33.3865 21.487 33.626 21.3657 33.9154 21.3657C34.0428 21.3657 34.159 21.3891 34.2649 21.434C34.3709 21.4809 34.4504 21.5379 34.5034 21.6093C34.5584 21.6806 34.5962 21.7601 34.6165 21.8508C34.639 21.9405 34.6492 22.0689 34.6492 22.236V23.5853ZM37.2244 23.5853H36.6925V23.2674C36.6038 23.3907 36.4978 23.4844 36.3776 23.5466C36.2573 23.6088 36.135 23.6404 36.0117 23.6404C35.761 23.6404 35.547 23.5395 35.3676 23.3377C35.1903 23.1359 35.1006 22.8556 35.1006 22.4949C35.1006 22.126 35.1872 21.8457 35.3615 21.6531C35.5348 21.4615 35.7539 21.3657 36.0199 21.3657C36.2624 21.3657 36.4734 21.4676 36.6507 21.6694V20.5871H37.2244V23.5853ZM35.6917 22.4572C35.6917 22.6895 35.7233 22.8577 35.7865 22.9616C35.8802 23.1125 36.0086 23.1879 36.1748 23.1879C36.3072 23.1879 36.4193 23.1318 36.5111 23.0187C36.6048 22.9056 36.6507 22.7374 36.6507 22.5122C36.6507 22.2615 36.6058 22.0811 36.5162 21.9711C36.4255 21.861 36.3113 21.806 36.1707 21.806C36.0351 21.806 35.921 21.86 35.8293 21.969C35.7376 22.0781 35.6917 22.2411 35.6917 22.4572ZM38.216 22.0821L37.6973 21.9904C37.7554 21.7774 37.8563 21.6205 38 21.5186C38.1427 21.4167 38.3557 21.3657 38.638 21.3657C38.8938 21.3657 39.0853 21.3963 39.2107 21.4564C39.336 21.5175 39.4247 21.594 39.4757 21.6877C39.5266 21.7815 39.5521 21.9527 39.5521 22.2024L39.5439 22.8719C39.5439 23.0625 39.5531 23.2042 39.5715 23.2949C39.5898 23.3856 39.6234 23.4824 39.6744 23.5853H39.1037C39.0894 23.5476 39.0711 23.4926 39.0487 23.4182C39.0405 23.3846 39.0334 23.3621 39.0293 23.3509C38.9315 23.4477 38.8265 23.5191 38.7144 23.568C38.6033 23.6159 38.4841 23.6404 38.3577 23.6404C38.1355 23.6404 37.9592 23.5792 37.8308 23.4579C37.7024 23.3377 37.6382 23.1838 37.6382 22.9983C37.6382 22.876 37.6678 22.766 37.7258 22.6702C37.785 22.5744 37.8665 22.5 37.9725 22.449C38.0785 22.3981 38.2303 22.3542 38.429 22.3155C38.6971 22.2656 38.8836 22.2177 38.9865 22.1739V22.1168C38.9865 22.0047 38.96 21.9252 38.905 21.8773C38.8499 21.8294 38.747 21.806 38.5951 21.806C38.4922 21.806 38.4127 21.8263 38.3557 21.8671C38.2976 21.9079 38.2517 21.9792 38.216 22.0821ZM38.9865 22.5468C38.9141 22.5713 38.7969 22.6009 38.6369 22.6355C38.478 22.6691 38.373 22.7028 38.3241 22.7354C38.2497 22.7884 38.212 22.8556 38.212 22.9372C38.212 23.0187 38.2425 23.087 38.3016 23.1461C38.3618 23.2052 38.4382 23.2337 38.5309 23.2337C38.6339 23.2337 38.7337 23.2001 38.8275 23.1318C38.8968 23.0798 38.9427 23.0167 38.9651 22.9412C38.9794 22.8923 38.9865 22.7996 38.9865 22.662V22.5468ZM41.2408 21.4116H41.7687V21.7091C41.9572 21.4809 42.1824 21.3657 42.4443 21.3657C42.584 21.3657 42.7042 21.3942 42.8061 21.4523C42.909 21.5094 42.9926 21.596 43.0578 21.7112C43.1536 21.596 43.2566 21.5094 43.3666 21.4523C43.4767 21.3942 43.5949 21.3657 43.7203 21.3657C43.8803 21.3657 44.0148 21.3983 44.1259 21.4625C44.2359 21.5277 44.3185 21.6225 44.3725 21.7489C44.4122 21.8406 44.4316 21.9904 44.4316 22.1983V23.5853H43.8578V22.3451C43.8578 22.13 43.8385 21.9904 43.7987 21.9282C43.7457 21.8467 43.6632 21.806 43.5531 21.806C43.4726 21.806 43.3972 21.8304 43.3259 21.8793C43.2545 21.9282 43.2036 22.0006 43.172 22.0944C43.1404 22.1891 43.1251 22.3389 43.1251 22.5438V23.5853H42.5513V22.396C42.5513 22.1851 42.5411 22.0485 42.5208 21.9884C42.5004 21.9262 42.4688 21.8804 42.426 21.8508C42.3832 21.8202 42.3241 21.806 42.2517 21.806C42.1631 21.806 42.0826 21.8294 42.0122 21.8773C41.9409 21.9252 41.891 21.9935 41.8604 22.0832C41.8298 22.1739 41.8145 22.3226 41.8145 22.5316V23.5853H41.2408V21.4116ZM46.2629 22.8984L46.8367 22.9953C46.7633 23.2052 46.6472 23.3652 46.4882 23.4753C46.3292 23.5853 46.1305 23.6404 45.892 23.6404C45.5149 23.6404 45.2347 23.517 45.0543 23.2694C44.9106 23.0717 44.8392 22.821 44.8392 22.5193C44.8392 22.1586 44.933 21.8763 45.1215 21.6725C45.3091 21.4676 45.5465 21.3657 45.8349 21.3657C46.157 21.3657 46.4117 21.4727 46.5993 21.6867C46.7858 21.8997 46.8744 22.2279 46.8663 22.6681H45.4293C45.4334 22.8393 45.4803 22.9718 45.5689 23.0666C45.6566 23.1614 45.7666 23.2093 45.8981 23.2093C45.9878 23.2093 46.0632 23.1848 46.1243 23.1359C46.1855 23.087 46.2314 23.0075 46.2629 22.8984ZM46.2966 22.3165C46.2925 22.1494 46.2497 22.023 46.1682 21.9364C46.0866 21.8488 45.9878 21.806 45.8706 21.806C45.7452 21.806 45.6423 21.8518 45.5598 21.9435C45.4782 22.0342 45.4385 22.1596 45.4405 22.3165H46.2966ZM47.2943 21.4116H47.8222V21.7091C48.0107 21.4809 48.237 21.3657 48.4989 21.3657C48.6375 21.3657 48.7577 21.3942 48.8596 21.4523C48.9626 21.5094 49.0461 21.596 49.1114 21.7112C49.2072 21.596 49.3101 21.5094 49.4202 21.4523C49.5312 21.3942 49.6484 21.3657 49.7748 21.3657C49.9338 21.3657 50.0683 21.3983 50.1794 21.4625C50.2895 21.5277 50.372 21.6225 50.427 21.7489C50.4668 21.8406 50.4861 21.9904 50.4861 22.1983V23.5853H49.9124V22.3451C49.9124 22.13 49.892 21.9904 49.8523 21.9282C49.7993 21.8467 49.7177 21.806 49.6067 21.806C49.5272 21.806 49.4507 21.8304 49.3794 21.8793C49.3091 21.9282 49.2571 22.0006 49.2255 22.0944C49.1939 22.1891 49.1786 22.3389 49.1786 22.5438V23.5853H48.6049V22.396C48.6049 22.1851 48.5947 22.0485 48.5743 21.9884C48.5539 21.9262 48.5233 21.8804 48.4795 21.8508C48.4367 21.8202 48.3786 21.806 48.3052 21.806C48.2166 21.806 48.1371 21.8294 48.0668 21.8773C47.9954 21.9252 47.9445 21.9935 47.9139 22.0832C47.8833 22.1739 47.868 22.3226 47.868 22.5316V23.5853H47.2943V21.4116ZM51.0354 23.5853V20.5871H51.6092V21.6694C51.7865 21.4676 51.9954 21.3657 52.239 21.3657C52.503 21.3657 52.7221 21.4615 52.8953 21.6531C53.0676 21.8457 53.1542 22.1209 53.1542 22.4806C53.1542 22.8526 53.0665 23.1379 52.8902 23.3397C52.7139 23.5395 52.4989 23.6404 52.2462 23.6404C52.1218 23.6404 51.9995 23.6077 51.8793 23.5446C51.758 23.4804 51.654 23.3886 51.5674 23.2674V23.5853H51.0354ZM51.6011 22.4572C51.6011 22.6824 51.6367 22.8495 51.707 22.9576C51.8069 23.1114 51.9394 23.1879 52.1045 23.1879C52.2319 23.1879 52.3399 23.1339 52.4296 23.0248C52.5193 22.9158 52.5641 22.7435 52.5641 22.5102C52.5641 22.2605 52.5183 22.0811 52.4286 21.9711C52.3389 21.861 52.2237 21.806 52.0821 21.806C51.9445 21.806 51.8293 21.86 51.7386 21.967C51.6469 22.075 51.6011 22.2381 51.6011 22.4572ZM54.0459 22.0821L53.5262 21.9904C53.5853 21.7774 53.6862 21.6205 53.8298 21.5186C53.9725 21.4167 54.1855 21.3657 54.4678 21.3657C54.7236 21.3657 54.9152 21.3963 55.0406 21.4564C55.1659 21.5175 55.2546 21.594 55.3055 21.6877C55.3565 21.7815 55.382 21.9527 55.382 22.2024L55.3738 22.8719C55.3738 23.0625 55.383 23.2042 55.4013 23.2949C55.4197 23.3856 55.4533 23.4824 55.5032 23.5853H54.9335C54.9193 23.5476 54.9009 23.4926 54.8785 23.4182C54.8693 23.3846 54.8632 23.3621 54.8581 23.3509C54.7613 23.4477 54.6563 23.5191 54.5442 23.568C54.4332 23.6159 54.3139 23.6404 54.1876 23.6404C53.9654 23.6404 53.7891 23.5792 53.6607 23.4579C53.5323 23.3377 53.4681 23.1838 53.4681 22.9983C53.4681 22.876 53.4976 22.766 53.5557 22.6702C53.6148 22.5744 53.6964 22.5 53.8023 22.449C53.9083 22.3981 54.0602 22.3542 54.2589 22.3155C54.5269 22.2656 54.7134 22.2177 54.8163 22.1739V22.1168C54.8163 22.0047 54.7899 21.9252 54.7348 21.8773C54.6798 21.8294 54.5769 21.806 54.425 21.806C54.3221 21.806 54.2426 21.8263 54.1855 21.8671C54.1274 21.9079 54.0816 21.9792 54.0459 22.0821ZM54.8163 22.5468C54.743 22.5713 54.6268 22.6009 54.4668 22.6355C54.3078 22.6691 54.2028 22.7028 54.1539 22.7354C54.0795 22.7884 54.0418 22.8556 54.0418 22.9372C54.0418 23.0187 54.0724 23.087 54.1315 23.1461C54.1916 23.2052 54.2681 23.2337 54.3608 23.2337C54.4637 23.2337 54.5636 23.2001 54.6574 23.1318C54.7267 23.0798 54.7725 23.0167 54.795 22.9412C54.8092 22.8923 54.8163 22.7996 54.8163 22.662V22.5468ZM57.9257 23.5853H57.3519V22.4775C57.3519 22.2432 57.3386 22.0923 57.3142 22.023C57.2897 21.9547 57.25 21.9018 57.1939 21.863C57.1379 21.8243 57.0706 21.806 56.9932 21.806C56.8923 21.806 56.8026 21.8335 56.7221 21.8875C56.6426 21.9415 56.5876 22.0149 56.558 22.1035C56.5285 22.1942 56.5142 22.3604 56.5142 22.6029V23.5853H55.9404V21.4116H56.4714V21.7305C56.662 21.487 56.9015 21.3657 57.1919 21.3657C57.3183 21.3657 57.4355 21.3891 57.5404 21.434C57.6464 21.4809 57.7259 21.5379 57.7799 21.6093C57.835 21.6806 57.8727 21.7601 57.893 21.8508C57.9144 21.9405 57.9257 22.0689 57.9257 22.236V23.5853ZM58.4525 23.7239L59.1099 23.8034C59.1211 23.8809 59.1466 23.9339 59.1853 23.9634C59.2403 24.0042 59.3259 24.0256 59.4431 24.0256C59.5939 24.0256 59.706 24.0032 59.7815 23.9583C59.8314 23.9277 59.8701 23.8798 59.8956 23.8126C59.9139 23.7657 59.9221 23.677 59.9221 23.5486L59.9252 23.2317C59.7519 23.4681 59.5348 23.5853 59.2719 23.5853C58.9804 23.5853 58.7481 23.462 58.5779 23.2154C58.4444 23.0207 58.3771 22.7782 58.3771 22.4888C58.3771 22.1239 58.4648 21.8467 58.6401 21.6541C58.8153 21.4625 59.0334 21.3657 59.2953 21.3657C59.5634 21.3657 59.7855 21.4839 59.9598 21.7193V21.4116H60.4969V23.3611C60.4969 23.6169 60.4755 23.8095 60.4327 23.9359C60.3909 24.0623 60.3318 24.1621 60.2553 24.2345C60.1789 24.3058 60.077 24.3639 59.9486 24.4037C59.8212 24.4455 59.6602 24.4658 59.4655 24.4658C59.0966 24.4658 58.8357 24.4016 58.6818 24.2753C58.5269 24.1489 58.4505 23.9889 58.4505 23.7942C58.4505 23.7749 58.4515 23.7514 58.4525 23.7239ZM58.9672 22.4551C58.9672 22.6854 59.012 22.8536 59.1007 22.9606C59.1904 23.0676 59.3004 23.1206 59.4309 23.1206C59.5705 23.1206 59.6897 23.0656 59.7855 22.9565C59.8824 22.8465 59.9313 22.6844 59.9313 22.4694C59.9313 22.2452 59.8844 22.0781 59.7917 21.969C59.6999 21.86 59.5827 21.806 59.4411 21.806C59.3035 21.806 59.1904 21.86 59.1007 21.966C59.012 22.073 58.9672 22.236 58.9672 22.4551ZM62.5015 23.5853V23.2602C62.422 23.3764 62.318 23.4681 62.1896 23.5374C62.0602 23.6057 61.9236 23.6404 61.781 23.6404C61.6342 23.6404 61.5027 23.6077 61.3876 23.5435C61.2704 23.4793 61.1868 23.3886 61.1348 23.2735C61.0829 23.1563 61.0574 22.9963 61.0574 22.7904V21.4116H61.6311V22.4133C61.6311 22.7191 61.6413 22.9066 61.6627 22.9759C61.6841 23.0452 61.7218 23.1002 61.7789 23.14C61.835 23.1807 61.9053 23.2001 61.9919 23.2001C62.0908 23.2001 62.1784 23.1736 62.2569 23.1196C62.3354 23.0656 62.3883 22.9983 62.4169 22.9188C62.4454 22.8383 62.4597 22.6426 62.4597 22.3308V21.4116H63.0334V23.5853H62.5015ZM65.6006 23.5853H65.0268V22.4775C65.0268 22.2432 65.0146 22.0923 64.9901 22.023C64.9647 21.9547 64.9249 21.9018 64.8689 21.863C64.8138 21.8243 64.7466 21.806 64.6681 21.806C64.5672 21.806 64.4775 21.8335 64.398 21.8875C64.3175 21.9415 64.2635 22.0149 64.234 22.1035C64.2034 22.1942 64.1891 22.3604 64.1891 22.6029V23.5853H63.6154V21.4116H64.1473V21.7305C64.3379 21.487 64.5774 21.3657 64.8668 21.3657C64.9942 21.3657 65.1104 21.3891 65.2164 21.434C65.3224 21.4809 65.4019 21.5379 65.4559 21.6093C65.5099 21.6806 65.5476 21.7601 65.569 21.8508C65.5904 21.9405 65.6006 22.0689 65.6006 22.236V23.5853ZM69.3397 23.5853H68.8077V23.2674C68.7191 23.3907 68.6141 23.4844 68.4928 23.5466C68.3726 23.6088 68.2503 23.6404 68.127 23.6404C67.8763 23.6404 67.6623 23.5395 67.4839 23.3377C67.3056 23.1359 67.2159 22.8556 67.2159 22.4949C67.2159 22.126 67.3025 21.8457 67.4768 21.6531C67.65 21.4615 67.8691 21.3657 68.1351 21.3657C68.3777 21.3657 68.5886 21.4676 68.766 21.6694V20.5871H69.3397V23.5853ZM67.807 22.4572C67.807 22.6895 67.8386 22.8577 67.9028 22.9616C67.9955 23.1125 68.1239 23.1879 68.29 23.1879C68.4225 23.1879 68.5346 23.1318 68.6273 23.0187C68.7201 22.9056 68.766 22.7374 68.766 22.5122C68.766 22.2615 68.7211 22.0811 68.6314 21.9711C68.5407 21.861 68.4266 21.806 68.2859 21.806C68.1504 21.806 68.0363 21.86 67.9445 21.969C67.8528 22.0781 67.807 22.2411 67.807 22.4572ZM70.3313 22.0821L69.8126 21.9904C69.8707 21.7774 69.9726 21.6205 70.1153 21.5186C70.2579 21.4167 70.4709 21.3657 70.7532 21.3657C71.01 21.3657 71.2006 21.3963 71.326 21.4564C71.4513 21.5175 71.54 21.594 71.5909 21.6877C71.6419 21.7815 71.6674 21.9527 71.6674 22.2024L71.6592 22.8719C71.6592 23.0625 71.6684 23.2042 71.6867 23.2949C71.7051 23.3856 71.7387 23.4824 71.7897 23.5853H71.22C71.2047 23.5476 71.1863 23.4926 71.1649 23.4182C71.1558 23.3846 71.1486 23.3621 71.1446 23.3509C71.0467 23.4477 70.9418 23.5191 70.8297 23.568C70.7186 23.6159 70.5993 23.6404 70.473 23.6404C70.2508 23.6404 70.0745 23.5792 69.9461 23.4579C69.8177 23.3377 69.7535 23.1838 69.7535 22.9983C69.7535 22.876 69.783 22.766 69.8421 22.6702C69.9002 22.5744 69.9818 22.5 70.0877 22.449C70.1937 22.3981 70.3456 22.3542 70.5443 22.3155C70.8123 22.2656 70.9988 22.2177 71.1028 22.1739V22.1168C71.1028 22.0047 71.0753 21.9252 71.0202 21.8773C70.9652 21.8294 70.8623 21.806 70.7104 21.806C70.6085 21.806 70.529 21.8263 70.4709 21.8671C70.4128 21.9079 70.367 21.9792 70.3313 22.0821ZM71.1028 22.5468C71.0294 22.5713 70.9122 22.6009 70.7522 22.6355C70.5932 22.6691 70.4883 22.7028 70.4404 22.7354C70.3649 22.7884 70.3272 22.8556 70.3272 22.9372C70.3272 23.0187 70.3578 23.087 70.4179 23.1461C70.4781 23.2052 70.5535 23.2337 70.6462 23.2337C70.7502 23.2337 70.849 23.2001 70.9428 23.1318C71.0121 23.0798 71.0579 23.0167 71.0804 22.9412C71.0946 22.8923 71.1028 22.7996 71.1028 22.662V22.5468ZM73.4905 22.8984L74.0643 22.9953C73.9909 23.2052 73.8748 23.3652 73.7158 23.4753C73.5568 23.5853 73.3581 23.6404 73.1196 23.6404C72.7425 23.6404 72.4623 23.517 72.2819 23.2694C72.1382 23.0717 72.0669 22.821 72.0669 22.5193C72.0669 22.1586 72.1606 21.8763 72.3481 21.6725C72.5367 21.4676 72.7741 21.3657 73.0615 21.3657C73.3846 21.3657 73.6393 21.4727 73.8258 21.6867C74.0123 21.8997 74.102 22.2279 74.0939 22.6681H72.6569C72.661 22.8393 72.7069 22.9718 72.7955 23.0666C72.8842 23.1614 72.9942 23.2093 73.1257 23.2093C73.2154 23.2093 73.2908 23.1848 73.352 23.1359C73.4131 23.087 73.459 23.0075 73.4905 22.8984ZM73.5242 22.3165C73.5201 22.1494 73.4773 22.023 73.3958 21.9364C73.3142 21.8488 73.2144 21.806 73.0972 21.806C72.9728 21.806 72.8689 21.8518 72.7874 21.9435C72.7058 22.0342 72.6661 22.1596 72.6671 22.3165H73.5242ZM75.112 23.5853H74.5382V21.4116H75.0702V21.7204C75.1619 21.5746 75.2444 21.4788 75.3178 21.434C75.3902 21.3881 75.4738 21.3657 75.5665 21.3657C75.698 21.3657 75.8243 21.4024 75.9456 21.4737L75.7673 21.9751C75.6704 21.913 75.5807 21.8814 75.4972 21.8814C75.4167 21.8814 75.3484 21.9038 75.2923 21.9476C75.2363 21.9925 75.1925 22.0719 75.1599 22.1871C75.1283 22.3033 75.112 22.5468 75.112 22.9158V23.5853ZM76.6202 22.0821L76.1015 21.9904C76.1596 21.7774 76.2615 21.6205 76.4042 21.5186C76.5479 21.4167 76.7599 21.3657 77.0422 21.3657C77.299 21.3657 77.4895 21.3963 77.6159 21.4564C77.7402 21.5175 77.8289 21.594 77.8799 21.6877C77.9308 21.7815 77.9573 21.9527 77.9573 22.2024L77.9482 22.8719C77.9482 23.0625 77.9573 23.2042 77.9757 23.2949C77.994 23.3856 78.0276 23.4824 78.0786 23.5853H77.5089C77.4936 23.5476 77.4753 23.4926 77.4539 23.4182C77.4447 23.3846 77.4376 23.3621 77.4335 23.3509C77.3357 23.4477 77.2307 23.5191 77.1196 23.568C77.0075 23.6159 76.8893 23.6404 76.7619 23.6404C76.5397 23.6404 76.3634 23.5792 76.235 23.4579C76.1066 23.3377 76.0424 23.1838 76.0424 22.9983C76.0424 22.876 76.072 22.766 76.1311 22.6702C76.1892 22.5744 76.2707 22.5 76.3767 22.449C76.4827 22.3981 76.6345 22.3542 76.8332 22.3155C77.1013 22.2656 77.2878 22.2177 77.3917 22.1739V22.1168C77.3917 22.0047 77.3642 21.9252 77.3102 21.8773C77.2541 21.8294 77.1512 21.806 76.9994 21.806C76.8974 21.806 76.818 21.8263 76.7599 21.8671C76.7028 21.9079 76.6559 21.9792 76.6202 22.0821ZM77.3917 22.5468C77.3183 22.5713 77.2011 22.6009 77.0422 22.6355C76.8822 22.6691 76.7782 22.7028 76.7293 22.7354C76.6539 22.7884 76.6162 22.8556 76.6162 22.9372C76.6162 23.0187 76.6467 23.087 76.7069 23.1461C76.767 23.2052 76.8424 23.2337 76.9352 23.2337C77.0391 23.2337 77.138 23.2001 77.2327 23.1318C77.301 23.0798 77.3479 23.0167 77.3693 22.9412C77.3836 22.8923 77.3917 22.7996 77.3917 22.662V22.5468ZM79.0885 20.5871V21.6979C79.275 21.4768 79.4982 21.3657 79.7571 21.3657C79.8906 21.3657 80.0108 21.3902 80.1178 21.4391C80.2238 21.489 80.3043 21.5512 80.3594 21.6276C80.4134 21.704 80.4501 21.7886 80.4705 21.8814C80.4898 21.9741 80.5 22.1178 80.5 22.3125V23.5853H79.9262V22.4398C79.9262 22.2116 79.915 22.0679 79.8936 22.0057C79.8712 21.9446 79.8315 21.8956 79.7764 21.86C79.7204 21.8243 79.6501 21.806 79.5655 21.806C79.4697 21.806 79.3841 21.8284 79.3076 21.8753C79.2312 21.9221 79.1762 21.9914 79.1415 22.0852C79.1059 22.1779 79.0885 22.3165 79.0885 22.4979V23.5853H78.5148V20.5871H79.0885Z" fill="#ED1C24"/>
</g>
<defs>
<clipPath id="clip0_801_8522">
<rect width="80" height="24.4658" fill="white" transform="translate(0.5)"/>
</clipPath>
</defs>
</svg>
