<svg width="81" height="54" viewBox="0 0 81 54" fill="none" xmlns="http://www.w3.org/2000/svg">
<g clip-path="url(#clip0_801_8446)">
<path fill-rule="evenodd" clip-rule="evenodd" d="M32.92 0H51.7871C59.4341 0 65.6922 4.59661 65.6922 10.2122C65.6922 13.1009 64.0529 15.5532 61.8222 17.2633C64.2168 19.0998 65.6922 21.5875 65.6922 24.3144C65.6922 31.1374 57.6154 34.5289 51.7871 34.5289H34.7298V28.2686L52.1571 28.2265C53.4087 28.2221 56.4236 26.5009 56.4236 24.3144C56.4236 22.3783 53.978 20.4245 52.1571 20.4245H34.7298V14.1642L52.3365 14.1111C53.6745 13.9626 56.4236 12.2968 56.4236 10.2122C56.4236 7.65586 54.5938 6.32228 52.1571 6.32228H32.92C31.181 6.32228 28.8129 4.9001 28.8129 3.16114C28.8129 1.338 31.3073 0 32.92 0Z" fill="#00923F"/>
<path fill-rule="evenodd" clip-rule="evenodd" d="M48.05 41.6774H29.1829C21.5359 41.6774 15.2778 37.083 15.2778 31.4652C15.2778 28.5765 16.9171 26.1265 19.1479 24.4141C16.7532 22.5777 15.2778 20.09 15.2778 17.363C15.2778 10.5423 23.3546 7.15078 29.1829 7.15078H46.2402V13.411L28.8129 13.4531C27.5613 13.4553 24.5486 15.1788 24.5486 17.363C24.5486 19.2991 26.992 21.253 28.8129 21.253H46.2402V27.5132L28.6335 27.5664C27.2955 27.717 24.5486 29.3807 24.5486 31.4652C24.5486 34.0216 26.3762 35.3574 28.8129 35.3574H48.05C49.789 35.3574 52.1571 36.7796 52.1571 38.5185C52.1571 40.3417 49.6627 41.6774 48.05 41.6774Z" fill="#DF4C18"/>
<path fill-rule="evenodd" clip-rule="evenodd" d="M1.5035 50.3988H0.5V44.9117L1.5766 44.3247V46.4912C2.03294 46.0991 2.61334 45.9019 3.31778 45.9019C3.70766 45.9019 4.07982 45.9573 4.42761 46.0658C4.77762 46.1744 5.06339 46.3272 5.28934 46.5244C5.51529 46.7238 5.69251 46.9608 5.81878 47.2399C5.94727 47.5168 6.00929 47.8136 6.00929 48.1304C6.00929 48.8836 5.74125 49.4662 5.20516 49.876C4.66464 50.2881 4.02001 50.4919 3.26683 50.4919C2.51808 50.4919 1.93104 50.2748 1.5035 49.845V50.3988ZM1.49243 48.1659C1.49243 48.6909 1.59654 49.0719 1.80256 49.3067C2.14149 49.69 2.59783 49.8805 3.176 49.8805C3.64785 49.8805 4.05324 49.7409 4.39438 49.4574C4.73775 49.1738 4.90832 48.7529 4.90832 48.1925C4.90832 47.6187 4.74439 47.1956 4.41654 46.9231C4.08868 46.6507 3.68994 46.5133 3.22474 46.5133C2.75289 46.5133 2.34751 46.6551 2.00636 46.9386C1.663 47.22 1.49243 47.6298 1.49243 48.1659ZM11.4743 49.8472C11.0733 50.0843 10.6879 50.2482 10.3179 50.3457C9.9502 50.4431 9.55367 50.4919 9.12834 50.4919C8.43054 50.4919 7.89446 50.3745 7.51787 50.1396C7.14349 49.9048 6.9552 49.6036 6.9552 49.2358C6.9552 49.021 7.02608 48.826 7.16786 48.6466C7.30964 48.4694 7.49571 48.3276 7.72388 48.219C7.95427 48.1127 8.21345 48.0307 8.49922 47.9754C8.71188 47.9377 9.03309 47.9 9.46063 47.8646C10.329 47.7937 10.9714 47.7073 11.3812 47.6076C11.3857 47.5057 11.3879 47.4415 11.3879 47.4149C11.3879 47.1114 11.286 46.8988 11.0822 46.7725C10.8075 46.6041 10.3955 46.5222 9.85273 46.5222C9.34544 46.5222 8.96885 46.5842 8.7296 46.706C8.48593 46.8301 8.30871 47.0472 8.1913 47.3617L7.13906 47.2598C7.23432 46.9475 7.3916 46.695 7.61312 46.5022C7.83243 46.3095 8.15142 46.1633 8.56789 46.0592C8.98214 45.9551 9.46506 45.9019 10.0122 45.9019C10.555 45.9019 10.998 45.9462 11.3391 46.0348C11.6781 46.1256 11.9284 46.2342 12.0879 46.3693C12.2474 46.5044 12.3604 46.6728 12.4246 46.8788C12.4601 47.0051 12.4778 47.2355 12.4778 47.5633V48.5535C12.4778 49.2447 12.4999 49.6811 12.5442 49.8672C12.5885 50.0533 12.6772 50.2283 12.8079 50.3988H11.6825C11.574 50.2415 11.5053 50.0577 11.4743 49.8472ZM11.3879 48.1925C10.9958 48.3032 10.4087 48.3963 9.62456 48.4738C9.17929 48.5159 8.86473 48.5668 8.68087 48.6222C8.49922 48.6776 8.35744 48.7573 8.25776 48.8615C8.15807 48.9678 8.10712 49.0852 8.10712 49.2159C8.10712 49.4108 8.21345 49.577 8.43276 49.7099C8.65207 49.8406 8.96885 49.907 9.38753 49.907C9.80177 49.907 10.1717 49.845 10.4974 49.7188C10.8186 49.5947 11.0578 49.4241 11.2085 49.207C11.3259 49.0387 11.3812 48.7906 11.3812 48.4649L11.3879 48.1925ZM14.1326 50.3988V45.9949H15.1006V46.6219C15.5658 46.1412 16.2393 45.9019 17.1187 45.9019C17.5019 45.9019 17.8542 45.9506 18.1732 46.0459C18.4944 46.1411 18.7358 46.2652 18.8953 46.4203C19.0526 46.5753 19.1656 46.757 19.2298 46.9696C19.2675 47.1092 19.2874 47.3507 19.2874 47.6962V50.3988H18.2108V47.7228C18.2108 47.4193 18.1709 47.1912 18.0868 47.0427C18.0026 46.8921 17.8542 46.7725 17.6415 46.6817C17.4288 46.5931 17.1785 46.5465 16.8927 46.5465C16.4342 46.5465 16.0421 46.6484 15.7076 46.85C15.3753 47.0516 15.2114 47.4348 15.2114 47.9975V50.3988H14.1326ZM20.9466 50.3988V44.9117L22.0254 44.3247V47.7849L24.573 45.9949H25.9641L23.5385 47.632L26.21 50.3988H24.8831L22.772 48.1482L22.0254 48.6532V50.3988H20.9466Z" fill="#1F1A17"/>
<path fill-rule="evenodd" clip-rule="evenodd" d="M29.4731 50.2947V45.1775L31.0946 44.2959V46.4601C31.5953 46.057 32.1867 45.8554 32.8735 45.8554C33.6222 45.8554 34.238 46.0459 34.7276 46.4313C35.2172 46.8146 35.4609 47.3662 35.4609 48.0861C35.4609 48.8282 35.2127 49.3998 34.7143 49.8029C34.2159 50.2039 33.6067 50.4033 32.8956 50.4033C32.5434 50.4033 32.2 50.339 31.8589 50.2127C31.5155 50.0843 31.2231 49.9004 30.9772 49.6567V50.2947H29.4731ZM31.0703 48.0374C31.0703 48.4893 31.1722 48.8238 31.3715 49.0387C31.6551 49.3466 32.0272 49.4994 32.4946 49.4994C32.8535 49.4994 33.1592 49.3909 33.414 49.1738C33.6665 48.9545 33.7928 48.6111 33.7928 48.1437C33.7928 47.6453 33.6643 47.2864 33.4095 47.0649C33.1548 46.8456 32.8291 46.7348 32.4326 46.7348C32.0405 46.7348 31.7171 46.8434 31.4601 47.0583C31.201 47.2731 31.0703 47.5988 31.0703 48.0374ZM40.3233 48.9213L41.9448 49.114C41.7366 49.5349 41.4065 49.8539 40.9591 50.0754C40.5094 50.2947 39.9489 50.4033 39.2755 50.4033C38.2077 50.4033 37.4169 50.1574 36.9074 49.6634C36.502 49.2668 36.2982 48.7662 36.2982 48.1614C36.2982 47.4415 36.5663 46.8766 37.0957 46.469C37.6273 46.0592 38.2986 45.8554 39.1116 45.8554C40.022 45.8554 40.742 46.068 41.2714 46.4956C41.7986 46.9231 42.0512 47.5788 42.0268 48.4605H37.9685C37.9796 48.8016 38.1103 49.0675 38.3606 49.2558C38.6087 49.4463 38.9211 49.5415 39.291 49.5415C39.5457 49.5415 39.7584 49.4928 39.9312 49.3953C40.104 49.2979 40.2347 49.1384 40.3233 48.9213ZM40.4185 47.7561C40.4053 47.4238 40.2856 47.169 40.0552 46.9962C39.8249 46.8212 39.5435 46.7348 39.2135 46.7348C38.859 46.7348 38.5666 46.8279 38.3362 47.0095C38.1058 47.1934 37.9929 47.4437 37.9973 47.7561H40.4185ZM48.9406 50.2947H47.319V48.0795C47.319 47.6098 47.2836 47.3064 47.2127 47.1712C47.1418 47.0317 47.031 46.9253 46.8737 46.85C46.7142 46.7725 46.526 46.7348 46.3044 46.7348C46.0209 46.7348 45.7661 46.7902 45.5402 46.8988C45.3142 47.0073 45.1614 47.1513 45.0772 47.3307C44.993 47.5102 44.9509 47.8424 44.9509 48.3298V50.2947H43.3294V45.9462H44.8335V46.5842C45.3718 46.0968 46.0475 45.8554 46.8671 45.8554C47.226 45.8554 47.556 45.9019 47.8529 45.9927C48.1519 46.0835 48.3779 46.201 48.5285 46.3405C48.6836 46.4845 48.7899 46.644 48.8497 46.8234C48.9095 47.0051 48.9406 47.2621 48.9406 47.5966V50.2947ZM50.4292 50.5716L52.2856 50.7311C52.3188 50.8862 52.3897 50.9925 52.5004 51.0501C52.6555 51.1343 52.897 51.1742 53.2293 51.1742C53.6524 51.1742 53.9714 51.1299 54.184 51.039C54.3258 50.9792 54.4343 50.884 54.5075 50.7488C54.5562 50.6536 54.5828 50.4764 54.5828 50.2216L54.5894 49.5858C54.0998 50.0599 53.4862 50.2947 52.7441 50.2947C51.9201 50.2947 51.2643 50.0488 50.7836 49.5548C50.4048 49.1649 50.2165 48.6798 50.2165 48.0994C50.2165 47.3706 50.4646 46.8146 50.9586 46.4313C51.4549 46.0481 52.0707 45.8554 52.8084 45.8554C53.5682 45.8554 54.1951 46.0902 54.6891 46.562V45.9462H56.2043V49.845C56.2043 50.359 56.1445 50.7422 56.0249 50.9947C55.9053 51.2495 55.7369 51.4466 55.522 51.5928C55.3049 51.7368 55.017 51.852 54.6581 51.9318C54.297 52.0137 53.8407 52.0558 53.2913 52.0558C52.2501 52.0558 51.5125 51.9273 51.076 51.6748C50.6396 51.4201 50.4226 51.1011 50.4226 50.7112C50.4226 50.6735 50.4248 50.627 50.4292 50.5716ZM51.8846 48.033C51.8846 48.4937 52.0109 48.8304 52.2612 49.0453C52.5137 49.258 52.8239 49.3665 53.1938 49.3665C53.5881 49.3665 53.9226 49.2558 54.1951 49.0365C54.4698 48.8172 54.6049 48.4937 54.6049 48.0618C54.6049 47.6121 54.4764 47.2798 54.2128 47.0605C53.9536 46.8434 53.6214 46.7348 53.2204 46.7348C52.8327 46.7348 52.5137 46.8434 52.2612 47.056C52.0109 47.2687 51.8846 47.5943 51.8846 48.033ZM57.7506 50.2947V45.1775L59.3721 44.2959V47.4791L61.2728 45.9462H63.2709L61.1775 47.5367L63.426 50.2947H61.6737L60.1253 48.3342L59.3721 48.9035V50.2947H57.7506ZM68.4501 50.2947V49.6456C68.2264 49.876 67.9318 50.0599 67.5685 50.1995C67.203 50.3368 66.8175 50.4033 66.4143 50.4033C66.0001 50.4033 65.6279 50.339 65.3023 50.2127C64.9722 50.0821 64.7352 49.9004 64.589 49.67C64.4406 49.4374 64.3697 49.1162 64.3697 48.7042V45.9462H65.989V47.9488C65.989 48.5624 66.02 48.9368 66.0798 49.0741C66.1396 49.2137 66.2482 49.3244 66.4077 49.4042C66.565 49.4839 66.7666 49.5238 67.0125 49.5238C67.2894 49.5238 67.5375 49.4706 67.759 49.3621C67.9805 49.2558 68.1289 49.1206 68.2109 48.9611C68.2906 48.7994 68.3327 48.4095 68.3327 47.7849V45.9462H69.9543V50.2947H68.4501ZM71.6201 50.2947V45.1775L73.2417 44.2959V50.2947H71.6201ZM78.9681 50.2947V49.6456C78.7421 49.876 78.4475 50.0599 78.0842 50.1995C77.7187 50.3368 77.3332 50.4033 76.9301 50.4033C76.5158 50.4033 76.1459 50.339 75.818 50.2127C75.4879 50.0821 75.2509 49.9004 75.1047 49.67C74.9585 49.4374 74.8854 49.1162 74.8854 48.7042V45.9462H76.5047V47.9488C76.5047 48.5624 76.5358 48.9368 76.5956 49.0741C76.6554 49.2137 76.7639 49.3244 76.9234 49.4042C77.0807 49.4839 77.2823 49.5238 77.5282 49.5238C77.8051 49.5238 78.0532 49.4706 78.2747 49.3621C78.4962 49.2558 78.6447 49.1206 78.7266 48.9611C78.8064 48.7994 78.8485 48.4095 78.8485 47.7849V45.9462H80.47V50.2947H78.9681Z" fill="#1F1A17"/>
<path d="M1.23103 52.5144L1.26426 52.6938C1.1978 52.7071 1.13799 52.7138 1.08482 52.7138C1.00064 52.7138 0.934185 52.7005 0.88545 52.6783C0.83893 52.6539 0.805701 52.6229 0.787979 52.5853C0.768042 52.5454 0.759181 52.4656 0.759181 52.3438V51.646H0.584178V51.4887H0.759181V51.1897L0.993996 51.0678V51.4887H1.23103V51.646H0.993996V52.3549C0.993996 52.4125 0.998427 52.4501 1.00729 52.4679C1.01615 52.4834 1.02944 52.4967 1.04716 52.5077C1.0671 52.5166 1.09368 52.521 1.12913 52.521C1.15349 52.521 1.18894 52.5188 1.23103 52.5144Z" fill="#1F1A17"/>
<path d="M33.5004 52.5144L33.5336 52.6938C33.4671 52.7071 33.4073 52.7138 33.3564 52.7138C33.27 52.7138 33.2035 52.7005 33.157 52.6783C33.1105 52.6539 33.0773 52.6229 33.0573 52.5853C33.0374 52.5454 33.0285 52.4656 33.0285 52.3438V51.646H32.8535V51.4887H33.0285V51.1897L33.2656 51.0678V51.4887H33.5004V51.646H33.2656V52.3549C33.2656 52.4125 33.27 52.4501 33.2766 52.4679C33.2855 52.4834 33.2988 52.4967 33.3165 52.5077C33.3364 52.5166 33.363 52.521 33.3985 52.521C33.425 52.521 33.4583 52.5188 33.5004 52.5144Z" fill="#1F1A17"/>
<path d="M3.88266 52.5454C3.76747 52.6096 3.65671 52.6562 3.55038 52.6827C3.44405 52.7093 3.32886 52.7226 3.20702 52.7226C3.00543 52.7226 2.85036 52.6894 2.74182 52.6251C2.63327 52.5609 2.58011 52.4789 2.58011 52.377C2.58011 52.3194 2.60004 52.2641 2.63992 52.2153C2.68201 52.1666 2.73517 52.1289 2.80163 52.0979C2.86809 52.0691 2.94119 52.047 3.02537 52.0315C3.08518 52.0204 3.17822 52.0115 3.30227 52.0004C3.55259 51.9805 3.73867 51.9584 3.85608 51.9318C3.8583 51.903 3.8583 51.8853 3.8583 51.8786C3.8583 51.7944 3.8295 51.7368 3.76969 51.7014C3.68994 51.6549 3.57253 51.6327 3.41525 51.6327C3.26904 51.6327 3.1605 51.6504 3.09182 51.6837C3.02094 51.7169 2.96999 51.7767 2.93676 51.8631L2.63327 51.8343C2.65985 51.7501 2.70637 51.6792 2.7684 51.6283C2.83264 51.5751 2.92347 51.5352 3.0453 51.5064C3.16493 51.4776 3.30449 51.4621 3.46177 51.4621C3.61684 51.4621 3.74532 51.4754 3.84279 51.4998C3.94247 51.5242 4.01336 51.5552 4.05988 51.5906C4.1064 51.6283 4.13742 51.6748 4.15735 51.7302C4.16621 51.7656 4.17286 51.8277 4.17286 51.9185V52.191C4.17286 52.3792 4.17951 52.4989 4.19058 52.5498C4.20387 52.6008 4.23046 52.6495 4.26811 52.696H3.94248C3.91146 52.6539 3.89152 52.603 3.88266 52.5454ZM3.8583 52.0913C3.74532 52.1223 3.57475 52.1467 3.34879 52.1688C3.22031 52.1799 3.12948 52.1932 3.07632 52.2087C3.02537 52.2242 2.98328 52.2463 2.95448 52.2751C2.92568 52.3039 2.91239 52.3372 2.91239 52.3726C2.91239 52.4258 2.9434 52.4723 3.00543 52.5077C3.06967 52.5432 3.1605 52.5609 3.28012 52.5609C3.39974 52.5609 3.50607 52.5454 3.60133 52.5099C3.69437 52.4767 3.76304 52.428 3.80513 52.3704C3.84057 52.3239 3.85608 52.2552 3.85608 52.1666L3.8583 52.0913Z" fill="#1F1A17"/>
<path d="M26.1236 52.5321C26.0084 52.5963 25.8977 52.6429 25.7913 52.6694C25.685 52.696 25.5698 52.7093 25.448 52.7093C25.2464 52.7093 25.0913 52.6761 24.9828 52.6119C24.8765 52.5476 24.8211 52.4656 24.8211 52.3637C24.8211 52.3061 24.841 52.253 24.8831 52.202C24.923 52.1533 24.9784 52.1156 25.0426 52.0868C25.1091 52.0558 25.1844 52.0337 25.2663 52.0182C25.3284 52.0093 25.4214 51.9982 25.5432 51.9872C25.7936 51.9694 25.9796 51.9451 26.097 51.9185C26.0993 51.8897 26.0993 51.872 26.0993 51.8653C26.0993 51.7811 26.0705 51.7235 26.0107 51.6881C25.9331 51.6438 25.8135 51.6194 25.6562 51.6194C25.51 51.6194 25.4015 51.6371 25.3328 51.6704C25.2619 51.7036 25.211 51.7634 25.1777 51.8498L24.8742 51.8232C24.9008 51.7368 24.9473 51.6682 25.0116 51.615C25.0736 51.5618 25.1667 51.522 25.2863 51.4932C25.4059 51.4644 25.5455 51.4511 25.7027 51.4511C25.86 51.4511 25.9863 51.4621 26.086 51.4865C26.1834 51.5109 26.2565 51.5419 26.3009 51.5773C26.3474 51.615 26.3806 51.6615 26.3983 51.7169C26.4094 51.7523 26.4138 51.8166 26.4138 51.9052V52.1777C26.4138 52.3682 26.4205 52.4878 26.4338 52.5387C26.4448 52.5897 26.4714 52.6362 26.5091 52.6827H26.1857C26.1524 52.6406 26.1325 52.5897 26.1236 52.5321ZM26.0993 52.078C25.9863 52.109 25.8179 52.1334 25.592 52.1555C25.4635 52.1666 25.3727 52.1799 25.3195 52.1954C25.2663 52.2109 25.2265 52.233 25.1977 52.2618C25.1689 52.2906 25.1534 52.3239 25.1534 52.3593C25.1534 52.4125 25.1844 52.459 25.2464 52.4944C25.3106 52.5299 25.4015 52.5498 25.5233 52.5498C25.6429 52.5498 25.7493 52.5321 25.8423 52.4967C25.9353 52.4634 26.004 52.4169 26.0483 52.3571C26.0815 52.3106 26.097 52.2419 26.097 52.1533L26.0993 52.078Z" fill="#1F1A17"/>
<path d="M5.70581 52.696V51.4887H5.98714V51.6593C6.12449 51.5286 6.32164 51.4621 6.57861 51.4621C6.68937 51.4621 6.79349 51.4754 6.88653 51.502C6.97957 51.5286 7.05045 51.5618 7.09697 51.6039C7.14349 51.6482 7.17672 51.697 7.19444 51.7568C7.20552 51.7944 7.21217 51.8609 7.21217 51.9539V52.696H6.8976V51.9628C6.8976 51.8786 6.88431 51.8166 6.85994 51.7745C6.83558 51.7346 6.79349 51.7014 6.73146 51.677C6.66943 51.6527 6.59411 51.6394 6.51215 51.6394C6.37702 51.6394 6.26183 51.6682 6.16657 51.7235C6.0691 51.7789 6.02037 51.883 6.02037 52.0381V52.696H5.70581Z" fill="#1F1A17"/>
<path d="M27.9468 52.696V51.4887H28.2303V51.6593C28.3654 51.5286 28.5626 51.4621 28.8196 51.4621C28.9325 51.4621 29.0344 51.4754 29.1275 51.502C29.2205 51.5286 29.2914 51.5618 29.3379 51.6039C29.3845 51.6482 29.4177 51.697 29.4354 51.7568C29.4487 51.7944 29.4531 51.8609 29.4531 51.9539V52.696H29.1386V51.9628C29.1386 51.8786 29.1275 51.8166 29.1031 51.7745C29.0788 51.7346 29.0345 51.7014 28.9724 51.677C28.9104 51.6527 28.8373 51.6394 28.7531 51.6394C28.6202 51.6394 28.505 51.6682 28.4075 51.7235C28.3101 51.7789 28.2613 51.883 28.2613 52.0381V52.696H27.9468Z" fill="#1F1A17"/>
<path d="M8.69859 52.7957L8.99321 52.8245C9.00651 52.8865 9.03973 52.9308 9.09733 52.9596C9.17265 52.9973 9.27676 53.015 9.40968 53.015C9.55145 53.015 9.66 52.9973 9.73753 52.9596C9.81507 52.922 9.86602 52.8688 9.89482 52.8001C9.91032 52.7581 9.91697 52.6717 9.91697 52.5387C9.78184 52.6429 9.6157 52.696 9.41632 52.696C9.16822 52.696 8.97549 52.6362 8.84036 52.5166C8.70302 52.397 8.63435 52.253 8.63435 52.0868C8.63435 51.9716 8.66757 51.8653 8.7296 51.7678C8.79163 51.6704 8.88024 51.5951 8.99986 51.5419C9.11727 51.4887 9.25683 51.4621 9.41632 51.4621C9.62899 51.4621 9.80621 51.522 9.94355 51.6371V51.4887H10.2249V52.5321C10.2249 52.7204 10.1983 52.8533 10.1407 52.9308C10.0831 53.0106 9.99229 53.0726 9.86823 53.1169C9.74418 53.1634 9.59133 53.1856 9.41189 53.1856C9.1948 53.1856 9.02201 53.1524 8.8891 53.0881C8.75618 53.0239 8.69416 52.9264 8.69859 52.7957ZM8.94891 52.0713C8.94891 52.2308 8.99543 52.346 9.08847 52.4169C9.18372 52.49 9.30113 52.5277 9.44291 52.5277C9.58468 52.5277 9.70209 52.49 9.79735 52.4191C9.8926 52.346 9.94133 52.233 9.94133 52.078C9.94133 51.9318 9.89038 51.8188 9.79291 51.7457C9.69544 51.6704 9.57582 51.6327 9.43848 51.6327C9.30335 51.6327 9.18594 51.6704 9.09068 51.7435C8.99543 51.8166 8.94891 51.9273 8.94891 52.0713Z" fill="#1F1A17"/>
<path d="M11.7401 52.7957L12.0347 52.8245C12.048 52.8865 12.0835 52.9308 12.1388 52.9596C12.2164 52.9973 12.3183 53.015 12.4512 53.015C12.593 53.015 12.7015 52.9973 12.7791 52.9596C12.8566 52.922 12.9075 52.8688 12.9363 52.8001C12.9518 52.7581 12.9585 52.6717 12.9585 52.5387C12.8234 52.6429 12.6572 52.696 12.4578 52.696C12.2097 52.696 12.017 52.6362 11.8819 52.5166C11.7445 52.397 11.6781 52.253 11.6781 52.0868C11.6781 51.9716 11.7091 51.8653 11.7711 51.7678C11.8331 51.6704 11.924 51.5951 12.0414 51.5419C12.1588 51.4887 12.2983 51.4621 12.4601 51.4621C12.6727 51.4621 12.8477 51.522 12.9851 51.6371V51.4887H13.2686V52.5321C13.2686 52.7204 13.2398 52.8533 13.1822 52.9308C13.1246 53.0106 13.0338 53.0726 12.9098 53.1169C12.7857 53.1634 12.6328 53.1856 12.4534 53.1856C12.2363 53.1856 12.0635 53.1524 11.9306 53.0881C11.7999 53.0239 11.7357 52.9264 11.7401 52.7957ZM11.9904 52.0713C11.9904 52.2308 12.0369 52.346 12.1322 52.4169C12.2252 52.49 12.3427 52.5277 12.4844 52.5277C12.6262 52.5277 12.7436 52.49 12.8389 52.4191C12.9341 52.346 12.9829 52.233 12.9829 52.078C12.9829 51.9318 12.9319 51.8188 12.8344 51.7457C12.737 51.6704 12.6196 51.6327 12.48 51.6327C12.3449 51.6327 12.2297 51.6704 12.1322 51.7435C12.0369 51.8166 11.9904 51.9273 11.9904 52.0713Z" fill="#1F1A17"/>
<path d="M16.0244 52.696V52.5166C15.8782 52.6539 15.6788 52.7226 15.4285 52.7226C15.3177 52.7226 15.2158 52.7093 15.1183 52.6805C15.0231 52.6539 14.9522 52.6207 14.9057 52.5786C14.8592 52.5365 14.8259 52.4856 14.8082 52.428C14.7949 52.3859 14.7883 52.3239 14.7883 52.2353V51.4887H15.1073V52.1577C15.1073 52.2641 15.1139 52.3349 15.1272 52.3726C15.1471 52.4258 15.1892 52.4679 15.2535 52.4989C15.3177 52.5299 15.3975 52.5454 15.4927 52.5454C15.588 52.5454 15.6788 52.5299 15.7608 52.4989C15.8449 52.4679 15.9047 52.4236 15.938 52.3704C15.9734 52.315 15.9911 52.2375 15.9911 52.1334V51.4887H16.3101V52.696H16.0244Z" fill="#1F1A17"/>
<path d="M36.2495 52.696V52.5166C36.1033 52.6539 35.9061 52.7226 35.6558 52.7226C35.545 52.7226 35.4409 52.7093 35.3457 52.6805C35.2504 52.6539 35.1773 52.6207 35.1308 52.5786C35.0843 52.5365 35.0532 52.4856 35.0333 52.428C35.0222 52.3859 35.0156 52.3239 35.0156 52.2353V51.4887H35.3324V52.1577C35.3324 52.2641 35.339 52.3349 35.3523 52.3726C35.3722 52.4258 35.4143 52.4679 35.4808 52.4989C35.545 52.5299 35.6248 52.5454 35.72 52.5454C35.8153 52.5454 35.9039 52.5299 35.9881 52.4989C36.07 52.4679 36.1299 52.4236 36.1653 52.3704C36.1985 52.315 36.2162 52.2375 36.2162 52.1334V51.4887H36.5352V52.696H36.2495Z" fill="#1F1A17"/>
<path d="M46.2956 52.696V52.5166C46.1494 52.6539 45.9522 52.7226 45.7019 52.7226C45.5911 52.7226 45.487 52.7093 45.3918 52.6805C45.2965 52.6539 45.2256 52.6207 45.1791 52.5786C45.1326 52.5365 45.0993 52.4856 45.0794 52.428C45.0683 52.3859 45.0617 52.3239 45.0617 52.2353V51.4887H45.3807V52.1577C45.3807 52.2641 45.3873 52.3349 45.3984 52.3726C45.4183 52.4258 45.4604 52.4679 45.5269 52.4989C45.5911 52.5299 45.6709 52.5454 45.7661 52.5454C45.8614 52.5454 45.95 52.5299 46.0342 52.4989C46.1184 52.4679 46.1759 52.4236 46.2114 52.3704C46.2468 52.315 46.2623 52.2375 46.2623 52.1334V51.4887H46.5813V52.696H46.2956Z" fill="#1F1A17"/>
<path d="M16.8263 52.696V51.0302H17.1409V51.6305C17.2871 51.5175 17.4709 51.4621 17.6947 51.4621C17.832 51.4621 17.9494 51.4799 18.0513 51.5153C18.1532 51.5508 18.2241 51.5995 18.2684 51.6615C18.3105 51.7235 18.3326 51.8144 18.3326 51.9318V52.696H18.0181V51.9318C18.0181 51.8299 17.9849 51.7568 17.9162 51.7103C17.8475 51.6637 17.7523 51.6394 17.6282 51.6394C17.5374 51.6394 17.4488 51.6549 17.3668 51.6859C17.2848 51.7191 17.2272 51.7612 17.1918 51.8144C17.1586 51.8675 17.1409 51.9428 17.1409 52.0381V52.696H16.8263Z" fill="#1F1A17"/>
<path d="M48.1409 52.696V51.0302H48.4554V51.6305C48.6016 51.5175 48.7855 51.4621 49.0092 51.4621C49.1466 51.4621 49.264 51.4799 49.3659 51.5153C49.4678 51.5508 49.5387 51.5995 49.583 51.6615C49.6273 51.7235 49.6472 51.8144 49.6472 51.9318V52.696H49.3327V51.9318C49.3327 51.8299 49.2994 51.7568 49.2308 51.7103C49.1643 51.6637 49.0668 51.6394 48.9428 51.6394C48.852 51.6394 48.7633 51.6549 48.6814 51.6859C48.6016 51.7191 48.5418 51.7612 48.5086 51.8144C48.4731 51.8675 48.4554 51.9428 48.4554 52.0381V52.696H48.1409Z" fill="#1F1A17"/>
<path d="M23.0533 52.696V52.5432C22.9359 52.6628 22.7653 52.7226 22.5394 52.7226C22.3932 52.7226 22.2603 52.696 22.1384 52.6429C22.0144 52.5897 21.9191 52.5166 21.8527 52.4213C21.7862 52.3261 21.7508 52.2175 21.7508 52.0935C21.7508 51.9739 21.7818 51.8653 21.8438 51.7656C21.9036 51.6682 21.9944 51.5928 22.1185 51.5419C22.2381 51.4887 22.3755 51.4621 22.5261 51.4621C22.6369 51.4621 22.7343 51.4777 22.8207 51.5087C22.9071 51.5397 22.978 51.5796 23.0312 51.6283V51.0302H23.3413V52.696H23.0533ZM22.0698 52.0935C22.0698 52.2486 22.1185 52.3637 22.2182 52.4391C22.3179 52.5166 22.4353 52.5543 22.5704 52.5543C22.7055 52.5543 22.8207 52.5188 22.916 52.4457C23.0112 52.3726 23.06 52.2618 23.06 52.1112C23.06 51.9473 23.0112 51.8254 22.9138 51.7479C22.8185 51.6704 22.6989 51.6327 22.5549 51.6327C22.4175 51.6327 22.3024 51.6704 22.2093 51.7435C22.1163 51.8188 22.0698 51.934 22.0698 52.0935Z" fill="#1F1A17"/>
<path d="M38.0372 52.7226V51.5131H38.3141V51.6837C38.3695 51.6261 38.4448 51.5773 38.54 51.5419C38.6331 51.5064 38.7394 51.4887 38.8612 51.4887C38.9942 51.4887 39.1049 51.5064 39.1891 51.5441C39.2755 51.5818 39.3353 51.6327 39.3707 51.6992C39.5147 51.5596 39.7008 51.4887 39.9312 51.4887C40.1106 51.4887 40.248 51.522 40.3454 51.5884C40.4429 51.6549 40.4916 51.7568 40.4916 51.8941V52.7226H40.1837V51.9628C40.1837 51.8808 40.1749 51.821 40.1549 51.7856C40.135 51.7501 40.0996 51.7213 40.0464 51.6992C39.9932 51.677 39.9312 51.6659 39.8625 51.6659C39.734 51.6659 39.6277 51.6947 39.5435 51.7501C39.4594 51.8077 39.4173 51.8963 39.4173 52.0204V52.7226H39.1116V51.9384C39.1116 51.8476 39.0872 51.7789 39.0362 51.7346C38.9875 51.6881 38.9055 51.6659 38.7904 51.6659C38.7062 51.6659 38.6264 51.6814 38.5533 51.7102C38.4802 51.7413 38.4271 51.7856 38.3938 51.8432C38.3606 51.903 38.3451 51.9872 38.3451 52.0957V52.7226H38.0372Z" fill="#1F1A17"/>
<path d="M42.3281 52.696H42.0335V51.0302H42.3502V51.6239C42.4854 51.5175 42.6559 51.4621 42.8642 51.4621C42.9794 51.4621 43.0879 51.4776 43.192 51.5064C43.2939 51.5375 43.3803 51.5796 43.4468 51.6327C43.5132 51.6881 43.5642 51.7523 43.6018 51.8299C43.6395 51.9052 43.6594 51.9872 43.6594 52.0736C43.6594 52.2818 43.5797 52.4413 43.4202 52.552C43.2607 52.665 43.0724 52.7226 42.8487 52.7226C42.6271 52.7226 42.4544 52.6628 42.3281 52.5454V52.696ZM42.3259 52.0846C42.3259 52.2286 42.3569 52.3327 42.4167 52.397C42.5164 52.5011 42.6515 52.5543 42.8221 52.5543C42.9616 52.5543 43.0813 52.5166 43.1809 52.4391C43.2828 52.3615 43.3338 52.2441 43.3338 52.0913C43.3338 51.934 43.2851 51.8188 43.1876 51.7435C43.0901 51.6682 42.9749 51.6305 42.8354 51.6305C42.698 51.6305 42.5784 51.6704 42.4765 51.7479C42.3768 51.8254 42.3259 51.9362 42.3259 52.0846Z" fill="#1F1A17"/>
</g>
<defs>
<clipPath id="clip0_801_8446">
<rect width="79.97" height="53.1856" fill="white" transform="translate(0.5)"/>
</clipPath>
</defs>
</svg>
