<svg width="81" height="28" viewBox="0 0 81 28" fill="none" xmlns="http://www.w3.org/2000/svg">
<g clip-path="url(#clip0_801_8338)">
<g clip-path="url(#clip1_801_8338)">
<path fill-rule="evenodd" clip-rule="evenodd" d="M34.7475 15.5254L34.7045 15.5582L33.7746 16.3954C32.8808 17.0915 32.3057 17.6621 31.2706 18.3853C30.1644 19.1593 29.2955 19.8327 28.056 20.5231L26.239 21.4316C24.8582 22.0757 22.2819 23.0169 20.4311 22.157C18.8865 21.4406 18.7565 19.9084 18.7475 18.4361C18.7441 17.8011 18.9057 17.3536 18.9509 16.8203C18.5599 17.0858 17.8853 20.3954 17.848 20.7672C17.6141 23.0904 18.0718 24.9717 19.8017 26.1695C21.2616 27.1819 23.2469 27.2113 24.9599 27.0203C25.3407 26.9785 25.6763 26.9231 26.0492 26.8486C27.961 26.4655 29.8085 25.7163 31.474 24.8497C31.6232 24.7717 31.6932 24.7141 31.8593 24.6293C32.4153 24.348 32.5543 24.2327 33.0729 23.9243C33.5588 23.635 34.7859 22.7943 35.2492 22.4135L37.5565 20.3785C37.8175 20.0621 38.2096 19.7288 38.5271 19.3774L38.8853 18.9762L39.9859 17.6067C40.1803 17.3582 40.3384 17.1186 40.5125 16.8712C41.2639 15.8056 41.4062 15.6045 42.048 14.5186L42.9599 12.8565C43.1136 12.5514 43.2096 12.296 43.3565 11.9898C43.4932 11.7039 43.6334 11.3841 43.7362 11.1073C44.8887 8.00336 45.6989 3.75929 42.9995 1.15364C42.3972 0.571717 41.1927 0.0745418 40.3079 0.00787512L40.2808 0.00561523H38.8322C37.4469 0.10618 36.1396 0.486971 34.8706 1.02934C34.2718 1.28471 33.6944 1.54799 33.1373 1.87228C32.7848 2.0768 31.6966 2.59771 31.5238 2.83386C31.7045 2.7785 31.7045 2.78641 31.8627 2.71861C33.7757 1.89262 37.1938 0.899401 39.0322 1.99093C39.4435 2.23499 39.7396 2.49488 39.9735 2.91748C40.8944 4.57963 40.2639 7.20788 39.4684 8.90957C39.3644 9.1333 39.2932 9.33669 39.1983 9.54912C38.8006 10.4508 37.7147 12.1536 37.0492 13.0045C36.9712 13.1039 36.9339 13.1649 36.856 13.2655L35.7531 14.5356C35.4786 14.8079 35.0932 15.2474 34.8141 15.4576L34.7475 15.5254Z" fill="#6579B3"/>
<path d="M0.5 7.3988H3.79492C4.44915 7.3988 4.93503 7.42479 5.2548 7.47903C5.57684 7.5344 5.86271 7.64739 6.11582 7.81801C6.36893 7.99089 6.58023 8.21914 6.74972 8.50502C6.91808 8.79089 7.00282 9.11293 7.00282 9.46773C7.00282 9.85191 6.89887 10.2067 6.69209 10.5265C6.48418 10.8485 6.20283 11.0892 5.84802 11.2497C6.34859 11.3977 6.73164 11.6474 7.00282 11.9999C7.27062 12.3525 7.40508 12.7672 7.40508 13.2451C7.40508 13.6203 7.31921 13.9852 7.14407 14.34C6.97006 14.6948 6.73164 14.9785 6.42881 15.192C6.12825 15.4022 5.75537 15.5333 5.31243 15.583C5.03672 15.6112 4.36667 15.6304 3.30565 15.6384H0.5L0.5 7.3988ZM2.16893 8.7683V10.6666H3.25819C3.90452 10.6666 4.30791 10.6576 4.46497 10.6384C4.74859 10.6056 4.97345 10.5073 5.13616 10.3446C5.29887 10.1819 5.3791 9.9683 5.3791 9.70389C5.3791 9.44852 5.30904 9.244 5.16893 9.08468C5.02881 8.92536 4.81977 8.82931 4.54294 8.79654C4.37797 8.77734 3.90452 8.7683 3.12373 8.7683H2.16893ZM2.16893 12.0361V14.2463H3.7113C4.30904 14.2463 4.69096 14.2293 4.85254 14.1965C5.1 14.1502 5.30113 14.0406 5.45593 13.8666C5.61186 13.6892 5.69096 13.4576 5.69096 13.1638C5.69096 12.9152 5.63107 12.7061 5.51017 12.5333C5.39153 12.3604 5.21638 12.2338 4.9904 12.1547C4.76441 12.0768 4.27062 12.0361 3.51356 12.0361H2.16893Z" fill="#332C2B"/>
<path d="M9.97343 11.5073L8.54632 11.2542C8.7079 10.6711 8.98586 10.2395 9.37908 9.95928C9.77231 9.67905 10.3576 9.53894 11.1316 9.53894C11.8356 9.53894 12.3621 9.62143 12.7068 9.78866C13.0503 9.95476 13.2943 10.1661 13.4333 10.4237C13.5734 10.6802 13.6446 11.1502 13.6446 11.8372L13.622 13.6779C13.622 14.2022 13.6469 14.5898 13.6966 14.8384C13.7463 15.0881 13.8401 15.3548 13.9791 15.6384H12.413C12.3734 15.5356 12.3215 15.3819 12.2616 15.1785C12.2367 15.0847 12.2175 15.0226 12.2062 14.9943C11.9373 15.2587 11.6503 15.4565 11.3429 15.5887C11.0367 15.7209 10.7102 15.7887 10.3633 15.7887C9.75084 15.7887 9.26722 15.6214 8.91468 15.2881C8.56214 14.9559 8.38586 14.5333 8.38586 14.0237C8.38586 13.6881 8.46609 13.3864 8.62654 13.122C8.78812 12.8587 9.01298 12.6565 9.30451 12.5163C9.59377 12.3762 10.0119 12.2531 10.5587 12.148C11.2955 12.0101 11.8073 11.8791 12.0909 11.7604V11.6011C12.0909 11.2937 12.0164 11.0757 11.8672 10.9435C11.7147 10.8124 11.4311 10.7468 11.0152 10.7468C10.7328 10.7468 10.5147 10.8033 10.3576 10.9163C10.1983 11.0271 10.0717 11.2248 9.97343 11.5073ZM12.0909 12.7841C11.8898 12.8519 11.5689 12.9322 11.1305 13.0259C10.6932 13.1197 10.4051 13.2124 10.2706 13.3005C10.0661 13.4485 9.96214 13.6327 9.96214 13.8565C9.96214 14.0791 10.0446 14.2689 10.2096 14.4305C10.3746 14.5909 10.5836 14.6723 10.839 14.6723C11.1226 14.6723 11.3949 14.5774 11.6537 14.392C11.8435 14.2474 11.97 14.0757 12.0299 13.8678C12.0695 13.7344 12.0909 13.4768 12.0909 13.0994V12.7841Z" fill="#332C2B"/>
<path d="M20.6322 15.6384H19.0559V12.5943C19.0559 11.9502 19.0209 11.5344 18.9543 11.3457C18.8853 11.1559 18.7757 11.0101 18.622 10.905C18.4684 10.7988 18.2842 10.7468 18.0695 10.7468C17.7938 10.7468 17.5463 10.8226 17.3283 10.9717C17.1068 11.1209 16.9576 11.3209 16.8774 11.5661C16.7949 11.8135 16.7543 12.27 16.7543 12.9378V15.6384H15.178V9.66549H16.639V10.5423C17.1622 9.87227 17.8209 9.53894 18.6164 9.53894C18.9655 9.53894 19.2865 9.60222 19.5757 9.72651C19.8672 9.85306 20.0853 10.0124 20.2333 10.2067C20.3836 10.4022 20.4865 10.6226 20.5441 10.87C20.604 11.1175 20.6322 11.47 20.6322 11.931V15.6384Z" fill="#332C2B"/>
<path d="M22.1724 15.6384V7.3988H23.7498V11.7694L25.5961 9.66547H27.5419L25.5046 11.8485L27.691 15.6384H25.9882L24.4808 12.9434L23.7498 13.7265V15.6384H22.1724Z" fill="#332C2B"/>
<path d="M46.3124 15.6384V7.3988H47.9282L51.3192 12.9208V7.3988H52.8615V15.6384H51.1949L47.8548 10.2214V15.6384H46.3124Z" fill="#332C2B"/>
<path d="M55.7859 11.5073L54.3599 11.2542C54.5204 10.6711 54.7984 10.2395 55.1916 9.95928C55.5848 9.67905 56.1701 9.53894 56.9453 9.53894C57.6492 9.53894 58.1746 9.62143 58.5193 9.78866C58.8628 9.95476 59.1068 10.1661 59.2469 10.4237C59.3871 10.6802 59.4583 11.1502 59.4583 11.8372L59.4345 13.6779C59.4345 14.2022 59.4594 14.5898 59.5091 14.8384C59.5599 15.0881 59.6537 15.3548 59.7916 15.6384H58.2266C58.1859 15.5356 58.134 15.3819 58.0752 15.1785C58.0503 15.0847 58.0311 15.0226 58.0187 14.9943C57.7509 15.2587 57.4628 15.4565 57.1566 15.5887C56.8492 15.7209 56.5227 15.7887 56.1758 15.7887C55.5645 15.7887 55.0808 15.6214 54.7272 15.2881C54.3746 14.9559 54.1984 14.5333 54.1984 14.0237C54.1984 13.6881 54.2786 13.3864 54.4402 13.122C54.6006 12.8587 54.8255 12.6565 55.117 12.5163C55.4063 12.3762 55.8244 12.2531 56.3712 12.148C57.108 12.0101 57.6198 11.8791 57.9046 11.7604V11.6011C57.9046 11.2937 57.8289 11.0757 57.6797 10.9435C57.5283 10.8124 57.2447 10.7468 56.8277 10.7468C56.5464 10.7468 56.3272 10.8033 56.1701 10.9163C56.0108 11.0271 55.8842 11.2248 55.7859 11.5073ZM57.9046 12.7841C57.7023 12.8519 57.3825 12.9322 56.943 13.0259C56.5057 13.1197 56.2176 13.2124 56.0842 13.3005C55.8786 13.4485 55.7746 13.6327 55.7746 13.8565C55.7746 14.0791 55.8571 14.2689 56.0221 14.4305C56.1871 14.5909 56.3961 14.6723 56.6515 14.6723C56.9351 14.6723 57.2074 14.5774 57.4673 14.392C57.6571 14.2474 57.7837 14.0757 57.8424 13.8678C57.8831 13.7344 57.9046 13.4768 57.9046 13.0994V12.7841Z" fill="#332C2B"/>
<path d="M60.8639 16.018L62.6707 16.2372C62.7012 16.4497 62.7701 16.5954 62.8774 16.6768C63.0289 16.7898 63.265 16.8474 63.587 16.8474C63.9995 16.8474 64.3091 16.7853 64.5159 16.661C64.6537 16.5785 64.7599 16.4463 64.83 16.2621C64.8786 16.131 64.9034 15.8881 64.9034 15.5367L64.9113 14.6644C64.4356 15.3141 63.8368 15.6384 63.1159 15.6384C62.3136 15.6384 61.6774 15.2994 61.2085 14.6214C60.8413 14.087 60.6571 13.4192 60.6571 12.6237C60.6571 11.6226 60.8978 10.8587 61.3803 10.331C61.8616 9.80335 62.4616 9.53894 63.1791 9.53894C63.917 9.53894 64.5272 9.86323 65.0074 10.5118V9.66549H66.4797V15.0214C66.4797 15.7254 66.4221 16.2519 66.3057 16.6C66.1904 16.9491 66.0277 17.2214 65.8164 17.4203C65.6074 17.618 65.3272 17.7751 64.9757 17.887C64.6255 18 64.1825 18.0553 63.6469 18.0553C62.6345 18.0553 61.917 17.8813 61.4933 17.5333C61.0695 17.1841 60.8582 16.7457 60.8582 16.2101C60.8582 16.1581 60.8594 16.0937 60.8639 16.018ZM62.2797 12.531C62.2797 13.1638 62.4017 13.6259 62.6458 13.9197C62.891 14.2135 63.1938 14.3615 63.5532 14.3615C63.9362 14.3615 64.2628 14.2101 64.5272 13.9084C64.7938 13.6067 64.926 13.1627 64.926 12.5717C64.926 11.9536 64.7995 11.496 64.5441 11.1966C64.291 10.8971 63.969 10.7468 63.5803 10.7468C63.2017 10.7468 62.891 10.8949 62.6458 11.1887C62.4017 11.4824 62.2797 11.9288 62.2797 12.531Z" fill="#332C2B"/>
<path d="M69.2175 11.5073L67.7904 11.2542C67.9508 10.6711 68.2288 10.2395 68.622 9.95928C69.0152 9.67905 69.6005 9.53894 70.3757 9.53894C71.0796 9.53894 71.6051 9.62143 71.9508 9.78866C72.2943 9.95476 72.5373 10.1661 72.6774 10.4237C72.8175 10.6802 72.8887 11.1502 72.8887 11.8372L72.8649 13.6779C72.8649 14.2022 72.8898 14.5898 72.9395 14.8384C72.9904 15.0881 73.0842 15.3548 73.222 15.6384H71.657C71.6164 15.5356 71.5644 15.3819 71.5056 15.1785C71.4808 15.0847 71.4615 15.0226 71.4502 14.9943C71.1813 15.2587 70.8932 15.4565 70.587 15.5887C70.2796 15.7209 69.9542 15.7887 69.6062 15.7887C68.9949 15.7887 68.5113 15.6214 68.1587 15.2881C67.8051 14.9559 67.6288 14.5333 67.6288 14.0237C67.6288 13.6881 67.709 13.3864 67.8706 13.122C68.0322 12.8587 68.2559 12.6565 68.5474 12.5163C68.8367 12.3762 69.2559 12.2531 69.8017 12.148C70.5384 12.0101 71.0503 11.8791 71.335 11.7604V11.6011C71.335 11.2937 71.2604 11.0757 71.1101 10.9435C70.9587 10.8124 70.6751 10.7468 70.2582 10.7468C69.9768 10.7468 69.7576 10.8033 69.6005 10.9163C69.4412 11.0271 69.3147 11.2248 69.2175 11.5073ZM71.335 12.7841C71.1339 12.8519 70.813 12.9322 70.3734 13.0259C69.9361 13.1197 69.6491 13.2124 69.5147 13.3005C69.309 13.4485 69.205 13.6327 69.205 13.8565C69.205 14.0791 69.2875 14.2689 69.4525 14.4305C69.6175 14.5909 69.8265 14.6723 70.0819 14.6723C70.3655 14.6723 70.639 14.5774 70.8977 14.392C71.0875 14.2474 71.2141 14.0757 71.2729 13.8678C71.3135 13.7344 71.335 13.4768 71.335 13.0994V12.7841Z" fill="#332C2B"/>
<path d="M75.9519 15.6384H74.3745V9.66549H75.8367V10.513C76.0875 10.113 76.3146 9.84967 76.5158 9.72538C76.7169 9.59996 76.9451 9.53894 77.2005 9.53894C77.561 9.53894 77.9078 9.63838 78.2423 9.83612L77.753 11.2135C77.4864 11.0406 77.2389 10.9548 77.0107 10.9548C76.7881 10.9548 76.5994 11.0158 76.4468 11.1367C76.2932 11.2598 76.1723 11.4779 76.0841 11.7966C75.996 12.1152 75.9519 12.783 75.9519 13.7966V15.6384Z" fill="#332C2B"/>
<path d="M78.9226 8.85982V7.3988H80.5V8.85982H78.9226ZM78.9226 15.6384V9.66547H80.5V15.6384H78.9226Z" fill="#332C2B"/>
<path fill-rule="evenodd" clip-rule="evenodd" d="M34.6672 11.4813L34.7621 15.4745L30.5181 15.3717L34.6672 11.4813Z" fill="#E62129"/>
<path fill-rule="evenodd" clip-rule="evenodd" d="M34.7622 15.4745H38.8051V19.34H34.7622V15.4745Z" fill="#FFF000"/>
<path fill-rule="evenodd" clip-rule="evenodd" d="M42.987 19.5299L38.8164 19.3582L38.8503 23.6022L42.987 19.5299Z" fill="#332C2B"/>
</g>
</g>
<defs>
<clipPath id="clip0_801_8338">
<rect width="80" height="27.1186" fill="white" transform="translate(0.5)"/>
</clipPath>
<clipPath id="clip1_801_8338">
<rect width="80" height="27.1186" fill="white" transform="translate(0.5)"/>
</clipPath>
</defs>
</svg>
