<svg width="81" height="80" viewBox="0 0 81 80" fill="none" xmlns="http://www.w3.org/2000/svg">
<g clip-path="url(#clip0_801_8356)">
<g clip-path="url(#clip1_801_8356)">
<path d="M40.5001 12.8433C25.5034 12.8433 13.3434 25.0033 13.3434 40C13.3434 54.9967 25.5034 67.1567 40.5001 67.1567C55.4967 67.1567 67.6567 54.9967 67.6567 40C67.6567 25.0033 55.4967 12.8433 40.5001 12.8433Z" fill="white"/>
<path d="M21.6666 59.42C22.2633 58.97 22.7933 58.44 23.3633 57.9567C23.4666 57.8733 23.5633 57.7833 23.6833 57.68C23.74 57.8567 23.7866 58 23.83 58.1467C24.1133 59.0767 24.71 59.7233 25.6266 60.0767C26.0033 60.2233 26.38 60.37 26.7666 60.4967C28.3966 61.0233 29.62 62.0367 30.45 63.52C30.53 63.6633 30.5933 63.7267 30.78 63.6733C32.49 63.1967 34.14 63.4 35.7366 64.1467C36.2533 64.3867 36.77 64.6267 37.3166 64.8067C38.1366 65.0833 38.8966 64.9667 39.6 64.47C39.7433 64.37 39.8833 64.2633 40.08 64.12C40.0933 65.1133 40.11 66.0633 40.1233 67.01C40.12 67.1667 40.0866 67.2567 39.8866 67.2433C38.91 67.19 37.9366 67.15 36.9633 67.03C34.8866 66.7767 32.8766 66.28 30.9266 65.5333C27.89 64.3767 25.17 62.6967 22.7066 60.6033C22.3666 60.3167 22.0366 60.0133 21.6966 59.7267C21.5766 59.6267 21.5566 59.5333 21.6666 59.42Z" fill="black"/>
<path d="M20.9533 21.2266C21.57 21.8966 22.1867 22.5666 22.83 23.2666C22.6733 23.32 22.5433 23.3666 22.4133 23.4033C21.42 23.69 20.7533 24.32 20.3933 25.2733C20.2433 25.6666 20.0967 26.0633 19.9633 26.4633C19.4467 28.0166 18.4567 29.18 17.0333 29.9866C16.8367 30.0966 16.7867 30.1933 16.85 30.4166C17.32 32.0666 17.1267 33.6633 16.4167 35.2133C16.2133 35.6533 16.02 36.0966 15.8367 36.5433C15.4267 37.54 15.55 38.4633 16.2533 39.2933C16.3133 39.3633 16.37 39.4366 16.4667 39.56C15.41 39.58 14.3967 39.6 13.3867 39.6166C13.2667 39.55 13.31 39.4366 13.31 39.34C13.36 35.0333 14.39 30.98 16.4933 27.2C17.0233 26.25 17.6133 25.34 18.2333 24.45C18.65 23.85 19.0867 23.27 19.55 22.7066C19.9233 22.26 20.3067 21.82 20.7067 21.3966C20.7767 21.3233 20.83 21.2233 20.9533 21.2266Z" fill="black"/>
<path d="M13.3933 40.55C14.3167 40.6033 15.24 40.6567 16.1967 40.71C16.1167 40.8633 16.05 41 15.98 41.1333C15.52 41.9867 15.4767 42.8633 15.87 43.7533C16.0467 44.1467 16.2267 44.5433 16.4233 44.93C17.18 46.4167 17.31 47.9633 16.86 49.5567C16.8067 49.7367 16.8233 49.83 17 49.9267C18.5233 50.7633 19.5367 52.03 20.14 53.6367C20.28 54.0133 20.44 54.3833 20.5767 54.76C21.0267 55.99 21.8867 56.6633 23.2867 56.6833C22.5633 57.4333 21.88 58.1433 21.1933 58.85C21.0267 58.9867 20.9533 58.83 20.87 58.7433C19.48 57.32 18.2533 55.7733 17.2167 54.08C15.42 51.14 14.2967 47.9633 13.7333 44.5767C13.5233 43.3133 13.42 42.0433 13.3233 40.77C13.3167 40.6867 13.3033 40.6 13.3933 40.55Z" fill="black"/>
<path d="M67.7767 39.5766C66.8433 39.5266 65.91 39.4733 64.9433 39.42C65.0367 39.2466 65.1167 39.1033 65.19 38.96C65.6267 38.12 65.67 37.2633 65.2867 36.3933C65.1033 35.9766 64.9133 35.5666 64.71 35.16C63.9767 33.6833 63.8533 32.1566 64.3033 30.58C64.35 30.4133 64.3567 30.3066 64.1733 30.2066C62.6267 29.3566 61.61 28.0633 61.01 26.4333C60.8567 26.0166 60.6833 25.6066 60.52 25.1966C60.12 24.17 59.3833 23.5666 58.2633 23.4533C58.16 23.4433 58.06 23.4266 57.9567 23.4133C57.9433 23.3066 58.0333 23.27 58.0867 23.2166C58.7 22.5966 59.3233 21.9833 59.93 21.3566C60.07 21.2166 60.14 21.2066 60.2833 21.3566C61.46 22.5633 62.5167 23.8666 63.4533 25.2633C63.5067 25.34 63.52 25.4566 63.6433 25.4766L63.6367 25.47C63.6833 25.69 63.8367 25.8533 63.9567 26.0333L63.9533 26.0266C64.0167 26.1333 64.08 26.24 64.1467 26.3433L64.14 26.3366C64.15 26.3733 64.15 26.4166 64.21 26.4066L64.2033 26.3966C64.1933 26.4566 64.2033 26.51 64.2667 26.5366C64.7 27.2166 65.0333 27.95 65.3733 28.67C65.8467 29.68 66.2133 30.7333 66.5467 31.7966C66.5767 31.89 66.6867 31.9566 66.6433 32.0733C66.5767 32.1766 66.67 32.23 66.7167 32.2966L66.71 32.29C66.7367 32.4166 66.7467 32.55 66.7933 32.6733C66.93 33.05 66.9333 33.4633 67.1333 33.82C67.13 34.2133 67.2233 34.6033 67.3267 34.9733C67.41 35.2633 67.3933 35.5466 67.4367 35.83C67.6133 37.0733 67.7833 38.3166 67.7767 39.5766Z" fill="black"/>
<path d="M59.9933 58.6733C59.42 58.0333 58.85 57.3967 58.2533 56.7333C58.3733 56.6933 58.4666 56.66 58.56 56.6333C59.5966 56.3467 60.3133 55.7167 60.6766 54.7067C60.8166 54.3067 60.97 53.9133 61.1033 53.5133C61.6133 51.9833 62.5866 50.8267 63.9866 50.03C64.2266 49.8933 64.2566 49.77 64.1866 49.52C63.72 47.87 63.9333 46.2767 64.6433 44.73C64.8733 44.2333 65.0866 43.73 65.2766 43.2167C65.5866 42.3667 65.4433 41.5733 64.8933 40.85C64.8 40.73 64.7033 40.6067 64.5666 40.4333C65.6166 40.41 66.62 40.39 67.62 40.37C67.7233 40.4333 67.6933 40.5333 67.6966 40.6233C67.72 42.1433 67.57 43.65 67.2966 45.1433C66.83 47.7067 65.9733 50.1433 64.7533 52.45C63.6533 54.5267 62.3066 56.43 60.75 58.1967C60.6133 58.35 60.4666 58.4967 60.3433 58.6633C60.22 58.83 60.1133 58.7933 59.9933 58.6733Z" fill="black"/>
<path d="M40.99 15.96C40.99 14.9433 40.9934 13.9833 40.9867 13.0267C40.9867 12.8333 41.0934 12.8433 41.23 12.8466C44.5134 12.9266 47.68 13.5533 50.7167 14.8066C53.9567 16.15 56.8034 18.08 59.3667 20.44C59.45 20.5166 59.5567 20.5666 59.4067 20.6966C58.7434 21.2633 58.0867 21.84 57.43 22.41C57.4167 22.4233 57.39 22.4166 57.33 22.4266C57.0934 20.9 56.03 20.18 54.6467 19.7533C53.69 19.46 52.7834 19.0467 52.0267 18.36C51.4567 17.8467 51 17.25 50.6267 16.5866C50.55 16.45 50.48 16.39 50.3134 16.4367C48.5767 16.92 46.9134 16.6933 45.3 15.93C44.7567 15.67 44.2134 15.4133 43.6334 15.24C42.8934 15.02 42.21 15.1367 41.5734 15.55C41.3934 15.6667 41.22 15.8 40.99 15.96Z" fill="black"/>
<path d="M23.6133 22.8C22.8933 22.1166 22.1767 21.44 21.46 20.7666C21.3067 20.6233 21.47 20.57 21.5333 20.5066C22.2467 19.79 23 19.12 23.79 18.4933C27.3733 15.6533 31.4567 13.92 35.97 13.1567C37.1533 12.9533 38.3433 12.82 39.54 12.74C39.7467 12.7267 39.8033 12.7766 39.7933 12.9833C39.7533 13.77 39.73 14.5533 39.7067 15.34C39.7033 15.5333 39.6633 15.5766 39.4833 15.47C38.43 14.8533 37.3733 14.8766 36.2967 15.4233C35.52 15.82 34.7467 16.2333 33.8867 16.4333C32.8267 16.6833 31.7733 16.61 30.73 16.35C30.57 16.31 30.4967 16.3233 30.4167 16.4733C29.5767 18.03 28.2867 19.0666 26.64 19.6933C26.1433 19.8833 25.6533 20.0866 25.1733 20.31C24.26 20.7266 23.7767 21.45 23.6933 22.44C23.6833 22.5333 23.67 22.6233 23.6567 22.7166C23.6533 22.7366 23.6367 22.7533 23.6133 22.8Z" fill="black"/>
<path d="M59.47 59.22C58.7533 58.5566 58.0333 57.89 57.2933 57.2033C57.2866 57.29 57.28 57.34 57.2766 57.39C57.2066 58.5866 56.61 59.4 55.4866 59.84C55.0633 60.0066 54.64 60.1866 54.2133 60.35C52.6666 60.9466 51.4266 61.91 50.61 63.36C50.4566 63.63 50.33 63.6966 50.0166 63.6166C48.5666 63.2433 47.1466 63.35 45.7833 64C45.3166 64.2233 44.85 64.45 44.38 64.6666C43.4366 65.1033 42.5066 65.0766 41.5866 64.5866C41.4833 64.5333 41.39 64.4366 41.23 64.4433C41.1933 65.27 41.1533 66.0933 41.1133 66.9166C41.07 67.2 41.2033 67.26 41.4666 67.2433C42.56 67.1666 43.6433 67.0433 44.7233 66.8733C48.0533 66.35 51.19 65.29 54.1033 63.6C56.04 62.4766 57.7966 61.1233 59.38 59.55C59.4733 59.46 59.61 59.3766 59.47 59.22Z" fill="black"/>
<path d="M40.5 0C18.4433 0 0.5 17.9433 0.5 40C0.5 62.0567 18.4433 80 40.5 80C62.5567 80 80.5 62.0567 80.5 40C80.5 17.9433 62.5567 0 40.5 0ZM40.5 78.52C19.2267 78.52 1.98 61.2733 1.98 40C1.98 18.7267 19.2267 1.48 40.5 1.48C61.7733 1.48 79.02 18.7267 79.02 40C79.02 61.2733 61.7733 78.52 40.5 78.52Z" fill="black"/>
<path d="M40.5 1.47998C19.2266 1.47998 1.97998 18.7266 1.97998 40C1.97998 61.2733 19.2266 78.52 40.5 78.52C61.7733 78.52 79.02 61.2733 79.02 40C79.02 18.7266 61.7733 1.47998 40.5 1.47998ZM40.5 67.1566C25.5033 67.1566 13.3433 54.9966 13.3433 40C13.3433 25.0033 25.5033 12.8433 40.5 12.8433C55.4966 12.8433 67.6566 25.0033 67.6566 40C67.6566 54.9966 55.4966 67.1566 40.5 67.1566Z" fill="#019966"/>
<path d="M70.83 38.5567C71.3866 38.59 71.8766 38.7733 72.3833 38.89C72.48 38.91 72.6033 38.9967 72.66 38.8767C72.73 38.7233 72.5566 38.6933 72.47 38.6433C72.0766 38.43 71.6933 38.1967 71.3233 37.9434C71.0966 37.7867 70.91 37.5967 70.8266 37.32C70.77 37.1367 70.82 36.9833 70.9466 36.8667C71.0666 36.7567 71.2133 36.72 71.3833 36.7833C71.8 36.9433 72.01 37.31 72.2433 37.6533C72.41 37.9033 72.55 38.1733 72.7066 38.43C72.7566 38.5134 72.7866 38.66 72.9233 38.6C73.05 38.5467 72.95 38.4367 72.9333 38.3533C72.8233 37.7967 72.6 37.2567 72.6133 36.6767C72.6166 36.47 72.6566 36.2833 72.8166 36.14C73.06 35.92 73.33 35.96 73.4866 36.25C73.6233 36.5 73.6433 36.7667 73.58 37.04C73.4833 37.4734 73.3766 37.91 73.2733 38.3433C73.2566 38.42 73.19 38.5133 73.3066 38.5567C73.41 38.59 73.45 38.4934 73.4866 38.42C73.64 38.1234 73.7933 37.83 73.9433 37.53C74.08 37.2567 74.27 37.0234 74.5 36.8233C74.6966 36.65 75.05 36.61 75.19 36.76C75.3733 36.9567 75.3366 37.1833 75.2266 37.4C75.06 37.72 74.77 37.91 74.49 38.11C74.2266 38.2934 73.95 38.46 73.6833 38.6433C73.62 38.6867 73.5266 38.74 73.57 38.84C73.6166 38.9533 73.71 38.93 73.8066 38.9033C74.18 38.8 74.5533 38.7133 74.9233 38.6067C75.16 38.54 75.4 38.5467 75.6366 38.5567C75.9233 38.5733 76.1766 38.7933 76.1866 39.02C76.2 39.2367 75.99 39.4433 75.6933 39.4967C75.1433 39.6 74.63 39.3967 74.1033 39.29C73.99 39.27 73.8833 39.23 73.7733 39.2C73.6933 39.1767 73.6333 39.1867 73.5933 39.27C73.5466 39.37 73.62 39.3967 73.6833 39.4367C74.0066 39.6433 74.33 39.85 74.66 40.0534C74.8566 40.1767 75.0166 40.3433 75.17 40.51C75.4033 40.76 75.42 41.08 75.24 41.2767C75.09 41.4367 74.74 41.4167 74.5 41.2034C74.2233 40.96 74.0333 40.6467 73.85 40.33C73.7333 40.12 73.6166 39.91 73.4966 39.7033C73.46 39.6367 73.4333 39.53 73.32 39.5833C73.2133 39.63 73.2666 39.72 73.2833 39.8C73.39 40.3367 73.5733 40.8633 73.55 41.4267C73.5433 41.5867 73.5166 41.7367 73.41 41.86C73.3 41.9867 73.1766 42.1434 73 42.1067C72.81 42.07 72.69 41.9067 72.6166 41.7233C72.4933 41.4133 72.58 41.1067 72.6466 40.8034C72.7233 40.46 72.8333 40.1233 72.9233 39.78C72.9433 39.7033 73.0333 39.5967 72.8866 39.5433C72.7666 39.5 72.7533 39.6233 72.7133 39.68C72.4133 40.13 72.17 40.6167 71.77 40.9967C71.45 41.3033 71.0933 41.3833 70.89 41.1767C70.6966 40.9833 70.7833 40.5933 71.0966 40.2967C71.4766 39.9433 71.9566 39.7534 72.3933 39.49C72.4466 39.4567 72.5033 39.43 72.5566 39.4C72.62 39.3633 72.7033 39.33 72.6566 39.24C72.6166 39.1634 72.5466 39.22 72.49 39.2333C72.0633 39.33 71.64 39.4267 71.2133 39.53C71.0266 39.5733 70.84 39.5667 70.6533 39.55C70.3566 39.52 70.0866 39.2767 70.1 39.0467C70.1133 38.75 70.3566 38.6633 70.5833 38.5833C70.67 38.5533 70.77 38.5633 70.83 38.5567Z" fill="black"/>
<path d="M8.02672 36.7533C8.02672 37.25 7.84005 37.71 7.73672 38.1867C7.71672 38.2833 7.64339 38.42 7.75672 38.4667C7.88672 38.5167 7.90339 38.35 7.95339 38.2733C8.24672 37.8067 8.40672 37.26 8.81005 36.8633C9.09672 36.5767 9.44672 36.4933 9.64005 36.6733C9.85672 36.8767 9.80339 37.2167 9.51005 37.5367C9.12339 37.96 8.62005 38.22 8.16339 38.5467C8.08672 38.6 7.94672 38.6167 8.00672 38.77C8.07339 38.93 8.19005 38.8267 8.27339 38.8067C8.75672 38.6833 9.23339 38.54 9.72672 38.4567C9.92339 38.4233 10.1101 38.45 10.2801 38.5167C10.4767 38.5967 10.6534 38.7533 10.6367 38.9833C10.6201 39.1933 10.4567 39.33 10.2501 39.3867C9.86339 39.4933 9.48339 39.4267 9.10672 39.34C8.82339 39.2767 8.54339 39.1967 8.26005 39.13C8.18672 39.1133 8.08672 39.08 8.04005 39.1833C7.99005 39.2933 8.10339 39.32 8.16339 39.3633C8.60672 39.6767 9.10339 39.9067 9.49672 40.2933C9.65672 40.45 9.78672 40.6167 9.78672 40.8567C9.78672 41.2267 9.50672 41.41 9.17339 41.2533C8.86672 41.11 8.66339 40.86 8.50005 40.5767C8.32005 40.27 8.14672 39.9633 7.97339 39.6533C7.92672 39.5767 7.89339 39.4567 7.77339 39.51C7.65672 39.5567 7.70672 39.6733 7.72672 39.7567C7.83005 40.16 7.92005 40.5633 7.98672 40.9767C8.02005 41.18 8.01339 41.37 7.96339 41.5633C7.88672 41.8467 7.66005 42.06 7.44339 42.0033C7.18672 41.94 7.05339 41.74 7.02339 41.48C6.98339 41.1 7.07339 40.7367 7.18005 40.3767C7.25005 40.1367 7.32339 39.8967 7.39005 39.6567C7.41005 39.5833 7.40672 39.5 7.32339 39.4633C7.22339 39.42 7.20672 39.5233 7.17339 39.5767C6.83672 40.09 6.56672 40.6467 6.07339 41.0433C5.72339 41.3233 5.29339 41.23 5.23339 40.8567C5.20005 40.6667 5.29339 40.5167 5.41005 40.3767C5.79005 39.9233 6.33339 39.7067 6.82339 39.4167C6.93005 39.3533 7.16005 39.3133 7.10672 39.1867C7.03339 39.0133 6.84339 39.17 6.72005 39.2C6.30672 39.3033 5.89339 39.4067 5.47339 39.4733C5.21339 39.5133 4.97005 39.4767 4.75672 39.32C4.63005 39.23 4.50339 39.1 4.53339 38.9367C4.56339 38.7567 4.68339 38.6167 4.87005 38.5567C5.25339 38.4267 5.63005 38.5 6.00672 38.59C6.28005 38.6567 6.54672 38.74 6.82005 38.8067C6.92005 38.8333 7.05672 38.95 7.12339 38.8067C7.19672 38.6533 7.02005 38.63 6.93339 38.5733C6.56005 38.3433 6.18339 38.1233 5.81339 37.89C5.62672 37.7733 5.46339 37.6233 5.35672 37.4233C5.23672 37.2 5.18005 36.9567 5.40005 36.77C5.62005 36.58 5.86339 36.6733 6.06005 36.8267C6.36672 37.0633 6.59339 37.38 6.78339 37.7167C6.90672 37.9367 7.03339 38.1533 7.16672 38.3633C7.21005 38.4333 7.23672 38.5767 7.35672 38.5167C7.45339 38.47 7.40672 38.3433 7.38672 38.26C7.31005 37.9233 7.23005 37.59 7.13672 37.26C7.06339 37.0033 7.06672 36.7433 7.08339 36.4833C7.10005 36.1867 7.34005 35.9167 7.57005 35.92C7.79339 35.9233 7.99672 36.1667 8.02339 36.4733C8.03339 36.5667 8.02672 36.66 8.02672 36.7533Z" fill="black"/>
<path d="M17.85 18.54C17.5333 18.2633 17.16 18.1466 16.74 18.1833C16.5333 18.2066 16.3133 18.2833 16.0833 18.4133C16.1333 18.1866 16.14 17.97 16.0966 17.7666C16.0333 17.4533 15.8766 17.1833 15.6333 16.9733C15.35 16.7266 15.0166 16.6 14.6366 16.6C14.6333 16.6 14.63 16.6 14.63 16.6C14.2566 16.6 13.8733 16.7366 13.4933 17.0066C13.2466 17.1833 12.96 17.4566 12.6433 17.82L10.8933 19.8333L11.2133 20.11L11.4433 19.8433C11.5633 19.7033 11.6866 19.6366 11.8166 19.6333C11.8666 19.6366 11.9966 19.6666 12.3333 19.96L15.2 22.4533C15.51 22.7233 15.57 22.8466 15.5833 22.8866C15.62 23.0266 15.5733 23.17 15.44 23.32L15.21 23.5866L15.5266 23.8633L17.43 21.6733C17.88 21.1566 18.1566 20.7433 18.2833 20.4C18.41 20.0533 18.43 19.7066 18.3433 19.3666C18.2566 19.0266 18.09 18.7466 17.85 18.54ZM14.8433 17.83C14.9933 17.96 15.0966 18.12 15.1566 18.3033C15.2166 18.4866 15.2166 18.67 15.1533 18.8633C15.09 19.0666 14.9233 19.3233 14.66 19.6266C14.5533 19.7466 14.4533 19.8533 14.3566 19.95C14.2966 20.01 14.2366 20.0666 14.1766 20.1166L12.6333 18.7733C12.73 18.5966 12.8533 18.42 13.01 18.24C13.3366 17.8633 13.6733 17.6466 14.0066 17.6C14.3366 17.5533 14.61 17.63 14.8433 17.83ZM16.3033 21.9633L14.6466 20.5266C14.68 20.4833 14.7166 20.4333 14.7566 20.38C14.8366 20.28 14.9333 20.1633 15.05 20.0333C15.3066 19.7366 15.5666 19.5233 15.8266 19.4C16.0733 19.28 16.3066 19.24 16.52 19.28C16.7366 19.32 16.9233 19.41 17.0766 19.5433C17.31 19.7466 17.4233 20.0033 17.42 20.3266C17.42 20.6533 17.2566 21.0066 16.9366 21.3766C16.75 21.5866 16.54 21.7866 16.3033 21.9633Z" fill="black"/>
<path d="M24.5333 14.97C24.3566 15.0867 24.1933 15.1367 24.0466 15.1267C23.94 15.1167 23.72 15.0533 23.2866 14.7967L18.6533 12.05L18.3933 12.2433L19.6466 17.4433C19.75 17.87 19.79 18.1767 19.7566 18.36C19.75 18.3933 19.7166 18.4933 19.51 18.71L19.4333 18.79L19.6733 19.1133L21.3666 17.8533L21.12 17.5233L21.0166 17.5867C20.7233 17.7733 20.6033 17.7867 20.57 17.79C20.48 17.7867 20.4433 17.7533 20.4266 17.73C20.3866 17.6767 20.3266 17.5567 20.26 17.28L20.0466 16.38L21.73 15.1267L22.4466 15.55C22.7433 15.7267 22.86 15.8367 22.9066 15.8967C22.94 15.94 22.9466 15.99 22.93 16.0533C22.92 16.0967 22.87 16.19 22.6633 16.3633L22.5666 16.44L22.8166 16.7733L24.8833 15.2367L24.6366 14.9033L24.5333 14.97ZM19.8966 15.7667L19.4133 13.7433L21.1966 14.7967L19.8966 15.7667Z" fill="black"/>
<path d="M29.04 11.2334L29.0467 11.3434C29.06 11.72 29.0367 12.0134 28.9767 12.2134C28.9167 12.4067 28.8267 12.5667 28.7034 12.6867C28.58 12.8134 28.3167 12.9667 27.9234 13.1467L27.5334 13.3267C27.0667 13.5434 26.9634 13.5567 26.95 13.5567C26.9 13.56 26.8634 13.55 26.8367 13.53C26.8 13.5034 26.7234 13.4167 26.6034 13.1567L25.06 9.80003C24.8767 9.39669 24.8567 9.26669 24.86 9.22669C24.86 9.15336 24.8967 9.07336 24.9667 8.99003C25.02 8.92669 25.15 8.82003 25.48 8.67336L25.6 8.62003L25.4234 8.23669L22.77 9.45336L22.9467 9.83669L23.2667 9.69003C23.4334 9.61336 23.5734 9.60336 23.6934 9.65669C23.7234 9.66669 23.8334 9.74336 24.0267 10.1667L25.6134 13.6134C25.7867 13.9934 25.7934 14.1234 25.7867 14.16C25.7634 14.3067 25.6634 14.42 25.48 14.5034L25.16 14.65L25.3367 15.0334L29.67 13.0434L29.43 11.1467L29.04 11.2334Z" fill="black"/>
<path d="M33.0734 11.6067C32.9601 11.6367 32.8467 11.64 32.7301 11.61C32.6567 11.5933 32.6067 11.5667 32.5801 11.53C32.5501 11.49 32.4867 11.3733 32.3867 11.02L31.3567 7.36332C31.2334 6.92999 31.2634 6.80332 31.2734 6.77665C31.3267 6.64665 31.4434 6.55999 31.6367 6.50665L31.9667 6.41332L31.8501 6.00665L29.1801 6.75999L29.2934 7.16332L29.6201 7.07332C29.7334 7.03999 29.8467 7.03999 29.9634 7.06665C30.0334 7.08332 30.0834 7.11332 30.1134 7.14999C30.1434 7.18999 30.2067 7.30665 30.3067 7.65999L31.3367 11.3167C31.4567 11.75 31.4301 11.8767 31.4201 11.9033C31.3701 12.03 31.2501 12.12 31.0567 12.1733L30.7301 12.2633L30.8434 12.67L33.5167 11.9167L33.4001 11.5133L33.0734 11.6067Z" fill="black"/>
<path d="M44.8433 5.56667C44.39 5.32 43.71 5.16 42.8233 5.08667L40.31 4.88L40.2766 5.3L40.6266 5.33C40.81 5.34334 40.94 5.40334 41.0166 5.51C41.0366 5.53334 41.0933 5.65334 41.0566 6.11667L40.7433 9.90334C40.71 10.3167 40.65 10.4333 40.6233 10.4667C40.5366 10.58 40.3933 10.6267 40.1933 10.61L39.8433 10.58L39.8066 11L42.55 11.2267C42.7133 11.24 42.87 11.2467 43.0233 11.2467C43.9666 11.2467 44.72 10.9933 45.2633 10.4867C45.8233 9.96 46.1433 9.26334 46.2133 8.41667C46.2666 7.79 46.1666 7.21334 45.9166 6.70667C45.6666 6.19667 45.3066 5.81334 44.8433 5.56667ZM42.1833 5.72667C42.47 5.68334 42.7266 5.67334 42.9466 5.69C43.6033 5.74334 44.11 6.00334 44.4933 6.48334C44.87 6.95667 45.03 7.58667 44.9666 8.36C44.9033 9.12334 44.6433 9.72 44.19 10.13C43.7366 10.54 43.2066 10.7133 42.57 10.6633C42.3566 10.6467 42.0966 10.59 41.79 10.5L42.1833 5.72667Z" fill="black"/>
<path d="M55.72 8.98003C55.8333 8.88003 55.9333 8.82336 56.0167 8.80669C56.1033 8.79336 56.2067 8.80669 56.33 8.85003L56.4533 8.89336L56.5933 8.49336L54.6933 7.82669L54.5533 8.22336L54.6767 8.26669C54.8267 8.32003 54.9433 8.38003 55.02 8.44336C55.0533 8.47003 55.0733 8.50336 55.0867 8.54669C55.1 8.59003 55.1 8.62669 55.0867 8.66336C55.0567 8.74336 54.9633 8.91336 54.68 9.26669L52.7833 11.6567V8.64336C52.7833 8.18003 52.82 7.98003 52.85 7.89336C52.8767 7.81669 52.9167 7.77003 52.9767 7.74336C53.0367 7.71669 53.1333 7.72336 53.25 7.76669L53.52 7.86003L53.66 7.46336L51.26 6.61669L51.12 7.01336L51.2433 7.05669C51.3733 7.10336 51.4233 7.13669 51.4433 7.15003C51.4933 7.18669 51.54 7.23669 51.5833 7.30003C51.6133 7.34336 51.6333 7.38669 51.6467 7.43336C51.68 7.55336 51.7 7.69003 51.7067 7.83003V8.72336L50.12 10.72L50.1233 7.59669C50.1267 7.11336 50.1533 6.96336 50.17 6.92003C50.19 6.86336 50.2267 6.82336 50.29 6.80003C50.36 6.77336 50.4533 6.78003 50.5667 6.82003L50.7867 6.89669L50.9267 6.50003L48.63 5.69336L48.49 6.09003L48.6133 6.13336C48.7533 6.18336 48.8567 6.24003 48.9167 6.30669C48.9733 6.37336 49.01 6.45003 49.0233 6.54669C49.03 6.59336 49.04 6.75003 49.04 7.22003L49.0633 12.4967L49.3867 12.61L51.7133 9.72003L51.7267 13.4367L52.0633 13.5534L55.24 9.55336C55.5367 9.16669 55.6633 9.02669 55.72 8.98003Z" fill="black"/>
<path d="M56.9566 15.4133C56.92 15.3467 56.9066 15.29 56.9133 15.2467C56.92 15.1967 56.9633 15.07 57.15 14.7567L59.1066 11.5C59.3366 11.1133 59.45 11.0467 59.4766 11.0367C59.6066 10.9867 59.75 11.0133 59.92 11.1133L60.2166 11.29L60.4333 10.93L58.0533 9.5L57.8366 9.86333L58.1266 10.0367C58.2266 10.0967 58.3066 10.1767 58.3666 10.28C58.4 10.3467 58.4133 10.4 58.4066 10.4467C58.4 10.4967 58.3566 10.6233 58.17 10.9367L56.2133 14.1933C55.9833 14.58 55.8733 14.65 55.8466 14.66C55.7166 14.71 55.57 14.6833 55.4 14.58L55.11 14.4033L54.8933 14.7667L57.27 16.1933L57.49 15.8333L57.1933 15.6567C57.0933 15.5967 57.0166 15.5167 56.9566 15.4133Z" fill="black"/>
<path d="M63.0966 16.78C63.5666 16.7467 63.97 16.5267 64.2967 16.13C64.54 15.8334 64.6633 15.5034 64.6667 15.1434C64.67 14.79 64.5833 14.46 64.4067 14.1634C64.2333 13.8767 63.9367 13.5567 63.52 13.2167L61.7567 11.77L61.49 12.0934L61.76 12.3167C61.9033 12.4334 61.9767 12.5567 61.98 12.6867C61.98 12.7167 61.96 12.8434 61.6633 13.2067L59.25 16.1434C58.9767 16.4734 58.8667 16.53 58.8433 16.5367C58.7 16.58 58.5567 16.54 58.3967 16.41L58.1267 16.19L57.86 16.5134L60.0033 18.2767L60.27 17.95L59.9967 17.7234C59.8533 17.6067 59.7833 17.4867 59.78 17.3567C59.78 17.3267 59.7966 17.1967 60.0966 16.8334L61.08 15.6334C61.1667 15.74 61.2533 15.8367 61.3366 15.9234C61.4533 16.0467 61.57 16.1567 61.6833 16.25C62.1533 16.6367 62.63 16.8134 63.0966 16.78ZM62.8267 13.51C62.9833 13.5934 63.11 13.67 63.1967 13.7434C63.3667 13.8834 63.4867 14.0467 63.5567 14.2267C63.6267 14.4067 63.6367 14.6 63.5833 14.81C63.53 15.0234 63.4267 15.2234 63.28 15.4034C63.0633 15.6667 62.82 15.81 62.5367 15.85C62.2533 15.8867 62.02 15.82 61.8133 15.6534C61.7533 15.6034 61.6833 15.5367 61.6067 15.4567C61.5433 15.3934 61.48 15.32 61.4067 15.2367L62.8267 13.51Z" fill="black"/>
<path d="M68.43 17.8333L68.22 17.5867L63.1167 19.1933C62.6967 19.33 62.3934 19.3867 62.21 19.3667C62.1767 19.3633 62.0734 19.3367 61.8434 19.1467L61.7567 19.0767L61.4534 19.3367L62.8267 20.94L63.14 20.67L63.0667 20.5733C62.86 20.2933 62.8334 20.1767 62.8334 20.14C62.83 20.05 62.86 20.0133 62.8834 19.9933C62.9334 19.95 63.05 19.8833 63.3234 19.7967L64.2034 19.52L65.57 21.1167L65.1967 21.8567C65.0434 22.17 64.94 22.2933 64.8834 22.34C64.8434 22.3767 64.7934 22.39 64.73 22.3767C64.6867 22.3667 64.5867 22.3267 64.4034 22.13L64.3167 22.04L64 22.31L65.6767 24.2667L65.9934 23.9967L65.9167 23.9C65.7934 23.7333 65.73 23.5733 65.73 23.4267C65.73 23.3167 65.78 23.0933 66.0067 22.6433L68.43 17.8333ZM66.7934 18.71L65.86 20.56L64.8067 19.33L66.7934 18.71Z" fill="black"/>
<path d="M19.3601 61.88L19.5734 62.1067C19.6367 62.1767 19.6801 62.2567 19.7034 62.3533C19.7167 62.41 19.7167 62.4533 19.7034 62.4867C19.6867 62.52 19.6234 62.61 19.4001 62.82L16.9134 65.1333C16.7434 65.29 16.6534 65.3233 16.6134 65.33C16.5634 65.3367 16.5267 65.33 16.51 65.3167C16.4934 65.2933 16.5 65.2367 16.5334 65.1633C16.6734 64.8433 16.6867 64.72 16.6834 64.65C16.6767 64.54 16.6367 64.4433 16.56 64.3633C16.4634 64.26 16.3434 64.2033 16.1934 64.1933C16.0734 64.1933 15.9534 64.24 15.8401 64.3433C15.7034 64.47 15.64 64.6433 15.6467 64.8567C15.6567 65.0633 15.75 65.2633 15.9267 65.4533C16.14 65.6833 16.4001 65.8167 16.6934 65.85C16.7567 65.8567 16.8201 65.86 16.8834 65.86C17.0967 65.86 17.3001 65.82 17.4901 65.7367C17.7301 65.6333 17.9934 65.4467 18.2767 65.1833L20.0567 63.5267C20.3367 63.2667 20.4367 63.2433 20.4534 63.24C20.5634 63.2333 20.6701 63.2833 20.7801 63.4033L20.9901 63.63L21.28 63.36L19.6534 61.61L19.3601 61.88Z" fill="black"/>
<path d="M33.0533 74.9767C33.0066 74.9034 32.9433 74.7234 32.9 74.3034L32.4633 69.7567L32.1733 69.6667L29.24 73.1234C28.9433 73.4767 28.7666 73.6067 28.6733 73.6534C28.6566 73.66 28.5766 73.69 28.32 73.6567L28.2133 73.6434L28.1 74.0034L29.8466 74.5434L29.96 74.17L29.8466 74.1267C29.57 74.02 29.5066 73.95 29.4933 73.93C29.45 73.8667 29.4633 73.8334 29.4666 73.82C29.4833 73.77 29.5333 73.67 29.6866 73.49L30.1866 72.9067L31.86 73.4234L31.9266 74.1067C31.9566 74.3967 31.94 74.53 31.9233 74.5867C31.9133 74.6134 31.8966 74.6467 31.8366 74.67C31.8133 74.68 31.73 74.6967 31.5066 74.64L31.3866 74.61L31.27 74.9834L33.3933 75.64L33.5066 75.2667L33.3933 75.2234C33.23 75.1634 33.1166 75.08 33.0533 74.9767ZM31.8133 72.85L30.56 72.4634L31.65 71.1834L31.8133 72.85Z" fill="black"/>
<path d="M47.79 70.1L47.8833 70.4833L48.01 70.4533C48.1466 70.42 48.22 70.4233 48.2533 70.43C48.3033 70.44 48.34 70.4566 48.37 70.4833C48.3966 70.51 48.4166 70.5433 48.4266 70.5833C48.4366 70.63 48.44 70.7566 48.3366 71.0633L47.8166 72.59L46.5766 71.4166C46.32 71.1733 46.29 71.0866 46.2866 71.07C46.27 71.0133 46.2833 70.97 46.33 70.93C46.3966 70.87 46.47 70.83 46.5633 70.8066L46.7966 70.75L46.7 70.3633L44.3833 70.93L44.4766 71.3133L44.6033 71.2833C44.6933 71.26 44.74 71.2633 44.76 71.27C44.9966 71.3166 45.0833 71.36 45.1133 71.38C45.1566 71.41 45.2633 71.4933 45.5233 71.7333L47.3133 73.4066L47.5833 74.5133C47.6666 74.8533 47.6433 74.9533 47.6366 74.9733C47.5966 75.0766 47.5 75.1466 47.3366 75.1866L47.04 75.2566L47.1333 75.6433L49.44 75.0833L49.3433 74.6966L49.06 74.7666C48.9033 74.8033 48.7833 74.7933 48.7 74.74C48.6866 74.73 48.6133 74.6633 48.52 74.2866L48.2333 73.11L48.94 71.0266C49.0233 70.7733 49.1 70.5833 49.1666 70.4666C49.2333 70.3566 49.31 70.2633 49.4033 70.19C49.5266 70.0933 49.5833 70.07 49.6033 70.0666L49.8233 70.0133L49.73 69.6266L47.79 70.1Z" fill="black"/>
<path d="M65.23 64.6833L65.1366 64.7633C65.0066 64.8766 64.8766 64.94 64.7566 64.9466C64.6666 64.95 64.48 64.9233 64.0933 64.76L59.8833 62.98L59.6666 63.1933L61.3133 67.42C61.48 67.8466 61.5133 68.0633 61.5066 68.1666C61.5066 68.19 61.4933 68.27 61.3433 68.48L61.28 68.57L61.5433 68.8366L62.8466 67.56L62.5766 67.2833L62.4833 67.3633C62.2566 67.5533 62.1666 67.5766 62.1433 67.58C62.0766 67.5866 62.05 67.5666 62.0333 67.55C61.9966 67.5133 61.9333 67.42 61.8466 67.1966L61.57 66.48L62.82 65.2566L63.4566 65.5233C63.7233 65.6366 63.8333 65.71 63.8766 65.7566C63.8933 65.7733 63.9166 65.8066 63.9066 65.8666C63.9033 65.8966 63.88 65.9766 63.7233 66.1466L63.64 66.2366L63.9133 66.5166L65.5 64.9633L65.23 64.6833ZM62.2966 65.0233L61.36 65.9433L60.7533 64.3733L62.2966 65.0233Z" fill="black"/>
<path d="M24.88 45.1333C24.65 45.1333 24.4566 45.11 24.27 45.1366C23.59 45.24 23.1666 45.7766 23.1166 46.55C23.05 47.6333 23.3933 48.6133 23.8833 49.5466C24.98 51.6233 26.58 53.1633 28.78 54.0366C30.14 54.5766 31.5566 54.6633 32.9966 54.5033C34.16 54.3733 35.3133 54.18 36.4033 53.7266C38.8766 52.6933 40.2533 50.8233 40.3733 48.1666C40.4633 46.2366 39.8766 44.4633 38.4 43.1033C36.4633 41.32 32.9966 41.5566 31.3866 43.5566C30.97 44.0766 30.83 44.4766 30.7466 45.4133C29.27 44.5933 28.31 42.8166 30.0033 41.2533C30.1366 41.13 30.28 41.0166 30.4266 40.91C31.49 40.1466 32.6933 39.7166 33.9566 39.4333C34.9333 39.2166 35.89 38.9533 36.73 38.3766C37.4966 37.85 38.1166 37.1966 38.4666 36.3166C39.06 34.8166 38.5033 33.4433 37.02 32.8133C36.7466 32.7 36.6833 32.5666 36.6866 32.29C36.7133 31.1666 36.7166 30.0433 36.7133 28.92C36.71 28.7066 36.77 28.65 36.9833 28.6433C39.23 28.5866 41.0833 29.4066 42.5 31.1566C43.9733 32.98 44.03 35.4933 42.69 37.6366C41.9666 38.7933 41.0133 39.73 39.9233 40.5366C39.72 40.6866 39.7033 40.7466 39.9233 40.9C41.24 41.8166 42.4233 42.8766 43.3233 44.22C45.4066 47.33 45.0733 50.86 42.44 53.5333C40.6266 55.3766 38.4066 56.4366 35.87 56.8166C31.5966 57.45 27.9533 56.1033 24.8166 53.22C23.8333 52.3133 22.89 51.3733 22.1666 50.2366C21.2866 48.85 20.71 47.3666 20.7733 45.6933C20.8033 44.9133 20.9833 44.1733 21.4533 43.53C22.13 42.6066 23.1166 42.5366 23.9033 43.36C24.3766 43.8566 24.66 44.4533 24.88 45.1333Z" fill="#8C8101"/>
<path d="M30.7466 45.4133C30.4799 45.02 28.9433 42.5 30.6266 41.2366C32.5066 39.8233 35.8033 39.7833 36.9399 38.8733C37.8666 38.13 39.5166 36.99 39.0866 34.5166C38.6599 32.04 37.3133 32.5966 37.2633 32.1666C37.2133 31.7366 37.4799 28.6466 37.4799 28.6466L36.9833 28.6433C36.7699 28.65 36.7099 28.7066 36.7133 28.92C36.7166 30.0433 36.7133 31.1666 36.6866 32.29C36.6833 32.5666 36.7466 32.7 37.0199 32.8133C38.5033 33.4433 39.0599 34.8166 38.4666 36.3166C38.1166 37.1966 37.4966 37.85 36.7299 38.3766C35.8899 38.9533 34.9333 39.2166 33.9566 39.4333C32.6933 39.7166 31.4899 40.1466 30.4266 40.91C30.2799 41.0166 30.1366 41.13 30.0033 41.2533C29.1399 42.05 28.9699 42.9 29.1999 43.6533C29.4666 44.69 30.7833 45.47 30.7466 45.4133Z" fill="url(#paint0_linear_801_8356)"/>
<path d="M41.26 47.9534C41.0834 45.3 39.5167 41.8434 37.0434 41.2367C34.5667 40.6267 31.9934 42.0434 31.9934 42.0434C31.9934 42.0434 31.1567 42.5234 30.8034 43.0534C30.45 43.5834 30.49 45.27 30.7467 45.4134C30.83 44.4767 30.97 44.0767 31.3867 43.5567C32.9967 41.5567 36.4634 41.32 38.4 43.1034C39.8767 44.4634 40.4634 46.2367 40.3734 48.1667C40.2534 50.8234 38.8767 52.6934 36.4034 53.7267C35.3134 54.18 34.16 54.3734 32.9967 54.5034C31.5567 54.6634 30.14 54.5767 28.78 54.0367C26.58 53.1634 24.98 51.6234 23.8834 49.5467C23.3934 48.6134 23.05 47.6334 23.1167 46.55C23.1667 45.7767 23.59 45.24 24.27 45.1367C24.4567 45.11 24.65 45.1334 24.88 45.1334C24.66 44.4534 24.3767 43.8567 23.9034 43.36C23.1167 42.5367 22.13 42.6067 21.4534 43.53C21.4534 43.53 22.6367 42.7567 23.34 43.57C24.04 44.3867 23.9634 44.6134 23.9634 44.6134C23.9634 44.6134 22.6367 44.9167 22.6 46.5267C22.5634 48.1367 23.2267 49.52 23.47 49.9367C23.7167 50.3534 24.7234 52.3034 26.56 53.3834C28.3967 54.4634 30.07 55.2034 32.1434 55.0767C34.2134 54.95 37.0934 54.5467 38.33 53.4334C39.5667 52.3234 41.4367 50.6067 41.26 47.9534Z" fill="url(#paint1_linear_801_8356)"/>
<path d="M28.9433 25.4867C29.42 25.65 29.88 25.8667 30.3667 26.0133C32.14 26.54 33.89 26.38 35.6333 25.8667C37.2 25.4067 38.6867 24.7333 40.1967 24.13C41.88 23.4567 43.5933 22.8967 45.39 22.58C46.89 22.3167 48.34 22.4733 49.79 22.89C51.48 23.3767 53.0867 24.0233 54.48 25.1233C56.2034 26.48 57.2 28.2667 57.5634 30.4133C57.8367 32.04 57.8 33.6667 57.45 35.2733C57.2534 36.1867 56.72 36.95 56.1867 37.7C54.9733 39.39 53.4867 40.76 51.58 41.6367C50.9634 41.92 50.3233 42.1433 49.62 42.2933C49.62 41.5533 49.62 40.8267 49.62 40.1C49.62 40.0067 49.6834 39.9733 49.7567 39.9367C51.7667 38.9533 52.96 37.2567 53.7767 35.2467C54.0867 34.4867 54.3767 33.72 54.4234 32.8833C54.5134 31.3 54.09 29.8633 53.1534 28.5933C51.8634 26.8367 50.06 25.88 47.97 25.43C46.3367 25.0733 44.6867 25.05 43.07 25.4967C42.0967 25.7633 41.1733 26.2133 40.2133 26.5467C38.3433 27.1967 36.44 27.7033 34.4433 27.75C32.39 27.8 30.5567 27.2567 29.1 25.7267C29.0333 25.66 28.9433 25.61 28.9333 25.5033L28.9433 25.4867Z" fill="#8C8101"/>
<path d="M44.4667 52.87C45.0467 52.9933 45.62 53.14 46.2067 53.23C47.9367 53.4966 49.6133 53.3966 51.1667 52.49C52.4333 51.7466 53.29 50.6266 53.9433 49.34C55.1167 47.04 55.5767 44.5866 55.4367 42.02C55.39 41.2066 55.3433 40.5566 55.12 39.7666C55.09 39.6566 55.0467 39.5566 55.17 39.4366C56.16 38.4533 56.92 37.3133 57.4933 36.0433C57.5067 36.01 57.5333 35.98 57.5633 35.9366C58.2133 37.0266 58.5767 38.03 58.8333 39.2566C59.1167 40.6 59.1633 41.9533 59.0333 43.32C58.9367 44.2833 58.8767 45.25 58.73 46.2066C58.42 48.2466 57.6 50.06 56.3433 51.6766C55 53.4033 53.1667 54.33 51.0633 54.73C49.2667 55.0733 47.53 54.85 45.9067 53.9633C45.3733 53.6766 44.8867 53.3233 44.4667 52.87Z" fill="#8C8101"/>
<path d="M25.5467 31.9533C25.9101 32.1766 26.2701 32.39 26.6567 32.56C27.1867 32.7933 27.7434 32.9466 28.3234 32.9533C28.5467 32.9566 28.5867 33.04 28.5834 33.2433C28.5767 35.3733 28.5801 37.5066 28.5801 39.6366C28.5801 42.96 28.5834 46.28 28.5734 49.6033C28.5734 49.8833 28.6534 50.09 28.8301 50.3C29.2367 50.7733 29.6067 51.2733 29.9067 51.8233C30.0267 52.0433 30.1267 52.27 30.1734 52.52C30.2401 52.8933 30.0667 53.1133 29.6867 53.13C29.2134 53.15 28.7767 52.9966 28.3567 52.81C27.1601 52.28 26.0701 51.5933 25.2467 50.5466C25.0501 50.2966 24.8934 50.0233 24.8567 49.6966C24.8201 49.32 24.9801 49.0333 25.2901 48.85C25.4834 48.7433 25.5167 48.61 25.5167 48.41C25.5134 43.0333 25.5134 37.6566 25.5134 32.2833C25.5134 32.18 25.4867 32.0733 25.5467 31.9533Z" fill="#8C8101"/>
<path d="M26.3067 32.37C25.9234 32.2033 25.9101 32.1766 25.5467 31.9533C25.4867 32.0733 25.5134 32.18 25.5134 32.2833C25.5134 37.6566 25.5134 43.0333 25.5167 48.41C25.5167 48.61 25.4834 48.7433 25.2901 48.85C24.9801 49.0333 24.8201 49.32 24.8567 49.6966C24.8934 50.0233 25.0501 50.2966 25.2467 50.5466L26.6567 51.87C26.6567 51.87 25.7501 50.5533 26.0534 49.5933C26.3567 48.6366 26.3067 32.37 26.3067 32.37Z" fill="url(#paint2_linear_801_8356)"/>
<path d="M46.1534 32.8633C47.3501 33.21 48.3734 33.8067 49.2367 34.6733C49.3267 34.76 49.3167 34.86 49.3167 34.9633C49.3101 36.6633 49.3034 38.3633 49.3034 40.06C49.3034 43.2767 49.3134 46.4933 49.3134 49.7067C49.3134 49.85 49.3567 49.94 49.4767 50.0133C49.7067 50.1533 49.9167 50.32 50.1067 50.5133C50.7201 51.1433 50.6367 51.71 49.8701 52.1333C49.4867 52.3433 49.0701 52.46 48.6434 52.53C47.8001 52.67 46.9634 52.6233 46.1401 52.3767C45.1567 52.08 44.9501 51.4433 45.5767 50.62C45.6501 50.52 45.7201 50.4067 45.8167 50.3367C46.1701 50.0767 46.2334 49.7367 46.2301 49.3133C46.2034 47.0967 46.2101 44.88 46.2001 42.66C46.1867 39.5067 46.1701 36.35 46.1534 33.1967C46.1501 33.0933 46.1534 32.9867 46.1534 32.8633Z" fill="#8C8101"/>
<path d="M46.1534 32.8633C46.1534 32.9867 46.1501 33.0933 46.1534 33.1967C46.1701 36.35 46.1867 39.5067 46.2001 42.66C46.2101 44.88 46.2034 47.0967 46.2301 49.3133C46.2334 49.7367 46.1701 50.0767 45.8167 50.3367C45.7201 50.4067 45.6501 50.52 45.5767 50.62C44.9501 51.4433 45.1567 52.08 46.1401 52.3767C46.5901 52.51 47.0434 52.5867 47.4967 52.6033C47.4967 52.6033 47.1067 51.9267 46.4501 51.85C45.7934 51.7733 46.0901 50.9 46.6201 50.43C47.6767 49.4933 46.9934 33.6067 46.9934 33.6067L46.9567 33.2067C46.9567 33.2067 46.9534 33.0667 46.1534 32.8633Z" fill="url(#paint3_linear_801_8356)"/>
<path d="M36.3267 46.2433C36.3267 47.4033 36.33 48.5633 36.32 49.7267C36.3167 49.9467 36.3867 50.1033 36.5433 50.2533C36.84 50.54 37.1067 50.8567 37.3 51.2233C37.6567 51.9067 37.4833 52.41 36.78 52.7133C36.29 52.9267 35.7667 53.0067 35.24 53.04C34.1967 53.1 33.15 53.1467 32.1267 52.8433C30.9867 52.5033 30.7533 51.7133 31.54 50.82C31.7467 50.5867 31.9733 50.38 32.23 50.21C32.4033 50.1 32.4633 49.9667 32.4633 49.7633C32.4567 47.72 32.4667 45.6733 32.46 43.63C32.4567 43.42 32.53 43.31 32.7067 43.2067C33.7633 42.59 34.9067 42.3467 36.1233 42.38C36.3233 42.3867 36.3567 42.4667 36.3567 42.6433C36.35 43.8433 36.3533 45.0433 36.3533 46.2433C36.3433 46.2433 36.3333 46.2433 36.3267 46.2433Z" fill="#8C8101"/>
<path d="M32.7067 43.2067C32.53 43.31 32.4567 43.42 32.46 43.63C32.4667 45.6733 32.4567 47.72 32.4633 49.7633C32.4633 49.9667 32.4033 50.1 32.23 50.21C31.9733 50.38 31.7467 50.5867 31.54 50.82C30.7533 51.7133 30.9867 52.5033 32.1267 52.8433L33.1433 53.0833C33.1433 53.0833 33.6067 52.6633 32.9633 52.36C32.32 52.0567 31.3633 51.8433 32.3533 51.0333C33.4133 50.1667 33.06 50.1633 33.0967 48.61C33.1333 47.0567 33.0033 43.06 33.0033 43.06L32.7067 43.2067Z" fill="url(#paint4_linear_801_8356)"/>
<path d="M32.3533 39.37C32.3533 39.1034 32.3533 38.8734 32.3533 38.6434C32.3633 35.7734 32.3699 32.9034 32.3766 30.0334C32.3799 29.5267 32.3799 29.5234 32.8566 29.35C33.8799 28.9834 34.9366 28.7767 36.0199 28.7067C36.2599 28.69 36.3066 28.7467 36.3033 28.9734C36.2799 31.2067 36.2633 33.4434 36.2466 35.68C36.2433 36.2367 36.2233 36.7934 36.2433 37.35C36.2533 37.6267 36.1399 37.7967 35.9433 37.9567C35.5533 38.2767 35.1233 38.51 34.6433 38.67C33.8933 38.92 33.1066 39.0434 32.3533 39.37Z" fill="#8C8101"/>
<path d="M32.3533 39.37C32.3533 39.1033 32.3533 38.8733 32.3533 38.6433C32.3599 35.7733 32.3666 32.9033 32.3766 30.0333C32.3766 29.5266 32.3799 29.5233 32.8133 29.35L33.1433 29.23L33.0166 39.11L32.3533 39.37Z" fill="url(#paint5_linear_801_8356)"/>
<path d="M42.1899 27.82C42.7499 28.3133 43.2966 28.8067 43.8699 29.27C44.9399 30.13 46.1333 30.5933 47.5233 30.5833C48.6833 30.5733 49.8466 30.6267 50.9833 30.8967C52.0899 31.16 53.0599 31.72 54.0066 32.3267C54.1933 32.4467 54.1299 32.6133 54.1199 32.7633C54.0433 33.68 53.7699 34.5433 53.3966 35.3767C53.2933 35.61 53.1833 35.8367 53.0666 36.0867C51.9433 34.9 50.6199 34.07 49.1833 33.4133C48.2599 32.99 47.2799 32.7033 46.3333 32.3433C45.4499 32.0067 44.5999 31.6133 43.8733 30.9967C42.8933 30.1667 42.3733 29.0833 42.1899 27.82Z" fill="#8C8101"/>
<path d="M23.8199 27.37C24.2566 27.9367 24.6633 28.4167 25.1466 28.83C26.5833 30.0667 28.2433 30.44 30.0833 30.1267C30.6433 30.0333 31.1866 29.8833 31.7166 29.6867C31.9133 29.6133 31.9866 29.62 31.9833 29.8567C31.9766 30.71 31.9866 31.5633 31.9933 32.4167C31.9933 32.5433 31.9933 32.6333 31.8233 32.6467C30.1899 32.7633 28.5666 32.7667 27.0033 32.1633C25.2133 31.4767 24.2633 30.1233 23.9399 28.2767C23.8899 28.0067 23.8666 27.7267 23.8199 27.37Z" fill="#8C8101"/>
<path d="M23.8199 27.37C25.7533 33.4167 31.9866 31.5633 31.9933 32.4167C31.9933 32.5433 31.9933 32.6333 31.8233 32.6467C30.1899 32.7633 28.5666 32.7667 27.0033 32.1633C25.2133 31.4767 24.2633 30.1233 23.9399 28.2767C23.8899 28.0067 23.8666 27.7267 23.8199 27.37Z" fill="url(#paint6_linear_801_8356)"/>
<path d="M41.6934 39.97C42.5634 40.21 43.4267 40.4266 44.31 40.5533C44.7667 40.6166 45.2234 40.6633 45.6834 40.6633C45.8734 40.6633 45.9267 40.7333 45.92 40.9166C45.9067 41.3366 45.9134 41.76 45.92 42.1833C45.92 42.3133 45.8967 42.3833 45.7434 42.3533C44.13 42.0066 42.75 41.2566 41.6934 39.97Z" fill="#8C8101"/>
<path d="M41.6934 39.97C42.5634 40.21 43.4267 40.4266 44.31 40.5533C44.7667 40.6166 45.2234 40.6633 45.6834 40.6633C45.8734 40.6633 45.9267 40.7333 45.92 40.9166C45.9167 41.0233 45.9134 41.13 45.9134 41.2333C45.9134 41.2333 43.2267 41.3166 41.6934 39.97Z" fill="url(#paint7_linear_801_8356)"/>
<path d="M28.9333 25.5033C28.91 25.49 28.8866 25.48 28.8633 25.47C28.8733 25.46 28.8833 25.45 28.8899 25.44C28.9066 25.4567 28.9233 25.47 28.9433 25.4867L28.9333 25.5033Z" fill="#8C8101"/>
<path d="M28.9434 25.4866C28.9434 25.4866 29.57 25.96 30.0334 26.2566C32.1767 27.6366 36.3034 27.2033 40.6934 25.44C43.43 24.3433 45.8467 24.0566 48.8267 24.5633C51.8067 25.07 54.0234 27.7033 54.6867 29.0833C55.4234 30.6133 56.4667 34.82 53.0834 38.3433C51.5 39.99 49.62 40.7366 49.62 40.7366C49.62 40.4766 49.62 40.36 49.62 40.1C49.62 40.0066 49.6834 39.9733 49.7567 39.9366C51.7667 38.9533 52.96 37.2566 53.7767 35.2466C54.0867 34.4866 54.3767 33.72 54.4234 32.8833C54.5134 31.3 54.09 29.8633 53.1534 28.5933C51.8634 26.8366 50.06 25.88 47.97 25.43C46.3367 25.0733 44.6867 25.05 43.07 25.4966C42.0967 25.7633 41.1734 26.2133 40.2134 26.5466C38.3434 27.1966 36.44 27.7033 34.4434 27.75C32.39 27.8 30.5567 27.2566 29.1 25.7266C29.1 25.7266 28.9534 25.56 28.9434 25.4866Z" fill="url(#paint8_linear_801_8356)"/>
<path d="M44.4667 52.87C45.0467 52.9933 45.62 53.14 46.2067 53.23C47.9367 53.4966 49.6133 53.3966 51.1667 52.49C52.4333 51.7466 53.29 50.6266 53.9433 49.34C55.1167 47.04 55.5767 44.5866 55.4367 42.02C55.39 41.2066 55.3433 40.5566 55.12 39.7666C55.09 39.6566 55.0467 39.5566 55.17 39.4366C56.1133 38.5066 57.3433 36.2 57.5633 35.9366C57.5633 35.9366 57.9467 36.23 57.5633 37.1166C57.1767 38.0066 55.88 39.4166 55.9367 39.77C56.1633 41.2 56.5167 43.2033 56.2633 45.2C55.9967 47.32 54.5733 50.1766 53.84 51.0866C53.1067 51.9933 50.1267 54.9766 46.2633 53.6633L44.4667 52.87Z" fill="url(#paint9_linear_801_8356)"/>
<path d="M42.1899 27.82C42.1933 27.8533 42.3333 29.44 43.4833 30.6267C44.4666 31.6167 45.4499 32.0067 46.3333 32.3433C47.2799 32.7033 48.2599 32.99 49.1833 33.4133C50.6199 34.07 51.9433 34.9 53.0666 36.0867C53.1833 35.8367 53.2933 35.61 53.3966 35.3767C53.3966 35.3767 51.2633 33.2533 48.5866 32.3433C45.9066 31.4333 44.9733 31.5233 42.1899 27.82Z" fill="url(#paint10_linear_801_8356)"/>
</g>
</g>
<defs>
<linearGradient id="paint0_linear_801_8356" x1="34.1318" y1="28.6433" x2="34.1318" y2="45.4162" gradientUnits="userSpaceOnUse">
<stop stop-color="white"/>
<stop offset="1" stop-color="white" stop-opacity="0"/>
</linearGradient>
<linearGradient id="paint1_linear_801_8356" x1="31.3625" y1="41.0842" x2="31.3625" y2="55.0908" gradientUnits="userSpaceOnUse">
<stop stop-color="white"/>
<stop offset="1" stop-color="white" stop-opacity="0"/>
</linearGradient>
<linearGradient id="paint2_linear_801_8356" x1="25.7541" y1="31.9533" x2="25.7541" y2="51.87" gradientUnits="userSpaceOnUse">
<stop stop-color="white"/>
<stop offset="1" stop-color="white" stop-opacity="0"/>
</linearGradient>
<linearGradient id="paint3_linear_801_8356" x1="46.3585" y1="32.8633" x2="46.3585" y2="52.6033" gradientUnits="userSpaceOnUse">
<stop stop-color="white"/>
<stop offset="1" stop-color="white" stop-opacity="0"/>
</linearGradient>
<linearGradient id="paint4_linear_801_8356" x1="32.1915" y1="43.06" x2="32.1915" y2="53.0833" gradientUnits="userSpaceOnUse">
<stop stop-color="white"/>
<stop offset="1" stop-color="white" stop-opacity="0"/>
</linearGradient>
<linearGradient id="paint5_linear_801_8356" x1="32.7483" y1="29.23" x2="32.7483" y2="39.37" gradientUnits="userSpaceOnUse">
<stop stop-color="white"/>
<stop offset="1" stop-color="white" stop-opacity="0"/>
</linearGradient>
<linearGradient id="paint6_linear_801_8356" x1="27.9066" y1="27.37" x2="27.9066" y2="32.7078" gradientUnits="userSpaceOnUse">
<stop stop-color="white"/>
<stop offset="1" stop-color="white" stop-opacity="0"/>
</linearGradient>
<linearGradient id="paint7_linear_801_8356" x1="41.6934" y1="40.6033" x2="45.92" y2="40.6033" gradientUnits="userSpaceOnUse">
<stop stop-color="#847424"/>
<stop offset="0.258824" stop-color="#E5D71A"/>
<stop offset="0.65098" stop-color="#E5D71A"/>
<stop offset="0.85098" stop-color="#E5D71A"/>
<stop offset="0.980392" stop-color="#847424"/>
<stop offset="1" stop-color="#847424"/>
</linearGradient>
<linearGradient id="paint8_linear_801_8356" x1="42.1904" y1="24.3212" x2="42.1904" y2="40.7366" gradientUnits="userSpaceOnUse">
<stop stop-color="white"/>
<stop offset="1" stop-color="white" stop-opacity="0"/>
</linearGradient>
<linearGradient id="paint9_linear_801_8356" x1="51.1002" y1="35.9366" x2="51.1002" y2="53.9922" gradientUnits="userSpaceOnUse">
<stop stop-color="white"/>
<stop offset="1" stop-color="white" stop-opacity="0"/>
</linearGradient>
<linearGradient id="paint10_linear_801_8356" x1="47.7933" y1="27.82" x2="47.7933" y2="36.0867" gradientUnits="userSpaceOnUse">
<stop stop-color="white"/>
<stop offset="1" stop-color="white" stop-opacity="0"/>
</linearGradient>
<clipPath id="clip0_801_8356">
<rect width="80" height="80" fill="white" transform="translate(0.5)"/>
</clipPath>
<clipPath id="clip1_801_8356">
<rect width="80" height="80" fill="white" transform="translate(0.5)"/>
</clipPath>
</defs>
</svg>
