<svg width="62" height="66" viewBox="0 0 62 66" fill="none" xmlns="http://www.w3.org/2000/svg">
<g clip-path="url(#clip0_801_7061)">
<path d="M5.54039 17.2272C5.54039 17.2272 4.3579 14.5022 3.7254 14.2597C3.0929 14.0172 1.7329 22.6172 2.4129 24.4672C2.4129 24.4672 5.93789 27.2397 6.51789 29.6497L8.62289 26.9747L10.0279 21.9522L5.53789 17.2272H5.54039Z" fill="url(#paint0_linear_801_7061)" stroke="#A3822E" stroke-width="0.075" stroke-miterlimit="10"/>
<path d="M6.27041 26.4672C6.27041 26.4672 4.31291 22.3822 4.17291 17.0397" stroke="#A3822E" stroke-width="0.025" stroke-miterlimit="10"/>
<path d="M56.1879 17.2272C56.1879 17.2272 57.3704 14.5022 58.0029 14.2597C58.6354 14.0172 59.9954 22.6172 59.3154 24.4672C59.3154 24.4672 55.7904 27.2397 55.2104 29.6497L53.1054 26.9747L51.7004 21.9522L56.1904 17.2272H56.1879Z" fill="url(#paint1_linear_801_7061)" stroke="#A3822E" stroke-width="0.075" stroke-miterlimit="10"/>
<path d="M55.4579 26.4672C55.4579 26.4672 57.4154 22.3822 57.5554 17.0397" stroke="#A3822E" stroke-width="0.025" stroke-miterlimit="10"/>
<path d="M12.5304 10.5948C12.5304 10.5948 11.0154 7.57227 10.2654 7.57227C9.51543 7.57227 7.73543 12.7748 8.55543 15.3298C9.37543 17.8848 10.5279 18.1773 10.2429 19.7523C9.96043 21.3273 14.8104 17.0173 14.8579 16.6648C14.9054 16.3123 14.5779 12.5398 14.5779 12.5398L12.5304 10.5948Z" fill="url(#paint2_linear_801_7061)" stroke="#A3822E" stroke-width="0.075" stroke-miterlimit="10"/>
<path d="M16.3229 4.31476C16.3229 4.31476 11.0904 5.56476 12.9154 16.3398C14.7404 27.1148 18.5829 14.8123 18.5829 14.8123C18.5829 14.8123 24.2304 10.3123 22.2154 9.23476C20.2004 8.15726 16.3229 4.31476 16.3229 4.31476Z" fill="url(#paint3_linear_801_7061)" stroke="#A3822E" stroke-width="0.075" stroke-miterlimit="10"/>
<path d="M12.9154 16.3398C12.9154 16.3398 14.6679 7.78227 18.8404 7.34977C23.0129 6.91727 23.7154 11.8448 23.7154 11.8448L14.8629 15.2123L12.9179 16.3398H12.9154Z" fill="url(#paint4_linear_801_7061)" stroke="#A3822E" stroke-width="0.075" stroke-miterlimit="10"/>
<path d="M9.17539 54.4472L6.27039 55.4022C6.27039 55.4022 8.56539 57.7447 10.5354 57.2522C12.5054 56.7597 14.9654 54.1022 14.9654 54.1022C14.9654 54.1022 15.1954 52.4147 14.9304 52.3297C14.6654 52.2447 9.30539 53.5247 9.30539 53.5247L9.17789 54.4472H9.17539Z" fill="url(#paint5_linear_801_7061)" stroke="#A3822E" stroke-width="0.075" stroke-miterlimit="10"/>
<path d="M5.89291 47.8898L2.16791 47.9623C2.16791 47.9623 5.08291 52.9148 8.60041 54.1248C8.60041 54.1248 10.1154 55.4098 12.9604 54.3098C15.8054 53.2098 16.4379 51.3223 16.4379 51.3223L11.3079 46.4948C11.3079 46.4948 8.15541 46.8498 7.92291 46.8823C7.69041 46.9148 5.89541 47.8898 5.89541 47.8898H5.89291Z" fill="url(#paint6_linear_801_7061)" stroke="#A3822E" stroke-width="0.075" stroke-miterlimit="10"/>
<path d="M9.41793 48.4598C9.41793 48.4598 4.66293 48.8523 2.45043 44.9848C0.235431 41.1173 0.587931 39.6073 0.587931 39.6073C0.587931 39.6073 0.412931 38.8698 3.19793 40.8273L9.69293 41.2948C9.69293 41.2948 10.0204 43.1698 10.0329 43.9723C10.0454 44.7748 10.5379 47.2698 10.5379 47.5173C10.5379 47.7648 9.42293 48.4623 9.42293 48.4623L9.41793 48.4598Z" fill="url(#paint7_linear_801_7061)" stroke="#A3822E" stroke-width="0.075" stroke-miterlimit="10"/>
<path d="M13.9904 53.0597C13.9904 53.0597 10.9179 51.5572 9.16041 47.9722C7.40291 44.3872 7.91791 43.2997 7.91791 43.2997L10.1229 42.8647C10.1229 42.8647 11.4104 44.2447 11.9379 45.5472C12.4654 46.8472 14.6829 49.6947 15.2104 50.1522C15.7354 50.6097 15.7704 52.0797 15.7704 52.0797L13.9904 53.0597Z" fill="url(#paint8_linear_801_7061)" stroke="#A3822E" stroke-width="0.075" stroke-miterlimit="10"/>
<path d="M2.7229 32.8547C2.7229 32.8547 0.797902 31.5922 0.0254018 31.5922C0.0254018 31.5922 -0.299598 34.8972 1.3754 38.0947C3.0479 41.2922 4.9079 42.9622 8.4779 43.3772C8.4779 43.3772 11.3104 38.2372 9.5529 36.6197C7.7954 35.0022 2.7254 32.8572 2.7254 32.8572L2.7229 32.8547Z" fill="url(#paint9_linear_801_7061)" stroke="#A3822E" stroke-width="0.075" stroke-miterlimit="10"/>
<path d="M6.5204 29.6497C6.5204 29.6497 6.5854 27.0672 1.6179 23.6472C1.6179 23.6472 -1.0996 31.2397 5.1104 34.9422L6.4129 35.8297L7.9229 32.4197L6.5229 29.6522L6.5204 29.6497Z" fill="url(#paint10_linear_801_7061)" stroke="#A3822E" stroke-width="0.075" stroke-miterlimit="10"/>
<path d="M10.4754 19.6398C10.4754 19.6398 10.4304 14.8823 6.27039 13.0773C6.27039 13.0773 3.49039 18.5848 8.78789 22.3098C8.78789 22.3098 10.6654 21.0398 10.4754 19.6398Z" fill="url(#paint11_linear_801_7061)" stroke="#A3822E" stroke-width="0.075" stroke-miterlimit="10"/>
<path d="M12.1479 52.6722C11.9104 52.7322 10.0079 52.4072 7.2804 50.9872C6.4179 50.5397 5.4754 49.9822 4.4754 49.2947" stroke="#A3822E" stroke-width="0.025" stroke-miterlimit="10"/>
<path d="M7.40541 46.4947C7.40541 46.4947 3.75041 44.1747 2.16791 41.2922" stroke="#A3822E" stroke-width="0.025" stroke-miterlimit="10"/>
<path d="M6.12793 39.9572C6.12793 39.9572 2.37293 37.6347 0.56543 33.1722" stroke="#A3822E" stroke-width="0.025" stroke-miterlimit="10"/>
<path d="M5.54041 32.4173C5.54041 32.4173 2.90541 30.1148 2.16791 25.3323" stroke="#A3822E" stroke-width="0.025" stroke-miterlimit="10"/>
<path d="M8.34288 20.1748L6.70288 14.2598" stroke="#A3822E" stroke-width="0.025" stroke-miterlimit="10"/>
<path d="M49.1979 10.5948C49.1979 10.5948 50.7129 7.57227 51.4629 7.57227C52.2129 7.57227 53.9929 12.7748 53.1729 15.3298C52.3529 17.8848 51.2004 18.1773 51.4854 19.7523C51.7679 21.3273 46.9179 17.0173 46.8704 16.6648C46.8229 16.3123 47.1504 12.5398 47.1504 12.5398L49.1979 10.5948Z" fill="url(#paint12_linear_801_7061)" stroke="#A3822E" stroke-width="0.075" stroke-miterlimit="10"/>
<path d="M45.4054 4.31476C45.4054 4.31476 50.6379 5.56476 48.8129 16.3398C46.9879 27.1148 43.1454 14.8123 43.1454 14.8123C43.1454 14.8123 37.4979 10.3123 39.5129 9.23476C41.5279 8.15726 45.4054 4.31476 45.4054 4.31476Z" fill="url(#paint13_linear_801_7061)" stroke="#A3822E" stroke-width="0.075" stroke-miterlimit="10"/>
<path d="M48.8129 16.3398C48.8129 16.3398 47.0604 7.78227 42.8879 7.34977C38.7154 6.91727 38.0129 11.8448 38.0129 11.8448L46.8654 15.2123L48.8104 16.3398H48.8129Z" fill="url(#paint14_linear_801_7061)" stroke="#A3822E" stroke-width="0.075" stroke-miterlimit="10"/>
<path d="M52.5529 54.4472L55.4579 55.4022C55.4579 55.4022 53.1629 57.7447 51.1929 57.2522C49.2254 56.7572 46.7629 54.1022 46.7629 54.1022C46.7629 54.1022 46.5329 52.4147 46.7979 52.3297C47.0629 52.2447 52.4229 53.5247 52.4229 53.5247L52.5504 54.4472H52.5529Z" fill="url(#paint15_linear_801_7061)" stroke="#A3822E" stroke-width="0.075" stroke-miterlimit="10"/>
<path d="M55.8354 47.8898L59.5604 47.9623C59.5604 47.9623 56.6454 52.9148 53.1279 54.1248C53.1279 54.1248 51.6129 55.4098 48.7679 54.3098C45.9229 53.2098 45.2904 51.3223 45.2904 51.3223L50.4204 46.4948C50.4204 46.4948 53.5729 46.8498 53.8054 46.8823C54.0379 46.9148 55.8329 47.8898 55.8329 47.8898H55.8354Z" fill="url(#paint16_linear_801_7061)" stroke="#A3822E" stroke-width="0.075" stroke-miterlimit="10"/>
<path d="M52.3104 48.4598C52.3104 48.4598 57.0654 48.8523 59.2779 44.9848C61.4929 41.1173 61.1404 39.6073 61.1404 39.6073C61.1404 39.6073 61.3154 38.8698 58.5304 40.8273L52.0354 41.2948C52.0354 41.2948 51.7079 43.1698 51.6954 43.9723C51.6829 44.7748 51.1904 47.2698 51.1904 47.5173C51.1904 47.7648 52.3054 48.4623 52.3054 48.4623L52.3104 48.4598Z" fill="url(#paint17_linear_801_7061)" stroke="#A3822E" stroke-width="0.075" stroke-miterlimit="10"/>
<path d="M47.7354 53.0597C47.7354 53.0597 50.8079 51.5572 52.5654 47.9722C54.3229 44.3872 53.8079 43.2997 53.8079 43.2997L51.6029 42.8647C51.6029 42.8647 50.3154 44.2447 49.7879 45.5472C49.2604 46.8472 47.0429 49.6947 46.5154 50.1522C45.9879 50.6097 45.9554 52.0797 45.9554 52.0797L47.7354 53.0597Z" fill="url(#paint18_linear_801_7061)" stroke="#A3822E" stroke-width="0.075" stroke-miterlimit="10"/>
<path d="M59.0054 32.8547C59.0054 32.8547 60.9304 31.5922 61.7029 31.5922C61.7029 31.5922 62.0279 34.8972 60.3529 38.0947C58.6804 41.2922 56.8204 42.9622 53.2504 43.3772C53.2504 43.3772 50.4179 38.2372 52.1754 36.6197C53.9329 35.0022 59.0029 32.8572 59.0029 32.8572L59.0054 32.8547Z" fill="url(#paint19_linear_801_7061)" stroke="#A3822E" stroke-width="0.075" stroke-miterlimit="10"/>
<path d="M55.2079 29.6497C55.2079 29.6497 55.1429 27.0672 60.1104 23.6472C60.1104 23.6472 62.8279 31.2397 56.6179 34.9422L55.3154 35.8297L53.8054 32.4197L55.2054 29.6522L55.2079 29.6497Z" fill="url(#paint20_linear_801_7061)" stroke="#A3822E" stroke-width="0.075" stroke-miterlimit="10"/>
<path d="M51.2529 19.6398C51.2529 19.6398 51.2979 14.8823 55.4579 13.0773C55.4579 13.0773 58.2379 18.5848 52.9404 22.3098C52.9404 22.3098 51.0629 21.0398 51.2529 19.6398Z" fill="url(#paint21_linear_801_7061)" stroke="#A3822E" stroke-width="0.075" stroke-miterlimit="10"/>
<path d="M15.6079 51.4473C15.3654 51.3373 9.98291 58.4648 9.98291 58.4648C9.98291 58.4648 16.6029 65.7598 31.4779 65.7598C46.3529 65.7598 51.6479 57.8073 51.6479 57.8073L45.8829 50.8148C45.8829 50.8148 35.9004 60.7098 15.6054 51.4473H15.6079Z" fill="url(#paint22_linear_801_7061)" stroke="#A3822E" stroke-width="0.075" stroke-miterlimit="10"/>
<path d="M15.5379 57.9048L15.5929 57.9423C15.5829 58.2048 15.6129 58.4273 15.6829 58.6098C15.7554 58.7923 15.8854 58.9473 16.0779 59.0773C16.2179 59.1723 16.3679 59.2223 16.5279 59.2273C16.6879 59.2323 16.8404 59.1973 16.9854 59.1223C17.1304 59.0473 17.2504 58.9398 17.3429 58.7998C17.4904 58.5798 17.5329 58.3723 17.4654 58.1798C17.3979 57.9873 17.2629 57.7448 17.0604 57.4498C16.8579 57.1548 16.7279 56.8923 16.6729 56.6648C16.6179 56.4373 16.6804 56.1873 16.8629 55.9173C17.0829 55.5898 17.3654 55.4123 17.7079 55.3873C18.0504 55.3623 18.3929 55.4648 18.7354 55.6948C18.8729 55.7873 18.9979 55.9023 19.1079 56.0373C19.2179 56.1723 19.2904 56.3148 19.3229 56.4598C19.2529 56.5023 19.1079 56.6173 18.8854 56.7998L18.8329 56.7648C18.8754 56.5848 18.8679 56.4148 18.8079 56.2548C18.7479 56.0948 18.6404 55.9623 18.4854 55.8573C18.3629 55.7748 18.2329 55.7248 18.0954 55.7073C17.9579 55.6898 17.8279 55.7073 17.7029 55.7648C17.5779 55.8198 17.4754 55.9073 17.3954 56.0273C17.2479 56.2448 17.2079 56.4473 17.2729 56.6398C17.3379 56.8323 17.4729 57.0773 17.6804 57.3798C17.8879 57.6823 18.0204 57.9448 18.0779 58.1673C18.1354 58.3898 18.0779 58.6273 17.9104 58.8798C17.7854 59.0673 17.6379 59.2123 17.4679 59.3173C17.3004 59.4223 17.1179 59.4873 16.9254 59.5098C16.7329 59.5323 16.5379 59.5198 16.3429 59.4673C16.1479 59.4148 15.9579 59.3273 15.7754 59.2048C15.6329 59.1098 15.4929 58.9748 15.3554 58.7973C15.2179 58.6223 15.1379 58.4598 15.1154 58.3098C15.2354 58.2223 15.3754 58.0873 15.5354 57.9048H15.5379Z" fill="black"/>
<path d="M20.9854 59.7248L20.3304 61.0623C20.2929 61.1373 20.2679 61.1948 20.2554 61.2323C20.2429 61.2698 20.2404 61.3073 20.2554 61.3398C20.2679 61.3748 20.2979 61.4023 20.3454 61.4273C20.3879 61.4473 20.4479 61.4673 20.5279 61.4848L20.4654 61.6123C20.3854 61.6123 20.3179 61.5998 20.2604 61.5848C20.1929 61.5648 20.1279 61.5423 20.0679 61.5123C19.9554 61.4523 19.8754 61.3773 19.8304 61.2898C19.7854 61.2023 19.7854 61.0898 19.8304 60.9598L19.7529 60.9873C19.3929 61.1123 19.0479 61.0923 18.7204 60.9323C18.5104 60.8298 18.3604 60.6748 18.2754 60.4698C18.1879 60.2648 18.1954 60.0573 18.2979 59.8523C18.3979 59.6498 18.5229 59.5148 18.6754 59.4498C18.8279 59.3848 18.9854 59.3648 19.1479 59.3898C19.3104 59.4148 19.5204 59.4673 19.7729 59.5448C19.9679 59.6023 20.1104 59.6398 20.1979 59.6548C20.2854 59.6698 20.3604 59.6648 20.4179 59.6373C20.4754 59.6098 20.5279 59.5498 20.5729 59.4573C20.6779 59.2423 20.7004 59.0473 20.6404 58.8698C20.5804 58.6948 20.4429 58.5548 20.2304 58.4498C20.1054 58.3873 19.9804 58.3548 19.8604 58.3523C19.7379 58.3498 19.6329 58.3623 19.5454 58.3948C19.4579 58.4273 19.3904 58.4648 19.3479 58.5098L19.2829 58.4773L19.4404 58.1573C19.8529 58.0973 20.2154 58.1423 20.5254 58.2948C20.8304 58.4448 21.0254 58.6398 21.1029 58.8773C21.1829 59.1173 21.1429 59.3973 20.9854 59.7198V59.7248ZM19.9229 60.7273L20.3354 59.8848L20.1129 59.8273C19.9754 59.7873 19.8454 59.7523 19.7279 59.7248C19.6079 59.6948 19.4929 59.6798 19.3779 59.6748C19.2654 59.6698 19.1554 59.6923 19.0554 59.7423C18.9529 59.7923 18.8729 59.8798 18.8129 60.0023C18.7254 60.1823 18.7079 60.3423 18.7604 60.4823C18.8154 60.6223 18.9304 60.7348 19.1129 60.8223C19.1854 60.8573 19.2754 60.8748 19.3879 60.8723C19.5004 60.8723 19.5979 60.8573 19.6829 60.8273C19.7104 60.8173 19.7404 60.8073 19.7729 60.7998C19.8054 60.7898 19.8379 60.7773 19.8704 60.7623C19.9029 60.7473 19.9204 60.7348 19.9254 60.7248L19.9229 60.7273Z" fill="black"/>
<path d="M21.4954 62.1998L22.3179 59.2398C22.3679 59.2573 22.4154 59.2748 22.4554 59.2898C22.4954 59.3048 22.5304 59.3173 22.5604 59.3248C22.5879 59.3323 22.6229 59.3398 22.6654 59.3473C22.7079 59.3548 22.7554 59.3648 22.8129 59.3748L22.6654 59.9073C22.7704 59.8048 22.8779 59.7248 22.9854 59.6648C23.0954 59.6048 23.2129 59.5698 23.3404 59.5548C23.4679 59.5423 23.6004 59.5548 23.7379 59.5923C23.9454 59.6498 24.1179 59.7573 24.2529 59.9123C24.3904 60.0698 24.4629 60.2498 24.4704 60.4573C24.8279 60.1173 25.2079 60.0023 25.6129 60.1148C25.9779 60.2173 26.2079 60.3873 26.3029 60.6298C26.3979 60.8723 26.3879 61.1948 26.2779 61.5973L25.7804 63.3873C25.7404 63.3723 25.7079 63.3598 25.6804 63.3498C25.6529 63.3398 25.6329 63.3323 25.6129 63.3248C25.5929 63.3173 25.5704 63.3098 25.5354 63.2998C25.4979 63.2898 25.4729 63.2823 25.4604 63.2798C25.4479 63.2773 25.4254 63.2723 25.3904 63.2673C25.3554 63.2598 25.3179 63.2548 25.2804 63.2498L25.7379 61.6023C25.7954 61.3923 25.8279 61.2098 25.8354 61.0523C25.8429 60.8948 25.8104 60.7573 25.7329 60.6398C25.6579 60.5223 25.5229 60.4348 25.3329 60.3823C25.0529 60.3048 24.8379 60.3473 24.6879 60.5098C24.5379 60.6748 24.4229 60.8998 24.3429 61.1873L23.8779 62.8598C23.8379 62.8448 23.8054 62.8323 23.7804 62.8223C23.7554 62.8123 23.7329 62.8048 23.7154 62.7973C23.6979 62.7898 23.6729 62.7823 23.6354 62.7723C23.5979 62.7623 23.5679 62.7548 23.5504 62.7523C23.5329 62.7498 23.5079 62.7448 23.4804 62.7398C23.4529 62.7348 23.4204 62.7273 23.3829 62.7223L23.8854 60.9073C23.9679 60.6123 23.9754 60.3823 23.9079 60.2123C23.8429 60.0423 23.6954 59.9273 23.4679 59.8648C23.2629 59.8073 23.0979 59.8048 22.9679 59.8523C22.8379 59.8998 22.7379 59.9823 22.6629 60.0998C22.5904 60.2148 22.5279 60.3598 22.4804 60.5298L21.9804 62.3323C21.9404 62.3173 21.9079 62.3048 21.8829 62.2948C21.8554 62.2848 21.8354 62.2773 21.8179 62.2698C21.8004 62.2623 21.7754 62.2548 21.7379 62.2448C21.7079 62.2373 21.6704 62.2273 21.6229 62.2198C21.5754 62.2098 21.5304 62.2023 21.4854 62.1948L21.4954 62.1998Z" fill="black"/>
<path d="M27.7579 63.0248L27.5954 65.2273C27.5529 65.2198 27.5204 65.2148 27.4929 65.2098C27.4654 65.2048 27.4429 65.2023 27.4254 65.1973C27.4079 65.1948 27.3804 65.1898 27.3429 65.1873C27.3029 65.1848 27.2729 65.1823 27.2554 65.1848C27.2379 65.1848 27.2129 65.1848 27.1854 65.1848C27.1579 65.1848 27.1229 65.1848 27.0854 65.1848L27.4304 60.4823C27.4854 60.4898 27.5329 60.4973 27.5779 60.5048C27.6229 60.5123 27.6579 60.5173 27.6879 60.5198C27.7154 60.5198 27.7504 60.5223 27.7929 60.5198C27.8354 60.5173 27.8854 60.5198 27.9454 60.5198L27.8979 61.1673H27.9104C28.0304 60.9748 28.1654 60.8173 28.3154 60.6998C28.4654 60.5823 28.7079 60.5373 29.0454 60.5623C29.2454 60.5773 29.4229 60.6273 29.5754 60.7173C29.7304 60.8048 29.8579 60.9223 29.9604 61.0698C30.0629 61.2173 30.1379 61.3823 30.1804 61.5598C30.2254 61.7373 30.2379 61.9273 30.2254 62.1248C30.1879 62.6448 30.0304 63.0448 29.7529 63.3298C29.4754 63.6123 29.1304 63.7398 28.7154 63.7098C28.2779 63.6773 27.9629 63.4473 27.7754 63.0223H27.7629L27.7579 63.0248ZM27.8229 62.1398C27.7954 62.5048 27.8529 62.8073 27.9929 63.0473C28.1329 63.2873 28.3604 63.4198 28.6729 63.4423C28.8804 63.4573 29.0529 63.4073 29.1929 63.2948C29.3329 63.1798 29.4404 63.0223 29.5129 62.8198C29.5879 62.6173 29.6354 62.3823 29.6554 62.1173C29.6729 61.8898 29.6604 61.6773 29.6179 61.4823C29.5754 61.2873 29.4929 61.1248 29.3704 60.9948C29.2479 60.8648 29.0779 60.7948 28.8629 60.7798C28.6329 60.7623 28.4429 60.8223 28.2929 60.9573C28.1429 61.0923 28.0304 61.2698 27.9579 61.4848C27.8854 61.6998 27.8404 61.9198 27.8229 62.1423V62.1398Z" fill="black"/>
<path d="M30.9004 62.1998C30.8804 61.9723 30.9054 61.7623 30.9704 61.5673C31.0354 61.3723 31.1379 61.1998 31.2754 61.0473C31.4129 60.8973 31.5779 60.7773 31.7654 60.6873C31.9529 60.5973 32.1654 60.5448 32.4004 60.5248C32.6929 60.5023 32.9554 60.5423 33.1904 60.6523C33.4254 60.7598 33.6154 60.9273 33.7579 61.1548C33.9004 61.3823 33.9879 61.6523 34.0129 61.9673C34.0304 62.1723 34.0129 62.3723 33.9579 62.5698C33.9054 62.7673 33.8154 62.9473 33.6904 63.1098C33.5654 63.2723 33.4054 63.4048 33.2104 63.5048C33.0179 63.6048 32.7929 63.6673 32.5404 63.6873C32.2629 63.7098 32.0029 63.6673 31.7629 63.5573C31.5204 63.4473 31.3229 63.2773 31.1704 63.0423C31.0154 62.8073 30.9254 62.5273 30.9004 62.1998ZM32.4079 60.7223C32.1529 60.7448 31.9529 60.8298 31.8079 60.9823C31.6604 61.1348 31.5629 61.3223 31.5129 61.5473C31.4629 61.7723 31.4479 62.0073 31.4679 62.2548C31.4879 62.4873 31.5379 62.6973 31.6229 62.8898C31.7079 63.0823 31.8279 63.2348 31.9904 63.3473C32.1504 63.4598 32.3454 63.5073 32.5754 63.4898C32.8029 63.4698 32.9829 63.3773 33.1204 63.2073C33.2579 63.0373 33.3479 62.8423 33.3979 62.6173C33.4454 62.3923 33.4629 62.1798 33.4479 61.9848C33.4354 61.8248 33.4054 61.6673 33.3629 61.5173C33.3179 61.3673 33.2554 61.2298 33.1704 61.1048C33.0854 60.9798 32.9804 60.8823 32.8529 60.8123C32.7254 60.7423 32.5779 60.7123 32.4079 60.7273V60.7223Z" fill="black"/>
<path d="M37.3629 62.1523L37.4304 62.4823C37.2879 62.6348 37.1329 62.7648 36.9629 62.8723C36.7929 62.9773 36.6154 63.0523 36.4354 63.0923C36.1479 63.1573 35.8779 63.1498 35.6254 63.0773C35.3729 63.0023 35.1604 62.8648 34.9829 62.6573C34.8079 62.4523 34.6829 62.1923 34.6129 61.8748C34.5479 61.5798 34.5454 61.3048 34.6029 61.0473C34.6604 60.7898 34.7854 60.5698 34.9729 60.3873C35.1604 60.2048 35.4054 60.0823 35.7079 60.0148C35.8779 59.9773 36.0454 59.9698 36.2129 59.9948C36.3804 60.0173 36.5354 60.0748 36.6779 60.1623C36.8204 60.2498 36.9454 60.3748 37.0529 60.5348C37.1604 60.6973 37.2429 60.8948 37.2929 61.1323C37.3004 61.1598 37.3054 61.1848 37.3079 61.2048C37.3104 61.2248 37.3154 61.2473 37.3179 61.2723C36.8904 61.3523 36.4654 61.4423 36.0429 61.5348L35.1579 61.7298C35.1579 61.7598 35.1679 61.8048 35.1804 61.8623C35.2154 62.0198 35.2729 62.1673 35.3504 62.2973C35.4279 62.4298 35.5279 62.5398 35.6454 62.6273C35.7629 62.7148 35.9004 62.7748 36.0504 62.8048C36.2004 62.8348 36.3604 62.8298 36.5279 62.7923C36.8454 62.7223 37.1229 62.5098 37.3604 62.1523H37.3629ZM35.1079 61.4948L36.7754 61.1273C36.6954 60.8073 36.5754 60.5573 36.4154 60.3798C36.2554 60.2023 36.0329 60.1448 35.7529 60.2073C35.5679 60.2498 35.4229 60.3348 35.3179 60.4673C35.2129 60.5973 35.1454 60.7548 35.1129 60.9373C35.0804 61.1198 35.0804 61.3073 35.1104 61.4973L35.1079 61.4948Z" fill="black"/>
<path d="M38.6104 62.4623L37.6604 59.5423C37.7129 59.5298 37.7629 59.5173 37.8054 59.5073C37.8479 59.4973 37.8854 59.4873 37.9129 59.4798C37.9379 59.4723 37.9704 59.4573 38.0104 59.4423C38.0504 59.4248 38.0979 59.4048 38.1504 59.3823L38.3504 59.9948L38.3554 59.9098C38.4729 59.4498 38.6654 59.1748 38.9379 59.0873C39.0179 59.0623 39.0829 59.0498 39.1354 59.0548L39.2179 59.5948C39.1979 59.5948 39.1504 59.5948 39.0754 59.5823C39.0004 59.5698 38.9404 59.5748 38.8954 59.5898C38.8229 59.6123 38.7554 59.6498 38.6929 59.6973C38.6304 59.7473 38.5829 59.8048 38.5554 59.8698C38.4954 60.0148 38.4679 60.1448 38.4779 60.2598C38.4879 60.3748 38.5229 60.5273 38.5854 60.7173L39.1004 62.2973C39.0604 62.3073 39.0254 62.3148 38.9979 62.3198C38.9704 62.3273 38.9479 62.3323 38.9279 62.3348C38.9104 62.3373 38.8829 62.3473 38.8504 62.3573C38.8129 62.3698 38.7879 62.3773 38.7779 62.3823C38.7679 62.3873 38.7454 62.3948 38.7129 62.4098C38.6804 62.4223 38.6454 62.4373 38.6129 62.4548L38.6104 62.4623Z" fill="black"/>
<path d="M40.8629 61.6998L39.6479 58.8798C39.7004 58.8623 39.7454 58.8473 39.7879 58.8323C39.8304 58.8198 39.8654 58.8073 39.8904 58.7948C39.9154 58.7823 39.9479 58.7673 39.9854 58.7473C40.0229 58.7273 40.0679 58.7023 40.1204 58.6748L40.3529 59.2123C40.4054 58.7373 40.6379 58.4098 41.0529 58.2298C41.3929 58.0823 41.6754 58.0723 41.9029 58.1923C42.1304 58.3148 42.3279 58.5723 42.4979 58.9698L43.2329 60.6748C43.1929 60.6873 43.1604 60.6973 43.1329 60.7073C43.1054 60.7173 43.0829 60.7248 43.0679 60.7298C43.0504 60.7348 43.0254 60.7448 42.9904 60.7598C42.9529 60.7748 42.9279 60.7873 42.9104 60.7973C42.8929 60.8073 42.8729 60.8173 42.8479 60.8323C42.8229 60.8448 42.7929 60.8623 42.7604 60.8798L42.0829 59.3098C41.9954 59.1073 41.9054 58.9448 41.8079 58.8173C41.7129 58.6898 41.5979 58.6048 41.4654 58.5648C41.3329 58.5223 41.1804 58.5398 41.0054 58.6148C40.7154 58.7398 40.5579 58.9248 40.5279 59.1698C40.5004 59.4148 40.5729 59.7348 40.7429 60.1298L41.3329 61.4973C41.2929 61.5098 41.2604 61.5198 41.2329 61.5298C41.2054 61.5398 41.1829 61.5473 41.1654 61.5523C41.1479 61.5573 41.1204 61.5673 41.0879 61.5823C41.0504 61.5973 41.0279 61.6073 41.0179 61.6148C41.0079 61.6198 40.9879 61.6323 40.9554 61.6498C40.9229 61.6673 40.8904 61.6848 40.8579 61.7023L40.8629 61.6998Z" fill="black"/>
<path d="M45.2729 57.2948L45.9904 58.5998C46.0304 58.6723 46.0629 58.7273 46.0879 58.7598C46.1129 58.7923 46.1429 58.8148 46.1754 58.8248C46.2104 58.8348 46.2504 58.8248 46.2979 58.7998C46.3379 58.7773 46.3879 58.7398 46.4479 58.6848L46.5154 58.8098C46.4679 58.8748 46.4204 58.9248 46.3779 58.9598C46.3229 59.0048 46.2679 59.0423 46.2079 59.0748C46.0954 59.1323 45.9879 59.1548 45.8879 59.1423C45.7879 59.1298 45.6979 59.0648 45.6179 58.9523L45.5979 59.0323C45.4929 59.3973 45.2804 59.6698 44.9604 59.8448C44.7554 59.9573 44.5429 59.9898 44.3254 59.9448C44.1079 59.8973 43.9429 59.7723 43.8329 59.5723C43.7229 59.3748 43.6854 59.1948 43.7204 59.0323C43.7554 58.8698 43.8279 58.7298 43.9429 58.6123C44.0554 58.4923 44.2179 58.3523 44.4304 58.1898C44.5904 58.0648 44.7029 57.9698 44.7654 57.9048C44.8279 57.8423 44.8654 57.7773 44.8779 57.7148C44.8904 57.6523 44.8704 57.5748 44.8204 57.4848C44.7054 57.2748 44.5579 57.1423 44.3804 57.0898C44.2029 57.0373 44.0104 57.0698 43.8004 57.1848C43.6779 57.2523 43.5804 57.3348 43.5054 57.4323C43.4329 57.5298 43.3829 57.6248 43.3604 57.7148C43.3354 57.8048 43.3304 57.8823 43.3404 57.9423L43.2779 57.9773L43.1054 57.6648C43.2929 57.2923 43.5379 57.0223 43.8429 56.8548C44.1404 56.6898 44.4104 56.6448 44.6529 56.7173C44.8929 56.7898 45.1004 56.9823 45.2754 57.2973L45.2729 57.2948ZM45.4804 58.7423L45.0279 57.9198L44.8529 58.0698C44.7404 58.1598 44.6379 58.2448 44.5454 58.3248C44.4529 58.4048 44.3729 58.4898 44.3029 58.5823C44.2329 58.6748 44.1904 58.7748 44.1729 58.8873C44.1554 58.9998 44.1804 59.1148 44.2479 59.2373C44.3454 59.4123 44.4654 59.5198 44.6104 59.5548C44.7554 59.5898 44.9154 59.5598 45.0929 59.4648C45.1629 59.4273 45.2279 59.3623 45.2929 59.2698C45.3579 59.1773 45.4004 59.0898 45.4254 59.0048C45.4329 58.9773 45.4429 58.9473 45.4529 58.9148C45.4629 58.8823 45.4729 58.8498 45.4779 58.8123C45.4829 58.7773 45.4829 58.7548 45.4779 58.7448L45.4804 58.7423Z" fill="black"/>
<path d="M19.7429 11.4697C19.7429 11.4697 18.9704 5.64972 16.2304 4.31222C16.2304 4.31222 30.5729 -5.39028 45.4054 4.31222C45.4054 4.31222 41.4904 7.93472 41.6554 10.9747L19.7429 11.4697Z" fill="url(#paint23_linear_801_7061)" stroke="#A3822E" stroke-width="0.075" stroke-miterlimit="10"/>
<path d="M23.7254 7.74474L22.7379 2.80474L24.1579 2.51974C24.5204 2.44724 24.8279 2.41974 25.0779 2.43474C25.3279 2.45224 25.5279 2.52224 25.6779 2.64474C25.8279 2.76724 25.9279 2.95224 25.9754 3.19724C26.0079 3.36224 26.0104 3.51974 25.9804 3.66974C25.9504 3.81974 25.8954 3.95974 25.8129 4.09224C25.7304 4.22474 25.6279 4.33974 25.5054 4.44224C25.3829 4.54224 25.2404 4.63224 25.0829 4.70974C25.2354 4.68724 25.3954 4.68224 25.5604 4.69474C25.7254 4.70724 25.8829 4.74474 26.0279 4.80474C26.1754 4.86474 26.3054 4.95974 26.4154 5.08724C26.5254 5.21474 26.6004 5.37974 26.6429 5.58224C26.7454 6.09724 26.6104 6.54974 26.2354 6.93724C26.1254 7.04724 25.9904 7.14224 25.8279 7.21974C25.6679 7.29974 25.5054 7.35974 25.3454 7.40224C25.1829 7.44474 24.9904 7.48724 24.7604 7.53474L23.7279 7.74224L23.7254 7.74474ZM23.4279 2.94724L23.8104 4.86224L24.1079 4.80224C24.2979 4.76474 24.4629 4.71974 24.5979 4.67224C24.7329 4.62474 24.8654 4.55724 24.9879 4.46724C25.1479 4.34724 25.2604 4.20224 25.3279 4.03224C25.3929 3.86224 25.4079 3.67724 25.3679 3.47974C25.3229 3.25974 25.2404 3.09474 25.1179 2.98224C24.9954 2.86974 24.8379 2.80474 24.6479 2.78724C24.4579 2.76974 24.2279 2.78724 23.9604 2.84224L23.4279 2.94974V2.94724ZM23.8654 5.13224L24.3079 7.34974L24.9954 7.21224C25.2354 7.16474 25.4354 7.07474 25.6004 6.94224C25.7654 6.80974 25.8829 6.64724 25.9504 6.45474C26.0179 6.26224 26.0304 6.05974 25.9879 5.84724C25.9079 5.44474 25.7204 5.18974 25.4279 5.07724C25.1329 4.96724 24.7454 4.95724 24.2654 5.05474L23.8604 5.13474L23.8654 5.13224Z" fill="black"/>
<path d="M30.2279 4.57727L30.3204 6.28977C30.3254 6.38727 30.3329 6.45727 30.3404 6.50477C30.3479 6.55227 30.3679 6.58727 30.3979 6.61477C30.4279 6.64227 30.4754 6.65477 30.5379 6.64977C30.5904 6.64727 30.6629 6.63227 30.7529 6.60477L30.7604 6.76727C30.6779 6.80977 30.6054 6.83977 30.5404 6.85477C30.4629 6.87227 30.3829 6.88477 30.3079 6.88977C30.1604 6.89227 30.0404 6.86227 29.9429 6.79977C29.8479 6.73727 29.7854 6.62477 29.7579 6.46727L29.6954 6.53977C29.4029 6.86477 29.0454 7.03977 28.6279 7.06227C28.3579 7.07727 28.1229 7.00477 27.9204 6.84727C27.7179 6.68977 27.6104 6.47727 27.5954 6.21227C27.5829 5.95227 27.6329 5.74727 27.7479 5.59727C27.8629 5.44727 28.0104 5.33727 28.1879 5.27227C28.3654 5.20727 28.6029 5.13977 28.9029 5.07727C29.1304 5.02727 29.2954 4.98477 29.3904 4.94977C29.4879 4.91477 29.5579 4.86727 29.6004 4.80727C29.6454 4.74727 29.6629 4.65727 29.6579 4.53977C29.6429 4.26227 29.5554 4.05477 29.3979 3.91227C29.2404 3.76977 29.0229 3.70727 28.7504 3.72227C28.5879 3.72977 28.4454 3.76727 28.3229 3.83227C28.1979 3.89727 28.1004 3.96977 28.0304 4.05227C27.9604 4.13477 27.9154 4.20977 27.8979 4.27727L27.8154 4.28227L27.7929 3.87227C28.1754 3.57977 28.5654 3.42227 28.9604 3.40227C29.3504 3.38227 29.6554 3.46977 29.8679 3.66477C30.0829 3.85977 30.2004 4.16477 30.2229 4.57977L30.2279 4.57727ZM29.7204 6.17977L29.6629 5.10227L29.4054 5.16977C29.2429 5.20727 29.0954 5.24477 28.9604 5.28227C28.8254 5.31977 28.6979 5.36727 28.5804 5.42727C28.4629 5.48727 28.3679 5.56977 28.2929 5.67727C28.2204 5.78477 28.1854 5.91727 28.1954 6.07727C28.2079 6.30727 28.2804 6.47727 28.4129 6.58727C28.5454 6.69727 28.7279 6.74727 28.9579 6.73477C29.0504 6.72977 29.1504 6.69477 29.2629 6.63227C29.3754 6.56977 29.4654 6.49977 29.5354 6.42227C29.5579 6.39727 29.5829 6.36977 29.6104 6.34227C29.6379 6.31477 29.6629 6.28477 29.6854 6.24977C29.7079 6.21727 29.7204 6.19477 29.7204 6.18227V6.17977Z" fill="black"/>
<path d="M31.3954 6.90476L31.6754 3.38226C31.7379 3.39226 31.7929 3.40226 31.8429 3.40976C31.8929 3.41726 31.9354 3.42476 31.9679 3.42726C31.9979 3.42726 32.0404 3.42976 32.0879 3.42726C32.1379 3.42726 32.1954 3.42726 32.2629 3.42726L32.2079 4.09976C32.5179 3.64476 32.9304 3.43726 33.4504 3.47726C33.8754 3.51226 34.1704 3.64976 34.3354 3.89726C34.5004 4.14226 34.5629 4.51226 34.5229 5.00726L34.3529 7.13726C34.3054 7.12976 34.2654 7.12226 34.2329 7.11726C34.2004 7.11226 34.1754 7.10726 34.1554 7.10476C34.1354 7.10226 34.1029 7.09726 34.0604 7.09476C34.0154 7.09226 33.9804 7.08976 33.9604 7.08976C33.9404 7.08976 33.9104 7.08976 33.8779 7.08976C33.8454 7.08976 33.8079 7.08976 33.7629 7.08976L33.9204 5.12976C33.9404 4.87726 33.9354 4.66226 33.9079 4.47976C33.8804 4.29726 33.8079 4.15226 33.6954 4.03726C33.5829 3.92226 33.4179 3.85726 33.2029 3.83976C32.8404 3.80976 32.5804 3.91226 32.4204 4.14726C32.2604 4.38226 32.1604 4.74476 32.1204 5.23976L31.9854 6.94976C31.9379 6.94226 31.8979 6.93476 31.8654 6.92976C31.8329 6.92476 31.8079 6.91976 31.7854 6.91726C31.7629 6.91476 31.7329 6.90976 31.6929 6.90726C31.6479 6.90476 31.6179 6.90226 31.6054 6.90226C31.5929 6.90226 31.5654 6.90226 31.5229 6.90226C31.4804 6.90226 31.4404 6.90226 31.3954 6.90226V6.90476Z" fill="black"/>
<path d="M37.0729 1.99474L36.3754 5.23474C36.3554 5.33224 36.3429 5.39224 36.3429 5.41974C36.3429 5.44724 36.3479 5.46724 36.3604 5.47974C36.4954 5.50724 36.7354 5.41224 37.0804 5.18724L37.6254 4.82974L38.3229 4.32974C38.3829 4.34724 38.4379 4.36474 38.4854 4.37974C38.5329 4.39474 38.5754 4.40724 38.6079 4.41224C38.6329 4.41724 38.6704 4.42224 38.7204 4.42974C38.7704 4.43474 38.8279 4.44224 38.8954 4.45224L38.8829 4.50474C38.7929 4.55724 38.7154 4.59974 38.6454 4.63474C38.5779 4.66974 38.4229 4.74974 38.1829 4.87724C37.9429 5.00474 37.7054 5.13724 37.4754 5.26974C37.2454 5.40224 37.0829 5.49724 36.9904 5.55474C37.0479 5.65974 37.1279 5.80224 37.2279 5.98724C37.3279 6.17224 37.4429 6.38724 37.5754 6.63224C37.7079 6.87724 37.8304 7.09974 37.9404 7.30224C38.0504 7.50474 38.1579 7.69974 38.2629 7.89224L38.2554 7.92724C38.1954 7.90974 38.1479 7.89474 38.1104 7.88474C38.0754 7.87474 38.0454 7.86474 38.0179 7.85724C37.9929 7.84974 37.9554 7.83974 37.9054 7.82974C37.8504 7.81724 37.8129 7.80974 37.7954 7.80724C37.7779 7.80474 37.7454 7.79974 37.6954 7.79224C37.6454 7.78474 37.5929 7.77724 37.5404 7.77224C37.4629 7.60474 37.3329 7.35224 37.1479 7.01224C36.9629 6.67224 36.7504 6.28474 36.5079 5.84724C36.4554 5.75724 36.4079 5.70724 36.3654 5.69724C36.3054 5.68474 36.2554 5.76474 36.2154 5.94224L35.8979 7.41724C35.8504 7.40224 35.8129 7.38974 35.7829 7.38224C35.7529 7.37224 35.7254 7.36474 35.7054 7.35724C35.6854 7.34974 35.6529 7.34224 35.6154 7.33474C35.5704 7.32474 35.5429 7.31974 35.5279 7.31724C35.5154 7.31724 35.4879 7.31224 35.4479 7.30724C35.4079 7.30224 35.3654 7.29724 35.3229 7.29224L36.4929 1.86224C36.5529 1.87974 36.6079 1.89724 36.6554 1.91224C36.7029 1.92724 36.7454 1.93974 36.7779 1.94474C36.8079 1.95224 36.8479 1.95724 36.8979 1.96224C36.9479 1.96724 37.0054 1.97474 37.0729 1.98474V1.99474Z" fill="black"/>
<path d="M30.8179 57.8122C44.4262 57.8122 55.4579 46.7805 55.4579 33.1722C55.4579 19.5639 44.4262 8.53223 30.8179 8.53223C17.2096 8.53223 6.17792 19.5639 6.17792 33.1722C6.17792 46.7805 17.2096 57.8122 30.8179 57.8122Z" fill="url(#paint24_linear_801_7061)" stroke="#A3822E" stroke-width="0.075" stroke-miterlimit="10"/>
<path d="M31.1854 51.4447C41.694 51.4447 50.2129 42.9258 50.2129 32.4172C50.2129 21.9086 41.694 13.3897 31.1854 13.3897C20.6768 13.3897 12.1579 21.9086 12.1579 32.4172C12.1579 42.9258 20.6768 51.4447 31.1854 51.4447Z" fill="white"/>
<path d="M31.1854 52.0797C20.3429 52.0797 11.5254 43.2597 11.5254 32.4197C11.5254 21.5797 20.3429 12.7572 31.1854 12.7572C42.0279 12.7572 50.8454 21.5772 50.8454 32.4172C50.8454 43.2572 42.0254 52.0772 31.1854 52.0772V52.0797ZM31.1854 14.0222C21.0429 14.0222 12.7904 22.2747 12.7904 32.4172C12.7904 42.5597 21.0429 50.8122 31.1854 50.8122C41.3279 50.8122 49.5804 42.5597 49.5804 32.4172C49.5804 22.2747 41.3279 14.0222 31.1854 14.0222Z" fill="black"/>
<path d="M31.1829 15.5447C21.8704 15.5447 14.3154 23.0997 14.3154 32.4197C14.3154 41.7397 21.8704 49.2947 31.1829 49.2947C40.4954 49.2947 48.0579 41.7397 48.0579 32.4197C48.0579 23.0997 40.5029 15.5447 31.1829 15.5447ZM30.6054 42.5897H31.0379C30.8879 42.7697 30.7904 42.8672 30.7904 42.8672C30.7229 42.7772 30.6679 42.6822 30.6054 42.5897Z" fill="#FF0000"/>
<path d="M43.4829 24.3847C35.1504 21.4672 30.8279 26.6697 30.8279 26.6697C24.1154 21.1522 17.6804 25.1947 17.6804 25.1947C19.5479 33.8072 26.1204 34.7222 26.1204 34.7222C24.0779 41.3972 30.8279 46.8822 30.8279 46.8822C36.5229 43.6497 36.2754 34.4747 36.2754 34.4747C42.8879 32.0447 43.4829 24.3822 43.4829 24.3822V24.3847ZM30.6329 30.4522C31.0879 29.8322 32.5304 32.7872 32.2529 33.0647C31.9754 33.3497 29.5629 33.4697 29.3554 32.9072C29.1404 32.3497 30.6329 30.4522 30.6329 30.4522ZM26.8554 32.0847C22.4254 30.9272 21.2304 26.9347 21.2304 26.9347C26.2804 26.1822 28.9804 28.6747 28.9804 28.6747C26.8554 29.9397 26.8554 32.0847 26.8554 32.0847ZM30.6454 42.5297C28.2854 39.3022 28.5454 35.2797 28.5454 35.2797C30.5129 35.8422 33.0179 35.2797 33.0179 35.2797C33.5679 39.6022 30.6454 42.5297 30.6454 42.5297ZM35.2379 32.0847C34.7329 30.4322 32.7254 28.5172 32.7254 28.5172C36.0654 25.7197 40.1104 26.5997 40.1104 26.5997C38.6679 30.3272 35.2379 32.0847 35.2379 32.0847Z" fill="white" stroke="black" stroke-width="0.125" stroke-miterlimit="10"/>
<path d="M23.4829 54.4422L23.5154 54.4572C23.5304 54.5647 23.5679 54.6672 23.6254 54.7622C23.6854 54.8572 23.7579 54.9222 23.8479 54.9622C23.9129 54.9922 23.9854 55.0047 24.0579 54.9997C24.1329 54.9947 24.2029 54.9722 24.2654 54.9322C24.3279 54.8922 24.3754 54.8397 24.4054 54.7697C24.4579 54.6497 24.4579 54.5497 24.4054 54.4722C24.3504 54.3947 24.2529 54.2947 24.1104 54.1747C23.9679 54.0547 23.8704 53.9447 23.8204 53.8422C23.7704 53.7397 23.7804 53.6097 23.8479 53.4522C23.9304 53.2672 24.0579 53.1472 24.2279 53.0972C24.3979 53.0472 24.5804 53.0622 24.7704 53.1472C24.8629 53.1872 24.9454 53.2397 25.0229 53.2997C25.1004 53.3597 25.1529 53.4122 25.1804 53.4547C25.1054 53.5222 25.0304 53.6022 24.9554 53.6972L24.9204 53.6822C24.9204 53.6322 24.9154 53.5772 24.8979 53.5172C24.8804 53.4572 24.8554 53.4072 24.8229 53.3622C24.7904 53.3172 24.7479 53.2847 24.6979 53.2622C24.5929 53.2172 24.4929 53.2072 24.3979 53.2347C24.3029 53.2622 24.2304 53.3297 24.1854 53.4347C24.1354 53.5472 24.1354 53.6447 24.1879 53.7247C24.2404 53.8022 24.3354 53.9047 24.4729 54.0272C24.6104 54.1497 24.7054 54.2622 24.7604 54.3672C24.8154 54.4722 24.8079 54.5972 24.7454 54.7422C24.6854 54.8772 24.5979 54.9772 24.4829 55.0422C24.3679 55.1072 24.2429 55.1397 24.1054 55.1347C23.9704 55.1322 23.8404 55.1047 23.7204 55.0497C23.5304 54.9647 23.3804 54.8497 23.2729 54.6997C23.3904 54.5697 23.4604 54.4847 23.4879 54.4422H23.4829Z" fill="black"/>
<path d="M26.9954 54.6597L26.7229 55.6422C26.7079 55.6972 26.6979 55.7397 26.6929 55.7672C26.6879 55.7947 26.6929 55.8197 26.7054 55.8397C26.7179 55.8597 26.7404 55.8772 26.7779 55.8872C26.8079 55.8947 26.8504 55.8997 26.9079 55.9022L26.8829 55.9947C26.8279 56.0022 26.7829 56.0047 26.7429 56.0022C26.6954 55.9972 26.6504 55.9897 26.6054 55.9772C26.5229 55.9522 26.4579 55.9097 26.4179 55.8572C26.3754 55.8022 26.3604 55.7297 26.3754 55.6347L26.3279 55.6647C26.1004 55.7922 25.8679 55.8247 25.6254 55.7572C25.4704 55.7147 25.3504 55.6297 25.2679 55.5022C25.1829 55.3747 25.1629 55.2347 25.2054 55.0847C25.2479 54.9347 25.3129 54.8297 25.4079 54.7672C25.5029 54.7047 25.6054 54.6697 25.7179 54.6672C25.8304 54.6647 25.9779 54.6722 26.1579 54.6922C26.2979 54.7072 26.3954 54.7147 26.4579 54.7122C26.5204 54.7097 26.5679 54.6972 26.6029 54.6722C26.6404 54.6472 26.6654 54.5997 26.6854 54.5322C26.7304 54.3747 26.7204 54.2397 26.6579 54.1297C26.5954 54.0197 26.4854 53.9422 26.3279 53.8997C26.2354 53.8747 26.1479 53.8672 26.0654 53.8797C25.9829 53.8922 25.9129 53.9147 25.8604 53.9497C25.8054 53.9822 25.7654 54.0172 25.7429 54.0522L25.6954 54.0397L25.7604 53.8047C26.0304 53.7122 26.2804 53.6972 26.5079 53.7597C26.7329 53.8222 26.8879 53.9297 26.9704 54.0797C27.0529 54.2297 27.0629 54.4247 26.9979 54.6622L26.9954 54.6597ZM26.4054 55.4672L26.5779 54.8472L26.4204 54.8372C26.3204 54.8272 26.2304 54.8222 26.1479 54.8172C26.0654 54.8122 25.9829 54.8172 25.9079 54.8272C25.8304 54.8397 25.7604 54.8672 25.6979 54.9147C25.6354 54.9622 25.5929 55.0297 25.5654 55.1222C25.5279 55.2547 25.5379 55.3647 25.5904 55.4522C25.6429 55.5397 25.7379 55.6022 25.8704 55.6372C25.9229 55.6522 25.9854 55.6522 26.0629 55.6372C26.1404 55.6222 26.2029 55.5997 26.2554 55.5697C26.2729 55.5597 26.2929 55.5497 26.3129 55.5397C26.3329 55.5297 26.3554 55.5172 26.3729 55.5022C26.3929 55.4872 26.4029 55.4772 26.4054 55.4697V55.4672Z" fill="black"/>
<path d="M27.5954 56.2022L27.9979 52.9222C28.0354 52.9297 28.0679 52.9372 28.0979 52.9422C28.1279 52.9497 28.1529 52.9547 28.1729 52.9547C28.1929 52.9547 28.2154 52.9572 28.2454 52.9597C28.2754 52.9597 28.3104 52.9597 28.3504 52.9647L28.1554 54.5547C28.3504 54.2922 28.6029 54.1797 28.9104 54.2172C29.1579 54.2472 29.3304 54.3397 29.4229 54.4947C29.5154 54.6497 29.5454 54.8697 29.5104 55.1547L29.3554 56.4172C29.3279 56.4097 29.3054 56.4047 29.2854 56.4022C29.2654 56.3972 29.2504 56.3947 29.2404 56.3922C29.2304 56.3897 29.2104 56.3872 29.1829 56.3822C29.1554 56.3797 29.1354 56.3772 29.1229 56.3772C29.1104 56.3772 29.0929 56.3772 29.0754 56.3772C29.0554 56.3772 29.0329 56.3772 29.0079 56.3772L29.1504 55.2147C29.1804 54.9622 29.1679 54.7722 29.1104 54.6497C29.0529 54.5247 28.9354 54.4522 28.7554 54.4297C28.3729 54.3822 28.1554 54.5922 28.0979 55.0597L27.9529 56.2472C27.9254 56.2397 27.9029 56.2347 27.8829 56.2322C27.8629 56.2297 27.8479 56.2247 27.8354 56.2222C27.8229 56.2197 27.8054 56.2172 27.7804 56.2122C27.7529 56.2097 27.7354 56.2072 27.7279 56.2072C27.7204 56.2072 27.7029 56.2072 27.6804 56.2072C27.6554 56.2072 27.6304 56.2072 27.6054 56.2072L27.5954 56.2022Z" fill="black"/>
<path d="M31.7429 55.0472L31.7579 56.0672C31.7579 56.1247 31.7604 56.1672 31.7654 56.1947C31.7679 56.2222 31.7804 56.2447 31.7979 56.2622C31.8154 56.2797 31.8429 56.2872 31.8804 56.2872C31.9129 56.2872 31.9554 56.2797 32.0079 56.2672V56.3647C31.9604 56.3872 31.9154 56.4047 31.8779 56.4122C31.8304 56.4222 31.7829 56.4272 31.7379 56.4272C31.6504 56.4272 31.5804 56.4047 31.5229 56.3647C31.4679 56.3247 31.4329 56.2572 31.4204 56.1622L31.3829 56.2047C31.2004 56.3922 30.9854 56.4872 30.7354 56.4897C30.5754 56.4922 30.4354 56.4447 30.3204 56.3447C30.2029 56.2472 30.1429 56.1172 30.1429 55.9597C30.1429 55.8047 30.1754 55.6847 30.2479 55.5972C30.3204 55.5097 30.4104 55.4497 30.5179 55.4122C30.6254 55.3772 30.7679 55.3447 30.9479 55.3122C31.0854 55.2872 31.1829 55.2672 31.2404 55.2472C31.2979 55.2297 31.3429 55.2022 31.3704 55.1672C31.3979 55.1322 31.4104 55.0797 31.4104 55.0097C31.4104 54.8447 31.3604 54.7197 31.2704 54.6297C31.1804 54.5397 31.0529 54.4997 30.8879 54.5022C30.7929 54.5022 30.7079 54.5222 30.6304 54.5572C30.5529 54.5922 30.4954 54.6347 30.4529 54.6822C30.4079 54.7297 30.3804 54.7722 30.3679 54.8122H30.3179L30.3154 54.5672C30.5504 54.4022 30.7854 54.3172 31.0204 54.3147C31.2529 54.3122 31.4329 54.3697 31.5554 54.4922C31.6779 54.6147 31.7404 54.7972 31.7454 55.0447L31.7429 55.0472ZM31.4029 55.9897L31.3929 55.3472L31.2379 55.3822C31.1404 55.4022 31.0504 55.4197 30.9704 55.4397C30.8879 55.4572 30.8129 55.4847 30.7404 55.5172C30.6704 55.5497 30.6104 55.5972 30.5629 55.6597C30.5179 55.7222 30.4954 55.7997 30.4954 55.8947C30.4954 56.0322 30.5379 56.1347 30.6129 56.2022C30.6904 56.2697 30.7954 56.3047 30.9329 56.3022C30.9879 56.3022 31.0479 56.2822 31.1179 56.2472C31.1854 56.2122 31.2404 56.1722 31.2829 56.1297C31.2979 56.1147 31.3129 56.0997 31.3304 56.0847C31.3479 56.0697 31.3629 56.0522 31.3779 56.0322C31.3929 56.0122 31.4004 55.9997 31.4004 55.9922L31.4029 55.9897Z" fill="black"/>
<path d="M32.6529 56.3673L32.1954 53.1073C32.2329 53.1073 32.2654 53.1023 32.2954 53.1023C32.3254 53.1023 32.3504 53.0998 32.3704 53.0948C32.3879 53.0923 32.4129 53.0873 32.4404 53.0798C32.4704 53.0723 32.5029 53.0648 32.5429 53.0573L32.7704 54.6698C32.8454 54.5148 32.9404 54.3898 33.0504 54.2923C33.1629 54.1948 33.3004 54.1373 33.4604 54.1148C33.6554 54.0873 33.8254 54.1148 33.9729 54.1923C34.1179 54.2698 34.2354 54.3823 34.3204 54.5298C34.4054 54.6773 34.4604 54.8323 34.4829 55.0023C34.5029 55.1498 34.5029 55.2948 34.4779 55.4373C34.4529 55.5773 34.4054 55.7073 34.3354 55.8248C34.2654 55.9423 34.1729 56.0423 34.0604 56.1223C33.9454 56.2023 33.8129 56.2523 33.6579 56.2748C33.3854 56.3123 33.1629 56.2398 32.9954 56.0523C32.9654 56.0823 32.9279 56.1223 32.8854 56.1748C32.8429 56.2273 32.7929 56.2873 32.7354 56.3548L32.6529 56.3648V56.3673ZM33.3779 54.3148C33.1479 54.3473 32.9954 54.4673 32.9204 54.6773C32.8454 54.8873 32.8279 55.1373 32.8704 55.4298C32.8929 55.5823 32.9354 55.7173 33.0029 55.8323C33.0679 55.9473 33.1529 56.0323 33.2554 56.0873C33.3579 56.1423 33.4704 56.1598 33.5954 56.1423C33.7129 56.1248 33.8079 56.0823 33.8829 56.0098C33.9579 55.9373 34.0154 55.8473 34.0529 55.7398C34.0904 55.6323 34.1129 55.5248 34.1204 55.4123C34.1279 55.3023 34.1204 55.1873 34.1054 55.0748C34.0829 54.9098 34.0404 54.7673 33.9804 54.6473C33.9204 54.5273 33.8404 54.4373 33.7404 54.3773C33.6404 54.3173 33.5204 54.2948 33.3829 54.3148H33.3779Z" fill="black"/>
<path d="M36.4104 54.2273L36.6654 55.2148C36.6804 55.2698 36.6929 55.3123 36.7029 55.3373C36.7129 55.3623 36.7279 55.3823 36.7504 55.3948C36.7704 55.4073 36.8004 55.4073 36.8354 55.3998C36.8654 55.3923 36.9054 55.3748 36.9554 55.3473L36.9804 55.4398C36.9379 55.4748 36.8979 55.4998 36.8629 55.5173C36.8204 55.5373 36.7754 55.5548 36.7304 55.5648C36.6454 55.5848 36.5704 55.5823 36.5079 55.5548C36.4429 55.5298 36.3954 55.4723 36.3604 55.3823L36.3329 55.4323C36.2004 55.6573 36.0129 55.8023 35.7729 55.8648C35.6179 55.9048 35.4729 55.8923 35.3354 55.8223C35.1979 55.7548 35.1104 55.6448 35.0704 55.4923C35.0329 55.3423 35.0379 55.2173 35.0879 55.1148C35.1379 55.0123 35.2104 54.9323 35.3054 54.8723C35.4004 54.8123 35.5329 54.7473 35.7004 54.6723C35.8279 54.6148 35.9179 54.5723 35.9704 54.5398C36.0229 54.5098 36.0579 54.4723 36.0779 54.4323C36.0954 54.3923 36.0954 54.3373 36.0779 54.2698C36.0354 54.1098 35.9604 53.9973 35.8529 53.9348C35.7429 53.8698 35.6104 53.8598 35.4529 53.8998C35.3604 53.9248 35.2804 53.9623 35.2154 54.0148C35.1504 54.0673 35.1029 54.1223 35.0704 54.1773C35.0404 54.2348 35.0229 54.2823 35.0204 54.3248L34.9729 54.3373L34.9104 54.0998C35.0979 53.8848 35.3079 53.7473 35.5354 53.6873C35.7604 53.6273 35.9479 53.6448 36.0979 53.7323C36.2454 53.8223 36.3504 53.9848 36.4129 54.2223L36.4104 54.2273ZM36.3054 55.2223L36.1429 54.5998L36.0004 54.6698C35.9104 54.7098 35.8279 54.7498 35.7529 54.7873C35.6779 54.8248 35.6104 54.8673 35.5479 54.9173C35.4854 54.9648 35.4404 55.0248 35.4104 55.0973C35.3804 55.1698 35.3754 55.2498 35.4004 55.3423C35.4354 55.4748 35.4979 55.5648 35.5879 55.6148C35.6779 55.6623 35.7904 55.6698 35.9229 55.6348C35.9754 55.6198 36.0304 55.5898 36.0879 55.5373C36.1454 55.4873 36.1904 55.4348 36.2204 55.3823C36.2304 55.3648 36.2429 55.3473 36.2554 55.3273C36.2679 55.3073 36.2804 55.2873 36.2904 55.2648C36.3004 55.2423 36.3029 55.2273 36.3029 55.2198L36.3054 55.2223Z" fill="black"/>
<path d="M36.7304 52.9147L37.0204 52.6722L37.2054 53.2122L37.6454 53.0622C37.6529 53.1047 37.6604 53.1347 37.6654 53.1497C37.6729 53.1722 37.6854 53.1972 37.7004 53.2222L37.2604 53.3722L37.6179 54.4172L37.6704 54.5672C37.7254 54.7272 37.7879 54.8472 37.8629 54.9272C37.9354 55.0097 38.0354 55.0272 38.1604 54.9847C38.1879 54.9747 38.2454 54.9447 38.3379 54.8922L38.3729 54.9922C38.2529 55.0897 38.1429 55.1547 38.0479 55.1872C37.9704 55.2147 37.9004 55.2272 37.8354 55.2272C37.7704 55.2272 37.7079 55.2097 37.6504 55.1722C37.5929 55.1347 37.5379 55.0797 37.4854 54.9997C37.4354 54.9197 37.3879 54.8197 37.3454 54.6947L36.9304 53.4822L36.6729 53.5697C36.6729 53.5497 36.6679 53.5197 36.6554 53.4872C36.6429 53.4497 36.6304 53.4247 36.6179 53.4122L36.8754 53.3247L36.7354 52.9122L36.7304 52.9147Z" fill="black"/>
<path d="M49.5804 52.6722C49.8179 52.7322 51.7204 52.4072 54.4479 50.9872C55.3104 50.5397 56.2529 49.9822 57.2529 49.2947" stroke="#A3822E" stroke-width="0.025" stroke-miterlimit="10"/>
<path d="M54.3229 46.4947C54.3229 46.4947 57.9779 44.1747 59.5604 41.2922" stroke="#A3822E" stroke-width="0.025" stroke-miterlimit="10"/>
<path d="M55.5979 39.9572C55.5979 39.9572 59.3529 37.6347 61.1604 33.1722" stroke="#A3822E" stroke-width="0.025" stroke-miterlimit="10"/>
<path d="M56.1879 32.4173C56.1879 32.4173 58.8229 30.1148 59.5604 25.3323" stroke="#A3822E" stroke-width="0.025" stroke-miterlimit="10"/>
<path d="M53.3854 20.1748L55.0254 14.2598" stroke="#A3822E" stroke-width="0.025" stroke-miterlimit="10"/>
</g>
<defs>
<linearGradient id="paint0_linear_801_7061" x1="5.68039" y1="21.2397" x2="1.32289" y2="26.4422" gradientUnits="userSpaceOnUse">
<stop stop-color="#F7E349"/>
<stop offset="1" stop-color="#A3822E"/>
</linearGradient>
<linearGradient id="paint1_linear_801_7061" x1="56.0479" y1="21.2397" x2="60.4054" y2="26.4422" gradientUnits="userSpaceOnUse">
<stop stop-color="#F7E349"/>
<stop offset="1" stop-color="#A3822E"/>
</linearGradient>
<linearGradient id="paint2_linear_801_7061" x1="11.3854" y1="13.7648" x2="6.18293" y2="14.1148" gradientUnits="userSpaceOnUse">
<stop stop-color="#F7E349"/>
<stop offset="1" stop-color="#A3822E"/>
</linearGradient>
<linearGradient id="paint3_linear_801_7061" x1="17.7854" y1="9.26476" x2="14.2004" y2="16.8573" gradientUnits="userSpaceOnUse">
<stop stop-color="#F7E349"/>
<stop offset="1" stop-color="#A3822E"/>
</linearGradient>
<linearGradient id="paint4_linear_801_7061" x1="21.5354" y1="11.8298" x2="10.1479" y2="11.8298" gradientUnits="userSpaceOnUse">
<stop stop-color="#F7E349"/>
<stop offset="1" stop-color="#A3822E"/>
</linearGradient>
<linearGradient id="paint5_linear_801_7061" x1="5.53039" y1="53.7747" x2="15.0904" y2="55.2497" gradientUnits="userSpaceOnUse">
<stop stop-color="#F7E349"/>
<stop offset="1" stop-color="#A3822E"/>
</linearGradient>
<linearGradient id="paint6_linear_801_7061" x1="9.57541" y1="48.4248" x2="7.74791" y2="56.5798" gradientUnits="userSpaceOnUse">
<stop stop-color="#F7E349"/>
<stop offset="1" stop-color="#A3822E"/>
</linearGradient>
<linearGradient id="paint7_linear_801_7061" x1="5.97543" y1="42.8323" x2="2.95293" y2="48.0348" gradientUnits="userSpaceOnUse">
<stop stop-color="#F7E349"/>
<stop offset="1" stop-color="#A3822E"/>
</linearGradient>
<linearGradient id="paint8_linear_801_7061" x1="9.11291" y1="45.2747" x2="17.4079" y2="53.8522" gradientUnits="userSpaceOnUse">
<stop stop-color="#F7E349"/>
<stop offset="1" stop-color="#A3822E"/>
</linearGradient>
<linearGradient id="paint9_linear_801_7061" x1="5.1829" y1="35.4347" x2="0.825402" y2="45.2772" gradientUnits="userSpaceOnUse">
<stop stop-color="#F7E349"/>
<stop offset="1" stop-color="#A3822E"/>
</linearGradient>
<linearGradient id="paint10_linear_801_7061" x1="5.6204" y1="27.7697" x2="-0.917104" y2="35.7822" gradientUnits="userSpaceOnUse">
<stop stop-color="#F7E349"/>
<stop offset="1" stop-color="#A3822E"/>
</linearGradient>
<linearGradient id="paint11_linear_801_7061" x1="9.37289" y1="17.4348" x2="3.39789" y2="18.2773" gradientUnits="userSpaceOnUse">
<stop stop-color="#F7E349"/>
<stop offset="1" stop-color="#A3822E"/>
</linearGradient>
<linearGradient id="paint12_linear_801_7061" x1="50.3429" y1="13.7648" x2="55.5454" y2="14.1148" gradientUnits="userSpaceOnUse">
<stop stop-color="#F7E349"/>
<stop offset="1" stop-color="#A3822E"/>
</linearGradient>
<linearGradient id="paint13_linear_801_7061" x1="43.9429" y1="9.26476" x2="47.5279" y2="16.8573" gradientUnits="userSpaceOnUse">
<stop stop-color="#F7E349"/>
<stop offset="1" stop-color="#A3822E"/>
</linearGradient>
<linearGradient id="paint14_linear_801_7061" x1="40.1929" y1="11.8298" x2="51.5804" y2="11.8298" gradientUnits="userSpaceOnUse">
<stop stop-color="#F7E349"/>
<stop offset="1" stop-color="#A3822E"/>
</linearGradient>
<linearGradient id="paint15_linear_801_7061" x1="56.1979" y1="53.7747" x2="46.6379" y2="55.2497" gradientUnits="userSpaceOnUse">
<stop stop-color="#F7E349"/>
<stop offset="1" stop-color="#A3822E"/>
</linearGradient>
<linearGradient id="paint16_linear_801_7061" x1="52.1529" y1="48.4248" x2="53.9804" y2="56.5798" gradientUnits="userSpaceOnUse">
<stop stop-color="#F7E349"/>
<stop offset="1" stop-color="#A3822E"/>
</linearGradient>
<linearGradient id="paint17_linear_801_7061" x1="55.7529" y1="42.8323" x2="58.7754" y2="48.0348" gradientUnits="userSpaceOnUse">
<stop stop-color="#F7E349"/>
<stop offset="1" stop-color="#A3822E"/>
</linearGradient>
<linearGradient id="paint18_linear_801_7061" x1="52.6154" y1="45.2747" x2="44.3204" y2="53.8522" gradientUnits="userSpaceOnUse">
<stop stop-color="#F7E349"/>
<stop offset="1" stop-color="#A3822E"/>
</linearGradient>
<linearGradient id="paint19_linear_801_7061" x1="56.5454" y1="35.4347" x2="60.9029" y2="45.2772" gradientUnits="userSpaceOnUse">
<stop stop-color="#F7E349"/>
<stop offset="1" stop-color="#A3822E"/>
</linearGradient>
<linearGradient id="paint20_linear_801_7061" x1="56.1079" y1="27.7697" x2="62.6454" y2="35.7822" gradientUnits="userSpaceOnUse">
<stop stop-color="#F7E349"/>
<stop offset="1" stop-color="#A3822E"/>
</linearGradient>
<linearGradient id="paint21_linear_801_7061" x1="52.3554" y1="17.4348" x2="58.3304" y2="18.2773" gradientUnits="userSpaceOnUse">
<stop stop-color="#F7E349"/>
<stop offset="1" stop-color="#A3822E"/>
</linearGradient>
<linearGradient id="paint22_linear_801_7061" x1="30.8179" y1="50.8148" x2="30.8179" y2="65.7573" gradientUnits="userSpaceOnUse">
<stop stop-color="#F7E349"/>
<stop offset="1" stop-color="#A3822E"/>
</linearGradient>
<linearGradient id="paint23_linear_801_7061" x1="30.8179" y1="11.4697" x2="30.8179" y2="0.00222279" gradientUnits="userSpaceOnUse">
<stop stop-color="#F7E349"/>
<stop offset="1" stop-color="#A3822E"/>
</linearGradient>
<linearGradient id="paint24_linear_801_7061" x1="30.8179" y1="8.53223" x2="30.8179" y2="57.8122" gradientUnits="userSpaceOnUse">
<stop stop-color="#F7E349"/>
<stop offset="1" stop-color="#A3822E"/>
</linearGradient>
<clipPath id="clip0_801_7061">
<rect width="61.7283" height="65.7597" fill="white"/>
</clipPath>
</defs>
</svg>
