<svg width="81" height="20" viewBox="0 0 81 20" fill="none" xmlns="http://www.w3.org/2000/svg">
<g clip-path="url(#clip0_801_8491)">
<g clip-path="url(#clip1_801_8491)">
<path fill-rule="evenodd" clip-rule="evenodd" d="M2.01123 4.55571C7.38053 1.63008 11.9708 0.185008 15.6713 0.0249028C23.3036 -0.304385 25.7538 2.67902 21.9055 7.12647C20.4184 8.84554 18.049 10.5951 13.5586 11.8306C24.9186 5.45197 20.9317 2.31424 15.909 1.72664C12.9314 1.37754 7.12799 2.16982 2.01123 4.55571Z" fill="#115588"/>
<path fill-rule="evenodd" clip-rule="evenodd" d="M1.14551 6.38368C4.13469 4.42611 7.21547 3.3161 9.7821 2.88283C14.9443 2.01298 21.3468 3.43247 16.4875 6.92177C15.2059 7.84196 13.1344 8.95857 9.96697 10.194C11.7776 9.32004 13.0931 8.45432 14.0397 7.72972C17.5629 5.03434 15.4287 3.28061 9.96614 3.84511C7.61078 4.08857 4.57951 4.87671 1.14551 6.38368Z" fill="#FECC1A"/>
<path fill-rule="evenodd" clip-rule="evenodd" d="M12.3884 9.40835C12.5353 10.0504 12.371 10.8542 11.8949 11.8207C13.7031 10.6611 14.3517 9.62788 13.8409 8.72006L13.8301 8.72502C13.387 8.94702 12.9075 9.17562 12.3884 9.40835ZM10.3309 4.41868C7.42512 4.3997 3.55206 5.56996 0.515015 6.96138C3.16253 6.09484 5.47992 5.63185 7.35084 5.52787C10.595 5.34713 13.0222 5.57821 12.3265 7.41529C12.2217 7.69259 11.9939 7.99629 11.6786 8.34208C11.8552 8.47496 12.0013 8.62516 12.1169 8.79104L12.2184 8.72832C12.6038 8.48981 12.9545 8.25708 13.2731 8.03343C13.1839 7.81225 13.2789 7.56797 13.5702 7.31543C14.8634 6.19139 14.5556 5.33475 12.7688 4.76943C12.1474 4.57219 11.3328 4.42529 10.3309 4.41868Z" fill="#115588"/>
<path fill-rule="evenodd" clip-rule="evenodd" d="M26.0559 5.367C26.7764 5.18709 28.9147 5.12849 29.5749 5.55929C31.0052 6.49269 30.2244 7.8932 28.9568 8.23816C30.283 8.71765 30.3598 10.1248 29.3307 10.9484C28.9164 11.2802 28.46 11.4617 27.6603 11.5327C26.7162 11.6177 25.7679 11.6235 24.8114 11.4873L26.0559 5.367ZM27.2782 6.29132L26.9712 7.80241H27.5546C27.8592 7.80241 28.219 7.73969 28.4055 7.63571C28.7719 7.43104 28.8479 7.12238 28.8528 6.99859C28.871 6.54303 28.5673 6.29132 27.9978 6.29132H27.2782ZM26.7756 8.76304L26.4199 10.5151H27.298C27.6281 10.5151 28.0713 10.3418 28.238 10.19C28.4055 10.0389 28.4955 9.85407 28.5062 9.63372C28.5194 9.36633 28.4352 9.18889 28.2982 9.05437C28.1678 8.92645 27.9186 8.76304 27.6372 8.76304H26.7756Z" fill="#115588"/>
<path fill-rule="evenodd" clip-rule="evenodd" d="M36.1392 11.5937H34.6529L34.5101 9.94726H32.5303L31.6984 11.5937H30.1262L33.5833 5.23901H35.3841L36.1392 11.5937ZM32.9495 8.91318H34.435L34.1932 6.33252L32.9495 8.91318Z" fill="#115588"/>
<path fill-rule="evenodd" clip-rule="evenodd" d="M62.0804 11.5937H60.5941L60.4513 9.94726H58.4723L57.6404 11.5937H56.0674L59.5245 5.23901H61.3253L62.0804 11.5937ZM58.8907 8.91318H60.377L60.1344 6.33252L58.8907 8.91318Z" fill="#115588"/>
<path fill-rule="evenodd" clip-rule="evenodd" d="M80.4851 11.5937H78.9987L78.856 9.94726H76.8761L76.0442 11.5937H74.472L77.9292 5.23901H79.7299L80.4851 11.5937ZM77.2953 8.91318H78.7808L78.5382 6.33252L77.2953 8.91318Z" fill="#115588"/>
<path fill-rule="evenodd" clip-rule="evenodd" d="M43.5643 5.23901L42.2777 11.5937H40.8268L39.1391 6.87968C39.121 7.18668 38.9501 8.02682 38.7199 9.16902L38.2313 11.5937H36.9406L38.2197 5.23901H39.919L41.445 9.80118C41.4582 9.67409 41.6447 8.35364 41.8708 7.2428L42.2785 5.23901H43.5643Z" fill="#115588"/>
<path fill-rule="evenodd" clip-rule="evenodd" d="M50.2144 5.23901L47.4348 8.00537L48.9913 11.5937H47.4159L46.2695 8.83973L45.5086 9.51894L45.0844 11.5937H43.7004L44.9986 5.23901H46.3826L45.7719 8.23149L45.9807 7.97483C46.0995 7.82545 46.2052 7.70001 46.2943 7.59685L48.4079 5.23901H50.2144Z" fill="#115588"/>
<path fill-rule="evenodd" clip-rule="evenodd" d="M75.1198 5.24976L74.4043 8.6623C74.0312 10.4408 73.2819 11.5937 71.2566 11.5937C70.0369 11.5937 68.9541 10.997 68.9541 9.68401C68.9541 9.49832 68.9673 9.28787 69.0135 9.05597L69.7612 5.24976H71.2558L70.5089 8.82406C70.4553 9.08237 70.4363 9.31098 70.4396 9.50574C70.4437 9.73105 70.5023 9.99184 70.6674 10.1643C71.1106 10.6265 72.0679 10.6669 72.5837 9.7327C72.7521 9.42817 72.9006 9.02378 73.0128 8.49725L73.7044 5.24976H75.1198Z" fill="#115588"/>
<path fill-rule="evenodd" clip-rule="evenodd" d="M53.3819 9.37367L52.9387 11.5937H51.52L52.7505 5.42799C53.7392 5.25468 55.4451 5.16142 56.1144 5.56334C56.6648 5.8951 57.0956 6.28381 57.1014 6.97457C57.1064 7.65378 56.8027 8.3726 56.2126 8.78855C55.2462 9.4694 54.4853 9.37367 53.3819 9.37367ZM53.9835 6.36056L53.5989 8.28182C54.0181 8.32969 54.4019 8.33464 54.737 8.24221C55.9006 7.92365 55.9039 6.47032 54.9714 6.36551C54.6412 6.32837 54.2971 6.35313 53.9835 6.36056Z" fill="#115588"/>
<path fill-rule="evenodd" clip-rule="evenodd" d="M64.7254 9.37367L64.283 11.5937H62.8635L64.0949 5.42799C65.0827 5.25468 66.7886 5.16142 67.4579 5.56334C68.0083 5.8951 68.44 6.28381 68.4449 6.97457C68.4507 7.65378 68.1462 8.3726 67.5561 8.78855C66.5905 9.4694 65.8296 9.37367 64.7254 9.37367ZM65.3278 6.36056L64.9432 8.28182C65.3617 8.32969 65.7462 8.33464 66.0813 8.24221C67.245 7.92365 67.2483 6.47032 66.3149 6.36551C65.9847 6.32837 65.6406 6.35313 65.3278 6.36056Z" fill="#115588"/>
<path fill-rule="evenodd" clip-rule="evenodd" d="M0.674316 18.8298L1.37416 15.489H2.51718C2.76559 15.489 2.9389 15.4973 3.03793 15.5121C3.20216 15.5352 3.34163 15.5798 3.45552 15.6483C3.57024 15.7168 3.65689 15.8076 3.71631 15.9223C3.77573 16.0362 3.80462 16.1624 3.80462 16.3003C3.80462 16.486 3.75345 16.6461 3.65029 16.7822C3.54713 16.9184 3.38785 17.0216 3.17245 17.0909C3.34246 17.1388 3.47616 17.2221 3.57271 17.3426C3.66845 17.4631 3.71631 17.6001 3.71631 17.7519C3.71631 17.9525 3.65937 18.1431 3.54548 18.323C3.43076 18.503 3.27396 18.6317 3.07342 18.7117C2.87287 18.7901 2.59805 18.8298 2.24978 18.8298H0.674316ZM1.77772 16.8375H2.30343C2.54028 16.8375 2.70947 16.821 2.81263 16.788C2.91661 16.7542 2.99419 16.6997 3.04618 16.6238C3.09818 16.5479 3.12376 16.467 3.12376 16.3811C3.12376 16.2961 3.09983 16.226 3.05113 16.1715C3.00162 16.1171 2.93229 16.0807 2.84234 16.0634C2.792 16.0535 2.67068 16.0494 2.47839 16.0494H1.94278L1.77772 16.8375ZM1.47319 18.2933H2.13672C2.41649 18.2933 2.603 18.2752 2.69791 18.2397C2.79365 18.2034 2.86875 18.1456 2.92652 18.0631C2.98346 17.9814 3.01152 17.8939 3.01152 17.8031C3.01152 17.6925 2.97026 17.6009 2.88855 17.5291C2.80685 17.4565 2.66985 17.421 2.47756 17.421H1.65558L1.47319 18.2933ZM6.40014 17.8221H4.75782C4.75617 17.8477 4.75535 17.8675 4.75535 17.8815C4.75535 18.0441 4.80156 18.1753 4.89399 18.2743C4.98642 18.3742 5.10031 18.4237 5.23318 18.4237C5.45271 18.4237 5.62354 18.3115 5.74651 18.0878L6.32999 18.186C6.21527 18.4204 6.06342 18.5962 5.87195 18.7134C5.68049 18.8314 5.46674 18.89 5.22906 18.89C4.90307 18.89 4.63815 18.7868 4.43431 18.5805C4.22964 18.3742 4.1273 18.101 4.1273 17.7602C4.1273 17.4284 4.21974 17.133 4.40377 16.873C4.65384 16.5223 5.01283 16.3473 5.47747 16.3473C5.77375 16.3473 6.00978 16.4397 6.18474 16.623C6.35887 16.8062 6.44635 17.0637 6.44635 17.3946C6.44635 17.553 6.43067 17.695 6.40014 17.8221ZM5.84885 17.4251C5.8505 17.3954 5.85132 17.374 5.85132 17.3583C5.85132 17.1775 5.81088 17.0414 5.73001 16.9506C5.64995 16.859 5.54184 16.8144 5.40567 16.8144C5.27032 16.8144 5.14901 16.8656 5.04172 16.9687C4.93443 17.0711 4.86263 17.2238 4.82467 17.4251H5.84885ZM7.10823 16.4084H7.72224L7.62981 16.8639C7.85511 16.5198 8.0994 16.3473 8.36349 16.3473C8.45674 16.3473 8.5566 16.3712 8.66306 16.4183L8.41135 16.9531C8.35193 16.9324 8.28839 16.9217 8.22154 16.9217C8.10847 16.9217 7.99458 16.9646 7.87822 17.0496C7.76103 17.1355 7.67025 17.2485 7.60505 17.3921C7.53903 17.5341 7.47466 17.7602 7.41028 18.0697L7.25431 18.8298H6.60151L7.10823 16.4084ZM8.37009 18.1563L9.00473 18.0548C9.06085 18.1893 9.131 18.2843 9.21353 18.3404C9.29688 18.3957 9.40995 18.4237 9.55355 18.4237C9.7021 18.4237 9.82094 18.3907 9.91007 18.323C9.97196 18.2768 10.0033 18.2199 10.0033 18.1547C10.0033 18.1093 9.98765 18.0697 9.95546 18.035C9.92245 18.0012 9.83167 17.9599 9.68477 17.9112C9.29111 17.7808 9.04847 17.6768 8.95439 17.6001C8.80666 17.4821 8.73404 17.3269 8.73404 17.1346C8.73404 16.9423 8.80584 16.7765 8.94779 16.6378C9.14586 16.4439 9.44048 16.3473 9.83084 16.3473C10.142 16.3473 10.3772 16.4051 10.5356 16.5198C10.6949 16.6337 10.7956 16.788 10.8377 16.9836L10.2361 17.0892C10.2047 17.0009 10.1527 16.9341 10.0826 16.8895C9.98517 16.8293 9.86963 16.8004 9.73346 16.8004C9.59729 16.8004 9.49908 16.8227 9.43883 16.8689C9.37941 16.9143 9.3497 16.9671 9.3497 17.0265C9.3497 17.0876 9.38024 17.1379 9.44048 17.1775C9.47845 17.2023 9.60059 17.2452 9.80526 17.3055C10.1238 17.3987 10.3359 17.4895 10.4432 17.5803C10.5951 17.7066 10.6702 17.8592 10.6702 18.0375C10.6702 18.2677 10.5736 18.4675 10.3805 18.6366C10.189 18.8058 9.9175 18.89 9.56675 18.89C9.21766 18.89 8.94861 18.8256 8.75797 18.6977C8.56733 18.569 8.43859 18.3891 8.37009 18.1563ZM11.9725 17.0851L11.3337 17.0306C11.4063 16.8169 11.5342 16.6494 11.7158 16.5289C11.8982 16.4084 12.1383 16.3473 12.4379 16.3473C12.7499 16.3473 12.981 16.4109 13.1295 16.5355C13.2789 16.6617 13.3532 16.8152 13.3532 16.996C13.3532 17.0694 13.3474 17.147 13.3342 17.2287C13.321 17.3112 13.2756 17.5275 13.198 17.8774C13.1336 18.1662 13.1014 18.3693 13.1014 18.4848C13.1014 18.5888 13.1204 18.7027 13.1567 18.8298H12.5188C12.4932 18.7415 12.4784 18.6499 12.4718 18.5558C12.376 18.6622 12.2654 18.7448 12.1416 18.8034C12.017 18.8611 11.8908 18.89 11.7653 18.89C11.5639 18.89 11.3989 18.824 11.2685 18.6919C11.1373 18.5599 11.0721 18.3907 11.0721 18.1827C11.0721 17.9508 11.1439 17.7651 11.2875 17.6265C11.4311 17.4879 11.6877 17.4037 12.0575 17.3748C12.3694 17.3484 12.5774 17.317 12.6822 17.2807C12.7094 17.1891 12.7235 17.1156 12.7235 17.0612C12.7235 16.991 12.6954 16.9324 12.6393 16.8846C12.5832 16.8375 12.499 16.8144 12.3876 16.8144C12.2712 16.8144 12.1788 16.8375 12.1111 16.8846C12.0434 16.9316 11.9964 16.9985 11.9725 17.0851ZM12.5955 17.6958C12.5559 17.7066 12.5039 17.7173 12.4379 17.7264C12.1103 17.766 11.8957 17.8246 11.795 17.9013C11.724 17.9574 11.6877 18.0317 11.6877 18.125C11.6877 18.2025 11.715 18.2677 11.7703 18.3214C11.8247 18.3742 11.8974 18.4006 11.9865 18.4006C12.0855 18.4006 12.1788 18.3759 12.2654 18.3272C12.3537 18.2793 12.4189 18.2166 12.4618 18.1407C12.5056 18.0647 12.5435 17.9451 12.5766 17.7841L12.5955 17.6958ZM14.1322 16.4084H14.7512L14.6951 16.6981C14.9352 16.4645 15.1878 16.3473 15.4519 16.3473C15.6351 16.3473 15.7754 16.3861 15.8744 16.4612C15.9743 16.5371 16.037 16.6419 16.0642 16.7756C16.1484 16.6543 16.2681 16.5528 16.4249 16.4703C16.5817 16.3886 16.7442 16.3473 16.9134 16.3473C17.1065 16.3473 17.2576 16.4001 17.3657 16.5058C17.4738 16.6106 17.5274 16.7492 17.5274 16.9225C17.5266 17.0059 17.5043 17.1495 17.4589 17.3542L17.1429 18.8298H16.4892L16.8037 17.3542C16.8425 17.1685 16.8631 17.0628 16.8647 17.0381C16.8647 16.9687 16.8449 16.9143 16.8037 16.8738C16.7632 16.8342 16.7013 16.8144 16.6205 16.8144C16.4562 16.8144 16.3093 16.9003 16.1798 17.0736C16.0857 17.1974 16.0056 17.4177 15.9396 17.7321L15.7102 18.8298H15.0574L15.3635 17.3624C15.3982 17.1932 15.4155 17.0843 15.4155 17.0331C15.4155 16.9696 15.3941 16.9168 15.3512 16.8755C15.3074 16.8342 15.248 16.8144 15.1713 16.8144C15.1003 16.8144 15.026 16.8359 14.9509 16.8788C14.8742 16.9217 14.8073 16.9795 14.7512 17.0554C14.6934 17.1297 14.6439 17.2262 14.6026 17.3434C14.5845 17.3987 14.5523 17.5233 14.5102 17.7173L14.2783 18.8298H13.6247L14.1322 16.4084ZM18.7158 17.0851L18.0763 17.0306C18.1497 16.8169 18.2768 16.6494 18.4592 16.5289C18.6407 16.4084 18.8809 16.3473 19.1813 16.3473C19.4933 16.3473 19.7243 16.4109 19.8729 16.5355C20.0223 16.6617 20.0965 16.8152 20.0965 16.996C20.0965 17.0694 20.0908 17.147 20.0776 17.2287C20.0644 17.3112 20.019 17.5275 19.9414 17.8774C19.8762 18.1662 19.8448 18.3693 19.8448 18.4848C19.8448 18.5888 19.863 18.7027 19.9001 18.8298H19.2614C19.2366 18.7415 19.2209 18.6499 19.2151 18.5558C19.1194 18.6622 19.0088 18.7448 18.8842 18.8034C18.7596 18.8611 18.6341 18.89 18.5079 18.89C18.3073 18.89 18.1415 18.824 18.0111 18.6919C17.8807 18.5599 17.8155 18.3907 17.8155 18.1827C17.8155 17.9508 17.8864 17.7651 18.0309 17.6265C18.1745 17.4879 18.4311 17.4037 18.8 17.3748C19.112 17.3484 19.3208 17.317 19.4256 17.2807C19.4528 17.1891 19.4669 17.1156 19.4669 17.0612C19.4669 16.991 19.4388 16.9324 19.3819 16.8846C19.3257 16.8375 19.2424 16.8144 19.131 16.8144C19.0146 16.8144 18.9213 16.8375 18.8537 16.8846C18.786 16.9316 18.7398 16.9985 18.7158 17.0851ZM19.3381 17.6958C19.2985 17.7066 19.2465 17.7173 19.1813 17.7264C18.8537 17.766 18.6383 17.8246 18.5384 17.9013C18.4666 17.9574 18.4311 18.0317 18.4311 18.125C18.4311 18.2025 18.4584 18.2677 18.5137 18.3214C18.5681 18.3742 18.6399 18.4006 18.7299 18.4006C18.8281 18.4006 18.9213 18.3759 19.0088 18.3272C19.0963 18.2793 19.1623 18.2166 19.2044 18.1407C19.2482 18.0647 19.2861 17.9451 19.32 17.7841L19.3381 17.6958ZM22.3743 18.8298H21.6877L22.3875 15.489H23.7427C23.9845 15.489 24.1751 15.5179 24.3146 15.5748C24.4557 15.6318 24.5671 15.7259 24.6488 15.8571C24.7305 15.9883 24.771 16.1451 24.771 16.3275C24.771 16.4959 24.7388 16.6601 24.6736 16.8194C24.6084 16.9795 24.5283 17.1074 24.4334 17.2031C24.3385 17.2989 24.2362 17.3707 24.1264 17.421C24.0183 17.4697 23.8706 17.5068 23.6849 17.5332C23.5776 17.5481 23.3754 17.5555 23.08 17.5555H22.6409L22.3743 18.8298ZM22.7573 16.996H22.9694C23.3317 16.996 23.5735 16.9737 23.6948 16.9283C23.8161 16.8829 23.911 16.8111 23.9812 16.7113C24.0505 16.6122 24.086 16.5025 24.086 16.3836C24.086 16.3036 24.0678 16.2384 24.0323 16.1864C23.996 16.1352 23.9465 16.0981 23.8821 16.075C23.8169 16.051 23.6733 16.0395 23.4505 16.0395H22.9578L22.7573 16.996ZM25.7184 17.0851L25.0796 17.0306C25.1522 16.8169 25.2802 16.6494 25.4617 16.5289C25.6441 16.4084 25.8843 16.3473 26.1847 16.3473C26.4958 16.3473 26.7269 16.4109 26.8754 16.5355C27.0248 16.6617 27.0991 16.8152 27.0991 16.996C27.0991 17.0694 27.0933 17.147 27.0801 17.2287C27.0669 17.3112 27.0215 17.5275 26.9439 17.8774C26.8796 18.1662 26.8474 18.3693 26.8474 18.4848C26.8474 18.5888 26.8664 18.7027 26.9027 18.8298H26.2647C26.2391 18.7415 26.2235 18.6499 26.2177 18.5558C26.1219 18.6622 26.0114 18.7448 25.8876 18.8034C25.7629 18.8611 25.6367 18.89 25.5112 18.89C25.3107 18.89 25.1448 18.824 25.0136 18.6919C24.8832 18.5599 24.818 18.3907 24.818 18.1827C24.818 17.9508 24.8898 17.7651 25.0334 17.6265C25.177 17.4879 25.4337 17.4037 25.8034 17.3748C26.1153 17.3484 26.3233 17.317 26.4281 17.2807C26.4554 17.1891 26.4694 17.1156 26.4694 17.0612C26.4694 16.991 26.4413 16.9324 26.3852 16.8846C26.3291 16.8375 26.2449 16.8144 26.1335 16.8144C26.0171 16.8144 25.9247 16.8375 25.857 16.8846C25.7894 16.9316 25.7423 16.9985 25.7184 17.0851ZM26.3415 17.6958C26.3019 17.7066 26.2499 17.7173 26.1847 17.7264C25.8562 17.766 25.6416 17.8246 25.5409 17.9013C25.47 17.9574 25.4337 18.0317 25.4337 18.125C25.4337 18.2025 25.4609 18.2677 25.5162 18.3214C25.5707 18.3742 25.6433 18.4006 25.7324 18.4006C25.8314 18.4006 25.9247 18.3759 26.0114 18.3272C26.0997 18.2793 26.1649 18.2166 26.2078 18.1407C26.2507 18.0647 26.2895 17.9451 26.3225 17.7841L26.3415 17.6958ZM27.8699 16.4084H28.4897L28.441 16.6551C28.573 16.5454 28.6977 16.4662 28.8132 16.4183C28.9279 16.3712 29.0525 16.3473 29.1846 16.3473C29.4388 16.3473 29.6434 16.4356 29.7986 16.6106C29.9529 16.7864 30.0297 17.0472 30.0297 17.3946C30.0297 17.832 29.896 18.2017 29.6286 18.5038C29.4 18.7613 29.1285 18.89 28.8157 18.89C28.493 18.89 28.2495 18.7613 28.0845 18.503L27.827 19.7533H27.175L27.8699 16.4084ZM28.2619 17.7973C28.2619 17.988 28.3081 18.1365 28.4014 18.2422C28.4946 18.3478 28.6036 18.4006 28.729 18.4006C28.838 18.4006 28.9428 18.361 29.0443 18.2818C29.145 18.2025 29.2291 18.0722 29.2952 17.8889C29.362 17.7057 29.3958 17.5357 29.3958 17.3797C29.3958 17.1974 29.3521 17.0579 29.2638 16.9605C29.1771 16.8631 29.0657 16.8144 28.9312 16.8144C28.8058 16.8144 28.6911 16.8582 28.5879 16.9481C28.4839 17.0372 28.4039 17.1685 28.3477 17.3418C28.2908 17.5159 28.2619 17.6669 28.2619 17.7973ZM30.7691 16.4084H31.4227L31.0992 17.8452C31.0596 18.0177 31.0398 18.125 31.0398 18.1679C31.0398 18.238 31.0637 18.2975 31.11 18.3486C31.157 18.399 31.2164 18.4237 31.2899 18.4237C31.3419 18.4237 31.393 18.4122 31.4442 18.3899C31.4954 18.3668 31.5474 18.3321 31.601 18.2851C31.6546 18.2389 31.7025 18.186 31.7454 18.1258C31.7883 18.0664 31.828 17.9871 31.8651 17.8898C31.8907 17.8171 31.9212 17.7082 31.9542 17.5638L32.215 16.4084H32.8686L32.3182 18.8298H31.7091L31.7735 18.5186C31.5276 18.7662 31.2602 18.89 30.9705 18.89C30.7873 18.89 30.6429 18.8331 30.5389 18.7184C30.4332 18.6045 30.3804 18.4501 30.3804 18.2578C30.3804 18.1745 30.4085 18.0078 30.4646 17.7585L30.7691 16.4084ZM34.0125 17.0851L33.3737 17.0306C33.4463 16.8169 33.5743 16.6494 33.7558 16.5289C33.9382 16.4084 34.1784 16.3473 34.4788 16.3473C34.7907 16.3473 35.021 16.4109 35.1695 16.5355C35.3189 16.6617 35.394 16.8152 35.394 16.996C35.394 17.0694 35.3874 17.147 35.3742 17.2287C35.361 17.3112 35.3156 17.5275 35.238 17.8774C35.1737 18.1662 35.1415 18.3693 35.1415 18.4848C35.1415 18.5888 35.1605 18.7027 35.1968 18.8298H34.5588C34.5341 18.7415 34.5184 18.6499 34.5118 18.5558C34.416 18.6622 34.3063 18.7448 34.1817 18.8034C34.0571 18.8611 33.9308 18.89 33.8053 18.89C33.6048 18.89 33.4389 18.824 33.3085 18.6919C33.1773 18.5599 33.1121 18.3907 33.1121 18.1827C33.1121 17.9508 33.1839 17.7651 33.3275 17.6265C33.4719 17.4879 33.7286 17.4037 34.0975 17.3748C34.4094 17.3484 34.6174 17.317 34.7231 17.2807C34.7503 17.1891 34.7643 17.1156 34.7643 17.0612C34.7643 16.991 34.7363 16.9324 34.6793 16.8846C34.6232 16.8375 34.539 16.8144 34.4284 16.8144C34.3112 16.8144 34.2188 16.8375 34.1511 16.8846C34.0835 16.9316 34.0372 16.9985 34.0125 17.0851ZM34.6356 17.6958C34.596 17.7066 34.544 17.7173 34.4788 17.7264C34.1503 17.766 33.9357 17.8246 33.835 17.9013C33.7641 17.9574 33.7286 18.0317 33.7286 18.125C33.7286 18.2025 33.755 18.2677 33.8103 18.3214C33.8648 18.3742 33.9374 18.4006 34.0265 18.4006C34.1255 18.4006 34.2188 18.3759 34.3063 18.3272C34.3938 18.2793 34.459 18.2166 34.5019 18.1407C34.5456 18.0647 34.5836 17.9451 34.6166 17.7841L34.6356 17.6958ZM38.9114 18.8298H38.2586L38.1348 16.0387L37.6049 18.8298H36.9852L37.6842 15.489H38.6646L38.7669 17.785L39.8175 15.489H40.8054L40.1972 18.8298H39.5741L40.1551 16.0585L38.9114 18.8298ZM43.2235 17.8221H41.5803C41.5787 17.8477 41.5779 17.8675 41.5779 17.8815C41.5779 18.0441 41.6241 18.1753 41.7173 18.2743C41.8098 18.3742 41.9228 18.4237 42.0557 18.4237C42.2752 18.4237 42.4461 18.3115 42.569 18.0878L43.1525 18.186C43.0378 18.4204 42.8859 18.5962 42.6945 18.7134C42.503 18.8314 42.2893 18.89 42.0516 18.89C41.7256 18.89 41.4607 18.7868 41.2568 18.5805C41.0522 18.3742 40.9506 18.101 40.9506 17.7602C40.9506 17.4284 41.0423 17.133 41.2263 16.873C41.4764 16.5223 41.8354 16.3473 42.3 16.3473C42.5963 16.3473 42.8323 16.4397 43.0073 16.623C43.1822 16.8062 43.2689 17.0637 43.2689 17.3946C43.2689 17.553 43.2532 17.695 43.2235 17.8221ZM42.6722 17.4251C42.673 17.3954 42.6738 17.374 42.6738 17.3583C42.6738 17.1775 42.6334 17.0414 42.5525 16.9506C42.4725 16.859 42.3644 16.8144 42.2282 16.8144C42.0928 16.8144 41.9724 16.8656 41.8651 16.9687C41.757 17.0711 41.6852 17.2238 41.6472 17.4251H42.6722ZM43.9497 16.4084H44.5679L44.5126 16.6981C44.7527 16.4645 45.0053 16.3473 45.2694 16.3473C45.4526 16.3473 45.5929 16.3861 45.6919 16.4612C45.7918 16.5371 45.8545 16.6419 45.8817 16.7756C45.9659 16.6543 46.0856 16.5528 46.2424 16.4703C46.3992 16.3886 46.5618 16.3473 46.7309 16.3473C46.9241 16.3473 47.0751 16.4001 47.1832 16.5058C47.2913 16.6106 47.3449 16.7492 47.3449 16.9225C47.3441 17.0059 47.3218 17.1495 47.2764 17.3542L46.9604 18.8298H46.3067L46.6212 17.3542C46.66 17.1685 46.6806 17.0628 46.6822 17.0381C46.6822 16.9687 46.6624 16.9143 46.6212 16.8738C46.5807 16.8342 46.5188 16.8144 46.438 16.8144C46.2737 16.8144 46.1268 16.9003 45.9973 17.0736C45.9032 17.1974 45.8231 17.4177 45.7571 17.7321L45.5277 18.8298H44.8749L45.181 17.3624C45.2157 17.1932 45.233 17.0843 45.233 17.0331C45.233 16.9696 45.2116 16.9168 45.1687 16.8755C45.1249 16.8342 45.0655 16.8144 44.9888 16.8144C44.9178 16.8144 44.8435 16.8359 44.7684 16.8788C44.6917 16.9217 44.6248 16.9795 44.5679 17.0554C44.5109 17.1297 44.4614 17.2262 44.4201 17.3434C44.402 17.3987 44.3698 17.5233 44.3269 17.7173L44.0958 18.8298H43.4422L43.9497 16.4084ZM47.5909 18.8298L48.2907 15.489H48.9427L48.7042 16.5998C48.8247 16.5082 48.9377 16.4439 49.0417 16.4051C49.1465 16.3671 49.2613 16.3473 49.3842 16.3473C49.6401 16.3473 49.8456 16.4331 50.0007 16.6048C50.1542 16.7756 50.231 17.0257 50.231 17.3542C50.231 17.5745 50.1946 17.7891 50.1229 17.9979C50.0502 18.205 49.9537 18.375 49.8324 18.5054C49.711 18.635 49.5839 18.7324 49.4502 18.7951C49.3174 18.8586 49.1779 18.89 49.0318 18.89C48.6836 18.89 48.4285 18.739 48.2668 18.4386L48.1818 18.8298H47.5909ZM48.4682 17.846C48.4682 18.0103 48.5135 18.144 48.606 18.2463C48.6984 18.3494 48.8074 18.4006 48.9328 18.4006C49.0426 18.4006 49.1474 18.361 49.2481 18.2809C49.3471 18.2017 49.4304 18.0738 49.4973 17.8988C49.5633 17.7247 49.5971 17.5481 49.5971 17.3698C49.5971 17.1974 49.5526 17.0612 49.4626 16.963C49.3735 16.8639 49.2654 16.8144 49.1391 16.8144C48.9741 16.8144 48.8313 16.8912 48.7124 17.0447C48.5499 17.2543 48.4682 17.5217 48.4682 17.846ZM51.3831 17.0851L50.7435 17.0306C50.8169 16.8169 50.944 16.6494 51.1264 16.5289C51.308 16.4084 51.5481 16.3473 51.8485 16.3473C52.1605 16.3473 52.3916 16.4109 52.5401 16.5355C52.6895 16.6617 52.7638 16.8152 52.7638 16.996C52.7638 17.0694 52.758 17.147 52.7448 17.2287C52.7316 17.3112 52.6862 17.5275 52.6086 17.8774C52.5442 18.1662 52.512 18.3693 52.512 18.4848C52.512 18.5888 52.5302 18.7027 52.5673 18.8298H51.9286C51.9038 18.7415 51.8881 18.6499 51.8824 18.5558C51.7866 18.6622 51.676 18.7448 51.5514 18.8034C51.4268 18.8611 51.3014 18.89 51.1751 18.89C50.9745 18.89 50.8087 18.824 50.6783 18.6919C50.5479 18.5599 50.4827 18.3907 50.4827 18.1827C50.4827 17.9508 50.5545 17.7651 50.6981 17.6265C50.8417 17.4879 51.0983 17.4037 51.4672 17.3748C51.7792 17.3484 51.988 17.317 52.0928 17.2807C52.12 17.1891 52.1341 17.1156 52.1341 17.0612C52.1341 16.991 52.106 16.9324 52.0491 16.8846C51.9929 16.8375 51.9096 16.8144 51.7982 16.8144C51.6818 16.8144 51.5886 16.8375 51.5209 16.8846C51.454 16.9316 51.407 16.9985 51.3831 17.0851ZM52.0053 17.6958C51.9657 17.7066 51.9137 17.7173 51.8485 17.7264C51.5209 17.766 51.3055 17.8246 51.2056 17.9013C51.1338 17.9574 51.0983 18.0317 51.0983 18.125C51.0983 18.2025 51.1256 18.2677 51.1809 18.3214C51.2353 18.3742 51.3071 18.4006 51.3971 18.4006C51.4953 18.4006 51.5886 18.3759 51.676 18.3272C51.7635 18.2793 51.8295 18.2166 51.8716 18.1407C51.9154 18.0647 51.9533 17.9451 51.9872 17.7841L52.0053 17.6958ZM53.5701 16.4084H54.1948L54.1313 16.7261C54.2872 16.5891 54.4333 16.4926 54.5687 16.4348C54.704 16.3762 54.846 16.3473 54.9962 16.3473C55.1959 16.3473 55.3543 16.4051 55.4699 16.5206C55.5846 16.637 55.6423 16.7897 55.6423 16.9811C55.6415 17.0661 55.6135 17.2262 55.5582 17.4614L55.2652 18.8298H54.6124L54.9095 17.4581C54.9516 17.2526 54.9747 17.1305 54.9772 17.0901C54.9772 17.0034 54.9516 16.9374 54.9021 16.8879C54.8517 16.8392 54.7824 16.8144 54.6941 16.8144C54.5967 16.8144 54.4894 16.8549 54.3714 16.9357C54.2526 17.0166 54.1601 17.1239 54.0925 17.2568C54.0421 17.3509 53.9852 17.544 53.9216 17.8361L53.7161 18.8298H53.0633L53.5701 16.4084ZM55.8701 18.9602L56.5617 19.0608C56.5617 19.1302 56.5733 19.183 56.5956 19.2185C56.6178 19.254 56.655 19.2845 56.7053 19.3101C56.7557 19.3348 56.825 19.3472 56.9125 19.3472C57.0594 19.3472 57.1774 19.32 57.2657 19.2647C57.3317 19.2226 57.3862 19.1541 57.4283 19.0592C57.4538 18.9998 57.4877 18.8702 57.5281 18.6705L57.5512 18.5566C57.3135 18.7448 57.0668 18.8388 56.8126 18.8388C56.5757 18.8388 56.381 18.7547 56.2291 18.588C56.0781 18.4204 56.0014 18.1753 56.0014 17.8518C56.0014 17.5679 56.0533 17.3063 56.1565 17.0694C56.2597 16.8318 56.4049 16.6527 56.5923 16.5305C56.7796 16.4084 56.9702 16.3473 57.165 16.3473C57.3251 16.3473 57.472 16.3902 57.6057 16.4761C57.7386 16.5619 57.8417 16.6815 57.9168 16.8367L58.0018 16.4084H58.6167L58.2313 18.432C58.1611 18.7547 58.1017 18.9849 58.0538 19.1236C58.0051 19.2614 57.9507 19.3711 57.8879 19.452C57.8269 19.5346 57.7477 19.6031 57.6536 19.6583C57.5587 19.7136 57.4473 19.7533 57.3177 19.7772C57.1889 19.8019 57.0495 19.8143 56.8993 19.8143C56.5576 19.8143 56.2993 19.7557 56.1251 19.6394C55.951 19.5214 55.8635 19.3274 55.8635 19.0559C55.8635 19.027 55.8652 18.9956 55.8701 18.9602ZM56.6409 17.7858C56.6409 17.9715 56.6822 18.1118 56.7647 18.2083C56.8473 18.3057 56.9504 18.3536 57.075 18.3536C57.1914 18.3536 57.3045 18.3098 57.4134 18.2232C57.5232 18.1357 57.6074 18.0127 57.6659 17.8526C57.7237 17.6925 57.7534 17.5382 57.7534 17.388C57.7534 17.2163 57.7056 17.0769 57.6107 16.972C57.5149 16.8672 57.4043 16.8144 57.2789 16.8144C57.1617 16.8144 57.0544 16.8606 56.9562 16.9531C56.8588 17.0463 56.7779 17.1899 56.7136 17.3839C56.6649 17.5332 56.6409 17.6669 56.6409 17.7858ZM59.2827 16.4084H59.9371L59.6136 17.8452C59.574 18.0177 59.5542 18.125 59.5542 18.1679C59.5542 18.238 59.5773 18.2975 59.6243 18.3486C59.6706 18.399 59.7308 18.4237 59.8043 18.4237C59.8562 18.4237 59.9074 18.4122 59.9586 18.3899C60.0089 18.3668 60.0617 18.3321 60.1154 18.2851C60.1682 18.2389 60.2169 18.186 60.2598 18.1258C60.3027 18.0664 60.3423 17.9871 60.3795 17.8898C60.4051 17.8171 60.4356 17.7082 60.4686 17.5638L60.7294 16.4084H61.3822L60.8326 18.8298H60.2227L60.2879 18.5186C60.0419 18.7662 59.7746 18.89 59.4841 18.89C59.3017 18.89 59.1572 18.8331 59.0524 18.7184C58.9476 18.6045 58.8948 18.4501 58.8948 18.2578C58.8948 18.1745 58.9229 18.0078 58.979 17.7585L59.2827 16.4084ZM62.1192 16.4084H62.7439L62.6812 16.7261C62.8364 16.5891 62.9824 16.4926 63.1178 16.4348C63.2531 16.3762 63.3959 16.3473 63.5453 16.3473C63.745 16.3473 63.9034 16.4051 64.019 16.5206C64.1345 16.637 64.1915 16.7897 64.1915 16.9811C64.1906 17.0661 64.1634 17.2262 64.1081 17.4614L63.8143 18.8298H63.1615L63.4586 17.4581C63.5015 17.2526 63.5238 17.1305 63.5263 17.0901C63.5263 17.0034 63.5015 16.9374 63.4512 16.8879C63.4008 16.8392 63.3315 16.8144 63.2432 16.8144C63.1458 16.8144 63.0385 16.8549 62.9205 16.9357C62.8025 17.0166 62.7101 17.1239 62.6424 17.2568C62.5912 17.3509 62.5351 17.544 62.4707 17.8361L62.2653 18.8298H61.6125L62.1192 16.4084ZM68.4219 18.8298H67.7831L66.8802 16.5858L66.4107 18.8298H65.7727L66.4726 15.489H67.1105L68.0158 17.7239L68.4829 15.489H69.1217L68.4219 18.8298ZM71.4754 17.8221H69.8323C69.8306 17.8477 69.8298 17.8675 69.8298 17.8815C69.8298 18.0441 69.8768 18.1753 69.9693 18.2743C70.0617 18.3742 70.1748 18.4237 70.3085 18.4237C70.5272 18.4237 70.6988 18.3115 70.821 18.0878L71.4044 18.186C71.2906 18.4204 71.1379 18.5962 70.9464 18.7134C70.755 18.8314 70.5412 18.89 70.3035 18.89C69.9775 18.89 69.7126 18.7868 69.5088 18.5805C69.3041 18.3742 69.2026 18.101 69.2026 17.7602C69.2026 17.4284 69.2942 17.133 69.4782 16.873C69.7291 16.5223 70.0873 16.3473 70.5519 16.3473C70.8482 16.3473 71.0842 16.4397 71.2592 16.623C71.4342 16.8062 71.5208 17.0637 71.5208 17.3946C71.5208 17.553 71.506 17.695 71.4754 17.8221ZM70.9241 17.4251C70.9258 17.3954 70.9266 17.374 70.9266 17.3583C70.9266 17.1775 70.8862 17.0414 70.8053 16.9506C70.7252 16.859 70.6171 16.8144 70.481 16.8144C70.3456 16.8144 70.2243 16.8656 70.117 16.9687C70.0097 17.0711 69.9371 17.2238 69.8991 17.4251H70.9241ZM71.6801 18.9602L72.3709 19.0608C72.3709 19.1302 72.3824 19.183 72.4055 19.2185C72.4278 19.254 72.4641 19.2845 72.5153 19.3101C72.5656 19.3348 72.6349 19.3472 72.7216 19.3472C72.8685 19.3472 72.9865 19.32 73.0756 19.2647C73.1417 19.2226 73.1961 19.1541 73.2382 19.0592C73.2638 18.9998 73.2968 18.8702 73.3373 18.6705L73.3612 18.5566C73.1227 18.7448 72.8768 18.8388 72.6226 18.8388C72.3849 18.8388 72.1909 18.7547 72.0391 18.588C71.8872 18.4204 71.8113 18.1753 71.8113 17.8518C71.8113 17.5679 71.8625 17.3063 71.9656 17.0694C72.0696 16.8318 72.2149 16.6527 72.4022 16.5305C72.5887 16.4084 72.7802 16.3473 72.9741 16.3473C73.1342 16.3473 73.2811 16.3902 73.4157 16.4761C73.5485 16.5619 73.6517 16.6815 73.726 16.8367L73.811 16.4084H74.4258L74.0404 18.432C73.9703 18.7547 73.9117 18.9849 73.863 19.1236C73.8151 19.2614 73.7598 19.3711 73.6979 19.452C73.636 19.5346 73.5576 19.6031 73.4627 19.6583C73.3678 19.7136 73.2564 19.7533 73.1276 19.7772C72.9989 19.8019 72.8594 19.8143 72.7084 19.8143C72.3667 19.8143 72.1092 19.7557 71.9351 19.6394C71.761 19.5214 71.6727 19.3274 71.6727 19.0559C71.6727 19.027 71.6751 18.9956 71.6801 18.9602ZM72.4501 17.7858C72.4501 17.9715 72.4913 18.1118 72.5739 18.2083C72.6564 18.3057 72.7596 18.3536 72.8842 18.3536C73.0005 18.3536 73.1136 18.3098 73.2234 18.2232C73.3331 18.1357 73.4165 18.0127 73.4751 17.8526C73.5337 17.6925 73.5634 17.5382 73.5634 17.388C73.5634 17.2163 73.5147 17.0769 73.4198 16.972C73.3241 16.8672 73.2135 16.8144 73.0889 16.8144C72.9717 16.8144 72.8644 16.8606 72.7662 16.9531C72.668 17.0463 72.5871 17.1899 72.5235 17.3839C72.4748 17.5332 72.4501 17.6669 72.4501 17.7858ZM76.9198 17.8221H75.2767C75.275 17.8477 75.2742 17.8675 75.2742 17.8815C75.2742 18.0441 75.3212 18.1753 75.4137 18.2743C75.5061 18.3742 75.62 18.4237 75.7529 18.4237C75.9716 18.4237 76.1432 18.3115 76.2662 18.0878L76.8488 18.186C76.735 18.4204 76.5823 18.5962 76.3908 18.7134C76.2002 18.8314 75.9856 18.89 75.7479 18.89C75.4219 18.89 75.157 18.7868 74.9532 18.5805C74.7485 18.3742 74.647 18.101 74.647 17.7602C74.647 17.4284 74.7386 17.133 74.9226 16.873C75.1735 16.5223 75.5317 16.3473 75.9972 16.3473C76.2926 16.3473 76.5286 16.4397 76.7036 16.623C76.8786 16.8062 76.966 17.0637 76.966 17.3946C76.966 17.553 76.9504 17.695 76.9198 17.8221ZM76.3685 17.4251C76.3702 17.3954 76.371 17.374 76.371 17.3583C76.371 17.1775 76.3306 17.0414 76.2497 16.9506C76.1696 16.859 76.0615 16.8144 75.9254 16.8144C75.79 16.8144 75.6687 16.8656 75.5614 16.9687C75.4541 17.0711 75.3815 17.2238 75.3435 17.4251H76.3685ZM77.6271 16.4084H78.2419L78.1495 16.8639C78.3748 16.5198 78.6191 16.3473 78.8823 16.3473C78.9756 16.3473 79.0763 16.3712 79.1827 16.4183L78.9302 16.9531C78.8716 16.9324 78.8081 16.9217 78.7404 16.9217C78.6282 16.9217 78.5134 16.9646 78.3971 17.0496C78.2807 17.1355 78.1899 17.2485 78.1239 17.3921C78.0579 17.5341 77.9935 17.7602 77.93 18.0697L77.774 18.8298H77.1204L77.6271 16.4084ZM79.673 15.489H80.3258L80.202 16.0816H79.5484L79.673 15.489ZM79.4807 16.4084H80.1335L79.6267 18.8298H78.9731L79.4807 16.4084Z" fill="#115588"/>
</g>
</g>
<defs>
<clipPath id="clip0_801_8491">
<rect width="80" height="19.8142" fill="white" transform="translate(0.5)"/>
</clipPath>
<clipPath id="clip1_801_8491">
<rect width="80" height="19.8142" fill="white" transform="translate(0.5)"/>
</clipPath>
</defs>
</svg>
