<svg width="81" height="17" viewBox="0 0 81 17" fill="none" xmlns="http://www.w3.org/2000/svg">
<g clip-path="url(#clip0_801_8472)">
<path d="M31.4065 12.7986H32.0865V9.96982L34.8084 12.7986H35.7472L32.7345 9.73183L35.4232 7.29159H34.5482L32.0865 9.54796V4.69939H31.4065V12.7986ZM25.9689 12.7986H26.6488V9.75403C26.6488 9.50841 26.6807 9.26765 26.7363 9.02966C26.789 8.8 26.884 8.59185 27.0062 8.39271C27.2587 7.97988 27.675 7.74883 28.2801 7.74536C28.7477 7.74189 29.0946 7.89801 29.2951 8.19844C29.4977 8.50234 29.5873 8.92489 29.5873 9.45152V12.7986H30.2672V9.27806C30.2672 8.65915 30.1298 8.15265 29.8454 7.76618C29.5533 7.3686 29.0648 7.1667 28.3883 7.16184C28.1073 7.15976 27.8665 7.19445 27.6646 7.25898C27.4634 7.3235 27.2934 7.4144 27.1574 7.52888C27.0277 7.63712 26.9194 7.75577 26.8334 7.88552C26.7467 8.01526 26.671 8.14432 26.6065 8.27337H26.5843V7.29159H25.9258C25.9543 7.73009 25.9689 8.16236 25.9689 8.58699V12.7986ZM24.1794 10.3584C24.1794 10.502 24.1718 10.6859 24.1579 10.9086C24.1434 11.1244 24.0823 11.345 23.9741 11.567C23.8735 11.7759 23.7111 11.9556 23.4877 12.1082C23.2573 12.2657 22.9444 12.3448 22.5489 12.3448C22.2318 12.3448 21.9696 12.2602 21.7496 12.1082C21.5234 11.9507 21.4041 11.7044 21.4041 11.352C21.4041 11.0487 21.4908 10.8121 21.6525 10.6283C21.8072 10.4513 22.007 10.3181 22.2575 10.2286C22.5101 10.1384 22.7897 10.067 23.0998 10.0448C23.394 10.0239 23.6896 10.0239 23.9852 10.0239H24.1794V10.3584ZM24.244 12.7986H24.9135C24.8705 12.4461 24.8594 12.0611 24.8594 11.6434V9.21353C24.8594 7.8314 24.2301 7.14102 22.9264 7.16184C22.3574 7.17016 21.8183 7.30199 21.3069 7.53998V8.19844C21.8183 7.88899 22.3574 7.74258 22.9264 7.74536C23.7833 7.74952 24.1794 8.21648 24.1794 9.15941V9.44042H24.0497C23.6903 9.44042 23.3149 9.44389 22.9264 9.47233C22.5302 9.50147 22.1645 9.59167 21.8245 9.71032C21.488 9.82827 21.2119 10.0177 20.994 10.2827C20.7727 10.5506 20.6679 10.9128 20.6589 11.3735C20.6533 11.6545 20.7415 11.982 20.9829 12.3344C21.1023 12.5079 21.3014 12.6321 21.5449 12.7445C21.7836 12.8555 22.0917 12.9284 22.4733 12.9284C22.8334 12.9284 23.1755 12.8312 23.4988 12.6585C23.8235 12.4857 24.0636 12.2366 24.2225 11.9133H24.244V12.7986ZM19.274 10.0448C19.274 10.3042 19.2559 10.5665 19.2199 10.833C19.1699 11.107 19.0797 11.3589 18.9507 11.5892C18.8348 11.805 18.6696 11.9813 18.4532 12.1186C18.2374 12.2692 17.9675 12.3448 17.6435 12.3448C17.3409 12.3448 17.0891 12.2692 16.8879 12.1186C16.679 11.9813 16.5097 11.7981 16.3793 11.567C16.1281 11.0779 16.0053 10.5707 16.0129 10.0448C16.0053 9.50494 16.1246 8.99358 16.3696 8.51136C16.4986 8.28101 16.6679 8.09367 16.8768 7.95004C17.0849 7.81336 17.3409 7.74536 17.6435 7.74536C17.9675 7.74536 18.2374 7.81336 18.4532 7.95004C18.6696 8.07979 18.8348 8.2595 18.9507 8.48985C19.0797 8.70564 19.1699 8.95056 19.2199 9.22394C19.2559 9.49731 19.274 9.77138 19.274 10.0448ZM15.3323 12.7986H16.0129V11.9237H16.0344C16.3945 12.6009 16.967 12.936 17.751 12.9284C18.5073 12.9138 19.0762 12.6369 19.4579 12.0971C19.8318 11.5566 20.0192 10.8725 20.0192 10.0448C20.0192 9.18855 19.8464 8.49679 19.5009 7.97155C19.1408 7.43868 18.5579 7.16878 17.751 7.16184C17.4853 7.16184 17.2507 7.20139 17.0495 7.28049C16.8476 7.35958 16.6748 7.46019 16.5312 7.583C16.3945 7.69055 16.2863 7.80295 16.2079 7.91813C16.1205 8.04024 16.0629 8.14085 16.0344 8.21995H16.0129V4.69939H15.3323V12.7986Z" fill="#1C1C1A"/>
<path d="M79.0096 6.02741H80.5V4.60364H79.0096V6.02741ZM79.0096 12.7986H80.5V7.07233H79.0096V12.7986ZM74.8736 12.7986H76.3633V10.697C76.3633 10.4742 76.3703 10.2335 76.3855 9.97467C76.4001 9.70755 76.4431 9.45499 76.5187 9.21839C76.5985 8.96583 76.7241 8.76461 76.8858 8.60711C77.0502 8.44545 77.2785 8.36219 77.5755 8.36219C77.8648 8.36219 78.0868 8.40312 78.2422 8.4843V6.98352C78.0868 6.95369 77.9349 6.93565 77.7864 6.93912C77.3416 6.94952 76.9864 7.12784 76.7075 7.45048C76.4306 7.77242 76.2627 8.07702 76.2183 8.37329H76.1961V7.07233H74.8736V12.7986ZM70.8986 8.09506C71.1428 8.0902 71.3475 8.15056 71.5113 8.26227C71.6729 8.37329 71.8069 8.5183 71.8887 8.70633C72.058 9.09627 72.1337 9.50356 72.1337 9.91847C72.1337 10.1114 72.1246 10.3167 72.0892 10.5304C72.0518 10.7462 71.9741 10.9495 71.8776 11.1417C71.7881 11.32 71.6618 11.4678 71.4995 11.5865C71.3281 11.7127 71.1213 11.7759 70.8771 11.7759C70.6315 11.7759 70.4296 11.71 70.2651 11.5865C70.1042 11.4657 69.964 11.3214 69.8648 11.1417C69.6532 10.7587 69.5609 10.3487 69.565 9.91847C69.5678 9.48899 69.6719 9.08656 69.8759 8.70633C70.0868 8.3157 70.424 8.10477 70.8986 8.09506ZM68.0636 15.1341H69.5533V12.1422H69.5761C69.8426 12.4461 70.1146 12.6529 70.3873 12.7653C70.6551 12.8749 70.9444 12.936 71.2546 12.9318C72.1441 12.9207 72.7803 12.6106 73.1564 12.009C73.5213 11.4248 73.6892 10.7268 73.6892 9.91847C73.6892 9.10321 73.5248 8.40312 73.1564 7.82862C72.7838 7.24649 72.1552 6.93565 71.2886 6.93912C70.4206 6.94189 69.828 7.27563 69.5089 7.88413H69.4866V7.07233H68.0636V15.1341ZM66.4185 11.2645C66.1437 11.4269 65.8488 11.5559 65.5401 11.6649C65.2188 11.7773 64.8795 11.8425 64.5167 11.8425C64.0573 11.8425 63.6827 11.7086 63.3822 11.4533C63.0894 11.2042 62.9194 10.8559 62.8827 10.3972H66.841C66.848 9.37381 66.671 8.53842 66.2846 7.90564C65.8918 7.26383 65.1619 6.93495 64.117 6.93912C63.2344 6.94189 62.569 7.2451 62.1264 7.81752C61.6795 8.3941 61.4526 9.11084 61.4589 9.96288C61.4742 11.9126 62.4781 12.911 64.45 12.9318C65.2355 12.9402 65.8918 12.7799 66.4185 12.476V11.2645ZM62.8827 9.37381C62.9118 8.98109 63.0367 8.65707 63.2601 8.40659C63.4808 8.16028 63.7978 8.02845 64.2058 8.02845C64.6207 8.02845 64.9253 8.1686 65.1168 8.42879C65.3028 8.68066 65.4027 8.99566 65.4173 9.37381H62.8827ZM56.0546 12.7986H57.5449V10.0191H57.5678L59.4801 12.7986H61.3694L58.9687 9.62914L61.103 7.07233H59.3461L57.5678 9.36271H57.5449V4.45863H56.0546V12.7986ZM54.6093 7.07233H53.1189V9.87476C53.1189 10.0593 53.1043 10.2598 53.0752 10.4742C53.0454 10.6893 52.9725 10.8905 52.8747 11.0869C52.7796 11.2763 52.6533 11.4352 52.4861 11.5643C52.305 11.7023 52.0823 11.7759 51.8075 11.7759C51.5772 11.7759 51.3961 11.7197 51.2629 11.6087C51.1373 11.5053 51.0325 11.3748 50.9735 11.2083C50.9139 11.0404 50.8882 10.8559 50.8736 10.6637C50.866 10.5672 50.8688 10.4742 50.8625 10.3847C50.8549 10.2966 50.8403 10.2113 50.8403 10.1301V7.07233H49.35V10.6866C49.35 11.3381 49.5158 11.8675 49.8287 12.2879C50.1389 12.7043 50.6211 12.936 51.2962 12.9318C52.0823 12.9284 52.7082 12.6134 53.1751 12.0201H53.1973V12.7986H54.6093V7.07233ZM44.4792 11.1417C44.4792 10.9197 44.5437 10.7448 44.6575 10.6082C44.7657 10.4784 44.899 10.3743 45.0696 10.3084C45.2396 10.2411 45.4214 10.2002 45.6143 10.1745C45.7038 10.1627 45.7919 10.1523 45.8807 10.1523H46.7814C46.789 10.6047 46.6925 11.0023 46.4705 11.3311C46.2409 11.6697 45.8849 11.8376 45.4249 11.8425C45.1508 11.8453 44.9323 11.7773 44.7581 11.6649C44.5763 11.5476 44.4792 11.379 44.4792 11.1417ZM43.7236 8.65152C44.2495 8.24354 44.8393 8.0333 45.4915 8.02845C45.9363 8.02567 46.2651 8.11587 46.4705 8.29558C46.6794 8.47806 46.7814 8.80347 46.7814 9.26279H45.9592C45.6476 9.26279 45.3208 9.27736 44.9801 9.3183C44.6464 9.35854 44.3328 9.45846 44.0351 9.59584C43.7548 9.72489 43.5279 9.92194 43.3454 10.1849C43.1588 10.4562 43.0533 10.801 43.0575 11.2305C43.061 11.7787 43.2795 12.1929 43.6903 12.4864C44.0865 12.7716 44.5396 12.9277 45.0578 12.9318C45.4138 12.9346 45.7545 12.8416 46.0813 12.6654C46.3997 12.4933 46.6481 12.2533 46.8265 11.9424H46.848C46.848 12.1651 46.8702 12.4503 46.9146 12.7986H48.2273C48.1975 12.3691 48.176 11.9424 48.1607 11.5199C48.1454 11.1202 48.1385 10.6415 48.1385 10.0857V9.3516C48.1385 7.72038 47.3371 6.9183 45.6691 6.93912C44.9801 6.94744 44.3168 7.09107 43.6792 7.37277L43.7236 8.65152ZM40.5923 6.02741H42.0827V4.60364H40.5923V6.02741ZM40.5923 12.7986H42.0827V7.07233H40.5923V12.7986ZM36.414 12.7986H37.9036V10.697C37.9036 10.4742 37.9113 10.2342 37.9258 9.97467C37.9411 9.70755 37.9855 9.45499 38.0591 9.21839C38.1409 8.96652 38.2631 8.76253 38.4268 8.60711C38.5892 8.44337 38.8195 8.36219 39.1158 8.36219C39.4051 8.36219 39.6271 8.40312 39.7833 8.4843V6.98352C39.6271 6.95369 39.4752 6.93912 39.3267 6.93912C38.882 6.95369 38.5232 7.12437 38.2485 7.45048C37.9668 7.76895 37.8037 8.07702 37.7593 8.37329H37.7371V7.07233H36.414V12.7986Z" fill="#1C1C1A"/>
<path d="M45.1376 15.1216H45.4124V14.604C45.4124 14.57 45.4159 14.5325 45.4235 14.4916C45.4297 14.452 45.4415 14.4139 45.4603 14.3785C45.4776 14.3424 45.5026 14.3133 45.5338 14.289C45.565 14.2647 45.606 14.2536 45.6546 14.2536C45.699 14.2536 45.733 14.2626 45.7559 14.282C45.7808 14.3029 45.7982 14.3271 45.8093 14.3563C45.8211 14.3868 45.828 14.4187 45.8308 14.4541C45.8329 14.4895 45.8336 14.5242 45.8336 14.5568V15.1216H46.1083V14.4541C46.1083 14.3951 46.1014 14.3403 46.0875 14.2904C46.0736 14.2397 46.0528 14.1953 46.023 14.1592C45.9938 14.1218 45.9557 14.0926 45.912 14.0711C45.8662 14.0503 45.8121 14.0392 45.7489 14.0392C45.6768 14.0392 45.6115 14.0545 45.5553 14.085C45.4991 14.1148 45.4526 14.1558 45.4166 14.2078H45.4124V13.582H45.1376V15.1216ZM44.3411 14.0642H44.0657V14.5811C44.0657 14.6165 44.0629 14.6526 44.0559 14.6935C44.049 14.7337 44.0365 14.7719 44.0192 14.8073C44.0011 14.8427 43.9762 14.8725 43.9449 14.8961C43.9137 14.9204 43.8735 14.9322 43.8235 14.9322C43.7805 14.9322 43.7458 14.9225 43.7215 14.9023C43.6965 14.8829 43.6785 14.8586 43.6681 14.8288C43.657 14.7997 43.6507 14.7663 43.6487 14.7317C43.6459 14.6949 43.6452 14.6609 43.6452 14.629V14.0642H43.3704V14.7317C43.3704 14.792 43.3767 14.8468 43.3912 14.8975C43.4044 14.9481 43.4259 14.9918 43.4558 15.0293C43.4849 15.0654 43.5224 15.0945 43.5675 15.1147C43.6119 15.1355 43.6667 15.1459 43.7291 15.1459C43.802 15.1459 43.8672 15.1306 43.9255 15.1008C43.9838 15.0703 44.0344 15.03 44.0761 14.978H44.0802V15.1216H44.3411V14.0642ZM41.6032 15.1216H41.8696V14.9918H41.8738C41.9134 15.0487 41.9633 15.0876 42.0216 15.1112C42.0799 15.1341 42.1389 15.1459 42.1978 15.1459C42.279 15.1459 42.347 15.1306 42.4039 15.0994C42.4608 15.0682 42.5066 15.0279 42.542 14.9766C42.5767 14.9252 42.6023 14.8663 42.6176 14.799C42.6329 14.7324 42.6412 14.6623 42.6412 14.5894C42.6412 14.5173 42.6329 14.4479 42.6176 14.3813C42.6023 14.3154 42.5767 14.2564 42.542 14.2057C42.5066 14.1551 42.4608 14.1148 42.4039 14.085C42.347 14.0545 42.279 14.0392 42.1978 14.0392C42.1257 14.0392 42.0646 14.0538 42.014 14.0815C41.9647 14.11 41.921 14.1488 41.8821 14.2002H41.878V13.582H41.6032V15.1216ZM41.8801 14.5894C41.8801 14.5526 41.8849 14.5138 41.8932 14.4749C41.9023 14.4347 41.9168 14.3986 41.9363 14.366C41.9564 14.3327 41.9813 14.3063 42.0133 14.2848C42.0452 14.264 42.0827 14.2536 42.1264 14.2536C42.1715 14.2536 42.2082 14.264 42.2367 14.2862C42.2658 14.307 42.2887 14.3355 42.3068 14.3681C42.3241 14.4014 42.3373 14.4375 42.3435 14.477C42.3512 14.5166 42.3539 14.554 42.3539 14.5894C42.3539 14.6269 42.3505 14.665 42.3428 14.7046C42.3352 14.7441 42.3227 14.7809 42.3061 14.8149C42.2887 14.8496 42.2651 14.8781 42.2353 14.8996C42.2048 14.9218 42.1673 14.9322 42.1222 14.9322C42.0771 14.9322 42.0389 14.9218 42.007 14.8996C41.9758 14.8781 41.9508 14.8503 41.9321 14.8163C41.9141 14.783 41.9002 14.7455 41.8918 14.7053C41.8835 14.665 41.8801 14.6269 41.8801 14.5894ZM39.2608 15.1216H39.5363V14.6082C39.5363 14.5735 39.5383 14.5367 39.5425 14.4951C39.5467 14.4541 39.5557 14.4153 39.5703 14.3792C39.5841 14.3431 39.6049 14.3133 39.632 14.289C39.6598 14.2647 39.6965 14.2536 39.7416 14.2536C39.7812 14.2536 39.811 14.2612 39.8325 14.2765C39.854 14.2925 39.8693 14.3119 39.8797 14.3355C39.8901 14.3591 39.8957 14.384 39.897 14.4125C39.8984 14.4402 39.8991 14.4666 39.8991 14.4909V15.1216H40.1739V14.6082C40.1739 14.5735 40.1767 14.5367 40.1801 14.4951C40.1843 14.4541 40.194 14.4153 40.2086 14.3792C40.2225 14.3431 40.2433 14.3133 40.2703 14.289C40.2981 14.2647 40.3342 14.2536 40.3793 14.2536C40.4188 14.2536 40.45 14.2612 40.4702 14.2765C40.4924 14.2925 40.5076 14.3119 40.518 14.3355C40.5284 14.3591 40.534 14.384 40.5354 14.4125C40.5368 14.4402 40.5375 14.4666 40.5375 14.4909V15.1216H40.8122V14.4541C40.8122 14.3951 40.8074 14.3403 40.797 14.2904C40.7873 14.2397 40.7692 14.1953 40.7428 14.1592C40.7172 14.1218 40.6825 14.0926 40.6402 14.0711C40.5971 14.0503 40.5437 14.0392 40.4778 14.0392C40.414 14.0392 40.3501 14.0552 40.2877 14.0857C40.2259 14.1169 40.1794 14.1634 40.1475 14.2265C40.1177 14.1606 40.0768 14.1134 40.0247 14.0843C39.9727 14.0545 39.9095 14.0392 39.836 14.0392C39.7833 14.0392 39.7291 14.0517 39.6722 14.0767C39.616 14.101 39.5654 14.1461 39.5217 14.212H39.5175V14.0642H39.2608V15.1216ZM38.4684 14.0642H38.1937V14.5811C38.1937 14.6165 38.1902 14.6526 38.184 14.6935C38.1763 14.7337 38.1645 14.7719 38.1465 14.8073C38.1284 14.8427 38.1042 14.8725 38.0729 14.8961C38.041 14.9204 38.0001 14.9322 37.9515 14.9322C37.9078 14.9322 37.8731 14.9225 37.8488 14.9023C37.8238 14.8829 37.8065 14.8586 37.7954 14.8288C37.7843 14.7997 37.7781 14.7663 37.776 14.7317C37.7739 14.6949 37.7725 14.6609 37.7725 14.629V14.0642H37.4977V14.7317C37.4977 14.792 37.5047 14.8468 37.5179 14.8975C37.5324 14.9481 37.5533 14.9918 37.5831 15.0293C37.6129 15.0654 37.6497 15.0945 37.6955 15.1147C37.7399 15.1355 37.794 15.1459 37.8572 15.1459C37.9293 15.1459 37.9945 15.1306 38.0528 15.1008C38.1111 15.0703 38.1618 15.03 38.2041 14.978H38.2075V15.1216H38.4684V14.0642ZM36.2766 14.8031C36.2766 14.9079 36.305 14.9918 36.3626 15.0536C36.4202 15.1147 36.5028 15.1459 36.611 15.1459C36.652 15.1459 36.6894 15.1445 36.722 15.1396C36.7546 15.1355 36.7852 15.1292 36.8143 15.1216L36.806 14.9037C36.7907 14.9128 36.7727 14.9204 36.7505 14.9252C36.7283 14.9301 36.7054 14.9322 36.6811 14.9322C36.6547 14.9322 36.6332 14.9273 36.6159 14.9183C36.5992 14.9079 36.5853 14.8954 36.5763 14.8788C36.5666 14.8628 36.5604 14.8441 36.5569 14.8232C36.5527 14.8031 36.5513 14.7809 36.5513 14.758V14.2654H36.7956V14.0642H36.5513V13.7651L36.2766 13.8526V14.0642H36.0733V14.2654H36.2766V14.8031Z" fill="#1C1C1A"/>
<path d="M64.8601 15.1216H65.1349V14.604C65.1349 14.57 65.1376 14.5318 65.1453 14.4916C65.1522 14.452 65.1647 14.4139 65.182 14.3785C65.1994 14.3424 65.2244 14.3126 65.2556 14.289C65.2875 14.2647 65.3278 14.2536 65.3763 14.2536C65.4207 14.2536 65.4547 14.2626 65.479 14.282C65.5026 14.3029 65.5206 14.3271 65.5324 14.357C65.5435 14.3868 65.5505 14.4187 65.5526 14.4548C65.5546 14.4895 65.5553 14.5242 65.5553 14.5568V15.1216H65.8301V14.4548C65.8301 14.3958 65.8239 14.3403 65.81 14.2904C65.7968 14.239 65.7753 14.1953 65.7454 14.1585C65.7163 14.1218 65.6788 14.0926 65.6337 14.0711C65.5886 14.0503 65.5345 14.0392 65.4714 14.0392C65.3992 14.0392 65.334 14.0524 65.2764 14.0781C65.2188 14.1023 65.1682 14.1461 65.1252 14.2078H65.1203V14.0642H64.8601V15.1216ZM63.4003 14.8149C63.4003 14.7747 63.4107 14.7421 63.4308 14.7185C63.4523 14.6935 63.4773 14.6761 63.5071 14.6637C63.5369 14.6512 63.5703 14.6435 63.6056 14.6394C63.6417 14.6345 63.6743 14.6324 63.7062 14.6324H63.8256C63.8256 14.6741 63.8214 14.7129 63.8138 14.7497C63.8062 14.7865 63.7916 14.8205 63.768 14.8503C63.7458 14.8794 63.7194 14.9016 63.6868 14.919C63.6549 14.9363 63.6174 14.9447 63.5751 14.9447C63.5258 14.9447 63.4842 14.9343 63.4509 14.9141C63.4176 14.8933 63.4003 14.8607 63.4003 14.8149ZM63.2608 14.3563C63.3073 14.3202 63.3593 14.2925 63.4148 14.2716C63.4717 14.2508 63.5286 14.2411 63.5876 14.2411C63.6695 14.2411 63.7298 14.2571 63.768 14.2904C63.8062 14.323 63.8256 14.382 63.8256 14.4687H63.6729C63.616 14.4687 63.555 14.4722 63.4918 14.4798C63.428 14.4874 63.3697 14.5048 63.3191 14.5304C63.267 14.5561 63.2233 14.5929 63.1893 14.6408C63.1553 14.6886 63.1373 14.7525 63.1373 14.8316C63.1373 14.8822 63.1491 14.9273 63.1699 14.9662C63.1907 15.005 63.2185 15.0383 63.2532 15.0647C63.2872 15.0918 63.3267 15.1112 63.3711 15.1258C63.4155 15.1389 63.4606 15.1459 63.5071 15.1459C63.539 15.1459 63.5702 15.1417 63.6029 15.1334C63.6348 15.1258 63.6646 15.114 63.6938 15.0987C63.7229 15.0834 63.7493 15.0647 63.7729 15.0411C63.7971 15.0175 63.8173 14.9918 63.8332 14.9634H63.8381C63.8395 14.9801 63.8402 15.0029 63.8409 15.0335C63.8409 15.0647 63.845 15.0938 63.8499 15.1216H64.0927C64.0892 15.08 64.0872 15.0404 64.0851 15.0023C64.083 14.9634 64.0816 14.9245 64.0795 14.885C64.0788 14.8454 64.0781 14.8052 64.0768 14.7629C64.0761 14.7212 64.0761 14.6741 64.0761 14.6206V14.4853C64.0761 14.3292 64.04 14.2154 63.9692 14.1454C63.8977 14.0746 63.7812 14.0392 63.6209 14.0392C63.5619 14.0392 63.4988 14.0475 63.4329 14.0614C63.3663 14.0753 63.3066 14.0954 63.2532 14.1204L63.2608 14.3563ZM61.5574 15.1216H61.8322V14.6082H61.8363L62.1895 15.1216H62.5385L62.0951 14.536L62.4892 14.0642H62.1652L61.8363 14.4867H61.8322V13.582H61.5574V15.1216ZM60.4917 14.0642V14.2078H60.4875C60.4493 14.1461 60.4029 14.1023 60.3494 14.0781C60.2946 14.0524 60.2336 14.0392 60.1635 14.0392C60.0837 14.0392 60.0164 14.0565 59.9602 14.0899C59.904 14.1239 59.8582 14.1662 59.8214 14.2189C59.786 14.2703 59.759 14.3292 59.7416 14.3945C59.725 14.4604 59.716 14.5249 59.716 14.5873C59.716 14.6581 59.7236 14.7261 59.7395 14.7913C59.7555 14.8545 59.7805 14.9121 59.8145 14.9613C59.8492 15.0106 59.8936 15.0494 59.9477 15.0786C60.0032 15.1063 60.0691 15.1216 60.1475 15.1216C60.2252 15.1216 60.2925 15.1042 60.3501 15.0703C60.4077 15.0369 60.4493 14.9981 60.4757 14.9523H60.4792C60.4792 14.9981 60.4778 15.0446 60.4722 15.0938C60.4681 15.1417 60.4556 15.1868 60.4341 15.2271C60.414 15.2666 60.3814 15.2999 60.339 15.3249C60.296 15.3506 60.237 15.3637 60.1614 15.3637C60.1399 15.3637 60.1149 15.361 60.0886 15.3547C60.0615 15.3499 60.0344 15.3422 60.0067 15.3339C59.9782 15.3249 59.9512 15.3145 59.9241 15.3034C59.8977 15.293 59.8742 15.2819 59.854 15.2701L59.8311 15.5046C59.897 15.5324 59.9602 15.5511 60.0219 15.5615C60.0837 15.5712 60.142 15.5768 60.1961 15.5768C60.3071 15.5768 60.398 15.5608 60.4702 15.5296C60.5423 15.4984 60.5992 15.4567 60.6422 15.4054C60.6839 15.3547 60.7137 15.2951 60.7297 15.2278C60.7463 15.1605 60.7546 15.0904 60.7546 15.0182V14.0642H60.4917ZM60.2377 14.9079C60.1975 14.9079 60.1635 14.8982 60.1336 14.8781C60.1038 14.8586 60.0795 14.8323 60.0608 14.8024C60.0414 14.7719 60.0275 14.7365 60.0171 14.6977C60.0081 14.6602 60.0039 14.6234 60.0039 14.5873C60.0039 14.5464 60.0074 14.5062 60.0157 14.4666C60.024 14.4271 60.0372 14.391 60.0566 14.3598C60.0754 14.3285 60.1017 14.3029 60.133 14.282C60.1642 14.2626 60.203 14.2536 60.2502 14.2536C60.2891 14.2536 60.3238 14.2612 60.3529 14.2786C60.3827 14.2959 60.407 14.3195 60.4251 14.3493C60.4438 14.3799 60.457 14.4153 60.4667 14.4548C60.4757 14.493 60.4792 14.536 60.4792 14.5811C60.4792 14.6255 60.4757 14.6664 60.4667 14.7067C60.457 14.7462 60.4424 14.7809 60.423 14.8114C60.4029 14.8413 60.3779 14.8649 60.3474 14.8815C60.3161 14.8996 60.28 14.9079 60.2377 14.9079ZM58.016 15.1216H58.2922V14.604C58.2922 14.57 58.295 14.5318 58.3019 14.4916C58.3088 14.452 58.3213 14.4139 58.338 14.3785C58.3567 14.3424 58.3817 14.3126 58.4129 14.289C58.4441 14.2647 58.4844 14.2536 58.5336 14.2536C58.5781 14.2536 58.6107 14.2626 58.635 14.282C58.6585 14.3029 58.6773 14.3271 58.6884 14.357C58.7002 14.3868 58.7078 14.4187 58.7099 14.4548C58.7113 14.4895 58.7127 14.5242 58.7127 14.5568V15.1216H58.9867V14.4548C58.9867 14.3958 58.9805 14.3403 58.9666 14.2904C58.9534 14.239 58.9319 14.1953 58.9021 14.1585C58.8729 14.1218 58.8355 14.0926 58.7897 14.0711C58.7453 14.0503 58.6912 14.0392 58.6287 14.0392C58.5559 14.0392 58.4899 14.0524 58.433 14.0781C58.3761 14.1023 58.3248 14.1461 58.2818 14.2078H58.2776V14.0642H58.016V15.1216ZM56.5569 14.8149C56.5569 14.7747 56.5673 14.7421 56.5874 14.7185C56.6082 14.6935 56.6339 14.6761 56.6631 14.6637C56.6936 14.6512 56.7269 14.6435 56.7623 14.6394C56.7977 14.6345 56.8317 14.6324 56.8636 14.6324H56.9808C56.9808 14.6741 56.9788 14.7129 56.9704 14.7497C56.9628 14.7865 56.9482 14.8205 56.9246 14.8503C56.9031 14.8794 56.8761 14.9016 56.8428 14.919C56.8115 14.9363 56.7741 14.9447 56.731 14.9447C56.6825 14.9447 56.6409 14.9343 56.6069 14.9141C56.5735 14.8933 56.5569 14.8607 56.5569 14.8149ZM56.4174 14.3563C56.4639 14.3202 56.5153 14.2925 56.5715 14.2716C56.6277 14.2508 56.6853 14.2411 56.7435 14.2411C56.8261 14.2411 56.8865 14.2571 56.9246 14.2904C56.9628 14.323 56.9808 14.382 56.9808 14.4687H56.8303C56.7727 14.4687 56.7123 14.4722 56.6485 14.4798C56.5846 14.4874 56.5271 14.5048 56.475 14.5304C56.423 14.5561 56.38 14.5929 56.346 14.6408C56.3113 14.6886 56.2946 14.7525 56.2946 14.8316C56.2946 14.8822 56.3057 14.9273 56.3258 14.9662C56.3474 15.005 56.3751 15.0383 56.4084 15.0647C56.4438 15.0918 56.4827 15.1112 56.5278 15.1258C56.5722 15.1389 56.6173 15.1459 56.6631 15.1459C56.695 15.1459 56.7269 15.1417 56.7588 15.1334C56.7914 15.1258 56.8219 15.114 56.8504 15.0987C56.8788 15.0834 56.9059 15.0647 56.9295 15.0411C56.9531 15.0175 56.9739 14.9918 56.9898 14.9634H56.994C56.9961 14.9801 56.9968 15.0029 56.9968 15.0335C56.9982 15.0647 57.0003 15.0938 57.0065 15.1216H57.2487C57.2459 15.08 57.2438 15.0404 57.2417 15.0023C57.2396 14.9634 57.2376 14.9245 57.2369 14.885C57.2348 14.8454 57.2341 14.8052 57.2327 14.7629C57.2327 14.7212 57.232 14.6741 57.232 14.6206V14.4853C57.232 14.3292 57.1966 14.2154 57.1251 14.1454C57.0551 14.0746 56.9378 14.0392 56.7768 14.0392C56.7179 14.0392 56.6547 14.0475 56.5888 14.0614C56.5229 14.0753 56.4632 14.0954 56.4084 14.1204L56.4174 14.3563ZM54.5947 15.1216H54.8618V14.9918H54.8653C54.9055 15.0487 54.9541 15.0876 55.0131 15.1112C55.0721 15.1341 55.1311 15.1459 55.1893 15.1459C55.2705 15.1459 55.3392 15.1306 55.3961 15.0994C55.453 15.0682 55.4995 15.0279 55.5335 14.9766C55.5689 14.9252 55.5938 14.8663 55.6098 14.799C55.6251 14.7324 55.6334 14.6623 55.6334 14.5894C55.6334 14.5173 55.6251 14.4479 55.6098 14.3813C55.5938 14.3154 55.5689 14.2564 55.5335 14.2057C55.4995 14.1551 55.453 14.1148 55.3961 14.085C55.3392 14.0545 55.2705 14.0392 55.1893 14.0392C55.1172 14.0392 55.0561 14.0538 55.0062 14.0815C54.9562 14.11 54.9118 14.1488 54.8743 14.1995H54.8695V13.582H54.5947V15.1216ZM54.8722 14.5894C54.8722 14.5526 54.8757 14.5145 54.8854 14.4749C54.8944 14.4354 54.9083 14.3986 54.9284 14.366C54.9479 14.3327 54.9735 14.3063 55.0048 14.2848C55.0367 14.264 55.0742 14.2536 55.1186 14.2536C55.163 14.2536 55.1997 14.264 55.2289 14.2862C55.2573 14.307 55.2809 14.3348 55.2983 14.3681C55.3163 14.4014 55.3281 14.4375 55.3357 14.477C55.3427 14.5166 55.3461 14.554 55.3461 14.5894C55.3461 14.6269 55.3427 14.665 55.335 14.7046C55.3267 14.7441 55.3149 14.7809 55.2976 14.8149C55.2802 14.8496 55.2573 14.8781 55.2275 14.8996C55.197 14.9218 55.1588 14.9322 55.1137 14.9322C55.0686 14.9322 55.0304 14.9218 54.9992 14.8996C54.968 14.8781 54.9423 14.8503 54.9236 14.8163C54.9056 14.783 54.8924 14.7455 54.884 14.7053C54.8757 14.665 54.8722 14.6269 54.8722 14.5894ZM52.253 15.1216H52.5278V14.6082C52.5278 14.5735 52.5298 14.536 52.534 14.4951C52.5382 14.4548 52.5472 14.416 52.5618 14.3792C52.5763 14.3431 52.5964 14.3126 52.6242 14.289C52.6519 14.2647 52.6873 14.2536 52.7324 14.2536C52.7727 14.2536 52.8032 14.2612 52.824 14.2765C52.8455 14.2925 52.8615 14.3119 52.8712 14.3348C52.8816 14.3591 52.8879 14.384 52.8885 14.4125C52.8906 14.4402 52.8913 14.4666 52.8913 14.4909V15.1216H53.1661V14.6082C53.1661 14.5735 53.1675 14.536 53.1723 14.4951C53.1765 14.4548 53.1855 14.416 53.2001 14.3792C53.2147 14.3431 53.2355 14.3126 53.2618 14.289C53.2903 14.2647 53.3264 14.2536 53.3715 14.2536C53.411 14.2536 53.4415 14.2612 53.4617 14.2765C53.4839 14.2925 53.4998 14.3119 53.5095 14.3348C53.5199 14.3591 53.5262 14.384 53.5276 14.4125C53.5283 14.4402 53.529 14.4666 53.529 14.4909V15.1216H53.8044V14.4548C53.8044 14.3958 53.7996 14.3403 53.7892 14.2904C53.7794 14.239 53.7607 14.1953 53.735 14.1585C53.7087 14.1218 53.674 14.0926 53.6324 14.0711C53.5893 14.0503 53.5359 14.0392 53.47 14.0392C53.4055 14.0392 53.3423 14.0552 53.2806 14.0857C53.2174 14.1162 53.1709 14.1634 53.139 14.2265C53.1092 14.1606 53.0683 14.1134 53.0162 14.0843C52.9642 14.0545 52.901 14.0392 52.8275 14.0392C52.7755 14.0392 52.7206 14.0517 52.6637 14.076C52.6075 14.1016 52.5569 14.1461 52.5132 14.212H52.5097V14.0642H52.253V15.1216ZM51.4509 14.8378C51.3982 14.867 51.3434 14.8919 51.2858 14.9127C51.2289 14.9343 51.1664 14.9447 51.0991 14.9447C51.0131 14.9447 50.943 14.9218 50.8889 14.876C50.8348 14.8302 50.8049 14.7636 50.7973 14.6775H51.5279C51.5279 14.5859 51.5203 14.5006 51.5043 14.4222C51.4884 14.3431 51.462 14.2765 51.4232 14.221C51.385 14.1641 51.3336 14.1204 51.2698 14.0878C51.2053 14.0559 51.1241 14.0392 51.0256 14.0392C50.943 14.0392 50.8716 14.0545 50.8098 14.0843C50.7481 14.1134 50.6974 14.1537 50.6572 14.2043C50.6162 14.2543 50.5864 14.314 50.5656 14.3813C50.5454 14.4493 50.535 14.5214 50.535 14.5977C50.535 14.7726 50.5836 14.9079 50.6794 15.0029C50.7758 15.098 50.9111 15.1459 51.0873 15.1459C51.1602 15.1459 51.2275 15.1389 51.2858 15.1237C51.3447 15.1098 51.3996 15.089 51.4509 15.0619V14.8378ZM50.7973 14.4895C50.8049 14.418 50.8278 14.3591 50.866 14.3119C50.9049 14.264 50.9638 14.2411 51.0415 14.2411C51.0797 14.2411 51.113 14.2474 51.1401 14.2612C51.1671 14.2751 51.19 14.2931 51.2081 14.3154C51.2261 14.3382 51.2386 14.3646 51.2476 14.3945C51.2573 14.4243 51.2629 14.4569 51.2657 14.4895H50.7973ZM48.9545 15.1216H49.2292V14.6082H49.2341L49.5859 15.1216H49.9356L49.4922 14.536L49.8863 14.0642H49.5616L49.2341 14.4867H49.2292V13.582H48.9545V15.1216Z" fill="#1C1C1A"/>
<path d="M79.6917 14.8156C79.6917 14.7747 79.7021 14.7421 79.7222 14.7178C79.743 14.6935 79.768 14.6761 79.7985 14.6637C79.8291 14.6512 79.861 14.6428 79.897 14.6394C79.9324 14.6345 79.9664 14.6324 79.9977 14.6324H80.1163C80.1163 14.6741 80.1128 14.7129 80.1052 14.7497C80.0976 14.7865 80.0823 14.8205 80.0587 14.8503C80.0372 14.8788 80.0101 14.9016 79.9782 14.919C79.9463 14.9363 79.9081 14.9454 79.8665 14.9454C79.8173 14.9454 79.7756 14.9343 79.7423 14.9141C79.7083 14.8933 79.6917 14.8607 79.6917 14.8156ZM79.5522 14.3563C79.5987 14.3202 79.65 14.2925 79.7056 14.2716C79.7624 14.2508 79.8193 14.2411 79.879 14.2411C79.9602 14.2411 80.0206 14.2578 80.0587 14.2904C80.0976 14.323 80.1163 14.382 80.1163 14.4687H79.9644C79.9075 14.4687 79.8464 14.4722 79.7826 14.4798C79.7194 14.4874 79.6618 14.5041 79.6098 14.5304C79.5578 14.5561 79.5147 14.5929 79.48 14.6408C79.4467 14.6886 79.4287 14.7525 79.4287 14.8316C79.4287 14.8822 79.4398 14.9273 79.4606 14.9662C79.4821 15.005 79.5099 15.0383 79.5439 15.0647C79.5779 15.0918 79.6167 15.1112 79.6618 15.1251C79.7062 15.1389 79.752 15.1459 79.7985 15.1459C79.8297 15.1459 79.8617 15.1417 79.8936 15.1334C79.9269 15.1251 79.9567 15.114 79.9859 15.0987C80.0143 15.0834 80.04 15.064 80.065 15.0411C80.0879 15.0175 80.108 14.9918 80.1246 14.9634H80.1281C80.1302 14.9801 80.1316 15.0029 80.1323 15.0342C80.1329 15.0647 80.1357 15.0938 80.1406 15.1216H80.3827C80.3814 15.08 80.3779 15.0411 80.3758 15.0023C80.3744 14.9634 80.373 14.9245 80.3709 14.885C80.3702 14.8454 80.3689 14.8052 80.3682 14.7629C80.3675 14.7212 80.3675 14.6741 80.3675 14.6206V14.4853C80.3675 14.3292 80.3314 14.2161 80.2599 14.1454C80.1885 14.0746 80.0726 14.0399 79.9109 14.0399C79.852 14.0399 79.7902 14.0461 79.7236 14.0614C79.6563 14.0753 79.5973 14.0954 79.5439 14.1204L79.5522 14.3563ZM77.7288 15.1216H78.0049V14.604C78.0049 14.57 78.0077 14.5318 78.0147 14.4923C78.0216 14.452 78.0334 14.4139 78.0514 14.3785C78.0695 14.3424 78.0945 14.3126 78.1257 14.289C78.1569 14.2654 78.1971 14.2529 78.2464 14.2529C78.2901 14.2529 78.3241 14.2626 78.3484 14.282C78.3727 14.3029 78.39 14.3271 78.4011 14.357C78.4129 14.3861 78.4192 14.4187 78.4219 14.4548C78.424 14.4895 78.4247 14.5242 78.4247 14.5568V15.1216H78.7002V14.4548C78.7002 14.3958 78.6932 14.3403 78.6794 14.2904C78.6655 14.239 78.644 14.1953 78.6148 14.1592C78.585 14.1218 78.5482 14.0926 78.5038 14.0718C78.458 14.0503 78.4046 14.0399 78.3415 14.0399C78.2686 14.0399 78.2041 14.0545 78.1472 14.085C78.0903 14.1148 78.0445 14.1558 78.0091 14.2078H78.0049V13.582H77.7288V15.1216ZM76.2703 14.8156C76.2703 14.7747 76.2801 14.7421 76.3009 14.7178C76.3217 14.6935 76.3466 14.6761 76.3772 14.6637C76.407 14.6512 76.4396 14.6428 76.4757 14.6394C76.5104 14.6345 76.5444 14.6324 76.5763 14.6324H76.695C76.695 14.6741 76.6915 14.7129 76.6839 14.7497C76.6755 14.7865 76.6603 14.8205 76.6374 14.8503C76.6159 14.8788 76.5881 14.9016 76.5562 14.919C76.5243 14.9363 76.4868 14.9454 76.4445 14.9454C76.3952 14.9454 76.3536 14.9343 76.321 14.9141C76.2863 14.8933 76.2703 14.8607 76.2703 14.8156ZM76.1309 14.3563C76.1767 14.3202 76.228 14.2925 76.2842 14.2716C76.3404 14.2508 76.398 14.2411 76.457 14.2411C76.5388 14.2411 76.5992 14.2578 76.6374 14.2904C76.6755 14.323 76.695 14.382 76.695 14.4687H76.543C76.4854 14.4687 76.4251 14.4722 76.3612 14.4798C76.2974 14.4874 76.2398 14.5041 76.1878 14.5304C76.1357 14.5561 76.0927 14.5929 76.058 14.6408C76.024 14.6886 76.0074 14.7525 76.0074 14.8316C76.0074 14.8822 76.0178 14.9273 76.0386 14.9662C76.0601 15.005 76.0879 15.0383 76.1226 15.0647C76.1565 15.0918 76.1954 15.1112 76.2405 15.1251C76.2849 15.1389 76.33 15.1459 76.3772 15.1459C76.4084 15.1459 76.4403 15.1417 76.4715 15.1334C76.5042 15.1251 76.5347 15.114 76.5631 15.0987C76.5923 15.0834 76.6186 15.064 76.6422 15.0411C76.6665 15.0175 76.6866 14.9918 76.7033 14.9634H76.7068C76.7088 14.9801 76.7095 15.0029 76.7102 15.0342C76.7109 15.0647 76.7144 15.0938 76.7193 15.1216H76.9614C76.9593 15.08 76.9566 15.0411 76.9545 15.0023C76.9517 14.9634 76.9503 14.9245 76.9496 14.885C76.9482 14.8454 76.9468 14.8052 76.9461 14.7629C76.9454 14.7212 76.9447 14.6741 76.9447 14.6206V14.4853C76.9447 14.3292 76.9094 14.2161 76.8386 14.1454C76.7664 14.0746 76.6513 14.0399 76.4896 14.0399C76.4306 14.0399 76.3689 14.0461 76.3023 14.0614C76.235 14.0753 76.176 14.0954 76.1226 14.1204L76.1309 14.3563ZM75.2969 14.0788C75.2532 14.069 75.2088 14.06 75.1637 14.0517C75.1179 14.0434 75.063 14.0399 74.9971 14.0399C74.9444 14.0399 74.8917 14.0461 74.8431 14.0593C74.7924 14.0725 74.7487 14.0919 74.7099 14.1183C74.6717 14.1454 74.6405 14.1794 74.6183 14.221C74.594 14.2612 74.5822 14.3105 74.5822 14.3681C74.5822 14.4326 74.5947 14.4826 74.619 14.52C74.6419 14.5568 74.6724 14.5859 74.7064 14.6088C74.7418 14.6297 74.7793 14.6463 74.8223 14.6574C74.8632 14.6685 74.9021 14.6803 74.9361 14.6928C74.9722 14.7046 75.0013 14.7199 75.0249 14.7372C75.0485 14.7552 75.061 14.7809 75.061 14.8156C75.061 14.8413 75.054 14.8628 75.0429 14.8788C75.0304 14.8954 75.0145 14.9079 74.9958 14.9183C74.9777 14.9273 74.9583 14.9343 74.9382 14.9384C74.9166 14.9426 74.8972 14.9454 74.8799 14.9454C74.832 14.9454 74.7862 14.9384 74.7418 14.9266C74.6974 14.9141 74.653 14.8968 74.6093 14.8753L74.5926 15.1008C74.6433 15.1147 74.6953 15.1251 74.748 15.1334C74.8008 15.1417 74.8535 15.1459 74.9049 15.1459C74.9611 15.1459 75.0152 15.1396 75.0686 15.1258C75.122 15.1133 75.1692 15.0931 75.2108 15.0654C75.2511 15.0383 75.2844 15.0029 75.3107 14.9592C75.335 14.9155 75.3482 14.8628 75.3482 14.801C75.3482 14.7379 75.3364 14.6873 75.3121 14.6484C75.2886 14.6095 75.2587 14.5776 75.224 14.5533C75.1893 14.5304 75.1512 14.5117 75.1095 14.4992C75.0672 14.4867 75.0291 14.4749 74.9944 14.4631C74.959 14.452 74.9298 14.4382 74.9055 14.4222C74.882 14.4069 74.8702 14.3854 74.8702 14.3577C74.8702 14.3355 74.8757 14.3174 74.8854 14.3029C74.8958 14.2876 74.9083 14.2751 74.9236 14.2654C74.9382 14.2557 74.9555 14.2494 74.9749 14.246C74.9944 14.2425 75.0131 14.2411 75.0318 14.2411C75.0825 14.2411 75.1255 14.2446 75.1616 14.2522C75.197 14.2592 75.2365 14.2709 75.2788 14.2862L75.2969 14.0788ZM73.8544 14.0642H73.5782V14.5811C73.5782 14.6151 73.5754 14.6526 73.5685 14.6935C73.5616 14.7337 73.5491 14.7719 73.5317 14.8066C73.5137 14.8427 73.4894 14.8725 73.4575 14.8968C73.4263 14.9204 73.386 14.9322 73.3368 14.9322C73.2931 14.9322 73.2584 14.9218 73.2341 14.9023C73.2091 14.8836 73.1918 14.8579 73.1814 14.8288C73.1702 14.799 73.1633 14.767 73.1605 14.7317C73.1591 14.6949 73.1578 14.6616 73.1578 14.629V14.0642H72.883V14.7317C72.883 14.7913 72.8899 14.8475 72.9031 14.8975C72.9177 14.9481 72.9392 14.9918 72.9683 15.0293C72.9975 15.0654 73.035 15.0945 73.0801 15.1154C73.1252 15.1355 73.1793 15.1459 73.2417 15.1459C73.3146 15.1459 73.3805 15.1306 73.4381 15.1008C73.4964 15.0703 73.5463 15.03 73.5893 14.9773H73.5935V15.1216H73.8544V14.0642Z" fill="#1C1C1A"/>
<path d="M12.4278 8.28864L8.74146 4.60156V8.28864H12.4278Z" fill="#F6A500"/>
<path d="M7.91648 3.68708L4.2294 0V3.68708H7.91648Z" fill="#F6A500"/>
<path d="M7.84016 12.9651L4.15308 9.27806V12.9651H7.84016Z" fill="#F6A500"/>
<path d="M5.08838 8.28864L8.74146 11.975L12.4278 8.28864H5.08838Z" fill="#B61818"/>
<path d="M0.576321 3.68708L4.2294 7.37346L7.91648 3.68708L0.576321 3.68708Z" fill="#B61818"/>
<path d="M0.5 12.9651L4.15308 16.6522L7.84016 12.9651H0.5Z" fill="#B61818"/>
</g>
<defs>
<clipPath id="clip0_801_8472">
<rect width="80" height="16.6522" fill="white" transform="translate(0.5)"/>
</clipPath>
</defs>
</svg>
