<svg width="80" height="15" viewBox="0 0 80 15" fill="none" xmlns="http://www.w3.org/2000/svg">
<g clip-path="url(#clip0_801_7443)">
<g clip-path="url(#clip1_801_7443)">
<path d="M74.9877 7.26653L75.1613 7.07244L75.318 6.89878L75.3146 6.89537L77.1976 4.55265C77.1976 4.55265 77.1976 4.55265 77.201 4.54924C77.3883 4.29386 77.5688 4.04528 77.7118 3.84779C77.7799 3.75925 77.8684 3.68434 77.9774 3.62986C78.0489 3.59581 78.1204 3.56856 78.1919 3.55835C78.1987 3.55835 78.2021 3.55835 78.2055 3.55835H80L79.8536 3.74563L79.6323 4.03507C79.6323 4.03507 79.6323 4.04188 79.6255 4.04188C79.6255 4.04188 79.6255 4.04188 79.6221 4.04528L77.2793 7.12692C77.2453 7.1746 77.2283 7.22567 77.2283 7.28356C77.2283 7.33804 77.2419 7.38231 77.2759 7.42998C77.2759 7.42998 79.5574 10.515 79.5676 10.5355L79.8774 10.9713L78.1987 10.9611C78.0898 10.9611 77.9842 10.9305 77.8718 10.8726C77.7935 10.8283 77.722 10.7772 77.6641 10.7125C77.6641 10.7125 77.6267 10.6649 77.6096 10.6478L77.218 10.0996L76.1488 8.61837H76.1454L76.0909 8.55027L76.016 8.46173L75.4576 7.81476L75.1545 7.46403L75.1035 7.40955L74.9843 7.26994V7.26313L74.9877 7.26653Z" fill="#006EB4"/>
<path d="M0.160061 9.16319C0.160061 9.16319 4.77401 15.5001 11.8022 12.868C11.8022 12.868 12.8033 11.986 13.4332 10.7261C13.4332 10.7261 6.66385 15.2243 0.0204513 6.79663C0.0204513 6.79663 -0.0919178 7.81476 0.156656 9.15979" fill="#003C5D"/>
<path d="M0.187286 5.87725C0.187286 5.87725 0.194097 5.88406 0.194097 5.88747C0.309871 6.0407 1.92731 8.12123 4.7127 9.37773C7.05202 10.4299 10.2086 10.8998 13.9917 9.1632C13.9951 9.14277 14.0019 9.12575 14.0053 9.10531C14.0359 8.93846 14.1313 8.40726 14.1653 7.8352C14.1653 7.81818 14.1653 7.79775 14.1653 7.78072L14.1279 6.80004C14.1006 6.82728 14.07 6.85112 14.0427 6.87836C13.6546 7.22568 11.935 8.62179 9.32324 8.62179C7.08947 8.62179 4.20533 7.59344 0.939819 4.01465C0.939819 4.01465 0.939819 4.02146 0.936414 4.02146L0.187286 5.87725Z" fill="#003C5D"/>
<path d="M3.08847 1.71277C5.45503 4.3926 7.61729 5.23026 9.33007 5.30177C11.4719 5.39031 12.9089 4.27342 13.171 4.0555C13.1847 4.04528 13.1983 4.03166 13.2153 4.01804C13.2289 4.03847 13.2426 4.0555 13.2562 4.07933C13.5456 4.50838 13.7703 5.18259 13.8827 5.57418C13.8929 5.60823 13.9031 5.64229 13.9134 5.67634C13.9236 5.70698 13.9304 5.73763 13.9372 5.76147C13.944 5.78871 13.9508 5.81935 13.961 5.85C13.961 5.86021 13.9644 5.87043 13.9678 5.88064C9.84764 7.52192 6.79325 7.03158 4.72634 6.06793C2.45171 5.00893 1.36548 3.37788 1.36548 3.37788L3.09188 1.71958L3.08847 1.71277Z" fill="#003C5D"/>
<mask id="mask0_801_7443" style="mask-type:luminance" maskUnits="userSpaceOnUse" x="0" y="4" width="14" height="5">
<path d="M7.07927 6.36759C4.72293 6.36759 2.57089 5.47885 0.943237 4.01465C0.609535 4.58671 0.35415 5.21325 0.190704 5.87725C1.91029 7.73305 4.36198 8.8942 7.08268 8.8942C9.80337 8.8942 12.2551 7.73305 13.9712 5.87725C13.8078 5.21666 13.5524 4.59012 13.2187 4.01465C11.5911 5.47885 9.43902 6.36759 7.08268 6.36759" fill="white"/>
</mask>
<g mask="url(#mask0_801_7443)">
<path d="M13.9644 4.01465H0.187286V8.8942H13.9644V4.01465Z" fill="url(#paint0_radial_801_7443)"/>
</g>
<mask id="mask1_801_7443" style="mask-type:luminance" maskUnits="userSpaceOnUse" x="0" y="6" width="15" height="7">
<path d="M7.07929 9.65353C4.39264 9.65353 1.94776 8.60475 0.129425 6.89538V9.00656C0.13964 9.05764 0.149856 9.10871 0.163476 9.15979C1.87966 11.0326 4.34497 12.2108 7.08269 12.2108C9.82041 12.2108 12.2823 11.0326 13.9985 9.15979C14.1143 8.65243 14.1756 8.12123 14.1756 7.57641C14.1756 7.31421 14.1619 7.05202 14.1313 6.79663C12.3062 8.56389 9.81701 9.65353 7.07929 9.65353Z" fill="white"/>
</mask>
<g mask="url(#mask1_801_7443)">
<path d="M14.1756 6.80005H0.129425V12.2108H14.1756V6.80005Z" fill="url(#paint1_radial_801_7443)"/>
</g>
<mask id="mask2_801_7443" style="mask-type:luminance" maskUnits="userSpaceOnUse" x="0" y="10" width="14" height="5">
<path d="M7.07926 12.9735C4.67524 12.9735 2.46191 12.1325 0.721893 10.7296C1.8558 13.0144 4.18831 14.6046 6.89879 14.6727C6.96008 14.6727 7.02137 14.6727 7.08267 14.6727C7.14396 14.6727 7.20525 14.6727 7.26654 14.6727C9.97702 14.6046 12.3061 13.0144 13.44 10.7296C11.7 12.1325 9.48668 12.9735 7.08267 12.9735" fill="white"/>
</mask>
<g mask="url(#mask2_801_7443)">
<path d="M13.44 10.7261H0.721893V14.6727H13.44V10.7261Z" fill="url(#paint2_radial_801_7443)"/>
</g>
<mask id="mask3_801_7443" style="mask-type:luminance" maskUnits="userSpaceOnUse" x="1" y="-1" width="14" height="7">
<path d="M12.6705 -2.56822e-05C12.2551 0.636733 11.7307 1.19858 11.128 1.66168C11.1075 1.6787 11.0871 1.69573 11.0633 1.70935C11.0633 1.70935 11.0564 1.71275 11.053 1.71616C9.93957 2.5436 8.5673 3.03394 7.07586 3.03394C5.58441 3.03394 4.20193 2.5402 3.08846 1.70935C2.42446 2.16223 1.83878 2.72408 1.36206 3.37105C2.86713 4.75694 4.87274 5.60481 7.07586 5.60481C9.27898 5.60481 11.2608 4.76715 12.759 3.39489C12.7692 3.38467 12.7794 3.37786 12.7897 3.36765C12.8067 3.35403 12.8237 3.337 12.8373 3.31997C13.4809 2.71727 14.0325 2.0124 14.4616 1.23263L14.2539 -0.00683594H12.6671L12.6705 -2.56822e-05Z" fill="white"/>
</mask>
<g mask="url(#mask3_801_7443)">
<path d="M14.4684 0H1.36548V5.60824H14.4684V0Z" fill="url(#paint3_radial_801_7443)"/>
</g>
<mask id="mask4_801_7443" style="mask-type:luminance" maskUnits="userSpaceOnUse" x="3" y="0" width="8" height="3">
<path d="M3.80695 1.28373C4.74336 1.91027 5.87045 2.27462 7.07927 2.27462C8.28809 2.27462 9.41519 1.91027 10.3516 1.28373C9.37092 0.772956 8.26085 0.483521 7.07927 0.483521C5.89769 0.483521 4.78762 0.772956 3.80695 1.28373Z" fill="white"/>
</mask>
<g mask="url(#mask4_801_7443)">
<path d="M10.3516 0.483521H3.80695V2.27121H10.3516V0.483521Z" fill="url(#paint4_radial_801_7443)"/>
</g>
<mask id="mask5_801_7443" style="mask-type:luminance" maskUnits="userSpaceOnUse" x="1" y="-1" width="14" height="7">
<path d="M12.6705 -2.56822e-05C12.2551 0.636733 11.7307 1.19858 11.128 1.66168C11.1075 1.6787 11.0871 1.69573 11.0633 1.70935C11.0633 1.70935 11.0564 1.71275 11.053 1.71616C9.93957 2.5436 8.5673 3.03394 7.07586 3.03394C5.58441 3.03394 4.20193 2.5402 3.08846 1.70935C2.42446 2.16223 1.83878 2.72408 1.36206 3.37105C2.86713 4.75694 4.87274 5.60481 7.07586 5.60481C9.27898 5.60481 11.2608 4.76715 12.759 3.39489C12.7692 3.38467 12.7794 3.37786 12.7897 3.36765C12.8067 3.35403 12.8237 3.337 12.8373 3.31997C13.4809 2.71727 14.0325 2.0124 14.4616 1.23263L14.2539 -0.00683594H12.6671L12.6705 -2.56822e-05Z" fill="white"/>
</mask>
<g mask="url(#mask5_801_7443)">
<path d="M14.4684 0H1.36548V5.60824H14.4684V0Z" fill="url(#paint5_radial_801_7443)"/>
</g>
<path d="M28.0548 8.36297C28.0548 8.36297 28.0446 8.36978 28.014 8.36978H26.5736C26.5362 8.36978 26.5259 8.36297 26.5225 8.35957C26.5191 8.35276 26.5225 8.33233 26.5294 8.30849L27.2921 6.7183L28.0412 8.30508C28.0617 8.34595 28.0514 8.35957 28.0514 8.36297M30.9901 10.4946L27.6156 3.75583C27.5509 3.62644 27.4351 3.55493 27.2887 3.55493C27.1423 3.55493 27.0265 3.62644 26.9618 3.75243L23.7746 10.1132L23.3319 10.9679H24.7689C24.8813 10.9679 24.9902 10.9338 25.0958 10.8657C25.1979 10.7976 25.2797 10.7125 25.3307 10.6104L25.6168 10.0281C25.6372 9.98041 25.6747 9.93955 25.7326 9.90209C25.7938 9.86463 25.8517 9.8442 25.9062 9.8442H28.6678C28.7257 9.8442 28.7801 9.86463 28.8346 9.89868C28.8959 9.93614 28.9368 9.98041 28.964 10.0247L29.2535 10.6001C29.2977 10.7091 29.376 10.7976 29.4884 10.8657C29.5974 10.9304 29.7063 10.9645 29.8187 10.9645H31.2352L31.0037 10.5184C31.0037 10.5184 30.9969 10.498 30.9901 10.4878" fill="#006EB4"/>
<path d="M36.6664 3.68775C36.5813 3.77288 36.5336 3.88525 36.5336 4.00784V7.67516L32.2806 3.6537C32.1887 3.57198 32.0763 3.54133 31.9435 3.56517C31.7937 3.59582 31.7051 3.70478 31.7051 3.86142V10.9713H32.914C33.0365 10.9713 33.1455 10.9271 33.234 10.8385C33.3192 10.7534 33.3634 10.641 33.3634 10.5218V6.91241L37.613 10.8692C37.6879 10.9305 37.7731 10.9611 37.8684 10.9611C37.8957 10.9611 37.9263 10.9611 37.9535 10.9509C38.1034 10.9202 38.1953 10.8113 38.1953 10.6546V3.55836H36.9865C36.8605 3.55836 36.7549 3.60263 36.6664 3.68775Z" fill="#006EB4"/>
<path d="M45.1554 10.3958L42.4551 7.50147C42.4245 7.46742 42.4074 7.42997 42.404 7.3823C42.404 7.32781 42.4177 7.28695 42.4449 7.2495L45.0021 4.04186C45.0158 4.02143 45.0294 4.00441 45.043 3.98398L45.3665 3.56855H43.6946C43.589 3.56855 43.4767 3.59579 43.3643 3.65368C43.2553 3.70816 43.1668 3.77627 43.1021 3.86139L40.7219 6.90217V4.00441C40.7219 3.88182 40.6776 3.77286 40.5925 3.68433C40.504 3.5992 40.3984 3.55493 40.2758 3.55493H39.5097C39.3871 3.55493 39.2781 3.6026 39.193 3.68773C39.1147 3.77286 39.0704 3.88182 39.0704 4.001V10.5184C39.0704 10.641 39.1113 10.7466 39.193 10.8351C39.2747 10.9236 39.3871 10.9679 39.5097 10.9679H40.2758C40.3984 10.9679 40.5074 10.9236 40.5925 10.8385C40.6776 10.7534 40.7219 10.6444 40.7219 10.5184V7.96117L43.2417 10.6887C43.3098 10.7704 43.4017 10.8419 43.5243 10.893C43.6401 10.9441 43.7525 10.9679 43.8546 10.9679H45.7411L45.1622 10.3924L45.1554 10.3958Z" fill="#006EB4"/>
<path d="M57.6965 3.56177L56.4876 3.56858C56.365 3.56858 56.2527 3.61625 56.1675 3.70138C56.0824 3.78991 56.0382 3.89547 56.0382 4.02146L56.0586 7.68878L51.7818 3.69116C51.6898 3.60944 51.5672 3.57879 51.4446 3.60603C51.2948 3.63668 51.2029 3.74905 51.2063 3.90228L51.2471 11.0122L52.456 11.0054C52.5785 11.0054 52.6875 10.9577 52.7726 10.8726C52.8578 10.7874 52.902 10.6751 52.902 10.5525L52.8816 6.94306L57.155 10.876C57.2538 10.9543 57.3662 10.9815 57.4955 10.9577C57.6454 10.9271 57.7373 10.8147 57.7339 10.6615L57.693 3.56177H57.6965Z" fill="#006EB4"/>
<path d="M63.7269 7.26653C63.7269 7.74325 63.669 8.12463 63.5431 8.40385C63.4137 8.69328 63.2502 8.91462 63.0629 9.06444C62.8688 9.22448 62.6543 9.33345 62.4262 9.38793C62.1708 9.44582 61.9222 9.47646 61.6873 9.47646L60.5261 9.48327C60.4818 9.48327 60.4546 9.46965 60.4274 9.44241C60.3967 9.41176 60.3831 9.37771 60.3831 9.33004L60.3593 5.24048C60.3593 5.19622 60.3729 5.15876 60.4001 5.12811C60.4274 5.09747 60.458 5.08725 60.5023 5.08725L61.6804 5.08044C61.9018 5.08044 62.1401 5.10768 62.3887 5.15876C62.6237 5.20984 62.845 5.3154 63.0425 5.46863C63.2298 5.61505 63.3932 5.83297 63.5294 6.11901C63.6588 6.40844 63.7235 6.79663 63.7269 7.26653ZM65.0924 5.67634C64.9051 5.21665 64.6259 4.81484 64.2581 4.47773C63.5805 3.86822 62.7088 3.55835 61.6736 3.55835L58.6873 3.57538L58.7316 10.9986L61.6839 10.9815C62.198 10.9781 62.6816 10.8964 63.1242 10.7398C63.5567 10.5865 63.9483 10.3516 64.2922 10.0417C64.6633 9.7012 64.9392 9.28918 65.1128 8.82268C65.2048 8.58432 65.2763 8.33574 65.3205 8.07695C65.3648 7.81476 65.3886 7.53554 65.3852 7.2461C65.3852 6.69107 65.2831 6.16327 65.0924 5.67293" fill="#006EB4"/>
<path d="M50.0206 3.55948L48.3623 3.56903L48.405 10.9853L50.0633 10.9757L50.0206 3.55948Z" fill="#006EB4"/>
<path d="M71.6268 9.90206C71.6268 9.77948 71.5791 9.66711 71.494 9.58198C71.4089 9.49685 71.2965 9.45259 71.1739 9.45259L67.8914 9.47302C67.8471 9.47302 67.8131 9.4594 67.7824 9.42875C67.7518 9.39811 67.7382 9.36405 67.7382 9.31979L67.7314 8.24717C67.7314 8.20291 67.745 8.16885 67.7756 8.13821C67.8063 8.10756 67.8403 8.09394 67.888 8.09394L70.7313 8.07692C70.8539 8.07692 70.9662 8.02924 71.0514 7.94412C71.1365 7.85899 71.1807 7.74662 71.1807 7.62403V6.99068C71.1773 6.8681 71.1297 6.75913 71.0445 6.674C70.9594 6.58888 70.8504 6.54461 70.7245 6.54461L67.8812 6.56163C67.8369 6.56163 67.8029 6.54801 67.7722 6.51737C67.7416 6.48672 67.7279 6.45267 67.7279 6.4084L67.7211 5.23023C67.7211 5.18596 67.7348 5.15191 67.7654 5.12126C67.7961 5.09062 67.8301 5.077 67.8744 5.077L71.1569 5.05657C71.2795 5.05657 71.3919 5.0089 71.4736 4.92377C71.5587 4.83864 71.603 4.72627 71.603 4.60369L71.5962 3.5481L66.0526 3.58215L66.0969 11.0053L71.6404 10.9713L71.6336 9.89866L71.6268 9.90206Z" fill="#006EB4"/>
<path d="M39.8298 3.55493H39.0636V4.24277L39.8298 3.55493Z" fill="#006EB4"/>
<path d="M39.8298 10.9679H39.0636V10.2834L39.8298 10.9679Z" fill="#006EB4"/>
<path d="M21.7928 8.94184C21.7587 9.03378 21.7077 9.12232 21.6328 9.21085C21.5613 9.29598 21.4897 9.35727 21.4114 9.39473L21.3978 9.40154C21.3229 9.4458 21.2412 9.46964 21.1424 9.46964H19.5182C19.4739 9.46964 19.4399 9.45602 19.4092 9.42537C19.3786 9.39473 19.3649 9.36068 19.3649 9.31641V8.11099C19.3649 8.06673 19.3786 8.03267 19.4092 7.99862C19.4399 7.96798 19.4739 7.95436 19.5182 7.95436H20.996C21.2786 7.95436 21.4931 8.02246 21.6328 8.15526C21.7792 8.29487 21.8507 8.45832 21.8507 8.65241C21.8507 8.76137 21.8337 8.85331 21.7928 8.94525M19.3649 5.20982C19.3649 5.16556 19.3786 5.13151 19.4092 5.10086C19.4399 5.07021 19.4739 5.05659 19.5182 5.05659H20.9892C21.0675 5.05659 21.1356 5.07362 21.1969 5.10426C21.2752 5.14853 21.3365 5.19961 21.391 5.2575C21.4353 5.30176 21.4761 5.36987 21.5136 5.4618C21.5442 5.54012 21.5613 5.62184 21.5613 5.70697C21.5613 5.81253 21.5476 5.90447 21.5204 5.98279C21.4863 6.08154 21.4421 6.16326 21.391 6.22455C21.3263 6.29946 21.2582 6.35735 21.1867 6.3914C21.1016 6.43227 21.0062 6.4527 20.8904 6.4527H19.5182C19.4739 6.4527 19.4399 6.43907 19.4092 6.40843C19.3786 6.37778 19.3649 6.34373 19.3649 6.29946V5.20982ZM23.3728 8.0497C23.2808 7.84199 23.1583 7.6513 23.0084 7.49466C22.8586 7.32441 22.6918 7.19161 22.4977 7.09626C22.4772 7.08605 22.4602 7.07924 22.4364 7.07243C22.4432 7.06562 22.45 7.06221 22.4602 7.05881C22.6271 6.95665 22.7667 6.83066 22.8722 6.67743C22.9676 6.54123 23.0527 6.37778 23.1242 6.19391C23.1889 6.01684 23.2195 5.84318 23.2195 5.67633C23.2195 5.23366 23.1617 4.89315 23.0425 4.63776C22.9301 4.35514 22.7633 4.1304 22.5521 3.97717C22.3581 3.82053 22.1197 3.70816 21.8234 3.63665C21.6941 3.60941 21.5578 3.58898 21.4182 3.57536C21.282 3.56174 21.1356 3.55493 20.9858 3.55493H17.7032V10.9747H21.139C21.2991 10.9747 21.4557 10.9645 21.6055 10.9441C21.7519 10.9236 21.8984 10.8964 22.038 10.8623C22.3308 10.7942 22.5896 10.6648 22.7973 10.4844C23.0084 10.3141 23.1855 10.0758 23.3183 9.7761C23.4409 9.48666 23.5056 9.13253 23.5056 8.72732C23.5056 8.48556 23.4579 8.26082 23.366 8.05651" fill="#006EB4"/>
<path d="M77.218 7.26993H77.2146L77.1704 7.21885L74.5041 3.8682C74.5041 3.8682 74.4939 3.85118 74.4905 3.84437C74.4224 3.75583 74.3339 3.68092 74.2283 3.62644C74.1568 3.59239 74.0853 3.56515 74.0138 3.55493C74.0104 3.55493 74.0036 3.55493 74.0002 3.55493H72.2057L72.3521 3.74221L72.5734 4.03165C72.5734 4.03165 72.5768 4.03505 72.5802 4.03846C72.5802 4.03846 72.5802 4.03846 72.5802 4.04186L74.9264 7.12351C74.9604 7.17118 74.9775 7.22225 74.9775 7.28014C74.9775 7.33462 74.9638 7.37889 74.9298 7.42656C74.9298 7.42656 72.6484 10.5116 72.6381 10.532L72.3249 10.9679L74.007 10.9577C74.116 10.9577 74.2215 10.927 74.3339 10.8691C74.4122 10.8283 74.4803 10.7738 74.5416 10.7091L74.6165 10.6138L77.2214 7.26652H77.2248L77.218 7.26993Z" fill="#5EB4E5"/>
</g>
</g>
<defs>
<radialGradient id="paint0_radial_801_7443" cx="0" cy="0" r="1" gradientUnits="userSpaceOnUse" gradientTransform="translate(14.2969 -1.4356) scale(15.1732 15.1732)">
<stop stop-color="white"/>
<stop offset="0.21" stop-color="#86B9D7"/>
<stop offset="0.41" stop-color="#0A71AF"/>
<stop offset="1" stop-color="#0F4E8B"/>
</radialGradient>
<radialGradient id="paint1_radial_801_7443" cx="0" cy="0" r="1" gradientUnits="userSpaceOnUse" gradientTransform="translate(4815.08 11717.1) scale(15.1766 15.1767)">
<stop stop-color="white"/>
<stop offset="0.21" stop-color="#86B9D7"/>
<stop offset="0.41" stop-color="#0A71AF"/>
<stop offset="1" stop-color="#0F4E8B"/>
</radialGradient>
<radialGradient id="paint2_radial_801_7443" cx="0" cy="0" r="1" gradientUnits="userSpaceOnUse" gradientTransform="translate(4815.15 11717.3) scale(15.1766 15.1767)">
<stop stop-color="white"/>
<stop offset="0.21" stop-color="#86B9D7"/>
<stop offset="0.41" stop-color="#0A71AF"/>
<stop offset="1" stop-color="#0F4E8B"/>
</radialGradient>
<radialGradient id="paint3_radial_801_7443" cx="0" cy="0" r="1" gradientUnits="userSpaceOnUse" gradientTransform="translate(4815.78 11718.8) scale(15.18 15.1801)">
<stop stop-color="white"/>
<stop offset="0.21" stop-color="#86B9D7"/>
<stop offset="0.41" stop-color="#0A71AF"/>
<stop offset="1" stop-color="#0F4E8B"/>
</radialGradient>
<radialGradient id="paint4_radial_801_7443" cx="0" cy="0" r="1" gradientUnits="userSpaceOnUse" gradientTransform="translate(4815.79 11718.8) scale(15.18 15.1801)">
<stop stop-color="white"/>
<stop offset="0.21" stop-color="#86B9D7"/>
<stop offset="0.41" stop-color="#0A71AF"/>
<stop offset="1" stop-color="#0F4E8B"/>
</radialGradient>
<radialGradient id="paint5_radial_801_7443" cx="0" cy="0" r="1" gradientUnits="userSpaceOnUse" gradientTransform="translate(15.8542 -2.9073) scale(22.0073 22.0073)">
<stop stop-color="#D9E9F7"/>
<stop offset="0.12" stop-color="#D9E9F7"/>
<stop offset="0.24" stop-color="#A3CAE7"/>
<stop offset="0.44" stop-color="#4C99CF"/>
<stop offset="0.58" stop-color="#157ABF"/>
<stop offset="0.65" stop-color="#006FBA"/>
<stop offset="1" stop-color="#00305A"/>
</radialGradient>
<clipPath id="clip0_801_7443">
<rect width="80" height="14.6727" fill="white"/>
</clipPath>
<clipPath id="clip1_801_7443">
<rect width="80" height="14.6727" fill="white"/>
</clipPath>
</defs>
</svg>
