<svg width="81" height="19" viewBox="0 0 81 19" fill="none" xmlns="http://www.w3.org/2000/svg">
<g clip-path="url(#clip0_801_8295)">
<path fill-rule="evenodd" clip-rule="evenodd" d="M2.53497 15.2457L0.5 13.5717V4.11365L2.53497 2.59195V15.2457ZM4.73499 17.0553L2.86508 15.517V2.34473L4.73499 0.945883V17.0553ZM9.46441 2.59195L11.4994 4.11365V13.5717L9.46441 15.2457V2.59195ZM7.26438 0.945883L9.13429 2.34473V15.517L7.26438 17.0553V0.945883ZM5.99969 0L6.93427 0.699426V17.3266L5.99969 18.0961L5.06436 17.3266V0.699426L5.99969 0Z" fill="#009B4C"/>
<path fill-rule="evenodd" clip-rule="evenodd" d="M5.97482 3.35619C8.99712 3.35619 11.4496 5.80946 11.4496 8.83101C11.4496 11.8533 8.99712 14.3066 5.97482 14.3066C2.95327 14.3066 0.500001 11.8533 0.500001 8.83101C0.500001 5.80946 2.95327 3.35619 5.97482 3.35619Z" fill="#FEFEFE"/>
<path fill-rule="evenodd" clip-rule="evenodd" d="M10.7042 9.08726C10.5701 11.5805 8.49516 13.5732 5.96879 13.5732C3.44241 13.5732 1.36675 11.5805 1.23334 9.08726H10.7042ZM5.96879 4.08878C8.48687 4.08878 10.5573 6.06873 10.7027 8.55214H1.23485C1.38031 6.06873 3.4507 4.08878 5.96879 4.08878Z" fill="#FEFEFE"/>
<path fill-rule="evenodd" clip-rule="evenodd" d="M10.708 9.08726C10.5746 11.5805 8.49893 13.5732 5.97331 13.5732C3.44694 13.5732 1.37127 11.5805 1.23787 9.08726H10.708ZM5.97331 4.08878C8.49139 4.08878 10.561 6.06873 10.7072 8.55214H1.23937C1.38484 6.06873 3.45523 4.08878 5.97331 4.08878Z" fill="#00A2E9"/>
<path fill-rule="evenodd" clip-rule="evenodd" d="M10.7095 8.55214H10.9009L11.4994 8.79558L10.9009 9.08726H10.711C10.7148 9.00209 10.7178 8.91693 10.7178 8.831C10.7178 8.73755 10.7148 8.64409 10.7095 8.55214ZM0.522611 8.55214H1.22807C1.22279 8.64409 1.21978 8.73755 1.21978 8.831C1.21978 8.91693 1.22204 9.00209 1.22656 9.08726H0.522611L1.3788 8.79558L0.522611 8.55214Z" fill="#00A2E9"/>
<path fill-rule="evenodd" clip-rule="evenodd" d="M3.52457 4.75429C5.10204 5.69037 6.82423 5.69489 8.36477 4.72339L8.73936 4.97286C7.26288 6.24434 4.76439 6.31141 3.11908 5.04597L3.52457 4.75429Z" fill="#FEFEFE"/>
<path fill-rule="evenodd" clip-rule="evenodd" d="M2.08049 6.12827C4.37021 7.66203 7.45582 7.64093 9.79905 6.0544C9.9332 6.22926 10.047 6.40412 10.1307 6.57897C8.0339 8.17379 4.32273 8.30794 1.75867 6.65133C1.85363 6.47723 1.95538 6.30312 2.08049 6.12827Z" fill="#FEFEFE"/>
<path fill-rule="evenodd" clip-rule="evenodd" d="M3.52457 12.9145C5.10204 11.9792 6.82423 11.9747 8.36477 12.9462L8.73936 12.6959C7.26288 11.4245 4.76439 11.3574 3.11908 12.6236L3.52457 12.9145Z" fill="#FEFEFE"/>
<path fill-rule="evenodd" clip-rule="evenodd" d="M2.08049 11.5345C4.37021 9.99998 7.45582 10.0218 9.79905 11.6076C9.9332 11.4327 10.047 11.2586 10.1307 11.0838C8.0339 9.48898 4.32273 9.35482 1.75867 11.0107C1.85363 11.1855 1.95538 11.3596 2.08049 11.5345Z" fill="#FEFEFE"/>
<path d="M16.7443 6.9106C17.3179 7.03797 17.7203 7.19323 17.9525 7.37487C18.2849 7.63339 18.4514 7.96953 18.4514 8.3818C18.4514 8.81593 18.269 9.17544 17.9035 9.46034C17.455 9.80402 16.8023 9.97586 15.9469 9.97586H12.8764V9.81834C13.1552 9.81834 13.3452 9.79347 13.4447 9.74372C13.5441 9.69398 13.6142 9.62916 13.6542 9.54927C13.6941 9.47013 13.7137 9.27418 13.7137 8.96139V5.20876C13.7137 4.89673 13.6941 4.70002 13.6542 4.61862C13.6142 4.53722 13.5434 4.47316 13.4424 4.42492C13.3414 4.37593 13.1522 4.35182 12.8764 4.35182V4.19429H15.7728C16.4655 4.19429 16.9553 4.25308 17.244 4.37141C17.5319 4.48899 17.7595 4.66535 17.9254 4.89975C18.0919 5.13415 18.1756 5.38362 18.1756 5.64817C18.1756 5.92703 18.0701 6.17499 17.859 6.39206C17.648 6.60988 17.2764 6.78247 16.7443 6.9106ZM15.1224 7.12766V8.9825L15.1178 9.19579C15.1178 9.34954 15.1585 9.46486 15.2407 9.54324C15.3221 9.62163 15.4434 9.66082 15.604 9.66082C15.8414 9.66082 16.0607 9.61032 16.2612 9.50933C16.4617 9.40833 16.6154 9.26212 16.7225 9.06992C16.8295 8.87773 16.883 8.66444 16.883 8.42853C16.883 8.15796 16.8174 7.91602 16.687 7.70122C16.5559 7.48642 16.3765 7.33643 16.1474 7.25127C15.919 7.1661 15.5768 7.12465 15.1224 7.12766ZM15.1224 6.79528C15.5444 6.79528 15.8557 6.75006 16.0562 6.65886C16.2567 6.56767 16.4104 6.44029 16.5175 6.27524C16.6245 6.11018 16.678 5.8999 16.678 5.64364C16.678 5.38814 16.6252 5.17862 16.5197 5.01506C16.4142 4.85151 16.2635 4.72715 16.0675 4.64199C15.8708 4.55682 15.5565 4.51537 15.1224 4.51838V6.79528Z" fill="#332C2B"/>
<path d="M22.5696 8.33055H20.4351L20.1812 8.89281C20.0975 9.08048 20.056 9.23574 20.056 9.35784C20.056 9.51988 20.1246 9.63896 20.261 9.71584C20.3409 9.76106 20.5392 9.79573 20.8534 9.81834V9.97586H18.8441V9.81834C19.0604 9.78668 19.239 9.70076 19.3785 9.56058C19.5179 9.41964 19.6905 9.12871 19.8955 8.68856L22.0571 4.07521H22.1415L24.3212 8.81593C24.5292 9.26513 24.6995 9.54776 24.8337 9.66459C24.9347 9.75277 25.0771 9.80402 25.261 9.81834V9.97586H22.3375V9.81834H22.4581C22.6932 9.81834 22.8575 9.78668 22.9525 9.72488C23.018 9.67891 23.0512 9.61334 23.0512 9.52817C23.0512 9.47692 23.0422 9.42491 23.0241 9.37065C23.018 9.34502 22.9736 9.23875 22.8907 9.05108L22.5696 8.33055ZM22.4181 8.01476L21.5182 6.0235L20.5912 8.01476H22.4181Z" fill="#332C2B"/>
<path d="M27.6367 4.19429L30.6183 7.78036V5.29393C30.6183 4.94723 30.5663 4.71283 30.4623 4.59074C30.3198 4.42643 30.0809 4.34654 29.7447 4.35182V4.19429H31.7413V4.35182C31.4858 4.38347 31.3147 4.42342 31.2265 4.47391C31.1391 4.52366 31.0705 4.6043 31.0215 4.7166C30.9725 4.8289 30.9484 5.02185 30.9484 5.29393V10.1085H30.7969L26.7096 5.29393V8.96968C26.7096 9.30206 26.7895 9.52666 26.9485 9.64348C27.1076 9.76031 27.2892 9.81834 27.4942 9.81834H27.6367V9.97586H25.4932V9.81834C25.8255 9.81532 26.0577 9.74976 26.1881 9.62163C26.3192 9.49425 26.3848 9.27644 26.3848 8.96968V4.8892L26.2551 4.73544C26.1278 4.58245 26.0147 4.48145 25.9167 4.43321C25.8188 4.38498 25.6771 4.35785 25.4932 4.35182V4.19429H27.6367Z" fill="#332C2B"/>
<path d="M35.7569 6.40713L37.8831 8.95235C38.1831 9.31111 38.4416 9.55379 38.6579 9.68192C38.8162 9.77237 38.982 9.81834 39.1576 9.81834V9.97586H36.0109V9.81834C36.2099 9.80101 36.3388 9.77161 36.3968 9.72865C36.4549 9.68644 36.4835 9.63369 36.4835 9.57113C36.4835 9.45129 36.3471 9.22745 36.0735 8.89733L34.6875 7.23016L34.4644 7.40954V8.98702C34.4644 9.2885 34.4824 9.47541 34.5179 9.54927C34.5533 9.62389 34.6219 9.68644 34.7229 9.7392C34.8239 9.79196 34.9859 9.81834 35.209 9.81834V9.97586H32.1603V9.81834H32.3608C32.5364 9.81834 32.6774 9.78819 32.7844 9.72865C32.8613 9.68871 32.9208 9.62087 32.9622 9.5244C32.9954 9.45581 33.0112 9.27644 33.0112 8.98702V5.18314C33.0112 4.88769 32.9954 4.70304 32.9622 4.62917C32.9298 4.55531 32.8635 4.49049 32.764 4.43547C32.6645 4.3797 32.5304 4.35182 32.3608 4.35182H32.1603V4.19429H35.1683V4.35182C34.9633 4.35182 34.8073 4.38046 34.701 4.43774C34.6234 4.47693 34.5623 4.54401 34.5179 4.63822C34.4824 4.70907 34.4644 4.8907 34.4644 5.18314V6.98295L36.7058 5.2472C37.0186 5.00602 37.1746 4.81232 37.1746 4.66761C37.1746 4.55908 37.1106 4.47391 36.9824 4.41211C36.9169 4.38046 36.7548 4.36086 36.4971 4.35182V4.19429H38.8546V4.35182C38.6436 4.36614 38.4778 4.40231 38.3572 4.4611C38.2373 4.51913 37.96 4.71585 37.5266 5.05124L35.7569 6.40713Z" fill="#332C2B"/>
<path d="M45.1381 6.40713L47.2643 8.95235C47.5643 9.31111 47.8228 9.55379 48.0399 9.68192C48.1974 9.77237 48.3632 9.81834 48.5388 9.81834V9.97586H45.3921V9.81834C45.5919 9.80101 45.72 9.77161 45.778 9.72865C45.8361 9.68644 45.8647 9.63369 45.8647 9.57113C45.8647 9.45129 45.7283 9.22745 45.4547 8.89733L44.0687 7.23016L43.8463 7.40954V8.98702C43.8463 9.2885 43.8636 9.47541 43.8998 9.54927C43.9352 9.62389 44.0031 9.68644 44.1041 9.7392C44.2051 9.79196 44.3671 9.81834 44.5902 9.81834V9.97586H41.5415V9.81834H41.742C41.9176 9.81834 42.0586 9.78819 42.1656 9.72865C42.2432 9.68871 42.302 9.62087 42.3442 9.5244C42.3766 9.45581 42.3932 9.27644 42.3932 8.98702V5.18314C42.3932 4.88769 42.3766 4.70304 42.3442 4.62917C42.311 4.55531 42.2455 4.49049 42.146 4.43547C42.0465 4.3797 41.9116 4.35182 41.742 4.35182H41.5415V4.19429H44.5503V4.35182C44.3453 4.35182 44.1892 4.38046 44.0822 4.43774C44.0046 4.47693 43.9435 4.54401 43.8998 4.63822C43.8636 4.70907 43.8463 4.8907 43.8463 5.18314V6.98295L46.0878 5.2472C46.3998 5.00602 46.5558 4.81232 46.5558 4.66761C46.5558 4.55908 46.4918 4.47391 46.3636 4.41211C46.2988 4.38046 46.1368 4.36086 45.8783 4.35182V4.19429H48.2358V4.35182C48.0248 4.36614 47.859 4.40231 47.7391 4.4611C47.6185 4.51913 47.3412 4.71585 46.9078 5.05124L45.1381 6.40713Z" fill="#332C2B"/>
<path d="M52.2334 8.33055H50.0989L49.8442 8.89281C49.7613 9.08048 49.7198 9.23574 49.7198 9.35784C49.7198 9.51988 49.7884 9.63896 49.9248 9.71584C50.0047 9.76106 50.2029 9.79573 50.518 9.81834V9.97586H48.5079V9.81834C48.7242 9.78668 48.9028 9.70076 49.0423 9.56058C49.1824 9.41964 49.3543 9.12871 49.5593 8.68856L51.7209 4.07521H51.806L53.985 8.81593C54.193 9.26513 54.3641 9.54776 54.4975 9.66459C54.5985 9.75277 54.7409 9.80402 54.9256 9.81834V9.97586H52.0013V9.81834H52.1218C52.357 9.81834 52.5213 9.78668 52.617 9.72488C52.6818 9.67891 52.715 9.61334 52.715 9.52817C52.715 9.47692 52.706 9.42491 52.6879 9.37065C52.6818 9.34502 52.6374 9.23875 52.5545 9.05108L52.2334 8.33055ZM52.0819 8.01476L51.182 6.0235L50.255 8.01476H52.0819Z" fill="#332C2B"/>
<path d="M60.7901 7.94617L60.5632 9.97586H55.1969V9.81834H55.3974C55.573 9.81834 55.7139 9.78819 55.821 9.72865C55.8986 9.68871 55.9581 9.62087 55.9996 9.5244C56.032 9.45581 56.0486 9.27644 56.0486 8.98702V5.18314C56.0486 4.88769 56.032 4.70304 55.9996 4.62917C55.9664 4.55531 55.9009 4.49049 55.8006 4.43547C55.7011 4.3797 55.567 4.35182 55.3974 4.35182H55.1969V4.19429H58.4197V4.35182H58.1567C57.981 4.35182 57.8401 4.38196 57.7331 4.4415C57.6555 4.48145 57.5952 4.54928 57.5499 4.64651C57.5175 4.71434 57.5009 4.89372 57.5009 5.18314V8.86718C57.5009 9.16338 57.519 9.3518 57.5545 9.43245C57.5906 9.5131 57.66 9.57414 57.764 9.61334C57.8386 9.63896 58.018 9.65177 58.3036 9.65177H58.8071C59.1282 9.65177 59.3957 9.59826 59.609 9.48973C59.8231 9.38195 60.0085 9.21162 60.1645 8.97797C60.3205 8.74508 60.4675 8.4014 60.6077 7.94617H60.7901Z" fill="#332C2B"/>
<path d="M65.1758 6.9106C65.7493 7.03797 66.1518 7.19323 66.3832 7.37487C66.7163 7.63339 66.8829 7.96953 66.8829 8.3818C66.8829 8.81593 66.6997 9.17544 66.3342 9.46034C65.8858 9.80402 65.2338 9.97586 64.3776 9.97586H61.3071V9.81834C61.5867 9.81834 61.7759 9.79347 61.8754 9.74372C61.9749 9.69398 62.0449 9.62916 62.0849 9.54927C62.1248 9.47013 62.1452 9.27418 62.1452 8.96139V5.20876C62.1452 4.89673 62.1248 4.70002 62.0849 4.61862C62.0449 4.53722 61.9741 4.47316 61.8731 4.42492C61.7721 4.37593 61.5837 4.35182 61.3071 4.35182V4.19429H64.2043C64.8962 4.19429 65.3868 4.25308 65.6747 4.37141C65.9634 4.48899 66.1903 4.66535 66.3568 4.89975C66.5234 5.13415 66.6063 5.38362 66.6063 5.64817C66.6063 5.92703 66.5008 6.17499 66.2897 6.39206C66.0787 6.60988 65.7071 6.78247 65.1758 6.9106ZM63.5531 7.12766V8.9825L63.5493 9.19579C63.5493 9.34954 63.5893 9.46486 63.6714 9.54324C63.7536 9.62163 63.8742 9.66082 64.0347 9.66082C64.2729 9.66082 64.4914 9.61032 64.6919 9.50933C64.8932 9.40833 65.0462 9.26212 65.1532 9.06992C65.2602 8.87773 65.3137 8.66444 65.3137 8.42853C65.3137 8.15796 65.2481 7.91602 65.1177 7.70122C64.9874 7.48642 64.8072 7.33643 64.5781 7.25127C64.3497 7.1661 64.0083 7.12465 63.5531 7.12766ZM63.5531 6.79528C63.9752 6.79528 64.2864 6.75006 64.4869 6.65886C64.6874 6.56767 64.8411 6.44029 64.9482 6.27524C65.0552 6.11018 65.1087 5.8999 65.1087 5.64364C65.1087 5.38814 65.0559 5.17862 64.9504 5.01506C64.8449 4.85151 64.6942 4.72715 64.4982 4.64199C64.3023 4.55682 63.9872 4.51537 63.5531 4.51838V6.79528Z" fill="#332C2B"/>
<path d="M71.0003 8.33055H68.8659L68.6119 8.89281C68.529 9.08048 68.4867 9.23574 68.4867 9.35784C68.4867 9.51988 68.5553 9.63896 68.6918 9.71584C68.7724 9.76106 68.9699 9.79573 69.2849 9.81834V9.97586H67.2748V9.81834C67.4919 9.78668 67.6697 9.70076 67.8099 9.56058C67.9494 9.41964 68.1212 9.12871 68.327 8.68856L70.4878 4.07521H70.573L72.7519 8.81593C72.9607 9.26513 73.131 9.54776 73.2644 9.66459C73.3654 9.75277 73.5086 9.80402 73.6925 9.81834V9.97586H70.7689V9.81834H70.8895C71.1239 9.81834 71.289 9.78668 71.3839 9.72488C71.4495 9.67891 71.4819 9.61334 71.4819 9.52817C71.4819 9.47692 71.4736 9.42491 71.4555 9.37065C71.4495 9.34502 71.405 9.23875 71.3221 9.05108L71.0003 8.33055ZM70.8488 8.01476L69.9489 6.0235L69.0219 8.01476H70.8488Z" fill="#332C2B"/>
<path d="M76.2196 7.34096V8.96139C76.2196 9.27418 76.24 9.47089 76.2799 9.55153C76.3199 9.63293 76.3907 9.69775 76.4917 9.74599C76.5919 9.79422 76.7811 9.81834 77.0577 9.81834V9.97586H73.9646V9.81834C74.2434 9.81834 74.4334 9.79347 74.5329 9.74372C74.6323 9.69398 74.7024 9.62916 74.7416 9.54927C74.7823 9.47013 74.8019 9.27418 74.8019 8.96139V5.20876C74.8019 4.89673 74.7823 4.70002 74.7416 4.61862C74.7024 4.53722 74.6308 4.47316 74.5306 4.42492C74.4296 4.37593 74.2404 4.35182 73.9646 4.35182V4.19429H76.7721C77.5032 4.19429 78.0375 4.24253 78.3767 4.339C78.7151 4.43623 78.9917 4.6141 79.2057 4.87412C79.4198 5.13415 79.5268 5.43939 79.5268 5.7891C79.5268 6.21494 79.3655 6.56767 79.0452 6.84653C78.8402 7.0229 78.5531 7.15479 78.1852 7.24298L79.6376 9.19956C79.8283 9.45355 79.9632 9.61108 80.0439 9.67288C80.1652 9.76106 80.3061 9.81005 80.4667 9.81834V9.97586H78.5636L76.6161 7.34096H76.2196ZM76.2196 4.50557V7.03797H76.4736C76.8866 7.03797 77.1957 7.00179 77.4007 6.92944C77.6057 6.85709 77.767 6.72594 77.8838 6.53752C78.0014 6.34834 78.0601 6.10189 78.0601 5.7974C78.0601 5.35724 77.9524 5.03165 77.7368 4.82061C77.522 4.61109 77.1745 4.50557 76.6967 4.50557H76.2196Z" fill="#332C2B"/>
<path d="M13.5004 13.9847V11.8382H14.0514C14.2601 11.8382 14.3966 11.8488 14.4599 11.8706C14.5571 11.9031 14.6385 11.9724 14.7048 12.0809C14.7704 12.1887 14.8036 12.3274 14.8036 12.4985C14.8036 12.6304 14.784 12.7412 14.7463 12.8308C14.7086 12.9205 14.6604 12.9914 14.6016 13.0419C14.5435 13.0931 14.484 13.1278 14.4237 13.1444C14.3423 13.1647 14.2232 13.1745 14.068 13.1745H13.8441V13.9847H13.5004ZM13.8441 12.2015V12.8105H14.0318C14.1674 12.8105 14.2579 12.7992 14.3031 12.7766C14.3491 12.754 14.3845 12.7185 14.4109 12.6711C14.4365 12.6236 14.4493 12.5678 14.4493 12.5045C14.4493 12.4261 14.4312 12.362 14.3951 12.3108C14.3589 12.2603 14.3122 12.2286 14.2571 12.2158C14.2157 12.206 14.1335 12.2015 14.0099 12.2015H13.8441Z" fill="#332C2B"/>
<path d="M15.4683 13.9847V12.2015H14.9633V11.8382H16.3147V12.2015H15.8112V13.9847H15.4683Z" fill="#332C2B"/>
<path d="M16.271 13.9847V13.5732H16.5966V13.9847H16.271Z" fill="#332C2B"/>
<path d="M17.5945 11.8382H18.2743C18.4085 11.8382 18.5087 11.845 18.575 11.8593C18.6414 11.8737 18.7009 11.9031 18.7529 11.9483C18.8049 11.9927 18.8486 12.053 18.8833 12.1277C18.918 12.2023 18.9353 12.2859 18.9353 12.3786C18.9353 12.4789 18.9142 12.5716 18.8712 12.6552C18.8283 12.7389 18.7702 12.8022 18.6964 12.8444C18.8004 12.8821 18.8795 12.9469 18.9353 13.0389C18.9911 13.1308 19.019 13.2378 19.019 13.3622C19.019 13.4602 19.0009 13.5551 18.9647 13.6471C18.9293 13.739 18.8803 13.8129 18.8177 13.8679C18.7552 13.9229 18.6783 13.9569 18.5871 13.9697C18.5306 13.9772 18.3919 13.9825 18.1733 13.9847H17.5945V11.8382ZM17.9374 12.1955V12.6914H18.1628C18.2969 12.6914 18.3798 12.6892 18.4122 12.6846C18.471 12.6756 18.517 12.65 18.5509 12.607C18.5841 12.5655 18.6014 12.509 18.6014 12.4397C18.6014 12.3734 18.5871 12.3198 18.5577 12.2784C18.5291 12.2369 18.4861 12.2113 18.4281 12.203C18.3941 12.1977 18.2969 12.1955 18.1349 12.1955H17.9374ZM17.9374 13.0487V13.623H18.2555C18.3791 13.623 18.4582 13.6185 18.4914 13.6102C18.5419 13.5981 18.5841 13.5695 18.6157 13.5242C18.6481 13.479 18.664 13.418 18.664 13.3418C18.664 13.277 18.6519 13.2228 18.627 13.1775C18.6022 13.1331 18.566 13.0999 18.5193 13.0796C18.4725 13.0592 18.3715 13.0487 18.2148 13.0487H17.9374Z" fill="#332C2B"/>
<path d="M20.8429 13.9847H20.4691L20.3206 13.4971H19.6408L19.5006 13.9847H19.1365L19.7983 11.8382H20.1616L20.8429 13.9847ZM20.2105 13.1353L19.9761 12.3394L19.7463 13.1353H20.2105Z" fill="#332C2B"/>
<path d="M21.0283 13.9847V11.8382H21.3622L22.0586 13.271V11.8382H22.3774V13.9847H22.033L21.3471 12.5851V13.9847H21.0283Z" fill="#332C2B"/>
<path d="M22.7452 13.9847V11.8382H23.0881V12.7917L23.7823 11.8382H24.2435L23.6037 12.6741L24.279 13.9847H23.8343L23.367 12.9771L23.0881 13.3358V13.9847H22.7452Z" fill="#332C2B"/>
<path d="M25.1163 13.9847V11.8382H25.6673C25.876 11.8382 26.0125 11.8488 26.0758 11.8706C26.173 11.9031 26.2544 11.9724 26.3207 12.0809C26.3863 12.1887 26.4187 12.3274 26.4187 12.4985C26.4187 12.6304 26.3999 12.7412 26.3622 12.8308C26.3245 12.9205 26.2763 12.9914 26.2175 13.0419C26.1594 13.0931 26.0999 13.1278 26.0396 13.1444C25.9574 13.1647 25.8391 13.1745 25.6839 13.1745H25.46V13.9847H25.1163ZM25.46 12.2015V12.8105H25.6477C25.7826 12.8105 25.873 12.7992 25.919 12.7766C25.9642 12.754 26.0004 12.7185 26.026 12.6711C26.0524 12.6236 26.0652 12.5678 26.0652 12.5045C26.0652 12.4261 26.0471 12.362 26.011 12.3108C25.974 12.2603 25.928 12.2286 25.8723 12.2158C25.8316 12.206 25.7494 12.2015 25.6258 12.2015H25.46Z" fill="#332C2B"/>
<path d="M26.7006 13.9847V11.8382H27.9615V12.2015H27.0443V12.6771H27.8982V13.0389H27.0443V13.623H27.9947V13.9847H26.7006Z" fill="#332C2B"/>
<path d="M28.2811 13.9847V11.8382H28.7951L29.1033 13.3019L29.4086 11.8382H29.9234V13.9847H29.6046V12.295L29.2669 13.9847H28.9368L28.5999 12.295V13.9847H28.2811Z" fill="#332C2B"/>
<path d="M30.2655 11.8382H30.9454C31.0803 11.8382 31.1805 11.845 31.2469 11.8593C31.3124 11.8737 31.372 11.9031 31.424 11.9483C31.476 11.9927 31.5197 12.053 31.5544 12.1277C31.5898 12.2023 31.6071 12.2859 31.6071 12.3786C31.6071 12.4789 31.5853 12.5716 31.5423 12.6552C31.4993 12.7389 31.4413 12.8022 31.3682 12.8444C31.4715 12.8821 31.5513 12.9469 31.6071 13.0389C31.6621 13.1308 31.69 13.2378 31.69 13.3622C31.69 13.4602 31.6719 13.5551 31.6365 13.6471C31.6003 13.739 31.5513 13.8129 31.4888 13.8679C31.427 13.9229 31.3501 13.9569 31.2589 13.9697C31.2016 13.9772 31.0637 13.9825 30.8444 13.9847H30.2655V11.8382ZM30.6092 12.1955V12.6914H30.8338C30.968 12.6914 31.0509 12.6892 31.0833 12.6846C31.1421 12.6756 31.1888 12.65 31.222 12.607C31.2559 12.5655 31.2725 12.509 31.2725 12.4397C31.2725 12.3734 31.2582 12.3198 31.2295 12.2784C31.2001 12.2369 31.1572 12.2113 31.0999 12.203C31.066 12.1977 30.968 12.1955 30.8059 12.1955H30.6092ZM30.6092 13.0487V13.623H30.9273C31.0509 13.623 31.1293 13.6185 31.1624 13.6102C31.2137 13.5981 31.2551 13.5695 31.2875 13.5242C31.3192 13.479 31.335 13.418 31.335 13.3418C31.335 13.277 31.323 13.2228 31.2981 13.1775C31.2732 13.1331 31.2378 13.0999 31.1911 13.0796C31.1443 13.0592 31.0426 13.0487 30.8866 13.0487H30.6092Z" fill="#332C2B"/>
<path d="M33.514 13.9847H33.1401L32.9916 13.4971H32.3118L32.1716 13.9847H31.8076L32.4701 11.8382H32.8334L33.514 13.9847ZM32.8816 13.1353L32.6472 12.3394L32.4173 13.1353H32.8816Z" fill="#332C2B"/>
<path d="M33.6994 13.9847V11.8382H34.034L34.7297 13.271V11.8382H35.0485V13.9847H34.704L34.0182 12.5851V13.9847H33.6994Z" fill="#332C2B"/>
<path d="M36.2031 13.1956V12.8339H36.9433V13.6885C36.8709 13.7767 36.7669 13.8536 36.6305 13.9207C36.4941 13.9878 36.3554 14.0209 36.2159 14.0209C36.0381 14.0209 35.8828 13.9734 35.7502 13.88C35.6183 13.7858 35.5188 13.6509 35.4524 13.476C35.3861 13.3004 35.353 13.1097 35.353 12.904C35.353 12.6801 35.3899 12.4819 35.4638 12.3078C35.5384 12.1344 35.6469 12.001 35.7901 11.9083C35.8986 11.8375 36.0351 11.8021 36.1971 11.8021C36.4081 11.8021 36.5732 11.8578 36.6923 11.9694C36.8106 12.0809 36.8867 12.2354 36.9214 12.4321L36.58 12.5128C36.5559 12.408 36.5106 12.3244 36.4451 12.2633C36.3787 12.2023 36.2958 12.1721 36.1971 12.1721C36.0471 12.1721 35.928 12.2324 35.8391 12.3523C35.7509 12.4721 35.7064 12.65 35.7064 12.8866C35.7064 13.1414 35.7509 13.3321 35.8414 13.4594C35.931 13.5868 36.0486 13.6509 36.1933 13.6509C36.2657 13.6509 36.338 13.6328 36.4104 13.5974C36.4827 13.5612 36.5445 13.5182 36.5966 13.4677V13.1956H36.2031Z" fill="#332C2B"/>
<path d="M37.2575 11.8382H37.6005V13.0004C37.6005 13.1851 37.605 13.3049 37.6133 13.3592C37.6284 13.4466 37.663 13.5175 37.7188 13.571C37.7738 13.6237 37.8492 13.6509 37.9457 13.6509C38.0429 13.6509 38.116 13.6252 38.1657 13.5747C38.2155 13.525 38.2449 13.4632 38.2554 13.3901C38.2652 13.317 38.2705 13.1956 38.2705 13.0253V11.8382H38.6134V12.9658C38.6134 13.2228 38.6044 13.4052 38.5855 13.5114C38.5675 13.6177 38.5328 13.7074 38.483 13.7813C38.4333 13.8544 38.3662 13.9124 38.2833 13.9554C38.1997 13.9991 38.0904 14.0209 37.9555 14.0209C37.7934 14.0209 37.6706 13.9976 37.5862 13.9501C37.5025 13.9026 37.4362 13.8415 37.3872 13.7654C37.3389 13.6901 37.3065 13.6102 37.2907 13.5273C37.2688 13.4044 37.2575 13.2228 37.2575 12.9831V11.8382Z" fill="#332C2B"/>
<path d="M38.979 13.9847V11.8382H39.3129L40.0093 13.271V11.8382H40.3281V13.9847H39.9836L39.2978 12.5851V13.9847H38.979Z" fill="#332C2B"/>
<path d="M42.2251 13.9847H41.8513L41.7028 13.4971H41.023L40.8828 13.9847H40.5188L41.1813 11.8382H41.5438L42.2251 13.9847ZM41.5928 13.1353L41.3584 12.3394L41.1285 13.1353H41.5928Z" fill="#332C2B"/>
<path d="M42.4105 13.9847V11.8382H42.7444L43.4408 13.271V11.8382H43.7596V13.9847H43.4152L42.7293 12.5851V13.9847H42.4105Z" fill="#332C2B"/>
<path d="M44.7816 11.8382H45.4095C45.5512 11.8382 45.6589 11.8518 45.7328 11.8797C45.8323 11.9166 45.9182 11.9822 45.9891 12.0772C46.0607 12.1714 46.1149 12.2874 46.1519 12.4246C46.1888 12.5618 46.2076 12.7306 46.2076 12.9318C46.2076 13.1082 46.1903 13.2605 46.1549 13.3886C46.1127 13.5446 46.0516 13.6712 45.9732 13.7677C45.9137 13.8408 45.833 13.8981 45.7313 13.9388C45.6559 13.9689 45.5549 13.9847 45.4276 13.9847H44.7816V11.8382ZM45.1253 12.2015V13.623H45.3816C45.4773 13.623 45.5466 13.6162 45.5888 13.6026C45.6446 13.5845 45.6906 13.5551 45.7275 13.5129C45.7645 13.4707 45.7946 13.4021 45.818 13.3057C45.8406 13.21 45.8526 13.0788 45.8526 12.913C45.8526 12.7472 45.8406 12.6198 45.818 12.5309C45.7946 12.4419 45.7622 12.3726 45.72 12.3229C45.6785 12.2731 45.6258 12.2392 45.561 12.2219C45.5135 12.2083 45.4193 12.2015 45.2791 12.2015H45.1253Z" fill="#332C2B"/>
<path d="M48.0323 13.9847H47.6585L47.51 13.4971H46.8302L46.69 13.9847H46.326L46.9885 11.8382H47.351L48.0323 13.9847ZM47.4 13.1353L47.1656 12.3394L46.9357 13.1353H47.4Z" fill="#332C2B"/>
<path d="M48.214 13.9847V11.8382H49.4749V12.2015H48.5576V12.6771H49.4116V13.0389H48.5576V13.623H49.508V13.9847H48.214Z" fill="#332C2B"/>
<path d="M49.7997 13.9847V11.8382H50.5225C50.7049 11.8382 50.8368 11.8578 50.919 11.8963C51.0011 11.9347 51.0674 12.0033 51.1164 12.102C51.1662 12.2 51.191 12.3131 51.191 12.4397C51.191 12.601 51.1534 12.7336 51.0787 12.8391C51.0034 12.9439 50.8911 13.0102 50.7418 13.0374C50.8165 13.0916 50.8775 13.1519 50.9257 13.2175C50.974 13.2831 51.0395 13.3991 51.1217 13.5657L51.329 13.9847H50.9182L50.6702 13.5175C50.5821 13.3501 50.5218 13.2454 50.4893 13.2017C50.4569 13.1587 50.4223 13.1286 50.3861 13.1127C50.3499 13.0961 50.2919 13.0886 50.2135 13.0886H50.1434V13.9847H49.7997ZM50.1434 12.7457H50.3974C50.5625 12.7457 50.665 12.7374 50.7057 12.7193C50.7471 12.702 50.7795 12.6718 50.8021 12.6289C50.8255 12.5859 50.8376 12.5324 50.8376 12.4676C50.8376 12.3952 50.8217 12.3372 50.7916 12.2927C50.7607 12.2482 50.7177 12.2204 50.6619 12.2083C50.6341 12.2038 50.5504 12.2015 50.4117 12.2015H50.1434V12.7457Z" fill="#332C2B"/>
<path d="M53.0481 13.9847H52.6751L52.5258 13.4971H51.8468L51.7058 13.9847H51.3418L52.0043 11.8382H52.3675L53.0481 13.9847ZM52.4158 13.1353L52.1814 12.3394L51.9523 13.1353H52.4158Z" fill="#332C2B"/>
<path d="M53.2313 13.9847V11.8382H53.575V12.6831H54.248V11.8382H54.5909V13.9847H54.248V13.0464H53.575V13.9847H53.2313Z" fill="#332C2B"/>
<path d="M55.6107 13.9847V11.8382H55.9544V12.7917L56.6478 11.8382H57.1098L56.4691 12.6741L57.1444 13.9847H56.6998L56.2325 12.9771L55.9544 13.3358V13.9847H55.6107Z" fill="#332C2B"/>
<path d="M58.8553 13.9847H58.4823L58.3338 13.4971H57.6539L57.513 13.9847H57.149L57.8115 11.8382H58.1747L58.8553 13.9847ZM58.223 13.1353L57.9893 12.3394L57.7595 13.1353H58.223Z" fill="#332C2B"/>
<path d="M59.0468 13.9847V11.8556H59.3904V13.623H60.2444V13.9847H59.0468Z" fill="#332C2B"/>
<path d="M60.4788 13.9847V11.8382H60.8217V13.9847H60.4788Z" fill="#332C2B"/>
<path d="M61.1443 13.9847V11.8382H61.6583L61.9666 13.3019L62.2718 11.8382H62.7873V13.9847H62.4678V12.295L62.1301 13.9847H61.8L61.4631 12.295V13.9847H61.1443Z" fill="#332C2B"/>
<path d="M64.6618 13.9847H64.2879L64.1395 13.4971H63.4596L63.3194 13.9847H62.9554L63.6171 11.8382H63.9804L64.6618 13.9847ZM64.0294 13.1353L63.795 12.3394L63.5651 13.1353H64.0294Z" fill="#332C2B"/>
<path d="M64.8472 13.9847V11.8382H65.1818L65.8775 13.271V11.8382H66.1963V13.9847H65.8518L65.166 12.5851V13.9847H64.8472Z" fill="#332C2B"/>
<path d="M66.9424 13.9847V12.2015H66.4382V11.8382H67.7888V12.2015H67.2861V13.9847H66.9424Z" fill="#332C2B"/>
<path d="M69.3686 13.9847H68.9947L68.8463 13.4971H68.1664L68.0263 13.9847H67.6615L68.324 11.8382H68.6872L69.3686 13.9847ZM68.7362 13.1353L68.5011 12.3394L68.272 13.1353H68.7362Z" fill="#332C2B"/>
<path d="M69.554 13.9847V11.8382H69.8879L70.5835 13.271V11.8382H70.9031V13.9847H70.5587L69.8728 12.5851V13.9847H69.554Z" fill="#332C2B"/>
<path d="M71.9274 11.8382H72.6072C72.7413 11.8382 72.8416 11.845 72.9079 11.8593C72.9742 11.8737 73.0338 11.9031 73.0858 11.9483C73.1378 11.9927 73.1815 12.053 73.2162 12.1277C73.2508 12.2023 73.2682 12.2859 73.2682 12.3786C73.2682 12.4789 73.2471 12.5716 73.2041 12.6552C73.1611 12.7389 73.1031 12.8022 73.0293 12.8444C73.1333 12.8821 73.2124 12.9469 73.2682 13.0389C73.3239 13.1308 73.3518 13.2378 73.3518 13.3622C73.3518 13.4602 73.3345 13.5551 73.2976 13.6471C73.2621 13.739 73.2124 13.8129 73.1506 13.8679C73.088 13.9229 73.0119 13.9569 72.92 13.9697C72.8634 13.9772 72.7248 13.9825 72.5062 13.9847H71.9274V11.8382ZM72.271 12.1955V12.6914H72.4956C72.6298 12.6914 72.7127 12.6892 72.7451 12.6846C72.8039 12.6756 72.8499 12.65 72.8838 12.607C72.9177 12.5655 72.9343 12.509 72.9343 12.4397C72.9343 12.3734 72.92 12.3198 72.8906 12.2784C72.8619 12.2369 72.819 12.2113 72.7617 12.203C72.727 12.1977 72.6298 12.1955 72.4678 12.1955H72.271ZM72.271 13.0487V13.623H72.5891C72.7119 13.623 72.7903 13.6185 72.8242 13.6102C72.8747 13.5981 72.9162 13.5695 72.9486 13.5242C72.981 13.479 72.9968 13.418 72.9968 13.3418C72.9968 13.277 72.9848 13.2228 72.9592 13.1775C72.935 13.1331 72.8996 13.0999 72.8529 13.0796C72.8054 13.0592 72.7037 13.0487 72.5484 13.0487H72.271Z" fill="#332C2B"/>
<path d="M75.1758 13.9847H74.8019L74.6535 13.4971H73.9736L73.8334 13.9847H73.4687L74.1311 11.8382H74.4944L75.1758 13.9847ZM74.5434 13.1353L74.309 12.3394L74.0791 13.1353H74.5434Z" fill="#332C2B"/>
<path d="M75.3589 13.9847V11.8382H76.0817C76.2633 11.8382 76.3952 11.8578 76.4774 11.8963C76.5595 11.9347 76.6259 12.0033 76.6756 12.102C76.7254 12.2 76.7495 12.3131 76.7495 12.4397C76.7495 12.601 76.7118 12.7336 76.6372 12.8391C76.5626 12.9439 76.4503 13.0102 76.301 13.0374C76.3749 13.0916 76.4359 13.1519 76.4842 13.2175C76.5324 13.2831 76.598 13.3991 76.6801 13.5657L76.8882 13.9847H76.4774L76.2287 13.5175C76.1405 13.3501 76.0802 13.2454 76.0478 13.2017C76.0154 13.1587 75.9807 13.1286 75.9445 13.1127C75.9083 13.0961 75.8511 13.0886 75.7719 13.0886H75.7026V13.9847H75.3589ZM75.7026 12.7457H75.9558C76.1209 12.7457 76.2241 12.7374 76.2648 12.7193C76.3055 12.702 76.338 12.6718 76.3613 12.6289C76.3847 12.5859 76.396 12.5324 76.396 12.4676C76.396 12.3952 76.3809 12.3372 76.35 12.2927C76.3199 12.2482 76.2769 12.2204 76.2211 12.2083C76.1925 12.2038 76.1096 12.2015 75.9702 12.2015H75.7026V12.7457Z" fill="#332C2B"/>
<path d="M78.6073 13.9847H78.2335L78.085 13.4971H77.4052L77.265 13.9847H76.9002L77.5627 11.8382H77.926L78.6073 13.9847ZM77.9742 13.1353L77.7406 12.3394L77.5107 13.1353H77.9742Z" fill="#332C2B"/>
<path d="M78.9955 13.9847V12.2015H78.4913V11.8382H79.8426V12.2015H79.3392V13.9847H78.9955Z" fill="#332C2B"/>
</g>
<defs>
<clipPath id="clip0_801_8295">
<rect width="79.9667" height="18.0961" fill="white" transform="translate(0.5)"/>
</clipPath>
</defs>
</svg>
