<svg width="80" height="9" viewBox="0 0 80 9" fill="none" xmlns="http://www.w3.org/2000/svg">
<g clip-path="url(#clip0_801_8206)">
<g clip-path="url(#clip1_801_8206)">
<path d="M4.22419 7.08804L2.25018 5.20609C2.25018 5.20609 9.58707 -0.865937 12.0963 1.80698C12.0963 1.80698 7.9199 2.65249 4.22078 7.08804" fill="#003058"/>
<path d="M1.84786 4.82759L0 3.06496C0 3.06496 5.36288 -1.4149 10.2041 0.664793C10.2041 0.664793 5.22992 1.44553 1.85127 4.82759" fill="#003058"/>
<path d="M15.0079 0.112488L16.9819 1.99444C16.9819 1.99444 9.645 8.06987 7.13232 5.39354C7.13232 5.39354 11.3088 4.54803 15.0079 0.112488Z" fill="#C72127"/>
<path d="M17.3808 2.37628L19.2287 4.13891C19.2287 4.13891 13.8658 8.62218 9.02454 6.53908C9.02454 6.53908 13.9988 5.75834 17.3774 2.37628" fill="#C72127"/>
<path d="M26.0643 3.31728C26.886 3.04453 26.9099 1.85467 26.9099 1.85467C26.9099 0.23183 24.9461 0.255696 24.9461 0.255696H20.8378V6.51864C20.9742 6.84935 21.4208 6.94481 21.4208 6.94481H24.7415C27.1485 6.94481 27.1383 5.06626 27.1383 5.06626C27.1383 3.59002 26.0643 3.31728 26.0643 3.31728ZM22.9823 1.90922H24.2847C24.2847 1.90922 24.7415 1.90922 24.7415 2.34221C24.7415 2.34221 24.7858 2.8502 24.2335 2.8502H22.9857V1.90581L22.9823 1.90922ZM24.4654 5.33901H22.9823V4.2753H24.5131C24.5131 4.2753 25.0381 4.37758 25.0381 4.76624C25.0381 4.76624 25.0586 5.3356 24.4654 5.3356" fill="#003058"/>
<path d="M32.9137 6.47092V3.36161C32.9137 1.7149 30.4726 1.94333 30.4726 1.94333C27.7554 1.94333 27.6872 3.6139 27.6872 3.6139H29.2384C29.3646 3.05477 30.3328 3.08546 30.3328 3.08546C31.1545 3.08546 31.042 3.50821 31.042 3.50821C31.042 4.06734 29.4328 4.06735 29.4328 4.06735C27.3088 4.22758 27.469 5.72428 27.469 5.72428C27.469 6.84254 28.3691 7.06074 28.3691 7.06074C30.2306 7.4835 31.1068 6.46752 31.1068 6.46752C31.2568 6.85618 32.0546 6.94141 32.0546 6.94141H33.299C32.9444 6.79822 32.9103 6.46752 32.9103 6.46752M30.1044 5.9868C30.1044 5.9868 29.5692 6.03112 29.5692 5.47199C29.5692 5.47199 29.518 4.86513 30.892 4.66057L30.9499 4.6708C30.9499 4.6708 31.0181 5.9868 30.1044 5.9868Z" fill="#003058"/>
<path d="M33.8035 6.94483V2.05925C33.8035 2.05925 35.5593 1.92288 35.5593 2.76839C35.5593 2.76839 36.0162 1.99107 37.1788 1.99107C37.1788 1.99107 39.1187 1.76264 39.1187 3.61391V6.94483H37.8879C37.8879 6.94483 37.2129 6.92778 37.2129 6.44706V3.94461C37.2129 3.94461 37.2469 3.19115 36.5617 3.19115C36.5617 3.19115 35.6991 3.29343 35.6991 4.05371V6.94483H33.8001H33.8035Z" fill="#003058"/>
<path d="M39.8074 6.94479V1.16597C39.8074 1.16597 39.9437 0.160217 40.7654 0.160217H41.7916V3.42977L43.0633 2.03535H45.385L43.5576 4.01276L45.6339 6.94479H43.8304C43.8304 6.94479 43.469 7.0198 43.0803 6.51181L42.2212 5.43105C42.2212 5.43105 41.7882 5.48901 41.7882 5.91176V6.94479H39.804H39.8074Z" fill="#003058"/>
<path d="M52.439 2.88092H50.5229C50.5229 2.88092 50.1104 1.72515 49.1081 1.72515C49.1081 1.72515 47.7852 1.64674 47.7852 3.60029C47.7852 3.60029 47.7273 5.58793 49.166 5.58793C49.166 5.58793 50.3422 5.49247 50.3422 4.33329H52.3947C52.3947 4.33329 52.6231 7.26873 49.2342 7.26873C49.2342 7.26873 45.6067 7.56534 45.6067 3.59006C45.6067 3.59006 45.5146 0.0443516 48.9615 0.0443516C48.9615 0.0443516 52.4424 -0.207939 52.4424 2.87751" fill="#003058"/>
<path d="M58.0507 6.47092V3.36161C58.0507 1.7149 55.6096 1.94333 55.6096 1.94333C52.8924 1.94333 52.8242 3.6139 52.8242 3.6139H54.3755C54.5016 3.05477 55.4699 3.08546 55.4699 3.08546C56.2915 3.08546 56.179 3.50821 56.179 3.50821C56.179 4.06734 54.5698 4.06735 54.5698 4.06735C52.4458 4.22758 52.606 5.72428 52.606 5.72428C52.606 6.84254 53.5061 7.06074 53.5061 7.06074C55.3676 7.4835 56.2438 6.46752 56.2438 6.46752C56.3938 6.85618 57.1916 6.94141 57.1916 6.94141H58.436C58.0814 6.79822 58.0473 6.46752 58.0473 6.46752M55.2414 5.9868C55.2414 5.9868 54.7062 6.03112 54.7062 5.47199C54.7062 5.47199 54.655 4.86513 56.029 4.66057L56.087 4.6708C56.087 4.6708 56.1551 5.9868 55.2414 5.9868Z" fill="#003058"/>
<path d="M77.0305 6.47092V3.36161C77.0305 1.7149 74.5894 1.94333 74.5894 1.94333C71.8721 1.94333 71.804 3.6139 71.804 3.6139H73.3552C73.4814 3.05477 74.4496 3.08546 74.4496 3.08546C75.2712 3.08546 75.1587 3.50821 75.1587 3.50821C75.1587 4.06734 73.5495 4.06735 73.5495 4.06735C71.4255 4.22758 71.5858 5.72428 71.5858 5.72428C71.5858 6.84254 72.4858 7.06074 72.4858 7.06074C74.3473 7.4835 75.2235 6.46752 75.2235 6.46752C75.3701 6.85618 76.1713 6.94141 76.1713 6.94141H77.4157C77.0612 6.79822 77.0271 6.46752 77.0271 6.46752M74.2212 5.9868C74.2212 5.9868 73.6859 6.03112 73.6859 5.47199C73.6859 5.47199 73.6348 4.86513 75.0087 4.66057L75.0667 4.6708C75.0667 4.6708 75.1349 5.9868 74.2212 5.9868Z" fill="#003058"/>
<path d="M64.5012 4.50376C64.5012 1.72515 62.3329 1.94335 62.3329 1.94335C60.9862 1.94335 60.7578 2.69681 60.7578 2.69681C60.6452 1.89562 58.9747 1.94335 58.9747 1.94335V8.03242C58.9747 8.57109 59.7384 8.66656 59.7384 8.66656H60.935V6.62096C61.2589 7.22782 62.2783 7.18009 62.2783 7.18009C64.6512 7.18009 64.5046 4.50376 64.5046 4.50376M61.7158 5.64589C61.2589 5.64589 60.8873 5.1379 60.8873 4.51399C60.8873 3.89008 61.2589 3.38209 61.7158 3.38209C62.1726 3.38209 62.5442 3.89008 62.5442 4.51399C62.5442 5.1379 62.1726 5.64589 61.7158 5.64589Z" fill="#003058"/>
<path d="M65.2546 0H67.1264V1.32623H65.8035C65.8035 1.32623 65.2546 1.25804 65.2546 0.855743V0Z" fill="#003058"/>
<path d="M65.2546 6.3448V2.0354H67.1264V6.94484H65.9161C65.9161 6.94484 65.2546 6.8937 65.2546 6.3448Z" fill="#003058"/>
<path d="M70.3004 0.473877V2.03535H71.1664V3.13316H70.3004V5.15489C70.3004 5.15489 70.2766 5.72766 71.1664 5.72766V6.94479H69.1447C68.5378 6.79478 68.4764 6.27656 68.473 6.11632V6.07541V3.13316H67.6616V2.03535H68.473V1.18984C68.473 1.18984 68.4833 0.473877 69.3902 0.473877H70.297H70.3004Z" fill="#003058"/>
<path d="M78.9022 0.139762H79.9966V6.24588C79.9966 6.24588 80.0409 6.9482 79.2772 6.9482H78.0567V0.981867C78.0567 0.981867 78.0499 0.207949 78.9022 0.136353" fill="#003058"/>
</g>
</g>
<defs>
<clipPath id="clip0_801_8206">
<rect width="80" height="8.66652" fill="white"/>
</clipPath>
<clipPath id="clip1_801_8206">
<rect width="80" height="8.66652" fill="white"/>
</clipPath>
</defs>
</svg>
