<svg width="81" height="60" viewBox="0 0 81 60" fill="none" xmlns="http://www.w3.org/2000/svg">
<g clip-path="url(#clip0_801_8517)">
<g clip-path="url(#clip1_801_8517)">
<path d="M25.0808 20.1935C30.1296 20.0897 46.6117 14.1719 47.3705 10.5827L47.621 9.36047C41.9501 13.3081 30.168 17.6353 25.6055 17.6125H25.5979L25.0798 20.1652L25.0808 20.1935Z" fill="url(#paint0_linear_801_8517)"/>
<path d="M49.5265 1.32859L49.6176 0.85791C42.5347 5.62542 31.8381 8.82147 27.6552 8.82906L27.1314 11.4102C32.324 11.3874 48.6687 5.38249 49.4278 1.79927C49.4278 1.79927 49.4734 1.56393 49.5265 1.32859Z" fill="url(#paint1_linear_801_8517)"/>
<path d="M48.6838 5.01809C41.358 10.0893 31.1094 13.1563 26.6683 13.2777L26.1748 15.6539C31.1853 15.6387 47.7121 9.62618 48.4713 6.04296L48.6838 5.01809Z" fill="url(#paint2_linear_801_8517)"/>
<path fill-rule="evenodd" clip-rule="evenodd" d="M74.6318 38.9221C73.0908 38.9221 71.8457 37.2671 71.8457 35.225C71.8457 33.1828 73.0908 31.5203 74.6318 31.5203C76.1729 31.5203 77.4179 33.1752 77.4179 35.225C77.4179 37.2747 76.1729 38.9221 74.6318 38.9221ZM78.9666 30.8674C78.8983 30.7839 78.8224 30.6928 78.7465 30.6169C78.625 30.4878 78.4808 30.3664 78.3365 30.2525C77.547 29.6072 76.5829 29.22 75.5504 29.22C74.4345 29.22 73.4096 29.6679 72.5821 30.4119C72.5593 30.4271 72.5366 30.4423 72.5138 30.4575C72.4834 30.4726 72.4455 30.4954 72.3923 30.4802C72.2557 30.4423 72.1114 30.298 72.1114 30.0931V25.781C72.1114 25.5077 71.8913 25.2876 71.618 25.2876H69.5151C69.2418 25.2876 69.0217 25.5077 69.0217 25.781V25.9329C69.0217 25.9329 69.0217 25.9405 69.0217 25.9481V40.3569C69.0217 40.6302 69.2494 40.8579 69.5227 40.8579H71.4206C71.5421 40.8579 71.6559 40.8124 71.7394 40.7364C71.7394 40.7364 71.7394 40.7364 71.747 40.7364C71.747 40.7364 71.747 40.7365 71.747 40.7289C71.785 40.6909 71.823 40.6529 71.8457 40.6074C71.8761 40.5467 71.8989 40.4783 71.9065 40.41C71.9444 40.1063 72.1494 39.9317 72.286 39.9773C72.3316 39.9925 72.3772 40.0153 72.4151 40.0456C72.4607 40.076 72.4986 40.1063 72.5442 40.1291C72.6732 40.2202 73.2426 40.615 73.6753 40.8048C73.8955 40.9035 74.6015 41.1388 75.4214 41.1388C76.2413 41.1388 76.8182 40.9566 76.9549 40.9186C77.0915 40.8807 77.2282 40.8351 77.3572 40.7744C77.9949 40.5011 78.5111 40.1215 78.9059 39.6433C79.2931 39.1726 79.6119 38.6108 79.8776 37.9731C80.2648 37.1305 80.4849 36.1663 80.4849 35.1339C80.4849 33.4561 79.8928 31.9378 78.9514 30.8598L78.9666 30.8674Z" fill="#2B5E87"/>
<path fill-rule="evenodd" clip-rule="evenodd" d="M2.48152 36.8192C2.48152 37.0621 2.52707 37.2975 2.57262 37.5176C2.94461 38.8461 4.05298 39.7647 5.44983 39.7647C7.454 39.7647 8.65347 38.1325 8.65347 35.7108C8.65347 33.5928 7.56029 31.786 5.51056 31.786C4.20481 31.786 2.98257 32.6818 2.5878 34.1394C2.54226 34.3595 2.48152 34.6176 2.48152 34.9289V36.8268V36.8192ZM0.583629 25.5685H2.48152V32.1959H2.52707C3.20272 31.0192 4.42497 30.2601 6.12548 30.2601C8.74457 30.2601 10.5969 32.4389 10.5741 35.6425C10.5741 39.4155 8.19798 41.2906 5.84459 41.2906C4.31868 41.2906 3.09644 40.6985 2.31451 39.3092H2.24618L2.16268 41.0553H0.500122C0.545672 40.3341 0.583629 39.2637 0.583629 38.3299V25.5685Z" fill="#2B5E87"/>
<path fill-rule="evenodd" clip-rule="evenodd" d="M18.2948 35.6653C16.1995 35.6197 13.8233 35.9917 13.8233 38.0414C13.8233 39.2865 14.6508 39.871 15.6301 39.871C17.0042 39.871 17.8772 38.998 18.1809 38.1022C18.2492 37.9048 18.2948 37.6846 18.2948 37.4948V35.6653ZM20.1471 38.5197C20.1471 39.4383 20.1927 40.3265 20.3217 41.0477H18.5757L18.4238 39.7192H18.3555C17.7634 40.5467 16.6322 41.2906 15.1291 41.2906C12.9883 41.2906 11.9027 39.7875 11.9027 38.2616C11.9027 35.7108 14.165 34.314 18.2492 34.3368V34.1166C18.2492 33.2436 18.0063 31.6721 15.8503 31.6721C14.871 31.6721 13.8461 31.9758 13.1021 32.4616L12.6618 31.1938C13.5349 30.6245 14.8026 30.2601 16.1312 30.2601C19.3576 30.2601 20.1395 32.4616 20.1395 34.5797V38.5273L20.1471 38.5197Z" fill="#2B5E87"/>
<path fill-rule="evenodd" clip-rule="evenodd" d="M23.0926 33.3498C23.0926 32.2643 23.0699 31.3684 23.0091 30.4954H24.7096L24.8235 32.2415H24.8691C25.3929 31.2394 26.6151 30.2601 28.3612 30.2601C29.8188 30.2601 32.0887 31.1331 32.0887 34.7467V41.0477H30.168V34.9669C30.168 33.2663 29.5379 31.8467 27.7235 31.8467C26.4557 31.8467 25.4764 32.7425 25.15 33.8129C25.0665 34.0483 25.0209 34.3823 25.0209 34.7087V41.0553H23.1002V33.3574L23.0926 33.3498Z" fill="#2B5E87"/>
<path fill-rule="evenodd" clip-rule="evenodd" d="M36.7803 35.3388H36.8258C37.0915 34.9669 37.4559 34.5114 37.7672 34.1394L40.8645 30.4954H43.1724L39.0957 34.8378L43.7417 41.0477H41.4111L37.7672 35.9917L36.7878 37.0849V41.0553H34.8899V25.5761H36.7878V35.3388H36.7803Z" fill="#2B5E87"/>
<path fill-rule="evenodd" clip-rule="evenodd" d="M55.205 38.9221C53.6639 38.9221 52.4189 37.2671 52.4189 35.225C52.4189 33.1828 53.6639 31.5203 55.205 31.5203C56.7461 31.5203 57.9911 33.1752 57.9911 35.225C57.9911 37.2747 56.7461 38.9221 55.205 38.9221ZM59.5398 30.8674C59.4715 30.7839 59.3956 30.6928 59.3196 30.6169C59.1982 30.4878 59.0539 30.3664 58.9097 30.2525C58.1126 29.6072 57.156 29.22 56.1236 29.22C55.0076 29.22 53.9828 29.6679 53.1553 30.4119C53.1325 30.4271 53.1097 30.4423 53.087 30.4575C53.0566 30.4726 53.0186 30.4954 52.9655 30.4802C52.8288 30.4423 52.6846 30.298 52.6846 30.0931V25.781C52.6846 25.5077 52.4644 25.2876 52.1911 25.2876H50.0883C49.815 25.2876 49.5948 25.5077 49.5948 25.781V25.9329C49.5948 25.9329 49.5948 25.9405 49.5948 25.9481V40.3569C49.5948 40.6302 49.8226 40.8579 50.0959 40.8579H51.9938C52.1152 40.8579 52.2215 40.8124 52.3126 40.7364C52.3126 40.7364 52.3126 40.7364 52.3202 40.7364C52.3202 40.7364 52.3202 40.7365 52.3202 40.7289C52.3582 40.6909 52.3961 40.6529 52.4189 40.6074C52.4493 40.5467 52.472 40.4783 52.4796 40.41C52.5176 40.1063 52.7302 39.9317 52.8592 39.9773C52.9048 39.9925 52.9503 40.0153 52.9883 40.0456C53.0338 40.076 53.0718 40.1063 53.1173 40.1291C53.2464 40.2202 53.8157 40.615 54.2485 40.8048C54.4686 40.9035 55.1746 41.1388 55.9945 41.1388C56.8144 41.1388 57.3914 40.9566 57.528 40.9186C57.6647 40.8807 57.8013 40.8351 57.9304 40.7744C58.5681 40.5011 59.0843 40.1215 59.4791 39.6433C59.8662 39.1726 60.1851 38.6108 60.4508 37.9731C60.8379 37.1305 61.0581 36.1663 61.0581 35.1339C61.0581 33.4561 60.466 31.9378 59.5246 30.8598L59.5398 30.8674Z" fill="#2B5E87"/>
<path fill-rule="evenodd" clip-rule="evenodd" d="M66.5392 30.465C66.5392 30.465 66.5392 30.4119 66.5316 30.3815V30.0171C66.5316 29.7438 66.3115 29.5161 66.0306 29.5161H63.9125C63.6316 29.5161 63.4115 29.7438 63.4115 30.0171V41.4197C63.4039 41.7082 63.0471 42.1105 62.6371 42.2092C62.4474 42.2699 62.2576 42.2927 62.0678 42.2851C61.878 42.2851 61.7489 42.3535 61.673 42.5129C61.6427 42.5812 61.6199 42.6799 61.6047 42.8014C61.5895 42.9152 61.6047 44.1375 61.6199 44.2438C61.6199 44.3424 61.6427 44.4335 61.673 44.5019C61.7565 44.6309 61.916 44.722 62.1285 44.76C62.2044 44.7903 63.6089 44.7903 64.5502 44.5626C64.9222 44.4715 65.2183 44.2969 65.4688 44.1071C65.7117 43.9173 65.9319 43.6744 66.1217 43.3859C66.3418 43.0367 66.4557 42.5964 66.4785 42.065C66.4785 41.9056 66.5164 41.488 66.5164 41.4349V31.08C66.5164 31.0192 66.5164 30.9661 66.524 30.9054C66.524 30.7611 66.524 30.6169 66.524 30.465" fill="#2B5E87"/>
<path fill-rule="evenodd" clip-rule="evenodd" d="M54.1194 55.5248H55.5466V50.7953C55.5466 50.5372 55.5618 50.3246 55.6453 50.112C55.9186 49.3529 56.6322 48.7076 57.5584 48.7076C58.9021 48.7076 59.3728 49.7628 59.3728 51.023V55.5248H60.8V50.8636C60.8 48.1762 59.1147 47.5309 58.067 47.5309C57.5356 47.5309 57.0346 47.6751 56.6094 47.9181C56.1691 48.161 55.8199 48.533 55.5922 48.9353H55.5618V44.0312H54.1346V55.5248H54.1194ZM50.4451 52.883C50.4451 53.012 50.4299 53.1714 50.3768 53.3385C50.149 53.9989 49.4885 54.6518 48.4485 54.6518C47.7349 54.6518 47.12 54.2343 47.12 53.2929C47.12 51.7746 48.8888 51.4937 50.4375 51.5317V52.8906L50.4451 52.883ZM51.8192 50.7118C51.8192 49.1555 51.2346 47.5233 48.8433 47.5233C47.8564 47.5233 46.8998 47.7966 46.2545 48.2066L46.581 49.1631C47.1276 48.7911 47.8943 48.5785 48.6383 48.5785C50.2401 48.5634 50.4223 49.7476 50.4223 50.3777V50.5372C47.3933 50.522 45.7079 51.5544 45.7079 53.4523C45.7079 54.5835 46.5202 55.6994 48.1069 55.6994C49.2228 55.6994 50.0655 55.1528 50.4982 54.5379H50.5514L50.6652 55.5248H51.9406C51.8571 54.9934 51.8268 54.3254 51.8268 53.6497V50.7194L51.8192 50.7118ZM43.2407 44.6082C42.7093 44.6082 42.3525 45.0105 42.3525 45.4964C42.3525 45.9822 42.6941 46.3694 43.2103 46.3694C43.7797 46.3694 44.1213 45.9822 44.1213 45.4964C44.1213 45.0105 43.7645 44.6082 43.2483 44.6082H43.2407ZM43.9543 55.5172V47.6827H42.5271V55.5172H43.9543ZM37.175 55.5172H38.6022V51.3419C38.6022 51.1141 38.6174 50.8712 38.6478 50.6814C38.8452 49.611 39.5512 48.867 40.5609 48.867C40.7582 48.867 40.9025 48.867 41.0467 48.8974V47.5537C40.9177 47.5385 40.8038 47.5233 40.6595 47.5233C39.703 47.5233 38.83 48.1838 38.4732 49.239H38.4276L38.3669 47.6827H37.1219C37.1674 48.4115 37.1902 49.2086 37.1902 50.1272V55.5172H37.175ZM33.5007 52.8754C33.5007 53.0044 33.4855 53.1639 33.44 53.3309C33.2122 53.9913 32.5517 54.6442 31.5117 54.6442C30.7981 54.6442 30.1832 54.2267 30.1832 53.2853C30.1832 51.767 31.9444 51.4861 33.5007 51.5241V52.883V52.8754ZM34.8748 50.7042C34.8748 49.1479 34.2902 47.5157 31.8989 47.5157C30.912 47.5157 29.9554 47.789 29.3101 48.199L29.6366 49.1555C30.1908 48.7835 30.9499 48.571 31.6939 48.571C33.2957 48.5558 33.4779 49.7401 33.4779 50.3702V50.5296C30.4489 50.5144 28.7711 51.5469 28.7711 53.4447C28.7711 54.5759 29.5834 55.6919 31.1701 55.6919C32.286 55.6919 33.1287 55.1453 33.569 54.5303H33.6146L33.7284 55.5172H35.0038C34.9203 54.9858 34.8899 54.3178 34.8899 53.6421V50.7118L34.8748 50.7042ZM20.7772 47.6751L23.662 54.8947C23.7455 55.0693 23.7759 55.1832 23.7759 55.2667C23.7759 55.3502 23.7303 55.4641 23.662 55.6083C23.3204 56.3371 22.8497 56.8837 22.4625 57.195C22.045 57.5518 21.5743 57.7795 21.2175 57.8934L21.5743 59.0777C21.9311 59.017 22.6068 58.7664 23.3204 58.1743C24.2921 57.3164 24.9905 55.9576 26.0078 53.2701L28.1486 47.6827H26.6455L25.0892 52.2832C24.8918 52.8526 24.7324 53.4523 24.5882 53.9154H24.5578C24.4288 53.4447 24.2314 52.8298 24.0416 52.3136L22.3411 47.6827H20.7848L20.7772 47.6751ZM14.871 55.1377C15.4176 55.4641 16.2147 55.6843 17.0725 55.6843C18.9021 55.6843 19.9877 54.7125 19.9877 53.3233C19.9877 52.1542 19.2741 51.4785 17.9304 50.9775C16.9131 50.5751 16.4576 50.2791 16.4576 49.6338C16.4576 49.0492 16.9131 48.5634 17.7558 48.5634C18.4846 48.5634 19.0539 48.8367 19.3576 49.034L19.6992 48.0016C19.2817 47.7283 18.5833 47.5157 17.7861 47.5157C16.116 47.5157 15.0835 48.5482 15.0835 49.816C15.0835 50.7573 15.7516 51.5165 17.1712 52.0327C18.2037 52.4199 18.6136 52.7767 18.6136 53.4599C18.6136 54.1432 18.1278 54.6214 17.1105 54.6214C16.3969 54.6214 15.6529 54.333 15.2202 54.0748L14.8786 55.1453L14.871 55.1377Z" fill="#B53838"/>
<path fill-rule="evenodd" clip-rule="evenodd" d="M64.9905 28.3014C65.8484 28.3014 66.5468 27.603 66.5468 26.7452C66.5468 25.8873 65.8484 25.1889 64.9905 25.1889C64.1327 25.1889 63.4343 25.8873 63.4343 26.7452C63.4343 27.603 64.1327 28.3014 64.9905 28.3014Z" fill="#2B5E87"/>
</g>
</g>
<defs>
<linearGradient id="paint0_linear_801_8517" x1="26.8932" y1="7.95971" x2="49.6134" y2="7.1663" gradientUnits="userSpaceOnUse">
<stop stop-color="#3CAAE0"/>
<stop offset="0.12" stop-color="#3780AC"/>
<stop offset="0.42" stop-color="#306086"/>
<stop offset="0.56" stop-color="#898870"/>
<stop offset="1" stop-color="#ECC931"/>
</linearGradient>
<linearGradient id="paint1_linear_801_8517" x1="26.8932" y1="7.95971" x2="49.6134" y2="7.1663" gradientUnits="userSpaceOnUse">
<stop stop-color="#3CAAE0"/>
<stop offset="0.12" stop-color="#3780AC"/>
<stop offset="0.42" stop-color="#306086"/>
<stop offset="0.56" stop-color="#898870"/>
<stop offset="1" stop-color="#ECC931"/>
</linearGradient>
<linearGradient id="paint2_linear_801_8517" x1="26.8932" y1="7.95971" x2="49.6134" y2="7.1663" gradientUnits="userSpaceOnUse">
<stop stop-color="#3CAAE0"/>
<stop offset="0.12" stop-color="#3780AC"/>
<stop offset="0.42" stop-color="#306086"/>
<stop offset="0.56" stop-color="#898870"/>
<stop offset="1" stop-color="#ECC931"/>
</linearGradient>
<clipPath id="clip0_801_8517">
<rect width="80" height="59.0852" fill="white" transform="translate(0.5)"/>
</clipPath>
<clipPath id="clip1_801_8517">
<rect width="80" height="59.0852" fill="white" transform="translate(0.5)"/>
</clipPath>
</defs>
</svg>
