<svg width="81" height="28" viewBox="0 0 81 28" fill="none" xmlns="http://www.w3.org/2000/svg">
<g clip-path="url(#clip0_801_8268)">
<path fill-rule="evenodd" clip-rule="evenodd" d="M22.1023 27.2885L26.4754 0.337402H3.83728C2.18043 0.337402 0.83728 1.68055 0.83728 3.3374V24.2885C0.83728 25.9454 2.18043 27.2885 3.83728 27.2885H22.1023Z" fill="url(#paint0_linear_801_8268)"/>
<path fill-rule="evenodd" clip-rule="evenodd" d="M26.4754 0.337402L22.1023 27.2885H53.7867L49.4149 0.337402H26.4754Z" fill="url(#paint1_linear_801_8268)"/>
<path fill-rule="evenodd" clip-rule="evenodd" d="M49.4149 0.337402L53.7867 27.2885H77.1613C78.8182 27.2885 80.1613 25.9454 80.1613 24.2885V3.3374C80.1613 1.68054 78.8182 0.337402 77.1613 0.337402H49.4149Z" fill="url(#paint2_linear_801_8268)"/>
<path fill-rule="evenodd" clip-rule="evenodd" d="M4.22134 0H76.7787C77.8027 0 78.7327 0.419306 79.4074 1.09261C80.082 1.76727 80.5 2.69726 80.5 3.72134V23.9045C80.5 24.9285 80.0807 25.8585 79.4074 26.5332C78.7327 27.2078 77.8027 27.6258 76.7787 27.6258H4.22134C3.19726 27.6258 2.26727 27.2065 1.59261 26.5332C0.917962 25.8585 0.5 24.9285 0.5 23.9045V3.72134C0.5 2.69726 0.919306 1.76727 1.59261 1.09261C2.26727 0.417962 3.19726 0 4.22134 0ZM76.7773 0.675996H4.22134C3.38407 0.675996 2.62206 1.0187 2.07105 1.57105C1.5187 2.12341 1.176 2.88407 1.176 3.72134V23.9045C1.176 24.7417 1.5187 25.5037 2.07105 26.0547C2.62341 26.6071 3.38407 26.9498 4.22134 26.9498H76.7787C77.6159 26.9498 78.3779 26.6071 78.929 26.0547C79.4813 25.5024 79.824 24.7417 79.824 23.9045V3.72134C79.824 2.88407 79.4813 2.12206 78.929 1.57105C78.3766 1.0187 77.6159 0.675996 76.7787 0.675996H76.7773Z" fill="white"/>
<path fill-rule="evenodd" clip-rule="evenodd" d="M21.0016 4.67566C20.8484 4.82349 20.8148 4.89875 20.7153 5.09093C20.6306 5.25624 20.5514 5.43095 20.4774 5.61372C20.2328 6.21983 20.046 6.91599 19.8821 7.65918C19.4009 9.8471 19.1792 11.9705 18.8056 14.1517C18.7465 14.4998 18.6725 14.8935 18.5489 15.2604C18.3836 15.755 18.135 16.2039 17.6659 16.4606C17.5087 16.5466 17.3286 16.6111 17.1203 16.6501H10.9369C11.2621 16.3047 11.5376 15.63 11.7782 14.7659C11.9663 14.0912 12.133 13.3037 12.2862 12.4678C12.5604 10.9666 12.731 9.44795 12.977 7.94275C13.1759 6.72649 13.6167 5.02508 14.7187 4.67566H21.0002H21.0016Z" fill="#F0B300"/>
<path fill-rule="evenodd" clip-rule="evenodd" d="M28.8784 14.3103C28.8784 14.5643 28.8408 14.7995 28.7668 15.0159C28.6902 15.2296 28.5854 15.4244 28.4483 15.5951C28.3113 15.7658 28.1473 15.9163 27.9551 16.0467C27.7629 16.1743 27.5466 16.2845 27.3073 16.3719C27.0654 16.4593 26.8074 16.5251 26.5332 16.5681C26.2591 16.6125 25.9433 16.634 25.5898 16.634H23.1223C23.0108 16.634 22.906 16.6017 22.8065 16.5372C22.7071 16.4713 22.6573 16.3571 22.6573 16.1958V8.97088C22.6573 8.80827 22.7071 8.69538 22.8065 8.62952C22.906 8.56501 23.0108 8.53276 23.1223 8.53276H25.2686C25.8317 8.53276 26.294 8.57711 26.6528 8.66984C27.0144 8.76123 27.3154 8.89697 27.5546 9.07168C27.7965 9.24639 27.978 9.46276 28.0976 9.71676C28.2199 9.97076 28.2817 10.2597 28.2817 10.5796C28.2817 10.7717 28.2548 10.9559 28.1997 11.1306C28.1473 11.3053 28.068 11.4679 27.9632 11.6157C27.8584 11.7636 27.7293 11.8953 27.5694 12.0135C27.4122 12.1305 27.2307 12.2245 27.0265 12.3025C27.2832 12.3428 27.5251 12.4194 27.7481 12.5309C27.9726 12.6398 28.1661 12.7809 28.3354 12.9516C28.5021 13.1223 28.6338 13.3239 28.7319 13.5537C28.8287 13.7821 28.8784 14.0348 28.8784 14.3103ZM72.7442 14.2028C72.7442 14.4917 72.6999 14.7525 72.6071 14.985C72.513 15.2201 72.3854 15.4271 72.2241 15.6072C72.0601 15.7873 71.8653 15.9405 71.6395 16.0682C71.4151 16.1985 71.1637 16.306 70.8923 16.3894C70.6208 16.4727 70.3292 16.5345 70.0201 16.5735C69.711 16.6138 69.3669 16.6326 68.9866 16.6326H66.4788C66.3175 16.6326 66.1818 16.5923 66.0729 16.5103C65.9627 16.4297 65.909 16.2966 65.909 16.1125V9.04883C65.909 8.86471 65.9641 8.73301 66.0729 8.65103C66.1831 8.57039 66.3175 8.52873 66.4788 8.52873H68.8495C69.4274 8.52873 69.9179 8.57173 70.3184 8.65506C70.7189 8.73838 71.0576 8.86471 71.3317 9.0327C71.6086 9.20204 71.8169 9.41572 71.9647 9.67376C72.1085 9.93179 72.1838 10.2382 72.1838 10.589C72.1838 10.7852 72.1542 10.9693 72.0937 11.1427C72.036 11.316 71.9513 11.4733 71.8397 11.6144C71.7282 11.7582 71.5911 11.8818 71.4258 11.9907C71.2645 12.0995 71.0777 12.1869 70.8681 12.2541C71.1369 12.2971 71.3842 12.3697 71.6099 12.4745C71.8344 12.5793 72.0333 12.7124 72.1999 12.879C72.3666 13.043 72.501 13.2365 72.5977 13.4583C72.6945 13.6787 72.7415 13.9259 72.7415 14.2015L72.7442 14.2028ZM70.2633 10.7919C70.2633 10.6279 70.2337 10.4815 70.176 10.3538C70.1182 10.2234 70.0295 10.1159 69.9125 10.0312C69.7983 9.94523 69.6505 9.87938 69.4717 9.83234C69.2943 9.78799 69.0578 9.7638 68.7621 9.7638H67.7905V11.867H68.8643C69.1411 11.867 69.3629 11.8388 69.5268 11.7837C69.6935 11.7286 69.8306 11.6493 69.9408 11.5526C70.051 11.4545 70.1303 11.3389 70.1854 11.2058C70.2378 11.0755 70.2647 10.937 70.2647 10.7919H70.2633ZM70.7512 14.2606C70.7512 14.0724 70.7162 13.9031 70.641 13.7566C70.5684 13.6074 70.4622 13.4824 70.3224 13.383C70.18 13.2849 70.0012 13.2056 69.7822 13.1518C69.5631 13.0981 69.2796 13.0712 68.9274 13.0712H67.7891V15.3747H69.1761C69.4422 15.3747 69.6666 15.3519 69.8507 15.3021C70.0322 15.2551 70.1894 15.1852 70.3238 15.0911C70.4582 14.9971 70.563 14.8801 70.6369 14.7404C70.7122 14.5993 70.7485 14.4407 70.7485 14.2619L70.7512 14.2606ZM65.2558 9.20607C65.2558 9.32837 65.2478 9.4305 65.2357 9.51652C65.2236 9.60253 65.2061 9.67241 65.1806 9.72348C65.155 9.77455 65.1255 9.81487 65.0905 9.83906C65.0529 9.86459 65.0139 9.87803 64.9682 9.87803H62.6043V16.4095C62.6043 16.4498 62.5895 16.4888 62.5572 16.5211C62.525 16.5547 62.4726 16.5829 62.4 16.6017C62.3274 16.6232 62.228 16.6407 62.103 16.6528C61.9807 16.6662 61.8261 16.6716 61.6393 16.6716C61.4525 16.6716 61.3007 16.6649 61.1757 16.6528C61.0534 16.6393 60.9539 16.6232 60.8814 16.6017C60.8061 16.5829 60.7537 16.5547 60.7241 16.5211C60.6919 16.4888 60.6771 16.4512 60.6771 16.4095V9.87803H58.3118C58.2647 9.87803 58.2217 9.86459 58.1895 9.83906C58.1545 9.81621 58.125 9.77455 58.0994 9.72348C58.0766 9.67241 58.0578 9.60118 58.0443 9.51652C58.0349 9.4305 58.0268 9.32837 58.0268 9.20607C58.0268 9.08377 58.0349 8.97491 58.0443 8.88756C58.0564 8.8002 58.0766 8.72897 58.0994 8.67791C58.125 8.62415 58.1545 8.58786 58.1895 8.56501C58.2217 8.54217 58.2647 8.53142 58.3118 8.53142H64.9655C65.0099 8.53142 65.0502 8.54217 65.0879 8.56501C65.1228 8.58786 65.1524 8.62549 65.1779 8.67791C65.2034 8.72897 65.2209 8.8002 65.233 8.88756C65.2451 8.97491 65.2532 9.08243 65.2532 9.20607H65.2558ZM57.3791 16.0561C57.3791 16.1528 57.3589 16.2375 57.3213 16.3141C57.281 16.3894 57.2286 16.4512 57.164 16.4996C57.0969 16.5506 57.0202 16.5869 56.9302 16.6111C56.8402 16.6326 56.7488 16.6447 56.656 16.6447H55.8389C55.6696 16.6447 55.5204 16.6299 55.3981 16.6004C55.2731 16.5721 55.1589 16.5197 55.0541 16.4418C54.9493 16.3652 54.8471 16.2603 54.7504 16.1273C54.6536 15.9969 54.5434 15.8263 54.4238 15.6166L52.0732 11.8294C51.9389 11.6023 51.7991 11.3617 51.658 11.101C51.5182 10.8403 51.3919 10.5863 51.279 10.3403H51.2642C51.2844 10.64 51.2991 10.9384 51.3086 11.2381C51.3166 11.5378 51.3207 11.8455 51.3207 12.1614V16.4015C51.3207 16.4418 51.3086 16.4808 51.2803 16.513C51.2548 16.5466 51.2078 16.5748 51.1432 16.599C51.0761 16.6219 50.9887 16.6393 50.8772 16.6528C50.7656 16.6662 50.6205 16.6716 50.4458 16.6716C50.271 16.6716 50.134 16.6649 50.0224 16.6528C49.9109 16.6393 49.8235 16.6232 49.759 16.599C49.6972 16.5748 49.6542 16.548 49.63 16.513C49.6045 16.4808 49.5924 16.4431 49.5924 16.4015V9.11871C49.5924 8.92384 49.6596 8.77736 49.7939 8.67791C49.9256 8.5798 50.091 8.53007 50.2845 8.53007H51.3153C51.4994 8.53007 51.6539 8.54351 51.7816 8.57039C51.9093 8.59861 52.0208 8.64296 52.1203 8.70478C52.2197 8.7666 52.3152 8.85396 52.4012 8.96551C52.4885 9.07436 52.5786 9.21144 52.67 9.37406L54.5098 12.3361C54.6173 12.5162 54.7221 12.6936 54.8256 12.8656C54.9304 13.039 55.0326 13.2123 55.1293 13.3843C55.2261 13.5577 55.3215 13.7284 55.4129 13.895C55.5056 14.0617 55.5943 14.2283 55.6817 14.395H55.6898C55.675 14.102 55.6642 13.7983 55.6575 13.4798C55.6494 13.1639 55.6481 12.8602 55.6481 12.574V8.77198C55.6481 8.73166 55.6629 8.69269 55.6911 8.65909C55.7207 8.62684 55.7704 8.59727 55.8376 8.57173C55.9048 8.54889 55.9948 8.52873 56.1064 8.52067C56.2179 8.50991 56.3631 8.50319 56.5378 8.50319C56.7125 8.50319 56.8415 8.50991 56.9531 8.52067C57.0646 8.52873 57.152 8.54889 57.2124 8.57173C57.2743 8.59727 57.3173 8.62684 57.3401 8.65909C57.3656 8.69269 57.3777 8.73166 57.3777 8.77198V16.0534L57.3791 16.0561ZM48.2699 16.4713C48.2699 16.5036 48.2605 16.5332 48.2431 16.5587C48.2229 16.5842 48.1906 16.6031 48.1436 16.6205C48.0966 16.638 48.0334 16.6501 47.9487 16.6595C47.8668 16.6676 47.7619 16.6729 47.6356 16.6729C47.5093 16.6729 47.3964 16.6689 47.3117 16.6622C47.227 16.6555 47.1545 16.6447 47.098 16.6326C47.0389 16.6178 46.9905 16.5963 46.9542 16.5681C46.9193 16.5426 46.887 16.5076 46.8575 16.4713L44.0863 13.3534V16.4781C44.0863 16.5103 44.0769 16.5399 44.0567 16.5614C44.0366 16.5842 44.0043 16.6044 43.9626 16.6205C43.9183 16.638 43.8578 16.6501 43.7812 16.6595C43.7019 16.6676 43.6025 16.6729 43.4802 16.6729C43.3659 16.6729 43.2678 16.6689 43.1885 16.6595C43.1119 16.6514 43.0488 16.638 43.0044 16.6205C42.9574 16.6031 42.9251 16.5842 42.9103 16.5614C42.8929 16.5399 42.8835 16.5103 42.8835 16.4781V8.11345C42.8835 8.07986 42.8929 8.04895 42.9103 8.0261C42.9251 8.00057 42.9574 7.97906 43.0044 7.96159C43.0488 7.94681 43.1119 7.93337 43.1885 7.92531C43.2678 7.91724 43.3659 7.91187 43.4802 7.91187C43.6025 7.91187 43.7019 7.9159 43.7812 7.92531C43.8578 7.93337 43.9183 7.94681 43.9626 7.96159C44.0056 7.97906 44.0379 8.00057 44.0567 8.0261C44.0769 8.04895 44.0863 8.07986 44.0863 8.11345V13.2083L46.5672 10.8685C46.6048 10.8255 46.6465 10.7919 46.6922 10.7637C46.7338 10.7381 46.7862 10.714 46.8494 10.6951C46.9085 10.6763 46.9811 10.6656 47.0631 10.6589C47.1451 10.6521 47.2445 10.6481 47.3614 10.6481C47.4784 10.6481 47.5859 10.6521 47.6679 10.6589C47.7498 10.6656 47.817 10.6736 47.8694 10.6884C47.9192 10.7032 47.9568 10.722 47.9796 10.7462C47.9998 10.7677 48.0119 10.8 48.0119 10.8363C48.0119 10.8873 47.9944 10.937 47.9649 10.9854C47.9326 11.0365 47.8802 11.0943 47.8076 11.1601L45.4289 13.2029L48.0979 16.1757C48.1597 16.2456 48.2054 16.3034 48.2323 16.349C48.2592 16.3921 48.2726 16.4324 48.2726 16.4713H48.2699ZM41.7492 16.4781C41.7492 16.5103 41.7398 16.5399 41.7196 16.5614C41.6995 16.5842 41.6699 16.6044 41.6255 16.6205C41.5812 16.638 41.5207 16.6501 41.4441 16.6595C41.3648 16.6676 41.2667 16.6729 41.1525 16.6729C41.0302 16.6729 40.9307 16.6689 40.8514 16.6595C40.7748 16.6514 40.7144 16.638 40.67 16.6205C40.627 16.6031 40.5948 16.5842 40.5759 16.5614C40.5558 16.5399 40.5464 16.5103 40.5464 16.4781V13.1787C40.5464 12.8562 40.5195 12.5968 40.459 12.4033C40.4012 12.2071 40.3166 12.0377 40.205 11.8953C40.0935 11.7542 39.9483 11.6453 39.7696 11.57C39.5922 11.4948 39.3879 11.4571 39.1541 11.4571C38.853 11.4571 38.552 11.5485 38.2496 11.7327C37.9459 11.9168 37.6301 12.1856 37.3008 12.5404V16.4794C37.3008 16.5117 37.2914 16.5412 37.2712 16.5627C37.2511 16.5856 37.2188 16.6057 37.1771 16.6219C37.1328 16.6393 37.0723 16.6514 36.9957 16.6608C36.9164 16.6689 36.817 16.6743 36.6947 16.6743C36.5804 16.6743 36.4823 16.6702 36.403 16.6608C36.3264 16.6528 36.2633 16.6393 36.2189 16.6219C36.1719 16.6044 36.1396 16.5856 36.1249 16.5627C36.1074 16.5412 36.098 16.5117 36.098 16.4794V10.8443C36.098 10.8107 36.106 10.7825 36.1208 10.7583C36.1356 10.7368 36.1652 10.7153 36.2082 10.6965C36.2525 10.6777 36.3076 10.6669 36.3775 10.6602C36.4447 10.6535 36.5348 10.6494 36.6463 10.6494C36.7578 10.6494 36.8425 10.6535 36.9124 10.6602C36.9823 10.6669 37.0374 10.6777 37.0764 10.6965C37.114 10.7153 37.1435 10.7368 37.161 10.7583C37.1758 10.7812 37.1866 10.8094 37.1866 10.8443V11.5902C37.5548 11.2354 37.923 10.9747 38.2926 10.8107C38.6582 10.6468 39.0304 10.5634 39.4027 10.5634C39.8408 10.5634 40.2091 10.6279 40.5087 10.7556C40.8071 10.8819 41.0517 11.0526 41.2358 11.2636C41.4199 11.4773 41.5516 11.7273 41.6323 12.0122C41.7143 12.2984 41.7546 12.6425 41.7546 13.0416V16.4808L41.7492 16.4781ZM34.9906 16.4848C34.9906 16.5345 34.9704 16.5721 34.9314 16.5963C34.8938 16.6219 34.8387 16.6407 34.7715 16.6541C34.7016 16.6676 34.6022 16.6729 34.4732 16.6729C34.3441 16.6729 34.2447 16.6662 34.1694 16.6541C34.0942 16.6407 34.0404 16.6219 34.0055 16.5963C33.9705 16.5735 33.9558 16.5345 33.9558 16.4848V15.9203C33.6668 16.1837 33.3483 16.388 32.9948 16.5332C32.6441 16.6783 32.2705 16.7536 31.8767 16.7536C31.53 16.7536 31.2168 16.7146 30.9373 16.6366C30.6578 16.56 30.4199 16.4485 30.2223 16.3034C30.0261 16.1555 29.8716 15.9768 29.7614 15.7644C29.6538 15.5508 29.6001 15.3088 29.6001 15.0374C29.6001 14.7189 29.6753 14.446 29.8245 14.2109C29.9764 13.9784 30.1928 13.7835 30.475 13.6289C30.7559 13.473 31.1026 13.3575 31.5111 13.2809C31.9197 13.2043 32.3807 13.1653 32.8914 13.1653H33.7958V12.7272C33.7958 12.5094 33.7689 12.3173 33.7165 12.1506C33.6614 11.984 33.5768 11.8455 33.4572 11.7353C33.3375 11.6238 33.183 11.5405 32.9935 11.4827C32.804 11.4276 32.5702 11.3994 32.2933 11.3994C31.995 11.3994 31.7302 11.4289 31.4937 11.4894C31.2571 11.5512 31.0502 11.6171 30.8741 11.6896C30.6954 11.7622 30.5476 11.8281 30.4279 11.8899C30.3083 11.9504 30.221 11.9799 30.1618 11.9799C30.1242 11.9799 30.0893 11.9719 30.0597 11.9557C30.0301 11.9383 30.0046 11.9127 29.9831 11.8791C29.9629 11.8469 29.9455 11.8039 29.9361 11.7515C29.9267 11.7004 29.9213 11.6426 29.9213 11.5808C29.9213 11.476 29.9307 11.3926 29.9482 11.3335C29.9656 11.273 30.0059 11.2166 30.0731 11.1601C30.1377 11.1064 30.2505 11.0432 30.4118 10.9693C30.5717 10.8967 30.7559 10.8309 30.9642 10.7691C31.1738 10.7086 31.4023 10.6602 31.6509 10.6199C31.8969 10.5796 32.1495 10.5594 32.4035 10.5594C32.8739 10.5594 33.2757 10.6064 33.6063 10.6978C33.9369 10.7892 34.2044 10.925 34.4087 11.1024C34.6129 11.2798 34.7621 11.5002 34.8548 11.7622C34.9476 12.0256 34.9946 12.3307 34.9946 12.6815V16.4834L34.9906 16.4848ZM33.7931 13.9112H32.765C32.4344 13.9112 32.1468 13.9354 31.9036 13.981C31.6617 14.0308 31.4601 14.1007 31.2988 14.1947C31.1389 14.2888 31.0193 14.4017 30.9454 14.5321C30.8701 14.6651 30.8338 14.8143 30.8338 14.985C30.8338 15.2779 30.9413 15.5104 31.1577 15.6838C31.3741 15.8572 31.6778 15.9445 32.0662 15.9445C32.382 15.9445 32.6736 15.876 32.9451 15.7376C33.2139 15.6005 33.4975 15.3895 33.7945 15.1046V13.9098L33.7931 13.9112ZM26.9888 10.6857C26.9888 10.4895 26.9566 10.3121 26.8948 10.1535C26.8329 9.99495 26.7335 9.86056 26.5964 9.74902C26.4593 9.63747 26.2833 9.5528 26.0629 9.49501C25.8438 9.43722 25.5549 9.40766 25.1933 9.40766H23.8965V12.0324H25.3264C25.653 12.0324 25.9164 11.9961 26.1153 11.9208C26.3142 11.8482 26.4795 11.7501 26.6112 11.6278C26.7429 11.5042 26.8383 11.3604 26.9001 11.1964C26.9593 11.0298 26.9902 10.8604 26.9902 10.6857H26.9888ZM27.5587 14.3721C27.5587 14.1302 27.5143 13.9165 27.4216 13.7351C27.3315 13.551 27.2025 13.3951 27.0278 13.2715C26.8558 13.1451 26.6394 13.051 26.38 12.9852C26.118 12.9207 25.7927 12.8884 25.3963 12.8884H23.8951V15.7443H25.7175C26.0064 15.7443 26.255 15.7147 26.4701 15.6569C26.6838 15.5991 26.8733 15.5118 27.0359 15.3962C27.1998 15.2833 27.3275 15.1395 27.4189 14.9688C27.5116 14.7982 27.5587 14.5993 27.5587 14.3721Z" fill="white"/>
<path fill-rule="evenodd" clip-rule="evenodd" d="M8.98282 10.6481C9.30402 12.1076 9.45185 13.5241 9.70048 14.9796C9.7408 15.2107 9.78918 15.4741 9.87116 15.7187C9.98136 16.048 10.1467 16.3477 10.4598 16.5197C10.5646 16.5775 10.6842 16.6191 10.824 16.646H10.9409C11.2648 16.2993 11.539 15.626 11.7795 14.7659C11.9677 14.0912 12.1343 13.3037 12.2875 12.4678C12.5187 11.2045 12.6759 9.92907 12.8668 8.65771H8.2356C8.33773 8.75717 8.36058 8.80689 8.42643 8.93456C8.48288 9.04477 8.53529 9.16169 8.58502 9.28399C8.74763 9.68851 8.87262 10.1535 8.98148 10.6481H8.98282Z" fill="#00ABE6"/>
<path fill-rule="evenodd" clip-rule="evenodd" d="M12.8668 8.65906C12.6759 9.92907 12.5187 11.2045 12.2875 12.4691C12.1343 13.305 11.9677 14.0939 11.7795 14.7672C11.539 15.6273 11.2648 16.3006 10.9409 16.6474H16.2736C16.0573 16.4176 15.8731 15.9673 15.7119 15.3908C15.5869 14.9406 15.4753 14.4151 15.3732 13.8574C15.1904 12.8561 15.0762 11.8428 14.9122 10.8389C14.7805 10.0272 14.4849 8.8929 13.7497 8.6604H12.8654L12.8668 8.65906Z" fill="#007BBF"/>
<path fill-rule="evenodd" clip-rule="evenodd" d="M53.7343 20.0542H53.5166C53.5475 19.7625 53.5636 19.5408 53.5636 19.3903C53.5636 19.1766 53.5058 19.0072 53.3902 18.8836C53.2746 18.76 53.1187 18.6981 52.9198 18.6981C52.6148 18.6981 52.3473 18.8097 52.1189 19.0301C51.8904 19.2505 51.7775 19.4991 51.7775 19.7746C51.7775 19.9211 51.8084 20.0555 51.8716 20.1751C51.9334 20.2947 52.0718 20.4614 52.2855 20.6764C52.6766 21.0594 52.9346 21.3605 53.0569 21.5768C53.1792 21.7945 53.241 22.0055 53.241 22.2125C53.241 22.5162 53.1483 22.8079 52.9629 23.0887C52.7774 23.3696 52.5059 23.6021 52.1457 23.7836C51.7856 23.9663 51.4052 24.0564 51.0047 24.0564C50.6043 24.0564 50.275 23.9529 50.0049 23.7473C49.7347 23.5403 49.5977 23.3239 49.5977 23.0968C49.5977 22.9745 49.6326 22.8737 49.7052 22.7917C49.7764 22.7111 49.857 22.6708 49.9484 22.6708C50.0398 22.6708 50.1218 22.7084 50.1823 22.7837C50.2226 22.828 50.2602 22.9288 50.3005 23.0847C50.3449 23.2742 50.3986 23.4113 50.4631 23.496C50.5277 23.5806 50.615 23.6492 50.7279 23.7043C50.8408 23.758 50.9631 23.7849 51.0961 23.7849C51.4939 23.7849 51.842 23.6505 52.1404 23.3817C52.436 23.1143 52.5866 22.8159 52.5866 22.492C52.5866 22.3805 52.5677 22.2703 52.5301 22.1601C52.4925 22.0499 52.4253 21.9249 52.3231 21.7865C52.2546 21.6911 52.1 21.5244 51.8608 21.2852C51.6243 21.0514 51.4765 20.8914 51.4146 20.8054C51.3273 20.6804 51.2641 20.5541 51.2225 20.4278C51.1808 20.3014 51.1593 20.1751 51.1593 20.0501C51.1593 19.7961 51.2453 19.5435 51.4146 19.2868C51.584 19.0301 51.8044 18.8271 52.0759 18.6753C52.3473 18.5234 52.6551 18.4468 53.0005 18.4468C53.1725 18.4468 53.3862 18.4737 53.6388 18.5261C53.784 18.553 53.909 18.5745 54.0151 18.5893C53.9533 18.7707 53.9063 18.94 53.8727 19.1C53.8404 19.2599 53.7947 19.5771 53.7356 20.0528L53.7343 20.0542ZM54.085 20.7758C54.339 20.5917 54.5326 20.499 54.6696 20.499C54.7866 20.499 54.8968 20.5729 55.0002 20.7207C55.2059 21.007 55.3645 21.4209 55.4773 21.9639C55.5902 22.5068 55.6467 22.9705 55.6467 23.3575C55.6467 23.6344 55.5701 23.9059 55.4182 24.176C55.2677 24.4448 55.0621 24.6773 54.8027 24.8721C54.6132 25.0133 54.4331 25.0845 54.2638 25.0845C54.1993 25.0845 54.0797 25.0657 53.9049 25.0267C53.741 24.9904 53.612 24.9729 53.5179 24.9729C53.3956 24.9729 53.2975 25.0025 53.2249 25.063C53.1537 25.1235 53.1161 25.1947 53.1161 25.278C53.1161 25.3721 53.1631 25.4541 53.2558 25.5213C53.3499 25.5898 53.4883 25.6234 53.6711 25.6234C53.913 25.6234 54.1697 25.5589 54.4398 25.4299C54.7113 25.3009 54.9922 25.0872 55.2825 24.7875C55.5728 24.4878 55.8953 24.0308 56.2474 23.414C56.5995 22.7971 56.8576 22.2219 57.0215 21.6857C57.1868 21.1495 57.2675 20.7033 57.2675 20.3444C57.2675 20.2047 57.2379 20.0985 57.1774 20.0246C57.1169 19.9493 57.039 19.9104 56.9422 19.9104C56.8643 19.9104 56.7998 19.9372 56.7487 19.9896C56.6963 20.0421 56.6707 20.1093 56.6707 20.1899C56.6707 20.2705 56.6963 20.4116 56.746 20.6079C56.793 20.7826 56.8172 20.9223 56.8172 21.0298C56.8172 21.5379 56.5821 22.2246 56.1117 23.0914C56.1171 22.9597 56.1197 22.863 56.1197 22.7998C56.1197 22.3066 56.0351 21.7986 55.8684 21.2744C55.7018 20.7503 55.4948 20.3323 55.2502 20.0246C55.1978 19.9574 55.1414 19.9238 55.0836 19.9238C55.0258 19.9238 54.9613 19.9413 54.8914 19.9735C54.7691 20.0313 54.5581 20.1644 54.2571 20.3713L53.948 20.5796L54.0823 20.7758H54.085ZM60.3612 19.8566L60.6367 19.7988L60.3235 20.8551C60.1999 21.2744 60.0816 21.7583 59.9688 22.3066C59.9069 22.6049 59.8774 22.7971 59.8774 22.8818C59.8774 22.9664 59.911 23.0108 59.9808 23.0108C60.0252 23.0108 60.0964 22.9826 60.1945 22.9234C60.3666 22.82 60.5319 22.6923 60.6904 22.5391L60.8248 22.7017C60.5077 22.9906 60.3047 23.168 60.2147 23.2285C60.0373 23.3495 59.8666 23.4409 59.7067 23.4986C59.6019 23.5376 59.497 23.5564 59.3976 23.5564C59.325 23.5564 59.2712 23.539 59.235 23.5067C59.1973 23.4731 59.1812 23.4247 59.1812 23.3602C59.1812 23.3186 59.1933 23.2621 59.2135 23.1895L59.3801 22.6224C59.1409 22.9087 58.856 23.1546 58.5254 23.3602C58.3211 23.4879 58.1356 23.5524 57.965 23.5524C57.7943 23.5524 57.68 23.496 57.5927 23.3817C57.4758 23.2272 57.418 23.0283 57.418 22.781C57.418 22.4867 57.4973 22.1587 57.6545 21.7972C57.8117 21.4357 58.0214 21.1065 58.2875 20.8121C58.5509 20.5178 58.8304 20.3001 59.1221 20.1617C59.3465 20.0568 59.6368 20.0031 59.9889 20.0031C60.079 20.0031 60.169 20.0085 60.2604 20.0206L60.3598 19.8566H60.3612ZM59.8438 20.4963C59.6932 20.4654 59.5656 20.4493 59.4634 20.4493C59.2121 20.4493 58.9944 20.5192 58.8076 20.6562C58.6208 20.7947 58.4488 21.0419 58.2875 21.3994C58.1276 21.7569 58.0483 22.1131 58.0483 22.4692C58.0483 22.6587 58.0792 22.7958 58.1437 22.8777C58.2082 22.9624 58.2915 23.0027 58.395 23.0027C58.5872 23.0027 58.7928 22.9006 59.0132 22.6923C59.2323 22.4853 59.3935 22.187 59.4957 21.7972L59.8438 20.495V20.4963ZM61.8758 23.4382H61.2535L61.5452 22.316C61.6876 21.765 61.8113 21.2422 61.9174 20.7463C61.943 20.624 61.9551 20.5487 61.9551 20.5165C61.9551 20.4493 61.9255 20.417 61.8637 20.417C61.822 20.417 61.7589 20.4452 61.6715 20.503C61.5855 20.5595 61.4296 20.7006 61.2038 20.9264L61.0748 20.7812C61.3422 20.495 61.6083 20.2799 61.8744 20.1361C62.1405 19.9937 62.3448 19.9211 62.4873 19.9211C62.537 19.9211 62.576 19.9345 62.6055 19.9574C62.6338 19.9816 62.6499 20.0112 62.6499 20.0474C62.6499 20.0837 62.6311 20.1805 62.5961 20.335L62.416 21.0823C62.6969 20.6388 63.0141 20.2625 63.3675 19.9466C63.5369 19.7961 63.678 19.7222 63.7922 19.7222C63.8769 19.7222 63.9454 19.7491 64.0019 19.8028C64.057 19.8566 64.0852 19.9198 64.0852 19.9923C64.0852 20.0649 64.0583 20.1321 64.0032 20.1845C63.9495 20.2369 63.8137 20.3001 63.5974 20.3727C63.3904 20.4426 63.2237 20.5245 63.0947 20.6213C62.9657 20.7194 62.8233 20.8672 62.6687 21.0688C62.5155 21.2691 62.4066 21.4438 62.3448 21.593C62.283 21.7408 62.1889 22.0875 62.0653 22.6305L61.8771 23.4395L61.8758 23.4382ZM65.4439 18.1337C65.5299 18.1337 65.6011 18.1619 65.6562 18.2197C65.7114 18.2761 65.7409 18.3514 65.7409 18.4388C65.7409 18.5611 65.6979 18.6699 65.6132 18.7626C65.5286 18.8567 65.4332 18.9024 65.3283 18.9024C65.2437 18.9024 65.1751 18.8742 65.1187 18.8151C65.0636 18.7573 65.0367 18.6793 65.0367 18.5852C65.0367 18.4603 65.077 18.3527 65.1577 18.2667C65.2369 18.178 65.3337 18.1337 65.4453 18.1337H65.4439ZM63.8003 20.8968C64.0435 20.6576 64.2021 20.5151 64.2734 20.4708C64.3446 20.4264 64.4077 20.4036 64.4628 20.4036C64.5139 20.4036 64.5381 20.4318 64.5381 20.4882C64.5381 20.538 64.5287 20.5958 64.5099 20.6589C64.0919 22.0109 63.8836 22.8616 63.8836 23.2084C63.8836 23.3172 63.9118 23.4019 63.9696 23.4637C64.0261 23.5255 64.104 23.5551 64.2021 23.5551C64.3137 23.5551 64.4561 23.5054 64.6322 23.4059C64.8069 23.3051 65.0851 23.0753 65.4654 22.7165L65.3028 22.5579C64.9359 22.9019 64.7074 23.0753 64.6187 23.0753C64.5959 23.0753 64.5744 23.0619 64.5556 23.035C64.5354 23.0095 64.526 22.9772 64.526 22.9369C64.526 22.734 64.6738 22.1386 64.9695 21.1521C65.1509 20.5487 65.2396 20.2047 65.2396 20.1254C65.2396 20.0582 65.2168 20.0058 65.1684 19.9655C65.1214 19.9265 65.0528 19.9077 64.9641 19.9077C64.8029 19.9077 64.6066 19.9735 64.3768 20.1025C64.147 20.2316 63.8944 20.4493 63.6162 20.7543L63.8003 20.8968ZM68.5605 19.8566L68.836 19.7988L68.5228 20.8551C68.3992 21.2744 68.2809 21.7583 68.1681 22.3066C68.1062 22.6049 68.0767 22.7971 68.0767 22.8818C68.0767 22.9664 68.1103 23.0108 68.1801 23.0108C68.2245 23.0108 68.2957 22.9826 68.3938 22.9234C68.5659 22.82 68.7312 22.6923 68.8897 22.5391L69.0241 22.7017C68.707 22.9906 68.504 23.168 68.414 23.2285C68.2366 23.3495 68.0659 23.4409 67.906 23.4986C67.8012 23.5376 67.6963 23.5564 67.5969 23.5564C67.5243 23.5564 67.4706 23.539 67.4343 23.5067C67.3966 23.4731 67.3805 23.4247 67.3805 23.3602C67.3805 23.3186 67.3913 23.2621 67.4128 23.1895L67.5794 22.6224C67.3402 22.9087 67.0553 23.1546 66.7247 23.3602C66.5204 23.4879 66.3349 23.5524 66.1643 23.5524C65.9936 23.5524 65.8793 23.496 65.792 23.3817C65.6751 23.2272 65.6173 23.0283 65.6173 22.781C65.6173 22.4867 65.6966 22.1587 65.8538 21.7972C66.011 21.4357 66.2207 21.1065 66.4868 20.8121C66.7502 20.5178 67.0297 20.3001 67.3214 20.1617C67.5458 20.0568 67.8361 20.0031 68.1896 20.0031C68.2796 20.0031 68.3696 20.0085 68.461 20.0206L68.5605 19.8566ZM68.0431 20.4963C67.8925 20.4654 67.7649 20.4493 67.6627 20.4493C67.4114 20.4493 67.1937 20.5192 67.0069 20.6562C66.8201 20.7947 66.6481 21.0419 66.4868 21.3994C66.3269 21.7569 66.2476 22.1131 66.2476 22.4692C66.2476 22.6587 66.2785 22.7958 66.343 22.8777C66.4075 22.9624 66.4908 23.0027 66.5943 23.0027C66.7865 23.0027 66.9921 22.9006 67.2125 22.6923C67.4316 22.4853 67.5929 22.187 67.695 21.7972L68.0431 20.495V20.4963ZM72.6541 22.5539L72.7629 22.7071C72.5076 22.992 72.2442 23.2164 71.9754 23.3831C71.7913 23.4973 71.6394 23.5537 71.5198 23.5537C71.423 23.5537 71.3451 23.5148 71.2846 23.4368C71.2241 23.3589 71.1946 23.2379 71.1946 23.074C71.1946 22.9624 71.2174 22.8011 71.2631 22.5888C71.3088 22.3751 71.4392 21.9195 71.6529 21.2167C71.7483 20.8713 71.7953 20.671 71.7953 20.6132C71.7953 20.5178 71.7483 20.4708 71.6529 20.4708C71.5359 20.4708 71.3908 20.5286 71.2161 20.6455C70.9715 20.8068 70.7538 21.0124 70.5656 21.2637C70.446 21.425 70.3493 21.6642 70.2767 21.9813L69.9434 23.4328H69.3211C69.4555 22.9449 69.559 22.5485 69.6303 22.2394L70.2444 19.5596C70.356 19.0677 70.5025 18.6887 70.6852 18.4226C70.868 18.1565 71.1059 17.9455 71.3989 17.7856C71.6918 17.627 71.9835 17.5477 72.2697 17.5477C72.3893 17.5477 72.4834 17.5773 72.5533 17.6364C72.6232 17.6942 72.6568 17.7681 72.6568 17.8568C72.6568 17.9321 72.6232 17.9979 72.556 18.0544C72.4874 18.1108 72.3947 18.1404 72.2778 18.1404C72.2106 18.1404 72.1246 18.1337 72.0184 18.1202C71.7792 18.0866 71.6139 18.0692 71.5212 18.0692C71.3948 18.0692 71.2887 18.1216 71.2094 18.2251C71.1287 18.3272 71.0441 18.5705 70.958 18.9521L70.4904 21.0137C70.821 20.6656 71.1811 20.3727 71.5709 20.1334C71.7993 19.991 71.9821 19.9198 72.1205 19.9198C72.2294 19.9198 72.3141 19.952 72.3759 20.0179C72.4377 20.0837 72.4673 20.1751 72.4673 20.2907C72.4673 20.3848 72.4579 20.4802 72.435 20.5743C72.4001 20.7382 72.3141 21.0352 72.1797 21.468C71.9982 22.0633 71.8934 22.4343 71.8612 22.5781C71.8303 22.7232 71.8141 22.8536 71.8141 22.9664C71.8141 23.0108 71.8209 23.0444 71.837 23.0659C71.8518 23.0887 71.8746 23.0995 71.9055 23.0995C71.9727 23.0995 72.0977 23.0202 72.2818 22.8616C72.384 22.7743 72.5103 22.6721 72.6568 22.5525L72.6541 22.5539Z" fill="white"/>
</g>
<defs>
<linearGradient id="paint0_linear_801_8268" x1="26.4754" y1="13.813" x2="0.83728" y2="13.813" gradientUnits="userSpaceOnUse">
<stop stop-color="#00693F"/>
<stop offset="1" stop-color="#008A44"/>
</linearGradient>
<linearGradient id="paint1_linear_801_8268" x1="53.7867" y1="13.813" x2="22.1023" y2="13.813" gradientUnits="userSpaceOnUse">
<stop stop-color="#00693F"/>
<stop offset="1" stop-color="#008A44"/>
</linearGradient>
<linearGradient id="paint2_linear_801_8268" x1="80.1613" y1="13.813" x2="49.4149" y2="13.813" gradientUnits="userSpaceOnUse">
<stop stop-color="#00693F"/>
<stop offset="1" stop-color="#008A44"/>
</linearGradient>
<clipPath id="clip0_801_8268">
<rect width="80" height="27.6258" fill="white" transform="translate(0.5)"/>
</clipPath>
</defs>
</svg>
