<svg width="80" height="44" viewBox="0 0 80 44" fill="none" xmlns="http://www.w3.org/2000/svg">
<g clip-path="url(#clip0_801_8301)">
<path d="M27.4913 7.91964L26.969 10.4849C32.1302 10.4644 48.3709 4.49612 49.125 0.935488C49.125 0.936111 49.1748 0.702393 49.2235 0.467426C49.2721 0.233707 49.3201 -1.14441e-05 49.317 -1.14441e-05C42.2811 4.7342 31.6522 7.90904 27.4913 7.91964ZM26.5066 12.3453L26.0198 14.7062C30.9959 14.6969 47.4216 8.71865 48.1758 5.15739L48.3846 4.139C41.1087 9.17736 30.9205 12.2226 26.5066 12.3453ZM25.4464 16.6533L24.9229 19.2161C29.9301 19.1188 46.326 13.2291 47.0801 9.6691L47.3288 8.45128C41.689 12.3709 29.9874 16.6776 25.4464 16.6533Z" fill="url(#paint0_linear_801_8301)"/>
<path d="M0.586009 24.5605H2.47134V31.147H2.51497C3.18684 29.9778 4.39968 29.2187 6.09056 29.2187C8.69139 29.2187 10.5325 31.3851 10.51 34.5718C10.51 38.3187 8.14916 40.1816 5.80823 40.1816C4.29124 40.1816 3.07777 39.597 2.29808 38.2109H2.23326L2.14725 39.9436H0.5C0.543004 39.2281 0.586009 38.166 0.586009 37.2349V24.5605ZM2.47134 35.7404C2.47134 35.9784 2.51497 36.2159 2.5586 36.4334C2.92694 37.7547 4.03196 38.6659 5.4187 38.6659C7.41185 38.6659 8.60413 37.0405 8.60413 34.6347C8.60413 32.5325 7.51968 30.735 5.48352 30.735C4.18279 30.735 2.96932 31.6232 2.57917 33.0753C2.53616 33.2922 2.47134 33.5515 2.47134 33.8556V35.7404Z" fill="#1B517E"/>
<path d="M20.0228 37.43C20.0228 38.3406 20.0658 39.2281 20.1961 39.9436H18.4622L18.3108 38.6216H18.2453C17.6607 39.4456 16.5333 40.1816 15.0393 40.1816C12.9153 40.1816 11.8327 38.6877 11.8327 37.1713C11.8327 34.6353 14.0851 33.248 18.1375 33.2717V33.0535C18.1375 32.1878 17.8994 30.6266 15.7542 30.6266C14.7788 30.6266 13.761 30.9295 13.0237 31.4069L12.5893 30.1498C13.4569 29.587 14.7146 29.2187 16.0353 29.2187C19.2425 29.2187 20.0228 31.4069 20.0228 33.5085V37.43ZM18.1811 34.5917C16.1001 34.5481 13.7392 34.917 13.7392 36.9526C13.7392 38.1891 14.5619 38.7743 15.5367 38.7743C16.9022 38.7743 17.7685 37.9068 18.0721 37.0193C18.1375 36.8229 18.1811 36.6067 18.1811 36.4128V34.5917Z" fill="#1B517E"/>
<path d="M22.9488 32.2942C22.9488 31.211 22.9263 30.3241 22.8621 29.4565H24.5505L24.6602 31.1898H24.7026C25.2236 30.1945 26.4371 29.2184 28.1703 29.2184C29.6207 29.2184 31.8756 30.0854 31.8756 33.6809V39.944H29.9678V33.8984C29.9678 32.2082 29.3408 30.799 27.5415 30.799C26.285 30.799 25.3084 31.6884 24.9837 32.7504C24.8977 32.9872 24.854 33.3132 24.854 33.6392V39.944H22.9488V32.2942Z" fill="#1B517E"/>
<path d="M36.555 34.2672H36.598C36.8585 33.8982 37.2269 33.4432 37.531 33.0755L40.6074 29.4569H42.9041L38.8523 33.7686L43.4662 39.9437H41.1496L37.531 34.9172L36.555 36.0004V39.9437H34.6697V24.5606H36.555V34.2672Z" fill="#1B517E"/>
<path d="M59.1769 29.8279C59.1058 29.7431 59.036 29.6584 58.9606 29.5805C58.8372 29.4533 58.7001 29.333 58.5542 29.2196C57.7652 28.5752 56.8116 28.1962 55.7839 28.1962C54.6745 28.1962 53.653 28.6412 52.8309 29.3823C52.8066 29.3972 52.786 29.414 52.7617 29.4278C52.7324 29.4427 52.6907 29.4645 52.6421 29.4514C52.5075 29.4159 52.3622 29.2719 52.3616 29.0656V24.7771C52.3616 24.5084 52.1404 24.2909 51.8699 24.2909H49.7832C49.5109 24.2909 49.2909 24.5084 49.2909 24.7771V24.9266C49.2909 24.9316 49.2896 24.936 49.2896 24.9422V25.4396L49.2934 39.2633C49.2934 39.5375 49.5152 39.7606 49.7888 39.7606H51.6779C51.7982 39.7606 51.9073 39.7151 51.9939 39.6428C51.9964 39.641 52.0008 39.641 52.002 39.6385C52.0051 39.6366 52.0064 39.6335 52.0082 39.631C52.0487 39.5955 52.0805 39.5537 52.1073 39.507H52.108C52.1404 39.4459 52.1622 39.3817 52.1697 39.3107C52.207 39.0053 52.4152 38.8364 52.5442 38.8806C52.5885 38.8949 52.6309 38.9161 52.6745 38.9461C52.7187 38.9735 52.7617 39.0034 52.8041 39.0314C52.9319 39.1249 53.4959 39.5107 53.9316 39.7052C54.1516 39.8024 54.8521 40.0399 55.6655 40.0399C56.4794 40.0399 57.0572 39.8597 57.1937 39.8236C57.3308 39.7868 57.4654 39.7407 57.5951 39.6815C58.232 39.4073 58.7437 39.0314 59.1332 38.5546C59.5178 38.0866 59.8369 37.5325 60.0955 36.8962C60.4801 36.0579 60.6988 35.0975 60.6988 34.0741C60.6988 32.4032 60.1136 30.898 59.1769 29.8279ZM54.8683 37.8317C53.3395 37.8317 52.0992 36.185 52.0992 34.1545C52.0992 32.1227 53.3395 30.4761 54.8683 30.4761C56.3965 30.4761 57.6356 32.1227 57.6356 34.1545C57.6356 36.185 56.3965 37.8317 54.8683 37.8317Z" fill="#1B517E"/>
<path d="M66.1308 29.4265C66.1289 29.3984 66.1258 29.371 66.1233 29.3442V28.9777C66.1233 28.7023 65.9014 28.4791 65.6259 28.4791H63.5231C63.2476 28.4791 63.0245 28.7023 63.0245 28.9777V40.3066C63.0139 40.5951 62.663 40.9909 62.2573 41.0888C62.0703 41.1467 61.8827 41.1735 61.6945 41.1648C61.5063 41.1579 61.3772 41.234 61.3043 41.3929C61.2757 41.464 61.2545 41.5587 61.2389 41.6752C61.2258 41.7905 61.242 43.0046 61.2501 43.105C61.2582 43.2066 61.2757 43.2926 61.3043 43.3642C61.391 43.4951 61.543 43.5818 61.7593 43.6254C61.8316 43.6547 63.2277 43.6584 64.1669 43.4303C64.5353 43.3412 64.8319 43.1629 65.0787 42.9766C65.3224 42.7884 65.5399 42.549 65.7294 42.2598C65.9463 41.9133 66.0647 41.4758 66.0872 40.9485C66.094 40.7896 66.1233 40.3745 66.1233 40.3259V30.0317C66.1258 29.9762 66.1277 29.9201 66.1308 29.8609C66.1383 29.7169 66.1383 29.5717 66.1308 29.4265Z" fill="#1B517E"/>
<path d="M78.4794 29.8279C78.4096 29.7431 78.3392 29.6584 78.2632 29.5805C78.1398 29.4533 78.002 29.333 77.8568 29.2196C77.0684 28.5752 76.1148 28.1962 75.0864 28.1962C73.9777 28.1962 72.9562 28.6412 72.1347 29.3823C72.1098 29.3972 72.0886 29.414 72.0637 29.4278C72.035 29.4427 71.9945 29.4645 71.9453 29.4514C71.8106 29.4159 71.6654 29.2719 71.6635 29.0656V24.7771C71.6635 24.5084 71.4442 24.2909 71.173 24.2909H69.0864C68.814 24.2909 68.594 24.5084 68.594 24.7771V24.9266C68.594 24.9316 68.5922 24.936 68.5922 24.9422V25.4396L68.5953 39.2633C68.5953 39.5375 68.8178 39.7606 69.0926 39.7606H70.9792C71.1014 39.7606 71.2111 39.7151 71.2971 39.6428C71.2996 39.641 71.3021 39.641 71.3052 39.6385C71.3077 39.6366 71.3095 39.6335 71.3114 39.631C71.3501 39.5955 71.3843 39.5537 71.4105 39.507L71.4118 39.5051C71.4442 39.4459 71.4654 39.3817 71.4728 39.3107C71.5102 39.0053 71.7171 38.8364 71.8468 38.8806C71.891 38.8949 71.9347 38.9161 71.9777 38.9461C72.0207 38.9735 72.0637 39.0034 72.1079 39.0314C72.2351 39.1249 72.7985 39.5107 73.2348 39.7052C73.4548 39.8024 74.1541 40.0399 74.9693 40.0399C75.7814 40.0399 76.3591 39.8597 76.4969 39.8236C76.634 39.7868 76.768 39.7407 76.8982 39.6815C77.5333 39.4073 78.0475 39.0314 78.437 38.5546C78.8216 38.0866 79.1407 37.5325 79.3987 36.8962C79.7826 36.0579 80.0014 35.0975 80.0014 34.0741C80.0014 32.4032 79.4155 30.898 78.4794 29.8279ZM74.1721 37.8317C72.6421 37.8317 71.403 36.185 71.403 34.1545C71.403 32.1227 72.6421 30.4761 74.1721 30.4761C75.7003 30.4761 76.9394 32.1227 76.9394 34.1545C76.9394 36.185 75.7003 37.8317 74.1721 37.8317Z" fill="#1B517E"/>
<path d="M64.5374 24.415C64.2382 24.4194 63.9752 24.4873 63.7489 24.6188C63.5264 24.7547 63.3544 24.9361 63.2323 25.1586C63.1051 25.3848 63.0422 25.6341 63.0422 25.9108C63.0422 26.1782 63.1051 26.4182 63.2229 26.64C63.3407 26.8625 63.5084 27.0395 63.7215 27.1748C63.939 27.3063 64.1927 27.3742 64.4831 27.3792C64.8091 27.3742 65.0858 27.3063 65.3127 27.1748C65.5389 27.0395 65.7109 26.8625 65.8287 26.64C65.9465 26.4182 66.0057 26.1782 66.0057 25.9108C66.0057 25.6341 65.9422 25.3848 65.8244 25.1586C65.7066 24.9361 65.5346 24.7547 65.3164 24.6188C65.0989 24.4873 64.8365 24.4194 64.5374 24.415Z" fill="#1B517E"/>
</g>
<defs>
<linearGradient id="paint0_linear_801_8301" x1="23.3331" y1="0.377924" x2="52.7882" y2="-0.650671" gradientUnits="userSpaceOnUse">
<stop stop-color="#3AA7DF"/>
<stop offset="0.12" stop-color="#227AAB"/>
<stop offset="0.42" stop-color="#1B517E"/>
<stop offset="0.57" stop-color="#8B8666"/>
<stop offset="1" stop-color="#EFC900"/>
</linearGradient>
<clipPath id="clip0_801_8301">
<rect width="79.5014" height="43.6394" fill="white" transform="translate(0.5)"/>
</clipPath>
</defs>
</svg>
