<svg width="80" height="38" viewBox="0 0 80 38" fill="none" xmlns="http://www.w3.org/2000/svg">
<g clip-path="url(#clip0_801_6906)">
<path d="M12.1194 0.0361151C15.3795 2.19774e-05 18.6425 0.0302622 21.9035 0.0205073C23.4526 0.0341641 25.0046 -0.00680646 26.5527 0.0400171C27.4473 0.180488 28.335 0.554101 28.9446 1.2428C29.5468 1.92492 29.9048 2.78808 29.9621 3.69616C30.0021 4.32242 29.9465 4.95064 29.9387 5.57788C29.8176 4.78906 29.4969 4.04428 29.0071 3.41424C28.0121 2.17829 26.5781 1.33059 25.0417 0.96088C23.2166 0.5024 21.3192 0.682865 19.458 0.652625C19.3146 0.637017 19.0912 0.682865 19.1302 0.877963C19.1302 4.36047 19.1302 7.84492 19.1302 11.3274C19.0863 11.5391 19.3409 11.4708 19.4599 11.4884C21.6606 11.4484 23.957 11.7176 26.0513 10.8758C27.3663 10.3431 28.6061 9.48179 29.3465 8.24877C29.6439 7.73018 29.8473 7.16317 29.9474 6.57385C29.9894 8.18244 29.9377 9.79297 29.967 11.4016C29.6802 11.4991 29.3953 11.6123 29.1173 11.7342C29.3973 11.7957 29.6782 11.8513 29.9601 11.903C29.9387 12.6512 29.9494 13.4013 29.9552 14.1466C28.9954 13.4764 27.9672 12.8863 26.8337 12.5702C25.3704 12.1195 23.8194 12.1156 22.2996 12.1224C21.247 12.1302 20.1945 12.1107 19.1429 12.142C19.1302 15.8908 19.1429 19.6405 19.137 23.3903C19.0834 23.5991 19.3214 23.5854 19.459 23.5854C20.8246 23.5854 22.1903 23.5854 23.556 23.5854C25.7704 23.5728 28.0579 23.005 29.8236 21.6188C30.432 21.182 30.9325 20.6117 31.2868 19.9517C32.0408 18.6972 32.0877 17.0155 31.2868 15.7708C31.201 14.6285 31.2868 13.4784 31.2536 12.3331C32.7169 12.8989 34.0601 13.8715 34.9 15.2147C35.3113 15.8509 35.5733 16.5718 35.6664 17.3236C35.7595 18.0754 35.6813 18.8385 35.4375 19.5557C34.9127 21.095 33.6494 22.2675 32.2642 23.0518C31.2331 23.5669 30.1338 23.9649 28.9846 24.1083C28.3847 24.1688 27.7858 24.2566 27.181 24.2449C22.1084 24.2358 17.0358 24.2338 11.9633 24.239C12.8529 24.0351 13.7445 23.6664 14.3484 22.9533C14.9809 22.2118 15.3208 21.2648 15.3043 20.2902C15.3043 15.5754 15.3043 10.8605 15.3043 6.14561C15.3043 5.26767 15.3385 4.3829 15.277 3.50496C15.2237 2.86649 15.0096 2.25191 14.6546 1.71853C14.2996 1.18515 13.8154 0.750326 13.247 0.454601C12.8978 0.247797 12.492 0.183414 12.1194 0.0361151Z" fill="#020202"/>
<path d="M51.9701 1.38422C55.993 -0.448726 60.809 -0.454579 64.7939 1.47397C64.9812 1.55005 65.229 1.71686 65.4055 1.52372C65.9265 1.02817 66.4308 0.511157 66.9332 0C66.9019 2.60944 66.9458 5.22083 66.9107 7.83026C66.8327 7.69623 66.7699 7.5539 66.7234 7.40593C66.1284 5.74759 65.1802 4.19851 63.8877 2.99085C62.8146 1.97439 61.4948 1.18522 60.0423 0.859407C58.2994 0.452865 56.4691 0.672853 54.8722 1.4808C53.2849 2.30233 51.9573 3.54891 51.0375 5.08133C50.4015 6.07001 49.927 7.15371 49.6319 8.29167C48.991 10.3246 48.949 12.5165 49.2914 14.6099C49.3626 15.1113 49.5324 15.5922 49.6036 16.0936L49.6836 16.161C49.7122 16.5133 49.7213 16.867 49.7109 17.2203L49.585 17.1677L49.6163 17.1384C47.9579 15.3825 46.243 13.6676 44.5983 11.8932C44.6793 9.94806 45.2275 8.01366 46.2684 6.36313C47.1309 4.96839 48.2575 3.75558 49.585 2.79283C50.3431 2.26328 51.1404 1.79238 51.9701 1.38422Z" fill="#020202"/>
<path d="M31.2458 4.49799C32.0818 5.32325 32.9237 6.14364 33.7323 6.99719C33.429 8.14242 32.8915 9.30716 31.9326 10.0407C31.7189 10.1988 31.3404 10.5148 31.2214 10.588C31.2614 8.55895 31.2156 6.52798 31.2458 4.49799Z" fill="#020202"/>
<path d="M66.6766 16.9736C66.7361 16.8292 66.7741 16.6653 66.9048 16.5648C66.9322 19.1118 66.9117 21.6598 66.9156 24.2068C66.3761 23.7405 65.903 23.2021 65.388 22.7094C65.2624 22.5755 65.1324 22.5755 64.9978 22.7094C63.4233 23.4294 61.7562 23.9727 60.0228 24.1444C57.1305 24.4585 54.1367 23.9805 51.536 22.6577C51.3546 22.5495 51.1224 22.5036 50.9927 22.328C50.9859 21.2716 50.9732 20.2141 50.9927 19.1577C51.9506 20.6463 53.2363 21.9564 54.8264 22.7611C56.2819 23.4946 57.9306 23.7536 59.5409 23.5015C61.3202 23.2167 62.919 22.251 64.1735 20.9965C65.2766 19.8426 66.1288 18.4729 66.6766 16.9736Z" fill="#020202"/>
<path d="M0.0184067 29.3281C0.228137 29.3515 0.631015 29.215 0.638819 29.5467C0.669059 30.2295 0.638819 30.9123 0.6515 31.5952C1.21436 31.205 1.93817 31.1582 2.58882 31.3103C3.30776 31.5054 3.85696 32.2195 3.82867 32.9687C3.82867 33.7491 3.83453 34.5295 3.82867 35.3099C3.81809 35.6726 3.69302 36.0227 3.47137 36.3101C3.24972 36.5974 2.94285 36.8073 2.59468 36.9097C1.85526 37.095 0.954878 37.0072 0.43299 36.3917C0.143783 36.0698 -0.00814847 35.6476 0.00962733 35.2152C0.0106028 33.2535 -0.0176864 31.2899 0.0184067 29.3281ZM1.67089 31.8878C1.39471 31.9008 1.13462 32.0215 0.946555 32.2242C0.758484 32.4269 0.657444 32.6952 0.665157 32.9716C0.665157 33.7188 0.638819 34.4661 0.6515 35.2152C0.64077 35.6054 0.837819 36.0161 1.1968 36.1956C1.50018 36.378 1.86794 36.3458 2.20643 36.3253C2.46573 36.3058 2.70892 36.1921 2.89008 36.0055C3.07124 35.819 3.17783 35.5725 3.18973 35.3128C3.21411 34.5636 3.19948 33.8144 3.19656 33.0692C3.20746 32.8985 3.18 32.7275 3.11619 32.5688C3.05239 32.4102 2.95385 32.2678 2.82782 32.1522C2.51761 31.8654 2.06596 31.8566 1.67089 31.8878Z" fill="#020202"/>
<path d="M14.3591 29.332C14.5599 29.3157 14.762 29.3289 14.959 29.3711C15.0127 29.8588 14.9824 30.3466 14.9893 30.8275C14.9893 32.8126 14.9951 34.7977 14.9893 36.778C14.9824 37.1028 14.5298 36.9974 14.3425 36.894C14.3611 34.3763 14.3201 31.8527 14.3591 29.332Z" fill="#020202"/>
<path d="M6.24887 31.2849C6.69467 31.2098 7.17363 31.1942 7.59992 31.3688C8.16961 31.5864 8.60468 32.1492 8.60858 32.7716C8.62516 34.1714 8.60858 35.5722 8.60858 36.973C8.30618 37.093 8.18327 36.8062 8.08474 36.5828C7.68674 36.8209 7.24972 37.0306 6.77368 37.013C6.22351 36.9945 5.62065 36.8755 5.2285 36.456C4.80026 35.9975 4.68808 35.3137 4.8305 34.7167C4.91692 34.3892 5.10198 34.0961 5.36059 33.8773C5.6192 33.6585 5.93884 33.5245 6.27618 33.4935C6.83806 33.4476 7.40092 33.4935 7.9628 33.4681C7.9628 33.0467 8.03597 32.557 7.72576 32.2175C7.36385 31.8127 6.73076 31.8146 6.24301 31.9571C5.85965 32.077 5.65772 32.4448 5.59626 32.8233C5.38751 32.8321 5.17973 32.8321 4.97098 32.8233C4.98047 32.4607 5.11167 32.1118 5.34345 31.8328C5.57524 31.5537 5.89414 31.3608 6.24887 31.2849ZM5.80404 34.3373C5.16998 34.8562 5.35239 36.0931 6.18253 36.3019C6.74247 36.377 7.48774 36.4326 7.81551 35.86C8.08669 35.3264 7.92086 34.6943 7.95695 34.1187C7.46921 34.107 6.98146 34.1051 6.49372 34.1129C6.24451 34.1036 6.0001 34.1831 5.80404 34.3373Z" fill="#020202"/>
<path d="M9.55968 31.2401C9.67088 31.2352 9.78209 31.2323 9.89329 31.2303C9.95768 31.3767 10.0221 31.523 10.0884 31.6693C10.5001 31.4011 10.9546 31.1552 11.4638 31.1816C12.4052 31.1572 13.37 31.8839 13.3865 32.8701C13.3914 34.2261 13.3992 35.583 13.3865 36.9389C13.1866 36.9389 12.9739 36.9906 12.7847 36.9038C12.7056 35.5625 12.7905 34.2144 12.7398 32.8711C12.7316 32.6749 12.6673 32.4852 12.5546 32.3244C12.4418 32.1636 12.2854 32.0385 12.1038 31.9639C11.7698 31.8542 11.4139 31.8287 11.0678 31.8898C10.8364 31.9336 10.6269 32.055 10.4739 32.234C10.3208 32.4129 10.2334 32.6387 10.2259 32.874C10.1986 34.2085 10.2347 35.544 10.2113 36.8736C10.0874 37.1087 9.75965 36.9711 9.5626 36.9145C9.53529 35.025 9.57138 33.1326 9.55968 31.2401Z" fill="#020202"/>
<path d="M17.2524 31.4459C17.4319 31.1016 17.867 31.284 18.1733 31.243C17.5792 32.0303 17.0144 32.8399 16.4086 33.6193C16.2662 33.8047 15.9706 34.0407 16.1686 34.2905C16.8515 35.1684 17.5129 36.0659 18.1528 36.975C17.8689 36.9487 17.4592 37.1116 17.2748 36.8121C16.6242 35.9117 15.9628 35.0211 15.3063 34.1256C15.9296 33.2145 16.6115 32.3444 17.2524 31.4459Z" fill="#020202"/>
<path d="M22.0021 31.2157C22.3191 31.1377 22.4323 31.4313 22.5493 31.6586C23.1014 31.2264 23.8604 31.0538 24.5335 31.284C25.2651 31.4967 25.8426 32.1912 25.8192 32.9716C25.8065 34.2973 25.8523 35.6259 25.8016 36.9506C25.6065 36.9165 25.2339 37.0696 25.187 36.7916C25.1568 35.5235 25.187 34.2475 25.1714 32.9765C25.1646 32.635 25.031 32.279 24.7412 32.08C24.394 31.8429 23.9482 31.841 23.5463 31.8849C23.2894 31.925 23.0561 32.0576 22.8903 32.2578C22.7245 32.4579 22.6375 32.7118 22.6459 32.9716C22.6459 34.2934 22.6459 35.6152 22.6459 36.937C22.4406 37.005 22.2196 37.0094 22.0118 36.9496C21.9445 36.3721 21.9923 35.7898 21.9777 35.2103C21.9884 33.8788 21.9699 32.5473 22.0021 31.2157Z" fill="#020202"/>
<path d="M26.9946 32.1112C27.3117 31.5337 27.9701 31.2128 28.6227 31.2333C29.2802 31.1806 29.9796 31.4576 30.3259 32.039C30.6937 32.5707 30.5835 33.2418 30.601 33.8495C30.6127 33.9871 30.5942 34.2026 30.3952 34.1558C29.4197 34.1617 28.4442 34.1412 27.4687 34.1656L27.4151 34.2046C27.4395 34.7899 27.2609 35.4727 27.6716 35.9605C28.0257 36.3819 28.6354 36.3712 29.1349 36.3039C29.6958 36.1809 29.9982 35.5976 29.9748 35.0572C30.1699 35.0572 30.3591 35.0572 30.5523 35.0572C30.6927 35.5186 30.4664 36.019 30.1777 36.3799C29.7153 36.9389 28.9222 37.0686 28.2394 36.9594C27.4746 36.8521 26.8132 36.179 26.7761 35.3986C26.7429 34.784 26.7644 34.1675 26.7595 33.552C26.7673 33.0691 26.7283 32.5424 26.9946 32.1112ZM27.7448 32.1892C27.3546 32.517 27.417 33.0555 27.4121 33.5091C28.253 33.5208 29.0968 33.5461 29.9367 33.4935C29.9738 33.0984 30.003 32.6575 29.7484 32.3229C29.2802 31.7288 28.3008 31.721 27.7448 32.1912V32.1892Z" fill="#020202"/>
<path d="M39.5258 31.9531C40.0008 31.2498 40.951 31.1289 41.7226 31.2937C42.1252 31.3962 42.4772 31.6409 42.7135 31.9826C42.9499 32.3244 43.0545 32.7401 43.0083 33.153C42.8083 33.153 42.6083 33.153 42.4083 33.153C42.4083 32.6574 42.1762 32.1102 41.6689 31.9541C41.1665 31.8283 40.5442 31.8097 40.1491 32.198C39.8857 32.4467 39.8282 32.8252 39.833 33.1735C39.833 33.8875 39.8165 34.6016 39.8438 35.3196C39.855 35.5699 39.9549 35.8081 40.1255 35.9916C40.2962 36.1751 40.5265 36.292 40.7754 36.3214C41.19 36.3575 41.664 36.3887 41.9967 36.0873C42.3088 35.8473 42.3791 35.4405 42.4161 35.0728C42.6181 35.0728 42.82 35.0728 43.0239 35.0728C43.054 35.4331 42.9755 35.7943 42.7985 36.1097C42.1157 37.292 40.1169 37.3017 39.4331 36.1195C39.0848 35.5517 39.2224 34.863 39.198 34.2338C39.2409 33.4759 39.0331 32.6155 39.5258 31.9531Z" fill="#020202"/>
<path d="M45.3602 31.2781C45.8587 31.2089 46.4011 31.1894 46.8625 31.4264C47.1459 31.5715 47.384 31.7917 47.5508 32.0631C47.7175 32.3344 47.8064 32.6463 47.8077 32.9648C47.8155 33.6476 47.7999 34.3304 47.8155 35.0133C47.8331 35.5566 47.6819 36.1322 47.2692 36.5097C46.7727 36.9974 46.0109 37.0677 45.3563 36.9487C44.5993 36.8053 43.9838 36.0971 43.9906 35.3206C43.9828 34.506 43.977 33.6925 43.9906 32.8818C43.9838 32.1053 44.6091 31.4108 45.3602 31.2781ZM45.567 31.8898C45.3049 31.9267 45.0647 32.0559 44.8894 32.2542C44.7141 32.4526 44.6154 32.707 44.6111 32.9716C44.6276 33.752 44.5925 34.5265 44.6198 35.303C44.6287 35.5013 44.6923 35.6933 44.8037 35.8576C44.9152 36.0219 45.07 36.1521 45.251 36.2336C45.5436 36.3575 45.8724 36.338 46.1855 36.3244C46.6596 36.2902 47.1258 35.9059 47.1346 35.4084C47.2117 34.4796 47.2039 33.5458 47.1112 32.6185C46.9366 31.9688 46.1523 31.7893 45.5641 31.8898H45.567Z" fill="#020202"/>
<path d="M48.7598 31.2372C49.03 31.1728 49.1773 31.3562 49.2787 31.5776C49.8201 31.2723 50.4659 31.1191 51.0746 31.3074C51.4121 31.3757 51.6677 31.6137 51.9428 31.803C52.612 31.1435 53.7514 31.0226 54.524 31.5718C54.7088 31.7131 54.8592 31.8945 54.964 32.1023C55.0687 32.3101 55.1251 32.5389 55.1288 32.7716C55.1288 34.1627 55.1288 35.5547 55.1336 36.9467C54.9311 37.0084 54.7144 37.006 54.5132 36.9399C54.4771 35.5839 54.5132 34.2261 54.4937 32.8701C54.5005 32.4712 54.2811 32.0459 53.8782 31.9317C53.407 31.7971 52.7924 31.8078 52.4666 32.2302C52.3231 32.4117 52.2553 32.6417 52.2774 32.8721C52.2774 34.1734 52.2774 35.4747 52.2823 36.774C52.2989 37.0969 51.8618 37.0091 51.6706 36.9379C51.6033 36.7945 51.6258 36.6306 51.617 36.4794C51.617 35.2415 51.6238 34.0027 51.617 32.7648C51.6131 32.5571 51.5381 32.3571 51.4043 32.1981C51.2706 32.0392 51.0864 31.931 50.8824 31.8917C50.4698 31.8186 49.9742 31.8234 49.664 32.1483C49.4504 32.3619 49.3968 32.6731 49.4007 32.9638C49.4007 34.1675 49.4007 35.3723 49.4075 36.5731C49.4058 36.7204 49.3875 36.867 49.3529 37.0101C49.1563 36.9979 48.9607 36.9725 48.7676 36.934C48.712 35.0386 48.7744 33.1374 48.7598 31.2372Z" fill="#020202"/>
<path d="M56.0818 31.244C56.1881 31.244 56.2944 31.244 56.4017 31.2538C56.4671 31.3678 56.526 31.4853 56.5783 31.6059C56.948 31.4664 57.2943 31.2342 57.704 31.2294C58.2893 31.1718 58.8531 31.4606 59.2707 31.8566C59.4845 31.6109 59.7597 31.4263 60.0682 31.3216C60.3766 31.2169 60.7073 31.1959 61.0266 31.2606C61.7982 31.3074 62.4644 31.9971 62.4508 32.7755C62.4586 34.1776 62.4586 35.5791 62.4508 36.9799C62.2437 37.0217 62.0291 37.0058 61.8304 36.934C61.8118 35.6776 61.7982 34.4192 61.8304 33.1628C61.8538 32.7502 61.7494 32.2673 61.3729 32.038C60.7807 31.6937 59.7789 31.8693 59.6218 32.6233C59.576 34.0768 59.6414 35.5362 59.5906 36.9916C59.3692 37.0043 59.1409 37.0179 58.9439 36.9038C58.937 35.5566 58.9439 34.2105 58.9439 32.8643C58.9673 32.4234 58.6512 31.9805 58.2015 31.9171C57.7547 31.8195 57.1958 31.8615 56.9158 32.2731C56.6866 32.5531 56.75 32.9316 56.7334 33.2662C56.7334 34.3724 56.7275 35.4796 56.7441 36.5829C56.7227 36.7145 56.7714 36.9096 56.6368 36.9916C56.4494 37.0117 56.2598 36.9901 56.0818 36.9282C56.0564 35.0338 56.0964 33.1394 56.0818 31.244Z" fill="#020202"/>
<path d="M64.3013 31.4566C64.7539 31.2079 65.2943 31.2089 65.7938 31.2615C66.1656 31.3229 66.5071 31.5041 66.7664 31.7776C67.0256 32.0511 67.1883 32.4019 67.2297 32.7765C67.258 33.2311 67.2394 33.6876 67.2385 34.1422C66.183 34.1851 65.1256 34.1422 64.0691 34.1656C64.0632 34.6319 64.0164 35.105 64.0993 35.5673C64.1642 35.7867 64.2974 35.9795 64.4795 36.1178C64.6617 36.2561 64.8832 36.3325 65.1119 36.336C65.5021 36.3575 65.9489 36.3429 66.2542 36.0561C66.5468 35.8093 66.5722 35.4083 66.6317 35.0601C66.8268 35.0601 67.0219 35.0601 67.217 35.0601C67.2651 35.4471 67.1787 35.8388 66.9724 36.1697C66.766 36.5006 66.4522 36.7504 66.0835 36.8774C65.5794 37.0381 65.0374 37.0347 64.5354 36.8677C64.2119 36.7532 63.9314 36.5421 63.7318 36.2629C63.5322 35.9838 63.4231 35.65 63.4194 35.3069C63.4038 34.4953 63.4038 33.6824 63.4194 32.8682C63.43 32.5763 63.517 32.2923 63.6717 32.0446C63.8265 31.7969 64.0436 31.5941 64.3013 31.4566ZM64.312 32.2663C64.0008 32.6048 64.0525 33.0906 64.0642 33.5149C64.8758 33.51 65.6913 33.552 66.5029 33.4964C66.6805 33.3384 66.6005 33.0789 66.5946 32.873C66.5517 32.4311 66.2464 32.0127 65.7986 31.919C65.2914 31.8244 64.6671 31.8322 64.312 32.2663Z" fill="#020202"/>
<path d="M68.1866 31.2508C68.2903 31.245 68.3942 31.245 68.4978 31.2508C68.6032 31.3669 68.6646 31.7171 68.8685 31.5308C69.3241 31.2137 69.8977 31.2098 70.4294 31.2557C70.4294 31.4508 70.4294 31.6459 70.4294 31.841C70.1289 31.8859 69.8216 31.8595 69.525 31.922C69.3369 31.9733 69.17 32.083 69.0483 32.2354C68.9266 32.3878 68.8565 32.5748 68.848 32.7697C68.8305 34.1353 68.8597 35.501 68.8373 36.8667C68.7124 37.1087 68.3817 36.9643 68.1818 36.9126C68.17 35.0279 68.1974 33.1394 68.1866 31.2508Z" fill="#020202"/>
<path d="M71.8408 31.7942C72.3471 31.2138 73.1987 31.1504 73.9079 31.2967C74.3091 31.3998 74.6599 31.6437 74.8961 31.984C75.1324 32.3243 75.2383 32.7382 75.1946 33.1501C74.9761 33.1667 74.7517 33.1999 74.5469 33.1053C74.5759 32.9105 74.5494 32.7115 74.4706 32.531C74.3917 32.3506 74.2637 32.196 74.1011 32.0849C73.7928 31.8644 73.3919 31.8683 73.028 31.8898C72.5178 31.9249 72.034 32.3444 72.032 32.875C72.0057 33.6554 72.0135 34.4358 72.0233 35.2221C72.0174 35.5557 72.1325 35.9049 72.4135 36.1068C72.7061 36.3595 73.1236 36.3546 73.4943 36.341C73.6767 36.3388 73.8557 36.2905 74.0145 36.2007C74.1733 36.1108 74.3067 35.9822 74.4025 35.8269C74.543 35.6162 74.5313 35.3528 74.5976 35.1167C74.7751 35.0094 75.0083 35.105 75.2073 35.0962C75.2291 35.3996 75.1729 35.7035 75.044 35.9789C74.9151 36.2543 74.7177 36.4922 74.4708 36.6697C73.9967 37.0101 73.3753 37.0433 72.8124 36.9623C72.4214 36.8954 72.0653 36.6964 71.8034 36.3985C71.5415 36.1006 71.3898 35.7218 71.3736 35.3255C71.3599 34.6719 71.3814 34.0173 71.3677 33.3638C71.3443 32.8068 71.4282 32.201 71.8408 31.7942Z" fill="#020202"/>
<path d="M76.3389 32.1912C76.6315 31.5727 77.3144 31.2069 77.9972 31.2342C78.68 31.1796 79.4146 31.4742 79.753 32.0907C80.1432 32.7121 79.9481 33.4632 79.9891 34.1509C78.9405 34.1675 77.8909 34.1324 76.8442 34.1694C76.7466 34.4962 76.8178 34.864 76.8013 35.2074C76.7837 35.6951 77.1144 36.1829 77.5992 36.2902C78.084 36.3975 78.6722 36.3799 79.0536 36.016C79.2907 35.7605 79.3394 35.4015 79.3687 35.0698C79.5775 35.0581 79.7872 35.0532 79.9979 35.0484C80.0303 35.4175 79.9473 35.7876 79.7603 36.1076C79.5734 36.4275 79.2917 36.6815 78.9541 36.8345C78.4971 37.0017 78.0023 37.0372 77.526 36.9369C76.812 36.7906 76.2199 36.1497 76.177 35.4161C76.1535 34.7947 76.177 34.1724 76.1682 33.551C76.1682 33.0974 76.1126 32.6106 76.3389 32.1912ZM77.0412 32.2819C76.7486 32.6155 76.7993 33.0837 76.7915 33.4964C77.6177 33.5227 78.4498 33.552 79.279 33.4817C79.5423 32.8896 79.1814 32.0136 78.4879 31.9083C77.9913 31.8263 77.3739 31.8449 77.0412 32.2887V32.2819Z" fill="#020202"/>
<path d="M32.75 31.3279C33.1543 31.2206 33.5771 31.203 33.9889 31.2762C34.7361 31.4167 35.3546 32.0976 35.3731 32.8663C35.3985 33.5491 35.3819 34.2319 35.3858 34.9148C35.3858 35.2874 35.3809 35.6786 35.2044 36.019C34.5849 37.3018 32.4369 37.3398 31.7658 36.0863C31.4477 35.5235 31.5707 34.8533 31.5463 34.2378C31.5687 33.6525 31.4858 33.0496 31.6253 32.4722C31.7036 32.2033 31.8474 31.9581 32.0436 31.7585C32.2399 31.5588 32.4826 31.4109 32.75 31.3279ZM33.1792 31.8908C32.6749 31.9239 32.2184 32.3492 32.2037 32.8663C32.1764 33.6847 32.1813 34.5051 32.2037 35.3245C32.2143 35.5737 32.313 35.811 32.4822 35.9943C32.6513 36.1775 32.88 36.2948 33.1275 36.3253C33.5275 36.3546 33.9801 36.3761 34.3176 36.1205C34.6044 35.9205 34.7381 35.5635 34.739 35.224C34.7586 34.5714 34.7234 33.9178 34.739 33.2662C34.739 32.9062 34.739 32.4965 34.4562 32.2302C34.1294 31.8791 33.6202 31.8381 33.1792 31.8908Z" fill="#020202"/>
<path d="M26.5527 0.0399783C28.7612 0.0185175 30.9698 0.0292479 33.1783 0.0399783C34.1538 1.05351 35.1088 2.09339 36.1096 3.08644C38.9268 6.03632 41.7558 8.97385 44.5964 11.899C46.2411 13.6734 47.954 15.3845 49.6143 17.1442L49.5831 17.1735L49.7089 17.2262C49.7193 16.8728 49.7102 16.5192 49.6816 16.1668C49.7421 13.8012 49.7128 11.4337 49.7304 9.0662C49.7263 8.80716 49.6936 8.54937 49.6328 8.29751C49.9288 7.15903 50.4043 6.07499 51.0415 5.08619C50.981 5.5037 51.0141 5.92609 51.0083 6.34653C51.0083 10.6182 51.0171 14.8899 51.0083 19.1625C50.9839 20.219 50.9966 21.2764 51.0083 22.3329C51.0171 22.8957 51.0346 23.4605 51.0083 24.0234L50.9185 24.2C49.2465 22.4743 47.5229 20.7984 45.8333 19.0903C43.7965 17.0642 41.7811 15.0167 39.7297 13.0072C37.9962 11.2308 36.2384 9.4759 34.4796 7.72392C34.2845 7.52297 34.0669 7.34543 33.9148 7.11034L33.7392 7.00206C32.9305 6.1485 32.0886 5.32812 31.2526 4.50285C31.2195 6.53285 31.2683 8.56382 31.2283 10.5928C31.2283 10.7001 31.2166 11.7742 31.2507 12.3419C31.2858 13.4871 31.198 14.6372 31.2839 15.7795C31.1922 16.5316 31.2575 17.2915 31.237 18.0475C31.2644 18.6845 31.1902 19.3274 31.2868 19.9605C30.9325 20.6205 30.432 21.1907 29.8236 21.6276C29.8762 21.1828 29.9718 20.7428 29.9591 20.2931C29.9533 18.2446 29.9591 16.2009 29.9533 14.1553C29.9474 13.4062 29.9367 12.656 29.9582 11.9117C29.9582 11.7264 29.965 11.5839 29.965 11.4103C29.9357 9.80074 29.9874 8.19118 29.9455 6.5826C29.9357 6.24996 29.9377 5.91829 29.9455 5.58662C29.9533 4.95938 30.0089 4.33116 29.9689 3.7049C29.9116 2.79682 29.5536 1.93366 28.9515 1.25154C28.335 0.554062 27.4473 0.180449 26.5527 0.0399783Z" fill="#FFBE00"/>
<path d="M46.3816 0.047778C48.9568 0.0214397 51.5331 0.0146113 54.1074 0.047778C53.327 0.334572 52.4257 0.633072 51.9701 1.3842C51.1397 1.79258 50.3417 2.26381 49.5831 2.79378C49.4553 2.2836 49.1471 1.84268 48.8466 1.42029C48.2138 0.684768 47.3401 0.198273 46.3816 0.047778Z" fill="#FFBE00"/>
<path d="M28.9719 24.1122C30.1211 23.9688 31.2204 23.5708 32.2515 23.0557L32.2906 23.0499C32.6702 23.4537 33.1374 23.7651 33.6562 23.96C33.8201 24.0302 34.0123 24.0576 34.1245 24.2127C32.3862 24.2761 29.5611 24.2214 27.8209 24.24L28.9719 24.1122Z" fill="#FFBE00"/>
</g>
<defs>
<clipPath id="clip0_801_6906">
<rect width="80.0047" height="37.0141" fill="white"/>
</clipPath>
</defs>
</svg>
