<svg width="80" height="17" viewBox="0 0 80 17" fill="none" xmlns="http://www.w3.org/2000/svg">
<g clip-path="url(#clip0_801_6934)">
<path d="M20.7204 5.46125C20.7554 6.06281 20.7904 7.58419 20.7904 8.13853C20.7904 8.64915 20.7904 10.3611 20.7012 11.0991L20.6942 11.1568H23.368C24.6813 11.1568 26.0715 10.7476 26.0715 9.58121C26.0715 8.85025 25.5416 8.3099 24.5519 8.01437C25.2863 7.81851 25.776 7.31663 25.776 6.74306C25.776 5.79001 24.6813 5.43153 23.653 5.40704H20.7047L20.7204 5.46125ZM22.7857 6.04357C23.9014 6.05232 24.3088 6.27965 24.3088 6.88645C24.3088 7.05433 24.2581 7.20297 24.1584 7.31663C23.9451 7.57369 23.5289 7.70659 22.999 7.67337H22.9728L22.6615 8.48477H22.9728C23.5883 8.46728 24.1234 8.66139 24.398 8.99714C24.5256 9.15103 24.5886 9.33289 24.5886 9.52175C24.5886 10.1565 24.029 10.4835 22.9273 10.4835C22.7402 10.4835 22.4394 10.4835 22.2523 10.4766C22.2208 9.63018 22.2069 8.48302 22.2069 8.13853C22.2069 7.73807 22.2331 6.84798 22.2523 6.08729C22.38 6.06106 22.5898 6.04532 22.7874 6.04532" fill="#231F20"/>
<path d="M32.2444 5.40708H30.9434L30.9959 6.85676C31.0221 7.57373 31.0466 8.30994 31.0955 9.02691C31.0116 8.80308 30.9329 8.68766 30.5377 8.11059C30.536 8.09135 29.1842 6.01039 28.7138 5.41932L28.6998 5.40533H27.1907V5.45954C27.2379 6.0611 27.2571 7.58248 27.2571 8.13682C27.2571 8.64744 27.2571 10.3594 27.1854 11.0974L27.1732 11.1551H28.5179V11.0974C28.441 9.69492 28.441 8.27846 28.441 6.90398C28.4882 7.0701 28.5477 7.2135 28.7593 7.52827C28.7768 7.56499 31.0938 10.9383 31.2057 11.1324L31.218 11.1568H32.2952V11.0991C32.2112 10.3612 32.2042 8.64919 32.2042 8.13857C32.2042 7.58422 32.241 6.06285 32.2759 5.46129L32.2934 5.40708H32.241H32.2444Z" fill="#231F20"/>
<path d="M33.8008 5.46128C33.8533 6.06283 33.8743 7.58421 33.8743 8.13855C33.8743 8.64917 33.8743 10.3612 33.7956 11.0991V11.1586H35.3956L35.3886 11.0991C35.3344 10.5675 35.3064 9.55675 35.3012 8.78208C35.3764 8.78557 35.6037 8.79781 35.6037 8.79781L35.8311 8.80306C37.9365 8.80306 38.9613 8.24697 38.9613 7.07359C38.9613 5.73932 37.5238 5.4333 36.3259 5.40881H33.8026V5.46302L33.8008 5.46128ZM35.7734 6.1013C36.5236 6.08731 37.0464 6.23945 37.2947 6.55422C37.4084 6.69062 37.4714 6.86899 37.4714 7.07184C37.4714 7.90422 36.534 8.08434 35.7524 8.08434L35.4359 8.0651C35.4359 8.0651 35.3607 8.05811 35.3047 8.05286C35.2995 7.86051 35.2995 7.60694 35.2995 7.3219C35.2995 6.95992 35.2995 6.53148 35.3169 6.13278C35.4271 6.11879 35.5932 6.09955 35.7734 6.09955" fill="#231F20"/>
<path d="M42.0128 5.46128C42.0635 6.06283 42.0932 7.58421 42.0932 8.13855C42.0932 8.64917 42.088 10.3612 42.0058 11.0991V11.1586H43.6076L43.5988 11.0991C43.5481 10.5675 43.5184 9.55675 43.5184 8.78208C43.5936 8.78557 43.8069 8.79781 43.8069 8.79781L44.0395 8.80306C46.145 8.80306 47.1767 8.24697 47.1767 7.07359C47.1767 5.73932 45.7323 5.4333 44.5292 5.40881H42.0145V5.46302L42.0128 5.46128ZM43.9836 6.1013C44.7355 6.08731 45.2584 6.23945 45.5102 6.55422C45.6256 6.69062 45.6851 6.86899 45.6851 7.07184C45.6851 7.90422 44.7495 8.08434 43.9766 8.08434L43.66 8.0651C43.66 8.0651 43.5761 8.05811 43.5271 8.05286C43.5184 7.86051 43.5184 7.60519 43.5184 7.3219C43.5184 6.95642 43.5184 6.53148 43.5341 6.13278C43.6338 6.11879 43.8069 6.09955 43.9853 6.09955" fill="#231F20"/>
<path d="M49.3154 5.40704H49.2944L49.2839 5.43677C48.9849 6.25517 47.0665 10.4451 46.7623 11.0869L46.736 11.1585H48.1L48.1105 11.1271C48.2312 10.7336 48.3921 10.2894 48.5669 9.81379C48.6211 9.81379 49.7053 9.7963 49.7053 9.7963L50.6461 9.8033C50.6461 9.8033 50.7983 9.81379 50.8437 9.81379C51.0868 10.4311 51.2722 10.898 51.3526 11.1341L51.3684 11.1585H52.9474L50.3961 5.40879H49.3154V5.40704ZM49.7053 7.09979C49.833 7.37434 50.1617 8.13853 50.5342 9.05136C50.4765 9.05485 50.4048 9.05485 50.4048 9.05485L49.7053 9.06359C49.7053 9.06359 48.9796 9.05485 48.859 9.05136C49.1615 8.32214 49.4605 7.66288 49.7053 7.09979Z" fill="#231F20"/>
<path d="M53.591 5.46125C53.6364 6.06281 53.6592 7.58419 53.6592 8.13853C53.6592 8.64915 53.6592 10.3611 53.5717 11.0991V11.1585H55.1823L55.1753 11.0991C55.0896 10.3559 55.0844 8.6509 55.0844 8.13853C55.0844 7.73807 55.0966 6.84798 55.1368 6.12751C55.2592 6.12052 55.4446 6.10128 55.5722 6.10128C56.3172 6.08729 56.8436 6.24118 57.0901 6.5542C57.2073 6.68885 57.2615 6.87246 57.2615 7.07182C57.2615 7.73633 56.6407 8.07208 56.0636 8.10181C55.8695 8.11055 55.7261 8.08432 55.7261 8.08432L55.6125 8.06508L55.6737 8.17C56.2455 9.00414 57.1006 10.4486 57.4539 11.1306L57.4643 11.1551H59.1833L59.1414 11.0781C59.0714 10.9802 57.9505 9.33115 57.4748 8.62817C57.4748 8.62817 57.4539 8.60718 57.4329 8.5862C58.3142 8.32214 58.7409 7.82901 58.7409 7.07182C58.7409 5.74804 57.3052 5.43153 56.0916 5.40704H53.584L53.5892 5.46125H53.591Z" fill="#231F20"/>
<path d="M61.4602 5.40704H59.9265L59.9353 5.46125C59.9755 6.06281 60.007 7.58419 60.007 8.13853C60.007 8.6474 60 10.3559 59.9283 11.0991L59.923 11.1568H61.5126L61.5039 11.0991C61.4427 10.3559 61.4234 8.6474 61.4234 8.13853C61.4234 7.58419 61.4619 6.06281 61.5039 5.46125V5.40704H61.4619H61.4602Z" fill="#231F20"/>
<path d="M62.9605 5.46125C63.006 6.06281 63.034 7.58419 63.034 8.13853C63.034 8.64915 63.034 10.3611 62.9536 11.0991L62.9413 11.1568H65.6186C66.9284 11.1568 68.3221 10.7476 68.3221 9.58121C68.3221 8.85025 67.7922 8.3099 66.7937 8.01437C67.5282 7.81851 68.0231 7.31663 68.0231 6.74306C68.0231 5.79001 66.9266 5.43153 65.9071 5.40704H62.9518L62.9588 5.46125H62.9605ZM65.024 6.04357C66.1467 6.05232 66.5559 6.27965 66.5559 6.88645C66.5559 7.05433 66.5052 7.20297 66.402 7.31663C66.1992 7.57369 65.7672 7.70659 65.2409 7.67337H65.2146L64.9051 8.48477H65.2146C65.8319 8.46728 66.3618 8.66139 66.6363 8.99714C66.771 9.15103 66.8339 9.33289 66.8339 9.52175C66.8339 10.1565 66.2726 10.4835 65.1657 10.4835C64.9873 10.4835 64.6883 10.4835 64.4994 10.4766C64.454 9.63018 64.4539 8.48302 64.4539 8.13853C64.4539 7.73807 64.4697 6.84798 64.4994 6.08729C64.6201 6.06106 64.8299 6.04532 65.024 6.04532" fill="#231F20"/>
<path d="M72.2602 5.40708H71.183L71.176 5.43331C70.8542 6.30417 68.8257 10.7144 68.6561 11.0799L68.6264 11.1586H69.9956L70.0044 11.1236C70.118 10.7284 70.2772 10.2877 70.4555 9.80334C70.4992 9.80334 71.5869 9.78585 71.5869 9.78585L72.5295 9.79984C72.5295 9.79984 72.6939 9.80159 72.7289 9.80159C72.9772 10.4189 73.1608 10.8893 73.2412 11.1219L73.257 11.1568H74.843L72.2917 5.40533H72.2567L72.2602 5.40708ZM71.5992 7.09808C71.7286 7.36564 72.0556 8.13157 72.4281 9.04615C72.3704 9.04615 72.3022 9.05139 72.3022 9.05139L71.5992 9.06014C71.5992 9.06014 70.8647 9.0444 70.7563 9.0444C71.0536 8.30994 71.3474 7.65592 71.5992 7.09634" fill="#231F20"/>
<path d="M75.2942 6.89347C75.2942 7.90423 76.305 8.30993 77.2021 8.6824C77.8998 8.96045 78.629 9.25248 78.629 9.73512C78.629 9.88027 78.5993 10.0027 78.5188 10.0901C78.351 10.2877 78.0117 10.3699 77.4731 10.3402C76.938 10.3192 76.3365 10.1496 75.6597 9.8383L75.3939 9.71065V10.9645L75.5758 11.0099L75.6807 11.0274C76.0147 11.1096 76.6617 11.2617 77.3035 11.2617C78.9927 11.2617 80 10.5885 80 9.47457C80 8.42884 78.9595 8.02139 78.0397 7.65591C77.3612 7.38136 76.6617 7.11031 76.6617 6.6609C76.6617 6.53149 76.6617 6.15552 77.5361 6.15552C78.1813 6.15552 78.8074 6.41782 79.1641 6.55422L79.4876 6.68888V6.47378L79.4859 5.43155L79.1641 5.37385C78.8354 5.30739 78.288 5.19897 77.7249 5.19897C76.2683 5.19897 75.296 5.88797 75.296 6.89522" fill="#231F20"/>
<mask id="mask0_801_6934" style="mask-type:luminance" maskUnits="userSpaceOnUse" x="0" y="0" width="17" height="17">
<path d="M16.5568 0H0V16.5568H16.5568V0Z" fill="white"/>
</mask>
<g mask="url(#mask0_801_6934)">
<path d="M16.5568 0H0V16.5568H16.5568V0Z" fill="url(#paint0_linear_801_6934)"/>
</g>
<mask id="mask1_801_6934" style="mask-type:luminance" maskUnits="userSpaceOnUse" x="0" y="0" width="17" height="17">
<path d="M1.29228 0.295593C0.970516 0.295593 0.76242 0.566643 0.711707 0.946113C0.711707 0.946113 0.299011 3.11976 0.299011 7.73285C0.299011 12.3459 0.711707 15.3695 0.711707 15.3695C0.750179 15.7349 0.972265 16.02 1.29228 16.02H15.623C15.943 16.02 16.1983 15.7664 16.2035 15.3695C16.2035 15.3695 16.0444 11.8336 16.0444 8.37813C16.0444 4.92268 16.2035 0.946113 16.2035 0.946113C16.2123 0.592874 15.943 0.295593 15.623 0.295593H1.29228Z" fill="white"/>
</mask>
<g mask="url(#mask1_801_6934)">
<path d="M16.2123 0.295593H0.299011V16.0217H16.2123V0.295593Z" fill="url(#paint1_linear_801_6934)"/>
</g>
<g style="mix-blend-mode:multiply">
<mask id="mask2_801_6934" style="mask-type:luminance" maskUnits="userSpaceOnUse" x="0" y="0" width="17" height="17">
<path d="M16.2123 0.295593H0.299011V16.02H16.2123V0.295593Z" fill="white"/>
</mask>
<g mask="url(#mask2_801_6934)">
<mask id="mask3_801_6934" style="mask-type:luminance" maskUnits="userSpaceOnUse" x="0" y="0" width="17" height="17">
<path d="M1.27653 0.295593C0.965261 0.304337 0.76241 0.573638 0.713446 0.946113C0.713446 0.946113 0.300751 3.11976 0.300751 7.73285C0.300751 12.3459 0.713446 15.3695 0.713446 15.3695C0.751918 15.7349 0.974004 16.02 1.29402 16.02H15.623C15.943 16.02 16.1983 15.7664 16.2035 15.3695C16.2035 15.3695 16.0444 11.8336 16.0444 8.37813C16.0444 4.92268 16.2035 0.946113 16.2035 0.946113C16.2105 0.59812 15.9517 0.306086 15.6387 0.295593H1.27653Z" fill="white"/>
</mask>
<g mask="url(#mask3_801_6934)">
<path d="M16.2123 0.295593H0.299011V16.02H16.2123V0.295593Z" fill="url(#paint2_linear_801_6934)"/>
</g>
</g>
</g>
<path d="M12.8565 4.47328C11.8318 5.07309 11.5205 5.1203 10.4083 5.78831L10.4625 5.66415C11.0466 5.02762 11.2984 4.76182 11.6831 4.19873C10.6584 4.25469 9.16848 4.3771 8.10352 4.61143L8.15947 4.49776C9.12476 4.02736 10.9172 3.56045 11.8318 3.43979C11.6079 3.12502 9.79277 2.144 9.3416 1.95514L9.39407 1.83972C10.7703 1.99536 12.5942 2.63888 13.3899 3.12502C13.7256 3.0201 14.0701 3.00961 14.6927 2.9554C14.6927 2.9554 14.6 3.32962 13.9215 3.79653C14.0894 4.24769 13.6854 6.74485 13.3514 7.40761C13.3357 6.36189 13.2447 5.04336 12.8565 4.47153" fill="#009A7B"/>
<path d="M5.37552 13.4249L5.42798 13.306C4.88413 13.0979 4.34028 12.93 3.89961 12.5173C4.03776 12.1309 4.19689 11.8283 4.45395 11.4471L4.50816 11.33C4.04125 11.3999 3.61807 11.573 3.21237 11.6517C2.8941 11.0921 2.77169 10.3262 2.61081 9.59698L2.55835 9.71065C2.46742 10.5448 2.43244 11.1411 2.5496 11.8039C2.2121 11.8983 1.91832 11.9123 1.64727 12.0277L1.59656 12.1396C2.02674 12.4037 2.37998 12.6083 2.86787 12.8373C3.12843 13.3952 3.39773 13.7764 3.83666 14.2066L3.88912 14.0894C3.81043 13.7747 3.709 13.5106 3.74747 13.1609C4.28957 13.3182 4.75473 13.4004 5.37377 13.4232" fill="#009A7B"/>
<path d="M6.88465 5.1098C6.88465 5.1098 6.66606 5.49627 6.49119 6.01039H6.44922C7.72578 6.18351 8.92889 6.69938 9.23142 6.87775L9.17721 6.99316C7.85518 6.75883 7.15745 6.78681 6.66431 6.83053C6.17118 6.8795 6.0715 6.93895 6.0715 6.93895C5.78821 7.55974 5.62208 8.57225 5.55388 8.94647L5.49967 9.06189C5.25835 8.47957 4.90861 7.31842 4.90861 7.31842C4.24235 7.67516 2.70523 9.11784 2.70523 9.11784C3.55161 7.42859 4.41022 6.65741 4.41022 6.65741C4.11469 6.36013 3.34176 6.20799 2.77693 6.18526L2.83114 6.06984C3.18438 5.96667 3.91534 5.92295 4.40323 5.90022C4.98205 5.88273 5.33179 5.91596 5.33179 5.91596C5.84766 5.50501 6.61535 5.14653 6.8864 5.1098" fill="#009A7B"/>
<path d="M8.50746 12.3739C8.23991 12.7341 8.01258 13.0227 7.71704 13.3532C7.27987 13.4738 6.75875 13.4196 6.3548 13.4319L6.30234 13.5455C6.60486 13.7029 6.90215 13.7956 7.21866 13.8621C6.9616 14.0964 6.61711 14.2747 6.37753 14.4374L6.32332 14.551C6.84094 14.4269 7.52119 14.2083 8.02831 13.911C8.29237 13.9215 8.54069 13.9023 8.71906 13.8673C8.71906 13.8673 8.77327 13.7501 8.77327 13.7536C8.74179 13.6382 8.63862 13.5665 8.60714 13.4021C9.08104 13.0332 9.42554 12.6974 9.82424 12.297L9.87845 12.1833C9.48499 12.4543 9.00934 12.8251 8.54943 13.0419C8.53019 12.8198 8.51621 12.6257 8.50396 12.3739" fill="#009A7B"/>
<path d="M12.909 4.35785C11.8877 4.9594 11.573 5.00837 10.4643 5.67462C11.1113 4.97339 11.3351 4.67261 11.7373 4.08679C10.7126 4.14101 9.22444 4.26341 8.16122 4.49949C9.08629 4.00461 10.9207 3.45551 11.8877 3.32611C11.6639 3.01658 9.84698 2.03206 9.39407 1.8432C10.8333 1.95687 12.5907 2.49197 13.4423 3.01309C13.7781 2.90816 14.1261 2.90292 14.7521 2.84871C14.5912 3.12151 14.586 3.27889 13.9739 3.68459C14.1436 4.13751 13.7379 6.63466 13.4039 7.29393C13.3916 6.24995 13.3007 4.93142 12.909 4.35959" fill="white"/>
<path d="M5.42798 13.306C4.84041 13.0909 4.41723 12.8373 3.95207 12.4001C4.09197 12.0172 4.24935 11.7164 4.50991 11.3299C4.03251 11.4016 3.68102 11.4558 3.27007 11.5345C2.93432 10.947 2.78393 10.3839 2.61256 9.59521C2.52162 10.4293 2.48665 11.0257 2.60381 11.6884C2.22609 11.7933 1.95854 11.8843 1.64902 12.0277C2.08445 12.2917 2.43594 12.4981 2.92208 12.7237C3.18264 13.2832 3.45369 13.6592 3.89086 14.0894C3.78944 13.7239 3.76146 13.4319 3.80343 13.0437C4.34728 13.2046 4.81069 13.2885 5.42798 13.3042" fill="white"/>
<path d="M6.95637 5.01013C6.7745 5.24796 6.56116 5.69038 6.50345 5.89673C8.01609 6.10133 9.22969 6.8795 9.22969 6.8795C7.90767 6.64518 7.20993 6.6749 6.71504 6.71862C6.22366 6.76409 6.12398 6.82354 6.12398 6.82354C5.76724 7.60522 5.55215 8.94822 5.55215 8.94822C5.31083 8.36765 4.96284 7.20476 4.96284 7.20476C4.29483 7.5615 2.75946 9.00418 2.75946 9.00418C3.60409 7.31318 4.46096 6.5455 4.46096 6.5455C4.16717 6.24647 3.39249 6.09783 2.82766 6.0716C3.11969 5.95269 3.87339 5.81279 4.45221 5.78656C5.03278 5.76907 5.38078 5.8023 5.38078 5.8023C5.89665 5.39485 6.68182 5.05035 6.95287 5.01188" fill="white"/>
<path d="M8.55991 12.262C8.29411 12.6222 8.06328 12.9073 7.76775 13.2378C7.25887 13.3812 6.85142 13.4336 6.35654 13.4336C6.66081 13.5893 6.95634 13.6837 7.27461 13.7502C6.95809 14.0404 6.68879 14.2433 6.38102 14.4409C6.89864 14.3167 7.57714 14.0981 8.08426 13.7991C8.34832 13.8096 8.59664 13.7939 8.77675 13.7571C8.72954 13.6033 8.69981 13.4896 8.66309 13.292C9.13874 12.9195 9.48673 12.589 9.88369 12.1851C9.46225 12.4788 9.09677 12.6992 8.60888 12.93C8.58614 12.7062 8.5739 12.5173 8.56341 12.262" fill="white"/>
</g>
<defs>
<linearGradient id="paint0_linear_801_6934" x1="8.0056" y1="-0.407449" x2="8.0056" y2="17.0709" gradientUnits="userSpaceOnUse">
<stop stop-color="#009A7B"/>
<stop offset="0.6" stop-color="#77C1B1"/>
<stop offset="1" stop-color="#009A7B"/>
</linearGradient>
<linearGradient id="paint1_linear_801_6934" x1="8.14023" y1="-4.10766" x2="8.14023" y2="15.5286" gradientUnits="userSpaceOnUse">
<stop stop-color="#009A7B"/>
<stop offset="0.3" stop-color="#77C1B1"/>
<stop offset="0.55" stop-color="#009A7B"/>
<stop offset="0.84" stop-color="#009A7B"/>
<stop offset="1" stop-color="#00A184"/>
</linearGradient>
<linearGradient id="paint2_linear_801_6934" x1="8.13848" y1="-4.10766" x2="8.13848" y2="15.5286" gradientUnits="userSpaceOnUse">
<stop stop-color="white"/>
<stop offset="0.3" stop-color="white"/>
<stop offset="0.55" stop-color="white"/>
<stop offset="0.84" stop-color="#B1B3B5"/>
<stop offset="0.87" stop-color="#B9BBBD"/>
<stop offset="0.92" stop-color="#D2D3D4"/>
<stop offset="0.99" stop-color="#F9F9F9"/>
<stop offset="1" stop-color="white"/>
</linearGradient>
<clipPath id="clip0_801_6934">
<rect width="80" height="16.5568" fill="white"/>
</clipPath>
</defs>
</svg>
