<svg width="50" height="80" viewBox="0 0 50 80" fill="none" xmlns="http://www.w3.org/2000/svg">
<g clip-path="url(#clip0_801_6770)">
<path d="M14.5162 56.0529C14.227 56.0529 13.9428 56.0726 13.6623 56.104H15.3703C15.0897 56.0726 14.8054 56.0529 14.5162 56.0529Z" fill="#00529C"/>
<path d="M11.0117 68.339C12.3589 68.339 13.3576 68.6882 14.0077 69.3851C14.6185 70.0711 14.9267 70.8809 14.9267 71.8179C14.9267 72.783 14.5772 73.6078 13.8793 74.293C13.1806 74.9785 12.0325 75.3211 10.4333 75.3211H5.00823V68.339H11.0117ZM11.784 58.1394C12.1441 58.2769 12.445 58.4555 12.6797 58.6803C13.289 59.2648 13.5936 59.9627 13.5936 60.7748C13.5936 61.5113 13.4663 62.1205 13.2128 62.6027C12.9588 63.0851 12.705 63.4536 12.4516 63.7068H5.00823V57.8237H9.63508C10.5024 57.8237 11.2165 57.9303 11.784 58.1394ZM16.5177 65.1652C16.6958 64.9872 16.9062 64.7575 17.1488 64.4769C17.3906 64.1968 17.6203 63.8651 17.8371 63.4827C18.0534 63.1003 18.2385 62.6739 18.3917 62.2018C18.5444 61.7303 18.6211 61.2266 18.6211 60.6913C18.6211 59.6464 18.4426 58.6712 18.0858 57.7662C17.7285 56.8616 17.1805 56.071 16.4415 55.3954C15.7018 54.7203 14.778 54.191 13.6691 53.8084C12.5602 53.426 11.2662 53.2348 9.78804 53.2348H0.0372412V80.0014H10.744C12.2986 80.0014 13.6559 79.7912 14.8163 79.3706C15.9761 78.9497 16.9384 78.3703 17.7034 77.6306C18.4679 76.8917 19.0351 76.0312 19.4051 75.0497C19.7741 74.0686 19.9592 73.0172 19.9592 71.8949C19.9592 70.3912 19.6153 69.0528 18.927 67.8801C18.2385 66.7079 17.4357 65.8026 16.5177 65.1652Z" fill="#00529C"/>
<path d="M32.2806 57.8233C32.5994 57.8233 32.8998 57.8438 33.1862 57.8802C34.0902 58.0165 34.8279 58.3391 35.3967 58.8517C36.1706 59.5498 36.5583 60.4068 36.5583 61.4217C36.5583 61.93 36.4752 62.425 36.3106 62.9069C36.1452 63.3894 35.8852 63.815 35.5299 64.1825C35.1741 64.5507 34.7172 64.849 34.1591 65.0774C33.6002 65.3061 32.9274 65.4203 32.1408 65.4203H26.7745V57.8233H32.2806ZM38.1121 68.4725C38.9149 67.9248 39.5842 67.2869 40.1195 66.5606C40.6548 65.8341 41.0499 65.0311 41.3049 64.1516C41.5594 63.2721 41.6873 62.3736 41.6873 61.4559C41.6873 60.2579 41.4895 59.1555 41.0947 58.1482C40.6992 57.1416 40.1063 56.2747 39.3165 55.5482C38.5261 54.8214 37.5385 54.2544 36.3531 53.8465C35.1678 53.4393 33.797 53.2347 32.2426 53.2347H21.7068V80.001H26.7745V70.0593H29.6004L36.5886 80.001H42.5285L35.3015 69.7152C36.3721 69.4351 37.3088 69.021 38.1121 68.4725Z" fill="#00529C"/>
<path d="M44.3179 53.2349V53.2425C44.2668 53.241 44.2169 53.2349 44.165 53.2349H44.1224V80.0013H49.2889V53.2349H44.3179Z" fill="#00529C"/>
<path d="M9.07803 0.0152749C7.32455 0.219488 6.10669 0.602387 4.83781 1.35542C2.11514 2.9636 0.368047 5.68218 0.0556103 8.79642C0.00459916 9.31972 -0.00815238 13.8188 0.00459915 25.0888C0.0301044 39.2879 0.036478 40.7047 0.138501 41.1705C0.5147 43.0084 1.17783 44.406 2.30643 45.7653C3.88137 47.6671 6.21508 48.9051 8.74008 49.1795C9.62639 49.2752 39.665 49.2688 40.5577 49.1731C42.2792 48.9881 44.0008 48.3052 45.4164 47.2395C46.054 46.7545 47.0614 45.6887 47.5333 44.9995C48.5535 43.5062 49.0891 41.9299 49.2166 40.0856C49.2931 39.0008 49.2931 10.2195 49.2166 9.13465C49.0445 6.6458 48.1008 4.53347 46.3792 2.81681C45.0147 1.44476 43.4844 0.615143 41.4695 0.155664L40.8318 0.0152685L25.0506 0.00250545C16.3725 -0.00388324 9.18642 0.00251191 9.07803 0.0152749ZM15.4543 5.71409C17.4564 6.26929 19.1206 7.91576 19.6435 9.8494C19.8475 10.6152 19.8284 11.6937 19.6052 12.4531C19.3884 13.1806 19.0633 13.8443 18.6169 14.4569C18.1833 15.0632 18.5659 14.6548 13.1907 20.3983C10.6848 23.0786 8.63169 25.3058 8.63169 25.3504C8.63169 25.4589 12.9229 29.6006 16.1238 32.5808C18.0813 34.406 18.821 35.3951 19.2864 36.831C19.5287 37.5713 19.5734 38.8285 19.3821 39.6262C19.1143 40.743 18.5595 41.6938 17.6732 42.549C17.0866 43.1169 16.5191 43.4998 16.0919 43.6275C15.907 43.6785 14.8804 43.6913 12.3937 43.6785L8.9505 43.6594L8.4659 43.4871C7.10138 43.0021 6.16407 42.0321 5.68585 40.6281C5.57746 40.2899 5.57108 39.6581 5.55195 24.8654C5.53282 7.61582 5.50094 8.93044 5.99829 7.89661C6.37449 7.11167 7.0695 6.42883 7.89842 6.01402C8.8421 5.54816 8.98238 5.5354 12.1705 5.55455C14.8167 5.56732 14.9697 5.57369 15.4543 5.71409ZM29.9284 5.8481C31.1782 6.27567 32.4662 7.42437 33.0847 8.66241C34.3089 11.0938 33.4991 13.7422 30.6107 16.7288C29.1824 18.2094 22.6595 25.2738 22.6595 25.344C22.6595 25.3823 26.6128 29.5049 31.4396 34.5081C39.0529 42.3894 40.2006 43.6019 40.0794 43.6402C40.0029 43.6594 36.2983 43.6785 31.8477 43.6849C25.4013 43.6913 23.7689 43.6721 23.7944 43.6083C24.8274 41.228 25.0825 40.1814 25.0697 38.2988C25.0506 35.0761 23.6669 32.115 20.9315 29.4602C20.5489 29.0901 19.3693 27.9733 18.3045 26.9777C17.2396 25.9822 16.3789 25.1462 16.3916 25.1207C16.4044 25.0952 17.737 23.6593 19.3566 21.9235C22.5447 18.5029 22.7487 18.2732 23.4055 17.2713C25.0825 14.7122 25.7009 11.7575 25.1398 9.00702C24.9804 8.20931 24.5979 7.12443 24.1898 6.31396L23.7187 5.52902H25.414C26.9657 5.52529 28.5587 5.39249 29.9284 5.8481ZM40.4301 5.62475C41.8903 5.93106 43.1145 7.12443 43.58 8.68794C43.6948 9.05169 43.7011 9.76005 43.7139 22.2808C43.7266 29.5432 43.7266 36.3332 43.7203 37.3607L43.7012 39.2305L37.0061 32.3C33.327 28.4902 30.311 25.3313 30.311 25.2866C30.311 25.2419 31.2993 24.1507 32.5108 22.8616C35.3801 19.8112 35.6926 19.4665 36.2601 18.7135C38.0582 16.3395 39.0146 13.9464 39.174 11.4001C39.2824 9.73453 38.8424 7.71154 38.0327 6.13528C37.8924 5.85448 37.7649 5.6056 37.7521 5.57369C37.7075 5.48435 39.9774 5.52902 40.4301 5.62475Z" fill="#00529C"/>
</g>
<defs>
<clipPath id="clip0_801_6770">
<rect width="49.2889" height="80.0014" fill="white"/>
</clipPath>
</defs>
</svg>
