<svg width="80" height="15" viewBox="0 0 80 15" fill="none" xmlns="http://www.w3.org/2000/svg">
<g clip-path="url(#clip0_801_6779)">
<path d="M15.3281 5.88219H16.6376C17.1421 5.88219 17.5714 5.96807 17.5714 6.53696C17.5714 7.17027 16.9811 7.32054 16.5517 7.32054H15.0275L15.3281 5.88219ZM12.3226 9.14531H16.7664C18.4516 9.14531 19.9544 8.40467 19.9544 6.5477C19.9544 5.82853 19.4928 5.14155 18.7736 4.99128V4.96981H18.7844C19.7182 4.72293 20.212 4.07889 20.212 3.11284C20.212 1.98578 19.5787 1.40614 17.9042 1.40614H13.9326L12.3226 9.14531ZM15.8648 3.26311H17.0884C17.507 3.26311 17.8291 3.34899 17.8291 3.82128C17.8291 4.29357 17.346 4.43311 16.9703 4.43311H15.6286L15.8648 3.26311Z" fill="#0069AC"/>
<path d="M21.9831 9.14531H24.366L25.5575 3.39192H27.7043L28.1122 1.40614H21.4357L21.0278 3.39192H23.1746L21.9831 9.14531Z" fill="#0069AC"/>
<path d="M27.3501 9.14531H29.6149L30.5166 4.8088H30.538L31.9549 9.14531H34.3056L35.9265 1.40614H33.6616L32.7922 5.63531H32.7707L31.3216 1.40614H28.9601L27.3501 9.14531Z" fill="#0069AC"/>
<path d="M11.4424 14.4801C11.5175 14.2225 11.4853 14.2225 11.6571 13.514C11.7859 12.8056 12.5587 11.7429 13.9219 11.6248C14.3835 11.5712 32.1803 10.8198 35.9801 10.5515L35.8728 11.2062C32.2877 11.6678 16.0687 13.8682 11.4424 14.4801Z" fill="#E21C23"/>
<path d="M3.66027 9.14531V10.5515L4.87321 9.84302L6.09687 10.5515V9.14531L4.87321 8.43687L3.66027 9.14531Z" fill="#A58560"/>
<path d="M8.53348 9.14531V7.73916L4.87321 5.62458L1.22367 7.73916V9.14531L4.87321 7.03072L8.53348 9.14531Z" fill="#A58560"/>
<path d="M0 2.81229L4.87321 0L9.75714 2.81229V8.43687L8.53348 9.14531V3.52073L4.87321 1.40615L1.22367 3.52073V9.14531L0 8.43687V2.81229Z" fill="#0069AC"/>
<path d="M4.87321 2.81229L7.32054 4.21843V9.84301L6.09687 10.5515V4.92687L4.87321 4.21843L3.66027 4.92687V10.5515L2.44734 9.84301V4.21843L4.87321 2.81229Z" fill="#0069AC"/>
<path fill-rule="evenodd" clip-rule="evenodd" d="M80 11.0989H78.2826V5.86072H76.4685V8.75889H68.139V7.12733C68.139 7.12733 68.9011 4.40091 73.3664 4.47605V7.15953H74.7726V1.37394H76.4471V4.07889H79.9678L80 11.0989ZM70.8762 3.20944L71.7778 2.30779L72.6795 3.20944L71.7778 4.11109L70.8762 3.20944ZM68.3537 3.20944L69.2553 2.30779L70.1462 3.20944L69.2553 4.11109L68.3537 3.20944ZM64.9725 3.20944L65.8634 2.30779L66.7651 3.20944L65.8634 4.11109L64.9725 3.20944ZM71.6919 7.1488L69.8242 7.12733C69.8242 7.12733 70.1248 6.17201 71.6812 5.88219L71.6919 7.1488ZM66.7973 4.45458H65.112V7.19173H61.9026V5.84999C61.9026 5.84999 62.8579 5.76412 63.5127 5.29183V4.45458H60.2174V7.181H58.779V4.46531C58.779 4.46531 54.6572 4.03596 53.777 7.181V8.73742H66.7651L66.7973 4.45458ZM57.1153 7.1488L55.3227 7.12733C55.3227 7.12733 55.6554 6.011 57.1045 5.79632L57.1153 7.1488ZM56.3853 3.20944L57.287 2.30779L58.1887 3.20944L57.287 4.11109L56.3853 3.20944ZM53.8736 3.20944L54.7753 2.30779L55.6662 3.20944L54.7753 4.11109L53.8736 3.20944ZM76.3612 9.70347H53.7663V11.0559H76.3612V9.70347ZM52.7573 4.48678H51.1365V7.13806H49.2151V4.46531H47.4977V8.70522H51.2009V10.9593H52.7573V4.48678ZM50.106 9.70347H39.3506V11.0559H50.106V9.70347ZM46.5531 1.2988L46.5423 2.90889C46.5423 2.90889 43.451 2.4688 42.4098 4.33651L42.3668 4.43311H46.5101V8.66228H39.3291V7.15953H44.8142V5.71045H40.1878V4.35797C40.1878 4.35797 41.1324 0.880179 46.5531 1.2988Z" fill="#B38767"/>
</g>
<defs>
<clipPath id="clip0_801_6779">
<rect width="80" height="14.4801" fill="white"/>
</clipPath>
</defs>
</svg>
