<svg width="80" height="19" viewBox="0 0 80 19" fill="none" xmlns="http://www.w3.org/2000/svg">
<g clip-path="url(#clip0_801_6776)">
<path d="M0.0919537 11.4891C0.288646 11.4478 0.435674 11.3942 0.529103 11.3288C0.743498 11.1769 0.894951 10.8882 0.987396 10.4599L2.42571 3.76796C2.46554 3.56881 2.49406 3.40358 2.5098 3.27229C2.5275 3.14149 2.53438 3.0397 2.52897 2.96594C2.51373 2.69942 2.42719 2.53174 2.27376 2.4629C2.21869 2.4393 2.15182 2.41619 2.06625 2.39701L2.16804 1.93183H5.44494C6.56314 1.93183 7.43989 2.10787 8.07374 2.4629C8.71249 2.81351 9.05523 3.37949 9.10293 4.16773C9.14964 4.92992 8.80691 5.53868 8.07472 5.99402C7.68084 6.24186 7.14731 6.44838 6.46971 6.61459C7.11142 6.83882 7.56971 7.06305 7.84606 7.28383C8.31075 7.65853 8.5635 8.17239 8.60038 8.82099C8.65299 9.64267 8.35451 10.3655 7.71674 10.9846C7.0765 11.6022 5.96568 11.9105 4.38083 11.9105H0L0.0919537 11.4891ZM3.49523 11.3854C3.61767 11.4262 3.81043 11.4454 4.0676 11.4454C5.01664 11.4454 5.67261 11.0067 6.03502 10.1334C6.24843 9.61612 6.34087 9.07423 6.30842 8.51513C6.26859 7.82966 6.00109 7.3694 5.51378 7.13287C5.22464 6.99125 4.70439 6.90373 3.95401 6.87078L3.18888 10.5125C3.17363 10.5706 3.1579 10.6365 3.14757 10.7156C3.14216 10.7899 3.14216 10.874 3.14905 10.9723C3.16183 11.1754 3.27591 11.3126 3.49523 11.3854ZM5.5364 6.25071C5.80587 6.18727 6.04928 6.05352 6.26367 5.84896C6.53757 5.59277 6.72197 5.23479 6.81982 4.77945C6.88227 4.48293 6.90882 4.18937 6.89014 3.89974C6.8626 3.46062 6.74901 3.10756 6.54888 2.83465C6.34776 2.5583 5.97453 2.41914 5.43215 2.41914C5.20104 2.41914 5.04516 2.47421 4.95763 2.57846C4.87502 2.68811 4.81503 2.85235 4.76832 3.07462L4.05088 6.42478C4.77569 6.36921 5.27087 6.30922 5.5364 6.25071Z" fill="#0069AB"/>
<path d="M10.3032 6.79689C11.1485 5.61821 12.038 5.0296 12.9708 5.0296C13.3529 5.0296 13.6361 5.14073 13.8284 5.36152C13.9415 5.49822 14.0492 5.72639 14.149 6.047L14.7307 5.22285H16.0284L15.1379 8.6335C15.013 9.13015 14.924 9.50632 14.8748 9.76989C14.7691 10.27 14.7199 10.625 14.7312 10.8389C14.7361 10.9279 14.7583 10.9894 14.8001 11.0223C14.8409 11.0563 14.8832 11.0725 14.9313 11.0725C15.0213 11.0725 15.1025 11.042 15.1811 10.9776C15.2618 10.9102 15.3518 10.8173 15.4447 10.6934L15.5106 10.6157C15.6129 10.6825 15.7461 10.7765 15.8597 10.8561C15.6301 11.1669 15.4073 11.4241 15.1866 11.634C14.8409 11.9694 14.476 12.1366 14.1047 12.1366C13.8746 12.1366 13.6484 12.0515 13.4252 11.8824C13.2019 11.7117 13.0824 11.4634 13.0662 11.131C13.0608 11.0076 13.109 10.7057 13.2078 10.2252L13.1572 10.3083C13.109 10.3954 13.0288 10.5247 12.9221 10.6934C12.6772 11.0931 12.3837 11.4305 12.0365 11.7083C11.6967 11.9837 11.3073 12.1214 10.8721 12.1214C10.4733 12.1214 10.1011 11.9748 9.74506 11.6763C9.39052 11.3818 9.19333 10.8787 9.15694 10.1682C9.10236 9.07213 9.48493 7.94901 10.3032 6.79689ZM13.7207 5.98799C13.6189 5.76474 13.4404 5.65558 13.1882 5.65558C12.6458 5.65558 12.1236 6.29237 11.6205 7.56841C11.1745 8.70284 10.968 9.5673 10.999 10.1682C11.0098 10.4077 11.0781 10.6132 11.2035 10.7888C11.3343 10.9638 11.4966 11.0518 11.6894 11.0518C12.1885 11.0563 12.7166 10.4008 13.2777 9.08442C13.6705 7.98147 13.8495 7.10717 13.8171 6.463C13.8087 6.26778 13.7768 6.10846 13.7207 5.98799Z" fill="#0069AB"/>
<path d="M16.1559 11.9107L17.3164 6.88762C17.3602 6.69536 17.3907 6.53997 17.4113 6.42884C17.4497 6.22182 17.4674 6.07528 17.4639 5.99267C17.4526 5.81319 17.3902 5.70157 17.2771 5.65682C17.2176 5.63568 17.1266 5.61601 17.0076 5.60175L17.0765 5.22262H19.484L18.7503 7.80372L18.7892 7.82388C18.7661 7.84896 18.8993 7.62817 19.1939 7.16201C19.4859 6.69142 19.7687 6.30935 20.0387 6.01775C20.3091 5.72124 20.5923 5.48668 20.8884 5.31113C21.1932 5.13264 21.5114 5.04117 21.8551 5.04117C22.1678 5.04117 22.4422 5.13264 22.6684 5.31113C22.9015 5.49111 23.0274 5.78418 23.05 6.19478C23.0697 6.57292 22.8892 7.40591 22.517 8.69769C22.1383 9.98701 21.9525 10.6749 21.9589 10.7664C21.9608 10.8554 21.9923 10.9223 22.0479 10.9724C22.1044 11.0142 22.1585 11.0373 22.2126 11.0373C22.3331 11.0373 22.4973 10.8987 22.7127 10.6208L23.0667 10.847C22.9118 11.0762 22.7727 11.2571 22.6448 11.3934C22.221 11.8458 21.7582 12.0719 21.2562 12.0719C20.9887 12.0719 20.7448 11.9918 20.5225 11.8384C20.3057 11.683 20.1886 11.4371 20.1714 11.1018C20.1616 10.8883 20.1975 10.5766 20.2771 10.1685C20.3607 9.7613 20.4635 9.34333 20.5884 8.90913L21.2218 6.67962L21.2498 6.54292C21.2562 6.50407 21.2601 6.46424 21.2601 6.42491C21.2532 6.31476 21.2114 6.23608 21.1293 6.19478C21.0556 6.14954 20.9734 6.1279 20.8844 6.1279C20.5805 6.1279 20.2501 6.36393 19.8995 6.84091C19.5484 7.31297 19.2652 7.78208 19.0503 8.25513C18.8177 8.76358 18.6298 9.28088 18.4804 9.80507C18.3323 10.3307 18.1568 11.0319 17.9567 11.9107H16.1559Z" fill="#0069AB"/>
<path d="M23.3574 11.9106C23.3574 11.9106 25.3076 3.16077 25.3224 3.06635C25.3376 2.97587 25.343 2.88687 25.3396 2.79738C25.3268 2.5761 25.2501 2.4394 25.1065 2.39022C25.0372 2.3676 24.9487 2.35088 24.8326 2.33957L24.9216 1.93586H27.3562L25.9582 8.30427C26.5001 7.89712 26.9741 7.51013 27.3739 7.14772C27.9915 6.57928 28.2969 6.18295 28.2841 5.95872C28.2772 5.7989 28.199 5.69957 28.0525 5.65925C27.9866 5.64352 27.9163 5.6268 27.8351 5.61598L27.9217 5.21669L30.1138 5.24079L29.9697 5.74678C29.5734 5.76055 29.599 5.79546 28.6288 6.71697C28.6288 6.71697 27.9074 7.39851 27.8125 7.48308L27.7397 7.54996C27.7525 7.5893 27.8125 7.84352 27.9217 8.31067C28.049 8.85157 28.1469 9.2184 28.2088 9.41214C28.4286 10.0617 28.585 10.4876 28.6834 10.6857C28.7842 10.8809 28.9243 10.9778 29.0969 10.9778C29.2754 10.9778 29.4337 10.8829 29.5803 10.6926C29.5955 10.6734 29.6147 10.6474 29.6334 10.6193L29.9471 10.8554C29.8084 11.0855 29.658 11.3004 29.4962 11.4946C29.1884 11.8639 28.8166 12.0488 28.3844 12.0488C28.0564 12.0488 27.7756 11.9382 27.5445 11.7218C27.3149 11.5035 27.1196 11.2114 26.9613 10.847C26.7917 10.4635 26.6441 10.0229 26.5207 9.52229C26.4057 9.02171 26.3432 8.74978 26.3412 8.70651L25.7807 9.11366L25.1768 11.9106H23.3574Z" fill="#0069AB"/>
<path d="M54.0457 4.214H55.6232C56.1695 4.214 56.5747 4.32562 56.5747 4.92651C56.5747 5.54315 55.9596 5.72312 55.4718 5.72312H53.7369L54.0457 4.214ZM49.4795 11.7989H55.2043C57.3875 11.7989 59.3146 10.8465 59.3146 8.44141C59.3146 7.52089 58.7295 6.63823 57.8045 6.44203V6.41548H57.8183C59.0221 6.09536 59.65 5.26876 59.65 4.01189C59.65 2.56965 58.8396 1.81582 56.6726 1.81582H51.5487L49.4795 11.7989ZM53.3588 7.58334H55.0489C55.693 7.58334 56.2408 7.69496 56.2408 8.43846C56.2408 9.24785 55.4865 9.44208 54.9387 9.44208H52.9664L53.3588 7.58334Z" fill="#0069AB"/>
<path d="M61.9363 11.7991H65.0096L66.5487 4.37296H69.3167L69.8502 1.81596H61.236L60.7055 4.37296H63.4734L61.9363 11.7991Z" fill="#0069AB"/>
<path d="M68.8682 11.7991H71.7896L72.9496 6.20663H72.9771L74.8078 11.7991H77.828L79.9267 1.81596H77.0024L75.8847 7.26877H75.8582L73.9847 1.81596H70.9349L68.8682 11.7991Z" fill="#0069AB"/>
<path d="M48.3416 18.6849C48.4336 18.3451 48.3957 18.3471 48.6229 17.4305C48.7861 16.5272 49.7809 15.1435 51.5349 15.0014C52.1328 14.9301 75.0937 13.9545 80.0002 13.6108L79.8532 14.4595C75.2304 15.0569 54.3151 17.8923 48.3416 18.6849Z" fill="#E31C24"/>
<path d="M38.3024 11.8005V13.6135L39.8745 12.7057L41.447 13.6135V11.8005L39.8745 10.8912L38.3024 11.8005Z" fill="#A68561"/>
<path d="M44.5901 11.8006V9.98264L39.8739 7.25992L35.1606 9.98264V11.8006L39.8739 9.0749L44.5901 11.8006Z" fill="#A68561"/>
<path d="M33.587 3.63045L39.8747 0L46.1635 3.63045V10.8914L44.5901 11.8006L44.5909 4.53966L39.8747 1.81547L35.16 4.53966L35.1606 11.8006L33.587 10.8914V3.63045Z" fill="#0069AB"/>
<path d="M39.874 3.63034L43.0181 5.44631V12.7062L41.447 13.6135L41.447 6.35257L39.874 5.44631L38.3029 6.35257V13.6125L36.7323 12.7062V5.44631L39.874 3.63034Z" fill="#0069AB"/>
</g>
<defs>
<clipPath id="clip0_801_6776">
<rect width="80.0002" height="18.6849" fill="white"/>
</clipPath>
</defs>
</svg>
