<svg width="80" height="13" viewBox="0 0 80 13" fill="none" xmlns="http://www.w3.org/2000/svg">
<g clip-path="url(#clip0_801_7987)">
<path d="M10.5293 4.89749L6.93144 1.29958C6.18427 0.552411 5.28766 0.598391 4.9773 0.655865C2.14955 1.12716 0 3.57557 0 6.54126C0 9.8403 2.66682 12.5071 5.95437 12.5071C9.16145 12.5071 11.7823 9.94376 11.8972 6.75966C11.8972 6.72518 11.8857 6.61023 11.8053 6.56425C11.7133 6.50678 11.5179 6.52977 11.5179 6.52977H9.21892C9.21892 6.52977 9.00052 6.52977 8.93155 6.56425C8.88557 6.58724 8.8281 6.63322 8.8281 6.63322L6.02334 9.42648C5.97736 9.47246 5.90839 9.47246 5.86241 9.42648L3.03466 6.59874C2.98868 6.55276 2.98868 6.48379 3.03466 6.43781L5.86241 3.61006C5.90839 3.56408 5.97736 3.56408 6.02334 3.61006L8.60969 6.20791C8.60969 6.20791 8.74763 6.33435 8.87408 6.35734C8.98903 6.39183 9.16145 6.26538 9.16145 6.26538L10.5293 4.89749Z" fill="#2D64AA"/>
<path fill-rule="evenodd" clip-rule="evenodd" d="M11.8398 3.0468L9.90862 1.12715C7.75907 -0.953426 5.27617 0.483438 5.27617 0.483438C5.27617 0.483438 6.3337 -0.0798122 7.67861 1.34556L10.8627 4.55264L11.8053 3.62155C11.8053 3.62155 11.9202 3.48361 11.9432 3.34567C11.9662 3.21923 11.8398 3.0468 11.8398 3.0468Z" fill="#2D64AA"/>
<path fill-rule="evenodd" clip-rule="evenodd" d="M19.5643 5.92053H21.3805V2.8169H19.5643V5.92053ZM22.553 2.80541V6.46079H19.5758V7.13899H18.3919V6.46079H15.4147V2.80541C15.4147 2.51804 15.6446 2.27664 15.9434 2.27664H18.3919V1.7019H19.5529V2.27664H22.0243C22.3231 2.27664 22.553 2.51804 22.553 2.80541ZM16.5872 5.92053H18.3919V2.8169H16.5872V5.92053Z" fill="#221F20"/>
<path d="M30.1857 5.67914H28.6453V4.40321H30.0937V3.86295H28.6453V3.17325H30.1857V2.64449H25.944V3.17325H27.4499V3.86295H26.036V4.40321H27.4499V5.67914H25.944V6.20791H30.1857V5.67914ZM31.0938 1.65592H25.0359C24.7486 1.65592 24.5187 1.88582 24.5187 2.18469V7.1275H31.611V2.17319C31.611 1.88582 31.3811 1.65592 31.0938 1.65592ZM25.6911 2.17319H30.4385V6.62172H25.6911V2.17319ZM29.6684 4.59862H28.8522L29.1511 5.13888C29.1511 5.13888 29.2431 5.34579 29.4155 5.43775C29.5649 5.51821 29.7948 5.49522 29.7948 5.49522H30.1627V5.00094H29.8983L29.6684 4.59862Z" fill="#221F20"/>
<path d="M40.8874 2.85139H40.4621V2.44907C40.4621 2.1502 40.2207 1.90881 39.9218 1.90881H38.462V1.59845H37.3585V1.90881H35.8986V2.46057H37.3585V2.86289H35.7147V3.41464H37.3585V3.79398H35.8986V4.34573H37.3585V4.74805H35.7722V5.29981H37.3585V5.67914H35.6342V6.24239H37.3585V6.63322H36.2205C35.7722 6.63322 35.3699 6.50678 35.0135 6.27688C35.2319 5.95502 35.3699 5.56419 35.3699 5.13888L35.3814 3.65604H34.7032C35.2894 3.27671 35.5883 2.59851 35.5883 1.85134C35.5883 1.83984 33.3468 1.85134 33.3468 1.85134L33.3353 2.41459H34.6342C34.5307 3.04681 34.0479 3.54109 33.4272 3.66753V4.21929H34.5652V5.02393C34.5652 5.26533 34.4963 5.48373 34.3928 5.69064C34.2204 5.43775 34.0824 5.15038 34.025 4.82852L33.4157 4.84001C33.4617 5.34579 33.6571 5.80559 33.956 6.18492C33.7721 6.31136 33.5652 6.39183 33.3353 6.41482V7.16199C33.7951 7.16199 34.2204 7.00106 34.5652 6.74817C34.9905 7.03554 35.4963 7.19647 36.0481 7.19647H40.807V6.63322H38.4505V6.24239H40.4621V5.67914H38.4505V5.29981H40.4621V4.74805H38.4505V4.34573H40.4736V3.41464H40.8874V2.85139ZM38.462 3.41464H39.3126V3.79398H38.462V3.41464ZM38.462 2.46057H39.3126V2.86289H38.462V2.46057Z" fill="#221F20"/>
<path d="M63.7393 1.75937H68.2683V2.32262H63.7393V1.75937Z" fill="#221F20"/>
<path d="M62.7967 4.08135V7.19647H61.6932V4.93197C61.4863 5.05841 61.2679 5.16187 61.0495 5.26532L60.5897 4.54114C61.5898 4.05836 62.5438 3.24222 62.9921 2.35711L63.6703 2.94335C63.4175 3.34567 63.1186 3.74799 62.7967 4.08135Z" fill="#221F20"/>
<path d="M66.6245 7.19647C67.1648 7.19647 67.5901 6.75966 67.5901 6.2194V4.04686H68.4407V3.48361H63.4634V4.04686H66.3946V6.32285C66.3946 6.49528 66.2452 6.64471 66.0728 6.64471H64.7739V7.20796L66.6245 7.19647Z" fill="#221F20"/>
<path d="M62.7278 1.9203C62.291 2.78242 61.6013 3.49511 60.7736 3.9664L60.3483 3.21923C61.061 2.73644 61.6357 2.19618 62.0955 1.34556L62.7278 1.9203Z" fill="#221F20"/>
<path fill-rule="evenodd" clip-rule="evenodd" d="M44.9911 5.10439C44.9911 5.10439 44.5313 5.55269 44.037 5.89754V3.02381L42.0254 3.03531V3.58706H42.9105V6.41481C42.6002 6.51827 42.3473 6.57574 42.3473 6.57574L42.9105 7.27693C42.9105 7.27693 43.4623 7.13899 44.06 6.84012C44.6233 6.55275 45.0026 6.17342 45.0026 6.17342L44.9911 5.10439ZM46.6579 2.87438V2.19618H48.2327V2.88587C48.2442 3.13876 48.1637 3.78248 49.2557 3.78248H49.9454V3.26521H49.7615C49.3247 3.2882 49.3592 3.10428 49.3592 2.97783V2.16169C49.3592 1.87432 49.1293 1.64442 48.8304 1.64442H45.5314V2.97783C45.5314 3.08129 45.5658 3.2882 45.129 3.26521L44.9336 3.25371V3.78248H45.6003C46.7728 3.83995 46.6464 3.12727 46.6579 2.87438ZM48.566 6.001C49.0833 5.64465 49.5431 5.21934 49.9339 4.72506V4.02387H44.8991V4.65609H48.6695C48.3246 5.00094 47.9338 5.3113 47.5085 5.56419C47.1062 5.35728 46.7268 5.12738 46.3705 4.84001H45.0141C45.4394 5.29981 45.9337 5.70213 46.4739 6.04698C45.9682 6.2194 45.4164 6.32285 44.8532 6.34584V7.16198C45.8072 7.16198 46.7153 6.95507 47.5315 6.58724C48.3706 6.94358 49.2787 7.13899 50.2443 7.15049V6.32285C49.6465 6.27687 49.0948 6.17342 48.566 6.001ZM42.4047 2.3686H44.6348V1.77087H42.4047V2.3686Z" fill="#221F20"/>
<path fill-rule="evenodd" clip-rule="evenodd" d="M57.0263 6.08146C56.8194 6.24239 56.3366 6.36883 56.1412 6.38033V4.38021H59.0264V2.1502C59.0264 1.85133 58.785 1.60994 58.4976 1.60994H55.0951V6.42631H54.8767V7.18497H55.417C55.9573 7.18497 56.532 7.08152 57.0263 6.88611V6.08146ZM58.3367 6.06997C58.7275 5.69063 59.0494 5.23084 59.2678 4.72506H58.4517C58.2792 5.04692 58.0608 5.33429 57.785 5.58718C57.762 5.56419 57.67 5.43775 57.647 5.41476C57.4976 5.21934 57.3941 5.01243 57.3137 4.73656H56.4745C56.5665 5.02393 56.7389 5.43775 56.8654 5.65615C57.4631 6.62172 58.3712 7.18497 59.3023 7.19647V6.41481C58.9804 6.41481 58.6356 6.27687 58.3367 6.06997ZM56.1297 3.83995H57.9689V3.2882H56.1297V3.83995ZM56.1297 2.73644H57.9689V2.17319H56.1297V2.73644Z" fill="#221F20"/>
<path d="M53.4629 6.26538V4.96646H54.7388V4.4147H53.4629V3.79398H54.6353V3.24222H52.4973C52.6467 3.08129 52.7962 2.88588 52.9226 2.70196L54.7273 2.69046V2.1617H53.2674C53.3594 1.98927 53.4514 1.81685 53.5203 1.63293L52.7042 1.34556C52.4053 2.17319 51.7961 2.89737 51.1409 3.29969L51.6812 3.94341C51.7616 3.88593 51.8421 3.83995 51.9225 3.78248H52.5318V4.4147H51.7271V4.96646H52.5433V6.51827C52.3594 6.55275 52.1754 6.56425 51.9915 6.57574L52.5318 7.25394C53.3479 7.17348 54.1066 6.87461 54.7273 6.40332V5.49522C54.348 5.81708 53.9227 6.08146 53.4629 6.26538Z" fill="#221F20"/>
<path d="M18.413 9.23698H17.9987C17.9648 9.02851 17.871 8.86042 17.7172 8.73274C17.5479 8.59202 17.3238 8.52166 17.0449 8.52166C16.7062 8.52166 16.4443 8.61677 16.2592 8.807C16.0638 9.00505 15.9661 9.2904 15.9661 9.66305C15.9661 9.96012 16.0456 10.2051 16.2045 10.3979C16.3921 10.622 16.6645 10.7341 17.0215 10.7341C17.5609 10.7341 17.8866 10.4748 17.9987 9.95621H18.413C18.3791 10.2767 18.2384 10.5438 17.9909 10.7575C17.7277 10.9816 17.4032 11.0937 17.0176 11.0937C16.6162 11.0937 16.284 10.9842 16.0208 10.7653C15.7081 10.5048 15.5517 10.123 15.5517 9.62005C15.5517 9.19528 15.6768 8.85 15.927 8.5842C16.1902 8.30276 16.5524 8.16204 17.0136 8.16204C17.355 8.16204 17.6495 8.23631 17.8971 8.38485C18.2098 8.57508 18.3818 8.85912 18.413 9.23698Z" fill="black"/>
<path d="M18.5945 11.0233V8.20895H18.9854V9.28389H18.9932C19.1548 9.03111 19.4219 8.90473 19.7945 8.90473C20.0551 8.90473 20.2597 8.96075 20.4082 9.07281C20.5724 9.19789 20.6545 9.38291 20.6545 9.62787V11.0233H20.2636V9.70604C20.2636 9.39073 20.0616 9.23307 19.6577 9.23307C19.4701 9.23307 19.3137 9.28389 19.1887 9.38552C19.0532 9.49757 18.9854 9.65002 18.9854 9.84286V11.0233H18.5945Z" fill="black"/>
<path d="M20.8985 11.0233V8.97509H21.2893V11.0233H20.8985ZM20.8985 8.63892V8.20895H21.2893V8.63892H20.8985Z" fill="black"/>
<path d="M21.5304 11.0233V8.97509H21.9213V9.28389H21.9291C22.0907 9.03111 22.3578 8.90473 22.7305 8.90473C22.9911 8.90473 23.1956 8.96075 23.3442 9.07281C23.5083 9.19789 23.5904 9.38291 23.5904 9.62787V11.0233H23.1995V9.70604C23.1995 9.39073 22.9976 9.23307 22.5937 9.23307C22.406 9.23307 22.2497 9.28389 22.1246 9.38552C21.9891 9.49757 21.9213 9.65002 21.9213 9.84286V11.0233H21.5304Z" fill="black"/>
<path d="M24.1979 9.61614H23.8305C23.8774 9.14186 24.2162 8.90473 24.8468 8.90473C25.1048 8.90473 25.3145 8.94251 25.4761 9.01808C25.6846 9.1145 25.7888 9.27086 25.7888 9.48715V10.5894C25.7888 10.7067 25.8475 10.7653 25.9647 10.7653C26.0038 10.7653 26.0494 10.7601 26.1015 10.7497V11.0233C26.0077 11.039 25.9061 11.0468 25.7966 11.0468C25.5856 11.0468 25.4683 10.9517 25.4448 10.7614C25.3693 10.8631 25.2455 10.9452 25.0735 11.0077C24.9145 11.065 24.7478 11.0937 24.5732 11.0937C24.2683 11.0937 24.0442 11.0233 23.9008 10.8826C23.794 10.7784 23.7406 10.6429 23.7406 10.4761C23.7406 10.2833 23.8057 10.1373 23.936 10.0383C24.0689 9.93927 24.2969 9.87282 24.6201 9.83895L25.0657 9.79204C25.1882 9.77901 25.2755 9.75816 25.3276 9.7295C25.3901 9.69302 25.4214 9.63178 25.4214 9.54578C25.4214 9.32167 25.2246 9.20962 24.8312 9.20962C24.4194 9.20962 24.2083 9.34513 24.1979 9.61614ZM25.4214 10.2142V9.9523C25.3719 10.007 25.2442 10.0474 25.0383 10.0735L24.5966 10.1282C24.4377 10.1491 24.3204 10.1842 24.2448 10.2337C24.1692 10.2833 24.1315 10.3601 24.1315 10.4644C24.1315 10.5608 24.1745 10.639 24.2605 10.6989C24.3491 10.7588 24.465 10.7888 24.6083 10.7888C24.8351 10.7888 25.0266 10.7354 25.1829 10.6285C25.3419 10.5191 25.4214 10.381 25.4214 10.2142Z" fill="black"/>
<path d="M29.9769 9.23698H29.5625C29.5287 9.02851 29.4348 8.86042 29.2811 8.73274C29.1117 8.59202 28.8876 8.52166 28.6088 8.52166C28.27 8.52166 28.0081 8.61677 27.8231 8.807C27.6276 9.00505 27.5299 9.2904 27.5299 9.66305C27.5299 9.96012 27.6094 10.2051 27.7684 10.3979C27.956 10.622 28.2283 10.7341 28.5853 10.7341C29.1247 10.7341 29.4505 10.4748 29.5625 9.95621H29.9769C29.943 10.2767 29.8023 10.5438 29.5547 10.7575C29.2915 10.9816 28.9671 11.0937 28.5814 11.0937C28.1801 11.0937 27.8478 10.9842 27.5846 10.7653C27.2719 10.5048 27.1156 10.123 27.1156 9.62005C27.1156 9.19528 27.2407 8.85 27.4908 8.5842C27.754 8.30276 28.1163 8.16204 28.5775 8.16204C28.9189 8.16204 29.2133 8.23631 29.4609 8.38485C29.7736 8.57508 29.9456 8.85912 29.9769 9.23698Z" fill="black"/>
<path d="M30.0685 9.99921C30.0685 9.6865 30.1675 9.42982 30.3655 9.22916C30.5792 9.01287 30.8763 8.90473 31.2568 8.90473C31.6372 8.90473 31.9356 9.01287 32.1519 9.22916C32.3473 9.42982 32.445 9.6865 32.445 9.99921C32.445 10.3119 32.3473 10.5686 32.1519 10.7693C31.9356 10.9855 31.6372 11.0937 31.2568 11.0937C30.8763 11.0937 30.5792 10.9855 30.3655 10.7693C30.1675 10.5686 30.0685 10.3119 30.0685 9.99921ZM32.0307 9.99921C32.0307 9.78813 31.9721 9.61353 31.8548 9.47542C31.7193 9.31386 31.52 9.23307 31.2568 9.23307C30.9936 9.23307 30.7942 9.31386 30.6587 9.47542C30.5414 9.61353 30.4828 9.78813 30.4828 9.99921C30.4828 10.2103 30.5414 10.3849 30.6587 10.523C30.7942 10.6846 30.9936 10.7653 31.2568 10.7653C31.52 10.7653 31.7193 10.6846 31.8548 10.523C31.9721 10.3849 32.0307 10.2103 32.0307 9.99921Z" fill="black"/>
<path d="M32.5959 11.0233V8.97509H32.9868V9.28389H32.9946C33.1562 9.03111 33.4233 8.90473 33.7959 8.90473C34.0565 8.90473 34.2611 8.96075 34.4096 9.07281C34.5738 9.19789 34.6559 9.38291 34.6559 9.62787V11.0233H34.265V9.70604C34.265 9.39073 34.063 9.23307 33.6591 9.23307C33.4715 9.23307 33.3151 9.28389 33.1901 9.38552C33.0546 9.49757 32.9868 9.65002 32.9868 9.84286V11.0233H32.5959Z" fill="black"/>
<path d="M34.7826 10.3784H35.1735C35.1735 10.4878 35.2191 10.579 35.3103 10.652C35.4223 10.7432 35.5917 10.7888 35.8184 10.7888C36.2354 10.7888 36.4439 10.682 36.4439 10.4683C36.4439 10.3901 36.4191 10.3315 36.3696 10.2924C36.3097 10.2481 36.2054 10.2155 36.0569 10.1947L35.4119 10.1087C35.2556 10.0878 35.1266 10.0318 35.0249 9.94058C34.9129 9.84155 34.8569 9.71647 34.8569 9.56533C34.8569 9.35946 34.9402 9.19789 35.107 9.08063C35.2738 8.96336 35.5018 8.90473 35.7911 8.90473C36.4165 8.90473 36.7501 9.13405 36.7917 9.59269H36.4009C36.3956 9.48324 36.3422 9.39333 36.2406 9.32298C36.1311 9.2474 35.98 9.20962 35.7872 9.20962C35.4276 9.20962 35.2477 9.31385 35.2477 9.52233C35.2477 9.59529 35.2712 9.65132 35.3181 9.69041C35.365 9.7295 35.4549 9.75816 35.5878 9.7764L36.1429 9.85067C36.6198 9.91321 36.8582 10.0943 36.8582 10.394C36.8582 10.6259 36.767 10.8005 36.5846 10.9178C36.4048 11.0351 36.1533 11.0937 35.8302 11.0937C35.1657 11.0937 34.8165 10.8553 34.7826 10.3784Z" fill="black"/>
<path d="M37.1544 8.97509V8.34576H37.5453V8.97509H38.1316V9.27998H37.5453V10.5425C37.5453 10.6911 37.6508 10.7653 37.8619 10.7653C37.9375 10.7653 38.0274 10.7562 38.1316 10.738V11.0663C38.0274 11.0846 37.8814 11.0937 37.6938 11.0937C37.3342 11.0937 37.1544 10.9321 37.1544 10.609V9.27998H36.7322V8.97509H37.1544Z" fill="black"/>
<path d="M38.1946 11.0233V8.97509H38.5855V9.35034H38.5933C38.7627 9.05326 38.9972 8.90473 39.2969 8.90473C39.3855 8.90473 39.4598 8.91254 39.5197 8.92818V9.35034C39.4103 9.32428 39.3178 9.31125 39.2422 9.31125C39.0415 9.31125 38.8839 9.36728 38.7692 9.47933C38.6467 9.5992 38.5855 9.76728 38.5855 9.98357V11.0233H38.1946Z" fill="black"/>
<path d="M41.6118 8.97509V11.0233H41.221V10.7145H41.2131C41.0516 10.9673 40.7845 11.0937 40.4118 11.0937C40.1512 11.0937 39.9467 11.0377 39.7981 10.9256C39.634 10.8005 39.5519 10.6155 39.5519 10.3706V8.97509H39.9428V10.2924C39.9428 10.6077 40.1447 10.7653 40.5486 10.7653C40.7363 10.7653 40.8926 10.7145 41.0177 10.6129C41.1532 10.5008 41.221 10.3484 41.221 10.1556V8.97509H41.6118Z" fill="black"/>
<path d="M43.5327 10.2728H43.9471C43.8689 10.5673 43.7373 10.781 43.5523 10.9139C43.3829 11.0338 43.1588 11.0937 42.8799 11.0937C42.5021 11.0937 42.2154 10.979 42.02 10.7497C41.8506 10.5569 41.7659 10.3106 41.7659 10.0109C41.7659 9.69302 41.8584 9.43242 42.0434 9.22916C42.2441 9.01287 42.5216 8.90473 42.876 8.90473C43.1601 8.90473 43.3959 8.96727 43.5835 9.09235C43.7816 9.22525 43.9002 9.41418 43.9392 9.65914H43.5249C43.4754 9.37509 43.2682 9.23307 42.9034 9.23307C42.6636 9.23307 42.4812 9.30604 42.3562 9.45197C42.2389 9.58487 42.1802 9.76728 42.1802 9.99921C42.1802 10.2311 42.2389 10.4136 42.3562 10.5465C42.4812 10.6924 42.6636 10.7653 42.9034 10.7653C43.2396 10.7653 43.4493 10.6012 43.5327 10.2728Z" fill="black"/>
<path d="M44.2554 8.97509V8.34576H44.6463V8.97509H45.2326V9.27998H44.6463V10.5425C44.6463 10.6911 44.7518 10.7653 44.9629 10.7653C45.0385 10.7653 45.1284 10.7562 45.2326 10.738V11.0663C45.1284 11.0846 44.9825 11.0937 44.7948 11.0937C44.4352 11.0937 44.2554 10.9321 44.2554 10.609V9.27998H43.8332V8.97509H44.2554Z" fill="black"/>
<path d="M45.2956 11.0233V8.97509H45.6865V11.0233H45.2956ZM45.2956 8.63892V8.20895H45.6865V8.63892H45.2956Z" fill="black"/>
<path d="M45.8377 9.99921C45.8377 9.6865 45.9367 9.42982 46.1348 9.22916C46.3485 9.01287 46.6455 8.90473 47.026 8.90473C47.4065 8.90473 47.7048 9.01287 47.9211 9.22916C48.1166 9.42982 48.2143 9.6865 48.2143 9.99921C48.2143 10.3119 48.1166 10.5686 47.9211 10.7693C47.7048 10.9855 47.4065 11.0937 47.026 11.0937C46.6455 11.0937 46.3485 10.9855 46.1348 10.7693C45.9367 10.5686 45.8377 10.3119 45.8377 9.99921ZM47.8 9.99921C47.8 9.78813 47.7413 9.61353 47.6241 9.47542C47.4885 9.31386 47.2892 9.23307 47.026 9.23307C46.7628 9.23307 46.5634 9.31386 46.4279 9.47542C46.3107 9.61353 46.252 9.78813 46.252 9.99921C46.252 10.2103 46.3107 10.3849 46.4279 10.523C46.5634 10.6846 46.7628 10.7653 47.026 10.7653C47.2892 10.7653 47.4885 10.6846 47.6241 10.523C47.7413 10.3849 47.8 10.2103 47.8 9.99921Z" fill="black"/>
<path d="M48.3652 11.0233V8.97509H48.756V9.28389H48.7639C48.9254 9.03111 49.1925 8.90473 49.5652 8.90473C49.8258 8.90473 50.0303 8.96075 50.1789 9.07281C50.343 9.19789 50.4251 9.38291 50.4251 9.62787V11.0233H50.0342V9.70604C50.0342 9.39073 49.8323 9.23307 49.4284 9.23307C49.2407 9.23307 49.0844 9.28389 48.9593 9.38552C48.8238 9.49757 48.756 9.65002 48.756 9.84286V11.0233H48.3652Z" fill="black"/>
<path d="M51.8026 11.0233V8.2324H53.3544C53.9277 8.2324 54.2144 8.46563 54.2144 8.93209C54.2144 9.22656 54.0789 9.4233 53.8079 9.52233V9.53014C54.1597 9.61093 54.3356 9.84025 54.3356 10.2181C54.3356 10.437 54.2639 10.6207 54.1206 10.7693C53.959 10.9386 53.7362 11.0233 53.4522 11.0233H51.8026ZM52.217 9.38552H53.3466C53.4925 9.38552 53.6059 9.34773 53.6867 9.27216C53.7623 9.20441 53.8 9.1119 53.8 8.99463C53.8 8.72622 53.6411 8.59202 53.3232 8.59202H52.217V9.38552ZM52.217 10.6637H53.3388C53.7271 10.6637 53.9212 10.5061 53.9212 10.1907C53.9212 9.89367 53.7388 9.74513 53.374 9.74513H52.217V10.6637Z" fill="black"/>
<path d="M54.9114 9.61614H54.544C54.5909 9.14186 54.9297 8.90473 55.5603 8.90473C55.8183 8.90473 56.028 8.94251 56.1896 9.01808C56.3981 9.1145 56.5023 9.27086 56.5023 9.48715V10.5894C56.5023 10.7067 56.561 10.7653 56.6782 10.7653C56.7173 10.7653 56.7629 10.7601 56.815 10.7497V11.0233C56.7212 11.039 56.6196 11.0468 56.5101 11.0468C56.2991 11.0468 56.1818 10.9517 56.1583 10.7614C56.0828 10.8631 55.959 10.9452 55.787 11.0077C55.628 11.065 55.4613 11.0937 55.2867 11.0937C54.9818 11.0937 54.7577 11.0233 54.6143 10.8826C54.5075 10.7784 54.4541 10.6429 54.4541 10.4761C54.4541 10.2833 54.5192 10.1373 54.6495 10.0383C54.7824 9.93927 55.0104 9.87282 55.3336 9.83895L55.7792 9.79204C55.9017 9.77901 55.989 9.75816 56.0411 9.7295C56.1036 9.69302 56.1349 9.63178 56.1349 9.54578C56.1349 9.32167 55.9381 9.20962 55.5447 9.20962C55.1329 9.20962 54.9218 9.34513 54.9114 9.61614ZM56.1349 10.2142V9.9523C56.0854 10.007 55.9577 10.0474 55.7518 10.0735L55.3101 10.1282C55.1512 10.1491 55.0339 10.1842 54.9583 10.2337C54.8828 10.2833 54.845 10.3601 54.845 10.4644C54.845 10.5608 54.888 10.639 54.974 10.6989C55.0626 10.7588 55.1785 10.7888 55.3218 10.7888C55.5486 10.7888 55.7401 10.7354 55.8965 10.6285C56.0554 10.5191 56.1349 10.381 56.1349 10.2142Z" fill="black"/>
<path d="M56.848 11.0233V8.97509H57.2389V9.28389H57.2467C57.4083 9.03111 57.6754 8.90473 58.048 8.90473C58.3086 8.90473 58.5132 8.96075 58.6617 9.07281C58.8259 9.19789 58.908 9.38291 58.908 9.62787V11.0233H58.5171V9.70604C58.5171 9.39073 58.3151 9.23307 57.9112 9.23307C57.7236 9.23307 57.5672 9.28389 57.4422 9.38552C57.3067 9.49757 57.2389 9.65002 57.2389 9.84286V11.0233H56.848Z" fill="black"/>
<path d="M59.5741 9.85067L60.6139 8.97509H61.208L60.2464 9.74513L61.2823 11.0233H60.7507L59.9337 9.99921L59.5741 10.2846V11.0233H59.1832V8.20895H59.5741V9.85067Z" fill="black"/>
<path d="M62.4032 11.0233V8.2324H62.8175V11.0233H62.4032Z" fill="black"/>
<path d="M63.1589 11.0233V8.97509H63.5497V9.28389H63.5576C63.7191 9.03111 63.9862 8.90473 64.3589 8.90473C64.6195 8.90473 64.824 8.96075 64.9726 9.07281C65.1367 9.19789 65.2188 9.38291 65.2188 9.62787V11.0233H64.8279V9.70604C64.8279 9.39073 64.626 9.23307 64.2221 9.23307C64.0344 9.23307 63.8781 9.28389 63.753 9.38552C63.6175 9.49757 63.5497 9.65002 63.5497 9.84286V11.0233H63.1589Z" fill="black"/>
<path d="M67.2726 11.0233V10.7614H67.2648C67.1918 10.8657 67.0824 10.9478 66.9365 11.0077C66.7931 11.065 66.6433 11.0937 66.4869 11.0937C66.1664 11.0937 65.9032 10.9986 65.6973 10.8083C65.481 10.6103 65.3729 10.3445 65.3729 10.0109C65.3729 9.67738 65.481 9.41027 65.6973 9.20962C65.9032 9.02199 66.1664 8.92818 66.4869 8.92818C66.6459 8.92818 66.7957 8.95684 66.9365 9.01417C67.0798 9.0715 67.1892 9.15359 67.2648 9.26043H67.2726V8.20895H67.6635V11.0233H67.2726ZM65.7872 10.0109C65.7872 10.222 65.8459 10.3966 65.9631 10.5347C66.0987 10.6885 66.2902 10.7653 66.5377 10.7653C66.7879 10.7653 66.9808 10.6885 67.1163 10.5347C67.2361 10.3966 67.2961 10.222 67.2961 10.0109C67.2961 9.77901 67.227 9.59529 67.0889 9.45979C66.9508 9.32428 66.7671 9.25652 66.5377 9.25652C66.3084 9.25652 66.126 9.32428 65.9905 9.45979C65.855 9.59529 65.7872 9.77901 65.7872 10.0109Z" fill="black"/>
<path d="M67.8143 9.99921C67.8143 9.6865 67.9133 9.42982 68.1113 9.22916C68.325 9.01287 68.6221 8.90473 69.0026 8.90473C69.383 8.90473 69.6814 9.01287 69.8977 9.22916C70.0931 9.42982 70.1909 9.6865 70.1909 9.99921C70.1909 10.3119 70.0931 10.5686 69.8977 10.7693C69.6814 10.9855 69.383 11.0937 69.0026 11.0937C68.6221 11.0937 68.325 10.9855 68.1113 10.7693C67.9133 10.5686 67.8143 10.3119 67.8143 9.99921ZM69.7765 9.99921C69.7765 9.78813 69.7179 9.61353 69.6006 9.47542C69.4651 9.31386 69.2658 9.23307 69.0026 9.23307C68.7394 9.23307 68.54 9.31386 68.4045 9.47542C68.2872 9.61353 68.2286 9.78813 68.2286 9.99921C68.2286 10.2103 68.2872 10.3849 68.4045 10.523C68.54 10.6846 68.7394 10.7653 69.0026 10.7653C69.2658 10.7653 69.4651 10.6846 69.6006 10.523C69.7179 10.3849 69.7765 10.2103 69.7765 9.99921Z" fill="black"/>
<path d="M70.3417 11.0233V8.97509H70.7326V9.28389H70.7404C70.902 9.03111 71.1691 8.90473 71.5417 8.90473C71.8023 8.90473 72.0069 8.96075 72.1554 9.07281C72.3196 9.19789 72.4017 9.38291 72.4017 9.62787V11.0233H72.0108V9.70604C72.0108 9.39073 71.8089 9.23307 71.4049 9.23307C71.2173 9.23307 71.061 9.28389 70.9359 9.38552C70.8004 9.49757 70.7326 9.65002 70.7326 9.84286V11.0233H70.3417Z" fill="black"/>
<path d="M74.8542 10.1165H72.9701C72.9857 10.3171 73.0717 10.4774 73.2281 10.5973C73.3714 10.7093 73.5369 10.7653 73.7245 10.7653C74.0529 10.7653 74.2731 10.6442 74.3851 10.4018H74.7995C74.7083 10.6337 74.5584 10.811 74.3499 10.9334C74.1675 11.0403 73.9656 11.0937 73.7441 11.0937C73.3636 11.0937 73.0665 10.9855 72.8528 10.7693C72.6548 10.5686 72.5558 10.3119 72.5558 9.99921C72.5558 9.6865 72.6548 9.42982 72.8528 9.22916C73.0665 9.01287 73.3636 8.90473 73.7441 8.90473C74.049 8.90473 74.3017 8.99202 74.5024 9.16662C74.7369 9.37249 74.8542 9.67217 74.8542 10.0657V10.1165ZM72.9818 9.81158H74.4398C74.4112 9.62917 74.3317 9.48715 74.2014 9.38552C74.0711 9.28389 73.9121 9.23307 73.7245 9.23307C73.5369 9.23307 73.3753 9.28389 73.2398 9.38552C73.0965 9.49236 73.0105 9.63438 72.9818 9.81158Z" fill="black"/>
<path d="M74.9011 10.3784H75.2919C75.2919 10.4878 75.3376 10.579 75.4288 10.652C75.5408 10.7432 75.7102 10.7888 75.9369 10.7888C76.3539 10.7888 76.5623 10.682 76.5623 10.4683C76.5623 10.3901 76.5376 10.3315 76.4881 10.2924C76.4281 10.2481 76.3239 10.2155 76.1754 10.1947L75.5304 10.1087C75.374 10.0878 75.245 10.0318 75.1434 9.94058C75.0313 9.84155 74.9753 9.71647 74.9753 9.56533C74.9753 9.35946 75.0587 9.19789 75.2255 9.08063C75.3923 8.96336 75.6203 8.90473 75.9095 8.90473C76.535 8.90473 76.8685 9.13405 76.9102 9.59269H76.5193C76.5141 9.48324 76.4607 9.39333 76.3591 9.32298C76.2496 9.2474 76.0985 9.20962 75.9056 9.20962C75.546 9.20962 75.3662 9.31385 75.3662 9.52233C75.3662 9.59529 75.3897 9.65132 75.4366 9.69041C75.4835 9.7295 75.5734 9.75816 75.7063 9.7764L76.2613 9.85067C76.7382 9.91321 76.9767 10.0943 76.9767 10.394C76.9767 10.6259 76.8855 10.8005 76.703 10.9178C76.5232 11.0351 76.2718 11.0937 75.9486 11.0937C75.2841 11.0937 74.9349 10.8553 74.9011 10.3784Z" fill="black"/>
<path d="M77.1009 11.0233V8.97509H77.4918V11.0233H77.1009ZM77.1009 8.63892V8.20895H77.4918V8.63892H77.1009Z" fill="black"/>
<path d="M78.0964 9.61614H77.7289C77.7758 9.14186 78.1146 8.90473 78.7452 8.90473C79.0032 8.90473 79.213 8.94251 79.3746 9.01808C79.5831 9.1145 79.6873 9.27086 79.6873 9.48715V10.5894C79.6873 10.7067 79.7459 10.7653 79.8632 10.7653C79.9023 10.7653 79.9479 10.7601 80 10.7497V11.0233C79.9062 11.039 79.8046 11.0468 79.6951 11.0468C79.484 11.0468 79.3668 10.9517 79.3433 10.7614C79.2677 10.8631 79.144 10.9452 78.972 11.0077C78.813 11.065 78.6462 11.0937 78.4716 11.0937C78.1667 11.0937 77.9426 11.0233 77.7993 10.8826C77.6925 10.7784 77.639 10.6429 77.639 10.4761C77.639 10.2833 77.7042 10.1373 77.8345 10.0383C77.9674 9.93927 78.1954 9.87282 78.5185 9.83895L78.9641 9.79204C79.0866 9.77901 79.1739 9.75816 79.226 9.7295C79.2886 9.69302 79.3199 9.63178 79.3199 9.54578C79.3199 9.32167 79.1231 9.20962 78.7296 9.20962C78.3179 9.20962 78.1068 9.34513 78.0964 9.61614ZM79.3199 10.2142V9.9523C79.2703 10.007 79.1427 10.0474 78.9368 10.0735L78.4951 10.1282C78.3361 10.1491 78.2189 10.1842 78.1433 10.2337C78.0677 10.2833 78.0299 10.3601 78.0299 10.4644C78.0299 10.5608 78.0729 10.639 78.1589 10.6989C78.2475 10.7588 78.3635 10.7888 78.5068 10.7888C78.7335 10.7888 78.9251 10.7354 79.0814 10.6285C79.2404 10.5191 79.3199 10.381 79.3199 10.2142Z" fill="black"/>
</g>
<defs>
<clipPath id="clip0_801_7987">
<rect width="80" height="12.5071" fill="white"/>
</clipPath>
</defs>
</svg>
