<svg width="80" height="20" viewBox="0 0 80 20" fill="none" xmlns="http://www.w3.org/2000/svg">
<g clip-path="url(#clip0_801_7047)">
<g clip-path="url(#clip1_801_7047)">
<path fill-rule="evenodd" clip-rule="evenodd" d="M10.5562 10.5524H0V0H10.5562V10.5524Z" fill="#6A1F1D"/>
<path fill-rule="evenodd" clip-rule="evenodd" d="M1.42645 1.99072L3.90767 5.27714H9.52109L7.03746 1.99072H1.42645Z" fill="white"/>
<path fill-rule="evenodd" clip-rule="evenodd" d="M3.90767 5.2771L1.42645 8.55969H7.03746L9.52109 5.2771H3.90767Z" fill="#DA242A"/>
<path fill-rule="evenodd" clip-rule="evenodd" d="M37.1719 5.20428C37.4807 5.03596 37.9792 4.5662 37.9792 3.79822C37.9792 2.59914 37.1604 1.85218 35.8425 1.85218L33.0796 1.85223V8.72685H35.9597C37.2623 8.72685 38.0744 7.96552 38.0744 6.73579C38.0743 5.81385 37.5325 5.38467 37.1719 5.20428ZM34.4681 3.10079C34.523 3.10079 35.7394 3.10079 35.7394 3.10079C36.272 3.10079 36.5885 3.38019 36.5885 3.85345C36.5885 4.32862 36.272 4.61123 35.7394 4.61123C35.7393 4.61127 34.523 4.61123 34.4681 4.61123L34.4681 3.10079ZM35.8272 7.48403C35.8272 7.48403 34.523 7.48399 34.4681 7.48399L34.4681 5.86659C34.523 5.86659 35.8272 5.86654 35.8272 5.86654C36.4607 5.86659 36.6843 6.28136 36.6843 6.66968C36.6843 7.06376 36.4607 7.48398 35.8272 7.48403ZM27.6752 6.24625C27.6273 6.1572 25.2521 1.84006 25.2521 1.84006L23.8945 1.84011V8.71502H25.284C25.284 8.71502 25.284 4.8137 25.284 4.60806C25.3855 4.7885 27.6752 8.76996 27.6752 8.76996C27.6752 8.76996 29.96 4.78846 30.0648 4.60806C30.0647 4.81504 30.0648 8.71502 30.0648 8.71502H31.452V1.84011H30.0938C30.0938 1.84011 27.7257 6.15715 27.6752 6.24625ZM20.8047 1.85223V8.72685H22.1954V1.85223H20.8047ZM18.5041 7.07233C18.1018 7.39365 17.6126 7.56412 17.0956 7.56412C15.8425 7.56417 14.8651 6.56651 14.8651 5.29112C14.8651 4.01731 15.8425 3.01745 17.0956 3.01745C17.6126 3.01745 18.1018 3.18572 18.5042 3.5089L18.5259 3.52552L19.4915 2.55765L19.4715 2.53974C18.8076 1.96561 17.9665 1.651 17.0956 1.651C15.0643 1.65105 13.4156 3.28473 13.4156 5.29112C13.4155 7.29689 15.0644 8.92927 17.0956 8.92927C17.9664 8.92927 18.8076 8.61476 19.4715 8.04284L19.4915 8.02301L18.5259 7.05576L18.5041 7.07233Z" fill="#6A1F1D"/>
<path fill-rule="evenodd" clip-rule="evenodd" d="M52.0094 6.06893H54.3029L53.1753 2.74658H53.1564L52.0094 6.06893ZM52.6835 1.88855H53.6792L56.0713 8.70377H55.2392L54.59 6.86891H51.7268L51.1003 8.74688H50.1751L52.6835 1.88855Z" fill="#6A1F1D"/>
<path fill-rule="evenodd" clip-rule="evenodd" d="M65.8693 6.06893H68.1637L67.034 2.74658H67.0151L65.8693 6.06893ZM66.5416 1.88855H67.5365L69.9249 8.70377H69.0955L68.4479 6.86891H65.5832L64.9589 8.74688H64.03L66.5416 1.88855Z" fill="#6A1F1D"/>
<path fill-rule="evenodd" clip-rule="evenodd" d="M62.7084 2.77764C62.7084 2.77764 60.1253 0.72685 57.8088 2.91047C57.8088 2.91047 56.7687 3.81612 56.8294 5.71713C56.8294 5.71713 56.9466 8.8383 60.3922 8.88332C60.3922 8.88332 61.8615 8.79298 62.8428 8.21435V4.96035H60.5707V5.58267H62.1738V7.72261C62.1738 7.72261 59.8145 8.8383 58.4746 7.50155C58.4746 7.50155 57.4074 6.92167 57.6306 4.91399C57.6306 4.91399 58.0751 2.47841 60.541 2.62882C60.541 2.62882 61.8778 2.79168 62.2348 3.3716L62.7084 2.77764Z" fill="#6A1F1D"/>
<path fill-rule="evenodd" clip-rule="evenodd" d="M49.0296 1.84033V8.70392H48.3182V1.84033H49.0296Z" fill="#6A1F1D"/>
<path fill-rule="evenodd" clip-rule="evenodd" d="M45.7752 8.70392H46.4885V1.84033H45.7752V7.45852L41.6807 1.84033H40.9666V8.70392H41.6807V3.06801L45.7752 8.70392Z" fill="#6A1F1D"/>
<path fill-rule="evenodd" clip-rule="evenodd" d="M60.1428 11.7039H60.1483H60.1497C60.3867 11.6972 60.5738 11.6292 60.7191 11.4992C60.9155 11.3255 60.911 11.1693 60.8746 11.0691C60.8212 10.9152 60.6722 10.8369 60.4148 10.8369C60.1573 10.8437 59.9699 10.912 59.8422 11.0448C59.67 11.2176 59.6803 11.3826 59.718 11.4883C59.7684 11.6324 59.9115 11.7039 60.143 11.7039H60.1428ZM58.1748 12.8306C58.2045 12.8504 58.2578 12.8832 58.3041 12.8832C58.4177 12.8832 58.4504 12.8228 58.4625 12.7864C58.4689 12.76 58.4951 12.705 58.5822 12.5907C58.6438 12.5057 58.7154 12.4256 58.7914 12.3563L58.8282 12.3244L58.8128 12.2781C58.7975 12.2341 58.7617 12.1989 58.7046 12.1593C58.6681 12.1417 58.6196 12.1175 58.5532 12.0957L58.5197 12.0868C58.5069 12.0859 58.4951 12.0825 58.4747 12.0801L58.4436 12.0702L58.4335 12.0693C58.3881 12.0603 58.3399 12.0517 58.2907 12.0459C58.2211 12.036 58.1499 12.0341 58.0768 12.0341C57.2088 12.0342 56.2154 12.6268 55.8178 12.8887C55.8277 12.8734 55.8385 12.858 55.8481 12.8436L55.8711 12.8063C55.919 12.7379 55.9615 12.6654 55.9991 12.5862C56.0378 12.5026 56.0569 12.4387 56.0378 12.387C55.9988 12.2758 55.8925 12.1934 55.7191 12.1417C55.5498 12.0922 55.4789 12.0756 55.431 12.0756L55.4296 12.0756C55.3568 12.0756 55.3025 12.1417 55.2348 12.2519C55.2102 12.3122 55.1524 12.4288 55.0148 12.6379C54.8985 12.813 54.7628 13.0209 54.6258 13.2453C54.6098 13.2616 54.5891 13.2792 54.5674 13.299C52.7788 14.7558 51.71 15.0614 51.1269 15.0614C51.0129 15.0614 50.9085 15.0492 50.8254 15.0285C50.5933 14.9384 50.63 14.5951 50.6389 14.5323C50.6702 14.3914 50.7197 14.241 50.7858 14.0759C50.9497 13.6854 51.2329 13.154 51.625 12.4949L52.4834 12.485C52.5093 12.4783 52.6367 12.4365 52.6616 12.3356C52.6718 12.2947 52.6706 12.2321 52.5971 12.1593C52.5306 12.0976 52.2181 12.0625 51.9147 12.0494C51.9156 12.0494 51.9156 12.0461 51.9171 12.044C51.9573 11.9856 52.0036 11.9338 52.0585 11.891L52.1742 11.8007L52.0327 11.7611L51.9842 11.749L51.9672 11.7436L51.9506 11.746L51.334 11.8692C51.2682 11.8912 51.2088 11.9241 51.1571 11.9637C51.1235 11.9902 51.0942 12.0276 51.0603 12.0736C50.4219 12.1311 49.4997 12.3003 48.6615 12.7988C48.3891 12.9504 48.1493 13.1101 47.9445 13.2771C47.5754 13.5764 47.3036 13.8935 47.1344 14.2201C46.9601 14.5536 46.9124 14.8374 46.9923 15.0593C47.0714 15.273 47.2829 15.3809 47.6172 15.3809L47.6476 15.3786C47.8737 15.3742 48.1122 15.3201 48.3549 15.2176C48.6001 15.1199 48.8416 14.9976 49.069 14.8526C49.3011 14.7073 49.5195 14.5444 49.7175 14.3707C49.7625 14.3334 49.8088 14.2915 49.8516 14.2519C49.8164 14.3334 49.79 14.4103 49.7702 14.4873C49.7101 14.7163 49.7054 14.8967 49.7565 15.034C49.8114 15.1847 49.9244 15.3102 50.0905 15.4025C50.245 15.4897 50.4734 15.5347 50.7697 15.5347H50.8204C51.1817 15.528 51.5553 15.4565 51.9337 15.3233C52.3188 15.1847 52.6921 15.011 53.0443 14.7999C53.4176 14.5732 53.766 14.3334 54.0793 14.0836C54.0905 14.0738 54.1036 14.0648 54.1163 14.0562C53.9442 14.3244 53.7775 14.5974 53.6153 14.8625C53.5255 15.0001 53.4975 15.1055 53.5256 15.1802C53.5383 15.2301 53.5821 15.2728 53.7737 15.3543C53.9426 15.4268 54.0036 15.4399 54.0419 15.4399C54.1499 15.4399 54.2163 15.4124 54.2399 15.3565C54.3932 15.1451 54.5312 14.934 54.6516 14.7284C54.7595 14.5435 54.8904 14.3464 55.0466 14.1286C55.1944 13.9218 55.3528 13.7327 55.5157 13.5586C55.6785 13.3827 55.8909 13.2131 56.1467 13.0547C56.2999 12.9503 56.4909 12.8526 56.7132 12.7677C56.9331 12.6809 57.1494 12.6335 57.3554 12.6303L57.3937 12.6304C57.5552 12.6304 57.6792 12.6412 57.766 12.661C57.88 12.692 57.9624 12.7194 58.0209 12.7469C58.0752 12.7721 58.1368 12.8018 58.1748 12.8306ZM50.2054 13.4686C48.7378 14.6623 48.2352 14.8417 48.0662 14.8417C47.9995 14.8417 47.9902 14.8162 47.9857 14.7986C47.9857 14.6865 48.0266 14.5278 48.1058 14.3333C48.2217 14.0539 48.4111 13.7655 48.6663 13.4817C48.8444 13.2836 49.06 13.0978 49.3072 12.9273C49.621 12.7248 50.1256 12.484 50.7422 12.484C50.7687 12.4841 50.7962 12.484 50.8237 12.485C50.7806 12.5556 50.7362 12.6281 50.6915 12.7073L50.5558 12.934C50.4347 13.1365 50.3051 13.3255 50.2054 13.4686ZM35.9815 15.5698L36.0228 15.5797C36.0662 15.5918 36.1135 15.6049 36.1729 15.6225C36.4475 15.6876 36.7177 15.7272 36.9958 15.748C37.2362 15.7691 37.4837 15.779 37.7517 15.779H37.8574C38.5357 15.7646 39.1351 15.6799 39.638 15.5257C39.8471 15.4619 40.0445 15.3817 40.2396 15.2783C40.4328 15.1783 40.6072 15.0592 40.7617 14.9308C40.9179 14.7986 41.0328 14.6545 41.1006 14.5026C41.1743 14.3397 41.182 14.1768 41.121 14.0054C41.084 13.9063 41.0418 13.8294 40.9926 13.7668C40.946 13.7061 40.8789 13.6423 40.7815 13.5631L40.7579 13.5455C40.7288 13.5258 40.6953 13.5014 40.6544 13.473C40.5944 13.4312 40.5242 13.3881 40.4504 13.3443C40.4213 13.3233 40.3839 13.3025 40.3469 13.2792L40.3118 13.2572C39.3266 12.6412 39.0421 12.3551 38.9706 12.2672C38.8652 12.1009 38.7633 11.8579 38.8777 11.649C38.9977 11.4313 39.3998 11.1713 40.6225 11.1703C40.7991 11.1968 40.9454 11.2351 41.0594 11.2837C41.2924 11.3871 41.4317 11.4906 41.472 11.5973C41.4834 11.6292 41.4934 11.671 41.4774 11.6985L41.4438 11.7588L41.5023 11.7985C41.5495 11.8294 41.5961 11.8447 41.6434 11.8447C41.6638 11.8448 41.6843 11.8414 41.7051 11.8349L41.752 11.8205L41.7558 11.7733C41.7642 11.6928 41.7834 11.5995 41.8112 11.4906C41.837 11.375 41.86 11.2846 41.8836 11.2176L41.8913 11.1936L41.8836 11.1671C41.8577 11.101 41.7978 11.0371 41.6987 10.9768C41.5084 10.8832 41.3114 10.8216 41.1131 10.7928C40.9406 10.7676 40.7637 10.7545 40.5871 10.7545L40.5149 10.7555C40.2141 10.7612 39.9539 10.7874 39.724 10.8369C39.5123 10.881 39.3159 10.9359 39.1393 11.002C38.9763 11.0636 38.8429 11.1275 38.7289 11.2022C38.6171 11.2805 38.5386 11.3408 38.4843 11.3916C38.3198 11.5455 38.1966 11.7215 38.1155 11.9195C38.0363 12.1264 38.0308 12.3321 38.1037 12.5313C38.1739 12.7303 38.3065 12.904 38.4952 13.0528C38.6657 13.1878 38.9106 13.3475 39.2411 13.5388C39.5767 13.7282 39.8313 13.8933 39.9775 14.0143C40.0519 14.0801 40.1043 14.1395 40.1394 14.1813C40.1455 14.1881 40.2742 14.3751 40.1796 14.5795C40.0794 14.7954 39.7198 15.0802 38.5616 15.199C38.2569 15.23 37.9743 15.2441 37.7202 15.2441C36.2592 15.2441 36.1513 14.7338 36.1513 14.6942L36.1579 14.6699L36.1497 14.6457C36.1267 14.5817 36.0733 14.5466 35.9964 14.5466C35.9714 14.5476 35.921 14.5533 35.8948 14.5929L35.8855 14.6159L35.8841 14.6348C35.8697 14.7338 35.8567 14.8612 35.8413 15.0199C35.8301 15.1739 35.8215 15.3147 35.8171 15.4344L35.817 15.4631L35.8337 15.4839C35.8617 15.519 35.9046 15.5433 35.9814 15.5698L35.9815 15.5698ZM47.1953 12.2034C47.1586 12.1043 47.0894 12.0098 46.9878 11.9194C46.8901 11.8336 46.7895 11.7755 46.6746 11.7445C46.5238 11.7488 46.3715 11.8425 46.2217 12.0207C46.0854 12.1848 45.9449 12.3924 45.8082 12.6325C45.6022 12.9781 45.4058 13.321 45.2101 13.6796L45.0654 13.9108C44.9859 14.0405 44.9147 14.1529 44.8598 14.241C44.4229 14.6808 43.8152 14.9151 43.812 14.9151C43.5786 14.9934 43.3876 15.0307 43.242 15.0307C43.242 15.0307 43.2406 15.0307 43.2396 15.0307C43.1026 15.0307 43.0106 14.9943 42.9695 14.9228C42.8756 14.7558 43.0126 14.408 43.1611 14.1571C43.1831 14.1197 43.2105 14.0823 43.2387 14.0427C43.5691 13.5586 43.9332 12.9975 44.3177 12.3729L44.3365 12.3419L44.3254 12.3091C44.293 12.2101 44.1689 12.2101 44.1273 12.2101C44.09 12.2101 44.0047 12.2187 43.838 12.2398C43.6889 12.2583 43.5675 12.2758 43.4628 12.2947C43.4101 12.3177 43.3644 12.3486 43.3201 12.3774C43.2865 12.4036 43.2418 12.4441 43.1901 12.4917L43.1725 12.507L43.1682 12.5138C42.7001 13.1495 42.3527 13.6269 42.0691 14.0373C41.7539 14.4939 41.6406 14.8305 41.7255 15.0703C41.7836 15.2201 41.9053 15.33 42.0918 15.397C42.2546 15.4555 42.4564 15.4839 42.694 15.4839L42.757 15.4839C43.1258 15.4785 43.4751 15.4136 43.7938 15.2926C43.9752 15.2234 44.131 15.1572 44.2658 15.0933C41.5422 18.3224 39.1663 19.0132 37.6374 19.0132C36.8441 19.0132 36.2039 18.8305 35.76 18.6501C35.3183 18.4687 35.0734 18.2883 35.0718 18.2883C34.9706 18.1695 34.9074 18.0759 34.8876 18.0188C34.8763 17.977 34.8432 17.9418 34.7828 17.9118C34.7652 17.9054 34.7461 17.9022 34.7292 17.9022C34.6819 17.9022 34.6401 17.9284 34.6152 17.9747C34.5938 18.0188 34.5832 18.0935 34.5871 18.1902C34.5895 18.2851 34.6219 18.4214 34.6819 18.5951C34.7752 18.8593 34.9288 19.0649 35.1472 19.2223C35.3659 19.3785 35.6108 19.4928 35.8951 19.5743C36.1764 19.6512 36.4644 19.7065 36.7566 19.7349C36.9993 19.7579 37.2165 19.769 37.4183 19.769C37.47 19.769 37.524 19.7676 37.5758 19.7657C38.6049 19.7324 39.5687 19.4795 40.4366 19.013C41.3037 18.5487 42.1237 17.9525 42.8741 17.2375C43.3883 16.7489 43.8922 16.2121 44.375 15.6389L46.1822 13.6079C46.3156 13.4607 46.4434 13.3131 46.5606 13.1778L46.6018 13.1296C46.7713 12.9316 46.9198 12.7422 47.0434 12.5729C47.202 12.3484 47.2184 12.2626 47.1953 12.2032V12.2034ZM79.9783 7.78313C79.9614 7.68728 79.9087 7.55637 79.8139 7.37593C79.6766 7.11957 79.4878 6.91834 79.249 6.77848C79.0152 6.63899 78.7511 6.53864 78.4637 6.48245C78.1786 6.4221 77.8976 6.3924 77.605 6.3857L77.4712 6.3833C77.2308 6.3833 77.0082 6.39667 76.8089 6.42095C75.8193 6.53749 74.9338 6.87279 74.1834 7.41981C73.4371 7.96338 72.7588 8.64193 72.1674 9.43291C71.5887 10.2054 71.0545 11.0766 70.5793 12.0196L70.5563 12.0668C70.5244 12.1307 70.4947 12.1932 70.466 12.2482L70.4104 12.3309C70.3599 12.4078 70.3099 12.4826 70.261 12.563C70.1614 12.7157 70.0633 12.8776 69.9643 13.0392L69.8433 13.2353C68.2948 14.4376 67.1838 15.0459 66.5414 15.0459C66.352 15.0459 66.2102 14.9932 66.1179 14.8808C65.9301 14.6598 65.9886 14.267 65.9985 14.2054C66.0078 14.1767 66.0183 14.1527 66.0275 14.124C66.0403 14.0889 66.0524 14.0515 66.0694 14.0106C66.2211 13.6434 66.4829 13.1471 66.8712 12.4957L67.7603 12.4871C67.7851 12.4794 67.9148 12.4363 67.9413 12.3354C67.9512 12.2945 67.9496 12.2319 67.8762 12.1591C67.8072 12.0965 67.4748 12.0579 67.1535 12.0493C67.1646 12.0317 67.1749 12.0183 67.1848 12.0007L67.2001 11.9787C67.241 11.9148 67.2857 11.8688 67.3384 11.8292L67.4639 11.7379L67.3141 11.697L67.264 11.6839L67.2477 11.6796L67.2302 11.682L66.6151 11.8053C66.5529 11.8273 66.4948 11.8579 66.435 11.8998C66.3906 11.9372 66.3459 11.9943 66.3015 12.0757C65.6737 12.0914 65.0897 12.2102 64.5695 12.4289C64.0802 12.6336 63.6514 12.8811 63.2928 13.1605L63.2595 13.1605C63.2193 13.1605 63.1771 13.1816 63.1104 13.231C61.7027 14.4963 60.3801 14.9462 59.6115 14.9462C59.2602 14.9462 59.0175 14.846 58.9961 14.6853C58.9559 14.3114 59.462 13.3607 59.9449 12.5985L59.9818 12.5445L60.0148 12.4906C60.0553 12.4609 60.0834 12.418 60.1 12.3596C60.1137 12.3092 60.117 12.2696 60.1039 12.2232C60.0652 12.1387 59.9519 12.1386 59.8937 12.1386C59.8206 12.1387 59.6942 12.167 59.494 12.2287C59.2848 12.2894 59.151 12.3663 59.0919 12.4541C58.99 12.5698 58.8623 12.7415 58.7237 12.9494C58.5752 13.164 58.4274 13.3939 58.2837 13.628C58.1434 13.8669 58.0288 14.0978 57.9382 14.3178C57.8391 14.5579 57.8177 14.7469 57.8717 14.891C57.9119 15.0079 57.9899 15.1033 58.1016 15.1784C58.2013 15.241 58.3143 15.2905 58.4481 15.3345C58.5682 15.3709 58.7039 15.3926 58.8521 15.4006C58.9641 15.407 59.0641 15.4115 59.1529 15.4115L59.2116 15.4091C59.5038 15.4024 59.8146 15.3618 60.1345 15.2881C60.4635 15.2143 60.7684 15.1121 61.066 14.978C61.4428 14.8039 61.835 14.5795 62.2629 14.2959C62.3086 14.2649 62.3504 14.2343 62.3932 14.2055C62.2399 14.5137 62.1997 14.78 62.275 14.9955C62.3504 15.2079 62.5631 15.3156 62.9032 15.3156H62.9318C63.15 15.3101 63.3882 15.2584 63.6331 15.1572C63.8755 15.0626 64.1173 14.9384 64.3514 14.7886C64.5787 14.6456 64.8032 14.4805 65.0012 14.309C65.0462 14.2685 65.0909 14.2298 65.1337 14.1912C65.0989 14.2717 65.0727 14.3486 65.0539 14.4233C64.9928 14.6424 64.9875 14.8282 65.0386 14.9691C65.089 15.1166 65.2014 15.2408 65.3735 15.3398C65.529 15.4267 65.751 15.4698 66.0365 15.4698H66.1003C66.4555 15.4664 66.8208 15.396 67.2183 15.2584C67.5974 15.123 67.9716 14.9493 68.3268 14.7359C68.6882 14.5182 69.0369 14.277 69.3614 14.0197C69.3657 14.0182 69.3697 14.0163 69.3735 14.012C69.1954 14.3122 69.0162 14.6235 68.8329 14.9426C68.7955 15.0285 68.7866 15.1054 68.8125 15.1782C68.8504 15.2792 68.9616 15.3453 69.1459 15.3708C69.2845 15.3884 69.3972 15.396 69.4891 15.396H69.5274C69.6833 15.3927 69.8114 15.2881 69.9094 15.0878C70.0189 14.8768 70.1524 14.6334 70.3456 14.2969C70.4445 14.1196 70.5442 13.9469 70.6416 13.7763L70.8284 13.4497C71.279 12.9362 71.6865 12.5773 72.041 12.3837C72.4727 12.1494 72.6921 12.0935 72.8013 12.089C72.8144 12.089 72.8265 12.089 72.8386 12.1174C72.8539 12.1592 72.8588 12.2739 72.7148 12.5555C72.595 12.7909 72.4612 13.0505 72.3134 13.3322C72.162 13.617 72.0343 13.9009 71.9321 14.1669C71.8202 14.4566 71.796 14.6983 71.8637 14.8854C71.9359 15.0879 72.0898 15.2386 72.3287 15.3398C72.5298 15.428 72.7681 15.473 73.0376 15.473C73.074 15.473 73.1114 15.473 73.1478 15.4696C73.5641 15.4562 73.9815 15.3671 74.4245 15.1997C74.8549 15.0404 75.2797 14.828 75.6823 14.5729C76.0748 14.3264 76.4602 14.0438 76.83 13.7324C77.0654 13.5367 77.2803 13.3284 77.5236 13.0624C77.6957 12.9028 77.7976 12.7971 77.7976 12.7971L77.8464 12.7488L77.7988 12.6962C77.7369 12.6278 77.6715 12.5927 77.605 12.5927C77.4897 12.5927 77.4256 12.6917 77.4272 12.6917C77.4286 12.6917 77.4286 12.6917 77.4286 12.6917C75.4998 14.4816 74.3997 14.8577 73.8188 14.8577C73.1176 14.8578 72.9327 14.334 72.9234 14.2165C72.9326 14.1284 72.9496 14.046 72.9758 13.9556C73.0515 13.7082 73.1549 13.453 73.2859 13.1966C73.4219 12.9315 73.5685 12.685 73.7313 12.4496C73.8833 12.2229 74.006 12.0457 74.1005 11.9237C74.1911 11.8203 74.2451 11.7334 74.2627 11.6574L74.2651 11.6299L74.2675 11.6289C74.2819 11.5156 74.2632 11.4265 74.2065 11.3594C74.1439 11.2879 74.0421 11.2524 73.8999 11.2524C73.2625 11.2524 71.8335 12.0115 71.2779 12.3209C71.6161 11.354 72.8637 8.31649 75.443 7.46354C75.6783 7.39552 75.9194 7.33612 76.1586 7.2898C76.3942 7.25249 76.6367 7.23362 76.8793 7.23362C77.7604 7.23367 78.7098 7.47791 79.6991 7.95657C79.7077 7.9697 79.7144 7.98498 79.7199 7.99298C79.7448 8.04255 79.7882 8.0655 79.8294 8.08207C79.8476 8.09069 79.8632 8.09294 79.8798 8.09294C79.9255 8.09299 79.9766 8.0655 79.9922 7.99935C80.0063 7.95217 80.0008 7.88602 79.9788 7.78289L79.9783 7.78313ZM65.3736 13.5564C65.3614 13.573 65.3477 13.5873 65.3327 13.6027L65.3109 13.6269C64.1479 14.6083 63.6437 14.8152 63.424 14.8152C63.3608 14.8152 63.2762 14.7986 63.2729 14.6744C63.2822 14.5655 63.3234 14.4301 63.3905 14.2717C63.5032 13.9923 63.6926 13.7039 63.9528 13.4146C64.0192 13.3386 64.093 13.2648 64.1738 13.1914C64.1798 13.1847 64.9709 12.4828 66.0199 12.4828C66.0365 12.4828 66.0505 12.4828 66.0678 12.4842L66.0654 12.4851C65.9955 12.6062 65.9179 12.7338 65.8425 12.8702C65.6796 13.1321 65.528 13.3563 65.3734 13.5565L65.3736 13.5564Z" fill="#6A1F1D"/>
</g>
</g>
<defs>
<clipPath id="clip0_801_7047">
<rect width="80" height="19.769" fill="white"/>
</clipPath>
<clipPath id="clip1_801_7047">
<rect width="80" height="19.769" fill="white"/>
</clipPath>
</defs>
</svg>
