<svg width="80" height="21" viewBox="0 0 80 21" fill="none" xmlns="http://www.w3.org/2000/svg">
<g clip-path="url(#clip0_801_8555)">
<path fill-rule="evenodd" clip-rule="evenodd" d="M9.84066 16.7803L9.7826 16.8374C8.8507 17.7866 7.77176 18.29 6.66097 18.29C4.34199 18.29 2.65802 16.5494 2.65802 14.148C2.65802 11.7513 4.34199 10.0097 6.66097 10.0097C7.77176 10.0097 8.8507 10.5141 9.7826 11.4652L9.84066 11.5237L11.3322 9.71938L11.2924 9.67067C10.0528 8.20446 8.56363 7.49172 6.73355 7.49172C4.89832 7.49172 3.21856 8.10986 2.00897 9.22393C0.693539 10.4316 0 12.1334 0 14.1485C0 16.164 0.693539 17.87 2.00897 19.0772C3.21856 20.1969 4.89785 20.8108 6.73355 20.8108C8.56363 20.8108 10.0528 20.0981 11.2924 18.6314L11.3322 18.586L9.84066 16.7803ZM12.8396 20.5641H15.4751V7.69964H12.8396V20.5641ZM25.7991 17.7674C25.0948 18.1954 24.441 18.4113 23.8524 18.4113C23.001 18.4113 22.6156 17.9618 22.6156 16.9606V10.1338H25.3008V7.71135H22.6156V3.70793L20.033 5.09079V7.71135H17.8049V10.1338H20.033V17.3965C20.033 19.3737 21.2047 20.7252 22.9556 20.7621C24.1427 20.7851 24.8588 20.4311 25.2933 20.1716L25.32 20.1538L25.9536 17.6728L25.7991 17.7674ZM27.9804 20.5641H30.6183V7.69964H27.9804V20.5641Z" fill="#1C4882"/>
<path fill-rule="evenodd" clip-rule="evenodd" d="M32.1547 5.44388C29.7472 2.03379 25.7494 0 21.6819 0C17.6152 0 13.616 2.03426 11.2128 5.44388L11.0891 5.61902H14.1213L14.1536 5.5825C16.2178 3.45458 18.9119 2.32787 21.6819 2.32787C24.4518 2.32787 27.1445 3.45458 29.212 5.5825L29.2471 5.61902H32.276L32.1547 5.44388Z" fill="#CC2131"/>
<path fill-rule="evenodd" clip-rule="evenodd" d="M35.6505 10.7571L35.6149 10.8044V17.4593L35.6407 17.5C36.471 18.7836 37.8239 19.5516 39.261 19.5516C41.4831 19.5516 42.6098 17.6789 42.6098 13.9874C42.6098 10.6873 41.3623 8.79778 39.187 8.79778C37.8674 8.79731 36.6775 9.45666 35.6505 10.7571ZM80 20.5191V20.5641H78.4078C78.3174 20.3814 75.0722 13.5097 75.0722 13.5097L72.6492 16.9062V20.5645H71.1456V3.66437C71.2771 3.58898 72.2943 3.00549 72.6492 2.80553V15.0766L73.4716 13.8001C73.4688 13.8043 77.1584 8.46342 77.6304 7.78252H79.277C78.9267 8.25128 76.0266 12.2435 76.0266 12.2435C76.0266 12.2435 79.624 19.7455 80 20.5191ZM50.0219 20.8328H49.3836C48.0883 20.7579 45.7553 20.1566 45.7553 16.8088C45.7553 13.8347 48.2101 12.7792 50.5094 12.7792C51.6656 12.7792 52.8059 13.0447 53.6329 13.5097L53.8815 13.646V11.8117C53.8815 9.77744 52.8883 8.7472 50.9238 8.7472C49.7128 8.7472 48.6198 9.05112 47.5011 9.68378C47.4004 9.45666 47.0529 8.68726 46.9569 8.46997C48.1277 7.85136 49.5737 7.50623 51.047 7.50623C53.9663 7.50623 55.3862 8.83946 55.3862 11.5869V20.5641H53.8815V18.6998L53.5898 19.0234C52.5619 20.1552 51.394 20.7523 50.0219 20.8328ZM39.6848 20.8328H39.0896C37.8454 20.7561 36.8283 20.2156 35.9071 19.1498L35.6149 18.8084V20.5641H34.1141V3.6639C34.241 3.58851 35.2623 3.00502 35.6149 2.80506V9.64351L35.9053 9.3246C37.0142 8.10096 38.2397 7.50623 39.6497 7.50623C42.4712 7.50623 44.091 9.85705 44.091 13.9602C44.0905 18.0006 42.37 20.6605 39.6848 20.8328ZM47.2285 16.6847C47.2285 18.5968 48.219 19.6481 50.0181 19.6481C51.5499 19.6481 52.9094 18.9246 53.8525 17.6091L53.8815 17.5642V14.7619L53.7973 14.7132C52.8368 14.1658 51.8557 13.9443 50.4096 13.9443C48.4203 13.9448 47.2285 14.9694 47.2285 16.6847ZM60.2934 9.30494C61.0689 8.14592 62.2846 7.50623 63.7077 7.50623C66.5432 7.50623 68.0469 9.31477 68.0469 12.7375V20.5641H66.5385V13.0616C66.5385 10.1502 65.527 8.79731 63.3382 8.79731C61.2407 8.79731 59.9881 10.3928 59.9881 13.0616V20.5641H58.4853V7.78252H59.9881V9.76386L60.2934 9.30494Z" fill="#1C4882"/>
</g>
<defs>
<clipPath id="clip0_801_8555">
<rect width="80" height="20.8328" fill="white"/>
</clipPath>
</defs>
</svg>
