<svg width="80" height="11" viewBox="0 0 80 11" fill="none" xmlns="http://www.w3.org/2000/svg">
<g clip-path="url(#clip0_801_8552)">
<path fill-rule="evenodd" clip-rule="evenodd" d="M27.5792 3.18242V4.33967L27.7327 4.32786V4.31605C27.7622 4.14483 28.0692 3.82009 28.453 3.82009C28.453 3.82009 29.5571 3.82009 29.5985 3.82009C29.5985 3.87913 29.5985 9.80118 29.5985 9.80118H30.7321C30.7321 9.80118 30.7321 3.87913 30.7321 3.8378C30.7911 3.8378 31.9071 3.8378 31.9071 3.8378C32.3026 3.8378 32.5565 4.05036 32.5979 4.2452V4.27472H32.7691L32.7573 3.21194H32.7455V3.18242H27.5792Z" fill="#183964"/>
<path fill-rule="evenodd" clip-rule="evenodd" d="M6.98483 3.18242H6.95531V3.33593L6.96712 3.34774C7.0675 3.40678 7.16787 3.64296 7.16787 3.94408V9.79528H8.27198C8.27198 9.79528 8.27198 6.84311 8.27198 6.78407C8.33102 6.78407 8.76795 6.78407 8.76795 6.78407C9.20487 6.81359 9.37609 7.097 9.58865 7.46307L9.61817 7.5044L9.75987 7.72876C10.002 8.12435 10.3267 8.66165 10.6514 9.16942C10.8935 9.52368 11.1887 9.73624 11.5725 9.78938C11.8382 9.83071 12.3755 9.8189 12.5881 9.75985L12.8301 9.70081L12.9305 9.67129L12.594 9.57091C12.4523 9.52958 12.2397 9.42921 11.9563 9.10447C11.7733 8.90372 11.4898 8.43728 11.0529 7.76419L10.6278 7.08519L10.616 7.07338C10.5038 6.90215 10.3031 6.63646 9.97834 6.46523C10.5983 6.26448 11.2064 5.70357 11.2064 4.85335C11.2064 4.61127 11.1474 4.16254 10.74 3.76695C10.3326 3.37136 9.67721 3.17061 8.80337 3.17061H6.99664L6.98483 3.18242ZM8.88013 3.77876C10.0138 3.82009 10.0374 4.7825 10.0374 4.88287C10.0374 5.84528 9.32886 6.18182 8.7089 6.18182C8.7089 6.18182 8.31331 6.17001 8.27198 6.17001C8.27198 6.11097 8.27198 3.8378 8.27198 3.77876C8.40188 3.77876 8.60853 3.76695 8.88013 3.77876Z" fill="#183964"/>
<path fill-rule="evenodd" clip-rule="evenodd" d="M18.2916 3.18242H18.2621L18.2739 3.35364H18.2857C18.3861 3.39498 18.4688 3.63705 18.4688 3.8319V9.78347H20.3641C21.6099 9.78347 22.655 9.39969 23.3635 8.66755C23.9598 8.0594 24.2846 7.22689 24.2846 6.37667C24.2846 5.86889 24.1133 5.08952 23.6174 4.45185C22.9679 3.60163 21.9346 3.16471 20.5353 3.16471L18.2857 3.17651L18.2916 3.18242ZM19.6083 3.82009C19.6674 3.82009 20.2047 3.82009 20.2047 3.82009C20.3582 3.82009 20.7538 3.8319 21.0372 3.87913C22.9029 4.16254 23.1037 5.73309 23.1037 6.38257C23.1037 6.91987 23.0033 7.69924 22.5369 8.28967C22.0822 8.8683 21.3796 9.16352 20.4172 9.16352C20.1928 9.16352 19.9094 9.16352 19.5965 9.15171C19.6083 9.11038 19.6083 3.87913 19.6083 3.82009Z" fill="#183964"/>
<path fill-rule="evenodd" clip-rule="evenodd" d="M26.5754 3.18239H25.2764V3.33591L25.2882 3.34772C25.4004 3.40676 25.489 3.61341 25.489 3.89682V9.78935H26.5931V3.1883L26.5813 3.17649L26.5754 3.18239Z" fill="#183964"/>
<path fill-rule="evenodd" clip-rule="evenodd" d="M16.8628 3.18242H13.1431L13.1549 3.33593H13.1667C13.2671 3.39498 13.3792 3.61934 13.3792 3.93227V9.78347H17.0813L17.3529 8.60851L17.1993 8.54946L17.158 8.62032C16.8451 9.09857 16.5381 9.15761 15.4635 9.15761C15.0797 9.16942 14.7018 9.12809 14.4715 9.11628C14.4715 9.07495 14.4715 6.47114 14.4715 6.418C14.5306 6.418 16.3491 6.418 16.3491 6.418V5.82166C16.3491 5.82166 14.5247 5.82166 14.4715 5.82166C14.4715 5.76262 14.4715 3.81418 14.4715 3.77285C14.5306 3.77285 16.0008 3.78466 16.0008 3.78466C16.3373 3.78466 16.7211 4.1094 16.7506 4.31015V4.33967H16.9041L16.8628 3.18242Z" fill="#183964"/>
<path fill-rule="evenodd" clip-rule="evenodd" d="M47.8665 3.18242H46.5675L46.5793 3.33593H46.5912C46.7033 3.39498 46.7919 3.61934 46.7919 3.90275V9.79528H47.896V3.19423L47.8665 3.18242Z" fill="#183964"/>
<path fill-rule="evenodd" clip-rule="evenodd" d="M63.3004 3.18241H59.5984L59.6102 3.35363H59.622C59.7224 3.41267 59.8345 3.62523 59.8345 3.93226V9.78346H63.5366L63.8023 8.60849L63.631 8.54945L63.5897 8.6203C63.2768 9.09855 62.9697 9.1576 61.907 9.1576C61.5232 9.1694 61.1453 9.12807 60.915 9.11627C60.915 9.07494 60.915 6.47112 60.915 6.41798C60.9741 6.41798 62.7926 6.41798 62.7926 6.41798V5.82164C62.7926 5.82164 60.9682 5.82164 60.915 5.82164C60.915 5.7626 60.915 3.81417 60.915 3.77284C60.9741 3.77284 62.4443 3.78465 62.4443 3.78465C62.8694 3.78465 63.1823 4.09758 63.1823 4.31013V4.33966L63.3535 4.32785L63.324 3.1706L63.2945 3.18241H63.3004Z" fill="#183964"/>
<path fill-rule="evenodd" clip-rule="evenodd" d="M49.6614 4.85333C49.6496 5.7744 50.1987 6.22313 51.102 6.67777L51.4386 6.84899C52.1471 7.20325 52.6135 7.42762 52.6135 8.09481C52.6135 8.20699 52.584 8.60258 52.2888 8.91551C52.0762 9.12807 51.781 9.22844 51.415 9.22844C50.3522 9.21663 49.9743 8.39593 49.8326 7.91177L49.8031 7.82911L49.5787 7.87044L49.6378 9.25796L49.6968 9.28749C50.0511 9.48823 50.6415 9.82478 51.4799 9.83659C52.0881 9.83659 52.6962 9.59451 53.1036 9.18711C53.4697 8.82104 53.6704 8.36641 53.6704 7.85864C53.6704 6.70138 52.8674 6.28808 52.0172 5.83935L51.8637 5.75669C50.9426 5.30206 50.6356 5.0895 50.6356 4.58173C50.6356 4.22747 50.9013 3.69017 51.6393 3.70788C52.5309 3.71969 52.9088 4.35736 52.9973 4.69981L53.0268 4.80019L53.2512 4.77067L53.1685 3.55437L53.1272 3.52485C52.6194 3.1883 51.9818 3.14107 51.7279 3.14107C50.736 3.12926 49.6909 3.73741 49.6791 4.86514L49.6614 4.85333Z" fill="#183964"/>
<path fill-rule="evenodd" clip-rule="evenodd" d="M35.1308 4.85335C35.119 5.77442 35.6681 6.22315 36.5715 6.67779L36.908 6.84901C37.6166 7.20327 38.083 7.42764 38.083 8.09483C38.083 8.20701 38.0535 8.6026 37.7583 8.91553C37.5457 9.12809 37.2505 9.22846 36.8844 9.22846C35.8216 9.21665 35.4438 8.39595 35.3021 7.91179L35.2725 7.82913L35.0482 7.87046L35.1072 9.25798L35.1663 9.28751C35.5205 9.48825 36.1109 9.8248 36.9494 9.83661C37.5575 9.83661 38.1657 9.59453 38.5731 9.18713C38.9391 8.82106 39.1399 8.36643 39.1399 7.85866C39.1399 6.70141 38.3369 6.2881 37.4867 5.83937L37.3331 5.75671C36.4121 5.30208 36.105 5.08952 36.105 4.58175C36.105 4.22749 36.3707 3.69019 37.1088 3.70791C38.0003 3.71971 38.3782 4.35738 38.4668 4.69983L38.4963 4.80021L38.7207 4.77069L38.6498 3.5662L38.6085 3.53668C38.1007 3.20013 37.463 3.1529 37.2092 3.1529C36.2172 3.12338 35.1603 3.73152 35.1426 4.86516L35.1308 4.85335Z" fill="#183964"/>
<path fill-rule="evenodd" clip-rule="evenodd" d="M54.6211 4.85335C54.6092 5.77442 55.1584 6.22315 56.0617 6.67779L56.3983 6.84901C57.1068 7.20327 57.5732 7.42764 57.5732 8.09483C57.5732 8.20701 57.5437 8.6026 57.2485 8.91553C57.0359 9.12809 56.7407 9.22846 56.3746 9.22846C55.3119 9.21665 54.934 8.39595 54.7923 7.9118L54.7628 7.82913L54.5384 7.87046L54.5974 9.25798L54.6565 9.28751C55.0107 9.48825 55.6012 9.8248 56.4396 9.83661C57.0477 9.83661 57.6559 9.59453 58.0633 9.18713C58.4294 8.82106 58.6301 8.36643 58.6301 7.85866C58.6301 6.70141 57.8271 6.2881 56.9769 5.83937L56.8234 5.75671C55.9023 5.30208 55.5953 5.08952 55.5953 4.58175C55.5953 4.35738 55.6956 4.12711 55.861 3.96179C56.044 3.79057 56.2979 3.6961 56.599 3.6961C57.4906 3.70791 57.8684 4.34557 57.957 4.68803L57.9865 4.77069L58.2109 4.74116L58.14 3.53668L58.0987 3.50716C57.5909 3.17061 56.9533 3.12338 56.6994 3.12338C55.7075 3.12338 54.6506 3.73152 54.6329 4.85925L54.6211 4.85335Z" fill="#183964"/>
<path fill-rule="evenodd" clip-rule="evenodd" d="M45.1092 3.18832H44.2353L44.2471 3.34184H44.2589C44.3003 3.37136 44.442 3.47173 44.442 3.87913V7.62248C44.442 8.34281 44.1704 9.22256 42.9009 9.22256C41.6964 9.22256 41.4426 8.50223 41.4426 7.42764V3.17061H40.055L40.0669 3.31231H40.0787C40.1613 3.35364 40.3207 3.53668 40.3207 3.89094V7.40993C40.3207 9.60044 41.7614 9.84251 42.8537 9.84251C43.391 9.84251 45.1151 9.689 45.1151 7.62248V3.1529L45.1033 3.18242L45.1092 3.18832Z" fill="#183964"/>
<path fill-rule="evenodd" clip-rule="evenodd" d="M0.921077 4.13302C0.342452 4.77069 0 5.61501 0 6.49475C0 7.46897 0.383782 8.34872 1.07459 8.98048C1.74178 9.58863 2.61562 9.91337 3.56032 9.91337C4.05628 9.91337 5.0305 9.83071 5.96338 9.24618L6.00471 9.21665L6.1169 7.84685L5.93386 7.83504L5.90434 7.89408C5.21353 9.37607 4.13894 9.16352 3.72564 9.16352C1.9012 9.16352 1.28124 7.82323 1.28124 6.36486C1.28124 4.96553 1.9012 3.76104 3.74335 3.76104C4.31017 3.76104 5.32572 3.74924 5.86301 5.01867L5.89253 5.08952L6.06376 5.03048L5.95157 3.60163L5.91024 3.58982C5.04821 3.20604 4.3574 3.04071 3.66069 3.04071C2.54477 3.02891 1.59417 3.40678 0.921077 4.12711V4.13302Z" fill="#183964"/>
<path fill-rule="evenodd" clip-rule="evenodd" d="M76.7033 7.652C75.4752 7.45126 74.1467 7.33907 73.1666 7.5103C73.1075 7.52211 73.0662 7.48078 73.0662 7.42764C73.0662 7.09109 73.0662 5.98698 72.8005 4.61717C72.8005 4.58765 72.7887 4.57584 72.7592 4.55813C69.5472 2.30858 66.6541 0.814779 65.4673 0.247962C65.3847 0.206632 65.2961 0.318814 65.367 0.389666C68.8328 3.57211 70.0432 8.98638 70.2026 9.70671C70.2144 9.74804 70.2617 9.77757 70.303 9.77757C74.188 9.02771 78.0908 9.9606 79.1831 10.2558C79.2658 10.2853 79.3248 10.1732 79.2658 10.1141C78.4628 9.25208 77.6126 8.44319 76.7505 7.68153C76.7505 7.66972 76.7387 7.652 76.7092 7.652H76.7033Z" fill="#183964"/>
<path fill-rule="evenodd" clip-rule="evenodd" d="M79.9684 8.20111C76.845 4.01493 72.4049 0.932866 71.0056 0.017693C70.9229 -0.0413504 70.8344 0.0590233 70.8934 0.147588C71.968 1.55873 72.5171 3.18832 72.7887 4.54632C72.7887 4.57584 72.8005 4.58765 72.8182 4.60536C74.1054 5.50873 75.4221 6.53018 76.721 7.6461C76.7328 7.65791 76.7505 7.65791 76.7623 7.65791C78.1203 7.88227 79.3661 8.1952 79.8739 8.33691C79.9566 8.36643 80.0156 8.27786 79.9743 8.20701L79.9684 8.20111Z" fill="#183964"/>
<path fill-rule="evenodd" clip-rule="evenodd" d="M27.5792 3.18242V4.33967L27.7327 4.32786V4.31605C27.7622 4.14483 28.0692 3.82009 28.453 3.82009C28.453 3.82009 29.5571 3.82009 29.5985 3.82009C29.5985 3.87913 29.5985 9.80118 29.5985 9.80118H30.7321C30.7321 9.80118 30.7321 3.87913 30.7321 3.8378C30.7911 3.8378 31.9071 3.8378 31.9071 3.8378C32.3026 3.8378 32.5565 4.05036 32.5979 4.2452V4.27472H32.7691L32.7573 3.21194H32.7455V3.18242H27.5792Z" fill="#183964"/>
<path fill-rule="evenodd" clip-rule="evenodd" d="M6.98483 3.18242H6.95531V3.33593L6.96712 3.34774C7.0675 3.40678 7.16787 3.64296 7.16787 3.94408V9.79528H8.27198C8.27198 9.79528 8.27198 6.84311 8.27198 6.78407C8.33102 6.78407 8.76795 6.78407 8.76795 6.78407C9.20487 6.81359 9.37609 7.097 9.58865 7.46307L9.61817 7.5044L9.75987 7.72876C10.002 8.12435 10.3267 8.66165 10.6514 9.16942C10.8935 9.52368 11.1887 9.73624 11.5725 9.78938C11.8382 9.83071 12.3755 9.8189 12.5881 9.75985L12.8301 9.70081L12.9305 9.67129L12.594 9.57091C12.4523 9.52958 12.2397 9.42921 11.9563 9.10447C11.7733 8.90372 11.4898 8.43728 11.0529 7.76419L10.6278 7.08519L10.616 7.07338C10.5038 6.90215 10.3031 6.63646 9.97834 6.46523C10.5983 6.26448 11.2064 5.70357 11.2064 4.85335C11.2064 4.61127 11.1474 4.16254 10.74 3.76695C10.3326 3.37136 9.67721 3.17061 8.80337 3.17061H6.99664L6.98483 3.18242ZM8.88013 3.77876C10.0138 3.82009 10.0374 4.7825 10.0374 4.88287C10.0374 5.84528 9.32886 6.18182 8.7089 6.18182C8.7089 6.18182 8.31331 6.17001 8.27198 6.17001C8.27198 6.11097 8.27198 3.8378 8.27198 3.77876C8.40188 3.77876 8.60853 3.76695 8.88013 3.77876Z" fill="#183964"/>
<path fill-rule="evenodd" clip-rule="evenodd" d="M18.2916 3.18242H18.2621L18.2739 3.35364H18.2857C18.3861 3.39498 18.4688 3.63705 18.4688 3.8319V9.78347H20.3641C21.6099 9.78347 22.655 9.39969 23.3635 8.66755C23.9598 8.0594 24.2846 7.22689 24.2846 6.37667C24.2846 5.86889 24.1133 5.08952 23.6174 4.45185C22.9679 3.60163 21.9346 3.16471 20.5353 3.16471L18.2857 3.17651L18.2916 3.18242ZM19.6083 3.82009C19.6674 3.82009 20.2047 3.82009 20.2047 3.82009C20.3582 3.82009 20.7538 3.8319 21.0372 3.87913C22.9029 4.16254 23.1037 5.73309 23.1037 6.38257C23.1037 6.91987 23.0033 7.69924 22.5369 8.28967C22.0822 8.8683 21.3796 9.16352 20.4172 9.16352C20.1928 9.16352 19.9094 9.16352 19.5965 9.15171C19.6083 9.11038 19.6083 3.87913 19.6083 3.82009Z" fill="#183964"/>
<path fill-rule="evenodd" clip-rule="evenodd" d="M26.5754 3.18239H25.2764V3.33591L25.2882 3.34772C25.4004 3.40676 25.489 3.61341 25.489 3.89682V9.78935H26.5931V3.1883L26.5813 3.17649L26.5754 3.18239Z" fill="#183964"/>
<path fill-rule="evenodd" clip-rule="evenodd" d="M16.8628 3.18242H13.1431L13.1549 3.33593H13.1667C13.2671 3.39498 13.3792 3.61934 13.3792 3.93227V9.78347H17.0813L17.3529 8.60851L17.1993 8.54946L17.158 8.62032C16.8451 9.09857 16.5381 9.15761 15.4635 9.15761C15.0797 9.16942 14.7018 9.12809 14.4715 9.11628C14.4715 9.07495 14.4715 6.47114 14.4715 6.418C14.5306 6.418 16.3491 6.418 16.3491 6.418V5.82166C16.3491 5.82166 14.5247 5.82166 14.4715 5.82166C14.4715 5.76262 14.4715 3.81418 14.4715 3.77285C14.5306 3.77285 16.0008 3.78466 16.0008 3.78466C16.3373 3.78466 16.7211 4.1094 16.7506 4.31015V4.33967H16.9041L16.8628 3.18242Z" fill="#183964"/>
<path fill-rule="evenodd" clip-rule="evenodd" d="M47.8665 3.18242H46.5675L46.5793 3.33593H46.5912C46.7033 3.39498 46.7919 3.61934 46.7919 3.90275V9.79528H47.896V3.19423L47.8665 3.18242Z" fill="#183964"/>
<path fill-rule="evenodd" clip-rule="evenodd" d="M63.3004 3.18241H59.5984L59.6102 3.35363H59.622C59.7224 3.41267 59.8345 3.62523 59.8345 3.93226V9.78346H63.5366L63.8023 8.60849L63.631 8.54945L63.5897 8.6203C63.2768 9.09855 62.9697 9.1576 61.907 9.1576C61.5232 9.1694 61.1453 9.12807 60.915 9.11627C60.915 9.07494 60.915 6.47112 60.915 6.41798C60.9741 6.41798 62.7926 6.41798 62.7926 6.41798V5.82164C62.7926 5.82164 60.9682 5.82164 60.915 5.82164C60.915 5.7626 60.915 3.81417 60.915 3.77284C60.9741 3.77284 62.4443 3.78465 62.4443 3.78465C62.8694 3.78465 63.1823 4.09758 63.1823 4.31013V4.33966L63.3535 4.32785L63.324 3.1706L63.2945 3.18241H63.3004Z" fill="#183964"/>
<path fill-rule="evenodd" clip-rule="evenodd" d="M49.6614 4.85333C49.6496 5.7744 50.1987 6.22313 51.102 6.67777L51.4386 6.84899C52.1471 7.20325 52.6135 7.42762 52.6135 8.09481C52.6135 8.20699 52.584 8.60258 52.2888 8.91551C52.0762 9.12807 51.781 9.22844 51.415 9.22844C50.3522 9.21663 49.9743 8.39593 49.8326 7.91177L49.8031 7.82911L49.5787 7.87044L49.6378 9.25796L49.6968 9.28749C50.0511 9.48823 50.6415 9.82478 51.4799 9.83659C52.0881 9.83659 52.6962 9.59451 53.1036 9.18711C53.4697 8.82104 53.6704 8.36641 53.6704 7.85864C53.6704 6.70138 52.8674 6.28808 52.0172 5.83935L51.8637 5.75669C50.9426 5.30206 50.6356 5.0895 50.6356 4.58173C50.6356 4.22747 50.9013 3.69017 51.6393 3.70788C52.5309 3.71969 52.9088 4.35736 52.9973 4.69981L53.0268 4.80019L53.2512 4.77067L53.1685 3.55437L53.1272 3.52485C52.6194 3.1883 51.9818 3.14107 51.7279 3.14107C50.736 3.12926 49.6909 3.73741 49.6791 4.86514L49.6614 4.85333Z" fill="#183964"/>
<path fill-rule="evenodd" clip-rule="evenodd" d="M35.1308 4.85335C35.119 5.77442 35.6681 6.22315 36.5715 6.67779L36.908 6.84901C37.6166 7.20327 38.083 7.42764 38.083 8.09483C38.083 8.20701 38.0535 8.6026 37.7583 8.91553C37.5457 9.12809 37.2505 9.22846 36.8844 9.22846C35.8216 9.21665 35.4438 8.39595 35.3021 7.91179L35.2725 7.82913L35.0482 7.87046L35.1072 9.25798L35.1663 9.28751C35.5205 9.48825 36.1109 9.8248 36.9494 9.83661C37.5575 9.83661 38.1657 9.59453 38.5731 9.18713C38.9391 8.82106 39.1399 8.36643 39.1399 7.85866C39.1399 6.70141 38.3369 6.2881 37.4867 5.83937L37.3331 5.75671C36.4121 5.30208 36.105 5.08952 36.105 4.58175C36.105 4.22749 36.3707 3.69019 37.1088 3.70791C38.0003 3.71971 38.3782 4.35738 38.4668 4.69983L38.4963 4.80021L38.7207 4.77069L38.6498 3.5662L38.6085 3.53668C38.1007 3.20013 37.463 3.1529 37.2092 3.1529C36.2172 3.12338 35.1603 3.73152 35.1426 4.86516L35.1308 4.85335Z" fill="#183964"/>
<path fill-rule="evenodd" clip-rule="evenodd" d="M54.6211 4.85335C54.6092 5.77442 55.1584 6.22315 56.0617 6.67779L56.3983 6.84901C57.1068 7.20327 57.5732 7.42764 57.5732 8.09483C57.5732 8.20701 57.5437 8.6026 57.2485 8.91553C57.0359 9.12809 56.7407 9.22846 56.3746 9.22846C55.3119 9.21665 54.934 8.39595 54.7923 7.9118L54.7628 7.82913L54.5384 7.87046L54.5974 9.25798L54.6565 9.28751C55.0107 9.48825 55.6012 9.8248 56.4396 9.83661C57.0477 9.83661 57.6559 9.59453 58.0633 9.18713C58.4294 8.82106 58.6301 8.36643 58.6301 7.85866C58.6301 6.70141 57.8271 6.2881 56.9769 5.83937L56.8234 5.75671C55.9023 5.30208 55.5953 5.08952 55.5953 4.58175C55.5953 4.35738 55.6956 4.12711 55.861 3.96179C56.044 3.79057 56.2979 3.6961 56.599 3.6961C57.4906 3.70791 57.8684 4.34557 57.957 4.68803L57.9865 4.77069L58.2109 4.74116L58.14 3.53668L58.0987 3.50716C57.5909 3.17061 56.9533 3.12338 56.6994 3.12338C55.7075 3.12338 54.6506 3.73152 54.6329 4.85925L54.6211 4.85335Z" fill="#183964"/>
<path fill-rule="evenodd" clip-rule="evenodd" d="M45.1092 3.18832H44.2353L44.2471 3.34184H44.2589C44.3003 3.37136 44.442 3.47173 44.442 3.87913V7.62248C44.442 8.34281 44.1704 9.22256 42.9009 9.22256C41.6964 9.22256 41.4426 8.50223 41.4426 7.42764V3.17061H40.055L40.0669 3.31231H40.0787C40.1613 3.35364 40.3207 3.53668 40.3207 3.89094V7.40993C40.3207 9.60044 41.7614 9.84251 42.8537 9.84251C43.391 9.84251 45.1151 9.689 45.1151 7.62248V3.1529L45.1033 3.18242L45.1092 3.18832Z" fill="#183964"/>
<path fill-rule="evenodd" clip-rule="evenodd" d="M0.921077 4.13302C0.342452 4.77069 0 5.61501 0 6.49475C0 7.46897 0.383782 8.34872 1.07459 8.98048C1.74178 9.58863 2.61562 9.91337 3.56032 9.91337C4.05628 9.91337 5.0305 9.83071 5.96338 9.24618L6.00471 9.21665L6.1169 7.84685L5.93386 7.83504L5.90434 7.89408C5.21353 9.37607 4.13894 9.16352 3.72564 9.16352C1.9012 9.16352 1.28124 7.82323 1.28124 6.36486C1.28124 4.96553 1.9012 3.76104 3.74335 3.76104C4.31017 3.76104 5.32572 3.74924 5.86301 5.01867L5.89253 5.08952L6.06376 5.03048L5.95157 3.60163L5.91024 3.58982C5.04821 3.20604 4.3574 3.04071 3.66069 3.04071C2.54477 3.02891 1.59417 3.40678 0.921077 4.12711V4.13302Z" fill="#183964"/>
<path fill-rule="evenodd" clip-rule="evenodd" d="M76.7033 7.652C75.4752 7.45126 74.1467 7.33907 73.1666 7.5103C73.1075 7.52211 73.0662 7.48078 73.0662 7.42764C73.0662 7.09109 73.0662 5.98698 72.8005 4.61717C72.8005 4.58765 72.7887 4.57584 72.7592 4.55813C69.5472 2.30858 66.6541 0.814779 65.4673 0.247962C65.3847 0.206632 65.2961 0.318814 65.367 0.389666C68.8328 3.57211 70.0432 8.98638 70.2026 9.70671C70.2144 9.74804 70.2617 9.77757 70.303 9.77757C74.188 9.02771 78.0908 9.9606 79.1831 10.2558C79.2658 10.2853 79.3248 10.1732 79.2658 10.1141C78.4628 9.25208 77.6126 8.44319 76.7505 7.68153C76.7505 7.66972 76.7387 7.652 76.7092 7.652H76.7033Z" fill="#183964"/>
<path fill-rule="evenodd" clip-rule="evenodd" d="M79.9684 8.20111C76.845 4.01493 72.4049 0.932866 71.0056 0.017693C70.9229 -0.0413504 70.8344 0.0590233 70.8934 0.147588C71.968 1.55873 72.5171 3.18832 72.7887 4.54632C72.7887 4.57584 72.8005 4.58765 72.8182 4.60536C74.1054 5.50873 75.4221 6.53018 76.721 7.6461C76.7328 7.65791 76.7505 7.65791 76.7623 7.65791C78.1203 7.88227 79.3661 8.1952 79.8739 8.33691C79.9566 8.36643 80.0156 8.27786 79.9743 8.20701L79.9684 8.20111Z" fill="#183964"/>
</g>
<defs>
<clipPath id="clip0_801_8552">
<rect width="79.9878" height="10.2607" fill="white"/>
</clipPath>
</defs>
</svg>
