<svg width="80" height="27" viewBox="0 0 80 27" fill="none" xmlns="http://www.w3.org/2000/svg">
<g clip-path="url(#clip0_801_7575)">
<path fill-rule="evenodd" clip-rule="evenodd" d="M67.3108 18.3126V20.3464H73.9066V14.2449H69.8511V12.2111H73.9066V6.10554H67.3108V8.13937H71.8728V10.1772H67.8051V16.2787H71.8728V18.3126H67.3108ZM55.5819 13.232C55.5819 7.05763 60.5895 2.04193 66.768 2.04193C72.9464 2.04193 77.954 7.05358 77.954 13.232C77.954 19.4105 72.9464 24.4181 66.768 24.4181C60.5895 24.4181 55.5819 19.4065 55.5819 13.232ZM53.5319 13.232C53.5319 5.91917 59.4551 0 66.7639 0C74.0727 0 80 5.92322 80 13.232C80 20.5409 74.0768 26.4681 66.7639 26.4681C59.451 26.4681 53.5319 20.5449 53.5319 13.232ZM66.2818 6.10149H59.6779V12.207H63.7253V14.2449H59.6779V20.3464H66.2818V18.3126H61.7077V16.2787H65.7713V10.1732H61.7077V8.13937H66.2818V6.10149Z" fill="#CB0202"/>
<path fill-rule="evenodd" clip-rule="evenodd" d="M22.2344 14.3624V14.33H27.1447C27.5944 14.33 28.2386 14.4029 28.7572 14.7432C29.2393 15.0633 29.4865 15.5333 29.4865 16.145C29.4865 16.6312 29.3528 17.0121 29.0975 17.2754C28.6154 17.7575 27.7849 17.7575 27.1772 17.7575H22.2222V17.7292L22.2384 14.3705L22.2344 14.3624ZM22.2344 8.71873H26.7274C27.5175 8.71873 28.8423 8.71873 28.8423 10.2907C28.8423 10.866 28.5952 11.2752 28.1049 11.5061C27.6633 11.7128 27.1123 11.7371 26.7396 11.7371H22.2344V8.71873ZM27.3271 20.391C29.0287 20.391 30.317 19.9737 31.1476 19.1553C31.9984 18.3126 32.1807 17.2308 32.1807 16.4692C32.1807 14.804 31.4879 13.6453 30.1185 13.0254L30.0577 13.0011L30.1145 12.9728C30.7303 12.6486 31.5487 11.9842 31.5487 10.0071C31.5487 8.9213 31.1395 7.9449 30.3981 7.2521C29.5837 6.49448 28.3926 6.09339 26.9624 6.09339H19.5442V20.3869H27.3311L27.3271 20.391Z" fill="black"/>
<path d="M2.82791 6.08933H0V20.3869H2.82791V6.08933Z" fill="black"/>
<path fill-rule="evenodd" clip-rule="evenodd" d="M5.12104 13.1186C5.12104 14.5002 5.35197 15.6427 5.83004 16.6069C6.23114 17.4091 6.79024 18.0897 7.60458 18.738C8.86863 19.7508 10.6472 20.2654 12.8917 20.2654H16.7609V17.5671H13.1065C11.0726 17.5671 9.59789 17.0607 8.72683 16.0559C8.10696 15.3469 7.78689 14.3867 7.77879 13.2037C7.76664 11.9396 8.12317 10.9308 8.82812 10.2137C9.71134 9.31834 11.1496 8.86053 13.1065 8.86053H16.7609V6.18252H13.0254C11.7695 6.18252 10.7161 6.30811 9.80047 6.5674C8.88889 6.8267 8.13937 7.21159 7.5114 7.74638C6.62008 8.50805 5.11699 10.2137 5.11699 13.1105L5.12104 13.1186Z" fill="black"/>
<path fill-rule="evenodd" clip-rule="evenodd" d="M33.8823 13.1186C33.8823 14.4961 34.1213 15.7156 34.5913 16.7325C35.0005 17.6157 35.5961 18.3733 36.3658 18.9892C37.5529 19.9453 39.2343 20.3869 41.653 20.3869H45.7328V17.6886H41.8718C39.842 17.6886 38.3673 17.1579 37.4881 16.1167C36.8682 15.3834 36.5482 14.4029 36.5401 13.2077C36.5279 11.9072 36.8925 10.87 37.6258 10.1286C38.5131 9.22516 39.9392 8.76734 41.8677 8.76734H45.7288V6.09339H41.7826C40.5267 6.09339 39.4733 6.21898 38.5577 6.47827C37.6461 6.73757 36.8966 7.12245 36.2727 7.65319C35.5515 8.26496 33.8783 10.0233 33.8783 13.1186H33.8823Z" fill="black"/>
</g>
<defs>
<clipPath id="clip0_801_7575">
<rect width="80" height="26.4681" fill="white"/>
</clipPath>
</defs>
</svg>
