<svg width="80" height="18" viewBox="0 0 80 18" fill="none" xmlns="http://www.w3.org/2000/svg">
<g clip-path="url(#clip0_801_8023)">
<path d="M27.5085 4.71828V14.0494H25.6837V9.56016H21.896V14.0494H20.0676V4.71828H21.896V8.34605H25.6837V4.71828H27.5085Z" fill="black"/>
<path d="M32.9756 14.0494C32.9211 14.0131 32.8629 13.9367 32.7975 13.8132C32.7284 13.6859 32.6957 13.566 32.6957 13.4387C32.4195 13.7332 32.1069 13.9331 31.747 14.0385C31.3908 14.1476 31.0418 14.1985 30.6965 14.1985C30.064 14.1985 29.5369 14.0058 29.1225 13.6205C28.7045 13.2352 28.4973 12.7081 28.4973 12.0393C28.4973 11.4249 28.719 10.8906 29.1588 10.4326C29.5987 9.97455 30.2348 9.69829 31.0709 9.61105L32.5649 9.4402C32.5649 8.8695 32.4376 8.48055 32.1832 8.27335C31.9324 8.06252 31.6416 7.9571 31.3253 7.9571C30.9327 7.9571 30.562 8.04435 30.213 8.21519C29.8604 8.38968 29.5405 8.61141 29.2461 8.87677L28.9371 7.52817C29.2933 7.28099 29.6677 7.09196 30.064 6.96837C30.4602 6.84115 30.9109 6.78299 31.4307 6.78299C31.7506 6.78299 32.0814 6.82661 32.4231 6.91748C32.7648 7.00472 33.0738 7.15376 33.35 7.35732C33.6336 7.56088 33.8662 7.83351 34.0443 8.1643C34.2225 8.49509 34.3133 8.90585 34.3133 9.39658V12.301C34.3133 12.5772 34.3315 12.8717 34.3788 13.1807C34.4224 13.4933 34.5133 13.7804 34.6477 14.0458H32.9829L32.9756 14.0494ZM32.5758 10.5562L31.6816 10.6761C31.2635 10.7306 30.9255 10.8724 30.6674 11.1014C30.4093 11.3341 30.2821 11.6212 30.2821 11.9702C30.2821 12.2792 30.3693 12.53 30.5438 12.7154C30.7146 12.9008 30.9218 12.9953 31.1617 12.9953C31.3471 12.9953 31.5289 12.9698 31.7034 12.9189C31.8778 12.8644 32.0269 12.7663 32.1505 12.6245C32.285 12.4791 32.3904 12.2937 32.4667 12.0574C32.5394 11.8212 32.5794 11.5194 32.5794 11.145V10.5598L32.5758 10.5562Z" fill="black"/>
<path d="M37.3486 6.91748V7.5318C37.5885 7.29189 37.8684 7.1065 38.1919 6.97928C38.5191 6.84842 38.8535 6.78662 39.2025 6.78662C40.0567 6.78662 40.7255 7.0338 41.2199 7.5318C41.7143 8.0298 41.9578 8.70956 41.9578 9.57106V14.0494H40.213V9.82552C40.213 9.28389 40.0894 8.84405 39.8459 8.50599C39.5987 8.17157 39.257 8.00072 38.8099 8.00072C38.3991 8.00072 38.0574 8.16794 37.7775 8.50236C37.4976 8.83315 37.3559 9.2948 37.3559 9.88004V14.0531H35.6219V6.91748H37.3486Z" fill="black"/>
<path d="M47.374 14.0494C47.3231 14.0131 47.2613 13.9367 47.1923 13.8132C47.1269 13.6859 47.0941 13.566 47.0941 13.4387C46.8179 13.7332 46.5053 13.9331 46.149 14.0385C45.7928 14.1476 45.4402 14.1985 45.0949 14.1985C44.4624 14.1985 43.9389 14.0058 43.5209 13.6205C43.1065 13.2352 42.8993 12.7081 42.8993 12.0393C42.8993 11.4249 43.1174 10.8906 43.5572 10.4326C43.9971 9.97455 44.6368 9.69829 45.4693 9.61105L46.9596 9.4402C46.9596 8.8695 46.836 8.48055 46.5816 8.27335C46.3271 8.06252 46.04 7.9571 45.7201 7.9571C45.3275 7.9571 44.9567 8.04435 44.6041 8.21519C44.2552 8.38968 43.9316 8.61141 43.6372 8.87677L43.3319 7.52817C43.6881 7.28099 44.0625 7.09196 44.4551 6.96837C44.8549 6.84115 45.3093 6.78299 45.8255 6.78299C46.1454 6.78299 46.4762 6.82661 46.8142 6.91748C47.1596 7.00472 47.4685 7.15376 47.7412 7.35732C48.0247 7.56088 48.2537 7.83351 48.4355 8.1643C48.6136 8.49509 48.7008 8.90585 48.7008 9.39658V12.301C48.7008 12.5772 48.7226 12.8717 48.7662 13.1807C48.8099 13.4933 48.9007 13.7804 49.0316 14.0458H47.3668L47.374 14.0494ZM46.9742 10.5562L46.08 10.6761C45.6619 10.7306 45.3239 10.8724 45.0658 11.1014C44.8041 11.3341 44.6768 11.6212 44.6768 11.9702C44.6768 12.2792 44.7641 12.53 44.9386 12.7154C45.1094 12.9008 45.3202 12.9953 45.5565 12.9953C45.7455 12.9953 45.9236 12.9698 46.0981 12.9189C46.269 12.8644 46.4216 12.7663 46.5452 12.6245C46.6797 12.4791 46.7815 12.2937 46.8578 12.0574C46.9342 11.8212 46.9705 11.5194 46.9705 11.145V10.5598L46.9742 10.5562Z" fill="black"/>
<path d="M54.924 14.0494H51.9505V4.71828H55.1239C55.9055 4.71828 56.5525 4.91821 57.065 5.31443C57.574 5.71428 57.8284 6.23046 57.8284 6.86296C57.8284 7.49545 57.6757 7.99345 57.3631 8.35696C57.0541 8.72046 56.7124 8.97128 56.338 9.10578C56.8833 9.24027 57.3377 9.48382 57.7121 9.83642C58.0865 10.1927 58.2719 10.687 58.2719 11.3195C58.2719 12.1447 57.9847 12.8062 57.414 13.3079C56.8433 13.8059 56.0145 14.0531 54.9276 14.0531M53.7935 5.8815V8.61505H54.4733C54.9785 8.61505 55.3602 8.48055 55.6147 8.20792C55.8764 7.93529 56.0036 7.57542 56.0036 7.12104C56.0036 6.75027 55.8946 6.44856 55.6765 6.22319C55.4584 5.99782 55.1494 5.8815 54.7495 5.8815H53.7899H53.7935ZM53.7935 9.77462V12.8935H54.7532C55.2148 12.8935 55.6001 12.759 55.9055 12.49C56.2108 12.2174 56.3671 11.8284 56.3671 11.3232C56.3671 10.7634 56.1854 10.3635 55.8219 10.1309C55.4547 9.89095 55.0476 9.77462 54.5969 9.77462H53.7935Z" fill="black"/>
<path d="M63.59 14.0494C63.5391 14.0131 63.4736 13.9367 63.4082 13.8132C63.3428 13.6859 63.3101 13.566 63.3101 13.4387C63.0338 13.7332 62.7175 13.9331 62.3613 14.0385C62.0087 14.1476 61.6525 14.1985 61.3071 14.1985C60.6746 14.1985 60.1512 14.0058 59.7332 13.6205C59.3151 13.2352 59.1043 12.7081 59.1043 12.0393C59.1043 11.4249 59.3261 10.8906 59.7659 10.4326C60.2057 9.97455 60.8419 9.69829 61.6779 9.61105L63.1683 9.4402C63.1683 8.8695 63.0411 8.48055 62.7902 8.27335C62.5358 8.06252 62.2523 7.9571 61.9324 7.9571C61.5398 7.9571 61.169 8.04435 60.8164 8.21519C60.4638 8.38968 60.1439 8.61141 59.8495 8.87677L59.5442 7.52817C59.9004 7.28099 60.2748 7.09196 60.6674 6.96837C61.0672 6.84115 61.5216 6.78299 62.0378 6.78299C62.3577 6.78299 62.6885 6.82661 63.0302 6.91748C63.3718 7.00472 63.6808 7.15376 63.9571 7.35732C64.2406 7.56088 64.4696 7.83351 64.6514 8.1643C64.8295 8.49509 64.9167 8.90585 64.9167 9.39658V12.301C64.9167 12.5772 64.9386 12.8717 64.9858 13.1807C65.0294 13.4933 65.1167 13.7804 65.2512 14.0458H63.5863L63.59 14.0494ZM63.1901 10.5562L62.2959 10.6761C61.8778 10.7306 61.5434 10.8724 61.2817 11.1014C61.0236 11.3341 60.8964 11.6212 60.8964 11.9702C60.8964 12.2792 60.9836 12.53 61.1545 12.7154C61.329 12.9008 61.5398 12.9953 61.7761 12.9953C61.9615 12.9953 62.1432 12.9698 62.3177 12.9189C62.4885 12.8644 62.6376 12.7663 62.7648 12.6245C62.8993 12.4791 63.0011 12.2937 63.0774 12.0574C63.1538 11.8212 63.1901 11.5194 63.1901 11.145V10.5562Z" fill="black"/>
<path d="M67.9629 6.91748V7.5318C68.2028 7.29189 68.4827 7.1065 68.8062 6.97928C69.1298 6.84842 69.4678 6.78662 69.8131 6.78662C70.6674 6.78662 71.3399 7.0338 71.8342 7.5318C72.3286 8.0298 72.5721 8.70956 72.5721 9.57106V14.0494H70.8273V9.82552C70.8273 9.28389 70.7037 8.84405 70.4602 8.50599C70.2166 8.17157 69.8713 8.00072 69.4242 8.00072C69.0171 8.00072 68.6717 8.16794 68.3918 8.50236C68.1083 8.83315 67.9702 9.2948 67.9702 9.88004V14.0531H66.2363V6.91748H67.9629Z" fill="black"/>
<path d="M73.8008 14.0494V4.31843H75.5347V9.42203L77.803 6.91748H79.6568L76.8942 9.97092L80.0022 14.0494H78.0174L75.5347 10.8106V14.0494H73.8008Z" fill="black"/>
<path d="M12.6121 10.378C12.5685 10.1127 12.4958 9.85096 12.3868 9.61468C12.0487 8.88404 11.5761 8.26972 10.8709 7.85896C9.77316 7.21556 8.44637 7.22283 7.35949 7.88077C6.86512 8.17884 6.46164 8.60778 6.20355 9.12032C6.11267 9.2948 6.0436 9.47655 5.98544 9.66194C5.69828 10.5707 5.70918 11.7957 6.22536 12.6245C6.39257 12.8971 6.63612 13.1261 6.93419 13.2425C7.23226 13.3588 7.58486 13.3442 7.85386 13.1698C8.19919 12.948 8.26098 12.5227 8.19555 12.1447C8.11194 11.6612 8.05378 11.185 8.2319 10.7088C8.28643 10.5562 8.3664 10.4144 8.48635 10.3017C8.55905 10.2363 8.64266 10.1781 8.7299 10.1381C8.91892 10.0436 9.12976 10.0073 9.33695 10.0363C9.69682 10.0945 9.99126 10.3744 10.1512 10.7016C10.3111 11.0287 10.3548 11.3995 10.3693 11.763C10.4456 13.3515 10.0676 14.9909 9.66047 16.514C9.62049 16.6703 9.57687 16.8266 9.53325 16.9829C9.49689 17.1029 9.43873 17.2592 9.51507 17.3755C9.54778 17.4264 9.60231 17.4627 9.65684 17.4845C9.88948 17.5791 10.0858 17.4337 10.2421 17.2773C11.169 16.3431 11.7688 15.1363 12.1759 13.8968C12.3286 13.4315 12.4558 12.9626 12.5467 12.4791C12.6667 11.8248 12.7357 11.0723 12.6158 10.378" fill="#008A8B"/>
<path d="M19.2679 3.0498C19.2679 2.80989 19.0571 2.65358 18.8317 2.66085C18.599 2.67176 18.3882 2.78808 18.1774 2.86805C14.088 4.42384 9.47508 4.71828 5.16392 4.09669C4.42601 3.99128 3.68083 3.84224 2.93564 3.72592C2.47399 3.65322 2.01234 3.5478 1.54706 3.51508C1.1472 3.48237 0.652838 3.47146 0.329319 3.74773C-0.0959808 4.11487 -0.0669005 4.80916 0.176647 5.27081C0.467451 5.82334 0.972721 6.23773 1.4998 6.55034C2.01234 6.85569 2.62303 7.18284 3.23735 7.14286C4.88403 7.03744 6.52707 6.88113 8.16283 6.66667C10.9545 6.30316 13.8844 5.96147 16.5053 4.87822C17.3631 4.52563 18.2101 4.08215 18.9444 3.51145C19.0789 3.40967 19.2679 3.24609 19.2679 3.0498Z" fill="#008A8B"/>
<path d="M7.53761 1.64667C7.53761 2.53362 8.25734 3.257 9.14793 3.257C10.0385 3.257 10.7546 2.53726 10.7546 1.64667C10.7546 1.51218 10.7255 1.38132 10.671 1.26136C10.5329 0.966921 10.3802 0.828789 10.3911 0.47619C10.4129 0.00363505 9.80587 0 9.47872 0C9.12248 0 8.74444 0.0472555 8.42456 0.210832C8.1701 0.338059 7.94837 0.537986 7.79206 0.777899C7.63212 1.02508 7.54488 1.31588 7.53761 1.61032V1.64667Z" fill="#E50045"/>
</g>
<defs>
<clipPath id="clip0_801_8023">
<rect width="80.0022" height="17.5145" fill="white"/>
</clipPath>
</defs>
</svg>
