<svg width="64" height="64" viewBox="0 0 64 64" fill="none" xmlns="http://www.w3.org/2000/svg">
<g clip-path="url(#clip0_801_7194)">
<rect width="64" height="64" rx="8.31769" fill="#6936D3"/>
<g clip-path="url(#clip1_801_7194)">
<path d="M14.2672 49.0499C14.3599 48.9187 14.4361 48.8026 14.5205 48.6926C17.0501 45.3971 19.233 41.8842 21.1331 38.1928C23.6454 33.312 25.64 28.2258 27.2138 22.9705C28.0321 20.2372 28.7278 17.4736 29.3075 14.6809C29.6412 13.0725 29.9111 11.4521 30.1542 9.82761C30.1931 9.56703 30.2255 9.30552 30.2577 9.04401C30.2724 8.92514 30.3467 8.88692 30.4514 8.89741C30.8066 8.93237 31.1616 8.96919 31.5161 9.00952C32.5644 9.12838 33.6128 9.24772 34.661 9.36985C35.6012 9.4794 36.5407 9.59407 37.4807 9.70455C37.6504 9.72436 37.8214 9.73018 37.9911 9.75023C38.1657 9.77097 38.2149 9.82202 38.1965 9.98866C38.1643 10.2812 38.127 10.5737 38.0767 10.8636C37.8361 12.253 37.5816 13.6395 37.2949 15.0203C36.7812 17.4941 36.1813 19.9463 35.5049 22.3808C34.6707 25.3837 33.7196 28.3487 32.6232 31.2668C32.6069 31.3103 32.5927 31.3546 32.5756 31.398C32.3384 32.0035 32.3365 31.9497 32.9271 31.9C35.4357 31.6898 37.6529 30.7873 39.5371 29.1071C40.6139 28.1468 41.4679 27.0089 42.1576 25.7459C42.5519 25.0236 42.8936 24.2768 43.1775 23.5042C43.2043 23.4315 43.2288 23.3578 43.2596 23.287C43.3038 23.1858 43.3719 23.1604 43.4821 23.2007C43.8462 23.3338 44.214 23.4567 44.5799 23.5851C46.1751 24.1449 47.77 24.7055 49.3649 25.2658C49.4673 25.3017 49.57 25.3373 49.6707 25.3779C49.7558 25.4121 49.7833 25.4839 49.7567 25.5662C49.7043 25.7282 49.6479 25.889 49.5859 26.0477C48.7261 28.2503 47.5073 30.2398 45.9926 32.0499C44.5403 33.7854 42.892 35.309 41.0076 36.5697C40.5953 36.8456 40.1653 37.095 39.7432 37.3565C39.6772 37.3973 39.6089 37.4341 39.5443 37.4773C39.4861 37.516 39.4896 37.5994 39.5488 37.6255C39.591 37.6441 39.6355 37.6581 39.6793 37.673C41.2465 38.2063 42.4799 39.1841 43.4511 40.5075C44.4018 41.8031 44.999 43.2566 45.371 44.8107C45.7129 46.2392 45.812 47.6876 45.7565 49.1513C45.6828 51.0912 45.278 52.9595 44.5571 54.7607C44.5226 54.8469 44.4888 54.9336 44.4466 55.0161C44.417 55.0739 44.3615 55.1047 44.2946 55.1049C44.2483 55.1049 44.2019 55.101 44.1553 55.0991C43.0071 55.0506 41.859 55.0047 40.7109 54.9532C39.4234 54.8954 38.1361 54.8327 36.8488 54.7712C36.7717 54.7674 36.6936 54.7632 36.6179 54.749C36.5437 54.7353 36.5188 54.6749 36.5393 54.6096C36.5764 54.4917 36.6248 54.3773 36.6677 54.261C37.136 52.9942 37.5254 51.7055 37.7753 50.3763C37.9911 49.227 38.079 48.0677 37.9907 46.9033C37.793 44.2959 36.6551 42.1949 34.5412 40.6331C33.432 39.8136 32.2144 39.2102 30.897 38.8074C30.5262 38.6941 30.1477 38.6067 29.8025 38.4214C29.7063 38.3697 29.6216 38.3928 29.5697 38.4935C29.5128 38.6037 29.4597 38.7156 29.4058 38.8275C28.4395 40.8403 27.4902 42.8615 26.464 44.8452C25.4086 46.8856 24.2856 48.8865 22.9702 50.7742C22.1973 51.8831 21.3643 52.9441 20.439 53.9312C20.3646 54.0104 20.2919 54.0915 20.2134 54.1663C20.105 54.2698 20.0551 54.2729 19.9348 54.167C19.6316 53.9006 19.3326 53.6296 19.0326 53.3597C17.4857 51.9691 15.9388 50.5784 14.3925 49.1872C14.3583 49.1564 14.3301 49.1189 14.2672 49.0494L14.2672 49.0499Z" fill="white"/>
</g>
</g>
<defs>
<clipPath id="clip0_801_7194">
<rect width="64" height="64" fill="white"/>
</clipPath>
<clipPath id="clip1_801_7194">
<rect width="35.4994" height="46.2094" fill="white" transform="translate(14.2672 8.89526)"/>
</clipPath>
</defs>
</svg>
