<svg width="80" height="28" viewBox="0 0 80 28" fill="none" xmlns="http://www.w3.org/2000/svg">
<g clip-path="url(#clip0_801_8152)">
<path d="M54.0337 10.6903C52.7804 10.6903 51.7556 9.66546 51.7556 8.40475C51.7556 7.14404 52.773 6.11925 54.0337 6.11925C55.2944 6.11925 56.3119 7.14404 56.3119 8.40475C56.3119 9.66546 55.2944 10.6903 54.0337 10.6903ZM59.0102 3.79688H56.3192V4.40143C55.5893 3.93696 54.7268 3.67155 53.7978 3.67155C51.1953 3.67155 49.0793 5.79485 49.0793 8.40475C49.0793 11.0146 51.1879 13.1379 53.7978 13.1379C54.7268 13.1379 55.5893 12.8725 56.3192 12.4081V13.0126H59.0102V3.79688Z" fill="#333333"/>
<path d="M65.4023 3.66418C64.4733 3.66418 63.6181 3.9812 62.9398 4.51202V3.78951H60.2488V13.0126H62.9398V7.95502C62.9693 6.93023 63.8024 6.11187 64.8272 6.11187C65.852 6.11187 66.6851 6.93023 66.7146 7.94765V13.0052H69.4056V7.68224C69.4056 5.46309 67.614 3.66418 65.4023 3.66418Z" fill="#333333"/>
<path d="M76.8003 13.0126H80L75.7829 7.74859L79.366 3.78951H76.2179L73.3573 7.07031V0H70.6663V13.0126H73.3573V10.4248L74.1167 9.59174L76.8003 13.0126Z" fill="#3C3836"/>
<path d="M11.7814 1.04691H10.0194C9.74657 1.04691 9.53276 1.26808 9.53276 1.54087V12.5334C9.53276 12.8062 9.75394 13.02 10.0194 13.02H11.7814C12.0542 13.02 12.268 12.7988 12.268 12.5334V1.5335C12.268 1.26071 12.0468 1.03953 11.7814 1.03953" fill="#05C754"/>
<path d="M23.9093 1.04691H22.1473C21.8745 1.04691 21.6607 1.26808 21.6607 1.54087V8.06561L16.6399 1.26071C16.6399 1.26071 16.6178 1.22385 16.6031 1.2091C16.5957 1.20173 16.581 1.18699 16.5736 1.17961C16.5736 1.17961 16.5736 1.17961 16.5662 1.17224C16.5588 1.16487 16.5515 1.1575 16.5367 1.15012C16.5367 1.15012 16.5294 1.15012 16.522 1.14275C16.5146 1.14275 16.5072 1.12801 16.4925 1.12801C16.4925 1.12801 16.4851 1.12801 16.4777 1.12063C16.4704 1.12063 16.463 1.11326 16.4483 1.10589C16.4483 1.10589 16.4409 1.10589 16.4335 1.09852C16.4261 1.09852 16.4114 1.09114 16.404 1.08377C16.404 1.08377 16.3966 1.08377 16.3893 1.08377C16.3819 1.08377 16.3672 1.0764 16.3598 1.0764H16.345C16.3377 1.0764 16.3229 1.0764 16.3155 1.0764C16.3155 1.0764 16.3008 1.0764 16.2934 1.0764C16.2861 1.0764 16.2787 1.0764 16.2639 1.0764C16.2566 1.0764 16.2492 1.0764 16.2418 1.0764H14.465C14.1922 1.0764 13.9784 1.29758 13.9784 1.57036V12.5629C13.9784 12.8357 14.1996 13.0495 14.465 13.0495H16.2271C16.4999 13.0495 16.7137 12.8283 16.7137 12.5629V5.99391L21.7344 12.8062C21.7713 12.8578 21.8081 12.8947 21.8597 12.9241C21.8671 12.9241 21.8819 12.9389 21.8892 12.9463C21.8892 12.9463 21.8966 12.9463 21.904 12.9463C21.9113 12.9463 21.9187 12.9536 21.9261 12.961C21.9335 12.961 21.9408 12.961 21.9482 12.9684C21.9482 12.9684 21.9556 12.9684 21.963 12.9684C21.9703 12.9684 21.9851 12.9684 21.9924 12.9758C21.9924 12.9758 21.9924 12.9758 21.9998 12.9758C22.0367 12.9831 22.0809 12.9905 22.1252 12.9905H23.8872C24.16 12.9905 24.3738 12.7693 24.3738 12.5039V1.5335C24.3738 1.26071 24.1526 1.03953 23.8872 1.03953" fill="#05C754"/>
<path d="M7.52742 10.2626H2.7426V1.5335C2.7426 1.26071 2.52143 1.03953 2.25601 1.03953H0.486591C0.213805 1.03953 0 1.26071 0 1.5335V12.5187C0 12.6514 0.0516081 12.7693 0.132707 12.8578C0.132707 12.8578 0.132707 12.8578 0.132707 12.8652C0.221178 12.9463 0.339139 12.9979 0.471846 12.9979H7.52742C7.8002 12.9979 8.01401 12.7767 8.01401 12.5039V10.7345C8.01401 10.4617 7.79283 10.2405 7.52742 10.2405" fill="#05C754"/>
<path d="M33.6411 1.04691C33.9139 1.04691 34.1277 1.26809 34.1277 1.54087V3.31029C34.1277 3.58308 33.9066 3.80426 33.6411 3.80426H28.8563V5.66215H33.6411C33.9139 5.66215 34.1277 5.88333 34.1277 6.15611V7.92553C34.1277 8.19832 33.9066 8.41949 33.6411 8.41949H28.8563V10.2774H33.6411C33.9139 10.2774 34.1277 10.4986 34.1277 10.7713V12.5408C34.1277 12.8136 33.9066 13.0347 33.6411 13.0347H26.6003C26.4676 13.0347 26.3496 12.9831 26.2612 12.8947C26.2612 12.8947 26.2612 12.8947 26.2612 12.8873C26.1727 12.7988 26.1211 12.6809 26.1211 12.5481V1.54087C26.1211 1.40816 26.1727 1.2902 26.2538 1.20173C26.2538 1.20173 26.2538 1.20173 26.2612 1.19436C26.3496 1.10589 26.4676 1.05428 26.6003 1.05428H33.6411V1.04691Z" fill="#05C754"/>
<path d="M44.4346 10.5281H41.9648V8.21306H44.4346C45.0613 8.22781 45.57 8.73652 45.57 9.37056C45.57 10.0046 45.0687 10.5133 44.4346 10.5281ZM41.9648 3.53147H43.9112C44.5378 3.54621 45.0465 4.05492 45.0465 4.68897C45.0465 5.32301 44.5452 5.83172 43.9112 5.84646H41.9648V3.53147ZM45.135 13.0126C46.9266 12.9168 48.3495 11.4349 48.3495 9.61385C48.3495 8.44899 47.767 7.42419 46.8823 6.8049C47.4648 6.19297 47.8186 5.36724 47.8186 4.45304C47.8186 2.60252 46.3515 1.10589 44.5305 1.04691H39.2738V13.0126H45.1424H45.135Z" fill="#333333"/>
<path d="M1.00267 23.2458C1.00267 23.3047 1.00267 23.3711 1.01742 23.4301C1.09852 23.7471 1.3713 23.9683 1.6957 23.9683C2.17491 23.9683 2.46982 23.5849 2.46982 22.9656C2.46982 22.4274 2.21178 21.9851 1.70307 21.9851C1.39342 21.9851 1.10589 22.2136 1.02479 22.5527C1.01004 22.6117 1.00267 22.6781 1.00267 22.7518V23.2458ZM0.235922 20.0461H1.00267V21.8745H1.01742C1.20173 21.5796 1.5335 21.3879 1.9906 21.3879C2.73523 21.3879 3.26606 22.0072 3.25868 22.9361C3.25868 24.0346 2.56566 24.5802 1.88001 24.5802C1.48926 24.5802 1.13538 24.4328 0.914201 24.0568H0.899455L0.862592 24.5139H0.206432C0.221177 24.3074 0.228549 23.9683 0.228549 23.6586V20.0534L0.235922 20.0461Z" fill="#808282"/>
<path d="M4.32771 21.4542L4.87328 23.0909C4.93226 23.2826 5.00599 23.5112 5.05023 23.6807H5.07234C5.11658 23.5112 5.16819 23.2826 5.23454 23.0836L5.70639 21.4542H6.52474L5.76537 23.5407C5.34513 24.6834 5.06497 25.1921 4.71109 25.5018C4.40144 25.7672 4.09179 25.863 3.90747 25.8925L3.73053 25.2437C3.86324 25.2143 4.01806 25.1405 4.17289 25.0299C4.32034 24.9341 4.48991 24.7571 4.6005 24.5433C4.62261 24.4844 4.64473 24.4401 4.64473 24.4033C4.64473 24.3738 4.64473 24.3295 4.60787 24.2558L3.48724 21.4542H4.33508H4.32771Z" fill="#808282"/>
<path d="M23.1205 20.5474V25.3764H22.1768V23.0541H20.223V25.3764H19.2867V20.5474H20.223V22.4274H22.1768V20.5474H23.1205Z" fill="#241F21"/>
<path d="M25.9368 25.3764C25.9368 25.3764 25.8778 25.3175 25.8483 25.2511C25.8114 25.1848 25.7967 25.1258 25.7967 25.0594C25.6566 25.2142 25.4944 25.3175 25.3101 25.3691C25.1258 25.4281 24.9489 25.4502 24.7645 25.4502C24.4401 25.4502 24.1674 25.3543 23.9536 25.1479C23.7397 24.9488 23.6292 24.6761 23.6292 24.3295C23.6292 24.0125 23.7397 23.7324 23.9683 23.4964C24.1968 23.2605 24.5212 23.1204 24.9562 23.0762L25.723 22.9877C25.723 22.6928 25.6566 22.4938 25.5239 22.3832C25.3912 22.2726 25.2438 22.221 25.0816 22.221C24.8825 22.221 24.6908 22.2652 24.5065 22.3537C24.3296 22.4422 24.16 22.5601 24.0125 22.6928L23.8503 21.9924C24.0346 21.8671 24.2263 21.7639 24.4328 21.7049C24.6392 21.6385 24.8678 21.6091 25.1405 21.6091C25.3027 21.6091 25.4723 21.6312 25.6566 21.6754C25.8336 21.7196 25.9884 21.8007 26.1358 21.904C26.2833 22.0072 26.4013 22.1473 26.4897 22.3242C26.5782 22.4938 26.6298 22.7076 26.6298 22.9582V24.4622C26.6298 24.6023 26.6445 24.7571 26.6667 24.9193C26.6888 25.0815 26.7404 25.229 26.8067 25.3691H25.9515L25.9368 25.3764ZM25.7303 23.5702L25.2659 23.6291C25.0521 23.6586 24.8751 23.7324 24.7424 23.8503C24.6097 23.9683 24.5434 24.1157 24.5434 24.3C24.5434 24.4622 24.5876 24.5876 24.6761 24.6834C24.7645 24.7793 24.8678 24.8309 24.9931 24.8309C25.0889 24.8309 25.1848 24.8161 25.2732 24.794C25.3617 24.7645 25.4354 24.7129 25.5018 24.6392C25.5681 24.5655 25.6271 24.4696 25.664 24.3443C25.7009 24.2263 25.723 24.0641 25.723 23.8724V23.5702H25.7303Z" fill="#241F21"/>
<path d="M28.1854 21.6828V21.9998C28.3108 21.8745 28.4508 21.7786 28.6204 21.7123C28.79 21.6459 28.9595 21.6091 29.1365 21.6091C29.5788 21.6091 29.9254 21.7344 30.176 21.9924C30.4341 22.2505 30.5594 22.6044 30.5594 23.0467V25.3617H29.6599V23.172C29.6599 22.8919 29.5936 22.6633 29.4683 22.4864C29.3429 22.3094 29.166 22.2283 28.9374 22.2283C28.7236 22.2283 28.5467 22.3168 28.4066 22.4864C28.2591 22.656 28.1854 22.8993 28.1854 23.2015V25.3617H27.2933V21.6754H28.178L28.1854 21.6828Z" fill="#241F21"/>
<path d="M33.3536 25.3764C33.3536 25.3764 33.2946 25.3175 33.2651 25.2511C33.2283 25.1848 33.2135 25.1258 33.2135 25.0594C33.0734 25.2142 32.9113 25.3175 32.7269 25.3691C32.5426 25.4281 32.3657 25.4502 32.1814 25.4502C31.857 25.4502 31.5842 25.3543 31.3704 25.1479C31.1566 24.9488 31.0534 24.6761 31.0534 24.3295C31.0534 24.0125 31.1639 23.7324 31.3925 23.4964C31.621 23.2605 31.9454 23.1204 32.3804 23.0762L33.1472 22.9877C33.1472 22.6928 33.0808 22.4938 32.9555 22.3832C32.8228 22.2726 32.6753 22.221 32.5131 22.221C32.3141 22.221 32.1224 22.2652 31.9381 22.3537C31.7611 22.4422 31.5916 22.5601 31.4441 22.6928L31.2893 21.9924C31.4736 21.8671 31.6653 21.7639 31.8717 21.7049C32.0782 21.6385 32.3141 21.6091 32.5795 21.6091C32.7417 21.6091 32.9113 21.6312 33.0882 21.6754C33.2651 21.7196 33.4273 21.8007 33.5674 21.904C33.7149 22.0072 33.8328 22.1473 33.9287 22.3242C34.0171 22.4938 34.0687 22.7076 34.0687 22.9582V24.4622C34.0687 24.6023 34.0835 24.7571 34.1056 24.9193C34.1277 25.0815 34.172 25.229 34.2457 25.3691H33.3831L33.3536 25.3764ZM33.1472 23.5702L32.6901 23.6291C32.4763 23.6586 32.2993 23.7324 32.1666 23.8503C32.0339 23.9683 31.9676 24.1157 31.9676 24.3C31.9676 24.4622 32.0118 24.5876 32.1003 24.6834C32.1887 24.7793 32.2993 24.8309 32.4173 24.8309C32.5131 24.8309 32.609 24.8161 32.6974 24.794C32.7859 24.7645 32.8596 24.7129 32.926 24.6392C32.9924 24.5655 33.044 24.4696 33.0882 24.3443C33.1251 24.2263 33.1472 24.0641 33.1472 23.8724V23.5702Z" fill="#241F21"/>
<path d="M37.2463 25.3764H35.7128V20.5474H37.3496C37.7477 20.5474 38.0868 20.6506 38.3522 20.857C38.6176 21.0635 38.743 21.3289 38.743 21.6607C38.743 21.9924 38.6619 22.2431 38.507 22.4348C38.3448 22.6265 38.1679 22.7518 37.9762 22.8182C38.2564 22.8845 38.4923 23.0098 38.684 23.1942C38.8757 23.3785 38.9715 23.6365 38.9715 23.9609C38.9715 24.3885 38.8241 24.7277 38.5292 24.9857C38.2343 25.2437 37.8067 25.3691 37.2463 25.3691M36.6639 21.1446V22.5601H37.0178C37.2758 22.5601 37.4749 22.4864 37.6076 22.3463C37.7403 22.2062 37.8067 22.0145 37.8067 21.786C37.8067 21.5943 37.7477 21.4395 37.6371 21.3215C37.5265 21.2036 37.3643 21.1446 37.1579 21.1446H36.6639ZM36.6639 23.1573V24.7719H37.1579C37.3938 24.7719 37.5928 24.7055 37.7477 24.5655C37.9025 24.4254 37.9836 24.2263 37.9836 23.9609C37.9836 23.6734 37.8877 23.4669 37.7034 23.3416C37.5117 23.2163 37.3053 23.1573 37.0694 23.1573H36.6565H36.6639Z" fill="#241F21"/>
<path d="M41.7141 25.3764C41.7141 25.3764 41.6551 25.3175 41.6183 25.2511C41.5814 25.1848 41.5667 25.1258 41.5667 25.0594C41.4266 25.2142 41.2644 25.3175 41.0801 25.3691C40.8958 25.4281 40.7188 25.4502 40.5345 25.4502C40.2101 25.4502 39.9373 25.3543 39.7235 25.1479C39.5097 24.9488 39.3991 24.6761 39.3991 24.3295C39.3991 24.0125 39.5171 23.7324 39.7383 23.4964C39.9668 23.2605 40.2912 23.1204 40.7262 23.0762L41.493 22.9877C41.493 22.6928 41.4266 22.4938 41.2939 22.3832C41.1686 22.2726 41.0137 22.221 40.8515 22.221C40.6525 22.221 40.4608 22.2652 40.2765 22.3537C40.0922 22.4422 39.93 22.5601 39.7825 22.6928L39.6277 21.9924C39.812 21.8671 40.0037 21.7639 40.2101 21.7049C40.4165 21.6385 40.6525 21.6091 40.9179 21.6091C41.0801 21.6091 41.2497 21.6312 41.4266 21.6754C41.6035 21.7196 41.7584 21.8007 41.9058 21.904C42.0533 22.0072 42.1712 22.1473 42.2597 22.3242C42.3482 22.4938 42.3924 22.7076 42.3924 22.9582V24.4622C42.3924 24.6023 42.4072 24.7571 42.4293 24.9193C42.4514 25.0815 42.4956 25.229 42.562 25.3691H41.7068L41.7141 25.3764ZM41.5077 23.5702L41.0506 23.6291C40.8368 23.6586 40.6598 23.7324 40.5271 23.8503C40.3944 23.9683 40.3281 24.1157 40.3281 24.3C40.3281 24.4622 40.3723 24.5876 40.4608 24.6834C40.5493 24.7793 40.6598 24.8309 40.7778 24.8309C40.8737 24.8309 40.9695 24.8161 41.058 24.794C41.1464 24.7645 41.2275 24.7129 41.2865 24.6392C41.3529 24.5655 41.4119 24.4696 41.4487 24.3443C41.4856 24.2263 41.5077 24.0641 41.5077 23.8724V23.5702Z" fill="#241F21"/>
<path d="M43.9628 21.6828V21.9998C44.0881 21.8745 44.2282 21.7786 44.3978 21.7123C44.5673 21.6459 44.7369 21.6091 44.9212 21.6091C45.3636 21.6091 45.7101 21.7344 45.9607 21.9924C46.2188 22.2505 46.3441 22.6044 46.3441 23.0467V25.3617H45.4447V23.172C45.4447 22.8919 45.3783 22.6633 45.253 22.4864C45.1276 22.3094 44.9507 22.2283 44.7221 22.2283C44.5083 22.2283 44.3388 22.3168 44.1913 22.4864C44.0439 22.656 43.9775 22.8993 43.9775 23.2015V25.3617H43.0854V21.6754H43.9701L43.9628 21.6828Z" fill="#241F21"/>
<path d="M46.9708 25.3764V20.341H47.8702V22.9804L49.0351 21.6828H49.9935L48.5706 23.2679L50.1705 25.3764H49.1457L47.8702 23.7029V25.3764H46.9708Z" fill="#241F21"/>
<path d="M15.4382 23.4743C15.4161 23.3342 15.3792 23.2015 15.3202 23.0762C15.1433 22.7002 14.9074 22.3832 14.5388 22.1694C13.9711 21.8376 13.2854 21.8376 12.7251 22.1841C12.4744 22.3389 12.2606 22.5601 12.1279 22.8255C12.0837 22.914 12.0468 23.0098 12.0173 23.1057C11.8699 23.5775 11.8772 24.2116 12.1427 24.6392C12.2311 24.7793 12.3565 24.8972 12.5039 24.9562C12.6587 25.0152 12.8431 25.0078 12.9758 24.9193C13.1527 24.8014 13.1822 24.5876 13.1527 24.3885C13.1085 24.1379 13.079 23.8946 13.1675 23.6439C13.1969 23.5628 13.2412 23.4891 13.3002 23.4301C13.337 23.3932 13.3813 23.3637 13.4255 23.3416C13.5213 23.29 13.6319 23.2753 13.7351 23.29C13.9195 23.3195 14.0743 23.4669 14.1554 23.6365C14.2365 23.8061 14.2586 23.9978 14.266 24.1821C14.3028 25.0004 14.1111 25.8483 13.8973 26.6372C13.8752 26.7183 13.8531 26.7994 13.831 26.8805C13.8162 26.9394 13.7794 27.0205 13.8236 27.0795C13.8384 27.109 13.8678 27.1237 13.8973 27.1385C14.0153 27.1901 14.1185 27.1164 14.1996 27.0279C14.6788 26.5413 14.9885 25.922 15.1949 25.2806C15.276 25.0373 15.3424 24.8014 15.3866 24.5507C15.4456 24.2116 15.4824 23.8208 15.4235 23.4669" fill="#008375"/>
<path d="M18.8738 19.6848C18.8738 19.5595 18.7632 19.4784 18.6527 19.4857C18.5347 19.4857 18.4241 19.5521 18.3135 19.589C16.205 20.3926 13.831 20.5474 11.6045 20.223C11.2285 20.164 10.8377 20.0903 10.4543 20.0313C10.2184 19.9945 9.98249 19.9428 9.73919 19.9207C9.53276 19.906 9.27472 19.8986 9.11252 20.0387C8.89134 20.2304 8.90609 20.5843 9.03142 20.8276C9.17888 21.1151 9.44429 21.3289 9.7097 21.4911C9.97512 21.6533 10.2921 21.8229 10.6018 21.8007C11.4496 21.7418 12.2975 21.6607 13.138 21.5501C14.5756 21.3658 16.087 21.1888 17.4362 20.6211C17.8785 20.4368 18.3135 20.2083 18.6895 19.9134C18.7632 19.8617 18.8591 19.7733 18.8591 19.6774" fill="#008375"/>
<path d="M12.8283 18.9623C12.8283 19.4194 13.1969 19.7954 13.654 19.7954C14.1111 19.7954 14.4798 19.4194 14.4798 18.9623C14.4798 18.8959 14.465 18.8222 14.4355 18.7632C14.3618 18.6084 14.2881 18.5421 14.2881 18.3577C14.2955 18.1144 13.9858 18.1071 13.8162 18.1071C13.6319 18.1071 13.4402 18.1292 13.2707 18.2177C13.138 18.284 13.0274 18.3872 12.9463 18.5126C12.8652 18.6379 12.8209 18.7927 12.8136 18.9402V18.9623" fill="#D50037"/>
</g>
<defs>
<clipPath id="clip0_801_8152">
<rect width="80" height="27.1556" fill="white"/>
</clipPath>
</defs>
</svg>
