<svg width="48" height="59" viewBox="0 0 48 59" fill="none" xmlns="http://www.w3.org/2000/svg">
<g clip-path="url(#clip0_801_7990)">
<g clip-path="url(#clip1_801_7990)">
<path d="M47.062 17.0419C47.062 5.42785 35.691 -2.77915 24.669 0.879854L0 9.06785V26.7608C0 26.9438 0.005 27.1248 0.012 27.3048L24.669 19.1209C32.503 16.5209 40.512 19.9149 44.49 26.2648C46.135 23.5458 47.062 20.3749 47.062 17.0419Z" fill="#00D200"/>
<path d="M34.853 33.958L17.81 39.615C9.217 42.467 0.359 36.252 0.012 27.305L0 27.309V45.002C0 54.239 9.043 60.766 17.81 57.856L34.853 52.199C42.142 49.78 47.062 42.963 47.062 35.283C47.062 31.923 46.109 28.85 44.49 26.265C42.345 29.811 38.979 32.589 34.854 33.958H34.853Z" fill="#008BEC"/>
<path d="M24.669 19.1209L0.0119934 27.3049C0.358994 36.2519 9.217 42.4669 17.81 39.6149L34.853 33.9579C38.978 32.5889 42.344 29.8109 44.489 26.2649C40.51 19.9149 32.502 16.5209 24.668 19.1209H24.669Z" fill="#1A4FE3"/>
</g>
</g>
<defs>
<clipPath id="clip0_801_7990">
<rect width="47.062" height="58.555" fill="white"/>
</clipPath>
<clipPath id="clip1_801_7990">
<rect width="47.062" height="58.555" fill="white"/>
</clipPath>
</defs>
</svg>
