<svg width="80" height="24" viewBox="0 0 80 24" fill="none" xmlns="http://www.w3.org/2000/svg">
<g clip-path="url(#clip0_801_7557)">
<g clip-path="url(#clip1_801_7557)">
<path fill-rule="evenodd" clip-rule="evenodd" d="M19.6827 8.00644V13.5031C19.6827 13.5031 17.569 10.3061 17.2537 9.76859C16.7081 9.03302 16.0412 8.00644 14.8974 8.00644H12.529V15.8027H14.8974V10.3102C14.8974 10.3102 17.0112 13.5071 17.3265 14.0446C17.868 14.7802 18.4783 15.8068 19.6787 15.8068H22.0309V8.01049H19.6787L19.6827 8.00644ZM7.34364 9.19873C6.83035 10.4072 5.91694 12.9696 5.91694 12.9696L4.80146 9.72009C4.80146 9.72009 4.21946 8.0024 2.36435 8.0024H0V15.7987H2.36435V10.387C2.36435 10.387 2.64727 10.4435 3.19289 11.9874C3.73851 13.5314 4.54683 15.8149 4.54683 15.8149H6.13923C6.13923 15.8149 7.28302 15.7421 7.94988 13.9234L8.80671 11.5833C8.80671 11.5833 9.23512 10.3102 9.6312 10.1525V15.7947H11.9753V7.99836H9.6312C9.6312 7.99836 7.84884 7.98624 7.33556 9.19064L7.34364 9.19873ZM30.676 13.7981L30.6598 13.7819H27.0142C25.9836 13.7819 25.147 12.9494 25.147 11.9228C25.147 10.8962 25.9836 10.0636 27.0142 10.0636H30.5143C30.8093 9.73626 31.1246 9.48164 31.3428 9.25935L32.6119 8.00644H26.5171C24.3427 8.00644 22.5846 9.76051 22.5846 11.9228C22.5846 14.0851 24.3468 15.8391 26.5171 15.8391H32.6887L30.6719 13.7981H30.676ZM56.2999 10.3789C56.4939 10.1606 56.7202 9.9828 56.9829 9.84539C57.3426 9.66351 57.7347 9.58268 58.1348 9.58268C58.9269 9.58268 59.6059 9.85347 60.1273 10.4557C60.6851 11.1023 60.875 11.9309 60.875 12.7675C60.875 13.6041 60.6891 14.4084 60.1354 15.047C59.614 15.6492 58.935 15.9078 58.1469 15.9078C57.7549 15.9078 57.3588 15.8432 56.9991 15.6775C56.7364 15.5562 56.502 15.3824 56.2999 15.1763V15.73H55.1036V7.60632H56.2999V10.3708V10.3789ZM65.6158 15.0955C65.3572 15.3299 65.0662 15.5239 64.7469 15.6694C64.3751 15.8351 63.9871 15.9159 63.5789 15.9159C63.0373 15.9159 62.4917 15.7987 62.0754 15.4309C61.6793 15.0793 61.5257 14.6064 61.5257 14.0851C61.5257 13.5637 61.6793 13.1151 62.0673 12.7756C62.4957 12.3997 63.1181 12.2461 63.6678 12.1774C63.9062 12.1532 64.1447 12.1249 64.3831 12.1006C64.5933 12.0804 65.1026 12.04 65.2966 11.9632C65.3572 11.943 65.438 11.9026 65.4703 11.8419C65.5108 11.7652 65.5148 11.5227 65.5148 11.4378C65.5148 11.1953 65.4299 10.9972 65.2238 10.8639C64.9651 10.6941 64.5691 10.6618 64.2659 10.6618C63.9386 10.6618 63.5425 10.7063 63.2717 10.9083C63.0413 11.0862 62.9565 11.3367 62.9565 11.6237V11.7288H61.7965V11.5792C61.7965 10.9892 62.0067 10.488 62.4755 10.1202C62.9888 9.71201 63.6557 9.59076 64.2983 9.59076C64.9005 9.59076 65.6401 9.66755 66.1332 10.0434C66.5939 10.391 66.7435 10.9245 66.7435 11.4822V14.3599C66.7435 14.4488 66.7475 14.6994 66.8041 14.7721C66.8526 14.8328 66.9577 14.8408 67.0264 14.8408C67.0587 14.8408 67.091 14.8408 67.1234 14.8328C67.1719 14.8247 67.2244 14.8166 67.2729 14.8085L67.3982 14.7843V15.7381L67.3214 15.7583C67.2123 15.7866 67.0991 15.8108 66.986 15.827C66.897 15.8391 66.8041 15.8472 66.7111 15.8472C66.4282 15.8472 66.113 15.7987 65.8907 15.6128C65.729 15.4754 65.6441 15.2935 65.6158 15.0955ZM69.2937 10.4112C69.4837 10.197 69.7019 10.0151 69.9646 9.88176C70.3243 9.69989 70.7164 9.62714 71.1165 9.62714C71.5166 9.62714 71.9289 9.67564 72.2967 9.83326C72.6119 9.96663 72.8746 10.1728 73.0605 10.4597C73.1656 10.6214 73.2384 10.7992 73.2788 10.9851C73.3394 11.264 73.3434 11.6156 73.3434 11.9026V15.7381H72.1148V12.0925C72.1148 11.7692 72.0865 11.2478 71.8682 10.9851C71.6662 10.7467 71.3105 10.6982 71.0195 10.6982C70.5668 10.6982 70.1142 10.7992 69.7787 11.1266C69.4473 11.454 69.3422 11.9026 69.3422 12.3552V15.7381H68.1257V9.77264H69.3018V10.4112H69.2937ZM75.8614 12.2178L78.4238 9.77264H80L77.6235 11.9996L79.8828 15.7381H78.5006L76.7829 12.816L75.8533 13.6728V15.7381H74.6368V7.61441H75.8533V12.2178H75.8614ZM56.2635 12.7149C56.2635 13.2606 56.3524 13.8668 56.7 14.3073C57.0072 14.6994 57.4396 14.8489 57.9287 14.8489C58.4177 14.8489 58.838 14.6953 59.1573 14.3195C59.5049 13.9072 59.61 13.3656 59.61 12.8402C59.61 12.2865 59.517 11.6722 59.1694 11.2195C58.8623 10.8235 58.4379 10.6658 57.9408 10.6658C57.4437 10.6658 56.9991 10.7871 56.6838 11.167C56.3403 11.5833 56.2635 12.1936 56.2635 12.7149ZM65.5067 12.8685C65.1268 13.0181 64.6135 13.0908 64.2417 13.1353C64.0679 13.1555 63.8941 13.1797 63.7244 13.204C63.4859 13.2404 63.1747 13.3171 62.9888 13.4869C62.8271 13.6364 62.7827 13.8547 62.7827 14.0689C62.7827 14.2952 62.8473 14.5013 63.0252 14.6468C63.2232 14.8125 63.5102 14.853 63.7607 14.853C64.2134 14.853 64.662 14.76 65.0298 14.4811C65.337 14.2467 65.5108 13.9476 65.5108 13.5596V12.8645L65.5067 12.8685Z" fill="url(#paint0_linear_801_7557)"/>
<path fill-rule="evenodd" clip-rule="evenodd" d="M45.4644 1.79854C45.0077 1.45904 44.656 1.01851 44.2357 0.662843C43.2738 -0.234398 41.7784 -0.218232 40.8529 0.707301L40.8125 0.747718C40.6953 0.844717 40.578 0.949799 40.4608 1.05892L37.0012 4.49027L36.981 4.57514C36.7142 5.87654 37.567 6.83037 37.567 6.83037L39.4949 8.80673L42.5746 11.9107L43.6254 10.8558L45.8766 8.62485L47.5781 6.96374L47.6913 6.87079C47.7317 6.83845 47.7883 6.78995 47.8691 6.73741C48.3299 6.42216 48.7947 6.30496 49.1786 6.27262C49.4818 6.24837 49.7283 6.27667 49.8859 6.309C49.9546 6.32112 50.0072 6.33729 50.0355 6.34537H50.0516L50.0597 6.35346L45.4644 1.79854Z" fill="url(#paint1_linear_801_7557)"/>
<path fill-rule="evenodd" clip-rule="evenodd" d="M45.4644 1.79854C45.0077 1.45904 44.656 1.01851 44.2357 0.662843C43.2738 -0.234398 41.7784 -0.218232 40.8529 0.707301L40.8125 0.747718C40.6953 0.844717 40.578 0.949799 40.4608 1.05892L37.0012 4.49027L36.981 4.57514C36.7142 5.87654 37.567 6.83037 37.567 6.83037L39.4949 8.80673L42.5746 11.9107L43.6254 10.8558L45.8766 8.62485L47.5781 6.96374L47.6913 6.87079C47.7317 6.83845 47.7883 6.78995 47.8691 6.73741C48.3299 6.42216 48.7947 6.30496 49.1786 6.27262C49.4818 6.24837 49.7283 6.27667 49.8859 6.309C49.9546 6.32112 50.0072 6.33729 50.0355 6.34537H50.0516L50.0597 6.35346L45.4644 1.79854Z" fill="url(#paint2_linear_801_7557)"/>
<path fill-rule="evenodd" clip-rule="evenodd" d="M39.6888 22.0228C40.1455 22.3623 40.4972 22.8028 40.9175 23.1585C41.8794 24.0557 43.3748 24.0396 44.3003 23.114L44.3408 23.0736C44.458 22.9766 44.5752 22.8715 44.6924 22.7624L48.152 19.3311L48.1722 19.2462C48.439 17.9448 47.5862 16.991 47.5862 16.991L45.6583 15.0146L42.5786 11.9106L41.5278 12.9655L39.2766 15.1965L37.5751 16.8576L37.4619 16.9506C37.4215 16.9829 37.3649 17.0314 37.2841 17.0839C36.8233 17.3992 36.3585 17.5164 35.9746 17.5487C35.6715 17.573 35.4249 17.5447 35.2673 17.5123C35.1986 17.5002 35.146 17.4841 35.1178 17.476H35.1016L35.0935 17.4679L39.6888 22.0228Z" fill="url(#paint3_linear_801_7557)"/>
<path fill-rule="evenodd" clip-rule="evenodd" d="M39.6888 22.0228C40.1455 22.3623 40.4972 22.8028 40.9175 23.1585C41.8794 24.0557 43.3748 24.0396 44.3003 23.114L44.3408 23.0736C44.458 22.9766 44.5752 22.8715 44.6924 22.7624L48.152 19.3311L48.1722 19.2462C48.439 17.9448 47.5862 16.991 47.5862 16.991L45.6583 15.0146L42.5786 11.9106L41.5278 12.9655L39.2766 15.1965L37.5751 16.8576L37.4619 16.9506C37.4215 16.9829 37.3649 17.0314 37.2841 17.0839C36.8233 17.3992 36.3585 17.5164 35.9746 17.5487C35.6715 17.573 35.4249 17.5447 35.2673 17.5123C35.1986 17.5002 35.146 17.4841 35.1178 17.476H35.1016L35.0935 17.4679L39.6888 22.0228Z" fill="url(#paint4_linear_801_7557)"/>
<path fill-rule="evenodd" clip-rule="evenodd" d="M32.4624 9.02087C32.1229 9.47757 31.6823 9.8292 31.3267 10.2495C30.4294 11.2114 30.4456 12.7068 31.3711 13.6324L31.4115 13.6728C31.5085 13.79 31.6136 13.9072 31.7227 14.0244L35.1541 17.484L35.239 17.5042C36.5404 17.771 37.4942 16.9182 37.4942 16.9182L39.4705 14.9904L42.5745 11.9106L41.5196 10.8598L39.2887 8.60862L37.6276 6.9071L37.5346 6.79393C37.5023 6.75352 37.4538 6.69693 37.4012 6.6161C37.086 6.15535 36.9688 5.69057 36.9364 5.30661C36.9122 5.00349 36.9405 4.75695 36.9728 4.59933C36.9849 4.53062 37.0011 4.47808 37.0092 4.44979V4.43362L37.0173 4.42554L32.4624 9.02087Z" fill="url(#paint5_linear_801_7557)"/>
<path fill-rule="evenodd" clip-rule="evenodd" d="M32.4624 9.02087C32.1229 9.47757 31.6823 9.8292 31.3267 10.2495C30.4294 11.2114 30.4456 12.7068 31.3711 13.6324L31.4115 13.6728C31.5085 13.79 31.6136 13.9072 31.7227 14.0244L35.1541 17.484L35.239 17.5042C36.5404 17.771 37.4942 16.9182 37.4942 16.9182L39.4705 14.9904L42.5745 11.9106L41.5196 10.8598L39.2887 8.60862L37.6276 6.9071L37.5346 6.79393C37.5023 6.75352 37.4538 6.69693 37.4012 6.6161C37.086 6.15535 36.9688 5.69057 36.9364 5.30661C36.9122 5.00349 36.9405 4.75695 36.9728 4.59933C36.9849 4.53062 37.0011 4.47808 37.0092 4.44979V4.43362L37.0173 4.42554L32.4624 9.02087Z" fill="url(#paint6_linear_801_7557)"/>
<path fill-rule="evenodd" clip-rule="evenodd" d="M52.6908 14.7964C53.0303 14.3397 53.4708 13.9881 53.8265 13.5678C54.7237 12.6058 54.7075 11.1104 53.782 10.1849L53.7416 10.1445C53.6446 10.0273 53.5395 9.91008 53.4304 9.79287L49.999 6.33324L49.9142 6.31303C48.6128 6.04628 47.6589 6.89906 47.6589 6.89906L45.6826 8.82692L42.5786 11.9066L43.6335 12.9575L45.8645 15.2087L47.5256 16.9102L47.6185 17.0233C47.6509 17.0638 47.6994 17.1203 47.7519 17.2012C48.0671 17.6619 48.1844 18.1267 48.2167 18.5107C48.2409 18.8138 48.2126 19.0603 48.1803 19.2179C48.1682 19.2867 48.152 19.3392 48.1439 19.3675V19.3837L48.1359 19.3917L52.6908 14.7964Z" fill="url(#paint7_linear_801_7557)"/>
<path fill-rule="evenodd" clip-rule="evenodd" d="M52.6908 14.7964C53.0303 14.3397 53.4708 13.9881 53.8265 13.5678C54.7237 12.6058 54.7075 11.1104 53.782 10.1849L53.7416 10.1445C53.6446 10.0273 53.5395 9.91008 53.4304 9.79287L49.999 6.33324L49.9142 6.31303C48.6128 6.04628 47.6589 6.89906 47.6589 6.89906L45.6826 8.82692L42.5786 11.9066L43.6335 12.9575L45.8645 15.2087L47.5256 16.9102L47.6185 17.0233C47.6509 17.0638 47.6994 17.1203 47.7519 17.2012C48.0671 17.6619 48.1844 18.1267 48.2167 18.5107C48.2409 18.8138 48.2126 19.0603 48.1803 19.2179C48.1682 19.2867 48.152 19.3392 48.1439 19.3675V19.3837L48.1359 19.3917L52.6908 14.7964Z" fill="url(#paint8_linear_801_7557)"/>
<path fill-rule="evenodd" clip-rule="evenodd" d="M36.6132 12.0076C36.6132 13.6404 37.28 15.1156 38.3592 16.1867C39.4383 17.2577 40.9256 17.9205 42.5746 17.9205C44.2236 17.9205 45.7109 17.2577 46.79 16.1867C47.8691 15.1156 48.536 13.6445 48.536 12.0076C48.536 10.3708 47.8691 8.89962 46.79 7.82454C45.7109 6.75351 44.2195 6.09473 42.5746 6.09473C40.9296 6.09473 39.4423 6.75755 38.3592 7.82454C37.28 8.89558 36.6132 10.3708 36.6132 12.0076ZM36.1646 12.0076C36.1646 8.49545 39.0341 5.65015 42.5746 5.65015C46.115 5.65015 48.9886 8.49545 48.9886 12.0076C48.9886 15.5198 46.1191 18.3651 42.5746 18.3651C39.0301 18.3651 36.1646 15.5198 36.1646 12.0076Z" fill="white"/>
<path fill-rule="evenodd" clip-rule="evenodd" d="M42.5382 13.2686C43.1808 13.2686 43.7062 12.7432 43.7062 12.1006C43.7062 11.458 43.1808 10.9326 42.5382 10.9326C41.8956 10.9326 41.3702 11.458 41.3702 12.1006C41.3702 12.7432 41.8956 13.2686 42.5382 13.2686Z" fill="white"/>
</g>
</g>
<defs>
<linearGradient id="paint0_linear_801_7557" x1="40.1051" y1="15.2773" x2="39.7575" y2="6.97987" gradientUnits="userSpaceOnUse">
<stop stop-color="#B08C35"/>
<stop offset="1" stop-color="#71522C"/>
</linearGradient>
<linearGradient id="paint1_linear_801_7557" x1="41.8997" y1="6.15138" x2="39.9435" y2="7.19412" gradientUnits="userSpaceOnUse">
<stop stop-color="#B08C35"/>
<stop offset="1" stop-color="#78572D"/>
</linearGradient>
<linearGradient id="paint2_linear_801_7557" x1="46.0504" y1="5.95738" x2="40.0728" y2="5.95334" gradientUnits="userSpaceOnUse">
<stop stop-color="#B08C35"/>
<stop offset="0.58" stop-color="#FDDB8F" stop-opacity="0.61"/>
<stop offset="1" stop-color="#B08C35" stop-opacity="0"/>
</linearGradient>
<linearGradient id="paint3_linear_801_7557" x1="43.2536" y1="17.67" x2="45.2097" y2="16.6272" gradientUnits="userSpaceOnUse">
<stop stop-color="#B08C35"/>
<stop offset="1" stop-color="#78572D"/>
</linearGradient>
<linearGradient id="paint4_linear_801_7557" x1="39.0988" y1="17.864" x2="45.0804" y2="17.864" gradientUnits="userSpaceOnUse">
<stop stop-color="#B08C35"/>
<stop offset="0.58" stop-color="#FDDB8F" stop-opacity="0.61"/>
<stop offset="1" stop-color="#B08C35" stop-opacity="0"/>
</linearGradient>
<linearGradient id="paint5_linear_801_7557" x1="36.8152" y1="12.5856" x2="37.8579" y2="14.5458" gradientUnits="userSpaceOnUse">
<stop stop-color="#B08C35"/>
<stop offset="1" stop-color="#78572D"/>
</linearGradient>
<linearGradient id="paint6_linear_801_7557" x1="36.6212" y1="8.43483" x2="36.6212" y2="14.4164" gradientUnits="userSpaceOnUse">
<stop stop-color="#B08C35"/>
<stop offset="0.58" stop-color="#FDDB8F" stop-opacity="0.61"/>
<stop offset="1" stop-color="#B08C35" stop-opacity="0"/>
</linearGradient>
<linearGradient id="paint7_linear_801_7557" x1="48.3379" y1="11.2357" x2="47.2952" y2="9.27554" gradientUnits="userSpaceOnUse">
<stop stop-color="#B08C35"/>
<stop offset="1" stop-color="#78572D"/>
</linearGradient>
<linearGradient id="paint8_linear_801_7557" x1="48.5319" y1="15.3865" x2="48.5319" y2="9.40487" gradientUnits="userSpaceOnUse">
<stop stop-color="#B08C35"/>
<stop offset="0.58" stop-color="#FDDB8F" stop-opacity="0.61"/>
<stop offset="1" stop-color="#B08C35" stop-opacity="0"/>
</linearGradient>
<clipPath id="clip0_801_7557">
<rect width="80" height="23.8214" fill="white"/>
</clipPath>
<clipPath id="clip1_801_7557">
<rect width="80" height="23.8214" fill="white"/>
</clipPath>
</defs>
</svg>
