<svg width="80" height="10" viewBox="0 0 80 10" fill="none" xmlns="http://www.w3.org/2000/svg">
<g clip-path="url(#clip0_801_7584)">
<g clip-path="url(#clip1_801_7584)">
<path d="M15.1663 4.46276C15.2008 4.48002 15.2311 4.5016 15.2613 4.51887C15.2699 4.52318 15.2785 4.53181 15.2872 4.53613C15.3044 4.54476 15.3174 4.55771 15.3303 4.56634L15.7533 4.83393V4.2858C15.7533 3.59093 15.1922 3.36218 14.4973 3.36218H14.2772V5.60218H15.1577C15.1749 5.61081 15.1534 4.45412 15.1663 4.46276Z" fill="#122448"/>
<path d="M15.1663 2.64135C15.2008 2.65861 15.2311 2.68019 15.2613 2.69745C15.2699 2.70177 15.2785 2.7104 15.2872 2.71472C15.3044 2.72767 15.3174 2.7363 15.3303 2.74493L15.7533 3.01252V2.46439C15.7533 1.76952 15.1922 1.54077 14.4973 1.54077H14.2772V2.07595L15.1232 2.61113C15.1361 2.62408 15.1534 2.63271 15.1663 2.64135Z" fill="#122448"/>
<path d="M17.5229 6.71137C17.3848 6.76317 17.2294 6.80632 17.0611 6.83654C16.8927 6.86675 16.7287 6.8797 16.5733 6.8797C16.2453 6.8797 16.0252 6.78906 15.9173 6.60347C15.8483 6.48694 15.8051 6.3402 15.7792 6.17188L15.7619 6.18482L15.7533 6.18914L14.493 7.16023C14.5491 7.2854 14.6182 7.40193 14.7045 7.50551C14.8642 7.69973 15.0757 7.85079 15.339 7.96301C15.6022 8.07091 15.9346 8.12701 16.336 8.12701C16.651 8.12701 16.9186 8.10112 17.1387 8.04933C17.1431 8.04933 17.1431 8.04933 17.1431 8.04501C17.3804 7.9889 17.5488 7.7731 17.5444 7.52709L17.5229 6.71137Z" fill="#122448"/>
<path d="M27.2814 3.03413C27.5317 2.96076 27.8554 2.89602 28.2525 2.83128C28.6495 2.76654 29.0639 2.73633 29.4998 2.73633C29.94 2.73633 30.3112 2.79244 30.6004 2.90897C30.8938 3.0255 31.1269 3.18519 31.2996 3.39667C31.4722 3.60816 31.593 3.85848 31.6664 4.14765C31.7398 4.43682 31.7743 4.76052 31.7743 5.11443V8.05361H30.2982V5.2957C30.2982 4.82095 30.2335 4.4843 30.1127 4.28576C29.9875 4.08723 29.7544 3.98796 29.4092 3.98796C29.3013 3.98796 29.1934 3.99228 29.0725 4.00091C28.9517 4.00954 28.8481 4.02249 28.7574 4.03544V8.05361H27.2857V3.03413H27.2814Z" fill="#122448"/>
<path d="M26.2455 5.44681C26.2455 5.85683 26.1851 6.22801 26.0685 6.56897C25.9477 6.90993 25.7794 7.1991 25.5549 7.4408C25.3305 7.68249 25.0629 7.86808 24.7479 7.99756C24.4371 8.12704 24.0832 8.19609 23.6948 8.19609C23.3106 8.19609 22.9654 8.13135 22.6503 7.99756C22.3352 7.86376 22.0676 7.67817 21.8432 7.4408C21.6188 7.1991 21.4461 6.90993 21.321 6.56897C21.1958 6.22801 21.1354 5.85252 21.1354 5.44681C21.1354 5.0368 21.2001 4.66562 21.3296 4.32898C21.4591 3.99233 21.636 3.70748 21.8648 3.4701C22.0935 3.23272 22.3611 3.04713 22.6762 2.91765C22.9869 2.78385 23.3322 2.71912 23.6991 2.71912C24.0746 2.71912 24.4198 2.78385 24.7349 2.91765C25.05 3.04713 25.3176 3.23272 25.542 3.4701C25.7664 3.70748 25.9391 3.99665 26.0642 4.32898C26.1808 4.66562 26.2455 5.0368 26.2455 5.44681ZM24.7392 5.44681C24.7392 4.99364 24.6486 4.63541 24.4673 4.37214C24.286 4.11318 24.0271 3.9837 23.6904 3.9837C23.3538 3.9837 23.0948 4.11318 22.9092 4.37214C22.7237 4.63109 22.633 4.98932 22.633 5.44681C22.633 5.89999 22.7237 6.26253 22.9092 6.53012C23.0948 6.79772 23.3538 6.93151 23.6904 6.93151C24.0271 6.93151 24.286 6.79772 24.4673 6.53012C24.6486 6.26253 24.7392 5.89999 24.7392 5.44681Z" fill="#122448"/>
<path d="M20.0909 8.05793H19.6119C19.0637 8.05793 18.6149 7.61339 18.6149 7.06526V2.85718H19.2321C19.7068 2.85718 20.0909 3.2413 20.0909 3.71606V8.05793Z" fill="#122448"/>
<path d="M13.2889 5.44681C13.2889 5.85683 13.2285 6.22801 13.1119 6.56897C12.9911 6.90993 12.8228 7.1991 12.5983 7.4408C12.3739 7.68249 12.1063 7.86808 11.7912 7.99756C11.4805 8.12704 11.1266 8.19609 10.7381 8.19609C10.354 8.19609 10.0087 8.13135 9.69367 7.99756C9.3786 7.86376 9.11101 7.67817 8.88658 7.4408C8.66214 7.1991 8.48519 6.90993 8.36434 6.56897C8.23918 6.22801 8.17444 5.85252 8.17444 5.44681C8.17444 5.0368 8.23918 4.66562 8.36866 4.32898C8.49814 3.99233 8.67509 3.70748 8.90384 3.4701C9.13259 3.23272 9.40018 3.04713 9.71525 2.91765C10.0303 2.78385 10.3713 2.71912 10.7381 2.71912C11.1136 2.71912 11.4589 2.78385 11.774 2.91765C12.089 3.04713 12.3566 3.23272 12.5811 3.4701C12.8055 3.70748 12.9781 3.99665 13.1033 4.32898C13.2241 4.66562 13.2889 5.0368 13.2889 5.44681ZM11.7826 5.44681C11.7826 4.99364 11.692 4.63541 11.5107 4.37214C11.3294 4.11318 11.0705 3.9837 10.7338 3.9837C10.3972 3.9837 10.1382 4.11318 9.95262 4.37214C9.76704 4.63109 9.6764 4.98932 9.6764 5.44681C9.6764 5.89999 9.76704 6.26253 9.95262 6.53012C10.1382 6.79772 10.3972 6.93151 10.7338 6.93151C11.0705 6.93151 11.3294 6.79772 11.5107 6.53012C11.6963 6.26253 11.7826 5.89999 11.7826 5.44681Z" fill="#122448"/>
<path d="M2.85286 5.29575C2.85286 4.82099 2.79244 4.48434 2.67159 4.28581C2.55075 4.08727 2.33926 3.98801 2.04577 3.98801C1.95514 3.98801 1.86019 3.99232 1.76092 4.00527C1.66165 4.0139 1.5667 4.02685 1.47175 4.0398V8.05366H0V3.03417C0.125164 2.99965 0.271906 2.96512 0.44023 2.93059C0.608554 2.89606 0.785507 2.86154 0.975411 2.83132C1.16532 2.80111 1.35522 2.77953 1.55375 2.76227C1.75229 2.745 1.94651 2.73637 2.13641 2.73637C2.5119 2.73637 2.81834 2.78385 3.0514 2.8788C3.28446 2.97375 3.47868 3.09028 3.62974 3.21976C3.84122 3.0687 4.08292 2.94785 4.35914 2.86153C4.63105 2.77521 4.88569 2.73206 5.11444 2.73206C5.52877 2.73206 5.86973 2.78816 6.13732 2.90469C6.40492 3.02123 6.6164 3.18523 6.77609 3.3924C6.93578 3.60388 7.04368 3.85421 7.09979 4.14338C7.16021 4.43255 7.19042 4.75625 7.19042 5.11448V8.05366H5.71868V5.29575C5.71868 4.82099 5.65825 4.48434 5.5374 4.28581C5.41655 4.08727 5.20507 3.98801 4.90727 3.98801C4.82958 3.98801 4.71737 4.00959 4.57494 4.04843C4.43251 4.08727 4.31598 4.13906 4.22534 4.19517C4.27282 4.34623 4.29872 4.50592 4.31166 4.67425C4.32461 4.84257 4.33324 5.02384 4.33324 5.21374V8.05366H2.85718V5.29575H2.85286Z" fill="#122448"/>
<path d="M16.9704 3.81533L15.749 3.01687L15.3303 2.74928C15.3174 2.73633 15.3001 2.7277 15.2872 2.71907C15.2785 2.71475 15.2699 2.70612 15.2613 2.7018C15.2311 2.68022 15.2008 2.66296 15.1706 2.6457H15.1663C15.149 2.63706 15.1361 2.62843 15.1232 2.6198L14.2772 2.08462V3.71174L14.493 3.83691C15.0929 4.19082 15.1145 5.04538 14.5405 5.43382L14.2815 5.60646V5.88268C14.2815 6.21933 14.3117 6.52576 14.3765 6.80198C14.4067 6.93146 14.4455 7.05231 14.4973 7.16453L15.7576 6.19343L15.7662 6.18912L15.7835 6.17617L15.8396 6.13301L17.0092 5.28276C17.5056 4.91159 17.4883 4.15629 16.9704 3.81533ZM42.0204 4.04407L40.5961 2.63706H40.5831C40.5745 2.63706 40.5659 2.63275 40.5572 2.63275C40.5054 2.62412 40.4062 2.60685 40.2896 2.6198C40.1084 2.63275 39.94 2.69317 39.789 2.79676C39.7631 2.81402 39.7415 2.82697 39.7242 2.84423C39.707 2.85718 39.694 2.87013 39.6811 2.88308L39.4696 3.09024C39.9228 3.565 40.2033 4.20376 40.2033 4.91159C40.2033 5.59783 39.94 6.22364 39.5041 6.69408L39.694 6.88399L39.7242 6.90557V6.91852L39.7286 6.92283L39.7415 6.93578C39.7458 6.9401 39.7501 6.94873 39.7545 6.95304C39.7588 6.95736 39.7631 6.96599 39.7674 6.97031C39.7717 6.97894 39.776 6.98326 39.7847 6.99189C39.789 7.00052 39.7933 7.00483 39.7976 7.01347C39.8019 7.0221 39.8106 7.03073 39.8149 7.03936C39.8192 7.048 39.8235 7.05663 39.8278 7.06094C39.8321 7.06957 39.8408 7.08252 39.8451 7.09547L39.858 7.12137C39.8667 7.13431 39.871 7.14726 39.8753 7.16021L39.8883 7.18611C39.8969 7.20337 39.9012 7.22063 39.9098 7.2379L39.9228 7.26379C39.9314 7.28969 39.94 7.3199 39.9487 7.35011C39.9573 7.38464 39.9659 7.41917 39.9746 7.44938C39.9789 7.46233 39.9789 7.47096 39.9789 7.48391C39.9832 7.50549 39.9875 7.52707 39.9875 7.54433C39.9875 7.55728 39.9918 7.57023 39.9918 7.58318C39.9918 7.60044 39.9962 7.6177 39.9962 7.63497V7.70834L41.1874 6.50418L42.1498 5.54172C42.2923 5.39929 42.3829 5.21802 42.4088 5.01948C42.4174 4.96338 42.4217 4.9159 42.4217 4.86843C42.4304 4.50588 42.2362 4.27282 42.0204 4.04407ZM35.7535 2.93487C36.224 2.51622 36.8498 2.26157 37.5317 2.26157C38.2266 2.26157 38.8611 2.52485 39.3358 2.95645L39.5516 2.74496C39.5646 2.73202 39.5732 2.72338 39.5861 2.71475C39.5905 2.71044 39.5991 2.70612 39.6034 2.69749C39.6163 2.68886 39.6293 2.67591 39.6422 2.66728C39.6552 2.65864 39.6681 2.6457 39.6854 2.63706C39.7933 2.56369 39.9142 2.50759 40.0393 2.46874C40.1127 2.44716 40.1947 2.43421 40.2724 2.42558C40.3112 2.42127 40.3458 2.42127 40.3803 2.42127H40.3846L38.6711 0.725085C38.5589 0.638767 38.4597 0.543816 38.3647 0.448864C38.2957 0.37981 38.2309 0.315068 38.1575 0.254645C37.9806 0.0906354 37.7562 0 37.5188 0C37.2728 0 37.044 0.0949541 36.8714 0.267592L36.8498 0.289172C36.8023 0.328017 36.7592 0.366862 36.716 0.410022L36.7074 0.418653L35.2917 1.82566V1.82998C35.1925 2.32631 35.5119 2.68886 35.5119 2.69317L35.7535 2.93487ZM39.8149 7.65223C39.8149 7.63928 39.8106 7.62202 39.8106 7.60476C39.8106 7.59612 39.8106 7.58318 39.8063 7.57023C39.8063 7.55296 39.8019 7.5357 39.7976 7.51412C39.7976 7.50549 39.7933 7.49254 39.7933 7.48391C39.789 7.4537 39.7804 7.4278 39.7717 7.39759C39.7631 7.36738 39.7545 7.34148 39.7458 7.31559C39.7415 7.30695 39.7372 7.29832 39.7372 7.28969C39.7329 7.27243 39.7242 7.25516 39.7199 7.24221L39.707 7.21632C39.7027 7.20337 39.694 7.19042 39.6897 7.18179L39.6768 7.15589L39.6638 7.13C39.6595 7.12137 39.6552 7.11273 39.6509 7.10842C39.6466 7.09979 39.6422 7.09547 39.6379 7.08684C39.6336 7.07821 39.6293 7.07389 39.625 7.06957C39.6207 7.06526 39.6163 7.05663 39.612 7.05231C39.6077 7.04799 39.6034 7.04368 39.6034 7.03936C39.5991 7.03505 39.5948 7.03073 39.5948 7.02642L39.5861 7.01778L39.5775 7.00915L39.5646 6.9962L39.3833 6.81493C38.9042 7.26811 38.2568 7.54865 37.5404 7.54865C36.8369 7.54865 36.1981 7.27674 35.719 6.83651L35.5248 7.03073C35.5205 7.03505 35.4644 7.09115 35.3651 7.15158C35.3608 7.15589 35.3565 7.15589 35.3522 7.16021C35.3435 7.16453 35.3306 7.17316 35.3219 7.17747C35.3176 7.18179 35.3133 7.18611 35.3047 7.18611C35.2961 7.19042 35.2831 7.19905 35.2702 7.20337C35.2615 7.20769 35.2572 7.212 35.2486 7.21632C35.2356 7.22063 35.227 7.22495 35.214 7.22927L35.1882 7.24221C35.1752 7.24653 35.1666 7.25085 35.1536 7.25516C35.145 7.25948 35.132 7.26379 35.1234 7.26811C35.1148 7.27243 35.1018 7.27674 35.0889 7.27674C35.0759 7.28106 35.063 7.28537 35.0544 7.28969C35.0414 7.294 35.0328 7.29401 35.0198 7.29832C35.0069 7.30264 34.9939 7.30695 34.9767 7.30695C34.9637 7.31127 34.9551 7.31127 34.9421 7.31127C34.9292 7.31559 34.9119 7.31559 34.8947 7.3199C34.8817 7.3199 34.8688 7.32422 34.8601 7.32422C34.8429 7.32422 34.8299 7.32853 34.8127 7.32853H34.722L36.3923 9.01177C36.4312 9.05061 36.47 9.09377 36.5132 9.13693C36.7246 9.36567 37.0095 9.68074 37.4454 9.71527C37.4972 9.7239 37.5447 9.72822 37.5878 9.72822C37.8295 9.72822 38.0626 9.63327 38.2352 9.46063L39.3574 8.33847L39.8019 7.90687V7.89393C39.8019 7.88961 39.8019 7.88529 39.8063 7.87666C39.8063 7.86803 39.8106 7.8594 39.8106 7.85508C39.8106 7.84645 39.8106 7.84214 39.8149 7.8335C39.8149 7.82487 39.8149 7.81624 39.8192 7.80329V7.7774V7.74287V7.71266V7.67381C39.8149 7.67381 39.8149 7.66518 39.8149 7.65223ZM35.5809 6.71135C35.1364 6.24091 34.8645 5.60646 34.8645 4.90727C34.8645 4.19082 35.1536 3.5391 35.6198 3.06435L35.3824 2.82265C35.3824 2.82265 35.3781 2.81834 35.3781 2.81402L35.3737 2.8097C35.3694 2.80539 35.3694 2.80107 35.3651 2.79676C35.3651 2.79244 35.3608 2.79244 35.3608 2.78812C35.3565 2.78381 35.3522 2.77949 35.3478 2.77086C35.3435 2.76654 35.3435 2.76223 35.3392 2.75791C35.3349 2.7536 35.3306 2.74496 35.3263 2.73633C35.3219 2.73202 35.3176 2.7277 35.3176 2.72338C35.3133 2.71475 35.3047 2.70612 35.3004 2.69749C35.2961 2.69317 35.2917 2.68886 35.2917 2.68022C35.2831 2.66728 35.2788 2.65864 35.2702 2.6457C35.2702 2.64138 35.2658 2.63706 35.2658 2.63275C35.2572 2.61548 35.2486 2.59822 35.2356 2.58096C35.2313 2.57664 35.2313 2.56801 35.227 2.56369C35.2184 2.55075 35.214 2.5378 35.2054 2.52053C35.2011 2.5119 35.1968 2.50327 35.1968 2.49464C35.1925 2.48169 35.1838 2.46874 35.1795 2.45148C35.1752 2.44285 35.1709 2.43421 35.1709 2.42558C35.1666 2.41263 35.1623 2.39537 35.1579 2.38242C35.1536 2.37379 35.1493 2.36084 35.1493 2.35221C35.145 2.33494 35.1407 2.322 35.1364 2.30473C35.132 2.2961 35.132 2.28315 35.1277 2.27452L35.1148 2.20978C35.1148 2.20115 35.1105 2.19684 35.1105 2.1882C35.1061 2.15799 35.1018 2.1321 35.1018 2.10188V2.0803V2.01988L33.3884 3.71174C33.3495 3.75059 33.3064 3.78943 33.2632 3.83259C33.0215 4.05271 32.6892 4.35914 32.6806 4.8339C32.6763 5.20076 32.8662 5.43813 33.0863 5.6712L34.5278 7.13C34.5494 7.13431 34.571 7.13863 34.5925 7.13863C34.6357 7.14295 34.6832 7.14726 34.7263 7.14726C35.1407 7.14726 35.3953 6.89694 35.3953 6.89694L35.5809 6.71135Z" fill="#DCA32D"/>
<path d="M37.3117 4.54469C37.3678 4.51017 37.4369 4.48859 37.5146 4.48859C37.5879 4.48859 37.6527 4.51017 37.7131 4.54469L37.8728 4.385L38.7791 3.48728L39.1244 3.15063C38.6971 2.76651 38.1361 2.53345 37.5146 2.53345C36.9017 2.53345 36.3449 2.7622 35.922 3.13337L36.3406 3.56065L37.3117 4.54469ZM37.8383 4.66986C37.8728 4.72596 37.8944 4.79502 37.8944 4.86839C37.8944 4.94176 37.8728 5.0065 37.8383 5.06693L38.7273 5.93444L39.2884 6.49983C39.6725 6.08118 39.9099 5.52011 39.9099 4.90724C39.9099 4.27279 39.6596 3.69876 39.2539 3.2758L38.9043 3.61676L37.8383 4.66986ZM37.7131 5.19209C37.657 5.22662 37.5879 5.2482 37.5146 5.2482C37.4412 5.2482 37.3764 5.22662 37.316 5.19209L36.4442 6.0855L35.8831 6.64657C36.3104 7.03933 36.8844 7.28102 37.5146 7.28102C38.1576 7.28102 38.736 7.0307 39.1676 6.625L38.6065 6.0596L37.7131 5.19209ZM37.1909 5.06693C37.1563 5.0065 37.1347 4.94176 37.1347 4.86839C37.1347 4.79502 37.1563 4.73028 37.1909 4.66986L36.2111 3.6815L35.7925 3.2499C35.3738 3.67718 35.1149 4.25984 35.1149 4.90292C35.1149 5.52874 35.3566 6.09413 35.7536 6.5171L36.3147 5.95602L37.1909 5.06693Z" fill="#DCA32D"/>
<path d="M49.8046 2.97346C50.4497 2.80352 51.0988 2.7373 51.7361 2.73572C52.4426 2.73572 52.9579 2.99166 53.2862 3.29503C53.6145 3.5984 53.7808 4.04307 53.7808 4.63319V7.90637C53.206 8.06039 52.3165 8.18598 51.456 8.14557C50.6615 8.04126 49.6488 8.00034 49.359 7.20977C49.2884 7.0103 49.251 6.79835 49.251 6.56978C49.251 6.31628 49.2925 6.08356 49.3757 5.87577C49.4588 5.66382 49.5876 5.48097 49.7538 5.32721C49.9201 5.17344 50.1362 5.04877 50.3897 4.9615C50.6473 4.87423 50.9507 4.82851 51.2998 4.82851H52.2615V4.67059C52.2615 4.57916 52.2532 4.49189 52.2324 4.40878C52.2116 4.32566 52.1742 4.25086 52.1119 4.18852C52.0495 4.12618 51.9664 4.07632 51.8542 4.03891C51.742 4.00151 51.7029 3.98073 51.52 3.98073C51.4245 3.98073 51.3122 3.98489 51.1876 3.99736C49.7309 4.2396 49.9426 3.48853 49.8046 2.97346ZM52.3188 5.82089H51.7095C51.6181 5.82089 51.5225 5.8292 51.4186 5.84166C51.3147 5.85413 51.2191 5.88322 51.1318 5.93309C51.0446 5.98296 50.9739 6.05361 50.9116 6.14503C50.8534 6.23646 50.8243 6.30381 50.8243 6.46173C50.8243 6.6903 50.8991 6.84822 51.0529 6.93965C51.2066 7.03108 51.4103 7.02362 51.6721 7.02362C51.7095 7.02362 52.2565 7.04856 52.3188 7.02362V5.82089Z" fill="#142B4B"/>
<path d="M55.1321 3.00176C55.3839 2.92794 55.7096 2.86281 56.1091 2.79768C56.5086 2.73254 56.9254 2.70215 57.364 2.70215C57.8069 2.70215 58.1803 2.7586 58.4712 2.87584C58.7665 2.99308 59.001 3.15374 59.1747 3.36651C59.3484 3.57928 59.47 3.83113 59.5438 4.12205C59.6176 4.41298 59.6523 4.73865 59.6523 5.09471V8.05176H58.1673V5.27708C58.1673 4.79944 58.1022 4.46075 57.9806 4.261C57.8547 4.06126 57.6202 3.96139 57.2728 3.96139C57.1642 3.96139 57.0557 3.96573 56.9341 3.97442C56.8125 3.9831 56.7083 3.99613 56.6171 4.00916V8.05176H55.1364V3.00176H55.1321Z" fill="#142B4B"/>
<path d="M68.2489 8.08187H67.7672C67.2162 8.08187 66.7649 7.63493 66.7649 7.08385V2.85315H67.3854C67.8627 2.85315 68.2489 3.23934 68.2489 3.71665V8.08187Z" fill="#142B4B"/>
<path d="M69.6105 3.00176C69.8623 2.92794 70.188 2.86281 70.5875 2.79768C70.987 2.73254 71.4038 2.70215 71.8424 2.70215C72.2853 2.70215 72.6587 2.7586 72.9496 2.87584C73.2449 2.99308 73.4794 3.15374 73.6531 3.36651C73.8268 3.57928 73.9483 3.83113 74.0222 4.12205C74.096 4.41298 74.1307 4.73865 74.1307 5.09471V8.05176H72.6457V5.27708C72.6457 4.79944 72.5806 4.46075 72.459 4.261C72.333 4.06126 72.0986 3.96139 71.7512 3.96139C71.6426 3.96139 71.5341 3.96573 71.4125 3.97442C71.2909 3.9831 71.1867 3.99613 71.0955 4.00916V8.05176H69.6148V3.00176H69.6105Z" fill="#142B4B"/>
<path d="M60.9832 4.2069V0.362061H61.4755C61.8537 0.362061 62.0293 0.423631 62.2336 0.627901C62.4951 0.889435 62.4995 0.92408 62.5019 2.76693L62.5045 4.64012L62.9622 4.15252C63.214 3.88434 63.5787 3.48029 63.7725 3.25463L64.1251 2.84434C64.7131 2.86531 65.3012 2.83681 65.8892 2.85778L64.8332 4.01729L63.7772 5.12734L64.3329 5.73537C64.8784 6.33218 65.25 6.83751 65.7377 7.6456L65.9829 8.05174H65.1159H64.249L63.7614 7.32068C63.4933 6.9186 63.0997 6.42166 62.8867 6.21638L62.4994 5.84314V6.94744V8.05174H61.7413H60.9832V4.2069Z" fill="#142B4B"/>
<path d="M44.0614 8.03377L43.6543 7.93069V4.14638V0.362061H44.3423C45.1349 0.362061 45.1719 1.07435 45.1719 1.75939L45.1706 2.96798L45.5111 2.83141C46.6371 2.52971 47.3587 2.86468 47.8877 3.3968C48.3426 3.86668 48.5283 4.59478 48.5438 5.34729C48.596 6.78495 47.9565 7.60039 46.935 8.04501C46.4801 8.23504 44.8303 8.20595 44.0614 8.03377ZM46.9224 5.83976C47.0089 5.00652 47.0228 4.26212 46.1649 4.03225C45.752 3.96474 45.6006 4.02388 45.1786 4.16293V6.75378C46.2422 7.143 46.8306 6.72313 46.9224 5.83976Z" fill="#142B4B"/>
<path d="M75.3757 9.48373L75.7611 8.32942C76.6853 8.62618 78.1387 9.21596 78.4342 7.85254C78.4342 7.85254 78.4671 7.67684 78.4552 7.56514C76.3775 8.12184 75.2498 7.12325 75.2288 5.31176C75.2288 3.43048 76.19 2.72656 78.0394 2.72656C78.5587 2.76448 79.4873 2.85203 79.9999 2.9894V5.83373V8.18114C80.0067 8.8451 79.5279 9.27348 78.9499 9.59327C78.0519 10.1117 76.4972 10.1313 75.3757 9.48373ZM78.4636 6.33489C78.4636 5.83347 78.4755 5.83484 78.4755 5.13028V3.93624C77.1576 3.79041 76.81 4.55666 76.7505 5.04923C76.6916 5.49188 76.751 5.93592 77.0649 6.22452C77.3794 6.50528 77.884 6.60269 78.4636 6.33489Z" fill="#142B4B"/>
</g>
</g>
<defs>
<clipPath id="clip0_801_7584">
<rect width="80" height="9.97631" fill="white"/>
</clipPath>
<clipPath id="clip1_801_7584">
<rect width="80" height="9.97631" fill="white"/>
</clipPath>
</defs>
</svg>
