<svg width="80" height="17" viewBox="0 0 80 17" fill="none" xmlns="http://www.w3.org/2000/svg">
<g clip-path="url(#clip0_801_7262)">
<path d="M38.1855 7.35679C38.2725 7.40025 38.3485 7.45459 38.4246 7.49805C38.4463 7.50892 38.4681 7.53065 38.4898 7.54152C38.5333 7.56325 38.5659 7.59585 38.5985 7.61758L39.6634 8.29131V6.91126C39.6634 5.16174 38.2507 4.58582 36.5012 4.58582H35.947V10.2256H38.1638C38.2073 10.2473 38.1529 7.33505 38.1855 7.35679Z" fill="#122448"/>
<path d="M38.1855 2.77097C38.2725 2.81444 38.3485 2.86877 38.4246 2.91224C38.4463 2.9231 38.4681 2.94484 38.4898 2.9557C38.5333 2.9883 38.5659 3.01003 38.5985 3.03177L39.6634 3.70549V2.32544C39.6634 0.575927 38.2507 0 36.5012 0H35.947V1.34745L38.0769 2.69491C38.1095 2.7275 38.1529 2.74924 38.1855 2.77097Z" fill="#122448"/>
<path d="M44.1187 13.0184C43.771 13.1488 43.3798 13.2574 42.956 13.3335C42.5322 13.4096 42.1193 13.4422 41.7281 13.4422C40.9022 13.4422 40.348 13.214 40.0763 12.7467C39.9025 12.4533 39.7938 12.0838 39.7286 11.66L39.6851 11.6926L39.6634 11.7035L36.4904 14.1485C36.6316 14.4636 36.8055 14.757 37.0228 15.0178C37.4249 15.5068 37.9574 15.8871 38.6202 16.1697C39.2831 16.4413 40.1198 16.5826 41.1304 16.5826C41.9237 16.5826 42.5974 16.5174 43.1516 16.387C43.1625 16.387 43.1625 16.387 43.1625 16.3761C43.7601 16.2349 44.1839 15.6915 44.1731 15.0721L44.1187 13.0184Z" fill="#122448"/>
<path d="M68.6877 3.75993C69.318 3.57519 70.133 3.4122 71.1327 3.2492C72.1325 3.0862 73.1757 3.01013 74.2732 3.01013C75.3816 3.01013 76.3161 3.1514 77.0442 3.44479C77.7831 3.73819 78.3699 4.14025 78.8046 4.67271C79.2392 5.20517 79.5435 5.83544 79.7282 6.5635C79.913 7.29156 79.9999 8.10655 79.9999 8.99761V16.3977H76.2835V9.454C76.2835 8.25868 76.1205 7.41109 75.8163 6.91123C75.5011 6.41136 74.9143 6.16144 74.045 6.16144C73.7733 6.16144 73.5017 6.1723 73.1974 6.19403C72.8931 6.21577 72.6323 6.24837 72.4041 6.28096V16.3977H68.6986V3.75993H68.6877Z" fill="#122448"/>
<path d="M66.0797 9.83446C66.0797 10.8668 65.9276 11.8013 65.6342 12.6598C65.3299 13.5182 64.9061 14.2463 64.3411 14.8548C63.776 15.4633 63.1023 15.9306 62.309 16.2566C61.5266 16.5826 60.6355 16.7565 59.6575 16.7565C58.6904 16.7565 57.8211 16.5935 57.0278 16.2566C56.2346 15.9197 55.5608 15.4525 54.9958 14.8548C54.4307 14.2463 53.996 13.5182 53.6809 12.6598C53.3658 11.8013 53.2136 10.8559 53.2136 9.83446C53.2136 8.80214 53.3766 7.86761 53.7026 7.02002C54.0286 6.17243 54.4742 5.45524 55.0501 4.85758C55.626 4.25992 56.2997 3.79265 57.093 3.46666C57.8754 3.12979 58.7447 2.9668 59.6684 2.9668C60.6138 2.9668 61.4831 3.12979 62.2764 3.46666C63.0697 3.79265 63.7434 4.25992 64.3085 4.85758C64.8735 5.45524 65.3082 6.1833 65.6233 7.02002C65.9167 7.86761 66.0797 8.80214 66.0797 9.83446ZM62.2873 9.83446C62.2873 8.69347 62.0591 7.79155 61.6027 7.12869C61.1463 6.47669 60.4943 6.1507 59.6467 6.1507C58.7991 6.1507 58.1471 6.47669 57.6798 7.12869C57.2125 7.78068 56.9843 8.68261 56.9843 9.83446C56.9843 10.9754 57.2125 11.8882 57.6798 12.562C58.1471 13.2357 58.7991 13.5726 59.6467 13.5726C60.4943 13.5726 61.1463 13.2357 61.6027 12.562C62.0591 11.8882 62.2873 10.9754 62.2873 9.83446Z" fill="#122448"/>
<path d="M50.5839 16.4087H49.3777C47.9977 16.4087 46.8676 15.2894 46.8676 13.9093V3.31445H48.4215C49.6168 3.31445 50.5839 4.28158 50.5839 5.4769V16.4087Z" fill="#122448"/>
<path d="M33.4579 9.83446C33.4579 10.8668 33.3058 11.8013 33.0124 12.6598C32.7081 13.5182 32.2843 14.2463 31.7192 14.8548C31.1542 15.4633 30.4804 15.9306 29.6872 16.2566C28.9048 16.5826 28.0137 16.7565 27.0357 16.7565C26.0686 16.7565 25.1993 16.5935 24.406 16.2566C23.6127 15.9197 22.939 15.4525 22.3739 14.8548C21.8089 14.2463 21.3633 13.5182 21.0591 12.6598C20.7439 11.8013 20.5809 10.8559 20.5809 9.83446C20.5809 8.80214 20.7439 7.86761 21.0699 7.02002C21.3959 6.17243 21.8415 5.45524 22.4174 4.85758C22.9933 4.25992 23.6671 3.79265 24.4603 3.46666C25.2536 3.12979 26.1121 2.9668 27.0357 2.9668C27.9811 2.9668 28.8504 3.12979 29.6437 3.46666C30.437 3.79265 31.1107 4.25992 31.6758 4.85758C32.2408 5.45524 32.6755 6.1833 32.9906 7.02002C33.2949 7.86761 33.4579 8.80214 33.4579 9.83446ZM29.6654 9.83446C29.6654 8.69347 29.4372 7.79155 28.9808 7.12869C28.5244 6.47669 27.8724 6.1507 27.0248 6.1507C26.1772 6.1507 25.5253 6.47669 25.058 7.12869C24.5907 7.78068 24.3625 8.68261 24.3625 9.83446C24.3625 10.9754 24.5907 11.8882 25.058 12.562C25.5253 13.2357 26.1772 13.5726 27.0248 13.5726C27.8724 13.5726 28.5244 13.2357 28.9808 12.562C29.4481 11.8882 29.6654 10.9754 29.6654 9.83446Z" fill="#122448"/>
<path d="M7.18284 9.45412C7.18284 8.2588 7.03071 7.41121 6.72645 6.91135C6.42218 6.41149 5.88972 6.16156 5.15078 6.16156C4.92259 6.16156 4.68351 6.17243 4.43358 6.20502C4.18365 6.22676 3.94458 6.25936 3.70552 6.29196V16.3979H0V3.76005C0.315133 3.67312 0.684596 3.58619 1.1084 3.49925C1.5322 3.41232 1.97772 3.32539 2.45586 3.24932C2.93399 3.17326 3.41213 3.11892 3.91199 3.07546C4.41185 3.03199 4.90085 3.01026 5.37898 3.01026C6.32437 3.01026 7.09591 3.12979 7.68271 3.36885C8.26951 3.60792 8.7585 3.90131 9.13884 4.22731C9.6713 3.84698 10.2798 3.54272 10.9753 3.32538C11.6599 3.10805 12.301 2.99939 12.877 2.99939C13.9202 2.99939 14.7786 3.14065 15.4524 3.43405C16.1261 3.72745 16.6585 4.14038 17.0606 4.66197C17.4627 5.19443 17.7343 5.82469 17.8756 6.55275C18.0277 7.28081 18.1038 8.09581 18.1038 8.99773V16.3979H14.3983V9.45412C14.3983 8.2588 14.2462 7.41121 13.9419 6.91135C13.6376 6.41149 13.1052 6.16156 12.3554 6.16156C12.1598 6.16156 11.8772 6.21589 11.5186 6.31369C11.16 6.41149 10.8666 6.54189 10.6384 6.68315C10.758 7.06348 10.8232 7.46554 10.8558 7.88934C10.8884 8.31313 10.9101 8.76953 10.9101 9.24766V16.3979H7.19371V9.45412H7.18284Z" fill="#122448"/>
<path d="M42.7278 5.72676L39.6525 3.71644L38.5985 3.04271C38.5659 3.01012 38.5224 2.98838 38.4898 2.96665C38.4681 2.95579 38.4463 2.93405 38.4246 2.92318C38.3485 2.86885 38.2725 2.82538 38.1964 2.78192H38.1855C38.1421 2.76018 38.1095 2.73845 38.0769 2.71672L35.947 1.36926V5.46596L36.4904 5.78109C38.0008 6.67215 38.0551 8.82373 36.6099 9.80172L35.9579 10.2364V10.9318C35.9579 11.7794 36.034 12.551 36.197 13.2464C36.273 13.5724 36.3708 13.8767 36.5012 14.1592L39.6743 11.7142L39.696 11.7034L39.7395 11.6708L39.8807 11.5621L42.8256 9.42139C44.0753 8.48686 44.0318 6.58521 42.7278 5.72676Z" fill="#DCA32D"/>
</g>
<defs>
<clipPath id="clip0_801_7262">
<rect width="80" height="16.7564" fill="white"/>
</clipPath>
</defs>
</svg>
