<svg width="80" height="57" viewBox="0 0 80 57" fill="none" xmlns="http://www.w3.org/2000/svg">
<g clip-path="url(#clip0_801_8534)">
<path d="M51.4894 0C47.3761 0 43.4046 0.85091 39.8582 2.41118C36.4542 0.851306 32.4824 0 28.3686 0C12.766 0 0 12.6237 0 28.3688C0 43.9719 12.766 56.738 28.3686 56.738C32.482 56.738 36.4538 55.8871 40.0002 54.3264C43.5462 55.8867 47.3757 56.738 51.6314 56.738C67.2344 56.738 80 43.9719 80 28.3688C79.8584 12.6237 67.2344 0 51.4894 0ZM40.0002 54.0429C25.8155 54.0429 14.3259 42.5532 14.3259 28.3684C14.3259 14.184 25.8155 2.69429 40.0002 2.69429C54.1845 2.69429 65.6741 14.184 65.6741 28.3684C65.6741 42.5536 54.043 54.0429 40.0002 54.0429ZM51.7733 28.3688C51.7772 29.9159 51.4753 31.4486 50.8851 32.8787C50.2948 34.3088 49.4278 35.6082 48.3338 36.7022C47.2398 37.7962 45.9405 38.6632 44.5104 39.2536C43.0803 39.8439 41.5477 40.1458 40.0006 40.142C33.4756 40.142 28.2275 34.8938 28.2275 28.3688C28.2275 21.8438 33.4756 16.596 40.0006 16.596C41.5477 16.5921 43.0803 16.894 44.5104 17.4843C45.9405 18.0745 47.2398 18.9416 48.3338 20.0355C49.4278 21.1295 50.2948 22.4289 50.885 23.859C51.4753 25.2891 51.7772 26.8217 51.7733 28.3688Z" fill="#E60000"/>
</g>
<defs>
<clipPath id="clip0_801_8534">
<rect width="80" height="56.738" fill="white"/>
</clipPath>
</defs>
</svg>
