<svg width="80" height="26" viewBox="0 0 80 26" fill="none" xmlns="http://www.w3.org/2000/svg">
<g clip-path="url(#clip0_801_7248)">
<path fill-rule="evenodd" clip-rule="evenodd" d="M11.7598 0C5.28138 0 0.0293127 5.25206 0.0293127 11.7175C0.0252434 14.189 0.807022 16.5978 2.26169 18.5959C2.76637 18.355 3.28835 18.1522 3.82328 17.9892C2.45534 16.273 1.64233 14.0921 1.64233 11.7305C1.64233 6.16857 6.17185 1.63905 11.7338 1.63905C17.2957 1.63905 21.8252 6.16825 21.8252 11.7302C21.8252 15.2921 19.9671 18.4406 17.1538 20.2343C17.4249 20.2343 17.696 20.2343 17.9798 20.2216C18.896 20.1698 19.7607 19.7568 20.4963 19.4216C22.3544 17.3435 23.49 14.7368 23.49 11.7171C23.49 5.25238 18.2379 0 11.7598 0Z" fill="#EA5F00"/>
<path fill-rule="evenodd" clip-rule="evenodd" d="M19.1926 23.3841C18.5345 23.6034 17.8894 23.7323 17.27 23.7453C14.6503 23.8485 12.7662 23.0615 10.9596 22.2872C9.34622 21.6031 7.83638 20.958 5.97829 21.0612C4.22305 21.2031 2.99733 22.1841 2.94559 22.2225C2.58432 22.5066 2.53289 23.0355 2.8167 23.3971C3.10051 23.7584 3.64241 23.8228 4.004 23.539C4.0167 23.539 4.89416 22.8422 6.10717 22.7517C7.52686 22.6872 8.83035 23.2161 10.3142 23.8615C12.0046 24.5841 13.8888 25.3844 16.4053 25.4615C16.7151 25.4745 17.0246 25.4615 17.3475 25.4488C18.1348 25.4231 18.9475 25.2679 19.7605 24.9971C19.9708 24.9225 20.1437 24.7689 20.2425 24.5689C20.3413 24.3689 20.3582 24.1383 20.2897 23.926C20.1218 23.4615 19.6316 23.2291 19.1926 23.3841Z" fill="#2673DD"/>
<path fill-rule="evenodd" clip-rule="evenodd" d="M21.8897 19.6016C21.0897 20.1565 19.4767 21.0984 17.6313 21.1632C15.2827 21.2663 13.7468 20.5822 12.1081 19.8854C10.3916 19.1371 8.61095 18.3629 5.93952 18.479C3.46175 18.5692 1.35857 19.9889 0.325874 20.8146C0.236161 20.8861 0.161568 20.9748 0.106437 21.0754C0.0513048 21.176 0.0167356 21.2865 0.00474108 21.4006C-0.00725346 21.5147 0.00356626 21.6301 0.0365705 21.7399C0.0695747 21.8498 0.124104 21.952 0.196985 22.0406C0.268493 22.1303 0.357131 22.2049 0.45774 22.2601C0.55835 22.3152 0.66892 22.3498 0.783016 22.3618C0.897112 22.3738 1.01245 22.3629 1.12233 22.3299C1.2322 22.2969 1.33442 22.2424 1.42302 22.1695C2.28746 21.4727 4.02937 20.2857 6.00397 20.2083C8.2881 20.1178 9.79794 20.7759 11.3983 21.4727C12.9729 22.1568 14.5856 22.8664 16.9087 22.9051C17.1668 22.9051 17.4249 22.9051 17.696 22.8924C19.9798 22.8019 21.9157 21.6794 22.8833 21.021C23.2833 20.7502 23.3738 20.2083 23.1027 19.8083C22.8319 19.421 22.277 19.3178 21.89 19.6019L21.8897 19.6016Z" fill="#2673DD"/>
<path fill-rule="evenodd" clip-rule="evenodd" d="M12.4176 19.022L12.4433 19.0347C13.463 19.4477 14.4437 19.8477 15.5922 20.0671C18.7795 18.609 20.9992 15.3956 20.9992 11.6661C21.0119 6.58168 16.857 2.43945 11.7726 2.43945C6.68779 2.43945 2.51954 6.58168 2.51954 11.6661C2.51662 13.8987 3.32897 16.0556 4.80398 17.7315C5.08779 17.6798 5.3716 17.6541 5.66843 17.6283C8.61065 17.4604 10.6367 18.2864 12.4176 19.022ZM13.0757 12.802C12.9083 12.6341 12.7113 12.4985 12.4948 12.402C12.263 12.2855 12.0046 12.1953 11.7338 12.1048C11.4703 12.0203 11.2118 11.9212 10.9592 11.808C10.4173 11.6017 9.96557 11.2918 9.5916 10.8531C9.217 10.4274 9.04938 9.88548 9.04938 9.22739C9.0624 8.80136 9.15287 8.42739 9.30748 8.10453C9.47541 7.78199 9.69478 7.51088 9.97859 7.30453C10.2627 7.09818 10.5722 6.92993 10.9208 6.82707C11.2813 6.72243 11.655 6.67026 12.0303 6.67215H12.0564C12.65 6.68485 13.1789 6.80104 13.6176 7.00771C14.0544 7.22575 14.4693 7.48502 14.8567 7.78199L13.9405 9.09818C13.6824 8.90453 13.3983 8.74961 13.1145 8.62072C12.8176 8.49152 12.4564 8.41437 12.0306 8.38834C11.7078 8.36263 11.411 8.42707 11.1659 8.58199C10.9078 8.7239 10.7786 8.94326 10.7786 9.22707C10.7786 9.39501 10.8173 9.54993 10.9078 9.67882C10.9983 9.80802 11.1272 9.92421 11.2821 10.0144C11.437 10.1175 11.6046 10.1823 11.7722 10.2598C11.9402 10.3242 12.1208 10.3887 12.2757 10.4534C12.6113 10.5693 12.9468 10.7112 13.2821 10.8788C13.6071 11.0431 13.9105 11.2468 14.1856 11.4855C14.4567 11.7179 14.663 12.0017 14.8306 12.3242C14.9856 12.6471 15.063 13.0214 15.0503 13.4601C15.0373 13.8858 14.9468 14.2728 14.7922 14.5956C14.6243 14.9312 14.3922 15.202 14.1081 15.4344C13.8113 15.6668 13.4757 15.8344 13.0887 15.9506C12.7014 16.0668 12.2757 16.1185 11.824 16.1055C11.3983 16.0928 11.0113 16.041 10.6627 15.9245C10.3141 15.8087 9.9916 15.6795 9.70748 15.5245C9.4524 15.3882 9.21051 15.2284 8.98494 15.0474C8.77859 14.9052 8.63668 14.7763 8.54621 14.6728L9.48843 13.3439C9.80946 13.6498 10.1804 13.8985 10.5853 14.0795C11.011 14.2858 11.4497 14.389 11.9014 14.389C12.2887 14.402 12.6113 14.3115 12.8951 14.1439C13.1789 13.9763 13.3078 13.7182 13.3211 13.3953C13.3211 13.1502 13.2437 12.9566 13.0757 12.8017V12.802ZM32.4973 11.6264C32.2262 11.3814 31.9294 11.1877 31.5938 11.0071C31.2586 10.8395 30.923 10.6845 30.5748 10.5683C30.4065 10.5039 30.2389 10.4391 30.0583 10.3747C29.8811 10.314 29.7121 10.2317 29.5551 10.1296C29.4002 10.0391 29.284 9.92326 29.1805 9.79406C29.0878 9.66171 29.0383 9.5039 29.0389 9.34231C29.0516 9.0585 29.1808 8.83914 29.4262 8.69723C29.684 8.55533 29.9681 8.49088 30.3033 8.51628C30.7294 8.54231 31.1033 8.61977 31.4005 8.74866C31.6973 8.89088 31.9811 9.04548 32.2392 9.23914L33.1684 7.92295C32.7811 7.6131 32.3554 7.35501 31.9167 7.13564C31.478 6.91628 30.9484 6.8131 30.3551 6.80009H30.3294C29.9421 6.78739 29.5678 6.83882 29.2065 6.95501C28.8453 7.0712 28.5354 7.22612 28.2516 7.43247C27.9678 7.63882 27.7484 7.90993 27.5805 8.23247C27.4129 8.55533 27.3224 8.94231 27.3097 9.36834C27.2967 10.0264 27.4773 10.5683 27.8516 10.9941C28.2216 11.4206 28.6916 11.7487 29.2195 11.949C29.4646 12.0525 29.7227 12.1553 30.0068 12.2331C30.2776 12.3233 30.5357 12.4268 30.7681 12.5426C31.0002 12.6588 31.1938 12.788 31.3491 12.9556C31.5037 13.1236 31.5938 13.3169 31.5808 13.562C31.5681 13.8849 31.4262 14.1429 31.1554 14.3106C30.8843 14.4785 30.5487 14.5687 30.1618 14.556C29.7024 14.5423 29.2503 14.4369 28.8322 14.2461C28.4065 14.0398 28.0322 13.7944 27.7224 13.5106L26.7675 14.8398C26.858 14.9302 27.0129 15.0722 27.2065 15.2398C27.4321 15.4209 27.674 15.5808 27.9291 15.7172C28.2129 15.8721 28.5354 16.0014 28.884 16.1172C29.2453 16.2334 29.6326 16.2852 30.0586 16.2982C30.51 16.3109 30.9357 16.2595 31.323 16.1433C31.7103 16.0271 32.0586 15.8591 32.3554 15.6271C32.6486 15.399 32.8868 15.1079 33.0522 14.7753C33.2199 14.4398 33.3103 14.0525 33.3233 13.6268C33.336 13.188 33.2586 12.8007 33.091 12.4782C32.9748 12.1426 32.7684 11.8588 32.4973 11.6264ZM55.8935 11.2791C55.971 11.2017 56.0614 11.0982 56.1389 11.008C56.2291 10.9048 56.3065 10.789 56.371 10.6337C56.4484 10.4791 56.5002 10.3112 56.5519 10.1048C56.5906 9.8985 56.6164 9.6531 56.6164 9.35628C56.6162 9.0696 56.5637 8.78537 56.4614 8.51755C56.3611 8.24773 56.2125 7.99846 56.0227 7.78199C55.8291 7.56263 55.6097 7.36898 55.3386 7.21406C55.0573 7.05218 54.7452 6.95106 54.4224 6.91723C54.203 6.89152 53.9579 6.8658 53.6999 6.8658C53.4287 6.85279 53.1579 6.85279 52.8481 6.85279L50.3446 6.86548V16.3118H53.803C54.1256 16.3118 54.371 16.3118 54.5773 16.2991C54.9259 16.2604 55.2484 16.1829 55.5583 16.0537C55.8548 15.9248 56.1389 15.7442 56.3583 15.5118C56.5906 15.2795 56.7713 14.9956 56.9132 14.6858C57.0507 14.3411 57.1207 13.9731 57.1195 13.602C57.1195 12.9696 56.9906 12.4664 56.7452 12.0922C56.5002 11.7048 56.2164 11.4341 55.8935 11.2791ZM51.9189 8.47882H52.7319C53.003 8.47882 53.2481 8.47882 53.4548 8.49152C53.6611 8.50453 53.8548 8.51755 53.9967 8.53025C54.3192 8.56898 54.5773 8.67247 54.771 8.84009C54.9773 8.99501 55.0805 9.22739 55.0678 9.5112C55.0805 9.87247 54.9646 10.1436 54.771 10.2985C54.5643 10.4531 54.3062 10.5566 53.9837 10.595C53.8287 10.621 53.6481 10.6337 53.4418 10.6337H51.9062V8.47882H51.9189ZM55.171 14.2344C54.9386 14.4534 54.5643 14.5826 54.0481 14.6087C53.8935 14.6214 53.6999 14.6341 53.4418 14.6214H51.9062V12.1823H52.6932C52.9386 12.1823 53.1706 12.1823 53.39 12.1696C53.6094 12.1569 53.803 12.1569 53.9579 12.1696C54.4611 12.1953 54.8354 12.3115 55.1065 12.5179C55.3773 12.7242 55.5195 13.0083 55.5195 13.3826C55.5322 13.7309 55.416 14.015 55.171 14.2344ZM41.0792 11.2274C40.8986 10.7372 40.6405 10.3112 40.3049 9.97564C39.9824 9.62739 39.5951 9.36929 39.1564 9.18834C38.7186 9.0071 38.2492 8.91503 37.7754 8.91755C37.1821 8.91755 36.6529 9.02072 36.2011 9.20136C35.7367 9.39501 35.3494 9.6658 35.0399 10.0014C34.73 10.3369 34.4976 10.7242 34.33 11.1629C34.1751 11.6017 34.0976 12.0791 34.0976 12.5823C34.0976 13.1372 34.2008 13.6407 34.3945 14.1052C34.5832 14.5444 34.8549 14.9432 35.1945 15.2798C35.5302 15.6045 35.9243 15.8628 36.356 16.041C36.7948 16.2087 37.2592 16.2991 37.7497 16.2991C38.2014 16.2991 38.6014 16.2604 38.937 16.1829C39.2455 16.1253 39.5478 16.0389 39.8402 15.9248C40.0881 15.8127 40.3256 15.6788 40.55 15.5248C40.7567 15.3829 40.95 15.2407 41.1437 15.0988L40.3049 13.9245C40.1887 14.015 40.0726 14.1055 39.9306 14.2083C39.7757 14.3115 39.5821 14.402 39.3757 14.4925C39.1694 14.5696 38.937 14.6344 38.6659 14.6861C38.4078 14.7245 38.111 14.7506 37.7884 14.7375C37.6064 14.7226 37.4254 14.6967 37.2465 14.6601C37.0554 14.6095 36.8727 14.5312 36.7043 14.4277C36.5347 14.3078 36.3789 14.1693 36.2399 14.015C36.0979 13.8471 35.9948 13.6404 35.93 13.3953L35.9173 13.3309H41.2986L41.3116 12.9182C41.3373 12.2728 41.2599 11.7179 41.0792 11.2274ZM35.8656 11.9115L35.8786 11.8598C35.9043 11.6534 35.9687 11.5499 36.0335 11.408L36.0722 11.3306C36.1824 11.1457 36.3269 10.9836 36.498 10.8531C36.6666 10.7247 36.86 10.6326 37.0659 10.5823C37.2853 10.5175 37.5046 10.4788 37.724 10.4788C38.2402 10.4918 38.6659 10.6337 38.9757 10.9179C39.1306 11.0468 39.2595 11.176 39.3627 11.3179C39.4662 11.4598 39.5306 11.6274 39.5564 11.8468L39.5694 11.9115H35.8656ZM47.4411 9.64009L47.3379 9.54993C47.1186 9.35628 46.8345 9.20136 46.5119 9.09818C46.2021 8.98199 45.8281 8.91723 45.4021 8.91723C44.9246 8.91723 44.4729 9.00771 44.0602 9.18866C43.6521 9.3557 43.2863 9.61127 42.9891 9.93691C42.6792 10.2595 42.4468 10.6598 42.2662 11.1242C42.0986 11.576 42.0081 12.0922 42.0081 12.6598C42.0081 13.1633 42.0986 13.6407 42.2662 14.0795C42.4468 14.5182 42.6792 14.8921 42.9891 15.228C43.2975 15.5509 43.66 15.8173 44.0602 16.0153C44.4729 16.1956 44.9116 16.2861 45.4021 16.2861C45.8281 16.2861 46.2021 16.2344 46.5119 16.1182C46.8345 16.0023 47.1186 15.8344 47.3379 15.628L47.4411 15.5248V16.2731H49.1059V9.1239H47.4411V9.64009ZM47.2862 13.5115C47.183 13.7569 47.0411 13.9763 46.8732 14.1439C46.7056 14.3118 46.5119 14.4277 46.2926 14.5182C46.0728 14.5953 45.8416 14.6346 45.6087 14.6344C45.0795 14.6344 44.6408 14.4534 44.2795 14.1052C43.9179 13.7309 43.7503 13.2407 43.7503 12.6341C43.7503 12.0404 43.931 11.5499 44.2795 11.1629C44.6408 10.7756 45.0795 10.582 45.6087 10.582C45.8538 10.582 46.0862 10.6337 46.2926 10.7242C46.5249 10.8144 46.7183 10.9433 46.8732 11.1242C47.0411 11.2918 47.183 11.5115 47.2862 11.7823C47.3894 12.0404 47.4411 12.3242 47.4411 12.6598C47.4411 12.9696 47.3894 13.2534 47.2862 13.5115ZM63.043 9.64009L62.9398 9.54993C62.7205 9.35628 62.4367 9.20136 62.1138 9.09818C61.8043 8.98199 61.43 8.91723 61.0043 8.91723C60.5268 8.91723 60.0751 9.00771 59.6621 9.18866C59.254 9.3557 58.8882 9.61127 58.591 9.93691C58.2811 10.2595 58.0491 10.6598 57.8684 11.1242C57.7005 11.576 57.6103 12.0922 57.6103 12.6598C57.6103 13.1633 57.7005 13.6407 57.8684 14.0795C58.0491 14.5182 58.2811 14.8921 58.591 15.228C58.8995 15.5508 59.2619 15.8172 59.6621 16.0153C60.0751 16.1956 60.5138 16.2861 61.0043 16.2861C61.43 16.2861 61.8043 16.2344 62.1138 16.1182C62.4367 16.0023 62.7205 15.8344 62.9398 15.628L63.043 15.5248V16.2731H64.7078V9.16263H63.043V9.64009ZM62.8881 13.5115C62.7849 13.7569 62.643 13.9763 62.4754 14.1439C62.3075 14.3118 62.1138 14.4277 61.8945 14.5182C61.6747 14.5953 61.4435 14.6346 61.2106 14.6344C60.6814 14.6344 60.2427 14.4534 59.8814 14.1052C59.5202 13.7309 59.3522 13.2407 59.3522 12.6341C59.3522 12.0404 59.5329 11.5499 59.8814 11.1629C60.2427 10.7756 60.6814 10.582 61.2106 10.582C61.4557 10.582 61.6751 10.6337 61.8945 10.7242C62.1268 10.8144 62.3205 10.9433 62.4754 11.1242C62.643 11.2918 62.7849 11.5115 62.8881 11.7823C62.9916 12.0404 63.043 12.3242 63.043 12.6598C63.043 12.9696 62.9916 13.2534 62.8881 13.5115ZM76.864 12.2474L79.8967 8.93088H77.7027L75.1992 11.6537V6.74993H73.5218V16.2991H75.1992V14.1315L75.7541 13.5118L77.9221 16.2991H79.9998L76.864 12.2474ZM72.0246 10.5823C71.8697 10.1436 71.5732 9.7566 71.1471 9.43406C70.7214 9.1112 70.1792 8.94358 69.5341 8.94358C69.1986 8.94358 68.85 8.99501 68.5018 9.0985C68.1967 9.18983 67.912 9.33876 67.663 9.53723V9.16263H65.9722V16.2991H67.663V12.4795C67.6757 12.2214 67.7018 11.9763 67.7275 11.7439C67.7662 11.4988 67.8306 11.2922 67.9338 11.1115C68.037 10.9309 68.1919 10.789 68.3856 10.6728C68.5792 10.5566 68.8243 10.4918 69.1211 10.4791C69.4954 10.4664 69.7922 10.5696 70.0246 10.7633C70.2567 10.9696 70.4116 11.2277 70.4891 11.5633C70.5278 11.7182 70.5535 11.9245 70.5795 12.1826C70.5922 12.4277 70.6052 12.789 70.6052 13.2668V16.2991H72.27V12.8541C72.2721 12.4494 72.2592 12.0448 72.2313 11.641C72.2073 11.2809 72.1379 10.9253 72.0246 10.5826V10.5823Z" fill="#EA5F00"/>
</g>
<defs>
<clipPath id="clip0_801_7248">
<rect width="79.9998" height="25.467" fill="white"/>
</clipPath>
</defs>
</svg>
