<svg width="80" height="24" viewBox="0 0 80 24" fill="none" xmlns="http://www.w3.org/2000/svg">
<g clip-path="url(#clip0_801_6857)">
<path d="M11.1442 0.166575C4.79245 0.453698 -0.123719 5.83452 0.165596 12.1841C0.452719 18.5359 5.83354 23.4499 12.1831 23.1627C18.5349 22.8778 23.4467 17.4948 23.1596 11.1452C22.8834 4.97096 17.7919 0.155616 11.6746 0.155616C11.4993 0.155616 11.3218 0.16 11.1442 0.166575Z" fill="url(#paint0_radial_801_6857)"/>
<path d="M11.4533 0C11.3481 0.00219178 11.245 0.00657534 11.1398 0.0109589C4.70039 0.302466 -0.279334 5.75561 0.0121724 12.1929C0.29272 18.4175 5.40395 23.2811 11.5629 23.3337H11.7557C11.9026 23.3337 12.0472 23.3293 12.1941 23.3227C18.3946 23.0422 23.245 17.9682 23.3305 11.84V11.5068C23.3305 11.3841 23.3261 11.2614 23.3196 11.1386C23.0412 4.96 18.0001 0.120548 11.9048 0H11.4533ZM12.5272 21.9266C12.5163 21.6636 12.902 21.5956 12.902 21.5956C16.3519 20.9162 15.3437 18.6542 14.1229 17.4992C13.61 17.0126 8.8056 12.8701 8.8056 12.8701C4.22478 8.92712 4.5908 5.84767 4.5908 5.84767C4.81217 2.05808 8.13053 1.12 10.6379 1.33699C10.9316 1.3611 11.0938 1.54082 11.0412 1.7863C10.9864 2.05151 10.5985 2.07123 10.5985 2.07123C9.80067 2.11945 9.08614 2.20055 8.54258 2.56438C6.51957 3.92548 7.11793 6.23781 9.81382 8.81315C10.1535 9.13972 10.513 9.47945 10.8834 9.82575C10.8834 9.82575 11.4248 10.3036 12.5031 11.3293C14.5766 13.2405 15.7119 14.2707 15.7119 14.2707C19.3656 17.3151 18.1185 20.0964 16.7223 21.0652C15.6571 21.8038 14.4757 22.1501 12.9305 22.2312L12.8889 22.2356C12.7442 22.2356 12.536 22.1479 12.525 21.9244M13.382 10.6871C12.1963 10.4373 11.9552 9.36328 11.9552 9.36328C11.8566 8.98411 11.8346 8.50849 11.9135 7.89918C12.0757 6.62575 12.4177 6.02739 12.8078 5.04109C13.336 3.71507 12.0538 2.93918 12.2664 2.4526C12.5557 1.79288 13.4719 2.63233 14.4911 2.6937C15.37 2.74192 15.8982 2.69808 16.582 2.79014C17.4894 2.91068 18.5744 3.21753 19.0566 3.7874C19.4993 4.30685 18.822 4.94027 18.0089 4.54137C17.4149 4.25205 16.6653 4.42959 17.1037 5.04986C17.6341 5.63945 17.8861 5.65698 18.4253 5.79726C19.9114 6.18739 19.9398 7.60986 18.9382 8.34849C17.7919 9.18575 16.6368 8.84164 16.17 7.19781C15.9355 6.37808 15.3568 5.96164 14.7629 6.19397C14.1733 6.4263 14.5218 7.50465 14.9711 8.50411C15.7492 10.4942 14.1711 10.6981 13.5727 10.6981C13.4807 10.6981 13.4127 10.6937 13.3798 10.6893M9.03354 21.554C7.74478 21.4268 6.20395 21.0214 4.86478 19.8619C3.63299 18.7967 2.86806 17.3282 2.49765 16.0438C2.11847 14.7244 1.95847 13.1836 2.58532 13.3063C2.7782 13.3436 3.11135 14.1918 3.47299 14.8077C3.84779 15.4433 4.15245 15.7962 4.43738 16.011C4.56669 16.1074 5.00724 15.1299 5.64505 14.5731C6.01765 14.2663 6.42532 14.1611 6.49108 15.0773C6.56998 16.2016 6.36834 17.5364 6.69491 17.5364C7.00176 17.5364 7.69436 17.3041 9.21327 17.177C9.78313 17.1288 10.1075 17.2362 9.56395 18.0055C9.29217 18.3868 8.92834 18.9282 8.06697 19.5463C9.35793 20.7562 10.9075 20.6093 10.9338 21.1244C10.9492 21.4203 10.3705 21.5847 9.61217 21.5847C9.42806 21.5847 9.23299 21.5737 9.03135 21.5562" fill="url(#paint1_radial_801_6857)"/>
<path d="M30.09 7.08164C31.2516 8.51068 32.8275 9.33698 34.2544 9.24493L34.41 9.23616V8.3726L34.2653 8.35506C32.2818 8.11178 31.1289 6.49205 31.1048 3.91013V3.74137H28.4483C28.33 3.74137 28.0187 3.73479 28.0187 3.98685C28.0187 4.07013 28.0516 4.26082 28.3585 4.26082C28.4966 4.26082 28.6193 4.27397 28.7113 4.29808C28.8187 4.32219 28.9283 4.37479 28.959 4.71233C28.9481 6.72 27.7053 8.22136 25.9409 8.35068L25.7897 8.36164V9.24273H25.9541C27.2275 9.24273 28.8407 8.99068 30.0922 7.07726" fill="#7E8082"/>
<path d="M30.8681 14.0515C30.0987 14.0515 29.7415 13.6482 29.7415 12.7847V10.4197H27.267C27.1508 10.4197 26.8396 10.4153 26.8396 10.6674C26.8396 10.7485 26.8746 10.9414 27.1793 10.9414C27.3174 10.9414 27.4379 10.9545 27.5322 10.9786C27.6461 11.0049 27.7601 11.0619 27.7842 11.4389V12.2674C27.7842 12.5545 27.85 15.0751 30.0987 15.0751H37.4171V14.0537H30.8703L30.8681 14.0515Z" fill="#7E8082"/>
<path d="M34.8966 3.64493C34.7782 3.64493 34.467 3.64055 34.467 3.8926C34.467 3.9737 34.4998 4.16657 34.8067 4.16657C34.947 4.16657 35.0675 4.17972 35.1596 4.20383C35.2648 4.22794 35.3722 4.27616 35.405 4.5852V11.0948H37.3601V3.64493H34.8966Z" fill="#7E8082"/>
<path d="M44.102 8.80876C43.085 8.80876 42.2544 8.03068 42.2544 7.07506C42.2544 6.11945 43.0829 5.33918 44.102 5.33918C45.1212 5.33918 45.9519 6.11726 45.9519 7.07506C45.9519 8.03287 45.1234 8.80876 44.102 8.80876ZM40.3344 7.15616C40.3344 8.65096 42.0198 9.86739 44.0955 9.86739C46.1711 9.86739 47.8566 8.65096 47.8566 7.15616C47.8566 6.36712 47.3853 5.65698 46.6401 5.16164H48.2555V4.15123H45.1848V3.04H42.7081C42.5919 3.04 42.2785 3.03561 42.2785 3.28767C42.2785 3.37096 42.3113 3.56164 42.6204 3.56164C42.7585 3.56164 42.879 3.57479 42.9733 3.5989C43.0829 3.6252 43.1946 3.68 43.2231 4.03507C43.2231 4.02849 43.2231 4.08548 43.2231 4.15123H39.5913L40.1919 5.16164H41.5574C40.81 5.65917 40.3409 6.36712 40.3409 7.15616" fill="#7E8082"/>
<path d="M44.913 14.0559C43.8982 14.0559 43.7864 13.6504 43.7864 12.7868V10.4263H41.3119C41.1957 10.4263 40.8845 10.4241 40.8845 10.674C40.8845 10.7573 40.9174 10.9479 41.2242 10.9479C41.3623 10.9479 41.485 10.9611 41.5771 10.9852C41.6867 11.0115 41.8029 11.0663 41.8292 11.4323V12.2652C41.8292 14.0997 42.627 15.0707 44.1437 15.0707H51.473V14.0537H44.913V14.0559Z" fill="#7E8082"/>
<path d="M53.1607 6.65424V5.63507H51.519V3.64493H49.0555C48.9393 3.64493 48.6281 3.64055 48.6281 3.8926C48.6281 3.9737 48.6609 4.16657 48.9678 4.16657C49.1059 4.16657 49.2286 4.17972 49.3185 4.20383C49.4127 4.22356 49.507 4.2674 49.5508 4.49534V11.097H51.519V6.65424H53.1607Z" fill="#7E8082"/>
<path d="M70.2522 6.97205C70.2522 6.11287 70.8461 5.41589 71.5738 5.41589C72.3015 5.41589 72.8955 6.11287 72.8955 6.97205C72.8955 7.83123 72.3015 8.52822 71.5738 8.52822C70.8461 8.52822 70.2522 7.83123 70.2522 6.97205ZM74.6467 7.05972C74.6467 6.3452 74.2741 5.70301 73.6823 5.24931H75.0566V4.24329H72.6237V3.09699H70.2938C70.1535 3.09699 69.8642 3.09699 69.8642 3.34246C69.8642 3.42575 69.8971 3.61644 70.2061 3.61644C70.3464 3.61644 70.3508 3.62959 70.445 3.65589C70.5568 3.68219 70.6774 3.74137 70.6971 4.12493L70.7037 4.24109H67.6637L68.2664 5.24712H69.5355C68.9437 5.70082 68.5711 6.34301 68.5711 7.05753C68.5711 8.4252 69.9344 9.53863 71.6089 9.53863C73.2834 9.53863 74.6445 8.4252 74.6445 7.05753" fill="#7E8082"/>
<path d="M74.925 14.3627C73.3864 14.3627 72.1349 13.5649 72.1349 12.5874C72.1349 11.6099 73.3864 10.8099 74.925 10.8099C76.4637 10.8099 77.7152 11.6077 77.7152 12.5874C77.7152 13.5671 76.4637 14.3627 74.925 14.3627ZM74.9294 9.82356C72.2379 9.82356 70.0483 11.0597 70.0483 12.5808C70.0483 14.1019 72.2379 15.3381 74.9294 15.3381C77.6209 15.3381 79.8083 14.0997 79.8083 12.5808C79.8083 11.0619 77.6209 9.82356 74.9294 9.82356Z" fill="#7E8082"/>
<path d="M60.6259 7.60109C59.039 7.60109 57.7459 6.77917 57.7459 5.76876C57.7459 4.75835 59.0368 3.93644 60.6259 3.93644C62.2149 3.93644 63.5059 4.75835 63.5059 5.76876C63.5059 6.77917 62.2149 7.60109 60.6259 7.60109ZM60.6303 2.91507C57.8511 2.91507 55.5935 4.19287 55.5935 5.76219C55.5935 7.3315 57.8533 8.60931 60.6303 8.60931C63.4072 8.60931 65.6648 7.3337 65.6648 5.76219C65.6648 4.19068 63.4051 2.91507 60.6303 2.91507Z" fill="#7E8082"/>
<path d="M79.999 3.49151H78.2631V5.59561H77.5464V3.49151H75.3656C75.2275 3.49151 74.936 3.48712 74.936 3.73479C74.936 3.81808 74.9689 4.01096 75.2779 4.01096C75.4182 4.01096 75.4642 4.02411 75.5563 4.05041C75.6703 4.07671 75.8105 4.13151 75.8105 4.51726V9.46191H77.5464V6.55342H78.2631V9.46191H79.999V3.49151Z" fill="#7E8082"/>
<path d="M55.8478 10.7222C55.8478 10.7222 55.8697 11.7896 55.8763 12.3551C55.9092 14.2422 56.742 15.1079 58.3026 15.0663H65.6626V14.0493H58.8856C57.8708 14.0493 57.759 13.6416 57.759 12.7803V10.2597H66.4889V9.1989H53.8226L54.4385 10.2597H55.4445C55.4445 10.2597 55.8171 10.2203 55.8456 10.7047V10.7222H55.8478Z" fill="#7E8082"/>
<path d="M30.7344 16.3244V18.0625H30.5963C30.5524 17.7293 30.4713 17.4641 30.3574 17.2647C30.2434 17.0674 30.079 16.9096 29.8664 16.7934C29.6538 16.6773 29.4346 16.6203 29.2067 16.6203C28.9503 16.6203 28.7377 16.6992 28.5689 16.8548C28.4001 17.0126 28.3168 17.1901 28.3168 17.3896C28.3168 17.543 28.3694 17.6833 28.4768 17.8082C28.6303 17.9945 28.9941 18.24 29.5705 18.549C30.0396 18.8011 30.3596 18.994 30.5327 19.1299C30.7037 19.2636 30.8374 19.4236 30.9294 19.6055C31.0215 19.7874 31.0675 19.9803 31.0675 20.1797C31.0675 20.5589 30.9207 20.8877 30.6248 21.1638C30.3289 21.44 29.9497 21.5781 29.485 21.5781C29.3382 21.5781 29.2023 21.5671 29.073 21.5452C28.9963 21.532 28.8385 21.4882 28.5974 21.4093C28.3563 21.3326 28.205 21.2931 28.1393 21.2931C28.0735 21.2931 28.0297 21.3107 27.9924 21.3479C27.9574 21.3852 27.9311 21.4619 27.9135 21.5781H27.7755V19.8553H27.9135C27.9771 20.217 28.0648 20.4866 28.1722 20.6641C28.2818 20.8438 28.4461 20.9929 28.6697 21.1112C28.8933 21.2296 29.1387 21.2888 29.4061 21.2888C29.7152 21.2888 29.9585 21.2077 30.1382 21.0433C30.3179 20.8811 30.4078 20.6882 30.4078 20.4646C30.4078 20.3419 30.3749 20.217 30.3048 20.0899C30.2368 19.9627 30.1316 19.8466 29.9892 19.737C29.8927 19.6625 29.6297 19.5047 29.2001 19.2636C28.7705 19.0225 28.4637 18.8296 28.284 18.6871C28.102 18.5447 27.964 18.3847 27.8697 18.2137C27.7755 18.0427 27.7294 17.8499 27.7294 17.6438C27.7294 17.2822 27.8675 16.9731 28.1437 16.7123C28.4198 16.4515 28.7727 16.3222 29.2001 16.3222C29.4675 16.3222 29.7503 16.3879 30.0483 16.5194C30.1864 16.5808 30.285 16.6115 30.342 16.6115C30.4056 16.6115 30.4582 16.5918 30.4998 16.5545C30.5415 16.5173 30.5744 16.4384 30.5985 16.3222H30.7366L30.7344 16.3244Z" fill="#7D7E81"/>
<path d="M32.8933 19.0225H35.0083V17.7183C35.0083 17.486 34.993 17.3326 34.9645 17.2581C34.9426 17.2011 34.8944 17.1529 34.8242 17.1134C34.7278 17.0586 34.627 17.0323 34.5196 17.0323H34.3574V16.9074H36.3059V17.0323H36.1437C36.0363 17.0323 35.9333 17.0586 35.839 17.109C35.7667 17.1441 35.7185 17.1989 35.6922 17.2712C35.6659 17.3436 35.6527 17.4926 35.6527 17.7162V20.6553C35.6527 20.8855 35.6681 21.0389 35.6966 21.1112C35.7185 21.1682 35.7645 21.2164 35.8346 21.2559C35.9333 21.3085 36.0363 21.337 36.1437 21.337H36.3059V21.4619H34.3574V21.337H34.5196C34.7059 21.337 34.8418 21.2822 34.925 21.1726C34.982 21.1003 35.0083 20.9293 35.0083 20.6553V19.2679H32.8933V20.6553C32.8933 20.8855 32.9086 21.0389 32.9371 21.1112C32.959 21.1682 33.0072 21.2164 33.0774 21.2559C33.1738 21.3085 33.2746 21.337 33.382 21.337H33.5464V21.4619H31.5957V21.337H31.7579C31.9464 21.337 32.0823 21.2822 32.1678 21.1726C32.2226 21.1003 32.2489 20.9293 32.2489 20.6553V17.7162C32.2489 17.4838 32.2335 17.3304 32.205 17.2559C32.1831 17.1989 32.1371 17.1507 32.067 17.1112C31.9683 17.0564 31.8653 17.0301 31.7579 17.0301H31.5957V16.9052H33.5464V17.0301H33.382C33.2746 17.0301 33.1716 17.0564 33.0774 17.1068C33.0072 17.1419 32.959 17.1967 32.9327 17.269C32.9064 17.3414 32.8933 17.4904 32.8933 17.714V19.0225Z" fill="#7D7E81"/>
<path d="M38.5744 21.3414V21.4663H36.6237V21.3414H36.7859C36.9744 21.3414 37.1103 21.2866 37.1957 21.177C37.2505 21.1046 37.2768 20.9337 37.2768 20.6597V17.7183C37.2768 17.4882 37.2615 17.3348 37.233 17.2625C37.2111 17.2055 37.1651 17.1573 37.0949 17.1178C36.9963 17.063 36.8933 17.0367 36.7859 17.0367H36.6237V16.9118H38.5744V17.0367H38.41C38.2237 17.0367 38.0878 17.0915 38.0045 17.2011C37.9475 17.2734 37.9212 17.4444 37.9212 17.7183V20.6597C37.9212 20.8899 37.9366 21.0433 37.965 21.1156C37.987 21.1726 38.0352 21.2208 38.1053 21.2603C38.2018 21.3129 38.3026 21.3414 38.41 21.3414H38.5744Z" fill="#7D7E81"/>
<path d="M38.6576 16.9096H39.8938L42.6774 20.3244V17.6986C42.6774 17.4181 42.6467 17.2449 42.5831 17.1748C42.4998 17.0805 42.3683 17.0345 42.1908 17.0345H42.033V16.9096H43.6176V17.0345H43.4555C43.2626 17.0345 43.1267 17.0937 43.0456 17.2099C42.9952 17.2822 42.9711 17.4444 42.9711 17.7008V21.5408H42.8505L39.8478 17.874V20.6794C39.8478 20.96 39.8785 21.1331 39.9376 21.2033C40.0231 21.2975 40.1546 21.3436 40.33 21.3436H40.4922V21.4685H38.9075V21.3436H39.0653C39.2604 21.3436 39.3985 21.2844 39.4796 21.1682C39.5278 21.0959 39.5541 20.9337 39.5541 20.6772V17.5101C39.4226 17.3545 39.3218 17.2537 39.2538 17.2055C39.1859 17.1551 39.085 17.1112 38.9535 17.0674C38.8878 17.0477 38.7892 17.0367 38.6576 17.0367V16.9096Z" fill="#7D7E81"/>
<path d="M45.1322 19.0225H47.2472V17.7183C47.2472 17.486 47.2319 17.3326 47.2034 17.2581C47.1815 17.2011 47.1333 17.1529 47.0631 17.1134C46.9667 17.0586 46.8659 17.0323 46.7585 17.0323H46.5963V16.9074H48.5448V17.0323H48.3826C48.2752 17.0323 48.1722 17.0586 48.0779 17.109C48.0056 17.1441 47.9574 17.1989 47.9311 17.2712C47.9048 17.3436 47.8916 17.4926 47.8916 17.7162V20.6553C47.8916 20.8855 47.907 21.0389 47.9355 21.1112C47.9574 21.1682 48.0034 21.2164 48.0735 21.2559C48.1722 21.3085 48.2752 21.337 48.3826 21.337H48.5448V21.4619H46.5963V21.337H46.7585C46.9448 21.337 47.0807 21.2822 47.164 21.1726C47.2209 21.1003 47.2472 20.9293 47.2472 20.6553V19.2679H45.1322V20.6553C45.1322 20.8855 45.1475 21.0389 45.176 21.1112C45.1979 21.1682 45.2461 21.2164 45.3163 21.2559C45.4127 21.3085 45.5135 21.337 45.6209 21.337H45.7853V21.4619H43.8346V21.337H43.9968C44.1853 21.337 44.3212 21.2822 44.4067 21.1726C44.4615 21.1003 44.4878 20.9293 44.4878 20.6553V17.7162C44.4878 17.4838 44.4724 17.3304 44.444 17.2559C44.422 17.1989 44.376 17.1507 44.3059 17.1112C44.2072 17.0564 44.1042 17.0301 43.9968 17.0301H43.8346V16.9052H45.7853V17.0301H45.6209C45.5135 17.0301 45.4105 17.0564 45.3163 17.1068C45.2461 17.1419 45.1979 17.1967 45.1716 17.269C45.1453 17.3414 45.1322 17.4904 45.1322 17.714V19.0225Z" fill="#7D7E81"/>
<path d="M51.8368 19.9408H50.0724L49.7634 20.6597C49.6867 20.8373 49.6494 20.9688 49.6494 21.0564C49.6494 21.1266 49.6823 21.1857 49.7481 21.2405C49.8138 21.2931 49.9563 21.3282 50.1755 21.3436V21.4685H48.742V21.3436C48.9327 21.3107 49.0555 21.2668 49.1124 21.212C49.2264 21.1046 49.3535 20.8855 49.4916 20.5567L51.0938 16.8088H51.2122L52.7968 20.5983C52.924 20.903 53.0401 21.1003 53.1453 21.1923C53.2505 21.2822 53.3952 21.3348 53.5793 21.3457V21.4707H51.782V21.3457C51.964 21.337 52.0867 21.3063 52.1503 21.2559C52.2138 21.2055 52.2467 21.1419 52.2467 21.0674C52.2467 20.9688 52.2029 20.8131 52.113 20.6005L51.8368 19.9452V19.9408ZM51.7426 19.6931L50.9711 17.852L50.1777 19.6931H51.7426Z" fill="#7D7E81"/>
<path d="M53.5705 16.9096H54.8067L57.5903 20.3244V17.6986C57.5903 17.4181 57.5596 17.2449 57.496 17.1748C57.4127 17.0805 57.2834 17.0345 57.1037 17.0345H56.9459V16.9096H58.5305V17.0345H58.3683C58.1755 17.0345 58.0396 17.0937 57.9585 17.2099C57.9103 17.2822 57.884 17.4444 57.884 17.7008V21.5408H57.7634L54.7607 17.874V20.6794C54.7607 20.96 54.7913 21.1331 54.8505 21.2033C54.936 21.2975 55.0675 21.3436 55.2429 21.3436H55.405V21.4685H53.8204V21.3436H53.9782C54.1733 21.3436 54.3113 21.2844 54.3924 21.1682C54.4407 21.0959 54.467 20.9337 54.467 20.6772V17.5101C54.3355 17.3545 54.2346 17.2537 54.1667 17.2055C54.0987 17.1551 53.9979 17.1112 53.8664 17.0674C53.8007 17.0477 53.702 17.0367 53.5705 17.0367V16.9096Z" fill="#7D7E81"/>
<path d="M63.53 19.1408C63.8456 19.2088 64.0823 19.3162 64.2379 19.463C64.4549 19.669 64.5645 19.9211 64.5645 20.2192C64.5645 20.4449 64.4922 20.6619 64.3497 20.8701C64.2072 21.0783 64.01 21.2296 63.7601 21.3238C63.5103 21.4181 63.1289 21.4663 62.616 21.4663H60.4659V21.3414H60.6368C60.8275 21.3414 60.9634 21.28 61.0467 21.1594C61.0993 21.0805 61.1234 20.914 61.1234 20.6597V17.7183C61.1234 17.4356 61.0905 17.2581 61.027 17.1836C60.9393 17.0849 60.81 17.0367 60.6368 17.0367H60.4659V16.9118H62.4341C62.8023 16.9118 63.096 16.9381 63.3174 16.9929C63.6527 17.074 63.9092 17.2164 64.0867 17.4203C64.2642 17.6241 64.3519 17.8608 64.3519 18.1282C64.3519 18.3562 64.2818 18.56 64.1437 18.7419C64.0056 18.9216 63.7996 19.0553 63.53 19.143V19.1408ZM61.77 18.9589C61.8533 18.9742 61.9475 18.9874 62.0527 18.994C62.1601 19.0027 62.2763 19.0049 62.4034 19.0049C62.73 19.0049 62.9755 18.9699 63.1398 18.8997C63.3042 18.8296 63.4313 18.7222 63.5168 18.5753C63.6045 18.4285 63.6483 18.2707 63.6483 18.0975C63.6483 17.8301 63.5409 17.6044 63.3218 17.4159C63.1048 17.2274 62.787 17.1331 62.3705 17.1331C62.147 17.1331 61.9453 17.1573 61.7656 17.2077V18.9567L61.77 18.9589ZM61.77 21.1353C62.0286 21.1967 62.285 21.2252 62.5393 21.2252C62.9448 21.2252 63.2538 21.1331 63.4664 20.9512C63.679 20.7693 63.7864 20.5436 63.7864 20.274C63.7864 20.0964 63.7382 19.9277 63.6418 19.7633C63.5453 19.5989 63.3897 19.4718 63.1705 19.3775C62.9535 19.2833 62.684 19.2373 62.364 19.2373C62.2259 19.2373 62.1075 19.2373 62.0089 19.2438C61.9103 19.2482 61.8313 19.257 61.77 19.2679V21.1353Z" fill="#7D7E81"/>
<path d="M68.0933 19.9408H66.3311L66.022 20.6597C65.9453 20.8373 65.9081 20.9688 65.9081 21.0564C65.9081 21.1266 65.9409 21.1857 66.0067 21.2405C66.0724 21.2931 66.2149 21.3282 66.4341 21.3436V21.4685H65.0007V21.3436C65.1914 21.3107 65.3141 21.2668 65.3711 21.212C65.4851 21.1046 65.6122 20.8855 65.7503 20.5567L67.3524 16.8088H67.4708L69.0555 20.5983C69.1826 20.903 69.2988 21.1003 69.404 21.1923C69.5092 21.2822 69.6538 21.3348 69.8379 21.3457V21.4707H68.0407V21.3457C68.2226 21.337 68.3453 21.3063 68.4089 21.2559C68.4724 21.2055 68.5053 21.1419 68.5053 21.0674C68.5053 20.9688 68.4615 20.8131 68.3716 20.6005L68.0955 19.9452L68.0933 19.9408ZM67.999 19.6931L67.2275 17.852L66.4341 19.6931H67.999Z" fill="#7D7E81"/>
<path d="M69.827 16.9096H71.0631L73.8467 20.3244V17.6986C73.8467 17.4181 73.816 17.2449 73.7524 17.1748C73.6692 17.0805 73.5377 17.0345 73.3601 17.0345H73.2023V16.9096H74.787V17.0345H74.6248C74.4319 17.0345 74.296 17.0937 74.2149 17.2099C74.1645 17.2822 74.1404 17.4444 74.1404 17.7008V21.5408H74.0198L71.0171 17.874V20.6794C71.0171 20.96 71.0478 21.1331 71.107 21.2033C71.1924 21.2975 71.324 21.3436 71.4993 21.3436H71.6615V21.4685H70.0768V21.3436H70.2346C70.4297 21.3436 70.5678 21.2844 70.6489 21.1682C70.6971 21.0959 70.7234 20.9337 70.7234 20.6772V17.5101C70.5919 17.3545 70.4911 17.2537 70.4231 17.2055C70.3552 17.1551 70.2544 17.1112 70.1229 17.0674C70.0571 17.0477 69.9585 17.0367 69.827 17.0367V16.9096Z" fill="#7D7E81"/>
<path d="M76.9437 18.9392L78.6226 20.6093C78.8987 20.8855 79.1333 21.0718 79.3283 21.1726C79.5234 21.2712 79.7185 21.3282 79.9135 21.3414V21.4663H77.7481V21.3414C77.8774 21.3414 77.9716 21.3194 78.0286 21.2756C78.0856 21.2318 78.1141 21.1836 78.1141 21.1288C78.1141 21.074 78.1031 21.0279 78.0812 20.9841C78.0593 20.9425 77.9892 20.8614 77.8708 20.7452L76.2993 19.189V20.6575C76.2993 20.8877 76.3146 21.0411 76.3431 21.1134C76.3651 21.1704 76.4133 21.2186 76.4834 21.2581C76.5798 21.3107 76.6807 21.3392 76.7881 21.3392H76.9415V21.4641H74.9996V21.3392H75.1618C75.3503 21.3392 75.4861 21.2844 75.5716 21.1748C75.6264 21.1025 75.6527 20.9315 75.6527 20.6575V17.7162C75.6527 17.486 75.6374 17.3326 75.6089 17.2559C75.587 17.2033 75.5409 17.1551 75.4708 17.1156C75.3722 17.0608 75.2692 17.0345 75.1618 17.0345H74.9996V16.9096H76.9415V17.0345H76.7881C76.6829 17.0345 76.5798 17.0608 76.4834 17.1112C76.4133 17.1463 76.365 17.2011 76.3387 17.2734C76.3124 17.3457 76.2993 17.4926 76.2993 17.7162V19.1101C76.3431 19.0685 76.4966 18.926 76.7596 18.6827C77.4237 18.0734 77.827 17.6679 77.965 17.4641C78.0264 17.3742 78.0549 17.2953 78.0549 17.2296C78.0549 17.1792 78.0308 17.1331 77.9848 17.0937C77.9387 17.0542 77.8577 17.0345 77.7459 17.0345H77.6407V16.9096H79.313V17.0345C79.2144 17.0345 79.1245 17.0499 79.0434 17.074C78.9623 17.0981 78.8637 17.1463 78.7475 17.2164C78.6313 17.2866 78.4889 17.4005 78.3179 17.5562C78.2697 17.6 78.0418 17.8301 77.6363 18.2444L76.9415 18.937L76.9437 18.9392Z" fill="#7D7E81"/>
</g>
<defs>
<radialGradient id="paint0_radial_801_6857" cx="0" cy="0" r="1" gradientUnits="userSpaceOnUse" gradientTransform="translate(47.5783 8.47263) scale(37.8739 11.0464)">
<stop stop-color="white"/>
<stop offset="1" stop-color="#CF9C51"/>
</radialGradient>
<radialGradient id="paint1_radial_801_6857" cx="0" cy="0" r="1" gradientUnits="userSpaceOnUse" gradientTransform="translate(46.5929 8.90332) scale(83.5495 24.366)">
<stop stop-color="#00C0F3"/>
<stop offset="0.22" stop-color="#0097D6"/>
<stop offset="0.57" stop-color="#0066B3"/>
<stop offset="1" stop-color="#0066B3"/>
</radialGradient>
<clipPath id="clip0_801_6857">
<rect width="79.999" height="23.3337" fill="white"/>
</clipPath>
</defs>
</svg>
