<svg width="80" height="18" viewBox="0 0 80 18" fill="none" xmlns="http://www.w3.org/2000/svg">
<g clip-path="url(#clip0_801_7156)">
<path d="M0 1.6325C0 0.731411 0.730406 1.90735e-06 1.63249 1.90735e-06H16.2913C17.1924 1.90735e-06 17.9238 0.731411 17.9238 1.6325V16.2923C17.9238 17.1934 17.1924 17.9248 16.2913 17.9248H1.63249C0.730406 17.9248 0 17.1934 0 16.2923V1.6325Z" fill="#ED1D24"/>
<path d="M14.1696 9.12809C14.0707 12.5537 11.2615 15.3011 7.81032 15.3011C4.36009 15.3011 1.55092 12.5537 1.45203 9.12809H1.76678C1.79439 11.8118 3.97858 13.9794 6.66928 13.9794C9.36049 13.9794 11.5442 11.8118 11.5713 9.12809H14.1696Z" fill="white"/>
<path d="M17.1228 9.12818C17.0345 13.5598 13.4146 17.125 8.96137 17.125C4.50815 17.125 0.888251 13.5598 0.800903 9.12818H1.13423C1.24015 12.7295 4.1934 15.616 7.82033 15.616C11.4468 15.616 14.4 12.7295 14.5059 9.12818H17.1228Z" fill="white"/>
<path d="M11.2401 9.1281C11.2205 11.6381 9.17991 13.6656 6.66541 13.6656C4.15141 13.6656 2.11029 11.6381 2.09021 9.1281H2.42856C2.42655 9.16525 2.42655 9.2034 2.42655 9.24105C2.42655 11.0467 3.89037 12.5106 5.69555 12.5106C7.50174 12.5106 8.96556 11.0467 8.96556 9.24105C8.96556 9.2034 8.96556 9.16525 8.96355 9.1281H11.2401Z" fill="white"/>
<path d="M6.68286 8.79675C6.70244 6.28677 8.74356 4.25921 11.2576 4.25921C13.7726 4.25921 15.8127 6.28677 15.8328 8.79675H15.4954C15.4964 8.75961 15.4974 8.72145 15.4974 8.6838C15.4974 6.87812 14.0336 5.4143 12.2274 5.4143C10.4212 5.4143 8.95741 6.87812 8.95741 8.6838C8.95741 8.72145 8.95841 8.75961 8.95942 8.79675H6.68286Z" fill="white"/>
<path d="M0.801025 8.79675C0.888373 4.36513 4.50928 0.799944 8.96149 0.799944C13.4147 0.799944 17.0346 4.36513 17.123 8.79675H16.7886C16.6827 5.19543 13.7305 2.30895 10.1025 2.30895C6.4761 2.30895 3.52386 5.19543 3.41794 8.79675H0.801025Z" fill="white"/>
<path d="M3.75427 8.79675C3.85317 5.37113 6.66234 2.6237 10.1126 2.6237C13.5628 2.6237 16.372 5.37113 16.4709 8.79675H16.1561C16.1295 6.11308 13.9453 3.94546 11.2536 3.94546C8.56341 3.94546 6.37922 6.11308 6.35261 8.79675H3.75427Z" fill="white"/>
<path fill-rule="evenodd" clip-rule="evenodd" d="M72.7161 15.6038L74.7868 15.2881C74.8741 15.6902 75.0533 15.9959 75.3219 16.2067C75.592 16.4115 75.9685 16.5145 76.4534 16.5145C76.987 16.5145 77.3881 16.4166 77.6577 16.2208C77.8379 16.0842 77.9293 15.9 77.9293 15.6706C77.9293 15.5135 77.8801 15.3845 77.7822 15.281C77.6793 15.1832 77.4499 15.0928 77.0919 15.0095C75.4268 14.642 74.3731 14.3067 73.9269 14.0035C73.3104 13.5823 73.0022 12.998 73.0022 12.2485C73.0022 11.5733 73.2693 11.0055 73.8024 10.5447C74.336 10.0849 75.1633 9.85547 76.2837 9.85447C77.3515 9.85447 78.1441 10.0292 78.6637 10.376C79.1823 10.7239 79.5392 11.238 79.7349 11.9182L77.7897 12.2781C77.7064 11.9744 77.5468 11.742 77.3123 11.5798C77.0819 11.4192 76.7516 11.3379 76.3214 11.3379C75.7782 11.3379 75.3887 11.4142 75.1532 11.5653C74.9966 11.6732 74.9183 11.8133 74.9183 11.9839C74.9183 12.131 74.9866 12.2555 75.1241 12.3584C75.3104 12.496 75.9514 12.6887 77.0478 12.9387C78.1486 13.1882 78.9177 13.4949 79.3539 13.8569C79.7841 14.2243 79.999 14.7354 80 15.391C80 16.1058 79.7008 16.7208 79.1039 17.2343C78.5066 17.7479 77.6231 18.0049 76.4534 18.0049C75.3907 18.0049 74.5483 17.79 73.9269 17.3588C73.3104 16.9286 72.9063 16.3433 72.7161 15.6038Z" fill="#414042"/>
<path fill-rule="evenodd" clip-rule="evenodd" d="M53.0587 10.0308H54.9598V11.0956C55.6405 10.2683 56.4502 9.85512 57.3905 9.85412C57.8895 9.85412 58.3227 9.95753 58.6906 10.1633C59.0571 10.3692 59.3583 10.6799 59.5937 11.0956C59.9356 10.6799 60.3056 10.3692 60.7027 10.1633C61.0987 9.95753 61.5219 9.85412 61.9722 9.85412C62.5445 9.85412 63.0299 9.97209 63.426 10.2075C63.8221 10.4379 64.1183 10.7778 64.3145 11.2281C64.4566 11.5604 64.5274 12.0996 64.5274 12.843V17.8293H62.4642V13.3721C62.4642 12.5985 62.3929 12.0996 62.2513 11.8742C62.0606 11.58 61.7674 11.4339 61.3703 11.4339C61.0807 11.4339 60.8091 11.5223 60.5556 11.6975C60.3006 11.8742 60.1173 12.1337 60.0044 12.476C59.8914 12.8144 59.8357 13.3495 59.8357 14.0839V17.8293H57.772V13.5553C57.772 12.7968 57.7353 12.3074 57.662 12.087C57.5883 11.8661 57.4738 11.7025 57.3167 11.5945C57.1651 11.4876 56.9572 11.4339 56.6932 11.4339C56.3744 11.4339 56.0883 11.5192 55.8343 11.6909C55.5793 11.8611 55.395 12.1096 55.2836 12.4319C55.1756 12.7557 55.1214 13.2908 55.1214 14.0398V17.8293H53.0587V10.0308Z" fill="#414042"/>
<path fill-rule="evenodd" clip-rule="evenodd" d="M49.8615 17.8295H47.7988V10.031H49.7155V11.1399C50.0428 10.6163 50.3369 10.2709 50.596 10.1042C50.8605 9.93758 51.1587 9.85525 51.492 9.85425C51.9619 9.85425 52.4147 9.98477 52.8499 10.2438L52.2119 12.043C51.8635 11.8181 51.5412 11.7056 51.242 11.7056C50.9539 11.7056 50.7084 11.7859 50.5086 11.9476C50.3078 12.1047 50.1487 12.3908 50.0312 12.8065C49.9183 13.2221 49.8615 14.0941 49.8615 15.4204V17.8295Z" fill="#414042"/>
<path fill-rule="evenodd" clip-rule="evenodd" d="M39.1607 17.8295H37.098V13.8486C37.098 13.0078 37.0539 12.4641 36.9655 12.2192C36.8772 11.9692 36.7331 11.7759 36.5323 11.6388C36.336 11.5023 36.0986 11.434 35.8204 11.434C35.4625 11.434 35.1417 11.5309 34.8586 11.7272C34.574 11.923 34.3782 12.182 34.2703 12.5058C34.1684 12.8291 34.1162 13.4265 34.1162 14.2969V17.8295H32.0535V10.031H33.9691V11.176C34.6498 10.2955 35.5067 9.85425 36.5388 9.85425C36.9951 9.85425 37.4108 9.93758 37.7883 10.1042C38.1648 10.2664 38.4479 10.4742 38.6392 10.7287C38.8354 10.9827 38.9695 11.2719 39.0433 11.5947C39.1216 11.9185 39.1607 12.3808 39.1607 12.9832V17.8295Z" fill="#414042"/>
<path fill-rule="evenodd" clip-rule="evenodd" d="M28.6425 10.031H30.7052V17.8295H28.6425V10.031Z" fill="#414042"/>
<path fill-rule="evenodd" clip-rule="evenodd" d="M28.6425 7.06514H30.7052V8.97424H28.6425V7.06514Z" fill="#414042"/>
<path fill-rule="evenodd" clip-rule="evenodd" d="M20.3035 15.6038L22.3742 15.2881C22.4626 15.6902 22.6408 15.9959 22.9103 16.2067C23.1794 16.4115 23.5564 16.5145 24.0408 16.5145C24.5745 16.5145 24.9766 16.4166 25.2451 16.2208C25.4263 16.0842 25.5167 15.9 25.5167 15.6706C25.5167 15.5135 25.4675 15.3845 25.3706 15.281C25.2677 15.1832 25.0373 15.0928 24.6804 15.0095C23.0153 14.642 21.9606 14.3067 21.5153 14.0035C20.8988 13.5823 20.5896 12.998 20.5896 12.2485C20.5896 11.5733 20.8567 11.0055 21.3908 10.5447C21.9244 10.0849 22.7507 9.85547 23.8722 9.85447C24.9389 9.85447 25.7321 10.0292 26.2511 10.376C26.7697 10.7239 27.1276 11.238 27.3234 11.9182L25.3772 12.2781C25.2938 11.9744 25.1352 11.742 24.8998 11.5798C24.6693 11.4192 24.34 11.3379 23.9088 11.3379C23.3656 11.3379 22.9761 11.4142 22.7417 11.5653C22.585 11.6732 22.5067 11.8133 22.5067 11.9839C22.5067 12.131 22.575 12.2555 22.7126 12.3584C22.8978 12.496 23.5388 12.6887 24.6362 12.9387C25.7371 13.1882 26.5056 13.4949 26.9414 13.8569C27.3716 14.2243 27.5874 14.7354 27.5874 15.391C27.5874 16.1058 27.2883 16.7208 26.6924 17.2343C26.094 17.7479 25.2105 18.0049 24.0408 18.0049C22.9791 18.0049 22.1368 17.79 21.5153 17.3588C20.8988 16.9286 20.4947 16.3433 20.3035 15.6038Z" fill="#414042"/>
<path fill-rule="evenodd" clip-rule="evenodd" d="M70.1346 14.4959C70.1336 14.9899 70.107 15.3252 70.0533 15.5019C69.975 15.7705 69.8108 15.9979 69.5618 16.1841C69.224 16.4296 68.8691 16.5521 68.4971 16.5521C68.1638 16.5521 67.8892 16.4462 67.6748 16.2353C67.459 16.0255 67.351 15.7755 67.351 15.4864C67.351 15.1932 67.4866 14.9507 67.7551 14.7595C67.9313 14.642 68.3058 14.5225 68.8786 14.4C69.4514 14.2771 69.87 14.1721 70.1346 14.0843V14.4959ZM72.2349 16.786C72.1712 16.4587 72.1386 15.9517 72.1386 15.2665L72.1611 12.8574C72.1601 11.9624 72.0683 11.3479 71.8815 11.0151C71.7003 10.6772 71.3846 10.4006 70.9348 10.1848C70.4845 9.96541 69.7983 9.85447 68.8786 9.85447C67.8656 9.85547 67.102 10.0357 66.5885 10.3986C66.0735 10.7606 65.7115 11.3183 65.5012 12.0723L67.3736 12.4106C67.5011 12.0477 67.6668 11.7957 67.8726 11.6536C68.0784 11.5065 68.3651 11.4337 68.7315 11.4337C69.2757 11.4337 69.6441 11.5191 69.8404 11.6908C70.0367 11.8574 70.1346 12.1391 70.1346 12.5351V12.7409C69.7621 12.8966 69.0945 13.0662 68.1296 13.247C67.4148 13.384 66.8666 13.5456 66.4851 13.7324C66.1081 13.9126 65.8149 14.1772 65.6041 14.5255C65.3932 14.8674 65.2883 15.259 65.2883 15.6997C65.2883 16.3659 65.5187 16.9156 65.9786 17.3518C66.4429 17.7875 67.0774 18.0049 67.8806 18.0049C68.3354 18.0049 68.7641 17.9195 69.1647 17.7484C69.5668 17.5777 69.9433 17.3197 70.2952 16.9773C70.3103 17.0165 70.3344 17.0973 70.369 17.2198C70.4473 17.4893 70.5131 17.6921 70.5678 17.8297H72.6084C72.4277 17.4567 72.3022 17.1098 72.2349 16.786Z" fill="#414042"/>
<path fill-rule="evenodd" clip-rule="evenodd" d="M44.8043 14.4959C44.8043 14.9899 44.7767 15.3252 44.724 15.5019C44.6446 15.7705 44.4805 15.9979 44.2315 16.1841C43.8937 16.4296 43.5387 16.5521 43.1668 16.5521C42.8334 16.5521 42.5599 16.4462 42.3445 16.2353C42.1286 16.0255 42.0217 15.7755 42.0217 15.4864C42.0217 15.1932 42.1562 14.9507 42.4258 14.7595C42.601 14.642 42.9755 14.5225 43.5483 14.4C44.1211 14.2771 44.5397 14.1721 44.8043 14.0843V14.4959ZM46.9046 16.786C46.8409 16.4587 46.8082 15.9517 46.8082 15.2665L46.8308 12.8574C46.8308 11.9624 46.738 11.3479 46.5512 11.0151C46.37 10.6772 46.0542 10.4006 45.6045 10.1848C45.1542 9.96541 44.4689 9.85447 43.5483 9.85447C42.5353 9.85547 41.7717 10.0357 41.2582 10.3986C40.7431 10.7606 40.3812 11.3183 40.1714 12.0723L42.0433 12.4106C42.1708 12.0477 42.3375 11.7957 42.5423 11.6536C42.7481 11.5065 43.0347 11.4337 43.4012 11.4337C43.9454 11.4337 44.3138 11.5191 44.5101 11.6908C44.7064 11.8574 44.8043 12.1391 44.8043 12.5351V12.7409C44.4318 12.8966 43.7641 13.0662 42.7993 13.247C42.0855 13.384 41.5363 13.5456 41.1548 13.7324C40.7778 13.9126 40.4846 14.1772 40.2738 14.5255C40.0629 14.8674 39.958 15.259 39.958 15.6997C39.958 16.3659 40.1884 16.9156 40.6483 17.3518C41.1126 17.7875 41.7471 18.0049 42.5503 18.0049C43.0051 18.0049 43.4338 17.9195 43.8344 17.7484C44.2365 17.5777 44.613 17.3197 44.9659 16.9773C44.981 17.0165 45.0041 17.0973 45.0397 17.2198C45.117 17.4893 45.1838 17.6921 45.2375 17.8297H47.2791C47.0974 17.4567 46.9719 17.1098 46.9046 16.786Z" fill="#414042"/>
<path d="M20.7166 5.34993H21.7189V4.8554H21.7337C21.9639 5.28249 22.4317 5.45483 22.996 5.45483C23.7607 5.45483 24.5849 4.83292 24.5849 3.40927C24.5849 1.99311 23.7607 1.3712 22.996 1.3712C22.5208 1.3712 22.0456 1.55103 21.7857 1.94815H21.7709V0H20.7166V5.34993ZM23.5305 3.41676C23.5305 4.06115 23.2558 4.65309 22.6321 4.65309C22.0085 4.65309 21.7337 4.06115 21.7337 3.41676C21.7337 2.76488 22.0085 2.17294 22.6321 2.17294C23.2558 2.17294 23.5305 2.76488 23.5305 3.41676Z" fill="#414042"/>
<path d="M27.3369 3.85135C27.3369 4.08363 27.3072 4.743 26.4831 4.743C26.1416 4.743 25.8371 4.6456 25.8371 4.24847C25.8371 3.85884 26.1341 3.74645 26.4608 3.67901C26.7875 3.61907 27.1587 3.61158 27.3369 3.45422V3.85135ZM25.9559 2.66747C25.9931 2.24787 26.2529 2.08302 26.6539 2.08302C27.0251 2.08302 27.3369 2.15046 27.3369 2.60753C27.3369 3.04212 26.7355 3.01964 26.0896 3.11704C25.4362 3.20696 24.7828 3.41676 24.7828 4.29343C24.7828 5.08768 25.362 5.45483 26.0896 5.45483C26.5573 5.45483 27.0474 5.32745 27.3815 4.97528C27.3889 5.10266 27.4186 5.23004 27.4557 5.34993H28.5249C28.4284 5.19258 28.3913 4.84041 28.3913 4.48824V2.47266C28.3913 1.54354 27.4706 1.3712 26.7058 1.3712C25.8446 1.3712 24.961 1.67092 24.9016 2.66747H25.9559Z" fill="#414042"/>
<path d="M28.9002 5.34993H29.9546V3.31935C29.9546 2.5326 30.1996 2.2104 30.7713 2.2104C31.2613 2.2104 31.4469 2.52511 31.4469 3.162V5.34993H32.5013V2.96719C32.5013 2.0081 32.2191 1.3712 31.098 1.3712C30.6525 1.3712 30.1922 1.581 29.9249 2.01559H29.9026V1.4761H28.9002V5.34993Z" fill="#414042"/>
<path d="M33.0886 5.34993H34.1429V4.01619L34.5513 3.61907L35.6056 5.34993H36.8827L35.2715 2.89975L36.7193 1.4761H35.472L34.1429 2.86978V0H33.0886V5.34993Z" fill="#414042"/>
</g>
<defs>
<clipPath id="clip0_801_7156">
<rect width="80" height="18.0049" fill="white"/>
</clipPath>
</defs>
</svg>
