<svg width="72" height="72" viewBox="0 0 72 72" fill="none" xmlns="http://www.w3.org/2000/svg">
<g clip-path="url(#clip0_801_8013)">
<circle cx="36" cy="36" r="36" fill="#012A31"/>
<g clip-path="url(#clip1_801_8013)">
<path d="M26.265 13.5509C25.6369 13.7321 25.0038 13.8984 24.3831 14.0996C12.3368 17.9826 11.433 30.5727 16.1503 36.9881C18.9186 40.7544 22.7445 42.614 27.3302 42.9939C29.0557 43.1354 30.7986 43.0237 32.534 43.0733C36.3848 43.1851 38.947 45.0273 39.6844 48.1704C40.5707 51.9517 39.0885 55.4499 35.7988 57.2077C33.0033 58.6998 29.9619 58.9953 26.8833 58.675C14.323 57.3666 5.55884 47.3213 5.97346 34.7933C6.31856 24.3062 14.4893 15.1647 24.9144 13.603C25.3539 13.536 25.7933 13.4739 26.2328 13.4069C26.2427 13.454 26.2551 13.5037 26.265 13.5509Z" fill="#AFEE01"/>
<path d="M48.2798 23.472V14.0524C54.1962 19.9092 60.1722 25.8231 66.0737 31.6651C61.0983 36.5884 55.8944 41.7351 50.7353 46.8372C50.6111 46.1048 50.4944 45.1092 50.266 44.136C48.6125 37.0775 42.6787 32.3851 35.0641 32.1244C33.2889 32.0623 31.5088 32.1442 29.7361 32.0722C27.2136 31.9704 25.4806 30.451 25.287 28.2786C25.0288 25.3787 26.7071 23.5166 29.7609 23.4918C35.3372 23.4446 40.9159 23.4744 46.4947 23.472C47.0285 23.472 47.5623 23.472 48.2798 23.472Z" fill="#AFEE01"/>
</g>
</g>
<defs>
<clipPath id="clip0_801_8013">
<rect width="72" height="72" fill="white"/>
</clipPath>
<clipPath id="clip1_801_8013">
<rect width="60.1175" height="45.3848" fill="white" transform="translate(5.95862 13.4069)"/>
</clipPath>
</defs>
</svg>
