<svg width="80" height="13" viewBox="0 0 80 13" fill="none" xmlns="http://www.w3.org/2000/svg">
<g clip-path="url(#clip0_801_7998)">
<path d="M7.34409 8.2043H6.23656C3.96774 8.2043 2.13978 6.36559 2.13978 4.10753C2.13978 1.84946 3.96774 0 6.23656 0C2.7957 0 0 2.7957 0 6.23656C0 9.67742 2.7957 12.4731 6.23656 12.4731C6.76344 12.4731 7.26882 12.4086 7.75269 12.2903C8.69892 12.0968 9.4086 11.2688 9.4086 10.2688C9.4086 9.12903 8.48387 8.2043 7.34409 8.2043Z" fill="#012A31"/>
<path d="M6.50538 5.18281H8.30108C10.5484 5.18281 12.3763 7.01077 12.3763 9.25808C12.3763 9.30109 12.3763 9.35485 12.3763 9.39786L16.7419 5.03227L11.7097 1.31258e-05V2.74195H6.50538C5.82796 2.74195 5.29032 3.29034 5.29032 3.957C5.29032 4.62367 5.82796 5.18281 6.50538 5.18281Z" fill="#012A31"/>
<path d="M24.9892 3.08604C24.5269 2.89249 23.871 2.7312 23.086 2.7312C22.086 2.7312 20.3656 2.9355 20.3656 4.62367C20.3656 5.78496 21.3011 6.29034 21.7849 6.39786L23.3548 6.79571C23.6774 6.88173 23.7634 7.00001 23.7634 7.25808C23.7634 7.58066 23.4624 7.80646 22.6452 7.80646C21.871 7.80646 21.0753 7.50539 20.5591 7.25808V8.78496C21.1935 9.09679 21.871 9.20431 22.6452 9.20431C23.4301 9.20431 25.4086 8.94625 25.4086 7.20431C25.4086 6.04302 24.5376 5.55915 24.0645 5.44087L22.4946 5.02152C22.2366 4.957 22.0108 4.78496 22.0108 4.60216C22.0108 4.27958 22.3333 4.12905 22.9785 4.12905C23.6237 4.12905 24.6237 4.29034 24.9892 4.47313V3.08604Z" fill="#012A31"/>
<path d="M32 2.94625H30.3656V6.53765L32 4.90324V2.94625Z" fill="#012A31"/>
<path d="M36.2473 2.7312C35.1183 2.7312 34.2473 3.21507 33.871 3.64517L30.2796 7.23657C30.0538 7.46238 29.7634 7.67743 29.2151 7.67743C28.4946 7.67743 27.9247 7.1613 27.9247 6.47313V2.94625H26.2796V6.5269C26.2796 7.7527 26.871 9.19356 29.1613 9.19356C30.4624 9.19356 31.172 8.70969 31.5376 8.27958L35.129 4.68819C35.4086 4.43012 35.8064 4.18281 36.3226 4.18281C37 4.18281 37.8602 4.67743 37.8602 5.957C37.8602 7.23657 37.0538 7.66668 36.3011 7.66668C35.5484 7.66668 34.7312 7.26883 34.7312 5.957V5.67743L33.086 7.32259V11.4624H34.7312V8.26883C34.9892 8.65593 35.5376 9.19356 36.6129 9.19356C37.957 9.19356 39.4946 8.3656 39.4946 6.06453C39.5054 3.11829 37.3763 2.7312 36.2473 2.7312Z" fill="#012A31"/>
<path d="M46.3979 5.76345C46.3979 3.31184 44.6237 2.72044 43.4409 2.72044C42.2581 2.72044 40.3763 3.26883 40.3763 5.957C40.3763 8.80647 42.6774 9.19356 43.8172 9.19356C44.957 9.19356 45.6344 8.957 46.0753 8.66668V7.21507C45.5484 7.67743 44.7849 7.79571 43.8172 7.79571C43.2473 7.79571 42.2366 7.50539 41.957 6.51614H46.3011C46.3548 6.26883 46.3979 5.97851 46.3979 5.76345ZM41.957 5.30109C42.1613 4.37636 42.8065 4.04302 43.4409 4.04302C44.2151 4.04302 44.7742 4.64517 44.8172 5.30109H41.957Z" fill="#012A31"/>
<path d="M50.086 2.7312C48.4194 2.7312 47.3763 3.59141 47.3763 5.31184V8.97851H49.0215V5.44087C49.0215 4.72044 49.5161 4.18281 50.2796 4.18281C50.7204 4.18281 51.0215 4.26883 51.2366 4.37636V2.91399C50.9785 2.80647 50.6021 2.7312 50.086 2.7312Z" fill="#012A31"/>
<path d="M55.8064 2.7312C54.8495 2.7312 54.2473 3.1613 53.871 3.67743V0.311841H52.2258V5.96776C52.2258 7.51614 53.2258 9.20431 55.4301 9.20431C57.1613 9.20431 58.6667 8.10754 58.6667 5.89249C58.6667 4.96776 58.1075 2.7312 55.8064 2.7312ZM55.4409 7.69894C54.6452 7.69894 53.8602 7.00001 53.8602 5.84948C53.8602 4.87098 54.4731 4.1613 55.4409 4.1613C56.2903 4.1613 57.0215 4.80647 57.0215 5.84948C57.0215 6.89249 56.2366 7.69894 55.4409 7.69894Z" fill="#012A31"/>
<path d="M62.3333 9.19356C63.2903 9.19356 63.9355 8.60217 64.3118 8.09679V8.97851H65.957V5.96776C65.957 4.41937 64.957 2.7312 62.7527 2.7312C61.0215 2.7312 59.5161 3.82797 59.5161 6.04302C59.5054 6.957 60.0323 9.19356 62.3333 9.19356ZM62.7312 4.1613C63.5269 4.1613 64.3118 4.86023 64.3118 6.01077C64.3118 6.98926 63.5484 7.69894 62.7312 7.69894C61.7634 7.69894 61.1505 7.05378 61.1505 6.01077C61.1505 4.96776 61.7419 4.1613 62.7312 4.1613Z" fill="#012A31"/>
<path d="M70.0215 2.7312C67.8495 2.7312 67.1505 4.17206 67.1505 5.39786V8.97851H68.7957V5.45163C68.7957 4.77421 69.3118 4.20431 70.0323 4.20431C70.7527 4.20431 71.2688 4.77421 71.2688 5.45163V8.97851H72.914V5.39786C72.8925 4.17206 72.1828 2.7312 70.0215 2.7312Z" fill="#012A31"/>
<path d="M78.3333 6.24732C78.1828 6.00001 77.9355 5.81722 77.6559 5.76345C77.9785 5.67743 78.2581 5.48388 78.4409 5.19356L79.8495 2.957H78.0538L76.9032 4.67743C76.7634 4.89249 76.5161 5.02152 76.2581 5.02152H75.7849V0.397863H74.1398V8.98926H75.7849V6.5269H76.2473C76.4946 6.5269 76.7204 6.65593 76.8387 6.86023L78.1075 8.96776H80L78.3333 6.24732Z" fill="#012A31"/>
</g>
<defs>
<clipPath id="clip0_801_7998">
<rect width="80" height="12.4731" fill="white"/>
</clipPath>
</defs>
</svg>
