<svg width="80" height="23" viewBox="0 0 80 23" fill="none" xmlns="http://www.w3.org/2000/svg">
<g clip-path="url(#clip0_801_8121)">
<path fill-rule="evenodd" clip-rule="evenodd" d="M16.7275 22.0003C16.7203 22.5648 17.4322 22.626 17.8635 22.626H18.0956C18.1378 22.626 18.1719 22.6246 18.2226 22.6188C19.2406 22.5662 19.233 22.1819 19.233 22.0003C19.2299 21.9045 19.2299 21.8047 19.233 21.6924V0.629735C19.2406 0.0669739 18.5252 0 18.0956 0H17.8635C17.4322 0 16.7203 0.0669739 16.7275 0.629735C16.7275 0.749299 16.7239 0.86302 16.7239 0.982135V21.6452C16.7239 21.6564 16.7239 21.6726 16.7275 21.7036" fill="#E1091D"/>
<path fill-rule="evenodd" clip-rule="evenodd" d="M3.36443 22.0003C3.3568 22.5648 4.0696 22.626 4.50005 22.626H4.73167C4.77431 22.626 4.80887 22.6246 4.85914 22.6188C5.87716 22.5662 5.86953 22.1819 5.86953 22.0003C5.86729 21.9045 5.86729 21.8047 5.86953 21.6924V0.629735C5.87716 0.0669739 5.16168 0 4.73167 0H4.50005C4.0696 0 3.3568 0.0669739 3.36443 0.629735C3.36443 0.749299 3.3595 0.86302 3.3595 0.982135V21.6452C3.3595 21.6564 3.3595 21.6726 3.36443 21.7036" fill="#E1091D"/>
<path fill-rule="evenodd" clip-rule="evenodd" d="M7.818 22.0003C7.81261 22.5648 8.52361 22.626 8.95497 22.626H9.18658C9.22922 22.626 9.26378 22.6246 9.31451 22.6188C10.3321 22.5662 10.3249 22.1819 10.3249 22.0003C10.3204 21.9045 10.3204 21.8047 10.3249 21.6924V0.629735C10.3321 0.0669739 9.61659 0 9.18658 0H8.95497C8.52361 0 7.81261 0.0669739 7.818 0.629735C7.818 0.749299 7.81531 0.86302 7.81531 0.982135V21.6452C7.81531 21.6564 7.81531 21.6726 7.818 21.7036" fill="#E1091D"/>
<path fill-rule="evenodd" clip-rule="evenodd" d="M12.2735 22.0003C12.2668 22.5648 12.9782 22.626 13.4091 22.626H13.6412C13.6834 22.626 13.7179 22.6246 13.7678 22.6188C14.7867 22.5662 14.7777 22.1819 14.7777 22.0003C14.7759 21.9045 14.7759 21.8047 14.7777 21.6924V0.629735C14.7867 0.0669739 14.0703 0 13.6412 0H13.4091C12.9782 0 12.2668 0.0669739 12.2735 0.629735C12.2735 0.749299 12.2686 0.86302 12.2686 0.982135V21.6452C12.2686 21.6564 12.2686 21.6726 12.2735 21.7036" fill="#E1091D"/>
<path fill-rule="evenodd" clip-rule="evenodd" d="M0.623918 10.0598C0.0601475 10.0526 0 10.7655 0 11.1984V11.4312C0 11.4735 0.00134659 11.5076 0.00538634 11.5575C0.0579032 12.5761 0.44168 12.5689 0.623918 12.5689C0.719974 12.5662 0.818275 12.5662 0.931837 12.5689H21.9642C22.5266 12.5761 22.5926 11.8605 22.5926 11.4312V11.1984C22.5926 10.7655 22.5266 10.0526 21.9642 10.0598C21.8452 10.0598 21.7316 10.0558 21.6118 10.0558H0.977621C0.966399 10.0558 0.952934 10.0558 0.920167 10.0598" fill="#E1091D"/>
<path fill-rule="evenodd" clip-rule="evenodd" d="M53.7198 1.6582C47.7127 1.6582 45.0343 4.62079 45.0343 11.2638C45.0343 17.7522 47.8258 20.9283 53.5676 20.9683H53.8477C59.5999 20.9395 62.3972 17.7643 62.3972 11.2638C62.3972 4.62079 59.7211 1.6582 53.7198 1.6582ZM53.7359 18.1226H53.6919C50.2438 18.1226 48.8999 16.1888 48.8999 11.2323C48.8999 6.32885 50.189 4.50661 53.6569 4.50661H53.7687C57.2375 4.50661 58.5275 6.32885 58.5275 11.2323C58.5275 16.1888 57.1836 18.1226 53.7359 18.1226Z" fill="#002469"/>
<path fill-rule="evenodd" clip-rule="evenodd" d="M29.5967 19.4982C30.8149 20.4403 32.4721 20.8422 35.1392 20.8422H35.308C37.9949 20.8422 39.657 20.4403 40.8654 19.4995C42.6186 18.1637 42.914 16.5927 42.914 13.573L42.9171 2.73987C42.9189 2.58255 42.9225 2.38478 42.7475 2.20768C42.471 1.92675 41.8547 1.78516 40.9156 1.78516C39.9852 1.78516 39.3743 1.92675 39.0987 2.20588C38.9223 2.38433 38.9254 2.58255 38.9276 2.74167L38.9281 4.6938V14.0598C38.9285 15.945 38.9285 16.3374 38.0919 17.0282C37.3212 17.6548 36.1568 17.7366 35.229 17.7366C34.3017 17.7366 33.1382 17.6548 32.368 17.0282C31.534 16.3432 31.534 15.9571 31.5344 14.1016L31.5353 2.74167C31.5385 2.58255 31.5407 2.38478 31.3648 2.20588C31.0887 1.92675 30.476 1.78516 29.5424 1.78516C28.6065 1.78516 27.9934 1.92675 27.7182 2.20678C27.5414 2.38478 27.5445 2.58255 27.5463 2.74077L27.5472 2.78707V13.573C27.5472 16.5909 27.843 18.1623 29.5967 19.4982Z" fill="#002469"/>
<path fill-rule="evenodd" clip-rule="evenodd" d="M77.3975 2.90987C76.4055 2.17135 75.2214 1.9093 72.8734 1.9093H65.1503C64.7993 1.9093 64.5138 2.19428 64.5138 2.54443V20.0781C64.5138 20.4319 64.7993 20.7173 65.1503 20.7173H73.2522C75.4512 20.7173 76.989 20.6467 78.2656 19.6826C79.6983 18.5701 80 16.7479 80 15.4151C80 13.6549 79.4097 12.261 78.3387 11.4915C77.8742 11.145 77.3248 10.9369 76.8018 10.753L76.4517 10.6298L76.7866 10.4694C78.3639 9.71514 78.9416 8.66648 78.9169 6.59928C78.903 5.63242 78.6875 3.86548 77.3975 2.90987ZM68.4463 4.53837H72.7603C74.9943 4.53837 75.1716 5.67198 75.1716 7.15485C75.1716 8.92719 74.36 9.68233 72.4604 9.68233H68.4463V4.53837ZM72.6719 18.024H68.4431V12.35H72.9784C75.4929 12.35 75.9984 13.4455 75.9984 15.2155C75.9984 17.5992 75.1271 18.024 72.6719 18.024Z" fill="#002469"/>
</g>
<defs>
<clipPath id="clip0_801_8121">
<rect width="79.9999" height="22.626" fill="white"/>
</clipPath>
</defs>
</svg>
