<svg width="109" height="108" viewBox="0 0 109 108" fill="none" xmlns="http://www.w3.org/2000/svg">
<path fill-rule="evenodd" clip-rule="evenodd" d="M90.9099 60.5401H93.8008V47.4191H90.9099V60.5401ZM79.5981 53.9003V49.3902C79.5981 49.3902 84.9087 48.353 84.9087 51.5328C84.9087 54.7126 79.5981 53.9003 79.5981 53.9003ZM76.6236 47.6624L76.6106 60.5401H79.5981V55.7769C79.5981 55.7769 88.0439 56.6783 88.0439 51.4047C88.0439 46.5253 79.7306 47.5201 76.6236 47.6624ZM65.971 50.8606C65.9504 49.6964 67.4132 49.1697 68.913 49.2045C70.5518 49.2425 72.2405 49.9006 72.2405 49.9006L72.9442 48.0457C72.9442 48.0457 71.0112 47.0129 68.1496 47.3344C65.3499 47.6493 62.8336 49.0394 62.8358 50.8606C62.8358 51.6056 63.1713 53.037 64.7232 53.8677C66.1155 54.6127 68.168 54.9603 69.4289 55.6325C70.201 56.0452 70.6169 56.6989 70.5768 57.2897C70.4844 58.6559 68.5177 59.0827 66.6498 58.9307C64.9241 58.7906 63.2832 58.1216 63.2832 58.1216L62.6435 60.0731C62.6435 60.0731 65.1435 60.9908 67.8574 60.8724C70.6148 60.753 73.5871 59.5801 73.6794 57.2256C73.863 52.5537 66.0134 53.2965 65.97 50.8595L65.971 50.8606ZM51.0961 55.083L53.2714 49.5487L55.4151 55.083H51.0961ZM51.4893 47.4191L46.0734 60.5401H49.2619L50.6758 56.9607H55.9332L57.4156 60.5401L60.8223 60.5542L55.2566 47.4191H51.4893Z" fill="#EC202B"/>
<path fill-rule="evenodd" clip-rule="evenodd" d="M94.0549 64.3389C94.0549 64.4844 94.0452 64.5844 94.0256 64.6397C94.0071 64.6951 93.9724 64.7429 93.9224 64.7831C93.8725 64.8233 93.8225 64.8439 93.7715 64.8439C93.715 64.8439 93.6672 64.8189 93.6292 64.7701C93.5912 64.7201 93.5727 64.6582 93.5727 64.5854C93.5727 64.5203 93.5901 64.4682 93.6238 64.4269C93.6585 64.3856 93.7313 64.3487 93.841 64.315C93.9376 64.2868 94.0082 64.2607 94.0538 64.239V64.34L94.0549 64.3389ZM94.4198 64.895C94.409 64.8135 94.4025 64.6908 94.4025 64.5257L94.4057 63.9371C94.4057 63.7145 94.3883 63.5614 94.3547 63.4766C94.321 63.3919 94.2634 63.3257 94.1842 63.2768C94.1038 63.2279 93.9887 63.203 93.8377 63.203C93.6683 63.203 93.538 63.2453 93.4468 63.3289C93.3566 63.4137 93.2915 63.5516 93.2524 63.7438L93.5771 63.8263C93.5999 63.734 93.6292 63.671 93.6661 63.6385C93.7031 63.6048 93.7541 63.5885 93.8182 63.5885C93.8823 63.5885 93.93 63.5994 93.9648 63.62C93.9995 63.6406 94.0234 63.6689 94.0365 63.7014C94.0495 63.734 94.056 63.8035 94.056 63.91C93.9909 63.948 93.8757 63.9892 93.7096 64.0338C93.5728 64.0707 93.4739 64.1141 93.4109 64.1608C93.349 64.2086 93.3002 64.2727 93.2665 64.353C93.2328 64.4334 93.2155 64.5268 93.2155 64.6343C93.2155 64.8048 93.2578 64.9406 93.3414 65.0437C93.4251 65.1458 93.5337 65.1969 93.6651 65.1969C93.7443 65.1969 93.8182 65.1762 93.8877 65.1328C93.9572 65.0904 94.0234 65.0274 94.0843 64.9427L94.131 65.1513H94.485C94.4535 65.06 94.4329 64.9742 94.4209 64.8939L94.4198 64.895ZM92.5834 65.1523H92.9429V63.2475H92.5834V65.1523ZM92.5834 62.989H92.9429V62.5221H92.5834V62.989ZM91.758 63.9577C91.5799 63.8991 91.4735 63.8557 91.4398 63.8274C91.4051 63.8003 91.3888 63.7655 91.3888 63.7232C91.3888 63.6765 91.4073 63.6385 91.4453 63.6091C91.4822 63.5798 91.5452 63.5646 91.6332 63.5646C91.7732 63.5646 91.858 63.6406 91.8873 63.7938L92.225 63.7058C92.1881 63.5288 92.1229 63.4006 92.0306 63.3213C91.9383 63.2421 91.8047 63.2019 91.6266 63.2019C91.4485 63.2019 91.2998 63.2551 91.2031 63.3615C91.1054 63.468 91.0565 63.6102 91.0565 63.7872C91.0565 63.9643 91.1065 64.1044 91.2053 64.2064C91.2846 64.2879 91.4713 64.3737 91.7656 64.4638C91.8232 64.4823 91.8623 64.5029 91.8819 64.5268C91.9003 64.5507 91.9101 64.5833 91.9101 64.6256C91.9101 64.6864 91.8884 64.7364 91.846 64.7744C91.8037 64.8124 91.7396 64.832 91.6538 64.832C91.492 64.832 91.3964 64.7321 91.3649 64.5322L91.0065 64.6093C91.0413 64.8005 91.1151 64.946 91.2259 65.0459C91.3367 65.1458 91.48 65.1958 91.6549 65.1958C91.8471 65.1958 91.998 65.136 92.1077 65.0166C92.2163 64.8971 92.2717 64.7451 92.2717 64.5605C92.2717 64.4073 92.237 64.2846 92.1664 64.1923C92.0947 64.1 91.959 64.0218 91.7591 63.9556L91.758 63.9577ZM89.9499 64.037C89.9499 63.8958 89.9748 63.7851 90.0281 63.7058C90.0802 63.6276 90.1432 63.5885 90.2192 63.5885C90.2909 63.5885 90.3528 63.6265 90.4038 63.7004C90.4559 63.7753 90.4831 63.8872 90.4863 64.0359H89.9499V64.037ZM90.1975 63.203C90.0237 63.203 89.8814 63.2844 89.7718 63.4452C89.6425 63.6363 89.5774 63.8915 89.5774 64.2108C89.5774 64.5301 89.6414 64.7864 89.7707 64.9655C89.8793 65.1208 90.0346 65.1979 90.2344 65.1979C90.3777 65.1979 90.5005 65.1513 90.6015 65.0589C90.7025 64.9666 90.7763 64.8244 90.8241 64.6332L90.469 64.5485C90.4299 64.731 90.3538 64.8211 90.2387 64.8211C90.1584 64.8211 90.09 64.7798 90.0335 64.6973C89.977 64.6148 89.9477 64.4975 89.9455 64.3465H90.8415V64.289C90.8426 63.9197 90.7796 63.6406 90.6536 63.4517C90.5439 63.2866 90.3919 63.2041 90.1986 63.2041L90.1975 63.203ZM89.1278 63.2975C89.0561 63.2345 88.967 63.203 88.8628 63.203C88.7726 63.203 88.6901 63.2301 88.6163 63.2833C88.5424 63.3376 88.4751 63.418 88.4164 63.5255V63.2475H88.0841V65.1523H88.4425V64.289C88.4425 64.0696 88.4523 63.9208 88.4718 63.8415C88.4914 63.7623 88.5261 63.7004 88.5739 63.6558C88.6228 63.6113 88.6771 63.5885 88.7368 63.5885C88.7835 63.5885 88.8248 63.6059 88.8617 63.6406C88.8986 63.6754 88.9236 63.7253 88.9377 63.7894C88.9507 63.8535 88.9573 63.9838 88.9573 64.1793V65.1534H89.3167V63.9686C89.3167 63.7818 89.3026 63.6385 89.2755 63.5396C89.2483 63.4408 89.1983 63.3604 89.1267 63.2975H89.1278ZM87.3435 64.6376C87.2794 64.7364 87.2023 64.7864 87.1111 64.7864C87.0198 64.7864 86.9406 64.7375 86.8743 64.6387C86.8092 64.5398 86.7766 64.3932 86.7766 64.1999C86.7766 64.0066 86.8092 63.8622 86.8743 63.7623C86.9395 63.6634 87.0166 63.6124 87.1067 63.6124C87.1969 63.6124 87.2772 63.6623 87.3413 63.7623C87.4075 63.8622 87.4401 64.0066 87.4401 64.1956C87.4401 64.3845 87.4075 64.5377 87.3435 64.6365V64.6376ZM87.1078 63.203C86.9786 63.203 86.8624 63.241 86.7581 63.3181C86.6549 63.3952 86.5713 63.5103 86.5062 63.6634C86.4421 63.8166 86.4095 63.9871 86.4095 64.1739C86.4095 64.5018 86.4758 64.7549 86.6082 64.9319C86.7407 65.1089 86.9069 65.1979 87.1089 65.1979C87.2338 65.1979 87.3489 65.1578 87.4542 65.0785C87.5596 64.9992 87.6443 64.8798 87.7084 64.7212C87.7735 64.5626 87.8061 64.3856 87.8061 64.1891C87.8061 63.9252 87.7442 63.6949 87.6193 63.4984C87.4955 63.3007 87.3239 63.203 87.1067 63.203H87.1078ZM85.696 64.6517C85.6374 64.7505 85.57 64.7994 85.4908 64.7994C85.4321 64.7994 85.3789 64.7777 85.3322 64.7353C85.2855 64.693 85.2486 64.6289 85.2236 64.5453C85.1986 64.4606 85.1856 64.3324 85.1856 64.1597C85.1856 63.9697 85.2149 63.8263 85.2725 63.7319C85.3311 63.6374 85.4006 63.5896 85.4832 63.5896C85.5657 63.5896 85.6417 63.6374 85.6982 63.734C85.7547 63.8307 85.7829 63.9881 85.7829 64.2086C85.7829 64.4063 85.7536 64.555 85.696 64.6528V64.6517ZM85.7807 63.468C85.7264 63.3789 85.6656 63.3127 85.6004 63.2681C85.5353 63.2236 85.4647 63.2019 85.3887 63.2019C85.2279 63.2019 85.0933 63.2844 84.9836 63.4506C84.8739 63.6167 84.8185 63.8622 84.8185 64.188C84.8185 64.5138 84.875 64.7603 84.9879 64.9351C85.0998 65.1089 85.2323 65.1969 85.3832 65.1969C85.4614 65.1969 85.5385 65.1697 85.6124 65.1154C85.6873 65.0611 85.7514 64.9797 85.8068 64.8722V65.1523H86.1391V62.5221H85.7807V63.468ZM84.3461 63.2964C84.2744 63.2334 84.1865 63.2019 84.0811 63.2019C83.991 63.2019 83.9085 63.229 83.8346 63.2823C83.7608 63.3366 83.6934 63.4169 83.6348 63.5244V63.2464H83.3025V65.1513H83.6619V64.2879C83.6619 64.0685 83.6717 63.9197 83.6913 63.8405C83.7108 63.7612 83.7456 63.6993 83.7944 63.6547C83.8422 63.6102 83.8976 63.5874 83.9573 63.5874C84.004 63.5874 84.0453 63.6048 84.0822 63.6395C84.1191 63.6743 84.1441 63.7243 84.1572 63.7883C84.1713 63.8524 84.1778 63.9827 84.1778 64.1782V65.1523H84.5362V63.9675C84.5362 63.7807 84.5231 63.6374 84.4949 63.5385C84.4677 63.4397 84.4178 63.3594 84.345 63.2964H84.3461ZM82.5716 65.1523H82.9473V62.5231H82.5716V65.1523ZM81.301 63.2964C81.2293 63.2334 81.1403 63.2019 81.036 63.2019C80.9459 63.2019 80.8633 63.229 80.7895 63.2823C80.7156 63.3366 80.6483 63.4169 80.5897 63.5244V63.2464H80.2573V65.1513H80.6157V64.2879C80.6157 64.0685 80.6255 63.9197 80.645 63.8405C80.6646 63.7612 80.6993 63.6993 80.7471 63.6547C80.796 63.6102 80.8503 63.5874 80.91 63.5874C80.9567 63.5874 80.998 63.6048 81.0349 63.6395C81.0718 63.6743 81.0968 63.7243 81.1098 63.7883C81.1229 63.8524 81.1305 63.9827 81.1305 64.1782V65.1523H81.4889V63.9675C81.4889 63.7807 81.4747 63.6374 81.4476 63.5385C81.4204 63.4397 81.3705 63.3594 81.2977 63.2964H81.301ZM79.5558 64.3378C79.5558 64.4834 79.546 64.5833 79.5265 64.6387C79.508 64.694 79.4732 64.7418 79.4233 64.782C79.3733 64.8222 79.3234 64.8428 79.2723 64.8428C79.2159 64.8428 79.1681 64.8178 79.1301 64.769C79.0921 64.719 79.0736 64.6571 79.0736 64.5844C79.0736 64.5192 79.091 64.4671 79.1246 64.4258C79.1594 64.3845 79.2311 64.3476 79.3418 64.3139C79.4385 64.2857 79.5091 64.2596 79.5547 64.2379V64.3389L79.5558 64.3378ZM79.9044 64.5257L79.9076 63.9371C79.9076 63.7145 79.8903 63.5614 79.8566 63.4766C79.8219 63.3919 79.7654 63.3257 79.6861 63.2768C79.6068 63.2279 79.4906 63.203 79.3397 63.203C79.1692 63.203 79.0388 63.2453 78.9487 63.3289C78.8575 63.4137 78.7934 63.5516 78.7532 63.7438L79.0779 63.8263C79.1007 63.734 79.1301 63.671 79.167 63.6385C79.2039 63.6048 79.2539 63.5885 79.3179 63.5885C79.382 63.5885 79.4298 63.5994 79.4646 63.62C79.4993 63.6406 79.5232 63.6689 79.5362 63.7014C79.5493 63.734 79.5558 63.8035 79.5558 63.91C79.4906 63.948 79.3755 63.9892 79.2093 64.0338C79.0725 64.0707 78.9726 64.1141 78.9107 64.1608C78.8488 64.2086 78.7999 64.2727 78.7663 64.353C78.7326 64.4334 78.7152 64.5268 78.7152 64.6343C78.7152 64.8048 78.7576 64.9406 78.8412 65.0437C78.9248 65.1458 79.0323 65.1969 79.1637 65.1969C79.243 65.1969 79.3169 65.1762 79.3864 65.1328C79.4559 65.0904 79.5221 65.0274 79.5829 64.9427L79.6296 65.1513H79.9837C79.9522 65.06 79.9315 64.9742 79.9196 64.8939C79.9087 64.8124 79.9022 64.6897 79.9022 64.5246L79.9044 64.5257ZM78.2656 63.266C78.2211 63.3072 78.17 63.3919 78.1125 63.519V63.2486H77.7802V65.1534H78.1386V64.5637C78.1386 64.2662 78.1462 64.0609 78.1635 63.9501C78.1798 63.8383 78.207 63.7612 78.245 63.7199C78.283 63.6776 78.3264 63.6558 78.3764 63.6558C78.4296 63.6558 78.485 63.683 78.5447 63.7384L78.6566 63.2985C78.5816 63.2345 78.5034 63.2041 78.422 63.2041C78.3634 63.2041 78.3112 63.2247 78.2656 63.267V63.266ZM77.0906 64.3389C77.0906 64.4844 77.0808 64.5844 77.0612 64.6397C77.0417 64.6951 77.008 64.7429 76.9581 64.7831C76.9081 64.8233 76.8582 64.8439 76.8071 64.8439C76.7496 64.8439 76.7029 64.8189 76.6649 64.7701C76.6268 64.7201 76.6084 64.6582 76.6084 64.5854C76.6084 64.5203 76.6258 64.4682 76.6594 64.4269C76.6931 64.3856 76.7659 64.3487 76.8766 64.315C76.9733 64.2868 77.0439 64.2607 77.0895 64.239V64.34L77.0906 64.3389ZM77.4381 64.5268L77.4413 63.9382C77.4413 63.7156 77.424 63.5624 77.3903 63.4777C77.3555 63.393 77.2991 63.3268 77.2187 63.2779C77.1394 63.229 77.0232 63.2041 76.8723 63.2041C76.7029 63.2041 76.5725 63.2464 76.4813 63.33C76.3912 63.4147 76.326 63.5527 76.2869 63.7449L76.6116 63.8274C76.6344 63.7351 76.6638 63.6721 76.7007 63.6395C76.7376 63.6059 76.7876 63.5896 76.8517 63.5896C76.9157 63.5896 76.9635 63.6004 76.9983 63.6211C77.033 63.6417 77.0569 63.6699 77.0699 63.7025C77.083 63.7351 77.0895 63.8046 77.0895 63.911C77.0243 63.9491 76.9092 63.9903 76.743 64.0348C76.6062 64.0718 76.5074 64.1152 76.4444 64.1619C76.3825 64.2097 76.3336 64.2738 76.3 64.3541C76.2652 64.4345 76.2489 64.5279 76.2489 64.6354C76.2489 64.8059 76.2913 64.9417 76.3749 65.0448C76.4585 65.1469 76.566 65.1979 76.6974 65.1979C76.7767 65.1979 76.8506 65.1773 76.9201 65.1339C76.9907 65.0915 77.0558 65.0285 77.1166 64.9438L77.1633 65.1523H77.5174C77.4859 65.0611 77.4652 64.9753 77.4533 64.895C77.4424 64.8135 77.4359 64.6908 77.4359 64.5257L77.4381 64.5268ZM75.4268 64.6017L75.1043 63.2486H74.722L75.2368 65.1599C75.2085 65.2979 75.1727 65.3934 75.1282 65.4466C75.0836 65.4988 75.0272 65.5248 74.9598 65.5248C74.9153 65.5248 74.8643 65.5172 74.8089 65.5009L74.8393 65.8952C74.9055 65.9158 74.974 65.9256 75.0435 65.9256C75.1336 65.9256 75.2096 65.9082 75.2715 65.8756C75.3334 65.8419 75.3845 65.7942 75.4236 65.7323C75.4637 65.6704 75.5039 65.5715 75.5441 65.438L75.6364 65.0807L76.1132 63.2475H75.7418L75.4257 64.6007L75.4268 64.6017ZM74.1877 64.34C74.1877 64.4855 74.1779 64.5854 74.1584 64.6408C74.1388 64.6962 74.1052 64.744 74.0552 64.7842C74.0053 64.8244 73.9553 64.845 73.9043 64.845C73.8467 64.845 73.8 64.82 73.762 64.7712C73.724 64.7212 73.7055 64.6593 73.7055 64.5865C73.7055 64.5214 73.7229 64.4692 73.7566 64.428C73.7902 64.3867 73.863 64.3498 73.9738 64.3161C74.0704 64.2879 74.141 64.2618 74.1866 64.2401V64.3411L74.1877 64.34ZM74.5352 64.5279L74.5385 63.9393C74.5385 63.7167 74.5211 63.5635 74.4874 63.4788C74.4527 63.3941 74.3962 63.3279 74.3169 63.279C74.2366 63.2301 74.1214 63.2051 73.9705 63.2051C73.8011 63.2051 73.6708 63.2475 73.5795 63.3311C73.4894 63.4158 73.4242 63.5538 73.3851 63.746L73.7099 63.8285C73.7327 63.7362 73.762 63.6732 73.7989 63.6406C73.8358 63.607 73.8858 63.5907 73.9509 63.5907C74.0161 63.5907 74.0628 63.6015 74.0976 63.6222C74.1323 63.6428 74.1562 63.671 74.1692 63.7036C74.1823 63.7362 74.1888 63.8057 74.1888 63.9121C74.1236 63.9501 74.0085 63.9914 73.8424 64.0359C73.7055 64.0729 73.6067 64.1163 73.5437 64.163C73.4818 64.2108 73.4329 64.2749 73.3993 64.3552C73.3645 64.4356 73.3482 64.529 73.3482 64.6365C73.3482 64.807 73.3906 64.9427 73.4742 65.0459C73.5578 65.148 73.6664 65.199 73.7978 65.199C73.8771 65.199 73.951 65.1784 74.0205 65.135C74.09 65.0926 74.1562 65.0296 74.217 64.9449L74.2637 65.1534H74.6178C74.5863 65.0622 74.5656 64.9764 74.5537 64.896C74.5428 64.8146 74.5363 64.6919 74.5363 64.5268L74.5352 64.5279ZM72.701 64.6582C72.6445 64.7538 72.5772 64.8016 72.499 64.8016C72.4436 64.8016 72.3915 64.7788 72.3426 64.7342C72.2926 64.6897 72.2546 64.6235 72.2275 64.5377C72.2003 64.4508 72.1862 64.3259 72.1862 64.1619C72.1862 63.9686 72.2155 63.8252 72.2742 63.7319C72.3317 63.6385 72.4023 63.5918 72.4849 63.5918C72.5717 63.5918 72.6445 63.6395 72.701 63.7362C72.7574 63.8329 72.7857 63.9903 72.7857 64.2064C72.7857 64.4225 72.7574 64.5637 72.702 64.6593L72.701 64.6582ZM72.5826 63.2051C72.5066 63.2051 72.436 63.2269 72.3708 63.2714C72.3046 63.3159 72.2448 63.3822 72.1905 63.4712V62.5253H71.8322V65.1556H72.1645V64.8754C72.2177 64.9807 72.2818 65.0611 72.3567 65.1165C72.4327 65.1719 72.5087 65.2001 72.5858 65.2001C72.7379 65.2001 72.8704 65.1122 72.9833 64.9384C73.0963 64.7646 73.1527 64.5149 73.1527 64.1912C73.1527 63.8676 73.0974 63.6211 72.9877 63.4549C72.8769 63.2877 72.7433 63.2051 72.5837 63.2051H72.5826ZM71.287 63.2812C71.2197 63.2301 71.1404 63.2051 71.0481 63.2051C70.9699 63.2051 70.8971 63.2301 70.8287 63.2801C70.7603 63.33 70.6951 63.4061 70.6354 63.5081C70.5952 63.4071 70.5431 63.3311 70.479 63.2801C70.4149 63.2301 70.34 63.2051 70.2531 63.2051C70.1717 63.2051 70.0957 63.2301 70.0251 63.2812C69.9545 63.3311 69.8904 63.4082 69.8307 63.5092V63.2497H69.5016V65.1545H69.86V64.2282C69.86 64.0414 69.8698 63.9089 69.8893 63.8307C69.9089 63.7525 69.9414 63.6928 69.986 63.6526C70.0305 63.6113 70.0783 63.5918 70.1315 63.5918C70.2097 63.5918 70.2629 63.6309 70.289 63.7101C70.3085 63.7699 70.3183 63.9034 70.3183 64.1109V65.1556H70.6767V64.2401C70.6767 63.9838 70.7016 63.8122 70.7494 63.7243C70.7983 63.6363 70.8624 63.5928 70.9416 63.5928C71.0101 63.5928 71.0589 63.6243 71.0883 63.6873C71.1176 63.7503 71.1317 63.8774 71.1317 64.0674V65.1578H71.4901V63.9382C71.4901 63.7427 71.4727 63.5972 71.438 63.5016C71.4032 63.4071 71.3522 63.3344 71.2859 63.2833L71.287 63.2812ZM68.3472 64.0392C68.3472 63.898 68.3722 63.7872 68.4254 63.708C68.4775 63.6298 68.5405 63.5907 68.6165 63.5907C68.6882 63.5907 68.7501 63.6287 68.8012 63.7025C68.8533 63.7775 68.8804 63.8893 68.8837 64.0381H68.3472V64.0392ZM68.5948 63.2051C68.421 63.2051 68.2788 63.2866 68.1691 63.4473C68.0399 63.6385 67.9758 63.8937 67.9758 64.213C67.9758 64.5322 68.0399 64.7885 68.168 64.9677C68.2766 65.123 68.4319 65.2001 68.6317 65.2001C68.7762 65.2001 68.8978 65.1534 68.9988 65.0611C69.0998 64.9688 69.1736 64.8265 69.2214 64.6354L68.8663 64.5507C68.8272 64.7331 68.7512 64.8233 68.6361 64.8233C68.5568 64.8233 68.4884 64.782 68.4308 64.6995C68.3744 64.6169 68.345 64.4997 68.3429 64.3487H69.2388L69.241 64.2911C69.241 63.9219 69.178 63.6428 69.0509 63.4538C68.9412 63.2888 68.7892 63.2062 68.5959 63.2062L68.5948 63.2051ZM67.3351 63.5603C67.3025 63.62 67.2612 63.6613 67.2113 63.6841C67.1613 63.7069 67.0657 63.7177 66.9256 63.7177H66.7171V62.9695H66.9007C67.0581 62.9695 67.1613 62.9793 67.2102 62.9999C67.259 63.0205 67.3003 63.0607 67.3329 63.1204C67.3665 63.1802 67.3828 63.254 67.3828 63.342C67.3828 63.4299 67.3665 63.5005 67.334 63.5603H67.3351ZM67.3894 62.5622C67.3199 62.5373 67.1722 62.5242 66.9474 62.5242H66.3414V65.1545H66.7171V64.163H66.9636C67.1917 64.163 67.3513 64.1369 67.4447 64.0848C67.5381 64.0327 67.6163 63.9425 67.6782 63.8133C67.7401 63.6852 67.7716 63.5255 67.7716 63.3355C67.7716 63.1259 67.7358 62.9554 67.6641 62.8229C67.5924 62.6904 67.5001 62.6035 67.3894 62.5633V62.5622ZM65.0523 63.2812C64.986 63.2301 64.9057 63.2051 64.8134 63.2051C64.7352 63.2051 64.6624 63.2301 64.594 63.2801C64.5256 63.33 64.4604 63.4061 64.4007 63.5081C64.3605 63.4071 64.3084 63.3311 64.2443 63.2801C64.1802 63.2301 64.1053 63.2051 64.0184 63.2051C63.937 63.2051 63.8609 63.2301 63.7904 63.2812C63.7198 63.3311 63.6546 63.4082 63.596 63.5092V63.2497H63.2669V65.1545H63.6253V64.2282C63.6253 64.0414 63.6351 63.9089 63.6546 63.8307C63.6742 63.7525 63.7067 63.6928 63.7513 63.6526C63.7958 63.6113 63.8447 63.5918 63.8979 63.5918C63.9761 63.5918 64.0282 63.6309 64.0543 63.7101C64.0738 63.7699 64.0836 63.9034 64.0836 64.1109V65.1556H64.442V64.2401C64.442 63.9838 64.4658 63.8122 64.5147 63.7243C64.5636 63.6363 64.6277 63.5928 64.7069 63.5928C64.7754 63.5928 64.8242 63.6243 64.8525 63.6873C64.8818 63.7503 64.8959 63.8774 64.8959 64.0674V65.1578H65.2543V63.9382C65.2543 63.7427 65.2369 63.5972 65.2022 63.5016C65.1674 63.4071 65.1164 63.3344 65.0501 63.2833L65.0523 63.2812ZM62.1125 64.0392C62.1125 63.898 62.1375 63.7872 62.1896 63.708C62.2417 63.6298 62.3058 63.5907 62.3807 63.5907C62.4524 63.5907 62.5132 63.6287 62.5654 63.7025C62.6164 63.7775 62.6446 63.8893 62.6468 64.0381H62.1114L62.1125 64.0392ZM62.359 63.2051C62.1853 63.2051 62.043 63.2866 61.9333 63.4473C61.8041 63.6385 61.7389 63.8937 61.7389 64.213C61.7389 64.5322 61.803 64.7885 61.9322 64.9677C62.0408 65.123 62.1961 65.2001 62.3959 65.2001C62.5393 65.2001 62.662 65.1534 62.763 65.0611C62.864 64.9688 62.9378 64.8265 62.9856 64.6354L62.6305 64.5507C62.5914 64.7331 62.5154 64.8233 62.4003 64.8233C62.3199 64.8233 62.2515 64.782 62.195 64.6995C62.1386 64.6169 62.1092 64.4997 62.1071 64.3487H63.003L63.0052 64.2911C63.0052 63.9219 62.9422 63.6428 62.8151 63.4538C62.7054 63.2888 62.5534 63.2062 62.3601 63.2062L62.359 63.2051ZM61.4489 64.782C61.4044 64.782 61.3751 64.7581 61.3599 64.7103C61.3523 64.6843 61.349 64.5876 61.349 64.4215V63.6526H61.5934V63.2508H61.349V62.5785L60.9907 62.8728V63.2518H60.8256V63.6537H60.9907V64.4855C60.9907 64.6984 60.9983 64.8396 61.0124 64.9091C61.0308 65.0036 61.0678 65.0752 61.1231 65.1263C61.1774 65.1773 61.2513 65.2023 61.3414 65.2023C61.4457 65.2023 61.5391 65.1773 61.6227 65.1263L61.5923 64.7353C61.5304 64.7679 61.4826 64.7842 61.4489 64.7842V64.782ZM60.1501 63.9599C59.972 63.9013 59.8656 63.8578 59.8319 63.8296C59.7971 63.8024 59.7809 63.7677 59.7809 63.7253C59.7809 63.6786 59.7993 63.6406 59.8373 63.6113C59.8742 63.582 59.9372 63.5668 60.0252 63.5668C60.1653 63.5668 60.25 63.6428 60.2793 63.7959L60.6171 63.708C60.5801 63.5309 60.515 63.4028 60.4227 63.3235C60.3304 63.2442 60.1957 63.2041 60.0187 63.2041C59.8417 63.2041 59.6918 63.2573 59.5941 63.3637C59.4974 63.4701 59.4485 63.6124 59.4485 63.7894C59.4485 63.9664 59.4985 64.1065 59.5984 64.2086C59.6777 64.2901 59.8645 64.3759 60.1588 64.466C60.2163 64.4845 60.2554 64.5051 60.275 64.529C60.2934 64.5529 60.3032 64.5854 60.3032 64.6278C60.3032 64.6886 60.2826 64.7386 60.2391 64.7766C60.1968 64.8146 60.1327 64.8341 60.0469 64.8341C59.8851 64.8341 59.7885 64.7342 59.758 64.5344L59.3997 64.6115C59.4344 64.8026 59.5083 64.9482 59.618 65.0481C59.7287 65.148 59.8721 65.1979 60.0469 65.1979C60.2391 65.1979 60.3912 65.1382 60.4998 65.0188C60.6095 64.8993 60.6638 64.7473 60.6638 64.5626C60.6638 64.4095 60.629 64.2868 60.5573 64.1945C60.4857 64.1022 60.3499 64.024 60.1501 63.9577V63.9599ZM58.7991 62.9912H59.1575V62.5242H58.7991V62.9912ZM58.7991 65.1545H59.1575V63.2497H58.7991V65.1545ZM58.2235 63.7177C58.1388 63.6471 58.002 63.5809 57.813 63.5179C57.6338 63.4593 57.5198 63.405 57.4699 63.3561C57.4199 63.3072 57.3949 63.2475 57.3949 63.1758C57.3949 63.1041 57.4221 63.0422 57.4775 62.9934C57.5328 62.9445 57.611 62.9195 57.712 62.9195C57.813 62.9195 57.8923 62.9478 57.9466 63.0042C58.002 63.0607 58.0378 63.1595 58.0541 63.3007L58.432 63.2768C58.4244 63.0216 58.3593 62.824 58.2366 62.6871C58.1139 62.5492 57.9423 62.4808 57.7229 62.4808C57.5774 62.4808 57.4546 62.5101 57.3547 62.5688C57.2559 62.6274 57.1777 62.7132 57.1212 62.8283C57.0648 62.9434 57.0365 63.0727 57.0365 63.216C57.0365 63.3387 57.0583 63.4538 57.1028 63.5603C57.1473 63.6678 57.206 63.7536 57.2809 63.8198C57.3547 63.8861 57.4731 63.9458 57.6338 64.0023C57.813 64.0653 57.926 64.1109 57.9727 64.138C58.0194 64.1652 58.0541 64.1988 58.0769 64.2412C58.0997 64.2835 58.1106 64.3335 58.1106 64.3932C58.1106 64.4953 58.078 64.58 58.0129 64.6495C57.9477 64.7179 57.8576 64.7527 57.7446 64.7527C57.5144 64.7527 57.3786 64.5844 57.3374 64.2488L56.9692 64.2987C57.0213 64.9004 57.2755 65.2012 57.7337 65.2012C57.9933 65.2012 58.1833 65.123 58.305 64.9677C58.4266 64.8124 58.4874 64.6202 58.4874 64.3921C58.4874 64.2347 58.4657 64.1 58.4212 63.9892C58.3767 63.8785 58.3126 63.7883 58.2279 63.7188L58.2235 63.7177ZM55.6085 62.9923H55.9679V62.5253H55.6085V62.9923ZM55.6085 65.1556H55.9679V63.2508H55.6085V65.1556ZM54.7831 63.961C54.605 63.9024 54.4996 63.8589 54.4649 63.8307C54.4312 63.8035 54.4139 63.7688 54.4139 63.7264C54.4139 63.6797 54.4323 63.6417 54.4703 63.6124C54.5072 63.5831 54.5702 63.5679 54.6582 63.5679C54.7983 63.5679 54.883 63.6439 54.9134 63.797L55.2501 63.709C55.2132 63.532 55.148 63.4039 55.0557 63.3246C54.9634 63.2453 54.8287 63.2051 54.6517 63.2051C54.4747 63.2051 54.3248 63.2584 54.2271 63.3648C54.1304 63.4712 54.0815 63.6135 54.0815 63.7905C54.0815 63.9675 54.1315 64.1076 54.2303 64.2097C54.3096 64.2911 54.4964 64.3769 54.7907 64.4671C54.8493 64.4855 54.8873 64.5062 54.908 64.5301C54.9264 64.554 54.9362 64.5865 54.9362 64.6289C54.9362 64.6897 54.9145 64.7397 54.8721 64.7777C54.8298 64.8157 54.7657 64.8352 54.6799 64.8352C54.5181 64.8352 54.4215 64.7353 54.39 64.5355L54.0316 64.6126C54.0663 64.8037 54.1402 64.9493 54.2499 65.0492C54.3606 65.1491 54.504 65.199 54.6788 65.199C54.8711 65.199 55.022 65.1393 55.1317 65.0198C55.2414 64.9004 55.2957 64.7483 55.2957 64.5637C55.2957 64.4106 55.2609 64.2879 55.1903 64.1956C55.1187 64.1033 54.9829 64.0251 54.7831 63.9588V63.961ZM53.4527 64.3411C53.4527 64.4866 53.443 64.5865 53.4234 64.6419C53.4039 64.6973 53.3702 64.7451 53.3203 64.7853C53.2703 64.8255 53.2203 64.8461 53.1693 64.8461C53.1128 64.8461 53.065 64.8211 53.027 64.7722C52.989 64.7223 52.9706 64.6604 52.9706 64.5876C52.9706 64.5225 52.9879 64.4703 53.0216 64.4291C53.0564 64.3878 53.128 64.3509 53.2388 64.3172C53.3355 64.289 53.4061 64.2629 53.4517 64.2412V64.3422L53.4527 64.3411ZM53.8003 64.529L53.8035 63.9404C53.8035 63.7177 53.7861 63.5646 53.7525 63.4799C53.7177 63.3952 53.6613 63.3289 53.582 63.2801C53.5027 63.2312 53.3865 63.2062 53.2355 63.2062C53.0661 63.2062 52.9358 63.2486 52.8446 63.3322C52.7545 63.4169 52.6893 63.5548 52.6502 63.7471L52.9749 63.8296C52.9977 63.7373 53.027 63.6743 53.065 63.6417C53.102 63.6081 53.1519 63.5918 53.216 63.5918C53.2801 63.5918 53.3279 63.6026 53.3626 63.6233C53.3974 63.6439 53.4213 63.6721 53.4343 63.7047C53.4473 63.7373 53.4538 63.8068 53.4538 63.9132C53.3887 63.9512 53.2736 63.9925 53.1074 64.037C52.9706 64.0739 52.8717 64.1174 52.8088 64.1641C52.7468 64.2119 52.698 64.2759 52.6643 64.3563C52.6306 64.4367 52.6133 64.5301 52.6133 64.6376C52.6133 64.8081 52.6556 64.9438 52.7392 65.047C52.8229 65.1491 52.9304 65.2001 53.0629 65.2001C53.1422 65.2001 53.216 65.1795 53.2855 65.136C53.3561 65.0937 53.4213 65.0307 53.4821 64.946L53.5288 65.1545H53.8828C53.8513 65.0633 53.8307 64.9775 53.8187 64.8971C53.8079 64.8157 53.8014 64.693 53.8014 64.5279L53.8003 64.529ZM51.9812 62.9923H52.3407V62.5253H51.9812V62.9923ZM51.9812 65.1556H52.3407V63.2508H51.9812V65.1556ZM51.1559 63.961C50.9778 63.9024 50.8713 63.8589 50.8377 63.8307C50.8029 63.8035 50.7866 63.7688 50.7866 63.7264C50.7866 63.6797 50.8051 63.6417 50.8431 63.6124C50.88 63.5831 50.943 63.5679 51.031 63.5679C51.1711 63.5679 51.2558 63.6439 51.2851 63.797L51.6228 63.709C51.5859 63.532 51.5208 63.4039 51.4285 63.3246C51.3361 63.2453 51.2015 63.2051 51.0255 63.2051C50.8398 63.2051 50.6987 63.2584 50.6009 63.3648C50.5032 63.4712 50.4543 63.6135 50.4543 63.7905C50.4543 63.9675 50.5043 64.1076 50.6042 64.2097C50.6835 64.2911 50.8702 64.3769 51.1646 64.4671C51.2232 64.4855 51.2612 64.5062 51.2818 64.5301C51.3003 64.554 51.309 64.5865 51.309 64.6289C51.309 64.6897 51.2884 64.7397 51.2449 64.7777C51.2026 64.8157 51.1385 64.8352 51.0527 64.8352C50.892 64.8352 50.7953 64.7353 50.7638 64.5355L50.4044 64.6126C50.4402 64.8037 50.513 64.9493 50.6237 65.0492C50.7345 65.1491 50.8778 65.199 51.0527 65.199C51.2449 65.199 51.3959 65.1393 51.5056 65.0198C51.6142 64.9004 51.6695 64.7483 51.6695 64.5637C51.6695 64.4106 51.6348 64.2879 51.5642 64.1956C51.4925 64.1033 51.3568 64.0251 51.157 63.9588L51.1559 63.961ZM49.7853 64.6408C49.7213 64.7397 49.6431 64.7896 49.554 64.7896C49.465 64.7896 49.3824 64.7407 49.3173 64.6419C49.251 64.5431 49.2184 64.3965 49.2184 64.2032C49.2184 64.011 49.251 63.8654 49.3162 63.7655C49.3813 63.6667 49.4585 63.6157 49.5486 63.6157C49.6387 63.6157 49.718 63.6656 49.7832 63.7655C49.8483 63.8654 49.8809 64.0099 49.8809 64.1988C49.8809 64.3878 49.8483 64.5409 49.7842 64.6397L49.7853 64.6408ZM49.5497 63.2062C49.4204 63.2062 49.3042 63.2442 49.2 63.3213C49.0968 63.3985 49.0132 63.5136 48.948 63.6667C48.884 63.8198 48.8514 63.9903 48.8514 64.1771C48.8514 64.5051 48.9176 64.7581 49.0501 64.9351C49.1826 65.1122 49.3498 65.2012 49.5508 65.2012C49.6767 65.2012 49.7919 65.161 49.8961 65.0817C50.0004 65.0025 50.0862 64.883 50.1502 64.7245C50.2154 64.5659 50.248 64.3889 50.248 64.1923C50.248 63.9284 50.1861 63.6982 50.0623 63.5016C49.9385 63.304 49.7669 63.2062 49.5497 63.2062ZM48.1107 63.961C47.9326 63.9024 47.8262 63.8589 47.7925 63.8307C47.7578 63.8035 47.7415 63.7688 47.7415 63.7264C47.7415 63.6797 47.76 63.6417 47.7969 63.6124C47.8338 63.5831 47.8968 63.5679 47.9847 63.5679C48.1248 63.5679 48.2096 63.6439 48.24 63.797L48.5766 63.709C48.5397 63.532 48.4745 63.4039 48.3822 63.3246C48.2899 63.2453 48.1553 63.2051 47.9782 63.2051C47.8012 63.2051 47.6513 63.2584 47.5547 63.3648C47.457 63.4712 47.4081 63.6135 47.4081 63.7905C47.4081 63.9675 47.458 64.1076 47.558 64.2097C47.6383 64.2911 47.824 64.3769 48.1183 64.4671C48.177 64.4855 48.215 64.5062 48.2356 64.5301C48.2541 64.554 48.2628 64.5865 48.2628 64.6289C48.2628 64.6897 48.241 64.7397 48.1987 64.7777C48.1563 64.8157 48.0923 64.8352 48.0065 64.8352C47.8447 64.8352 47.748 64.7353 47.7176 64.5355L47.3592 64.6126C47.394 64.8037 47.4678 64.9493 47.5786 65.0492C47.6894 65.1491 47.8327 65.199 48.0076 65.199C48.1998 65.199 48.3507 65.1393 48.4604 65.0198C48.569 64.9004 48.6244 64.7483 48.6244 64.5637C48.6244 64.4106 48.5897 64.2879 48.518 64.1956C48.4463 64.1033 48.3105 64.0251 48.1107 63.9588V63.961ZM46.0843 64.1152L46.3373 63.1389L46.5947 64.1152H46.0843ZM46.1407 62.5253L45.4131 65.1556H45.8138L45.9681 64.5605H46.7163L46.8792 65.1556H47.2886L46.5404 62.5253H46.1407Z" fill="#234497"/>
<path fill-rule="evenodd" clip-rule="evenodd" d="M23.2284 49.4619C28.0339 49.4619 31.9294 53.3584 31.9294 58.1629C31.9294 62.9673 28.0339 66.8639 23.2284 66.8639C18.4228 66.8639 14.5273 62.9684 14.5273 58.1629C14.5273 53.3573 18.4228 49.4619 23.2284 49.4619Z" fill="#204195"/>
<path fill-rule="evenodd" clip-rule="evenodd" d="M31.1496 41.1366C35.1689 41.1366 38.4269 44.3946 38.4269 48.4139C38.4269 52.4331 35.1689 55.6911 31.1496 55.6911C27.1303 55.6911 23.8723 52.4331 23.8723 48.4139C23.8723 44.3946 27.1303 41.1366 31.1496 41.1366Z" fill="#0673BA"/>
<path fill-rule="evenodd" clip-rule="evenodd" d="M39.2653 48.8646C42.6221 48.8646 45.3425 51.585 45.3425 54.9418C45.3425 58.2986 42.6221 61.019 39.2653 61.019C35.9085 61.019 33.188 58.2975 33.188 54.9418C33.188 51.5861 35.9095 48.8646 39.2653 48.8646Z" fill="#21ADE3"/>
</svg>
