<svg width="109" height="108" viewBox="0 0 109 108" fill="none" xmlns="http://www.w3.org/2000/svg">
<path d="M84.7009 49.1863C87.7075 45.6739 89.7118 41.4154 90.5027 36.8592C90.5027 36.7888 90.397 36.6735 90.3137 36.6095C90.2305 36.5455 90.1857 36.5519 90.1601 36.6095C86.0745 47.7295 79.3731 53.259 69.9501 57.1012C69.5627 55.5547 69.2265 53.9922 68.9672 52.4169C72.5852 51.4244 76.1072 49.9803 78.9633 47.8959C82.0658 45.6194 84.6497 42.7058 86.542 39.3535C88.3062 36.2669 89.5933 32.9338 90.3618 29.463C90.5379 28.6402 90.4546 28.3456 90.1761 28.1311L90.048 28.035C89.9327 27.9486 89.8463 28.035 89.8143 28.1919C89.6093 29.0372 89.35 29.8665 89.0362 30.6765C85.2997 40.711 79.3443 46.7465 68.5445 49.2471C68.378 47.4797 68.3364 45.7027 68.4165 43.9289C76.0016 42.328 82.418 37.0546 85.9112 30.1834C87.4961 26.9752 88.6872 23.5845 89.4557 20.0881C89.5517 19.7519 89.4236 19.3933 89.1355 19.198C89.0618 19.1435 88.9786 19.1115 88.8889 19.0987C88.7096 19.0091 88.5047 18.9867 88.3126 19.0379C84.8162 19.8063 81.4223 20.9974 78.2141 22.5855C71.3717 26.0595 66.1304 32.4343 64.491 39.9714C62.7172 40.0483 60.9434 40.0034 59.176 39.8337C61.6798 29.1172 67.7089 23.1842 77.705 19.4701C78.515 19.1563 79.3475 18.8938 80.1928 18.6889C80.3337 18.6569 80.4329 18.5736 80.3465 18.4551L80.2504 18.3303C80.0359 18.0517 79.7413 17.9653 78.9184 18.1446C75.4477 18.9098 72.1146 20.1969 69.0312 21.9644C65.6757 23.8534 62.762 26.4373 60.4855 29.5431C58.4236 32.3639 56.9892 35.8411 56.003 39.4143C54.4309 39.155 52.878 38.8188 51.3347 38.4281C55.1769 29.0724 60.7161 22.419 71.7848 18.3431C71.8584 18.3175 71.8456 18.2534 71.7848 18.1894C71.7239 18.1254 71.6055 17.9909 71.535 18.0005C66.9724 18.7881 62.7108 20.7957 59.1952 23.8054C54.8663 27.4491 51.3315 32.0565 48.5556 37.6661C47.1788 37.2595 45.8084 36.8176 44.4508 36.3502C40.3461 34.9382 29.7833 30.0906 25.7041 26.591C24.4234 25.4896 23.8055 25.3423 23.1235 25.8226C22.7585 26.1299 22.4287 26.4757 22.1405 26.8567C20.5268 29.146 19.3005 31.6819 18.5064 34.3682C18.4456 34.5988 18.8266 34.8197 19.2108 34.65C21.1159 33.8015 29.335 37.3811 31.7172 38.3193C33.2572 38.9244 34.8229 39.4783 36.3918 40.0002C39.6673 41.0953 42.9684 42.091 46.3175 42.8819C46.119 43.4102 45.9269 43.9417 45.7411 44.4828C45.1776 46.1349 44.7038 47.8127 44.3099 49.4905C36.411 48.3218 29.6968 46.2886 25.3359 44.4604C22.2654 43.2021 20.3443 42.8915 19.0187 43.5831C18.7978 43.7016 18.5673 44.0858 18.6761 44.6877C19.0219 46.6152 19.6367 48.4819 20.5076 50.2333C21.2408 51.7157 21.6506 51.2355 22.3518 51.0722C23.338 50.848 24.5131 51.1522 25.4704 51.3411C27.3307 51.7029 29.1717 52.1704 31.0256 52.5738C35.0951 53.4351 39.2254 53.989 43.3782 54.2324C43.0292 56.4736 42.7987 58.6541 42.6578 60.7417C42.1263 60.7193 41.6012 60.6936 41.0889 60.6616C35.0343 60.3158 28.1984 58.6317 25.9667 58.0489C25.7458 57.9913 25.7586 58.6253 25.9123 58.795C26.8984 59.9092 28.8227 61.9103 29.2582 62.3938C30.3244 63.6265 31.714 64.5422 33.2668 65.0353C35.2392 65.6757 37.33 65.7942 39.3823 65.8678C40.3429 65.903 41.3931 65.919 42.4817 65.9158C42.4817 67.0461 42.4817 68.1251 42.5297 69.1177C42.6034 71.1732 42.725 73.28 43.3622 75.2331C43.8521 76.786 44.7614 78.1724 45.9909 79.2418C46.4744 79.6773 48.4755 81.6016 49.5897 82.5877C49.7594 82.7414 50.3966 82.7574 50.3358 82.5333C49.753 80.292 48.0689 73.4657 47.7231 67.4143C47.6911 66.8668 47.6622 66.3064 47.6398 65.7397C49.7242 65.6053 51.9143 65.3779 54.1459 65.0321C54.3861 69.2169 54.9464 73.3761 55.8141 77.4744C56.2143 79.3283 56.6818 81.1693 57.0436 83.0328C57.2325 83.9933 57.5399 85.162 57.3125 86.1514C57.1493 86.8526 56.6722 87.2592 58.1514 87.9956C59.9028 88.8633 61.7727 89.4813 63.697 89.8271C64.2989 89.9327 64.6831 89.7054 64.8016 89.4813C65.5028 88.1461 65.1922 86.2314 63.9275 83.1737C62.0993 78.7968 60.0533 72.0537 58.8846 64.1196C60.6168 63.7194 62.3266 63.2327 64.0076 62.6596C64.507 62.4867 65.0001 62.3106 65.49 62.1281C66.2808 65.49 67.283 68.8135 68.3716 72.1082C68.8935 73.6803 69.4475 75.2427 70.0558 76.7828C70.9907 79.165 74.5704 87.3873 73.7251 89.2892C73.5522 89.6734 73.7731 90.0544 74.0069 89.9936C76.6932 89.2027 79.229 87.9732 81.5151 86.3595C81.8961 86.0713 82.2419 85.7447 82.5493 85.3797C83.0296 84.6945 82.8695 84.083 81.7809 82.7991C78.2813 78.7167 73.4305 68.1539 72.0217 64.0492C71.5479 62.6756 71.106 61.286 70.693 59.8868C76.3922 57.1172 81.0285 53.56 84.7009 49.1863ZM77.0742 25.5376C79.9558 23.2963 83.3049 21.6954 86.7597 20.5619L88.4471 20.0304C88.2806 20.5652 88.1109 21.0967 87.9412 21.6314C86.7981 25.0861 85.2164 28.4384 82.9656 31.3169C79.3475 35.9467 74.3591 38.4602 68.948 39.4623C69.9726 34.0897 72.4764 29.1364 77.0742 25.5376ZM63.8571 44.5436C63.7418 46.1445 63.7194 47.7455 63.7578 49.3688C63.7578 49.5865 63.7578 49.801 63.7834 50.0092C61.8847 50.2141 59.9412 50.3293 57.9945 50.3902C58.0458 48.4339 58.1738 46.4935 58.3852 44.5949L59.1344 44.6237C60.7065 44.6749 62.2882 44.6557 63.8571 44.5436ZM49.5705 43.5831C51.3315 43.9033 53.0925 44.1882 54.892 44.3707C54.527 46.4743 54.29 48.5331 54.1491 50.3966C52.449 50.3485 50.752 50.2493 49.0839 50.0764C48.8053 50.0508 48.5331 50.0188 48.261 49.9899C48.5652 47.8287 49.0006 45.6899 49.5705 43.5831ZM47.5342 60.8729C47.5342 58.7886 47.6142 56.6273 47.7807 54.4437C49.8459 54.4949 51.9079 54.4885 53.9634 54.4437C53.9186 56.5025 53.9122 58.5676 53.9634 60.6328C51.7766 60.7865 49.6186 60.8729 47.5342 60.8729ZM58.3884 60.1653C58.3627 59.922 58.3371 59.6819 58.3115 59.4353C58.1482 57.732 58.049 56.003 57.9913 54.2676C59.8644 54.1299 61.9072 53.8962 64.0108 53.5376C64.1933 55.3274 64.4622 57.1044 64.7952 58.8686C62.6884 59.4289 60.5496 59.858 58.3884 60.1525V60.1653Z" fill="url(#paint0_linear_801_8885)"/>
<defs>
<linearGradient id="paint0_linear_801_8885" x1="37.5765" y1="70.8595" x2="89.1964" y2="19.2396" gradientUnits="userSpaceOnUse">
<stop stop-color="#1751A4"/>
<stop offset="0.52" stop-color="#307F75"/>
<stop offset="1" stop-color="#49AB48"/>
</linearGradient>
</defs>
</svg>
