<svg width="109" height="108" viewBox="0 0 109 108" fill="none" xmlns="http://www.w3.org/2000/svg">
<path d="M40.4815 36.784C37.7112 36.784 35.1562 37.6581 33.0449 39.1374V28.339C33.0449 26.8732 31.8615 25.6898 30.3957 25.6898H30.2613C28.7955 25.6898 27.5986 26.8866 27.5986 28.3524V49.2365C27.5986 49.3844 27.5986 49.5323 27.5986 49.6803C27.5986 49.8282 27.5986 49.9761 27.5986 50.124V50.2719C27.5986 50.393 27.5986 50.5274 27.6255 50.6485C28.1231 57.3185 33.677 62.563 40.468 62.563C47.2591 62.563 53.3508 56.794 53.3508 49.6803C53.3508 42.5665 47.5818 36.7975 40.468 36.7975M40.468 57.5605C36.1782 57.5605 32.6953 54.0776 32.6953 49.8013C32.6953 45.525 36.1782 42.0286 40.468 42.0286C44.7578 42.0286 48.2273 45.5115 48.2273 49.8013C48.2273 54.0911 44.7578 57.5605 40.468 57.5605Z" fill="#27C4EE"/>
<path d="M68.3584 49.8416C68.3584 42.7682 62.6297 37.0395 55.5563 37.0395C48.4828 37.0395 43.292 42.2572 42.7945 48.8734C42.781 48.9944 42.7676 49.1155 42.7676 49.2365V49.3844C42.7676 49.5323 42.7676 49.6803 42.7676 49.8282C42.7676 49.9761 42.7676 50.124 42.7676 50.2719V71.0081C42.7676 72.4604 43.9509 73.6438 45.4033 73.6438H45.5378C46.9901 73.6438 48.1735 72.4604 48.1735 71.0081V60.2769C50.2579 61.7562 52.7995 62.6168 55.5563 62.6168C62.6297 62.6168 68.3584 56.8882 68.3584 49.8147M63.2752 49.6937C63.2752 53.9566 59.8192 57.4126 55.5563 57.4126C51.2934 57.4126 47.8373 53.9566 47.8373 49.6937C47.8373 45.4308 51.2934 41.9748 55.5563 41.9748C59.8192 41.9748 63.2752 45.4308 63.2752 49.6937Z" fill="#1079BF"/>
<path d="M48.039 47.9993C51.6968 47.9052 49.8141 44.1802 51.5758 43.1178C50.7151 41.652 49.5586 40.3745 48.2004 39.366C45.3764 38.5053 43.682 40.5359 44.5964 43.212C46.3043 44.2878 47.5549 45.9822 48.0256 47.9993" fill="#27C4EE"/>
<path d="M57.923 49.6265C57.923 56.7402 63.6921 62.5092 70.8059 62.5092C77.9197 62.5092 83.1508 57.2512 83.6484 50.5947C83.6618 50.4737 83.6753 50.3526 83.6753 50.2182V50.0702C83.6753 49.9223 83.6753 49.7744 83.6753 49.613C83.6753 49.4516 83.6753 49.3172 83.6753 49.1692V28.2986C83.6753 26.8328 82.4784 25.636 81.0126 25.636H80.8782C79.4124 25.636 78.2155 26.8328 78.2155 28.2986V39.097C76.1177 37.6178 73.5492 36.7302 70.779 36.7302C63.6652 36.7302 57.8961 42.4992 57.8961 49.613M63.0197 49.734C63.0197 45.4443 66.5026 41.9748 70.7924 41.9748C75.0822 41.9748 78.5652 45.4443 78.5652 49.734C78.5652 54.0238 75.0822 57.5067 70.7924 57.5067C66.5026 57.5067 63.0197 54.0238 63.0197 49.734Z" fill="#21376C"/>
<path d="M63.1542 51.0788C62.7776 53.2439 61.5001 55.0727 59.725 56.2158C59.994 58.986 60.9219 60.3442 63.2483 60.0752C64.6065 59.0532 65.7496 57.7622 66.6102 56.283C66.4623 52.5849 65.3596 51.5898 63.1407 51.0788" fill="#1079BF"/>
<path d="M14.541 82.062H14.2451V78.216H14.8906V79.6011C15.0116 79.3859 15.1327 79.2515 15.2537 79.1842C15.3747 79.117 15.5226 79.0767 15.684 79.0767C15.9933 79.0767 16.2488 79.2111 16.464 79.4801C16.6657 79.749 16.7733 80.1121 16.7733 80.5828C16.7733 81.0131 16.6657 81.3762 16.4774 81.672C16.2757 81.9679 15.9799 82.1292 15.6033 82.1292C15.2268 82.1292 14.9309 81.9544 14.7158 81.6048L14.541 82.0755V82.062ZM14.8906 80.8517C14.8906 81.1072 14.9444 81.2955 15.052 81.4165C15.1596 81.5376 15.3075 81.6048 15.4823 81.6048C15.6571 81.6048 15.7916 81.5376 15.9126 81.3896C16.0337 81.2552 16.0874 80.9728 16.1009 80.5693C16.1009 80.2735 16.0471 80.0449 15.9395 79.8835C15.8319 79.7221 15.6975 79.6415 15.5092 79.6415C15.3344 79.6415 15.1865 79.7087 15.0654 79.8432C14.9578 79.9776 14.8906 80.1794 14.8906 80.4214V80.8517Z" fill="#ED1C24"/>
<path d="M19.167 81.161L19.7452 81.2417C19.6645 81.4972 19.5166 81.7124 19.3014 81.8737C19.0863 82.0351 18.8173 82.1292 18.4811 82.1292C18.0911 82.1292 17.7684 81.9948 17.5263 81.7258C17.2843 81.4569 17.1633 81.1072 17.1633 80.65C17.1633 80.1928 17.2843 79.8701 17.5263 79.5877C17.7684 79.3053 18.0911 79.1573 18.508 79.1573C18.9249 79.1573 19.2342 79.2918 19.4494 79.5742C19.678 79.8566 19.7855 80.2062 19.7855 80.65V80.7173H17.8222C17.8222 80.9055 17.8356 81.0669 17.876 81.1879C17.9163 81.309 17.9836 81.4031 18.0911 81.4972C18.1987 81.5913 18.3332 81.6317 18.4946 81.6317C18.8173 81.6317 19.0325 81.4838 19.1401 81.1745M19.0997 80.3273C19.0997 80.1256 19.0325 79.9507 18.9114 79.8297C18.7904 79.6952 18.6425 79.628 18.4542 79.628C18.266 79.628 18.1315 79.6952 18.0105 79.8163C17.8894 79.9373 17.8222 80.1121 17.7953 80.3273H19.0997Z" fill="#ED1C24"/>
<path d="M21.0362 82.062H20.3907V79.2111H20.9689V79.897C21.0496 79.628 21.1707 79.4397 21.3051 79.3187C21.4531 79.1977 21.601 79.1304 21.7489 79.1304C21.7758 79.1304 21.8027 79.1304 21.8296 79.1304V79.8163C21.5068 79.8163 21.2917 79.9239 21.1841 80.1256C21.0765 80.3407 21.0227 80.5424 21.0227 80.7307V82.0486L21.0362 82.062Z" fill="#ED1C24"/>
<path d="M21.9506 81.4165L22.5558 81.2955C22.6499 81.5241 22.8516 81.6451 23.1609 81.6451C23.5643 81.6451 23.7526 81.5241 23.7526 81.2955C23.7526 81.2148 23.7257 81.161 23.6585 81.1072C23.5912 81.0534 23.524 81.0266 23.4433 81.0131L22.9188 80.919C22.3406 80.8114 22.0582 80.529 22.0582 80.0718C22.0582 79.8163 22.1523 79.6011 22.3271 79.4263C22.5154 79.2515 22.7844 79.1573 23.1475 79.1573C23.7526 79.1573 24.1157 79.3725 24.2502 79.8163L23.6719 79.9373C23.6181 79.7221 23.4433 79.6146 23.1609 79.6146C22.8247 79.6146 22.6499 79.7221 22.6499 79.9373C22.6499 80.0852 22.7844 80.1928 23.0668 80.2466L23.6719 80.3676C24.1426 80.4618 24.3846 80.7442 24.3846 81.1879C24.3846 81.4972 24.2636 81.7393 24.0215 81.8872C23.7795 82.0351 23.4836 82.1158 23.1475 82.1158C22.8516 82.1158 22.5961 82.062 22.3809 81.941C22.1523 81.82 22.0044 81.6451 21.9506 81.4031" fill="#ED1C24"/>
<path d="M27.37 82.062H26.7514C26.6976 81.8872 26.6707 81.6989 26.6573 81.4838C26.4825 81.9141 26.1597 82.1158 25.6891 82.1158C25.4067 82.1158 25.178 82.0351 25.0032 81.8737C24.8284 81.7124 24.7477 81.4972 24.7477 81.2417C24.7477 80.5828 25.326 80.26 26.469 80.26C26.5094 80.26 26.5766 80.26 26.6573 80.26V80.0449C26.6573 79.749 26.4556 79.6011 26.0521 79.6011C25.6487 79.6011 25.4336 79.749 25.3932 80.0449L24.8419 79.9642C24.8688 79.7221 24.9898 79.5339 25.2049 79.3725C25.4201 79.2246 25.7294 79.1439 26.1328 79.1439C26.348 79.1439 26.5363 79.1573 26.6707 79.1977C26.8052 79.238 26.9262 79.2918 27.0204 79.3859C27.1145 79.4801 27.1817 79.5742 27.2221 79.6683C27.2624 79.7759 27.2759 79.9507 27.2759 80.1928V81.4838C27.2759 81.672 27.3028 81.8603 27.3566 82.062M26.6438 80.6097C25.8101 80.6097 25.3932 80.8114 25.3932 81.2014C25.3932 81.3224 25.4336 81.4165 25.5142 81.4972C25.5949 81.5779 25.7294 81.6182 25.8908 81.6182C26.1328 81.6182 26.3211 81.5376 26.4421 81.3896C26.5632 81.2417 26.6304 81.0534 26.6304 80.8652V80.6097H26.6438Z" fill="#ED1C24"/>
<path d="M32.3053 82.062H31.6329V80.2869C31.6329 79.9238 31.4715 79.7356 31.1488 79.7356C30.9605 79.7356 30.7992 79.8028 30.6916 79.9373C30.5705 80.0718 30.5168 80.2869 30.5168 80.5559V82.0486H29.8309V80.2735C29.8309 79.897 29.683 79.7087 29.3737 79.7087C29.1854 79.7087 29.0241 79.7894 28.903 79.9373C28.782 80.0852 28.7148 80.2869 28.7148 80.5559V82.0486H28.0558V79.1977H28.6744V79.8028C28.8761 79.359 29.1989 79.1439 29.6292 79.1439C30.0595 79.1439 30.3285 79.359 30.4495 79.8028C30.6781 79.359 31.0009 79.1439 31.4043 79.1439C31.6867 79.1439 31.9019 79.2246 32.0632 79.3994C32.2246 79.5742 32.3187 79.7894 32.3187 80.0314V82.0486L32.3053 82.062Z" fill="#ED1C24"/>
<path d="M35.5058 82.062H34.8872C34.8335 81.8872 34.7931 81.6989 34.7931 81.4838C34.6183 81.9141 34.2955 82.1158 33.8249 82.1158C33.5425 82.1158 33.3139 82.0351 33.139 81.8737C32.9642 81.7124 32.8835 81.4972 32.8835 81.2417C32.8835 80.5828 33.4618 80.26 34.6048 80.26C34.6452 80.26 34.7124 80.26 34.7931 80.26V80.0449C34.7931 79.749 34.5914 79.6011 34.188 79.6011C33.7845 79.6011 33.5694 79.749 33.529 80.0449L32.9777 79.9642C33.0046 79.7221 33.1256 79.5339 33.3408 79.3725C33.5559 79.2246 33.8652 79.1439 34.2687 79.1439C34.4838 79.1439 34.6721 79.1573 34.8066 79.1977C34.941 79.238 35.0621 79.2918 35.1562 79.3859C35.2503 79.4801 35.3176 79.5742 35.3579 79.6683C35.3983 79.7759 35.4117 79.9507 35.4117 80.1928V81.4838C35.4117 81.672 35.4386 81.8603 35.4924 82.062M34.7797 80.6097C33.9459 80.6097 33.529 80.8114 33.529 81.2014C33.529 81.3224 33.5694 81.4165 33.6501 81.4972C33.7307 81.5779 33.8652 81.6182 34.0266 81.6182C34.2686 81.6182 34.4569 81.5376 34.5779 81.3896C34.699 81.2417 34.7662 81.0534 34.7662 80.8652V80.6097H34.7797Z" fill="#ED1C24"/>
<path d="M41.8935 82.062H41.2211V80.2869C41.2211 79.9238 41.0597 79.7356 40.737 79.7356C40.5487 79.7356 40.3873 79.8028 40.2797 79.9373C40.1587 80.0718 40.1049 80.2869 40.1049 80.5559V82.0486H39.4191V80.2735C39.4191 79.897 39.2712 79.7087 38.9619 79.7087C38.7736 79.7087 38.6122 79.7894 38.4912 79.9373C38.3702 80.0852 38.3029 80.2869 38.3029 80.5559V82.0486H37.644V79.1977H38.2626V79.8028C38.4643 79.359 38.7871 79.1439 39.2174 79.1439C39.6477 79.1439 39.9167 79.359 40.0377 79.8028C40.2663 79.359 40.589 79.1439 40.9925 79.1439C41.2749 79.1439 41.49 79.2246 41.6514 79.3994C41.8128 79.5742 41.9069 79.7894 41.9069 80.0314V82.0486L41.8935 82.062Z" fill="#ED1C24"/>
<path d="M44.4754 81.161L45.0537 81.2417C44.973 81.4972 44.825 81.7124 44.6099 81.8737C44.3947 82.0351 44.1123 82.1292 43.7896 82.1292C43.3996 82.1292 43.0769 81.9948 42.8348 81.7258C42.5927 81.4569 42.4717 81.1072 42.4717 80.65C42.4717 80.1928 42.5927 79.8701 42.8348 79.5877C43.0769 79.3053 43.413 79.1573 43.8165 79.1573C44.2199 79.1573 44.5426 79.2918 44.7578 79.5742C44.973 79.8566 45.094 80.2062 45.094 80.65V80.7173H43.1306C43.1306 80.9055 43.1441 81.0669 43.1844 81.1879C43.2248 81.309 43.292 81.4031 43.3996 81.4972C43.5072 81.5913 43.6417 81.6317 43.803 81.6317C44.1258 81.6317 44.3409 81.4838 44.4485 81.1745M44.4082 80.3273C44.4082 80.1256 44.3409 79.9507 44.2199 79.8297C44.0989 79.6952 43.9509 79.628 43.7761 79.628C43.6013 79.628 43.4534 79.6952 43.3324 79.8163C43.2113 79.9373 43.1441 80.1121 43.1172 80.3273H44.4082Z" fill="#ED1C24"/>
<path d="M49.9486 82.062H49.2762V80.2869C49.2762 79.9238 49.1148 79.7356 48.7787 79.7356C48.5904 79.7356 48.4425 79.8028 48.3214 79.9373C48.2138 80.0718 48.1466 80.2869 48.1466 80.5559V82.0486H47.4608V80.2735C47.4608 79.897 47.3129 79.7087 47.0036 79.7087C46.8153 79.7087 46.6539 79.7894 46.5329 79.9373C46.4119 80.0852 46.3446 80.2869 46.3446 80.5559V82.0486H45.6857V79.1977H46.3043V79.8028C46.506 79.359 46.8287 79.1439 47.2591 79.1439C47.6894 79.1439 47.9583 79.359 48.0794 79.8028C48.308 79.359 48.6307 79.1439 49.0342 79.1439C49.3031 79.1439 49.5317 79.2246 49.6931 79.3994C49.8545 79.5742 49.9486 79.7894 49.9486 80.0314V82.062Z" fill="#ED1C24"/>
<path d="M51.011 82.062H50.7151V78.216H51.3606V79.6011C51.4816 79.3859 51.6027 79.2515 51.7237 79.1842C51.8447 79.117 51.9926 79.0767 52.154 79.0767C52.4633 79.0767 52.7188 79.2111 52.934 79.4801C53.1357 79.749 53.2433 80.1121 53.2433 80.5828C53.2433 81.0131 53.1357 81.3762 52.934 81.672C52.7323 81.9679 52.4364 82.1292 52.0599 82.1292C51.6833 82.1292 51.3875 81.9544 51.1723 81.6048L50.9975 82.0755L51.011 82.062ZM51.3606 80.8517C51.3606 81.1072 51.4144 81.2955 51.522 81.4165C51.6295 81.5376 51.7775 81.6048 51.9523 81.6048C52.1271 81.6048 52.2616 81.5376 52.3826 81.3896C52.5036 81.2552 52.5574 80.9728 52.5709 80.5693C52.5709 80.2735 52.5171 80.0449 52.4095 79.8835C52.3019 79.7221 52.154 79.6415 51.9657 79.6415C51.7909 79.6415 51.643 79.7087 51.5354 79.8432C51.4278 79.9776 51.3606 80.1794 51.3606 80.4214V80.8517Z" fill="#ED1C24"/>
<path d="M56.2824 82.062H55.6638C55.6101 81.8872 55.5832 81.6989 55.5697 81.4838C55.3949 81.9141 55.0721 82.1158 54.6015 82.1158C54.3191 82.1158 54.0905 82.0351 53.9156 81.8737C53.7408 81.7124 53.6601 81.4972 53.6601 81.2417C53.6601 80.5828 54.2384 80.26 55.3814 80.26C55.4218 80.26 55.489 80.26 55.5697 80.26V80.0449C55.5697 79.749 55.368 79.6011 54.9646 79.6011C54.5611 79.6011 54.346 79.749 54.3056 80.0449L53.7543 79.9642C53.7812 79.7221 53.9022 79.5339 54.1174 79.3725C54.3325 79.2246 54.6418 79.1439 55.0453 79.1439C55.2604 79.1439 55.4487 79.1573 55.5832 79.1977C55.7176 79.238 55.8387 79.2918 55.9328 79.3859C56.0269 79.4801 56.0942 79.5742 56.1345 79.6683C56.1749 79.7759 56.1883 79.9507 56.1883 80.1928V81.4838C56.1883 81.672 56.2152 81.8603 56.269 82.062M55.5563 80.6097C54.7225 80.6097 54.3056 80.8114 54.3056 81.2014C54.3056 81.3224 54.346 81.4165 54.4267 81.4972C54.5073 81.5779 54.6418 81.6182 54.8032 81.6182C55.0453 81.6182 55.2335 81.5376 55.3545 81.3896C55.4756 81.2417 55.5428 81.0534 55.5428 80.8652V80.6097H55.5563Z" fill="#ED1C24"/>
<path d="M59.3216 82.062H58.6761V80.2869C58.6761 80.0987 58.6358 79.9642 58.5416 79.8566C58.4609 79.7625 58.3534 79.7087 58.2323 79.7087C58.071 79.7087 57.923 79.7759 57.7886 79.9238C57.6541 80.0718 57.6003 80.2869 57.6003 80.5828V82.0486H56.9548V79.1977H57.5465V79.8566C57.7482 79.3725 58.0441 79.1439 58.4072 79.1439C58.6627 79.1439 58.8778 79.2246 59.0526 79.3859C59.2275 79.5473 59.3216 79.8163 59.3216 80.2197V82.062Z" fill="#ED1C24"/>
<path d="M62.6835 78.6732V79.1708H62.4818C62.4011 79.1708 62.3204 79.1708 62.2532 79.1977C62.1859 79.2246 62.1322 79.2918 62.0649 79.3994C62.2935 79.5877 62.4011 79.7894 62.4011 80.018C62.4011 80.2735 62.2935 80.4752 62.0784 80.65C61.8632 80.8114 61.5943 80.8921 61.2446 80.8921C61.0967 80.8921 60.9219 80.8652 60.7202 80.8248C60.5857 80.8786 60.5184 80.9728 60.5184 81.1072C60.5184 81.1745 60.5453 81.2417 60.6126 81.2955C60.6798 81.3493 60.7739 81.3896 60.9084 81.3896H61.7556C62.0515 81.3896 62.2666 81.4703 62.4415 81.6182C62.6028 81.7662 62.6835 81.9544 62.6835 82.1696C62.6835 82.4385 62.5625 82.6672 62.307 82.842C62.0515 83.0168 61.6884 83.1109 61.2043 83.1109C60.2898 83.1109 59.8192 82.8554 59.8192 82.3444C59.8192 82.0889 59.9536 81.9006 60.236 81.7662C60.0612 81.6182 59.9671 81.4569 59.9671 81.2955C59.9671 81.0534 60.115 80.8517 60.4243 80.7038C60.1554 80.5424 60.0343 80.3273 60.0343 80.0449C60.0343 79.8028 60.1285 79.6011 60.3302 79.4397C60.5184 79.2784 60.8143 79.1842 61.2177 79.1842C61.3925 79.1842 61.5808 79.1977 61.7691 79.238C61.8498 78.8749 62.0784 78.7001 62.4549 78.7001H62.697L62.6835 78.6732ZM60.5184 81.9141C60.4243 81.9948 60.384 82.0755 60.384 82.1561C60.384 82.2906 60.4646 82.3982 60.6126 82.5058C60.7605 82.5999 61.016 82.6537 61.3522 82.6537C61.8498 82.6537 62.0918 82.5327 62.0918 82.2772C62.0918 82.183 62.0515 82.1158 61.9573 82.062C61.8767 82.0082 61.7691 81.9948 61.6615 81.9948H60.9757C60.8412 81.9948 60.6933 81.9679 60.5184 81.9275M61.2177 80.529C61.5674 80.529 61.7422 80.3676 61.7422 80.0314C61.7422 79.9104 61.7018 79.8028 61.6077 79.7087C61.527 79.628 61.3925 79.5742 61.2177 79.5742C61.0429 79.5742 60.9219 79.6146 60.8277 79.7087C60.7336 79.8028 60.6933 79.9104 60.6933 80.0449C60.6933 80.1794 60.7336 80.3004 60.8277 80.3811C60.9219 80.4752 61.0429 80.5155 61.2177 80.5155" fill="#ED1C24"/>
<path d="M65.4268 82.062H64.8217V81.4434C64.6603 81.8872 64.3645 82.1158 63.9207 82.1158C63.6652 82.1158 63.45 82.0351 63.3021 81.8737C63.1542 81.7124 63.0735 81.4838 63.0735 81.2014V79.2111H63.7324V81.0669C63.7324 81.2686 63.7728 81.4031 63.8669 81.4703C63.961 81.5376 64.0417 81.5645 64.1359 81.5645C64.2703 81.5645 64.4183 81.4972 64.5662 81.3762C64.7141 81.2552 64.7813 80.9862 64.7813 80.5828V79.2111H65.4268V82.062Z" fill="#ED1C24"/>
<path d="M68.5601 82.062H67.9146V80.2869C67.9146 80.0987 67.8743 79.9642 67.7802 79.8566C67.6995 79.7625 67.5919 79.7087 67.4709 79.7087C67.3095 79.7087 67.1616 79.7759 67.0271 79.9238C66.8926 80.0718 66.8388 80.2869 66.8388 80.5828V82.0486H66.1933V79.1977H66.785V79.8566C66.9868 79.3725 67.2826 79.1439 67.6457 79.1439C67.9012 79.1439 68.1029 79.2246 68.2912 79.3859C68.466 79.5473 68.5601 79.8163 68.5601 80.2197V82.062Z" fill="#ED1C24"/>
<path d="M71.5052 78.216H70.8059V82.062H71.5052V78.216Z" fill="#ED1C24"/>
<path d="M74.6788 82.062H74.0333V80.2869C74.0333 80.0987 73.993 79.9642 73.8988 79.8566C73.8182 79.7625 73.7106 79.7087 73.5895 79.7087C73.4282 79.7087 73.2802 79.7759 73.1458 79.9238C73.0113 80.0718 72.9575 80.2869 72.9575 80.5828V82.0486H72.312V79.1977H72.9037V79.8566C73.1054 79.3725 73.4013 79.1439 73.7644 79.1439C74.0199 79.1439 74.235 79.2246 74.4099 79.3859C74.5847 79.5473 74.6788 79.8163 74.6788 80.2197V82.062Z" fill="#ED1C24"/>
<path d="M77.7852 82.062H77.1801V81.4838C77.0187 81.9141 76.7363 82.1158 76.3463 82.1158C75.9967 82.1158 75.7277 81.9679 75.5395 81.672C75.3512 81.3762 75.257 81.0131 75.257 80.5828C75.257 80.1794 75.3512 79.8297 75.5529 79.5339C75.7412 79.238 76.0236 79.0901 76.3732 79.0901C76.7228 79.0901 76.9918 79.2515 77.1397 79.5877V78.2026H77.7852V82.062ZM77.1397 80.3811C77.1397 80.1525 77.0859 79.9642 76.9784 79.8432C76.8708 79.7087 76.7228 79.6549 76.548 79.6549C76.3598 79.6549 76.2118 79.7356 76.1043 79.897C75.9967 80.0583 75.9429 80.3138 75.9429 80.6366C75.9429 81.2686 76.1446 81.5914 76.5346 81.5914C76.6959 81.5914 76.8304 81.5241 76.9515 81.3896C77.0725 81.2552 77.1397 81.0803 77.1397 80.8652V80.3811Z" fill="#ED1C24"/>
<path d="M79.6679 82.1292C79.251 82.1292 78.9283 81.9813 78.6996 81.672C78.4845 81.3627 78.3635 81.0266 78.3635 80.6366C78.3635 80.2197 78.4845 79.8701 78.7265 79.5877C78.9686 79.3053 79.2913 79.1708 79.6948 79.1708C80.0713 79.1708 80.394 79.3053 80.6361 79.5742C80.8782 79.8432 80.9992 80.2063 80.9992 80.6366C80.9992 81.0669 80.8782 81.4434 80.6227 81.7258C80.3672 81.9948 80.0444 82.1292 79.6544 82.1292M79.6813 81.6048C80.1116 81.6048 80.3268 81.2821 80.3268 80.6366C80.3268 80.3407 80.273 80.1121 80.1789 79.9507C80.0713 79.7759 79.9099 79.6952 79.6948 79.6952C79.4796 79.6952 79.3048 79.7894 79.1972 79.9507C79.0896 80.1256 79.0358 80.3542 79.0358 80.6366C79.0358 80.9459 79.0896 81.1879 79.2107 81.3493C79.3182 81.5107 79.4796 81.5914 79.6813 81.5914" fill="#ED1C24"/>
<path d="M83.9716 82.0619H83.3261V80.2868C83.3261 80.0986 83.2857 79.9641 83.1916 79.8565C83.1109 79.7624 83.0033 79.7086 82.8823 79.7086C82.7209 79.7086 82.573 79.7758 82.4385 79.9237C82.3041 80.0717 82.2503 80.2868 82.2503 80.5827V82.0485H81.6048V79.1976H82.1965V79.8565C82.3982 79.3724 82.694 79.1438 83.0571 79.1438C83.3126 79.1438 83.5278 79.2245 83.7026 79.3858C83.8774 79.5472 83.9716 79.8162 83.9716 80.2196V82.0619Z" fill="#ED1C24"/>
<path d="M86.5534 81.1609L87.1317 81.2416C87.0644 81.4971 86.9165 81.7123 86.6879 81.8736C86.4727 82.035 86.2038 82.1292 85.8676 82.1292C85.4776 82.1292 85.1549 81.9947 84.9128 81.7257C84.6708 81.4568 84.5497 81.1071 84.5497 80.6499C84.5497 80.1927 84.6708 79.87 84.9128 79.5876C85.1549 79.3052 85.4776 79.1572 85.8945 79.1572C86.3114 79.1572 86.6207 79.2917 86.8358 79.5741C87.0644 79.8565 87.172 80.2062 87.172 80.6499V80.7172H85.2087C85.2087 80.9054 85.2356 81.0668 85.2625 81.1878C85.3028 81.3089 85.37 81.403 85.4776 81.4971C85.5852 81.5913 85.7197 81.6316 85.8811 81.6316C86.2038 81.6316 86.4055 81.4837 86.5265 81.1744M86.4862 80.3272C86.4862 80.1255 86.419 79.9506 86.2979 79.8296C86.1769 79.6951 86.029 79.6279 85.8542 79.6279C85.6793 79.6279 85.5314 79.6951 85.4104 79.8162C85.2894 79.9372 85.2221 80.112 85.1952 80.3272H86.4862Z" fill="#ED1C24"/>
<path d="M87.4272 81.4165L88.0323 81.2955C88.1264 81.5241 88.3282 81.6451 88.6375 81.6451C89.0409 81.6451 89.2291 81.5241 89.2291 81.2955C89.2291 81.2148 89.2022 81.161 89.135 81.1072C89.0678 81.0534 89.0005 81.0266 88.9198 81.0131L88.3954 80.919C87.8171 80.8114 87.5347 80.529 87.5347 80.0718C87.5347 79.8163 87.6289 79.6011 87.8037 79.4263C87.992 79.2515 88.2609 79.1573 88.624 79.1573C89.2291 79.1573 89.5922 79.3725 89.7267 79.8163L89.1485 79.9373C89.0947 79.7221 88.9199 79.6146 88.6375 79.6146C88.3013 79.6146 88.1264 79.7221 88.1264 79.9373C88.1264 80.0852 88.2609 80.1928 88.5433 80.2466L89.1485 80.3676C89.6191 80.4618 89.8612 80.7442 89.8612 81.1879C89.8612 81.4972 89.7402 81.7393 89.4981 81.8872C89.256 82.0351 88.9602 82.1158 88.624 82.1158C88.3282 82.1158 88.0726 82.062 87.844 81.941C87.6154 81.82 87.4675 81.6451 87.4137 81.4031" fill="#ED1C24"/>
<path d="M90.3856 82.062H91.0311V79.2111H90.3856V82.062ZM90.3856 78.8749H91.0311V78.2026H90.3856V78.8749Z" fill="#ED1C24"/>
<path d="M94.2451 82.062H93.6265C93.5727 81.8872 93.5458 81.6989 93.5324 81.4838C93.3576 81.9141 93.0348 82.1158 92.5642 82.1158C92.2818 82.1158 92.0532 82.0351 91.8783 81.8737C91.7035 81.7124 91.6228 81.4972 91.6228 81.2417C91.6228 80.5828 92.2011 80.26 93.3441 80.26C93.3845 80.26 93.4517 80.26 93.5324 80.26V80.0449C93.5324 79.749 93.3307 79.6011 92.9272 79.6011C92.5238 79.6011 92.3087 79.749 92.2683 80.0449L91.717 79.9642C91.7439 79.7221 91.8649 79.5339 92.08 79.3725C92.2952 79.2246 92.6045 79.1439 93.0079 79.1439C93.2231 79.1439 93.4114 79.1573 93.5458 79.1977C93.6803 79.238 93.8013 79.2918 93.8955 79.3859C93.9896 79.4801 94.0569 79.5742 94.0972 79.6683C94.1375 79.7759 94.151 79.9507 94.151 80.1928V81.4838C94.151 81.672 94.1779 81.8603 94.2317 82.062M93.5189 80.6097C92.6852 80.6097 92.2683 80.8114 92.2683 81.2014C92.2683 81.3224 92.3087 81.4165 92.3893 81.4972C92.47 81.5779 92.6045 81.6182 92.7659 81.6182C93.0079 81.6182 93.1962 81.5376 93.3172 81.3896C93.4383 81.2417 93.5055 81.0534 93.5055 80.8652V80.6097H93.5189Z" fill="#ED1C24"/>
</svg>
