<svg width="109" height="108" viewBox="0 0 109 108" fill="none" xmlns="http://www.w3.org/2000/svg">
<path d="M54.5014 59.9728C54.3769 59.9556 54.3211 59.8462 54.246 59.769C53.0423 58.5695 51.8365 57.368 50.6414 56.16C50.4697 55.9862 50.2981 55.909 50.0492 55.9111C48.3606 55.9218 46.6698 55.9047 44.9812 55.9261C44.6207 55.9304 44.5606 55.8188 44.5649 55.4906C44.5821 53.7912 44.5692 52.0897 44.5778 50.3882C44.5799 50.1758 44.5156 50.032 44.3675 49.884C43.1359 48.6631 41.915 47.4294 40.6792 46.2128C40.5011 46.0369 40.4925 45.951 40.677 45.7687C41.9065 44.5607 43.1166 43.3334 44.3418 42.1232C44.507 41.9601 44.5799 41.7992 44.5778 41.5632C44.5671 39.8402 44.5756 38.1173 44.5671 36.3943C44.5649 36.1304 44.5992 36.0639 44.8975 36.1176C47.6654 36.6218 50.1522 37.744 52.3686 39.4733C52.4845 39.5635 52.6025 39.6514 52.7205 39.7394C52.8256 39.8166 52.9308 39.8939 53.1131 40.0291C52.8342 40.0291 52.6454 40.0291 52.4587 40.0291C51.2679 40.0291 50.0771 40.0376 48.8862 40.0226C48.6094 40.0183 48.5451 40.1085 48.5494 40.3681C48.5644 41.3207 48.5494 42.2734 48.5579 43.2239C48.5601 43.4321 48.5 43.5844 48.3498 43.7324C47.6611 44.4062 46.9916 45.0992 46.2986 45.7687C46.1076 45.9532 46.1312 46.0476 46.3072 46.2192C46.9916 46.8822 47.6546 47.5667 48.3348 48.2318C48.4914 48.3863 48.5644 48.5408 48.5622 48.7661C48.5494 49.6844 48.5708 50.6028 48.5494 51.5211C48.5429 51.8365 48.6073 51.9481 48.9506 51.9395C49.8797 51.9138 50.8109 51.9374 51.7399 51.9245C51.9524 51.9224 52.0961 51.991 52.242 52.1369C52.993 52.8922 53.7525 53.6367 54.51 54.3855C54.5057 56.248 54.5035 58.1104 54.5014 59.9728Z" fill="#509C85"/>
<path d="M54.5079 32.0001C54.7353 32.1331 54.892 32.3455 55.0743 32.5258C56.1836 33.6286 57.2929 34.7336 58.3915 35.8472C58.5567 36.0146 58.7219 36.0747 58.9537 36.0747C60.6766 36.0661 62.4017 36.0747 64.1246 36.0639C64.3735 36.0618 64.4486 36.1154 64.4465 36.3772C64.4336 38.113 64.4443 39.8467 64.4358 41.5825C64.4336 41.8057 64.5023 41.958 64.6589 42.1125C65.8841 43.3248 67.0942 44.5521 68.3237 45.7601C68.5211 45.9532 68.4953 46.0476 68.3151 46.2257C67.1049 47.4208 65.9077 48.631 64.6997 49.8261C64.5173 50.0063 64.4336 50.1822 64.4358 50.444C64.4486 52.1455 64.4293 53.847 64.4529 55.5463C64.4572 55.9068 64.3135 55.9133 64.0538 55.8639C61.9812 55.4627 60.0372 54.731 58.2349 53.626C57.4345 53.1368 56.6986 52.5596 55.9498 51.9889C56.0334 51.8709 56.1429 51.9267 56.233 51.9267C57.5375 51.9224 58.8421 51.9159 60.1466 51.9288C60.3912 51.9309 60.4449 51.858 60.4427 51.6241C60.4299 50.6607 60.4427 49.6973 60.4341 48.7318C60.432 48.5473 60.4856 48.4185 60.6187 48.2876C61.2988 47.6204 61.9554 46.9295 62.6484 46.2772C62.8995 46.0412 62.863 45.9232 62.6356 45.7064C61.9554 45.0563 61.3031 44.3761 60.6315 43.7174C60.4899 43.578 60.4341 43.4406 60.4363 43.2432C60.4449 42.2799 60.4299 41.3143 60.447 40.3509C60.4535 40.0698 60.3612 40.0162 60.1037 40.0205C59.1618 40.0355 58.222 40.0205 57.2801 40.0312C57.0483 40.0334 56.881 39.9733 56.7158 39.8038C55.9884 39.0571 55.2438 38.3233 54.5079 37.5873C54.5014 35.7292 54.5036 33.8647 54.5079 32.0001Z" fill="#A4C616"/>
<path d="M54.5014 59.9728C54.5035 58.1104 54.5057 56.2479 54.5079 54.3855C54.7095 54.1881 54.9241 54.0015 55.1108 53.789C55.2352 53.6474 55.3189 53.6775 55.4434 53.7805C57.9194 55.8317 60.7581 57.1105 63.91 57.692C64.9314 57.8808 65.9699 57.9473 67.1028 57.9881C66.3046 58.2327 65.5751 58.3528 64.8434 58.4494C64.1031 58.5481 63.3543 58.5395 62.6076 58.5288C60.8203 58.5052 59.106 58.1232 57.4495 57.4624C57.2414 57.3787 57.1191 57.3894 56.9582 57.5568C56.2244 58.3121 55.4734 59.0523 54.7267 59.7947C54.6623 59.8634 54.6172 59.9664 54.5014 59.9728Z" fill="#A4C616"/>
<path d="M54.5079 32.0001C54.5036 33.8647 54.5014 35.7271 54.4971 37.5916C54.2246 37.8126 54.0272 38.2589 53.729 38.2611C53.4629 38.2632 53.1947 37.8877 52.9244 37.6839C50.4118 35.8022 47.5967 34.6457 44.4984 34.1844C43.6724 34.0621 42.8399 33.9955 41.9988 33.9977C42.5137 33.796 43.0523 33.7037 43.593 33.6179C46.363 33.1845 49.0493 33.502 51.6456 34.5577C51.8279 34.6328 51.9095 34.5491 52.0146 34.4418C52.757 33.6951 53.5037 32.9485 54.2504 32.2061C54.3276 32.131 54.3856 32.0237 54.5079 32.0001Z" fill="#509C85"/>
<path d="M54.4971 49.6651C53.493 49.088 52.4931 48.5065 51.4825 47.9379C51.3387 47.8564 51.3023 47.7662 51.3044 47.616C51.3087 46.5282 51.3109 45.4425 51.3044 44.3547C51.3044 44.2002 51.3516 44.1101 51.4846 44.0328C52.4523 43.4814 53.4157 42.9235 54.3834 42.3678C54.4199 42.3464 54.4671 42.3485 54.51 42.3378C54.5014 44.7817 54.4993 47.2234 54.4971 49.6651Z" fill="#F7A500"/>
<path d="M54.4971 49.6651C54.4993 47.2234 54.5036 44.7838 54.5057 42.3421C55.2932 42.7047 55.9841 43.2497 56.7736 43.593C57.722 44.0521 57.722 44.1251 57.722 45.2194C57.722 46.172 57.7027 46.8029 57.7049 47.5967C57.7049 47.7384 57.6941 47.8413 57.5418 47.9272C56.5205 48.4979 55.5099 49.0837 54.4971 49.6651Z" fill="#FDD000"/>
<path d="M50.6499 64.3177C49.8668 64.204 49.0922 64.2748 48.3498 64.5795C48.2361 64.6267 48.1481 64.6739 48.0043 64.6095C46.7277 64.0281 45.5004 64.2147 44.3053 64.8713C44.1465 64.9571 44.1207 65.0687 44.1207 65.2296C44.1272 66.045 44.1229 66.8625 44.1229 67.6778C44.1229 68.2893 44.1164 68.903 44.125 69.5145C44.1293 69.8063 43.9963 70.1861 44.1872 70.3641C44.3739 70.5379 44.7515 70.3856 45.0412 70.4199C45.3201 70.4521 45.4038 70.362 45.4017 70.0745C45.3867 68.7935 45.3952 67.5126 45.3952 66.2316C45.3952 65.7446 45.4382 65.6824 45.8995 65.5472C46.0282 65.5107 46.1634 65.4807 46.2986 65.4721C47.4164 65.4056 47.7919 65.7489 47.8155 66.8925C47.8327 67.7422 47.8134 68.594 47.822 69.4437C47.8263 69.7569 47.6825 70.1689 47.882 70.3577C48.0794 70.5444 48.4871 70.3856 48.8004 70.4178C49.0557 70.4435 49.0986 70.3298 49.0922 70.1067C49.0772 69.6089 49.1008 69.1089 49.0857 68.6112C49.0578 67.6971 49.193 66.7745 48.9398 65.8733C48.8991 65.7296 49.0085 65.706 49.0986 65.6609C49.5213 65.4485 49.9697 65.427 50.4225 65.4957C50.8323 65.5579 51.0855 65.8025 51.182 66.2123C51.2507 66.502 51.2743 66.7938 51.2764 67.0877C51.2786 68.1091 51.2829 69.1283 51.2743 70.1496C51.2722 70.3491 51.3151 70.4371 51.5361 70.4221C51.7957 70.4028 52.0575 70.4071 52.3171 70.4199C52.4995 70.4285 52.5488 70.3599 52.5467 70.1861C52.5359 68.9609 52.5574 67.7357 52.5252 66.5127C52.4952 65.3262 51.7592 64.4787 50.6499 64.3177Z" fill="#5D5C60"/>
<path d="M18.5747 69.1325C17.7358 69.1433 16.8969 69.1325 16.0579 69.1411C15.8798 69.1433 15.7961 69.1154 15.8004 68.9051C15.8154 68.3043 15.8133 67.7036 15.8004 67.1028C15.7961 66.8861 15.882 66.8346 16.0815 66.8389C16.6029 66.8496 17.1243 66.8496 17.6457 66.8389C17.9611 66.8324 18.3731 66.9762 18.5619 66.7809C18.7485 66.5878 18.5898 66.1759 18.6198 65.8626C18.6434 65.6266 18.5468 65.5815 18.3323 65.5858C17.5727 65.5987 16.8132 65.5858 16.0536 65.5944C15.8648 65.5965 15.7961 65.5472 15.7983 65.3476C15.809 64.7576 15.8133 64.1675 15.7983 63.5796C15.7918 63.3543 15.8863 63.3179 16.0794 63.32C16.6458 63.3286 17.2144 63.3329 17.7809 63.32C18.0941 63.3136 18.519 63.4681 18.6863 63.2514C18.8429 63.0518 18.7228 62.6441 18.7464 62.3309C18.7657 62.1013 18.6777 62.0498 18.461 62.0541C17.6221 62.067 16.7831 62.0584 15.9442 62.0584C14.9829 62.0584 14.5045 62.5326 14.5023 63.4938C14.5002 64.4014 14.5023 65.3069 14.5023 66.2145C14.5023 67.1671 14.4959 68.1198 14.5045 69.0703C14.513 69.8556 14.9636 70.3792 15.7017 70.4028C16.6866 70.4328 17.6736 70.4092 18.6606 70.4135C18.8065 70.4135 18.8623 70.3663 18.858 70.2182C18.8494 69.9458 18.8387 69.6732 18.8601 69.4029C18.8816 69.169 18.785 69.1304 18.5747 69.1325Z" fill="#5D5C60"/>
<path d="M62.5132 66.3368C61.9424 65.8733 61.2558 65.6352 60.6014 65.3412C60.2924 65.2017 59.9792 65.0666 59.7367 64.822C59.2175 64.3027 59.4149 63.526 60.1229 63.3415C60.5885 63.2192 61.0584 63.2642 61.5347 63.3458C61.8351 63.3994 62.1205 63.7448 62.3844 63.5646C62.6226 63.4015 62.717 63.0389 62.9015 62.7836C63.0388 62.5948 63.0045 62.5111 62.8028 62.4124C61.8995 61.9683 60.9554 61.8095 59.9684 62.0112C59.078 62.1935 58.3957 62.6613 58.1833 63.6011C57.9365 64.6911 58.3184 65.5515 59.2732 66.1523C59.7238 66.4376 60.2216 66.62 60.7065 66.8367C61.0348 66.9848 61.3674 67.1328 61.6528 67.356C62.0626 67.6799 62.1656 68.1177 62.0518 68.6047C61.9531 69.0274 61.5948 69.1476 61.2279 69.1926C60.7537 69.2484 60.2109 69.2956 59.8461 68.9952C59.226 68.4824 58.8999 68.8601 58.533 69.2742C58.5115 69.2999 58.4879 69.3257 58.4579 69.345C58.239 69.4866 58.297 69.6067 58.4729 69.7462C59.1681 70.2912 59.962 70.5337 60.8374 70.5444C60.9726 70.5358 61.1078 70.5272 61.2451 70.5165C62.3007 70.4371 63.0882 69.8771 63.3435 69.0253C63.6418 68.019 63.3178 66.9912 62.5132 66.3368Z" fill="#5D5C60"/>
<path d="M68.7076 64.44C68.4459 64.4186 68.3364 64.528 68.2442 64.7576C67.7464 66.0085 67.2336 67.253 66.71 68.5404C66.6457 68.3987 66.5963 68.3 66.5555 68.1971C66.0792 67.0298 65.605 65.8605 65.1244 64.6932C65.0815 64.5881 65.0836 64.4422 64.9013 64.4465C64.5 64.4529 64.0988 64.4486 63.6611 64.4486C63.7169 64.5902 63.7533 64.6825 63.7898 64.7747C64.4936 66.5063 65.1974 68.24 65.9076 69.9694C65.9805 70.1496 65.9805 70.2976 65.9011 70.4757C65.59 71.1881 65.2961 71.9069 64.9978 72.6257C64.6524 73.4539 64.3112 74.2842 63.9572 75.1403C64.3327 75.1403 64.6738 75.1232 65.0128 75.1468C65.2574 75.1639 65.3647 75.0738 65.457 74.8507C66.7208 71.776 67.9953 68.7077 69.2655 65.6352C69.4243 65.2489 69.5766 64.8584 69.7418 64.4486C69.3642 64.4465 69.0359 64.4679 68.7076 64.44Z" fill="#5D5C60"/>
<path d="M94.4446 66.3904C94.3673 65.485 93.906 64.8155 93.0285 64.498C92.1723 64.1869 91.3119 64.1632 90.4365 64.5902C90.4365 63.8049 90.4258 63.0497 90.443 62.2965C90.4473 62.0562 90.355 62.0391 90.164 62.0798C89.5182 62.2214 89.1491 62.6785 89.1491 63.3715C89.147 65.3884 89.1448 67.4053 89.1513 69.4222C89.1534 69.7441 89.0011 70.1753 89.2221 70.3599C89.4109 70.5186 89.8272 70.3942 90.1426 70.4199C90.3829 70.4392 90.443 70.3577 90.4408 70.1195C90.4301 68.8171 90.4408 67.5147 90.4301 66.2102C90.4279 65.9935 90.5052 65.8862 90.6918 65.8004C91.0824 65.6201 91.4879 65.5601 91.9127 65.5858C92.8461 65.6416 93.1744 65.9763 93.2108 66.914C93.2151 67.0148 93.213 67.1178 93.213 67.2208C93.213 68.1949 93.2173 69.169 93.2087 70.1431C93.2065 70.3384 93.2387 70.4371 93.464 70.4199C93.7236 70.4006 93.9854 70.4071 94.245 70.4178C94.4102 70.4242 94.4939 70.3878 94.4896 70.1968C94.466 68.9287 94.5519 67.6563 94.4446 66.3904Z" fill="#5D5C60"/>
<path d="M86.51 64.4357C85.7912 64.1976 85.051 64.2512 84.3214 64.3327C83.461 64.4293 83.4653 64.4572 83.4675 65.3391C83.4675 65.3734 83.4718 65.4077 83.4675 65.4399C83.4374 65.6716 83.5276 65.6974 83.74 65.6394C84.3772 65.4635 85.0317 65.4142 85.6904 65.4699C86.1195 65.5064 86.4971 65.6502 86.7074 66.1415C86.2225 66.1415 85.7912 66.1308 85.3621 66.1437C84.8085 66.1608 84.3086 66.3411 83.8301 66.6243C82.665 67.313 82.7079 69.2935 83.7636 69.9972C84.8493 70.7203 86.9177 70.7053 87.9369 69.8943C88.0334 69.817 88.0828 69.7376 88.0806 69.6089C88.0699 68.5554 88.087 67.5019 88.0527 66.4484C88.0248 65.4785 87.4283 64.7404 86.51 64.4357ZM86.8104 68.4996C86.8104 69.1862 86.8125 69.2012 86.1431 69.3192C85.7419 69.39 85.3299 69.3922 84.9308 69.2699C84.4416 69.1197 84.2163 68.7635 84.2485 68.1971C84.2785 67.6928 84.4824 67.4568 85.0081 67.356C85.5573 67.2508 86.1152 67.3259 86.6688 67.3045C86.7997 67.3002 86.8125 67.3796 86.8104 67.4804C86.8082 67.7293 86.8104 67.9782 86.8104 68.2292C86.8104 68.3172 86.8104 68.4073 86.8104 68.4996Z" fill="#5D5C60"/>
<path d="M73.3379 64.3757C72.5269 64.1933 71.718 64.2984 70.9048 64.3864C70.555 64.425 70.4477 64.5795 70.4907 64.9099C70.5143 65.088 70.51 65.2747 70.4907 65.4528C70.4649 65.6952 70.5615 65.7017 70.7589 65.6459C71.4068 65.4635 72.0741 65.4142 72.7436 65.4699C73.1663 65.5043 73.5289 65.6588 73.752 66.1394C73.2693 66.1394 72.8401 66.1308 72.411 66.1415C71.8682 66.1565 71.3789 66.3368 70.9048 66.6007C69.6882 67.283 69.7375 69.3385 70.8533 70.0316C71.9626 70.7203 73.9923 70.6838 75.0008 69.8771C75.1081 69.7913 75.1209 69.7033 75.1209 69.5874C75.1188 68.579 75.1317 67.5684 75.1166 66.5599C75.1081 65.4742 74.4 64.6138 73.3379 64.3757ZM73.4473 69.2613C72.9538 69.375 72.4603 69.405 71.9711 69.2656C71.4691 69.1218 71.2802 68.7871 71.3103 68.1563C71.3317 67.6842 71.542 67.4504 72.0613 67.3538C72.5998 67.253 73.147 67.3281 73.6898 67.3045C73.8507 67.298 73.8357 67.4053 73.8357 67.5083C73.8357 67.7465 73.8357 67.9846 73.8357 68.2228C73.8357 68.3923 73.8121 68.5682 73.84 68.7313C73.9001 69.0596 73.7434 69.1926 73.4473 69.2613Z" fill="#5D5C60"/>
<path d="M22.5678 67.5104C22.4026 67.3216 22.3983 67.2079 22.5785 67.0212C23.308 66.2767 24.0182 65.5129 24.7349 64.7554C24.8164 64.6696 24.8872 64.5752 24.9945 64.4486C24.4989 64.4486 24.059 64.4658 23.6213 64.4422C23.366 64.4272 23.2072 64.5259 23.0441 64.7082C22.4626 65.3648 21.8662 66.0106 21.2268 66.7123C21.2268 66.5814 21.2268 66.5192 21.2268 66.4569C21.2268 65.0859 21.2182 63.7148 21.2332 62.3437C21.2353 62.0562 21.1474 62.0262 20.9006 62.0948C20.2591 62.2729 19.9329 62.7021 19.9308 63.4251C19.9286 65.5665 19.9308 67.7078 19.9308 69.8492C19.9308 70.4156 19.9308 70.4156 20.4994 70.4156C21.2268 70.4156 21.2268 70.4156 21.2268 69.7011C21.2268 69.0982 21.2268 68.4953 21.2268 67.8237C21.9005 68.6369 22.527 69.3814 23.1407 70.1346C23.3016 70.332 23.4689 70.4392 23.7414 70.4199C24.147 70.392 24.5568 70.4135 24.9752 70.4135C24.9966 70.3169 24.943 70.2848 24.9087 70.244C24.132 69.3321 23.3574 68.4138 22.5678 67.5104Z" fill="#5D5C60"/>
<path d="M38.4777 64.9807C37.746 65.6416 37.5701 66.4827 37.5894 67.1135C37.5937 69.3321 38.6172 70.4714 40.3895 70.5251C41.6897 70.5637 42.814 69.8513 43.1552 68.7142C43.417 67.843 43.4234 66.9419 43.1509 66.0729C42.5759 64.2512 39.9453 63.6547 38.4777 64.9807ZM42.0266 68.1263C41.8592 68.9394 41.2563 69.3664 40.3573 69.3407C39.5741 69.3192 38.9862 68.8107 38.8682 68.0297C38.8296 67.7722 38.8296 67.5104 38.8103 67.2508C38.8575 66.635 38.9519 66.0493 39.5484 65.6952C40.368 65.2082 41.9322 65.4013 42.0652 66.9075C42.1017 67.3216 42.1081 67.7272 42.0266 68.1263Z" fill="#5D5C60"/>
<path d="M27.0929 64.3327C25.9536 64.5838 25.0052 65.5515 24.943 66.7616C24.9044 67.5255 24.855 68.2872 25.1855 68.9931C26.033 70.7954 28.8052 71.0786 30.0518 69.5166C30.5496 68.8922 30.6611 68.1756 30.6375 67.4117C30.6289 66.9955 30.6354 66.5771 30.5152 66.1694C30.1204 64.8112 28.5927 64.0023 27.0929 64.3327ZM28.8888 68.9566C28.3653 69.39 27.7624 69.4458 27.1337 69.2227C26.5308 69.0081 26.2754 68.5446 26.1832 67.9374C26.1167 67.5019 26.1295 67.077 26.2197 66.6543C26.3935 65.8347 27.0286 65.4163 27.9769 65.4678C28.7301 65.5086 29.3072 66.075 29.3888 66.8625C29.4081 67.0427 29.4102 67.2251 29.4188 67.3774C29.4016 67.9782 29.3737 68.5554 28.8888 68.9566Z" fill="#5D5C60"/>
<path d="M36.7397 66.3883C36.6582 65.4356 36.1518 64.7404 35.2292 64.4593C33.9676 64.0753 32.751 64.2641 31.5988 64.8992C31.4851 64.9614 31.4421 65.0365 31.4421 65.1653C31.4464 66.8432 31.4464 68.5189 31.4421 70.1968C31.4421 70.362 31.5001 70.4156 31.6589 70.4114C31.9979 70.4028 32.339 70.4049 32.678 70.4028L32.6995 70.4092L32.7081 70.3856C32.7167 70.2633 32.7295 70.1389 32.7295 70.0144C32.7317 68.712 32.7381 67.4075 32.7231 66.105C32.7209 65.8454 32.8046 65.7339 33.0428 65.6437C33.5685 65.4463 34.0942 65.4249 34.6413 65.5214C35.109 65.603 35.3472 65.8969 35.4373 66.3282C35.4824 66.5471 35.4996 66.7766 35.5017 67.0019C35.5081 67.8065 35.5017 68.6112 35.506 69.4158C35.506 69.7312 35.3944 70.1689 35.5553 70.3341C35.7613 70.5444 36.1969 70.3835 36.5338 70.4049C36.5445 70.4049 36.5574 70.4028 36.5681 70.4049C36.7333 70.4264 36.7848 70.3491 36.7826 70.1904C36.7612 68.9266 36.847 67.6542 36.7397 66.3883Z" fill="#5D5C60"/>
<path d="M79.7555 64.4143C78.6162 64.1611 77.5176 64.2169 76.462 64.7662C76.2646 64.8692 76.1981 64.9915 76.2002 65.2146C76.2109 66.6415 76.2023 68.0683 76.2088 69.4952C76.2109 69.7956 76.0736 70.2075 76.2689 70.3684C76.4534 70.5208 76.8503 70.4006 77.1529 70.4285C77.4146 70.4521 77.4983 70.3749 77.4962 70.0981C77.4811 68.7742 77.4897 67.4482 77.4897 66.1244C77.4897 65.633 77.4919 65.6437 77.9682 65.5343C78.6312 65.382 79.2685 65.5193 79.9508 65.7103C79.9508 65.3348 79.9401 64.9958 79.9551 64.6567C79.9615 64.4958 79.9014 64.4465 79.7555 64.4143Z" fill="#5D5C60"/>
<path d="M54.9197 64.7082C54.9219 64.4958 54.8618 64.4293 54.6537 64.4465C54.4177 64.4658 54.1773 64.4679 53.9413 64.4465C53.6903 64.4229 53.6173 64.5001 53.6195 64.7619C53.6324 66.3132 53.6238 67.8666 53.6281 69.4179C53.6281 69.7441 53.5186 70.1839 53.6838 70.3663C53.877 70.5787 54.3232 70.4028 54.658 70.4371C54.864 70.4586 54.9262 70.3963 54.924 70.1796C54.9112 69.2742 54.9176 68.3666 54.9176 67.4611C54.9154 66.5428 54.909 65.6244 54.9197 64.7082Z" fill="#5D5C60"/>
<path d="M82.1608 64.7554C82.1629 64.5301 82.12 64.4229 81.8668 64.4465C81.6415 64.4679 81.412 64.4679 81.1867 64.4465C80.9485 64.425 80.8841 64.5065 80.8863 64.7447C80.897 66.3325 80.8884 67.9181 80.8949 69.5059C80.897 69.8063 80.7597 70.2204 80.9549 70.3792C81.1416 70.5315 81.5386 70.4114 81.8411 70.4371C82.0878 70.4586 82.1694 70.3899 82.1629 70.1281C82.1436 69.2334 82.1565 68.3365 82.1565 67.4418C82.1565 66.5449 82.1479 65.6502 82.1608 64.7554Z" fill="#5D5C60"/>
<path d="M54.452 63.4251C54.9154 63.4251 54.9154 63.4251 54.9154 62.9703C54.9154 62.333 54.9154 62.333 54.2954 62.333C54.1709 62.333 54.0465 62.3459 53.9242 62.3309C53.6967 62.303 53.6152 62.3716 53.6173 62.6184C53.6259 63.423 53.6152 63.4251 54.452 63.4251Z" fill="#5D5C60"/>
<path d="M81.4592 62.333C80.8906 62.333 80.8906 62.333 80.8906 62.8222C80.8906 63.4251 80.8906 63.4251 81.5171 63.4251C81.5858 63.4251 81.6544 63.4166 81.7209 63.4273C82.0621 63.4831 82.1844 63.3694 82.1651 63.0025C82.1308 62.3352 82.1565 62.333 81.4592 62.333Z" fill="#5D5C60"/>
</svg>
