<svg width="109" height="108" viewBox="0 0 109 108" fill="none" xmlns="http://www.w3.org/2000/svg">
<path d="M31.6793 36.7976C31.7619 36.8183 31.8721 36.8114 31.9203 36.8596C32.5952 37.5414 33.2494 38.2369 33.9243 38.9118C34.6404 39.6211 35.4255 40.2684 36.0866 41.0259C36.6169 41.6388 37.1953 41.7903 37.9666 41.7697C39.8122 41.7215 41.6646 41.7559 43.5102 41.7559H44.0473V42.3275C44.0473 44.3865 44.0473 46.4456 44.0473 48.5115C44.0473 48.9178 44.192 49.2002 44.5363 49.4687C45.0597 49.8819 45.5004 50.3984 45.9756 50.8736C46.3681 51.2661 46.7675 51.6586 47.1531 52.058C47.6559 52.5814 48.1517 53.1048 48.6544 53.6281C48.7164 53.697 48.7852 53.759 48.861 53.8072C49.0745 53.9449 49.0951 54.0413 48.8816 54.241C48.4616 54.6336 48.1035 55.095 47.6834 55.5013C47.1807 55.9902 46.6435 56.4516 46.1339 56.9337C45.7896 57.2573 45.4728 57.6016 45.1492 57.946C44.9701 58.1319 44.8462 58.3936 44.6327 58.5244C44.1093 58.8343 44.0473 59.2888 44.0542 59.8329C44.0749 61.7955 44.0611 63.7581 44.0611 65.7208V66.2992C40.0601 65.7139 36.6926 63.951 33.635 61.5269L33.6557 61.3892C33.821 61.3754 33.9862 61.3548 34.1515 61.3548C35.639 61.3548 37.1265 61.3479 38.6139 61.3548C38.9514 61.3548 39.0753 61.2652 39.0684 60.9071C39.0478 59.764 39.0684 58.6139 39.0616 57.4708C39.0616 57.1953 39.1442 57.0232 39.3508 56.8235C39.8604 56.3345 40.3149 55.7767 40.8038 55.274C41.155 54.9159 41.5269 54.5716 41.9125 54.2479C42.1191 54.0689 42.1054 53.9725 41.9125 53.7934C41.4787 53.3802 41.0793 52.9257 40.6592 52.4988C40.2391 52.0787 39.7915 51.6862 39.3921 51.2385C39.2268 51.0526 39.0822 50.784 39.0753 50.5499C39.0409 49.455 39.0616 48.36 39.0616 47.2651V46.721H37.6085C37.0714 46.721 36.5136 46.6453 35.9902 46.7348C34.9297 46.9138 34.3443 46.301 33.7383 45.5985C33.2907 45.082 32.7467 44.6482 32.244 44.1799C32.0649 44.0078 31.8859 43.8287 31.7068 43.6566C31.7068 41.3702 31.693 39.0839 31.693 36.8045" fill="#A2C33D"/>
<path d="M31.6655 71.2162C31.5622 71.1749 31.4245 71.1542 31.3556 71.0784C30.2056 69.8802 29.0693 68.682 27.9261 67.4837C27.6231 67.16 27.327 66.8226 26.9827 66.554C26.7692 66.3956 26.4593 66.2924 26.1908 66.2855C24.1592 66.2648 22.1346 66.2717 20.1031 66.2717H19.5178C19.5109 66.0651 19.4902 65.8929 19.4902 65.7139C19.4902 63.9165 19.442 62.1123 19.5109 60.3149C19.5453 59.4059 19.2561 58.793 18.5881 58.1939C17.5965 57.2986 16.7081 56.2863 15.7715 55.3291C15.4134 54.9641 15.0347 54.6267 14.6559 54.2824C14.4631 54.1102 14.4287 53.9656 14.6353 53.759C15.9919 52.4161 17.3348 51.0595 18.6845 49.7029C18.7878 49.5996 18.8842 49.4963 19.0013 49.4067C19.3181 49.1588 19.4971 48.8627 19.4902 48.4289C19.4696 46.418 19.4833 44.4072 19.4833 42.3963V41.7834C19.9516 41.8523 20.3924 41.873 20.7987 41.9831C21.7628 42.2379 22.7613 42.4308 23.6497 42.8508C24.9925 43.4775 26.4042 43.9871 27.5956 44.9305C28.2774 45.4677 29.0349 45.9153 29.7579 46.4043C29.8268 46.4525 29.8544 46.5489 29.9508 46.7073H24.3176C24.3176 48.0226 24.3039 49.2759 24.3245 50.5292C24.3245 50.8805 24.2419 51.1215 23.9733 51.3694C23.0781 52.2095 22.2173 53.0841 21.2394 54.0482C21.9487 54.7231 22.6098 55.336 23.264 55.9627C23.5808 56.2657 23.9045 56.5687 24.1868 56.8992C24.2832 57.0163 24.3108 57.2229 24.3108 57.3882C24.3176 58.6828 24.3108 59.9706 24.3108 61.3203C24.4967 61.3272 24.6688 61.3479 24.841 61.3479C25.9842 61.3479 27.1342 61.3341 28.2774 61.3616C28.4977 61.3616 28.7663 61.4994 28.9316 61.6578C29.8612 62.5599 30.7703 63.4896 31.6793 64.4123C31.6724 66.6849 31.6655 68.9505 31.6586 71.2231" fill="#689584"/>
<path d="M31.6655 71.2162C31.6724 68.9436 31.6793 66.678 31.6862 64.4055C32.0098 64.1162 32.3335 63.8201 32.6709 63.5102C36.851 66.9328 41.6164 68.7164 47.0636 68.861C46.8708 68.9505 46.7262 69.0469 46.5678 69.0814C44.5638 69.5221 42.5323 69.7494 40.5008 69.4601C38.9858 69.2466 37.4914 68.8335 35.9902 68.4891C35.7974 68.4409 35.6045 68.3445 35.4324 68.2343C35.0881 68.0209 34.8746 68.2068 34.6404 68.434C34.1308 68.9436 33.6006 69.4395 33.091 69.9491C32.7054 70.3347 32.3473 70.741 31.9685 71.1266C31.8996 71.1955 31.7619 71.1886 31.6517 71.2093" fill="#A3C340"/>
<path d="M31.6793 36.7976C31.6793 39.0839 31.693 41.3702 31.693 43.6497C31.5691 43.7736 31.4382 43.8976 31.3143 44.0284C30.8185 44.538 30.7083 44.5311 30.1642 44.0835C28.9453 43.0919 27.6645 42.1897 26.1976 41.5837C25.1991 41.1705 24.2212 40.6954 23.2089 40.3097C22.6373 40.0894 22.0176 39.9861 21.4184 39.8483C20.6472 39.6693 19.8759 39.4696 19.0977 39.3663C18.1956 39.2561 17.2866 39.2492 16.2329 39.1804C16.474 39.1046 16.5841 39.0702 16.7012 39.0426C18.9462 38.4779 21.2187 38.2369 23.5119 38.657C24.8272 38.898 26.1219 39.2423 27.4303 39.5384C27.4441 39.5384 27.4648 39.5384 27.4785 39.5384C28.1901 39.8047 28.7984 39.6647 29.3034 39.1184C29.9783 38.3953 30.6601 37.6722 31.3487 36.956C31.4314 36.8665 31.5691 36.839 31.6862 36.777" fill="#699685"/>
<path d="M92.0253 53.3114H90.7789C90.7789 52.0649 90.7444 50.846 90.7926 49.6271C90.8202 49.0073 90.5172 48.5666 90.0833 48.3325C89.6288 48.0845 89.0366 48.057 88.5958 48.4977C88.4857 48.6079 88.4444 48.8352 88.4444 49.0073C88.4306 50.4259 88.4444 51.8446 88.4444 53.2976H87.1566V52.788C87.1566 51.6586 87.1566 50.5292 87.1566 49.3999C87.1566 48.8903 86.95 48.484 86.4886 48.2774C86.0065 48.057 85.132 48.2223 84.8634 48.5735C84.7808 48.6837 84.7876 48.8765 84.7808 49.0349C84.7808 50.4397 84.7808 51.8446 84.7808 53.2907H83.4517C83.4517 53.1323 83.431 52.9602 83.431 52.788C83.431 51.3625 83.431 49.9439 83.431 48.5184C83.431 48.2498 83.3897 47.8711 83.5343 47.7333C83.8098 47.4785 84.2023 47.3202 84.5742 47.2031C85.5383 46.9001 86.4955 46.9758 87.4596 47.2995C87.7488 47.3959 88.1413 47.21 88.4788 47.1204C89.2845 46.9001 90.1109 46.9345 90.8271 47.2719C91.5433 47.6094 92.0253 48.2705 92.0322 49.1451C92.0391 50.5155 92.0322 51.8859 92.0322 53.3114" fill="#5D5C60"/>
<path d="M31.6724 49.7648C31.9134 49.8475 32.182 49.8957 32.4023 50.0265C33.3114 50.543 34.1928 51.1146 35.1156 51.5966C35.4462 51.7688 35.5426 51.9685 35.5426 52.2715C35.5495 53.4491 35.5632 54.6267 35.5288 55.8043C35.5219 56.0315 35.336 56.3345 35.1432 56.4585C34.124 57.0783 33.0772 57.6567 32.0305 58.2352C31.9341 58.2903 31.7894 58.2765 31.6655 58.2903C31.6655 57.9873 31.6724 57.6843 31.6724 57.3813C31.6724 54.8471 31.6724 52.3128 31.6724 49.7786" fill="#F4C81E"/>
<path d="M31.6724 49.7648C31.6724 52.2991 31.6724 54.8333 31.6724 57.3675C31.6724 57.6705 31.6724 57.9735 31.6655 58.2765C31.2385 58.0561 30.8116 57.8495 30.3984 57.6154C29.7373 57.2504 29.0831 56.8579 28.4151 56.4929C28.0983 56.3208 27.9743 56.066 27.9743 55.7147C27.9812 54.6542 28.0226 53.5868 27.9606 52.5263C27.9261 51.8996 28.2223 51.638 28.6974 51.3832C29.5169 50.9287 30.3157 50.4328 31.1283 49.9646C31.2936 49.8681 31.4933 49.8337 31.6724 49.7648Z" fill="#EBA227"/>
<path d="M57.1936 46.0462H54.3701V48.3807C55.0588 48.3807 55.7337 48.3807 56.4154 48.3807C56.9113 48.3807 57.1592 48.6309 57.1592 49.1313C57.1592 49.2897 57.1592 49.4481 57.1592 49.6409H54.3839V52.0236H57.352V53.3045C56.2157 53.3045 55.0795 53.3045 53.9432 53.2976C53.8261 53.2976 53.709 53.1874 53.592 53.1392C53.0755 52.9464 52.9171 52.5194 52.9171 52.0374C52.9033 50.0403 52.8964 48.0501 52.9171 46.053C52.924 45.2886 53.5093 44.7377 54.2806 44.7308C55.2447 44.7171 56.2088 44.7308 57.2005 44.7308V46.053L57.1936 46.0462Z" fill="#5E5D61"/>
<path d="M54.0878 61.4512C54.7214 62.0916 55.8989 62.2775 56.6565 61.8368C57.0559 61.6027 57.2074 60.6317 56.8286 60.3769C56.2639 59.9981 55.6648 59.6538 55.045 59.399C53.7504 58.8619 52.5659 57.8771 52.9929 56.2932C53.2545 55.3291 53.8743 54.8126 54.8522 54.6887C55.7956 54.5647 56.7322 54.6198 57.6343 54.9848C57.9442 55.1087 58.0062 55.3222 57.7789 55.6321C57.5999 55.8731 57.4071 56.0935 57.2143 56.3276C56.4499 55.8249 55.5959 55.8387 54.742 56.0797C54.5699 56.1279 54.4252 56.4791 54.3701 56.7202C54.26 57.1747 54.4321 57.5603 54.8591 57.7738C55.4995 58.0837 56.1813 58.3178 56.8011 58.669C58.0131 59.3577 58.8463 60.5215 58.1508 62.1123C57.7583 63.0144 56.5738 63.6066 55.4789 63.4758C54.6318 63.3794 53.895 63.0075 53.1994 62.553C53.1512 62.5186 53.1444 62.2982 53.1994 62.2431C53.4818 61.9677 53.7917 61.7129 54.0878 61.4512Z" fill="#5D5C60"/>
<path d="M90.2968 63.2692C90.2968 63.2692 90.2555 63.2899 90.2348 63.2967C89.3763 63.3702 88.9471 62.9869 88.9471 62.1467C88.9471 61.3754 88.9471 60.611 88.9471 59.8397C88.9333 58.5244 88.2377 58.0286 86.95 58.4005C86.8398 58.4349 86.7296 58.4969 86.6263 58.4969C86.1994 58.5107 86.1443 58.7654 86.1443 59.1235C86.158 60.3149 86.1443 61.5131 86.1443 62.7045V63.2761H84.9116C84.9047 63.159 84.884 63.0213 84.884 62.8767C84.884 60.5904 84.884 58.2972 84.884 56.0109C84.884 55.1983 85.2628 54.8195 86.1374 54.7438V57.3055C86.282 57.278 86.3922 57.2917 86.4679 57.2435C87.2599 56.7339 87.9898 56.8992 88.83 57.2367C89.8905 57.6636 90.2899 58.4349 90.3312 59.461C90.3794 60.6661 90.345 61.8781 90.345 63.0901C90.345 63.1521 90.3175 63.2141 90.3037 63.2692" fill="#605F62"/>
<path d="M79.0099 58.4349C79.0099 58.3178 78.9961 58.2352 78.9961 58.1526C78.9824 57.1402 79.0925 57.0094 80.1324 56.9474C80.5594 56.9199 80.9863 56.8923 81.4064 56.9474C82.3016 57.0576 83.6032 57.7394 83.6238 58.917C83.6445 60.0463 83.7478 61.1757 83.7753 62.3051C83.7753 62.4841 83.6238 62.7527 83.4654 62.8354C82.5427 63.3312 81.5717 63.6893 80.5112 63.3863C79.5608 63.1108 78.7551 62.6219 78.4865 61.5751C78.335 61.0035 78.5554 60.4733 78.8309 60.005C79.3542 59.096 80.2977 59.0134 81.2136 58.9238C81.5648 58.8894 81.9229 58.9238 82.2879 58.9238C82.1226 58.1663 81.2756 58.0493 79.0237 58.4487M82.4738 60.1083C81.9711 60.1083 81.5097 60.0532 81.069 60.1152C79.8225 60.2874 79.8225 60.2667 79.912 61.5407C79.9258 61.7197 80.1117 61.9608 80.2839 62.0296C80.9381 62.3051 81.6199 62.2225 82.2879 62.0296C82.3636 62.009 82.4669 61.8781 82.4669 61.7955C82.4807 61.2446 82.4738 60.6937 82.4738 60.0945" fill="#5F5E61"/>
<path d="M69.0727 58.7448C68.0673 57.8496 66.9035 58.249 65.7328 58.3936C65.7328 58.1112 65.7535 57.8358 65.7328 57.5603C65.7053 57.2229 65.905 57.0576 66.1735 57.0301C66.8691 56.975 67.5853 56.8854 68.2739 56.9543C69.4377 57.0714 70.3881 58.1457 70.4294 59.3164C70.4638 60.3287 70.45 61.341 70.4294 62.3602C70.4294 62.5117 70.3192 62.7252 70.1952 62.794C69.2036 63.3449 68.1431 63.7168 67.0137 63.3243C66.3319 63.0901 65.6708 62.7665 65.299 62.0572C65.051 61.5889 65.1819 60.4802 65.4642 60.0326C66.084 59.0478 67.0619 58.9789 68.0535 58.9032C68.3841 58.8756 68.7215 58.9032 69.059 58.9032C69.059 58.8481 69.0727 58.793 69.0796 58.7379M69.1072 62.0778V60.0463C68.4805 60.0808 67.8952 60.0808 67.3167 60.1565C66.6556 60.246 66.5041 60.4595 66.5247 61.1344C66.5385 61.7542 66.6625 61.9814 67.2754 62.0641C67.8676 62.1467 68.4805 62.0847 69.1141 62.0847" fill="#5D5C60"/>
<path d="M59.9688 49.4136C60.5335 48.7732 61.0982 48.1328 61.6767 47.5061C61.7938 47.3752 61.9797 47.2375 62.1381 47.2237C62.6201 47.1893 63.1091 47.21 63.722 47.21C62.93 48.0501 62.2276 48.8214 61.4976 49.5651C61.0294 50.0403 61.0087 50.0885 61.4219 50.5843C62.0761 51.3694 62.7303 52.1544 63.3845 52.9326C63.4878 53.0497 63.6187 53.1323 63.7426 53.2356C62.7992 53.5662 62.0348 53.332 61.4357 52.5539C61.2015 52.244 60.9467 51.9479 60.6919 51.6517C60.444 51.3625 60.1823 51.087 59.8655 50.7358V53.2838H58.5915C58.5778 53.1805 58.5571 53.0772 58.5571 52.967C58.5571 50.7083 58.5571 48.4564 58.5571 46.1977C58.5571 45.3024 58.8877 44.9099 59.8105 44.7446V49.3585C59.8655 49.3792 59.9137 49.393 59.9688 49.4136Z" fill="#5D5C60"/>
<path d="M66.6281 53.394C65.6571 53.4216 64.8031 53.1736 64.2178 52.3335C63.6669 51.5416 63.5498 50.6463 63.6806 49.7304C63.7564 49.1864 63.9079 48.5941 64.1971 48.1396C64.7963 47.21 66.2355 46.7968 67.3511 47.0998C68.6113 47.4441 69.3344 48.2361 69.5066 49.5514C69.6237 50.3984 69.5686 51.2523 69.2174 51.9892C68.8317 52.7949 68.0811 53.2632 67.1652 53.3871C66.9861 53.4078 66.8071 53.3871 66.6281 53.3871M66.6143 52.2095C67.3993 52.2095 68.0398 51.9203 68.1431 51.3143C68.267 50.605 68.2601 49.8475 68.1431 49.1451C68.088 48.8421 67.6128 48.5941 67.3029 48.36C66.7451 47.9468 65.3678 48.3325 65.1475 48.9936C64.9891 49.4756 64.8858 50.0059 64.8927 50.5086C64.8995 51.5278 65.6295 52.3473 66.6212 52.2095" fill="#5D5C60"/>
<path d="M82.6184 50.2262C82.522 50.729 82.4945 51.2592 82.3223 51.7413C82.0055 52.6434 81.3031 53.2012 80.3941 53.3596C79.492 53.5249 78.5347 53.4904 77.7841 52.8706C77.4191 52.5745 77.2057 52.0925 76.9371 51.6862C76.5446 51.0939 76.5514 50.3915 76.6754 49.7648C76.7925 49.1382 77.0128 48.4426 77.4122 47.9744C78.1835 47.086 79.2578 46.8312 80.4147 47.1204C81.6405 47.4303 82.7355 48.4977 82.6253 50.2331M81.3513 50.2538C81.4133 49.4618 81.124 48.8283 80.3734 48.4082C79.6641 48.0088 78.4452 48.2636 78.1904 48.9936C78.0045 49.5238 77.9563 50.1436 77.9976 50.7152C78.094 52.1338 79.0099 52.3679 80.1255 52.1958C80.8692 52.0787 81.3513 51.2936 81.3513 50.2538Z" fill="#5C5C5F"/>
<path d="M61.0362 63.0764C60.2581 61.1551 59.4868 59.2406 58.6811 57.2298C59.1494 57.2298 59.5212 57.2022 59.8793 57.2435C60.017 57.2573 60.1823 57.4295 60.2374 57.5672C60.4578 58.1181 60.6231 58.6966 60.8503 59.2475C61.1189 59.9086 61.4219 60.5559 61.7455 61.2928C61.8488 61.1275 61.9659 60.976 62.0348 60.8107C62.4893 59.6813 62.93 58.5451 63.3914 57.4226C63.4327 57.3262 63.6049 57.2435 63.7151 57.2298C64.0732 57.2091 64.4313 57.2229 64.8445 57.2229C64.7618 57.5121 64.7067 57.7738 64.6034 58.0148C64.3486 58.6208 64.0732 59.22 63.8046 59.8191C63.4396 60.6455 63.054 61.4581 62.7028 62.2913C62.448 62.8973 62.2483 63.5309 62.0003 64.1438C61.8213 64.5776 61.6147 64.9977 61.4012 65.4178C61.3599 65.5004 61.1946 65.5624 61.0844 65.5693C60.7264 65.5899 60.3683 65.5693 59.9826 65.5693C60.3476 64.6947 60.6988 63.8545 61.0294 63.0695" fill="#5D5C60"/>
<path d="M75.7526 53.3045H74.5612V51.1835C74.5612 50.7083 74.5612 50.2331 74.5612 49.758C74.5475 48.4358 73.3492 47.8229 72.1441 48.4082C71.662 48.6424 71.6552 48.904 71.6552 49.2966C71.662 50.6188 71.6552 51.941 71.6552 53.2976H70.3605V48.5391C70.3605 47.8504 70.7186 47.3752 71.3866 47.2444C72.2818 47.0654 73.1702 46.9138 74.093 47.1893C74.9125 47.4303 75.6837 48.0639 75.7251 48.8972C75.7939 50.364 75.7457 51.8308 75.7457 53.3183" fill="#5C5C5F"/>
<path d="M72.8121 63.2967H71.6414C71.6276 63.1452 71.6001 63.0075 71.6001 62.8629C71.6001 61.2446 71.5863 59.6331 71.6138 58.0148C71.6138 57.8289 71.7447 57.5672 71.8962 57.4777C72.8672 56.913 73.9277 56.7684 75.0226 57.0301C75.1741 57.0645 75.3463 57.2986 75.3807 57.4639C75.4358 57.76 75.3945 58.0768 75.3945 58.3729C74.8505 58.3178 74.3409 58.2559 73.8313 58.2076C73.7073 58.1939 73.5696 58.2076 73.4388 58.2352C73.0187 58.3109 72.7639 58.4418 72.7914 58.9858C72.8465 60.4044 72.8121 61.823 72.8121 63.2899" fill="#5B5A5E"/>
<path d="M94.5044 47.2444H93.1753V53.3389H94.5044V47.2444Z" fill="#5D5C60"/>
<path d="M77.6808 57.2642H76.3655V63.3105H77.6808V57.2642Z" fill="#605F62"/>
<path d="M94.5044 45.0889H93.1753V46.115H94.5044V45.0889Z" fill="#616063"/>
<path d="M77.6808 54.9986H76.3655V56.0109H77.6808V54.9986Z" fill="#616064"/>
</svg>
