<svg width="109" height="108" viewBox="0 0 109 108" fill="none" xmlns="http://www.w3.org/2000/svg">
<path fill-rule="evenodd" clip-rule="evenodd" d="M56.0341 62.2636C56.0341 62.5421 56.0462 62.8167 56.0543 63.0589H55.4407L55.4043 62.7803H55.3922C55.2671 62.958 55.049 63.0993 54.7786 63.0993C54.2739 63.0993 54.068 62.7319 54.068 62.0254V60.4428H54.7826V61.9527C54.7826 62.2959 54.8472 62.5139 55.0491 62.5139C55.1702 62.5139 55.2428 62.4251 55.2751 62.3362C55.3034 62.2838 55.3195 62.203 55.3195 62.1102V60.4428H56.0301V62.2595L56.0341 62.2636Z" fill="#767775"/>
<path fill-rule="evenodd" clip-rule="evenodd" d="M58.1698 61.2341C58.1698 60.9475 58.1536 60.6931 58.1496 60.4469H58.7592L58.7915 60.7456H58.8036C58.9449 60.5357 59.171 60.4024 59.4495 60.4024C59.9542 60.4024 60.152 60.7981 60.152 61.3794V63.0589H59.4415V61.4238C59.4415 61.1978 59.3849 60.9919 59.1831 60.9919C59.062 60.9919 58.9651 61.0726 58.9166 61.226C58.8924 61.2785 58.8803 61.3673 58.8803 61.4682V63.0629H58.1698V61.2341Z" fill="#767775"/>
<path fill-rule="evenodd" clip-rule="evenodd" d="M63.1112 59.7404V60.4469H63.632V60.9434H63.1112V62.1344C63.1112 62.4372 63.2404 62.5139 63.3817 62.5139L63.5674 62.4977V63.0427C63.4746 63.071 63.3292 63.0912 63.1395 63.0912C62.9336 63.0912 62.756 63.0427 62.6308 62.9257C62.4855 62.7884 62.4047 62.5906 62.4047 62.1788V60.9434H62.0898V60.4469H62.4047V59.9059L63.1153 59.7404H63.1112Z" fill="#767775"/>
<path fill-rule="evenodd" clip-rule="evenodd" d="M67.528 62.2635C67.528 62.5421 67.5401 62.8166 67.5482 63.0588H66.9386L66.9022 62.7803H66.8901C66.765 62.9579 66.547 63.0992 66.2765 63.0992C65.7718 63.0992 65.5659 62.7318 65.5659 62.0253V60.4428H66.2805V61.9527C66.2805 62.2958 66.3451 62.5138 66.5429 62.5138C66.664 62.5138 66.7367 62.425 66.769 62.3362C66.7973 62.2837 66.8134 62.203 66.8134 62.1101V60.4428H67.5239V62.2595L67.528 62.2635Z" fill="#767775"/>
<path fill-rule="evenodd" clip-rule="evenodd" d="M70.366 61.5894H70.3781C70.4265 61.44 70.4629 61.331 70.5153 61.226L70.8585 60.4468H71.6215L70.9837 61.545L71.6619 63.0629H70.8706L70.4911 61.989L70.37 62.2151V63.067H69.6595V59.3649H70.37V61.5934L70.366 61.5894Z" fill="#767775"/>
<path fill-rule="evenodd" clip-rule="evenodd" d="M75.9897 62.4291C76.0906 62.4937 76.2885 62.5704 76.4661 62.5704C76.6437 62.5704 76.7527 62.4896 76.7527 62.3362C76.7527 62.203 76.676 62.1182 76.4419 61.981C76.0099 61.7387 75.9049 61.4682 75.9049 61.226C75.9049 60.7537 76.2481 60.4024 76.7769 60.4024C76.999 60.4024 77.1726 60.4549 77.3139 60.5195L77.1887 61.0322C77.0838 60.9717 76.9627 60.9232 76.8214 60.9232C76.6437 60.9232 76.5549 61.0322 76.5549 61.1453C76.5549 61.2583 76.6155 61.3269 76.8617 61.4723C77.2533 61.6903 77.3987 61.9648 77.3987 62.2636C77.3987 62.7965 77.0071 63.0871 76.462 63.0871C76.24 63.0871 75.9776 63.0266 75.8565 62.9378L75.9857 62.425L75.9897 62.4291Z" fill="#767775"/>
<path fill-rule="evenodd" clip-rule="evenodd" d="M80.6203 61.5086C80.6203 61.1735 80.5355 60.9111 80.3215 60.9111C80.0874 60.9111 79.9945 61.2502 79.9905 61.5086H80.6203ZM79.9865 62.0012C79.9945 62.4089 80.2368 62.5583 80.5476 62.5583C80.7495 62.5583 80.9271 62.5139 81.0523 62.4735L81.1492 62.9741C80.9635 63.0427 80.6889 63.0912 80.4184 63.0912C79.6958 63.0912 79.3002 62.6188 79.3002 61.8033C79.3002 60.9273 79.7604 60.4024 80.3619 60.4024C80.9312 60.4024 81.2622 60.8465 81.2622 61.6378C81.2622 61.8235 81.2582 61.9285 81.242 62.0012H79.9865Z" fill="#767775"/>
<path fill-rule="evenodd" clip-rule="evenodd" d="M83.2889 61.2341C83.2889 60.9475 83.2727 60.6931 83.2687 60.4469H83.8864L83.9186 60.7496H83.9308C84.068 60.5518 84.2901 60.4024 84.5646 60.4024C84.8633 60.4024 85.0531 60.5357 85.1459 60.7537H85.1581C85.2227 60.6527 85.3195 60.5559 85.4245 60.4913C85.5335 60.4307 85.6627 60.3984 85.8 60.3984C86.2723 60.3984 86.4822 60.7658 86.4822 61.3996V63.0589H85.7798V61.5207C85.7798 61.222 85.7475 60.9798 85.5295 60.9798C85.4043 60.9798 85.3115 61.0645 85.263 61.222L85.2428 61.4037V63.0629H84.5363V61.4198C84.5363 61.2341 84.5161 60.9798 84.2941 60.9798C84.1851 60.9798 84.0761 61.0605 84.0277 61.2139L83.9994 61.4117V63.0589H83.2969V61.2301L83.2889 61.2341Z" fill="#767775"/>
<path fill-rule="evenodd" clip-rule="evenodd" d="M90.5396 62.2636C90.5396 62.5421 90.5517 62.8167 90.5597 63.0589H89.9461L89.9098 62.7803H89.8977C89.7725 62.958 89.5545 63.0993 89.284 63.0993C88.7794 63.0993 88.5735 62.7319 88.5735 62.0254V60.4428H89.288V61.9527C89.288 62.2959 89.3526 62.5139 89.5545 62.5139C89.6756 62.5139 89.7483 62.4251 89.7806 62.3362C89.8088 62.2838 89.825 62.203 89.825 62.1102V60.4428H90.5355V62.2595L90.5396 62.2636Z" fill="#767775"/>
<path fill-rule="evenodd" clip-rule="evenodd" d="M93.7652 61.7872C93.527 61.7912 93.2 61.8679 93.2 62.2313C93.2 62.4937 93.3454 62.5906 93.4544 62.5906C93.5674 62.5906 93.6966 62.5219 93.745 62.3645L93.7612 62.2434V61.7872H93.7652ZM93.8621 63.0589L93.8258 62.8005H93.8177C93.6724 63.0024 93.4665 63.0993 93.2323 63.0993C92.8327 63.0993 92.5339 62.7682 92.5339 62.2999C92.5339 61.6176 93.1476 61.331 93.7491 61.3269V61.2664C93.7491 61.0645 93.6239 60.9152 93.3736 60.9152C93.1637 60.9152 92.9901 60.9676 92.8327 61.0645L92.6994 60.5962C92.8448 60.5114 93.1556 60.3984 93.523 60.3984C94.3304 60.3984 94.4596 60.9555 94.4596 61.4844V62.4573C94.4596 62.6673 94.4717 62.8812 94.504 63.0548H93.8662L93.8621 63.0589Z" fill="#767775"/>
<path fill-rule="evenodd" clip-rule="evenodd" d="M54.2497 51.2301H55.6788V54.4961H55.699C55.8201 54.1933 55.9372 53.8703 56.0583 53.5595L57.0394 51.2301H58.6138L56.9667 54.3871L58.6381 58.4929H57.0757L56.0059 55.4852L55.6788 56.0787V58.4929H54.2497V51.2301Z" fill="#242222"/>
<path fill-rule="evenodd" clip-rule="evenodd" d="M62.3765 55.3035H60.693V57.2656H62.5945V58.4929H59.2638V51.2301H62.4612V52.4614H60.693V54.1287H62.3765V55.3035Z" fill="#242222"/>
<path fill-rule="evenodd" clip-rule="evenodd" d="M64.9523 51.2301V55.9495C64.9523 57.0153 65.2793 57.3383 65.6507 57.3383C66.0665 57.3383 66.3612 57.0476 66.3612 55.9495V51.2301H67.7904V55.7032C67.7904 57.5684 67.0798 58.5777 65.6628 58.5777C64.1246 58.5777 63.5231 57.5321 63.5231 55.7113V51.2301H64.9523Z" fill="#242222"/>
<path fill-rule="evenodd" clip-rule="evenodd" d="M71.3066 55.7355L71.0684 54.2175C70.9917 53.7775 70.8948 53.0508 70.8262 52.5704H70.7939C70.7172 53.0548 70.6082 53.8098 70.5315 54.2297L70.257 55.7355H71.3066ZM70.1157 56.8336L69.7887 58.4929H68.3999L69.9946 51.2301H71.7103L73.1435 58.4929H71.7547L71.4398 56.8336H70.1157Z" fill="#242222"/>
<path fill-rule="evenodd" clip-rule="evenodd" d="M73.947 58.4929V51.2301H75.2591L76.3935 54.0763C76.6115 54.6374 76.9749 55.574 77.1808 56.1998H77.201C77.1566 55.4327 77.0597 54.1732 77.0597 52.8369V51.2301H78.3152V58.4929H77.0032L75.8768 55.7355C75.6386 55.1219 75.2995 54.2055 75.134 53.5474H75.1138C75.1461 54.2781 75.1985 55.4004 75.1985 56.8538V58.4929H73.943H73.947Z" fill="#242222"/>
<path fill-rule="evenodd" clip-rule="evenodd" d="M83.6684 58.2991C83.3535 58.4283 82.6752 58.5575 82.1383 58.5575C81.2985 58.5575 80.6647 58.3193 80.1722 57.8348C79.5383 57.2333 79.1992 56.1554 79.2235 54.9039C79.2558 52.2636 80.7858 51.1655 82.3482 51.1655C82.9053 51.1655 83.3212 51.2745 83.5472 51.3794L83.2969 52.5986C83.087 52.4896 82.8165 52.4372 82.4572 52.4372C81.4843 52.4372 80.7091 53.0952 80.7091 54.9886C80.7091 56.7327 81.3995 57.3584 82.0656 57.3584C82.1948 57.3584 82.2957 57.3463 82.3482 57.3261V55.57H81.6901V54.4154H83.6684V58.2991Z" fill="#242222"/>
<path fill-rule="evenodd" clip-rule="evenodd" d="M87.0959 55.7355L86.8537 54.2175C86.7769 53.7775 86.6801 53.0508 86.6155 52.5704H86.5832C86.5065 53.0548 86.3975 53.8098 86.3207 54.2297L86.0462 55.7355H87.0959ZM85.9049 56.8336L85.5779 58.4929H84.1932L85.7878 51.2301H87.5036L88.9368 58.4929H87.548L87.2291 56.8336H85.9049Z" fill="#242222"/>
<path fill-rule="evenodd" clip-rule="evenodd" d="M89.7402 58.4929V51.2301H91.0482L92.1827 54.0762C92.4007 54.6374 92.76 55.574 92.9699 56.1998H92.9901C92.9457 55.4327 92.8488 54.1731 92.8488 52.8368V51.2301H94.1044V58.4929H92.7923L91.67 55.7355C91.4277 55.1219 91.0926 54.2054 90.9271 53.5474H90.9069C90.9392 54.2781 90.9917 55.4004 90.9917 56.8538V58.4929H89.7362H89.7402Z" fill="#242222"/>
<path d="M55.9736 41.9931H54.3103V50.4468H55.9736V41.9931Z" fill="#242222"/>
<path fill-rule="evenodd" clip-rule="evenodd" d="M57.4633 50.4428V41.989H58.9893L60.3094 45.2995C60.5638 45.9535 60.9836 47.0435 61.2259 47.7702H61.2501C61.1976 46.8821 61.0846 45.4125 61.0846 43.8582V41.989H62.546V50.4428H61.02L59.7119 47.2333C59.4334 46.5187 59.0377 45.4529 58.848 44.6858H58.8238C58.8601 45.5377 58.9247 46.8417 58.9247 48.5373V50.4428H57.4633Z" fill="#242222"/>
<path fill-rule="evenodd" clip-rule="evenodd" d="M64.0196 41.9931H65.6869V45.792H65.7111C65.8524 45.4408 65.9897 45.0653 66.131 44.702L67.2735 41.9931H69.1023L67.1847 45.6669L69.1266 50.4468H67.3098L66.0664 46.9466L65.6869 47.637V50.4468H64.0196V41.9931Z" fill="#242222"/>
<path fill-rule="evenodd" clip-rule="evenodd" d="M69.8532 41.9931H71.5165V49.054H73.7168V50.4428H69.8532V41.9931Z" fill="#242222"/>
<path fill-rule="evenodd" clip-rule="evenodd" d="M76.0422 41.9931V47.4836C76.0422 48.727 76.4217 49.1025 76.8577 49.1025C77.3421 49.1025 77.6813 48.7634 77.6813 47.4836V41.9931H79.3486V47.197C79.3486 49.3689 78.521 50.5437 76.8698 50.5437C75.0773 50.5437 74.3789 49.3286 74.3789 47.2091V41.9931H76.0422Z" fill="#242222"/>
<path fill-rule="evenodd" clip-rule="evenodd" d="M80.592 48.7634C80.9352 48.9531 81.5206 49.0904 82.001 49.0904C82.7882 49.0904 83.1718 48.6907 83.1718 48.1376C83.1718 47.524 82.7923 47.2212 82.0656 46.7569C80.8948 46.0544 80.4507 45.1622 80.4507 44.3992C80.4507 43.0468 81.3672 41.9164 83.1597 41.9164C83.7168 41.9164 84.2537 42.0657 84.5081 42.2192L84.2416 43.6362C83.9994 43.4868 83.632 43.3496 83.1476 43.3496C82.437 43.3496 82.0939 43.7775 82.0939 44.2256C82.0939 44.7262 82.3482 44.9886 83.2767 45.5417C84.4071 46.22 84.827 47.0718 84.827 47.96C84.827 49.5022 83.6724 50.5195 81.9929 50.5195C81.3066 50.5195 80.6324 50.3459 80.3539 50.1804L80.5961 48.7634H80.592Z" fill="#242222"/>
<path d="M87.4552 41.9931H85.7878V50.4468H87.4552V41.9931Z" fill="#242222"/>
<path fill-rule="evenodd" clip-rule="evenodd" d="M37.4713 39.2196C35.6143 34.0076 33.8339 33.3253 33.9146 30.9999C33.9146 30.9999 28.844 34.1126 28.8319 39.3407C28.8561 40.2652 29.0499 41.331 29.5505 42.4856C29.9057 43.0791 31.8314 46.1513 32.7923 44.7141C33.3535 43.5797 33.7572 41.2058 32.6631 36.2967C32.6631 36.2967 36.1956 41.985 33.3696 45.574C31.4883 47.9559 28.9893 42.3605 28.9893 42.3605C28.9207 42.4816 29.1508 43.3496 29.5262 44.3104L29.4859 44.2619C29.4859 44.2619 29.6998 44.8352 30.0834 45.5538C30.2166 45.8122 30.3579 46.0585 30.4992 46.2765C31.1936 47.3827 32.1948 48.5131 33.3696 48.4121C35.6223 48.2224 39.3405 44.4477 37.4754 39.2196H37.4713Z" fill="#B1B2B2"/>
<path fill-rule="evenodd" clip-rule="evenodd" d="M37.4713 67.964C35.6143 73.176 33.8339 73.8582 33.9146 76.1836C33.9146 76.1836 28.844 73.071 28.8319 67.8429C28.8561 66.9184 29.0499 65.8526 29.5505 64.702C29.9057 64.1085 31.8314 61.0363 32.7923 62.4735C33.3535 63.6079 33.7572 65.9818 32.6631 70.8909C32.6631 70.8909 36.1956 65.2026 33.3696 61.6136C31.4883 59.2317 28.9893 64.8271 28.9893 64.8271C28.9207 64.706 29.1508 63.8381 29.5262 62.8772L29.4859 62.9257C29.4859 62.9257 29.6998 62.3524 30.0834 61.6338C30.2166 61.3754 30.3579 61.1291 30.4992 60.9111C31.1936 59.8049 32.1948 58.6745 33.3696 58.7755C35.6223 58.9652 39.3405 62.7399 37.4754 67.968L37.4713 67.964Z" fill="#056F3F"/>
<path fill-rule="evenodd" clip-rule="evenodd" d="M46.4622 49.7282C49.6192 45.0855 48.291 43.3374 52.0374 41.6822C52.0374 41.6822 45.4771 39.5991 41.1896 42.7238C40.4468 43.2971 39.6878 44.0924 39.0459 45.1945C38.7714 45.8405 37.4109 49.2599 39.163 49.1832C40.4307 48.9612 42.6148 47.8712 45.9777 44.0359C45.9777 44.0359 43.4343 50.3379 38.7997 50.1764C35.7234 50.0593 38.8077 44.6616 38.8077 44.6616C38.6664 44.6778 38.0972 45.3843 37.532 46.2684L37.5481 46.2079C37.5481 46.2079 37.209 46.7286 36.8457 47.4715C36.7125 47.7379 36.5954 47.9963 36.5025 48.2426C36.01 49.4739 35.687 50.9757 36.4702 51.876C37.9761 53.6039 43.293 54.3911 46.4622 49.7323V49.7282Z" fill="#DC2835"/>
<path fill-rule="evenodd" clip-rule="evenodd" d="M24.2618 63.3536C18.6704 63.8703 17.7862 61.8598 14.5242 64.3387C14.5242 64.3387 15.8767 57.5886 20.6849 55.3479C21.5448 54.9725 22.6106 54.698 23.8864 54.6657C24.5848 54.7424 28.2344 55.2026 27.322 56.6963C26.5186 57.6976 24.5081 59.0823 19.5182 60.1683C19.5182 60.1683 26.2642 60.9919 28.3635 56.8578C29.7564 54.1085 23.5351 54.1933 23.5351 54.1933C23.6159 54.0762 24.5121 53.9188 25.5618 53.8582L25.5012 53.8421C25.5012 53.8421 26.1189 53.7977 26.9465 53.8421C27.2453 53.8542 27.5279 53.8784 27.7903 53.9148C29.1064 54.0803 30.5759 54.5203 30.9836 55.6467C31.7669 57.8025 29.8855 62.8368 24.2739 63.3536H24.2618Z" fill="#672F8A"/>
<path fill-rule="evenodd" clip-rule="evenodd" d="M42.8286 63.3819C48.4201 63.8986 49.3042 61.8881 52.5702 64.3669C52.5702 64.3669 51.2178 57.6168 46.4096 55.3762C45.5497 55.0007 44.4838 54.7262 43.2081 54.6939C42.5097 54.7666 38.8601 55.2309 39.7725 56.7246C40.5759 57.7258 42.5864 59.1106 47.5763 60.1965C47.5763 60.1965 40.8302 61.0201 38.7309 56.8861C37.3381 54.1368 43.5593 54.2216 43.5593 54.2216C43.4786 54.1045 42.5824 53.9471 41.5327 53.8865L41.5933 53.8703C41.5933 53.8703 40.9756 53.8259 40.148 53.8703C39.8492 53.8825 39.5666 53.9067 39.3042 53.943C37.9881 54.1085 36.5186 54.5486 36.1108 55.6749C35.3276 57.8308 37.2089 62.8651 42.8205 63.3819H42.8286Z" fill="#F8B83C"/>
<path fill-rule="evenodd" clip-rule="evenodd" d="M20.701 49.7484C17.548 45.1057 18.2465 43.2809 14.5 41.6257C14.5 41.6257 21.6861 39.6192 25.9776 42.744C26.7204 43.3173 27.4794 44.1126 28.1213 45.2147C28.3958 45.8607 29.7564 49.2801 28.0042 49.2034C26.7366 48.9814 24.5525 47.8913 21.1895 44.0561C21.1895 44.0561 23.7329 50.358 28.3676 50.1965C31.4439 50.0795 28.3595 44.6818 28.3595 44.6818C28.5008 44.6939 29.07 45.4045 29.6352 46.2886L29.6191 46.228C29.6191 46.228 29.9582 46.7488 30.3216 47.4917C30.4548 47.7581 30.5719 48.0205 30.6647 48.2628C31.1572 49.4941 31.4802 50.9959 30.697 51.8962C29.1912 53.6241 23.8742 54.4113 20.7051 49.7525L20.701 49.7484Z" fill="#37A9E1"/>
</svg>
