<svg width="109" height="108" viewBox="0 0 109 108" fill="none" xmlns="http://www.w3.org/2000/svg">
<g clip-path="url(#clip0_801_8891)">
<path d="M33.6599 48.96V63.8C33.5799 65.03 33.2299 66.39 31.7999 66.39C31.1499 66.39 30.8599 66.24 30.7199 65.98C31.8999 64.22 32.5999 62.06 32.5999 59.71C32.5999 58.32 32.3499 56.99 31.8999 55.77C31.8199 55.56 31.7399 55.36 31.6499 55.16C30.0899 51.57 26.7599 49.08 22.8799 49.08C17.5199 49.08 13.1699 53.83 13.1699 59.7C13.1699 65.57 17.5199 70.32 22.8799 70.32C24.5399 70.32 26.1099 69.86 27.4799 69.06C28.6099 69.87 29.9699 70.35 31.4399 70.35C34.7099 70.35 37.4499 68 38.2099 64.84V48.96H33.6299H33.6599ZM25.1199 66.12C24.4399 66.51 23.6899 66.74 22.8999 66.74C19.8799 66.74 17.4399 63.57 17.4399 59.66C17.4399 55.75 19.8899 52.58 22.8999 52.58C25.1299 52.58 27.0399 54.31 27.8899 56.78C28.1899 57.66 28.3599 58.63 28.3599 59.66C28.3599 62.54 27.0299 65.02 25.1199 66.12Z" fill="url(#paint0_radial_801_8891)"/>
<path d="M39.5601 57.08V63.53L42.3601 60.93L48.7301 70.4H55.0401L46.0701 56.88L53.7901 48.66H46.7701L39.5601 57.08Z" fill="url(#paint1_radial_801_8891)"/>
<path d="M54.03 48.86C52.81 48.98 51.36 49 49.65 48.82C49.55 48.82 49.46 48.82 49.37 48.8C42.39 46.75 40.22 43.81 35.79 40.41C31.06 36.77 19.72 34.31 9.5 42.38C9.5 42.38 13 44.4 14.6 47.82C14.63 47.88 14.66 47.94 14.69 48C16.27 51.53 16.52 54.57 16.52 54.57C16.52 54.57 22.32 47.94 29.49 47.68C35.54 47.46 42.56 49.81 48.13 50.43C49.16 50.54 50.14 50.6 51.06 50.57C56.91 50.36 59.15 47 59.15 47C59.15 47 57.71 48.49 54.05 48.86H54.03Z" fill="#313132"/>
<path d="M31.5698 43.15C40.1398 45.43 42.3898 48.41 49.3598 48.36C49.4798 48.36 49.5798 48.35 49.6898 48.35C49.5898 48.35 49.4998 48.35 49.4098 48.33C42.4598 46.39 40.3098 43.61 35.8998 40.39C31.1998 36.95 20.4198 34.52 10.2598 42.16C10.2598 42.16 13.2398 44.17 14.8298 47.4C15.1198 47.07 15.3998 46.77 15.6898 46.48C21.2498 40.73 26.5698 41.82 31.5798 43.15H31.5698Z" fill="url(#paint2_linear_801_8891)"/>
<path d="M54.0396 48.39C52.8296 48.51 51.3796 48.52 49.6796 48.35C49.5596 48.35 49.4596 48.36 49.3496 48.36C42.3896 48.41 38.5796 44.56 32.0996 42.47C27.1696 40.88 21.2296 40.72 15.6696 46.47C15.3796 46.76 15.0996 47.06 14.8096 47.39C14.8396 47.45 14.8696 47.5 14.8996 47.56C16.4696 50.9 16.7196 53.78 16.7196 53.78C16.7196 53.78 22.4896 47.51 29.6196 47.25C35.6396 47.04 42.6196 49.27 48.1596 49.85C49.1796 49.96 50.1596 50.02 51.0696 49.98C56.8896 49.78 59.2096 46.74 59.2096 46.74C59.2096 46.74 57.6796 48.01 54.0396 48.37V48.39Z" fill="url(#paint3_linear_801_8891)"/>
<path d="M60.3699 48.68H59.4199V70.13H60.3699V48.68Z" fill="#660812"/>
<path d="M68.63 51.84C68.63 52.16 68.57 52.47 68.45 52.75C68.33 53.04 68.15 53.29 67.92 53.52C67.69 53.75 67.42 53.92 67.13 54.04C66.84 54.16 66.53 54.22 66.2 54.22C65.87 54.22 65.56 54.16 65.27 54.04C64.97 53.92 64.71 53.75 64.48 53.52C64.25 53.29 64.07 53.04 63.95 52.75C63.83 52.46 63.77 52.16 63.77 51.83C63.77 51.5 63.83 51.2 63.95 50.91C64.07 50.62 64.24 50.37 64.48 50.14C64.71 49.91 64.97 49.74 65.27 49.62C65.56 49.5 65.88 49.44 66.2 49.44C66.52 49.44 66.84 49.5 67.13 49.62C67.42 49.74 67.68 49.91 67.92 50.14C68.15 50.37 68.33 50.63 68.45 50.92C68.57 51.21 68.63 51.51 68.63 51.83V51.84ZM67.86 51.84C67.86 51.61 67.82 51.39 67.74 51.18C67.66 50.97 67.54 50.79 67.38 50.63C67.23 50.47 67.05 50.35 66.85 50.26C66.65 50.17 66.44 50.13 66.21 50.13C65.98 50.13 65.77 50.17 65.57 50.26C65.37 50.35 65.19 50.47 65.03 50.63C64.87 50.79 64.75 50.97 64.67 51.18C64.59 51.39 64.55 51.61 64.55 51.84C64.55 52.07 64.59 52.29 64.67 52.49C64.75 52.7 64.87 52.88 65.03 53.04C65.19 53.2 65.37 53.32 65.57 53.41C65.77 53.49 65.98 53.54 66.21 53.54C66.44 53.54 66.64 53.5 66.84 53.41C67.04 53.32 67.22 53.2 67.38 53.04C67.54 52.88 67.66 52.69 67.74 52.49C67.82 52.28 67.86 52.07 67.86 51.84Z" fill="#313132"/>
<path d="M70.72 50.18V54.09H69.98V50.18H68.77V49.55H71.92V50.18H70.72Z" fill="#313132"/>
<path d="M76.9201 51.84C76.9201 52.16 76.8601 52.47 76.7401 52.75C76.6201 53.04 76.4401 53.29 76.2101 53.52C75.9801 53.75 75.7101 53.92 75.4201 54.04C75.1301 54.16 74.8201 54.22 74.4901 54.22C74.1601 54.22 73.8501 54.16 73.5601 54.04C73.2601 53.92 73.0001 53.75 72.7701 53.52C72.5401 53.29 72.3601 53.04 72.2401 52.75C72.1201 52.46 72.0601 52.16 72.0601 51.83C72.0601 51.5 72.1201 51.2 72.2401 50.91C72.3601 50.62 72.5401 50.37 72.7701 50.14C73.0001 49.91 73.2601 49.74 73.5601 49.62C73.8501 49.5 74.1701 49.44 74.4901 49.44C74.8101 49.44 75.1301 49.5 75.4201 49.62C75.7101 49.74 75.9701 49.91 76.2101 50.14C76.4401 50.37 76.6201 50.63 76.7401 50.92C76.8601 51.21 76.9201 51.51 76.9201 51.83V51.84ZM76.1501 51.84C76.1501 51.61 76.1101 51.39 76.0301 51.18C75.9501 50.97 75.8301 50.79 75.6701 50.63C75.5201 50.47 75.3401 50.35 75.1401 50.26C74.9401 50.17 74.7301 50.13 74.5001 50.13C74.2701 50.13 74.0601 50.17 73.8601 50.26C73.6601 50.35 73.4801 50.47 73.3201 50.63C73.1601 50.79 73.0401 50.97 72.9601 51.18C72.8801 51.39 72.8401 51.61 72.8401 51.84C72.8401 52.07 72.8801 52.29 72.9601 52.49C73.0401 52.7 73.1601 52.88 73.3201 53.04C73.4801 53.2 73.6601 53.32 73.8601 53.41C74.0601 53.49 74.2701 53.54 74.5001 53.54C74.7301 53.54 74.9301 53.5 75.1301 53.41C75.3301 53.32 75.5101 53.2 75.6701 53.04C75.8301 52.88 75.9501 52.69 76.0301 52.49C76.1101 52.28 76.1501 52.07 76.1501 51.84Z" fill="#313132"/>
<path d="M78.46 52.06V54.09H77.77V49.55H78.8C79.1 49.55 79.34 49.57 79.5 49.61C79.67 49.65 79.81 49.71 79.93 49.8C80.07 49.91 80.18 50.05 80.26 50.23C80.34 50.4 80.38 50.59 80.38 50.8C80.38 51.16 80.29 51.45 80.12 51.65C79.94 51.86 79.68 51.98 79.34 52.02L80.9 54.09H80.06L78.55 52.06H78.47H78.46ZM78.51 51.49H78.64C79.03 51.49 79.29 51.44 79.42 51.35C79.55 51.26 79.61 51.1 79.61 50.87C79.61 50.62 79.54 50.44 79.41 50.34C79.27 50.24 79.02 50.19 78.64 50.19H78.51V51.49Z" fill="#313132"/>
<path d="M81.3301 54.1V49.56H82.0701V54.1H81.3301Z" fill="#313132"/>
<path d="M84.5999 50.18V54.09H83.8599V50.18H82.6499V49.55H85.7899V50.18H84.5899H84.5999Z" fill="#313132"/>
<path d="M88.9 54.1L88.38 52.93H86.58L86.05 54.1H85.27L87.47 49.38L89.67 54.1H88.89H88.9ZM86.86 52.32H88.13L87.67 51.28C87.64 51.21 87.62 51.14 87.59 51.05C87.56 50.96 87.53 50.87 87.5 50.76C87.48 50.86 87.45 50.95 87.42 51.04C87.39 51.13 87.36 51.2 87.33 51.28L86.87 52.32H86.86Z" fill="#313132"/>
<path d="M89.8498 53.19L90.4398 52.92C90.4998 53.12 90.5998 53.28 90.7498 53.38C90.8998 53.49 91.0898 53.54 91.3198 53.54C91.5498 53.54 91.7098 53.48 91.8398 53.36C91.9698 53.24 92.0298 53.07 92.0298 52.87C92.0298 52.6 91.8099 52.37 91.3699 52.16C91.3099 52.13 91.2599 52.11 91.2299 52.09C90.7299 51.85 90.3999 51.63 90.2299 51.43C90.0599 51.23 89.9799 50.99 89.9799 50.71C89.9799 50.34 90.0998 50.04 90.3498 49.81C90.5998 49.58 90.9298 49.47 91.3398 49.47C91.6798 49.47 91.9598 49.53 92.1798 49.66C92.4098 49.79 92.5598 49.97 92.6498 50.22L92.0698 50.52C91.9798 50.38 91.8798 50.27 91.7698 50.21C91.6598 50.14 91.5398 50.11 91.3998 50.11C91.1998 50.11 91.0398 50.16 90.9298 50.27C90.8098 50.37 90.7598 50.51 90.7598 50.68C90.7598 50.95 91.0198 51.21 91.5298 51.44C91.5698 51.46 91.5999 51.47 91.6199 51.48C92.0699 51.69 92.3798 51.89 92.5398 52.09C92.7098 52.29 92.7898 52.53 92.7898 52.83C92.7898 53.26 92.6498 53.6 92.3798 53.85C92.1098 54.1 91.7398 54.23 91.2798 54.23C90.8898 54.23 90.5798 54.14 90.3298 53.96C90.0798 53.78 89.9198 53.53 89.8398 53.2L89.8498 53.19Z" fill="#313132"/>
<path d="M63.94 60.89C64.02 60.98 64.09 61.05 64.16 61.09C64.23 61.13 64.3 61.15 64.38 61.15C64.52 61.15 64.63 61.1 64.68 61.01C64.74 60.91 64.77 60.74 64.77 60.48V57.18H65.5V60.72C65.5 61.1 65.42 61.39 65.25 61.57C65.08 61.75 64.82 61.84 64.46 61.84C64.26 61.84 64.08 61.8 63.92 61.72C63.76 61.64 63.61 61.52 63.46 61.36L63.93 60.89H63.94Z" fill="#313132"/>
<path d="M69.4801 61.72L68.9601 60.55H67.1601L66.6301 61.72H65.8501L68.0501 57L70.2501 61.72H69.4701H69.4801ZM67.4401 59.94H68.7101L68.2501 58.9C68.2201 58.83 68.1901 58.76 68.1701 58.67C68.1401 58.58 68.1101 58.49 68.0801 58.38C68.0601 58.48 68.0301 58.57 68.0001 58.66C67.9701 58.75 67.9401 58.83 67.9101 58.9L67.4501 59.94H67.4401Z" fill="#313132"/>
<path d="M70.4302 60.81L71.0202 60.54C71.0802 60.74 71.1802 60.9 71.3302 61C71.4802 61.11 71.6702 61.16 71.9002 61.16C72.1202 61.16 72.2902 61.1 72.4202 60.98C72.5502 60.86 72.6202 60.69 72.6202 60.49C72.6202 60.22 72.4002 59.99 71.9602 59.78C71.9002 59.75 71.8502 59.73 71.8202 59.71C71.3202 59.47 70.9902 59.25 70.8202 59.05C70.6502 58.85 70.5702 58.61 70.5702 58.32C70.5702 57.95 70.6902 57.65 70.9502 57.42C71.2002 57.19 71.5302 57.08 71.9402 57.08C72.2702 57.08 72.5502 57.14 72.7802 57.27C73.0002 57.4 73.1602 57.58 73.2502 57.83L72.6702 58.13C72.5802 57.99 72.4802 57.88 72.3702 57.82C72.2602 57.75 72.1402 57.72 72.0002 57.72C71.8002 57.72 71.6402 57.77 71.5302 57.88C71.4102 57.98 71.3602 58.12 71.3602 58.3C71.3602 58.57 71.6202 58.83 72.1302 59.06C72.1702 59.08 72.2002 59.09 72.2202 59.1C72.6702 59.31 72.9802 59.51 73.1502 59.71C73.3202 59.91 73.4002 60.15 73.4002 60.45C73.4002 60.88 73.2702 61.22 72.9902 61.47C72.7202 61.72 72.3502 61.85 71.8902 61.85C71.5002 61.85 71.1902 61.76 70.9402 61.58C70.6902 61.4 70.5302 61.15 70.4602 60.82L70.4302 60.81Z" fill="#313132"/>
<path d="M77.1698 61.72L76.6598 60.55H74.8598L74.3298 61.72H73.5498L75.7498 57L77.9498 61.72H77.1698ZM75.1298 59.94H76.3998L75.9298 58.9C75.8998 58.83 75.8798 58.76 75.8498 58.67C75.8198 58.58 75.7898 58.49 75.7598 58.38C75.7298 58.48 75.7098 58.57 75.6798 58.66C75.6498 58.75 75.6298 58.83 75.5998 58.9L75.1298 59.94Z" fill="#313132"/>
<path d="M63.98 69.34V64.8H64.72V66.68L66.35 64.8H67.25L65.45 66.82L67.46 69.34H66.51L64.72 67.02V69.34H63.98Z" fill="#313132"/>
<path d="M67.9199 69.34V64.8H70.4599V65.43H68.6699V66.57H70.4599V67.22H68.6699V68.69H70.4599V69.35H67.9199V69.34Z" fill="#313132"/>
<path d="M71.2798 64.8H72.0098V67.56C72.0098 67.97 72.1098 68.28 72.2898 68.48C72.4798 68.69 72.7598 68.79 73.1398 68.79C73.5198 68.79 73.7998 68.69 73.9898 68.48C74.1798 68.27 74.2698 67.97 74.2698 67.56V64.8H75.0098V67.63C75.0098 68.24 74.8498 68.7 74.5498 69.01C74.2398 69.32 73.7698 69.47 73.1498 69.47C72.5298 69.47 72.0598 69.32 71.7498 69.01C71.4398 68.71 71.2898 68.25 71.2898 67.63V64.8H71.2798Z" fill="#313132"/>
<path d="M78.91 69.34L78.4 68.17H76.6L76.07 69.34H75.29L77.49 64.62L79.69 69.34H78.91ZM76.87 67.56H78.14L77.67 66.52C77.64 66.45 77.62 66.38 77.59 66.29C77.56 66.2 77.53 66.11 77.5 66C77.47 66.1 77.45 66.19 77.42 66.28C77.39 66.37 77.37 66.45 77.34 66.52L76.87 67.56Z" fill="#313132"/>
<path d="M80.1201 69.34V64.62L83.0001 67.4C83.0801 67.48 83.1601 67.56 83.2401 67.65C83.3201 67.74 83.4101 67.84 83.5001 67.95V64.8H84.1801V69.52L81.2401 66.69C81.1601 66.61 81.0901 66.53 81.0101 66.45C80.9401 66.36 80.8701 66.28 80.8001 66.18V69.34H80.1201Z" fill="#313132"/>
<path d="M87.7398 67.02H89.5398C89.5398 67.02 89.5398 67.1 89.5398 67.15C89.5398 67.3 89.5398 67.4 89.5398 67.45C89.5398 68.09 89.3598 68.58 88.9898 68.94C88.6198 69.29 88.1098 69.47 87.4398 69.47C87.0698 69.47 86.7298 69.42 86.4398 69.31C86.1498 69.2 85.8898 69.04 85.6698 68.81C85.4598 68.59 85.2898 68.33 85.1798 68.04C85.0598 67.74 85.0098 67.43 85.0098 67.09C85.0098 66.75 85.0698 66.43 85.1798 66.14C85.2998 65.85 85.4698 65.59 85.6998 65.37C85.9198 65.15 86.1798 64.99 86.4798 64.87C86.7798 64.76 87.0998 64.7 87.4398 64.7C87.7998 64.7 88.1198 64.77 88.3998 64.9C88.6798 65.03 88.9298 65.23 89.1498 65.5L88.6098 65.91C88.4598 65.73 88.2798 65.6 88.0898 65.51C87.8998 65.42 87.6798 65.38 87.4398 65.38C86.9498 65.38 86.5498 65.54 86.2298 65.85C85.9198 66.17 85.7698 66.58 85.7698 67.08C85.7698 67.58 85.9198 68.01 86.2298 68.33C86.5398 68.65 86.9498 68.81 87.4398 68.81C87.8598 68.81 88.1898 68.71 88.4398 68.52C88.6798 68.32 88.7998 68.06 88.7998 67.72V67.65H87.7098V67.03L87.7398 67.02Z" fill="#313132"/>
<path d="M93.3302 69.34L92.8102 68.17H91.0102L90.4802 69.34H89.7002L91.9002 64.62L94.1002 69.34H93.3202H93.3302ZM91.2902 67.56H92.5602L92.1002 66.52C92.0702 66.45 92.0402 66.38 92.0202 66.29C91.9902 66.2 91.9602 66.11 91.9302 66C91.9102 66.1 91.8802 66.19 91.8502 66.28C91.8202 66.37 91.7902 66.45 91.7602 66.52L91.3002 67.56H91.2902Z" fill="#313132"/>
<path d="M94.5298 69.34V64.62L97.4198 67.4C97.4998 67.48 97.5798 67.56 97.6598 67.65C97.7398 67.74 97.8198 67.84 97.9098 67.95V64.8H98.5898V69.52L95.6498 66.69C95.5698 66.61 95.4998 66.53 95.4198 66.45C95.3498 66.36 95.2798 66.28 95.2098 66.18V69.34H94.5298Z" fill="#313132"/>
</g>
<defs>
<radialGradient id="paint0_radial_801_8891" cx="0" cy="0" r="1" gradientUnits="userSpaceOnUse" gradientTransform="translate(35.5499 58.53) scale(17.32)">
<stop stop-color="#C40015"/>
<stop offset="0.14" stop-color="#AC0114"/>
<stop offset="0.37" stop-color="#8E0413"/>
<stop offset="0.59" stop-color="#770612"/>
<stop offset="0.81" stop-color="#6A0712"/>
<stop offset="1" stop-color="#660812"/>
</radialGradient>
<radialGradient id="paint1_radial_801_8891" cx="0" cy="0" r="1" gradientUnits="userSpaceOnUse" gradientTransform="translate(35.5501 58.53) scale(17.32)">
<stop stop-color="#C40015"/>
<stop offset="0.14" stop-color="#AC0114"/>
<stop offset="0.37" stop-color="#8E0413"/>
<stop offset="0.59" stop-color="#770612"/>
<stop offset="0.81" stop-color="#6A0712"/>
<stop offset="1" stop-color="#660812"/>
</radialGradient>
<linearGradient id="paint2_linear_801_8891" x1="45.7598" y1="46.92" x2="7.45977" y2="39.77" gradientUnits="userSpaceOnUse">
<stop stop-color="#E77D62"/>
<stop offset="0.02" stop-color="#D76854"/>
<stop offset="0.04" stop-color="#C24B41"/>
<stop offset="0.07" stop-color="#B13532"/>
<stop offset="0.1" stop-color="#A62628"/>
<stop offset="0.14" stop-color="#9F1C21"/>
<stop offset="0.19" stop-color="#9D1A20"/>
<stop offset="0.22" stop-color="#A01E23"/>
<stop offset="0.26" stop-color="#AA2B2B"/>
<stop offset="0.3" stop-color="#BA423A"/>
<stop offset="0.34" stop-color="#D1604F"/>
<stop offset="0.38" stop-color="#E77D62"/>
<stop offset="0.43" stop-color="#D76753"/>
<stop offset="0.52" stop-color="#C24B41"/>
<stop offset="0.61" stop-color="#B13532"/>
<stop offset="0.71" stop-color="#A52628"/>
<stop offset="0.83" stop-color="#9F1C21"/>
<stop offset="1" stop-color="#9D1A20"/>
</linearGradient>
<linearGradient id="paint3_linear_801_8891" x1="-2.62043" y1="48.58" x2="50.3896" y2="46.55" gradientUnits="userSpaceOnUse">
<stop stop-color="#7F8083"/>
<stop offset="0.15" stop-color="#818285"/>
<stop offset="0.26" stop-color="#8B8B8E"/>
<stop offset="0.35" stop-color="#9A9B9D"/>
<stop offset="0.44" stop-color="#B0B1B3"/>
<stop offset="0.52" stop-color="#CCCDCE"/>
<stop offset="0.59" stop-color="#EFEFEF"/>
<stop offset="0.62" stop-color="white"/>
<stop offset="0.64" stop-color="#F1F2F2"/>
<stop offset="0.69" stop-color="#D3D4D5"/>
<stop offset="0.73" stop-color="#BCBEC0"/>
<stop offset="0.77" stop-color="#AFB1B4"/>
<stop offset="0.81" stop-color="#ABADB0"/>
<stop offset="0.87" stop-color="#ADAFB2"/>
<stop offset="0.9" stop-color="#B7B8BB"/>
<stop offset="0.94" stop-color="#C6C8CA"/>
<stop offset="0.97" stop-color="#DCDDDE"/>
<stop offset="1" stop-color="white"/>
</linearGradient>
<clipPath id="clip0_801_8891">
<rect width="89.09" height="33.4" fill="white" transform="translate(9.5 37)"/>
</clipPath>
</defs>
</svg>
