<svg width="109" height="108" viewBox="0 0 109 108" fill="none" xmlns="http://www.w3.org/2000/svg">
<path fill-rule="evenodd" clip-rule="evenodd" d="M19.5001 20.0769H65.3349C74.8736 20.0769 82.6779 27.8814 82.6779 37.4199V65.7742C82.6779 75.3129 74.8736 83.1172 65.3349 83.1172L19.5 83.2549L19.5001 20.0769Z" fill="#005FA1"/>
<path fill-rule="evenodd" clip-rule="evenodd" d="M68.7104 14.0001L74.7818 19.569L82.7759 19.7762L83.1408 28.0178L88.6474 33.831L83.0922 39.9174L82.8856 47.9315L74.6644 48.2974L68.8656 53.8175L62.7942 48.2486L54.8 48.0414L54.4351 39.7998L48.9285 33.9866L54.4838 27.9002L54.6903 19.8862L62.9116 19.5202L68.7104 14.0001Z" fill="#E30016"/>
<path fill-rule="evenodd" clip-rule="evenodd" d="M68.813 21.9971L74.7818 19.569L77.2077 25.5037L83.1408 28.0178L80.6702 33.9339L83.0922 39.9174L77.1723 42.3494L74.6644 48.2974L68.7629 45.8206L62.7942 48.2486L60.3682 42.314L54.4351 39.7998L56.9057 33.8837L54.4838 27.9002L60.4036 25.4683L62.9116 19.5202L68.813 21.9971Z" fill="#F07C00"/>
<path fill-rule="evenodd" clip-rule="evenodd" d="M68.813 21.9971L72.2278 25.6595L77.2077 25.5037L77.0389 30.5139L80.6702 33.9339L77.0169 37.3572L77.1723 42.3494L72.1744 42.1804L68.7629 45.8206L65.3481 42.1582L60.3682 42.314L60.537 37.3037L56.9057 33.8837L60.5591 30.4605L60.4036 25.4683L65.4016 25.6373L68.813 21.9971Z" fill="#B1C900"/>
<path fill-rule="evenodd" clip-rule="evenodd" d="M68.7878 25.0297C73.6909 25.0297 77.667 29.0057 77.667 33.9088C77.667 38.8118 73.6909 42.7879 68.7878 42.7879C63.8848 42.7879 59.9088 38.8118 59.9088 33.9088C59.9088 29.0057 63.8848 25.0297 68.7878 25.0297Z" fill="white"/>
<path fill-rule="evenodd" clip-rule="evenodd" d="M31.9891 59.4651L32.1668 75.7508C32.1908 77.958 32.8695 78.1775 34.7884 78.3543V78.3517C35.8654 78.3517 36.5906 78.2367 36.9777 78.0037C37.3573 77.7751 37.6249 77.4807 37.7795 77.1138C37.9349 76.7446 38.0135 76.6188 38.0135 75.1801V57.9283C38.0135 56.4895 37.9349 56.3738 37.7795 55.9981C37.6249 55.6244 37.3506 55.3313 36.9658 55.108C36.578 54.8831 35.8537 54.7735 34.7884 54.7735V53.2573H45.9331C48.5962 53.2573 50.4865 53.533 51.5933 54.0738C52.7048 54.6169 53.5775 55.4255 54.2156 56.5029C54.8594 57.5802 55.1754 58.7313 55.1754 59.9425C55.1754 61.2274 54.7714 62.365 53.958 63.3688C53.15 64.3657 52.3135 65.1375 50.2649 65.7264C54.4291 66.3017 56.2408 68.8534 56.2408 72.5099C56.2408 74.5109 55.5383 76.1637 54.1335 77.4686C52.4068 79.0547 49.8958 79.8443 46.6062 79.8443H34.7884V79.8359H25.1483V78.3622C27.1329 78.2697 27.9838 77.7376 27.9838 75.7508V64.2435C27.9838 62.0819 27.4447 61.7624 25.3003 61.5747V60.3021C27.6631 60.2633 29.9014 60 31.9891 59.4651ZM42.6613 66.7449V74.5923C42.6613 75.3707 42.5152 76.3692 43.2686 76.9699C43.6849 77.3021 44.3202 77.4159 45.1532 77.4626C50.8742 77.7834 51.8589 74.9615 51.7857 72.2516C51.6271 66.3645 48.1618 66.716 42.6613 66.7449ZM42.6601 64.58C48.6709 65.5952 50.2183 63.4053 50.3368 60.09C50.4661 56.4725 48.8134 55.5487 45.7574 55.4707C43.7999 55.4208 42.6602 55.7106 42.6602 57.3976L42.6601 64.58ZM30.214 51.336C31.726 51.336 32.9525 52.5623 32.9525 54.0744C32.9525 55.5864 31.726 56.8128 30.214 56.8128C28.7019 56.8128 27.4757 55.5864 27.4757 54.0744C27.4757 52.5623 28.7019 51.336 30.214 51.336Z" fill="white"/>
<path fill-rule="evenodd" clip-rule="evenodd" d="M19.7049 92.3455H20.6026V90.3533C20.751 90.3799 20.9227 90.3865 21.11 90.3865C22.1873 90.3865 23.3428 89.9615 23.3428 88.7264C23.3428 88.2616 23.1398 87.8764 22.8042 87.6307C22.445 87.3585 21.8907 87.2256 21.157 87.2256C20.5403 87.2256 20.0639 87.2721 19.7049 87.3252V92.3455ZM20.6026 87.8764C20.7196 87.8565 20.9306 87.8299 21.2116 87.8299C21.9377 87.8299 22.4372 88.142 22.4372 88.7596C22.4372 89.4103 21.9377 89.7756 21.11 89.7756C20.8992 89.7756 20.7354 89.769 20.6026 89.7358V87.8764ZM27.2229 91.6548C26.9418 91.7545 26.6141 91.8275 26.1377 91.8275C25.4585 91.8275 24.8574 91.5154 24.834 90.692H27.5665C27.5821 90.599 27.5898 90.4928 27.5898 90.3666C27.5898 89.4635 27.1058 88.6068 25.8957 88.6068C24.6778 88.6068 23.9596 89.4767 23.9596 90.5658C23.9596 91.6814 24.7091 92.4197 26.0051 92.4197C26.5905 92.4197 27.0668 92.3189 27.3712 92.1994L27.2229 91.6548ZM24.8418 90.1408C24.8887 89.7159 25.1697 89.158 25.8334 89.158C26.5281 89.158 26.7388 89.7026 26.7311 90.1408H24.8418ZM30.6267 88.6268C30.5486 88.6135 30.4863 88.6068 30.4004 88.6068C29.9319 88.6068 29.4792 88.8925 29.284 89.3572H29.2528L29.2215 88.6866H28.433C28.4564 89.0252 28.4642 89.3771 28.4642 89.8022V92.3455H29.3699V90.4064C29.3699 89.769 29.7523 89.344 30.3613 89.344C30.4628 89.344 30.5486 89.3507 30.6267 89.3638V88.6268ZM32.235 89.1979V87.0198H31.3293V91.3693C31.3293 91.7013 31.3137 92.0997 31.2981 92.3455H32.071L32.118 91.7943H32.1413C32.4301 92.2259 32.8595 92.4197 33.4137 92.4197C34.3038 92.4197 35.2171 91.7943 35.2171 90.4596C35.2171 89.344 34.5381 88.6068 33.5543 88.6068C32.9531 88.6068 32.5083 88.826 32.2506 89.1979H32.235ZM32.235 90.1807C32.235 89.6959 32.6564 89.2245 33.2264 89.2245C33.9446 89.2245 34.2961 89.8022 34.2961 90.4928C34.2961 91.2763 33.9134 91.8009 33.2186 91.8009C32.6253 91.8009 32.235 91.3627 32.235 90.8978V90.1807ZM39.1206 90.0944C39.1206 89.3173 38.7693 88.6068 37.5046 88.6068C36.9269 88.6068 36.4195 88.7463 36.1151 88.9124L36.3024 89.4236C36.5756 89.2709 36.966 89.1713 37.3485 89.1713C38.215 89.1713 38.215 89.7159 38.215 89.9881C36.7396 89.9881 35.8105 90.4396 35.8105 91.3494C35.8105 91.9139 36.2711 92.4197 37.0753 92.4197C37.6139 92.4197 38.0355 92.206 38.2776 91.9205H38.3009L38.3634 92.3455H39.1832C39.1286 92.1064 39.1206 91.7877 39.1206 91.4756V90.0944ZM38.2385 91.1104C38.2385 91.5354 37.8326 91.8541 37.3406 91.8541C37.0049 91.8541 36.7082 91.6748 36.7082 91.2697C36.7082 90.619 37.5281 90.5061 38.2385 90.5061V91.1104ZM43.8126 90.1076C43.8126 88.9787 43.0631 88.6068 42.3917 88.6068C41.7438 88.6068 41.2909 88.9189 41.088 89.2311H41.0645L41.0177 88.6866H40.2291C40.2447 88.9986 40.2605 89.3108 40.2605 89.7159V92.3455H41.166V90.1408C41.166 89.5565 41.6421 89.2444 42.0871 89.2444C42.7041 89.2444 42.9069 89.6827 42.9069 90.2006V92.3455H43.8126V90.1076ZM46.8261 90.194L48.3405 88.6866H47.2711L46.2014 89.9084C46.0921 90.0346 45.9751 90.194 45.8735 90.3334H45.8579V87.0198H44.9523V92.3455H45.8579V91.0307L46.2093 90.6655L47.4428 92.3455H48.5357L46.8261 90.194ZM52.0566 90.0944C52.0566 89.3173 51.7053 88.6068 50.4405 88.6068C49.8629 88.6068 49.3555 88.7463 49.051 88.9124L49.2383 89.4236C49.5115 89.2709 49.9019 89.1713 50.2844 89.1713C51.1509 89.1713 51.1509 89.7159 51.1509 89.9881C49.6755 89.9881 48.7465 90.4396 48.7465 91.3494C48.7465 91.9139 49.2071 92.4197 50.0112 92.4197C50.5498 92.4197 50.9714 92.206 51.2135 91.9205H51.2368L51.2993 92.3455H52.1192C52.0645 92.1064 52.0566 91.7877 52.0566 91.4756V90.0944ZM51.1745 91.1104C51.1745 91.5354 50.7685 91.8541 50.2766 91.8541C49.9409 91.8541 49.6442 91.6748 49.6442 91.2697C49.6442 90.619 50.4641 90.5061 51.1745 90.5061V91.1104ZM56.7485 90.1076C56.7485 88.9787 55.999 88.6068 55.3277 88.6068C54.6797 88.6068 54.227 88.9189 54.024 89.2311H54.0004L53.9537 88.6866H53.1651C53.1808 88.9986 53.1964 89.3108 53.1964 89.7159V92.3455H54.1021V90.1408C54.1021 89.5565 54.5782 89.2444 55.0231 89.2444C55.6401 89.2444 55.8429 89.6827 55.8429 90.2006V92.3455H56.7485V90.1076ZM62.6974 87.4182C62.4398 87.3053 62.0104 87.1858 61.4404 87.1858C60.2538 87.1858 59.4966 87.7901 59.4966 88.5936C59.4966 89.2842 60.0977 89.7424 60.9877 90.0479C61.698 90.3003 62.0025 90.5658 62.0025 90.9975C62.0025 91.4557 61.6044 91.7677 60.894 91.7677C60.4021 91.7677 59.9181 91.6349 59.598 91.4689L59.395 92.113C59.6839 92.2791 60.2773 92.4197 60.8394 92.4197C62.1821 92.4197 62.9238 91.781 62.9238 90.931C62.9238 90.2338 62.4631 89.7888 61.5028 89.4303C60.7456 89.1514 60.4099 88.9388 60.4099 88.5072C60.4099 88.1819 60.7066 87.8299 61.417 87.8299C61.9088 87.8299 62.2835 87.9628 62.4787 88.0557L62.6974 87.4182ZM66.2964 88.6866L65.6016 90.7452C65.5233 90.9908 65.4376 91.263 65.3751 91.4756H65.3517C65.2893 91.263 65.2033 90.9842 65.1175 90.7452L64.3368 88.6866H63.3452L64.8208 92.06C64.8599 92.1329 64.8676 92.1794 64.8676 92.2193C64.8676 92.3189 64.5319 93.0637 63.5951 93.3493L63.8293 94.0001C64.0401 93.9602 64.4383 93.8341 64.8285 93.5286C65.3438 93.1036 65.703 92.4263 66.2103 91.2232L67.2487 88.6866H66.2964ZM70.9024 90.0944C70.9024 89.3173 70.5511 88.6068 69.2864 88.6068C68.7086 88.6068 68.2013 88.7463 67.8968 88.9124L68.0842 89.4236C68.3573 89.2709 68.7477 89.1713 69.1303 89.1713C69.9968 89.1713 69.9968 89.7159 69.9968 89.9881C68.5213 89.9881 67.5922 90.4396 67.5922 91.3494C67.5922 91.9139 68.0529 92.4197 68.857 92.4197C69.3958 92.4197 69.8173 92.206 70.0593 91.9205H70.0827L70.1451 92.3455H70.965C70.9103 92.1064 70.9024 91.7877 70.9024 91.4756V90.0944ZM70.0203 91.1104C70.0203 91.5354 69.6143 91.8541 69.1224 91.8541C68.7867 91.8541 68.4901 91.6748 68.4901 91.2697C68.4901 90.619 69.31 90.5061 70.0203 90.5061V91.1104ZM74.2047 88.6268C74.1266 88.6135 74.0642 88.6068 73.9783 88.6068C73.5099 88.6068 73.0572 88.8925 72.862 89.3572H72.8308L72.7995 88.6866H72.011C72.0345 89.0252 72.0422 89.3771 72.0422 89.8022V92.3455H72.9479V90.4064C72.9479 89.769 73.3303 89.344 73.9393 89.344C74.0408 89.344 74.1266 89.3507 74.2047 89.3638V88.6268ZM75.8911 87.6772C75.8911 87.4182 75.6803 87.2256 75.368 87.2256C75.0557 87.2256 74.837 87.4182 74.837 87.6772C74.837 87.9229 75.0479 88.1221 75.3601 88.1221C75.688 88.1221 75.8911 87.9229 75.8911 87.6772ZM75.813 88.6866H74.9073V92.3455H75.813V88.6866ZM79.9896 90.0944C79.9896 89.3173 79.6383 88.6068 78.3735 88.6068C77.7959 88.6068 77.2885 88.7463 76.984 88.9124L77.1713 89.4236C77.4445 89.2709 77.8349 89.1713 78.2174 89.1713C79.0839 89.1713 79.0839 89.7159 79.0839 89.9881C77.6085 89.9881 76.6795 90.4396 76.6795 91.3494C76.6795 91.9139 77.1401 92.4197 77.9442 92.4197C78.4828 92.4197 78.9044 92.206 79.1465 91.9205H79.1698L79.2323 92.3455H80.0522C79.9975 92.1064 79.9896 91.7877 79.9896 91.4756V90.0944ZM79.1075 91.1104C79.1075 91.5354 78.7015 91.8541 78.2096 91.8541C77.8738 91.8541 77.5772 91.6748 77.5772 91.2697C77.5772 90.619 78.3971 90.5061 79.1075 90.5061V91.1104ZM84.6815 90.1342C84.6815 88.9787 83.932 88.6068 83.2841 88.6068C82.8156 88.6068 82.3317 88.8061 82.0507 89.1846H82.0349V87.0198H81.1294V92.3455H82.0349V90.1076C82.0349 89.5565 82.5111 89.2444 82.9561 89.2444C83.5651 89.2444 83.7759 89.6827 83.7759 90.2073V92.3455H84.6815V90.1342Z" fill="#005FA1"/>
</svg>
