<svg width="109" height="108" viewBox="0 0 109 108" fill="none" xmlns="http://www.w3.org/2000/svg">
<path d="M65.8664 53.9243C65.8664 53.9265 65.8664 53.9287 65.8664 53.9308V53.9178C65.8664 53.9199 65.8664 53.9221 65.8664 53.9243Z" fill="url(#paint0_radial_801_8849)"/>
<path fill-rule="evenodd" clip-rule="evenodd" d="M16.0439 64.9602C15.0495 61.4735 14.5 57.797 14.5 53.9963C14.5 31.944 32.4442 14 54.4967 14C67.3318 14 77.7006 18.625 83.6994 27.005C84.3602 27.7966 84.249 28.9741 83.4639 29.6282C82.849 30.1385 81.9789 30.1516 81.3248 29.7787C77.1511 27.4498 71.9699 26.0892 66.3701 25.7228C70.6158 29.0264 74.4951 33.1673 77.7595 37.9559C78.3482 38.8129 78.8977 39.6829 79.4342 40.5661C81.1481 38.9175 82.2341 36.9877 82.6266 34.8813C82.8163 33.8673 83.7845 33.2 84.7919 33.3897C85.7994 33.5729 86.4732 34.5476 86.2835 35.5551C85.6947 38.7344 83.9807 41.5866 81.2986 43.8893C84.9555 50.974 86.9376 58.5166 86.918 65.6471C86.918 66.3013 86.8984 66.9358 86.8657 67.5704C88.2002 66.092 89.1619 64.4631 89.7114 62.7033C90.4048 59.9165 90.7777 56.9989 90.7777 53.9963C90.7777 49.0965 89.8226 44.3472 87.932 39.8792C87.5264 38.9306 87.9713 37.8381 88.9198 37.4391C89.8618 37.0335 90.9543 37.4783 91.3534 38.4269C93.3456 43.1294 94.4017 48.1181 94.4935 53.2563V54.7092C94.4474 57.2451 94.1588 59.7241 93.6626 62.1211C93.6626 62.2258 93.6561 62.3239 93.6299 62.422C93.5384 62.8538 93.4206 63.2856 93.2963 63.7042C91.0132 72.8365 85.577 80.7324 78.2174 86.1751C77.8576 86.4564 77.4912 86.7312 77.1118 86.9863C77.0938 86.9971 77.0762 87.008 77.0589 87.0187C77.0134 87.0467 76.9695 87.0738 76.9221 87.0975C70.5242 91.4478 62.8048 93.9925 54.4967 93.9925C36.5525 93.9925 21.3231 82.1062 16.2794 65.791C16.2694 65.756 16.2555 65.7248 16.2408 65.6916C16.2363 65.6814 16.2317 65.671 16.227 65.6602C16.1616 65.4313 16.1027 65.1957 16.0439 64.9602ZM78.1651 77.0952C73.7493 78.5802 68.771 79.3456 63.5114 79.411V79.4044C62.5955 83.6696 61.3918 87.2938 59.9068 89.8647C65.8468 88.9685 71.3223 86.6265 75.9539 83.2117C78.309 81.3539 80.1145 78.8549 81.3378 75.8588C80.3369 76.3102 79.2772 76.7223 78.1651 77.0952ZM38.43 86.4564C38.5674 86.5153 38.6851 86.6004 38.7898 86.6919L38.7963 86.705C43.4868 88.9685 48.7334 90.2376 54.2678 90.2768C54.2881 90.2737 54.3085 90.2702 54.329 90.2666C54.3939 90.2555 54.4598 90.2441 54.5294 90.2441C55.9228 90.2441 58.0293 86.4891 59.6779 79.339C56.3219 79.1624 52.894 78.7045 49.453 77.9718C44.9064 77.0036 40.5757 75.584 36.6114 73.7981C35.532 80.8436 36.3693 85.449 38.43 86.4564ZM19.0204 60.2306C19.0989 61.48 19.2952 62.7099 19.6157 63.9201H19.6223C21.8072 71.5936 26.4585 78.2335 32.6601 82.9304C32.1891 79.9212 32.3984 76.199 33.1311 72.0842C29.5331 70.1544 26.308 67.9106 23.5801 65.392C21.7745 63.7238 20.2568 61.9968 19.0204 60.2306ZM65.801 49.5675C65.8467 51.0241 65.8664 52.4742 65.8664 53.9243C65.8661 61.3929 65.3362 69.0638 64.231 75.6756C68.8168 75.5579 73.1475 74.8514 76.9875 73.5626C79.1529 72.8365 81.0762 71.9468 82.7443 70.9198C83.0387 69.2582 83.1957 67.4919 83.2023 65.6406C83.2153 59.2428 81.4752 52.4655 78.2239 46.035C74.7175 48.0564 70.4326 49.26 65.801 49.5675ZM37.3375 70.017C41.2757 71.8683 45.6326 73.3337 50.238 74.3215H50.2445C53.6855 75.0542 57.1135 75.4859 60.4433 75.6298C61.4507 69.9516 62.1507 62.6837 62.1507 53.9178C62.1507 52.4328 62.1376 51.0001 62.0918 49.6002C59.8152 49.5217 57.506 49.247 55.1902 48.7563C52.1417 48.1021 49.2306 47.1536 46.5615 45.9565C45.9793 47.0489 45.4167 48.161 44.8606 49.2993C41.0402 57.1363 38.6263 64.1949 37.3375 70.017ZM19.6746 53.5645C20.7802 56.6391 22.9586 59.7334 26.1183 62.651H26.1117C28.3621 64.7313 31.005 66.6218 33.9423 68.2769C35.5189 61.6894 38.2141 54.4346 41.5177 47.6704C42.0803 46.5256 42.656 45.3873 43.2448 44.2687C41.1056 43.0454 39.1823 41.6389 37.5272 40.0885C35.7871 38.4596 34.4199 36.7391 33.4451 34.9729C30.0695 37.3998 27.1192 40.2259 24.751 43.3659C22.2521 46.6695 20.5577 50.1236 19.6746 53.5645ZM74.6783 40.0493C71.4401 35.2999 67.5608 31.2375 63.3282 28.0909C64.5319 33.2262 65.2973 39.4016 65.6375 45.8256C69.6934 45.5378 73.4484 44.5107 76.4249 42.7902C75.8754 41.8679 75.2932 40.952 74.6783 40.0493ZM48.354 42.6921C50.709 43.7323 53.2669 44.5565 55.9556 45.1322C57.9508 45.5574 59.9526 45.806 61.9282 45.8845C61.5161 38.211 60.5348 32.0225 59.3638 27.4171C55.6219 31.3422 51.8211 36.6279 48.354 42.6921ZM36.5656 32.9318C37.3571 34.4364 38.5216 35.941 40.0655 37.3802V37.3868C41.4916 38.7278 43.1663 39.9446 45.0242 41.024C48.2885 35.2999 51.8407 30.2235 55.406 26.2331C52.9398 26.6125 50.4604 27.1555 48.0203 27.8881C43.9121 29.1245 40.0524 30.8385 36.5656 32.9318ZM31.9143 26.1088C31.9536 25.9125 32.0059 25.7228 32.0583 25.5331C26.0332 30.302 21.5455 36.9223 19.4849 44.5434C20.1652 43.3986 20.9175 42.2604 21.768 41.1417C24.5417 37.4718 28.022 34.2075 32.0256 31.4468C31.5807 29.661 31.5415 27.862 31.9143 26.1088ZM38.9206 21.7978C37.1216 23.2304 35.9637 24.9509 35.5516 26.8807V26.8742C35.3881 27.6657 35.3488 28.4704 35.4273 29.2881C38.9795 27.247 42.8523 25.5593 46.954 24.3294C49.1586 23.6622 51.3894 23.1454 53.6267 22.7594C48.3147 20.8165 43.2644 20.5025 38.9206 21.7978ZM69.17 20.3455C68.1822 20.5745 67.0112 21.1436 65.7356 21.9744C68.8299 22.1249 71.826 22.5501 74.639 23.2566C72.8858 22.0464 71.041 21.0913 69.17 20.3455ZM64.2441 18.8082C62.5824 18.4157 60.9731 18.1606 59.4685 17.9905V17.997C60.0311 18.8278 60.5545 19.796 61.0386 20.895C62.131 20.0577 63.2039 19.3642 64.2441 18.8082ZM50.4473 17.9578C52.0893 18.3176 53.751 18.8147 55.4322 19.4558V19.4624C55.8509 19.6194 56.263 19.796 56.6752 19.9726C55.864 18.5007 55.0855 17.7419 54.4509 17.7288C53.0902 17.7288 51.7622 17.8138 50.4473 17.9578Z" fill="url(#paint1_radial_801_8849)"/>
<defs>
<radialGradient id="paint0_radial_801_8849" cx="0" cy="0" r="1" gradientUnits="userSpaceOnUse" gradientTransform="translate(90.9924 29.0866) scale(66.164 66.1633)">
<stop stop-color="white"/>
<stop offset="0.17" stop-color="#B3E0F3"/>
<stop offset="0.43" stop-color="#4AB6E2"/>
<stop offset="0.54" stop-color="#21A6DC"/>
<stop offset="0.71" stop-color="#2177A4"/>
<stop offset="0.91" stop-color="#214669"/>
<stop offset="1" stop-color="#223353"/>
</radialGradient>
<radialGradient id="paint1_radial_801_8849" cx="0" cy="0" r="1" gradientUnits="userSpaceOnUse" gradientTransform="translate(90.9924 29.0866) scale(66.164 66.1633)">
<stop stop-color="white"/>
<stop offset="0.17" stop-color="#B3E0F3"/>
<stop offset="0.43" stop-color="#4AB6E2"/>
<stop offset="0.54" stop-color="#21A6DC"/>
<stop offset="0.71" stop-color="#2177A4"/>
<stop offset="0.91" stop-color="#214669"/>
<stop offset="1" stop-color="#223353"/>
</radialGradient>
</defs>
</svg>
