<svg width="109" height="108" viewBox="0 0 109 108" fill="none" xmlns="http://www.w3.org/2000/svg">
<g clip-path="url(#clip0_801_8864)">
<path fill-rule="evenodd" clip-rule="evenodd" d="M14.6128 56.2899C14.4178 55.6061 14.3101 54.8852 14.3101 54.1399C14.3101 49.8154 17.8289 46.2966 22.1533 46.2966C24.6702 46.2966 26.7035 47.2036 27.8799 48.8469C28.0094 49.0021 27.9876 49.233 27.8337 49.3613C27.7131 49.4614 27.5425 49.4639 27.4142 49.3908C26.5957 48.9341 25.5797 48.6673 24.4816 48.5955C25.3142 49.2433 26.0749 50.0553 26.715 50.9944C26.8305 51.1624 26.9383 51.333 27.0435 51.5062C27.3796 51.1829 27.5925 50.8045 27.6695 50.3914C27.7067 50.1926 27.8965 50.0617 28.0941 50.0989C28.2916 50.1349 28.4238 50.326 28.3866 50.5236C28.2711 51.147 27.935 51.7063 27.4091 52.1579C28.1262 53.5472 28.5149 55.0263 28.511 56.4246C28.511 56.5529 28.5072 56.6773 28.5008 56.8017C28.7624 56.5118 28.951 56.1924 29.0588 55.8473C29.1948 55.3008 29.2679 54.7287 29.2679 54.1399C29.2679 53.179 29.0806 52.2477 28.7099 51.3715C28.6303 51.1855 28.7176 50.9713 28.9036 50.893C29.0883 50.8135 29.3025 50.9007 29.3808 51.0867C29.7714 52.0089 29.9785 52.9871 29.9965 53.9947V54.2797C29.9875 54.777 29.9309 55.2631 29.8336 55.7331C29.8336 55.7537 29.8323 55.7729 29.8272 55.7922C29.8092 55.8768 29.7861 55.9615 29.7618 56.0436C29.3141 57.8344 28.248 59.3828 26.8048 60.4501C26.7343 60.5053 26.6625 60.5592 26.588 60.6092C26.5845 60.6113 26.5811 60.6134 26.5777 60.6155C26.5688 60.621 26.5601 60.6264 26.5508 60.631C25.2962 61.4841 23.7825 61.9831 22.1533 61.9831C18.6345 61.9831 15.6481 59.6522 14.659 56.4528C14.657 56.4459 14.6543 56.4398 14.6514 56.4333C14.6505 56.4313 14.6496 56.4293 14.6487 56.4272C14.6359 56.3823 14.6244 56.3361 14.6128 56.2899ZM26.7946 58.6696C25.9287 58.9608 24.9524 59.1108 23.921 59.1237V59.1224C23.7414 59.9588 23.5054 60.6695 23.2142 61.1736C24.379 60.9979 25.4527 60.5386 26.361 59.869C26.8228 59.5047 27.1769 59.0146 27.4168 58.4271C27.2205 58.5156 27.0127 58.5964 26.7946 58.6696ZM19.0027 60.5053C19.0296 60.5168 19.0527 60.5335 19.0732 60.5515L19.0745 60.554C19.9943 60.9979 21.0231 61.2468 22.1084 61.2545C22.1124 61.2538 22.1164 61.2532 22.1204 61.2525C22.1331 61.2503 22.1461 61.248 22.1597 61.248C22.433 61.248 22.846 60.5117 23.1693 59.1096C22.5112 59.0749 21.839 58.9851 21.1642 58.8415C20.2727 58.6516 19.4234 58.3732 18.646 58.023C18.4344 59.4046 18.5986 60.3077 19.0027 60.5053ZM15.1965 55.3624C15.2119 55.6074 15.2504 55.8486 15.3132 56.0859H15.3145C15.743 57.5907 16.6551 58.8928 17.8712 59.8138C17.7788 59.2237 17.8199 58.4938 17.9636 57.6869C17.258 57.3085 16.6256 56.8685 16.0906 56.3746C15.7366 56.0474 15.439 55.7088 15.1965 55.3624ZM24.37 53.2714C24.379 53.5575 24.3829 53.8423 24.3829 54.127V54.1245C24.3829 55.5895 24.2789 57.0942 24.0622 58.3912C24.9614 58.3681 25.8107 58.2295 26.5637 57.9768C26.9883 57.8344 27.3654 57.66 27.6926 57.4586C27.7503 57.1327 27.7811 56.7864 27.7824 56.4233C27.7849 55.1687 27.4437 53.8397 26.8061 52.5787C26.1185 52.9751 25.2783 53.2111 24.37 53.2714ZM18.7884 57.2815C19.5607 57.6446 20.4151 57.9319 21.3182 58.1256H21.3195C21.9942 58.2693 22.6664 58.354 23.3194 58.3822C23.5169 57.2687 23.6542 55.8435 23.6542 54.1245C23.6542 53.8333 23.6516 53.5523 23.6427 53.2778C23.1962 53.2624 22.7434 53.2085 22.2893 53.1123C21.6915 52.984 21.1206 52.798 20.5972 52.5633C20.483 52.7775 20.3727 52.9956 20.2637 53.2188C19.5145 54.7556 19.0411 56.1398 18.7884 57.2815ZM15.3248 54.0552C15.5416 54.6581 15.9688 55.2649 16.5884 55.8371H16.5871C17.0284 56.245 17.5466 56.6157 18.1226 56.9403C18.4318 55.6485 18.9603 54.2258 19.6082 52.8994C19.7185 52.6749 19.8314 52.4517 19.9468 52.2323C19.5273 51.9924 19.1502 51.7166 18.8256 51.4126C18.4844 51.0931 18.2163 50.7558 18.0251 50.4094C17.3632 50.8853 16.7846 51.4395 16.3203 52.0553C15.8302 52.7031 15.498 53.3804 15.3248 54.0552ZM26.1108 51.4049C25.4758 50.4735 24.7151 49.6769 23.8851 49.0599C24.1212 50.0669 24.2713 51.2779 24.338 52.5376C25.1333 52.4812 25.8697 52.2798 26.4534 51.9424C26.3456 51.7615 26.2314 51.5819 26.1108 51.4049ZM20.9487 51.9231C21.4105 52.1271 21.9121 52.2887 22.4394 52.4016C22.8306 52.485 23.2232 52.5338 23.6106 52.5492C23.5298 51.0444 23.3374 49.8308 23.1077 48.9277C22.3739 49.6974 21.6286 50.7339 20.9487 51.9231ZM18.6371 50.0091C18.7923 50.3042 19.0206 50.5993 19.3234 50.8815V50.8828C19.603 51.1457 19.9314 51.3843 20.2958 51.596C20.9359 50.4735 21.6325 49.4781 22.3316 48.6955C21.848 48.7699 21.3618 48.8764 20.8833 49.0201C20.0777 49.2625 19.3208 49.5986 18.6371 50.0091ZM17.725 48.6712C17.7327 48.6327 17.7429 48.5955 17.7532 48.5583C16.5717 49.4934 15.6917 50.7917 15.2876 52.2862C15.421 52.0617 15.5685 51.8385 15.7353 51.6191C16.2792 50.8994 16.9617 50.2593 17.7468 49.7179C17.6595 49.3677 17.6518 49.015 17.725 48.6712ZM19.0989 47.8258C18.7461 48.1067 18.519 48.4441 18.4382 48.8225V48.8212C18.4061 48.9765 18.3984 49.1343 18.4138 49.2946C19.1104 48.8944 19.8699 48.5634 20.6742 48.3222C21.1065 48.1914 21.544 48.09 21.9827 48.0143C20.941 47.6333 19.9507 47.5718 19.0989 47.8258ZM25.0307 47.541C24.837 47.5859 24.6074 47.6975 24.3572 47.8604C24.964 47.8899 25.5515 47.9733 26.1031 48.1118C25.7593 47.8745 25.3976 47.6872 25.0307 47.541ZM24.0647 47.2395C23.7389 47.1625 23.4233 47.1125 23.1282 47.0792V47.0804C23.2386 47.2434 23.3412 47.4332 23.4361 47.6487C23.6504 47.4845 23.8607 47.3486 24.0647 47.2395ZM21.3592 47.0727C21.6812 47.1433 22.0071 47.2408 22.3367 47.3665V47.3678C22.4188 47.3986 22.4997 47.4332 22.5805 47.4679C22.4214 47.1792 22.2688 47.0304 22.1443 47.0278C21.8775 47.0278 21.6171 47.0445 21.3592 47.0727Z" fill="url(#paint0_radial_801_8864)"/>
<path d="M92.5115 51.8476C93.6712 51.8476 94.31 52.4082 94.31 53.428C94.31 54.3889 93.6802 54.9636 92.627 54.9636H91.8893V56.4337H90.9118V51.8476H92.5115ZM91.8893 54.1656H92.473C93.0388 54.1656 93.3261 53.9181 93.3261 53.428C93.3261 52.938 93.0118 52.6583 92.441 52.6583H91.8893V54.1669V54.1656ZM89.1146 54.5967C89.1146 55.2702 88.8567 55.5973 88.3244 55.5973C87.792 55.5973 87.5162 55.2599 87.5162 54.5967V51.8476H86.5399V54.5313C86.5361 55.1881 86.7003 55.6858 87.0261 56.0129C87.3289 56.317 87.7663 56.4709 88.3244 56.4709C89.13 56.4709 90.0908 56.1335 90.0908 54.5313V51.8463H89.1146V54.5954V54.5967ZM83.8755 51.8091C84.8671 51.8091 85.9242 52.4223 85.9242 54.1464C85.9242 55.8705 84.8658 56.4722 83.8755 56.4722C82.8851 56.4722 81.8204 55.8616 81.8204 54.1464C81.8204 52.4313 82.8826 51.8091 83.8755 51.8091ZM83.8755 55.6165C84.2642 55.6165 84.9159 55.4254 84.9159 54.1464C84.9159 52.8674 84.2642 52.6763 83.8755 52.6763C83.202 52.6763 82.83 53.1984 82.83 54.1464C82.83 55.0944 83.202 55.6165 83.8755 55.6165ZM80.8134 55.0418C80.975 55.3702 81.1136 55.6537 81.4368 55.6537H81.669V56.408L81.6357 56.417C81.6292 56.4196 81.4586 56.4632 81.161 56.4632C80.39 56.4632 80.1527 55.9321 79.9436 55.4639C79.773 55.0803 79.6242 54.7493 79.2214 54.7493H78.7916V56.4311H77.8154V51.8476H79.4407C80.6286 51.8476 81.1815 52.3107 81.1815 53.3061C81.1815 53.9219 80.8121 54.3016 80.4426 54.4633C80.6056 54.6211 80.7107 54.8353 80.8134 55.0431M78.7916 53.9925H79.3368C79.8795 53.9925 80.2156 53.7397 80.2156 53.3318C80.2156 52.9033 79.9218 52.6583 79.4074 52.6583H78.7916V53.9937V53.9925ZM75.2151 54.757H76.2234V54.8071C76.2234 55.1047 76.1182 55.6037 75.4139 55.6037C74.7507 55.6037 74.3556 55.0585 74.3556 54.1464C74.3556 53.2343 74.734 52.6763 75.396 52.6763C76.1823 52.6763 76.2093 53.4716 76.2106 53.505L76.2131 53.5563L77.1239 53.4139V53.3754C77.1239 53.0445 76.8289 51.8078 75.3831 51.8078C74.0888 51.8078 73.3473 52.6596 73.3473 54.1451C73.3473 55.6306 74.1131 56.4709 75.396 56.4709C76.6788 56.4709 77.1432 55.5703 77.1432 54.8006V54.004H75.2151V54.7557V54.757ZM72.2902 51.8476H71.1293L69.6117 53.9116V51.8476H68.6213V56.4337H69.6117V54.3247L71.1678 56.4337H72.3428L70.5674 54.122L72.2902 51.8489V51.8476ZM66.7664 54.6801L65.1628 51.8476H64.1725V56.4337H65.15V53.6987L66.7471 56.4337H67.7439V51.8476H66.7676V54.6801H66.7664ZM62.238 51.8771L63.9108 56.4324H62.8948L62.5035 55.3087H60.9756L60.5972 56.4324H59.5748L61.2592 51.8463H62.2277L62.2392 51.8758L62.238 51.8771ZM61.7389 53.097L61.2438 54.5441H62.2457L61.7389 53.097ZM58.6665 54.0156C59.018 54.1169 59.4799 54.4402 59.4799 55.1291C59.4799 55.9578 58.8923 56.4337 57.8673 56.4337H55.9328V51.8476H57.68C58.673 51.8476 59.1771 52.2632 59.1771 53.0804C59.1771 53.7141 58.8885 53.9373 58.6653 54.0156M57.5774 53.7218C57.9841 53.7218 58.1739 53.5512 58.1739 53.183C58.1739 52.8341 57.9328 52.657 57.4556 52.657H56.9103V53.7218H57.5774ZM56.9103 55.6217H57.6736C58.1727 55.6217 58.4049 55.4344 58.4049 55.0316C58.4049 54.539 57.9969 54.435 57.6544 54.435H56.9103V55.6217ZM51.9086 51.8463C53.3364 51.8463 54.1882 52.7327 54.1882 54.2157C54.1882 55.6986 53.4275 56.4311 52.101 56.4311H50.5475V51.8476H51.9099L51.9086 51.8463ZM51.5237 55.6217H52.0946C52.7976 55.6217 53.2184 55.0919 53.2184 54.2028C53.2184 53.1766 52.7732 52.6558 51.8958 52.6558H51.5237V55.6217ZM48.1088 51.8463H47.1313V56.4324H50.0934V55.6217H48.1088V51.8463ZM45.8151 55.0418C45.9768 55.3702 46.1166 55.6537 46.4399 55.6537H46.6708V56.408L46.6374 56.417C46.6297 56.4196 46.4604 56.4632 46.1628 56.4632C45.3918 56.4632 45.1545 55.9321 44.9454 55.4639C44.7735 55.0803 44.6259 54.7493 44.2231 54.7493H43.7934V56.4311H42.8159V51.8476H44.4412C45.6278 51.8476 46.182 52.3107 46.182 53.3061C46.182 53.9219 45.8126 54.3016 45.4444 54.4633C45.6073 54.6211 45.7125 54.8353 45.8151 55.0431M43.7947 53.9925H44.3399C44.8825 53.9925 45.2186 53.7397 45.2186 53.3318C45.2186 52.9033 44.9236 52.6583 44.4104 52.6583H43.7947V53.9937V53.9925ZM40.2117 51.8091C41.2021 51.8091 42.2604 52.4223 42.2604 54.1464C42.2604 55.8705 41.2021 56.4722 40.2117 56.4722C39.2214 56.4722 38.1566 55.8616 38.1566 54.1464C38.1566 52.4313 39.2188 51.8091 40.2117 51.8091ZM40.2117 55.6165C40.6004 55.6165 41.2521 55.4254 41.2521 54.1464C41.2521 52.8674 40.6004 52.6763 40.2117 52.6763C39.5382 52.6763 39.1649 53.1984 39.1649 54.1464C39.1649 55.0944 39.537 55.6165 40.2117 55.6165ZM36.9148 51.8476H38.0194L36.7019 56.4337H35.5987L34.7982 53.5576L33.9849 56.4337H32.8816L31.5654 51.8476H32.702L33.473 55.1945L34.3966 51.8476H35.2177L36.1118 55.1945L36.9136 51.8476H36.9148Z" fill="#223353"/>
</g>
<defs>
<radialGradient id="paint0_radial_801_8864" cx="0" cy="0" r="1" gradientUnits="userSpaceOnUse" gradientTransform="translate(29.31 49.2551) scale(12.9746)">
<stop stop-color="white"/>
<stop offset="0.17" stop-color="#B3E0F3"/>
<stop offset="0.43" stop-color="#4AB6E2"/>
<stop offset="0.54" stop-color="#21A6DC"/>
<stop offset="0.71" stop-color="#2177A4"/>
<stop offset="0.91" stop-color="#214669"/>
<stop offset="1" stop-color="#223353"/>
</radialGradient>
<clipPath id="clip0_801_8864">
<rect width="80" height="15.6865" fill="white" transform="translate(14.3101 46.2968)"/>
</clipPath>
</defs>
</svg>
