<svg width="80" height="54" viewBox="0 0 80 54" fill="none" xmlns="http://www.w3.org/2000/svg">
<g clip-path="url(#clip0_801_8821)">
<ellipse cx="40" cy="26.84" rx="40" ry="26.84" fill="#FCDB00"/>
<path fill-rule="evenodd" clip-rule="evenodd" d="M71.1822 39.36C74.4943 35.694 76.4002 31.3959 76.4002 26.8C76.4002 22.2042 74.4943 17.9061 71.1822 14.24H8.89811C5.5861 17.9061 3.68018 22.2042 3.68018 26.8C3.68018 31.3959 5.5861 35.694 8.89811 39.36H71.1822Z" fill="black"/>
<path fill-rule="evenodd" clip-rule="evenodd" d="M71.1821 14.24H8.89795C15.2654 7.19193 26.83 2.48004 40.04 2.48004C53.25 2.48004 64.8146 7.19193 71.1821 14.24Z" fill="#007CC2"/>
<path fill-rule="evenodd" clip-rule="evenodd" d="M71.1821 39.36C64.8146 46.4082 53.25 51.12 40.04 51.12C26.83 51.12 15.2654 46.4082 8.89795 39.36H71.1821Z" fill="#DA251C"/>
<path fill-rule="evenodd" clip-rule="evenodd" d="M57.6896 21.1359C56.2431 22.4797 55.5198 24.3578 55.5198 26.7701C55.5198 28.497 55.885 29.935 56.6156 31.084C57.3461 32.233 58.2972 33.0729 59.4689 33.6038C60.6479 34.1346 62.1342 34.4 63.9279 34.4C65.6928 34.4 67.1646 34.0943 68.3436 33.4828C69.5298 32.8646 70.4339 32.0045 71.0559 30.9026C71.6852 29.7938 71.9998 28.3761 71.9998 26.6492C71.9998 24.2705 71.2837 22.4226 69.8516 21.1056C68.4195 19.7819 66.3799 19.12 63.7327 19.12C61.1505 19.12 59.1362 19.792 57.6896 21.1359ZM61.3241 30.0055C60.731 29.3537 60.4345 28.282 60.4345 26.7903C60.4345 25.2851 60.7347 24.2066 61.335 23.5549C61.9353 22.9031 62.7309 22.5772 63.7218 22.5772C64.7561 22.5772 65.5734 22.8997 66.1737 23.5448C66.7813 24.1831 67.0851 25.1978 67.0851 26.5887C67.0851 28.2417 66.7958 29.3873 66.2171 30.0257C65.6385 30.664 64.8212 30.9832 63.7652 30.9832C62.7381 30.9832 61.9245 30.6573 61.3241 30.0055ZM54.6398 19.6403H39.6161V23.2049H44.5998V34.08H49.5998V23.2049H54.6398V19.6403ZM13.7998 31.7233L13.0049 34.0798H7.97119L13.9198 19.68H19.3998L25.3998 34.0798H20.1598L19.3998 31.7233H13.7998ZM18.3598 28.56L16.5998 23.4L14.8798 28.56H18.3598ZM26.8791 19.68H31.7998V30.4455H39.5598V34.08H26.8791V19.68Z" fill="white"/>
</g>
<defs>
<clipPath id="clip0_801_8821">
<rect width="80" height="53.68" fill="white"/>
</clipPath>
</defs>
</svg>
