<svg width="80" height="48" viewBox="0 0 80 48" fill="none" xmlns="http://www.w3.org/2000/svg">
<g clip-path="url(#clip0_801_8801)">
<g clip-path="url(#clip1_801_8801)">
<path d="M0 43.4226C0 30.3275 0 17.2324 0 4.13729C0.0107787 4.08235 0.0257298 4.02811 0.0319885 3.97283C0.240609 2.20268 1.53093 0.683927 3.26491 0.179414C3.52777 0.102919 3.80002 0.0591091 4.06775 0C28.0226 0 51.9774 0 75.9323 0C75.9503 0.0285115 75.9806 0.026773 76.0084 0.0309454C77.8022 0.296589 79.0323 1.28058 79.7218 2.94989C79.8696 3.30802 79.9294 3.68945 80 4.0674V43.4921C79.9711 43.5099 79.9729 43.5405 79.9684 43.5683C79.6554 45.4518 78.5908 46.6979 76.7886 47.3196C76.4653 47.4312 76.1252 47.458 75.7935 47.5251H4.10252C4.02742 47.4601 3.93041 47.4803 3.84418 47.4639C1.97459 47.1075 0.75312 46.022 0.16933 44.2129C0.085882 43.9546 0.0660631 43.6837 0 43.4226ZM54.9169 11.3493C54.8494 11.4095 54.7938 11.4585 54.7389 11.5085C52.5056 13.5447 50.2723 15.5805 48.039 17.6166C45.853 19.6096 43.667 21.603 41.481 23.5964C40.8009 24.2167 40.1215 24.838 39.4404 25.4569C39.1014 25.7646 38.6 25.6614 38.4324 25.2518C38.383 25.1311 38.383 25.0035 38.383 24.8755C38.3834 20.1593 38.3827 15.4428 38.3872 10.7266C38.3872 10.5649 38.343 10.5305 38.1876 10.5305C35.0298 10.535 31.8716 10.5353 28.7138 10.5305C28.5514 10.5305 28.5226 10.5625 28.5657 10.7193C28.9509 12.1191 30.2326 13.1 31.6873 13.1C32.9912 13.1 34.2948 13.0993 35.5986 13.1007C35.883 13.1007 35.8392 13.0694 35.8392 13.3371C35.8403 17.2366 35.8379 21.136 35.841 25.0351C35.8427 27.298 38.0451 28.8685 40.1744 28.1172C41.0906 27.7938 41.8437 27.2211 42.5353 26.5414C43.8562 25.242 45.2056 23.9715 46.5435 22.6896C48.1364 21.1631 49.7299 19.6371 51.323 18.111C51.6137 17.8329 51.9044 17.5547 52.2031 17.2693C52.2438 17.353 52.2267 17.4226 52.2271 17.4886C52.2281 19.8527 52.2271 22.2167 52.2285 24.5807C52.2295 25.9284 53.0758 27.1603 54.3338 27.604C55.6338 28.0626 56.8025 27.8032 57.799 26.8581C59.4964 25.2483 61.179 23.6228 62.8674 22.0035C64.3636 20.5686 65.859 19.1326 67.3555 17.698C67.3861 17.6688 67.4115 17.6222 67.4793 17.6322V17.8193C67.4793 20.0675 67.4776 22.3154 67.48 24.5637C67.4814 26.0692 68.4828 27.3519 69.9271 27.7204C70.0756 27.7583 70.0999 27.7253 70.0999 27.5838C70.0968 22.2939 70.0975 17.004 70.0961 11.714C70.0961 11.6723 70.1177 11.6229 70.0648 11.5795C69.6131 12.003 69.1622 12.4254 68.7119 12.8486C66.7126 14.7283 64.7137 16.609 62.7141 18.4883C61.0559 20.0463 59.3966 21.6033 57.7381 23.161C57.1557 23.708 56.5747 24.2563 55.9909 24.8018C55.8046 24.9757 55.5824 25.0164 55.3459 24.9287C55.106 24.8397 54.9822 24.6527 54.9555 24.4016C54.9482 24.3328 54.9499 24.2629 54.9499 24.1934C54.9499 19.9869 54.9499 15.7804 54.9489 11.5739C54.9489 11.5068 54.9659 11.4366 54.9179 11.3486L54.9169 11.3493ZM39.6462 23.5633C39.7046 23.5665 39.7279 23.5188 39.7592 23.4903C40.6629 22.6683 41.5648 21.8446 42.4675 21.0216C46.6725 17.1872 50.8783 13.3538 55.082 9.51761C55.2966 9.32186 55.5236 9.21685 55.8056 9.34063C56.0893 9.46511 56.1867 9.69598 56.1867 9.99848C56.1832 14.2223 56.1842 18.4462 56.1842 22.6701V22.9003C56.2468 22.8523 56.284 22.8279 56.3157 22.798C56.6157 22.5174 56.9151 22.2355 57.2145 21.9542C59.5472 19.7616 61.8806 17.5693 64.2123 15.3757C66.2363 13.4713 68.2585 11.5652 70.2814 9.65947C70.3676 9.57811 70.465 9.519 70.5804 9.49223C70.9918 9.39765 71.337 9.70467 71.337 10.1654C71.337 15.3625 71.337 20.5595 71.337 25.7566C71.337 26.3766 71.3405 26.9965 71.3343 27.6165C71.3329 27.742 71.3735 27.7587 71.4838 27.7357C72.8784 27.443 73.983 26.0894 73.9837 24.6544C73.9862 19.7529 73.9848 14.8513 73.9844 9.9498C73.9844 9.6939 73.9538 9.44146 73.8923 9.19355C73.2873 6.752 70.2852 5.87962 68.4689 7.61743C67.6824 8.36985 66.8979 9.12436 66.1121 9.87748C63.8841 12.0131 61.6557 14.1486 59.4272 16.2839C59.2085 16.4935 58.9881 16.7015 58.7378 16.9386V16.7091C58.7378 14.4668 58.7398 12.2248 58.7367 9.98249C58.7346 8.60664 57.9224 7.42411 56.6512 6.92098C56.138 6.71793 55.605 6.69602 55.0629 6.70854C54.2604 6.72731 53.5532 6.9933 52.96 7.52911C52.4576 7.98321 51.9781 8.46269 51.4892 8.93174C50.2024 10.1664 48.9163 11.4021 47.6291 12.6365C46.0408 14.1591 44.4514 15.681 42.8624 17.2028C42.6987 17.36 42.5332 17.5154 42.3458 17.6934C42.3458 16.1709 42.3465 14.6879 42.344 13.205C42.344 13.1181 42.3757 13.0979 42.4553 13.0993C42.6869 13.1034 42.9188 13.0958 43.1507 13.1017C44.0874 13.1254 44.8788 12.7783 45.5589 12.1556C46.0926 11.6667 46.6183 11.1695 47.1454 10.6737C47.1833 10.6379 47.2473 10.616 47.248 10.5399C47.2167 10.5381 47.1889 10.5353 47.1607 10.5353C44.6983 10.5353 42.2355 10.5371 39.7731 10.5308C39.5955 10.5305 39.6288 10.6275 39.6288 10.7262C39.6288 14.9442 39.6288 19.1621 39.6295 23.3801C39.6295 23.4406 39.6128 23.5046 39.6455 23.5644L39.6462 23.5633ZM6.54755 26.3196C6.57502 26.2987 6.59484 26.2865 6.61118 26.2712C7.84273 25.113 9.07394 23.9548 10.3055 22.7966C12.14 21.071 13.9741 19.3454 15.8082 17.6197C17.7818 15.7634 19.755 13.9066 21.7285 12.0503C22.5087 11.3163 23.2883 10.5819 24.0696 9.84932C24.3731 9.5649 24.8057 9.6021 25.039 9.92512C25.144 10.0705 25.1565 10.2335 25.1565 10.4039C25.1558 16.1107 25.1558 21.8175 25.1561 27.5247C25.1561 27.7319 25.1568 27.7319 25.3529 27.6808C26.7702 27.3102 27.7726 26.0167 27.7729 24.5532C27.7736 19.7038 27.7736 14.8545 27.7715 10.0051C27.7715 9.81455 27.7642 9.62088 27.7305 9.43416C27.4996 8.15219 26.7802 7.25547 25.5431 6.84379C24.3342 6.4415 23.2247 6.70054 22.2897 7.56458C21.2949 8.4839 20.329 9.43416 19.3509 10.3719C18.0717 11.5983 16.7939 12.8256 15.5147 14.0516C14.0054 15.4981 12.4953 16.9431 10.9856 18.3892C9.76482 19.5585 8.55587 20.741 7.3191 21.8933C6.62057 22.5442 6.11258 23.2758 6.02982 24.2525C5.96654 24.9993 6.14561 25.6836 6.54825 26.3202L6.54755 26.3196ZM21.2775 17.5279V17.7685C21.2775 20.0338 21.2775 22.2991 21.2775 24.564C21.2775 26.0351 22.3088 27.3439 23.7379 27.6954C23.87 27.7277 23.8926 27.693 23.8926 27.5688C23.8902 22.3492 23.8905 17.1291 23.8891 11.9094C23.8891 11.8691 23.9152 11.8159 23.8509 11.785C23.5703 12.0503 23.289 12.3169 23.0067 12.5826C20.337 15.0926 17.6667 17.602 14.9974 20.1124C12.5176 22.4444 10.0395 24.7782 7.55832 27.1088C7.46339 27.1978 7.44636 27.2385 7.57327 27.3161C8.82534 28.0793 10.464 27.8946 11.5193 26.8759C12.7067 25.7299 13.9004 24.5908 15.0919 23.4489C16.8937 21.7226 18.6959 19.997 20.4976 18.2713C20.7466 18.0328 20.9966 17.7953 21.2775 17.5276V17.5279ZM14.8649 34.7141C15.0739 34.6668 15.2418 34.6296 15.4094 34.5907C16.8193 34.2649 17.8054 33.3355 17.8471 31.84C17.8697 31.0385 17.6215 30.3463 17.0043 29.8146C16.3162 29.2222 15.481 29.001 14.6038 28.929C13.5579 28.8435 12.5075 28.871 11.4606 28.903C10.1223 28.9436 9.09411 29.7162 8.67409 30.9586C8.53362 31.3737 8.43869 31.8045 8.32465 32.2287C7.56909 35.0416 6.81493 37.8549 6.0566 40.6674C6.02044 40.802 6.05034 40.8336 6.18733 40.8333C8.22069 40.826 10.254 40.8343 12.287 40.8155C13.2206 40.8068 14.1281 40.624 14.9758 40.2161C15.8624 39.7895 16.5415 39.156 16.8085 38.1789C17.1434 36.9526 16.8649 35.8518 15.7547 35.1658C15.4842 34.9985 15.1883 34.8817 14.8652 34.7137L14.8649 34.7141ZM53.6008 32.7179C53.5883 32.712 53.5761 32.7061 53.5636 32.6999C53.6342 32.4328 53.7044 32.1654 53.7757 31.8984C53.7955 31.8243 53.8115 31.7715 53.6933 31.7729C53.1895 31.7795 52.685 31.7673 52.1815 31.7785C51.7511 31.7882 51.4235 32.0382 51.3237 32.4127C50.5897 35.1637 49.8582 37.9154 49.1214 40.6657C49.087 40.7943 49.0925 40.8354 49.241 40.834C49.9072 40.8267 50.5734 40.8274 51.2396 40.834C51.3641 40.835 51.4027 40.7922 51.4336 40.6758C51.7608 39.4411 52.0911 38.2071 52.4301 36.9755C52.6064 36.3354 52.7291 35.6786 52.991 35.0642C53.3853 34.1383 54.1116 33.6453 55.0285 33.6692C55.9207 33.6929 56.4057 34.2141 56.3623 35.1025C56.3491 35.3695 56.3035 35.631 56.2343 35.889C55.8101 37.4745 55.388 39.0607 54.9579 40.6448C54.9137 40.8072 54.9489 40.8364 55.1078 40.8343C55.7621 40.826 56.4169 40.8281 57.0716 40.8336C57.1835 40.8347 57.2322 40.8023 57.2614 40.6928C57.607 39.3914 57.9526 38.0899 58.308 36.7909C58.4665 36.212 58.574 35.6164 58.8212 35.0649C59.2113 34.1953 59.8372 33.6571 60.8396 33.6696C61.7183 33.6807 62.2043 34.1748 62.1932 35.0507C62.1894 35.3587 62.1292 35.6602 62.0493 35.9571C61.6282 37.5252 61.2064 39.0937 60.7808 40.6605C60.745 40.7926 60.7579 40.8361 60.9102 40.8343C61.559 40.8263 62.2078 40.8256 62.8566 40.835C63.0075 40.8371 63.0632 40.7877 63.1004 40.6462C63.5336 39.0033 63.9773 37.3632 64.4098 35.72C64.5899 35.0361 64.7328 34.3487 64.6368 33.6296C64.4932 32.5549 63.7266 31.7725 62.6556 31.6342C61.4926 31.4839 60.4728 31.8094 59.5719 32.5451C59.2475 32.8101 58.9766 33.1258 58.7113 33.4478C58.6488 33.3966 58.6439 33.3288 58.6237 33.2711C58.243 32.186 57.477 31.6303 56.3289 31.5956C55.3581 31.566 54.4996 31.8247 53.8063 32.535C53.7427 32.6004 53.6704 32.6571 53.6019 32.7176L53.6008 32.7179ZM38.5725 9.25301C41.8406 9.25301 45.1086 9.25301 48.3766 9.25301C48.4173 9.25301 48.458 9.25023 48.4983 9.25371C48.5675 9.25962 48.6155 9.23736 48.6586 9.17756C48.8259 8.94599 48.9649 8.69982 49.047 8.42583C49.2525 7.73704 49.0157 7.1004 48.4399 6.79859C48.1739 6.65916 47.885 6.60145 47.5853 6.6004C47.168 6.59901 46.7508 6.6004 46.3335 6.6004C41.4779 6.6004 36.6223 6.59971 31.7666 6.60075C30.2068 6.6011 28.9071 7.59622 28.548 9.05934C28.5162 9.18822 28.5666 9.25278 28.6992 9.25301C31.9905 9.25301 35.2815 9.25301 38.5729 9.25301H38.5725ZM23.3064 36.9265C24.1057 36.9265 24.9051 36.9282 25.7045 36.9258C26.1544 36.9244 26.3734 36.7544 26.4979 36.3264C26.6843 35.6856 26.7629 35.0354 26.6669 34.3706C26.516 33.324 26.024 32.4926 25.0894 31.9683C24.0904 31.4078 23.0122 31.3515 21.9215 31.5928C19.1155 32.2131 17.2585 34.9457 17.7035 37.7947C17.8885 38.9797 18.4904 39.8938 19.5832 40.4459C20.2257 40.7707 20.9166 40.8966 21.6287 40.915C22.8401 40.9466 23.9687 40.6737 24.976 39.9741C25.1732 39.8371 25.1801 39.81 25.041 39.6194C24.8157 39.311 24.5883 39.004 24.3589 38.6987C24.1742 38.4533 24.1447 38.448 23.879 38.6104C23.1482 39.0576 22.3599 39.2092 21.5147 39.0767C20.6353 38.939 20.0397 38.4084 19.8433 37.5378C19.6166 36.5343 19.8207 35.5903 20.3502 34.7259C20.9493 33.7485 21.8234 33.2339 22.9927 33.2697C23.757 33.293 24.33 33.7113 24.4945 34.3768C24.5637 34.6564 24.5564 34.9377 24.5115 35.2214C24.4924 35.3427 24.4447 35.3792 24.321 35.3785C23.3999 35.373 22.4788 35.3799 21.5578 35.3723C21.3457 35.3705 21.2045 35.4543 21.1033 35.6289C21.039 35.7395 20.9889 35.8556 20.957 35.9797C20.8888 36.2426 20.8283 36.5079 20.7476 36.7669C20.7045 36.9056 20.7372 36.9303 20.8732 36.9293C21.684 36.9237 22.4952 36.9265 23.306 36.9265H23.3064ZM70.1076 39.8538C70.0255 40.1591 69.9619 40.4289 69.8781 40.6921C69.8367 40.8218 69.8781 40.8336 69.99 40.8329C70.6274 40.8291 71.2644 40.827 71.9017 40.8343C72.0314 40.8357 72.0773 40.7915 72.1089 40.6716C72.4507 39.375 72.805 38.0819 73.142 36.784C73.3304 36.0583 73.5818 35.3452 73.6148 34.5854C73.6489 33.8031 73.4907 33.0855 72.8947 32.5264C72.4775 32.1352 71.9636 31.9314 71.4135 31.8097C70.6128 31.6328 69.8037 31.6394 68.9942 31.7173C68.5047 31.7645 68.0158 31.833 67.5478 31.9923C67.0064 32.1762 66.763 32.5928 66.8632 33.1387C66.9091 33.389 66.9703 33.6366 67.0116 33.8876C67.0315 34.0076 67.069 34.0194 67.1792 33.9801C67.7762 33.7676 68.3927 33.6386 69.0252 33.5966C69.5474 33.5618 70.0679 33.5698 70.5686 33.7506C71.0262 33.9158 71.3148 34.2238 71.3669 34.7231C71.3878 34.9213 71.3666 35.1181 71.3196 35.309C71.1461 36.0162 70.9667 36.7217 70.7873 37.4275C70.6646 37.9112 70.4247 38.3295 70.0488 38.6584C69.3704 39.2519 68.5846 39.5047 67.6997 39.2756C66.8524 39.0562 66.5127 38.0875 67.174 37.4286C67.3016 37.3013 67.4365 37.1838 67.5871 37.0854C68.2429 36.6574 68.9619 36.4057 69.7401 36.3253C69.8451 36.3146 69.9062 36.2784 69.949 36.1814C70.0756 35.8963 70.2147 35.6167 70.3405 35.3313C70.4508 35.0816 70.4375 35.0573 70.1688 35.0364C68.8788 34.9356 67.6601 35.188 66.5162 35.7927C65.9101 36.1129 65.3743 36.5194 64.9762 37.0875C64.4018 37.907 64.3646 38.907 64.9063 39.6327C65.4779 40.3983 66.2606 40.8173 67.2119 40.8204C68.2564 40.8239 69.2387 40.5662 70.1076 39.8528V39.8538ZM46.2925 39.8552C46.2101 40.1587 46.1454 40.4219 46.0658 40.6806C46.0283 40.8023 46.046 40.8357 46.1802 40.8343C46.8116 40.8274 47.4431 40.8274 48.0745 40.8343C48.207 40.8357 48.2605 40.8016 48.2956 40.6671C48.6454 39.3316 49.0098 37.9999 49.3585 36.6643C49.5348 35.9891 49.7629 35.324 49.798 34.6174C49.8342 33.8949 49.7146 33.2172 49.2118 32.6609C48.7793 32.1825 48.2122 31.9443 47.5953 31.8104C46.6896 31.6136 45.7776 31.6397 44.8659 31.7555C44.4817 31.8042 44.0971 31.8643 43.73 31.993C43.2001 32.1787 42.9574 32.5736 43.0443 33.1077C43.0878 33.3758 43.1583 33.6393 43.2039 33.9074C43.2223 34.0166 43.2609 34.0187 43.3503 33.9867C43.9528 33.7715 44.5742 33.6414 45.2126 33.5973C45.7178 33.5625 46.2209 33.5712 46.707 33.7339C47.1854 33.8939 47.4963 34.2033 47.5505 34.7276C47.5707 34.9203 47.5508 35.1115 47.506 35.2965C47.3332 36.01 47.1625 36.7241 46.9695 37.4324C46.7045 38.4039 46.0602 39.011 45.0968 39.269C44.571 39.4098 44.0408 39.4247 43.5488 39.1302C42.9657 38.7815 42.8419 38.0569 43.2699 37.5315C43.4139 37.3545 43.585 37.2085 43.7748 37.0844C44.4254 36.6591 45.1402 36.4126 45.9107 36.3253C45.9987 36.3153 46.0752 36.3111 46.1201 36.2099C46.256 35.9039 46.4076 35.6045 46.5429 35.2979C46.6329 35.0941 46.6103 35.0597 46.3847 35.0402C45.2491 34.9422 44.1601 35.1279 43.1184 35.5896C42.3944 35.9105 41.7435 36.3319 41.2512 36.9648C40.56 37.8535 40.5186 38.9387 41.1667 39.7338C41.739 40.4359 42.4963 40.8228 43.401 40.8218C44.4455 40.8208 45.4267 40.5645 46.2925 39.8541V39.8552ZM36.2878 40.9136C36.3486 40.9101 36.4293 40.9042 36.5103 40.9011C37.1901 40.8719 37.8427 40.7314 38.4352 40.3872C39.5019 39.7672 39.9957 38.8229 39.9414 37.6004C39.9112 36.9143 39.512 36.4338 38.9755 36.0524C38.5252 35.7325 38.0256 35.5037 37.5245 35.2784C37.1661 35.1174 36.802 34.9658 36.486 34.7259C35.9561 34.3233 36.0187 33.6164 36.6094 33.3059C36.7019 33.2572 36.7989 33.2225 36.9008 33.1978C37.1991 33.1251 37.4988 33.1397 37.7978 33.1828C38.4911 33.283 39.092 33.5962 39.6511 34.0013C39.7199 34.0514 39.7669 34.0962 39.8458 33.9996C40.1212 33.664 40.4087 33.3386 40.6883 33.0065C40.8204 32.8494 40.8221 32.6978 40.7015 32.5319C40.6007 32.3935 40.465 32.2927 40.3173 32.212C39.0569 31.5239 37.7252 31.2572 36.3159 31.6133C35.2068 31.8935 34.3779 32.5382 34.059 33.6755C33.6831 35.0162 34.0573 35.8316 35.1379 36.4863C35.5586 36.7415 36.0068 36.9425 36.4571 37.1383C36.7961 37.2857 37.141 37.4237 37.4338 37.657C37.8159 37.9616 37.8611 38.446 37.5461 38.8208C37.407 38.9863 37.2255 39.0861 37.0214 39.1428C36.551 39.2731 36.0798 39.2252 35.6122 39.1261C34.8758 38.9703 34.2419 38.6142 33.6821 38.1184C33.6247 38.0677 33.5847 38.0131 33.503 38.1007C33.1988 38.4265 32.8848 38.7432 32.5788 39.0673C32.4804 39.1713 32.4551 39.2985 32.5058 39.438C32.5698 39.6139 32.6894 39.7436 32.8403 39.8475C33.8719 40.5593 35.0239 40.8833 36.2874 40.9139L36.2878 40.9136ZM30.2965 32.5368C30.3727 32.2322 30.4294 31.9697 30.5062 31.7134C30.5465 31.5785 30.5062 31.5584 30.3835 31.5597C29.9259 31.565 29.4683 31.5611 29.0107 31.5622C28.6989 31.5629 28.5222 31.7065 28.4395 32.0114C28.1026 33.2485 27.7941 34.493 27.4447 35.7269C26.9802 37.3663 26.5612 39.0183 26.1196 40.6643C26.0873 40.7853 26.0915 40.8361 26.2417 40.8343C26.8672 40.8263 27.4927 40.827 28.1182 40.8343C28.2406 40.8357 28.2722 40.7846 28.2966 40.6817C28.4113 40.1921 28.5274 39.7029 28.6526 39.2158C28.9718 37.9738 29.2927 36.7328 29.7232 35.5221C29.9412 34.9088 30.363 34.5208 30.9436 34.2756C31.5747 34.009 32.2371 33.8883 32.9175 33.8473C33.219 33.8288 33.3337 33.7263 33.4067 33.4335C33.519 32.9853 33.6306 32.5371 33.743 32.0889C33.8181 31.7889 33.7002 31.6199 33.3911 31.6234C32.292 31.6352 31.2124 31.7242 30.2969 32.5368H30.2965Z" fill="#0073C0"/>
<path d="M54.917 11.3492C54.965 11.4372 54.948 11.5074 54.948 11.5746C54.949 15.781 54.9487 19.9875 54.949 24.194C54.949 24.2635 54.9473 24.3334 54.9546 24.4023C54.9817 24.6537 55.1051 24.8404 55.345 24.9294C55.5811 25.017 55.8037 24.9763 55.99 24.8025C56.5738 24.2569 57.1548 23.7086 57.7372 23.1617C59.3958 21.604 61.055 20.047 62.7132 18.4889C64.7128 16.6096 66.7117 14.7292 68.711 12.8492C69.1613 12.4261 69.6126 12.0036 70.0639 11.5801C70.1168 11.6236 70.0952 11.6729 70.0952 11.7147C70.0962 17.0046 70.0959 22.2945 70.099 27.5844C70.099 27.7259 70.0747 27.759 69.9262 27.7211C68.4819 27.3525 67.4805 26.0698 67.4791 24.5643C67.4767 22.3161 67.4784 20.0682 67.4784 17.8199V17.6329C67.4102 17.6228 67.3852 17.6694 67.3546 17.6986C65.8581 19.1332 64.3627 20.5689 62.8665 22.0042C61.1781 23.6234 59.4955 25.2489 57.7981 26.8588C56.8019 27.8035 55.6333 28.0629 54.3329 27.6046C53.0749 27.1609 52.2286 25.929 52.2276 24.5813C52.2258 22.2173 52.2276 19.8533 52.2262 17.4893C52.2262 17.4229 52.2429 17.3533 52.2022 17.2699C51.9038 17.5553 51.6128 17.8335 51.3221 18.1117C49.729 19.6377 48.1355 21.1638 46.5427 22.6902C45.2047 23.9722 43.8553 25.243 42.5344 26.542C41.8431 27.2221 41.0897 27.7948 40.1735 28.1178C38.0442 28.8688 35.8418 27.2986 35.8401 25.0358C35.8369 21.1363 35.8394 17.2369 35.8383 13.3377C35.8383 13.07 35.8818 13.1013 35.5977 13.1013C34.2939 13.0999 32.9903 13.1006 31.6864 13.1006C30.2317 13.1006 28.9504 12.1197 28.5648 10.7199C28.5217 10.5631 28.5509 10.5308 28.7129 10.5311C31.8707 10.536 35.0289 10.536 38.1867 10.5311C38.3418 10.5311 38.3863 10.5655 38.3863 10.7272C38.3814 15.4434 38.3825 20.16 38.3821 24.8762C38.3821 25.0041 38.3821 25.1314 38.4315 25.2524C38.5991 25.662 39.1005 25.7653 39.4395 25.4575C40.121 24.8386 40.8 24.2173 41.4801 23.597C43.6661 21.6036 45.8521 19.6106 48.0381 17.6172C50.2714 15.5811 52.5047 13.545 54.738 11.5092C54.7929 11.4591 54.8485 11.4101 54.916 11.3499L54.917 11.3492Z" fill="#FDFEFE"/>
<path d="M39.6465 23.5629C39.6141 23.5035 39.6308 23.4395 39.6305 23.3787C39.6294 19.1607 39.6294 14.9428 39.6298 10.7248C39.6298 10.626 39.5964 10.5287 39.7741 10.5294C42.2365 10.536 44.6989 10.5339 47.1617 10.5339C47.1895 10.5339 47.2173 10.5367 47.2489 10.5384C47.2482 10.6146 47.1846 10.6365 47.1464 10.6723C46.6192 11.1681 46.0935 11.6653 45.5598 12.1542C44.8797 12.7773 44.0883 13.1243 43.1516 13.1003C42.9201 13.0944 42.6881 13.102 42.4562 13.0979C42.3766 13.0965 42.3446 13.1166 42.345 13.2036C42.3474 14.6865 42.3467 16.1694 42.3467 17.692C42.5341 17.514 42.6993 17.3586 42.8634 17.2014C44.4524 15.6795 46.0417 14.1576 47.63 12.6351C48.9175 11.4007 50.2033 10.165 51.4902 8.93031C51.9791 8.46126 52.4585 7.98179 52.961 7.52769C53.5541 6.99153 54.2614 6.72554 55.0639 6.70712C55.6056 6.6946 56.1389 6.7165 56.6521 6.91956C57.9233 7.42268 58.7356 8.60521 58.7377 9.98106C58.7408 12.2234 58.7387 14.4654 58.7387 16.7077V16.9372C58.9887 16.6997 59.2091 16.4918 59.4282 16.2824C61.6566 14.1472 63.885 12.0116 66.1131 9.87606C66.8989 9.12294 67.6833 8.36843 68.4698 7.616C70.2862 5.8782 73.2882 6.75093 73.8932 9.19213C73.9548 9.44039 73.9854 9.69282 73.9854 9.94838C73.9854 14.8499 73.9868 19.7515 73.9847 24.653C73.984 26.0883 72.8793 27.4415 71.4847 27.7343C71.3748 27.7573 71.3341 27.7406 71.3352 27.615C71.3414 26.9951 71.338 26.3751 71.338 25.7552C71.338 20.5581 71.338 15.361 71.338 10.164C71.338 9.70325 70.9927 9.39658 70.5814 9.49081C70.4659 9.51723 70.3686 9.57669 70.2824 9.65805C68.2598 11.5638 66.2376 13.4699 64.2132 15.3742C61.8816 17.5679 59.5481 19.7601 57.2154 21.9527C56.9161 22.2344 56.6167 22.516 56.3166 22.7966C56.2846 22.8265 56.2474 22.8505 56.1852 22.8988V22.6687C56.1852 18.4448 56.1841 14.2209 56.1876 9.99706C56.1876 9.69456 56.0903 9.46334 55.8065 9.33921C55.5246 9.21543 55.2972 9.32078 55.083 9.51619C50.8793 13.3524 46.6738 17.1861 42.4684 21.0202C41.5658 21.8432 40.6638 22.6669 39.7602 23.4889C39.7289 23.5174 39.7052 23.5647 39.6472 23.5619L39.6465 23.5629Z" fill="#FDFEFE"/>
<path d="M6.54746 26.3192C6.14482 25.6825 5.96576 24.9983 6.02904 24.2514C6.11179 23.2747 6.61978 22.5431 7.31831 21.8922C8.55508 20.74 9.76404 19.5578 10.9848 18.3881C12.4945 16.942 14.0046 15.497 15.514 14.0506C16.7932 12.8246 18.0713 11.5972 19.3501 10.3708C20.3279 9.43343 21.2941 8.48282 22.2889 7.5635C23.2239 6.69946 24.3334 6.44043 25.5423 6.84272C26.7798 7.25439 27.4989 8.15111 27.7297 9.43308C27.7635 9.6198 27.7704 9.81347 27.7708 10.004C27.7728 14.8534 27.7728 19.7028 27.7721 24.5522C27.7721 26.0156 26.7697 27.3091 25.3521 27.6797C25.156 27.7308 25.1554 27.7308 25.1554 27.5236C25.1554 21.8168 25.155 16.11 25.1557 10.4028C25.1557 10.2324 25.1432 10.0694 25.0382 9.92404C24.8049 9.60103 24.3723 9.56347 24.0688 9.84824C23.2875 10.5808 22.508 11.3155 21.7277 12.0492C19.7542 13.9056 17.781 15.7623 15.8074 17.6187C13.9733 19.3443 12.1388 21.0699 10.3047 22.7956C9.0735 23.9538 7.84195 25.1123 6.61039 26.2701C6.59405 26.2858 6.57423 26.2976 6.54676 26.3185L6.54746 26.3192Z" fill="#FDFDFE"/>
<path d="M21.2777 17.5279C20.9971 17.7956 20.7471 18.0331 20.4978 18.2716C18.6957 19.9973 16.8936 21.7233 15.0921 23.4492C13.9006 24.5907 12.7065 25.7302 11.5195 26.8762C10.4642 27.8949 8.82551 28.0792 7.57344 27.3164C7.44688 27.2392 7.46357 27.1985 7.55849 27.1091C10.0397 24.7785 12.5177 22.4451 14.9975 20.1127C17.6668 17.6023 20.3372 15.093 23.0068 12.5829C23.2892 12.3173 23.5705 12.0506 23.851 11.7853C23.9154 11.8162 23.8893 11.8694 23.8893 11.9098C23.8907 17.1294 23.8903 22.3495 23.8928 27.5692C23.8928 27.6933 23.8702 27.728 23.738 27.6957C22.309 27.3442 21.2777 26.0351 21.2777 24.5643C21.2777 22.2991 21.2777 20.0338 21.2777 17.7689V17.5282V17.5279Z" fill="#FDFEFE"/>
<path d="M14.8654 34.7141C15.1888 34.8816 15.4843 34.9988 15.7548 35.1661C16.865 35.8521 17.1436 36.9529 16.8087 38.1792C16.5417 39.1563 15.8626 39.7898 14.976 40.2164C14.1283 40.6243 13.2208 40.8072 12.2872 40.8159C10.2542 40.835 8.22086 40.8263 6.18751 40.8336C6.05017 40.8339 6.02027 40.8023 6.05677 40.6677C6.81476 37.8555 7.56927 35.0423 8.32483 32.229C8.43887 31.8048 8.53379 31.3744 8.67426 30.9589C9.09429 29.7166 10.1224 28.944 11.4607 28.9033C12.5077 28.8716 13.5581 28.8438 14.604 28.9294C15.4812 29.001 16.3164 29.2225 17.0045 29.8149C17.622 30.3466 17.8699 31.0389 17.8473 31.8403C17.8056 33.3358 16.8192 34.2648 15.4096 34.591C15.242 34.6296 15.074 34.6671 14.8651 34.7144L14.8654 34.7141ZM8.83316 38.795C8.88184 38.7992 8.91557 38.8048 8.94964 38.8048C10.0967 38.8051 11.2434 38.8079 12.3905 38.8037C12.7691 38.8023 13.138 38.7314 13.492 38.5927C14.3595 38.2526 14.7785 37.4696 14.5351 36.6434C14.348 36.0085 13.7427 35.559 12.9913 35.535C12.3317 35.5138 11.6707 35.5232 11.0105 35.5273C10.8769 35.528 10.855 35.4915 10.8909 35.3705C10.9611 35.1323 11.0216 34.8914 11.0824 34.6504C11.1256 34.4811 11.1843 34.3191 11.2827 34.1734C11.3762 34.035 11.4976 33.9595 11.6746 33.9637C12.016 33.9721 12.3582 33.9637 12.6999 33.9668C13.1405 33.9707 13.5807 33.97 14.0115 33.8615C14.7176 33.6838 15.2597 33.3198 15.4513 32.568C15.5963 31.9982 15.4085 31.5006 14.9398 31.2113C14.6731 31.0465 14.3776 30.9665 14.0699 30.9432C13.1676 30.8754 12.2639 30.9227 11.3606 30.9154C11.0915 30.9133 10.8874 31.1056 10.8119 31.3879C10.3057 33.2801 9.79942 35.1727 9.29352 37.0649C9.14018 37.6386 8.98789 38.213 8.83282 38.795H8.83316Z" fill="#FDFDFE"/>
<path d="M53.6006 32.7179C53.6688 32.657 53.7411 32.6004 53.8051 32.5353C54.4984 31.825 55.3569 31.5663 56.3277 31.5958C57.4758 31.6306 58.2421 32.1862 58.6225 33.2714C58.6427 33.3291 58.6479 33.3969 58.7101 33.448C58.9754 33.1261 59.2463 32.8104 59.5707 32.5454C60.4716 31.8097 61.4914 31.4839 62.6544 31.6344C63.7253 31.7728 64.4924 32.5552 64.6356 33.6299C64.7316 34.3493 64.5887 35.0367 64.4086 35.7203C63.976 37.3635 63.5324 39.0036 63.0991 40.6465C63.0619 40.788 63.0063 40.8377 62.8554 40.8353C62.2066 40.8259 61.5578 40.8263 60.909 40.8346C60.7567 40.8367 60.7438 40.7929 60.7796 40.6608C61.2052 39.0937 61.627 37.5255 62.048 35.9574C62.1277 35.6605 62.1878 35.359 62.192 35.051C62.2031 34.1751 61.717 33.681 60.8384 33.6699C59.836 33.6574 59.2101 34.1956 58.82 35.0652C58.5728 35.6167 58.4653 36.2123 58.3068 36.7912C57.9514 38.0899 57.6055 39.3913 57.2602 40.6931C57.231 40.803 57.1827 40.835 57.0704 40.8339C56.4156 40.8283 55.7609 40.8263 55.1065 40.8346C54.9476 40.8367 54.9125 40.8075 54.9567 40.6451C55.3868 39.061 55.8089 37.4751 56.2331 35.8893C56.3019 35.6313 56.3478 35.3698 56.361 35.1028C56.4045 34.2144 55.9195 33.6932 55.0273 33.6695C54.1104 33.6452 53.384 34.1386 52.9897 35.0645C52.7279 35.6789 52.6052 36.3357 52.4289 36.9758C52.0899 38.2074 51.7596 39.4414 51.4324 40.6761C51.4014 40.7922 51.3632 40.8353 51.2384 40.8343C50.5722 40.8277 49.906 40.827 49.2398 40.8343C49.091 40.836 49.0854 40.795 49.1202 40.666C49.857 37.9157 50.5885 35.164 51.3225 32.4129C51.4223 32.0385 51.7502 31.7885 52.1803 31.7787C52.6841 31.7676 53.1883 31.7794 53.6921 31.7732C53.8103 31.7718 53.7943 31.8246 53.7745 31.8987C53.7032 32.1657 53.633 32.4328 53.5624 32.7001C53.5749 32.7061 53.5871 32.712 53.5996 32.7182L53.6006 32.7179Z" fill="#FDFDFE"/>
<path d="M38.5727 9.25296C35.2813 9.25296 31.9904 9.25296 28.699 9.25296C28.5664 9.25296 28.516 9.1884 28.5478 9.05929C28.907 7.59616 30.2067 6.60104 31.7664 6.6007C36.6221 6.59965 41.4777 6.60035 46.3334 6.60035C46.7506 6.60035 47.1678 6.5993 47.5851 6.60035C47.8848 6.60139 48.1734 6.65911 48.4397 6.79854C49.0155 7.09999 49.2527 7.73698 49.0468 8.42578C48.9651 8.69976 48.826 8.94594 48.6584 9.17751C48.6153 9.23731 48.5673 9.25956 48.4981 9.25365C48.4578 9.25017 48.4171 9.25296 48.3764 9.25296C45.1084 9.25296 41.8404 9.25296 38.5723 9.25296H38.5727Z" fill="#FDFEFE"/>
<path d="M23.3065 36.9265C22.4957 36.9265 21.6845 36.9237 20.8736 36.9293C20.7377 36.9303 20.7046 36.9056 20.7481 36.7669C20.8288 36.5078 20.8893 36.2425 20.9574 35.9797C20.9894 35.8556 21.0395 35.7394 21.1038 35.6288C21.2053 35.4543 21.3462 35.3705 21.5583 35.3722C22.4793 35.3799 23.4004 35.3729 24.3214 35.3785C24.4452 35.3792 24.4928 35.343 24.512 35.2213C24.5568 34.9376 24.5641 34.6563 24.4949 34.3768C24.3305 33.7116 23.7575 33.2933 22.9932 33.2697C21.8242 33.2339 20.9498 33.7485 20.3507 34.7259C19.8208 35.5906 19.6167 36.5343 19.8437 37.5377C20.0405 38.4084 20.6358 38.939 21.5151 39.0767C22.3604 39.2088 23.1486 39.0575 23.8795 38.6104C24.1451 38.4477 24.175 38.4532 24.3593 38.6987C24.5888 39.004 24.8162 39.311 25.0415 39.6194C25.1806 39.81 25.1736 39.8371 24.9765 39.9741C23.9692 40.6736 22.8406 40.9466 21.6292 40.9149C20.9171 40.8965 20.2262 40.7706 19.5837 40.4459C18.4908 39.8934 17.889 38.9796 17.704 37.7947C17.2589 34.9453 19.116 32.213 21.9219 31.5927C23.013 31.3514 24.0909 31.4078 25.0898 31.9683C26.0245 32.4926 26.5165 33.3239 26.6674 34.3705C26.7633 35.0353 26.6847 35.6855 26.4984 36.3263C26.3739 36.7544 26.1549 36.9244 25.7049 36.9258C24.9056 36.9282 24.1062 36.9265 23.3068 36.9265H23.3065Z" fill="#FDFDFE"/>
<path d="M70.1079 39.8538C69.2387 40.5676 68.2564 40.8252 67.2123 40.8214C66.261 40.8183 65.4786 40.3993 64.9067 39.6337C64.3646 38.908 64.4022 37.908 64.9766 37.0885C65.3747 36.5203 65.9105 36.1142 66.5165 35.7936C67.6605 35.1887 68.8792 34.9366 70.1691 35.0374C70.4379 35.0583 70.4511 35.0826 70.3409 35.3323C70.215 35.6177 70.0759 35.8973 69.9494 36.1824C69.9063 36.279 69.8454 36.3156 69.7404 36.3263C68.9626 36.407 68.2432 36.6584 67.5874 37.0864C67.4369 37.1845 67.3023 37.3023 67.1744 37.4296C66.5134 38.0885 66.8531 39.0572 67.7001 39.2766C68.585 39.5057 69.3708 39.2529 70.0492 38.6594C70.4247 38.3305 70.6646 37.9122 70.7877 37.4285C70.9671 36.7227 71.1465 36.0172 71.32 35.31C71.3669 35.1188 71.3882 34.922 71.3673 34.7241C71.3148 34.2248 71.0262 33.9168 70.569 33.7516C70.0679 33.5705 69.5478 33.5628 69.0255 33.5976C68.3931 33.6396 67.7769 33.769 67.1796 33.9811C67.0697 34.02 67.0318 34.0082 67.012 33.8886C66.9706 33.6376 66.9094 33.39 66.8635 33.1397C66.7634 32.5938 67.0068 32.1772 67.5482 31.9933C68.0162 31.8344 68.505 31.7655 68.9946 31.7183C69.804 31.6404 70.6131 31.6338 71.4139 31.8107C71.9639 31.9324 72.4779 32.1358 72.8951 32.5274C73.4911 33.0861 73.6493 33.8041 73.6152 34.5864C73.5821 35.3458 73.3308 36.0593 73.1423 36.7849C72.8054 38.0826 72.4511 39.376 72.1093 40.6726C72.0776 40.7925 72.0318 40.8367 71.9021 40.8353C71.2651 40.828 70.6277 40.8301 69.9904 40.8339C69.8788 40.8346 69.8371 40.8224 69.8784 40.6931C69.9622 40.4299 70.0255 40.1604 70.1079 39.8548V39.8538Z" fill="#FDFDFE"/>
<path d="M46.2927 39.8551C45.427 40.5652 44.4461 40.8214 43.4013 40.8228C42.4965 40.8238 41.7393 40.4365 41.1669 39.7348C40.5185 38.9397 40.5599 37.8545 41.2514 36.9658C41.7438 36.3329 42.3947 35.9115 43.1186 35.5906C44.1606 35.1289 45.2493 34.9432 46.3849 35.0412C46.6105 35.0607 46.6331 35.0951 46.5431 35.2989C46.4078 35.6052 46.2562 35.9046 46.1203 36.2109C46.0754 36.3121 45.9986 36.3163 45.911 36.3263C45.1405 36.4136 44.4256 36.6601 43.775 37.0854C43.5852 37.2095 43.4141 37.3555 43.2702 37.5325C42.8422 38.0579 42.9659 38.7828 43.549 39.1312C44.041 39.4254 44.5713 39.4108 45.097 39.27C46.0608 39.012 46.7048 38.4045 46.9697 37.4334C47.1627 36.7255 47.3334 36.011 47.5062 35.2975C47.5511 35.1125 47.5705 34.9213 47.5507 34.7287C47.4961 34.2043 47.1856 33.8945 46.7072 33.7349C46.2211 33.5725 45.7176 33.5635 45.2128 33.5983C44.5744 33.6424 43.9531 33.7725 43.3505 33.9877C43.2611 34.0197 43.2226 34.0176 43.2041 33.9084C43.1586 33.6407 43.0883 33.3768 43.0445 33.1087C42.9576 32.5746 43.2003 32.1797 43.7302 31.994C44.0974 31.8653 44.4819 31.8052 44.8661 31.7565C45.7778 31.6407 46.6898 31.6146 47.5956 31.8114C48.2124 31.9453 48.7795 32.1835 49.212 32.6619C49.7148 33.2182 49.8344 33.8963 49.7983 34.6184C49.7628 35.325 49.5351 35.9901 49.3588 36.6653C49.0097 38.0009 48.6456 39.3326 48.2958 40.6681C48.2607 40.8026 48.2072 40.8367 48.0747 40.8353C47.4433 40.828 46.8119 40.8284 46.1804 40.8353C46.0462 40.8367 46.0288 40.8033 46.066 40.6816C46.1457 40.4229 46.2103 40.1597 46.2927 39.8562V39.8551Z" fill="#FDFDFE"/>
<path d="M36.2876 40.9135C35.024 40.8829 33.8717 40.5589 32.8405 39.8472C32.6896 39.7432 32.5699 39.6135 32.506 39.4376C32.4552 39.2985 32.4806 39.1712 32.579 39.0669C32.885 38.7429 33.1989 38.4261 33.5032 38.1003C33.5849 38.0127 33.6249 38.0673 33.6822 38.118C34.242 38.6139 34.8759 38.9699 35.6123 39.1257C36.08 39.2248 36.5511 39.2727 37.0216 39.1424C37.2257 39.0857 37.4072 38.9859 37.5462 38.8204C37.8613 38.4452 37.8164 37.9612 37.4339 37.6566C37.1412 37.4233 36.7962 37.2853 36.4572 37.1379C36.0066 36.9421 35.5588 36.7408 35.1381 36.4859C34.0574 35.8312 33.6833 35.0155 34.0591 33.6751C34.378 32.5378 35.2069 31.8932 36.3161 31.6129C37.7256 31.2569 39.057 31.5239 40.3174 32.2116C40.4652 32.2923 40.6008 32.3931 40.7016 32.5315C40.8223 32.6974 40.8205 32.849 40.6884 33.0061C40.4089 33.3382 40.121 33.6636 39.8459 33.9992C39.767 34.0955 39.7201 34.0506 39.6512 34.0009C39.0921 33.5958 38.4913 33.2826 37.798 33.1824C37.4993 33.1393 37.1992 33.1247 36.9009 33.1974C36.799 33.2221 36.7017 33.2568 36.6095 33.3055C36.0188 33.6157 35.9562 34.3229 36.4861 34.7255C36.8018 34.9654 37.1662 35.117 37.5247 35.278C38.0257 35.5033 38.5254 35.7321 38.9756 36.052C39.5125 36.4334 39.9113 36.9139 39.9415 37.6C39.9954 38.8225 39.5017 39.7668 38.4353 40.3868C37.8428 40.731 37.1902 40.8715 36.5104 40.9007C36.4294 40.9042 36.3488 40.9097 36.2879 40.9132L36.2876 40.9135Z" fill="#FDFDFE"/>
<path d="M30.2963 32.5367C31.2118 31.7242 32.2914 31.6351 33.3905 31.6233C33.6996 31.6198 33.8175 31.7888 33.7424 32.0889C33.6304 32.5371 33.5185 32.9853 33.4062 33.4335C33.3328 33.7262 33.2184 33.8288 32.9169 33.8472C32.2365 33.8886 31.5741 34.0092 30.943 34.2756C30.3624 34.5211 29.941 34.9087 29.7226 35.5221C29.2922 36.7328 28.9712 37.9737 28.652 39.2157C28.5269 39.7025 28.4111 40.1921 28.296 40.6816C28.272 40.7842 28.24 40.8357 28.1176 40.8343C27.4921 40.827 26.8666 40.8263 26.2411 40.8343C26.0905 40.836 26.0864 40.7852 26.1191 40.6642C26.5606 39.0186 26.9796 37.3663 27.4441 35.7269C27.7936 34.4929 28.102 33.2485 28.4389 32.0114C28.522 31.7064 28.6986 31.5628 29.0102 31.5621C29.4678 31.5611 29.9253 31.5653 30.3829 31.5597C30.5056 31.5583 30.546 31.5785 30.5056 31.7134C30.4288 31.9696 30.3721 32.2322 30.296 32.5367H30.2963Z" fill="#FDFDFE"/>
<path d="M8.83301 38.795C8.98808 38.213 9.14038 37.6389 9.29371 37.0649C9.79962 35.1723 10.3059 33.2801 10.8121 31.388C10.8876 31.1056 11.0917 30.913 11.3608 30.9154C12.2638 30.9227 13.1678 30.8754 14.0701 30.9432C14.3778 30.9665 14.6733 31.0465 14.94 31.2113C15.4087 31.501 15.5965 31.9985 15.4515 32.568C15.2599 33.3198 14.7175 33.6838 14.0117 33.8615C13.5812 33.97 13.1407 33.9707 12.7001 33.9668C12.3583 33.9637 12.0166 33.9721 11.6748 33.9637C11.4978 33.9595 11.3764 34.035 11.2829 34.1734C11.1849 34.3191 11.1257 34.4811 11.0826 34.6504C11.0214 34.891 10.9613 35.1323 10.891 35.3705C10.8552 35.4915 10.8771 35.528 11.0107 35.5273C11.6709 35.5232 12.3316 35.5138 12.9915 35.535C13.7425 35.559 14.3482 36.0089 14.5353 36.6434C14.7787 37.4696 14.3597 38.2526 13.4922 38.5927C13.1382 38.7314 12.7697 38.8023 12.3907 38.8037C11.2436 38.8079 10.0969 38.8051 8.94984 38.8048C8.91576 38.8048 8.88169 38.7992 8.83336 38.795H8.83301Z" fill="#0073C0"/>
</g>
</g>
<defs>
<clipPath id="clip0_801_8801">
<rect width="80" height="47.5248" fill="white"/>
</clipPath>
<clipPath id="clip1_801_8801">
<rect width="80" height="47.5248" fill="white"/>
</clipPath>
</defs>
</svg>
