<svg width="80" height="54" viewBox="0 0 80 54" fill="none" xmlns="http://www.w3.org/2000/svg">
<g clip-path="url(#clip0_801_8677)">
<g clip-path="url(#clip1_801_8677)">
<path d="M80 0.00143433V53.263H0V0.00143433H80Z" fill="#0267B1"/>
<path fill-rule="evenodd" clip-rule="evenodd" d="M40.7029 24.1443H37.4271L37.0078 20.8685H33.7887L31.9865 24.3029H28.4614L35.7496 10.6447H38.8553L40.7029 24.1443Z" fill="#FEFEFE"/>
<path fill-rule="evenodd" clip-rule="evenodd" d="M48.1608 13.331L46.0639 24.1782H42.5388L44.6017 13.331H41.0767L41.4167 10.7693H52.604L52.23 13.331H48.1608Z" fill="#FEFEFE"/>
<path fill-rule="evenodd" clip-rule="evenodd" d="M55.9933 24.1782H58.725L61.9554 18.6129L60.8559 24.1782H63.9616L66.8973 10.7693H63.0775L58.6343 18.987L57.3762 10.7693H53.7718L50.9268 24.1782H54.2818L55.54 18.5223L55.9933 24.1782Z" fill="#FEFEFE"/>
<path fill-rule="evenodd" clip-rule="evenodd" d="M35.0015 18.2275H36.9737L36.4636 15.0425L35.0015 18.2275Z" fill="#0267B1"/>
<path d="M29.7988 40.0921C29.7988 39.4347 29.8102 37.6778 29.7875 37.4625C29.7988 34.8442 27.906 33.008 26.7045 33.1553C25.8771 33.2346 25.1743 33.5634 24.8003 34.5381C24.4489 35.4449 24.7663 36.6577 25.9111 36.9411C27.1465 37.2471 27.8606 37.4965 28.382 37.8592C29.0168 38.3012 29.5382 39.1287 29.5495 40.1034H29.7875L29.7988 40.0921Z" fill="#FEFEFE"/>
<path d="M23.7346 42.3024C22.7824 40.2961 22.2271 38.0065 22.2271 35.7056C22.2271 33.4047 22.7598 31.2171 23.7232 29.2108C25.7295 28.2587 27.9397 27.76 30.2407 27.76C32.5416 27.76 34.8085 28.3834 36.8261 29.3355C37.7782 31.3418 38.3676 33.6314 38.3676 35.9323C38.3676 38.2332 37.8009 40.4095 36.8488 42.4271C34.8425 43.3792 32.6096 43.8779 30.3087 43.8779C28.0077 43.8779 25.7748 43.2545 23.7572 42.3024H23.7346Z" stroke="#FEFEFE" stroke-width="1.18679"/>
<path d="M29.2776 40.0921C29.2776 39.2534 28.8128 38.5053 28.2008 38.1086C27.6567 37.7572 26.92 37.5191 25.7412 37.2244C25.3784 37.1338 24.9931 36.9184 24.8797 36.6577C24.5623 36.9751 24.5057 37.6778 24.5623 38.0972C24.6304 38.5733 25.1858 39.3667 26.0245 39.4007C26.5346 39.4234 27.192 39.2874 27.498 39.2193C28.0308 39.106 28.8922 39.446 29.0282 40.0921H29.2776Z" fill="#FEFEFE"/>
<path d="M30.2295 29.0748C28.8014 29.0748 27.5659 30.0156 27.5772 31.6478C27.5772 33.0193 28.688 33.756 29.0734 34.2774C29.6628 35.0709 29.9915 36.0003 30.0255 37.4285C30.0482 38.5619 30.0482 39.6841 30.0595 40.0921H30.3769C30.3656 39.6727 30.3542 38.4826 30.3769 37.3945C30.3996 35.9663 30.7283 35.0595 31.329 34.2774C31.7257 33.756 32.8252 33.0193 32.8252 31.6478C32.8252 30.0156 31.601 29.0748 30.1729 29.0748H30.2409H30.2295Z" fill="#FEFEFE"/>
<path d="M30.5922 40.0921C30.5922 39.4347 30.5809 37.6778 30.6035 37.4625C30.5922 34.8442 32.4851 33.008 33.6866 33.1553C34.514 33.2346 35.2167 33.5634 35.5908 34.5381C35.9421 35.4449 35.6248 36.6577 34.48 36.9411C33.2445 37.2471 32.5304 37.4965 32.009 37.8592C31.3743 38.3012 30.8869 39.1287 30.8756 40.1034H30.6035L30.5922 40.0921Z" fill="#FEFEFE"/>
<path d="M31.1021 40.0921C31.1021 39.2534 31.5668 38.5053 32.1788 38.1086C32.7229 37.7572 33.4597 37.5191 34.6385 37.2244C35.0012 37.1338 35.3866 36.9184 35.4999 36.6577C35.8173 36.9751 35.8739 37.6778 35.8173 38.0972C35.7493 38.5733 35.1939 39.3667 34.3551 39.4007C33.845 39.4234 33.1876 39.2874 32.8816 39.2193C32.3489 39.106 31.4874 39.446 31.3627 40.0921H31.1134H31.1021Z" fill="#FEFEFE"/>
<path d="M31.7368 41.951C31.7935 41.9397 31.8729 41.9397 31.9069 41.883C31.9295 41.849 31.9409 41.815 31.9295 41.7356C31.9069 41.6336 31.8842 41.5769 31.7595 41.5996L31.6462 41.611L31.6915 41.951L31.7368 41.9397V41.951ZM31.8275 42.5631C31.8842 42.5517 31.9295 42.5517 31.9749 42.5291C32.0429 42.4837 32.0315 42.4044 32.0202 42.3364C31.9975 42.189 31.9635 42.1323 31.8048 42.155L31.7142 42.1664L31.7708 42.5744L31.8275 42.5631ZM31.5441 42.8011L31.3628 41.4636L31.8048 41.3956C31.9069 41.3843 32.0429 41.4069 32.0995 41.4636C32.1562 41.5316 32.1789 41.5883 32.1902 41.679C32.2016 41.7923 32.1676 41.9283 32.0429 41.9963C32.1902 41.9963 32.2696 42.0983 32.2922 42.2684C32.2922 42.3024 32.3036 42.393 32.2922 42.4724C32.2582 42.6537 32.1562 42.6991 31.9749 42.7331L31.5328 42.7898L31.5441 42.8011Z" fill="#FEFEFE"/>
<path d="M33.4598 42.0077C33.4598 42.0304 33.4711 42.0644 33.4711 42.087C33.5051 42.3251 33.4598 42.5291 33.1877 42.5858C32.7797 42.6651 32.7003 42.4157 32.6323 42.0644L32.5983 41.8717C32.5417 41.5316 32.519 41.2823 32.9157 41.2029C33.1311 41.1576 33.2784 41.2483 33.3464 41.475C33.3577 41.509 33.3691 41.543 33.3691 41.577L33.1311 41.6223C33.1084 41.543 33.063 41.3956 32.961 41.4069C32.7683 41.4296 32.825 41.6676 32.8477 41.7697L32.9157 42.1324C32.9384 42.2457 32.9837 42.4157 33.1537 42.3817C33.2897 42.3591 33.2331 42.1437 33.2217 42.053L33.4711 42.0077H33.4598Z" fill="#FEFEFE"/>
<path d="M34.0381 41.7583L34.2422 41.7016L33.9701 41.1462L34.0381 41.7583ZM33.8455 42.4044L33.7661 41.0216L34.0948 40.9196L34.7749 42.121L34.5142 42.2004L34.3555 41.8943L34.0721 41.985L34.1062 42.3251L33.8455 42.4044Z" fill="#FEFEFE"/>
<path d="M25.8202 41.3616C25.9222 41.0329 26.0129 40.7948 26.3983 40.8969C26.6023 40.9535 26.7383 41.0442 26.727 41.2822C26.727 41.3389 26.7043 41.3956 26.693 41.4409L26.4549 41.3729C26.4889 41.2369 26.5116 41.1349 26.3416 41.0782C26.1489 41.0215 26.1036 41.2596 26.0809 41.3616L25.9789 41.7243C25.9449 41.8263 25.9109 42.0077 26.0809 42.053C26.2169 42.087 26.3076 41.951 26.3529 41.7583L26.1829 41.713L26.2396 41.5089L26.6363 41.6336L26.4436 42.3364L26.2622 42.291L26.3076 42.1437C26.2169 42.2684 26.1149 42.2797 26.0356 42.257C25.6388 42.1437 25.6842 41.8943 25.7749 41.5429L25.8202 41.3616Z" fill="#FEFEFE"/>
<path d="M27.3506 41.747L27.532 41.7923C27.6453 41.8036 27.702 41.747 27.7247 41.6223C27.7474 41.4976 27.7133 41.4523 27.6227 41.4296L27.43 41.3843L27.3506 41.747ZM27.3053 41.951L27.192 42.5177L26.9199 42.461L27.2033 41.1349L27.668 41.2369C27.94 41.2936 28.0194 41.4183 27.9854 41.6563C27.9627 41.8036 27.8947 41.951 27.7247 41.9396C27.872 41.985 27.8834 42.0643 27.8494 42.189C27.838 42.2457 27.7587 42.5631 27.8154 42.6197V42.6651L27.5433 42.5857C27.532 42.495 27.566 42.3364 27.5887 42.2457C27.6 42.1663 27.634 42.053 27.5547 42.0077C27.4867 41.9737 27.464 41.9737 27.396 41.9623L27.328 41.951H27.3053Z" fill="#FEFEFE"/>
<path d="M29.0278 41.4296L29.2999 41.4636L29.1865 42.393C29.1299 42.6877 29.0165 42.8124 28.6878 42.7784C28.3591 42.7331 28.2798 42.5857 28.3024 42.291L28.4158 41.3616L28.6878 41.3956L28.5745 42.3023C28.5631 42.4044 28.5405 42.5517 28.7105 42.563C28.8692 42.5744 28.9032 42.4724 28.9145 42.3477L29.0278 41.4409V41.4296Z" fill="#FEFEFE"/>
<path d="M29.8895 42.087L30.0255 42.0984C30.1389 42.0984 30.2069 42.0644 30.2182 41.8943C30.2296 41.7356 30.1616 41.713 30.0255 41.713H29.9122L29.8895 42.0984V42.087ZM29.5835 42.8238L29.6628 41.4976L30.1729 41.5203C30.4109 41.5316 30.4789 41.7243 30.4676 41.917C30.4676 42.0303 30.4223 42.155 30.3316 42.2344C30.2522 42.291 30.1389 42.3024 30.0482 42.3024L29.8782 42.291L29.8442 42.8464L29.5835 42.8238Z" fill="#FEFEFE"/>
<path d="M65.6615 30.367L63.6212 34.0507C62.8505 33.4273 61.921 32.974 60.7195 32.974C57.8972 32.974 56.7411 35.0822 56.7411 36.567C56.7411 37.6665 57.4552 39.2987 59.9828 39.2987C61.0369 39.2987 62.5444 38.5619 62.9751 38.2332L60.9689 42.5177C60.0168 42.7104 59.6994 42.8238 58.8833 42.8578C54.3835 42.9938 52.5586 40.2281 52.5586 37.3945C52.5586 33.654 55.891 29.1088 61.3883 29.1088C61.7283 29.1088 62.1364 29.2222 62.4878 29.3582L62.8391 28.9048L65.6388 30.3897L65.6615 30.367Z" fill="#FEFEFE"/>
<path d="M70.3091 33.0986L68.6542 36.9978H70.3544L70.3091 33.0986ZM74.0495 28.9955L74.6276 42.4044H70.3431V40.1035H67.4188L66.4553 42.4044H61.8081L66.6593 32.8266L65.5599 32.8153L67.6455 28.9842H74.0382L74.0495 28.9955Z" fill="#FEFEFE"/>
<path d="M46.0072 36.8051L45.4291 39.004C45.4291 39.004 46.3245 39.004 46.9026 39.004C47.4807 39.004 48.2627 38.7206 48.4554 37.9952C48.6481 37.2811 48.0927 36.7937 47.526 36.7937C46.9479 36.7937 46.0072 36.7937 46.0072 36.7937V36.8051ZM47.764 34.4361C48.2061 34.4361 48.9768 34.3228 49.1695 33.4727C49.3849 32.5546 48.6595 32.5319 48.3081 32.5319L47.0613 32.5206L46.6306 34.4361H47.7754H47.764ZM49.8383 28.9955C51.9578 29.0068 53.1593 30.163 53.1593 31.8178C53.1593 33.348 51.8898 34.7082 50.507 35.4109C51.9352 35.9436 52.0599 37.2245 52.0599 38.1426C52.0599 40.3415 49.8496 42.4044 46.9819 42.4044C46.0752 42.4044 41.8587 42.4044 40.7139 42.4044L43.1622 32.9626L42.1534 32.9513L44.2049 28.9842C44.2049 28.9842 48.1154 28.9728 49.8496 28.9842L49.8383 28.9955Z" fill="#FEFEFE"/>
<path fill-rule="evenodd" clip-rule="evenodd" d="M14.8825 0.0581055L0.0908203 53.263H3.89926L18.7363 0.0581055H14.8825Z" fill="#718FC8"/>
<path fill-rule="evenodd" clip-rule="evenodd" d="M18.6906 0.0581055L3.89893 53.263H7.70737L22.5444 0.0581055H18.6906Z" fill="#9AAED9"/>
<path fill-rule="evenodd" clip-rule="evenodd" d="M22.4538 0.0581055L7.66211 53.263H11.4706L26.3076 0.0581055H22.4538Z" fill="#C8D1EA"/>
</g>
</g>
<defs>
<clipPath id="clip0_801_8677">
<rect width="80" height="53.2615" fill="white"/>
</clipPath>
<clipPath id="clip1_801_8677">
<rect width="80" height="53.2615" fill="white"/>
</clipPath>
</defs>
</svg>
