<svg width="80" height="54" viewBox="0 0 80 54" fill="none" xmlns="http://www.w3.org/2000/svg">
<g clip-path="url(#clip0_801_8705)">
<g clip-path="url(#clip1_801_8705)">
<path fill-rule="evenodd" clip-rule="evenodd" d="M1.69007 -9.15527e-05H78.3099C79.2394 -9.15527e-05 80 0.760494 80 1.68998V51.9107C80 52.8402 79.2394 53.5997 78.3099 53.5997H1.69007C0.761635 53.5997 0 52.8391 0 51.9107V1.68998C0 0.760494 0.760586 -9.15527e-05 1.69007 -9.15527e-05Z" fill="#006838"/>
<path d="M33.6627 42.9703C33.6627 42.3388 33.67 40.6508 33.6543 40.4431C33.6679 37.9305 31.8415 36.1597 30.6875 36.2971C29.8891 36.3663 29.2198 36.6915 28.861 37.6284C28.5285 38.5012 28.8254 39.6615 29.9332 39.9343C31.1166 40.227 31.8079 40.4703 32.3083 40.8134C32.921 41.2341 33.4214 42.0366 33.435 42.9703" fill="white"/>
<path d="M27.959 44.9793C30.0404 45.9581 32.1155 46.4522 34.136 46.4522C36.2772 46.4522 38.4068 45.9843 40.3036 45.0968C41.2456 43.0951 41.723 41.0358 41.723 38.9764C41.723 36.9171 41.2246 34.7591 40.2826 32.7533C38.2316 31.7892 36.0883 31.2772 34.0825 31.2772C31.9287 31.2772 29.8641 31.7346 27.9422 32.6358C27.0201 34.5997 26.5501 36.658 26.5501 38.7572C26.5501 40.8564 27.0379 43.0112 27.96 44.9783M34.137 46.7879C32.0494 46.7879 29.904 46.2739 27.7618 45.2573L27.7093 45.2311L27.6841 45.1776C26.7232 43.1487 26.2144 40.9288 26.2144 38.7572C26.2144 36.5856 26.7022 34.4643 27.6642 32.4375L27.6904 32.384L27.7439 32.3578C29.7256 31.4188 31.8574 30.9436 34.0825 30.9436C36.1544 30.9436 38.368 31.4734 40.4819 32.4774L40.5364 32.5015L40.5616 32.556C41.5415 34.6227 42.0576 36.8416 42.0576 38.9775C42.0576 41.1134 41.5614 43.2315 40.5805 45.2972L40.5553 45.3517L40.5008 45.3769C38.5495 46.3001 36.3485 46.79 34.137 46.79" fill="white"/>
<path d="M33.1689 42.9714C33.1731 42.1615 32.7209 41.446 32.1303 41.061C31.6068 40.7211 30.9029 40.4976 29.7688 40.2102C29.4184 40.121 29.0512 39.9217 28.9379 39.6678C28.6379 39.9699 28.5833 40.6508 28.6358 41.0484C28.6977 41.5079 29.2348 42.2674 30.0447 42.2968C30.5388 42.3167 31.1641 42.1908 31.4641 42.1268C31.9813 42.0146 32.7996 42.3388 32.9297 42.9703" fill="white"/>
<path d="M34.0814 32.3819C32.7081 32.3819 31.5227 33.2873 31.5269 34.8546C31.5311 36.1722 32.5906 36.8772 32.9694 37.3818C33.5411 38.1414 33.8495 39.0394 33.8821 40.4147C33.9072 41.5089 33.9062 42.5895 33.9114 42.9724H34.2146C34.2094 42.5717 34.1957 41.425 34.2115 40.3801C34.2325 39.0048 34.5524 38.1403 35.1242 37.3808C35.506 36.8772 36.5646 36.1712 36.5667 34.8536C36.5719 33.2862 35.3864 32.3809 34.0142 32.3809" fill="white"/>
<path d="M34.4299 42.9703C34.4299 42.3388 34.4226 40.6508 34.4383 40.4431C34.4247 37.9305 36.2501 36.1597 37.4051 36.2971C38.2035 36.3663 38.8718 36.6915 39.2326 37.6284C39.5652 38.5012 39.2662 39.6615 38.1605 39.9343C36.9761 40.227 36.2858 40.4703 35.7843 40.8134C35.1716 41.2341 34.7069 42.0366 34.6922 42.9703" fill="white"/>
<path d="M34.9239 42.9714C34.9197 42.1615 35.3718 41.446 35.9604 41.061C36.487 40.7211 37.1909 40.4976 38.3239 40.2102C38.6754 40.121 39.0415 39.9217 39.1538 39.6678C39.4559 39.9699 39.5105 40.6508 39.4569 41.0484C39.394 41.5079 38.8579 42.2674 38.0491 42.2968C37.555 42.3167 36.9255 42.1908 36.6276 42.1268C36.1125 42.0146 35.291 42.3388 35.161 42.9703" fill="white"/>
<path d="M35.5321 44.7622C35.5888 44.7527 35.6643 44.7464 35.6958 44.6929C35.7126 44.6573 35.7335 44.6289 35.7199 44.5502C35.7031 44.4569 35.6717 44.3981 35.5521 44.4212L35.4409 44.439L35.4849 44.7674M35.6213 45.3549C35.6717 45.3475 35.722 45.3455 35.7619 45.3192C35.8227 45.2794 35.8175 45.1944 35.8091 45.1304C35.7881 44.9909 35.7514 44.9384 35.6045 44.9604L35.5122 44.9751L35.5709 45.3622L35.6223 45.3549H35.6213ZM35.3485 45.5846L35.1733 44.3027L35.5972 44.2387C35.7 44.225 35.8259 44.2429 35.8762 44.3069C35.9318 44.375 35.9486 44.4306 35.9591 44.5188C35.9748 44.6279 35.9434 44.7548 35.8206 44.8178V44.822C35.9581 44.822 36.042 44.9206 36.0661 45.0884C36.0693 45.1241 36.0797 45.2091 36.0693 45.2804C36.0409 45.4493 35.9402 45.5039 35.7703 45.528L35.3485 45.5857V45.5846Z" fill="white"/>
<path d="M37.1845 44.8136C37.1877 44.8377 37.1919 44.8639 37.1929 44.8881C37.2275 45.122 37.1845 45.315 36.9212 45.3685C36.5331 45.443 36.4586 45.2017 36.3904 44.8639L36.3537 44.6814C36.3002 44.3583 36.2771 44.1128 36.6558 44.0373C36.8698 43.9984 37.0104 44.0834 37.0691 44.2953C37.0786 44.3268 37.0901 44.3583 37.0943 44.3908L36.8614 44.4391C36.8352 44.3593 36.7985 44.2166 36.6946 44.2282C36.5068 44.2513 36.5687 44.4842 36.5876 44.5817L36.6579 44.9321C36.6789 45.0381 36.7208 45.208 36.8824 45.1755C37.0146 45.1493 36.9569 44.9437 36.9453 44.8597" fill="white"/>
<path d="M37.7482 44.5817L37.9454 44.524L37.6832 43.9868M37.5583 45.2006L37.4775 43.8735L37.7902 43.7781L38.4448 44.9321L38.1993 45.0055L38.044 44.7128L37.7713 44.7946L37.807 45.1283L37.5594 45.2006H37.5583Z" fill="white"/>
<path d="M29.8455 44.1988C29.9431 43.8862 30.0312 43.6554 30.4036 43.7582C30.6029 43.8138 30.7267 43.9019 30.7215 44.1337C30.7215 44.1852 30.7036 44.2376 30.6921 44.289L30.4603 44.225C30.4907 44.097 30.5096 43.9953 30.3522 43.947C30.1697 43.8967 30.1256 44.118 30.1004 44.2135L30.006 44.5618C29.9756 44.6646 29.9399 44.8356 30.1004 44.8796C30.2326 44.9153 30.3134 44.7852 30.3616 44.5953L30.199 44.5523L30.2557 44.3509L30.6375 44.4736L30.4561 45.144L30.2809 45.0968L30.3207 44.9552H30.3155C30.2347 45.0706 30.1361 45.0832 30.049 45.0664C29.6671 44.9636 29.707 44.7139 29.7983 44.3803" fill="white"/>
<path d="M31.3107 44.567L31.4848 44.6142C31.5908 44.63 31.6495 44.5744 31.6705 44.4464C31.6894 44.3289 31.6653 44.2838 31.5698 44.2607L31.3831 44.2229M31.2666 44.7643L31.1512 45.3098L30.8921 45.2542L31.168 43.9806L31.6086 44.0803C31.8667 44.1359 31.9454 44.2513 31.9087 44.4873C31.8877 44.6226 31.8205 44.7695 31.6569 44.758L31.6548 44.7559C31.7933 44.8041 31.8048 44.8744 31.7807 44.9951C31.7702 45.0465 31.6978 45.357 31.7481 45.4073L31.7502 45.4451L31.4827 45.3748C31.4712 45.2888 31.51 45.1335 31.5247 45.0475C31.5394 44.972 31.5635 44.8639 31.4869 44.8241C31.4271 44.7915 31.404 44.7936 31.3359 44.7779L31.2666 44.7643Z" fill="white"/>
<path d="M32.9266 44.2649L33.1825 44.2943L33.0724 45.1891C33.0189 45.4734 32.9087 45.5972 32.5971 45.5584C32.2793 45.5185 32.2037 45.3738 32.2237 45.0874L32.3349 44.1925L32.593 44.2219L32.4817 45.0968C32.4702 45.1923 32.4482 45.3329 32.6171 45.3496C32.7671 45.3612 32.8007 45.2615 32.8175 45.1388" fill="white"/>
<path d="M33.756 44.8933L33.8861 44.9006C33.992 44.9048 34.0623 44.8628 34.0707 44.7076C34.076 44.5586 34.0193 44.5324 33.8819 44.5271L33.7791 44.524M33.4644 45.6098L33.542 44.3299L34.034 44.3509C34.2669 44.3624 34.3278 44.5523 34.3204 44.7338C34.3131 44.8439 34.2795 44.9667 34.183 45.0338C34.1043 45.0905 34.0025 45.1041 33.9092 45.0989L33.7487 45.0905L33.7161 45.6276L33.4644 45.6108V45.6098Z" fill="white"/>
<path d="M68.1526 33.6198L66.1981 37.1678C65.4606 36.5688 64.5595 36.1282 63.4097 36.1282C60.6894 36.1282 59.5847 38.156 59.5847 39.5838C59.5847 40.6445 60.2792 42.2087 62.6994 42.2087C63.7149 42.2087 65.1595 41.5016 65.575 41.1806L63.6415 45.2972C62.7194 45.4807 62.4172 45.5951 61.6367 45.6192C57.3051 45.7483 55.5541 43.0867 55.5552 40.3675C55.5583 36.7723 58.7538 32.4008 64.0528 32.4008C64.3769 32.4008 64.7745 32.513 65.1144 32.6379L65.4575 32.1993" fill="white"/>
<path d="M72.6238 36.253L71.0354 40.0035H72.671M76.2179 32.3074L76.7718 45.2027H72.6521L72.65 42.9913H69.8405L68.9163 45.2027H64.4482L69.1188 35.9949L68.0655 35.9886L70.0671 32.3085H76.2179V32.3074Z" fill="white"/>
<path d="M49.2595 39.8157L48.7077 41.9349H50.1187C50.6737 41.9349 51.4301 41.6589 51.6158 40.9697C51.7993 40.2784 51.2696 39.8157 50.7167 39.8157M50.9538 37.5371C51.3755 37.5371 52.1204 37.4301 52.3071 36.6139C52.5117 35.7274 51.8119 35.7033 51.4762 35.7033L50.2782 35.6981L49.8596 37.5371H50.9527H50.9538ZM52.9554 32.3085C54.9959 32.32 56.1478 33.4268 56.1478 35.0266C56.1478 36.5017 54.9319 37.8067 53.5975 38.4813C54.9718 38.9869 55.0903 40.2259 55.0903 41.104C55.0903 43.2231 52.9638 45.2038 50.1995 45.2038H44.1704L46.5225 36.124L45.5562 36.1187L47.5306 32.3095C47.5306 32.3095 51.2958 32.298 52.9544 32.3095" fill="white"/>
<path opacity="0.3" fill-rule="evenodd" clip-rule="evenodd" d="M22.0757 -0.000183105H16.3866L1.68994 53.5996H7.37912L22.0757 -0.000183105Z" fill="white"/>
<path opacity="0.6" fill-rule="evenodd" clip-rule="evenodd" d="M27.7652 -9.15527e-05H22.076L7.37939 53.5997H13.0686L27.7652 -9.15527e-05Z" fill="white"/>
<path opacity="0.9" fill-rule="evenodd" clip-rule="evenodd" d="M33.4542 -0.000183105H27.765L13.0684 53.5996H18.7586L33.4542 -0.000183105Z" fill="white"/>
<path d="M32.5446 26.1514L34.6396 13.9138H37.3274C38.2715 13.9138 38.9104 13.9526 39.2461 14.0303C39.8105 14.1698 40.3026 14.4447 40.7243 14.8569C41.146 15.2692 41.4796 15.8179 41.7251 16.5061C41.9706 17.1933 42.0933 18.0189 42.0933 18.9809C42.0933 19.9943 41.9685 20.9301 41.7178 21.7903C41.467 22.6506 41.1156 23.4017 40.6613 24.0438C40.2081 24.6869 39.7392 25.1537 39.2545 25.4464C38.7709 25.738 38.2642 25.9374 37.7354 26.0433C37.3903 26.1157 36.8395 26.1514 36.0821 26.1514H32.5425H32.5446ZM34.9396 24.1812H35.9845C36.7483 24.1812 37.2833 24.1287 37.5907 24.0228C37.9925 23.8896 38.368 23.6147 38.7195 23.2003C39.0709 22.7859 39.3752 22.21 39.6311 21.4725C39.8871 20.735 40.0162 19.8821 40.0162 18.9138C40.0162 18.1123 39.9112 17.4839 39.7014 17.0275C39.4916 16.5711 39.2094 16.2627 38.8569 16.1012C38.6051 15.99 38.1645 15.9344 37.5372 15.9344H36.3528L34.9407 24.1823L34.9396 24.1812Z" fill="white"/>
<path d="M42.645 26.1514L44.74 13.9138H52.178L51.8277 15.9595H46.4563L45.978 18.7396H51.1762L50.8258 20.7853H45.6255L45.0527 24.1078H50.8258L50.4838 26.1535H42.645V26.1514Z" fill="white"/>
<path d="M52.0112 26.1514L54.1063 13.9138H57.5452C58.4631 13.9138 59.1177 13.9726 59.5069 14.089C60.1133 14.2674 60.5812 14.5978 60.9096 15.0825C61.2379 15.5672 61.4026 16.1652 61.4026 16.8775C61.4026 17.5898 61.2442 18.1962 60.9263 18.6809C60.6095 19.1655 60.1332 19.5327 59.4985 19.7824C59.9937 19.9492 60.3903 20.2503 60.6882 20.6836C60.9861 21.1179 61.1351 21.6246 61.1351 22.2026C61.1351 22.9926 60.9557 23.7081 60.5969 24.348C60.2381 24.9879 59.7703 25.4485 59.1943 25.7297C58.6184 26.0108 57.8011 26.1514 56.7447 26.1514H52.0112ZM54.4063 24.1812H56.3975C57.178 24.1812 57.713 24.1256 58.0036 24.0144C58.2931 23.9032 58.5365 23.6986 58.7317 23.4007C58.9268 23.1027 59.0244 22.7681 59.0244 22.3946C59.0244 21.955 58.8964 21.6099 58.6404 21.3592C58.3844 21.1084 57.9805 20.9836 57.4297 20.9836H54.9581L54.4073 24.1812H54.4063ZM55.3232 18.855H56.901C57.5913 18.855 58.0865 18.7994 58.3876 18.6882C58.6876 18.577 58.9247 18.385 59.0978 18.1123C59.2698 17.8395 59.3569 17.5279 59.3569 17.1775C59.3569 16.8932 59.2929 16.653 59.1649 16.4557C59.0369 16.2585 58.8754 16.1263 58.6803 16.0592C58.4851 15.9921 58.0644 15.9585 57.4182 15.9585H55.8226L55.3232 18.855Z" fill="white"/>
<path d="M61.8613 26.1514L64.0392 13.9138H66.0996L63.9228 26.1514H61.8624H61.8613Z" fill="white"/>
<path d="M70.3305 26.1514H68.2722L70.0273 15.9585H67.0112L67.3616 13.9128H75.3336L74.9832 15.9585H72.0856L70.3305 26.1514Z" fill="white"/>
</g>
</g>
<defs>
<clipPath id="clip0_801_8705">
<rect width="80" height="53.5998" fill="white"/>
</clipPath>
<clipPath id="clip1_801_8705">
<rect width="80" height="53.5998" fill="white"/>
</clipPath>
</defs>
</svg>
