<svg width="80" height="25" viewBox="0 0 80 25" fill="none" xmlns="http://www.w3.org/2000/svg">
<g clip-path="url(#clip0_801_8776)">
<path d="M79.7577 15.4298L78.0071 15.5841C77.846 15.5966 77.726 15.4721 77.7751 15.3453L78.4322 13.6712C78.4893 13.5272 78.3259 13.3947 78.1499 13.4415L75.1584 13.5421L74.1277 15.8503L73.3049 17.9369L71.8251 21.7101C71.7074 22.0232 71.6297 22.2928 71.5932 22.5202C71.4652 23.3178 71.68 23.92 72.2376 24.3291C72.7953 24.7371 73.5952 24.9027 74.6373 24.825C75.7034 24.7451 76.6119 24.5154 77.3603 24.136C77.4346 24.0983 77.4769 24.0286 77.462 23.8572L77.7569 22.4437C77.7443 22.3111 77.5706 22.2368 77.4255 22.3008C77.0632 22.4585 76.7159 22.5499 76.3833 22.5751C75.6017 22.6334 75.2578 22.3671 75.3538 21.774C75.3789 21.6152 75.4132 21.4884 75.4555 21.3947L76.885 17.7609C76.9136 17.6866 76.9947 17.6341 77.0884 17.6272L79.1155 17.5027C79.2092 17.4958 79.2904 17.4421 79.3189 17.369L79.9897 15.6675C80.04 15.5407 79.9188 15.4161 79.7577 15.4287V15.4298Z" fill="url(#paint0_linear_801_8776)"/>
<path d="M43.4441 14.1248C43.331 14.1248 43.2315 14.2014 43.2018 14.3111L42.731 16.056C42.6876 16.216 42.8087 16.3725 42.9733 16.3725H47.6401C47.8057 16.3725 47.9257 16.5291 47.8823 16.689L47.2961 18.883C47.2664 18.9927 47.167 19.0693 47.0539 19.0693H42.1174C42.0031 19.0693 41.9037 19.1458 41.8752 19.2555L40.6491 23.8275C40.6193 23.9372 40.5199 24.0137 40.4068 24.0137H35.5526C35.3869 24.0137 35.267 23.8572 35.3104 23.6972L37.878 14.134H37.8734L38.5488 11.6155C38.5785 11.5058 38.6779 11.4292 38.791 11.4292H49.8455C50.0111 11.4292 50.1311 11.5858 50.0877 11.7458L49.5015 13.9386C49.4718 14.0483 49.3724 14.1248 49.2593 14.1248H43.4441Z" fill="url(#paint1_linear_801_8776)"/>
<path d="M57.882 24.1954H54.0369C53.9694 24.1954 53.9203 24.1314 53.9374 24.0663C53.9591 23.9863 53.8814 23.9154 53.8037 23.944C53.2095 24.1645 52.5662 24.2754 51.8737 24.2754C48.9622 24.2754 47.5075 23.6126 47.5075 22.286C47.5075 22.1008 47.5361 21.9032 47.5943 21.6918C47.8537 20.7193 48.4925 20.0246 49.5118 19.6075C50.1357 19.3538 51.123 19.1664 52.4759 19.0453C53.7957 18.9264 54.7705 18.7402 55.4012 18.4865C55.4309 18.4739 55.4527 18.4488 55.4618 18.4179L55.5121 18.2294C55.5486 18.0923 55.5681 17.9677 55.5681 17.8569C55.5784 17.3655 55.2458 17.1198 54.5693 17.1198C53.7672 17.1198 53.2484 17.4661 53.0153 18.1586C53.0016 18.2008 52.9627 18.2294 52.9182 18.2294H48.9004C48.8227 18.2294 48.7725 18.146 48.8102 18.0786C49.8774 16.1611 51.9697 15.2024 55.0847 15.2024C58.0169 15.2024 59.4852 16.1108 59.4909 17.9289C59.4909 18.3037 59.4327 18.7105 59.3161 19.1493L57.9814 24.1211C57.9689 24.1657 57.9289 24.1965 57.882 24.1965V24.1954ZM54.6082 21.5649L54.8676 20.5925C54.8882 20.5148 54.8162 20.4462 54.7396 20.4679C54.5214 20.5308 54.2254 20.5845 53.8506 20.6291C53.3615 20.6873 53.0016 20.7639 52.7685 20.8587C52.388 21.0176 52.156 21.2518 52.0714 21.5638C52.0497 21.6483 52.0394 21.7272 52.0394 21.8015C52.0394 22.2025 52.3982 22.4037 53.117 22.4037C53.9626 22.4037 54.4585 22.1237 54.6071 21.5638L54.6082 21.5649Z" fill="url(#paint2_linear_801_8776)"/>
<path d="M71.5772 18.4134H67.6738C67.5081 18.4134 67.3801 18.2751 67.3824 18.1106C67.3824 18.1037 67.3824 18.098 67.3824 18.0911C67.3824 17.6775 67.0841 17.4706 66.4865 17.4706C65.6089 17.4706 65.1713 17.7266 65.1713 18.2385C65.1713 18.5711 65.6786 18.827 66.6933 19.0064C68.3102 19.2967 69.3192 19.5286 69.7203 19.7035C70.5442 20.0623 70.9567 20.5925 70.9567 21.2941C70.9567 21.4792 70.9304 21.6712 70.8779 21.8723C70.3808 23.7246 68.2337 24.6513 64.4354 24.6513C61.141 24.6513 59.4475 23.8046 59.3549 22.1123C59.3458 21.9454 59.4806 21.806 59.6463 21.806H63.5486C63.7143 21.806 63.84 21.9443 63.84 22.11V22.1123C63.84 22.5374 64.168 22.7488 64.8227 22.7488C65.7415 22.7488 66.202 22.4928 66.202 21.9809C66.202 21.6541 65.6946 21.4004 64.6799 21.221C63.079 20.9364 62.07 20.7033 61.6529 20.5239C60.829 20.1708 60.4165 19.6406 60.4165 18.9333C60.4165 18.7539 60.4428 18.5608 60.4954 18.3551C60.997 16.4971 63.1475 15.5692 66.9459 15.5692C70.1363 15.5692 71.7772 16.4137 71.8674 18.1026C71.8766 18.2705 71.744 18.4134 71.5761 18.4134H71.5772Z" fill="url(#paint3_linear_801_8776)"/>
<path d="M25.7449 11.5618C25.3312 11.4407 24.8913 11.3584 24.4616 11.355C21.9225 11.3378 19.3823 11.339 16.8421 11.3424C16.4582 11.3424 16.0742 11.3435 15.6903 11.3435C15.68 11.3435 15.6697 11.3435 15.6594 11.3424H13.7134C13.814 11.6109 13.934 11.8783 14.0688 12.1434C15.2995 14.5625 15.4503 17.0182 14.2242 19.4944C13.3375 21.2861 11.9594 22.6334 10.3231 23.7383C9.92197 24.0092 9.50489 24.256 9.09466 24.5131C9.1038 24.5382 9.1118 24.5634 9.12094 24.5874C9.75743 24.392 10.3928 24.192 11.0315 24.0023C11.1949 23.9532 11.3686 23.9075 11.5366 23.9075C14.5213 23.9018 17.506 23.9052 20.4919 23.9018C20.8656 23.9006 21.2426 23.8949 21.614 23.8526C22.5373 23.7486 23.3795 23.4355 24.0411 22.7579C25.0364 21.7421 25.402 20.468 25.4386 19.0899C25.466 18.0237 25.0261 17.5107 23.9794 17.2821C24.0102 17.2707 24.0331 17.2593 24.0582 17.2536C24.1165 17.2387 24.1759 17.2227 24.2365 17.2124C24.9153 17.097 25.4912 16.7862 25.9311 16.2594C26.6316 15.423 26.9881 14.4402 27.0292 13.3581C27.0647 12.4337 26.6224 11.82 25.7449 11.5618ZM20.1422 19.443C19.9605 20.5319 19.2144 21.1741 18.1037 21.1924C17.81 21.197 17.5152 21.1936 17.1838 21.1936C17.3209 20.6714 17.45 20.1789 17.5815 19.6864C17.6991 19.243 17.8294 18.8008 17.9345 18.354C17.9711 18.1963 18.0271 18.1334 18.1917 18.1449C18.547 18.17 18.907 18.1529 19.2578 18.202C19.9594 18.3003 20.2588 18.7402 20.1422 19.443ZM21.2758 15.2596C21.0644 15.96 20.5227 16.2583 19.8566 16.3543C19.412 16.4171 18.9573 16.4091 18.451 16.4365C18.6636 15.6412 18.859 14.9053 19.0624 14.1717C19.0761 14.1237 19.1584 14.0597 19.2064 14.062C19.6989 14.086 20.2016 14.0712 20.6804 14.1694C21.2518 14.286 21.4449 14.6985 21.2758 15.2596Z" fill="#282D6A"/>
<path d="M25.3655 23.9029C25.5232 23.3064 25.6706 22.7442 25.8203 22.1843C26.7596 18.675 27.7035 15.167 28.6348 11.6555C28.6999 11.4109 28.7913 11.3298 29.0507 11.3321C30.6299 11.3458 32.2091 11.339 33.7883 11.339H34.1003C33.9232 12.0051 33.754 12.6416 33.5826 13.2781C32.6651 16.7039 31.744 20.1274 30.839 23.5555C30.7636 23.8423 30.6448 23.9109 30.3648 23.9086C28.8039 23.8949 27.2418 23.9017 25.6798 23.9017H25.3655V23.9029Z" fill="#282D6A"/>
<path d="M13.2438 20.6188C13.2964 20.2417 13.3661 19.8657 13.4004 19.4864C13.6792 16.3919 12.5879 13.8963 10.1094 12.0166C9.03757 11.2041 7.81831 10.6762 6.57392 10.1883C4.03485 9.19069 2.43851 7.31324 1.61691 4.74904C1.14498 3.27496 0.951865 1.35066 1.13241 0C1.15869 0.0948436 1.18497 0.189687 1.21011 0.284531C1.52893 1.50493 2.21111 2.51507 3.05099 3.42694C4.43594 4.92958 6.13055 6.00143 7.93944 6.91216C9.93915 7.91773 11.6486 9.25582 12.7925 11.2235C13.8609 13.061 14.2025 15.0538 14.0346 17.1541C13.9489 18.2374 13.7238 19.2898 13.3867 20.3194C13.3524 20.4245 13.3101 20.5262 13.2712 20.6291C13.2621 20.6256 13.2518 20.6222 13.2427 20.6188H13.2438Z" fill="#282D6A"/>
<path d="M6.39566 15.8743C7.24925 15.6583 8.02971 15.7795 8.77703 16.1097C10.2214 16.7462 11.2738 17.7735 11.8063 19.2807C12.0131 19.8669 12.06 20.4736 11.8532 21.0747C11.4772 22.1683 10.4157 22.5831 9.34952 22.4756C8.06514 22.3465 6.95215 21.7786 5.90087 21.0758C4.18226 19.9274 2.83731 18.4477 2.00771 16.5359C1.49579 15.3567 1.25582 14.134 1.55521 12.8336C1.58835 12.925 1.62377 13.0153 1.65462 13.1067C2.12198 14.4859 2.74247 15.7817 3.76289 16.849C4.4188 17.5346 5.21069 17.9803 6.14427 18.1723C6.92815 18.3334 7.3738 17.8729 7.12013 17.1176C7.00814 16.7862 6.79789 16.4879 6.6242 16.1783C6.56935 16.0811 6.4905 15.9989 6.39452 15.8743H6.39566Z" fill="#282D6A"/>
<path d="M12.7376 20.1274C12.5251 17.818 11.1675 16.3508 9.1804 15.4024C8.37138 15.0161 7.4995 14.7328 6.62877 14.5065C4.18683 13.8712 2.45679 12.3845 1.30039 10.1848C0.597629 8.85131 0.266248 7.68462 0 5.78432C0.0399943 5.84259 0.070847 5.87345 0.0868447 5.91116C0.699329 7.36238 1.69804 8.50278 2.92758 9.45922C4.22111 10.4659 5.68719 11.1321 7.22754 11.6623C8.82388 12.2108 10.2648 13.021 11.3767 14.3271C12.2337 15.3338 12.7285 16.4982 12.8747 17.8157C12.9616 18.5951 12.9182 19.3607 12.7376 20.1263V20.1274Z" fill="#DF1F28"/>
<path d="M14.4688 13.045C14.4688 13.045 14.0986 11.4075 10.6865 7.70633C10.6865 7.70633 12.5388 9.09584 13.3398 9.59977C15.047 10.675 15.6903 11.3447 15.6903 11.3447L14.4688 13.0461V13.045Z" fill="#282D6A"/>
<path d="M14.9761 10.7436C14.9761 10.7436 15.8126 11.4007 16.5394 11.3504L16.0023 11.8783L15.1258 11.3012L14.9761 10.7436Z" fill="#282D6A"/>
</g>
<defs>
<linearGradient id="paint0_linear_801_8776" x1="39.3805" y1="0.0405602" x2="39.4366" y2="24.7919" gradientUnits="userSpaceOnUse">
<stop stop-color="#282D6A"/>
<stop offset="1" stop-color="#DF1F28"/>
</linearGradient>
<linearGradient id="paint1_linear_801_8776" x1="39.9944" y1="0" x2="39.9944" y2="24.8414" gradientUnits="userSpaceOnUse">
<stop stop-color="#282D6A"/>
<stop offset="1" stop-color="#DF1F28"/>
</linearGradient>
<linearGradient id="paint2_linear_801_8776" x1="39.9968" y1="-0.00312892" x2="39.9968" y2="24.8437" gradientUnits="userSpaceOnUse">
<stop stop-color="#282D6A"/>
<stop offset="1" stop-color="#DF1F28"/>
</linearGradient>
<linearGradient id="paint3_linear_801_8776" x1="40.0079" y1="-0.00312577" x2="40.0079" y2="24.8405" gradientUnits="userSpaceOnUse">
<stop stop-color="#282D6A"/>
<stop offset="1" stop-color="#DF1F28"/>
</linearGradient>
<clipPath id="clip0_801_8776">
<rect width="80.0012" height="24.8437" fill="white"/>
</clipPath>
</defs>
</svg>
