<svg width="80" height="43" viewBox="0 0 80 43" fill="none" xmlns="http://www.w3.org/2000/svg">
<g clip-path="url(#clip0_801_8773)">
<path d="M4.14588 3.48631V3.39209C4.14588 1.31915 5.88904 0.0471145 8.15043 0.0471145C10.4118 0.0471145 12.155 1.31915 12.155 3.39209V3.48631C12.155 5.55925 10.4118 6.8784 8.15043 6.8784C5.88904 6.8784 4.14588 5.55925 4.14588 3.48631ZM4.09877 42.354H4.00455C1.69604 42.354 0 41.4117 0 39.433C0 37.6899 1.27203 36.5592 2.77963 36.5592H2.82674C3.86321 36.5592 4.56989 35.8996 4.56989 34.2035V12.7203C4.56989 10.7416 6.17171 9.13979 8.15043 9.13979C10.1291 9.13979 11.731 10.7416 11.731 12.7203V34.2507C11.731 39.8099 8.81 42.354 4.09877 42.354Z" fill="#EE3124"/>
<path d="M21.142 35.1458C16.3837 35.1458 12.4734 32.4133 12.4734 27.4194V27.3251C12.4734 21.813 16.6663 19.2689 22.6496 19.2689C25.1937 19.2689 27.0311 19.6929 28.8213 20.3054V19.8814C28.8213 16.9133 26.9839 15.2644 23.4034 15.2644C21.4247 15.2644 19.8229 15.5471 18.4566 15.9711C18.0326 16.1124 17.7499 16.1595 17.4201 16.1595C15.7712 16.1595 14.4521 14.8875 14.4521 13.2386C14.4521 11.9665 15.253 10.8829 16.3837 10.4589C18.6451 9.61092 21.0949 9.13979 24.4399 9.13979C28.3502 9.13979 31.1769 10.1763 32.9672 11.9665C34.8517 13.851 35.6997 16.6307 35.6997 20.0227V31.5181C35.6997 33.4497 34.145 34.9573 32.2134 34.9573C30.1405 34.9573 28.7742 33.4969 28.7742 31.9893V31.9422C27.0311 33.8738 24.6283 35.1458 21.142 35.1458ZM23.3092 30.199C26.6542 30.199 28.9155 28.3616 28.9155 25.7704V24.4984C27.6906 23.9331 26.0888 23.5562 24.3457 23.5562C21.2834 23.5562 19.3989 24.7811 19.3989 27.0425V27.1367C19.3989 29.0683 21.0007 30.199 23.3092 30.199Z" fill="#EE3124"/>
<path d="M37.716 31.3768V3.58054C37.716 1.60182 39.3178 0 41.2965 0C43.2752 0 44.877 1.60182 44.877 3.58054V31.3768C44.877 33.3555 43.2752 34.9573 41.2965 34.9573C39.3178 34.9573 37.716 33.3555 37.716 31.3768Z" fill="#EE3124"/>
<path d="M47.0328 3.48631V3.39209C47.0328 1.31915 48.776 0.0471145 51.0373 0.0471145C53.2987 0.0471145 55.0419 1.31915 55.0419 3.39209V3.48631C55.0419 5.55925 53.2987 6.8784 51.0373 6.8784C48.776 6.8784 47.0328 5.55925 47.0328 3.48631ZM47.4568 31.3768V12.7203C47.4568 10.7416 49.0586 9.13979 51.0373 9.13979C53.0161 9.13979 54.6179 10.7416 54.6179 12.7203V31.3768C54.6179 33.3555 53.0161 34.9573 51.0373 34.9573C49.0586 34.9573 47.4568 33.3555 47.4568 31.3768Z" fill="#EE3124"/>
<path d="M56.8679 31.3768V12.7203C56.8679 10.7416 58.4697 9.13979 60.4484 9.13979C62.4271 9.13979 64.0289 10.7416 64.0289 12.7203V13.003C65.6779 10.8829 67.7979 8.95134 71.4256 8.95134C76.8435 8.95134 80 12.5319 80 18.3267V31.3768C80 33.3555 78.3982 34.9573 76.4195 34.9573C74.4408 34.9573 72.8389 33.3555 72.8389 31.3768V20.5881C72.8389 17.196 71.2371 15.4528 68.5046 15.4528C65.7721 15.4528 64.0289 17.196 64.0289 20.5881V31.3768C64.0289 33.3555 62.4271 34.9573 60.4484 34.9573C58.4697 34.9573 56.8679 33.3555 56.8679 31.3768Z" fill="#EE3124"/>
</g>
<defs>
<clipPath id="clip0_801_8773">
<rect width="80" height="42.354" fill="white"/>
</clipPath>
</defs>
</svg>
