<svg width="80" height="81" viewBox="0 0 80 81" fill="none" xmlns="http://www.w3.org/2000/svg">
<g clip-path="url(#clip0_801_8788)">
<g clip-path="url(#clip1_801_8788)">
<path d="M0.00193884 40.3769C0.00193884 29.9308 0.00220574 19.4844 0.00140504 9.03829C0.00140504 8.14899 0.00540852 7.26102 0.154871 6.37972C0.397482 4.95022 0.938484 3.65203 1.839 2.5113C2.82892 1.25662 4.12898 0.515441 5.68847 0.213046C6.40642 0.0739918 7.13319 0.0166087 7.86235 0.0104701C9.04471 0.000594831 10.2271 0.00646659 11.4097 0.00646659C31.5821 0.0048652 51.7543 0.0040645 71.9267 6.10352e-05C72.8 6.10352e-05 73.669 0.028886 74.5201 0.242137C76.6751 0.781538 78.2249 2.05411 79.1463 4.08093C79.706 5.31213 79.9894 6.60846 79.9963 7.95709C80.007 10.0552 79.987 12.1533 79.9862 14.2513C79.9795 32.3166 79.9734 50.3819 79.9694 68.4471C79.9691 69.914 79.9921 71.3809 79.9926 72.8477C79.9929 73.7138 79.8717 74.5658 79.6299 75.399C79.3112 76.4973 78.7977 77.4944 78.0664 78.3741C77.0687 79.5738 75.7735 80.2587 74.2532 80.5387C73.3057 80.7129 72.3468 80.7479 71.3857 80.7476C61.8908 80.7447 52.3959 80.7402 42.9007 80.7404C31.3344 80.7404 19.7679 80.7444 8.20158 80.7484C7.24795 80.7487 6.2994 80.7004 5.37219 80.4597C3.20178 79.8962 1.70128 78.5521 0.806369 76.513C0.277644 75.3083 0.0243583 74.0408 0.0102127 72.7292C-0.00526741 71.289 0.000604348 69.8489 0.000604348 68.4087C7.05523e-05 59.0649 0.00033745 49.721 0.00033745 40.3772H0.00193884V40.3769ZM44.2464 59.6667C44.3793 59.676 44.4575 59.6867 44.5357 59.6865C45.8956 59.6827 47.2557 59.679 48.6155 59.6712C48.784 59.6702 48.9534 59.6552 49.1202 59.6315C49.354 59.5984 49.508 59.4657 49.5617 59.2298C49.5814 59.1433 49.5988 59.056 49.6116 58.9682C49.7157 58.2561 49.8203 57.5443 49.9209 56.8317C50.2175 54.7294 50.5167 52.6273 50.806 50.5238C50.9271 49.6426 51.012 48.757 50.9442 47.8658C50.8311 46.3763 50.2535 45.1234 49.0551 44.1893C48.4303 43.7022 47.7329 43.3619 46.9749 43.1404C46.012 42.8588 45.0194 42.7702 44.0254 42.727C42.3005 42.6522 40.5763 42.6891 38.8639 42.9322C37.483 43.1284 36.5614 43.8997 36.1511 45.2398C36.027 45.6455 35.9536 46.0691 35.8861 46.4892C35.7225 47.5063 35.5744 48.5258 35.4233 49.5449C35.2568 50.6693 35.0884 51.7935 34.9303 52.9193C34.7008 54.5551 34.4772 56.192 34.2572 57.8291C34.1958 58.2866 34.1433 58.7462 34.112 59.2066C34.0915 59.5103 34.2177 59.6259 34.518 59.6451C34.589 59.6496 34.6602 59.6499 34.7312 59.6499C36.1535 59.6502 37.5756 59.6504 38.9979 59.6504C39.0689 59.6504 39.1401 59.644 39.2111 59.6478C39.3662 59.6555 39.438 59.573 39.4599 59.43C39.4815 59.2896 39.5076 59.1497 39.5263 59.0088C39.7086 57.6439 39.8866 56.2784 40.0724 54.9138C40.3326 53.0036 40.5955 51.0937 40.864 49.1848C40.9345 48.6839 41.0148 48.1832 41.1173 47.6878C41.1939 47.3187 41.4701 47.0982 41.8419 47.103C42.5527 47.1118 43.2637 47.131 43.9734 47.1684C44.6374 47.2034 45.077 47.5581 45.3079 48.1802C45.436 48.5256 45.5238 48.8784 45.4952 49.2478C45.4616 49.6815 45.4186 50.1147 45.3647 50.5463C45.1979 51.8858 45.0231 53.2246 44.8536 54.5639C44.6796 55.9384 44.5061 57.3129 44.3372 58.6883C44.2985 59.0035 44.2779 59.3211 44.2462 59.6672L44.2464 59.6667ZM24.3041 54.7496C24.1813 54.7432 24.1122 54.7366 24.043 54.7363C21.3404 54.7344 18.6378 54.7336 15.9355 54.7315C15.7756 54.7315 15.6152 54.7272 15.4559 54.7141C15.0683 54.6821 14.8148 54.4833 14.7075 54.1024C14.6266 53.8158 14.601 53.5259 14.6421 53.2315C14.869 51.6125 15.0953 49.9933 15.3256 48.3745C15.5485 46.8086 15.778 45.2438 16.0006 43.6782C16.2269 42.0859 16.449 40.493 16.6719 38.9002C16.71 38.6274 16.7549 38.3549 16.7765 38.0808C16.8069 37.6978 16.635 37.4942 16.2552 37.4469C16.1234 37.4306 15.9891 37.433 15.8557 37.4325C14.6378 37.428 13.4197 37.4245 12.2018 37.4208C11.9886 37.42 11.7751 37.424 11.5618 37.417C11.3222 37.4093 11.1788 37.5353 11.094 37.7418C11.0606 37.8232 11.0344 37.9103 11.0219 37.9973C10.9426 38.5511 10.865 39.1052 10.7932 39.66C10.657 40.7084 10.5231 41.7568 10.392 42.8057C10.2401 44.0219 10.0958 45.2393 9.94175 46.4555C9.77548 47.7684 9.60439 49.081 9.43118 50.3931C9.2601 51.6875 9.08021 52.9809 8.91099 54.2756C8.83973 54.8212 8.74365 55.3659 8.77941 55.9205C8.82932 56.6927 9.08741 57.3757 9.63936 57.9327C10.3552 58.6549 11.2012 59.1532 12.1805 59.4326C12.9249 59.6451 13.6869 59.6763 14.4515 59.6806C15.9894 59.6894 17.5275 59.6918 19.0654 59.6918C20.4701 59.6918 21.8745 59.6851 23.2792 59.6792C23.383 59.6787 23.4868 59.6614 23.6059 59.6504C23.8386 58.0157 24.0687 56.4007 24.3038 54.7496H24.3041ZM35.9459 26.3311C35.9696 26.3306 35.9937 26.3301 36.0174 26.3295C36.0404 26.4019 36.0705 26.4729 36.0855 26.5468C36.3046 27.644 36.5211 28.7418 36.7391 29.839C36.8966 30.6317 37.0466 31.4257 37.2163 32.2157C37.318 32.6887 37.638 32.9417 38.123 32.9665C38.3269 32.9769 38.5319 32.9673 38.736 32.9724C39.2469 32.9852 39.6 32.7519 39.8108 32.292C39.8367 32.2355 39.8669 32.181 39.8933 32.1247C40.251 31.3603 40.6081 30.5956 40.9654 29.8312C41.4736 28.7452 41.981 27.6587 42.4924 26.5743C42.5292 26.4961 42.5369 26.3832 42.6659 26.3517C42.6659 26.4104 42.672 26.4539 42.6651 26.4953C42.494 27.5202 42.3213 28.5451 42.1491 29.5697C41.9874 30.5332 41.8235 31.4964 41.6652 32.4605C41.6089 32.8029 41.7477 32.962 42.099 32.9681C42.3744 32.9729 42.6501 32.9692 42.9255 32.9689C43.3077 32.9684 43.6902 32.975 44.0721 32.9649C44.3897 32.9564 44.5603 32.8154 44.6537 32.5125C44.6772 32.4364 44.6959 32.358 44.7084 32.2792C44.8846 31.1737 45.0613 30.0683 45.2337 28.9622C45.4774 27.3995 45.7186 25.8366 45.9586 24.2734C46.0328 23.7905 46.1222 23.3083 46.1641 22.8222C46.2281 22.0811 45.831 21.2697 44.7837 21.2644C44.437 21.2625 44.0906 21.2609 43.7439 21.2644C43.2007 21.2697 42.7598 21.4974 42.4342 21.9225C42.2572 22.1534 42.1011 22.4069 41.9759 22.6696C41.0055 24.706 40.0452 26.7475 39.0795 28.7866C39.0422 28.8653 39.0272 28.9654 38.9365 29.0201C38.9173 28.986 38.9037 28.9718 38.9013 28.9558C38.7534 28.0438 38.6069 27.1318 38.4593 26.2199C38.2831 25.1322 38.1126 24.0438 37.9268 22.9578C37.7707 22.0458 37.1565 21.4362 36.2544 21.2929C36.0281 21.2569 35.7935 21.2649 35.5629 21.2649C31.8028 21.2622 28.0425 21.2614 24.2824 21.2604C24.007 21.2604 23.731 21.2545 23.4559 21.2636C23.0496 21.2772 22.7392 21.4816 22.6205 21.8569C22.5124 22.1982 22.463 22.5698 22.4577 22.929C22.4515 23.3486 22.7531 23.6416 23.1703 23.6926C23.3723 23.7171 23.5781 23.7174 23.782 23.718C24.5643 23.7201 25.3466 23.7163 26.1286 23.7185C26.2479 23.7188 26.3669 23.739 26.4988 23.7513C26.4892 23.8818 26.4889 23.9795 26.4737 24.0748C26.3578 24.8026 26.2385 25.5302 26.1211 26.2578C25.9129 27.5466 25.7042 28.8354 25.4971 30.1246C25.373 30.8964 25.2497 31.668 25.1304 32.4407C25.0719 32.8186 25.2027 32.9652 25.5935 32.9689C25.8956 32.9718 26.198 32.9694 26.5001 32.9689C26.8468 32.9684 27.1938 32.975 27.5399 32.9638C27.8575 32.9537 28.0265 32.8114 28.1159 32.5064C28.1383 32.4298 28.1557 32.3513 28.1685 32.2726C28.417 30.7467 28.6649 29.2211 28.9121 27.695C29.1053 26.5025 29.2967 25.3095 29.4915 24.117C29.5449 23.7905 29.6132 23.7289 29.9452 23.727C30.4518 23.7244 30.9586 23.7313 31.4652 23.7356C31.892 23.7393 32.3187 23.7377 32.745 23.7516C33.1862 23.766 33.3119 23.9309 33.2411 24.3633C33.1069 25.1872 32.9753 26.0117 32.8424 26.8359C32.5993 28.3438 32.3553 29.8518 32.113 31.36C32.0524 31.7372 31.9939 32.1146 31.9392 32.4925C31.9149 32.6593 31.9339 32.8248 32.1026 32.9078C32.1933 32.9524 32.3067 32.9668 32.41 32.9676C33.0146 32.9724 33.6191 32.9721 34.2233 32.9681C34.704 32.9649 34.8756 32.8205 34.9739 32.351C34.9829 32.3075 34.9888 32.2635 34.9957 32.2195C35.2632 30.5529 35.5301 28.8862 35.7978 27.2197C35.8455 26.9231 35.8963 26.6271 35.9456 26.3309L35.9459 26.3311ZM55.3483 59.6977V59.699C55.7751 59.699 56.2016 59.7003 56.6284 59.6987C56.9751 59.6974 57.322 59.7022 57.6679 59.6865C57.9802 59.6723 58.1184 59.5551 58.1921 59.2522C58.2423 59.0456 58.274 58.8337 58.3023 58.6226C58.4529 57.5043 58.5989 56.3857 58.7478 55.2672C58.9365 53.8494 59.1268 52.4319 59.3149 51.0141C59.4844 49.7373 59.651 48.4599 59.8199 47.1828C60.0252 45.6327 60.2304 44.0825 60.4378 42.5327C60.6251 41.1325 60.8154 39.7329 61.0036 38.3327C61.0543 37.9543 61.1141 37.5764 61.1464 37.196C61.1728 36.8846 61.0159 36.6905 60.7103 36.6233C60.5816 36.595 60.4463 36.5856 60.3142 36.5851C58.9723 36.5814 57.63 36.5814 56.2878 36.5803C56.2435 36.5803 56.1986 36.58 56.1546 36.584C55.8973 36.6075 55.7289 36.7511 55.6384 36.9849C55.6003 37.0831 55.5786 37.1902 55.5642 37.295C55.4046 38.4384 55.2429 39.5813 55.0916 40.7258C54.933 41.9233 54.7868 43.1222 54.6322 44.3203C54.5028 45.3247 54.3691 46.3282 54.2369 47.3323C54.0854 48.4858 53.934 49.6393 53.7813 50.7929C53.6145 52.0518 53.4459 53.3105 53.2788 54.5695C53.1256 55.7228 52.9719 56.876 52.8219 58.0296C52.7682 58.4432 52.7124 58.8575 52.6812 59.2733C52.6612 59.5402 52.789 59.6627 53.0551 59.6891C53.1432 59.6979 53.2326 59.6969 53.3215 59.6969C53.997 59.6974 54.6725 59.6971 55.348 59.6971L55.3483 59.6977ZM68.4629 43.2431V43.2365C67.734 43.2365 67.0043 43.253 66.2762 43.2295C65.9009 43.2175 65.6217 43.3443 65.397 43.6285C65.353 43.6843 65.3049 43.7369 65.259 43.7913C64.3753 44.8368 63.493 45.8836 62.6074 46.9277C61.8024 47.8768 61.0009 48.829 60.1834 49.7675C59.9301 50.0581 59.8493 50.3402 60.0465 50.6827C60.0775 50.7363 60.097 50.7961 60.1231 50.8527C61.0663 52.8822 62.0095 54.9116 62.9533 56.9409C63.7134 58.5756 64.4834 60.2058 65.2297 61.8467C65.4485 62.3277 65.756 62.5391 66.3013 62.5228C67.5004 62.487 68.7012 62.5081 69.9015 62.5044C70.0523 62.5038 70.2041 62.5025 70.3539 62.4859C70.7195 62.4459 70.87 62.23 70.7681 61.875C70.7144 61.6882 70.6354 61.5072 70.554 61.33C69.342 58.6891 68.1285 56.0492 66.9141 53.4095C66.4945 52.4973 66.0837 51.5808 65.6436 50.6786C65.4928 50.3699 65.5273 50.1475 65.7739 49.926C65.9055 49.8078 66.016 49.666 66.1366 49.5353C67.6865 47.8567 69.2486 46.1897 70.712 44.4338C70.8316 44.2904 70.9509 44.1469 71.0649 43.999C71.1188 43.9291 71.1674 43.853 71.2058 43.7737C71.3254 43.5279 71.154 43.2298 70.8634 43.2367C70.0637 43.2559 69.2633 43.2434 68.4631 43.2434L68.4629 43.2431ZM28.0134 59.6987V59.6937C28.6801 59.6937 29.3468 59.6939 30.0136 59.6934C30.1291 59.6934 30.245 59.6942 30.36 59.6865C30.6453 59.667 30.7598 59.58 30.8335 59.3056C30.8794 59.1345 30.9111 58.9586 30.9357 58.7833C31.0678 57.8419 31.1964 56.9 31.3254 55.9579C31.5178 54.5495 31.7105 53.1413 31.9011 51.7326C32.0665 50.5089 32.2264 49.2844 32.3935 48.0606C32.5774 46.7139 32.7685 45.3679 32.9518 44.0209C32.9745 43.8546 32.9841 43.6833 32.9716 43.5164C32.9558 43.3037 32.8304 43.1756 32.6185 43.1436C32.4522 43.1182 32.2825 43.1081 32.114 43.1073C30.8874 43.1011 29.6607 43.0987 28.434 43.0953C28.2742 43.0947 28.114 43.0931 27.9542 43.0947C27.4767 43.099 27.3264 43.2183 27.2181 43.6894C27.1842 43.8362 27.1607 43.9862 27.1431 44.1359C26.9581 45.7151 26.7806 47.2949 26.5909 48.8736C26.3907 50.5404 26.1804 52.2058 25.9724 53.8716C25.7811 55.4051 25.5852 56.9382 25.3949 58.4721C25.3599 58.7539 25.3314 59.0374 25.3204 59.3211C25.3105 59.5749 25.4096 59.6699 25.6671 59.6913C25.7731 59.7001 25.8804 59.699 25.9869 59.699C26.6624 59.6995 27.3379 59.6993 28.0134 59.6993V59.6987ZM21.6556 32.9694V32.9686C21.9757 32.9686 22.2957 32.974 22.6157 32.9673C22.9909 32.9596 23.1046 32.8138 23.0392 32.441C23.0302 32.3887 23.015 32.3372 23.0029 32.2854C22.337 29.4122 21.6711 26.5393 21.0055 23.6662C20.7989 22.7747 20.6003 21.8817 20.3852 20.9924C20.2686 20.5109 20.0097 20.3006 19.5156 20.2862C18.965 20.2699 18.4136 20.2752 17.8625 20.2792C17.5142 20.2819 17.2518 20.4506 17.0698 20.7412C16.9708 20.8992 16.8824 21.0639 16.7949 21.2286C15.1756 24.2814 13.5558 27.3336 11.94 30.388C11.5912 31.0472 11.2504 31.7113 10.9202 32.3799C10.7518 32.7212 10.9077 32.963 11.2896 32.9673C11.9472 32.9748 12.6051 32.9662 13.2628 32.9694C13.4902 32.9705 13.6535 32.8771 13.7635 32.6801C13.8673 32.4941 13.981 32.3131 14.0787 32.1239C14.3437 31.6109 14.6173 31.1014 14.8591 30.5775C15.0077 30.2554 15.2047 30.1227 15.5749 30.1307C16.721 30.1558 17.8681 30.1398 19.0147 30.14C19.5525 30.14 19.5552 30.1401 19.6726 30.6781C19.7975 31.2506 19.9104 31.826 20.0404 32.3975C20.1367 32.8213 20.3201 32.9622 20.7493 32.9681C21.0514 32.9724 21.3538 32.9689 21.6559 32.9689L21.6556 32.9694ZM33.8294 38.0186C33.8265 37.9588 33.8251 37.8521 33.8152 37.7458C33.6962 36.4498 32.7034 35.5741 31.4057 35.6168C30.8345 35.6357 30.3408 35.8703 29.8697 36.1647C28.6102 36.9518 27.8984 38.4924 28.1525 39.9168C28.3089 40.7935 28.7944 41.4186 29.638 41.7514C30.1208 41.942 30.5954 41.879 31.0729 41.7416C32.3649 41.3698 33.783 40.1791 33.8294 38.0183V38.0186Z" fill="#E82529"/>
<path d="M44.2461 59.6667C44.2779 59.3205 44.2984 59.0032 44.3371 58.6877C44.5064 57.3127 44.6796 55.9379 44.8536 54.5633C45.0231 53.224 45.1982 51.8856 45.3647 50.5457C45.4183 50.1142 45.4616 49.681 45.4952 49.2473C45.5238 48.8779 45.436 48.525 45.3078 48.1797C45.077 47.5575 44.6374 47.2031 43.9734 47.1679C43.2637 47.1302 42.5527 47.1113 41.8419 47.1025C41.4701 47.0977 41.1939 47.3181 41.1173 47.6872C41.0145 48.1826 40.9345 48.683 40.864 49.1843C40.5955 51.0934 40.3326 53.0031 40.0724 54.9132C39.8866 56.2776 39.7086 57.6433 39.5263 59.0083C39.5074 59.1492 39.4812 59.289 39.4598 59.4294C39.438 59.5725 39.3659 59.6547 39.2111 59.6472C39.1404 59.6437 39.0688 59.6499 38.9978 59.6499C37.5755 59.6499 36.1535 59.6499 34.7312 59.6493C34.6602 59.6493 34.589 59.6491 34.518 59.6445C34.2177 59.6253 34.0915 59.5098 34.112 59.206C34.1432 58.7456 34.1958 58.286 34.2572 57.8286C34.4771 56.1914 34.7008 54.5545 34.9303 52.9187C35.0883 51.7929 35.2565 50.6688 35.4233 49.5443C35.5743 48.5253 35.7225 47.5058 35.8861 46.4886C35.9536 46.0685 36.027 45.6449 36.1511 45.2393C36.5613 43.8992 37.4829 43.1278 38.8639 42.9317C40.576 42.6885 42.3004 42.6517 44.0254 42.7264C45.0193 42.7694 46.0119 42.8583 46.9749 43.1398C47.7329 43.3614 48.4303 43.7017 49.0551 44.1887C50.2535 45.1232 50.831 46.376 50.9442 47.8653C51.012 48.7564 50.9271 49.642 50.8059 50.5233C50.5166 52.6267 50.2174 54.7288 49.9209 56.8312C49.8203 57.5438 49.7157 58.2556 49.6116 58.9677C49.5988 59.0555 49.5812 59.1428 49.5617 59.2292C49.5083 59.4652 49.354 59.5978 49.1202 59.6309C48.9534 59.6544 48.7839 59.6696 48.6155 59.6707C47.2557 59.6784 45.8956 59.6822 44.5357 59.6859C44.4575 59.6859 44.3793 59.6755 44.2464 59.6662L44.2461 59.6667Z" fill="white"/>
<path d="M24.3041 54.7499C24.0689 56.4009 23.8391 58.0159 23.6061 59.6507C23.4868 59.6616 23.3833 59.679 23.2795 59.6795C21.8748 59.6854 20.4704 59.6918 19.0657 59.692C17.5278 59.692 15.9897 59.6896 14.4518 59.6808C13.6871 59.6766 12.9249 59.6453 12.1808 59.4329C11.2015 59.1534 10.3555 58.6551 9.63964 57.9329C9.0877 57.3759 8.82961 56.6926 8.7797 55.9208C8.74393 55.3662 8.84001 54.8214 8.91128 54.2759C9.08049 52.9812 9.26038 51.6878 9.43146 50.3933C9.60495 49.0812 9.77603 47.7689 9.94204 46.4558C10.096 45.2398 10.2404 44.0225 10.3923 42.8059C10.5233 41.757 10.6573 40.7084 10.7934 39.6603C10.8655 39.1054 10.9432 38.5513 11.0222 37.9975C11.0347 37.9105 11.0609 37.8235 11.0942 37.7421C11.1791 37.5352 11.3222 37.4095 11.5621 37.4173C11.7754 37.4242 11.9886 37.4202 12.2021 37.421C13.42 37.4247 14.6381 37.4282 15.856 37.4327C15.9891 37.4333 16.1237 37.4306 16.2555 37.4472C16.6353 37.4944 16.8072 37.698 16.7768 38.081C16.7551 38.3551 16.7103 38.6277 16.6721 38.9004C16.4493 40.4933 16.2272 42.0861 16.0009 43.6784C15.7783 45.2443 15.5488 46.8091 15.3259 48.3748C15.0956 49.9935 14.8692 51.6125 14.6424 53.2318C14.601 53.5262 14.6269 53.816 14.7078 54.1027C14.8151 54.4835 15.0686 54.6821 15.4561 54.7144C15.6155 54.7275 15.7759 54.7317 15.9358 54.7317C18.6384 54.7339 21.341 54.7349 24.0433 54.7365C24.1125 54.7365 24.1816 54.7432 24.3044 54.7499H24.3041Z" fill="white"/>
<path d="M35.946 26.3314C35.8967 26.6277 35.8457 26.9237 35.7982 27.2202C35.5305 28.8867 35.2633 30.5532 34.9962 32.22C34.9892 32.2638 34.9833 32.3081 34.9743 32.3516C34.8761 32.821 34.7044 32.9657 34.2238 32.9686C33.6192 32.9726 33.0147 32.9732 32.4104 32.9681C32.3072 32.9673 32.1937 32.9529 32.103 32.9083C31.9343 32.8253 31.9156 32.6601 31.9396 32.493C31.9946 32.1151 32.0528 31.7377 32.1134 31.3606C32.3557 29.8523 32.5997 28.3444 32.8428 26.8364C32.9757 26.0122 33.1073 25.1878 33.2416 24.3638C33.312 23.9315 33.1866 23.7665 32.7454 23.7521C32.3192 23.7382 31.8921 23.7398 31.4656 23.7361C30.9591 23.7318 30.4522 23.7246 29.9456 23.7276C29.6134 23.7294 29.545 23.7911 29.4919 24.1175C29.2974 25.31 29.106 26.5028 28.9125 27.6955C28.6651 29.2214 28.4174 30.7472 28.1689 32.2731C28.1561 32.3518 28.1387 32.4303 28.1163 32.5069C28.0269 32.812 27.858 32.954 27.5404 32.9644C27.1939 32.9756 26.8472 32.9689 26.5005 32.9694C26.1984 32.97 25.896 32.9724 25.5939 32.9694C25.2031 32.9657 25.0724 32.8192 25.1308 32.4412C25.2501 31.6688 25.3737 30.897 25.4975 30.1251C25.7046 28.836 25.9134 27.5471 26.1215 26.2583C26.2392 25.5307 26.3583 24.8032 26.4741 24.0753C26.4893 23.98 26.4896 23.8824 26.4992 23.7518C26.3673 23.7396 26.248 23.7193 26.129 23.719C25.3467 23.7169 24.5645 23.7204 23.7824 23.7185C23.5783 23.718 23.3728 23.7177 23.1707 23.6931C22.7538 23.6424 22.4522 23.3491 22.4581 22.9295C22.4632 22.5703 22.5128 22.1988 22.6209 21.8574C22.7397 21.4824 23.0501 21.2777 23.4563 21.2641C23.7315 21.2548 24.0074 21.2609 24.2829 21.2609C28.0429 21.262 31.8033 21.2628 35.5633 21.2654C35.7942 21.2654 36.0285 21.2577 36.2548 21.2935C37.157 21.4365 37.7714 22.0461 37.9272 22.9584C38.113 24.0444 38.2835 25.1328 38.4597 26.2204C38.6076 27.1324 38.7538 28.0446 38.9017 28.9564C38.9043 28.9724 38.9177 28.9865 38.9369 29.0207C39.0277 28.966 39.0426 28.8659 39.08 28.7871C40.0456 26.7483 41.0059 24.7068 41.9763 22.6701C42.1015 22.4075 42.2577 22.1539 42.4346 21.9231C42.7602 21.4979 43.2011 21.2702 43.7443 21.2649C44.091 21.2614 44.4374 21.2633 44.7841 21.2649C45.8311 21.2702 46.2283 22.0816 46.1645 22.8228C46.1226 23.3088 46.0332 23.7908 45.959 24.2739C45.7191 25.8371 45.4775 27.4001 45.2341 28.9628C45.0617 30.0688 44.885 31.1743 44.7088 32.2798C44.6963 32.3585 44.6776 32.4367 44.6541 32.513C44.561 32.816 44.3904 32.9569 44.0726 32.9654C43.6906 32.9756 43.3082 32.9692 42.926 32.9694C42.6505 32.9697 42.3748 32.9737 42.0994 32.9686C41.7481 32.9625 41.6096 32.8034 41.6657 32.461C41.8239 31.497 41.9878 30.5337 42.1496 29.5702C42.3217 28.5453 42.4944 27.5207 42.6655 26.4958C42.6724 26.4545 42.6663 26.411 42.6663 26.3522C42.5371 26.3837 42.5296 26.4969 42.4928 26.5748C41.9811 27.6592 41.4738 28.7458 40.9659 29.8318C40.6082 30.5962 40.2511 31.3608 39.8937 32.1252C39.8673 32.1816 39.8372 32.236 39.8113 32.2926C39.6004 32.7525 39.2476 32.9857 38.7365 32.9729C38.532 32.9678 38.3273 32.9774 38.1234 32.967C37.6387 32.9422 37.3184 32.6892 37.2168 32.2163C37.047 31.4262 36.897 30.6322 36.7395 29.8395C36.5215 28.742 36.305 27.6443 36.0859 26.5473C36.0712 26.4734 36.0411 26.4024 36.0178 26.3301C35.9941 26.3306 35.9701 26.3312 35.9463 26.3317L35.946 26.3314Z" fill="white"/>
<path d="M55.3481 59.698C54.6726 59.698 53.997 59.698 53.3215 59.6977C53.2326 59.6977 53.1432 59.6988 53.0552 59.6899C52.7891 59.6638 52.6612 59.541 52.6812 59.2741C52.7122 58.8583 52.768 58.4441 52.8219 58.0304C52.9719 56.8766 53.1256 55.7236 53.2788 54.5703C53.4459 53.3114 53.6148 52.0527 53.7814 50.7937C53.9341 49.6404 54.0854 48.4866 54.237 47.3331C54.3691 46.3293 54.5025 45.3255 54.6323 44.3212C54.7868 43.1231 54.9331 41.9242 55.0916 40.7266C55.2429 39.5821 55.4047 38.439 55.5643 37.2959C55.5789 37.191 55.6006 37.084 55.6385 36.9857C55.7289 36.7522 55.8976 36.6083 56.1546 36.5849C56.1987 36.5809 56.2435 36.5811 56.2878 36.5811C57.6301 36.5819 58.972 36.5822 60.3143 36.5859C60.4466 36.5862 60.5817 36.5958 60.7103 36.6241C61.0159 36.6911 61.1729 36.8854 61.1464 37.1969C61.1141 37.5769 61.0544 37.9548 61.0036 38.3336C60.8155 39.7335 60.6252 41.1333 60.4378 42.5335C60.2304 44.0834 60.0252 45.6335 59.82 47.1836C59.651 48.4607 59.4845 49.7379 59.315 51.015C59.1268 52.4327 58.9365 53.8502 58.7478 55.268C58.5992 56.3863 58.4529 57.5051 58.3024 58.6234C58.2741 58.8345 58.2423 59.0465 58.1921 59.253C58.1185 59.556 57.9802 59.6731 57.668 59.6873C57.3221 59.703 56.9748 59.6982 56.6284 59.6996C56.2019 59.7012 55.7751 59.6998 55.3483 59.6998V59.6985L55.3481 59.698Z" fill="white"/>
<path d="M68.463 43.2434C69.2631 43.2434 70.0635 43.256 70.8632 43.2367C71.1538 43.2298 71.3252 43.5279 71.2056 43.7737C71.1672 43.853 71.1186 43.9291 71.0647 43.999C70.9507 44.1466 70.8314 44.2902 70.7118 44.4338C69.2484 46.1897 67.686 47.8568 66.1364 49.5353C66.0158 49.6658 65.9053 49.8078 65.7737 49.926C65.5273 50.1473 65.4929 50.3696 65.6434 50.6787C66.0836 51.5808 66.4943 52.4976 66.9139 53.4096C68.1283 56.0492 69.3421 58.6893 70.5538 61.33C70.6352 61.5072 70.7142 61.6882 70.7679 61.875C70.8698 62.2297 70.7193 62.4459 70.3537 62.486C70.2039 62.5025 70.0521 62.5038 69.9013 62.5044C68.701 62.5081 67.5003 62.4868 66.3011 62.5228C65.7558 62.5391 65.4483 62.3277 65.2295 61.8467C64.483 60.2059 63.7132 58.5754 62.9531 56.9409C62.0094 54.9117 61.0661 52.8822 60.1229 50.8527C60.0968 50.7964 60.0773 50.7363 60.0463 50.6827C59.8488 50.3402 59.93 50.0581 60.1832 49.7675C61.0008 48.8293 61.8023 47.877 62.6072 46.9277C63.4925 45.8836 64.3752 44.8371 65.2589 43.7914C65.3048 43.7372 65.3528 43.6843 65.3968 43.6286C65.6216 43.344 65.9007 43.2175 66.276 43.2295C67.0044 43.2528 67.7338 43.2365 68.4627 43.2365V43.2432L68.463 43.2434Z" fill="white"/>
<path d="M28.0135 59.699C27.338 59.699 26.6625 59.6992 25.9869 59.6987C25.8804 59.6987 25.7732 59.6998 25.6672 59.691C25.4096 59.6696 25.3106 59.5746 25.3205 59.3208C25.3317 59.0373 25.36 58.7536 25.395 58.4718C25.5853 56.9379 25.7809 55.4049 25.9725 53.8713C26.1804 52.2055 26.3905 50.5401 26.5909 48.8733C26.7807 47.2949 26.9582 45.7149 27.1431 44.1356C27.1608 43.9859 27.1842 43.8359 27.2181 43.6891C27.3265 43.218 27.4768 43.099 27.9542 43.0944C28.1141 43.0931 28.2743 43.0944 28.4341 43.095C29.6608 43.0985 30.8874 43.1006 32.1141 43.107C32.2825 43.1078 32.4523 43.1182 32.6185 43.1433C32.8305 43.1756 32.9559 43.3034 32.9717 43.5161C32.9839 43.683 32.9743 43.8543 32.9519 44.0206C32.7685 45.3676 32.5774 46.7133 32.3936 48.0603C32.2265 49.2838 32.0666 50.5086 31.9011 51.7323C31.7106 53.141 31.5181 54.5494 31.3254 55.9576C31.1968 56.8995 31.0681 57.8414 30.9358 58.783C30.9112 58.9586 30.8794 59.1345 30.8335 59.3053C30.7596 59.5797 30.6454 59.6667 30.3601 59.6862C30.245 59.6939 30.1292 59.6931 30.0136 59.6931C29.3469 59.6936 28.6802 59.6934 28.0135 59.6934V59.6984V59.699Z" fill="white"/>
<path d="M21.6557 32.9697C21.3535 32.9697 21.0511 32.9731 20.749 32.9689C20.3198 32.963 20.1365 32.8218 20.0401 32.3982C19.9102 31.8268 19.7973 31.2517 19.6724 30.6789C19.5549 30.1406 19.5522 30.1408 19.0144 30.1408C17.8679 30.1408 16.7207 30.1566 15.5747 30.1315C15.2045 30.1235 15.0075 30.2561 14.8588 30.5783C14.617 31.1022 14.3437 31.6117 14.0784 32.1247C13.9808 32.3139 13.8668 32.4946 13.7632 32.6809C13.6535 32.8779 13.4902 32.9713 13.2625 32.9702C12.6049 32.967 11.947 32.9755 11.2894 32.9681C10.9074 32.9638 10.7516 32.7217 10.92 32.3806C11.2501 31.7118 11.5909 31.048 11.9398 30.3888C13.5556 27.3344 15.1754 24.2819 16.7947 21.2294C16.8819 21.0647 16.9705 20.8997 17.0696 20.742C17.2519 20.4514 17.5142 20.2827 17.8623 20.28C18.4134 20.2757 18.9648 20.2707 19.5154 20.2869C20.0094 20.3014 20.2686 20.5117 20.385 20.9932C20.6001 21.8825 20.7989 22.7755 21.0052 23.6669C21.6709 26.5401 22.3368 29.4133 23.0027 32.2861C23.0147 32.3382 23.0297 32.3894 23.039 32.4418C23.1044 32.8146 22.9907 32.9603 22.6154 32.9681C22.2957 32.9747 21.9754 32.9694 21.6554 32.9694V32.9702L21.6557 32.9697ZM18.2324 23.774C18.009 23.9872 16.2598 27.5927 16.2264 27.8797C16.3222 27.8866 16.417 27.8989 16.5123 27.8994C17.2145 27.9029 17.9167 27.908 18.6186 27.9045C19.0964 27.9023 19.1068 27.8839 19.0118 27.4227C18.802 26.4051 18.593 25.3874 18.3808 24.3702C18.3416 24.1818 18.2882 23.996 18.2324 23.774Z" fill="white"/>
<path d="M33.8296 38.0189C33.7832 40.1797 32.3651 41.3703 31.0731 41.7421C30.5959 41.8796 30.1213 41.9423 29.6382 41.752C28.7946 41.4192 28.3091 40.7938 28.1527 39.9173C27.8986 38.4929 28.6104 36.9524 29.8699 36.1653C30.341 35.8709 30.8347 35.636 31.4059 35.6173C32.7033 35.5746 33.6964 36.4503 33.8155 37.7464C33.8251 37.8523 33.8267 37.9591 33.8296 38.0192V38.0189Z" fill="white"/>
<path d="M18.2326 23.774C18.2884 23.996 18.3417 24.1818 18.381 24.3702C18.5931 25.3874 18.8021 26.4051 19.0119 27.4227C19.1069 27.8839 19.0965 27.9021 18.6188 27.9045C17.9166 27.9077 17.2144 27.9029 16.5124 27.8994C16.4174 27.8989 16.3224 27.8866 16.2266 27.8797C16.2599 27.5928 18.0092 23.9872 18.2326 23.774Z" fill="#E82529"/>
</g>
</g>
<defs>
<clipPath id="clip0_801_8788">
<rect width="80" height="80.7481" fill="white"/>
</clipPath>
<clipPath id="clip1_801_8788">
<rect width="80" height="80.7481" fill="white"/>
</clipPath>
</defs>
</svg>
