<svg width="80" height="35" viewBox="0 0 80 35" fill="none" xmlns="http://www.w3.org/2000/svg">
<g clip-path="url(#clip0_801_8782)">
<path fill-rule="evenodd" clip-rule="evenodd" d="M3.6295 2.31355H9.68412C10.1451 2.31355 10.4992 2.72081 10.4336 3.17539L7.62169 22.6142C7.51343 23.3624 8.09603 24.0324 8.85435 24.0324H19.4758C19.7775 24.0324 20.0087 24.2994 19.9648 24.5966L19.1408 30.1797C19.0982 30.4698 18.8484 30.6852 18.5537 30.6852H6.54388C2.97146 30.6852 -0.454534 27.7654 0.0495363 24.2406L2.87916 2.96888C2.92885 2.5939 3.24967 2.31355 3.6295 2.31355Z" fill="#E82529"/>
<path fill-rule="evenodd" clip-rule="evenodd" d="M23.8189 10.07L21.0474 29.8944C21.0035 30.2088 21.2484 30.4896 21.567 30.4896H27.426C27.8426 30.4896 28.1958 30.1836 28.2535 29.7724L30.998 10.2703C31.0565 9.82103 30.7055 9.42262 30.2507 9.42262H24.5653C24.189 9.42262 23.8709 9.69899 23.8189 10.07Z" fill="#E82529"/>
<path fill-rule="evenodd" clip-rule="evenodd" d="M60.1628 1.18747H66.5178C66.7543 1.18747 66.9363 1.39574 66.9039 1.62921L62.9494 30.1773C62.9201 30.3891 62.7382 30.5469 62.5234 30.5469H56.2492C55.9883 30.5469 55.7877 30.3174 55.8237 30.0601L59.7768 1.52309C59.8034 1.33073 59.968 1.18747 60.1628 1.18747Z" fill="#E82529"/>
<path fill-rule="evenodd" clip-rule="evenodd" d="M65.0804 18.3881L72.2625 10.0063C72.4888 9.74229 72.8198 9.59018 73.1686 9.59018H79.4735C79.9287 9.59018 80.1683 10.1274 79.8639 10.464L72.5203 18.5857L79.2334 32.9738C79.4797 33.5018 79.0927 34.1059 78.5088 34.1059H72.8101C72.5123 34.1059 72.2421 33.933 72.1178 33.6637L65.0804 18.3881Z" fill="#E82529"/>
<path fill-rule="evenodd" clip-rule="evenodd" d="M32.2257 4.05448C31.7118 6.21459 29.7599 7.82197 27.7161 7.82197C25.6728 7.82197 24.1055 6.07088 24.6198 3.91121C25.1336 1.75109 26.8256 0 29.2505 0C31.2939 0 32.7395 1.89436 32.2257 4.05448Z" fill="#E82529"/>
<path d="M43.6138 14.69C43.3692 14.69 43.0294 14.7033 42.5946 14.73C42.1869 14.7566 41.8064 14.7966 41.453 14.85L39.3331 29.6896C39.2787 30.0096 39.1972 30.2229 39.0885 30.3296C39.0069 30.4362 38.7351 30.4896 38.2731 30.4896H33.014C32.3889 30.4896 32.1171 30.2229 32.1986 29.6896L34.6855 12.53C34.7942 11.7034 35.0116 11.0234 35.3378 10.4901C35.6911 9.95675 36.3434 9.58342 37.2947 9.3701C37.5664 9.31676 37.9741 9.26342 38.5177 9.2101C39.0613 9.13011 39.6456 9.07678 40.2708 9.05011C40.8959 8.99677 41.521 8.95677 42.1461 8.93012C42.7712 8.90345 43.3148 8.89012 43.7768 8.89012C45.7066 8.89012 47.3645 9.07678 48.7506 9.4501C50.1639 9.79676 51.2918 10.3967 52.1344 11.2501C52.9769 12.0767 53.5341 13.17 53.8059 14.53C54.0777 15.8633 54.0777 17.5032 53.8059 19.4498L52.3382 29.6896C52.2839 30.0096 52.2023 30.2229 52.0936 30.3296C52.0121 30.4362 51.7403 30.4896 51.2783 30.4896H45.9784C45.3261 30.4896 45.0407 30.2229 45.1222 29.6896L46.7122 18.7699C46.9024 17.4099 46.7937 16.3966 46.386 15.7299C45.9784 15.0366 45.0543 14.69 43.6138 14.69Z" fill="#E82529"/>
</g>
<defs>
<clipPath id="clip0_801_8782">
<rect width="80" height="34.1059" fill="white"/>
</clipPath>
</defs>
</svg>
