<svg width="80" height="80" viewBox="0 0 80 80" fill="none" xmlns="http://www.w3.org/2000/svg">
<g clip-path="url(#clip0_801_8779)">
<path d="M80 3.23486e-05V80H2.68555e-05V3.23486e-05H80Z" fill="white"/>
<path fill-rule="evenodd" clip-rule="evenodd" d="M72.4888 80H7.51126C3.38022 80 0 76.6201 0 72.4887V7.51126C0 3.38022 3.38022 0 7.51126 0H72.4888C76.6201 0 80 3.38022 80 7.51126V72.4887C80 76.6201 76.6201 80 72.4888 80Z" fill="#E82529"/>
<path fill-rule="evenodd" clip-rule="evenodd" d="M17.1058 31.8211H20.896C21.1846 31.8211 21.4063 32.077 21.3652 32.3625L19.6049 44.5734C19.5371 45.0434 19.9019 45.4642 20.3766 45.4642H27.0256C27.2145 45.4642 27.3592 45.632 27.3317 45.8187L26.8159 49.3258C26.7892 49.5081 26.6329 49.6433 26.4484 49.6433H18.9302C16.6939 49.6433 14.5492 47.8092 14.8647 45.5951L16.6361 32.2328C16.6672 31.9972 16.868 31.8211 17.1058 31.8211Z" fill="white"/>
<path fill-rule="evenodd" clip-rule="evenodd" d="M29.7445 36.6935L28.0095 49.1466C27.982 49.3441 28.1353 49.5205 28.3348 49.5205H32.0025C32.2633 49.5205 32.4844 49.3283 32.5205 49.07L34.2386 36.8193C34.2752 36.5371 34.0555 36.2868 33.7708 36.2868H30.2117C29.9761 36.2868 29.777 36.4604 29.7445 36.6935Z" fill="white"/>
<path fill-rule="evenodd" clip-rule="evenodd" d="M52.4959 31.1138H56.4741C56.6222 31.1138 56.7361 31.2446 56.7158 31.3913L54.2403 49.3243C54.222 49.4573 54.1081 49.5565 53.9736 49.5565H50.0459C49.8826 49.5565 49.757 49.4123 49.7795 49.2507L52.2542 31.3246C52.2709 31.2038 52.3739 31.1138 52.4959 31.1138Z" fill="white"/>
<path fill-rule="evenodd" clip-rule="evenodd" d="M55.5743 41.9187L60.0703 36.6535C60.212 36.4876 60.4192 36.3921 60.6376 36.3921H64.5844C64.8694 36.3921 65.0194 36.7296 64.8289 36.941L60.2317 42.0428L64.4342 51.081C64.5883 51.4127 64.3461 51.7921 63.9806 51.7921H60.4131C60.2267 51.7921 60.0576 51.6835 59.9798 51.5143L55.5743 41.9187Z" fill="white"/>
<path fill-rule="evenodd" clip-rule="evenodd" d="M35.0071 32.9147C34.6855 34.2717 33.4635 35.2814 32.1841 35.2814C30.905 35.2814 29.9239 34.1814 30.2458 32.8247C30.5675 31.4678 31.6266 30.3678 33.1447 30.3678C34.4238 30.3678 35.3288 31.5578 35.0071 32.9147Z" fill="white"/>
<path d="M42.1361 39.5956C41.983 39.5956 41.7703 39.604 41.4981 39.6208C41.2429 39.6375 41.0047 39.6626 40.7835 39.6961L39.4564 49.0179C39.4224 49.2189 39.3713 49.3529 39.3033 49.4199C39.2522 49.4869 39.0821 49.5205 38.7928 49.5205H35.5006C35.1093 49.5205 34.9391 49.3529 34.9902 49.0179L36.547 38.2388C36.615 37.7195 36.7511 37.2924 36.9553 36.9574C37.1765 36.6224 37.5848 36.3879 38.1803 36.2538C38.3505 36.2203 38.6057 36.1868 38.946 36.1533C39.2863 36.1031 39.6521 36.0696 40.0434 36.0528C40.4347 36.0193 40.826 35.9942 41.2174 35.9775C41.6087 35.9607 41.949 35.9523 42.2382 35.9523C43.4462 35.9523 44.4841 36.0696 45.3518 36.3041C46.2365 36.5219 46.9426 36.8988 47.4701 37.4348C47.9975 37.9541 48.3463 38.6408 48.5164 39.4951C48.6866 40.3327 48.6866 41.3628 48.5164 42.5856L47.5977 49.0179C47.5636 49.2189 47.5126 49.353 47.4445 49.42C47.3935 49.487 47.2234 49.5205 46.9341 49.5205H43.6164C43.208 49.5205 43.0294 49.3529 43.0804 49.0179L44.0757 42.1585C44.1948 41.3042 44.1268 40.6677 43.8716 40.2489C43.6164 39.8134 43.0379 39.5956 42.1361 39.5956Z" fill="white"/>
</g>
<defs>
<clipPath id="clip0_801_8779">
<rect width="80" height="80" fill="white"/>
</clipPath>
</defs>
</svg>
