<svg width="80" height="43" viewBox="0 0 80 43" fill="none" xmlns="http://www.w3.org/2000/svg">
<g clip-path="url(#clip0_801_8837)">
<g clip-path="url(#clip1_801_8837)">
<path fill-rule="evenodd" clip-rule="evenodd" d="M7.92681 4.49797H16.9146L15.9516 10.0239C21.4328 6.94401 28.0558 4.307 35.3695 2.48263C57.3107 -2.99047 77.1716 0.889868 79.7273 11.1575C81.0153 16.3259 77.6754 22.124 71.2393 27.3046L76.0298 37.1944H68.5861C67.4524 37.1944 67.2249 36.9181 66.7089 35.9023L64.7585 31.7131C59.1392 34.9678 52.2642 37.7551 44.6295 39.6607C22.6883 45.1379 2.83157 41.2535 0.271769 30.9858C-0.788721 26.7358 1.28756 22.059 5.63517 17.6464L7.92681 4.49797Z" fill="#ED1C24"/>
<path fill-rule="evenodd" clip-rule="evenodd" d="M8.7681 5.8429H15.517L12.2665 24.0175H21.1039L20.2913 29.6084H4.70898L8.7681 5.8429Z" fill="white"/>
<path fill-rule="evenodd" clip-rule="evenodd" d="M26.7027 14.6884H32.2896L29.6079 29.6084H24.021L26.7027 14.6884Z" fill="white"/>
<path fill-rule="evenodd" clip-rule="evenodd" d="M27.7348 9.57697H33.3217L32.7407 12.8478H27.1538L27.7348 9.57697Z" fill="white"/>
<path fill-rule="evenodd" clip-rule="evenodd" d="M35.7719 14.6884H41.3588L40.8143 17.7195C42.1348 14.9728 46.1818 13.9774 48.6684 14.6234C52.1506 15.5295 52.5731 17.4676 51.8255 21.3276L50.3181 29.6084H44.4996L45.8933 22.6238C46.4906 19.9502 45.6413 18.8613 43.3416 19.3529C41.826 19.7633 40.5705 21.8599 39.636 24.31L38.6811 29.6084H33.0942L35.7759 14.6884H35.7719Z" fill="white"/>
<path fill-rule="evenodd" clip-rule="evenodd" d="M57.5787 9.70697H63.1656L59.5737 29.6084H53.9868L57.5787 9.70697Z" fill="white"/>
<path fill-rule="evenodd" clip-rule="evenodd" d="M73.3805 13.0347L63.2632 20.125C61.7029 21.5593 61.7192 22.5385 62.8284 24.7082L67.5742 34.8946C68.0903 35.9104 68.3219 36.1867 69.4514 36.1867H74.2947L68.0821 23.3593C67.5986 22.4897 67.4402 21.8153 68.0821 20.9457L73.3805 13.0388V13.0347Z" fill="white"/>
</g>
</g>
<defs>
<clipPath id="clip0_801_8837">
<rect width="80" height="42.1433" fill="white"/>
</clipPath>
<clipPath id="clip1_801_8837">
<rect width="80" height="42.1433" fill="white"/>
</clipPath>
</defs>
</svg>
