<svg width="78" height="40" viewBox="0 0 78 40" fill="none" xmlns="http://www.w3.org/2000/svg">
<g clip-path="url(#clip0_801_8785)">
<path d="M67.1518 0.09559C70.503 3.3447 73.8427 6.6062 77.1828 9.86675C77.1936 9.87755 77.199 9.89058 77.199 9.90584V30.2601C77.199 30.2776 77.1925 30.2922 77.1795 30.3039L67.0651 39.4114C67.0527 39.4226 67.0381 39.4281 67.0212 39.4281H10.0238C10.0073 39.4281 9.99301 39.4226 9.98093 39.4114L0.0185935 30.3073C0.00619783 30.2958 0 30.2818 0 30.2653V9.89535C0 9.88264 0.0046087 9.87167 0.013826 9.86246L9.97187 0.0188319C9.98427 0.0064362 9.99905 0.000238379 10.0162 0.000238379C29.0087 -7.94597e-05 48.0006 -7.94597e-05 66.9921 0.000238379C67.0756 0.000238379 67.0975 0.0426698 67.1518 0.09559ZM12.092 4.73206C12.0894 4.73206 12.0869 4.73257 12.0845 4.73355C12.0822 4.73453 12.08 4.73597 12.0782 4.73778L5.0236 11.9092C5.02178 11.911 5.02035 11.9131 5.01936 11.9155C5.01838 11.9179 5.01788 11.9204 5.01788 11.923V28.1218C5.01788 28.1245 5.01842 28.1271 5.01949 28.1296C5.02056 28.1321 5.02212 28.1343 5.02408 28.1361L12.0763 34.6791C12.0799 34.6825 12.0847 34.6844 12.0896 34.6844H65.1857C65.1907 34.6844 65.1954 34.6825 65.1991 34.6791L72.2584 28.1285C72.2604 28.1267 72.2619 28.1244 72.263 28.122C72.2641 28.1195 72.2646 28.1169 72.2646 28.1142V11.9316C72.2646 11.929 72.2641 11.9265 72.2631 11.9241C72.2621 11.9217 72.2607 11.9196 72.2589 11.9178L65.1976 4.73778C65.1958 4.73597 65.1936 4.73453 65.1913 4.73355C65.1889 4.73257 65.1864 4.73206 65.1838 4.73206H12.092Z" fill="#F78F1E"/>
<path d="M12.092 4.73206H65.1838C65.1864 4.73206 65.1889 4.73257 65.1913 4.73355C65.1936 4.73453 65.1958 4.73597 65.1976 4.73778L72.2589 11.9178C72.2607 11.9196 72.2621 11.9217 72.2631 11.9241C72.2641 11.9265 72.2646 11.929 72.2646 11.9316V28.1142C72.2646 28.1169 72.2641 28.1195 72.263 28.122C72.2619 28.1244 72.2604 28.1267 72.2584 28.1285L65.1991 34.6791C65.1954 34.6825 65.1907 34.6844 65.1857 34.6844H12.0896C12.0847 34.6844 12.0799 34.6825 12.0763 34.6791L5.02408 28.1361C5.02212 28.1343 5.02056 28.1321 5.01949 28.1296C5.01842 28.1271 5.01788 28.1245 5.01788 28.1218V11.923C5.01788 11.9204 5.01838 11.9179 5.01936 11.9155C5.02035 11.9131 5.02178 11.911 5.0236 11.9092L12.0782 4.73778C12.08 4.73597 12.0822 4.73453 12.0845 4.73355C12.0869 4.73257 12.0894 4.73206 12.092 4.73206ZM54.4715 16.8303C54.4257 18.529 55.0737 19.7251 56.6589 20.4112C57.6644 20.8465 58.717 21.0763 59.7731 21.348C60.2241 21.4639 61.0436 21.6799 61.293 22.0603C61.488 22.3583 61.406 22.8327 61.0579 23.0119C60.9038 23.0914 60.741 23.1433 60.5697 23.1678C58.9502 23.4 57.2305 22.8021 55.8617 21.9211C55.8588 21.9192 55.8555 21.9178 55.852 21.9172C55.8485 21.9165 55.8449 21.9166 55.8415 21.9174C55.838 21.9181 55.8347 21.9195 55.8318 21.9216C55.8289 21.9236 55.8264 21.9262 55.8246 21.9292L54.0868 24.7421C54.0772 24.7573 54.0799 24.7699 54.0949 24.7797C55.8856 25.9769 58.2279 26.4803 60.3542 26.3549C62.7814 26.2124 64.9092 25.0987 65.0417 22.3888C65.0884 21.4291 64.9025 20.4608 64.2665 19.7199C63.2682 18.5566 61.2958 18.0851 59.8794 17.7542C59.2849 17.615 57.7964 17.3309 58.1683 16.4617C58.3251 16.0942 58.7776 15.9764 59.1785 15.9602C60.6184 15.9025 61.9218 16.3697 63.0951 17.1759C63.1161 17.1905 63.1333 17.187 63.1466 17.1654L64.8887 14.3516C64.8992 14.3348 64.8961 14.3206 64.8796 14.3092C63.8177 13.5785 62.66 13.1195 61.4064 12.9323C60.1597 12.7464 58.8334 12.7364 57.6057 13.0796C55.8188 13.5797 54.5235 14.9085 54.4715 16.8303ZM21.7521 19.6546C21.6933 21.8172 21.6756 23.9802 21.6992 26.1437C21.6992 26.1561 21.7055 26.1623 21.7182 26.1623H25.1013C25.1172 26.1623 25.1251 26.1544 25.1251 26.1385V13.0396C25.1251 13.0237 25.1172 13.0157 25.1013 13.0157H21.826C21.8133 13.0157 21.8041 13.0216 21.7983 13.0334C21.1636 14.4144 20.5298 15.7957 19.897 17.1774C19.4107 18.24 18.9354 19.317 18.5569 20.4236C18.5562 20.4256 18.5548 20.4273 18.5531 20.4285C18.5513 20.4298 18.5493 20.4304 18.5471 20.4303C18.545 20.4303 18.543 20.4295 18.5413 20.4283C18.5396 20.427 18.5384 20.4252 18.5378 20.4231C18.1583 19.2965 17.6715 18.2043 17.1766 17.1254C16.5514 15.7625 15.9253 14.3993 15.2982 13.0358C15.2919 13.0224 15.2814 13.0157 15.2667 13.0157H11.9547C11.9388 13.0157 11.9309 13.0237 11.9309 13.0396V26.1385C11.9309 26.1544 11.9388 26.1623 11.9547 26.1623H15.3387C15.3543 26.1623 15.3621 26.1545 15.3621 26.139C15.3692 23.9726 15.3921 21.7995 15.2949 19.6346L15.2964 19.6291L15.3013 19.626L15.3069 19.6268L15.3106 19.6312C16.2989 21.9855 17.4002 24.2629 18.5092 26.59C18.52 26.6126 18.5308 26.6126 18.5416 26.59C19.6391 24.2987 20.7247 22.0503 21.7373 19.6513C21.7478 19.6265 21.7527 19.6276 21.7521 19.6546ZM32.3509 23.0872C32.347 23.0872 32.3432 23.0857 32.3404 23.0829C32.3377 23.0801 32.3361 23.0764 32.3361 23.0725V20.8732C32.3361 20.8693 32.3377 20.8655 32.3404 20.8627C32.3432 20.86 32.347 20.8584 32.3509 20.8584H38.4477C38.4516 20.8584 38.4554 20.8568 38.4581 20.8541C38.4609 20.8513 38.4625 20.8475 38.4625 20.8436V17.8339C38.4625 17.8299 38.4609 17.8262 38.4581 17.8234C38.4554 17.8206 38.4516 17.8191 38.4477 17.8191H32.3509C32.347 17.8191 32.3432 17.8175 32.3404 17.8147C32.3377 17.812 32.3361 17.8082 32.3361 17.8043V16.0937C32.3361 16.0898 32.3377 16.086 32.3404 16.0832C32.3432 16.0805 32.347 16.0789 32.3509 16.0789H38.7814C38.7853 16.0789 38.7891 16.0773 38.7919 16.0746C38.7946 16.0718 38.7962 16.068 38.7962 16.0641V13.0305C38.7962 13.0266 38.7946 13.0228 38.7919 13.0201C38.7891 13.0173 38.7853 13.0157 38.7814 13.0157H28.7275C28.7236 13.0157 28.7199 13.0173 28.7171 13.0201C28.7143 13.0228 28.7128 13.0266 28.7128 13.0305V26.1476C28.7128 26.1515 28.7143 26.1552 28.7171 26.158C28.7199 26.1608 28.7236 26.1623 28.7275 26.1623H38.9006C38.9045 26.1623 38.9083 26.1608 38.911 26.158C38.9138 26.1552 38.9154 26.1515 38.9154 26.1476V23.102C38.9154 23.0981 38.9138 23.0943 38.911 23.0916C38.9083 23.0888 38.9045 23.0872 38.9006 23.0872H32.3509ZM52.5015 16.4131C52.1268 13.8834 49.9862 13.031 47.7111 13.0229C45.7462 13.0162 43.7797 13.014 41.8117 13.0162C41.7958 13.0162 41.7878 13.0242 41.7878 13.04V26.1385C41.7878 26.1544 41.7958 26.1623 41.8117 26.1623H45.3635C45.3794 26.1623 45.3874 26.1544 45.3874 26.1385V21.9564C45.3874 21.9208 45.4052 21.9033 45.4408 21.9039C47.3268 21.9306 49.6501 22.067 51.2129 20.784C52.4787 19.7452 52.728 17.9387 52.5015 16.4131Z" fill="white"/>
<path d="M56.6589 20.4112C55.0737 19.7251 54.4257 18.529 54.4715 16.8303C54.5235 14.9085 55.8188 13.5797 57.6057 13.0796C58.8334 12.7364 60.1597 12.7464 61.4064 12.9323C62.66 13.1195 63.8177 13.5785 64.8796 14.3092C64.8961 14.3206 64.8992 14.3348 64.8887 14.3516L63.1466 17.1654C63.1333 17.187 63.1161 17.1905 63.0951 17.1759C61.9218 16.3697 60.6184 15.9025 59.1785 15.9602C58.7776 15.9764 58.3251 16.0942 58.1683 16.4617C57.7964 17.3309 59.2849 17.615 59.8794 17.7542C61.2958 18.0851 63.2682 18.5566 64.2665 19.7199C64.9025 20.4608 65.0884 21.4291 65.0417 22.3888C64.9092 25.0987 62.7814 26.2124 60.3542 26.3549C58.2279 26.4803 55.8856 25.9769 54.0949 24.7797C54.0799 24.7699 54.0772 24.7573 54.0868 24.7421L55.8246 21.9292C55.8264 21.9262 55.8289 21.9236 55.8318 21.9216C55.8347 21.9195 55.838 21.9181 55.8415 21.9174C55.8449 21.9166 55.8485 21.9165 55.852 21.9172C55.8555 21.9178 55.8588 21.9192 55.8617 21.9211C57.2305 22.8021 58.9502 23.4 60.5697 23.1678C60.741 23.1433 60.9038 23.0914 61.0579 23.0119C61.406 22.8327 61.488 22.3583 61.293 22.0603C61.0436 21.6799 60.2241 21.4639 59.7731 21.348C58.717 21.0763 57.6644 20.8465 56.6589 20.4112Z" fill="#0077C0"/>
<path d="M21.7373 19.6513C20.7247 22.0503 19.6391 24.2987 18.5416 26.59C18.5308 26.6126 18.52 26.6126 18.5092 26.59C17.4002 24.2629 16.2989 21.9855 15.3106 19.6312L15.3069 19.6268L15.3013 19.626L15.2964 19.6291L15.2949 19.6346C15.3921 21.7995 15.3692 23.9726 15.3621 26.139C15.3621 26.1545 15.3543 26.1623 15.3387 26.1623H11.9547C11.9388 26.1623 11.9309 26.1544 11.9309 26.1385V13.0396C11.9309 13.0237 11.9388 13.0157 11.9547 13.0157H15.2667C15.2814 13.0157 15.2919 13.0224 15.2982 13.0358C15.9253 14.3993 16.5514 15.7625 17.1766 17.1254C17.6715 18.2043 18.1583 19.2965 18.5378 20.4231C18.5384 20.4252 18.5396 20.427 18.5413 20.4283C18.543 20.4295 18.545 20.4303 18.5471 20.4303C18.5493 20.4304 18.5513 20.4298 18.5531 20.4285C18.5548 20.4273 18.5562 20.4256 18.5569 20.4236C18.9354 19.317 19.4107 18.24 19.897 17.1774C20.5298 15.7957 21.1636 14.4144 21.7983 13.0334C21.8041 13.0216 21.8133 13.0157 21.826 13.0157H25.1013C25.1172 13.0157 25.1251 13.0237 25.1251 13.0396V26.1385C25.1251 26.1544 25.1172 26.1623 25.1013 26.1623H21.7182C21.7055 26.1623 21.6992 26.1561 21.6992 26.1437C21.6756 23.9802 21.6933 21.8172 21.7521 19.6546C21.7527 19.6276 21.7478 19.6265 21.7373 19.6513Z" fill="#0077C0"/>
<path d="M32.3509 23.0872H38.9006C38.9045 23.0872 38.9083 23.0888 38.911 23.0916C38.9138 23.0943 38.9154 23.0981 38.9154 23.102V26.1476C38.9154 26.1515 38.9138 26.1552 38.911 26.158C38.9083 26.1608 38.9045 26.1623 38.9006 26.1623H28.7275C28.7236 26.1623 28.7199 26.1608 28.7171 26.158C28.7143 26.1552 28.7128 26.1515 28.7128 26.1476V13.0305C28.7128 13.0266 28.7143 13.0228 28.7171 13.0201C28.7199 13.0173 28.7236 13.0157 28.7275 13.0157H38.7814C38.7853 13.0157 38.7891 13.0173 38.7919 13.0201C38.7946 13.0228 38.7962 13.0266 38.7962 13.0305V16.0641C38.7962 16.068 38.7946 16.0718 38.7919 16.0746C38.7891 16.0773 38.7853 16.0789 38.7814 16.0789H32.3509C32.347 16.0789 32.3432 16.0805 32.3404 16.0832C32.3377 16.086 32.3361 16.0898 32.3361 16.0937V17.8043C32.3361 17.8082 32.3377 17.812 32.3404 17.8147C32.3432 17.8175 32.347 17.8191 32.3509 17.8191H38.4477C38.4516 17.8191 38.4554 17.8206 38.4581 17.8234C38.4609 17.8262 38.4625 17.8299 38.4625 17.8339V20.8436C38.4625 20.8475 38.4609 20.8513 38.4581 20.8541C38.4554 20.8568 38.4516 20.8584 38.4477 20.8584H32.3509C32.347 20.8584 32.3432 20.86 32.3404 20.8627C32.3377 20.8655 32.3361 20.8693 32.3361 20.8732V23.0725C32.3361 23.0764 32.3377 23.0801 32.3404 23.0829C32.3432 23.0857 32.347 23.0872 32.3509 23.0872Z" fill="#0077C0"/>
<path d="M47.7111 13.0229C49.9862 13.031 52.1268 13.8834 52.5015 16.4131C52.728 17.9387 52.4787 19.7452 51.2129 20.784C49.6501 22.067 47.3268 21.9306 45.4408 21.9039C45.4052 21.9033 45.3874 21.9208 45.3874 21.9564V26.1385C45.3874 26.1544 45.3794 26.1623 45.3635 26.1623H41.8117C41.7958 26.1623 41.7878 26.1544 41.7878 26.1385V13.04C41.7878 13.0242 41.7958 13.0162 41.8117 13.0162C43.7797 13.014 45.7462 13.0162 47.7111 13.0229ZM48.8796 17.9511C49.1247 16.9046 48.6641 15.9955 47.4965 15.9936C46.7992 15.9926 46.1031 15.9939 45.4083 15.9974C45.4027 15.9975 45.3974 15.9998 45.3935 16.0038C45.3896 16.0078 45.3874 16.0132 45.3874 16.0188V18.9027C45.3874 18.9177 45.3948 18.9251 45.4098 18.9251C46.083 18.9306 46.7558 18.9299 47.4284 18.9232C48.0934 18.9166 48.7142 18.6567 48.8796 17.9511Z" fill="#0077C0"/>
<path d="M47.4965 15.9936C48.6641 15.9955 49.1247 16.9046 48.8796 17.9511C48.7142 18.6567 48.0934 18.9166 47.4284 18.9232C46.7558 18.9299 46.083 18.9306 45.4098 18.9251C45.3948 18.9251 45.3874 18.9177 45.3874 18.9027V16.0188C45.3874 16.0132 45.3896 16.0078 45.3935 16.0038C45.3974 15.9998 45.4027 15.9975 45.4083 15.9974C46.1031 15.9939 46.7992 15.9926 47.4965 15.9936Z" fill="white"/>
</g>
<defs>
<clipPath id="clip0_801_8785">
<rect width="77.199" height="39.4281" fill="white"/>
</clipPath>
</defs>
</svg>
