<svg width="80" height="54" viewBox="0 0 80 54" fill="none" xmlns="http://www.w3.org/2000/svg">
<g clip-path="url(#clip0_801_8756)">
<g clip-path="url(#clip1_801_8756)">
<path fill-rule="evenodd" clip-rule="evenodd" d="M1.69007 0H78.3099C79.2394 0 80 0.760586 80 1.69007V51.9108C80 52.8403 79.2394 53.5998 78.3099 53.5998H1.69007C0.761635 53.5998 0 52.8392 0 51.9108V1.69007C0 0.760586 0.760586 0 1.69007 0Z" fill="#22508E"/>
<path fill-rule="evenodd" clip-rule="evenodd" d="M39.0685 43.0524L36.2275 41.5868L39.0695 40.1212L41.965 38.6284V40.2429H42.1748C47.1433 40.2314 55.5055 39.4529 62.7232 37.2971C68.4942 35.5734 75.3836 32.3727 75.436 26.909C75.4549 24.9452 74.2065 23.19 71.7243 21.694C69.6125 20.4205 66.5272 19.2885 62.5543 18.3307C58.7975 17.4253 53.6623 16.4297 41.9325 15.2684C42.6836 15.2516 43.4473 15.2432 44.2195 15.2432C55.9209 15.2432 70.3375 17.1819 75.7067 22.6214C77.1796 24.1132 77.9139 25.8159 77.8898 27.6812C77.8111 33.7585 70.7455 37.4219 64.8319 39.4246C57.1715 42.0201 48.3675 42.9412 43.1567 42.9412H43.1546C42.8221 42.9412 42.4937 42.938 42.179 42.9307L41.9639 42.9254V44.5441L39.0674 43.0513L39.0685 43.0524Z" fill="#F58220"/>
<path d="M45.854 15.4656C51.6869 15.5537 57.4233 16.1129 62.1651 17.0634C65.1928 17.6697 67.8375 18.4335 70.0259 19.3346C72.421 20.3208 74.282 21.4758 75.5588 22.7693C76.9908 24.2202 77.7052 25.8725 77.6811 27.679C77.6034 33.6336 70.6144 37.2456 64.7658 39.2274C57.1285 41.8144 48.3529 42.7324 43.1578 42.7324C42.8253 42.7324 42.4979 42.7292 42.1853 42.7219L41.7562 42.7124V43.1415V44.2011L39.165 42.8666L36.685 41.5878L39.165 40.309L41.7552 38.9735V40.4537H42.1759C47.158 40.4412 55.5443 39.6606 62.783 37.4985C66.6006 36.3581 69.6252 34.9733 71.7716 33.3819C74.3188 31.4935 75.6228 29.3167 75.6448 26.9122C75.6647 24.8686 74.3817 23.0526 71.8314 21.5146C69.7007 20.2295 66.5954 19.0902 62.6026 18.1271C59.2843 17.3267 54.8929 16.458 45.8529 15.4656M44.2184 15.0334C42.3007 15.0334 40.4732 15.0848 38.7978 15.1792C53.3685 16.5262 75.3017 18.8699 75.2241 26.9069C75.1318 36.6005 52.8325 40.0079 42.1727 40.032V38.2842L38.9709 39.9345L35.7681 41.5868L38.9709 43.2391L42.1738 44.8893V43.1415C42.4906 43.1488 42.8169 43.152 43.1557 43.152C54.6914 43.152 77.9517 38.9011 78.0986 27.6843C78.2255 17.9519 58.6297 15.0334 44.2184 15.0334Z" fill="white"/>
<path fill-rule="evenodd" clip-rule="evenodd" d="M36.7555 38.2202C25.054 38.2202 10.6375 36.2815 5.26722 30.842C3.7943 29.3502 3.05994 27.6476 3.08407 25.7823C3.16275 19.705 10.2283 16.0416 16.142 14.0378C23.8035 11.4424 32.6063 10.5213 37.8171 10.5213C38.1508 10.5213 38.4802 10.5244 38.7949 10.5318L39.01 10.537V8.91827L41.9065 10.4111L44.7474 11.8767L41.9054 13.3423L39.01 14.8351V13.2206H38.8001C33.8317 13.2321 25.4694 14.0105 18.2517 16.1664C12.4807 17.89 5.59138 21.0908 5.53893 26.5544C5.52004 28.5183 6.76845 30.2734 9.25059 31.7694C11.3624 33.043 14.4477 34.175 18.4206 35.1328C22.1774 36.0382 27.3127 37.0337 39.0425 38.1951C38.2913 38.2118 37.5276 38.2202 36.7555 38.2202Z" fill="#F58220"/>
<path d="M39.2199 9.26235L41.8112 10.5968L44.2912 11.8756L41.8112 13.1544L39.221 14.4899V13.0097H38.8003C33.8182 13.0223 25.4318 13.8028 18.1931 15.9649C14.3755 17.1053 11.351 18.4901 9.20459 20.0816C6.65742 21.9699 5.3534 24.1468 5.33137 26.5513C5.31144 28.5949 6.59447 30.4108 9.14479 31.9488C11.2755 33.2339 14.3808 34.3732 18.3736 35.3363C21.6918 36.1367 26.0833 37.0054 35.1233 37.9978C29.2914 37.9097 23.555 37.3495 18.8142 36.4011C15.7865 35.7947 13.1418 35.031 10.9524 34.1298C8.55731 33.1437 6.69623 31.9887 5.4195 30.6951C3.9875 29.2443 3.27307 27.5919 3.2972 25.7854C3.37483 19.8308 10.3638 16.2188 16.2125 14.2371C23.8498 11.6501 32.6254 10.7321 37.8205 10.7321C38.153 10.7321 38.4803 10.7353 38.793 10.7426L39.222 10.752V10.323V9.2634M38.8024 8.5752V10.323C38.4856 10.3156 38.1593 10.3125 37.8205 10.3125C26.2847 10.3125 3.02444 14.5634 2.87757 25.7802C2.75063 35.5125 22.3475 38.4311 36.7577 38.4311C38.6755 38.4311 40.503 38.3797 42.1773 38.2853C27.6066 36.9382 5.67338 34.5946 5.75101 26.5575C5.84333 16.864 28.1427 13.4566 38.8024 13.4325V15.1802L42.0042 13.53L45.2071 11.8777L42.0042 10.2254L38.8013 8.5752H38.8024Z" fill="white"/>
<path fill-rule="evenodd" clip-rule="evenodd" d="M12.9866 21.3447H17.9172C18.8446 21.3447 19.5496 21.4506 20.0312 21.6573C20.5106 21.8671 20.882 22.1776 21.1474 22.5889C21.4117 23.0012 21.5576 23.5058 21.5827 24.1027C21.6153 24.878 21.4222 25.5662 21.0058 26.1705C20.5914 26.7747 20.0532 27.2111 19.3954 27.4724C18.7387 27.7346 17.8176 27.8679 16.6321 27.8679H15.1435L14.4616 31.6823H11.0762L12.3938 24.5549L11.6144 24.558L12.9855 21.3447H12.9866ZM15.5316 25.8222H16.6646C17.1923 25.8222 17.6183 25.6753 17.9445 25.3794C18.2708 25.0836 18.425 24.729 18.4082 24.3209C18.382 23.702 18.0148 23.3914 17.3098 23.3914H15.9901L15.5327 25.8222H15.5316Z" fill="white"/>
<path fill-rule="evenodd" clip-rule="evenodd" d="M32.5865 31.6823H28.8738L26.5396 27.7294L25.7759 31.6823H22.8164L24.1928 24.5528L23.3032 24.5507L24.8128 21.3447H29.8516C30.9615 21.3447 31.7703 21.6237 32.2781 22.1829C32.7859 22.741 32.9516 23.4754 32.7754 24.3902C32.661 24.985 32.4459 25.5127 32.1302 25.9701C31.8154 26.4243 30.63 27.358 29.797 27.4356L32.5855 31.6823H32.5865ZM26.9666 25.5169H28.2339C28.6053 25.5169 28.92 25.434 29.1791 25.2682C29.4361 25.1004 29.5966 24.8549 29.6585 24.5318C29.7865 23.873 29.4718 23.5425 28.7144 23.5425H27.3495L26.9676 25.5169H26.9666Z" fill="white"/>
<path fill-rule="evenodd" clip-rule="evenodd" d="M39.6885 21.3447L37.8463 31.6823H34.7012L35.9779 24.516H35.1984L36.5423 21.3447H39.6885Z" fill="white"/>
<path fill-rule="evenodd" clip-rule="evenodd" d="M40.2197 31.6823L43.368 23.7964H42.4532L44.3468 21.3447H47.7836L48.9827 26.7076L52.6682 21.3447H55.978L55.977 31.6823H52.7919L52.7773 25.6847L48.6995 31.7526L47.3325 31.6823L45.6792 25.6847L43.4121 31.6823H40.2197Z" fill="white"/>
<path fill-rule="evenodd" clip-rule="evenodd" d="M69.5163 31.6823H65.9505L65.7889 29.9902H61.9514L61.0366 31.6823H57.1172L62.1895 23.7964H61.1897L63.7652 21.3447H67.6447L69.5163 31.6823ZM65.556 27.7976L65.1972 24.0303H65.1637L63.141 27.7976H65.555H65.556Z" fill="white"/>
</g>
</g>
<defs>
<clipPath id="clip0_801_8756">
<rect width="80" height="53.5998" fill="white"/>
</clipPath>
<clipPath id="clip1_801_8756">
<rect width="80" height="53.5998" fill="white"/>
</clipPath>
</defs>
</svg>
