<svg width="80" height="54" viewBox="0 0 80 54" fill="none" xmlns="http://www.w3.org/2000/svg">
<g clip-path="url(#clip0_801_8735)">
<g clip-path="url(#clip1_801_8735)">
<path fill-rule="evenodd" clip-rule="evenodd" d="M1.69007 -0.00012207H78.3099C79.2394 -0.00012207 80 0.760464 80 1.68995V51.9107C80 52.8402 79.2394 53.5997 78.3099 53.5997H1.69007C0.761635 53.5997 0 52.8391 0 51.9107V1.68995C0 0.760464 0.760586 -0.00012207 1.69007 -0.00012207Z" fill="#006838"/>
<path fill-rule="evenodd" clip-rule="evenodd" d="M39.0694 41.2688L36.2285 39.8032L39.0705 38.3376L41.966 36.8448V38.4593H42.1758C47.1442 38.4478 55.5065 37.6694 62.7242 35.5135C68.4952 33.7899 75.3845 30.5891 75.437 25.1255C75.4559 23.1616 74.2075 21.4065 71.7253 19.9105C69.6135 18.6369 66.5282 17.5049 62.5553 16.5471C58.7985 15.6418 53.6632 14.6462 41.9334 13.4848C42.6846 13.468 43.4483 13.4597 44.2204 13.4597C55.9219 13.4597 70.3384 15.3984 75.7076 20.8379C77.1806 22.3297 77.9149 24.0323 77.8908 25.8976C77.8121 31.9749 70.7465 35.6383 64.8328 37.641C57.1724 40.2365 48.3685 41.1576 43.1577 41.1576H43.1556C42.8231 41.1576 42.4947 41.1544 42.18 41.1471L41.9649 41.1418V42.7606L39.0684 41.2677L39.0694 41.2688Z" fill="#F58220"/>
<path d="M45.854 13.682C51.6869 13.7702 57.4233 14.3293 62.1651 15.2798C65.1928 15.8862 67.8375 16.6499 70.0259 17.5511C72.421 18.5372 74.282 19.6922 75.5588 20.9858C76.9908 22.4366 77.7052 24.089 77.6811 25.8955C77.6034 31.8501 70.6144 35.4621 64.7658 37.4438C57.1285 40.0308 48.3529 40.9488 43.1578 40.9488C42.8253 40.9488 42.4979 40.9456 42.1853 40.9383L41.7562 40.9289V41.3579V42.4175L39.165 41.0831L36.685 39.8042L39.165 38.5254L41.7552 37.1899V38.6702H42.1759C47.158 38.6576 55.5443 37.8771 62.783 35.7149C66.6006 34.5746 69.6252 33.1898 71.7716 31.5983C74.3188 29.71 75.6228 27.5331 75.6448 25.1286C75.6647 23.085 74.3817 21.269 71.8314 19.7311C69.7007 18.4459 66.5954 17.3066 62.6026 16.3436C59.2843 15.5431 54.8929 14.6745 45.8529 13.682M44.2184 13.2498C42.3007 13.2498 40.4732 13.3012 38.7978 13.3956C53.3685 14.7427 75.3017 17.0863 75.2241 25.1234C75.1318 34.8169 52.8325 38.2243 42.1727 38.2484V36.5007L38.9709 38.1509L35.7681 39.8032L38.9709 41.4555L42.1738 43.1057V41.3579C42.4906 41.3653 42.8169 41.3684 43.1557 41.3684C54.6914 41.3684 77.9517 37.1175 78.0986 25.9007C78.2255 16.1684 58.6297 13.2498 44.2184 13.2498Z" fill="white"/>
<path fill-rule="evenodd" clip-rule="evenodd" d="M36.7555 36.4367C25.054 36.4367 10.6375 34.498 5.26722 29.0585C3.7943 27.5667 3.05994 25.864 3.08407 23.9987C3.16275 17.9214 10.2283 14.258 16.142 12.2542C23.8035 9.6588 32.6063 8.73771 37.8171 8.73771C38.1508 8.73771 38.4802 8.74085 38.7949 8.7482L39.01 8.75344V7.1347L41.9065 8.62755L44.7474 10.0931L41.9054 11.5587L39.01 13.0515V11.437H38.8001C33.8317 11.4485 25.4694 12.227 18.2517 14.3828C12.4807 16.1065 5.59138 19.3072 5.53893 24.7709C5.52004 26.7347 6.76845 28.4899 9.25059 29.9859C11.3624 31.2594 14.4477 32.3914 18.4206 33.3492C22.1774 34.2546 27.3127 35.2502 39.0425 36.4115C38.2913 36.4283 37.5276 36.4367 36.7555 36.4367Z" fill="#F58220"/>
<path d="M39.2199 7.47879L41.8111 8.81322L44.2911 10.0921L41.8111 11.3709L39.2209 12.7064V11.2261H38.8002C33.8181 11.2387 25.4317 12.0192 18.1931 14.1814C14.3755 15.3217 11.3509 16.7065 9.20452 18.298C6.65734 20.1863 5.35333 22.3632 5.3313 24.7677C5.31137 26.8113 6.5944 28.6273 9.14472 30.1652C11.2754 31.4504 14.3807 32.5897 18.3735 33.5527C21.6918 34.3532 26.0832 35.2218 35.1232 36.2132C29.2913 36.1251 23.5549 35.5649 18.8141 34.6165C15.7865 34.0101 13.1417 33.2464 10.9533 32.3452C8.55828 31.3591 6.69721 30.204 5.42047 28.9105C3.98847 27.4596 3.27405 25.8073 3.29818 24.0008C3.37581 18.0462 10.3648 14.4342 16.2135 12.4525C23.8508 9.86545 32.6264 8.94751 37.8214 8.94751C38.154 8.94751 38.4813 8.95065 38.7939 8.958L39.223 8.96744V8.53836V7.47879M38.8034 6.79059V8.53836C38.4866 8.53102 38.1603 8.52787 37.8214 8.52787C26.2857 8.52787 3.02541 12.7788 2.87854 23.9956C2.7516 33.7279 22.3485 36.6465 36.7587 36.6465C38.6764 36.6465 40.5039 36.5951 42.1783 36.5007C27.6076 35.1536 5.67435 32.81 5.75198 24.7729C5.8443 15.0794 28.1436 11.672 38.8034 11.6478V13.3956L42.0052 11.7454L45.208 10.0931L42.0052 8.4408L38.8023 6.79059H38.8034Z" fill="white"/>
<path fill-rule="evenodd" clip-rule="evenodd" d="M12.9866 19.5611H17.9172C18.8446 19.5611 19.5496 19.6671 20.0312 19.8737C20.5106 20.0835 20.882 20.3941 21.1474 20.8053C21.4117 21.2176 21.5576 21.7222 21.5827 22.3191C21.6153 23.0944 21.4222 23.7826 21.0058 24.3869C20.5914 24.9912 20.0532 25.4276 19.3954 25.6888C18.7387 25.9511 17.8176 26.0843 16.6321 26.0843H15.1435L14.4616 29.8988H11.0762L12.3938 22.7713L11.6144 22.7744L12.9855 19.5611H12.9866ZM15.5316 24.0386H16.6646C17.1923 24.0386 17.6183 23.8917 17.9445 23.5959C18.2708 23.3 18.425 22.9454 18.4082 22.5373C18.382 21.9184 18.0148 21.6079 17.3098 21.6079H15.9901L15.5327 24.0386H15.5316Z" fill="white"/>
<path fill-rule="evenodd" clip-rule="evenodd" d="M32.5865 29.8988H28.8738L26.5396 25.9458L25.7759 29.8988H22.8164L24.1928 22.7692L23.3032 22.7671L24.8128 19.5611H29.8516C30.9615 19.5611 31.7703 19.8402 32.2781 20.3993C32.7859 20.9574 32.9516 21.6918 32.7754 22.6066C32.661 23.2014 32.4459 23.7291 32.1302 24.1865C31.8154 24.6408 30.63 25.5744 29.797 25.6521L32.5855 29.8988H32.5865ZM26.9666 23.7333H28.2339C28.6053 23.7333 28.92 23.6504 29.1791 23.4847C29.4361 23.3168 29.5966 23.0713 29.6585 22.7482C29.7865 22.0894 29.4718 21.7589 28.7144 21.7589H27.3495L26.9676 23.7333H26.9666Z" fill="white"/>
<path fill-rule="evenodd" clip-rule="evenodd" d="M39.6885 19.5611L37.8463 29.8988H34.7012L35.9779 22.7325H35.1984L36.5423 19.5611H39.6885Z" fill="white"/>
<path fill-rule="evenodd" clip-rule="evenodd" d="M40.2197 29.8988L43.368 22.0128H42.4532L44.3468 19.5611H47.7836L48.9827 24.924L52.6682 19.5611H55.978L55.977 29.8988H52.7919L52.7773 23.9012L48.6995 29.9691L47.3325 29.8988L45.6792 23.9012L43.4121 29.8988H40.2197Z" fill="white"/>
<path fill-rule="evenodd" clip-rule="evenodd" d="M69.5163 29.8988H65.9505L65.7889 28.2066H61.9514L61.0366 29.8988H57.1172L62.1895 22.0128H61.1897L63.7652 19.5611H67.6447L69.5163 29.8988ZM65.556 26.014L65.1972 22.2468H65.1637L63.141 26.014H65.555H65.556Z" fill="white"/>
<path d="M10.5733 40.3738C11.1597 40.5816 11.5888 40.9624 11.8616 41.5152C12.0808 41.9632 12.192 42.4468 12.1941 42.9682C12.1962 43.4886 12.148 43.9858 12.0504 44.4579C11.7944 45.6539 11.3381 46.6673 10.6835 47.4971C9.79593 48.6165 8.67341 49.1757 7.31484 49.1757H3.43848L5.34886 40.1787H9.22418C9.77704 40.1871 10.2271 40.2521 10.5733 40.3738ZM6.83751 41.7408L5.59225 47.6125H7.32533C8.21286 47.6125 8.92414 47.1751 9.46127 46.3001C9.75396 45.8196 9.97007 45.2479 10.1086 44.5849C10.3037 43.669 10.31 42.9661 10.1264 42.4762C9.9428 41.9863 9.42455 41.7408 8.56955 41.7408H6.83646H6.83751Z" fill="white"/>
<path d="M18.7154 43.6396C18.8948 44.0341 18.9661 44.4925 18.9294 45.0129C18.9126 45.3181 18.8402 45.7577 18.7101 46.3316H14.1571C14.0396 46.9988 14.1487 47.4667 14.4865 47.7352C14.69 47.902 14.9607 47.986 15.2985 47.986C15.6562 47.986 15.9699 47.8842 16.2385 47.6807C16.3812 47.5705 16.5217 47.4184 16.6592 47.2233H18.4353C18.3052 47.6177 18.0146 48.0185 17.5624 48.4255C16.8543 49.0728 15.9878 49.3959 14.9628 49.3959C14.1162 49.3959 13.428 49.1232 12.8971 48.5776C12.3663 48.0321 12.231 47.1456 12.4912 45.9161C12.7356 44.7642 13.214 43.8819 13.9284 43.2672C14.6428 42.6524 15.4653 42.345 16.3969 42.345C16.9498 42.345 17.4271 42.4489 17.8278 42.6566C18.2286 42.8643 18.5244 43.1916 18.7154 43.6396ZM14.4425 45.1839H17.1459C17.2152 44.7244 17.1491 44.375 16.9477 44.1369C16.7462 43.8987 16.4609 43.7802 16.0906 43.7802C15.6877 43.7802 15.3489 43.9061 15.074 44.1589C14.7991 44.4117 14.5883 44.7527 14.4425 45.1839Z" fill="white"/>
<path d="M26.3884 45.764C26.1691 46.7974 25.7422 47.6545 25.1096 48.3332C24.477 49.013 23.7227 49.3529 22.8477 49.3529C22.298 49.3529 21.8815 49.2428 21.5962 49.0235C21.4252 48.8934 21.2584 48.6658 21.0958 48.3395L20.9185 49.1756H19.2158L21.1199 40.1913H22.853L22.1753 43.3899C22.4596 43.0805 22.7533 42.8444 23.0544 42.6818C23.408 42.4783 23.8276 42.3765 24.3112 42.3765C25.1862 42.3765 25.803 42.6923 26.1639 43.3228C26.5237 43.9533 26.5982 44.7674 26.3863 45.764H26.3884ZM24.5273 45.9476C24.6291 45.4755 24.6511 45.0853 24.5945 44.7758C24.4843 44.1904 24.1182 43.8967 23.4961 43.8967C22.874 43.8967 22.3704 44.1831 22.0127 44.7569C21.8259 45.0622 21.6812 45.4566 21.5794 45.9413C21.4577 46.511 21.4829 46.9831 21.656 47.3576C21.8291 47.7321 22.1742 47.9188 22.6904 47.9188C23.1383 47.9188 23.5244 47.7384 23.8496 47.3754C24.1748 47.0135 24.4014 46.5372 24.5273 45.9476Z" fill="white"/>
<path d="M28.347 42.5224H30.1105L28.7005 49.1756H26.937L28.347 42.5224ZM30.2815 41.7292H28.518L28.86 40.1241H30.6235L30.2815 41.7292Z" fill="white"/>
<path d="M30.8374 43.8232L31.0997 42.5842H32.0271L32.4236 40.7284H34.1452L33.7486 42.5842H34.8292L34.5669 43.8232H33.4863L32.7352 47.3387C32.6785 47.6114 32.6775 47.7814 32.732 47.8485C32.7866 47.9157 32.9912 47.9492 33.3458 47.9492C33.3982 47.9492 33.4549 47.9492 33.5136 47.9461C33.5724 47.944 33.6322 47.9408 33.6941 47.9367L33.4129 49.2365L32.5831 49.2669C31.7574 49.2952 31.2256 49.1525 30.9895 48.8399C30.8384 48.6406 30.8059 48.3332 30.892 47.9178L31.7648 43.8221H30.8374V43.8232Z" fill="white"/>
</g>
</g>
<defs>
<clipPath id="clip0_801_8735">
<rect width="80" height="53.5998" fill="white"/>
</clipPath>
<clipPath id="clip1_801_8735">
<rect width="80" height="53.5998" fill="white"/>
</clipPath>
</defs>
</svg>
