<svg width="80" height="80" viewBox="0 0 80 80" fill="none" xmlns="http://www.w3.org/2000/svg">
<g clip-path="url(#clip0_801_8635)">
<g clip-path="url(#clip1_801_8635)">
<path d="M65.744 0H14.256C6.38263 0 0 6.38263 0 14.256V65.744C0 73.6174 6.38263 80 14.256 80H65.744C73.6174 80 80 73.6174 80 65.744V14.256C80 6.38263 73.6174 0 65.744 0Z" fill="#C1C1C3"/>
<path d="M16.4801 3.45599H63.5201C70.7073 3.45599 76.5441 9.29279 76.5441 16.48V63.52C76.5441 70.7072 70.7073 76.544 63.5201 76.544H16.4801C9.29286 76.544 3.45605 70.7072 3.45605 63.52V16.48C3.45605 9.29279 9.29286 3.45599 16.4801 3.45599Z" fill="#103B99"/>
<path d="M56.2241 24.5856L47.3953 41.7888H56.0097L57.7473 37.648H63.0401L63.0689 41.7888H70.7809L69.7409 17.6512H58.1089L54.2145 24.5888H56.2241V24.5856ZM62.7841 25.5648L62.8513 32.1312H59.9585L62.7809 25.5648H62.7841Z" fill="white"/>
<path d="M20.992 41.7888C26.1728 41.7888 30.0032 38.0928 30.0032 34.1376C30.0032 32.5024 29.7824 30.1856 27.2032 29.2448C29.7056 27.984 31.9872 25.5488 31.9872 22.7968C31.9872 19.8112 29.6704 17.744 25.8432 17.7216C22.7328 17.6992 15.6672 17.7216 15.6672 17.7216L11.9328 24.9408L13.7472 24.9504L9.3728 41.7888H20.9888H20.992ZM21.0272 24.0544L23.2384 24.064C23.8656 24.064 25.1776 24.1088 24.7936 25.7632C24.4448 27.2896 23.0464 27.488 22.256 27.488H20.2048L21.024 24.0544H21.0272ZM19.1168 31.7312H21.8496C22.8864 31.7312 23.7216 32.5952 23.3792 33.888C23.0304 35.1744 21.7696 35.6896 20.7264 35.6896H18.08L19.1136 31.7344L19.1168 31.7312Z" fill="white"/>
<path d="M42.0321 42.6464C43.5073 42.6016 45.1841 42.3008 45.9553 42.0544L49.8081 34.1632C48.6913 35.0208 46.3553 36.2336 44.0321 36.1824C39.9937 36.0928 38.4801 33.5648 38.4993 31.344C38.5313 28.2016 41.1073 24.9472 45.3761 24.8704C47.5457 24.832 49.4145 25.8208 50.8097 26.944L54.5921 20.1952L49.4401 17.4528L48.7553 18.352C48.1921 18.032 47.2033 17.888 46.5889 17.888C36.5793 17.888 30.7361 26.0768 30.7329 32.8096C30.7329 37.904 33.8401 42.8864 42.0257 42.6464H42.0321Z" fill="white"/>
<path d="M23.4145 51.776C21.9617 51.776 20.6401 52.48 19.4529 53.8816C19.3633 53.2224 19.1137 52.7072 18.7073 52.3328C18.2977 51.9616 17.7665 51.7728 17.1137 51.7728C15.6929 51.7728 14.4449 52.4192 13.3601 53.7088L13.6705 52.0096H12.0129C11.8657 52.7616 11.6385 53.7152 11.3281 54.8704L9.30566 62.416H11.1681L12.8321 56.2016C13.0305 55.456 13.4497 54.8032 14.0897 54.2464C14.7265 53.6864 15.3633 53.408 15.9969 53.408C16.6305 53.408 17.0977 53.664 17.3377 54.176C17.5745 54.688 17.5777 55.3856 17.3377 56.2656L15.6897 62.416H17.5521L19.2641 56.032C19.4689 55.264 19.8753 54.6368 20.4801 54.144C21.0849 53.6544 21.6929 53.408 22.3009 53.408C23.0049 53.408 23.4721 53.6832 23.7025 54.2368C23.9329 54.7872 23.9105 55.5808 23.6353 56.6112L22.0801 62.416H23.9425L25.5617 56.3744C25.9649 54.8704 25.9553 53.728 25.5297 52.944C25.1041 52.1632 24.4001 51.7728 23.4177 51.7728L23.4145 51.776Z" fill="white"/>
<path d="M34.0384 51.776C32.5568 51.776 31.1968 52.2752 29.9584 53.2768C28.7168 54.2752 27.872 55.6192 27.4208 57.3024C26.9952 58.8864 27.1232 60.176 27.7984 61.168C28.4736 62.16 29.536 62.656 30.9824 62.656C31.9104 62.656 32.8352 62.4288 33.7536 61.9776C34.672 61.5264 35.4656 60.88 36.1344 60.0416C36.8032 59.2032 37.2864 58.224 37.5872 57.1072C38.0064 55.5392 37.8912 54.256 37.2352 53.264C36.5792 52.272 35.5168 51.776 34.0416 51.776H34.0384ZM35.5808 57.1712C35.2672 58.3456 34.7104 59.3056 33.9136 60.0512C33.1168 60.7968 32.272 61.168 31.3792 61.168C30.4864 61.168 29.8784 60.7968 29.4976 60.0544C29.1168 59.312 29.0784 58.3712 29.3824 57.232C29.6864 56.0928 30.2208 55.1456 30.9792 54.3904C31.7376 53.6352 32.5984 53.2576 33.5616 53.2576C34.5248 53.2576 35.1552 53.6384 35.5008 54.4032C35.8464 55.168 35.872 56.0896 35.584 57.1712H35.5808Z" fill="white"/>
<path d="M46.6464 51.776C45.0368 51.776 43.696 52.4224 42.6272 53.712L44.3968 47.1104H42.4512L39.0816 59.6864C38.7712 60.848 38.4992 61.7568 38.2688 62.416H39.9264L40.4704 60.6976C40.9056 62.0032 41.8976 62.6528 43.4464 62.6528C44.736 62.6528 45.9648 62.1472 47.1328 61.1328C48.3008 60.1184 49.1136 58.7616 49.568 57.0624C49.984 55.5072 49.92 54.2368 49.3696 53.2512C48.8224 52.2656 47.9136 51.7728 46.6432 51.7728L46.6464 51.776ZM47.6224 57.152C47.3024 58.3488 46.768 59.2992 46.0224 60.0064C45.2768 60.7136 44.4288 61.0656 43.4816 61.0656C42.6688 61.0656 42.0672 60.7744 41.6736 60.1952C41.28 59.616 41.1872 58.9376 41.3952 58.1632L41.8496 56.464C42.0704 55.6384 42.544 54.9152 43.2736 54.288C44 53.6608 44.7744 53.3472 45.5936 53.3472C46.5216 53.3472 47.1648 53.7024 47.5264 54.416C47.888 55.1296 47.92 56.0416 47.6224 57.152Z" fill="white"/>
<path d="M50.3232 62.4192H52.2272L55.0144 52.0128H53.1136L50.3232 62.4192Z" fill="white"/>
<path d="M54.2721 47.9648C53.9777 48.2048 53.7857 48.4992 53.6929 48.8512C53.5969 49.2096 53.6289 49.5104 53.7889 49.7536C53.9489 49.9968 54.2049 50.1184 54.5601 50.1184C54.9153 50.1184 55.2577 49.9968 55.5489 49.7536C55.8401 49.5104 56.0321 49.2096 56.1281 48.8512C56.2209 48.4992 56.1857 48.2048 56.0225 47.9648C55.8593 47.7248 55.6033 47.6032 55.2545 47.6032C54.9057 47.6032 54.5665 47.7248 54.2721 47.9648Z" fill="white"/>
<path d="M59.2545 47.1104L55.1553 62.4192H57.0593L61.1585 47.1104H59.2545Z" fill="white"/>
<path d="M66.9314 51.776C65.4498 51.776 64.1282 52.3136 62.9634 53.3888C61.7986 54.464 61.0018 55.7952 60.5762 57.3888C60.1506 58.9792 60.2658 60.256 60.9218 61.216C61.5778 62.176 62.6786 62.656 64.221 62.656C65.5522 62.656 66.765 62.4256 67.8658 61.968L67.9138 60.5696C66.9922 60.928 65.981 61.1072 64.8834 61.1072C63.8722 61.1072 63.133 60.8096 62.6562 60.208C62.1826 59.6096 62.0834 58.7488 62.3554 57.6224H69.5394C69.6354 57.4144 69.7378 57.1136 69.8434 56.72C70.2146 55.3376 70.1634 54.1664 69.6898 53.2096C69.2162 52.2528 68.2978 51.776 66.9314 51.776ZM68.1442 56.1824H62.7618C63.117 55.2864 63.6226 54.5632 64.2722 54.016C64.925 53.4688 65.6354 53.1936 66.4066 53.1936C67.2194 53.1936 67.7698 53.4688 68.0642 54.016C68.3586 54.5632 68.3842 55.2864 68.1442 56.1824Z" fill="white"/>
<path opacity="0.16" d="M65.744 0H14.256C6.3808 0 0 6.3808 0 14.256V33.7472C11.0016 37.6864 24.2912 39.9936 38.608 39.9936C54.1536 39.9936 68.4896 37.2736 80 32.6944V14.256C80 6.384 73.6192 0 65.744 0Z" fill="white"/>
</g>
</g>
<defs>
<clipPath id="clip0_801_8635">
<rect width="80" height="80" fill="white"/>
</clipPath>
<clipPath id="clip1_801_8635">
<rect width="80" height="80" fill="white"/>
</clipPath>
</defs>
</svg>
