<svg width="81" height="78" viewBox="0 0 81 78" fill="none" xmlns="http://www.w3.org/2000/svg">
<g clip-path="url(#clip0_801_8579)">
<path d="M64.6477 0H15.3924C6.77258 0 0 8.50446 0 19.3283V57.985C0 68.8089 6.77258 77.3133 15.3924 77.3133H64.6477C73.2673 77.3133 80.04 68.8089 80.04 57.985V19.3283C80.04 8.50446 73.2673 0 64.6477 0Z" fill="#00529C"/>
<path d="M25.3209 61.9V53.32C25.3209 52.5975 25.431 51.8951 25.6512 51.2127C26.1717 49.6071 27.0025 48.3226 28.1436 47.3592C29.3849 46.2955 30.8063 45.7637 32.4078 45.7637C34.1295 45.7637 35.7511 46.4761 37.2726 47.9011C38.654 46.4761 40.2655 45.7637 42.1074 45.7637C43.7089 45.7637 45.1403 46.2855 46.4016 47.3291C47.6628 48.3728 48.5036 49.6974 48.924 51.303C49.1242 52.0657 49.2243 52.6878 49.2243 53.1695V61.9H44.81V53.4103C44.77 53.0892 44.7499 52.9086 44.7499 52.8685C44.6098 52.166 44.3195 51.5639 43.8791 51.0621C43.3786 50.5002 42.798 50.2192 42.1374 50.2192C41.4767 50.2192 40.8962 50.5002 40.3957 51.0621C39.9753 51.5639 39.695 52.166 39.5548 52.8685C39.5348 53.0089 39.5148 53.1896 39.4948 53.4103V61.9H35.0504V53.32C35.0104 53.019 34.9904 52.8584 34.9904 52.8383C34.8502 52.1359 34.5599 51.5338 34.1195 51.032C33.619 50.4902 33.0384 50.2192 32.3778 50.2192C31.6171 50.2192 30.9764 50.5905 30.4559 51.3331C29.9754 51.9954 29.7352 52.728 29.7352 53.5308V61.9H25.3209Z" fill="#F36F21"/>
<path d="M50.3054 53.8318C50.3054 51.6241 51.0862 49.7375 52.6477 48.1721C54.2092 46.6066 56.0811 45.8239 58.2632 45.8239C60.4854 45.8239 62.3873 46.6066 63.9688 48.1721C65.5504 49.7375 66.3412 51.6341 66.3412 53.8619C66.3412 56.0496 65.5504 57.9361 63.9688 59.5217C62.4073 61.1072 60.5254 61.9 58.3233 61.9C56.1011 61.9 54.2092 61.1172 52.6477 59.5518C51.0862 57.9662 50.3054 56.0596 50.3054 53.8318ZM54.7197 53.8318C54.7197 54.8353 55.0701 55.6883 55.7708 56.3907C56.4715 57.0932 57.3223 57.4444 58.3233 57.4444C59.3042 57.4444 60.1451 57.0932 60.8458 56.3907C61.5665 55.6682 61.9268 54.8152 61.9268 53.8318C61.9268 52.8484 61.5665 52.0054 60.8458 51.303C60.1251 50.6005 59.2742 50.2493 58.2933 50.2493C57.3123 50.2493 56.4715 50.6005 55.7708 51.303C55.0701 52.0054 54.7197 52.8484 54.7197 53.8318Z" fill="#F36F21"/>
<path d="M32.1333 26.5769C32.3162 26.3976 32.5322 26.1669 32.7814 25.8844C33.0301 25.602 33.2656 25.2685 33.4881 24.8833C33.7107 24.4981 33.9007 24.069 34.0575 23.594C34.215 23.1195 34.2938 22.6126 34.2938 22.0738C34.2938 21.0223 34.1102 20.041 33.7439 19.1298C33.3768 18.2192 32.8139 17.4234 32.0545 16.743C31.295 16.0639 30.3462 15.5309 29.2067 15.1457C28.0679 14.7612 26.7383 14.5686 25.2201 14.5686H15.2035V41.51H26.2021C27.7991 41.51 29.1931 41.2984 30.3852 40.875C31.5761 40.4516 32.5653 39.8681 33.3508 39.124C34.1362 38.3798 34.7187 37.5139 35.0987 36.5262C35.4782 35.5385 35.6681 34.48 35.6681 33.3507C35.6681 31.8369 35.3147 30.4901 34.608 29.3092C33.9006 28.1295 33.0756 27.2184 32.1333 26.5769ZM27.2701 19.5053C27.6403 19.6437 27.9495 19.8235 28.1909 20.0498C28.8164 20.6377 29.1293 21.3404 29.1293 22.1579C29.1293 22.8994 28.9986 23.5122 28.7382 23.9975C28.4773 24.4834 28.2163 24.8538 27.956 25.1089H20.3102V19.187H25.0627C25.9536 19.187 26.687 19.2949 27.2701 19.5053ZM26.4769 29.7715C27.861 29.7715 28.8866 30.1229 29.5543 30.8243C30.1823 31.5149 30.4986 32.3298 30.4986 33.2729C30.4986 34.2447 30.14 35.0743 29.4228 35.7642C28.7051 36.4541 27.5259 36.7998 25.8827 36.7998H20.3102V29.7715H26.4769ZM54.3153 29.9061C55.1399 29.3546 55.8277 28.7131 56.3776 27.9817C56.9274 27.2504 57.3329 26.4424 57.5951 25.5574C57.8568 24.6716 57.9882 23.7675 57.9882 22.8435C57.9882 21.6377 57.7844 20.5282 57.3791 19.5143C56.9723 18.5011 56.3639 17.6288 55.5524 16.8973C54.7402 16.166 53.7257 15.5952 52.5081 15.1846C51.2905 14.7746 49.8829 14.5687 48.2859 14.5687H37.4638V41.5102H42.6693V31.5035H45.5717L52.7504 41.5102H58.852L51.4287 31.1572C52.5278 30.8753 53.4901 30.4583 54.3153 29.9061ZM48.3252 19.1872C48.6363 19.1872 48.9471 19.2063 49.2558 19.2445C50.1838 19.3815 50.942 19.7062 51.5264 20.222C52.3216 20.9254 52.7192 21.7874 52.7192 22.809C52.7195 23.3178 52.6335 23.8231 52.4648 24.3043C52.2981 24.7853 52.0242 25.2238 51.663 25.5879C51.2973 25.959 50.828 26.2587 50.2547 26.4889C49.6807 26.7191 48.9896 26.8339 48.1814 26.8339H42.6694V19.1871L48.3252 19.1872ZM60.6903 14.5687V14.5758L60.5336 14.5687H60.4894V41.5101H65.797V14.5686L60.6903 14.5687Z" fill="white"/>
</g>
<defs>
<clipPath id="clip0_801_8579">
<rect width="80.04" height="77.3133" fill="white"/>
</clipPath>
</defs>
</svg>
