<svg width="80" height="30" viewBox="0 0 80 30" fill="none" xmlns="http://www.w3.org/2000/svg">
<g clip-path="url(#clip0_801_8582)">
<path d="M80 11.1529C79.9866 11.1985 79.9669 11.243 79.9607 11.2893C79.8925 11.8049 79.6073 12.108 79.0891 12.1774C78.8319 12.2118 78.5696 12.2178 78.3096 12.2178C75.887 12.2186 73.4642 12.2151 71.0416 12.2137C70.9526 12.2137 70.8623 12.2123 70.7748 12.2259C70.6878 12.2393 70.6423 12.2992 70.666 12.3899C70.6866 12.4692 70.7111 12.5485 70.7436 12.6237C71.2419 13.7719 72.1102 14.4892 73.3296 14.7302C74.5752 14.9765 75.7104 14.6606 76.7194 13.898C76.977 13.7033 77.2432 13.5444 77.5729 13.5279C78.0347 13.5048 78.4314 13.6462 78.6992 14.0381C78.9706 14.435 78.9883 14.8665 78.7619 15.2852C78.6531 15.4865 78.495 15.6674 78.3345 15.8337C78.031 16.1487 77.6626 16.3766 77.2591 16.5429C76.1612 16.9954 75.0224 17.2491 73.8301 17.1963C72.4009 17.1331 71.0997 16.6824 69.9468 15.8333C69.074 15.1906 68.4733 14.3377 68.1585 13.3046C67.6526 11.6444 67.6825 9.98645 68.3105 8.3613C68.754 7.21357 69.4677 6.26407 70.5106 5.58347C71.1755 5.14952 71.9076 4.88515 72.6855 4.74833C73.6608 4.57669 74.6383 4.55546 75.6094 4.7745C76.9102 5.06772 78.0145 5.68712 78.827 6.76911C79.3384 7.45033 79.6477 8.22448 79.8255 9.05096C79.8929 9.36458 79.9168 9.68726 79.9619 10.0056C79.9714 10.0728 79.9873 10.1389 80 10.2057V11.1529ZM74.0894 10.0963V10.0926C74.6179 10.0926 75.1464 10.0926 75.6749 10.0926C76.2035 10.0924 76.732 10.0915 77.2605 10.0911C77.4518 10.0911 77.4827 10.0674 77.452 9.8758C77.4128 9.63266 77.3665 9.3891 77.3001 9.15214C77.085 8.38438 76.6582 7.77486 75.9311 7.41015C75.0648 6.97578 74.1518 6.85689 73.2093 7.08067C71.6684 7.44621 70.9058 8.64998 70.6383 9.82305C70.5928 10.0229 70.648 10.0819 70.8564 10.094C70.8838 10.0957 70.9112 10.0963 70.9386 10.0963C71.9888 10.0963 73.0391 10.0963 74.0894 10.0963Z" fill="#B01F25"/>
<path d="M62.2886 29.1496C62.1895 29.1281 62.0908 29.104 61.991 29.0855C61.3533 28.9672 60.77 28.7245 60.2505 28.3328C60.2128 28.3043 60.171 28.2808 60.1184 28.247C60.0846 28.3303 60.0552 28.4049 60.0243 28.4789C59.8538 28.8879 59.5464 29.0657 59.1077 29.0026C58.9929 28.9862 58.8753 28.9672 58.7675 28.9264C58.4772 28.8168 58.3161 28.6021 58.2944 28.2895C58.2893 28.2143 58.2901 28.1387 58.2901 28.063C58.2901 25.27 58.2901 22.4769 58.2901 19.6836C58.2901 19.6288 58.2899 19.5738 58.2917 19.519C58.3043 19.1314 58.5128 18.8575 58.8905 18.7926C59.0892 18.7586 59.3041 18.7611 59.5027 18.7967C59.8681 18.8623 60.0686 19.1124 60.0995 19.4848C60.1079 19.5872 60.1079 19.6904 60.1081 19.7932C60.1089 20.3354 60.1085 20.8775 60.1085 21.4196V21.6496C60.1815 21.6174 60.2299 21.609 60.26 21.5808C61.8701 20.0739 65.4182 20.5408 66.0835 23.6296C66.3592 24.9096 66.2564 26.1587 65.6553 27.3361C65.1408 28.3437 64.3186 28.9493 63.1862 29.1116C63.1468 29.1172 63.1093 29.1364 63.071 29.1491L62.2886 29.1496ZM64.4178 25.0031C64.3811 24.7181 64.366 24.4286 64.3038 24.1494C64.1223 23.3341 63.6642 22.7509 62.841 22.4998C62.5076 22.398 62.1668 22.3938 61.8227 22.4346C60.7932 22.5568 60.1197 23.2947 60.0982 24.3279C60.0883 24.8004 60.0793 25.273 60.0673 25.7455C60.057 26.1519 60.1994 26.4999 60.4807 26.7861C61.0382 27.3534 61.7283 27.5603 62.5062 27.4859C63.1851 27.421 63.6778 27.0608 64.0209 26.4809C64.2904 26.0256 64.3994 25.5302 64.4178 25.0031Z" fill="#B01F25"/>
<path d="M75.1808 29.1496C75.0203 29.1211 74.8598 29.0915 74.6991 29.0643C73.8306 28.9167 73.0585 28.5755 72.4384 27.9332C71.8384 27.3118 71.5199 26.5619 71.4343 25.7076C71.3668 25.0332 71.3779 24.3608 71.5606 23.7058C72.0063 22.1089 73.0749 21.1711 74.6803 20.8365C75.4619 20.6735 76.2395 20.7421 76.9951 20.997C78.3454 21.4524 79.1365 22.4011 79.4194 23.7864C79.5092 24.2259 79.5288 24.671 79.5065 25.1179C79.5018 25.2129 79.4853 25.3089 79.4614 25.4012C79.4113 25.5957 79.2869 25.728 79.0922 25.7795C78.9669 25.8127 78.8375 25.8331 78.7085 25.8471C78.5997 25.8589 78.489 25.8545 78.3794 25.8545C76.7868 25.8549 75.1944 25.8587 73.6018 25.8519C73.24 25.8502 73.2691 25.9716 73.3756 26.203C73.7114 26.9326 74.2948 27.3521 75.0689 27.5032C75.8004 27.646 76.4878 27.5102 77.1161 27.1014C77.2138 27.0377 77.3081 26.9689 77.4058 26.9052C77.5632 26.8026 77.732 26.7303 77.923 26.7216C78.262 26.7062 78.5282 26.8321 78.691 27.136C78.8562 27.4447 78.8309 27.7469 78.6135 28.022C78.3617 28.3406 78.0332 28.5633 77.6704 28.7377C77.2385 28.9452 76.7767 29.0422 76.3057 29.1055C76.2323 29.1154 76.1602 29.1347 76.0875 29.1498L75.1808 29.1496ZM75.5262 24.4587C76.1847 24.4587 76.8435 24.4587 77.502 24.4587C77.55 24.4587 77.5983 24.4608 77.6461 24.4577C77.7986 24.448 77.8356 24.4014 77.8115 24.2459C77.8 24.1715 77.7812 24.0981 77.7656 24.0244C77.588 23.1882 77.0868 22.6508 76.2663 22.4167C75.896 22.311 75.5198 22.331 75.1446 22.398C74.5303 22.5076 74.0137 22.7802 73.6754 23.3211C73.5493 23.5228 73.4584 23.7474 73.3618 23.9662C73.315 24.072 73.2857 24.1867 73.2604 24.3001C73.2359 24.4093 73.2717 24.4486 73.3855 24.4581C73.4263 24.4616 73.4677 24.4585 73.5089 24.4585C74.1813 24.4585 74.8538 24.4587 75.5262 24.4587Z" fill="#B01F25"/>
<path d="M53.2267 29.1496C53.0452 29.1211 52.8636 29.0931 52.6821 29.0643C52.1698 28.9833 51.6811 28.8324 51.2267 28.5786C50.5698 28.2116 50.0873 27.6816 49.7732 27.0014C49.4468 26.2945 49.261 25.5477 49.2884 24.7692C49.3415 23.2599 50.0182 22.0922 51.3096 21.3024C51.8146 20.9935 52.3877 20.8616 52.9731 20.808C53.6681 20.7446 54.3577 20.7792 55.0289 20.9949C56.2539 21.3887 57.102 22.183 57.5174 23.4025C57.9967 24.8094 57.8747 26.1686 57.0478 27.4187C56.3806 28.4275 55.4076 28.9688 54.2084 29.1083C54.1414 29.1162 54.0757 29.1353 54.0095 29.1494L53.2267 29.1496ZM53.5605 22.3809C52.5237 22.3755 51.6982 22.9444 51.352 23.9166C51.1196 24.5696 51.1002 25.2368 51.3026 25.8988C51.5445 26.6905 52.06 27.2227 52.8688 27.4451C53.1888 27.5331 53.5162 27.5537 53.8482 27.5129C54.6584 27.4131 55.2693 27.0179 55.6244 26.279C56 25.497 56.0047 24.6852 55.7097 23.8783C55.3641 22.9337 54.5626 22.386 53.5605 22.3809Z" fill="#B01F25"/>
<path d="M45.5108 0C46.7176 0.0201934 48.016 0.203582 49.2389 0.754161C51.4878 1.76671 52.9318 3.47141 53.592 5.84537C53.8694 6.84288 54.0266 7.85646 54.0009 8.89292C53.9566 10.6743 53.4843 12.3326 52.5156 13.8339C51.5492 15.3319 50.1765 16.2987 48.4868 16.8283C47.2157 17.2268 45.9113 17.3781 44.5844 17.2794C42.9435 17.1574 41.4264 16.6567 40.0736 15.7067C38.673 14.723 37.772 13.3752 37.2539 11.7593C36.8843 10.6059 36.7034 9.4231 36.7609 8.2115C36.8373 6.59994 37.2688 5.08873 38.1122 3.70734C39.1128 2.06859 40.5756 1.02904 42.3895 0.454557C43.3655 0.145475 44.367 0.00370899 45.5108 0ZM50.2799 13.8178C50.3046 13.8106 50.3217 13.8108 50.3296 13.8026C50.5789 13.538 50.8295 13.2747 51.0749 13.0066C51.1814 12.8904 51.2016 12.7515 51.142 12.604C51.119 12.5469 51.0955 12.4898 51.0691 12.434C50.856 11.9811 50.6407 11.5292 50.4289 11.0759C49.0551 8.13793 47.6822 5.19959 46.3086 2.26166C46.2761 2.19181 46.2402 2.1234 46.206 2.05437C46.1916 2.05499 46.1774 2.05581 46.1629 2.05643C46.075 2.36324 45.8722 2.5965 45.6888 2.84273C45.5431 3.03849 45.4786 3.26267 45.5219 3.50273C45.5483 3.64923 45.5959 3.79594 45.6589 3.93091C47.1668 7.16927 48.6782 10.4062 50.1893 13.6433C50.2173 13.7035 50.2505 13.7612 50.2799 13.8178ZM44.6365 4.75431C44.6219 4.75431 44.6074 4.75431 44.5928 4.75451C44.5269 4.99889 44.4014 5.2101 44.2386 5.3974C43.9015 5.78499 43.8753 6.19834 44.0909 6.6566C45.3214 9.27494 46.5456 11.8964 47.7728 14.5164C47.8367 14.6528 47.9033 14.7892 47.9824 14.9167C48.1073 15.1178 48.2204 15.1595 48.4322 15.0651C48.6383 14.9732 48.8379 14.8644 49.0318 14.749C49.1858 14.6573 49.2072 14.5673 49.1478 14.3993C49.132 14.3542 49.1097 14.3113 49.0893 14.2679C47.6358 11.1558 46.1823 8.04356 44.7282 4.93172C44.6999 4.87134 44.6672 4.81344 44.6365 4.75431ZM43.0779 7.46022C43.055 7.48185 43.0334 7.49298 43.0274 7.50967C42.9328 7.77219 42.7719 7.99473 42.5994 8.20861C42.3338 8.5383 42.3072 8.88468 42.4857 9.26464C43.4032 11.2199 44.3163 13.1772 45.2328 15.1329C45.2936 15.2627 45.3676 15.3872 45.4446 15.5083C45.5176 15.6229 45.6264 15.7016 45.7624 15.716C46.0803 15.75 46.3908 15.6859 46.6983 15.6167C46.8034 15.593 46.824 15.5324 46.7887 15.4261C46.765 15.3548 46.7302 15.2872 46.6983 15.2188C45.5254 12.7016 44.3523 10.1845 43.1791 7.66751C43.1475 7.59972 43.1135 7.53337 43.0779 7.46022ZM41.5156 10.1538C41.3987 10.3534 41.2998 10.5321 41.1912 10.7046C41.1148 10.8261 41.0196 10.936 40.9423 11.0571C40.7705 11.3258 40.747 11.606 40.8902 11.8968C40.9811 12.0812 41.0676 12.2677 41.1546 12.454C41.5374 13.2734 41.9215 14.0923 42.3004 14.9136C42.3769 15.0795 42.4816 15.1972 42.6629 15.2479C43.0517 15.3562 43.4381 15.4737 43.8265 15.5837C43.8887 15.6014 43.9563 15.6004 44.0566 15.6124C43.2015 13.7756 42.362 11.972 41.5156 10.1538Z" fill="#B01F25"/>
<path d="M24.7899 10.871C24.7899 12.422 24.7905 13.973 24.7889 15.524C24.7889 15.647 24.781 15.771 24.7658 15.893C24.7019 16.4067 24.3932 16.764 23.8971 16.9029C23.649 16.9723 23.3949 16.9898 23.1419 16.9509C22.705 16.8839 22.3813 16.654 22.1913 16.2487C22.168 16.199 22.1516 16.1458 22.1248 16.0982C22.0654 15.9921 22.0259 15.9829 21.9307 16.0515C21.1538 16.6119 20.288 16.9624 19.3447 17.104C18.2003 17.2756 17.0845 17.139 16.0169 16.6884C14.9032 16.2184 14.1169 15.4055 13.6176 14.3128C13.1599 13.3107 12.8762 12.2613 12.8387 11.1571C12.7884 9.67634 13.1443 8.2935 13.9596 7.0545C14.8411 5.71534 16.109 4.94243 17.6864 4.68899C19.1432 4.45491 20.4947 4.76317 21.7446 5.53731C22.0628 5.7343 22.0696 5.73451 22.2501 5.40276C22.363 5.19506 22.5317 5.0469 22.7456 4.95686C23.2521 4.7438 23.7536 4.77141 24.2311 5.03846C24.6133 5.25234 24.768 5.60881 24.7884 6.03288C24.7913 6.09449 24.7897 6.1563 24.7897 6.21812C24.7897 7.76909 24.7899 9.32007 24.7899 10.871ZM22.0871 10.9209C22.078 10.9209 22.0689 10.9207 22.0597 10.9205C22.07 10.3862 22.0803 9.85169 22.0904 9.31739C22.097 8.96689 21.9923 8.6506 21.7658 8.38602C21.105 7.61373 20.2771 7.13321 19.2571 7.03987C17.8077 6.90717 16.5139 7.69327 15.9633 9.04375C15.38 10.4748 15.4651 11.8888 16.1646 13.2584C16.544 14.0012 17.1593 14.4869 17.9773 14.6571C19.2822 14.9287 20.4516 14.6085 21.4679 13.749C21.6175 13.6225 21.7415 13.4601 21.8575 13.3C22.0182 13.0779 22.0891 12.822 22.0879 12.5457C22.0854 12.0041 22.0871 11.4624 22.0871 10.9209Z" fill="#B01F25"/>
<path d="M29.5267 9.29225C29.6163 9.21849 29.6695 9.17954 29.7171 9.13483C30.9641 7.9667 32.2099 6.79734 33.4582 5.63045C33.6434 5.45737 33.8287 5.28057 34.0337 5.13262C34.5734 4.74318 35.1433 4.72793 35.7139 5.06071C36.379 5.44871 36.4973 6.2241 35.9813 6.79631C35.8118 6.98423 35.6236 7.15691 35.4339 7.32525C34.4273 8.21747 33.4172 9.10577 32.4084 9.99552C32.3671 10.0318 32.3245 10.0664 32.2841 10.1037C32.1244 10.2512 32.1186 10.3229 32.2561 10.4841C32.314 10.5519 32.376 10.6162 32.4364 10.6819C33.6807 12.0363 34.9247 13.3909 36.1701 14.7443C36.3784 14.9707 36.5435 15.2192 36.5989 15.5271C36.6863 16.0121 36.5365 16.41 36.1367 16.6999C35.6679 17.0399 35.0288 17.0484 34.5528 16.7193C34.4077 16.6189 34.2746 16.4947 34.1563 16.363C32.949 15.0214 31.7461 13.6759 30.5417 12.3316C30.4914 12.2753 30.4422 12.2174 30.3863 12.1669C30.2549 12.0478 30.1652 12.0392 30.0173 12.1383C29.6719 12.3699 29.4974 12.692 29.5083 13.1123C29.5191 13.5238 29.5281 13.9353 29.5312 14.3468C29.5341 14.7517 29.5324 15.1566 29.5248 15.5613C29.5219 15.7183 29.5164 15.8796 29.4795 16.0311C29.3746 16.4599 29.0915 16.7329 28.6779 16.8683C28.3293 16.9824 27.9755 16.982 27.6248 16.872C27.1509 16.7234 26.8593 16.3564 26.8201 15.8609C26.8115 15.7517 26.8086 15.6416 26.8086 15.532C26.808 11.346 26.8078 7.16 26.8096 2.97399C26.8096 2.80997 26.8096 2.64121 26.8453 2.48276C26.9535 2.00512 27.2764 1.73169 27.7389 1.61691C28.0509 1.53944 28.3654 1.54953 28.6746 1.64102C29.1659 1.78629 29.4612 2.14174 29.509 2.65007C29.5217 2.78648 29.5261 2.92392 29.5263 3.06095C29.5273 5.04423 29.5271 7.0273 29.5271 9.01058C29.5271 9.08949 29.5267 9.16842 29.5267 9.29225Z" fill="#B01F25"/>
<path d="M57.3237 6.13693C57.395 6.08233 57.449 6.0438 57.4999 6.00156C58.4984 5.17342 59.6422 4.71928 60.9398 4.63933C61.8147 4.58555 62.6688 4.66673 63.4872 4.98838C64.8571 5.52681 65.7435 6.53029 66.2389 7.89829C66.5249 8.6881 66.6287 9.5082 66.6291 10.3438C66.6298 11.7641 66.6298 13.1842 66.6291 14.6046C66.6289 14.9682 66.6267 15.3317 66.6201 15.6954C66.618 15.8114 66.6108 15.9295 66.5869 16.0426C66.4946 16.4786 66.2286 16.7578 65.8002 16.8792C65.4414 16.9808 65.0806 16.983 64.725 16.8693C64.2692 16.7236 64.0079 16.4051 63.9374 15.9338C63.9183 15.8054 63.9121 15.6742 63.9119 15.5444C63.9102 13.8564 63.9102 12.1684 63.9111 10.4804C63.9113 10.0332 63.8754 9.59021 63.7804 9.15214C63.4909 7.81566 62.4363 6.9865 61.0683 7.01926C60.2002 7.03987 59.4549 7.38192 58.7941 7.91519C57.9423 8.60279 57.4622 9.50614 57.3394 10.5912C57.3002 10.9376 57.3002 11.2893 57.2992 11.6386C57.2948 12.9697 57.2986 14.301 57.2959 15.6322C57.2957 15.7754 57.2833 15.9204 57.2584 16.0614C57.1784 16.5134 56.9122 16.7978 56.4628 16.9004C56.1438 16.9732 55.822 16.9725 55.5028 16.9002C54.9621 16.7778 54.6446 16.4069 54.5945 15.8444C54.586 15.749 54.5865 15.6523 54.5865 15.5565C54.5861 12.4618 54.5856 9.36705 54.5879 6.27231C54.5879 6.1155 54.5974 5.95581 54.6281 5.80271C54.7311 5.29025 55.0839 4.948 55.5965 4.86599C55.8689 4.82251 56.1449 4.82787 56.4136 4.90349C56.8638 5.03001 57.1376 5.33023 57.2543 5.77757C57.2819 5.88328 57.2963 5.9927 57.3237 6.13693Z" fill="#B01F25"/>
<path d="M12.1913 7.40974C12.1913 8.76846 12.1952 10.127 12.1898 11.4857C12.1867 12.3095 12.0565 13.1119 11.7275 13.8731C11.139 15.2347 10.1155 16.1407 8.74378 16.6575C7.60512 17.0865 6.42051 17.267 5.20664 17.1524C3.6433 17.0049 2.30497 16.3597 1.2205 15.2223C0.391958 14.3532 0.00869574 13.2988 4.14329e-05 12.1006C-0.00799471 10.9823 1.15457 10.3905 2.08511 10.8558C2.49022 11.0584 2.69627 11.4136 2.76674 11.8517C2.80363 12.0816 2.81331 12.3176 2.8675 12.5432C3.12919 13.6342 3.81206 14.3416 4.88663 14.6379C5.9439 14.9293 6.97315 14.8034 7.93439 14.2724C8.85793 13.7622 9.37286 12.9637 9.48887 11.9149C9.51669 11.6633 9.52926 11.4088 9.52988 11.1556C9.534 8.97349 9.534 6.79157 9.53503 4.60945C9.53503 4.18662 9.49711 4.1483 9.08068 4.14871C7.98261 4.14974 6.88454 4.15448 5.78648 4.14871C5.59711 4.14768 5.40074 4.1244 5.21983 4.07041C4.64555 3.89897 4.3173 3.42298 4.36614 2.86664C4.41353 2.32595 4.83965 1.88231 5.4094 1.81164C5.70117 1.77537 5.99789 1.77063 6.29255 1.77001C7.80231 1.76713 9.31228 1.77001 10.822 1.77187C11.1711 1.77228 11.4831 1.87943 11.7485 2.11C12.0518 2.37334 12.1964 2.70488 12.1956 3.10793C12.1925 4.54207 12.1944 5.97621 12.1944 7.41035C12.1933 7.41035 12.1923 7.40974 12.1913 7.40974Z" fill="#B01F25"/>
<path d="M35.9548 21.7145C36.0347 21.6533 36.0877 21.6102 36.1429 21.5707C37.3463 20.7083 38.645 20.5426 40.0254 21.0621C40.5838 21.2723 41.0363 21.6372 41.3856 22.1249C41.4093 22.1581 41.434 22.1905 41.4752 22.2459C41.5374 22.1812 41.5922 22.1243 41.6466 22.0675C42.4816 21.1925 43.4991 20.7398 44.7133 20.7615C45.2103 20.7703 45.6954 20.8686 46.1598 21.0491C46.9604 21.3603 47.499 21.9356 47.8281 22.719C48.0928 23.3493 48.1911 24.0093 48.1864 24.6891C48.1829 25.19 48.1868 25.6909 48.1854 26.1916C48.1835 26.8298 48.1817 27.4682 48.1759 28.1063C48.1703 28.7113 47.8911 28.9864 47.2886 28.9872C47.2268 28.9872 47.1648 28.986 47.1036 28.9798C46.674 28.9371 46.4184 28.6793 46.3805 28.2489C46.3733 28.1671 46.3735 28.0845 46.3733 28.002C46.3729 26.959 46.3754 25.9159 46.3717 24.8729C46.3704 24.5024 46.3634 24.1307 46.2666 23.7695C46.1024 23.1579 45.7609 22.6941 45.1514 22.4618C44.7564 22.3114 44.3544 22.3188 43.9598 22.4497C42.8745 22.8099 42.2164 23.5381 42.0975 24.6957C42.0548 25.1109 42.0538 25.5312 42.0503 25.9495C42.0445 26.6495 42.0532 27.3497 42.0523 28.0496C42.0523 28.1586 42.0406 28.2689 42.0225 28.3764C41.9687 28.6952 41.7826 28.9048 41.4639 28.9552C41.271 28.986 41.0643 28.989 40.8727 28.9552C40.5018 28.8895 40.2928 28.6344 40.2564 28.2567C40.2485 28.1749 40.2492 28.0923 40.249 28.0099C40.2485 26.9528 40.2541 25.8957 40.2452 24.8389C40.2426 24.5315 40.2238 24.2195 40.1682 23.9178C40.0305 23.1701 39.618 22.6438 38.8676 22.4215C38.5278 22.3207 38.1849 22.3347 37.8534 22.4456C36.827 22.7889 36.1549 23.4581 35.9824 24.556C35.9379 24.8393 35.9311 25.1303 35.9288 25.4179C35.9222 26.2689 35.9278 27.1199 35.9249 27.9709C35.9245 28.1073 35.9162 28.2458 35.8909 28.3793C35.8311 28.695 35.635 28.8885 35.3224 28.9575C35.1122 29.0039 34.9004 29.0024 34.69 28.9509C34.3997 28.8798 34.2276 28.6907 34.1656 28.4049C34.1382 28.2786 34.1267 28.1465 34.1264 28.0169C34.1242 25.9922 34.1229 23.9673 34.1281 21.9426C34.1285 21.774 34.1565 21.5989 34.2076 21.4384C34.2898 21.1796 34.478 21.0106 34.7467 20.9504C35.2857 20.8297 35.7425 21.0034 35.9099 21.575C35.921 21.6129 35.9342 21.6506 35.9548 21.7145Z" fill="#B01F25"/>
<path d="M69.1331 23.8783C69.1331 22.4989 69.1325 21.1198 69.1344 19.7405C69.1344 19.6247 69.1438 19.5072 69.1649 19.3935C69.2248 19.0696 69.4228 18.8594 69.7424 18.7996C69.927 18.7652 70.128 18.7632 70.3128 18.7961C70.6695 18.8596 70.8912 19.1299 70.9312 19.4996C70.9408 19.588 70.9408 19.6778 70.9408 19.7668C70.9413 22.5049 70.9413 25.2428 70.9408 27.9808C70.9408 28.0562 70.9454 28.1329 70.9338 28.2069C70.9182 28.3076 70.9009 28.4111 70.8634 28.5052C70.7214 28.8615 70.3802 29.0249 69.8877 28.982C69.4997 28.9482 69.2409 28.7313 69.1661 28.363C69.1418 28.2433 69.1341 28.1183 69.1339 27.9957C69.1319 26.6233 69.1331 25.2506 69.1331 23.8783Z" fill="#B01F25"/>
<path d="M68.7138 24.9623C68.7138 25.9841 68.7138 27.006 68.7136 28.028C68.7136 28.117 68.7152 28.2069 68.706 28.2953C68.6712 28.626 68.4803 28.853 68.1616 28.9443C67.9462 29.0059 67.7272 29.0068 67.5106 28.9546C67.15 28.8679 66.9463 28.6293 66.9121 28.2615C66.9044 28.1797 66.9059 28.097 66.9057 28.0148C66.9055 25.978 66.9048 23.9411 66.9069 21.9043C66.9069 21.7749 66.9147 21.6432 66.9395 21.5167C66.9963 21.2257 67.1853 21.0485 67.4632 20.9667C67.6773 20.9039 67.8953 20.9002 68.114 20.9535C68.4669 21.0399 68.6804 21.2869 68.7089 21.6502C68.7152 21.732 68.7138 21.8146 68.7138 21.8968C68.714 22.9187 68.7138 23.9403 68.7138 24.9623Z" fill="#B01F25"/>
<path d="M66.896 19.6414C66.9011 19.5653 66.9011 19.4895 66.9123 19.4153C66.9632 19.0772 67.1498 18.8676 67.4816 18.7961C67.7177 18.7452 67.9572 18.7448 68.1923 18.8143C68.4583 18.8928 68.6271 19.0691 68.6907 19.3366C68.7404 19.5451 68.7398 19.7576 68.6819 19.9661C68.6042 20.2459 68.4237 20.4268 68.1451 20.508C67.9234 20.5727 67.6979 20.5748 67.4756 20.5204C67.155 20.4419 66.9572 20.208 66.9104 19.866C66.9003 19.7916 66.9005 19.7157 66.896 19.6414Z" fill="#B01F25"/>
</g>
<defs>
<clipPath id="clip0_801_8582">
<rect width="80" height="29.1498" fill="white"/>
</clipPath>
</defs>
</svg>
