<svg width="80" height="67" viewBox="0 0 80 67" fill="none" xmlns="http://www.w3.org/2000/svg">
<g clip-path="url(#clip0_801_8632)">
<path fill-rule="evenodd" clip-rule="evenodd" d="M44.7267 0C36.6768 0 25.2423 3.48654 18.4887 11.9363C7.8025 16.6033 0 27.0368 0 38.4303C0 56.114 15.0588 66.6772 33.2094 66.6772C36.1968 66.6772 39.0378 66.0134 41.6958 65.3434C43.6534 65.651 45.6816 65.8139 47.7751 65.8139C64.9047 65.8139 80 51.9235 80 33.786C80 15.0543 65.1129 0 44.7267 0ZM32.4445 13.5498C41.0563 13.5498 47.7367 22.0248 47.7367 29.5929C47.7367 39.8225 41.4876 46.685 32.7599 46.685C24.9277 46.685 17.9485 39.4253 17.9485 29.1111C17.9485 20.6056 24.2709 13.5498 32.4445 13.5498ZM31.2919 63.493C19.4366 63.493 6.90255 52.0254 6.90255 37.7325C6.90255 30.7594 9.09449 23.7855 14.6353 19.0976C13.6404 21.1519 12.9801 23.62 12.7126 26.5664C12.5767 27.6362 12.5009 28.7461 12.5009 29.8917C12.5009 45.3302 20.9603 58.1256 34.1913 63.3205C33.2338 63.4329 32.2659 63.493 31.2919 63.493ZM40.1782 61.8778C30.2421 59.9272 22.0946 52.4 18.5749 43.492C22.0597 46.8932 27.0178 49.2263 33.3375 49.2263C43.4452 49.2263 53.0563 41.4865 53.0563 29.9971C53.0563 24.3579 51.0621 20.6657 51.0621 20.6657C55.2735 24.9424 57.9376 30.9485 57.9376 38.2735C57.9376 48.5702 50.2327 58.1691 40.1782 61.8778ZM50.0062 61.9344C58.1049 57.0958 63.1396 48.8246 63.1396 39.826C63.1396 19.7841 43.5959 12.6019 43.5959 12.6019C40.0039 10.4866 35.5791 9.35755 30.662 9.35755C30.2883 9.35755 29.6488 9.36714 29.2785 9.3802C34.2618 5.62272 40.7453 3.30969 47.3046 3.30969C62.5951 3.30969 74.1612 17.8213 74.1612 31.4094C74.1612 47.2068 62.981 59.4602 50.0062 61.9344Z" fill="#00A4DE"/>
</g>
<defs>
<clipPath id="clip0_801_8632">
<rect width="80" height="66.6772" fill="white"/>
</clipPath>
</defs>
</svg>
