<svg width="80" height="47" viewBox="0 0 80 47" fill="none" xmlns="http://www.w3.org/2000/svg">
<g clip-path="url(#clip0_801_8576)">
<path d="M72.2477 22.5414C71.9709 22.3756 71.2653 22.0988 70.7815 23.6063C70.2976 25.1137 69.3015 27.7969 68.693 28.9177C68.0845 30.0384 67.2689 30.5635 66.9225 29.4849C66.5771 28.4063 66.2866 25.1137 66.1619 22.4993C66.0373 19.8848 66.3489 17.5196 63.838 16.9808C61.3271 16.441 59.8544 17.8935 59.2734 18.9107C58.6924 19.927 55.9955 25.0312 55.9955 25.0312C55.9955 25.0312 55.8709 22.7696 56.1614 20.0314C56.4519 17.2923 56.5765 16.0268 56.1201 15.3633C55.6638 14.6989 53.2986 13.5168 52.5728 14.72C51.847 15.9232 50.6429 19.5127 49.8758 21.4839C49.1079 23.4551 47.2825 28.5172 46.1205 28.5172C44.9585 28.5172 45.3938 22.5414 45.8923 21.1311C46.3899 19.7199 46.8463 18.7036 46.8463 17.3968C46.8463 16.09 46.2442 15.1562 44.6057 14.8447C42.9663 14.5331 42.0957 15.8408 41.5349 17.7075C40.9749 19.5751 40.5598 21.8367 40.4975 24.0773C40.4975 24.0773 39.1073 26.5671 35.8706 26.3179C35.8706 26.3179 36.6175 23.8903 37.0537 22.3966C37.489 20.9029 38.2358 17.5828 36.4938 16.5253C34.7508 15.4669 32.3022 15.5503 31.0788 17.2309C29.8545 18.9116 29.5439 21.1522 29.7097 22.7705C29.8756 24.3889 30.8507 26.3811 31.7432 27.2938C31.7432 27.2938 30.4777 30.4682 29.959 31.8171C29.4403 33.166 29.1086 33.747 28.5688 33.747C28.0291 33.747 27.5315 33.0002 26.9917 31.2361C26.452 29.473 25.871 27.4597 25.6226 24.804C25.3734 22.1483 25.2909 18.9739 24.5853 17.7909C23.8797 16.6078 23.0228 16.4841 22.3447 16.4841C21.6666 16.4841 20.3323 17.2099 19.9584 18.6834C19.5845 20.157 18.7488 23.8289 17.7802 26.1108C16.8115 28.3935 15.7879 29.5692 15.4699 27.7154C15.152 25.8615 15.601 22.4177 15.809 21.1934C16.0161 19.9691 17.2404 18.1986 17.2267 17.6177C17.2129 17.0367 16.5769 15.2799 14.8752 15.2937C13.1735 15.3074 12.7593 16.594 12.3579 17.7423C11.9565 18.8905 11.0988 21.6708 10.4142 24.6794C9.72967 27.6879 9.17617 30.2327 7.83458 30.2327C7.00433 30.2327 6.27122 29.1816 5.85609 27.0097C5.44097 24.8379 5.0405 20.2871 5.0405 13.4545C5.0405 13.4545 6.6451 11.3175 7.83458 7.29268C9.0213 3.26607 8.85544 -0.364673 6.57271 0.029375C4.29089 0.423423 2.54792 3.90937 1.59396 7.89292C0.639077 11.8765 -0.63379 24.0489 0.362327 28.7518C0.870924 31.1518 2.36098 34.098 5.5995 34.3674C8.926 34.6442 10.4371 32.0691 11.1986 29.8441C11.1986 29.8441 13.4878 34.2566 15.4516 34.2566C17.4154 34.2566 18.7919 30.6945 19.5387 25.944C19.5387 25.944 20.7768 33.4272 21.9113 35.6128C23.0457 37.7984 24.4561 39.513 27.5544 39.513C30.6527 39.513 31.9531 37.2999 32.6449 35.2252C33.3368 33.1505 34.913 28.9452 34.913 28.9452C34.913 28.9452 37.4441 29.3465 40.6395 27.0226C40.6395 27.0226 40.7431 31.2554 42.4861 32.728C44.229 34.2007 45.7438 34.0073 46.8087 32.8178C47.8735 31.6283 49.4369 28.3917 49.7888 27.4991C49.7888 27.4991 49.6028 30.5213 49.8786 31.5587C50.1553 32.5961 51.8571 34.1732 53.8759 34.1732C55.8947 34.1732 56.4491 32.7344 57.0017 31.4203C57.5552 30.1062 60.4941 24.6564 60.4941 24.6564C60.4941 24.6564 60.9092 29.1174 61.4489 31.2123C61.9887 33.3081 63.5236 35.8392 65.9722 35.8392C68.4208 35.8392 70.6202 29.8634 71.7198 26.6267C72.8195 23.39 72.5226 22.7055 72.2459 22.5396L72.2477 22.5414ZM5.80569 5.94284C6.24097 3.55656 7.75577 2.51921 7.50743 4.69838C7.25817 6.87664 6.24189 9.30416 5.41164 10.9647C5.41164 10.9647 5.3704 8.32912 5.80569 5.94284ZM32.7577 23.9939C32.0658 22.9565 31.9833 21.7258 32.4397 21.0889C32.896 20.453 33.6017 20.6738 33.6979 21.4628C33.7941 22.2509 32.7577 23.9939 32.7577 23.9939Z" fill="#69B1E2"/>
<path d="M14.7478 5.88053C14.5325 6.40195 15.0796 7.64458 16.4496 8.63978C17.8187 9.63589 19.2088 9.03383 19.831 8.39052C20.4533 7.74721 21.2835 6.27458 19.831 5.29954C18.3786 4.3245 16.9472 5.30962 16.4285 5.66243C15.9098 6.01524 15.0695 5.10251 14.7478 5.88053Z" fill="#69B1E2"/>
<path d="M44.6249 5.88053C44.4096 6.40195 44.9567 7.64458 46.3267 8.63978C47.6957 9.63589 49.0859 9.03383 49.7081 8.39052C50.3304 7.74721 51.1606 6.27458 49.7081 5.29954C48.2557 4.3245 46.8243 5.30962 46.3056 5.66243C45.7869 6.01524 44.9466 5.10251 44.6249 5.88053Z" fill="#69B1E2"/>
<path d="M75.774 13.3427C75.817 13.9219 75.0207 14.3251 75.1866 14.7814C75.3524 15.2378 75.8509 16.3164 77.3447 15.2589C78.8384 14.2004 80.0004 12.7489 80.0004 10.5697C80.0004 8.39052 78.5451 7.58226 77.5811 7.58226C76.617 7.58226 75.269 9.15937 75.269 11.0884C75.269 12.5198 75.7391 12.8799 75.774 13.3427Z" fill="#FDB515"/>
<path d="M36.6944 44.3643C36.71 44.0995 36.7265 43.7064 36.7265 43.3618V38.669H37.4248V41.1075H37.4403C37.6887 40.674 38.1386 40.3936 38.7636 40.3936C39.7258 40.3936 40.4085 41.1954 40.4003 42.3748C40.4003 43.7623 39.526 44.4523 38.6591 44.4523C38.0974 44.4523 37.6484 44.236 37.3597 43.7219H37.3359L37.3038 44.3634L36.6944 44.3643ZM37.4248 42.8083C37.4248 42.8963 37.4403 42.9852 37.4568 43.0649C37.5934 43.5542 38.0021 43.8915 38.5153 43.8915C39.253 43.8915 39.6947 43.2894 39.6947 42.3996C39.6947 41.6216 39.2933 40.9554 38.5391 40.9554C38.058 40.9554 37.609 41.2843 37.4642 41.8213C37.4486 41.902 37.4238 41.9982 37.4238 42.11L37.4248 42.8083Z" fill="#69B1E2"/>
<path d="M41.4917 40.4816L42.3421 42.7762C42.4301 43.0328 42.5263 43.338 42.5905 43.5707H42.606C42.6784 43.338 42.7582 43.0411 42.8544 42.7606L43.6241 40.4825H44.3701L43.3117 43.25C42.8058 44.5815 42.4612 45.2633 41.9801 45.6803C41.6356 45.9854 41.2901 46.1055 41.1141 46.1375L40.9373 45.5437C41.1141 45.4878 41.346 45.3751 41.5549 45.1992C41.7474 45.047 41.9884 44.7739 42.1488 44.4129C42.1808 44.3405 42.2047 44.2846 42.2047 44.2443C42.2047 44.204 42.1891 44.1481 42.1561 44.0601L40.7201 40.4825H41.4899L41.4917 40.4816Z" fill="#69B1E2"/>
<path d="M46.6574 41.6206C46.6574 41.1716 46.6492 40.7941 46.6253 40.4577H47.4757L47.5161 41.0351H47.5399C47.7323 40.7299 48.0851 40.3689 48.7431 40.3689C49.2563 40.3689 49.6577 40.6575 49.8263 41.091H49.8428C49.9793 40.8747 50.1397 40.7143 50.3239 40.6016C50.5401 40.4495 50.7894 40.3689 51.1101 40.3689C51.7599 40.3689 52.4178 40.8096 52.4178 42.0614V44.3634H51.4556V42.2053C51.4556 41.5556 51.2311 41.1707 50.7573 41.1707C50.4201 41.1707 50.1718 41.4117 50.0673 41.6921C50.0435 41.7883 50.0187 41.9084 50.0187 42.0211V44.3634H49.0565V42.1008C49.0565 41.5556 48.8402 41.1707 48.383 41.1707C48.0137 41.1707 47.7653 41.4594 47.6773 41.7324C47.637 41.8287 47.6214 41.9414 47.6214 42.0532V44.3634H46.6592V41.6197L46.6574 41.6206Z" fill="#262262"/>
<path d="M55.6582 44.3643L55.5941 43.9309H55.5703C55.3292 44.236 54.9205 44.4523 54.4147 44.4523C53.6284 44.4523 53.1876 43.8832 53.1876 43.2894C53.1876 42.3025 54.0619 41.8058 55.5061 41.8131V41.749C55.5061 41.4924 55.4016 41.0672 54.7116 41.0672C54.3267 41.0672 53.9253 41.1872 53.6605 41.3558L53.4681 40.7143C53.7567 40.5375 54.2626 40.3698 54.8802 40.3698C56.132 40.3698 56.4921 41.1643 56.4921 42.0147V43.4269C56.4921 43.7797 56.5086 44.1252 56.548 44.3652H55.6573L55.6582 44.3643ZM55.5299 42.4555C54.8316 42.439 54.1663 42.592 54.1663 43.1859C54.1663 43.5707 54.4147 43.7476 54.7281 43.7476C55.1212 43.7476 55.4099 43.491 55.4979 43.2097C55.5217 43.1373 55.5299 43.0576 55.5299 42.9934V42.4555Z" fill="#262262"/>
<path d="M57.535 41.6207C57.535 41.1716 57.5267 40.7941 57.5029 40.4578H58.3689L58.4175 41.0433H58.4413C58.6099 40.7382 59.0351 40.3698 59.6848 40.3698C60.3666 40.3698 61.0723 40.8106 61.0723 42.0468V44.3652H60.0853V42.1595C60.0853 41.5977 59.8764 41.1725 59.3394 41.1725C58.9462 41.1725 58.6732 41.453 58.5696 41.7499C58.5375 41.8378 58.5293 41.9588 58.5293 42.0706V44.3652H57.5341V41.6216L57.535 41.6207Z" fill="#262262"/>
<path d="M65.7257 38.669V43.2656C65.7257 43.667 65.7413 44.0995 65.7578 44.3643H64.8753L64.835 43.7467H64.8194C64.5866 44.1801 64.1138 44.4523 63.5438 44.4523C62.6127 44.4523 61.875 43.6578 61.875 42.4546C61.8668 41.1469 62.6851 40.3689 63.6235 40.3689C64.1614 40.3689 64.5463 40.5934 64.7222 40.882H64.7378V38.668H65.7248L65.7257 38.669ZM64.7387 42.0862C64.7387 42.0055 64.7305 41.9093 64.7149 41.8296C64.6269 41.4447 64.3135 41.1313 63.8645 41.1313C63.2304 41.1313 62.8776 41.6931 62.8776 42.4225C62.8776 43.1519 63.2304 43.6578 63.8563 43.6578C64.2576 43.6578 64.6104 43.3847 64.7067 42.9595C64.7305 42.8715 64.7387 42.7753 64.7387 42.6708V42.0862Z" fill="#262262"/>
<path d="M67.8343 39.3673C67.8343 39.6642 67.618 39.8969 67.2726 39.8969C66.9271 39.8969 66.7273 39.6642 66.7273 39.3673C66.7273 39.0703 66.9518 38.8293 67.2808 38.8293C67.6098 38.8293 67.8261 39.0621 67.8343 39.3673ZM66.7832 44.3652V40.4587H67.7784V44.3652H66.7832Z" fill="#262262"/>
<path d="M68.8379 41.7169C68.8379 41.1873 68.8297 40.8106 68.8058 40.4578H69.6645L69.6965 41.2038H69.7286C69.9211 40.6503 70.3783 40.3698 70.7953 40.3698C70.8915 40.3698 70.9474 40.3781 71.0281 40.3937V41.3238C70.9483 41.3082 70.8595 41.2917 70.7394 41.2917C70.2656 41.2917 69.9449 41.5969 69.8569 42.0377C69.8404 42.1257 69.8248 42.2301 69.8248 42.3428V44.3644H68.8379V41.7169Z" fill="#262262"/>
<path d="M72.7445 39.3673C72.7445 39.6642 72.5282 39.897 72.1827 39.897C71.8372 39.897 71.6375 39.6642 71.6375 39.3673C71.6375 39.0704 71.862 38.8294 72.191 38.8294C72.52 38.8294 72.7362 39.0622 72.7445 39.3673ZM71.6934 44.3653V40.4588H72.6886V44.3653H71.6934Z" fill="#262262"/>
</g>
<defs>
<clipPath id="clip0_801_8576">
<rect width="80.0004" height="46.1375" fill="white"/>
</clipPath>
</defs>
</svg>
