<svg width="80" height="23" viewBox="0 0 80 23" fill="none" xmlns="http://www.w3.org/2000/svg">
<g clip-path="url(#clip0_801_8585)">
<path d="M73.4845 22.5671C73.3991 22.6134 73.3058 22.6009 73.215 22.6009C71.9725 22.6015 70.7298 22.6015 69.4872 22.6014C69.4261 22.6014 69.3639 22.6055 69.3043 22.5957C69.1193 22.5656 68.9821 22.4703 68.9279 22.2839C68.8512 22.0202 68.7768 21.7559 68.707 21.4903C68.4613 20.5561 68.2187 19.6209 67.9736 18.6864C67.6641 17.506 67.3549 16.3256 67.043 15.1459C66.7442 14.0154 66.4408 12.8861 66.1421 11.7557C65.8978 10.8315 65.6572 9.90629 65.4153 8.98151C65.351 8.73569 65.2885 8.48941 65.2231 8.24389C65.2078 8.1866 65.2092 8.12182 65.1594 8.07736C65.1009 8.06331 65.0977 8.10792 65.0879 8.14489C64.883 8.92162 64.6783 9.69836 64.4736 10.4751C64.1237 11.8026 63.7734 13.1299 63.4241 14.4576C63.018 16.001 62.6132 17.5447 62.2072 19.0882C61.9409 20.101 61.6739 21.1136 61.4071 22.1264C61.4045 22.1361 61.4007 22.1458 61.3978 22.1554C61.2915 22.5118 61.1786 22.6006 60.8105 22.6011C59.5272 22.6024 58.2438 22.6017 56.9605 22.6017C56.9197 22.6017 56.8789 22.603 56.8383 22.6007C56.6105 22.5875 56.4546 22.4782 56.3888 22.2553C56.2936 21.9336 56.1992 21.6117 56.1069 21.2891C55.7577 20.0669 55.4105 18.8442 55.0608 17.622C54.6301 16.1163 54.1978 14.6111 53.7662 13.1056C53.4131 11.8739 53.0602 10.6422 52.7074 9.41052C52.6879 9.34207 52.6794 9.26874 52.6497 9.20534C52.602 9.10374 52.6327 8.96333 52.5033 8.90161C52.3979 8.97922 52.426 9.10618 52.3994 9.209C52.2277 9.87314 51.9815 10.5061 51.6254 11.0929C51.0856 11.9826 50.3405 12.6644 49.4566 13.2002C48.9761 13.4914 48.465 13.7162 47.9233 13.8688C47.9037 13.8743 47.8834 13.8775 47.8641 13.8842C47.7923 13.9094 47.7662 13.9626 47.8012 14.0257C47.8453 14.1057 47.8952 14.1827 47.9434 14.2605C48.771 15.5914 49.5985 16.9224 50.4264 18.2531C51.1361 19.3936 51.8462 20.5338 52.5559 21.6743C52.6043 21.7521 52.6547 21.8291 52.6956 21.9106C52.8593 22.237 52.6772 22.5673 52.3175 22.5989C52.2569 22.6043 52.1954 22.6014 52.1343 22.6014C50.8001 22.6017 49.4657 22.6017 48.1315 22.6018C48.1009 22.6018 48.0702 22.6 48.0398 22.6021C47.8107 22.6182 47.651 22.5129 47.538 22.3207C47.4244 22.1277 47.3071 21.9369 47.1928 21.7444C46.2161 20.0996 45.2398 18.4543 44.2631 16.8095C43.8528 16.1185 43.4415 15.4279 43.0308 14.737C42.9996 14.6846 42.9695 14.6315 42.939 14.5786C42.9005 14.512 42.8467 14.4732 42.7659 14.4773C42.7152 14.4799 42.6641 14.4773 42.6131 14.4773C41.7473 14.4773 40.8817 14.4773 40.0159 14.4776C39.9547 14.4776 39.8932 14.4756 39.8328 14.4822C39.7896 14.4869 39.7586 14.5195 39.7561 14.563C39.7508 14.6542 39.7505 14.7459 39.7505 14.8373C39.7505 17.1891 39.7506 19.541 39.7508 21.8928C39.7508 21.9844 39.7547 22.0764 39.7483 22.1676C39.7311 22.4139 39.5933 22.563 39.3517 22.5959C39.2816 22.6053 39.2095 22.6015 39.1381 22.6015C38.0381 22.6018 36.9381 22.6018 35.8381 22.6015C35.7669 22.6015 35.6948 22.605 35.6245 22.5956C35.3992 22.5652 35.2574 22.4221 35.2291 22.1954C35.2192 22.1151 35.2239 22.0327 35.2239 21.9514C35.2241 17.5327 35.2247 13.1142 35.2242 8.69551C35.2242 8.59468 35.243 8.4917 35.203 8.39362C35.201 8.38873 35.1862 8.38919 35.1723 8.38598C35.1162 8.39973 35.1127 8.45855 35.0956 8.49995C34.3793 10.228 33.6657 11.9574 32.9504 13.6858C31.7841 16.5038 30.6138 19.3203 29.4536 22.1409C29.3172 22.4724 29.1955 22.6194 28.7693 22.6044C28.3725 22.5905 27.975 22.6017 27.5778 22.6017C27.5166 22.6017 27.4555 22.6017 27.3944 22.6012C27.1668 22.5992 27.0097 22.4973 26.9226 22.2827C26.8004 21.9812 26.6699 21.683 26.5457 21.3823C25.6954 19.3241 24.8465 17.2654 23.9958 15.2074C23.0909 13.0184 22.1846 10.8301 21.2787 8.64158C21.2521 8.57756 21.2218 8.51493 21.1954 8.45641C21.1248 8.45274 21.124 8.4972 21.1233 8.5354C21.121 8.64738 21.1217 8.75937 21.1217 8.87136C21.1217 13.2187 21.1217 17.566 21.1219 21.9135C21.1219 21.995 21.1257 22.0767 21.1204 22.1578C21.1039 22.4079 20.947 22.5713 20.6976 22.5985C20.6371 22.605 20.5756 22.6017 20.5144 22.6017C19.4144 22.6018 18.3144 22.602 17.2144 22.6017C17.1331 22.6017 17.0505 22.6047 16.9707 22.592C16.7794 22.5615 16.6354 22.4241 16.6047 22.2322C16.5856 22.1125 16.5859 21.989 16.5859 21.8671C16.585 19.0775 16.5851 16.2877 16.5851 13.4981C16.5851 10.5252 16.585 7.55226 16.5854 4.57947C16.5854 4.17491 16.6111 4.20532 16.201 4.20532C14.5816 4.20532 12.9621 4.20578 11.3426 4.20532C11.0326 4.20532 11.0258 4.18301 11.0259 4.5234C11.0274 8.92162 11.0273 13.32 11.0274 17.7182C11.0274 19.1232 11.0274 20.5283 11.0271 21.9333C11.0271 22.0147 11.031 22.0966 11.0247 22.1775C11.0074 22.3968 10.8629 22.556 10.645 22.5931C10.5755 22.6049 10.503 22.6015 10.4319 22.6015C9.32166 22.602 8.21156 22.602 7.10131 22.6018C7.0402 22.6018 6.97863 22.6049 6.91813 22.598C6.67903 22.5707 6.52793 22.424 6.50119 22.1847C6.48882 22.074 6.49325 21.9611 6.49325 21.8492C6.49294 16.107 6.49294 10.3648 6.49294 4.62256C6.49294 4.58177 6.49233 4.54113 6.4931 4.50034C6.49875 4.19997 6.48897 4.20455 6.18341 4.20471C4.33982 4.20578 2.49623 4.20547 0.65279 4.20547C0.571358 4.20547 0.489468 4.2096 0.408495 4.20303C0.162673 4.18316 0.016768 4.03482 0.00210115 3.79312C-0.00156556 3.73231 0.000726137 3.67105 0.000726137 3.60993C0.000726137 2.60205 0.000726137 1.59401 0.000726137 0.586121C0.000726137 0.535245 -0.00126 0.484217 0.00133726 0.433494C0.0126429 0.188282 0.153659 0.0344333 0.393675 0.00815524C0.46426 0.000516256 0.536066 0.00479408 0.607414 0.00479408C7.76774 0.00479408 14.9281 0.00479408 22.0885 0.00479408C22.1089 0.00479408 22.1295 0.00678022 22.1496 0.00448853C22.4396 -0.0280535 22.6026 0.118462 22.7062 0.375437C22.9948 1.09213 23.2906 1.80591 23.5853 2.52016C24.3376 4.34343 25.0911 6.16624 25.8436 7.98936C26.5766 9.76573 27.309 11.5423 28.0421 13.3186C28.0689 13.3837 28.1001 13.447 28.1285 13.5096C28.2188 13.4836 28.2342 13.4117 28.2614 13.346C28.517 12.7254 28.7742 12.1054 29.0301 11.485C29.8945 9.38913 30.7585 7.29299 31.6229 5.19701C32.2702 3.62766 32.918 2.05846 33.5658 0.489258C33.5968 0.413938 33.626 0.337701 33.6622 0.264825C33.7464 0.095698 33.8795 0.000210696 34.0747 0.00464131C34.1358 0.00601632 34.1969 0.00464131 34.258 0.00464131C37.935 0.00464131 41.6119 -0.000247643 45.2889 0.0076969C46.4511 0.0102942 47.5737 0.229838 48.6378 0.7169C49.2349 0.990223 49.7779 1.34269 50.2758 1.7694C50.3523 1.83494 50.405 1.95228 50.5372 1.93425C50.5705 1.82684 50.5072 1.7367 50.4813 1.64091C50.3963 1.32695 50.3065 1.01436 50.2183 0.701316C50.2046 0.652427 50.1856 0.604301 50.1775 0.554495C50.1267 0.244047 50.3141 0.0144192 50.6298 0.00571076C50.8333 0.000210696 51.0371 0.00448853 51.2409 0.00448853C52.3918 0.00448853 53.5428 0.0118219 54.6937 0.000363476C55.0724 -0.00345601 55.2327 0.101198 55.3427 0.489869C55.8276 2.20207 56.3263 3.91045 56.8204 5.62006C57.255 7.12417 57.6903 8.62798 58.1254 10.1319C58.4617 11.2943 58.7984 12.4565 59.1348 13.6187C59.1489 13.6674 59.1597 13.7172 59.1773 13.7644C59.1827 13.7789 59.205 13.7939 59.2212 13.7958C59.2363 13.7976 59.2639 13.7861 59.2682 13.7741C59.3063 13.6693 59.3442 13.5641 59.3749 13.457C60.0069 11.2475 60.6379 9.03758 61.2692 6.82793C61.7941 4.99015 62.3191 3.15251 62.8442 1.31488C62.9252 1.03147 63.0067 0.74822 63.0892 0.465119C63.1091 0.396827 63.1288 0.327465 63.1581 0.262992C63.2266 0.112657 63.3441 0.0234332 63.5106 0.00723856C63.5713 0.00143293 63.6327 0.00433575 63.6938 0.00418297C64.6613 0.00418297 65.6291 0.00418297 66.5966 0.00418297C66.6475 0.00418297 66.6985 0.00326629 66.7494 0.0054052C66.9459 0.0133497 67.0731 0.121365 67.1391 0.297062C67.1926 0.439452 67.2299 0.588107 67.2716 0.734775C67.6616 2.10368 68.0497 3.4732 68.4408 4.8418C68.8849 6.39587 69.3332 7.94872 69.7763 9.5031C70.1721 10.8917 70.5632 12.2816 70.9571 13.6706C70.9736 13.7287 70.9977 13.7846 71.0181 13.8411C71.096 14.1221 71.1724 14.4041 71.2527 14.6848C71.923 17.0273 72.5952 19.3695 73.263 21.7126C73.3435 21.9951 73.4417 22.2746 73.4845 22.5671ZM39.7496 7.23326C39.7496 8.15925 39.7502 9.08525 39.7491 10.0111C39.7488 10.2904 39.7477 10.272 40.0215 10.272C41.4874 10.2716 42.9532 10.272 44.4191 10.2702C44.5818 10.2701 44.7448 10.2644 44.9071 10.2522C45.5269 10.2054 46.1076 10.038 46.6191 9.67315C47.2229 9.24231 47.6275 8.67687 47.7755 7.94047C47.8301 7.66944 47.8398 7.39612 47.8377 7.12081C47.8347 6.72893 47.7583 6.35218 47.6014 5.99498C47.2478 5.19075 46.6217 4.68703 45.8053 4.40653C45.4276 4.27682 45.0345 4.22319 44.6347 4.22319C43.0976 4.22319 41.5605 4.22319 40.0233 4.22319C39.9825 4.22319 39.9419 4.22197 39.9013 4.2238C39.7824 4.229 39.756 4.25237 39.7506 4.3639C39.7471 4.43495 39.7496 4.50629 39.7496 4.57749C39.7496 5.46269 39.7494 6.34805 39.7496 7.23326Z" fill="black"/>
<path d="M73.4845 22.5671C73.4417 22.2746 73.3435 21.9951 73.263 21.7126C72.5952 19.3695 71.923 17.0273 71.2527 14.6848C71.1724 14.4041 71.096 14.1221 71.0181 13.8411C71.0932 13.7657 71.1157 13.6683 71.1432 13.5693C71.3714 12.7466 71.6023 11.9247 71.8345 11.1032C72.2435 9.65527 72.6555 8.2083 73.0635 6.7601C73.4851 5.26316 73.9037 3.76531 74.3234 2.26792C74.4852 1.69041 74.646 1.11275 74.8084 0.535398C74.8304 0.457175 74.8536 0.378493 74.8852 0.303937C74.9636 0.118921 75.1011 0.0124333 75.3073 0.00708604C75.3685 0.00555825 75.4296 0.00616937 75.4905 0.00616937C76.7937 0.00616937 78.0968 0.00632215 79.4 0.0066277C79.4611 0.0066277 79.5224 0.00387767 79.5832 0.00861384C79.8302 0.0278641 79.9989 0.201422 79.9987 0.447855C79.9987 0.53769 79.9781 0.629663 79.9532 0.7169C79.5551 2.11499 79.154 3.51216 78.755 4.91009C78.3504 6.32727 77.9478 7.74492 77.5436 9.16225C77.1949 10.3843 76.8451 11.6061 76.4958 12.8282C75.8002 15.2621 75.1048 17.6961 74.4093 20.13C74.2249 20.7752 74.0408 21.4204 73.8561 22.0656C73.8336 22.1438 73.8141 22.2235 73.7831 22.2984C73.727 22.4338 73.6492 22.5496 73.4845 22.5671Z" fill="#FDC400"/>
</g>
<defs>
<clipPath id="clip0_801_8585">
<rect width="79.9987" height="22.6055" fill="white"/>
</clipPath>
</defs>
</svg>
