<svg width="108" height="108" viewBox="0 0 108 108" fill="none" xmlns="http://www.w3.org/2000/svg">
<ellipse cx="54" cy="53.84" rx="40" ry="26.84" fill="#FCDB00"/>
<path fill-rule="evenodd" clip-rule="evenodd" d="M85.1822 66.3601C88.4943 62.694 90.4002 58.3959 90.4002 53.8001C90.4002 49.2042 88.4943 44.9061 85.1822 41.2401H22.8981C19.5861 44.9061 17.6802 49.2042 17.6802 53.8001C17.6802 58.3959 19.5861 62.694 22.8981 66.3601H85.1822Z" fill="black"/>
<path fill-rule="evenodd" clip-rule="evenodd" d="M85.1821 41.2401H22.8979C29.2654 34.192 40.83 29.4801 54.04 29.4801C67.25 29.4801 78.8146 34.192 85.1821 41.2401Z" fill="#007CC2"/>
<path fill-rule="evenodd" clip-rule="evenodd" d="M85.1821 66.36C78.8146 73.4082 67.25 78.12 54.04 78.12C40.83 78.12 29.2654 73.4082 22.8979 66.36H85.1821Z" fill="#DA251C"/>
<path fill-rule="evenodd" clip-rule="evenodd" d="M71.6896 48.1359C70.2431 49.4798 69.5198 51.3579 69.5198 53.7701C69.5198 55.497 69.885 56.935 70.6156 58.084C71.3461 59.233 72.2972 60.073 73.4689 60.6038C74.6479 61.1346 76.1342 61.4001 77.9279 61.4001C79.6928 61.4001 81.1646 61.0943 82.3436 60.4829C83.5298 59.8647 84.4339 59.0046 85.0559 57.9026C85.6852 56.7939 85.9998 55.3761 85.9998 53.6492C85.9998 51.2705 85.2837 49.4227 83.8516 48.1056C82.4195 46.7819 80.3799 46.1201 77.7327 46.1201C75.1505 46.1201 73.1362 46.792 71.6896 48.1359ZM75.3241 57.0055C74.731 56.3538 74.4345 55.282 74.4345 53.7903C74.4345 52.2851 74.7347 51.2067 75.335 50.5549C75.9353 49.9031 76.7309 49.5772 77.7218 49.5772C78.7561 49.5772 79.5734 49.8997 80.1737 50.5448C80.7813 51.1832 81.0851 52.1978 81.0851 53.5887C81.0851 55.2417 80.7958 56.3874 80.2171 57.0257C79.6385 57.664 78.8212 57.9832 77.7652 57.9832C76.7381 57.9832 75.9245 57.6573 75.3241 57.0055ZM68.6398 46.6403H53.6161V50.2049H58.5998V61.08H63.5998V50.2049H68.6398V46.6403ZM27.7998 58.7233L27.0049 61.0798H21.9712L27.9198 46.6801H33.3998L39.3998 61.0798H34.1598L33.3998 58.7233H27.7998ZM32.3598 55.5601L30.5998 50.4001L28.8798 55.5601H32.3598ZM40.8791 46.6801H45.7998V57.4455H53.5598V61.08H40.8791V46.6801Z" fill="white"/>
</svg>
