<svg width="108" height="108" viewBox="0 0 108 108" fill="none" xmlns="http://www.w3.org/2000/svg">
<g clip-path="url(#clip0_801_8677)">
<path d="M94 27.2553V80.5169H14V27.2553H94Z" fill="#0267B1"/>
<path fill-rule="evenodd" clip-rule="evenodd" d="M54.7029 51.3981H51.4271L51.0078 48.1224H47.7887L45.9865 51.5568H42.4614L49.7496 37.8986H52.8553L54.7029 51.3981Z" fill="#FEFEFE"/>
<path fill-rule="evenodd" clip-rule="evenodd" d="M62.1608 40.5849L60.0639 51.4322H56.5388L58.6017 40.5849H55.0767L55.4167 38.0233H66.604L66.23 40.5849H62.1608Z" fill="#FEFEFE"/>
<path fill-rule="evenodd" clip-rule="evenodd" d="M69.9933 51.4322H72.725L75.9554 45.8668L74.8559 51.4322H77.9616L80.8973 38.0233H77.0775L72.6343 46.2409L71.3762 38.0233H67.7718L64.9268 51.4322H68.2818L69.54 45.7762L69.9933 51.4322Z" fill="#FEFEFE"/>
<path fill-rule="evenodd" clip-rule="evenodd" d="M49.0015 45.4815H50.9737L50.4636 42.2964L49.0015 45.4815Z" fill="#0267B1"/>
<path d="M43.7988 67.346C43.7988 66.6886 43.8102 64.9317 43.7875 64.7164C43.7988 62.0981 41.906 60.2619 40.7045 60.4092C39.8771 60.4886 39.1743 60.8173 38.8003 61.792C38.4489 62.6988 38.7663 63.9116 39.9111 64.195C41.1465 64.501 41.8606 64.7504 42.382 65.1131C43.0168 65.5551 43.5382 66.3826 43.5495 67.3574H43.7875L43.7988 67.346Z" fill="#FEFEFE"/>
<path d="M37.7346 69.5563C36.7824 67.55 36.2271 65.2604 36.2271 62.9595C36.2271 60.6586 36.7598 58.471 37.7232 56.4648C39.7295 55.5126 41.9397 55.0139 44.2407 55.0139C46.5416 55.0139 48.8085 55.6373 50.8261 56.5894C51.7782 58.5957 52.3676 60.8853 52.3676 63.1862C52.3676 65.4871 51.8009 67.6634 50.8488 69.681C48.8425 70.6331 46.6096 71.1318 44.3087 71.1318C42.0077 71.1318 39.7748 70.5084 37.7572 69.5563H37.7346Z" stroke="#FEFEFE" stroke-width="1.18679"/>
<path d="M43.2776 67.346C43.2776 66.5073 42.8128 65.7592 42.2008 65.3625C41.6567 65.0111 40.92 64.7731 39.7412 64.4784C39.3784 64.3877 38.9931 64.1723 38.8797 63.9116C38.5623 64.229 38.5057 64.9317 38.5623 65.3511C38.6304 65.8272 39.1858 66.6206 40.0245 66.6546C40.5346 66.6773 41.192 66.5413 41.498 66.4733C42.0308 66.3599 42.8922 66.6999 43.0282 67.346H43.2776Z" fill="#FEFEFE"/>
<path d="M44.2295 56.3287C42.8014 56.3287 41.5659 57.2695 41.5772 58.9017C41.5772 60.2732 42.688 61.0099 43.0734 61.5313C43.6628 62.3248 43.9915 63.2542 44.0255 64.6824C44.0482 65.8158 44.0482 66.938 44.0595 67.346H44.3769C44.3656 66.9266 44.3542 65.7365 44.3769 64.6484C44.3996 63.2202 44.7283 62.3134 45.329 61.5313C45.7257 61.0099 46.8252 60.2732 46.8252 58.9017C46.8252 57.2695 45.601 56.3287 44.1729 56.3287H44.2409H44.2295Z" fill="#FEFEFE"/>
<path d="M44.5922 67.346C44.5922 66.6886 44.5809 64.9317 44.6035 64.7164C44.5922 62.0981 46.4851 60.2619 47.6866 60.4092C48.514 60.4886 49.2167 60.8173 49.5908 61.792C49.9421 62.6988 49.6248 63.9116 48.48 64.195C47.2445 64.501 46.5304 64.7504 46.009 65.1131C45.3743 65.5551 44.8869 66.3826 44.8756 67.3574H44.6035L44.5922 67.346Z" fill="#FEFEFE"/>
<path d="M45.1021 67.346C45.1021 66.5073 45.5668 65.7592 46.1788 65.3625C46.7229 65.0111 47.4597 64.7731 48.6385 64.4784C49.0012 64.3877 49.3866 64.1723 49.4999 63.9116C49.8173 64.229 49.8739 64.9317 49.8173 65.3511C49.7493 65.8272 49.1939 66.6206 48.3551 66.6546C47.845 66.6773 47.1876 66.5413 46.8816 66.4733C46.3489 66.3599 45.4874 66.6999 45.3627 67.346H45.1134H45.1021Z" fill="#FEFEFE"/>
<path d="M45.7368 69.2049C45.7935 69.1936 45.8729 69.1936 45.9069 69.1369C45.9295 69.1029 45.9409 69.0689 45.9295 68.9895C45.9069 68.8875 45.8842 68.8309 45.7595 68.8535L45.6462 68.8649L45.6915 69.2049L45.7368 69.1936V69.2049ZM45.8275 69.817C45.8842 69.8056 45.9295 69.8056 45.9749 69.783C46.0429 69.7376 46.0315 69.6583 46.0202 69.5903C45.9975 69.4429 45.9635 69.3863 45.8048 69.4089L45.7142 69.4203L45.7708 69.8283L45.8275 69.817ZM45.5441 70.055L45.3628 68.7175L45.8048 68.6495C45.9069 68.6382 46.0429 68.6608 46.0995 68.7175C46.1562 68.7855 46.1789 68.8422 46.1902 68.9329C46.2016 69.0462 46.1676 69.1822 46.0429 69.2502C46.1902 69.2502 46.2696 69.3522 46.2922 69.5223C46.2922 69.5563 46.3036 69.647 46.2922 69.7263C46.2582 69.9076 46.1562 69.953 45.9749 69.987L45.5328 70.0437L45.5441 70.055Z" fill="#FEFEFE"/>
<path d="M47.4598 69.2616C47.4598 69.2843 47.4711 69.3183 47.4711 69.3409C47.5051 69.579 47.4598 69.783 47.1877 69.8397C46.7797 69.919 46.7003 69.6696 46.6323 69.3183L46.5983 69.1256C46.5417 68.7855 46.519 68.5362 46.9157 68.4568C47.1311 68.4115 47.2784 68.5022 47.3464 68.7289C47.3577 68.7629 47.3691 68.7969 47.3691 68.8309L47.1311 68.8762C47.1084 68.7969 47.063 68.6495 46.961 68.6609C46.7683 68.6835 46.825 68.9216 46.8477 69.0236L46.9157 69.3863C46.9384 69.4996 46.9837 69.6696 47.1537 69.6356C47.2897 69.613 47.2331 69.3976 47.2217 69.3069L47.4711 69.2616H47.4598Z" fill="#FEFEFE"/>
<path d="M48.0381 69.0122L48.2422 68.9556L47.9701 68.4002L48.0381 69.0122ZM47.8455 69.6583L47.7661 68.2755L48.0948 68.1735L48.7749 69.3749L48.5142 69.4543L48.3555 69.1482L48.0721 69.2389L48.1062 69.579L47.8455 69.6583Z" fill="#FEFEFE"/>
<path d="M39.8202 68.6155C39.9222 68.2868 40.0129 68.0488 40.3983 68.1508C40.6023 68.2074 40.7383 68.2981 40.727 68.5361C40.727 68.5928 40.7043 68.6495 40.693 68.6948L40.4549 68.6268C40.4889 68.4908 40.5116 68.3888 40.3416 68.3321C40.1489 68.2754 40.1036 68.5135 40.0809 68.6155L39.9789 68.9782C39.9449 69.0802 39.9109 69.2616 40.0809 69.3069C40.2169 69.3409 40.3076 69.2049 40.3529 69.0122L40.1829 68.9669L40.2396 68.7628L40.6363 68.8875L40.4436 69.5903L40.2622 69.5449L40.3076 69.3976C40.2169 69.5223 40.1149 69.5336 40.0356 69.5109C39.6388 69.3976 39.6842 69.1482 39.7749 68.7968L39.8202 68.6155Z" fill="#FEFEFE"/>
<path d="M41.3506 69.0009L41.532 69.0462C41.6453 69.0575 41.702 69.0009 41.7247 68.8762C41.7474 68.7515 41.7133 68.7062 41.6227 68.6835L41.43 68.6382L41.3506 69.0009ZM41.3053 69.2049L41.192 69.7716L40.9199 69.7149L41.2033 68.3888L41.668 68.4908C41.94 68.5475 42.0194 68.6722 41.9854 68.9102C41.9627 69.0575 41.8947 69.2049 41.7247 69.1936C41.872 69.2389 41.8834 69.3182 41.8494 69.4429C41.838 69.4996 41.7587 69.817 41.8154 69.8736V69.919L41.5433 69.8396C41.532 69.749 41.566 69.5903 41.5887 69.4996C41.6 69.4202 41.634 69.3069 41.5547 69.2616C41.4867 69.2276 41.464 69.2276 41.396 69.2162L41.328 69.2049H41.3053Z" fill="#FEFEFE"/>
<path d="M43.0278 68.6835L43.2999 68.7175L43.1865 69.6469C43.1299 69.9416 43.0165 70.0663 42.6878 70.0323C42.3591 69.987 42.2798 69.8396 42.3024 69.5449L42.4158 68.6155L42.6878 68.6495L42.5745 69.5563C42.5631 69.6583 42.5405 69.8056 42.7105 69.817C42.8692 69.8283 42.9032 69.7263 42.9145 69.6016L43.0278 68.6948V68.6835Z" fill="#FEFEFE"/>
<path d="M43.8895 69.3409L44.0255 69.3523C44.1389 69.3523 44.2069 69.3183 44.2182 69.1482C44.2296 68.9896 44.1616 68.9669 44.0255 68.9669H43.9122L43.8895 69.3523V69.3409ZM43.5835 70.0777L43.6628 68.7515L44.1729 68.7742C44.4109 68.7855 44.4789 68.9782 44.4676 69.1709C44.4676 69.2843 44.4223 69.4089 44.3316 69.4883C44.2522 69.545 44.1389 69.5563 44.0482 69.5563L43.8782 69.545L43.8442 70.1003L43.5835 70.0777Z" fill="#FEFEFE"/>
<path d="M79.6615 57.6209L77.6212 61.3046C76.8505 60.6812 75.921 60.2278 74.7195 60.2278C71.8972 60.2278 70.7411 62.3361 70.7411 63.8209C70.7411 64.9204 71.4552 66.5526 73.9828 66.5526C75.0369 66.5526 76.5444 65.8158 76.9751 65.4871L74.9689 69.7716C74.0168 69.9643 73.6994 70.0776 72.8833 70.1117C68.3835 70.2477 66.5586 67.482 66.5586 64.6483C66.5586 60.9079 69.891 56.3627 75.3883 56.3627C75.7283 56.3627 76.1364 56.4761 76.4878 56.6121L76.8391 56.1587L79.6388 57.6435L79.6615 57.6209Z" fill="#FEFEFE"/>
<path d="M84.3091 60.3525L82.6542 64.2516H84.3544L84.3091 60.3525ZM88.0495 56.2494L88.6276 69.6583H84.3431V67.3573H81.4188L80.4553 69.6583H75.8081L80.6593 60.0805L79.5599 60.0692L81.6455 56.238H88.0382L88.0495 56.2494Z" fill="#FEFEFE"/>
<path d="M60.0072 64.059L59.4291 66.2579C59.4291 66.2579 60.3245 66.2579 60.9026 66.2579C61.4807 66.2579 62.2627 65.9745 62.4554 65.2491C62.6481 64.535 62.0927 64.0476 61.526 64.0476C60.9479 64.0476 60.0072 64.0476 60.0072 64.0476V64.059ZM61.764 61.69C62.2061 61.69 62.9768 61.5767 63.1695 60.7266C63.3849 59.8085 62.6595 59.7858 62.3081 59.7858L61.0613 59.7745L60.6306 61.69H61.7754H61.764ZM63.8383 56.2494C65.9578 56.2607 67.1593 57.4169 67.1593 59.0717C67.1593 60.6019 65.8898 61.9621 64.507 62.6648C65.9352 63.1975 66.0599 64.4784 66.0599 65.3965C66.0599 67.5954 63.8496 69.6583 60.9819 69.6583C60.0752 69.6583 55.8587 69.6583 54.7139 69.6583L57.1622 60.2165L56.1534 60.2052L58.2049 56.2381C58.2049 56.2381 62.1154 56.2267 63.8496 56.2381L63.8383 56.2494Z" fill="#FEFEFE"/>
<path fill-rule="evenodd" clip-rule="evenodd" d="M28.8825 27.312L14.0908 80.5169H17.8993L32.7363 27.312H28.8825Z" fill="#718FC8"/>
<path fill-rule="evenodd" clip-rule="evenodd" d="M32.6907 27.312L17.8989 80.5169H21.7074L36.5444 27.312H32.6907Z" fill="#9AAED9"/>
<path fill-rule="evenodd" clip-rule="evenodd" d="M36.4538 27.312L21.6621 80.5169H25.4706L40.3076 27.312H36.4538Z" fill="#C8D1EA"/>
</g>
<defs>
<clipPath id="clip0_801_8677">
<rect width="80" height="53.2615" fill="white" transform="translate(14 27.2539)"/>
</clipPath>
</defs>
</svg>
