<svg width="108" height="108" viewBox="0 0 108 108" fill="none" xmlns="http://www.w3.org/2000/svg">
<g clip-path="url(#clip0_801_8705)">
<path fill-rule="evenodd" clip-rule="evenodd" d="M15.6901 26.9998H92.3099C93.2394 26.9998 94 27.7604 94 28.6899V78.9106C94 79.8401 93.2394 80.5996 92.3099 80.5996H15.6901C14.7616 80.5996 14 79.839 14 78.9106V28.6899C14 27.7604 14.7606 26.9998 15.6901 26.9998Z" fill="#006838"/>
<path d="M47.6627 69.9702C47.6627 69.3386 47.67 67.6507 47.6543 67.443C47.6679 64.9304 45.8415 63.1595 44.6875 63.297C43.8891 63.3662 43.2198 63.6914 42.861 64.6283C42.5285 65.5011 42.8254 66.6614 43.9332 66.9341C45.1166 67.2268 45.8079 67.4702 46.3083 67.8133C46.921 68.234 47.4214 69.0365 47.435 69.9702" fill="white"/>
<path d="M41.959 71.9792C44.0404 72.958 46.1155 73.4521 48.136 73.4521C50.2772 73.4521 52.4068 72.9842 54.3036 72.0967C55.2456 70.095 55.723 68.0357 55.723 65.9763C55.723 63.917 55.2246 61.759 54.2826 59.7532C52.2316 58.789 50.0883 58.2771 48.0825 58.2771C45.9287 58.2771 43.8641 58.7345 41.9422 59.6357C41.0201 61.5995 40.5501 63.6578 40.5501 65.7571C40.5501 67.8563 41.0379 70.0111 41.96 71.9781M48.137 73.7878C46.0494 73.7878 43.904 73.2737 41.7618 72.2572L41.7093 72.231L41.6841 72.1775C40.7232 70.1485 40.2144 67.9287 40.2144 65.7571C40.2144 63.5855 40.7022 61.4642 41.6642 59.4374L41.6904 59.3839L41.7439 59.3576C43.7256 58.4187 45.8574 57.9435 48.0825 57.9435C50.1544 57.9435 52.368 58.4733 54.4819 59.4772L54.5364 59.5014L54.5616 59.5559C55.5415 61.6226 56.0576 63.8414 56.0576 65.9774C56.0576 68.1133 55.5614 70.2314 54.5805 72.2971L54.5553 72.3516L54.5008 72.3768C52.5495 73.3 50.3485 73.7899 48.137 73.7899" fill="white"/>
<path d="M47.1689 69.9712C47.1731 69.1613 46.7209 68.4459 46.1303 68.0608C45.6068 67.7209 44.9029 67.4975 43.7688 67.21C43.4184 67.1209 43.0512 66.9215 42.9379 66.6677C42.6379 66.9698 42.5833 67.6507 42.6358 68.0483C42.6977 68.5078 43.2348 69.2673 44.0447 69.2967C44.5388 69.3166 45.1641 69.1907 45.4641 69.1267C45.9813 69.0145 46.7996 69.3386 46.9297 69.9702" fill="white"/>
<path d="M48.0814 59.3818C46.7081 59.3818 45.5227 60.2871 45.5269 61.8545C45.5311 63.1721 46.5906 63.8771 46.9694 64.3817C47.5411 65.1413 47.8495 66.0393 47.8821 67.4146C47.9072 68.5088 47.9062 69.5894 47.9114 69.9723H48.2146C48.2094 69.5715 48.1957 68.4249 48.2115 67.38C48.2325 66.0047 48.5524 65.1402 49.1242 64.3807C49.506 63.8771 50.5646 63.1711 50.5667 61.8534C50.5719 60.2861 49.3864 59.3807 48.0142 59.3807" fill="white"/>
<path d="M48.4299 69.9702C48.4299 69.3386 48.4226 67.6507 48.4383 67.443C48.4247 64.9304 50.2501 63.1595 51.4051 63.297C52.2035 63.3662 52.8718 63.6914 53.2326 64.6283C53.5652 65.5011 53.2662 66.6614 52.1605 66.9341C50.9761 67.2268 50.2858 67.4702 49.7843 67.8133C49.1716 68.234 48.7069 69.0365 48.6922 69.9702" fill="white"/>
<path d="M48.9239 69.9712C48.9197 69.1613 49.3718 68.4459 49.9604 68.0608C50.487 67.7209 51.1909 67.4975 52.3239 67.21C52.6754 67.1209 53.0415 66.9215 53.1538 66.6677C53.4559 66.9698 53.5105 67.6507 53.4569 68.0483C53.394 68.5078 52.8579 69.2673 52.0491 69.2967C51.555 69.3166 50.9255 69.1907 50.6276 69.1267C50.1125 69.0145 49.291 69.3386 49.161 69.9702" fill="white"/>
<path d="M49.5321 71.762C49.5888 71.7526 49.6643 71.7463 49.6958 71.6928C49.7126 71.6571 49.7335 71.6288 49.7199 71.5501C49.7031 71.4568 49.6717 71.398 49.5521 71.4211L49.4409 71.4389L49.4849 71.7673M49.6213 72.3548C49.6717 72.3474 49.722 72.3453 49.7619 72.3191C49.8227 72.2792 49.8175 72.1943 49.8091 72.1303C49.7881 71.9907 49.7514 71.9383 49.6045 71.9603L49.5122 71.975L49.5709 72.3621L49.6223 72.3548H49.6213ZM49.3485 72.5845L49.1733 71.3025L49.5972 71.2385C49.7 71.2249 49.8259 71.2427 49.8762 71.3067C49.9318 71.3749 49.9486 71.4305 49.9591 71.5186C49.9748 71.6278 49.9434 71.7547 49.8206 71.8176V71.8218C49.9581 71.8218 50.042 71.9205 50.0661 72.0883C50.0693 72.124 50.0797 72.2089 50.0693 72.2803C50.0409 72.4492 49.9402 72.5037 49.7703 72.5279L49.3485 72.5856V72.5845Z" fill="white"/>
<path d="M51.1845 71.8135C51.1877 71.8376 51.1919 71.8638 51.1929 71.8879C51.2275 72.1219 51.1845 72.3149 50.9212 72.3684C50.5331 72.4429 50.4586 72.2016 50.3904 71.8638L50.3537 71.6813C50.3002 71.3582 50.2771 71.1127 50.6558 71.0371C50.8698 70.9983 51.0104 71.0833 51.0691 71.2952C51.0786 71.3267 51.0901 71.3582 51.0943 71.3907L50.8614 71.4389C50.8352 71.3592 50.7985 71.2165 50.6946 71.2281C50.5068 71.2511 50.5687 71.484 50.5876 71.5816L50.6579 71.932C50.6789 72.038 50.7208 72.2079 50.8824 72.1754C51.0146 72.1492 50.9569 71.9435 50.9453 71.8596" fill="white"/>
<path d="M51.7482 71.5816L51.9454 71.5239L51.6832 70.9867M51.5583 72.2005L51.4775 70.8734L51.7902 70.778L52.4448 71.9319L52.1993 72.0054L52.044 71.7127L51.7713 71.7945L51.807 72.1281L51.5594 72.2005H51.5583Z" fill="white"/>
<path d="M43.8455 71.1987C43.9431 70.886 44.0312 70.6552 44.4036 70.7581C44.6029 70.8137 44.7267 70.9018 44.7215 71.1336C44.7215 71.185 44.7036 71.2375 44.6921 71.2889L44.4603 71.2249C44.4907 71.0969 44.5096 70.9951 44.3522 70.9469C44.1697 70.8965 44.1256 71.1179 44.1004 71.2134L44.006 71.5617C43.9756 71.6645 43.9399 71.8355 44.1004 71.8795C44.2326 71.9152 44.3134 71.7851 44.3616 71.5952L44.199 71.5522L44.2557 71.3508L44.6375 71.4735L44.4561 72.1439L44.2809 72.0967L44.3207 71.9551H44.3155C44.2347 72.0705 44.1361 72.083 44.049 72.0663C43.6671 71.9634 43.707 71.7138 43.7983 71.3802" fill="white"/>
<path d="M45.3107 71.5669L45.4848 71.6141C45.5908 71.6298 45.6495 71.5743 45.6705 71.4463C45.6894 71.3288 45.6653 71.2837 45.5698 71.2606L45.3831 71.2228M45.2666 71.7641L45.1512 72.3097L44.8921 72.2541L45.168 70.9805L45.6086 71.0801C45.8667 71.1357 45.9454 71.2511 45.9087 71.4872C45.8877 71.6225 45.8205 71.7694 45.6569 71.7578L45.6548 71.7557C45.7933 71.804 45.8048 71.8743 45.7807 71.9949C45.7702 72.0463 45.6978 72.3569 45.7481 72.4072L45.7502 72.445L45.4827 72.3747C45.4712 72.2887 45.51 72.1334 45.5247 72.0474C45.5394 71.9719 45.5635 71.8638 45.4869 71.8239C45.4271 71.7914 45.404 71.7935 45.3359 71.7778L45.2666 71.7641Z" fill="white"/>
<path d="M46.9266 71.2648L47.1825 71.2941L47.0724 72.189C47.0189 72.4733 46.9087 72.5971 46.5971 72.5583C46.2793 72.5184 46.2037 72.3737 46.2237 72.0873L46.3349 71.1924L46.593 71.2218L46.4817 72.0967C46.4702 72.1922 46.4482 72.3327 46.6171 72.3495C46.7671 72.3611 46.8007 72.2614 46.8175 72.1387" fill="white"/>
<path d="M47.756 71.8931L47.8861 71.9005C47.992 71.9047 48.0623 71.8627 48.0707 71.7074C48.076 71.5585 48.0193 71.5322 47.8819 71.527L47.7791 71.5239M47.4644 72.6097L47.542 71.3298L48.034 71.3508C48.2669 71.3623 48.3278 71.5522 48.3204 71.7337C48.3131 71.8438 48.2795 71.9666 48.183 72.0337C48.1043 72.0904 48.0025 72.104 47.9092 72.0988L47.7487 72.0904L47.7161 72.6275L47.4644 72.6107V72.6097Z" fill="white"/>
<path d="M82.1526 60.6197L80.1981 64.1677C79.4606 63.5687 78.5595 63.128 77.4097 63.128C74.6894 63.128 73.5847 65.1559 73.5847 66.5837C73.5847 67.6443 74.2792 69.2085 76.6994 69.2085C77.7149 69.2085 79.1595 68.5014 79.575 68.1804L77.6415 72.297C76.7194 72.4806 76.4172 72.595 75.6367 72.6191C71.3051 72.7481 69.5541 70.0866 69.5552 67.3674C69.5583 63.7722 72.7538 59.4006 78.0528 59.4006C78.3769 59.4006 78.7745 59.5129 79.1144 59.6377L79.4575 59.1992" fill="white"/>
<path d="M86.6238 63.2529L85.0354 67.0034H86.671M90.2179 59.3073L90.7718 72.2027H86.6521L86.65 69.9912H83.8405L82.9163 72.2027H78.4482L83.1188 62.9948L82.0655 62.9885L84.0671 59.3084H90.2179V59.3073Z" fill="white"/>
<path d="M63.2595 66.8156L62.7077 68.9347H64.1187C64.6737 68.9347 65.4301 68.6588 65.6158 67.9696C65.7993 67.2782 65.2696 66.8156 64.7167 66.8156M64.9538 64.537C65.3755 64.537 66.1204 64.43 66.3071 63.6138C66.5117 62.7273 65.8119 62.7032 65.4762 62.7032L64.2782 62.6979L63.8596 64.537H64.9527H64.9538ZM66.9554 59.3083C68.9959 59.3199 70.1478 60.4267 70.1478 62.0265C70.1478 63.5015 68.9319 64.8066 67.5975 65.4811C68.9718 65.9868 69.0903 67.2258 69.0903 68.1039C69.0903 70.223 66.9638 72.2037 64.1995 72.2037H58.1704L60.5225 63.1239L59.5562 63.1186L61.5306 59.3094C61.5306 59.3094 65.2958 59.2978 66.9544 59.3094" fill="white"/>
<path opacity="0.3" fill-rule="evenodd" clip-rule="evenodd" d="M36.0757 26.9997H30.3866L15.6899 80.5995H21.3791L36.0757 26.9997Z" fill="white"/>
<path opacity="0.6" fill-rule="evenodd" clip-rule="evenodd" d="M41.7652 26.9998H36.076L21.3794 80.5996H27.0686L41.7652 26.9998Z" fill="white"/>
<path opacity="0.9" fill-rule="evenodd" clip-rule="evenodd" d="M47.4542 26.9997H41.765L27.0684 80.5995H32.7586L47.4542 26.9997Z" fill="white"/>
<path d="M46.5446 53.1513L48.6396 40.9137H51.3274C52.2715 40.9137 52.9104 40.9525 53.2461 41.0301C53.8105 41.1697 54.3026 41.4445 54.7243 41.8568C55.146 42.2691 55.4796 42.8178 55.7251 43.506C55.9706 44.1931 56.0933 45.0188 56.0933 45.9808C56.0933 46.9942 55.9685 47.93 55.7178 48.7902C55.467 49.6505 55.1156 50.4016 54.6613 51.0437C54.2081 51.6867 53.7392 52.1536 53.2545 52.4463C52.7709 52.7379 52.2642 52.9372 51.7354 53.0432C51.3903 53.1156 50.8395 53.1513 50.0821 53.1513H46.5425H46.5446ZM48.9396 51.1811H49.9845C50.7483 51.1811 51.2833 51.1286 51.5907 51.0227C51.9925 50.8894 52.368 50.6146 52.7195 50.2002C53.0709 49.7858 53.3752 49.2099 53.6311 48.4723C53.8871 47.7348 54.0162 46.8819 54.0162 45.9136C54.0162 45.1121 53.9112 44.4837 53.7014 44.0274C53.4916 43.571 53.2094 43.2626 52.8569 43.101C52.6051 42.9898 52.1645 42.9342 51.5372 42.9342H50.3528L48.9407 51.1821L48.9396 51.1811Z" fill="white"/>
<path d="M56.645 53.1513L58.74 40.9137H66.178L65.8277 42.9594H60.4563L59.978 45.7395H65.1762L64.8258 47.7852H59.6255L59.0527 51.1076H64.8258L64.4838 53.1534H56.645V53.1513Z" fill="white"/>
<path d="M66.0112 53.1513L68.1063 40.9137H71.5452C72.4631 40.9137 73.1177 40.9724 73.5069 41.0889C74.1133 41.2672 74.5812 41.5977 74.9096 42.0824C75.2379 42.5671 75.4026 43.165 75.4026 43.8774C75.4026 44.5897 75.2442 45.1961 74.9263 45.6807C74.6095 46.1654 74.1332 46.5326 73.4985 46.7823C73.9937 46.9491 74.3903 47.2502 74.6882 47.6834C74.9861 48.1178 75.1351 48.6245 75.1351 49.2025C75.1351 49.9925 74.9557 50.7079 74.5969 51.3479C74.2381 51.9878 73.7703 52.4484 73.1943 52.7295C72.6184 53.0107 71.8011 53.1513 70.7447 53.1513H66.0112ZM68.4063 51.1811H70.3975C71.178 51.1811 71.713 51.1255 72.0036 51.0143C72.2931 50.9031 72.5365 50.6985 72.7317 50.4006C72.9268 50.1026 73.0244 49.768 73.0244 49.3945C73.0244 48.9549 72.8964 48.6098 72.6404 48.359C72.3844 48.1083 71.9805 47.9835 71.4297 47.9835H68.9581L68.4073 51.1811H68.4063ZM69.3232 45.8549H70.901C71.5913 45.8549 72.0865 45.7993 72.3876 45.6881C72.6876 45.5769 72.9247 45.3849 73.0978 45.1121C73.2698 44.8394 73.3569 44.5278 73.3569 44.1774C73.3569 43.8931 73.2929 43.6529 73.1649 43.4556C73.0369 43.2584 72.8754 43.1262 72.6803 43.0591C72.4851 42.9919 72.0644 42.9584 71.4182 42.9584H69.8226L69.3232 45.8549Z" fill="white"/>
<path d="M75.8613 53.1513L78.0392 40.9137H80.0996L77.9228 53.1513H75.8624H75.8613Z" fill="white"/>
<path d="M84.3305 53.1513H82.2722L84.0273 42.9584H81.0112L81.3616 40.9127H89.3336L88.9832 42.9584H86.0856L84.3305 53.1513Z" fill="white"/>
</g>
<defs>
<clipPath id="clip0_801_8705">
<rect width="80" height="53.5998" fill="white" transform="translate(14 26.9999)"/>
</clipPath>
</defs>
</svg>
