<svg width="108" height="108" viewBox="0 0 108 108" fill="none" xmlns="http://www.w3.org/2000/svg">
<path d="M18.2279 36.2648V36.1705C18.2279 34.0976 19.9711 32.8256 22.2325 32.8256C24.4939 32.8256 26.237 34.0976 26.237 36.1705V36.2648C26.237 38.3377 24.4939 39.6568 22.2325 39.6568C19.9711 39.6568 18.2279 38.3377 18.2279 36.2648ZM18.1808 75.1324H18.0866C15.7781 75.1324 14.082 74.1902 14.082 72.2115C14.082 70.4683 15.3541 69.3376 16.8617 69.3376H16.9088C17.9452 69.3376 18.6519 68.678 18.6519 66.982V45.4988C18.6519 43.5201 20.2537 41.9182 22.2325 41.9182C24.2112 41.9182 25.813 43.5201 25.813 45.4988V67.0291C25.813 72.5884 22.892 75.1324 18.1808 75.1324Z" fill="#EE3124"/>
<path d="M35.224 67.9242C30.4657 67.9242 26.5554 65.1917 26.5554 60.1978V60.1036C26.5554 54.5914 30.7484 52.0474 36.7316 52.0474C39.2757 52.0474 41.1131 52.4714 42.9034 53.0839V52.6598C42.9034 49.6918 41.066 48.0428 37.4854 48.0428C35.5067 48.0428 33.9049 48.3255 32.5386 48.7495C32.1146 48.8909 31.832 48.938 31.5022 48.938C29.8532 48.938 28.5341 47.6659 28.5341 46.017C28.5341 44.745 29.335 43.6614 30.4657 43.2374C32.7271 42.3894 35.1769 41.9182 38.5219 41.9182C42.4322 41.9182 45.259 42.9547 47.0492 44.745C48.9337 46.6295 49.7818 49.4091 49.7818 52.8012V64.2966C49.7818 66.2282 48.227 67.7358 46.2954 67.7358C44.2225 67.7358 42.8562 66.2753 42.8562 64.7677V64.7206C41.1131 66.6522 38.7104 67.9242 35.224 67.9242ZM37.3912 62.9774C40.7362 62.9774 42.9976 61.1401 42.9976 58.5489V57.2769C41.7727 56.7115 40.1708 56.3346 38.4277 56.3346C35.3654 56.3346 33.4809 57.5595 33.4809 59.8209V59.9151C33.4809 61.8467 35.0827 62.9774 37.3912 62.9774Z" fill="#EE3124"/>
<path d="M51.798 64.1552V36.359C51.798 34.3803 53.3998 32.7784 55.3785 32.7784C57.3573 32.7784 58.9591 34.3803 58.9591 36.359V64.1552C58.9591 66.134 57.3573 67.7358 55.3785 67.7358C53.3998 67.7358 51.798 66.134 51.798 64.1552Z" fill="#EE3124"/>
<path d="M61.1148 36.2648V36.1705C61.1148 34.0976 62.858 32.8256 65.1194 32.8256C67.3808 32.8256 69.1239 34.0976 69.1239 36.1705V36.2648C69.1239 38.3377 67.3808 39.6568 65.1194 39.6568C62.858 39.6568 61.1148 38.3377 61.1148 36.2648ZM61.5388 64.1552V45.4988C61.5388 43.5201 63.1407 41.9182 65.1194 41.9182C67.0981 41.9182 68.6999 43.5201 68.6999 45.4988V64.1552C68.6999 66.134 67.0981 67.7358 65.1194 67.7358C63.1407 67.7358 61.5388 66.134 61.5388 64.1552Z" fill="#EE3124"/>
<path d="M70.9499 64.1552V45.4988C70.9499 43.5201 72.5517 41.9182 74.5304 41.9182C76.5091 41.9182 78.111 43.5201 78.111 45.4988V45.7814C79.7599 43.6614 81.8799 41.7298 85.5076 41.7298C90.9255 41.7298 94.082 45.3103 94.082 51.1051V64.1552C94.082 66.134 92.4802 67.7358 90.5015 67.7358C88.5228 67.7358 86.921 66.134 86.921 64.1552V53.3665C86.921 49.9744 85.3191 48.2313 82.5866 48.2313C79.8541 48.2313 78.111 49.9744 78.111 53.3665V64.1552C78.111 66.134 76.5091 67.7358 74.5304 67.7358C72.5517 67.7358 70.9499 66.134 70.9499 64.1552Z" fill="#EE3124"/>
</svg>
