<svg width="108" height="108" viewBox="0 0 108 108" fill="none" xmlns="http://www.w3.org/2000/svg">
<path d="M94 13.9999V93.9999H14V13.9999H94Z" fill="white"/>
<path fill-rule="evenodd" clip-rule="evenodd" d="M86.4888 93.9999H21.5113C17.3802 93.9999 14 90.6199 14 86.4886V21.5111C14 17.3801 17.3802 13.9999 21.5113 13.9999H86.4888C90.6201 13.9999 94 17.3801 94 21.5111V86.4886C94 90.6199 90.6201 93.9999 86.4888 93.9999Z" fill="#E82529"/>
<path fill-rule="evenodd" clip-rule="evenodd" d="M31.1058 45.821H34.896C35.1846 45.821 35.4063 46.0768 35.3652 46.3624L33.6049 58.5733C33.5371 59.0433 33.9019 59.4641 34.3766 59.4641H41.0256C41.2145 59.4641 41.3592 59.6319 41.3317 59.8185L40.8159 63.3257C40.7892 63.5079 40.6329 63.6432 40.4484 63.6432H32.9302C30.6939 63.6432 28.5492 61.8091 28.8647 59.5949L30.6361 46.2327C30.6672 45.9971 30.868 45.821 31.1058 45.821Z" fill="white"/>
<path fill-rule="evenodd" clip-rule="evenodd" d="M43.7445 50.6934L42.0095 63.1465C41.982 63.344 42.1353 63.5204 42.3348 63.5204H46.0025C46.2633 63.5204 46.4844 63.3282 46.5205 63.0698L48.2386 50.8192C48.2752 50.537 48.0555 50.2867 47.7708 50.2867H44.2117C43.9761 50.2867 43.777 50.4603 43.7445 50.6934Z" fill="white"/>
<path fill-rule="evenodd" clip-rule="evenodd" d="M66.4959 45.1136H70.4741C70.6222 45.1136 70.7361 45.2445 70.7158 45.3911L68.2403 63.3242C68.222 63.4572 68.1081 63.5564 67.9736 63.5564H64.0459C63.8826 63.5564 63.757 63.4122 63.7795 63.2505L66.2542 45.3245C66.2709 45.2036 66.3739 45.1136 66.4959 45.1136Z" fill="white"/>
<path fill-rule="evenodd" clip-rule="evenodd" d="M69.5743 55.9185L74.0703 50.6534C74.212 50.4875 74.4192 50.392 74.6376 50.392H78.5844C78.8694 50.392 79.0194 50.7295 78.8289 50.9408L74.2317 56.0427L78.4342 65.0809C78.5883 65.4125 78.3461 65.792 77.9806 65.792H74.4131C74.2267 65.792 74.0576 65.6834 73.9798 65.5142L69.5743 55.9185Z" fill="white"/>
<path fill-rule="evenodd" clip-rule="evenodd" d="M49.0071 46.9146C48.6855 48.2715 47.4635 49.2812 46.1841 49.2812C44.905 49.2812 43.9239 48.1813 44.2458 46.8246C44.5675 45.4677 45.6266 44.3677 47.1447 44.3677C48.4238 44.3677 49.3288 45.5577 49.0071 46.9146Z" fill="white"/>
<path d="M56.1361 53.5955C55.983 53.5955 55.7703 53.6039 55.4981 53.6206C55.2429 53.6374 55.0047 53.6625 54.7835 53.696L53.4564 63.0178C53.4224 63.2188 53.3713 63.3528 53.3033 63.4198C53.2522 63.4868 53.0821 63.5203 52.7928 63.5203H49.5006C49.1093 63.5203 48.9391 63.3528 48.9902 63.0178L50.547 52.2387C50.615 51.7194 50.7511 51.2923 50.9553 50.9573C51.1765 50.6222 51.5848 50.3877 52.1803 50.2537C52.3505 50.2202 52.6057 50.1867 52.946 50.1532C53.2863 50.103 53.6521 50.0695 54.0434 50.0527C54.4347 50.0192 54.826 49.9941 55.2174 49.9773C55.6087 49.9606 55.949 49.9522 56.2382 49.9522C57.4462 49.9522 58.4841 50.0695 59.3518 50.304C60.2365 50.5217 60.9426 50.8986 61.4701 51.4347C61.9975 51.9539 62.3463 52.6407 62.5164 53.495C62.6866 54.3325 62.6866 55.3627 62.5164 56.5855L61.5977 63.0178C61.5636 63.2188 61.5126 63.3528 61.4445 63.4198C61.3935 63.4868 61.2234 63.5203 60.9341 63.5203H57.6164C57.208 63.5203 57.0294 63.3528 57.0804 63.0178L58.0757 56.1584C58.1948 55.3041 58.1268 54.6676 57.8716 54.2488C57.6164 53.8133 57.0379 53.5955 56.1361 53.5955Z" fill="white"/>
</svg>
