<svg width="108" height="108" viewBox="0 0 108 108" fill="none" xmlns="http://www.w3.org/2000/svg">
<path fill-rule="evenodd" clip-rule="evenodd" d="M17.6295 39.4223H23.6841C24.1451 39.4223 24.4992 39.8295 24.4336 40.2841L21.6217 59.7229C21.5134 60.4711 22.096 61.1411 22.8544 61.1411H33.4758C33.7775 61.1411 34.0087 61.4081 33.9648 61.7053L33.1408 67.2884C33.0982 67.5785 32.8484 67.7939 32.5537 67.7939H20.5439C16.9715 67.7939 13.5455 64.8741 14.0495 61.3493L16.8792 40.0776C16.9289 39.7026 17.2497 39.4223 17.6295 39.4223Z" fill="#E82529"/>
<path fill-rule="evenodd" clip-rule="evenodd" d="M37.8189 47.1787L35.0474 67.0031C35.0035 67.3175 35.2484 67.5983 35.567 67.5983H41.426C41.8426 67.5983 42.1958 67.2923 42.2535 66.8811L44.998 47.379C45.0565 46.9297 44.7055 46.5313 44.2507 46.5313H38.5653C38.189 46.5313 37.8709 46.8077 37.8189 47.1787Z" fill="#E82529"/>
<path fill-rule="evenodd" clip-rule="evenodd" d="M74.1628 38.2962H80.5178C80.7544 38.2962 80.9363 38.5044 80.9039 38.7379L76.9494 67.286C76.9201 67.4978 76.7382 67.6556 76.5234 67.6556H70.2492C69.9883 67.6556 69.7877 67.4261 69.8237 67.1688L73.7768 38.6318C73.8034 38.4394 73.968 38.2962 74.1628 38.2962Z" fill="#E82529"/>
<path fill-rule="evenodd" clip-rule="evenodd" d="M79.0804 55.4968L86.2625 47.115C86.4888 46.851 86.8198 46.6989 87.1686 46.6989H93.4735C93.9287 46.6989 94.1683 47.2361 93.8639 47.5727L86.5203 55.6944L93.2334 70.0825C93.4797 70.6105 93.0927 71.2146 92.5088 71.2146H86.8101C86.5123 71.2146 86.2421 71.0417 86.1178 70.7724L79.0804 55.4968Z" fill="#E82529"/>
<path fill-rule="evenodd" clip-rule="evenodd" d="M46.2257 41.1632C45.7118 43.3233 43.7599 44.9307 41.7161 44.9307C39.6728 44.9307 38.1055 43.1796 38.6198 41.0199C39.1336 38.8598 40.8256 37.1087 43.2505 37.1087C45.2939 37.1087 46.7395 39.0031 46.2257 41.1632Z" fill="#E82529"/>
<path d="M57.6138 51.7987C57.3692 51.7987 57.0294 51.812 56.5946 51.8387C56.1869 51.8653 55.8064 51.9053 55.453 51.9587L53.3331 66.7983C53.2787 67.1183 53.1972 67.3316 53.0885 67.4383C53.0069 67.5449 52.7351 67.5983 52.2731 67.5983H47.014C46.3889 67.5983 46.1171 67.3316 46.1986 66.7983L48.6855 49.6387C48.7942 48.8121 49.0116 48.1321 49.3378 47.5988C49.6911 47.0655 50.3434 46.6921 51.2947 46.4788C51.5664 46.4255 51.9741 46.3721 52.5177 46.3188C53.0613 46.2388 53.6456 46.1855 54.2708 46.1588C54.8959 46.1055 55.521 46.0655 56.1461 46.0388C56.7712 46.0122 57.3148 45.9988 57.7768 45.9988C59.7066 45.9988 61.3645 46.1855 62.7506 46.5588C64.1639 46.9055 65.2918 47.5054 66.1344 48.3588C66.9769 49.1854 67.5341 50.2787 67.8059 51.6387C68.0777 52.972 68.0777 54.6119 67.8059 56.5585L66.3382 66.7983C66.2839 67.1183 66.2023 67.3316 66.0936 67.4383C66.0121 67.5449 65.7403 67.5983 65.2783 67.5983H59.9784C59.3261 67.5983 59.0407 67.3316 59.1222 66.7983L60.7122 55.8786C60.9024 54.5186 60.7937 53.5053 60.386 52.8386C59.9784 52.1453 59.0543 51.7987 57.6138 51.7987Z" fill="#E82529"/>
</svg>
