<svg width="108" height="108" viewBox="0 0 108 108" fill="none" xmlns="http://www.w3.org/2000/svg">
<g clip-path="url(#clip0_801_8837)">
<path fill-rule="evenodd" clip-rule="evenodd" d="M21.9268 37.498H30.9146L29.9516 43.0239C35.4328 39.944 42.0558 37.307 49.3695 35.4826C71.3107 30.0095 91.1716 33.8899 93.7273 44.1575C95.0153 49.3259 91.6754 55.124 85.2393 60.3046L90.0298 70.1944H82.586C81.4524 70.1944 81.2249 69.9181 80.7089 68.9023L78.7585 64.7131C73.1392 67.9678 66.2642 70.7551 58.6295 72.6607C36.6883 78.1379 16.8316 74.2535 14.2718 63.9858C13.2113 59.7358 15.2876 55.059 19.6352 50.6464L21.9268 37.498Z" fill="#ED1C24"/>
<path fill-rule="evenodd" clip-rule="evenodd" d="M22.7681 38.8429H29.517L26.2665 57.0175H35.1039L34.2913 62.6084H18.709L22.7681 38.8429Z" fill="white"/>
<path fill-rule="evenodd" clip-rule="evenodd" d="M40.7027 47.6884H46.2896L43.6079 62.6084H38.021L40.7027 47.6884Z" fill="white"/>
<path fill-rule="evenodd" clip-rule="evenodd" d="M41.7348 42.577H47.3217L46.7407 45.8478H41.1538L41.7348 42.577Z" fill="white"/>
<path fill-rule="evenodd" clip-rule="evenodd" d="M49.7719 47.6884H55.3588L54.8143 50.7195C56.1348 47.9728 60.1818 46.9774 62.6684 47.6234C66.1506 48.5295 66.5731 50.4676 65.8255 54.3276L64.3181 62.6084H58.4996L59.8933 55.6238C60.4906 52.9502 59.6413 51.8613 57.3416 52.3529C55.826 52.7633 54.5705 54.8599 53.636 57.31L52.6811 62.6084H47.0942L49.7759 47.6884H49.7719Z" fill="white"/>
<path fill-rule="evenodd" clip-rule="evenodd" d="M71.5787 42.707H77.1656L73.5737 62.6084H67.9868L71.5787 42.707Z" fill="white"/>
<path fill-rule="evenodd" clip-rule="evenodd" d="M87.3805 46.0347L77.2632 53.125C75.7029 54.5593 75.7192 55.5385 76.8284 57.7082L81.5742 67.8946C82.0903 68.9104 82.3219 69.1867 83.4514 69.1867H88.2947L82.0821 56.3593C81.5986 55.4897 81.4402 54.8153 82.0821 53.9457L87.3805 46.0388V46.0347Z" fill="white"/>
</g>
<defs>
<clipPath id="clip0_801_8837">
<rect width="80" height="42.1433" fill="white" transform="translate(14 33)"/>
</clipPath>
</defs>
</svg>
