<svg width="108" height="108" viewBox="0 0 108 108" fill="none" xmlns="http://www.w3.org/2000/svg">
<g clip-path="url(#clip0_801_4759)">
<rect x="9" y="9" width="90" height="90" rx="7.76213" fill="white"/>
<path d="M36.1175 56.9409C36.8139 56.9409 37.3803 56.8516 37.8168 56.673C38.2636 56.4944 38.6118 56.2633 38.8612 55.9796C39.1107 55.6959 39.2821 55.3754 39.3757 55.0182C39.4692 54.661 39.516 54.2985 39.516 53.9308C39.516 53.5105 39.4588 53.1323 39.3445 52.796C39.2406 52.4598 39.0535 52.1761 38.7833 51.945C38.5235 51.7138 38.1753 51.5352 37.7388 51.4091C37.3023 51.2831 36.7515 51.22 36.0864 51.22H32.4073V56.9409H36.1175ZM32.4073 41.9846V47.6582H35.151C35.733 47.6582 36.2578 47.6162 36.7255 47.5322C37.1932 47.4481 37.5881 47.301 37.9103 47.0909C38.2429 46.8808 38.4923 46.5918 38.6586 46.2241C38.8353 45.8563 38.9236 45.394 38.9236 44.8372C38.9236 44.2908 38.856 43.839 38.7209 43.4818C38.5858 43.1141 38.378 42.8199 38.0974 42.5993C37.8168 42.3786 37.4582 42.221 37.0217 42.1265C36.5956 42.0319 36.0864 41.9846 35.494 41.9846H32.4073ZM35.494 37.9973C37.0633 37.9973 38.3988 38.1444 39.5004 38.4386C40.602 38.7328 41.501 39.1478 42.1973 39.6837C42.8936 40.2195 43.3977 40.8709 43.7095 41.6379C44.0316 42.4049 44.1927 43.2612 44.1927 44.2068C44.1927 44.7216 44.12 45.2207 43.9745 45.704C43.829 46.1768 43.6003 46.6233 43.2886 47.0436C42.9768 47.4534 42.5766 47.8316 42.0882 48.1783C41.5997 48.525 41.0125 48.8245 40.3266 49.0767C41.8232 49.4444 42.93 50.038 43.6471 50.8575C44.3642 51.6771 44.7228 52.7382 44.7228 54.0411C44.7228 55.0182 44.5357 55.927 44.1615 56.7676C43.7874 57.6081 43.2366 58.3436 42.5091 58.974C41.792 59.5939 40.9034 60.0825 39.8433 60.4397C38.7833 60.7864 37.5725 60.9598 36.2111 60.9598H27.1382V37.9973H35.494Z" fill="#00A39D"/>
<path d="M60.9088 42.6807C60.7529 42.9326 60.5866 43.1215 60.41 43.2474C60.2437 43.3733 60.0254 43.4363 59.7552 43.4363C59.5162 43.4363 59.2564 43.3628 58.9758 43.2159C58.7055 43.0585 58.3938 42.8853 58.0404 42.6964C57.6975 42.5075 57.3025 42.3396 56.8556 42.1927C56.4087 42.0353 55.8995 41.9566 55.3279 41.9566C54.3406 41.9566 53.6027 42.1717 53.1142 42.602C52.6362 43.0218 52.3971 43.5937 52.3971 44.3179C52.3971 44.7796 52.5426 45.1627 52.8336 45.467C53.1246 45.7714 53.504 46.0338 53.9716 46.2541C54.4497 46.4745 54.9901 46.6792 55.5929 46.8681C56.2061 47.0465 56.8297 47.2511 57.4636 47.482C58.0976 47.7024 58.7159 47.9648 59.3187 48.2691C59.9319 48.5735 60.4723 48.9618 60.94 49.4341C61.4181 49.9063 61.8026 50.4835 62.0936 51.1657C62.3846 51.8374 62.5301 52.6507 62.5301 53.6057C62.5301 54.6657 62.3482 55.6574 61.9845 56.581C61.6207 57.5045 61.0907 58.3126 60.3944 59.0052C59.7085 59.6874 58.8562 60.2279 57.8378 60.6267C56.8297 61.015 55.6813 61.2091 54.3926 61.2091C53.6858 61.2091 52.9635 61.1357 52.2257 60.9887C51.4982 60.8418 50.7915 60.6372 50.1055 60.3748C49.4196 60.1019 48.7753 59.7818 48.1725 59.4145C47.5697 59.0472 47.0449 58.6379 46.598 58.1867L48.1569 55.6994C48.2816 55.521 48.4427 55.3741 48.6402 55.2586C48.848 55.1327 49.0715 55.0697 49.3105 55.0697C49.6223 55.0697 49.9341 55.1694 50.2458 55.3688C50.568 55.5682 50.9266 55.7886 51.3215 56.03C51.7268 56.2714 52.1893 56.4917 52.7089 56.6911C53.2286 56.8905 53.8417 56.9902 54.5484 56.9902C55.5046 56.9902 56.2477 56.7804 56.7777 56.3606C57.3077 55.9303 57.5727 55.2534 57.5727 54.3298C57.5727 53.7946 57.4272 53.3591 57.1362 53.0232C56.8452 52.6874 56.4607 52.4093 55.9826 52.1889C55.515 51.9685 54.9797 51.7744 54.377 51.6065C53.7742 51.4385 53.1558 51.2549 52.5219 51.0555C51.8879 50.8456 51.2695 50.5937 50.6667 50.2999C50.064 49.9955 49.5235 49.602 49.0455 49.1192C48.5778 48.626 48.1985 48.0173 47.9075 47.2931C47.6165 46.5585 47.471 45.6559 47.471 44.5855C47.471 43.7249 47.6424 42.8853 47.9854 42.0667C48.3284 41.2482 48.8324 40.5188 49.4976 39.8786C50.1627 39.2384 50.9785 38.7294 51.9451 38.3516C52.9116 37.9633 54.0184 37.7691 55.2655 37.7691C55.9619 37.7691 56.6374 37.8269 57.2921 37.9423C57.9573 38.0473 58.586 38.2099 59.1784 38.4303C59.7708 38.6402 60.3216 38.8973 60.8309 39.2017C61.3505 39.4955 61.813 39.8314 62.2183 40.2092L60.9088 42.6807Z" fill="#00A39D"/>
<path fill-rule="evenodd" clip-rule="evenodd" d="M79.7416 37.0475C75.6958 36.6534 74.2733 38.8811 73.4797 39.983C72.4675 35.5779 70.7558 35.9253 68.9246 34.8156C71.5713 33.2793 72.3115 30.891 72.2387 29.1221C74.8312 31.0228 76.6388 30.8189 78.8775 30.2025C77.7636 33.5266 78.4669 34.4649 79.7416 37.0475Z" fill="#F8AD3C"/>
<path d="M71.2801 60.9693H65.8007V37.4871C69.2296 37.9517 71.2855 40.7876 71.2801 43.7892V60.9693Z" fill="#00A39D"/>
<path d="M28.3721 77.0364V70.4424H29.0686C29.2335 70.4424 29.3355 70.5226 29.3745 70.6832L29.4592 71.3602C29.7022 71.0607 29.9756 70.8156 30.2793 70.6246C30.5831 70.4337 30.9346 70.3382 31.3339 70.3382C31.7765 70.3382 32.1345 70.4619 32.4079 70.7092C32.6857 70.9566 32.8853 71.2908 33.0068 71.7117C33.1023 71.473 33.2238 71.2669 33.3713 71.0933C33.5232 70.9197 33.6925 70.7765 33.8791 70.6637C34.0657 70.5508 34.2631 70.4684 34.4714 70.4163C34.6841 70.3642 34.8989 70.3382 35.1159 70.3382C35.463 70.3382 35.7712 70.3946 36.0402 70.5074C36.3136 70.6159 36.5436 70.7765 36.7302 70.9891C36.9212 71.2018 37.0665 71.4643 37.1664 71.7768C37.2662 72.0849 37.3161 72.4386 37.3161 72.8378V77.0364H36.1509V72.8378C36.1509 72.3214 36.038 71.9308 35.8124 71.6661C35.5867 71.3971 35.2613 71.2625 34.836 71.2625C34.645 71.2625 34.4628 71.2973 34.2892 71.3667C34.1199 71.4318 33.9702 71.5294 33.84 71.6596C33.7098 71.7898 33.6057 71.9547 33.5276 72.1543C33.4538 72.3496 33.4169 72.5775 33.4169 72.8378V77.0364H32.2517V72.8378C32.2517 72.3084 32.1454 71.9135 31.9327 71.6531C31.7201 71.3927 31.4098 71.2625 31.0019 71.2625C30.7155 71.2625 30.4508 71.3407 30.2077 71.4969C29.9647 71.6488 29.7412 71.8571 29.5373 72.1218V77.0364H28.3721Z" fill="#F8AD3C"/>
<path d="M41.8566 70.3382C42.3383 70.3382 42.7723 70.4185 43.1585 70.579C43.5447 70.7396 43.8746 70.9674 44.148 71.2625C44.4213 71.5576 44.6297 71.9157 44.7729 72.3366C44.9204 72.7532 44.9942 73.2197 44.9942 73.7361C44.9942 74.2569 44.9204 74.7256 44.7729 75.1422C44.6297 75.5588 44.4213 75.9146 44.148 76.2097C43.8746 76.5048 43.5447 76.7327 43.1585 76.8932C42.7723 77.0495 42.3383 77.1276 41.8566 77.1276C41.3706 77.1276 40.9323 77.0495 40.5417 76.8932C40.1555 76.7327 39.8257 76.5048 39.5523 76.2097C39.2789 75.9146 39.0684 75.5588 38.9209 75.1422C38.7776 74.7256 38.706 74.2569 38.706 73.7361C38.706 73.2197 38.7776 72.7532 38.9209 72.3366C39.0684 71.9157 39.2789 71.5576 39.5523 71.2625C39.8257 70.9674 40.1555 70.7396 40.5417 70.579C40.9323 70.4185 41.3706 70.3382 41.8566 70.3382ZM41.8566 76.2228C42.5076 76.2228 42.9936 76.0058 43.3147 75.5718C43.6359 75.1335 43.7964 74.5238 43.7964 73.7426C43.7964 72.9572 43.6359 72.3453 43.3147 71.907C42.9936 71.4687 42.5076 71.2495 41.8566 71.2495C41.5268 71.2495 41.2382 71.3059 40.9909 71.4188C40.7478 71.5316 40.5439 71.6943 40.379 71.907C40.2184 72.1196 40.0969 72.3822 40.0144 72.6946C39.9363 73.0027 39.8973 73.3521 39.8973 73.7426C39.8973 74.5238 40.0578 75.1335 40.379 75.5718C40.7044 76.0058 41.197 76.2228 41.8566 76.2228Z" fill="#F8AD3C"/>
<path d="M47.629 75.4481C47.8416 75.7345 48.0738 75.9363 48.3255 76.0535C48.5815 76.1707 48.8614 76.2293 49.1652 76.2293C49.7858 76.2293 50.261 76.0101 50.5908 75.5718C50.9206 75.1335 51.0855 74.4804 51.0855 73.6125C51.0855 72.8053 50.938 72.2129 50.6429 71.8354C50.3521 71.4535 49.9355 71.2625 49.3931 71.2625C49.0155 71.2625 48.6857 71.3493 48.4036 71.5229C48.1259 71.6965 47.8677 71.9417 47.629 72.2585V75.4481ZM47.629 71.3927C47.9067 71.0716 48.2192 70.8156 48.5664 70.6246C48.9179 70.4337 49.3214 70.3382 49.7771 70.3382C50.1633 70.3382 50.5105 70.412 50.8186 70.5595C51.1311 70.7071 51.3958 70.9219 51.6128 71.204C51.8298 71.4817 51.9947 71.8202 52.1075 72.2194C52.2247 72.6187 52.2833 73.0678 52.2833 73.5669C52.2833 74.1007 52.2182 74.5867 52.088 75.025C51.9578 75.4633 51.769 75.8387 51.5216 76.1511C51.2786 76.4593 50.9814 76.7001 50.6298 76.8737C50.2783 77.0429 49.8834 77.1276 49.4451 77.1276C49.0112 77.1276 48.6445 77.0473 48.345 76.8867C48.0499 76.7218 47.7917 76.4896 47.5704 76.1902L47.5118 76.7891C47.4771 76.954 47.3773 77.0364 47.2124 77.0364H46.4638V67.448H47.629V71.3927Z" fill="#F8AD3C"/>
<path d="M54.9726 70.4424V77.0364H53.8139V70.4424H54.9726ZM55.2199 68.3723C55.2199 68.4852 55.1961 68.5915 55.1483 68.6913C55.1049 68.7868 55.0442 68.8736 54.9661 68.9517C54.8923 69.0255 54.8033 69.084 54.6992 69.1274C54.5994 69.1708 54.493 69.1925 54.3802 69.1925C54.2674 69.1925 54.1611 69.1708 54.0613 69.1274C53.9658 69.084 53.8812 69.0255 53.8074 68.9517C53.7336 68.8736 53.675 68.7868 53.6316 68.6913C53.5882 68.5915 53.5665 68.4852 53.5665 68.3723C53.5665 68.2595 53.5882 68.1532 53.6316 68.0534C53.675 67.9492 53.7336 67.8603 53.8074 67.7865C53.8812 67.7084 53.9658 67.6476 54.0613 67.6042C54.1611 67.5608 54.2674 67.5391 54.3802 67.5391C54.493 67.5391 54.5994 67.5608 54.6992 67.6042C54.8033 67.6476 54.8923 67.7084 54.9661 67.7865C55.0442 67.8603 55.1049 67.9492 55.1483 68.0534C55.1961 68.1532 55.2199 68.2595 55.2199 68.3723Z" fill="#F8AD3C"/>
<path d="M58.0741 67.448V77.0364H56.9154V67.448H58.0741Z" fill="#F8AD3C"/>
<path d="M64.3665 73.0201C64.3665 72.751 64.3275 72.5058 64.2494 72.2845C64.1756 72.0589 64.0649 71.8658 63.9174 71.7052C63.7742 71.5403 63.5984 71.4144 63.3901 71.3276C63.1818 71.2365 62.9453 71.1909 62.6806 71.1909C62.1251 71.1909 61.6846 71.3537 61.3592 71.6791C61.038 72.0003 60.8384 72.4473 60.7603 73.0201H64.3665ZM65.3039 76.1121C65.1607 76.2857 64.9893 76.4376 64.7897 76.5678C64.59 76.6936 64.3752 76.7978 64.1452 76.8802C63.9196 76.9627 63.6852 77.0234 63.4422 77.0625C63.1992 77.1059 62.9583 77.1276 62.7196 77.1276C62.264 77.1276 61.843 77.0516 61.4568 76.8997C61.0749 76.7435 60.7429 76.5178 60.4609 76.2228C60.1831 75.9233 59.9661 75.5544 59.8099 75.1161C59.6537 74.6778 59.5756 74.1744 59.5756 73.6059C59.5756 73.1459 59.645 72.7163 59.7839 72.3171C59.9271 71.9178 60.1311 71.5728 60.3958 71.2821C60.6605 70.987 60.9838 70.757 61.3657 70.5921C61.7476 70.4228 62.1772 70.3382 62.6546 70.3382C63.0495 70.3382 63.414 70.4055 63.7481 70.54C64.0866 70.6702 64.3774 70.8611 64.6204 71.1128C64.8678 71.3602 65.0609 71.6683 65.1998 72.0372C65.3386 72.4017 65.4081 72.8183 65.4081 73.287C65.4081 73.4692 65.3885 73.5908 65.3495 73.6515C65.3104 73.7123 65.2366 73.7426 65.1281 73.7426H60.7212C60.7343 74.1593 60.7907 74.5216 60.8905 74.8297C60.9946 75.1378 61.1378 75.3961 61.3201 75.6044C61.5024 75.8083 61.7194 75.9624 61.9711 76.0665C62.2228 76.1663 62.5048 76.2162 62.8173 76.2162C63.108 76.2162 63.3576 76.1837 63.5659 76.1186C63.7785 76.0492 63.9608 75.9754 64.1127 75.8973C64.2646 75.8192 64.3904 75.7476 64.4902 75.6825C64.5944 75.613 64.6833 75.5783 64.7571 75.5783C64.8526 75.5783 64.9264 75.6152 64.9784 75.689L65.3039 76.1121Z" fill="#F8AD3C"/>
<path d="M99 9L54 9C76.8814 13.215 94.785 31.1186 99 54L99 9Z" fill="#F8AD3C"/>
<path d="M9 99L54 99C31.1186 94.785 13.215 76.8814 9.00001 54L9 99Z" fill="#00A39D"/>
</g>
<defs>
<clipPath id="clip0_801_4759">
<rect x="9" y="9" width="90" height="90" rx="8" fill="white"/>
</clipPath>
</defs>
</svg>
