<svg width="108" height="108" viewBox="0 0 108 108" fill="none" xmlns="http://www.w3.org/2000/svg">
<path d="M75.0403 14.3418C70.9939 13.5109 66.7848 15.4588 64.6543 19.146C64.1513 20.0195 63.7889 20.9587 63.5595 21.925C62.6201 18.1643 59.6648 15.1148 55.9106 14.3418C51.8643 13.5109 47.6515 15.4588 45.521 19.146C45.018 20.0195 44.6555 20.9587 44.4262 21.925C43.483 18.1682 40.5315 15.1148 36.7773 14.3418C32.7309 13.5109 28.5181 15.4588 26.3877 19.146C24.2498 22.8487 24.5901 27.7031 27.2236 31.0386C29.8534 34.3702 34.3102 35.665 38.205 34.2001C41.3082 33.0329 43.6236 30.2733 44.4299 27.0113C44.7776 28.4645 45.4174 29.8482 46.3569 31.0386C48.9867 34.3702 53.4436 35.665 57.3383 34.2001C60.4415 33.0329 62.7569 30.2733 63.5632 27.0113C63.9109 28.4645 64.5508 29.8482 65.4902 31.0386C68.12 34.3702 72.5769 35.665 76.4716 34.2001C80.3515 32.7392 83.0109 28.7853 83.0109 24.4758C83.0072 19.6098 79.6155 15.2849 75.0403 14.3418Z" fill="#FDAF27"/>
<path d="M43.4716 64.5123C44.4777 69.0073 47.0409 73.2009 51.5273 74.484C55.7882 75.7015 60.5374 73.7265 62.7307 69.6953C64.0474 67.2758 63.881 64.5394 63.8699 61.861C63.8625 60.056 63.8514 58.2549 63.8551 56.45C63.8551 54.4634 63.8551 52.4768 63.8662 50.4941C63.8773 47.9509 63.807 45.4811 65.0202 43.1738C66.6957 39.9813 70.0282 38.0179 73.5087 38.1609C77.0224 38.3078 80.2255 40.6112 81.6236 43.9854C82.5519 46.2271 82.393 48.6582 82.4003 51.0429C82.4077 53.0102 82.4077 54.9813 82.4077 56.9486C82.4077 61.2 82.6629 65.6332 81.8714 69.819C80.0406 79.5085 73.6159 87.942 64.9092 91.8261C56.2025 95.7108 45.8906 94.6705 38.042 89.1438C34.1731 86.4192 30.9849 82.6508 28.884 78.2949C26.809 73.9854 25.5515 68.6015 26.3467 63.778C26.9422 60.1835 29.6607 57.2462 33.082 56.5118C36.6364 55.7505 40.3573 57.4665 42.2104 60.7246C42.8835 61.9035 43.1757 63.1866 43.4716 64.5123Z" fill="#FDAF27"/>
</svg>
