<svg width="108" height="108" viewBox="0 0 108 108" fill="none" xmlns="http://www.w3.org/2000/svg">
<path d="M94 50.1529C93.9866 50.1984 93.9669 50.2429 93.9607 50.2893C93.8925 50.8048 93.6073 51.1079 93.0891 51.1774C92.8319 51.2118 92.5696 51.2178 92.3096 51.2178C89.887 51.2186 87.4642 51.2151 85.0416 51.2136C84.9526 51.2136 84.8623 51.2122 84.7748 51.2258C84.6878 51.2392 84.6423 51.2992 84.666 51.3898C84.6866 51.4691 84.7111 51.5485 84.7436 51.6237C85.2419 52.7718 86.1102 53.4891 87.3296 53.7302C88.5752 53.9764 89.7104 53.6605 90.7194 52.8979C90.977 52.7032 91.2432 52.5443 91.5729 52.5279C92.0347 52.5048 92.4313 52.6461 92.6992 53.038C92.9706 53.4349 92.9883 53.8664 92.7619 54.2851C92.6531 54.4864 92.495 54.6673 92.3345 54.8336C92.031 55.1487 91.6625 55.3766 91.2591 55.5429C90.1612 55.9954 89.0224 56.249 87.8301 56.1963C86.4009 56.133 85.0997 55.6824 83.9468 54.8332C83.074 54.1905 82.4733 53.3377 82.1585 52.3045C81.6526 50.6443 81.6825 48.9864 82.3105 47.3612C82.754 46.2135 83.4677 45.264 84.5106 44.5834C85.1755 44.1495 85.9076 43.8851 86.6855 43.7483C87.6608 43.5766 88.6383 43.5554 89.6094 43.7744C90.9102 44.0677 92.0145 44.6871 92.827 45.769C93.3384 46.4503 93.6477 47.2244 93.8255 48.0509C93.8929 48.3645 93.9168 48.6872 93.9619 49.0056C93.9714 49.0727 93.9873 49.1389 94 49.2056V50.1529ZM88.0894 49.0962V49.0925C88.6179 49.0925 89.1464 49.0925 89.6749 49.0925C90.2035 49.0923 90.732 49.0915 91.2605 49.0911C91.4518 49.0911 91.4827 49.0674 91.452 48.8757C91.4128 48.6326 91.3665 48.389 91.3001 48.1521C91.085 47.3843 90.6582 46.7748 89.9311 46.4101C89.0648 45.9757 88.1518 45.8568 87.2093 46.0806C85.6684 46.4461 84.9058 47.6499 84.6383 48.823C84.5928 49.0229 84.648 49.0818 84.8564 49.094C84.8838 49.0956 84.9112 49.0962 84.9386 49.0962C85.9888 49.0962 87.0391 49.0962 88.0894 49.0962Z" fill="#B01F25"/>
<path d="M76.2886 68.1495C76.1895 68.1281 76.0908 68.104 75.991 68.0854C75.3533 67.9671 74.77 67.7244 74.2505 67.3327C74.2128 67.3043 74.171 67.2808 74.1184 67.247C74.0846 67.3302 74.0552 67.4048 74.0243 67.4788C73.8538 67.8878 73.5464 68.0656 73.1077 68.0026C72.9929 67.9861 72.8753 67.9671 72.7675 67.9263C72.4772 67.8167 72.3161 67.602 72.2944 67.2894C72.2893 67.2142 72.2901 67.1386 72.2901 67.063C72.2901 64.2699 72.2901 61.4768 72.2901 58.6835C72.2901 58.6287 72.2899 58.5737 72.2917 58.5189C72.3043 58.1313 72.5128 57.8575 72.8905 57.7926C73.0892 57.7586 73.3041 57.761 73.5027 57.7967C73.8681 57.8622 74.0685 58.1124 74.0995 58.4847C74.1079 58.5871 74.1079 58.6903 74.1081 58.7932C74.1089 59.3353 74.1085 59.8774 74.1085 60.4196V60.6495C74.1815 60.6174 74.2299 60.6089 74.26 60.5807C75.8701 59.0738 79.4182 59.5407 80.0835 62.6295C80.3592 63.9095 80.2564 65.1586 79.6553 66.336C79.1408 67.3436 78.3186 67.9492 77.1862 68.1116C77.1468 68.1172 77.1093 68.1363 77.071 68.1491L76.2886 68.1495ZM78.4178 64.0031C78.3811 63.7181 78.366 63.4286 78.3038 63.1494C78.1223 62.334 77.6642 61.7509 76.841 61.4997C76.5076 61.3979 76.1668 61.3938 75.8227 61.4346C74.7932 61.5568 74.1197 62.2947 74.0982 63.3278C74.0883 63.8003 74.0793 64.273 74.0673 64.7455C74.057 65.1518 74.1994 65.4998 74.4807 65.786C75.0382 66.3533 75.7283 66.5602 76.5062 66.4858C77.1851 66.4209 77.6778 66.0607 78.0209 65.4809C78.2904 65.0255 78.3994 64.5301 78.4178 64.0031Z" fill="#B01F25"/>
<path d="M89.1808 68.1495C89.0203 68.1211 88.8598 68.0914 88.6991 68.0642C87.8306 67.9167 87.0585 67.5754 86.4384 66.9332C85.8384 66.3117 85.5199 65.5619 85.4343 64.7076C85.3668 64.0331 85.3779 63.3608 85.5606 62.7057C86.0063 61.1088 87.0749 60.1711 88.6803 59.8364C89.4619 59.6734 90.2395 59.742 90.9951 59.9969C92.3454 60.4523 93.1365 61.401 93.4194 62.7863C93.5092 63.2258 93.5288 63.6709 93.5065 64.1178C93.5018 64.2128 93.4853 64.3088 93.4614 64.4012C93.4113 64.5957 93.2869 64.728 93.0922 64.7795C92.9669 64.8126 92.8375 64.833 92.7085 64.8471C92.5997 64.8588 92.489 64.8545 92.3794 64.8545C90.7868 64.8549 89.1944 64.8586 87.6018 64.8518C87.24 64.8501 87.269 64.9715 87.3756 65.2029C87.7114 65.9326 88.2948 66.3521 89.0689 66.5031C89.8004 66.6459 90.4878 66.5101 91.1161 66.1013C91.2138 66.0376 91.3081 65.9688 91.4058 65.9051C91.5632 65.8025 91.732 65.7302 91.923 65.7216C92.262 65.7061 92.5282 65.832 92.691 66.1359C92.8562 66.4446 92.8309 66.7469 92.6135 67.022C92.3617 67.3405 92.0332 67.5633 91.6704 67.7376C91.2385 67.9451 90.7767 68.0421 90.3057 68.1054C90.2323 68.1153 90.1602 68.1347 90.0875 68.1497L89.1808 68.1495ZM89.5262 63.4587C90.1847 63.4587 90.8435 63.4587 91.502 63.4587C91.55 63.4587 91.5983 63.4607 91.6461 63.4576C91.7986 63.4479 91.8356 63.4014 91.8115 63.2458C91.8 63.1714 91.7812 63.0981 91.7656 63.0243C91.588 62.1881 91.0868 61.6507 90.2663 61.4167C89.896 61.311 89.5198 61.3309 89.1446 61.3979C88.5303 61.5075 88.0137 61.7801 87.6754 62.321C87.5493 62.5228 87.4584 62.7474 87.3618 62.9662C87.315 63.0719 87.2857 63.1867 87.2604 63.3C87.2359 63.4092 87.2717 63.4486 87.3855 63.458C87.4263 63.4615 87.4677 63.4585 87.5089 63.4585C88.1813 63.4585 88.8538 63.4587 89.5262 63.4587Z" fill="#B01F25"/>
<path d="M67.2267 68.1495C67.0452 68.1211 66.8636 68.093 66.6821 68.0642C66.1698 67.9832 65.6811 67.8324 65.2267 67.5785C64.5698 67.2115 64.0873 66.6816 63.7732 66.0014C63.4468 65.2944 63.261 64.5477 63.2884 63.7692C63.3415 62.2598 64.0182 61.0921 65.3096 60.3023C65.8146 59.9934 66.3877 59.8616 66.9731 59.808C67.6681 59.7445 68.3577 59.7791 69.0289 59.9949C70.2539 60.3886 71.102 61.183 71.5174 62.4024C71.9967 63.8094 71.8747 65.1685 71.0478 66.4186C70.3806 67.4275 69.4076 67.9688 68.2084 68.1083C68.1414 68.1161 68.0757 68.1353 68.0095 68.1493L67.2267 68.1495ZM67.5605 61.3808C66.5237 61.3754 65.6982 61.9444 65.352 62.9165C65.1196 63.5695 65.1002 64.2367 65.3026 64.8988C65.5445 65.6904 66.06 66.2227 66.8688 66.445C67.1888 66.533 67.5162 66.5536 67.8482 66.5128C68.6584 66.4131 69.2693 66.0179 69.6244 65.2789C70 64.497 70.0047 63.6851 69.7097 62.8782C69.3641 61.9336 68.5626 61.386 67.5605 61.3808Z" fill="#B01F25"/>
<path d="M59.5108 38.9999C60.7176 39.0201 62.016 39.2035 63.2389 39.7541C65.4878 40.7667 66.9318 42.4713 67.592 44.8453C67.8694 45.8428 68.0266 46.8564 68.0009 47.8929C67.9566 49.6742 67.4843 51.3325 66.5156 52.8338C65.5492 54.3319 64.1765 55.2987 62.4868 55.8282C61.2157 56.2267 59.9113 56.378 58.5844 56.2793C56.9435 56.1573 55.4264 55.6566 54.0736 54.7067C52.673 53.723 51.772 52.3752 51.2539 50.7593C50.8843 49.6058 50.7034 48.423 50.7609 47.2114C50.8373 45.5999 51.2688 44.0887 52.1122 42.7073C53.1128 41.0685 54.5756 40.029 56.3895 39.4545C57.3655 39.1454 58.367 39.0036 59.5108 38.9999ZM64.2799 52.8178C64.3046 52.8106 64.3217 52.8108 64.3296 52.8025C64.5789 52.538 64.8295 52.2746 65.0749 52.0065C65.1814 51.8903 65.2016 51.7514 65.142 51.6039C65.119 51.5468 65.0955 51.4898 65.0691 51.4339C64.856 50.981 64.6407 50.5291 64.4289 50.0758C63.0551 47.1379 61.6822 44.1995 60.3086 41.2616C60.2761 41.1917 60.2402 41.1233 60.206 41.0543C60.1916 41.0549 60.1774 41.0557 60.1629 41.0564C60.075 41.3632 59.8722 41.5964 59.6888 41.8427C59.5431 42.0384 59.4786 42.2626 59.5219 42.5027C59.5483 42.6492 59.5959 42.7959 59.6589 42.9308C61.1668 46.1692 62.6783 49.4061 64.1893 52.6432C64.2173 52.7034 64.2505 52.7611 64.2799 52.8178ZM58.6365 43.7542C58.6219 43.7542 58.6074 43.7542 58.5928 43.7545C58.5269 43.9988 58.4014 44.21 58.2386 44.3973C57.9015 44.7849 57.8753 45.1983 58.0909 45.6565C59.3214 48.2749 60.5456 50.8963 61.7728 53.5163C61.8367 53.6527 61.9033 53.7891 61.9824 53.9167C62.1073 54.1178 62.2204 54.1594 62.4322 54.065C62.6383 53.9731 62.8379 53.8643 63.0318 53.7489C63.1858 53.6572 63.2072 53.5672 63.1478 53.3993C63.132 53.3541 63.1097 53.3113 63.0893 53.2678C61.6358 50.1558 60.1823 47.0435 58.7282 43.9317C58.6999 43.8713 58.6672 43.8134 58.6365 43.7542ZM57.0779 46.4602C57.055 46.4818 57.0334 46.4929 57.0274 46.5096C56.9328 46.7721 56.7719 46.9947 56.5994 47.2085C56.3338 47.5382 56.3072 47.8846 56.4857 48.2646C57.4032 50.2198 58.3163 52.1772 59.2328 54.1328C59.2936 54.2626 59.3676 54.3871 59.4446 54.5083C59.5176 54.6228 59.6264 54.7015 59.7624 54.716C60.0803 54.75 60.3908 54.6859 60.6983 54.6166C60.8034 54.5929 60.824 54.5324 60.7887 54.426C60.765 54.3547 60.7302 54.2872 60.6983 54.2187C59.5254 51.7016 58.3523 49.1844 57.1791 46.6674C57.1475 46.5997 57.1135 46.5333 57.0779 46.4602ZM55.5156 49.1537C55.3987 49.3534 55.2998 49.532 55.1912 49.7045C55.1148 49.8261 55.0196 49.9359 54.9423 50.0571C54.7705 50.3257 54.747 50.606 54.8902 50.8967C54.9811 51.0811 55.0676 51.2676 55.1546 51.4539C55.5374 52.2734 55.9215 53.0922 56.3004 53.9136C56.3769 54.0795 56.4816 54.1971 56.6629 54.2478C57.0517 54.3562 57.4381 54.4736 57.8265 54.5837C57.8887 54.6014 57.9563 54.6004 58.0566 54.6123C57.2015 52.7755 56.362 50.9719 55.5156 49.1537Z" fill="#B01F25"/>
<path d="M38.7899 49.871C38.7899 51.422 38.7905 52.9729 38.7889 54.5239C38.7889 54.6469 38.781 54.771 38.7658 54.893C38.7019 55.4067 38.3932 55.764 37.8971 55.9028C37.649 55.9723 37.3949 55.9898 37.1419 55.9508C36.705 55.8839 36.3813 55.6539 36.1913 55.2486C36.168 55.1989 36.1516 55.1458 36.1248 55.0982C36.0654 54.9921 36.0259 54.9828 35.9307 55.0514C35.1538 55.6119 34.288 55.9624 33.3447 56.1039C32.2003 56.2756 31.0845 56.139 30.0169 55.6883C28.9032 55.2183 28.1169 54.4054 27.6176 53.3127C27.1599 52.3107 26.8762 51.2612 26.8387 50.157C26.7884 48.6763 27.1443 47.2934 27.9596 46.0544C28.8411 44.7153 30.109 43.9424 31.6864 43.6889C33.1432 43.4548 34.4947 43.7631 35.7446 44.5373C36.0628 44.7342 36.0696 44.7344 36.2501 44.4027C36.363 44.195 36.5317 44.0468 36.7456 43.9568C37.2521 43.7437 37.7536 43.7713 38.2311 44.0384C38.6133 44.2523 38.768 44.6088 38.7884 45.0328C38.7913 45.0944 38.7897 45.1562 38.7897 45.2181C38.7897 46.769 38.7899 48.32 38.7899 49.871ZM36.0871 49.9208C36.078 49.9208 36.0689 49.9206 36.0597 49.9204C36.07 49.3861 36.0803 48.8516 36.0904 48.3173C36.097 47.9668 35.9923 47.6505 35.7658 47.386C35.105 46.6137 34.2771 46.1331 33.2571 46.0398C31.8077 45.9071 30.5139 46.6932 29.9633 48.0437C29.38 49.4747 29.4651 50.8887 30.1646 52.2583C30.544 53.0012 31.1593 53.4868 31.9773 53.657C33.2822 53.9286 34.4516 53.6084 35.4679 52.749C35.6175 52.6224 35.7415 52.4601 35.8575 52.3C36.0182 52.0778 36.0891 51.8219 36.0879 51.5456C36.0854 51.0041 36.0871 50.4624 36.0871 49.9208Z" fill="#B01F25"/>
<path d="M43.5267 48.2922C43.6163 48.2184 43.6695 48.1795 43.7171 48.1348C44.9641 46.9666 46.2099 45.7973 47.4582 44.6304C47.6434 44.4573 47.8287 44.2805 48.0337 44.1326C48.5734 43.7431 49.1433 43.7279 49.7139 44.0606C50.379 44.4487 50.4973 45.224 49.9813 45.7962C49.8118 45.9842 49.6236 46.1568 49.4339 46.3252C48.4273 47.2174 47.4172 48.1057 46.4084 48.9955C46.3671 49.0317 46.3245 49.0663 46.2841 49.1036C46.1244 49.2512 46.1186 49.3229 46.2561 49.484C46.314 49.5518 46.376 49.6161 46.4364 49.6818C47.6807 51.0362 48.9247 52.3908 50.1701 53.7442C50.3784 53.9707 50.5435 54.2192 50.5989 54.527C50.6863 55.0121 50.5365 55.4099 50.1367 55.6999C49.6679 56.0399 49.0288 56.0483 48.5528 55.7192C48.4077 55.6189 48.2746 55.4946 48.1563 55.363C46.949 54.0213 45.7461 52.6758 44.5417 51.3315C44.4914 51.2753 44.4422 51.2173 44.3863 51.1669C44.2549 51.0478 44.1652 51.0391 44.0173 51.1382C43.6719 51.3698 43.4974 51.6919 43.5083 52.1122C43.5191 52.5237 43.5281 52.9352 43.5312 53.3467C43.5341 53.7516 43.5324 54.1565 43.5248 54.5612C43.5219 54.7182 43.5164 54.8796 43.4795 55.031C43.3746 55.4598 43.0915 55.7328 42.6779 55.8682C42.3293 55.9824 41.9755 55.982 41.6248 55.8719C41.1509 55.7234 40.8593 55.3564 40.8201 54.8608C40.8115 54.7516 40.8086 54.6416 40.8086 54.5319C40.808 50.3459 40.8078 46.1599 40.8096 41.9739C40.8096 41.8099 40.8096 41.6412 40.8453 41.4827C40.9535 41.0051 41.2764 40.7316 41.7389 40.6169C42.0509 40.5394 42.3654 40.5495 42.6746 40.641C43.1659 40.7862 43.4612 41.1417 43.509 41.65C43.5217 41.7864 43.5261 41.9239 43.5263 42.0609C43.5273 44.0442 43.5271 46.0272 43.5271 48.0105C43.5271 48.0894 43.5267 48.1684 43.5267 48.2922Z" fill="#B01F25"/>
<path d="M71.3237 45.1369C71.395 45.0823 71.449 45.0437 71.4999 45.0015C72.4984 44.1734 73.6422 43.7192 74.9398 43.6393C75.8147 43.5855 76.6688 43.6667 77.4872 43.9883C78.8571 44.5267 79.7435 45.5302 80.2389 46.8982C80.5249 47.688 80.6287 48.5081 80.6291 49.3437C80.6298 50.764 80.6298 52.1842 80.6291 53.6045C80.6289 53.9682 80.6267 54.3317 80.6201 54.6953C80.618 54.8114 80.6108 54.9294 80.5869 55.0426C80.4946 55.4786 80.2286 55.7578 79.8002 55.8791C79.4414 55.9807 79.0806 55.983 78.725 55.8692C78.2692 55.7236 78.0079 55.405 77.9374 54.9338C77.9183 54.8054 77.9121 54.6741 77.9119 54.5443C77.9102 52.8563 77.9102 51.1683 77.9111 49.4803C77.9113 49.0332 77.8754 48.5901 77.7804 48.1521C77.4909 46.8156 76.4363 45.9864 75.0683 46.0192C74.2002 46.0398 73.4549 46.3819 72.7941 46.9151C71.9423 47.6027 71.4622 48.5061 71.3394 49.5912C71.3002 49.9375 71.3002 50.2893 71.2992 50.6385C71.2948 51.9697 71.2986 53.301 71.2959 54.6321C71.2957 54.7753 71.2833 54.9204 71.2584 55.0613C71.1784 55.5134 70.9122 55.7977 70.4628 55.9004C70.1438 55.9731 69.822 55.9725 69.5028 55.9002C68.9621 55.7778 68.6446 55.4069 68.5945 54.8443C68.586 54.7489 68.5865 54.6523 68.5865 54.5565C68.5861 51.4617 68.5856 48.367 68.5879 45.2723C68.5879 45.1154 68.5974 44.9558 68.6281 44.8027C68.7311 44.2902 69.0839 43.9479 69.5965 43.8659C69.8689 43.8224 70.1449 43.8278 70.4136 43.9034C70.8638 44.0299 71.1376 44.3302 71.2543 44.7775C71.2819 44.8832 71.2963 44.9926 71.3237 45.1369Z" fill="#B01F25"/>
<path d="M26.1913 46.4097C26.1913 47.7684 26.1952 49.1269 26.1898 50.4856C26.1867 51.3095 26.0565 52.1118 25.7275 52.873C25.139 54.2346 24.1155 55.1406 22.7438 55.6574C21.6051 56.0864 20.4205 56.2669 19.2066 56.1524C17.6433 56.0048 16.305 55.3597 15.2205 54.2222C14.392 53.3531 14.0087 52.2987 14 51.1005C13.992 49.9823 15.1546 49.3905 16.0851 49.8557C16.4902 50.0583 16.6963 50.4135 16.7667 50.8516C16.8036 51.0816 16.8133 51.3175 16.8675 51.5431C17.1292 52.6342 17.8121 53.3416 18.8866 53.6379C19.9439 53.9292 20.9731 53.8033 21.9344 53.2723C22.8579 52.7621 23.3729 51.9637 23.4889 50.9149C23.5167 50.6633 23.5293 50.4088 23.5299 50.1555C23.534 47.9734 23.534 45.7915 23.535 43.6094C23.535 43.1866 23.4971 43.1482 23.0807 43.1486C21.9826 43.1497 20.8845 43.1544 19.7865 43.1486C19.5971 43.1476 19.4007 43.1243 19.2198 43.0703C18.6456 42.8989 18.3173 42.4229 18.3661 41.8666C18.4135 41.3259 18.8397 40.8823 19.4094 40.8116C19.7012 40.7753 19.9979 40.7706 20.2925 40.77C21.8023 40.7671 23.3123 40.77 24.822 40.7718C25.1711 40.7722 25.4831 40.8794 25.7485 41.1099C26.0518 41.3733 26.1964 41.7048 26.1956 42.1079C26.1925 43.542 26.1944 44.9762 26.1944 46.4103C26.1933 46.4103 26.1923 46.4097 26.1913 46.4097Z" fill="#B01F25"/>
<path d="M49.9548 60.7144C50.0347 60.6532 50.0877 60.6102 50.1429 60.5706C51.3463 59.7083 52.645 59.5426 54.0254 60.062C54.5838 60.2722 55.0363 60.6371 55.3856 61.1249C55.4093 61.1581 55.434 61.1904 55.4752 61.2458C55.5374 61.1811 55.5922 61.1243 55.6466 61.0674C56.4816 60.1925 57.4991 59.7398 58.7133 59.7614C59.2103 59.7703 59.6954 59.8686 60.1598 60.0491C60.9604 60.3602 61.499 60.9355 61.8281 61.7189C62.0928 62.3493 62.1911 63.0093 62.1864 63.689C62.1829 64.1899 62.1868 64.6909 62.1854 65.1916C62.1835 65.8297 62.1817 66.4681 62.1759 67.1062C62.1703 67.7112 61.8911 67.9863 61.2886 67.9871C61.2268 67.9871 61.1648 67.9859 61.1036 67.9797C60.674 67.9371 60.4184 67.6793 60.3805 67.2488C60.3733 67.167 60.3735 67.0844 60.3733 67.002C60.3729 65.9589 60.3754 64.9159 60.3717 63.8728C60.3704 63.5023 60.3634 63.1306 60.2666 62.7694C60.1024 62.1578 59.7609 61.694 59.1514 61.4618C58.7564 61.3114 58.3544 61.3188 57.9598 61.4496C56.8745 61.8098 56.2164 62.538 56.0975 63.6956C56.0548 64.1108 56.0538 64.5312 56.0503 64.9495C56.0445 65.6494 56.0532 66.3496 56.0523 67.0496C56.0523 67.1586 56.0406 67.2688 56.0225 67.3764C55.9687 67.6951 55.7826 67.9047 55.4639 67.9552C55.271 67.9859 55.0643 67.989 54.8727 67.9552C54.5018 67.8895 54.2928 67.6344 54.2564 67.2567C54.2485 67.1749 54.2492 67.0922 54.249 67.0098C54.2485 65.9527 54.2541 64.8957 54.2452 63.8388C54.2426 63.5314 54.2238 63.2194 54.1682 62.9178C54.0305 62.17 53.618 61.6437 52.8676 61.4214C52.5278 61.3206 52.1849 61.3346 51.8534 61.4455C50.827 61.7888 50.1549 62.4581 49.9824 63.5559C49.9379 63.8392 49.9311 64.1302 49.9288 64.4178C49.9222 65.2689 49.9278 66.1199 49.9249 66.9709C49.9245 67.1073 49.9162 67.2457 49.8909 67.3793C49.8311 67.6949 49.635 67.8884 49.3224 67.9575C49.1122 68.0038 48.9004 68.0024 48.69 67.9509C48.3997 67.8798 48.2276 67.6906 48.1656 67.4048C48.1382 67.2785 48.1267 67.1464 48.1264 67.0168C48.1242 64.9921 48.1229 62.9672 48.1281 60.9425C48.1285 60.774 48.1565 60.5988 48.2076 60.4383C48.2898 60.1795 48.478 60.0105 48.7467 59.9504C49.2857 59.8296 49.7425 60.0033 49.9099 60.5749C49.921 60.6128 49.9342 60.6505 49.9548 60.7144Z" fill="#B01F25"/>
<path d="M83.1331 62.8782C83.1331 61.4989 83.1325 60.1197 83.1344 58.7404C83.1344 58.6246 83.1438 58.5072 83.1649 58.3934C83.2248 58.0695 83.4228 57.8593 83.7424 57.7996C83.927 57.7652 84.128 57.7631 84.3128 57.7961C84.6695 57.8595 84.8912 58.1299 84.9312 58.4995C84.9408 58.5879 84.9408 58.6778 84.9408 58.7668C84.9413 61.5048 84.9413 64.2427 84.9408 66.9808C84.9408 67.0562 84.9454 67.1328 84.9338 67.2068C84.9182 67.3076 84.9009 67.411 84.8634 67.5052C84.7214 67.8614 84.3802 68.0248 83.8877 67.982C83.4997 67.9482 83.2409 67.7312 83.1661 67.363C83.1418 67.2433 83.1341 67.1182 83.1339 66.9956C83.1319 65.6233 83.1331 64.2505 83.1331 62.8782Z" fill="#B01F25"/>
<path d="M82.7138 63.9623C82.7138 64.9841 82.7138 66.0059 82.7136 67.0279C82.7136 67.117 82.7152 67.2068 82.706 67.2952C82.6711 67.6259 82.4803 67.853 82.1616 67.9443C81.9462 68.0059 81.7272 68.0067 81.5106 67.9546C81.15 67.8678 80.9463 67.6292 80.9121 67.2614C80.9044 67.1796 80.9059 67.097 80.9057 67.0148C80.9055 64.9779 80.9048 62.9411 80.9069 60.9042C80.9069 60.7748 80.9147 60.6431 80.9395 60.5166C80.9963 60.2257 81.1853 60.0485 81.4632 59.9666C81.6773 59.9038 81.8954 59.9001 82.114 59.9535C82.4669 60.0398 82.6804 60.2869 82.7089 60.6501C82.7152 60.7319 82.7138 60.8146 82.7138 60.8968C82.714 61.9186 82.7138 62.9402 82.7138 63.9623Z" fill="#B01F25"/>
<path d="M80.896 58.6413C80.9011 58.5653 80.9011 58.4894 80.9123 58.4153C80.9632 58.0771 81.1498 57.8676 81.4816 57.7961C81.7177 57.7452 81.9572 57.7448 82.1923 57.8142C82.4583 57.8927 82.627 58.0691 82.6907 58.3365C82.7404 58.5451 82.7398 58.7575 82.6819 58.966C82.6042 59.2459 82.4237 59.4268 82.1451 59.508C81.9234 59.5727 81.6979 59.5747 81.4756 59.5203C81.155 59.4418 80.9572 59.208 80.9104 58.8659C80.9003 58.7915 80.9005 58.7157 80.896 58.6413Z" fill="#B01F25"/>
</svg>
