<svg width="108" height="108" viewBox="0 0 108 108" fill="none" xmlns="http://www.w3.org/2000/svg">
<path d="M86.2475 53.5416C85.9707 53.3757 85.2651 53.099 84.7812 54.6064C84.2974 56.1139 83.3012 58.7971 82.6928 59.9178C82.0843 61.0386 81.2687 61.5637 80.9223 60.4851C80.5768 59.4065 80.2863 56.1139 80.1617 53.4994C80.0371 50.885 80.3486 48.5198 77.8377 47.9809C75.3268 47.4412 73.8542 48.8937 73.2732 49.9109C72.6922 50.9271 69.9953 56.0314 69.9953 56.0314C69.9953 56.0314 69.8706 53.7698 70.1611 51.0316C70.4516 48.2925 70.5762 47.027 70.1199 46.3635C69.6635 45.6991 67.2983 44.517 66.5725 45.7202C65.8468 46.9234 64.6426 50.5129 63.8756 52.4841C63.1077 54.4552 61.2822 59.5174 60.1202 59.5174C58.9582 59.5174 59.3935 53.5416 59.892 52.1313C60.3896 50.72 60.846 49.7038 60.846 48.397C60.846 47.0902 60.2439 46.1564 58.6054 45.8448C56.966 45.5333 56.0954 46.841 55.5346 48.7076C54.9747 50.5752 54.5596 52.8369 54.4973 55.0775C54.4973 55.0775 53.1071 57.5673 49.8704 57.318C49.8704 57.318 50.6173 54.8905 51.0535 53.3968C51.4887 51.9031 52.2356 48.583 50.4935 47.5255C48.7506 46.4671 46.302 46.5505 45.0786 48.2311C43.8543 49.9118 43.5436 52.1524 43.7095 53.7707C43.8754 55.389 44.8504 57.3813 45.743 58.294C45.743 58.294 44.4774 61.4684 43.9588 62.8173C43.4401 64.1662 43.1083 64.7472 42.5686 64.7472C42.0288 64.7472 41.5312 64.0004 40.9915 62.2363C40.4517 60.4732 39.8707 58.4599 39.6224 55.8042C39.3731 53.1485 39.2907 49.9741 38.585 48.791C37.8794 47.608 37.0226 47.4843 36.3445 47.4843C35.6663 47.4843 34.3321 48.21 33.9582 49.6836C33.5843 51.1572 32.7485 54.8291 31.7799 57.1109C30.8113 59.3937 29.7877 60.5694 29.4697 58.7155C29.1517 56.8617 29.6007 53.4179 29.8088 52.1936C30.0159 50.9693 31.2402 49.1988 31.2264 48.6178C31.2127 48.0368 30.5767 46.2801 28.875 46.2939C27.1732 46.3076 26.759 47.5942 26.3576 48.7425C25.9563 49.8907 25.0985 52.671 24.414 55.6795C23.7294 58.688 23.1759 61.2329 21.8343 61.2329C21.0041 61.2329 20.271 60.1818 19.8558 58.0099C19.4407 55.8381 19.0403 51.2873 19.0403 44.4547C19.0403 44.4547 20.6449 42.3177 21.8343 38.2929C23.0211 34.2662 22.8552 30.6355 20.5725 31.0296C18.2907 31.4236 16.5477 34.9096 15.5937 38.8931C14.6388 42.8767 13.366 55.0491 14.3621 59.752C14.8707 62.152 16.3607 65.0982 19.5993 65.3676C22.9258 65.6444 24.4369 63.0693 25.1984 60.8443C25.1984 60.8443 27.4875 65.2567 29.4514 65.2567C31.4152 65.2567 32.7916 61.6947 33.5385 56.9442C33.5385 56.9442 34.7765 64.4274 35.911 66.613C37.0455 68.7986 38.4558 70.5131 41.5541 70.5131C44.6525 70.5131 45.9528 68.3001 46.6447 66.2254C47.3366 64.1507 48.9128 59.9453 48.9128 59.9453C48.9128 59.9453 51.4438 60.3467 54.6393 58.0228C54.6393 58.0228 54.7428 62.2556 56.4858 63.7282C58.2288 65.2008 59.7436 65.0075 60.8084 63.818C61.8733 62.6285 63.4366 59.3918 63.7885 58.4993C63.7885 58.4993 63.6025 61.5215 63.8783 62.5589C64.1551 63.5962 65.8568 65.1733 67.8756 65.1733C69.8945 65.1733 70.4489 63.7346 71.0015 62.4205C71.555 61.1064 74.4938 55.6566 74.4938 55.6566C74.4938 55.6566 74.9089 60.1176 75.4487 62.2125C75.9884 64.3083 77.5234 66.8393 79.972 66.8393C82.4206 66.8393 84.6199 60.8636 85.7196 57.6269C86.8193 54.3902 86.5224 53.7056 86.2456 53.5398L86.2475 53.5416ZM19.8054 36.943C20.2407 34.5567 21.7555 33.5194 21.5072 35.6986C21.2579 37.8768 20.2416 40.3043 19.4114 41.9648C19.4114 41.9648 19.3702 39.3293 19.8054 36.943ZM46.7574 54.9941C46.0655 53.9567 45.9831 52.726 46.4394 52.0891C46.8958 51.4531 47.6014 51.674 47.6976 52.463C47.7939 53.2511 46.7574 54.9941 46.7574 54.9941Z" fill="#69B1E2"/>
<path d="M28.7476 36.8807C28.5322 37.4021 29.0793 38.6448 30.4493 39.64C31.8184 40.6361 33.2086 40.034 33.8308 39.3907C34.453 38.7474 35.2833 37.2748 33.8308 36.2997C32.3783 35.3247 30.9469 36.3098 30.4282 36.6626C29.9096 37.0154 29.0692 36.1027 28.7476 36.8807Z" fill="#69B1E2"/>
<path d="M58.6247 36.8807C58.4093 37.4021 58.9564 38.6448 60.3264 39.64C61.6955 40.6361 63.0857 40.034 63.7079 39.3907C64.3301 38.7474 65.1604 37.2748 63.7079 36.2997C62.2554 35.3247 60.824 36.3098 60.3053 36.6626C59.7867 37.0154 58.9463 36.1027 58.6247 36.8807Z" fill="#69B1E2"/>
<path d="M89.7737 44.3429C89.8168 44.922 89.0204 45.3252 89.1863 45.7816C89.3522 46.238 89.8507 47.3166 91.3444 46.259C92.8381 45.2006 94.0001 43.7491 94.0001 41.5699C94.0001 39.3907 92.5449 38.5824 91.5808 38.5824C90.6168 38.5824 89.2688 40.1596 89.2688 42.0886C89.2688 43.52 89.7389 43.8801 89.7737 44.3429Z" fill="#FDB515"/>
<path d="M50.6941 75.3645C50.7097 75.0997 50.7262 74.7065 50.7262 74.362V69.6691H51.4245V72.1077H51.4401C51.6884 71.6742 52.1384 71.3938 52.7634 71.3938C53.7256 71.3938 54.4083 72.1956 54.4 73.375C54.4 74.7624 53.5258 75.4525 52.6589 75.4525C52.0971 75.4525 51.6481 75.2362 51.3594 74.7221H51.3356L51.3036 75.3636L50.6941 75.3645ZM51.4245 73.8085C51.4245 73.8964 51.4401 73.9853 51.4566 74.0651C51.5931 74.5544 52.0018 74.8916 52.515 74.8916C53.2527 74.8916 53.6944 74.2896 53.6944 73.3998C53.6944 72.6217 53.293 71.9555 52.5388 71.9555C52.0577 71.9555 51.6087 72.2845 51.4639 72.8215C51.4483 72.9022 51.4236 72.9984 51.4236 73.1102L51.4245 73.8085Z" fill="#69B1E2"/>
<path d="M55.4915 71.4818L56.3419 73.7764C56.4298 74.033 56.5261 74.3381 56.5902 74.5709H56.6058C56.6782 74.3381 56.7579 74.0412 56.8541 73.7608L57.6239 71.4827H58.3698L57.3114 74.2502C56.8056 75.5817 56.461 76.2635 55.9799 76.6804C55.6353 76.9856 55.2899 77.1056 55.1139 77.1377L54.937 76.5439C55.1139 76.488 55.3457 76.3753 55.5547 76.1993C55.7471 76.0472 55.9881 75.7741 56.1485 75.4131C56.1806 75.3407 56.2044 75.2848 56.2044 75.2445C56.2044 75.2041 56.1888 75.1482 56.1558 75.0603L54.7199 71.4827H55.4896L55.4915 71.4818Z" fill="#69B1E2"/>
<path d="M60.6572 72.6208C60.6572 72.1718 60.6489 71.7942 60.6251 71.4579H61.4755L61.5158 72.0353H61.5396C61.7321 71.7301 62.0849 71.369 62.7429 71.369C63.256 71.369 63.6574 71.6577 63.826 72.0912H63.8425C63.9791 71.8749 64.1394 71.7145 64.3236 71.6018C64.5399 71.4497 64.7892 71.369 65.1099 71.369C65.7596 71.369 66.4176 71.8098 66.4176 73.0616V75.3636H65.4554V73.2055C65.4554 72.5558 65.2309 72.1709 64.7571 72.1709C64.4199 72.1709 64.1715 72.4119 64.067 72.6923C64.0432 72.7885 64.0185 72.9086 64.0185 73.0213V75.3636H63.0563V73.101C63.0563 72.5558 62.84 72.1709 62.3827 72.1709C62.0134 72.1709 61.7651 72.4595 61.6771 72.7326C61.6368 72.8289 61.6212 72.9416 61.6212 73.0534V75.3636H60.659V72.6199L60.6572 72.6208Z" fill="#262262"/>
<path d="M69.658 75.3645L69.5938 74.9311H69.57C69.329 75.2362 68.9203 75.4525 68.4144 75.4525C67.6282 75.4525 67.1874 74.8834 67.1874 74.2896C67.1874 73.3026 68.0616 72.806 69.5059 72.8133V72.7491C69.5059 72.4925 69.4014 72.0673 68.7113 72.0673C68.3265 72.0673 67.9251 72.1874 67.6602 72.356L67.4678 71.7145C67.7565 71.5377 68.2623 71.37 68.88 71.37C70.1318 71.37 70.4919 72.1645 70.4919 73.0149V74.427C70.4919 74.7799 70.5084 75.1253 70.5478 75.3654H69.6571L69.658 75.3645ZM69.5297 73.4557C68.8314 73.4392 68.1661 73.5922 68.1661 74.186C68.1661 74.5709 68.4144 74.7478 68.7278 74.7478C69.121 74.7478 69.4096 74.4912 69.4976 74.2099C69.5214 74.1375 69.5297 74.0577 69.5297 73.9936V73.4557Z" fill="#262262"/>
<path d="M71.5348 72.6208C71.5348 72.1718 71.5265 71.7943 71.5027 71.4579H72.3687L72.4172 72.0435H72.4411C72.6097 71.7384 73.0349 71.37 73.6846 71.37C74.3664 71.37 75.072 71.8108 75.072 73.047V75.3654H74.0851V73.1597C74.0851 72.5979 73.8761 72.1727 73.3391 72.1727C72.946 72.1727 72.6729 72.4531 72.5694 72.7501C72.5373 72.838 72.529 72.959 72.529 73.0708V75.3654H71.5338V72.6218L71.5348 72.6208Z" fill="#262262"/>
<path d="M79.7254 69.6691V74.2658C79.7254 74.6671 79.741 75.0997 79.7575 75.3645H78.875L78.8347 74.7469H78.8191C78.5864 75.1803 78.1135 75.4525 77.5435 75.4525C76.6125 75.4525 75.8748 74.658 75.8748 73.4548C75.8665 72.1471 76.6849 71.3691 77.6233 71.3691C78.1612 71.3691 78.5461 71.5936 78.722 71.8822H78.7376V69.6682H79.7245L79.7254 69.6691ZM78.7385 73.0864C78.7385 73.0057 78.7302 72.9095 78.7147 72.8298C78.6267 72.4449 78.3133 72.1315 77.8643 72.1315C77.2301 72.1315 76.8773 72.6932 76.8773 73.4227C76.8773 74.1521 77.2301 74.658 77.856 74.658C78.2574 74.658 78.6102 74.3849 78.7064 73.9597C78.7302 73.8717 78.7385 73.7755 78.7385 73.671V73.0864Z" fill="#262262"/>
<path d="M81.8341 70.3674C81.8341 70.6643 81.6178 70.8971 81.2723 70.8971C80.9268 70.8971 80.7271 70.6643 80.7271 70.3674C80.7271 70.0705 80.9516 69.8295 81.2806 69.8295C81.6095 69.8295 81.8258 70.0623 81.8341 70.3674ZM80.783 75.3654V71.4589H81.7782V75.3654H80.783Z" fill="#262262"/>
<path d="M82.8376 72.7171C82.8376 72.1875 82.8294 71.8108 82.8056 71.458H83.6642L83.6963 72.2039H83.7284C83.9208 71.6504 84.3781 71.37 84.7951 71.37C84.8913 71.37 84.9472 71.3783 85.0278 71.3939V72.324C84.9481 72.3084 84.8592 72.2919 84.7392 72.2919C84.2654 72.2919 83.9446 72.5971 83.8567 73.0379C83.8402 73.1258 83.8246 73.2303 83.8246 73.343V75.3646H82.8376V72.7171Z" fill="#262262"/>
<path d="M86.7442 70.3675C86.7442 70.6644 86.5279 70.8972 86.1825 70.8972C85.837 70.8972 85.6372 70.6644 85.6372 70.3675C85.6372 70.0706 85.8617 69.8296 86.1907 69.8296C86.5197 69.8296 86.736 70.0624 86.7442 70.3675ZM85.6931 75.3655V71.4589H86.6883V75.3655H85.6931Z" fill="#262262"/>
</svg>
