<svg width="108" height="108" viewBox="0 0 108 108" fill="none" xmlns="http://www.w3.org/2000/svg">
<path d="M81.6338 14H26.3662C19.5365 14 14 19.5365 14 26.3662V81.6338C14 88.4635 19.5365 94 26.3662 94H81.6338C88.4635 94 94 88.4635 94 81.6338V26.3662C94 19.5365 88.4635 14 81.6338 14Z" fill="#FFBE00"/>
<path fill-rule="evenodd" clip-rule="evenodd" d="M87.4532 92.5349C85.7161 93.4688 83.7342 94 81.6338 94H26.3662C24.1384 94 22.0435 93.4028 20.2331 92.3609V91.7242C20.2331 88.8072 21.6101 86.1982 23.7465 84.5145V32.1088C23.7465 30.6523 25.1656 29.4605 26.4135 28.9683C27.9512 28.362 29.6314 28.5927 30.686 29.9469C32.7674 32.3377 34.802 34.7969 36.8222 37.2443H71.5186L77.5803 29.7218C78.462 28.6279 80.2429 28.523 81.4888 28.9252C83.3116 29.5136 84.2926 31.0806 84.2926 32.9647V44.262C86.2265 45.9476 87.4532 48.4261 87.4532 51.1795V92.5349Z" fill="white"/>
<path fill-rule="evenodd" clip-rule="evenodd" d="M87.4509 92.5362C86.6199 92.9827 85.7329 93.3366 84.8038 93.5847V51.1796C84.8038 48.8655 83.5812 46.8211 81.7508 45.6599V49.7473C81.7508 50.3143 81.2869 50.7784 80.7196 50.7784C80.1524 50.7784 79.6885 50.3143 79.6885 49.7473V44.8044C79.232 44.7022 78.758 44.6481 78.2721 44.6481C77.7972 44.6481 77.3338 44.7 76.887 44.7977V49.7473C76.887 50.3143 76.4231 50.7784 75.8559 50.7784C75.2887 50.7784 74.8248 50.3143 74.8248 49.7473V45.6405C72.9771 46.7979 71.7405 48.8525 71.7405 51.1796V81.224H69.0934V51.1796C69.0934 46.5779 72.5195 42.7425 76.9485 42.0966C77.9501 42.024 78.5942 42.0242 79.5957 42.0966C80.3074 42.2003 80.9932 42.387 81.6432 42.6455V32.9649C81.6432 32.3095 81.4423 31.7617 80.8106 31.4953C80.5286 31.3765 79.8922 31.2772 79.5975 31.4349L72.7829 39.8916H35.5724L35.1754 39.4105C33.0309 36.8124 30.8729 34.1945 28.661 31.6553L28.6314 31.6211L28.6043 31.5852C28.496 31.4424 28.3738 31.3515 28.1972 31.3155C27.9362 31.2619 27.6251 31.3353 27.3824 31.4311C27.1096 31.5386 26.5293 31.8853 26.3914 32.1796V83.0583C26.9351 82.8677 27.5018 82.7265 28.0859 82.6413C29.0874 82.5689 29.7316 82.5689 30.7332 82.6413C35.1621 83.2872 38.5884 87.1226 38.5884 91.7244V94H35.9411V91.7244C35.9411 88.1346 32.9993 85.1928 29.4096 85.1928C25.8198 85.1928 22.878 88.1346 22.878 91.7244V93.4951C21.9458 93.2191 21.0584 92.8362 20.2309 92.3598V91.7244C20.2309 88.8072 21.6079 86.1984 23.7442 84.5146V32.1088C23.7442 30.6525 25.1634 29.4605 26.4113 28.9685C27.9489 28.3621 29.6292 28.5929 30.6837 29.947C32.7652 32.3377 34.7997 34.7971 36.82 37.2445H71.5163L77.5782 29.7219C78.4596 28.6279 80.2406 28.5231 81.4865 28.9252C83.3092 29.5138 84.2903 31.0807 84.2903 32.9649V44.2621C86.2242 45.9477 87.4509 48.4263 87.4509 51.1796V92.5362Z" fill="black"/>
<path fill-rule="evenodd" clip-rule="evenodd" d="M78.3851 52.4516C80.0291 52.4516 81.3618 53.7843 81.3618 55.4283C81.3618 57.0722 80.0291 58.4048 78.3851 58.4048C76.7412 58.4048 75.4085 57.0722 75.4085 55.4283C75.4085 53.7843 76.7412 52.4516 78.3851 52.4516ZM79.585 39.636H76.3361C76.3361 39.636 75.4412 39.597 76.2193 38.4297C76.9975 37.2624 77.1417 37.0188 77.2328 36.872C77.9623 35.6949 79.5128 35.4444 79.5614 37.7206L79.585 39.636ZM28.197 39.636H31.4459C31.4459 39.636 32.3409 39.597 31.5627 38.4297C30.7846 37.2624 30.6404 37.0188 30.5493 36.872C29.8197 35.6949 28.2693 35.4444 28.2207 37.7206L28.197 39.636Z" fill="#FFBE00"/>
<path fill-rule="evenodd" clip-rule="evenodd" d="M29.2099 62.4696L36.4862 59.3957C36.7549 59.2822 37.0665 59.4088 37.18 59.6774C37.2934 59.946 37.167 60.2576 36.8982 60.371L29.6221 63.4451C29.3534 63.5585 29.0417 63.4319 28.9283 63.1634C28.8148 62.8948 28.9413 62.5831 29.2099 62.4696ZM27.8276 57.8023L36.4657 56.635C36.7546 56.5959 37.0222 56.7998 37.0613 57.0888C37.1004 57.3777 36.8965 57.6452 36.6075 57.6843L27.9693 58.8516C27.6804 58.8906 27.4129 58.6867 27.3738 58.3978C27.3347 58.109 27.5386 57.8414 27.8276 57.8023ZM28.43 53.0899L35.6673 53.4401C35.9585 53.4542 36.1846 53.7033 36.1705 53.9946C36.1564 54.2858 35.9074 54.5119 35.6161 54.4977L28.3787 54.1476C28.0875 54.1334 27.8614 53.8844 27.8756 53.5932C27.8896 53.3018 28.1386 53.0757 28.43 53.0899ZM47.341 56.8507C47.2741 57.6585 47.5738 58.7197 47.9849 59.4012C49.2561 61.5087 51.3218 61.646 53.4627 61.6545V57.0441C52.9971 56.8675 52.4789 56.553 52.1716 56.3702C51.675 56.0748 51.1821 55.762 50.702 55.4401C50.3789 55.2238 50.292 54.784 50.5082 54.4608C50.7244 54.1378 51.1645 54.0506 51.4875 54.267C51.9441 54.5725 53.5545 55.6288 54.0552 55.7608C54.3036 55.7491 54.4178 55.7239 54.6677 55.6036C55.3785 55.2614 56.1894 54.6228 56.8094 54.1407C57.1162 53.9019 57.5613 53.9575 57.8 54.2645C58.0386 54.5715 57.983 55.0164 57.676 55.2552C56.9653 55.8079 56.0943 56.4838 55.2798 56.8758C55.1337 56.946 55.0024 57.0006 54.8745 57.0427V61.6522C56.9053 61.6284 58.8368 61.4087 60.0475 59.4012C60.4586 58.7197 60.7583 57.6585 60.6914 56.8507C60.6593 56.4633 60.9492 56.1212 61.3366 56.0891C61.7241 56.057 62.0663 56.3468 62.0984 56.7342C62.1899 57.8397 61.821 59.1945 61.2566 60.1303C59.7374 62.649 56.7484 63.0686 54.0162 63.0686C51.284 63.0686 48.295 62.649 46.7758 60.1303C46.2114 59.1945 45.8425 57.8397 45.934 56.7342C45.9661 56.3468 46.3083 56.057 46.6957 56.0891C47.0832 56.1212 47.3731 56.4633 47.341 56.8507ZM70.2954 50.896C67.557 51.0151 63.7948 51.3884 61.5028 52.4946C60.5885 52.9082 59.6158 53.049 59.3482 52.3341C59.0807 51.6193 59.0903 50.9141 60.1459 50.4276C61.068 50.0027 63.2895 48.7907 70.2954 48.569V50.896ZM34.9216 50.8168C34.9216 50.8168 43.1755 50.5588 47.1055 52.4558C48.0199 52.8692 48.9926 53.01 49.2602 52.2952C49.5277 51.5805 49.5181 50.8751 48.4625 50.3886C47.407 49.9023 44.6491 48.3845 34.9604 48.5013C34.9604 48.5013 33.4331 48.4625 33.4428 49.5811C33.4526 50.6998 34.1431 50.7776 34.9216 50.8168Z" fill="black"/>
<path d="M69.0933 72.0129H26.3913V76.9934H69.0933V72.0129Z" fill="#FFBE00"/>
<path d="M43.6426 93.0249C51.1211 93.0249 57.1837 86.9624 57.1837 79.4839C57.1837 72.0054 51.1211 65.9429 43.6426 65.9429C36.1641 65.9429 30.1016 72.0054 30.1016 79.4839C30.1016 86.9624 36.1641 93.0249 43.6426 93.0249Z" fill="black"/>
<path d="M43.6426 90.6123C49.7887 90.6123 54.771 85.6299 54.771 79.4839C54.771 73.3379 49.7887 68.3555 43.6426 68.3555C37.4966 68.3555 32.5143 73.3379 32.5143 79.4839C32.5143 85.6299 37.4966 90.6123 43.6426 90.6123Z" fill="#FFBE00"/>
<path fill-rule="evenodd" clip-rule="evenodd" d="M35.8908 76.248C36.0602 76.0521 36.2602 75.8886 36.4897 75.7584C36.8031 75.5807 37.1417 75.4933 37.5018 75.4933H37.7069C38.0051 75.4933 38.2913 75.5537 38.5623 75.6782C38.827 75.8 39.0584 75.9678 39.2575 76.1804C39.4604 76.3967 39.6148 76.6479 39.7236 76.9238C39.8377 77.2134 39.893 77.5161 39.893 77.8276V83.1538C39.893 83.2511 39.8139 83.3303 39.7166 83.3303H38.8964C38.7992 83.3303 38.7199 83.2511 38.7199 83.1538V77.7787C38.7199 77.6284 38.6944 77.4844 38.6389 77.3446C38.5881 77.2167 38.5147 77.097 38.4208 76.9962C38.3281 76.8968 38.2207 76.8193 38.0974 76.762C37.974 76.7047 37.8429 76.6781 37.7069 76.6781H37.1601C37.0251 76.6781 36.8943 76.705 36.7718 76.7619C36.6482 76.8196 36.5412 76.8977 36.4478 76.9969C36.3531 77.0976 36.2817 77.2176 36.2302 77.3456C36.1738 77.485 36.1494 77.6284 36.1494 77.7787V83.1538C36.1494 83.2511 36.0702 83.3303 35.973 83.3303H35.1504C35.0532 83.3303 34.974 83.2511 34.974 83.1538V75.8141C34.974 75.7169 35.0532 75.6377 35.1504 75.6377H35.4238C35.4876 75.6377 35.5422 75.6686 35.5751 75.7232L35.8908 76.248ZM42.3584 79.7315V81.1892C42.3584 81.3396 42.3828 81.4829 42.4391 81.6225C42.4908 81.7503 42.5622 81.8703 42.6569 81.971C42.7503 82.0701 42.8573 82.1485 42.981 82.206C43.1034 82.263 43.2342 82.2899 43.3691 82.2899H43.916C44.0519 82.2899 44.1832 82.2634 44.3065 82.206C44.4298 82.1487 44.5373 82.0713 44.63 81.9717C44.7238 81.8709 44.7972 81.7513 44.8479 81.6233C44.9032 81.4836 44.9289 81.3397 44.9289 81.1892V80.7024C44.9289 80.6484 44.9505 80.602 44.992 80.5673C45.0333 80.5325 45.0829 80.5192 45.136 80.5286L45.9564 80.6729C46.0415 80.6878 46.1023 80.7604 46.1023 80.8466V81.1403C46.1023 81.4518 46.0469 81.7545 45.9327 82.0443C45.8238 82.32 45.6694 82.5712 45.4666 82.7877C45.2674 83.0001 45.0362 83.1681 44.7712 83.2897C44.5005 83.4142 44.2142 83.4746 43.916 83.4746H43.3691C43.0713 83.4746 42.7848 83.4142 42.514 83.2897C42.2498 83.1684 42.0163 82.9999 41.8181 82.7873C41.6165 82.5707 41.4622 82.3194 41.3527 82.0449C41.2374 81.7554 41.1831 81.452 41.1831 81.1403V77.8276C41.1831 77.5161 41.2374 77.2127 41.3527 76.9231C41.4622 76.6485 41.6165 76.3974 41.8181 76.1808C42.0163 75.968 42.2498 75.7995 42.514 75.6782C42.7848 75.5537 43.0713 75.4933 43.3691 75.4933H43.916C44.2142 75.4933 44.5005 75.5537 44.7712 75.6782C45.0362 75.8 45.2674 75.9678 45.4666 76.1804C45.6694 76.3967 45.8238 76.6479 45.9327 76.9238C46.0469 77.2134 46.1023 77.5161 46.1023 77.8276V79.555C46.1023 79.6522 46.0231 79.7315 45.9257 79.7315H42.3584ZM52.3113 81.1403C52.3113 81.4518 52.256 81.7545 52.1418 82.0443C52.033 82.32 51.8785 82.5712 51.6756 82.7877C51.4765 83.0001 51.2452 83.1681 50.9804 83.2897C50.7095 83.4142 50.4232 83.4746 50.1252 83.4746H49.5782C49.2805 83.4746 48.9939 83.4142 48.7232 83.2897C48.459 83.1684 48.2254 82.9999 48.0272 82.7873C47.8256 82.5707 47.6713 82.3194 47.5618 82.0449C47.4465 81.7554 47.3921 81.452 47.3921 81.1403V77.8276C47.3921 77.5161 47.4465 77.2127 47.5618 76.9231C47.6713 76.6485 47.8256 76.3974 48.0272 76.1808C48.2254 75.968 48.459 75.7995 48.7232 75.6782C48.9939 75.5537 49.2805 75.4933 49.5782 75.4933H50.1252C50.4232 75.4933 50.7095 75.5539 50.9804 75.6782C51.2452 75.8 51.4765 75.9678 51.6756 76.1804C51.8785 76.3967 52.033 76.6479 52.1418 76.9238C52.256 77.2134 52.3113 77.5161 52.3113 77.8276V81.1403ZM42.3584 78.691H44.9289V77.7787C44.9289 77.6284 44.9032 77.4844 44.8479 77.3446C44.7972 77.2167 44.7238 77.097 44.63 76.9962C44.5373 76.8968 44.4298 76.8193 44.3065 76.7619C44.1832 76.7045 44.0519 76.6781 43.916 76.6781H43.3691C43.2342 76.6781 43.1034 76.705 42.981 76.7619C42.8573 76.8196 42.7503 76.8978 42.6569 76.9969C42.5622 77.0976 42.4908 77.2178 42.4391 77.3456C42.3828 77.485 42.3584 77.6285 42.3584 77.7787V78.691ZM51.138 77.7787C51.138 77.6284 51.1123 77.4844 51.057 77.3446C51.0064 77.2166 50.9328 77.097 50.8389 76.9962C50.7463 76.8968 50.639 76.8193 50.5156 76.7619C50.3921 76.7045 50.2611 76.6781 50.1252 76.6781H49.5782C49.4434 76.6781 49.3126 76.705 49.1901 76.7619C49.0663 76.8196 48.9593 76.8977 48.8659 76.9969C48.7712 77.0976 48.6998 77.2176 48.6483 77.3456C48.5919 77.485 48.5676 77.6284 48.5676 77.7787V81.1892C48.5676 81.3396 48.5919 81.4829 48.6483 81.6225C48.6998 81.7503 48.7712 81.8703 48.8659 81.971C48.9593 82.0703 49.0663 82.1485 49.1901 82.206C49.3126 82.263 49.4434 82.2899 49.5782 82.2899H50.1252C50.2611 82.2899 50.3921 82.2634 50.5156 82.206C50.639 82.1487 50.7463 82.0713 50.8389 81.9717C50.9328 81.8709 51.0064 81.7513 51.057 81.6233C51.1123 81.4836 51.138 81.3397 51.138 81.1892V77.7787Z" fill="black"/>
</svg>
