<svg width="108" height="108" viewBox="0 0 108 108" fill="none" xmlns="http://www.w3.org/2000/svg">
<path d="M87.4857 65.5673C87.4003 65.6136 87.307 65.6011 87.2162 65.6011C85.9737 65.6017 84.731 65.6017 83.4884 65.6015C83.4273 65.6015 83.3651 65.6057 83.3055 65.5959C83.1205 65.5658 82.9833 65.4705 82.9291 65.2841C82.8524 65.0204 82.778 64.7561 82.7082 64.4905C82.4625 63.5563 82.2199 62.6211 81.9748 61.6866C81.6653 60.5062 81.3561 59.3258 81.0443 58.146C80.7454 57.0156 80.442 55.8863 80.1433 54.7559C79.899 53.8317 79.6584 52.9065 79.4165 51.9817C79.3522 51.7359 79.2897 51.4896 79.2243 51.2441C79.2091 51.1868 79.2104 51.122 79.1606 51.0775C79.1021 51.0635 79.0989 51.1081 79.0891 51.1451C78.8842 51.9218 78.6795 52.6985 78.4748 53.4753C78.1249 54.8028 77.7746 56.1301 77.4254 57.4578C77.0193 59.0012 76.6144 60.5448 76.2085 62.0884C75.9422 63.1012 75.6751 64.1138 75.4084 65.1266C75.4058 65.1363 75.4019 65.146 75.399 65.1556C75.2927 65.512 75.1798 65.6008 74.8118 65.6012C73.5284 65.6026 72.2451 65.6018 70.9617 65.6018C70.9209 65.6018 70.8801 65.6032 70.8395 65.6009C70.6117 65.5876 70.4559 65.4784 70.39 65.2555C70.2948 64.9337 70.2004 64.6118 70.1081 64.2893C69.7589 63.0671 69.4118 61.8444 69.062 60.6222C68.6314 59.1165 68.199 57.6113 67.7674 56.1058C67.4143 54.8741 67.0614 53.6424 66.7086 52.4107C66.6891 52.3423 66.6807 52.2689 66.6509 52.2055C66.6032 52.1039 66.6339 51.9635 66.5045 51.9018C66.3991 51.9794 66.4272 52.1064 66.4006 52.2092C66.2289 52.8733 65.9828 53.5063 65.6266 54.0931C65.0869 54.9827 64.3418 55.6646 63.4578 56.2004C62.9773 56.4916 62.4662 56.7163 61.9245 56.869C61.9049 56.8745 61.8846 56.8777 61.8654 56.8844C61.7936 56.9096 61.7674 56.9628 61.8024 57.0259C61.8466 57.1059 61.8964 57.1829 61.9447 57.2607C62.7723 58.5916 63.5997 59.9226 64.4276 61.2533C65.1373 62.3938 65.8474 63.534 66.5571 64.6745C66.6055 64.7522 66.6559 64.8292 66.6969 64.9108C66.8605 65.2372 66.6784 65.5675 66.3187 65.5991C66.2581 65.6044 66.1967 65.6015 66.1356 65.6015C64.8013 65.6018 63.4669 65.6018 62.1327 65.602C62.1022 65.602 62.0715 65.6002 62.0411 65.6023C61.8119 65.6183 61.6522 65.5131 61.5392 65.3209C61.4257 65.1279 61.3083 64.9371 61.194 64.7446C60.2173 63.0998 59.2411 61.4545 58.2643 59.8097C57.854 59.1186 57.4427 58.4281 57.032 57.7372C57.0009 57.6848 56.9708 57.6316 56.9402 57.5788C56.9017 57.5122 56.8479 57.4734 56.7671 57.4775C56.7164 57.4801 56.6654 57.4775 56.6143 57.4775C55.7485 57.4775 54.8829 57.4775 54.0171 57.4778C53.956 57.4778 53.8944 57.4758 53.834 57.4824C53.7908 57.4871 53.7598 57.5197 53.7573 57.5632C53.752 57.6544 53.7517 57.7461 53.7517 57.8374C53.7517 60.1893 53.7518 62.5412 53.752 64.893C53.752 64.9846 53.756 65.0766 53.7496 65.1678C53.7323 65.4141 53.5945 65.5632 53.3529 65.596C53.2828 65.6055 53.2107 65.6017 53.1394 65.6017C52.0393 65.602 50.9393 65.602 49.8393 65.6017C49.7681 65.6017 49.696 65.6052 49.6257 65.5957C49.4004 65.5653 49.2586 65.4223 49.2303 65.1956C49.2204 65.1152 49.2251 65.0329 49.2251 64.9516C49.2253 60.5329 49.2259 56.1144 49.2254 51.6957C49.2254 51.5949 49.2442 51.4919 49.2042 51.3938C49.2022 51.3889 49.1874 51.3894 49.1735 51.3862C49.1174 51.3999 49.1139 51.4587 49.0968 51.5001C48.3806 53.2282 47.6669 54.9575 46.9516 56.6859C45.7853 59.504 44.615 62.3204 43.4548 65.1411C43.3184 65.4726 43.1968 65.6196 42.7705 65.6046C42.3737 65.5907 41.9762 65.6018 41.579 65.6018C41.5179 65.6018 41.4568 65.6018 41.3956 65.6014C41.168 65.5994 41.0109 65.4975 40.9239 65.2828C40.8016 64.9814 40.6712 64.6832 40.5469 64.3825C39.6966 62.3243 38.8477 60.2656 37.9971 58.2076C37.0921 56.0186 36.1859 53.8303 35.2799 51.6418C35.2533 51.5777 35.223 51.5151 35.1966 51.4566C35.126 51.4529 35.1253 51.4974 35.1245 51.5356C35.1222 51.6476 35.123 51.7596 35.123 51.8715C35.123 56.2189 35.123 60.5662 35.1231 64.9137C35.1231 64.9952 35.1269 65.0769 35.1216 65.158C35.1051 65.4081 34.9482 65.5714 34.6989 65.5986C34.6383 65.6052 34.5768 65.6018 34.5157 65.6018C33.4157 65.602 32.3156 65.6022 31.2156 65.6018C31.1343 65.6018 31.0517 65.6049 30.9719 65.5922C30.7807 65.5617 30.6366 65.4243 30.6059 65.2324C30.5868 65.1126 30.5871 64.9892 30.5871 64.8673C30.5862 62.0777 30.5863 59.2879 30.5863 56.4983C30.5863 53.5254 30.5862 50.5524 30.5866 47.5797C30.5866 47.1751 30.6123 47.2055 30.2022 47.2055C28.5828 47.2055 26.9633 47.206 25.3438 47.2055C25.0339 47.2055 25.027 47.1832 25.0271 47.5236C25.0287 51.9218 25.0285 56.3202 25.0287 60.7184C25.0287 62.1234 25.0287 63.5285 25.0284 64.9334C25.0284 65.0149 25.0322 65.0968 25.0259 65.1777C25.0086 65.397 24.8641 65.5562 24.6463 65.5933C24.5767 65.6051 24.5042 65.6017 24.4331 65.6017C23.3229 65.6022 22.2128 65.6022 21.1025 65.602C21.0414 65.602 20.9799 65.6051 20.9194 65.5982C20.6803 65.5708 20.5292 65.4242 20.5024 65.1849C20.49 65.0741 20.4945 64.9612 20.4945 64.8494C20.4942 59.1072 20.4942 53.365 20.4942 47.6227C20.4942 47.5819 20.4936 47.5413 20.4943 47.5005C20.5 47.2002 20.4902 47.2047 20.1846 47.2049C18.341 47.206 16.4974 47.2057 14.654 47.2057C14.5726 47.2057 14.4907 47.2098 14.4097 47.2032C14.1639 47.1833 14.018 47.035 14.0033 46.7933C13.9997 46.7325 14.0019 46.6712 14.0019 46.6101C14.0019 45.6022 14.0019 44.5942 14.0019 43.5863C14.0019 43.5354 14 43.4844 14.0026 43.4337C14.0139 43.1885 14.1549 43.0346 14.3949 43.0083C14.4655 43.0007 14.5373 43.005 14.6086 43.005C21.769 43.005 28.9293 43.005 36.0898 43.005C36.1101 43.005 36.1307 43.007 36.1509 43.0047C36.4408 42.9721 36.6039 43.1186 36.7074 43.3756C36.996 44.0923 37.2918 44.8061 37.5865 45.5203C38.3388 47.3436 39.0923 49.1664 39.8448 50.9895C40.5778 52.7659 41.3102 54.5424 42.0433 56.3188C42.0702 56.3839 42.1013 56.4471 42.1297 56.5098C42.22 56.4838 42.2355 56.4118 42.2627 56.3462C42.5183 55.7256 42.7754 55.1056 43.0313 54.4851C43.8957 52.3893 44.7597 50.2932 45.6241 48.1972C46.2714 46.6278 46.9192 45.0586 47.567 43.4894C47.598 43.4141 47.6272 43.3379 47.6634 43.265C47.7476 43.0959 47.8807 43.0004 48.0759 43.0048C48.137 43.0062 48.1982 43.0048 48.2593 43.0048C51.9362 43.0048 55.6132 42.9999 59.2901 43.0079C60.4523 43.0105 61.5749 43.23 62.639 43.7171C63.2361 43.9904 63.7791 44.3429 64.277 44.7696C64.3535 44.8351 64.4062 44.9525 64.5384 44.9344C64.5717 44.827 64.5084 44.7369 64.4825 44.6411C64.3975 44.3271 64.3077 44.0145 64.2195 43.7015C64.2058 43.6526 64.1868 43.6045 64.1787 43.5547C64.1279 43.2442 64.3153 43.0146 64.631 43.0059C64.8345 43.0004 65.0383 43.0047 65.2421 43.0047C66.393 43.0047 67.544 43.012 68.6949 43.0005C69.0737 42.9967 69.2339 43.1014 69.3439 43.4901C69.8288 45.2023 70.3275 46.9106 70.8216 48.6202C71.2563 50.1244 71.6915 51.6282 72.1267 53.1321C72.4629 54.2945 72.7996 55.4567 73.1361 56.6189C73.1501 56.6676 73.161 56.7174 73.1785 56.7646C73.1839 56.7791 73.2062 56.7941 73.2224 56.7959C73.2375 56.7978 73.2652 56.7863 73.2694 56.7742C73.3075 56.6694 73.3454 56.5643 73.3761 56.4572C74.0081 54.2477 74.6391 52.0378 75.2704 49.8281C75.7953 47.9903 76.3203 46.1527 76.8454 44.3151C76.9264 44.0317 77.008 43.7484 77.0905 43.4653C77.1103 43.397 77.13 43.3276 77.1594 43.2632C77.2278 43.1128 77.3453 43.0236 77.5118 43.0074C77.5725 43.0016 77.6339 43.0045 77.695 43.0044C78.6626 43.0044 79.6303 43.0044 80.5978 43.0044C80.6487 43.0044 80.6997 43.0034 80.7506 43.0056C80.9471 43.0135 81.0743 43.1215 81.1404 43.2972C81.1938 43.4396 81.2311 43.5883 81.2728 43.735C81.6629 45.1039 82.0509 46.4734 82.442 47.842C82.8862 49.3961 83.3344 50.9489 83.7775 52.5033C84.1733 53.8919 84.5644 55.2817 84.9583 56.6708C84.9748 56.7289 84.999 56.7848 85.0193 56.8413C85.0972 57.1223 85.1736 57.4043 85.2539 57.685C85.9242 60.0275 86.5964 62.3696 87.2642 64.7128C87.3447 64.9953 87.443 65.2747 87.4857 65.5673ZM53.7508 50.2334C53.7508 51.1594 53.7514 52.0854 53.7503 53.0113C53.75 53.2906 53.7489 53.2722 54.0227 53.2722C55.4886 53.2718 56.9544 53.2722 58.4203 53.2704C58.583 53.2702 58.7461 53.2646 58.9083 53.2524C59.5281 53.2056 60.1089 53.0382 60.6204 52.6733C61.2241 52.2425 61.6287 51.6771 61.7767 50.9407C61.8313 50.6696 61.8411 50.3963 61.8389 50.121C61.8359 49.7291 61.7595 49.3524 61.6026 48.9952C61.249 48.1909 60.623 47.6872 59.8065 47.4067C59.4288 47.277 59.0357 47.2234 58.6359 47.2234C57.0988 47.2234 55.5617 47.2234 54.0246 47.2234C53.9838 47.2234 53.9431 47.2222 53.9025 47.224C53.7836 47.2292 53.7572 47.2526 53.7518 47.3641C53.7483 47.4351 53.7508 47.5065 53.7508 47.5777C53.7508 48.4629 53.7506 49.3482 53.7508 50.2334Z" fill="black"/>
<path d="M87.4857 65.5673C87.443 65.2747 87.3447 64.9953 87.2642 64.7128C86.5964 62.3696 85.9242 60.0275 85.2539 57.685C85.1736 57.4043 85.0972 57.1223 85.0193 56.8413C85.0944 56.7658 85.1169 56.6685 85.1444 56.5695C85.3727 55.7468 85.6035 54.9248 85.8357 54.1033C86.2447 52.6555 86.6568 51.2085 87.0647 49.7603C87.4864 48.2633 87.905 46.7655 88.3247 45.2681C88.4864 44.6906 88.6472 44.1129 88.8096 43.5356C88.8316 43.4574 88.8548 43.3787 88.8864 43.3041C88.9648 43.1191 89.1023 43.0126 89.3086 43.0073C89.3697 43.0057 89.4308 43.0064 89.4917 43.0064C90.795 43.0064 92.098 43.0065 93.4012 43.0068C93.4623 43.0068 93.5236 43.0041 93.5844 43.0088C93.8314 43.028 94.0001 43.2016 94 43.448C94 43.5379 93.9793 43.6298 93.9544 43.7171C93.5563 45.1152 93.1552 46.5123 92.7562 47.9103C92.3516 49.3275 91.949 50.7451 91.5448 52.1624C91.1961 53.3845 90.8463 54.6063 90.497 55.8284C89.8014 58.2623 89.106 60.6962 88.4105 63.1302C88.2261 63.7754 88.042 64.4206 87.8573 65.0657C87.8348 65.144 87.8153 65.2237 87.7843 65.2986C87.7282 65.4339 87.6504 65.5497 87.4857 65.5673Z" fill="#FDC400"/>
</svg>
