<svg width="109" height="108" viewBox="0 0 109 108" fill="none" xmlns="http://www.w3.org/2000/svg">
<path fill-rule="evenodd" clip-rule="evenodd" d="M74.4145 62.4683L78.5641 62.4765V48.0351C79.194 48.0063 81.557 48.0021 82.1004 48.0927C84.7804 48.5332 84.3934 51.6825 83.2078 52.4729C82.1374 53.1892 80.993 52.831 80.0791 52.9669V56.923C80.6101 56.9889 81.6681 56.9436 82.2404 56.9272C84.1546 56.8778 85.7066 56.462 86.9993 55.0952C88.3907 53.6214 88.7571 50.3857 88.082 48.0227C86.814 43.5931 82.3886 44.1448 78.8317 44.1448C77.4074 44.1448 75.8389 44.083 74.431 44.1448L74.4186 62.4641L74.4145 62.4683ZM42.0736 62.4477H46.2068C46.318 62.423 46.3056 62.3653 46.3797 62.1595C46.4209 62.0442 46.4621 61.9454 46.5032 61.8343L49.7842 53.2468C49.9448 52.8187 50.1095 52.3247 50.2947 51.9212L54.4155 62.46H58.6105C58.5816 62.2336 58.277 61.5214 58.1741 61.2538L52.209 45.5403C51.999 44.9887 51.929 44.8405 51.5791 44.5235C50.9287 43.9266 49.776 43.8978 49.105 44.4453C48.7633 44.7252 48.6274 44.9434 48.4298 45.4539C47.5036 47.8539 46.6226 50.3075 45.7046 52.7281C45.5564 53.1192 42.2013 61.9578 42.0736 62.4477ZM60.5865 62.4436H64.8267V55.8033L71.1623 55.7909L71.1705 51.9048L64.8308 51.8924V48.1051L72.4632 48.0968V44.1654C71.9074 44.1201 69.4786 44.1571 68.7211 44.1571H64.9378C63.744 44.1571 62.6284 44.1365 61.7639 44.7376C61.0187 45.2522 60.6153 46.1043 60.5947 47.3517C60.5494 49.8464 60.5947 52.3782 60.5947 54.877V62.4477L60.5865 62.4436ZM90.3503 62.5259H94.4999V44.1448H90.3503V62.5259Z" fill="#333333"/>
<path fill-rule="evenodd" clip-rule="evenodd" d="M38.4098 54.3871C38.7144 56.4867 35.9397 56.746 35.7257 54.7865L32.7617 54.7741C32.7081 55.5357 33.2145 56.5731 33.5521 57.0342C33.8114 57.3965 33.9802 57.5817 34.2848 57.837C34.4248 57.9563 35.0217 58.4874 35.2481 58.331C35.3799 58.5574 35.384 58.545 35.6557 58.6397C37.7882 59.3725 40.0523 58.4709 41.0651 56.4826C41.345 55.9309 41.7443 54.4283 41.4973 54.1196L41.4767 54.4201C40.958 54.4201 38.7268 54.4818 38.4015 54.3871H38.4098Z" fill="#6CC5C4"/>
<path fill-rule="evenodd" clip-rule="evenodd" d="M33.0375 45.4539C33.128 45.5774 33.198 45.5897 33.2968 45.7626C33.3586 45.8697 33.4286 46.0138 33.4656 46.162C33.5891 46.6807 33.3915 46.7918 33.3709 47.1253C33.3709 47.2858 33.6262 47.6934 33.7167 47.8539C33.8485 48.0886 33.972 48.3315 34.0996 48.5538C34.3589 49.0025 34.6059 49.5212 34.8735 49.9452H35.1493C35.2234 49.9329 35.1699 49.9535 35.2481 49.9123C35.6516 49.6859 36.2609 48.8831 36.4873 48.455C37.2489 47.0347 37.1459 45.3222 36.2732 43.9801C35.9439 43.4738 35.3634 42.8727 34.7747 42.5845C34.75 42.778 34.4701 43.1568 34.363 43.3379L33.2927 45.1122C33.1075 45.4168 33.2145 45.3633 33.0334 45.4457L33.0375 45.4539Z" fill="#DBC27E"/>
<path fill-rule="evenodd" clip-rule="evenodd" d="M33.3421 61.5296C33.585 61.6861 33.8114 62.1142 33.8073 62.5506C33.8073 63.1187 33.5356 63.3286 33.3174 63.5962C33.4615 63.7197 33.9349 64.5637 34.0708 64.7942C34.2025 65.0165 34.7459 65.8522 34.7871 66.0374C35.3511 65.7534 35.9397 65.1523 36.2609 64.6666C36.6355 64.0985 36.9278 63.3822 36.9854 62.5506C37.0965 61.0109 36.335 59.4137 35.1576 58.6521L34.8735 58.6438C34.8159 58.8373 34.6018 59.1584 34.4865 59.3766C34.3589 59.6195 34.2272 59.8336 34.0996 60.0723C33.9555 60.344 33.3833 61.2868 33.3421 61.5296Z" fill="#9090D5"/>
<path fill-rule="evenodd" clip-rule="evenodd" d="M20.8808 49.9699C21.206 50.0111 21.1608 49.9946 21.5025 49.3524C21.7124 48.9572 22.6057 47.4258 22.6428 47.2282C22.4164 47.0182 22.1735 46.6519 22.2023 46.1578C22.2352 45.6597 22.511 45.4127 22.7498 45.1822C22.7086 44.9928 21.8153 43.5973 21.6013 43.2268C21.4983 43.0497 21.3172 42.671 21.1978 42.6545C21.0496 42.6751 20.9014 42.8068 20.7779 42.9015C19.0818 44.2024 18.5384 46.516 19.5552 48.455C19.8599 49.0354 20.3992 49.6818 20.8808 49.9699Z" fill="#8ACD80"/>
<path fill-rule="evenodd" clip-rule="evenodd" d="M35.3018 50.4886C35.31 50.715 36.6974 52.9792 36.9114 53.3662C37.0802 53.3415 37.1584 53.3333 37.2819 53.4115C37.5989 53.4691 37.8089 53.572 37.9982 53.7573C38.1135 53.8684 38.1505 53.8808 38.2452 54.0372C38.2988 54.1237 38.3687 54.3213 38.414 54.3913C38.7392 54.4859 40.9705 54.4242 41.4892 54.4242L41.5098 54.1237C41.5674 53.5062 41.1228 52.5182 40.847 52.1147C40.4641 51.5548 40.1019 51.1596 39.5132 50.7891C38.2123 49.9658 36.8332 49.8917 35.3059 50.4968L35.3018 50.4886Z" fill="#81E6EA"/>
<path fill-rule="evenodd" clip-rule="evenodd" d="M21.1937 65.9963C21.3296 65.951 21.5025 65.5722 21.5766 65.4529L22.3052 64.2343C22.4081 64.0614 22.5563 63.7815 22.6798 63.6292C22.4164 63.378 22.0294 63.1846 21.9965 62.5135C21.9635 61.8796 22.3011 61.5461 22.5975 61.295C22.4246 60.8998 21.7206 59.673 21.4407 59.179C21.1608 58.685 21.2143 58.5944 20.8726 58.6562C20.4733 58.8702 19.8064 59.6442 19.5594 60.1464C19.2012 60.8627 18.9995 61.5461 19.0448 62.4765C19.0859 63.2916 19.3618 64.0367 19.7282 64.5966C20.0451 65.0741 20.6585 65.774 21.1896 66.0004L21.1937 65.9963Z" fill="#FC8080"/>
<path fill-rule="evenodd" clip-rule="evenodd" d="M20.7573 58.3474C20.7656 58.1869 19.8352 56.6596 19.687 56.4043C19.5264 56.1326 19.4276 55.8403 19.2712 55.8527C18.7401 55.9021 18.5096 55.9968 18.0485 55.6839C17.7645 55.4904 17.5463 55.194 17.4598 54.7412L17.4351 54.4324H14.4999C14.4588 57.5405 17.4681 59.6277 20.3498 58.6479C20.5844 58.5697 20.6956 58.5656 20.7573 58.3515V58.3474Z" fill="#FD81F8"/>
<path fill-rule="evenodd" clip-rule="evenodd" d="M14.4999 54.4283H17.4351L17.4598 54.7371C17.4187 54.1772 17.608 53.8314 17.9003 53.5432C18.2009 53.2427 18.6125 53.1851 19.1477 53.2262C19.2959 53.1521 19.4935 52.7281 19.5882 52.5676L20.7656 50.5092C20.3004 50.1963 19.1889 50.044 18.5096 50.1017C17.6821 50.1758 17.0441 50.4433 16.4595 50.8221C15.5168 51.4396 14.5123 52.7199 14.4999 54.4283Z" fill="#D9B1D9"/>
<path fill-rule="evenodd" clip-rule="evenodd" d="M21.1978 42.6545C21.3172 42.6751 21.4983 43.0497 21.6013 43.2268C21.8153 43.5973 22.7086 44.9928 22.7498 45.1822C23.1821 45.0175 23.4867 44.8199 24.0383 45.0957C24.3677 45.2604 24.6517 45.5568 24.7423 45.9932C24.9893 46.0467 25.9361 45.9932 26.2408 45.9891C26.7595 45.9767 27.307 45.9602 27.8257 45.9602C27.6405 44.3094 26.6689 43.1527 25.5986 42.564C24.9605 42.214 24.2154 41.9835 23.355 42C22.7704 42.0123 21.4654 42.2964 21.1978 42.6504L21.1978 42.6545Z" fill="#8BB184"/>
<path fill-rule="evenodd" clip-rule="evenodd" d="M28.2786 45.6844L28.2456 45.952L30.8638 46.0014C31.0532 45.598 31.2714 45.3345 31.716 45.1863C32.2224 45.0175 32.7369 45.1822 33.0375 45.4498C33.2186 45.3674 33.1075 45.4168 33.2968 45.1163L34.3672 43.342C34.4742 43.1609 34.7541 42.7821 34.7788 42.5887C34.3219 42.2552 33.3668 42.0123 32.6834 42C31.2261 41.9753 29.8676 42.671 29.0648 43.7743C28.7931 44.1448 28.2456 45.0793 28.2786 45.6844Z" fill="#F9DF8E"/>
<path fill-rule="evenodd" clip-rule="evenodd" d="M22.6839 63.6292C22.5563 63.7815 22.4122 64.0614 22.3093 64.2343L21.5807 65.4529C21.5066 65.5722 21.3337 65.9551 21.1978 65.9963C21.6383 66.3462 22.6592 66.6138 23.3591 66.6261C24.2318 66.6385 24.9564 66.4244 25.6027 66.0662C26.6772 65.4776 27.661 64.2878 27.8257 62.67L24.7011 62.6288C24.627 63.1022 24.3594 63.4274 24.0425 63.6127C23.5196 63.9173 23.1985 63.8021 22.6839 63.6333V63.6292Z" fill="#CB9999"/>
<path fill-rule="evenodd" clip-rule="evenodd" d="M28.2168 62.6741C28.4062 64.3125 29.3571 65.4529 30.3904 66.0333C31.6666 66.7496 33.5315 66.8567 34.7871 66.0333C34.7418 65.8481 34.2025 65.0083 34.0708 64.7901C33.9349 64.5595 33.4615 63.7156 33.3174 63.5921C33.128 63.6868 32.9469 63.8309 32.667 63.8762C32.3706 63.9214 32.0989 63.8762 31.8519 63.7527C31.5061 63.5839 31.0903 63.1516 31.0985 62.6206L28.2209 62.6741H28.2168Z" fill="#8380FC"/>
<path fill-rule="evenodd" clip-rule="evenodd" d="M20.8808 49.9699C20.959 50.0276 21.0084 50.0193 21.1196 50.0234C21.1237 50.2746 21.7947 50.4886 22.0129 50.5668C23.2891 51.0156 24.52 50.8138 25.6315 50.2293L24.1001 47.397C23.3138 47.6316 23.3056 47.6028 22.6428 47.2323C22.6057 47.4299 21.7124 48.9613 21.5025 49.3565C21.1608 49.9987 21.206 50.0152 20.8808 49.974V49.9699Z" fill="#549149"/>
<path fill-rule="evenodd" clip-rule="evenodd" d="M37.2819 53.4115C37.1584 53.3291 37.0802 53.3374 36.9114 53.3662C36.7015 52.9792 35.31 50.715 35.3018 50.4886C34.5567 50.8221 33.9514 51.382 33.5603 51.9336C33.2351 52.3905 32.6587 53.535 32.7616 54.3007H35.7874C36.0056 54.0413 36.1374 53.3621 37.2777 53.4115L37.2819 53.4115Z" fill="#66BEBE"/>
<path fill-rule="evenodd" clip-rule="evenodd" d="M35.1493 49.9535H34.8735C34.6059 49.5212 34.3589 49.0025 34.0996 48.5538C33.972 48.3315 33.8443 48.0886 33.7167 47.8539C33.6262 47.6934 33.3709 47.2858 33.3709 47.1253C33.2268 47.2405 33.1651 47.4917 32.7616 47.6934C32.3706 47.891 32.1894 47.8251 31.7489 47.8004L30.4234 50.2334C31.0491 50.5998 31.9177 50.8344 32.7946 50.7974C33.231 50.7768 33.6426 50.6945 34.0255 50.5627C34.2025 50.501 34.3589 50.4392 34.5277 50.3569C34.6142 50.3157 34.6965 50.2704 34.7747 50.2293C34.8859 50.1675 34.9188 50.1634 34.9188 50.0111C34.9435 50.0111 35.0135 50.0111 35.0382 50.0111L35.1493 49.9617V49.9535Z" fill="#C1B080"/>
<path fill-rule="evenodd" clip-rule="evenodd" d="M19.1518 53.2262C19.5347 53.428 19.7981 53.4938 20.0246 53.9343C20.074 54.0331 20.1151 54.2019 20.1728 54.2925H23.2768C23.392 53.5844 22.7951 52.3658 22.4987 51.9501C22.1941 51.5178 21.4037 50.7192 20.7697 50.5133L19.5923 52.5717C19.5017 52.7322 19.3 53.1563 19.1518 53.2304V53.2262Z" fill="#A050A0"/>
<path fill-rule="evenodd" clip-rule="evenodd" d="M24.7011 62.6247L27.8257 62.6658C27.9945 60.9245 27.2123 59.4919 25.8826 58.5574C25.7385 58.7426 24.3841 61.2497 24.3018 61.4226C24.3841 61.579 24.5159 61.6614 24.6106 61.8919C24.7052 62.1224 24.7382 62.353 24.7052 62.6206L24.7011 62.6247Z" fill="#A84242"/>
<path fill-rule="evenodd" clip-rule="evenodd" d="M28.2168 62.6741L31.0944 62.6206C31.0614 62.2254 31.2344 61.8096 31.4731 61.5667C31.5719 61.4679 31.6501 61.4597 31.7366 61.3485L30.2093 58.5409C29.6988 58.7426 28.9949 59.6277 28.7232 60.1258C28.328 60.8586 28.1262 61.7108 28.2168 62.6741Z" fill="#4B4BA0"/>
<path fill-rule="evenodd" clip-rule="evenodd" d="M33.3421 61.5296C33.3833 61.2868 33.9555 60.3399 34.0996 60.0723C34.2313 59.8294 34.3589 59.6154 34.4865 59.3766C34.6018 59.1584 34.8159 58.8373 34.8735 58.6438L35.1576 58.6521C35.0835 58.6027 35.0176 58.6109 34.9147 58.6109C34.9229 58.3598 34.2972 58.1622 34.079 58.084C33.7167 57.9563 33.3503 57.874 32.9469 57.8411C32.0083 57.767 31.362 57.9687 30.6251 58.2857L32.1894 61.1756C32.564 61.2127 32.7081 61.1221 33.128 61.3567L33.3421 61.5296Z" fill="#4B4BA0"/>
<path fill-rule="evenodd" clip-rule="evenodd" d="M20.8808 58.6562C21.2225 58.5903 21.1649 58.685 21.4489 59.179C21.7289 59.673 22.4328 60.8998 22.6057 61.295C23.1697 61.0151 23.2397 61.0439 23.8819 61.1674L25.4586 58.3268C24.6559 57.7505 23.0792 57.7052 21.9923 58.0757C21.7742 58.1498 21.1237 58.368 21.1278 58.6109C21.1155 58.6109 21.0167 58.6109 21.0043 58.6109C20.992 58.6109 20.9796 58.6109 20.9673 58.6191L20.9096 58.6438C20.9096 58.6438 20.8932 58.6521 20.8849 58.6603L20.8808 58.6562Z" fill="#A84242"/>
<path fill-rule="evenodd" clip-rule="evenodd" d="M19.2753 55.8527C19.4276 55.8403 19.5305 56.1326 19.6911 56.4043C19.8393 56.6596 20.7656 58.1869 20.7614 58.3474C21.2966 58.4421 22.2146 57.4294 22.474 57.0589C22.791 56.6102 23.355 55.5439 23.2768 54.7741H20.1728C20.0328 55.0788 20.0822 55.1529 19.8599 55.4204C19.7775 55.5192 19.7158 55.5769 19.6088 55.6551C19.5182 55.721 19.3659 55.7704 19.2753 55.8527Z" fill="#A050A0"/>
<path fill-rule="evenodd" clip-rule="evenodd" d="M24.7424 45.9891C24.8371 46.5942 24.6683 46.6807 24.4789 47.0841C24.5613 47.2982 25.9815 49.867 26.0556 49.9329C26.4879 49.6941 27.1095 48.9325 27.3853 48.3768C27.7311 47.6769 27.9123 46.8453 27.8299 45.9561C27.3112 45.9561 26.7678 45.9685 26.245 45.985C25.9363 45.9932 24.9894 46.0467 24.7465 45.9891H24.7424Z" fill="#549149"/>
<path fill-rule="evenodd" clip-rule="evenodd" d="M30.8638 46.0014L28.2456 45.952L28.2786 45.6844C28.1304 45.8532 28.2045 46.8083 28.2456 47.0635C28.3156 47.5122 28.4391 47.8992 28.612 48.2738C28.8714 48.8255 29.5465 49.7394 30.024 49.9576L31.3496 47.5699C30.9009 47.22 30.6621 46.7795 30.8638 46.0055V46.0014Z" fill="#C1B080"/>
<path fill-rule="evenodd" clip-rule="evenodd" d="M43.1563 65.9757H42.7982L42.6541 65.527H41.9954L41.8596 65.9757H41.5055L42.1436 64.0038H42.4977L43.1563 65.9757ZM42.5471 65.1935L42.3165 64.4649L42.0942 65.1935H42.5471ZM43.2181 65.5722L43.5351 65.5146C43.5474 65.5887 43.5762 65.6422 43.6174 65.6793C43.6586 65.7163 43.7162 65.7369 43.7903 65.7369C43.8726 65.7369 43.9344 65.7204 43.9756 65.6834C44.0044 65.6587 44.0167 65.6258 44.0167 65.5805C44.0167 65.5517 44.0085 65.527 43.9961 65.5105C43.9797 65.494 43.9467 65.4776 43.8891 65.4611C43.6339 65.3952 43.4733 65.3335 43.4033 65.2758C43.3087 65.1976 43.2634 65.0906 43.2634 64.9547C43.2634 64.8312 43.3045 64.7283 43.3869 64.6419C43.4692 64.5554 43.5968 64.5143 43.7656 64.5143C43.9344 64.5143 44.0497 64.5472 44.1279 64.6089C44.2061 64.6748 44.2637 64.7695 44.2925 64.893L43.9961 64.9589C43.9838 64.9012 43.9591 64.8601 43.922 64.8312C43.885 64.8024 43.8356 64.786 43.7697 64.786C43.6874 64.786 43.6256 64.7983 43.5886 64.8271C43.5639 64.8477 43.5515 64.8724 43.5515 64.9053C43.5515 64.9342 43.5598 64.9547 43.5845 64.9753C43.6133 65 43.7121 65.0371 43.8809 65.0824C44.0497 65.1276 44.1649 65.1853 44.2349 65.2511C44.3008 65.317 44.3337 65.4117 44.3337 65.5311C44.3337 65.6628 44.2884 65.774 44.1979 65.8687C44.1073 65.9633 43.9714 66.0086 43.7903 66.0086C43.6298 66.0086 43.498 65.9675 43.4033 65.8892C43.3087 65.811 43.2469 65.704 43.2181 65.5681V65.5722ZM44.5354 65.2429C44.5354 65.1153 44.5601 64.9959 44.6137 64.8765C44.6672 64.7571 44.7372 64.6707 44.8318 64.6089C44.9265 64.5472 45.0336 64.5143 45.1488 64.5143C45.33 64.5143 45.4782 64.5842 45.5934 64.7242C45.7087 64.8642 45.7663 65.0412 45.7663 65.2553C45.7663 65.4693 45.7087 65.6505 45.5934 65.7945C45.4782 65.9386 45.33 66.0086 45.1529 66.0086C45.0418 66.0086 44.9389 65.9798 44.8401 65.9181C44.7413 65.8604 44.6672 65.774 44.6137 65.6587C44.5601 65.5434 44.5354 65.4035 44.5354 65.2388V65.2429ZM44.8607 65.2635C44.8607 65.4035 44.8895 65.5146 44.943 65.5887C45.0006 65.6628 45.0665 65.704 45.1488 65.704C45.2312 65.704 45.3011 65.6669 45.3547 65.5887C45.4082 65.5146 45.437 65.4035 45.437 65.2594C45.437 65.1153 45.4082 65.0124 45.3547 64.9383C45.3011 64.8642 45.2312 64.823 45.1488 64.823C45.0665 64.823 44.9965 64.8601 44.943 64.9383C44.8854 65.0124 44.8607 65.1235 44.8607 65.2635ZM45.9022 65.5722L46.2192 65.5146C46.2315 65.5887 46.2603 65.6422 46.3015 65.6793C46.3427 65.7163 46.4003 65.7369 46.4744 65.7369C46.5567 65.7369 46.6185 65.7204 46.6597 65.6834C46.6885 65.6587 46.7008 65.6258 46.7008 65.5805C46.7008 65.5517 46.6926 65.527 46.6802 65.5105C46.6638 65.494 46.6308 65.4776 46.5732 65.4611C46.318 65.3952 46.1574 65.3335 46.0874 65.2758C45.9928 65.1976 45.9475 65.0906 45.9475 64.9547C45.9475 64.8312 45.9886 64.7283 46.071 64.6419C46.1533 64.5554 46.2809 64.5143 46.4497 64.5143C46.6185 64.5143 46.7338 64.5472 46.812 64.6089C46.8902 64.6748 46.9478 64.7695 46.9766 64.893L46.6802 64.9589C46.6679 64.9012 46.6432 64.8601 46.6061 64.8312C46.5691 64.8024 46.5197 64.786 46.4538 64.786C46.3715 64.786 46.3097 64.7983 46.2727 64.8271C46.248 64.8477 46.2356 64.8724 46.2356 64.9053C46.2356 64.9342 46.248 64.9547 46.2686 64.9753C46.2974 65 46.3962 65.0371 46.565 65.0824C46.7338 65.1276 46.8531 65.1853 46.919 65.2511C46.9849 65.317 47.0178 65.4117 47.0178 65.5311C47.0178 65.6628 46.9725 65.774 46.882 65.8687C46.7914 65.9633 46.6555 66.0086 46.4744 66.0086C46.3139 66.0086 46.1821 65.9675 46.0874 65.8892C45.9928 65.811 45.931 65.704 45.9022 65.5681V65.5722ZM47.2936 64.3537V64.0038H47.6106V64.3537H47.2936ZM47.2936 65.9757V64.5472H47.6106V65.9757H47.2936ZM48.1664 64.9877L47.8823 64.9259C47.9153 64.786 47.9688 64.683 48.047 64.6172C48.1252 64.5513 48.2405 64.5184 48.3969 64.5184C48.5369 64.5184 48.6439 64.539 48.7098 64.576C48.7798 64.6172 48.825 64.6666 48.8539 64.7283C48.8827 64.7901 48.895 64.9012 48.895 65.0659V65.5064C48.8909 65.6299 48.895 65.7246 48.9074 65.7822C48.9156 65.844 48.9362 65.9057 48.965 65.9716H48.6521C48.6439 65.9469 48.6357 65.9098 48.6233 65.8604C48.6192 65.8398 48.6151 65.8234 48.611 65.8151C48.5575 65.8769 48.4998 65.9263 48.4381 65.9592C48.3763 65.9922 48.3105 66.0086 48.2405 66.0086C48.117 66.0086 48.0223 65.9675 47.9523 65.8892C47.8823 65.811 47.8453 65.7081 47.8453 65.5887C47.8453 65.5064 47.8617 65.4364 47.8947 65.3746C47.9276 65.3129 47.9729 65.2635 48.0305 65.2306C48.0882 65.1976 48.1705 65.1688 48.2816 65.1441C48.4298 65.1112 48.5328 65.0782 48.5863 65.0535V65.0165C48.5863 64.9424 48.5698 64.8889 48.541 64.8601C48.5122 64.8271 48.4545 64.8148 48.3722 64.8148C48.3146 64.8148 48.2734 64.8271 48.2405 64.8559C48.2075 64.8806 48.1828 64.93 48.1623 64.9959L48.1664 64.9877ZM48.5904 65.2923C48.5492 65.3088 48.4875 65.3294 48.3969 65.3499C48.3105 65.3705 48.2528 65.3952 48.224 65.4158C48.1828 65.4529 48.1623 65.494 48.1623 65.5475C48.1623 65.6011 48.1787 65.6463 48.2117 65.6834C48.2446 65.7204 48.2858 65.741 48.3352 65.741C48.3928 65.741 48.4463 65.7204 48.4998 65.6752C48.5369 65.6422 48.5616 65.6011 48.5739 65.5517C48.5822 65.5187 48.5863 65.457 48.5863 65.3664V65.2923H48.5904ZM49.0967 65.5722L49.4137 65.5146C49.4261 65.5887 49.4549 65.6422 49.4961 65.6793C49.5372 65.7163 49.5949 65.7369 49.669 65.7369C49.7513 65.7369 49.8131 65.7204 49.8542 65.6834C49.883 65.6587 49.8954 65.6258 49.8954 65.5805C49.8954 65.5517 49.8872 65.527 49.8748 65.5105C49.8583 65.494 49.8254 65.4776 49.7678 65.4611C49.5125 65.3952 49.352 65.3335 49.282 65.2758C49.1873 65.1976 49.142 65.0906 49.142 64.9547C49.142 64.8312 49.1832 64.7283 49.2655 64.6419C49.3479 64.5554 49.4755 64.5143 49.6443 64.5143C49.8131 64.5143 49.9283 64.5472 50.0065 64.6089C50.0848 64.6748 50.1424 64.7695 50.1712 64.893L49.8748 64.9589C49.8625 64.9012 49.8378 64.8601 49.8007 64.8312C49.7637 64.8024 49.7143 64.786 49.6484 64.786C49.566 64.786 49.5043 64.7983 49.4673 64.8271C49.4426 64.8477 49.4302 64.8724 49.4302 64.9053C49.4302 64.9342 49.4426 64.9547 49.4631 64.9753C49.492 65 49.5908 65.0371 49.7595 65.0824C49.9283 65.1276 50.0436 65.1853 50.1136 65.2511C50.1794 65.317 50.2124 65.4117 50.2124 65.5311C50.2124 65.6628 50.1671 65.774 50.0765 65.8687C49.986 65.9633 49.8501 66.0086 49.669 66.0086C49.5084 66.0086 49.3767 65.9675 49.282 65.8892C49.1873 65.811 49.1256 65.704 49.0967 65.5681V65.5722ZM50.4882 64.3537V64.0038H50.8011V64.3537H50.4882ZM50.4882 65.9757V64.5472H50.8011V65.9757H50.4882ZM51.7685 65.9757V64.0038H52.9006V64.3372H52.1019V64.8065H52.7894V65.14H52.1019V65.9757H51.7685ZM53.1682 64.3537V64.0038H53.481V64.3537H53.1682ZM53.1682 65.9757V64.5472H53.481V65.9757H53.1682ZM54.8931 65.9757H54.5802V65.247C54.5802 65.0947 54.572 64.9918 54.5596 64.9465C54.5473 64.9012 54.5226 64.8642 54.4938 64.8395C54.4649 64.8148 54.4279 64.8024 54.3826 64.8024C54.3291 64.8024 54.2797 64.8189 54.2344 64.8559C54.1891 64.893 54.1603 64.9383 54.1438 65C54.1274 65.0577 54.1191 65.1688 54.1191 65.3294V65.9757H53.8063V64.5472H54.0985V64.7571C54.2015 64.5966 54.3332 64.5184 54.4938 64.5184C54.5637 64.5184 54.6255 64.5348 54.6872 64.5637C54.7449 64.5925 54.7902 64.6336 54.819 64.6789C54.8478 64.7242 54.8684 64.7777 54.8807 64.8395C54.8931 64.8971 54.8972 64.9836 54.8972 65.0947V65.9798L54.8931 65.9757ZM55.7576 64.5472V64.8477H55.5435V65.4282C55.5435 65.5475 55.5435 65.6134 55.5476 65.634C55.5517 65.6546 55.56 65.671 55.5764 65.6834C55.5929 65.6957 55.6094 65.704 55.63 65.704C55.6588 65.704 55.6999 65.6916 55.7576 65.6669L55.7823 65.9592C55.7082 65.9963 55.6258 66.0169 55.5353 66.0169C55.4776 66.0169 55.4282 66.0045 55.383 65.9839C55.3377 65.9592 55.3047 65.9304 55.2842 65.8934C55.2636 65.8563 55.2471 65.8069 55.2389 65.7451C55.2306 65.6999 55.2306 65.6134 55.2306 65.4776V64.8518H55.0866V64.5513H55.2306V64.2673L55.5435 64.0449V64.5513H55.7576V64.5472ZM56.6674 65.5228L56.9802 65.5846C56.9391 65.7246 56.8773 65.8275 56.7909 65.9016C56.7044 65.9716 56.5933 66.0086 56.4657 66.0086C56.2598 66.0086 56.1034 65.9263 56.0046 65.7657C55.9264 65.634 55.8852 65.4693 55.8852 65.2717C55.8852 65.033 55.9387 64.8477 56.0416 64.716C56.1446 64.5801 56.2763 64.5143 56.4327 64.5143C56.6097 64.5143 56.7497 64.5842 56.8526 64.7242C56.9555 64.8642 57.0049 65.0782 57.0008 65.3705H56.2145C56.2145 65.4817 56.2434 65.5681 56.2928 65.634C56.3422 65.6957 56.3998 65.7287 56.4739 65.7287C56.5233 65.7287 56.5645 65.7122 56.5974 65.6793C56.6303 65.6463 56.655 65.5969 56.6756 65.5228H56.6674ZM56.6838 65.14C56.6838 65.0288 56.6591 64.9465 56.6139 64.8889C56.5686 64.8312 56.5151 64.8024 56.4492 64.8024C56.3792 64.8024 56.3257 64.8312 56.2804 64.893C56.2351 64.9547 56.2145 65.0371 56.2145 65.14H56.6838ZM58.2935 64.9712L57.9847 65.0371C57.9765 64.963 57.9518 64.9095 57.9147 64.8683C57.8777 64.8312 57.8283 64.8107 57.7707 64.8107C57.6924 64.8107 57.6307 64.8436 57.5813 64.9095C57.536 64.9753 57.5113 65.0824 57.5113 65.2347C57.5113 65.4035 57.536 65.5228 57.5813 65.5928C57.6307 65.6628 57.6924 65.6999 57.7707 65.6999C57.8283 65.6999 57.8777 65.6793 57.9189 65.6381C57.9559 65.5969 57.9847 65.527 58.0012 65.4282L58.3099 65.4899C58.277 65.6587 58.2153 65.7904 58.1247 65.8769C58.0341 65.9633 57.9106 66.0086 57.7583 66.0086C57.5854 66.0086 57.4454 65.9428 57.3425 65.811C57.2396 65.6793 57.1861 65.4981 57.1861 65.2635C57.1861 65.0288 57.2396 64.8436 57.3425 64.7119C57.4454 64.5801 57.5854 64.5143 57.7624 64.5143C57.9065 64.5143 58.0218 64.5513 58.1082 64.6254C58.1947 64.6995 58.2564 64.8148 58.2935 64.9671V64.9712ZM58.8451 64.0038V64.7324C58.948 64.5884 59.0715 64.5143 59.2115 64.5143C59.2856 64.5143 59.3515 64.5307 59.4091 64.5637C59.4667 64.5966 59.512 64.6378 59.5408 64.6872C59.5697 64.7366 59.5902 64.7942 59.6026 64.8518C59.6149 64.9136 59.6191 65.0083 59.6191 65.1359V65.9716H59.3062V65.2182C59.3062 65.07 59.3021 64.9753 59.2897 64.9342C59.2774 64.893 59.2568 64.8601 59.2239 64.8395C59.195 64.8148 59.1539 64.8024 59.1086 64.8024C59.0551 64.8024 59.0098 64.8189 58.9686 64.8477C58.9274 64.8765 58.8986 64.9259 58.878 64.9836C58.8575 65.0453 58.8492 65.1359 58.8492 65.2553V65.9716H58.5364V63.9997H58.8492L58.8451 64.0038ZM60.5782 65.9757V64.0038H61.1093C61.311 64.0038 61.4428 64.012 61.5045 64.0326C61.5992 64.0614 61.6774 64.1273 61.7392 64.2261C61.8009 64.3249 61.8338 64.4525 61.8338 64.6089C61.8338 64.7283 61.8174 64.8312 61.7803 64.9136C61.7433 64.9959 61.698 65.0618 61.6404 65.1071C61.5827 65.1523 61.5251 65.1853 61.4675 65.2017C61.3892 65.2223 61.274 65.2306 61.1217 65.2306H60.9076V65.9757H60.5741H60.5782ZM60.9117 64.3372V64.8971H61.0928C61.2246 64.8971 61.311 64.8848 61.3563 64.8642C61.4016 64.8436 61.4345 64.8107 61.4592 64.7654C61.4839 64.7201 61.4963 64.6707 61.4963 64.6131C61.4963 64.5431 61.4798 64.4813 61.4428 64.436C61.4057 64.3908 61.3645 64.3619 61.311 64.3496C61.2699 64.3414 61.1916 64.3372 61.0723 64.3372H60.9117ZM62.7972 65.5228L63.11 65.5846C63.0689 65.7246 63.0071 65.8275 62.9207 65.9016C62.8342 65.9716 62.7231 66.0086 62.5954 66.0086C62.3896 66.0086 62.2332 65.9263 62.1344 65.7657C62.0561 65.634 62.015 65.4693 62.015 65.2717C62.015 65.033 62.0685 64.8477 62.1714 64.716C62.2743 64.5801 62.4061 64.5143 62.5625 64.5143C62.7395 64.5143 62.8795 64.5842 62.9824 64.7242C63.0853 64.8642 63.1347 65.0782 63.1306 65.3705H62.3443C62.3443 65.4817 62.3731 65.5681 62.4225 65.634C62.4719 65.6957 62.5296 65.7287 62.6037 65.7287C62.6531 65.7287 62.6942 65.7122 62.7272 65.6793C62.7601 65.6463 62.7848 65.5969 62.8054 65.5228H62.7972ZM62.8136 65.14C62.8136 65.0288 62.7889 64.9465 62.7436 64.8889C62.6984 64.8312 62.6448 64.8024 62.579 64.8024C62.509 64.8024 62.4555 64.8312 62.4102 64.893C62.3649 64.9547 62.3443 65.0371 62.3443 65.14H62.8136ZM64.4685 65.9757H64.1557V65.247C64.1557 65.0947 64.1474 64.9918 64.1351 64.9465C64.1227 64.9012 64.098 64.8642 64.0692 64.8395C64.0404 64.8148 64.0033 64.8024 63.9581 64.8024C63.9045 64.8024 63.8551 64.8189 63.8099 64.8559C63.7646 64.893 63.7358 64.9383 63.7193 65C63.7028 65.0577 63.6946 65.1688 63.6946 65.3294V65.9757H63.3817V64.5472H63.674V64.7571C63.7769 64.5966 63.9087 64.5184 64.0692 64.5184C64.1392 64.5184 64.2009 64.5348 64.2627 64.5637C64.3203 64.5925 64.3656 64.6336 64.3944 64.6789C64.4233 64.7242 64.4438 64.7777 64.4562 64.8395C64.4685 64.8971 64.4727 64.9836 64.4727 65.0947V65.9798L64.4685 65.9757ZM65.8806 65.9757H65.5883V65.7657C65.5389 65.8481 65.4812 65.9098 65.4154 65.951C65.3495 65.9922 65.2836 66.0127 65.2137 66.0127C65.0778 66.0127 64.9584 65.9469 64.8596 65.8151C64.7608 65.6834 64.7114 65.4981 64.7114 65.2594C64.7114 65.0206 64.7608 64.8312 64.8555 64.7077C64.9502 64.5801 65.0696 64.5184 65.2178 64.5184C65.3495 64.5184 65.4648 64.5842 65.5636 64.716V64.0038H65.8765V65.9757H65.8806ZM65.0408 65.2347C65.0408 65.387 65.0572 65.4981 65.0943 65.5681C65.1437 65.6669 65.2178 65.7163 65.3083 65.7163C65.3824 65.7163 65.4442 65.6793 65.4936 65.6052C65.543 65.5311 65.5718 65.4199 65.5718 65.2717C65.5718 65.1071 65.5471 64.9877 65.4977 64.9177C65.4483 64.8436 65.3866 64.8107 65.3083 64.8107C65.2301 64.8107 65.1725 64.8477 65.119 64.9177C65.0696 64.9877 65.0449 65.0947 65.0449 65.2388L65.0408 65.2347ZM66.4281 64.9877L66.144 64.9259C66.177 64.786 66.2305 64.683 66.3087 64.6172C66.3869 64.5513 66.5022 64.5184 66.6586 64.5184C66.7986 64.5184 66.9056 64.539 66.9715 64.576C67.0415 64.6172 67.0868 64.6666 67.1156 64.7283C67.1444 64.7901 67.1567 64.9012 67.1567 65.0659V65.5064C67.1526 65.6299 67.1567 65.7246 67.1691 65.7822C67.1773 65.844 67.1979 65.9057 67.2267 65.9716H66.9139C66.9056 65.9469 66.8974 65.9098 66.885 65.8604C66.8809 65.8398 66.8768 65.8234 66.8727 65.8151C66.8192 65.8769 66.7615 65.9263 66.6998 65.9592C66.638 65.9922 66.5722 66.0086 66.5022 66.0086C66.3787 66.0086 66.284 65.9675 66.214 65.8892C66.144 65.811 66.107 65.7081 66.107 65.5887C66.107 65.5064 66.1235 65.4364 66.1564 65.3746C66.1893 65.3129 66.2346 65.2635 66.2922 65.2306C66.3499 65.1976 66.4322 65.1688 66.5434 65.1441C66.6916 65.1112 66.7945 65.0782 66.848 65.0535V65.0165C66.848 64.9424 66.8315 64.8889 66.8027 64.8601C66.7739 64.8271 66.7163 64.8148 66.6339 64.8148C66.5763 64.8148 66.5351 64.8271 66.5022 64.8559C66.4693 64.8806 66.4446 64.93 66.424 64.9959L66.4281 64.9877ZM66.8521 65.2923C66.8109 65.3088 66.7492 65.3294 66.6586 65.3499C66.5722 65.3705 66.5145 65.3952 66.4857 65.4158C66.4446 65.4529 66.424 65.494 66.424 65.5475C66.424 65.6011 66.4404 65.6463 66.4734 65.6834C66.5063 65.7204 66.5475 65.741 66.601 65.741C66.6586 65.741 66.7121 65.7204 66.7657 65.6752C66.8027 65.6422 66.8274 65.6011 66.8398 65.5517C66.848 65.5187 66.8521 65.457 66.8521 65.3664V65.2923ZM68.5564 65.9757H68.2436V65.247C68.2436 65.0947 68.2353 64.9918 68.223 64.9465C68.2106 64.9012 68.1859 64.8642 68.1571 64.8395C68.1283 64.8148 68.0912 64.8024 68.046 64.8024C67.9924 64.8024 67.943 64.8189 67.8978 64.8559C67.8525 64.893 67.8237 64.9383 67.8072 65C67.7907 65.0577 67.7825 65.1688 67.7825 65.3294V65.9757H67.4696V64.5472H67.7619V64.7571C67.8648 64.5966 67.9966 64.5184 68.1571 64.5184C68.2271 64.5184 68.2888 64.5348 68.3506 64.5637C68.4082 64.5925 68.4535 64.6336 68.4823 64.6789C68.5111 64.7242 68.5317 64.7777 68.5441 64.8395C68.5564 64.8971 68.5606 64.9836 68.5606 65.0947V65.9798L68.5564 65.9757ZM69.1081 64.9877L68.824 64.9259C68.857 64.786 68.9105 64.683 68.9887 64.6172C69.0669 64.5513 69.1822 64.5184 69.3386 64.5184C69.4786 64.5184 69.5856 64.539 69.6515 64.576C69.7215 64.6172 69.7667 64.6666 69.7956 64.7283C69.8244 64.7901 69.8367 64.9012 69.8367 65.0659V65.5064C69.8326 65.6299 69.8367 65.7246 69.8491 65.7822C69.8573 65.844 69.8779 65.9057 69.9067 65.9716H69.5938C69.5856 65.9469 69.5774 65.9098 69.565 65.8604C69.5609 65.8398 69.5568 65.8234 69.5527 65.8151C69.4992 65.8769 69.4415 65.9263 69.3798 65.9592C69.318 65.9922 69.2522 66.0086 69.1822 66.0086C69.0587 66.0086 68.964 65.9675 68.894 65.8892C68.824 65.811 68.787 65.7081 68.787 65.5887C68.787 65.5064 68.8034 65.4364 68.8364 65.3746C68.8693 65.3129 68.9146 65.2635 68.9722 65.2306C69.0299 65.1976 69.1122 65.1688 69.2233 65.1441C69.3715 65.1112 69.4745 65.0782 69.528 65.0535V65.0165C69.528 64.9424 69.5115 64.8889 69.4827 64.8601C69.4539 64.8271 69.3962 64.8148 69.3139 64.8148C69.2563 64.8148 69.2151 64.8271 69.1822 64.8559C69.1492 64.8806 69.1245 64.93 69.104 64.9959L69.1081 64.9877ZM69.5321 65.2923C69.4909 65.3088 69.4292 65.3294 69.3386 65.3499C69.2522 65.3705 69.1945 65.3952 69.1657 65.4158C69.1245 65.4529 69.104 65.494 69.104 65.5475C69.104 65.6011 69.1204 65.6463 69.1534 65.6834C69.1863 65.7204 69.2275 65.741 69.281 65.741C69.3386 65.741 69.3921 65.7204 69.4456 65.6752C69.4827 65.6422 69.5074 65.6011 69.5197 65.5517C69.528 65.5187 69.5321 65.457 69.5321 65.3664V65.2923ZM70.3884 64.9877L70.1043 64.9259C70.1372 64.786 70.1908 64.683 70.269 64.6172C70.3472 64.5513 70.4625 64.5184 70.6189 64.5184C70.7589 64.5184 70.8659 64.539 70.9318 64.576C71.0018 64.6172 71.047 64.6666 71.0759 64.7283C71.1047 64.7901 71.117 64.9012 71.117 65.0659V65.5064C71.1129 65.6299 71.117 65.7246 71.1294 65.7822C71.1376 65.844 71.1582 65.9057 71.187 65.9716H70.8741C70.8659 65.9469 70.8577 65.9098 70.8453 65.8604C70.8412 65.8398 70.8371 65.8234 70.833 65.8151C70.7794 65.8769 70.7218 65.9263 70.6601 65.9592C70.5983 65.9922 70.5325 66.0086 70.4625 66.0086C70.339 66.0086 70.2443 65.9675 70.1743 65.8892C70.1043 65.811 70.0673 65.7081 70.0673 65.5887C70.0673 65.5064 70.0837 65.4364 70.1167 65.3746C70.1496 65.3129 70.1949 65.2635 70.2525 65.2306C70.3101 65.1976 70.3925 65.1688 70.5036 65.1441C70.6518 65.1112 70.7548 65.0782 70.8083 65.0535V65.0165C70.8083 64.9424 70.7918 64.8889 70.763 64.8601C70.7342 64.8271 70.6765 64.8148 70.5942 64.8148C70.5366 64.8148 70.4954 64.8271 70.4625 64.8559C70.4295 64.8806 70.4048 64.93 70.3842 64.9959L70.3884 64.9877ZM70.8124 65.2923C70.7712 65.3088 70.7095 65.3294 70.6189 65.3499C70.5325 65.3705 70.4748 65.3952 70.446 65.4158C70.4048 65.4529 70.3842 65.494 70.3842 65.5475C70.3842 65.6011 70.4007 65.6463 70.4336 65.6834C70.4666 65.7204 70.5077 65.741 70.5571 65.741C70.6148 65.741 70.6683 65.7204 70.7218 65.6752C70.7589 65.6422 70.7836 65.6011 70.7959 65.5517C70.8042 65.5187 70.8083 65.457 70.8083 65.3664V65.2923H70.8124ZM72.5167 65.9757H72.2038V65.247C72.2038 65.0947 72.1956 64.9918 72.1832 64.9465C72.1709 64.9012 72.1462 64.8642 72.1174 64.8395C72.0886 64.8148 72.0515 64.8024 72.0062 64.8024C71.9527 64.8024 71.9033 64.8189 71.858 64.8559C71.8127 64.893 71.7839 64.9383 71.7675 65C71.751 65.0577 71.7428 65.1688 71.7428 65.3294V65.9757H71.4299V64.5472H71.7222V64.7571C71.8251 64.5966 71.9568 64.5184 72.1174 64.5184C72.1874 64.5184 72.2491 64.5348 72.3109 64.5637C72.3685 64.5925 72.4138 64.6336 72.4426 64.6789C72.4714 64.7242 72.492 64.7777 72.5043 64.8395C72.5167 64.8971 72.5208 64.9836 72.5208 65.0947V65.9798L72.5167 65.9757ZM73.4759 64.0038H74.1346C74.2663 64.0038 74.361 64.012 74.4269 64.0244C74.4927 64.0367 74.5504 64.0655 74.5998 64.1067C74.6492 64.1479 74.6903 64.2014 74.7274 64.2714C74.7603 64.3414 74.7768 64.4155 74.7768 64.5019C74.7768 64.5925 74.7562 64.6789 74.715 64.7571C74.6739 64.8354 74.6162 64.893 74.5462 64.93C74.645 64.9671 74.7233 65.0247 74.7768 65.1112C74.8303 65.1976 74.8591 65.2964 74.8591 65.4076C74.8591 65.4981 74.8426 65.5846 74.8056 65.671C74.7727 65.7575 74.7233 65.8234 74.6615 65.8728C74.5998 65.9222 74.5257 65.9551 74.4392 65.9675C74.3857 65.9757 74.2498 65.9798 74.0399 65.9798H73.48V64.0079L73.4759 64.0038ZM73.8094 64.3331V64.786H74.0275C74.1552 64.786 74.2375 64.786 74.2704 64.7777C74.3281 64.7695 74.3733 64.7448 74.4063 64.7077C74.4392 64.6707 74.4557 64.6172 74.4557 64.5554C74.4557 64.4937 74.4433 64.4443 74.4145 64.4072C74.3857 64.3702 74.3445 64.3455 74.291 64.3372C74.2581 64.3331 74.1634 64.329 74.007 64.329H73.8176L73.8094 64.3331ZM73.8094 65.1153V65.6422H74.1181C74.2375 65.6422 74.3157 65.6422 74.3445 65.6299C74.3939 65.6175 74.4351 65.5928 74.4639 65.5517C74.4968 65.5105 74.5092 65.4529 74.5092 65.3829C74.5092 65.3252 74.4968 65.2717 74.4721 65.2306C74.4474 65.1894 74.4145 65.1606 74.3692 65.14C74.3239 65.1194 74.2251 65.1112 74.0728 65.1112H73.8052L73.8094 65.1153ZM75.8224 65.527L76.1353 65.5887C76.0941 65.7287 76.0324 65.8316 75.9459 65.9057C75.8595 65.9757 75.7483 66.0127 75.6207 66.0127C75.4149 66.0127 75.2584 65.9304 75.1596 65.7698C75.0814 65.6381 75.0402 65.4734 75.0402 65.2758C75.0402 65.0371 75.0938 64.8518 75.1967 64.7201C75.2996 64.5842 75.4313 64.5184 75.5878 64.5184C75.7648 64.5184 75.9048 64.5884 76.0077 64.7283C76.1106 64.8683 76.16 65.0824 76.1559 65.3746H75.3655C75.3655 65.4858 75.3943 65.5722 75.4437 65.6381C75.4931 65.6999 75.5507 65.7328 75.6248 65.7328C75.6742 65.7328 75.7154 65.7163 75.7483 65.6834C75.7813 65.6505 75.806 65.6011 75.8265 65.527H75.8224ZM75.8389 65.1441C75.8389 65.033 75.8142 64.9506 75.7689 64.893C75.7236 64.8354 75.6701 64.8065 75.6042 64.8065C75.5342 64.8065 75.4807 64.8354 75.4355 64.8971C75.3902 64.9589 75.3696 65.0412 75.3696 65.1441H75.8389ZM76.7116 65.9798H76.3988V64.5513H76.691V64.753C76.7404 64.6583 76.7857 64.5925 76.8269 64.5637C76.8681 64.5348 76.9133 64.5184 76.9627 64.5184C77.0327 64.5184 77.1027 64.5431 77.1727 64.5884L77.0739 64.9177C77.0204 64.8765 76.971 64.8559 76.9257 64.8559C76.8804 64.8559 76.8434 64.8724 76.8145 64.9012C76.7857 64.93 76.761 64.9836 76.7404 65.0577C76.724 65.1318 76.7157 65.2923 76.7157 65.5352V65.9757L76.7116 65.9798ZM77.1933 65.5764L77.5103 65.5187C77.5226 65.5928 77.5514 65.6463 77.5926 65.6834C77.6338 65.7204 77.6914 65.741 77.7655 65.741C77.8478 65.741 77.9096 65.7246 77.9508 65.6875C77.9796 65.6628 77.9919 65.6299 77.9919 65.5846C77.9919 65.5558 77.9837 65.5311 77.9713 65.5146C77.9549 65.4981 77.9219 65.4817 77.8643 65.4652C77.6091 65.3993 77.4485 65.3376 77.3785 65.28C77.2839 65.2017 77.2386 65.0947 77.2386 64.9589C77.2386 64.8354 77.2797 64.7324 77.3621 64.646C77.4444 64.5595 77.572 64.5184 77.7408 64.5184C77.9096 64.5184 78.0249 64.5513 78.1031 64.6131C78.1813 64.6789 78.2389 64.7736 78.2677 64.8971L77.9713 64.963C77.959 64.9053 77.9343 64.8642 77.8972 64.8354C77.8602 64.8065 77.8108 64.7901 77.7449 64.7901C77.6626 64.7901 77.6008 64.8024 77.5638 64.8312C77.5391 64.8518 77.5267 64.8765 77.5267 64.9095C77.5267 64.9383 77.535 64.9589 77.5597 64.9794C77.5885 65.0041 77.6873 65.0412 77.8561 65.0865C78.0249 65.1318 78.1442 65.1894 78.2101 65.2553C78.276 65.3211 78.3089 65.4158 78.3089 65.5352C78.3089 65.6669 78.2636 65.7781 78.1731 65.8728C78.0825 65.9675 77.9466 66.0127 77.7655 66.0127C77.605 66.0127 77.4732 65.9716 77.3785 65.8934C77.2839 65.8151 77.2221 65.7081 77.1933 65.5722V65.5764ZM78.8194 64.9918L78.5353 64.93C78.5683 64.7901 78.6218 64.6872 78.7 64.6213C78.7782 64.5554 78.8935 64.5225 79.0499 64.5225C79.1899 64.5225 79.2969 64.5431 79.3628 64.5801C79.4328 64.6213 79.4781 64.6707 79.5069 64.7324C79.5357 64.7942 79.548 64.9053 79.548 65.07V65.5105C79.5439 65.634 79.548 65.7287 79.5604 65.7863C79.5686 65.8481 79.5892 65.9098 79.618 65.9757H79.3052C79.2969 65.951 79.2887 65.9139 79.2763 65.8645C79.2722 65.844 79.2681 65.8275 79.264 65.8193C79.2105 65.881 79.1528 65.9304 79.0911 65.9633C79.0293 65.9963 78.9635 66.0127 78.8935 66.0127C78.77 66.0127 78.6753 65.9716 78.6053 65.8934C78.5353 65.8151 78.4983 65.7122 78.4983 65.5928C78.4983 65.5105 78.5148 65.4405 78.5477 65.3788C78.5806 65.317 78.6259 65.2676 78.6835 65.2347C78.7412 65.2017 78.8235 65.1729 78.9347 65.1482C79.0829 65.1153 79.1858 65.0824 79.2393 65.0577V65.0206C79.2393 64.9465 79.2228 64.893 79.194 64.8642C79.1652 64.8312 79.1076 64.8189 79.0252 64.8189C78.9676 64.8189 78.9264 64.8312 78.8935 64.8601C78.8606 64.8848 78.8358 64.9342 78.8153 65L78.8194 64.9918ZM79.2434 65.2964C79.2022 65.3129 79.1405 65.3335 79.0499 65.3541C78.9635 65.3746 78.9058 65.3993 78.877 65.4199C78.8359 65.457 78.8153 65.4981 78.8153 65.5517C78.8153 65.6052 78.8317 65.6505 78.8647 65.6875C78.8976 65.7246 78.9388 65.7451 78.9923 65.7451C79.0499 65.7451 79.1034 65.7246 79.157 65.6793C79.194 65.6463 79.2187 65.6052 79.2311 65.5558C79.2393 65.5228 79.2434 65.4611 79.2434 65.3705V65.2964ZM79.8403 64.5513H80.1285V64.7448C80.2314 64.5966 80.3549 64.5184 80.499 64.5184C80.5772 64.5184 80.6431 64.539 80.6966 64.576C80.7542 64.6131 80.7995 64.6707 80.8325 64.7448C80.886 64.6666 80.9436 64.6131 81.0012 64.576C81.063 64.539 81.1247 64.5184 81.1947 64.5184C81.2812 64.5184 81.3553 64.539 81.417 64.5801C81.4788 64.6213 81.5241 64.6872 81.5529 64.7695C81.5735 64.8312 81.5858 64.93 81.5858 65.0659V65.9798H81.2729V65.1647C81.2729 65.0247 81.2606 64.93 81.24 64.8889C81.2112 64.8354 81.1659 64.8065 81.1042 64.8065C81.0589 64.8065 81.0177 64.823 80.9807 64.8559C80.9436 64.8889 80.9148 64.9342 80.8983 64.9959C80.8818 65.0577 80.8736 65.1565 80.8736 65.2923V65.9757H80.5608V65.1935C80.5608 65.0535 80.5566 64.9671 80.5443 64.9259C80.5319 64.8848 80.5155 64.8559 80.4908 64.8354C80.4661 64.8148 80.4373 64.8065 80.3961 64.8065C80.3467 64.8065 80.3055 64.823 80.2644 64.8518C80.2273 64.8848 80.1985 64.93 80.182 64.9877C80.1655 65.0453 80.1573 65.1441 80.1573 65.28V65.9716H79.8444V64.5431L79.8403 64.5513ZM82.1416 64.9918L81.8575 64.93C81.8904 64.7901 81.944 64.6872 82.0222 64.6213C82.1004 64.5554 82.2157 64.5225 82.3721 64.5225C82.5121 64.5225 82.6191 64.5431 82.685 64.5801C82.755 64.6213 82.8002 64.6707 82.8291 64.7324C82.8579 64.7942 82.8702 64.9053 82.8702 65.07V65.5105C82.8661 65.634 82.8702 65.7287 82.8826 65.7863C82.8908 65.8481 82.9114 65.9098 82.9402 65.9757H82.6273C82.6191 65.951 82.6109 65.9139 82.5985 65.8645C82.5944 65.844 82.5903 65.8275 82.5862 65.8193C82.5327 65.881 82.475 65.9304 82.4133 65.9633C82.3515 65.9963 82.2857 66.0127 82.2157 66.0127C82.0922 66.0127 81.9975 65.9716 81.9275 65.8934C81.8575 65.8151 81.8205 65.7122 81.8205 65.5928C81.8205 65.5105 81.8369 65.4405 81.8699 65.3788C81.9028 65.317 81.9481 65.2676 82.0057 65.2347C82.0633 65.2017 82.1457 65.1729 82.2568 65.1482C82.405 65.1153 82.508 65.0824 82.5615 65.0577V65.0206C82.5615 64.9465 82.545 64.893 82.5162 64.8642C82.4874 64.8312 82.4297 64.8189 82.3474 64.8189C82.2898 64.8189 82.2486 64.8312 82.2157 64.8601C82.1827 64.8848 82.158 64.9342 82.1375 65L82.1416 64.9918ZM82.5656 65.2964C82.5244 65.3129 82.4627 65.3335 82.3721 65.3541C82.2856 65.3746 82.228 65.3993 82.1992 65.4199C82.158 65.457 82.1375 65.4981 82.1375 65.5517C82.1375 65.6052 82.1539 65.6505 82.1869 65.6875C82.2198 65.7246 82.261 65.7451 82.3145 65.7451C82.3721 65.7451 82.4256 65.7246 82.4791 65.6793C82.5162 65.6463 82.5409 65.6052 82.5532 65.5558C82.5615 65.5228 82.5656 65.4611 82.5656 65.3705V65.2964ZM83.8171 65.9798V64.0079H84.1505V65.9798H83.8171Z" fill="#333333"/>
<path fill-rule="evenodd" clip-rule="evenodd" d="M85.542 65.9757H85.2291V65.247C85.2291 65.0947 85.2209 64.9918 85.2085 64.9465C85.1962 64.9012 85.1715 64.8642 85.1427 64.8395C85.1138 64.8148 85.0768 64.8024 85.0315 64.8024C84.978 64.8024 84.9286 64.8189 84.8833 64.8559C84.838 64.893 84.8092 64.9383 84.7927 65C84.7763 65.0577 84.768 65.1688 84.768 65.3294V65.9757H84.4552V64.5472H84.7474V64.7571C84.8504 64.5966 84.9821 64.5184 85.1427 64.5184C85.2126 64.5184 85.2744 64.5348 85.3361 64.5637C85.3938 64.5925 85.439 64.6336 85.4679 64.6789C85.4967 64.7242 85.5173 64.7777 85.5296 64.8395C85.542 64.8971 85.5461 64.9836 85.5461 65.0947V65.9798L85.542 65.9757ZM86.954 65.9757H86.6617V65.7657C86.6123 65.8481 86.5547 65.9098 86.4888 65.951C86.4229 65.9922 86.3571 66.0127 86.2871 66.0127C86.1512 66.0127 86.0319 65.9469 85.9331 65.8151C85.8343 65.6834 85.7849 65.4981 85.7849 65.2594C85.7849 65.0206 85.8343 64.8312 85.9289 64.7077C86.0236 64.5801 86.143 64.5184 86.2912 64.5184C86.4229 64.5184 86.5382 64.5842 86.637 64.716V64.0038H86.9499V65.9757H86.954ZM86.1142 65.2347C86.1142 65.387 86.1307 65.4981 86.1677 65.5681C86.2171 65.6669 86.2912 65.7163 86.3818 65.7163C86.4559 65.7163 86.5176 65.6793 86.567 65.6052C86.6164 65.5311 86.6452 65.4199 86.6452 65.2717C86.6452 65.1071 86.6206 64.9877 86.5712 64.9177C86.5218 64.8436 86.46 64.8107 86.3818 64.8107C86.3036 64.8107 86.2459 64.8477 86.1924 64.9177C86.143 64.9877 86.1183 65.0947 86.1183 65.2388L86.1142 65.2347ZM87.1928 65.2429C87.1928 65.1153 87.2175 64.9959 87.271 64.8765C87.3245 64.7571 87.3945 64.6707 87.4892 64.6089C87.5839 64.5472 87.6909 64.5143 87.8062 64.5143C87.9873 64.5143 88.1355 64.5842 88.2508 64.7242C88.366 64.8642 88.4237 65.0412 88.4237 65.2553C88.4237 65.4693 88.366 65.6505 88.2508 65.7945C88.1355 65.9386 87.9873 66.0086 87.8103 66.0086C87.6991 66.0086 87.5962 65.9798 87.4974 65.9181C87.3986 65.8604 87.3245 65.774 87.271 65.6587C87.2175 65.5434 87.1928 65.4035 87.1928 65.2388V65.2429ZM87.518 65.2635C87.518 65.4035 87.5468 65.5146 87.6003 65.5887C87.658 65.6628 87.7238 65.704 87.8062 65.704C87.8885 65.704 87.9585 65.6669 88.012 65.5887C88.0655 65.5146 88.0943 65.4035 88.0943 65.2594C88.0943 65.1153 88.0655 65.0124 88.012 64.9383C87.9585 64.8642 87.8885 64.823 87.8062 64.823C87.7238 64.823 87.6538 64.8601 87.6003 64.9383C87.5427 65.0124 87.518 65.1235 87.518 65.2635ZM89.7575 65.9757H89.4446V65.247C89.4446 65.0947 89.4364 64.9918 89.424 64.9465C89.4117 64.9012 89.387 64.8642 89.3582 64.8395C89.3293 64.8148 89.2923 64.8024 89.247 64.8024C89.1935 64.8024 89.1441 64.8189 89.0988 64.8559C89.0535 64.893 89.0247 64.9383 89.0082 65C88.9918 65.0577 88.9835 65.1688 88.9835 65.3294V65.9757H88.6707V64.5472H88.963V64.7571C89.0659 64.5966 89.1976 64.5184 89.3582 64.5184C89.4281 64.5184 89.4899 64.5348 89.5516 64.5637C89.6093 64.5925 89.6546 64.6336 89.6834 64.6789C89.7122 64.7242 89.7328 64.7777 89.7451 64.8395C89.7575 64.8971 89.7616 64.9836 89.7616 65.0947V65.9798L89.7575 65.9757ZM90.7661 65.5228L91.0789 65.5846C91.0378 65.7246 90.976 65.8275 90.8896 65.9016C90.8031 65.9716 90.692 66.0086 90.5644 66.0086C90.3585 66.0086 90.2021 65.9263 90.1033 65.7657C90.0251 65.634 89.9839 65.4693 89.9839 65.2717C89.9839 65.033 90.0374 64.8477 90.1403 64.716C90.2433 64.5801 90.375 64.5143 90.5314 64.5143C90.7084 64.5143 90.8484 64.5842 90.9513 64.7242C91.0542 64.8642 91.1036 65.0782 91.0995 65.3705H90.3091C90.3091 65.4817 90.3379 65.5681 90.3873 65.634C90.4367 65.6957 90.4944 65.7287 90.5685 65.7287C90.6179 65.7287 90.659 65.7122 90.692 65.6793C90.7249 65.6463 90.7496 65.5969 90.7702 65.5228H90.7661ZM90.7825 65.14C90.7825 65.0288 90.7578 64.9465 90.7126 64.8889C90.6673 64.8312 90.6137 64.8024 90.5479 64.8024C90.4779 64.8024 90.4244 64.8312 90.3791 64.893C90.3338 64.9547 90.3132 65.0371 90.3132 65.14H90.7825ZM91.2395 65.5722L91.5565 65.5146C91.5688 65.5887 91.5976 65.6422 91.6388 65.6793C91.68 65.7163 91.7376 65.7369 91.8117 65.7369C91.894 65.7369 91.9558 65.7204 91.997 65.6834C92.0258 65.6587 92.0381 65.6258 92.0381 65.5805C92.0381 65.5517 92.0299 65.527 92.0176 65.5105C92.0011 65.494 91.9681 65.4776 91.9105 65.4611C91.6553 65.3952 91.4947 65.3335 91.4247 65.2758C91.3301 65.1976 91.2848 65.0906 91.2848 64.9547C91.2848 64.8312 91.3259 64.7283 91.4083 64.6419C91.4906 64.5554 91.6182 64.5143 91.787 64.5143C91.9558 64.5143 92.0711 64.5472 92.1493 64.6089C92.2275 64.6748 92.2851 64.7695 92.314 64.893L92.0176 64.9589C92.0052 64.9012 91.9805 64.8601 91.9435 64.8312C91.9064 64.8024 91.857 64.786 91.7911 64.786C91.7088 64.786 91.6471 64.7983 91.61 64.8271C91.5853 64.8477 91.5729 64.8724 91.5729 64.9053C91.5729 64.9342 91.5853 64.9547 91.6059 64.9753C91.6347 65 91.7335 65.0371 91.9023 65.0824C92.0711 65.1276 92.1905 65.1853 92.2563 65.2511C92.3222 65.317 92.3551 65.4117 92.3551 65.5311C92.3551 65.6628 92.3098 65.774 92.2193 65.8687C92.1287 65.9633 91.9928 66.0086 91.8117 66.0086C91.6512 66.0086 91.5194 65.9675 91.4247 65.8892C91.3301 65.811 91.2683 65.704 91.2395 65.5681V65.5722ZM92.6309 64.3537V64.0038H92.9438V64.3537H92.6309ZM92.6309 65.9757V64.5472H92.9438V65.9757H92.6309ZM93.5037 64.9877L93.2196 64.9259C93.2526 64.786 93.3061 64.683 93.3843 64.6172C93.4625 64.5513 93.5778 64.5184 93.7342 64.5184C93.8742 64.5184 93.9812 64.539 94.0471 64.576C94.1171 64.6172 94.1624 64.6666 94.1912 64.7283C94.22 64.7901 94.2323 64.9012 94.2323 65.0659V65.5064C94.2282 65.6299 94.2323 65.7246 94.2447 65.7822C94.2529 65.844 94.2735 65.9057 94.3023 65.9716H93.9895C93.9812 65.9469 93.973 65.9098 93.9606 65.8604C93.9565 65.8398 93.9524 65.8234 93.9483 65.8151C93.8948 65.8769 93.8371 65.9263 93.7754 65.9592C93.7136 65.9922 93.6478 66.0086 93.5778 66.0086C93.4543 66.0086 93.3596 65.9675 93.2896 65.8892C93.2196 65.811 93.1826 65.7081 93.1826 65.5887C93.1826 65.5064 93.199 65.4364 93.232 65.3746C93.2649 65.3129 93.3102 65.2635 93.3678 65.2306C93.4255 65.1976 93.5078 65.1688 93.6189 65.1441C93.7672 65.1112 93.8701 65.0782 93.9236 65.0535V65.0165C93.9236 64.9424 93.9071 64.8889 93.8783 64.8601C93.8495 64.8271 93.7919 64.8148 93.7095 64.8148C93.6519 64.8148 93.6107 64.8271 93.5778 64.8559C93.5448 64.8806 93.5201 64.93 93.4996 64.9959L93.5037 64.9877ZM93.9277 65.2923C93.8865 65.3088 93.8248 65.3294 93.7342 65.3499C93.6478 65.3705 93.5901 65.3952 93.5613 65.4158C93.5202 65.4529 93.4996 65.494 93.4996 65.5475C93.4996 65.6011 93.516 65.6463 93.549 65.6834C93.5819 65.7204 93.6231 65.741 93.6766 65.741C93.7342 65.741 93.7877 65.7204 93.8413 65.6752C93.8783 65.6422 93.903 65.6011 93.9154 65.5517C93.9236 65.5187 93.9277 65.457 93.9277 65.3664V65.2923Z" fill="#333333"/>
</svg>
