<svg width="109" height="108" viewBox="0 0 109 108" fill="none" xmlns="http://www.w3.org/2000/svg">
<path fill-rule="evenodd" clip-rule="evenodd" d="M94.5 53.9971C94.5 31.906 76.5887 13.9995 54.5024 13.9995C32.4085 13.9995 14.5 31.906 14.5 53.9971C14.5 76.0853 32.4085 93.9976 54.5024 93.9976C76.5887 93.9976 94.5 76.0853 94.5 53.9971ZM44.5259 86.6816C47.6991 86.6816 50.0667 86.3707 50.2373 82.0554H58.0471C58.2177 86.3707 60.6156 86.511 63.7092 86.511V88.6994H44.5259V86.6816ZM64.7878 50.5102C68.9694 51.8342 78.7838 56.3097 78.7838 65.5687C78.7838 74.7006 70.176 80.14 59.9588 80.14H30.2162L30.2466 77.7705C35.6423 77.7705 37.2403 77.0596 37.2403 71.5501V36.7019C37.2403 30.5687 34.8196 30.1849 30.2361 30.1849V27.9803C31.0948 27.9604 41.8996 27.9746 50.2373 27.9803C50.0667 23.6603 47.6992 23.3466 44.526 23.3466V21.3325H63.7092V23.52C60.6156 23.52 58.2177 23.6603 58.0471 27.9803H59.9588C64.2731 27.9803 74.8675 29.4655 74.8874 38.188C74.9026 44.3088 70.7683 48.2023 64.7878 50.5102ZM70.5569 67.0339C70.5569 59.79 65.583 54.9676 59.5323 52.0456C55.5857 52.9034 50.9529 53.4057 46.6196 53.4426L47.7086 50.7405C48.6924 50.7083 49.4374 50.6476 50.2373 50.6002V32.4804H58.0471V49.4288C64.5916 47.4972 67.3316 43.6131 67.3316 39.1036C67.3316 33.3239 62.949 30.564 58.0272 30.564L45.0652 30.5687V71.7103C45.0652 76.0654 47.684 76.9781 50.2373 77.0236V55.6245C53.165 55.5221 56.3107 55.106 58.0471 54.7023V77.0236C64.2883 77.018 70.5569 73.2154 70.5569 67.0339Z" fill="#004F91"/>
</svg>
