<svg width="109" height="108" viewBox="0 0 109 108" fill="none" xmlns="http://www.w3.org/2000/svg">
<path d="M55.3712 67.0233C55.3712 67.0233 56.43 68.0077 56.2342 68.5625C55.785 69.839 53.774 70.4322 52.4679 70.0793C50.3831 69.5157 48.4767 67.1205 48.4954 64.961C48.5228 61.7917 51.7639 59.2265 54.4541 57.5513C57.2235 55.8269 60.7419 55.3583 64.0033 55.4121C67.5543 55.4714 71.3438 56.1431 74.3168 58.0859C75.9713 59.1672 77.3373 60.8778 77.9836 62.7455C78.3501 63.8043 77.9836 66.1068 77.9836 66.1068C77.9836 66.1068 80.9011 62.0789 81.9561 59.8425C83.2133 57.1768 85.0594 54.3649 84.7062 51.439C84.5445 50.0994 83.6586 48.7984 82.567 48.0011C79.0659 45.4545 74.2894 45.0127 69.9624 44.8691C65.4895 44.721 60.9409 45.6742 56.7466 47.2373C53.8893 48.2999 51.0919 49.8022 48.8779 51.8969C46.3845 54.256 43.9948 57.1266 43.1485 60.453C42.5998 62.609 42.717 65.1343 43.7597 67.0996C44.7013 68.8739 46.5562 70.1704 48.4194 70.9194C50.2443 71.653 52.4302 71.9821 54.3018 71.3777C55.5399 70.9783 57.2402 70.1572 57.2811 68.8562C57.3413 66.9411 55.3715 67.0226 55.3715 67.0226L55.3712 67.0233Z" fill="#18D1FF"/>
<path d="M54.3342 68.1503C54.3342 68.1503 54.0579 67.2986 54.2939 66.993C54.6771 66.498 55.5401 66.3638 56.1294 66.5834C56.9802 66.9054 57.7418 67.8715 57.7434 68.7796C57.7453 69.9459 56.7207 71.0779 55.6809 71.6063C53.4106 72.7601 50.4506 72.4316 48.0415 71.6063C45.9983 70.9065 43.9969 69.5073 42.9233 67.6338C41.3647 64.9159 41.0008 61.3673 41.7009 58.3138C42.4158 55.1954 44.7382 52.5831 46.9724 50.2923C49.374 47.8294 52.2803 45.7421 55.4522 44.4099C59.0856 42.8845 63.1341 42.4768 67.0643 42.1944C70.4456 41.9516 73.8944 42.0218 77.2251 42.6526C79.3141 43.0487 81.4275 43.6374 83.2598 44.7152C83.9805 45.1393 85.1221 46.3961 85.1221 46.3961C85.1221 46.3961 84.621 39.9653 83.6421 36.9232C82.7942 34.2891 81.8941 31.4305 79.8989 29.5135C78.4862 28.1558 76.4671 27.4841 74.5514 27.0741C70.9125 26.2961 67.0566 26.4832 63.3981 27.145C59.1242 27.9178 54.9943 29.5827 51.1651 31.633C47.581 33.5523 44.2053 35.969 41.3196 38.8334C38.956 41.18 36.7269 43.8171 35.3609 46.855C33.9846 49.9158 33.2758 53.3534 33.2984 56.7095C33.3164 59.3968 33.8722 62.1652 35.0553 64.5781C36.1621 66.8355 37.9358 68.7764 39.8683 70.3842C41.5499 71.7831 43.5284 72.8747 45.5977 73.5832C47.5472 74.2504 49.652 74.6265 51.7097 74.5093C54.1168 74.3725 56.8562 74.1841 58.6918 72.6213C59.7641 71.708 60.5392 70.1739 60.43 68.7699C60.3534 67.7861 59.6485 66.812 58.8096 66.2923C57.8935 65.7242 56.6392 65.3745 55.5978 65.654C54.6317 65.9129 53.8215 66.4311 53.6995 67.2384C53.6415 67.6216 54.3383 68.1507 54.3383 68.1507L54.3342 68.1503Z" fill="#0166FE"/>
<path d="M54.6565 68.833C54.6565 68.833 53.1752 68.5336 52.7894 67.9797C52.2355 67.1788 52.2741 66.0495 52.8177 65.2425C53.7129 63.9138 55.6299 63.4047 57.2307 63.3426C59.9373 63.2315 63.2445 63.8192 64.9319 65.9381C66.3401 67.7069 66.6247 70.6708 65.6023 72.6877C64.5764 74.7116 61.9139 75.4976 59.7402 76.1487C56.3377 77.1679 52.6055 77.2211 49.0968 76.6678C45.4721 76.0963 41.9318 74.6864 38.7998 72.7714C35.349 70.6641 32.1845 67.904 29.8009 64.6377C27.244 61.1341 25.335 57.0267 24.436 52.7873C23.6229 48.9498 23.7362 44.8656 24.5229 41.0197C25.4222 36.6609 27.1557 32.5171 29.6279 28.8163C31.514 26.005 34.0506 23.5995 36.8097 21.6346C39.2905 19.8699 42.1456 18.6269 45.0299 17.6544C47.372 16.8644 49.8297 16.3138 52.298 16.1834C55.3646 16.0214 58.4721 16.383 61.4698 17.0486C63.9816 17.6064 66.4612 18.4414 68.7379 19.6441C71.4203 21.0633 76.0929 25.009 76.0929 25.009C76.0929 25.009 66.6183 24.1035 61.9883 24.9221C56.5332 25.8872 51.1474 27.8422 46.4137 30.7194C42.8888 32.8619 39.78 35.7752 37.2418 39.026C35.2089 41.6296 33.5914 44.6241 32.5725 47.7657C31.5362 50.9537 30.9888 54.3736 31.1878 57.7162C31.3231 59.9787 31.9156 62.2593 32.9184 64.2919C33.9186 66.3206 35.3731 68.1636 37.0718 69.6568C39.2789 71.5914 41.8335 73.089 44.5997 74.0698C46.8275 74.8542 49.2465 75.1376 51.6085 75.108C53.6283 75.0822 55.7806 74.9895 57.5788 74.0698C59.0859 73.2989 60.6979 72.1376 61.2128 70.5221C61.6321 69.2098 61.378 67.4973 60.4767 66.4549C59.5873 65.4264 57.9694 65.1572 56.6099 65.1572C55.6116 65.1568 54.4935 65.4203 53.7712 66.1091C53.3681 66.4936 53.1604 66.9872 53.3075 67.5243C53.475 68.1336 54.6581 68.835 54.6581 68.835L54.659 68.834L54.6565 68.833ZM27.5319 80.9668L24.1378 84.2264L22.8667 85.5122C24.0728 86.8879 25.284 88.2586 26.5001 89.6244L27.7109 91.1196V91.1943L26.8885 91.1492L26.0512 91.1943C25.8917 90.965 25.7221 90.7357 25.5424 90.5064C25.3707 90.2673 25.1963 90.0419 25.0191 89.8302L21.7596 86.0174C21.7098 85.9777 21.645 85.9528 21.5651 85.9427C21.5252 85.9522 21.5052 85.9622 21.5052 85.9727V91.1907L20.8473 91.1456L20.1895 91.1907V80.9633L20.8473 81.0084L21.5052 80.9633V85.5834C21.5151 85.6231 21.56 85.6331 21.6398 85.6133C21.7296 85.5933 21.8155 85.5534 21.8975 85.4935C21.9769 85.4237 22.1413 85.2692 22.3908 85.0298C22.4805 84.9401 22.5752 84.8503 22.6748 84.7606L26.3539 80.9639L26.9519 81.009L27.5319 80.9668Z" fill="#0100CC"/>
<path d="M38.3282 85.9572C38.3282 85.2795 38.2633 84.6814 38.1337 84.1629C38.004 83.6348 37.7548 83.1364 37.3859 82.6678C37.0171 82.1993 36.5586 81.8405 36.0103 81.5913C35.472 81.3422 34.8939 81.2177 34.2758 81.2177C32.9699 81.2177 31.9384 81.6763 31.1812 82.5934C30.4337 83.5004 30.0599 84.7166 30.0599 86.2419C30.0599 87.7071 30.4587 88.8584 31.2562 89.6959C32.0038 90.4735 32.9655 90.8623 34.1416 90.8623C35.5471 90.8623 36.6385 90.2542 37.4159 89.038C38.0239 88.0913 38.3278 87.0646 38.3278 85.9579L38.3282 85.9572ZM34.0968 91.3543C32.4322 91.3543 31.0965 90.8759 30.0899 89.9191C29.0931 88.9522 28.5947 87.6662 28.5947 86.0612C28.5947 84.4565 29.128 83.1555 30.1945 82.1583C31.2211 81.2015 32.532 80.7231 34.1271 80.7231C35.682 80.7231 36.9778 81.1267 38.0145 81.9339C39.2006 82.8609 39.7937 84.1619 39.7937 85.8368C39.7937 87.4916 39.2654 88.8272 38.2087 89.8437C37.152 90.8527 35.7813 91.3572 34.0965 91.3572L34.0968 91.3543Z" fill="#0100CC"/>
<path d="M51.4399 80.9669H51.7539C51.9632 82.9505 52.0928 84.1667 52.1426 84.6154C52.3021 86.0806 52.4316 87.2219 52.5313 88.0395C52.6386 88.8467 52.7832 89.8983 52.965 91.1943L52.2624 91.1492L51.5597 91.1943C51.47 90.1975 51.3841 89.2454 51.3021 88.338C51.2323 87.4309 51.1464 86.5338 51.0445 85.6465C50.9547 84.7594 50.8689 84.0367 50.7869 83.4783C50.1789 84.5747 49.6505 85.5316 49.2019 86.3492C48.6836 87.306 48.25 88.1334 47.9009 88.8313C47.5222 89.5988 47.1783 90.3314 46.8691 91.0291H46.7081L45.8857 89.3395C45.5267 88.5919 45.2077 87.9479 44.9286 87.4073C44.6495 86.859 44.3056 86.1962 43.8969 85.4188C43.548 84.7709 43.2041 84.123 42.8651 83.4751C42.6934 84.9006 42.5289 86.3409 42.3718 87.796C42.2123 89.2515 42.1325 90.3829 42.1325 91.1901L41.6092 91.145L41.0708 91.1901C41.2801 89.8943 41.5543 88.0552 41.8932 85.6729C42.2324 83.2805 42.4368 81.7105 42.5064 80.963H42.8928C43.411 81.9797 43.8347 82.8121 44.1638 83.46C44.5625 84.2275 45.0348 85.1096 45.5807 86.1064C46.1788 87.1926 46.6921 88.0898 47.1206 88.7978C48.556 86.1862 49.9914 83.5746 51.4267 80.963L51.4399 80.9669ZM55.1348 91.1998V80.9723L55.7927 81.0174L56.4506 80.9723V91.1998L55.7927 91.1547L55.1348 91.1998ZM68.0363 80.9669V91.1943H67.5877L66.8104 90.2823L60.3512 83.1354H60.2018V91.1946L59.7832 91.1495L59.3646 91.1946V80.9672H59.9442L67.0464 88.6674H67.1958V80.9672L67.6145 81.0123L68.0363 80.9669ZM70.8379 91.1998V80.9723H76.1458L76.1007 81.4209L76.1458 81.8695C75.8467 81.8094 75.6025 81.7695 75.4132 81.7497C75.2238 81.7197 75.0195 81.7046 74.8001 81.7046L73.3049 81.6747H72.1537V85.4246H74.4713C74.6606 85.4246 74.9099 85.4146 75.219 85.3947C75.538 85.3646 75.7312 85.3496 75.7986 85.3496L75.7536 85.7383L75.7986 86.1569C75.6192 86.1569 75.3699 86.1469 75.0509 86.127C74.7319 86.0969 74.5387 86.0819 74.4713 86.0819H72.1537V91.1956L71.4958 91.1505L70.8379 91.1998Z" fill="#0100CC"/>
<path d="M87.3418 85.9572C87.3418 85.2795 87.277 84.6814 87.1473 84.1629C87.0177 83.6348 86.7684 83.1364 86.3996 82.6678C86.0308 82.1993 85.5722 81.8405 85.0239 81.5913C84.4857 81.3422 83.9076 81.2177 83.2895 81.2177C81.9836 81.2177 80.9521 81.6763 80.1949 82.5934C79.4474 83.5004 79.0736 84.7166 79.0736 86.2419C79.0736 87.7071 79.4724 88.8584 80.2699 89.6959C81.0174 90.4735 81.9792 90.8623 83.1552 90.8623C84.5608 90.8623 85.6522 90.2542 86.4296 89.038C87.0375 88.0913 87.3415 87.0646 87.3415 85.9579L87.3418 85.9572ZM83.1105 91.3543C81.4458 91.3543 80.1102 90.8759 79.1035 89.9191C78.1068 88.9522 77.6084 87.6662 77.6084 86.0612C77.6084 84.4565 78.1417 83.1555 79.2082 82.1583C80.2348 81.2015 81.5457 80.7231 83.1407 80.7231C84.6957 80.7231 85.9915 81.1267 87.0282 81.9339C88.2143 82.8609 88.8074 84.1619 88.8074 85.8368C88.8074 87.4916 88.279 88.8272 87.2224 89.8437C86.1657 90.8527 84.795 91.3572 83.1101 91.3572L83.1105 91.3543Z" fill="#0100CC"/>
</svg>
