<svg width="109" height="108" viewBox="0 0 109 108" fill="none" xmlns="http://www.w3.org/2000/svg">
<path fill-rule="evenodd" clip-rule="evenodd" d="M50.0675 54.43C48.6388 56.8303 47.4672 58.9162 46.0385 61.3164C44.6384 63.7166 43.3526 65.8311 41.9525 68.2313C41.581 68.8599 41.2095 69.0885 40.4666 69.0885C37.6378 69.0885 35.2376 69.0885 32.4087 69.0885C29.6085 69.0885 27.1226 69.0599 24.2937 69.0599C23.5794 69.0599 23.1793 68.8313 22.8079 68.2027C21.4078 65.7739 20.2077 63.7452 18.779 61.3164C17.3788 58.9162 16.1787 56.7731 14.7786 54.3729C14.4071 53.7157 14.4071 53.2871 14.7786 52.6585C16.1787 50.2582 17.3788 48.1723 18.779 45.7721C20.1791 43.3719 21.4649 41.2574 22.865 38.8572C23.2365 38.2286 23.6365 38 24.3795 38C27.1797 38 29.5799 38 32.4087 38C35.2376 38 37.6949 38.0286 40.5238 38.0286C41.2667 38.0286 41.6381 38.2572 42.0096 38.8858C43.4383 41.3146 44.6384 43.3433 46.0385 45.7721C47.4672 48.1723 48.6673 50.3154 50.0675 52.7156C50.4389 53.3728 50.4389 53.8014 50.0675 54.43Z" fill="white"/>
<path fill-rule="evenodd" clip-rule="evenodd" d="M30.9515 48.7724H30.3228V53.3442H31.1515C32.2944 53.3442 33.1517 53.1442 33.7803 52.7442C34.3803 52.3441 34.6661 51.7727 34.6661 51.0297C34.6661 50.2582 34.3803 49.6868 33.7803 49.3153C33.1802 48.9724 32.2373 48.7724 30.9515 48.7724ZM50.0675 54.43C49.5531 55.3158 49.0674 56.1445 48.5816 56.9446C48.5245 56.0302 48.2102 55.2301 47.6101 54.5443C46.9529 53.8014 45.6671 52.9728 43.7812 52.087L41.4953 51.0297C40.7523 50.6868 40.7238 50.1439 40.7523 49.7439C40.8095 49.2296 41.6381 48.7152 42.3239 48.7438C44.0669 48.8295 44.6384 49.3153 46.0957 50.0868L47.3244 47.9723C48.2387 49.5439 49.0959 51.0583 50.0675 52.7156C50.4389 53.3728 50.4389 53.8014 50.0675 54.43ZM45.9242 61.5164C44.5813 63.8309 43.324 65.8882 41.9525 68.2313C41.581 68.8599 41.2095 69.0885 40.4666 69.0885C37.6378 69.0885 35.2376 69.0885 32.4087 69.0885C29.6085 69.0885 27.1226 69.0599 24.2937 69.0599C23.5794 69.0599 23.1793 68.8313 22.8079 68.2027C21.6078 66.1454 20.5505 64.3452 19.4076 62.3736H25.0652L26.0367 60.602V62.3736H30.2085V56.9446C30.3228 56.9446 30.4371 56.9731 30.5514 56.9731C30.6657 56.9731 31.2086 56.9731 31.4658 56.9731C32.4945 56.9731 33.8089 56.9731 34.6375 56.7731C36.4091 56.3731 37.7235 55.2015 38.4379 53.63C40.2094 55.6016 43.0668 56.2016 43.7526 56.6017C44.4384 57.0303 44.3812 57.6303 44.2098 57.8875C44.0098 58.2018 43.3526 58.3447 43.0954 58.3447C41.5524 58.4875 39.4379 57.4875 38.5807 56.6302C37.6949 57.9446 36.6948 59.3733 36.352 60.0877C37.2377 60.9163 38.5236 61.8307 41.5524 62.1736C43.2954 62.3736 44.7527 62.145 45.9242 61.5164ZM16.2359 56.916C15.7501 56.0873 15.2644 55.2301 14.7786 54.3729C14.4071 53.7157 14.4071 53.2871 14.7786 52.6585C16.1787 50.2582 17.3788 48.1723 18.779 45.7721C20.1791 43.3719 21.4649 41.2574 22.865 38.8572C23.2365 38.2286 23.6365 38 24.3795 38C27.1797 38 29.5799 38 32.4087 38C35.2376 38 37.6949 38.0286 40.5238 38.0286C41.2667 38.0286 41.6381 38.2572 42.0096 38.8858C43.4383 41.3146 44.6384 43.3433 46.0385 45.7721L46.0957 45.8293C45.4099 45.6293 44.7527 45.4292 44.3812 45.3721C43.5812 45.2292 42.8382 45.1721 42.1525 45.1721C41.5524 45.1721 40.9809 45.2006 40.438 45.2864L38.6664 48.5152C38.3236 47.7723 37.7235 47.0294 36.752 46.315C34.7232 44.9149 33.0088 45.1149 30.0657 45.2578L26.0367 52.5727V58.5447H20.4934V44.7149L16.2359 52.4584V56.916Z" fill="#DC7902"/>
<path d="M84.3277 61.6021L86.385 57.116H87.2708L89.3281 61.5735H88.328L87.9566 60.6592H85.7278L85.2992 61.6021H84.3277ZM87.6422 59.8591L86.8707 58.1161L86.1278 59.8591H87.6422Z" fill="#333333"/>
<path d="M73.7553 61.6021L75.784 57.116H76.6698L78.7272 61.5735H77.7271L77.3842 60.6592H75.1268L74.7268 61.6021H73.7553ZM77.0699 59.8591L76.2984 58.1161L75.5554 59.8591H77.0699Z" fill="#333333"/>
<path d="M73.1552 58.5733C73.1552 58.7733 73.1267 58.9733 73.0695 59.1733C73.0124 59.3448 72.9266 59.5162 72.8123 59.6305C72.7552 59.7162 72.6695 59.7734 72.6123 59.8591C72.5266 59.9162 72.4409 59.9734 72.3552 60.0305C72.2409 60.0591 72.1551 60.1163 72.0409 60.1163C71.9266 60.1448 71.8123 60.1734 71.6694 60.1734H70.4407V61.5735H69.4692V57.116L71.6694 57.1731C71.898 57.1731 72.098 57.2017 72.2694 57.2303C72.4123 57.2874 72.5552 57.3732 72.6981 57.4589C72.8409 57.5732 72.9552 57.716 73.0409 57.9161C73.0981 58.0875 73.1552 58.3161 73.1552 58.5733ZM72.298 58.459C72.298 58.3447 72.2694 58.2304 72.2409 58.1447C72.1837 58.0589 72.1266 58.0018 72.0409 57.9732C71.9551 57.9161 71.8694 57.8875 71.7837 57.8875C71.698 57.8589 70.6979 57.8589 70.555 57.8589H70.4407V59.4019H70.4979C70.5836 59.4019 70.6693 59.4019 70.755 59.4019C70.8407 59.4019 71.7837 59.4019 71.8408 59.4019C71.898 59.3733 71.9551 59.3733 72.0123 59.3448C72.0694 59.2876 72.098 59.259 72.1551 59.2305C72.2123 59.1733 72.2409 59.0876 72.2694 59.0019C72.298 58.9162 72.298 58.6018 72.298 58.459Z" fill="#333333"/>
<path d="M75.4983 55.5444L77.5556 51.0583H78.4414L80.4987 55.5159H79.4987L79.1272 54.6301H76.8984L76.4698 55.5444H75.4983ZM78.8129 53.83L78.0414 52.087L77.2985 53.83H78.8129Z" fill="#333333"/>
<path d="M59.8398 52.4299C59.8398 52.6299 59.8112 52.8299 59.754 53.0013C59.6969 53.2014 59.6112 53.3442 59.4969 53.4871C59.4397 53.5728 59.3826 53.63 59.2969 53.6871C59.2111 53.7728 59.1254 53.83 59.0397 53.8586C58.954 53.9157 58.8397 53.9443 58.7254 53.9729C58.6111 54.0014 58.4968 54.0014 58.3539 54.0014L57.1252 53.9729V55.4301H56.1537V50.9726L58.3825 51.0012C58.5825 51.0297 58.7825 51.0297 58.954 51.0869C59.0968 51.1155 59.2683 51.2012 59.3826 51.3155C59.5254 51.4298 59.6397 51.5726 59.7255 51.7441C59.8112 51.9441 59.8398 52.1727 59.8398 52.4299ZM59.0111 52.3441C59.0111 52.2013 58.9825 52.087 58.9254 52.0013C58.8682 51.9155 58.8111 51.8584 58.7254 51.8298C58.6397 51.7727 58.5539 51.7441 58.4682 51.7441C58.3825 51.7441 57.411 51.7441 57.2681 51.7441H57.1252V53.2871H57.1824C57.2681 53.2871 57.3538 53.2585 57.4395 53.2585C57.5253 53.2585 58.4682 53.2585 58.5254 53.2585C58.5825 53.2299 58.6397 53.2299 58.6968 53.2014C58.7539 53.1728 58.8111 53.1156 58.8397 53.0871C58.8968 53.0299 58.954 52.9442 58.954 52.8585C58.9825 52.7727 59.0111 52.4584 59.0111 52.3441Z" fill="#333333"/>
<path d="M86.2993 49.4582L88.3566 44.9721H89.2424L91.2997 49.4296H90.2996L89.9567 48.5152H87.6994L87.2708 49.4582H86.2993ZM89.6138 47.7152L88.8424 46.0007L88.0994 47.7152H89.6138Z" fill="#333333"/>
<path d="M75.7269 49.4582L77.7842 44.9721H78.6414L80.6988 49.4296H79.7273L79.3558 48.5152H77.0984L76.6984 49.4582H75.7269ZM79.0415 47.7152L78.27 46.0007L77.5271 47.7152H79.0415Z" fill="#333333"/>
<path d="M75.0697 48.058C75.0697 48.2866 75.0411 48.4867 74.9554 48.6581C74.8982 48.801 74.8125 48.9438 74.6697 49.0581C74.5268 49.201 74.3839 49.2867 74.2125 49.3439C74.041 49.401 73.441 49.4296 73.1838 49.4296H71.2408V44.9721H72.9838C73.2695 44.9721 73.8696 44.9721 74.0125 45.0006C74.1553 45.0292 74.2982 45.0863 74.4125 45.1721C74.5554 45.2578 74.6411 45.3721 74.7268 45.515C74.7839 45.6578 74.8125 45.8293 74.8125 46.0007C74.8125 46.2293 74.784 46.4293 74.6697 46.6008C74.5839 46.7436 74.4696 46.8865 74.2982 46.9722C74.5268 47.0294 74.7268 47.1722 74.8697 47.3437C75.0125 47.5151 75.0697 47.7723 75.0697 48.058ZM73.9267 46.2293C73.9267 46.1436 73.8982 46.0864 73.8696 46.0007C73.841 45.9436 73.7839 45.8864 73.7267 45.8293C73.6696 45.8007 73.5838 45.8007 73.4981 45.8007C73.4124 45.7721 72.4123 45.7721 72.2409 45.7721H72.1551V46.7436H72.2694C72.4409 46.7436 73.441 46.7151 73.4981 46.7151C73.5838 46.7151 73.641 46.6865 73.6981 46.6579C73.7839 46.6293 73.841 46.5722 73.8696 46.4865C73.8982 46.4008 73.9267 46.315 73.9267 46.2293ZM74.1553 48.058C74.1553 47.9152 74.1267 47.8009 74.0982 47.7152C74.041 47.6294 73.9553 47.5723 73.8696 47.5437C73.8124 47.5151 73.7267 47.5151 73.641 47.4866C73.5267 47.4866 72.498 47.4866 72.3266 47.4866H72.1551V48.6009H72.2123C72.4695 48.6009 73.5267 48.6009 73.6124 48.6009C73.6981 48.6009 73.8124 48.5724 73.8982 48.5152C73.9839 48.4867 74.0696 48.4295 74.0982 48.3438C74.1267 48.2581 74.1553 48.1438 74.1553 48.058Z" fill="#333333"/>
<path d="M57.7253 61.8021C56.9824 61.8021 56.3537 61.4592 55.8108 60.9163L56.6109 60.3449C57.2681 61.1164 58.8111 61.0878 58.8111 60.4592C58.8111 59.8019 57.6681 59.8591 57.0681 59.6305C56.6966 59.5162 56.3823 59.4305 56.2109 59.2019C56.068 58.9733 55.9823 58.7161 55.9823 58.3732C55.9823 57.9446 56.1823 57.5732 56.5538 57.316C56.9538 57.0303 57.3824 56.9446 57.9539 56.9446C58.6682 56.9446 59.4112 57.316 59.7826 57.7446L59.1254 58.2875C59.0683 58.2875 58.7539 57.8018 58.0682 57.7732C57.6967 57.716 57.0109 57.8303 57.0109 58.2304C57.0109 59.0019 58.8682 58.6876 59.5826 59.5448C59.7255 59.7448 59.8398 59.9162 59.8398 60.2306C59.8398 60.6877 59.6683 61.0878 59.2683 61.3735C58.8968 61.6593 58.3825 61.7736 57.7253 61.8021Z" fill="#333333"/>
<path d="M88.2994 55.5444H87.4422V51.0869H88.2709L88.2994 55.5444Z" fill="#333333"/>
<path d="M74.5268 54.1157C74.5268 54.3157 74.4982 54.4872 74.4411 54.6586C74.3839 54.8301 74.2982 54.9729 74.1839 55.1158C74.041 55.2301 73.9267 55.373 73.7267 55.4301C73.4981 55.573 72.9552 55.6301 72.7266 55.6587C71.9266 55.6873 71.0408 55.373 70.6979 54.5158V53.63C70.8407 53.63 71.3836 53.6014 71.4122 53.6014C71.4122 54.4015 71.6694 54.8301 72.7552 54.8015C73.1267 54.7729 73.6981 54.5729 73.7267 54.0014C73.7267 53.8586 73.7267 53.7157 73.7267 53.5728V51.8012L72.5266 51.7727V50.9726H74.5268V54.1157Z" fill="#333333"/>
<path d="M69.4978 55.4301H68.812L66.6118 52.3156V55.4301H65.6974V50.9726H66.6118L68.6691 53.7443V50.9726H69.4978V55.4301Z" fill="#333333"/>
<path d="M85.5278 48.9724C84.9563 49.3724 84.2991 49.5153 83.6419 49.5153C82.3561 49.5153 81.5274 48.4295 81.5274 47.2294C81.5274 46.0007 82.3561 44.8863 83.6705 44.8863C84.642 44.8863 85.042 45.0863 85.5563 45.6578L85.1277 46.3436C84.9563 46.1436 84.7563 46.0293 84.5848 45.915C83.5276 45.2006 82.156 46.0864 82.2703 47.258C82.3846 48.2866 82.9561 48.7152 83.8991 48.7152C84.2134 48.7152 84.4991 48.6581 84.7563 48.4295V47.8009H83.7276V46.9722L85.6135 46.9437L85.5278 48.9724Z" fill="#333333"/>
<path d="M69.8692 49.4296H68.9834V46.4008L67.6119 48.0866H67.3261L65.9546 46.2007V49.4296H65.2117V44.9721H66.0975L67.4404 46.8579L69.0406 44.9721H69.8692V49.4296Z" fill="#333333"/>
<path d="M60.5541 49.4296V44.9721H63.8115V45.8293H61.3828V46.6008H63.6972V47.458H61.3828V48.5724H63.8115V49.4296H60.5541Z" fill="#333333"/>
<path d="M59.4111 49.4582L56.1537 49.4296V44.9721H57.0109V48.6867L59.4111 48.7152V49.4582Z" fill="#333333"/>
<path d="M61.097 55.5444V51.0869H64.3544V51.9441H61.9257V52.7156H64.2402V53.5728H61.9257V54.6872H64.3544V55.5444H61.097Z" fill="#333333"/>
<path d="M86.2707 55.5444H85.3849V52.5156L84.0133 54.2014H83.7276L82.3561 52.287V55.5159L81.6131 55.5444V51.0869H82.4989L83.8133 52.9728L85.442 51.0869H86.2707V55.5444Z" fill="#333333"/>
<path d="M93.5285 55.5444H92.8427L90.6139 52.4299V55.5444H89.6996V51.0869H90.6139L92.6713 53.8586V51.0869H93.5285V55.5444Z" fill="#333333"/>
<path d="M61.8114 61.5164H60.9541V57.0588H61.7828L61.8114 61.5164Z" fill="#333333"/>
<path d="M68.0119 61.5735H67.1261L67.0976 58.5447L65.7546 60.2591H65.4403L64.0687 58.3447V61.5735H63.3258V57.116H64.2116L65.5546 59.0305L67.1547 57.116H68.0119V61.5735Z" fill="#333333"/>
<path d="M83.4704 61.6593H82.7847L80.5845 58.5447V61.6593H79.6701V57.2017H80.5845L82.6418 59.9734V57.2017H83.4704V61.6593Z" fill="#333333"/>
<path d="M94.1857 61.5735H93.4999L91.2711 58.459V61.5735H90.3568V57.116H91.2711L93.357 59.8877V57.116H94.1857V61.5735Z" fill="#333333"/>
<path fill-rule="evenodd" clip-rule="evenodd" d="M56.0966 42.1718H94.5V42.6576H56.0966V42.1718Z" fill="#333333"/>
<path fill-rule="evenodd" clip-rule="evenodd" d="M56.0966 64.4309H94.5V64.9167H56.0966V64.4309Z" fill="#333333"/>
</svg>
