<svg width="108" height="108" viewBox="0 0 108 108" fill="none" xmlns="http://www.w3.org/2000/svg">
<g clip-path="url(#clip0_801_8635)">
<path d="M79.744 14H28.256C20.3826 14 14 20.3826 14 28.256V79.744C14 87.6174 20.3826 94 28.256 94H79.744C87.6174 94 94 87.6174 94 79.744V28.256C94 20.3826 87.6174 14 79.744 14Z" fill="#C1C1C3"/>
<path d="M30.4801 17.456H77.5201C84.7073 17.456 90.5441 23.2928 90.5441 30.48V77.52C90.5441 84.7072 84.7073 90.544 77.5201 90.544H30.4801C23.2929 90.544 17.4561 84.7072 17.4561 77.52V30.48C17.4561 23.2928 23.2929 17.456 30.4801 17.456Z" fill="#103B99"/>
<path d="M70.2241 38.5856L61.3953 55.7888H70.0097L71.7473 51.648H77.0401L77.0689 55.7888H84.7809L83.7409 31.6512H72.1089L68.2145 38.5888H70.2241V38.5856ZM76.7841 39.5648L76.8513 46.1312H73.9585L76.7809 39.5648H76.7841Z" fill="white"/>
<path d="M34.992 55.7888C40.1728 55.7888 44.0032 52.0928 44.0032 48.1376C44.0032 46.5024 43.7824 44.1856 41.2032 43.2448C43.7056 41.984 45.9872 39.5488 45.9872 36.7968C45.9872 33.8112 43.6704 31.744 39.8432 31.7216C36.7328 31.6992 29.6672 31.7216 29.6672 31.7216L25.9328 38.9408L27.7472 38.9504L23.3728 55.7888H34.9888H34.992ZM35.0272 38.0544L37.2384 38.064C37.8656 38.064 39.1776 38.1088 38.7936 39.7632C38.4448 41.2896 37.0464 41.488 36.256 41.488H34.2048L35.024 38.0544H35.0272ZM33.1168 45.7312H35.8496C36.8864 45.7312 37.7216 46.5952 37.3792 47.888C37.0304 49.1744 35.7696 49.6896 34.7264 49.6896H32.08L33.1136 45.7344L33.1168 45.7312Z" fill="white"/>
<path d="M56.0321 56.6464C57.5073 56.6016 59.1841 56.3008 59.9553 56.0544L63.8081 48.1632C62.6913 49.0208 60.3553 50.2336 58.0321 50.1824C53.9937 50.0928 52.4801 47.5648 52.4993 45.344C52.5313 42.2016 55.1073 38.9472 59.3761 38.8704C61.5457 38.832 63.4145 39.8208 64.8097 40.944L68.5921 34.1952L63.4401 31.4528L62.7553 32.352C62.1921 32.032 61.2033 31.888 60.5889 31.888C50.5793 31.888 44.7361 40.0768 44.7329 46.8096C44.7329 51.904 47.8401 56.8864 56.0257 56.6464H56.0321Z" fill="white"/>
<path d="M37.4145 65.776C35.9617 65.776 34.6401 66.48 33.4529 67.8816C33.3633 67.2224 33.1137 66.7072 32.7073 66.3328C32.2977 65.9616 31.7665 65.7728 31.1137 65.7728C29.6929 65.7728 28.4449 66.4192 27.3601 67.7088L27.6705 66.0096H26.0129C25.8657 66.7616 25.6385 67.7152 25.3281 68.8704L23.3057 76.416H25.1681L26.8321 70.2016C27.0305 69.456 27.4497 68.8032 28.0897 68.2464C28.7265 67.6864 29.3633 67.408 29.9969 67.408C30.6305 67.408 31.0977 67.664 31.3377 68.176C31.5745 68.688 31.5777 69.3856 31.3377 70.2656L29.6897 76.416H31.5521L33.2641 70.032C33.4689 69.264 33.8753 68.6368 34.4801 68.144C35.0849 67.6544 35.6929 67.408 36.3009 67.408C37.0049 67.408 37.4721 67.6832 37.7025 68.2368C37.9329 68.7872 37.9105 69.5808 37.6353 70.6112L36.0801 76.416H37.9425L39.5617 70.3744C39.9649 68.8704 39.9553 67.728 39.5297 66.944C39.1041 66.1632 38.4001 65.7728 37.4177 65.7728L37.4145 65.776Z" fill="white"/>
<path d="M48.0384 65.776C46.5568 65.776 45.1968 66.2752 43.9584 67.2768C42.7168 68.2752 41.872 69.6192 41.4208 71.3024C40.9952 72.8864 41.1232 74.176 41.7984 75.168C42.4736 76.16 43.536 76.656 44.9824 76.656C45.9104 76.656 46.8352 76.4288 47.7536 75.9776C48.672 75.5264 49.4656 74.88 50.1344 74.0416C50.8032 73.2032 51.2864 72.224 51.5872 71.1072C52.0064 69.5392 51.8912 68.256 51.2352 67.264C50.5792 66.272 49.5168 65.776 48.0416 65.776H48.0384ZM49.5808 71.1712C49.2672 72.3456 48.7104 73.3056 47.9136 74.0512C47.1168 74.7968 46.272 75.168 45.3792 75.168C44.4864 75.168 43.8784 74.7968 43.4976 74.0544C43.1168 73.312 43.0784 72.3712 43.3824 71.232C43.6864 70.0928 44.2208 69.1456 44.9792 68.3904C45.7376 67.6352 46.5984 67.2576 47.5616 67.2576C48.5248 67.2576 49.1552 67.6384 49.5008 68.4032C49.8464 69.168 49.872 70.0896 49.584 71.1712H49.5808Z" fill="white"/>
<path d="M60.6464 65.776C59.0368 65.776 57.696 66.4224 56.6272 67.712L58.3968 61.1104H56.4512L53.0816 73.6864C52.7712 74.848 52.4992 75.7568 52.2688 76.416H53.9264L54.4704 74.6976C54.9056 76.0032 55.8976 76.6528 57.4464 76.6528C58.736 76.6528 59.9648 76.1472 61.1328 75.1328C62.3008 74.1184 63.1136 72.7616 63.568 71.0624C63.984 69.5072 63.92 68.2368 63.3696 67.2512C62.8224 66.2656 61.9136 65.7728 60.6432 65.7728L60.6464 65.776ZM61.6224 71.152C61.3024 72.3488 60.768 73.2992 60.0224 74.0064C59.2768 74.7136 58.4288 75.0656 57.4816 75.0656C56.6688 75.0656 56.0672 74.7744 55.6736 74.1952C55.28 73.616 55.1872 72.9376 55.3952 72.1632L55.8496 70.464C56.0704 69.6384 56.544 68.9152 57.2736 68.288C58 67.6608 58.7744 67.3472 59.5936 67.3472C60.5216 67.3472 61.1648 67.7024 61.5264 68.416C61.888 69.1296 61.92 70.0416 61.6224 71.152Z" fill="white"/>
<path d="M64.3232 76.4192H66.2272L69.0144 66.0128H67.1136L64.3232 76.4192Z" fill="white"/>
<path d="M68.2721 61.9648C67.9777 62.2048 67.7857 62.4992 67.6929 62.8512C67.5969 63.2096 67.6289 63.5104 67.7889 63.7536C67.9489 63.9968 68.2049 64.1184 68.5601 64.1184C68.9153 64.1184 69.2577 63.9968 69.5489 63.7536C69.8401 63.5104 70.0321 63.2096 70.1281 62.8512C70.2209 62.4992 70.1857 62.2048 70.0225 61.9648C69.8593 61.7248 69.6033 61.6032 69.2545 61.6032C68.9057 61.6032 68.5665 61.7248 68.2721 61.9648Z" fill="white"/>
<path d="M73.2545 61.1104L69.1553 76.4192H71.0593L75.1585 61.1104H73.2545Z" fill="white"/>
<path d="M80.9314 65.776C79.4498 65.776 78.1282 66.3136 76.9634 67.3888C75.7986 68.464 75.0018 69.7952 74.5762 71.3888C74.1506 72.9792 74.2658 74.256 74.9218 75.216C75.5778 76.176 76.6786 76.656 78.221 76.656C79.5522 76.656 80.765 76.4256 81.8658 75.968L81.9138 74.5696C80.9922 74.928 79.981 75.1072 78.8834 75.1072C77.8722 75.1072 77.133 74.8096 76.6562 74.208C76.1826 73.6096 76.0834 72.7488 76.3554 71.6224H83.5394C83.6354 71.4144 83.7378 71.1136 83.8434 70.72C84.2146 69.3376 84.1634 68.1664 83.6898 67.2096C83.2162 66.2528 82.2978 65.776 80.9314 65.776ZM82.1442 70.1824H76.7618C77.117 69.2864 77.6226 68.5632 78.2722 68.016C78.925 67.4688 79.6354 67.1936 80.4066 67.1936C81.2194 67.1936 81.7698 67.4688 82.0642 68.016C82.3586 68.5632 82.3842 69.2864 82.1442 70.1824Z" fill="white"/>
<path opacity="0.16" d="M79.744 14H28.256C20.3808 14 14 20.3808 14 28.256V47.7472C25.0016 51.6864 38.2912 53.9936 52.608 53.9936C68.1536 53.9936 82.4896 51.2736 94 46.6944V28.256C94 20.384 87.6192 14 79.744 14Z" fill="white"/>
</g>
<defs>
<clipPath id="clip0_801_8635">
<rect width="80" height="80" fill="white" transform="translate(14 14)"/>
</clipPath>
</defs>
</svg>
