<svg width="108" height="108" viewBox="0 0 108 108" fill="none" xmlns="http://www.w3.org/2000/svg">
<path d="M14 32.6047C14 22.3296 22.3296 14 32.6047 14H75.3953C85.6704 14 94 22.3296 94 32.6047V75.3953C94 85.6704 85.6704 94 75.3953 94H32.6047C22.3296 94 14 85.6704 14 75.3953V32.6047Z" fill="#FF3400"/>
<path d="M22.5141 64.3524V55.1735H24.1848V56.4317C24.5149 55.9917 24.8999 55.6341 25.3399 55.3591C25.7937 55.0841 26.3163 54.9466 26.9076 54.9466C27.8014 54.9466 28.4615 55.0841 28.8878 55.3591C29.3278 55.6204 29.7128 56.0192 30.0429 56.5555C30.4554 55.9917 30.9092 55.586 31.4043 55.3385C31.8993 55.0772 32.4356 54.9466 33.0131 54.9466C33.7557 54.9466 34.3539 55.0566 34.8077 55.2766C35.2615 55.4966 35.6053 55.7785 35.839 56.1223C36.0728 56.4661 36.2309 56.8442 36.3135 57.2568C36.396 57.6556 36.4372 58.0406 36.4372 58.4119V64.3524H34.7664V58.4119C34.7664 57.7243 34.6014 57.1674 34.2714 56.7411C33.9414 56.3148 33.4188 56.1017 32.7037 56.1017C32.2637 56.1017 31.8649 56.2254 31.5074 56.473C31.1499 56.7205 30.868 57.023 30.6617 57.3805C30.4554 57.7381 30.3523 58.0819 30.3523 58.4119V64.3524H28.6815V58.4119C28.6815 58.0131 28.599 57.6418 28.434 57.298C28.269 56.9405 28.0352 56.6517 27.7327 56.4317C27.4301 56.2117 27.0726 56.1017 26.6601 56.1017C26.1788 56.1017 25.7525 56.2323 25.3812 56.4936C25.0099 56.7411 24.7143 57.0436 24.4942 57.4012C24.288 57.7587 24.1848 58.0956 24.1848 58.4119V64.3524H22.5141Z" fill="white"/>
<path d="M43.1616 64.6C42.3228 64.6 41.5596 64.4281 40.872 64.0843C40.1982 63.7268 39.655 63.1905 39.2425 62.4754C38.8437 61.7603 38.6443 60.8596 38.6443 59.7733C38.6443 58.6732 38.8437 57.7656 39.2425 57.0505C39.655 56.3355 40.1982 55.806 40.872 55.4622C41.5596 55.1185 42.3228 54.9466 43.1616 54.9466C43.9867 54.9466 44.743 55.1185 45.4305 55.4622C46.1181 55.806 46.6613 56.3355 47.0601 57.0505C47.4726 57.7656 47.6789 58.6732 47.6789 59.7733C47.6789 60.8596 47.4726 61.7603 47.0601 62.4754C46.6613 63.1905 46.1181 63.7268 45.4305 64.0843C44.743 64.4281 43.9867 64.6 43.1616 64.6ZM43.1616 63.4036C43.8079 63.4036 44.3304 63.2248 44.7292 62.8673C45.1418 62.496 45.4443 62.0354 45.6368 61.4853C45.8431 60.9215 45.9462 60.3508 45.9462 59.7733C45.9462 59.1957 45.8431 58.625 45.6368 58.0612C45.4443 57.4974 45.1418 57.0299 44.7292 56.6586C44.3304 56.2873 43.8079 56.1017 43.1616 56.1017C42.5015 56.1017 41.9652 56.2873 41.5527 56.6586C41.1401 57.0299 40.8307 57.4974 40.6245 58.0612C40.432 58.625 40.3357 59.1957 40.3357 59.7733C40.3357 60.3508 40.432 60.9215 40.6245 61.4853C40.8307 62.0354 41.1401 62.496 41.5527 62.8673C41.9652 63.2248 42.5015 63.4036 43.1616 63.4036Z" fill="white"/>
<path d="M54.5889 64.6C53.8738 64.6 53.255 64.4693 52.7325 64.208C52.2237 63.933 51.8111 63.6236 51.4948 63.2798V64.3524H49.8241V51.0893H51.433V56.4317C51.6667 56.0879 52.0243 55.7579 52.5056 55.4416C53.0006 55.1116 53.6882 54.9466 54.5683 54.9466C55.3246 54.9466 55.9571 55.0978 56.4659 55.4004C56.9747 55.6891 57.3735 56.0673 57.6623 56.5348C57.9648 57.0024 58.178 57.4906 58.3017 57.9994C58.4255 58.5082 58.4874 58.9688 58.4874 59.3814C58.4874 60.509 58.288 61.4647 57.8892 62.2485C57.5041 63.0186 57.0091 63.603 56.404 64.0018C55.8127 64.4006 55.2077 64.6 54.5889 64.6ZM54.0938 63.3623C54.8227 63.3623 55.4346 63.0254 55.9296 62.3516C56.4384 61.6778 56.6928 60.7496 56.6928 59.567C56.6928 58.9482 56.6103 58.3706 56.4453 57.8343C56.294 57.2843 56.0328 56.8442 55.6615 56.5142C55.2902 56.1704 54.7814 55.9985 54.1351 55.9985C53.53 55.9985 53.0281 56.1773 52.6293 56.5348C52.2305 56.8786 51.9349 57.3255 51.7424 57.8756C51.5636 58.4119 51.4742 58.9757 51.4742 59.567C51.4742 60.8046 51.6942 61.7466 52.1343 62.3929C52.5743 63.0392 53.2275 63.3623 54.0938 63.3623Z" fill="white"/>
<path d="M60.6532 64.3524V55.1735H62.324V64.3524H60.6532ZM60.5913 52.7808V51.0893H62.3858V52.7808H60.5913Z" fill="white"/>
<path d="M64.8611 64.3524V51.0893H66.5319V64.3524H64.8611Z" fill="white"/>
<path d="M72.9056 64.6C72.1492 64.6 71.5029 64.4487 70.9666 64.1462C70.4303 63.8436 69.9972 63.4517 69.6671 62.9704C69.3509 62.4891 69.1171 61.9666 68.9658 61.4028C68.8146 60.839 68.7389 60.2958 68.7389 59.7733C68.7389 59.1957 68.8077 58.625 68.9452 58.0612C69.0965 57.4974 69.3371 56.9818 69.6671 56.5142C69.9972 56.0329 70.4372 55.6548 70.9873 55.3797C71.5373 55.091 72.218 54.9466 73.0293 54.9466C73.9232 54.9466 74.6382 55.0978 75.1745 55.4004C75.7246 55.6891 76.1371 56.0604 76.4121 56.5142C76.6872 56.9543 76.8728 57.4149 76.9691 57.8962C77.0653 58.3775 77.1135 58.7969 77.1135 59.1545C77.1135 59.457 77.0928 59.7458 77.0516 60.0208H70.4922C70.4922 60.6533 70.5747 61.224 70.7397 61.7328C70.9048 62.2416 71.166 62.6473 71.5236 62.9498C71.8811 63.2523 72.3555 63.4036 72.9468 63.4036C73.5106 63.4036 73.9575 63.2936 74.2876 63.0736C74.6176 62.8536 74.8582 62.5923 75.0095 62.2897C75.1608 61.9735 75.257 61.6847 75.2983 61.4234H77.0516C76.9691 61.9185 76.7697 62.4135 76.4534 62.9086C76.1509 63.3898 75.7108 63.7955 75.1333 64.1255C74.5557 64.4418 73.8132 64.6 72.9056 64.6ZM70.4922 58.8244H75.2983C75.312 58.7557 75.3189 58.6869 75.3189 58.6182C75.3189 58.5494 75.3189 58.4806 75.3189 58.4119C75.3189 58.0131 75.2433 57.6418 75.092 57.298C74.9408 56.9405 74.6932 56.6517 74.3494 56.4317C74.0057 56.2117 73.5381 56.1017 72.9468 56.1017C72.3555 56.1017 71.888 56.2598 71.5442 56.5761C71.2142 56.8786 70.9666 57.243 70.8016 57.6693C70.6504 58.0819 70.5472 58.4669 70.4922 58.8244Z" fill="white"/>
<path d="M27.2789 80.108C26.5638 80.108 25.945 79.9774 25.4225 79.7161C24.9137 79.4411 24.5011 79.1317 24.1848 78.7879V79.8605H22.5141V66.5974H24.123V71.9398C24.3567 71.596 24.7143 71.2659 25.1956 70.9497C25.6906 70.6196 26.3782 70.4546 27.2582 70.4546C28.0146 70.4546 28.6471 70.6059 29.1559 70.9084C29.6647 71.1972 30.0635 71.5753 30.3523 72.0429C30.6548 72.5104 30.868 72.9986 30.9917 73.5074C31.1155 74.0162 31.1774 74.4769 31.1774 74.8894C31.1774 76.017 30.978 76.9727 30.5792 77.7565C30.1941 78.5266 29.6991 79.111 29.094 79.5098C28.5027 79.9086 27.8977 80.108 27.2789 80.108ZM26.7838 78.8704C27.5126 78.8704 28.1246 78.5335 28.6196 77.8597C29.1284 77.1859 29.3828 76.2576 29.3828 75.075C29.3828 74.4562 29.3003 73.8787 29.1353 73.3424C28.984 72.7923 28.7228 72.3523 28.3515 72.0223C27.9802 71.6785 27.4714 71.5066 26.8251 71.5066C26.22 71.5066 25.7181 71.6854 25.3193 72.0429C24.9205 72.3867 24.6249 72.8336 24.4324 73.3836C24.2536 73.9199 24.1642 74.4837 24.1642 75.075C24.1642 76.3127 24.3842 77.2546 24.8243 77.9009C25.2643 78.5472 25.9175 78.8704 26.7838 78.8704Z" fill="white"/>
<path d="M36.0767 80.108C35.5541 80.108 35.0178 80.0117 34.4678 79.8192C33.9315 79.6267 33.4777 79.3311 33.1064 78.9323C32.7351 78.5335 32.5495 78.0384 32.5495 77.4471C32.5495 76.7458 32.7007 76.1751 33.0032 75.7351C33.3195 75.2951 33.7252 74.9582 34.2202 74.7244C34.729 74.4769 35.2722 74.3118 35.8498 74.2293C36.4411 74.1331 37.0049 74.0849 37.5412 74.0849H38.7994C38.7994 73.2461 38.6756 72.6411 38.4281 72.2698C38.1806 71.8847 37.6374 71.6922 36.7986 71.6922C36.4961 71.6922 36.1867 71.7404 35.8704 71.8366C35.5541 71.9191 35.286 72.0704 35.0659 72.2904C34.8597 72.4967 34.7565 72.7855 34.7565 73.1567H33.0445C33.0445 72.4279 33.2233 71.871 33.5808 71.486C33.9521 71.1009 34.4196 70.8328 34.9834 70.6815C35.5472 70.5302 36.1317 70.4546 36.7367 70.4546C37.1493 70.4546 37.5962 70.489 38.0775 70.5578C38.5725 70.6265 39.0194 70.7709 39.4182 70.9909C39.8307 71.2109 40.1195 71.5478 40.2845 72.0016C40.367 72.2079 40.4152 72.5379 40.4289 72.9917C40.4564 73.4455 40.4702 73.8718 40.4702 74.2706V77.2821C40.4702 77.7084 40.4839 78.1828 40.5114 78.7054C40.5527 79.2142 40.6214 79.5992 40.7177 79.8605H39.0882C39.0332 79.6267 38.985 79.4067 38.9438 79.2004C38.9163 78.9941 38.8888 78.7741 38.8613 78.5404C38.435 79.0767 38.0156 79.4754 37.603 79.7367C37.1905 79.9842 36.6817 80.108 36.0767 80.108ZM36.0767 78.8704C36.8467 78.8704 37.4243 78.7122 37.8093 78.396C38.1943 78.0659 38.4487 77.6328 38.5725 77.0965C38.71 76.5602 38.7788 75.9757 38.7788 75.3432C38.6825 75.3294 38.5313 75.3157 38.325 75.3019C38.1325 75.2882 37.9743 75.2813 37.8506 75.2813C37.548 75.2813 37.1905 75.3088 36.778 75.3638C36.3792 75.4188 35.9873 75.522 35.6022 75.6732C35.2172 75.8107 34.894 76.0101 34.6328 76.2714C34.3852 76.5189 34.2615 76.8421 34.2615 77.2409C34.2615 77.7497 34.4403 78.1484 34.7978 78.4372C35.1553 78.726 35.5816 78.8704 36.0767 78.8704Z" fill="white"/>
<path d="M42.6467 79.8605V70.6815H44.3175V71.8572C44.5925 71.4722 44.9363 71.1422 45.3489 70.8672C45.7751 70.5921 46.3596 70.4546 47.1021 70.4546C47.9822 70.4546 48.6767 70.599 49.1855 70.8878C49.708 71.1766 50.0793 71.5753 50.2993 72.0841C50.5193 72.5929 50.6293 73.1774 50.6293 73.8374V79.8605H48.9998V73.7755C48.9998 73.363 48.8967 72.9917 48.6904 72.6617C48.4841 72.3179 48.2091 72.0498 47.8653 71.8572C47.5216 71.651 47.1434 71.5478 46.7309 71.5478C46.0845 71.5478 45.5207 71.7747 45.0395 72.2285C44.5582 72.6686 44.3175 73.2324 44.3175 73.9199V79.8605H42.6467Z" fill="white"/>
<path d="M52.7646 79.8605V66.5974H54.4354V74.5181L57.942 70.6815H60.0047L56.3331 74.6625L60.2935 79.8605H58.0864L54.4354 74.9719V79.8605H52.7646Z" fill="white"/>
<path d="M61.5005 79.8605V70.6815H63.1713V79.8605H61.5005ZM61.4387 68.2888V66.5974H63.2332V68.2888H61.4387Z" fill="white"/>
<path d="M65.286 79.8605V70.6815H66.9568V71.8572C67.2318 71.4722 67.5756 71.1422 67.9881 70.8672C68.4144 70.5921 68.9988 70.4546 69.7414 70.4546C70.6215 70.4546 71.3159 70.599 71.8247 70.8878C72.3473 71.1766 72.7185 71.5753 72.9386 72.0841C73.1586 72.5929 73.2686 73.1774 73.2686 73.8374V79.8605H71.6391V73.7755C71.6391 73.363 71.5359 72.9917 71.3297 72.6617C71.1234 72.3179 70.8484 72.0498 70.5046 71.8572C70.1608 71.651 69.7827 71.5478 69.3701 71.5478C68.7238 71.5478 68.16 71.7747 67.6787 72.2285C67.1974 72.6686 66.9568 73.2324 66.9568 73.9199V79.8605H65.286Z" fill="white"/>
<path d="M79.2199 83.5114C78.4636 83.5114 77.8447 83.4014 77.3635 83.1814C76.8822 82.9751 76.504 82.707 76.229 82.377C75.9677 82.0607 75.7821 81.7375 75.672 81.4075C75.5758 81.0912 75.5277 80.8231 75.5277 80.6031H77.2397C77.2397 81.0156 77.3497 81.3525 77.5697 81.6138C77.8035 81.875 78.0923 82.0676 78.4361 82.1913C78.7936 82.3151 79.158 82.377 79.5293 82.377C80.3819 82.377 81.0075 82.0676 81.4063 81.4488C81.8189 80.8437 82.0251 79.7505 82.0251 78.1691C81.7776 78.6091 81.3719 78.9598 80.8081 79.221C80.2443 79.4823 79.6805 79.613 79.1167 79.613C77.8791 79.613 76.8959 79.2348 76.1671 78.4785C75.4383 77.7222 75.0739 76.5533 75.0739 74.9719C75.0739 74.1056 75.232 73.3355 75.5483 72.6617C75.8783 71.9741 76.3321 71.4378 76.9097 71.0528C77.501 70.654 78.1748 70.4546 78.9311 70.4546C79.7424 70.4546 80.3956 70.5509 80.8906 70.7434C81.3857 70.9222 81.7639 71.2384 82.0251 71.6922V70.6815H83.6959V79.3448C83.6959 80.1286 83.524 80.8368 83.1802 81.4694C82.8502 82.1019 82.3483 82.597 81.6745 82.9545C81.0144 83.3258 80.1962 83.5114 79.2199 83.5114ZM79.3436 78.4372C79.9899 78.4372 80.5056 78.2722 80.8906 77.9422C81.2894 77.6121 81.5713 77.1859 81.7364 76.6633C81.9151 76.1408 82.0045 75.5907 82.0045 75.0132C82.0045 74.0368 81.7914 73.2255 81.3651 72.5792C80.9388 71.9329 80.2306 71.6097 79.2405 71.6097C78.6079 71.6097 78.106 71.761 77.7347 72.0635C77.3772 72.366 77.1228 72.7717 76.9715 73.2805C76.834 73.7893 76.7653 74.3531 76.7653 74.9719C76.7653 76.017 76.9784 76.8558 77.4047 77.4884C77.8447 78.1209 78.491 78.4372 79.3436 78.4372Z" fill="white"/>
<path d="M22.575 48.2325V25.8599H31.7607C32.9437 25.8599 34.0455 26.0686 35.0661 26.4862C36.0868 26.8805 36.9102 27.4836 37.5365 28.2955C38.1628 29.0841 38.476 30.0932 38.476 31.3226C38.476 32.2968 38.2672 33.1203 37.8497 33.793C37.4553 34.4424 36.9218 34.9992 36.2491 35.4631C35.5764 35.9038 34.8458 36.2981 34.0571 36.6461C35.1473 36.9708 36.0984 37.3652 36.9102 37.8291C37.7453 38.2698 38.3948 38.8613 38.8587 39.6036C39.3458 40.3459 39.5894 41.2969 39.5894 42.4567C39.5894 43.3846 39.3458 44.208 38.8587 44.9271C38.3948 45.6462 37.7801 46.2609 37.0146 46.7712C36.2491 47.2583 35.4257 47.6294 34.5442 47.8846C33.686 48.1166 32.8625 48.2325 32.0738 48.2325H22.575ZM27.1678 44.6835H30.4385C31.6447 44.6835 32.6769 44.4516 33.5352 43.9877C34.3934 43.5005 34.8226 42.6887 34.8226 41.5521C34.8226 40.7634 34.6022 40.1487 34.1615 39.708C33.7208 39.244 33.164 38.9193 32.4914 38.7337C31.8187 38.525 31.1344 38.4206 30.4385 38.4206H27.1678V44.6835ZM27.1678 34.9412H30.1254C30.7517 34.9412 31.3432 34.8368 31.8999 34.628C32.4798 34.4192 32.9553 34.1177 33.3264 33.7234C33.6976 33.3058 33.8831 32.8071 33.8831 32.2272C33.8831 31.5777 33.7092 31.0558 33.3612 30.6615C33.0133 30.2439 32.5725 29.9308 32.039 29.722C31.5287 29.5133 30.9952 29.4089 30.4385 29.4089H27.1678V34.9412Z" fill="white"/>
<path d="M43.4515 48.2325V25.8599H49.9233L58.5174 43.7441V25.8599H62.9015V48.2325H56.395L47.766 30.3483V48.2325H43.4515Z" fill="white"/>
<path d="M67.2508 48.2325V25.8599H71.8436V48.2325H67.2508Z" fill="white"/>
</svg>
