<svg width="108" height="108" viewBox="0 0 108 108" fill="none" xmlns="http://www.w3.org/2000/svg">
<path d="M78.6521 15.3844H29.3967C20.777 15.3844 14.0044 23.8888 14.0044 34.7127V73.3694C14.0044 84.1932 20.777 92.6977 29.3967 92.6977H78.6521C87.2717 92.6977 94.0444 84.1932 94.0444 73.3694V34.7127C94.0444 23.8888 87.2717 15.3844 78.6521 15.3844Z" fill="#00529C"/>
<path d="M39.3253 77.2843V68.7044C39.3253 67.9819 39.4354 67.2794 39.6556 66.597C40.1761 64.9914 41.0069 63.707 42.148 62.7436C43.3893 61.6799 44.8107 61.148 46.4122 61.148C48.1339 61.148 49.7555 61.8605 51.277 63.2855C52.6584 61.8605 54.2699 61.148 56.1117 61.148C57.7133 61.148 59.1447 61.6698 60.406 62.7135C61.6672 63.7571 62.508 65.0818 62.9284 66.6874C63.1286 67.45 63.2287 68.0722 63.2287 68.5539V77.2843H58.8144V68.7947C58.7744 68.4736 58.7543 68.293 58.7543 68.2528C58.6142 67.5504 58.3239 66.9483 57.8835 66.4465C57.383 65.8846 56.8024 65.6036 56.1418 65.6036C55.4811 65.6036 54.9006 65.8846 54.4001 66.4465C53.9796 66.9483 53.6994 67.5504 53.5592 68.2528C53.5392 68.3933 53.5192 68.5739 53.4992 68.7947V77.2843H49.0548V68.7044C49.0148 68.4033 48.9948 68.2428 48.9948 68.2227C48.8546 67.5203 48.5643 66.9182 48.1239 66.4164C47.6234 65.8745 47.0428 65.6036 46.3822 65.6036C45.6214 65.6036 44.9808 65.9749 44.4603 66.7175C43.9798 67.3798 43.7396 68.1123 43.7396 68.9151V77.2843H39.3253Z" fill="#F36F21"/>
<path d="M64.3098 69.2162C64.3098 67.0085 65.0906 65.1219 66.6521 63.5564C68.2136 61.991 70.0855 61.2082 72.2676 61.2082C74.4898 61.2082 76.3917 61.991 77.9732 63.5564C79.5548 65.1219 80.3456 67.0185 80.3456 69.2463C80.3456 71.4339 79.5548 73.3205 77.9732 74.906C76.4117 76.4916 74.5298 77.2843 72.3277 77.2843C70.1055 77.2843 68.2136 76.5016 66.6521 74.9361C65.0906 73.3506 64.3098 71.444 64.3098 69.2162ZM68.7241 69.2162C68.7241 70.2197 69.0745 71.0727 69.7752 71.7751C70.4759 72.4776 71.3267 72.8288 72.3277 72.8288C73.3086 72.8288 74.1495 72.4776 74.8502 71.7751C75.5709 71.0526 75.9312 70.1996 75.9312 69.2162C75.9312 68.2328 75.5709 67.3898 74.8502 66.6874C74.1295 65.9849 73.2786 65.6337 72.2977 65.6337C71.3167 65.6337 70.4759 65.9849 69.7752 66.6874C69.0745 67.3898 68.7241 68.2328 68.7241 69.2162Z" fill="#F36F21"/>
<path d="M46.1377 41.9613C46.3206 41.7819 46.5366 41.5512 46.7858 41.2688C47.0345 40.9864 47.27 40.6528 47.4925 40.2677C47.7151 39.8825 47.9051 39.4534 48.0619 38.9783C48.2194 38.5039 48.2982 37.997 48.2982 37.4582C48.2982 36.4067 48.1146 35.4253 47.7482 34.5142C47.3812 33.6036 46.8183 32.8078 46.0589 32.1274C45.2994 31.4483 44.3506 30.9152 43.2111 30.5301C42.0723 30.1456 40.7427 29.953 39.2245 29.953H29.2079V56.8944H40.2065C41.8035 56.8944 43.1974 56.6827 44.3896 56.2594C45.5805 55.836 46.5697 55.2525 47.3552 54.5083C48.1406 53.7642 48.7231 52.8983 49.1031 51.9106C49.4825 50.9229 49.6725 49.8643 49.6725 48.735C49.6725 47.2213 49.3191 45.8745 48.6124 44.6936C47.905 43.5139 47.08 42.6028 46.1377 41.9613ZM41.2745 34.8897C41.6447 35.0281 41.9539 35.2078 42.1953 35.4342C42.8207 36.0221 43.1337 36.7248 43.1337 37.5423C43.1337 38.2838 43.003 38.8966 42.7426 39.3819C42.4817 39.8678 42.2207 40.2382 41.9604 40.4933H34.3146V34.5714H39.0671C39.958 34.5714 40.6914 34.6792 41.2745 34.8897ZM40.4812 45.1559C41.8654 45.1559 42.891 45.5073 43.5587 46.2087C44.1867 46.8993 44.503 47.7142 44.503 48.6573C44.503 49.6291 44.1444 50.4587 43.4272 51.1486C42.7094 51.8385 41.5303 52.1842 39.8871 52.1842H34.3146V45.1559H40.4812ZM68.3197 45.2905C69.1443 44.739 69.8321 44.0975 70.382 43.3661C70.9318 42.6347 71.3373 41.8268 71.5995 40.9417C71.8612 40.056 71.9926 39.1518 71.9926 38.2279C71.9926 37.0221 71.7888 35.9126 71.3835 34.8987C70.9767 33.8855 70.3683 33.0132 69.5568 32.2817C68.7446 31.5503 67.7301 30.9796 66.5125 30.569C65.2949 30.159 63.8873 29.953 62.2903 29.953H51.4682V56.8945H56.6737V46.8878H59.5761L66.7548 56.8945H72.8563L65.4331 46.5415C66.5322 46.2597 67.4945 45.8427 68.3197 45.2905ZM62.3296 34.5716C62.6407 34.5715 62.9515 34.5907 63.2602 34.6289C64.1882 34.7659 64.9464 35.0906 65.5308 35.6064C66.326 36.3097 66.7236 37.1718 66.7236 38.1933C66.7239 38.7022 66.6379 39.2075 66.4692 39.6886C66.3025 40.1697 66.0286 40.6082 65.6674 40.9722C65.3017 41.3433 64.8324 41.643 64.2591 41.8732C63.6851 42.1034 62.994 42.2182 62.1858 42.2182H56.6738V34.5715L62.3296 34.5716ZM74.6946 29.953V29.9602L74.538 29.953H74.4938V56.8945H79.8014V29.9529L74.6946 29.953Z" fill="white"/>
</svg>
