<svg width="108" height="108" viewBox="0 0 108 108" fill="none" xmlns="http://www.w3.org/2000/svg">
<path fill-rule="evenodd" clip-rule="evenodd" d="M58.7267 20.9999C50.6768 20.9999 39.2423 24.4864 32.4887 32.9362C21.8025 37.6032 14 48.0367 14 59.4302C14 77.1138 29.0588 87.6771 47.2094 87.6771C50.1968 87.6771 53.0378 87.0133 55.6958 86.3433C57.6534 86.6508 59.6816 86.8138 61.7751 86.8138C78.9047 86.8138 94 72.9234 94 54.7859C94 36.0542 79.1129 20.9999 58.7267 20.9999ZM46.4445 34.5496C55.0563 34.5496 61.7367 43.0247 61.7367 50.5928C61.7367 60.8224 55.4876 67.6848 46.7599 67.6848C38.9277 67.6848 31.9485 60.4251 31.9485 50.111C31.9485 41.6055 38.2709 34.5496 46.4445 34.5496ZM45.2919 84.4929C33.4366 84.4929 20.9025 73.0253 20.9025 58.7324C20.9025 51.7593 23.0945 44.7854 28.6353 40.0974C27.6404 42.1517 26.9801 44.6198 26.7126 47.5662C26.5767 48.6361 26.5009 49.746 26.5009 50.8916C26.5009 66.3301 34.9603 79.1254 48.1913 84.3204C47.2338 84.4328 46.2659 84.4929 45.2919 84.4929ZM54.1782 82.8777C44.2421 80.9271 36.0946 73.3999 32.5749 64.4919C36.0597 67.8931 41.0178 70.2261 47.3375 70.2261C57.4452 70.2261 67.0563 62.4864 67.0563 50.997C67.0563 45.3577 65.0621 41.6656 65.0621 41.6656C69.2735 45.9423 71.9376 51.9484 71.9376 59.2734C71.9376 69.5701 64.2327 79.169 54.1782 82.8777ZM64.0062 82.9343C72.1049 78.0957 77.1396 69.8245 77.1396 60.8259C77.1396 40.7839 57.5959 33.6018 57.5959 33.6018C54.0039 31.4865 49.5791 30.3574 44.662 30.3574C44.2883 30.3574 43.6488 30.367 43.2785 30.3801C48.2618 26.6226 54.7453 24.3096 61.3046 24.3096C76.5951 24.3096 88.1612 38.8211 88.1612 52.4092C88.1612 68.2067 76.981 80.4601 64.0062 82.9343Z" fill="#00A4DE"/>
</svg>
