<svg width="108" height="108" viewBox="0 0 108 108" fill="none" xmlns="http://www.w3.org/2000/svg">
<g clip-path="url(#clip0_801_8588)">
<path fill-rule="evenodd" clip-rule="evenodd" d="M52.0912 46.5368C52.1808 46.4187 52.2255 45.8681 52.2255 45.7393V43.0698C52.211 42.9126 52.1535 42.7944 52.0534 42.716C51.9534 42.6371 51.8382 42.598 51.7092 42.598H40.1393C39.9955 42.598 39.8755 42.6408 39.7787 42.7264C39.6823 42.8121 39.6335 42.9269 39.6335 43.0698V43.0996C39.6335 43.2715 39.7138 43.4326 39.8494 43.538C40.5125 44.0532 41.1287 44.6008 41.8036 45.5704C42.4539 46.5037 42.487 46.7138 42.6873 46.7138H43.8381V58.0481C43.8381 58.1939 43.9002 58.3358 44.0107 58.4313C44.1148 58.5213 44.2251 58.566 44.3422 58.566H47.4958C47.6457 58.566 47.7671 58.5142 47.8602 58.4103C47.9527 58.3061 47.9995 58.1893 47.9995 58.0603V46.7138H51.7092C51.8745 46.7138 52.0013 46.6548 52.0912 46.5368Z" fill="#E72635"/>
<path fill-rule="evenodd" clip-rule="evenodd" d="M57.1838 54.2091C55.2324 54.2091 53.6507 52.6272 53.6507 50.676C53.6507 48.7246 55.2324 47.1429 57.1838 47.1429C59.1355 47.1429 60.7169 48.7246 60.7169 50.676C60.7169 52.6272 59.1355 54.2091 57.1838 54.2091ZM65.1141 48.5036C64.9171 47.8048 64.6408 47.1488 64.2858 46.5359C63.9303 45.9232 63.5018 45.366 63.0001 44.8638C62.4975 44.3619 61.9415 43.9338 61.3323 43.5792C60.7222 43.2241 60.066 42.9478 59.3625 42.751C58.6597 42.554 57.9319 42.4552 57.1785 42.4552C56.418 42.4552 55.6883 42.554 54.9886 42.751C54.4854 42.8929 54.0068 43.0777 53.5501 43.3013C53.459 43.364 53.3383 43.4648 53.2277 43.6094C53.0958 43.7815 53.028 43.995 53.028 44.2119V46.3325C53.028 46.8873 52.5784 47.3368 52.0239 47.3368H50.3522C49.9224 47.3368 49.5413 47.6102 49.4008 48.0157C49.3451 48.1755 49.2942 48.3387 49.2481 48.5036C49.0545 49.2029 48.9578 49.9324 48.9578 50.6923C48.9578 51.4518 49.0545 52.1815 49.2481 52.8804C49.442 53.5792 49.7181 54.2315 50.0768 54.8377C50.4355 55.4435 50.8643 55.9949 51.3628 56.4933C51.8612 56.9917 52.4153 57.42 53.0253 57.7783C53.6348 58.1368 54.2898 58.4131 54.9886 58.6058C55.6883 58.8 56.418 58.8968 57.1785 58.8968C57.9319 58.8968 58.6597 58.8 59.3625 58.6058C60.066 58.4131 60.7222 58.1368 61.3323 57.7783C61.9415 57.42 62.4975 56.9917 63.0001 56.4933C63.5018 55.9949 63.9303 55.4435 64.2858 54.8377C64.6408 54.2315 64.9171 53.5792 65.1141 52.8804C65.3115 52.1815 65.4103 51.4518 65.4103 50.6923C65.4103 49.9324 65.3115 49.2029 65.1141 48.5036Z" fill="#E72635"/>
<path fill-rule="evenodd" clip-rule="evenodd" d="M22.6111 54.115C20.6597 54.115 19.078 52.5331 19.078 50.5819C19.078 48.6305 20.6597 47.0488 22.6111 47.0488C24.5623 47.0488 26.1442 48.6305 26.1442 50.5819C26.1442 52.5331 24.5623 54.115 22.6111 54.115ZM41.5931 53.3996L38.1825 52.2581C37.9204 52.1703 37.6262 52.265 37.4767 52.498C36.8079 53.5423 35.6016 54.2091 34.2457 54.1009C33.3564 54.0301 32.5489 53.6134 31.9654 52.9827C31.542 52.5256 31.2358 51.9564 31.1053 51.322C31.0557 51.0809 31.0338 50.8441 31.0338 50.6123H31.0326C31.0326 48.3677 30.1365 46.3332 28.6836 44.8436C28.6608 44.8197 28.6381 44.795 28.6149 44.7707C27.1187 43.2732 25.0505 42.3463 22.7667 42.3463C19.3871 42.3463 16.4831 44.3754 15.2015 47.2805C14.7521 48.3002 14.5 49.4265 14.5 50.6125C14.5 54.457 17.1246 57.6877 20.6793 58.6126C20.7314 58.6261 20.7849 58.6359 20.8377 58.6481V58.6485C21.4566 58.7968 22.1017 58.8788 22.7663 58.8788C24.8339 58.8788 26.7233 58.1175 28.1729 56.8627C28.1729 56.8627 28.5926 56.4754 28.653 56.417C30.1518 57.9348 32.2304 58.8791 34.532 58.8791C35.453 58.8791 36.3366 58.7236 37.1637 58.4452C39.2603 57.7406 40.9827 56.2222 41.9492 54.261C42.115 53.9243 41.9492 53.5184 41.5931 53.3996Z" fill="#E72635"/>
<path fill-rule="evenodd" clip-rule="evenodd" d="M34.5321 47.1131C35.6136 47.1131 36.5785 47.6047 37.2202 48.3759C37.3945 48.5853 37.6908 48.648 37.9425 48.5423L41.2461 47.1519C41.6085 46.9994 41.7453 46.5584 41.5362 46.2252C40.0748 43.8963 37.4852 42.3468 34.5321 42.3468C32.4441 42.3468 30.5382 43.1224 29.0835 44.3999C30.2826 45.6188 31.1321 47.1819 31.4692 48.9259C32.0652 47.8458 33.2115 47.1131 34.5321 47.1131Z" fill="#E72635"/>
<path fill-rule="evenodd" clip-rule="evenodd" d="M73.1749 51.5304H72.4097C70.4967 51.5304 69.0857 52.8695 69.0857 54.6629C69.0857 56.839 70.7476 57.7954 71.9791 57.7954H73.1749V58.8476H71.9791C69.6478 58.8476 67.9141 57.0542 67.9141 54.6629C67.9141 52.6303 69.576 50.4781 72.2901 50.4781H73.1749V51.5304Z" fill="#790008"/>
<mask id="mask0_801_8588" style="mask-type:luminance" maskUnits="userSpaceOnUse" x="14" y="42" width="81" height="24">
<path d="M14.5 65.6633H94.4709V42.3464H14.5V65.6633Z" fill="#790008"/>
</mask>
<g mask="url(#mask0_801_8588)">
<path fill-rule="evenodd" clip-rule="evenodd" d="M74.2756 58.8476H75.3278V50.4781H74.2756V58.8476Z" fill="#790008"/>
</g>
<path fill-rule="evenodd" clip-rule="evenodd" d="M77.2647 58.8476H78.3167V53.1086H77.2647V58.8476ZM77.7907 51.1956C78.1973 51.1956 78.4244 51.5064 78.4244 51.8293C78.4244 52.1521 78.1973 52.4629 77.7907 52.4629C77.3843 52.4629 77.157 52.1521 77.157 51.8293C77.157 51.5064 77.3843 51.1956 77.7907 51.1956Z" fill="#790008"/>
<path fill-rule="evenodd" clip-rule="evenodd" d="M83.8528 54.1128H83.0397C82.0474 54.1128 81.067 54.7585 81.067 55.978C81.067 57.1975 82.0474 57.8433 83.0397 57.8433H83.8528V58.8476H82.8486C81.5094 58.8476 79.967 57.8194 79.967 55.978C79.967 54.1367 81.5094 53.1085 82.8486 53.1085H83.8528V54.1128Z" fill="#790008"/>
<path fill-rule="evenodd" clip-rule="evenodd" d="M84.7261 58.8476V50.4781H85.7781V55.2368H86.2206C86.6629 55.2368 86.9499 55.0694 87.1054 54.8064L88.0977 53.1085H89.2933L88.54 54.3999C88.3129 54.7944 87.9662 55.3683 87.6433 55.452V55.4759C88.4922 55.6433 88.9585 56.1455 88.9585 57.1618V58.8476H87.9063V57.2813C87.9063 56.564 87.5237 56.2411 86.9737 56.2411H85.7781V58.8476H84.7261Z" fill="#790008"/>
<path fill-rule="evenodd" clip-rule="evenodd" d="M89.748 57.8433H92.6892C93.1795 57.8433 93.3707 57.652 93.3707 57.2933C93.3707 56.2411 89.748 56.6475 89.748 54.6628C89.748 53.6465 90.4534 53.1085 91.7088 53.1085H94.1837V54.1128H91.5295C91.0154 54.1128 90.86 54.2563 90.848 54.615C90.8359 55.6074 94.4708 55.1889 94.4708 57.2455C94.4708 58.3334 93.7055 58.8476 92.6892 58.8476H89.748V57.8433Z" fill="#790008"/>
<path d="M32.6051 61.5811C32.7558 61.5811 32.873 61.5602 32.9568 61.5183C33.0884 61.4525 33.1542 61.3341 33.1542 61.1631C33.1542 60.9908 33.0842 60.8748 32.9442 60.815C32.8653 60.7815 32.748 60.7647 32.5925 60.7647H31.9556V61.5811H32.6051ZM32.7253 62.7977C32.9442 62.7977 33.1003 62.7343 33.1936 62.6075C33.2523 62.5273 33.2816 62.4304 33.2816 62.3168C33.2816 62.1254 33.196 61.995 33.025 61.9256C32.9341 61.8886 32.8138 61.87 32.6643 61.87H31.9556V62.7977H32.7253ZM31.6057 60.4669H32.7379C33.0465 60.4669 33.266 60.559 33.3964 60.7432C33.473 60.852 33.5112 60.9776 33.5112 61.12C33.5112 61.2863 33.464 61.4226 33.3695 61.5291C33.3204 61.5853 33.2499 61.6368 33.1577 61.6834C33.2929 61.7348 33.394 61.7929 33.461 61.8575C33.5794 61.9723 33.6386 62.1308 33.6386 62.333C33.6386 62.5028 33.5854 62.6565 33.4789 62.7941C33.3198 62.9998 33.0668 63.1027 32.7199 63.1027H31.6057V60.4669ZM33.8611 60.4669H34.2774L35.0346 61.7337L35.7918 60.4669H36.2099L35.214 62.0405V63.1027H34.857V62.0405L33.8611 60.4669Z" fill="#790008"/>
<path fill-rule="evenodd" clip-rule="evenodd" d="M37.3457 64.9103H41.652V60.6054H37.3457V64.9103Z" fill="#790008"/>
<path fill-rule="evenodd" clip-rule="evenodd" d="M40.2171 61.4179H37.928L38.9396 62.7576H41.2288L40.2171 61.4179Z" fill="white"/>
<path fill-rule="evenodd" clip-rule="evenodd" d="M41.2288 62.7576H38.9396L37.928 64.097H40.2171L41.2288 62.7576Z" fill="#ED1C24"/>
<path fill-rule="evenodd" clip-rule="evenodd" d="M44.8501 63.504C44.6869 63.6349 44.4901 63.7022 44.2813 63.7022C43.7743 63.7022 43.3808 63.3003 43.3808 62.7846C43.3808 62.2695 43.7743 61.8666 44.2813 61.8666C44.4901 61.8666 44.6869 61.9354 44.8501 62.0646L44.858 62.0715L45.2484 61.681L45.2388 61.6734C44.9732 61.4422 44.6325 61.3148 44.2813 61.3148C43.462 61.3148 42.7954 61.9747 42.7954 62.7846C42.7954 63.5945 43.462 64.2539 44.2813 64.2539C44.6325 64.2539 44.9732 64.1264 45.2388 63.8955L45.2484 63.8875L44.858 63.4971L44.8501 63.504ZM45.7788 64.1715H46.3403V61.3971H45.7788V64.1715ZM48.5523 63.1699C48.5329 63.1331 47.5737 61.3913 47.5737 61.3913H47.0267V64.1666H47.5863V62.5083C47.6274 62.5816 48.5523 64.188 48.5523 64.188C48.5523 64.188 49.4752 62.5821 49.5173 62.5094V64.1666H50.0765V61.3913H49.5292C49.5292 61.3913 48.5729 63.1331 48.5523 63.1699ZM51.8426 63.6698H51.2942V63.0154H51.8426C52.0982 63.0154 52.1891 63.1842 52.1891 63.3409C52.1891 63.5 52.0982 63.6698 51.8426 63.6698ZM51.2942 61.9003H51.8076C52.0225 61.9003 52.1513 62.0144 52.1513 62.2056C52.1513 62.3962 52.0225 62.5104 51.8076 62.5104H51.2942V61.9003ZM52.3871 62.749C52.5091 62.6814 52.7116 62.4923 52.7116 62.1815C52.7116 61.6977 52.3818 61.3971 51.8503 61.3971H50.7331V64.1715H51.8958C52.4236 64.1715 52.7504 63.8645 52.7504 63.368C52.7504 62.9954 52.5305 62.8224 52.3871 62.749Z" fill="#790008"/>
<path fill-rule="evenodd" clip-rule="evenodd" d="M58.6476 61.4117H59.0498L60.0152 64.1624H59.6809L59.418 63.4215H58.2613L58.0099 64.1799H57.6335L58.6476 61.4117ZM58.3767 63.0984H59.3032L58.8475 61.758H58.84L58.3767 63.0984Z" fill="#790008"/>
<path fill-rule="evenodd" clip-rule="evenodd" d="M64.2418 61.4117H64.6456L65.609 64.1624H65.2739L65.0125 63.4215H63.8557L63.604 64.1799H63.2288L64.2418 61.4117ZM63.9708 63.0984H64.8976L64.4407 61.758H64.4341L63.9708 63.0984Z" fill="#790008"/>
<path fill-rule="evenodd" clip-rule="evenodd" d="M62.6952 61.77C62.6952 61.77 61.6524 60.9424 60.7174 61.8243C60.7174 61.8243 60.2974 62.1895 60.3205 62.9568C60.3205 62.9568 60.3692 64.2166 61.7602 64.2342C61.7602 64.2342 62.3538 64.1982 62.7504 63.9646V62.6516H61.8329V62.9025H62.4806V63.7664C62.4806 63.7664 61.5266 64.2166 60.9866 63.6763C60.9866 63.6763 60.5558 63.4426 60.6445 62.6339C60.6445 62.6339 60.8252 61.65 61.8209 61.71C61.8209 61.71 62.3605 61.7758 62.5049 62.0094L62.6952 61.77Z" fill="#790008"/>
<path fill-rule="evenodd" clip-rule="evenodd" d="M56.8857 64.1624H57.1737V61.3921H56.8857V64.1624Z" fill="#790008"/>
<path fill-rule="evenodd" clip-rule="evenodd" d="M55.8608 61.3921V63.6584L54.2051 61.3921H53.9175V64.1624H54.2051V61.8873L55.8608 64.1624H56.1487V61.3921H55.8608Z" fill="#790008"/>
</g>
<defs>
<clipPath id="clip0_801_8588">
<rect width="80" height="23.3807" fill="white" transform="translate(14.5 42.3097)"/>
</clipPath>
</defs>
</svg>
