<svg width="81" height="25" viewBox="0 0 81 25" fill="none" xmlns="http://www.w3.org/2000/svg">
<g clip-path="url(#clip0_801_8855)">
<path fill-rule="evenodd" clip-rule="evenodd" d="M60.415 20.4691L64.5646 20.4773V6.03592C65.1945 6.00711 67.5575 6.00299 68.1009 6.09356C70.7809 6.53405 70.3939 9.68333 69.2083 10.4737C68.1379 11.19 66.9935 10.8319 66.0796 10.9677V14.9239C66.6106 14.9898 67.6686 14.9445 68.2409 14.928C70.1551 14.8786 71.7071 14.4628 72.9998 13.0961C74.3912 11.6223 74.7576 8.38656 74.0825 6.02357C72.8145 1.59399 68.3891 2.14563 64.8322 2.14563C63.4078 2.14563 61.8394 2.08388 60.4315 2.14563L60.4191 20.465L60.415 20.4691ZM28.0741 20.4485H32.2073C32.3185 20.4238 32.3061 20.3662 32.3802 20.1604C32.4214 20.0451 32.4625 19.9463 32.5037 19.8351L35.7847 11.2477C35.9453 10.8195 36.1099 10.3255 36.2952 9.9221L40.416 20.4609H44.611C44.5821 20.2345 44.2775 19.5223 44.1746 19.2547L38.2095 3.5412C37.9995 2.98956 37.9295 2.84136 37.5796 2.52437C36.9292 1.92745 35.7765 1.89863 35.1055 2.44615C34.7638 2.72609 34.6279 2.94428 34.4303 3.45475C33.5041 5.85479 32.6231 8.30835 31.7051 10.729C31.5569 11.1201 28.2017 19.9586 28.0741 20.4485ZM46.587 20.4444H50.8272V13.8042L57.1628 13.7918L57.171 9.90563L50.8313 9.89328V6.10591L58.4637 6.09767V2.16622C57.9079 2.12093 55.4791 2.15798 54.7216 2.15798H50.9383C49.7445 2.15798 48.6289 2.1374 47.7643 2.73844C47.0192 3.25303 46.6158 4.10519 46.5952 5.35255C46.5499 7.84728 46.5952 10.3791 46.5952 12.8779V20.4485L46.587 20.4444ZM76.3508 20.5267H80.5004V2.14563H76.3508V20.5267Z" fill="#333333"/>
<path fill-rule="evenodd" clip-rule="evenodd" d="M24.4103 12.388C24.7149 14.4875 21.9402 14.7469 21.7262 12.7873L18.7621 12.775C18.7086 13.5366 19.215 14.574 19.5525 15.035C19.8119 15.3973 19.9807 15.5826 20.2853 15.8378C20.4253 15.9572 21.0222 16.4882 21.2486 16.3318C21.3804 16.5582 21.3845 16.5459 21.6562 16.6406C23.7886 17.3733 26.0528 16.4718 27.0655 14.4834C27.3455 13.9318 27.7448 12.4292 27.4978 12.1204L27.4772 12.4209C26.9585 12.4209 24.7272 12.4827 24.402 12.388H24.4103Z" fill="#6CC5C4"/>
<path fill-rule="evenodd" clip-rule="evenodd" d="M19.038 3.45475C19.1285 3.57825 19.1985 3.5906 19.2973 3.7635C19.3591 3.87053 19.429 4.01462 19.4661 4.16282C19.5896 4.68153 19.392 4.79268 19.3714 5.12613C19.3714 5.28668 19.6266 5.69424 19.7172 5.85479C19.8489 6.08944 19.9725 6.33233 20.1001 6.55463C20.3594 7.00335 20.6064 7.52206 20.874 7.94608H21.1498C21.2239 7.93373 21.1704 7.95431 21.2486 7.91314C21.6521 7.68672 22.2613 6.88397 22.4878 6.45583C23.2493 5.03556 23.1464 3.32301 22.2737 1.98097C21.9444 1.47461 21.3639 0.873571 20.7752 0.585401C20.7505 0.778886 20.4706 1.15762 20.3635 1.33876L19.2932 3.11306C19.1079 3.4177 19.215 3.36418 19.0338 3.44651L19.038 3.45475Z" fill="#DBC27E"/>
<path fill-rule="evenodd" clip-rule="evenodd" d="M19.3426 19.5305C19.5855 19.6869 19.8119 20.1151 19.8078 20.5514C19.8078 21.1195 19.5361 21.3295 19.3179 21.5971C19.462 21.7206 19.9354 22.5645 20.0713 22.795C20.203 23.0173 20.7464 23.853 20.7876 24.0383C21.3515 23.7542 21.9402 23.1532 22.2613 22.6674C22.636 22.0993 22.9282 21.383 22.9859 20.5514C23.097 19.0118 22.3354 17.4145 21.1581 16.6529L20.874 16.6447C20.8164 16.8382 20.6023 17.1593 20.487 17.3775C20.3594 17.6203 20.2277 17.8344 20.1001 18.0732C19.956 18.3449 19.3838 19.2876 19.3426 19.5305Z" fill="#9090D5"/>
<path fill-rule="evenodd" clip-rule="evenodd" d="M6.88132 7.97078C7.20654 8.01194 7.16125 7.99548 7.50294 7.35327C7.71289 6.95807 8.60622 5.42665 8.64327 5.22905C8.41685 5.0191 8.17396 4.65271 8.20278 4.1587C8.23571 3.66058 8.51153 3.41358 8.7503 3.18304C8.70914 2.99368 7.81581 1.59811 7.60174 1.22761C7.49882 1.05059 7.31769 0.671852 7.1983 0.655385C7.0501 0.675969 6.9019 0.807703 6.7784 0.902388C5.08231 2.20327 4.53891 4.51686 5.55574 6.45583C5.86037 7.03628 6.39966 7.68261 6.88132 7.97078Z" fill="#8ACD80"/>
<path fill-rule="evenodd" clip-rule="evenodd" d="M21.3023 8.48947C21.3105 8.71589 22.6978 10.9801 22.9119 11.367C23.0807 11.3423 23.1589 11.3341 23.2824 11.4123C23.5994 11.47 23.8094 11.5729 23.9987 11.7581C24.114 11.8693 24.151 11.8816 24.2457 12.0381C24.2992 12.1245 24.3692 12.3221 24.4145 12.3921C24.7397 12.4868 26.971 12.425 27.4897 12.425L27.5103 12.1245C27.5679 11.507 27.1233 10.519 26.8475 10.1156C26.4646 9.5557 26.1024 9.16049 25.5137 8.78999C24.2128 7.96665 22.8337 7.89255 21.3064 8.4977L21.3023 8.48947Z" fill="#81E6EA"/>
<path fill-rule="evenodd" clip-rule="evenodd" d="M7.19419 23.9971C7.33004 23.9518 7.50294 23.5731 7.57704 23.4537L8.3057 22.2352C8.40862 22.0623 8.55682 21.7823 8.68032 21.63C8.41685 21.3789 8.02988 21.1854 7.99694 20.5144C7.96401 19.8804 8.30158 19.547 8.59799 19.2958C8.42508 18.9006 7.72113 17.6739 7.44119 17.1799C7.16125 16.6858 7.21477 16.5953 6.87308 16.657C6.47376 16.8711 5.80686 17.645 5.55985 18.1473C5.2017 18.8636 4.99998 19.547 5.04527 20.4773C5.08643 21.2924 5.36225 22.0376 5.72864 22.5974C6.04563 23.075 6.65902 23.7748 7.19007 24.0012L7.19419 23.9971Z" fill="#FC8080"/>
<path fill-rule="evenodd" clip-rule="evenodd" d="M6.75781 16.3483C6.76605 16.1877 5.83567 14.6604 5.68747 14.4052C5.52692 14.1335 5.42812 13.8412 5.27168 13.8536C4.74063 13.903 4.51009 13.9976 4.04902 13.6848C3.76497 13.4913 3.54678 13.1949 3.46033 12.742L3.43563 12.4333H0.500418C0.459251 15.5414 3.46856 17.6286 6.35026 16.6488C6.58491 16.5706 6.69606 16.5665 6.75781 16.3524V16.3483Z" fill="#FD81F8"/>
<path fill-rule="evenodd" clip-rule="evenodd" d="M0.500418 12.4292H3.43563L3.46033 12.7379C3.41916 12.1781 3.60853 11.8322 3.90082 11.5441C4.20134 11.2436 4.61301 11.1859 5.14818 11.2271C5.29638 11.153 5.49399 10.729 5.58867 10.5684L6.76605 8.51007C6.30086 8.1972 5.18935 8.04488 4.51009 8.10251C3.68263 8.17661 3.04454 8.4442 2.45997 8.82294C1.51724 9.44044 0.512768 10.7207 0.500418 12.4292Z" fill="#D9B1D9"/>
<path fill-rule="evenodd" clip-rule="evenodd" d="M7.1983 0.655385C7.31769 0.675969 7.49882 1.05059 7.60174 1.22761C7.81581 1.59811 8.70914 2.99368 8.7503 3.18304C9.18256 3.01838 9.4872 2.82077 10.0388 3.09659C10.3682 3.26126 10.6522 3.55766 10.7428 3.99404C10.9898 4.04755 11.9366 3.99404 12.2413 3.98992C12.76 3.97757 13.3075 3.9611 13.8262 3.9611C13.641 2.3103 12.6694 1.15351 11.5991 0.564817C10.961 0.214897 10.2159 -0.0156387 9.35546 0.00082813C8.77089 0.0131783 7.46589 0.297231 7.1983 0.651268L7.1983 0.655385Z" fill="#8BB184"/>
<path fill-rule="evenodd" clip-rule="evenodd" d="M14.279 3.68528L14.2461 3.95287L16.8643 4.00227C17.0537 3.59883 17.2719 3.33536 17.7165 3.18716C18.2228 3.01838 18.7374 3.18304 19.038 3.45063C19.2191 3.3683 19.1079 3.4177 19.2973 3.11718L20.3677 1.34288C20.4747 1.16174 20.7546 0.783003 20.7793 0.589518C20.3224 0.256064 19.3673 0.0131784 18.6839 0.000828323C17.2266 -0.0238719 15.8681 0.671852 15.0653 1.77513C14.7936 2.14563 14.2461 3.08013 14.279 3.68528Z" fill="#F9DF8E"/>
<path fill-rule="evenodd" clip-rule="evenodd" d="M8.68444 21.63C8.55682 21.7823 8.41273 22.0623 8.30982 22.2352L7.58116 23.4537C7.50706 23.5731 7.33416 23.956 7.1983 23.9971C7.63879 24.347 8.65974 24.6146 9.35958 24.627C10.2323 24.6393 10.9569 24.4253 11.6032 24.0671C12.6776 23.4784 13.6615 22.2887 13.8262 20.6708L10.7016 20.6297C10.6275 21.1031 10.3599 21.4283 10.043 21.6135C9.52013 21.9182 9.19902 21.8029 8.68444 21.6341V21.63Z" fill="#CB9999"/>
<path fill-rule="evenodd" clip-rule="evenodd" d="M14.2173 20.6749C14.4067 22.3134 15.3576 23.4537 16.3909 24.0342C17.6671 24.7505 19.532 24.8575 20.7876 24.0342C20.7423 23.8489 20.203 23.0091 20.0713 22.7909C19.9354 22.5604 19.462 21.7165 19.3179 21.593C19.1285 21.6877 18.9474 21.8317 18.6675 21.877C18.371 21.9223 18.0993 21.877 17.8523 21.7535C17.5065 21.5847 17.0908 21.1525 17.099 20.6214L14.2214 20.6749H14.2173Z" fill="#8380FC"/>
<path fill-rule="evenodd" clip-rule="evenodd" d="M6.88132 7.97078C6.95953 8.02841 7.00893 8.02018 7.12009 8.02429C7.1242 8.27541 7.79523 8.48948 8.01341 8.5677C9.28959 9.01642 10.5205 8.8147 11.632 8.23013L10.1006 5.39783C9.31429 5.63249 9.30606 5.60367 8.64327 5.23316C8.60622 5.43077 7.71289 6.96218 7.50294 7.35739C7.16125 7.99959 7.20654 8.01606 6.88132 7.97489V7.97078Z" fill="#549149"/>
<path fill-rule="evenodd" clip-rule="evenodd" d="M23.2824 11.4123C23.1589 11.33 23.0807 11.3382 22.9119 11.367C22.702 10.9801 21.3105 8.71589 21.3023 8.48947C20.5571 8.82292 19.9519 9.38281 19.5608 9.93445C19.2356 10.3914 18.6592 11.5358 18.7621 12.3016H21.7879C22.0061 12.0422 22.1378 11.3629 23.2782 11.4123L23.2824 11.4123Z" fill="#66BEBE"/>
<path fill-rule="evenodd" clip-rule="evenodd" d="M21.1498 7.95431H20.874C20.6064 7.52205 20.3594 7.00335 20.1001 6.55463C19.9725 6.33233 19.8448 6.08944 19.7172 5.85479C19.6266 5.69424 19.3714 5.28668 19.3714 5.12613C19.2273 5.2414 19.1656 5.49252 18.7621 5.69424C18.371 5.89184 18.1899 5.82597 17.7494 5.80127L16.4238 8.23425C17.0496 8.60063 17.9182 8.83529 18.7951 8.79823C19.2314 8.77765 19.6431 8.69532 20.026 8.56358C20.203 8.50183 20.3594 8.44008 20.5282 8.35775C20.6147 8.31658 20.697 8.2713 20.7752 8.23013C20.8864 8.16838 20.9193 8.16426 20.9193 8.01194C20.944 8.01194 21.014 8.01194 21.0387 8.01194L21.1498 7.96254V7.95431Z" fill="#C1B080"/>
<path fill-rule="evenodd" clip-rule="evenodd" d="M5.1523 11.2271C5.53515 11.4288 5.79862 11.4947 6.02504 11.9352C6.07444 12.034 6.11561 12.2028 6.17324 12.2933H9.27724C9.39251 11.5852 8.79559 10.3667 8.49918 9.95091C8.19455 9.51866 7.40414 8.72002 6.77017 8.51418L5.59279 10.5725C5.50222 10.7331 5.3005 11.1571 5.1523 11.2312V11.2271Z" fill="#A050A0"/>
<path fill-rule="evenodd" clip-rule="evenodd" d="M10.7016 20.6255L13.8262 20.6667C13.995 18.9253 13.2128 17.4927 11.8831 16.5582C11.739 16.7435 10.3846 19.2506 10.3023 19.4235C10.3846 19.5799 10.5164 19.6622 10.6111 19.8928C10.7057 20.1233 10.7387 20.3538 10.7057 20.6214L10.7016 20.6255Z" fill="#A84242"/>
<path fill-rule="evenodd" clip-rule="evenodd" d="M14.2173 20.6749L17.0949 20.6214C17.0619 20.2262 17.2348 19.8104 17.4736 19.5675C17.5724 19.4687 17.6506 19.4605 17.7371 19.3494L16.2098 16.5418C15.6993 16.7435 14.9953 17.6286 14.7236 18.1267C14.3284 18.8595 14.1267 19.7116 14.2173 20.6749Z" fill="#4B4BA0"/>
<path fill-rule="evenodd" clip-rule="evenodd" d="M19.3426 19.5305C19.3838 19.2876 19.956 18.3408 20.1001 18.0732C20.2318 17.8303 20.3594 17.6162 20.487 17.3775C20.6023 17.1593 20.8164 16.8382 20.874 16.6447L21.1581 16.6529C21.084 16.6035 21.0181 16.6117 20.9152 16.6117C20.9234 16.3606 20.2977 16.163 20.0795 16.0848C19.7172 15.9572 19.3508 15.8749 18.9474 15.8419C18.0088 15.7678 17.3625 15.9695 16.6256 16.2865L18.1899 19.1765C18.5645 19.2135 18.7086 19.1229 19.1285 19.3576L19.3426 19.5305Z" fill="#4B4BA0"/>
<path fill-rule="evenodd" clip-rule="evenodd" d="M6.88132 16.657C7.223 16.5912 7.16537 16.6858 7.44942 17.1799C7.72936 17.6739 8.43332 18.9006 8.60622 19.2958C9.17021 19.0159 9.24019 19.0447 9.8824 19.1682L11.4591 16.3277C10.6563 15.7514 9.07964 15.7061 7.99283 16.0766C7.77464 16.1507 7.1242 16.3689 7.12832 16.6117C7.11597 16.6117 7.01717 16.6117 7.00482 16.6117C6.99247 16.6117 6.98012 16.6117 6.96777 16.62L6.91013 16.6447C6.91013 16.6447 6.89367 16.6529 6.88543 16.6611L6.88132 16.657Z" fill="#A84242"/>
<path fill-rule="evenodd" clip-rule="evenodd" d="M5.2758 13.8536C5.42812 13.8412 5.53103 14.1335 5.69159 14.4052C5.83979 14.6604 6.76605 16.1877 6.76193 16.3483C7.2971 16.443 8.21513 15.4303 8.47448 15.0597C8.79147 14.611 9.35546 13.5448 9.27724 12.775H6.17324C6.03327 13.0796 6.08267 13.1537 5.86037 13.4213C5.77804 13.5201 5.71629 13.5777 5.60925 13.656C5.51868 13.7218 5.36637 13.7712 5.2758 13.8536Z" fill="#A050A0"/>
<path fill-rule="evenodd" clip-rule="evenodd" d="M10.7429 3.98993C10.8376 4.59508 10.6688 4.68153 10.4794 5.08497C10.5618 5.29904 11.982 7.86787 12.0561 7.93373C12.4884 7.69497 13.11 6.93337 13.3858 6.37762C13.7316 5.67778 13.9128 4.8462 13.8304 3.95699C13.3117 3.95699 12.7683 3.96934 12.2455 3.98581C11.9367 3.99404 10.9899 4.04756 10.747 3.98993H10.7429Z" fill="#549149"/>
<path fill-rule="evenodd" clip-rule="evenodd" d="M16.8643 4.00227L14.2461 3.95287L14.279 3.68528C14.1308 3.85407 14.2049 4.80914 14.2461 5.06438C14.3161 5.5131 14.4396 5.90007 14.6125 6.27469C14.8718 6.82633 15.547 7.74024 16.0245 7.95843L17.3501 5.57073C16.9014 5.22081 16.6626 4.78033 16.8643 4.00639V4.00227Z" fill="#C1B080"/>
<path fill-rule="evenodd" clip-rule="evenodd" d="M29.1568 23.9765H28.7987L28.6546 23.5278H27.9959L27.8601 23.9765H27.506L28.1441 22.0046H28.4982L29.1568 23.9765ZM28.5476 23.1944L28.317 22.4657L28.0947 23.1944H28.5476ZM29.2186 23.5731L29.5356 23.5155C29.5479 23.5896 29.5767 23.6431 29.6179 23.6801C29.6591 23.7172 29.7167 23.7378 29.7908 23.7378C29.8731 23.7378 29.9349 23.7213 29.976 23.6843C30.0049 23.6596 30.0172 23.6266 30.0172 23.5813C30.0172 23.5525 30.009 23.5278 29.9966 23.5114C29.9802 23.4949 29.9472 23.4784 29.8896 23.462C29.6344 23.3961 29.4738 23.3343 29.4038 23.2767C29.3091 23.1985 29.2639 23.0914 29.2639 22.9556C29.2639 22.8321 29.305 22.7292 29.3874 22.6427C29.4697 22.5563 29.5973 22.5151 29.7661 22.5151C29.9349 22.5151 30.0502 22.548 30.1284 22.6098C30.2066 22.6757 30.2642 22.7703 30.293 22.8938L29.9966 22.9597C29.9843 22.9021 29.9596 22.8609 29.9225 22.8321C29.8855 22.8033 29.8361 22.7868 29.7702 22.7868C29.6879 22.7868 29.6261 22.7992 29.5891 22.828C29.5644 22.8486 29.552 22.8733 29.552 22.9062C29.552 22.935 29.5603 22.9556 29.585 22.9762C29.6138 23.0009 29.7126 23.0379 29.8814 23.0832C30.0502 23.1285 30.1654 23.1861 30.2354 23.252C30.3013 23.3179 30.3342 23.4125 30.3342 23.5319C30.3342 23.6637 30.2889 23.7748 30.1984 23.8695C30.1078 23.9642 29.9719 24.0095 29.7908 24.0095C29.6302 24.0095 29.4985 23.9683 29.4038 23.8901C29.3091 23.8119 29.2474 23.7048 29.2186 23.569V23.5731ZM30.5359 23.2438C30.5359 23.1161 30.5606 22.9968 30.6141 22.8774C30.6677 22.758 30.7376 22.6715 30.8323 22.6098C30.927 22.548 31.034 22.5151 31.1493 22.5151C31.3304 22.5151 31.4786 22.5851 31.5939 22.7251C31.7092 22.865 31.7668 23.042 31.7668 23.2561C31.7668 23.4702 31.7092 23.6513 31.5939 23.7954C31.4786 23.9395 31.3304 24.0095 31.1534 24.0095C31.0423 24.0095 30.9394 23.9807 30.8406 23.9189C30.7418 23.8613 30.6677 23.7748 30.6141 23.6596C30.5606 23.5443 30.5359 23.4043 30.5359 23.2396V23.2438ZM30.8611 23.2643C30.8611 23.4043 30.89 23.5155 30.9435 23.5896C31.0011 23.6637 31.067 23.7048 31.1493 23.7048C31.2316 23.7048 31.3016 23.6678 31.3551 23.5896C31.4087 23.5155 31.4375 23.4043 31.4375 23.2602C31.4375 23.1161 31.4087 23.0132 31.3551 22.9391C31.3016 22.865 31.2316 22.8239 31.1493 22.8239C31.067 22.8239 30.997 22.8609 30.9435 22.9391C30.8858 23.0132 30.8611 23.1244 30.8611 23.2643ZM31.9027 23.5731L32.2197 23.5155C32.232 23.5896 32.2608 23.6431 32.302 23.6801C32.3432 23.7172 32.4008 23.7378 32.4749 23.7378C32.5572 23.7378 32.619 23.7213 32.6601 23.6843C32.689 23.6596 32.7013 23.6266 32.7013 23.5813C32.7013 23.5525 32.6931 23.5278 32.6807 23.5114C32.6643 23.4949 32.6313 23.4784 32.5737 23.462C32.3185 23.3961 32.1579 23.3343 32.0879 23.2767C31.9932 23.1985 31.948 23.0914 31.948 22.9556C31.948 22.8321 31.9891 22.7292 32.0715 22.6427C32.1538 22.5563 32.2814 22.5151 32.4502 22.5151C32.619 22.5151 32.7342 22.548 32.8125 22.6098C32.8907 22.6757 32.9483 22.7703 32.9771 22.8938L32.6807 22.9597C32.6684 22.9021 32.6437 22.8609 32.6066 22.8321C32.5696 22.8033 32.5202 22.7868 32.4543 22.7868C32.372 22.7868 32.3102 22.7992 32.2732 22.828C32.2485 22.8486 32.2361 22.8733 32.2361 22.9062C32.2361 22.935 32.2485 22.9556 32.2691 22.9762C32.2979 23.0009 32.3967 23.0379 32.5655 23.0832C32.7342 23.1285 32.8536 23.1861 32.9195 23.252C32.9854 23.3179 33.0183 23.4125 33.0183 23.5319C33.0183 23.6637 32.973 23.7748 32.8824 23.8695C32.7919 23.9642 32.656 24.0095 32.4749 24.0095C32.3143 24.0095 32.1826 23.9683 32.0879 23.8901C31.9932 23.8119 31.9315 23.7048 31.9027 23.569V23.5731ZM33.2941 22.3546V22.0046H33.6111V22.3546H33.2941ZM33.2941 23.9765V22.548H33.6111V23.9765H33.2941ZM34.1669 22.9885L33.8828 22.9268C33.9157 22.7868 33.9693 22.6839 34.0475 22.618C34.1257 22.5522 34.241 22.5192 34.3974 22.5192C34.5374 22.5192 34.6444 22.5398 34.7103 22.5769C34.7803 22.618 34.8255 22.6674 34.8543 22.7292C34.8832 22.7909 34.8955 22.9021 34.8955 23.0667V23.5072C34.8914 23.6307 34.8955 23.7254 34.9079 23.7831C34.9161 23.8448 34.9367 23.9066 34.9655 23.9724H34.6526C34.6444 23.9477 34.6362 23.9107 34.6238 23.8613C34.6197 23.8407 34.6156 23.8242 34.6115 23.816C34.5579 23.8777 34.5003 23.9271 34.4386 23.9601C34.3768 23.993 34.3109 24.0095 34.241 24.0095C34.1175 24.0095 34.0228 23.9683 33.9528 23.8901C33.8828 23.8119 33.8458 23.709 33.8458 23.5896C33.8458 23.5072 33.8622 23.4373 33.8952 23.3755C33.9281 23.3137 33.9734 23.2644 34.031 23.2314C34.0886 23.1985 34.171 23.1697 34.2821 23.145C34.4303 23.112 34.5332 23.0791 34.5868 23.0544V23.0173C34.5868 22.9432 34.5703 22.8897 34.5415 22.8609C34.5127 22.828 34.455 22.8156 34.3727 22.8156C34.3151 22.8156 34.2739 22.828 34.241 22.8568C34.208 22.8815 34.1833 22.9309 34.1627 22.9968L34.1669 22.9885ZM34.5909 23.2932C34.5497 23.3096 34.488 23.3302 34.3974 23.3508C34.3109 23.3714 34.2533 23.3961 34.2245 23.4167C34.1833 23.4537 34.1627 23.4949 34.1627 23.5484C34.1627 23.6019 34.1792 23.6472 34.2121 23.6843C34.2451 23.7213 34.2862 23.7419 34.3356 23.7419C34.3933 23.7419 34.4468 23.7213 34.5003 23.676C34.5374 23.6431 34.5621 23.6019 34.5744 23.5525C34.5826 23.5196 34.5868 23.4578 34.5868 23.3673V23.2932H34.5909ZM35.0972 23.5731L35.4142 23.5155C35.4266 23.5896 35.4554 23.6431 35.4966 23.6801C35.5377 23.7172 35.5954 23.7378 35.6695 23.7378C35.7518 23.7378 35.8135 23.7213 35.8547 23.6843C35.8835 23.6596 35.8959 23.6266 35.8959 23.5813C35.8959 23.5525 35.8876 23.5278 35.8753 23.5114C35.8588 23.4949 35.8259 23.4784 35.7683 23.462C35.513 23.3961 35.3525 23.3343 35.2825 23.2767C35.1878 23.1985 35.1425 23.0914 35.1425 22.9556C35.1425 22.8321 35.1837 22.7292 35.266 22.6427C35.3484 22.5563 35.476 22.5151 35.6448 22.5151C35.8135 22.5151 35.9288 22.548 36.007 22.6098C36.0852 22.6757 36.1429 22.7703 36.1717 22.8938L35.8753 22.9597C35.8629 22.9021 35.8382 22.8609 35.8012 22.8321C35.7641 22.8033 35.7147 22.7868 35.6489 22.7868C35.5665 22.7868 35.5048 22.7992 35.4677 22.828C35.443 22.8486 35.4307 22.8733 35.4307 22.9062C35.4307 22.935 35.443 22.9556 35.4636 22.9762C35.4924 23.0009 35.5912 23.0379 35.76 23.0832C35.9288 23.1285 36.0441 23.1861 36.1141 23.252C36.1799 23.3179 36.2129 23.4125 36.2129 23.5319C36.2129 23.6637 36.1676 23.7748 36.077 23.8695C35.9864 23.9642 35.8506 24.0095 35.6695 24.0095C35.5089 24.0095 35.3772 23.9683 35.2825 23.8901C35.1878 23.8119 35.1261 23.7048 35.0972 23.569V23.5731ZM36.4887 22.3546V22.0046H36.8016V22.3546H36.4887ZM36.4887 23.9765V22.548H36.8016V23.9765H36.4887ZM37.769 23.9765V22.0046H38.9011V22.3381H38.1024V22.8074H38.7899V23.1408H38.1024V23.9765H37.769ZM39.1687 22.3546V22.0046H39.4815V22.3546H39.1687ZM39.1687 23.9765V22.548H39.4815V23.9765H39.1687ZM40.8936 23.9765H40.5807V23.2479C40.5807 23.0956 40.5725 22.9926 40.5601 22.9474C40.5478 22.9021 40.5231 22.865 40.4942 22.8403C40.4654 22.8156 40.4284 22.8033 40.3831 22.8033C40.3296 22.8033 40.2802 22.8197 40.2349 22.8568C40.1896 22.8938 40.1608 22.9391 40.1443 23.0009C40.1279 23.0585 40.1196 23.1697 40.1196 23.3302V23.9765H39.8068V22.548H40.099V22.758C40.202 22.5974 40.3337 22.5192 40.4942 22.5192C40.5642 22.5192 40.626 22.5357 40.6877 22.5645C40.7454 22.5933 40.7906 22.6345 40.8195 22.6798C40.8483 22.7251 40.8689 22.7786 40.8812 22.8403C40.8936 22.898 40.8977 22.9844 40.8977 23.0956V23.9807L40.8936 23.9765ZM41.7581 22.548V22.8486H41.544V23.429C41.544 23.5484 41.544 23.6143 41.5481 23.6349C41.5522 23.6554 41.5605 23.6719 41.5769 23.6843C41.5934 23.6966 41.6099 23.7048 41.6305 23.7048C41.6593 23.7048 41.7004 23.6925 41.7581 23.6678L41.7828 23.9601C41.7087 23.9971 41.6263 24.0177 41.5358 24.0177C41.4781 24.0177 41.4287 24.0054 41.3834 23.9848C41.3382 23.9601 41.3052 23.9313 41.2846 23.8942C41.2641 23.8572 41.2476 23.8078 41.2394 23.746C41.2311 23.7007 41.2311 23.6143 41.2311 23.4784V22.8527H41.087V22.5522H41.2311V22.2681L41.544 22.0458V22.5522H41.7581V22.548ZM42.6679 23.5237L42.9807 23.5855C42.9396 23.7254 42.8778 23.8283 42.7914 23.9024C42.7049 23.9724 42.5938 24.0095 42.4661 24.0095C42.2603 24.0095 42.1039 23.9271 42.0051 23.7666C41.9269 23.6349 41.8857 23.4702 41.8857 23.2726C41.8857 23.0338 41.9392 22.8486 42.0421 22.7168C42.145 22.581 42.2768 22.5151 42.4332 22.5151C42.6102 22.5151 42.7502 22.5851 42.8531 22.7251C42.956 22.865 43.0054 23.0791 43.0013 23.3714H42.215C42.215 23.4825 42.2438 23.569 42.2932 23.6349C42.3426 23.6966 42.4003 23.7295 42.4744 23.7295C42.5238 23.7295 42.5649 23.7131 42.5979 23.6801C42.6308 23.6472 42.6555 23.5978 42.6761 23.5237H42.6679ZM42.6843 23.1408C42.6843 23.0297 42.6596 22.9474 42.6143 22.8897C42.5691 22.8321 42.5155 22.8033 42.4497 22.8033C42.3797 22.8033 42.3262 22.8321 42.2809 22.8938C42.2356 22.9556 42.215 23.0379 42.215 23.1408H42.6843ZM44.294 22.9721L43.9852 23.0379C43.977 22.9638 43.9523 22.9103 43.9152 22.8691C43.8782 22.8321 43.8288 22.8115 43.7711 22.8115C43.6929 22.8115 43.6312 22.8444 43.5818 22.9103C43.5365 22.9762 43.5118 23.0832 43.5118 23.2355C43.5118 23.4043 43.5365 23.5237 43.5818 23.5937C43.6312 23.6637 43.6929 23.7007 43.7711 23.7007C43.8288 23.7007 43.8782 23.6801 43.9193 23.639C43.9564 23.5978 43.9852 23.5278 44.0017 23.429L44.3104 23.4908C44.2775 23.6596 44.2157 23.7913 44.1252 23.8777C44.0346 23.9642 43.9111 24.0095 43.7588 24.0095C43.5859 24.0095 43.4459 23.9436 43.343 23.8119C43.2401 23.6801 43.1866 23.499 43.1866 23.2643C43.1866 23.0297 43.2401 22.8444 43.343 22.7127C43.4459 22.581 43.5859 22.5151 43.7629 22.5151C43.907 22.5151 44.0223 22.5522 44.1087 22.6263C44.1952 22.7004 44.2569 22.8156 44.294 22.9679V22.9721ZM44.8456 22.0046V22.7333C44.9485 22.5892 45.072 22.5151 45.212 22.5151C45.2861 22.5151 45.352 22.5316 45.4096 22.5645C45.4672 22.5974 45.5125 22.6386 45.5413 22.688C45.5701 22.7374 45.5907 22.795 45.6031 22.8527C45.6154 22.9144 45.6195 23.0091 45.6195 23.1367V23.9724H45.3067V23.2191C45.3067 23.0709 45.3026 22.9762 45.2902 22.935C45.2779 22.8938 45.2573 22.8609 45.2243 22.8403C45.1955 22.8156 45.1544 22.8033 45.1091 22.8033C45.0556 22.8033 45.0103 22.8197 44.9691 22.8486C44.9279 22.8774 44.8991 22.9268 44.8785 22.9844C44.858 23.0462 44.8497 23.1367 44.8497 23.2561V23.9724H44.5368V22.0005H44.8497L44.8456 22.0046ZM46.5787 23.9765V22.0046H47.1098C47.3115 22.0046 47.4432 22.0129 47.505 22.0335C47.5997 22.0623 47.6779 22.1281 47.7396 22.2269C47.8014 22.3257 47.8343 22.4534 47.8343 22.6098C47.8343 22.7292 47.8179 22.8321 47.7808 22.9144C47.7438 22.9968 47.6985 23.0626 47.6408 23.1079C47.5832 23.1532 47.5256 23.1861 47.4679 23.2026C47.3897 23.2232 47.2745 23.2314 47.1221 23.2314H46.9081V23.9765H46.5746H46.5787ZM46.9122 22.3381V22.898H47.0933C47.2251 22.898 47.3115 22.8856 47.3568 22.865C47.4021 22.8444 47.435 22.8115 47.4597 22.7662C47.4844 22.7209 47.4968 22.6715 47.4968 22.6139C47.4968 22.5439 47.4803 22.4822 47.4432 22.4369C47.4062 22.3916 47.365 22.3628 47.3115 22.3504C47.2703 22.3422 47.1921 22.3381 47.0727 22.3381H46.9122ZM48.7976 23.5237L49.1105 23.5855C49.0693 23.7254 49.0076 23.8283 48.9211 23.9024C48.8347 23.9724 48.7235 24.0095 48.5959 24.0095C48.3901 24.0095 48.2337 23.9271 48.1349 23.7666C48.0566 23.6349 48.0155 23.4702 48.0155 23.2726C48.0155 23.0338 48.069 22.8486 48.1719 22.7168C48.2748 22.581 48.4066 22.5151 48.563 22.5151C48.74 22.5151 48.88 22.5851 48.9829 22.7251C49.0858 22.865 49.1352 23.0791 49.1311 23.3714H48.3448C48.3448 23.4825 48.3736 23.569 48.423 23.6349C48.4724 23.6966 48.5301 23.7295 48.6042 23.7295C48.6536 23.7295 48.6947 23.7131 48.7277 23.6801C48.7606 23.6472 48.7853 23.5978 48.8059 23.5237H48.7976ZM48.8141 23.1408C48.8141 23.0297 48.7894 22.9474 48.7441 22.8897C48.6988 22.8321 48.6453 22.8033 48.5795 22.8033C48.5095 22.8033 48.456 22.8321 48.4107 22.8938C48.3654 22.9556 48.3448 23.0379 48.3448 23.1408H48.8141ZM50.469 23.9765H50.1562V23.2479C50.1562 23.0956 50.1479 22.9926 50.1356 22.9474C50.1232 22.9021 50.0985 22.865 50.0697 22.8403C50.0409 22.8156 50.0038 22.8033 49.9586 22.8033C49.905 22.8033 49.8556 22.8197 49.8104 22.8568C49.7651 22.8938 49.7363 22.9391 49.7198 23.0009C49.7033 23.0585 49.6951 23.1697 49.6951 23.3302V23.9765H49.3822V22.548H49.6745V22.758C49.7774 22.5974 49.9092 22.5192 50.0697 22.5192C50.1397 22.5192 50.2014 22.5357 50.2632 22.5645C50.3208 22.5933 50.3661 22.6345 50.3949 22.6798C50.4237 22.7251 50.4443 22.7786 50.4567 22.8403C50.469 22.898 50.4731 22.9844 50.4731 23.0956V23.9807L50.469 23.9765ZM51.8811 23.9765H51.5888V23.7666C51.5394 23.8489 51.4817 23.9107 51.4159 23.9518C51.35 23.993 51.2841 24.0136 51.2141 24.0136C51.0783 24.0136 50.9589 23.9477 50.8601 23.816C50.7613 23.6843 50.7119 23.499 50.7119 23.2602C50.7119 23.0215 50.7613 22.8321 50.856 22.7086C50.9507 22.581 51.0701 22.5192 51.2183 22.5192C51.35 22.5192 51.4653 22.5851 51.5641 22.7168V22.0046H51.8769V23.9765H51.8811ZM51.0412 23.2355C51.0412 23.3879 51.0577 23.499 51.0948 23.569C51.1442 23.6678 51.2183 23.7172 51.3088 23.7172C51.3829 23.7172 51.4447 23.6801 51.4941 23.606C51.5435 23.5319 51.5723 23.4208 51.5723 23.2726C51.5723 23.1079 51.5476 22.9885 51.4982 22.9185C51.4488 22.8444 51.3871 22.8115 51.3088 22.8115C51.2306 22.8115 51.173 22.8486 51.1195 22.9185C51.0701 22.9885 51.0454 23.0956 51.0454 23.2396L51.0412 23.2355ZM52.4286 22.9885L52.1445 22.9268C52.1775 22.7868 52.231 22.6839 52.3092 22.618C52.3874 22.5522 52.5027 22.5192 52.6591 22.5192C52.7991 22.5192 52.9061 22.5398 52.972 22.5769C53.042 22.618 53.0873 22.6674 53.1161 22.7292C53.1449 22.7909 53.1572 22.9021 53.1572 23.0667V23.5072C53.1531 23.6307 53.1572 23.7254 53.1696 23.7831C53.1778 23.8448 53.1984 23.9066 53.2272 23.9724H52.9144C52.9061 23.9477 52.8979 23.9107 52.8855 23.8613C52.8814 23.8407 52.8773 23.8242 52.8732 23.816C52.8197 23.8777 52.762 23.9271 52.7003 23.9601C52.6385 23.993 52.5727 24.0095 52.5027 24.0095C52.3792 24.0095 52.2845 23.9683 52.2145 23.8901C52.1445 23.8119 52.1075 23.709 52.1075 23.5896C52.1075 23.5072 52.1239 23.4373 52.1569 23.3755C52.1898 23.3137 52.2351 23.2644 52.2927 23.2314C52.3504 23.1985 52.4327 23.1697 52.5438 23.145C52.692 23.112 52.795 23.0791 52.8485 23.0544V23.0173C52.8485 22.9432 52.832 22.8897 52.8032 22.8609C52.7744 22.828 52.7167 22.8156 52.6344 22.8156C52.5768 22.8156 52.5356 22.828 52.5027 22.8568C52.4697 22.8815 52.445 22.9309 52.4245 22.9968L52.4286 22.9885ZM52.8526 23.2932C52.8114 23.3096 52.7497 23.3302 52.6591 23.3508C52.5727 23.3714 52.515 23.3961 52.4862 23.4167C52.445 23.4537 52.4245 23.4949 52.4245 23.5484C52.4245 23.6019 52.4409 23.6472 52.4739 23.6843C52.5068 23.7213 52.548 23.7419 52.6015 23.7419C52.6591 23.7419 52.7126 23.7213 52.7661 23.676C52.8032 23.6431 52.8279 23.6019 52.8402 23.5525C52.8485 23.5196 52.8526 23.4578 52.8526 23.3673V23.2932ZM54.5569 23.9765H54.244V23.2479C54.244 23.0956 54.2358 22.9926 54.2235 22.9474C54.2111 22.9021 54.1864 22.865 54.1576 22.8403C54.1288 22.8156 54.0917 22.8033 54.0464 22.8033C53.9929 22.8033 53.9435 22.8197 53.8982 22.8568C53.853 22.8938 53.8241 22.9391 53.8077 23.0009C53.7912 23.0585 53.783 23.1697 53.783 23.3302V23.9765H53.4701V22.548H53.7624V22.758C53.8653 22.5974 53.997 22.5192 54.1576 22.5192C54.2276 22.5192 54.2893 22.5357 54.3511 22.5645C54.4087 22.5933 54.454 22.6345 54.4828 22.6798C54.5116 22.7251 54.5322 22.7786 54.5446 22.8403C54.5569 22.898 54.561 22.9844 54.561 23.0956V23.9807L54.5569 23.9765ZM55.1086 22.9885L54.8245 22.9268C54.8574 22.7868 54.911 22.6839 54.9892 22.618C55.0674 22.5522 55.1827 22.5192 55.3391 22.5192C55.4791 22.5192 55.5861 22.5398 55.652 22.5769C55.7219 22.618 55.7672 22.6674 55.7961 22.7292C55.8249 22.7909 55.8372 22.9021 55.8372 23.0667V23.5072C55.8331 23.6307 55.8372 23.7254 55.8496 23.7831C55.8578 23.8448 55.8784 23.9066 55.9072 23.9724H55.5943C55.5861 23.9477 55.5779 23.9107 55.5655 23.8613C55.5614 23.8407 55.5573 23.8242 55.5532 23.816C55.4996 23.8777 55.442 23.9271 55.3803 23.9601C55.3185 23.993 55.2526 24.0095 55.1827 24.0095C55.0592 24.0095 54.9645 23.9683 54.8945 23.8901C54.8245 23.8119 54.7875 23.709 54.7875 23.5896C54.7875 23.5072 54.8039 23.4373 54.8369 23.3755C54.8698 23.3137 54.9151 23.2644 54.9727 23.2314C55.0303 23.1985 55.1127 23.1697 55.2238 23.145C55.372 23.112 55.4749 23.0791 55.5285 23.0544V23.0173C55.5285 22.9432 55.512 22.8897 55.4832 22.8609C55.4544 22.828 55.3967 22.8156 55.3144 22.8156C55.2568 22.8156 55.2156 22.828 55.1827 22.8568C55.1497 22.8815 55.125 22.9309 55.1044 22.9968L55.1086 22.9885ZM55.5326 23.2932C55.4914 23.3096 55.4297 23.3302 55.3391 23.3508C55.2526 23.3714 55.195 23.3961 55.1662 23.4167C55.125 23.4537 55.1044 23.4949 55.1044 23.5484C55.1044 23.6019 55.1209 23.6472 55.1538 23.6843C55.1868 23.7213 55.2279 23.7419 55.2815 23.7419C55.3391 23.7419 55.3926 23.7213 55.4461 23.676C55.4832 23.6431 55.5079 23.6019 55.5202 23.5525C55.5285 23.5196 55.5326 23.4578 55.5326 23.3673V23.2932ZM56.3889 22.9885L56.1048 22.9268C56.1377 22.7868 56.1913 22.6839 56.2695 22.618C56.3477 22.5522 56.463 22.5192 56.6194 22.5192C56.7594 22.5192 56.8664 22.5398 56.9323 22.5769C57.0022 22.618 57.0475 22.6674 57.0763 22.7292C57.1052 22.7909 57.1175 22.9021 57.1175 23.0667V23.5072C57.1134 23.6307 57.1175 23.7254 57.1299 23.7831C57.1381 23.8448 57.1587 23.9066 57.1875 23.9724H56.8746C56.8664 23.9477 56.8582 23.9107 56.8458 23.8613C56.8417 23.8407 56.8376 23.8242 56.8335 23.816C56.7799 23.8777 56.7223 23.9271 56.6606 23.9601C56.5988 23.993 56.5329 24.0095 56.463 24.0095C56.3395 24.0095 56.2448 23.9683 56.1748 23.8901C56.1048 23.8119 56.0677 23.709 56.0677 23.5896C56.0677 23.5072 56.0842 23.4373 56.1172 23.3755C56.1501 23.3137 56.1954 23.2644 56.253 23.2314C56.3106 23.1985 56.393 23.1697 56.5041 23.145C56.6523 23.112 56.7552 23.0791 56.8088 23.0544V23.0173C56.8088 22.9432 56.7923 22.8897 56.7635 22.8609C56.7347 22.828 56.677 22.8156 56.5947 22.8156C56.5371 22.8156 56.4959 22.828 56.463 22.8568C56.43 22.8815 56.4053 22.9309 56.3847 22.9968L56.3889 22.9885ZM56.8129 23.2932C56.7717 23.3096 56.71 23.3302 56.6194 23.3508C56.5329 23.3714 56.4753 23.3961 56.4465 23.4167C56.4053 23.4537 56.3847 23.4949 56.3847 23.5484C56.3847 23.6019 56.4012 23.6472 56.4341 23.6843C56.4671 23.7213 56.5082 23.7419 56.5576 23.7419C56.6153 23.7419 56.6688 23.7213 56.7223 23.676C56.7594 23.6431 56.7841 23.6019 56.7964 23.5525C56.8046 23.5196 56.8088 23.4578 56.8088 23.3673V23.2932H56.8129ZM58.5172 23.9765H58.2043V23.2479C58.2043 23.0956 58.1961 22.9926 58.1837 22.9474C58.1714 22.9021 58.1467 22.865 58.1179 22.8403C58.0891 22.8156 58.052 22.8033 58.0067 22.8033C57.9532 22.8033 57.9038 22.8197 57.8585 22.8568C57.8132 22.8938 57.7844 22.9391 57.768 23.0009C57.7515 23.0585 57.7433 23.1697 57.7433 23.3302V23.9765H57.4304V22.548H57.7227V22.758C57.8256 22.5974 57.9573 22.5192 58.1179 22.5192C58.1879 22.5192 58.2496 22.5357 58.3114 22.5645C58.369 22.5933 58.4143 22.6345 58.4431 22.6798C58.4719 22.7251 58.4925 22.7786 58.5048 22.8403C58.5172 22.898 58.5213 22.9844 58.5213 23.0956V23.9807L58.5172 23.9765ZM59.4764 22.0046H60.1351C60.2668 22.0046 60.3615 22.0129 60.4273 22.0252C60.4932 22.0376 60.5508 22.0664 60.6002 22.1076C60.6496 22.1487 60.6908 22.2022 60.7279 22.2722C60.7608 22.3422 60.7773 22.4163 60.7773 22.5028C60.7773 22.5933 60.7567 22.6798 60.7155 22.758C60.6743 22.8362 60.6167 22.8938 60.5467 22.9309C60.6455 22.9679 60.7237 23.0256 60.7773 23.112C60.8308 23.1985 60.8596 23.2973 60.8596 23.4084C60.8596 23.499 60.8431 23.5855 60.8061 23.6719C60.7732 23.7584 60.7237 23.8242 60.662 23.8736C60.6002 23.923 60.5261 23.956 60.4397 23.9683C60.3862 23.9765 60.2503 23.9807 60.0404 23.9807H59.4805V22.0088L59.4764 22.0046ZM59.8098 22.334V22.7868H60.028C60.1556 22.7868 60.238 22.7868 60.2709 22.7786C60.3285 22.7703 60.3738 22.7456 60.4068 22.7086C60.4397 22.6715 60.4562 22.618 60.4562 22.5563C60.4562 22.4945 60.4438 22.4451 60.415 22.4081C60.3862 22.371 60.345 22.3463 60.2915 22.3381C60.2586 22.334 60.1639 22.3299 60.0074 22.3299H59.8181L59.8098 22.334ZM59.8098 23.1161V23.6431H60.1186C60.238 23.6431 60.3162 23.6431 60.345 23.6307C60.3944 23.6184 60.4356 23.5937 60.4644 23.5525C60.4973 23.5114 60.5097 23.4537 60.5097 23.3837C60.5097 23.3261 60.4973 23.2726 60.4726 23.2314C60.4479 23.1903 60.415 23.1614 60.3697 23.1408C60.3244 23.1203 60.2256 23.112 60.0733 23.112H59.8057L59.8098 23.1161ZM61.8229 23.5278L62.1358 23.5896C62.0946 23.7295 62.0329 23.8325 61.9464 23.9066C61.86 23.9765 61.7488 24.0136 61.6212 24.0136C61.4154 24.0136 61.2589 23.9313 61.1601 23.7707C61.0819 23.639 61.0407 23.4743 61.0407 23.2767C61.0407 23.0379 61.0943 22.8527 61.1972 22.7209C61.3001 22.5851 61.4318 22.5192 61.5883 22.5192C61.7653 22.5192 61.9052 22.5892 62.0082 22.7292C62.1111 22.8691 62.1605 23.0832 62.1564 23.3755H61.366C61.366 23.4867 61.3948 23.5731 61.4442 23.639C61.4936 23.7007 61.5512 23.7337 61.6253 23.7337C61.6747 23.7337 61.7159 23.7172 61.7488 23.6843C61.7817 23.6513 61.8064 23.6019 61.827 23.5278H61.8229ZM61.8394 23.145C61.8394 23.0338 61.8147 22.9515 61.7694 22.8938C61.7241 22.8362 61.6706 22.8074 61.6047 22.8074C61.5347 22.8074 61.4812 22.8362 61.4359 22.898C61.3907 22.9597 61.3701 23.042 61.3701 23.145H61.8394ZM62.7121 23.9807H62.3992V22.5522H62.6915V22.7539C62.7409 22.6592 62.7862 22.5933 62.8274 22.5645C62.8685 22.5357 62.9138 22.5192 62.9632 22.5192C63.0332 22.5192 63.1032 22.5439 63.1732 22.5892L63.0744 22.9185C63.0209 22.8774 62.9715 22.8568 62.9262 22.8568C62.8809 22.8568 62.8438 22.8733 62.815 22.9021C62.7862 22.9309 62.7615 22.9844 62.7409 23.0585C62.7245 23.1326 62.7162 23.2932 62.7162 23.5361V23.9765L62.7121 23.9807ZM63.1938 23.5772L63.5108 23.5196C63.5231 23.5937 63.5519 23.6472 63.5931 23.6843C63.6343 23.7213 63.6919 23.7419 63.766 23.7419C63.8483 23.7419 63.9101 23.7254 63.9512 23.6884C63.9801 23.6637 63.9924 23.6307 63.9924 23.5855C63.9924 23.5566 63.9842 23.5319 63.9718 23.5155C63.9554 23.499 63.9224 23.4825 63.8648 23.4661C63.6096 23.4002 63.449 23.3384 63.379 23.2808C63.2843 23.2026 63.2391 23.0956 63.2391 22.9597C63.2391 22.8362 63.2802 22.7333 63.3626 22.6468C63.4449 22.5604 63.5725 22.5192 63.7413 22.5192C63.9101 22.5192 64.0253 22.5522 64.1036 22.6139C64.1818 22.6798 64.2394 22.7745 64.2682 22.898L63.9718 22.9638C63.9595 22.9062 63.9348 22.865 63.8977 22.8362C63.8607 22.8074 63.8113 22.7909 63.7454 22.7909C63.6631 22.7909 63.6013 22.8033 63.5643 22.8321C63.5396 22.8527 63.5272 22.8774 63.5272 22.9103C63.5272 22.9391 63.5355 22.9597 63.5602 22.9803C63.589 23.005 63.6878 23.042 63.8566 23.0873C64.0253 23.1326 64.1447 23.1903 64.2106 23.2561C64.2765 23.322 64.3094 23.4167 64.3094 23.5361C64.3094 23.6678 64.2641 23.7789 64.1735 23.8736C64.083 23.9683 63.9471 24.0136 63.766 24.0136C63.6054 24.0136 63.4737 23.9724 63.379 23.8942C63.2843 23.816 63.2226 23.709 63.1938 23.5731V23.5772ZM64.8199 22.9926L64.5358 22.9309C64.5688 22.7909 64.6223 22.688 64.7005 22.6221C64.7787 22.5563 64.894 22.5233 65.0504 22.5233C65.1904 22.5233 65.2974 22.5439 65.3633 22.581C65.4333 22.6221 65.4785 22.6715 65.5074 22.7333C65.5362 22.795 65.5485 22.9062 65.5485 23.0709V23.5114C65.5444 23.6349 65.5485 23.7295 65.5609 23.7872C65.5691 23.8489 65.5897 23.9107 65.6185 23.9765H65.3056C65.2974 23.9518 65.2892 23.9148 65.2768 23.8654C65.2727 23.8448 65.2686 23.8283 65.2645 23.8201C65.211 23.8819 65.1533 23.9313 65.0916 23.9642C65.0298 23.9971 64.964 24.0136 64.894 24.0136C64.7705 24.0136 64.6758 23.9724 64.6058 23.8942C64.5358 23.816 64.4988 23.7131 64.4988 23.5937C64.4988 23.5114 64.5152 23.4414 64.5482 23.3796C64.5811 23.3179 64.6264 23.2685 64.684 23.2355C64.7417 23.2026 64.824 23.1738 64.9351 23.1491C65.0833 23.1161 65.1863 23.0832 65.2398 23.0585V23.0215C65.2398 22.9474 65.2233 22.8938 65.1945 22.865C65.1657 22.8321 65.108 22.8197 65.0257 22.8197C64.9681 22.8197 64.9269 22.8321 64.894 22.8609C64.861 22.8856 64.8363 22.935 64.8158 23.0009L64.8199 22.9926ZM65.2439 23.2973C65.2027 23.3137 65.141 23.3343 65.0504 23.3549C64.964 23.3755 64.9063 23.4002 64.8775 23.4208C64.8363 23.4578 64.8158 23.499 64.8158 23.5525C64.8158 23.606 64.8322 23.6513 64.8652 23.6884C64.8981 23.7254 64.9393 23.746 64.9928 23.746C65.0504 23.746 65.1039 23.7254 65.1574 23.6801C65.1945 23.6472 65.2192 23.606 65.2315 23.5566C65.2398 23.5237 65.2439 23.462 65.2439 23.3714V23.2973ZM65.8408 22.5522H66.129V22.7456C66.2319 22.5974 66.3554 22.5192 66.4995 22.5192C66.5777 22.5192 66.6436 22.5398 66.6971 22.5769C66.7547 22.6139 66.8 22.6715 66.8329 22.7456C66.8865 22.6674 66.9441 22.6139 67.0017 22.5769C67.0635 22.5398 67.1252 22.5192 67.1952 22.5192C67.2817 22.5192 67.3558 22.5398 67.4175 22.581C67.4793 22.6221 67.5246 22.688 67.5534 22.7703C67.574 22.8321 67.5863 22.9309 67.5863 23.0667V23.9807H67.2734V23.1655C67.2734 23.0256 67.2611 22.9309 67.2405 22.8897C67.2117 22.8362 67.1664 22.8074 67.1046 22.8074C67.0594 22.8074 67.0182 22.8239 66.9811 22.8568C66.9441 22.8897 66.9153 22.935 66.8988 22.9968C66.8823 23.0585 66.8741 23.1573 66.8741 23.2932V23.9765H66.5612V23.1944C66.5612 23.0544 66.5571 22.9679 66.5448 22.9268C66.5324 22.8856 66.516 22.8568 66.4913 22.8362C66.4666 22.8156 66.4377 22.8074 66.3966 22.8074C66.3472 22.8074 66.306 22.8239 66.2648 22.8527C66.2278 22.8856 66.199 22.9309 66.1825 22.9885C66.166 23.0462 66.1578 23.145 66.1578 23.2808V23.9724H65.8449V22.5439L65.8408 22.5522ZM68.1421 22.9926L67.858 22.9309C67.8909 22.7909 67.9445 22.688 68.0227 22.6221C68.1009 22.5563 68.2162 22.5233 68.3726 22.5233C68.5126 22.5233 68.6196 22.5439 68.6855 22.581C68.7554 22.6221 68.8007 22.6715 68.8295 22.7333C68.8584 22.795 68.8707 22.9062 68.8707 23.0709V23.5114C68.8666 23.6349 68.8707 23.7295 68.8831 23.7872C68.8913 23.8489 68.9119 23.9107 68.9407 23.9765H68.6278C68.6196 23.9518 68.6114 23.9148 68.599 23.8654C68.5949 23.8448 68.5908 23.8283 68.5867 23.8201C68.5331 23.8819 68.4755 23.9313 68.4138 23.9642C68.352 23.9971 68.2861 24.0136 68.2162 24.0136C68.0927 24.0136 67.998 23.9724 67.928 23.8942C67.858 23.816 67.821 23.7131 67.821 23.5937C67.821 23.5114 67.8374 23.4414 67.8704 23.3796C67.9033 23.3179 67.9486 23.2685 68.0062 23.2355C68.0638 23.2026 68.1462 23.1738 68.2573 23.1491C68.4055 23.1161 68.5084 23.0832 68.562 23.0585V23.0215C68.562 22.9474 68.5455 22.8938 68.5167 22.865C68.4879 22.8321 68.4302 22.8197 68.3479 22.8197C68.2903 22.8197 68.2491 22.8321 68.2162 22.8609C68.1832 22.8856 68.1585 22.935 68.1379 23.0009L68.1421 22.9926ZM68.5661 23.2973C68.5249 23.3137 68.4632 23.3343 68.3726 23.3549C68.2861 23.3755 68.2285 23.4002 68.1997 23.4208C68.1585 23.4578 68.1379 23.499 68.1379 23.5525C68.1379 23.606 68.1544 23.6513 68.1873 23.6884C68.2203 23.7254 68.2614 23.746 68.315 23.746C68.3726 23.746 68.4261 23.7254 68.4796 23.6801C68.5167 23.6472 68.5414 23.606 68.5537 23.5566C68.562 23.5237 68.5661 23.462 68.5661 23.3714V23.2973ZM69.8176 23.9807V22.0088H70.151V23.9807H69.8176Z" fill="#333333"/>
<path fill-rule="evenodd" clip-rule="evenodd" d="M71.5425 23.9765H71.2296V23.2479C71.2296 23.0956 71.2214 22.9926 71.209 22.9474C71.1966 22.9021 71.172 22.865 71.1431 22.8403C71.1143 22.8156 71.0773 22.8033 71.032 22.8033C70.9785 22.8033 70.9291 22.8197 70.8838 22.8568C70.8385 22.8938 70.8097 22.9391 70.7932 23.0009C70.7768 23.0585 70.7685 23.1697 70.7685 23.3302V23.9765H70.4556V22.548H70.7479V22.758C70.8509 22.5974 70.9826 22.5192 71.1431 22.5192C71.2131 22.5192 71.2749 22.5357 71.3366 22.5645C71.3943 22.5933 71.4395 22.6345 71.4684 22.6798C71.4972 22.7251 71.5178 22.7786 71.5301 22.8403C71.5425 22.898 71.5466 22.9844 71.5466 23.0956V23.9807L71.5425 23.9765ZM72.9545 23.9765H72.6622V23.7666C72.6128 23.8489 72.5552 23.9107 72.4893 23.9518C72.4234 23.993 72.3576 24.0136 72.2876 24.0136C72.1517 24.0136 72.0323 23.9477 71.9335 23.816C71.8347 23.6843 71.7853 23.499 71.7853 23.2602C71.7853 23.0215 71.8347 22.8321 71.9294 22.7086C72.0241 22.581 72.1435 22.5192 72.2917 22.5192C72.4234 22.5192 72.5387 22.5851 72.6375 22.7168V22.0046H72.9504V23.9765H72.9545ZM72.1147 23.2355C72.1147 23.3878 72.1311 23.499 72.1682 23.569C72.2176 23.6678 72.2917 23.7172 72.3823 23.7172C72.4564 23.7172 72.5181 23.6801 72.5675 23.606C72.6169 23.5319 72.6457 23.4208 72.6457 23.2726C72.6457 23.1079 72.621 22.9885 72.5716 22.9185C72.5222 22.8444 72.4605 22.8115 72.3823 22.8115C72.304 22.8115 72.2464 22.8486 72.1929 22.9185C72.1435 22.9885 72.1188 23.0956 72.1188 23.2396L72.1147 23.2355ZM73.1933 23.2438C73.1933 23.1161 73.218 22.9968 73.2715 22.8774C73.325 22.758 73.395 22.6715 73.4897 22.6098C73.5843 22.548 73.6914 22.5151 73.8066 22.5151C73.9878 22.5151 74.136 22.5851 74.2513 22.7251C74.3665 22.865 74.4242 23.042 74.4242 23.2561C74.4242 23.4702 74.3665 23.6513 74.2513 23.7954C74.136 23.9395 73.9878 24.0095 73.8108 24.0095C73.6996 24.0095 73.5967 23.9807 73.4979 23.9189C73.3991 23.8613 73.325 23.7748 73.2715 23.6596C73.218 23.5443 73.1933 23.4043 73.1933 23.2396V23.2438ZM73.5185 23.2643C73.5185 23.4043 73.5473 23.5155 73.6008 23.5896C73.6584 23.6637 73.7243 23.7048 73.8066 23.7048C73.889 23.7048 73.959 23.6678 74.0125 23.5896C74.066 23.5155 74.0948 23.4043 74.0948 23.2602C74.0948 23.1161 74.066 23.0132 74.0125 22.9391C73.959 22.865 73.889 22.8239 73.8066 22.8239C73.7243 22.8239 73.6543 22.8609 73.6008 22.9391C73.5432 23.0132 73.5185 23.1244 73.5185 23.2643ZM75.758 23.9765H75.4451V23.2479C75.4451 23.0956 75.4369 22.9926 75.4245 22.9474C75.4122 22.9021 75.3875 22.865 75.3586 22.8403C75.3298 22.8156 75.2928 22.8033 75.2475 22.8033C75.194 22.8033 75.1446 22.8197 75.0993 22.8568C75.054 22.8938 75.0252 22.9391 75.0087 23.0009C74.9923 23.0585 74.984 23.1697 74.984 23.3302V23.9765H74.6712V22.548H74.9634V22.758C75.0664 22.5974 75.1981 22.5192 75.3586 22.5192C75.4286 22.5192 75.4904 22.5357 75.5521 22.5645C75.6098 22.5933 75.6551 22.6345 75.6839 22.6798C75.7127 22.7251 75.7333 22.7786 75.7456 22.8403C75.758 22.898 75.7621 22.9844 75.7621 23.0956V23.9807L75.758 23.9765ZM76.7666 23.5237L77.0794 23.5855C77.0383 23.7254 76.9765 23.8283 76.8901 23.9024C76.8036 23.9724 76.6925 24.0095 76.5648 24.0095C76.359 24.0095 76.2026 23.9271 76.1038 23.7666C76.0256 23.6349 75.9844 23.4702 75.9844 23.2726C75.9844 23.0338 76.0379 22.8486 76.1408 22.7168C76.2437 22.581 76.3755 22.5151 76.5319 22.5151C76.7089 22.5151 76.8489 22.5851 76.9518 22.7251C77.0547 22.865 77.1041 23.0791 77.1 23.3714H76.3096C76.3096 23.4825 76.3384 23.569 76.3878 23.6349C76.4372 23.6966 76.4949 23.7295 76.569 23.7295C76.6184 23.7295 76.6595 23.7131 76.6925 23.6801C76.7254 23.6472 76.7501 23.5978 76.7707 23.5237H76.7666ZM76.783 23.1408C76.783 23.0297 76.7583 22.9474 76.713 22.8897C76.6678 22.8321 76.6142 22.8033 76.5484 22.8033C76.4784 22.8033 76.4249 22.8321 76.3796 22.8938C76.3343 22.9556 76.3137 23.0379 76.3137 23.1408H76.783ZM77.24 23.5731L77.557 23.5155C77.5693 23.5896 77.5981 23.6431 77.6393 23.6801C77.6805 23.7172 77.7381 23.7378 77.8122 23.7378C77.8945 23.7378 77.9563 23.7213 77.9975 23.6843C78.0263 23.6596 78.0386 23.6266 78.0386 23.5813C78.0386 23.5525 78.0304 23.5278 78.018 23.5114C78.0016 23.4949 77.9686 23.4784 77.911 23.462C77.6558 23.3961 77.4952 23.3343 77.4252 23.2767C77.3306 23.1985 77.2853 23.0914 77.2853 22.9556C77.2853 22.8321 77.3264 22.7292 77.4088 22.6427C77.4911 22.5563 77.6187 22.5151 77.7875 22.5151C77.9563 22.5151 78.0716 22.548 78.1498 22.6098C78.228 22.6757 78.2856 22.7703 78.3144 22.8938L78.018 22.9597C78.0057 22.9021 77.981 22.8609 77.9439 22.8321C77.9069 22.8033 77.8575 22.7868 77.7916 22.7868C77.7093 22.7868 77.6475 22.7992 77.6105 22.828C77.5858 22.8486 77.5734 22.8733 77.5734 22.9062C77.5734 22.935 77.5858 22.9556 77.6064 22.9762C77.6352 23.0009 77.734 23.0379 77.9028 23.0832C78.0716 23.1285 78.1909 23.1861 78.2568 23.252C78.3227 23.3179 78.3556 23.4125 78.3556 23.5319C78.3556 23.6637 78.3103 23.7748 78.2198 23.8695C78.1292 23.9642 77.9933 24.0095 77.8122 24.0095C77.6516 24.0095 77.5199 23.9683 77.4252 23.8901C77.3306 23.8119 77.2688 23.7048 77.24 23.569V23.5731ZM78.6314 22.3546V22.0046H78.9443V22.3546H78.6314ZM78.6314 23.9765V22.548H78.9443V23.9765H78.6314ZM79.5042 22.9885L79.2201 22.9268C79.2531 22.7868 79.3066 22.6839 79.3848 22.618C79.463 22.5522 79.5783 22.5192 79.7347 22.5192C79.8747 22.5192 79.9817 22.5398 80.0476 22.5769C80.1176 22.618 80.1628 22.6674 80.1917 22.7292C80.2205 22.7909 80.2328 22.9021 80.2328 23.0667V23.5072C80.2287 23.6307 80.2328 23.7254 80.2452 23.7831C80.2534 23.8448 80.274 23.9066 80.3028 23.9724H79.9899C79.9817 23.9477 79.9735 23.9107 79.9611 23.8613C79.957 23.8407 79.9529 23.8242 79.9488 23.816C79.8953 23.8777 79.8376 23.9271 79.7759 23.9601C79.7141 23.993 79.6483 24.0095 79.5783 24.0095C79.4548 24.0095 79.3601 23.9683 79.2901 23.8901C79.2201 23.8119 79.1831 23.709 79.1831 23.5896C79.1831 23.5072 79.1995 23.4373 79.2325 23.3755C79.2654 23.3137 79.3107 23.2643 79.3683 23.2314C79.426 23.1985 79.5083 23.1697 79.6194 23.145C79.7676 23.112 79.8706 23.0791 79.9241 23.0544V23.0173C79.9241 22.9432 79.9076 22.8897 79.8788 22.8609C79.85 22.828 79.7923 22.8156 79.71 22.8156C79.6524 22.8156 79.6112 22.828 79.5783 22.8568C79.5453 22.8815 79.5206 22.9309 79.5001 22.9968L79.5042 22.9885ZM79.9282 23.2932C79.887 23.3096 79.8253 23.3302 79.7347 23.3508C79.6483 23.3714 79.5906 23.3961 79.5618 23.4167C79.5206 23.4537 79.5001 23.4949 79.5001 23.5484C79.5001 23.6019 79.5165 23.6472 79.5495 23.6843C79.5824 23.7213 79.6236 23.7419 79.6771 23.7419C79.7347 23.7419 79.7882 23.7213 79.8417 23.676C79.8788 23.6431 79.9035 23.6019 79.9158 23.5525C79.9241 23.5196 79.9282 23.4578 79.9282 23.3673V23.2932Z" fill="#333333"/>
</g>
<defs>
<clipPath id="clip0_801_8855">
<rect width="80.0004" height="24.6275" fill="white" transform="translate(0.5)"/>
</clipPath>
</defs>
</svg>
