<svg width="81" height="26" viewBox="0 0 81 26" fill="none" xmlns="http://www.w3.org/2000/svg">
<g clip-path="url(#clip0_801_8869)">
<path fill-rule="evenodd" clip-rule="evenodd" d="M76.8825 19.4035H79.7735V6.28249H76.8825V19.4035ZM65.5708 12.7637V8.25358C65.5708 8.25358 70.8813 7.21645 70.8813 10.3963C70.8813 13.5761 65.5708 12.7637 65.5708 12.7637ZM62.5962 6.52576L62.5832 19.4035H65.5708V14.6403C65.5708 14.6403 74.0166 15.5417 74.0166 10.2681C74.0166 5.38872 65.7033 6.38349 62.5962 6.52576ZM51.9437 9.72402C51.9231 8.55983 53.3859 8.03312 54.8857 8.06787C56.5244 8.10588 58.2132 8.764 58.2132 8.764L58.9169 6.90911C58.9169 6.90911 56.9838 5.87633 54.1222 6.19779C51.3225 6.51272 48.8062 7.9028 48.8084 9.72402C48.8084 10.469 49.144 11.9004 50.6959 12.7311C52.0881 13.4761 54.1407 13.8237 55.4015 14.4959C56.1737 14.9086 56.5896 15.5623 56.5494 16.1531C56.4571 17.5193 54.4904 17.9461 52.6224 17.7941C50.8968 17.654 49.2559 16.985 49.2559 16.985L48.6162 18.9365C48.6162 18.9365 51.1162 19.8542 53.8301 19.7358C56.5874 19.6164 59.5598 18.4435 59.6521 16.089C59.8356 11.4171 51.9861 12.1599 51.9426 9.72293L51.9437 9.72402ZM37.0688 13.9464L39.244 8.41213L41.3878 13.9464H37.0688ZM37.4619 6.28249L32.0461 19.4035H35.2345L36.6485 15.8241H41.9058L43.3882 19.4035L46.795 19.4176L41.2292 6.28249H37.4619Z" fill="#EC202B"/>
<path fill-rule="evenodd" clip-rule="evenodd" d="M80.0276 23.2023C80.0276 23.3479 80.0178 23.4478 79.9983 23.5032C79.9798 23.5585 79.9451 23.6063 79.8951 23.6465C79.8451 23.6867 79.7952 23.7073 79.7441 23.7073C79.6877 23.7073 79.6399 23.6823 79.6019 23.6335C79.5639 23.5835 79.5454 23.5216 79.5454 23.4489C79.5454 23.3837 79.5628 23.3316 79.5965 23.2903C79.6312 23.249 79.704 23.2121 79.8137 23.1784C79.9103 23.1502 79.9809 23.1241 80.0265 23.1024V23.2034L80.0276 23.2023ZM80.3925 23.7584C80.3816 23.6769 80.3751 23.5542 80.3751 23.3891L80.3784 22.8005C80.3784 22.5779 80.361 22.4248 80.3273 22.34C80.2937 22.2553 80.2361 22.1891 80.1568 22.1402C80.0765 22.0914 79.9613 22.0664 79.8104 22.0664C79.641 22.0664 79.5107 22.1087 79.4194 22.1924C79.3293 22.2771 79.2641 22.415 79.225 22.6072L79.5498 22.6897C79.5726 22.5974 79.6019 22.5344 79.6388 22.5019C79.6757 22.4682 79.7268 22.4519 79.7908 22.4519C79.8549 22.4519 79.9027 22.4628 79.9374 22.4834C79.9722 22.504 79.9961 22.5323 80.0091 22.5648C80.0222 22.5974 80.0287 22.6669 80.0287 22.7734C79.9635 22.8114 79.8484 22.8526 79.6822 22.8972C79.5454 22.9341 79.4466 22.9775 79.3836 23.0242C79.3217 23.072 79.2728 23.1361 79.2392 23.2164C79.2055 23.2968 79.1881 23.3902 79.1881 23.4977C79.1881 23.6682 79.2305 23.804 79.3141 23.9071C79.3977 24.0092 79.5063 24.0603 79.6377 24.0603C79.717 24.0603 79.7908 24.0396 79.8603 23.9962C79.9298 23.9538 79.9961 23.8909 80.0569 23.8061L80.1036 24.0147H80.4576C80.4261 23.9234 80.4055 23.8376 80.3936 23.7573L80.3925 23.7584ZM78.5561 24.0157H78.9155V22.1109H78.5561V24.0157ZM78.5561 21.8524H78.9155V21.3855H78.5561V21.8524ZM77.7307 22.8211C77.5526 22.7625 77.4462 22.7191 77.4125 22.6908C77.3778 22.6637 77.3615 22.6289 77.3615 22.5866C77.3615 22.5399 77.3799 22.5019 77.4179 22.4725C77.4549 22.4432 77.5178 22.428 77.6058 22.428C77.7459 22.428 77.8306 22.504 77.8599 22.6572L78.1977 22.5692C78.1608 22.3922 78.0956 22.264 78.0033 22.1847C77.911 22.1055 77.7774 22.0653 77.5993 22.0653C77.4212 22.0653 77.2724 22.1185 77.1758 22.2249C77.078 22.3314 77.0292 22.4736 77.0292 22.6506C77.0292 22.8277 77.0791 22.9678 77.1779 23.0698C77.2572 23.1513 77.444 23.2371 77.7383 23.3272C77.7959 23.3457 77.835 23.3663 77.8545 23.3902C77.873 23.4141 77.8827 23.4467 77.8827 23.489C77.8827 23.5498 77.861 23.5998 77.8187 23.6378C77.7763 23.6758 77.7122 23.6954 77.6264 23.6954C77.4646 23.6954 77.3691 23.5955 77.3376 23.3956L76.9792 23.4727C77.0139 23.6639 77.0878 23.8094 77.1986 23.9093C77.3093 24.0092 77.4527 24.0592 77.6275 24.0592C77.8198 24.0592 77.9707 23.9995 78.0804 23.88C78.189 23.7605 78.2444 23.6085 78.2444 23.4239C78.2444 23.2707 78.2096 23.148 78.139 23.0557C78.0674 22.9634 77.9316 22.8852 77.7318 22.819L77.7307 22.8211ZM75.9225 22.9004C75.9225 22.7592 75.9475 22.6485 76.0007 22.5692C76.0528 22.491 76.1158 22.4519 76.1918 22.4519C76.2635 22.4519 76.3254 22.4899 76.3765 22.5638C76.4286 22.6387 76.4557 22.7506 76.459 22.8993H75.9225V22.9004ZM76.1701 22.0664C75.9964 22.0664 75.8541 22.1478 75.7444 22.3086C75.6152 22.4997 75.55 22.7549 75.55 23.0742C75.55 23.3935 75.6141 23.6498 75.7433 23.8289C75.8519 23.9842 76.0072 24.0614 76.207 24.0614C76.3504 24.0614 76.4731 24.0147 76.5741 23.9223C76.6751 23.83 76.749 23.6878 76.7967 23.4966L76.4416 23.4119C76.4025 23.5944 76.3265 23.6845 76.2114 23.6845C76.131 23.6845 76.0626 23.6432 76.0061 23.5607C75.9497 23.4782 75.9203 23.3609 75.9182 23.2099H76.8141V23.1524C76.8152 22.7831 76.7522 22.504 76.6262 22.3151C76.5166 22.15 76.3645 22.0675 76.1712 22.0675L76.1701 22.0664ZM75.1004 22.1609C75.0287 22.0979 74.9397 22.0664 74.8354 22.0664C74.7453 22.0664 74.6628 22.0935 74.5889 22.1467C74.5151 22.201 74.4477 22.2814 74.3891 22.3889V22.1109H74.0568V24.0157H74.4152V23.1524C74.4152 22.933 74.4249 22.7842 74.4445 22.7049C74.464 22.6257 74.4988 22.5638 74.5466 22.5192C74.5954 22.4747 74.6497 22.4519 74.7095 22.4519C74.7562 22.4519 74.7974 22.4693 74.8344 22.504C74.8713 22.5388 74.8963 22.5887 74.9104 22.6528C74.9234 22.7169 74.9299 22.8472 74.9299 23.0427V24.0168H75.2894V22.832C75.2894 22.6452 75.2753 22.5019 75.2481 22.403C75.221 22.3042 75.171 22.2238 75.0993 22.1609H75.1004ZM73.3161 23.501C73.2521 23.5998 73.1749 23.6498 73.0837 23.6498C72.9925 23.6498 72.9132 23.6009 72.847 23.5021C72.7818 23.4032 72.7492 23.2566 72.7492 23.0633C72.7492 22.87 72.7818 22.7256 72.847 22.6257C72.9121 22.5268 72.9892 22.4758 73.0794 22.4758C73.1695 22.4758 73.2499 22.5258 73.3139 22.6257C73.3802 22.7256 73.4128 22.87 73.4128 23.059C73.4128 23.2479 73.3802 23.4011 73.3161 23.4999V23.501ZM73.0805 22.0664C72.9512 22.0664 72.835 22.1044 72.7308 22.1815C72.6276 22.2586 72.544 22.3737 72.4788 22.5268C72.4147 22.68 72.3822 22.8505 72.3822 23.0373C72.3822 23.3652 72.4484 23.6183 72.5809 23.7953C72.7134 23.9723 72.8796 24.0614 73.0816 24.0614C73.2064 24.0614 73.3216 24.0212 73.4269 23.9419C73.5322 23.8626 73.6169 23.7432 73.681 23.5846C73.7462 23.426 73.7788 23.249 73.7788 23.0525C73.7788 22.7886 73.7169 22.5583 73.592 22.3618C73.4682 22.1641 73.2966 22.0664 73.0794 22.0664H73.0805ZM71.6687 23.5151C71.61 23.6139 71.5427 23.6628 71.4634 23.6628C71.4048 23.6628 71.3516 23.6411 71.3049 23.5987C71.2582 23.5564 71.2212 23.4923 71.1963 23.4087C71.1713 23.324 71.1582 23.1958 71.1582 23.0231C71.1582 22.8331 71.1876 22.6897 71.2451 22.5953C71.3038 22.5008 71.3733 22.453 71.4558 22.453C71.5383 22.453 71.6144 22.5008 71.6708 22.5974C71.7273 22.6941 71.7555 22.8516 71.7555 23.072C71.7555 23.2697 71.7262 23.4184 71.6687 23.5162V23.5151ZM71.7534 22.3314C71.6991 22.2423 71.6383 22.1761 71.5731 22.1315C71.5079 22.087 71.4373 22.0653 71.3613 22.0653C71.2006 22.0653 71.0659 22.1478 70.9563 22.314C70.8466 22.4801 70.7912 22.7256 70.7912 23.0514C70.7912 23.3772 70.8476 23.6237 70.9606 23.7985C71.0724 23.9723 71.2049 24.0603 71.3559 24.0603C71.4341 24.0603 71.5112 24.0331 71.585 23.9788C71.66 23.9245 71.724 23.8431 71.7794 23.7356V24.0157H72.1117V21.3855H71.7534V22.3314ZM70.3188 22.1598C70.2471 22.0968 70.1591 22.0653 70.0538 22.0653C69.9636 22.0653 69.8811 22.0924 69.8073 22.1457C69.7334 22.2 69.6661 22.2803 69.6074 22.3878V22.1098H69.2751V24.0147H69.6346V23.1513C69.6346 22.9319 69.6444 22.7831 69.6639 22.7039C69.6835 22.6246 69.7182 22.5627 69.7671 22.5182C69.8149 22.4736 69.8703 22.4508 69.93 22.4508C69.9767 22.4508 70.0179 22.4682 70.0549 22.5029C70.0918 22.5377 70.1168 22.5877 70.1298 22.6517C70.1439 22.7158 70.1504 22.8461 70.1504 23.0416V24.0157H70.5088V22.8309C70.5088 22.6441 70.4958 22.5008 70.4676 22.4019C70.4404 22.3031 70.3904 22.2228 70.3177 22.1598H70.3188ZM68.5443 24.0157H68.92V21.3865H68.5443V24.0157ZM67.2736 22.1598C67.202 22.0968 67.1129 22.0653 67.0087 22.0653C66.9185 22.0653 66.836 22.0924 66.7621 22.1457C66.6883 22.2 66.621 22.2803 66.5623 22.3878V22.1098H66.23V24.0147H66.5884V23.1513C66.5884 22.9319 66.5981 22.7831 66.6177 22.7039C66.6372 22.6246 66.672 22.5627 66.7198 22.5182C66.7686 22.4736 66.8229 22.4508 66.8827 22.4508C66.9294 22.4508 66.9706 22.4682 67.0076 22.5029C67.0445 22.5377 67.0695 22.5877 67.0825 22.6517C67.0955 22.7158 67.1031 22.8461 67.1031 23.0416V24.0157H67.4615V22.8309C67.4615 22.6441 67.4474 22.5008 67.4202 22.4019C67.3931 22.3031 67.3431 22.2228 67.2704 22.1598H67.2736ZM65.5284 23.2012C65.5284 23.3468 65.5187 23.4467 65.4991 23.5021C65.4807 23.5575 65.4459 23.6052 65.396 23.6454C65.346 23.6856 65.296 23.7062 65.245 23.7062C65.1885 23.7062 65.1407 23.6813 65.1027 23.6324C65.0647 23.5824 65.0462 23.5205 65.0462 23.4478C65.0462 23.3826 65.0636 23.3305 65.0973 23.2892C65.132 23.2479 65.2037 23.211 65.3145 23.1774C65.4112 23.1491 65.4817 23.1231 65.5274 23.1013V23.2023L65.5284 23.2012ZM65.877 23.3891L65.8803 22.8005C65.8803 22.5779 65.8629 22.4248 65.8293 22.34C65.7945 22.2553 65.738 22.1891 65.6588 22.1402C65.5795 22.0914 65.4633 22.0664 65.3123 22.0664C65.1418 22.0664 65.0115 22.1087 64.9214 22.1924C64.8301 22.2771 64.7661 22.415 64.7259 22.6072L65.0506 22.6897C65.0734 22.5974 65.1027 22.5344 65.1397 22.5019C65.1766 22.4682 65.2265 22.4519 65.2906 22.4519C65.3547 22.4519 65.4025 22.4628 65.4372 22.4834C65.472 22.504 65.4959 22.5323 65.5089 22.5648C65.5219 22.5974 65.5284 22.6669 65.5284 22.7734C65.4633 22.8114 65.3482 22.8526 65.182 22.8972C65.0452 22.9341 64.9453 22.9775 64.8834 23.0242C64.8214 23.072 64.7726 23.1361 64.7389 23.2164C64.7053 23.2968 64.6879 23.3902 64.6879 23.4977C64.6879 23.6682 64.7302 23.804 64.8139 23.9071C64.8975 24.0092 65.005 24.0603 65.1364 24.0603C65.2157 24.0603 65.2895 24.0396 65.359 23.9962C65.4285 23.9538 65.4948 23.8909 65.5556 23.8061L65.6023 24.0147H65.9563C65.9248 23.9234 65.9042 23.8376 65.8923 23.7573C65.8814 23.6758 65.8749 23.5531 65.8749 23.388L65.877 23.3891ZM64.2383 22.1294C64.1937 22.1706 64.1427 22.2553 64.0851 22.3824V22.112H63.7528V24.0168H64.1112V23.4271C64.1112 23.1296 64.1188 22.9243 64.1362 22.8135C64.1525 22.7017 64.1796 22.6246 64.2176 22.5833C64.2556 22.541 64.2991 22.5192 64.349 22.5192C64.4023 22.5192 64.4576 22.5464 64.5174 22.6018L64.6292 22.1619C64.5543 22.0979 64.4761 22.0675 64.3947 22.0675C64.336 22.0675 64.2839 22.0881 64.2383 22.1304V22.1294ZM63.0632 23.2023C63.0632 23.3479 63.0534 23.4478 63.0339 23.5032C63.0144 23.5585 62.9807 23.6063 62.9307 23.6465C62.8808 23.6867 62.8308 23.7073 62.7798 23.7073C62.7222 23.7073 62.6755 23.6823 62.6375 23.6335C62.5995 23.5835 62.581 23.5216 62.581 23.4489C62.581 23.3837 62.5984 23.3316 62.6321 23.2903C62.6657 23.249 62.7385 23.2121 62.8493 23.1784C62.9459 23.1502 63.0165 23.1241 63.0621 23.1024V23.2034L63.0632 23.2023ZM63.4107 23.3902L63.414 22.8016C63.414 22.579 63.3966 22.4258 63.363 22.3411C63.3282 22.2564 63.2717 22.1902 63.1914 22.1413C63.1121 22.0924 62.9959 22.0675 62.8449 22.0675C62.6755 22.0675 62.5452 22.1098 62.454 22.1934C62.3638 22.2781 62.2987 22.4161 62.2596 22.6083L62.5843 22.6908C62.6071 22.5985 62.6364 22.5355 62.6734 22.5029C62.7103 22.4693 62.7602 22.453 62.8243 22.453C62.8884 22.453 62.9362 22.4639 62.9709 22.4845C63.0057 22.5051 63.0296 22.5334 63.0426 22.5659C63.0556 22.5985 63.0621 22.668 63.0621 22.7744C62.997 22.8125 62.8819 22.8537 62.7157 22.8983C62.5789 22.9352 62.48 22.9786 62.4171 23.0253C62.3552 23.0731 62.3063 23.1372 62.2726 23.2175C62.2379 23.2979 62.2216 23.3913 62.2216 23.4988C62.2216 23.6693 62.2639 23.8051 62.3475 23.9082C62.4312 24.0103 62.5387 24.0614 62.6701 24.0614C62.7494 24.0614 62.8232 24.0407 62.8927 23.9973C62.9633 23.9549 63.0285 23.8919 63.0893 23.8072L63.136 24.0157H63.49C63.4585 23.9245 63.4379 23.8387 63.4259 23.7584C63.4151 23.6769 63.4086 23.5542 63.4086 23.3891L63.4107 23.3902ZM61.3995 23.4651L61.0769 22.112H60.6947L61.2094 24.0233C61.1812 24.1613 61.1454 24.2568 61.1008 24.31C61.0563 24.3622 60.9998 24.3882 60.9325 24.3882C60.888 24.3882 60.8369 24.3806 60.7815 24.3643L60.812 24.7586C60.8782 24.7792 60.9466 24.789 61.0161 24.789C61.1063 24.789 61.1823 24.7716 61.2442 24.739C61.3061 24.7053 61.3571 24.6576 61.3962 24.5957C61.4364 24.5338 61.4766 24.4349 61.5168 24.3014L61.6091 23.9441L62.0858 22.1109H61.7144L61.3984 23.4641L61.3995 23.4651ZM60.1604 23.2034C60.1604 23.3489 60.1506 23.4489 60.131 23.5042C60.1115 23.5596 60.0778 23.6074 60.0279 23.6476C59.9779 23.6878 59.9279 23.7084 59.8769 23.7084C59.8194 23.7084 59.7727 23.6834 59.7346 23.6346C59.6966 23.5846 59.6782 23.5227 59.6782 23.4499C59.6782 23.3848 59.6955 23.3326 59.7292 23.2914C59.7629 23.2501 59.8356 23.2132 59.9464 23.1795C60.0431 23.1513 60.1137 23.1252 60.1593 23.1035V23.2045L60.1604 23.2034ZM60.5079 23.3913L60.5111 22.8027C60.5111 22.5801 60.4938 22.4269 60.4601 22.3422C60.4253 22.2575 60.3689 22.1913 60.2896 22.1424C60.2092 22.0935 60.0941 22.0685 59.9431 22.0685C59.7737 22.0685 59.6434 22.1109 59.5522 22.1945C59.4621 22.2792 59.3969 22.4172 59.3578 22.6094L59.6825 22.6919C59.7053 22.5996 59.7346 22.5366 59.7716 22.504C59.8085 22.4704 59.8584 22.4541 59.9236 22.4541C59.9888 22.4541 60.0355 22.4649 60.0702 22.4856C60.105 22.5062 60.1289 22.5344 60.1419 22.567C60.1549 22.5996 60.1614 22.6691 60.1614 22.7755C60.0963 22.8135 59.9812 22.8548 59.815 22.8993C59.6782 22.9363 59.5793 22.9797 59.5164 23.0264C59.4545 23.0742 59.4056 23.1383 59.3719 23.2186C59.3372 23.299 59.3209 23.3924 59.3209 23.4999C59.3209 23.6704 59.3632 23.8061 59.4468 23.9093C59.5305 24.0114 59.6391 24.0624 59.7705 24.0624C59.8498 24.0624 59.9236 24.0418 59.9931 23.9984C60.0626 23.956 60.1289 23.893 60.1897 23.8083L60.2364 24.0168H60.5904C60.5589 23.9256 60.5383 23.8398 60.5263 23.7594C60.5155 23.678 60.509 23.5553 60.509 23.3902L60.5079 23.3913ZM58.6736 23.5216C58.6171 23.6172 58.5498 23.665 58.4716 23.665C58.4162 23.665 58.3641 23.6422 58.3152 23.5976C58.2653 23.5531 58.2273 23.4869 58.2001 23.4011C58.173 23.3142 58.1589 23.1893 58.1589 23.0253C58.1589 22.832 58.1882 22.6887 58.2468 22.5953C58.3044 22.5019 58.375 22.4552 58.4575 22.4552C58.5444 22.4552 58.6171 22.5029 58.6736 22.5996C58.7301 22.6963 58.7583 22.8537 58.7583 23.0698C58.7583 23.286 58.7301 23.4271 58.6747 23.5227L58.6736 23.5216ZM58.5552 22.0685C58.4792 22.0685 58.4086 22.0903 58.3435 22.1348C58.2772 22.1793 58.2175 22.2456 58.1632 22.3346V21.3887H57.8048V24.019H58.1371V23.7388C58.1904 23.8442 58.2544 23.9245 58.3294 23.9799C58.4054 24.0353 58.4814 24.0635 58.5585 24.0635C58.7105 24.0635 58.843 23.9756 58.956 23.8018C59.0689 23.628 59.1254 23.3783 59.1254 23.0546C59.1254 22.731 59.07 22.4845 58.9603 22.3183C58.8496 22.1511 58.716 22.0685 58.5563 22.0685H58.5552ZM57.2597 22.1446C57.1923 22.0935 57.113 22.0685 57.0207 22.0685C56.9425 22.0685 56.8698 22.0935 56.8014 22.1435C56.7329 22.1934 56.6678 22.2695 56.6081 22.3715C56.5679 22.2705 56.5158 22.1945 56.4517 22.1435C56.3876 22.0935 56.3127 22.0685 56.2258 22.0685C56.1443 22.0685 56.0683 22.0935 55.9977 22.1446C55.9271 22.1945 55.8631 22.2716 55.8033 22.3726V22.1131H55.4743V24.0179H55.8327V23.0916C55.8327 22.9048 55.8424 22.7723 55.862 22.6941C55.8815 22.6159 55.9141 22.5562 55.9586 22.516C56.0032 22.4747 56.0509 22.4552 56.1042 22.4552C56.1823 22.4552 56.2356 22.4943 56.2616 22.5735C56.2812 22.6333 56.2909 22.7668 56.2909 22.9743V24.019H56.6493V23.1035C56.6493 22.8472 56.6743 22.6756 56.7221 22.5877C56.771 22.4997 56.835 22.4562 56.9143 22.4562C56.9827 22.4562 57.0316 22.4877 57.0609 22.5507C57.0902 22.6137 57.1044 22.7408 57.1044 22.9308V24.0212H57.4627V22.8016C57.4627 22.6061 57.4454 22.4606 57.4106 22.365C57.3759 22.2705 57.3248 22.1978 57.2586 22.1467L57.2597 22.1446ZM54.3199 22.9026C54.3199 22.7614 54.3448 22.6506 54.398 22.5714C54.4502 22.4932 54.5132 22.4541 54.5892 22.4541C54.6609 22.4541 54.7228 22.4921 54.7738 22.5659C54.8259 22.6409 54.8531 22.7527 54.8563 22.9015H54.3199V22.9026ZM54.5675 22.0685C54.3937 22.0685 54.2514 22.15 54.1418 22.3107C54.0125 22.5019 53.9484 22.7571 53.9484 23.0764C53.9484 23.3956 54.0125 23.6519 54.1407 23.8311C54.2493 23.9864 54.4046 24.0635 54.6044 24.0635C54.7488 24.0635 54.8705 24.0168 54.9715 23.9245C55.0725 23.8322 55.1463 23.6899 55.1941 23.4988L54.839 23.4141C54.7999 23.5965 54.7239 23.6867 54.6087 23.6867C54.5295 23.6867 54.461 23.6454 54.4035 23.5629C54.347 23.4803 54.3177 23.3631 54.3155 23.2121H55.2115L55.2136 23.1545C55.2136 22.7853 55.1506 22.5062 55.0236 22.3172C54.9139 22.1522 54.7619 22.0696 54.5686 22.0696L54.5675 22.0685ZM53.3077 22.4237C53.2751 22.4834 53.2339 22.5247 53.1839 22.5475C53.1339 22.5703 53.0384 22.5811 52.8983 22.5811H52.6898V21.8329H52.8733C53.0308 21.8329 53.1339 21.8427 53.1828 21.8633C53.2317 21.8839 53.273 21.9241 53.3055 21.9838C53.3392 22.0436 53.3555 22.1174 53.3555 22.2054C53.3555 22.2933 53.3392 22.3639 53.3066 22.4237H53.3077ZM53.362 21.4256C53.2925 21.4007 53.1448 21.3876 52.92 21.3876H52.314V24.0179H52.6898V23.0264H52.9363C53.1644 23.0264 53.324 23.0003 53.4174 22.9482C53.5108 22.8961 53.589 22.8059 53.6509 22.6767C53.7128 22.5486 53.7443 22.3889 53.7443 22.1989C53.7443 21.9893 53.7084 21.8188 53.6368 21.6863C53.5651 21.5538 53.4728 21.4669 53.362 21.4267V21.4256ZM51.0249 22.1446C50.9587 22.0935 50.8783 22.0685 50.786 22.0685C50.7078 22.0685 50.6351 22.0935 50.5667 22.1435C50.4982 22.1934 50.4331 22.2695 50.3733 22.3715C50.3332 22.2705 50.281 22.1945 50.217 22.1435C50.1529 22.0935 50.078 22.0685 49.9911 22.0685C49.9096 22.0685 49.8336 22.0935 49.763 22.1446C49.6924 22.1945 49.6273 22.2716 49.5686 22.3726V22.1131H49.2396V24.0179H49.5979V23.0916C49.5979 22.9048 49.6077 22.7723 49.6273 22.6941C49.6468 22.6159 49.6794 22.5562 49.7239 22.516C49.7684 22.4747 49.8173 22.4552 49.8705 22.4552C49.9487 22.4552 50.0008 22.4943 50.0269 22.5735C50.0465 22.6333 50.0562 22.7668 50.0562 22.9743V24.019H50.4146V23.1035C50.4146 22.8472 50.4385 22.6756 50.4874 22.5877C50.5362 22.4997 50.6003 22.4562 50.6796 22.4562C50.748 22.4562 50.7969 22.4877 50.8251 22.5507C50.8544 22.6137 50.8686 22.7408 50.8686 22.9308V24.0212H51.2269V22.8016C51.2269 22.6061 51.2096 22.4606 51.1748 22.365C51.1401 22.2705 51.089 22.1978 51.0228 22.1467L51.0249 22.1446ZM48.0851 22.9026C48.0851 22.7614 48.1101 22.6506 48.1623 22.5714C48.2144 22.4932 48.2785 22.4541 48.3534 22.4541C48.4251 22.4541 48.4859 22.4921 48.538 22.5659C48.5891 22.6409 48.6173 22.7527 48.6195 22.9015H48.0841L48.0851 22.9026ZM48.3317 22.0685C48.1579 22.0685 48.0156 22.15 47.906 22.3107C47.7767 22.5019 47.7116 22.7571 47.7116 23.0764C47.7116 23.3956 47.7756 23.6519 47.9049 23.8311C48.0135 23.9864 48.1688 24.0635 48.3686 24.0635C48.5119 24.0635 48.6347 24.0168 48.7357 23.9245C48.8367 23.8322 48.9105 23.6899 48.9583 23.4988L48.6032 23.4141C48.5641 23.5965 48.4881 23.6867 48.3729 23.6867C48.2926 23.6867 48.2242 23.6454 48.1677 23.5629C48.1112 23.4803 48.0819 23.3631 48.0797 23.2121H48.9757L48.9778 23.1545C48.9778 22.7853 48.9148 22.5062 48.7878 22.3172C48.6781 22.1522 48.5261 22.0696 48.3328 22.0696L48.3317 22.0685ZM47.4216 23.6454C47.3771 23.6454 47.3478 23.6215 47.3326 23.5737C47.3249 23.5477 47.3217 23.451 47.3217 23.2849V22.516H47.566V22.1142H47.3217V21.4419L46.9633 21.7362V22.1152H46.7982V22.5171H46.9633V23.3489C46.9633 23.5618 46.9709 23.703 46.985 23.7725C47.0035 23.867 47.0404 23.9386 47.0958 23.9897C47.1501 24.0407 47.224 24.0657 47.3141 24.0657C47.4183 24.0657 47.5117 24.0407 47.5954 23.9897L47.565 23.5987C47.5031 23.6313 47.4553 23.6476 47.4216 23.6476V23.6454ZM46.1227 22.8233C45.9446 22.7647 45.8382 22.7212 45.8046 22.693C45.7698 22.6658 45.7535 22.6311 45.7535 22.5887C45.7535 22.542 45.772 22.504 45.81 22.4747C45.8469 22.4454 45.9099 22.4302 45.9979 22.4302C46.138 22.4302 46.2227 22.5062 46.252 22.6593L46.5897 22.5714C46.5528 22.3943 46.4876 22.2662 46.3953 22.1869C46.303 22.1076 46.1684 22.0675 45.9913 22.0675C45.8143 22.0675 45.6645 22.1207 45.5667 22.2271C45.4701 22.3335 45.4212 22.4758 45.4212 22.6528C45.4212 22.8298 45.4712 22.9699 45.5711 23.072C45.6503 23.1535 45.8371 23.2393 46.1314 23.3294C46.189 23.3479 46.2281 23.3685 46.2476 23.3924C46.2661 23.4163 46.2759 23.4488 46.2759 23.4912C46.2759 23.552 46.2552 23.602 46.2118 23.64C46.1694 23.678 46.1054 23.6975 46.0196 23.6975C45.8578 23.6975 45.7611 23.5976 45.7307 23.3978L45.3723 23.4749C45.4071 23.666 45.4809 23.8116 45.5906 23.9115C45.7014 24.0114 45.8447 24.0614 46.0196 24.0614C46.2118 24.0614 46.3638 24.0016 46.4724 23.8822C46.5821 23.7627 46.6364 23.6107 46.6364 23.426C46.6364 23.2729 46.6017 23.1502 46.53 23.0579C46.4583 22.9656 46.3226 22.8874 46.1227 22.8211V22.8233ZM44.7718 21.8546H45.1301V21.3876H44.7718V21.8546ZM44.7718 24.0179H45.1301V22.1131H44.7718V24.0179ZM44.1962 22.5811C44.1115 22.5105 43.9746 22.4443 43.7857 22.3813C43.6065 22.3227 43.4925 22.2684 43.4425 22.2195C43.3926 22.1706 43.3676 22.1109 43.3676 22.0392C43.3676 21.9676 43.3947 21.9056 43.4501 21.8568C43.5055 21.8079 43.5837 21.7829 43.6847 21.7829C43.7857 21.7829 43.865 21.8112 43.9193 21.8676C43.9746 21.9241 44.0105 22.0229 44.0268 22.1641L44.4047 22.1402C44.3971 21.885 44.3319 21.6874 44.2092 21.5505C44.0865 21.4126 43.9149 21.3442 43.6955 21.3442C43.55 21.3442 43.4273 21.3735 43.3274 21.4322C43.2286 21.4908 43.1504 21.5766 43.0939 21.6917C43.0374 21.8068 43.0092 21.9361 43.0092 22.0794C43.0092 22.2021 43.0309 22.3172 43.0754 22.4237C43.12 22.5312 43.1786 22.617 43.2535 22.6832C43.3274 22.7495 43.4458 22.8092 43.6065 22.8657C43.7857 22.9287 43.8986 22.9743 43.9453 23.0014C43.992 23.0286 44.0268 23.0622 44.0496 23.1046C44.0724 23.1469 44.0832 23.1969 44.0832 23.2566C44.0832 23.3587 44.0507 23.4434 43.9855 23.5129C43.9203 23.5813 43.8302 23.6161 43.7173 23.6161C43.487 23.6161 43.3513 23.4478 43.31 23.1122L42.9419 23.1621C42.994 23.7638 43.2481 24.0646 43.7064 24.0646C43.966 24.0646 44.156 23.9864 44.2776 23.8311C44.3993 23.6758 44.4601 23.4836 44.4601 23.2555C44.4601 23.0981 44.4384 22.9634 44.3938 22.8526C44.3493 22.7419 44.2852 22.6517 44.2005 22.5822L44.1962 22.5811ZM41.5811 21.8557H41.9406V21.3887H41.5811V21.8557ZM41.5811 24.019H41.9406V22.1142H41.5811V24.019ZM40.7557 22.8244C40.5776 22.7658 40.4723 22.7223 40.4376 22.6941C40.4039 22.6669 40.3865 22.6322 40.3865 22.5898C40.3865 22.5431 40.405 22.5051 40.443 22.4758C40.4799 22.4465 40.5429 22.4313 40.6309 22.4313C40.771 22.4313 40.8557 22.5073 40.8861 22.6604L41.2227 22.5725C41.1858 22.3954 41.1206 22.2673 41.0283 22.188C40.936 22.1087 40.8014 22.0685 40.6243 22.0685C40.4473 22.0685 40.2975 22.1218 40.1997 22.2282C40.1031 22.3346 40.0542 22.4769 40.0542 22.6539C40.0542 22.8309 40.1042 22.971 40.203 23.0731C40.2823 23.1545 40.469 23.2403 40.7634 23.3305C40.822 23.3489 40.86 23.3696 40.8806 23.3935C40.8991 23.4174 40.9089 23.4499 40.9089 23.4923C40.9089 23.5531 40.8872 23.6031 40.8448 23.6411C40.8024 23.6791 40.7384 23.6986 40.6526 23.6986C40.4908 23.6986 40.3941 23.5987 40.3626 23.3989L40.0042 23.476C40.039 23.6671 40.1128 23.8127 40.2225 23.9126C40.3333 24.0125 40.4767 24.0624 40.6515 24.0624C40.8437 24.0624 40.9947 24.0027 41.1044 23.8832C41.214 23.7638 41.2683 23.6118 41.2683 23.4271C41.2683 23.274 41.2336 23.1513 41.163 23.059C41.0913 22.9667 40.9556 22.8885 40.7557 22.8222V22.8244ZM39.4254 23.2045C39.4254 23.35 39.4156 23.4499 39.3961 23.5053C39.3765 23.5607 39.3429 23.6085 39.2929 23.6487C39.243 23.6889 39.193 23.7095 39.142 23.7095C39.0855 23.7095 39.0377 23.6845 38.9997 23.6356C38.9617 23.5857 38.9432 23.5238 38.9432 23.451C38.9432 23.3859 38.9606 23.3337 38.9943 23.2925C39.029 23.2512 39.1007 23.2143 39.2115 23.1806C39.3081 23.1524 39.3787 23.1263 39.4243 23.1046V23.2056L39.4254 23.2045ZM39.7729 23.3924L39.7762 22.8038C39.7762 22.5811 39.7588 22.428 39.7251 22.3433C39.6904 22.2586 39.6339 22.1924 39.5546 22.1435C39.4754 22.0946 39.3592 22.0696 39.2082 22.0696C39.0388 22.0696 38.9085 22.112 38.8172 22.1956C38.7271 22.2803 38.6619 22.4182 38.6229 22.6105L38.9476 22.693C38.9704 22.6007 38.9997 22.5377 39.0377 22.5051C39.0746 22.4715 39.1246 22.4552 39.1887 22.4552C39.2527 22.4552 39.3005 22.466 39.3353 22.4867C39.37 22.5073 39.3939 22.5355 39.4069 22.5681C39.42 22.6007 39.4265 22.6702 39.4265 22.7766C39.3613 22.8146 39.2462 22.8559 39.0801 22.9004C38.9432 22.9373 38.8444 22.9808 38.7814 23.0275C38.7195 23.0753 38.6706 23.1393 38.637 23.2197C38.6033 23.3001 38.5859 23.3935 38.5859 23.501C38.5859 23.6715 38.6283 23.8072 38.7119 23.9104C38.7955 24.0125 38.903 24.0635 39.0355 24.0635C39.1148 24.0635 39.1887 24.0429 39.2582 23.9995C39.3288 23.9571 39.3939 23.8941 39.4547 23.8094L39.5014 24.0179H39.8555C39.824 23.9267 39.8033 23.8409 39.7914 23.7605C39.7805 23.6791 39.774 23.5564 39.774 23.3913L39.7729 23.3924ZM37.9539 21.8557H38.3133V21.3887H37.9539V21.8557ZM37.9539 24.019H38.3133V22.1142H37.9539V24.019ZM37.1285 22.8244C36.9504 22.7658 36.844 22.7223 36.8103 22.6941C36.7756 22.6669 36.7593 22.6322 36.7593 22.5898C36.7593 22.5431 36.7777 22.5051 36.8158 22.4758C36.8527 22.4465 36.9157 22.4313 37.0036 22.4313C37.1437 22.4313 37.2284 22.5073 37.2578 22.6604L37.5955 22.5725C37.5586 22.3954 37.4934 22.2673 37.4011 22.188C37.3088 22.1087 37.1741 22.0685 36.9982 22.0685C36.8125 22.0685 36.6713 22.1218 36.5736 22.2282C36.4758 22.3346 36.427 22.4769 36.427 22.6539C36.427 22.8309 36.4769 22.971 36.5768 23.0731C36.6561 23.1545 36.8429 23.2403 37.1372 23.3305C37.1959 23.3489 37.2339 23.3696 37.2545 23.3935C37.273 23.4174 37.2816 23.4499 37.2816 23.4923C37.2816 23.5531 37.261 23.6031 37.2176 23.6411C37.1752 23.6791 37.1111 23.6986 37.0253 23.6986C36.8646 23.6986 36.768 23.5987 36.7365 23.3989L36.377 23.476C36.4128 23.6671 36.4856 23.8127 36.5964 23.9126C36.7072 24.0125 36.8505 24.0624 37.0253 24.0624C37.2176 24.0624 37.3685 24.0027 37.4782 23.8832C37.5868 23.7638 37.6422 23.6118 37.6422 23.4271C37.6422 23.274 37.6074 23.1513 37.5369 23.059C37.4652 22.9667 37.3294 22.8885 37.1296 22.8222L37.1285 22.8244ZM35.758 23.5042C35.6939 23.6031 35.6157 23.653 35.5267 23.653C35.4376 23.653 35.3551 23.6041 35.2899 23.5053C35.2237 23.4065 35.1911 23.2599 35.1911 23.0666C35.1911 22.8744 35.2237 22.7288 35.2888 22.6289C35.354 22.5301 35.4311 22.4791 35.5212 22.4791C35.6114 22.4791 35.6907 22.529 35.7558 22.6289C35.821 22.7288 35.8536 22.8733 35.8536 23.0622C35.8536 23.2512 35.821 23.4043 35.7569 23.5032L35.758 23.5042ZM35.5223 22.0696C35.3931 22.0696 35.2769 22.1076 35.1726 22.1847C35.0695 22.2619 34.9858 22.377 34.9207 22.5301C34.8566 22.6832 34.824 22.8537 34.824 23.0405C34.824 23.3685 34.8903 23.6215 35.0228 23.7985C35.1553 23.9756 35.3225 24.0646 35.5234 24.0646C35.6494 24.0646 35.7645 24.0244 35.8688 23.9452C35.973 23.8659 36.0588 23.7464 36.1229 23.5879C36.188 23.4293 36.2206 23.2523 36.2206 23.0557C36.2206 22.7918 36.1587 22.5616 36.0349 22.365C35.9111 22.1674 35.7395 22.0696 35.5223 22.0696ZM34.0834 22.8244C33.9053 22.7658 33.7989 22.7223 33.7652 22.6941C33.7304 22.6669 33.7141 22.6322 33.7141 22.5898C33.7141 22.5431 33.7326 22.5051 33.7695 22.4758C33.8065 22.4465 33.8694 22.4313 33.9574 22.4313C34.0975 22.4313 34.1822 22.5073 34.2126 22.6604L34.5493 22.5725C34.5124 22.3954 34.4472 22.2673 34.3549 22.188C34.2626 22.1087 34.1279 22.0685 33.9509 22.0685C33.7739 22.0685 33.624 22.1218 33.5274 22.2282C33.4296 22.3346 33.3807 22.4769 33.3807 22.6539C33.3807 22.8309 33.4307 22.971 33.5306 23.0731C33.611 23.1545 33.7967 23.2403 34.091 23.3305C34.1496 23.3489 34.1876 23.3696 34.2083 23.3935C34.2267 23.4174 34.2354 23.4499 34.2354 23.4923C34.2354 23.5531 34.2137 23.6031 34.1713 23.6411C34.129 23.6791 34.0649 23.6986 33.9791 23.6986C33.8173 23.6986 33.7207 23.5987 33.6903 23.3989L33.3319 23.476C33.3666 23.6671 33.4405 23.8127 33.5512 23.9126C33.662 24.0125 33.8054 24.0624 33.9802 24.0624C34.1724 24.0624 34.3234 24.0027 34.4331 23.8832C34.5417 23.7638 34.5971 23.6118 34.5971 23.4271C34.5971 23.274 34.5623 23.1513 34.4906 23.059C34.419 22.9667 34.2832 22.8885 34.0834 22.8222V22.8244ZM32.0569 22.9786L32.3099 22.0023L32.5673 22.9786H32.0569ZM32.1134 21.3887L31.3858 24.019H31.7865L31.9407 23.4239H32.689L32.8519 24.019H33.2613L32.513 21.3887H32.1134Z" fill="#234497"/>
<path fill-rule="evenodd" clip-rule="evenodd" d="M9.20101 8.32525C14.0065 8.32525 17.902 12.2218 17.902 17.0263C17.902 21.8307 14.0065 25.7273 9.20101 25.7273C4.39547 25.7273 0.5 21.8318 0.5 17.0263C0.5 12.2207 4.39547 8.32525 9.20101 8.32525Z" fill="#204195"/>
<path fill-rule="evenodd" clip-rule="evenodd" d="M17.1223 0C21.1416 0 24.3995 3.25799 24.3995 7.27727C24.3995 11.2965 21.1416 14.5545 17.1223 14.5545C13.103 14.5545 9.84501 11.2965 9.84501 7.27727C9.84501 3.25799 13.103 0 17.1223 0Z" fill="#0673BA"/>
<path fill-rule="evenodd" clip-rule="evenodd" d="M25.2379 7.72796C28.5948 7.72796 31.3152 10.4484 31.3152 13.8052C31.3152 17.162 28.5948 19.8824 25.2379 19.8824C21.8811 19.8824 19.1607 17.1609 19.1607 13.8052C19.1607 10.4495 21.8822 7.72796 25.2379 7.72796Z" fill="#21ADE3"/>
</g>
<defs>
<clipPath id="clip0_801_8869">
<rect width="79.9576" height="25.7273" fill="white" transform="translate(0.5)"/>
</clipPath>
</defs>
</svg>
