<svg width="81" height="80" viewBox="0 0 81 80" fill="none" xmlns="http://www.w3.org/2000/svg">
<g clip-path="url(#clip0_801_8929)">
<path fill-rule="evenodd" clip-rule="evenodd" d="M80.5 39.9976C80.5 17.9066 62.5887 0 40.5024 0C18.4085 0 0.5 17.9066 0.5 39.9976C0.5 62.0858 18.4085 79.9981 40.5024 79.9981C62.5887 79.9981 80.5 62.0858 80.5 39.9976ZM30.5259 72.6821C33.6991 72.6821 36.0667 72.3712 36.2373 68.056H44.0471C44.2177 72.3712 46.6156 72.5115 49.7092 72.5115V74.7H30.5259V72.6821ZM50.7878 36.5107C54.9694 37.8348 64.7838 42.3102 64.7838 51.5692C64.7838 60.7011 56.176 66.1405 45.9588 66.1405H16.2162L16.2466 63.771C21.6423 63.771 23.2403 63.0602 23.2403 57.5507V22.7024C23.2403 16.5692 20.8196 16.1854 16.2361 16.1854V13.9808C17.0948 13.9609 27.8996 13.9751 36.2373 13.9808C36.0667 9.6608 33.6992 9.34708 30.526 9.34708V7.33303H49.7092V9.52053C46.6156 9.52053 44.2177 9.6608 44.0471 13.9808H45.9588C50.2731 13.9808 60.8675 15.466 60.8874 24.1885C60.9026 30.3093 56.7683 34.2028 50.7878 36.5107ZM56.5569 53.0345C56.5569 45.7905 51.583 40.9682 45.5323 38.0461C41.5857 38.9039 36.9529 39.4062 32.6196 39.4432L33.7086 36.741C34.6924 36.7088 35.4374 36.6481 36.2373 36.6007V18.4809H44.0471V35.4293C50.5916 33.4977 53.3316 29.6137 53.3316 25.1041C53.3316 19.3245 48.9491 16.5645 44.0272 16.5645L31.0652 16.5692V57.7108C31.0652 62.0659 33.684 62.9787 36.2373 63.0242V41.625C39.165 41.5226 42.3107 41.1065 44.0471 40.7028V63.0242C50.2883 63.0185 56.5569 59.2159 56.5569 53.0345Z" fill="#004F91"/>
</g>
<defs>
<clipPath id="clip0_801_8929">
<rect width="80" height="79.9981" fill="white" transform="translate(0.5)"/>
</clipPath>
</defs>
</svg>
