<svg width="73" height="72" viewBox="0 0 73 72" fill="none" xmlns="http://www.w3.org/2000/svg">
<g clip-path="url(#clip0_801_8885)">
<path d="M66.7009 31.1863C69.7075 27.6739 71.7118 23.4154 72.5027 18.8592C72.5027 18.7888 72.397 18.6735 72.3137 18.6095C72.2305 18.5455 72.1857 18.5519 72.1601 18.6095C68.0745 29.7295 61.3731 35.259 51.9501 39.1012C51.5627 37.5547 51.2265 35.9922 50.9672 34.4169C54.5852 33.4244 58.1072 31.9803 60.9633 29.8959C64.0658 27.6194 66.6497 24.7058 68.542 21.3535C70.3062 18.2669 71.5933 14.9338 72.3618 11.463C72.5379 10.6402 72.4546 10.3456 72.1761 10.1311L72.048 10.035C71.9327 9.94856 71.8463 10.035 71.8143 10.1919C71.6093 11.0372 71.35 11.8665 71.0362 12.6765C67.2997 22.711 61.3443 28.7465 50.5445 31.2471C50.378 29.4797 50.3364 27.7027 50.4165 25.9289C58.0016 24.328 64.418 19.0546 67.9112 12.1834C69.4961 8.97521 70.6872 5.58447 71.4557 2.08808C71.5517 1.75189 71.4236 1.39328 71.1355 1.19797C71.0618 1.14354 70.9786 1.11152 70.8889 1.09872C70.7096 1.00906 70.5047 0.986651 70.3126 1.03788C66.8162 1.80632 63.4223 2.9974 60.2141 4.5855C53.3717 8.05949 48.1304 14.4343 46.491 21.9714C44.7172 22.0483 42.9434 22.0034 41.176 21.8337C43.6798 11.1172 49.7089 5.18425 59.705 1.47013C60.515 1.15635 61.3475 0.893798 62.1928 0.688881C62.3337 0.656863 62.4329 0.573615 62.3465 0.455148L62.2504 0.330277C62.0359 0.0517177 61.7413 -0.0347316 60.9184 0.144571C57.4477 0.909807 54.1146 2.19694 51.0312 3.96435C47.6757 5.85343 44.762 8.4373 42.4855 11.5431C40.4236 14.3639 38.9892 17.8411 38.003 21.4143C36.4309 21.155 34.878 20.8188 33.3347 20.4281C37.1769 11.0724 42.7161 4.41901 53.7848 0.343084C53.8584 0.317469 53.8456 0.253433 53.7848 0.189396C53.7239 0.12536 53.6055 -0.00911695 53.535 0.000488531C48.9724 0.788138 44.7108 2.79568 41.1952 5.8054C36.8663 9.44908 33.3315 14.0565 30.5556 19.6661C29.1788 19.2595 27.8084 18.8176 26.4508 18.3502C22.3461 16.9382 11.7833 12.0906 7.70413 8.59099C6.4234 7.48956 5.80545 7.34228 5.12346 7.82255C4.75846 8.12993 4.42867 8.47572 4.1405 8.85674C2.52678 11.146 1.30049 13.6819 0.506433 16.3682C0.445598 16.5988 0.826615 16.8197 1.21083 16.65C3.11592 15.8015 11.335 19.3811 13.7172 20.3193C15.2572 20.9244 16.8229 21.4783 18.3918 22.0002C21.6673 23.0953 24.9684 24.091 28.3175 24.8819C28.119 25.4102 27.9269 25.9417 27.7411 26.4828C27.1776 28.1349 26.7038 29.8127 26.3099 31.4905C18.411 30.3218 11.6968 28.2886 7.33592 26.4604C4.26537 25.2021 2.34428 24.8915 1.01872 25.5831C0.797799 25.7016 0.567267 26.0858 0.67613 26.6877C1.02193 28.6152 1.63668 30.4819 2.50757 32.2333C3.24079 33.7157 3.65062 33.2355 4.35182 33.0722C5.33799 32.848 6.51306 33.1522 7.4704 33.3411C9.33066 33.7029 11.1717 34.1704 13.0256 34.5738C17.0951 35.4351 21.2254 35.989 25.3782 36.2324C25.0292 38.4736 24.7987 40.6541 24.6578 42.7417C24.1263 42.7193 23.6012 42.6936 23.0889 42.6616C17.0343 42.3158 10.1984 40.6317 7.96668 40.0489C7.74576 39.9913 7.75856 40.6253 7.91225 40.795C8.89841 41.9092 10.8227 43.9103 11.2582 44.3938C12.3244 45.6265 13.714 46.5422 15.2668 47.0353C17.2392 47.6757 19.33 47.7942 21.3823 47.8678C22.3429 47.903 23.3931 47.919 24.4817 47.9158C24.4817 49.0461 24.4817 50.1251 24.5297 51.1177C24.6034 53.1732 24.725 55.28 25.3622 57.2331C25.8521 58.786 26.7614 60.1724 27.9909 61.2418C28.4744 61.6773 30.4755 63.6016 31.5897 64.5877C31.7594 64.7414 32.3966 64.7574 32.3358 64.5333C31.753 62.292 30.0689 55.4657 29.7231 49.4143C29.6911 48.8668 29.6622 48.3064 29.6398 47.7397C31.7242 47.6053 33.9143 47.3779 36.1459 47.0321C36.3861 51.2169 36.9464 55.3761 37.8141 59.4744C38.2143 61.3283 38.6818 63.1693 39.0436 65.0328C39.2325 65.9933 39.5399 67.162 39.3125 68.1514C39.1493 68.8526 38.6722 69.2592 40.1514 69.9956C41.9028 70.8633 43.7727 71.4813 45.697 71.8271C46.2989 71.9327 46.6831 71.7054 46.8016 71.4813C47.5028 70.1461 47.1922 68.2314 45.9275 65.1737C44.0993 60.7968 42.0533 54.0537 40.8846 46.1196C42.6168 45.7194 44.3266 45.2327 46.0076 44.6596C46.507 44.4867 47.0001 44.3106 47.49 44.1281C48.2808 47.49 49.283 50.8135 50.3716 54.1082C50.8935 55.6803 51.4475 57.2427 52.0558 58.7828C52.9907 61.165 56.5704 69.3873 55.7251 71.2892C55.5522 71.6734 55.7731 72.0544 56.0069 71.9936C58.6932 71.2027 61.229 69.9732 63.5151 68.3595C63.8961 68.0713 64.2419 67.7447 64.5493 67.3797C65.0296 66.6945 64.8695 66.083 63.7809 64.7991C60.2813 60.7167 55.4305 50.1539 54.0217 46.0492C53.5479 44.6756 53.106 43.286 52.693 41.8868C58.3922 39.1172 63.0285 35.56 66.7009 31.1863ZM59.0742 7.53759C61.9558 5.29631 65.3049 3.6954 68.7597 2.56195L70.4471 2.03045C70.2806 2.56515 70.1109 3.09666 69.9412 3.63136C68.7981 7.08613 67.2164 10.4384 64.9656 13.3169C61.3475 17.9467 56.3591 20.4602 50.948 21.4623C51.9726 16.0897 54.4764 11.1364 59.0742 7.53759ZM45.8571 26.5436C45.7418 28.1445 45.7194 29.7455 45.7578 31.3688C45.7578 31.5865 45.7578 31.801 45.7834 32.0092C43.8847 32.2141 41.9412 32.3293 39.9945 32.3902C40.0458 30.4339 40.1738 28.4935 40.3852 26.5949L41.1344 26.6237C42.7065 26.6749 44.2882 26.6557 45.8571 26.5436ZM31.5705 25.5831C33.3315 25.9033 35.0925 26.1882 36.892 26.3707C36.527 28.4743 36.29 30.5331 36.1491 32.3966C34.449 32.3485 32.752 32.2493 31.0839 32.0764C30.8053 32.0508 30.5331 32.0188 30.261 31.9899C30.5652 29.8287 31.0006 27.6899 31.5705 25.5831ZM29.5342 42.8729C29.5342 40.7886 29.6142 38.6273 29.7807 36.4437C31.8459 36.4949 33.9079 36.4885 35.9634 36.4437C35.9186 38.5025 35.9122 40.5676 35.9634 42.6328C33.7766 42.7865 31.6186 42.8729 29.5342 42.8729ZM40.3884 42.1653C40.3627 41.922 40.3371 41.6819 40.3115 41.4353C40.1482 39.732 40.049 38.003 39.9913 36.2676C41.8644 36.1299 43.9072 35.8962 46.0108 35.5376C46.1933 37.3274 46.4622 39.1044 46.7952 40.8686C44.6884 41.4289 42.5496 41.858 40.3884 42.1525V42.1653Z" fill="url(#paint0_linear_801_8885)"/>
</g>
<defs>
<linearGradient id="paint0_linear_801_8885" x1="19.5765" y1="52.8595" x2="71.1964" y2="1.23964" gradientUnits="userSpaceOnUse">
<stop stop-color="#1751A4"/>
<stop offset="0.52" stop-color="#307F75"/>
<stop offset="1" stop-color="#49AB48"/>
</linearGradient>
<clipPath id="clip0_801_8885">
<rect width="72.0027" height="72" fill="white" transform="translate(0.5)"/>
</clipPath>
</defs>
</svg>
