<svg width="81" height="58" viewBox="0 0 81 58" fill="none" xmlns="http://www.w3.org/2000/svg">
<g clip-path="url(#clip0_801_8882)">
<path d="M26.7363 11.148C23.9661 11.148 21.4111 12.0221 19.2998 13.5014V2.70296C19.2998 1.23718 18.1164 0.0537915 16.6506 0.0537915H16.5161C15.0503 0.0537915 13.8535 1.25063 13.8535 2.71641V23.6005C13.8535 23.7484 13.8535 23.8963 13.8535 24.0443C13.8535 24.1922 13.8535 24.3401 13.8535 24.488V24.636C13.8535 24.757 13.8535 24.8915 13.8804 25.0125C14.378 31.6825 19.9318 36.927 26.7229 36.927C33.514 36.927 39.6057 31.158 39.6057 24.0443C39.6057 16.9305 33.8367 11.1615 26.7229 11.1615M26.7229 31.9245C22.4331 31.9245 18.9502 28.4416 18.9502 24.1653C18.9502 19.889 22.4331 16.3926 26.7229 16.3926C31.0127 16.3926 34.4822 19.8755 34.4822 24.1653C34.4822 28.4551 31.0127 31.9245 26.7229 31.9245Z" fill="#27C4EE"/>
<path d="M54.6133 24.2056C54.6133 17.1322 48.8846 11.4035 41.8111 11.4035C34.7377 11.4035 29.5469 16.6212 29.0493 23.2374C29.0359 23.3584 29.0224 23.4795 29.0224 23.6005V23.7484C29.0224 23.8963 29.0224 24.0443 29.0224 24.1922C29.0224 24.3401 29.0224 24.488 29.0224 24.636V45.3721C29.0224 46.8245 30.2058 48.0078 31.6582 48.0078H31.7927C33.245 48.0078 34.4284 46.8245 34.4284 45.3721V34.641C36.5128 36.1202 39.0544 36.9808 41.8111 36.9808C48.8846 36.9808 54.6133 31.2522 54.6133 24.1787M49.5301 24.0577C49.5301 28.3206 46.074 31.7766 41.8111 31.7766C37.5482 31.7766 34.0922 28.3206 34.0922 24.0577C34.0922 19.7948 37.5482 16.3388 41.8111 16.3388C46.074 16.3388 49.5301 19.7948 49.5301 24.0577Z" fill="#1079BF"/>
<path d="M34.2939 22.3633C37.9517 22.2692 36.069 18.5442 37.8306 17.4818C36.97 16.0161 35.8135 14.7385 34.4553 13.73C31.6313 12.8693 29.9369 14.8999 30.8513 17.576C32.5592 18.6518 33.8098 20.3462 34.2805 22.3633" fill="#27C4EE"/>
<path d="M44.1779 23.9905C44.1779 31.1042 49.947 36.8733 57.0608 36.8733C64.1746 36.8733 69.4057 31.6152 69.9033 24.9587C69.9167 24.8377 69.9302 24.7166 69.9302 24.5822V24.4342C69.9302 24.2863 69.9302 24.1384 69.9302 23.977C69.9302 23.8157 69.9302 23.6812 69.9302 23.5333V2.66262C69.9302 1.19683 68.7333 0 67.2675 0H67.133C65.6673 0 64.4704 1.19683 64.4704 2.66262V13.461C62.3726 11.9818 59.8041 11.0942 57.0339 11.0942C49.9201 11.0942 44.151 16.8633 44.151 23.977M49.2746 24.0981C49.2746 19.8083 52.7575 16.3388 57.0473 16.3388C61.3371 16.3388 64.8201 19.8083 64.8201 24.0981C64.8201 28.3878 61.3371 31.8708 57.0473 31.8708C52.7575 31.8708 49.2746 28.3878 49.2746 24.0981Z" fill="#21376C"/>
<path d="M49.4091 25.4428C49.0325 27.6079 47.755 29.4367 45.9799 30.5798C46.2489 33.35 47.1768 34.7082 49.5032 34.4392C50.8614 33.4172 52.0045 32.1263 52.8651 30.647C52.7172 26.9489 51.6145 25.9538 49.3956 25.4428" fill="#1079BF"/>
<path d="M0.795848 56.426H0.5V52.58H1.14549V53.9651C1.26652 53.75 1.38754 53.6155 1.50857 53.5482C1.6296 53.481 1.77753 53.4407 1.9389 53.4407C2.24819 53.4407 2.5037 53.5751 2.71886 53.8441C2.92057 54.113 3.02816 54.4761 3.02816 54.9468C3.02816 55.3771 2.92057 55.7402 2.73231 56.036C2.53059 56.3319 2.23475 56.4933 1.85821 56.4933C1.48168 56.4933 1.18583 56.3184 0.970667 55.9688L0.795848 56.4395V56.426ZM1.14549 55.2157C1.14549 55.4713 1.19928 55.6595 1.30686 55.7805C1.41444 55.9016 1.56236 55.9688 1.73718 55.9688C1.912 55.9688 2.04648 55.9016 2.16751 55.7536C2.28854 55.6192 2.34233 55.3368 2.35577 54.9333C2.35577 54.6375 2.30198 54.4089 2.1944 54.2475C2.08682 54.0862 1.95234 54.0055 1.76408 54.0055C1.58926 54.0055 1.44133 54.0727 1.32031 54.2072C1.21272 54.3417 1.14549 54.5434 1.14549 54.7854V55.2157Z" fill="#ED1C24"/>
<path d="M5.42184 55.525L6.00008 55.6057C5.9194 55.8612 5.77147 56.0764 5.55631 56.2378C5.34115 56.3991 5.0722 56.4933 4.73601 56.4933C4.34602 56.4933 4.02328 56.3588 3.78122 56.0898C3.53917 55.8209 3.41814 55.4712 3.41814 55.014C3.41814 54.5568 3.53917 54.2341 3.78122 53.9517C4.02328 53.6693 4.34602 53.5214 4.7629 53.5214C5.17978 53.5214 5.48907 53.6558 5.70424 53.9382C5.93285 54.2206 6.04043 54.5703 6.04043 55.014V55.0813H4.07707C4.07707 55.2695 4.09052 55.4309 4.13086 55.5519C4.17121 55.673 4.23844 55.7671 4.34602 55.8612C4.45361 55.9554 4.58808 55.9957 4.74945 55.9957C5.0722 55.9957 5.28736 55.8478 5.39494 55.5385M5.3546 54.6913C5.3546 54.4896 5.28736 54.3148 5.16633 54.1937C5.0453 54.0593 4.89738 53.992 4.70911 53.992C4.52084 53.992 4.38637 54.0593 4.26534 54.1803C4.14431 54.3013 4.07707 54.4761 4.05018 54.6913H5.3546Z" fill="#ED1C24"/>
<path d="M7.29106 56.426H6.64557V53.5751H7.22382V54.261C7.3045 53.992 7.42553 53.8037 7.56001 53.6827C7.70793 53.5617 7.85586 53.4945 8.00378 53.4945C8.03068 53.4945 8.05757 53.4945 8.08447 53.4945V54.1803C7.76172 54.1803 7.54656 54.2879 7.43898 54.4896C7.3314 54.7047 7.27761 54.9065 7.27761 55.0947V56.4126L7.29106 56.426Z" fill="#ED1C24"/>
<path d="M8.2055 55.7805L8.81064 55.6595C8.90477 55.8881 9.10649 56.0092 9.41578 56.0092C9.81921 56.0092 10.0075 55.8881 10.0075 55.6595C10.0075 55.5788 9.98058 55.525 9.91335 55.4712C9.84611 55.4175 9.77887 55.3906 9.69818 55.3771L9.17373 55.283C8.59548 55.1754 8.31308 54.893 8.31308 54.4358C8.31308 54.1803 8.40721 53.9651 8.58203 53.7903C8.7703 53.6155 9.03925 53.5214 9.40234 53.5214C10.0075 53.5214 10.3706 53.7365 10.505 54.1803L9.92679 54.3013C9.873 54.0862 9.69818 53.9786 9.41578 53.9786C9.07959 53.9786 8.90477 54.0862 8.90477 54.3013C8.90477 54.4492 9.03925 54.5568 9.32165 54.6106L9.92679 54.7316C10.3975 54.8258 10.6395 55.1082 10.6395 55.5519C10.6395 55.8612 10.5185 56.1033 10.2764 56.2512C10.0344 56.3991 9.73853 56.4798 9.40234 56.4798C9.10649 56.4798 8.85098 56.426 8.63582 56.305C8.40721 56.184 8.25929 56.0092 8.2055 55.7671" fill="#ED1C24"/>
<path d="M13.6249 56.426H13.0063C12.9525 56.2512 12.9256 56.0629 12.9122 55.8478C12.7373 56.2781 12.4146 56.4798 11.9439 56.4798C11.6615 56.4798 11.4329 56.3991 11.2581 56.2378C11.0833 56.0764 11.0026 55.8612 11.0026 55.6057C11.0026 54.9468 11.5809 54.6241 12.7239 54.6241C12.7642 54.6241 12.8315 54.6241 12.9122 54.6241V54.4089C12.9122 54.113 12.7105 53.9651 12.307 53.9651C11.9036 53.9651 11.6884 54.113 11.6481 54.4089L11.0967 54.3282C11.1236 54.0861 11.2447 53.8979 11.4598 53.7365C11.675 53.5886 11.9843 53.5079 12.3877 53.5079C12.6029 53.5079 12.7911 53.5214 12.9256 53.5617C13.0601 53.602 13.1811 53.6558 13.2753 53.75C13.3694 53.8441 13.4366 53.9382 13.477 54.0324C13.5173 54.1399 13.5308 54.3148 13.5308 54.5568V55.8478C13.5308 56.036 13.5577 56.2243 13.6114 56.426M12.8987 54.9737C12.065 54.9737 11.6481 55.1754 11.6481 55.5654C11.6481 55.6864 11.6884 55.7805 11.7691 55.8612C11.8498 55.9419 11.9843 55.9823 12.1457 55.9823C12.3877 55.9823 12.576 55.9016 12.697 55.7536C12.818 55.6057 12.8853 55.4175 12.8853 55.2292V54.9737H12.8987Z" fill="#ED1C24"/>
<path d="M18.5602 56.426H17.8878V54.6509C17.8878 54.2879 17.7264 54.0996 17.4037 54.0996C17.2154 54.0996 17.054 54.1668 16.9465 54.3013C16.8254 54.4358 16.7716 54.6509 16.7716 54.9199V56.4126H16.0858V54.6375C16.0858 54.261 15.9379 54.0727 15.6286 54.0727C15.4403 54.0727 15.279 54.1534 15.1579 54.3013C15.0369 54.4492 14.9697 54.6509 14.9697 54.9199V56.4126H14.3107V53.5617H14.9293V54.1668C15.131 53.7231 15.4538 53.5079 15.8841 53.5079C16.3144 53.5079 16.5834 53.7231 16.7044 54.1668C16.933 53.7231 17.2558 53.5079 17.6592 53.5079C17.9416 53.5079 18.1567 53.5886 18.3181 53.7634C18.4795 53.9382 18.5736 54.1534 18.5736 54.3954V56.4126L18.5602 56.426Z" fill="#ED1C24"/>
<path d="M21.7607 56.426H21.1421C21.0883 56.2512 21.048 56.0629 21.048 55.8478C20.8732 56.2781 20.5504 56.4798 20.0798 56.4798C19.7974 56.4798 19.5688 56.3991 19.3939 56.2378C19.2191 56.0764 19.1384 55.8612 19.1384 55.6057C19.1384 54.9468 19.7167 54.6241 20.8597 54.6241C20.9001 54.6241 20.9673 54.6241 21.048 54.6241V54.4089C21.048 54.113 20.8463 53.9651 20.4428 53.9651C20.0394 53.9651 19.8243 54.113 19.7839 54.4089L19.2326 54.3282C19.2595 54.0861 19.3805 53.8979 19.5956 53.7365C19.8108 53.5886 20.1201 53.5079 20.5235 53.5079C20.7387 53.5079 20.927 53.5214 21.0614 53.5617C21.1959 53.602 21.3169 53.6558 21.4111 53.75C21.5052 53.8441 21.5724 53.9382 21.6128 54.0324C21.6531 54.1399 21.6666 54.3148 21.6666 54.5568V55.8478C21.6666 56.036 21.6935 56.2243 21.7473 56.426M21.0345 54.9737C20.2008 54.9737 19.7839 55.1754 19.7839 55.5654C19.7839 55.6864 19.8243 55.7805 19.9049 55.8612C19.9856 55.9419 20.1201 55.9823 20.2815 55.9823C20.5235 55.9823 20.7118 55.9016 20.8328 55.7536C20.9539 55.6057 21.0211 55.4175 21.0211 55.2292V54.9737H21.0345Z" fill="#ED1C24"/>
<path d="M28.1483 56.426H27.476V54.6509C27.476 54.2879 27.3146 54.0996 26.9918 54.0996C26.8036 54.0996 26.6422 54.1668 26.5346 54.3013C26.4136 54.4358 26.3598 54.6509 26.3598 54.9199V56.4126H25.674V54.6375C25.674 54.261 25.5261 54.0727 25.2168 54.0727C25.0285 54.0727 24.8671 54.1534 24.7461 54.3013C24.6251 54.4492 24.5578 54.6509 24.5578 54.9199V56.4126H23.8989V53.5617H24.5175V54.1668C24.7192 53.7231 25.0419 53.5079 25.4723 53.5079C25.9026 53.5079 26.1715 53.7231 26.2926 54.1668C26.5212 53.7231 26.8439 53.5079 27.2474 53.5079C27.5298 53.5079 27.7449 53.5886 27.9063 53.7634C28.0677 53.9382 28.1618 54.1534 28.1618 54.3954V56.4126L28.1483 56.426Z" fill="#ED1C24"/>
<path d="M30.7303 55.525L31.3085 55.6057C31.2279 55.8612 31.0799 56.0764 30.8648 56.2378C30.6496 56.3991 30.3672 56.4933 30.0445 56.4933C29.6545 56.4933 29.3317 56.3588 29.0897 56.0898C28.8476 55.8209 28.7266 55.4712 28.7266 55.014C28.7266 54.5568 28.8476 54.2341 29.0897 53.9517C29.3317 53.6693 29.6679 53.5214 30.0714 53.5214C30.4748 53.5214 30.7975 53.6558 31.0127 53.9382C31.2279 54.2206 31.3489 54.5703 31.3489 55.014V55.0813H29.3855C29.3855 55.2695 29.399 55.4309 29.4393 55.5519C29.4797 55.673 29.5469 55.7671 29.6545 55.8612C29.7621 55.9554 29.8965 55.9957 30.0579 55.9957C30.3806 55.9957 30.5958 55.8478 30.7034 55.5385M30.6631 54.6913C30.6631 54.4896 30.5958 54.3148 30.4748 54.1937C30.3538 54.0593 30.2058 53.992 30.031 53.992C29.8562 53.992 29.7083 54.0593 29.5872 54.1803C29.4662 54.3013 29.399 54.4761 29.3721 54.6913H30.6631Z" fill="#ED1C24"/>
<path d="M36.2035 56.426H35.5311V54.6509C35.5311 54.2879 35.3697 54.0996 35.0335 54.0996C34.8453 54.0996 34.6973 54.1668 34.5763 54.3013C34.4687 54.4358 34.4015 54.6509 34.4015 54.9199V56.4126H33.7157V54.6375C33.7157 54.261 33.5677 54.0727 33.2584 54.0727C33.0702 54.0727 32.9088 54.1534 32.7878 54.3013C32.6668 54.4492 32.5995 54.6509 32.5995 54.9199V56.4126H31.9406V53.5617H32.5592V54.1668C32.7609 53.7231 33.0836 53.5079 33.514 53.5079C33.9443 53.5079 34.2132 53.7231 34.3343 54.1668C34.5629 53.7231 34.8856 53.5079 35.289 53.5079C35.558 53.5079 35.7866 53.5886 35.948 53.7634C36.1093 53.9382 36.2035 54.1534 36.2035 54.3954V56.426Z" fill="#ED1C24"/>
<path d="M37.2658 56.426H36.97V52.58H37.6155V53.9651C37.7365 53.75 37.8575 53.6155 37.9786 53.5482C38.0996 53.481 38.2475 53.4407 38.4089 53.4407C38.7182 53.4407 38.9737 53.5751 39.1889 53.8441C39.3906 54.113 39.4981 54.4761 39.4981 54.9468C39.4981 55.3771 39.3906 55.7402 39.1889 56.036C38.9871 56.3319 38.6913 56.4933 38.3148 56.4933C37.9382 56.4933 37.6424 56.3184 37.4272 55.9688L37.2524 56.4395L37.2658 56.426ZM37.6155 55.2157C37.6155 55.4713 37.6693 55.6595 37.7769 55.7805C37.8844 55.9016 38.0324 55.9688 38.2072 55.9688C38.382 55.9688 38.5165 55.9016 38.6375 55.7536C38.7585 55.6192 38.8123 55.3368 38.8258 54.9333C38.8258 54.6375 38.772 54.4089 38.6644 54.2475C38.5568 54.0862 38.4089 54.0055 38.2206 54.0055C38.0458 54.0055 37.8979 54.0727 37.7903 54.2072C37.6827 54.3417 37.6155 54.5434 37.6155 54.7854V55.2157Z" fill="#ED1C24"/>
<path d="M42.5373 56.426H41.9187C41.8649 56.2512 41.838 56.0629 41.8246 55.8478C41.6498 56.2781 41.327 56.4798 40.8564 56.4798C40.574 56.4798 40.3454 56.3991 40.1705 56.2378C39.9957 56.0764 39.915 55.8612 39.915 55.6057C39.915 54.9468 40.4933 54.6241 41.6363 54.6241C41.6767 54.6241 41.7439 54.6241 41.8246 54.6241V54.4089C41.8246 54.113 41.6229 53.9651 41.2195 53.9651C40.816 53.9651 40.6009 54.113 40.5605 54.4089L40.0092 54.3282C40.0361 54.0861 40.1571 53.8979 40.3722 53.7365C40.5874 53.5886 40.8967 53.5079 41.3001 53.5079C41.5153 53.5079 41.7036 53.5214 41.838 53.5617C41.9725 53.602 42.0935 53.6558 42.1877 53.75C42.2818 53.8441 42.349 53.9382 42.3894 54.0324C42.4297 54.1399 42.4432 54.3148 42.4432 54.5568V55.8478C42.4432 56.036 42.4701 56.2243 42.5239 56.426M41.8111 54.9737C40.9774 54.9737 40.5605 55.1754 40.5605 55.5654C40.5605 55.6864 40.6009 55.7805 40.6815 55.8612C40.7622 55.9419 40.8967 55.9823 41.0581 55.9823C41.3001 55.9823 41.4884 55.9016 41.6094 55.7536C41.7305 55.6057 41.7977 55.4175 41.7977 55.2292V54.9737H41.8111Z" fill="#ED1C24"/>
<path d="M45.5765 56.426H44.931V54.6509C44.931 54.4627 44.8907 54.3282 44.7965 54.2206C44.7158 54.1265 44.6082 54.0727 44.4872 54.0727C44.3258 54.0727 44.1779 54.1399 44.0435 54.2879C43.909 54.4358 43.8552 54.6509 43.8552 54.9468V56.4126H43.2097V53.5617H43.8014V54.2206C44.0031 53.7365 44.299 53.5079 44.662 53.5079C44.9175 53.5079 45.1327 53.5886 45.3075 53.75C45.4823 53.9113 45.5765 54.1803 45.5765 54.5837V56.426Z" fill="#ED1C24"/>
<path d="M48.9384 53.0372V53.5348H48.7367C48.656 53.5348 48.5753 53.5348 48.5081 53.5617C48.4408 53.5886 48.387 53.6558 48.3198 53.7634C48.5484 53.9517 48.656 54.1534 48.656 54.382C48.656 54.6375 48.5484 54.8392 48.3332 55.014C48.1181 55.1754 47.8491 55.2561 47.4995 55.2561C47.3516 55.2561 47.1768 55.2292 46.975 55.1889C46.8406 55.2426 46.7733 55.3368 46.7733 55.4713C46.7733 55.5385 46.8002 55.6057 46.8675 55.6595C46.9347 55.7133 47.0288 55.7537 47.1633 55.7537H48.0105C48.3064 55.7537 48.5215 55.8343 48.6963 55.9823C48.8577 56.1302 48.9384 56.3185 48.9384 56.5336C48.9384 56.8026 48.8174 57.0312 48.5619 57.206C48.3064 57.3808 47.9433 57.4749 47.4591 57.4749C46.5447 57.4749 46.074 57.2194 46.074 56.7084C46.074 56.4529 46.2085 56.2647 46.4909 56.1302C46.3161 55.9823 46.222 55.8209 46.222 55.6595C46.222 55.4175 46.3699 55.2157 46.6792 55.0678C46.4102 54.9065 46.2892 54.6913 46.2892 54.4089C46.2892 54.1668 46.3833 53.9651 46.5851 53.8037C46.7733 53.6424 47.0692 53.5482 47.4726 53.5482C47.6474 53.5482 47.8357 53.5617 48.024 53.602C48.1046 53.239 48.3332 53.0641 48.7098 53.0641H48.9518L48.9384 53.0372ZM46.7733 56.2781C46.6792 56.3588 46.6388 56.4395 46.6388 56.5202C46.6388 56.6546 46.7195 56.7622 46.8675 56.8698C47.0154 56.9639 47.2709 57.0177 47.6071 57.0177C48.1046 57.0177 48.3467 56.8967 48.3467 56.6412C48.3467 56.5471 48.3064 56.4798 48.2122 56.426C48.1315 56.3722 48.0239 56.3588 47.9164 56.3588H47.2305C47.0961 56.3588 46.9481 56.3319 46.7733 56.2916M47.4726 54.893C47.8222 54.893 47.9971 54.7316 47.9971 54.3954C47.9971 54.2744 47.9567 54.1668 47.8626 54.0727C47.7819 53.992 47.6474 53.9382 47.4726 53.9382C47.2978 53.9382 47.1768 53.9786 47.0826 54.0727C46.9885 54.1668 46.9481 54.2744 46.9481 54.4089C46.9481 54.5434 46.9885 54.6644 47.0826 54.7451C47.1768 54.8392 47.2978 54.8796 47.4726 54.8796" fill="#ED1C24"/>
<path d="M51.6817 56.426H51.0766V55.8074C50.9152 56.2512 50.6193 56.4798 50.1756 56.4798C49.9201 56.4798 49.7049 56.3991 49.557 56.2378C49.4091 56.0764 49.3284 55.8478 49.3284 55.5654V53.5751H49.9873V55.4309C49.9873 55.6326 50.0277 55.7671 50.1218 55.8343C50.2159 55.9016 50.2966 55.9285 50.3907 55.9285C50.5252 55.9285 50.6731 55.8612 50.8211 55.7402C50.969 55.6192 51.0362 55.3502 51.0362 54.9468V53.5751H51.6817V56.426Z" fill="#ED1C24"/>
<path d="M54.815 56.426H54.1695V54.6509C54.1695 54.4627 54.1292 54.3282 54.035 54.2206C53.9544 54.1265 53.8468 54.0727 53.7258 54.0727C53.5644 54.0727 53.4165 54.1399 53.282 54.2879C53.1475 54.4358 53.0937 54.6509 53.0937 54.9468V56.4126H52.4482V53.5617H53.0399V54.2206C53.2416 53.7365 53.5375 53.5079 53.9006 53.5079C54.1561 53.5079 54.3578 53.5886 54.5461 53.75C54.7209 53.9113 54.815 54.1803 54.815 54.5837V56.426Z" fill="#ED1C24"/>
<path d="M57.76 52.58H57.0608V56.426H57.76V52.58Z" fill="#ED1C24"/>
<path d="M60.9337 56.426H60.2882V54.6509C60.2882 54.4627 60.2479 54.3282 60.1537 54.2206C60.073 54.1265 59.9655 54.0727 59.8444 54.0727C59.6831 54.0727 59.5351 54.1399 59.4007 54.2879C59.2662 54.4358 59.2124 54.651 59.2124 54.9468V56.4126H58.5669V53.5617H59.1586V54.2206C59.3603 53.7365 59.6562 53.5079 60.0192 53.5079C60.2747 53.5079 60.4899 53.5886 60.6647 53.75C60.8396 53.9113 60.9337 54.1803 60.9337 54.5837V56.426Z" fill="#ED1C24"/>
<path d="M64.0401 56.426H63.4349V55.8478C63.2736 56.2781 62.9912 56.4798 62.6012 56.4798C62.2516 56.4798 61.9826 56.3319 61.7943 56.036C61.6061 55.7402 61.5119 55.3771 61.5119 54.9468C61.5119 54.5434 61.6061 54.1937 61.8078 53.8979C61.996 53.602 62.2785 53.4541 62.6281 53.4541C62.9777 53.4541 63.2467 53.6155 63.3946 53.9517V52.5666H64.0401V56.426ZM63.3946 54.7451C63.3946 54.5165 63.3408 54.3282 63.2332 54.2072C63.1257 54.0727 62.9777 54.0189 62.8029 54.0189C62.6146 54.0189 62.4667 54.0996 62.3591 54.261C62.2516 54.4223 62.1978 54.6778 62.1978 55.0006C62.1978 55.6326 62.3995 55.9554 62.7895 55.9554C62.9508 55.9554 63.0853 55.8881 63.2063 55.7536C63.3274 55.6192 63.3946 55.4444 63.3946 55.2292V54.7451Z" fill="#ED1C24"/>
<path d="M65.9228 56.4933C65.5059 56.4933 65.1831 56.3453 64.9545 56.036C64.7394 55.7267 64.6183 55.3906 64.6183 55.0006C64.6183 54.5837 64.7394 54.2341 64.9814 53.9517C65.2235 53.6693 65.5462 53.5348 65.9497 53.5348C66.3262 53.5348 66.6489 53.6693 66.891 53.9382C67.133 54.2072 67.2541 54.5703 67.2541 55.0006C67.2541 55.4309 67.133 55.8074 66.8775 56.0898C66.622 56.3588 66.2993 56.4933 65.9093 56.4933M65.9362 55.9688C66.3665 55.9688 66.5817 55.6461 66.5817 55.0006C66.5817 54.7047 66.5279 54.4761 66.4338 54.3148C66.3262 54.1399 66.1648 54.0593 65.9497 54.0593C65.7345 54.0593 65.5597 54.1534 65.4521 54.3148C65.3445 54.4896 65.2907 54.7182 65.2907 55.0006C65.2907 55.3099 65.3445 55.5519 65.4655 55.7133C65.5731 55.8747 65.7345 55.9554 65.9362 55.9554" fill="#ED1C24"/>
<path d="M70.2264 56.4259H69.581V54.6508C69.581 54.4626 69.5406 54.3281 69.4465 54.2205C69.3658 54.1264 69.2582 54.0726 69.1372 54.0726C68.9758 54.0726 68.8279 54.1398 68.6934 54.2878C68.5589 54.4357 68.5051 54.6508 68.5051 54.9467V56.4125H67.8597V53.5616H68.4514V54.2205C68.6531 53.7364 68.9489 53.5078 69.312 53.5078C69.5675 53.5078 69.7827 53.5885 69.9575 53.7498C70.1323 53.9112 70.2264 54.1802 70.2264 54.5836V56.4259Z" fill="#ED1C24"/>
<path d="M72.8083 55.5249L73.3866 55.6056C73.3193 55.8611 73.1714 56.0763 72.9428 56.2377C72.7276 56.399 72.4587 56.4932 72.1225 56.4932C71.7325 56.4932 71.4098 56.3587 71.1677 56.0897C70.9257 55.8208 70.8046 55.4712 70.8046 55.0139C70.8046 54.5567 70.9257 54.234 71.1677 53.9516C71.4098 53.6692 71.7325 53.5213 72.1494 53.5213C72.5663 53.5213 72.8756 53.6557 73.0907 53.9381C73.3193 54.2205 73.4269 54.5702 73.4269 55.0139V55.0812H71.4636C71.4636 55.2694 71.4905 55.4308 71.5173 55.5518C71.5577 55.6729 71.6249 55.767 71.7325 55.8611C71.8401 55.9553 71.9746 55.9956 72.1359 55.9956C72.4587 55.9956 72.6604 55.8477 72.7814 55.5384M72.7411 54.6912C72.7411 54.4895 72.6738 54.3147 72.5528 54.1936C72.4318 54.0592 72.2839 53.9919 72.109 53.9919C71.9342 53.9919 71.7863 54.0592 71.6653 54.1802C71.5442 54.3012 71.477 54.476 71.4501 54.6912H72.7411Z" fill="#ED1C24"/>
<path d="M73.682 55.7805L74.2872 55.6595C74.3813 55.8881 74.583 56.0092 74.8923 56.0092C75.2958 56.0092 75.484 55.8881 75.484 55.6595C75.484 55.5788 75.4571 55.525 75.3899 55.4712C75.3227 55.4175 75.2554 55.3906 75.1747 55.3771L74.6503 55.283C74.072 55.1754 73.7896 54.893 73.7896 54.4358C73.7896 54.1803 73.8838 53.9651 74.0586 53.7903C74.2468 53.6155 74.5158 53.5214 74.8789 53.5214C75.484 53.5214 75.8471 53.7365 75.9816 54.1803L75.4033 54.3013C75.3496 54.0862 75.1747 53.9786 74.8923 53.9786C74.5561 53.9786 74.3813 54.0862 74.3813 54.3013C74.3813 54.4492 74.5158 54.5568 74.7982 54.6106L75.4033 54.7316C75.874 54.8258 76.1161 55.1082 76.1161 55.5519C76.1161 55.8612 75.995 56.1033 75.753 56.2512C75.5109 56.3991 75.2151 56.4798 74.8789 56.4798C74.583 56.4798 74.3275 56.426 74.0989 56.305C73.8703 56.184 73.7224 56.0092 73.6686 55.7671" fill="#ED1C24"/>
<path d="M76.6405 56.426H77.286V53.5751H76.6405V56.426ZM76.6405 53.239H77.286V52.5666H76.6405V53.239Z" fill="#ED1C24"/>
<path d="M80.5 56.426H79.8814C79.8276 56.2512 79.8007 56.0629 79.7873 55.8478C79.6125 56.2781 79.2897 56.4798 78.819 56.4798C78.5366 56.4798 78.308 56.3991 78.1332 56.2378C77.9584 56.0764 77.8777 55.8612 77.8777 55.6057C77.8777 54.9468 78.456 54.6241 79.599 54.6241C79.6394 54.6241 79.7066 54.6241 79.7873 54.6241V54.4089C79.7873 54.113 79.5856 53.9651 79.1821 53.9651C78.7787 53.9651 78.5635 54.113 78.5232 54.4089L77.9718 54.3282C77.9987 54.0861 78.1198 53.8979 78.3349 53.7365C78.5501 53.5886 78.8594 53.5079 79.2628 53.5079C79.478 53.5079 79.6663 53.5214 79.8007 53.5617C79.9352 53.602 80.0562 53.6558 80.1504 53.75C80.2445 53.8441 80.3117 53.9382 80.3521 54.0324C80.3924 54.1399 80.4059 54.3148 80.4059 54.5568V55.8478C80.4059 56.036 80.4328 56.2243 80.4865 56.426M79.7738 54.9737C78.9401 54.9737 78.5232 55.1754 78.5232 55.5654C78.5232 55.6864 78.5635 55.7805 78.6442 55.8612C78.7249 55.9419 78.8594 55.9823 79.0208 55.9823C79.2628 55.9823 79.4511 55.9016 79.5721 55.7536C79.6931 55.6057 79.7604 55.4175 79.7604 55.2292V54.9737H79.7738Z" fill="#ED1C24"/>
</g>
<defs>
<clipPath id="clip0_801_8882">
<rect width="80" height="57.4749" fill="white" transform="translate(0.5)"/>
</clipPath>
</defs>
</svg>
