<svg width="81" height="35" viewBox="0 0 81 35" fill="none" xmlns="http://www.w3.org/2000/svg">
<g clip-path="url(#clip0_801_8858)">
<path d="M17.6841 0.0206599C17.7668 0.0413192 17.877 0.0344328 17.9252 0.082638C18.6 0.764398 19.2543 1.45993 19.9291 2.1348C20.6453 2.84411 21.4304 3.49144 22.0915 4.24895C22.6217 4.86184 23.2002 5.01334 23.9715 4.99268C25.8171 4.94448 27.6695 4.97891 29.5151 4.97891H30.0522V5.55049C30.0522 7.60954 30.0522 9.66859 30.0522 11.7345C30.0522 12.1408 30.1968 12.4232 30.5412 12.6917C31.0645 13.1049 31.5053 13.6214 31.9804 14.0966C32.373 14.4891 32.7724 14.8816 33.158 15.2811C33.6607 15.8044 34.1566 16.3278 34.6593 16.8512C34.7212 16.92 34.7901 16.982 34.8659 17.0302C35.0793 17.1679 35.1 17.2644 34.8865 17.4641C34.4665 17.8566 34.1084 18.318 33.6883 18.7243C33.1856 19.2132 32.6484 19.6746 32.1388 20.1567C31.7945 20.4803 31.4777 20.8247 31.1541 21.169C30.975 21.3549 30.8511 21.6166 30.6376 21.7474C30.1142 22.0573 30.0522 22.5118 30.0591 23.0559C30.0798 25.0185 30.066 26.9812 30.066 28.9438V29.5223C26.065 28.9369 22.6975 27.174 19.6399 24.7499L19.6606 24.6122C19.8258 24.5984 19.9911 24.5778 20.1564 24.5778C21.6439 24.5778 23.1313 24.5709 24.6188 24.5778C24.9562 24.5778 25.0802 24.4883 25.0733 24.1302C25.0527 22.987 25.0733 21.837 25.0664 20.6938C25.0664 20.4184 25.1491 20.2462 25.3557 20.0465C25.8653 19.5576 26.3198 18.9997 26.8087 18.497C27.1599 18.1389 27.5318 17.7946 27.9174 17.471C28.124 17.2919 28.1102 17.1955 27.9174 17.0164C27.4836 16.6033 27.0842 16.1488 26.6641 15.7218C26.244 15.3017 25.7964 14.9092 25.397 14.4616C25.2317 14.2756 25.0871 14.0071 25.0802 13.7729C25.0458 12.678 25.0664 11.583 25.0664 10.4881V9.94405H23.6134C23.0762 9.94405 22.5184 9.8683 21.9951 9.95782C20.9346 10.1369 20.3492 9.52398 19.7432 8.82156C19.2956 8.30507 18.7516 7.87123 18.2488 7.40295C18.0698 7.23079 17.8907 7.05174 17.7117 6.87958C17.7117 4.59327 17.6979 2.30697 17.6979 0.0275463" fill="#A2C33D"/>
<path d="M17.6704 34.4392C17.5671 34.3979 17.4293 34.3772 17.3605 34.3015C16.2104 33.1032 15.0742 31.905 13.931 30.7067C13.628 30.3831 13.3319 30.0456 12.9876 29.7771C12.7741 29.6187 12.4642 29.5154 12.1956 29.5085C10.1641 29.4878 8.13951 29.4947 6.10801 29.4947H5.52266C5.51577 29.2881 5.49511 29.116 5.49511 28.9369C5.49511 27.1395 5.44691 25.3353 5.51577 23.5379C5.55021 22.6289 5.26097 22.016 4.59299 21.4169C3.60134 20.5217 2.71298 19.5093 1.77643 18.5521C1.41833 18.1871 1.03957 17.8497 0.660819 17.5054C0.467998 17.3332 0.433566 17.1886 0.64016 16.982C1.99679 15.6392 3.33965 14.2825 4.6894 12.9259C4.7927 12.8226 4.88911 12.7193 5.00618 12.6298C5.32295 12.3819 5.502 12.0857 5.49511 11.6519C5.47445 9.64105 5.48823 7.6302 5.48823 5.61935V5.00646C5.95651 5.07532 6.39724 5.09598 6.80354 5.20617C7.76765 5.46096 8.76618 5.65379 9.65454 6.07386C10.9974 6.70053 12.4091 7.21013 13.6005 8.15357C14.2822 8.69071 15.0397 9.13833 15.7628 9.62727C15.8317 9.67548 15.8592 9.77189 15.9556 9.93028H10.3225C10.3225 11.2456 10.3087 12.4989 10.3294 13.7523C10.3294 14.1035 10.2468 14.3445 9.9782 14.5924C9.08296 15.4326 8.22215 16.3071 7.24427 17.2712C7.95358 17.9461 8.61468 18.559 9.26889 19.1857C9.58567 19.4887 9.90934 19.7917 10.1917 20.1222C10.2881 20.2393 10.3156 20.4459 10.3156 20.6112C10.3225 21.9058 10.3156 23.1936 10.3156 24.5434C10.5016 24.5502 10.6737 24.5709 10.8459 24.5709C11.989 24.5709 13.1391 24.5571 14.2822 24.5847C14.5026 24.5847 14.7712 24.7224 14.9365 24.8808C15.8661 25.7829 16.7751 26.7126 17.6841 27.6354C17.6773 29.9079 17.6704 32.1735 17.6635 34.4461" fill="#689584"/>
<path d="M17.6704 34.4392C17.6773 32.1667 17.6842 29.901 17.691 27.6285C18.0147 27.3393 18.3384 27.0431 18.6758 26.7332C22.8559 30.1558 27.6213 31.9394 33.0685 32.084C32.8757 32.1735 32.7311 32.27 32.5727 32.3044C30.5687 32.7451 28.5372 32.9724 26.5057 32.6831C24.9907 32.4697 23.4963 32.0565 21.9951 31.7122C21.8023 31.664 21.6094 31.5675 21.4373 31.4574C21.0929 31.2439 20.8795 31.4298 20.6453 31.6571C20.1357 32.1667 19.6055 32.6625 19.0959 33.1721C18.7102 33.5577 18.3521 33.964 17.9734 34.3497C17.9045 34.4185 17.7668 34.4116 17.6566 34.4323" fill="#A3C340"/>
<path d="M17.6841 0.0206599C17.6841 2.30696 17.6979 4.59327 17.6979 6.87269C17.574 6.99664 17.4431 7.1206 17.3192 7.25144C16.8233 7.76104 16.7132 7.75416 16.1691 7.30654C14.9502 6.31488 13.6693 5.41276 12.2025 4.80675C11.204 4.39356 10.2261 3.9184 9.2138 3.53275C8.64223 3.31239 8.02244 3.20909 7.42332 3.07136C6.65204 2.89231 5.88076 2.69261 5.10259 2.58931C4.20046 2.47913 3.29145 2.47224 2.23782 2.40337C2.47884 2.32762 2.58903 2.29319 2.7061 2.26565C4.95108 1.70096 7.22361 1.45993 9.51681 1.88C10.8321 2.12103 12.1268 2.46535 13.4352 2.76147C13.449 2.76147 13.4696 2.76147 13.4834 2.76147C14.195 3.02775 14.8033 2.88772 15.3083 2.3414C15.9832 1.61832 16.6649 0.89524 17.3536 0.179048C17.4362 0.089524 17.574 0.0619782 17.691 0" fill="#699685"/>
<path d="M78.0302 16.5344H76.7837C76.7837 15.2879 76.7493 14.069 76.7975 12.8501C76.8251 12.2304 76.5221 11.7896 76.0882 11.5555C75.6337 11.3076 75.0415 11.28 74.6007 11.7208C74.4905 11.8309 74.4492 12.0582 74.4492 12.2304C74.4355 13.649 74.4492 15.0676 74.4492 16.5206H73.1615V16.011C73.1615 14.8816 73.1615 13.7523 73.1615 12.6229C73.1615 12.1133 72.9549 11.707 72.4935 11.5004C72.0114 11.28 71.1368 11.4453 70.8683 11.7965C70.7856 11.9067 70.7925 12.0995 70.7856 12.2579C70.7856 13.6627 70.7856 15.0676 70.7856 16.5137H69.4566C69.4566 16.3553 69.4359 16.1832 69.4359 16.011C69.4359 14.5855 69.4359 13.1669 69.4359 11.7414C69.4359 11.4728 69.3946 11.0941 69.5392 10.9564C69.8146 10.7016 70.2072 10.5432 70.579 10.4261C71.5432 10.1231 72.5004 10.1988 73.4645 10.5225C73.7537 10.6189 74.1462 10.433 74.4837 10.3435C75.2894 10.1231 76.1158 10.1575 76.832 10.495C77.5481 10.8324 78.0302 11.4935 78.0371 12.3681C78.044 13.7385 78.0371 15.1089 78.0371 16.5344" fill="#5D5C60"/>
<path d="M17.6773 12.9879C17.9183 13.0705 18.1869 13.1187 18.4072 13.2496C19.3162 13.766 20.1977 14.3376 21.1205 14.8197C21.451 14.9918 21.5475 15.1915 21.5475 15.4945C21.5543 16.6721 21.5681 17.8497 21.5337 19.0273C21.5268 19.2545 21.3409 19.5576 21.148 19.6815C20.1288 20.3013 19.0821 20.8798 18.0354 21.4582C17.9389 21.5133 17.7943 21.4995 17.6704 21.5133C17.6704 21.2103 17.6773 20.9073 17.6773 20.6043C17.6773 18.0701 17.6773 15.5359 17.6773 13.0016" fill="#F4C81E"/>
<path d="M17.6773 12.9879C17.6773 15.5221 17.6773 18.0563 17.6773 20.5905C17.6773 20.8935 17.6773 21.1965 17.6704 21.4995C17.2434 21.2792 16.8165 21.0726 16.4033 20.8384C15.7422 20.4734 15.088 20.0809 14.42 19.7159C14.1032 19.5438 13.9792 19.289 13.9792 18.9378C13.9861 17.8773 14.0274 16.8099 13.9655 15.7493C13.931 15.1227 14.2271 14.861 14.7023 14.6062C15.5218 14.1517 16.3206 13.6559 17.1332 13.1876C17.2985 13.0912 17.4982 13.0567 17.6773 12.9879Z" fill="#EBA227"/>
<path d="M43.1985 9.26918H40.375V11.6037C41.0637 11.6037 41.7386 11.6037 42.4203 11.6037C42.9161 11.6037 43.164 11.8539 43.164 12.3543C43.164 12.5127 43.164 12.6711 43.164 12.8639H40.3888V15.2466H43.3569V16.5275C42.2206 16.5275 41.0843 16.5275 39.9481 16.5206C39.831 16.5206 39.7139 16.4104 39.5969 16.3622C39.0804 16.1694 38.922 15.7425 38.922 15.2604C38.9082 13.2633 38.9013 11.2731 38.922 9.27606C38.9289 8.51167 39.5142 7.96075 40.2855 7.95386C41.2496 7.94009 42.2137 7.95386 43.2054 7.95386V9.27606L43.1985 9.26918Z" fill="#5E5D61"/>
<path d="M40.0927 24.6742C40.7262 25.3146 41.9038 25.5006 42.6613 25.0598C43.0607 24.8257 43.2122 23.8547 42.8335 23.5999C42.2688 23.2211 41.6697 22.8768 41.0499 22.622C39.7552 22.0849 38.5708 21.1001 38.9977 19.5162C39.2594 18.5521 39.8792 18.0356 40.8571 17.9117C41.8005 17.7877 42.7371 17.8428 43.6392 18.2078C43.9491 18.3318 44.0111 18.5452 43.7838 18.8551C43.6048 19.0962 43.412 19.3165 43.2191 19.5507C42.4547 19.048 41.6008 19.0617 40.7469 19.3028C40.5747 19.351 40.4301 19.7022 40.375 19.9432C40.2648 20.3977 40.437 20.7833 40.864 20.9968C41.5044 21.3067 42.1862 21.5409 42.806 21.8921C44.018 22.5807 44.8512 23.7445 44.1557 25.3353C43.7632 26.2374 42.5787 26.8297 41.4837 26.6988C40.6367 26.6024 39.8999 26.2305 39.2043 25.776C39.1561 25.7416 39.1492 25.5212 39.2043 25.4661C39.4867 25.1907 39.7966 24.9359 40.0927 24.6742Z" fill="#5D5C60"/>
<path d="M76.3017 26.4922C76.3017 26.4922 76.2604 26.5129 76.2397 26.5198C75.3812 26.5932 74.9519 26.2099 74.9519 25.3697C74.9519 24.5984 74.9519 23.834 74.9519 23.0628C74.9382 21.7474 74.2426 21.2516 72.9549 21.6235C72.8447 21.6579 72.7345 21.7199 72.6312 21.7199C72.2042 21.7337 72.1492 21.9885 72.1492 22.3466C72.1629 23.5379 72.1492 24.7362 72.1492 25.9275V26.4991H70.9165C70.9096 26.382 70.8889 26.2443 70.8889 26.0997C70.8889 23.8134 70.8889 21.5202 70.8889 19.2339C70.8889 18.4213 71.2677 18.0425 72.1423 17.9668V20.5285C72.2869 20.501 72.3971 20.5148 72.4728 20.4666C73.2648 19.957 73.9947 20.1222 74.8349 20.4597C75.8954 20.8866 76.2948 21.6579 76.3361 22.684C76.3843 23.8891 76.3499 25.1012 76.3499 26.3132C76.3499 26.3751 76.3223 26.4371 76.3086 26.4922" fill="#605F62"/>
<path d="M65.0148 21.6579C65.0148 21.5409 65.001 21.4582 65.001 21.3756C64.9872 20.3633 65.0974 20.2324 66.1373 20.1704C66.5642 20.1429 66.9912 20.1154 67.4113 20.1704C68.3065 20.2806 69.6081 20.9624 69.6287 22.14C69.6494 23.2694 69.7527 24.3987 69.7802 25.5281C69.7802 25.7072 69.6287 25.9757 69.4703 26.0584C68.5475 26.5542 67.5766 26.9123 66.516 26.6093C65.5657 26.3338 64.76 25.8449 64.4914 24.7981C64.3399 24.2266 64.5603 23.6963 64.8357 23.228C65.3591 22.319 66.3026 22.2364 67.2185 22.1469C67.5697 22.1124 67.9278 22.1469 68.2927 22.1469C68.1275 21.3893 67.2804 21.2723 65.0286 21.6717M68.4787 23.3313C67.976 23.3313 67.5146 23.2762 67.0738 23.3382C65.8274 23.5104 65.8274 23.4897 65.9169 24.7637C65.9307 24.9428 66.1166 25.1838 66.2888 25.2527C66.943 25.5281 67.6248 25.4455 68.2927 25.2527C68.3685 25.232 68.4718 25.1012 68.4718 25.0185C68.4856 24.4676 68.4787 23.9167 68.4787 23.3176" fill="#5F5E61"/>
<path d="M55.0776 21.9678C54.0722 21.0726 52.9084 21.472 51.7377 21.6166C51.7377 21.3343 51.7584 21.0588 51.7377 20.7833C51.7101 20.4459 51.9099 20.2806 52.1784 20.2531C52.874 20.198 53.5902 20.1085 54.2788 20.1773C55.4426 20.2944 56.3929 21.3687 56.4343 22.5394C56.4687 23.5517 56.4549 24.564 56.4343 25.5832C56.4343 25.7347 56.3241 25.9482 56.2001 26.0171C55.2085 26.568 54.148 26.9398 53.0186 26.5473C52.3368 26.3132 51.6757 25.9895 51.3038 25.2802C51.0559 24.8119 51.1868 23.7032 51.4691 23.2556C52.0889 22.2708 53.0668 22.202 54.0584 22.1262C54.389 22.0987 54.7264 22.1262 55.0639 22.1262C55.0639 22.0711 55.0776 22.016 55.0845 21.9609M55.1121 25.3009V23.2694C54.4854 23.3038 53.9 23.3038 53.3216 23.3795C52.6605 23.4691 52.509 23.6825 52.5296 24.3574C52.5434 24.9772 52.6674 25.2044 53.2803 25.2871C53.8725 25.3697 54.4854 25.3077 55.1189 25.3077" fill="#5D5C60"/>
<path d="M45.9737 12.6367C46.5384 11.9962 47.1031 11.3558 47.6816 10.7291C47.7986 10.5983 47.9846 10.4605 48.143 10.4468C48.625 10.4123 49.1139 10.433 49.7268 10.433C48.9349 11.2731 48.2325 12.0444 47.5025 12.7882C47.0342 13.2633 47.0136 13.3115 47.4268 13.8074C48.081 14.5924 48.7352 15.3775 49.3894 16.1556C49.4927 16.2727 49.6235 16.3553 49.7475 16.4586C48.8041 16.7892 48.0397 16.5551 47.4405 15.7769C47.2064 15.467 46.9516 15.1709 46.6968 14.8748C46.4489 14.5855 46.1872 14.3101 45.8704 13.9589V16.5068H44.5964C44.5827 16.4036 44.562 16.3003 44.562 16.1901C44.562 13.9313 44.562 11.6794 44.562 9.42068C44.562 8.52544 44.8925 8.13291 45.8153 7.96764V12.5816C45.8704 12.6022 45.9186 12.616 45.9737 12.6367Z" fill="#5D5C60"/>
<path d="M52.6329 16.617C51.6619 16.6446 50.808 16.3967 50.2227 15.5565C49.6718 14.7646 49.5547 13.8693 49.6855 12.9534C49.7613 12.4094 49.9128 11.8172 50.202 11.3627C50.8011 10.433 52.2404 10.0198 53.356 10.3228C54.6162 10.6671 55.3393 11.4591 55.5115 12.7744C55.6285 13.6214 55.5734 14.4753 55.2222 15.2122C54.8366 16.0179 54.086 16.4862 53.1701 16.6101C52.991 16.6308 52.812 16.6101 52.6329 16.6101M52.6192 15.4326C53.4042 15.4326 54.0447 15.1433 54.148 14.5373C54.2719 13.828 54.265 13.0705 54.148 12.3681C54.0929 12.0651 53.6177 11.8172 53.3078 11.583C52.75 11.1698 51.3727 11.5555 51.1523 12.2166C50.994 12.6986 50.8907 13.2289 50.8975 13.7316C50.9044 14.7508 51.6344 15.5703 52.626 15.4326" fill="#5D5C60"/>
<path d="M68.6233 13.4493C68.5269 13.952 68.4993 14.4822 68.3272 14.9643C68.0104 15.8664 67.308 16.4242 66.399 16.5826C65.4968 16.7479 64.5396 16.7134 63.789 16.0937C63.424 15.7975 63.2105 15.3155 62.942 14.9092C62.5494 14.317 62.5563 13.6145 62.6803 12.9879C62.7973 12.3612 63.0177 11.6657 63.4171 11.1974C64.1884 10.309 65.2627 10.0542 66.4196 10.3435C67.6454 10.6534 68.7404 11.7208 68.6302 13.4561M67.3562 13.4768C67.4182 12.6849 67.1289 12.0513 66.3783 11.6312C65.669 11.2318 64.4501 11.4866 64.1953 12.2166C64.0094 12.7468 63.9612 13.3666 64.0025 13.9382C64.0989 15.3568 65.0148 15.591 66.1304 15.4188C66.8741 15.3017 67.3562 14.5167 67.3562 13.4768Z" fill="#5C5C5F"/>
<path d="M47.0411 26.2994C46.263 24.3781 45.4917 22.4636 44.686 20.4528C45.1542 20.4528 45.5261 20.4252 45.8842 20.4666C46.0219 20.4803 46.1872 20.6525 46.2423 20.7902C46.4627 21.3411 46.6279 21.9196 46.8552 22.4705C47.1238 23.1316 47.4268 23.779 47.7504 24.5158C47.8537 24.3505 47.9708 24.199 48.0397 24.0338C48.4942 22.9044 48.9349 21.7681 49.3963 20.6456C49.4376 20.5492 49.6098 20.4666 49.72 20.4528C50.0781 20.4321 50.4361 20.4459 50.8493 20.4459C50.7667 20.7351 50.7116 20.9968 50.6083 21.2378C50.3535 21.8439 50.078 22.443 49.8095 23.0421C49.4445 23.8685 49.0589 24.6811 48.7076 25.5143C48.4529 26.1203 48.2531 26.7539 48.0052 27.3668C47.8262 27.8006 47.6196 28.2207 47.4061 28.6408C47.3648 28.7234 47.1995 28.7854 47.0893 28.7923C46.7312 28.813 46.3731 28.7923 45.9875 28.7923C46.3525 27.9177 46.7037 27.0776 47.0342 26.2925" fill="#5D5C60"/>
<path d="M61.7575 16.5275H60.5661V14.4065C60.5661 13.9313 60.5661 13.4561 60.5661 12.981C60.5524 11.6588 59.3541 11.0459 58.149 11.6312C57.6669 11.8654 57.66 12.1271 57.66 12.5196C57.6669 13.8418 57.66 15.164 57.66 16.5206H56.3654V11.7621C56.3654 11.0734 56.7235 10.5983 57.3915 10.4674C58.2867 10.2884 59.1751 10.1369 60.0979 10.4123C60.9173 10.6534 61.6886 11.2869 61.7299 12.1202C61.7988 13.587 61.7506 15.0538 61.7506 16.5413" fill="#5C5C5F"/>
<path d="M58.817 26.5198H57.6463C57.6325 26.3683 57.605 26.2305 57.605 26.0859C57.605 24.4676 57.5912 22.8562 57.6187 21.2378C57.6187 21.0519 57.7496 20.7902 57.9011 20.7007C58.8721 20.136 59.9326 19.9914 61.0275 20.2531C61.179 20.2875 61.3512 20.5217 61.3856 20.6869C61.4407 20.983 61.3994 21.2998 61.3994 21.5959C60.8554 21.5409 60.3458 21.4789 59.8362 21.4307C59.7122 21.4169 59.5745 21.4307 59.4436 21.4582C59.0236 21.534 58.7688 21.6648 58.7963 22.2088C58.8514 23.6275 58.817 25.0461 58.817 26.5129" fill="#5B5A5E"/>
<path d="M80.5093 10.4674H79.1802V16.5619H80.5093V10.4674Z" fill="#5D5C60"/>
<path d="M63.6857 20.4872H62.3704V26.5335H63.6857V20.4872Z" fill="#605F62"/>
<path d="M80.5093 8.31196H79.1802V9.33804H80.5093V8.31196Z" fill="#616063"/>
<path d="M63.6857 18.2216H62.3704V19.2339H63.6857V18.2216Z" fill="#616064"/>
</g>
<defs>
<clipPath id="clip0_801_8858">
<rect width="80.0093" height="34.4461" fill="white" transform="translate(0.5)"/>
</clipPath>
</defs>
</svg>
