<svg width="81" height="44" viewBox="0 0 81 44" fill="none" xmlns="http://www.w3.org/2000/svg">
<g clip-path="url(#clip0_801_8861)">
<path d="M40.5014 27.9727C40.3769 27.9555 40.3211 27.8461 40.246 27.7689C39.0423 26.5695 37.8365 25.3679 36.6414 24.1599C36.4697 23.9861 36.2981 23.9089 36.0492 23.911C34.3606 23.9217 32.6698 23.9046 30.9812 23.926C30.6207 23.9303 30.5606 23.8187 30.5649 23.4905C30.5821 21.7911 30.5692 20.0896 30.5778 18.3881C30.5799 18.1757 30.5156 18.0319 30.3675 17.8839C29.1359 16.663 27.915 15.4293 26.6792 14.2127C26.5011 14.0368 26.4925 13.9509 26.677 13.7686C27.9065 12.5606 29.1166 11.3333 30.3418 10.1231C30.507 9.96005 30.5799 9.79913 30.5778 9.56311C30.5671 7.84016 30.5756 6.11721 30.5671 4.39426C30.5649 4.13034 30.5992 4.06383 30.8975 4.11747C33.6654 4.6217 36.1522 5.74387 38.3686 7.47325C38.4845 7.56337 38.6025 7.65134 38.7205 7.73931C38.8256 7.81655 38.9308 7.8938 39.1131 8.02897C38.8342 8.02897 38.6454 8.02897 38.4587 8.02897C37.2679 8.02897 36.0771 8.03756 34.8862 8.02254C34.6094 8.01825 34.5451 8.10836 34.5494 8.36798C34.5644 9.32065 34.5494 10.2733 34.5579 11.2238C34.5601 11.432 34.5 11.5843 34.3498 11.7323C33.6611 12.4061 32.9916 13.0991 32.2986 13.7686C32.1076 13.9531 32.1312 14.0475 32.3072 14.2191C32.9916 14.8822 33.6546 15.5666 34.3348 16.2318C34.4914 16.3862 34.5644 16.5407 34.5622 16.766C34.5494 17.6844 34.5708 18.6027 34.5494 19.521C34.5429 19.8364 34.6073 19.948 34.9506 19.9394C35.8797 19.9137 36.8109 19.9373 37.7399 19.9244C37.9524 19.9223 38.0961 19.9909 38.242 20.1368C38.993 20.8921 39.7525 21.6366 40.51 22.3855C40.5057 24.2479 40.5035 26.1103 40.5014 27.9727Z" fill="#509C85"/>
<path d="M40.5079 0C40.7353 0.13303 40.892 0.345447 41.0743 0.525681C42.1836 1.62854 43.2929 2.73354 44.3915 3.84713C44.5567 4.01449 44.7219 4.07457 44.9537 4.07457C46.6766 4.06599 48.4017 4.07457 50.1246 4.06384C50.3735 4.0617 50.4486 4.11534 50.4465 4.37711C50.4336 6.11293 50.4443 7.84661 50.4358 9.58243C50.4336 9.80558 50.5023 9.95792 50.6589 10.1124C51.8841 11.3247 53.0942 12.552 54.3237 13.76C54.5211 13.9531 54.4953 14.0475 54.3151 14.2256C53.1049 15.4207 51.9077 16.6309 50.6997 17.826C50.5173 18.0062 50.4336 18.1822 50.4358 18.4439C50.4486 20.1454 50.4293 21.8469 50.4529 23.5463C50.4572 23.9067 50.3135 23.9132 50.0538 23.8638C47.9812 23.4626 46.0372 22.7309 44.2349 21.6259C43.4345 21.1367 42.6986 20.5595 41.9498 19.9888C42.0334 19.8708 42.1429 19.9266 42.233 19.9266C43.5375 19.9223 44.8421 19.9158 46.1466 19.9287C46.3912 19.9309 46.4449 19.8579 46.4427 19.624C46.4299 18.6606 46.4427 17.6972 46.4341 16.7317C46.432 16.5472 46.4856 16.4184 46.6187 16.2876C47.2988 15.6203 47.9554 14.9294 48.6484 14.2771C48.8995 14.0411 48.863 13.9231 48.6356 13.7063C47.9554 13.0562 47.3031 12.3761 46.6315 11.7173C46.4899 11.5779 46.4341 11.4406 46.4363 11.2432C46.4449 10.2798 46.4299 9.31423 46.447 8.35083C46.4535 8.06975 46.3612 8.01611 46.1037 8.0204C45.1618 8.03542 44.222 8.0204 43.2801 8.03113C43.0483 8.03328 42.881 7.9732 42.7158 7.80369C41.9884 7.05701 41.2438 6.3232 40.5079 5.58725C40.5014 3.72912 40.5036 1.86456 40.5079 0Z" fill="#A4C616"/>
<path d="M40.5014 27.9727C40.5035 26.1103 40.5057 24.2479 40.5079 22.3854C40.7095 22.188 40.9241 22.0014 41.1108 21.789C41.2352 21.6473 41.3189 21.6774 41.4434 21.7804C43.9194 23.8316 46.7581 25.1104 49.91 25.6919C50.9314 25.8807 51.9699 25.9472 53.1028 25.988C52.3046 26.2326 51.5751 26.3527 50.8434 26.4493C50.1031 26.548 49.3543 26.5394 48.6076 26.5287C46.8203 26.5051 45.106 26.1231 43.4495 25.4623C43.2414 25.3786 43.1191 25.3893 42.9582 25.5567C42.2244 26.312 41.4734 27.0522 40.7267 27.7946C40.6623 27.8633 40.6172 27.9663 40.5014 27.9727Z" fill="#A4C616"/>
<path d="M40.5079 0C40.5036 1.86456 40.5014 3.72698 40.4971 5.59154C40.2246 5.81254 40.0272 6.25883 39.729 6.26098C39.4629 6.26312 39.1947 5.88764 38.9244 5.6838C36.4118 3.80207 33.5967 2.64557 30.4984 2.18426C29.6724 2.06196 28.8399 1.99545 27.9988 1.99759C28.5137 1.7959 29.0523 1.70364 29.593 1.61781C32.363 1.18439 35.0493 1.50195 37.6456 2.5576C37.8279 2.6327 37.9095 2.54902 38.0146 2.44174C38.757 1.69506 39.5037 0.948373 40.2504 0.205981C40.3276 0.130884 40.3856 0.023602 40.5079 0Z" fill="#509C85"/>
<path d="M40.4971 17.665C39.493 17.0879 38.4931 16.5064 37.4825 15.9378C37.3387 15.8563 37.3023 15.7662 37.3044 15.616C37.3087 14.5281 37.3109 13.4424 37.3044 12.3546C37.3044 12.2001 37.3516 12.11 37.4846 12.0327C38.4523 11.4813 39.4157 10.9234 40.3834 10.3677C40.4199 10.3463 40.4671 10.3484 40.51 10.3377C40.5014 12.7816 40.4993 15.2233 40.4971 17.665Z" fill="#F7A500"/>
<path d="M40.4971 17.665C40.4993 15.2233 40.5036 12.7837 40.5057 10.342C41.2932 10.7046 41.9841 11.2496 42.7736 11.5929C43.722 12.0521 43.722 12.125 43.722 13.2193C43.722 14.1719 43.7027 14.8028 43.7049 15.5967C43.7049 15.7383 43.6941 15.8413 43.5418 15.9271C42.5205 16.4978 41.5099 17.0836 40.4971 17.665Z" fill="#FDD000"/>
<path d="M36.6499 32.3176C35.8668 32.2039 35.0922 32.2747 34.3498 32.5794C34.2361 32.6266 34.1481 32.6738 34.0043 32.6094C32.7277 32.028 31.5004 32.2146 30.3053 32.8712C30.1465 32.957 30.1207 33.0686 30.1207 33.2295C30.1272 34.0449 30.1229 34.8624 30.1229 35.6777C30.1229 36.2892 30.1164 36.9029 30.125 37.5144C30.1293 37.8062 29.9963 38.186 30.1872 38.3641C30.3739 38.5379 30.7515 38.3855 31.0412 38.4198C31.3201 38.452 31.4038 38.3619 31.4017 38.0744C31.3867 36.7934 31.3952 35.5125 31.3952 34.2316C31.3952 33.7445 31.4382 33.6823 31.8995 33.5471C32.0282 33.5106 32.1634 33.4806 32.2986 33.472C33.4164 33.4055 33.7919 33.7488 33.8155 34.8924C33.8327 35.7421 33.8134 36.5939 33.822 37.4436C33.8263 37.7568 33.6825 38.1688 33.882 38.3576C34.0794 38.5443 34.4871 38.3855 34.8004 38.4177C35.0557 38.4434 35.0986 38.3297 35.0922 38.1066C35.0772 37.6088 35.1008 37.1089 35.0857 36.6111C35.0578 35.697 35.193 34.7744 34.9398 33.8732C34.8991 33.7295 35.0085 33.7059 35.0986 33.6608C35.5213 33.4484 35.9697 33.4269 36.4225 33.4956C36.8323 33.5578 37.0855 33.8024 37.182 34.2122C37.2507 34.5019 37.2743 34.7937 37.2764 35.0877C37.2786 36.109 37.2829 37.1282 37.2743 38.1495C37.2722 38.349 37.3151 38.437 37.5361 38.422C37.7957 38.4027 38.0575 38.407 38.3171 38.4198C38.4995 38.4284 38.5488 38.3598 38.5467 38.186C38.5359 36.9608 38.5574 35.7356 38.5252 34.5126C38.4952 33.3261 37.7592 32.4786 36.6499 32.3176Z" fill="#5D5C60"/>
<path d="M4.57474 37.1325C3.7358 37.1432 2.89685 37.1325 2.05791 37.141C1.87982 37.1432 1.79614 37.1153 1.80043 36.905C1.81545 36.3042 1.8133 35.7035 1.80043 35.1027C1.79614 34.886 1.88196 34.8345 2.08151 34.8388C2.6029 34.8495 3.12429 34.8495 3.64568 34.8388C3.96109 34.8323 4.37305 34.9761 4.56187 34.7808C4.74854 34.5877 4.58976 34.1758 4.6198 33.8625C4.6434 33.6265 4.54685 33.5814 4.33228 33.5857C3.57273 33.5986 2.81317 33.5857 2.05361 33.5943C1.8648 33.5964 1.79614 33.5471 1.79828 33.3475C1.80901 32.7575 1.8133 32.1674 1.79828 31.5795C1.79185 31.3542 1.88625 31.3178 2.07936 31.3199C2.64581 31.3285 3.21441 31.3328 3.78085 31.3199C4.09412 31.3135 4.51896 31.468 4.68632 31.2513C4.84295 31.0517 4.72279 30.644 4.74639 30.3308C4.7657 30.1012 4.67773 30.0497 4.46102 30.054C3.62208 30.0669 2.78313 30.0583 1.94419 30.0583C0.982941 30.0583 0.504463 30.5325 0.502317 31.4937C0.500172 32.4013 0.502317 33.3068 0.502317 34.2144C0.502317 35.1671 0.49588 36.1197 0.504463 37.0702C0.513046 37.8555 0.96363 38.3791 1.70173 38.4027C2.68658 38.4327 3.67357 38.4091 4.66057 38.4134C4.80647 38.4134 4.86226 38.3662 4.85797 38.2182C4.84938 37.9457 4.83866 37.6732 4.86011 37.4028C4.88157 37.1689 4.78501 37.1303 4.57474 37.1325Z" fill="#5D5C60"/>
<path d="M48.5132 34.3367C47.9424 33.8732 47.2558 33.6351 46.6014 33.3411C46.2924 33.2016 45.9792 33.0665 45.7367 32.8219C45.2175 32.3026 45.4149 31.5259 46.1229 31.3414C46.5885 31.2191 47.0584 31.2641 47.5347 31.3457C47.8351 31.3993 48.1205 31.7448 48.3844 31.5645C48.6226 31.4015 48.717 31.0388 48.9015 30.7835C49.0388 30.5947 49.0045 30.511 48.8028 30.4123C47.8995 29.9682 46.9554 29.8094 45.9684 30.0111C45.078 30.1935 44.3957 30.6612 44.1833 31.601C43.9365 32.691 44.3184 33.5514 45.2732 34.1522C45.7238 34.4375 46.2216 34.6199 46.7065 34.8366C47.0348 34.9847 47.3674 35.1327 47.6528 35.3559C48.0626 35.6799 48.1656 36.1176 48.0518 36.6046C47.9531 37.0273 47.5948 37.1475 47.2279 37.1925C46.7537 37.2483 46.2109 37.2955 45.8461 36.9951C45.226 36.4823 44.8999 36.86 44.533 37.2741C44.5115 37.2998 44.4879 37.3256 44.4579 37.3449C44.239 37.4865 44.297 37.6066 44.4729 37.7461C45.1681 38.2911 45.962 38.5336 46.8374 38.5443C46.9726 38.5357 47.1078 38.5271 47.2451 38.5164C48.3007 38.437 49.0882 37.877 49.3435 37.0252C49.6418 36.0189 49.3178 34.9911 48.5132 34.3367Z" fill="#5D5C60"/>
<path d="M54.7076 32.4399C54.4459 32.4185 54.3364 32.5279 54.2442 32.7575C53.7464 34.0084 53.2336 35.2529 52.71 36.5403C52.6457 36.3987 52.5963 36.2999 52.5555 36.197C52.0792 35.0297 51.605 33.8604 51.1244 32.6931C51.0815 32.588 51.0836 32.4421 50.9013 32.4464C50.5 32.4528 50.0988 32.4485 49.6611 32.4485C49.7169 32.5901 49.7533 32.6824 49.7898 32.7747C50.4936 34.5062 51.1974 36.2399 51.9076 37.9693C51.9805 38.1495 51.9805 38.2975 51.9011 38.4756C51.59 39.188 51.2961 39.9068 50.9978 40.6256C50.6524 41.4538 50.3112 42.2841 49.9572 43.1402C50.3327 43.1402 50.6738 43.1231 51.0128 43.1467C51.2574 43.1639 51.3647 43.0737 51.457 42.8506C52.7208 39.7759 53.9953 36.7076 55.2655 33.6351C55.4243 33.2488 55.5766 32.8583 55.7418 32.4485C55.3642 32.4464 55.0359 32.4678 54.7076 32.4399Z" fill="#5D5C60"/>
<path d="M80.4446 34.3903C80.3673 33.4849 79.906 32.8154 79.0285 32.4979C78.1723 32.1868 77.3119 32.1632 76.4365 32.5901C76.4365 31.8048 76.4258 31.0496 76.443 30.2964C76.4473 30.0561 76.355 30.039 76.164 30.0797C75.5182 30.2214 75.1491 30.6784 75.1491 31.3714C75.147 33.3883 75.1448 35.4052 75.1513 37.4221C75.1534 37.744 75.0011 38.1752 75.2221 38.3598C75.4109 38.5185 75.8272 38.3941 76.1426 38.4198C76.3829 38.4392 76.443 38.3576 76.4408 38.1194C76.4301 36.817 76.4408 35.5146 76.4301 34.2101C76.4279 33.9934 76.5052 33.8861 76.6918 33.8003C77.0824 33.62 77.4879 33.56 77.9127 33.5857C78.8461 33.6415 79.1744 33.9762 79.2108 34.9139C79.2151 35.0147 79.213 35.1177 79.213 35.2207C79.213 36.1948 79.2173 37.1689 79.2087 38.1431C79.2065 38.3383 79.2387 38.437 79.464 38.4198C79.7236 38.4005 79.9854 38.407 80.245 38.4177C80.4102 38.4241 80.4939 38.3877 80.4896 38.1967C80.466 36.9286 80.5519 35.6563 80.4446 34.3903Z" fill="#5D5C60"/>
<path d="M72.51 32.4356C71.7912 32.1975 71.051 32.2511 70.3214 32.3327C69.461 32.4292 69.4653 32.4571 69.4675 33.339C69.4675 33.3733 69.4718 33.4076 69.4675 33.4398C69.4374 33.6715 69.5276 33.6973 69.74 33.6394C70.3772 33.4634 71.0317 33.4141 71.6904 33.4699C72.1195 33.5063 72.4971 33.6501 72.7074 34.1414C72.2225 34.1414 71.7912 34.1307 71.3621 34.1436C70.8085 34.1607 70.3086 34.341 69.8301 34.6242C68.665 35.313 68.7079 37.2934 69.7636 37.9972C70.8493 38.7202 72.9177 38.7052 73.9369 37.8942C74.0334 37.8169 74.0828 37.7375 74.0806 37.6088C74.0699 36.5553 74.087 35.5018 74.0527 34.4483C74.0248 33.4784 73.4283 32.7403 72.51 32.4356ZM72.8104 36.4995C72.8104 37.1861 72.8125 37.2011 72.1431 37.3191C71.7419 37.3899 71.3299 37.3921 70.9308 37.2698C70.4416 37.1196 70.2163 36.7634 70.2485 36.197C70.2785 35.6927 70.4824 35.4567 71.0081 35.3559C71.5573 35.2507 72.1152 35.3258 72.6688 35.3044C72.7997 35.3001 72.8125 35.3795 72.8104 35.4803C72.8082 35.7292 72.8104 35.9781 72.8104 36.2291C72.8104 36.3171 72.8104 36.4072 72.8104 36.4995Z" fill="#5D5C60"/>
<path d="M59.3379 32.3756C58.5269 32.1932 57.718 32.2983 56.9048 32.3863C56.555 32.4249 56.4477 32.5794 56.4907 32.9098C56.5143 33.0879 56.51 33.2746 56.4907 33.4527C56.4649 33.6951 56.5615 33.7016 56.7589 33.6458C57.4068 33.4634 58.0741 33.4141 58.7436 33.4699C59.1663 33.5042 59.5289 33.6587 59.752 34.1393C59.2693 34.1393 58.8401 34.1307 58.411 34.1414C57.8682 34.1565 57.3789 34.3367 56.9048 34.6006C55.6882 35.2829 55.7375 37.3384 56.8533 38.0315C57.9626 38.7202 59.9923 38.6838 61.0008 37.877C61.1081 37.7912 61.1209 37.7032 61.1209 37.5873C61.1188 36.5789 61.1317 35.5683 61.1166 34.5598C61.1081 33.4741 60.4 32.6137 59.3379 32.3756ZM59.4473 37.2612C58.9538 37.3749 58.4603 37.405 57.9711 37.2655C57.4691 37.1217 57.2802 36.787 57.3103 36.1562C57.3317 35.6842 57.542 35.4503 58.0613 35.3537C58.5998 35.2529 59.147 35.328 59.6898 35.3044C59.8507 35.2979 59.8357 35.4052 59.8357 35.5082C59.8357 35.7464 59.8357 35.9845 59.8357 36.2227C59.8357 36.3922 59.8121 36.5682 59.84 36.7312C59.9001 37.0595 59.7434 37.1925 59.4473 37.2612Z" fill="#5D5C60"/>
<path d="M8.56778 35.5103C8.40256 35.3215 8.39827 35.2078 8.57851 35.0211C9.30802 34.2766 10.0182 33.5128 10.7349 32.7553C10.8164 32.6695 10.8872 32.5751 10.9945 32.4485C10.4989 32.4485 10.059 32.4657 9.62129 32.4421C9.36596 32.4271 9.20718 32.5258 9.04411 32.7081C8.46264 33.3647 7.86615 34.0105 7.22675 34.7122C7.22675 34.5813 7.22675 34.5191 7.22675 34.4568C7.22675 33.0858 7.21817 31.7147 7.23319 30.3437C7.23534 30.0561 7.14736 30.0261 6.90062 30.0948C6.25907 30.2728 5.93293 30.702 5.93079 31.4251C5.92864 33.5664 5.93079 35.7078 5.93079 37.8491C5.93079 38.4156 5.93079 38.4156 6.49938 38.4156C7.22675 38.4156 7.22675 38.4156 7.22675 37.7011C7.22675 37.0981 7.22675 36.4952 7.22675 35.8236C7.90048 36.6368 8.52701 37.3814 9.14067 38.1345C9.30159 38.3319 9.46895 38.4392 9.74144 38.4198C10.147 38.3919 10.5568 38.4134 10.9752 38.4134C10.9966 38.3168 10.943 38.2847 10.9087 38.2439C10.132 37.332 9.35737 36.4137 8.56778 35.5103Z" fill="#5D5C60"/>
<path d="M24.4777 32.9806C23.746 33.6415 23.5701 34.4826 23.5894 35.1134C23.5937 37.332 24.6172 38.4713 26.3895 38.525C27.6897 38.5636 28.814 37.8513 29.1552 36.7141C29.417 35.8429 29.4234 34.9418 29.1509 34.0728C28.5759 32.2511 25.9453 31.6546 24.4777 32.9806ZM28.0266 36.1262C27.8592 36.9394 27.2563 37.3663 26.3573 37.3406C25.5741 37.3191 24.9862 36.8106 24.8682 36.0296C24.8296 35.7721 24.8296 35.5104 24.8103 35.2507C24.8575 34.6349 24.9519 34.0492 25.5484 33.6951C26.368 33.2081 27.9322 33.4012 28.0652 34.9074C28.1017 35.3215 28.1081 35.7271 28.0266 36.1262Z" fill="#5D5C60"/>
<path d="M13.0929 32.3327C11.9536 32.5837 11.0052 33.5514 10.943 34.7615C10.9044 35.5254 10.855 36.2871 11.1855 36.993C12.033 38.7953 14.8052 39.0786 16.0518 37.5165C16.5496 36.8921 16.6611 36.1755 16.6375 35.4117C16.6289 34.9954 16.6354 34.577 16.5152 34.1693C16.1204 32.8111 14.5927 32.0022 13.0929 32.3327ZM14.8888 36.9565C14.3653 37.3899 13.7624 37.4457 13.1337 37.2226C12.5308 37.008 12.2754 36.5446 12.1832 35.9373C12.1167 35.5018 12.1295 35.0769 12.2197 34.6542C12.3935 33.8346 13.0286 33.4162 13.9769 33.4677C14.7301 33.5085 15.3072 34.0749 15.3888 34.8624C15.4081 35.0426 15.4102 35.225 15.4188 35.3773C15.4016 35.9781 15.3737 36.5553 14.8888 36.9565Z" fill="#5D5C60"/>
<path d="M22.7397 34.3882C22.6582 33.4355 22.1518 32.7403 21.2292 32.4593C19.9676 32.0752 18.751 32.264 17.5988 32.8991C17.4851 32.9613 17.4421 33.0364 17.4421 33.1652C17.4464 34.8431 17.4464 36.5188 17.4421 38.1967C17.4421 38.3619 17.5001 38.4156 17.6589 38.4113C17.9979 38.4027 18.339 38.4048 18.678 38.4027L18.6995 38.4091L18.7081 38.3855C18.7167 38.2632 18.7295 38.1388 18.7295 38.0143C18.7317 36.7119 18.7381 35.4074 18.7231 34.105C18.7209 33.8453 18.8046 33.7338 19.0428 33.6436C19.5685 33.4462 20.0942 33.4248 20.6413 33.5213C21.109 33.6029 21.3472 33.8968 21.4373 34.3281C21.4824 34.547 21.4996 34.7765 21.5017 35.0018C21.5081 35.8064 21.5017 36.6111 21.506 37.4157C21.506 37.7311 21.3944 38.1688 21.5553 38.334C21.7613 38.5443 22.1969 38.3834 22.5338 38.4048C22.5445 38.4048 22.5574 38.4027 22.5681 38.4048C22.7333 38.4263 22.7848 38.349 22.7826 38.1903C22.7612 36.9265 22.847 35.6541 22.7397 34.3882Z" fill="#5D5C60"/>
<path d="M65.7555 32.4142C64.6162 32.161 63.5176 32.2168 62.462 32.7661C62.2646 32.8691 62.1981 32.9914 62.2002 33.2145C62.2109 34.6414 62.2023 36.0682 62.2088 37.4951C62.2109 37.7955 62.0736 38.2074 62.2689 38.3683C62.4534 38.5207 62.8503 38.4005 63.1529 38.4284C63.4146 38.452 63.4983 38.3748 63.4962 38.098C63.4811 36.7741 63.4897 35.4481 63.4897 34.1243C63.4897 33.6329 63.4919 33.6436 63.9682 33.5342C64.6312 33.3819 65.2685 33.5192 65.9508 33.7102C65.9508 33.3347 65.9401 32.9957 65.9551 32.6567C65.9615 32.4957 65.9014 32.4464 65.7555 32.4142Z" fill="#5D5C60"/>
<path d="M40.9197 32.7081C40.9219 32.4957 40.8618 32.4292 40.6537 32.4464C40.4177 32.4657 40.1773 32.4678 39.9413 32.4464C39.6903 32.4228 39.6173 32.5 39.6195 32.7618C39.6324 34.3131 39.6238 35.8665 39.6281 37.4178C39.6281 37.744 39.5186 38.1838 39.6838 38.3662C39.877 38.5786 40.3232 38.4027 40.658 38.437C40.864 38.4585 40.9262 38.3962 40.924 38.1795C40.9112 37.2741 40.9176 36.3665 40.9176 35.461C40.9154 34.5427 40.909 33.6243 40.9197 32.7081Z" fill="#5D5C60"/>
<path d="M68.1608 32.7553C68.1629 32.5301 68.12 32.4228 67.8668 32.4464C67.6415 32.4678 67.412 32.4678 67.1867 32.4464C66.9485 32.4249 66.8841 32.5065 66.8863 32.7446C66.897 34.3324 66.8884 35.918 66.8949 37.5058C66.897 37.8062 66.7597 38.2203 66.9549 38.3791C67.1416 38.5314 67.5386 38.4113 67.8411 38.437C68.0878 38.4585 68.1694 38.3898 68.1629 38.128C68.1436 37.2333 68.1565 36.3364 68.1565 35.4417C68.1565 34.5448 68.1479 33.6501 68.1608 32.7553Z" fill="#5D5C60"/>
<path d="M40.452 31.4251C40.9154 31.4251 40.9154 31.4251 40.9154 30.9702C40.9154 30.3329 40.9154 30.3329 40.2954 30.3329C40.1709 30.3329 40.0465 30.3458 39.9242 30.3308C39.6967 30.3029 39.6152 30.3715 39.6173 30.6183C39.6259 31.4229 39.6152 31.4251 40.452 31.4251Z" fill="#5D5C60"/>
<path d="M67.4592 30.3329C66.8906 30.3329 66.8906 30.3329 66.8906 30.8221C66.8906 31.4251 66.8906 31.4251 67.5171 31.4251C67.5858 31.4251 67.6544 31.4165 67.7209 31.4272C68.0621 31.483 68.1844 31.3693 68.1651 31.0024C68.1308 30.3351 68.1565 30.3329 67.4592 30.3329Z" fill="#5D5C60"/>
</g>
<defs>
<clipPath id="clip0_801_8861">
<rect width="80" height="43.1487" fill="white" transform="translate(0.5)"/>
</clipPath>
</defs>
</svg>
