<svg width="81" height="46" viewBox="0 0 81 46" fill="none" xmlns="http://www.w3.org/2000/svg">
<g clip-path="url(#clip0_801_8852)">
<path fill-rule="evenodd" clip-rule="evenodd" d="M42.0341 31.2636C42.0341 31.5422 42.0462 31.8167 42.0543 32.0589H41.4407L41.4043 31.7804H41.3922C41.2671 31.958 41.049 32.0993 40.7786 32.0993C40.2739 32.0993 40.068 31.7319 40.068 31.0254V29.4429H40.7826V30.9528C40.7826 31.2959 40.8472 31.5139 41.0491 31.5139C41.1702 31.5139 41.2428 31.4251 41.2751 31.3363C41.3034 31.2838 41.3195 31.2031 41.3195 31.1102V29.4429H42.0301V31.2596L42.0341 31.2636Z" fill="#767775"/>
<path fill-rule="evenodd" clip-rule="evenodd" d="M44.1698 30.2342C44.1698 29.9475 44.1536 29.6932 44.1496 29.4469H44.7592L44.7915 29.7457H44.8036C44.9449 29.5357 45.171 29.4025 45.4495 29.4025C45.9542 29.4025 46.152 29.7981 46.152 30.3795V32.0589H45.4415V30.4239C45.4415 30.1978 45.3849 29.9919 45.1831 29.9919C45.062 29.9919 44.9651 30.0727 44.9166 30.2261C44.8924 30.2786 44.8803 30.3674 44.8803 30.4683V32.063H44.1698V30.2342Z" fill="#767775"/>
<path fill-rule="evenodd" clip-rule="evenodd" d="M49.1112 28.7404V29.4469H49.632V29.9435H49.1112V31.1344C49.1112 31.4372 49.2404 31.5139 49.3817 31.5139L49.5674 31.4978V32.0428C49.4746 32.0711 49.3292 32.0912 49.1395 32.0912C48.9336 32.0912 48.756 32.0428 48.6308 31.9257C48.4855 31.7885 48.4047 31.5906 48.4047 31.1788V29.9435H48.0898V29.4469H48.4047V28.9059L49.1153 28.7404H49.1112Z" fill="#767775"/>
<path fill-rule="evenodd" clip-rule="evenodd" d="M53.528 31.2636C53.528 31.5421 53.5401 31.8167 53.5482 32.0589H52.9386L52.9022 31.7803H52.8901C52.765 31.958 52.547 32.0993 52.2765 32.0993C51.7718 32.0993 51.5659 31.7319 51.5659 31.0254V29.4428H52.2805V30.9527C52.2805 31.2959 52.3451 31.5139 52.5429 31.5139C52.664 31.5139 52.7367 31.4251 52.769 31.3363C52.7973 31.2838 52.8134 31.203 52.8134 31.1102V29.4428H53.5239V31.2595L53.528 31.2636Z" fill="#767775"/>
<path fill-rule="evenodd" clip-rule="evenodd" d="M56.366 30.5894H56.3781C56.4265 30.44 56.4629 30.331 56.5153 30.2261L56.8585 29.4469H57.6215L56.9837 30.545L57.6619 32.063H56.8706L56.4911 30.9891L56.37 31.2152V32.067H55.6595V28.365H56.37V30.5935L56.366 30.5894Z" fill="#767775"/>
<path fill-rule="evenodd" clip-rule="evenodd" d="M61.9897 31.4291C62.0906 31.4937 62.2885 31.5704 62.4661 31.5704C62.6437 31.5704 62.7527 31.4897 62.7527 31.3363C62.7527 31.2031 62.676 31.1183 62.4419 30.981C62.0099 30.7388 61.9049 30.4683 61.9049 30.2261C61.9049 29.7537 62.2481 29.4025 62.7769 29.4025C62.999 29.4025 63.1726 29.455 63.3139 29.5196L63.1887 30.0323C63.0838 29.9717 62.9627 29.9233 62.8214 29.9233C62.6437 29.9233 62.5549 30.0323 62.5549 30.1453C62.5549 30.2584 62.6155 30.327 62.8617 30.4723C63.2533 30.6904 63.3987 30.9649 63.3987 31.2636C63.3987 31.7965 63.0071 32.0872 62.462 32.0872C62.24 32.0872 61.9776 32.0266 61.8565 31.9378L61.9857 31.4251L61.9897 31.4291Z" fill="#767775"/>
<path fill-rule="evenodd" clip-rule="evenodd" d="M66.6203 30.5087C66.6203 30.1736 66.5355 29.9112 66.3215 29.9112C66.0874 29.9112 65.9945 30.2503 65.9905 30.5087H66.6203ZM65.9865 31.0012C65.9945 31.409 66.2368 31.5583 66.5476 31.5583C66.7495 31.5583 66.9271 31.5139 67.0523 31.4736L67.1492 31.9742C66.9635 32.0428 66.6889 32.0912 66.4184 32.0912C65.6958 32.0912 65.3002 31.6189 65.3002 30.8034C65.3002 29.9273 65.7604 29.4025 66.3619 29.4025C66.9312 29.4025 67.2622 29.8466 67.2622 30.6379C67.2622 30.8236 67.2582 30.9285 67.242 31.0012H65.9865Z" fill="#767775"/>
<path fill-rule="evenodd" clip-rule="evenodd" d="M69.2889 30.2342C69.2889 29.9475 69.2727 29.6932 69.2687 29.4469H69.8864L69.9186 29.7497H69.9308C70.068 29.5519 70.2901 29.4025 70.5646 29.4025C70.8633 29.4025 71.0531 29.5357 71.1459 29.7537H71.1581C71.2227 29.6528 71.3195 29.5559 71.4245 29.4913C71.5335 29.4308 71.6627 29.3985 71.8 29.3985C72.2723 29.3985 72.4822 29.7658 72.4822 30.3997V32.0589H71.7798V30.5208C71.7798 30.222 71.7475 29.9798 71.5295 29.9798C71.4043 29.9798 71.3115 30.0646 71.263 30.222L71.2428 30.4037V32.063H70.5363V30.4199C70.5363 30.2342 70.5162 29.9798 70.2941 29.9798C70.1851 29.9798 70.0761 30.0606 70.0277 30.214L69.9994 30.4118V32.0589H69.2969V30.2301L69.2889 30.2342Z" fill="#767775"/>
<path fill-rule="evenodd" clip-rule="evenodd" d="M76.5396 31.2636C76.5396 31.5422 76.5517 31.8167 76.5597 32.0589H75.9461L75.9098 31.7804H75.8977C75.7725 31.958 75.5545 32.0993 75.284 32.0993C74.7794 32.0993 74.5735 31.7319 74.5735 31.0254V29.4429H75.288V30.9528C75.288 31.2959 75.3526 31.5139 75.5545 31.5139C75.6756 31.5139 75.7483 31.4251 75.7806 31.3363C75.8088 31.2838 75.825 31.2031 75.825 31.1102V29.4429H76.5355V31.2596L76.5396 31.2636Z" fill="#767775"/>
<path fill-rule="evenodd" clip-rule="evenodd" d="M79.7652 30.7872C79.527 30.7913 79.2 30.868 79.2 31.2313C79.2 31.4937 79.3454 31.5906 79.4544 31.5906C79.5674 31.5906 79.6966 31.522 79.745 31.3646L79.7612 31.2434V30.7872H79.7652ZM79.8621 32.0589L79.8258 31.8006H79.8177C79.6724 32.0024 79.4665 32.0993 79.2323 32.0993C78.8327 32.0993 78.5339 31.7683 78.5339 31.3C78.5339 30.6177 79.1476 30.331 79.7491 30.327V30.2665C79.7491 30.0646 79.6239 29.9152 79.3736 29.9152C79.1637 29.9152 78.9901 29.9677 78.8327 30.0646L78.6994 29.5963C78.8448 29.5115 79.1556 29.3985 79.523 29.3985C80.3304 29.3985 80.4596 29.9556 80.4596 30.4845V31.4574C80.4596 31.6673 80.4717 31.8813 80.504 32.0549H79.8662L79.8621 32.0589Z" fill="#767775"/>
<path fill-rule="evenodd" clip-rule="evenodd" d="M40.2497 20.2301H41.6788V23.4962H41.699C41.8201 23.1934 41.9372 22.8704 42.0583 22.5595L43.0394 20.2301H44.6138L42.9667 23.3872L44.6381 27.4929H43.0757L42.0059 24.4853L41.6788 25.0787V27.4929H40.2497V20.2301Z" fill="#242222"/>
<path fill-rule="evenodd" clip-rule="evenodd" d="M48.3765 24.3036H46.693V26.2656H48.5945V27.4929H45.2638V20.2301H48.4612V21.4614H46.693V23.1288H48.3765V24.3036Z" fill="#242222"/>
<path fill-rule="evenodd" clip-rule="evenodd" d="M50.9523 20.2301V24.9496C50.9523 26.0154 51.2793 26.3383 51.6507 26.3383C52.0665 26.3383 52.3612 26.0477 52.3612 24.9496V20.2301H53.7904V24.7033C53.7904 26.5685 53.0798 27.5777 51.6628 27.5777C50.1246 27.5777 49.5231 26.5321 49.5231 24.7114V20.2301H50.9523Z" fill="#242222"/>
<path fill-rule="evenodd" clip-rule="evenodd" d="M57.3066 24.7356L57.0684 23.2176C56.9917 22.7776 56.8948 22.0509 56.8262 21.5704H56.7939C56.7172 22.0549 56.6082 22.8099 56.5315 23.2297L56.257 24.7356H57.3066ZM56.1157 25.8337L55.7887 27.4929H54.3999L55.9946 20.2301H57.7103L59.1435 27.4929H57.7547L57.4398 25.8337H56.1157Z" fill="#242222"/>
<path fill-rule="evenodd" clip-rule="evenodd" d="M59.947 27.493V20.2301H61.2591L62.3935 23.0763C62.6115 23.6375 62.9749 24.5741 63.1808 25.1999H63.201C63.1566 24.4328 63.0597 23.1732 63.0597 21.8369V20.2301H64.3152V27.493H63.0032L61.8768 24.7356C61.6386 24.1219 61.2995 23.2055 61.134 22.5475H61.1138C61.1461 23.2782 61.1985 24.4005 61.1985 25.8539V27.493H59.943H59.947Z" fill="#242222"/>
<path fill-rule="evenodd" clip-rule="evenodd" d="M69.6684 27.2992C69.3535 27.4283 68.6752 27.5575 68.1383 27.5575C67.2985 27.5575 66.6647 27.3193 66.1722 26.8349C65.5383 26.2333 65.1992 25.1554 65.2235 23.9039C65.2558 21.2636 66.7858 20.1655 68.3482 20.1655C68.9053 20.1655 69.3212 20.2745 69.5472 20.3795L69.2969 21.5987C69.087 21.4897 68.8165 21.4372 68.4572 21.4372C67.4843 21.4372 66.7091 22.0953 66.7091 23.9887C66.7091 25.7327 67.3995 26.3585 68.0656 26.3585C68.1948 26.3585 68.2957 26.3464 68.3482 26.3262V24.57H67.6901V23.4154H69.6684V27.2992Z" fill="#242222"/>
<path fill-rule="evenodd" clip-rule="evenodd" d="M73.0959 24.7356L72.8537 23.2176C72.7769 22.7776 72.6801 22.0509 72.6155 21.5704H72.5832C72.5065 22.0549 72.3975 22.8099 72.3207 23.2297L72.0462 24.7356H73.0959ZM71.9049 25.8337L71.5779 27.4929H70.1932L71.7878 20.2301H73.5036L74.9368 27.4929H73.548L73.2291 25.8337H71.9049Z" fill="#242222"/>
<path fill-rule="evenodd" clip-rule="evenodd" d="M75.7402 27.4929V20.2301H77.0482L78.1827 23.0763C78.4007 23.6375 78.76 24.5741 78.9699 25.1998H78.9901C78.9457 24.4328 78.8488 23.1732 78.8488 21.8369V20.2301H80.1044V27.4929H78.7923L77.67 24.7356C77.4277 24.1219 77.0926 23.2055 76.9271 22.5474H76.9069C76.9392 23.2782 76.9917 24.4005 76.9917 25.8539V27.4929H75.7362H75.7402Z" fill="#242222"/>
<path d="M41.9736 10.9931H40.3103V19.4469H41.9736V10.9931Z" fill="#242222"/>
<path fill-rule="evenodd" clip-rule="evenodd" d="M43.4633 19.4429V10.9891H44.9893L46.3094 14.2996C46.5638 14.9536 46.9836 16.0436 47.2259 16.7703H47.2501C47.1976 15.8821 47.0846 14.4126 47.0846 12.8583V10.9891H48.546V19.4429H47.02L45.7119 16.2333C45.4334 15.5188 45.0377 14.453 44.848 13.6859H44.8238C44.8601 14.5377 44.9247 15.8417 44.9247 17.5373V19.4429H43.4633Z" fill="#242222"/>
<path fill-rule="evenodd" clip-rule="evenodd" d="M50.0196 10.9931H51.6869V14.7921H51.7111C51.8524 14.4409 51.9897 14.0654 52.131 13.7021L53.2735 10.9931H55.1023L53.1847 14.6669L55.1266 19.4469H53.3098L52.0664 15.9467L51.6869 16.6371V19.4469H50.0196V10.9931Z" fill="#242222"/>
<path fill-rule="evenodd" clip-rule="evenodd" d="M55.8532 10.9931H57.5165V18.0541H59.7168V19.4429H55.8532V10.9931Z" fill="#242222"/>
<path fill-rule="evenodd" clip-rule="evenodd" d="M62.0422 10.9931V16.4837C62.0422 17.7271 62.4217 18.1025 62.8577 18.1025C63.3421 18.1025 63.6813 17.7634 63.6813 16.4837V10.9931H65.3486V16.197C65.3486 18.369 64.521 19.5438 62.8698 19.5438C61.0773 19.5438 60.3789 18.3286 60.3789 16.2091V10.9931H62.0422Z" fill="#242222"/>
<path fill-rule="evenodd" clip-rule="evenodd" d="M66.592 17.7634C66.9352 17.9532 67.5206 18.0904 68.001 18.0904C68.7882 18.0904 69.1718 17.6908 69.1718 17.1377C69.1718 16.524 68.7923 16.2212 68.0656 15.757C66.8948 15.0545 66.4507 14.1623 66.4507 13.3993C66.4507 12.0468 67.3672 10.9164 69.1597 10.9164C69.7168 10.9164 70.2537 11.0658 70.5081 11.2192L70.2416 12.6363C69.9994 12.4869 69.632 12.3496 69.1476 12.3496C68.437 12.3496 68.0939 12.7776 68.0939 13.2257C68.0939 13.7263 68.3482 13.9887 69.2767 14.5418C70.4071 15.22 70.827 16.0719 70.827 16.96C70.827 18.5022 69.6724 19.5196 67.9929 19.5196C67.3066 19.5196 66.6324 19.346 66.3539 19.1805L66.5961 17.7634H66.592Z" fill="#242222"/>
<path d="M73.4552 10.9931H71.7878V19.4469H73.4552V10.9931Z" fill="#242222"/>
<path fill-rule="evenodd" clip-rule="evenodd" d="M23.4713 8.21962C21.6143 3.00767 19.8339 2.32539 19.9146 0C19.9146 0 14.844 3.11264 14.8319 8.34073C14.8561 9.26524 15.0499 10.331 15.5505 11.4857C15.9057 12.0791 17.8314 15.1514 18.7923 13.7142C19.3535 12.5797 19.7572 10.2059 18.6631 5.29673C18.6631 5.29673 22.1956 10.9851 19.3696 14.5741C17.4883 16.956 14.9893 11.3605 14.9893 11.3605C14.9207 11.4816 15.1508 12.3496 15.5262 13.3105L15.4859 13.262C15.4859 13.262 15.6998 13.8353 16.0834 14.5539C16.2166 14.8123 16.3579 15.0585 16.4992 15.2765C17.1936 16.3827 18.1948 17.5131 19.3696 17.4122C21.6223 17.2224 25.3405 13.4477 23.4754 8.21962H23.4713Z" fill="#B1B2B2"/>
<path fill-rule="evenodd" clip-rule="evenodd" d="M23.4713 36.9641C21.6143 42.176 19.8339 42.8583 19.9146 45.1837C19.9146 45.1837 14.844 42.0711 14.8319 36.843C14.8561 35.9184 15.0499 34.8526 15.5505 33.7021C15.9057 33.1086 17.8314 30.0363 18.7923 31.4736C19.3535 32.608 19.7572 34.9818 18.6631 39.891C18.6631 39.891 22.1956 34.2027 19.3696 30.6136C17.4883 28.2317 14.9893 33.8272 14.9893 33.8272C14.9207 33.7061 15.1508 32.8381 15.5262 31.8773L15.4859 31.9257C15.4859 31.9257 15.6998 31.3524 16.0834 30.6338C16.2166 30.3755 16.3579 30.1292 16.4992 29.9112C17.1936 28.805 18.1948 27.6746 19.3696 27.7755C21.6223 27.9653 25.3405 31.74 23.4754 36.9681L23.4713 36.9641Z" fill="#056F3F"/>
<path fill-rule="evenodd" clip-rule="evenodd" d="M32.4622 18.7283C35.6192 14.0856 34.291 12.3375 38.0374 10.6823C38.0374 10.6823 31.4771 8.59912 27.1896 11.7239C26.4468 12.2971 25.6878 13.0925 25.0459 14.1946C24.7714 14.8405 23.4109 18.26 25.163 18.1833C26.4307 17.9612 28.6148 16.8712 31.9777 13.0359C31.9777 13.0359 29.4343 19.3379 24.7997 19.1764C21.7234 19.0593 24.8077 13.6617 24.8077 13.6617C24.6664 13.6778 24.0972 14.3843 23.532 15.2685L23.5481 15.2079C23.5481 15.2079 23.209 15.7287 22.8457 16.4715C22.7125 16.738 22.5954 16.9964 22.5025 17.2426C22.01 18.474 21.687 19.9758 22.4702 20.8761C23.9761 22.604 29.293 23.3912 32.4622 18.7323V18.7283Z" fill="#DC2835"/>
<path fill-rule="evenodd" clip-rule="evenodd" d="M10.2618 32.3537C4.67037 32.8704 3.78623 30.8599 0.524222 33.3387C0.524222 33.3387 1.87666 26.5886 6.6849 24.348C7.54481 23.9725 8.61062 23.698 9.88635 23.6657C10.5848 23.7424 14.2344 24.2027 13.322 25.6964C12.5186 26.6976 10.5081 28.0824 5.51817 29.1683C5.51817 29.1683 12.2642 29.9919 14.3635 25.8579C15.7564 23.1086 9.53512 23.1934 9.53512 23.1934C9.61586 23.0763 10.5121 22.9189 11.5618 22.8583L11.5012 22.8421C11.5012 22.8421 12.1189 22.7977 12.9465 22.8421C13.2453 22.8543 13.5279 22.8785 13.7903 22.9148C15.1064 23.0803 16.5759 23.5204 16.9836 24.6467C17.7669 26.8026 15.8855 31.8369 10.2739 32.3537H10.2618Z" fill="#672F8A"/>
<path fill-rule="evenodd" clip-rule="evenodd" d="M28.8286 32.3819C34.4201 32.8987 35.3042 30.8882 38.5702 33.367C38.5702 33.367 37.2178 26.6169 32.4096 24.3763C31.5497 24.0008 30.4838 23.7263 29.2081 23.694C28.5097 23.7667 24.8601 24.2309 25.7725 25.7247C26.5759 26.7259 28.5864 28.1106 33.5763 29.1966C33.5763 29.1966 26.8302 30.0202 24.7309 25.8862C23.3381 23.1369 29.5593 23.2216 29.5593 23.2216C29.4786 23.1046 28.5824 22.9471 27.5327 22.8866L27.5933 22.8704C27.5933 22.8704 26.9756 22.826 26.148 22.8704C25.8492 22.8825 25.5666 22.9067 25.3042 22.9431C23.9881 23.1086 22.5186 23.5486 22.1108 24.675C21.3276 26.8308 23.2089 31.8652 28.8205 32.3819H28.8286Z" fill="#F8B83C"/>
<path fill-rule="evenodd" clip-rule="evenodd" d="M6.70105 18.7485C3.54804 14.1058 4.24647 12.281 0.5 10.6258C0.5 10.6258 7.68611 8.6193 11.9776 11.744C12.7204 12.3173 13.4794 13.1126 14.1213 14.2148C14.3958 14.8607 15.7564 18.2802 14.0042 18.2035C12.7366 17.9814 10.5525 16.8914 7.18954 13.0561C7.18954 13.0561 9.73294 19.3581 14.3676 19.1966C17.4439 19.0795 14.3595 13.6819 14.3595 13.6819C14.5008 13.694 15.07 14.4045 15.6352 15.2887L15.6191 15.2281C15.6191 15.2281 15.9582 15.7489 16.3216 16.4917C16.4548 16.7582 16.5719 17.0206 16.6647 17.2628C17.1572 18.4941 17.4802 19.996 16.697 20.8962C15.1912 22.6241 9.87424 23.4114 6.70509 18.7525L6.70105 18.7485Z" fill="#37A9E1"/>
</g>
<defs>
<clipPath id="clip0_801_8852">
<rect width="80.004" height="45.1837" fill="white" transform="translate(0.5)"/>
</clipPath>
</defs>
</svg>
