<svg width="81" height="80" viewBox="0 0 81 80" fill="none" xmlns="http://www.w3.org/2000/svg">
<g clip-path="url(#clip0_801_8872)">
<path d="M41.3712 53.0233C41.3712 53.0233 42.43 54.0077 42.2342 54.5626C41.785 55.8391 39.774 56.4323 38.4679 56.0793C36.3831 55.5158 34.4767 53.1206 34.4954 50.9611C34.5228 47.7918 37.7639 45.2265 40.4541 43.5514C43.2235 41.8269 46.7419 41.3584 50.0033 41.4122C53.5543 41.4714 57.3438 42.1432 60.3167 44.0859C61.9713 45.1673 63.3373 46.8779 63.9836 48.7456C64.3501 49.8044 63.9836 52.1069 63.9836 52.1069C63.9836 52.1069 66.9011 48.079 67.9561 45.8426C69.2133 43.1769 71.0594 40.365 70.7062 37.4391C70.5445 36.0994 69.6586 34.7985 68.567 34.0011C65.0659 31.4546 60.2894 31.0128 55.9624 30.8692C51.4895 30.721 46.9409 31.6742 42.7466 33.2373C39.8893 34.3 37.0919 35.8022 34.8779 37.897C32.3845 40.2561 29.9948 43.1266 29.1485 46.4531C28.5998 48.609 28.717 51.1343 29.7597 53.0996C30.7013 54.874 32.5562 56.1705 34.4194 56.9195C36.2443 57.653 38.4302 57.9821 40.3018 57.3777C41.5399 56.9784 43.2402 56.1572 43.2811 54.8563C43.3413 52.9412 41.3715 53.0227 41.3715 53.0227L41.3712 53.0233Z" fill="#18D1FF"/>
<path d="M40.3342 54.1504C40.3342 54.1504 40.0579 53.2987 40.2939 52.9931C40.6771 52.4981 41.5401 52.3638 42.1294 52.5834C42.9802 52.9055 43.7418 53.8715 43.7434 54.7796C43.7453 55.946 42.7207 57.0779 41.6809 57.6063C39.4106 58.7602 36.4506 58.4317 34.0415 57.6063C31.9983 56.9066 29.9969 55.5074 28.9233 53.6339C27.3647 50.916 27.0008 47.3673 27.7009 44.3139C28.4158 41.1954 30.7382 38.5832 32.9724 36.2923C35.374 33.8295 38.2803 31.7422 41.4522 30.41C45.0856 28.8845 49.1341 28.4769 53.0643 28.1944C56.4456 27.9516 59.8944 28.0218 63.2251 28.6527C65.3141 29.0488 67.4275 29.6374 69.2598 30.7152C69.9805 31.1393 71.1221 32.3962 71.1221 32.3962C71.1221 32.3962 70.621 25.9654 69.6421 22.9233C68.7942 20.2891 67.8941 17.4305 65.8989 15.5135C64.4862 14.1559 62.4671 13.4841 60.5514 13.0742C56.9125 12.2962 53.0566 12.4833 49.3981 13.1451C45.1242 13.9179 40.9943 15.5828 37.1651 17.6331C33.581 19.5523 30.2053 21.9691 27.3196 24.8335C24.956 27.1801 22.7269 29.8171 21.3609 32.8551C19.9846 35.9159 19.2758 39.3535 19.2984 42.7096C19.3164 45.3969 19.8722 48.1653 21.0553 50.5782C22.1621 52.8356 23.9358 54.7764 25.8683 56.3843C27.5499 57.7831 29.5284 58.8748 31.5977 59.5832C33.5472 60.2505 35.652 60.6266 37.7097 60.5094C40.1168 60.3725 42.8562 60.1841 44.6918 58.6214C45.7641 57.7081 46.5392 56.174 46.43 54.77C46.3534 53.7862 45.6485 52.8121 44.8096 52.2923C43.8935 51.7243 42.6392 51.3746 41.5978 51.6541C40.6317 51.913 39.8215 52.4311 39.6995 53.2384C39.6415 53.6216 40.3383 54.1507 40.3383 54.1507L40.3342 54.1504Z" fill="#0166FE"/>
<path d="M40.6565 54.8331C40.6565 54.8331 39.1752 54.5336 38.7894 53.9797C38.2355 53.1789 38.2741 52.0495 38.8177 51.2426C39.7129 49.9139 41.6299 49.4048 43.2307 49.3426C45.9373 49.2315 49.2445 49.8192 50.9319 51.9381C52.3401 53.707 52.6247 56.6709 51.6023 58.6877C50.5764 60.7116 47.9139 61.4977 45.7402 62.1488C42.3377 63.168 38.6055 63.2211 35.0968 62.6679C31.4721 62.0963 27.9318 60.6865 24.7998 58.7714C21.349 56.6641 18.1845 53.9041 15.8009 50.6378C13.244 47.1342 11.335 43.0268 10.436 38.7874C9.62286 34.9498 9.73621 30.8656 10.5229 27.0197C11.4222 22.661 13.1557 18.5171 15.6279 14.8164C17.514 12.0051 20.0506 9.5996 22.8097 7.63462C25.2905 5.86994 28.1456 4.62693 31.0299 3.65442C33.372 2.8645 35.8297 2.31384 38.298 2.18342C41.3646 2.02145 44.4721 2.38308 47.4698 3.0487C49.9816 3.60644 52.4612 4.44145 54.7379 5.6442C57.4203 7.06335 62.0929 11.0091 62.0929 11.0091C62.0929 11.0091 52.6183 10.1036 47.9883 10.9221C42.5332 11.8872 37.1474 13.8422 32.4137 16.7195C28.8888 18.8619 25.78 21.7753 23.2418 25.0261C21.2089 27.6296 19.5914 30.6241 18.5725 33.7658C17.5362 36.9538 16.9888 40.3737 17.1878 43.7163C17.3231 45.9788 17.9156 48.2593 18.9184 50.292C19.9186 52.3207 21.3731 54.1636 23.0718 55.6568C25.2789 57.5915 27.8335 59.089 30.5997 60.0698C32.8275 60.8543 35.2465 61.1377 37.6085 61.108C39.6283 61.0823 41.7806 60.9895 43.5788 60.0698C45.0859 59.2989 46.6979 58.1377 47.2128 56.5221C47.6321 55.2099 47.378 53.4974 46.4767 52.455C45.5873 51.4264 43.9694 51.1572 42.6099 51.1572C41.6116 51.1569 40.4935 51.4203 39.7712 52.1091C39.3681 52.4936 39.1604 52.9873 39.3075 53.5244C39.475 54.1337 40.6581 54.835 40.6581 54.835L40.659 54.8341L40.6565 54.8331ZM13.5319 66.9669L10.1378 70.2264L8.86675 71.5123C10.0728 72.8879 11.284 74.2587 12.5001 75.6245L13.7109 77.1196V77.1943L12.8885 77.1493L12.0512 77.1943C11.8917 76.9651 11.7221 76.7358 11.5424 76.5065C11.3707 76.2673 11.1963 76.0419 11.0191 75.8303L7.75963 72.0175C7.70983 71.9778 7.64499 71.9529 7.56513 71.9428C7.5252 71.9522 7.50524 71.9622 7.50524 71.9727V77.1908L6.84734 77.1457L6.18945 77.1908V66.9634L6.84734 67.0084L7.50524 66.9634V71.5834C7.51511 71.6231 7.55998 71.6331 7.63984 71.6134C7.72958 71.5934 7.81545 71.5535 7.89746 71.4936C7.97689 71.4238 8.14134 71.2692 8.3908 71.0299C8.48053 70.9401 8.57521 70.8504 8.67482 70.7607L12.3539 66.964L12.9519 67.0091L13.5319 66.9669Z" fill="#0100CC"/>
<path d="M24.3282 71.9573C24.3282 71.2795 24.2633 70.6814 24.1337 70.163C24.004 69.6349 23.7548 69.1365 23.3859 68.6678C23.0171 68.1994 22.5586 67.8406 22.0103 67.5913C21.472 67.3423 20.8939 67.2178 20.2758 67.2178C18.9699 67.2178 17.9384 67.6763 17.1812 68.5934C16.4337 69.5005 16.0599 70.7167 16.0599 72.242C16.0599 73.7072 16.4587 74.8585 17.2562 75.696C18.0038 76.4735 18.9655 76.8623 20.1416 76.8623C21.5471 76.8623 22.6385 76.2543 23.4159 75.0381C24.0239 74.0913 24.3278 73.0646 24.3278 71.9579L24.3282 71.9573ZM20.0968 77.3544C18.4322 77.3544 17.0965 76.876 16.0899 75.9191C15.0931 74.9522 14.5947 73.6663 14.5947 72.0613C14.5947 70.4566 15.128 69.1556 16.1945 68.1584C17.2211 67.2016 18.532 66.7231 20.1271 66.7231C21.682 66.7231 22.9778 67.1267 24.0145 67.934C25.2006 68.8609 25.7937 70.1619 25.7937 71.8369C25.7937 73.4916 25.2654 74.8273 24.2087 75.8438C23.152 76.8528 21.7813 77.3573 20.0965 77.3573L20.0968 77.3544Z" fill="#0100CC"/>
<path d="M37.4399 66.9669H37.7539C37.9632 68.9505 38.0928 70.1667 38.1426 70.6154C38.3021 72.0806 38.4316 73.2219 38.5313 74.0395C38.6386 74.8467 38.7832 75.8983 38.965 77.1943L38.2624 77.1492L37.5597 77.1943C37.47 76.1975 37.3841 75.2454 37.3021 74.338C37.2323 73.4309 37.1464 72.5338 37.0445 71.6465C36.9547 70.7594 36.8689 70.0367 36.7869 69.4783C36.1789 70.5747 35.6505 71.5317 35.2019 72.3492C34.6836 73.306 34.25 74.1334 33.9009 74.8313C33.5222 75.5988 33.1783 76.3314 32.8691 77.0291H32.7081L31.8857 75.3395C31.5267 74.5919 31.2077 73.9479 30.9286 73.4073C30.6495 72.859 30.3056 72.1962 29.8969 71.4188C29.548 70.7709 29.2041 70.123 28.8651 69.4751C28.6934 70.9006 28.5289 72.3409 28.3718 73.796C28.2123 75.2515 28.1325 76.3829 28.1325 77.1901L27.6092 77.145L27.0708 77.1901C27.2801 75.8943 27.5543 74.0552 27.8932 71.6729C28.2324 69.2805 28.4368 67.7105 28.5064 66.963H28.8928C29.411 67.9797 29.8347 68.8121 30.1638 69.46C30.5625 70.2275 31.0348 71.1096 31.5807 72.1064C32.1788 73.1926 32.6921 74.0898 33.1206 74.7978C34.556 72.1862 35.9914 69.5746 37.4267 66.963L37.4399 66.9669ZM41.1348 77.1998V66.9723L41.7927 67.0174L42.4506 66.9723V77.1998L41.7927 77.1547L41.1348 77.1998ZM54.0363 66.9669V77.1943H53.5877L52.8104 76.2823L46.3512 69.1354H46.2018V77.1946L45.7832 77.1495L45.3646 77.1946V66.9672H45.9442L53.0464 74.6674H53.1958V66.9672L53.6145 67.0123L54.0363 66.9669ZM56.8379 77.1998V66.9723H62.1458L62.1007 67.4209L62.1458 67.8695C61.8467 67.8094 61.6025 67.7695 61.4132 67.7497C61.2238 67.7197 61.0195 67.7046 60.8001 67.7046L59.3049 67.6747H58.1537V71.4246H60.4713C60.6606 71.4246 60.9099 71.4146 61.219 71.3947C61.538 71.3646 61.7312 71.3496 61.7986 71.3496L61.7536 71.7383L61.7986 72.1569C61.6192 72.1569 61.3699 72.1469 61.0509 72.127C60.7319 72.0969 60.5387 72.0819 60.4713 72.0819H58.1537V77.1956L57.4958 77.1505L56.8379 77.1998Z" fill="#0100CC"/>
<path d="M73.3418 71.9573C73.3418 71.2795 73.277 70.6814 73.1473 70.163C73.0177 69.6349 72.7684 69.1365 72.3996 68.6678C72.0308 68.1994 71.5722 67.8406 71.0239 67.5913C70.4857 67.3423 69.9076 67.2178 69.2895 67.2178C67.9836 67.2178 66.9521 67.6763 66.1949 68.5934C65.4474 69.5005 65.0736 70.7167 65.0736 72.242C65.0736 73.7072 65.4724 74.8585 66.2699 75.696C67.0174 76.4735 67.9792 76.8623 69.1552 76.8623C70.5608 76.8623 71.6522 76.2543 72.4296 75.0381C73.0375 74.0913 73.3415 73.0646 73.3415 71.9579L73.3418 71.9573ZM69.1105 77.3544C67.4458 77.3544 66.1102 76.876 65.1035 75.9191C64.1068 74.9522 63.6084 73.6663 63.6084 72.0613C63.6084 70.4566 64.1417 69.1556 65.2082 68.1584C66.2348 67.2016 67.5457 66.7231 69.1407 66.7231C70.6957 66.7231 71.9915 67.1267 73.0282 67.934C74.2143 68.8609 74.8074 70.1619 74.8074 71.8369C74.8074 73.4916 74.279 74.8273 73.2224 75.8438C72.1657 76.8528 70.795 77.3573 69.1101 77.3573L69.1105 77.3544Z" fill="#0100CC"/>
</g>
<defs>
<clipPath id="clip0_801_8872">
<rect width="80" height="79.517" fill="white" transform="translate(0.5)"/>
</clipPath>
</defs>
</svg>
