<svg width="81" height="32" viewBox="0 0 81 32" fill="none" xmlns="http://www.w3.org/2000/svg">
<g clip-path="url(#clip0_801_8888)">
<path fill-rule="evenodd" clip-rule="evenodd" d="M36.0675 16.43C34.6388 18.8303 33.4672 20.9162 32.0385 23.3164C30.6384 25.7166 29.3526 27.8311 27.9525 30.2313C27.581 30.8599 27.2095 31.0885 26.4666 31.0885C23.6378 31.0885 21.2376 31.0885 18.4087 31.0885C15.6085 31.0885 13.1226 31.0599 10.2937 31.0599C9.57938 31.0599 9.17935 30.8313 8.80789 30.2027C7.40776 27.7739 6.20765 25.7452 4.77895 23.3164C3.37883 20.9162 2.17872 18.7731 0.778596 16.3729C0.407135 15.7157 0.407135 15.2871 0.778596 14.6585C2.17872 12.2582 3.37883 10.1723 4.77895 7.77212C6.17908 5.37191 7.46491 3.25743 8.86503 0.857219C9.23649 0.228592 9.63653 0 10.3795 0C13.1797 0 15.5799 0 18.4087 0C21.2376 0 23.6949 0.028574 26.5238 0.028574C27.2667 0.028574 27.6381 0.257166 28.0096 0.885793C29.4383 3.31458 30.6384 5.34333 32.0385 7.77212C33.4672 10.1723 34.6673 12.3154 36.0675 14.7156C36.4389 15.3728 36.4389 15.8014 36.0675 16.43Z" fill="white"/>
<path fill-rule="evenodd" clip-rule="evenodd" d="M16.9515 10.7724H16.3228V15.3442H17.1515C18.2944 15.3442 19.1517 15.1442 19.7803 14.7442C20.3803 14.3441 20.6661 13.7727 20.6661 13.0297C20.6661 12.2582 20.3803 11.6868 19.7803 11.3153C19.1802 10.9724 18.2373 10.7724 16.9515 10.7724ZM36.0675 16.43C35.5531 17.3158 35.0674 18.1445 34.5816 18.9445C34.5245 18.0302 34.2102 17.2301 33.6101 16.5443C32.9529 15.8014 31.6671 14.9728 29.7812 14.087L27.4953 13.0297C26.7523 12.6868 26.7238 12.1439 26.7523 11.7439C26.8095 11.2296 27.6381 10.7152 28.3239 10.7438C30.0669 10.8295 30.6384 11.3153 32.0957 12.0868L33.3244 9.97232C34.2387 11.5439 35.0959 13.0583 36.0675 14.7156C36.4389 15.3728 36.4389 15.8014 36.0675 16.43ZM31.9242 23.5164C30.5813 25.8309 29.324 27.8882 27.9525 30.2313C27.581 30.8599 27.2095 31.0885 26.4666 31.0885C23.6378 31.0885 21.2376 31.0885 18.4087 31.0885C15.6085 31.0885 13.1226 31.0599 10.2937 31.0599C9.57938 31.0599 9.17935 30.8313 8.80789 30.2027C7.60778 28.1454 6.55054 26.3452 5.40758 24.3736H11.0652L12.0367 22.602V24.3736H16.2085V18.9445C16.3228 18.9445 16.4371 18.9731 16.5514 18.9731C16.6657 18.9731 17.2086 18.9731 17.4658 18.9731C18.4945 18.9731 19.8089 18.9731 20.6375 18.7731C22.4091 18.3731 23.7235 17.2015 24.4379 15.63C26.2094 17.6016 29.0668 18.2016 29.7526 18.6017C30.4384 19.0303 30.3812 19.6303 30.2098 19.8875C30.0098 20.2018 29.3526 20.3447 29.0954 20.3447C27.5524 20.4875 25.4379 19.4875 24.5807 18.6302C23.6949 19.9446 22.6948 21.3733 22.352 22.0877C23.2377 22.9163 24.5236 23.8307 27.5524 24.1736C29.2954 24.3736 30.7527 24.145 31.9242 23.5164ZM2.23587 18.916C1.75011 18.0873 1.26435 17.2301 0.778596 16.3729C0.407135 15.7157 0.407135 15.2871 0.778596 14.6585C2.17872 12.2582 3.37883 10.1723 4.77895 7.77212C6.17908 5.37191 7.46491 3.25743 8.86503 0.857219C9.23649 0.228592 9.63653 0 10.3795 0C13.1797 0 15.5799 0 18.4087 0C21.2376 0 23.6949 0.028574 26.5238 0.028574C27.2667 0.028574 27.6381 0.257166 28.0096 0.885793C29.4383 3.31458 30.6384 5.34333 32.0385 7.77212L32.0957 7.82927C31.4099 7.62925 30.7527 7.42924 30.3812 7.37209C29.5812 7.22922 28.8382 7.17207 28.1525 7.17207C27.5524 7.17207 26.9809 7.20064 26.438 7.28637L24.6664 10.5152C24.3236 9.7723 23.7235 9.02938 22.752 8.31503C20.7232 6.9149 19.0088 7.11492 16.0657 7.25779L12.0367 14.5727V20.5447H6.49339V6.71489L2.23587 14.4584V18.916Z" fill="#DC7902"/>
<path d="M70.3277 23.6021L72.385 19.116H73.2708L75.3281 23.5735H74.328L73.9566 22.6592H71.7278L71.2992 23.6021H70.3277ZM73.6422 21.8591L72.8708 20.1161L72.1278 21.8591H73.6422Z" fill="#333333"/>
<path d="M59.7553 23.6021L61.784 19.116H62.6698L64.7272 23.5735H63.7271L63.3842 22.6592H61.1268L60.7268 23.6021H59.7553ZM63.0699 21.8591L62.2984 20.1161L61.5554 21.8591H63.0699Z" fill="#333333"/>
<path d="M59.1552 20.5733C59.1552 20.7733 59.1267 20.9733 59.0695 21.1733C59.0124 21.3448 58.9266 21.5162 58.8123 21.6305C58.7552 21.7162 58.6695 21.7734 58.6123 21.8591C58.5266 21.9162 58.4409 21.9734 58.3552 22.0305C58.2409 22.0591 58.1551 22.1163 58.0409 22.1163C57.9266 22.1448 57.8123 22.1734 57.6694 22.1734H56.4407V23.5735H55.4692V19.116L57.6694 19.1731C57.898 19.1731 58.098 19.2017 58.2694 19.2303C58.4123 19.2874 58.5552 19.3732 58.6981 19.4589C58.8409 19.5732 58.9552 19.716 59.0409 19.9161C59.0981 20.0875 59.1552 20.3161 59.1552 20.5733ZM58.298 20.459C58.298 20.3447 58.2694 20.2304 58.2409 20.1447C58.1837 20.0589 58.1266 20.0018 58.0409 19.9732C57.9551 19.9161 57.8694 19.8875 57.7837 19.8875C57.698 19.8589 56.6979 19.8589 56.555 19.8589H56.4407V21.4019H56.4979C56.5836 21.4019 56.6693 21.4019 56.755 21.4019C56.8407 21.4019 57.7837 21.4019 57.8408 21.4019C57.898 21.3733 57.9551 21.3733 58.0123 21.3448C58.0694 21.2876 58.098 21.259 58.1551 21.2305C58.2123 21.1733 58.2409 21.0876 58.2694 21.0019C58.298 20.9162 58.298 20.6018 58.298 20.459Z" fill="#333333"/>
<path d="M61.4983 17.5444L63.5556 13.0583H64.4414L66.4987 17.5159H65.4987L65.1272 16.6301H62.8984L62.4698 17.5444H61.4983ZM64.8129 15.83L64.0414 14.087L63.2985 15.83H64.8129Z" fill="#333333"/>
<path d="M45.8398 14.4299C45.8398 14.6299 45.8112 14.8299 45.754 15.0013C45.6969 15.2014 45.6112 15.3442 45.4969 15.4871C45.4397 15.5728 45.3826 15.63 45.2969 15.6871C45.2111 15.7728 45.1254 15.83 45.0397 15.8586C44.954 15.9157 44.8397 15.9443 44.7254 15.9729C44.6111 16.0014 44.4968 16.0014 44.3539 16.0014L43.1252 15.9729V17.4301H42.1537V12.9726L44.3825 13.0012C44.5825 13.0297 44.7825 13.0297 44.954 13.0869C45.0968 13.1155 45.2683 13.2012 45.3826 13.3155C45.5254 13.4298 45.6397 13.5726 45.7255 13.7441C45.8112 13.9441 45.8398 14.1727 45.8398 14.4299ZM45.0111 14.3441C45.0111 14.2013 44.9825 14.087 44.9254 14.0013C44.8682 13.9155 44.8111 13.8584 44.7254 13.8298C44.6397 13.7727 44.5539 13.7441 44.4682 13.7441C44.3825 13.7441 43.411 13.7441 43.2681 13.7441H43.1252V15.2871H43.1824C43.2681 15.2871 43.3538 15.2585 43.4395 15.2585C43.5253 15.2585 44.4682 15.2585 44.5254 15.2585C44.5825 15.2299 44.6397 15.2299 44.6968 15.2014C44.7539 15.1728 44.8111 15.1156 44.8397 15.0871C44.8968 15.0299 44.954 14.9442 44.954 14.8585C44.9825 14.7727 45.0111 14.4584 45.0111 14.3441Z" fill="#333333"/>
<path d="M72.2993 11.4582L74.3566 6.97205H75.2424L77.2997 11.4296H76.2996L75.9567 10.5152H73.6994L73.2708 11.4582H72.2993ZM75.6138 9.71515L74.8424 8.00072L74.0994 9.71515H75.6138Z" fill="#333333"/>
<path d="M61.7269 11.4582L63.7842 6.97205H64.6414L66.6988 11.4296H65.7272L65.3558 10.5152H63.0984L62.6984 11.4582H61.7269ZM65.0415 9.71515L64.27 8.00072L63.5271 9.71515H65.0415Z" fill="#333333"/>
<path d="M61.0697 10.058C61.0697 10.2866 61.0411 10.4867 60.9554 10.6581C60.8983 10.801 60.8125 10.9438 60.6697 11.0581C60.5268 11.201 60.3839 11.2867 60.2125 11.3439C60.041 11.401 59.441 11.4296 59.1838 11.4296H57.2408V6.97205H58.9838C59.2695 6.97205 59.8696 6.97205 60.0125 7.00063C60.1553 7.0292 60.2982 7.08635 60.4125 7.17207C60.5554 7.25779 60.6411 7.37209 60.7268 7.51496C60.784 7.65783 60.8125 7.82927 60.8125 8.00072C60.8125 8.22931 60.784 8.42933 60.6697 8.60077C60.5839 8.74364 60.4696 8.88651 60.2982 8.97223C60.5268 9.02938 60.7268 9.17225 60.8697 9.34369C61.0125 9.51514 61.0697 9.7723 61.0697 10.058ZM59.9267 8.22931C59.9267 8.14359 59.8982 8.08644 59.8696 8.00072C59.841 7.94357 59.7839 7.88642 59.7267 7.82927C59.6696 7.8007 59.5838 7.8007 59.4981 7.8007C59.4124 7.77212 58.4123 7.77212 58.2409 7.77212H58.1551V8.74364H58.2694C58.4409 8.74364 59.441 8.71506 59.4981 8.71506C59.5838 8.71506 59.641 8.68649 59.6981 8.65792C59.7839 8.62934 59.841 8.5722 59.8696 8.48647C59.8982 8.40075 59.9267 8.31503 59.9267 8.22931ZM60.1553 10.058C60.1553 9.91517 60.1267 9.80088 60.0982 9.71515C60.041 9.62943 59.9553 9.57228 59.8696 9.54371C59.8124 9.51514 59.7267 9.51514 59.641 9.48656C59.5267 9.48656 58.498 9.48656 58.3266 9.48656H58.1551V10.6009H58.2123C58.4695 10.6009 59.5267 10.6009 59.6124 10.6009C59.6981 10.6009 59.8124 10.5724 59.8982 10.5152C59.9839 10.4867 60.0696 10.4295 60.0982 10.3438C60.1267 10.2581 60.1553 10.1438 60.1553 10.058Z" fill="#333333"/>
<path d="M43.7253 23.8021C42.9824 23.8021 42.3537 23.4592 41.8108 22.9163L42.6109 22.3449C43.2681 23.1164 44.8111 23.0878 44.8111 22.4592C44.8111 21.8019 43.6681 21.8591 43.0681 21.6305C42.6966 21.5162 42.3823 21.4305 42.2109 21.2019C42.068 20.9733 41.9823 20.7161 41.9823 20.3732C41.9823 19.9446 42.1823 19.5732 42.5538 19.316C42.9538 19.0303 43.3824 18.9445 43.9539 18.9445C44.6682 18.9445 45.4112 19.316 45.7826 19.7446L45.1254 20.2875C45.0683 20.2875 44.7539 19.8018 44.0682 19.7732C43.6967 19.716 43.0109 19.8303 43.0109 20.2304C43.0109 21.0019 44.8682 20.6876 45.5826 21.5448C45.7255 21.7448 45.8398 21.9162 45.8398 22.2306C45.8398 22.6877 45.6683 23.0878 45.2683 23.3735C44.8968 23.6593 44.3825 23.7736 43.7253 23.8021Z" fill="#333333"/>
<path d="M74.2994 17.5444H73.4422V13.0869H74.2709L74.2994 17.5444Z" fill="#333333"/>
<path d="M60.5268 16.1157C60.5268 16.3157 60.4982 16.4872 60.4411 16.6586C60.3839 16.8301 60.2982 16.9729 60.1839 17.1158C60.041 17.2301 59.9267 17.373 59.7267 17.4301C59.4981 17.573 58.9552 17.6301 58.7266 17.6587C57.9266 17.6873 57.0408 17.373 56.6979 16.5158V15.63C56.8407 15.63 57.3836 15.6014 57.4122 15.6014C57.4122 16.4015 57.6694 16.8301 58.7552 16.8015C59.1267 16.7729 59.6981 16.5729 59.7267 16.0014C59.7267 15.8586 59.7267 15.7157 59.7267 15.5728V13.8012L58.5266 13.7727V12.9726H60.5268V16.1157Z" fill="#333333"/>
<path d="M55.4978 17.4301H54.812L52.6118 14.3156V17.4301H51.6974V12.9726H52.6118L54.6691 15.7443V12.9726H55.4978V17.4301Z" fill="#333333"/>
<path d="M71.5278 10.9724C70.9563 11.3724 70.2991 11.5153 69.6419 11.5153C68.3561 11.5153 67.5274 10.4295 67.5274 9.2294C67.5274 8.00072 68.3561 6.88633 69.6705 6.88633C70.642 6.88633 71.042 7.08635 71.5563 7.65783L71.1277 8.3436C70.9563 8.14359 70.7563 8.02929 70.5848 7.91499C69.5276 7.20064 68.156 8.08644 68.2703 9.25797C68.3846 10.2866 68.9561 10.7152 69.899 10.7152C70.2134 10.7152 70.4991 10.6581 70.7563 10.4295V9.80088H69.7276V8.97223L71.6135 8.94366L71.5278 10.9724Z" fill="#333333"/>
<path d="M55.8692 11.4296H54.9834V8.40075L53.6119 10.0866H53.3261L51.9546 8.20073V11.4296H51.2117V6.97205H52.0975L53.4404 8.85793L55.0406 6.97205H55.8692V11.4296Z" fill="#333333"/>
<path d="M46.5541 11.4296V6.97205H49.8115V7.82927H47.3828V8.60077H49.6972V9.45799H47.3828V10.5724H49.8115V11.4296H46.5541Z" fill="#333333"/>
<path d="M45.4111 11.4582L42.1537 11.4296V6.97205H43.0109V10.6867L45.4111 10.7152V11.4582Z" fill="#333333"/>
<path d="M47.097 17.5444V13.0869H50.3544V13.9441H47.9257V14.7156H50.2402V15.5728H47.9257V16.6872H50.3544V17.5444H47.097Z" fill="#333333"/>
<path d="M72.2707 17.5444H71.3849V14.5156L70.0133 16.2015H69.7276L68.356 14.287V17.5159L67.6131 17.5444V13.0869H68.4989L69.8133 14.9728L71.442 13.0869H72.2707V17.5444Z" fill="#333333"/>
<path d="M79.5285 17.5444H78.8427L76.6139 14.4299V17.5444H75.6996V13.0869H76.6139L78.6713 15.8586V13.0869H79.5285V17.5444Z" fill="#333333"/>
<path d="M47.8114 23.5164H46.9541V19.0588H47.7828L47.8114 23.5164Z" fill="#333333"/>
<path d="M54.0119 23.5735H53.1261L53.0975 20.5447L51.7546 22.2591H51.4403L50.0687 20.3447V23.5735H49.3258V19.116H50.2116L51.5546 21.0305L53.1547 19.116H54.0119V23.5735Z" fill="#333333"/>
<path d="M69.4704 23.6593H68.7847L66.5845 20.5447V23.6593H65.6701V19.2017H66.5845L68.6418 21.9734V19.2017H69.4704V23.6593Z" fill="#333333"/>
<path d="M80.1857 23.5735H79.4999L77.2711 20.459V23.5735H76.3568V19.116H77.2711L79.357 21.8877V19.116H80.1857V23.5735Z" fill="#333333"/>
<path fill-rule="evenodd" clip-rule="evenodd" d="M42.0966 4.1718H80.5V4.65756H42.0966V4.1718Z" fill="#333333"/>
<path fill-rule="evenodd" clip-rule="evenodd" d="M42.0966 26.4309H80.5V26.9167H42.0966V26.4309Z" fill="#333333"/>
</g>
<defs>
<clipPath id="clip0_801_8888">
<rect width="80" height="31.0885" fill="white" transform="translate(0.5)"/>
</clipPath>
</defs>
</svg>
