<svg width="90" height="34" viewBox="0 0 90 34" fill="none" xmlns="http://www.w3.org/2000/svg">
<g clip-path="url(#clip0_801_8891)">
<g clip-path="url(#clip1_801_8891)">
<path d="M24.6599 11.96V26.8C24.5799 28.03 24.2299 29.39 22.7999 29.39C22.1499 29.39 21.8599 29.24 21.7199 28.98C22.8999 27.22 23.5999 25.06 23.5999 22.71C23.5999 21.32 23.3499 19.99 22.8999 18.77C22.8199 18.56 22.7399 18.36 22.6499 18.16C21.0899 14.57 17.7599 12.08 13.8799 12.08C8.51992 12.08 4.16992 16.83 4.16992 22.7C4.16992 28.57 8.51992 33.32 13.8799 33.32C15.5399 33.32 17.1099 32.86 18.4799 32.06C19.6099 32.87 20.9699 33.35 22.4399 33.35C25.7099 33.35 28.4499 31 29.2099 27.84V11.96H24.6299H24.6599ZM16.1199 29.12C15.4399 29.51 14.6899 29.74 13.8999 29.74C10.8799 29.74 8.43992 26.57 8.43992 22.66C8.43992 18.75 10.8899 15.58 13.8999 15.58C16.1299 15.58 18.0399 17.31 18.8899 19.78C19.1899 20.66 19.3599 21.63 19.3599 22.66C19.3599 25.54 18.0299 28.02 16.1199 29.12Z" fill="url(#paint0_radial_801_8891)"/>
<path d="M30.5601 20.08V26.53L33.3601 23.93L39.7301 33.4H46.0401L37.0701 19.88L44.7901 11.66H37.7701L30.5601 20.08Z" fill="url(#paint1_radial_801_8891)"/>
<path d="M45.03 11.86C43.81 11.98 42.36 12 40.65 11.82C40.55 11.82 40.46 11.82 40.37 11.8C33.39 9.74999 31.22 6.80999 26.79 3.40999C22.06 -0.230007 10.72 -2.69001 0.5 5.37999C0.5 5.37999 4 7.39999 5.6 10.82C5.63 10.88 5.66 10.94 5.69 11C7.27 14.53 7.52 17.57 7.52 17.57C7.52 17.57 13.32 10.94 20.49 10.68C26.54 10.46 33.56 12.81 39.13 13.43C40.16 13.54 41.14 13.6 42.06 13.57C47.91 13.36 50.15 9.99999 50.15 9.99999C50.15 9.99999 48.71 11.49 45.05 11.86H45.03Z" fill="#313132"/>
<path d="M22.5698 6.14999C31.1398 8.42999 33.3898 11.41 40.3598 11.36C40.4798 11.36 40.5798 11.35 40.6898 11.35C40.5898 11.35 40.4998 11.35 40.4098 11.33C33.4598 9.38999 31.3098 6.60999 26.8998 3.38999C22.1998 -0.0500107 11.4198 -2.48001 1.25977 5.15999C1.25977 5.15999 4.23977 7.16999 5.82977 10.4C6.11977 10.07 6.39977 9.76999 6.68977 9.47999C12.2498 3.72999 17.5698 4.81999 22.5798 6.14999H22.5698Z" fill="url(#paint2_linear_801_8891)"/>
<path d="M45.0396 11.39C43.8296 11.51 42.3796 11.52 40.6796 11.35C40.5596 11.35 40.4596 11.36 40.3496 11.36C33.3896 11.41 29.5796 7.56 23.0996 5.47C18.1696 3.88 12.2296 3.72 6.66957 9.47C6.37957 9.76 6.09957 10.06 5.80957 10.39C5.83957 10.45 5.86957 10.5 5.89957 10.56C7.46957 13.9 7.71957 16.78 7.71957 16.78C7.71957 16.78 13.4896 10.51 20.6196 10.25C26.6396 10.04 33.6196 12.27 39.1596 12.85C40.1796 12.96 41.1596 13.02 42.0696 12.98C47.8896 12.78 50.2096 9.74 50.2096 9.74C50.2096 9.74 48.6796 11.01 45.0396 11.37V11.39Z" fill="url(#paint3_linear_801_8891)"/>
<path d="M51.3699 11.68H50.4199V33.13H51.3699V11.68Z" fill="#660812"/>
<path d="M59.63 14.84C59.63 15.16 59.57 15.47 59.45 15.75C59.33 16.04 59.15 16.29 58.92 16.52C58.69 16.75 58.42 16.92 58.13 17.04C57.84 17.16 57.53 17.22 57.2 17.22C56.87 17.22 56.56 17.16 56.27 17.04C55.97 16.92 55.71 16.75 55.48 16.52C55.25 16.29 55.07 16.04 54.95 15.75C54.83 15.46 54.77 15.16 54.77 14.83C54.77 14.5 54.83 14.2 54.95 13.91C55.07 13.62 55.24 13.37 55.48 13.14C55.71 12.91 55.97 12.74 56.27 12.62C56.56 12.5 56.88 12.44 57.2 12.44C57.52 12.44 57.84 12.5 58.13 12.62C58.42 12.74 58.68 12.91 58.92 13.14C59.15 13.37 59.33 13.63 59.45 13.92C59.57 14.21 59.63 14.51 59.63 14.83V14.84ZM58.86 14.84C58.86 14.61 58.82 14.39 58.74 14.18C58.66 13.97 58.54 13.79 58.38 13.63C58.23 13.47 58.05 13.35 57.85 13.26C57.65 13.17 57.44 13.13 57.21 13.13C56.98 13.13 56.77 13.17 56.57 13.26C56.37 13.35 56.19 13.47 56.03 13.63C55.87 13.79 55.75 13.97 55.67 14.18C55.59 14.39 55.55 14.61 55.55 14.84C55.55 15.07 55.59 15.29 55.67 15.49C55.75 15.7 55.87 15.88 56.03 16.04C56.19 16.2 56.37 16.32 56.57 16.41C56.77 16.49 56.98 16.54 57.21 16.54C57.44 16.54 57.64 16.5 57.84 16.41C58.04 16.32 58.22 16.2 58.38 16.04C58.54 15.88 58.66 15.69 58.74 15.49C58.82 15.28 58.86 15.07 58.86 14.84Z" fill="#313132"/>
<path d="M61.72 13.18V17.09H60.98V13.18H59.77V12.55H62.92V13.18H61.72Z" fill="#313132"/>
<path d="M67.9201 14.84C67.9201 15.16 67.8601 15.47 67.7401 15.75C67.6201 16.04 67.4401 16.29 67.2101 16.52C66.9801 16.75 66.7101 16.92 66.4201 17.04C66.1301 17.16 65.8201 17.22 65.4901 17.22C65.1601 17.22 64.8501 17.16 64.5601 17.04C64.2601 16.92 64.0001 16.75 63.7701 16.52C63.5401 16.29 63.3601 16.04 63.2401 15.75C63.1201 15.46 63.0601 15.16 63.0601 14.83C63.0601 14.5 63.1201 14.2 63.2401 13.91C63.3601 13.62 63.5401 13.37 63.7701 13.14C64.0001 12.91 64.2601 12.74 64.5601 12.62C64.8501 12.5 65.1701 12.44 65.4901 12.44C65.8101 12.44 66.1301 12.5 66.4201 12.62C66.7101 12.74 66.9701 12.91 67.2101 13.14C67.4401 13.37 67.6201 13.63 67.7401 13.92C67.8601 14.21 67.9201 14.51 67.9201 14.83V14.84ZM67.1501 14.84C67.1501 14.61 67.1101 14.39 67.0301 14.18C66.9501 13.97 66.8301 13.79 66.6701 13.63C66.5201 13.47 66.3401 13.35 66.1401 13.26C65.9401 13.17 65.7301 13.13 65.5001 13.13C65.2701 13.13 65.0601 13.17 64.8601 13.26C64.6601 13.35 64.4801 13.47 64.3201 13.63C64.1601 13.79 64.0401 13.97 63.9601 14.18C63.8801 14.39 63.8401 14.61 63.8401 14.84C63.8401 15.07 63.8801 15.29 63.9601 15.49C64.0401 15.7 64.1601 15.88 64.3201 16.04C64.4801 16.2 64.6601 16.32 64.8601 16.41C65.0601 16.49 65.2701 16.54 65.5001 16.54C65.7301 16.54 65.9301 16.5 66.1301 16.41C66.3301 16.32 66.5101 16.2 66.6701 16.04C66.8301 15.88 66.9501 15.69 67.0301 15.49C67.1101 15.28 67.1501 15.07 67.1501 14.84Z" fill="#313132"/>
<path d="M69.46 15.06V17.09H68.77V12.55H69.8C70.1 12.55 70.34 12.57 70.5 12.61C70.67 12.65 70.81 12.71 70.93 12.8C71.07 12.91 71.18 13.05 71.26 13.23C71.34 13.4 71.38 13.59 71.38 13.8C71.38 14.16 71.29 14.45 71.12 14.65C70.94 14.86 70.68 14.98 70.34 15.02L71.9 17.09H71.06L69.55 15.06H69.47H69.46ZM69.51 14.49H69.64C70.03 14.49 70.29 14.44 70.42 14.35C70.55 14.26 70.61 14.1 70.61 13.87C70.61 13.62 70.54 13.44 70.41 13.34C70.27 13.24 70.02 13.19 69.64 13.19H69.51V14.49Z" fill="#313132"/>
<path d="M72.3301 17.1V12.56H73.0701V17.1H72.3301Z" fill="#313132"/>
<path d="M75.5999 13.18V17.09H74.8599V13.18H73.6499V12.55H76.7899V13.18H75.5899H75.5999Z" fill="#313132"/>
<path d="M79.9 17.1L79.38 15.93H77.58L77.05 17.1H76.27L78.47 12.38L80.67 17.1H79.89H79.9ZM77.86 15.32H79.13L78.67 14.28C78.64 14.21 78.62 14.14 78.59 14.05C78.56 13.96 78.53 13.87 78.5 13.76C78.48 13.86 78.45 13.95 78.42 14.04C78.39 14.13 78.36 14.2 78.33 14.28L77.87 15.32H77.86Z" fill="#313132"/>
<path d="M80.8498 16.19L81.4398 15.92C81.4998 16.12 81.5998 16.28 81.7498 16.38C81.8998 16.49 82.0898 16.54 82.3198 16.54C82.5498 16.54 82.7098 16.48 82.8398 16.36C82.9698 16.24 83.0298 16.07 83.0298 15.87C83.0298 15.6 82.8099 15.37 82.3699 15.16C82.3099 15.13 82.2599 15.11 82.2299 15.09C81.7299 14.85 81.3999 14.63 81.2299 14.43C81.0599 14.23 80.9799 13.99 80.9799 13.71C80.9799 13.34 81.0998 13.04 81.3498 12.81C81.5998 12.58 81.9298 12.47 82.3398 12.47C82.6798 12.47 82.9598 12.53 83.1798 12.66C83.4098 12.79 83.5598 12.97 83.6498 13.22L83.0698 13.52C82.9798 13.38 82.8798 13.27 82.7698 13.21C82.6598 13.14 82.5398 13.11 82.3998 13.11C82.1998 13.11 82.0398 13.16 81.9298 13.27C81.8098 13.37 81.7598 13.51 81.7598 13.68C81.7598 13.95 82.0198 14.21 82.5298 14.44C82.5698 14.46 82.5999 14.47 82.6199 14.48C83.0699 14.69 83.3798 14.89 83.5398 15.09C83.7098 15.29 83.7898 15.53 83.7898 15.83C83.7898 16.26 83.6498 16.6 83.3798 16.85C83.1098 17.1 82.7398 17.23 82.2798 17.23C81.8898 17.23 81.5798 17.14 81.3298 16.96C81.0798 16.78 80.9198 16.53 80.8398 16.2L80.8498 16.19Z" fill="#313132"/>
<path d="M54.94 23.89C55.02 23.98 55.09 24.05 55.16 24.09C55.23 24.13 55.3 24.15 55.38 24.15C55.52 24.15 55.63 24.1 55.68 24.01C55.74 23.91 55.77 23.74 55.77 23.48V20.18H56.5V23.72C56.5 24.1 56.42 24.39 56.25 24.57C56.08 24.75 55.82 24.84 55.46 24.84C55.26 24.84 55.08 24.8 54.92 24.72C54.76 24.64 54.61 24.52 54.46 24.36L54.93 23.89H54.94Z" fill="#313132"/>
<path d="M60.4801 24.72L59.9601 23.55H58.1601L57.6301 24.72H56.8501L59.0501 20L61.2501 24.72H60.4701H60.4801ZM58.4401 22.94H59.7101L59.2501 21.9C59.2201 21.83 59.1901 21.76 59.1701 21.67C59.1401 21.58 59.1101 21.49 59.0801 21.38C59.0601 21.48 59.0301 21.57 59.0001 21.66C58.9701 21.75 58.9401 21.83 58.9101 21.9L58.4501 22.94H58.4401Z" fill="#313132"/>
<path d="M61.4302 23.81L62.0202 23.54C62.0802 23.74 62.1802 23.9 62.3302 24C62.4802 24.11 62.6702 24.16 62.9002 24.16C63.1202 24.16 63.2902 24.1 63.4202 23.98C63.5502 23.86 63.6202 23.69 63.6202 23.49C63.6202 23.22 63.4002 22.99 62.9602 22.78C62.9002 22.75 62.8502 22.73 62.8202 22.71C62.3202 22.47 61.9902 22.25 61.8202 22.05C61.6502 21.85 61.5702 21.61 61.5702 21.32C61.5702 20.95 61.6902 20.65 61.9502 20.42C62.2002 20.19 62.5302 20.08 62.9402 20.08C63.2702 20.08 63.5502 20.14 63.7802 20.27C64.0002 20.4 64.1602 20.58 64.2502 20.83L63.6702 21.13C63.5802 20.99 63.4802 20.88 63.3702 20.82C63.2602 20.75 63.1402 20.72 63.0002 20.72C62.8002 20.72 62.6402 20.77 62.5302 20.88C62.4102 20.98 62.3602 21.12 62.3602 21.3C62.3602 21.57 62.6202 21.83 63.1302 22.06C63.1702 22.08 63.2002 22.09 63.2202 22.1C63.6702 22.31 63.9802 22.51 64.1502 22.71C64.3202 22.91 64.4002 23.15 64.4002 23.45C64.4002 23.88 64.2702 24.22 63.9902 24.47C63.7202 24.72 63.3502 24.85 62.8902 24.85C62.5002 24.85 62.1902 24.76 61.9402 24.58C61.6902 24.4 61.5302 24.15 61.4602 23.82L61.4302 23.81Z" fill="#313132"/>
<path d="M68.1698 24.72L67.6598 23.55H65.8598L65.3298 24.72H64.5498L66.7498 20L68.9498 24.72H68.1698ZM66.1298 22.94H67.3998L66.9298 21.9C66.8998 21.83 66.8798 21.76 66.8498 21.67C66.8198 21.58 66.7898 21.49 66.7598 21.38C66.7298 21.48 66.7098 21.57 66.6798 21.66C66.6498 21.75 66.6298 21.83 66.5998 21.9L66.1298 22.94Z" fill="#313132"/>
<path d="M54.98 32.34V27.8H55.72V29.68L57.35 27.8H58.25L56.45 29.82L58.46 32.34H57.51L55.72 30.02V32.34H54.98Z" fill="#313132"/>
<path d="M58.9199 32.34V27.8H61.4599V28.43H59.6699V29.57H61.4599V30.22H59.6699V31.69H61.4599V32.35H58.9199V32.34Z" fill="#313132"/>
<path d="M62.2798 27.8H63.0098V30.56C63.0098 30.97 63.1098 31.28 63.2898 31.48C63.4798 31.69 63.7598 31.79 64.1398 31.79C64.5198 31.79 64.7998 31.69 64.9898 31.48C65.1798 31.27 65.2698 30.97 65.2698 30.56V27.8H66.0098V30.63C66.0098 31.24 65.8498 31.7 65.5498 32.01C65.2398 32.32 64.7698 32.47 64.1498 32.47C63.5298 32.47 63.0598 32.32 62.7498 32.01C62.4398 31.71 62.2898 31.25 62.2898 30.63V27.8H62.2798Z" fill="#313132"/>
<path d="M69.91 32.34L69.4 31.17H67.6L67.07 32.34H66.29L68.49 27.62L70.69 32.34H69.91ZM67.87 30.56H69.14L68.67 29.52C68.64 29.45 68.62 29.38 68.59 29.29C68.56 29.2 68.53 29.11 68.5 29C68.47 29.1 68.45 29.19 68.42 29.28C68.39 29.37 68.37 29.45 68.34 29.52L67.87 30.56Z" fill="#313132"/>
<path d="M71.1201 32.34V27.62L74.0001 30.4C74.0801 30.48 74.1601 30.56 74.2401 30.65C74.3201 30.74 74.4101 30.84 74.5001 30.95V27.8H75.1801V32.52L72.2401 29.69C72.1601 29.61 72.0901 29.53 72.0101 29.45C71.9401 29.36 71.8701 29.28 71.8001 29.18V32.34H71.1201Z" fill="#313132"/>
<path d="M78.7398 30.02H80.5398C80.5398 30.02 80.5398 30.1 80.5398 30.15C80.5398 30.3 80.5398 30.4 80.5398 30.45C80.5398 31.09 80.3598 31.58 79.9898 31.94C79.6198 32.29 79.1098 32.47 78.4398 32.47C78.0698 32.47 77.7298 32.42 77.4398 32.31C77.1498 32.2 76.8898 32.04 76.6698 31.81C76.4598 31.59 76.2898 31.33 76.1798 31.04C76.0598 30.74 76.0098 30.43 76.0098 30.09C76.0098 29.75 76.0698 29.43 76.1798 29.14C76.2998 28.85 76.4698 28.59 76.6998 28.37C76.9198 28.15 77.1798 27.99 77.4798 27.87C77.7798 27.76 78.0998 27.7 78.4398 27.7C78.7998 27.7 79.1198 27.77 79.3998 27.9C79.6798 28.03 79.9298 28.23 80.1498 28.5L79.6098 28.91C79.4598 28.73 79.2798 28.6 79.0898 28.51C78.8998 28.42 78.6798 28.38 78.4398 28.38C77.9498 28.38 77.5498 28.54 77.2298 28.85C76.9198 29.17 76.7698 29.58 76.7698 30.08C76.7698 30.58 76.9198 31.01 77.2298 31.33C77.5398 31.65 77.9498 31.81 78.4398 31.81C78.8598 31.81 79.1898 31.71 79.4398 31.52C79.6798 31.32 79.7998 31.06 79.7998 30.72V30.65H78.7098V30.03L78.7398 30.02Z" fill="#313132"/>
<path d="M84.3302 32.34L83.8102 31.17H82.0102L81.4802 32.34H80.7002L82.9002 27.62L85.1002 32.34H84.3202H84.3302ZM82.2902 30.56H83.5602L83.1002 29.52C83.0702 29.45 83.0402 29.38 83.0202 29.29C82.9902 29.2 82.9602 29.11 82.9302 29C82.9102 29.1 82.8802 29.19 82.8502 29.28C82.8202 29.37 82.7902 29.45 82.7602 29.52L82.3002 30.56H82.2902Z" fill="#313132"/>
<path d="M85.5298 32.34V27.62L88.4198 30.4C88.4998 30.48 88.5798 30.56 88.6598 30.65C88.7398 30.74 88.8198 30.84 88.9098 30.95V27.8H89.5898V32.52L86.6498 29.69C86.5698 29.61 86.4998 29.53 86.4198 29.45C86.3498 29.36 86.2798 29.28 86.2098 29.18V32.34H85.5298Z" fill="#313132"/>
</g>
</g>
<defs>
<radialGradient id="paint0_radial_801_8891" cx="0" cy="0" r="1" gradientUnits="userSpaceOnUse" gradientTransform="translate(26.5499 21.53) scale(17.32)">
<stop stop-color="#C40015"/>
<stop offset="0.14" stop-color="#AC0114"/>
<stop offset="0.37" stop-color="#8E0413"/>
<stop offset="0.59" stop-color="#770612"/>
<stop offset="0.81" stop-color="#6A0712"/>
<stop offset="1" stop-color="#660812"/>
</radialGradient>
<radialGradient id="paint1_radial_801_8891" cx="0" cy="0" r="1" gradientUnits="userSpaceOnUse" gradientTransform="translate(26.5501 21.53) scale(17.32)">
<stop stop-color="#C40015"/>
<stop offset="0.14" stop-color="#AC0114"/>
<stop offset="0.37" stop-color="#8E0413"/>
<stop offset="0.59" stop-color="#770612"/>
<stop offset="0.81" stop-color="#6A0712"/>
<stop offset="1" stop-color="#660812"/>
</radialGradient>
<linearGradient id="paint2_linear_801_8891" x1="36.7598" y1="9.91999" x2="-1.54023" y2="2.76999" gradientUnits="userSpaceOnUse">
<stop stop-color="#E77D62"/>
<stop offset="0.02" stop-color="#D76854"/>
<stop offset="0.04" stop-color="#C24B41"/>
<stop offset="0.07" stop-color="#B13532"/>
<stop offset="0.1" stop-color="#A62628"/>
<stop offset="0.14" stop-color="#9F1C21"/>
<stop offset="0.19" stop-color="#9D1A20"/>
<stop offset="0.22" stop-color="#A01E23"/>
<stop offset="0.26" stop-color="#AA2B2B"/>
<stop offset="0.3" stop-color="#BA423A"/>
<stop offset="0.34" stop-color="#D1604F"/>
<stop offset="0.38" stop-color="#E77D62"/>
<stop offset="0.43" stop-color="#D76753"/>
<stop offset="0.52" stop-color="#C24B41"/>
<stop offset="0.61" stop-color="#B13532"/>
<stop offset="0.71" stop-color="#A52628"/>
<stop offset="0.83" stop-color="#9F1C21"/>
<stop offset="1" stop-color="#9D1A20"/>
</linearGradient>
<linearGradient id="paint3_linear_801_8891" x1="-11.6204" y1="11.58" x2="41.3896" y2="9.55" gradientUnits="userSpaceOnUse">
<stop stop-color="#7F8083"/>
<stop offset="0.15" stop-color="#818285"/>
<stop offset="0.26" stop-color="#8B8B8E"/>
<stop offset="0.35" stop-color="#9A9B9D"/>
<stop offset="0.44" stop-color="#B0B1B3"/>
<stop offset="0.52" stop-color="#CCCDCE"/>
<stop offset="0.59" stop-color="#EFEFEF"/>
<stop offset="0.62" stop-color="white"/>
<stop offset="0.64" stop-color="#F1F2F2"/>
<stop offset="0.69" stop-color="#D3D4D5"/>
<stop offset="0.73" stop-color="#BCBEC0"/>
<stop offset="0.77" stop-color="#AFB1B4"/>
<stop offset="0.81" stop-color="#ABADB0"/>
<stop offset="0.87" stop-color="#ADAFB2"/>
<stop offset="0.9" stop-color="#B7B8BB"/>
<stop offset="0.94" stop-color="#C6C8CA"/>
<stop offset="0.97" stop-color="#DCDDDE"/>
<stop offset="1" stop-color="white"/>
</linearGradient>
<clipPath id="clip0_801_8891">
<rect width="89.09" height="33.4" fill="white" transform="translate(0.5)"/>
</clipPath>
<clipPath id="clip1_801_8891">
<rect width="89.09" height="33.4" fill="white" transform="translate(0.5)"/>
</clipPath>
</defs>
</svg>
