<svg width="70" height="80" viewBox="0 0 70 80" fill="none" xmlns="http://www.w3.org/2000/svg">
<g clip-path="url(#clip0_801_8926)">
<path fill-rule="evenodd" clip-rule="evenodd" d="M0.500125 6.07678H46.3349C55.8736 6.07678 63.6779 13.8813 63.6779 23.4197V51.7741C63.6779 61.3128 55.8736 69.1171 46.3349 69.1171L0.5 69.2547L0.500125 6.07678Z" fill="#005FA1"/>
<path fill-rule="evenodd" clip-rule="evenodd" d="M49.7104 0L55.7818 5.56892L63.7759 5.77611L64.1408 14.0177L69.6474 19.8309L64.0922 25.9173L63.8856 33.9313L55.6644 34.2973L49.8656 39.8174L43.7942 34.2485L35.8 34.0413L35.4351 25.7997L29.9285 19.9865L35.4838 13.9001L35.6903 5.88606L43.9116 5.5201L49.7104 0Z" fill="#E30016"/>
<path fill-rule="evenodd" clip-rule="evenodd" d="M49.813 7.99695L55.7818 5.56892L58.2077 11.5035L64.1408 14.0177L61.6702 19.9338L64.0922 25.9173L58.1723 28.3493L55.6644 34.2973L49.7629 31.8205L43.7942 34.2485L41.3682 28.3139L35.4351 25.7997L37.9057 19.8836L35.4838 13.9001L41.4036 11.4682L43.9116 5.5201L49.813 7.99695Z" fill="#F07C00"/>
<path fill-rule="evenodd" clip-rule="evenodd" d="M49.813 7.99695L53.2278 11.6594L58.2077 11.5035L58.0389 16.5138L61.6702 19.9338L58.0169 23.357L58.1723 28.3493L53.1744 28.1803L49.7629 31.8205L46.3481 28.158L41.3682 28.3139L41.537 23.3036L37.9057 19.8836L41.5591 16.4604L41.4036 11.4682L46.4016 11.6372L49.813 7.99695Z" fill="#B1C900"/>
<path fill-rule="evenodd" clip-rule="evenodd" d="M49.7878 11.0296C54.6909 11.0296 58.667 15.0056 58.667 19.9086C58.667 24.8117 54.6909 28.7878 49.7878 28.7878C44.8848 28.7878 40.9088 24.8117 40.9088 19.9086C40.9088 15.0056 44.8848 11.0296 49.7878 11.0296Z" fill="white"/>
<path fill-rule="evenodd" clip-rule="evenodd" d="M12.9891 45.465L13.1668 61.7506C13.1908 63.9579 13.8695 64.1773 15.7884 64.3541V64.3516C16.8654 64.3516 17.5906 64.2366 17.9777 64.0036C18.3573 63.775 18.6249 63.4806 18.7795 63.1137C18.9349 62.7445 19.0135 62.6187 19.0135 61.1799V43.9281C19.0135 42.4894 18.9349 42.3737 18.7795 41.998C18.6249 41.6243 18.3506 41.3312 17.9658 41.1079C17.578 40.883 16.8537 40.7733 15.7884 40.7733V39.2572H26.9331C29.5962 39.2572 31.4865 39.5328 32.5933 40.0736C33.7048 40.6168 34.5775 41.4254 35.2156 42.5028C35.8594 43.5801 36.1754 44.7312 36.1754 45.9424C36.1754 47.2273 35.7714 48.3649 34.958 49.3687C34.15 50.3656 33.3135 51.1374 31.2649 51.7263C35.4291 52.3016 37.2408 54.8533 37.2408 58.5098C37.2408 60.5108 36.5383 62.1636 35.1335 63.4685C33.4068 65.0546 30.8958 65.8442 27.6062 65.8442H15.7884V65.8358H6.14835V64.3621C8.13293 64.2696 8.98381 63.7374 8.98381 61.7506V50.2433C8.98381 48.0818 8.44471 47.7622 6.30026 47.5746V46.302C8.66312 46.2632 10.9014 45.9998 12.9891 45.465ZM23.6613 52.7448V60.5922C23.6613 61.3705 23.5152 62.3691 24.2686 62.9698C24.6849 63.3019 25.3202 63.4158 26.1532 63.4625C31.8742 63.7833 32.8589 60.9614 32.7857 58.2515C32.6271 52.3644 29.1618 52.7159 23.6613 52.7448ZM23.6601 50.5799C29.6709 51.5951 31.2183 49.4052 31.3368 46.0899C31.4661 42.4724 29.8134 41.5485 26.7574 41.4706C24.7999 41.4207 23.6602 41.7105 23.6602 43.3974L23.6601 50.5799ZM11.214 37.3359C12.726 37.3359 13.9525 38.5621 13.9525 40.0743C13.9525 41.5862 12.726 42.8127 11.214 42.8127C9.70191 42.8127 8.4757 41.5862 8.4757 40.0743C8.4757 38.5621 9.70191 37.3359 11.214 37.3359Z" fill="white"/>
<path fill-rule="evenodd" clip-rule="evenodd" d="M0.70488 78.3454H1.6026V76.3532C1.75098 76.3798 1.92267 76.3864 2.10998 76.3864C3.18733 76.3864 4.34276 75.9614 4.34276 74.7263C4.34276 74.2615 4.13984 73.8763 3.80415 73.6306C3.44504 73.3584 2.89068 73.2255 2.15695 73.2255C1.54025 73.2255 1.06388 73.272 0.70488 73.3251V78.3454ZM1.6026 73.8763C1.71962 73.8564 1.9306 73.8298 2.21162 73.8298C2.93766 73.8298 3.43723 74.1419 3.43723 74.7595C3.43723 75.4102 2.93766 75.7754 2.10998 75.7754C1.89924 75.7754 1.73537 75.7688 1.6026 75.7357V73.8763ZM8.22286 77.6547C7.94185 77.7544 7.61409 77.8274 7.13771 77.8274C6.45853 77.8274 5.85744 77.5152 5.83401 76.6918H8.56649C8.5821 76.5988 8.5898 76.4927 8.5898 76.3665C8.5898 75.4634 8.10584 74.6067 6.89573 74.6067C5.67783 74.6067 4.95959 75.4766 4.95959 76.5657C4.95959 77.6813 5.70906 78.4196 7.00507 78.4196C7.59054 78.4196 8.06679 78.3188 8.37124 78.1993L8.22286 77.6547ZM5.84182 76.1406C5.88868 75.7158 6.16969 75.1579 6.83339 75.1579C7.52807 75.1579 7.7388 75.7025 7.73111 76.1406H5.84182ZM11.6267 74.6267C11.5486 74.6134 11.4863 74.6067 11.4004 74.6067C10.9319 74.6067 10.4792 74.8923 10.284 75.3571H10.2528L10.2215 74.6865H9.43297C9.4564 75.0251 9.46421 75.377 9.46421 75.802V78.3454H10.3699V76.4063C10.3699 75.7688 10.7523 75.3438 11.3613 75.3438C11.4628 75.3438 11.5486 75.3505 11.6267 75.3637V74.6267ZM13.235 75.1978V73.0197H12.3293V77.3692C12.3293 77.7012 12.3137 78.0996 12.2981 78.3454H13.071L13.118 77.7942H13.1413C13.4301 78.2258 13.8595 78.4196 14.4137 78.4196C15.3038 78.4196 16.2171 77.7942 16.2171 76.4595C16.2171 75.3438 15.5381 74.6067 14.5543 74.6067C13.9531 74.6067 13.5083 74.8258 13.2506 75.1978H13.235ZM13.235 76.1805C13.235 75.6957 13.6564 75.2244 14.2264 75.2244C14.9446 75.2244 15.2961 75.802 15.2961 76.4927C15.2961 77.2762 14.9134 77.8008 14.2186 77.8008C13.6253 77.8008 13.235 77.3626 13.235 76.8977V76.1805ZM20.1206 76.0943C20.1206 75.3172 19.7693 74.6067 18.5046 74.6067C17.9269 74.6067 17.4195 74.7462 17.1151 74.9122L17.3024 75.4235C17.5756 75.2707 17.966 75.1712 18.3485 75.1712C19.215 75.1712 19.215 75.7158 19.215 75.988C17.7396 75.988 16.8105 76.4395 16.8105 77.3493C16.8105 77.9138 17.2712 78.4196 18.0753 78.4196C18.6139 78.4196 19.0355 78.2059 19.2776 77.9204H19.3009L19.3634 78.3454H20.1832C20.1286 78.1063 20.1206 77.7876 20.1206 77.4755V76.0943ZM19.2385 77.1103C19.2385 77.5353 18.8326 77.854 18.3406 77.854C18.0049 77.854 17.7082 77.6747 17.7082 77.2696C17.7082 76.6189 18.5281 76.506 19.2385 76.506V77.1103ZM24.8126 76.1075C24.8126 74.9786 24.0631 74.6067 23.3917 74.6067C22.7438 74.6067 22.2909 74.9188 22.088 75.231H22.0645L22.0177 74.6865H21.2291C21.2447 74.9985 21.2605 75.3106 21.2605 75.7158V78.3454H22.166V76.1406C22.166 75.5564 22.6421 75.2443 23.0871 75.2443C23.7041 75.2443 23.9069 75.6826 23.9069 76.2004V78.3454H24.8126V76.1075ZM27.8261 76.1938L29.3405 74.6865H28.2711L27.2014 75.9083C27.0921 76.0345 26.9751 76.1938 26.8735 76.3333H26.8579V73.0197H25.9523V78.3454H26.8579V77.0306L27.2093 76.6654L28.4428 78.3454H29.5357L27.8261 76.1938ZM33.0566 76.0943C33.0566 75.3172 32.7053 74.6067 31.4405 74.6067C30.8629 74.6067 30.3555 74.7462 30.051 74.9122L30.2383 75.4235C30.5115 75.2707 30.9019 75.1712 31.2844 75.1712C32.1509 75.1712 32.1509 75.7158 32.1509 75.988C30.6755 75.988 29.7465 76.4395 29.7465 77.3493C29.7465 77.9138 30.2071 78.4196 31.0112 78.4196C31.5498 78.4196 31.9714 78.2059 32.2135 77.9204H32.2368L32.2993 78.3454H33.1192C33.0645 78.1063 33.0566 77.7876 33.0566 77.4755V76.0943ZM32.1745 77.1103C32.1745 77.5353 31.7685 77.854 31.2766 77.854C30.9409 77.854 30.6442 77.6747 30.6442 77.2696C30.6442 76.6189 31.4641 76.506 32.1745 76.506V77.1103ZM37.7485 76.1075C37.7485 74.9786 36.999 74.6067 36.3277 74.6067C35.6797 74.6067 35.227 74.9188 35.024 75.231H35.0004L34.9537 74.6865H34.1651C34.1808 74.9985 34.1964 75.3106 34.1964 75.7158V78.3454H35.1021V76.1406C35.1021 75.5564 35.5782 75.2443 36.0231 75.2443C36.6401 75.2443 36.8428 75.6826 36.8428 76.2004V78.3454H37.7485V76.1075ZM43.6974 73.4181C43.4398 73.3052 43.0104 73.1857 42.4404 73.1857C41.2537 73.1857 40.4966 73.79 40.4966 74.5935C40.4966 75.284 41.0977 75.7422 41.9877 76.0478C42.698 76.3001 43.0025 76.5657 43.0025 76.9974C43.0025 77.4556 42.6044 77.7676 41.894 77.7676C41.4021 77.7676 40.9181 77.6348 40.598 77.4688L40.395 78.1129C40.6839 78.279 41.2773 78.4196 41.8394 78.4196C43.1821 78.4196 43.9238 77.7809 43.9238 76.9309C43.9238 76.2336 43.4631 75.7887 42.5028 75.4302C41.7456 75.1513 41.4099 74.9387 41.4099 74.5071C41.4099 74.1818 41.7066 73.8298 42.417 73.8298C42.9088 73.8298 43.2835 73.9626 43.4787 74.0556L43.6974 73.4181ZM47.2964 74.6865L46.6016 76.745C46.5233 76.9907 46.4376 77.2629 46.3751 77.4755H46.3517C46.2893 77.2629 46.2033 76.9841 46.1175 76.745L45.3368 74.6865H44.3452L45.8208 78.0598C45.8599 78.1328 45.8676 78.1793 45.8676 78.2192C45.8676 78.3188 45.5319 79.0636 44.5951 79.3491L44.8293 80C45.0401 79.9601 45.4383 79.8339 45.8285 79.5285C46.3438 79.1035 46.703 78.4261 47.2103 77.2231L48.2487 74.6865H47.2964ZM51.9024 76.0943C51.9024 75.3172 51.5511 74.6067 50.2864 74.6067C49.7086 74.6067 49.2013 74.7462 48.8968 74.9122L49.0842 75.4235C49.3573 75.2707 49.7477 75.1712 50.1303 75.1712C50.9968 75.1712 50.9968 75.7158 50.9968 75.988C49.5213 75.988 48.5922 76.4395 48.5922 77.3493C48.5922 77.9138 49.0529 78.4196 49.857 78.4196C50.3958 78.4196 50.8173 78.2059 51.0593 77.9204H51.0827L51.1451 78.3454H51.965C51.9103 78.1063 51.9024 77.7876 51.9024 77.4755V76.0943ZM51.0203 77.1103C51.0203 77.5353 50.6143 77.854 50.1224 77.854C49.7867 77.854 49.4901 77.6747 49.4901 77.2696C49.4901 76.6189 50.31 76.506 51.0203 76.506V77.1103ZM55.2047 74.6267C55.1266 74.6134 55.0642 74.6067 54.9783 74.6067C54.5099 74.6067 54.0572 74.8923 53.8619 75.3571H53.8308L53.7995 74.6865H53.011C53.0345 75.0251 53.0422 75.377 53.0422 75.802V78.3454H53.9479V76.4063C53.9479 75.7688 54.3303 75.3438 54.9393 75.3438C55.0408 75.3438 55.1266 75.3505 55.2047 75.3637V74.6267ZM56.8911 73.6771C56.8911 73.4181 56.6803 73.2255 56.368 73.2255C56.0557 73.2255 55.837 73.4181 55.837 73.6771C55.837 73.9227 56.0479 74.122 56.3601 74.122C56.688 74.122 56.8911 73.9227 56.8911 73.6771ZM56.813 74.6865H55.9073V78.3454H56.813V74.6865ZM60.9896 76.0943C60.9896 75.3172 60.6383 74.6067 59.3735 74.6067C58.7959 74.6067 58.2885 74.7462 57.984 74.9122L58.1713 75.4235C58.4445 75.2707 58.8349 75.1712 59.2174 75.1712C60.0839 75.1712 60.0839 75.7158 60.0839 75.988C58.6085 75.988 57.6795 76.4395 57.6795 77.3493C57.6795 77.9138 58.1401 78.4196 58.9442 78.4196C59.4828 78.4196 59.9044 78.2059 60.1465 77.9204H60.1698L60.2323 78.3454H61.0522C60.9975 78.1063 60.9896 77.7876 60.9896 77.4755V76.0943ZM60.1075 77.1103C60.1075 77.5353 59.7015 77.854 59.2096 77.854C58.8738 77.854 58.5772 77.6747 58.5772 77.2696C58.5772 76.6189 59.3971 76.506 60.1075 76.506V77.1103ZM65.6815 76.1341C65.6815 74.9786 64.932 74.6067 64.2841 74.6067C63.8157 74.6067 63.3317 74.806 63.0507 75.1845H63.0349V73.0197H62.1294V78.3454H63.0349V76.1075C63.0349 75.5564 63.5111 75.2443 63.9561 75.2443C64.5651 75.2443 64.7759 75.6826 64.7759 76.2071V78.3454H65.6815V76.1341Z" fill="#005FA1"/>
</g>
<defs>
<clipPath id="clip0_801_8926">
<rect width="69.1474" height="80" fill="white" transform="translate(0.5)"/>
</clipPath>
</defs>
</svg>
