<svg width="81" height="80" viewBox="0 0 81 80" fill="none" xmlns="http://www.w3.org/2000/svg">
<g clip-path="url(#clip0_801_8849)">
<path d="M51.8664 39.9243C51.8664 39.9265 51.8664 39.9287 51.8664 39.9308V39.9178C51.8664 39.9199 51.8664 39.9221 51.8664 39.9243Z" fill="url(#paint0_radial_801_8849)"/>
<path fill-rule="evenodd" clip-rule="evenodd" d="M2.04387 50.9602C1.04951 47.4735 0.5 43.797 0.5 39.9963C0.5 17.944 18.4442 0 40.4967 0C53.3318 0 63.7006 4.62502 69.6994 13.005C70.3602 13.7966 70.249 14.9741 69.4639 15.6282C68.849 16.1385 67.9789 16.1516 67.3248 15.7787C63.1511 13.4498 57.9699 12.0892 52.3701 11.7228C56.6158 15.0264 60.4951 19.1673 63.7595 23.9559C64.3482 24.8129 64.8977 25.6829 65.4342 26.5661C67.1481 24.9175 68.2341 22.9877 68.6266 20.8813C68.8163 19.8673 69.7845 19.2 70.7919 19.3897C71.7994 19.5729 72.4732 20.5476 72.2835 21.5551C71.6947 24.7344 69.9807 27.5866 67.2986 29.8893C70.9555 36.974 72.9376 44.5166 72.918 51.6471C72.918 52.3013 72.8984 52.9358 72.8657 53.5704C74.2002 52.092 75.1619 50.4631 75.7114 48.7033C76.4048 45.9165 76.7777 42.9989 76.7777 39.9963C76.7777 35.0965 75.8226 30.3472 73.932 25.8792C73.5264 24.9306 73.9713 23.8381 74.9198 23.4391C75.8618 23.0335 76.9543 23.4783 77.3534 24.4269C79.3456 29.1294 80.4017 34.1181 80.4935 39.2563V40.7092C80.4474 43.2451 80.1588 45.7241 79.6626 48.1211C79.6626 48.2258 79.6561 48.3239 79.6299 48.422C79.5384 48.8538 79.4206 49.2856 79.2963 49.7042C77.0132 58.8365 71.577 66.7324 64.2174 72.1751C63.8576 72.4564 63.4912 72.7312 63.1118 72.9863C63.0938 72.9971 63.0762 73.008 63.0589 73.0187C63.0134 73.0467 62.9695 73.0738 62.9221 73.0975C56.5242 77.4478 48.8048 79.9925 40.4967 79.9925C22.5525 79.9925 7.32313 68.1062 2.27938 51.791C2.26937 51.756 2.25553 51.7248 2.24079 51.6916C2.23627 51.6814 2.23165 51.671 2.22704 51.6602C2.16163 51.4313 2.10274 51.1957 2.04387 50.9602ZM64.1651 63.0952C59.7493 64.5802 54.771 65.3456 49.5114 65.411V65.4044C48.5955 69.6696 47.3918 73.2938 45.9068 75.8647C51.8468 74.9685 57.3223 72.6265 61.9539 69.2117C64.309 67.3539 66.1145 64.8549 67.3378 61.8588C66.3369 62.3102 65.2772 62.7223 64.1651 63.0952ZM24.43 72.4564C24.5674 72.5153 24.6851 72.6004 24.7898 72.6919L24.7963 72.705C29.4868 74.9685 34.7334 76.2376 40.2678 76.2768C40.2881 76.2737 40.3085 76.2702 40.329 76.2666C40.3939 76.2555 40.4598 76.2441 40.5294 76.2441C41.9228 76.2441 44.0293 72.4891 45.6779 65.339C42.3219 65.1624 38.894 64.7045 35.453 63.9718C30.9064 63.0036 26.5757 61.584 22.6114 59.7981C21.532 66.8436 22.3693 71.449 24.43 72.4564ZM5.0204 46.2306C5.0989 47.48 5.29516 48.7099 5.61571 49.9201H5.62225C7.80722 57.5936 12.4585 64.2335 18.6601 68.9304C18.1891 65.9212 18.3984 62.199 19.1311 58.0842C15.5331 56.1544 12.308 53.9106 9.58006 51.392C7.77451 49.7238 6.25681 47.9968 5.0204 46.2306ZM51.801 35.5675C51.8467 37.0241 51.8664 38.4742 51.8664 39.9243C51.8661 47.3929 51.3362 55.0638 50.231 61.6756C54.8168 61.5579 59.1475 60.8514 62.9875 59.5626C65.1529 58.8365 67.0762 57.9468 68.7443 56.9198C69.0387 55.2582 69.1957 53.4919 69.2023 51.6406C69.2153 45.2428 67.4752 38.4655 64.2239 32.035C60.7175 34.0564 56.4326 35.26 51.801 35.5675ZM23.3375 56.017C27.2757 57.8683 31.6326 59.3337 36.238 60.3215H36.2445C39.6855 61.0542 43.1135 61.4859 46.4433 61.6298C47.4507 55.9516 48.1507 48.6837 48.1507 39.9178C48.1507 38.4328 48.1376 37.0001 48.0918 35.6002C45.8152 35.5217 43.506 35.247 41.1902 34.7563C38.1417 34.1021 35.2306 33.1536 32.5615 31.9565C31.9793 33.0489 31.4167 34.161 30.8606 35.2993C27.0402 43.1363 24.6263 50.1949 23.3375 56.017ZM5.67458 39.5645C6.78015 42.6391 8.95858 45.7334 12.1183 48.651H12.1117C14.3621 50.7313 17.005 52.6218 19.9423 54.2769C21.5189 47.6894 24.2141 40.4346 27.5177 33.6704C28.0803 32.5256 28.656 31.3873 29.2448 30.2687C27.1056 29.0454 25.1823 27.6389 23.5272 26.0885C21.7871 24.4596 20.4199 22.7391 19.4451 20.9729C16.0695 23.3998 13.1192 26.2259 10.751 29.3659C8.25206 32.6695 6.55773 36.1236 5.67458 39.5645ZM60.6783 26.0493C57.4401 21.2999 53.5608 17.2375 49.3282 14.0909C50.5319 19.2262 51.2973 25.4016 51.6375 31.8256C55.6934 31.5378 59.4484 30.5107 62.4249 28.7902C61.8754 27.8679 61.2932 26.952 60.6783 26.0493ZM34.354 28.6921C36.709 29.7323 39.2669 30.5565 41.9556 31.1322C43.9508 31.5574 45.9526 31.806 47.9282 31.8845C47.5161 24.211 46.5348 18.0225 45.3638 13.4171C41.6219 17.3422 37.8211 22.6279 34.354 28.6921ZM22.5656 18.9318C23.3571 20.4364 24.5216 21.941 26.0655 23.3802V23.3868C27.4916 24.7278 29.1663 25.9446 31.0242 27.024C34.2885 21.2999 37.8407 16.2235 41.406 12.2331C38.9398 12.6125 36.4604 13.1555 34.0203 13.8881C29.9121 15.1245 26.0524 16.8385 22.5656 18.9318ZM17.9143 12.1088C17.9536 11.9125 18.0059 11.7228 18.0583 11.5331C12.0332 16.302 7.54555 22.9223 5.48487 30.5434C6.16522 29.3986 6.91753 28.2604 7.76797 27.1417C10.5417 23.4718 14.022 20.2075 18.0256 17.4468C17.5807 15.661 17.5415 13.862 17.9143 12.1088ZM24.9206 7.79777C23.1216 9.23041 21.9637 10.9509 21.5516 12.8807V12.8742C21.3881 13.6657 21.3488 14.4704 21.4273 15.2881C24.9795 13.247 28.8523 11.5593 32.954 10.3294C35.1586 9.66217 37.3894 9.14537 39.6267 8.75941C34.3147 6.8165 29.2644 6.5025 24.9206 7.79777ZM55.17 6.3455C54.1822 6.57446 53.0112 7.14359 51.7356 7.97439C54.8299 8.12485 57.826 8.55007 60.639 9.25658C58.8858 8.04635 57.041 7.09126 55.17 6.3455ZM50.2441 4.80819C48.5824 4.41568 46.9731 4.16055 45.4685 3.99047V3.99701C46.0311 4.82781 46.5545 5.79599 47.0386 6.89501C48.131 6.05766 49.2039 5.36424 50.2441 4.80819ZM36.4473 3.95776C38.0893 4.31756 39.751 4.81473 41.4322 5.45582V5.46236C41.8509 5.61936 42.263 5.79599 42.6752 5.97262C41.864 4.50072 41.0855 3.74188 40.4509 3.7288C39.0902 3.7288 37.7622 3.81384 36.4473 3.95776Z" fill="url(#paint1_radial_801_8849)"/>
</g>
<defs>
<radialGradient id="paint0_radial_801_8849" cx="0" cy="0" r="1" gradientUnits="userSpaceOnUse" gradientTransform="translate(76.9924 15.0866) scale(66.164 66.1633)">
<stop stop-color="white"/>
<stop offset="0.17" stop-color="#B3E0F3"/>
<stop offset="0.43" stop-color="#4AB6E2"/>
<stop offset="0.54" stop-color="#21A6DC"/>
<stop offset="0.71" stop-color="#2177A4"/>
<stop offset="0.91" stop-color="#214669"/>
<stop offset="1" stop-color="#223353"/>
</radialGradient>
<radialGradient id="paint1_radial_801_8849" cx="0" cy="0" r="1" gradientUnits="userSpaceOnUse" gradientTransform="translate(76.9924 15.0866) scale(66.164 66.1633)">
<stop stop-color="white"/>
<stop offset="0.17" stop-color="#B3E0F3"/>
<stop offset="0.43" stop-color="#4AB6E2"/>
<stop offset="0.54" stop-color="#21A6DC"/>
<stop offset="0.71" stop-color="#2177A4"/>
<stop offset="0.91" stop-color="#214669"/>
<stop offset="1" stop-color="#223353"/>
</radialGradient>
<clipPath id="clip0_801_8849">
<rect width="79.9935" height="79.9925" fill="white" transform="translate(0.5)"/>
</clipPath>
</defs>
</svg>
