<svg width="81" height="16" viewBox="0 0 81 16" fill="none" xmlns="http://www.w3.org/2000/svg">
<g clip-path="url(#clip0_801_8864)">
<g clip-path="url(#clip1_801_8864)">
<path fill-rule="evenodd" clip-rule="evenodd" d="M0.802748 9.99314C0.607758 9.30939 0.5 8.58844 0.5 7.84312C0.5 3.51869 4.01881 -0.00012207 8.34324 -0.00012207C10.8602 -0.00012207 12.8934 0.90684 14.0698 2.55015C14.1994 2.70537 14.1776 2.93628 14.0236 3.06456C13.903 3.16463 13.7324 3.16719 13.6041 3.09407C12.7857 2.63738 11.7697 2.37055 10.6716 2.29871C11.5041 2.94654 12.2649 3.75858 12.905 4.69761C13.0204 4.86566 13.1282 5.03628 13.2334 5.20946C13.5695 4.88619 13.7824 4.50775 13.8594 4.09468C13.8966 3.89584 14.0865 3.76499 14.284 3.80219C14.4816 3.83811 14.6137 4.02926 14.5765 4.22681C14.4611 4.85027 14.125 5.40958 13.599 5.86114C14.3161 7.25045 14.7048 8.72955 14.701 10.1278C14.701 10.2561 14.6971 10.3806 14.6907 10.505C14.9524 10.2151 15.141 9.89565 15.2487 9.55057C15.3847 9.00408 15.4578 8.43194 15.4578 7.84312C15.4578 6.88228 15.2705 5.95094 14.8998 5.07476C14.8203 4.88875 14.9075 4.67452 15.0935 4.59627C15.2782 4.51673 15.4925 4.60396 15.5707 4.78998C15.9614 5.71212 16.1685 6.69039 16.1865 7.69798V7.98296C16.1774 8.48024 16.1208 8.96635 16.0236 9.43639C16.0236 9.45692 16.0223 9.47616 16.0171 9.4954C15.9992 9.58007 15.9761 9.66474 15.9517 9.74684C15.504 11.5377 14.438 13.0861 12.9948 14.1534C12.9242 14.2085 12.8524 14.2624 12.778 14.3124C12.7744 14.3146 12.771 14.3167 12.7676 14.3188C12.7587 14.3243 12.7501 14.3296 12.7408 14.3342C11.4862 15.1873 9.97243 15.6864 8.34324 15.6864C4.82443 15.6864 1.83799 13.3554 0.84893 10.1561C0.846968 10.1492 0.844255 10.1431 0.841365 10.1366C0.840477 10.1346 0.839572 10.1325 0.838668 10.1304C0.825839 10.0855 0.814294 10.0393 0.802748 9.99314ZM12.9845 12.3728C12.1186 12.664 11.1424 12.8141 10.111 12.8269V12.8256C9.93138 13.662 9.69534 14.3727 9.40414 14.8769C10.569 14.7011 11.6427 14.2419 12.5509 13.5722C13.0127 13.2079 13.3668 12.7179 13.6067 12.1303C13.4104 12.2189 13.2026 12.2997 12.9845 12.3728ZM5.1926 14.2085C5.21954 14.2201 5.24263 14.2368 5.26316 14.2547L5.26444 14.2573C6.18423 14.7011 7.21306 14.95 8.29834 14.9577C8.30233 14.9571 8.30632 14.9564 8.31034 14.9557C8.32307 14.9535 8.33599 14.9513 8.34965 14.9513C8.6229 14.9513 9.03597 14.2149 9.35924 12.8128C8.70115 12.7782 8.02894 12.6884 7.35417 12.5447C6.46261 12.3548 5.61337 12.0765 4.83597 11.7263C4.62431 13.1079 4.78851 14.011 5.1926 14.2085ZM1.38644 9.06566C1.40183 9.31068 1.44032 9.55185 1.50318 9.78917H1.50446C1.93292 11.2939 2.84502 12.596 4.06114 13.5171C3.96878 12.927 4.00983 12.1971 4.15351 11.3901C3.44795 11.0117 2.81551 10.5717 2.28057 10.0778C1.92651 9.75069 1.62889 9.41202 1.38644 9.06566ZM10.56 6.97464C10.569 7.26071 10.5728 7.5455 10.5728 7.83029V7.82772C10.5728 9.29272 10.4689 10.7975 10.2521 12.0944C11.1514 12.0713 12.0006 11.9328 12.7536 11.6801C13.1782 11.5377 13.5554 11.3632 13.8825 11.1618C13.9402 10.836 13.971 10.4896 13.9723 10.1266C13.9749 8.87195 13.6336 7.54293 12.9961 6.28191C12.3085 6.6783 11.4682 6.91435 10.56 6.97464ZM4.97837 10.9848C5.75063 11.3478 6.605 11.6352 7.50811 11.8289H7.5094C8.18417 11.9726 8.85637 12.0572 9.50933 12.0854C9.70689 10.9719 9.84415 9.54672 9.84415 7.82772C9.84415 7.53652 9.84159 7.25558 9.83261 6.98105C9.38618 6.96566 8.93334 6.91178 8.47922 6.81557C7.88142 6.68728 7.31056 6.50127 6.78716 6.26652C6.67299 6.48075 6.56267 6.69883 6.45363 6.92204C5.70445 8.45888 5.23109 9.84305 4.97837 10.9848ZM1.51472 7.75845C1.73152 8.36138 2.1587 8.96816 2.77831 9.5403H2.77703C3.21832 9.94825 3.73659 10.319 4.31258 10.6435C4.62174 9.35173 5.15027 7.92907 5.7981 6.60262C5.90842 6.37812 6.02131 6.15491 6.13677 5.93554C5.71728 5.69565 5.34013 5.41985 5.01557 5.11581C4.67434 4.79639 4.40622 4.459 4.21508 4.11264C3.55314 4.58857 2.97458 5.14275 2.5102 5.75851C2.02016 6.40634 1.6879 7.08368 1.51472 7.75845ZM12.3008 5.10812C11.6658 4.17678 10.9051 3.38014 10.0751 2.7631C10.3111 3.77012 10.4612 4.98112 10.5279 6.24086C11.3233 6.18441 12.0596 5.98301 12.6433 5.64562C12.5355 5.46474 12.4214 5.28515 12.3008 5.10812ZM7.13866 5.62638C7.60048 5.83035 8.10207 5.99199 8.62931 6.10488C9.02057 6.18826 9.41312 6.23701 9.80054 6.2524C9.71972 4.74764 9.52729 3.53408 9.29767 2.63097C8.56388 3.40067 7.81856 4.4372 7.13866 5.62638ZM4.82699 3.7124C4.98222 4.00745 5.21056 4.3025 5.51331 4.58472V4.586C5.79297 4.84899 6.12137 5.08759 6.4857 5.29926C7.12583 4.17678 7.82241 3.1813 8.52155 2.39878C8.03792 2.47318 7.55173 2.57965 7.07323 2.72333C6.26761 2.96579 5.51074 3.30189 4.82699 3.7124ZM3.9149 2.3744C3.9226 2.33592 3.93286 2.29871 3.94312 2.26151C2.76163 3.1967 1.88161 4.49492 1.47752 5.98942C1.61093 5.76493 1.75846 5.54172 1.92523 5.32235C2.46915 4.60268 3.15161 3.96255 3.93671 3.42119C3.84948 3.07098 3.84178 2.7182 3.9149 2.3744ZM5.28881 1.52901C4.93604 1.80995 4.70897 2.14734 4.62815 2.52578V2.52449C4.59608 2.67972 4.58839 2.8375 4.60378 2.99786C5.30036 2.59761 6.0598 2.26664 6.86413 2.02547C7.29645 1.89462 7.73389 1.79328 8.17262 1.71759C7.13096 1.33659 6.14061 1.27501 5.28881 1.52901ZM11.2206 1.24423C11.0269 1.28912 10.7973 1.40073 10.5471 1.56365C11.1539 1.59316 11.7415 1.67654 12.2931 1.81509C11.9493 1.57776 11.5875 1.39047 11.2206 1.24423ZM10.2547 0.94276C9.92882 0.86579 9.61324 0.815759 9.31819 0.782406V0.783689C9.42851 0.946608 9.53114 1.13647 9.62607 1.35198C9.8403 1.18778 10.0507 1.0518 10.2547 0.94276ZM7.54916 0.775992C7.87116 0.846547 8.19699 0.944043 8.52668 1.06976V1.07104C8.60878 1.10183 8.6896 1.13647 8.77042 1.1711C8.61135 0.882467 8.45869 0.733658 8.33426 0.731093C8.06743 0.731093 7.80701 0.747769 7.54916 0.775992Z" fill="url(#paint0_radial_801_8864)"/>
<path d="M78.7015 5.55082C79.8611 5.55082 80.5 6.11141 80.5 7.13126C80.5 8.09211 79.8701 8.66682 78.8169 8.66682H78.0793V10.1369H77.1018V5.55082H78.7015ZM78.0793 7.86889H78.663C79.2287 7.86889 79.5161 7.62131 79.5161 7.13126C79.5161 6.64122 79.2018 6.36157 78.6309 6.36157H78.0793V7.87018V7.86889ZM75.3045 8.29992C75.3045 8.97341 75.0467 9.30053 74.5143 9.30053C73.9819 9.30053 73.7061 8.96315 73.7061 8.29992V5.55082H72.7299V8.2345C72.726 8.89131 72.8902 9.38905 73.2161 9.71617C73.5188 10.0202 73.9563 10.1741 74.5143 10.1741C75.3199 10.1741 76.2808 9.83676 76.2808 8.2345V5.54953H75.3045V8.29864V8.29992ZM70.0654 5.51233C71.0571 5.51233 72.1141 6.12552 72.1141 7.84965C72.1141 9.57378 71.0558 10.1754 70.0654 10.1754C69.0751 10.1754 68.0103 9.5648 68.0103 7.84965C68.0103 6.1345 69.0725 5.51233 70.0654 5.51233ZM70.0654 9.31978C70.4541 9.31978 71.1058 9.12863 71.1058 7.84965C71.1058 6.57067 70.4541 6.37953 70.0654 6.37953C69.3919 6.37953 69.0199 6.90164 69.0199 7.84965C69.0199 8.79766 69.3919 9.31978 70.0654 9.31978ZM67.0033 8.74507C67.1649 9.07347 67.3035 9.35698 67.6268 9.35698H67.859V10.1113L67.8256 10.1203C67.8192 10.1228 67.6486 10.1664 67.351 10.1664C66.58 10.1664 66.3427 9.63535 66.1335 9.16712C65.9629 8.78355 65.8141 8.45258 65.4113 8.45258H64.9816V10.1344H64.0053V5.55082H65.6307C66.8186 5.55082 67.3715 6.01392 67.3715 7.0094C67.3715 7.62516 67.002 8.00487 66.6326 8.16651C66.7955 8.3243 66.9007 8.53853 67.0033 8.74635M64.9816 7.69571H65.5268C66.0694 7.69571 66.4055 7.44299 66.4055 7.03505C66.4055 6.60659 66.1117 6.36157 65.5973 6.36157H64.9816V7.69699V7.69571ZM61.405 8.46028H62.4133V8.51031C62.4133 8.80793 62.3081 9.30695 61.6039 9.30695C60.9406 9.30695 60.5455 8.76174 60.5455 7.84965C60.5455 6.93756 60.924 6.37953 61.5859 6.37953C62.3723 6.37953 62.3992 7.17488 62.4005 7.20823L62.4031 7.25955L63.3139 7.11715V7.07867C63.3139 6.7477 63.0188 5.51105 61.5731 5.51105C60.2787 5.51105 59.5372 6.36285 59.5372 7.84837C59.5372 9.33389 60.3031 10.1741 61.5859 10.1741C62.8687 10.1741 63.3331 9.2736 63.3331 8.5039V7.70726H61.405V8.459V8.46028ZM58.4802 5.55082H57.3192L55.8016 7.61489V5.55082H54.8113V10.1369H55.8016V8.02797L57.3577 10.1369H58.5328L56.7573 7.82528L58.4802 5.5521V5.55082ZM52.9563 8.38331L51.3528 5.55082H50.3624V10.1369H51.3399V7.40194L52.937 10.1369H53.9338V5.55082H52.9576V8.38331H52.9563ZM48.4279 5.58032L50.1007 10.1357H49.0847L48.6934 9.0119H47.1656L46.7872 10.1357H45.7647L47.4491 5.54953H48.4176L48.4292 5.57904L48.4279 5.58032ZM47.9289 6.80029L47.4337 8.24733H48.4356L47.9289 6.80029ZM44.8565 7.7188C45.208 7.82015 45.6698 8.14342 45.6698 8.8323C45.6698 9.66101 45.0823 10.1369 44.0573 10.1369H42.1228V5.55082H43.87C44.8629 5.55082 45.3671 5.96645 45.3671 6.78362C45.3671 7.41734 45.0784 7.64055 44.8552 7.7188M43.7674 7.42503C44.174 7.42503 44.3639 7.25442 44.3639 6.88624C44.3639 6.53731 44.1227 6.36028 43.6455 6.36028H43.1003V7.42503H43.7674ZM43.1003 9.32491H43.8636C44.3626 9.32491 44.5948 9.13761 44.5948 8.73481C44.5948 8.2422 44.1869 8.13829 43.8443 8.13829H43.1003V9.32491ZM38.0985 5.54953C39.5263 5.54953 40.3781 6.43597 40.3781 7.91892C40.3781 9.40188 39.6174 10.1344 38.291 10.1344H36.7374V5.55082H38.0998L38.0985 5.54953ZM37.7137 9.32491H38.2845C38.9875 9.32491 39.4083 8.7951 39.4083 7.9061C39.4083 6.87983 38.9632 6.359 38.0857 6.359H37.7137V9.32491ZM34.2988 5.54953H33.3213V10.1357H36.2833V9.32491H34.2988V5.54953ZM32.0051 8.74507C32.1667 9.07347 32.3065 9.35698 32.6298 9.35698H32.8607V10.1113L32.8274 10.1203C32.8197 10.1228 32.6503 10.1664 32.3527 10.1664C31.5817 10.1664 31.3444 9.63535 31.1353 9.16712C30.9634 8.78355 30.8159 8.45258 30.4131 8.45258H29.9833V10.1344H29.0058V5.55082H30.6312C31.8178 5.55082 32.372 6.01392 32.372 7.0094C32.372 7.62516 32.0025 8.00487 31.6343 8.16651C31.7973 8.3243 31.9024 8.53853 32.0051 8.74635M29.9846 7.69571H30.5298C31.0725 7.69571 31.4086 7.44299 31.4086 7.03505C31.4086 6.60659 31.1135 6.36157 30.6004 6.36157H29.9846V7.69699V7.69571ZM26.4017 5.51233C27.392 5.51233 28.4503 6.12552 28.4503 7.84965C28.4503 9.57378 27.392 10.1754 26.4017 10.1754C25.4113 10.1754 24.3466 9.5648 24.3466 7.84965C24.3466 6.1345 25.4088 5.51233 26.4017 5.51233ZM26.4017 9.31978C26.7904 9.31978 27.442 9.12863 27.442 7.84965C27.442 6.57067 26.7904 6.37953 26.4017 6.37953C25.7282 6.37953 25.3549 6.90164 25.3549 7.84965C25.3549 8.79766 25.7269 9.31978 26.4017 9.31978ZM23.1048 5.55082H24.2093L22.8918 10.1369H21.7886L20.9881 7.26083L20.1748 10.1369H19.0716L17.7554 5.55082H18.892L19.6629 8.89773L20.5866 5.55082H21.4076L22.3017 8.89773L23.1035 5.55082H23.1048Z" fill="#223353"/>
</g>
</g>
<defs>
<radialGradient id="paint0_radial_801_8864" cx="0" cy="0" r="1" gradientUnits="userSpaceOnUse" gradientTransform="translate(15.4999 2.95835) scale(12.9746)">
<stop stop-color="white"/>
<stop offset="0.17" stop-color="#B3E0F3"/>
<stop offset="0.43" stop-color="#4AB6E2"/>
<stop offset="0.54" stop-color="#21A6DC"/>
<stop offset="0.71" stop-color="#2177A4"/>
<stop offset="0.91" stop-color="#214669"/>
<stop offset="1" stop-color="#223353"/>
</radialGradient>
<clipPath id="clip0_801_8864">
<rect width="80" height="15.6865" fill="white" transform="translate(0.5)"/>
</clipPath>
<clipPath id="clip1_801_8864">
<rect width="80" height="15.6865" fill="white" transform="translate(0.5)"/>
</clipPath>
</defs>
</svg>
